<?xml version="1.0" standalone="no"?>
<!DOCTYPE svg PUBLIC "-//W3C//DTD SVG 20010904//EN"
 "http://www.w3.org/TR/2001/REC-SVG-20010904/DTD/svg10.dtd">
<svg version="1.0" xmlns="http://www.w3.org/2000/svg"
 width="500.000000pt" height="878.000000pt" viewBox="0 0 500.000000 878.000000"
 preserveAspectRatio="xMidYMid meet">
<metadata>
Created by potrace 1.16, written by Peter Selinger 2001-2019
</metadata>
<g transform="translate(0.000000,878.000000) scale(0.100000,-0.100000)"
fill="#000000" stroke="none">
<path d="M1620 8770 c0 -5 9 -10 20 -10 11 0 20 5 20 10 0 6 -9 10 -20 10 -11
0 -20 -4 -20 -10z M1997 8773 c-14 -13 -7 -31 14 -36 11 -3 23 -15 26 -26 3
-12 12 -21 20 -21 12 0 14 8 8 37 -4 21 -9 41 -11 45 -6 10 -48 10 -57 1z
M2430 8773 c-21 -8 -30 -24 -30 -55 0 -28 -1 -28 -67 -29 -38 -1 -97 -4 -133
-8 -62 -6 -65 -7 -63 -31 1 -18 -6 -29 -23 -37 -13 -6 -24 -7 -24 -2 0 5 -7 9
-15 9 -8 0 -15 -7 -15 -15 0 -8 7 -15 16 -15 12 0 14 -3 6 -13 -16 -19 -3 -57
19 -57 14 0 20 10 25 40 4 22 12 40 19 40 8 0 10 -9 7 -25 -5 -27 15 -35 24
-10 4 8 15 15 26 15 11 0 22 8 25 20 3 11 11 20 18 20 15 0 25 -45 25 -116 0
-47 -2 -54 -20 -54 -11 0 -20 -4 -20 -10 0 -5 -9 -10 -20 -10 -12 0 -20 -7
-20 -16 0 -12 7 -15 25 -12 14 3 25 1 25 -3 0 -5 -17 -9 -39 -9 -42 0 -65 -18
-59 -47 3 -14 13 -18 50 -18 26 0 53 -6 59 -12 17 -17 29 -16 29 1 0 7 14 16
31 20 39 8 139 7 119 -1 -8 -4 -20 -13 -27 -22 -11 -15 -12 -14 -13 1 0 21
-70 24 -70 2 0 -8 6 -14 14 -14 7 0 16 -9 19 -21 5 -18 11 -20 49 -15 l43 6
-30 -15 c-22 -10 -48 -13 -96 -9 -65 6 -70 5 -179 -45 -112 -52 -225 -121
-232 -142 -2 -7 -19 -13 -38 -16 -19 -2 -44 -10 -56 -18 -21 -13 -22 -12 -27
28 -10 74 -88 125 -152 101 -9 -4 -24 -23 -34 -43 -15 -30 -18 -59 -16 -181 1
-80 5 -159 9 -177 7 -28 6 -31 -12 -26 -21 5 -44 -18 -24 -25 16 -5 15 -33 -2
-54 -16 -22 -26 -23 -26 -3 0 8 -7 15 -15 15 -8 0 -15 -9 -15 -20 0 -11 7 -20
15 -20 22 0 18 -17 -5 -23 -13 -3 -20 0 -20 9 0 21 -36 57 -49 49 -6 -3 -11 1
-11 9 0 9 -7 16 -15 16 -16 0 -20 -20 -7 -36 4 -5 -3 2 -15 16 -13 14 -18 27
-13 28 6 2 10 10 10 18 0 17 -30 19 -30 2 -1 -17 -108 101 -116 127 -4 11 -31
46 -60 77 -29 32 -55 66 -59 77 -3 11 -28 36 -56 55 -45 33 -55 36 -117 36
-38 0 -71 3 -75 6 -11 11 -141 53 -215 70 -136 30 -281 -6 -370 -92 -50 -48
-53 -54 -49 -92 2 -22 14 -52 25 -67 12 -15 22 -35 22 -44 0 -28 95 -121 123
-121 33 0 41 -14 26 -42 -8 -14 -14 -18 -17 -10 -5 17 -32 15 -32 -3 0 -8 5
-15 12 -15 9 0 9 -3 0 -12 -7 -7 -12 -27 -12 -45 0 -22 -5 -33 -15 -33 -36 0
-127 -44 -164 -80 -23 -22 -41 -35 -41 -30 0 6 -7 10 -15 10 -18 0 -20 -21 -3
-38 9 -9 7 -13 -6 -18 -9 -3 -28 -26 -42 -49 -14 -24 -31 -49 -39 -55 -8 -7
-15 -21 -15 -32 0 -10 -5 -16 -10 -13 -6 3 -10 18 -10 31 0 16 -5 24 -12 22
-18 -6 -23 -39 -7 -49 10 -6 10 -10 0 -23 -7 -9 -11 -23 -7 -31 6 -17 36 -21
36 -5 0 6 5 10 10 10 6 0 10 -6 10 -13 0 -7 11 -41 24 -75 14 -34 20 -62 15
-62 -15 0 -10 -32 8 -52 14 -16 14 -18 0 -18 -13 0 -15 -19 -16 -132 -1 -73
-5 -135 -9 -139 -4 -4 -24 -12 -44 -19 -23 -7 -38 -18 -38 -27 0 -20 50 -13
111 16 23 12 43 20 44 18 1 -1 5 -28 9 -59 6 -53 5 -58 -13 -58 -16 0 -20 8
-23 42 -4 58 -28 63 -28 6 0 -42 -2 -44 -50 -65 -29 -13 -50 -28 -50 -37 0
-22 26 -20 66 5 49 30 42 14 -16 -38 -75 -67 -63 -105 13 -42 34 28 37 29 37
10 0 -12 -4 -21 -9 -21 -5 0 -23 -12 -40 -26 -24 -19 -31 -34 -31 -60 0 -24 5
-34 15 -34 8 0 15 8 15 18 0 10 12 29 28 43 l27 24 -22 -26 c-28 -31 -29 -49
-3 -49 12 0 32 -7 45 -16 14 -9 32 -14 40 -10 9 3 26 -1 38 -9 73 -47 411 -43
546 8 96 35 120 80 86 160 -23 56 6 52 70 -10 75 -73 136 -71 65 2 l-30 31 35
-4 c40 -5 44 6 12 35 -47 43 -118 66 -132 43 -10 -16 -35 -12 -35 5 0 9 7 18
15 21 20 8 19 34 -1 48 -10 8 -18 34 -21 74 -5 51 -3 63 11 68 21 8 20 24 -1
39 -16 12 -13 14 22 20 22 3 54 12 70 20 17 7 42 16 56 19 25 5 27 3 33 -37 4
-23 10 -170 14 -327 7 -250 10 -290 26 -323 17 -35 22 -38 48 -33 26 5 29 3
23 -14 -5 -15 -2 -20 14 -20 18 0 20 -7 23 -62 3 -55 6 -64 26 -73 21 -9 23
-15 18 -50 -14 -93 -28 -374 -22 -408 8 -44 45 -72 110 -83 23 -3 67 -17 98
-30 66 -28 120 -31 142 -8 15 14 16 10 16 -40 0 -31 -4 -122 -10 -203 -5 -82
-11 -368 -14 -636 -4 -449 -3 -489 12 -493 45 -14 59 -36 77 -117 3 -16 16
-39 28 -51 21 -21 24 -38 36 -207 7 -101 16 -217 22 -258 5 -40 13 -193 19
-340 6 -146 14 -283 19 -304 17 -73 81 -137 137 -137 10 0 36 12 57 27 l39 27
18 -22 c25 -31 38 -98 49 -259 17 -238 20 -396 8 -384 -16 16 -27 14 -27 -5 0
-9 8 -18 19 -21 20 -5 31 -46 31 -115 0 -32 -3 -37 -30 -43 -21 -5 -30 -12
-30 -27 0 -14 5 -18 15 -14 9 3 15 0 15 -9 0 -8 7 -15 15 -15 8 0 15 -8 15
-19 0 -12 -7 -18 -17 -17 -12 0 -19 -7 -21 -21 -3 -17 3 -26 22 -33 22 -8 26
-16 26 -51 0 -27 -6 -46 -17 -54 -17 -13 -11 -51 7 -40 6 4 10 -10 10 -34 0
-30 -4 -41 -15 -41 -8 0 -15 9 -15 20 0 11 -4 20 -10 20 -5 0 -10 -9 -10 -21
0 -21 22 -49 38 -49 13 0 19 -32 28 -132 5 -68 4 -78 -10 -78 -10 0 -16 -8
-16 -21 0 -14 5 -19 14 -16 9 4 16 -3 20 -16 9 -33 7 -37 -9 -37 -19 0 -19
-29 0 -36 10 -4 15 -20 15 -46 0 -38 -1 -40 -26 -34 -21 6 -25 4 -22 -11 2
-10 11 -17 21 -17 17 2 22 -7 10 -19 -3 -4 -16 -1 -29 8 -12 8 -53 21 -90 30
-87 20 -114 37 -107 66 5 19 3 21 -15 17 -23 -6 -39 6 -22 17 15 10 12 35 -5
35 -9 0 -15 -9 -15 -22 0 -19 -8 -14 -52 30 -29 29 -62 55 -74 58 -40 10 -78
-17 -94 -66 -10 -31 -36 -66 -82 -113 -55 -55 -73 -67 -100 -67 -48 -1 -99
-22 -156 -63 -92 -68 -181 -94 -279 -82 -39 5 -63 14 -80 31 -25 26 -43 31
-43 13 0 -7 -23 -9 -74 -4 -61 6 -81 4 -117 -12 -40 -18 -49 -18 -84 -6 -21 7
-46 20 -55 28 -9 8 -25 15 -36 15 -10 0 -55 16 -99 35 -44 19 -87 35 -95 35
-9 0 -39 -15 -67 -34 -29 -19 -75 -41 -103 -49 -47 -14 -50 -14 -50 3 0 15
-18 30 -36 30 -9 0 -3 -39 7 -45 6 -5 3 -13 -10 -22 -24 -17 -30 -73 -7 -73 9
0 12 -7 9 -20 -9 -34 24 -35 89 -1 33 17 71 31 83 31 30 0 71 34 79 65 8 31 3
32 161 -31 61 -23 133 -46 161 -49 44 -6 53 -4 80 18 l31 26 79 -21 c121 -33
283 -31 388 6 44 15 98 40 120 57 34 25 49 29 101 29 l62 0 74 77 c41 43 88
95 105 115 l30 38 67 -60 c67 -59 100 -74 237 -108 l35 -9 -60 -37 c-33 -20
-75 -46 -93 -57 -18 -11 -40 -35 -48 -55 -9 -22 -26 -39 -47 -48 -17 -8 -52
-22 -77 -32 -24 -11 -69 -40 -99 -66 l-54 -48 -764 0 -763 0 0 -37 0 -36 587
6 c324 4 1449 10 2501 14 l1912 6 0 33 0 33 -298 -1 -297 -1 -108 42 c-70 27
-135 45 -183 50 -66 8 -83 15 -153 60 -105 69 -129 96 -132 148 -3 41 -1 44
41 71 25 16 51 36 59 46 30 36 50 39 82 12 56 -47 148 -69 317 -74 83 -2 163
-1 175 2 13 3 47 24 74 46 28 22 61 40 73 40 12 0 63 -22 114 -49 83 -44 165
-71 216 -71 27 0 29 66 3 73 -17 4 -17 5 0 6 24 1 22 31 -3 31 -11 0 -20 -7
-20 -15 0 -11 -36 4 -126 50 -70 36 -139 65 -154 65 -43 0 -139 -40 -145 -61
-3 -10 -22 -32 -41 -48 l-35 -31 -39 20 c-45 23 -68 25 -120 9 -32 -10 -42 -8
-88 15 -28 14 -56 34 -61 43 -8 14 -13 15 -19 5 -6 -9 -25 -5 -83 18 -43 18
-83 29 -96 25 -12 -3 -45 -25 -74 -50 -48 -41 -78 -58 -65 -36 3 5 -8 11 -25
15 -48 9 -56 8 -62 -14 -3 -11 -11 -20 -19 -20 -10 0 -10 2 0 8 18 12 4 73
-19 79 -15 4 -13 9 12 31 30 27 30 28 19 80 -9 41 -17 55 -36 62 -21 8 -24 15
-23 57 l2 48 10 -37 c8 -31 15 -38 35 -38 21 0 23 3 18 25 -5 18 -2 25 9 25 8
0 15 7 15 15 0 8 -7 15 -15 15 -8 0 -19 9 -26 21 -7 13 -17 19 -29 16 -11 -3
-21 1 -24 10 -10 24 -7 33 9 33 8 0 15 -7 15 -15 0 -8 7 -15 15 -15 8 0 15 7
15 15 0 8 -7 15 -15 15 -8 0 -15 7 -15 15 0 8 7 15 15 15 26 0 16 21 -15 31
-32 12 -35 20 -44 141 -4 56 -3 66 9 61 11 -4 15 2 15 21 0 16 -6 26 -14 26
-16 0 -22 51 -30 252 -5 124 -4 127 17 130 16 2 23 11 25 31 4 34 -22 37 -34
4 -5 -13 -10 44 -11 152 -3 149 -1 176 12 183 19 11 19 28 0 28 -13 0 -13 3
-3 21 10 17 10 23 1 26 -16 6 -18 103 -3 103 16 0 12 37 -5 44 -11 4 -15 23
-15 81 0 43 4 75 10 75 6 0 10 11 10 25 0 14 -4 25 -9 25 -6 0 -10 65 -10 157
1 190 -17 955 -30 1327 -19 528 -5 2492 18 2549 19 48 12 139 -18 261 -23 91
-37 125 -60 152 -17 19 -40 52 -51 74 -11 22 -30 45 -43 51 -12 6 -38 26 -57
44 -19 18 -53 44 -75 59 -22 14 -34 26 -27 26 6 0 12 7 12 15 0 8 -7 15 -15
15 -8 0 -15 -7 -15 -16 0 -11 -5 -14 -16 -10 -9 3 -57 6 -107 6 -71 0 -88 3
-79 12 16 16 15 28 -3 28 -8 0 -15 -7 -15 -16 0 -13 -3 -14 -14 -5 -8 7 -12
21 -9 31 4 14 0 20 -11 20 -9 0 -16 -6 -16 -12 0 -7 -8 1 -19 17 -10 17 -39
49 -65 72 -25 22 -46 47 -46 55 0 9 -13 32 -29 52 -28 36 -52 119 -37 133 3 4
6 -8 6 -25 0 -18 5 -32 10 -32 6 0 10 6 10 13 0 6 3 22 6 35 5 16 2 22 -9 22
-14 0 -15 12 -10 85 6 84 6 84 -20 94 -32 13 -278 17 -298 6 -11 -6 -12 -5 -1
6 6 7 13 24 13 38 1 15 3 19 6 10 2 -9 16 -19 31 -22 15 -3 35 -9 45 -12 13
-5 17 -2 17 13 0 11 -6 23 -12 26 -7 3 23 5 67 5 124 -1 236 12 242 28 9 23
-9 32 -77 40 -58 6 -67 10 -102 47 -21 23 -38 49 -38 58 0 22 62 103 80 104 8
0 22 3 30 6 8 3 34 11 58 17 24 7 46 19 49 28 8 21 -25 45 -54 40 -15 -3 -23
1 -23 9 0 20 -37 17 -49 -3 -9 -16 -10 -16 -11 -1 0 9 5 18 12 20 17 6 2 38
-18 38 -11 0 -15 -6 -11 -20 3 -11 1 -20 -4 -20 -5 0 -9 -6 -9 -14 0 -16 -69
-26 -182 -26 -63 0 -78 3 -78 15 0 8 -6 15 -12 15 -7 0 2 8 20 17 18 9 31 21
29 27 -4 13 -35 18 -57 9z m182 -155 c-9 -9 -15 -9 -24 0 -9 9 -7 12 12 12 19
0 21 -3 12 -12z m-177 -28 c-3 -5 -13 -10 -21 -10 -8 0 -14 -7 -14 -16 0 -8
-4 -12 -10 -9 -20 12 -10 34 18 38 15 2 28 5 30 6 2 0 0 -3 -3 -9z m55 -45 c0
-18 -5 -25 -20 -25 -11 0 -20 -7 -20 -15 0 -8 -7 -15 -15 -15 -8 0 -15 -4 -15
-9 0 -5 -9 -7 -20 -4 -22 6 -28 23 -7 23 6 0 18 13 25 29 9 20 22 31 40 34 15
2 28 5 30 6 1 0 2 -10 2 -24z m32 -47 c-8 -8 -9 -4 -5 13 4 13 8 18 11 10 2
-7 -1 -18 -6 -23z m-30 -53 c-4 -5 -8 -2 -10 8 -3 14 -10 17 -25 13 -21 -5
-21 -4 -3 9 17 13 21 12 32 -3 7 -9 9 -21 6 -27z m-99 -30 c-7 -21 -13 -19
-13 6 0 11 4 18 10 14 5 -3 7 -12 3 -20z m47 -5 c0 -5 -5 -10 -11 -10 -5 0 -7
5 -4 10 3 6 8 10 11 10 2 0 4 -4 4 -10z m159 -210 l98 0 -5 -25 c-4 -22 -10
-25 -43 -25 -28 0 -39 -4 -39 -15 0 -15 -58 -22 -133 -16 -25 2 -28 -1 -25
-21 2 -18 17 -28 66 -47 45 -18 59 -27 48 -33 -15 -8 -80 3 -131 22 -41 16
-163 31 -191 24 -33 -8 -31 -39 4 -59 l27 -16 -39 6 c-62 10 -216 -5 -216 -21
0 -9 11 -14 28 -14 34 0 298 -66 320 -80 19 -12 22 -13 -74 11 -45 10 -54 10
-75 -4 -13 -10 -31 -17 -40 -17 -16 0 -46 -27 -38 -34 2 -3 49 -7 104 -11 137
-9 142 -10 147 -43 l4 -28 -61 13 c-81 17 -184 17 -191 0 -3 -9 -29 -13 -87
-14 -97 0 -195 -12 -203 -24 -3 -5 -12 -9 -20 -9 -17 0 -20 114 -4 172 8 26 8
44 1 57 -15 26 2 31 74 19 33 -5 70 -6 82 -3 25 6 32 35 8 35 -53 0 40 78 160
135 66 31 94 38 160 42 44 3 98 11 120 19 22 7 46 11 53 9 8 -3 58 -5 111 -5z
m-894 -124 c27 -41 35 -98 65 -431 5 -66 17 -175 26 -243 9 -70 13 -127 8
-131 -5 -4 -20 -5 -34 0 -24 7 -24 7 -2 8 28 1 30 31 2 38 -20 5 -20 7 -4 24
19 22 12 49 -13 49 -17 1 -17 1 0 11 23 13 22 36 -3 44 -23 7 -27 25 -5 25 24
0 17 30 -10 40 -32 12 -32 30 -1 30 21 0 36 16 36 40 0 5 -14 10 -32 12 -29 3
-33 7 -45 53 -15 61 -16 85 -3 85 6 0 10 -7 10 -16 0 -22 34 -13 39 11 2 10
-4 33 -12 50 -8 16 -18 38 -21 48 -3 11 -17 18 -38 19 l-33 1 33 4 c34 4 46
32 15 34 -11 0 -13 3 -5 6 17 7 15 30 -5 37 -15 6 -15 7 0 19 18 13 13 57 -6
57 -7 0 -7 4 1 12 20 20 14 46 -12 50 -20 2 -22 7 -15 25 10 26 43 21 64 -11z
m-875 -49 c92 -45 105 -55 108 -80 4 -30 -41 -137 -57 -137 -5 0 -22 16 -37
35 -31 41 -70 47 -99 15 -23 -25 -76 -35 -106 -20 -34 18 -79 61 -79 77 0 14
20 12 89 -9 25 -8 49 -7 90 2 91 21 122 50 86 80 -12 10 -30 9 -90 -5 -70 -17
-78 -17 -126 -2 -28 10 -68 17 -89 17 -58 0 -100 18 -99 43 0 12 3 16 6 10 10
-27 213 -4 213 24 0 27 76 7 190 -50z m-468 -74 c8 -10 5 -13 -13 -13 -26 1
-92 28 -71 29 8 1 26 10 40 22 l27 21 3 -24 c2 -12 9 -29 14 -35z m2001 22
c62 -13 192 -63 184 -71 -2 -2 -64 16 -138 41 -144 48 -152 53 -46 30z m342
-98 c14 -11 16 -21 11 -51 -7 -35 -8 -36 -29 -21 -32 22 -53 18 -77 -15 -22
-30 -40 -32 -40 -3 0 8 9 17 20 20 13 3 20 14 20 29 0 14 6 24 14 24 7 0 19 7
26 15 15 19 31 19 55 2z m-221 -114 l6 -41 -35 11 c-33 10 -34 11 -15 24 13 9
20 26 20 46 1 42 15 18 24 -40z m-2014 41 c0 -2 -9 -4 -21 -4 -11 0 -18 4 -14
10 5 8 35 3 35 -6z m585 -51 c-7 -17 -8 -17 -15 2 -5 11 -9 27 -9 35 -1 12 2
11 15 -2 11 -11 14 -23 9 -35z m618 22 c-3 -9 -8 -14 -10 -11 -3 3 -2 9 2 15
9 16 15 13 8 -4z m1170 -30 c32 -22 48 -45 32 -45 -17 0 -85 45 -85 56 0 20
10 18 53 -11z m-2153 5 c0 -5 9 -10 20 -10 14 0 20 -7 20 -23 0 -12 7 -32 15
-44 13 -19 13 -21 -5 -26 -12 -3 -20 -14 -20 -27 0 -19 4 -22 30 -18 17 3 33
1 36 -4 3 -4 15 -8 28 -8 20 0 24 -7 35 -69 7 -38 19 -78 26 -88 17 -21 20
-93 4 -93 -5 0 -7 4 -4 10 8 13 -46 72 -62 66 -7 -3 -13 -2 -13 2 0 21 -104
122 -135 132 -27 9 -32 14 -23 24 7 7 19 13 27 12 9 -1 17 7 19 17 2 10 -3 17
-12 17 -9 0 -16 7 -16 15 0 25 -27 17 -34 -11 -7 -26 -7 -26 -25 -8 -12 12
-14 21 -8 26 6 3 12 27 13 52 2 26 6 51 9 56 8 13 75 13 75 0z m1548 -14 c15
-7 52 -19 83 -25 36 -8 81 -28 125 -58 77 -51 181 -103 205 -103 9 0 22 7 29
15 7 9 28 15 49 14 29 0 32 -2 16 -9 -48 -19 -58 -70 -15 -70 11 0 32 -7 45
-16 13 -8 34 -14 47 -13 13 2 32 -2 43 -7 11 -6 48 -21 83 -34 34 -12 64 -26
67 -30 2 -4 -16 -21 -40 -38 -39 -27 -45 -36 -45 -67 0 -32 -2 -35 -29 -35
-16 0 -36 -3 -45 -6 -9 -3 -16 -2 -16 3 0 5 14 14 30 20 35 13 39 39 15 97
-14 33 -19 37 -47 34 -41 -4 -56 -29 -38 -62 7 -14 11 -28 8 -31 -3 -3 -15 17
-26 45 -11 27 -25 50 -31 50 -5 0 -39 23 -76 50 -65 51 -120 83 -250 146 -38
19 -88 44 -110 56 -22 12 -64 34 -92 49 -38 20 -48 29 -35 32 9 3 18 5 20 6 2
0 15 -5 30 -13z m-632 -93 c-14 -14 -23 9 -13 32 l12 25 3 -26 c2 -14 1 -28
-2 -31z m504 31 c23 -12 22 -12 -17 -7 -46 6 -57 -7 -25 -27 14 -10 13 -11 -8
-6 -14 3 -50 6 -80 7 -58 1 -58 4 3 14 36 6 50 28 25 39 -7 3 7 2 32 -1 25 -3
56 -12 70 -19z m-1071 -3 c7 -13 6 -24 -4 -37 -8 -11 -15 -29 -15 -40 0 -26
-25 -50 -35 -34 -3 5 1 17 9 26 19 18 20 38 5 66 -9 16 -8 23 2 29 20 13 27
11 38 -10z m-119 -21 c-20 -13 -53 -13 -45 0 3 6 18 10 33 10 21 0 24 -2 12
-10z m1304 -19 c43 -17 96 -41 117 -55 21 -14 44 -26 51 -26 19 0 122 -50 116
-56 -3 -2 -24 3 -47 12 -24 10 -54 14 -71 11 -23 -5 -30 -2 -35 13 -10 32 -64
70 -98 70 -19 0 -50 13 -76 30 -24 17 -42 30 -40 30 2 0 39 -13 83 -29z m-761
-47 c4 -23 3 -24 -10 -11 -9 8 -12 20 -9 26 10 16 13 14 19 -15z m143 11 c-8
-8 -22 -15 -30 -15 -9 0 -16 7 -16 15 0 10 10 15 31 15 27 0 29 -2 15 -15z
m393 -23 c-58 -30 -77 -66 -42 -79 10 -3 30 -19 45 -35 22 -23 33 -27 55 -22
42 10 43 12 43 60 0 48 -8 53 -46 28 -17 -12 -28 -14 -35 -7 -8 8 0 14 25 23
20 6 36 18 36 26 0 12 6 11 29 -5 15 -11 50 -28 77 -39 48 -18 49 -18 46 -58
-2 -28 3 -47 17 -66 12 -14 21 -28 21 -30 0 -2 -16 -2 -35 0 -38 5 -85 -19
-85 -42 0 -10 17 -13 63 -13 76 0 129 -11 140 -29 10 -18 67 -18 68 -1 0 6 4
2 9 -10 6 -13 18 -23 30 -23 23 0 26 -10 8 -28 -9 -9 -17 -7 -34 9 -31 29 -54
19 -54 -26 0 -29 4 -35 21 -35 15 0 19 -4 15 -16 -3 -9 -6 -22 -6 -30 0 -9 -5
-12 -10 -9 -6 4 -17 2 -24 -4 -11 -9 -13 0 -9 54 2 36 -1 74 -7 85 -11 20 -44
27 -54 11 -4 -5 -19 4 -35 20 -16 16 -39 29 -51 29 -30 0 -80 -28 -80 -45 0
-8 -4 -15 -10 -15 -5 0 -10 -7 -10 -15 0 -8 9 -15 20 -15 11 0 20 5 20 10 0 6
7 10 17 10 15 0 15 -2 -1 -19 -10 -11 -16 -30 -14 -43 2 -19 9 -23 38 -23 32
0 35 3 40 34 3 23 12 36 28 42 17 6 22 5 22 -7 0 -8 11 -26 24 -39 20 -20 22
-26 10 -36 -8 -6 -14 -18 -14 -27 0 -13 -2 -13 -18 1 -10 10 -30 17 -43 17
-50 0 -65 -47 -27 -87 21 -22 21 -23 1 -23 -11 0 -23 -3 -27 -7 -3 -4 -26 -8
-50 -9 -39 -3 -43 -1 -39 16 4 14 -2 21 -23 27 l-29 7 30 6 c23 4 34 1 48 -17
25 -31 57 -31 57 1 0 13 -7 29 -15 36 -8 7 -15 24 -15 37 0 18 -4 24 -15 19
-10 -3 -15 1 -15 12 -1 9 -7 28 -14 41 -12 21 -12 30 2 59 13 27 14 35 3 41
-10 6 -9 10 3 14 20 8 21 36 1 44 -21 8 -57 -27 -52 -49 8 -31 -22 -20 -43 15
-11 17 -25 49 -31 71 -6 23 -18 40 -29 43 -22 6 -120 128 -120 149 0 11 22 14
101 14 l101 0 -53 -28z m-1412 12 c-3 -3 -12 -4 -19 -1 -8 3 -5 6 6 6 11 1 17
-2 13 -5z m1653 -20 c0 -2 -7 -4 -15 -4 -8 0 -15 4 -15 10 0 5 7 7 15 4 8 -4
15 -8 15 -10z m-1730 -15 c0 -5 -15 -9 -32 -9 -31 1 -32 2 -15 15 19 14 47 10
47 -6z m1065 -9 c3 -6 -1 -7 -9 -4 -18 7 -21 14 -7 14 6 0 13 -4 16 -10z
m-525 -54 c-13 -13 -13 -56 -1 -56 6 0 14 -19 18 -42 7 -33 14 -44 30 -46 25
-4 30 -22 36 -144 4 -72 3 -76 -14 -67 -23 12 -49 49 -49 69 0 9 -11 31 -24
49 -15 20 -26 53 -31 89 -12 103 -22 129 -55 141 -17 5 -30 16 -30 23 0 11 13
12 65 4 43 -7 62 -13 55 -20z m524 14 c14 -5 26 -17 26 -27 0 -16 -1 -16 -12
0 -7 9 -24 21 -38 26 -14 5 -20 10 -13 10 6 1 23 -3 37 -9z m831 -35 c32 -5
70 -20 105 -43 30 -20 57 -38 59 -39 2 -2 1 -6 -2 -10 -4 -3 -16 2 -27 12 -11
10 -26 15 -36 11 -9 -3 -27 3 -41 14 -30 23 -63 26 -63 6 0 -7 12 -21 26 -31
14 -9 23 -19 20 -22 -3 -3 -21 8 -41 26 -37 32 -78 40 -92 19 -5 -8 -10 2 -14
27 -9 51 4 70 34 50 12 -7 45 -17 72 -20z m140 5 c10 -11 16 -20 13 -20 -3 0
-13 9 -23 20 -10 11 -16 20 -13 20 3 0 13 -9 23 -20z m-2158 -66 c-3 -3 -12
-4 -19 -1 -8 3 -5 6 6 6 11 1 17 -2 13 -5z m151 -1 c-10 -2 -28 -2 -40 0 -13
2 -5 4 17 4 22 1 32 -1 23 -4z m-215 -10 c-7 -2 -21 -2 -30 0 -10 3 -4 5 12 5
17 0 24 -2 18 -5z m2837 -18 c0 -2 -16 -5 -35 -7 -40 -5 -45 -1 -12 11 19 7
47 5 47 -4z m270 -31 c0 -7 -4 -15 -9 -18 -11 -7 -32 49 -23 59 8 7 32 -24 32
-41z m-130 -4 c0 -9 55 -75 127 -154 17 -18 29 -46 34 -79 5 -28 17 -63 27
-77 16 -22 17 -29 6 -56 -12 -28 -22 -626 -29 -1709 0 -99 -5 -259 -9 -355 -5
-110 -4 -245 3 -365 15 -266 24 -1036 12 -1007 -6 12 -21 27 -33 32 -35 14
-197 32 -345 37 l-133 5 0 -26 c0 -35 30 -46 133 -47 l82 -2 -75 -8 c-41 -5
-85 -13 -98 -19 -29 -13 -29 -13 -35 8 -3 9 -28 75 -56 147 -28 71 -51 132
-51 136 0 4 9 5 19 2 12 -3 17 -11 14 -19 -3 -8 -2 -25 1 -39 6 -24 10 -25 76
-25 38 0 71 -4 74 -9 3 -5 0 -9 -7 -8 -6 0 -31 -1 -55 -1 l-43 -2 3 -37 3 -38
243 0 244 0 19 24 c19 23 24 56 13 85 -9 23 -51 20 -57 -4 -5 -19 -13 -20
-149 -19 l-143 1 71 13 c84 15 114 29 114 54 0 20 -40 31 -114 31 -31 0 -37 3
-28 12 16 16 15 45 -2 51 -8 3 -12 15 -9 30 6 31 1 34 -97 53 -92 17 -113 10
-108 -35 2 -20 10 -27 33 -31 17 -3 -7 -7 -55 -10 -83 -5 -85 -5 -83 -30 1
-19 -7 -30 -27 -42 l-28 -16 -22 74 c-31 104 -51 230 -48 291 2 42 -1 55 -17
68 l-20 15 20 -7 c29 -10 35 -22 35 -82 0 -105 19 -179 56 -218 30 -31 40 -35
86 -37 50 -1 53 0 56 25 3 24 -2 29 -40 41 l-43 15 -22 84 c-13 46 -26 123
-29 172 l-7 87 -41 1 -41 0 35 12 c34 12 35 14 33 60 -1 26 -6 54 -12 61 -8
10 -7 17 4 26 8 7 15 18 15 26 0 18 -40 44 -70 45 -25 0 -25 0 -2 9 14 6 22
18 22 34 0 28 -26 40 -76 34 -25 -3 -29 -8 -32 -40 -2 -28 1 -37 15 -41 14 -4
13 -5 -4 -6 -14 -1 -23 -8 -24 -18 -1 -38 -9 11 -38 237 -17 129 -37 269 -45
310 -8 41 -14 75 -13 76 1 0 25 5 52 10 44 8 50 12 53 37 2 18 -2 29 -12 33
-9 3 -16 17 -16 30 0 33 -25 40 -67 20 -20 -9 -37 -16 -38 -14 -1 2 -6 17 -10
35 -6 32 -6 32 29 26 55 -9 106 4 106 28 0 11 -11 24 -25 31 -14 6 -28 21 -30
32 -12 54 -22 192 -14 200 5 6 9 23 9 38 0 26 -3 28 -37 28 -21 0 -60 7 -86
15 -26 8 -62 12 -80 9 -28 -5 -29 -4 -13 7 18 11 54 10 164 -7 l42 -7 0 62 c0
53 -2 61 -19 61 -10 0 -24 -7 -31 -15 -7 -8 -22 -15 -34 -14 -21 0 -21 0 2 11
13 7 22 20 22 34 0 26 -30 37 -132 49 l-58 7 0 -38 c0 -30 -3 -35 -12 -26 -7
7 -20 12 -30 12 -15 0 -17 -10 -15 -100 l2 -100 29 0 c16 0 34 -7 40 -16 9
-12 17 -13 39 -5 15 6 53 8 86 4 53 -5 58 -8 49 -23 -10 -15 -14 -15 -39 -3
-20 10 -41 11 -76 6 -45 -8 -48 -10 -48 -38 0 -23 5 -31 23 -33 27 -4 28 -13
3 -43 l-18 -22 -45 46 c-24 26 -52 47 -61 47 -24 0 -21 17 4 23 15 4 20 12 17
29 -2 18 -11 24 -47 30 -57 10 -64 18 -17 18 33 0 37 3 34 23 -2 15 -18 29
-48 45 -58 29 -62 42 -10 42 l41 0 -7 53 c-5 43 -4 50 7 40 7 -7 26 -13 41
-13 25 0 28 3 28 35 l0 36 103 -3 c76 -2 105 -7 114 -18 19 -24 47 0 51 44 3
39 -17 58 -41 37 -10 -7 -39 -7 -105 0 -51 6 -99 9 -107 5 -8 -3 -15 -18 -15
-33 -1 -28 -1 -28 -16 7 -9 19 -16 40 -17 45 -1 6 45 10 123 10 107 0 132 4
173 22 43 20 47 25 47 58 0 20 -6 48 -14 63 -14 26 -20 28 -155 47 -120 16
-142 21 -147 38 -3 10 -4 20 -2 22 2 2 30 -3 63 -11 33 -8 93 -13 134 -12 52
2 76 -1 79 -10 6 -18 50 -14 61 6 7 12 11 -36 11 -163 0 -245 16 -335 58 -335
12 0 13 8 8 43 -3 23 -8 65 -11 92 -4 43 -3 40 10 -19 16 -77 20 -85 37 -68 8
8 8 45 -1 144 -7 74 -12 181 -11 238 3 145 -10 401 -22 423 -12 23 5 22 27 -3
10 -11 25 -20 34 -20 11 0 9 -5 -8 -16 -26 -18 -26 -12 13 -159 15 -55 31
-142 35 -194 9 -97 17 -114 56 -109 19 3 20 12 23 133 2 117 0 139 -23 215
-15 47 -34 96 -42 109 -14 22 -14 25 2 33 21 12 45 68 45 104 0 26 1 26 18 11
26 -24 41 -21 52 8 5 14 14 25 19 25 15 0 22 82 10 125 -22 84 -22 93 5 139
29 50 34 86 11 86 -11 0 -7 11 15 42 17 23 39 61 50 85 20 45 69 77 159 104
24 7 55 24 68 36 19 19 27 22 43 13 11 -6 20 -15 20 -20z m-723 -72 c-3 -7 -5
-2 -5 12 0 14 2 19 5 13 2 -7 2 -19 0 -25z m-1623 -28 c4 -25 3 -31 -4 -20 -5
8 -10 26 -10 39 0 32 6 24 14 -19z m981 30 c13 -6 15 -9 5 -9 -8 0 -22 4 -30
9 -18 12 -2 12 25 0z m-1465 -57 c-1 -33 -2 -36 -12 -18 -6 11 -18 28 -26 38
-14 16 -13 17 11 17 25 0 27 -4 27 -37z m1433 -47 c25 -17 92 -106 120 -162
24 -46 107 -134 127 -134 34 0 40 -21 28 -98 -9 -63 -13 -72 -28 -67 -10 3
-43 10 -74 15 -73 12 -89 21 -134 83 -55 74 -62 78 -123 75 -43 -2 -54 0 -57
13 -2 14 9 18 68 24 117 12 105 45 -17 45 -66 0 -73 2 -73 20 0 17 7 20 43 20
66 0 117 11 117 26 0 18 -51 27 -115 19 -53 -7 -85 3 -85 25 0 10 90 30 135
30 44 0 65 9 65 27 0 12 -17 14 -105 11 -78 -2 -105 0 -105 9 0 17 35 34 89
42 51 8 86 1 124 -23z m817 19 c0 -8 -4 -15 -10 -15 -5 0 -7 7 -4 15 4 8 8 15
10 15 2 0 4 -7 4 -15z m-1728 -23 c12 -12 12 -31 2 -149 -4 -56 -11 -83 -19
-83 -18 0 -26 50 -9 57 23 9 17 35 -8 31 -28 -4 -46 -53 -29 -80 10 -16 8 -18
-22 -18 -18 0 -42 -7 -53 -15 -34 -26 -42 -18 -49 50 -7 62 -6 67 19 90 15 14
34 25 43 25 25 0 123 60 123 76 0 32 -88 4 -131 -42 -27 -29 -59 -32 -59 -5 0
12 19 32 48 51 39 27 54 31 90 27 24 -3 48 -9 54 -15z m1506 -62 c9 -1 28 -7
42 -15 25 -14 25 -14 -10 -9 -56 9 -60 12 -59 41 2 24 2 25 6 6 2 -13 12 -23
21 -23z m-2344 -53 c3 -12 6 -66 6 -119 0 -78 -3 -98 -14 -98 -19 0 -25 21
-13 41 6 10 4 25 -7 47 -20 38 -20 42 -2 42 21 0 30 19 16 34 -8 11 -8 15 2
19 10 4 9 11 -4 35 -12 22 -13 29 -3 26 7 -3 16 -15 19 -27z m1323 -4 c-3 -10
-5 -4 -5 12 0 17 2 24 5 18 2 -7 2 -21 0 -30z m153 -13 c0 -18 6 -33 15 -36
10 -4 12 -15 9 -34 -4 -15 -1 -31 5 -34 6 -4 11 -17 11 -29 -1 -21 -2 -20 -15
4 -17 31 -57 44 -85 29 -18 -9 -20 -8 -20 15 0 19 5 25 23 25 33 0 49 15 45
41 -2 19 -10 25 -38 28 -29 3 -32 5 -15 11 11 5 30 9 43 9 18 1 22 -4 22 -29z
m819 -5 c11 -19 16 -35 11 -35 -9 0 -40 51 -40 65 0 12 9 3 29 -30z m-2123
-12 c-4 -4 -11 -1 -16 7 -16 25 -11 35 7 17 9 -9 13 -20 9 -24z m307 17 c-5
-19 -23 -29 -23 -12 0 7 20 32 26 32 1 0 0 -9 -3 -20z m1895 2 c2 -7 -2 -10
-12 -6 -9 3 -16 11 -16 16 0 13 23 5 28 -10z m-2124 -7 c-4 -8 -8 -15 -10 -15
-2 0 -4 7 -4 15 0 8 4 15 10 15 5 0 7 -7 4 -15z m85 -260 c0 -88 -4 -167 -9
-175 -5 -8 -10 -10 -10 -4 0 6 -16 27 -35 47 -30 30 -43 37 -75 37 -34 0 -40
3 -41 23 -3 50 3 73 23 89 l20 18 -26 31 c-14 17 -26 41 -26 54 0 13 -3 30 -6
39 -5 13 2 16 43 16 47 0 93 20 93 41 0 5 8 22 18 37 l17 26 6 -59 c4 -33 7
-132 8 -220z m2208 253 c-3 -8 -6 -5 -6 6 -1 11 2 17 5 13 3 -3 4 -12 1 -19z
m-1619 -135 c-1 -124 -2 -130 -8 -63 -11 116 -11 200 0 200 6 0 9 -51 8 -137z
m379 119 c-10 -10 -17 -24 -17 -31 0 -7 -4 -9 -10 -6 -19 12 -11 43 13 48 12
2 24 5 26 6 2 0 -3 -7 -12 -17z m934 -9 c13 -16 12 -17 -3 -4 -10 7 -18 15
-18 17 0 8 8 3 21 -13z m-2011 3 c0 -2 -7 -7 -16 -10 -8 -3 -12 -2 -9 4 6 10
25 14 25 6z m299 -52 c2 -2 -1 -32 -6 -66 -8 -44 -7 -79 0 -115 12 -59 -1 -86
-37 -81 -20 3 -21 10 -24 141 l-3 139 33 -7 c18 -4 35 -9 37 -11z m1870 -19
c-12 -19 -23 -35 -25 -35 -6 0 14 40 29 58 18 23 16 12 -4 -23z m-1074 15 c3
-6 -1 -7 -9 -4 -18 7 -21 14 -7 14 6 0 13 -4 16 -10z m-105 -4 c0 -2 -7 -6
-15 -10 -8 -3 -15 -1 -15 4 0 6 7 10 15 10 8 0 15 -2 15 -4z m1366 -71 c-3
-12 -15 -25 -26 -28 -25 -6 -25 -7 3 56 21 49 22 50 25 23 2 -15 1 -39 -2 -51z
m-510 50 c10 -8 35 -15 54 -16 29 -2 31 -3 8 -6 -26 -4 -26 -6 -26 -66 1 -35
-4 -72 -10 -82 -9 -16 -11 -4 -12 61 0 88 -12 111 -50 99 -21 -7 -29 10 -7 18
19 8 22 8 43 -8z m-642 -71 c-8 -31 6 -43 56 -45 34 -2 34 -2 5 -6 -37 -6 -55
-20 -55 -43 0 -24 20 -30 91 -30 38 0 58 -4 54 -10 -3 -5 -28 -10 -54 -10 -32
0 -53 -5 -62 -16 -18 -22 0 -48 37 -52 90 -8 99 -28 17 -35 -32 -3 -66 -6 -77
-8 -21 -4 -20 -9 -32 174 -6 96 -5 107 10 107 13 0 15 -6 10 -26z m839 19 c-7
-2 -19 -2 -25 0 -7 3 -2 5 12 5 14 0 19 -2 13 -5z m-1035 -40 c-10 -2 -26 -2
-35 0 -10 3 -2 5 17 5 19 0 27 -2 18 -5z m342 -20 c0 -20 -34 -12 -38 9 -2 12
2 15 17 11 12 -3 21 -12 21 -20z m675 7 c-4 -11 -2 -20 4 -20 6 0 11 -7 11
-15 0 -9 9 -15 22 -15 12 0 19 -3 15 -6 -3 -3 -29 -3 -58 1 l-53 7 23 19 c14
11 21 25 17 34 -3 9 0 15 10 15 11 0 13 -6 9 -20z m-565 -15 c7 -8 23 -15 35
-15 26 0 36 -32 34 -114 -1 -29 -4 -38 -6 -21 -13 116 -13 116 -36 113 -29 -4
-34 -46 -13 -102 18 -50 22 -85 11 -110 -6 -13 -3 -23 10 -32 10 -8 13 -14 7
-14 -7 0 -12 -15 -12 -35 0 -19 5 -35 11 -35 8 0 9 -4 0 -13 -6 -8 -9 -16 -6
-18 2 -3 7 -32 10 -64 3 -33 8 -80 12 -105 3 -25 4 -63 4 -85 -1 -22 1 -61 4
-87 6 -40 11 -48 28 -49 18 -1 19 -2 4 -6 -17 -4 -18 -19 -15 -216 2 -117 8
-219 13 -227 5 -8 9 -24 10 -35 1 -11 2 -35 3 -53 1 -25 8 -35 22 -39 11 -3
20 -9 20 -14 0 -5 -6 -6 -14 -3 -8 3 -17 1 -21 -5 -10 -17 5 -51 23 -52 15 -1
15 -2 0 -6 -20 -5 -21 -10 -11 -66 4 -26 10 -36 19 -33 8 3 14 1 14 -4 0 -6
-4 -10 -10 -10 -9 0 -11 -29 -11 -150 0 -113 1 -123 12 -136 8 -10 8 -14 0
-14 -22 0 -12 -50 12 -60 17 -7 18 -9 5 -9 -12 -1 -18 -9 -18 -26 0 -19 5 -25
23 -26 l22 0 -22 -9 c-26 -10 -31 -38 -8 -46 11 -5 12 -10 3 -24 -6 -10 -8
-26 -4 -36 5 -11 10 -55 11 -99 5 -115 12 -182 21 -197 5 -7 7 -20 6 -28 -1
-8 5 -51 13 -95 8 -44 17 -159 19 -255 2 -96 9 -200 16 -230 6 -30 12 -61 11
-67 0 -7 -1 -25 -2 -40 -1 -15 4 -29 10 -31 9 -3 9 -7 1 -17 -7 -9 -9 -23 -4
-37 4 -13 7 -33 5 -46 -1 -13 3 -29 9 -37 7 -9 8 -15 0 -20 -13 -8 -13 -52 0
-60 7 -4 8 -11 1 -18 -12 -16 -10 -90 3 -99 8 -5 7 -11 -2 -20 -15 -15 -16
-64 -2 -73 7 -4 7 -11 2 -18 -19 -25 -21 -47 -6 -62 9 -8 11 -15 5 -15 -14 0
-14 -37 0 -46 8 -4 8 -9 0 -17 -16 -16 -13 -47 4 -53 12 -5 13 -9 3 -21 -9
-11 -9 -19 0 -33 6 -11 9 -26 6 -35 -3 -8 -3 -22 0 -32 7 -16 14 -191 16 -378
1 -55 6 -108 12 -118 7 -13 6 -23 -1 -30 -16 -16 -14 -38 6 -59 11 -12 12 -18
3 -18 -9 0 -10 -10 -5 -37 6 -35 13 -96 15 -148 1 -11 8 -27 16 -36 13 -15 12
-16 -11 -12 -34 7 -33 -19 2 -43 16 -10 23 -19 15 -22 -13 -4 -16 -34 -5 -46
13 -13 11 -66 -2 -66 -44 0 -42 -89 3 -110 l27 -12 -22 -9 c-29 -10 -29 -24
-2 -42 13 -9 16 -17 10 -22 -6 -3 -11 -15 -11 -26 0 -10 -7 -19 -15 -19 -26 0
-17 -37 10 -44 14 -4 25 -13 25 -22 0 -12 -7 -14 -30 -9 -26 6 -30 4 -30 -15
0 -13 13 -28 35 -41 42 -25 48 -59 10 -59 -14 0 -25 -4 -25 -9 0 -27 15 -41
41 -41 20 0 29 -5 29 -16 0 -12 -7 -14 -30 -9 -22 5 -30 3 -30 -8 0 -30 23
-78 42 -88 18 -10 18 -12 4 -28 -22 -24 -20 -41 4 -41 20 0 20 0 -1 -29 -21
-29 -21 -30 -4 -75 10 -25 24 -51 31 -57 19 -16 17 -27 -6 -34 -11 -4 -27 -18
-35 -33 -25 -47 -31 -53 -48 -46 -22 8 -23 64 -2 64 12 0 15 14 15 63 0 64
-10 94 -28 83 -13 -8 -26 203 -17 288 5 40 4 66 -2 66 -6 0 -12 111 -16 278
-6 275 -21 605 -36 777 -4 50 -4 92 1 93 13 6 9 39 -6 45 -15 6 -21 88 -36
482 -6 143 -14 305 -20 360 -5 55 -12 177 -16 270 -10 303 -33 590 -76 950
-17 143 -31 283 -31 310 0 55 -12 221 -27 390 -29 322 -41 487 -55 750 -9 160
-20 342 -25 405 -14 177 -13 190 9 190 10 0 24 -7 31 -15z m-1680 -15 c0 -14
-7 -20 -22 -20 -20 0 -21 1 -3 20 10 11 20 20 22 20 1 0 3 -9 3 -20z m949
-242 c1 -50 -13 -72 -23 -35 -3 12 -5 65 -5 117 l1 95 13 -65 c8 -36 14 -86
14 -112z m910 114 c16 -31 30 -130 42 -296 6 -88 19 -195 30 -238 10 -42 19
-91 19 -110 0 -18 11 -50 24 -72 27 -42 25 -66 -5 -66 -11 0 -19 -7 -19 -17 0
-40 -19 12 -25 71 -4 34 -18 86 -33 116 -24 51 -26 72 -38 285 -7 127 -15 256
-19 288 -8 58 4 77 24 39z m606 -3 c5 -5 1 -9 -12 -9 -23 0 -38 -15 -46 -45
-2 -11 -5 1 -6 28 -1 47 -1 47 27 41 15 -4 31 -11 37 -15z m-426 -233 c0 -55
-2 -96 -5 -93 -11 10 -23 237 -16 292 l7 50 6 -75 c4 -41 7 -120 8 -174z
m-874 225 c3 -5 1 -12 -5 -16 -5 -3 -10 1 -10 9 0 18 6 21 15 7z m-1164 -84
c-10 -9 -11 -8 -5 6 3 10 9 15 12 12 3 -3 0 -11 -7 -18z m2143 -55 c4 -7 31
-13 59 -13 l52 -2 -65 -7 c-36 -3 -71 -9 -77 -13 -7 -5 -9 8 -6 41 7 68 15 83
23 42 3 -20 10 -41 14 -48z m-879 59 c3 -6 -9 -7 -30 -4 -39 6 -65 -9 -65 -38
0 -21 28 -39 62 -40 17 0 19 -2 8 -7 -55 -26 -90 -56 -90 -77 0 -13 6 -26 13
-28 9 -4 9 -8 -1 -15 -20 -14 -10 -56 15 -67 21 -9 21 -10 -9 -20 -37 -12 -67
-83 -50 -121 9 -19 7 -23 -13 -26 -20 -4 -24 0 -28 31 -3 20 -9 53 -15 74 -8
29 -7 37 3 37 20 0 25 13 42 93 8 40 21 91 29 115 8 23 14 56 14 72 0 30 1 30
54 30 30 0 57 -4 61 -9z m265 -39 l45 -7 -54 -5 c-36 -3 -58 -11 -65 -22 -16
-26 5 -41 69 -46 30 -2 55 -8 55 -12 0 -5 -22 -11 -49 -15 -27 -4 -58 -13 -68
-20 -16 -13 -17 -15 -2 -30 9 -9 40 -19 72 -22 39 -4 57 -10 57 -19 0 -9 -12
-14 -36 -14 -45 0 -74 -15 -74 -40 0 -14 9 -21 38 -25 84 -14 88 -19 17 -25
-70 -5 -70 -5 -70 -35 0 -34 19 -42 98 -44 26 -1 47 -6 47 -12 0 -7 -13 -9
-38 -4 -53 9 -94 -8 -90 -37 2 -17 12 -24 38 -29 65 -12 90 -26 90 -54 0 -20
-5 -25 -26 -25 -39 0 -64 -18 -64 -45 0 -18 7 -26 24 -31 14 -3 29 -3 35 0 15
10 41 -5 41 -24 0 -22 -19 -30 -71 -30 -21 0 -39 -4 -39 -9 0 -19 21 -66 33
-73 7 -5 1 -8 -15 -8 -16 0 -28 -6 -28 -12 1 -58 46 -93 105 -82 23 4 35 2 35
-5 0 -7 -21 -11 -55 -11 -53 0 -55 -1 -55 -27 0 -57 20 -104 53 -123 18 -11
42 -20 55 -20 12 0 22 -4 22 -9 0 -14 -26 -20 -64 -14 -77 12 -47 -62 31 -77
34 -7 32 -8 -24 -9 -59 -1 -63 -2 -63 -25 0 -31 20 -47 70 -53 25 -4 37 -9 29
-14 -7 -4 -27 -5 -46 -2 -30 5 -33 3 -33 -20 0 -36 52 -77 98 -77 28 0 33 -3
22 -10 -8 -5 -41 -10 -72 -10 -55 0 -58 -1 -58 -24 0 -14 9 -31 21 -39 l21
-15 -21 -7 c-33 -10 -29 -62 6 -78 l27 -12 -30 -5 c-43 -8 -45 -44 -3 -69 31
-19 31 -19 8 -23 -34 -4 -40 -55 -8 -66 21 -8 21 -9 -9 -15 -23 -5 -32 -12
-32 -26 0 -27 29 -41 114 -56 l71 -13 -83 -1 -83 -1 3 -32 c2 -23 11 -36 28
-45 l25 -13 -22 -6 c-26 -7 -30 -36 -8 -54 11 -9 12 -17 5 -31 -17 -32 20 -59
83 -60 53 -1 51 -3 -15 -14 -32 -5 -38 -10 -38 -31 0 -30 48 -54 107 -54 28 0
34 -3 23 -10 -8 -5 -25 -7 -38 -3 -50 12 -71 -46 -24 -71 l27 -15 -23 -7 c-19
-5 -23 -12 -20 -38 2 -25 9 -33 38 -43 l35 -12 -35 0 c-40 -1 -60 -16 -60 -43
0 -22 29 -38 72 -39 l33 -2 -30 -4 c-40 -6 -55 -20 -55 -50 0 -17 7 -27 20
-30 l21 -6 -21 -14 c-11 -8 -20 -20 -20 -28 0 -23 50 -55 86 -55 22 0 34 -5
34 -14 0 -16 -21 -26 -56 -26 -16 0 -24 -6 -24 -17 0 -25 40 -63 67 -63 13 0
23 -5 23 -11 0 -7 -20 -10 -56 -7 -75 4 -90 -15 -52 -64 25 -33 26 -35 7 -46
-24 -15 -26 -67 -3 -80 11 -6 13 -11 5 -16 -6 -4 -11 -16 -11 -27 0 -15 15
-27 53 -44 28 -13 45 -24 37 -24 -8 -1 -32 -6 -52 -12 -31 -8 -38 -15 -38 -34
0 -35 40 -58 90 -53 26 2 40 -1 40 -8 0 -15 -23 -24 -47 -18 -10 3 -31 1 -46
-5 -21 -8 -27 -17 -27 -41 0 -33 10 -38 90 -42 l45 -3 -45 -14 c-82 -24 -90
-29 -90 -55 0 -33 26 -46 92 -46 59 -1 50 -13 -17 -24 -65 -11 -75 -16 -75
-36 0 -26 39 -50 90 -57 62 -9 47 -22 -27 -25 -68 -3 -68 -3 -71 -34 -4 -41
15 -55 86 -64 31 -4 45 -8 31 -9 -33 -1 -53 -24 -46 -52 5 -18 2 -20 -26 -14
-74 16 -85 52 -97 332 -6 120 -17 290 -25 378 -8 88 -20 232 -25 320 -5 88
-13 203 -19 255 -10 99 -26 308 -37 493 -5 81 -10 107 -20 107 -8 0 -19 -9
-26 -20 -7 -11 -17 -20 -22 -20 -5 0 -5 129 0 323 11 410 9 998 -5 1088 -6 38
-19 84 -28 103 -14 30 -22 35 -57 38 l-41 4 48 13 c55 16 61 23 52 58 -6 24
-9 25 -53 19 l-47 -7 24 21 c13 11 37 20 57 20 32 0 34 2 34 33 0 17 -4 47 -9
65 -6 20 -6 32 0 32 5 0 9 16 9 36 0 33 2 36 23 30 12 -3 42 -10 67 -14z
m-1525 -52 c-4 -12 -9 -19 -12 -17 -3 3 -2 15 2 27 4 12 9 19 12 17 3 -3 2
-15 -2 -27z m1044 -7 c2 -2 -8 -3 -22 -3 -20 0 -25 4 -21 15 5 13 9 13 23 3 9
-7 18 -14 20 -15z m1196 -43 c7 -12 -48 -12 -85 0 -20 6 -14 8 27 9 28 1 55
-3 58 -9z m-1228 -105 l19 -50 -27 -1 c-34 -1 -36 5 -31 81 3 41 7 54 12 40 4
-11 16 -42 27 -70z m1318 -5 l20 -9 -20 0 c-11 0 -27 4 -35 9 -13 9 -13 10 0
9 8 0 24 -4 35 -9z m-62 -186 c37 -3 67 -9 67 -14 0 -14 -80 -20 -165 -12 -71
6 -80 9 -83 28 -3 20 0 20 55 13 32 -5 88 -11 126 -15z m-1073 -137 c21 -4 20
-4 -7 -6 -50 -2 -63 -11 -63 -42 0 -23 4 -29 23 -29 12 0 29 -4 37 -10 11 -7
9 -11 -13 -19 -15 -6 -27 -17 -27 -25 0 -8 -6 -17 -12 -20 -18 -7 28 -46 56
-47 16 -1 14 -3 -9 -10 -19 -5 -31 -5 -33 1 -2 6 -11 10 -19 10 -13 0 -15 16
-11 108 4 121 12 146 37 114 9 -11 27 -22 41 -25z m1008 -184 c-16 -2 -40 -2
-55 0 -16 2 -3 4 27 4 30 0 43 -2 28 -4z m-1069 -107 c-5 -6 -9 -24 -9 -42 0
-34 13 -44 59 -44 15 0 36 -9 46 -21 19 -20 19 -20 -10 -9 -17 7 -48 15 -70
19 l-40 6 -3 68 c-3 66 -3 68 16 50 11 -10 15 -22 11 -27z m61 -156 c11 -7 7
-10 -18 -10 -20 0 -31 4 -27 10 8 13 26 13 45 0z m760 -320 c37 -539 96 -1075
131 -1187 8 -26 18 -35 51 -43 76 -21 81 -5 38 113 -11 32 -25 106 -31 164 -5
59 -14 126 -20 150 -17 79 -23 221 -10 237 10 12 10 27 1 69 -8 32 -9 70 -5
93 4 21 6 137 5 257 l-2 217 26 0 c18 0 30 8 41 30 9 17 20 28 25 25 6 -4 10
-53 10 -109 0 -57 4 -126 10 -154 5 -28 14 -118 20 -199 15 -220 48 -498 70
-585 21 -87 71 -196 101 -218 15 -12 27 -51 49 -160 34 -164 61 -220 108 -220
41 0 51 -11 62 -69 21 -113 141 -373 206 -450 20 -22 56 -53 80 -67 24 -14 44
-30 44 -35 0 -5 16 -19 35 -30 34 -21 35 -23 29 -68 -5 -36 -2 -51 10 -63 13
-14 14 -17 1 -22 -19 -7 -19 -40 0 -60 19 -19 19 -26 -1 -26 -12 0 -14 -9 -12
-42 3 -40 5 -43 33 -46 18 -2 50 8 80 24 69 37 105 47 105 28 0 -8 -18 -18
-45 -25 -24 -6 -54 -20 -66 -30 -15 -13 -37 -19 -70 -19 -26 0 -50 -3 -53 -8
-2 -4 -1 -23 3 -42 7 -34 8 -35 54 -34 31 0 57 7 75 21 24 17 112 40 112 29 0
-25 -16 -36 -56 -36 -39 0 -44 -3 -44 -22 0 -21 -5 -23 -67 -25 -36 -1 -70 -6
-75 -11 -7 -7 -5 -23 3 -47 l14 -37 55 5 c36 4 49 3 40 -3 -8 -5 -31 -10 -50
-10 -51 0 -63 -12 -55 -49 6 -30 8 -31 66 -31 40 0 59 -4 59 -12 0 -9 -17 -12
-60 -10 -59 4 -60 3 -60 -23 0 -50 16 -65 70 -65 28 0 50 -3 50 -7 0 -5 -26
-8 -57 -8 l-58 0 2 -35 c1 -19 2 -69 2 -112 0 -52 4 -80 14 -89 7 -7 12 -22
10 -33 -7 -43 12 -110 35 -122 l22 -11 -21 -27 c-20 -25 -22 -47 -8 -95 2 -9
-6 -17 -21 -21 -31 -7 -38 -39 -14 -57 10 -7 12 -13 6 -13 -7 0 -12 -11 -12
-25 0 -19 5 -25 23 -26 17 -1 15 -3 -8 -8 -45 -9 -41 -44 5 -52 l35 -6 -29
-12 c-16 -6 -35 -10 -41 -7 -8 3 -14 94 -19 318 -7 327 -18 495 -36 528 -14
26 -46 26 -60 0 -6 -11 -27 -27 -46 -35 -28 -11 -35 -19 -32 -37 2 -18 10 -24
36 -26 42 -4 37 -26 -6 -30 -21 -2 -32 -9 -32 -19 0 -9 -7 -24 -16 -34 -26
-28 -11 -49 35 -49 42 0 63 -16 40 -31 -8 -5 -26 -9 -41 -9 -23 0 -28 -5 -28
-24 0 -13 -7 -26 -15 -30 -25 -9 -17 -36 15 -47 34 -12 40 -29 11 -29 -33 0
-51 -11 -51 -31 0 -10 6 -19 13 -19 6 0 4 -5 -5 -11 -10 -5 -18 -21 -18 -34 0
-21 5 -25 33 -26 30 -2 30 -2 -8 -8 -27 -4 -41 -12 -43 -23 -4 -23 34 -38 94
-38 28 0 44 -4 44 -12 0 -9 -14 -12 -48 -10 -58 4 -84 -16 -64 -49 16 -24 15
-29 -3 -29 -25 0 -18 -39 8 -44 12 -3 31 -7 42 -9 11 -3 -6 -5 -38 -6 -60 -1
-81 -17 -58 -45 9 -10 8 -15 -4 -20 -20 -7 -19 -42 1 -50 9 -3 28 -6 42 -7 15
0 36 -4 47 -9 14 -7 10 -8 -17 -4 -51 8 -80 -3 -76 -29 2 -16 14 -24 48 -31
l45 -10 -37 -4 c-33 -3 -38 -7 -38 -28 0 -16 6 -24 18 -24 13 0 14 -2 4 -9 -8
-4 -12 -19 -10 -32 2 -18 11 -25 33 -29 l30 -6 -27 -7 c-16 -4 -28 -14 -28
-22 0 -8 12 -21 28 -29 l27 -15 -28 -1 c-31 0 -45 -23 -27 -45 11 -13 7 -15
-29 -15 -34 0 -41 3 -41 20 0 16 -7 20 -30 20 -20 0 -30 5 -30 15 0 8 9 15 19
15 39 0 51 26 51 111 0 101 -18 147 -60 155 -23 5 -30 12 -30 29 0 34 10 55
26 55 30 0 46 80 24 121 -6 10 -17 19 -25 19 -11 0 -15 12 -15 45 0 41 -3 46
-32 59 l-33 14 33 1 c45 1 55 31 46 139 -5 64 -11 85 -23 89 -9 2 -29 10 -46
18 l-30 13 40 7 c48 9 55 18 55 68 0 48 -15 77 -40 77 -13 0 -20 7 -20 19 0
19 -14 26 -95 47 l-30 8 40 5 c51 8 52 30 3 54 -44 22 -48 32 -13 41 34 9 32
32 -5 51 -41 21 -38 31 11 27 38 -4 40 -3 37 19 -2 15 -12 26 -28 30 l-25 7
28 1 c22 1 27 6 27 25 0 25 -15 35 -53 37 -20 1 -20 2 3 8 20 6 25 14 25 38 0
17 3 35 8 39 11 11 9 52 -3 59 -8 5 -7 11 0 20 6 8 10 26 8 42 -3 24 -8 28
-40 31 -31 3 -38 7 -38 25 0 16 3 18 12 9 7 -7 23 -12 36 -12 21 0 23 4 20 38
-3 32 -7 37 -30 40 -20 2 -28 -2 -33 -18 -9 -27 -16 -21 -9 7 3 12 17 24 30
27 17 5 24 13 24 31 0 20 -6 27 -30 32 -31 6 -31 6 -8 17 30 15 38 66 11 66
-11 0 -24 -5 -29 -10 -8 -8 -13 26 -17 111 -4 83 -10 125 -19 131 -25 16 -46
8 -56 -21 -8 -22 -18 -30 -39 -33 -38 -4 -41 -31 -8 -64 15 -15 27 -37 26 -48
-6 -69 -3 -147 6 -191 6 -27 15 -136 18 -242 l8 -191 -24 -4 c-14 -2 -24 -10
-24 -19 0 -9 -6 -24 -14 -33 -7 -8 -11 -21 -8 -28 2 -7 -1 -18 -8 -24 -9 -9
-13 37 -19 215 -4 124 -11 285 -16 356 -5 72 -9 228 -10 348 0 120 -4 237 -10
260 -5 23 -14 68 -20 100 -9 46 -15 57 -30 57 -11 0 -27 -12 -36 -26 -16 -23
-17 -54 -10 -332 4 -169 11 -356 16 -417 5 -60 12 -243 16 -405 7 -297 15
-358 46 -361 7 -1 -3 -4 -22 -8 -32 -5 -35 -9 -35 -40 0 -35 8 -43 58 -61 l28
-10 -20 -26 c-12 -15 -21 -37 -21 -50 0 -15 -6 -24 -15 -24 -20 0 -19 -39 2
-62 13 -14 13 -18 2 -18 -30 0 -38 18 -48 100 -20 166 -40 458 -46 665 -3 116
-12 260 -20 320 -21 165 -25 221 -35 445 -5 113 -14 275 -19 360 -6 85 -16
234 -22 330 -6 96 -17 198 -25 225 -10 33 -18 131 -23 291 -6 156 -13 249 -21
264 -7 13 -15 79 -18 148 -4 109 -3 126 11 134 14 7 17 25 17 90 0 135 19 78
30 -92z m518 -792 c7 -17 8 -28 2 -28 -6 0 -10 1 -10 3 0 1 -4 18 -10 36 -11
38 0 31 18 -11z m-1009 -233 c1 -36 -2 -46 -9 -35 -5 8 -9 51 -9 95 1 73 2 76
10 35 4 -25 8 -67 8 -95z m1044 104 c-7 -25 -10 -24 -15 5 -3 16 -1 23 7 19 7
-2 11 -13 8 -24z m727 -808 c0 -5 -7 -11 -14 -14 -11 -4 -13 -16 -9 -39 l5
-34 -69 11 c-58 8 -62 10 -30 13 42 4 57 24 38 53 -10 18 -8 19 34 19 25 0 45
-4 45 -9z m80 -57 c0 -36 -4 -63 -8 -60 -5 3 -7 19 -4 36 2 18 -2 40 -12 54
-14 23 -14 25 2 29 9 3 18 5 20 6 1 0 2 -29 2 -65z m-250 2 c8 -2 -27 -4 -77
-5 -78 -1 -96 -4 -112 -20 -19 -19 -20 -19 -29 8 l-10 28 107 -4 c58 -2 113
-6 121 -7z m12 -97 l177 -4 7 -27 c3 -17 13 -28 22 -29 9 0 4 -5 -13 -10 -26
-7 -33 -5 -56 20 -31 35 -76 44 -199 39 -85 -3 -85 -3 -90 -32 -5 -28 -5 -28
-28 20 -13 26 -18 43 -10 37 8 -7 84 -12 190 -14z m46 -95 c23 -3 40 -9 37
-15 -8 -13 -51 -11 -74 2 -28 18 -91 3 -91 -22 0 -46 17 -59 80 -59 51 0 61 3
78 25 17 21 21 22 26 9 4 -10 14 -14 26 -11 34 9 22 -19 -12 -29 l-33 -10 -2
-74 c-1 -41 -2 -79 -2 -83 -1 -4 -10 -3 -21 3 -24 13 -26 39 -5 66 8 10 15 28
15 39 0 18 -12 24 -75 40 -67 16 -78 22 -97 54 -12 20 -28 45 -35 56 -12 20
-10 20 65 17 42 -1 96 -5 120 -8z m32 -329 c0 -8 -4 -15 -10 -15 -5 0 -7 7 -4
15 4 8 8 15 10 15 2 0 4 -7 4 -15z m90 -41 c0 -11 -9 -14 -37 -12 -52 4 -56
28 -4 28 30 0 41 -4 41 -16z m-1470 -114 c0 -12 -57 -12 -85 0 -15 6 -6 9 33
9 28 1 52 -3 52 -9z m541 -443 c-8 -8 -16 -7 -27 5 -14 14 -14 15 11 10 19 -3
23 -8 16 -15z m944 3 c3 -6 -1 -7 -9 -4 -18 7 -21 14 -7 14 6 0 13 -4 16 -10z
m-44 -88 c-28 -2 -49 2 -58 10 -11 12 -4 12 44 3 l58 -10 -44 -3z m-691 8 c10
0 11 -3 3 -11 -14 -14 -55 -8 -61 10 -4 10 1 12 19 8 13 -4 31 -7 39 -7z
m-183 -26 c-3 -3 -12 -4 -19 -1 -8 3 -5 6 6 6 11 1 17 -2 13 -5z m197 -63 c4
-5 -3 -7 -14 -4 -23 6 -26 13 -6 13 8 0 17 -4 20 -9z m699 2 c-7 -2 -21 -2
-30 0 -10 3 -4 5 12 5 17 0 24 -2 18 -5z m-116 -119 c-3 -3 -12 -4 -19 -1 -8
3 -5 6 6 6 11 1 17 -2 13 -5z m121 -41 c-10 -2 -26 -2 -35 0 -10 3 -2 5 17 5
19 0 27 -2 18 -5z m-755 -80 c-7 -2 -19 -2 -25 0 -7 3 -2 5 12 5 14 0 19 -2
13 -5z m777 -13 c0 -11 -21 -11 -65 0 -27 7 -25 8 18 9 26 0 47 -3 47 -9z
m-767 -57 c-7 -2 -19 -2 -25 0 -7 3 -2 5 12 5 14 0 19 -2 13 -5z m2 -63 l20
-9 -20 0 c-11 0 -27 4 -35 9 -13 9 -13 10 0 9 8 0 24 -4 35 -9z m6 -80 c29
-16 23 -27 -11 -22 -17 2 -30 10 -30 18 0 17 14 18 41 4z m-21 -90 c13 -8 13
-10 -2 -10 -9 0 -20 5 -23 10 -8 13 5 13 25 0z m894 -15 c-4 -8 -8 -15 -10
-15 -2 0 -4 7 -4 15 0 8 4 15 10 15 5 0 7 -7 4 -15z m-870 -66 c16 -15 0 -20
-28 -10 -32 13 -36 35 -3 26 12 -4 26 -11 31 -16z m566 -69 c0 -5 -9 -10 -19
-10 -11 0 -23 5 -26 10 -4 6 5 10 19 10 14 0 26 -4 26 -10z m-7 -67 c-7 -2
-21 -2 -30 0 -10 3 -4 5 12 5 17 0 24 -2 18 -5z m10 -60 c-7 -2 -19 -2 -25 0
-7 3 -2 5 12 5 14 0 19 -2 13 -5z m35 -72 c10 -6 4 -10 -18 -15 -46 -9 -80 -8
-80 3 0 19 73 28 98 12z m-588 -11 c0 -5 -8 -10 -17 -10 -15 0 -16 2 -3 10 19
12 20 12 20 0z m766 1 c-5 -8 -56 -3 -56 5 0 2 14 4 31 4 16 0 28 -4 25 -9z
m239 -51 c3 -5 -1 -10 -9 -10 -9 0 -16 5 -16 10 0 6 4 10 9 10 6 0 13 -4 16
-10z m-402 -29 c8 -8 -7 -11 -60 -11 -39 0 -78 -3 -87 -6 -9 -3 -16 -2 -16 4
0 29 136 40 163 13z m-910 -3 c12 -6 49 -14 82 -17 56 -6 60 -8 63 -33 4 -33
32 -43 95 -35 23 3 50 2 61 -2 14 -5 -8 -21 -94 -67 -138 -72 -210 -135 -210
-183 0 -46 55 -101 102 -101 42 0 165 22 298 54 58 13 134 30 170 36 36 6 88
19 115 29 28 10 76 24 109 31 45 11 64 21 85 47 22 28 32 33 71 33 29 0 54 7
70 20 14 11 33 20 43 20 10 0 26 4 36 10 43 22 241 -73 241 -116 0 -7 -20 -22
-45 -33 -49 -22 -54 -36 -27 -72 10 -13 21 -32 25 -41 5 -14 1 -14 -29 4 -26
15 -44 19 -72 14 -20 -4 -48 -6 -62 -6 -138 7 -208 1 -263 -20 -49 -18 -58
-25 -55 -43 3 -22 37 -34 188 -64 30 -6 -138 -11 -520 -16 -598 -8 -650 -6
-616 32 9 10 16 23 16 29 0 18 -74 14 -130 -7 l-50 -19 -40 29 c-22 16 -48 29
-57 29 -10 0 -31 12 -47 26 -25 22 -27 28 -18 49 21 46 195 152 210 128 4 -7
30 -17 58 -23 69 -15 150 11 174 55 15 28 22 30 86 35 79 7 94 13 94 41 0 17
-8 19 -95 19 l-95 0 0 70 c0 39 3 70 6 70 3 0 15 -5 27 -12z m1054 -4 c-3 -3
-12 -4 -19 -1 -8 3 -5 6 6 6 11 1 17 -2 13 -5z m133 -18 c0 -23 -17 -28 -34
-10 -21 21 -20 24 9 24 15 0 25 -6 25 -14z m102 -71 c-6 -34 -12 -32 -12 6 0
16 4 28 9 25 4 -3 6 -17 3 -31z m-415 18 c-20 -2 -52 -2 -70 0 -17 2 0 4 38 4
39 0 53 -2 32 -4z m68 -13 c3 -5 2 -10 -4 -10 -5 0 -13 5 -16 10 -3 6 -2 10 4
10 5 0 13 -4 16 -10z m-482 -67 c-3 -10 -10 -24 -16 -30 -6 -9 -6 -18 2 -27 9
-11 7 -15 -12 -20 -13 -3 -29 -17 -35 -30 -21 -47 -78 -73 -185 -85 -100 -12
-117 -10 -117 13 0 41 213 178 261 169 14 -2 41 2 60 10 45 20 49 20 42 0z
m1073 -339 c30 -14 84 -30 125 -35 40 -5 74 -11 77 -14 3 -3 -112 -5 -256 -5
-257 0 -262 0 -262 20 0 11 -7 23 -15 26 -36 14 -9 24 67 24 92 0 118 13 118
62 l0 30 46 -41 c26 -22 70 -52 100 -67z m-493 35 c59 -16 40 -18 -43 -4 -58
10 -66 13 -35 14 22 0 57 -4 78 -10z m-1638 -79 c18 -20 17 -20 -32 -20 -59 0
-72 9 -41 27 33 18 52 16 73 -7z m405 -10 c11 -7 3 -10 -30 -9 -34 0 -40 2
-25 9 27 12 37 12 55 0z m-292 -7 c-10 -2 -26 -2 -35 0 -10 3 -2 5 17 5 19 0
27 -2 18 -5z M1704 7675 c-10 -24 12 -42 34 -29 24 16 21 38 -6 42 -13 2 -25
-3 -28 -13z M790 7554 c0 -17 22 -14 28 4 2 7 -3 12 -12 12 -9 0 -16 -7 -16
-16z M710 7540 c0 -5 9 -10 20 -10 11 0 20 5 20 10 0 6 -9 10 -20 10 -11 0
-20 -4 -20 -10z M772 7483 c2 -10 13 -19 26 -21 24 -4 29 7 10 26 -18 18 -40
15 -36 -5z M2543 5133 c-18 -6 -16 -48 1 -62 8 -7 30 -11 48 -9 28 2 34 7 36
31 2 16 -2 29 -10 31 -30 10 -64 14 -75 9z M2560 5005 c0 -32 2 -35 31 -35 40
0 69 16 69 39 0 22 -19 31 -66 31 -32 0 -34 -2 -34 -35z M2613 4862 c3 -29 1
-42 -9 -46 -8 -3 -14 -20 -14 -41 0 -33 2 -35 33 -35 18 0 38 5 45 12 14 14
16 50 3 64 -5 5 -11 25 -13 44 -2 28 -8 36 -27 38 -22 4 -24 1 -18 -36z M2600
4686 c0 -36 15 -46 75 -46 56 0 75 10 75 40 0 32 -18 40 -97 40 l-53 0 0 -34z
M2866 4088 c-30 -42 -21 -56 38 -63 65 -8 86 -5 99 16 17 28 1 49 -37 49 -19
0 -38 5 -41 10 -11 17 -43 11 -59 -12z M2780 3835 c0 -8 7 -15 15 -15 8 0 15
7 15 15 0 8 -7 15 -15 15 -8 0 -15 -7 -15 -15z M883 7045 c-42 -18 -42 -35 0
-35 33 0 77 23 77 41 0 13 -40 10 -77 -6z M810 7005 c0 -8 7 -15 15 -15 8 0
15 7 15 15 0 8 -7 15 -15 15 -8 0 -15 -7 -15 -15z M2490 3981 c-13 -26 -13
-61 2 -61 6 0 4 -7 -5 -18 -21 -23 -22 -58 -1 -66 55 -21 100 6 75 45 -7 12
-7 19 -1 19 5 0 10 15 10 33 0 56 -57 90 -80 48z M2340 3940 c-40 -57 -35
-140 9 -140 29 0 38 19 45 98 6 67 5 72 -13 72 -11 0 -29 -13 -41 -30z M2486
3805 c-22 -22 -21 -65 1 -65 15 0 15 -1 0 -18 -21 -23 -22 -62 -2 -62 8 0 15
-4 15 -9 0 -23 -14 -41 -32 -41 -16 0 -19 -6 -16 -37 3 -34 6 -38 34 -41 51
-5 64 17 63 109 -1 60 -5 81 -16 88 -12 6 -10 10 11 15 16 4 26 13 26 25 0 36
-58 61 -84 36z M2423 3504 c-15 -39 47 -66 114 -50 28 8 31 41 4 56 -32 17
-111 13 -118 -6z M2680 3463 c-29 -37 -22 -57 19 -61 75 -7 99 17 65 66 -21
30 -58 28 -84 -5z M2430 3402 c0 -43 15 -51 83 -45 34 3 64 7 66 9 3 3 -8 18
-24 34 -24 25 -36 30 -77 30 -46 0 -48 -1 -48 -28z M2691 3372 c-25 -46 -9
-72 44 -72 38 0 55 11 55 35 0 28 -17 43 -58 51 -24 5 -32 2 -41 -14z M2730
3269 c-16 -29 -5 -51 22 -47 18 2 24 11 26 36 3 27 0 32 -17 32 -11 0 -25 -9
-31 -21z M3050 2651 c0 -17 -4 -33 -10 -36 -31 -19 12 -82 48 -71 15 5 21 19
26 57 8 58 -3 79 -40 79 -20 0 -24 -5 -24 -29z M3039 2503 c-5 -15 -9 -43 -7
-62 2 -28 8 -37 25 -39 46 -7 85 82 51 116 -22 22 -58 14 -69 -15z M2496 8758
c-9 -35 -8 -38 18 -38 14 0 36 -4 50 -9 32 -13 96 -2 96 15 0 8 5 14 10 14 6
0 10 7 10 15 0 8 -7 15 -15 15 -8 0 -15 -4 -15 -9 0 -12 -114 -4 -118 9 -6 18
-30 11 -36 -12z M4975 8500 c4 -155 11 -295 15 -313 5 -18 8 109 9 281 1 280
-1 312 -15 312 -14 0 -15 -27 -9 -280z M2183 8753 c-13 -3 -23 -12 -23 -21 0
-14 10 -17 55 -18 59 0 65 4 37 29 -19 17 -27 18 -69 10z M2298 8746 c-24 -18
-22 -28 4 -24 13 2 24 11 26 21 4 20 -6 21 -30 3z M2350 8724 c0 -9 7 -14 17
-12 25 5 28 28 4 28 -12 0 -21 -6 -21 -16z M1940 8585 c0 -8 7 -15 15 -15 8 0
15 7 15 15 0 8 -7 15 -15 15 -8 0 -15 -7 -15 -15z M2220 8535 c0 -8 7 -15 15
-15 8 0 15 7 15 15 0 8 -7 15 -15 15 -8 0 -15 -7 -15 -15z M2160 8495 c0 -8 7
-15 15 -15 8 0 15 7 15 15 0 8 -7 15 -15 15 -8 0 -15 -7 -15 -15z M2740 8494
c0 -9 7 -14 17 -12 25 5 28 28 4 28 -12 0 -21 -6 -21 -16z M2190 8455 c0 -8 7
-15 15 -15 8 0 15 7 15 15 0 8 -7 15 -15 15 -8 0 -15 -7 -15 -15z M1930 8414
c0 -9 7 -14 17 -12 25 5 28 28 4 28 -12 0 -21 -6 -21 -16z M1910 8335 c0 -29
8 -32 26 -7 19 24 17 32 -6 32 -15 0 -20 -7 -20 -25z M4050 8300 c0 -32 14
-40 24 -14 10 27 7 44 -9 44 -10 0 -15 -10 -15 -30z M2197 8293 c-4 -3 -7 -15
-7 -25 0 -26 24 -17 28 10 3 21 -8 29 -21 15z M3970 8265 c0 -8 7 -15 15 -15
8 0 15 7 15 15 0 8 -7 15 -15 15 -8 0 -15 -7 -15 -15z M4340 8164 c0 -9 5 -14
12 -12 18 6 21 28 4 28 -9 0 -16 -7 -16 -16z M4993 8095 c0 -27 2 -38 4 -22 2
15 2 37 0 50 -2 12 -4 0 -4 -28z M190 8094 c0 -9 5 -14 12 -12 18 6 21 28 4
28 -9 0 -16 -7 -16 -16z M1450 8045 c0 -8 7 -15 15 -15 8 0 15 7 15 15 0 8 -7
15 -15 15 -8 0 -15 -7 -15 -15z M1340 7955 c0 -8 7 -15 15 -15 8 0 15 7 15 15
0 8 -7 15 -15 15 -8 0 -15 -7 -15 -15z M2812 7958 c7 -19 38 -22 38 -4 0 10
-9 16 -21 16 -12 0 -19 -5 -17 -12z M1530 7935 c0 -8 7 -15 15 -15 8 0 15 7
15 15 0 8 -7 15 -15 15 -8 0 -15 -7 -15 -15z M1290 7924 c0 -9 5 -14 12 -12
18 6 21 28 4 28 -9 0 -16 -7 -16 -16z M2930 7875 c0 -8 7 -15 15 -15 8 0 15 7
15 15 0 8 -7 15 -15 15 -8 0 -15 -7 -15 -15z M130 7855 c0 -8 7 -15 15 -15 8
0 15 7 15 15 0 8 -7 15 -15 15 -8 0 -15 -7 -15 -15z M1410 7855 c0 -8 6 -15
14 -15 8 0 16 -5 18 -12 2 -6 10 -8 16 -4 17 10 15 26 -3 26 -8 0 -15 5 -15
10 0 6 -7 10 -15 10 -8 0 -15 -7 -15 -15z M2960 7815 c0 -8 7 -15 15 -15 8 0
15 7 15 15 0 8 -7 15 -15 15 -8 0 -15 -7 -15 -15z M4993 7755 c0 -38 2 -53 4
-32 2 20 2 52 0 70 -2 17 -4 1 -4 -38z M300 7780 c0 -11 7 -20 15 -20 8 0 15
9 15 20 0 11 -7 20 -15 20 -8 0 -15 -9 -15 -20z M1500 7766 c0 -12 28 -25 53
-26 18 0 5 28 -15 34 -33 8 -38 8 -38 -8z M1460 7758 c0 -7 -3 -23 -6 -35 -5
-17 -2 -23 9 -23 8 0 29 -8 46 -17 34 -20 46 -14 36 17 -5 17 -12 20 -31 16
-24 -6 -28 -1 -25 37 1 9 -4 17 -13 17 -9 0 -16 -6 -16 -12z M250 7715 c0 -8
7 -15 15 -15 8 0 15 7 15 15 0 8 -7 15 -15 15 -8 0 -15 -7 -15 -15z M270 7635
c0 -8 7 -15 15 -15 8 0 15 7 15 15 0 8 -7 15 -15 15 -8 0 -15 -7 -15 -15z M30
7620 c0 -11 5 -20 10 -20 6 0 10 9 10 20 0 11 -4 20 -10 20 -5 0 -10 -9 -10
-20z M4992 7605 c0 -16 2 -22 5 -12 2 9 2 23 0 30 -3 6 -5 -1 -5 -18z M3395
7609 c-4 -6 -4 -13 -1 -16 8 -8 36 5 36 17 0 13 -27 13 -35 -1z M30 7565 c0
-8 7 -15 15 -15 8 0 15 7 15 15 0 8 -7 15 -15 15 -8 0 -15 -7 -15 -15z M110
7563 c0 -5 4 -15 10 -23 11 -18 25 -7 17 15 -6 15 -27 21 -27 8z M70 7535 c0
-8 7 -15 15 -15 8 0 15 7 15 15 0 8 -7 15 -15 15 -8 0 -15 -7 -15 -15z M3460
7525 c0 -8 7 -15 15 -15 8 0 15 7 15 15 0 8 -7 15 -15 15 -8 0 -15 -7 -15 -15z
M92 7448 c-7 -7 -12 -20 -12 -29 0 -21 22 -37 28 -21 2 7 10 19 19 27 15 16
10 35 -11 35 -6 0 -17 -5 -24 -12z M31 7379 c-9 -22 -10 -34 -3 -41 17 -17 42
9 42 43 0 38 -22 37 -39 -2z M0 7160 c0 -12 33 -30 54 -30 21 0 21 26 0 34
-24 9 -54 7 -54 -4z M0 7097 c0 -14 40 -37 65 -37 20 0 19 20 -2 36 -23 17
-63 18 -63 1z M0 7021 c0 -21 19 -31 56 -31 35 0 29 19 -11 36 -44 18 -45 18
-45 -5z M0 6900 c0 -17 7 -20 40 -20 43 0 52 13 21 30 -33 17 -61 12 -61 -10z
M868 6843 c-10 -2 -18 -10 -18 -17 0 -16 44 -26 106 -26 37 0 44 3 44 19 0 10
-7 22 -16 25 -17 7 -89 6 -116 -1z M0 6800 c0 -21 30 -27 64 -14 33 13 17 34
-24 34 -33 0 -40 -3 -40 -20z M820 6739 c0 -14 5 -19 14 -16 8 3 20 -1 26 -9
15 -17 56 -19 66 -2 10 16 -27 40 -53 35 -13 -2 -23 0 -23 4 0 5 -7 9 -15 9
-9 0 -15 -9 -15 -21z M980 6725 c0 -8 7 -15 15 -15 8 0 15 7 15 15 0 8 -7 15
-15 15 -8 0 -15 -7 -15 -15z M950 6665 c0 -8 7 -15 15 -15 8 0 15 7 15 15 0 8
-7 15 -15 15 -8 0 -15 -7 -15 -15z M860 6455 c0 -64 69 -135 87 -89 9 25 -38
108 -64 112 -19 3 -23 -1 -23 -23z M900 6305 c0 -8 7 -15 15 -15 8 0 15 7 15
15 0 8 -7 15 -15 15 -8 0 -15 -7 -15 -15z M110 6075 c0 -8 7 -15 15 -15 8 0
15 7 15 15 0 8 -7 15 -15 15 -8 0 -15 -7 -15 -15z M132 5753 c5 -25 28 -28 28
-4 0 12 -6 21 -16 21 -9 0 -14 -7 -12 -17z M3740 5245 c0 -8 7 -15 15 -15 8 0
15 7 15 15 0 8 -7 15 -15 15 -8 0 -15 -7 -15 -15z M1410 5235 c0 -8 7 -15 15
-15 8 0 15 7 15 15 0 8 -7 15 -15 15 -8 0 -15 -7 -15 -15z M4 5205 c-9 -23 5
-35 42 -35 25 0 34 4 34 16 0 11 -6 15 -19 11 -12 -3 -22 1 -25 9 -7 18 -25
18 -32 -1z M4992 4945 c0 -16 2 -22 5 -12 2 9 2 23 0 30 -3 6 -5 -1 -5 -18z
M4942 4948 c3 -7 13 -15 22 -16 12 -3 17 1 14 10 -3 7 -13 15 -22 16 -12 3
-17 -1 -14 -10z M4993 4855 c0 -22 2 -30 4 -17 2 12 2 30 0 40 -3 9 -5 -1 -4
-23z M4993 4675 c0 -22 2 -30 4 -17 2 12 2 30 0 40 -3 9 -5 -1 -4 -23z M4994
4425 c0 -60 1 -84 3 -52 2 32 2 81 0 110 -2 29 -3 3 -3 -58z M0 4259 c0 -24
23 -21 28 4 2 10 -3 17 -12 17 -10 0 -16 -9 -16 -21z M130 4205 c0 -8 7 -15
15 -15 8 0 15 7 15 15 0 8 -7 15 -15 15 -8 0 -15 -7 -15 -15z M0 4160 c0 -11
5 -20 10 -20 6 0 10 9 10 20 0 11 -4 20 -10 20 -5 0 -10 -9 -10 -20z M4993
4070 c0 -41 2 -58 4 -37 2 20 2 54 0 75 -2 20 -4 3 -4 -38z M4093 4115 c-18
-20 -16 -42 4 -49 23 -9 43 12 23 24 -10 7 -11 10 -2 10 6 0 12 7 12 15 0 19
-21 19 -37 0z M4040 4089 c0 -24 23 -21 28 4 2 10 -3 17 -12 17 -10 0 -16 -9
-16 -21z M4130 4055 c0 -8 7 -15 15 -15 8 0 15 7 15 15 0 8 -7 15 -15 15 -8 0
-15 -7 -15 -15z M2 3969 c1 -12 9 -24 16 -27 9 -3 13 3 10 19 -1 12 -9 24 -16
27 -9 3 -13 -3 -10 -19z M832 3338 c3 -7 13 -15 22 -16 12 -3 17 1 14 10 -3 7
-13 15 -22 16 -12 3 -17 -1 -14 -10z M4994 3245 c0 -49 1 -71 3 -48 2 23 2 64
0 90 -2 26 -3 8 -3 -42z M4992 3090 c0 -14 2 -19 5 -12 2 6 2 18 0 25 -3 6 -5
1 -5 -13z M4590 3004 c0 -9 7 -14 17 -12 25 5 28 28 4 28 -12 0 -21 -6 -21
-16z M30 2955 c0 -8 7 -15 15 -15 8 0 15 7 15 15 0 8 -7 15 -15 15 -8 0 -15
-7 -15 -15z M4892 2864 c1 -9 9 -19 16 -22 9 -3 13 2 10 14 -1 9 -9 19 -16 22
-9 3 -13 -2 -10 -14z M3610 2805 c0 -8 7 -15 15 -15 8 0 15 7 15 15 0 8 -7 15
-15 15 -8 0 -15 -7 -15 -15z M4940 2695 c0 -8 7 -15 15 -15 8 0 15 7 15 15 0
8 -7 15 -15 15 -8 0 -15 -7 -15 -15z M1960 2625 c0 -8 7 -15 15 -15 8 0 15 7
15 15 0 8 -7 15 -15 15 -8 0 -15 -7 -15 -15z M4720 2560 c0 -11 5 -20 10 -20
6 0 10 9 10 20 0 11 -4 20 -10 20 -5 0 -10 -9 -10 -20z M180 2434 c0 -17 22
-14 28 4 2 7 -3 12 -12 12 -9 0 -16 -7 -16 -16z M10 2415 c-7 -9 -10 -18 -7
-22 8 -7 37 15 37 28 0 14 -16 11 -30 -6z M4200 2306 c0 -10 9 -16 21 -16 24
0 21 23 -4 28 -10 2 -17 -3 -17 -12z M0 2295 c0 -8 7 -15 15 -15 8 0 15 7 15
15 0 8 -7 15 -15 15 -8 0 -15 -7 -15 -15z M4830 2275 c0 -8 7 -15 15 -15 8 0
15 7 15 15 0 8 -7 15 -15 15 -8 0 -15 -7 -15 -15z M4620 2265 c0 -8 7 -15 15
-15 8 0 15 7 15 15 0 8 -7 15 -15 15 -8 0 -15 -7 -15 -15z M2 2254 c2 -11 11
-20 22 -22 13 -3 17 1 14 14 -2 11 -11 20 -22 22 -13 3 -17 -1 -14 -14z M1970
2215 c0 -8 7 -15 15 -15 8 0 15 7 15 15 0 8 -7 15 -15 15 -8 0 -15 -7 -15 -15z
M4618 2184 c-24 -13 -28 -21 -28 -59 0 -42 -2 -45 -26 -45 -30 0 -84 -35 -84
-54 0 -22 35 -46 71 -47 26 -2 28 -3 9 -6 -14 -2 -41 -17 -60 -33 -34 -28 -35
-30 -20 -57 12 -21 25 -29 55 -33 l39 -5 -36 -14 c-38 -15 -48 -37 -48 -105 0
-38 15 -56 47 -56 20 0 22 5 25 57 2 44 7 59 19 61 19 4 25 -41 35 -269 4 -85
11 -162 16 -171 10 -21 51 -24 67 -4 12 14 10 67 -8 241 -13 130 -14 188 -1
180 6 -3 10 -16 10 -29 0 -43 44 -61 74 -30 9 8 16 25 16 37 0 18 6 22 33 23
17 0 37 1 42 3 28 9 75 0 75 -14 0 -8 7 -15 15 -15 8 0 15 5 15 10 0 6 7 10
15 10 24 0 20 77 -5 92 -23 15 -26 43 -6 51 10 4 16 -3 19 -21 2 -15 4 25 4
88 0 96 -1 103 -6 45 -6 -65 -7 -68 -14 -32 -4 20 -12 37 -17 37 -5 0 -7 13
-4 30 4 18 1 36 -6 45 -9 11 -10 19 -3 26 8 8 13 7 17 0 10 -16 26 -13 26 4 0
15 -37 35 -66 35 -11 0 -15 -8 -13 -28 2 -15 -1 -33 -5 -41 -6 -10 -2 -20 14
-33 12 -10 17 -18 11 -18 -6 0 -11 -8 -11 -17 -1 -40 -21 -48 -133 -51 -75 -2
-107 0 -102 7 3 6 39 11 79 11 53 0 77 4 86 15 16 20 5 45 -20 45 -11 0 -20 6
-20 14 0 16 -21 26 -56 26 -32 0 -31 18 1 26 29 7 32 29 9 62 -12 18 -24 22
-67 22 -29 -1 -64 -8 -79 -16z m192 -314 c-30 -5 -73 -8 -95 -8 -34 0 -36 1
-15 8 14 4 57 8 95 8 l70 -1 -55 -7z m60 -60 c0 -5 -2 -10 -4 -10 -3 0 -8 5
-11 10 -3 6 -1 10 4 10 6 0 11 -4 11 -10z m-85 -10 c-3 -5 -16 -10 -29 -10
-12 0 -27 -5 -34 -12 -9 -9 -12 -9 -12 3 0 23 10 29 47 29 20 0 32 -4 28 -10z
M0 2125 c0 -8 7 -15 15 -15 8 0 15 7 15 15 0 8 -7 15 -15 15 -8 0 -15 -7 -15
-15z M4820 2115 c0 -8 7 -15 15 -15 8 0 15 7 15 15 0 8 -7 15 -15 15 -8 0 -15
-7 -15 -15z M4840 2075 c0 -8 7 -15 15 -15 8 0 15 7 15 15 0 8 -7 15 -15 15
-8 0 -15 -7 -15 -15z M4880 2025 c0 -8 7 -15 15 -15 8 0 15 7 15 15 0 8 -7 15
-15 15 -8 0 -15 -7 -15 -15z M0 2010 c0 -5 9 -10 20 -10 11 0 20 5 20 10 0 6
-9 10 -20 10 -11 0 -20 -4 -20 -10z M140 1996 c0 -10 9 -16 21 -16 24 0 21 23
-4 28 -10 2 -17 -3 -17 -12z M1993 1965 c-3 -9 -3 -18 0 -21 9 -9 27 6 27 22
0 19 -19 18 -27 -1z M2022 1923 c5 -25 28 -28 28 -4 0 12 -6 21 -16 21 -9 0
-14 -7 -12 -17z M4812 1734 c1 -9 9 -19 16 -22 9 -3 13 2 10 14 -1 9 -9 19
-16 22 -9 3 -13 -2 -10 -14z M4933 1695 c-3 -9 -3 -18 0 -22 10 -10 37 6 37
22 0 20 -29 20 -37 0z M4863 1685 c-3 -9 -3 -18 0 -21 9 -9 27 6 27 22 0 19
-19 18 -27 -1z M4792 1668 c6 -16 36 -34 44 -25 9 9 -15 37 -33 37 -8 0 -13
-5 -11 -12z M2030 1640 c0 -11 7 -20 15 -20 8 0 15 9 15 20 0 11 -7 20 -15 20
-8 0 -15 -9 -15 -20z M4862 1623 c5 -25 28 -28 28 -4 0 12 -6 21 -16 21 -9 0
-14 -7 -12 -17z M3650 1614 c0 -9 5 -14 12 -12 18 6 21 28 4 28 -9 0 -16 -7
-16 -16z M4952 1618 c7 -19 38 -22 38 -4 0 10 -9 16 -21 16 -12 0 -19 -5 -17
-12z M4970 1485 c0 -8 7 -15 15 -15 8 0 15 7 15 15 0 8 -7 15 -15 15 -8 0 -15
-7 -15 -15z M4877 1403 c-14 -13 -6 -23 18 -23 16 0 25 6 25 15 0 15 -31 21
-43 8z M4110 1385 c0 -8 9 -15 20 -15 11 0 20 7 20 15 0 8 -9 15 -20 15 -11 0
-20 -7 -20 -15z M1932 1353 c5 -25 28 -28 28 -4 0 12 -6 21 -16 21 -9 0 -14
-7 -12 -17z M4850 1355 c0 -9 9 -15 25 -15 16 0 25 6 25 15 0 9 -9 15 -25 15
-16 0 -25 -6 -25 -15z M3760 1335 c0 -8 -9 -15 -20 -15 -24 0 -27 -15 -4 -24
33 -13 44 -6 44 24 0 17 -4 30 -10 30 -5 0 -10 -7 -10 -15z M4942 1314 c1 -9
9 -19 16 -22 9 -3 13 2 10 14 -1 9 -9 19 -16 22 -9 3 -13 -2 -10 -14z M3860
1285 c0 -8 7 -15 15 -15 8 0 15 7 15 15 0 8 -7 15 -15 15 -8 0 -15 -7 -15 -15z
M2000 1265 c0 -8 7 -15 15 -15 8 0 15 7 15 15 0 8 -7 15 -15 15 -8 0 -15 -7
-15 -15z M3802 1229 c1 -12 9 -24 16 -27 9 -3 13 3 10 19 -1 12 -9 24 -16 27
-9 3 -13 -3 -10 -19z M3740 1220 c0 -5 8 -14 18 -19 15 -9 15 -10 1 -11 -19 0
-43 -49 -37 -77 4 -20 49 -28 60 -9 5 7 8 5 8 -6 0 -10 7 -18 15 -18 18 0 20
26 3 34 -7 3 -3 3 10 0 17 -4 22 -1 22 15 0 15 -6 21 -24 21 -13 0 -26 -7 -30
-15 -9 -24 -31 -17 -31 10 0 19 5 25 23 25 26 0 28 13 5 40 -18 21 -43 27 -43
10z M4850 1215 c0 -8 7 -15 15 -15 8 0 15 7 15 15 0 8 -7 15 -15 15 -8 0 -15
-7 -15 -15z M1990 1206 c0 -12 28 -25 53 -26 18 0 5 28 -15 34 -33 8 -38 8
-38 -8z M4940 1205 c0 -8 7 -15 15 -15 8 0 15 7 15 15 0 8 -7 15 -15 15 -8 0
-15 -7 -15 -15z M1960 1150 c0 -20 5 -30 15 -30 10 0 15 10 15 30 0 20 -5 30
-15 30 -10 0 -15 -10 -15 -30z M4940 1167 c0 -17 20 -37 37 -37 20 0 15 28 -6
40 -26 13 -31 13 -31 -3z M3850 1135 c0 -16 6 -25 15 -25 9 0 15 9 15 25 0 16
-6 25 -15 25 -9 0 -15 -9 -15 -25z M4798 1149 c-10 -5 -18 -14 -18 -19 0 -14
34 -12 48 2 26 26 5 38 -30 17z M4290 1125 c0 -8 7 -15 15 -15 8 0 15 7 15 15
0 8 -7 15 -15 15 -8 0 -15 -7 -15 -15z M4880 1091 c0 -8 52 -31 71 -31 16 0
10 28 -7 34 -24 9 -64 7 -64 -3z M1960 1070 c0 -11 5 -20 10 -20 6 0 10 9 10
20 0 11 -4 20 -10 20 -5 0 -10 -9 -10 -20z M2025 1069 c-4 -6 -4 -13 -1 -16 8
-8 36 5 36 17 0 13 -27 13 -35 -1z M32 958 c7 -19 38 -22 38 -4 0 10 -9 16
-21 16 -12 0 -19 -5 -17 -12z M2353 454 c-3 -8 0 -27 8 -42 8 -18 14 -73 15
-160 2 -72 6 -137 9 -142 8 -13 71 -13 95 0 17 9 18 18 13 76 -7 74 -1 84 55
84 l32 0 0 -75 c0 -69 2 -76 23 -86 13 -6 37 -7 62 -1 35 7 40 12 37 33 -1 13
-7 62 -12 108 -7 55 -7 105 0 144 7 46 7 63 -3 69 -19 12 -92 9 -105 -4 -7 -7
-12 -38 -12 -70 l0 -58 -38 0 -39 0 5 55 c6 74 -5 85 -80 85 -44 0 -60 -4 -65
-16z M2724 456 c-3 -8 -1 -31 5 -53 15 -52 14 -246 0 -260 -7 -7 -9 -18 -6
-26 4 -11 26 -13 109 -10 56 2 113 6 125 9 25 5 53 50 53 84 0 18 -5 21 -32
18 -24 -2 -36 -10 -46 -30 -9 -19 -21 -28 -36 -28 -27 0 -36 17 -36 63 0 24 3
28 12 19 7 -7 22 -12 35 -12 21 0 23 4 23 55 0 48 2 55 20 55 46 0 54 95 10
117 -37 19 -229 18 -236 -1z m177 -73 c5 -26 2 -33 -16 -41 -19 -9 -24 -7 -28
8 -2 10 -2 30 0 44 7 37 35 30 44 -11z M3075 463 c-34 -9 -40 -21 -19 -44 17
-19 19 -37 19 -159 l0 -138 47 -6 c26 -4 59 -4 73 0 23 6 25 10 20 36 -8 34
-9 97 -3 104 3 2 26 -23 52 -57 48 -61 92 -89 141 -89 39 0 31 25 -30 101 -30
37 -55 71 -55 74 0 4 9 18 20 32 36 47 19 116 -34 132 -37 12 -203 22 -231 14z
m158 -60 c14 -17 21 -42 18 -71 -1 -8 -10 -12 -23 -10 -20 3 -23 10 -26 51 -3
50 5 58 31 30z M795 453 c-32 -9 -45 -24 -45 -53 0 -57 67 -81 90 -32 l12 27
10 -25 c5 -14 8 -69 5 -123 -3 -74 -8 -102 -21 -116 -30 -33 -11 -41 100 -41
95 0 104 2 104 19 0 10 -9 25 -20 32 -17 12 -21 30 -26 137 -6 112 -6 122 11
122 9 0 31 -11 47 -25 40 -34 62 -29 68 15 5 33 6 34 13 10 11 -39 8 -258 -3
-265 -5 -3 -10 -15 -10 -26 0 -17 7 -19 59 -19 33 0 71 4 85 10 27 10 36 40
12 40 -17 0 -25 47 -17 98 5 32 10 37 35 40 16 2 39 1 52 -2 22 -6 24 -11 24
-71 0 -50 -3 -65 -14 -65 -22 0 -30 -19 -16 -35 9 -11 35 -15 96 -15 74 0 84
2 84 18 0 10 -5 23 -11 29 -7 7 -14 62 -17 132 -5 117 -4 121 18 139 16 13 21
25 17 37 -7 15 -16 17 -85 10 -42 -4 -79 -9 -81 -10 -2 -2 2 -27 9 -55 7 -28
10 -53 7 -56 -3 -3 -32 -2 -64 1 l-59 7 4 55 5 54 -84 -1 c-46 0 -149 2 -229
4 -80 3 -154 2 -165 -1z M1575 282 c0 -212 -15 -192 147 -192 115 0 132 7 144
56 15 60 -22 71 -70 20 -25 -28 -36 -33 -58 -29 -26 5 -28 8 -27 57 0 37 3 45
9 31 4 -12 15 -27 24 -34 27 -23 46 3 46 63 0 78 -8 96 -40 96 -16 0 -30 -6
-33 -12 -2 -7 -6 2 -9 20 -4 30 -3 32 27 32 19 0 39 -8 50 -20 12 -13 29 -20
44 -18 23 3 26 8 29 44 3 40 2 42 -30 47 -18 4 -82 9 -143 13 l-110 7 0 -181z
M3417 453 c-14 -14 -6 -34 18 -43 25 -9 25 -10 25 -139 0 -80 -4 -132 -10
-136 -20 -13 12 -35 49 -35 70 0 105 25 68 47 -16 9 -29 76 -20 99 4 11 11 6
25 -18 35 -57 59 -78 93 -78 30 0 35 5 66 68 l34 67 3 -87 3 -88 69 0 c63 0
70 2 70 20 0 11 -7 20 -15 20 -8 0 -18 12 -21 26 -9 36 3 210 16 234 17 31 4
40 -55 40 -67 0 -85 -7 -85 -32 0 -21 -58 -138 -69 -138 -3 0 -26 34 -49 75
-24 41 -53 82 -65 90 -22 15 -137 22 -150 8z M3958 449 c-21 -12 -24 -39 -4
-39 20 0 26 -33 26 -163 0 -85 3 -119 13 -122 6 -3 39 -6 72 -7 59 -3 60 -2
58 22 -1 14 -5 86 -9 160 -4 74 -11 141 -17 148 -12 15 -114 16 -139 1z M4167
453 c-14 -13 -7 -90 8 -103 13 -11 22 -10 53 6 20 10 41 20 45 22 5 3 7 -46 5
-106 -3 -97 -6 -113 -23 -126 -17 -12 -18 -16 -5 -31 12 -15 25 -17 85 -11 88
8 115 15 115 31 0 7 -9 15 -20 18 -19 5 -20 14 -20 118 l0 112 23 -21 c28 -26
45 -27 75 -6 18 12 22 24 20 52 -3 37 -3 37 -58 44 -74 8 -295 10 -303 1z
M4557 182 c-40 -44 -1 -85 54 -57 24 13 30 22 27 43 -2 22 -9 28 -34 30 -20 2
-36 -3 -47 -16z"/>
</g>
</svg>
