<?xml version="1.0" standalone="no"?>
<!DOCTYPE svg PUBLIC "-//W3C//DTD SVG 20010904//EN"
 "http://www.w3.org/TR/2001/REC-SVG-20010904/DTD/svg10.dtd">
<svg version="1.0" xmlns="http://www.w3.org/2000/svg"
 width="500.000000pt" height="878.000000pt" viewBox="0 0 500.000000 878.000000"
 preserveAspectRatio="xMidYMid meet">
<metadata>
Created by potrace 1.16, written by Peter Selinger 2001-2019
</metadata>
<g transform="translate(0.000000,878.000000) scale(0.100000,-0.100000)"
fill="#000000" stroke="none">
<path d="M0 8760 c0 -20 4 -20 163 -14 89 3 220 7 292 9 72 3 157 8 190 13 43
7 -42 10 -292 11 -348 1 -353 1 -353 -19z M716 8770 c13 -13 281 -13 339 -1
28 6 -18 9 -154 10 -135 1 -192 -2 -185 -9z M1178 8773 c6 -2 18 -2 25 0 6 3
1 5 -13 5 -14 0 -19 -2 -12 -5z M1628 8773 c7 -3 16 -2 19 1 4 3 -2 6 -13 5
-11 0 -14 -3 -6 -6z M1996 8765 c-3 -8 -1 -15 4 -15 6 0 10 5 10 10 0 6 4 10
10 10 5 0 7 -7 4 -15 -4 -8 -1 -15 5 -15 6 0 11 -9 11 -20 0 -11 5 -20 11 -20
7 0 8 7 3 18 -4 9 -8 27 -8 40 -1 26 -40 32 -50 7z M2440 8771 c-8 -6 -18 -7
-24 -4 -5 3 -6 1 -2 -5 4 -7 2 -12 -3 -12 -6 0 -11 -8 -11 -17 0 -14 2 -15 9
-5 4 7 17 14 28 15 13 0 19 6 16 14 -4 9 0 11 13 6 12 -4 15 -3 10 5 -9 14
-16 15 -36 3z M2500 8769 c0 -5 5 -7 10 -4 6 3 10 8 10 11 0 2 -4 4 -10 4 -5
0 -10 -5 -10 -11z M4975 8663 c3 -65 7 -201 9 -301 3 -101 7 -186 10 -190 3
-3 6 133 6 301 0 269 -2 307 -15 307 -13 0 -15 -16 -10 -117z M2650 8760 c0
-5 5 -10 11 -10 5 0 7 5 4 10 -3 6 -8 10 -11 10 -2 0 -4 -4 -4 -10z M2720
8762 c0 -5 7 -13 16 -16 10 -4 14 -1 12 6 -5 15 -28 23 -28 10z M2203 8753
c-21 -8 -15 -25 6 -18 11 3 22 1 26 -5 3 -5 11 -10 17 -10 7 0 2 9 -10 20 -12
11 -22 20 -24 19 -2 0 -9 -3 -15 -6z M2310 8752 c0 -6 -8 -13 -17 -15 -16 -4
-16 -5 -1 -6 18 -1 34 16 24 26 -3 4 -6 1 -6 -5z M2508 8752 c-10 -2 -18 -7
-18 -12 0 -5 6 -7 14 -4 8 3 24 0 36 -6 16 -9 25 -9 33 -1 8 8 8 11 -2 11 -7
0 -9 4 -6 10 6 9 -18 10 -57 2z M2625 8750 c4 -7 -1 -9 -17 -5 -19 5 -24 2
-25 -14 -1 -12 2 -21 8 -21 5 0 9 4 9 10 0 5 7 7 15 4 9 -4 15 0 15 7 0 12 2
12 9 0 5 -7 11 -9 14 -4 3 5 -3 15 -15 22 -12 8 -17 8 -13 1z M2164 8741 c4
-5 1 -12 -4 -14 -6 -3 -5 -4 2 -3 15 3 23 26 8 26 -6 0 -9 -4 -6 -9z M2350
8730 c0 -5 4 -10 9 -10 6 0 13 5 16 10 3 6 -1 10 -9 10 -9 0 -16 -4 -16 -10z
M2715 8720 c-3 -5 -1 -10 4 -10 6 0 11 5 11 10 0 6 -2 10 -4 10 -3 0 -8 -4
-11 -10z M2760 8720 c-12 -8 -10 -10 8 -10 13 0 20 4 17 10 -7 12 -6 12 -25 0z
M2410 8710 c-12 -8 -11 -10 8 -10 12 0 22 5 22 10 0 13 -11 13 -30 0z M2808
8704 c-6 -5 -196 -12 -496 -18 -164 -3 -201 -11 -174 -38 10 -10 30 -13 108
-17 20 -1 22 -8 29 -112 8 -126 7 -128 -62 -126 -49 0 -78 -19 -67 -47 5 -14
14 -16 51 -10 36 5 47 3 59 -12 15 -18 15 -18 10 1 -5 18 -1 20 57 21 34 1
131 4 215 6 104 3 152 1 152 -6 0 -7 3 -8 8 -1 4 6 40 11 80 11 124 3 126 41
3 51 -63 5 -74 9 -81 29 -5 12 -17 28 -28 35 -38 27 -36 54 8 114 41 56 54 65
63 43 4 -10 6 -10 6 0 1 6 13 12 27 12 30 0 94 28 94 41 0 5 -12 14 -26 19
-30 12 -29 12 -36 4z m-366 -73 c19 -1 48 -39 52 -68 2 -10 0 -28 -5 -40 -6
-17 -5 -21 6 -16 10 3 13 14 11 29 -6 29 9 31 24 3 9 -16 6 -28 -15 -64 -32
-56 -60 -75 -107 -75 -21 0 -38 1 -39 3 -8 32 -9 127 -1 127 6 0 12 -6 15 -12
2 -8 8 -9 13 -4 5 5 4 11 -4 13 -6 3 -9 10 -6 15 4 6 2 8 -3 5 -6 -4 -13 7
-17 24 -12 60 -9 67 27 65 17 -2 40 -4 49 -5z m172 -13 c-10 -13 -19 -24 -20
-26 -1 -1 -9 9 -18 23 l-16 25 36 0 37 0 -19 -22z m-18 -179 c3 -6 0 -15 -7
-20 -19 -12 -42 -11 -34 1 4 6 11 8 16 5 5 -3 6 1 3 9 -7 18 11 22 22 5z
M2370 8608 c0 -5 14 -7 30 -6 17 1 30 6 30 10 0 5 -13 7 -30 6 -16 -1 -30 -6
-30 -10z M2445 8605 c-3 -8 -7 -21 -9 -29 -3 -9 2 -12 15 -9 10 3 19 12 19 20
0 8 -5 11 -12 7 -8 -5 -9 -2 -5 9 3 10 4 17 1 17 -2 0 -7 -7 -9 -15z M2400
8558 c0 -19 2 -20 10 -8 13 19 13 30 0 30 -5 0 -10 -10 -10 -22z M2447 8503
c3 -7 9 -10 14 -7 14 8 11 21 -5 21 -8 0 -12 -6 -9 -14z M2420 8479 c0 -5 5
-7 10 -4 6 3 10 8 10 11 0 2 -4 4 -10 4 -5 0 -10 -5 -10 -11z M2485 8480 c4
-6 11 -8 16 -5 14 9 11 15 -7 15 -8 0 -12 -5 -9 -10z M2380 8473 c0 -5 7 -17
15 -27 12 -16 12 -22 2 -28 -9 -6 -9 -8 1 -8 7 0 15 7 18 15 8 20 22 19 26 -2
3 -14 8 -10 20 15 14 27 14 32 2 32 -8 0 -14 -4 -14 -9 0 -4 -11 -6 -25 -3
-14 2 -25 8 -25 13 0 5 -4 9 -10 9 -5 0 -10 -3 -10 -7z M2134 8619 c-4 -7 -3
-9 3 -6 6 4 16 0 23 -8 14 -17 46 -20 55 -4 9 14 7 15 -37 23 -24 4 -39 3 -44
-5z M2060 8610 c0 -5 5 -10 10 -10 6 0 10 5 10 10 0 6 -4 10 -10 10 -5 0 -10
-4 -10 -10z M2102 8608 c-7 -7 -12 -18 -12 -25 0 -7 -5 -13 -11 -13 -8 0 -9
-4 0 -13 6 -8 8 -17 4 -20 -3 -4 1 -7 9 -7 11 0 17 13 20 43 6 49 5 50 -10 35z
M1940 8590 c0 -5 5 -10 11 -10 5 0 7 5 4 10 -3 6 -8 10 -11 10 -2 0 -4 -4 -4
-10z M2150 8574 c0 -8 5 -12 10 -9 6 4 8 11 5 16 -9 14 -15 11 -15 -7z M2225
8540 c-3 -5 -1 -10 4 -10 6 0 11 5 11 10 0 6 -2 10 -4 10 -3 0 -8 -4 -11 -10z
M2165 8500 c3 -5 8 -10 11 -10 2 0 4 5 4 10 0 6 -5 10 -11 10 -5 0 -7 -4 -4
-10z M2745 8500 c-3 -6 1 -7 9 -4 18 7 21 14 7 14 -6 0 -13 -4 -16 -10z M2195
8460 c3 -5 8 -10 11 -10 2 0 4 5 4 10 0 6 -5 10 -11 10 -5 0 -7 -4 -4 -10z
M2230 8436 c0 -9 5 -16 11 -16 5 0 7 -4 4 -10 -3 -5 0 -7 8 -4 8 3 14 13 13
22 -4 22 -36 29 -36 8z M1935 8420 c-3 -6 1 -7 9 -4 18 7 21 14 7 14 -6 0 -13
-4 -16 -10z M2195 8420 c-3 -5 1 -10 10 -10 9 0 13 5 10 10 -3 6 -8 10 -10 10
-2 0 -7 -4 -10 -10z M1907 8356 c-3 -7 -1 -19 4 -27 7 -11 9 -11 9 3 0 9 5 18
12 20 8 3 6 7 -4 11 -9 3 -19 0 -21 -7z M2453 8332 c16 -7 16 -8 -2 -24 -21
-18 -33 -14 -24 8 3 8 0 14 -6 14 -6 0 -11 -6 -11 -14 0 -8 -7 -17 -16 -20
-23 -9 -27 -8 -21 9 4 8 2 17 -2 20 -12 7 -22 -21 -15 -40 7 -18 31 -20 37 -2
3 9 9 9 23 1 16 -9 23 -7 41 14 24 28 22 42 -5 41 -15 0 -15 -1 1 -7z M2490
8329 c0 -6 7 -9 15 -6 8 4 17 2 20 -3 3 -5 12 -7 20 -3 8 3 15 -1 15 -8 0 -7
2 -10 5 -7 3 3 3 13 -1 22 -7 18 -74 23 -74 5z M2325 8320 c3 -5 8 -10 11 -10
2 0 4 5 4 10 0 6 -5 10 -11 10 -5 0 -7 -4 -4 -10z M4051 8303 c0 -25 1 -26 9
-8 12 27 12 35 0 35 -5 0 -10 -12 -9 -27z M2193 8285 c-7 -8 -9 -16 -4 -19 5
-3 12 1 15 10 8 22 4 25 -11 9z M2480 8277 c-14 -5 -38 -15 -55 -22 -48 -20
-92 -27 -100 -16 -12 20 -85 12 -133 -15 -25 -14 -69 -35 -96 -46 -28 -10 -71
-34 -96 -52 -25 -18 -53 -36 -63 -39 -9 -4 -22 -18 -27 -32 -5 -14 -14 -25
-20 -25 -6 0 -9 4 -6 8 10 17 -60 -1 -83 -22 l-24 -21 5 28 c3 15 1 30 -3 33
-5 3 -9 13 -9 23 0 28 -62 81 -95 81 -38 0 -48 -7 -73 -51 -16 -29 -18 -44
-12 -80 5 -25 4 -67 -2 -99 -7 -37 -7 -71 0 -105 12 -57 30 -161 38 -220 3
-22 7 -46 10 -54 2 -8 8 -41 13 -75 5 -34 12 -69 16 -78 4 -11 3 -18 -3 -18
-6 0 -14 17 -17 38 -19 120 -29 168 -38 177 -7 7 -8 6 -3 -3 10 -17 -18 -26
-43 -12 -16 8 -21 8 -21 -2 -1 -8 -7 -5 -16 7 -14 19 -16 19 -25 3 -15 -28
-28 -21 -24 12 3 21 0 30 -10 30 -8 0 -14 3 -14 8 4 21 -3 24 -16 6 -20 -27
-19 -32 9 -27 20 4 23 1 21 -20 -3 -25 36 -77 57 -77 6 0 2 8 -9 18 -11 9 -18
23 -16 30 7 20 23 14 23 -10 1 -21 2 -21 11 -5 5 9 17 17 25 17 8 0 13 -4 10
-8 -3 -5 4 -8 16 -8 12 1 23 -6 26 -14 5 -13 3 -13 -13 0 -17 14 -18 13 -12
-2 7 -19 -7 -25 -18 -8 -8 12 -25 13 -25 2 0 -5 18 -15 40 -22 22 -7 40 -17
40 -22 0 -5 -4 -6 -10 -3 -5 3 -10 1 -10 -4 0 -6 6 -11 13 -11 8 0 7 -4 -3
-10 -13 -8 -12 -10 3 -10 9 0 17 -4 17 -9 0 -4 -11 -6 -25 -3 -16 3 -25 11
-25 23 0 10 -9 23 -20 29 -11 6 -20 7 -20 3 0 -4 -5 -2 -12 5 -7 7 -19 12 -28
12 -14 1 -27 16 -104 124 -16 23 -47 60 -70 83 -78 80 -101 110 -98 125 2 9
-19 35 -46 59 -27 24 -58 63 -68 86 -12 26 -26 43 -36 43 -10 0 -18 5 -18 10
0 6 -6 10 -14 10 -8 0 -16 6 -19 14 -7 19 -69 27 -114 14 -30 -8 -39 -7 -49 6
-6 9 -18 16 -26 16 -9 0 -35 9 -59 19 -24 11 -81 27 -126 37 -74 15 -90 16
-155 4 -40 -8 -84 -20 -98 -27 -14 -7 -29 -13 -35 -13 -18 0 -125 -106 -125
-124 0 -21 43 -22 61 0 15 18 69 47 75 41 3 -3 -2 -12 -11 -20 -19 -19 -20
-46 -1 -53 8 -3 17 -12 20 -20 4 -10 2 -12 -6 -8 -6 4 -27 7 -45 6 -19 -1 -45
5 -58 14 -35 23 -41 -1 -8 -34 17 -17 27 -37 25 -49 -2 -14 7 -29 27 -44 16
-12 32 -30 34 -41 3 -11 15 -22 26 -25 11 -3 19 -8 16 -12 -2 -4 9 -5 26 -3
29 4 34 -2 29 -38 -1 -8 -15 -26 -32 -39 -26 -21 -29 -28 -23 -57 4 -24 2 -34
-7 -35 -41 -4 -57 -9 -98 -27 -55 -24 -123 -89 -116 -109 3 -8 2 -11 -4 -8
-10 6 -58 -42 -66 -68 -3 -10 -17 -29 -31 -43 -22 -22 -24 -31 -19 -66 4 -22
13 -53 21 -69 8 -15 15 -38 15 -49 0 -20 34 -59 53 -60 16 0 6 28 -18 50 -28
27 -35 52 -7 27 10 -10 23 -17 29 -17 11 0 24 -253 18 -360 -2 -36 1 -98 7
-139 10 -72 9 -75 -14 -92 -28 -22 -36 -7 -14 26 21 32 20 38 -4 30 -20 -6
-26 8 -21 57 1 10 -3 26 -9 35 -8 14 -10 1 -7 -55 l3 -72 -55 -50 c-64 -58
-62 -80 3 -26 24 20 47 36 49 36 3 0 6 -24 6 -54 0 -47 -4 -57 -25 -71 -25
-16 -25 -38 1 -29 8 3 24 -4 36 -15 13 -12 26 -21 31 -21 14 0 9 18 -7 24 -8
3 -15 13 -15 23 1 15 4 14 23 -7 12 -14 34 -33 49 -42 61 -40 260 -47 450 -18
106 17 182 61 186 108 2 21 -3 41 -12 51 -9 10 -19 46 -22 80 -7 58 -5 62 15
68 27 7 27 29 1 36 -17 4 -20 14 -20 60 0 31 -3 63 -6 72 -5 11 0 18 15 22 24
6 29 23 7 23 -18 0 -23 18 -25 90 -1 30 -4 68 -5 84 -3 21 1 30 15 33 9 3 20
11 23 19 6 17 -10 19 -20 3 -4 -8 -9 -7 -15 2 -15 23 -10 59 9 66 9 3 28 16
42 28 26 23 106 40 116 24 3 -5 11 -9 17 -8 9 0 8 2 -1 6 -6 2 -10 9 -6 14 3
5 -4 9 -15 9 -17 0 -21 6 -21 33 -1 17 -7 49 -14 70 -8 20 -10 37 -5 37 14 0
39 -44 39 -70 0 -14 7 -36 15 -50 45 -77 57 -111 43 -127 -15 -19 -13 -225 3
-256 6 -10 10 -46 9 -80 0 -34 1 -159 3 -277 2 -181 6 -222 21 -257 19 -46 39
-54 55 -25 9 15 11 14 19 -8 6 -14 6 -26 1 -28 -5 -2 -6 -8 -3 -14 3 -5 14 -2
26 9 20 18 20 18 14 -50 -8 -74 1 -97 36 -97 22 0 22 -19 0 -105 -9 -34 -17
-244 -13 -353 1 -40 40 -67 110 -77 25 -3 69 -17 98 -31 99 -46 138 -31 154
61 4 27 7 5 8 -70 0 -60 -4 -137 -11 -170 -7 -39 -12 -228 -14 -530 -1 -258
-4 -483 -7 -498 -4 -16 -7 -58 -8 -94 -2 -67 6 -83 43 -83 21 0 43 -40 52 -95
9 -48 33 -88 49 -82 9 3 13 -25 15 -102 2 -58 4 -117 7 -131 2 -14 6 -65 10
-115 3 -49 10 -115 15 -145 5 -30 12 -169 15 -309 3 -140 10 -261 14 -270 5
-9 6 -21 4 -28 -8 -22 47 -101 81 -117 47 -22 60 -20 98 13 27 23 37 27 56 18
48 -22 68 -152 78 -507 2 -80 6 -158 9 -175 6 -39 15 -258 16 -410 0 -66 4
-151 9 -190 5 -38 11 -114 15 -169 3 -54 7 -102 10 -106 3 -4 2 -42 -1 -84 -6
-63 -10 -77 -26 -82 -11 -3 -27 1 -37 10 -10 9 -42 21 -72 26 -62 10 -129 36
-129 50 0 5 -25 28 -55 50 -34 25 -53 46 -49 53 4 7 4 9 0 6 -4 -4 -20 7 -36
23 -23 23 -34 27 -57 22 -41 -10 -49 -19 -63 -70 -10 -36 -29 -61 -82 -113
-65 -62 -72 -66 -116 -66 -48 0 -77 -12 -123 -49 -50 -40 -82 -61 -93 -61 -6
-1 -24 -7 -41 -15 -76 -34 -265 -19 -265 22 0 10 -4 18 -10 18 -5 0 -10 -7
-10 -16 0 -10 -6 -14 -14 -11 -8 3 -41 9 -73 12 -49 6 -67 3 -106 -15 -46 -22
-47 -22 -97 -4 -27 10 -50 23 -50 28 0 6 -10 12 -22 12 -29 2 -101 28 -153 55
l-41 21 -52 -26 c-29 -14 -52 -30 -52 -34 0 -5 -24 -14 -52 -21 -97 -24 -128
-41 -128 -73 0 -15 1 -28 3 -28 1 0 17 4 35 9 39 11 44 -4 7 -21 -28 -12 -32
-26 -11 -34 14 -5 92 31 102 47 3 5 20 9 37 9 43 0 73 22 87 65 11 34 23 44
34 26 3 -4 19 -11 36 -15 17 -3 60 -19 95 -35 73 -34 125 -51 175 -57 27 -3
42 1 64 21 16 14 32 25 36 25 4 0 43 -9 86 -21 118 -31 224 -35 325 -9 90 22
150 49 187 83 20 18 33 21 83 19 l58 -4 91 92 c50 50 97 105 105 121 l15 29
48 -36 c26 -20 58 -49 72 -64 25 -28 70 -46 183 -71 32 -7 60 -15 62 -19 2 -3
-13 -15 -33 -25 -20 -10 -50 -29 -67 -40 -16 -12 -40 -25 -51 -29 -29 -9 -51
-36 -56 -66 -2 -17 -15 -31 -43 -46 -22 -11 -44 -19 -50 -18 -13 5 -115 -54
-115 -66 0 -5 -17 -21 -37 -35 l-38 -25 -762 0 -763 0 0 -30 0 -31 673 6 c713
7 2042 12 3465 14 l862 1 0 28 0 27 -308 -1 c-169 0 -311 2 -317 6 -15 10
-143 60 -195 76 -25 8 -64 14 -87 14 -51 0 -79 12 -163 69 -104 71 -119 88
-113 127 3 20 1 40 -7 48 -10 13 -4 19 32 36 25 11 62 38 83 60 37 38 39 39
67 24 15 -8 28 -18 28 -23 0 -21 189 -74 258 -73 34 1 46 1 132 -1 77 -2 103
7 160 58 45 40 53 43 87 38 20 -4 52 -17 71 -30 19 -12 39 -23 44 -23 4 0 26
-12 48 -26 30 -20 59 -29 110 -33 l70 -7 0 29 c0 19 -4 27 -12 24 -7 -2 -44
12 -83 33 -222 120 -228 122 -293 93 -40 -17 -46 -20 -62 -22 -5 0 -10 -9 -10
-18 0 -19 -66 -83 -86 -83 -8 0 -31 9 -51 20 -43 23 -61 25 -100 8 -15 -6 -37
-10 -48 -9 -33 5 -114 52 -118 69 -4 15 -5 15 -6 1 -1 -15 -9 -14 -63 8 -35
13 -73 29 -84 35 -26 12 -52 0 -107 -51 -48 -44 -64 -54 -78 -46 -7 5 -7 11 1
20 8 9 4 11 -16 7 -17 -3 -25 -1 -20 6 4 6 -2 8 -14 5 -31 -8 -25 -31 8 -27
26 4 26 4 -3 -6 -32 -10 -83 -9 -103 4 -14 9 -16 52 -2 61 12 7 4 190 -26 555
-21 266 -24 328 -29 795 -3 231 -7 452 -10 492 -3 51 -1 73 8 76 9 4 9 8 -1
15 -10 7 -12 31 -9 98 3 49 7 101 10 116 3 16 1 30 -3 33 -8 5 -13 225 -15
600 0 88 -6 239 -12 335 -12 171 -17 516 -14 968 1 125 -2 229 -7 235 -6 7 -6
37 0 77 5 36 11 380 13 765 3 604 5 706 19 745 18 53 20 93 6 158 -43 195 -55
230 -88 254 -10 7 -29 35 -41 61 -14 29 -33 52 -47 57 -13 5 -34 21 -46 36
-35 40 -118 92 -163 101 -22 5 -73 8 -114 6 -61 -2 -76 0 -87 15 -7 9 -18 17
-26 17 -7 0 -14 9 -17 20 -4 21 -93 115 -110 115 -5 0 -13 16 -17 35 -3 20
-16 40 -30 50 -16 10 -24 25 -24 43 0 16 -5 33 -12 40 -8 8 -9 21 0 49 6 21
13 70 17 110 6 88 4 89 -110 91 -44 1 -98 4 -120 6 -22 2 -51 -1 -65 -7z m168
-70 l53 1 -3 -32 c-2 -17 -7 -30 -13 -29 -60 9 -70 7 -73 -12 -2 -17 -9 -20
-48 -17 -24 2 -51 -1 -58 -7 -10 -8 -16 -9 -21 -1 -9 15 -35 12 -35 -5 0 -17
38 -38 98 -55 37 -10 42 -13 31 -26 -10 -13 -25 -14 -68 -9 -31 4 -62 12 -68
17 -20 16 -155 39 -190 32 -74 -14 -16 -59 95 -73 72 -10 160 -45 231 -93 l44
-29 22 21 c18 17 27 20 42 11 37 -19 42 -33 31 -86 l-11 -49 -22 28 c-27 34
-55 31 -73 -7 -14 -28 -31 -34 -49 -16 -16 16 -4 49 18 49 24 0 25 27 3 59
-12 16 -23 22 -40 18 -14 -2 -27 -1 -29 4 -3 4 -47 21 -98 37 -175 56 -209 64
-272 58 -33 -3 -75 -5 -92 -5 -18 -1 -33 -5 -33 -11 0 -5 15 -10 33 -10 31 0
62 -7 145 -31 20 -6 60 -14 88 -19 46 -7 104 -34 104 -47 0 -8 -104 8 -114 18
-15 14 -42 11 -56 -6 -7 -8 -23 -15 -35 -15 -18 0 -57 -27 -44 -31 2 -1 51 -2
109 -4 132 -2 154 -9 147 -42 -3 -16 1 -27 11 -30 23 -9 44 27 38 66 l-5 34
24 -23 c16 -15 24 -33 23 -49 -1 -14 2 -36 6 -48 9 -29 -8 -30 -72 -4 -26 11
-65 22 -87 26 -22 3 -58 9 -80 13 -56 12 -115 4 -115 -15 0 -12 8 -13 39 -8
28 5 46 2 64 -10 14 -8 53 -20 87 -26 47 -7 73 -18 104 -44 42 -34 191 -115
214 -115 6 0 12 5 12 10 0 16 47 30 78 24 15 -3 43 -19 62 -35 20 -17 26 -26
13 -20 -12 6 -25 16 -28 21 -10 17 -51 11 -69 -9 -21 -23 -12 -44 14 -36 12 4
27 -2 39 -14 23 -23 57 -28 64 -8 3 9 8 8 18 -5 8 -9 34 -23 59 -31 62 -21
120 -49 120 -59 0 -4 -17 -16 -38 -27 -52 -27 -65 -44 -57 -80 6 -28 -8 -51
-19 -32 -6 10 -44 4 -62 -10 -7 -6 -17 -2 -27 9 -21 24 -67 112 -67 129 0 8
-15 20 -32 28 -18 8 -60 37 -93 65 -33 27 -67 50 -76 50 -9 0 -34 13 -56 29
-22 16 -50 32 -64 36 -13 4 -31 13 -39 20 -8 7 -29 16 -45 19 -17 4 -57 25
-90 47 -32 22 -70 42 -84 45 -14 3 -39 11 -56 19 -35 16 -125 18 -163 3 -15
-5 -44 -10 -64 -10 -21 1 -40 -3 -43 -9 -7 -11 -45 -12 -46 -1 -6 72 -2 160 8
179 10 19 10 28 0 43 -20 33 3 45 60 34 60 -13 129 -12 126 1 -1 6 -11 11 -23
13 -14 2 -20 11 -20 29 0 18 4 24 15 19 9 -3 21 4 31 19 9 14 20 22 25 19 5
-3 9 0 9 6 0 6 12 15 28 21 15 6 57 25 93 44 59 30 74 33 145 32 58 -1 87 4
109 16 25 14 44 16 105 10 41 -4 99 -7 128 -6z m-960 -101 c24 -12 31 -27 46
-90 10 -42 18 -98 18 -124 0 -26 6 -87 14 -137 8 -49 14 -119 14 -155 0 -36 5
-94 11 -130 20 -125 26 -195 19 -203 -9 -11 -80 2 -80 14 0 5 12 9 26 9 31 0
28 23 -4 28 -28 4 -28 16 0 34 24 16 17 38 -13 38 -25 0 -25 16 1 23 28 7 25
25 -5 33 -30 7 -33 31 -5 36 27 4 26 23 -2 23 -12 0 -24 9 -29 21 -6 18 -4 22
17 22 29 0 31 1 36 27 2 17 -2 20 -28 18 -27 -2 -33 1 -37 25 -3 15 -11 46
-18 68 -11 36 -10 44 3 57 18 18 28 12 28 -15 0 -26 24 -18 28 9 2 11 -6 30
-17 44 l-19 24 -13 -28 c-13 -29 -25 -35 -32 -14 -6 17 22 57 40 57 8 0 11 5
8 11 -4 6 -19 7 -36 4 -25 -6 -29 -4 -29 15 0 23 21 50 39 50 19 0 12 17 -9
23 -24 6 -26 29 -5 47 8 7 15 16 15 21 0 5 -7 9 -15 9 -8 0 -15 5 -15 10 0 6
7 13 15 16 8 4 15 13 15 21 0 11 -7 13 -25 9 -20 -5 -25 -3 -25 13 0 51 20 62
68 37z m982 -1 c24 -13 24 -14 4 -15 -12 0 -27 7 -34 15 -16 19 -3 19 30 0z
m-1930 -23 c103 -37 205 -96 208 -120 5 -35 -39 -143 -62 -152 -21 -9 -31 -2
-66 49 -18 27 -53 27 -71 1 -8 -11 -27 -23 -43 -26 -16 -3 -31 -6 -35 -6 -3
-1 -22 3 -42 10 -40 14 -73 45 -83 78 -6 20 -3 22 31 20 21 -1 55 -9 75 -16
29 -11 43 -11 63 -2 14 7 36 12 48 12 12 0 33 9 47 19 21 17 22 21 10 36 -15
17 -18 17 -112 -9 -54 -15 -60 -15 -103 4 -28 12 -69 20 -104 20 -58 0 -101
19 -101 44 0 59 216 83 340 38z m230 -56 c0 -9 -7 -12 -20 -9 -11 3 -20 9 -20
14 0 5 9 9 20 9 11 0 20 -6 20 -14z m1705 -66 c-3 -5 -10 -10 -16 -10 -5 0 -9
5 -9 10 0 6 7 10 16 10 8 0 12 -4 9 -10z m112 -76 c-10 -10 -58 37 -50 48 3 6
17 -2 31 -16 14 -14 23 -29 19 -32z m-1802 -19 c-14 -31 -28 -55 -31 -53 -2 3
7 31 22 62 14 32 28 55 30 53 2 -2 -7 -30 -21 -62z m-536 7 c1 -7 -3 -10 -9
-7 -5 3 -10 18 -9 33 0 24 1 25 9 7 5 -11 9 -26 9 -33z m610 2 c-15 -18 -22
-13 -13 10 3 9 10 13 16 10 5 -3 4 -12 -3 -20z m-669 6 c0 -5 -4 -10 -9 -10
-6 0 -13 5 -16 10 -3 6 1 10 9 10 9 0 16 -4 16 -10z m120 -10 c0 -5 -9 -10
-20 -10 -11 0 -20 5 -20 10 0 6 9 10 20 10 11 0 20 -4 20 -10z m-25 -74 l18
-31 -21 19 c-12 11 -22 15 -22 11 0 -5 -5 -4 -11 2 -6 6 -18 9 -25 6 -10 -3
-12 0 -9 10 11 26 51 17 70 -17z m574 -45 c-8 -13 -20 -26 -28 -29 -9 -3 -11
0 -6 7 4 7 1 25 -5 41 -7 16 -10 36 -6 45 4 12 11 10 32 -12 25 -25 26 -29 13
-52z m-519 48 c0 -5 -4 -9 -10 -9 -5 0 -10 7 -10 16 0 8 5 12 10 9 6 -3 10
-10 10 -16z m220 -18 c-5 -11 -15 -23 -20 -26 -16 -10 -11 -48 10 -75 11 -14
20 -32 20 -41 0 -23 26 -42 50 -36 11 3 20 0 21 -6 0 -7 2 -19 4 -27 2 -8 8
-39 13 -68 5 -28 16 -60 26 -70 18 -21 22 -77 5 -88 -8 -4 -7 -9 2 -14 7 -5
14 -17 15 -27 10 -85 11 -102 4 -98 -4 3 -11 26 -15 52 -4 26 -16 58 -26 72
-15 19 -17 26 -7 33 10 7 10 8 -2 7 -35 -4 -47 3 -65 37 -24 45 -119 144 -137
144 -8 0 -31 9 -52 19 -21 11 -45 17 -54 13 -14 -5 -15 -3 -5 9 6 8 13 25 15
39 1 14 8 25 15 25 6 0 15 3 19 8 4 4 3 7 -3 7 -7 0 -7 15 -2 43 4 23 8 45 9
50 0 4 24 7 54 7 30 0 58 5 61 11 4 6 13 8 21 5 7 -3 16 -1 19 4 11 18 16 10
5 -9z m454 -6 c-4 -8 -10 -15 -15 -15 -4 0 -6 7 -3 15 4 8 10 15 15 15 4 0 6
-7 3 -15z m1629 -16 c26 -17 47 -37 47 -44 0 -22 -37 -24 -56 -4 -9 11 -19 17
-22 14 -11 -11 -42 18 -42 40 0 33 17 32 73 -6z m-2278 -43 c-4 -25 -12 -46
-17 -46 -9 0 -5 34 9 83 9 34 15 9 8 -37z m385 44 c0 -5 -3 -10 -7 -10 -5 0
-18 -3 -30 -6 -13 -4 -23 -2 -23 4 0 9 9 13 53 21 4 0 7 -3 7 -9z m-145 -40
c3 -5 1 -10 -4 -10 -6 0 -11 5 -11 10 0 6 2 10 4 10 3 0 8 -4 11 -10z m-290
-10 c3 -6 -1 -13 -10 -16 -19 -8 -30 0 -20 15 8 14 22 14 30 1z m535 -50 c0
-10 -7 -23 -16 -31 -8 -7 -13 -21 -11 -31 6 -20 -17 -48 -38 -48 -16 0 -28 27
-15 35 23 14 29 42 14 70 -8 15 -13 28 -12 29 2 1 12 6 23 12 16 9 24 9 38 -4
9 -8 17 -23 17 -32z m1060 28 c14 -9 63 -29 110 -44 47 -15 101 -40 121 -56
20 -15 44 -28 53 -28 29 0 144 -59 160 -82 25 -35 0 -51 -26 -15 -11 15 -27
27 -36 27 -10 0 -30 7 -46 15 -33 17 -62 19 -71 5 -10 -17 -23 -11 -30 13 -15
48 -77 87 -124 78 -7 -1 -30 11 -51 28 -33 26 -120 54 -120 38 0 -3 25 -19 55
-36 30 -17 55 -36 55 -41 0 -6 -18 2 -40 16 -34 23 -54 28 -135 32 -52 2 -95
9 -95 13 0 10 3 10 69 13 25 0 46 6 48 13 5 15 -38 27 -65 18 -11 -3 -24 -1
-28 6 -11 19 165 7 196 -13z m-235 -5 c-11 -10 -28 -26 -37 -36 -18 -19 -18
-19 -18 2 0 14 11 26 33 35 43 19 45 19 22 -1z m-645 -38 c19 -21 26 -33 15
-25 -32 23 -55 48 -55 61 0 7 1 10 3 8 1 -2 18 -22 37 -44z m-270 31 c0 -13
-65 -42 -86 -38 -40 7 -28 30 19 35 23 2 48 4 55 5 6 1 12 0 12 -2z m1728 -2
c39 -11 24 -19 -31 -17 -77 2 -87 5 -42 13 22 4 42 8 45 8 3 1 15 -1 28 -4z
m-629 -69 c14 -4 36 -18 50 -31 14 -13 49 -31 78 -40 60 -19 70 -28 53 -49
-16 -20 -5 -61 25 -91 28 -28 18 -37 -30 -28 -25 4 -42 1 -60 -10 -32 -21 -33
-41 -2 -31 47 14 80 14 100 0 12 -8 30 -15 40 -15 16 0 18 6 15 30 -3 18 0 31
8 34 17 6 28 -10 13 -19 -14 -9 -3 -56 18 -72 18 -14 43 -6 43 13 0 24 17 15
24 -12 5 -19 11 -24 25 -19 30 9 36 -14 11 -41 l-23 -24 -25 27 c-22 24 -25
25 -34 9 -5 -9 -8 -27 -6 -39 2 -17 9 -21 27 -19 20 3 22 1 16 -15 -18 -43
-17 -65 4 -93 11 -16 21 -34 21 -39 0 -6 8 -14 18 -20 13 -8 14 -12 5 -22 -19
-19 -61 25 -69 70 -10 60 -12 65 -29 51 -26 -22 -18 -71 17 -107 38 -39 31
-54 -11 -24 -20 15 -31 32 -35 59 -6 39 -2 84 8 101 10 15 -13 24 -29 11 -8
-7 -15 -21 -15 -31 0 -25 -12 -24 -28 1 -21 34 -82 20 -82 -19 0 -8 12 -28 27
-43 l27 -28 -26 0 c-14 0 -31 -7 -38 -15 -9 -11 -16 -12 -26 -4 -9 7 -19 7
-33 -1 -15 -8 -27 -8 -41 0 -23 12 -27 35 -5 26 8 -3 15 -1 15 4 0 4 -13 11
-30 15 -40 9 -38 23 3 27 30 3 32 6 38 48 5 32 2 53 -10 73 -15 26 -15 30 2
58 21 38 13 55 -16 34 -12 -8 -28 -15 -37 -15 -16 1 -71 104 -70 133 0 11 -11
22 -30 28 -16 6 -30 15 -30 20 0 5 -15 26 -33 46 -43 48 -56 72 -50 93 4 14
18 16 101 15 53 -1 108 -6 121 -10z m812 -6 c11 -11 18 -23 16 -26 -8 -8 -44
15 -51 32 -8 22 10 19 35 -6z m-1945 -33 c-7 -28 15 -51 42 -44 10 3 23 -1 30
-8 9 -10 19 -11 39 -3 33 12 41 4 20 -19 -21 -23 -22 -52 -2 -52 11 0 15 -11
15 -40 0 -44 19 -61 44 -41 12 10 15 -6 19 -101 3 -62 8 -125 12 -140 9 -32
-10 -39 -20 -8 -3 11 -12 20 -20 20 -18 0 -51 49 -53 80 0 13 -10 31 -22 40
-16 12 -22 33 -30 96 -11 99 -26 137 -52 128 -20 -6 -35 21 -38 72 -3 40 -2
44 11 44 7 0 9 -9 5 -24z m1317 10 c18 -7 48 -31 68 -53 32 -37 41 -41 98 -48
52 -6 70 -13 101 -41 21 -19 45 -34 54 -34 21 0 21 -14 0 -31 -14 -11 -19 -10
-35 10 -16 19 -22 21 -34 11 -13 -10 -19 -8 -40 14 -24 26 -55 35 -55 16 0 -6
8 -14 18 -17 18 -7 41 -32 42 -45 0 -18 -28 -6 -63 27 -41 38 -67 44 -87 20
-21 -26 -33 -17 -27 19 4 22 1 36 -6 39 -8 3 -6 11 7 26 19 21 19 21 -4 46
-14 15 -35 25 -51 25 -15 0 -35 3 -45 7 -16 6 -16 7 2 14 10 4 20 8 22 8 1 1
17 -5 35 -13z m-1733 -11 c16 -20 13 -22 -34 -26 -45 -4 -61 16 -24 30 33 14
44 13 58 -4z m754 -41 c4 -10 13 -13 26 -9 15 5 18 3 14 -9 -5 -12 -11 -13
-29 -4 -24 11 -42 38 -26 38 5 0 12 -7 15 -16z m1980 -34 c47 -20 61 -38 27
-35 -16 1 -92 55 -78 55 3 0 26 -9 51 -20z m-1839 -48 c-3 -3 -11 0 -18 7 -9
10 -8 11 6 5 10 -3 15 -9 12 -12z m1769 -3 c5 -4 -15 -6 -45 -4 -69 5 -69 5
-39 15 27 8 69 3 84 -11z m242 -49 c22 -33 24 -43 14 -55 -7 -8 -10 -22 -6
-30 12 -31 -14 -3 -33 34 -12 26 -15 44 -9 55 5 9 6 21 3 26 -3 6 -4 10 -1 10
3 0 18 -18 32 -40z m-2996 20 c-9 -4 -62 -14 -120 -20 -57 -6 -116 -18 -132
-26 -34 -18 -37 -10 -4 11 13 9 57 22 98 29 87 16 181 20 158 6z m163 3 c84
-8 88 -21 5 -18 -122 4 -129 5 -123 15 7 12 25 12 118 3z m172 -25 c14 -6 25
-15 25 -19 0 -9 -71 9 -84 22 -14 13 28 11 59 -3z m2405 -2 c24 -14 24 -14
-10 -12 -34 3 -130 -40 -130 -56 0 -5 -7 -8 -16 -8 -29 0 -8 24 52 57 67 37
70 38 104 19z m-1805 -6 c3 -5 1 -10 -4 -10 -6 0 -11 5 -11 10 0 6 2 10 4 10
3 0 8 -4 11 -10z m1937 -17 c10 -9 18 -21 18 -28 0 -6 17 -27 38 -46 21 -19
46 -48 57 -66 10 -17 26 -34 36 -36 12 -3 19 -20 24 -67 5 -47 13 -67 31 -83
15 -13 20 -24 15 -31 -20 -24 -39 -115 -32 -148 10 -47 4 -1307 -8 -1403 -5
-44 -6 -143 -2 -220 4 -94 1 -185 -8 -276 -12 -112 -12 -166 -3 -295 25 -335
37 -1324 17 -1324 -5 -1 -12 9 -13 21 -3 18 -8 20 -33 15 -16 -3 -29 -2 -29 3
0 38 -311 71 -354 38 -19 -14 -19 -16 -2 -41 16 -25 22 -27 69 -23 29 3 103 0
165 -5 85 -7 117 -6 128 3 11 9 14 8 14 -10 0 -11 5 -21 11 -21 6 0 9 -7 5
-15 -3 -9 0 -15 9 -15 8 0 15 8 15 17 0 9 3 14 6 10 4 -3 4 -17 0 -31 -4 -17
-11 -23 -24 -19 -12 3 -22 -3 -29 -19 -8 -16 -12 -18 -12 -7 -1 9 -8 19 -16
23 -8 3 -15 12 -15 21 0 25 -68 45 -159 48 -104 2 -136 -10 -119 -48 10 -22
16 -24 82 -22 39 1 93 -2 119 -7 40 -6 46 -10 37 -22 -10 -11 -9 -15 4 -20 9
-3 14 -10 11 -14 -9 -15 14 -21 35 -10 17 9 20 8 20 -13 0 -19 -7 -25 -37 -33
-35 -8 -38 -12 -35 -41 2 -17 -1 -34 -6 -37 -12 -7 -2 -67 13 -72 6 -3 24 0
38 5 17 7 27 7 27 1 0 -6 0 -13 0 -17 0 -4 -16 -6 -36 -4 -19 1 -41 -2 -48 -8
-10 -9 -15 -8 -19 3 -4 9 -14 13 -29 9 -16 -3 -19 -2 -10 5 8 5 12 18 11 28
-2 11 4 30 14 44 26 38 21 57 -15 51 -4 0 -28 6 -54 15 -25 8 -48 13 -51 10
-21 -20 -177 287 -263 519 -13 33 -26 69 -30 80 -5 11 -13 35 -20 53 -14 37
-17 38 -50 13 l-24 -19 -14 36 c-48 131 -78 318 -61 382 2 8 -2 14 -10 15 -17
0 -24 14 -44 83 -15 51 -12 63 10 41 9 -9 23 -9 58 1 49 14 62 29 50 58 -5 9
-7 24 -6 34 1 9 -8 23 -21 32 -17 12 -18 16 -6 16 8 0 21 6 27 14 10 12 8 19
-9 36 -19 19 -30 21 -78 16 -32 -3 -58 -5 -59 -5 -9 -2 -1 -61 7 -61 6 0 10
-6 10 -12 0 -7 6 -25 14 -39 12 -23 11 -27 -4 -37 -30 -19 -51 80 -91 433 -12
109 -45 298 -65 380 -30 118 -43 196 -30 192 6 -2 13 -17 16 -33 5 -27 9 -29
53 -32 63 -4 106 29 60 45 -46 16 -53 33 -53 123 0 84 -8 110 -36 110 -6 0
-19 -15 -28 -32 -9 -19 -16 -26 -16 -16 0 33 -28 48 -78 41 -57 -7 -66 -14
-57 -43 5 -17 13 -21 31 -17 21 4 24 1 18 -17 -10 -35 -33 -66 -49 -66 -8 0
-21 12 -29 28 -16 31 -48 63 -68 66 -36 5 -52 36 -19 36 24 0 33 13 25 34 -4
10 -22 16 -52 18 -27 2 -47 8 -50 16 -3 9 4 13 19 12 44 -4 59 0 59 14 0 16
-42 46 -79 56 -14 3 -28 15 -29 24 -3 16 2 18 37 14 43 -4 54 6 40 33 -5 9 -7
31 -4 48 4 37 -10 42 -19 6 -5 -19 -13 -25 -35 -25 -32 0 -31 -1 -47 130 -4
36 -12 60 -25 70 -19 16 -39 113 -38 186 1 111 -11 344 -20 379 -6 22 -11 52
-11 68 0 25 2 26 23 15 25 -15 41 -36 43 -58 1 -8 6 -42 12 -75 6 -33 14 -112
17 -175 10 -175 13 -204 31 -255 8 -26 17 -71 18 -101 1 -33 8 -59 19 -71 9
-11 17 -23 17 -27 0 -4 15 -23 34 -42 59 -61 91 -17 49 68 -39 81 -36 85 55
76 42 -4 102 -5 132 -2 53 5 132 33 143 51 3 5 -3 33 -13 63 -18 52 -20 55
-50 52 -17 -2 -52 1 -78 7 -26 5 -77 13 -113 16 -65 6 -67 7 -71 36 -5 34 1
36 77 14 32 -10 81 -15 122 -13 60 3 68 5 68 23 0 16 -10 22 -52 30 l-53 10
35 11 c21 7 38 7 41 2 3 -5 11 -5 18 1 10 8 16 -2 25 -45 11 -48 16 -55 34
-52 15 2 25 14 32 36 21 72 28 28 21 -139 -8 -182 5 -341 30 -368 22 -24 24
-8 9 65 -15 72 -21 213 -7 200 4 -4 13 -42 20 -84 25 -151 27 -158 35 -139 4
10 0 73 -8 140 -10 87 -13 152 -7 225 5 72 4 117 -5 150 -7 30 -10 80 -6 139
6 94 -3 137 -35 175 -14 16 -16 16 -37 0 -23 -16 -23 -21 -18 -117 4 -69 2
-97 -5 -90 -6 6 -13 50 -17 98 -3 48 -9 95 -12 103 -3 8 -2 25 1 39 5 21 10
24 26 15 10 -5 27 -10 38 -10 11 0 27 -11 36 -25 9 -14 23 -25 31 -25 8 0 19
-9 25 -20 8 -14 19 -19 42 -17 45 3 71 50 77 141 1 5 12 -1 25 -13 27 -25 46
-21 46 10 0 10 7 19 15 19 21 0 21 128 0 156 -23 30 -18 61 20 116 35 53 37
73 4 63 -27 -9 -24 4 16 53 19 24 37 54 40 65 14 49 31 68 86 97 31 16 76 32
98 36 23 4 41 10 41 15 0 13 31 39 47 39 9 0 25 -7 35 -17z m-2062 -53 c0 -22
-4 -40 -8 -40 -7 0 -9 63 -3 78 6 13 11 -6 11 -38z m650 -6 c0 -6 21 -15 47
-20 59 -11 75 -40 17 -30 -53 10 -88 37 -92 72 -3 28 -3 28 12 9 8 -11 16 -25
16 -31z m650 -7 c0 -18 -5 -39 -10 -47 -7 -11 -10 0 -10 38 0 33 4 51 10 47 6
-3 10 -21 10 -38z m100 33 c0 -5 -4 -10 -10 -10 -5 0 -10 5 -10 10 0 6 5 10
10 10 6 0 10 -4 10 -10z m-238 -22 c-7 -7 -12 -8 -12 -2 0 14 12 26 19 19 2
-3 -1 -11 -7 -17z m196 -24 c-1 -13 -13 -36 -26 -52 -13 -15 -21 -20 -19 -11
3 9 9 37 12 63 6 38 10 44 21 35 7 -6 13 -22 12 -35z m92 1 c11 -13 9 -15 -13
-13 -16 1 -23 7 -20 15 7 17 18 16 33 -2z m-2205 -68 c1 -60 -10 -69 -29 -23
-8 19 -24 39 -35 46 -30 15 -20 25 25 25 l38 0 1 -48z m-114 30 c-8 -11 -5
-19 14 -37 28 -27 32 -40 10 -40 -8 0 -22 16 -31 35 -17 37 -32 43 -53 23 -11
-11 -13 -10 -9 2 4 13 34 27 67 29 10 1 11 -2 2 -12z m269 4 c0 -5 -6 -14 -14
-21 -8 -6 -17 -21 -19 -33 -2 -12 -5 -3 -6 21 -1 36 2 42 19 42 11 0 20 -4 20
-9z m1019 -45 c-19 -18 -30 -21 -54 -16 l-30 8 31 1 c30 1 56 20 53 37 -4 22
3 27 12 10 9 -15 7 -23 -12 -40z m-987 -14 c-5 -23 -27 -40 -38 -29 -4 3 1 16
10 29 9 12 16 32 17 43 0 19 1 19 8 1 4 -11 5 -30 3 -44z m1963 28 c17 -32 19
-50 7 -50 -11 0 -42 66 -35 74 10 9 12 8 28 -24z m-1290 7 c16 -13 15 -14 -13
-9 -18 2 -32 8 -32 13 0 13 24 11 45 -4z m-539 -34 c-11 -11 -17 4 -9 23 7 18
8 18 11 1 2 -10 1 -21 -2 -24z m434 -60 c0 -35 -4 -63 -9 -63 -10 0 -18 68
-13 119 6 57 22 15 22 -56z m1261 39 c-21 -40 -14 -66 15 -55 8 3 14 1 14 -5
0 -10 36 -26 83 -36 20 -5 27 -12 27 -31 0 -14 -4 -25 -10 -25 -5 0 -10 9 -10
19 0 23 -16 37 -23 19 -3 -10 -8 -10 -22 2 -9 8 -38 17 -64 20 -46 5 -46 5
-44 42 1 23 11 49 25 67 31 38 34 32 9 -17z m233 32 c10 -27 7 -34 -19 -34
-23 0 -24 2 -13 25 13 29 23 32 32 9z m-2414 -26 c0 -5 -4 -8 -10 -8 -5 0 -10
10 -10 23 0 18 2 19 10 7 5 -8 10 -18 10 -22z m1621 -24 c25 -25 61 -75 79
-110 40 -80 114 -164 144 -164 38 0 43 -14 30 -100 -12 -84 -20 -103 -33 -82
-4 7 -36 16 -72 19 -78 7 -115 24 -137 65 -10 17 -30 46 -45 64 -28 33 -30 33
-87 27 -53 -5 -58 -4 -65 16 -4 13 -5 24 -3 27 3 2 39 7 81 10 42 4 77 10 77
14 0 14 -31 20 -106 20 l-75 0 3 28 3 27 83 0 c54 0 82 4 82 11 0 18 -34 23
-114 17 -69 -5 -75 -4 -86 16 -6 13 -10 24 -8 25 23 12 75 23 128 25 67 2 96
15 71 30 -17 11 -172 2 -185 -10 -16 -14 -26 -10 -26 9 0 35 24 52 85 61 95
15 122 8 176 -45z m939 6 c0 -4 -7 -10 -15 -14 -11 -4 -15 2 -15 21 0 21 2 24
15 13 8 -7 15 -16 15 -20z m-265 -18 c-8 -9 -25 20 -18 31 3 5 10 2 15 -7 6
-10 7 -20 3 -24z m-1285 -2 c12 -8 11 -10 -7 -10 -13 0 -23 5 -23 10 0 13 11
13 30 0z m290 -10 c0 -13 -11 -13 -30 0 -12 8 -11 10 8 10 12 0 22 -4 22 -10z
m965 -1 c11 -17 -1 -21 -15 -4 -8 9 -8 15 -2 15 6 0 14 -5 17 -11z m-1951 -7
c2 -4 -4 -19 -15 -32 l-19 -25 0 33 c0 30 21 45 34 24z m1463 -18 c-7 -8 -67
8 -62 17 3 4 19 3 36 -3 16 -6 28 -12 26 -14z m-1722 -10 c0 -15 8 -31 17 -37
25 -17 33 -1 14 27 -19 30 -20 36 -3 36 6 0 18 -13 25 -29 12 -27 11 -33 -10
-65 -23 -37 -50 -52 -68 -41 -15 9 -2 25 21 25 25 0 24 12 -6 56 -30 44 -31
54 -7 54 13 0 18 -8 17 -26z m1117 -27 c0 -33 -6 -51 -21 -66 -27 -27 -27 -39
1 -43 13 -2 24 -11 26 -21 3 -15 0 -16 -25 -5 -40 17 -57 35 -58 60 0 14 -13
31 -34 45 -28 19 -30 23 -13 23 11 0 27 -9 35 -21 10 -13 23 -19 38 -17 19 2
24 10 26 38 6 75 25 80 25 7z m1173 43 c-3 -5 -11 -10 -16 -10 -6 0 -7 5 -4
10 3 6 11 10 16 10 6 0 7 -4 4 -10z m-2004 -52 c-26 -28 -27 -42 -1 -35 13 3
20 0 20 -10 0 -10 -6 -13 -16 -9 -9 3 -27 6 -40 6 -13 0 -24 4 -24 8 0 16 75
88 78 75 2 -7 -6 -22 -17 -35z m2034 29 c-4 -15 -1 -28 9 -36 23 -19 20 -34
-9 -48 -26 -11 -33 -5 -15 13 8 8 7 19 -1 37 -12 27 -7 57 11 57 6 0 8 -10 5
-23z m-383 -34 c18 -24 27 -46 23 -53 -5 -8 -12 -2 -21 18 -7 17 -24 38 -38
47 -29 19 -35 38 -10 33 9 -2 30 -22 46 -45z m-1964 -38 c-2 -1 -13 -6 -25 -9
-22 -7 -23 -4 -23 40 l0 47 25 -38 c15 -20 25 -39 23 -40z m1290 34 c-3 -28 5
-38 40 -56 2 0 -2 -10 -9 -21 -11 -18 -10 -24 4 -40 21 -23 21 -36 3 -51 -11
-9 -16 -6 -24 17 -12 36 -58 49 -84 25 -10 -9 -18 -11 -18 -6 0 6 -3 23 -6 39
-5 28 -4 29 33 29 31 0 39 4 41 22 5 31 -28 47 -56 27 -20 -14 -22 -14 -22 4
0 16 10 22 48 30 26 5 48 10 50 11 1 0 1 -13 0 -30z m-1137 -171 c0 -106 0
-202 0 -213 -1 -87 -3 -115 -6 -115 -2 0 -13 15 -24 33 -39 62 -71 88 -105 87
-56 -3 -56 -3 -56 54 0 44 4 56 23 69 l22 15 -23 18 c-16 14 -24 34 -29 72
l-6 53 44 -2 c52 -3 85 12 95 43 8 26 45 77 56 77 4 1 8 -86 9 -191z m595 5
c0 -130 4 -200 13 -227 15 -44 21 -155 8 -163 -4 -3 -13 -16 -18 -30 -5 -14
-11 -24 -13 -22 -2 2 -7 81 -10 174 -3 94 -8 188 -10 210 -18 169 -18 205 -2
205 9 0 16 8 16 20 0 11 4 20 8 20 4 0 8 -84 8 -187z m1449 157 c9 -27 -5 -48
-17 -26 -5 9 -16 16 -23 16 -8 0 -15 7 -15 15 0 23 47 19 55 -5z m328 -16 c-7
-19 -23 -7 -23 18 0 17 3 18 14 8 8 -6 12 -18 9 -26z m-292 -68 c-12 -12 -21
-27 -21 -33 0 -6 -7 -16 -16 -24 -8 -7 -13 -21 -11 -30 5 -19 -19 -47 -29 -36
-10 9 28 110 46 127 10 9 23 27 31 40 l14 25 3 -23 c2 -14 -5 -33 -17 -46z
m-57 19 c-6 -16 -24 -21 -24 -7 0 11 11 22 21 22 5 0 6 -7 3 -15z m-1834 -74
c0 -31 -5 -62 -12 -69 -8 -8 -8 -15 2 -27 12 -15 16 -97 5 -115 -10 -16 -72
-12 -79 5 -6 18 -7 265 -1 275 3 5 23 3 45 -2 l40 -10 0 -57z m1461 66 c-1
-12 -15 -9 -19 4 -3 6 1 10 8 8 6 -3 11 -8 11 -12z m109 -7 c14 -11 19 -20 12
-20 -19 0 -52 19 -52 30 0 15 12 12 40 -10z m66 -17 c-11 -11 -19 6 -11 24 8
17 8 17 12 0 3 -10 2 -21 -1 -24z m427 -69 c-4 -27 -11 -34 -35 -39 -16 -4
-32 -5 -35 -2 -4 5 22 64 52 119 9 16 11 15 17 -13 3 -18 4 -47 1 -65z m-1358
66 c14 -6 16 -9 5 -10 -8 -1 -27 -4 -42 -6 -27 -3 -35 5 -21 19 8 9 33 8 58
-3z m845 -15 c7 -8 27 -15 46 -15 18 0 45 -5 61 -12 15 -6 47 -14 71 -17 23
-3 44 -10 45 -16 3 -15 -54 -14 -84 1 -15 8 -45 16 -68 20 -39 6 -41 5 -41
-19 0 -14 7 -28 18 -32 15 -6 16 -8 1 -18 -11 -9 -18 -38 -23 -102 -12 -144
-26 -127 -26 32 0 156 -6 172 -54 153 -20 -7 -26 -6 -26 5 0 31 59 46 80 20z
m190 3 c0 -11 -12 -10 -30 2 -12 7 -10 9 8 7 12 0 22 -5 22 -9z m210 -23 c0
-9 -6 -18 -14 -21 -8 -3 -17 -23 -21 -44 -4 -21 -13 -46 -21 -57 -14 -17 -15
-16 -8 7 25 93 64 163 64 115z m187 -42 c-3 -10 -5 -2 -5 17 0 19 2 27 5 18 2
-10 2 -26 0 -35z m-1213 9 c5 -3 1 -9 -8 -14 -41 -23 -2 -53 60 -46 22 2 28 7
26 22 -3 18 -2 18 14 5 16 -13 17 -12 10 14 -4 16 -2 27 4 27 5 0 10 -11 10
-24 0 -14 5 -28 10 -31 6 -3 10 -17 10 -30 0 -23 -1 -23 -30 -9 -22 11 -34 12
-49 5 -11 -6 -26 -8 -34 -6 -18 7 -39 -18 -31 -38 6 -18 76 -27 117 -16 23 6
27 5 27 -12 0 -16 -7 -19 -54 -19 -35 0 -58 -5 -66 -15 -19 -23 5 -45 50 -45
48 0 70 -8 70 -26 0 -11 -16 -14 -63 -14 -64 0 -90 -12 -80 -36 5 -15 107 -39
129 -30 8 3 14 -1 14 -9 0 -11 -13 -14 -51 -13 -35 0 -56 -4 -67 -16 -24 -23
-4 -38 60 -43 29 -2 59 -6 67 -9 27 -9 -5 -25 -63 -31 -98 -10 -87 -57 12 -59
51 0 57 -3 60 -22 3 -20 -1 -22 -38 -22 -47 0 -80 -14 -80 -35 0 -13 27 -21
94 -27 16 -2 31 -9 34 -15 3 -9 -13 -13 -55 -14 -88 -2 -88 -2 -88 -29 0 -20
6 -25 40 -32 22 -5 55 -7 73 -5 17 3 32 3 32 2 0 -2 3 -11 7 -21 6 -15 1 -17
-49 -11 -62 8 -96 -8 -85 -38 5 -13 15 -16 37 -13 17 3 30 1 30 -3 0 -5 15
-12 33 -17 27 -7 33 -13 35 -40 3 -28 0 -32 -22 -32 -41 0 -76 -18 -76 -39 0
-21 32 -37 50 -26 6 4 22 4 36 1 20 -5 25 -12 22 -34 -3 -25 -6 -27 -60 -30
-32 -2 -58 -7 -58 -12 0 -6 5 -10 11 -10 5 0 8 -4 4 -10 -9 -15 18 -50 40 -50
17 0 17 -2 5 -10 -8 -6 -27 -7 -42 -4 -21 4 -28 2 -28 -10 0 -9 4 -16 10 -16
5 0 7 -6 4 -14 -6 -16 46 -48 68 -42 7 2 26 7 41 11 25 5 28 3 25 -17 -3 -21
-7 -23 -60 -20 l-58 2 0 -30 c0 -17 4 -30 8 -30 4 0 8 -12 7 -27 0 -36 58 -77
98 -69 22 4 27 2 27 -13 0 -22 -39 -35 -80 -26 -39 9 -46 -10 -16 -40 17 -17
36 -25 61 -25 19 0 35 -4 35 -10 0 -6 -29 -10 -66 -10 -62 0 -65 -1 -62 -22 4
-29 49 -51 105 -52 24 -1 43 -4 43 -7 0 -10 -78 -20 -105 -13 -36 9 -33 -21 6
-57 24 -22 41 -29 71 -29 27 0 38 -4 36 -12 -6 -16 -73 -29 -115 -21 -30 5
-33 3 -33 -19 0 -19 10 -29 48 -46 l47 -22 -36 4 c-45 5 -62 -5 -57 -35 2 -17
15 -28 48 -41 l45 -17 -48 0 c-35 -1 -49 -5 -54 -18 -8 -20 30 -53 60 -53 28
0 10 -17 -23 -22 -17 -2 -26 -10 -28 -25 -5 -31 36 -46 111 -41 31 2 57 1 57
-4 0 -9 -30 -12 -114 -9 -55 2 -75 -6 -76 -31 0 -16 70 -40 133 -45 37 -3 67
-10 67 -14 0 -5 -40 -9 -90 -9 -89 0 -90 0 -90 -25 0 -36 47 -57 121 -54 32 1
62 -1 66 -4 8 -9 -7 -11 -97 -11 -68 -1 -75 -3 -75 -21 0 -11 9 -24 21 -30 18
-9 19 -13 8 -23 -39 -36 3 -66 94 -66 79 0 66 -18 -15 -20 -52 -1 -58 -3 -61
-24 -3 -18 4 -26 32 -37 19 -8 54 -15 76 -15 22 0 40 -4 40 -10 0 -13 -44 -23
-69 -15 -14 4 -23 0 -31 -16 -14 -26 -7 -34 45 -53 l40 -14 -42 -7 c-36 -6
-43 -11 -43 -31 0 -29 32 -47 71 -42 16 3 29 1 29 -3 0 -9 -58 -24 -81 -20
-21 2 -43 -24 -36 -43 8 -21 73 -37 103 -26 13 5 24 6 24 1 0 -12 -60 -32 -72
-25 -13 8 -38 -16 -38 -37 0 -24 43 -42 88 -37 17 2 32 1 32 -3 0 -10 -64 -21
-82 -14 -8 3 -21 -2 -29 -11 -12 -14 -10 -19 16 -41 23 -20 36 -24 67 -20 35
5 38 3 38 -19 0 -24 -24 -36 -64 -31 -27 3 -30 -16 -6 -46 15 -18 31 -27 51
-27 19 0 29 -5 29 -15 0 -9 -6 -15 -12 -13 -7 1 -23 -1 -35 -6 -13 -4 -31 -2
-43 4 -16 9 -25 8 -36 -1 -13 -10 -12 -15 2 -38 9 -14 24 -32 33 -40 10 -8 12
-15 5 -18 -34 -12 -47 -31 -40 -56 5 -23 12 -27 44 -28 27 -1 31 -3 12 -6 -31
-6 -50 -21 -50 -39 0 -21 78 -57 107 -49 18 4 24 2 21 -7 -3 -7 -31 -17 -64
-23 -65 -11 -80 -31 -48 -66 19 -22 83 -26 102 -7 9 9 13 7 18 -5 10 -27 -15
-49 -50 -44 -46 7 -76 -8 -76 -38 0 -29 27 -39 90 -33 32 3 40 0 40 -12 0 -12
-17 -20 -64 -29 -58 -12 -63 -15 -63 -38 0 -31 36 -47 95 -40 35 4 42 2 42
-13 0 -13 -14 -19 -67 -26 -78 -10 -93 -30 -47 -61 25 -16 41 -20 97 -22 9 -1
17 -8 17 -16 0 -12 -14 -15 -69 -15 -55 0 -70 -3 -75 -16 -17 -45 21 -74 100
-74 53 0 59 -18 7 -22 -39 -3 -46 -18 -29 -60 7 -15 3 -15 -46 -4 -49 11 -55
15 -74 56 -19 40 -22 71 -28 255 -4 116 -11 251 -16 300 -5 50 -12 115 -15
145 -10 95 -19 283 -17 339 1 30 -5 77 -13 105 -8 27 -15 86 -15 130 0 45 -7
144 -15 221 -8 77 -15 184 -15 238 0 53 -4 97 -9 97 -15 0 -29 -23 -41 -69 -6
-23 -13 -41 -15 -39 -11 11 -7 632 5 728 10 78 11 164 5 335 -5 127 -9 262
-10 300 -1 92 -13 171 -33 218 -16 36 -18 38 -57 35 -30 -2 -40 1 -40 12 0 9
15 17 43 22 56 9 64 15 56 41 -9 30 -6 29 -53 18 -49 -11 -60 0 -31 29 17 17
31 21 63 18 33 -2 41 0 38 12 -1 8 -6 35 -10 60 -5 37 -10 46 -29 48 -12 2
-22 7 -22 11 0 4 13 6 29 3 30 -4 30 -4 27 44 -3 32 -10 52 -22 61 -16 12 -17
15 -5 23 13 7 13 13 2 37 -8 16 -14 72 -14 135 l-2 107 25 -6 c14 -3 29 -8 34
-11z m-144 -8 c0 -8 -4 -12 -10 -9 -5 3 -10 10 -10 16 0 5 5 9 10 9 6 0 10 -7
10 -16z m959 -30 c2 -2 -2 -10 -9 -19 -10 -12 -10 -15 5 -15 11 0 15 -5 11
-15 -4 -11 1 -15 19 -15 14 0 25 -5 25 -11 0 -14 -112 -6 -150 11 l-25 10 28
-3 c18 -3 27 0 27 9 0 8 7 14 15 14 24 0 17 18 -12 35 -28 15 -28 15 17 8 25
-3 47 -7 49 -9z m-1004 -3 c-16 -14 -125 -24 -125 -11 0 6 4 9 9 5 5 -3 12 -1
16 5 3 5 29 10 58 10 30 0 47 -4 42 -9z m428 -28 c5 -8 17 -11 31 -7 29 7 34
-9 42 -126 4 -65 3 -81 -6 -67 -15 23 -40 22 -40 -2 0 -21 22 -33 45 -25 10 4
13 2 10 -8 -4 -9 -15 -13 -29 -11 -13 3 -26 0 -30 -5 -9 -16 24 -44 45 -39 14
4 19 0 19 -14 0 -16 -3 -17 -19 -8 -28 18 -49 5 -44 -25 3 -14 12 -26 19 -26
8 0 14 -4 14 -10 0 -5 -4 -10 -10 -10 -18 0 -11 -20 8 -21 16 -1 16 -2 0 -6
-21 -5 -23 -14 -6 -31 9 -9 9 -12 -1 -12 -7 0 -9 -4 -6 -10 3 -5 15 -10 26
-10 10 0 19 -4 19 -9 0 -5 -9 -7 -20 -4 -17 4 -20 0 -20 -25 0 -17 6 -33 13
-35 9 -4 8 -8 -3 -16 -12 -8 -12 -11 4 -17 14 -5 15 -9 4 -15 -11 -7 -10 -11
2 -20 11 -8 12 -12 3 -16 -7 -2 -13 -11 -13 -19 0 -8 6 -14 13 -15 10 0 10 -2
0 -6 -16 -6 -17 -59 -3 -68 6 -4 8 -15 5 -26 -4 -13 -2 -19 9 -19 12 0 16 12
18 53 1 45 2 41 9 -28 4 -44 10 -118 13 -165 4 -47 11 -134 16 -195 8 -89 13
-274 11 -332 -1 -7 -8 -10 -16 -7 -17 7 -22 -31 -5 -41 6 -4 8 -16 4 -27 -4
-14 -3 -18 6 -13 6 4 10 16 7 26 -3 11 -1 19 4 19 16 0 10 -132 -7 -165 -16
-31 -12 -88 7 -112 7 -7 6 -14 -1 -18 -15 -9 -12 -45 5 -51 20 -8 19 -24 -1
-24 -25 0 -13 -44 14 -48 27 -4 29 -22 2 -22 -13 0 -20 -7 -20 -20 0 -15 7
-20 25 -20 31 0 33 -17 3 -22 -32 -5 -33 -26 -1 -39 28 -11 28 -11 6 -20 -13
-4 -23 -15 -23 -24 0 -9 10 -20 23 -24 19 -8 20 -10 5 -16 -21 -8 -24 -51 -5
-58 9 -3 9 -7 0 -19 -16 -18 -5 -89 15 -104 13 -9 13 -12 -1 -17 -10 -4 -14
-13 -11 -22 3 -8 10 -13 14 -10 5 3 11 1 15 -5 3 -5 -1 -10 -9 -10 -20 0 -21
-19 -1 -26 12 -5 13 -10 4 -20 -8 -9 -8 -23 0 -46 5 -18 11 -53 12 -78 1 -25
9 -52 16 -62 10 -11 11 -18 4 -23 -14 -8 -14 -55 -1 -55 6 0 5 -8 -2 -21 -11
-17 -10 -22 6 -34 18 -13 18 -15 2 -21 -15 -6 -16 -16 -11 -73 14 -153 25
-225 38 -234 9 -6 9 -10 0 -14 -19 -7 -17 -63 2 -63 19 0 19 -16 0 -24 -16 -6
-10 -34 9 -49 8 -6 7 -10 -1 -14 -18 -7 -16 -38 3 -54 14 -11 14 -13 0 -21
-20 -11 -20 -42 0 -59 14 -11 14 -13 0 -21 -21 -12 -20 -34 2 -43 16 -6 16 -7
0 -16 -22 -12 -23 -29 -3 -29 19 0 19 -14 1 -29 -18 -15 -16 -59 4 -72 13 -8
13 -11 -2 -20 -23 -13 -25 -64 -3 -55 9 3 15 0 15 -9 0 -8 -7 -15 -15 -15 -20
0 -19 -20 3 -36 16 -12 16 -14 -2 -27 -22 -16 -16 -47 9 -47 20 0 19 -10 -2
-26 -17 -13 -17 -15 1 -29 16 -12 17 -17 6 -30 -16 -19 -6 -45 17 -45 17 -1
17 -1 0 -15 -16 -11 -18 -23 -13 -77 3 -35 5 -87 5 -117 0 -31 5 -57 11 -61 9
-5 8 -13 -2 -29 -11 -20 -11 -24 6 -37 11 -8 15 -14 9 -14 -16 0 -25 -31 -13
-45 8 -9 8 -15 0 -20 -14 -9 -12 -35 6 -70 14 -27 14 -31 0 -41 -22 -15 -20
-26 7 -49 19 -17 20 -20 5 -23 -22 -4 -24 -28 -3 -36 8 -3 15 -10 15 -16 0 -6
-4 -8 -10 -5 -16 10 -12 -7 7 -27 16 -18 16 -18 -1 -12 -16 6 -17 3 -11 -27
10 -45 13 -49 30 -42 8 3 15 0 15 -5 0 -6 -9 -12 -21 -14 -21 -3 -21 -3 2 -32
l23 -29 -32 6 c-40 8 -41 -3 -2 -26 32 -19 39 -37 15 -37 -19 0 -19 -10 0 -37
10 -14 12 -24 5 -28 -15 -9 -2 -25 15 -18 8 3 15 0 15 -5 0 -6 -8 -13 -17 -15
-14 -4 -12 -5 5 -6 12 0 22 -6 22 -12 0 -11 -16 -9 -52 6 -11 4 -20 0 -28 -14
-14 -27 -5 -41 26 -41 13 0 24 -5 24 -10 0 -6 -11 -8 -25 -4 -36 9 -31 -8 8
-26 35 -16 35 -35 0 -35 -32 1 -29 -12 8 -34 27 -17 28 -19 10 -24 -14 -3 -18
-11 -14 -25 4 -15 -1 -21 -16 -24 -26 -4 -29 -22 -4 -27 27 -5 43 -21 43 -43
0 -20 -9 -21 -52 -3 -13 5 -18 3 -18 -8 0 -16 22 -38 42 -41 25 -3 38 -17 38
-42 0 -20 -5 -24 -29 -24 -24 0 -28 -3 -24 -20 4 -15 14 -20 39 -20 27 0 34
-4 34 -19 0 -23 -28 -35 -47 -20 -20 18 -24 7 -11 -35 8 -24 20 -41 35 -47 28
-11 29 -25 3 -39 -28 -15 -25 -30 6 -30 l26 0 -27 -36 c-20 -26 -24 -39 -16
-47 6 -6 11 -18 11 -26 0 -8 12 -29 26 -48 l25 -33 -30 -18 c-17 -9 -31 -22
-31 -28 0 -6 -7 -17 -15 -24 -21 -18 -8 -31 22 -24 18 5 24 3 19 -5 -16 -25
-115 -2 -115 27 0 42 -12 354 -16 415 -2 38 0 67 6 67 5 0 9 12 8 28 l-1 27
-8 -25 c-9 -28 -12 21 -16 270 -3 197 -13 439 -23 557 -5 54 -9 147 -10 207
-1 60 -4 113 -7 118 -14 22 -33 304 -39 563 -2 99 -10 252 -19 340 -17 173
-22 366 -12 384 4 6 2 11 -5 11 -8 0 -10 15 -6 50 4 30 2 48 -3 45 -5 -3 -8
14 -7 39 1 24 5 42 10 39 4 -2 7 1 7 6 0 6 -4 11 -8 11 -10 0 -10 0 -16 95 -3
39 -7 102 -10 140 -3 39 -8 104 -12 145 -3 42 -14 147 -25 235 -11 88 -21 186
-24 217 -2 31 -9 66 -15 77 -6 12 -9 25 -6 29 10 16 8 188 -3 252 -5 36 -11
88 -12 115 -1 28 -10 124 -20 215 -9 91 -23 269 -29 395 -6 127 -15 298 -19
382 -6 106 -12 158 -22 170 -12 14 -12 16 0 8 11 -6 13 -1 8 26 -6 31 -10 131
-8 187 1 19 5 21 29 16 15 -4 31 -13 35 -21z m1017 -7 c0 -3 -4 -8 -10 -11 -5
-3 -10 -1 -10 4 0 6 5 11 10 11 6 0 10 -2 10 -4z m-1430 -47 c0 -7 -12 -9 -33
-5 -17 3 -47 2 -65 -3 -17 -5 -32 -6 -32 -1 0 12 26 17 83 19 28 1 47 -3 47
-10z m-200 -56 c-1 -32 -4 -43 -9 -33 -8 14 -4 80 5 80 2 0 4 -21 4 -47z
m1150 26 l55 -6 -67 -2 c-56 -1 -68 2 -68 15 0 10 4 12 13 7 6 -4 37 -11 67
-14z m-953 -14 c3 -9 2 -19 -2 -23 -4 -4 -10 -1 -12 6 -3 6 -13 12 -24 12 -10
0 -19 5 -19 10 0 16 50 11 57 -5z m-125 -17 c-7 -7 -12 -8 -12 -2 0 14 12 26
19 19 2 -3 -1 -11 -7 -17z m1458 -35 c0 -22 -16 -15 -28 12 -17 36 -15 41 8
20 11 -10 20 -24 20 -32z m-600 22 c0 -1 -12 -2 -26 -2 -17 0 -22 2 -13 7 10
7 39 3 39 -5z m41 -168 c5 -111 3 -176 -3 -184 -7 -9 -7 -27 1 -57 14 -55 14
-146 1 -166 -8 -12 -10 -10 -11 10 -4 66 -8 125 -18 245 -6 72 -11 164 -12
205 -1 73 14 140 29 126 4 -4 10 -85 13 -179z m184 163 c4 -6 -7 -10 -27 -10
-25 0 -29 3 -18 10 19 13 37 13 45 0z m-1049 -35 c-11 -6 -22 -21 -24 -33 -3
-21 0 -22 57 -22 53 0 61 -2 61 -19 0 -17 -3 -18 -30 -8 -36 14 -63 1 -68 -30
-3 -20 18 -29 81 -36 9 -1 17 -9 17 -19 0 -16 -3 -17 -21 -6 -17 11 -23 11
-26 0 -3 -7 -20 -19 -39 -27 -50 -21 -40 -65 15 -65 33 0 19 -13 -16 -14 -47
-2 -39 -66 8 -66 11 0 19 -4 19 -10 0 -5 -9 -10 -21 -10 -32 0 -60 -19 -57
-39 2 -10 -2 -24 -9 -32 -7 -8 -10 -25 -6 -37 4 -18 13 -22 45 -22 25 0 37 -4
32 -11 -3 -6 -17 -8 -30 -5 -13 4 -39 0 -58 -8 l-34 -14 -6 49 c-4 27 -11 49
-17 49 -5 0 -7 10 -4 23 7 27 -30 56 -48 38 -6 -6 -14 -11 -17 -11 -11 0 -30
49 -21 54 4 3 8 32 8 64 1 34 8 72 17 91 10 19 14 41 10 54 -6 19 -3 18 16 -6
12 -15 29 -26 37 -25 9 2 18 -2 20 -8 2 -7 -10 -11 -34 -10 -35 1 -38 -2 -41
-27 -4 -35 37 -157 56 -164 18 -8 42 28 36 53 -3 12 -1 25 5 28 6 4 11 23 11
42 0 19 8 49 17 67 12 22 17 58 17 117 l1 85 31 -9 c31 -10 31 -11 10 -21z
m-715 6 c-8 -5 -12 -18 -8 -30 3 -12 1 -21 -4 -21 -5 0 -9 14 -9 30 0 22 5 30
18 30 13 0 14 -2 3 -9z m59 -7 c0 -17 -22 -14 -28 4 -2 7 3 12 12 12 9 0 16
-7 16 -16z m1645 -2 c-3 -3 -11 0 -18 7 -9 10 -8 11 6 5 10 -3 15 -9 12 -12z
m-1931 -27 c14 -22 15 -26 2 -31 -8 -3 -18 -19 -21 -35 -7 -31 -20 -45 -29
-31 -3 5 6 25 20 46 25 36 25 56 -1 56 -8 0 -17 5 -20 10 -14 23 34 8 49 -15z
m1911 15 c3 -5 1 -10 -4 -10 -6 0 -11 5 -11 10 0 6 2 10 4 10 3 0 8 -4 11 -10z
m130 0 c8 -13 -45 -13 -65 0 -11 7 -6 10 22 10 20 0 40 -4 43 -10z m-141 -63
c7 -54 12 -58 78 -55 35 2 62 -1 64 -7 3 -6 -16 -11 -43 -12 -77 -2 -134 -14
-130 -27 2 -6 38 -13 90 -16 47 -3 88 -8 92 -12 8 -7 -86 -29 -97 -22 -4 3
-18 7 -30 9 -50 10 -79 27 -72 44 4 9 6 39 5 68 -2 40 2 54 16 61 22 13 21 14
27 -31z m113 26 c4 -12 -42 -8 -81 7 -15 6 -7 8 28 7 27 -1 51 -7 53 -14z
m-2085 -25 c-7 -7 -12 -8 -12 -2 0 14 12 26 19 19 2 -3 -1 -11 -7 -17z m358
-10 c0 -15 -4 -28 -10 -28 -5 0 -10 8 -10 18 0 10 -4 22 -10 28 -6 6 -3 10 10
10 15 0 20 -7 20 -28z m-230 -19 c0 -5 -7 -9 -15 -9 -9 0 -12 6 -9 15 6 15 24
11 24 -6z m1938 14 c-10 -2 -28 -2 -40 0 -13 2 -5 4 17 4 22 1 32 -1 23 -4z
m49 1 c-3 -3 -12 -4 -19 -1 -8 3 -5 6 6 6 11 1 17 -2 13 -5z m-1827 -14 c0 -5
-2 -10 -4 -10 -3 0 -8 5 -11 10 -3 6 -1 10 4 10 6 0 11 -4 11 -10z m1870 -38
c0 -32 -15 -18 -24 22 -6 26 -5 28 8 17 9 -8 16 -25 16 -39z m-2300 3 c0 -8
-11 -31 -25 -51 l-25 -37 0 38 c0 22 7 46 16 56 18 20 34 17 34 -6z m329 -36
c-23 -23 -33 -21 -23 5 3 9 15 16 25 16 18 0 18 -1 -2 -21z m1418 -31 c-3 -7
-5 -2 -5 12 0 14 2 19 5 13 2 -7 2 -19 0 -25z m7 -43 c3 -8 1 -15 -4 -15 -6 0
-10 7 -10 15 0 8 2 15 4 15 2 0 6 -7 10 -15z m3 -167 c-3 -7 -5 -2 -5 12 0 14
2 19 5 13 2 -7 2 -19 0 -25z m-562 -28 c-3 -5 -10 -10 -16 -10 -5 0 -9 5 -9
10 0 6 7 10 16 10 8 0 12 -4 9 -10z m970 -47 c39 -4 89 -8 112 -8 31 0 43 -4
46 -16 7 -25 -37 -30 -165 -23 -102 7 -108 8 -108 29 0 27 9 37 29 31 9 -3 48
-9 86 -13z m-805 -44 c0 -10 -49 -17 -72 -11 -11 2 -15 8 -10 11 13 8 82 8 82
0z m-217 -79 c4 -14 14 -20 35 -20 17 0 34 -4 37 -10 4 -6 -11 -10 -37 -10
-54 0 -71 -11 -66 -41 2 -19 8 -23 28 -21 14 1 34 -4 44 -11 19 -14 18 -15
-12 -22 -40 -8 -49 -22 -26 -41 18 -14 18 -14 -3 -5 -30 15 -39 -4 -11 -23 12
-9 32 -16 43 -16 11 0 27 -5 35 -10 11 -7 6 -10 -21 -10 -21 0 -42 -7 -50 -16
-12 -15 -14 -15 -19 5 -6 25 -23 29 -26 6 -3 -23 19 -62 34 -57 18 6 15 -15
-4 -22 -10 -4 -14 -16 -12 -38 3 -30 5 -32 48 -35 31 -2 50 -9 63 -24 28 -34
20 -38 -33 -18 -28 10 -64 19 -80 19 -28 0 -30 2 -32 43 -1 23 -1 56 -1 72 7
194 12 293 18 308 10 23 41 22 48 -3z m217 -60 c0 -5 -12 -10 -26 -10 -14 0
-23 4 -19 10 3 6 15 10 26 10 10 0 19 -4 19 -10z m-50 -69 c0 -5 -9 -7 -20 -4
-11 3 -20 7 -20 9 0 2 9 4 20 4 11 0 20 -4 20 -9z m-93 -67 c-3 -3 -12 -4 -19
-1 -8 3 -5 6 6 6 11 1 17 -2 13 -5z m140 0 c-3 -3 -12 -4 -19 -1 -8 3 -5 6 6
6 11 1 17 -2 13 -5z m255 -66 c-9 -9 -15 -9 -24 0 -9 9 -7 12 12 12 19 0 21
-3 12 -12z m-269 -5 c-7 -2 -19 -2 -25 0 -7 3 -2 5 12 5 14 0 19 -2 13 -5z
m287 -183 c0 -5 -4 -10 -10 -10 -5 0 -10 5 -10 10 0 6 5 10 10 10 6 0 10 -4
10 -10z m-435 -21 c13 -14 -25 -30 -55 -24 -29 6 -37 15 -24 28 7 7 71 4 79
-4z m736 -166 c5 -15 14 -117 20 -227 8 -184 26 -391 49 -586 5 -41 16 -136
25 -210 26 -229 47 -340 64 -349 9 -5 30 -12 48 -15 26 -6 32 -4 38 13 4 13
-1 31 -14 48 -22 31 -53 178 -50 240 1 21 -3 58 -9 83 -6 25 -16 93 -23 153
-11 97 -10 109 5 126 12 13 14 24 8 42 -21 54 -23 117 -7 156 14 33 15 52 5
143 -6 58 -10 150 -8 205 l3 100 27 -3 c23 -3 30 2 42 33 13 30 19 35 33 27
15 -9 17 -23 14 -94 -1 -46 3 -113 9 -149 14 -76 17 -102 25 -239 3 -58 12
-159 20 -225 8 -66 19 -165 25 -220 6 -55 22 -134 36 -175 29 -89 75 -176 92
-173 13 3 26 -40 47 -158 20 -114 31 -151 58 -190 20 -29 29 -34 60 -33 40 1
41 0 53 -76 3 -25 24 -88 46 -140 98 -235 158 -327 236 -365 23 -11 43 -27 45
-36 2 -8 21 -23 41 -33 27 -13 36 -23 36 -41 0 -14 -4 -25 -9 -25 -5 0 -8 -14
-7 -32 2 -34 20 -46 69 -47 21 -1 30 5 34 19 8 29 21 25 25 -7 3 -25 7 -28 37
-26 18 1 37 7 41 13 4 7 9 0 12 -19 l5 -31 -50 0 c-40 0 -50 3 -54 20 -4 17
-14 20 -57 20 -29 0 -55 -3 -58 -6 -3 -3 -3 -17 1 -32 6 -23 14 -28 57 -33 43
-5 45 -6 14 -8 -70 -6 -85 -14 -81 -46 1 -17 8 -33 15 -38 17 -11 67 1 99 24
15 11 48 26 73 34 l45 13 -3 -26 c-3 -23 -9 -27 -58 -37 -39 -7 -55 -14 -54
-25 1 -12 -13 -16 -60 -18 -69 -4 -81 -9 -66 -27 6 -7 10 -17 9 -21 -4 -24 3
-34 26 -34 32 0 95 26 95 38 0 6 19 12 43 14 23 3 49 8 58 12 13 6 15 1 11
-23 -4 -28 -7 -30 -51 -33 l-46 -3 3 -37 c4 -40 -12 -52 -23 -17 -6 18 -12 20
-63 13 -67 -7 -81 -17 -61 -40 8 -9 13 -19 12 -21 -2 -1 -3 -8 -3 -14 0 -12
69 -8 104 6 14 6 17 4 14 -11 -2 -15 -14 -20 -60 -24 -62 -6 -74 -12 -62 -32
5 -7 9 -20 9 -28 0 -17 60 -19 128 -5 25 5 37 4 37 -4 0 -6 -3 -10 -7 -10 -42
7 -59 -25 -28 -51 13 -11 13 -15 3 -21 -18 -12 -30 -11 -23 1 3 5 1 19 -5 30
-9 16 -21 20 -60 20 -54 0 -59 -6 -40 -56 10 -25 13 -26 60 -21 45 5 50 4 50
-14 0 -25 29 -35 103 -38 9 -1 17 -7 17 -13 0 -10 -17 -12 -61 -10 -52 3 -62
7 -71 28 -9 20 -18 24 -55 24 -49 0 -59 -12 -43 -55 10 -25 14 -27 50 -22 22
3 40 1 40 -4 0 -5 -20 -9 -43 -9 -24 0 -46 -3 -49 -6 -4 -3 -2 -20 3 -37 6
-20 5 -33 -2 -37 -8 -6 0 -39 17 -68 1 -1 20 1 43 7 32 7 41 6 41 -4 0 -9 -15
-15 -42 -17 -32 -2 -42 -7 -39 -18 2 -8 4 -20 5 -27 1 -7 5 -15 8 -19 4 -3 4
-12 2 -19 -9 -23 16 -57 37 -52 10 3 19 4 19 3 0 -12 -33 -66 -41 -66 -12 0
-12 -47 1 -55 6 -3 10 -15 10 -26 0 -14 -7 -19 -24 -19 -29 0 -39 -12 -30 -35
5 -12 14 -15 31 -10 18 4 24 2 21 -7 -3 -7 -13 -13 -24 -13 -12 0 -20 -8 -22
-22 -3 -20 1 -23 28 -23 18 0 29 -4 25 -10 -3 -5 -19 -10 -35 -10 -34 0 -47
-15 -30 -35 8 -10 18 -11 35 -5 24 9 35 5 35 -15 0 -7 -19 -15 -42 -19 -23 -4
-46 -12 -50 -19 -4 -7 -8 8 -8 33 0 180 -15 615 -25 738 -9 102 -37 140 -65
87 -7 -13 -26 -27 -41 -30 -33 -8 -41 -17 -33 -38 3 -10 17 -15 35 -15 35 1
44 -6 36 -27 -4 -9 -19 -15 -42 -15 -37 0 -46 -15 -22 -39 10 -10 9 -11 -4 -6
-9 3 -21 -1 -28 -8 -18 -23 8 -42 58 -41 37 0 42 -2 39 -20 -3 -20 -8 -22 -67
-25 -19 -1 -22 -5 -17 -25 4 -18 1 -25 -14 -29 -25 -6 -26 -26 -2 -33 9 -3 35
-13 57 -22 l40 -17 -60 -5 c-52 -4 -60 -8 -60 -25 0 -17 8 -21 52 -25 28 -3
55 -8 58 -12 4 -3 -20 -4 -52 -1 -43 4 -62 2 -70 -9 -18 -21 1 -41 36 -40 17
0 33 -4 36 -9 4 -5 -14 -9 -39 -9 -46 0 -66 -14 -48 -32 10 -10 69 -20 120
-20 17 0 22 -6 22 -24 0 -21 -3 -23 -19 -14 -29 15 -87 12 -101 -5 -18 -21 4
-45 41 -45 15 0 30 -3 32 -7 3 -5 -16 -8 -41 -8 -40 0 -47 -3 -47 -20 0 -17 9
-21 59 -27 58 -8 87 -21 73 -34 -4 -4 -18 -2 -32 4 -32 15 -132 16 -140 2 -12
-19 17 -40 54 -40 20 0 42 -4 50 -9 9 -6 -8 -7 -46 -4 -62 6 -78 -2 -67 -30 4
-10 19 -16 42 -15 20 0 54 -7 74 -16 20 -9 43 -13 51 -10 16 6 27 -22 27 -68
0 -30 -1 -31 -24 -22 -14 5 -14 8 0 29 19 29 4 42 -57 53 -77 13 -104 9 -104
-13 0 -15 9 -21 40 -26 22 -4 51 -12 65 -18 21 -8 16 -10 -33 -10 -54 -1 -58
-3 -55 -23 2 -18 10 -22 46 -24 60 -3 66 -14 8 -14 -43 0 -47 -2 -44 -22 2
-16 11 -24 28 -26 14 -1 36 -6 50 -9 21 -6 18 -8 -20 -12 -68 -9 -60 -38 15
-58 28 -7 28 -8 -15 -11 -25 -2 -49 -7 -54 -12 -11 -11 11 -40 30 -40 7 0 28
-10 48 -23 25 -15 35 -29 35 -47 l0 -25 -15 27 c-19 36 -41 47 -113 55 -42 4
-65 2 -76 -7 -8 -7 -15 -9 -15 -5 0 4 7 13 17 20 23 17 10 49 -15 36 -13 -7
-22 -7 -30 1 -21 21 -13 37 20 40 38 4 46 22 47 116 1 88 -27 141 -74 142 -18
0 -20 5 -17 44 3 37 8 45 25 48 27 4 43 62 28 102 -9 22 -15 26 -32 21 -21 -7
-22 -5 -15 33 7 49 0 72 -24 72 -19 0 -43 23 -34 33 4 3 19 3 34 0 26 -5 30
-2 41 35 7 24 8 48 3 59 -4 10 -8 41 -9 68 0 45 -2 50 -24 53 -14 2 -34 10
-45 17 -12 8 -40 17 -63 21 -24 4 -43 10 -43 15 0 11 2 11 55 -2 25 -6 53 -8
62 -4 10 5 22 7 27 6 32 -7 47 55 24 104 -9 19 -19 25 -45 25 -18 0 -33 -5
-33 -10 0 -6 -20 -9 -45 -8 -39 1 -45 4 -45 24 0 20 3 21 38 13 55 -13 82 -11
82 5 0 15 -43 33 -95 39 -18 2 -31 10 -33 21 -3 14 2 16 36 10 66 -10 64 22
-3 43 -18 6 -31 18 -33 29 -2 15 3 19 27 19 42 0 41 17 -3 38 -20 9 -36 24
-36 33 0 12 8 14 46 8 41 -6 46 -5 42 12 -2 13 -16 22 -46 28 -23 6 -42 15
-42 22 0 8 10 9 41 0 33 -8 42 -8 49 4 12 20 -14 40 -51 40 -15 0 -31 5 -34
10 -4 6 6 10 24 10 16 0 33 5 36 10 12 20 -7 50 -38 60 -32 10 -32 10 6 4 29
-4 39 -1 44 12 9 24 -9 47 -46 58 -17 5 -31 12 -31 17 0 4 14 4 31 -1 39 -11
49 -6 49 26 0 16 -7 27 -22 33 -29 10 -51 3 -44 -15 3 -7 1 -16 -3 -19 -11 -6
-21 45 -21 109 0 50 1 52 27 51 19 0 29 6 31 19 5 23 -16 38 -44 31 -19 -4
-22 0 -26 38 -3 23 -6 94 -7 157 -1 63 -3 115 -4 116 -1 1 -12 5 -24 8 -18 6
-22 2 -28 -24 -5 -25 -11 -30 -35 -30 -16 0 -32 -5 -35 -10 -9 -15 22 -60 40
-60 17 0 22 -65 5 -75 -12 -7 -5 -112 9 -129 6 -7 13 -68 16 -137 3 -68 7
-172 10 -232 l5 -107 -24 6 c-33 8 -43 -14 -13 -25 14 -6 28 -15 32 -20 8 -14
-1 -14 -26 0 -15 8 -24 7 -35 -2 -21 -17 -12 -33 22 -39 23 -4 30 -11 32 -34
2 -17 0 -26 -7 -22 -5 4 -8 13 -5 20 3 8 -4 16 -18 20 -39 10 -45 7 -46 -25
-1 -32 -8 -47 -17 -37 -3 3 -8 88 -10 189 -5 187 -7 229 -25 539 -5 96 -9 248
-7 337 1 90 -1 163 -4 163 -3 0 -11 37 -17 82 -7 45 -16 86 -21 91 -5 5 -17
-3 -29 -18 -20 -25 -20 -35 -16 -313 3 -158 12 -363 20 -457 8 -93 15 -280 16
-414 2 -313 2 -310 58 -339 l45 -23 -57 6 c-56 6 -57 6 -64 -21 -10 -41 10
-53 146 -83 l45 -10 -51 4 c-40 4 -54 1 -66 -13 -19 -21 -29 -62 -16 -62 5 0
6 -4 3 -10 -3 -5 -15 -10 -26 -10 -32 0 -20 -40 19 -66 18 -13 28 -25 23 -28
-5 -4 -12 -2 -16 4 -3 5 -18 10 -33 10 -15 0 -32 4 -39 8 -6 4 -16 62 -23 142
-6 74 -15 173 -20 220 -5 47 -12 157 -15 245 -11 349 -16 448 -21 457 -5 8
-19 131 -29 253 -2 28 -7 140 -10 249 -3 110 -9 204 -12 209 -6 9 -8 53 -17
275 -3 73 -7 136 -10 140 -3 6 -5 46 -8 167 0 11 -6 40 -14 65 -21 71 -26 123
-28 315 -3 173 -10 249 -26 270 -4 6 -11 70 -15 143 -6 113 -5 132 8 132 20 0
26 20 20 68 -6 48 4 112 18 112 5 0 14 -12 20 -27z m-341 -143 c0 -5 -2 -10
-4 -10 -3 0 -8 5 -11 10 -3 6 -1 10 4 10 6 0 11 -4 11 -10z m-149 -840 c6 -96
13 -194 15 -218 3 -31 0 -42 -9 -39 -25 8 -38 51 -31 107 3 30 6 117 5 194 0
76 1 137 4 135 2 -2 9 -83 16 -179z m1064 -210 c3 -5 1 -10 -4 -10 -6 0 -11 5
-11 10 0 6 2 10 4 10 3 0 8 -4 11 -10z m-1028 -177 c-3 -10 -5 -2 -5 17 0 19
2 27 5 18 2 -10 2 -26 0 -35z m300 -429 c-3 -3 -12 -4 -19 -1 -8 3 -5 6 6 6
11 1 17 -2 13 -5z m1528 -424 c0 -7 -6 -15 -12 -17 -8 -3 -13 4 -13 17 0 13 5
20 13 18 6 -3 12 -11 12 -18z m-1712 -288 c3 -16 18 -44 33 -62 24 -28 32 -31
63 -27 40 5 81 -3 84 -17 1 -5 -5 -10 -13 -12 -8 -1 -27 -5 -41 -9 -16 -4 -30
-2 -33 4 -4 6 -15 11 -25 11 -30 0 -70 52 -80 103 -4 25 -5 44 -1 42 4 -3 10
-18 13 -33z m242 -52 c3 -5 -1 -10 -10 -10 -9 0 -13 5 -10 10 3 6 8 10 10 10
2 0 7 -4 10 -10z m1495 -140 c0 -11 -7 -20 -15 -20 -8 0 -15 9 -15 20 0 11 7
20 15 20 8 0 15 -9 15 -20z m10 -116 c0 -8 -9 -14 -20 -14 -22 0 -28 26 -7 33
16 6 27 -1 27 -19z m-96 1 c-4 -8 -14 -15 -23 -15 -14 1 -13 3 3 15 25 19 27
19 20 0z m96 -104 c0 -5 -9 -11 -20 -14 -13 -3 -20 0 -20 9 0 8 9 14 20 14 11
0 20 -4 20 -9z m-100 -56 c0 -9 -6 -12 -15 -9 -8 4 -12 10 -9 15 8 14 24 10
24 -6z m-924 -80 c-21 -22 -28 -25 -45 -15 -11 6 -26 20 -32 32 -10 19 -9 20
7 13 44 -18 67 -18 77 1 6 10 12 14 14 7 2 -6 -7 -23 -21 -38z m1016 30 c0 -5
-5 -11 -11 -13 -6 -2 -11 4 -11 13 0 9 5 15 11 13 6 -2 11 -8 11 -13z m-82
-35 c0 -20 -1 -20 -27 -3 -16 9 -30 18 -32 20 -2 2 10 3 27 3 25 0 32 -4 32
-20z m90 -65 c0 -8 -7 -15 -15 -15 -16 0 -20 12 -8 23 11 12 23 8 23 -8z
m-1000 -30 c0 -10 -10 -15 -30 -15 -38 0 -39 17 -2 23 15 2 28 5 30 6 1 0 2
-6 2 -14z m155 -51 c19 -3 40 -14 45 -24 9 -17 7 -17 -47 0 -32 10 -59 23 -61
30 -3 9 1 11 11 7 9 -3 32 -9 52 -13z m755 -8 c0 -20 -118 -27 -125 -8 -3 9 1
12 13 8 9 -2 35 -1 57 4 22 4 43 8 48 9 4 0 7 -5 7 -13z m-900 -56 c0 -5 -7
-10 -16 -10 -8 0 -12 5 -9 10 3 6 10 10 16 10 5 0 9 -4 9 -10z m994 -25 c3 -9
-1 -18 -10 -22 -19 -7 -28 2 -21 22 8 19 23 19 31 0z m-94 -4 c0 -6 -17 -7
-37 -4 -52 8 -54 13 -5 13 23 0 42 -4 42 -9z m-735 -43 c7 -7 2 -9 -15 -4 -14
3 -35 6 -47 6 -13 0 -23 5 -23 11 0 14 70 3 85 -13z m-180 -28 c3 -6 -1 -7 -9
-4 -18 7 -21 14 -7 14 6 0 13 -4 16 -10z m144 -16 c2 -2 -5 -4 -15 -4 -11 0
-25 -5 -32 -12 -9 -9 -12 -7 -12 10 0 19 4 21 28 16 15 -4 29 -8 31 -10z m771
4 c0 -10 -15 -12 -55 -10 -71 5 -71 16 0 20 40 2 55 -1 55 -10z m-716 -13 c6
-17 4 -18 -18 -9 -20 8 -21 24 -2 24 8 0 16 -7 20 -15z m806 -5 c12 -8 11 -10
-7 -10 -13 0 -23 5 -23 10 0 13 11 13 30 0z m-220 -20 c0 -5 -7 -7 -15 -4 -8
4 -15 8 -15 10 0 2 7 4 15 4 8 0 15 -4 15 -10z m-660 -30 c16 0 32 -4 35 -10
4 -6 -10 -10 -34 -10 -36 0 -41 3 -40 23 0 12 3 16 6 10 2 -7 18 -13 33 -13z
m800 -25 c0 -11 -12 -14 -57 -11 -76 5 -73 5 -73 15 0 5 29 9 65 10 51 1 65
-2 65 -14z m-1133 -175 c4 -63 6 -133 3 -155 -4 -27 -8 1 -14 85 -4 69 -9 142
-11 164 -2 21 0 35 5 30 5 -5 12 -61 17 -124z m143 120 c-36 -12 -60 -12 -60
0 0 6 19 10 43 9 36 -1 38 -2 17 -9z m230 0 c11 -7 3 -10 -28 -10 -26 0 -41 4
-37 10 8 13 45 13 65 0z m-160 -15 c16 -19 1 -19 -24 0 -16 12 -17 15 -4 15 8
0 21 -7 28 -15z m899 -19 c-11 -11 -79 -17 -79 -8 0 6 17 12 38 14 37 3 49 1
41 -6z m-706 -36 c13 0 17 -4 12 -9 -6 -5 -34 -7 -62 -4 -43 5 -53 9 -53 24 0
17 3 17 41 4 23 -8 51 -15 62 -15z m-30 -77 c24 -23 23 -47 -2 -33 -11 5 -31
10 -45 10 -21 0 -26 5 -26 26 0 24 3 25 28 19 15 -3 35 -14 45 -22z m857 -13
c0 -5 -7 -7 -15 -4 -8 4 -15 8 -15 10 0 2 7 4 15 4 8 0 15 -4 15 -10z m-168
-42 c-9 -9 -15 -9 -24 0 -9 9 -7 12 12 12 19 0 21 -3 12 -12z m65 1 c-14 -8
-22 -8 -30 0 -8 8 -3 11 19 11 25 -1 27 -2 11 -11z m-758 -40 c21 -6 17 -7
-21 -8 -42 -1 -48 2 -48 19 0 18 3 19 22 9 12 -6 33 -15 47 -20z m447 15 c-3
-9 -6 -18 -6 -20 0 -2 -4 -4 -9 -4 -5 0 -7 9 -4 20 3 11 10 20 15 20 6 0 7 -7
4 -16z m424 -19 c0 -18 -5 -25 -20 -25 -25 0 -27 37 -2 43 9 3 18 5 20 6 1 0
2 -10 2 -24z m-1130 0 c0 -8 -4 -15 -10 -15 -5 0 -10 7 -10 15 0 8 5 15 10 15
6 0 10 -7 10 -15z m245 -57 c14 -6 25 -19 25 -29 0 -15 -4 -16 -37 -7 -38 10
-56 25 -47 40 7 11 29 10 59 -4z m405 -8 c0 -18 -3 -19 -20 -8 -18 12 -19 13
-2 20 9 3 18 7 20 7 1 1 2 -8 2 -19z m375 0 c3 -5 -3 -10 -14 -10 -11 0 -23 5
-26 10 -3 6 3 10 14 10 11 0 23 -4 26 -10z m-62 -7 c-7 -2 -19 -2 -25 0 -7 3
-2 5 12 5 14 0 19 -2 13 -5z m177 -27 c0 -9 -10 -13 -25 -12 -29 1 -33 12 -7
19 29 8 32 7 32 -7z m-315 -31 c40 -9 29 -20 -23 -22 -41 -2 -48 0 -48 17 0
15 6 18 23 15 13 -3 34 -7 48 -10z m-563 -32 c11 -14 10 -15 -7 -10 -11 3 -32
9 -47 13 -27 6 -34 15 -22 27 9 8 61 -12 76 -30z m762 -4 c-3 -5 -10 -7 -15
-3 -5 3 -7 10 -3 15 3 5 10 7 15 3 5 -3 7 -10 3 -15z m126 -41 c0 -10 -4 -18
-10 -18 -5 0 -10 15 -10 33 0 24 3 28 10 17 5 -8 10 -23 10 -32z m-1249 -21
c-8 -8 -11 -3 -11 19 1 25 2 27 11 11 8 -14 8 -22 0 -30z m939 23 c11 -7 3
-10 -28 -10 -36 0 -43 -3 -40 -17 2 -12 14 -19 33 -21 49 -6 54 -22 8 -22 -46
0 -48 1 -58 48 -7 32 -6 32 32 32 21 0 45 -5 53 -10z m-592 -17 c35 -8 26 -23
-10 -17 -49 9 -58 12 -58 25 0 7 8 9 23 4 12 -3 32 -9 45 -12z m-411 -29 c-3
-3 -12 -4 -19 -1 -8 3 -5 6 6 6 11 1 17 -2 13 -5z m1193 -4 c0 -5 -7 -10 -15
-10 -8 0 -15 5 -15 10 0 6 7 10 15 10 8 0 15 -4 15 -10z m-370 -10 c0 -5 -5
-10 -11 -10 -5 0 -7 5 -4 10 3 6 8 10 11 10 2 0 4 -4 4 -10z m-650 -20 c0 -5
-2 -10 -4 -10 -3 0 -8 5 -11 10 -3 6 -1 10 4 10 6 0 11 -4 11 -10z m197 4 c-3
-3 -12 -4 -19 -1 -8 3 -5 6 6 6 11 1 17 -2 13 -5z m943 -14 c0 -13 -7 -20 -20
-20 -25 0 -26 16 -2 29 23 14 22 14 22 -9z m-876 -12 c3 -13 6 -33 6 -44 0
-20 -3 -21 -47 -11 -56 12 -57 13 -49 26 5 7 13 7 25 -1 29 -18 54 -3 47 27
-4 14 -2 25 3 25 5 0 11 -10 15 -22z m584 -24 c41 -12 17 -29 -44 -31 -77 -3
-96 3 -70 23 21 15 74 18 114 8z m186 -18 c-5 -13 -14 -15 -43 -10 -58 11 -60
19 -6 24 60 6 57 7 49 -14z m-1059 -85 c56 -14 98 -17 113 -8 9 6 12 -1 12
-26 0 -30 4 -35 33 -44 23 -7 41 -6 64 4 20 8 34 9 38 3 3 -6 18 -10 33 -10
l27 0 -30 -20 c-47 -31 -55 -35 -139 -76 -96 -48 -176 -118 -176 -157 0 -40
55 -97 94 -97 37 0 178 25 261 47 88 22 184 43 234 49 24 3 61 14 82 25 21 10
52 19 69 19 16 0 30 3 30 8 0 4 14 7 30 8 34 1 68 27 81 61 8 20 13 22 54 16
36 -4 50 -2 66 13 11 10 25 19 32 20 7 1 22 4 35 6 12 3 27 9 33 15 8 8 18 8
30 2 11 -5 28 -13 39 -19 10 -5 37 -12 58 -16 25 -4 53 -19 80 -45 45 -41 53
-66 25 -75 -40 -12 -83 -34 -83 -42 0 -5 11 -21 25 -36 23 -25 34 -66 18 -66
-5 0 -21 9 -38 20 -35 23 -60 25 -96 6 -22 -11 -31 -11 -60 1 -46 20 -157 12
-232 -17 -100 -38 -67 -63 120 -91 40 -6 70 -16 67 -21 -3 -5 -65 -8 -137 -8
-73 1 -337 -2 -588 -6 -347 -5 -458 -4 -463 5 -5 8 -12 9 -19 3 -15 -12 -127
-21 -127 -11 0 25 77 38 98 17 10 -10 14 -8 18 9 3 12 12 24 20 27 8 3 14 10
14 16 0 18 -78 11 -124 -12 -41 -20 -48 -20 -73 -7 -15 8 -34 22 -41 32 -9 11
-21 15 -36 11 -17 -4 -27 1 -40 20 -9 14 -22 25 -29 23 -23 -4 -7 57 21 81 36
31 173 112 189 112 7 0 13 -6 13 -14 0 -9 19 -18 50 -25 40 -9 59 -8 97 5 60
20 73 31 73 59 0 20 5 22 65 24 78 2 115 14 115 37 0 15 -10 16 -95 11 l-95
-6 -1 37 c-1 66 -5 116 -13 142 l-8 25 24 -27 c13 -15 41 -31 63 -37z m305 24
c0 -8 -7 -15 -15 -15 -9 0 -12 6 -9 15 4 8 10 15 15 15 5 0 9 -7 9 -15z m559
-1 c20 -4 31 -12 31 -24 0 -15 -6 -16 -40 -10 -22 4 -59 4 -82 -1 -60 -11 -68
-11 -68 4 0 28 89 45 159 31z m187 -22 c-7 -12 -64 -14 -71 -2 -4 6 10 10 35
10 23 0 39 -4 36 -8z m122 -26 c-6 -39 -68 -28 -68 13 0 14 7 16 36 13 29 -4
35 -8 32 -26z m-301 -40 c51 -1 53 -2 53 -28 0 -33 -12 -36 -31 -8 -11 16 -26
21 -69 22 -30 1 -70 -2 -87 -6 -18 -4 -33 -4 -33 1 0 14 62 30 90 24 14 -2 49
-5 77 -5z m173 -16 c0 -5 -7 -10 -16 -10 -8 0 -12 5 -9 10 3 6 10 10 16 10 5
0 9 -4 9 -10z m-603 -70 c0 -16 -7 -32 -15 -35 -13 -5 -12 -8 2 -24 17 -18 16
-19 -13 -26 -20 -4 -31 -13 -31 -24 0 -17 -33 -51 -49 -51 -5 0 -11 -6 -14
-14 -4 -9 -33 -16 -92 -21 -48 -4 -100 -11 -115 -15 -37 -11 -65 8 -56 38 11
33 112 113 168 131 20 7 42 19 49 27 10 12 23 14 51 10 27 -5 48 -1 75 14 21
11 38 20 39 20 0 0 1 -13 1 -30z m319 16 c-22 -7 -43 -21 -47 -32 -6 -16 -8
-15 -8 8 -1 22 4 27 27 31 53 8 66 5 28 -7z m-116 -32 c0 -14 -4 -23 -10 -19
-5 3 -10 15 -10 26 0 10 5 19 10 19 6 0 10 -12 10 -26z m-740 -28 c0 -8 -4
-18 -10 -21 -5 -3 -10 3 -10 14 0 12 5 21 10 21 6 0 10 -6 10 -14z m1443 -153
c-13 -5 67 -82 117 -111 73 -44 124 -62 170 -62 26 0 63 -7 81 -15 l34 -14
-60 -2 c-33 0 -162 -3 -286 -4 l-226 -4 4 23 c3 16 -3 26 -21 36 -31 16 -21
31 20 30 125 -5 137 -3 156 20 23 28 23 51 -1 82 -19 24 -19 24 2 25 12 0 17
-1 10 -4z m-288 -118 c28 -14 47 -25 44 -25 -4 0 -46 7 -95 16 -49 8 -97 16
-106 17 -10 1 -18 5 -18 9 0 4 28 8 63 8 45 -1 75 -7 112 -25z m-1673 -67 c14
-22 18 -22 52 -10 27 10 41 11 50 3 7 -6 27 -8 43 -5 17 3 33 1 37 -4 7 -12
-207 -21 -284 -12 l-45 5 35 23 c46 29 93 29 112 0z m2458 2 c0 -5 -4 -10 -9
-10 -6 0 -13 5 -16 10 -3 6 1 10 9 10 9 0 16 -4 16 -10z M2808 7399 c-22 -12
-23 -32 -3 -49 9 -8 13 -21 9 -36 -8 -30 18 -42 52 -24 24 14 31 38 15 56 -5
5 -11 20 -13 34 -3 28 -31 37 -60 19z M1660 7959 c0 -5 5 -7 10 -4 6 3 10 8
10 11 0 2 -4 4 -10 4 -5 0 -10 -5 -10 -11z M1650 7870 c0 -5 9 -10 20 -10 11
0 20 5 20 10 0 6 -9 10 -20 10 -11 0 -20 -4 -20 -10z M1704 7679 c-3 -6 -1
-16 4 -21 13 -13 45 8 36 23 -7 12 -31 11 -40 -2z M507 8081 c-68 -17 -94 -30
-61 -32 10 -1 26 -2 34 -3 8 -1 31 4 52 11 20 6 39 9 42 6 3 -3 12 0 20 6 8 7
20 10 26 6 5 -3 10 -2 10 3 0 17 -56 18 -123 3z M706 7765 c-18 -13 -18 -14 2
-12 11 0 19 4 16 8 -2 4 2 10 8 12 7 3 9 6 3 6 -5 0 -18 -6 -29 -14z M635
7640 c3 -5 8 -10 11 -10 2 0 4 5 4 10 0 6 -5 10 -11 10 -5 0 -7 -4 -4 -10z
M724 7633 c-9 -16 -7 -18 17 -19 24 -1 26 1 16 17 -15 23 -19 24 -33 2z M570
7615 c0 -8 7 -15 16 -15 8 0 12 -4 9 -10 -3 -5 -1 -10 4 -10 16 0 13 20 -4 26
-8 4 -12 10 -9 15 3 5 0 9 -5 9 -6 0 -11 -7 -11 -15z M623 7600 c-1 -11 2 -20
5 -20 4 0 8 9 9 20 1 11 -2 20 -5 20 -4 0 -8 -9 -9 -20z M656 7605 c4 -8 10
-12 15 -9 14 8 10 24 -6 24 -9 0 -12 -6 -9 -15z M790 7559 c0 -5 5 -7 10 -4 6
3 10 8 10 11 0 2 -4 4 -10 4 -5 0 -10 -5 -10 -11z M718 7543 c7 -3 16 -2 19 1
4 3 -2 6 -13 5 -11 0 -14 -3 -6 -6z M770 7491 c0 -5 7 -12 16 -15 24 -9 27 -7
10 9 -17 17 -26 19 -26 6z M810 7412 c0 -4 10 -13 23 -21 22 -14 22 -14 3 8
-20 22 -26 25 -26 13z M1982 7563 c-45 -27 -54 -58 -17 -58 11 0 25 -11 31
-24 15 -30 40 -45 49 -31 5 8 11 8 20 0 10 -8 14 -1 20 36 8 56 2 64 -28 36
-19 -18 -25 -19 -45 -8 -19 10 -21 15 -10 23 7 6 25 14 41 18 33 9 36 35 5 35
-13 -1 -42 -12 -66 -27z M2087 7342 c-27 -30 -21 -42 14 -25 16 8 28 20 26 26
-6 19 -23 18 -40 -1z M2168 7293 c-16 -8 -28 -18 -28 -22 0 -13 28 -21 45 -15
25 10 17 -24 -10 -42 -20 -13 -23 -19 -14 -36 7 -13 19 -18 37 -16 24 3 27 7
26 40 -1 21 2 36 5 34 3 -3 17 2 30 9 l25 13 -29 26 c-31 29 -47 31 -87 9z
M2300 7249 c-9 -15 -8 -24 2 -37 19 -25 42 -41 50 -36 14 9 8 62 -8 78 -21 21
-31 20 -44 -5z M2120 7240 c0 -5 7 -10 16 -10 8 0 12 5 9 10 -3 6 -10 10 -16
10 -5 0 -9 -4 -9 -10z M2130 7124 c-6 -14 -10 -31 -10 -38 0 -16 32 -46 48
-46 19 0 14 34 -7 52 -13 11 -18 24 -14 37 8 30 -6 26 -17 -5z M2722 6552
c-19 -15 -22 -22 -14 -43 28 -70 72 -265 70 -310 -4 -61 3 -88 23 -94 35 -11
42 9 43 122 0 91 -4 122 -28 198 -46 147 -54 158 -94 127z M2268 5984 c-5 -4
-8 -18 -8 -31 0 -20 5 -23 38 -22 20 0 51 -4 69 -9 33 -11 69 -6 91 11 8 7 12
5 12 -6 0 -22 18 -31 35 -17 18 15 20 66 3 76 -6 4 -17 -1 -24 -10 -7 -11 -18
-15 -25 -10 -7 4 -26 8 -43 10 -17 1 -56 6 -86 9 -30 4 -58 3 -62 -1z M2290
5855 c0 -26 4 -36 13 -32 7 2 37 1 67 -4 73 -12 102 -5 98 24 -2 18 -12 23
-48 29 -25 3 -64 10 -87 13 l-43 8 0 -38z M2115 5860 c3 -5 8 -10 11 -10 2 0
4 5 4 10 0 6 -5 10 -11 10 -5 0 -7 -4 -4 -10z M2227 5813 c-3 -16 1 -37 9 -50
10 -15 12 -36 7 -69 l-6 -47 31 5 c23 3 32 0 35 -14 5 -16 8 -17 38 -4 24 10
40 11 61 4 16 -6 42 -8 58 -6 17 3 30 1 30 -4 0 -5 10 -8 23 -6 14 2 23 11 25
27 4 27 -16 45 -34 30 -8 -6 -31 -3 -71 11 -46 16 -65 18 -93 10 -38 -11 -45
-8 -37 15 8 19 105 21 172 3 52 -14 62 -7 59 39 -1 15 -3 36 -3 46 -1 23 -25
22 -42 -3 -12 -19 -18 -20 -47 -9 -20 7 -59 9 -96 6 -60 -5 -64 -4 -74 19 -15
32 -38 31 -45 -3z M2518 5274 c-28 -14 -37 -47 -18 -59 6 -3 10 -18 10 -32 0
-24 2 -25 42 -19 55 9 71 22 57 47 -5 10 -16 19 -24 19 -9 0 -13 10 -12 27 2
33 -17 39 -55 17z M2535 5131 c-2 -4 -1 -18 2 -34 5 -27 30 -35 67 -21 18 7
21 39 5 49 -14 9 -69 13 -74 6z M2560 5018 c0 -43 13 -51 54 -34 20 8 36 19
36 23 0 19 -25 33 -57 33 -28 0 -33 -4 -33 -22z M2612 4868 c3 -37 38 -55 38
-20 0 31 -11 52 -27 52 -10 0 -13 -9 -11 -32z M2597 4813 c-4 -3 -7 -19 -7
-35 0 -24 4 -28 29 -28 35 0 55 22 46 50 -4 14 -15 20 -34 20 -15 0 -31 -3
-34 -7z M2618 4722 c-12 -2 -18 -13 -18 -32 0 -24 5 -29 35 -34 19 -4 51 -4
70 0 28 5 35 11 35 29 0 18 -7 25 -31 30 -42 9 -71 12 -91 7z M2624 4620 c-6
-6 -9 -23 -6 -37 4 -23 7 -25 46 -19 48 8 59 17 54 42 -2 14 -14 20 -43 22
-22 2 -45 -2 -51 -8z M2675 4312 c-20 -20 8 -76 35 -70 15 3 31 -47 23 -68 -6
-17 15 -168 28 -201 5 -13 15 -23 23 -23 7 0 16 -9 19 -19 3 -14 17 -21 50
-26 51 -8 67 -2 67 24 0 14 -13 23 -45 32 -50 15 -47 9 -80 156 -10 40 -14 77
-10 82 3 6 1 11 -5 11 -7 0 -10 20 -8 53 l3 52 -47 1 c-26 1 -50 -1 -53 -4z
M2865 4079 c-9 -17 -15 -33 -12 -35 2 -2 31 -7 64 -10 55 -6 62 -5 72 15 17
30 6 41 -39 41 -21 0 -42 5 -45 10 -11 18 -24 11 -40 -21z M2952 3958 c-14
-14 -15 -28 -3 -47 6 -9 36 -15 94 -18 72 -4 85 -2 91 12 10 26 1 32 -71 45
-38 6 -75 14 -83 16 -9 2 -21 -1 -28 -8z M2870 3883 c-8 -3 -21 -6 -28 -9 -8
-2 -10 -9 -5 -16 4 -7 8 -20 8 -28 0 -12 13 -15 57 -15 31 0 60 -3 64 -7 4 -5
-9 -8 -29 -8 -43 0 -49 -7 -39 -45 8 -29 9 -29 84 -28 69 1 75 -1 71 -18 -6
-22 -19 -25 -26 -6 -3 6 -6 7 -6 2 -1 -6 -16 -9 -33 -8 -44 5 -57 -6 -51 -40
6 -29 19 -32 128 -28 28 1 118 3 200 4 83 1 156 6 163 10 20 13 33 55 26 83
-8 30 -44 34 -44 4 0 -22 7 -21 -150 -21 -182 1 -186 1 -170 10 8 5 41 11 72
15 62 6 128 29 128 45 0 21 -18 25 -127 29 -46 2 -47 2 -25 18 27 19 28 41 2
49 -11 3 -57 5 -102 4 -46 -1 -99 1 -118 3 -19 3 -42 3 -50 1z m140 -77 c0 -3
-4 -8 -10 -11 -5 -3 -10 -1 -10 4 0 6 5 11 10 11 6 0 10 -2 10 -4z M2780 3840
c0 -5 5 -10 10 -10 6 0 10 5 10 10 0 6 -4 10 -10 10 -5 0 -10 -4 -10 -10z
M3013 3612 c-44 -3 -53 -6 -53 -22 0 -29 29 -39 111 -39 82 0 110 -4 136 -20
13 -8 1 -9 -48 -5 -64 6 -163 -8 -174 -26 -2 -4 2 -16 9 -26 12 -16 29 -19
108 -21 51 -1 119 -5 151 -8 46 -4 59 -2 64 11 8 20 -10 36 -55 50 -31 9 -21
10 63 6 55 -2 105 -9 111 -13 7 -6 16 -3 24 6 10 12 10 15 0 15 -7 0 -10 6 -7
14 11 28 -26 45 -113 51 -47 3 -93 8 -104 11 -30 10 -166 19 -223 16z M3391
3479 c-18 -7 -21 -12 -12 -23 6 -7 8 -15 5 -19 -12 -12 18 -47 40 -47 39 0 50
23 28 61 -21 38 -28 41 -61 28z M3187 3233 c-26 -4 -28 -8 -22 -31 9 -38 17
-44 68 -44 32 -1 51 5 67 20 26 24 18 46 -15 38 -14 -4 -29 0 -39 9 -8 8 -18
14 -23 14 -4 -1 -21 -4 -36 -6z M1857 6758 c-15 -11 -17 -21 -11 -56 7 -43 28
-82 38 -71 4 3 3 36 -1 73 -7 62 -9 66 -26 54z M1920 5990 c0 -5 5 -10 10 -10
6 0 10 5 10 10 0 6 -4 10 -10 10 -5 0 -10 -4 -10 -10z M1920 5955 c0 -9 5 -15
11 -13 6 2 11 8 11 13 0 5 -5 11 -11 13 -6 2 -11 -4 -11 -13z M1919 5918 c-3
-35 4 -74 15 -80 8 -6 8 -8 -1 -8 -13 0 -13 -115 0 -136 3 -6 3 -14 0 -18 -12
-12 -2 -101 12 -112 10 -8 11 -14 4 -21 -7 -7 -8 -17 -3 -25 5 -7 9 -26 9 -42
0 -16 6 -31 14 -34 12 -4 13 7 7 64 -4 38 -9 114 -13 169 -3 55 -8 102 -12
105 -3 3 -6 36 -6 74 0 47 -4 71 -12 74 -7 2 -13 -2 -14 -10z M1957 5414 c-7
-8 4 -44 14 -44 12 0 12 37 0 44 -4 3 -11 3 -14 0z M1982 5220 c0 -14 2 -19 5
-12 2 6 2 18 0 25 -3 6 -5 1 -5 -13z M2076 2685 c4 -8 8 -15 10 -15 2 0 4 7 4
15 0 8 -4 15 -10 15 -5 0 -7 -7 -4 -15z M2156 1145 c-8 -21 -8 -110 0 -118 3
-3 11 -4 18 -1 9 3 10 21 5 65 -8 66 -13 79 -23 54z M2490 3974 c-6 -14 -10
-28 -10 -32 0 -9 49 -32 67 -32 20 0 16 54 -5 73 -26 24 -41 21 -52 -9z M2334
3925 c-25 -44 -27 -70 -5 -104 6 -10 13 -11 30 -2 18 10 20 18 15 55 -4 27 -2
46 5 50 16 10 13 46 -4 46 -8 0 -26 -20 -41 -45z M2473 3885 c-12 -27 -8 -32
37 -45 36 -10 57 8 41 38 -21 38 -61 42 -78 7z M2492 3811 c-6 -3 -14 -19 -17
-34 -7 -26 -6 -27 33 -27 42 0 62 21 42 45 -13 16 -44 25 -58 16z M2484 3715
c-23 -35 -13 -56 23 -46 35 9 43 45 14 60 -17 10 -23 7 -37 -14z M2509 3656
c-1 -3 -2 -9 -3 -13 -4 -21 -23 -38 -41 -38 -14 0 -19 -6 -17 -20 6 -41 12
-46 44 -43 28 3 34 8 41 38 14 59 13 74 -5 78 -10 2 -19 1 -19 -2z M2424 3505
c-10 -25 16 -45 56 -45 48 0 70 8 70 26 0 32 -115 50 -126 19z M2685 3464
c-14 -15 -25 -30 -25 -34 0 -12 28 -20 65 -20 41 0 54 31 24 61 -25 25 -35 24
-64 -7z M2430 3406 c0 -24 22 -51 33 -40 3 3 29 6 57 6 l51 -1 -28 30 c-22 23
-36 29 -70 29 -39 0 -43 -2 -43 -24z M2687 3361 c-15 -29 -14 -32 4 -42 33
-17 84 -7 87 17 3 24 -12 40 -49 49 -23 6 -29 2 -42 -24z M2732 3265 c-10 -21
-9 -27 3 -31 21 -8 35 4 35 32 0 32 -24 31 -38 -1z M2589 3089 c-16 -31 7 -52
27 -25 8 11 14 26 14 33 0 21 -28 15 -41 -8z M2609 2933 c-8 -22 -7 -30 7 -40
32 -23 50 -9 40 31 -9 36 -35 41 -47 9z M3052 2655 c3 -14 0 -30 -7 -35 -22
-18 -3 -65 26 -65 20 0 24 5 24 30 0 17 4 36 8 42 12 19 -11 53 -35 53 -16 0
-19 -5 -16 -25z M3047 2523 c-4 -3 -7 -16 -7 -28 0 -11 -4 -25 -9 -30 -11 -12
4 -55 19 -55 41 0 76 74 49 106 -12 15 -41 19 -52 7z M3970 8270 c0 -5 5 -10
10 -10 6 0 10 5 10 10 0 6 -4 10 -10 10 -5 0 -10 -4 -10 -10z M4340 8169 c0
-5 5 -7 10 -4 6 3 10 8 10 11 0 2 -4 4 -10 4 -5 0 -10 -5 -10 -11z M4993 8100
c0 -36 2 -50 4 -32 2 17 2 47 0 65 -2 17 -4 3 -4 -33z M190 8099 c0 -5 5 -7
10 -4 6 3 10 8 10 11 0 2 -4 4 -10 4 -5 0 -10 -5 -10 -11z M2780 8080 c0 -5 5
-10 10 -10 6 0 10 5 10 10 0 6 -4 10 -10 10 -5 0 -10 -4 -10 -10z M1450 8050
c0 -5 5 -10 10 -10 6 0 10 5 10 10 0 6 -4 10 -10 10 -5 0 -10 -4 -10 -10z
M2781 8044 c0 -11 3 -14 6 -6 3 7 2 16 -1 19 -3 4 -6 -2 -5 -13z M1340 7960
c0 -5 5 -10 10 -10 6 0 10 5 10 10 0 6 -4 10 -10 10 -5 0 -10 -4 -10 -10z
M2810 7966 c0 -2 7 -6 15 -10 8 -3 15 -1 15 4 0 6 -7 10 -15 10 -8 0 -15 -2
-15 -4z M1530 7940 c0 -5 5 -10 11 -10 5 0 7 5 4 10 -3 6 -8 10 -11 10 -2 0
-4 -4 -4 -10z M1290 7929 c0 -5 5 -7 10 -4 6 3 10 8 10 11 0 2 -4 4 -10 4 -5
0 -10 -5 -10 -11z M2930 7880 c0 -5 5 -10 10 -10 6 0 10 5 10 10 0 6 -4 10
-10 10 -5 0 -10 -4 -10 -10z M135 7860 c-3 -5 -1 -10 4 -10 6 0 11 5 11 10 0
6 -2 10 -4 10 -3 0 -8 -4 -11 -10z M1415 7860 c3 -5 8 -10 11 -10 2 0 4 5 4
10 0 6 -5 10 -11 10 -5 0 -7 -4 -4 -10z M1440 7839 c0 -5 5 -7 10 -4 6 3 10 8
10 11 0 2 -4 4 -10 4 -5 0 -10 -5 -10 -11z M4994 7760 c0 -52 1 -74 3 -47 2
26 2 68 0 95 -2 26 -3 4 -3 -48z M2960 7820 c0 -5 5 -10 11 -10 5 0 7 5 4 10
-3 6 -8 10 -11 10 -2 0 -4 -4 -4 -10z M301 7787 c-8 -10 -7 -14 4 -14 8 0 15
6 15 14 0 7 -2 13 -4 13 -2 0 -9 -6 -15 -13z M1505 7770 c3 -5 8 -10 11 -10 2
0 4 5 4 10 0 6 -5 10 -11 10 -5 0 -7 -4 -4 -10z M1460 7754 c0 -8 5 -12 10 -9
6 3 10 10 10 16 0 5 -4 9 -10 9 -5 0 -10 -7 -10 -16z M1530 7760 c0 -5 5 -10
10 -10 6 0 10 5 10 10 0 6 -4 10 -10 10 -5 0 -10 -4 -10 -10z M2975 7750 c3
-5 8 -10 11 -10 2 0 4 5 4 10 0 6 -5 10 -11 10 -5 0 -7 -4 -4 -10z M250 7720
c0 -5 5 -10 10 -10 6 0 10 5 10 10 0 6 -4 10 -10 10 -5 0 -10 -4 -10 -10z
M1455 7720 c-3 -5 1 -10 9 -10 9 0 16 5 16 10 0 6 -4 10 -9 10 -6 0 -13 -4
-16 -10z M1550 7718 c0 -4 9 -8 20 -8 11 0 20 4 20 8 0 4 -9 8 -20 8 -11 0
-20 -4 -20 -8z M3020 7719 c0 -5 5 -7 10 -4 6 3 10 8 10 11 0 2 -4 4 -10 4 -5
0 -10 -5 -10 -11z M1360 7710 c0 -5 5 -10 10 -10 6 0 10 5 10 10 0 6 -4 10
-10 10 -5 0 -10 -4 -10 -10z M1507 7713 c-18 -4 -17 -6 3 -20 12 -8 24 -12 28
-8 4 4 1 10 -6 12 -6 3 -10 9 -6 14 3 5 4 8 2 8 -2 -1 -11 -3 -21 -6z M3245
7700 c3 -5 8 -10 11 -10 2 0 4 5 4 10 0 6 -5 10 -11 10 -5 0 -7 -4 -4 -10z
M390 7690 c0 -5 5 -10 10 -10 6 0 10 5 10 10 0 6 -4 10 -10 10 -5 0 -10 -4
-10 -10z M1573 7685 c0 -8 4 -12 9 -9 4 3 8 9 8 15 0 5 -4 9 -8 9 -5 0 -9 -7
-9 -15z M1400 7671 c0 -6 5 -13 10 -16 6 -3 10 1 10 9 0 9 -4 16 -10 16 -5 0
-10 -4 -10 -9z M1500 7645 c0 -8 5 -15 10 -15 6 0 10 7 10 15 0 8 -4 15 -10
15 -5 0 -10 -7 -10 -15z M1558 7654 c-13 -13 5 -34 29 -34 15 0 23 5 20 13 -2
6 -10 11 -17 9 -7 -2 -16 2 -20 8 -3 5 -9 8 -12 4z M275 7640 c-3 -5 -1 -10 4
-10 6 0 11 5 11 10 0 6 -2 10 -4 10 -3 0 -8 -4 -11 -10z M31 7624 c0 -11 3
-14 6 -6 3 7 2 16 -1 19 -3 4 -6 -2 -5 -13z M1530 7615 c0 -8 5 -15 10 -15 6
0 10 7 10 15 0 8 -4 15 -10 15 -5 0 -10 -7 -10 -15z M4992 7610 c0 -14 2 -19
5 -12 2 6 2 18 0 25 -3 6 -5 1 -5 -13z M3400 7610 c-9 -6 -10 -10 -3 -10 6 0
15 5 18 10 8 12 4 12 -15 0z M35 7570 c3 -5 8 -10 11 -10 2 0 4 5 4 10 0 6 -5
10 -11 10 -5 0 -7 -4 -4 -10z M116 7557 c3 -10 9 -15 12 -12 3 3 0 11 -7 18
-10 9 -11 8 -5 -6z M70 7540 c0 -5 5 -10 10 -10 6 0 10 5 10 10 0 6 -4 10 -10
10 -5 0 -10 -4 -10 -10z M3465 7530 c3 -5 8 -10 11 -10 2 0 4 5 4 10 0 6 -5
10 -11 10 -5 0 -7 -4 -4 -10z M145 7471 c-3 -5 -2 -12 3 -15 5 -3 9 1 9 9 0
17 -3 19 -12 6z M96 7448 c3 -4 1 -8 -5 -8 -10 0 -9 -25 2 -36 4 -4 7 2 7 14
0 12 5 21 11 20 6 -2 13 2 15 7 2 6 -4 11 -15 11 -11 0 -17 -4 -15 -8z M40
7400 c0 -5 5 -10 11 -10 5 0 7 5 4 10 -3 6 -8 10 -11 10 -2 0 -4 -4 -4 -10z
M31 7371 c-7 -5 -10 -14 -6 -20 5 -9 10 -9 21 0 26 22 14 38 -15 20z M7 7316
c-4 -10 -5 -21 -2 -24 9 -9 17 6 13 25 -3 17 -4 17 -11 -1z M20 7268 c0 -10
-4 -18 -10 -18 -5 0 -7 -7 -4 -15 4 -8 10 -15 16 -15 5 0 7 4 4 9 -4 5 -1 11
6 13 8 3 8 9 0 24 -10 17 -11 17 -12 2z M5 7170 c-6 -9 26 -30 44 -30 19 0 11
15 -14 27 -14 6 -27 7 -30 3z M900 7134 c-19 -14 -42 -32 -50 -40 -24 -24 14
-18 58 9 20 13 45 26 55 30 9 3 17 11 17 17 0 18 -44 9 -80 -16z M0 7106 c0
-8 14 -19 31 -25 38 -13 39 -13 39 -3 0 5 -16 16 -35 25 -28 14 -35 14 -35 3z
M90 7067 c0 -17 38 -53 46 -44 7 7 -25 57 -37 57 -5 0 -9 -6 -9 -13z M882
7043 c-40 -19 -35 -28 12 -19 39 7 71 36 40 36 -11 0 -34 -8 -52 -17z M2 7023
c2 -12 14 -19 38 -21 38 -4 33 7 -13 26 -25 11 -28 10 -25 -5z M810 7010 c0
-5 5 -10 10 -10 6 0 10 5 10 10 0 6 -4 10 -10 10 -5 0 -10 -4 -10 -10z M940
7010 c-8 -5 -11 -13 -6 -17 5 -4 11 -2 13 5 3 6 10 9 15 6 7 -4 8 -2 4 4 -9
14 -7 14 -26 2z M90 6993 c0 -12 8 -18 25 -18 30 0 32 10 6 25 -27 14 -31 13
-31 -7z M920 6972 c0 -4 7 -16 15 -26 15 -19 15 -19 15 1 0 11 -7 23 -15 27
-8 3 -15 2 -15 -2z M94 6848 l1 -111 -47 -14 c-44 -12 -65 -33 -35 -33 26 0
131 46 135 59 3 10 -1 12 -17 8 -29 -7 -28 25 2 46 l22 16 -22 7 c-24 7 -33
49 -13 56 6 2 3 18 -9 40 l-19 38 2 -112z M946 6921 c-15 -6 -16 -9 -5 -13 8
-3 20 1 27 8 14 15 7 17 -22 5z M0 6905 c0 -11 11 -15 37 -15 35 0 36 1 17 15
-25 19 -54 19 -54 0z M863 6908 c-29 -14 -30 -28 -2 -28 25 0 59 17 59 30 0
13 -29 12 -57 -2z M810 6880 c0 -5 5 -10 10 -10 6 0 10 5 10 10 0 6 -4 10 -10
10 -5 0 -10 -4 -10 -10z M872 6842 c-44 -13 -16 -27 55 -28 67 -1 70 0 60 18
-12 19 -66 23 -115 10z M0 6800 c0 -17 3 -18 33 -8 49 16 52 25 7 26 -33 2
-40 -1 -40 -18z M820 6744 c0 -8 5 -12 10 -9 6 3 10 10 10 16 0 5 -4 9 -10 9
-5 0 -10 -7 -10 -16z M857 6743 c-10 -10 13 -33 34 -33 26 0 33 17 10 29 -23
13 -35 14 -44 4z M985 6730 c-3 -5 -1 -10 4 -10 6 0 11 5 11 10 0 6 -2 10 -4
10 -3 0 -8 -4 -11 -10z M950 6670 c0 -5 5 -10 10 -10 6 0 10 5 10 10 0 6 -4
10 -10 10 -5 0 -10 -4 -10 -10z M43 6590 c-24 -10 -43 -26 -43 -34 0 -11 10
-9 45 11 25 13 45 29 45 34 0 11 3 12 -47 -11z M855 6590 c-3 -5 7 -15 22 -22
15 -6 35 -18 44 -25 9 -8 30 -17 46 -22 51 -15 30 22 -30 53 -57 28 -72 31
-82 16z M816 6572 c-2 -4 -1 -14 4 -22 7 -11 12 -12 21 -3 6 6 8 16 5 22 -8
13 -23 14 -30 3z M860 6542 c0 -14 84 -90 108 -97 34 -10 27 5 -27 58 -45 42
-81 60 -81 39z M860 6459 c0 -27 42 -99 58 -99 16 0 28 30 15 39 -6 3 -16 23
-24 44 -14 41 -49 53 -49 16z M52 6442 c-31 -26 -42 -52 -23 -52 9 0 71 66 71
75 0 11 -17 3 -48 -23z M25 6370 c3 -5 8 -10 11 -10 2 0 4 5 4 10 0 6 -5 10
-11 10 -5 0 -7 -4 -4 -10z M900 6310 c0 -5 5 -10 11 -10 5 0 7 5 4 10 -3 6 -8
10 -11 10 -2 0 -4 -4 -4 -10z M115 6080 c3 -5 8 -10 11 -10 2 0 4 5 4 10 0 6
-5 10 -11 10 -5 0 -7 -4 -4 -10z M130 5761 c0 -6 5 -13 10 -16 6 -3 10 1 10 9
0 9 -4 16 -10 16 -5 0 -10 -4 -10 -9z M3745 5250 c-3 -5 -1 -10 4 -10 6 0 11
5 11 10 0 6 -2 10 -4 10 -3 0 -8 -4 -11 -10z M1410 5240 c0 -5 5 -10 10 -10 6
0 10 5 10 10 0 6 -4 10 -10 10 -5 0 -10 -4 -10 -10z M5 5210 c-11 -17 20 -39
45 -33 11 3 17 10 14 15 -4 6 -10 6 -17 -1 -8 -8 -14 -5 -23 10 -8 16 -13 18
-19 9z M4992 4950 c0 -19 2 -27 5 -17 2 9 2 25 0 35 -3 9 -5 1 -5 -18z M4945
4950 c3 -5 11 -10 16 -10 6 0 7 5 4 10 -3 6 -11 10 -16 10 -6 0 -7 -4 -4 -10z
M4993 4860 c0 -25 2 -35 4 -22 2 12 2 32 0 45 -2 12 -4 2 -4 -23z M4993 4675
c0 -27 2 -38 4 -22 2 15 2 37 0 50 -2 12 -4 0 -4 -28z M4994 4425 c0 -88 2
-123 3 -77 2 46 2 118 0 160 -1 42 -3 5 -3 -83z M0 4265 c0 -8 2 -15 4 -15 2
0 6 7 10 15 3 8 1 15 -4 15 -6 0 -10 -7 -10 -15z M135 4210 c-3 -5 -1 -10 4
-10 6 0 11 5 11 10 0 6 -2 10 -4 10 -3 0 -8 -4 -11 -10z M1 4164 c0 -11 3 -14
6 -6 3 7 2 16 -1 19 -3 4 -6 -2 -5 -13z M4994 4075 c0 -55 1 -76 3 -47 2 29 2
74 0 100 -2 26 -3 2 -3 -53z M4100 4120 c0 -5 5 -10 10 -10 6 0 10 5 10 10 0
6 -4 10 -10 10 -5 0 -10 -4 -10 -10z M4043 4105 c-8 -9 -9 -16 -3 -20 6 -3 13
1 16 10 9 21 2 26 -13 10z M4077 4103 c-4 -7 1 -17 12 -23 13 -7 22 -7 26 0 3
5 0 10 -9 10 -8 0 -16 5 -18 12 -3 9 -6 9 -11 1z M4130 4060 c0 -5 5 -10 10
-10 6 0 10 5 10 10 0 6 -4 10 -10 10 -5 0 -10 -4 -10 -10z M4 3975 c3 -21 16
-31 16 -12 0 9 -4 18 -9 21 -5 4 -8 -1 -7 -9z M4994 3245 c0 -71 1 -99 3 -62
2 37 2 96 0 130 -2 34 -3 4 -3 -68z M837 3339 c7 -7 15 -10 18 -7 3 3 -2 9
-12 12 -14 6 -15 5 -6 -5z M4991 3094 c0 -11 3 -14 6 -6 3 7 2 16 -1 19 -3 4
-6 -2 -5 -13z M4590 3010 c0 -5 4 -10 9 -10 6 0 13 5 16 10 3 6 -1 10 -9 10
-9 0 -16 -4 -16 -10z M3600 2960 c0 -11 2 -20 4 -20 2 0 6 9 9 20 3 11 1 20
-4 20 -5 0 -9 -9 -9 -20z M35 2960 c3 -5 8 -10 11 -10 2 0 4 5 4 10 0 6 -5 10
-11 10 -5 0 -7 -4 -4 -10z M4890 2871 c0 -6 4 -13 10 -16 6 -3 7 1 4 9 -7 18
-14 21 -14 7z M3610 2810 c0 -5 5 -10 10 -10 6 0 10 5 10 10 0 6 -4 10 -10 10
-5 0 -10 -4 -10 -10z M3611 2754 c0 -11 3 -14 6 -6 3 7 2 16 -1 19 -3 4 -6 -2
-5 -13z M4940 2700 c0 -5 5 -10 10 -10 6 0 10 5 10 10 0 6 -4 10 -10 10 -5 0
-10 -4 -10 -10z M1965 2630 c3 -5 8 -10 11 -10 2 0 4 5 4 10 0 6 -5 10 -11 10
-5 0 -7 -4 -4 -10z M3606 2613 c-6 -14 -5 -15 5 -6 7 7 10 15 7 18 -3 3 -9 -2
-12 -12z M3610 2569 c0 -5 5 -7 10 -4 6 3 10 8 10 11 0 2 -4 4 -10 4 -5 0 -10
-5 -10 -11z M4721 2564 c0 -11 3 -14 6 -6 3 7 2 16 -1 19 -3 4 -6 -2 -5 -13z
M180 2439 c0 -5 5 -7 10 -4 6 3 10 8 10 11 0 2 -4 4 -10 4 -5 0 -10 -5 -10
-11z M9 2413 c-13 -16 -12 -17 4 -4 9 7 17 15 17 17 0 8 -8 3 -21 -13z M4200
2310 c0 -6 7 -10 15 -10 8 0 15 2 15 4 0 2 -7 6 -15 10 -8 3 -15 1 -15 -4z M0
2300 c0 -5 5 -10 10 -10 6 0 10 5 10 10 0 6 -4 10 -10 10 -5 0 -10 -4 -10 -10z
M4830 2280 c0 -5 5 -10 10 -10 6 0 10 5 10 10 0 6 -4 10 -10 10 -5 0 -10 -4
-10 -10z M4625 2270 c3 -5 8 -10 11 -10 2 0 4 5 4 10 0 6 -5 10 -11 10 -5 0
-7 -4 -4 -10z M0 2261 c0 -5 7 -11 15 -15 8 -3 15 -1 15 3 0 5 -7 11 -15 15
-8 3 -15 1 -15 -3z M3635 2230 c-3 -5 -1 -10 4 -10 6 0 11 5 11 10 0 6 -2 10
-4 10 -3 0 -8 -4 -11 -10z M1975 2220 c-3 -5 -1 -10 4 -10 6 0 11 5 11 10 0 6
-2 10 -4 10 -3 0 -8 -4 -11 -10z M3620 2200 c-13 -8 -13 -10 2 -10 9 0 20 5
23 10 8 13 -5 13 -25 0z M4626 2188 c-37 -20 -38 -22 -32 -64 l6 -44 -35 0
c-19 0 -35 -4 -35 -10 0 -5 -6 -10 -14 -10 -7 0 -19 -7 -26 -16 -21 -25 18
-57 69 -56 23 0 41 -3 41 -7 0 -4 -14 -8 -31 -8 -18 0 -37 -7 -44 -16 -7 -9
-17 -17 -22 -17 -6 0 -16 -6 -22 -14 -10 -12 -9 -20 5 -41 16 -24 23 -26 66
-23 53 3 65 -7 19 -17 -16 -3 -35 -13 -41 -21 -7 -7 -16 -11 -21 -8 -5 3 -9 2
-8 -3 2 -4 -1 -29 -5 -56 -9 -52 2 -77 35 -77 15 0 17 7 12 55 -5 52 -4 55 21
67 22 9 29 9 35 -1 8 -13 25 -253 25 -375 1 -54 5 -71 19 -80 12 -8 22 -8 35
0 19 13 19 18 1 189 -5 55 -11 141 -12 190 l-2 90 45 1 c108 1 194 17 223 42
25 22 18 56 -11 60 -17 3 -22 8 -18 19 14 35 -10 42 -128 36 -99 -5 -113 -3
-113 11 0 13 14 16 82 16 60 0 86 4 95 15 17 21 4 35 -33 35 -24 0 -28 3 -17
10 26 16 -1 29 -70 32 l-65 3 41 13 c23 7 45 20 49 29 5 15 7 15 16 3 8 -11 9
-9 4 10 -4 14 -13 31 -19 38 -21 22 -78 22 -120 0z m-26 -274 c0 -2 -19 -4
-42 -4 -26 0 -38 4 -30 8 12 8 72 4 72 -4z m285 -33 c-5 -5 -58 -13 -117 -17
-89 -5 -108 -4 -108 7 0 11 26 15 118 17 78 2 114 0 107 -7z M4912 2134 c11
-23 13 -24 19 -7 11 27 10 40 -1 23 -6 -10 -10 -11 -10 -2 0 6 -4 12 -10 12
-6 0 -5 -10 2 -26z M4950 2146 c0 -2 7 -9 15 -16 13 -11 14 -10 9 4 -5 14 -24
23 -24 12z M0 2130 c0 -5 5 -10 10 -10 6 0 10 5 10 10 0 6 -4 10 -10 10 -5 0
-10 -4 -10 -10z M4820 2120 c0 -5 5 -10 10 -10 6 0 10 5 10 10 0 6 -4 10 -10
10 -5 0 -10 -4 -10 -10z M4991 2065 c-6 -116 -5 -203 2 -190 4 8 6 65 4 127
-1 62 -4 91 -6 63z M4903 2086 c2 -5 12 -15 24 -23 19 -13 21 -12 21 10 0 20
-5 24 -24 23 -13 0 -23 -5 -21 -10z M4840 2080 c0 -5 5 -10 10 -10 6 0 10 5
10 10 0 6 -4 10 -10 10 -5 0 -10 -4 -10 -10z M2016 2035 c4 -8 11 -15 16 -15
6 0 5 6 -2 15 -7 8 -14 15 -16 15 -2 0 -1 -7 2 -15z M4880 2030 c0 -5 5 -10
10 -10 6 0 10 5 10 10 0 6 -4 10 -10 10 -5 0 -10 -4 -10 -10z M4920 2026 c6
-6 5 -15 -5 -26 -14 -15 -14 -19 -1 -29 8 -7 12 -20 9 -28 -5 -12 -2 -15 10
-10 9 3 19 1 23 -5 5 -7 2 -8 -6 -3 -8 5 -11 4 -6 -3 9 -15 36 -4 36 15 0 8
-4 12 -8 9 -7 -4 -9 3 -13 60 -1 19 -4 22 -10 13 -7 -11 -9 -11 -9 2 0 9 -7
16 -15 16 -11 0 -12 -4 -5 -11z m19 -47 c-16 -10 -23 -4 -14 10 3 6 11 8 17 5
6 -4 5 -9 -3 -15z M8 2013 c7 -3 16 -2 19 1 4 3 -2 6 -13 5 -11 0 -14 -3 -6
-6z M140 2000 c0 -6 7 -10 15 -10 8 0 15 2 15 4 0 2 -7 6 -15 10 -8 3 -15 1
-15 -4z M1997 1973 c-4 -3 -7 -11 -7 -17 0 -6 5 -5 12 2 6 6 9 14 7 17 -3 3
-9 2 -12 -2z M2025 1931 c-3 -5 -1 -12 5 -16 5 -3 10 1 10 9 0 18 -6 21 -15 7z
M2030 1844 c0 -8 5 -12 10 -9 6 3 10 10 10 16 0 5 -4 9 -10 9 -5 0 -10 -7 -10
-16z M4953 1847 c1 -7 -4 -11 -10 -9 -15 2 -16 -7 -3 -28 8 -13 10 -12 10 3 0
9 7 17 15 17 19 0 19 16 0 24 -8 3 -14 0 -12 -7z M2000 1835 c0 -8 2 -15 4
-15 2 0 6 7 10 15 3 8 1 15 -4 15 -6 0 -10 -7 -10 -15z M4972 1810 l-22 -29
21 -6 c11 -4 23 -4 26 -1 4 3 1 6 -5 6 -7 0 -12 7 -12 16 0 8 5 12 10 9 6 -3
10 3 10 14 0 26 0 26 -28 -9z M4885 1820 c-11 -5 -14 -9 -7 -9 6 -1 12 -6 12
-12 0 -5 -5 -7 -12 -3 -7 4 -8 3 -4 -4 4 -7 22 -12 39 -11 32 0 32 0 7 11 -15
6 -20 12 -12 15 13 5 17 23 5 22 -5 0 -17 -4 -28 -9z M2035 1810 c-3 -5 -1
-10 4 -10 6 0 11 5 11 10 0 6 -2 10 -4 10 -3 0 -8 -4 -11 -10z M4786 1801
c-10 -15 21 -32 46 -26 29 7 33 30 7 32 -10 1 -18 -1 -16 -5 2 -8 -7 -12 -24
-12 -5 0 -7 5 -4 10 3 6 4 10 1 10 -3 0 -7 -4 -10 -9z M3630 1793 c0 -5 5 -15
10 -23 7 -12 9 -10 7 8 -1 19 -17 33 -17 15z M4680 1791 c0 -6 5 -13 10 -16 6
-3 10 1 10 9 0 9 -4 16 -10 16 -5 0 -10 -4 -10 -9z M4716 1774 c-32 -32 -8
-82 33 -69 22 7 37 45 27 70 -7 20 -40 19 -60 -1z M4940 1760 c0 -5 5 -10 10
-10 6 0 10 5 10 10 0 6 -4 10 -10 10 -5 0 -10 -4 -10 -10z M2026 1751 c-8 -12
4 -41 16 -41 6 0 6 6 -1 14 -9 11 -9 15 1 18 9 3 9 6 1 11 -7 4 -14 3 -17 -2z
M4810 1741 c0 -5 5 -13 10 -16 6 -3 10 -2 10 4 0 5 -4 13 -10 16 -5 3 -10 2
-10 -4z M4937 1703 c-10 -9 -9 -23 2 -23 5 0 11 7 15 15 5 15 -5 20 -17 8z
M4862 1684 c-7 -8 -8 -14 -3 -14 10 0 25 19 20 25 -2 1 -10 -3 -17 -11z M4800
1665 c7 -8 17 -15 22 -15 5 0 3 7 -6 15 -8 8 -18 15 -22 15 -3 0 -1 -7 6 -15z
M2027 1646 c-3 -8 0 -16 6 -19 7 -3 13 3 13 14 0 22 -12 25 -19 5z M4865 1631
c-3 -5 -1 -12 5 -16 5 -3 10 1 10 9 0 18 -6 21 -15 7z M3650 1619 c0 -5 5 -7
10 -4 6 3 10 8 10 11 0 2 -4 4 -10 4 -5 0 -10 -5 -10 -11z M4950 1626 c0 -2 7
-6 15 -10 8 -3 15 -1 15 4 0 6 -7 10 -15 10 -8 0 -15 -2 -15 -4z M2047 1585
c-4 -8 -3 -16 1 -19 4 -3 9 4 9 15 2 23 -3 25 -10 4z M3652 1549 c3 -8 15 -15
27 -15 12 -1 19 1 15 5 -3 3 -9 6 -12 6 -4 0 -13 4 -21 9 -9 6 -12 5 -9 -5z
M2022 1500 c0 -14 2 -19 5 -12 2 6 2 18 0 25 -3 6 -5 1 -5 -13z M3650 1510 c0
-5 5 -10 11 -10 5 0 7 5 4 10 -3 6 -8 10 -11 10 -2 0 -4 -4 -4 -10z M4970
1490 c0 -6 7 -10 15 -10 8 0 15 2 15 4 0 2 -7 6 -15 10 -8 3 -15 1 -15 -4z
M3685 1480 c3 -5 8 -10 11 -10 2 0 4 5 4 10 0 6 -5 10 -11 10 -5 0 -7 -4 -4
-10z M2045 1470 c-3 -5 -1 -10 4 -10 6 0 11 5 11 10 0 6 -2 10 -4 10 -3 0 -8
-4 -11 -10z M4691 1464 c0 -11 3 -14 6 -6 3 7 2 16 -1 19 -3 4 -6 -2 -5 -13z
M3667 1443 c-4 -3 -7 -13 -7 -22 0 -13 2 -13 9 -3 6 10 10 9 14 -7 3 -13 1
-19 -5 -15 -6 4 -5 -3 1 -15 7 -12 9 -26 6 -31 -3 -6 3 -10 14 -10 12 0 21 5
21 10 0 6 -4 10 -9 10 -5 0 -9 15 -9 34 0 48 -16 69 -35 49z M3725 1400 c3 -5
8 -10 11 -10 2 0 4 5 4 10 0 6 -5 10 -11 10 -5 0 -7 -4 -4 -10z M4874 1398
c-3 -4 4 -8 15 -8 11 0 22 4 25 8 2 4 -4 8 -15 8 -11 0 -23 -4 -25 -8z M4115
1390 c-3 -5 1 -10 10 -10 9 0 13 5 10 10 -3 6 -8 10 -10 10 -2 0 -7 -4 -10
-10z M1935 1361 c-3 -5 -1 -12 5 -16 5 -3 10 1 10 9 0 18 -6 21 -15 7z M4850
1358 c0 -11 28 -10 35 1 3 6 -4 9 -15 8 -11 -1 -20 -5 -20 -9z M3760 1329 c0
-16 -4 -19 -22 -14 -18 5 -20 4 -8 -4 24 -17 37 -13 42 14 3 14 1 25 -3 25 -5
0 -9 -9 -9 -21z M4940 1321 c0 -5 5 -13 10 -16 6 -3 10 -2 10 4 0 5 -4 13 -10
16 -5 3 -10 2 -10 -4z M3667 1294 c-3 -4 0 -16 8 -27 11 -15 12 -24 3 -34 -8
-10 -7 -13 5 -13 8 0 17 -7 21 -15 4 -10 -1 -15 -14 -15 -15 0 -20 -7 -19 -27
0 -16 3 -22 6 -13 4 8 15 22 27 31 17 14 18 19 7 33 -7 9 -11 23 -7 31 3 8 1
15 -4 15 -6 0 -9 3 -9 8 5 27 -8 41 -24 26z M3865 1290 c-3 -5 -1 -10 4 -10 6
0 11 5 11 10 0 6 -2 10 -4 10 -3 0 -8 -4 -11 -10z M2005 1270 c-3 -5 -1 -10 4
-10 6 0 11 5 11 10 0 6 -2 10 -4 10 -3 0 -8 -4 -11 -10z M3800 1245 c0 -5 5
-17 10 -25 5 -8 10 -10 10 -5 0 6 -5 17 -10 25 -5 8 -10 11 -10 5z M2060 1224
c0 -8 5 -12 10 -9 6 3 10 10 10 16 0 5 -4 9 -10 9 -5 0 -10 -7 -10 -16z M3745
1220 c3 -5 11 -10 16 -10 6 0 7 5 4 10 -3 6 -11 10 -16 10 -6 0 -7 -4 -4 -10z
M4850 1220 c0 -5 5 -10 11 -10 5 0 7 5 4 10 -3 6 -8 10 -11 10 -2 0 -4 -4 -4
-10z M1995 1210 c-3 -5 -1 -10 4 -10 6 0 11 5 11 10 0 6 -2 10 -4 10 -3 0 -8
-4 -11 -10z M4940 1210 c0 -5 5 -10 10 -10 6 0 10 5 10 10 0 6 -4 10 -10 10
-5 0 -10 -4 -10 -10z M2025 1200 c-3 -5 -1 -10 4 -10 6 0 11 5 11 10 0 6 -2
10 -4 10 -3 0 -8 -4 -11 -10z M3760 1190 c-23 -8 -23 -8 7 -7 17 1 29 5 27 9
-3 4 -6 8 -7 7 -1 -1 -13 -5 -27 -9z M1965 1170 c3 -5 8 -10 11 -10 2 0 4 5 4
10 0 6 -5 10 -11 10 -5 0 -7 -4 -4 -10z M4940 1174 c0 -7 27 -34 34 -34 13 0
5 16 -14 28 -11 7 -20 10 -20 6z M3734 1163 c4 -7 2 -13 -3 -13 -14 0 -14 -37
-1 -45 6 -3 10 -1 10 6 0 8 4 8 15 -1 10 -9 15 -9 15 -1 0 10 -14 15 -34 12
-5 -1 -3 5 4 14 11 13 11 18 0 28 -10 9 -11 9 -6 0z M1800 1145 c0 -8 2 -15 4
-15 2 0 6 7 10 15 3 8 1 15 -4 15 -6 0 -10 -7 -10 -15z M3853 1140 c1 -11 5
-20 9 -20 3 0 6 9 5 20 -1 11 -5 20 -9 20 -3 0 -6 -9 -5 -20z M4800 1145 c-17
-10 -20 -14 -9 -15 9 0 22 7 29 15 15 18 12 18 -20 0z M1960 1140 c0 -5 5 -10
11 -10 5 0 7 5 4 10 -3 6 -8 10 -11 10 -2 0 -4 -4 -4 -10z M2070 1141 c0 -6 4
-12 8 -15 5 -3 9 1 9 9 0 8 -4 15 -9 15 -4 0 -8 -4 -8 -9z M3786 1133 c-6 -14
-5 -15 5 -6 7 7 10 15 7 18 -3 3 -9 -2 -12 -12z M3815 1141 c-3 -5 -2 -12 3
-15 5 -3 9 1 9 9 0 17 -3 19 -12 6z M4295 1130 c3 -5 8 -10 11 -10 2 0 4 5 4
10 0 6 -5 10 -11 10 -5 0 -7 -4 -4 -10z M3672 1119 c2 -7 10 -15 17 -17 8 -3
12 1 9 9 -2 7 -10 15 -17 17 -8 3 -12 -1 -9 -9z M1835 1100 c-3 -5 -1 -10 4
-10 6 0 11 5 11 10 0 6 -2 10 -4 10 -3 0 -8 -4 -11 -10z M3790 1100 c0 -5 5
-10 10 -10 6 0 10 5 10 10 0 6 -4 10 -10 10 -5 0 -10 -4 -10 -10z M4900 1088
c37 -16 52 -18 47 -5 -2 7 -19 13 -38 14 -33 3 -33 2 -9 -9z M1961 1074 c0
-11 3 -14 6 -6 3 7 2 16 -1 19 -3 4 -6 -2 -5 -13z M3670 1076 c0 -19 27 -28
34 -11 2 7 -2 16 -10 19 -22 8 -24 8 -24 -8z M2030 1070 c-9 -6 -10 -10 -3
-10 6 0 15 5 18 10 8 12 4 12 -15 0z M4965 1041 c-3 -6 4 -9 15 -8 11 1 20 5
20 9 0 11 -28 10 -35 -1z M2051 1033 c-1 -17 16 -25 25 -12 4 7 3 9 -4 5 -5
-3 -13 0 -15 6 -4 9 -6 10 -6 1z M36 958 c3 -5 10 -6 15 -3 13 9 11 12 -6 12
-8 0 -12 -4 -9 -9z M22 900 c15 -24 28 -26 28 -4 0 8 -4 12 -10 9 -5 -3 -10
-1 -10 4 0 6 -5 11 -10 11 -6 0 -5 -8 2 -20z M2367 468 c-21 -11 -22 -34 -3
-45 19 -11 34 -267 17 -278 -20 -12 8 -35 43 -35 18 0 41 6 52 14 16 13 17 18
7 35 -7 12 -13 41 -13 65 0 49 8 56 71 56 l39 0 0 -75 c0 -85 9 -95 73 -88 46
6 51 13 32 49 -17 33 -22 259 -5 269 21 13 -3 35 -39 35 -63 0 -75 -17 -68
-90 6 -54 5 -61 -9 -56 -9 3 -32 6 -51 6 l-36 0 6 60 c3 39 1 62 -6 68 -18 14
-92 21 -110 10z M2733 464 c-16 -7 -17 -31 -2 -36 7 -2 12 -53 14 -141 2 -114
0 -139 -13 -146 -23 -13 -4 -34 26 -26 13 3 64 6 111 6 86 0 86 0 109 33 29
42 29 66 -1 66 -28 0 -47 -17 -47 -42 0 -14 -8 -18 -39 -18 l-39 0 -4 51 c-3
55 7 72 28 45 7 -10 21 -16 31 -14 14 3 18 13 17 46 -1 53 -14 68 -43 53 -12
-7 -21 -19 -21 -27 0 -8 -4 -12 -10 -9 -5 3 -10 33 -10 66 0 59 0 59 30 59 24
0 30 -4 30 -21 0 -31 19 -59 39 -59 32 0 50 73 25 101 -11 12 -37 16 -116 17
-57 0 -109 -1 -115 -4z M3085 463 c-48 -10 -51 -13 -28 -31 20 -16 22 -27 25
-150 2 -72 -1 -132 -5 -132 -5 0 -7 -5 -5 -11 5 -15 126 -20 135 -6 4 6 1 13
-5 15 -8 2 -12 28 -12 68 0 83 15 84 69 3 26 -38 55 -68 78 -80 40 -21 83 -25
83 -9 0 6 -28 44 -62 85 l-61 75 20 23 c29 32 35 56 23 93 -8 24 -20 36 -46
44 -36 12 -173 20 -209 13z m159 -55 c9 -12 16 -37 16 -55 0 -31 -2 -33 -35
-33 -21 0 -35 5 -36 13 -8 102 -8 97 16 97 13 0 31 -10 39 -22z M4182 459
c-20 -8 -23 -15 -20 -50 4 -59 27 -70 68 -35 43 36 55 30 54 -30 -1 -27 -2
-81 -3 -121 -1 -64 -3 -72 -22 -78 -19 -6 -20 -9 -6 -22 12 -13 29 -14 98 -7
54 6 84 14 87 23 3 9 -1 11 -16 7 -18 -6 -21 -1 -26 41 -4 26 -6 83 -4 126 1
67 4 77 20 77 10 0 21 -6 24 -14 16 -43 84 -16 84 34 0 16 -6 32 -12 36 -7 5
-75 9 -150 10 -76 2 -141 5 -146 7 -4 3 -17 1 -30 -4z M780 447 c-31 -16 -36
-41 -16 -72 21 -31 53 -33 58 -4 3 23 33 48 43 37 4 -4 7 -64 6 -133 0 -117
-2 -129 -21 -142 -11 -8 -18 -19 -15 -24 7 -11 205 -12 205 -1 0 13 -15 28
-32 35 -16 6 -18 22 -18 137 l0 130 28 0 c18 0 37 -9 51 -26 27 -31 45 -27 49
12 4 54 -3 57 -165 61 -106 2 -155 -1 -173 -10z M1433 453 c-46 -3 -63 -8 -63
-18 0 -8 5 -17 10 -20 6 -3 10 -23 10 -44 l0 -39 -71 2 -71 1 4 55 3 55 -62 3
c-63 3 -74 -3 -51 -26 8 -8 14 -59 16 -147 4 -117 2 -136 -12 -141 -9 -3 -16
-12 -16 -20 0 -15 55 -19 123 -8 39 7 53 34 17 34 -18 0 -20 7 -20 69 0 78 5
85 59 82 78 -3 76 -1 79 -78 3 -69 2 -71 -24 -77 -23 -6 -25 -9 -13 -21 16
-15 40 -19 117 -17 53 2 66 15 37 36 -12 9 -15 35 -16 126 -1 155 0 162 10
156 12 -8 34 21 26 34 -3 5 -12 9 -18 8 -7 -1 -40 -3 -74 -5z M1567 453 c-4
-6 1 -25 10 -43 13 -28 15 -53 9 -166 l-7 -133 23 -5 c38 -9 171 -13 202 -7
21 5 32 15 43 44 11 26 12 42 5 49 -14 14 -51 -8 -62 -38 -9 -22 -15 -25 -52
-22 l-43 3 -3 63 c-2 51 0 62 13 62 8 0 15 -6 15 -14 0 -8 8 -24 18 -36 16
-20 19 -21 31 -6 10 12 11 33 6 81 -6 60 -9 65 -30 65 -16 0 -25 -7 -27 -20
-6 -40 -23 -25 -26 23 l-3 47 45 0 c35 0 49 -5 58 -20 15 -24 44 -26 56 -4 11
20 3 64 -12 65 -139 16 -263 21 -269 12z M3415 450 c-9 -15 3 -30 24 -30 25 0
28 -16 28 -155 0 -78 -3 -122 -11 -127 -22 -14 11 -29 59 -26 51 3 73 25 36
35 -19 5 -21 12 -21 86 0 44 3 77 6 74 9 -9 31 -46 44 -76 6 -14 24 -37 40
-52 37 -36 64 -29 85 23 8 22 29 63 46 91 l30 52 -3 -113 -3 -112 63 0 c48 0
62 3 62 15 0 8 -9 15 -20 15 -17 0 -20 7 -21 48 -4 110 3 198 17 220 19 28 9
33 -66 29 -50 -2 -55 -4 -52 -24 2 -12 -16 -53 -39 -92 l-42 -71 -33 52 c-18
29 -42 70 -54 90 -11 21 -29 42 -39 48 -25 13 -128 13 -136 0z M3962 450 c-24
-10 -22 -30 3 -30 13 0 28 -79 24 -120 -1 -8 -1 -49 -1 -91 l2 -76 57 -6 c66
-7 77 -3 63 24 -6 11 -11 80 -11 159 1 155 4 147 -74 148 -22 1 -50 -3 -63 -8z
M4557 182 c-21 -23 -21 -27 -1 -46 13 -14 19 -14 43 -1 33 17 44 38 28 54 -17
17 -52 13 -70 -7z"/>
</g>
</svg>
