<?xml version="1.0" standalone="no"?>
<!DOCTYPE svg PUBLIC "-//W3C//DTD SVG 20010904//EN"
 "http://www.w3.org/TR/2001/REC-SVG-20010904/DTD/svg10.dtd">
<svg version="1.0" xmlns="http://www.w3.org/2000/svg"
 width="500.000000pt" height="878.000000pt" viewBox="0 0 500.000000 878.000000"
 preserveAspectRatio="xMidYMid meet">
<metadata>
Created by potrace 1.16, written by Peter Selinger 2001-2019
</metadata>
<g transform="translate(0.000000,878.000000) scale(0.100000,-0.100000)"
fill="#000000" stroke="none">
<path d="M532 8763 c-19 -37 -24 -118 -9 -161 14 -41 14 -43 -14 -78 -31 -39
-32 -45 -23 -93 l6 -31 19 24 c11 13 19 35 19 48 0 31 9 42 48 62 l32 17 -26
44 c-24 42 -25 47 -14 102 7 32 17 64 22 71 8 9 3 12 -20 12 -20 0 -35 -7 -40
-17z M1150 8766 c-27 -25 -194 -84 -250 -89 -77 -7 -189 -53 -200 -83 -11 -29
-3 -54 17 -54 10 0 12 6 8 19 -7 22 36 61 66 61 10 0 20 4 23 9 3 5 47 16 98
26 61 12 124 33 183 61 116 56 128 64 95 64 -14 0 -32 -6 -40 -14z M1245 8771
c-35 -34 -344 -171 -387 -171 -52 0 -113 -61 -122 -124 -8 -54 -26 -71 -26
-24 0 46 -10 78 -25 78 -8 0 -12 -23 -12 -75 0 -41 3 -75 8 -75 16 0 10 -33
-10 -54 -13 -14 -22 -43 -26 -88 -7 -64 -6 -68 20 -92 15 -14 31 -26 36 -28
17 -6 0 -32 -27 -45 -20 -9 -32 -9 -60 3 -19 8 -44 12 -57 9 -19 -4 -31 10
-93 118 -40 67 -75 138 -78 159 -4 20 -13 39 -22 42 -12 5 -14 16 -9 55 7 55
4 57 -70 66 -25 3 -96 32 -162 65 -70 35 -120 54 -122 48 -3 -10 18 -32 39
-40 4 -2 5 -18 3 -35 -5 -28 -8 -31 -24 -22 -18 9 -19 5 -19 -50 0 -66 12 -82
75 -97 55 -13 83 -33 90 -63 5 -24 15 -33 51 -47 24 -9 44 -21 44 -25 0 -11
-47 -12 -52 -1 -1 4 -38 25 -81 47 -43 21 -85 47 -94 57 -19 21 -33 23 -33 5
0 -21 33 -46 112 -86 62 -31 73 -41 79 -69 3 -17 12 -39 19 -47 9 -10 9 -15 1
-15 -6 0 -11 4 -11 9 0 5 -14 14 -32 22 -41 17 -128 77 -150 103 -17 21 -17
20 -18 -15 0 -29 5 -38 28 -50 15 -7 41 -23 57 -36 17 -12 42 -25 58 -28 33
-9 34 -18 2 -39 -37 -24 -51 -20 -100 29 l-45 44 0 -29 c0 -20 9 -38 26 -53
14 -12 37 -46 49 -74 25 -55 75 -97 107 -89 22 5 22 3 3 -35 -20 -37 -5 -74
26 -66 13 3 22 0 26 -10 3 -8 16 -19 29 -24 17 -6 24 -16 24 -34 0 -32 36 -69
58 -60 9 4 21 7 26 8 5 1 8 -30 7 -70 -1 -41 2 -74 8 -78 6 -3 11 -13 11 -22
0 -8 14 -31 30 -50 17 -18 30 -38 30 -43 0 -6 7 -10 15 -10 9 0 12 -6 9 -15
-8 -19 14 -47 29 -38 6 4 7 1 2 -7 -4 -7 -2 -16 6 -21 12 -8 11 -11 -3 -19
-13 -8 -16 -21 -12 -68 5 -66 17 -96 56 -137 15 -16 36 -40 46 -53 24 -32 69
-40 213 -36 149 4 192 -8 278 -78 64 -51 93 -106 72 -132 -9 -10 -9 -27 -1
-62 11 -48 8 -86 -12 -136 -12 -33 -11 -32 -48 -13 -23 12 -34 13 -55 3 -28
-13 -30 -17 -14 -52 15 -33 -2 -56 -42 -56 -16 0 -29 -4 -29 -8 0 -12 88 2
102 16 8 8 7 19 -2 42 -17 40 -3 57 31 39 13 -6 36 -12 52 -11 24 1 27 -2 21
-21 -12 -41 -44 -97 -55 -97 -6 0 -8 -4 -5 -8 2 -4 -3 -8 -12 -9 -9 0 -30 -5
-47 -11 -116 -40 -169 -46 -233 -27 -24 8 -52 21 -62 30 -11 10 -30 15 -47 13
-26 -3 -28 -7 -35 -56 -4 -34 -14 -62 -27 -76 -12 -12 -21 -27 -21 -34 0 -6
-24 -19 -53 -28 -95 -30 -111 -56 -39 -68 21 -3 46 -14 55 -24 28 -30 49 -95
49 -146 0 -55 -21 -84 -75 -102 -34 -11 -45 -41 -14 -36 39 7 153 -48 195 -92
39 -42 41 -47 56 -153 15 -113 13 -168 -11 -213 -7 -14 -13 -31 -13 -38 0 -20
-46 -87 -87 -127 -93 -91 -192 -128 -317 -119 -61 4 -86 11 -103 26 l-21 20
-17 -26 c-16 -24 -16 -28 -3 -44 46 -52 16 -108 -62 -118 -25 -3 -54 -9 -65
-14 -11 -5 -32 -11 -47 -14 -36 -8 -36 -33 0 -41 40 -8 100 -61 119 -103 8
-21 19 -61 24 -91 15 -106 -59 -227 -156 -253 -32 -9 -45 -17 -45 -30 0 -10 7
-18 15 -18 50 0 168 81 187 129 38 94 48 132 48 177 0 66 -24 135 -61 173
l-29 31 24 0 c14 0 35 5 48 10 28 13 69 74 78 115 l6 30 82 0 82 0 -30 -23
c-38 -30 -40 -69 -4 -112 30 -35 68 -57 110 -63 20 -2 30 -10 32 -24 4 -28
-31 -36 -98 -23 -102 19 -159 -6 -175 -78 -6 -30 -3 -37 34 -72 30 -29 52 -40
86 -46 71 -10 97 -59 48 -91 -21 -14 -48 -18 -128 -18 -72 0 -107 -4 -123 -15
-31 -19 -62 -81 -62 -121 0 -43 53 -95 106 -103 117 -19 144 -28 169 -57 16
-20 25 -43 25 -65 0 -45 -33 -61 -152 -74 -148 -15 -225 -35 -272 -68 l-41
-30 -3 -87 -3 -88 44 -42 c50 -48 139 -77 211 -69 78 10 241 6 283 -5 45 -12
63 -34 63 -74 0 -26 -27 -55 -56 -62 -139 -29 -185 -45 -250 -87 -52 -34 -74
-67 -81 -127 -8 -68 10 -113 67 -164 57 -51 88 -62 239 -81 158 -21 191 -44
191 -134 0 -81 6 -94 56 -124 52 -32 70 -34 95 -12 16 15 20 15 41 0 12 -9 35
-16 50 -16 28 0 30 -2 32 -55 1 -35 36 -51 36 -16 0 15 6 20 19 18 27 -3 28
16 2 29 -12 6 -29 20 -36 31 -8 12 -31 23 -54 27 -26 4 -44 14 -51 26 -8 16
-8 20 4 20 24 0 26 15 10 71 -16 54 -61 124 -106 166 -47 44 -139 72 -275 84
-105 10 -132 15 -151 32 -24 22 -29 67 -13 111 14 35 84 72 171 91 111 25 151
37 188 58 35 21 57 51 47 67 -3 6 -1 10 4 10 6 0 11 -8 11 -18 0 -9 11 -34 25
-54 14 -20 25 -41 25 -46 0 -16 137 -215 199 -289 72 -85 281 -276 327 -298
18 -8 34 -19 36 -23 2 -5 25 -23 53 -42 59 -40 83 -59 103 -82 8 -9 21 -14 27
-11 7 2 16 0 20 -6 3 -6 15 -11 25 -11 10 0 25 -7 33 -15 8 -8 17 -11 21 -8 3
4 6 1 6 -6 0 -7 -18 -20 -40 -28 -22 -9 -42 -24 -45 -34 -4 -11 -28 -41 -55
-68 -47 -48 -64 -56 -195 -97 -33 -10 -71 -29 -85 -41 l-25 -22 38 -16 c45
-19 136 -37 148 -30 4 3 45 8 91 11 46 2 97 7 113 10 99 16 386 -6 545 -42 36
-8 81 -25 100 -38 19 -12 71 -37 115 -55 44 -18 96 -42 115 -53 32 -19 145
-62 198 -75 12 -3 22 -10 22 -15 0 -5 4 -7 9 -3 5 3 16 -1 24 -9 8 -9 18 -11
23 -6 9 8 224 -91 258 -119 8 -7 42 -15 75 -17 53 -4 65 -2 109 26 27 16 53
30 58 30 4 0 22 13 39 30 16 16 65 53 107 82 180 124 248 176 336 256 50 46
92 90 92 97 0 7 54 64 120 126 66 62 120 117 120 123 0 18 137 149 148 142 5
-3 25 12 45 34 19 22 40 40 45 40 5 0 37 35 70 78 33 42 79 96 104 118 24 22
42 46 40 52 -2 7 1 12 7 12 15 0 44 59 37 76 -3 7 0 13 7 11 12 -2 39 66 67
178 18 69 18 70 -1 90 -20 20 -20 20 -13 -9 7 -31 -8 -110 -37 -196 l-19 -55
6 45 c3 25 10 74 14 110 5 36 13 79 18 96 6 18 8 59 6 93 -3 45 2 76 16 114
11 29 20 62 20 75 0 19 4 22 28 16 52 -12 93 -37 119 -71 31 -41 69 -62 103
-58 14 2 35 4 48 4 21 1 22 5 22 68 0 37 -6 85 -14 108 -38 108 -76 277 -80
359 -4 81 -9 97 -45 167 -23 43 -41 85 -41 93 0 8 -14 55 -30 105 -17 49 -32
102 -34 118 -2 15 -7 39 -10 53 -6 21 -13 65 -15 93 -2 24 -35 -3 -47 -38 -23
-67 -26 -125 -11 -230 8 -55 14 -101 13 -101 0 -1 -32 -11 -71 -21 -45 -13
-70 -25 -70 -34 0 -15 11 -15 89 -2 33 5 52 15 60 28 6 11 17 24 24 28 9 6 11
18 7 35 -4 15 -8 41 -10 57 -1 17 -6 61 -10 99 -7 61 -6 68 6 56 8 -7 13 -25
11 -39 -1 -14 8 -59 22 -100 15 -41 26 -82 26 -91 0 -22 37 -107 50 -115 19
-12 10 -31 -20 -42 -38 -14 -48 -53 -26 -100 14 -29 20 -33 39 -27 12 4 24 11
25 15 9 23 22 5 22 -28 1 -41 32 -175 75 -318 34 -115 40 -145 27 -145 -6 0
-14 5 -17 11 -5 7 -13 5 -25 -6 -17 -15 -22 -12 -85 49 -36 36 -87 78 -113 93
-26 15 -56 38 -67 52 -11 13 -28 31 -38 40 -10 9 -20 33 -24 54 -5 36 -36 67
-47 48 -11 -17 28 -107 65 -151 31 -36 36 -46 23 -50 -22 -8 -47 -82 -31 -92
12 -7 11 -83 -3 -108 -6 -10 -15 -2 -37 33 -18 30 -33 45 -42 42 -7 -3 -20 0
-27 6 -19 16 -97 4 -151 -22 -45 -22 -103 -94 -103 -129 0 -11 -9 -24 -20 -30
-11 -6 -20 -20 -20 -30 0 -11 -6 -20 -12 -20 -7 0 -26 -16 -41 -36 -16 -19
-63 -74 -105 -122 -43 -48 -92 -105 -111 -127 -27 -31 -30 -33 -16 -10 10 17
25 39 35 50 31 37 109 176 155 277 38 84 56 110 119 174 48 48 85 76 105 80
23 5 34 16 49 48 47 99 54 135 47 246 -4 58 -12 110 -17 117 -5 7 -7 21 -3 32
3 11 0 33 -7 48 -7 15 -12 50 -10 77 3 39 7 49 24 54 22 5 22 0 -8 133 -20 85
-12 141 10 79 8 -19 25 -61 40 -93 14 -32 26 -71 26 -87 0 -41 17 -80 35 -80
13 0 14 10 9 63 -4 46 -19 90 -60 175 -30 62 -54 118 -54 126 0 23 -26 38 -38
23 -13 -15 -26 -102 -25 -167 0 -25 0 -88 1 -140 0 -52 0 -104 0 -115 0 -11 3
-90 7 -175 3 -85 3 -174 0 -197 -7 -47 -43 -98 -107 -149 -43 -34 -69 -45 -51
-21 24 30 54 157 56 234 2 45 6 85 9 89 4 3 4 12 1 20 -3 8 0 14 7 14 10 0 10
3 0 15 -7 8 -9 15 -4 15 16 0 8 279 -9 350 -9 36 -17 79 -17 97 0 17 -4 35
-10 38 -5 3 -10 19 -10 35 0 16 -9 55 -21 87 -23 62 -137 321 -149 338 -4 6
-19 32 -34 58 -14 26 -34 59 -43 74 l-17 26 44 -29 c43 -29 46 -29 184 -29
131 1 146 3 216 30 41 15 85 39 98 52 26 26 32 28 32 11 1 -39 115 -117 174
-119 70 -2 81 -11 82 -62 1 -31 8 -55 20 -68 28 -32 100 -79 119 -79 14 0 16
-6 11 -35 -7 -38 12 -78 45 -96 18 -9 19 -4 19 75 l0 85 -40 11 c-53 14 -110
71 -110 110 0 46 17 78 50 95 17 9 28 20 25 25 -10 17 -58 11 -94 -11 -39 -24
-93 -20 -161 10 -54 24 -79 60 -91 130 -9 51 -8 67 7 107 10 26 26 54 35 63
13 11 15 21 9 31 -8 13 -13 13 -36 0 -15 -8 -30 -22 -35 -30 -17 -35 -49 -110
-49 -118 0 -24 -36 -76 -79 -115 -59 -53 -112 -67 -231 -63 -119 5 -149 17
-217 87 -60 62 -82 98 -83 136 0 27 -14 36 -41 28 -18 -6 -21 -13 -16 -44 3
-20 8 -43 12 -52 3 -9 -29 18 -72 60 -108 105 -142 133 -268 223 -60 42 -118
83 -129 90 -16 12 -14 13 20 12 21 -1 66 7 100 17 73 23 97 53 116 143 11 48
10 63 -6 110 -23 67 -80 127 -143 151 -27 9 -76 28 -110 41 -34 13 -73 24 -87
24 -21 0 -26 5 -26 25 0 37 -22 85 -72 156 -24 34 -55 79 -69 101 -32 48 -78
87 -145 120 l-52 25 49 12 c27 7 62 25 79 41 29 27 30 30 24 91 -9 104 -58
189 -175 303 -53 52 -93 98 -89 103 4 4 28 46 52 93 133 252 305 550 317 550
3 0 22 -5 42 -10 25 -7 36 -16 35 -27 -1 -14 10 -18 49 -21 49 -4 72 -19 56
-35 -11 -11 -81 8 -138 39 -25 13 -49 21 -52 18 -9 -9 49 -52 94 -70 23 -8 45
-25 50 -36 6 -13 26 -26 49 -32 30 -9 41 -18 47 -39 11 -39 -7 -43 -27 -6 -15
29 -17 31 -26 15 -8 -15 -4 -24 19 -48 16 -16 40 -30 54 -30 13 -1 36 -10 51
-21 16 -10 36 -16 46 -13 13 4 28 -8 56 -47 21 -28 53 -63 72 -77 31 -22 64
-67 64 -85 0 -6 -24 -5 -203 11 l-78 7 6 -124 c3 -68 8 -133 10 -144 3 -16
-23 -48 -104 -129 -107 -108 -108 -110 -106 -154 2 -54 11 -60 107 -72 197
-24 272 -39 280 -54 5 -9 20 -16 34 -16 14 0 47 -10 75 -21 40 -17 52 -19 64
-9 8 7 15 16 15 21 0 5 18 47 40 94 52 112 137 201 192 203 22 1 38 -4 41 -12
5 -13 61 -46 79 -46 12 0 10 68 -3 91 -5 11 -22 24 -36 30 -25 9 -25 10 -8 29
17 19 17 21 2 38 -20 22 -23 39 -4 23 19 -15 37 5 37 41 0 34 6 35 61 3 24
-14 57 -25 73 -25 16 0 59 -12 94 -26 45 -18 76 -24 99 -21 18 3 64 -1 101 -8
37 -8 98 -15 135 -15 61 0 69 2 74 20 3 12 23 30 44 40 25 13 36 25 33 34 -4
11 6 18 35 26 58 15 101 55 101 92 0 25 -3 29 -17 22 -10 -4 -97 -9 -193 -11
-135 -2 -189 1 -235 13 -33 9 -70 17 -82 17 -13 1 -23 6 -23 10 0 5 24 7 53 5
48 -3 52 -1 55 20 2 12 -6 37 -17 55 -15 25 -19 46 -17 87 4 51 8 59 61 113
41 41 63 57 83 57 15 0 41 7 57 16 19 10 56 16 103 16 64 0 78 -3 120 -31 l47
-31 3 26 c5 37 -3 51 -39 70 -36 18 -202 22 -223 5 -6 -5 -39 -16 -73 -24 -76
-17 -156 -73 -184 -129 -17 -32 -20 -55 -18 -114 l3 -74 -38 -19 c-36 -19 -40
-19 -72 -4 -27 13 -32 21 -28 38 4 16 -3 29 -25 48 -35 29 -40 47 -12 47 10 0
24 7 31 15 11 13 7 22 -23 53 -21 21 -37 43 -37 48 0 6 18 16 40 23 40 12 60
34 60 69 0 12 24 34 68 63 50 33 74 58 94 94 15 28 28 57 28 66 0 9 18 36 41
60 45 49 74 108 61 121 -6 6 16 33 51 66 123 116 171 182 148 205 -13 13 26
65 64 84 65 33 113 103 70 103 -14 0 -172 -24 -222 -34 -13 -3 -25 -1 -28 4
-3 4 23 13 58 19 95 17 207 54 207 69 0 7 -4 11 -8 8 -4 -2 -66 -7 -137 -11
-137 -6 -160 -11 -319 -69 -113 -41 -113 -41 -96 -21 11 13 11 23 0 55 -18 54
-40 72 -84 68 l-35 -3 33 -50 c20 -29 30 -53 24 -56 -5 -3 -8 -16 -6 -29 2
-18 -5 -25 -46 -41 -27 -10 -54 -23 -60 -29 -5 -5 -20 -10 -33 -10 -13 0 -50
-11 -83 -24 -33 -14 -62 -20 -65 -15 -7 11 -56 12 -70 1 -26 -18 -65 -83 -79
-130 -11 -40 -13 -65 -6 -109 9 -52 0 -165 -16 -206 -7 -20 -27 -27 -43 -17
-9 5 -11 20 -7 46 3 22 12 72 18 112 9 58 9 80 -1 110 -17 48 -63 122 -76 122
-6 0 -27 11 -47 25 -42 28 -66 31 -93 11 -17 -12 -15 -14 26 -21 70 -11 117
-50 151 -123 24 -53 28 -69 19 -90 -5 -15 -13 -47 -16 -72 -3 -25 -13 -62 -22
-82 -13 -31 -13 -40 -3 -53 15 -19 103 -21 117 -2 18 22 26 90 25 212 -2 109
1 125 23 171 33 67 47 79 74 62 17 -11 26 -10 53 3 54 26 81 37 113 44 16 4
50 15 75 26 25 11 59 26 75 34 30 13 206 75 213 75 3 0 -1 -7 -8 -15 -7 -8
-17 -15 -22 -15 -5 0 -29 -14 -53 -30 -25 -17 -113 -53 -207 -84 -153 -51
-165 -56 -191 -92 -15 -22 -38 -52 -52 -69 -23 -26 -25 -38 -24 -115 1 -131
-13 -196 -57 -255 -23 -31 -34 -91 -20 -113 4 -7 15 -12 26 -12 11 0 22 -11
29 -30 5 -16 16 -30 24 -30 11 0 13 -11 9 -49 -3 -40 -1 -52 16 -69 13 -13 28
-19 41 -15 17 4 21 1 21 -21 0 -27 -14 -35 -24 -13 -3 6 -3 -26 0 -73 3 -47 6
-136 7 -199 l2 -114 -25 -2 c-14 -1 -30 2 -37 7 -17 14 -33 1 -33 -27 0 -48
-17 -32 -40 36 -12 38 -34 87 -48 107 -20 28 -27 53 -30 102 -4 82 -7 91 -27
83 -13 -5 -16 -18 -13 -64 3 -66 -5 -73 -30 -30 -16 29 -49 51 -76 51 -7 0
-44 30 -83 68 -97 94 -137 177 -137 287 0 48 5 90 13 105 24 46 84 130 92 130
14 0 37 53 55 124 16 63 16 68 -1 86 -30 33 -52 34 -103 2 -62 -39 -92 -48
-92 -28 0 9 6 16 14 16 21 0 41 29 29 41 -7 7 -32 4 -77 -7 -91 -23 -110 -2
-23 26 29 9 42 21 53 45 18 44 59 75 100 75 35 0 104 28 104 42 0 9 -14 11
-23 2 -3 -3 -28 -7 -55 -9 -87 -6 -166 -56 -167 -105 0 -8 -10 -16 -23 -18
-13 -2 -41 -21 -63 -43 -32 -32 -38 -43 -30 -58 9 -16 7 -17 -14 -13 -13 2
-30 10 -36 18 -6 8 -17 14 -24 14 -7 0 -29 24 -49 54 -49 74 -90 113 -126 121
-34 7 -39 19 -12 30 23 11 50 7 90 -11 36 -17 52 -12 52 16 0 10 4 21 9 24 4
3 11 29 15 58 4 28 15 65 24 80 17 30 74 72 108 81 10 2 -1 5 -25 6 -75 2
-139 -64 -161 -167 -11 -50 -12 -50 -45 -45 -35 6 -117 -20 -135 -42 -8 -10
-27 -7 -90 16 -44 15 -88 33 -99 38 -29 16 -100 13 -153 -6 -55 -19 -64 -36
-15 -25 17 4 57 7 87 7 55 0 66 -4 235 -93 22 -11 62 -23 90 -26 27 -2 51 -10
54 -17 2 -7 15 -23 27 -36 13 -13 24 -27 24 -30 0 -3 11 -21 25 -39 l25 -32
-25 -16 c-30 -20 -58 -14 -138 27 -37 19 -62 39 -68 54 -11 29 -35 25 -32 -6
3 -26 -7 -27 -41 0 -19 15 -26 17 -26 6 0 -17 132 -110 151 -106 17 3 119 -33
119 -42 0 -4 -7 -12 -15 -19 -13 -11 -22 -10 -51 3 -42 21 -44 21 -44 2 0 -8
10 -20 23 -26 21 -11 37 -28 37 -39 -1 -3 -7 -14 -15 -24 -13 -18 -16 -18 -40
-2 -14 9 -25 21 -25 26 0 17 28 11 40 -7 9 -15 10 -14 4 7 -3 14 -7 25 -8 25
0 0 -22 11 -48 24 -37 18 -46 27 -39 39 9 16 -47 72 -121 118 -42 27 -48 43
-18 51 16 4 18 8 9 19 -6 8 -21 14 -33 14 -26 0 -46 18 -46 41 0 33 29 27 85
-17 32 -24 59 -44 61 -44 13 0 1 37 -15 45 -91 48 -134 64 -184 71 -54 6 -59
5 -55 -12 2 -11 9 -20 16 -20 6 -1 21 -2 31 -3 10 0 28 -17 40 -36 12 -21 28
-35 40 -35 11 0 23 -4 26 -10 3 -5 1 -10 -4 -10 -19 0 -12 -18 19 -53 l29 -34
-23 -22 c-20 -19 -30 -21 -74 -15 -60 8 -110 -7 -170 -49 -43 -31 -94 -107
-107 -159 -11 -45 -30 -52 -134 -53 -53 -1 -106 -6 -117 -13 -17 -9 -29 -8
-60 8 -21 11 -49 20 -63 20 -33 0 -88 -39 -104 -72 -15 -34 -19 -35 -43 -3
-32 42 -109 54 -163 26 -25 -14 -31 -14 -31 2 -1 6 -9 30 -20 52 -11 22 -20
45 -20 50 -2 33 -91 95 -136 95 l-27 0 23 25 c13 14 29 24 36 21 28 -11 157
15 199 39 141 83 213 214 202 365 -3 42 -15 97 -26 123 -20 47 -21 47 -68 47
l-48 -1 27 -20 c21 -16 30 -36 44 -96 25 -114 11 -198 -43 -258 -10 -12 -19
-27 -21 -35 -4 -21 -69 -76 -119 -101 -31 -15 -58 -20 -105 -18 -35 2 -68 7
-75 12 -18 13 -56 -2 -49 -20 3 -8 1 -24 -5 -35 -8 -15 -17 -19 -39 -14 -36 7
-59 -16 -40 -39 7 -9 18 -14 24 -12 6 3 18 -2 27 -9 8 -8 30 -16 47 -18 68 -8
130 -85 146 -183 6 -31 3 -51 -13 -83 -17 -35 -17 -42 -5 -47 20 -8 44 15 65
63 30 66 118 89 157 40 10 -14 31 -28 45 -32 15 -3 27 -7 27 -9 0 -1 -6 -21
-14 -43 -8 -22 -17 -53 -20 -69 -3 -15 -16 -64 -29 -108 -13 -44 -27 -97 -31
-118 -6 -34 -5 -39 24 -55 24 -13 34 -29 46 -72 8 -30 19 -63 25 -73 6 -10 19
-36 30 -57 11 -21 26 -41 33 -43 24 -9 31 -157 11 -230 -22 -81 -10 -129 48
-195 23 -26 55 -76 71 -110 29 -61 29 -62 12 -94 -10 -18 -32 -42 -50 -53 -24
-16 -32 -29 -34 -57 -3 -30 1 -40 23 -54 28 -18 69 -22 98 -10 15 7 17 0 17
-77 l0 -85 -62 -45 c-35 -25 -76 -56 -92 -70 -30 -26 -93 -47 -143 -47 -33 0
-58 -14 -50 -27 8 -13 97 1 157 23 25 10 75 43 111 75 69 59 184 113 265 124
40 5 135 -22 141 -40 1 -6 -9 -17 -25 -25 -20 -12 -36 -13 -64 -6 -66 17 -144
-8 -234 -75 -47 -35 -89 -59 -105 -59 -40 0 -187 -35 -280 -66 -62 -21 -85
-25 -81 -16 4 12 -3 13 -39 6 -24 -4 -53 -6 -64 -5 -11 1 -38 1 -60 0 -22 -1
-51 -1 -65 -1 -14 1 -49 1 -79 1 -47 0 -53 2 -42 15 8 9 34 16 64 18 40 2 53
7 55 21 3 12 -5 19 -27 23 -17 4 -36 13 -42 20 -18 22 -68 16 -118 -13 l-46
-27 16 25 c24 36 89 77 134 84 117 18 115 19 57 -9 -31 -15 -51 -30 -47 -36 4
-6 15 -8 25 -5 11 3 27 -1 37 -10 42 -37 82 -65 92 -65 22 0 10 29 -21 54
l-32 25 28 7 c20 5 44 0 79 -15 61 -25 84 -13 33 18 -37 23 -107 31 -141 17
-18 -8 -17 -7 3 11 31 29 28 41 -18 59 -22 9 -40 19 -40 23 0 4 24 8 54 9 38
2 57 -2 66 -13 7 -8 17 -15 23 -15 6 0 18 -7 28 -16 9 -8 27 -16 40 -16 23 -1
99 -63 99 -80 0 -4 -13 -5 -30 -1 -41 8 -39 -12 3 -33 17 -9 40 -23 49 -31 22
-20 33 -12 33 24 0 44 -88 143 -127 143 -18 0 -44 12 -67 31 -22 17 -51 31
-67 31 -43 2 -73 51 -67 112 3 35 0 48 -12 52 -23 9 -62 -4 -85 -28 -46 -50
-181 -28 -223 36 -12 17 -22 23 -34 19 -9 -4 -14 -2 -11 3 27 50 42 98 46 142
5 54 16 72 34 54 11 -11 52 -2 86 19 18 11 25 11 40 1 9 -7 25 -15 35 -18 9
-4 17 -11 17 -16 0 -6 -26 -7 -70 -3 -81 8 -99 -9 -22 -21 97 -15 142 -8 142
25 0 13 -9 21 -29 26 -63 14 -67 70 -5 77 19 2 39 -1 45 -8 5 -6 37 -12 72
-12 34 0 81 -7 104 -15 23 -9 50 -13 61 -10 11 2 23 0 26 -6 4 -6 17 -11 30
-11 22 0 75 -48 93 -85 6 -11 9 -40 7 -64 -2 -37 -9 -50 -40 -77 -41 -37 -52
-40 -100 -22 -17 6 -40 8 -49 4 -55 -21 86 -47 147 -27 19 6 49 27 68 46 53
55 52 155 -4 211 -21 21 -74 44 -102 44 -18 0 -25 4 -21 14 8 22 -15 37 -135
90 -43 19 -41 16 -28 52 9 23 7 33 -11 58 -13 16 -65 93 -117 171 -52 77 -116
167 -142 200 -44 56 -46 62 -33 85 21 38 11 113 -21 154 l-26 35 20 33 c11 18
20 42 20 53 0 11 7 29 15 39 22 29 19 49 -5 43 -12 -3 -20 0 -20 7 0 30 -96
78 -185 91 -62 10 -75 21 -47 40 26 19 30 71 7 101 -18 24 -19 34 -2 34 8 0
28 18 45 39 18 22 42 43 54 47 21 6 57 42 58 57 0 14 -24 7 -47 -15 l-23 -22
-20 22 c-12 12 -25 22 -31 22 -6 0 -7 5 -3 11 4 8 9 8 17 0 20 -20 66 -12 90
14 12 14 45 49 73 78 68 69 81 94 96 171 7 36 18 66 24 66 23 0 57 55 111 180
29 66 33 80 24 80 -5 0 -29 -43 -55 -95 -26 -52 -51 -97 -57 -100 -17 -11 -1
66 18 89 17 18 53 89 53 101 0 18 -20 -2 -45 -44 -17 -27 -38 -54 -48 -61 -17
-10 -18 -9 -12 12 4 13 16 37 26 54 23 38 23 44 5 44 -8 0 -27 -18 -43 -40
-15 -22 -56 -58 -91 -81 -72 -45 -76 -74 -5 -34 25 14 47 25 49 25 3 0 -7 -18
-21 -39 -15 -21 -57 -59 -94 -84 -58 -39 -69 -43 -85 -31 -10 7 -25 10 -34 8
-20 -6 -1 10 66 56 32 23 42 37 42 58 1 23 9 31 53 53 58 29 118 101 90 107
-8 2 -28 -12 -44 -32 -30 -35 -175 -116 -208 -116 -9 0 21 19 67 41 60 30 82
46 82 60 0 11 7 22 15 25 8 4 15 10 15 15 0 12 -33 12 -45 0z m3603 -56 c-11
-12 -171 -45 -211 -45 -36 1 -39 2 -23 12 36 20 110 36 175 37 35 1 62 -1 59
-4z m100 -67 c-6 -17 -103 -66 -145 -74 -33 -6 -33 -6 -27 27 8 42 4 38 55 48
69 14 121 13 117 -1z m-3878 -13 c0 -11 -59 -34 -65 -25 -3 6 4 14 17 19 26
11 48 13 48 6z m3540 -5 c0 -7 18 -8 50 -4 52 7 55 5 62 -40 2 -14 -12 -29
-55 -54 -54 -32 -60 -34 -115 -26 -31 4 -48 9 -37 11 56 12 93 25 123 43 27
17 31 24 22 35 -8 10 -26 12 -66 8 -60 -6 -67 -1 -26 21 33 18 42 19 42 6z
m-3426 -19 c8 -13 -50 -60 -99 -81 -50 -22 -115 -34 -115 -22 0 33 14 72 25
68 7 -2 43 6 81 19 75 26 100 30 108 16z m197 -68 c-11 -22 -27 -45 -35 -52
-9 -8 -16 -19 -16 -25 0 -7 -13 -25 -30 -41 -32 -31 -39 -51 -15 -41 8 3 15 0
15 -7 -1 -21 -77 -70 -115 -74 -44 -4 -40 5 19 47 23 17 58 56 77 86 91 147
113 179 117 162 2 -9 -6 -34 -17 -55z m-431 42 c0 -8 -4 -15 -10 -15 -5 0 -10
7 -10 15 0 8 5 15 10 15 6 0 10 -7 10 -15z m3640 -14 c0 -14 -57 -33 -79 -26
-12 3 -26 3 -32 -1 -7 -4 -30 -8 -53 -10 l-41 -3 32 15 c18 8 61 17 95 20 35
3 65 7 67 10 7 6 11 5 11 -5z m-4453 -16 c19 -6 41 -51 30 -62 -6 -5 -57 19
-57 27 0 4 -9 10 -20 13 -11 3 -20 12 -20 21 0 17 17 17 67 1z m748 -5 c-3 -5
-11 -10 -16 -10 -6 0 -7 5 -4 10 3 6 11 10 16 10 6 0 7 -4 4 -10z m3915 -30
c-12 -9 -38 -25 -58 -36 -21 -10 -63 -33 -94 -51 -31 -18 -60 -33 -65 -33 -13
0 -13 59 0 67 7 4 33 15 59 25 26 9 60 25 76 36 30 22 94 33 101 18 2 -5 -6
-16 -19 -26z m-3885 -10 c-30 -31 -87 -56 -105 -45 -14 8 6 35 26 35 7 0 28 9
46 20 50 30 67 25 33 -10z m3573 -7 c-2 -13 5 -19 25 -21 15 -2 27 -9 27 -16
0 -16 -80 -60 -156 -86 -73 -26 -94 -26 -94 0 0 11 -4 20 -10 20 -5 0 -10 4
-10 9 0 4 18 11 41 14 54 7 150 55 156 78 7 24 25 25 21 2z m-3213 -22 c-4 -9
-7 -20 -8 -25 -4 -18 -122 -126 -179 -164 -32 -20 -58 -40 -58 -44 0 -12 38
-9 46 3 9 16 26 -5 18 -24 -3 -9 -28 -23 -55 -32 -54 -18 -60 -28 -28 -45 20
-11 20 -12 3 -31 -9 -10 -25 -19 -34 -19 -14 0 -17 8 -15 51 2 29 10 58 19 68
9 10 16 27 16 38 0 13 8 23 23 27 67 16 160 122 120 137 -11 4 1 17 43 46 59
40 102 47 89 14z m3136 10 c-29 -22 -115 -54 -150 -55 -32 -1 -59 30 -42 47 8
8 16 8 28 1 12 -7 33 -5 77 7 34 10 72 18 86 18 l25 1 -24 -19z m-4082 -7 c12
-10 -14 -20 -41 -15 -48 10 -50 34 -2 25 22 -4 41 -8 43 -10z m-191 -65 c3
-19 1 -21 -25 -15 -32 8 -103 52 -103 64 0 19 14 18 68 -4 42 -17 58 -29 60
-45z m882 54 c0 -17 10 -16 32 4 10 9 18 11 18 5 0 -17 -72 -72 -95 -72 -19 0
-60 54 -51 68 8 13 96 8 96 -5z m97 -7 c-3 -8 -16 -20 -27 -26 -22 -12 -22
-11 1 19 23 31 36 35 26 7z m241 -58 l-24 -53 1 42 c0 26 8 50 20 63 29 32 30
8 3 -52z m-558 18 c0 -18 -21 -35 -35 -30 -10 4 -10 12 -2 34 8 22 14 27 24
18 7 -6 13 -16 13 -22z m108 -5 c-4 -20 -51 -43 -79 -39 -18 3 -18 5 9 35 22
23 36 30 51 26 13 -3 21 -12 19 -22z m3282 8 c0 -11 -14 -38 -32 -60 -27 -33
-34 -37 -45 -26 -12 12 -11 20 8 53 13 21 28 42 34 46 19 14 35 8 35 -13z
m598 3 c-19 -28 -219 -212 -229 -212 -5 0 -32 -11 -61 -24 -85 -39 -208 -61
-208 -37 0 12 25 21 57 21 74 0 222 85 195 112 -9 9 4 18 51 38 34 14 91 47
127 72 71 50 88 58 68 30z m-4571 -7 c3 -9 3 -18 0 -21 -9 -9 -48 16 -42 27 9
14 35 11 42 -6z m4483 -5 c-37 -28 -111 -66 -145 -74 -42 -10 -20 7 35 27 25
9 63 28 85 42 48 29 59 32 25 5z m-450 -10 c0 -5 -4 -10 -10 -10 -5 0 -10 5
-10 10 0 6 5 10 10 10 6 0 10 -4 10 -10z m290 1 c0 -14 -100 -101 -115 -101
-8 0 -15 10 -17 23 -3 18 7 27 57 53 68 35 75 37 75 25z m-4202 -25 c7 -4 12
-15 12 -26 0 -17 -3 -17 -45 -4 -25 7 -53 20 -61 29 -14 13 -10 15 33 12 27
-2 54 -7 61 -11z m705 -7 c-24 -10 -43 -23 -43 -29 0 -15 12 -12 64 15 26 14
50 25 53 25 11 0 -28 -38 -68 -66 l-39 -27 -21 27 c-12 15 -32 32 -45 36 -34
13 -30 31 5 24 16 -3 31 -2 34 2 3 5 27 9 54 10 l48 1 -42 -18z m-843 -9 c0
-5 -2 -10 -4 -10 -3 0 -8 5 -11 10 -3 6 -1 10 4 10 6 0 11 -4 11 -10z m4050
-5 c0 -16 -47 -55 -66 -55 -19 0 -18 6 6 38 22 29 60 40 60 17z m-3426 -10 c3
-8 1 -15 -3 -15 -5 0 -11 7 -15 15 -3 8 -1 15 3 15 5 0 11 -7 15 -15z m-44 1
c0 -3 -4 -8 -10 -11 -5 -3 -10 -1 -10 4 0 6 5 11 10 11 6 0 10 -2 10 -4z
m3594 -44 c-9 -13 -28 -18 -85 -20 l-74 -2 31 20 c17 11 48 22 69 25 21 2 40
7 43 10 13 13 26 -16 16 -33z m-4042 0 c21 -20 21 -22 3 -28 -23 -9 -127 27
-133 45 -8 24 105 9 130 -17z m972 13 c-4 -8 -11 -15 -16 -15 -6 0 -5 6 2 15
7 8 14 15 16 15 2 0 1 -7 -2 -15z m-391 -4 c30 -12 44 -61 17 -61 -27 0 -30
-10 -15 -41 16 -30 20 -68 8 -70 -5 0 -18 -2 -30 -3 -13 -2 -26 -5 -29 -9 -10
-10 7 -29 22 -23 18 7 31 -21 17 -35 -7 -7 -24 -4 -52 7 -43 17 -68 11 -41 -9
8 -7 16 -23 18 -36 3 -27 28 -50 55 -51 9 0 26 -9 37 -20 25 -25 37 -25 45 1
7 20 7 20 20 2 7 -10 13 -29 13 -43 0 -25 -2 -26 -92 -28 -93 -3 -120 -12 -98
-34 8 -8 15 -9 23 -1 15 15 59 4 59 -16 -1 -9 -9 -56 -19 -106 -17 -88 -18
-89 -26 -50 -10 51 -12 55 -31 48 -10 -4 -13 -14 -10 -32 3 -14 8 -45 11 -68
7 -47 21 -55 35 -20 5 13 9 16 9 6 1 -19 -18 -39 -39 -39 -18 0 -40 75 -40
137 0 31 2 34 28 33 41 -3 52 -1 52 10 0 6 -10 10 -21 10 -19 0 -20 2 -8 16
12 15 7 16 -66 10 -71 -5 -85 -3 -124 16 -50 26 -65 48 -31 48 15 0 20 5 18
18 -3 14 -15 17 -81 16 -42 -1 -77 0 -77 3 0 2 7 17 15 33 12 23 24 30 60 36
43 6 49 4 95 -35 44 -37 52 -40 70 -29 11 7 20 18 20 25 0 15 -57 63 -75 63
-8 0 -17 5 -20 10 -4 6 5 10 21 10 19 0 39 -12 65 -41 38 -41 40 -42 119 -46
65 -4 80 -2 80 10 0 10 -18 16 -62 21 -49 5 -68 12 -91 34 -25 23 -28 33 -24
69 2 23 0 46 -5 51 -6 6 0 29 16 63 15 29 26 70 26 93 0 31 3 37 12 28 16 -16
38 -15 38 2 0 8 12 17 28 19 15 2 28 5 29 6 1 0 13 -3 26 -8z m2525 -23 c-3
-7 -20 -14 -39 -16 l-34 -2 25 15 c31 18 53 19 48 3z m220 -10 c6 -32 -30
-131 -62 -167 -18 -20 -50 -64 -71 -99 -36 -59 -38 -67 -38 -145 -1 -59 4 -91
17 -116 13 -24 15 -36 6 -45 -19 -19 -64 14 -68 49 -5 53 -21 72 -64 78 -57 8
-75 28 -20 23 23 -3 46 -8 52 -11 17 -11 60 4 60 20 0 20 -17 27 -39 16 -14
-8 -22 -7 -32 5 -11 14 -10 18 4 29 9 7 17 18 17 25 0 8 8 10 25 6 20 -5 25
-3 25 14 0 13 -9 21 -27 25 -58 12 -78 21 -81 38 -2 10 1 16 6 15 6 -2 10 0
11 5 3 21 -1 27 -18 27 -25 0 -43 24 -39 52 3 21 11 15 74 -49 38 -40 73 -73
77 -73 16 0 4 37 -21 66 -49 57 -97 86 -132 80 -44 -6 -47 -12 -21 -46 l22
-30 -25 0 c-14 0 -28 5 -31 10 -8 12 -16 12 -34 1 -22 -14 3 -39 45 -47 25 -4
39 -15 50 -35 l15 -29 -43 0 c-24 1 -54 7 -67 14 -14 8 -30 12 -37 9 -28 -11
-22 20 17 83 22 37 46 73 53 80 8 7 12 32 11 58 -2 48 3 53 35 36 10 -6 30
-11 44 -12 15 -1 26 -7 26 -12 0 -5 18 -28 40 -52 22 -24 40 -48 40 -54 0 -14
41 -70 52 -70 25 0 -24 109 -66 149 -35 33 -33 42 12 41 58 -1 122 16 146 39
24 24 49 24 54 -1z m428 -15 c-11 -11 -19 6 -11 24 8 17 8 17 12 0 3 -10 2
-21 -1 -24z m414 27 c13 -9 13 -10 0 -10 -8 0 -26 -3 -40 -6 -24 -5 -24 -5 -6
10 23 19 26 19 46 6z m-3270 -18 c0 -5 -16 -17 -35 -28 -19 -10 -35 -25 -35
-33 0 -11 -3 -12 -11 -4 -18 18 -1 50 34 61 42 13 47 14 47 4z m3165 -23 c-4
-5 -19 -9 -34 -9 -15 0 -38 -9 -51 -20 -26 -22 -70 -27 -70 -7 0 24 24 37 70
37 25 0 52 4 60 9 16 11 33 4 25 -10z m91 -7 c-7 -11 -91 -42 -114 -42 -21 0
5 30 27 31 9 0 32 6 51 13 38 13 45 13 36 -2z m-286 -3 c0 -3 -11 -11 -25 -17
-18 -9 -30 -8 -49 2 -14 7 -24 15 -21 17 6 7 95 5 95 -2z m-1279 -9 c10 -6 19
-19 19 -29 0 -11 14 -31 31 -45 20 -18 29 -32 25 -43 -8 -19 19 -63 38 -63 8
0 16 -10 20 -22 4 -17 -2 -29 -24 -46 -17 -13 -30 -28 -30 -33 0 -6 -20 -39
-45 -75 -25 -35 -45 -66 -45 -70 0 -3 -10 -20 -23 -37 -12 -18 -27 -41 -34
-52 -7 -11 -29 -48 -49 -82 l-37 -62 -39 97 c-22 53 -55 127 -73 164 -19 37
-35 77 -35 89 0 13 -17 38 -41 61 -37 36 -41 43 -36 75 4 20 19 53 35 72 25
31 36 36 73 37 24 1 60 3 79 4 56 3 61 2 71 -29 8 -21 19 -32 40 -36 40 -9 45
-2 31 38 -17 49 -15 85 6 90 9 3 18 5 20 6 2 0 12 -4 23 -9z m323 2 c3 -5 2
-18 -1 -31 -4 -16 -10 -20 -25 -15 -13 4 -24 -1 -33 -13 -19 -24 -19 -13 -1
22 20 38 48 56 60 37z m-2861 -8 c20 -4 37 -12 37 -19 0 -8 -9 -10 -24 -8 -14
3 -44 -5 -70 -18 -38 -19 -50 -20 -71 -11 -70 32 24 73 128 56z m822 -14 c-3
-5 -14 -10 -23 -9 -14 0 -13 2 3 9 27 11 27 11 20 0z m2913 -33 c2 -11 -3 -17
-17 -17 -23 0 -35 15 -26 31 10 15 39 6 43 -14z m482 -6 c0 -26 -144 -151
-175 -151 -7 0 -20 -9 -30 -20 -10 -11 -26 -20 -36 -20 -10 0 -21 -5 -25 -12
-11 -17 68 -4 116 20 32 15 40 17 40 5 0 -23 -82 -97 -137 -122 -50 -23 -51
-23 -77 -5 -29 21 -33 34 -11 34 8 0 19 9 25 21 14 26 0 45 -41 54 -45 10 -46
26 -1 19 29 -4 52 -1 86 14 52 24 60 42 17 42 -17 0 -33 5 -36 10 -3 6 3 10
14 10 12 0 26 9 33 20 7 11 23 20 36 20 37 0 134 31 162 51 28 20 40 24 40 10z
m-4165 -11 c4 -6 -10 -10 -34 -10 -23 0 -41 5 -41 10 0 6 15 10 34 10 19 0 38
-4 41 -10z m3765 -15 c16 -8 52 -20 80 -26 27 -6 50 -15 50 -20 0 -12 -73 -12
-119 1 -20 5 -49 12 -66 16 -29 6 -30 6 -7 17 12 5 22 14 22 19 0 11 7 10 40
-7z m-3077 -9 c8 -20 -16 -49 -38 -45 -10 2 -22 16 -26 32 -7 25 -5 27 26 27
19 0 35 -6 38 -14z m1987 -96 c-34 -55 -64 -99 -67 -97 -2 3 17 40 43 83 72
121 75 126 81 121 3 -3 -23 -51 -57 -107z m-2763 76 c11 -11 -10 -26 -27 -21
-11 3 -41 -5 -70 -20 -52 -27 -90 -30 -97 -8 -5 13 45 42 92 54 29 8 93 5 102
-5z m3733 -7 c0 -5 -4 -9 -10 -9 -5 0 -10 7 -10 16 0 8 5 12 10 9 6 -3 10 -10
10 -16z m-3577 -50 c15 -23 26 -43 25 -44 -37 -23 -133 -64 -140 -57 -13 13
21 53 58 68 19 8 34 18 34 23 0 18 -26 17 -87 -3 -64 -21 -85 -18 -63 9 19 23
60 40 105 43 38 2 43 0 68 -39z m3627 11 c25 -25 26 -40 1 -40 -12 0 -26 12
-35 30 -12 26 -12 30 0 30 8 0 23 -9 34 -20z m-3055 -11 c4 -6 5 -12 2 -15 -6
-6 -58 -8 -77 -3 -10 2 -14 -2 -14 -13 2 -22 -19 -23 -36 -3 -22 26 8 42 82
44 20 0 40 -4 43 -10z m2044 -85 c-28 -49 -73 -125 -100 -169 -26 -44 -56 -96
-65 -115 -10 -19 -34 -62 -53 -95 -20 -33 -46 -80 -59 -105 -12 -25 -27 -52
-32 -60 -10 -15 -80 -137 -147 -255 -19 -33 -41 -66 -50 -72 -19 -15 -43 -17
-43 -4 0 10 80 141 121 196 16 22 50 76 75 120 26 44 54 91 63 105 10 14 28
45 41 70 13 25 47 81 76 125 72 112 166 262 194 312 13 24 25 41 27 40 1 -2
-20 -44 -48 -93z m944 70 c-4 -12 -8 -13 -14 -3 -9 15 -2 32 11 24 5 -3 6 -13
3 -21z m247 -11 c11 -10 -27 -21 -59 -17 -32 4 -71 28 -71 44 0 6 120 -19 130
-27z m-4017 -4 c4 -15 -2 -25 -26 -40 -65 -39 -93 -11 -34 35 39 31 53 32 60
5z m-133 -26 c0 -21 -19 -24 -29 -4 -17 32 -14 43 9 29 11 -7 20 -18 20 -25z
m903 -35 c13 -19 0 -71 -16 -65 -7 2 -11 18 -9 39 2 25 -1 37 -12 41 -9 4 -16
12 -16 18 0 14 39 -10 53 -33z m-713 25 c0 -12 -117 -123 -129 -123 -30 0 14
64 70 101 45 30 59 35 59 22z m3726 -70 c6 -51 -9 -108 -26 -98 -11 7 -13 80
-3 139 8 48 21 29 29 -41z m76 62 c12 -3 25 -10 28 -16 4 -6 22 -14 39 -18 18
-3 32 -11 32 -16 -1 -19 -47 -16 -71 5 -13 11 -34 23 -47 26 -13 4 -23 13 -23
21 0 8 4 11 10 8 5 -3 20 -8 32 -10z m-144 -49 c-14 -54 -33 -62 -25 -10 6 34
25 69 34 61 2 -3 -2 -25 -9 -51z m-1480 36 c9 -7 8 -13 -7 -26 -26 -24 -43
-77 -40 -120 2 -19 1 -38 -3 -41 -15 -15 -27 37 -23 95 4 48 10 66 27 81 26
21 28 22 46 11z m-396 -14 c11 -9 17 -38 21 -100 6 -83 5 -88 -13 -88 -18 0
-20 7 -20 81 0 72 -2 81 -20 86 -21 5 -25 15 -13 26 10 11 28 8 45 -5z m1238
-9 c0 -6 -4 -7 -10 -4 -5 3 -10 11 -10 16 0 6 5 7 10 4 6 -3 10 -11 10 -16z
m-1103 -30 c2 -13 6 -52 9 -85 6 -58 5 -62 -16 -69 -33 -10 -42 7 -48 86 -4
62 -2 74 14 86 24 18 37 12 41 -18z m113 -6 c1 -21 3 -62 5 -90 3 -47 2 -53
-16 -53 -17 0 -19 8 -19 90 0 73 3 90 15 90 11 0 15 -11 15 -37z m-2020 10
c-1 -18 -78 -95 -84 -85 -4 6 10 29 30 52 34 37 55 50 54 33z m74 -35 c-9 -57
-22 -80 -42 -76 -34 7 -2 118 34 118 11 0 13 -10 8 -42z m2146 7 c0 -19 5 -35
10 -35 6 0 10 -4 10 -10 0 -5 -9 -10 -19 -10 -11 0 -23 -4 -26 -10 -10 -16
-35 -12 -35 6 0 20 41 94 52 94 4 0 8 -16 8 -35z m438 -2 c-8 -10 -37 -54 -63
-98 -27 -44 -77 -127 -113 -185 -35 -58 -72 -118 -82 -135 -23 -41 -202 -321
-235 -369 -14 -21 -29 -35 -32 -32 -4 3 3 16 15 29 12 13 22 26 22 30 0 3 13
26 29 49 16 24 93 147 171 273 79 127 164 264 190 305 26 41 59 95 74 118 15
24 30 41 33 38 4 -3 -1 -14 -9 -23z m1161 -42 c14 -86 14 -131 1 -131 -5 0
-12 12 -16 28 -3 15 -12 47 -19 72 -12 39 -12 47 2 62 8 9 12 22 8 27 -3 6 -2
11 3 11 5 0 14 -31 21 -69z m58 37 c-2 -7 2 -21 11 -30 8 -10 12 -25 7 -35 -6
-17 -7 -17 -21 1 -16 23 -19 76 -3 76 6 0 9 -6 6 -12z m-3241 -32 c16 -8 67
-24 114 -36 47 -12 93 -26 102 -31 10 -5 24 -9 33 -9 21 0 29 -44 17 -88 -16
-56 -63 -186 -71 -195 -4 -4 -51 8 -105 28 -54 19 -101 34 -105 33 -3 -1 -19
4 -34 10 -16 7 -33 12 -38 12 -14 0 -11 103 7 201 18 97 24 103 80 75z m1078
-2 c9 -24 7 -54 -4 -54 -5 0 -10 6 -10 13 0 6 -3 22 -6 35 -7 25 11 31 20 6z
m2055 -52 c1 -7 -3 -10 -9 -7 -5 3 -10 21 -9 38 1 31 1 31 9 7 4 -14 8 -31 9
-38z m-2100 6 c1 -5 -6 -8 -14 -8 -15 0 -21 31 -8 44 7 6 20 -17 22 -36z
m-1462 -11 c8 -5 13 -28 13 -65 0 -77 14 -121 49 -152 44 -41 45 -60 12 -157
-35 -99 -37 -113 -16 -113 8 0 15 -4 15 -10 0 -13 59 -42 75 -37 7 3 17 1 22
-4 6 -6 31 -12 55 -13 25 -2 74 -18 110 -35 36 -17 71 -31 77 -31 5 0 25 13
43 29 18 15 44 34 56 40 37 19 102 82 102 97 0 8 4 14 9 14 5 0 12 10 16 23 5
17 8 18 12 7 3 -8 15 -28 25 -43 17 -23 23 -26 35 -15 12 10 17 9 25 -6 5 -9
22 -32 37 -49 16 -18 45 -57 65 -87 76 -116 146 -216 171 -247 17 -21 24 -39
21 -51 -9 -26 -45 -58 -81 -69 -16 -5 -30 -15 -30 -21 0 -18 -13 -25 -52 -28
-21 -1 -43 -10 -50 -19 -10 -15 -12 -9 -15 36 -2 30 0 83 4 118 4 36 4 69 0
75 -4 6 -9 34 -10 61 -5 90 -53 235 -78 235 -19 0 -18 -15 6 -80 28 -77 35
-129 45 -336 9 -207 -16 -221 -54 -29 -12 61 -25 121 -30 135 -5 14 -15 46
-21 73 -10 36 -17 47 -32 47 -14 0 -18 -5 -14 -16 3 -9 9 -28 12 -42 3 -15 12
-47 20 -72 8 -25 20 -79 28 -120 8 -41 17 -86 20 -100 3 -14 -5 -2 -18 25 -14
28 -28 70 -32 95 -7 45 -44 98 -89 130 -105 72 -165 93 -252 86 -88 -8 -205 4
-199 20 3 8 -12 21 -38 33 -67 33 -85 58 -92 129 -4 34 -4 62 -1 62 3 0 18 -5
32 -10 24 -9 26 -8 20 12 -4 13 -22 38 -41 56 -18 17 -40 47 -47 65 -8 18 -33
55 -57 82 l-43 49 5 86 c7 109 23 143 80 162 38 12 44 12 52 -2 5 -8 15 -19
23 -23z m-197 -20 l22 -15 -22 -12 c-12 -6 -28 -9 -36 -6 -15 6 -19 42 -7 72
6 16 7 15 14 -3 4 -12 17 -28 29 -36z m3930 8 c-7 -8 -27 -15 -44 -15 l-31 1
40 18 c44 20 54 19 35 -4z m-200 -17 c0 -42 -19 -75 -21 -38 -1 14 -3 32 -4
40 -2 19 4 30 16 30 5 0 9 -15 9 -32z m-3490 8 c0 -3 -4 -8 -10 -11 -5 -3 -10
-1 -10 4 0 6 5 11 10 11 6 0 10 -2 10 -4z m80 -30 c4 -12 10 -55 14 -96 6 -75
19 -107 35 -81 5 7 7 34 5 59 l-4 47 15 -50 c20 -68 19 -72 -15 -90 -36 -19
-40 -19 -40 0 0 8 -8 23 -18 33 -11 11 -18 33 -18 58 -1 59 -9 122 -17 130
-14 14 -7 22 14 17 11 -3 24 -15 29 -27z m1962 19 c0 -8 1 -20 2 -27 1 -10
-78 -37 -111 -38 -23 0 -15 54 10 66 35 18 97 17 99 -1z m-1909 -34 c2 -10 1
-25 -4 -32 -6 -10 -9 -4 -9 19 0 36 5 42 13 13z m1732 14 c-5 -2 -31 -6 -57
-10 -69 -9 -82 -26 -74 -97 l7 -58 -31 0 c-39 0 -38 -16 3 -34 l32 -13 -43 1
c-57 3 -78 -20 -33 -35 17 -6 31 -15 31 -20 0 -13 44 -11 57 2 6 6 21 16 34
23 25 13 26 31 1 32 -33 2 -37 4 -23 13 9 6 14 24 13 50 -2 37 0 41 22 41 15
0 34 12 50 31 25 29 26 30 26 7 -1 -70 -56 -218 -81 -218 -5 0 -9 -7 -9 -15 0
-23 -68 -19 -109 6 -25 15 -36 17 -45 9 -8 -9 -2 -19 24 -42 31 -27 40 -29 84
-24 27 3 57 13 66 21 17 16 18 14 14 -42 -11 -132 -46 -293 -65 -293 -11 0
-64 70 -94 125 -28 52 -53 133 -61 200 -2 22 -6 55 -9 73 -2 18 -15 56 -29 85
-27 56 -40 167 -20 174 7 2 9 -8 6 -26 -6 -45 38 -86 81 -76 18 4 38 7 44 8 9
0 10 4 2 14 -7 8 -22 11 -38 7 -22 -5 -24 -4 -8 6 10 7 24 9 32 6 7 -2 15 1
18 7 7 19 -3 37 -20 37 -39 0 1 12 54 17 32 3 60 7 62 9 2 2 25 4 50 3 25 0
42 -2 36 -4z m-377 -49 c3 -28 2 -29 -28 -22 -18 3 -48 6 -66 6 -29 0 -34 3
-34 24 0 28 27 35 90 26 30 -4 36 -10 38 -34z m2072 -39 c0 -27 28 -75 50 -87
22 -12 27 -30 8 -30 -41 1 -98 98 -98 164 0 20 1 20 20 -4 11 -14 20 -33 20
-43z m75 -5 c-23 -5 -17 -41 10 -67 15 -13 22 -26 17 -29 -13 -8 -50 34 -63
71 -8 24 -7 37 1 54 l12 22 19 -24 c15 -20 16 -25 4 -27z m-1805 28 c0 -5 -5
-10 -11 -10 -5 0 -7 5 -4 10 3 6 8 10 11 10 2 0 4 -4 4 -10z m-1806 -59 c-9
-11 -21 13 -16 32 6 22 6 22 12 -3 4 -14 6 -27 4 -29z m2060 27 c26 -36 20
-48 -24 -48 -21 0 -65 -7 -96 -15 -32 -8 -60 -13 -62 -10 -10 9 30 56 56 67
29 11 80 25 99 27 6 1 19 -9 27 -21z m-605 -41 c13 -6 29 -27 37 -46 13 -30
12 -33 -2 -27 -9 4 -57 9 -105 13 -93 6 -101 12 -79 54 9 15 21 19 68 19 31 0
68 -6 81 -13z m-1054 -93 c17 -6 46 -15 65 -19 19 -4 43 -14 52 -22 16 -14 15
-17 -10 -38 -15 -13 -69 -48 -119 -79 -102 -62 -90 -61 -207 -11 -35 15 -37
17 -20 30 28 20 3 41 -56 49 -29 4 -50 12 -50 19 0 28 13 57 25 57 8 0 37 12
66 26 28 15 63 30 77 33 23 6 97 -12 177 -45z m1675 38 c0 -4 -21 -24 -47 -44
-34 -25 -62 -37 -98 -41 -27 -4 -60 -9 -72 -13 -16 -4 -23 -2 -23 8 0 23 23
47 50 51 14 2 32 7 40 10 8 3 44 12 80 21 36 8 66 15 68 15 1 1 2 -3 2 -7z
m1533 -53 c26 -6 47 -15 47 -19 0 -4 20 -20 45 -36 46 -28 53 -38 36 -49 -10
-5 -70 6 -103 20 -12 5 -20 2 -24 -10 -5 -12 5 -28 32 -52 l39 -36 -43 6 c-32
4 -45 2 -49 -9 -4 -12 -10 -11 -35 4 -41 24 -46 36 -47 129 0 45 -1 85 -2 90
-4 24 4 24 29 1 15 -15 48 -32 75 -39z m-2943 -19 c8 -29 8 -45 0 -58 -10 -15
-10 -15 -8 3 4 31 -11 49 -28 34 -8 -6 -17 -10 -20 -7 -6 6 28 68 38 68 4 0
12 -18 18 -40z m847 -4 c23 6 24 4 21 -25 l-3 -32 -92 -2 c-74 -2 -93 1 -96
13 -3 8 -8 23 -12 32 -5 14 0 17 32 20 21 2 58 0 82 -4 24 -4 54 -5 68 -2z
m542 -23 c-33 -56 -39 -60 -39 -26 0 20 7 36 23 46 36 25 40 20 16 -20z m1100
-17 c12 -19 32 -37 45 -40 31 -8 71 -62 85 -114 7 -23 16 -44 21 -47 6 -3 10
-18 10 -33 0 -15 7 -38 16 -50 18 -27 4 -29 -34 -5 -40 25 -63 51 -52 58 17
11 11 22 -34 68 -43 44 -79 106 -96 166 -12 43 12 42 39 -3z m-199 -1 c121
-11 130 -14 143 -43 17 -41 68 -124 89 -148 17 -19 17 -22 3 -34 -8 -7 -13
-16 -10 -20 3 -5 1 -11 -5 -15 -5 -3 -10 -1 -10 4 0 6 -10 11 -23 11 -13 0
-28 5 -35 12 -7 7 -37 12 -69 12 -50 -1 -54 0 -38 12 25 18 60 18 113 -3 32
-12 46 -13 54 -5 16 16 -31 33 -108 39 -50 5 -67 2 -90 -14 -16 -11 -42 -28
-57 -37 -20 -12 -26 -22 -22 -36 5 -15 1 -19 -19 -17 -35 3 -37 -17 -3 -21 18
-2 32 -12 39 -28 14 -29 38 -32 38 -4 0 15 7 20 30 20 16 0 41 -5 55 -12 22
-10 28 -9 35 2 7 12 12 12 21 3 10 -10 9 -16 -4 -31 -21 -23 -22 -65 -2 -82
12 -10 17 -8 26 13 6 14 22 27 38 30 14 3 34 9 44 12 31 12 18 -12 -18 -34
-32 -19 -35 -24 -35 -67 0 -31 -7 -54 -20 -71 -11 -14 -20 -39 -20 -54 0 -25
-3 -28 -17 -20 -18 10 -194 45 -288 57 -27 3 -60 8 -72 9 -62 9 -84 17 -79 32
3 8 6 19 6 24 0 6 7 6 18 1 9 -5 44 -12 77 -15 129 -13 289 -38 300 -47 9 -7
16 -6 25 5 17 20 16 21 -280 65 -126 19 -130 20 -130 41 0 10 6 19 14 19 7 0
50 39 95 86 91 97 88 84 72 264 -4 47 -6 89 -3 94 2 4 16 6 31 3 14 -3 55 -8
91 -12z m-2844 -35 c13 0 24 -5 24 -11 0 -6 -7 -8 -15 -5 -32 12 -28 -25 13
-107 2 -5 -5 -4 -17 2 -11 7 -30 29 -41 50 -11 22 -25 41 -32 43 -10 4 -10 8
1 22 8 9 21 14 28 11 8 -3 26 -5 39 -5z m430 -2 c-3 -25 -18 -40 -28 -30 -6 6
-17 8 -26 5 -10 -5 -13 -2 -8 6 7 11 40 29 58 30 3 1 5 -5 4 -11z m1434 -10
c0 -35 -11 -44 -60 -51 -25 -3 -54 -9 -63 -13 -14 -5 -17 0 -17 36 0 34 3 40
13 32 9 -8 24 -7 52 3 58 21 75 19 75 -7z m1928 -5 c24 -14 90 -21 232 -24 73
-1 79 -2 45 -10 -61 -12 -216 -12 -250 1 -67 25 -105 44 -105 52 0 11 49 -1
78 -19z m-75 -10 c23 -15 44 -28 46 -30 2 -2 2 -6 -2 -9 -3 -3 -22 -1 -42 6
-53 17 -66 0 -29 -36 22 -20 24 -25 9 -20 -53 21 -72 0 -25 -27 16 -10 30 -22
30 -27 0 -11 -34 1 -97 32 -44 22 -59 44 -22 33 13 -4 25 -2 29 6 10 16 2 39
-15 39 -18 0 -61 37 -53 45 4 4 21 0 39 -9 43 -22 70 -20 76 4 7 25 5 25 56
-7z m-2274 -53 c15 -52 17 -50 -38 -50 -83 0 -109 9 -131 47 -11 19 -20 35
-20 36 0 1 40 2 89 3 l89 1 11 -37z m-1149 -15 c-37 -38 -50 -43 -50 -20 0 14
71 67 79 59 3 -3 -11 -20 -29 -39z m60 -5 c-19 -17 -39 -30 -44 -30 -5 0 8 15
30 34 21 19 41 32 44 30 2 -3 -11 -18 -30 -34z m-240 -8 c74 -37 81 -42 75
-52 -10 -16 -145 52 -145 73 0 11 12 8 70 -21z m3654 20 c3 -5 80 -8 170 -7
91 0 164 -1 161 -3 -2 -2 -30 -11 -62 -18 -76 -18 -224 -18 -267 0 -41 17 -55
36 -27 36 11 0 22 -4 25 -8z m-1934 -37 c0 -3 -15 -28 -32 -55 -28 -43 -38
-50 -65 -50 -35 0 -38 9 -24 60 5 19 17 27 56 36 63 15 65 15 65 9z m230 -25
c0 -5 19 -19 41 -31 84 -42 162 -156 178 -257 10 -68 1 -93 -44 -120 -58 -33
-108 -26 -177 27 -30 22 -61 41 -69 41 -8 0 -23 7 -33 15 -34 25 -81 19 -109
-15 -14 -16 -30 -30 -36 -30 -6 0 -23 -18 -37 -40 -15 -22 -29 -38 -31 -36 -3
2 3 15 12 29 26 40 0 42 -31 2 -15 -20 -37 -41 -48 -47 l-21 -11 20 24 c24 29
45 65 45 79 0 23 -22 7 -48 -35 -15 -25 -30 -45 -34 -45 -15 0 -8 45 11 77 11
17 17 34 14 37 -15 15 -35 3 -49 -29 -19 -47 -27 -44 -19 7 9 50 68 128 96
128 11 0 19 5 19 11 0 26 76 42 214 44 123 1 140 4 153 20 18 25 12 37 -20 46
-24 7 -26 5 -21 -16 6 -26 -7 -34 -51 -30 -16 2 -38 3 -48 4 -16 1 -13 12 24
79 56 102 57 104 80 91 10 -5 19 -14 19 -19z m1696 -5 c26 -13 26 -15 7 -15
-12 0 -23 -3 -26 -7 -2 -5 -2 -2 -1 5 2 6 -1 12 -6 12 -6 0 -10 5 -10 10 0 13
2 13 36 -5z m139 -27 c13 -6 2 -7 -34 -4 -30 3 -59 10 -64 15 -11 11 68 3 98
-11z m-2410 -30 c16 -40 12 -48 -25 -48 -28 0 -80 39 -80 60 0 5 17 11 38 13
20 2 41 4 45 5 4 1 14 -13 22 -30z m-125 -38 c0 -24 156 -134 208 -145 26 -5
36 -3 47 12 12 15 14 15 15 2 0 -8 -12 -26 -26 -40 -27 -25 -43 -56 -50 -99
-9 -50 -13 -54 -33 -36 -15 14 -23 15 -45 5 -15 -7 -29 -23 -32 -36 -9 -34
-37 -28 -78 17 -20 22 -36 43 -37 48 0 4 -2 16 -5 27 -2 11 3 50 12 87 9 37
14 90 12 118 -1 27 0 50 5 50 4 0 7 -4 7 -10z m1566 -4 c37 -6 17 -12 -36 -12
-57 1 -75 8 -47 19 6 3 25 3 41 0 16 -3 35 -6 42 -7z m374 -7 c7 -11 25 -25
41 -31 41 -14 36 -28 -6 -17 -48 14 -102 -3 -152 -46 -23 -19 -52 -35 -65 -35
-22 1 -22 1 5 16 31 17 33 26 12 44 -10 9 -33 11 -72 7 -41 -4 -53 -3 -45 5
15 15 118 28 168 21 48 -6 84 9 84 37 0 26 16 25 30 -1z m-220 -9 c-8 -5 -17
-7 -19 -4 -3 3 1 9 9 14 8 5 17 7 19 4 3 -3 -1 -9 -9 -14z m-1512 -52 c15 -13
16 -38 2 -38 -13 0 -90 48 -90 56 0 9 73 -6 88 -18z m142 15 c-1 -14 -40 -56
-46 -50 -14 13 7 57 26 57 11 0 20 -3 20 -7z m1390 -129 c0 -3 -10 -26 -21
-52 -12 -26 -30 -66 -40 -89 -10 -24 -21 -43 -24 -43 -13 0 10 78 37 121 15
25 28 51 28 58 0 6 5 11 10 11 6 0 10 -2 10 -6z m-1128 -82 c14 -9 48 -32 74
-49 26 -18 58 -33 70 -33 26 0 41 -16 22 -23 -18 -6 17 -44 57 -63 61 -29 263
-262 266 -307 7 -98 3 -126 -16 -129 -31 -5 -40 -57 -26 -146 9 -53 9 -85 2
-103 -13 -35 5 -56 29 -34 15 13 21 13 51 1 59 -24 152 -30 188 -12 62 33 73
114 23 188 -28 44 -110 89 -184 103 -29 6 -35 10 -31 26 9 32 21 32 111 0 127
-47 149 -60 188 -112 35 -47 40 -71 36 -156 -3 -61 -47 -108 -113 -122 -65
-14 -125 1 -202 53 -26 18 -30 18 -44 3 -14 -14 -19 -14 -43 -2 -15 8 -72 31
-126 50 -55 20 -106 39 -114 42 -8 4 -28 6 -44 5 -22 -1 -26 2 -17 11 6 6 11
26 11 44 0 26 -9 39 -45 70 -25 20 -45 44 -45 53 -1 35 -41 63 -160 109 -84
33 -140 110 -140 193 0 44 30 121 58 151 34 36 67 54 127 67 39 9 51 8 76 -7
20 -12 32 -14 40 -6 7 7 1 18 -23 37 -18 14 -39 31 -45 36 -8 7 -19 7 -30 1
-10 -5 -31 -15 -48 -22 -16 -7 -55 -32 -86 -55 l-56 -41 -26 19 c-28 21 -28
38 1 38 14 1 38 26 70 75 4 6 22 23 40 38 39 31 83 34 124 9z m-1074 -87 c29
-14 55 -25 58 -25 10 0 65 -42 61 -46 -2 -2 -20 3 -40 11 -20 8 -74 18 -119
23 l-83 7 29 28 c16 15 32 27 36 27 3 0 30 -11 58 -25z m628 5 c5 -5 25 -11
44 -13 44 -3 53 -27 10 -27 -31 0 -80 25 -80 41 0 12 14 11 26 -1z m-32 -48
c2 -4 -2 -23 -10 -42 l-15 -34 -14 28 c-19 36 -19 44 3 49 28 7 31 7 36 -1z
m203 -34 c52 -36 40 -52 -17 -23 -17 9 -30 22 -30 30 0 20 8 19 47 -7z m-117
7 c0 -3 -10 -19 -21 -34 -12 -16 -18 -34 -14 -41 4 -6 -1 -17 -11 -25 -15 -11
-16 -15 -5 -28 10 -13 9 -18 -11 -28 -13 -7 -26 -16 -29 -22 -4 -5 -15 -7 -25
-3 -15 6 -14 9 10 34 14 16 23 31 19 35 -7 8 65 117 78 117 5 0 9 -2 9 -5z
m96 -76 c3 -6 19 -9 35 -5 27 5 28 4 17 -19 -6 -14 -19 -25 -28 -25 -32 0 -49
-60 -44 -156 5 -127 2 -137 -49 -151 -23 -6 -52 -14 -64 -18 -22 -7 -22 -5
-25 96 -3 117 -2 119 85 211 26 28 47 56 47 64 0 17 16 19 26 3z m-222 -158
c13 -44 -6 -62 -52 -49 -30 8 -33 12 -30 41 2 24 9 33 28 38 36 10 44 6 54
-30z m-1034 -61 c0 -5 15 -25 33 -44 50 -51 148 -60 242 -20 34 14 35 14 35
-8 1 -13 7 -34 15 -48 19 -33 19 -35 -10 -48 -30 -14 -33 -38 -5 -47 31 -10
16 -21 -30 -23 -58 -3 -119 -45 -179 -124 -11 -15 -11 -21 -1 -33 15 -19 37
-13 98 26 47 30 82 40 48 14 -11 -8 -17 -18 -13 -21 3 -4 -3 -14 -15 -23 -18
-15 -19 -20 -8 -40 11 -21 17 -23 66 -19 30 3 57 1 60 -3 4 -7 153 -3 209 6
30 5 30 5 5 -7 -14 -6 -50 -23 -80 -36 -94 -43 -301 -178 -381 -249 -42 -37
-102 -90 -133 -117 -31 -27 -56 -52 -56 -56 0 -5 -20 -28 -44 -52 -47 -47
-136 -166 -136 -183 -1 -5 -12 -23 -26 -40 -17 -20 -22 -23 -15 -8 15 29 14
76 -1 91 -7 7 -22 12 -35 12 -28 0 -29 7 -5 34 22 25 61 130 61 166 0 14 0 51
1 82 0 31 -4 68 -10 83 -6 15 -8 31 -5 35 8 13 -31 87 -63 118 -30 30 -83 62
-104 62 -7 0 -19 4 -27 9 -12 8 -9 15 12 41 50 59 37 188 -25 257 l-20 22 27
25 c15 14 31 26 35 26 11 0 40 69 40 95 l0 24 33 -19 c25 -15 55 -20 137 -22
92 -2 112 1 160 22 30 13 64 30 75 37 23 15 35 17 35 3z m1349 -47 c19 -26 60
-58 99 -80 l67 -37 -37 -9 c-31 -7 -42 -5 -75 17 -21 14 -57 28 -81 32 l-43 7
6 46 c9 64 16 84 24 75 4 -5 22 -28 40 -51z m793 -154 c71 -23 118 -66 136
-125 9 -29 8 -44 -1 -63 -11 -23 -19 -26 -67 -29 -36 -1 -72 4 -105 17 l-50
19 -14 74 c-16 87 -10 128 19 128 11 0 48 -9 82 -21z m-567 -18 c45 -20 95
-73 95 -99 0 -9 -4 -23 -9 -30 -6 -10 -11 -5 -20 19 l-11 33 -29 -28 -29 -28
5 42 c5 37 4 42 -13 38 -11 -2 -20 -13 -22 -26 -2 -12 -9 -21 -17 -20 -7 2
-22 -8 -33 -22 -14 -17 -24 -22 -31 -15 -12 12 -4 26 24 41 23 13 32 51 16 67
-8 8 -15 7 -23 -1 -13 -13 -14 -17 -17 -47 0 -8 -9 -15 -19 -15 -15 0 -18 6
-14 30 3 22 0 30 -11 30 -16 0 -37 -48 -37 -84 0 -18 -2 -18 -14 -6 -18 19
-21 38 -12 72 10 35 28 50 74 59 64 12 106 9 147 -10z m-275 -29 c19 -15 21
-22 11 -39 -16 -32 -67 -25 -63 8 6 54 16 60 52 31z m-104 -26 c0 -34 -1 -34
-58 -43 -32 -5 -58 -7 -58 -3 0 4 108 79 116 80 0 0 0 -15 0 -34z m91 -141
c26 -11 45 -13 67 -6 32 9 207 8 265 -2 100 -18 321 -95 436 -153 212 -106
407 -258 569 -444 56 -65 163 -232 212 -330 80 -162 143 -372 161 -542 4 -40
7 -144 5 -231 -2 -144 -5 -161 -24 -187 -17 -24 -19 -32 -9 -44 17 -20 -8
-151 -50 -266 -17 -47 -35 -98 -40 -114 -13 -45 -97 -206 -135 -259 -19 -26
-34 -50 -34 -53 0 -5 -48 -73 -60 -84 -3 -3 -18 -21 -33 -40 -52 -64 -192
-202 -220 -216 -15 -8 -65 -19 -110 -24 -131 -15 -198 -41 -245 -95 -18 -19
-34 -48 -37 -63 -15 -70 -19 -77 -85 -109 -69 -34 -214 -73 -273 -73 -20 0
-66 -6 -104 -14 -94 -20 -464 -15 -585 8 -97 18 -280 69 -337 93 -125 54 -295
147 -351 193 -14 11 -50 39 -80 62 -101 78 -260 233 -299 291 -9 13 -34 48
-55 77 -22 29 -47 66 -55 82 -130 239 -204 442 -227 613 -25 195 -27 321 -3
335 8 6 8 9 -1 15 -24 15 13 287 56 413 38 114 104 264 146 337 31 53 83 131
92 140 6 6 23 28 37 51 15 22 53 67 85 100 60 60 224 212 224 207 0 -2 26 14
58 36 87 60 275 158 372 196 239 92 568 141 667 100z m-1692 -761 c-12 -23
-30 -37 -59 -47 -37 -12 -42 -18 -50 -56 -8 -37 -12 -42 -30 -37 -12 3 -34 6
-51 6 -29 0 -28 1 20 30 28 16 79 57 115 92 67 65 86 69 55 12z m40 -40 c-12
-24 -28 -37 -47 -41 -39 -8 -55 -29 -40 -54 31 -50 -9 -85 -76 -67 -18 5 -54
8 -80 6 -40 -3 -47 -6 -50 -26 -5 -31 12 -49 51 -57 52 -10 95 -34 102 -55 3
-10 -1 -33 -10 -49 -19 -37 -92 -63 -140 -50 -72 21 -124 2 -110 -40 4 -13 31
-28 87 -47 72 -25 82 -32 95 -63 24 -56 -1 -136 -51 -163 -12 -7 -62 -13 -111
-14 -130 -2 -192 -39 -132 -78 12 -8 42 -18 67 -22 64 -9 150 -51 185 -90 37
-40 40 -48 38 -104 -2 -39 -7 -50 -42 -81 -47 -42 -92 -57 -197 -65 -93 -7
-175 -28 -205 -53 -19 -15 -21 -24 -15 -63 8 -52 31 -77 94 -101 35 -14 68
-16 190 -12 l148 6 64 -33 c72 -36 110 -86 110 -145 0 -78 -21 -94 -164 -118
-105 -18 -199 -64 -227 -110 -21 -33 -25 -90 -8 -100 6 -4 8 -13 5 -21 -11
-27 136 -74 235 -74 58 0 157 -31 206 -64 34 -23 84 -93 98 -135 6 -21 5 -22
-14 -11 -30 15 -42 5 -31 -26 14 -37 12 -84 -4 -90 -8 -3 -28 2 -45 11 -25 12
-31 22 -32 48 -3 152 -37 187 -194 207 -50 6 -113 18 -141 26 -28 8 -59 14
-70 14 -27 0 -74 41 -79 68 -2 13 -7 33 -11 45 -11 32 -4 97 12 129 28 54 113
93 254 118 81 15 116 38 124 86 19 99 -97 141 -353 129 -123 -6 -139 -5 -171
13 -58 32 -93 84 -98 145 l-4 54 50 35 c51 37 50 37 324 79 88 14 131 49 122
100 -3 19 -10 44 -16 55 -14 31 -104 73 -165 78 -102 9 -137 49 -114 127 17
56 39 66 171 74 131 7 150 16 150 75 0 44 -34 74 -98 85 -60 10 -94 39 -90 78
4 44 52 70 121 67 111 -4 118 -3 138 16 20 20 20 20 -1 47 -12 15 -38 31 -59
37 -77 20 -115 86 -72 124 16 15 35 17 118 14 l98 -3 -3 25 c-6 49 6 68 50 82
28 10 44 22 47 34 3 20 22 37 30 28 3 -3 -3 -21 -14 -40z m-1 -85 c-27 -50
-27 -51 -40 -28 -13 25 -3 49 21 49 7 0 18 7 25 15 23 27 21 16 -6 -36z m-159
-106 c59 -16 65 -16 89 0 30 20 31 17 12 -26 -8 -18 -22 -56 -31 -84 -9 -29
-18 -53 -20 -53 -2 0 -1 17 2 38 6 46 -12 65 -88 90 -32 11 -55 26 -57 35 -4
22 13 21 93 0z m31 -250 c-9 -37 -20 -86 -24 -107 l-8 -39 -25 48 c-22 44 -30
50 -84 68 -98 32 -107 37 -102 50 4 13 53 14 99 2 34 -9 113 13 135 37 9 10
18 16 20 14 3 -2 -3 -35 -11 -73z m-49 -382 c-2 -140 -4 -155 -15 -127 -16 38
-91 116 -112 116 -8 1 -33 9 -55 20 -22 11 -52 19 -66 20 -14 0 -33 6 -44 13
-30 22 0 31 92 29 72 -2 89 1 134 24 28 14 54 34 56 45 3 10 7 19 8 19 2 0 2
-71 2 -159z m4190 -53 c-3 -7 -5 -2 -5 12 0 14 2 19 5 13 2 -7 2 -19 0 -25z
m-4163 -318 c4 -25 15 -72 25 -105 10 -33 21 -74 24 -92 l6 -32 -67 34 c-74
38 -142 45 -292 31 -62 -6 -84 -4 -125 12 -41 16 -51 25 -56 49 -3 17 -9 35
-13 41 -15 25 72 54 203 67 100 10 183 41 230 87 23 21 42 49 42 61 1 12 5 -7
9 -43 4 -36 10 -85 14 -110z m3823 -262 c18 0 25 -10 39 -52 9 -28 20 -55 24
-61 15 -21 18 -74 9 -180 -11 -132 -47 -244 -93 -290 -17 -17 -47 -52 -66 -77
-19 -25 -51 -57 -70 -69 -42 -29 -124 -100 -210 -183 -36 -35 -85 -78 -110
-97 -25 -18 -49 -39 -53 -46 -4 -7 -26 -22 -48 -33 -21 -11 -45 -30 -52 -41
-6 -11 -28 -30 -47 -42 -48 -30 -110 -92 -110 -111 0 -21 -46 -50 -66 -42 -21
8 -3 32 31 40 25 6 32 20 16 30 -4 3 -83 -19 -174 -48 -92 -30 -215 -63 -274
-74 -135 -26 -382 -55 -443 -53 -116 5 -284 27 -309 40 -9 5 -48 11 -86 13
-39 2 -73 6 -76 11 -5 7 -172 31 -404 59 -117 14 -244 17 -273 6 -29 -10 -245
-20 -266 -12 -9 3 -16 10 -16 16 0 5 4 6 10 3 17 -10 93 16 156 54 36 21 84
63 118 103 53 62 59 66 84 57 15 -5 35 -22 46 -37 10 -15 37 -40 60 -56 36
-26 53 -30 146 -37 109 -8 258 -3 275 10 6 4 44 18 85 31 81 25 147 33 156 18
3 -5 14 -6 24 -3 12 4 34 -5 59 -23 50 -36 150 -57 224 -48 50 7 140 38 202
70 17 9 38 16 47 16 20 0 115 47 123 60 4 6 11 8 16 5 10 -7 30 37 33 75 1 14
12 47 24 73 12 27 22 57 22 66 0 19 21 40 60 59 31 15 211 24 226 11 13 -11
109 22 188 65 27 14 51 26 52 26 9 0 3 -38 -10 -55 -7 -11 -19 -37 -26 -59
-27 -85 -122 -148 -199 -133 -41 8 -139 -9 -186 -32 -22 -11 -57 -35 -77 -53
-35 -31 -37 -36 -32 -74 6 -38 10 -43 48 -55 27 -9 89 -14 181 -14 l140 0 85
42 c70 34 92 50 119 90 19 26 60 75 90 109 58 63 171 235 171 260 0 8 4 14 8
14 5 0 51 32 103 71 51 40 108 76 126 81 33 9 90 76 113 133 7 17 20 45 28 62
20 41 8 58 -31 44 -16 -6 -33 -26 -46 -56 -21 -48 -52 -81 -166 -180 -38 -33
-83 -72 -99 -87 -17 -16 -34 -28 -37 -28 -4 0 -21 -21 -38 -47 -17 -27 -45
-66 -61 -88 -16 -22 -43 -62 -59 -90 -16 -27 -46 -68 -66 -90 -20 -22 -49 -59
-66 -83 -28 -39 -51 -55 -148 -106 -44 -23 -181 -36 -233 -22 -58 16 -45 26
31 25 71 -1 91 4 91 23 0 7 -15 9 -40 5 -22 -3 -43 -1 -46 4 -3 5 -22 7 -41 3
-28 -5 -35 -4 -31 7 3 10 23 14 66 15 34 0 65 4 69 8 17 16 -25 26 -87 20 -36
-4 -62 -3 -57 2 11 11 117 25 221 29 l89 3 49 53 c26 29 48 60 48 69 0 9 7 25
15 36 8 10 15 25 15 31 0 7 21 57 46 110 25 54 51 109 58 123 19 42 62 102
110 155 25 27 46 52 46 55 0 3 43 48 96 100 52 52 106 106 119 120 13 13 27
38 31 55 11 55 78 110 119 98 11 -3 30 -5 42 -5z m-601 -545 c-15 -30 -96
-113 -96 -99 0 9 99 126 106 126 3 0 -2 -12 -10 -27z m-516 -529 c0 -8 -5 -12
-10 -9 -6 4 -8 11 -5 16 9 14 15 11 15 -7z m-1510 -35 c0 -8 5 -8 15 1 11 9
15 9 15 1 0 -7 4 -10 9 -6 17 10 21 -12 5 -26 -13 -10 -17 -10 -25 2 -5 8 -9
10 -9 6 0 -9 -30 18 -30 27 0 3 5 6 10 6 6 0 10 -5 10 -11z m96 -28 c10 8 14
8 14 1 0 -6 7 -9 15 -6 8 4 15 1 15 -5 0 -6 7 -8 17 -4 10 4 14 2 10 -4 -7
-11 -102 -11 -113 0 -4 4 -1 14 7 23 13 16 14 16 17 0 3 -14 7 -15 18 -5z
m854 -41 c-20 -13 -50 -13 -50 0 0 6 15 10 33 10 24 0 28 -3 17 -10z m770
-190 c12 -22 46 -20 88 7 43 26 44 8 1 -22 -23 -17 -51 -39 -63 -51 -18 -18
-136 -109 -200 -154 -24 -17 -156 -116 -171 -128 -53 -43 -62 -45 -112 -26
-26 10 -71 34 -99 54 -43 30 -97 55 -219 100 -11 4 -58 25 -105 48 -97 46
-136 63 -202 87 -67 23 -60 35 12 20 32 -7 61 -11 63 -9 2 3 21 -3 43 -12 44
-19 218 -25 295 -10 45 8 47 8 99 -39 72 -64 88 -61 212 47 31 27 56 39 88 44
52 7 84 15 160 43 70 26 97 26 110 1z m-452 -100 c-20 -27 -48 -44 -33 -20 3
5 1 19 -5 30 -10 18 -8 20 25 20 l36 0 -23 -30z M821 8263 c-32 -14 -33 -14
-15 -34 24 -26 58 -21 62 10 5 33 -8 40 -47 24z M870 8181 c0 -11 26 -22 34
-14 12 12 5 23 -14 23 -11 0 -20 -4 -20 -9z M1187 7333 c-7 -6 40 -43 56 -43
13 0 7 23 -10 36 -20 15 -36 17 -46 7z M2132 6938 c-8 -8 -9 -15 -1 -25 21
-25 64 -8 53 20 -7 20 -35 22 -52 5z M2905 6160 c-9 -15 3 -28 46 -51 22 -11
42 -26 46 -34 8 -22 43 -19 43 4 0 22 -9 30 -72 65 -53 29 -54 30 -63 16z
M3060 6070 c0 -11 4 -20 9 -20 13 0 32 26 24 33 -13 14 -33 6 -33 -13z M2375
5962 c-94 -4 -105 -8 -105 -41 0 -16 6 -33 13 -39 13 -11 64 -5 73 9 9 15 24
10 24 -7 0 -9 9 -18 20 -21 17 -4 20 -14 22 -62 0 -31 0 -66 -1 -77 -2 -28 20
-45 59 -46 47 -2 54 12 51 110 -1 84 0 90 20 95 12 3 40 0 62 -8 38 -13 40
-12 63 12 52 56 27 72 -122 75 -65 2 -146 2 -179 0z M1437 5581 c-53 -49 -104
-81 -131 -81 -8 0 -29 -12 -46 -27 -30 -25 -31 -28 -14 -40 17 -13 60 -8 79 8
5 5 16 9 26 9 9 0 47 23 84 51 37 27 68 49 69 47 2 -2 8 -18 15 -35 8 -18 17
-33 22 -33 5 0 9 -5 9 -11 0 -6 12 -26 26 -45 21 -27 33 -34 60 -34 40 0 44
19 14 65 -11 17 -25 47 -30 67 -6 20 -26 53 -44 73 -47 49 -75 47 -139 -14z
M3486 5556 c-28 -13 -28 -14 -9 -27 33 -24 34 -35 8 -92 -22 -48 -24 -59 -13
-83 15 -38 48 -74 65 -74 8 0 24 -6 36 -14 12 -8 34 -12 49 -9 l27 5 -22 39
c-21 36 -21 40 -6 81 13 37 14 49 2 88 -15 54 -56 100 -86 99 -12 0 -35 -6
-51 -13z M2365 5543 c-67 -5 -266 -44 -330 -65 -93 -30 -253 -114 -328 -171
-38 -29 -84 -63 -102 -77 -40 -30 -121 -123 -181 -206 -185 -259 -262 -627
-189 -909 15 -55 28 -110 29 -122 2 -12 11 -35 22 -50 10 -15 36 -64 59 -108
72 -144 131 -223 255 -343 71 -69 148 -131 204 -164 87 -50 305 -138 344 -138
9 0 33 -12 54 -27 39 -26 97 -34 122 -15 6 5 61 8 121 6 138 -3 307 21 390 55
11 5 52 21 90 37 161 64 307 168 437 309 231 253 337 587 293 925 -23 182
-116 427 -207 544 -137 176 -289 306 -458 391 -73 36 -224 91 -280 101 -25 4
-47 8 -50 9 -49 12 -227 23 -295 18z m320 -87 c28 -7 75 -20 105 -28 85 -24
272 -117 333 -167 140 -114 209 -188 289 -310 28 -42 98 -184 98 -198 0 -7 3
-13 8 -13 4 0 15 -28 24 -62 9 -35 22 -85 30 -113 8 -32 13 -109 13 -210 0
-212 -23 -325 -100 -491 -84 -183 -225 -348 -390 -458 -115 -77 -190 -112
-302 -142 -54 -15 -105 -29 -113 -31 -23 -8 -74 -10 -205 -11 -66 0 -128 -1
-137 -1 -18 0 -42 32 -32 41 10 11 -20 58 -37 58 -14 0 -16 -5 -10 -27 17 -65
14 -66 -123 -31 -313 80 -596 315 -738 611 -39 81 -85 229 -99 317 -24 155 -1
414 46 525 7 17 23 55 35 85 38 96 133 241 210 321 53 55 172 148 265 206 28
18 149 73 200 91 56 21 160 44 230 52 96 12 339 3 400 -14z M2414 5443 c-7 -5
-11 -46 -10 -111 1 -68 -3 -107 -10 -113 -13 -10 -30 29 -36 81 -2 17 -9 25
-23 25 -48 0 -25 -145 26 -163 20 -8 20 -10 -20 -56 -23 -26 -41 -53 -41 -61
0 -45 51 -108 98 -121 12 -3 22 -11 22 -18 0 -24 -17 -33 -60 -32 -39 1 -45
-2 -48 -21 -3 -22 8 -29 59 -36 27 -5 37 -17 35 -49 -1 -30 -4 -32 -59 -45
-32 -7 -83 -27 -113 -44 -55 -30 -57 -30 -74 -12 -9 10 -70 78 -134 151 -65
73 -146 163 -182 200 -56 59 -64 72 -64 107 0 22 -5 47 -10 55 -8 13 -13 13
-37 -2 -35 -20 -65 -70 -57 -92 4 -10 18 -16 35 -16 18 0 37 -9 48 -22 11 -13
29 -34 40 -47 11 -13 33 -25 47 -27 31 -3 58 -24 31 -24 -9 0 -17 -3 -17 -6 0
-3 43 -52 96 -107 53 -56 107 -118 119 -138 13 -20 30 -42 38 -50 26 -26 24
-44 -7 -89 -16 -25 -40 -72 -52 -105 l-22 -60 -107 -2 c-91 -1 -107 1 -112 15
-25 81 -47 98 -134 108 -67 7 -120 -15 -145 -62 -17 -32 -22 -34 -70 -34 -43
0 -53 3 -57 20 -5 19 -41 28 -50 13 -3 -5 -8 -38 -11 -74 -6 -59 -5 -67 11
-73 13 -5 25 1 41 20 16 19 36 28 66 31 40 5 43 3 55 -25 44 -106 190 -123
271 -32 27 32 40 34 166 32 l81 -2 7 -47 c3 -25 22 -79 42 -118 25 -49 34 -77
28 -88 -5 -8 -94 -103 -198 -211 -158 -163 -194 -196 -218 -196 -24 0 -28 -4
-28 -28 0 -17 9 -37 22 -49 29 -27 62 -33 64 -13 0 8 2 21 2 28 1 7 23 34 50
60 26 26 102 104 170 174 67 69 122 123 122 119 0 -3 7 4 15 16 9 12 28 31 44
42 28 20 29 20 53 2 23 -18 124 -55 181 -66 l27 -5 0 -135 c0 -143 -4 -152
-46 -120 -26 20 -40 19 -62 -5 -10 -11 -25 -18 -33 -15 -8 2 -20 1 -28 -4 -20
-13 -2 -33 44 -50 32 -11 39 -11 55 4 18 16 21 17 45 1 30 -20 32 -32 5 -41
-11 -3 -27 -13 -35 -22 -15 -14 -18 -13 -40 7 -22 21 -65 21 -65 0 0 -15 35
-48 78 -71 35 -19 46 -21 62 -11 18 11 19 8 15 -64 -2 -57 -7 -79 -20 -88 -12
-9 -15 -19 -11 -34 9 -27 79 -51 104 -35 24 15 27 45 6 60 -14 10 -17 27 -16
94 0 45 3 83 5 86 3 2 14 -1 25 -8 16 -10 26 -10 44 -2 13 6 34 14 48 17 14 4
38 17 55 31 24 19 27 27 17 37 -10 10 -19 9 -47 -6 -29 -16 -39 -17 -64 -6
-17 7 -41 10 -55 6 -21 -5 -24 -2 -28 30 -5 46 3 50 40 19 37 -31 53 -31 82 0
13 14 29 25 36 25 6 0 17 6 23 14 20 24 -6 29 -55 10 -39 -15 -46 -15 -57 -2
-7 8 -27 21 -44 28 l-33 12 -1 77 c-1 42 -2 91 -4 109 -3 41 13 58 62 66 21 4
60 16 86 28 l49 22 31 -36 c18 -20 52 -60 77 -88 25 -29 64 -73 88 -98 24 -25
50 -56 59 -68 8 -13 22 -24 29 -24 8 0 14 -5 14 -10 0 -6 12 -20 26 -33 35
-30 93 -110 97 -133 7 -48 38 -57 81 -23 35 28 36 76 2 85 -14 3 -29 3 -34 0
-11 -6 -38 16 -71 59 -45 59 -117 140 -196 220 -83 84 -155 167 -155 179 0 4
17 28 38 54 49 61 76 116 82 172 5 45 5 45 44 45 34 0 39 -3 43 -25 7 -49 10
-52 43 -35 21 11 30 23 30 40 0 22 4 25 34 25 l35 0 7 -70 c4 -47 12 -74 24
-85 16 -15 23 -14 80 9 35 14 84 39 110 56 26 16 54 30 63 30 9 0 18 4 21 9 3
5 23 18 44 29 43 22 81 15 89 -18 8 -29 45 -26 59 5 11 23 7 64 -11 108 -10
24 -46 22 -52 -3 -3 -13 -14 -20 -28 -20 -24 0 -288 130 -316 156 -12 11 -23
12 -41 5 -23 -9 -26 -17 -33 -85 -6 -69 -9 -76 -28 -76 -34 0 -49 15 -47 46 5
69 -2 75 -53 52 -22 -11 -27 -20 -27 -50 0 -44 -10 -52 -56 -44 -28 6 -34 11
-34 32 0 29 -52 148 -69 159 -17 10 4 42 47 69 20 13 73 59 117 103 226 223
286 275 312 268 37 -9 44 2 27 43 -19 47 -52 82 -70 75 -7 -3 -16 -20 -20 -39
-4 -22 -21 -47 -53 -76 -25 -23 -124 -116 -219 -207 -95 -92 -178 -168 -184
-170 -13 -4 -55 17 -91 46 -16 13 -35 23 -43 23 -8 0 -22 4 -32 9 -9 6 -34 13
-54 16 -32 5 -38 10 -38 31 0 33 17 64 34 64 13 0 26 20 26 40 0 4 -14 13 -31
19 -26 9 -29 14 -24 33 4 13 8 23 9 23 11 0 41 27 56 50 17 27 17 34 5 70 -8
22 -26 50 -41 61 -26 22 -26 44 1 44 21 0 46 54 43 92 -2 46 -16 60 -48 53
-41 -9 -45 24 -8 64 42 45 36 75 -17 79 -22 1 -45 -1 -51 -5z m66 -209 c0 -21
-4 -33 -10 -29 -5 3 -10 22 -10 41 0 21 4 33 10 29 6 -3 10 -22 10 -41z m-76
-166 c10 -37 7 -58 -8 -58 -25 0 -37 25 -26 54 12 32 26 33 34 4z m78 -72 c-3
-5 -9 -1 -12 10 -4 10 -5 23 -2 28 3 5 9 1 12 -10 4 -10 5 -23 2 -28z m64
-342 c81 -30 114 -50 114 -67 0 -16 -99 -115 -156 -157 l-42 -30 -7 125 c-6
94 -4 129 5 140 15 18 5 20 86 -11z m-145 4 c7 -61 6 -86 -6 -105 -12 -18 -12
-23 1 -34 17 -14 16 -110 -1 -115 -5 -2 -29 23 -53 54 -23 31 -58 74 -77 94
-19 20 -35 41 -35 47 0 36 167 94 171 59z m-137 -173 c36 -43 66 -86 66 -94 0
-12 -18 -13 -112 -7 -62 4 -114 9 -116 11 -2 1 1 20 7 41 15 53 71 148 81 138
4 -5 38 -45 74 -89z m469 13 c24 -43 35 -118 16 -118 -8 0 -59 -2 -114 -4
l-99 -4 29 22 c17 11 55 47 85 78 30 31 57 57 60 57 3 1 13 -13 23 -31z
m-1010 -59 c31 -25 18 -31 -58 -30 -74 1 -87 5 -79 26 11 28 104 31 137 4z
m1567 -72 c0 -5 -12 -6 -27 -3 -16 2 -49 7 -74 11 -49 6 -50 8 -34 62 4 13
135 -54 135 -70z m-1575 -36 c-10 -17 -67 -21 -87 -7 -19 14 -17 15 28 18 54
3 67 1 59 -11z m648 -18 c12 -7 8 -23 -6 -23 -7 0 -48 -36 -92 -80 -44 -44
-83 -80 -86 -80 -22 0 -95 172 -83 192 6 9 249 1 267 -9z m391 1 c33 -13 -56
-204 -95 -204 -11 0 -179 192 -175 199 5 8 252 12 270 5z m586 -6 c0 -10 -181
-98 -191 -93 -6 4 -6 86 0 102 2 6 191 -3 191 -9z m-930 -173 c0 -63 -3 -115
-7 -115 -41 0 -163 48 -163 64 0 12 150 166 162 166 5 0 8 -52 8 -115z m173
-32 c11 -13 17 -30 14 -37 -6 -14 -105 -46 -123 -39 -8 3 -12 41 -13 111 l-2
107 53 -59 c29 -33 61 -70 71 -83z M1351 5407 c-24 -27 -21 -48 15 -87 12 -14
24 -36 26 -50 2 -19 9 -25 28 -25 20 0 25 6 32 39 6 30 5 44 -7 60 -9 12 -25
36 -36 54 -25 38 -29 39 -58 9z M915 4584 c-85 -18 -112 -34 -140 -88 -45 -84
-26 -173 47 -221 59 -39 77 -43 146 -34 142 20 201 132 137 259 -41 80 -93
103 -190 84z m62 -84 c18 0 63 -75 63 -105 0 -41 -34 -67 -78 -60 -61 11 -68
14 -82 40 -26 48 20 143 64 131 12 -3 27 -6 33 -6z M3765 4466 c-25 -37 -16
-70 18 -73 15 -1 42 -9 60 -19 18 -9 46 -19 62 -23 26 -6 30 -12 33 -45 5 -56
-15 -78 -89 -99 -99 -28 -134 -43 -137 -60 -6 -30 35 -40 112 -28 39 6 98 13
131 16 73 6 157 23 166 33 14 14 16 192 4 209 -12 16 -14 16 -38 0 -32 -21
-37 -21 -37 -3 0 16 -63 56 -89 56 -9 0 -22 5 -29 12 -7 7 -12 9 -12 6 0 -6
-67 14 -122 37 -11 4 -22 -1 -33 -19z m263 -155 c18 -11 11 -66 -8 -66 -10 0
-15 11 -16 38 -1 39 2 42 24 28z M3390 3456 c-6 -8 -12 -35 -13 -61 -2 -41 2
-48 31 -72 19 -14 38 -37 43 -50 11 -29 26 -26 52 9 19 25 19 27 2 56 -10 17
-29 35 -42 41 -15 7 -23 19 -23 35 0 14 -7 32 -16 40 -19 19 -19 19 -34 2z
M1504 3426 c-18 -6 -55 -39 -86 -76 -31 -36 -68 -75 -82 -88 -36 -31 -34 -90
4 -109 27 -13 38 -34 39 -73 1 -23 4 -26 34 -22 24 3 37 12 50 34 17 29 17 32
-3 73 -12 24 -27 46 -35 49 -20 7 -19 35 1 43 20 7 134 143 134 159 0 18 -22
22 -56 10z M3221 3311 c-22 -14 -5 -83 27 -107 32 -23 49 -41 85 -88 36 -46
60 -46 119 2 25 20 68 49 95 63 54 30 87 74 63 89 -17 10 -66 -12 -147 -68
l-62 -42 -24 37 c-28 43 -112 123 -130 123 -7 0 -18 -4 -26 -9z M2498 3093
c-14 -4 -17 -14 -16 -51 3 -112 -1 -140 -19 -136 -18 5 -46 42 -90 117 -36 61
-47 68 -92 61 -55 -9 -68 -26 -44 -58 10 -14 21 -26 26 -26 4 0 7 -4 7 -10 0
-5 16 -25 35 -44 43 -43 44 -56 5 -84 -48 -36 -36 -112 22 -136 32 -14 207
-22 249 -11 l24 6 -6 162 c-4 89 -4 165 -2 170 2 4 11 7 20 7 12 0 13 3 5 13
-6 7 -30 14 -53 16 -24 1 -45 3 -48 5 -3 1 -14 1 -23 -1z m-19 -287 c19 -23 2
-46 -33 -46 -38 0 -71 21 -64 41 8 19 82 23 97 5z M786 3002 c-2 -4 -1 -14 4
-22 7 -11 12 -12 21 -3 6 6 8 16 5 22 -8 13 -23 14 -30 3z M3610 8763 c14 -9
45 -34 69 -55 24 -21 51 -38 61 -38 17 0 60 39 60 54 0 5 12 19 28 32 l27 24
-39 0 c-23 0 -47 -7 -59 -17 -18 -17 -19 -17 -32 0 -9 13 -27 17 -76 17 -63 0
-63 0 -39 -17z M4025 8770 c3 -5 8 -10 11 -10 2 0 4 5 4 10 0 6 -5 10 -11 10
-5 0 -7 -4 -4 -10z M4078 8773 c6 -2 18 -2 25 0 6 3 1 5 -13 5 -14 0 -19 -2
-12 -5z M2280 8730 c0 -5 -16 -10 -35 -10 -23 0 -38 -6 -42 -15 -9 -24 1 -28
66 -26 53 1 62 -2 72 -21 7 -12 34 -46 62 -75 56 -60 57 -58 -19 -140 -36 -38
-44 -42 -94 -45 -43 -2 -56 -7 -58 -21 -3 -17 8 -17 190 -11 264 9 303 14 303
39 0 17 -8 21 -45 23 -54 4 -85 29 -111 90 -22 51 -16 73 37 131 33 37 41 41
85 41 49 0 72 15 48 31 -8 5 -100 7 -206 4 -121 -3 -194 -1 -198 5 -8 13 -55
13 -55 0z m280 -49 c0 -4 -10 -21 -22 -37 -46 -60 -44 -60 -94 -11 -38 38 -43
46 -27 50 33 8 143 7 143 -2z m-41 -222 c13 -17 21 -33 18 -35 -7 -7 -106 -22
-111 -16 -6 5 54 82 64 82 3 0 16 -14 29 -31z M0 8717 c0 -15 100 -67 180 -93
30 -9 69 -23 85 -30 17 -7 51 -18 77 -24 28 -7 53 -21 61 -34 15 -22 32 -91
42 -168 3 -26 10 -50 16 -53 5 -4 9 -12 9 -20 0 -33 42 -124 71 -153 34 -35
60 -34 35 1 -47 64 -106 224 -106 284 0 46 -30 122 -54 138 -16 11 -141 56
-221 79 -5 2 -14 5 -20 7 -5 1 -45 20 -88 41 -88 43 -87 43 -87 25z M3712
8539 c2 -6 8 -10 13 -10 5 0 11 4 13 10 2 6 -4 11 -13 11 -9 0 -15 -5 -13 -11z
M3517 8423 c-13 -12 -7 -33 8 -33 8 0 15 8 15 18 0 13 2 14 9 3 5 -7 14 -10
20 -7 6 4 9 12 6 17 -7 10 -48 12 -58 2z M2920 8390 c0 -5 5 -10 10 -10 6 0
10 5 10 10 0 6 -4 10 -10 10 -5 0 -10 -4 -10 -10z M2960 8390 c0 -12 39 -32
100 -50 25 -8 54 -23 65 -32 20 -19 36 -19 42 -1 7 19 -59 59 -124 76 -73 20
-83 21 -83 7z M0 7834 c0 -46 14 -63 54 -66 14 -1 26 -6 26 -11 0 -5 -9 -5
-20 -2 -30 9 -60 -4 -60 -26 0 -13 7 -19 23 -20 12 -1 31 -2 42 -3 31 -2 67
-25 111 -72 22 -24 46 -44 52 -44 35 0 -21 111 -68 135 -31 16 -41 45 -15 45
18 0 20 26 3 37 -7 4 -26 8 -43 9 -16 1 -35 2 -42 3 -7 1 -24 13 -38 28 l-25
28 0 -41z M280 7310 c-103 -12 -148 -34 -243 -117 -28 -24 -37 -40 -37 -64 l0
-31 60 54 c86 76 149 105 232 107 50 1 78 -4 112 -20 38 -17 49 -19 61 -9 14
12 13 16 -7 38 -41 43 -80 53 -178 42z M4900 5049 c0 -5 5 -7 10 -4 6 3 10 8
10 11 0 2 -4 4 -10 4 -5 0 -10 -5 -10 -11z M4518 4309 c-21 -11 -38 -21 -38
-24 0 -7 46 -49 68 -62 31 -18 66 -16 85 5 30 33 14 72 -37 92 -35 13 -34 13
-78 -11z m79 -31 c6 -5 9 -16 6 -23 -5 -14 -15 -10 -62 21 -1 2 0 7 3 13 7 10
32 5 53 -11z M4520 3161 c-6 -12 -7 -21 -1 -21 10 0 24 30 17 37 -2 3 -9 -5
-16 -16z M43 2930 c-48 -16 -63 -48 -15 -34 45 15 204 10 233 -7 50 -27 110
-83 135 -124 29 -50 34 -158 9 -191 -8 -10 -15 -29 -15 -41 0 -20 4 -22 40
-19 22 2 47 9 55 16 25 20 103 7 133 -23 21 -21 25 -34 24 -73 -1 -26 -8 -54
-14 -62 -10 -12 -7 -13 21 -10 27 2 35 -1 42 -19 6 -18 3 -26 -19 -42 l-27
-20 37 -1 c20 0 39 4 42 9 16 26 163 30 221 5 18 -7 57 -36 88 -64 62 -57 70
-80 68 -197 -2 -66 0 -73 17 -73 11 0 27 11 36 25 16 25 66 36 66 15 0 -6 10
-15 23 -21 21 -9 23 -16 20 -67 -4 -62 6 -88 31 -79 11 5 16 19 16 52 0 105
67 163 232 199 15 3 29 2 33 -4 3 -5 12 -7 20 -3 10 3 40 -19 81 -59 55 -54
66 -70 71 -106 5 -35 2 -47 -17 -67 -30 -32 -21 -58 17 -49 16 4 34 12 42 18
18 14 119 17 156 4 73 -26 121 -163 79 -225 -11 -16 -19 -34 -19 -41 0 -8 -25
-24 -55 -37 -30 -13 -56 -28 -58 -34 -8 -23 27 -21 81 3 68 32 74 32 170 3
153 -45 241 -177 207 -310 -26 -106 -74 -167 -131 -167 -39 0 -46 -18 -12 -31
20 -8 36 -8 56 -1 23 9 29 8 34 -6 3 -9 12 -24 18 -32 7 -8 15 -27 19 -42 3
-15 22 -44 42 -63 33 -33 40 -36 87 -33 38 2 52 7 52 18 0 10 -10 15 -27 15
-37 1 -81 35 -94 73 -5 18 -15 37 -22 44 -20 20 -13 62 18 109 31 48 55 64
108 73 43 7 100 -16 111 -46 12 -32 37 -52 57 -44 13 5 15 15 9 54 -6 42 -3
52 24 89 35 48 51 58 105 68 34 7 41 5 56 -16 14 -18 21 -20 32 -12 23 19 20
64 -6 102 -37 55 -47 106 -35 180 12 77 36 126 81 167 69 62 85 69 172 67 116
-3 119 -4 141 -23 32 -28 72 -23 97 14 12 17 27 34 33 38 15 11 63 10 70 -2 3
-6 22 -10 42 -10 40 0 62 21 63 61 0 34 18 49 58 49 18 0 42 5 54 11 31 17 66
3 82 -34 7 -17 22 -40 33 -49 39 -35 103 13 103 77 0 13 -4 26 -9 29 -12 8 -3
118 16 191 25 96 45 135 69 135 11 0 41 15 65 34 60 46 138 70 229 70 56 1 83
-4 103 -17 15 -9 27 -15 27 -12 0 3 18 -4 40 -15 22 -11 40 -24 40 -28 0 -5
16 -25 35 -46 45 -49 71 -93 80 -133 3 -17 13 -37 21 -43 17 -15 47 -5 41 13
-2 6 4 23 14 36 11 13 19 34 19 46 0 35 40 65 87 65 36 0 44 -4 62 -33 22 -36
57 -57 96 -57 36 0 31 19 -15 61 -35 32 -40 42 -40 79 0 71 56 140 115 140 20
0 25 5 25 26 0 24 -3 26 -30 21 -70 -14 -149 -90 -165 -159 -7 -26 -11 -28
-56 -28 -45 0 -53 -4 -95 -46 -25 -25 -47 -44 -48 -42 -33 55 -133 168 -149
168 -4 0 -36 14 -70 31 -52 26 -73 31 -132 31 -108 0 -192 -29 -322 -110 -45
-28 -74 -74 -104 -162 -21 -62 -25 -150 -8 -167 9 -9 8 -16 -5 -28 -15 -15
-18 -15 -43 3 -16 11 -50 24 -77 30 -42 9 -57 7 -100 -9 -53 -21 -105 -71
-106 -101 0 -19 -25 -25 -35 -8 -13 21 -60 9 -117 -30 -52 -36 -61 -39 -81
-28 -13 7 -63 12 -127 13 -103 0 -107 -1 -184 -40 -43 -22 -81 -47 -84 -55 -3
-8 -18 -32 -34 -52 -38 -49 -58 -181 -39 -255 7 -26 15 -58 18 -69 4 -18 -1
-23 -27 -29 -49 -11 -96 -42 -129 -86 l-29 -40 -78 -3 c-44 -2 -91 -7 -105
-10 l-26 -8 5 70 c4 60 1 77 -20 123 -14 30 -40 68 -58 86 -41 41 -139 88
-218 103 -64 13 -72 19 -48 39 19 16 27 91 15 137 -16 58 -59 120 -100 143
-24 14 -64 23 -113 28 l-76 6 0 31 c0 17 -8 44 -19 59 -32 49 -130 137 -151
137 -12 0 -30 5 -40 10 -49 26 -237 -32 -279 -86 l-20 -26 -23 22 c-17 16 -33
20 -63 18 l-40 -3 -3 48 c-2 26 -9 62 -17 81 -18 43 -122 146 -147 146 -11 0
-28 5 -39 11 -22 11 -118 14 -171 4 -32 -6 -36 -4 -41 17 -4 14 -18 30 -32 36
-21 10 -25 18 -25 53 0 51 -28 92 -80 119 -36 18 -66 20 -120 8 -12 -2 -16 14
-20 83 -6 102 -30 146 -123 227 -51 44 -66 52 -115 58 -92 12 -144 10 -189 -6z
M134 2636 c-4 -9 -3 -49 0 -89 4 -39 8 -88 9 -107 1 -19 9 -47 16 -63 8 -15
11 -30 8 -33 -10 -10 -137 58 -153 81 -13 18 -14 8 -12 -85 l3 -105 75 -37
c41 -20 79 -33 83 -29 8 8 27 4 99 -21 15 -6 29 -16 32 -24 4 -10 -6 -9 -35 7
-47 24 -74 19 -64 -11 4 -13 2 -20 -7 -20 -29 0 -121 30 -153 49 -33 19 -35
19 -35 2 0 -10 7 -22 16 -25 9 -4 14 -13 10 -21 -7 -19 3 -45 18 -45 6 0 28
-9 48 -19 19 -11 38 -17 41 -14 4 3 14 2 24 -3 10 -4 25 -8 33 -9 68 -8 125
-28 149 -53 14 -15 40 -37 56 -48 l30 -21 -58 8 c-70 9 -182 60 -209 94 -11
14 -24 23 -28 20 -13 -8 10 -55 26 -55 18 0 23 -23 8 -38 -16 -15 -8 -40 24
-77 l24 -27 -21 -19 c-27 -26 -27 -33 9 -71 29 -32 29 -33 30 -9 0 14 -7 32
-16 42 -9 10 -13 23 -9 28 10 16 45 13 45 -4 0 -8 5 -15 11 -15 6 0 30 -14 54
-30 24 -17 58 -33 75 -36 16 -4 30 -11 30 -16 0 -17 -26 -18 -69 -3 -54 19
-71 19 -71 1 0 -15 5 -17 88 -36 48 -11 72 -30 37 -30 -7 0 -18 -8 -24 -17 -9
-17 -11 -17 -45 0 -34 16 -36 16 -36 -2 0 -10 11 -23 25 -29 17 -8 25 -20 25
-36 0 -31 18 -45 80 -61 29 -8 60 -21 69 -29 10 -9 31 -16 47 -17 54 -2 77
-14 85 -42 8 -31 20 -28 -144 -29 -64 0 -102 4 -112 12 -13 10 -23 10 -53 -3
-20 -9 -47 -19 -59 -22 -12 -3 -39 -24 -60 -46 -21 -22 -59 -54 -84 -71 -35
-22 -55 -47 -83 -98 -32 -62 -36 -76 -35 -142 l1 -73 12 70 c7 39 17 79 23 91
38 68 85 127 130 163 28 22 57 49 65 60 20 29 111 61 134 47 11 -6 83 -11 169
-11 165 -2 238 -10 273 -33 12 -8 33 -15 45 -16 16 -1 23 -9 27 -31 5 -27 9
-30 45 -33 27 -2 48 -11 63 -28 13 -13 29 -24 37 -24 7 0 15 -5 17 -10 7 -22
74 -14 109 12 19 14 43 28 53 29 10 2 24 12 29 21 14 21 -17 83 -51 106 -14 9
-22 23 -20 35 3 19 9 20 70 18 68 -2 111 11 137 43 8 9 23 16 35 16 17 0 18 2
6 10 -25 16 -57 11 -71 -11 -17 -24 -90 -36 -129 -21 -24 9 -23 11 22 22 33 9
55 22 72 45 l25 32 -40 13 c-52 17 -89 53 -89 85 0 33 5 32 42 -11 36 -40 116
-83 126 -67 10 15 133 77 160 80 12 1 22 -2 22 -8 0 -5 0 -12 0 -16 0 -8 -3
-9 -32 -12 -9 -1 -9 -4 0 -13 21 -21 14 -35 -18 -30 -32 5 -37 -4 -17 -32 11
-15 15 -16 40 -3 15 8 36 26 48 41 16 20 29 26 60 26 22 0 51 -7 64 -16 21
-13 23 -19 14 -36 -9 -16 -18 -19 -44 -15 -74 12 -91 -40 -36 -112 17 -23 26
-47 26 -75 0 -22 4 -47 9 -55 6 -10 2 -19 -15 -32 -31 -24 -56 -24 -104 1 -50
26 -59 25 -79 -5 -17 -26 -21 -63 -8 -81 10 -16 70 -34 88 -27 24 9 92 -29
105 -58 11 -29 -4 -72 -35 -98 -9 -8 -16 -20 -16 -29 0 -12 -9 -14 -52 -8 -29
3 -61 6 -70 6 -30 0 -20 18 17 31 28 10 35 18 35 39 0 36 -17 50 -60 50 l-37
0 -18 75 c-11 42 -24 75 -31 75 -21 0 -21 -21 -1 -79 13 -40 17 -77 15 -131
l-3 -76 45 -4 c25 -2 88 -4 140 -5 79 0 102 4 139 23 52 25 51 25 51 12 0 -6
-11 -15 -25 -20 -36 -14 -31 -19 15 -13 l39 6 -9 -34 c-11 -37 -34 -59 -62
-59 -16 0 -18 7 -16 36 2 22 -2 39 -9 41 -7 3 -13 -10 -15 -33 -3 -37 -3 -37
-81 -60 -70 -21 -257 -39 -395 -38 -46 1 -77 34 -77 82 0 51 -29 52 -33 1 -3
-35 -5 -37 -48 -42 -120 -13 -349 14 -428 51 -57 27 -62 32 -73 75 -12 42 -19
50 -90 96 -72 47 -113 62 -113 43 0 -4 30 -27 68 -51 98 -64 120 -99 92 -150
-8 -16 -62 -33 -112 -35 -9 -1 -26 -14 -39 -31 -13 -16 -26 -32 -30 -35 -3 -3
-10 -16 -14 -29 -7 -22 -5 -23 21 -17 16 4 36 7 44 7 8 1 32 7 54 15 30 11 41
12 52 3 18 -15 14 -41 -6 -45 -127 -26 -275 -25 -308 2 -14 11 97 136 144 162
11 6 15 16 10 27 -6 17 -8 16 -30 -4 -12 -11 -25 -18 -29 -15 -4 4 -12 3 -19
-2 -46 -34 -157 7 -185 69 -18 40 -28 46 -37 22 -7 -20 10 -65 32 -82 37 -31
94 -51 121 -43 14 4 34 4 44 1 16 -6 16 -9 -6 -30 -22 -20 -29 -21 -62 -12
-20 5 -43 7 -51 4 -24 -9 -84 29 -90 57 -10 46 -12 45 -13 -3 -1 -61 18 -82
83 -91 56 -7 69 -19 62 -58 -8 -40 13 -49 106 -49 78 0 211 15 230 27 8 5 23
-26 30 -61 3 -16 -6 -17 -87 -16 -49 1 -95 6 -101 11 -6 6 -14 6 -20 0 -10
-10 -19 -11 -104 -9 -25 1 -80 0 -122 -1 l-78 -3 0 -30 0 -29 68 7 c37 4 382
6 767 4 780 -4 1907 -1 2620 6 672 7 1524 7 1536 -1 7 -4 9 3 7 17 l-3 24
-745 -2 c-2510 -7 -3499 -7 -3505 -2 -3 4 -6 28 -6 55 -1 46 -4 52 -52 97 -28
26 -57 45 -65 42 -13 -5 -85 59 -76 68 2 2 24 -5 47 -17 99 -48 163 -58 379
-57 109 1 121 -1 165 -25 46 -26 49 -27 200 -22 84 3 153 3 153 -1 -1 -3 -7
-17 -14 -30 -17 -31 0 -69 34 -75 14 -3 107 -5 207 -5 246 0 243 -1 272 164
22 122 41 169 103 253 40 54 42 72 6 72 -14 0 -18 5 -14 15 3 8 9 21 12 29 4
10 -4 16 -25 21 -17 4 -33 11 -36 16 -4 5 -18 9 -33 9 -18 0 -23 -3 -14 -8 10
-7 10 -24 2 -78 -5 -38 -10 -87 -10 -110 0 -60 -14 -71 -102 -78 -78 -6 -78
-6 -78 19 0 37 -15 38 -61 5 -27 -19 -54 -30 -76 -30 l-34 0 31 39 c30 37 41
85 26 110 -4 6 -25 20 -47 31 -40 21 -44 27 -31 47 18 29 78 35 345 34 9 0 17
5 17 10 0 7 -45 8 -129 3 -161 -8 -165 -8 -145 44 15 36 14 42 -7 98 -12 32
-24 76 -26 97 -5 34 -3 37 21 37 25 0 81 50 81 72 0 15 -105 50 -131 43 -27
-6 -47 15 -34 35 16 26 11 99 -10 140 -23 45 -63 70 -115 70 -28 0 -35 -4 -35
-19 0 -10 11 -26 24 -34 26 -18 40 -78 30 -132 -5 -29 -13 -36 -60 -56 -56
-22 -135 -22 -142 0 -5 15 -72 81 -82 81 -24 0 -42 -35 -37 -73 6 -45 29 -73
75 -93 42 -17 37 -35 -14 -52 -57 -18 -84 -34 -84 -49 0 -22 -14 -15 -57 30
-62 64 -86 121 -103 239 -5 36 -28 114 -50 172 -36 92 -46 108 -78 128 -40 24
-101 70 -137 104 -26 24 -106 74 -150 93 -66 28 -223 133 -275 183 -46 43 -62
69 -89 138 -19 47 -38 89 -43 95 -4 5 -8 17 -8 26 0 24 -19 34 -26 15z m23
-88 c-3 -8 -6 -5 -6 6 -1 11 2 17 5 13 3 -3 4 -12 1 -19z m49 -95 c27 -59 48
-89 91 -127 62 -56 181 -133 286 -185 71 -36 103 -62 45 -38 -100 43 -201 90
-268 125 -41 21 -85 41 -97 44 -13 4 -25 14 -29 25 -3 10 -16 38 -28 63 -13
25 -27 65 -31 90 -3 25 -9 53 -11 63 -12 41 9 11 42 -60z m-110 -119 c21 -9
57 -29 81 -45 23 -16 46 -29 51 -29 5 0 15 -7 22 -15 7 -8 15 -13 19 -11 3 2
26 -7 51 -20 95 -49 214 -104 228 -104 13 0 240 -118 287 -149 34 -23 45 -39
72 -112 18 -47 39 -129 47 -181 17 -105 59 -194 122 -258 55 -56 134 -154 134
-166 0 -11 -112 -9 -147 1 -21 7 -15 25 12 35 38 14 30 42 -23 82 -35 27 -57
56 -84 110 -48 98 -96 225 -101 273 -3 22 -10 53 -16 68 -6 16 -11 46 -11 67
0 49 -8 70 -27 70 -8 0 -38 11 -66 23 -29 13 -91 34 -139 46 -82 20 -180 63
-353 156 -38 20 -82 44 -96 51 -42 23 -128 124 -105 124 2 0 21 -7 42 -16z
m-26 -69 c20 -24 6 -28 -15 -5 -10 11 -13 20 -8 20 6 0 16 -7 23 -15z m263
-170 c20 1 45 -4 55 -11 15 -11 15 -14 -11 -38 l-28 -26 -47 32 c-26 17 -50
36 -54 42 -15 22 -7 26 20 12 15 -7 44 -13 65 -11z m-129 -25 c34 0 101 -39
89 -51 -9 -9 -132 17 -147 32 -6 5 -18 9 -29 9 -10 0 -28 5 -39 11 -36 19 0
29 51 13 25 -8 59 -14 75 -14z m266 -45 c18 -9 40 -13 55 -9 20 5 25 2 25 -12
0 -10 10 -28 22 -41 27 -29 13 -29 -32 -1 -19 13 -55 30 -79 39 -45 15 -67 39
-36 39 9 0 29 -7 45 -15z m-53 -41 c-3 -3 -12 -4 -19 -1 -8 3 -5 6 6 6 11 1
17 -2 13 -5z m268 -19 c91 -14 153 -45 90 -45 -30 0 -126 25 -154 40 -28 14
-27 24 2 17 12 -3 40 -8 62 -12z m-251 -17 c22 -7 53 -26 68 -43 16 -19 47
-37 80 -48 30 -9 62 -23 72 -30 16 -12 17 -16 5 -36 -19 -31 -56 -25 -154 26
-53 28 -59 46 -11 38 44 -9 50 10 9 26 -16 6 -37 18 -48 28 -11 10 -33 26 -50
34 -36 20 -26 21 29 5z m216 -42 c0 11 7 13 28 8 42 -10 45 -14 25 -36 -17
-19 -17 -21 10 -44 16 -13 34 -24 41 -24 8 0 20 -7 27 -17 13 -15 12 -15 -18
0 -18 10 -41 17 -53 17 -11 0 -20 6 -20 14 0 12 -55 46 -75 46 -14 0 -75 33
-75 40 0 17 46 16 78 -1 27 -16 32 -16 32 -3z m-398 -25 c-4 -36 -9 -37 -37
-11 -34 31 -31 42 8 38 27 -3 32 -7 29 -27z m177 -49 c32 -23 69 -44 84 -47
42 -11 33 -28 -10 -21 -62 11 -193 67 -204 87 -27 51 45 40 130 -19z m391 -12
c18 -68 21 -120 8 -120 -21 0 -141 65 -146 78 -6 20 60 14 97 -9 24 -15 32
-16 28 -6 -3 8 -1 19 5 25 6 6 -5 18 -34 33 -57 32 -62 57 -11 61 28 2 39 -1
41 -12 1 -8 7 -31 12 -50z m741 -62 c24 -47 23 -111 -2 -116 -13 -2 -18 11
-26 65 -6 37 -13 76 -18 86 -15 36 26 5 46 -35z m-1189 21 c49 -20 90 -32 161
-46 42 -8 27 -27 -24 -31 -71 -5 -221 61 -204 89 8 12 6 12 67 -12z m397 -82
c28 -17 31 -21 17 -29 -25 -14 -19 -34 17 -63 29 -23 30 -26 14 -36 -9 -6 -15
-14 -12 -20 17 -27 -136 4 -172 35 -39 33 -23 46 58 46 81 0 90 16 18 35 -65
18 -101 34 -95 43 3 5 18 7 34 4 16 -2 33 1 37 7 8 14 37 6 84 -22z m-139 -30
l35 -15 -35 -1 c-20 -1 -46 -8 -58 -17 -35 -24 -122 -4 -122 29 0 6 15 7 36 4
24 -4 41 -2 50 7 15 16 47 14 94 -7z m254 -75 c9 -23 16 -51 16 -62 0 -17 -3
-18 -25 -8 -29 13 -31 23 -10 45 14 13 12 17 -17 36 -38 26 -46 44 -21 49 24
6 37 -8 57 -60z m-329 -6 c11 0 31 -9 45 -18 13 -10 35 -18 47 -18 13 0 23 -4
23 -9 0 -10 -49 -21 -94 -21 -37 0 -125 39 -146 65 -14 17 -12 18 45 10 33 -4
69 -8 80 -9z m-99 -50 l49 -24 -29 -7 c-46 -12 -123 32 -83 48 6 3 12 6 13 6
0 1 22 -10 50 -23z m335 -69 c7 -26 6 -28 -20 -24 -58 9 -91 40 -53 50 40 11
66 2 73 -26z m-118 -2 l18 -25 -65 0 c-69 0 -116 15 -116 37 0 10 18 13 73 13
65 -1 74 -3 90 -25z m297 -67 c0 -6 -8 -7 -17 -3 -10 4 -31 12 -48 18 -39 13
-85 45 -85 59 0 6 18 8 45 5 25 -2 48 0 51 5 6 10 54 -65 54 -84z m-234 -13
c-7 -19 -60 -14 -64 6 -2 9 10 21 30 30 30 13 33 13 36 -4 2 -10 1 -25 -2 -32z
m160 5 c8 0 14 -9 14 -21 0 -22 -4 -22 -102 -3 -32 6 -38 37 -10 53 12 7 26 5
50 -10 18 -10 40 -19 48 -19z m152 -53 c30 -31 19 -38 -40 -26 -50 11 -72 37
-38 46 11 3 20 9 20 15 0 13 31 -5 58 -35z m-313 13 c8 -13 -5 -13 -25 0 -13
8 -13 10 2 10 9 0 20 -4 23 -10z m65 -6 c0 -2 -7 -4 -15 -4 -8 0 -15 4 -15 10
0 5 7 7 15 4 8 -4 15 -8 15 -10z m70 -13 c0 -18 -18 -21 -30 -6 -10 13 -9 15
9 15 11 0 21 -4 21 -9z m68 -20 c9 -5 28 -14 42 -19 23 -10 22 -11 -16 -11
-39 -1 -72 18 -57 32 8 9 10 9 31 -2z m32 -61 c0 -5 -13 -10 -30 -10 -16 0
-30 5 -30 10 0 6 14 10 30 10 17 0 30 -4 30 -10z m65 -20 c13 -14 15 -24 8
-31 -8 -8 -15 -4 -27 12 -28 41 -14 55 19 19z m110 -19 c3 -5 1 -12 -5 -16
-13 -8 -50 3 -50 16 0 12 47 12 55 0z m-55 -36 c10 -12 10 -15 -4 -15 -9 0
-16 7 -16 15 0 8 2 15 4 15 2 0 9 -7 16 -15z m448 -5 c35 -16 42 -30 14 -30
-21 0 -62 27 -62 41 0 6 3 9 8 7 4 -3 22 -11 40 -18z m59 14 c-3 -3 -12 -4
-19 -1 -8 3 -5 6 6 6 11 1 17 -2 13 -5z m472 -16 c0 -7 -11 -35 -24 -63 l-25
-50 6 45 c4 25 10 53 16 63 10 20 28 23 27 5z m21 -74 c0 -14 -54 -96 -58 -86
-4 14 36 92 48 92 6 0 10 -3 10 -6z m-600 -97 c0 -17 -10 -28 -36 -41 -33 -15
-36 -15 -30 -1 3 9 6 28 6 41 0 20 5 24 30 24 25 0 30 -4 30 -23z m466 -94
c-3 -10 -21 -60 -40 -112 l-33 -94 -74 -4 c-96 -5 -110 -10 -85 -29 19 -14 19
-14 -2 -14 -12 0 -21 3 -21 8 4 22 -3 30 -21 25 -11 -3 -54 -2 -95 2 -63 6
-75 10 -75 25 0 9 7 24 16 31 24 20 123 49 168 49 73 0 104 18 121 71 17 51
24 55 103 58 37 1 43 -2 38 -16z m4 -94 c-5 -19 -14 -53 -20 -76 -6 -24 -15
-43 -19 -43 -7 0 11 78 35 149 9 28 13 4 4 -30z m-1423 6 c15 -11 26 -34 34
-75 15 -75 43 -105 93 -97 25 4 38 1 50 -12 27 -29 19 -34 -50 -28 -83 6 -124
39 -124 98 0 68 -53 108 -118 89 -44 -12 -40 5 6 23 48 20 82 21 109 2z m130
-81 c39 -30 42 -51 8 -60 -31 -8 -61 15 -68 51 -8 43 11 46 60 9z m922 -80 c2
-2 -10 -4 -27 -4 -17 0 -34 4 -37 10 -5 9 53 3 64 -6z m271 6 c0 -6 -25 -9
-57 -9 -48 1 -53 3 -28 9 45 11 85 11 85 0z M77 1983 c-2 -5 -7 -19 -10 -33
-3 -14 -20 -33 -37 -43 -16 -10 -30 -25 -30 -33 0 -18 14 -18 29 0 7 8 25 18
41 21 37 8 57 56 34 80 -17 17 -21 18 -27 8z M4645 1899 c-38 -17 -84 -37
-102 -45 -17 -8 -34 -14 -37 -14 -8 0 -101 -44 -272 -127 -150 -75 -202 -111
-332 -233 -35 -33 -67 -60 -72 -60 -4 0 -15 11 -24 25 -9 14 -23 25 -31 25 -8
0 -12 6 -9 15 3 8 1 30 -6 50 -9 28 -17 35 -36 35 -14 0 -34 -4 -44 -10 -13
-7 -26 -5 -47 5 -15 8 -33 15 -40 15 -6 0 -18 6 -25 13 -26 25 -68 47 -88 47
-11 0 -38 -17 -60 -37 -22 -21 -62 -58 -89 -82 -33 -29 -57 -60 -68 -90 -9
-25 -30 -64 -45 -85 -29 -40 -35 -70 -18 -81 18 -11 11 -45 -9 -45 -11 0 -23
5 -26 10 -3 6 -14 10 -23 10 -10 0 -35 9 -56 20 -22 10 -43 17 -48 14 -14 -9
-118 -153 -118 -164 0 -5 -45 -31 -99 -57 -74 -35 -104 -55 -117 -77 -9 -17
-28 -44 -41 -60 -13 -16 -20 -33 -16 -37 5 -5 51 -11 103 -14 52 -3 124 -9
160 -15 36 -5 84 -12 106 -15 71 -10 84 -13 100 -29 11 -12 20 -13 33 -6 10 5
21 6 25 2 4 -3 10 -2 14 4 4 5 21 20 39 32 38 26 99 29 183 7 46 -12 77 -13
148 -6 95 10 132 24 169 64 19 20 30 24 68 21 35 -3 47 0 54 15 14 26 1 34
-22 14 -19 -17 -19 -17 -12 6 7 22 5 23 -24 19 -18 -3 -34 -1 -36 3 -8 12 -45
-2 -45 -18 0 -40 -29 -69 -81 -82 -70 -18 -135 -22 -184 -11 -55 12 -182 15
-231 6 -37 -6 -42 -5 -47 13 -3 12 -1 23 4 26 4 3 6 12 2 20 -5 15 6 20 42 16
11 -2 73 -4 137 -6 91 -2 120 0 129 11 6 8 18 14 26 14 22 0 94 82 89 103 -3
12 2 17 16 17 15 0 18 4 13 18 -17 37 -16 81 0 116 26 55 35 43 17 -23 -13
-49 -14 -62 -3 -75 23 -28 44 -20 38 14 -4 17 1 51 10 80 l16 50 -46 46 c-45
44 -46 45 -75 30 -32 -17 -45 -38 -36 -60 10 -27 32 -26 43 2 9 26 9 26 10 4
1 -13 -4 -33 -10 -44 -9 -17 -13 -18 -20 -7 -13 20 -29 -6 -29 -48 0 -17 -5
-35 -12 -39 -10 -7 -9 39 3 84 3 9 -7 15 -30 17 -26 2 -35 -1 -39 -17 -3 -14
-7 -16 -13 -7 -6 10 -13 9 -33 -4 -30 -20 -59 -22 -54 -4 3 6 17 18 31 25 26
13 35 36 19 46 -5 3 -23 -4 -42 -15 -21 -13 -35 -17 -39 -10 -4 7 -14 3 -24
-10 -25 -29 -50 -20 -58 21 -5 25 -3 41 10 60 10 14 23 43 29 66 9 29 28 56
69 93 32 28 70 63 85 78 24 23 28 25 34 10 3 -9 12 -17 20 -17 8 0 14 -9 14
-20 0 -11 5 -20 12 -20 6 0 9 -3 5 -6 -3 -3 3 -14 14 -25 22 -22 26 -61 5 -53
-19 7 -76 -23 -76 -40 0 -26 37 -49 67 -41 15 4 42 8 59 9 21 1 30 5 27 14 -3
7 3 12 14 12 26 0 43 19 43 48 0 17 -4 22 -14 19 -23 -9 -27 22 -6 43 24 24
34 25 55 4 14 -15 14 -18 0 -40 -8 -13 -15 -30 -15 -39 0 -17 25 -21 35 -5 10
16 25 11 25 -8 0 -10 -11 -29 -25 -42 -28 -27 -32 -45 -10 -53 9 -4 22 7 37
31 13 20 30 36 38 36 8 -1 19 -2 24 -3 4 0 -7 -20 -26 -43 -45 -55 -62 -88
-51 -99 11 -11 22 -2 56 44 22 29 32 35 42 27 9 -7 16 -6 24 4 10 11 9 16 -4
24 -16 8 -16 12 -2 38 37 70 85 101 227 148 74 24 153 46 175 49 l40 6 -24
-20 c-13 -10 -35 -22 -50 -25 -61 -12 -191 -56 -201 -69 -21 -25 6 -24 88 5
45 16 84 25 87 20 8 -12 -112 -68 -164 -76 -42 -7 -84 -35 -63 -42 6 -2 34 1
64 7 65 11 72 7 22 -15 -22 -9 -47 -21 -57 -26 -10 -5 -36 -11 -57 -13 -22 -2
-44 -6 -50 -10 -15 -9 -12 -25 6 -25 8 0 12 -5 9 -10 -3 -5 -17 -10 -30 -10
-27 0 -41 -15 -24 -26 8 -5 2 -13 -18 -23 -55 -30 -103 -63 -103 -71 0 -21 23
-19 51 4 37 31 49 33 49 6 0 -11 6 -23 14 -26 8 -3 18 -18 21 -34 11 -49 78
-78 105 -45 12 14 15 14 31 -1 23 -21 51 -15 64 14 7 15 15 20 25 16 8 -4 29
-9 47 -12 46 -6 59 23 33 74 -11 21 -20 39 -20 40 0 1 30 2 68 2 81 -1 108 7
115 31 2 10 17 25 33 33 26 12 35 12 79 -5 28 -10 54 -23 60 -28 5 -5 20 -9
35 -9 l25 0 -25 -20 c-14 -10 -40 -22 -58 -25 -61 -11 -107 -78 -121 -175 -6
-40 -9 -45 -31 -43 -117 9 -194 1 -188 -19 3 -7 51 -12 127 -13 109 -2 124 -5
142 -23 10 -12 19 -23 19 -25 0 -2 -21 -2 -46 0 -38 4 -51 0 -70 -18 -26 -24
-31 -60 -11 -77 13 -11 174 -1 263 17 29 5 68 7 88 4 42 -7 113 20 120 46 8
27 20 155 17 181 -2 14 -7 29 -12 35 -5 5 -9 19 -9 32 0 30 -38 89 -67 104
-22 12 -21 14 40 76 34 35 81 95 103 133 23 39 65 93 93 121 38 38 51 57 51
80 0 16 -5 29 -12 29 -9 0 -9 3 0 12 7 7 12 31 12 54 0 39 -2 42 -22 36 -13
-4 -47 -25 -76 -47 -43 -32 -55 -49 -67 -89 -9 -31 -11 -53 -5 -60 14 -18 -5
-82 -38 -124 -29 -36 -81 -85 -155 -144 -34 -28 -73 -32 -99 -11 -7 6 -32 17
-55 24 -24 6 -43 18 -43 25 0 7 -8 17 -17 23 -16 8 -15 11 10 20 15 6 38 13
51 17 30 7 80 59 72 73 -4 6 -17 11 -29 11 -19 1 -18 3 8 14 39 17 95 64 95
81 0 11 54 68 121 127 32 28 64 76 56 85 -4 3 -2 14 4 24 8 15 6 21 -6 26 -15
5 -39 -4 -162 -59 -23 -11 -45 -19 -48 -19 -3 1 -19 -6 -35 -14 -17 -9 -30
-13 -30 -11 0 14 109 104 149 123 52 25 83 57 74 78 -8 21 -29 18 -108 -16z
m50 -23 c-10 -7 -61 -31 -113 -52 -65 -27 -97 -46 -102 -60 -6 -14 -26 -28
-56 -38 -26 -9 -54 -22 -63 -30 -38 -33 -155 -106 -172 -106 -10 0 -55 -14
-100 -30 -45 -17 -83 -29 -85 -27 -9 9 165 127 188 127 5 0 23 9 39 21 16 11
29 17 29 13 0 -4 8 0 18 8 28 25 272 139 392 183 40 15 52 11 25 -9z m25 -126
c-25 -20 -280 -150 -332 -169 -25 -10 -28 -8 -28 12 0 16 10 26 33 36 17 7 46
19 62 26 17 7 62 25 100 40 39 15 93 37 120 51 61 28 78 30 45 4z m-41 -96
c-65 -66 -96 -85 -159 -97 l-35 -7 50 48 c46 43 194 135 204 126 3 -3 -24 -34
-60 -70z m284 10 c-13 -26 -15 -39 -6 -52 8 -13 6 -23 -8 -43 -19 -28 -89 -75
-89 -60 0 4 11 14 25 21 14 7 25 19 25 25 0 7 9 20 21 30 l20 19 -23 17 c-16
13 -26 15 -35 7 -23 -18 -14 8 10 30 17 16 51 35 74 41 2 1 -5 -15 -14 -35z
m-573 6 c-11 -11 -23 -20 -27 -20 -3 0 2 9 12 20 10 11 22 20 27 20 4 0 -1 -9
-12 -20z m486 -107 c-11 -11 -19 6 -11 24 8 17 8 17 12 0 3 -10 2 -21 -1 -24z
m-535 -39 c-63 -28 -90 -32 -71 -9 6 8 30 18 53 24 70 15 75 11 18 -15z m209
-3 c0 -5 -33 -23 -72 -39 -69 -29 -101 -56 -62 -52 11 1 36 2 57 1 94 -3 -6
-49 -123 -56 -44 -3 -103 -10 -131 -15 -65 -13 -119 -13 -119 -1 0 9 117 51
142 51 19 0 159 68 181 87 25 23 127 42 127 24z m-256 -61 c-5 -5 -25 -13 -44
-16 -37 -7 -33 10 5 19 36 9 50 8 39 -3z m-114 -30 c0 -5 -4 -10 -10 -10 -5 0
-10 5 -10 10 0 6 5 10 10 10 6 0 10 -4 10 -10z m623 -54 c-15 -26 -152 -166
-162 -166 -25 0 -8 30 37 66 26 20 64 55 85 76 39 39 54 48 40 24z m-429 -41
c-4 -9 0 -15 10 -15 24 0 19 -19 -9 -32 -23 -10 -150 -3 -297 18 -72 11 -45
19 65 21 62 1 132 6 157 11 68 15 80 14 74 -3z m-124 -83 c19 -4 35 -11 35
-17 0 -16 -74 -18 -109 -3 -17 7 -33 13 -36 13 -29 4 -70 18 -70 24 0 7 114
-4 180 -17z m-272 -12 c36 -33 39 -40 17 -40 -32 0 -65 23 -65 47 0 30 8 29
48 -7z m37 20 c3 -5 2 -10 -4 -10 -5 0 -13 5 -16 10 -3 6 -2 10 4 10 5 0 13
-4 16 -10z m-886 -46 c99 -31 109 -37 89 -58 -9 -8 -15 -30 -14 -47 1 -28 7
-34 44 -48 39 -14 45 -14 75 1 75 38 86 31 33 -21 l-34 -33 -98 12 c-55 7
-107 17 -117 22 -10 5 -46 15 -80 22 -85 17 -89 29 -37 110 23 36 45 66 48 66
3 0 44 -12 91 -26z m782 -10 c12 -14 11 -16 -5 -13 -11 2 -21 10 -24 17 -5 17
13 15 29 -4z m-446 -20 c-23 -17 -32 -10 -15 11 7 8 17 12 23 8 6 -4 3 -11 -8
-19z m634 15 c6 9 14 3 30 -22 26 -42 27 -57 3 -57 -22 0 -92 57 -92 76 0 11
5 11 26 2 20 -9 27 -9 33 1z m-779 -9 c0 -5 -7 -10 -16 -10 -8 0 -12 5 -9 10
3 6 10 10 16 10 5 0 9 -4 9 -10z m1300 -25 c0 -15 -6 -25 -14 -25 -23 0 -28
17 -10 34 21 21 24 20 24 -9z m87 -16 c16 -17 31 -47 35 -67 10 -55 9 -177 -2
-206 -11 -30 -31 -35 -23 -6 6 24 -4 25 -31 5 -35 -26 -95 -18 -173 22 -105
55 -126 104 -80 193 18 37 29 47 60 54 30 8 40 6 50 -6 13 -18 85 -58 103 -58
17 0 47 37 40 49 -4 6 -13 8 -21 4 -16 -5 -19 5 -9 31 9 23 20 20 51 -15z
m-1313 4 c3 -10 9 -24 12 -31 4 -9 -3 -12 -23 -11 -15 2 -38 -1 -51 -5 -12 -4
-22 -4 -21 1 4 22 -3 24 -26 9 -14 -9 -25 -12 -25 -6 0 5 5 10 10 10 6 0 10 5
10 10 0 6 -10 10 -22 10 -39 0 -8 14 45 21 83 10 84 10 91 -8z m555 -24 c14
-42 14 -49 -3 -49 -23 0 -58 54 -44 68 20 20 36 13 47 -19z m86 0 c9 -17 14
-33 11 -37 -8 -8 -56 39 -56 55 0 25 29 13 45 -18z m-601 -88 c-23 -21 -44
-44 -47 -52 -5 -12 -7 -12 -16 0 -17 26 75 113 99 94 2 -2 -14 -21 -36 -42z
m-488 21 c13 -13 167 -49 262 -63 45 -6 84 -14 86 -18 2 -3 -27 -4 -66 -3 -58
3 -73 0 -91 -16 -22 -20 -59 -19 -200 2 -17 2 -62 8 -100 11 -37 4 -70 11 -73
16 -6 10 129 77 157 78 8 1 19 -3 25 -7z m609 -2 c-3 -5 -11 -10 -16 -10 -6 0
-7 5 -4 10 3 6 11 10 16 10 6 0 7 -4 4 -10z m-56 -22 c-11 -21 -66 -78 -75
-78 -10 0 13 39 40 67 36 37 52 42 35 11z m-679 -82 c25 -3 94 -13 154 -22 88
-14 109 -20 113 -35 3 -10 16 -25 29 -34 13 -8 24 -20 24 -26 0 -8 -4 -8 -12
-1 -25 20 -260 56 -347 53 -57 -2 -91 5 -91 18 0 5 9 20 21 35 14 18 27 25 42
21 12 -2 42 -7 67 -9z m1701 -101 c40 -21 30 -31 -33 -34 -29 -1 -61 -4 -71
-7 -10 -3 -24 0 -32 6 -8 7 -24 9 -37 4 -20 -6 -21 -5 -10 8 8 10 31 16 64 17
28 0 56 5 62 11 13 13 22 13 57 -5z M1412 1512 c-20 -16 -22 -20 -9 -31 12 -9
16 -9 20 1 4 10 7 10 15 -1 5 -7 15 -10 21 -7 16 11 13 43 -5 50 -19 7 -15 9
-42 -12z M3932 1436 c1 -10 8 -17 13 -17 15 1 12 24 -3 29 -9 3 -13 -2 -10
-12z M3320 1410 c-14 -26 -5 -40 25 -40 13 0 27 4 30 10 9 14 -13 50 -30 50
-8 0 -19 -9 -25 -20z M3890 1400 c-10 -19 -9 -21 12 -18 13 2 23 9 23 17 0 23
-23 24 -35 1z M1425 1403 c-26 -6 -44 -23 -25 -23 7 0 24 -10 37 -22 27 -25
47 -14 41 23 -3 24 -18 31 -53 22z M3937 1384 c-8 -8 1 -24 14 -24 5 0 9 7 9
15 0 15 -12 20 -23 9z M4889 1363 c-27 -4 -39 -31 -39 -89 0 -20 -5 -24 -28
-24 -23 0 -30 -6 -41 -36 -12 -34 -11 -37 13 -63 23 -24 26 -36 25 -83 -2 -60
4 -78 27 -78 25 0 15 -29 -17 -45 -25 -13 -28 -19 -18 -31 9 -11 15 -12 26 -3
7 7 17 9 21 5 8 -9 7 -113 -2 -149 -5 -23 -2 -28 19 -33 14 -4 29 -4 32 0 4 3
7 50 7 104 1 58 5 96 11 96 6 -1 25 -5 43 -9 25 -5 32 -3 32 9 0 9 -9 17 -22
18 -13 0 -27 2 -33 3 -5 2 -18 3 -27 4 -20 1 -24 26 -6 37 6 4 29 6 50 6 53
-2 46 22 -8 26 -43 3 -60 14 -49 32 5 8 22 10 51 5 36 -5 44 -3 44 9 0 12 -11
16 -44 16 -44 0 -74 19 -61 40 3 5 28 10 56 10 36 0 49 4 49 14 0 14 -7 16
-73 16 -22 0 -28 4 -25 17 3 14 13 18 51 17 34 -1 47 2 47 12 0 10 -13 14 -41
14 -22 0 -47 6 -55 14 -12 13 -10 15 14 20 15 3 39 4 55 2 26 -3 27 -2 27 45
0 35 -4 49 -14 49 -7 0 -26 2 -42 4 -16 2 -41 2 -55 -1z m98 -40 c9 -23 -18
-34 -43 -18 -15 9 -24 11 -32 3 -16 -16 -34 0 -23 20 12 22 89 18 98 -5z
m-131 -127 c21 -16 19 -20 -13 -30 -13 -4 -23 -3 -23 3 0 5 -3 16 -6 25 -8 20
15 21 42 2z m14 -135 c0 -10 -7 -21 -15 -25 -15 -5 -22 24 -8 37 12 13 23 7
23 -12z M3282 1298 c-12 -12 -17 -38 -6 -38 10 0 34 28 34 39 0 14 -13 14 -28
-1z M1555 1266 c-18 -13 -18 -14 3 -25 18 -10 23 -9 28 4 10 25 -9 37 -31 21z
M3805 1271 c-3 -5 -1 -12 5 -16 12 -7 30 2 30 16 0 12 -27 12 -35 0z M1436
1262 c-3 -6 -1 -14 5 -17 15 -10 25 3 12 16 -7 7 -13 7 -17 1z M4140 970 c0
-5 5 -10 10 -10 6 0 10 5 10 10 0 6 -4 10 -10 10 -5 0 -10 -4 -10 -10z M4072
954 c1 -9 9 -19 16 -22 9 -3 13 2 10 14 -1 9 -9 19 -16 22 -9 3 -13 -2 -10
-14z M3864 945 c-7 -17 4 -37 17 -30 12 8 12 45 -1 45 -6 0 -13 -7 -16 -15z
M3937 953 c-13 -12 -7 -33 8 -33 8 0 15 9 15 20 0 20 -11 26 -23 13z M4000
944 c0 -9 5 -14 12 -12 18 6 21 28 4 28 -9 0 -16 -7 -16 -16z M2540 820 c0
-11 7 -20 15 -20 8 0 15 9 15 20 0 11 -7 20 -15 20 -8 0 -15 -9 -15 -20z M0
438 c0 -13 6 -32 14 -43 7 -11 22 -45 34 -75 11 -30 32 -81 46 -112 14 -31 26
-61 26 -65 0 -5 9 -19 21 -32 25 -27 49 -14 41 24 -2 14 5 45 18 72 12 26 26
58 31 71 8 21 12 22 25 11 9 -7 34 -49 55 -93 22 -44 45 -86 50 -92 16 -20 39
-5 39 25 0 54 78 265 104 283 21 14 24 -6 25 -136 1 -120 -1 -136 -20 -160
l-20 -26 23 -1 c13 -1 27 -1 31 0 4 1 16 -3 26 -9 29 -15 48 13 34 51 -6 16
-9 37 -7 46 3 10 6 36 7 57 l2 40 62 3 61 4 -3 -100 c-2 -107 -1 -111 50 -111
29 0 41 16 26 34 -13 15 -9 309 4 339 6 14 2 17 -31 17 -57 0 -66 -10 -57 -56
5 -21 7 -54 5 -72 l-3 -33 -57 3 -57 3 0 70 0 70 -50 -5 c-56 -5 -110 -4 -140
1 -13 3 -20 -1 -20 -11 0 -10 8 -14 23 -13 12 2 22 -1 22 -6 0 -7 -25 -74 -50
-136 -5 -11 -12 -30 -15 -42 -4 -13 -9 -23 -13 -23 -5 0 -75 126 -90 162 -1 4
8 16 20 27 32 31 12 43 -79 49 -71 5 -77 4 -64 -12 7 -9 21 -16 31 -16 9 0 22
-10 29 -23 11 -20 8 -32 -18 -87 -17 -35 -31 -69 -31 -77 0 -53 -63 91 -76
175 -5 29 -11 42 -23 42 -9 0 -26 3 -38 6 -19 5 -23 2 -23 -18z M955 452 c-94
-3 -111 -7 -98 -25 13 -17 16 -190 5 -256 -13 -72 -3 -107 29 -103 13 1 57 4
97 6 81 5 104 17 100 54 -4 34 -26 39 -33 9 -6 -22 -13 -26 -58 -29 -70 -6
-70 -6 -68 90 1 58 17 68 48 32 32 -37 46 -26 38 33 -4 28 -9 54 -11 56 -2 3
-14 -5 -27 -17 -38 -36 -47 -28 -47 42 l0 64 36 6 c19 4 42 10 50 13 9 3 14
-2 14 -16 0 -21 25 -40 36 -28 10 9 -6 65 -19 69 -7 1 -48 2 -92 0z M2467 441
c10 -21 10 -90 0 -232 -9 -115 -9 -116 13 -122 31 -8 120 4 120 15 0 6 -9 12
-20 15 -15 4 -20 14 -21 39 -1 19 -1 46 -2 62 -1 21 4 28 21 30 15 2 22 -2 22
-12 0 -9 6 -16 14 -16 19 0 33 87 18 102 -15 15 -42 2 -42 -21 0 -14 -5 -19
-15 -14 -12 4 -15 18 -13 62 l3 56 50 5 c75 8 83 4 87 -38 2 -24 8 -38 19 -40
13 -2 18 8 23 42 11 74 9 75 -147 80 -125 3 -137 2 -130 -13z M2895 443 c-49
-12 -115 -124 -115 -195 0 -24 28 -78 40 -78 5 0 17 -13 26 -30 25 -41 63 -54
132 -46 45 5 64 13 90 39 47 45 72 98 72 152 0 57 -19 96 -66 132 -29 22 -48
28 -98 29 -33 2 -70 0 -81 -3z m141 -48 c24 -24 25 -30 23 -129 -2 -100 -3
-106 -28 -124 -24 -17 -31 -18 -74 -7 -27 7 -53 17 -58 22 -6 6 -13 51 -16
101 -7 102 5 148 40 155 58 11 88 7 113 -18z M4482 442 c-35 -10 -31 -27 6
-30 l32 -3 0 -107 c0 -64 -4 -102 -9 -97 -5 6 -32 48 -59 95 -27 47 -61 98
-76 113 -23 25 -31 28 -83 25 -58 -3 -85 -24 -45 -35 20 -5 21 -12 19 -138 -2
-118 -4 -135 -19 -139 -10 -2 -18 -11 -18 -19 0 -12 16 -16 71 -19 39 -2 73 1
76 5 3 5 -4 17 -16 28 -19 18 -21 30 -19 110 1 49 3 89 4 89 1 0 17 -23 34
-52 45 -72 140 -178 161 -178 14 0 17 10 17 52 0 29 1 101 1 161 l1 107 25 0
c24 0 34 14 18 23 -16 9 -99 15 -121 9z M4690 437 c-14 -6 -26 -12 -28 -13 -1
0 -5 -79 -9 -174 l-6 -173 29 8 c16 4 62 9 103 11 40 1 77 6 81 11 4 4 11 29
14 56 6 37 4 47 -7 47 -19 0 -34 -19 -39 -50 -3 -23 -7 -25 -53 -25 l-50 0 -3
53 c-2 41 0 54 13 58 10 4 22 -1 31 -15 23 -32 34 -16 34 51 0 51 -2 59 -16
54 -9 -3 -18 -6 -20 -6 -2 0 -4 -9 -4 -19 0 -10 -7 -21 -15 -25 -12 -4 -15 6
-15 59 l0 65 44 0 c41 0 45 -2 48 -27 2 -17 9 -28 18 -28 11 0 15 12 15 45 l0
44 -70 2 c-38 2 -81 -2 -95 -9z M1115 422 c11 -25 12 -324 1 -346 -8 -17 -6
-18 28 -12 20 4 64 9 98 12 34 2 66 8 70 12 12 12 -2 92 -16 92 -19 0 -36 -22
-36 -47 0 -20 -5 -23 -39 -23 l-38 0 -1 75 c0 59 2 75 14 75 8 0 19 -11 24
-25 10 -26 29 -34 31 -12 4 29 -3 93 -11 101 -4 4 -13 -1 -19 -13 -22 -41 -41
-26 -41 33 0 30 5 56 11 58 5 2 28 2 50 0 33 -4 39 -8 39 -27 0 -26 17 -42 30
-29 5 5 10 27 12 48 l3 40 -109 2 c-99 3 -107 2 -101 -14z M1365 259 l0 -181
105 7 c58 4 108 9 112 11 10 6 38 65 38 81 0 28 -46 10 -65 -26 -12 -25 -20
-28 -70 -29 l-56 -1 5 140 c4 138 7 154 29 154 5 0 12 6 15 13 3 9 -12 12 -55
12 l-58 0 0 -181z M3185 430 c-9 -14 4 -32 17 -24 8 5 9 -40 4 -159 -4 -100
-3 -168 3 -171 17 -11 101 6 101 20 0 8 -7 14 -15 14 -8 0 -16 8 -16 18 -2 27
3 106 7 114 10 15 40 -6 57 -40 37 -78 197 -170 197 -114 0 15 -9 22 -30 27
-20 4 -46 27 -80 67 -48 57 -55 78 -26 78 22 0 47 37 53 78 4 32 1 43 -18 62
-13 12 -34 26 -47 31 -32 12 -199 11 -207 -1z m163 -26 c20 -6 22 -13 22 -65
0 -32 -3 -60 -7 -62 -5 -2 -25 -2 -46 1 l-39 4 3 57 c2 31 5 59 7 64 4 8 29 9
60 1z M3511 427 c-17 -17 -13 -67 4 -74 9 -3 21 2 28 10 7 9 26 17 42 19 l30
3 -2 -134 c-1 -105 -5 -137 -17 -150 -22 -24 -11 -31 51 -31 40 0 55 4 60 16
3 9 1 19 -5 23 -17 10 -25 221 -10 251 16 30 50 37 68 15 27 -33 55 -12 45 34
l-6 28 -139 0 c-87 0 -142 -3 -149 -10z M4040 420 c0 -14 7 -20 22 -20 21 0
21 -2 14 -101 -5 -78 -11 -108 -26 -130 -18 -25 -24 -27 -50 -18 -16 6 -35 18
-42 26 -17 21 -22 201 -6 220 19 23 -5 34 -62 31 -56 -3 -80 -25 -40 -35 22
-6 22 -9 16 -90 -4 -54 -2 -99 5 -123 25 -84 113 -123 183 -82 30 18 36 19 47
6 6 -8 29 -14 50 -14 37 0 39 2 39 30 0 29 -13 40 -25 20 -11 -17 -25 -11 -35
15 -15 38 -1 235 17 235 17 0 17 29 1 34 -7 3 -34 7 -60 10 -43 5 -48 4 -48
-14z M2085 357 c-25 -21 -27 -28 -21 -61 5 -25 23 -55 51 -85 24 -25 48 -65
55 -88 11 -37 11 -45 -5 -69 -9 -14 -26 -29 -36 -31 -31 -8 -22 -23 14 -23 34
0 54 15 76 57 8 16 8 34 -3 75 -15 59 -12 72 15 65 27 -7 26 36 -1 63 -23 23
-40 19 -40 -10 0 -33 -16 -30 -54 9 -41 42 -45 76 -11 76 13 0 20 7 20 20 0
29 -28 30 -60 2z M1947 200 c-51 -41 -21 -107 54 -117 34 -5 45 -2 56 12 50
69 -43 158 -110 105z m78 -55 c0 -23 -30 -32 -50 -15 -27 22 -18 42 18 38 24
-2 32 -8 32 -23z M4944 139 c-19 -21 -19 -21 4 -39 32 -26 54 -15 50 24 -4 38
-27 45 -54 15z"/>
</g>
</svg>
