<?xml version="1.0" standalone="no"?>
<!DOCTYPE svg PUBLIC "-//W3C//DTD SVG 20010904//EN"
 "http://www.w3.org/TR/2001/REC-SVG-20010904/DTD/svg10.dtd">
<svg version="1.0" xmlns="http://www.w3.org/2000/svg"
 width="500.000000pt" height="878.000000pt" viewBox="0 0 500.000000 878.000000"
 preserveAspectRatio="xMidYMid meet">
<metadata>
Created by potrace 1.16, written by Peter Selinger 2001-2019
</metadata>
<g transform="translate(0.000000,878.000000) scale(0.100000,-0.100000)"
fill="#000000" stroke="none">
<path d="M2115 8769 c-4 -5 -1 -17 6 -26 10 -12 25 -14 62 -9 47 5 51 3 93
-36 l44 -42 -37 -38 c-28 -29 -45 -38 -70 -38 -18 0 -43 -6 -56 -12 -12 -7
-23 -13 -25 -14 -1 -1 0 -9 4 -18 5 -12 14 -15 38 -11 17 2 130 7 251 10 518
12 518 12 529 41 4 11 -7 14 -52 16 -31 1 -72 1 -89 0 l-33 -1 0 73 c0 84 2
86 97 82 48 -2 63 5 63 30 0 10 -819 3 -825 -7z m285 -33 c0 -7 -7 -19 -16
-26 -12 -11 -18 -11 -31 2 -8 9 -12 21 -9 27 10 16 56 14 56 -3z m168 -73 l3
-83 -30 0 c-16 0 -33 5 -36 10 -4 6 -12 9 -20 8 -7 -2 -25 10 -39 25 l-27 29
36 39 c19 21 35 44 35 50 0 6 16 9 38 7 l37 -3 3 -82z m132 72 c13 -16 17 -88
6 -122 -5 -16 -14 -21 -42 -20 l-34 1 3 66 c2 36 7 71 11 78 10 17 41 15 56
-3z m-300 -162 c0 -11 -4 -11 -22 -2 -13 7 -24 12 -25 11 -2 -1 -12 -2 -24 -2
-21 0 -21 0 2 24 l24 25 22 -21 c13 -12 23 -28 23 -35z M108 8678 c-12 -22
-13 -28 -16 -57 -2 -10 -13 -4 -35 17 -54 52 -57 47 -57 -94 0 -96 3 -125 13
-121 6 2 21 0 31 -6 18 -9 17 -11 -12 -23 -32 -13 -32 -13 -32 -90 0 -80 11
-103 52 -104 17 0 38 46 34 76 -2 10 6 26 16 36 15 15 16 21 6 40 -7 13 -20
29 -28 36 -11 10 -12 15 -2 18 6 3 12 12 12 20 0 11 7 13 28 8 39 -10 52 -23
52 -53 1 -62 35 -67 55 -7 12 35 12 39 -6 43 -21 6 -25 18 -9 28 6 3 10 1 10
-6 0 -7 10 -3 24 10 l24 22 -9 -43 c-9 -53 8 -80 34 -54 20 20 27 20 27 1 0
-8 5 -15 11 -15 6 0 8 -8 5 -18 -4 -13 3 -23 28 -36 40 -21 51 -17 59 23 6 27
10 29 68 36 62 7 111 -6 108 -29 -3 -29 2 -37 23 -34 14 2 24 13 29 30 4 15
20 44 35 65 16 21 29 39 30 41 1 2 19 -2 41 -8 l38 -12 -3 -59 c-4 -57 -3 -59
21 -59 17 0 28 7 32 21 12 36 13 73 4 91 -7 12 -3 21 13 32 29 21 38 12 32
-32 -12 -93 -11 -113 9 -127 27 -19 33 -13 35 35 2 52 21 91 22 44 0 -33 33
-73 45 -54 6 10 15 51 18 81 1 15 4 15 23 3 22 -15 123 -17 607 -10 l207 3 16
-33 c9 -18 26 -36 37 -40 12 -4 33 -15 46 -26 27 -20 39 -14 46 22 8 44 16 39
29 -21 9 -40 41 -43 68 -7 21 31 22 31 38 11 12 -15 27 -20 58 -19 40 1 46 6
43 32 -2 14 168 17 184 4 7 -6 22 -3 39 5 19 10 38 12 58 7 l30 -8 -26 -13
c-41 -23 -28 -51 23 -51 18 0 61 -35 61 -49 0 -4 -21 -9 -46 -9 -25 -1 -66 -7
-91 -13 -32 -7 -49 -7 -57 1 -14 14 -79 13 -94 -2 -17 -17 -15 -48 5 -70 13
-15 14 -21 4 -31 -10 -9 -15 -8 -27 7 -14 19 -14 19 -37 -3 -22 -19 -25 -20
-37 -6 -7 9 -19 14 -27 11 -7 -3 -13 -1 -13 4 0 5 17 10 38 12 28 2 36 7 34
19 -1 9 4 19 13 23 25 9 17 33 -14 44 -23 8 -34 6 -57 -9 -39 -25 -51 -24 -58
6 -8 32 -21 32 -52 -2 -21 -23 -36 -28 -82 -31 -31 -2 -85 0 -120 3 -55 6 -63
9 -68 31 -8 31 -41 32 -54 2 -5 -13 -10 -17 -11 -10 -1 6 -2 16 -3 21 -2 18
-24 33 -42 29 -19 -3 -26 -34 -12 -54 6 -8 -6 -11 -39 -9 -35 1 -50 6 -61 23
-18 27 -26 27 -51 1 l-19 -20 -25 27 c-15 16 -35 27 -51 27 -14 0 -26 3 -26 8
0 10 -36 7 -47 -5 -4 -4 -6 -25 -4 -46 2 -30 -1 -40 -12 -40 -17 0 -27 30 -27
83 0 33 -3 37 -25 37 -14 0 -26 -6 -26 -12 -1 -7 -2 -20 -3 -28 -2 -26 -31
-17 -32 10 -1 43 -3 47 -26 45 -20 -2 -23 -8 -24 -46 0 -31 -5 -44 -15 -44
-10 0 -13 11 -11 43 3 31 -1 44 -12 48 -29 11 -49 -16 -43 -58 5 -40 -2 -52
-26 -42 -12 4 -14 16 -11 45 4 33 2 39 -14 39 -32 0 -46 -25 -34 -59 10 -29
10 -30 -21 -26 -62 9 -235 6 -253 -3 -11 -5 -45 -18 -78 -28 -57 -18 -59 -18
-72 1 -10 13 -11 22 -3 32 17 19 3 43 -25 43 -29 0 -36 -15 -29 -69 6 -45 -4
-52 -31 -22 -12 14 -16 29 -11 52 7 45 -4 59 -51 65 -37 4 -40 2 -52 -28 -11
-30 -13 -31 -25 -14 -8 10 -20 17 -28 14 -8 -3 -19 2 -24 9 -13 17 -48 6 -41
-12 2 -7 0 -17 -6 -23 -8 -8 -18 -4 -35 16 -12 15 -23 25 -24 22 -7 -50 -14
-57 -33 -41 -16 13 -90 -1 -101 -19 -8 -13 -42 -13 -47 0 -2 5 -13 7 -25 4
-20 -6 -23 -13 -23 -57 l0 -50 27 24 c27 24 28 24 8 1 -19 -22 -19 -25 -2 -37
20 -15 23 -27 3 -19 -7 3 -16 -2 -19 -10 -4 -11 -1 -13 10 -9 11 4 14 2 9 -5
-4 -7 -14 -12 -22 -12 -17 0 -20 -70 -3 -87 8 -8 8 -13 0 -17 -7 -5 -11 -57
-11 -145 l0 -138 38 6 c30 6 36 10 33 26 -3 11 -5 36 -5 55 -1 32 1 35 28 33
42 -3 91 -53 52 -53 -7 0 -19 -7 -26 -15 -15 -18 1 -20 18 -3 9 9 12 9 12 0 0
-6 -25 -23 -56 -38 -54 -26 -55 -26 -40 -50 20 -30 20 -35 -1 -27 -15 6 -16 4
-5 -9 9 -11 10 -18 2 -23 -5 -3 -10 -5 -11 -3 0 2 -2 12 -4 22 -2 10 -10 23
-17 27 -10 6 -14 -3 -16 -43 -3 -49 2 -60 32 -71 5 -2 0 -21 -13 -43 -20 -37
-21 -49 -19 -209 3 -159 4 -170 22 -170 34 0 41 -29 16 -63 -17 -23 -26 -28
-32 -20 -4 8 -8 -6 -8 -33 0 -25 5 -50 12 -57 9 -9 9 -12 0 -12 -10 0 -12 -27
-10 -107 3 -102 4 -108 23 -106 27 3 53 -35 30 -43 -9 -4 -25 2 -35 11 -20 18
-20 17 -20 -27 0 -39 5 -49 32 -72 36 -29 98 -36 117 -12 21 25 15 73 -13 116
-14 22 -30 40 -35 40 -7 0 -31 51 -31 66 0 1 18 0 39 -3 34 -5 41 -2 56 21 26
39 14 92 -27 127 -18 16 -38 28 -44 29 -23 0 -22 29 2 61 13 18 24 43 24 55 0
13 5 26 10 29 7 4 8 -7 4 -33 -4 -24 -2 -42 5 -46 6 -4 19 -27 30 -51 16 -36
26 -45 58 -54 21 -6 50 -11 65 -11 35 0 41 32 14 83 -19 35 -19 39 -3 72 23
49 21 73 -6 86 -13 6 -31 24 -41 40 -19 32 -52 45 -91 35 -18 -5 -25 -2 -25 8
0 7 -7 19 -15 26 -9 7 -13 20 -10 29 5 13 4 14 -6 4 -7 -7 -20 -13 -28 -12
-14 0 -14 1 -1 6 8 3 23 12 33 21 11 10 17 11 17 4 0 -20 28 -13 44 10 14 19
14 23 -2 34 -16 12 -15 13 3 10 16 -2 21 -13 25 -53 6 -55 19 -77 61 -99 42
-21 65 -17 93 17 35 41 33 62 -11 98 -29 24 -37 38 -38 63 0 34 -6 37 -51 23
-19 -6 -21 -3 -17 19 5 22 11 26 39 26 25 0 38 7 50 25 13 20 20 23 36 14 10
-6 23 -21 28 -35 5 -13 16 -24 23 -24 8 0 26 -11 41 -25 34 -31 46 -32 46 -1
0 14 9 31 19 38 11 8 27 31 37 51 18 37 18 39 -3 80 -43 87 -44 102 -11 133
16 16 31 38 34 50 5 21 7 22 40 8 29 -12 43 -12 86 -2 58 15 80 38 60 66 -7 9
-20 29 -29 44 -28 42 -64 58 -143 61 -65 2 -74 0 -87 -20 -21 -32 -53 -30 -53
1 0 21 5 25 38 28 31 2 37 7 35 24 -2 15 8 25 33 37 37 18 69 22 60 8 -3 -4 3
-16 14 -26 16 -15 23 -16 33 -6 17 17 -4 45 -37 49 -17 2 -26 9 -26 20 0 21
79 42 154 42 41 0 52 4 74 30 15 17 36 30 47 30 12 0 26 5 33 12 9 9 12 9 12
1 0 -7 12 -11 28 -11 15 1 38 -2 50 -6 l24 -8 -21 -19 c-43 -40 -17 -106 37
-92 17 4 21 1 20 -18 -4 -72 2 -91 47 -135 48 -48 70 -55 80 -24 3 11 26 36
50 57 50 43 62 88 44 155 -5 22 -8 42 -5 45 19 19 432 -6 446 -27 3 -4 50 -33
105 -63 119 -67 195 -146 195 -203 0 -38 44 -144 59 -144 6 0 11 -4 11 -9 0
-6 -15 -7 -34 -4 -20 3 -36 1 -40 -6 -5 -8 -21 -3 -50 14 -49 28 -101 32 -134
9 l-22 -15 35 -33 c19 -18 35 -40 35 -48 0 -8 10 -23 21 -34 27 -24 69 -89 69
-107 0 -8 -9 -22 -20 -32 -24 -21 -26 -58 -5 -75 8 -7 15 -23 15 -35 0 -16 7
-24 24 -27 14 -3 29 -1 34 4 18 18 25 -15 22 -91 -5 -93 -2 -315 5 -357 6 -38
-11 -47 -93 -48 -53 -1 -54 -2 -77 -45 -26 -47 -24 -67 3 -52 22 13 61 -7 68
-36 4 -12 10 -20 15 -17 14 8 49 -6 49 -20 0 -8 -7 -19 -16 -27 -14 -12 -14
-14 0 -25 9 -6 25 -38 36 -70 23 -68 25 -173 9 -379 -5 -71 -9 -167 -10 -213
0 -80 0 -82 -22 -77 -43 10 -304 25 -428 25 -136 0 -265 -25 -304 -59 -11 -9
-33 -25 -48 -35 -45 -28 -71 -97 -63 -170 5 -52 14 -73 60 -141 29 -44 75
-123 101 -175 25 -52 52 -104 59 -115 6 -11 22 -38 34 -60 12 -22 31 -53 42
-70 11 -16 30 -50 41 -75 12 -25 25 -47 29 -50 18 -14 32 -71 20 -85 -11 -13
0 -67 24 -116 9 -20 41 -57 70 -82 43 -37 53 -51 49 -70 -6 -32 15 -71 69
-129 65 -70 83 -99 80 -133 -2 -16 -3 -57 -3 -90 0 -33 -6 -78 -13 -100 -8
-24 -11 -65 -9 -101 5 -59 5 -60 -30 -87 -20 -15 -39 -27 -43 -27 -4 0 -21
-10 -38 -23 -17 -13 -55 -37 -83 -53 -29 -16 -53 -35 -53 -41 0 -7 -12 -20
-27 -30 -16 -9 -37 -24 -48 -33 -11 -9 -38 -22 -60 -29 -22 -7 -71 -27 -110
-46 -38 -18 -100 -47 -136 -64 -36 -17 -75 -31 -86 -31 -11 0 -28 -10 -39 -21
-25 -28 -192 -139 -209 -139 -21 0 -76 -76 -82 -114 -8 -52 67 -231 109 -258
13 -8 67 -29 121 -47 55 -18 113 -41 130 -52 18 -10 38 -19 44 -19 7 0 41 -13
75 -28 65 -30 90 -38 152 -48 21 -3 56 -12 78 -20 24 -8 75 -13 128 -13 48 1
93 -2 99 -6 7 -3 51 -11 99 -16 171 -18 187 -21 212 -44 24 -22 63 -45 74 -45
3 0 6 14 6 30 0 30 1 31 38 24 47 -9 52 -11 52 -33 0 -10 9 -26 21 -37 17 -15
20 -26 15 -57 -4 -22 -2 -45 4 -51 7 -9 4 -24 -10 -51 -11 -22 -20 -48 -20
-59 0 -11 -11 -31 -24 -45 -13 -15 -33 -57 -46 -96 -18 -58 -21 -83 -15 -142
4 -47 12 -76 22 -85 17 -14 17 -14 -3 61 -5 17 -4 22 4 17 7 -4 12 -1 12 9 0
9 -5 13 -10 10 -13 -8 -13 49 0 97 7 25 21 43 46 57 47 28 53 26 22 -7 -42
-46 -57 -109 -41 -174 7 -30 26 -20 19 10 -6 26 -6 26 9 8 16 -22 20 -52 7
-60 -13 -8 1 -89 16 -94 8 -2 12 9 12 35 0 43 13 69 29 59 15 -10 14 -43 -2
-49 -9 -3 -6 -12 9 -33 11 -16 24 -38 28 -49 l8 -20 8 20 c4 11 13 20 21 20
21 1 13 43 -15 80 -17 22 -22 36 -15 46 7 12 9 11 9 -2 0 -9 9 -24 20 -34 11
-10 20 -24 20 -30 0 -7 9 -23 20 -36 l20 -24 -3 30 c-2 17 -6 36 -10 42 -6 9
32 28 40 20 1 -2 -1 -28 -4 -59 -5 -48 -8 -55 -24 -51 -14 4 -23 -3 -34 -31
-20 -47 -20 -73 -1 -57 22 18 29 -3 15 -49 -11 -34 -10 -46 4 -75 9 -19 15
-35 12 -35 -17 0 -46 40 -51 70 -10 56 -31 114 -43 118 -6 2 -16 -9 -22 -25
-8 -21 -7 -35 4 -58 14 -31 16 -73 4 -92 -4 -7 -2 -15 5 -19 20 -13 -31 -25
-54 -13 -17 9 -25 6 -48 -16 l-27 -26 -7 23 c-3 13 -6 33 -6 46 0 26 -7 28
-30 7 -15 -13 -18 -11 -30 20 -8 19 -18 35 -24 35 -17 0 -87 -84 -93 -112 -3
-16 -9 -28 -14 -28 -5 0 -9 -5 -9 -11 0 -6 -9 -24 -21 -40 -11 -16 -18 -29
-14 -29 23 0 69 37 96 78 41 59 38 56 45 49 4 -3 -5 -20 -20 -37 -14 -17 -26
-39 -26 -48 0 -10 -16 -30 -35 -46 -38 -32 -44 -46 -18 -46 22 0 93 32 93 42
0 4 4 8 9 8 13 0 7 -60 -8 -89 -10 -19 -10 -26 2 -39 13 -15 21 -89 19 -167
-1 -11 -3 -92 -6 -181 -3 -108 -9 -172 -19 -195 -8 -19 -15 -70 -16 -114 -1
-44 -4 -82 -7 -85 -11 -10 -1537 -5 -1604 5 -36 6 -117 10 -180 9 -246 -4
-230 -2 -230 -24 0 -19 7 -20 138 -21 75 0 166 -3 202 -5 36 -3 484 -7 995 -9
512 -3 1067 -7 1235 -9 374 -6 1524 -18 2020 -21 201 -1 374 -4 385 -6 16 -3
21 2 23 28 l3 31 -58 4 c-32 2 -179 2 -328 -1 -332 -5 -810 -3 -1440 4 -264 3
-490 6 -502 6 -21 -1 -21 2 -17 102 11 214 2 483 -15 500 -26 26 -36 -16 -40
-162 l-1 -43 -18 23 c-13 16 -24 20 -38 15 -14 -5 -15 -9 -5 -15 8 -6 9 -10 2
-12 -6 -3 -11 -45 -12 -112 -1 -59 -5 -107 -10 -107 -5 0 -9 7 -9 16 0 8 -5
24 -10 34 -14 27 -40 14 -40 -19 0 -34 -36 -70 -87 -87 -44 -15 -49 -13 -33
16 18 33 15 111 -4 149 -37 71 -81 96 -118 68 -21 -16 -24 -32 -14 -84 5 -26
3 -49 -4 -63 -13 -25 7 -64 37 -74 14 -4 18 -18 20 -58 2 -51 1 -52 -12 -27
-8 15 -20 29 -28 32 -20 8 -48 -18 -51 -47 -3 -31 -26 -60 -26 -34 0 9 -7 24
-16 33 -23 23 -27 97 -9 167 17 69 19 98 5 98 -5 0 -10 6 -10 14 0 9 11 13 32
12 25 -1 33 4 36 18 2 11 -4 26 -14 33 -15 11 -16 13 -2 13 9 0 18 5 20 12 2
6 15 13 28 15 14 2 29 8 34 13 14 14 -1 40 -24 40 -11 0 -20 5 -20 10 0 6 16
8 42 4 24 -4 47 -7 53 -8 5 0 11 9 13 21 3 22 -16 30 -85 35 -25 2 -33 7 -33
21 0 11 -12 23 -31 31 -34 14 -30 21 15 24 56 4 60 57 5 57 -43 0 -51 28 -16
55 14 11 38 47 53 80 15 33 33 60 41 60 17 0 17 0 -7 -51 -30 -66 -23 -115 13
-92 6 4 19 6 28 5 8 -1 21 9 29 23 17 31 32 33 28 2 -3 -27 34 -67 63 -67 18
0 20 4 15 26 -8 32 3 116 15 108 5 -2 8 -28 8 -57 -1 -66 10 -123 25 -136 21
-18 47 11 57 64 11 57 14 62 33 46 24 -20 39 -3 33 35 -3 19 1 58 9 87 9 28
15 72 14 97 0 24 2 41 6 38 11 -12 13 -90 2 -117 -14 -35 -18 -77 -11 -128 4
-35 11 -45 36 -58 16 -8 36 -15 44 -15 10 0 12 -12 8 -52 -7 -74 -7 -277 0
-288 11 -17 25 -11 35 15 5 14 12 121 15 238 3 116 6 221 6 232 1 16 4 13 15
-10 7 -16 13 -38 14 -47 0 -11 8 -18 20 -18 16 0 20 7 20 35 0 28 4 35 20 35
16 0 20 7 20 36 0 21 4 33 10 29 13 -8 14 -11 -15 69 -31 90 -65 128 -79 90
-7 -17 14 -62 50 -111 29 -39 30 -43 4 -36 -16 4 -20 0 -20 -18 -1 -23 -1 -23
-16 5 -16 28 -33 110 -37 171 -2 26 2 30 28 35 29 5 30 7 27 57 -2 28 4 88 13
134 13 63 14 87 6 107 -10 20 -8 29 6 51 27 42 42 124 31 173 -11 52 -31 75
-70 83 -19 5 -33 16 -40 33 -5 15 -14 35 -19 44 -5 10 -9 29 -9 42 0 14 -10
32 -25 43 -17 12 -25 28 -25 48 -1 17 -1 51 -1 77 l0 46 62 1 c34 0 67 5 72
10 6 6 24 11 39 11 15 0 28 5 28 10 0 6 7 10 15 10 18 0 19 -12 4 -27 -7 -7
-9 -19 -6 -27 5 -13 12 -13 39 -5 18 6 40 19 49 29 9 10 55 31 103 46 58 18
92 34 102 48 17 27 67 48 164 71 132 31 335 113 427 172 28 18 56 33 63 33 6
0 28 17 48 38 21 20 50 47 65 59 32 27 33 47 8 127 -11 34 -23 74 -26 90 -7
35 -75 106 -101 106 -11 1 -41 14 -69 30 -41 23 -50 33 -47 53 3 30 -59 87
-95 87 -13 0 -42 4 -65 9 -24 6 -68 15 -98 22 -30 6 -82 11 -116 11 -40 -1
-66 3 -73 12 -23 28 -191 98 -241 101 -34 2 -58 10 -78 26 -16 13 -37 29 -47
34 -12 7 -23 39 -35 105 l-18 95 26 22 c24 19 27 27 25 81 -1 57 0 62 35 95
136 131 142 137 142 165 0 15 -9 41 -20 57 -11 17 -20 37 -20 46 0 8 -8 33
-19 55 -35 73 -51 135 -51 198 0 74 -22 156 -49 180 -24 22 -31 81 -42 341 -1
28 2 85 6 129 l8 78 65 -4 c58 -4 68 -7 91 -36 44 -51 67 -55 157 -22 22 9 94
109 94 132 0 7 16 27 37 43 138 114 222 202 249 264 31 69 32 84 10 149 -20
58 -28 60 -91 21 -16 -10 -71 -38 -122 -63 -67 -32 -109 -61 -156 -107 -76
-74 -142 -104 -253 -114 l-71 -6 -2 93 c-1 51 -8 138 -15 193 -7 58 -9 113 -5
130 5 17 11 93 14 170 4 77 8 163 10 190 7 84 -16 324 -47 508 -10 59 -9 69 5
80 13 9 17 32 19 105 1 61 7 97 15 104 17 14 16 44 -3 72 -14 23 -14 25 5 31
14 4 21 15 21 33 0 15 9 41 20 57 11 17 20 42 20 56 0 14 8 33 18 43 11 9 25
35 31 59 7 23 19 49 26 57 7 8 22 60 34 115 13 55 24 106 27 113 2 7 -2 33 -8
58 -11 40 -18 48 -51 61 -26 11 -35 19 -28 26 7 7 14 7 23 0 12 -10 173 -23
320 -26 36 -1 70 -5 74 -9 4 -4 -10 -24 -30 -45 -32 -33 -37 -43 -32 -71 3
-19 10 -40 17 -48 16 -19 76 -18 87 2 7 13 11 12 24 -8 14 -22 38 -33 116 -54
20 -5 22 -10 17 -35 -8 -35 16 -79 43 -79 19 0 52 32 53 53 0 6 5 1 10 -13 12
-30 97 -88 99 -67 1 1 7 38 15 82 8 44 15 86 15 93 0 7 -19 33 -42 59 -31 33
-37 44 -23 40 11 -3 36 -9 56 -12 32 -6 39 -3 56 22 20 27 21 42 8 74 -13 33
92 42 159 14 20 -9 59 -12 114 -9 80 4 82 4 72 -15 -18 -34 -12 -71 13 -80 12
-5 26 -6 31 -4 4 3 5 -5 1 -17 -10 -33 -9 -85 4 -108 6 -11 11 -29 11 -39 0
-10 12 -35 26 -56 l26 -38 19 22 c10 12 19 27 19 33 0 6 9 22 19 36 l19 24 21
-24 c12 -14 31 -40 43 -59 19 -30 20 -34 5 -43 -26 -14 -68 -107 -68 -152 -1
-23 4 -54 10 -70 6 -16 9 -31 6 -34 -2 -3 3 -11 13 -18 12 -9 21 -9 29 -2 10
8 13 3 13 -21 0 -18 5 -41 10 -51 6 -10 12 -38 15 -62 11 -90 77 -176 89 -116
30 158 38 178 70 178 16 0 16 -4 -8 -35 -28 -37 -28 -63 0 -96 12 -14 12 -21
0 -51 -8 -19 -13 -43 -11 -54 2 -10 6 -31 10 -47 3 -15 14 -36 25 -47 20 -20
20 -20 -1 -64 -26 -51 -23 -57 58 -130 33 -30 57 -44 67 -40 9 3 16 10 16 14
0 5 9 6 20 3 18 -5 27 -32 15 -45 -3 -3 -27 -1 -53 4 -46 8 -48 8 -79 -27 -32
-33 -43 -77 -24 -89 5 -3 21 -44 36 -91 21 -66 31 -85 45 -85 10 0 22 5 25 10
4 6 12 9 19 8 17 -4 76 65 76 88 -1 11 -7 30 -15 44 -21 37 -19 63 4 55 15 -4
20 3 31 42 7 27 17 52 21 57 5 6 8 75 8 155 l-2 146 -9 -90 c-5 -49 -11 -119
-14 -154 -7 -78 -15 -67 -39 54 -22 118 -25 153 -14 182 18 49 59 67 59 27 0
-8 5 -14 10 -14 7 0 10 143 10 410 l0 411 -25 -18 c-13 -10 -25 -27 -25 -38
-1 -36 -12 -65 -26 -65 -10 0 -11 6 -5 22 5 15 3 30 -6 45 -22 33 -13 67 17
71 14 2 32 10 41 18 9 8 19 11 22 7 4 -3 7 46 7 111 0 114 0 116 -20 106 -11
-6 -26 -7 -33 -3 -6 4 -31 13 -55 19 -36 9 -44 9 -51 -4 -7 -13 -11 -13 -32 2
-13 9 -34 16 -47 16 -33 0 -92 -29 -92 -46 0 -8 -4 -14 -10 -14 -5 0 -10 -9
-10 -20 0 -28 -29 -25 -39 4 -5 13 -16 26 -25 29 -25 10 -76 -13 -76 -33 0
-16 -4 -17 -32 -9 -18 5 -109 9 -201 8 -108 0 -173 3 -181 10 -19 16 -80 19
-161 9 -39 -4 -86 -9 -105 -10 -43 -2 -63 -18 -43 -36 7 -7 13 -17 13 -22 0
-5 -10 1 -23 13 -13 12 -20 26 -15 31 27 32 -39 54 -84 29 -30 -16 -44 -16
-62 2 -22 22 -65 9 -72 -21 -6 -25 -17 -26 -88 -3 -16 5 -61 9 -100 9 -39 0
-100 7 -136 16 -35 8 -94 15 -130 16 l-65 1 55 14 c37 10 116 15 238 16 150 2
184 5 192 17 5 8 6 18 2 22 -10 10 -213 27 -267 22 -168 -14 -292 -23 -305
-22 -8 1 -25 -2 -37 -6 -20 -6 -25 -2 -39 33 -9 23 -20 41 -25 41 -5 0 -9 7
-9 15 0 9 9 15 24 15 52 0 40 28 -16 39 -57 12 -31 22 60 24 50 1 92 -1 92 -4
0 -3 -18 -13 -40 -22 -22 -8 -40 -20 -40 -26 0 -15 95 -14 122 0 18 10 25 6
53 -27 30 -36 34 -37 66 -28 27 8 35 16 37 37 2 19 9 27 23 27 20 0 61 -35 72
-61 4 -11 10 -9 26 10 12 13 21 30 21 38 0 10 12 13 48 12 58 -2 93 -22 89
-50 -1 -12 6 -26 16 -33 15 -9 22 -7 37 12 l19 22 6 -22 c12 -38 26 -50 41
-37 8 6 14 20 14 30 0 31 19 31 35 -1 17 -32 39 -39 49 -15 5 15 -11 73 -25
89 -5 6 -9 17 -9 25 0 9 9 1 20 -17 20 -33 68 -81 82 -82 6 0 16 10 47 46 13
16 16 15 32 -5 21 -26 49 -18 49 14 0 30 48 40 97 20 19 -8 39 -12 44 -9 5 3
9 -5 9 -18 0 -14 7 -33 15 -44 15 -18 15 -18 29 -1 8 11 12 25 9 33 -3 8 0 14
6 14 6 0 11 -6 11 -14 0 -21 28 -27 39 -8 9 15 10 15 11 1 0 -9 6 -21 13 -28
20 -16 37 6 37 45 0 38 14 51 35 34 22 -18 128 -8 150 14 10 10 25 14 34 11
38 -15 107 -23 117 -14 15 12 244 13 256 1 4 -4 10 -23 12 -40 2 -18 6 -36 9
-39 13 -12 37 21 37 51 1 29 1 30 15 12 8 -11 15 -33 15 -49 0 -22 4 -28 17
-25 13 2 18 13 18 40 0 50 12 58 20 14 4 -20 11 -39 16 -41 15 -10 41 44 37
75 -3 17 -1 33 4 36 14 9 9 54 -7 60 -8 4 -12 11 -8 18 3 6 1 6 -8 -1 -7 -7
-20 -13 -28 -13 -22 0 19 29 42 30 13 0 17 9 17 40 0 44 -4 48 -27 25 -8 -9
-23 -13 -33 -10 -13 4 -20 0 -25 -14 -4 -14 -14 -20 -29 -19 -20 2 -22 5 -12
21 12 21 73 50 87 41 5 -3 9 0 9 6 0 7 7 10 15 6 10 -4 15 1 15 14 0 24 -58
37 -88 21 -14 -7 -23 -8 -27 -1 -9 15 -77 11 -99 -5 -28 -21 -36 -19 -36 10 0
35 -20 40 -62 16 -34 -21 -84 -94 -74 -110 6 -10 -31 -45 -59 -55 -11 -5 -115
-9 -231 -11 -129 -2 -219 -7 -232 -14 -28 -15 -29 -15 -36 14 -4 17 -16 27
-39 33 -31 8 -32 10 -32 65 0 79 -10 85 -83 47 -47 -25 -64 -40 -77 -71 -22
-48 -33 -49 -37 -6 -3 29 -6 32 -32 30 -16 -1 -32 -6 -35 -10 -3 -4 -13 -9
-21 -11 -8 -2 -17 -8 -18 -13 -2 -5 -14 -22 -26 -37 -13 -15 -25 -35 -29 -44
-4 -12 -16 -17 -39 -16 -18 0 -43 -2 -56 -6 -13 -5 -29 -3 -37 4 -9 7 -15 8
-20 0 -8 -13 -86 -13 -122 1 -16 7 -108 13 -213 15 -102 1 -203 6 -225 9 -22
4 -58 6 -80 4 -77 -5 -96 -2 -118 19 -13 12 -35 21 -52 21 -17 0 -56 0 -88 1
-34 1 -71 -5 -89 -14 -17 -9 -34 -13 -39 -10 -17 10 -96 6 -120 -7 -27 -14
-286 -23 -303 -10 -6 4 -123 9 -261 11 -137 1 -270 4 -295 6 -25 2 -119 6
-210 8 -196 6 -270 13 -290 30 -31 25 -85 43 -105 35 -11 -4 -42 -8 -68 -8
-38 -1 -53 4 -72 24 -14 13 -25 28 -25 33 0 14 -110 56 -119 46 -58 -68 -78
-101 -70 -119 9 -23 12 -61 3 -53 -3 4 -18 3 -34 -2 -33 -9 -50 3 -50 36 0 13
-14 34 -32 49 -26 22 -38 26 -69 21 -42 -7 -56 7 -97 96 -12 26 -30 52 -41 58
-33 17 -69 12 -83 -12z m93 -99 c32 -40 32 -41 16 -75 -19 -40 -25 -41 -61
-13 -27 21 -28 47 -2 94 5 11 9 23 8 28 -4 16 8 5 39 -34z m4529 -9 c8 -15 7
-25 -3 -41 -13 -18 -16 -19 -30 -4 -16 16 -13 44 7 57 15 10 14 11 26 -12z
m-4677 -16 c4 -1 10 -2 14 -3 4 0 2 -6 -4 -12 -9 -9 -16 -8 -27 4 -19 19 -21
31 -3 20 6 -4 15 -8 20 -9z m4763 -26 c1 -10 -2 -18 -6 -18 -5 0 -15 -3 -23
-6 -11 -4 -13 1 -9 21 5 29 33 31 38 3z m-4186 -3 c7 -8 8 -15 4 -15 -5 0 -14
-10 -19 -22 -6 -12 -16 -24 -23 -26 -12 -4 -12 0 -1 19 11 22 11 23 -6 9 -16
-13 -17 -12 -13 5 3 14 11 19 27 17 20 -2 22 0 11 13 -7 8 -8 15 -2 15 5 0 15
-7 22 -15z m3300 -13 c0 -4 -11 -23 -25 -42 -22 -30 -25 -31 -25 -12 0 13 6
22 15 22 8 0 15 5 15 11 0 5 -6 7 -12 4 -7 -4 -4 1 6 9 23 18 26 19 26 8z
m-3285 -33 c-3 -8 -15 -20 -26 -27 -17 -11 -20 -11 -14 0 23 39 52 59 40 27z
m-285 -9 c8 -5 12 -11 10 -14 -3 -2 -14 2 -24 10 -22 15 -10 19 14 4z m3380
-32 c0 -23 -3 -29 -11 -21 -6 6 -8 20 -4 32 9 30 15 26 15 -11z m965 24 c-29
-10 -65 -35 -65 -46 0 -5 8 -2 18 7 14 13 21 14 30 5 20 -20 14 -24 -40 -24
-29 0 -45 1 -35 3 9 3 17 11 17 18 0 20 40 45 70 44 22 -1 22 -2 5 -7z m50
-13 c6 -19 8 -19 25 -4 20 19 45 11 36 -11 -3 -7 1 -17 10 -22 10 -5 3 -8 -21
-9 -19 -1 -38 3 -41 8 -3 6 -15 7 -27 3 -21 -6 -21 -6 -5 13 14 15 15 22 6 31
-9 9 -9 12 -1 12 7 0 15 -9 18 -21z m-4431 2 c3 -5 -2 -15 -11 -22 -12 -10
-14 -10 -9 -1 5 8 1 12 -11 13 -16 0 -16 1 2 9 11 5 21 9 22 9 1 1 4 -3 7 -8z
m3558 -43 c-7 -7 -12 -8 -12 -2 0 14 12 26 19 19 2 -3 -1 -11 -7 -17z m-1285
-10 c13 -12 23 -27 23 -34 0 -6 7 -18 17 -25 15 -13 16 -11 10 24 -7 43 -1 46
32 12 13 -14 32 -25 42 -25 11 0 22 -8 25 -17 3 -10 10 -26 15 -35 5 -10 9
-23 9 -30 0 -6 8 -20 17 -30 15 -17 19 -30 22 -85 1 -7 8 -13 18 -13 14 0 14
-2 -3 -21 l-19 -21 -7 36 c-10 48 -36 86 -54 79 -8 -3 -14 0 -14 6 0 36 -88
111 -131 111 -23 0 -89 49 -89 67 0 28 57 29 87 1z m1123 12 c0 -5 -4 -10 -10
-10 -5 0 -10 5 -10 10 0 6 5 10 10 10 6 0 10 -4 10 -10z m278 -2 c16 -16 15
-48 -1 -48 -24 0 -48 25 -41 43 7 20 25 22 42 5z m592 -8 c0 -5 -4 -10 -10
-10 -5 0 -10 5 -10 10 0 6 5 10 10 10 6 0 10 -4 10 -10z m-2136 -9 c7 -11 -48
-23 -69 -15 -8 3 -12 10 -9 15 7 12 71 12 78 0z m1883 -15 c-4 -12 -137 -19
-137 -6 0 9 99 27 123 22 10 -3 16 -10 14 -16z m-184 -31 c-8 -14 -11 -14 -21
-2 -7 8 -9 22 -6 32 6 15 8 15 21 2 11 -10 12 -20 6 -32z m-370 2 c6 -20 5
-32 -4 -43 -11 -14 -15 -13 -30 7 -10 13 -15 27 -13 31 3 4 0 8 -5 8 -6 0 -11
5 -11 11 0 6 9 9 20 6 12 -3 18 -1 14 5 -4 6 -1 9 6 6 8 -2 18 -16 23 -31z
m-455 5 c3 -9 -3 -13 -19 -10 -12 1 -24 9 -27 16 -3 9 3 13 19 10 12 -1 24 -9
27 -16z m-1121 -54 c-3 -8 -6 -5 -6 6 -1 11 2 17 5 13 3 -3 4 -12 1 -19z m476
-61 c23 -25 54 -92 61 -129 6 -33 4 -38 -12 -38 -16 0 -22 11 -31 61 -6 34
-17 72 -26 85 -22 34 -17 49 8 21z m-1235 -63 c2 -16 -1 -23 -8 -19 -5 3 -10
18 -10 32 0 32 13 22 18 -13z m-1108 7 c11 -22 -6 -75 -22 -65 -6 4 -6 57 1
82 2 7 12 0 21 -17z m2286 -42 c25 -23 22 -49 -6 -49 -9 0 -25 9 -35 20 -15
16 -15 22 -5 35 16 19 19 19 46 -6z m-2382 -19 c6 0 17 5 24 12 8 8 12 8 12 1
0 -16 -28 -36 -40 -28 -6 4 -20 -1 -31 -11 -23 -21 -24 -13 -2 29 13 25 18 28
21 15 2 -10 9 -18 16 -18z m2288 13 c24 -22 23 -39 -4 -46 -25 -7 -38 7 -38
41 0 26 16 28 42 5z m-2082 -3 c0 -5 -2 -10 -4 -10 -3 0 -8 5 -11 10 -3 6 -1
10 4 10 6 0 11 -4 11 -10z m520 -10 c0 -5 -4 -10 -10 -10 -5 0 -10 5 -10 10 0
6 5 10 10 10 6 0 10 -4 10 -10z m185 -3 c-19 -10 -104 -10 -145 1 -28 7 -14 9
62 8 53 -1 91 -4 83 -9z m1755 -6 c-39 -20 -49 -19 -30 4 7 8 24 15 39 15 25
-1 25 -2 -9 -19z m-932 -10 c7 -1 11 -5 7 -10 -3 -6 3 -14 12 -20 16 -9 16
-11 -6 -30 -13 -12 -28 -21 -33 -21 -8 0 -9 3 -12 33 0 6 -10 12 -21 12 -11 0
-21 -6 -21 -12 -1 -7 -2 -15 -3 -17 -4 -16 -111 48 -111 67 0 4 39 6 88 3 48
-3 93 -5 100 -5z m2767 -11 c-10 -11 -23 -20 -28 -20 -6 0 -2 9 8 20 10 11 23
20 28 20 6 0 2 -9 -8 -20z m-4305 -10 c-13 -8 -13 -10 1 -10 8 0 21 6 28 13
11 9 11 7 0 -10 -10 -16 -19 -21 -34 -16 -17 5 -18 4 -6 -11 15 -18 1 -22 -16
-5 -8 8 -5 18 10 35 11 13 23 21 26 18 3 -3 -1 -9 -9 -14z m1030 16 c0 -3 -4
-8 -10 -11 -5 -3 -10 -1 -10 4 0 6 5 11 10 11 6 0 10 -2 10 -4z m-682 -18 c-6
-18 -28 -21 -28 -4 0 9 7 16 16 16 9 0 14 -5 12 -12z m1690 -27 c2 -7 -6 -15
-17 -18 -20 -5 -21 -10 -15 -64 5 -41 3 -59 -5 -59 -6 0 -11 3 -11 8 0 4 -3
37 -6 74 -4 38 -3 75 0 84 6 14 9 15 28 2 12 -8 24 -20 26 -27z m-2131 8 c-19
-11 -55 0 -37 11 7 4 21 5 32 2 17 -4 18 -6 5 -13z m1083 5 c0 -2 -7 -4 -15
-4 -8 0 -15 4 -15 10 0 5 7 7 15 4 8 -4 15 -8 15 -10z m3480 -21 c-11 -17 -11
-17 -6 0 3 10 6 24 7 30 0 9 2 9 5 0 3 -7 0 -20 -6 -30z m-4682 6 c-10 -6 -9
-11 7 -23 11 -9 27 -16 35 -16 8 0 24 -7 34 -15 16 -12 18 -19 8 -39 -13 -28
-7 -36 25 -36 20 0 22 -2 11 -19 -9 -15 -9 -23 1 -34 8 -10 9 -17 1 -22 -15
-9 -12 -25 5 -25 9 0 19 10 24 22 5 14 10 17 15 10 4 -6 2 -20 -4 -31 -23 -44
-1 -64 81 -77 21 -4 42 -11 45 -16 9 -14 -5 -58 -17 -58 -6 0 -9 6 -6 14 3 8
-1 22 -8 33 -13 17 -14 17 -15 1 0 -10 6 -18 13 -18 8 0 7 -4 -3 -10 -11 -7
-19 -5 -32 10 -9 11 -21 20 -27 20 -6 0 -11 5 -11 10 0 18 -32 11 -37 -8 -6
-25 -41 -21 -63 8 -9 12 -21 20 -27 17 -5 -3 -9 10 -9 29 0 23 3 31 10 24 5
-5 19 -10 30 -10 18 0 18 1 2 19 -17 18 -17 19 1 24 14 4 14 5 -4 6 -16 1 -23
7 -23 20 0 13 -11 24 -35 32 -31 12 -48 29 -27 29 8 0 42 63 42 77 0 3 -9 3
-20 0 -11 -3 -18 -2 -15 3 3 4 -2 13 -9 20 -19 15 -17 50 2 43 11 -5 11 -7 0
-14z m1862 11 c9 -1 5 -5 -9 -11 -25 -10 -61 -4 -61 11 0 5 12 7 28 5 15 -2
34 -4 42 -5z m-1904 -16 c-9 -8 -21 -12 -28 -8 -8 5 -6 10 8 15 31 12 37 10
20 -7z m1954 6 c0 -5 -2 -10 -4 -10 -3 0 -8 5 -11 10 -3 6 -1 10 4 10 6 0 11
-4 11 -10z m387 -2 c5 -7 10 -24 11 -38 0 -14 4 -40 7 -59 6 -33 5 -34 -12
-21 -10 8 -20 15 -22 17 -2 1 -6 27 -8 58 -5 54 4 69 24 43z m443 2 c-20 -13
-33 -13 -25 0 3 6 14 10 23 10 15 0 15 -2 2 -10z m-140 -20 c0 -11 -4 -20 -10
-20 -5 0 -10 9 -10 20 0 11 5 20 10 20 6 0 10 -9 10 -20z m90 -5 c-7 -8 -17
-15 -22 -15 -6 0 -5 7 2 15 7 8 17 15 22 15 6 0 5 -7 -2 -15z m-546 -83 c4
-35 10 -70 12 -77 5 -11 -2 -13 -29 -8 -27 4 -43 0 -68 -17 -23 -17 -36 -21
-47 -13 -23 14 -37 73 -23 95 18 30 13 40 -16 34 -21 -5 -31 -2 -41 14 -17 28
2 34 82 27 75 -7 106 -1 106 22 1 37 18 -16 24 -77z m2081 78 c-4 -6 -11 -7
-17 -4 -5 4 -3 -4 6 -17 9 -15 12 -30 7 -38 -6 -9 -11 -10 -15 -2 -4 6 -12 11
-19 11 -6 0 -1 -7 12 -17 23 -15 25 -15 37 2 8 10 14 14 14 9 0 -6 -6 -19 -14
-29 -13 -18 -15 -18 -40 -2 -14 10 -26 22 -26 28 0 22 31 69 46 69 8 0 12 -5
9 -10z m50 -11 c4 -11 4 -23 1 -26 -3 -4 -6 2 -6 13 0 16 -2 16 -10 4 -7 -12
-9 -10 -7 8 2 28 14 29 22 1z m-3963 -13 c12 -18 9 -23 -16 -28 -25 -5 -36 7
-36 38 0 17 40 10 52 -10z m3055 -10 c-4 -12 35 -46 52 -46 6 0 12 -3 12 -7 9
-57 7 -63 -14 -63 -12 1 -38 9 -57 18 -26 13 -36 24 -38 46 -2 19 2 32 12 38
9 5 16 14 16 21 0 7 -4 6 -10 -3 -11 -17 -13 -9 -4 14 5 13 9 14 21 5 7 -7 12
-17 10 -23z m-954 -51 c-1 -38 -2 -125 -2 -192 -1 -68 -5 -123 -9 -123 -4 0
-8 8 -8 18 -3 120 -16 277 -24 292 -12 22 -13 63 -3 74 4 4 16 6 28 4 18 -3
20 -9 18 -73z m1227 59 c0 -2 -7 -4 -15 -4 -8 0 -15 4 -15 10 0 5 7 7 15 4 8
-4 15 -8 15 -10z m800 6 c13 -9 13 -10 0 -9 -8 0 -24 4 -35 9 l-20 9 20 0 c11
0 27 -4 35 -9z m-1615 -59 c4 -22 0 -65 -9 -104 -9 -37 -13 -73 -10 -80 3 -8
-6 -28 -20 -44 -14 -17 -40 -67 -57 -111 -32 -81 -59 -113 -59 -68 0 31 29
116 51 148 25 35 24 65 -3 79 -19 10 -25 8 -44 -16 -12 -15 -21 -32 -21 -39 1
-6 -11 -36 -25 -66 -27 -58 -69 -104 -105 -114 -44 -14 -35 -66 12 -66 12 0
34 9 47 20 25 19 26 19 43 0 10 -11 19 -31 20 -45 3 -22 0 -24 -20 -19 -12 3
-39 1 -59 -4 -25 -7 -45 -7 -66 1 -25 10 -33 9 -40 -3 -5 -8 -10 -12 -12 -10
-39 61 -73 191 -46 174 14 -9 83 43 112 85 27 38 88 205 79 215 -9 8 68 85 81
80 7 -3 37 6 67 20 62 27 74 23 84 -33z m1768 39 c-3 -10 -14 -22 -24 -25 -10
-4 -26 -19 -36 -35 -26 -44 -47 -48 -39 -8 8 38 35 71 53 63 8 -2 11 -1 8 4
-4 8 8 15 37 20 3 0 4 -8 1 -19z m-3637 -6 c-20 -14 -21 -28 -1 -20 59 22 53
-63 -7 -95 -13 -7 -18 -7 -16 2 2 7 -7 15 -20 18 -27 7 -28 8 -20 39 7 25 30
29 48 7 11 -13 9 -15 -10 -13 -13 2 -25 -3 -27 -12 -4 -13 -3 -13 6 0 8 12 13
12 31 -5 20 -18 21 -18 14 0 -6 14 -4 17 7 13 9 -4 14 2 15 18 1 13 -2 24 -8
24 -5 0 -6 -4 -3 -10 3 -5 -1 -10 -9 -10 -9 0 -17 3 -17 8 -7 39 -5 48 13 48
17 0 17 -2 4 -12z m-1080 -21 c-10 -10 -19 5 -10 18 6 11 8 11 12 0 2 -7 1
-15 -2 -18z m1979 14 c37 -19 75 -71 75 -103 0 -52 70 -106 110 -84 26 14 30
13 30 -8 0 -10 5 -23 12 -30 9 -9 8 -16 -4 -29 -52 -58 -15 -183 54 -183 15 0
28 -4 28 -9 0 -13 -27 -21 -46 -14 -22 8 -44 -22 -44 -59 0 -17 10 -37 27 -52
23 -22 25 -27 13 -41 -8 -10 -25 -21 -37 -26 -13 -5 -27 -19 -32 -31 -7 -18
-9 -15 -14 22 -3 24 -15 56 -27 73 -13 16 -23 41 -24 56 -1 14 -6 35 -12 46
-6 11 -10 34 -10 50 1 25 6 31 28 33 34 4 43 27 19 49 -10 10 -21 27 -23 38
-3 16 -11 20 -40 20 -36 0 -37 0 -22 23 19 28 12 52 -15 52 -13 0 -20 9 -24
33 -3 17 -1 36 4 41 4 5 4 17 -2 27 -5 10 -8 24 -7 31 2 6 -10 14 -27 18 -21
4 -30 11 -30 25 0 17 -6 20 -37 19 -37 -1 -46 5 -31 20 10 9 84 5 108 -7z
m702 -22 c-5 -47 -17 -57 -17 -13 0 31 6 48 17 48 2 0 2 -16 0 -35z m2113 0
c-7 -8 -17 -15 -23 -15 -6 0 -2 8 9 19 22 21 33 19 14 -4z m-262 -33 c12 -13
22 -25 22 -27 0 -2 -22 -6 -50 -10 -40 -6 -53 -12 -68 -37 -12 -18 -22 -26
-26 -19 -8 13 12 86 32 118 12 19 17 20 40 10 15 -6 37 -22 50 -35z m-4248 2
c0 -8 -4 -12 -10 -9 -5 3 -10 10 -10 16 0 5 5 9 10 9 6 0 10 -7 10 -16z m118
-1 c6 -19 -25 -16 -32 3 -4 11 -1 14 11 12 9 -2 18 -9 21 -15z m2322 -3 c0 -5
-4 -10 -10 -10 -5 0 -10 5 -10 10 0 6 5 10 10 10 6 0 10 -4 10 -10z m1553 -12
c4 -12 2 -25 -4 -29 -6 -3 -2 -9 9 -11 11 -3 26 -1 32 6 10 8 10 6 2 -9 -6
-11 -19 -28 -30 -38 -19 -17 -19 -17 -26 20 -8 53 -7 83 3 83 5 0 11 -10 14
-22z m450 -16 c-4 -24 -13 -36 -38 -48 -18 -8 -35 -25 -38 -36 -6 -22 -30 -20
-35 4 -2 8 16 26 42 43 24 15 49 39 55 53 15 32 20 26 14 -16z m-4627 -25 c21
-15 24 -16 24 -2 0 13 3 13 20 3 19 -12 19 -13 -7 -20 -16 -5 -33 -3 -42 5
-12 9 -13 9 -7 -1 5 -8 -2 -15 -18 -22 -19 -7 -26 -17 -26 -35 0 -14 -4 -25
-9 -25 -5 0 -8 28 -6 62 2 46 8 65 22 75 16 12 18 12 21 -4 2 -10 14 -26 28
-36z m2531 21 c-3 -8 -6 -5 -6 6 -1 11 2 17 5 13 3 -3 4 -12 1 -19z m1073 -28
c6 -12 6 -29 -2 -51 -11 -33 -11 -33 -20 -8 -6 13 -12 38 -14 56 -3 26 -1 31
11 27 9 -4 20 -14 25 -24z m-3720 -11 c0 -5 -8 -9 -17 -9 -9 0 -28 -10 -41
-22 -26 -24 -21 -9 13 34 15 19 23 23 33 16 6 -6 12 -14 12 -19z m4568 -33 c3
-13 -1 -17 -14 -14 -11 2 -20 11 -22 22 -3 13 1 17 14 14 11 -2 20 -11 22 -22z
m-3990 -9 c2 -10 8 -17 14 -17 5 0 8 -7 5 -14 -4 -10 -1 -13 9 -9 7 3 14 0 14
-6 0 -6 -19 -11 -45 -11 -34 0 -47 5 -55 20 -6 11 -21 20 -34 20 -29 0 -39 10
-25 26 16 19 113 12 117 -9z m1784 -27 c2 -22 1 -40 -3 -40 -8 0 -19 38 -19
68 0 38 18 15 22 -28z m263 30 c3 -5 1 -10 -4 -10 -6 0 -11 5 -11 10 0 6 2 10
4 10 3 0 8 -4 11 -10z m2130 -25 c0 -19 -3 -35 -7 -35 -11 0 -21 47 -13 59 12
20 20 11 20 -24z m-2292 -23 c3 -10 5 -48 6 -86 1 -38 6 -75 11 -81 7 -8 6
-21 -4 -40 -16 -30 -12 -50 16 -81 15 -17 17 -31 13 -70 -7 -64 -6 -109 4
-137 6 -18 3 -107 -9 -247 -1 -8 -8 -32 -16 -53 -8 -21 -16 -55 -19 -75 -8
-66 -28 -143 -52 -202 -10 -27 -12 -60 -3 -60 6 0 6 -10 1 -22 -5 -13 -12 -50
-16 -83 -4 -33 -10 -73 -12 -90 -3 -16 -8 -70 -12 -120 -5 -49 -11 -103 -14
-120 -3 -16 -8 -57 -12 -89 -5 -50 -24 -147 -39 -206 -15 -57 -28 -108 -31
-127 -2 -12 -6 -26 -8 -31 -5 -7 -62 -8 -147 -3 -17 1 -18 39 -2 206 8 94 -2
225 -18 235 -8 5 -9 10 -2 14 6 4 9 49 7 119 -1 61 0 130 4 152 l7 40 8 -43
c10 -55 17 -224 17 -374 -1 -109 7 -144 24 -101 3 10 5 60 5 113 -1 52 -1 125
0 163 1 37 -3 67 -8 67 -6 0 -7 14 -2 37 5 20 6 41 3 46 -3 4 -6 32 -7 62 -2
51 -20 90 -36 80 -4 -3 -10 15 -12 40 -2 35 0 44 11 40 9 -3 11 0 7 10 -8 21
10 19 24 -2 10 -16 11 -16 5 2 -20 56 -10 190 15 205 8 5 6 23 -8 62 -12 34
-16 61 -11 69 5 8 8 50 7 94 -1 95 10 187 23 179 5 -3 9 -14 9 -24 0 -25 39
-53 55 -40 9 8 10 22 2 55 -9 40 -8 47 9 60 10 8 26 15 36 15 39 0 88 97 58
115 -15 9 -12 25 4 25 7 0 25 9 39 20 35 28 45 83 22 122 -16 28 -16 33 1 108
12 55 21 77 30 73 7 -3 15 -12 17 -21z m-188 8 c-3 -5 -11 -10 -16 -10 -6 0
-7 5 -4 10 3 6 11 10 16 10 6 0 7 -4 4 -10z m355 -16 c0 -14 -4 -23 -10 -19
-5 3 -10 15 -10 26 0 10 5 19 10 19 6 0 10 -12 10 -26z m1985 -12 c-8 -9 -25
20 -18 31 3 5 10 2 15 -7 6 -10 7 -20 3 -24z m-107 16 c5 -7 7 -21 3 -31 -6
-17 -8 -17 -25 2 -10 11 -15 25 -11 30 8 14 20 14 33 -1z m230 -64 c1 0 -3
-16 -9 -34 -11 -29 -13 -31 -24 -17 -7 10 -20 17 -29 17 -17 0 -19 4 -10 36 5
20 9 21 37 11 18 -7 33 -12 35 -13z m122 8 c0 -9 -10 -22 -22 -27 -17 -7 -22
-17 -20 -36 2 -23 -42 -119 -54 -119 -3 0 0 9 6 19 5 11 10 33 10 50 0 43 18
83 48 108 33 27 32 27 32 5z m-4720 -12 c9 -16 8 -20 -5 -20 -8 0 -15 4 -15 9
0 5 -8 8 -17 6 -10 -1 -12 0 -5 2 6 3 12 9 12 14 0 16 19 10 30 -11z m110 -21
c-13 -23 -17 -24 -17 -4 0 8 4 15 9 15 5 0 6 5 2 12 -4 7 -3 8 4 4 9 -5 9 -13
2 -27z m68 4 c5 -17 -26 -29 -40 -15 -6 6 -7 15 -3 22 9 14 37 9 43 -7z m1972
-34 c0 -22 -5 -39 -11 -39 -6 0 -8 7 -5 16 3 8 2 13 -3 10 -13 -8 -20 29 -9
48 14 26 28 9 28 -35z m2264 19 c-1 -13 -3 -29 -3 -36 -1 -20 -79 -94 -91 -87
-5 3 -7 0 -4 -8 3 -8 -2 -17 -12 -21 -14 -5 -15 -2 -10 21 4 16 8 36 10 45 4
27 57 90 72 84 7 -3 18 2 24 10 16 19 17 18 14 -8z m-4351 -25 c-7 -2 -19 -2
-25 0 -7 3 -2 5 12 5 14 0 19 -2 13 -5z m33 -38 c-3 -15 0 -25 7 -26 7 0 2 -4
-10 -9 -13 -5 -23 -13 -23 -18 0 -5 -17 -14 -37 -19 l-38 -10 0 34 c0 36 2 37
28 28 22 -9 70 3 62 15 -3 6 -3 15 0 20 11 17 16 11 11 -15z m89 5 c4 -6 2
-17 -5 -24 -8 -10 -8 -15 0 -18 11 -3 3 -38 -9 -38 -19 1 -27 19 -23 53 4 36
23 49 37 27z m-245 -35 c0 -37 -8 -43 -28 -23 -16 16 -15 45 1 51 24 10 27 7
27 -28z m4810 5 c0 -25 -11 -51 -19 -46 -4 3 -5 21 -3 40 4 36 22 41 22 6z
m-4529 -10 c5 0 9 6 10 13 0 6 5 -1 9 -17 5 -16 7 -33 4 -38 -8 -13 -31 -9
-45 9 -13 15 -11 16 11 10 l25 -6 -23 19 c-15 12 -21 24 -15 32 6 10 8 9 11
-4 2 -10 8 -18 13 -18z m4205 -59 c-8 -28 -12 -50 -8 -49 14 3 42 -14 36 -23
-6 -11 -64 17 -64 31 0 6 -7 10 -15 10 -8 0 -15 3 -15 6 0 8 74 82 78 78 2 -1
-3 -25 -12 -53z m117 32 c-10 -37 -7 -91 6 -107 11 -13 5 -26 -10 -26 -5 0
-20 20 -34 45 -19 31 -24 51 -20 67 11 33 25 48 46 48 16 0 18 -5 12 -27z
m-2741 -44 c36 -43 56 -101 31 -92 -7 3 -11 13 -9 22 7 21 -9 48 -18 32 -4 -6
-2 -11 3 -11 6 0 11 -4 11 -10 0 -17 -18 -11 -39 12 -17 17 -18 24 -8 37 6 8
7 12 1 8 -5 -3 -22 4 -37 17 l-27 23 30 1 c22 0 37 -9 62 -39z m-1644 19 c-2
-6 -10 -14 -16 -16 -7 -2 -10 2 -6 12 7 18 28 22 22 4z m60 -7 c31 -27 28 -32
-15 -25 -46 7 -49 10 -33 29 16 19 20 19 48 -4z m48 -8 c7 -10 14 -26 14 -35
0 -20 -19 -35 -29 -22 -3 5 -12 9 -20 9 -8 0 -16 6 -19 13 -2 7 2 10 11 7 7
-3 20 1 27 10 8 10 9 15 1 15 -6 0 -11 5 -11 10 0 15 11 12 26 -7z m4449 -30
c25 -30 53 -147 42 -177 -10 -26 -36 -19 -56 15 -15 24 -17 36 -9 49 17 26 2
53 -24 47 -14 -4 -29 0 -40 10 -24 21 -23 32 2 26 14 -4 24 3 37 26 10 17 19
31 21 31 2 0 14 -12 27 -27z m-4645 -8 c-7 -8 -16 -12 -21 -9 -13 8 -1 24 18
24 13 0 13 -3 3 -15z m-177 -21 c-9 -15 -19 -22 -21 -16 -2 6 3 18 10 26 22
25 30 18 11 -10z m2006 -67 c-8 -14 -14 -16 -24 -7 -11 9 -11 14 3 30 20 24
36 6 21 -23z m2524 0 c37 18 57 23 57 14 0 -5 -14 -14 -30 -20 -17 -5 -38 -23
-47 -40 l-17 -29 -13 36 c-19 55 -17 69 7 47 16 -15 25 -16 43 -8z m-1843 3
c0 -5 -6 -10 -14 -10 -8 0 -16 -5 -18 -12 -3 -8 -12 -5 -28 10 l-24 22 42 0
c23 0 42 -4 42 -10z m2000 -9 c0 -4 16 -25 35 -45 35 -37 48 -80 21 -70 -7 3
-25 -9 -40 -26 l-26 -31 -25 28 c-13 15 -25 32 -25 38 0 5 14 24 32 42 25 26
29 36 20 45 -15 15 -16 28 -2 28 6 0 10 -4 10 -9z m-2150 -16 c20 -24 6 -28
-15 -5 -10 11 -13 20 -8 20 6 0 16 -7 23 -15z m-2613 -42 c-3 -3 -11 -2 -17 2
-8 5 -7 11 2 22 12 15 13 14 16 -1 2 -10 1 -20 -1 -23z m2003 -4 c0 -11 -4
-17 -10 -14 -6 3 -7 -1 -4 -9 8 -21 -5 -20 -28 1 -18 16 -18 17 9 29 15 7 29
13 31 13 1 1 2 -8 2 -20z m784 -21 c-3 -13 -7 -24 -9 -26 -1 -1 -30 3 -65 10
-93 19 -90 38 5 38 75 0 76 -1 69 -22z m-2529 -51 c9 3 15 -1 15 -10 0 -24
-22 -32 -35 -14 -7 9 -15 14 -18 10 -4 -3 -7 1 -7 10 0 8 -3 24 -6 34 -4 11 2
8 16 -9 12 -16 27 -25 35 -21z m1830 -91 c-3 -50 -9 -113 -12 -141 -9 -65 -8
-143 1 -230 15 -134 16 -160 14 -225 -3 -77 -1 -362 3 -405 1 -16 5 -34 8 -40
4 -5 6 -17 5 -25 -1 -8 -2 -39 -3 -67 -2 -82 -17 -62 -20 25 -1 46 -8 86 -16
99 -11 16 -13 33 -6 67 4 25 7 47 5 49 -9 9 -16 112 -14 197 5 152 3 280 -5
355 -4 39 -8 86 -8 105 0 61 15 175 25 187 5 6 7 46 3 88 -5 70 -4 76 11 64
13 -11 15 -28 9 -103z m2823 92 c25 -25 13 -59 -39 -109 -28 -27 -55 -47 -60
-44 -5 4 -9 21 -9 39 0 24 9 41 40 70 22 21 40 42 40 47 0 13 14 11 28 -3z
m-2261 -24 c-3 -3 -12 -4 -19 -1 -8 3 -5 6 6 6 11 1 17 -2 13 -5z m115 -84
c-2 -43 -1 -87 3 -97 4 -10 9 -34 10 -53 2 -19 8 -89 15 -155 19 -180 20 -190
13 -333 -6 -130 -7 -133 -32 -145 -34 -16 -41 -55 -35 -192 4 -101 12 -138 44
-197 5 -9 15 -90 22 -178 11 -143 10 -180 -6 -326 -13 -122 -16 -196 -11 -287
l7 -122 -63 68 c-34 38 -80 80 -102 94 -50 32 -151 62 -240 73 -38 4 -71 10
-74 13 -11 12 10 27 38 27 39 0 37 16 -3 25 l-33 8 43 10 c51 12 55 27 8 27
-19 0 -38 5 -41 10 -3 6 4 10 17 10 14 0 33 7 44 15 18 13 16 14 -23 15 -53 0
-57 18 -5 22 46 4 49 22 4 26 -41 4 -38 27 4 27 41 0 46 19 7 23 -43 4 -44 30
-1 34 42 4 50 28 9 28 -21 0 -31 5 -31 15 0 10 10 15 30 15 34 0 40 15 9 25
-28 9 -17 30 15 28 33 -2 34 14 1 27 -33 13 -33 34 0 28 36 -7 41 8 8 26 -15
8 -25 16 -20 17 4 1 12 3 17 4 6 1 15 3 20 4 16 2 12 21 -5 21 -8 0 -15 5 -15
10 0 6 7 10 16 10 10 0 14 6 10 15 -3 9 0 15 9 15 8 0 15 7 15 15 0 8 -9 15
-20 15 -11 0 -20 7 -20 15 0 10 11 15 35 15 26 0 33 3 29 15 -4 8 -17 15 -30
15 -13 0 -24 5 -24 10 0 6 9 10 19 10 26 0 37 18 17 26 -23 9 -20 24 4 24 23
0 26 10 8 28 -10 10 -10 17 0 32 7 11 10 31 6 45 -5 19 0 30 17 43 21 18 22
21 10 78 -6 32 -14 69 -17 82 -5 19 -2 22 21 22 35 0 28 24 -8 28 -38 5 -33
20 8 28 41 7 42 31 2 26 -15 -2 -31 0 -37 3 -17 11 9 35 37 35 15 0 23 5 20
13 -2 7 -16 11 -35 9 -30 -3 -31 -2 -23 20 5 15 18 24 35 26 32 4 29 27 -3 26
-23 -1 -27 12 -10 36 8 11 12 12 16 3 7 -18 23 -16 23 3 0 9 -9 18 -20 21 -11
3 -20 10 -20 15 0 5 9 12 20 15 20 5 27 27 11 37 -5 3 -11 15 -14 27 -5 17 -2
20 14 16 15 -4 19 -1 18 11 -1 9 1 25 6 35 4 9 2 23 -4 30 -7 10 -5 17 9 27
14 10 20 26 20 52 0 21 5 38 11 38 5 0 7 -4 4 -10 -3 -5 -1 -10 4 -10 6 0 11
9 11 20 0 11 -7 20 -16 20 -8 0 -12 5 -9 10 3 6 17 10 31 10 13 0 24 2 24 4 0
2 3 11 6 20 5 13 -1 16 -33 16 -29 0 -40 4 -40 15 0 14 22 20 55 16 6 -1 12 2
12 8 0 5 9 7 20 4 23 -6 28 15 5 22 -47 15 -50 18 -16 24 19 3 37 13 41 21 4
8 12 25 18 37 7 14 8 24 2 28 -19 12 -9 22 23 23 l34 1 -5 -79z m-2766 32 c13
-8 29 -52 19 -52 -8 0 -44 42 -45 53 0 9 12 9 26 -1z m2161 -24 c-3 -8 -6 -5
-6 6 -1 11 2 17 5 13 3 -3 4 -12 1 -19z m517 8 c-3 -8 -13 -12 -25 -9 -27 7
-24 23 6 23 17 0 23 -4 19 -14z m2080 -43 c4 -32 3 -53 -3 -53 -12 0 -26 84
-16 100 10 16 11 12 19 -47z m-4589 7 c3 -6 -4 -10 -16 -10 -12 0 -31 -7 -41
-17 -17 -15 -18 -15 -18 5 0 19 12 25 57 31 6 0 15 -3 18 -9z m1994 -167 c-1
-71 -5 -153 -8 -183 l-6 -55 -12 43 c-12 46 -11 222 2 285 15 76 26 35 24 -90z
m-1956 91 c-6 -17 -20 -18 -26 -1 -2 6 -8 9 -12 5 -4 -4 2 -15 13 -25 19 -16
20 -20 6 -38 -13 -17 -16 -18 -24 -5 -6 8 -8 20 -5 27 2 7 0 15 -6 19 -16 10
8 32 35 32 17 0 23 -5 19 -14z m4615 -76 c14 -14 16 -68 2 -68 -5 0 -10 -6
-10 -14 0 -7 -6 -19 -13 -25 -10 -8 -20 -4 -43 20 -16 16 -29 38 -29 47 0 39
65 68 93 40z m-4623 -18 c3 -6 -1 -7 -9 -4 -18 7 -21 14 -7 14 6 0 13 -4 16
-10z m-113 -138 c9 -9 9 -15 0 -24 -9 -9 -15 -8 -27 8 -8 10 -15 22 -15 26 0
10 29 3 42 -10z m-85 -54 c-19 -12 -28 2 -15 25 11 21 11 21 18 2 4 -11 3 -23
-3 -27z m4823 -52 c0 -15 -7 -26 -20 -29 -11 -3 -24 -15 -28 -28 -9 -22 -9
-22 -19 7 -12 35 5 68 30 58 8 -3 18 -1 22 5 10 17 15 13 15 -13z m25 -112 c6
-32 1 -54 -9 -43 -9 11 -16 79 -8 79 6 0 13 -16 17 -36z m-4785 7 c20 -39 6
-55 -24 -26 -8 8 -20 15 -27 15 -9 0 -8 4 1 15 17 21 37 19 50 -4z m4737 -83
c-3 -7 -5 -2 -5 12 0 14 2 19 5 13 2 -7 2 -19 0 -25z m-1283 -530 c43 -68 -41
-196 -181 -277 -68 -39 -135 -104 -131 -126 8 -34 -96 -136 -122 -120 -11 7 3
39 27 63 21 21 73 100 73 110 0 5 11 35 25 65 19 45 37 65 89 104 43 32 65 55
66 69 0 44 -14 38 -122 -44 -32 -24 -58 -39 -58 -34 0 16 112 114 145 128 17
7 57 28 89 48 70 42 81 44 100 14z m-1449 -148 c7 0 15 -15 17 -35 4 -33 3
-35 -28 -32 -31 2 -31 2 -31 56 0 51 1 53 15 33 8 -12 20 -22 27 -22z m1065
-108 c0 -44 -28 -117 -55 -142 l-24 -22 6 22 c8 32 -18 22 -35 -13 -7 -15 -20
-27 -28 -27 -16 0 -19 16 -4 25 13 8 13 35 0 35 -5 0 -17 -14 -25 -30 -18 -35
-37 -31 -33 7 2 14 -3 28 -9 30 -8 3 -13 -4 -13 -15 0 -23 -25 -46 -40 -37 -8
5 -7 11 1 21 9 11 9 18 1 26 -14 14 -15 47 -4 66 5 6 43 16 86 22 72 9 136 34
136 52 0 4 9 8 20 8 15 0 20 -7 20 -28z m-1340 7 c47 -5 112 -11 145 -13 93
-7 286 -25 322 -31 32 -6 32 -6 27 -53 -4 -29 -13 -52 -25 -61 -11 -7 -19 -22
-19 -32 0 -11 -4 -19 -10 -19 -5 0 -10 11 -10 25 0 14 -4 25 -10 25 -5 0 -10
-9 -10 -21 0 -28 -19 -61 -31 -54 -5 4 -9 19 -9 36 0 44 -16 35 -26 -17 -9
-47 -28 -57 -28 -14 -1 16 -8 26 -19 28 -16 3 -17 -1 -12 -30 5 -25 2 -38 -9
-47 -23 -19 -36 -4 -36 40 0 28 -4 39 -12 36 -7 -2 -12 -17 -11 -32 4 -50 -12
-65 -67 -65 -50 0 -50 0 -50 33 0 41 -10 77 -21 77 -5 0 -9 -20 -9 -45 0 -33
-4 -45 -15 -45 -11 0 -15 11 -15 40 0 29 -4 40 -15 40 -13 0 -15 -7 -9 -35 8
-44 -13 -48 -27 -5 -13 35 -45 43 -34 9 7 -20 4 -21 -51 -17 -49 2 -59 0 -62
-14 -2 -11 10 -24 38 -38 27 -14 40 -27 39 -38 -5 -30 11 -79 37 -113 46 -63
28 -194 -48 -341 -18 -34 -37 -58 -46 -58 -9 0 -25 -12 -37 -26 -14 -18 -25
-23 -38 -18 -17 6 -15 9 12 26 53 34 35 53 -20 21 -38 -22 -52 -7 -16 19 15
11 27 26 27 35 0 12 -7 11 -34 -7 -35 -21 -35 -21 -45 -1 -14 26 -14 31 3 31
16 0 38 24 30 33 -3 3 -17 1 -30 -5 -19 -9 -28 -8 -37 1 -9 10 -8 14 6 22 27
15 20 29 -14 29 -28 0 -31 2 -25 25 5 20 3 25 -13 25 -21 0 -41 27 -41 56 0 9
-7 22 -14 28 -8 6 -35 52 -60 101 -24 50 -62 114 -85 143 -64 86 -73 170 -23
225 28 31 140 78 206 86 89 12 288 12 386 0z m455 -321 c-7 -72 -18 -99 -44
-114 -15 -9 -37 -38 -49 -65 -13 -26 -27 -51 -32 -54 -6 -3 -10 -17 -10 -31 0
-29 -7 -30 -39 -4 -18 16 -24 32 -27 78 -2 31 -5 71 -8 87 -5 30 16 75 34 75
6 0 10 -22 10 -48 0 -36 5 -54 20 -67 24 -22 25 -21 42 30 9 29 19 41 36 43
16 3 22 10 22 28 0 21 -9 29 -32 25 -20 -3 -4 16 25 30 49 25 56 23 52 -13z
m-255 -58 c0 -5 -4 -10 -10 -10 -5 0 -10 5 -10 10 0 6 5 10 10 10 6 0 10 -4
10 -10z m-169 -10 c4 0 16 -15 25 -32 9 -18 32 -49 51 -69 30 -32 32 -37 18
-49 -8 -7 -15 -19 -15 -26 0 -8 -3 -13 -7 -13 -23 4 -33 -3 -33 -21 0 -11 -6
-20 -14 -20 -11 0 -11 8 -3 40 6 22 17 40 23 40 20 0 27 19 14 35 -7 8 -23 15
-36 15 -13 0 -24 5 -24 10 0 6 -9 30 -20 52 -24 50 -24 52 -4 44 9 -3 20 -6
25 -6z m163 -111 c1 -38 -14 -50 -29 -22 -5 10 -18 29 -27 42 -10 13 -18 38
-18 55 l0 31 36 -37 c26 -26 37 -45 38 -69z m519 -33 c107 -38 145 -65 198
-139 19 -26 46 -62 61 -80 15 -18 28 -35 28 -39 0 -5 5 -8 12 -8 13 0 58 -39
58 -51 0 -4 -19 -5 -41 -2 -42 6 -42 6 -36 -23 3 -16 1 -43 -5 -60 -10 -28 -8
-36 18 -73 31 -44 50 -53 41 -20 -4 15 -2 19 10 15 8 -3 19 -6 24 -6 13 0 10
-52 -4 -71 -7 -9 -18 -14 -24 -12 -9 3 -12 -5 -9 -27 3 -23 -4 -44 -25 -75
-16 -24 -29 -48 -29 -54 0 -6 -4 -11 -10 -11 -14 0 -31 -37 -24 -54 11 -28 38
-17 82 35 23 28 42 55 42 60 0 5 5 9 10 9 6 0 10 -6 10 -13 0 -17 44 -59 53
-50 4 3 7 -1 7 -9 0 -9 7 -21 15 -28 13 -11 13 -15 3 -21 -21 -14 -25 -11 -48
26 -12 19 -26 33 -31 29 -12 -7 -12 -61 1 -69 5 -3 15 -16 20 -28 7 -13 -3 -7
-23 16 -19 20 -37 37 -41 37 -18 0 -4 -66 20 -91 20 -21 22 -28 11 -32 -8 -3
-27 7 -43 24 -33 35 -40 36 -47 7 -5 -17 2 -29 25 -48 20 -17 29 -31 24 -39
-6 -9 -11 -10 -19 -2 -17 17 -27 13 -27 -11 0 -19 -2 -20 -10 -8 -5 8 -10 27
-10 41 0 27 -56 108 -76 108 -6 1 -28 17 -50 36 -22 20 -50 35 -64 35 -14 0
-45 10 -69 21 -25 11 -79 25 -120 30 -83 12 -273 4 -304 -13 -16 -8 -18 -7
-12 12 5 15 2 26 -6 31 -21 13 -113 11 -128 -3 -7 -7 -2 9 13 37 14 27 26 56
26 64 0 9 8 12 25 9 15 -3 30 1 37 9 10 12 7 18 -12 34 -21 15 -22 19 -7 19
26 0 34 30 12 46 -18 13 -18 17 4 96 12 46 26 105 31 132 10 55 17 66 29 47
10 -16 5 -39 -20 -88 -24 -47 -24 -74 0 -95 16 -14 17 -23 9 -74 -4 -33 -15
-78 -22 -101 -12 -34 -12 -45 -1 -59 38 -53 86 93 93 286 2 74 8 139 13 145 6
6 9 6 10 0 2 -11 6 -198 8 -307 1 -54 4 -68 16 -68 23 0 33 37 37 132 2 67 6
84 17 80 14 -5 31 14 31 37 0 9 -7 11 -25 7 l-25 -6 -1 82 c-3 126 1 149 27
195 13 23 24 48 24 55 0 9 18 14 58 16 44 2 78 -5 155 -32z m-276 18 c-3 -3
-12 -4 -19 -1 -8 3 -5 6 6 6 11 1 17 -2 13 -5z m-40 -70 c-3 -3 -12 -4 -19 -1
-8 3 -5 6 6 6 11 1 17 -2 13 -5z m-247 -55 c0 -11 -11 -11 -29 0 -7 5 -10 14
-6 20 5 9 10 9 21 0 8 -6 14 -15 14 -20z m120 -15 c0 -17 -6 -24 -19 -24 -23
0 -37 -18 -33 -42 2 -9 -2 -19 -8 -23 -8 -5 -8 -11 1 -21 14 -17 4 -64 -15
-64 -7 0 -18 11 -23 23 -13 28 9 139 28 146 6 2 19 11 28 21 21 22 41 14 41
-16z m-198 -14 c12 -11 29 -20 39 -20 18 0 29 -18 22 -37 -5 -14 -80 17 -94
38 -24 38 -1 51 33 19z m308 11 c0 -6 -4 -13 -10 -16 -5 -3 -10 1 -10 9 0 9 5
16 10 16 6 0 10 -4 10 -9z m-287 -110 c35 -22 48 -41 27 -41 -5 0 -10 5 -10
11 0 7 -9 9 -21 6 -27 -7 -100 39 -93 58 6 15 31 6 97 -34z m-89 -57 c26 -25
18 -34 -14 -16 -16 9 -30 20 -30 25 0 13 28 8 44 -9z m40 -50 c24 -9 19 -24
-8 -24 -14 0 -31 -9 -39 -21 l-15 -21 -7 21 c-8 25 -30 28 -39 5 -7 -17 8 -50
25 -56 12 -4 -40 -74 -72 -96 -16 -11 -23 -11 -34 -2 -20 17 -19 22 15 65 16
21 39 57 51 80 19 38 24 42 54 38 19 -2 36 1 40 7 7 12 8 12 29 4z m111 -4 c4
-6 15 -8 25 -5 16 5 17 2 8 -42 -6 -26 -12 -50 -14 -52 -1 -1 -13 4 -26 13
l-22 16 22 0 c36 0 39 29 6 56 -16 13 -24 23 -17 24 6 0 15 -5 18 -10z m928
-26 c4 -23 3 -24 -10 -11 -9 8 -12 20 -9 26 10 16 13 14 19 -15z m7 -49 c0 -9
-9 -15 -22 -15 -21 0 -21 0 -2 15 24 18 24 18 24 0z m-1013 -35 c25 -30 60
-39 80 -19 7 7 9 3 6 -15 -6 -30 -22 -32 -71 -9 -48 23 -63 38 -56 57 8 22 11
21 41 -14z m-47 -66 c0 -16 -2 -16 -24 -8 -13 5 -14 9 -5 20 13 16 29 9 29
-12z m50 -28 c6 -8 21 -16 33 -18 16 -2 21 -9 19 -23 -2 -11 -6 -22 -8 -24 -5
-6 -53 39 -65 62 -12 21 4 23 21 3z m-152 -78 c-3 -19 0 -32 9 -35 7 -3 13
-10 13 -16 0 -6 -20 9 -45 33 -50 49 -53 57 -27 63 33 7 54 -12 50 -45z m1202
14 c0 -10 -6 -26 -13 -36 -12 -16 -13 -14 -9 18 4 37 22 51 22 18z m-1070 -24
c17 -12 30 -30 30 -41 0 -10 10 -27 23 -38 13 -11 17 -18 9 -19 -22 0 -52 20
-52 34 0 8 -16 26 -35 40 -20 15 -33 32 -30 37 9 14 23 11 55 -13z m1092 -63
c3 -30 2 -33 -10 -21 -9 8 -11 22 -7 35 9 29 12 26 17 -14z m-1159 -22 c15
-18 20 -39 18 -82 l-1 -25 -30 29 c-16 16 -30 35 -30 42 0 8 -7 16 -15 19 -29
11 -13 28 31 33 6 0 18 -7 27 -16z m247 -25 c-14 -5 -32 -14 -40 -19 -47 -26
-123 -58 -130 -54 -14 8 -3 40 11 36 23 -7 52 -3 59 8 8 13 78 40 105 40 17 0
16 -2 -5 -11z m389 -114 c21 -15 21 -18 7 -26 -9 -5 -16 -15 -16 -21 0 -7 -12
-13 -27 -12 -41 0 -44 -38 -12 -200 16 -77 28 -141 29 -142 0 -2 5 -3 10 -3
26 0 32 54 15 130 -9 41 -15 102 -13 135 l3 60 30 -85 c26 -76 30 -98 31 -217
1 -105 5 -137 18 -158 17 -26 40 -33 51 -15 3 5 1 29 -6 52 -6 24 -12 92 -13
152 -1 97 0 106 11 77 7 -17 18 -31 24 -31 5 0 7 -5 4 -11 -4 -6 -2 -32 5 -57
6 -26 16 -65 22 -88 5 -23 10 -62 10 -88 1 -26 5 -49 9 -52 5 -2 6 -10 3 -17
-2 -7 0 -58 6 -112 5 -55 12 -135 14 -178 2 -56 8 -82 21 -97 30 -33 38 -14
31 74 -4 44 -9 110 -12 146 -14 182 -34 319 -64 435 l-28 110 26 -33 c21 -24
32 -30 50 -26 17 5 22 2 23 -12 2 -34 8 -67 29 -169 11 -55 25 -140 30 -190
11 -96 29 -184 41 -199 5 -5 15 -4 24 4 8 7 15 11 15 9 3 -21 23 -305 25 -339
2 -54 24 -148 36 -155 5 -3 18 -1 30 5 17 10 20 17 14 43 -21 93 -49 407 -38
418 10 10 51 -133 59 -206 10 -94 39 -220 53 -234 9 -9 16 -22 17 -28 2 -29 5
-33 18 -33 7 0 21 15 29 33 15 30 15 32 -3 35 -25 4 -26 22 -1 22 11 0 21 9
24 21 5 19 2 21 -22 16 -28 -6 -29 -4 -44 51 -8 31 -18 75 -21 97 -6 39 -6 39
8 15 8 -14 18 -43 22 -65 l6 -39 24 27 24 28 0 -40 c0 -43 18 -65 27 -32 3 11
14 23 24 26 10 4 19 11 19 16 0 5 6 8 13 6 8 -1 12 13 12 45 0 25 4 50 8 54 4
4 7 -5 7 -20 0 -39 29 -91 43 -77 7 7 7 24 0 58 -6 26 -9 50 -6 53 8 8 43 -41
43 -61 0 -26 21 -35 35 -16 16 22 31 21 45 0 10 -17 10 -17 20 0 6 9 20 17 30
17 10 0 21 4 24 8 3 5 20 7 38 5 18 -2 53 -5 78 -6 25 -2 55 -8 67 -15 12 -6
29 -12 37 -12 23 0 20 21 -3 27 -16 4 -19 13 -18 46 2 34 -1 41 -15 39 -12 -2
-15 3 -11 19 7 27 26 34 53 19 16 -8 19 -15 11 -24 -17 -20 24 -54 47 -40 40
25 18 85 -35 99 -23 5 -24 8 -10 23 8 9 16 23 19 31 3 11 8 10 24 -6 10 -11
36 -23 56 -27 42 -8 75 -51 85 -111 6 -35 5 -35 -26 -29 -27 6 -31 4 -31 -14
0 -12 9 -26 20 -32 11 -6 17 -16 14 -25 -5 -12 -9 -12 -29 1 -13 9 -29 13 -35
9 -13 -8 -13 -35 0 -35 6 0 10 -8 10 -18 0 -10 5 -23 12 -30 7 -7 9 -12 4 -12
-4 0 -19 14 -33 30 -46 55 -74 28 -31 -30 17 -24 19 -33 9 -43 -10 -9 -11 -9
-6 4 4 11 -5 25 -25 43 -58 49 -91 24 -39 -30 18 -18 30 -36 27 -40 -4 -3 -14
5 -22 19 -15 22 -55 47 -76 47 -19 0 -10 -25 22 -57 18 -18 28 -33 22 -34 -5
0 -19 -2 -31 -3 -19 -2 -22 1 -17 19 4 16 -3 29 -26 49 -51 42 -69 16 -25 -36
26 -31 33 -58 13 -58 -6 0 -26 18 -45 40 -19 22 -40 40 -48 40 -26 0 -23 -28
6 -56 29 -28 38 -54 19 -54 -5 0 -10 8 -11 18 0 9 -15 29 -34 44 -26 22 -35
25 -43 15 -8 -10 -4 -22 18 -47 16 -19 27 -37 24 -39 -3 -3 -21 13 -40 37 -37
43 -60 53 -70 28 -3 -8 -12 -12 -19 -10 -23 9 -26 -14 -5 -48 22 -37 25 -48
10 -48 -5 0 -10 6 -10 13 0 8 -9 22 -20 32 -18 17 -21 17 -55 1 -40 -19 -40
-19 -19 -50 10 -16 12 -26 5 -31 -6 -3 -11 0 -11 7 0 7 -11 27 -24 43 -22 27
-25 28 -32 12 -3 -10 -2 -29 5 -43 14 -31 14 -34 -2 -34 -7 0 -17 10 -22 23
-15 34 -40 28 -38 -9 2 -24 -2 -33 -16 -37 -15 -3 -20 2 -25 25 -9 44 -31 29
-31 -20 0 -27 -5 -42 -12 -42 -7 0 -13 10 -13 23 0 23 -17 47 -33 47 -5 0 -7
-18 -6 -40 2 -23 -2 -45 -10 -52 -11 -11 -12 -9 -7 9 9 27 -11 66 -29 60 -7
-3 -17 -1 -23 5 -17 17 -32 -1 -32 -38 0 -22 -5 -34 -13 -34 -23 0 -25 10 -10
41 13 27 13 32 -6 63 -15 24 -19 42 -15 65 7 36 -16 52 -47 33 -24 -15 -48
-15 -81 0 -23 11 -24 14 -12 34 13 18 12 23 -1 34 -21 17 -45 -3 -37 -32 3
-15 1 -19 -9 -16 -9 3 -13 17 -11 39 1 19 -2 41 -8 49 -9 13 -12 12 -25 -4
-14 -19 -15 -17 -15 22 0 40 -11 54 -25 32 -11 -17 -23 -11 -27 13 -4 28 -20
27 -35 -4 -7 -13 -20 -24 -30 -24 -29 -1 -43 -14 -43 -41 0 -16 -5 -24 -12
-21 -9 3 -12 21 -10 56 3 49 1 52 -32 67 -34 17 -63 59 -46 69 4 3 8 46 8 95
0 82 -2 93 -25 120 l-25 30 -4 387 c-3 214 -6 398 -7 411 -2 21 3 24 46 27 27
1 54 8 60 14 16 16 39 14 66 -5z m-303 -273 c-1 -184 -5 -273 -13 -282 -6 -8
-14 -32 -18 -54 -8 -53 -24 -131 -36 -180 -16 -69 -28 -337 -15 -357 11 -19
31 -24 40 -10 3 5 8 75 11 156 3 82 10 169 16 195 6 25 17 78 24 116 7 39 20
97 28 130 14 52 19 175 20 402 0 28 3 40 12 37 15 -6 28 -358 15 -424 -5 -25
-6 -86 -3 -136 4 -59 2 -104 -6 -124 -9 -28 -8 -38 6 -59 14 -20 18 -47 18
-109 0 -46 5 -86 11 -90 13 -9 15 -80 3 -88 -15 -9 -10 -53 8 -80 13 -21 14
-25 2 -24 -46 7 -50 -9 -13 -57 29 -38 44 -36 36 3 -3 17 -1 25 5 21 6 -4 13
-18 16 -32 6 -33 -20 -50 -87 -59 -27 -3 -55 -11 -62 -17 -8 -6 -22 -9 -33 -6
-32 8 -53 -11 -46 -44 7 -33 -13 -41 -35 -13 -7 8 -25 14 -38 12 -30 -4 -44
-40 -42 -108 2 -59 -8 -48 -17 21 -6 38 -13 54 -23 54 -11 0 -15 -13 -15 -52
1 -57 -14 -74 -17 -20 -1 17 -2 40 -3 49 -1 27 -16 34 -30 15 -8 -12 -11 -32
-8 -55 4 -26 2 -34 -5 -27 -6 6 -12 26 -14 45 -3 40 -17 44 -35 10 -11 -22
-12 -22 -15 15 -5 65 -28 56 -29 -12 -1 -49 -2 -53 -9 -29 -5 16 -6 42 -3 58
5 26 3 29 -13 26 -14 -2 -20 -13 -22 -46 -4 -55 -22 -44 -22 13 0 24 -4 46 -9
49 -16 10 -32 -21 -25 -48 4 -17 2 -26 -6 -26 -9 0 -11 16 -8 55 3 39 1 55 -8
55 -17 0 -24 -24 -24 -81 0 -27 -4 -49 -8 -49 -18 0 -35 50 -29 89 6 45 0 56
-20 40 -8 -7 -13 -33 -13 -66 0 -48 -2 -54 -15 -43 -9 8 -15 30 -15 57 0 57
-24 54 -28 -3 -2 -21 -7 -43 -11 -47 -14 -14 -31 53 -24 96 5 31 3 39 -8 35
-16 -5 -32 -63 -26 -95 3 -18 0 -23 -12 -21 -18 4 -17 53 2 76 7 9 6 17 -6 29
-22 22 -30 12 -37 -45 -4 -34 -10 -48 -22 -50 -24 -5 -24 35 -1 60 11 13 13
22 6 29 -14 14 -42 -15 -50 -52 -3 -16 -9 -29 -13 -29 -16 0 -17 14 -4 47 9
19 12 43 9 52 -5 13 -9 12 -25 -9 -11 -14 -20 -34 -20 -46 0 -26 -8 -34 -26
-27 -12 4 -11 12 6 41 31 52 9 65 -25 14 -17 -25 -32 -39 -41 -35 -14 5 -5 35
16 48 13 8 13 45 0 45 -5 0 -16 -13 -25 -30 -18 -35 -17 -35 -55 -15 -35 18
-36 24 -10 55 15 17 17 27 10 34 -8 8 -17 5 -30 -12 -10 -12 -20 -27 -22 -34
-3 -8 -10 -8 -21 -1 -17 9 -17 11 3 35 11 14 20 31 20 37 0 28 -44 -3 -55 -40
-5 -16 -9 -18 -21 -8 -12 10 -11 17 11 45 14 18 25 37 25 43 0 22 -26 10 -43
-21 l-18 -32 -24 30 c-28 35 -38 86 -19 97 19 11 18 41 -1 33 -30 -11 -14 16
44 76 45 45 66 61 87 61 16 0 30 -6 32 -12 7 -22 22 -11 22 17 0 49 36 71 42
25 5 -45 26 -39 30 9 l4 43 18 -39 c21 -47 36 -34 29 25 -7 51 18 54 36 4 19
-52 34 -44 29 15 -4 39 -2 50 9 50 8 0 11 -5 8 -10 -7 -12 12 -40 27 -40 6 0
8 14 6 30 -3 17 -1 33 4 36 4 3 8 -3 8 -14 0 -10 9 -27 20 -37 23 -21 31 -9
27 39 -2 26 2 30 58 50 43 15 73 35 108 70 l48 50 -3 -34 c-3 -39 15 -50 47
-26 19 15 19 16 2 47 -10 17 -16 33 -15 34 2 1 17 7 35 13 l31 10 4 -41 c3
-24 -2 -59 -10 -80 -13 -33 -16 -36 -27 -21 -20 28 -32 8 -30 -48 2 -29 1 -39
-1 -23 -9 66 -14 77 -28 66 -10 -9 -12 -21 -5 -49 5 -20 8 -50 8 -67 -1 -20
-6 -9 -16 35 -32 132 -88 115 -85 -25 1 -28 0 -29 -14 -11 -8 11 -14 30 -14
42 0 30 -12 36 -37 19 -26 -18 -45 -91 -34 -131 7 -26 3 -34 -36 -72 -32 -31
-43 -48 -38 -62 5 -16 0 -19 -37 -22 -24 -2 -62 -1 -84 0 -35 3 -41 7 -37 23
6 22 -25 27 -45 7 -35 -35 12 -83 73 -76 45 5 46 -8 0 -16 -38 -8 -43 -17 -20
-36 13 -11 29 -11 88 0 110 19 162 42 163 72 1 34 12 48 29 41 11 -3 15 2 15
18 0 27 16 57 25 48 3 -4 1 -19 -5 -34 -7 -19 -7 -32 -1 -38 7 -7 14 -1 21 17
5 15 10 32 10 37 0 5 4 9 10 9 5 0 7 -13 3 -32 -4 -22 -3 -29 5 -24 8 5 12 0
12 -14 0 -11 7 -23 16 -27 13 -5 15 -15 10 -50 -5 -42 8 -61 20 -28 11 29 31
16 26 -16 -3 -24 -1 -30 9 -27 9 3 15 23 17 52 5 76 26 52 30 -33 4 -95 24
-90 37 10 6 47 14 74 23 74 12 0 14 -6 8 -27 -20 -73 -23 -93 -19 -128 9 -67
31 -50 39 30 3 38 10 67 15 64 5 -3 9 -13 9 -23 0 -24 34 -54 56 -49 16 3 18
20 19 168 2 160 19 412 30 429 2 5 7 26 10 47 4 22 8 47 11 57 14 47 54 255
54 279 0 18 5 28 15 28 8 0 15 9 15 19 0 10 -7 21 -15 25 -22 8 -18 26 5 26
15 0 20 7 20 25 0 16 -6 25 -15 25 -8 0 -15 7 -15 15 0 8 9 15 19 15 24 0 35
15 25 32 -12 19 -9 61 4 66 8 2 12 -13 12 -52 0 -39 -4 -55 -12 -53 -8 1 -12
-6 -9 -18 8 -46 -2 -159 -20 -241 -11 -49 -24 -116 -29 -149 -5 -33 -15 -81
-23 -105 -38 -118 -78 -394 -61 -422 4 -6 8 -51 10 -100 4 -97 7 -108 30 -108
9 0 22 -7 31 -15 8 -9 20 -14 27 -12 20 7 18 44 -3 59 -14 10 -23 31 -27 60
-6 41 -4 47 14 52 28 9 31 20 37 176 3 74 8 157 10 183 6 56 34 262 40 292 17
84 27 192 30 322 1 83 6 156 10 162 3 6 17 11 29 11 l23 0 -1 -269z m382 230
c13 -12 20 -25 16 -35 -4 -9 7 -36 25 -64 27 -43 43 -87 24 -69 -3 4 -17 0
-30 -8 -21 -14 -23 -14 -23 5 0 33 -42 174 -54 182 -7 5 -6 8 4 8 8 -1 25 -9
38 -19z m186 -14 c15 -10 34 -33 43 -50 8 -18 20 -43 28 -57 21 -38 29 -80 16
-80 -6 0 -16 12 -22 28 -25 60 -33 73 -49 70 -21 -4 -50 20 -50 40 0 9 -11 27
-24 41 l-25 26 27 0 c16 0 40 -8 56 -18z m-48 -134 c8 -3 14 -11 14 -18 0 -7
6 -15 13 -18 6 -2 9 -8 4 -12 -4 -5 -21 4 -37 20 -24 23 -30 37 -29 69 l1 41
10 -38 c6 -21 17 -41 24 -44z m194 2 c10 -12 10 -21 1 -42 -10 -22 -14 -24
-22 -12 -11 18 -12 69 0 69 5 0 14 -7 21 -15z m-940 -200 c0 -8 -4 -15 -10
-15 -5 0 -7 7 -4 15 4 8 8 15 10 15 2 0 4 -7 4 -15z m865 -45 c3 -5 1 -10 -4
-10 -6 0 -11 5 -11 10 0 6 2 10 4 10 3 0 8 -4 11 -10z m-915 -139 c0 -6 -5
-13 -11 -17 -6 -3 -9 -17 -6 -30 2 -13 0 -24 -4 -24 -5 0 -9 18 -9 40 0 29 4
40 15 40 8 0 15 -4 15 -9z m955 -1 c3 -5 1 -10 -4 -10 -6 0 -11 5 -11 10 0 6
2 10 4 10 3 0 8 -4 11 -10z m85 -10 c6 -11 7 -20 2 -20 -6 0 -12 9 -15 20 -3
11 -3 20 -1 20 2 0 8 -9 14 -20z m149 -40 c9 0 21 -10 26 -22 12 -25 24 -32
83 -47 23 -7 42 -15 41 -19 0 -4 -17 -20 -36 -37 -30 -24 -34 -26 -25 -8 13
23 9 28 -40 52 -14 7 -40 26 -58 42 -17 16 -40 29 -51 29 -10 0 -19 5 -19 11
0 8 11 9 31 5 17 -3 39 -6 48 -6z m-214 -20 c3 -5 -1 -10 -9 -10 -9 0 -16 5
-16 10 0 6 4 10 9 10 6 0 13 -4 16 -10z m-1108 -62 c-3 -7 -5 -2 -5 12 0 14 2
19 5 13 2 -7 2 -19 0 -25z m237 -98 c-9 -58 -19 -150 -23 -205 l-8 -100 -1 91
c-2 81 16 240 34 302 13 46 12 14 -2 -88z m995 101 c7 -5 10 -14 7 -20 -11
-17 -23 -13 -29 9 -6 22 0 25 22 11z m111 -81 l-8 -35 -1 31 c-1 17 2 34 6 37
11 12 12 3 3 -33z m316 30 c17 0 24 -6 24 -18 0 -32 34 -52 106 -61 38 -5 90
-19 116 -30 44 -20 45 -22 35 -46 -7 -14 -20 -25 -29 -25 -14 0 -16 6 -11 30
4 24 2 30 -12 30 -9 0 -19 -9 -22 -20 -8 -30 -25 -24 -21 8 4 35 -22 37 -39 2
-12 -24 -13 -24 -13 -3 0 34 -17 37 -34 6 -15 -28 -16 -28 -22 -5 -3 12 -10
22 -14 22 -13 0 -28 -24 -32 -49 -5 -39 -25 -36 -20 3 4 38 -11 54 -34 35 -12
-10 -14 -23 -10 -51 6 -34 4 -38 -14 -38 -17 0 -19 3 -10 19 24 47 0 82 -31
45 -10 -12 -10 -22 -2 -44 9 -24 8 -29 -8 -33 -17 -5 -19 -1 -13 28 3 20 1 35
-6 40 -14 9 29 37 85 55 55 17 64 28 41 46 -11 8 -16 14 -12 14 5 0 3 7 -4 15
-21 25 -114 0 -190 -52 l-25 -17 23 26 c36 40 128 81 160 72 8 -2 25 -4 38 -4z
m239 -31 c15 -14 -7 -10 -35 7 l-25 15 25 -7 c14 -3 29 -10 35 -15z m-1944
-112 c-17 -17 -20 -4 -8 36 l12 39 3 -32 c2 -18 -1 -37 -7 -43z m1356 19 c14
0 23 -7 26 -22 3 -18 -1 -23 -27 -27 -43 -6 -66 8 -66 41 0 41 20 58 35 29 6
-13 20 -22 32 -21z m111 -3 c-5 -25 -28 -28 -28 -4 0 12 6 21 16 21 9 0 14 -7
12 -17z m92 -39 c-8 -9 -8 -19 0 -34 11 -20 10 -21 -9 -16 -12 3 -30 9 -41 12
-19 5 -19 7 8 33 27 28 64 33 42 5z m-110 -10 c0 -8 -5 -12 -10 -9 -6 4 -8 11
-5 16 9 14 15 11 15 -7z m-1404 -29 c-6 -22 -9 -24 -28 -14 l-21 11 24 19 c28
21 33 18 25 -16z m1804 0 c-11 -13 -15 -13 -21 -3 -7 10 -12 11 -29 1 -27 -17
-35 -16 -20 2 7 8 28 15 47 15 31 0 34 -2 23 -15z m60 -9 c0 -18 -18 -41 -26
-33 -4 4 -8 18 -9 31 0 17 4 22 17 18 10 -2 18 -9 18 -16z m-2120 -7 c0 -5 -4
-9 -10 -9 -5 0 -10 7 -10 16 0 8 5 12 10 9 6 -3 10 -10 10 -16z m1580 -50 c0
-6 -4 -7 -10 -4 -5 3 -10 11 -10 16 0 6 5 7 10 4 6 -3 10 -11 10 -16z m339
-25 c66 -7 74 -24 12 -24 -45 0 -101 18 -101 32 0 6 6 8 14 5 8 -3 42 -9 75
-13z m-1819 -28 c0 -8 -4 -18 -10 -21 -5 -3 -10 3 -10 14 0 12 5 21 10 21 6 0
10 -6 10 -14z m1550 4 c0 -5 -4 -10 -10 -10 -5 0 -10 5 -10 10 0 6 5 10 10 10
6 0 10 -4 10 -10z m-1486 -9 c3 -5 -1 -12 -10 -15 -22 -9 -24 -8 -24 9 0 16
25 21 34 6z m91 -21 c-6 -10 -85 -18 -85 -8 0 8 24 14 63 15 15 1 25 -2 22 -7z
m1442 -42 c-3 -7 -5 -2 -5 12 0 14 2 19 5 13 2 -7 2 -19 0 -25z m-827 -79 c0
-5 -4 -9 -8 -9 -9 0 -32 44 -32 58 1 10 40 -38 40 -49z m170 -54 c0 -16 6 -25
15 -25 8 0 15 -4 15 -10 0 -5 -9 -6 -22 -1 -24 8 -39 61 -19 61 6 0 11 -11 11
-25z m76 -43 c-11 -10 -15 4 -8 28 l7 25 3 -23 c2 -13 1 -26 -2 -30z m-126
-32 c0 -5 -4 -10 -9 -10 -6 0 -13 5 -16 10 -3 6 1 10 9 10 9 0 16 -4 16 -10z
m930 -35 c0 -8 -4 -15 -10 -15 -5 0 -10 7 -10 15 0 8 5 15 10 15 6 0 10 -7 10
-15z m-915 -27 c14 -6 25 -17 25 -24 0 -7 4 -15 10 -19 15 -9 121 -12 126 -3
3 4 12 1 20 -7 9 -8 22 -15 29 -15 8 0 19 -8 24 -18 8 -15 4 -21 -24 -36 -34
-19 -34 -19 -65 8 -38 31 -54 33 -45 6 3 -11 2 -20 -3 -20 -14 0 -22 -39 -10
-46 20 -13 26 -49 10 -66 -8 -10 -15 -31 -14 -48 0 -16 -4 -31 -9 -31 -19 -3
-24 -5 -38 -13 -8 -5 -16 -4 -20 3 -9 14 -80 2 -84 -14 -1 -5 25 -13 58 -16
84 -8 122 -31 147 -86 19 -43 19 -47 4 -59 -16 -11 -15 -13 6 -19 29 -10 38
-23 38 -57 0 -16 5 -28 10 -28 6 0 10 -17 10 -37 0 -59 19 -79 21 -23 3 66 -1
90 -16 114 -7 11 -16 32 -19 46 -4 14 7 0 23 -32 29 -54 30 -60 27 -172 -2
-101 -5 -119 -24 -139 -11 -12 -28 -40 -36 -62 -10 -24 -29 -47 -46 -57 -31
-18 -37 -42 -21 -98 10 -36 25 -7 22 42 -1 27 2 38 12 38 8 0 23 12 33 28 10
15 22 32 28 38 50 53 66 108 61 207 -4 60 -3 61 10 32 18 -39 18 -87 1 -155
-8 -30 -13 -57 -11 -58 11 -11 25 15 44 78 24 79 21 128 -10 156 -30 27 -22
38 10 12 23 -18 31 -34 36 -75 6 -45 3 -60 -25 -119 -25 -54 -30 -72 -21 -90
10 -22 7 -51 -9 -89 -13 -31 -20 -134 -9 -140 5 -4 9 -11 9 -18 0 -8 -3 -8
-12 1 -16 16 -28 15 -28 -2 0 -8 -4 -16 -10 -18 -15 -5 -37 -102 -32 -137 6
-40 -17 -41 -45 -3 -16 21 -18 33 -11 52 5 14 7 34 4 45 -4 16 0 14 18 -8 l23
-29 7 44 c4 23 18 60 32 82 14 21 22 42 17 46 -11 12 -79 -52 -75 -71 2 -9 -4
-22 -12 -29 -30 -24 -30 17 -1 56 23 30 26 42 21 75 -4 26 -2 39 5 39 6 0 9
-6 6 -13 -3 -7 1 -21 8 -31 17 -22 30 -4 27 38 -3 38 -8 42 -28 25 -15 -12
-16 -11 -10 9 4 13 3 22 -3 22 -5 0 -13 -9 -16 -20 -3 -11 -10 -20 -15 -20 -5
0 -7 -7 -4 -15 3 -8 -6 -26 -20 -40 -19 -19 -25 -32 -20 -51 4 -14 2 -24 -5
-24 -6 0 -14 12 -17 27 l-7 26 -20 -24 -20 -24 7 48 c9 58 0 93 -19 77 -9 -8
-14 -2 -18 27 -3 21 -8 47 -13 57 -5 13 -4 17 4 13 6 -4 13 -21 17 -37 4 -17
11 -30 16 -30 6 0 7 9 4 20 -5 14 -2 20 9 20 9 0 16 6 16 14 0 8 3 21 6 30 4
9 1 16 -6 16 -6 0 -14 -9 -17 -20 -5 -19 -5 -19 -22 0 -23 27 -53 30 -57 5 -2
-11 -4 -64 -4 -117 -1 -54 -5 -100 -9 -103 -5 -2 -7 -17 -4 -32 3 -27 3 -27
-8 -6 -9 16 -9 46 -2 113 6 50 7 105 3 123 -4 17 -8 24 -9 15 -1 -10 -6 -18
-12 -18 -6 0 -9 6 -6 14 4 10 -7 19 -33 30 -21 8 -41 20 -45 26 -3 5 -15 10
-26 10 -13 0 -24 10 -31 31 -6 18 -16 28 -23 25 -9 -3 -12 5 -11 27 1 18 -1
46 -6 62 -6 22 -4 33 6 40 10 8 13 24 9 57 -3 28 -1 48 6 52 6 4 11 22 11 40
0 35 27 134 41 152 11 13 2 24 -14 18 -9 -3 -12 24 -12 96 0 55 -3 100 -7 100
-5 0 -8 -3 -8 -7 0 -5 -4 -14 -9 -22 -7 -10 -18 -4 -50 29 -33 35 -45 41 -66
36 -23 -6 -25 -4 -21 20 8 41 24 53 74 53 26 1 58 3 72 6 75 14 120 28 131 41
14 17 49 18 84 2z m805 -9 c0 -6 -4 -7 -10 -4 -5 3 -10 11 -10 16 0 6 5 7 10
4 6 -3 10 -11 10 -16z m-1279 -102 c-8 -8 -11 -5 -11 9 0 27 14 41 18 19 2 -9
-1 -22 -7 -28z m919 -7 c0 -11 -4 -20 -10 -20 -5 0 -10 9 -10 20 0 11 5 20 10
20 6 0 10 -9 10 -20z m-1275 0 c3 -5 1 -10 -4 -10 -6 0 -11 5 -11 10 0 6 2 10
4 10 3 0 8 -4 11 -10z m155 -20 c0 -5 -5 -10 -11 -10 -5 0 -7 5 -4 10 3 6 8
10 11 10 2 0 4 -4 4 -10z m420 -400 c-6 -11 -15 -40 -20 -63 -9 -41 -9 -41 -5
12 2 29 10 59 16 67 17 20 23 10 9 -16z m-50 -84 c0 -2 -7 -9 -15 -16 -13 -11
-14 -10 -9 4 5 14 24 23 24 12z m46 -179 c4 -33 3 -57 -2 -57 -11 0 -32 101
-26 120 8 23 21 -7 28 -63z m172 -304 c0 -34 -2 -43 -9 -31 -7 14 -2 78 6 78
2 0 3 -21 3 -47z m102 -53 c-25 -50 -25 -123 1 -128 18 -3 35 52 30 101 -4 47
17 29 25 -20 l7 -48 15 43 c10 30 18 40 24 34 6 -6 7 -19 3 -29 -5 -10 -9 -21
-9 -24 -1 -4 -14 -26 -29 -49 l-28 -43 21 -19 c27 -26 25 -63 -5 -90 -14 -12
-25 -32 -25 -46 0 -13 -9 -31 -20 -40 -15 -13 -21 -31 -22 -69 -1 -29 -6 -53
-10 -53 -4 0 -13 18 -19 40 -9 31 -9 49 1 85 10 35 10 49 1 58 -6 6 -11 24
-11 40 0 22 -4 28 -15 23 -30 -11 -15 22 16 36 29 12 30 15 23 53 -11 62 -8
109 11 167 28 84 29 85 33 51 2 -19 -5 -48 -18 -73z m-90 -30 c0 -10 -4 -22
-10 -25 -6 -4 -10 7 -10 25 0 18 4 29 10 25 6 -3 10 -15 10 -25z m-100 -55
c-1 -10 32 -39 47 -41 8 -2 17 -4 19 -7 9 -9 22 -67 16 -67 -16 0 -33 18 -30
30 2 7 -3 15 -10 17 -8 3 -12 -1 -11 -8 4 -21 -12 -79 -21 -79 -5 0 -6 25 -3
55 4 40 2 61 -10 79 -9 13 -13 26 -10 30 7 7 15 1 13 -9z m137 -4 c-3 -22 -25
-51 -38 -51 -5 0 -9 9 -9 20 0 11 7 20 15 20 9 0 18 7 21 15 8 21 14 19 11 -4z
m-243 -117 c-8 -32 -47 -113 -68 -139 -15 -20 -15 -19 -16 7 0 15 7 33 15 42
8 8 15 22 15 31 0 8 6 18 14 21 8 3 20 19 26 35 15 36 23 38 14 3z m503 -41
c-9 -9 -19 -14 -23 -11 -10 10 6 28 24 28 15 0 15 -1 -1 -17z m-355 -43 c-2
-17 -9 -33 -15 -37 -7 -4 -8 0 -4 11 4 10 7 26 7 37 0 10 4 19 8 19 5 0 7 -14
4 -30z m338 -32 l-1 -53 -15 29 c-12 22 -14 34 -5 52 16 36 21 29 21 -28z
m-420 -48 c0 -5 -5 -10 -11 -10 -5 0 -7 5 -4 10 3 6 8 10 11 10 2 0 4 -4 4
-10z m-9 -482 c20 -22 23 -35 19 -78 -3 -33 -8 -37 -26 -18 -14 14 -27 118
-15 118 2 0 12 -10 22 -22z m315 -105 c-10 -10 -19 5 -10 18 6 11 8 11 12 0 2
-7 1 -15 -2 -18z m4 -67 c0 -25 -5 -48 -10 -51 -7 -4 -10 12 -9 44 3 63 19 68
19 7z m-112 -28 c1 -40 25 -66 46 -49 18 15 34 -5 17 -22 -11 -11 -131 -21
-131 -11 0 3 6 15 13 27 7 12 13 33 12 47 0 16 7 27 20 32 11 3 20 6 21 7 1 1
1 -13 2 -31z m-108 -28 c0 -5 -4 -10 -10 -10 -5 0 -10 5 -10 10 0 6 5 10 10
10 6 0 10 -4 10 -10z M4705 8540 c3 -5 8 -10 11 -10 2 0 4 5 4 10 0 6 -5 10
-11 10 -5 0 -7 -4 -4 -10z M4780 8430 c0 -5 5 -10 10 -10 6 0 10 5 10 10 0 6
-4 10 -10 10 -5 0 -10 -4 -10 -10z M2570 8364 c0 -8 5 -12 10 -9 6 3 10 10 10
16 0 5 -4 9 -10 9 -5 0 -10 -7 -10 -16z M646 7792 c-7 -12 12 -38 21 -28 4 5
2 11 -5 13 -6 3 -10 9 -6 14 3 5 3 9 0 9 -3 0 -7 -4 -10 -8z M2320 7090 c11
-20 22 -25 33 -14 11 11 -5 34 -24 34 -17 0 -18 -3 -9 -20z M2294 6848 c-12
-19 -24 -105 -24 -168 0 -30 -1 -84 -1 -120 0 -36 -1 -76 -3 -90 -1 -14 3 -31
10 -37 20 -20 35 10 35 70 0 31 6 63 14 74 12 16 13 12 9 -32 -2 -27 -7 -57
-9 -66 -5 -16 18 -49 34 -49 12 0 28 145 32 292 1 41 -3 62 -15 73 -15 15 -17
14 -22 -12 -7 -35 -43 -86 -44 -62 0 9 6 22 14 28 17 15 25 75 11 87 -21 20
-34 24 -41 12z m28 -173 c3 -14 1 -28 -3 -31 -5 -3 -9 9 -9 25 0 38 6 40 12 6z
M2593 6308 c-21 -27 -22 -50 -3 -94 28 -64 26 -98 -5 -112 -17 -8 -25 -20 -25
-36 0 -37 28 -47 70 -27 33 15 35 19 38 74 2 45 -3 70 -22 112 -13 30 -22 63
-19 74 6 24 -18 29 -34 9z M210 6969 c0 -5 5 -7 10 -4 6 3 10 8 10 11 0 2 -4
4 -10 4 -5 0 -10 -5 -10 -11z M1975 5474 c8 -45 12 -51 25 -38 12 12 -2 66
-19 72 -11 4 -12 -4 -6 -34z M2533 5123 c-14 -5 -17 -34 -7 -69 3 -11 28 -35
55 -53 47 -31 51 -32 63 -15 12 16 14 14 18 -14 4 -29 2 -32 -16 -26 -24 7
-89 38 -125 59 -27 15 -41 12 -41 -10 0 -14 70 -60 143 -92 20 -9 37 -23 37
-31 0 -8 -6 -12 -12 -9 -66 24 -195 56 -202 50 -13 -14 18 -43 52 -49 51 -8
152 -56 152 -72 0 -16 -38 -8 -108 25 -50 23 -82 25 -82 6 1 -18 19 -31 83
-58 37 -16 70 -32 72 -36 8 -13 -79 3 -96 17 -16 15 -49 19 -49 7 0 -16 55
-63 74 -63 49 0 66 -12 66 -42 0 -26 -3 -29 -27 -26 -19 2 -27 9 -28 25 -2 31
-10 36 -39 29 -52 -13 -40 -164 12 -154 12 2 17 13 17 36 0 17 1 32 2 32 1 0
14 -5 28 -12 18 -8 25 -19 25 -40 0 -17 -5 -28 -12 -27 -53 7 -49 -11 12 -55
40 -29 54 -34 69 -27 27 15 34 51 10 51 -17 0 -19 7 -18 58 0 63 9 119 32 202
8 30 21 83 27 118 12 60 13 61 26 37 8 -16 11 -49 9 -91 -2 -36 0 -76 5 -88 7
-18 3 -24 -21 -35 -25 -11 -42 -39 -44 -73 0 -3 -3 -10 -7 -14 -5 -4 -8 -26
-8 -49 0 -40 22 -75 47 -75 16 0 36 47 28 67 -17 38 3 103 32 103 10 0 14 6
10 20 -4 17 -2 18 15 9 28 -15 29 -9 8 34 -23 46 -17 144 9 165 15 12 14 15
-9 35 -14 12 -33 34 -43 49 -11 19 -22 25 -34 21 -14 -5 -15 -1 -10 27 6 26 2
40 -19 67 -28 37 -49 34 -73 -11 -8 -14 -18 -23 -23 -20 -5 3 -2 15 8 25 9 11
15 21 13 22 -50 39 -77 49 -106 40z M2317 4783 c-14 -13 -6 -30 20 -42 22 -10
29 -9 42 4 15 15 14 17 -3 31 -21 15 -48 18 -59 7z M2320 4694 c0 -9 8 -23 18
-30 15 -12 14 -13 -10 -14 -30 0 -37 -17 -16 -38 15 -15 54 -16 63 -2 14 23
22 7 15 -32 -9 -49 12 -90 45 -85 17 2 19 10 20 85 0 45 -3 88 -6 94 -11 17
-59 -7 -59 -28 0 -14 -3 -14 -15 -4 -14 11 -13 14 2 25 25 18 9 45 -27 45 -21
0 -30 -5 -30 -16z M2037 4553 c-12 -11 25 -43 49 -43 29 0 39 16 24 35 -13 15
-61 20 -73 8z M2320 4531 c0 -21 13 -41 26 -41 20 0 30 30 13 41 -18 11 -39
11 -39 0z M2710 3899 c0 -5 5 -7 10 -4 6 3 10 8 10 11 0 2 -4 4 -10 4 -5 0
-10 -5 -10 -11z M2442 3828 c-6 -9 -6 -33 -1 -68 5 -30 12 -114 14 -185 3 -72
9 -152 14 -179 6 -32 5 -59 -1 -78 -9 -25 -7 -33 10 -50 38 -38 45 -16 37 106
-4 61 -9 145 -10 186 -1 61 -12 178 -21 225 -1 6 -2 20 -3 33 -1 24 -23 30
-39 10z M3091 3107 c-12 -15 -5 -27 16 -27 7 0 13 9 13 20 0 23 -13 26 -29 7z
M2783 2993 c-14 -5 -18 -33 -5 -33 4 0 13 5 20 12 22 22 14 33 -15 21z M1012
3286 c1 -10 8 -17 13 -17 15 1 12 24 -3 29 -9 3 -13 -2 -10 -12z M956 3115
c-20 -20 -21 -45 -1 -45 14 0 33 46 22 56 -2 3 -12 -2 -21 -11z M2196 3024
c-6 -15 20 -64 34 -64 15 0 21 39 10 60 -13 24 -35 26 -44 4z M2152 3008 c-16
-16 -15 -33 3 -48 12 -10 18 -9 31 5 16 15 16 18 -2 36 -16 15 -22 17 -32 7z
M2113 2953 c-20 -8 -15 -23 7 -23 11 0 20 7 20 15 0 15 -6 17 -27 8z M2412
2434 c-62 -43 23 -75 113 -43 49 18 44 37 -12 44 -27 4 -55 9 -63 11 -9 2 -26
-3 -38 -12z M2430 2323 c0 -27 16 -48 25 -34 3 7 15 9 25 6 13 -4 22 1 29 14
16 30 15 31 -34 31 -36 0 -45 -3 -45 -17z M2430 2238 c3 -54 1 -63 -21 -76
-19 -12 -20 -11 -14 7 6 19 2 21 -35 21 -45 0 -61 -19 -39 -47 12 -15 12 -16
-3 -10 -10 3 -18 3 -18 -2 0 -8 25 -20 86 -39 27 -9 35 -7 58 14 21 20 26 34
26 72 0 62 -9 92 -27 92 -10 0 -14 -10 -13 -32z M2584 2199 c-3 -6 0 -16 7
-21 11 -8 11 -9 -3 -5 -24 8 -30 -4 -13 -23 15 -16 14 -17 -12 -12 -25 5 -26
3 -15 -11 23 -27 64 -29 117 -6 40 18 46 24 34 33 -8 6 -13 18 -11 27 5 26
-89 42 -104 18z M2721 2126 c-9 -10 -9 -21 -3 -32 8 -14 10 -12 16 11 8 33 3
41 -13 21z M2673 2041 c-3 -13 -11 -20 -19 -17 -16 6 -18 -3 -5 -23 7 -11 13
-6 26 18 9 18 14 36 10 39 -3 3 -8 -4 -12 -17z M2605 2000 c3 -5 8 -10 11 -10
2 0 4 5 4 10 0 6 -5 10 -11 10 -5 0 -7 -4 -4 -10z M2755 1945 c-28 -24 -29
-24 -10 -44 25 -29 33 -26 41 13 9 51 3 57 -31 31z M2570 1870 c0 -5 5 -10 10
-10 6 0 10 5 10 10 0 6 -4 10 -10 10 -5 0 -10 -4 -10 -10z M2520 1554 c-16
-42 -24 -104 -13 -104 6 0 13 14 17 31 5 25 9 29 26 24 29 -9 36 18 13 49 -23
32 -31 32 -43 0z M4940 8520 c0 -5 5 -10 10 -10 6 0 10 5 10 10 0 6 -4 10 -10
10 -5 0 -10 -4 -10 -10z M712 8393 c-20 -43 9 -143 41 -143 25 0 36 21 26 48
-6 15 -9 40 -9 57 1 16 2 36 1 43 -2 18 -49 14 -59 -5z M0 8050 c0 -5 5 -10
10 -10 6 0 10 5 10 10 0 6 -4 10 -10 10 -5 0 -10 -4 -10 -10z M0 6970 c0 -5 5
-10 10 -10 6 0 10 5 10 10 0 6 -4 10 -10 10 -5 0 -10 -4 -10 -10z M30 6600 c0
-5 5 -10 10 -10 6 0 10 5 10 10 0 6 -4 10 -10 10 -5 0 -10 -4 -10 -10z M0
6407 c0 -62 3 -75 14 -71 8 3 17 13 21 22 9 23 -5 100 -21 113 -12 10 -14 -1
-14 -64z M3083 2647 c-12 -6 -42 -23 -67 -36 -59 -31 -88 -62 -76 -80 7 -12
12 -12 33 2 81 53 197 102 197 82 0 -3 -16 -13 -36 -21 -26 -11 -34 -19 -30
-32 5 -14 -4 -22 -41 -35 -27 -9 -59 -17 -73 -19 -38 -5 -34 -42 5 -45 44 -4
167 49 182 78 7 13 21 27 32 31 35 13 24 46 -13 39 -4 -1 -5 10 -2 24 6 24 5
25 -41 25 -27 0 -58 -6 -70 -13z M1901 2627 c-14 -14 48 -56 95 -64 31 -5 34
-4 34 20 0 21 -7 28 -37 38 -53 17 -79 19 -92 6z M1807 2603 c-16 -16 -4 -30
44 -48 28 -11 55 -26 61 -32 18 -22 48 -16 48 10 0 43 -124 100 -153 70z
M3202 2518 c-7 -7 -12 -20 -12 -30 0 -13 -19 -23 -77 -42 -78 -24 -92 -37 -79
-73 5 -11 10 -12 19 -5 6 6 38 17 70 25 72 19 107 41 107 69 0 11 7 26 17 33
9 7 13 17 9 23 -9 15 -39 15 -54 0z M1712 2493 c2 -9 17 -20 33 -25 17 -5 57
-18 91 -29 80 -25 86 -25 82 9 -3 23 -11 30 -53 44 -27 9 -74 17 -103 17 -45
1 -53 -2 -50 -16z M3290 2441 c0 -6 5 -13 10 -16 6 -3 10 1 10 9 0 9 -4 16
-10 16 -5 0 -10 -4 -10 -9z M1661 2426 c-22 -26 -6 -40 65 -59 139 -35 147
-36 151 -17 5 28 -13 40 -93 61 -43 12 -86 23 -95 26 -8 2 -21 -3 -28 -11z
M3200 2374 c-117 -19 -150 -32 -150 -60 0 -18 29 -18 66 0 16 8 55 17 87 21
84 9 97 16 79 40 -5 8 -30 7 -82 -1z M1607 2313 c-4 -3 -7 -14 -7 -22 0 -13
22 -20 103 -34 56 -10 112 -20 125 -23 19 -5 22 -2 22 19 0 34 -5 36 -108 53
-97 16 -126 17 -135 7z M3249 2276 c-3 -3 -36 -10 -74 -16 -39 -6 -74 -15 -79
-20 -5 -5 -15 -6 -23 -3 -11 4 -14 0 -11 -13 3 -16 12 -19 62 -16 32 1 82 11
112 21 30 10 57 15 59 10 5 -8 55 12 55 22 0 14 -90 26 -101 15z M1540 2204
c-12 -13 -11 -17 1 -25 8 -5 25 -9 39 -10 14 -1 36 -3 50 -5 14 -2 54 -5 90
-8 36 -2 75 -8 88 -11 19 -6 22 -4 22 18 0 15 -8 30 -17 35 -10 5 -72 12 -139
16 -104 5 -123 4 -134 -10z M3132 2162 c-58 -3 -63 -5 -60 -25 3 -21 7 -21
136 -22 118 0 135 2 143 18 7 12 6 17 -3 18 -7 0 -44 3 -83 7 -38 4 -98 6
-133 4z M3064 2085 c-11 -28 3 -39 67 -52 112 -23 157 -25 189 -11 44 19 31
32 -35 35 -49 2 -153 21 -203 38 -7 3 -15 -2 -18 -10z M1569 2078 c-12 -5 -19
-15 -17 -25 4 -24 70 -34 181 -26 88 6 88 6 85 32 l-3 26 -113 0 c-62 0 -122
-3 -133 -7z M3050 2002 c0 -19 71 -75 111 -87 13 -4 38 -16 55 -26 32 -20 60
-24 88 -13 27 10 18 21 -29 37 -24 9 -64 29 -87 45 -91 62 -138 77 -138 44z
M1751 1995 c-84 -19 -152 -44 -175 -66 -16 -15 -17 -20 -6 -34 9 -11 16 -13
24 -5 5 5 19 10 31 10 12 0 25 4 31 9 9 8 131 36 136 31 2 -2 13 2 26 9 15 8
22 20 20 33 -4 28 -11 29 -87 13z M1773 1906 c-35 -19 -79 -37 -99 -41 -47 -8
-84 -33 -84 -54 0 -28 10 -31 41 -16 15 8 39 15 52 15 13 0 32 9 42 20 10 12
25 18 32 16 15 -6 103 38 115 56 8 14 -9 38 -26 37 -6 0 -39 -15 -73 -33z
M3038 1914 c-27 -26 84 -96 170 -107 46 -6 55 3 20 21 -28 14 -70 39 -119 70
-36 22 -60 27 -71 16z M2154 1896 c-3 -9 -3 -24 0 -33 4 -9 1 -20 -5 -24 -8
-5 -5 -11 10 -18 11 -7 21 -16 21 -22 0 -6 -5 -7 -11 -3 -8 5 -8 1 0 -14 6
-12 16 -24 21 -27 6 -3 10 -17 10 -30 0 -13 5 -27 11 -31 8 -4 9 3 4 25 -5 26
-4 30 9 25 9 -3 16 -3 16 1 0 13 -23 50 -36 58 -8 5 -14 25 -14 46 0 43 -25
76 -36 47z M1803 1827 c-83 -56 -115 -86 -108 -97 10 -16 30 -12 60 13 16 12
56 36 89 52 44 22 61 35 61 50 0 34 -36 28 -102 -18z M2996 1844 c-9 -22 -7
-34 4 -34 9 0 66 -35 110 -68 39 -29 118 -64 137 -60 12 2 -17 30 -90 88 -109
85 -149 104 -161 74z M2210 1835 c0 -8 5 -15 10 -15 6 0 10 7 10 15 0 8 -4 15
-10 15 -5 0 -10 -7 -10 -15z M1892 1788 c-109 -81 -132 -102 -132 -119 0 -24
22 -24 44 0 10 11 25 17 36 14 13 -4 34 10 70 46 43 43 50 54 40 66 -16 20
-22 19 -58 -7z M2946 1774 c-3 -9 -6 -17 -6 -20 0 -2 44 -40 97 -84 63 -51
101 -76 107 -70 6 6 4 16 -7 28 -9 10 -17 26 -17 35 0 9 -5 17 -10 17 -6 0
-37 25 -70 55 -62 57 -84 66 -94 39z M1929 1697 c-39 -34 -82 -70 -95 -80 -13
-10 -21 -24 -17 -32 7 -19 27 -19 43 0 7 9 21 13 31 10 22 -7 139 106 139 135
0 39 -31 29 -101 -33z M2890 1728 c0 -23 169 -208 190 -208 17 0 12 15 -17 53
-16 20 -39 52 -53 72 -49 70 -83 105 -101 105 -13 0 -19 -7 -19 -22z M2841
1692 c-11 -21 -2 -40 51 -103 21 -26 38 -51 38 -55 0 -15 71 -84 86 -84 20 0
17 24 -6 45 -11 10 -32 39 -46 64 -41 71 -96 151 -105 151 -5 0 -13 -8 -18
-18z M4688 1198 c-20 -7 -28 -17 -28 -33 0 -31 16 -42 77 -53 68 -12 113 5
113 43 0 45 -92 69 -162 43z M4533 1082 c-98 -2 -134 -6 -143 -17 -28 -33 105
-78 201 -68 41 4 59 2 59 -6 0 -6 -13 -11 -29 -11 -31 0 -153 -24 -183 -35
-29 -12 -20 -35 20 -52 41 -18 139 -25 148 -12 3 5 17 9 31 9 21 0 24 -3 19
-22 -3 -13 -6 -26 -6 -30 0 -3 -46 -9 -102 -11 -196 -10 -237 -28 -188 -77 26
-26 39 -25 49 4 7 16 22 26 48 33 48 12 164 16 179 6 6 -5 14 -29 18 -54 6
-43 5 -46 -20 -58 -34 -15 -21 -28 31 -33 l40 -3 -4 50 c-8 99 -8 100 19 99
14 0 61 -5 105 -10 139 -15 174 -4 175 52 0 38 -129 84 -239 84 -56 0 -62 2
-51 15 7 9 20 13 29 11 9 -3 54 -8 101 -12 47 -3 87 -8 90 -9 3 -2 12 0 20 5
28 17 -5 29 -95 36 -123 9 -143 23 -32 24 48 0 87 4 87 9 0 14 -39 21 -122 21
-65 0 -78 3 -78 16 0 14 8 16 58 10 31 -4 66 -8 77 -9 14 -1 21 5 23 21 2 13
-2 22 -10 23 -33 3 -205 4 -325 1z m111 -42 c7 -7 -6 -10 -36 -10 -60 0 -108
10 -108 22 0 13 131 1 144 -12z m-9 -109 c25 -8 17 -9 -43 -10 -40 -1 -71 2
-69 7 8 11 78 13 112 3z m259 -62 c62 -23 75 -35 55 -54 -12 -11 -35 -10 -128
1 -63 8 -117 16 -119 19 -3 2 -2 11 2 20 14 38 108 45 190 14z M2704 886 c-7
-19 2 -245 10 -253 16 -16 39 27 37 69 0 24 -1 78 -1 121 0 71 -2 77 -20 77
-12 0 -23 -6 -26 -14z M4803 724 c-3 -8 -1 -20 5 -26 16 -16 42 -2 42 22 0 24
-38 28 -47 4z M66 467 c-14 -10 -16 -19 -10 -38 4 -13 7 -30 6 -36 -2 -7 1
-13 7 -13 25 0 41 14 41 37 0 22 4 24 38 21 l37 -3 -4 -145 c-2 -109 -7 -149
-18 -162 -13 -14 -12 -17 8 -23 29 -10 114 -9 129 0 9 6 7 12 -8 24 -19 14
-21 28 -22 131 -3 181 -6 170 35 170 31 0 36 -3 42 -30 8 -43 49 -35 51 10 0
8 4 25 7 38 7 22 6 22 -91 22 -55 0 -128 3 -164 6 -47 4 -70 2 -84 -9z M461
461 c-8 -5 -10 -14 -5 -22 12 -20 5 -311 -8 -326 -6 -7 -9 -13 -7 -14 2 0 25
-2 52 -5 l47 -4 0 95 c0 107 -11 96 93 98 l42 2 7 -80 c4 -48 2 -85 -4 -92
-17 -20 0 -31 43 -27 49 4 56 9 41 27 -12 14 -19 318 -8 336 7 11 -14 18 -61
20 -37 1 -52 -15 -28 -32 12 -10 15 -25 13 -62 l-3 -50 -65 0 -65 0 3 68 c3
60 2 67 -15 67 -10 0 -27 3 -38 5 -11 3 -26 1 -34 -4z M798 462 c-22 -4 -23
-11 -2 -27 14 -10 16 -34 15 -173 -2 -187 -10 -175 122 -171 109 4 115 6 132
46 19 45 19 43 -10 43 -14 0 -25 -6 -25 -13 0 -28 -36 -47 -87 -47 l-51 0 -4
60 c-1 33 -1 65 0 70 6 16 24 12 48 -11 l22 -21 12 22 c6 11 10 35 8 53 -4 42
-34 49 -48 12 -7 -17 -16 -25 -28 -23 -14 3 -16 13 -13 68 2 36 5 68 8 73 2 4
26 7 54 7 48 0 49 -1 49 -30 0 -31 17 -39 38 -18 16 16 15 53 0 66 -13 9 -207
21 -240 14z M1413 453 c-9 -3 -10 -23 -6 -67 6 -71 0 -77 -67 -66 -32 5 -35 8
-34 40 0 19 4 47 8 63 l8 27 -70 0 c-39 0 -73 -4 -76 -8 -7 -11 6 -27 27 -35
15 -6 17 -21 17 -114 0 -141 -7 -183 -31 -183 -10 0 -21 -5 -24 -10 -5 -7 17
-10 67 -8 l73 3 0 90 0 90 35 5 c68 11 71 7 70 -84 -1 -44 -1 -87 -1 -93 1
-16 141 -18 141 -3 0 6 -9 10 -19 10 -10 0 -22 7 -25 16 -12 30 -7 289 6 302
6 6 10 13 7 15 -7 7 -94 15 -106 10z M1630 440 c-13 -9 -13 -11 1 -20 14 -8
15 -17 2 -82 -36 -189 -43 -242 -34 -251 11 -11 78 -1 87 14 3 6 -4 13 -15 16
-17 4 -21 13 -20 42 3 74 17 83 107 65 27 -5 32 -12 41 -52 5 -25 7 -51 4 -58
-7 -19 24 -31 97 -38 82 -8 154 4 158 26 3 13 -6 17 -38 20 l-42 3 -2 60 c-2
33 0 83 3 110 l6 50 24 -40 c13 -22 35 -60 49 -85 35 -65 81 -120 101 -120 9
0 22 -5 28 -11 7 -7 19 -9 27 -6 12 5 15 29 15 132 0 156 7 194 34 204 l21 8
-20 11 c-21 11 -99 10 -111 -2 -4 -3 1 -12 11 -19 15 -11 18 -28 17 -97 -1
-103 -4 -140 -11 -140 -3 0 -18 26 -35 57 -16 31 -47 83 -68 115 -26 40 -36
65 -32 78 6 18 2 20 -47 20 -72 0 -102 -9 -88 -25 6 -8 12 -74 13 -160 l2
-146 -24 3 c-23 3 -28 12 -48 88 -68 252 -56 231 -133 235 -36 3 -72 0 -80 -5z
m123 -103 c23 -71 16 -84 -40 -70 -31 7 -38 13 -38 33 0 14 4 31 9 38 5 7 6
15 3 19 -4 3 -2 14 4 25 18 33 41 16 62 -45z M2396 441 c-3 -4 -18 -11 -34
-14 -17 -4 -40 -21 -57 -43 -23 -31 -28 -45 -27 -94 1 -79 18 -137 48 -165 24
-23 76 -40 104 -36 8 1 44 5 80 8 36 3 67 7 69 9 3 3 6 24 7 47 1 23 4 51 6
62 2 16 -3 20 -27 22 -16 1 -49 4 -72 6 -48 4 -74 -6 -58 -22 6 -6 19 -12 30
-14 60 -9 60 -42 -1 -52 -59 -8 -85 8 -102 68 -16 51 -7 98 27 146 24 34 91
52 116 31 12 -10 18 -10 30 0 21 17 19 25 -10 38 -30 14 -121 16 -129 3z m-76
-141 c0 -5 -4 -10 -10 -10 -5 0 -10 5 -10 10 0 6 5 10 10 10 6 0 10 -4 10 -10z
M2635 441 l-30 -7 23 -13 c24 -13 24 -13 18 -157 -4 -79 -9 -150 -12 -158 -3
-8 2 -16 13 -19 24 -6 105 -3 118 4 6 3 30 7 55 8 25 1 49 6 54 11 9 9 27 93
21 99 -2 2 -15 1 -29 -3 -17 -4 -26 -15 -31 -37 -7 -29 -9 -30 -53 -27 l-47 3
-3 63 c-2 38 1 62 8 62 5 0 10 -7 10 -16 0 -10 7 -14 23 -12 16 2 23 11 25 34
4 40 -19 62 -41 39 -34 -33 -37 -21 -28 90 1 6 23 12 50 13 42 2 51 -1 56 -18
3 -11 4 -24 0 -29 -9 -16 13 -23 35 -11 11 6 20 21 20 33 0 45 -12 51 -122 52
-57 1 -116 -1 -133 -4z M2988 443 c-50 -4 -58 -12 -33 -33 18 -15 16 -273 -3
-292 -23 -23 -12 -27 67 -23 142 6 166 13 215 59 50 47 61 77 51 142 -5 34
-16 55 -48 88 -39 40 -47 44 -107 51 -36 3 -72 7 -80 9 -8 1 -36 0 -62 -1z
m187 -83 c21 -22 29 -42 33 -80 4 -49 3 -51 -40 -95 -30 -30 -54 -45 -71 -45
-14 0 -33 -3 -43 -7 -15 -6 -16 3 -11 113 4 65 7 125 7 132 0 8 16 12 48 12
40 0 53 -5 77 -30z M3838 432 c-27 -2 -48 -7 -48 -13 0 -5 7 -9 16 -9 11 0 14
-5 9 -17 -8 -19 -40 -106 -60 -163 -24 -65 -35 -52 -110 133 l-28 67 -64 0
c-61 0 -84 -12 -43 -23 16 -4 18 -9 10 -33 -4 -16 -23 -74 -40 -129 -17 -55
-33 -106 -36 -112 -2 -7 -12 -13 -23 -13 -11 0 -22 -4 -25 -9 -11 -17 23 -32
66 -29 41 3 43 4 40 31 -2 16 7 61 19 100 12 40 22 76 23 82 0 5 5 14 11 21 7
8 21 -15 48 -75 71 -160 77 -169 111 -152 13 8 27 21 30 30 4 9 15 32 26 51
10 19 29 64 41 100 35 104 41 98 37 -35 -3 -66 -6 -127 -9 -135 -3 -12 6 -15
46 -15 28 -1 61 3 75 9 l25 9 -30 6 -30 6 2 144 c1 109 4 146 14 152 11 7 11
9 -1 10 -8 1 -19 1 -24 0 -4 -1 -13 2 -20 6 -6 4 -32 7 -58 5z M4363 433 c-18
-6 -16 -23 2 -23 15 0 41 -38 37 -54 -2 -5 -5 -60 -7 -123 -2 -62 -7 -118 -10
-123 -14 -23 -54 -10 -74 24 -28 45 -106 204 -116 236 -14 46 -34 60 -90 60
-58 0 -72 -7 -48 -25 14 -10 15 -18 4 -59 -6 -26 -16 -82 -21 -123 -6 -42 -17
-89 -25 -106 -8 -16 -15 -31 -15 -33 0 -5 74 -2 84 4 4 2 3 8 -4 12 -9 5 -10
24 -4 71 l9 64 56 3 56 3 29 -56 c15 -31 27 -67 26 -80 -1 -19 5 -24 34 -30
37 -6 191 3 209 13 5 4 -1 9 -15 12 -24 6 -25 9 -28 98 -2 51 0 92 5 92 4 0
28 -33 53 -73 66 -107 86 -127 130 -127 59 0 63 12 55 162 -7 132 -6 133 16
143 46 20 34 35 -30 35 -61 0 -84 -12 -56 -28 13 -7 17 -31 20 -112 l4 -103
-29 34 c-16 19 -37 50 -47 69 -10 19 -33 57 -52 85 -19 27 -36 51 -37 53 -3 5
-109 10 -121 5z m-196 -127 c17 -38 11 -44 -34 -37 -41 7 -41 6 -29 71 12 64
17 68 35 29 8 -19 20 -47 28 -63z M4783 130 c-29 -12 -30 -46 -3 -60 16 -8 26
-7 45 7 27 20 31 33 13 51 -14 14 -24 14 -55 2z"/>
</g>
</svg>
