<?xml version="1.0" standalone="no"?>
<!DOCTYPE svg PUBLIC "-//W3C//DTD SVG 20010904//EN"
 "http://www.w3.org/TR/2001/REC-SVG-20010904/DTD/svg10.dtd">
<svg version="1.0" xmlns="http://www.w3.org/2000/svg"
 width="500.000000pt" height="878.000000pt" viewBox="0 0 500.000000 878.000000"
 preserveAspectRatio="xMidYMid meet">
<metadata>
Created by potrace 1.16, written by Peter Selinger 2001-2019
</metadata>
<g transform="translate(0.000000,878.000000) scale(0.100000,-0.100000)"
fill="#000000" stroke="none">
<path d="M0 8630 c0 -83 2 -150 3 -150 2 0 46 6 98 14 127 19 186 45 204 91
20 47 56 69 101 62 43 -7 64 -23 64 -48 0 -29 -20 -33 -45 -9 -13 13 -31 20
-39 17 -57 -22 -68 -203 -20 -323 49 -123 110 -212 183 -266 74 -55 167 -107
214 -119 44 -11 52 -10 87 10 54 30 115 28 136 -5 24 -35 4 -54 -25 -25 -26
26 -45 27 -71 1 -43 -43 -20 -172 61 -358 33 -73 59 -137 59 -143 0 -5 -11 -9
-24 -9 -25 0 -116 -56 -154 -96 -26 -27 -41 -23 -78 18 -30 32 -39 52 -63 139
l-20 77 38 73 c21 41 41 85 44 99 6 21 9 22 17 10 17 -26 11 -58 -26 -130 -36
-72 -37 -90 -4 -90 13 0 27 14 40 40 11 22 24 40 29 40 4 0 14 -19 20 -42 16
-54 60 -148 69 -148 8 0 32 71 32 93 0 7 -13 31 -28 53 -46 64 -74 147 -76
224 -2 38 -8 76 -15 84 -7 8 -31 18 -54 21 -23 4 -52 16 -64 27 -17 16 -30 19
-54 14 -27 -5 -41 1 -100 45 -37 28 -79 65 -92 83 -28 37 -87 157 -87 177 0 8
-9 20 -20 27 -11 7 -20 17 -20 23 0 6 -11 38 -24 72 -13 34 -27 74 -30 90 -8
33 -30 35 -106 7 -30 -11 -78 -20 -107 -20 -47 0 -53 -2 -53 -21 0 -21 3 -22
99 -17 l100 5 11 -31 c17 -47 69 -151 123 -246 67 -119 179 -221 263 -241 78
-17 119 -41 122 -69 4 -24 -65 -180 -80 -180 -4 0 -14 16 -23 34 -22 46 -111
128 -133 124 -13 -3 -17 -14 -16 -51 0 -26 -2 -47 -4 -47 -3 0 -22 16 -43 35
-49 44 -71 45 -92 1 -15 -33 -15 -38 5 -93 25 -70 58 -187 65 -228 3 -20 -11
-2 -42 55 -25 47 -59 97 -75 113 -52 47 -100 29 -100 -36 0 -14 -7 -30 -15
-37 -22 -18 -18 -65 9 -108 13 -20 41 -73 63 -117 81 -166 180 -320 222 -348
59 -39 89 -84 97 -147 4 -30 10 -62 15 -71 4 -8 10 -76 13 -150 3 -73 8 -166
12 -204 7 -80 5 -84 -66 -104 -75 -22 -206 -92 -285 -154 -48 -37 -104 -102
-105 -121 0 -5 -9 -29 -21 -52 -30 -63 -37 -149 -14 -175 14 -14 26 -18 46
-14 33 7 43 -5 25 -31 -12 -16 -17 -17 -41 -6 -18 9 -24 9 -19 1 17 -28 -23 0
-43 30 -20 29 -22 45 -21 134 0 87 -3 112 -25 167 l-26 65 0 -2637 c-1 -2104
2 -2638 12 -2639 16 -1 55 1 147 10 76 8 125 1 101 -13 -17 -11 -220 -28 -243
-20 -13 4 -18 0 -18 -13 0 -16 10 -18 73 -20 135 -3 162 -2 165 8 5 12 49 12
57 -1 4 -6 14 -4 28 5 27 17 143 23 159 7 17 -17 6 -23 -56 -29 -31 -3 -59
-10 -62 -14 -9 -15 -184 -11 -184 4 0 9 -2 9 -8 -1 -5 -7 -41 -15 -90 -19
l-82 -6 0 -42 0 -42 208 -6 c114 -4 320 -7 457 -7 138 0 552 -2 920 -5 369 -3
1288 -7 2043 -10 l1372 -5 0 1079 0 1080 -32 -10 c-35 -9 -78 -51 -78 -74 0
-22 -30 -54 -78 -82 -36 -21 -58 -26 -140 -29 -65 -3 -112 1 -142 10 -25 8
-66 17 -91 21 -37 5 -54 14 -94 55 -42 43 -47 52 -42 79 4 17 1 43 -5 59 -6
15 -12 43 -14 62 -2 19 -6 62 -10 96 -4 39 -2 69 5 83 13 24 11 25 -22 10 -39
-18 -50 -44 -32 -79 9 -18 15 -56 15 -104 0 -68 2 -76 25 -94 14 -11 25 -23
25 -26 0 -12 -69 -6 -77 6 -14 24 -61 173 -56 181 6 11 -7 47 -18 47 -14 0 2
-149 21 -200 10 -25 18 -56 18 -70 0 -14 7 -51 17 -82 16 -50 17 -73 7 -229
-6 -96 -17 -194 -25 -219 -8 -25 -24 -90 -36 -145 -12 -55 -29 -121 -37 -146
-8 -26 -14 -71 -14 -100 0 -66 -11 -89 -34 -70 -14 12 -18 9 -30 -20 -30 -76
-28 -123 4 -64 24 46 33 16 28 -99 -4 -80 -12 -128 -28 -171 -20 -56 -49 -161
-80 -297 -22 -97 -14 -111 144 -255 50 -45 54 -54 31 -73 -12 -10 -20 -8 -41
9 -15 12 -33 21 -40 21 -23 0 -16 -26 11 -38 30 -14 33 -32 5 -32 -27 0 -70
22 -93 48 -10 11 -33 26 -50 32 -98 37 -118 60 -98 114 6 15 8 38 5 51 -3 13
-1 39 5 57 28 87 28 238 1 238 -6 0 -10 -3 -10 -7 -1 -5 -2 -46 -4 -93 -3 -81
-17 -172 -37 -251 -5 -22 -22 -47 -42 -62 -17 -14 -50 -41 -72 -61 -34 -30
-42 -34 -53 -22 -12 12 -11 19 9 45 18 24 20 34 11 43 -9 9 -18 6 -40 -15 -15
-15 -31 -27 -34 -27 -3 0 -11 14 -17 31 -10 29 -8 34 27 66 20 19 61 50 90 69
75 50 83 65 73 145 -5 37 -22 109 -39 160 -17 52 -35 114 -42 139 -6 25 -16
63 -22 85 -7 22 -12 101 -12 176 -1 94 -5 141 -14 151 -7 8 -17 42 -22 74 -6
33 -17 88 -24 124 -8 36 -20 92 -26 125 -7 33 -21 96 -32 140 -16 69 -18 104
-14 250 3 94 6 195 7 225 2 94 -8 336 -16 359 -10 31 -29 21 -33 -18 -2 -20
-8 -31 -15 -28 -13 5 -13 6 -2 50 10 40 -12 34 -29 -7 -19 -44 -66 -75 -206
-131 -36 -15 -69 -31 -74 -36 -6 -5 -20 -9 -33 -9 -13 0 -40 -7 -61 -16 -20
-9 -48 -17 -62 -18 -21 -1 -26 -8 -34 -41 -13 -63 -37 -114 -56 -120 -16 -5
-60 -7 -105 -3 -11 0 -23 6 -27 12 -4 6 -17 11 -29 11 -13 0 -25 9 -30 23 -6
16 -5 22 6 22 7 0 17 -5 20 -10 5 -8 11 -8 20 0 11 9 18 5 31 -15 13 -20 19
-23 25 -13 14 22 11 27 -32 49 l-41 21 26 27 c32 34 33 43 2 35 -40 -10 -51 5
-24 33 33 35 71 53 115 53 44 0 92 27 157 88 72 67 127 106 179 126 55 21 54
17 62 185 3 68 8 128 11 132 8 14 15 87 15 164 -1 90 12 134 49 170 25 24 40
29 104 34 89 8 96 6 96 -24 0 -12 6 -28 14 -34 10 -8 13 -39 11 -128 -3 -108
-5 -117 -24 -125 -23 -8 -28 -24 -9 -30 10 -4 8 -14 -6 -40 -17 -31 -18 -40
-7 -67 13 -31 8 -81 -8 -81 -5 0 -8 6 -8 13 4 36 -16 137 -27 137 -9 0 -11
-26 -8 -95 4 -82 1 -102 -18 -146 -12 -28 -19 -56 -17 -63 6 -16 80 -38 100
-30 20 7 47 64 47 98 0 14 -5 37 -12 52 -11 24 -10 29 18 53 31 27 41 45 69
123 20 58 48 94 87 114 23 12 32 13 44 3 12 -10 16 -8 21 9 3 13 28 35 59 53
46 26 54 35 54 59 0 37 39 98 67 106 12 3 24 15 27 27 10 39 49 76 86 81 95
13 256 -145 361 -354 7 -14 38 -56 68 -95 55 -69 78 -112 88 -168 7 -34 -33
-81 -112 -132 -58 -38 -94 -74 -61 -62 14 6 27 0 48 -24 24 -26 34 -30 59 -25
44 9 99 56 99 86 1 14 7 36 15 50 17 29 19 116 4 179 -9 41 -8 46 18 73 15 15
30 25 34 21 11 -11 15 -126 5 -141 -5 -9 -1 -24 13 -43 25 -34 26 -58 4 -97
-20 -35 -12 -59 22 -68 49 -12 71 3 110 73 l36 66 -17 64 c-17 63 -17 65 3 84
l20 21 10 -113 c9 -98 13 -114 33 -129 21 -16 22 -23 18 -89 -4 -54 -2 -71 7
-67 24 9 38 -13 42 -65 2 -29 6 -55 9 -58 2 -2 4 819 4 1825 l-1 1829 -28 -34
c-32 -39 -77 -170 -87 -256 -4 -33 -8 -55 -9 -50 -14 54 -44 159 -71 245 -18
58 -53 184 -78 280 -25 96 -64 225 -87 285 -23 61 -45 124 -49 140 -5 17 -15
56 -24 88 -21 75 -20 85 5 106 21 17 21 21 10 87 -7 38 -23 101 -36 139 -13
39 -29 94 -35 123 -12 53 -35 77 -59 62 -15 -9 -5 -68 30 -175 20 -62 24 -94
12 -81 -18 17 -76 177 -82 225 -9 63 -30 85 -92 95 -31 5 -46 3 -57 -8 -13
-12 -11 -18 11 -40 14 -14 33 -26 42 -26 11 0 15 -11 15 -40 0 -23 9 -58 20
-80 11 -22 20 -45 20 -52 0 -7 7 -26 16 -43 20 -38 108 -303 124 -375 7 -30
26 -86 42 -125 73 -172 70 -163 127 -380 17 -66 36 -131 42 -145 6 -14 19 -54
29 -90 10 -36 27 -100 39 -142 11 -43 21 -86 21 -97 0 -10 7 -24 15 -31 13
-10 19 -10 33 4 17 15 19 14 34 -17 11 -23 12 -38 5 -54 -8 -18 -5 -31 18 -65
24 -35 28 -52 27 -98 -1 -30 -4 -64 -6 -75 -4 -26 -71 -73 -115 -80 l-34 -6
44 33 c25 19 54 53 67 80 22 44 23 48 8 103 -9 37 -28 73 -53 103 -37 43 -138
113 -185 127 -13 4 -27 11 -33 15 -24 19 -188 50 -265 50 -74 0 -107 -6 -242
-41 -21 -5 -67 -32 -102 -58 -73 -56 -73 -56 -115 29 -37 73 -99 160 -176 245
-99 110 -199 263 -184 281 6 8 20 14 30 14 30 0 169 49 229 81 89 47 149 105
180 173 15 34 47 79 70 101 51 49 87 125 60 125 -5 0 -10 -11 -10 -25 0 -18
-9 -29 -38 -44 -55 -28 -96 -74 -109 -124 -16 -58 -57 -97 -162 -152 -47 -25
-107 -60 -132 -79 -71 -50 -151 -54 -200 -10 -26 23 -24 30 14 44 30 11 51 20
117 49 90 39 231 140 350 251 36 33 127 171 179 270 48 92 82 222 83 321 3
144 -38 228 -97 201 -29 -13 -31 -28 -8 -54 9 -10 11 -18 5 -18 -6 0 -19 14
-27 31 -15 28 -15 33 0 55 23 36 74 33 120 -8 l37 -32 76 23 c180 52 282 124
379 266 124 183 156 326 82 365 -25 14 -49 -2 -49 -33 0 -19 -1 -19 -19 -3
-44 40 -25 96 33 96 31 0 104 -42 121 -70 4 -7 31 -10 71 -8 l64 3 0 132 0
133 -2500 0 -2500 0 0 -150z m2752 119 c4 -30 0 -34 -37 -39 -39 -5 -41 -7
-82 -90 -27 -53 -39 -88 -33 -95 5 -6 35 -12 66 -13 52 -1 89 -16 80 -31 -2
-3 -145 -6 -317 -6 -226 0 -313 3 -316 12 -2 6 7 15 20 20 27 9 97 94 97 117
0 24 -78 86 -108 86 -34 0 -53 12 -44 27 9 14 84 17 445 20 136 1 228 -2 229
-8z m-655 -281 c37 -23 82 -54 99 -68 17 -15 80 -51 139 -80 l108 -53 111 56
c61 31 148 76 192 99 148 78 156 80 136 25 -16 -45 -15 -67 4 -67 11 0 14 -8
12 -27 -6 -47 21 -38 34 12 13 47 18 51 77 70 21 6 23 5 19 -18 -11 -58 33
-59 52 -1 9 26 17 34 36 34 23 0 24 -3 18 -35 -8 -44 14 -48 37 -6 14 24 26
30 69 36 60 8 70 3 45 -25 -14 -15 -16 -23 -7 -32 8 -8 19 -4 42 16 31 25 62
32 95 20 14 -6 14 -8 0 -30 -26 -40 -7 -46 35 -13 39 32 62 34 100 10 12 -9
10 -15 -14 -40 -30 -31 -28 -64 2 -39 10 7 32 21 50 31 l32 18 55 -56 c55 -56
61 -75 26 -75 -27 0 -47 -28 -33 -42 9 -9 15 -9 24 0 7 7 24 12 40 12 20 0 31
-8 43 -30 20 -39 20 -40 -18 -40 -18 0 -48 -11 -69 -25 -44 -30 -50 -30 -72
-6 -13 14 -16 28 -11 55 6 29 4 36 -9 36 -9 0 -19 -7 -22 -15 -9 -22 -31 -18
-37 6 -3 12 -4 36 -1 53 l6 31 -31 -32 c-35 -38 -42 -39 -77 -16 -22 14 -27
14 -34 3 -7 -12 -14 -12 -44 2 -32 16 -35 21 -38 65 -2 35 -7 48 -18 48 -11 0
-15 -12 -15 -48 l0 -47 -48 0 c-52 0 -163 -27 -187 -45 -8 -6 -31 -19 -51 -28
-20 -9 -42 -23 -49 -32 -16 -19 -40 -19 -40 0 0 8 -7 15 -15 15 -9 0 -27 7
-40 16 -23 15 -25 15 -31 -1 -11 -28 10 -50 50 -53 20 -2 36 -5 36 -7 0 -2
-10 -21 -22 -44 -17 -33 -19 -43 -8 -56 7 -8 17 -15 22 -15 6 0 28 -14 50 -32
31 -24 37 -33 26 -39 -8 -5 -74 -9 -146 -10 -73 0 -134 -5 -137 -10 -8 -13 66
-29 114 -25 47 4 60 -9 41 -43 -22 -41 -53 -53 -106 -40 -27 6 -64 20 -82 30
-37 21 -52 18 -52 -12 0 -14 13 -26 45 -40 40 -18 43 -22 33 -39 -10 -16 -10
-23 3 -36 28 -27 160 -47 173 -25 3 4 18 11 33 14 16 3 48 25 73 49 48 47 172
113 231 123 48 9 139 61 139 80 0 8 5 15 10 15 6 0 10 -6 10 -14 0 -27 19 -27
47 -2 15 14 29 23 33 20 3 -3 -3 -11 -13 -18 -26 -20 -20 -31 7 -13 21 14 25
15 30 1 4 -11 -8 -21 -42 -37 -47 -22 -78 -42 -132 -85 -16 -13 -34 -20 -40
-17 -6 4 -19 0 -29 -9 -22 -20 -21 -73 0 -87 12 -8 11 -12 -5 -24 -11 -8 -27
-15 -37 -15 -9 0 -31 -10 -50 -23 -53 -36 -69 -40 -69 -17 0 23 1 23 -36 10
-42 -15 -73 -66 -67 -112 4 -31 1 -41 -21 -61 -19 -18 -26 -34 -26 -63 0 -25
-9 -52 -25 -76 -29 -43 -30 -48 -11 -48 30 0 28 -23 -3 -47 -33 -26 -41 -53
-16 -53 8 0 31 15 51 33 31 26 35 28 25 9 -7 -13 -34 -39 -61 -58 -26 -19 -51
-41 -54 -49 -3 -8 -28 -31 -56 -51 -27 -20 -50 -40 -50 -45 0 -22 49 -5 90 32
25 22 57 47 72 56 14 9 36 34 48 55 15 27 26 36 32 30 7 -7 -6 -29 -41 -68
-29 -34 -51 -68 -51 -81 0 -16 -12 -29 -40 -45 -45 -26 -49 -34 -20 -43 27 -9
25 -19 -6 -35 -22 -12 -24 -16 -10 -26 22 -15 20 -38 -6 -85 -22 -37 -22 -41
-5 -50 14 -8 17 -24 17 -84 0 -76 -9 -96 -30 -70 -12 14 -11 31 5 83 10 32
-18 29 -45 -5 -28 -35 -22 -95 11 -124 31 -27 54 -24 79 11 27 38 44 39 35 3
-9 -37 -33 -63 -73 -80 -28 -11 -33 -18 -28 -36 27 -109 28 -124 7 -165 -19
-37 -19 -41 -3 -47 12 -5 30 8 64 47 l48 53 -6 76 c-5 65 -3 88 19 156 15 44
29 100 32 124 13 87 34 117 76 104 9 -3 20 -1 23 4 4 6 13 8 21 5 10 -4 18 3
25 20 11 30 35 36 27 6 -8 -32 11 -34 38 -3 17 19 24 23 25 12 0 -8 -5 -20
-12 -27 -9 -9 -9 -12 3 -12 8 0 20 5 27 12 9 9 12 8 12 -5 0 -25 21 -21 47 11
13 15 20 19 17 10 -7 -20 20 -26 31 -8 11 17 45 12 38 -6 -4 -12 0 -14 21 -8
22 5 26 3 26 -16 0 -16 4 -20 15 -16 8 3 15 1 15 -5 0 -5 8 -13 17 -16 18 -7
100 -90 146 -148 16 -19 35 -55 42 -80 27 -86 68 -155 95 -155 5 0 14 -9 20
-20 6 -11 19 -20 29 -20 16 0 78 -64 91 -94 3 -7 26 -44 53 -83 30 -45 45 -77
41 -87 -4 -12 8 -29 40 -58 25 -23 46 -45 46 -50 0 -5 11 -26 25 -48 14 -22
25 -47 25 -55 0 -26 29 -73 48 -80 11 -3 36 -38 57 -78 21 -39 48 -82 61 -94
13 -12 24 -34 24 -48 0 -14 6 -25 13 -25 20 -1 49 -48 42 -70 -4 -11 -2 -20 4
-20 6 0 11 -7 11 -15 0 -22 39 -95 50 -95 6 0 10 -6 10 -12 0 -7 12 -35 25
-63 14 -27 25 -60 25 -71 0 -12 7 -27 16 -35 10 -8 14 -22 10 -40 -3 -17 0
-29 7 -32 7 -3 12 -24 12 -53 0 -27 4 -52 9 -56 6 -3 10 -21 11 -40 0 -18 4
-38 8 -45 4 -6 4 -18 1 -27 -4 -9 -1 -16 6 -16 8 0 11 -10 7 -30 -4 -16 -2
-32 3 -35 6 -4 6 -14 -1 -27 -9 -16 -8 -23 2 -29 11 -8 11 -12 -3 -23 -23 -17
-23 -26 2 -26 21 0 27 -24 9 -35 -6 -5 -4 -11 7 -19 11 -8 15 -21 12 -34 -3
-12 -1 -23 6 -25 8 -3 7 -9 -3 -21 -13 -15 -13 -19 0 -27 12 -8 11 -11 -3 -20
-10 -5 -18 -19 -18 -31 0 -16 5 -19 25 -16 34 7 41 -7 13 -26 -19 -14 -20 -16
-5 -16 10 0 15 -5 12 -10 -3 -6 -3 -19 0 -30 5 -14 15 -19 38 -18 43 1 77 -10
77 -27 0 -9 6 -12 15 -9 21 8 19 -6 -5 -31 l-20 -22 23 -26 c12 -15 31 -27 41
-27 18 0 18 -1 1 -20 -22 -24 -43 -25 -73 -4 -18 12 -26 13 -37 4 -24 -20 -17
-40 15 -52 17 -5 30 -15 29 -22 -4 -29 3 -44 21 -49 28 -7 44 17 37 57 -4 23
-1 36 7 39 21 8 17 -75 -4 -90 -17 -12 -17 -61 0 -73 4 -3 10 -17 14 -32 10
-42 -11 -35 -63 20 -68 70 -118 100 -179 108 -48 6 -52 5 -52 -15 0 -15 -6
-21 -24 -21 -21 0 -24 -5 -24 -40 -1 -53 -9 -65 -32 -45 -37 33 -44 70 -26
133 20 72 23 162 6 201 -9 23 -9 34 1 53 19 34 21 58 4 64 -11 4 -12 11 -5 24
11 21 4 31 -18 23 -14 -5 -15 -3 -5 8 18 19 16 29 -6 29 -25 0 -37 18 -22 33
17 17 13 27 -9 27 -24 0 -27 25 -4 34 22 8 6 28 -17 21 -20 -7 -28 18 -9 30
19 11 -1 25 -26 19 -23 -6 -24 -4 -18 21 6 24 4 26 -13 21 -22 -7 -41 18 -23
29 18 11 10 27 -10 22 -22 -6 -37 8 -20 18 17 11 12 38 -6 31 -13 -5 -14 -4
-6 7 15 17 6 27 -25 27 -20 0 -22 4 -17 24 5 21 3 24 -13 20 -11 -3 -25 2 -33
10 -11 14 -10 20 5 36 16 18 16 20 2 20 -9 0 -19 -5 -23 -11 -4 -8 -9 -7 -15
2 -6 9 -3 18 8 27 15 11 15 12 -4 12 -21 0 -63 46 -63 70 0 6 -7 25 -16 43
-32 60 -74 246 -74 323 0 64 -3 75 -22 88 -12 9 -30 16 -40 16 -20 0 -23 13
-8 41 14 26 2 24 -21 -3 l-18 -23 -1 23 c0 13 5 32 10 43 8 15 7 19 -3 19 -17
0 -33 -18 -40 -45 -3 -12 -5 -6 -6 15 0 20 6 45 14 56 13 20 11 34 -6 34 -4 0
-17 -19 -29 -42 l-22 -43 6 35 c3 19 9 49 12 65 6 29 6 29 -12 12 -11 -10 -24
-32 -31 -50 l-11 -32 -1 38 c-1 21 5 53 13 72 8 18 12 36 8 39 -8 9 -22 7 -22
-3 0 -5 -10 -30 -21 -56 -18 -42 -23 -46 -31 -30 -7 12 -7 35 2 72 6 30 9 57
6 61 -9 9 -35 -30 -36 -53 0 -28 -16 -49 -29 -41 -18 11 -13 62 9 100 14 22
17 37 10 41 -9 6 -50 -72 -50 -96 0 -5 -5 -9 -10 -9 -11 0 -5 64 11 114 12 37
11 46 -1 46 -10 0 -37 -55 -51 -105 -10 -37 -5 72 6 124 6 26 5 33 -6 29 -12
-4 -30 -49 -43 -111 -4 -15 -11 -25 -16 -22 -13 8 -13 76 1 131 15 57 4 67
-28 29 l-24 -30 3 60 c3 52 1 60 -14 59 -10 -1 -18 2 -18 7 0 5 -9 9 -20 9
-13 0 -20 7 -20 18 0 25 40 102 73 141 29 35 62 133 53 158 -11 28 -50 -8 -62
-58 -7 -31 -19 -49 -42 -63 -36 -24 -72 -83 -78 -129 -2 -17 -7 -52 -10 -77
-4 -25 -7 -57 -8 -72 -1 -15 -7 -33 -13 -40 -7 -6 -13 -18 -13 -26 0 -10 -4
-12 -12 -4 -15 11 -68 13 -83 2 -19 -13 -221 -6 -238 9 -12 9 -21 10 -29 4
-24 -19 -76 -23 -82 -7 -4 10 -13 13 -33 8 -34 -8 -29 -5 -37 -31 -6 -18 -1
-23 29 -33 26 -9 44 -9 69 0 31 10 74 9 191 -5 79 -9 158 -17 186 -19 40 -3
56 -20 39 -41 -11 -14 -11 -20 -1 -37 11 -17 10 -22 -1 -29 -10 -7 -7 -14 15
-34 30 -29 29 -46 -3 -38 -30 8 -24 -10 12 -37 31 -23 31 -23 9 -32 -19 -7
-21 -11 -11 -23 9 -10 9 -15 1 -15 -18 0 -13 -20 12 -42 15 -13 18 -21 10 -24
-21 -9 -15 -30 12 -44 32 -17 34 -50 3 -50 l-21 0 21 -23 c12 -13 19 -26 16
-30 -4 -4 -7 -25 -8 -48 -1 -41 -8 -50 -49 -63 -16 -5 -17 -13 -11 -51 4 -30
3 -45 -5 -45 -6 0 -11 5 -11 10 0 34 -29 -11 -53 -82 -7 -20 -27 -25 -27 -7 0
6 -10 9 -22 7 -20 -3 -23 -8 -20 -41 3 -35 2 -37 -21 -31 -14 3 -28 1 -32 -6
-4 -6 -15 -8 -26 -5 -12 4 -21 1 -25 -9 -3 -8 -12 -12 -20 -9 -9 3 -14 -2 -14
-15 0 -24 -25 -48 -35 -32 -3 5 -3 15 0 20 10 16 -14 40 -40 40 -35 0 -37 -25
-4 -49 16 -12 29 -28 29 -36 0 -18 -2 -18 -44 -1 -30 13 -35 12 -50 -5 -17
-21 -36 -17 -36 6 0 7 -8 16 -18 19 -12 4 -18 16 -17 34 0 32 -34 43 -55 17
-11 -13 -10 -18 6 -30 16 -10 19 -22 16 -49 -2 -20 -8 -36 -13 -36 -15 0 -10
-57 6 -64 31 -11 4 -35 -38 -33 -39 2 -43 0 -52 -30 -10 -37 -22 -41 -40 -16
-12 16 -15 14 -29 -17 l-16 -35 5 63 c5 70 -3 80 -48 63 -17 -7 -27 -7 -27 -1
0 6 -11 10 -24 10 -28 0 -37 10 -45 54 -6 26 -12 32 -39 34 -26 3 -34 -1 -43
-22 -15 -32 -30 -24 -23 12 6 35 -10 62 -28 44 -19 -19 -29 -14 -22 13 5 18 2
25 -9 25 -8 0 -17 -6 -20 -12 -3 -9 -9 -7 -19 6 -9 12 -20 16 -28 11 -9 -5
-10 -2 -6 13 9 26 -8 36 -35 22 -14 -8 -19 -18 -16 -31 8 -29 -3 -24 -61 30
-45 42 -50 50 -37 61 34 28 8 61 -28 37 -21 -14 -25 -12 -62 21 -38 35 -39 36
-17 50 21 14 29 42 16 55 -13 13 -44 -14 -44 -38 0 -30 -10 -31 -38 -6 -28 23
-28 34 1 46 14 7 22 19 22 35 0 23 -3 25 -37 22 -32 -3 -38 -1 -38 16 0 11 6
22 13 25 9 3 9 8 -2 21 -10 12 -11 20 -3 28 8 8 7 15 -6 25 -12 11 -14 16 -4
19 17 8 15 34 -3 34 -8 0 -15 4 -15 9 0 5 7 11 15 15 20 7 19 26 -1 26 -15 0
-15 2 0 25 15 23 15 25 -1 25 -14 0 -13 4 7 25 13 14 18 25 12 25 -18 0 -14
28 5 38 15 9 15 11 -1 27 -17 17 -16 19 8 42 30 27 33 35 11 27 -8 -4 -15 -2
-15 4 0 5 9 12 21 15 15 4 19 11 14 25 -4 15 0 22 15 27 11 3 20 11 20 16 0 5
8 9 18 9 10 0 23 5 30 12 9 9 77 13 234 15 219 2 257 8 230 35 -18 18 -102 27
-133 14 -11 -5 -18 -1 -22 13 -7 27 -33 27 -48 -1 -10 -19 -12 -20 -21 -4 -7
13 -13 15 -23 6 -8 -7 -32 -10 -54 -7 -22 2 -44 0 -49 -5 -11 -11 -64 1 -56
13 3 5 0 9 -5 9 -6 0 -11 -8 -11 -17 0 -14 -2 -15 -9 -5 -7 12 -12 12 -30 0
-18 -11 -23 -11 -32 2 -8 12 -12 12 -16 2 -4 -10 -9 -7 -20 8 -11 16 -23 21
-44 18 -23 -4 -29 -1 -29 13 0 31 -12 50 -38 60 -23 9 -24 13 -19 54 4 27 3
45 -3 45 -13 0 -13 53 0 66 8 8 6 15 -5 24 -17 14 -19 43 -5 70 9 16 8 18 -6
13 -15 -5 -16 -2 -11 25 5 25 3 32 -9 32 -15 0 -15 3 1 26 13 20 14 28 5 40
-10 11 -6 21 19 49 35 40 37 48 17 64 -11 9 -15 9 -20 -1 -3 -7 -4 -3 -2 9 2
13 0 26 -5 29 -17 10 -36 -15 -32 -40 3 -13 0 -27 -6 -30 -6 -4 -11 0 -11 8 0
25 -36 18 -55 -10 -9 -14 -19 -50 -22 -80 -5 -48 -3 -57 18 -78 33 -33 59
-159 63 -303 2 -63 -1 -83 -11 -88 -9 -3 -12 -12 -8 -24 4 -13 -1 -24 -17 -35
-22 -15 -22 -17 -5 -45 23 -40 21 -44 -9 -24 l-27 17 13 -24 c7 -14 19 -33 27
-42 9 -10 13 -25 9 -34 -6 -15 -9 -14 -31 6 -27 26 -34 15 -10 -16 24 -31 18
-51 -7 -24 -30 32 -37 7 -9 -31 11 -15 21 -33 21 -39 0 -20 -28 -10 -46 17 -9
15 -19 22 -21 16 -3 -7 6 -26 18 -42 26 -35 19 -53 -11 -26 -18 16 -25 14 -21
-7 0 -5 -3 -8 -9 -8 -17 0 -11 -20 15 -48 14 -15 25 -30 25 -34 0 -15 -18 -17
-30 -3 -7 8 -19 15 -27 15 -10 0 -7 -10 12 -32 27 -32 19 -52 -11 -28 -8 7
-17 10 -21 7 -3 -4 5 -16 18 -27 l24 -20 -27 10 c-22 7 -28 6 -28 -4 0 -8 7
-17 16 -20 22 -8 8 -25 -16 -19 -12 3 -22 0 -25 -9 -4 -11 -19 -13 -59 -10
-34 3 -72 -2 -102 -12 -55 -17 -116 -22 -155 -12 -17 5 -30 3 -34 -4 -6 -9 -9
-9 -15 1 -7 10 -12 10 -26 -2 -16 -12 -17 -12 -11 4 9 23 -2 22 -29 -4 -32
-30 -49 -15 -23 20 12 16 17 34 13 44 -6 15 -8 15 -34 -3 -27 -19 -60 -27 -60
-14 0 3 12 20 26 37 18 21 22 32 13 37 -6 4 -8 13 -5 19 11 16 -5 13 -25 -5
-20 -18 -49 -12 -49 10 0 8 9 17 19 21 11 3 25 13 33 22 11 14 10 15 -12 8
-22 -7 -23 -6 -11 9 11 14 11 16 -2 16 -8 0 -20 -7 -27 -15 -16 -19 -29 -19
-37 1 -4 11 2 23 17 34 l22 17 -31 -5 c-42 -6 -42 20 2 39 23 10 31 19 29 34
-6 32 -19 38 -43 21 -37 -26 -47 -18 -14 10 25 23 27 26 9 22 -31 -8 -51 6
-36 25 10 12 9 16 -3 21 -23 9 -18 35 10 46 14 5 25 12 25 15 0 4 -4 4 -9 1
-14 -9 -41 4 -41 20 0 8 5 14 11 14 8 0 8 5 -1 15 -10 12 -8 16 14 25 34 13
35 34 1 26 -36 -9 -31 7 6 21 33 13 31 39 -2 30 -11 -3 -19 -1 -19 4 0 5 5 9
10 9 6 0 10 5 10 10 0 6 -11 10 -25 10 -15 0 -25 6 -25 14 0 8 11 17 25 20 14
4 25 11 25 17 0 6 -9 9 -20 6 -30 -8 -33 8 -5 21 30 14 34 37 5 29 -11 -3 -20
-2 -20 3 0 4 9 10 20 13 11 3 20 11 20 17 0 8 -9 10 -24 6 -31 -8 -40 4 -16
21 26 18 26 33 0 33 -11 0 -20 5 -20 10 0 6 4 10 9 10 5 0 16 7 25 15 11 12
13 22 6 41 -5 13 -9 30 -7 37 1 7 -6 11 -15 9 -20 -3 -25 14 -5 21 9 3 9 7 0
17 -6 7 -9 19 -6 26 3 8 -1 14 -11 14 -28 0 -17 18 19 30 38 12 42 19 23 38
-8 8 -9 15 -1 23 15 15 4 62 -13 55 -8 -3 -21 -9 -29 -12 -8 -3 -15 -2 -15 4
0 5 11 13 25 16 14 4 25 13 25 21 0 18 -5 19 -30 3 -10 -7 -22 -10 -25 -7 -10
11 6 37 26 42 15 4 19 14 19 50 l0 45 -35 -10 c-19 -6 -36 -18 -38 -27 -3 -9
-5 -4 -6 12 -1 23 4 28 29 33 30 7 34 13 45 77 4 25 2 37 -5 37 -7 0 0 14 14
31 29 34 33 61 13 77 -10 9 -19 7 -35 -4 -12 -8 -27 -12 -32 -9 -5 3 -21 -6
-35 -21 -14 -15 -28 -24 -32 -20 -4 3 -1 12 5 18 7 7 12 16 12 20 0 14 -50 8
-78 -9 -27 -17 -27 -17 -9 3 9 11 17 24 17 28 0 10 -68 76 -79 76 -5 0 -12 11
-15 25 -4 14 -11 25 -16 25 -6 0 -10 7 -10 16 0 10 -6 14 -14 11 -10 -4 -13
-1 -9 9 3 8 -1 14 -11 14 -9 0 -13 6 -10 14 3 8 -3 16 -15 19 -12 3 -32 32
-55 78 -19 41 -49 98 -66 127 -34 57 -36 91 -4 54 10 -13 39 -62 64 -110 34
-65 51 -88 68 -90 12 -2 22 0 22 5 0 11 -58 124 -73 143 -20 24 -35 62 -41
103 -10 73 16 41 109 -137 43 -83 56 -89 100 -46 19 19 35 38 35 44 0 5 -12
25 -27 44 -15 20 -28 45 -29 56 -7 53 -13 75 -28 98 -28 42 -46 116 -31 128 9
7 17 0 31 -27 10 -21 26 -44 35 -53 9 -8 29 -49 45 -90 29 -80 80 -143 91
-114 3 8 -1 20 -10 27 -14 11 -21 37 -32 107 -2 14 -4 25 -5 25 -1 0 -4 13 -6
29 -2 16 -11 51 -20 77 -18 50 -16 66 10 56 29 -11 138 -257 150 -340 4 -25
13 -48 21 -51 20 -7 19 -26 -1 -26 -8 0 -28 -13 -44 -29 -16 -16 -37 -32 -47
-36 -13 -5 -14 -9 -5 -12 10 -4 10 -8 1 -19 -6 -8 -17 -14 -23 -14 -6 0 -17
-9 -24 -20 -7 -11 -18 -20 -26 -20 -7 0 -21 9 -31 20 -10 11 -24 20 -32 20
-22 0 -27 -29 -9 -49 12 -13 15 -27 10 -45 -6 -25 -4 -26 27 -24 29 3 37 -2
58 -34 26 -41 41 -47 61 -23 10 12 6 22 -19 54 -34 43 -33 61 4 81 42 23 72 1
80 -57 9 -65 19 -81 42 -67 18 12 21 61 8 121 -7 29 26 63 59 63 13 0 26 3 28
8 4 10 59 47 81 55 10 4 15 11 12 17 -3 5 0 10 8 10 7 0 24 11 37 25 13 14 35
25 49 25 24 0 23 -2 -17 -42 -23 -22 -42 -45 -42 -50 0 -4 -9 -28 -20 -51 -11
-24 -22 -57 -24 -74 -6 -45 -48 -113 -69 -113 -15 0 -17 -7 -14 -52 2 -34 -1
-57 -9 -63 -6 -5 -15 -27 -18 -48 -5 -28 -3 -39 8 -43 10 -4 13 -14 10 -33 -8
-39 16 -57 57 -42 43 15 47 8 10 -18 l-29 -21 36 -60 c23 -40 40 -59 49 -55
10 3 13 -1 8 -15 -5 -14 -2 -20 9 -20 12 0 16 -11 16 -47 0 -35 3 -44 10 -33
8 12 10 9 10 -12 0 -16 5 -28 10 -28 6 0 10 -9 10 -19 0 -30 11 -51 26 -51 8
0 14 -10 14 -26 0 -14 7 -32 15 -40 8 -9 15 -26 15 -38 0 -13 7 -29 15 -36 8
-7 15 -23 15 -36 0 -12 5 -26 11 -29 6 -4 7 -19 3 -37 -5 -27 -4 -30 11 -24
16 6 17 1 12 -34 -6 -47 2 -51 25 -12 16 25 17 26 18 5 0 -12 -7 -38 -16 -56
-12 -24 -14 -40 -7 -52 9 -16 11 -16 28 1 17 18 18 17 13 -11 -3 -17 -9 -38
-13 -48 -6 -13 -4 -16 9 -11 19 7 19 8 7 -34 -8 -27 -7 -34 6 -39 39 -15 81
107 64 187 -5 25 -14 70 -20 100 -6 30 -20 73 -31 94 -19 39 -19 39 0 67 11
15 20 32 20 39 0 6 5 8 10 5 14 -8 13 31 -1 53 -10 15 -7 23 16 46 22 23 26
34 22 62 -4 24 -1 36 10 42 10 6 16 24 17 49 0 27 5 39 13 36 19 -7 36 33 23
57 -12 23 -6 40 16 40 17 0 18 11 2 30 -11 12 -10 12 4 1 22 -17 41 -5 32 21
-4 14 -3 18 5 13 18 -10 61 3 61 19 0 8 7 16 15 20 8 3 15 18 15 33 l0 27 16
-22 c16 -23 31 -27 53 -13 10 7 11 13 2 30 -15 27 4 29 21 1 19 -29 28 -24 22
10 -7 34 1 38 28 13 17 -15 18 -15 18 0 0 14 8 16 45 12 34 -3 45 0 45 11 0
20 27 18 39 -3 10 -16 10 -16 11 3 0 16 6 20 35 20 27 0 35 -4 35 -18 0 -24
15 -23 40 2 11 11 29 20 41 20 12 0 23 -8 26 -20 3 -13 14 -20 29 -20 13 0 24
-4 24 -10 0 -5 11 -10 25 -10 21 0 25 -5 25 -27 -1 -16 -7 -46 -15 -68 -26
-72 -20 -124 24 -191 22 -32 49 -67 60 -76 12 -10 21 -26 21 -36 0 -11 11 -31
25 -46 20 -21 33 -26 75 -26 55 0 56 -2 38 -62 -8 -27 -8 -42 -1 -49 15 -15
74 92 66 120 -4 15 -1 21 10 21 20 0 54 -43 62 -80 7 -31 23 -38 43 -18 15 15
26 4 19 -17 -7 -18 -68 -56 -82 -52 -5 2 -16 16 -24 32 l-14 29 -16 -24 c-9
-14 -24 -33 -35 -44 -18 -18 -18 -20 10 -74 16 -30 50 -74 77 -96 26 -23 59
-58 72 -78 14 -21 32 -38 40 -38 25 0 48 47 42 84 -8 51 5 61 38 26 16 -16 36
-30 46 -30 22 0 31 50 20 108 -8 38 -6 47 15 72 13 15 24 32 24 38 0 18 -50 0
-70 -26 -23 -29 -25 -50 -5 -76 11 -14 12 -24 4 -38 -17 -31 -26 -10 -32 74
-6 84 -3 91 53 128 63 42 69 56 65 142 -4 72 -21 128 -45 143 -5 3 -10 26 -10
50 0 35 6 52 30 78 17 19 30 41 30 48 -1 40 -96 108 -145 104 -46 -4 -74 5
-86 27 -14 26 -5 33 38 33 53 0 65 26 30 63 -15 15 -27 30 -27 33 0 3 19 6 41
7 74 3 96 42 25 42 -25 0 -48 4 -51 10 -13 21 -43 30 -54 16 -8 -9 -6 -18 8
-33 19 -20 19 -21 -24 -63 l-43 -42 -23 21 c-27 25 -71 27 -93 5 -33 -33 -6
-81 40 -71 17 3 36 2 44 -3 13 -8 13 -11 0 -23 -18 -18 -75 -37 -107 -37 -28
0 -93 -63 -93 -90 0 -41 11 -51 49 -45 27 5 49 20 86 61 l50 54 73 2 74 3 34
-40 c66 -75 75 -94 62 -118 -12 -23 -7 -60 23 -154 19 -59 21 -80 13 -119 -10
-51 -28 -68 -37 -34 -8 32 -23 23 -42 -27 -17 -45 -95 -140 -95 -116 0 7 13
33 29 60 28 46 29 50 19 110 -10 56 -9 64 11 88 15 21 18 32 11 45 -16 29 -12
80 5 80 9 0 15 -9 15 -25 0 -14 4 -25 9 -25 15 0 22 32 10 46 -7 8 -9 29 -6
50 7 40 -4 68 -37 96 -35 31 -66 40 -97 29 -18 -6 -31 -6 -34 0 -11 16 -35 10
-35 -10 0 -10 -7 -21 -15 -25 -8 -3 -15 -12 -15 -19 0 -19 -34 -49 -51 -45 -9
2 -15 -7 -17 -24 -4 -30 -25 -42 -52 -28 -15 8 -22 5 -34 -12 l-15 -21 -11 27
c-5 15 -10 52 -10 83 0 50 4 60 46 115 32 43 43 63 35 71 -8 8 -22 1 -51 -22
-46 -37 -48 -35 -18 14 18 31 19 38 7 46 -8 5 -24 7 -36 4 -18 -4 -23 -1 -23
15 0 13 -9 21 -27 26 -39 8 -77 28 -64 32 6 2 11 10 11 18 0 9 -4 13 -8 10
-10 -6 -72 24 -72 35 0 33 108 -15 162 -71 49 -51 76 -61 97 -36 10 11 7 18
-14 33 -64 45 -74 55 -77 76 -3 19 -11 23 -58 28 -79 8 -130 34 -130 66 0 19
17 16 51 -8 36 -25 104 -31 104 -9 0 8 -13 17 -30 21 -90 22 -109 29 -124 45
-15 15 -14 16 14 9 17 -4 53 -9 81 -10 30 -1 66 -10 85 -22 19 -11 45 -25 59
-31 l25 -12 -29 4 c-33 4 -56 -2 -56 -15 0 -15 58 -39 96 -39 35 0 36 -1 21
-18 -22 -24 -21 -32 3 -32 29 0 76 26 84 46 5 13 2 15 -14 11 -11 -3 -20 -1
-20 4 0 5 4 9 9 9 5 0 16 12 25 26 13 18 14 25 4 23 -38 -5 -40 2 -13 46 30
53 27 73 -16 110 -24 20 -41 25 -83 25 -42 0 -62 6 -106 35 -58 37 -110 46
-110 20 0 -8 5 -15 10 -15 6 0 2 -9 -9 -21 -16 -18 -22 -19 -43 -9 -45 24 -81
68 -43 54 25 -10 18 28 -25 120 -22 47 -40 91 -40 97 0 14 -64 104 -104 146
-34 36 -56 42 -56 16 0 -13 -10 -8 -37 20 -32 31 -36 39 -23 47 13 9 13 12 -2
24 -10 7 -15 16 -11 19 13 14 42 7 56 -13 7 -11 29 -26 48 -34 99 -41 245
-118 270 -142 26 -25 31 -26 71 -15 24 6 58 13 76 16 78 13 166 76 127 91 -9
4 -23 0 -33 -9 -31 -27 -79 -46 -122 -49 -36 -3 -45 1 -63 24 -24 32 -17 46
16 30 51 -25 66 -24 123 8 58 34 70 49 60 76 -5 14 -13 10 -42 -20 -34 -35
-48 -41 -89 -36 -45 5 -51 33 -17 73 14 16 9 17 -91 17 -142 0 -149 16 -40 86
47 30 52 36 47 61 -4 23 1 35 30 62 20 19 36 41 36 48 0 22 -26 14 -53 -17
-34 -38 -70 -47 -102 -26 -31 20 -52 56 -33 56 13 0 58 62 58 80 0 5 -6 10
-12 10 -11 0 -30 -24 -64 -78 -1 -2 -16 6 -32 18 -28 21 -29 24 -19 62 7 28 7
42 -2 51 -17 17 -31 -3 -33 -47 l-1 -37 -91 3 -91 3 -2 29 c-1 16 -6 33 -12
39 -17 17 -31 -3 -24 -35 5 -23 2 -34 -12 -45 -29 -21 -54 -16 -61 12 -8 32
-31 52 -45 38 -8 -8 -5 -21 6 -44 17 -33 17 -33 -9 -56 -35 -30 -41 -29 -56 7
-16 39 -60 70 -99 70 -30 0 -30 0 -13 21 25 30 51 42 65 30 19 -15 69 -18 74
-3 3 7 -9 18 -28 26 l-32 14 26 16 c14 10 33 17 44 17 43 -1 93 -14 104 -27
18 -22 31 -16 27 13 -2 17 -12 32 -27 39 l-23 12 23 15 c13 9 36 19 50 22 21
5 27 2 32 -14 3 -14 11 -18 25 -14 14 3 25 -3 37 -21 23 -35 38 -23 30 25 l-7
39 39 0 c41 0 60 -15 97 -73 23 -37 39 -25 31 24 -8 44 -6 44 50 25 38 -13 40
-17 45 -60 6 -57 24 -65 28 -13 3 34 5 36 23 26 29 -15 30 -9 10 37 -28 61
-34 84 -22 84 5 0 40 -19 78 -42z m-786 -266 c25 -2 47 -15 68 -36 l32 -33
-37 -28 c-33 -26 -37 -27 -46 -11 -12 21 -67 46 -103 46 -31 0 -32 13 -4 52
15 21 26 27 38 22 9 -4 32 -9 52 -12z m2517 -135 c17 -35 9 -47 -31 -47 -18 0
-45 -9 -62 -20 -39 -26 -53 -25 -67 5 -15 33 9 60 71 80 60 18 73 15 89 -18z
m-2532 1 c14 -13 14 -22 4 -52 -13 -41 -13 -41 -45 -20 -19 12 -41 15 -86 12
-37 -3 -54 -1 -44 4 8 5 15 19 15 31 0 13 6 29 13 36 17 18 123 10 143 -11z
m2570 -115 c4 -14 2 -33 -3 -42 -9 -14 -142 -55 -151 -47 -1 2 -5 19 -9 38 -8
53 23 78 99 78 54 0 58 -2 64 -27z m-2623 -5 c12 -6 17 -18 15 -36 -3 -24 -9
-28 -61 -38 -31 -7 -68 -19 -82 -28 l-25 -16 0 47 c0 27 4 53 8 59 19 29 98
36 145 12z m356 -90 c1 -14 -27 -8 -49 10 -14 11 -20 24 -16 31 5 8 16 5 36
-11 16 -13 29 -26 29 -30z m2266 -54 l0 -49 -45 -6 c-25 -3 -52 -9 -61 -13
-13 -6 -20 1 -29 29 -10 31 -10 39 6 56 9 10 29 19 43 20 14 0 35 4 46 9 33
14 40 6 40 -46z m-2627 -26 c-2 -38 -7 -53 -18 -54 -8 -1 -23 -2 -32 -3 -9 0
-30 -12 -46 -26 -17 -14 -32 -25 -35 -25 -11 0 -17 91 -7 109 15 29 59 50 103
51 l38 0 -3 -52z m362 21 c0 -11 -27 -12 -34 0 -3 4 -3 11 0 14 8 8 34 -3 34
-14z m1780 1 c0 -5 -8 -10 -17 -10 -10 0 -36 -11 -58 -25 -49 -30 -81 -33 -46
-5 12 11 27 17 32 14 5 -3 9 -1 9 3 0 10 39 30 63 32 9 0 17 -3 17 -9z m-1684
-45 c30 -19 59 -45 64 -58 6 -12 16 -30 22 -41 9 -13 10 -20 2 -23 -12 -4 -6
-60 7 -69 11 -7 12 -64 0 -64 -4 0 -22 5 -40 11 -30 10 -31 13 -16 29 14 16
14 19 -7 33 -23 16 -23 17 -4 32 22 17 22 16 -19 38 -16 9 -24 16 -17 17 7 0
26 -7 42 -15 28 -15 30 -14 30 3 0 21 -29 39 -83 49 -34 7 -53 28 -25 28 25 0
18 25 -11 40 -17 8 -31 18 -31 20 0 14 37 1 86 -30z m1152 -12 c-3 -18 -71
-45 -93 -37 -40 16 -3 37 88 53 5 0 7 -6 5 -16z m82 -8 c-22 -23 -50 -34 -50
-18 0 15 35 43 53 43 20 0 20 -1 -3 -25z m934 -35 c5 -5 6 -24 2 -43 -6 -34
-7 -34 -68 -40 -72 -6 -78 -4 -78 27 0 25 34 61 65 69 24 6 67 -1 79 -13z
m-2629 -32 c3 -7 6 -33 7 -57 3 -43 2 -43 -37 -55 -22 -7 -52 -20 -67 -30
l-27 -17 6 58 c4 43 12 65 31 86 27 29 79 37 87 15z m1931 -73 c-11 -8 -22
-12 -25 -9 -6 6 19 24 34 24 6 -1 1 -7 -9 -15z m644 -11 c31 -7 32 -8 27 -47
-8 -59 -21 -67 -89 -55 -62 11 -68 20 -49 72 7 16 20 26 38 29 15 2 31 5 34 6
4 0 21 -2 39 -5z m-1960 -60 c0 -6 10 -23 21 -38 12 -15 19 -29 17 -32 -8 -7
-68 84 -68 103 1 17 1 17 15 -1 8 -11 15 -25 15 -32z m1267 31 c18 -18 18 -17
-25 -39 -51 -26 -76 6 -30 38 28 20 36 20 55 1z m-1857 -54 c20 -38 11 -57
-41 -90 -57 -35 -72 -32 -83 21 -7 36 6 55 49 74 42 19 63 17 75 -5z m1908
-14 c3 -14 -3 -17 -26 -15 -31 2 -132 -39 -132 -53 0 -5 23 -5 50 -2 34 4 50
2 50 -6 0 -6 -8 -11 -17 -12 -14 0 -13 -2 5 -9 28 -12 31 -44 3 -35 -10 3 -38
-1 -62 -9 -40 -14 -72 -14 -35 0 25 10 19 22 -9 16 -23 -4 -25 -1 -25 30 0 44
31 74 85 84 22 4 49 13 60 21 25 17 49 13 53 -10z m-1340 -33 c13 -9 22 -24
22 -39 0 -24 0 -24 -42 -9 -24 8 -57 15 -74 16 -30 1 -30 2 -12 20 10 10 23
16 28 13 6 -4 10 1 10 10 0 18 28 14 68 -11z m1984 -22 c11 -12 -4 -62 -19
-62 -9 0 -13 -8 -12 -22 6 -52 -58 -194 -115 -255 -84 -90 -114 27 -51 200 24
65 32 78 49 76 44 -3 76 1 76 11 0 6 -14 10 -30 10 -35 0 -49 22 -29 46 11 13
25 15 69 10 30 -4 58 -10 62 -14z m-2508 -69 c7 -16 21 -52 30 -82 9 -30 27
-73 41 -97 27 -47 31 -75 14 -123 -19 -54 -45 -39 -116 70 -56 87 -98 181 -89
204 7 19 65 55 88 55 10 0 24 -12 32 -27z m586 -13 c23 -23 23 -24 -19 -9 -24
9 -29 14 -19 20 17 11 15 12 38 -11z m220 -18 c14 -13 38 -30 55 -37 22 -10
29 -20 30 -40 0 -35 27 -54 49 -36 19 16 21 47 4 54 -7 3 -1 6 14 6 35 1 54
-29 38 -59 -17 -31 -56 -43 -97 -29 -43 14 -106 76 -99 96 4 8 -7 27 -24 45
-17 16 -30 31 -30 33 0 10 37 -11 60 -33z m-100 -47 c14 -8 37 -14 52 -15 31
0 40 -10 28 -29 -6 -10 -20 -12 -50 -7 -57 9 -80 23 -80 46 0 23 15 25 50 5z
m-913 -57 c68 -117 310 -328 375 -328 8 0 21 -6 27 -13 8 -11 3 -17 -25 -30
-42 -21 -60 -21 -67 -3 -3 7 -17 16 -31 20 -45 11 -142 79 -180 126 -20 25
-64 78 -98 118 -58 67 -66 72 -95 68 l-33 -5 16 37 c15 38 51 74 69 68 5 -1
24 -28 42 -58z m833 41 c0 -14 -16 -11 -29 5 -10 12 -8 13 8 9 12 -3 21 -9 21
-14z m1101 -18 c-14 -25 -38 -44 -52 -39 -7 2 -1 16 16 36 28 33 53 35 36 3z
m-801 -1 c0 -5 -5 -10 -11 -10 -5 0 -7 5 -4 10 3 6 8 10 11 10 2 0 4 -4 4 -10z
m-1556 -101 c-7 -11 -34 -12 -34 -1 0 14 11 21 26 15 8 -3 11 -9 8 -14z m443
-160 c50 -59 122 -114 185 -139 20 -8 40 -18 44 -22 4 -5 15 -8 25 -8 14 0 4
-19 -43 -82 -70 -94 -87 -132 -88 -204 0 -33 -5 -56 -15 -64 -8 -7 -15 -25
-15 -41 0 -16 -4 -29 -9 -29 -5 0 -19 -20 -31 -45 -12 -25 -27 -44 -32 -43
-14 5 -96 165 -132 258 -16 41 -47 120 -69 175 -33 82 -41 112 -41 170 -1 62
3 76 32 121 17 28 32 65 32 81 0 58 0 58 157 -128z m1181 156 c-11 -11 -68
-23 -68 -15 0 5 6 11 13 13 16 7 62 8 55 2z m2 -59 c0 -3 -4 -8 -10 -11 -5 -3
-10 -1 -10 4 0 6 5 11 10 11 6 0 10 -2 10 -4z m613 -51 c-3 -9 -8 -14 -10 -11
-3 3 -2 9 2 15 9 16 15 13 8 -4z m31 -51 c24 -9 20 -33 -4 -27 -11 3 -20 12
-20 19 0 16 2 16 24 8z m-2454 -38 c0 -3 -4 -8 -10 -11 -5 -3 -10 -1 -10 4 0
6 5 11 10 11 6 0 10 -2 10 -4z m2446 -43 c9 -36 -3 -40 -34 -10 -22 22 -24 29
-13 36 21 13 40 2 47 -26z m-821 17 c3 -5 -1 -10 -9 -10 -9 0 -16 5 -16 10 0
6 4 10 9 10 6 0 13 -4 16 -10z m-1450 -50 c-3 -5 -13 -10 -21 -10 -8 0 -12 5
-9 10 3 6 13 10 21 10 8 0 12 -4 9 -10z m1426 -15 c-1 -15 -24 -12 -29 3 -3 9
2 13 12 10 10 -1 17 -7 17 -13z m800 -33 c3 -23 2 -47 -3 -54 -13 -21 -28 11
-28 60 0 57 23 52 31 -6z m-2281 -42 c0 -5 -2 -10 -4 -10 -3 0 -8 5 -11 10 -3
6 -1 10 4 10 6 0 11 -4 11 -10z m845 -10 c3 -5 1 -10 -4 -10 -6 0 -11 5 -11
10 0 6 2 10 4 10 3 0 8 -4 11 -10z m688 -197 c20 -38 22 -53 4 -53 -26 0 -49
60 -51 128 -2 102 17 126 24 32 3 -42 13 -89 23 -107z m707 155 c30 -32 26
-118 -6 -118 -10 0 -14 14 -14 48 0 26 -4 54 -9 62 -9 13 -6 30 4 30 2 0 13
-10 25 -22z m-2210 -68 c0 -5 -4 -10 -10 -10 -5 0 -10 5 -10 10 0 6 5 10 10
10 6 0 10 -4 10 -10z m1795 0 l26 -10 -21 -30 c-12 -17 -25 -30 -30 -30 -9 0
-17 38 -12 63 4 20 3 20 37 7z m-1525 -4 c0 -3 -4 -8 -10 -11 -5 -3 -10 -1
-10 4 0 6 5 11 10 11 6 0 10 -2 10 -4z m-250 -21 c0 -2 -9 -9 -20 -15 -12 -6
-20 -7 -20 -1 0 5 8 12 18 14 9 3 18 5 20 6 1 0 2 -1 2 -4z m1689 -84 c1 -33
1 -34 -19 -16 -23 20 -27 74 -7 94 10 10 13 7 18 -16 4 -15 7 -43 8 -62z m188
73 c6 -16 -15 -64 -28 -64 -5 0 -11 11 -15 25 -10 40 29 75 43 39z m-301 -85
c3 -6 1 -28 -6 -48 -10 -32 -10 -43 4 -69 9 -17 12 -33 7 -36 -16 -10 -43 33
-48 77 -7 60 21 110 43 76z m224 -64 c0 -25 6 -48 15 -55 15 -12 30 -70 23
-91 -2 -6 -20 15 -41 47 -25 40 -35 65 -30 79 3 11 5 35 5 54 -1 28 1 31 13
21 9 -7 15 -30 15 -55z m-1781 -8 c-2 -1 -12 -9 -21 -16 -15 -12 -18 -11 -18
3 0 10 8 16 22 16 12 0 19 -1 17 -3z m1653 -42 c4 -38 -10 -47 -32 -20 -10 12
-10 21 -1 41 14 32 28 24 33 -21z m496 -41 c4 -51 -15 -105 -28 -84 -11 17
-13 113 -3 124 15 15 28 -3 31 -40z m-268 -225 c0 -30 -14 -39 -23 -15 -8 19
3 57 14 50 5 -3 9 -18 9 -35z m-110 -26 c20 -21 48 -49 63 -62 19 -16 27 -33
27 -55 0 -44 -10 -51 -30 -21 -9 13 -31 35 -50 47 -40 27 -76 87 -67 111 9 24
16 22 57 -20z m-1596 -698 c-6 -16 -24 -21 -24 -7 0 11 11 22 21 22 5 0 6 -7
3 -15z m3696 -100 c9 -39 4 -65 -12 -65 -5 0 -6 9 -3 20 3 11 2 20 -4 20 -5 0
-11 12 -13 28 -3 24 -7 27 -38 26 -19 0 -44 -4 -55 -8 -19 -8 -19 -8 1 7 21
16 93 27 107 16 5 -4 12 -23 17 -44z m-3220 -37 c35 -21 35 -22 10 -28 -31 -7
-86 0 -71 10 7 3 9 14 5 23 -9 24 14 22 56 -5z m-92 3 c21 -2 13 -31 -9 -31
-30 0 -109 21 -109 30 0 6 68 7 118 1z m3220 -13 c-2 -9 8 -12 32 -11 l35 2
-34 -15 c-30 -14 -34 -14 -46 3 -14 18 -11 33 6 33 5 0 8 -6 7 -12z m-3043
-18 c14 -16 15 -20 4 -20 -16 0 -39 19 -39 32 0 14 16 9 35 -12z m-226 -26
c17 -14 46 -28 66 -31 29 -5 34 -9 30 -24 -8 -24 40 -71 108 -105 74 -37 78
-41 66 -71 -7 -19 -6 -32 6 -49 22 -35 6 -29 -43 15 -26 23 -40 43 -37 52 5
14 -6 26 -83 93 -16 14 -25 16 -35 7 -8 -6 -16 -8 -20 -5 -9 10 -47 -6 -47
-20 0 -7 21 -31 48 -54 157 -137 174 -156 167 -183 -7 -30 -38 -41 -76 -27
-18 7 -27 4 -40 -13 -11 -14 -18 -18 -23 -10 -10 16 -26 14 -26 -3 0 -21 44
-50 49 -34 2 7 10 18 17 25 10 11 14 9 19 -8 9 -26 -6 -37 -51 -37 -45 0 -102
-20 -114 -40 -9 -15 -13 -13 -37 14 -16 18 -39 34 -53 38 -38 9 -92 45 -87 59
7 22 34 19 62 -7 15 -14 47 -33 71 -42 51 -20 79 -7 70 31 -5 19 -2 22 19 19
18 -1 32 6 49 28 21 27 25 29 44 17 17 -10 23 -10 36 0 22 19 20 31 -14 78
-32 44 -82 73 -124 73 -15 0 -43 11 -64 25 -20 13 -52 29 -69 36 -18 6 -33 14
-33 18 0 12 34 9 50 -4 19 -16 81 -47 85 -43 2 2 1 24 -2 50 -4 33 -10 48 -23
51 -25 7 -137 -2 -166 -13 -21 -8 -24 -7 -24 13 0 25 30 46 92 66 20 7 42 19
48 27 19 21 55 17 89 -12z m2529 16 c16 0 22 -5 20 -17 -2 -10 9 -23 27 -32
16 -9 38 -25 47 -36 10 -11 23 -27 30 -35 20 -23 49 -91 42 -101 -9 -15 -22
-10 -28 9 -2 9 -4 -40 -2 -110 1 -82 -1 -125 -8 -118 -5 5 -10 40 -11 77 -2
74 -23 165 -43 185 -10 10 -16 8 -33 -8 -20 -20 -20 -23 -5 -59 16 -37 15 -38
-9 -63 -18 -17 -23 -31 -19 -48 5 -18 2 -22 -13 -18 -22 6 -50 -36 -38 -57 6
-8 4 -11 -6 -7 -8 3 -21 9 -29 12 -27 11 -64 -61 -65 -124 0 -45 -3 -55 -16
-52 -9 1 -19 -4 -23 -13 -3 -8 -15 -15 -27 -15 -21 0 -21 1 -5 19 10 11 15 25
11 30 -20 33 -89 -20 -87 -67 0 -17 -3 -34 -8 -37 -10 -6 -24 14 -25 35 0 23
-34 24 -58 2 -40 -35 -117 -65 -117 -44 0 4 12 18 25 31 14 13 25 27 25 32 0
5 -22 23 -50 40 -27 17 -50 35 -50 40 0 15 17 10 24 -7 9 -24 50 -14 54 15 2
13 -1 28 -7 34 -12 12 -15 50 -4 60 10 10 33 -62 33 -105 0 -20 7 -44 16 -52
30 -31 104 9 104 55 0 11 10 23 24 29 21 8 24 15 23 59 -1 35 -5 51 -14 51 -7
0 -13 -9 -13 -19 0 -26 -17 -36 -22 -14 -4 18 10 74 21 83 4 3 15 18 25 33 30
49 9 42 -26 -7 -46 -66 -48 -39 -2 30 21 31 38 66 39 78 2 21 20 34 88 60 40
16 56 41 39 58 -17 17 -136 -49 -198 -109 -30 -28 -54 -48 -54 -44 0 4 5 12
12 19 19 19 -4 37 -31 23 -35 -19 -53 -56 -49 -103 3 -41 1 -43 -26 -46 l-29
-4 6 58 c4 35 14 69 26 85 12 16 21 34 21 40 0 19 31 49 50 49 10 0 16 8 16
21 -1 12 8 26 19 33 11 6 24 17 30 24 9 11 14 11 25 -3 14 -16 15 -16 20 5 7
31 27 36 35 11 10 -34 28 -25 21 10 -5 25 -3 30 11 27 9 -2 21 -12 27 -23 16
-28 28 -35 43 -24 7 6 17 8 23 4 5 -3 13 1 16 9 3 9 12 16 19 16 6 0 20 9 31
21 12 13 26 18 39 15 11 -3 30 -6 43 -6z m-2191 -35 c20 -20 42 -34 48 -31 7
2 18 0 26 -5 11 -7 9 -13 -11 -29 l-25 -19 -43 42 c-24 23 -48 50 -53 60 -17
31 19 20 58 -18z m3033 26 c0 -5 -9 -11 -20 -13 -27 -4 -30 -22 -5 -27 19 -3
35 -18 35 -32 0 -4 -12 -6 -27 -5 -16 0 -28 -3 -28 -9 0 -5 12 -9 28 -7 25 2
27 -1 29 -35 1 -21 1 -48 0 -60 0 -13 4 -23 9 -23 6 0 7 -9 4 -20 -3 -11 -2
-20 3 -20 5 0 12 -14 16 -32 7 -35 -5 -49 -35 -41 -21 6 -25 18 -9 28 8 5 7
12 -1 22 -10 12 -10 16 0 23 11 6 9 10 -7 19 -14 7 -30 42 -52 112 -17 55 -30
102 -28 104 3 3 67 23 81 24 4 1 7 -3 7 -8z m-3145 -71 c35 -17 95 -70 95 -84
0 -8 -105 53 -135 78 -37 31 -17 34 40 6z m-480 -68 c-3 -3 -11 0 -18 7 -9 10
-8 11 6 5 10 -3 15 -9 12 -12z m0 -61 c11 -5 28 -4 38 1 34 17 163 -52 218
-117 28 -32 16 -28 -47 14 -33 22 -81 46 -109 52 -58 13 -124 39 -131 51 -6
10 4 9 31 -1z m-105 -22 c-7 -11 -14 -19 -16 -16 -7 7 7 37 17 37 6 0 5 -9 -1
-21z m110 -42 c0 -14 -19 -37 -31 -37 -8 0 -19 52 -12 62 6 11 43 -10 43 -25z
m2210 9 c0 -15 -18 -31 -26 -23 -7 7 7 37 17 37 5 0 9 -6 9 -14z m230 -49
c-27 -50 -30 -62 -24 -107 4 -27 11 -50 16 -50 5 0 6 -4 3 -10 -14 -22 -34 -8
-40 28 -8 51 7 115 41 163 38 55 41 42 4 -24z m-1720 15 c0 -21 7 -48 16 -60
13 -19 13 -22 1 -22 -14 0 -38 29 -65 79 -14 27 -4 41 31 41 13 0 17 -8 17
-38z m2270 2 c0 -8 -4 -14 -10 -14 -5 0 -10 9 -10 21 0 11 5 17 10 14 6 -3 10
-13 10 -21z m-2142 -37 c43 -60 37 -80 -11 -37 -43 37 -61 66 -52 81 11 17 28
5 63 -44z m-710 9 c11 -11 7 -14 -24 -19 -44 -7 -54 -3 -54 25 0 18 4 20 32
14 18 -4 39 -12 46 -20z m-311 -28 c-3 -8 -6 -5 -6 6 -1 11 2 17 5 13 3 -3 4
-12 1 -19z m2373 -8 c0 -20 -5 -30 -15 -30 -10 0 -15 10 -15 30 0 20 5 30 15
30 10 0 15 -10 15 -30z m-2202 -7 c2 -12 -4 -33 -13 -47 -9 -14 -14 -30 -11
-35 4 -5 3 -12 -2 -15 -5 -3 -8 24 -8 60 0 53 3 64 15 62 9 -2 17 -13 19 -25z
m3682 -66 c0 -56 -1 -58 -22 -51 -31 9 -35 14 -18 24 12 7 12 12 -3 28 -13 14
-14 21 -5 30 9 9 9 15 0 24 -9 9 -7 14 6 24 26 20 42 -9 42 -79z m-3466 48
c12 -18 13 -25 4 -25 -18 1 -48 25 -48 39 0 20 27 12 44 -14z m892 -46 c1 -24
12 -66 25 -94 26 -56 39 -189 20 -208 -6 -6 -13 -8 -16 -5 -6 5 -43 201 -52
273 -3 22 -9 44 -14 50 -5 5 -9 20 -9 33 0 23 1 24 23 9 17 -11 22 -25 23 -58z
m1008 -17 c6 -38 4 -43 -11 -40 -19 3 -30 55 -18 86 9 23 22 3 29 -46z m-804
19 c0 -5 -7 -12 -16 -15 -14 -5 -15 -4 -4 9 14 17 20 19 20 6z m470 -6 c14
-17 5 -36 -15 -28 -16 6 -21 43 -6 43 5 0 14 -7 21 -15z m74 6 c8 -12 -21 -34
-34 -26 -8 5 -8 11 1 21 13 16 25 18 33 5z m-1024 -55 c0 -6 -9 0 -20 14 -26
33 -25 52 0 21 11 -13 20 -28 20 -35z m544 -10 c-3 -9 -10 -16 -15 -16 -14 0
-11 28 4 33 16 6 19 3 11 -17z m624 -69 c41 -58 38 -80 -4 -35 -20 21 -34 48
-38 73 -3 22 -2 33 2 25 4 -9 22 -37 40 -63z m-988 18 c0 -36 -17 -56 -30 -35
-9 15 10 81 22 74 4 -3 8 -20 8 -39z m2678 7 c4 -25 -19 -30 -37 -9 -8 10 -7
17 1 25 17 17 32 10 36 -16z m-3088 -10 c0 -10 -4 -22 -9 -27 -5 -6 -11 -19
-14 -30 -4 -18 -5 -18 -14 5 -6 14 -7 26 -2 28 5 2 6 8 3 14 -4 6 0 14 7 19
21 13 29 11 29 -9z m1110 8 c0 -5 -2 -10 -4 -10 -3 0 -8 5 -11 10 -3 6 -1 10
4 10 6 0 11 -4 11 -10z m-50 -20 c0 -5 -5 -10 -11 -10 -5 0 -7 5 -4 10 3 6 8
10 11 10 2 0 4 -4 4 -10z m1040 -25 c0 -8 -4 -15 -10 -15 -5 0 -7 7 -4 15 4 8
8 15 10 15 2 0 4 -7 4 -15z m1000 0 c0 -8 -7 -15 -15 -15 -26 0 -18 20 13 29
1 1 2 -6 2 -14z m-2366 -56 c-3 -5 -14 -9 -25 -9 -20 0 -24 15 -12 46 6 15 8
15 25 -6 10 -12 15 -26 12 -31z m-890 19 c3 -13 28 -47 56 -76 35 -37 50 -60
50 -80 -1 -25 -1 -26 -12 -7 -6 11 -28 39 -50 62 -21 24 -38 50 -38 59 0 12
-6 15 -24 10 -16 -4 -30 0 -42 11 -17 17 -17 18 9 21 15 2 27 8 27 13 0 18 18
8 24 -13z m1137 -1 c-13 -13 -26 -3 -16 12 3 6 11 8 17 5 6 -4 6 -10 -1 -17z
m-1667 -6 c11 -12 25 -16 41 -13 15 2 25 0 25 -7 0 -19 -55 -12 -78 9 -12 12
-22 23 -22 25 0 11 18 4 34 -14z m1776 5 c0 -28 -13 -47 -42 -62 -43 -22 -45
-11 -8 36 33 41 50 50 50 26z m1120 5 c0 -12 -29 -23 -41 -15 -5 3 -7 10 -4
15 8 12 45 12 45 0z m-1020 -21 c0 -20 -25 -38 -36 -27 -8 7 15 47 26 47 6 0
10 -9 10 -20z m1920 0 c0 -21 -8 -24 -34 -14 -13 5 -14 9 -5 20 17 21 39 17
39 -6z m-2209 -3 c31 0 29 -21 -4 -49 -20 -15 -22 -15 -32 5 -15 31 -32 31
-61 2 -32 -32 -42 -26 -18 12 25 38 34 43 64 36 13 -4 37 -6 51 -6z m1623 -2
c3 -8 1 -15 -4 -15 -6 0 -10 7 -10 15 0 8 2 15 4 15 2 0 6 -7 10 -15z m-941
-50 c-9 -15 -12 -13 -22 15 -15 45 -14 48 10 23 16 -16 19 -25 12 -38z m-1253
19 c0 -8 -4 -12 -10 -9 -5 3 -10 10 -10 16 0 5 5 9 10 9 6 0 10 -7 10 -16z
m130 -21 c0 -28 -3 -34 -10 -23 -13 20 -13 60 0 60 6 0 10 -17 10 -37z m1842
-3 c10 -19 18 -49 18 -67 0 -26 4 -33 20 -33 15 0 20 7 20 28 l1 27 15 -27
c18 -35 34 -36 34 -3 0 14 5 25 10 25 13 0 13 -37 0 -45 -6 -4 -6 -15 0 -31
14 -36 12 -44 -9 -44 -26 0 -51 -10 -51 -21 0 -28 -97 -139 -121 -139 -12 0
-11 67 1 75 17 10 11 28 -7 21 -10 -4 -32 4 -56 21 l-39 27 -18 -22 c-24 -29
-50 -29 -50 1 0 55 94 82 130 38 18 -23 60 -45 60 -33 0 5 -12 21 -26 35 -23
23 -24 28 -10 33 9 3 23 4 31 1 21 -9 27 7 11 28 -10 14 -11 28 -4 52 5 19 6
48 3 65 -9 41 12 34 37 -12z m-202 18 c0 -4 -7 -11 -16 -16 -9 -5 -16 -21 -16
-35 0 -21 -7 -27 -42 -35 -47 -12 -76 -12 -76 0 0 4 13 8 28 8 35 0 45 9 31
26 -6 8 -9 24 -6 36 5 20 13 23 52 23 25 0 45 -3 45 -7z m1000 -8 c-8 -5 -17
-7 -19 -4 -3 3 1 9 9 14 8 5 17 7 19 4 3 -3 -1 -9 -9 -14z m-3356 -5 c32 -2
46 -10 82 -50 24 -26 44 -49 44 -51 0 -4 -68 -34 -76 -34 -2 0 1 10 8 21 11
18 11 23 -1 27 -7 2 -22 15 -33 27 -11 13 -35 26 -53 29 -18 4 -43 16 -56 28
l-24 21 35 -8 c19 -5 52 -9 74 -10z m1646 -44 c12 -43 -3 -56 -24 -20 -12 20
-16 39 -11 57 6 24 8 25 17 9 5 -10 13 -31 18 -46z m406 17 c-22 -30 -46 -84
-46 -102 0 -8 -16 -23 -35 -35 -54 -31 -44 -60 13 -39 17 7 34 10 37 6 3 -3
15 -38 26 -78 11 -40 33 -97 50 -126 16 -30 25 -54 20 -54 -6 0 -14 8 -20 18
-9 15 -12 16 -37 2 -69 -38 -79 -140 -20 -190 9 -7 16 -18 16 -24 0 -7 -3 -7
-8 -1 -12 18 -73 65 -83 65 -19 0 -8 -29 17 -48 15 -10 25 -24 23 -31 -3 -9
-12 -6 -31 8 -33 26 -48 27 -48 1 0 -11 -5 -29 -12 -40 -10 -16 -8 -23 12 -46
l25 -27 -28 18 c-41 26 -47 8 -9 -26 40 -36 42 -56 4 -33 -28 16 -29 15 -60
-13 -27 -24 -31 -34 -26 -59 3 -16 19 -45 35 -63 16 -19 29 -36 29 -38 0 -3
-25 9 -55 26 -55 31 -75 25 -32 -9 27 -23 16 -37 -18 -22 -24 11 -46 0 -25
-13 23 -14 8 -23 -17 -10 -36 19 -44 9 -13 -15 32 -25 20 -25 -27 0 -43 23
-66 15 -33 -12 20 -16 21 -21 9 -29 -19 -12 -29 -11 -29 2 0 5 -5 7 -11 3 -8
-5 -8 -8 0 -13 15 -10 -8 -59 -31 -67 -13 -4 -16 -10 -9 -22 5 -10 7 -29 4
-44 -4 -20 0 -29 16 -37 23 -13 28 -31 9 -31 -6 0 -20 7 -30 17 -10 9 -21 13
-25 9 -4 -3 4 -16 16 -27 26 -24 25 -26 -12 -31 -36 -5 -70 -64 -54 -93 10
-19 10 -19 -16 -2 -36 23 -44 4 -10 -27 30 -28 20 -36 -13 -11 -10 8 -28 15
-39 15 -15 0 -8 -11 30 -46 30 -28 45 -48 38 -51 -7 -3 -19 2 -28 10 -25 26
-86 60 -93 52 -4 -4 14 -26 41 -48 26 -23 47 -46 47 -52 0 -5 -6 -3 -13 6 -7
8 -19 18 -27 22 -8 4 -23 12 -32 19 -37 27 -30 -6 10 -43 38 -37 48 -49 39
-49 -2 0 -14 9 -27 20 -13 11 -32 20 -44 20 -19 -1 -19 -2 7 -25 39 -34 25
-51 -19 -24 -46 28 -58 15 -16 -17 30 -24 43 -54 24 -54 -5 0 -22 11 -38 25
-35 31 -48 32 -41 4 5 -19 2 -21 -23 -15 -24 4 -32 1 -41 -16 l-12 -22 -9 24
c-7 18 -5 27 6 36 18 13 21 34 5 34 -6 0 14 24 44 53 102 99 188 261 238 450
10 38 28 89 40 113 19 36 26 43 45 38 17 -4 27 1 39 20 17 25 17 49 -1 134 -4
22 -2 38 8 50 8 9 20 30 26 46 11 25 10 32 -13 62 -23 30 -25 39 -19 89 7 57
34 105 60 105 18 0 18 -2 -6 -43 -18 -29 -18 -36 -6 -46 30 -25 81 63 57 100
-19 32 -12 56 25 84 50 38 74 82 74 135 0 48 7 64 28 66 27 2 31 5 37 32 9 41
24 56 90 90 73 38 71 37 51 10z m-2386 4 c0 -5 -6 -16 -13 -27 -10 -12 -16
-14 -21 -7 -4 7 -1 18 6 26 14 17 28 20 28 8z m-296 -63 c3 -15 20 -40 37 -57
29 -28 32 -29 60 -15 16 8 31 19 35 24 7 12 89 2 119 -14 11 -6 26 -10 33 -9
7 2 30 -2 50 -9 31 -10 34 -13 17 -19 -12 -4 -29 -1 -41 7 -19 12 -22 12 -27
-1 -3 -8 -18 -20 -33 -28 -20 -9 -28 -22 -30 -45 -2 -18 1 -33 6 -33 6 0 10 6
10 14 0 8 4 17 9 20 14 9 41 -4 41 -20 0 -8 11 -20 25 -26 30 -14 31 -19 5
-36 -16 -10 -20 -23 -20 -67 0 -48 -3 -55 -19 -55 -28 0 -36 -19 -15 -34 16
-12 15 -13 -10 -13 -25 0 -55 -18 -45 -27 9 -8 110 -13 115 -5 2 5 -4 14 -14
20 -19 12 -19 12 -1 30 11 11 19 30 19 45 0 19 7 28 30 35 17 6 30 17 30 23 0
7 12 18 26 25 24 10 26 16 21 51 -4 30 -2 40 9 40 21 0 35 -37 31 -81 -5 -45
-22 -62 -48 -48 -26 13 -29 12 -29 -15 0 -17 9 -27 30 -36 49 -20 40 -32 -25
-34 -26 -1 -34 -8 -60 -60 -43 -86 -49 -88 -137 -51 -11 4 -18 3 -18 -3 0 -6
27 -24 61 -39 50 -23 59 -31 55 -48 -4 -15 8 -33 47 -70 50 -47 94 -103 86
-108 -2 -1 -20 -10 -40 -20 l-35 -18 -61 36 c-34 20 -71 37 -84 38 -12 1 -49
26 -81 56 -50 46 -58 58 -54 80 3 14 8 56 11 93 4 53 2 69 -11 76 -19 10 -7
48 25 76 13 12 19 26 16 40 -3 12 -1 28 5 36 9 13 12 13 21 -2 19 -33 89 -15
89 22 0 25 -27 38 -67 33 -19 -2 -33 0 -33 6 0 6 4 11 10 11 5 0 13 12 16 28
4 15 22 43 41 63 l35 37 -36 12 c-54 18 -102 -5 -60 -28 12 -7 13 -11 5 -16
-7 -4 -19 -2 -28 6 -13 11 -18 9 -31 -10 -8 -12 -23 -22 -33 -22 -15 0 -18 -5
-14 -23 8 -32 -34 -53 -62 -31 -17 15 -17 15 1 9 34 -10 36 17 5 62 -39 56
-46 98 -24 148 15 35 18 38 25 20 5 -11 11 -32 14 -46z m2491 1 c-13 -21 -25
-8 -25 28 l1 37 15 -28 c8 -15 12 -32 9 -37z m45 56 c0 -3 -4 -8 -10 -11 -5
-3 -10 -1 -10 4 0 6 5 11 10 11 6 0 10 -2 10 -4z m1468 -8 c-3 -7 -14 -14 -26
-16 -16 -3 -20 1 -16 12 7 19 48 22 42 4z m-1257 -102 c29 -26 34 -37 23 -49
-10 -10 -64 33 -74 58 -6 15 -4 38 3 62 l12 38 3 -41 c2 -31 11 -48 33 -68z
m-1422 11 c18 -78 16 -94 -17 -92 -46 3 -92 35 -92 66 0 23 5 27 40 33 38 6
40 8 41 44 0 43 9 27 28 -51z m396 74 c3 -6 -3 -15 -14 -20 -27 -15 -31 -14
-31 9 0 21 33 29 45 11z m1056 -12 c20 -20 20 -21 2 -34 -24 -17 -33 -10 -33
26 0 35 3 36 31 8z m-1696 1 c3 -5 1 -10 -4 -10 -6 0 -11 5 -11 10 0 6 2 10 4
10 3 0 8 -4 11 -10z m1285 7 c0 -1 4 -17 10 -36 9 -33 9 -33 -10 -16 -21 19
-27 55 -10 55 6 0 10 -1 10 -3z m664 -16 c2 -3 -10 -23 -27 -43 -25 -29 -37
-36 -54 -32 -23 6 -37 30 -27 46 3 5 17 7 30 4 23 -6 29 3 26 35 -1 8 47 -1
52 -10z m-2554 -35 c23 -43 23 -43 4 -76 -30 -51 -48 -59 -78 -31 l-25 24 30
29 c21 21 29 39 29 64 0 46 13 43 40 -10z m1325 24 c-4 -6 -7 -31 -7 -55 0
-25 -4 -43 -9 -39 -18 10 -6 104 13 104 5 0 6 -5 3 -10z m2215 -5 c0 -8 -4
-15 -9 -15 -13 0 -22 16 -14 24 11 11 23 6 23 -9z m-2864 -10 c4 -9 -6 -33
-20 -55 -26 -40 -40 -48 -50 -31 -8 13 4 42 15 35 5 -3 9 5 9 18 0 39 35 64
46 33z m1939 -5 c0 -16 -28 -25 -52 -16 -12 5 -13 9 -3 22 16 18 55 15 55 -6z
m-1211 -17 c-10 -40 -14 -41 -14 -5 0 18 5 32 10 32 6 0 8 -11 4 -27z m96 9
c0 -9 11 -37 25 -62 14 -25 34 -63 44 -85 10 -22 32 -62 50 -89 34 -54 43 -99
16 -76 -8 7 -15 19 -15 27 0 22 -36 84 -70 123 -56 62 -94 153 -73 173 12 12
23 7 23 -11z m-1375 -2 c3 -5 1 -10 -4 -10 -6 0 -11 5 -11 10 0 6 2 10 4 10 3
0 8 -4 11 -10z m2272 -25 c0 -16 2 -34 2 -38 1 -4 10 -3 22 3 32 18 32 6 0
-29 -33 -35 -51 -40 -51 -12 0 10 -7 24 -15 31 -36 30 -23 84 19 78 16 -2 21
-11 23 -33z m508 15 c3 -5 1 -10 -4 -10 -6 0 -11 5 -11 10 0 6 2 10 4 10 3 0
8 -4 11 -10z m-1670 -22 c2 -13 3 -35 2 -50 -2 -25 -3 -26 -20 -10 -34 31 -42
54 -21 69 25 18 33 16 39 -9z m2321 11 c9 -15 -11 -33 -30 -26 -9 4 -13 13
-10 22 7 17 30 20 40 4z m-3381 -19 c-10 -17 -65 -41 -83 -38 -13 3 -8 10 18
26 36 23 76 30 65 12z m1570 0 c3 -5 1 -10 -4 -10 -6 0 -11 5 -11 10 0 6 2 10
4 10 3 0 8 -4 11 -10z m-1230 -38 c23 -15 58 -47 78 -72 20 -25 49 -58 65 -75
33 -35 68 -106 115 -230 55 -145 76 -231 66 -272 -5 -25 -3 -48 6 -72 7 -20
19 -52 25 -71 7 -19 21 -51 31 -71 11 -20 19 -53 19 -73 0 -44 20 -94 54 -139
29 -38 32 -63 12 -90 -12 -15 -14 -16 -20 -2 -3 8 -12 15 -21 15 -8 0 -15 5
-15 11 0 6 -9 9 -20 6 -23 -6 -24 -3 -8 23 18 28 2 36 -33 16 -22 -13 -34 -15
-41 -8 -8 8 -2 15 18 24 37 16 42 24 36 54 -3 17 -11 24 -29 24 -17 0 -23 5
-21 18 2 13 -3 16 -25 14 -26 -3 -27 -2 -21 24 6 24 5 26 -15 21 -24 -6 -28 5
-6 23 33 28 9 54 -34 38 -30 -11 -38 -4 -20 18 11 13 11 18 2 21 -7 3 -13 9
-13 15 0 5 6 8 13 5 23 -8 47 13 47 41 0 32 -25 72 -45 72 -18 0 -29 -41 -21
-75 4 -14 2 -25 -4 -25 -5 0 -10 5 -10 10 0 6 -11 10 -25 10 -18 0 -35 14 -63
53 -57 76 -65 82 -96 62 -14 -10 -26 -13 -26 -7 0 6 5 14 10 17 14 8 13 55 -1
55 -6 0 -9 6 -6 14 6 15 -22 46 -41 46 -7 0 -12 7 -12 15 0 21 -24 29 -48 16
-17 -9 -19 -8 -15 9 6 24 -9 26 -42 4 -30 -19 -32 -8 -5 26 16 21 22 23 38 13
16 -9 24 -9 38 2 28 21 6 51 -35 47 -22 -1 -31 2 -31 13 0 17 -25 20 -35 5 -8
-13 -45 -13 -45 -1 0 14 65 81 79 81 6 0 11 -7 11 -15 0 -20 9 -19 50 8 61 40
87 48 100 31 16 -19 46 -18 54 2 8 20 -48 74 -76 74 -11 0 -31 -9 -45 -20 -14
-11 -31 -20 -38 -20 -17 0 -25 24 -14 41 14 23 11 25 -41 25 -48 0 -49 -1 -43
-25 3 -14 13 -34 22 -44 14 -17 14 -20 -4 -33 -10 -8 -24 -14 -31 -14 -19 0
-28 20 -15 33 19 19 12 28 -16 22 l-28 -6 22 17 23 16 -26 31 c-14 16 -23 36
-19 45 5 15 4 14 -58 -5 -35 -11 -6 26 37 47 56 27 70 27 55 -2 -10 -18 -9
-20 4 -15 9 3 26 -2 39 -12 13 -10 32 -21 43 -25 22 -6 21 -9 17 77 -2 24 -5
27 -24 22 -23 -6 -23 -6 -3 10 11 9 28 13 38 10 9 -3 26 -8 37 -11 12 -4 22
-1 25 7 28 81 25 80 100 31z m1357 11 c-7 -3 -26 -16 -42 -30 -24 -20 -30 -22
-30 -9 0 9 8 20 18 23 9 4 23 15 31 26 10 14 16 16 25 7 8 -9 8 -14 -2 -17z
m-1632 7 c0 -5 -4 -10 -10 -10 -5 0 -10 5 -10 10 0 6 5 10 10 10 6 0 10 -4 10
-10z m90 -5 c0 -22 -59 -50 -74 -35 -8 9 -8 14 0 17 6 2 20 10 30 18 25 19 44
19 44 0z m3268 -2 c2 -8 -6 -13 -22 -13 -19 0 -24 4 -19 15 6 18 34 16 41 -2z
m-1824 -24 c-10 -16 -24 -9 -24 12 0 18 2 19 15 9 8 -7 12 -16 9 -21z m-1094
-9 c7 -13 7 -26 2 -36 -8 -14 -12 -12 -31 14 -26 37 -26 42 -1 42 10 0 24 -9
30 -20z m2202 5 c0 -5 -5 -11 -11 -13 -6 -2 -11 4 -11 13 0 9 5 15 11 13 6 -2
11 -8 11 -13z m-2992 -32 c0 -6 -8 -13 -17 -15 -30 -7 -53 3 -53 22 0 10 8 20
18 22 21 5 52 -12 52 -29z m1460 -33 c4 0 15 -11 24 -25 16 -25 16 -25 -3 -13
-22 14 -61 79 -60 99 1 8 8 -3 16 -23 9 -21 19 -38 23 -38z m1485 33 c13 -32
14 -45 4 -80 -6 -23 -9 -49 -6 -58 4 -8 2 -15 -2 -15 -19 0 -22 -35 -5 -47 10
-7 15 -16 11 -19 -4 -4 -13 -1 -21 5 -18 15 -40 5 -32 -14 3 -8 -2 -19 -11
-26 -12 -11 -17 -10 -24 4 -6 9 -17 17 -25 17 -13 0 -15 -9 -9 -58 3 -32 8
-100 9 -151 3 -64 8 -96 17 -102 22 -13 -18 -50 -46 -43 -17 4 -38 -6 -79 -38
-31 -24 -56 -49 -56 -55 0 -11 -49 -43 -64 -43 -3 0 -9 18 -12 40 -4 21 -15
47 -25 56 -25 22 -24 46 1 62 26 16 26 61 1 106 -19 33 -19 34 0 29 11 -3 19
-14 19 -25 0 -20 53 -78 71 -78 14 0 10 43 -6 64 -24 32 -18 58 26 106 43 47
38 65 -9 31 -54 -38 -98 -34 -115 12 -5 14 1 21 28 33 19 8 40 13 46 12 6 -2
14 3 16 10 3 7 -4 13 -16 13 -37 2 -42 4 -49 15 -4 6 -15 13 -24 17 -11 4 -19
23 -24 54 -8 57 -20 75 -48 72 -34 -2 -46 0 -46 10 0 8 104 91 114 91 2 0 12
-8 22 -17 12 -12 32 -17 66 -17 28 0 48 -4 48 -10 0 -6 5 -4 11 4 9 12 10 11
6 -6 -2 -12 4 -32 14 -45 10 -13 19 -32 19 -41 0 -10 7 -18 15 -18 8 0 15 5
15 10 0 6 20 19 45 30 25 11 45 26 45 34 0 8 5 18 10 21 6 4 10 -5 10 -19 0
-17 -14 -40 -41 -66 -46 -45 -46 -59 1 -40 47 19 111 166 80 185 -13 8 -13 25
0 25 5 0 17 -17 25 -37z m-2700 17 c-3 -5 -11 -10 -16 -10 -6 0 -7 5 -4 10 3
6 11 10 16 10 6 0 7 -4 4 -10z m2129 -22 c9 -17 16 -46 16 -65 0 -18 4 -33 9
-33 10 0 41 -56 41 -74 0 -17 -37 26 -64 76 -16 29 -26 63 -26 87 0 23 2 41 4
41 3 0 12 -14 20 -32z m46 -5 c-1 -27 -1 -27 -15 -9 -14 19 -12 36 6 36 5 0 9
-12 9 -27z m-2120 -8 c0 -7 -10 -15 -23 -19 -13 -3 -43 -19 -67 -35 -25 -16
-46 -29 -47 -27 -1 1 0 12 4 24 3 15 13 22 29 22 13 0 24 4 24 9 0 12 62 51
72 45 4 -3 8 -11 8 -19z m1010 -2 c0 -13 -3 -13 -15 -3 -8 7 -15 16 -15 21 0
5 7 6 15 3 8 -4 15 -13 15 -21z m-1538 2 c0 -5 -9 -14 -21 -20 -14 -6 -21 -19
-21 -37 0 -15 -9 -36 -21 -47 -15 -14 -21 -33 -22 -70 -1 -28 -6 -52 -12 -54
-5 -1 -18 17 -29 41 -22 44 -34 50 -54 30 -19 -19 -15 -47 6 -41 19 4 50 -22
35 -30 -25 -14 -62 -16 -72 -3 -10 11 -9 21 4 46 9 17 13 35 9 41 -3 6 2 19
11 29 13 14 23 17 40 10 31 -12 87 32 67 52 -16 16 -15 28 1 28 8 0 22 9 32
20 19 21 45 24 47 5z m1266 -10 c17 -38 15 -55 -8 -55 -25 0 -34 21 -26 55 8
32 20 32 34 0z m1417 15 c3 -5 1 -10 -4 -10 -6 0 -11 5 -11 10 0 6 2 10 4 10
3 0 8 -4 11 -10z m-1495 -16 c0 -8 -5 -12 -10 -9 -6 4 -8 11 -5 16 9 14 15 11
15 -7z m1080 -5 c0 -18 -2 -19 -15 -9 -8 7 -15 16 -15 21 0 5 7 9 15 9 9 0 15
-9 15 -21z m-835 1 c3 -5 1 -10 -4 -10 -6 0 -11 5 -11 10 0 6 2 10 4 10 3 0 8
-4 11 -10z m2561 -32 c47 -54 49 -61 10 -34 -21 14 -43 26 -47 26 -5 0 -9 7
-9 15 0 22 24 18 46 -7z m-597 -72 c11 -10 18 -23 15 -28 -3 -5 3 -41 14 -81
39 -140 48 -227 24 -227 -5 0 -31 16 -91 57 -2 1 -5 51 -7 110 -1 70 -9 134
-22 182 l-20 75 33 -35 c19 -19 43 -43 54 -53z m-3606 54 c-3 -11 -9 -17 -14
-15 -10 7 -1 35 11 35 5 0 6 -9 3 -20z m1855 -56 l-3 -29 -28 36 c-17 23 -25
43 -21 54 11 29 57 -24 52 -61z m211 17 c25 -42 27 -50 14 -55 -24 -10 -63 49
-63 95 0 28 13 17 49 -40z m-1994 40 c3 -5 1 -12 -5 -16 -5 -3 -10 1 -10 9 0
18 6 21 15 7z m1611 -29 c-9 -8 -26 10 -26 26 1 15 2 15 15 -2 8 -11 13 -21
11 -24z m-1020 -21 c-10 -10 -27 -21 -39 -24 -20 -5 -19 -3 6 19 33 28 58 32
33 5z m766 -24 c28 -27 47 -56 51 -77 9 -43 2 -49 -16 -13 -8 15 -27 39 -41
52 -29 27 -60 81 -46 81 4 0 28 -19 52 -43z m132 -11 c-3 -7 -10 -13 -17 -13
-7 0 -18 -2 -26 -4 -25 -7 -23 27 1 38 26 12 50 0 42 -21z m456 -6 c6 -11 8
-20 6 -20 -3 0 -10 9 -16 20 -6 11 -8 20 -6 20 3 0 10 -9 16 -20z m-1320 0 c0
-5 -5 -10 -11 -10 -5 0 -7 5 -4 10 3 6 8 10 11 10 2 0 4 -4 4 -10z m1037 -35
c-19 -30 -37 -37 -37 -16 0 13 44 59 52 54 4 -2 -2 -19 -15 -38z m1203 26 c0
-4 11 -24 25 -44 31 -47 15 -57 -19 -13 -26 35 -34 66 -16 66 6 0 10 -4 10 -9z
m-2287 -21 c-10 -11 -24 -20 -33 -20 -11 1 -8 6 9 20 30 26 46 26 24 0z m1453
-110 c-15 -59 -41 -110 -56 -110 -4 0 -13 7 -20 15 -18 22 -27 19 -85 -31 -30
-25 -59 -43 -65 -39 -7 4 7 18 32 34 57 37 98 79 115 118 7 18 17 32 21 32 23
-4 32 4 32 30 0 16 6 31 13 34 23 8 28 -23 13 -83z m714 46 c0 -5 -7 -3 -15 4
-8 7 -15 20 -15 28 0 13 3 12 15 -4 8 -10 15 -23 15 -28z m-864 3 c23 -25 11
-63 -32 -105 -43 -42 -73 -50 -113 -30 -38 20 -40 29 -3 22 41 -8 96 23 100
57 2 15 -1 27 -7 27 -6 0 -11 13 -11 29 0 25 3 28 24 24 14 -3 32 -13 42 -24z
m-1286 11 c0 -5 -5 -10 -11 -10 -5 0 -7 5 -4 10 3 6 8 10 11 10 2 0 4 -4 4
-10z m88 -22 c1 -23 -2 -28 -8 -18 -12 19 -13 50 -2 50 5 0 9 -14 10 -32z
m1042 -3 c0 -16 -27 -32 -37 -21 -7 7 16 36 28 36 5 0 9 -7 9 -15z m2510 -5
c0 -11 -4 -20 -10 -20 -5 0 -10 9 -10 20 0 11 5 20 10 20 6 0 10 -9 10 -20z
m-4210 6 c0 -11 -19 -15 -25 -6 -3 5 1 10 9 10 9 0 16 -2 16 -4z m380 -16 c0
-5 -2 -10 -4 -10 -3 0 -8 5 -11 10 -3 6 -1 10 4 10 6 0 11 -4 11 -10z m2317
-87 c-7 -6 -66 58 -66 72 0 6 16 -7 35 -28 20 -21 33 -41 31 -44z m1133 67 c0
-5 -5 -10 -11 -10 -5 0 -7 5 -4 10 3 6 8 10 11 10 2 0 4 -4 4 -10z m-3220 -24
c-8 -8 -26 -17 -40 -21 -21 -7 -22 -6 -9 7 15 15 36 26 54 27 5 1 3 -5 -5 -13z
m-580 -21 c-7 -9 -15 -13 -19 -10 -3 3 1 10 9 15 21 14 24 12 10 -5z m328 -33
c1 -23 -1 -42 -6 -42 -17 0 -29 25 -29 58 0 24 4 32 16 30 11 -2 17 -17 19
-46z m3583 3 c12 -14 14 -25 8 -37 -6 -12 -6 -18 1 -18 5 0 10 -7 10 -15 0
-10 11 -15 33 -16 30 0 30 -1 10 -11 -12 -6 -23 -20 -25 -32 -2 -14 -11 -22
-28 -24 -14 -1 -44 -10 -68 -18 -24 -9 -46 -14 -49 -10 -5 5 6 11 74 36 32 12
53 47 37 59 -15 11 -41 65 -48 100 -5 31 -5 32 11 20 10 -8 25 -23 34 -34z
m-3283 13 c-18 -27 -48 -36 -48 -15 0 12 29 30 59 36 2 1 -3 -9 -11 -21z m698
-63 c-4 -14 -11 -23 -16 -20 -11 7 -13 48 -3 59 13 13 26 -13 19 -39z m1984
25 c0 -5 -4 -10 -10 -10 -5 0 -10 5 -10 10 0 6 5 10 10 10 6 0 10 -4 10 -10z
m402 -2 c3 -7 3 -19 1 -26 -6 -16 -33 4 -33 24 0 17 26 18 32 2z m-3058 -7 c3
-5 -1 -11 -9 -15 -9 -3 -15 0 -15 9 0 16 16 20 24 6z m-686 -18 c-2 -10 -9
-18 -16 -18 -8 0 -19 -8 -26 -17 -7 -10 -16 -18 -20 -18 -13 0 -5 27 14 48 25
27 53 29 48 5z m1684 -9 c22 -11 27 -19 19 -27 -12 -12 -81 15 -81 33 0 15 27
12 62 -6z m1181 1 c-3 -9 -8 -14 -10 -11 -3 3 -2 9 2 15 9 16 15 13 8 -4z
m413 -10 c8 -20 -13 -45 -37 -45 -23 0 -24 9 -3 38 18 26 32 28 40 7z m630
-22 c-9 -9 -79 -33 -84 -28 -6 6 52 34 72 35 11 0 16 -3 12 -7z m-1940 -41
c-23 -23 -33 -6 -10 19 12 13 20 16 22 9 3 -7 -3 -19 -12 -28z m-1916 -12 c0
-15 -5 -12 -26 11 -19 22 -19 22 4 10 12 -6 22 -16 22 -21z m1560 -8 c0 -13
-3 -13 -22 0 -33 22 -36 41 -4 27 14 -7 26 -19 26 -27z m-1581 -36 c15 -16 35
-26 52 -26 21 0 31 -7 41 -27 23 -49 150 -121 167 -96 10 17 70 21 82 6 7 -7
31 -13 56 -13 34 0 50 6 69 25 14 14 29 25 34 25 6 0 10 8 10 17 0 14 2 15 13
4 10 -10 7 -17 -16 -36 l-27 -24 20 -36 c47 -84 4 -165 -87 -165 -57 0 -95 22
-123 72 -23 40 -37 48 -46 23 -14 -34 74 -133 128 -144 47 -10 56 -37 64 -182
5 -94 11 -134 26 -163 33 -66 69 -276 69 -399 -1 -60 -3 -112 -6 -117 -3 -5
-8 -46 -10 -92 -4 -85 -12 -137 -45 -313 -10 -55 -22 -127 -25 -160 -7 -68
-35 -237 -40 -246 -2 -3 -11 -52 -21 -110 -9 -57 -22 -112 -29 -122 -8 -11
-12 -24 -9 -31 2 -6 -1 -34 -7 -61 -6 -28 -14 -77 -19 -110 -4 -33 -13 -87
-19 -119 -9 -40 -9 -61 -2 -65 7 -5 5 -16 -4 -35 -21 -39 -19 -54 8 -61 12 -4
33 -17 47 -30 35 -31 81 -53 128 -61 50 -8 62 -31 24 -45 -49 -19 -79 -21
-103 -8 -14 8 -61 14 -114 15 -94 1 -135 9 -135 25 0 5 -6 9 -12 9 -13 -1 -49
-53 -81 -115 -8 -16 -29 -43 -45 -58 -27 -26 -31 -27 -46 -12 -12 12 -13 21
-6 35 24 45 5 53 -33 14 -28 -28 -60 -29 -65 -2 -5 24 38 109 59 116 21 8 64
70 87 126 18 44 19 76 7 361 l-7 160 32 80 c29 73 31 88 28 165 -3 47 -11 99
-19 115 -14 30 -14 30 -17 -32 -2 -35 -8 -63 -13 -63 -6 0 -7 4 -4 10 3 5 -1
10 -9 10 -9 0 -16 -7 -16 -15 0 -8 8 -15 18 -15 11 0 19 -7 19 -16 0 -9 -9
-19 -19 -22 -10 -2 -18 -13 -18 -26 1 -21 1 -21 15 -2 15 19 15 19 15 -5 0
-46 -39 -207 -65 -270 -36 -90 -68 -135 -105 -148 -28 -9 -31 -9 -20 4 7 8 18
15 25 15 7 0 18 7 25 15 10 12 10 15 -4 15 -9 0 -18 0 -21 0 -3 0 -5 -3 -6 -7
-1 -12 -20 -33 -30 -33 -4 0 -14 7 -23 15 -13 13 -15 13 -21 -5 -3 -11 -11
-20 -16 -20 -6 0 -8 8 -5 18 3 9 1 24 -4 32 -7 12 -11 10 -18 -10 -9 -24 -9
-24 -38 17 -17 22 -36 59 -43 81 -14 43 -9 78 10 66 8 -5 8 -8 0 -14 -9 -5 -9
-13 0 -33 13 -29 36 -38 24 -9 -4 9 -7 25 -7 34 1 24 -15 32 -73 36 -27 2 -52
6 -55 8 -8 8 24 24 38 19 10 -4 8 5 -5 27 -11 20 -29 34 -43 36 -28 5 -72 49
-90 91 -17 42 -10 55 18 35 16 -11 20 -20 14 -26 -7 -7 -7 -18 1 -35 l11 -24
11 28 c8 18 9 37 3 52 -5 15 -4 28 3 37 6 8 8 21 5 30 -4 10 -2 14 6 11 7 -2
12 -15 11 -28 -1 -13 1 -18 3 -11 10 23 24 1 24 -40 0 -33 3 -39 17 -34 9 4
19 2 23 -4 4 -7 18 -8 33 -4 24 5 27 11 27 49 0 53 14 64 44 36 28 -26 51 -20
86 21 36 42 62 30 58 -26 -2 -30 1 -41 12 -42 34 -2 40 -4 40 -14 0 -5 -7 -10
-15 -10 -8 0 -21 -12 -29 -28 -20 -38 -53 -65 -71 -58 -11 4 -17 -2 -22 -24
-4 -21 -13 -32 -30 -36 -37 -10 -44 -34 -27 -92 16 -55 60 -102 96 -102 27 0
78 31 78 48 0 8 13 42 30 77 38 80 61 177 67 289 3 55 8 84 14 75 6 -10 11
-11 20 -2 14 14 2 36 -17 29 -9 -3 -14 2 -14 14 0 11 3 19 8 19 19 -3 23 2 12
16 -7 8 -10 22 -6 30 4 10 -1 15 -15 15 -17 0 -20 5 -17 33 2 24 8 32 23 32
25 0 24 22 -5 95 -12 30 -29 75 -38 100 -8 25 -21 59 -28 76 -17 40 -49 189
-64 294 -10 76 -9 95 9 175 11 52 35 119 56 159 36 67 37 70 30 150 -3 44 -14
108 -24 141 -10 33 -27 86 -36 118 -10 33 -23 57 -31 57 -21 0 -17 -36 12
-125 31 -96 31 -127 5 -240 -12 -48 -24 -112 -27 -143 -3 -32 -10 -69 -15 -83
-6 -14 -16 -77 -24 -140 -22 -183 -71 -331 -112 -342 -10 -3 -31 -8 -48 -12
-16 -3 -40 -17 -53 -31 -14 -13 -29 -24 -34 -24 -5 0 -6 -15 -3 -32 4 -23 1
-39 -10 -53 -15 -19 -16 -17 -11 34 3 29 12 64 21 77 8 13 15 29 15 36 0 7 15
28 33 48 62 65 70 105 58 302 -8 138 -7 189 4 253 9 54 12 132 9 237 -6 217
17 455 51 524 31 63 49 80 133 125 65 34 68 35 92 18 14 -9 36 -29 49 -43z
m391 49 c0 -9 -6 -12 -16 -8 -13 5 -13 7 -2 14 17 11 18 11 18 -6z m1291 -10
c16 -9 27 -20 23 -26 -4 -7 -12 -5 -23 5 -10 9 -25 16 -35 16 -9 0 -14 5 -11
10 8 13 11 13 46 -5z m2319 -15 c0 -5 -12 -12 -27 -16 -16 -3 -57 -15 -92 -25
-74 -22 -71 -22 -71 -9 0 5 26 17 58 26 31 9 61 20 67 25 12 12 65 11 65 -1z
m-3540 -15 c16 -19 7 -30 -17 -20 -10 5 -24 7 -30 6 -7 -1 -13 2 -13 8 0 8 14
15 41 20 4 0 12 -6 19 -14z m1356 -11 c-3 -9 -6 -20 -6 -25 0 -5 -7 -9 -15 -9
-12 0 -13 4 -3 25 12 27 34 35 24 9z m665 -10 c10 -13 10 -17 -2 -24 -13 -9
-26 6 -28 33 -2 12 16 8 30 -9z m1540 -7 c-1 -12 -15 -9 -19 4 -3 6 1 10 8 8
6 -3 11 -8 11 -12z m-3844 -29 c11 -13 29 -28 39 -35 17 -10 14 -12 -23 -12
-47 -1 -74 19 -66 49 7 26 25 25 50 -2z m3824 -36 c8 -19 21 -37 27 -41 18
-11 5 -36 -24 -50 -14 -6 -32 -27 -39 -45 -10 -22 -21 -34 -32 -34 -33 3 -93
-13 -93 -24 0 -6 9 -8 20 -5 11 3 20 2 20 -3 0 -4 -11 -10 -25 -12 -19 -4 -25
-1 -25 12 0 22 15 34 62 49 46 15 58 29 20 25 -26 -4 -25 -3 6 11 49 23 39 36
-15 20 -56 -17 -73 -18 -73 -6 0 5 26 15 57 21 84 18 105 29 97 54 -4 11 -13
26 -20 34 -19 19 -17 34 3 30 10 -2 25 -18 34 -36z m-2431 16 c0 -7 -4 -19 -9
-26 -7 -11 -10 -10 -15 3 -3 9 -4 21 0 26 8 13 24 11 24 -3z m1540 -7 c0 -26
-27 -48 -42 -33 -9 9 -7 17 7 32 23 25 35 26 35 1z m820 15 c0 -2 -7 -6 -15
-10 -8 -3 -15 -1 -15 4 0 6 7 10 15 10 8 0 15 -2 15 -4z m-1933 -26 c-3 -11
-2 -20 2 -20 10 0 1 -59 -10 -65 -4 -3 -8 7 -8 22 0 15 -2 40 -6 56 -6 22 -4
27 10 27 12 0 16 -6 12 -20z m-1101 -5 c-11 -8 -24 -15 -30 -15 -5 0 -1 7 10
15 10 8 24 14 29 14 6 0 1 -6 -9 -14z m-471 -5 c-3 -5 -17 -10 -31 -10 -14 0
-22 4 -19 10 3 6 17 10 31 10 14 0 22 -4 19 -10z m2441 -55 c-3 -8 -1 -16 5
-19 5 -2 4 -3 -3 -2 -7 1 -14 18 -16 37 -2 28 -1 31 9 16 6 -10 8 -24 5 -32z
m-1052 10 c-4 -8 -10 -13 -15 -10 -4 3 -6 12 -3 20 4 8 10 13 15 10 4 -3 6
-12 3 -20z m93 -7 c-3 -8 -6 -5 -6 6 -1 11 2 17 5 13 3 -3 4 -12 1 -19z m1973
2 c-8 -5 -24 -9 -35 -9 l-20 0 20 9 c11 5 27 9 35 9 13 1 13 0 0 -9z m-3327
-39 c9 -16 17 -33 17 -38 -1 -9 -26 21 -41 50 -17 29 6 19 24 -12z m2427 3 c0
-16 -35 -19 -45 -5 -6 11 26 32 37 25 5 -3 8 -12 8 -20z m1100 -8 c0 -2 -7 -6
-15 -10 -8 -3 -15 -1 -15 4 0 6 7 10 15 10 8 0 15 -2 15 -4z m200 -3 c-1 -21
-13 -52 -20 -48 -10 6 0 55 11 55 5 0 9 -3 9 -7z m-414 -28 c-20 -15 -36 -19
-36 -10 0 5 38 23 50 24 3 0 -4 -6 -14 -14z m304 -29 c0 -21 -63 -114 -88
-129 -15 -10 -35 10 -28 28 4 12 13 15 31 11 18 -5 25 -2 25 9 0 8 5 15 10 15
6 0 10 5 10 10 0 6 -12 10 -26 10 -15 0 -23 4 -19 10 4 6 15 8 26 5 13 -4 21
-1 26 11 4 10 2 19 -5 22 -22 7 -13 22 13 22 20 0 25 -5 25 -24z m-3576 -10
c3 -14 14 -32 23 -42 16 -15 16 -17 -2 -30 -10 -8 -25 -14 -32 -14 -30 0 -9
-96 26 -115 l26 -14 -22 -7 c-18 -5 -23 -14 -23 -40 0 -40 23 -46 56 -15 25
23 54 11 54 -22 0 -17 -2 -19 -9 -8 -8 12 -14 13 -35 3 -23 -10 -26 -18 -26
-61 0 -27 5 -53 10 -56 6 -4 23 5 38 20 21 22 28 24 30 12 2 -9 -1 -24 -6 -34
-14 -26 -3 -79 19 -99 11 -10 19 -30 19 -49 0 -17 5 -36 12 -43 8 -8 8 -12 1
-12 -6 0 -16 14 -22 31 -10 29 -13 31 -46 25 -37 -7 -45 3 -20 24 15 13 22 89
8 91 -30 3 -47 9 -55 21 -10 14 -8 -4 16 -137 8 -44 17 -141 21 -215 8 -170
23 -216 91 -282 42 -41 94 -115 94 -134 0 -5 -70 48 -110 84 -52 46 -78 17
-40 -46 35 -57 22 -69 -29 -26 -19 16 -33 39 -37 62 -4 20 -18 66 -31 102 -15
42 -23 88 -23 130 -1 142 -26 333 -51 385 -22 46 -23 62 -24 221 l0 170 27 36
c20 26 33 35 47 31 22 -6 37 13 23 30 -14 19 -22 47 -13 47 5 0 12 -11 15 -24z
m1082 -54 c17 -41 18 -55 3 -50 -9 3 -49 90 -49 107 0 13 34 -29 46 -57z m663
27 c12 -12 20 -24 16 -27 -3 -3 -18 6 -33 21 -31 32 -16 37 17 6z m528 -19
c-9 -33 -16 -40 -35 -40 -21 0 -23 3 -17 27 9 36 23 53 45 53 15 0 16 -5 7
-40z m-1282 -47 c7 -26 10 -52 6 -58 -3 -5 -7 4 -9 22 -2 17 -10 37 -18 43 -8
7 -14 24 -14 38 0 39 20 13 35 -45z m-425 48 c0 -5 -9 -11 -20 -14 -22 -6 -28
8 -7 16 19 8 27 8 27 -2z m2728 -17 c-9 -10 -21 -13 -29 -8 -9 5 -8 9 7 15 31
12 39 10 22 -7z m-3213 -66 c4 -22 3 -38 -2 -38 -12 0 -34 70 -26 83 9 14 21
-5 28 -45z m1637 0 c-13 -13 -32 -2 -32 18 0 12 4 13 21 3 14 -7 18 -14 11
-21z m1756 -45 c-2 -10 4 -25 14 -33 21 -18 35 -70 19 -70 -6 0 -11 5 -11 12
0 6 -11 26 -25 44 -22 28 -24 36 -14 61 12 28 23 18 17 -14z m-3396 -65 c-7
-7 -14 -3 -21 10 -9 17 -8 23 6 31 14 8 19 6 21 -11 2 -11 -1 -25 -6 -30z
m2128 -59 c0 -6 -5 -20 -11 -32 l-12 -21 -9 24 c-6 16 -5 26 4 32 18 11 28 10
28 -3z m-61 -51 c1 -5 -3 -8 -9 -8 -5 0 -10 12 -9 28 0 24 1 25 9 7 5 -11 9
-23 9 -27z m-1314 -18 c3 -5 1 -10 -4 -10 -6 0 -11 5 -11 10 0 6 2 10 4 10 3
0 8 -4 11 -10z m436 -23 c-10 -9 -11 -8 -5 6 3 10 9 15 12 12 3 -3 0 -11 -7
-18z m1999 4 c0 -16 -30 -33 -46 -27 -16 6 -15 8 2 21 21 16 44 19 44 6z
m-2287 -77 c22 -25 46 -43 53 -40 7 3 16 1 19 -4 3 -4 -11 -14 -30 -20 -44
-15 -48 -22 -30 -56 14 -28 14 -29 -9 -32 -14 -2 -32 -15 -41 -29 -16 -24 -16
-26 5 -48 14 -15 18 -25 11 -30 -14 -8 -14 -45 -1 -45 6 0 10 -4 10 -10 0 -5
-8 -7 -17 -3 -17 6 -17 5 -2 -13 9 -10 22 -40 29 -66 13 -51 5 -74 -38 -104
-19 -13 -20 -12 -17 23 3 31 -11 78 -43 141 -11 22 -58 46 -76 39 -10 -4 -16
-18 -16 -36 0 -20 -8 -35 -22 -45 -24 -17 -54 -21 -62 -8 -9 15 6 52 20 52 23
0 16 27 -8 34 -40 10 -65 6 -83 -14 -10 -11 -30 -20 -44 -20 -15 0 -31 8 -39
20 -16 26 -59 26 -67 1 -3 -11 -14 -23 -25 -26 -27 -9 -34 -37 -13 -52 14 -11
15 -17 6 -32 -10 -15 -9 -22 2 -31 16 -13 20 -40 8 -40 -35 1 -53 15 -53 40 0
15 -9 35 -20 45 -43 39 9 131 81 141 19 3 48 9 65 15 17 5 50 7 73 3 45 -7 55
6 19 24 -38 18 -1 13 60 -8 34 -12 58 -16 60 -10 2 5 17 10 33 10 38 0 37 16
-3 35 l-33 15 35 -5 c19 -3 52 -8 73 -12 52 -8 41 19 -16 38 l-42 14 53 3 c28
2 52 7 52 13 0 11 -10 15 -63 24 -45 7 -45 29 -1 31 42 3 44 3 44 14 0 6 -7
10 -15 10 -8 0 -15 5 -15 10 0 6 7 13 15 16 33 13 12 24 -36 21 -27 -2 -47 -1
-42 3 12 10 87 30 112 30 11 0 21 5 21 10 0 22 24 8 63 -36z m1167 -114 c0
-35 -31 -100 -48 -100 -9 0 -25 -9 -36 -19 -21 -20 -21 -20 -22 24 -1 39 1 43
21 40 18 -2 26 6 37 34 8 20 13 42 10 49 -6 19 -28 14 -40 -10 -11 -23 -11
-23 -7 2 2 14 4 28 4 32 1 3 9 8 19 10 21 5 62 -36 62 -62z m-1057 3 c3 -16 3
-30 1 -33 -7 -7 -24 23 -24 43 0 27 17 20 23 -10z m-1006 -55 c-3 -8 -6 -5 -6
6 -1 11 2 17 5 13 3 -3 4 -12 1 -19z m1259 -25 c-4 -4 -11 -1 -16 7 -16 25
-11 35 7 17 9 -9 13 -20 9 -24z m-152 2 c-4 -8 -8 -15 -10 -15 -2 0 -4 7 -4
15 0 8 4 15 10 15 5 0 7 -7 4 -15z m-84 -5 c0 -5 -2 -10 -4 -10 -3 0 -8 5 -11
10 -3 6 -1 10 4 10 6 0 11 -4 11 -10z m-959 -54 c4 -23 16 -47 31 -59 18 -15
29 -39 36 -75 9 -51 8 -54 -14 -64 -13 -6 -24 -17 -26 -25 -3 -12 -6 -11 -23
2 -12 9 -14 13 -4 10 8 -3 23 3 33 14 14 15 16 29 11 66 -6 40 -10 46 -29 43
-18 -3 -22 -12 -26 -58 l-6 -55 -12 40 c-16 53 -15 59 8 80 28 25 25 52 -10
85 -16 15 -30 30 -30 32 0 2 12 3 27 2 24 -1 29 -6 34 -38z m1891 -53 c21 -19
23 -41 6 -95 -9 -31 -16 -38 -30 -35 -10 3 -16 1 -12 -4 3 -5 -1 -9 -9 -9 -8
0 -19 -10 -26 -22 -7 -14 -9 -16 -6 -5 3 10 5 32 5 49 0 26 3 29 23 24 20 -5
24 0 33 32 6 21 8 44 6 50 -6 20 -32 14 -32 -7 0 -11 -5 -23 -10 -26 -7 -4 -8
3 -4 22 12 49 24 55 56 26z m-267 -40 c34 -40 35 -42 31 -119 -4 -89 -10 -110
-37 -125 -21 -11 -24 -8 -33 52 -5 29 -3 38 10 43 14 5 14 9 3 22 -18 22 -20
44 -3 44 23 0 15 33 -15 63 -26 26 -30 27 -45 12 -19 -20 -20 -29 -4 -55 10
-15 10 -22 1 -31 -8 -8 -10 -31 -6 -69 6 -63 -4 -79 -37 -58 -24 15 -26 28 -5
28 8 0 15 5 15 11 0 6 -9 9 -20 6 -19 -5 -19 -4 -4 21 13 23 13 32 3 57 -7 17
-11 35 -10 42 1 6 -3 14 -9 18 -15 9 -12 33 8 59 14 20 25 23 70 21 48 -2 56
-6 87 -42z m-655 -13 c8 -5 11 -10 5 -10 -5 0 -17 5 -25 10 -8 5 -10 10 -5 10
6 0 17 -5 25 -10z m354 -109 c-9 -60 -45 -126 -69 -126 -21 0 -26 38 -10 65 5
9 4 15 -3 18 -17 5 -15 22 3 22 21 0 35 40 21 62 -8 14 -6 21 9 32 18 14 22
13 38 -6 14 -17 16 -31 11 -67z m-790 54 c3 -9 0 -25 -7 -36 -10 -17 -9 -22
12 -38 23 -17 23 -19 5 -29 -15 -8 -16 -13 -6 -25 10 -11 10 -21 1 -41 -16
-34 -31 -33 -48 5 -12 27 -11 32 5 50 18 19 17 21 -10 43 -28 22 -28 23 -12
54 18 34 50 43 60 17z m446 -4 c0 -14 -21 -18 -62 -13 -55 6 -46 22 12 22 28
0 50 -4 50 -9z m240 -3 c0 -5 0 -15 0 -24 0 -12 -3 -14 -12 -6 -7 6 -55 13
-105 17 -51 4 -90 11 -88 15 6 10 205 7 205 -2z m-590 -18 c0 -5 -4 -10 -10
-10 -5 0 -10 5 -10 10 0 6 5 10 10 10 6 0 10 -4 10 -10z m800 -6 c0 -2 -9 -4
-21 -4 -11 0 -18 4 -14 10 5 8 35 3 35 -6z m-686 -96 c25 -35 19 -39 -19 -17
-19 12 -35 25 -35 30 0 18 39 8 54 -13z m-424 -8 c6 -11 7 -20 2 -20 -6 0 -12
9 -15 20 -3 11 -3 20 -1 20 2 0 8 -9 14 -20z m1495 -4 c17 -13 18 -18 8 -53
-22 -75 -38 -108 -66 -135 -26 -26 -31 -40 -27 -85 2 -25 -41 -114 -47 -96 -2
7 0 21 6 32 16 29 13 71 -4 77 -20 8 -19 24 0 24 20 0 38 47 31 81 -3 15 1 35
9 45 14 18 15 18 12 -6 -1 -19 3 -25 17 -25 15 0 23 12 33 50 15 58 11 75 -17
75 -20 0 -26 11 -13 23 11 11 38 8 58 -7z m-1666 -30 c12 -18 21 -44 20 -57
-1 -21 -2 -20 -15 9 -16 37 -37 38 -42 3 -3 -16 2 -24 18 -28 13 -3 19 -11 16
-19 -4 -11 1 -10 20 2 32 22 52 7 33 -24 -12 -18 -10 -24 11 -47 13 -14 29
-25 36 -25 15 0 78 -69 97 -107 8 -15 24 -37 36 -47 43 -39 14 -57 -31 -18
-10 8 -27 12 -38 9 -28 -7 -81 25 -103 63 -15 25 -17 36 -8 62 10 29 8 36 -17
67 -16 20 -39 37 -50 39 -41 6 -77 84 -54 118 5 8 40 32 49 34 1 0 11 -15 22
-34z m581 -26 c0 -18 -19 -11 -30 11 -11 19 -10 20 9 9 12 -6 21 -15 21 -20z
m2469 -80 c0 -85 -3 -105 -24 -144 -23 -44 -24 -46 -5 -46 13 0 20 7 20 19 0
25 27 35 39 13 14 -24 -22 -86 -84 -146 -36 -34 -57 -64 -64 -91 -14 -51 0
-67 33 -36 15 14 39 23 70 26 l46 4 0 -60 c0 -44 -5 -63 -17 -74 -93 -81 -94
-82 -100 -167 -5 -70 -40 -165 -75 -208 -47 -58 -172 -84 -236 -50 -48 25 -63
38 -88 75 -33 47 -69 208 -53 236 5 10 9 30 9 46 1 28 1 28 20 -9 11 -20 25
-70 30 -110 22 -155 43 -176 178 -180 32 -1 48 5 68 23 38 36 66 106 60 155
-6 58 -19 79 -87 149 -54 55 -60 66 -70 124 -18 101 21 193 46 109 13 -41 30
-46 51 -13 16 25 16 27 -3 48 -29 31 -35 59 -27 123 5 46 14 65 48 104 61 72
64 69 40 -56 -5 -24 -2 -33 13 -38 30 -12 63 36 63 92 0 26 6 57 13 69 6 11
25 44 41 72 16 28 32 48 37 45 4 -2 8 -49 8 -104z m-1701 83 c-1 -10 0 -23 4
-28 4 -6 2 -17 -3 -25 -8 -13 -10 -13 -19 0 -11 17 -13 54 -3 63 12 13 24 7
21 -10z m-1102 -34 c7 -12 -12 -29 -34 -29 -16 0 -26 25 -18 45 4 12 10 14 25
5 11 -5 23 -15 27 -21z m1194 -4 c0 -12 -7 -25 -15 -29 -16 -6 -18 5 -9 41 8
28 24 20 24 -12z m-1030 2 c0 -14 -20 -37 -32 -37 -4 0 -8 11 -8 25 0 18 5 25
20 25 11 0 20 -6 20 -13z m700 9 c0 -11 -19 -15 -25 -6 -3 5 1 10 9 10 9 0 16
-2 16 -4z m-520 -21 c0 -9 -6 -12 -15 -9 -8 4 -15 10 -15 15 0 5 7 9 15 9 8 0
15 -7 15 -15z m770 -135 c0 -38 -4 -70 -8 -70 -5 0 -9 32 -10 70 -1 42 2 70 8
70 6 0 10 -30 10 -70z m-962 -65 c2 -60 -1 -105 -6 -105 -6 0 -12 8 -14 18 -6
26 3 192 11 192 3 0 7 -47 9 -105z m-483 65 c14 -16 15 -20 4 -20 -16 0 -39
19 -39 32 0 14 16 9 35 -12z m-1145 -35 c-7 -9 -15 -13 -19 -10 -3 3 1 10 9
15 21 14 24 12 10 -5z m2178 -14 c18 -12 32 -27 32 -32 0 -16 -31 -10 -58 11
-21 17 -35 20 -76 15 -33 -4 -57 -13 -68 -26 -9 -10 -21 -19 -27 -19 -19 0
-12 23 17 53 25 27 31 29 87 25 43 -3 70 -10 93 -27z m-44 -72 c15 -35 11
-100 -7 -111 -7 -4 -24 -8 -39 -8 -25 0 -27 2 -18 26 7 16 7 32 0 44 -5 10
-10 32 -10 49 0 28 3 31 30 31 25 0 33 -6 44 -31z m450 -34 c-3 -30 -2 -55 2
-55 4 0 31 12 61 26 43 22 51 29 42 41 -7 7 -9 16 -5 20 3 3 6 1 6 -5 0 -7 6
-12 14 -12 17 0 30 -31 17 -40 -6 -3 -9 -16 -6 -27 2 -16 -8 -32 -35 -57 -42
-37 -54 -42 -135 -49 -34 -4 -53 -11 -60 -23 -15 -27 -53 -64 -65 -64 -17 0
-11 25 10 38 24 15 19 27 -19 46 -24 13 -32 12 -68 -4 -26 -11 -48 -31 -58
-50 -15 -30 -35 -33 -35 -5 0 23 60 85 98 101 28 11 41 12 67 3 31 -12 34 -10
77 32 25 24 52 50 61 57 10 7 17 27 17 47 0 19 4 35 9 35 6 0 8 -23 5 -55z
m-994 -39 c24 -21 44 -49 46 -63 1 -13 8 -30 14 -38 12 -15 0 -20 -60 -27 -36
-4 -110 77 -103 114 3 15 14 30 24 33 10 4 19 11 19 17 0 15 13 7 60 -36z
m430 26 c0 -11 -14 -26 -32 -35 -69 -35 -103 -58 -104 -67 -1 -6 -2 -15 -3
-21 -1 -8 -5 -8 -16 1 -8 7 -12 17 -8 24 4 6 9 20 10 30 5 29 23 47 68 67 54
24 85 24 85 1z m222 -7 c15 -14 34 -25 42 -25 16 0 46 -26 46 -40 0 -4 -10
-10 -22 -14 -17 -4 -29 1 -45 19 -12 14 -34 30 -48 35 -24 9 -33 29 -18 43 10
11 17 8 45 -18z m-2272 -21 c0 -16 -26 -19 -35 -4 -3 6 -4 14 0 20 8 13 35 1
35 -16z m1660 -4 c0 -5 -2 -10 -4 -10 -3 0 -8 5 -11 10 -3 6 -1 10 4 10 6 0
11 -4 11 -10z m-1614 -41 c10 -17 -13 -36 -27 -22 -12 12 -4 33 11 33 5 0 12
-5 16 -11z m2178 -27 c-11 -46 -39 -67 -89 -67 -38 0 -50 5 -82 37 -43 43 -38
59 12 35 20 -9 56 -17 81 -17 38 0 46 4 56 25 14 31 30 22 22 -13z m-2276 11
c2 -8 -5 -13 -17 -13 -12 0 -21 6 -21 16 0 18 31 15 38 -3z m1845 -43 c26 -17
58 -30 76 -30 35 0 55 -27 45 -64 -4 -19 3 -33 38 -69 46 -48 93 -67 163 -67
50 0 138 40 159 73 32 48 95 109 106 102 29 -18 -29 -156 -87 -208 -11 -10
-44 -26 -74 -36 -45 -16 -66 -18 -129 -11 -96 11 -147 37 -203 101 -44 50 -45
53 -40 105 7 62 -5 69 -37 24 l-22 -31 -36 22 c-21 12 -46 30 -57 40 -19 19
-19 19 3 39 12 12 22 25 22 30 0 18 29 10 73 -20z m-1718 -20 c0 -22 -29 -18
-33 3 -3 14 1 18 15 15 10 -2 18 -10 18 -18z m-87 -38 c3 -16 -2 -22 -17 -22
-24 0 -35 15 -27 36 9 23 40 13 44 -14z m2621 -174 c1 -84 -1 -150 -4 -146
-10 9 -16 310 -6 304 5 -3 9 -74 10 -158z m-950 85 c5 -102 5 -114 3 -167 -3
-86 -11 -45 -18 97 -4 83 -3 137 3 137 5 0 10 -30 12 -67z m-1579 37 c0 -4 -6
-13 -14 -19 -17 -14 -31 2 -22 24 5 15 36 10 36 -5z m78 -4 c4 -20 -15 -46
-33 -46 -22 0 -27 32 -8 52 19 21 37 19 41 -6z m-172 -37 c3 -6 1 -16 -5 -22
-9 -9 -14 -8 -21 3 -9 15 -4 30 10 30 5 0 12 -5 16 -11z m-136 -9 c0 -5 -4
-10 -10 -10 -5 0 -10 5 -10 10 0 6 5 10 10 10 6 0 10 -4 10 -10z m2764 -465
c5 -174 4 -227 -4 -218 -8 7 -13 79 -14 227 -2 188 0 235 9 224 1 -2 5 -106 9
-233z m-944 176 c0 -11 -4 -23 -10 -26 -6 -4 -10 5 -10 19 0 14 5 26 10 26 6
0 10 -9 10 -19z m-12 -97 c2 -40 -6 -63 -17 -45 -8 13 -2 81 8 81 3 0 7 -16 9
-36z m-8 -131 c0 -20 -3 -33 -7 -30 -10 10 -11 67 -1 67 4 0 8 -16 8 -37z
m-1470 -9 c0 -2 -7 -4 -15 -4 -8 0 -15 4 -15 10 0 5 7 7 15 4 8 -4 15 -8 15
-10z m4371 -46 c15 -28 2 -38 -49 -36 -37 1 -40 2 -14 5 45 6 43 33 -3 33 -19
0 -35 5 -35 10 0 6 20 9 46 8 32 -1 48 -6 55 -20z m-2901 -90 c1 -57 5 -123 9
-148 12 -57 2 -160 -12 -135 -12 22 -18 385 -6 385 5 0 9 -46 9 -102z m2883 5
c-13 -2 -33 -2 -45 0 -13 2 -3 4 22 4 25 0 35 -2 23 -4z m-59 -65 c-4 -15 1
-18 33 -19 l38 -2 -35 -6 c-22 -4 -35 -12 -35 -21 0 -12 11 -15 50 -13 36 1
44 -1 30 -7 -11 -5 -30 -9 -43 -9 -31 -1 -43 -39 -42 -126 2 -94 1 -105 -10
-80 -5 11 -9 48 -9 81 -1 73 -17 94 -57 76 -13 -7 -28 -22 -33 -34 -9 -26 -22
-10 -15 19 4 13 20 25 45 32 45 14 50 26 14 35 -40 10 -32 54 8 47 15 -2 20
31 6 40 -11 7 -11 9 4 9 9 0 17 5 17 10 0 6 8 5 20 -2 12 -8 18 -19 14 -30z
m162 19 c4 -4 -22 -7 -57 -7 -38 0 -59 4 -51 9 15 9 98 8 108 -2z m-2018 -54
c-1 -32 0 -94 0 -138 1 -44 -2 -83 -6 -87 -4 -4 -8 58 -10 138 -2 87 0 144 6
144 5 0 10 -26 10 -57z m1939 -155 c-3 -8 -6 -5 -6 6 -1 11 2 17 5 13 3 -3 4
-12 1 -19z m-4369 -74 c36 -23 20 -28 -50 -14 -55 11 -68 10 -102 -4 -21 -9
-49 -16 -62 -16 -39 0 -28 27 19 44 51 19 160 13 195 -10z m1032 13 c41 1 132
3 202 4 85 2 131 0 139 -8 8 -8 -13 -11 -82 -13 -147 -2 -198 -7 -213 -19 -20
-17 -36 -16 -156 3 -145 24 -150 25 -150 37 0 8 27 9 93 3 50 -5 126 -8 167
-7z m1075 4 c4 -8 -43 -10 -157 -9 -103 1 -141 4 -103 7 120 12 253 13 260 2z
m130 -1 c-28 -12 -75 -12 -75 0 0 6 21 10 48 9 35 0 42 -3 27 -9z m66 1 c-8
-5 -20 -7 -28 -4 -21 8 -15 13 15 13 20 0 23 -3 13 -9z m549 -1 c0 -5 -2 -10
-4 -10 -3 0 -8 5 -11 10 -3 6 -1 10 4 10 6 0 11 -4 11 -10z m114 -10 c-8 -8
-27 -8 -60 -2 l-49 10 60 1 c41 1 56 -2 49 -9z m-2411 -16 c15 -3 27 -10 27
-16 0 -11 -152 -4 -185 9 -50 19 75 25 158 7z m3397 -5 c-22 -9 -249 -3 -259
7 -2 2 61 4 140 3 104 0 137 -3 119 -10z m128 4 c-10 -2 -26 -2 -35 0 -10 3
-2 5 17 5 19 0 27 -2 18 -5z m-2322 -15 c4 -5 -7 -8 -24 -8 -18 0 -32 -4 -32
-10 0 -18 51 -23 166 -17 63 3 114 2 114 -3 0 -13 -62 -19 -280 -25 -137 -4
-214 -3 -233 4 -16 6 -59 12 -96 12 -38 1 -75 5 -82 10 -9 5 22 9 79 9 54 0
92 4 92 10 0 19 21 10 32 -14 10 -24 14 -25 77 -19 36 3 75 11 86 16 17 9 10
13 -50 27 l-70 16 107 0 c58 -1 110 -4 114 -8z m563 -12 c-8 -8 -108 -12 -103
-4 3 4 28 8 56 8 28 0 49 -2 47 -4z m659 -31 c7 -7 -26 -4 -135 12 -44 6 -46
7 -18 12 30 6 141 -12 153 -24z m-2273 -1 c-12 -9 -34 -14 -55 -11 -19 2 -49
-2 -67 -10 -38 -15 -270 -18 -293 -3 -11 7 -1 10 35 10 90 2 180 11 200 20 19
9 184 19 195 12 3 -2 -4 -10 -15 -18z m325 16 c0 -5 -4 -10 -10 -10 -5 0 -10
5 -10 10 0 6 5 10 10 10 6 0 10 -4 10 -10z m150 -2 c0 -4 -17 -8 -37 -7 -30 0
-34 2 -18 9 24 10 55 9 55 -2z m40 8 c0 -2 -7 -6 -15 -10 -8 -3 -15 -1 -15 4
0 6 7 10 15 10 8 0 15 -2 15 -4z m-153 -12 c-3 -3 -12 -4 -19 -1 -8 3 -5 6 6
6 11 1 17 -2 13 -5z m3043 -10 c0 -2 -42 -3 -92 -2 l-93 2 80 5 c75 6 105 4
105 -5z m-1497 -1 c-7 -2 -19 -2 -25 0 -7 3 -2 5 12 5 14 0 19 -2 13 -5z m100
-4 c40 -11 51 -28 15 -23 -79 11 -98 16 -93 25 8 12 31 11 78 -2z m1700 4
c-13 -2 -35 -2 -50 0 -16 2 -5 4 22 4 28 0 40 -2 28 -4z m-3578 -13 c3 -5 1
-10 -4 -10 -6 0 -11 5 -11 10 0 6 2 10 4 10 3 0 8 -4 11 -10z m156 -1 c20 -12
-17 -17 -80 -12 -33 3 -61 10 -61 15 0 10 124 8 141 -3z m-946 -28 c24 -6 17
-8 -37 -13 -72 -6 -118 -1 -118 13 0 10 110 10 155 0z m2125 -1 l75 -3 -125
-14 c-128 -15 -350 -10 -350 7 0 15 179 19 400 10z m245 0 c6 -1 -3 -6 -20 -9
-16 -4 -34 -5 -39 -3 -12 7 14 20 33 17 9 -2 21 -4 26 -5z m-122 -7 c-7 -2
-21 -2 -30 0 -10 3 -4 5 12 5 17 0 24 -2 18 -5z m572 -3 c4 -6 -10 -9 -37 -9
l-43 2 35 7 c19 4 36 8 37 9 1 0 5 -3 8 -9z m878 3 c-7 -2 -19 -2 -25 0 -7 3
-2 5 12 5 14 0 19 -2 13 -5z m252 -2 c-11 -5 -63 -5 -115 -1 l-95 7 115 1 c66
0 107 -3 95 -7z m-945 -12 c0 -7 -22 -8 -67 -4 -91 10 -92 15 -5 15 45 0 72
-4 72 -11z m330 1 c0 -6 -49 -10 -127 -9 -81 0 -121 4 -108 9 29 12 235 12
235 0z M2241 8711 l-25 -7 29 -22 28 -22 24 21 c12 13 21 24 18 27 -7 8 -49 9
-74 3z M2380 8697 c0 -7 -13 -26 -30 -42 -16 -16 -30 -34 -30 -39 0 -6 17 -30
38 -53 35 -39 41 -42 100 -45 34 -3 62 -2 62 0 0 3 -19 38 -42 79 -24 41 -47
83 -53 94 -11 21 -45 26 -45 6z M2478 8691 c11 -30 76 -130 85 -131 4 0 7 9 7
19 0 11 9 40 20 66 11 26 20 51 20 56 0 5 -31 9 -70 9 -64 0 -69 -1 -62 -19z
M2262 8552 c-33 -33 -28 -44 16 -36 47 8 46 7 24 34 l-19 23 -21 -21z M2098
8401 c5 -15 18 -37 68 -116 10 -16 19 -32 19 -35 7 -39 20 -71 35 -85 17 -15
22 -14 87 20 85 46 90 51 67 64 -11 6 -78 46 -151 89 -73 44 -128 72 -125 63z
M2785 8401 c-16 -10 -83 -46 -148 -81 -165 -88 -160 -83 -106 -109 24 -11 58
-30 74 -40 42 -27 48 -26 70 16 11 21 36 53 55 72 19 19 35 37 35 40 0 3 8 18
18 34 61 98 62 105 2 68z M3162 8348 c-17 -17 -15 -32 9 -62 36 -46 54 -10 21
44 -14 23 -21 27 -30 18z M1706 8332 c-8 -13 9 -75 21 -79 15 -5 25 29 17 61
-6 25 -27 35 -38 18z M2070 8290 c0 -29 4 -40 13 -37 6 2 12 19 12 37 0 18 -6
35 -12 38 -9 2 -13 -9 -13 -38z M3053 8323 c-19 -7 -16 -30 9 -63 16 -22 25
-27 34 -19 11 9 10 18 -6 50 -11 21 -21 39 -23 38 -1 0 -8 -3 -14 -6z M3398
8304 c-14 -29 -2 -57 27 -63 14 -2 17 2 12 20 -4 13 -7 34 -7 47 0 30 -18 28
-32 -4z M3345 8290 c3 -5 8 -10 11 -10 2 0 4 5 4 10 0 6 -5 10 -11 10 -5 0 -7
-4 -4 -10z M2929 8254 c-6 -7 -9 -19 -6 -26 5 -14 75 -43 84 -35 11 12 -8 43
-36 59 -26 14 -32 14 -42 2z M2792 8248 c-15 -15 -16 -38 -2 -38 12 0 23 25
18 40 -2 7 -7 7 -16 -2z M2332 8152 c-85 -53 -92 -59 -90 -86 4 -39 26 -45 30
-9 3 28 3 28 25 -13 22 -42 17 -64 -14 -64 -17 0 -17 -17 0 -22 6 -2 48 -2 92
2 44 3 108 5 143 3 60 -2 62 -2 62 23 0 13 10 43 21 66 l21 42 -27 20 c-45 34
-148 96 -159 96 -6 0 -53 -26 -104 -58z M2676 8164 c-8 -22 4 -40 15 -23 11
18 11 39 0 39 -5 0 -12 -7 -15 -16z M2142 8110 c-10 -16 -10 -20 2 -20 17 0
38 24 29 33 -10 11 -17 8 -31 -13z M2060 8039 c0 -5 5 -7 10 -4 6 3 10 8 10
11 0 2 -4 4 -10 4 -5 0 -10 -5 -10 -11z M2108 8014 c-38 -20 -36 -28 2 -9 17
9 30 18 30 20 0 7 -1 6 -32 -11z M2610 8016 c0 -8 5 -18 10 -21 6 -3 10 1 10
9 0 8 -4 18 -10 21 -5 3 -10 -1 -10 -9z M2191 7991 c-27 -27 -27 -41 1 -36 31
6 42 20 30 40 -9 16 -11 16 -31 -4z M2022 7967 c-29 -16 -21 -25 18 -19 17 2
30 10 30 18 0 17 -18 17 -48 1z M2835 7960 c-4 -6 5 -10 20 -10 15 0 24 4 20
10 -3 6 -12 10 -20 10 -8 0 -17 -4 -20 -10z M2363 7893 c-3 -7 -11 -13 -18
-13 -11 0 -25 -20 -25 -35 0 -3 9 -13 20 -23 20 -18 23 -18 65 -3 42 15 49 15
92 -1 44 -16 72 -16 46 0 -7 4 -10 18 -6 30 4 16 9 20 18 12 8 -7 15 -3 23 16
7 14 12 26 12 28 0 1 -50 2 -111 2 -80 -1 -113 -4 -116 -13z M3345 7880 c3 -5
8 -10 11 -10 2 0 4 5 4 10 0 6 -5 10 -11 10 -5 0 -7 -4 -4 -10z M3270 7839
c-18 -8 -21 -12 -11 -18 8 -6 21 -3 32 7 29 25 23 28 -21 11z M2393 7783 c-51
-26 -42 -44 11 -23 15 5 36 6 48 1 20 -7 18 -9 -17 -16 -22 -5 -44 -9 -50 -9
-15 -1 -18 -36 -3 -36 7 0 28 4 45 9 20 6 35 6 38 0 12 -18 36 -9 47 19 6 15
11 30 10 35 -1 4 3 7 9 7 5 0 7 5 3 11 -3 6 -17 9 -30 6 -14 -2 -27 0 -30 4
-8 14 -45 10 -81 -8z M2556 7713 c-8 -20 30 -63 56 -63 27 0 22 35 -8 59 -32
25 -40 26 -48 4z M2288 7689 c-24 -40 -23 -62 4 -85 21 -19 21 -19 16 3 -3 12
1 31 8 42 14 19 10 71 -5 71 -3 0 -14 -14 -23 -31z M3097 7676 c-3 -8 -3 -17
0 -20 9 -9 34 15 27 25 -8 13 -21 11 -27 -5z M2563 7533 c-4 -10 -24 -34 -45
-55 -60 -57 -74 -113 -38 -146 17 -16 19 -24 11 -46 -7 -16 -7 -35 -2 -48 13
-34 49 -68 65 -62 8 3 17 1 21 -5 17 -29 130 9 158 52 18 28 29 75 22 87 -11
18 -43 -9 -55 -45 -30 -92 -176 -84 -149 8 12 43 20 48 96 63 106 21 110 22
129 34 11 7 27 22 36 35 14 18 15 25 5 34 -10 7 -21 3 -42 -15 -40 -35 -62
-42 -142 -49 -37 -4 -75 -13 -84 -21 -12 -10 -18 -11 -27 -2 -25 25 -13 65 34
117 28 31 44 57 40 66 -7 20 -25 19 -33 -2z M2236 7533 c-13 -13 -5 -41 17
-56 52 -35 87 -79 87 -111 0 -44 18 -61 42 -39 26 23 22 63 -10 99 -39 44
-128 115 -136 107z M2916 7486 c-18 -39 -19 -46 -8 -46 9 0 34 71 28 77 -2 2
-11 -12 -20 -31z M2598 7297 c-26 -21 -16 -52 17 -52 35 0 54 27 36 49 -16 19
-30 20 -53 3z m27 -27 c3 -5 1 -10 -4 -10 -6 0 -11 5 -11 10 0 6 2 10 4 10 3
0 8 -4 11 -10z M2490 7154 c0 -57 175 -108 195 -57 3 9 4 17 3 19 -3 2 -69 11
-118 16 -8 1 -21 9 -28 20 -16 23 -52 24 -52 2z M2293 7015 c-3 -9 -4 -17 -2
-19 8 -7 49 13 49 24 0 16 -40 12 -47 -5z M2628 6899 c-23 -13 -23 -29 -1 -29
9 0 24 -6 32 -14 25 -21 71 -29 71 -13 0 16 -32 47 -48 47 -7 0 -12 5 -12 10
0 13 -20 12 -42 -1z M1701 6504 c0 -11 3 -14 6 -6 3 7 2 16 -1 19 -3 4 -6 -2
-5 -13z M2620 6446 c0 -23 11 -46 20 -41 10 6 0 55 -11 55 -5 0 -9 -6 -9 -14z
M3037 6049 c-18 -10 -18 -12 -1 -30 23 -25 61 -25 69 1 3 11 3 24 0 30 -8 13
-45 12 -68 -1z M1760 6035 c-14 -17 -7 -31 19 -38 28 -7 48 18 31 38 -16 19
-34 19 -50 0z M2577 5943 c-12 -12 -7 -28 12 -40 15 -9 23 -9 37 2 15 11 16
15 5 29 -14 16 -42 21 -54 9z M1219 5748 c-5 -48 18 -74 46 -54 18 13 18 17 6
40 -15 27 -50 36 -52 14z M2806 5137 c-23 -17 -14 -53 13 -53 20 0 37 38 26
56 -8 13 -18 12 -39 -3z M2997 5143 c-16 -15 -6 -34 15 -31 29 4 38 38 10 38
-10 0 -22 -3 -25 -7z M1986 5095 c-23 -17 -13 -35 20 -35 17 0 24 6 24 19 0
25 -21 32 -44 16z M2423 5100 c-27 -11 -30 -35 -5 -37 27 -2 45 -8 67 -21 17
-10 18 -13 5 -22 -8 -5 -23 -10 -32 -10 -9 0 -20 -4 -23 -10 -4 -6 11 -10 38
-10 50 0 97 29 97 60 0 45 -86 74 -147 50z M2894 5065 c-8 -19 3 -35 26 -35
19 0 30 17 23 38 -6 17 -42 15 -49 -3z M2123 5063 c-16 -6 -17 -35 -1 -51 17
-17 48 4 48 33 0 25 -16 31 -47 18z M2720 5055 c-20 -25 -8 -50 24 -48 37 3
38 5 27 37 -12 29 -32 34 -51 11z M2277 5023 c-12 -11 -8 -41 7 -46 17 -7 36
11 36 35 0 18 -29 25 -43 11z M2180 4994 c0 -27 24 -38 40 -19 16 20 8 38 -18
40 -17 1 -22 -4 -22 -21z M2530 4919 c0 -15 5 -20 22 -17 34 5 37 38 4 38 -20
0 -26 -5 -26 -21z M2591 4887 c-7 -9 -26 -19 -42 -22 -27 -6 -30 -11 -27 -38
4 -43 30 -46 68 -9 24 24 28 34 22 57 -7 24 -9 25 -21 12z M2413 4873 c-7 -19
4 -43 20 -43 21 0 38 25 31 43 -7 18 -44 18 -51 0z M1130 5220 c0 -5 -9 -10
-19 -10 -11 0 -23 -4 -26 -10 -4 -6 10 -10 34 -10 22 0 43 -5 46 -11 9 -14 44
22 37 39 -5 14 -72 17 -72 2z M3713 5200 c4 -15 0 -20 -13 -20 -25 0 -33 -15
-34 -63 -1 -38 -3 -41 -43 -54 -24 -8 -43 -19 -43 -24 0 -5 -5 -9 -11 -9 -5 0
-24 -13 -40 -28 -38 -35 -51 -102 -26 -130 15 -16 14 -22 -10 -72 l-26 -54 23
-18 c27 -22 50 -9 50 29 0 54 46 108 112 133 52 19 82 57 73 93 -9 33 -19 34
-62 5 -31 -22 -44 -48 -23 -48 23 0 8 -16 -25 -26 -38 -12 -44 -5 -19 21 9 9
14 18 11 21 -2 3 -12 -2 -20 -11 -24 -23 -33 -18 -11 7 17 19 17 21 2 15 -10
-4 -18 -2 -18 3 0 13 38 37 88 54 50 18 68 34 82 72 8 21 14 24 22 16 28 -28
38 3 16 55 l-11 28 -7 -35 -7 -35 -2 32 c0 17 -4 38 -7 47 -9 23 -27 20 -21
-4z M3797 5121 c-3 -12 -1 -24 4 -27 13 -8 24 25 12 37 -7 7 -12 3 -16 -10z
M4535 5110 c-3 -5 1 -10 9 -10 9 0 16 5 16 10 0 6 -4 10 -9 10 -6 0 -13 -4
-16 -10z M3850 4411 c0 -5 -7 -17 -16 -26 -9 -9 -14 -19 -10 -22 8 -8 58 29
58 42 -1 13 -32 19 -32 6z M3217 4315 c-20 -14 -37 -31 -37 -37 0 -7 -14 -26
-30 -43 -26 -27 -29 -34 -17 -44 18 -14 39 -7 56 20 8 14 9 25 3 31 -7 7 3 18
31 32 26 14 43 31 45 44 4 28 -5 28 -51 -3z M3240 4198 c0 -8 16 -22 35 -31
27 -13 35 -14 35 -3 0 11 -12 20 -62 44 -5 2 -8 -3 -8 -10z M3200 4172 c0 -12
40 -33 50 -27 6 4 10 1 10 -4 0 -6 5 -11 10 -11 19 0 10 16 -19 33 -31 18 -51
22 -51 9z M3166 4153 c-13 -13 -4 -23 30 -38 43 -18 44 -18 44 -6 0 12 -67 51
-74 44z M3130 4111 c0 -12 68 -43 84 -38 12 4 -29 32 -61 42 -14 4 -23 2 -23
-4z M3056 4061 c-33 -35 -25 -43 46 -47 50 -3 61 7 31 26 -15 8 -13 9 10 4 15
-4 27 -2 27 4 0 5 -12 15 -27 20 -16 5 -35 13 -43 16 -10 4 -26 -4 -44 -23z
M3025 3970 c-5 -9 29 -20 63 -20 26 0 30 19 5 21 -10 1 -28 3 -41 4 -12 1 -25
-1 -27 -5z M2992 3909 c-13 -21 -3 -26 16 -7 21 21 13 -2 -8 -24 -21 -23 -22
-39 -3 -45 13 -5 83 66 83 83 0 7 -17 12 -38 12 -27 1 -41 -5 -50 -19z M900
4006 c0 -11 9 -16 26 -16 31 0 28 23 -4 28 -15 2 -22 -2 -22 -12z M1565 4298
c-37 -19 -38 -22 -21 -32 11 -6 35 -25 53 -42 23 -21 41 -30 54 -27 10 3 26 0
34 -7 19 -16 45 -6 45 17 -1 22 -24 49 -72 86 -42 31 -40 31 -93 5z M1360
4215 c-8 -9 -8 -15 -2 -15 18 0 42 12 42 21 0 14 -26 10 -40 -6z M1733 4118
c-18 -30 13 -88 47 -88 26 0 31 23 12 64 -17 36 -44 47 -59 24z M1587 3967
c-16 -11 -16 -16 8 -65 18 -38 31 -52 43 -50 25 5 26 41 2 87 -22 45 -28 47
-53 28z M3602 4264 c-37 -15 -39 -24 -14 -47 20 -19 77 -23 87 -7 7 11 -35 31
-47 23 -5 -2 -8 1 -8 8 0 8 11 10 35 6 42 -7 46 7 7 21 -20 7 -37 6 -60 -4z
M3597 4023 c-15 -14 -6 -24 20 -21 34 4 43 28 11 28 -14 0 -28 -3 -31 -7z
M1144 3499 c-10 -17 23 -46 37 -32 7 7 9 19 6 27 -7 18 -33 21 -43 5z M553
3485 c-8 -23 23 -79 64 -116 24 -21 44 -29 71 -29 95 0 149 41 159 120 5 33 3
40 -11 40 -10 0 -16 -8 -16 -23 0 -13 -14 -37 -33 -55 -27 -26 -41 -32 -83
-33 -72 -3 -106 22 -116 85 -4 26 -26 32 -35 11z M660 3486 c0 -7 7 -19 15
-26 19 -16 41 1 32 24 -8 20 -47 21 -47 2z M978 2932 c-30 -6 -20 -27 18 -41
30 -11 38 -11 45 0 4 7 3 21 -2 30 -9 17 -22 19 -61 11z M890 2580 c-12 -7
-10 -11 10 -18 32 -12 83 -74 91 -109 14 -58 9 -416 -6 -478 -8 -33 -15 -80
-15 -103 0 -24 -14 -87 -32 -139 -32 -95 -32 -95 -12 -112 25 -20 29 -69 10
-135 -15 -56 -63 -268 -75 -331 -4 -22 -7 -74 -7 -115 1 -60 4 -75 16 -75 9 0
13 6 11 15 -15 54 -4 163 32 300 54 210 56 219 57 288 0 50 -3 62 -16 62 -12
0 -14 5 -9 18 59 140 83 293 92 577 4 153 8 195 22 214 9 13 24 38 35 55 10
17 27 39 37 49 10 10 19 22 19 27 0 14 -28 12 -37 -3 -11 -17 -79 -67 -92 -67
-5 0 -16 9 -25 21 -12 18 -78 69 -88 69 -2 0 -10 -4 -18 -10z M235 1680 c0
-16 3 -30 7 -30 4 0 5 -8 2 -17 -5 -14 -4 -15 4 -4 7 10 11 10 17 1 10 -15
-13 -30 -34 -22 -14 5 -14 4 -2 -11 10 -13 17 -14 26 -7 9 8 14 7 17 -2 3 -7
5 1 6 19 0 19 -5 34 -14 37 -8 3 -14 19 -14 36 0 16 -3 30 -7 30 -5 0 -8 -13
-8 -30z M395 1680 c-3 -5 -2 -10 4 -10 5 0 13 5 16 10 3 6 2 10 -4 10 -5 0
-13 -4 -16 -10z M467 1662 c-15 -16 -15 -18 1 -18 10 0 19 8 19 18 1 10 0 18
-1 18 -2 0 -10 -8 -19 -18z M324 1600 c-4 -16 -9 -28 -13 -26 -4 3 -7 -4 -7
-15 0 -10 3 -19 7 -19 11 0 29 26 23 33 -3 3 -2 12 2 19 12 19 14 38 3 38 -5
0 -12 -13 -15 -30z M430 1590 c0 -5 5 -10 10 -10 6 0 10 5 10 10 0 6 -4 10
-10 10 -5 0 -10 -4 -10 -10z M380 1570 c0 -5 7 -10 16 -10 8 0 12 5 9 10 -3 6
-10 10 -16 10 -5 0 -9 -4 -9 -10z M446 1547 c3 -10 9 -15 12 -12 3 3 0 11 -7
18 -10 9 -11 8 -5 -6z M360 1543 c0 -7 9 -22 20 -33 l20 -20 0 21 c0 11 -4 18
-9 14 -6 -3 -14 3 -20 12 -6 10 -11 12 -11 6z M665 1530 c-3 -5 -2 -10 4 -10
5 0 13 5 16 10 3 6 2 10 -4 10 -5 0 -13 -4 -16 -10z M650 1465 c-8 -9 -8 -15
-2 -15 12 0 26 19 19 26 -2 2 -10 -2 -17 -11z M610 1370 c0 -5 7 -7 15 -4 8 4
15 8 15 10 0 2 -7 4 -15 4 -8 0 -15 -4 -15 -10z M840 920 c0 -11 5 -20 10 -20
6 0 10 9 10 20 0 11 -4 20 -10 20 -5 0 -10 -9 -10 -20z M1310 3138 c0 -13 5
-30 10 -38 7 -11 10 -7 10 17 0 17 -4 35 -10 38 -6 3 -10 -4 -10 -17z M3060
2500 c0 -5 5 -10 10 -10 6 0 10 5 10 10 0 6 -4 10 -10 10 -5 0 -10 -4 -10 -10z
M1687 2216 c-8 -19 29 -76 49 -76 27 0 23 21 -9 56 -28 31 -35 34 -40 20z
M2985 2010 c-16 -16 -23 -30 -16 -30 7 0 9 -4 6 -10 -12 -19 24 -10 51 13 18
16 25 30 21 40 -9 25 -30 21 -62 -13z M2903 2000 c-32 -13 -29 -17 7 -12 16 2
27 8 24 13 -3 5 -6 9 -7 8 -1 0 -12 -4 -24 -9z M1897 2027 c-6 -17 7 -49 31
-70 19 -17 20 -17 26 8 7 28 -4 49 -35 65 -12 7 -18 6 -22 -3z M2086 1911
c-17 -7 -17 -8 -2 -24 23 -23 46 -22 46 2 0 22 -18 31 -44 22z M4730 1010 c0
-5 11 -10 25 -10 14 0 25 5 25 10 0 6 -11 10 -25 10 -14 0 -25 -4 -25 -10z
M4898 8391 c-37 -26 -37 -27 -38 -93 0 -59 -5 -77 -41 -145 -23 -43 -58 -96
-79 -119 -21 -23 -41 -51 -45 -63 -3 -11 -14 -21 -24 -21 -29 0 -45 -25 -26
-40 12 -10 21 -8 50 14 19 15 40 37 46 48 7 12 33 49 59 83 67 85 120 191 122
243 1 35 7 47 30 64 32 22 32 37 2 48 -13 5 -31 -2 -56 -19z M4582 7872 c-17
-23 -28 -28 -68 -30 -53 -2 -68 -11 -59 -34 7 -18 66 -15 118 4 37 14 70 61
55 76 -17 17 -25 15 -46 -16z M4272 7653 c-5 -10 -12 -53 -16 -97 -5 -53 -15
-94 -31 -125 -13 -25 -31 -82 -40 -126 -9 -44 -22 -86 -27 -93 -6 -7 -9 -14
-7 -17 10 -9 52 68 80 146 28 82 47 161 56 246 3 23 11 47 19 54 20 16 17 29
-6 29 -10 0 -23 -8 -28 -17z M3390 3671 c-7 -14 -7 -22 0 -26 13 -8 40 13 40
31 0 21 -28 17 -40 -5z M4140 3640 c-6 -12 -8 -29 -5 -40 3 -10 1 -21 -5 -25
-13 -8 -13 -25 1 -25 6 0 13 9 16 20 3 11 9 20 14 20 5 0 9 16 9 35 0 39 -14
46 -30 15z M3392 3598 c5 -32 28 -35 28 -4 0 17 -5 26 -16 26 -10 0 -14 -7
-12 -22z M3422 3552 c-9 -7 -9 -12 1 -27 16 -20 28 -9 18 17 -4 11 -11 14 -19
10z M3950 3513 c0 -10 12 -12 48 -9 26 2 53 5 60 5 6 1 12 5 12 10 0 5 -27 9
-60 8 -44 0 -60 -4 -60 -14z M4140 3437 c0 -35 -11 -120 -25 -190 l-24 -126
18 -88 18 -88 17 39 c9 21 16 41 16 43 0 3 25 41 55 85 30 44 55 84 55 89 0 5
4 9 9 9 4 0 21 18 36 40 l28 40 -39 43 c-22 23 -61 70 -89 104 -27 34 -56 62
-62 62 -9 1 -13 -18 -13 -62z M4357 3333 c-17 -16 -3 -23 48 -23 53 0 72 11
39 24 -21 8 -79 8 -87 -1z M3777 2979 c-9 -6 -15 -14 -12 -19 7 -11 58 3 63
18 5 15 -26 15 -51 1z M3815 2940 c4 -6 11 -8 16 -5 14 9 11 15 -7 15 -8 0
-12 -5 -9 -10z M2838 2833 c7 -3 16 -2 19 1 4 3 -2 6 -13 5 -11 0 -14 -3 -6
-6z M2755 2780 c-3 -5 -1 -10 4 -10 6 0 11 5 11 10 0 6 -2 10 -4 10 -3 0 -8
-4 -11 -10z M3630 2757 c0 -20 69 -81 128 -114 51 -29 54 -30 102 -17 58 15
72 22 65 34 -2 4 -34 5 -70 3 -62 -6 -67 -4 -120 32 -30 21 -62 46 -71 57 -20
21 -34 23 -34 5z M2780 2749 c0 -5 7 -12 15 -15 8 -4 15 -15 15 -25 0 -10 5
-19 10 -19 6 0 10 12 10 27 0 25 0 26 20 8 18 -17 20 -17 20 -1 0 18 -6 21
-57 30 -19 3 -33 1 -33 -5z M3695 2629 c-4 -5 6 -29 21 -52 23 -34 29 -54 30
-102 1 -58 8 -78 48 -137 10 -16 16 -40 15 -60 -4 -44 10 -126 23 -134 7 -5 8
21 3 84 l-7 91 30 28 c22 21 33 43 42 88 6 33 18 77 26 98 17 45 18 70 3 65
-17 -6 -47 -88 -54 -149 -5 -45 -11 -59 -29 -69 -19 -9 -27 -9 -45 1 -18 12
-21 23 -21 84 0 59 -5 78 -30 123 -30 52 -43 61 -55 41z M3806 2544 c-9 -22
-7 -43 5 -86 7 -27 15 -38 29 -38 17 0 20 7 20 44 0 25 4 47 10 51 5 3 7 12 4
20 -11 27 -24 4 -24 -41 0 -24 -4 -44 -10 -44 -5 0 -10 25 -10 55 0 53 -11 72
-24 39z M3835 2040 c-5 -8 -12 -78 -15 -155 -3 -77 -9 -146 -13 -152 -4 -7 2
-45 14 -85 16 -56 20 -85 14 -128 -4 -30 -8 -118 -10 -195 -3 -119 -1 -137 10
-122 10 13 12 39 8 91 -4 53 0 99 17 179 21 97 22 116 11 190 -6 45 -12 123
-12 172 -2 136 -12 223 -24 205z M4014 1727 c-3 -9 -4 -24 -2 -34 3 -16 5 -15
17 6 9 16 10 26 2 34 -7 7 -12 6 -17 -6z M3925 1718 c-3 -7 -1 -26 4 -43 9
-29 9 -29 10 13 1 41 -5 54 -14 30z M3640 1687 c0 -13 4 -27 9 -32 5 -6 11
-28 13 -49 4 -55 28 -60 28 -7 0 23 -4 49 -9 59 -5 9 -12 25 -15 35 -8 25 -26
21 -26 -6z M3711 1633 l1 -38 13 30 c13 30 11 45 -6 45 -5 0 -9 -17 -8 -37z
M3960 1599 c0 -24 4 -38 10 -34 6 3 10 22 10 41 0 19 -4 34 -10 34 -5 0 -10
-18 -10 -41z M299 512 c5 -9 19 -26 32 -37 21 -20 21 -19 -2 17 -24 38 -48 54
-30 20z M843 453 l-173 -3 0 -24 c0 -41 11 -56 40 -56 19 0 29 6 33 20 4 17
14 20 56 20 34 0 51 -4 52 -12 1 -7 3 -70 4 -140 2 -103 0 -128 -11 -128 -16
0 -19 -36 -4 -45 6 -4 46 -3 90 1 86 7 105 23 50 42 -20 7 -28 16 -24 26 3 8
6 67 7 133 l2 118 53 3 c46 3 52 1 52 -17 0 -27 19 -36 37 -18 11 11 14 25 9
51 -7 36 -7 36 -54 34 -26 -1 -125 -4 -219 -5z M3055 454 c-5 -2 -52 -5 -103
-6 -95 -3 -116 -14 -70 -36 l26 -12 -3 -132 c-3 -106 -7 -135 -19 -144 -19
-13 -21 -44 -3 -44 6 -1 64 -2 127 -3 l115 -3 39 37 c56 54 28 83 -37 37 -23
-17 -45 -22 -91 -22 l-60 -1 -1 68 c0 37 3 67 8 67 4 0 7 -4 7 -9 0 -5 12 -17
27 -26 25 -17 27 -17 44 6 19 24 24 64 13 93 -9 23 -43 20 -63 -6 -25 -30 -41
-15 -38 35 3 41 4 42 44 47 52 8 63 3 63 -25 0 -45 26 -40 48 9 11 26 11 32
-5 47 -20 18 -52 30 -68 23z M1160 442 c0 -4 5 -13 12 -20 7 -7 12 -63 15
-149 4 -133 3 -138 -19 -155 -33 -25 -11 -36 68 -34 68 1 88 11 63 29 -9 7
-18 34 -22 62 -3 28 -7 57 -9 65 -2 12 13 16 82 18 l85 3 -1 -58 c-1 -32 -5
-70 -9 -84 -4 -15 -3 -29 2 -32 4 -3 37 -7 73 -8 54 -3 65 -1 68 13 2 9 -5 19
-16 22 -17 6 -20 20 -24 149 -3 78 -2 143 3 145 5 2 9 12 9 23 0 16 -7 19 -54
19 -52 0 -78 -11 -56 -25 5 -3 10 -33 10 -66 l0 -59 -62 0 c-103 0 -108 4
-108 66 0 29 5 56 10 59 6 4 8 11 5 16 -7 11 -125 12 -125 1z M1615 440 c-1
-3 -3 -75 -4 -160 -2 -127 -5 -156 -17 -163 -12 -7 -13 -12 -3 -23 9 -11 37
-13 143 -8 131 5 131 5 159 36 48 52 14 81 -38 32 -24 -22 -35 -25 -84 -22
-63 3 -69 10 -70 74 -1 27 4 44 13 47 18 7 26 -1 26 -25 0 -19 25 -25 35 -7 4
6 4 31 0 55 -7 51 -30 68 -51 39 -12 -17 -14 -13 -14 33 l0 52 59 0 c50 0 59
-3 64 -20 3 -11 13 -20 22 -20 13 0 15 7 9 38 -4 20 -9 39 -11 42 -3 3 -56 5
-120 5 -63 0 -116 -2 -118 -5z M2395 441 c-11 -10 -4 -22 20 -33 25 -11 25
-12 25 -151 0 -130 -1 -139 -20 -144 -11 -3 -20 -10 -20 -15 0 -17 291 7 331
28 86 44 120 184 60 248 -47 49 -109 66 -256 69 -75 2 -138 1 -140 -2z m284
-86 c20 -19 24 -34 24 -77 0 -68 -24 -115 -68 -134 -54 -22 -84 -18 -96 14
-11 25 -14 206 -4 222 2 4 30 5 62 2 43 -3 64 -10 82 -27z M3202 439 c-14 -5
-12 -10 14 -35 36 -34 60 -85 100 -206 28 -86 28 -88 9 -102 -20 -14 -19 -15
5 -24 36 -14 142 -10 147 5 3 7 -7 17 -21 23 -14 5 -26 11 -26 13 0 9 69 171
117 275 9 18 14 34 12 36 -2 2 -23 7 -46 11 -35 5 -43 4 -43 -9 0 -8 7 -19 14
-23 13 -7 13 -12 1 -38 -7 -17 -27 -61 -43 -100 -17 -38 -35 -71 -41 -73 -5
-2 -15 16 -22 40 -6 24 -19 69 -29 100 -15 51 -15 58 -1 72 11 12 12 19 4 27
-12 12 -123 18 -151 8z M3655 429 c-4 -6 1 -16 10 -23 13 -9 17 -28 16 -82 0
-108 -12 -218 -25 -226 -27 -17 31 -33 107 -29 27 1 33 30 10 46 -18 13 -20
26 -21 117 0 57 4 108 9 115 7 7 6 13 0 18 -7 4 -5 14 5 30 14 22 14 24 -5 34
-26 14 -98 14 -106 0z M3864 429 c-4 -7 3 -19 16 -29 21 -16 23 -26 27 -143 4
-125 3 -127 -22 -149 -22 -19 -23 -23 -10 -38 13 -14 35 -17 131 -16 l116 1
38 45 c21 24 36 50 33 56 -10 26 -33 22 -65 -10 -24 -24 -45 -35 -75 -39 -24
-3 -45 -2 -48 2 -2 5 -5 37 -6 72 -1 35 -6 70 -12 77 -7 9 -7 16 1 24 7 7 12
34 12 61 0 35 5 53 17 62 9 7 13 17 9 23 -10 16 -152 16 -162 1z M4477 144
c-4 -4 -7 -20 -7 -35 0 -37 32 -56 67 -40 20 9 24 17 21 44 -3 29 -7 32 -38
35 -20 2 -39 0 -43 -4z"/>
</g>
</svg>
