<?xml version="1.0" standalone="no"?>
<!DOCTYPE svg PUBLIC "-//W3C//DTD SVG 20010904//EN"
 "http://www.w3.org/TR/2001/REC-SVG-20010904/DTD/svg10.dtd">
<svg version="1.0" xmlns="http://www.w3.org/2000/svg"
 width="500.000000pt" height="878.000000pt" viewBox="0 0 500.000000 878.000000"
 preserveAspectRatio="xMidYMid meet">
<metadata>
Created by potrace 1.16, written by Peter Selinger 2001-2019
</metadata>
<g transform="translate(0.000000,878.000000) scale(0.100000,-0.100000)"
fill="#000000" stroke="none">
<path d="M0 7580 c0 -818 3 -1200 10 -1200 17 0 24 31 12 50 -15 24 -1 40 42
47 38 6 76 -15 76 -42 0 -7 8 -23 18 -35 15 -19 21 -20 44 -10 22 11 30 9 56
-10 33 -24 59 -22 69 7 3 10 17 30 30 44 28 30 41 92 24 113 -6 7 -30 17 -53
20 -45 7 -68 21 -68 41 0 19 -55 75 -74 75 -19 0 -87 71 -102 108 -19 42 13
233 47 289 45 73 157 143 232 146 37 2 42 -1 61 -38 20 -38 24 -40 61 -37 27
2 46 11 60 27 l20 24 29 -25 c20 -18 35 -24 50 -19 60 19 65 18 84 -15 11 -17
23 -59 26 -92 7 -56 5 -62 -19 -88 -20 -21 -25 -33 -19 -54 5 -20 1 -30 -17
-45 l-23 -19 33 -20 c18 -11 39 -29 47 -41 27 -38 78 -24 130 37 31 34 33 35
63 22 27 -11 34 -10 50 4 24 22 26 21 73 -16 35 -29 39 -36 34 -66 -6 -39 20
-72 57 -72 12 0 28 -9 35 -21 10 -15 20 -19 37 -15 14 4 27 0 35 -9 7 -8 16
-15 21 -15 14 0 39 31 33 41 -14 23 9 93 43 130 40 44 61 48 109 18 44 -27 57
-53 50 -95 -4 -20 -1 -47 8 -69 12 -29 14 -50 7 -100 -10 -70 -16 -83 -43
-103 -28 -20 -21 -40 19 -57 44 -18 60 -14 73 19 17 45 93 45 110 0 8 -19 17
-24 44 -24 l34 0 7 -72 c4 -40 4 -104 1 -143 -3 -38 -6 -149 -6 -247 l-1 -176
-25 -6 c-14 -4 -34 -4 -44 -1 -14 4 -23 -2 -35 -24 -17 -33 -43 -51 -74 -51
-20 0 -37 32 -27 49 8 12 -63 71 -84 71 -8 0 -35 -23 -59 -51 -40 -47 -46 -50
-85 -47 l-41 3 3 43 c5 59 -22 61 -103 6 -42 -28 -57 -32 -87 -27 -42 6 -77
40 -102 99 -17 39 -17 43 -1 74 14 26 14 37 5 60 -7 16 -19 31 -27 35 -24 9
-61 -21 -65 -52 -4 -38 -76 -76 -118 -62 -23 9 -35 7 -60 -7 -29 -18 -31 -18
-62 0 -73 41 -78 51 -77 141 1 46 -1 87 -5 93 -13 21 -107 -15 -148 -56 -33
-34 -36 -41 -23 -52 20 -17 19 -101 -3 -165 -15 -43 -24 -54 -67 -78 -37 -20
-59 -26 -82 -22 -26 5 -38 0 -67 -26 -41 -36 -60 -35 -120 6 -20 14 -45 25
-54 25 -37 0 -42 -20 -42 -161 l0 -137 30 -7 c38 -8 65 -58 74 -138 8 -76 -10
-85 -65 -31 l-39 38 0 -192 0 -191 30 -16 c39 -20 64 -68 55 -109 -3 -17 -7
-47 -8 -66 -2 -42 -26 -51 -57 -20 l-21 21 4 -128 c3 -70 8 -143 12 -161 5
-21 3 -37 -5 -47 -9 -11 -8 -19 4 -37 20 -28 20 -52 1 -68 -11 -9 -15 -33 -15
-86 0 -66 2 -74 19 -74 10 0 35 -18 56 -41 33 -36 36 -45 30 -78 -5 -29 -2
-42 10 -55 14 -13 15 -19 4 -32 -14 -17 -59 -11 -97 12 l-22 14 0 -84 0 -85
28 16 c34 20 69 13 111 -23 30 -25 31 -29 29 -94 l-2 -69 -34 15 c-19 8 -43
14 -54 14 -11 0 -33 14 -49 31 l-29 31 0 -285 c0 -267 1 -285 18 -281 24 6 78
-30 96 -63 22 -43 25 -127 4 -131 -8 -2 -23 4 -31 12 -15 16 -60 36 -78 36 -5
0 -9 -65 -9 -154 0 -148 1 -154 20 -149 11 3 40 -6 66 -21 58 -33 76 -34 69
-3 -4 15 4 33 28 61 l34 39 40 -16 c36 -14 43 -14 53 -2 8 9 21 13 36 9 15 -4
34 0 50 11 14 9 28 15 30 12 8 -8 -57 -87 -72 -87 -13 0 -14 3 -4 15 10 12 7
15 -15 21 -15 4 -30 2 -34 -3 -7 -12 -32 -47 -77 -107 -17 -23 -35 -56 -38
-74 -5 -21 -13 -32 -25 -32 -11 0 -22 -12 -29 -32 -6 -18 -10 -24 -9 -13 2 24
-10 45 -26 45 -7 0 -28 -30 -47 -68 -19 -37 -38 -68 -42 -70 -5 -2 -8 -203 -8
-448 l0 -443 37 25 c20 13 47 27 61 31 35 9 94 -13 126 -46 30 -31 56 -31 56
-1 0 10 7 23 15 30 21 17 19 41 -4 47 -14 3 -21 15 -23 37 -2 23 -8 32 -25 34
-44 6 -109 110 -137 220 -15 56 -15 64 0 99 39 91 53 110 123 165 l74 59 91
-2 c79 -1 97 -5 133 -28 24 -14 43 -31 43 -38 0 -12 84 -73 101 -73 5 0 23 10
39 22 26 19 29 27 24 54 -5 28 -1 35 29 60 19 15 55 35 79 44 40 14 47 14 97
-2 100 -33 168 -92 191 -165 20 -61 48 -86 91 -79 42 7 60 -8 79 -67 6 -20 20
-42 31 -47 18 -10 26 -50 13 -63 -13 -12 -46 15 -60 49 -19 46 -38 51 -76 22
-31 -24 -31 -25 -35 -129 -2 -57 -1 -114 2 -126 8 -33 40 -28 66 9 33 49 81
98 96 98 7 0 16 8 21 18 11 22 31 117 35 162 1 22 7 34 15 32 7 -1 20 14 28
33 8 19 16 35 19 35 2 0 8 -15 13 -32 8 -28 6 -37 -13 -58 -27 -29 -45 -87
-38 -122 2 -13 -8 -66 -23 -118 -15 -52 -31 -120 -35 -150 -11 -81 -24 -132
-40 -160 -13 -23 -14 -17 -20 78 -7 109 -17 134 -47 116 -19 -11 -90 -149 -91
-177 -1 -23 -29 -77 -40 -77 -15 0 -18 41 -16 205 3 173 25 289 65 345 11 16
17 31 12 34 -13 8 -49 -27 -71 -71 -21 -42 -45 -171 -43 -228 2 -50 -19 -115
-37 -115 -21 -1 -42 -18 -68 -55 -16 -23 -22 -51 -26 -125 -4 -52 -9 -125 -13
-162 l-7 -67 -57 -35 c-32 -20 -68 -36 -80 -36 -37 0 -79 29 -85 58 -4 15 -8
37 -11 49 -4 23 -48 43 -95 43 -36 0 -51 -27 -43 -79 6 -38 4 -43 -43 -92
l-49 -52 -90 0 c-73 0 -96 4 -130 22 -37 19 -42 26 -48 68 -12 89 -7 156 14
191 21 35 72 62 114 62 30 0 40 13 32 45 -9 35 -61 43 -113 16 -70 -35 -123
-109 -143 -197 -10 -42 -8 -51 8 -73 31 -43 33 -60 12 -81 -18 -18 -58 -26
-97 -21 -10 1 -13 -40 -13 -177 l0 -179 1153 3 c1993 6 3110 12 3462 18 187 3
350 6 363 6 l22 0 0 1646 c0 1053 -3 1643 -10 1639 -13 -8 -50 31 -50 54 0 24
-23 43 -43 35 -9 -3 -23 -17 -32 -31 -16 -23 -19 -24 -83 -17 -82 8 -106 23
-138 85 -40 79 -25 162 33 188 24 11 24 11 6 36 -13 19 -25 24 -43 21 -14 -2
-52 -8 -86 -11 l-60 -7 -52 56 c-54 60 -72 103 -72 176 0 67 16 111 54 153 29
32 40 37 77 37 24 0 53 -7 63 -15 28 -21 70 -19 91 5 12 14 25 18 42 14 34 -9
54 11 42 42 -5 14 -9 30 -9 35 0 16 90 99 129 119 86 44 140 136 141 238 0 58
-2 62 -22 62 -42 0 -52 -14 -39 -53 13 -38 3 -94 -25 -149 -23 -45 -109 -88
-174 -88 -85 1 -188 58 -211 118 -5 13 -17 26 -27 29 -9 2 -25 17 -34 34 -22
38 -41 44 -72 24 -31 -20 -33 -36 -7 -52 33 -21 31 -68 -6 -120 -18 -25 -33
-56 -33 -68 0 -22 -44 -75 -61 -75 -5 0 -18 5 -29 12 -16 10 -26 9 -57 -9 -22
-13 -38 -30 -38 -40 0 -27 -41 -28 -96 -2 -39 18 -51 20 -63 10 -13 -11 -13
-17 1 -46 12 -26 14 -40 6 -57 -9 -21 -12 -19 -45 33 -66 103 -136 137 -248
117 -108 -18 -111 -18 -125 27 -18 55 -60 138 -78 154 -34 27 -71 -15 -107
-122 l-22 -69 -33 32 -32 31 -12 162 c-7 89 -16 191 -20 227 -7 50 -6 69 5 81
8 8 14 26 14 38 0 27 32 92 55 111 13 11 21 11 36 2 10 -7 35 -12 54 -12 28 0
43 7 66 32 35 39 36 48 4 82 -42 45 -30 117 27 159 l28 21 23 -22 c30 -28 38
-28 67 3 28 30 73 33 98 6 9 -10 35 -44 57 -75 57 -81 90 -74 96 20 4 46 1 55
-26 82 -53 55 -65 72 -65 92 0 15 7 20 24 20 30 0 40 15 41 60 0 28 4 36 21
38 16 2 32 23 55 68 41 79 99 130 173 151 l54 15 77 -37 c104 -50 157 -100
183 -173 28 -80 34 -110 22 -117 -18 -11 -11 -25 25 -46 21 -13 35 -29 35 -40
0 -27 27 -35 49 -15 10 9 25 16 35 16 32 0 56 20 56 46 0 18 10 31 36 46 33
20 35 23 32 67 -3 41 -1 46 19 49 12 2 24 13 27 27 3 13 15 26 26 30 27 8 99
-26 134 -64 17 -17 33 -31 38 -31 4 0 8 635 8 1410 l0 1410 -75 0 c-66 0 -75
-2 -75 -18 0 -10 5 -23 11 -29 8 -8 7 -17 -1 -34 -9 -17 -11 -83 -6 -263 4
-133 9 -331 12 -441 3 -110 3 -219 -1 -242 -11 -78 -40 -63 -250 123 -27 25
-72 56 -100 69 -35 16 -67 45 -110 96 -80 97 -311 306 -354 320 -27 9 -36 8
-49 -5 -14 -14 -14 -21 2 -73 29 -90 105 -388 126 -491 10 -51 22 -97 25 -102
11 -17 75 -254 75 -277 0 -34 -14 -35 -66 -7 -64 35 -212 131 -244 159 -29 25
-144 89 -180 100 -14 4 -38 18 -55 30 -52 39 -264 145 -289 145 -37 0 -40 -17
-12 -51 37 -44 35 -90 -7 -136 -31 -34 -37 -36 -96 -37 -50 -1 -66 3 -75 17
-9 15 0 27 64 87 41 38 71 72 67 76 -10 10 -51 -20 -123 -91 -36 -35 -89 -80
-117 -99 -95 -64 -113 -82 -99 -99 9 -10 33 -15 81 -15 37 -1 98 -6 135 -13
37 -6 75 -9 86 -6 10 3 27 -1 37 -8 31 -23 -3 -42 -109 -60 -54 -9 -119 -22
-144 -30 -26 -8 -89 -19 -142 -26 -77 -10 -96 -9 -102 1 -7 11 -11 11 -24 1
-20 -17 -21 -84 -2 -114 18 -26 27 -70 18 -83 -4 -5 -19 -17 -35 -27 -19 -13
-27 -26 -27 -47 0 -43 -36 -64 -92 -55 -24 4 -51 12 -61 17 -29 15 -102 100
-99 114 2 8 -2 14 -8 14 -6 0 -8 5 -5 10 4 7 11 6 19 -2 7 -7 30 -26 50 -42
20 -15 36 -34 36 -41 0 -7 7 -18 15 -25 20 -16 45 3 45 34 0 12 7 32 16 45 14
19 15 29 5 62 -15 50 1 87 69 158 27 28 44 51 37 51 -22 0 -76 -39 -93 -67
-10 -15 -35 -47 -55 -69 l-37 -41 -6 42 c-4 26 -16 51 -31 65 -21 20 -23 26
-12 50 13 30 99 167 206 329 35 53 74 121 87 152 29 71 65 128 82 129 17 0 15
-10 -9 -65 -12 -26 -29 -86 -39 -134 -10 -47 -27 -113 -38 -146 -18 -54 -18
-62 -4 -77 8 -10 19 -18 25 -18 11 0 90 56 162 115 28 23 61 49 75 58 14 9 54
39 90 67 163 128 170 132 203 126 17 -4 50 -15 72 -25 80 -38 134 -61 143 -61
5 0 15 -6 21 -14 6 -7 60 -37 119 -67 59 -29 146 -75 193 -102 133 -74 141
-60 80 143 -78 257 -90 297 -96 335 -6 37 -24 105 -89 331 -13 46 -20 88 -16
95 11 16 116 -30 175 -75 47 -37 131 -92 198 -130 26 -15 47 -31 47 -36 0 -6
30 -30 68 -54 37 -24 93 -69 126 -100 32 -31 71 -63 87 -72 16 -8 36 -22 46
-32 36 -36 93 -72 121 -78 33 -7 36 -1 47 101 5 41 2 79 -9 120 -10 40 -15
102 -15 180 1 66 -4 152 -10 190 -6 39 -11 98 -11 133 l0 62 -811 0 c-735 0
-810 -1 -798 -16 8 -10 21 -13 37 -9 19 5 23 3 19 -9 -3 -8 3 -26 14 -39 10
-14 19 -35 19 -46 0 -11 21 -42 47 -68 64 -65 95 -137 90 -206 -2 -29 -7 -59
-11 -66 -4 -6 -2 -18 4 -26 10 -13 16 -13 40 0 36 18 114 10 151 -16 40 -28
62 -83 55 -134 -9 -68 -34 -118 -74 -148 -32 -25 -43 -28 -80 -22 -47 7 -69
-5 -152 -79 -25 -23 -80 -66 -123 -96 -43 -30 -109 -79 -148 -107 -38 -29 -74
-53 -79 -53 -15 0 -12 24 11 103 11 40 29 104 40 142 11 39 25 87 31 109 11
35 10 40 -11 57 -18 14 -27 16 -42 8 -21 -11 -86 -107 -164 -243 -133 -232
-173 -296 -209 -337 -32 -36 -37 -39 -32 -19 25 91 36 165 35 235 -1 47 5 101
13 130 11 36 13 59 5 85 -16 61 -58 69 -84 15 -19 -40 -33 -45 -33 -12 0 28
-26 67 -45 67 -20 0 -73 48 -90 81 -8 15 -15 50 -15 76 0 45 -2 49 -37 68 -21
11 -43 31 -49 44 -7 12 -29 42 -51 65 -92 98 -108 147 -96 294 5 61 11 82 39
123 l33 49 -217 -1 c-119 -1 -209 -3 -199 -6 12 -3 15 -11 11 -29 -5 -21 -3
-24 21 -24 23 0 26 -2 15 -15 -10 -12 -9 -16 3 -21 9 -3 20 -3 26 0 5 4 11 -6
13 -21 2 -22 8 -28 26 -27 15 0 22 -5 22 -18 0 -13 6 -18 18 -16 24 4 69 -39
83 -79 16 -51 2 -142 -43 -277 -33 -100 -38 -122 -26 -130 7 -6 24 -29 36 -50
20 -34 22 -47 16 -102 -6 -60 -5 -65 25 -103 17 -21 31 -44 31 -49 0 -25 24
-62 40 -62 23 0 36 -18 45 -60 12 -60 102 -138 142 -123 49 17 79 73 54 98 -5
6 -19 34 -31 64 -11 30 -29 64 -39 77 -13 16 -19 42 -20 85 -1 34 -3 65 -6 69
-8 13 6 40 19 40 17 0 56 -47 56 -68 0 -9 9 -35 20 -57 11 -22 25 -59 30 -82
16 -64 63 -80 85 -30 7 14 19 22 35 22 17 0 26 6 28 20 7 40 46 125 56 122 17
-6 10 -98 -12 -145 -15 -34 -18 -52 -11 -80 9 -38 3 -130 -12 -169 -4 -12 -17
-24 -28 -28 -34 -10 -36 -47 -6 -95 15 -23 29 -63 32 -91 l6 -51 -29 4 c-22 2
-29 8 -30 26 -2 30 -33 72 -70 93 -44 26 -64 23 -77 -11 -15 -39 -35 -38 -92
6 -26 19 -53 33 -60 30 -8 -3 -17 -30 -21 -62 l-7 -58 42 -37 c23 -20 58 -41
78 -46 40 -9 60 -32 50 -57 -8 -19 -88 -56 -123 -56 -32 0 -80 25 -87 45 -8
20 -22 19 -55 -5 -20 -15 -36 -19 -60 -14 l-32 6 28 49 c25 45 26 50 10 65 -9
9 -36 18 -60 20 -23 2 -58 6 -76 9 -26 5 -43 0 -79 -24 -49 -32 -91 -39 -138
-21 -37 14 -30 45 10 46 51 2 55 4 55 18 0 8 -13 17 -29 21 -17 4 -53 31 -89
69 -50 52 -61 70 -67 108 -12 80 -6 92 45 93 34 1 52 -4 74 -23 22 -18 37 -22
59 -18 39 8 63 -7 88 -55 32 -63 106 -86 170 -53 17 8 56 19 87 24 66 11 92
31 72 54 -15 19 -45 20 -106 5 -61 -16 -112 0 -164 50 -35 33 -40 43 -40 84 0
48 16 71 32 43 11 -19 39 -21 56 -4 18 18 15 49 -13 126 l-25 69 19 44 c27 61
38 134 20 127 -9 -4 -15 3 -16 21 -9 102 -16 131 -30 131 -10 0 -12 6 -7 23
16 52 47 58 43 9 -3 -45 0 -62 14 -62 34 0 106 245 92 311 -7 31 -31 56 -60
61 -17 2 -20 -2 -18 -26 2 -22 -1 -26 -9 -18 -46 46 -194 -70 -300 -234 -41
-64 -61 -98 -128 -219 -50 -91 -124 -304 -135 -390 -4 -27 -9 -58 -11 -67 -3
-11 6 -28 23 -44 27 -26 27 -27 5 -21 -46 11 -37 -46 12 -72 21 -12 31 -11 66
3 50 20 51 2 2 -27 -24 -14 -36 -16 -51 -8 -11 6 -28 11 -39 11 -11 0 -25 7
-32 15 -14 17 -60 21 -60 5 0 -5 -5 -10 -11 -10 -6 0 -9 7 -5 15 7 20 -13 19
-35 -1 -20 -18 -41 -11 -33 10 10 25 -18 30 -37 7 -19 -23 -39 -21 -39 5 0 21
-18 17 -30 -6 -15 -28 -54 -25 -74 5 -16 24 -16 26 7 49 23 23 81 46 117 46 8
0 21 4 28 9 18 11 -37 51 -76 55 -19 2 -27 9 -27 22 0 12 -7 19 -20 19 -14 0
-20 7 -21 25 -2 47 -4 50 -29 50 -22 0 -25 3 -19 24 8 34 -13 69 -37 63 -25
-7 -33 7 -17 32 15 25 -5 76 -27 67 -8 -3 -17 -1 -20 5 -4 5 1 12 9 15 17 7
21 41 7 63 -5 8 -16 11 -25 8 -26 -10 -31 15 -7 34 30 24 26 71 -7 79 -32 7
-32 22 1 38 35 17 38 62 5 86 -22 15 -22 16 -4 30 14 12 17 23 13 46 -5 22 -3
32 8 36 24 10 17 34 -9 34 -22 0 -36 16 -36 41 0 12 37 12 45 -1 8 -13 42 -13
51 1 3 6 1 16 -5 22 -21 21 -12 38 17 35 23 -3 27 1 27 22 0 20 6 26 30 30 26
5 30 9 27 34 -3 26 -1 28 22 22 35 -9 56 2 56 31 0 22 3 24 30 18 24 -5 35 -1
56 20 16 16 32 24 43 20 24 -7 51 4 51 20 0 22 18 27 41 12 23 -17 58 -11 76
12 9 13 14 14 24 4 16 -16 71 -17 87 -1 9 9 16 7 32 -10 24 -25 75 -30 84 -7
8 23 25 18 32 -10 4 -15 16 -28 31 -31 32 -8 36 -3 28 40 l-7 36 -824 0 -824
0 0 -1200z m1860 764 c0 -8 -5 -12 -10 -9 -6 4 -8 11 -5 16 9 14 15 11 15 -7z
m-26 -331 c-10 -40 -97 -214 -133 -267 -17 -25 -31 -47 -31 -51 0 -11 -63 -85
-72 -85 -13 0 9 37 58 100 50 66 154 250 154 274 0 18 17 56 26 56 2 0 1 -12
-2 -27z m336 -14 c0 -5 -4 -9 -10 -9 -5 0 -10 7 -10 16 0 8 5 12 10 9 6 -3 10
-10 10 -16z m-484 -80 c-34 -76 -77 -131 -61 -79 8 26 88 161 92 156 2 -2 -12
-36 -31 -77z m-105 -176 c-34 -50 -98 -121 -78 -87 16 28 80 121 94 137 32 35
23 7 -16 -50z m-101 -133 c0 -5 -5 -10 -11 -10 -5 0 -7 5 -4 10 3 6 8 10 11
10 2 0 4 -4 4 -10z m-62 -62 c-5 -14 -57 -33 -66 -23 -10 9 28 35 51 35 10 0
17 -5 15 -12z m3207 -59 c36 -32 48 -80 24 -95 -6 -3 -8 -17 -5 -30 15 -57
-58 -33 -96 32 -11 18 -32 40 -46 47 -55 26 -18 77 55 77 22 0 44 -10 68 -31z
m-3700 -9 c0 -22 -29 -18 -33 3 -3 14 1 18 15 15 10 -2 18 -10 18 -18z m355
-50 c0 -5 -4 -10 -10 -10 -5 0 -10 5 -10 10 0 6 5 10 10 10 6 0 10 -4 10 -10z
m2322 -52 c2 -18 -1 -46 -5 -61 -7 -21 -5 -32 7 -45 14 -16 14 -21 -4 -50 -11
-17 -37 -40 -60 -52 -51 -26 -53 -47 -3 -41 6 1 24 -14 38 -34 23 -30 33 -35
67 -35 45 0 69 11 116 51 32 28 82 39 82 19 0 -5 -4 -10 -10 -10 -5 0 -10 -4
-10 -10 0 -16 46 -12 60 5 18 22 110 18 110 -5 0 -4 -18 -20 -41 -34 -39 -26
-40 -28 -24 -46 15 -17 15 -19 -5 -25 -12 -4 -48 -4 -80 0 -68 8 -106 -8 -134
-56 -23 -39 -14 -49 45 -49 27 0 49 -5 49 -10 0 -6 -20 -20 -45 -32 -50 -25
-57 -44 -20 -58 14 -5 25 -14 25 -20 0 -17 -43 -28 -68 -19 -36 14 -72 11 -72
-5 0 -14 7 -18 63 -30 37 -9 32 -37 -8 -47 -62 -17 -128 25 -140 89 -9 49 -21
62 -57 62 -22 0 -29 -4 -25 -14 8 -19 -18 -42 -28 -25 -4 6 -23 17 -41 25 -28
12 -34 20 -34 44 0 26 -4 30 -27 30 -15 0 -37 -9 -49 -21 l-22 -21 -15 24
c-23 36 -29 125 -12 159 12 22 24 29 60 35 39 5 45 9 45 31 0 28 39 100 58
108 6 2 12 0 12 -5 0 -25 30 -6 40 25 8 24 25 43 60 64 36 22 51 39 60 68 21
65 37 73 42 21z m-1392 -63 c30 -17 102 -19 118 -3 17 17 52 -18 52 -52 0 -15
7 -33 15 -40 18 -15 20 -46 4 -56 -17 -10 -52 13 -71 47 -10 16 -23 31 -30 33
-86 23 -128 46 -128 73 0 16 8 16 40 -2z m930 -17 c16 -12 34 -36 40 -54 11
-33 7 -261 -5 -321 -12 -56 52 -130 102 -117 20 6 21 4 9 -29 -14 -42 -34 -67
-52 -67 -25 0 -94 52 -99 74 -2 12 -9 57 -15 101 -13 98 -25 114 -64 84 -54
-43 -78 4 -52 106 9 35 16 78 16 94 0 16 5 33 12 37 20 13 39 -28 36 -81 -1
-27 2 -49 7 -48 5 1 20 32 33 68 25 66 25 68 9 114 -26 70 -23 74 23 39z
m1294 -83 c31 -13 42 -27 65 -78 31 -67 27 -97 -10 -97 -32 0 -89 28 -89 44 0
22 -49 76 -70 76 -10 0 -23 6 -29 14 -10 12 -6 18 26 35 46 25 60 25 107 6z
m-2524 -14 c0 -11 -14 -31 -32 -46 -30 -25 -32 -26 -39 -8 -4 11 -5 31 -2 46
5 23 10 27 39 27 27 0 34 -4 34 -19z m1052 -71 c4 -3 7 -47 5 -97 -2 -80 1
-95 19 -120 17 -21 29 -27 52 -26 29 3 30 2 37 -55 9 -70 28 -118 58 -146 18
-17 25 -37 30 -86 4 -35 14 -74 23 -88 13 -19 14 -29 4 -52 -9 -23 -9 -33 3
-52 18 -29 26 -201 33 -743 2 -220 7 -420 11 -445 4 -25 7 -72 8 -105 1 -33 5
-95 9 -137 5 -43 6 -78 2 -78 -19 0 -112 35 -118 44 -4 6 -5 29 -2 51 5 32 -2
56 -30 117 -19 43 -44 83 -55 90 -14 8 -19 19 -15 34 9 34 -25 136 -57 169
-25 27 -28 35 -20 62 5 17 7 34 5 36 -3 2 -7 155 -10 338 -2 184 -11 435 -18
559 -8 124 -13 239 -13 255 1 58 -12 358 -19 430 -4 41 -4 81 0 91 5 14 10 12
28 -12 12 -16 26 -31 30 -34z m-322 37 c0 -21 -12 -28 -27 -16 -19 16 -16 29
7 29 11 0 20 -6 20 -13z m2206 -62 c21 -21 46 -104 38 -128 -7 -23 -42 -17
-86 14 -39 28 -81 118 -65 138 9 11 9 15 0 18 -7 3 -13 9 -13 14 0 11 106 -35
126 -56z m-2356 27 c0 -10 11 -33 25 -52 14 -19 25 -40 25 -47 0 -18 66 -49
120 -57 64 -9 105 16 142 85 16 30 33 55 39 57 15 6 22 -27 9 -43 -11 -13 -10
-24 1 -58 7 -23 14 -80 14 -127 1 -144 15 -440 26 -545 8 -86 15 -339 20 -745
1 -167 3 -158 -28 -152 -43 7 -53 21 -53 72 0 40 -3 48 -25 58 -16 8 -28 23
-31 42 -7 35 -23 38 -49 10 -26 -29 -50 -33 -85 -15 -29 15 -33 15 -50 0 -12
-11 -20 -13 -25 -6 -3 6 -19 18 -35 26 l-28 14 15 -55 c7 -30 14 -83 14 -117
0 -49 5 -226 8 -295 1 -9 16 -12 54 -10 46 3 52 5 48 23 -2 11 -4 48 -5 82 -1
68 13 84 28 33 5 -18 21 -37 36 -45 27 -14 44 -40 36 -54 -3 -4 -24 -14 -47
-21 -32 -11 -45 -22 -56 -47 -7 -19 -25 -38 -38 -43 -31 -12 -41 -51 -24 -93
15 -37 63 -112 92 -144 11 -13 17 -26 14 -30 -11 -11 -56 37 -62 68 -8 33 -12
35 -43 13 -30 -20 -28 -37 8 -72 17 -17 30 -33 30 -36 0 -4 -21 -16 -47 -29
l-48 -22 -3 -59 c-2 -39 2 -65 12 -81 17 -25 78 -50 101 -41 8 3 30 -1 49 -9
41 -17 107 -20 123 -4 13 13 71 -9 92 -35 12 -14 12 -22 3 -37 -26 -41 -10
-123 32 -169 13 -14 26 -38 29 -55 3 -16 13 -55 22 -85 14 -47 17 -115 20
-462 l4 -407 26 -88 c27 -87 27 -91 23 -318 -5 -250 4 -315 42 -315 29 0 33
15 32 114 l-1 91 30 -62 c27 -59 49 -77 64 -53 4 6 1 27 -7 48 -8 23 -13 96
-15 192 -1 85 -4 171 -6 190 -2 19 -4 46 -6 60 -1 14 -10 36 -20 49 -15 20
-21 22 -39 12 -19 -10 -22 -8 -33 26 -7 23 -13 121 -15 253 -2 118 -8 273 -15
343 -6 70 -8 149 -4 175 4 29 0 75 -10 120 -8 41 -13 78 -10 82 12 20 95 -32
167 -105 66 -65 75 -79 66 -95 -9 -13 -7 -27 5 -58 27 -68 40 -158 48 -342 4
-96 12 -229 18 -295 28 -321 33 -376 37 -450 3 -44 7 -87 11 -95 3 -8 10 -42
14 -75 7 -62 22 -156 40 -260 6 -33 19 -69 29 -80 10 -11 20 -29 22 -39 1 -10
10 -22 18 -26 69 -34 95 -51 98 -67 2 -10 10 -32 19 -50 13 -25 15 -39 6 -65
-5 -19 -6 -43 -2 -55 14 -37 -11 -54 -97 -66 -88 -13 -104 -20 -104 -45 0 -15
-13 -17 -108 -16 -59 0 -119 4 -133 8 -16 5 -29 3 -33 -3 -9 -13 -73 -15 -80
-2 -7 11 28 21 76 21 45 0 131 36 126 52 -9 25 -56 49 -108 54 -30 3 -72 13
-93 22 -34 14 -50 14 -121 4 -45 -7 -99 -12 -120 -12 -46 0 -166 21 -166 29 0
3 35 14 78 24 57 14 96 17 147 12 66 -6 74 -4 142 29 77 37 90 56 92 137 1 24
4 26 41 25 29 0 45 5 61 23 l22 23 33 -36 c20 -21 42 -36 56 -36 13 0 40 -9
61 -20 46 -25 64 -25 77 0 8 16 6 22 -12 34 -13 8 -40 18 -61 21 -22 5 -45 17
-58 33 -11 14 -29 32 -41 41 -22 15 -105 33 -145 32 -25 -1 -67 49 -77 92 -9
38 -29 43 -69 18 -19 -12 -43 -21 -54 -21 -25 0 -36 -14 -52 -60 -6 -19 -21
-44 -33 -57 -11 -12 -24 -39 -27 -59 -8 -49 -26 -59 -79 -44 -28 7 -58 26 -85
54 -23 24 -50 46 -59 49 -21 7 -23 44 -6 81 16 36 -9 62 -67 69 -58 8 -73 2
-83 -36 -8 -31 -8 -31 -31 28 -13 33 -30 75 -38 93 -8 17 -15 53 -16 80 -2 43
-5 47 -26 44 -13 -1 -35 -11 -51 -22 -25 -18 -27 -26 -33 -110 -4 -49 -14
-107 -22 -128 -9 -21 -14 -50 -11 -67 4 -20 0 -38 -12 -53 -22 -28 -87 -45
-115 -31 -31 17 -65 2 -86 -39 -11 -20 -43 -57 -72 -81 -49 -42 -52 -43 -65
-26 -8 10 -14 31 -14 46 0 48 -32 173 -52 201 -11 16 -22 55 -26 90 -7 62 -8
63 -37 63 -29 0 -30 -1 -32 -55 -6 -135 -21 -170 -69 -170 -31 0 -84 -50 -84
-79 0 -32 -20 -36 -46 -8 -12 14 -29 27 -36 29 -9 3 -1 20 25 51 21 26 42 47
48 47 5 0 21 24 35 53 15 28 37 65 50 80 19 23 23 39 23 90 0 98 20 503 31
602 5 50 12 212 16 360 3 149 7 272 9 275 2 3 6 93 10 200 3 107 10 215 15
240 14 64 27 363 23 510 -4 130 11 362 28 440 9 37 25 841 21 985 -5 142 -3
526 3 661 l7 161 51 -19 c36 -14 64 -18 90 -14 23 4 55 1 80 -8 53 -18 110 -9
202 33 49 23 72 28 85 21 18 -10 63 -1 97 19 27 16 43 13 43 -7z m1604 -196
c50 -21 80 -69 71 -114 -4 -20 -7 -45 -6 -55 0 -28 -23 -31 -73 -8 -56 24 -74
57 -56 100 6 16 9 39 5 52 -5 14 -2 25 6 30 18 11 14 11 53 -5z m524 -159 c18
-19 52 -103 52 -129 0 -14 -70 -8 -101 7 -20 11 -32 26 -36 46 -4 22 -14 34
-34 41 -34 12 -29 25 15 44 46 20 80 17 104 -9z m-523 -212 c14 -13 25 -33 25
-43 0 -11 9 -31 21 -46 24 -30 22 -59 -5 -64 -37 -8 -116 47 -116 80 0 11 -11
29 -25 42 -41 38 -33 56 25 56 41 0 56 -5 75 -25z m841 -68 c23 -20 28 -34 32
-85 6 -78 -13 -91 -60 -43 -17 17 -44 39 -60 48 -29 18 -36 37 -18 48 6 4 8
15 5 25 -4 14 0 20 17 23 46 9 57 7 84 -16z m-1266 -49 c53 -28 80 -62 90
-118 7 -38 6 -42 -18 -51 -53 -20 -142 28 -142 77 0 30 -41 74 -69 74 -11 0
-23 5 -26 10 -3 6 4 10 17 10 13 0 30 5 38 10 24 16 63 11 110 -12z m933 -57
c27 -33 45 -117 28 -134 -13 -13 -156 58 -177 87 -32 47 -3 74 83 75 34 1 46
-4 66 -28z m-926 -297 c26 -16 76 -116 71 -142 -8 -43 -103 -11 -130 45 -8 15
-20 27 -27 25 -18 -4 -61 26 -61 42 0 8 14 23 32 34 35 22 75 21 115 -4z
m-2395 -374 c-2 -14 -5 -52 -7 -85 -2 -33 -6 -91 -10 -130 -5 -53 -2 -76 9
-95 51 -84 52 -87 28 -129 -12 -21 -22 -46 -22 -56 0 -9 -14 -37 -31 -62 -36
-52 -44 -47 -54 33 -3 27 -8 60 -11 74 -9 41 -66 120 -91 126 -13 4 -28 15
-34 26 -9 17 -3 28 50 77 60 55 87 105 95 174 2 15 14 39 27 53 29 31 55 28
51 -6z m-581 -5 c26 -3 54 -8 63 -11 17 -6 21 -49 10 -92 -6 -21 -11 -22 -53
-17 -25 3 -56 8 -69 11 -28 6 -62 59 -62 97 0 26 2 28 33 22 17 -3 53 -7 78
-10z m-154 -100 c39 -26 56 -61 49 -101 -4 -19 -10 -34 -14 -32 -21 10 -61 28
-87 37 -48 18 -84 53 -91 88 l-6 31 63 -4 c35 -3 74 -11 86 -19z m-217 -169
c25 -11 69 -86 70 -119 0 -24 -28 -33 -53 -18 -11 7 -47 17 -79 21 -68 10
-104 30 -120 66 -17 37 0 58 53 65 51 6 93 1 129 -15z m2574 -91 c10 -34 7
-100 -6 -118 -15 -20 -86 -37 -74 -18 13 20 -3 59 -38 99 l-34 37 22 26 c40
47 57 50 92 21 18 -15 34 -36 38 -47z m-2144 -80 c0 -18 12 -50 29 -76 16 -24
35 -66 42 -92 7 -29 20 -54 33 -62 34 -21 92 -22 115 -1 11 10 26 16 33 13 7
-2 21 0 31 5 20 10 57 -6 57 -26 0 -8 -6 -16 -14 -19 -18 -7 -28 -63 -30 -160
-1 -63 -4 -80 -18 -88 -25 -14 -56 5 -60 38 -2 20 -18 36 -73 70 -63 40 -75
44 -118 40 -35 -3 -54 0 -69 13 -21 16 -21 17 -3 63 17 44 17 50 1 105 -16 58
-17 206 -2 231 13 21 46 -18 46 -54z m1999 23 c17 -18 31 -41 31 -51 0 -16 -2
-16 -30 -2 -31 16 -55 58 -44 76 8 13 10 12 43 -23z m-1370 -12 c9 -11 5 -16
-20 -25 -18 -6 -33 -11 -34 -11 -1 0 0 11 3 25 5 28 32 34 51 11z m1609 -48
l20 -32 -33 -40 c-51 -64 -68 -103 -60 -143 5 -26 2 -40 -11 -54 -20 -22 -9
-41 38 -65 36 -19 36 -34 -1 -34 -48 0 -85 19 -110 55 -65 95 -38 214 61 275
26 16 53 39 60 50 7 11 14 20 14 20 1 0 11 -14 22 -32z m-1549 -5 c20 -18 20
-19 3 -58 -16 -36 -19 -38 -29 -21 -6 10 -8 27 -6 37 7 26 -14 24 -49 -6 -36
-30 -58 -32 -58 -5 0 14 15 27 48 44 58 30 65 30 91 9z m1341 -60 c0 -3 -6
-14 -14 -22 -17 -21 -36 -77 -36 -110 0 -33 35 -109 63 -139 28 -30 83 -59
126 -65 18 -3 41 -13 50 -21 19 -18 57 -21 66 -7 3 5 19 13 37 16 17 4 41 18
53 31 l22 24 42 -23 c39 -21 52 -37 30 -37 -6 0 -8 -8 -4 -19 5 -17 1 -18 -38
-14 -52 6 -93 -12 -131 -57 -34 -41 -41 -71 -26 -114 8 -26 8 -44 -1 -74 -15
-50 -5 -117 23 -162 13 -19 27 -53 33 -75 7 -29 16 -41 35 -46 20 -6 21 -7 5
-8 -37 -3 -144 61 -160 96 -28 57 -30 92 -7 122 l20 28 -23 30 c-25 32 -129
87 -182 96 -25 5 -35 2 -47 -14 -13 -18 -18 -20 -48 -10 -18 6 -49 15 -68 19
-30 7 -35 13 -38 41 -5 46 5 77 25 87 10 4 56 11 103 16 150 15 209 12 232 -9
22 -20 24 -43 3 -43 -25 0 -27 -43 -6 -94 17 -39 25 -47 43 -44 20 3 23 9 25
58 1 30 5 71 8 90 5 27 2 39 -12 51 -16 15 -145 58 -218 74 -16 4 -41 21 -56
38 -15 18 -48 56 -73 85 -47 53 -55 79 -34 100 8 8 17 8 30 1 28 -15 48 6 48
52 0 26 6 41 18 48 19 12 82 15 82 4z m-2296 -53 c17 -43 14 -63 -16 -97 -16
-17 -18 -25 -9 -41 6 -12 11 -30 11 -41 0 -11 12 -34 27 -51 23 -28 24 -32 8
-28 -11 2 -24 12 -30 23 -5 11 -21 36 -34 54 -24 33 -25 34 -34 13 -21 -47 87
-141 181 -158 52 -9 70 -21 92 -57 39 -64 20 -135 -48 -180 -52 -34 -60 -67
-32 -138 23 -59 77 -121 120 -139 15 -6 47 -10 71 -8 39 3 44 6 47 28 2 16 14
32 33 42 19 11 32 28 35 48 7 32 15 36 44 20 22 -12 60 -108 60 -151 0 -64 63
-149 111 -149 11 0 24 -11 31 -25 9 -20 14 -22 31 -14 15 9 18 8 14 -3 -2 -7
-10 -12 -16 -11 -6 2 -11 -1 -11 -5 0 -5 -10 -8 -22 -8 -18 1 -22 -5 -24 -41
l-2 -42 83 -46 c46 -25 93 -45 106 -45 l22 0 -21 23 c-15 16 -18 27 -12 37 17
26 41 120 34 131 -4 7 -18 -1 -36 -18 -21 -20 -29 -36 -28 -58 4 -61 -1 -66
-35 -41 -19 14 -19 18 15 101 5 11 13 39 18 63 9 37 8 44 -10 57 -15 10 -19
20 -14 37 65 216 84 374 41 338 -8 -7 -12 -16 -9 -21 3 -5 -1 -19 -7 -31 -7
-13 -11 -44 -10 -70 2 -54 -16 -93 -36 -76 -42 34 33 243 115 323 20 19 42 35
49 35 22 0 14 -14 -19 -33 -29 -17 -30 -19 -15 -35 15 -14 23 -15 62 -4 25 7
50 12 57 12 16 0 -54 -45 -106 -69 -47 -20 -60 -47 -33 -68 18 -15 44 -12 43
5 0 8 13 20 29 26 17 6 49 24 72 40 23 15 49 26 57 23 15 -6 40 18 70 67 17
26 19 27 28 11 12 -21 3 -103 -17 -148 -7 -18 -21 -57 -30 -87 -9 -30 -37 -86
-62 -125 -94 -142 -99 -154 -107 -245 -8 -99 -21 -161 -43 -208 -13 -26 -13
-37 -4 -55 7 -12 12 -31 11 -42 -2 -74 -8 -134 -15 -145 -5 -8 -9 -36 -11 -64
-3 -67 -25 -125 -61 -165 -20 -22 -35 -30 -47 -25 -11 4 -25 -1 -40 -15 -25
-24 -75 -41 -118 -41 -16 0 -28 -4 -28 -9 0 -4 -21 -14 -47 -21 -56 -15 -93
-35 -185 -102 -74 -53 -90 -60 -58 -26 13 15 16 24 9 29 -7 4 -8 9 -1 13 6 3
12 1 14 -6 5 -13 87 42 122 81 11 12 27 21 37 21 18 0 59 36 59 53 0 11 -80
-2 -98 -16 -14 -11 -12 -6 33 87 35 75 48 202 21 212 -9 3 -23 1 -31 -6 -12
-10 -16 -9 -21 6 -3 11 -12 37 -20 58 -16 46 -14 52 15 36 23 -12 28 -1 9 18
-20 20 -4 22 57 6 103 -27 148 -56 172 -111 12 -26 24 -57 25 -68 2 -12 12
-21 25 -23 15 -2 24 -13 30 -40 7 -28 14 -38 32 -40 23 -4 24 -2 18 43 -8 56
-13 65 -35 66 -11 0 -28 23 -47 62 -34 70 -53 84 -176 127 -117 42 -154 68
-167 122 -9 34 -8 49 3 72 8 16 15 30 15 30 0 1 -11 2 -24 2 -14 1 -32 -6 -41
-16 -23 -25 -12 -91 22 -130 23 -28 24 -50 1 -50 -15 0 -78 71 -78 88 0 7 -20
33 -45 58 -25 24 -45 52 -45 62 0 24 -65 88 -75 72 -4 -6 -4 -22 -1 -36 l7
-25 -23 21 -23 22 30 25 c55 46 104 61 200 63 50 2 97 2 107 1 21 -1 118 -78
125 -99 15 -44 84 -182 91 -182 5 0 32 -18 62 -40 41 -30 56 -37 67 -29 7 6
13 15 13 18 0 9 -78 61 -91 61 -4 0 -29 42 -54 93 -26 50 -65 111 -88 135 -47
48 -148 107 -220 129 -43 13 -51 13 -65 0 -10 -8 -32 -18 -49 -22 -18 -3 -39
-15 -46 -25 -7 -10 -40 -39 -72 -63 -33 -24 -75 -61 -93 -82 l-32 -37 -68 5
c-86 7 -169 31 -198 58 -33 31 -47 70 -35 101 10 26 13 27 111 30 55 2 100 1
100 -2 -1 -12 -74 -50 -96 -50 -27 0 -33 -24 -8 -34 47 -18 87 -3 152 56 37
34 48 38 82 35 22 -2 46 -10 55 -17 11 -9 19 -10 27 -2 7 7 -2 17 -32 32 -43
22 -71 22 -149 3 -17 -4 -22 -2 -17 6 21 33 -34 81 -94 81 -39 0 -39 -16 1
-24 22 -4 30 -11 27 -23 -2 -13 -15 -19 -47 -21 -48 -4 -73 10 -53 30 21 21
13 29 -22 23 -30 -6 -36 -3 -65 32 -50 60 -57 99 -36 190 10 43 22 82 26 87 5
6 9 20 9 33 0 13 5 23 10 23 12 0 11 2 15 -112 3 -81 5 -89 35 -127 38 -47 85
-72 145 -76 25 -1 64 -14 90 -29 38 -23 46 -25 51 -12 5 13 12 11 40 -10 37
-29 97 -53 132 -54 40 0 23 17 -35 35 -32 10 -70 30 -85 45 -49 50 -66 176
-27 208 55 44 60 55 57 111 -3 52 -5 56 -47 85 -36 26 -49 44 -74 106 -43 107
-41 163 7 263 21 42 42 77 46 77 4 0 15 -18 24 -40z m929 3 c12 -15 38 -45 58
-67 20 -23 65 -83 99 -134 51 -76 62 -97 53 -110 -6 -10 -19 -15 -29 -13 -56
11 -82 3 -146 -42 -91 -65 -146 -65 -74 1 32 29 33 32 22 65 -6 18 -23 48 -38
65 -35 42 -75 127 -83 177 -6 40 -5 41 37 62 57 29 74 28 101 -4z m1627 10 c0
-10 7 -31 16 -48 15 -28 17 -53 11 -130 -2 -25 -6 -30 -27 -27 -36 3 -58 35
-65 95 -6 44 -3 59 15 90 23 39 50 49 50 20z m-1803 -52 c-2 -9 3 -28 10 -43
7 -16 9 -28 4 -28 -16 0 -29 24 -33 61 -3 28 0 35 10 32 7 -3 11 -13 9 -22z
m-1058 -30 c26 -24 31 -36 31 -76 0 -25 4 -55 10 -65 12 -23 4 -47 -21 -60
-14 -8 -26 -4 -54 21 -45 40 -65 78 -65 123 0 19 -4 38 -10 41 -16 10 -12 33
8 38 44 12 71 6 101 -22z m1037 -87 c22 -3 40 -17 63 -49 18 -25 46 -55 62
-67 16 -12 29 -27 29 -35 0 -21 -103 -113 -127 -113 -30 0 -40 20 -14 27 35 9
18 28 -30 34 -52 6 -104 32 -118 57 -11 21 -3 131 11 148 8 11 42 11 124 -2z
m2284 -63 c0 -15 9 -36 20 -46 16 -14 20 -29 18 -58 -3 -36 -6 -40 -43 -53
-65 -22 -75 -19 -69 19 8 47 35 139 45 160 13 24 29 12 29 -22z m-475 -31 c-3
-5 -10 -10 -16 -10 -5 0 -9 5 -9 10 0 6 7 10 16 10 8 0 12 -4 9 -10z m-1358
-122 c-3 -7 -5 -2 -5 12 0 14 2 19 5 13 2 -7 2 -19 0 -25z m2174 -9 c29 -15
86 -110 94 -155 4 -21 16 -83 27 -137 10 -55 17 -101 15 -104 -3 -3 -23 7 -44
21 -20 14 -44 26 -53 26 -8 1 -26 10 -39 20 -19 17 -22 26 -17 54 4 20 2 37
-4 41 -18 11 -50 -5 -64 -33 l-14 -27 -10 25 c-10 27 0 116 17 148 5 10 17 24
25 31 12 10 13 18 5 32 -15 29 -33 23 -83 -26 -47 -45 -57 -44 -32 3 8 15 18
39 24 54 6 15 21 28 34 31 45 8 100 7 119 -4z m-2361 -3 c0 -3 -4 -8 -10 -11
-5 -3 -10 -1 -10 4 0 6 5 11 10 11 6 0 10 -2 10 -4z m1860 -11 c0 -9 -6 -12
-15 -9 -8 4 -12 10 -9 15 8 14 24 10 24 -6z m-2215 -14 c18 -7 17 -8 -7 -14
-16 -4 -37 -24 -55 -52 -15 -24 -34 -44 -41 -45 -7 0 -15 -7 -19 -17 -5 -14
-8 -12 -15 7 -5 14 -5 27 2 34 7 7 10 6 10 -2 0 -24 39 7 46 36 8 31 32 62 48
61 6 0 20 -4 31 -8z m1995 -6 c-7 -9 -15 -13 -17 -11 -7 7 7 26 19 26 6 0 6
-6 -2 -15z m478 3 c-3 -7 -15 -15 -28 -16 -21 -3 -22 -2 -11 12 16 19 44 21
39 4z m-2022 -33 c-3 -20 -16 -31 -16 -13 0 13 8 28 16 28 1 0 1 -7 0 -15z
m-1096 -35 c0 -22 -11 -42 -35 -67 -19 -20 -35 -42 -35 -50 0 -18 -8 -16 -59
15 -24 15 -54 46 -68 70 l-25 42 45 0 c37 0 48 -4 61 -25 9 -14 25 -25 35 -25
24 0 71 37 71 56 0 8 2 14 5 14 3 0 5 -14 5 -30z m1040 15 c0 -8 -7 -15 -15
-15 -16 0 -20 12 -8 23 11 12 23 8 23 -8z m1964 3 c12 -38 15 -68 8 -68 -10 0
-32 45 -32 65 0 18 19 20 24 3z m-2334 -23 c0 -19 29 -20 36 0 4 8 11 12 17 8
6 -4 5 -10 -4 -17 -24 -19 -69 -120 -69 -156 -1 -32 -2 -33 -12 -15 -24 40
-27 117 -7 158 20 38 39 49 39 22z m107 -27 c-14 -24 -30 -60 -37 -80 -6 -21
-16 -38 -21 -38 -23 0 3 81 40 127 37 45 46 40 18 -9z m1911 2 c13 -28 42 -42
42 -20 0 17 63 50 94 50 34 0 66 -25 66 -51 0 -27 66 -86 128 -115 28 -14 52
-30 52 -35 0 -28 -120 8 -162 48 -32 31 -66 26 -48 -7 16 -29 112 -72 215 -95
l30 -7 -24 -17 c-16 -12 -22 -24 -18 -35 7 -19 51 -38 86 -38 14 0 62 -18 108
-39 77 -35 235 -75 253 -64 12 8 150 -115 150 -134 0 -6 -17 1 -37 15 -20 13
-48 27 -62 31 -14 3 -46 15 -71 25 -25 11 -69 21 -97 22 -39 2 -59 8 -76 24
-18 17 -44 25 -103 32 -93 11 -183 45 -227 87 -18 16 -52 37 -77 46 -30 11
-53 29 -69 53 -14 19 -38 42 -55 51 -17 8 -39 22 -48 31 -16 14 -20 13 -38 -3
-23 -21 -12 -51 24 -65 13 -4 38 -27 55 -49 31 -39 127 -111 148 -111 5 0 19
-10 31 -23 17 -18 19 -26 10 -35 -7 -7 -16 -12 -21 -12 -10 0 -75 27 -97 41
-66 41 -80 53 -85 70 -7 21 -18 24 -45 9 -17 -9 -21 -6 -26 16 -4 17 -2 29 6
34 18 11 5 39 -23 49 -34 13 -50 37 -42 62 5 13 3 19 -3 15 -19 -12 -35 22
-27 61 6 33 52 112 65 113 3 0 11 -13 18 -30z m436 -102 c11 -24 -7 -23 -29 2
-21 23 -22 78 -3 113 12 20 13 17 19 -38 3 -33 9 -68 13 -77z m-3316 10 c3
-34 1 -37 -33 -48 -43 -14 -60 -4 -74 48 -9 30 0 44 14 22 10 -16 42 -12 49 6
11 30 41 11 44 -28z m63 -15 c0 -5 1 -38 2 -75 l3 -67 -46 6 c-52 6 -90 27
-90 48 0 9 9 15 21 15 32 0 89 39 89 61 0 18 19 28 21 12z m788 -146 c1 -10
-3 -15 -9 -12 -5 3 -10 23 -9 43 1 33 2 34 9 12 4 -14 8 -33 9 -43z m2647 -8
c28 -16 58 -29 66 -29 8 0 30 -16 49 -36 40 -42 71 -62 63 -41 -3 8 2 19 10
26 12 10 17 9 25 -8 21 -39 14 -50 -26 -44 -21 3 -42 10 -48 14 -5 5 -19 9
-31 9 -13 0 -34 15 -52 37 -28 36 -33 38 -105 43 -57 5 -85 13 -111 31 l-36
24 43 6 c59 9 94 1 153 -32z m142 -38 c3 -8 -5 -7 -22 4 -32 21 -33 27 -4 16
12 -4 24 -14 26 -20z m-2818 -17 c0 -8 -35 -44 -42 -44 -12 0 -10 34 3 47 10
10 39 8 39 -3z m80 -42 c0 -10 -3 -22 -7 -26 -4 -3 -8 -12 -9 -19 -1 -7 -9
-30 -18 -51 l-17 -40 -22 22 c-15 16 -19 26 -12 36 6 7 22 32 38 55 29 44 47
53 47 23z m2070 -67 c26 -13 71 -75 55 -75 -26 0 -95 56 -95 77 0 17 4 16 40
-2z m-2483 -1 c-3 -3 -12 -4 -19 -1 -8 3 -5 6 6 6 11 1 17 -2 13 -5z m2578
-84 c3 -5 2 -10 -4 -10 -5 0 -13 5 -16 10 -3 6 -2 10 4 10 5 0 13 -4 16 -10z
m594 -25 c42 -13 88 -27 102 -30 54 -10 131 -105 170 -209 17 -46 37 -74 99
-135 49 -48 81 -89 85 -107 21 -91 52 -143 105 -175 16 -10 30 -24 30 -31 0
-6 -3 -8 -7 -5 -7 8 -33 -11 -33 -24 0 -17 30 -9 42 11 9 13 23 20 43 19 l30
-1 -28 -8 c-40 -12 -57 -29 -57 -57 0 -20 4 -24 18 -18 9 4 26 9 37 10 11 2
33 8 48 14 43 17 49 4 15 -30 -29 -28 -30 -33 -23 -82 4 -29 9 -67 10 -85 4
-39 31 -85 48 -79 14 5 13 14 -15 191 -5 29 27 44 49 23 11 -9 27 -14 40 -11
17 5 28 -5 60 -53 36 -52 39 -61 30 -93 -5 -19 -13 -40 -18 -46 -5 -6 -21 -55
-35 -109 -14 -54 -31 -116 -39 -139 -7 -22 -15 -59 -18 -82 -2 -23 -7 -46 -10
-51 -4 -6 1 -10 11 -9 10 0 18 -7 20 -19 3 -19 42 -45 69 -45 7 0 13 -9 13
-20 0 -25 -2 -25 -42 0 -40 24 -52 11 -31 -37 8 -20 12 -38 9 -41 -3 -3 -11 9
-17 26 -9 28 -14 31 -47 28 -32 -2 -38 -6 -43 -31 l-5 -30 -17 38 c-17 40 -13
61 17 87 9 7 16 16 16 21 0 19 -32 8 -58 -20 -25 -27 -62 -51 -78 -51 -3 0 10
18 29 40 23 24 41 59 50 92 8 29 20 76 27 103 7 28 16 82 20 120 6 61 4 74
-14 100 -11 17 -24 32 -28 33 -4 2 -8 12 -8 22 0 10 -5 22 -10 25 -6 4 -10 14
-9 23 4 26 -12 66 -32 80 -11 7 -19 20 -19 28 0 8 -10 19 -22 24 -13 6 -31 16
-40 22 -14 10 -22 10 -38 0 -11 -6 -24 -12 -30 -12 -14 0 0 52 17 65 19 15 20
73 0 92 -19 19 -49 10 -41 -12 4 -8 1 -15 -6 -15 -7 0 -10 8 -7 20 3 11 1 35
-3 55 -4 19 -4 33 0 30 12 -7 23 31 15 55 -3 10 -18 29 -33 42 -15 13 -38 40
-52 60 -13 20 -35 42 -48 47 -12 6 -26 21 -31 33 -27 72 -217 275 -285 306
-23 10 -52 23 -66 29 -43 20 -11 14 69 -12z m-490 -25 c53 -33 146 -55 191
-45 21 5 43 -2 85 -26 62 -35 74 -52 56 -81 -17 -28 -8 -35 60 -42 88 -10 129
-39 163 -117 16 -34 43 -81 61 -105 43 -56 69 -126 61 -160 -5 -18 -2 -32 10
-45 17 -19 16 -19 -7 -17 -20 3 -25 -2 -27 -25 -4 -33 -30 -47 -44 -24 -20 36
-52 11 -41 -32 3 -12 1 -21 -5 -21 -5 0 -12 17 -16 39 -3 21 -13 44 -21 51 -9
8 -23 29 -31 48 -13 32 -13 35 9 53 19 14 23 25 19 51 -2 18 -8 38 -12 43 -4
6 -13 27 -20 48 -18 57 -68 110 -96 103 -12 -3 -31 -3 -41 2 -13 5 -6 8 27 12
37 4 45 9 45 25 0 17 -9 21 -50 26 -27 4 -70 16 -95 27 -25 11 -52 23 -60 26
-8 4 -35 17 -59 31 -52 29 -67 31 -75 9 -5 -13 -13 -9 -44 22 -50 51 -88 104
-95 132 -3 12 -3 22 -1 22 2 0 26 -14 53 -30z m486 -101 c52 -56 54 -76 3 -36
-57 45 -68 57 -68 72 0 25 15 17 65 -36z m-3469 6 c-15 -14 -32 -23 -37 -20
-16 10 -10 25 14 35 41 16 50 11 23 -15z m164 15 c0 -5 -4 -10 -10 -10 -5 0
-10 5 -10 10 0 6 5 10 10 10 6 0 10 -4 10 -10z m-60 -36 c0 -8 -4 -14 -10 -14
-5 0 -10 9 -10 21 0 11 5 17 10 14 6 -3 10 -13 10 -21z m-60 -14 c0 -5 -4 -10
-10 -10 -5 0 -10 5 -10 10 0 6 5 10 10 10 6 0 10 -4 10 -10z m-229 -31 c16 -8
18 -13 8 -25 -15 -18 -24 -18 -43 2 -28 28 -3 44 35 23z m119 -8 c0 -18 -24
-30 -37 -20 -19 17 -16 24 12 25 14 1 25 -1 25 -5z m207 -73 c-3 -7 -5 -2 -5
12 0 14 2 19 5 13 2 -7 2 -19 0 -25z m3048 21 c10 -16 -1 -22 -26 -14 -17 6
-19 9 -8 16 19 12 26 11 34 -2z m452 -26 c10 -16 29 -44 44 -63 28 -36 94
-179 86 -186 -13 -14 -37 17 -77 102 -25 53 -48 98 -52 100 -4 3 -16 0 -27 -6
-23 -12 -40 5 -22 23 6 6 11 21 11 34 0 31 16 29 37 -4z m-3443 -68 c-4 -8 -8
-15 -10 -15 -2 0 -4 7 -4 15 0 8 4 15 10 15 5 0 7 -7 4 -15z m63 -45 c0 -58
-9 -76 -21 -44 -3 9 -6 24 -6 34 0 19 17 70 23 70 2 0 4 -27 4 -60z m83 51 c0
-5 -7 -14 -15 -21 -13 -10 -15 -9 -15 9 0 12 6 21 15 21 8 0 15 -4 15 -9z
m-300 -19 c0 -10 -22 -32 -32 -32 -5 0 -3 9 4 20 13 20 28 27 28 12z m3610
-62 c0 -5 -5 -10 -11 -10 -5 0 -7 5 -4 10 3 6 8 10 11 10 2 0 4 -4 4 -10z
m-3510 -33 c13 3 33 -9 63 -38 40 -41 44 -49 51 -109 3 -36 9 -81 12 -101 5
-29 1 -41 -21 -67 -15 -18 -34 -32 -42 -32 -19 0 -82 45 -102 73 -7 10 -24 22
-36 27 -13 5 -29 18 -35 30 -10 18 -8 21 20 26 37 8 38 18 3 50 -21 19 -36 25
-60 22 -30 -4 -33 -1 -33 22 0 22 8 29 52 45 37 15 54 27 62 47 9 23 12 25 29
13 10 -7 27 -11 37 -8z m228 -45 c3 -9 -2 -13 -14 -10 -9 1 -19 9 -22 16 -3 9
2 13 14 10 9 -1 19 -9 22 -16z m-62 -119 c-11 -11 -19 6 -11 24 8 17 8 17 12
0 3 -10 2 -21 -1 -24z m3517 31 c8 -8 -10 -44 -22 -44 -5 0 -6 11 -3 25 4 25
13 31 25 19z m-71 -69 c0 -5 -5 -11 -11 -13 -6 -2 -11 4 -11 13 0 9 5 15 11
13 6 -2 11 -8 11 -13z m-304 -12 c5 -10 13 -36 17 -58 3 -22 13 -47 20 -55 7
-8 15 -44 18 -80 3 -46 8 -65 18 -65 7 0 16 -15 20 -33 5 -25 4 -31 -4 -23
-17 17 -37 13 -37 -7 0 -11 -12 -22 -32 -30 -28 -10 -34 -9 -51 9 -47 50 -139
63 -196 28 -46 -28 -28 -44 26 -23 31 13 48 14 70 6 28 -10 28 -10 -12 -12
-39 -1 -95 -33 -81 -47 3 -4 12 2 19 12 11 14 21 16 48 11 30 -7 76 -13 104
-15 6 -1 16 -10 22 -20 10 -16 9 -24 -9 -46 -16 -21 -19 -36 -15 -71 6 -56 -1
-84 -20 -84 -10 0 -12 7 -9 20 3 11 8 29 12 40 3 10 1 28 -5 38 -8 15 -6 23 9
37 20 18 27 45 12 45 -4 0 -17 -7 -28 -15 -12 -8 -24 -11 -28 -8 -3 3 -6 1 -6
-5 0 -7 -5 -12 -11 -12 -5 0 -8 4 -5 9 4 5 2 21 -4 36 -10 25 -13 26 -58 20
-92 -12 -87 -14 -88 30 -1 53 18 88 61 115 24 15 45 41 63 79 32 67 97 147
107 131 11 -18 25 -1 25 31 0 32 14 38 28 12z m-3088 -27 c0 -25 -7 -41 -27
-58 -16 -12 -36 -35 -45 -50 -33 -51 -232 -92 -246 -50 -3 10 5 13 34 10 68
-6 47 22 -39 51 -43 14 -83 34 -88 43 -10 17 7 68 22 68 16 0 104 -60 130 -89
48 -53 160 -55 181 -3 44 109 78 143 78 78z m3470 -20 c0 -28 -7 -52 -20 -69
-23 -28 -25 -48 -9 -64 16 -16 4 -43 -19 -43 -11 0 -25 7 -32 15 -18 21 -27
19 -42 -12 -7 -15 -24 -30 -37 -33 -14 -3 -26 -11 -29 -18 -5 -15 1 -15 49 0
22 6 41 9 44 6 3 -3 -2 -20 -12 -37 -14 -25 -23 -30 -40 -26 -13 3 -23 1 -23
-4 0 -17 41 -39 61 -34 22 6 43 48 33 65 -15 23 38 -15 62 -46 24 -30 30 -33
50 -24 13 6 30 8 39 4 24 -9 1 -36 -31 -36 -19 0 -24 -5 -24 -25 0 -22 -4 -25
-33 -25 -42 0 -66 -25 -58 -60 6 -20 14 -26 44 -28 44 -4 47 -14 10 -31 -32
-15 -133 -27 -133 -17 0 4 13 19 30 33 28 23 30 28 24 79 -5 37 -3 54 5 54 6
0 11 7 11 16 0 11 -8 14 -27 12 -23 -2 -29 -8 -31 -35 -2 -23 -9 -33 -27 -37
-25 -6 -55 -51 -55 -83 0 -15 -2 -15 -22 4 -20 20 -23 21 -50 7 -15 -8 -28
-21 -28 -30 0 -8 -10 -18 -22 -23 -16 -6 -23 -16 -23 -36 0 -28 -20 -48 -23
-23 -1 7 -4 24 -7 38 -4 19 2 33 30 63 20 20 44 37 55 37 10 0 20 7 24 15 7
20 -30 20 -64 0 -36 -20 -46 -18 -25 5 10 11 26 20 35 20 9 0 20 4 26 10 6 6
19 4 38 -5 37 -20 36 -21 36 23 0 21 4 42 9 48 16 15 24 101 11 109 -7 5 -2
18 17 43 18 24 27 49 28 77 2 60 24 95 70 114 22 9 52 24 65 34 35 25 40 22
40 -27z m370 24 c11 -7 12 -12 3 -21 -9 -9 -18 -7 -39 10 l-27 21 24 0 c13 0
31 -5 39 -10z m-4477 -43 c25 -31 31 -47 31 -90 1 -45 -2 -52 -20 -55 -13 -2
-40 13 -70 38 -27 23 -62 44 -77 47 -31 6 -52 36 -43 60 4 9 9 13 13 9 3 -3
13 0 22 8 20 17 47 25 85 23 20 -2 38 -13 59 -40z m1135 -14 c-2 -8 -8 -9 -16
-4 -9 5 -11 17 -6 36 l7 29 9 -24 c5 -13 7 -30 6 -37z m3412 2 c0 -3 6 -13 15
-21 22 -23 18 -40 -5 -19 -11 10 -20 27 -20 38 0 11 3 18 6 15 3 -4 5 -9 4
-13z m-4338 -74 c2 -20 18 -32 73 -59 64 -32 78 -35 162 -36 l93 -1 -38 -32
c-33 -29 -43 -32 -104 -33 -37 0 -70 -4 -73 -10 -3 -5 -23 -10 -43 -10 -20 0
-55 -7 -77 -15 -56 -20 -68 -19 -56 3 5 9 8 42 7 72 -2 30 2 66 9 80 11 21 11
30 0 50 -17 32 -11 41 20 27 14 -7 25 -22 27 -36z m843 12 c-4 -21 -14 -46
-22 -55 -18 -20 -10 -38 18 -38 21 0 25 -20 8 -37 -6 -6 -9 -19 -7 -29 4 -25
46 -25 65 0 16 23 15 16 -6 -25 -14 -29 -77 -69 -108 -69 -22 0 -64 42 -81 82
-10 24 -9 29 8 38 27 14 27 44 0 37 -11 -3 -23 -1 -26 4 -3 5 2 9 10 9 23 0
20 13 -9 40 -32 30 -24 40 33 40 28 0 61 8 82 19 19 11 37 20 39 20 2 1 0 -16
-4 -36z m3105 -3 c0 -5 -7 -10 -16 -10 -8 0 -12 5 -9 10 3 6 10 10 16 10 5 0
9 -4 9 -10z m-3046 -47 c-26 -19 -29 -8 -8 24 16 25 19 26 22 9 2 -11 -4 -25
-14 -33z m3123 -6 c4 -7 -8 -8 -35 -4 -23 3 -45 1 -48 -4 -3 -5 -12 -9 -19 -9
-20 0 -8 28 13 32 28 5 82 -4 89 -15z m-347 3 c0 -5 -2 -10 -4 -10 -3 0 -8 5
-11 10 -3 6 -1 10 4 10 6 0 11 -4 11 -10z m415 -1 c-4 -6 0 -16 8 -22 8 -7 17
-19 20 -28 5 -14 2 -14 -29 0 -45 20 -45 56 -1 60 5 1 5 -4 2 -10z m-3125 -69
c0 -5 -2 -10 -4 -10 -3 0 -8 5 -11 10 -3 6 -1 10 4 10 6 0 11 -4 11 -10z
m3010 -40 c0 -5 -4 -10 -10 -10 -5 0 -10 5 -10 10 0 6 5 10 10 10 6 0 10 -4
10 -10z m-40 -20 c0 -5 -2 -10 -4 -10 -3 0 -8 5 -11 10 -3 6 -1 10 4 10 6 0
11 -4 11 -10z m-3680 -15 c0 -15 -85 -95 -101 -95 -11 0 -19 -7 -19 -16 0 -10
6 -14 15 -10 30 11 16 -34 -17 -54 -40 -24 -55 -26 -34 -4 18 17 13 34 -10 34
-8 0 -14 -9 -14 -21 0 -18 -4 -20 -44 -14 -26 4 -46 3 -50 -3 -8 -14 9 -58 34
-84 20 -22 17 -47 -4 -29 -20 17 -81 16 -106 -2 -14 -9 -20 -17 -15 -17 6 0 4
-4 -3 -9 -8 -5 -28 -1 -50 11 -20 10 -49 17 -64 15 -23 -3 -25 -1 -17 15 11
21 20 23 37 6 9 -9 19 -5 45 20 18 18 38 32 44 32 5 0 8 10 6 23 -7 37 43 76
113 87 79 13 147 35 151 47 2 6 -13 18 -34 26 l-38 16 56 0 c38 1 61 6 69 16
12 14 50 21 50 10z m443 -10 c4 -8 2 -17 -3 -20 -6 -4 -10 3 -10 14 0 25 6 27
13 6z m250 -16 c-30 -12 -34 -10 -23 12 10 17 14 18 27 8 13 -12 13 -14 -4
-20z m3127 16 c-7 -8 -17 -15 -22 -15 -6 0 -5 7 2 15 7 8 17 15 22 15 6 0 5
-7 -2 -15z m70 7 c0 -4 -6 -14 -12 -20 -10 -10 -8 -14 10 -18 24 -7 30 -29 9
-37 -19 -7 -67 4 -67 15 0 5 10 23 23 38 22 29 37 37 37 22z m-4102 -57 c-21
-25 -48 -33 -48 -16 0 16 31 41 51 41 18 0 18 -1 -3 -25z m922 2 c0 -7 -16
-28 -35 -47 -19 -19 -35 -39 -35 -46 0 -6 -19 -34 -43 -60 -24 -27 -58 -73
-76 -102 -38 -60 -37 -91 6 -126 46 -38 73 -69 73 -83 0 -11 -7 -9 -26 6 -29
23 -64 28 -64 9 0 -6 -8 -3 -20 7 -28 25 -35 1 -15 -54 18 -51 18 -51 6 -51
-5 0 -13 12 -19 28 -14 39 -47 76 -60 68 -7 -4 -12 -27 -12 -52 0 -24 -4 -44
-10 -44 -13 0 -22 58 -17 110 2 25 2 51 0 57 -7 18 -54 16 -81 -3 -13 -9 -26
-13 -30 -10 -15 15 19 43 85 70 l71 29 27 81 c29 86 36 96 73 96 36 0 93 34
142 84 46 48 60 55 60 33z m2610 -11 c0 -18 -47 -49 -55 -36 -6 10 29 50 45
50 6 0 10 -6 10 -14z m55 5 c3 -5 1 -12 -5 -16 -5 -3 -10 1 -10 9 0 18 6 21
15 7z m-2932 -31 c-20 -34 -33 -39 -33 -12 0 21 19 42 38 42 10 0 9 -7 -5 -30z
m150 -1 c-6 -6 -33 -13 -60 -16 -45 -4 -47 -3 -29 11 23 19 107 23 89 5z
m3137 -4 c0 -8 -7 -15 -15 -15 -16 0 -20 12 -8 23 11 12 23 8 23 -8z m-720
-20 c0 -15 -38 -40 -47 -31 -3 3 5 14 18 25 29 25 29 25 29 6z m-559 -62 c-9
-16 -10 -15 -11 8 0 14 3 29 8 33 12 12 14 -22 3 -41z m659 38 c0 -18 -18 -21
-30 -6 -10 13 -9 15 9 15 11 0 21 -4 21 -9z m650 -19 c0 -4 -5 -14 -10 -22 -8
-13 -10 -12 -10 3 0 9 -4 17 -10 17 -5 0 -10 7 -10 15 0 13 4 14 20 5 11 -6
20 -14 20 -18z m-70 -27 c0 -8 -7 -15 -16 -15 -14 0 -14 3 -4 15 7 8 14 15 16
15 2 0 4 -7 4 -15z m-637 -13 c16 -2 40 -19 55 -38 15 -19 35 -34 45 -34 14 0
16 -4 9 -17 -5 -10 -7 -38 -6 -63 2 -25 5 -85 7 -134 4 -78 8 -92 27 -108 12
-10 33 -18 45 -18 26 0 55 -24 55 -46 0 -17 -2 -17 -34 -3 -14 7 -32 9 -41 5
-15 -6 -15 -8 3 -24 21 -18 39 -62 25 -62 -4 0 -14 9 -21 20 -33 53 -38 -18
-6 -82 8 -16 10 -29 4 -33 -11 -7 -23 16 -40 78 -20 73 -50 59 -50 -24 0 -21
-5 -39 -10 -39 -6 0 -10 24 -9 59 3 87 -12 101 -56 54 -30 -33 -33 -17 -6 35
22 43 19 87 -10 149 -11 23 -23 59 -26 80 -3 21 -10 43 -15 50 -5 6 -11 35
-13 65 -2 29 -7 65 -10 79 -9 36 11 73 33 63 9 -4 30 -9 45 -12z m-3236 -39
c-3 -3 -11 -2 -17 2 -9 6 -9 10 1 16 14 8 27 -7 16 -18z m3598 -29 c36 -19
118 -20 196 -1 52 13 56 13 52 -4 -6 -23 25 -39 55 -28 12 5 22 15 22 24 0 13
4 14 20 5 15 -8 19 -17 15 -33 -4 -12 -3 -17 2 -11 4 7 19 12 33 13 14 0 32 2
40 3 32 6 23 -18 -12 -35 -41 -20 -89 -24 -127 -12 -21 7 -23 6 -16 -16 4 -13
13 -29 21 -35 29 -23 12 -22 -31 3 -38 21 -48 23 -61 12 -11 -9 -14 -22 -10
-42 6 -29 -26 -107 -43 -107 -20 0 -69 71 -76 109 -6 39 -26 54 -40 31 -3 -5
-13 -10 -21 -10 -8 0 -12 5 -9 10 12 19 -22 10 -41 -11 -37 -41 -71 -52 -120
-38 -51 15 -57 34 -15 42 35 7 72 44 103 104 13 24 25 43 28 43 3 0 19 -7 35
-16z m305 -5 c0 -5 -4 -9 -10 -9 -5 0 -10 7 -10 16 0 8 5 12 10 9 6 -3 10 -10
10 -16z m-496 -50 c-3 -5 -10 -7 -15 -3 -5 3 -7 10 -3 15 3 5 10 7 15 3 5 -3
7 -10 3 -15z m-3239 -80 c63 -32 74 -50 63 -101 -5 -24 -12 -59 -16 -78 -9
-43 -31 -49 -72 -20 -40 28 -52 53 -60 125 -4 33 -10 68 -15 78 -6 14 -2 17
27 17 18 0 51 -9 73 -21z m3885 -9 c-1 -15 -19 -32 -29 -26 -19 12 -12 35 9
33 11 -1 20 -4 20 -7z m-448 -32 c-7 -7 -12 -8 -12 -2 0 6 3 14 7 17 3 4 9 5
12 2 2 -3 -1 -11 -7 -17z m-1724 -161 c-4 -26 -31 -30 -36 -4 -2 10 -1 30 3
44 l6 26 15 -22 c9 -12 14 -31 12 -44z m2374 16 c6 -13 8 -26 5 -29 -8 -8 -27
40 -26 64 0 14 2 14 6 2 2 -8 9 -25 15 -37z m-1688 -35 c8 -13 17 -33 21 -45
5 -18 2 -23 -12 -23 -23 0 -60 25 -73 51 -9 16 -7 21 12 29 33 13 36 12 52
-12z m1636 12 c0 -5 -2 -10 -4 -10 -3 0 -8 5 -11 10 -3 6 -1 10 4 10 6 0 11
-4 11 -10z m-2210 -41 c0 -21 -59 -154 -65 -147 -8 8 26 152 37 160 21 13 28
9 28 -13z m-795 -182 c-1 -56 -6 -143 -10 -193 -6 -71 -4 -108 10 -170 14 -62
16 -105 12 -199 -3 -66 -1 -142 4 -169 7 -39 10 -244 7 -451 0 -16 1 -96 4
-177 l4 -148 -23 0 c-28 0 -97 -34 -136 -66 -19 -16 -41 -24 -66 -24 -49 0
-54 7 -31 40 16 22 19 46 20 136 3 153 5 162 44 160 27 -1 31 2 29 24 -2 25
-5 303 -4 350 1 16 4 21 11 14 6 -6 13 -53 15 -105 11 -243 16 -294 34 -312
26 -27 51 -12 53 32 5 102 -5 216 -19 224 -12 7 -14 33 -12 139 3 106 0 131
-11 138 -21 12 -21 601 0 640 7 14 17 61 21 106 7 83 23 129 39 119 5 -3 7
-52 5 -108z m492 54 c-78 -79 -83 -113 -21 -130 25 -7 28 -12 25 -37 -2 -16
-5 -135 -6 -264 -1 -205 -4 -239 -20 -270 -16 -30 -17 -51 -11 -176 4 -77 10
-155 15 -171 5 -17 9 -93 10 -169 0 -76 6 -199 12 -272 12 -141 8 -162 -32
-162 -23 0 -36 46 -44 160 -3 47 -10 108 -15 135 -20 105 -42 423 -33 478 5
35 4 37 -20 37 -31 0 -57 -24 -58 -53 -1 -12 0 -76 2 -142 2 -66 3 -137 3
-157 1 -21 4 -38 9 -38 4 0 7 -15 7 -34 0 -19 4 -46 10 -60 5 -14 12 -78 16
-143 11 -189 12 -178 -14 -178 -23 0 -23 1 -27 162 -4 146 -18 283 -31 304 -2
4 -6 53 -8 108 -3 73 -1 101 7 101 8 0 7 4 -2 9 -9 6 -11 18 -7 35 3 14 2 44
-3 66 -9 40 -9 41 27 58 l37 17 -3 80 c-2 44 -8 105 -14 135 -13 69 -15 92
-18 222 -3 105 -3 109 28 158 36 57 34 75 -10 84 l-30 6 25 29 c66 79 147 126
220 127 27 1 27 0 -26 -55z m152 -32 c-19 -37 -23 -319 -8 -634 1 -16 -2 -84
-7 -150 -11 -152 -8 -488 6 -675 6 -83 7 -147 2 -152 -5 -5 -20 3 -34 20 -27
32 -32 80 -43 409 -3 65 -9 200 -15 301 -9 168 -9 184 7 209 16 24 18 56 19
267 1 226 3 243 23 281 13 24 20 55 19 80 l-1 40 -6 -45 c-4 -32 -8 -40 -13
-27 -4 9 -18 17 -30 17 -13 0 -29 4 -37 9 -12 8 -12 12 -2 25 7 9 18 13 24 9
5 -3 7 -1 4 5 -4 5 17 31 45 57 l53 48 3 -36 c2 -20 -2 -46 -9 -58z m-539 51
c0 -5 -2 -10 -4 -10 -3 0 -8 5 -11 10 -3 6 -1 10 4 10 6 0 11 -4 11 -10z
m2140 -12 c0 -19 -2 -20 -10 -8 -13 19 -13 30 0 30 6 0 10 -10 10 -22z m-1233
-30 c-3 -8 -6 -5 -6 6 -1 11 2 17 5 13 3 -3 4 -12 1 -19z m-898 -79 c1 -39 38
-114 71 -144 16 -14 20 -31 20 -75 0 -90 20 -261 35 -307 9 -27 12 -59 9 -88
-6 -39 -10 -46 -39 -55 -18 -6 -35 -16 -38 -23 -7 -20 21 -401 32 -444 6 -22
13 -112 15 -199 2 -87 7 -171 11 -187 l7 -27 -72 0 -73 0 8 42 c5 24 6 108 4
188 -2 80 -3 165 -3 190 4 233 3 434 -3 443 -4 6 -7 79 -8 162 -1 82 -7 190
-13 239 -7 59 -8 105 -2 139 6 27 10 76 10 107 0 32 3 73 7 91 7 33 7 33 14 9
4 -14 7 -41 8 -61z m1061 55 c0 -8 -4 -14 -10 -14 -5 0 -10 9 -10 21 0 11 5
17 10 14 6 -3 10 -13 10 -21z m-1336 -6 c53 -25 62 -42 41 -74 -22 -34 -51
-31 -58 5 -4 18 -14 32 -27 36 -19 6 -27 34 -13 48 9 9 7 10 57 -15z m16 -199
c0 -27 -4 -49 -10 -49 -5 0 -10 25 -10 56 0 34 4 53 10 49 6 -3 10 -28 10 -56z
m-80 35 c-19 -22 -55 -41 -45 -22 16 28 28 38 42 38 13 0 13 -3 3 -16z m941
-55 c-10 -23 -10 -23 -10 7 -1 17 2 34 7 38 11 12 14 -18 3 -45z m329 35 c35
-8 74 -14 85 -12 25 3 45 -9 45 -28 0 -11 -4 -12 -19 -5 -18 10 -115 1 -127
-12 -12 -12 17 -46 44 -52 63 -13 71 -86 77 -695 1 -173 6 -323 10 -332 11
-26 34 -29 57 -6 20 20 20 27 14 157 -9 184 -9 403 -1 477 4 37 2 98 -5 149
-10 73 -10 89 1 96 8 5 21 8 29 6 24 -4 28 -155 17 -721 l-4 -239 -24 -9 c-34
-13 -39 -25 -39 -105 0 -68 -1 -73 -22 -73 -12 0 -30 8 -40 17 -18 16 -21 15
-61 -4 -23 -11 -48 -18 -55 -16 -7 3 -22 23 -33 44 -18 36 -20 60 -20 302 -1
144 3 280 8 302 5 22 9 51 7 65 -8 86 -6 196 5 268 8 59 9 94 1 120 -5 20 -10
76 -10 124 0 75 -4 94 -25 133 -39 69 -27 76 85 49z m-330 -79 c0 -8 -4 -15
-10 -15 -5 0 -10 7 -10 15 0 8 5 15 10 15 6 0 10 -7 10 -15z m107 -82 c14 -48
18 -95 18 -278 0 -173 4 -237 18 -298 18 -80 21 -112 33 -458 7 -216 6 -227
-35 -214 -17 5 -19 16 -20 96 0 50 -4 96 -8 102 -4 7 -8 147 -9 312 0 182 -5
326 -12 367 -13 74 -26 403 -17 418 10 16 13 12 32 -47z m1140 22 c-4 -8 -18
-15 -31 -15 -53 0 -57 -24 -55 -286 2 -181 6 -247 17 -274 14 -34 42 -179 62
-325 6 -38 14 -94 20 -124 5 -30 10 -97 10 -148 l0 -93 -34 0 c-28 0 -35 4
-38 22 -2 14 -12 24 -28 28 -18 4 -26 13 -28 35 -2 16 -14 39 -27 51 -19 17
-23 30 -20 56 3 18 7 72 11 121 4 56 10 87 17 87 8 0 8 3 -1 8 -9 6 -12 62
-12 223 -1 118 -4 240 -9 272 -7 55 -4 83 37 312 6 33 12 40 38 45 16 4 38 12
49 18 23 12 30 9 22 -13z m-324 -32 c3 -15 1 -36 -5 -46 -6 -13 -6 -35 2 -68
8 -33 10 -90 6 -166 -5 -89 -2 -127 10 -169 20 -69 20 -123 0 -384 -8 -118
-16 -228 -16 -245 -1 -26 -3 -27 -10 -10 -8 17 -9 17 -7 -7 1 -15 5 -24 9 -22
4 3 8 -5 8 -18 0 -13 3 -40 6 -60 5 -25 3 -38 -5 -38 -6 0 -12 8 -12 18 -1 16
-2 16 -6 -1 -5 -19 -28 -23 -38 -6 -4 5 -6 65 -4 132 1 67 2 140 2 162 -1 22
-3 203 -5 401 -3 370 -7 401 -43 388 -18 -7 -25 20 -21 84 4 61 9 69 51 75 68
9 72 8 78 -20z m-180 -15 c4 -27 1 -395 -6 -839 -1 -47 -7 -92 -13 -100 -22
-28 -31 -75 -26 -137 5 -69 14 -79 55 -63 34 13 43 48 23 95 -11 25 -13 44 -7
55 5 9 11 66 12 127 5 175 13 196 26 69 10 -102 9 -351 -2 -402 -5 -21 -11
-23 -79 -23 l-73 0 -9 133 c-5 72 -8 188 -7 257 0 69 1 238 1 375 0 328 3 468
9 478 2 4 24 7 47 7 42 0 44 -2 49 -32z m302 -28 c7 -12 -14 -172 -25 -183
-13 -15 -19 116 -7 155 12 38 21 46 32 28z m257 -143 c-8 -27 -10 -16 -10 63
l1 95 10 -63 c7 -42 7 -73 -1 -95z m-2165 101 c-3 -8 -6 -5 -6 6 -1 11 2 17 5
13 3 -3 4 -12 1 -19z m-315 -40 c-7 -7 -12 -8 -12 -2 0 14 12 26 19 19 2 -3
-1 -11 -7 -17z m317 -45 l-1 -68 -9 50 c-8 45 -5 85 7 85 2 0 3 -30 3 -67z
m1668 -15 c-3 -8 -6 -5 -6 6 -1 11 2 17 5 13 3 -3 4 -12 1 -19z m-1733 -70 c3
-24 6 -81 7 -128 l2 -85 -47 -5 -47 -6 6 46 c15 108 48 220 66 220 4 0 9 -19
13 -42z m948 -28 c-9 -14 -9 -38 -1 -97 12 -88 20 -841 9 -848 -25 -16 -56
497 -44 730 3 66 7 152 9 190 2 39 4 72 4 75 1 2 9 -4 18 -13 15 -14 15 -21 5
-37z m1298 21 c0 -23 14 -34 68 -51 40 -13 71 -44 58 -58 -3 -3 1 -17 11 -31
20 -30 27 -105 13 -146 -7 -24 -9 -15 -8 45 2 57 -2 82 -15 100 -9 14 -17 32
-17 42 0 21 -29 38 -64 38 -26 0 -48 24 -61 69 -5 16 -4 21 4 17 6 -4 11 -15
11 -25z m-2170 -48 c0 -48 -3 -64 -10 -53 -17 26 -12 120 7 120 2 0 3 -30 3
-67z m2104 36 c3 -17 6 -53 6 -78 0 -62 26 -141 56 -168 28 -26 31 -61 8 -105
-15 -30 -15 -34 5 -82 11 -28 22 -60 24 -71 2 -11 9 -38 15 -60 17 -63 31
-126 37 -178 6 -44 5 -48 -20 -57 -36 -14 -35 -14 -35 26 0 20 -4 53 -9 73
-21 80 -42 210 -44 267 -1 34 -5 60 -9 58 -3 -2 -9 24 -13 59 -4 34 -13 69
-20 77 -14 17 -30 270 -16 270 5 0 11 -14 15 -31z m-223 -124 c2 -77 0 -83
-16 -55 -14 25 -19 153 -6 175 7 12 21 -65 22 -120z m-224 43 c-3 -8 -6 -5 -6
6 -1 11 2 17 5 13 3 -3 4 -12 1 -19z m585 -38 c4 -19 10 -47 14 -62 8 -33 -14
-39 -38 -10 -17 19 -32 95 -21 106 16 15 38 -1 45 -34z m-2766 -71 c4 -6 8
-37 11 -67 2 -31 8 -61 13 -66 15 -15 12 -26 -8 -26 -28 0 -34 -11 -19 -34 8
-12 17 -56 21 -99 4 -43 11 -88 15 -101 12 -30 -11 -83 -43 -97 -19 -9 -31
-29 -47 -76 -32 -97 -74 -153 -139 -185 -59 -29 -77 -33 -99 -19 -11 7 -10 16
9 47 13 22 36 53 52 70 19 21 31 48 38 85 21 121 33 148 65 149 6 0 18 7 29
15 15 11 21 39 32 147 7 73 14 155 14 182 0 62 35 108 56 75z m224 -194 c8 -9
24 -15 39 -13 22 3 29 13 49 68 25 71 52 110 52 74 0 -11 8 -31 18 -44 15 -22
17 -53 16 -299 l-1 -274 -24 -21 c-13 -12 -30 -33 -36 -49 -10 -22 -19 -27
-48 -27 -39 0 -41 4 -21 50 9 22 12 55 8 97 -4 54 -2 69 15 91 14 19 22 51 26
104 4 43 16 105 27 138 24 70 24 80 7 80 -40 0 -87 -122 -87 -224 0 -29 -9
-59 -25 -87 -18 -33 -25 -59 -25 -101 0 -61 -23 -123 -48 -133 -30 -11 -127
-16 -141 -7 -11 8 -9 16 13 44 14 19 26 43 26 52 0 21 19 58 34 68 6 4 23 8
38 8 15 0 29 3 32 8 2 4 6 50 7 101 3 101 -5 119 -41 86 -10 -9 -24 -14 -29
-10 -18 10 -13 33 8 40 27 8 35 36 36 132 0 50 6 88 13 95 7 7 12 26 12 43 0
17 6 37 13 44 10 10 13 -1 18 -53 3 -36 12 -72 19 -81z m237 83 c-3 -7 -5 -2
-5 12 0 14 2 19 5 13 2 -7 2 -19 0 -25z m2494 -49 c32 -22 65 -76 60 -98 -1
-7 8 -24 20 -37 18 -19 20 -27 10 -37 -17 -17 -41 17 -41 59 0 25 -10 42 -42
73 -36 36 -78 54 -78 35 0 -9 31 -33 55 -43 16 -7 21 -19 23 -57 1 -48 21 -77
73 -110 8 -5 22 -26 32 -47 14 -30 22 -37 35 -32 59 25 65 15 60 -110 l-3 -80
-27 45 c-49 80 -74 102 -108 95 -37 -8 -39 -29 -7 -76 34 -51 69 -121 63 -127
-6 -6 -33 24 -79 88 -28 40 -32 53 -32 112 0 54 -4 72 -23 98 -16 21 -23 41
-20 60 2 16 1 27 -3 25 -4 -3 -14 6 -23 20 -13 20 -25 25 -55 25 -36 0 -41 3
-60 42 -18 38 -19 44 -6 57 13 13 15 13 16 1 1 -8 1 -18 1 -21 -1 -10 36 -3
52 10 8 7 12 19 10 26 -5 12 11 19 54 24 8 0 27 -8 43 -20z m810 -19 c34 -19
21 -30 -28 -23 -55 7 -57 8 -48 22 8 14 51 14 76 1z m-71 -54 c0 -11 -19 -15
-25 -6 -3 5 1 10 9 10 9 0 16 -2 16 -4z m-1298 -48 c-8 -8 -9 -4 -5 13 4 13 8
18 11 10 2 -7 -1 -18 -6 -23z m850 -54 c3 -32 4 -68 2 -80 -4 -15 2 -26 20
-38 14 -9 26 -21 26 -27 0 -7 -10 -5 -24 5 -26 17 -42 7 -32 -19 3 -8 2 -15
-2 -15 -4 0 -14 20 -23 44 -14 39 -14 44 0 53 14 9 14 13 -4 33 -17 19 -26 21
-68 15 -38 -4 -48 -3 -45 7 2 7 19 18 38 23 18 6 45 22 59 37 14 15 31 26 36
24 6 -1 13 -29 17 -62z m543 45 c14 -5 3 -8 -35 -9 -102 -1 -107 -38 -5 -41
l50 -1 -47 -8 c-26 -5 -52 -11 -58 -15 -19 -12 0 -25 36 -25 43 0 45 -18 2
-22 -17 -2 -33 -9 -36 -15 -3 -10 14 -13 63 -13 62 0 105 -11 105 -28 0 -4
-35 -6 -78 -4 -62 3 -81 1 -91 -12 -19 -23 4 -29 94 -24 41 2 75 0 75 -4 0
-15 -24 -20 -84 -19 -86 1 -91 -4 -87 -91 7 -152 8 -143 -14 -143 -19 0 -20 5
-16 106 3 101 2 107 -17 113 -28 9 -88 -3 -102 -20 -7 -7 -9 -22 -5 -34 10
-30 -23 -26 -37 5 -9 21 -8 28 7 45 20 23 74 40 123 40 48 0 36 24 -15 31 -41
5 -73 23 -73 40 0 13 62 49 72 43 5 -3 16 -3 25 0 12 5 13 9 3 21 -6 7 -17 12
-24 9 -7 -3 -23 3 -36 14 -20 16 -21 21 -11 41 7 12 22 26 34 31 24 10 149 3
182 -11z m-1388 -91 c-2 -18 -4 -6 -4 27 0 33 2 48 4 33 2 -15 2 -42 0 -60z
m1453 42 c0 -5 -4 -10 -10 -10 -5 0 -10 5 -10 10 0 6 5 10 10 10 6 0 10 -4 10
-10z m35 -60 c-3 -5 -31 -10 -61 -10 -30 0 -54 5 -54 10 0 6 27 10 61 10 37 0
58 -4 54 -10z m-998 -103 c-2 -56 2 -68 33 -117 19 -30 42 -62 50 -70 9 -8 29
-30 45 -47 l29 -33 -107 0 -107 0 0 30 c0 19 5 30 14 30 18 0 33 19 41 50 4
18 -1 36 -19 62 -26 39 -31 85 -14 131 6 15 16 27 24 27 10 0 13 -16 11 -63z
m-2773 0 c7 -47 7 -47 -24 -54 -36 -7 -57 -34 -81 -106 -28 -83 -84 -138 -112
-111 -3 3 10 29 30 57 20 28 49 80 65 114 15 34 36 67 47 72 10 6 28 27 40 47
12 20 23 35 25 33 2 -2 7 -25 10 -52z m3221 -117 c16 -17 36 -30 44 -30 21 0
91 -70 91 -92 0 -26 -6 -23 -46 22 -20 22 -44 40 -53 40 -38 0 -91 87 -90 147
l0 38 13 -48 c7 -26 26 -61 41 -77z m-18 -98 c-23 -5 -47 15 -47 38 0 10 -7
23 -15 30 -8 7 -15 16 -15 21 0 4 21 -13 48 -38 38 -38 44 -48 29 -51z m-572
-40 c-8 -8 -25 10 -25 27 0 30 14 34 22 5 4 -16 6 -30 3 -32z m655 32 c0 -15
-18 -18 -45 -7 -15 5 -14 8 6 19 26 14 39 10 39 -12z m-1010 -15 c0 -11 -4
-18 -10 -14 -5 3 -7 12 -3 20 7 21 13 19 13 -6z M2358 7063 c-8 -10 -19 -31
-22 -48 -9 -35 -86 -111 -134 -131 -56 -24 -73 -78 -72 -225 1 -68 -2 -155 -5
-193 -6 -60 -4 -72 14 -97 15 -20 19 -36 15 -57 -7 -37 15 -48 56 -27 23 12
34 13 54 4 19 -9 40 -9 85 1 34 7 82 10 113 6 76 -9 81 -3 82 100 l1 89 43 2
c51 2 88 23 110 65 10 17 27 43 40 58 12 16 34 53 48 84 20 44 23 59 14 76
-14 27 -23 25 -62 -9 -67 -58 -108 -66 -134 -25 -13 19 -14 28 -5 37 15 15 14
38 -5 76 -22 44 -38 48 -97 23 -27 -12 -54 -19 -58 -16 -5 3 -6 23 -3 45 4 21
2 45 -3 51 -6 7 -13 33 -17 58 -10 67 -30 85 -58 53z m28 -85 c-8 -13 -6 -22
8 -37 14 -15 17 -32 15 -78 -5 -71 8 -77 86 -37 44 23 56 26 68 15 19 -15 11
-41 -13 -41 -10 0 -28 -9 -41 -20 -24 -20 -18 -25 24 -21 18 2 24 -24 7 -34
-5 -3 -10 -12 -10 -19 0 -8 26 -12 91 -13 88 -1 92 -1 122 29 17 16 33 25 35
19 5 -14 -38 -76 -70 -100 -14 -11 -33 -37 -43 -57 -20 -43 -71 -69 -109 -55
-13 6 -27 15 -31 20 -3 6 -15 11 -26 11 -11 0 -31 12 -46 26 -23 23 -25 31
-19 73 5 37 3 51 -9 61 -8 7 -15 18 -15 25 0 7 -11 15 -23 19 -35 9 -74 52
-81 91 -7 37 -2 50 47 128 26 40 32 45 38 30 3 -10 1 -26 -5 -35z M2622 6327
c-7 -8 -8 -26 -2 -52 10 -42 5 -77 -16 -110 -26 -42 -25 -62 5 -126 l30 -64
-27 -7 c-36 -10 -52 -34 -52 -77 0 -29 -7 -41 -34 -63 -28 -22 -33 -33 -33
-67 0 -52 23 -56 33 -5 4 24 11 34 22 32 20 -4 27 -88 7 -88 -20 0 -40 -29
-28 -41 8 -8 13 -7 17 0 4 6 19 11 33 11 18 0 42 18 85 62 l60 62 -4 76 c-3
68 -7 82 -51 158 l-48 83 16 52 c15 48 17 158 3 172 -3 3 -10 0 -16 -8z m11
-406 c2 -10 0 -26 -5 -35 -14 -25 -2 -46 27 -46 31 0 34 -29 6 -54 -19 -17
-20 -17 -31 4 -9 16 -14 19 -25 10 -11 -9 -13 0 -11 52 2 62 9 88 25 88 5 0
11 -8 14 -19z M1986 6198 c-8 -13 -21 -44 -29 -69 -9 -25 -24 -61 -35 -80 -30
-52 -36 -103 -16 -144 16 -34 16 -35 -10 -66 -14 -17 -26 -43 -26 -57 0 -38
35 -90 64 -98 33 -8 41 -62 30 -203 -4 -58 -8 -122 -7 -141 1 -39 17 -128 25
-135 2 -3 43 -5 91 -6 48 -1 90 -5 93 -10 11 -19 40 -8 82 31 41 38 42 41 42
103 0 35 -5 89 -12 118 -6 30 -10 115 -10 190 2 112 -1 139 -13 149 -12 10
-21 10 -41 1 -34 -15 -54 -14 -76 5 -15 15 -23 15 -62 4 -25 -7 -53 -21 -62
-31 -25 -28 -70 -25 -90 6 -9 14 -13 32 -10 41 6 16 9 16 69 -3 24 -8 22 14
-8 56 -15 23 -27 57 -30 91 -6 47 -2 66 23 125 15 39 33 69 38 68 13 -3 23
-90 17 -149 -3 -30 0 -60 6 -73 26 -47 111 -6 111 53 0 20 8 40 20 51 11 10
20 25 20 34 1 40 17 43 39 8 27 -43 21 -74 -21 -113 -35 -34 -51 -69 -43 -95
12 -37 41 -21 35 20 -1 7 14 30 34 50 66 68 67 140 3 200 l-25 23 -27 -41
c-14 -23 -41 -62 -60 -87 l-34 -44 -7 37 c-4 21 -13 50 -20 65 -8 15 -14 40
-14 57 0 37 -16 81 -30 81 -5 0 -16 -10 -24 -22z M2664 6175 c-9 -23 51 -190
69 -190 37 -1 47 -25 47 -115 0 -82 -2 -89 -31 -126 -18 -23 -26 -40 -19 -42
7 -3 17 1 23 7 6 6 24 11 39 11 24 0 28 -4 28 -30 0 -38 14 -39 30 -1 19 48
10 75 -26 79 l-32 3 14 46 c25 84 20 111 -43 208 -32 48 -57 96 -55 106 4 22
-15 59 -29 59 -5 0 -12 -7 -15 -15z M3106 3592 c-3 -5 -5 -34 -5 -63 1 -30 1
-79 0 -110 -1 -59 18 -94 40 -72 15 15 31 92 22 106 -4 6 -7 41 -8 77 0 59 -2
65 -22 68 -11 2 -24 -1 -27 -6z M995 5001 c-3 -6 3 -15 14 -21 21 -11 37 2 26
20 -8 13 -32 13 -40 1z M966 4926 c7 -19 38 -22 32 -3 -3 6 -12 13 -21 15 -12
2 -15 -1 -11 -12z M1490 4544 c0 -8 5 -12 10 -9 6 3 10 10 10 16 0 5 -4 9 -10
9 -5 0 -10 -7 -10 -16z M1433 4299 c-2 -20 -42 -79 -54 -79 -4 0 -9 6 -12 13
-2 6 -3 2 -1 -9 4 -22 -31 -71 -47 -66 -5 1 -9 -3 -9 -8 0 -12 49 -60 61 -60
14 0 29 37 29 73 0 23 10 47 30 72 17 21 30 46 30 55 0 24 -26 33 -27 9z
M1253 3705 c-3 -9 2 -24 11 -34 9 -10 16 -25 16 -33 0 -19 26 -42 38 -34 15 9
9 96 -8 106 -23 15 -50 12 -57 -5z M1024 3566 c-1 -50 -7 -95 -17 -119 -26
-61 -1 -90 40 -44 31 34 44 120 27 179 -8 26 -22 52 -32 57 -15 8 -17 1 -18
-73z M577 3572 c-21 -23 -21 -36 -1 -67 21 -32 37 -32 63 1 25 32 26 47 5 68
-21 21 -47 20 -67 -2z M615 3390 c4 -57 62 -93 84 -52 14 26 -13 62 -45 62
-13 0 -24 5 -24 10 0 6 -4 10 -9 10 -5 0 -8 -14 -6 -30z M3825 3280 c-18 -20
-17 -20 23 -20 43 0 51 7 30 28 -17 17 -32 15 -53 -8z M3781 3201 c-15 -28
-15 -27 27 -23 73 7 80 23 15 37 -25 5 -34 2 -42 -14z M270 2796 c0 -2 8 -10
18 -17 15 -13 16 -12 3 4 -13 16 -21 21 -21 13z M3820 2425 c7 -8 19 -15 27
-15 12 0 12 2 -1 15 -8 8 -20 15 -27 15 -9 0 -8 -4 1 -15z M4063 2780 c-32
-13 -29 -36 6 -48 38 -13 58 5 41 37 -12 23 -15 24 -47 11z M4213 2754 c-3 -8
1 -22 9 -30 13 -13 17 -12 32 5 10 11 15 25 11 30 -10 17 -45 13 -52 -5z
M4020 2705 c0 -8 4 -15 9 -15 5 0 11 7 15 15 3 9 0 15 -9 15 -8 0 -15 -7 -15
-15z M4235 2579 c-4 -6 -4 -13 -1 -16 8 -8 36 5 36 17 0 13 -27 13 -35 -1z
M1642 1870 c0 -14 2 -19 5 -12 2 6 2 18 0 25 -3 6 -5 1 -5 -13z M1640 1721 c0
-6 4 -13 10 -16 6 -3 7 1 4 9 -7 18 -14 21 -14 7z M1991 1034 c0 -11 3 -14 6
-6 3 7 2 16 -1 19 -3 4 -6 -2 -5 -13z M2261 2244 c0 -11 3 -14 6 -6 3 7 2 16
-1 19 -3 4 -6 -2 -5 -13z M2301 2074 c0 -11 3 -14 6 -6 3 7 2 16 -1 19 -3 4
-6 -2 -5 -13z M2280 1493 c0 -18 2 -33 4 -33 9 0 13 39 5 51 -6 10 -9 4 -9
-18z M2285 1330 c-3 -5 -1 -10 4 -10 6 0 11 5 11 10 0 6 -2 10 -4 10 -3 0 -8
-4 -11 -10z M2271 1094 c0 -11 3 -14 6 -6 3 7 2 16 -1 19 -3 4 -6 -2 -5 -13z
M2272 1000 c0 -14 2 -19 5 -12 2 6 2 18 0 25 -3 6 -5 1 -5 -13z M2302 960 c0
-14 2 -19 5 -12 2 6 2 18 0 25 -3 6 -5 1 -5 -13z M2279 923 c-5 -30 -5 -53 -1
-48 8 8 14 55 7 55 -3 0 -6 -3 -6 -7z M2690 1961 c0 -6 5 -13 10 -16 6 -3 10
1 10 9 0 9 -4 16 -10 16 -5 0 -10 -4 -10 -9z M2740 1900 c0 -5 5 -10 10 -10 6
0 10 5 10 10 0 6 -4 10 -10 10 -5 0 -10 -4 -10 -10z M3581 724 c0 -11 3 -14 6
-6 3 7 2 16 -1 19 -3 4 -6 -2 -5 -13z M3427 1771 c-4 -17 -3 -21 5 -13 5 5 8
16 6 23 -3 8 -7 3 -11 -10z M3422 1495 c0 -16 2 -22 5 -12 2 9 2 23 0 30 -3 6
-5 -1 -5 -18z M1281 1054 c0 -11 3 -14 6 -6 3 7 2 16 -1 19 -3 4 -6 -2 -5 -13z
M1131 744 c0 -11 3 -14 6 -6 3 7 2 16 -1 19 -3 4 -6 -2 -5 -13z M4644 1109
c-3 -6 0 -17 8 -25 12 -12 17 -12 32 -1 11 8 16 19 12 25 -9 15 -43 15 -52 1z
M4635 1000 c-4 -7 -3 -16 3 -22 14 -14 57 -6 57 12 0 18 -50 26 -60 10z M1260
8670 c-25 -4 -94 -33 -155 -64 -111 -57 -133 -72 -124 -81 8 -8 87 33 91 47 4
10 9 10 23 -2 15 -13 19 -12 36 9 19 23 20 23 38 6 24 -21 57 -12 67 18 l7 22
9 -24 c7 -19 13 -22 37 -18 16 3 33 1 40 -6 10 -9 15 -8 25 6 17 23 33 22 41
-3 7 -23 61 -55 70 -41 3 5 1 12 -4 15 -5 3 -7 15 -4 26 3 11 0 20 -6 20 -21
0 -11 19 12 22 14 2 22 10 22 22 0 16 -9 19 -60 21 -33 1 -74 5 -90 8 -17 2
-50 1 -75 -3z M2144 8665 c-9 -24 5 -35 45 -35 32 0 43 -6 69 -39 18 -22 32
-46 32 -53 0 -7 -19 -32 -42 -55 -32 -33 -50 -43 -74 -43 -40 0 -51 -15 -29
-40 18 -20 64 -21 645 -24 169 -1 175 0 175 19 0 15 -8 21 -30 23 -16 2 -33 9
-37 15 -7 12 0 166 9 179 2 5 15 8 29 8 28 0 33 26 7 34 -28 8 -223 16 -521
21 -232 4 -273 3 -278 -10z m226 -44 c0 -16 -27 -31 -44 -25 -28 11 -19 34 14
34 17 0 30 -4 30 -9z m189 -83 c24 -48 41 -94 38 -102 -5 -12 -21 -16 -64 -16
-32 0 -63 4 -70 8 -17 10 -83 109 -83 124 0 7 17 27 37 46 28 25 45 32 68 30
27 -3 35 -12 74 -90z m161 71 c0 -5 -16 -32 -36 -60 -26 -35 -40 -47 -47 -40
-18 18 -47 105 -38 111 14 8 121 -1 121 -11z m99 -3 c9 -10 11 -40 7 -93 -3
-43 -5 -81 -6 -85 0 -5 -29 -8 -65 -8 -76 0 -78 5 -38 77 14 26 31 57 37 68
16 29 38 55 46 55 4 0 13 -6 19 -14z m-465 -138 c19 -27 12 -38 -25 -38 -33 0
-48 22 -29 45 17 21 36 19 54 -7z M1152 8470 c-180 -19 -255 -103 -201 -225
12 -28 37 -74 55 -103 19 -29 34 -55 34 -58 0 -2 10 -19 23 -35 25 -34 65 -59
97 -59 11 0 20 -7 20 -15 0 -8 7 -15 15 -15 24 0 18 15 -25 62 -22 23 -40 46
-40 50 0 4 14 17 30 30 34 25 38 38 11 38 -10 0 -21 7 -25 15 -3 8 -16 15 -28
15 -15 0 -27 9 -33 23 -6 12 -20 23 -31 25 -15 2 -21 9 -18 20 5 21 -26 59
-51 63 -25 5 -31 29 -8 29 11 0 22 -3 26 -6 11 -11 152 -13 165 -2 9 8 12 6
12 -5 0 -19 27 -30 36 -15 5 7 10 3 15 -10 5 -12 13 -22 19 -22 14 0 13 43 -2
58 -8 8 -8 15 2 27 15 19 30 20 30 2 0 -8 9 -22 20 -32 16 -14 23 -15 34 -6 8
7 24 10 36 6 14 -5 20 -2 20 9 0 9 -6 16 -14 16 -9 0 -12 7 -9 20 3 13 0 20
-8 20 -11 0 -11 2 1 10 12 8 13 13 3 29 -10 15 -10 21 0 24 7 2 9 8 5 12 -11
12 -125 14 -216 5z m-32 -395 c0 -8 -4 -15 -9 -15 -13 0 -22 16 -14 24 11 11
23 6 23 -9z M875 8124 c4 -11 15 -53 25 -94 17 -75 50 -151 98 -222 25 -39 52
-50 52 -22 0 14 2 14 16 3 9 -7 38 -13 65 -14 39 0 46 2 34 11 -8 6 -26 9 -39
7 -21 -4 -24 -2 -19 16 3 12 1 21 -5 21 -6 0 -10 12 -9 28 2 20 -2 27 -15 26
-11 -1 -18 5 -18 16 0 23 -24 42 -47 38 -14 -2 -18 3 -18 26 0 24 -5 31 -25
36 -15 4 -26 14 -26 25 -1 11 -2 25 -3 32 -1 6 -10 14 -20 18 -12 3 -21 17
-23 32 -2 15 -9 29 -17 31 -10 4 -12 0 -6 -14z M2350 8095 c0 -17 48 -70 56
-62 4 4 -6 22 -24 40 -18 17 -32 27 -32 22z M1537 7543 c-12 -11 -8 -23 8 -23
8 0 15 7 15 15 0 16 -12 20 -23 8z M2855 7400 c3 -5 8 -10 11 -10 2 0 4 5 4
10 0 6 -5 10 -11 10 -5 0 -7 -4 -4 -10z M0 2585 l0 -55 28 31 c25 28 30 30 53
19 20 -9 32 -9 49 0 28 15 20 23 -24 25 -19 0 -43 9 -54 18 -37 33 -52 22 -52
-38z M15 2500 c-8 -16 -15 -44 -15 -62 l0 -33 21 40 c12 22 25 44 30 50 14 14
11 35 -6 35 -8 0 -21 -13 -30 -30z M4140 471 c-8 -5 -17 -8 -21 -5 -14 8 -21
-17 -10 -30 17 -20 28 -316 13 -316 -7 0 -12 -7 -12 -15 0 -13 10 -14 58 -9
31 4 58 8 60 10 2 1 -4 14 -13 27 -22 34 -17 116 8 131 15 9 22 5 44 -24 15
-19 50 -58 79 -86 43 -42 61 -53 100 -59 35 -5 50 -3 61 8 14 13 10 17 -31 35
-42 19 -146 114 -146 133 0 5 8 16 19 26 31 30 61 86 61 115 0 18 -8 33 -22
42 -28 17 -226 31 -248 17z m170 -50 c15 -29 12 -50 -11 -82 -20 -28 -48 -36
-83 -23 -24 9 -22 99 2 113 30 18 80 13 92 -8z M3051 457 c-9 -11 -8 -17 3
-27 9 -6 19 -9 24 -6 14 8 26 -11 50 -76 12 -32 40 -94 62 -139 32 -63 39 -84
29 -95 -6 -7 -9 -21 -5 -29 5 -13 17 -15 67 -11 33 3 64 8 70 11 5 4 -6 21
-25 39 -48 45 -55 80 -26 131 13 22 32 57 43 78 10 20 23 37 28 37 5 0 18 -17
29 -37 11 -21 34 -62 51 -91 28 -48 29 -56 19 -88 -8 -22 -21 -39 -37 -45 -40
-15 -22 -34 37 -37 61 -4 86 11 56 33 -23 17 -19 36 36 164 43 102 65 141 85
154 36 22 2 47 -64 47 -38 0 -51 -16 -30 -37 13 -14 13 -20 0 -59 -25 -75 -36
-74 -83 5 -41 71 -63 87 -107 79 -10 -2 -29 -25 -43 -54 -14 -27 -35 -63 -47
-80 -26 -34 -33 -29 -59 51 -12 35 -14 50 -5 53 6 2 11 10 11 18 0 11 -15 14
-64 14 -35 0 -71 2 -79 5 -7 3 -19 0 -26 -8z M3740 454 c-8 -9 -7 -19 3 -36
10 -16 15 -57 16 -128 1 -58 4 -113 7 -122 5 -17 -22 -51 -47 -60 -53 -19 106
-27 239 -12 69 8 77 14 74 59 -4 45 -17 50 -41 16 -19 -26 -29 -31 -65 -31
-53 0 -66 14 -72 74 -4 37 -2 47 12 53 11 4 23 -1 35 -16 24 -30 39 -19 39 29
0 45 -14 58 -39 36 -15 -13 -49 -22 -52 -13 -9 36 -7 86 4 101 14 19 61 24
137 14 21 -2 25 1 25 22 l0 25 -132 1 c-98 1 -135 -2 -143 -12z M1238 452
c-34 -4 -35 -9 -2 -38 20 -19 25 -32 22 -62 -4 -43 -16 -48 -113 -37 -82 8
-89 14 -86 68 1 25 -2 47 -6 50 -4 3 -30 7 -58 8 -45 4 -50 2 -46 -16 12 -72
19 -283 9 -308 -6 -15 -8 -30 -5 -34 4 -3 38 -8 76 -10 74 -4 100 9 57 28 -21
10 -25 19 -28 71 -2 33 1 66 5 74 10 17 103 19 159 4 31 -9 39 -17 49 -49 10
-32 9 -44 -5 -71 -25 -51 -21 -60 27 -60 61 0 72 10 59 51 -14 44 -15 274 -2
299 18 33 -20 44 -112 32z M2285 451 l-160 -6 -3 -29 c-2 -15 -1 -39 2 -52 8
-32 44 -32 52 0 8 35 96 52 108 21 3 -8 6 -69 7 -135 1 -102 -2 -124 -16 -140
-21 -23 -16 -26 62 -34 38 -4 55 -1 64 10 10 12 8 17 -6 28 -17 12 -19 27 -17
142 2 87 6 132 15 140 7 6 30 9 54 7 35 -4 43 -9 52 -34 11 -31 23 -36 38 -16
14 17 25 84 15 91 -17 10 -111 13 -267 7z M2748 441 c-26 -9 -58 -26 -71 -39
-48 -45 -61 -148 -28 -225 15 -36 29 -49 68 -68 131 -64 249 -18 287 114 19
66 14 99 -27 164 -28 44 -57 58 -137 66 -27 3 -63 -2 -92 -12z m127 -47 c18
-13 20 -27 20 -121 0 -68 -4 -112 -12 -123 -16 -23 -85 -35 -112 -20 -20 10
-21 19 -21 135 0 108 2 125 18 134 25 15 84 13 107 -5z M458 440 c-30 -8 -35
-49 -9 -81 l19 -24 22 28 c17 22 29 27 64 27 l43 0 5 -72 c10 -143 5 -206 -17
-222 -19 -14 -19 -15 -2 -22 23 -8 128 3 141 16 6 6 3 15 -8 23 -16 12 -18 29
-18 140 1 70 4 131 7 137 3 5 28 10 55 10 43 0 50 -3 62 -27 7 -15 21 -29 31
-31 14 -3 17 4 17 47 0 49 -1 51 -27 52 -139 4 -366 3 -385 -1z M1401 437 c-8
-11 -4 -20 21 -42 l31 -28 -6 -107 c-4 -59 -12 -119 -18 -133 -24 -53 -13 -58
138 -52 149 5 158 9 168 63 8 47 -18 54 -56 13 -24 -27 -35 -32 -71 -30 -24 1
-49 4 -55 7 -14 4 -19 112 -5 112 4 0 17 3 30 6 15 5 22 2 22 -9 0 -23 26 -41
36 -25 11 17 15 106 4 113 -4 2 -20 -7 -34 -20 -15 -14 -38 -25 -52 -25 -20 0
-24 5 -24 29 0 15 10 40 21 55 19 24 27 27 68 24 42 -3 46 -1 49 21 2 13 -2
28 -10 32 -23 15 -244 11 -257 -4z M4628 169 c-24 -14 -23 -46 3 -59 16 -9 26
-8 45 5 52 34 6 86 -48 54z"/>
</g>
</svg>
