<?xml version="1.0" standalone="no"?>
<!DOCTYPE svg PUBLIC "-//W3C//DTD SVG 20010904//EN"
 "http://www.w3.org/TR/2001/REC-SVG-20010904/DTD/svg10.dtd">
<svg version="1.0" xmlns="http://www.w3.org/2000/svg"
 width="500.000000pt" height="878.000000pt" viewBox="0 0 500.000000 878.000000"
 preserveAspectRatio="xMidYMid meet">
<metadata>
Created by potrace 1.16, written by Peter Selinger 2001-2019
</metadata>
<g transform="translate(0.000000,878.000000) scale(0.100000,-0.100000)"
fill="#000000" stroke="none">
<path d="M3068 8658 c-19 -15 -38 -78 -38 -129 0 -20 -7 -53 -15 -72 -8 -20
-15 -54 -15 -75 0 -24 -8 -49 -20 -65 -11 -14 -20 -40 -20 -60 0 -26 -6 -39
-25 -51 -14 -9 -25 -24 -25 -34 0 -12 -2 -14 -8 -4 -9 13 -42 6 -42 -9 0 -15
-54 -60 -93 -79 -49 -23 -80 -15 -118 27 -26 31 -30 41 -24 72 4 20 18 50 31
68 29 39 44 98 23 91 -8 -2 -18 -18 -24 -34 -5 -16 -20 -42 -31 -56 -53 -68
-54 -121 -4 -168 26 -24 28 -29 15 -40 -21 -17 -19 -30 5 -30 12 0 20 7 20 16
0 9 7 14 18 12 11 -2 17 -13 17 -33 0 -17 5 -39 11 -49 12 -20 34 -14 34 10 0
23 18 16 34 -14 8 -15 12 -40 9 -55 -7 -34 3 -34 33 -2 27 29 30 30 38 9 14
-35 -6 -84 -43 -111 -20 -14 -28 -23 -19 -20 9 3 22 -1 28 -8 14 -17 34 -9 26
11 -3 8 6 25 19 38 23 23 27 37 29 101 1 11 4 25 8 30 3 6 9 36 13 68 4 31 11
57 16 57 17 0 14 -126 -3 -147 -5 -7 -13 -27 -17 -45 -5 -18 -11 -43 -15 -55
-6 -19 -4 -23 12 -23 12 0 22 9 25 22 5 17 9 19 21 9 16 -13 16 -13 52 54 26
48 61 62 50 21 -5 -22 -3 -26 17 -26 13 0 33 10 45 23 24 25 19 45 -6 24 -13
-10 -14 -7 -9 28 4 22 7 71 7 109 0 52 3 67 11 59 6 -6 12 -33 13 -59 0 -26 6
-49 13 -51 18 -6 35 35 31 74 l-4 36 18 -23 c21 -26 22 -49 7 -122 -14 -63
-54 -125 -111 -170 -22 -18 -51 -42 -63 -54 -49 -45 -94 -58 -210 -58 -60 0
-134 4 -162 8 -66 11 -70 -5 -5 -20 63 -15 228 -18 237 -4 3 6 10 8 15 5 18
-11 95 17 128 46 18 16 50 40 71 54 37 23 106 106 113 135 2 8 7 18 11 21 4 3
13 34 19 68 10 54 9 67 -5 94 -32 63 -48 113 -57 177 -5 36 -14 85 -19 110 -6
25 -10 96 -11 158 0 83 -3 112 -12 112 -7 0 -22 3 -33 6 -11 3 -28 -1 -37 -8z
m42 -130 c0 -89 18 -237 37 -303 3 -13 2 -16 -4 -10 -13 14 -40 112 -63 228
-21 105 -14 187 16 187 11 0 14 -20 14 -102z m-51 -183 c0 -26 -2 -27 -9 -10
-5 11 -9 34 -9 50 0 26 2 27 9 10 5 -11 9 -33 9 -50z m-39 -70 c0 -14 7 -42
15 -62 19 -51 23 -95 8 -100 -7 -3 -13 3 -13 14 -1 10 -9 36 -20 58 -20 42
-24 66 -14 102 8 29 24 20 24 -12z m84 -77 c4 -9 6 -25 4 -35 -2 -10 -14 14
-26 54 -26 83 -28 121 -3 48 10 -27 21 -58 25 -67z m-114 -90 c4 -29 5 -57 2
-62 -6 -11 -27 50 -36 106 -7 41 -6 42 10 26 10 -10 21 -41 24 -70z m-112 -49
c-12 -34 -19 -36 -36 -9 -13 21 -6 44 21 79 17 20 28 -33 15 -70z m-58 -18
c12 -23 7 -27 -43 -36 -33 -7 -37 -5 -37 14 0 24 15 28 24 6 8 -22 38 -7 31
16 -8 25 11 24 25 0z m240 -46 c0 -24 -5 -35 -15 -35 -10 0 -15 11 -15 35 0
24 5 35 15 35 10 0 15 -11 15 -35z m-192 -22 c2 -15 -4 -23 -18 -28 -27 -9
-29 -6 -23 28 7 33 36 34 41 0z m121 -30 c-2 -45 -26 -90 -41 -75 -6 6 -2 23
11 48 12 21 21 44 21 51 0 7 2 13 5 13 3 0 5 -17 4 -37z M1745 8619 c14 -83
13 -109 -11 -230 -27 -138 -49 -363 -41 -414 8 -50 79 -148 164 -226 28 -26
100 -59 128 -59 14 0 25 -4 25 -9 0 -19 135 -32 233 -22 37 4 71 5 76 2 21
-15 35 -60 32 -106 -2 -46 1 -53 33 -84 20 -19 36 -40 36 -46 0 -5 -19 -16
-42 -23 -105 -33 -198 -159 -198 -269 0 -16 7 -50 16 -76 18 -54 16 -69 -13
-73 -19 -3 -22 2 -27 54 -22 216 -36 267 -92 335 -22 27 -44 85 -44 118 0 18
-37 76 -68 107 -36 36 -95 50 -164 39 -84 -12 -129 -44 -155 -110 -43 -107
-46 -144 -46 -557 0 -1275 -1 -1206 2 -1705 1 -132 3 -274 4 -315 1 -41 -1
-91 -5 -110 -4 -19 -3 -37 2 -40 12 -7 17 -137 6 -147 -4 -4 -15 1 -24 12 -10
12 -38 35 -63 52 -25 17 -52 39 -60 49 -39 47 -330 243 -388 261 -64 19 -124
17 -154 -7 -14 -11 -30 -20 -36 -20 -18 0 -51 -63 -51 -97 0 -53 76 -140 169
-193 12 -7 12 -11 2 -24 -8 -9 -19 -16 -25 -16 -7 0 -23 -11 -36 -25 -15 -16
-34 -25 -55 -25 -61 0 -115 -106 -88 -175 8 -23 91 -75 108 -69 7 3 16 1 19
-5 4 -5 27 -13 51 -17 25 -3 48 -10 51 -15 3 -5 14 -9 25 -9 11 0 39 -9 61
-20 23 -11 47 -20 52 -20 6 0 49 -20 96 -43 113 -57 116 -59 281 -162 l77 -47
-4 -357 c-3 -404 -9 -605 -18 -619 -3 -5 -1 -24 5 -41 8 -23 8 -35 0 -45 -6
-7 -8 -15 -6 -18 3 -3 7 -81 9 -174 2 -93 7 -177 11 -187 4 -9 2 -23 -4 -31
-7 -8 -9 -35 -6 -72 3 -33 5 -65 5 -71 -3 -41 -3 -70 0 -183 2 -69 0 -136 -4
-150 -4 -14 -3 -36 2 -50 5 -14 5 -39 -1 -62 -7 -28 -6 -42 3 -53 9 -11 10
-22 2 -42 -13 -35 -22 -189 -12 -223 7 -27 2 -62 -9 -56 -4 3 -128 7 -276 10
-251 6 -320 9 -465 22 -79 7 -220 34 -256 49 -17 7 -89 16 -160 20 -71 4 -133
11 -139 15 -14 10 -102 37 -147 45 -50 8 -88 -3 -88 -25 0 -15 8 -17 45 -15
25 1 57 -4 71 -11 15 -8 34 -14 44 -14 9 0 29 -9 42 -20 14 -10 28 -16 32 -13
3 3 6 1 6 -6 0 -19 33 -48 37 -34 5 13 31 6 50 -13 21 -21 16 -23 -51 -23 -52
0 -64 3 -59 15 6 17 20 18 25 3 2 -7 11 -10 18 -7 11 3 8 8 -9 18 -21 11 -26
10 -37 -4 -17 -24 -65 -35 -111 -26 -22 4 -51 6 -64 4 -13 -1 -27 -3 -31 -3
-13 -2 -9 -29 5 -34 9 -4 9 -6 0 -6 -7 -1 -13 -7 -13 -15 0 -8 6 -17 13 -19
10 -4 10 -6 0 -6 -9 -1 -13 -20 -13 -62 0 -59 1 -61 22 -54 41 12 175 13 199
1 22 -10 42 -60 22 -54 -4 1 -27 -1 -51 -5 -33 -6 -47 -4 -58 8 -9 8 -29 15
-45 15 -25 0 -29 -3 -24 -19 4 -15 -1 -20 -30 -25 -27 -5 -35 -12 -35 -28 0
-15 5 -19 20 -15 11 3 23 1 26 -4 3 -5 -6 -9 -20 -9 -23 0 -26 -4 -26 -35 0
-30 3 -35 24 -35 14 0 28 -5 31 -10 3 -5 -2 -10 -12 -10 -22 0 -43 -18 -43
-37 0 -7 7 -13 16 -13 15 0 53 -37 54 -53 0 -4 -6 -7 -13 -6 -38 5 -57 -2 -57
-21 0 -23 8 -24 44 -10 16 6 35 6 48 0 22 -9 22 -9 -4 -9 -39 -1 -57 -11 -51
-27 3 -8 0 -14 -6 -14 -6 0 -11 6 -11 13 0 19 -20 -15 -20 -35 0 -14 10 -16
67 -13 55 3 74 0 115 -21 57 -29 68 -64 19 -64 -79 0 -116 -26 -71 -50 15 -8
26 -7 42 2 48 26 127 11 142 -27 11 -30 -5 -64 -41 -85 -29 -17 -51 -20 -154
-20 -112 0 -119 -1 -119 -20 0 -25 -122 -22 1015 -20 512 2 1595 3 2407 4
l1478 1 0 23 c0 20 -5 22 -57 22 -58 1 -58 1 -36 19 20 17 22 25 16 92 -5 69
-4 73 11 54 9 -12 15 -15 16 -7 0 7 4 11 9 8 13 -9 44 31 38 49 -9 21 -57 20
-57 -2 0 -15 -15 -10 -15 5 0 4 -4 13 -8 20 -5 6 -6 16 -3 20 7 11 66 3 66 -9
0 -5 5 -9 10 -9 6 0 10 28 10 64 0 59 -2 65 -22 69 l-23 4 23 2 c16 1 22 7 22
26 0 22 -3 24 -36 20 -24 -4 -33 -2 -28 6 4 8 0 9 -15 4 -13 -4 -21 -2 -21 6
0 8 12 10 38 6 50 -8 59 0 60 54 l1 46 -37 -3 -37 -3 35 13 c31 11 35 17 35
47 l0 34 -65 -1 c-36 0 -101 -1 -145 -2 -44 -1 -114 0 -155 2 -41 3 -86 5 -99
5 -18 1 -21 4 -12 14 6 8 8 17 4 20 -10 11 -83 8 -83 -3 0 -14 -37 -12 -43 3
-4 10 -6 10 -6 0 -1 -13 -92 -19 -103 -7 -9 8 3 44 13 39 4 -3 6 -13 3 -23 -5
-16 -5 -16 6 0 7 12 24 18 47 18 20 0 46 -8 57 -18 20 -16 20 -16 6 2 -14 18
-13 19 10 13 14 -4 51 -7 82 -7 46 0 56 -3 52 -15 -4 -9 2 -16 18 -19 20 -5
42 -5 141 -6 9 0 25 1 35 2 9 0 40 0 67 -1 28 -2 78 -2 113 -2 62 1 62 1 62
30 0 39 -10 62 -23 54 -5 -3 -31 -6 -56 -5 -25 1 -85 2 -132 3 -48 1 -92 5
-99 9 -7 4 -24 2 -37 -5 -22 -12 -70 -11 -81 0 -8 8 10 25 26 25 15 0 15 -2 2
-10 -8 -5 -10 -10 -5 -10 6 0 16 5 22 11 7 7 60 8 178 1 171 -10 205 -6 205
25 0 10 -40 13 -172 13 -94 0 -169 2 -167 5 3 2 74 5 159 6 84 0 159 3 167 6
17 7 18 103 1 104 -87 6 -180 8 -508 9 -212 0 -459 -2 -550 -5 -91 -4 -220 -7
-288 -8 l-123 -2 0 50 c-1 173 -5 294 -11 300 -4 4 -3 18 3 32 5 13 6 35 3 49
-4 14 -1 31 6 39 9 11 10 22 3 38 -6 12 -7 31 -3 42 4 11 4 55 1 97 -4 43 -3
87 1 98 4 12 4 53 -1 93 -12 93 -12 187 -1 207 9 18 11 63 6 173 l-3 68 26
-25 c51 -49 117 -70 219 -69 55 0 98 5 105 12 15 15 27 14 27 -3 0 -22 140
-159 190 -187 81 -44 152 -71 204 -75 28 -3 67 -7 86 -9 31 -3 151 8 205 19
71 15 209 79 235 111 24 29 -11 22 -96 -20 -115 -58 -224 -80 -343 -71 -93 8
-208 42 -276 82 -70 40 -151 138 -181 216 -14 38 -24 71 -21 74 3 3 8 -5 12
-18 11 -36 36 -60 50 -48 10 8 20 -3 43 -43 16 -29 49 -68 73 -88 53 -42 135
-83 149 -74 20 13 9 32 -30 49 -88 39 -154 113 -186 211 -18 53 -29 66 -51 58
-10 -4 -13 8 -13 49 l0 55 68 6 c101 9 150 29 214 90 19 18 25 57 8 57 -5 0
-29 -20 -53 -44 -50 -49 -114 -71 -207 -68 -71 1 -121 23 -195 83 -68 55 -117
129 -134 202 -14 57 0 155 27 197 10 14 26 42 36 62 18 35 110 107 122 96 2
-3 -16 -17 -40 -33 -57 -36 -81 -85 -41 -85 6 0 33 20 59 45 26 25 60 48 77
52 32 6 50 24 31 31 -7 2 -12 8 -12 13 0 5 24 7 56 4 68 -6 139 -56 128 -90
-18 -52 -15 -164 5 -232 38 -127 160 -223 283 -223 91 0 46 -146 -58 -191 -71
-30 -139 -23 -170 19 -11 15 -45 13 -51 -3 -1 -5 14 -21 34 -35 70 -48 217
-25 286 44 28 28 51 94 48 138 -1 22 4 28 30 33 47 10 121 45 146 68 22 19 23
19 50 2 15 -10 33 -23 40 -29 7 -6 20 -18 30 -26 12 -10 40 -15 90 -15 58 0
73 -3 73 -15 0 -8 11 -34 24 -57 13 -23 27 -59 31 -81 6 -36 5 -39 -17 -38
-21 1 -23 -4 -26 -57 -3 -52 -1 -58 15 -55 12 2 18 12 18 30 1 15 5 31 9 35 5
4 6 -17 3 -47 -6 -65 -41 -132 -109 -212 -46 -54 -54 -79 -25 -78 20 1 64 42
106 99 l41 55 0 176 c0 105 -5 190 -11 209 -9 24 -9 35 0 44 6 6 11 37 11 70
0 54 -2 58 -20 52 -19 -6 -60 -13 -87 -14 -7 -1 -13 -5 -13 -11 0 -5 16 -10
36 -10 21 0 33 -4 29 -10 -16 -25 -124 -5 -179 33 -23 16 -30 17 -36 6 -20
-32 -21 5 -1 50 30 71 28 152 -4 218 -29 57 -81 103 -117 103 -30 0 -54 15
-39 24 17 11 3 26 -27 28 -16 0 -9 3 18 7 50 7 62 4 40 -9 -12 -7 -12 -10 3
-16 10 -4 23 -2 30 5 6 6 7 11 1 11 -5 0 31 21 80 45 89 45 126 70 126 87 0
15 -21 8 -66 -23 -24 -16 -61 -37 -82 -46 -47 -19 -112 -27 -112 -13 0 5 7 10
15 10 56 0 225 128 284 214 47 70 83 174 88 257 6 81 -5 130 -53 234 -12 28
-25 62 -29 76 -16 66 -125 153 -217 173 -31 7 -128 99 -128 122 0 18 -29 18
-36 0 -12 -30 88 -141 136 -151 43 -10 109 -47 142 -79 17 -17 42 -56 55 -86
14 -30 31 -68 38 -85 34 -76 48 -148 42 -219 -11 -124 -64 -235 -151 -319 -54
-52 -185 -121 -249 -130 l-38 -6 48 43 c57 51 129 174 143 243 31 147 21 403
-17 434 -28 24 -35 -5 -18 -72 20 -76 20 -170 0 -288 -20 -112 -24 -124 -64
-199 -47 -86 -126 -149 -208 -167 -54 -11 -37 8 36 42 47 21 79 45 104 75 39
48 81 144 92 210 4 24 12 48 17 55 12 15 2 172 -16 238 -14 56 -58 149 -96
207 -27 41 -28 42 -50 28 -12 -8 -11 -13 7 -38 32 -43 79 -141 97 -202 42
-139 -3 -386 -88 -487 -15 -18 -51 -41 -88 -56 -57 -22 -69 -24 -132 -15 -37
5 -71 7 -74 4 -11 -11 20 -34 56 -41 58 -11 66 -34 26 -80 -23 -27 -32 -30
-80 -29 -45 0 -59 5 -84 29 -35 33 -40 82 -12 108 32 29 150 87 177 87 35 0
59 14 102 58 117 123 135 315 45 502 -19 40 -115 175 -131 185 -6 3 -23 31
-37 61 -20 42 -24 63 -19 93 6 34 11 40 48 52 76 24 147 119 147 197 0 67 -54
129 -121 138 -40 5 -47 3 -76 -26 -41 -40 -46 -92 -10 -114 37 -23 82 -29 96
-12 13 16 5 22 -52 40 -14 4 -17 12 -12 28 15 51 57 57 103 15 18 -16 22 -31
22 -75 0 -128 -97 -185 -216 -126 -50 25 -76 63 -84 124 -7 55 -4 65 24 65 25
0 74 84 56 95 -16 10 11 25 63 34 46 9 45 30 -3 34 -63 6 -143 -50 -176 -124
-31 -71 -27 -137 14 -197 l30 -45 -25 -11 c-32 -14 -57 -74 -43 -101 6 -10 18
-24 28 -30 15 -9 11 -16 -34 -58 -27 -26 -63 -54 -80 -62 -16 -8 -36 -20 -44
-26 -12 -10 -24 -5 -65 32 -60 54 -135 90 -221 106 -35 6 -68 15 -75 18 -6 5
-11 29 -10 56 1 27 2 63 3 79 0 17 -3 102 -7 190 -8 162 -8 501 0 810 2 94 4
199 3 235 -2 69 -2 96 0 200 0 36 1 92 1 125 0 33 0 128 1 210 0 83 -1 168 -4
190 -8 77 -19 140 -26 150 -4 6 -13 33 -20 60 -14 55 -50 100 -85 109 -24 6
-28 25 -38 171 -5 75 -19 113 -52 145 -41 40 -95 53 -134 34 -25 -13 -81 -73
-81 -88 0 -2 -5 -17 -12 -33 -6 -15 -19 -57 -29 -93 l-17 -65 -3 60 c-2 33 -4
76 -4 95 -3 54 -3 57 -31 89 -21 25 -34 31 -64 31 -65 0 -99 -55 -101 -165 -1
-27 -4 -75 -7 -104 l-7 -55 -28 34 c-33 39 -96 74 -150 84 -45 8 -44 18 9 97
34 51 41 77 25 95 -12 13 -21 84 -10 84 5 0 9 5 9 10 0 6 -11 3 -25 -6 -27
-18 -34 -60 -14 -93 16 -24 5 -62 -27 -101 -15 -17 -33 -48 -40 -68 -10 -28
-13 -31 -14 -14 0 12 -19 43 -41 67 -41 44 -42 46 -35 100 4 41 3 56 -8 62 -8
4 -15 17 -18 28 -3 18 -9 19 -53 15 -103 -10 -305 -3 -305 12 0 5 -21 18 -46
28 -73 32 -100 56 -166 148 -62 87 -62 87 -63 157 0 82 20 280 33 328 1 4 2
16 2 27 0 13 10 24 25 30 18 7 25 17 25 35 0 29 31 105 43 105 9 0 1 -39 -19
-95 -8 -22 -21 -67 -29 -100 -7 -33 -20 -82 -28 -110 -8 -27 -18 -76 -21 -108
-7 -54 -6 -59 13 -64 13 -3 21 -14 22 -27 1 -11 2 -45 3 -75 0 -30 6 -56 11
-58 16 -5 33 42 22 62 -6 11 -5 25 2 41 14 31 31 31 31 0 0 -14 5 -28 10 -31
16 -10 12 -42 -6 -49 -13 -5 -15 -14 -10 -44 11 -62 17 -74 32 -68 8 3 14 -1
14 -10 0 -22 24 -12 29 12 8 46 51 62 51 19 0 -16 6 -25 15 -25 8 0 15 4 15 9
0 5 9 11 20 14 16 4 20 14 20 45 0 52 22 72 44 40 9 -12 16 -30 16 -40 0 -12
8 -18 21 -18 17 0 20 6 19 38 -3 61 -1 70 11 50 19 -34 39 -21 39 26 0 26 6
48 15 56 8 7 15 17 15 23 0 6 -7 2 -15 -10 -23 -33 -58 -34 -95 -1 -18 15 -36
28 -41 28 -4 0 -11 9 -14 20 -4 13 -15 20 -31 20 -13 0 -33 9 -43 19 -17 17
-18 25 -9 55 13 43 -3 91 -34 99 -14 4 -19 11 -14 23 3 9 1 23 -6 31 -6 8 -11
36 -9 64 2 34 -2 51 -11 54 -9 4 -13 22 -12 60 2 63 -12 83 -46 65 -25 -13
-24 -14 -37 25 -8 25 -15 30 -47 33 l-38 3 7 -42z m155 -219 c0 -6 -10 -30
-22 -53 -11 -23 -32 -67 -45 -97 -20 -46 -23 -49 -18 -20 3 19 14 51 24 70 10
19 23 52 30 73 12 34 31 51 31 27z m-14 -165 c-32 -29 -32 -25 -3 44 l22 55 3
-38 c3 -30 -2 -42 -22 -61z m24 -101 c-7 -23 -9 -48 -5 -54 4 -7 -1 -7 -14 2
-13 8 -19 18 -15 28 4 8 9 33 12 55 2 22 9 46 16 54 17 21 21 -32 6 -85z m-59
-11 c-9 -15 -10 -13 -11 14 0 17 3 40 8 50 5 14 8 11 10 -14 2 -18 -1 -41 -7
-50z m109 -86 c-19 -52 -24 -108 -9 -117 9 -6 6 -16 -14 -40 -23 -27 -27 -29
-27 -12 0 11 5 22 12 24 7 3 10 30 9 80 -2 54 3 86 15 114 l18 39 4 -28 c2
-16 -2 -43 -8 -60z m70 48 c0 -8 -4 -15 -10 -15 -5 0 -10 7 -10 15 0 8 5 15
10 15 6 0 10 -7 10 -15z m46 -52 c-10 -10 -19 5 -10 18 6 11 8 11 12 0 2 -7 1
-15 -2 -18z m-46 -63 c5 0 12 5 15 10 3 6 11 10 17 10 7 0 0 -13 -15 -28 -15
-15 -27 -35 -27 -44 0 -11 -7 -14 -24 -11 -22 5 -23 7 -10 31 8 15 14 35 14
44 0 9 3 25 8 35 5 14 8 11 10 -14 2 -18 7 -33 12 -33z m93 31 c-3 -13 -11
-17 -24 -14 -19 5 -19 7 -3 24 20 22 34 17 27 -10z m-149 -26 c3 -8 1 -15 -4
-15 -6 0 -10 7 -10 15 0 8 2 15 4 15 2 0 6 -7 10 -15z m-93 -381 c42 -17 80
-64 92 -116 4 -14 10 -33 13 -42 5 -12 0 -16 -19 -16 -14 0 -25 6 -24 13 1 48
-6 72 -32 98 -25 25 -37 29 -82 29 -116 0 -187 -110 -179 -275 9 -187 18
-1178 11 -1190 -3 -5 -7 -57 -8 -115 -1 -58 -2 -116 -2 -130 -1 -14 1 -47 3
-75 3 -27 5 -61 5 -75 1 -43 2 -194 1 -210 -4 -63 2 -589 6 -641 4 -37 2 -75
-4 -84 -6 -12 -6 -25 2 -39 6 -13 10 -61 8 -116 -3 -134 -3 -156 1 -240 2 -41
0 -80 -5 -87 -6 -7 -7 -17 -3 -23 16 -27 19 -144 10 -515 -3 -104 -5 -197 -5
-205 0 -8 -1 -40 -1 -70 -1 -30 -1 -165 0 -300 1 -135 2 -253 1 -262 -1 -58
-1 -182 1 -393 1 -71 -1 -233 -4 -359 -4 -154 -2 -234 5 -245 8 -13 5 -29 -10
-65 -12 -25 -17 -44 -12 -41 16 10 22 -15 10 -49 -7 -23 -7 -41 -1 -59 8 -19
6 -38 -4 -67 -8 -23 -10 -38 -5 -35 14 9 22 -56 12 -102 -5 -23 -7 -44 -4 -47
9 -9 9 -137 0 -142 -4 -3 -8 -11 -8 -17 0 -7 4 -6 10 3 5 8 10 13 11 10 8 -43
7 -60 -3 -72 -17 -17 -24 -178 -8 -178 7 0 8 -6 1 -19 -6 -10 -7 -22 -3 -26 4
-5 1 -5 -5 -1 -7 4 -13 13 -13 21 0 15 -22 25 -55 25 -26 0 -41 -15 -25 -25 5
-3 10 -11 10 -16 0 -5 -10 -3 -22 5 -32 19 -107 20 -114 1 -10 -24 -29 -17
-40 13 -11 28 -10 29 20 26 118 -10 157 -4 136 21 -7 9 -8 14 0 17 5 1 -20 2
-57 1 -116 -3 -131 -6 -126 -20 3 -9 -10 -5 -33 9 -36 21 -51 23 -179 22 -99
0 -152 -4 -181 -15 l-40 -15 -11 34 c-13 41 3 52 39 28 30 -20 185 -20 222 -1
14 8 26 10 26 5 0 -14 61 -28 97 -23 17 3 40 0 52 -6 14 -8 21 -8 21 -1 0 15
190 6 200 -10 4 -6 18 -10 31 -8 23 3 24 6 26 108 1 58 3 119 4 135 1 17 -1
47 -6 69 -7 33 -8 123 -4 241 1 17 -2 45 -6 63 -5 19 -4 32 2 32 11 0 10 43
-1 76 -4 14 -1 27 9 37 17 18 19 54 5 91 -6 16 -6 27 0 31 13 8 13 62 0 70 -5
3 -10 13 -10 21 0 8 4 13 9 10 4 -3 6 14 4 37 -2 23 -4 50 -3 60 2 49 2 88 -1
142 -1 33 1 68 5 77 4 9 3 45 -2 80 -5 35 -6 68 -2 73 7 10 4 210 -4 223 -6
11 -1 96 7 109 4 6 3 23 -3 38 -12 32 -13 48 -2 41 4 -3 7 10 5 27 -9 84 -7
277 2 281 6 3 6 8 -1 13 -12 9 -12 133 0 152 4 6 2 11 -4 11 -6 0 -8 4 -5 10
3 5 6 39 7 75 1 36 5 65 10 65 4 0 3 9 -4 20 -10 15 -10 27 -1 50 6 17 8 28 4
25 -5 -2 -9 48 -9 113 -1 64 -4 159 -6 209 -2 51 -1 95 3 97 4 3 4 38 -1 78
-5 40 -10 132 -11 205 -3 116 -2 130 12 126 10 -3 12 -2 6 4 -7 5 -11 114 -10
315 0 168 -2 305 -5 303 -10 -6 -6 300 5 307 6 5 5 8 -3 8 -9 0 -11 7 -7 21 8
24 7 233 -1 364 -3 50 -5 99 -5 110 0 11 1 48 1 83 0 35 4 61 9 58 4 -3 6 7 4
22 -2 15 -4 34 -4 42 2 127 -1 452 -4 472 -1 14 3 38 10 52 8 14 10 26 5 26
-5 0 -9 8 -9 18 -8 204 -6 420 2 415 6 -4 7 -1 2 7 -14 22 -7 212 11 275 8 33
17 65 18 70 1 6 12 28 24 49 15 26 27 36 38 32 8 -3 12 -2 9 4 -3 5 11 12 32
15 21 3 45 10 53 15 8 5 16 9 17 9 2 1 21 -6 44 -15z m1310 -33 c16 -16 29
-35 29 -43 0 -7 7 -60 14 -118 11 -79 11 -107 3 -112 -28 -18 -34 -5 -41 78
-8 100 -20 132 -53 140 -30 8 -56 -14 -82 -70 -26 -53 -58 -200 -55 -251 1
-22 -2 -76 -6 -120 -5 -44 -10 -126 -12 -182 -2 -70 -6 -103 -14 -103 -8 0 -9
13 -3 43 4 24 8 89 9 145 0 56 1 110 1 120 1 18 17 174 24 229 9 69 19 109 32
129 8 12 13 26 12 30 -5 21 31 95 43 88 4 -3 8 2 8 10 0 28 58 20 91 -13z
m-306 -10 c23 -36 34 -134 17 -144 -4 -3 -8 15 -9 40 0 31 -7 50 -22 64 -29
27 -40 24 -57 -16 -11 -27 -13 -62 -9 -148 4 -98 6 -272 4 -317 -1 -8 2 -45 6
-81 11 -95 -1 -179 -25 -179 -16 0 -17 8 -14 78 2 42 6 89 9 104 2 15 -1 29
-8 32 -8 3 -9 7 -1 13 17 13 21 109 11 278 -10 193 16 315 66 299 12 -4 27
-14 32 -23z m-1050 -33 c30 -13 55 -55 55 -91 0 -16 -12 -34 -35 -52 -20 -14
-48 -45 -63 -68 -27 -40 -27 -41 -27 -224 0 -125 -4 -186 -11 -191 -6 -4 -21
-23 -33 -42 -20 -33 -21 -34 -22 -10 -1 14 0 30 1 35 2 11 3 116 1 275 -3 252
25 354 106 379 1 1 14 -4 28 -11z m1025 -155 c0 -48 -3 -84 -6 -80 -10 10 -14
178 -4 172 6 -4 10 -45 10 -92z m289 75 c4 -13 6 -54 4 -93 -2 -38 -4 -83 -3
-98 0 -16 -9 -40 -20 -54 -11 -14 -20 -34 -20 -45 0 -11 -5 -28 -11 -39 -5
-11 -11 -48 -12 -82 -2 -59 -4 -62 -27 -62 -19 0 -25 5 -23 20 1 11 4 80 7
153 6 144 14 189 51 270 27 56 41 65 54 30z m-529 -93 c137 -71 167 -276 56
-386 -97 -98 -265 -97 -364 1 -68 69 -93 180 -59 263 21 49 76 108 122 128 52
24 61 24 68 -2 8 -28 38 -21 55 13 12 26 13 27 51 13 21 -7 53 -21 71 -30z
m-606 12 c37 -25 73 -106 85 -192 6 -44 14 -146 17 -227 6 -123 5 -148 -7
-148 -11 0 -14 21 -14 97 0 104 -12 295 -21 328 -10 39 -38 84 -58 94 -12 5
-40 13 -62 16 -62 9 -90 -20 -104 -106 -5 -37 -9 -77 -9 -90 1 -13 1 -89 0
-169 -1 -80 2 -181 7 -225 7 -62 7 -392 1 -665 0 -23 -1 -23 -8 -5 -5 11 -9
164 -9 340 -1 335 -5 462 -26 772 -3 36 0 56 10 64 8 6 14 20 14 31 0 31 57
96 88 101 39 5 71 0 96 -16z m-85 -130 c-1 -18 3 -56 10 -86 15 -73 14 -170
-1 -176 -54 -18 -53 -21 -51 133 1 93 6 148 13 158 18 20 30 8 29 -29z m84 8
c9 -20 19 -68 22 -108 3 -39 8 -102 11 -138 4 -44 2 -69 -5 -73 -6 -4 -11 -22
-11 -41 0 -43 -9 -65 -26 -65 -14 0 -21 60 -8 73 9 9 6 216 -4 310 -4 42 -5
77 -2 77 4 0 14 -16 23 -35z m846 -32 l-1 -68 -9 55 c-9 51 -7 80 6 80 3 0 4
-30 4 -67z m467 12 c15 -9 31 -46 53 -125 34 -116 35 -129 30 -495 -2 -98 -1
-256 1 -320 1 -38 2 -81 2 -95 1 -50 -11 -725 -12 -730 -1 -3 -5 4 -9 14 -4
11 -9 92 -10 180 -1 89 -3 175 -4 191 -2 17 1 35 6 42 5 7 4 20 -2 32 -6 11
-9 26 -7 33 4 10 16 195 17 253 0 6 -2 79 -5 163 -5 120 -3 151 7 146 6 -4 5
1 -4 12 -25 30 -30 54 -16 75 10 13 12 33 7 67 -4 26 -6 77 -5 114 1 37 -2 65
-6 62 -8 -5 -11 25 -11 139 0 26 -3 47 -8 47 -4 0 -7 15 -5 33 2 30 -30 88
-59 110 -25 17 -57 19 -75 3 -16 -15 -19 -15 -31 -1 -8 9 -8 15 -2 15 6 0 13
8 17 19 12 39 83 48 131 16z m-429 -127 c-2 -13 -4 -3 -4 22 0 25 2 35 4 23 2
-13 2 -33 0 -45z m264 17 c-16 -45 -39 -65 -25 -22 15 49 24 67 33 67 4 0 1
-20 -8 -45z m74 -80 c0 -61 -3 -85 -12 -85 -14 0 -19 123 -7 154 13 34 19 12
19 -69z m71 -45 c7 -95 7 -95 -13 -77 -18 15 -21 31 -21 109 -1 78 1 89 13 77
9 -9 17 -49 21 -109z m-161 51 c-5 -17 -13 -75 -14 -109 -1 -7 -5 -11 -10 -8
-4 3 -5 25 -1 48 5 24 6 46 4 50 -6 10 7 38 18 38 5 0 7 -9 3 -19z m-248 -33
c-3 -8 -6 -5 -6 6 -1 11 2 17 5 13 3 -3 4 -12 1 -19z m33 -54 c0 -2 -13 -4
-30 -4 -16 0 -30 4 -30 8 0 5 14 7 30 4 17 -2 30 -6 30 -8z m-693 -10 c-3 -3
-12 -4 -19 -1 -8 3 -5 6 6 6 11 1 17 -2 13 -5z m503 2 c0 -3 -4 -8 -10 -11 -5
-3 -10 -1 -10 4 0 6 5 11 10 11 6 0 10 -2 10 -4z m-800 -10 c0 -3 -4 -8 -10
-11 -5 -3 -10 -1 -10 4 0 6 5 11 10 11 6 0 10 -2 10 -4z m1255 -16 c3 -5 1
-10 -4 -10 -6 0 -11 5 -11 10 0 6 2 10 4 10 3 0 8 -4 11 -10z m-869 -25 c20
-14 53 -29 73 -35 60 -17 161 -12 209 10 23 11 40 15 37 10 -3 -5 3 -13 12
-19 20 -11 14 -14 -41 -15 -16 -1 -31 -7 -33 -13 -3 -9 9 -13 43 -13 26 0 44
-3 40 -7 -5 -5 -56 -8 -114 -8 -99 0 -107 -1 -104 -19 3 -14 -1 -17 -13 -12
-9 3 -24 6 -33 6 -13 0 -13 2 3 14 17 12 7 15 -88 21 -59 4 -107 12 -107 17 0
5 19 8 42 6 27 -2 43 1 45 10 4 9 -13 12 -61 12 -37 0 -66 4 -66 10 0 6 28 10
65 10 76 0 87 16 18 25 -70 10 -74 13 -16 14 40 1 61 -5 89 -24z m391 -6 c-17
-10 -50 -1 -42 11 2 4 16 5 31 2 21 -4 23 -7 11 -13z m413 -29 c0 -22 -3 -40
-7 -40 -5 0 -7 15 -6 32 2 47 2 48 8 48 3 0 5 -18 5 -40z m-200 20 c0 -12 -17
-12 -45 0 -17 7 -15 9 13 9 17 1 32 -3 32 -9z m-200 -24 c0 -3 -4 -8 -10 -11
-5 -3 -10 -1 -10 4 0 6 5 11 10 11 6 0 10 -2 10 -4z m-956 -85 c-1 -2 -10 4
-19 12 -13 13 -13 20 -3 43 l13 28 6 -40 c4 -21 5 -41 3 -43z m416 65 c0 -3
-4 -8 -10 -11 -5 -3 -10 -1 -10 4 0 6 5 11 10 11 6 0 10 -2 10 -4z m685 -16
c3 -5 1 -10 -4 -10 -6 0 -11 5 -11 10 0 6 2 10 4 10 3 0 8 -4 11 -10z m-155
-10 c0 -13 -11 -13 -30 0 -12 8 -11 10 8 10 12 0 22 -4 22 -10z m570 -40 c-5
-10 -35 -27 -67 -40 -32 -12 -74 -28 -93 -36 -69 -27 -250 -45 -475 -47 -197
-2 -416 7 -470 19 -11 2 -64 8 -119 13 -119 12 -176 41 -176 90 l0 29 63 -15
c118 -28 262 -38 577 -38 412 0 633 11 685 34 23 10 46 24 50 31 13 21 37 -18
25 -40z m-1057 23 c-7 -2 -19 -2 -25 0 -7 3 -2 5 12 5 14 0 19 -2 13 -5z m57
-3 c0 -5 -4 -10 -10 -10 -5 0 -10 5 -10 10 0 6 5 10 10 10 6 0 10 -4 10 -10z
m-576 -17 c4 -9 0 -23 -9 -32 -13 -14 -15 -12 -15 17 0 34 14 43 24 15z m629
10 c-7 -2 -21 -2 -30 0 -10 3 -4 5 12 5 17 0 24 -2 18 -5z m917 -77 c0 -3 -4
-8 -10 -11 -5 -3 -10 -1 -10 4 0 6 5 11 10 11 6 0 10 -2 10 -4z m-1281 -52
c10 -9 -45 -3 -59 6 -11 7 -5 8 20 4 19 -4 37 -8 39 -10z m1171 7 c0 -6 15
-11 33 -13 l32 -3 -40 -14 c-58 -20 -65 -31 -19 -31 22 0 62 11 90 24 27 13
51 20 53 14 4 -11 -24 -34 -56 -48 -39 -16 -28 -33 17 -27 48 6 51 -3 8 -23
-37 -17 -48 -40 -21 -41 11 0 5 -5 -14 -12 -45 -16 -40 -32 8 -30 50 2 48 -13
-5 -43 -34 -20 -36 -23 -20 -32 17 -10 16 -11 -9 -23 -31 -14 -35 -26 -9 -31
12 -3 5 -10 -23 -23 l-40 -19 43 -5 44 -6 -24 -21 c-12 -11 -44 -29 -70 -38
-26 -10 -50 -22 -54 -27 -9 -15 26 -22 52 -11 13 7 24 8 24 3 0 -13 -66 -33
-87 -27 -10 3 -27 -1 -37 -9 -16 -12 -17 -17 -6 -30 10 -12 10 -15 -4 -15 -10
0 -27 -5 -38 -11 -16 -9 -18 -13 -7 -20 21 -12 4 -21 -51 -27 -55 -5 -68 -25
-22 -37 l27 -7 -40 -20 c-22 -12 -44 -26 -50 -33 -5 -6 -22 -19 -36 -27 -28
-18 -44 -50 -54 -110 -3 -21 -10 -38 -15 -38 -5 0 -7 7 -4 15 8 20 -24 31 -47
17 -30 -19 -40 -14 -33 14 4 14 7 44 7 66 1 36 -4 44 -38 69 -56 42 -106 38
-162 -14 -30 -27 -32 -95 -3 -120 11 -9 20 -25 20 -34 0 -15 -4 -14 -19 6 -12
16 -24 22 -35 18 -10 -4 -15 -11 -11 -16 3 -5 1 -12 -5 -16 -11 -7 -14 13 -11
57 3 34 -21 80 -53 106 -15 11 -64 27 -118 37 -96 18 -148 34 -148 47 0 8 81
13 128 9 27 -2 30 24 6 57 -14 21 -14 22 5 22 12 0 21 5 21 10 0 18 -30 23
-54 11 -28 -16 -151 -7 -218 15 -61 20 -73 36 -14 19 25 -8 77 -17 117 -21 59
-6 71 -4 67 7 -3 9 -22 15 -54 17 -27 1 -74 7 -104 14 -30 6 -58 12 -62 12 -7
1 -11 14 -5 18 1 0 25 -4 52 -10 72 -16 117 -19 122 -6 2 7 -19 13 -57 17 -54
6 -128 32 -118 42 2 2 40 -2 83 -10 96 -17 125 -18 125 -5 0 6 -8 10 -18 10
-10 0 -22 4 -28 10 -5 5 -44 15 -87 22 -42 6 -77 15 -77 20 0 8 38 3 100 -13
45 -11 143 -12 136 0 -3 5 -34 12 -68 15 -91 10 -171 29 -168 41 1 6 5 9 8 8
4 0 28 -4 55 -8 57 -9 67 11 10 20 -62 11 -73 16 -73 32 0 12 7 14 33 9 17 -4
67 -10 111 -13 92 -6 99 10 9 21 -32 3 -82 12 -110 19 -49 11 -53 14 -53 40 0
26 3 28 28 23 78 -15 110 -17 117 -7 8 14 -27 28 -87 36 -26 3 -50 10 -53 15
-11 18 16 20 70 6 46 -12 55 -12 55 -1 0 17 -13 26 -54 36 -20 6 -5 7 42 3 49
-3 72 -2 72 6 0 6 -8 14 -17 17 -10 4 -22 12 -28 19 -5 7 -19 15 -30 18 -27 7
180 -3 385 -19 144 -11 372 -11 465 0 114 13 206 26 240 34 55 12 55 12 55 2z
m-1370 -91 c0 -5 -4 -10 -10 -10 -5 0 -10 5 -10 10 0 6 5 10 10 10 6 0 10 -4
10 -10z m1557 -167 c-1 -32 0 -92 1 -133 2 -108 1 -124 -10 -137 -5 -7 -7 -17
-3 -22 4 -8 7 -289 4 -481 -1 -40 11 -229 17 -267 3 -23 2 -47 -2 -55 -4 -7
-9 -55 -10 -108 -1 -52 -4 -103 -8 -112 -4 -9 -2 -26 4 -37 6 -12 8 -25 6 -30
-3 -5 -6 -36 -7 -70 -2 -56 -3 -61 -24 -61 -19 0 -24 7 -28 38 -3 20 -6 46 -6
57 0 11 -3 85 -5 165 -6 174 -16 575 -20 831 -2 103 -6 191 -10 197 -3 5 5 25
17 43 33 49 65 138 65 181 0 33 7 58 17 58 2 0 3 -26 2 -57z m-1611 -33 c8
-63 16 -95 31 -118 16 -26 22 -165 28 -696 2 -181 6 -348 9 -370 4 -23 9 -107
11 -188 5 -141 5 -147 -15 -153 -25 -8 -36 -28 -45 -83 -8 -51 14 -104 51
-121 17 -7 21 -16 19 -43 -2 -18 -4 -43 -4 -55 -1 -30 -13 -29 -59 5 -36 26
-37 29 -39 92 0 36 -4 126 -7 200 -11 233 -17 394 -16 415 0 11 2 63 5 115 2
52 5 126 7 163 3 38 1 70 -3 72 -4 3 -6 51 -4 107 1 57 -2 114 -6 126 -5 13
-6 29 -2 35 4 6 8 89 9 183 1 95 5 177 8 183 4 6 2 29 -4 51 -6 22 -8 46 -4
52 4 7 7 35 6 62 -1 44 0 48 9 26 6 -14 13 -41 15 -60z m1479 -455 c7 -206 8
-300 5 -320 -2 -5 -1 -14 0 -20 11 -50 19 -675 8 -681 -4 -3 -8 37 -8 88 -1
104 -4 267 -14 628 -14 490 -14 532 0 518 1 -2 5 -97 9 -213z m-115 195 c-20
-13 -33 -13 -25 0 3 6 14 10 23 10 15 0 15 -2 2 -10z m-1055 -20 c8 -13 -5
-13 -25 0 -13 8 -13 10 2 10 9 0 20 -4 23 -10z m123 -13 c3 -16 1 -17 -17 -7
-25 13 -28 33 -4 28 10 -2 19 -11 21 -21z m-242 5 c6 -4 13 -14 16 -23 4 -9
18 -19 33 -23 14 -4 47 -22 74 -41 27 -19 55 -35 63 -35 24 0 28 -11 13 -34
-26 -36 -19 -91 16 -131 17 -19 38 -35 46 -35 8 0 12 -4 8 -9 -3 -5 -1 -12 4
-16 6 -3 2 -14 -9 -25 -11 -11 -20 -27 -20 -35 0 -8 -6 -25 -12 -36 -11 -18
-10 -23 12 -41 14 -11 25 -27 25 -36 0 -27 31 -25 49 3 9 14 25 25 35 25 10 0
25 8 34 18 15 16 15 21 2 38 -8 10 -15 27 -15 37 0 10 -13 26 -29 35 -36 20
-46 48 -20 55 24 6 40 46 27 70 -13 25 -62 22 -81 -5 -18 -28 -27 -21 -34 29
-7 56 11 69 85 57 49 -8 60 -14 80 -44 21 -31 23 -43 18 -100 -5 -61 -6 -173
-2 -230 2 -14 7 -34 13 -45 11 -20 9 -207 -3 -403 l-6 -93 -51 -29 c-29 -17
-77 -37 -107 -46 -30 -9 -71 -22 -90 -30 -19 -7 -68 -16 -107 -20 l-73 -6 0
60 c0 125 -9 556 -16 757 -13 377 -12 410 22 387z m1228 -192 c3 -102 8 -279
11 -395 2 -115 7 -282 10 -370 7 -187 7 -217 -3 -227 -9 -9 -274 11 -286 22
-8 8 -10 151 -7 558 1 74 5 112 12 112 6 0 13 -9 16 -20 6 -24 16 -25 33 -5 7
8 17 15 23 15 13 0 57 40 57 51 0 18 -63 99 -77 99 -9 0 -13 6 -9 15 3 9 -1
18 -9 21 -24 10 -17 21 15 28 57 11 75 115 24 138 -32 15 -30 21 9 42 54 29
76 42 94 58 17 15 76 48 79 45 1 -1 5 -85 8 -187z m-1299 104 c-4 -77 -15 -81
-15 -6 0 34 4 62 9 62 5 0 7 -25 6 -56z m719 -60 c20 -8 21 -20 2 -27 -8 -3
-22 3 -32 14 -15 17 -15 19 -1 19 8 0 22 -3 31 -6z m-719 -24 c3 -5 1 -10 -4
-10 -6 0 -11 5 -11 10 0 6 2 10 4 10 3 0 8 -4 11 -10z m1081 -25 c3 -14 3 -32
0 -41 -6 -15 -8 -15 -26 1 -15 13 -30 16 -60 12 l-40 -5 21 29 c16 24 28 29
59 29 34 0 41 -4 46 -25z m-426 1 c0 -8 8 -24 18 -36 20 -24 48 -19 57 11 8
25 21 24 28 -3 5 -18 -8 -50 -38 -96 -1 -1 -13 2 -26 7 l-24 9 29 11 c21 8 26
15 19 22 -6 6 -19 9 -29 7 -10 -2 -27 5 -36 14 -19 19 -25 68 -8 68 6 0 10 -6
10 -14z m-645 -148 c6 -123 18 -593 16 -655 0 -13 -1 -31 -1 -40 0 -10 1 -361
3 -780 1 -419 -1 -770 -5 -780 -4 -10 -8 45 -8 122 -1 77 -3 399 -4 715 -2
316 -7 674 -11 795 -4 121 -6 225 -6 230 0 6 2 24 4 40 1 17 -2 36 -7 43 -5 8
-4 12 4 12 9 0 9 4 -1 17 -9 10 -10 18 -3 20 6 2 9 26 7 61 -7 123 -8 342 -2
342 4 0 10 -64 14 -142z m974 -43 c-5 -44 -7 -91 -4 -105 11 -57 8 -315 -3
-337 -8 -14 -9 -24 -2 -28 6 -4 10 -62 10 -141 0 -121 -2 -134 -18 -134 -15 0
-17 9 -16 65 1 38 7 71 15 82 9 11 10 14 2 9 -16 -9 -17 8 -2 36 9 16 8 19 -2
13 -9 -6 -11 -4 -6 7 3 9 3 19 -1 22 -10 11 -11 40 -2 51 6 7 6 24 1 42 -5 17
-5 36 -1 43 4 6 5 31 3 55 -3 24 -1 45 5 49 6 4 7 17 3 34 -5 15 -7 79 -6 142
1 63 -2 123 -7 132 -6 13 -5 16 5 12 14 -5 17 29 4 42 -16 17 -5 23 12 7 16
-16 17 -27 10 -98z m58 79 c-3 -3 -12 -4 -19 -1 -8 3 -5 6 6 6 11 1 17 -2 13
-5z m-427 -43 c0 -5 3 -17 6 -25 4 -12 -2 -19 -23 -27 -27 -9 -30 -14 -30 -54
0 -41 -7 -65 -17 -54 -2 2 -6 36 -8 76 -5 71 -5 72 21 82 34 12 51 13 51 2z
m231 -57 l-3 -47 -19 24 c-21 28 -24 60 -7 77 20 20 33 -4 29 -54z m-100 -40
c12 -15 -1 -19 -46 -15 -47 4 -49 11 -14 47 l34 35 7 -26 c3 -15 12 -33 19
-41z m166 44 c-3 -8 -6 -5 -6 6 -1 11 2 17 5 13 3 -3 4 -12 1 -19z m-509 -60
c-14 -8 -47 -1 -63 14 -7 6 0 18 19 35 l29 25 14 -33 c11 -26 11 -34 1 -41z
m655 16 c-23 -16 -41 -1 -23 21 10 12 16 13 26 4 12 -10 11 -14 -3 -25z m-146
-46 c-3 -8 -6 -5 -6 6 -1 11 2 17 5 13 3 -3 4 -12 1 -19z m-63 -273 c9 -254
16 -330 42 -440 29 -120 29 -122 7 -128 -15 -4 -15 -6 5 -12 27 -9 29 -35 2
-35 -11 0 -20 -4 -20 -10 0 -5 10 -10 23 -10 21 -1 21 -1 3 -15 -23 -18 -12
-37 19 -29 18 4 26 0 35 -16 11 -21 10 -22 -12 -17 -30 8 -61 -9 -35 -19 9 -3
28 -3 42 0 27 7 35 -8 10 -18 -25 -9 -17 -29 10 -24 14 3 28 1 31 -3 3 -5 -2
-9 -10 -9 -9 0 -16 -4 -16 -10 0 -5 14 -10 30 -10 35 0 40 -17 8 -29 -29 -10
-6 -25 27 -17 30 8 43 -10 14 -19 -20 -7 -20 -8 -6 -17 10 -5 22 -6 27 -3 6 3
10 -1 10 -11 0 -13 6 -15 34 -10 37 7 57 -7 30 -22 -9 -5 -12 -12 -7 -15 12
-8 80 10 88 23 3 5 -20 26 -51 47 -32 21 -59 43 -61 49 -5 14 99 2 168 -21 65
-21 89 -40 89 -71 0 -20 -8 -26 -52 -38 -29 -8 -82 -18 -118 -21 -108 -12
-132 -15 -141 -21 -5 -3 -31 -8 -58 -11 -38 -4 -49 -2 -54 11 -9 22 -37 20
-37 -3 0 -16 -12 -21 -72 -31 -40 -7 -77 -16 -83 -20 -18 -14 -76 -22 -186
-25 -110 -3 -137 6 -79 26 32 12 32 29 -1 29 -27 0 -24 6 27 57 52 52 121 150
136 194 7 22 13 27 23 19 6 -5 14 -7 17 -4 3 3 9 0 13 -6 4 -7 -2 -14 -14 -17
-31 -8 -25 -21 11 -25 24 -2 39 -13 64 -48 18 -25 33 -48 33 -52 1 -5 -30 -8
-69 -8 -84 0 -94 -18 -12 -23 55 -3 55 -3 -15 -5 -75 -2 -102 -15 -56 -26 34
-9 183 4 183 15 0 5 -10 10 -22 10 -20 1 -21 2 -3 6 13 4 26 -4 40 -21 18 -22
24 -25 33 -14 11 14 -1 32 -102 167 -15 19 -36 56 -49 82 -23 50 -42 59 -42
19 0 -13 -6 -25 -12 -27 -7 -3 -9 4 -6 16 7 28 -22 28 -37 1 -6 -11 -9 -20 -6
-20 9 0 -24 -70 -59 -123 -37 -56 -63 -88 -111 -130 l-30 -27 -58 15 c-40 11
-62 12 -71 5 -18 -15 -79 8 -66 24 8 9 26 10 63 5 107 -15 147 -11 173 17 29
32 24 47 -11 34 -27 -11 -254 9 -254 21 0 4 14 12 31 19 31 13 164 152 187
196 10 20 18 23 35 17 47 -16 107 2 107 32 0 8 -16 10 -55 7 -48 -4 -55 -2
-49 12 5 12 15 15 43 10 27 -4 41 -2 50 10 18 22 5 36 -35 36 -53 0 -45 28 9
32 34 2 42 7 42 23 0 16 -7 20 -30 20 -20 0 -31 6 -33 17 -3 15 2 17 26 12 25
-5 31 -2 37 16 4 12 4 24 1 27 -3 3 2 11 11 18 9 7 14 19 10 28 -5 13 -12 14
-38 7 -37 -11 -42 -9 -33 13 3 9 20 17 37 19 21 2 33 9 35 21 3 14 -4 17 -32
17 -24 0 -36 5 -36 14 0 15 21 26 51 26 24 0 37 29 19 40 -7 5 -22 7 -32 5
-10 -2 -18 2 -18 10 0 8 7 11 20 8 22 -6 63 24 54 38 -8 13 -58 11 -72 -3 -7
-7 -12 -8 -12 -2 0 19 16 32 47 38 30 7 48 27 36 40 -4 3 -22 3 -40 0 -31 -6
-33 -4 -33 20 0 24 3 26 35 24 37 -2 62 13 50 31 -4 7 -20 9 -41 5 -32 -6 -34
-4 -34 20 0 24 2 25 25 14 19 -8 28 -8 40 2 25 21 17 32 -22 28 -29 -2 -38 1
-38 12 0 10 8 14 26 12 29 -3 58 23 42 39 -6 6 -19 6 -35 0 -22 -8 -27 -7 -31
9 -4 16 2 19 31 22 27 2 38 8 40 22 4 16 0 18 -29 12 -18 -3 -37 -12 -41 -19
-6 -9 -8 -8 -8 4 0 8 11 26 25 39 14 13 25 29 25 37 0 15 5 15 38 7 13 -4 22
-14 22 -25 0 -25 22 -24 45 1 10 11 26 20 36 20 10 0 21 5 24 10 4 6 19 -16
35 -47 27 -55 29 -67 34 -228z m65 43 c-3 -231 -16 -293 -18 -88 -1 80 -4 159
-7 177 -6 29 11 103 23 103 2 0 3 -87 2 -192z m638 50 c-3 -8 -6 -5 -6 6 -1
11 2 17 5 13 3 -3 4 -12 1 -19z m13 -167 c0 -58 0 -131 1 -161 1 -30 3 -95 4
-145 1 -49 5 -131 8 -182 3 -51 3 -95 -2 -97 -4 -3 -7 -69 -5 -148 2 -153 -3
-211 -17 -202 -5 3 -7 100 -6 215 2 116 -1 213 -5 215 -5 3 -6 9 -3 13 2 5 0
46 -5 92 -8 70 -7 87 6 108 15 22 15 24 -1 17 -14 -5 -16 -2 -10 11 16 38 17
54 5 68 -6 8 -9 19 -5 24 6 11 15 148 17 261 0 50 3 60 9 41 5 -13 9 -72 9
-130z m-2349 -234 c25 -8 74 -35 109 -60 36 -25 83 -59 104 -74 54 -38 202
-162 271 -226 l30 -29 -30 8 c-16 4 -59 9 -95 10 -45 1 -76 8 -100 22 -49 29
-153 62 -194 62 -23 0 -39 7 -48 19 -7 10 -54 49 -103 85 -75 57 -93 66 -117
61 -26 -6 -28 -4 -28 22 0 49 76 109 141 112 9 1 36 -5 60 -12z m3032 -42 c34
-14 35 -17 26 -43 -8 -24 -15 -28 -35 -24 -13 2 -31 -2 -40 -9 -14 -11 -18
-10 -30 6 -20 28 -14 57 16 72 14 7 26 13 26 13 1 0 18 -7 37 -15z m-1777 -67
c-14 -114 -19 -135 -42 -180 -37 -74 -111 -93 -331 -89 l-33 1 0 93 c0 50 4
98 9 106 6 9 43 20 93 27 93 14 193 42 259 72 24 11 46 21 48 21 2 1 1 -23 -3
-51z m510 8 c56 -19 187 -35 349 -42 164 -6 169 -7 162 -36 -3 -11 -1 -44 4
-72 13 -66 19 -275 8 -282 -5 -3 -9 -1 -9 4 0 5 -12 14 -26 21 -34 15 -226 56
-337 71 -88 12 -88 12 -114 53 -14 23 -30 55 -34 72 -5 16 -15 53 -23 82 -17
60 -31 143 -23 143 2 0 22 -6 43 -14z m1284 -50 c0 -27 64 -137 110 -188 48
-54 88 -127 115 -207 16 -50 22 -190 9 -224 -6 -17 -7 -17 -20 0 -21 29 -33 4
-25 -54 8 -56 5 -63 -14 -36 -14 19 -39 8 -31 -13 3 -8 1 -24 -4 -36 -8 -21
-9 -20 -9 10 -1 55 -41 31 -41 -25 0 -18 -5 -33 -10 -33 -6 0 -8 11 -4 25 5
21 3 25 -15 25 -16 0 -21 -6 -21 -24 0 -13 -3 -33 -7 -43 -6 -16 -8 -15 -13 7
-9 39 -34 31 -38 -12 -2 -21 -8 -38 -13 -38 -6 0 -9 8 -8 18 3 38 0 43 -21 32
-10 -6 -17 -16 -14 -23 3 -9 -3 -13 -17 -13 -17 1 -25 -8 -34 -39 -7 -22 -13
-34 -14 -27 -2 19 -29 14 -41 -8 -7 -14 -17 -19 -29 -15 -10 3 -32 -2 -50 -11
-24 -12 -71 -16 -203 -19 -161 -3 -200 -10 -167 -30 19 -13 289 -7 382 8 81
13 87 13 87 -3 0 -14 -12 -18 -62 -23 -103 -8 -217 -70 -273 -148 -59 -83 -78
-142 -70 -223 3 -38 10 -78 15 -90 7 -18 3 -24 -20 -34 -15 -7 -40 -24 -55
-38 l-27 -24 2 72 c5 242 1 869 -6 903 -3 17 -5 42 -5 58 2 44 3 116 1 130 -3
32 7 378 12 382 8 8 116 -20 163 -41 69 -32 131 -91 166 -157 34 -66 118 -151
133 -136 12 11 -24 89 -42 89 -8 0 -10 5 -5 13 4 6 6 21 4 32 -3 19 -2 19 16
3 20 -18 43 -24 43 -10 0 4 -9 21 -20 37 -25 38 -27 70 -2 37 10 -13 21 -20
25 -16 11 12 8 44 -4 44 -8 0 -8 4 1 15 6 8 22 13 33 12 16 -1 21 3 19 15 -1
9 20 35 50 62 56 49 68 55 68 32z m-3130 -51 c27 -24 59 -49 70 -55 24 -13 26
-30 5 -30 -18 0 -141 96 -149 116 -11 28 24 13 74 -31z m830 -71 c0 -21 -4
-33 -10 -29 -5 3 -10 19 -10 36 0 16 5 29 10 29 6 0 10 -16 10 -36z m-542 -81
c57 -18 64 -29 30 -42 -91 -35 -96 -166 -8 -207 19 -9 52 -25 73 -35 21 -10
43 -19 50 -19 22 0 132 -57 160 -83 18 -17 27 -36 27 -57 0 -16 -2 -30 -4 -30
-3 0 -37 22 -78 48 -40 27 -105 66 -145 86 -39 21 -73 40 -75 44 -2 4 -20 15
-41 25 -21 10 -35 22 -32 28 8 12 -3 22 -113 96 -73 49 -86 54 -117 49 -19 -4
-35 -11 -35 -16 0 -6 -4 -10 -10 -10 -16 0 -12 63 5 87 21 30 74 54 137 62 53
7 80 3 176 -26z m932 -42 c0 -11 -99 -25 -126 -18 -11 3 1 6 26 7 25 1 54 5
65 10 27 12 35 12 35 1z m-643 -23 c15 -7 29 -22 30 -33 6 -86 5 -245 -2 -245
-2 0 -19 8 -37 18 -18 10 -49 24 -68 32 -39 15 -110 44 -156 65 -57 26 -69 99
-24 140 44 40 194 54 257 23z m477 0 c-3 -4 -15 -8 -27 -8 -12 -1 -39 -7 -59
-14 -37 -13 -38 -13 -38 11 0 23 2 24 64 21 36 -1 62 -6 60 -10z m-1144 -17
c0 -32 11 -51 31 -51 10 0 22 -6 26 -13 4 -8 30 -26 56 -42 26 -15 46 -30 43
-32 -3 -3 -27 1 -53 10 -53 17 -100 19 -124 6 -11 -6 -22 -3 -33 10 -18 20
-15 53 11 104 16 31 43 36 43 8z m1220 -21 c0 -5 -7 -10 -15 -10 -8 0 -15 5
-15 10 0 6 7 10 15 10 8 0 15 -4 15 -10z m40 0 c0 -5 -4 -10 -10 -10 -5 0 -10
5 -10 10 0 6 5 10 10 10 6 0 10 -4 10 -10z m-135 -20 c-33 -11 -68 -24 -77
-30 -14 -8 -18 -7 -18 3 0 16 82 46 125 45 23 0 16 -4 -30 -18z m973 3 c-10
-2 -28 -2 -40 0 -13 2 -5 4 17 4 22 1 32 -1 23 -4z m-1930 -22 c15 -10 51 -34
80 -52 79 -49 43 -48 -57 2 -104 52 -99 48 -81 59 21 13 27 12 58 -9z m711
-37 c47 -35 49 -39 49 -85 1 -27 -4 -49 -9 -49 -6 0 -7 -6 -2 -12 10 -17 12
-61 6 -121 l-5 -48 -31 24 c-18 13 -40 26 -49 30 -15 5 -17 19 -13 106 2 55 0
114 -5 131 -8 28 -5 60 6 60 3 0 26 -16 53 -36z m316 17 c-8 -13 -35 -15 -35
-2 0 5 8 11 18 13 21 5 26 2 17 -11z m1176 -14 c42 -23 89 -71 89 -91 0 -29
-30 -56 -63 -56 -24 0 -28 3 -22 18 5 9 10 32 13 49 3 27 -1 38 -28 63 -34 31
-29 39 11 17z m-1261 -11 c0 -2 2 -11 5 -19 5 -10 -1 -13 -25 -9 -25 4 -32 1
-37 -17 -6 -24 -23 -18 -23 8 0 10 10 23 23 29 22 11 57 16 57 8z m-1003 -61
c83 -21 153 -48 153 -57 0 -11 1 -11 -87 16 -43 13 -95 27 -115 30 -41 7 -62
26 -29 26 11 0 46 -7 78 -15z m1009 -21 c13 -3 21 -10 19 -15 -3 -4 -18 -3
-33 3 -32 14 -56 34 -29 24 11 -3 30 -9 43 -12z m-772 -30 c22 -14 82 -48 131
-76 50 -28 116 -68 147 -89 33 -22 64 -36 73 -33 11 5 15 -1 15 -25 0 -33 -14
-39 -39 -17 -25 21 -237 143 -263 151 -50 16 -119 57 -115 68 2 7 -2 20 -11
30 -14 15 -13 17 3 17 9 0 36 -12 59 -26z m804 -33 c51 -23 98 -41 105 -41 7
0 17 -4 22 -9 6 -5 27 -14 47 -20 27 -9 42 -22 55 -49 21 -43 39 -51 48 -23 8
25 59 28 88 7 16 -12 24 -12 55 2 20 8 60 19 87 23 28 4 86 14 130 23 246 47
423 69 517 62 124 -9 148 -12 154 -19 4 -3 8 -92 9 -197 3 -169 2 -191 -12
-186 -17 7 -262 -16 -408 -39 -55 -8 -181 -18 -280 -21 -99 -4 -188 -10 -197
-15 -9 -5 -31 -9 -49 -9 -26 0 -29 2 -20 14 10 11 8 16 -6 24 -16 9 -15 11 7
16 14 2 32 5 40 5 12 1 247 37 258 40 1 1 2 8 2 16 0 12 -7 15 -32 10 -159
-27 -244 -39 -310 -42 -65 -4 -81 -1 -105 15 -15 11 -59 30 -98 43 -52 17 -82
34 -120 70 -28 26 -63 51 -78 54 l-27 7 0 145 c0 112 3 144 13 140 6 -3 54
-24 105 -46z m252 -51 c0 -5 -4 -10 -9 -10 -6 0 -13 5 -16 10 -3 6 1 10 9 10
9 0 16 -4 16 -10z m1136 -212 c4 -190 3 -201 -12 -173 -12 23 -17 69 -19 205
-2 96 -1 179 2 183 17 29 26 -33 29 -215z m-1658 84 l43 -38 -3 -88 -3 -87
-40 30 c-34 25 -40 35 -40 65 0 43 4 44 35 11 16 -17 27 -22 34 -15 7 7 -4 23
-32 50 -23 23 -42 46 -42 53 0 7 -3 22 -6 35 -9 31 5 28 54 -16z m204 -136
c36 -42 68 -59 183 -96 39 -12 97 -50 78 -50 -5 0 -57 9 -116 19 -83 15 -116
26 -156 52 -49 32 -50 35 -46 74 2 22 4 41 4 43 3 10 22 -5 53 -42z m-185 -96
c15 -10 23 -27 27 -59 7 -52 18 -1239 15 -1576 -1 -121 -2 -317 -3 -435 -1
-186 -3 -214 -16 -211 -8 2 -38 4 -65 4 l-50 0 3 116 c5 166 5 164 3 296 -2
148 -3 204 -2 230 1 11 2 85 4 165 1 80 6 151 10 158 5 6 3 28 -4 46 -9 24 -9
39 -2 48 10 13 9 107 -2 158 -3 15 -2 30 2 33 10 6 8 89 -2 136 -4 20 -2 37 5
46 6 8 9 19 5 26 -11 16 -15 120 -7 136 5 7 5 46 1 87 -4 40 -4 102 1 137 4
35 3 75 -1 87 -5 13 -6 29 -2 35 4 7 8 89 10 182 1 94 2 176 2 184 1 11 5 11
24 -1 12 -8 32 -21 44 -28z m157 1 c20 -22 69 -47 106 -55 14 -2 67 -14 119
-25 51 -11 116 -18 144 -16 37 2 47 1 34 -6 -21 -12 -195 -15 -257 -5 -25 5
-75 22 -112 39 -60 28 -68 35 -68 60 0 32 10 34 34 8z m1429 -54 c-7 -11 -16
-288 -14 -407 1 -14 1 -61 1 -105 -1 -44 0 -137 1 -206 1 -70 -1 -131 -4 -136
-3 -5 -2 -36 3 -69 4 -32 4 -63 0 -67 -4 -5 -4 -23 0 -40 5 -18 7 -61 5 -97
-2 -36 -3 -78 -2 -95 1 -16 0 -109 -2 -205 -1 -96 -3 -188 -2 -205 1 -77 1
-354 0 -478 0 -110 -3 -138 -13 -134 -8 3 -29 2 -48 -2 l-34 -8 3 216 c2 119
4 223 4 231 0 8 0 49 -1 90 -1 85 -1 541 0 670 0 47 2 146 4 220 3 74 4 178 4
230 -3 578 -3 577 11 594 9 11 23 15 37 12 13 -4 26 -1 29 4 4 6 11 8 16 4 5
-3 6 -11 2 -17z m-137 -192 c0 -107 -4 -195 -7 -195 -7 0 -20 26 -25 49 -1 7
2 24 7 38 6 16 5 22 -1 18 -11 -7 -14 8 -3 19 4 4 8 64 9 134 2 143 1 132 13
132 5 0 8 -86 7 -195z m-72 -157 c-3 -189 -5 -354 -5 -368 0 -31 10 -303 12
-310 0 -3 0 -115 -1 -250 -1 -135 -1 -256 0 -270 2 -26 4 -325 2 -370 0 -14 0
-74 1 -135 1 -60 -2 -120 -7 -132 -6 -15 -5 -27 3 -37 18 -22 -10 -27 -144
-25 l-120 2 -1 96 c0 53 -5 247 -9 431 -4 184 -8 362 -7 395 4 427 3 653 -2
714 -3 40 -2 79 3 85 10 13 8 93 -3 119 -5 10 -3 30 4 47 8 20 9 34 3 43 -6 6
-9 26 -8 42 2 17 4 65 5 108 2 42 7 80 12 83 5 3 6 14 3 24 -5 16 2 19 52 25
32 4 76 11 98 15 22 4 56 8 77 9 l36 1 -4 -342z m261 284 l-7 -27 -10 28 c-7
20 -6 32 4 44 12 15 13 15 16 -1 2 -10 1 -30 -3 -44z m1011 39 c-1 -22 -18
-32 -32 -20 -27 22 -130 -12 -119 -39 8 -22 -13 -51 -33 -45 -14 3 -25 -5 -40
-29 -12 -18 -22 -30 -22 -26 0 10 48 99 64 118 7 8 16 23 20 34 5 14 13 17 39
12 17 -3 37 -2 44 2 6 4 27 7 46 8 25 0 34 -4 33 -15z m-2491 -5 c36 -25 153
-55 237 -61 84 -6 332 8 423 25 28 5 77 10 110 12 l60 3 2 -565 c1 -311 4
-744 6 -962 2 -249 0 -398 -6 -398 -5 0 -6 -12 -3 -27 10 -44 18 -193 11 -220
-3 -13 -10 -21 -15 -18 -6 4 -193 8 -417 11 -295 3 -409 1 -419 -7 -12 -10
-14 16 -11 167 2 99 1 213 -3 254 -4 41 -5 76 -1 77 3 2 5 74 4 160 -2 146 -4
528 -2 563 0 8 -2 237 -6 508 -4 281 -3 492 2 492 5 0 17 -6 28 -14z m910 -43
c-4 -16 -5 -80 -4 -143 1 -63 1 -126 0 -140 -3 -30 5 -1050 10 -1355 1 -49 1
-130 0 -180 -1 -49 2 -152 5 -228 5 -118 4 -140 -9 -155 -10 -10 -14 -27 -11
-39 3 -11 -1 -33 -9 -49 -14 -27 -15 -24 -13 49 0 42 3 77 6 77 3 0 6 11 6 25
1 14 -1 25 -5 25 -8 0 -5 125 4 139 4 7 2 17 -3 24 -12 15 -10 567 2 586 6 10
5 12 -2 7 -8 -5 -12 2 -12 19 0 14 3 24 8 22 7 -5 6 154 -1 203 -2 14 1 28 6
32 7 4 6 12 -2 22 -10 12 -10 16 -2 16 8 0 6 6 -4 16 -12 13 -15 33 -13 90 1
41 5 74 10 74 4 0 4 7 1 17 -4 10 -2 14 4 10 13 -8 12 25 0 34 -5 3 -4 22 1
41 8 28 6 37 -7 45 -14 10 -14 13 4 27 19 15 19 16 1 9 -16 -5 -18 -3 -13 11
4 10 7 22 7 27 0 6 6 7 13 3 6 -4 4 2 -6 14 -11 11 -16 26 -11 33 4 7 7 145 7
308 0 287 2 310 30 311 4 0 5 -12 2 -27z m1550 -13 c6 5 16 5 23 1 8 -5 -3
-15 -31 -29 -59 -30 -83 -84 -57 -133 16 -29 68 -52 107 -46 40 7 42 -5 8 -39
-20 -20 -31 -24 -59 -19 -37 7 -54 -6 -32 -24 37 -31 126 -5 152 44 19 37 18
64 -6 103 -22 36 -42 47 -67 38 -12 -5 -14 -9 -5 -18 7 -7 12 -20 12 -30 0
-27 -44 -23 -59 5 -28 53 29 107 114 107 87 0 147 -74 147 -182 0 -60 -29
-135 -51 -131 -5 2 -8 -3 -5 -11 3 -8 1 -17 -5 -21 -7 -3 -11 2 -11 14 0 30
-13 26 -48 -15 -37 -43 -105 -67 -152 -54 -35 10 -87 -3 -59 -15 10 -3 39 -10
65 -15 46 -9 45 -9 -21 -6 -43 2 -88 12 -116 25 -43 19 -139 109 -139 130 0 5
-3 18 -7 28 -6 16 -5 16 11 4 12 -10 20 -11 28 -3 8 8 21 1 50 -28 37 -39 68
-52 68 -29 0 6 -16 29 -35 52 -19 22 -35 48 -36 56 0 9 -2 34 -4 56 l-4 40 20
-32 c12 -19 29 -33 41 -33 19 0 19 4 13 63 l-7 62 20 -18 c25 -23 42 -15 42
21 0 31 59 95 74 81 6 -5 14 -5 21 1z m82 -6 c-3 -3 -12 -4 -19 -1 -8 3 -5 6
6 6 11 1 17 -2 13 -5z m-1060 -282 c0 -148 4 -291 8 -318 5 -27 7 -62 6 -77
-2 -15 3 -35 9 -42 9 -11 10 -23 2 -42 -6 -16 -9 -97 -8 -188 2 -150 -4 -192
-25 -179 -15 9 -10 -6 7 -23 10 -11 15 -32 13 -72 -1 -31 1 -86 5 -123 3 -37
2 -70 -3 -73 -6 -3 -6 -18 -1 -34 4 -15 6 -91 3 -167 -3 -77 -5 -157 -4 -179
0 -22 0 -71 0 -110 0 -38 0 -77 0 -85 4 -194 -7 -331 -28 -366 -9 -16 -10 -12
-5 17 3 22 1 39 -5 43 -6 4 -11 22 -11 39 0 24 3 28 10 17 5 -8 10 -11 10 -7
0 4 -7 19 -16 32 -18 28 -11 71 7 45 8 -11 9 -9 4 9 -6 18 -4 22 6 15 11 -6
11 -4 0 10 -12 14 -12 22 -3 36 10 16 9 18 -3 14 -9 -4 -15 0 -15 7 0 8 -3 25
-7 38 -4 17 -3 22 5 17 8 -4 10 -2 6 7 -3 8 2 21 11 30 9 10 11 18 5 22 -5 3
-10 1 -10 -5 0 -6 -4 -9 -8 -6 -10 6 -8 45 5 101 5 22 8 99 6 170 -8 287 -7
348 8 339 8 -4 9 -3 5 4 -4 6 -8 58 -10 114 -2 57 -5 108 -6 113 -7 29 1 47
18 41 14 -5 14 -4 -2 9 -18 14 -15 20 7 16 5 -1 6 3 2 9 -4 6 -9 34 -12 63 -6
46 -6 66 -3 110 2 22 -8 86 -15 97 -3 5 -2 10 4 10 6 0 7 7 4 17 -5 11 -3 14
6 8 10 -6 11 -3 3 11 -13 26 -13 136 0 128 5 -4 2 5 -7 19 -9 15 -14 31 -10
38 6 10 12 203 14 472 1 42 5 77 9 77 5 0 9 -121 9 -268z m710 124 l1 -38 -29
31 c-36 40 -36 46 -1 46 24 0 27 -4 29 -39z m63 34 c0 -5 -2 -10 -4 -10 -3 0
-8 5 -11 10 -3 6 -1 10 4 10 6 0 11 -4 11 -10z m-990 -30 c0 -5 -5 -10 -11
-10 -5 0 -7 5 -4 10 3 6 8 10 11 10 2 0 4 -4 4 -10z m19 -153 c9 -12 11 -64
12 -297 0 -109 0 -633 -1 -1215 0 -253 1 -479 3 -502 2 -22 0 -49 -4 -60 -8
-19 -10 -8 -12 59 -1 15 -5 24 -10 21 -9 -6 1 155 11 171 3 5 0 6 -6 2 -11 -7
-17 30 -13 77 2 10 -5 17 -16 18 -17 1 -17 2 0 6 19 5 20 10 17 218 -2 148 -2
167 1 188 1 6 -1 31 -5 55 -4 23 -4 42 1 42 4 0 7 17 5 38 -2 20 -3 102 -3
182 1 80 2 188 1 240 0 52 0 122 0 155 0 33 0 83 0 110 0 28 -1 137 -2 243 -2
105 1 192 5 192 4 0 3 9 -3 19 -21 39 -7 68 19 38z m-1352 -270 c2 -144 5
-480 8 -747 6 -557 6 -709 -1 -765 -3 -22 -5 -47 -5 -55 0 -8 1 -53 1 -99 1
-59 -3 -86 -12 -92 -8 -5 -9 -9 -2 -9 13 0 11 -140 -1 -161 -5 -7 -4 -10 2 -6
15 10 23 -42 8 -56 -7 -8 -9 -20 -4 -32 11 -30 10 -47 -2 -39 -8 5 -9 2 -1
-12 6 -11 7 -25 1 -35 -5 -10 -7 -31 -5 -48 4 -32 -17 -49 -38 -32 -11 10 -22
11 -89 11 -18 1 -27 5 -24 13 2 7 18 11 43 8 78 -7 89 -6 89 7 0 7 -13 21 -30
32 -21 14 -25 20 -13 20 11 0 15 5 12 14 -3 9 3 17 15 21 20 6 26 22 22 53 -1
8 3 20 10 28 8 10 8 18 1 27 -6 7 -10 48 -8 95 1 46 -1 85 -5 88 -5 3 -6 18
-2 34 6 34 -9 40 -39 13 -20 -18 -24 -53 -6 -53 8 0 7 -5 -3 -15 -12 -12 -22
-14 -42 -6 -18 7 -27 7 -30 -2 -8 -22 5 -37 33 -37 36 0 57 -24 40 -45 -7 -8
-17 -15 -22 -15 -6 0 -5 6 2 15 17 21 4 35 -35 35 -31 0 -35 3 -39 33 -3 17
-4 43 -3 57 2 14 -1 33 -5 43 -8 16 -7 17 11 5 13 -8 17 -16 11 -23 -5 -6 -6
-15 -2 -21 13 -19 40 -23 53 -8 13 16 13 16 -16 33 -18 10 -18 11 6 5 19 -4
28 -1 33 12 9 24 -12 36 -55 31 -32 -4 -36 -2 -32 14 6 22 52 26 72 7 10 -11
12 -10 9 2 -2 8 2 14 9 13 7 -2 10 4 7 12 -4 8 -1 15 5 15 8 0 11 -14 9 -37
-3 -35 -1 -38 24 -38 19 -1 24 2 18 10 -6 7 -7 14 -5 17 3 3 6 216 7 474 1
258 5 479 10 492 4 13 4 21 0 18 -4 -2 -8 147 -9 332 0 185 -2 371 -3 412 -3
134 0 214 7 206 4 -4 9 -125 10 -269z m3063 173 c0 -5 -5 -10 -11 -10 -5 0 -7
5 -4 10 3 6 8 10 11 10 2 0 4 -4 4 -10z m-1331 -75 c25 -37 121 -124 157 -143
19 -10 21 -19 18 -84 -2 -55 3 -91 21 -145 12 -40 20 -73 16 -73 -3 0 -16 -3
-28 -6 -19 -5 -22 -2 -20 21 2 26 1 27 -63 29 -107 4 -158 33 -174 99 -4 17
-13 27 -25 27 -21 0 -37 52 -32 108 1 18 -3 39 -9 47 -7 8 -10 21 -7 29 3 7 1
18 -5 24 -6 6 -1 10 16 10 13 0 27 -7 30 -15 3 -8 10 -11 16 -8 12 8 13 3 1
-29 -7 -18 -6 -28 4 -36 19 -16 32 -6 50 37 20 47 19 56 -5 50 -12 -3 -20 0
-20 7 0 7 9 22 20 34 26 28 25 32 -7 32 -22 0 -25 2 -13 10 24 16 34 12 59
-25z m251 -184 c0 -6 -4 -13 -10 -16 -5 -3 -10 1 -10 9 0 9 5 16 10 16 6 0 10
-4 10 -9z m-11 -111 c0 -28 -2 -31 -9 -15 -5 11 -9 36 -9 55 0 28 2 31 9 15 5
-11 9 -36 9 -55z m-359 -16 c0 -29 39 -72 96 -104 47 -26 65 -31 112 -29 34 2
57 -1 59 -8 10 -30 -96 -16 -173 23 -67 34 -145 134 -104 134 6 0 10 -7 10
-16z m-2945 -1314 c8 -13 -15 -13 -35 0 -12 8 -11 10 7 10 12 0 25 -4 28 -10z
m62 -16 c13 -4 20 -11 16 -17 -4 -6 -1 -7 8 -1 17 10 69 6 85 -7 6 -5 14 -6
17 -2 4 3 7 1 7 -5 0 -15 -15 -15 -41 -2 -12 7 -19 7 -19 1 0 -6 -56 -9 -138
-9 -124 0 -140 2 -150 19 -15 24 -9 24 25 2 15 -10 24 -12 20 -5 -6 8 -2 12
12 12 12 0 21 -3 21 -7 0 -13 72 -14 86 -2 7 6 19 7 26 3 10 -6 9 -3 -1 9 -14
18 -9 20 26 11z m200 -40 c-3 -3 -12 -4 -19 -1 -8 3 -5 6 6 6 11 1 17 -2 13
-5z m36 -13 c-7 -29 10 -33 120 -32 56 1 98 -2 94 -6 -15 -14 -553 -22 -569
-8 -8 7 -9 7 -5 -1 5 -8 -20 -12 -81 -13 -81 -2 -88 0 -88 17 0 12 5 18 13 15
7 -3 13 -10 13 -17 0 -7 3 -7 8 1 5 7 24 11 45 10 20 -2 37 -1 37 3 0 7 339 4
347 -3 3 -4 13 -2 23 3 10 5 21 6 25 2 5 -4 5 1 2 11 -7 20 -1 37 13 37 4 0 6
-8 3 -19z m738 -23 c0 -13 3 -61 6 -108 5 -85 5 -98 0 -220 -2 -65 -10 -78
-47 -79 -12 0 -12 2 3 13 30 23 20 36 -31 36 -26 0 -54 6 -61 13 -11 10 -13
10 -7 0 4 -8 1 -13 -7 -13 -8 0 -17 -7 -21 -15 -4 -11 2 -15 22 -17 16 0 9 -3
-18 -7 -25 -3 -57 -4 -71 -3 l-26 4 21 22 c12 12 25 19 31 14 13 -12 22 -10
28 6 4 10 1 13 -7 10 -7 -3 -16 2 -19 10 -5 14 4 15 65 11 39 -2 73 -7 76 -9
8 -9 42 14 42 28 0 19 -15 23 -98 24 -60 0 -77 -3 -90 -19 -15 -17 -17 -17
-34 -2 -10 8 -15 20 -11 26 3 6 1 7 -5 3 -6 -3 -30 -1 -54 5 -24 6 -52 10 -62
10 -14 0 -16 3 -8 11 17 17 63 19 79 2 8 -7 26 -14 41 -15 15 0 80 -4 144 -7
97 -6 119 -4 123 7 10 25 -12 34 -80 32 -42 -1 -73 3 -83 11 -12 10 -14 10 -8
1 5 -10 -2 -13 -28 -13 -19 0 -37 4 -41 10 -3 5 -13 7 -23 4 -12 -4 -11 -2 3
7 21 13 35 29 35 41 0 18 -54 67 -80 73 -19 4 -28 11 -23 18 5 9 3 9 -8 1 -9
-8 -30 -9 -59 -4 -44 7 -44 8 -10 10 19 1 40 2 46 1 13 -1 15 30 2 46 -7 9 25
11 131 8 77 -2 144 -6 148 -8 5 -3 19 -4 33 -3 20 1 24 6 23 24 -2 12 2 22 7
22 6 0 10 -10 11 -22z m1579 2 c0 -5 -5 -10 -11 -10 -5 0 -7 5 -4 10 3 6 8 10
11 10 2 0 4 -4 4 -10z m330 2 c0 -13 -12 -22 -22 -16 -10 6 -1 24 13 24 5 0 9
-4 9 -8z m170 -7 c0 -1 -12 -2 -26 -2 -17 0 -22 2 -13 7 10 7 39 3 39 -5z m60
-1 c0 -2 -7 -4 -15 -4 -8 0 -15 4 -15 10 0 5 7 7 15 4 8 -4 15 -8 15 -10z
m-1780 2 c0 -3 -4 -8 -10 -11 -5 -3 -10 -1 -10 4 0 6 5 11 10 11 6 0 10 -2 10
-4z m2003 -3 c-7 -2 -21 -2 -30 0 -10 3 -4 5 12 5 17 0 24 -2 18 -5z m185 0
c-10 -2 -28 -2 -40 0 -13 2 -5 4 17 4 22 1 32 -1 23 -4z m-2922 -15 c4 -5 -18
-8 -49 -8 -31 0 -57 4 -57 8 0 11 95 10 106 0z m3331 6 c-3 -3 -12 -4 -19 -1
-8 3 -5 6 6 6 11 1 17 -2 13 -5z m-1205 -19 c8 3 13 -4 13 -19 0 -16 -3 -21
-9 -15 -6 5 -22 9 -36 9 -18 0 -26 6 -27 20 -1 16 2 18 23 10 13 -5 29 -7 36
-5z m-3077 -5 c-3 -5 -10 -10 -16 -10 -5 0 -9 5 -9 10 0 6 7 10 16 10 8 0 12
-4 9 -10z m2794 -6 c2 -2 -18 -3 -44 -2 -28 0 -42 4 -34 9 11 7 67 2 78 -7z
m455 -9 c-3 -7 -12 -16 -21 -19 -11 -5 -13 -2 -9 10 3 8 6 20 6 25 0 4 6 6 14
3 8 -3 12 -12 10 -19z m-3351 8 c-13 -2 -33 -2 -45 0 -13 2 -3 4 22 4 25 0 35
-2 23 -4z m2213 -4 c3 -5 10 -6 16 -3 19 12 107 7 123 -6 13 -11 14 -10 10 1
-4 12 18 14 124 14 71 0 128 -3 126 -6 -2 -3 -5 -25 -6 -50 -2 -24 -7 -47 -13
-51 -6 -4 8 -6 30 -5 33 2 41 -1 37 -13 -4 -13 -4 -13 6 0 6 8 8 23 5 33 -3 9
-1 17 5 17 6 0 11 -10 11 -23 0 -13 5 -28 10 -33 8 -8 6 -15 -5 -24 -13 -11
-18 -10 -33 4 -19 16 -63 22 -76 9 -3 -4 -17 -8 -29 -9 l-22 -3 22 11 c11 5
23 20 25 32 4 21 2 22 -41 16 -25 -3 -75 -3 -111 1 -65 6 -65 6 -15 8 28 2 74
2 103 1 34 -1 52 3 52 10 0 7 7 9 17 5 15 -5 15 -4 -1 12 -11 10 -29 18 -40
19 -78 3 -163 5 -171 4 -26 -3 -323 0 -345 4 -56 10 -216 16 -225 9 -5 -5 -10
-15 -11 -23 -1 -12 12 -15 55 -16 121 -1 342 -23 248 -24 -124 -3 -198 -1
-206 4 -5 4 -32 7 -60 7 -45 1 -51 4 -52 23 0 11 -2 28 -4 37 -2 15 20 16 216
17 122 0 222 -4 225 -9z m804 -5 c0 -2 -7 -4 -15 -4 -8 0 -15 4 -15 10 0 5 7
7 15 4 8 -4 15 -8 15 -10z m596 -4 c0 -18 -7 -20 -78 -20 -45 0 -78 4 -78 10
0 6 6 10 13 10 8 0 7 4 -3 10 -10 7 10 10 65 10 74 0 81 -2 81 -20z m274 10
c11 -1 10 -4 -4 -15 -11 -8 -38 -15 -60 -14 -35 1 -37 2 -16 8 14 4 24 14 22
21 -2 9 4 11 20 6 13 -3 30 -6 38 -6z m159 -12 c-11 -20 -59 -25 -59 -5 0 9
-2 9 -9 -1 -7 -11 -9 -11 -14 2 -5 12 0 16 18 16 13 0 27 -4 30 -10 3 -5 12
-10 18 -9 9 0 9 2 0 6 -19 7 -15 19 6 19 16 0 17 -4 10 -18z m-3253 -23 c-2
-7 1 -18 7 -24 6 -6 8 -14 4 -17 -3 -4 -13 0 -21 9 -8 8 -36 15 -63 17 -133 5
-164 0 -142 -26 6 -7 15 -11 20 -8 5 3 17 0 26 -5 15 -9 13 -10 -12 -9 -16 1
-41 11 -55 24 -40 35 -65 38 -90 12 -11 -12 -23 -33 -26 -45 -7 -26 -24 -31
-24 -8 0 8 -4 15 -10 15 -5 0 -10 4 -10 8 0 5 10 8 21 8 24 -1 46 39 27 50 -6
4 -8 3 -5 -2 3 -6 -64 -10 -179 -10 -101 1 -184 -1 -184 -4 0 -3 -36 -6 -79
-6 -54 -1 -78 2 -75 10 4 11 76 15 379 20 105 2 165 -1 174 -8 11 -8 13 -8 8
1 -5 8 30 11 133 11 78 0 143 2 146 5 10 10 35 -5 30 -18z m84 17 c0 -4 25 -5
55 -2 30 3 55 2 55 -2 0 -4 -15 -8 -33 -8 -18 0 -57 -6 -87 -14 -30 -8 -58
-12 -62 -10 -14 9 16 31 34 26 10 -2 18 1 18 7 0 6 5 11 10 11 6 0 10 -4 10
-8z m2567 -8 c-3 -3 -12 -4 -19 -1 -8 3 -5 6 6 6 11 1 17 -2 13 -5z m210 0
c-3 -3 -12 -4 -19 -1 -8 3 -5 6 6 6 11 1 17 -2 13 -5z m40 0 c-3 -3 -12 -4
-19 -1 -8 3 -5 6 6 6 11 1 17 -2 13 -5z m540 0 c-3 -3 -12 -4 -19 -1 -8 3 -5
6 6 6 11 1 17 -2 13 -5z m116 -1 c-13 -2 -35 -2 -50 0 -16 2 -5 4 22 4 28 0
40 -2 28 -4z m75 0 c-10 -2 -26 -2 -35 0 -10 3 -2 5 17 5 19 0 27 -2 18 -5z
m-1508 -14 c36 0 73 2 83 6 11 5 17 2 17 -8 0 -12 -23 -14 -140 -13 -101 1
-140 4 -140 13 0 8 17 11 58 8 31 -2 86 -5 122 -6z m271 -22 c6 -10 8 -30 4
-45 -4 -22 -12 -28 -35 -30 -17 -1 -30 3 -30 9 0 6 9 9 20 6 23 -6 45 17 36
39 -4 10 -13 14 -26 11 -11 -3 -20 -4 -20 -2 0 2 -2 10 -5 17 -8 21 44 17 56
-5z m710 3 c12 7 19 7 19 1 0 -17 -32 -28 -75 -26 -22 1 -95 2 -163 3 -68 1
-121 6 -118 10 2 4 70 7 150 5 104 -2 147 1 152 9 6 9 9 9 12 0 2 -8 9 -9 23
-2z m365 -11 c-5 7 5 11 28 11 20 0 36 -5 36 -11 0 -8 5 -7 15 1 19 16 27 10
15 -10 -8 -12 -13 -13 -30 -2 -24 15 -33 16 -25 2 9 -15 -58 -12 -74 3 -8 6
-11 8 -8 2 3 -6 -23 -9 -74 -7 -43 2 -79 7 -79 11 0 4 32 8 71 8 39 1 73 4 77
7 3 3 16 -1 30 -10 13 -9 21 -11 18 -5z m-3149 -25 c31 -39 29 -51 -9 -56 -21
-4 -37 1 -50 14 -26 26 -136 20 -145 -9 -3 -7 14 -10 49 -9 41 1 53 -2 53 -14
0 -11 -15 -16 -64 -18 -35 -2 -71 0 -80 3 -9 4 -17 6 -19 5 -10 -3 -62 33 -62
43 1 18 48 49 63 41 6 -4 8 -3 4 1 -4 5 3 15 15 22 16 10 51 13 122 10 96 -4
100 -5 123 -33z m2238 26 c-28 -12 -37 -12 -30 0 3 6 16 10 28 9 21 0 21 -1 2
-9z m148 1 c4 -1 7 -11 7 -22 0 -19 -2 -20 -16 -8 -10 8 -29 19 -43 25 -25 11
-25 11 9 9 19 -2 38 -3 43 -4z m37 -1 c0 -5 -5 -10 -11 -10 -5 0 -7 5 -4 10 3
6 8 10 11 10 2 0 4 -4 4 -10z m-1310 -12 c0 -4 -16 -8 -36 -8 -19 0 -33 4 -30
8 3 5 19 9 36 9 16 0 30 -4 30 -9z m70 3 c0 -4 -11 -6 -25 -3 -14 2 -25 6 -25
8 0 2 11 4 25 4 14 0 25 -4 25 -9z m49 0 c10 -7 7 -9 -12 -8 -14 1 -23 5 -20
10 6 9 15 9 32 -2z m-2019 -11 c0 -5 -2 -10 -4 -10 -3 0 -8 5 -11 10 -3 6 -1
10 4 10 6 0 11 -4 11 -10z m60 -6 c0 -2 -9 -4 -20 -4 -11 0 -20 4 -20 9 0 5 9
7 20 4 11 -3 20 -7 20 -9z m2650 -22 c0 -8 -7 -11 -19 -7 -10 3 -50 6 -90 6
-67 1 -86 9 -59 25 6 4 13 3 15 -2 4 -13 112 -9 126 5 12 12 27 -3 27 -27z
m933 -4 c-3 -16 -9 -28 -14 -28 -11 0 -12 53 -2 64 12 12 22 -9 16 -36z
m-3218 5 c-14 -15 -25 -31 -25 -36 0 -4 -4 -6 -9 -3 -11 7 -41 -3 -41 -14 0
-5 8 -10 18 -12 9 -2 -19 -8 -64 -13 -70 -9 -81 -8 -80 5 1 11 -8 14 -31 12
-18 -2 -33 0 -33 5 0 4 33 9 73 11 50 1 75 7 83 17 6 8 27 15 46 15 41 0 52 8
37 27 -9 10 -5 13 20 13 l32 0 -26 -27z m1136 1 c57 -3 131 -7 164 -9 33 -2
75 -4 94 -4 19 -1 31 -4 27 -8 -3 -4 -50 -6 -104 -5 -107 2 -140 -8 -108 -31
15 -11 16 -16 6 -22 -8 -5 -15 -4 -18 3 -9 29 -39 51 -72 53 -64 4 -90 -1 -90
-15 0 -17 22 -26 61 -26 18 0 28 -4 24 -10 -3 -5 -21 -10 -40 -10 -21 0 -35
-6 -39 -16 -12 -30 -21 -3 -21 61 0 35 2 59 6 54 3 -5 52 -11 110 -15z m940
16 c11 0 19 -4 19 -9 0 -5 -18 -7 -39 -4 -37 5 -39 4 -34 -16 4 -15 1 -21 -11
-21 -11 0 -16 9 -16 31 0 30 2 31 31 25 17 -3 40 -6 50 -6z m1196 -37 c-3 -10
-5 -2 -5 17 0 19 2 27 5 18 2 -10 2 -26 0 -35z m-274 13 c70 -3 132 -8 137
-11 20 -12 9 -25 -21 -25 -21 0 -28 4 -23 13 6 9 4 9 -8 -1 -9 -7 -18 -9 -20
-3 -1 5 -54 11 -117 13 -82 2 -116 7 -119 16 -3 9 3 11 20 8 12 -3 81 -7 151
-10z m817 4 c25 -2 17 -5 -30 -9 -68 -6 -110 -3 -110 8 0 6 80 7 140 1z
m-4313 -30 c4 0 1 5 -7 10 -11 7 4 10 50 10 43 0 60 -3 50 -9 -8 -6 -19 -7
-25 -3 -5 3 -5 -1 2 -9 10 -12 2 -14 -52 -14 -46 0 -61 3 -58 13 3 6 0 12 -6
12 -6 0 -11 5 -11 11 0 7 10 5 25 -5 13 -9 28 -16 32 -16z m4386 23 c-7 -2
-19 -2 -25 0 -7 3 -2 5 12 5 14 0 19 -2 13 -5z m-2213 -11 c0 -10 -198 -7
-208 2 -3 3 43 6 101 6 59 0 107 -4 107 -8z m1040 -11 c8 -17 15 -18 42 -10
37 10 42 7 34 -19 -17 -53 -196 -36 -196 18 0 23 12 25 40 8 16 -10 23 -10 37
5 22 22 30 21 43 -2z m-997 2 c-7 -2 -19 -2 -25 0 -7 3 -2 5 12 5 14 0 19 -2
13 -5z m54 1 c-3 -3 -12 -4 -19 -1 -8 3 -5 6 6 6 11 1 17 -2 13 -5z m737 -98
c2 -58 -1 -93 -7 -89 -5 3 -4 -4 3 -16 6 -12 8 -30 5 -40 -3 -10 -1 -30 4 -43
9 -24 8 -25 -15 -14 -23 11 -32 40 -15 50 8 6 5 135 -4 144 -3 3 0 11 5 18 6
6 10 16 9 20 -4 21 2 77 7 72 3 -4 7 -49 8 -102z m-2824 75 c0 -10 -78 -7 -88
3 -3 3 16 6 41 6 26 0 47 -4 47 -9z m37 3 c-3 -3 -12 -4 -19 -1 -8 3 -5 6 6 6
11 1 17 -2 13 -5z m2196 -19 c-6 -17 -73 -21 -73 -5 0 6 11 10 24 10 14 0 28
5 31 10 9 15 25 2 18 -15z m355 -45 c2 -63 2 -64 -13 -37 l-16 27 -90 -5 c-50
-3 -95 -8 -101 -11 -5 -3 -4 3 4 15 14 24 28 27 29 9 0 -7 2 -8 5 -3 2 6 28 9
57 8 56 -1 64 1 84 28 11 13 3 15 -66 18 -59 1 -82 -2 -94 -13 -13 -14 -15
-13 -20 4 -3 10 -3 20 -2 22 2 2 52 3 112 3 l109 0 2 -65z m-2283 50 c3 -5 -1
-10 -10 -10 -9 0 -13 5 -10 10 3 6 8 10 10 10 2 0 7 -4 10 -10z m3065 -14 c14
-3 71 -7 126 -7 56 -1 108 -5 115 -10 8 -4 19 -3 28 4 11 9 15 9 19 -1 3 -10
7 -10 19 -1 12 10 16 10 24 -2 6 -10 9 -10 9 -1 0 6 5 12 11 12 6 0 8 -7 5
-17 -6 -15 -5 -15 11 -2 18 15 67 24 59 11 -2 -4 7 -7 20 -7 13 0 24 4 24 9 0
5 6 4 13 -2 7 -6 86 -14 182 -18 94 -3 173 -9 178 -13 4 -4 0 -16 -8 -27 -13
-17 -14 -17 -15 -2 0 10 -10 20 -22 22 -13 3 -147 8 -298 10 -151 3 -316 6
-366 7 -49 1 -100 -2 -113 -6 -16 -5 -26 -2 -35 10 -14 20 -53 27 -145 27 -50
1 -61 3 -49 12 15 11 155 6 208 -8z m-3555 -9 c29 -2 17 -3 -30 -3 -44 0 -70
2 -57 4 12 2 22 9 22 15 0 9 2 9 8 0 4 -6 30 -13 57 -16z m2264 8 c-5 -5 -96
-8 -223 -7 -118 2 -217 -1 -220 -6 -3 -5 5 -18 17 -28 20 -17 42 -19 226 -22
174 -2 208 -5 230 -19 14 -10 31 -16 38 -15 6 1 14 -2 18 -8 4 -6 -4 -10 -19
-10 -13 0 -31 -3 -39 -6 -11 -4 -16 2 -19 18 -3 26 22 23 -323 28 l-151 2 4
34 c4 28 0 35 -19 43 -15 6 71 8 233 7 165 0 254 -4 247 -11z m235 -1 c9 -25
7 -34 -8 -34 -19 0 -29 17 -22 35 7 20 22 19 30 -1z m439 -2 c-3 -7 -12 -11
-20 -8 -8 3 -21 6 -29 6 -8 0 -14 4 -14 9 0 5 15 9 34 8 24 -1 32 -5 29 -15z
m-626 2 c-3 -3 -12 -4 -19 -1 -8 3 -5 6 6 6 11 1 17 -2 13 -5z m776 -24 c7 0
6 -4 -3 -10 -11 -7 -17 -5 -21 8 -4 9 -4 22 0 27 3 6 7 2 9 -7 2 -10 9 -18 15
-18z m-2818 11 c6 -1 -2 -8 -18 -16 -23 -12 -32 -12 -59 -1 -26 11 -28 15 -12
18 16 4 52 3 89 -1z m-451 -33 c6 -5 1 -8 -11 -8 -13 0 -23 6 -23 13 0 20 14
31 19 15 2 -7 9 -16 15 -20z m3500 17 c3 -9 0 -15 -9 -15 -8 0 -15 7 -15 15 0
8 4 15 9 15 5 0 11 -7 15 -15z m1161 5 c-3 -5 -11 -10 -16 -10 -6 0 -7 5 -4
10 3 6 11 10 16 10 6 0 7 -4 4 -10z m-3722 -15 c26 0 47 -3 47 -6 0 -4 14 -9
32 -13 17 -3 40 -14 50 -23 17 -15 17 -17 0 -29 -38 -29 -252 -2 -252 32 0 10
-15 14 -54 14 -60 0 -73 -9 -54 -39 7 -11 9 -23 6 -27 -4 -3 -38 -6 -75 -5
-71 0 -183 35 -183 57 0 33 124 52 300 45 74 -3 156 -6 183 -6z m917 -10 c12
-31 27 -32 57 -3 27 26 32 6 7 -30 -27 -39 -65 -52 -112 -40 -23 6 -43 13 -44
17 -5 20 -4 61 1 61 4 0 13 -6 20 -12 10 -11 16 -9 28 10 20 29 31 28 43 -3z
m744 9 c28 -11 17 -24 -19 -24 -36 0 -48 15 -17 23 9 3 18 5 19 6 1 0 8 -2 17
-5z m479 -22 c14 -13 17 -13 18 -1 0 8 4 6 9 -6 13 -31 12 -32 -18 -31 -23 1
-28 5 -24 19 3 10 -4 25 -14 33 -11 9 -12 12 -4 8 8 -4 23 -14 33 -22z m485
21 c-10 -2 -26 -2 -35 0 -10 3 -2 5 17 5 19 0 27 -2 18 -5z m-3391 -33 c13 0
23 4 23 9 0 11 19 12 103 4 31 -3 57 -8 57 -13 0 -9 -78 -30 -111 -30 -24 0
-69 -38 -69 -59 0 -10 8 -12 33 -7 17 4 62 10 99 13 58 5 68 3 74 -11 7 -19
-26 -60 -66 -81 -39 -20 -145 -46 -194 -47 -24 0 -66 7 -93 16 -79 26 -146
111 -88 111 10 0 20 7 22 15 4 13 3 13 -6 0 -5 -8 -13 -11 -18 -7 -9 10 18 28
34 23 6 -3 14 2 17 9 3 8 24 18 46 21 22 4 43 11 46 15 3 5 16 9 29 9 19 0 23
4 18 18 -5 14 -3 15 8 5 7 -7 23 -13 36 -13z m1407 -64 c-2 -17 -5 -37 -6 -43
-1 -8 -16 -13 -38 -13 -20 0 -39 -3 -43 -6 -13 -14 7 -34 35 -34 17 0 27 -4
23 -10 -3 -5 -22 -10 -41 -10 -29 0 -34 3 -34 24 0 25 23 56 41 56 6 0 7 5 3
11 -4 8 -9 7 -14 -2 -6 -9 -12 -9 -24 4 -9 9 -12 18 -7 22 5 3 12 2 15 -3 2
-4 21 -9 40 -10 30 -2 36 1 36 18 0 19 -13 24 -52 21 -20 -2 -30 12 -22 32 4
11 15 14 40 10 25 -4 34 -2 35 8 0 8 5 1 9 -15 5 -16 7 -43 4 -60z m123 62
c-3 -8 -6 -5 -6 6 -1 11 2 17 5 13 3 -3 4 -12 1 -19z m1558 2 c3 -5 1 -10 -4
-10 -6 0 -11 5 -11 10 0 6 2 10 4 10 3 0 8 -4 11 -10z m516 -14 c-20 -22 -32
-24 -109 -26 -216 -5 -291 -5 -345 0 -32 3 -62 1 -67 -4 -7 -7 -10 -5 -10 6 0
9 6 18 13 20 12 5 171 3 192 -2 6 -1 12 -2 15 -1 3 1 72 4 154 6 86 2 153 8
159 14 22 22 20 10 -2 -13z m229 13 c0 -3 24 -4 54 -1 43 3 54 1 59 -12 6 -15
-2 -17 -73 -15 -58 2 -84 7 -94 18 -13 14 -11 16 20 16 19 0 34 -3 34 -6z
m-1070 -9 c0 -5 -5 -10 -11 -10 -5 0 -7 5 -4 10 3 6 8 10 11 10 2 0 4 -4 4
-10z m1375 0 c11 -6 55 -5 149 4 51 4 57 3 40 -8 -14 -9 -66 -13 -186 -14
-148 -1 -180 2 -164 19 6 6 149 5 161 -1z m-4381 -22 c-3 -5 -12 -4 -20 3 -19
16 -18 18 6 12 11 -3 17 -9 14 -15z m2886 12 c0 -5 -4 -10 -10 -10 -5 0 -10 5
-10 10 0 6 5 10 10 10 6 0 10 -4 10 -10z m69 -6 c-9 -8 -24 -11 -37 -7 -28 7
-15 17 23 20 23 1 25 -1 14 -13z m-2414 -35 c5 -5 -2 -9 -17 -9 -32 0 -85 26
-66 32 14 5 68 -10 83 -23z m1519 23 c3 -5 20 -7 38 -5 25 3 29 2 18 -6 -9 -7
-10 -11 -3 -11 6 0 14 3 16 8 7 10 263 5 259 -5 -1 -4 -82 -8 -180 -8 -179 -1
-212 -6 -193 -29 6 -7 9 -15 6 -18 -3 -3 50 -4 117 -4 68 1 139 -1 158 -5 19
-3 50 -1 68 3 26 7 32 13 27 28 -8 25 21 40 72 39 21 -1 29 -3 18 -6 -11 -3
-28 -12 -37 -20 -9 -8 -21 -12 -26 -9 -5 3 -8 -8 -6 -24 l4 -29 -199 3 c-110
2 -204 7 -209 10 -16 10 -10 47 13 72 22 24 31 28 39 16z m-1117 -35 c2 -3
-23 -5 -56 -6 -57 0 -60 1 -49 18 11 17 15 18 56 6 24 -8 46 -16 49 -18z m850
-11 c-13 -14 -16 -14 -21 -1 -3 8 -3 22 1 31 5 14 7 14 21 0 13 -13 13 -16 -1
-30z m2853 34 c0 -5 -7 -10 -15 -10 -8 0 -15 5 -15 10 0 6 7 10 15 10 8 0 15
-4 15 -10z m118 -7 c-10 -2 -26 -2 -35 0 -10 3 -2 5 17 5 19 0 27 -2 18 -5z
m-1860 -13 c56 -6 107 -18 130 -30 20 -10 35 -20 32 -20 -33 -8 -67 -11 -196
-19 -84 -5 -156 -11 -162 -15 -16 -9 -182 -15 -182 -6 0 5 8 14 18 19 15 9 15
12 2 21 -13 9 -13 11 0 20 8 5 21 8 28 5 6 -2 12 0 12 5 0 6 5 10 11 10 6 0 9
-7 6 -14 -4 -10 -1 -13 9 -9 7 3 14 11 14 19 0 12 30 17 145 22 22 1 82 -3
133 -8z m238 0 c32 0 44 -4 44 -15 0 -16 -12 -20 -23 -8 -4 3 -24 8 -45 10
-20 2 -41 9 -47 15 -7 8 -5 9 8 4 10 -3 39 -6 63 -6z m758 -22 c8 -38 -6 -57
-29 -38 -18 15 -20 41 -3 58 19 19 25 15 32 -20z m390 24 c13 -7 57 -9 61 -2
2 3 37 4 79 2 55 -3 74 -7 69 -15 -4 -7 0 -7 9 1 14 11 24 11 63 -2 25 -9 52
-16 60 -16 8 0 15 -4 15 -10 0 -5 -9 -10 -20 -10 -11 0 -20 5 -20 10 0 6 -5
10 -11 10 -5 0 -7 -4 -4 -10 3 -5 2 -10 -4 -10 -5 0 -16 -3 -25 -6 -9 -3 -16
-1 -16 6 0 6 5 8 12 4 6 -4 8 -3 4 4 -4 6 -40 11 -89 11 -241 -1 -328 2 -323
10 4 5 -10 5 -32 0 -55 -13 -68 -11 -68 9 0 17 11 19 116 19 63 0 119 -2 124
-5z m-3687 -21 c20 3 23 -2 9 -16 -11 -11 -21 -13 -33 -7 -22 11 -65 1 -70
-15 -5 -15 39 -27 67 -20 13 3 20 0 20 -10 0 -11 -10 -14 -42 -13 -24 2 -52 2
-63 1 -20 -2 -20 -2 -1 -16 11 -9 41 -15 68 -15 26 0 48 -3 48 -7 0 -10 -167
-10 -176 0 -4 4 5 7 20 7 15 0 25 4 21 10 -3 5 4 28 17 50 16 28 30 40 46 40
13 0 22 6 22 15 0 12 4 14 20 5 10 -6 23 -10 27 -9z m753 9 c18 -12 2 -12 -25
0 -13 6 -15 9 -5 9 8 0 22 -4 30 -9z m2380 -1 c0 18 67 13 74 -5 4 -9 5 -18 4
-19 -8 -7 -178 -9 -178 -2 0 5 -4 5 -10 2 -5 -3 -19 -1 -31 6 -15 8 -19 8 -15
0 5 -7 -3 -11 -19 -11 -15 0 -36 5 -47 11 -15 8 -19 8 -13 0 5 -9 -19 -11 -86
-8 -54 2 -94 8 -97 15 -2 7 55 10 188 10 105 0 194 3 197 6 4 3 12 1 20 -5 9
-9 13 -8 13 0z m264 -19 c-5 -4 -19 -11 -31 -15 -18 -5 -23 -2 -23 10 0 11 5
15 14 12 8 -3 20 1 27 10 9 11 14 12 17 3 2 -6 0 -15 -4 -20z m-3320 -14 c-10
-8 -21 -12 -24 -10 -5 6 21 24 34 24 6 0 1 -6 -10 -14z m1316 -17 c0 -10 -59
-9 -65 2 -4 5 -12 9 -18 9 -9 0 -9 -2 0 -8 7 -4 -18 -9 -54 -10 -37 -2 -69 -5
-72 -8 -3 -2 3 -12 12 -21 14 -14 55 -17 347 -19 182 -1 334 -5 337 -8 6 -6
-82 -7 -508 -8 -97 0 -183 -4 -190 -9 -23 -14 2 -28 53 -30 81 -4 77 -19 -4
-16 -71 2 -77 3 -73 22 3 11 7 39 9 62 2 23 7 46 10 51 3 5 26 6 53 1 33 -5
52 -3 61 5 9 9 24 10 57 2 25 -6 45 -13 45 -17z m527 15 c14 -13 14 -17 2 -30
-13 -12 -18 -12 -37 2 -25 17 -30 39 -7 30 8 -3 15 -1 15 4 0 14 9 12 27 -6z
m663 -4 c0 -5 -4 -10 -10 -10 -5 0 -10 5 -10 10 0 6 5 10 10 10 6 0 10 -4 10
-10z m-2465 -51 c0 -33 -3 -39 -18 -35 -9 2 -15 0 -11 -5 3 -5 -5 -9 -17 -9
-18 0 -19 2 -9 15 7 8 19 15 27 15 11 0 14 7 10 21 -6 23 2 53 12 44 3 -4 6
-25 6 -46z m3433 21 c79 -20 42 -53 -107 -94 -81 -23 -290 -28 -314 -8 -9 8
-22 12 -29 9 -14 -5 -64 17 -90 41 -23 20 -8 40 36 47 106 17 204 9 236 -20
24 -22 161 -9 167 16 5 17 28 28 48 23 6 -2 29 -8 53 -14z m130 7 c7 3 19 0
27 -7 10 -8 18 -8 34 2 17 10 25 10 41 0 11 -6 23 -12 27 -12 5 0 1 5 -7 10
-8 5 -10 10 -5 10 6 0 16 -4 24 -9 7 -5 28 -5 46 -1 30 7 33 6 23 -10 -10 -15
-24 -17 -122 -13 -94 3 -114 7 -131 24 l-20 20 25 -9 c14 -5 31 -7 38 -5z
m-3631 -19 c-3 -8 -6 -5 -6 6 -1 11 2 17 5 13 3 -3 4 -12 1 -19z m2683 14 c0
-4 16 -6 35 -4 20 2 35 0 35 -6 0 -15 -82 -10 -88 6 -2 6 1 12 7 12 6 0 11 -4
11 -8z m152 -13 c11 -6 18 -7 15 -2 -4 6 8 10 26 10 18 1 27 -1 20 -4 -20 -7
2 -57 35 -78 17 -11 31 -23 32 -26 0 -4 -48 -4 -107 -1 -60 3 -123 6 -141 6
-26 1 -34 6 -39 24 -8 32 0 36 41 22 41 -13 137 -17 154 -6 22 13 12 25 -25
31 -69 11 -83 15 -83 25 0 13 46 13 72 -1z m-2351 -21 c70 -21 73 -46 11 -88
-32 -21 -51 -25 -140 -28 -81 -3 -110 0 -138 13 -20 9 -33 19 -31 22 3 2 27 7
54 11 33 5 48 12 48 22 0 11 -10 14 -40 13 -48 -3 -85 4 -85 16 0 13 29 22 95
28 33 3 62 7 64 9 8 7 122 -5 162 -18z m2067 -15 c28 -15 52 -29 52 -33 0 -4
-14 -19 -32 -35 -33 -30 -109 -44 -213 -40 -115 5 -130 44 -17 45 27 0 33 4
30 18 -4 19 -36 20 -178 5 -83 -9 -184 7 -145 23 11 4 26 14 33 21 10 9 50 13
140 14 70 0 136 4 147 9 32 15 126 1 183 -27z m1448 24 c4 -4 -11 -6 -34 -5
-23 1 -39 4 -37 8 6 10 61 7 71 -3z m89 3 c-3 -5 -10 -10 -16 -10 -5 0 -9 5
-9 10 0 6 7 10 16 10 8 0 12 -4 9 -10z m-460 -38 c60 -10 244 -9 238 1 -4 7 0
8 13 2 22 -9 47 -13 87 -14 15 -1 27 -5 27 -10 0 -6 -30 -8 -72 -5 -40 3 -80
5 -88 5 -8 0 -74 -1 -147 0 -75 0 -134 -4 -137 -10 -9 -13 9 -22 45 -23 20 -1
26 -4 17 -9 -7 -4 -29 -6 -48 -5 -19 1 -45 -2 -57 -6 -26 -8 -53 -1 -53 14 0
6 14 8 30 6 19 -3 30 0 30 8 0 6 13 17 30 24 16 7 35 19 41 27 7 7 15 10 18 6
3 -4 15 -9 26 -11z m-3635 -2 c0 -5 -2 -10 -4 -10 -3 0 -8 5 -11 10 -3 6 -1
10 4 10 6 0 11 -4 11 -10z m126 -16 c-4 -9 -2 -13 5 -8 7 4 10 -1 7 -12 -3
-18 -16 -19 -208 -19 -208 0 -230 1 -230 15 0 9 327 6 356 -4 23 -7 59 18 49
35 -4 5 1 9 10 9 11 0 15 -5 11 -16z m1839 8 c6 -4 16 -15 24 -24 13 -17 9
-18 -60 -16 -43 1 -58 3 -35 5 27 3 40 10 43 24 6 20 12 23 28 11z m2145 -22
c0 -5 -7 -10 -15 -10 -8 0 -15 5 -15 10 0 6 7 10 15 10 8 0 15 -4 15 -10z
m-4423 -16 c2 -5 -18 -8 -44 -7 -69 2 -74 5 -23 13 52 8 63 7 67 -6z m1603 12
c0 -3 -4 -8 -10 -11 -5 -3 -10 -1 -10 4 0 6 5 11 10 11 6 0 10 -2 10 -4z m35
-6 c3 -6 -1 -7 -9 -4 -18 7 -21 14 -7 14 6 0 13 -4 16 -10z m135 2 c0 -4 -18
-6 -40 -4 -22 2 -40 6 -40 8 0 2 18 4 40 4 22 0 40 -3 40 -8z m77 2 c-3 -3
-12 -4 -19 -1 -8 3 -5 6 6 6 11 1 17 -2 13 -5z m188 -5 c16 0 17 -2 5 -9 -12
-7 -12 -14 -4 -27 9 -15 24 -17 100 -14 90 3 113 -4 39 -12 -22 -2 -56 -9 -75
-16 -34 -13 -36 -12 -80 28 -25 22 -52 41 -60 41 -24 0 -56 -26 -80 -65 -12
-19 -26 -35 -31 -35 -5 0 -4 9 3 20 11 17 10 22 -2 30 -12 8 -9 10 11 10 15 0
32 7 39 15 14 17 13 18 -12 31 -11 6 9 8 55 6 40 -1 81 -3 92 -3z m122 -3 c2
-2 -19 -4 -48 -4 -36 -1 -49 2 -39 8 14 9 78 6 87 -4z m-951 -10 c11 -8 47
-16 80 -17 70 -3 96 -8 89 -19 -3 -5 -19 -5 -35 0 -17 5 -62 8 -100 7 -67 -3
-69 -2 -68 20 3 27 7 28 34 9z m-93 -86 c-23 -23 -109 -32 -127 -15 -7 7 -21
14 -31 16 -11 2 -22 15 -25 29 -7 32 -50 42 -50 12 0 -15 -9 -21 -37 -24 -21
-3 -39 -4 -40 -3 -2 1 16 15 40 32 41 29 43 30 96 18 55 -13 81 -11 81 6 0 5
11 2 25 -7 21 -14 31 -15 50 -6 14 7 26 17 27 24 1 7 3 -5 5 -26 3 -29 -1 -44
-14 -56z m2969 78 c71 -2 77 -3 81 -24 3 -20 1 -22 -14 -14 -10 6 -40 10 -67
10 -27 0 -52 3 -56 8 -8 7 -13 8 -41 11 -8 0 -15 6 -15 12 0 6 8 8 18 5 9 -3
52 -7 94 -8z m-4258 -17 c9 -7 13 -17 10 -22 -3 -5 2 -6 10 -3 9 3 16 10 16
15 0 4 15 6 33 3 17 -2 58 -4 89 -5 50 -1 56 -3 44 -15 -8 -8 -17 -23 -21 -33
-7 -24 -31 -34 -72 -32 -21 2 -33 -2 -33 -10 0 -10 -3 -10 -12 -1 -7 7 -20 12
-29 12 -10 0 -19 11 -22 30 -4 19 -17 34 -36 44 -16 9 -32 19 -35 24 -8 13 41
7 58 -7z m4483 11 c9 -5 14 -49 17 -130 3 -67 8 -127 12 -133 4 -7 -38 -10
-134 -7 -122 3 -143 6 -161 22 -53 48 3 91 114 88 71 -2 139 20 132 43 -2 5
-26 17 -53 26 -41 14 -45 17 -24 20 16 3 25 11 26 24 1 11 2 25 3 32 1 6 11
14 24 16 12 2 24 5 27 5 3 1 11 -2 17 -6z m-1792 -12 c4 -6 -22 -9 -61 -7 -47
1 -69 -2 -72 -11 -4 -14 -58 -16 -67 -2 -4 6 6 7 24 4 23 -5 32 -2 37 9 4 12
21 16 70 16 35 0 66 -4 69 -9z m-2392 -6 c6 -6 84 -6 172 -1 17 1 58 -3 92 -9
45 -8 63 -8 66 0 3 8 8 8 18 0 8 -7 23 -14 34 -17 28 -7 -35 -9 -217 -8 -137
1 -157 0 -152 -14 7 -18 -5 -17 226 -19 102 0 189 -4 193 -8 4 -4 18 -3 31 2
13 5 39 7 56 3 l33 -7 -27 -10 c-17 -8 -113 -11 -270 -10 l-243 1 -6 33 c-4
17 -12 37 -18 43 -6 6 -11 15 -11 19 0 10 14 11 23 2z m1337 -5 c0 -5 -16 -9
-35 -9 -19 0 -35 4 -35 8 0 4 16 8 35 9 19 1 35 -3 35 -8z m40 1 c8 -5 11 -10
5 -10 -5 0 -17 5 -25 10 -8 5 -10 10 -5 10 6 0 17 -5 25 -10z m1595 -6 c44 -4
89 -7 100 -6 10 1 25 -4 32 -10 8 -6 16 -8 20 -4 3 3 0 6 -8 7 -8 1 -3 4 10 8
40 11 101 1 101 -17 0 -8 -3 -13 -6 -10 -3 4 -19 2 -35 -2 -17 -5 -31 -5 -34
1 -4 5 -1 9 6 9 7 0 9 3 6 6 -4 4 -12 2 -19 -3 -18 -14 -248 -15 -265 -2 -9 8
-13 8 -13 0 0 -6 -16 -11 -36 -11 -29 0 -34 3 -25 13 6 8 7 17 3 22 -4 4 4 2
17 -5 19 -10 26 -9 39 4 8 8 18 13 21 11 4 -2 42 -7 86 -11z m410 -17 c82 -6
75 -5 75 -16 0 -5 -20 -8 -45 -8 -25 0 -45 4 -45 8 0 4 -29 5 -65 3 -55 -3
-65 -1 -65 12 0 11 6 15 20 11 11 -3 23 -1 26 4 4 6 10 6 17 0 7 -5 44 -12 82
-14z m-1516 -13 c25 -31 27 -57 7 -73 -12 -10 -17 -8 -25 7 -6 11 -7 23 -3 27
4 3 -1 13 -12 20 -11 8 -16 21 -13 30 9 22 23 19 46 -11z m2007 8 c21 -12 19
-13 -51 -28 -64 -14 -54 -74 12 -74 26 0 26 0 14 -33 -7 -17 -5 -33 5 -52 17
-34 17 -35 -1 -35 -8 0 -12 6 -9 15 5 12 -7 13 -80 8 -86 -6 -176 9 -176 29 0
6 -7 7 -16 4 -20 -8 -47 12 -37 27 3 6 1 7 -5 3 -6 -3 -16 3 -23 16 -10 19 -8
25 17 47 16 15 49 32 74 40 25 7 68 21 95 31 54 20 148 21 181 2z m-370 -20
c-22 -5 -30 3 -21 18 5 8 11 7 22 -2 15 -12 14 -13 -1 -16z m74 24 c0 -2 -11
-6 -25 -8 -14 -3 -25 -1 -25 3 0 5 11 9 25 9 14 0 25 -2 25 -4z m-2370 -17 c0
-10 -111 -8 -135 2 -13 6 8 8 58 7 42 -1 77 -5 77 -9z m1560 -9 c0 -5 -46 -9
-102 -9 -117 -1 -125 9 -11 16 43 2 79 6 81 8 6 6 32 -6 32 -15z m-2800 -34
c0 -35 -12 -67 -23 -63 -17 5 -27 56 -16 84 8 21 12 23 24 13 8 -7 15 -22 15
-34z m1440 28 c0 -2 -19 -4 -42 -3 -35 1 -38 2 -18 8 23 7 60 4 60 -5z m150 2
c8 -2 -20 -4 -62 -5 -43 0 -78 3 -78 7 0 7 103 6 140 -2z m745 -30 c43 -23 56
-54 31 -75 -40 -34 -265 -61 -380 -47 -47 6 -55 10 -59 32 -3 16 0 24 10 24 7
0 19 11 25 25 7 16 19 25 33 25 15 0 25 8 28 21 3 12 10 18 17 14 6 -4 16 -2
23 3 32 27 209 13 272 -22z m91 31 c12 -12 -38 -13 -53 -1 -16 12 -14 13 16 9
18 -2 35 -6 37 -8z m39 3 c3 -6 -1 -7 -9 -4 -18 7 -21 14 -7 14 6 0 13 -4 16
-10z m73 2 c8 -6 2 -9 -17 -9 -17 0 -28 4 -25 9 7 10 25 10 42 0z m47 -2 c3
-5 1 -10 -4 -10 -6 0 -11 5 -11 10 0 6 2 10 4 10 3 0 8 -4 11 -10z m1447 -12
c2 -17 12 -25 38 -30 33 -6 33 -6 -5 -3 -75 8 -115 17 -109 26 3 6 15 7 27 3
19 -6 20 -5 8 10 -12 14 -10 16 12 16 19 0 26 -6 29 -22z m-2704 5 c-16 -2
-40 -2 -55 0 -16 2 -3 4 27 4 30 0 43 -2 28 -4z m-678 -17 c0 -2 -11 -6 -25
-8 -14 -3 -25 -1 -25 3 0 5 11 9 25 9 14 0 25 -2 25 -4z m2305 -8 c4 -3 19 -3
34 2 15 4 41 6 57 4 16 -3 80 -5 142 -5 85 -1 110 -4 103 -13 -13 -16 -70 -19
-87 -5 -10 8 -14 8 -14 0 0 -7 -17 -11 -42 -9 -24 1 -73 -2 -110 -6 -42 -5
-68 -4 -68 2 0 6 -7 12 -14 15 -10 4 -13 1 -10 -7 3 -9 -3 -13 -20 -13 -14 0
-24 2 -22 6 3 4 -4 7 -14 7 -10 0 -17 -3 -15 -6 8 -12 -357 -11 -371 1 -10 8
-14 8 -14 0 0 -19 -46 -12 -65 10 -19 20 -19 20 5 12 14 -5 46 -8 72 -7 27 1
46 -2 43 -6 -3 -5 8 -5 24 0 16 4 31 6 33 4 11 -10 240 -5 253 6 8 6 19 9 24
6 5 -4 12 -3 15 2 6 9 51 10 61 0z m462 -15 c5 -13 -75 -11 -81 2 -3 9 8 12
37 10 23 -1 43 -7 44 -12z m513 6 c0 -6 7 -9 15 -5 8 3 15 1 15 -4 0 -11 -15
-12 -47 -4 -28 8 -30 24 -3 24 11 0 20 -5 20 -11z m-3042 -16 c21 -10 43 -23
50 -30 18 -17 27 -16 48 4 25 25 64 44 77 36 5 -3 36 -5 67 -4 64 2 114 -25
103 -57 -19 -52 -42 -70 -105 -80 -72 -12 -61 -11 -310 -17 -115 -3 -189 -1
-193 5 -3 5 -8 27 -11 49 -4 35 -1 42 28 65 24 18 36 22 45 14 10 -8 13 -6 13
5 0 28 135 35 188 10z m482 6 c50 0 88 -4 85 -9 -9 -14 -173 -6 -187 9 -9 10
-10 12 -1 7 7 -4 53 -7 103 -7z m2120 -5 c0 -14 -3 -15 -17 -3 -10 7 -20 15
-22 16 -2 2 5 3 17 3 14 0 22 -6 22 -16z m-3610 -9 c0 -16 -35 -21 -45 -6 -4
8 9 15 38 20 4 0 7 -6 7 -14z m1750 5 c0 -5 -14 -8 -30 -6 -44 5 -46 13 -5 14
19 1 35 -3 35 -8z m153 -19 l16 -28 -38 7 c-80 14 -83 38 -6 49 6 0 18 -12 28
-28z m-1523 4 c206 -6 213 -8 90 -14 -58 -3 -122 -3 -143 0 -21 4 -40 2 -43
-3 -4 -6 -24 -7 -45 -4 -21 3 -40 2 -44 -4 -3 -5 -1 -10 4 -10 6 0 11 -5 11
-10 0 -6 -6 -10 -12 -9 -27 3 -38 -2 -38 -16 0 -10 -10 -15 -27 -15 l-27 0 27
28 c15 15 27 35 27 43 0 23 8 28 38 23 15 -2 97 -6 182 -9z m240 -11 c0 -2 -9
-4 -21 -4 -11 0 -18 4 -14 10 5 8 35 3 35 -6z m60 6 c0 -5 -12 -10 -27 -9
l-28 1 25 8 c14 4 26 8 28 9 1 1 2 -3 2 -9z m975 -10 c3 -5 -1 -10 -10 -10 -9
0 -13 5 -10 10 3 6 8 10 10 10 2 0 7 -4 10 -10z m1948 -20 c6 -24 4 -25 -31
-25 -20 0 -43 4 -50 9 -7 4 -19 3 -26 -4 -15 -12 -62 -5 -84 13 -10 8 -16 7
-21 -2 -4 -6 -18 -12 -29 -12 -12 1 -31 1 -42 2 -11 0 -20 5 -20 11 0 6 -8 4
-17 -5 -16 -13 -53 -15 -268 -14 -137 1 -256 6 -264 11 -10 6 -12 5 -7 -2 5
-8 -6 -10 -36 -7 -24 3 -71 5 -105 5 -48 -1 -62 2 -58 12 4 10 36 12 138 11
72 -2 170 -2 217 -2 133 1 165 -1 169 -13 2 -6 7 -5 12 3 7 11 58 14 258 14
137 0 249 2 249 5 -2 30 7 24 15 -10z m-2168 0 c3 -5 1 -10 -4 -10 -6 0 -11 5
-11 10 0 6 2 10 4 10 3 0 8 -4 11 -10z m-1443 -12 c-19 -19 -15 -24 41 -50 44
-20 67 -24 154 -23 57 0 103 -4 103 -9 0 -4 -60 -6 -132 -2 -222 10 -217 10
-206 24 6 7 20 10 32 7 18 -5 19 -5 4 5 -21 13 -20 60 1 60 12 0 12 -3 3 -12z
m1792 -3 c19 -14 18 -15 -16 -15 -54 0 -59 20 -8 29 3 0 14 -6 24 -14z m-1331
-2 c-7 -2 -21 -2 -30 0 -10 3 -4 5 12 5 17 0 24 -2 18 -5z m203 -6 c4 -4 -25
-6 -64 -6 -40 1 -72 4 -72 8 0 9 127 8 136 -2z m994 -17 c0 -5 -5 -10 -11 -10
-5 0 -7 5 -4 10 3 6 8 10 11 10 2 0 4 -4 4 -10z m-1130 -21 c50 -1 68 -4 55
-10 -11 -4 -60 -5 -110 -2 -49 3 -110 7 -135 8 -60 3 -63 7 -15 14 22 4 60 3
85 -2 25 -4 79 -8 120 -8z m970 13 c0 -9 -69 -6 -78 3 -3 3 13 5 36 5 23 0 42
-4 42 -8z m1223 -18 c120 -1 221 -4 224 -8 3 -3 -70 -7 -163 -7 -247 -2 -305
-1 -311 4 -9 10 8 27 20 20 7 -4 110 -8 230 -9z m966 -11 c3 -2 -25 -2 -61 -1
-36 2 -64 7 -61 11 3 5 20 7 38 5 19 -1 37 1 41 5 4 4 14 1 23 -5 9 -7 18 -14
20 -15z m-2992 3 c3 -2 2 -9 -1 -15 -8 -12 -56 -11 -56 1 0 4 -7 8 -16 8 -8 0
-13 4 -10 9 6 9 74 7 83 -3z m1757 3 c-3 -5 -31 -8 -62 -8 -48 1 -51 3 -22 8
53 9 90 9 84 0z m780 -1 c-3 -5 -67 -8 -142 -7 -75 0 -129 3 -120 7 24 10 267
9 262 0z m311 0 c3 -3 -39 -5 -94 -5 -55 1 -98 5 -95 9 5 8 180 5 189 -4z
m-1675 -15 c2 -2 -26 -3 -64 -2 -40 1 -62 5 -54 10 12 8 108 2 118 -8z m210 7
c11 -7 -3 -10 -46 -8 -34 2 -60 6 -57 11 6 11 86 8 103 -3z m-453 -6 c-3 -3
-12 -4 -19 -1 -8 3 -5 6 6 6 11 1 17 -2 13 -5z m90 0 c-3 -3 -12 -4 -19 -1 -8
3 -5 6 6 6 11 1 17 -2 13 -5z m580 0 c-3 -3 -12 -4 -19 -1 -8 3 -5 6 6 6 11 1
17 -2 13 -5z M1640 1559 c0 -5 5 -7 10 -4 6 3 10 8 10 11 0 2 -4 4 -10 4 -5 0
-10 -5 -10 -11z M2433 7294 c-3 -8 0 -25 6 -38 7 -12 11 -40 9 -61 l-3 -39
-60 3 c-33 1 -61 7 -63 12 -4 11 -29 12 -36 1 -2 -4 -7 -24 -11 -45 -8 -40 5
-49 34 -23 11 9 34 12 78 9 l61 -5 4 -55 c2 -44 0 -57 -14 -64 -28 -15 -21
-26 21 -33 63 -10 93 13 56 44 -16 13 -19 49 -9 88 6 19 13 22 58 22 29 0 57
-5 64 -12 28 -28 57 43 32 82 -8 12 -12 12 -32 -5 -18 -16 -35 -19 -75 -17
l-53 3 0 53 c0 28 5 57 11 63 18 18 1 33 -37 33 -22 0 -37 -6 -41 -16z M3165
6730 c-3 -5 1 -10 10 -10 9 0 13 5 10 10 -3 6 -8 10 -10 10 -2 0 -7 -4 -10
-10z M2305 6562 c-66 -3 -93 -17 -53 -27 26 -7 26 -7 30 -138 5 -160 1 -188
-24 -195 -10 -2 -17 -10 -15 -16 4 -11 166 -10 177 1 3 2 -2 10 -11 17 -28 20
-10 96 36 151 l38 47 24 -26 c13 -14 30 -26 38 -26 8 0 15 -5 15 -10 0 -6 27
-39 60 -73 51 -53 58 -64 44 -74 -25 -18 0 -24 83 -19 74 4 105 18 65 28 -17
5 -20 19 -26 125 -7 118 -2 187 16 210 12 14 -59 27 -102 18 -33 -7 -41 -25
-12 -25 16 0 19 -9 20 -63 1 -35 6 -84 11 -110 4 -26 6 -47 2 -47 -3 0 -44 42
-90 93 -66 73 -89 93 -105 89 -12 -2 -46 -33 -76 -68 -30 -35 -58 -63 -61 -64
-4 0 -7 43 -7 96 0 53 -4 99 -9 103 -4 3 -35 5 -68 3z m445 -66 c0 -3 -4 -8
-10 -11 -5 -3 -10 -1 -10 4 0 6 5 11 10 11 6 0 10 -2 10 -4z M1900 6462 c0
-11 85 -32 130 -32 28 0 40 13 23 23 -18 11 -153 18 -153 9z M2521 6093 c-9
-20 -14 -24 -21 -14 -11 19 -44 5 -36 -15 3 -9 6 -22 6 -30 0 -19 29 -18 36 1
5 11 12 7 31 -15 20 -24 33 -30 65 -30 21 0 48 4 58 10 13 7 21 6 30 -5 21
-26 41 0 28 36 -9 27 -48 43 -48 19 0 -5 -17 -14 -37 -19 -33 -9 -40 -8 -60
11 -18 17 -22 29 -18 50 9 37 -17 38 -34 1z M2847 6093 c-11 -10 -8 -51 4 -59
14 -8 26 5 34 39 6 22 4 27 -12 27 -11 0 -23 -3 -26 -7z M2305 6080 c3 -5 15
-10 26 -10 10 0 19 -4 19 -10 0 -11 -59 -2 -77 13 -15 11 -43 2 -43 -13 0 -7
13 -25 30 -41 25 -26 35 -29 64 -24 20 4 36 2 40 -4 12 -19 74 -13 86 8 15 30
13 33 -20 26 -24 -5 -29 -4 -24 8 4 11 -2 16 -18 19 -15 2 -22 9 -20 21 2 13
-4 17 -33 17 -22 0 -34 -4 -30 -10z M2773 6043 c-27 -18 -30 -33 -8 -33 19 0
65 29 65 41 0 14 -33 10 -57 -8z M1974 5722 c-5 -4 -18 -24 -27 -44 -21 -44
-15 -79 20 -125 40 -54 113 -43 113 17 0 46 -11 67 -43 81 -22 9 -33 22 -35
39 -4 31 -14 41 -28 32z m49 -125 c19 -7 23 -27 5 -27 -14 0 -58 40 -58 53 0
6 8 3 18 -5 9 -8 25 -18 35 -21z M1968 5353 c-26 -28 -27 -29 -13 -86 7 -32
19 -65 25 -73 7 -7 9 -14 5 -14 -20 0 20 -28 56 -39 30 -9 44 -9 54 -1 41 34
17 135 -40 170 -19 12 -35 30 -37 42 -4 32 -21 32 -50 1z m84 -117 c20 -21 24
-46 7 -46 -5 0 -8 4 -5 9 3 5 -2 8 -11 7 -15 -1 -51 52 -53 78 0 10 33 -16 62
-48z M2811 5374 c0 -11 3 -14 6 -6 3 7 2 16 -1 19 -3 4 -6 -2 -5 -13z M2465
5550 c-8 -13 3 -30 20 -30 14 0 27 24 18 34 -10 9 -31 7 -38 -4z M2520 5425
c0 -8 4 -15 9 -15 5 0 11 7 15 15 3 9 0 15 -9 15 -8 0 -15 -7 -15 -15z M2525
5379 c-10 -15 3 -25 16 -12 7 7 7 13 1 17 -6 3 -14 1 -17 -5z M2527 5324 c-8
-8 1 -24 14 -24 5 0 9 7 9 15 0 15 -12 20 -23 9z M2520 5244 c0 -9 5 -14 12
-12 18 6 21 28 4 28 -9 0 -16 -7 -16 -16z M2525 5191 c-6 -11 9 -23 19 -14 9
9 7 23 -3 23 -6 0 -12 -4 -16 -9z M2517 5114 c-15 -8 -27 -21 -27 -29 0 -15
26 -45 40 -45 10 0 50 49 50 61 0 20 -36 27 -63 13z M2529 5028 c-6 -16 -6
-78 0 -78 16 0 33 28 21 35 -6 4 -8 15 -5 26 4 11 2 19 -4 19 -6 0 -11 -1 -12
-2z M2526 4913 c-4 -9 -3 -20 2 -25 11 -11 36 17 27 32 -9 15 -22 12 -29 -7z
M2511 4846 c-7 -8 -11 -27 -9 -43 2 -22 8 -28 28 -28 28 0 57 42 47 68 -8 21
-50 22 -66 3z M2530 4680 c-11 -7 -12 -12 -3 -21 13 -13 33 -4 33 17 0 16 -9
18 -30 4z M2263 4574 c-9 -25 17 -35 76 -29 61 6 71 10 71 31 0 22 -138 20
-147 -2z M2209 4519 c-21 -13 -1 -39 30 -39 16 0 33 -5 36 -10 4 -7 -16 -10
-60 -8 -56 3 -69 0 -79 -15 -17 -27 2 -33 103 -36 86 -2 90 -1 115 26 28 30
32 43 14 43 -6 0 -4 7 5 18 10 10 17 22 17 25 0 9 -167 5 -181 -4z m136 -49
c-3 -5 -16 -10 -28 -9 -20 1 -20 2 3 9 14 4 26 8 28 9 2 1 0 -3 -3 -9z M2532
4478 c3 -7 19 -14 37 -16 24 -3 32 0 29 10 -3 7 -19 14 -37 16 -24 3 -32 0
-29 -10z M2537 4434 c-13 -14 6 -24 43 -24 41 0 61 14 34 24 -21 8 -69 8 -77
0z M2494 4298 c-9 -15 21 -19 124 -16 62 2 101 7 100 13 -4 12 -217 15 -224 3z
M3512 3797 c-37 -38 -40 -64 -11 -101 23 -30 49 -33 84 -10 31 20 33 61 5 97
-11 14 -20 30 -20 36 0 21 -26 11 -58 -22z m48 -75 c0 -26 -25 -5 -28 24 -2
28 -2 28 13 10 8 -11 15 -26 15 -34z M2723 3933 c-7 -3 -13 -11 -13 -19 0 -18
51 -16 57 2 4 13 -25 23 -44 17z M2804 3915 c-18 -15 -18 -15 10 -13 16 2 31
9 34 16 5 17 -20 15 -44 -3z M2986 3085 c-37 -31 -40 -37 -39 -85 0 -42 5 -57
26 -77 31 -32 95 -37 125 -10 26 23 18 51 -21 82 -27 21 -31 30 -32 71 0 26
-4 49 -10 50 -5 2 -28 -12 -49 -31z m63 -136 c1 -4 -10 -6 -24 -6 -25 0 -37
17 -12 17 6 0 4 5 -5 11 -10 5 -18 15 -18 20 0 11 58 -31 59 -42z M2961 2768
c-25 -34 -30 -49 -25 -73 9 -39 31 -73 54 -80 41 -13 120 22 120 54 0 18 -45
64 -72 73 -6 2 -12 17 -13 34 0 45 -28 42 -64 -8z m60 -69 c36 -25 38 -49 4
-49 -14 0 -25 1 -25 3 0 1 -4 17 -9 35 -11 38 -9 39 30 11z M2996 1890 c-46
-21 -56 -35 -56 -76 0 -27 7 -34 49 -57 57 -32 64 -32 91 -10 28 24 25 47 -11
88 -18 20 -29 41 -25 50 8 22 -5 24 -48 5z m29 -70 c22 -23 26 -33 17 -42 -17
-17 -62 16 -62 47 0 33 10 31 45 -5z M2566 3589 c-18 -27 -10 -52 15 -44 13 4
19 2 19 -8 0 -8 9 -22 20 -32 11 -10 20 -23 20 -29 -1 -6 -14 5 -31 24 -22 26
-32 32 -38 22 -25 -40 28 -103 82 -99 56 4 56 86 0 122 -14 9 -23 25 -23 40 0
20 -5 25 -24 25 -14 0 -31 -9 -40 -21z M2257 3322 c-10 -10 -17 -24 -17 -30 0
-7 -5 -21 -12 -31 -22 -36 30 -111 77 -111 9 0 25 -10 36 -22 16 -20 18 -20
19 -5 0 9 4 17 9 17 14 0 21 40 11 66 -5 13 -27 32 -50 44 -40 21 -44 26 -40
68 2 27 -11 28 -33 4z m51 -101 c17 -7 32 -17 32 -23 0 -6 -8 -7 -17 -3 -10 4
-26 9 -35 12 -9 3 -19 12 -22 20 -3 8 -3 13 1 11 5 -3 23 -10 41 -17z M2009
2261 c-33 -33 -35 -50 -14 -91 10 -20 27 -32 53 -39 58 -17 78 -14 90 15 10
22 8 32 -14 70 -14 24 -32 44 -40 44 -8 0 -14 4 -14 9 0 23 -34 19 -61 -8z
m65 -52 c14 -11 26 -27 26 -35 0 -17 -41 -19 -58 -2 -14 14 -16 58 -3 58 4 0
20 -9 35 -21z M2016 1990 c-58 -64 -49 -100 41 -171 27 -22 67 -14 83 16 14
27 2 53 -47 106 -14 15 -24 35 -23 45 6 56 -6 57 -54 4z m58 -90 c33 -50 34
-65 4 -49 -31 16 -47 39 -48 67 0 33 14 27 44 -18z M2295 1930 c-26 -27 -27
-32 -16 -54 7 -13 24 -29 37 -35 13 -6 24 -15 24 -21 0 -5 17 -17 37 -25 29
-12 43 -13 61 -5 21 9 23 15 17 48 -8 44 -21 62 -45 62 -19 0 -50 30 -50 48 0
22 -36 12 -65 -18z m109 -87 c11 -28 0 -24 -43 15 -23 21 -39 41 -35 45 8 8
70 -39 78 -60z M2825 2849 c-4 -6 -5 -12 -2 -15 2 -3 7 2 10 11 7 17 1 20 -8
4z M4533 3643 c0 -16 2 -22 4 -15 3 6 8 12 13 12 13 0 44 -53 42 -73 0 -13 5
-17 21 -15 30 4 28 36 -7 81 -36 46 -74 51 -73 10z M4276 3523 c-7 -18 9 -33
37 -33 20 0 23 20 5 38 -17 17 -35 15 -42 -5z M4597 3492 c-19 -21 -22 -38 -7
-47 16 -10 40 15 40 41 0 29 -11 31 -33 6z M4160 3399 c0 -16 42 -48 63 -49
24 0 21 26 -5 44 -26 18 -58 21 -58 5z M3397 1549 c7 -7 15 -10 18 -7 3 3 -2
9 -12 12 -14 6 -15 5 -6 -5z M3210 3160 c0 -5 5 -10 10 -10 6 0 10 5 10 10 0
6 -4 10 -10 10 -5 0 -10 -4 -10 -10z M1840 1101 c0 -6 4 -13 10 -16 6 -3 7 1
4 9 -7 18 -14 21 -14 7z M3527 3074 c-10 -10 4 -56 25 -83 34 -44 80 -71 120
-71 48 0 52 25 6 35 -51 11 -78 33 -99 81 -18 41 -36 54 -52 38z M1267 1529
c7 -7 15 -10 18 -7 3 3 -2 9 -12 12 -14 6 -15 5 -6 -5z M1456 1513 c-4 -4 -42
-6 -84 -5 -78 3 -117 -8 -91 -23 15 -10 104 -18 209 -19 69 -1 75 1 75 19 0
18 -5 20 -54 16 -37 -2 -51 0 -47 8 8 12 3 15 -8 4z M1365 1440 c2 -8 4 -19 4
-23 1 -4 8 -7 16 -5 8 2 28 -6 45 -17 21 -14 28 -26 24 -40 -5 -19 -5 -19 7
-1 10 16 9 21 -5 31 -23 18 -21 20 30 23 33 2 52 -2 65 -14 11 -10 19 -12 19
-6 0 7 -5 12 -11 12 -8 0 -7 5 1 15 22 26 0 33 -101 37 -82 3 -96 1 -94 -12z
M1394 1382 c0 -11 8 -17 22 -17 24 0 22 10 -4 24 -14 7 -18 5 -18 -7z M1515
1390 c3 -5 8 -10 11 -10 2 0 4 5 4 10 0 6 -5 10 -11 10 -5 0 -7 -4 -4 -10z
M1560 1356 c0 -2 7 -7 16 -10 8 -3 12 -2 9 4 -6 10 -25 14 -25 6z M3645 1500
c-3 -6 1 -7 9 -4 18 7 21 14 7 14 -6 0 -13 -4 -16 -10z M3685 1500 c-3 -5 -2
-10 4 -10 5 0 13 5 16 10 3 6 2 10 -4 10 -5 0 -13 -4 -16 -10z M1020 1389 c0
-6 -9 -8 -22 -3 -21 6 -21 6 -5 -10 15 -16 19 -16 32 -2 17 17 19 26 5 26 -5
0 -10 -5 -10 -11z M710 1240 c0 -5 5 -10 11 -10 5 0 7 5 4 10 -3 6 -8 10 -11
10 -2 0 -4 -4 -4 -10z M220 1060 c0 -5 5 -10 11 -10 5 0 7 5 4 10 -3 6 -8 10
-11 10 -2 0 -4 -4 -4 -10z M3496 1013 c-6 -14 -5 -15 5 -6 7 7 10 15 7 18 -3
3 -9 -2 -12 -12z M3673 1013 c-7 -2 -13 -10 -13 -16 0 -8 3 -8 11 0 6 6 18 9
27 6 10 -4 13 -2 8 5 -8 13 -13 14 -33 5z M3570 1000 c8 -5 20 -10 25 -10 6 0
3 5 -5 10 -8 5 -19 10 -25 10 -5 0 -3 -5 5 -10z M341 911 c-20 -13 5 -25 46
-23 18 2 33 -1 33 -6 0 -16 61 0 71 19 9 18 5 19 -63 19 -40 0 -79 -4 -87 -9z
M4770 760 c0 -5 5 -10 10 -10 6 0 10 5 10 10 0 6 -4 10 -10 10 -5 0 -10 -4
-10 -10z M4163 848 c-6 -7 -14 -20 -18 -28 -8 -13 -6 -13 7 -2 9 7 18 9 20 5
3 -4 4 -3 2 3 -1 6 3 17 9 23 8 8 8 11 0 11 -6 0 -15 -6 -20 -12z M2750 861
c0 -12 5 -21 10 -21 6 0 10 6 10 14 0 8 -4 18 -10 21 -5 3 -10 -3 -10 -14z
M1245 800 c3 -5 8 -10 11 -10 2 0 4 5 4 10 0 6 -5 10 -11 10 -5 0 -7 -4 -4
-10z M2838 8408 c9 -9 15 -9 24 0 9 9 7 12 -12 12 -19 0 -21 -3 -12 -12z
M2625 8384 c-43 -23 -65 -28 -160 -32 -102 -4 -114 -2 -169 22 -32 14 -62 23
-67 20 -20 -12 -8 -53 23 -79 39 -33 71 -123 62 -172 -5 -28 -4 -31 14 -26 11
3 22 16 25 30 6 30 -16 115 -37 148 -20 30 -20 36 -1 30 8 -3 23 -7 32 -10 12
-4 13 -9 6 -16 -12 -12 8 -71 33 -96 12 -13 14 -11 15 9 2 29 2 27 -6 69 l-7
37 94 4 c68 3 105 10 136 26 35 17 48 19 67 10 21 -9 27 -7 44 13 11 13 20 27
21 32 0 17 -79 5 -125 -19z M2577 8288 c-29 -45 -33 -93 -7 -93 9 0 17 16 22
45 4 25 12 46 18 48 6 2 15 12 20 23 9 15 7 19 -7 19 -11 0 -30 -18 -46 -42z
M2513 8302 c-10 -7 -17 -32 -14 -59 2 -26 30 -12 36 18 7 33 -3 53 -22 41z
M2425 8290 c-4 -6 -1 -17 5 -25 6 -8 9 -19 5 -25 -3 -5 1 -10 9 -10 17 0 32
42 21 59 -8 14 -32 14 -40 1z M2535 8120 c-10 -16 14 -50 30 -44 18 7 19 26 3
42 -15 15 -25 15 -33 2z M2351 8071 c-24 -33 -26 -41 -10 -41 15 0 49 39 49
57 0 22 -17 15 -39 -16z M2250 8080 c0 -5 5 -10 11 -10 5 0 7 5 4 10 -3 6 -8
10 -11 10 -2 0 -4 -4 -4 -10z M2268 8024 c-9 -8 12 -54 24 -54 13 0 5 53 -8
57 -5 2 -13 1 -16 -3z M2308 7969 c-20 -11 -24 -29 -8 -29 6 0 20 9 32 20 24
22 7 28 -24 9z M2613 7973 c-26 -9 -12 -25 17 -21 26 4 29 2 24 -15 -4 -14 -2
-18 7 -15 8 3 14 15 14 28 0 17 -6 23 -25 25 -14 1 -31 0 -37 -2z M2246 7899
c-16 -12 -25 -28 -22 -36 3 -8 -3 -17 -17 -22 -12 -5 -31 -19 -42 -31 -17 -18
-17 -23 -5 -30 25 -14 35 -11 35 13 0 19 4 22 38 19 27 -2 37 1 37 12 0 8 -4
18 -10 21 -18 11 -10 35 15 47 14 6 25 15 25 20 0 15 -27 8 -54 -13z M2680
7870 c-13 -8 -12 -10 3 -10 11 0 21 -9 24 -20 6 -24 31 -27 40 -4 10 27 -39
52 -67 34z M2995 7820 c-3 -5 1 -10 9 -10 8 0 18 5 21 10 3 6 -1 10 -9 10 -8
0 -18 -4 -21 -10z M2036 7791 c-20 -21 -24 -31 -15 -36 7 -5 17 -1 23 7 8 11
21 14 41 10 29 -5 29 -5 14 18 -22 34 -31 34 -63 1z M2672 7791 c-16 -10 -5
-41 14 -41 15 0 20 35 6 44 -4 2 -14 1 -20 -3z M4633 6500 c-116 -34 -172 -66
-244 -140 -84 -87 -111 -138 -113 -219 -1 -17 -8 -25 -24 -27 -43 -7 -146 -46
-177 -66 -52 -36 -102 -93 -129 -147 -29 -56 -43 -129 -31 -158 4 -10 9 -43
10 -73 7 -111 83 -208 212 -271 53 -25 75 -30 145 -31 46 0 101 2 123 6 55 9
145 46 173 70 36 32 10 39 -44 12 -70 -35 -136 -49 -229 -47 -65 1 -90 7 -142
31 -175 83 -226 235 -156 460 15 50 32 90 37 90 5 0 31 14 57 31 27 17 65 32
86 34 20 1 39 8 41 14 2 6 23 11 46 11 49 0 103 -31 124 -70 25 -48 -6 -130
-49 -130 -22 0 -50 27 -44 43 3 7 1 18 -4 26 -8 12 -12 12 -25 2 -30 -25 -15
-74 28 -98 21 -11 91 0 113 19 18 15 53 96 53 123 0 38 -42 88 -89 106 -24 8
-48 23 -53 33 -22 40 21 137 96 214 57 60 110 90 206 119 86 26 159 28 248 5
73 -19 73 -19 70 1 -4 27 -41 37 -158 41 -71 3 -111 0 -157 -14z M4693 6453
c-67 -9 -30 -23 62 -24 52 -1 101 -2 108 -3 6 -1 12 6 12 14 0 12 -15 15 -75
16 -41 1 -90 -1 -107 -3z M4537 6404 c-15 -8 -25 -19 -22 -23 2 -5 -8 -11 -24
-14 -41 -9 -98 -62 -127 -120 -19 -37 -23 -52 -14 -61 8 -8 16 -5 30 14 11 14
20 32 20 40 0 8 11 27 23 41 31 37 126 109 143 109 8 0 14 4 14 9 0 18 -15 19
-43 5z M4798 6409 c-15 -9 -10 -11 67 -27 28 -6 58 -14 68 -17 12 -5 17 -2 17
9 0 8 -8 19 -17 24 -25 13 -119 21 -135 11z M4610 6359 c-81 -37 -93 -44 -98
-56 -6 -21 21 -14 68 17 25 16 54 30 66 30 11 0 29 7 40 15 18 14 18 14 -6 15
-14 0 -45 -9 -70 -21z M4743 6338 c-18 -6 -33 -15 -33 -20 0 -5 5 -6 10 -3 15
9 181 9 208 1 16 -6 22 -3 22 8 0 11 -9 16 -29 16 -15 0 -55 2 -87 5 -32 2
-74 -1 -91 -7z M4588 6283 c-21 -8 -38 -20 -38 -25 0 -6 8 -7 18 -3 9 4 29 12
45 17 15 5 27 14 27 19 0 12 -8 11 -52 -8z M4445 6250 c-15 -16 -16 -23 -6
-33 9 -9 16 -7 31 13 11 14 20 28 20 33 0 14 -27 7 -45 -13z M4247 6014 c-29
-16 -28 -41 2 -28 9 4 29 7 46 8 20 1 31 7 33 19 4 22 -41 23 -81 1z M4172
5960 c-23 -22 -29 -40 -12 -40 17 0 70 42 64 52 -9 14 -29 9 -52 -12z M4102
5945 c-23 -17 -72 -93 -72 -113 0 -25 40 -12 51 15 6 16 21 42 35 60 37 49 30
68 -14 38z M1383 5838 c-18 -23 -23 -65 -12 -99 15 -43 57 -89 82 -89 10 0 27
-5 37 -10 16 -8 22 -6 36 15 32 49 -4 163 -48 151 -26 -6 -58 10 -58 29 0 18
-24 20 -37 3z m32 -75 c0 -9 7 -18 15 -20 13 -4 13 -3 0 6 -22 15 -9 20 30 12
30 -6 35 -11 38 -37 3 -26 0 -30 -24 -32 -37 -3 -74 33 -74 71 0 17 3 27 7 23
4 -4 8 -15 8 -23z M4112 5827 c-19 -22 -27 -98 -12 -107 26 -16 37 1 37 60 1
60 -5 71 -25 47z M4020 5715 c-10 -12 -10 -24 -2 -54 15 -47 67 -121 87 -121
22 0 19 13 -15 67 -16 26 -30 57 -30 69 0 28 -10 54 -20 54 -4 0 -13 -7 -20
-15z M4130 5631 c0 -19 35 -39 48 -26 9 9 -13 40 -32 43 -10 2 -16 -3 -16 -17z
M3540 5632 c0 -6 -16 -25 -35 -43 -61 -58 -42 -137 37 -153 38 -8 63 6 76 43
8 23 6 36 -13 69 -13 23 -25 52 -27 64 -3 22 -38 40 -38 20z m9 -99 c9 -17 10
-17 16 0 4 9 11 17 16 17 6 0 4 -10 -3 -22 -7 -13 -11 -31 -9 -40 1 -10 -3
-18 -8 -18 -6 0 -11 4 -11 9 0 5 -9 11 -20 14 -18 5 -21 20 -11 55 3 9 22 -1
30 -15z M4587 5614 c-64 -75 -180 -100 -282 -61 -61 23 -77 25 -81 12 -4 -10
33 -32 94 -55 50 -19 154 -6 211 26 55 32 101 73 101 91 0 21 -18 15 -43 -13z
M1218 5528 c-44 -36 -40 -136 8 -175 35 -27 104 -36 122 -15 28 36 1 94 -54
117 -19 8 -34 20 -35 27 -1 7 -2 22 -3 32 -1 24 -17 30 -38 14z m62 -116 c39
-20 49 -39 23 -44 -34 -8 -71 12 -82 44 -17 49 -14 67 7 40 9 -12 33 -30 52
-40z M4190 5500 c-11 -7 -11 -11 -1 -24 32 -39 241 -48 295 -12 35 22 21 45
-15 25 -33 -18 -173 -16 -225 4 -24 9 -47 12 -54 7z M4615 5422 c-33 -7 -138
-59 -169 -85 -20 -16 -27 -29 -23 -40 9 -23 32 -11 55 28 13 21 30 34 48 38
16 3 51 10 78 16 144 32 276 -67 276 -204 -1 -90 -46 -158 -127 -190 l-42 -17
-30 31 c-39 40 -48 74 -27 106 19 29 31 31 52 10 15 -15 44 -10 44 7 0 17 -33
37 -58 38 -33 0 -78 -28 -91 -58 -27 -57 24 -141 99 -163 44 -13 69 -4 138 50
52 42 108 130 98 156 -2 7 0 17 5 22 10 10 -19 96 -50 146 -12 19 -40 47 -63
62 -24 16 -37 30 -31 32 6 2 21 -4 31 -14 11 -10 30 -28 43 -39 13 -12 30 -29
37 -38 20 -25 35 -19 28 12 -4 15 -24 41 -44 59 -34 29 -43 31 -112 32 -41 0
-91 2 -110 3 -19 2 -44 2 -55 0z M3664 5397 c-3 -8 0 -26 6 -41 5 -15 8 -32 4
-37 -3 -5 4 -25 16 -45 21 -33 25 -35 68 -32 35 2 49 9 64 29 30 40 9 74 -68
110 -68 32 -82 35 -90 16z m91 -67 c-3 -6 1 -7 9 -4 9 3 16 2 16 -4 0 -6 3
-17 6 -26 9 -22 -39 -21 -57 1 -12 15 -12 16 4 10 15 -6 16 -4 7 13 -9 16 -8
20 5 20 9 0 13 -4 10 -10z M4590 5344 c-53 -19 -85 -44 -56 -44 9 0 26 5 38
11 37 20 127 20 164 0 38 -20 74 -61 74 -83 0 -20 9 -28 26 -21 39 15 -9 102
-71 129 -54 24 -121 27 -175 8z M4593 5294 c-36 -18 -69 -51 -60 -61 4 -3 24
6 45 21 21 14 51 26 68 26 34 0 97 -47 116 -88 18 -38 44 -36 41 3 -1 22 -15
42 -48 73 -40 35 -53 42 -88 42 -23 0 -56 -8 -74 -16z M4461 5244 c-25 -32
-28 -84 -6 -84 11 0 15 -11 15 -43 0 -44 13 -67 38 -67 11 0 12 13 7 68 -4 37
-13 74 -20 82 -8 9 -10 22 -5 35 18 44 2 49 -29 9z M4392 5248 c-6 -7 -13 -30
-17 -50 -12 -64 30 -198 61 -198 20 0 21 20 2 74 -10 28 -18 74 -17 101 1 74
0 85 -10 85 -5 0 -13 -6 -19 -12z M4020 5130 c0 -25 23 -72 43 -89 36 -29 147
-31 147 -2 0 5 -23 11 -50 14 -64 8 -67 10 -87 58 -17 43 -53 56 -53 19z
M3573 5107 c-65 -74 -65 -128 -1 -167 46 -28 60 -25 86 15 30 46 28 68 -9 104
-19 20 -29 39 -27 52 5 35 -17 33 -49 -4z m57 -108 c0 -25 -25 -43 -37 -27
-17 22 -24 50 -17 70 6 19 7 19 30 -3 13 -12 24 -30 24 -40z M4090 5117 c0
-23 35 -47 68 -47 42 0 40 13 -4 39 -40 24 -64 27 -64 8z M1406 5113 c-13 -13
-36 -74 -36 -95 0 -31 26 -73 57 -88 15 -8 35 -23 43 -32 22 -26 39 -9 46 45
6 41 4 51 -16 72 -13 13 -26 22 -30 20 -12 -7 -28 18 -33 50 -4 29 -17 42 -31
28z m74 -135 c0 -18 -32 -20 -50 -3 -34 30 -25 45 15 27 19 -9 35 -20 35 -24z
M4776 5086 c-34 -46 -15 -58 24 -16 17 18 30 36 30 41 0 21 -29 7 -54 -25z
M4942 5087 c-3 -38 -28 -97 -54 -124 -21 -23 -21 -23 -1 -23 11 0 30 11 42 24
19 20 22 32 18 87 -2 35 -4 51 -5 36z M3460 5049 c0 -5 5 -7 10 -4 6 3 10 8
10 11 0 2 -4 4 -10 4 -5 0 -10 -5 -10 -11z M4307 4953 c-18 -18 19 -143 42
-143 21 0 22 24 5 86 -17 59 -30 75 -47 57z M4205 4924 c-11 -11 -15 -30 -13
-58 2 -33 7 -41 23 -41 17 0 20 8 21 58 2 60 -4 68 -31 41z M4760 4820 c-13
-8 -12 -12 6 -24 80 -56 114 -93 171 -182 10 -16 12 -13 12 23 1 40 -4 48 -72
118 -72 74 -88 84 -117 65z M4251 4766 c-11 -12 -8 -22 17 -58 37 -53 80 -94
89 -84 9 8 -29 80 -66 125 -24 29 -29 31 -40 17z M4434 4393 c38 -121 -11
-339 -90 -392 -22 -15 -31 -28 -25 -34 28 -28 107 50 141 139 15 41 23 87 26
150 4 112 -4 148 -35 152 -18 3 -22 0 -17 -15z M4937 4092 c-5 -17 -24 -55
-44 -83 -19 -28 -32 -53 -29 -56 10 -10 34 6 61 40 21 29 26 44 23 84 -3 47
-3 47 -11 15z M1314 4022 c-17 -10 -44 -80 -44 -112 0 -29 27 -60 53 -60 9 0
20 -8 26 -17 8 -15 13 -15 36 -5 23 11 26 17 23 54 -3 37 -7 44 -43 63 -36 18
-40 24 -37 53 4 34 3 35 -14 24z m57 -134 c7 -13 3 -13 -26 -4 -19 6 -36 18
-38 27 -4 15 -1 16 26 4 16 -7 33 -19 38 -27z M4925 3900 c-23 -26 -107 -56
-192 -71 -108 -17 -113 -19 -113 -30 0 -12 27 -10 180 16 19 3 61 17 93 32 45
21 57 31 57 50 0 28 -2 28 -25 3z M4038 3889 c-38 -21 -13 -79 40 -92 31 -7
42 21 17 39 -10 8 -20 21 -21 30 -4 25 -17 34 -36 23z M3915 3753 c-11 -2 -27
-7 -35 -10 -8 -3 -20 -5 -27 -4 -34 5 -132 -96 -133 -137 0 -7 -7 -20 -15 -29
-11 -11 -15 -30 -13 -62 3 -41 6 -46 27 -46 22 0 24 4 25 58 1 32 6 61 12 65
6 4 21 26 34 49 27 49 106 94 155 88 31 -4 52 14 32 27 -13 8 -29 8 -62 1z
M3653 3592 c-52 -33 -57 -232 -5 -232 16 0 18 10 18 93 0 50 4 104 8 120 8 27
1 33 -21 19z M4778 3503 c-21 -5 -32 -33 -18 -47 8 -8 9 -6 5 7 -5 11 -2 17 8
17 8 0 20 7 27 15 13 15 9 16 -22 8z M4920 3489 c-25 -19 -69 -27 -100 -18 -9
2 -15 -2 -15 -11 0 -25 64 -34 108 -16 28 13 37 22 37 41 0 29 2 29 -30 4z
M1318 3393 c-9 -2 -20 -13 -23 -24 -7 -21 -1 -30 63 -93 38 -38 40 -46 10 -39
-26 6 -58 31 -58 45 0 5 -8 18 -19 29 -18 20 -18 19 -14 -18 5 -54 33 -87 79
-94 29 -5 42 -3 51 10 21 27 14 56 -23 96 -28 31 -35 45 -30 67 6 28 1 31 -36
21z M3724 3385 c-3 -8 -3 -18 0 -23 3 -6 -3 -12 -14 -15 -11 -3 -20 -13 -20
-22 0 -24 113 -132 158 -151 48 -21 134 -22 197 -4 77 23 87 32 79 64 -6 24
-10 27 -33 21 -14 -3 -41 -9 -58 -12 -57 -9 -38 -26 20 -19 63 9 54 -4 -21
-28 -77 -24 -139 -10 -214 49 -32 25 -62 55 -69 67 -12 22 -11 22 8 6 11 -10
25 -18 31 -18 15 0 16 36 1 45 -5 4 -14 18 -19 31 -10 27 -38 32 -46 9z M3813
3294 c-11 -29 55 -61 72 -35 5 9 -44 51 -59 51 -4 0 -9 -7 -13 -16z M4565
3250 c-3 -5 -1 -10 4 -10 6 0 11 5 11 10 0 6 -2 10 -4 10 -3 0 -8 -4 -11 -10z
M4756 3231 c-4 -5 -2 -12 4 -16 5 -3 10 -21 10 -38 0 -18 4 -38 9 -46 13 -21
39 -6 44 26 l4 28 2 -26 c1 -31 24 -54 45 -46 11 5 13 13 6 34 -17 58 -21 63
-40 53 -26 -14 -28 -13 -32 13 -3 23 -41 37 -52 18z M1148 3159 c-10 -5 -18
-19 -18 -29 0 -10 -5 -22 -11 -26 -16 -9 -4 -81 17 -105 22 -24 83 -42 99 -29
7 6 15 7 19 3 11 -11 26 19 26 53 0 35 -18 54 -64 69 -26 9 -31 15 -31 43 0
33 -8 38 -37 21z m65 -119 c10 0 20 -7 24 -15 8 -23 -2 -28 -19 -11 -8 8 -23
14 -32 13 -11 -1 -23 11 -32 33 l-15 35 29 -28 c15 -15 36 -27 45 -27z M4129
3089 c-12 -8 -12 -11 1 -19 22 -14 73 -13 68 2 -6 16 -52 28 -69 17z M3971
3071 c-23 -15 -3 -85 26 -89 20 -3 21 0 17 35 -10 67 -14 72 -43 54z M4826
3034 c-9 -8 -16 -24 -16 -35 0 -77 -122 -216 -251 -285 -28 -15 -60 -19 -179
-20 -136 -2 -182 -12 -130 -29 33 -10 177 -12 240 -3 72 10 108 29 211 110 95
75 141 144 154 231 8 50 -1 59 -29 31z M4704 2908 c-4 -12 -17 -31 -30 -41
-26 -20 -32 -47 -10 -47 23 0 86 69 86 95 0 24 -38 18 -46 -7z M4013 2904 c-7
-19 27 -68 51 -72 22 -5 20 16 -4 56 -22 35 -37 41 -47 16z M4782 2800 c-80
-87 -166 -149 -215 -157 -18 -2 -50 -9 -71 -15 -22 -5 -81 -8 -132 -6 -51 1
-95 0 -98 -3 -4 -3 1 -12 10 -20 21 -17 173 -18 255 -2 122 25 285 142 340
246 34 65 -8 45 -89 -43z M4100 2805 c0 -23 73 -55 141 -62 50 -5 61 -4 57 8
-5 16 -38 27 -88 28 -19 1 -46 10 -60 21 -30 23 -50 25 -50 5z M4583 2791
c-27 -23 -132 -45 -176 -38 -19 3 -40 1 -48 -4 -48 -31 119 -41 180 -11 20 10
49 25 65 33 16 8 31 20 34 27 6 18 -30 14 -55 -7z M1380 2736 c-26 -69 -4
-113 61 -122 24 -3 48 -10 53 -15 15 -14 46 21 46 50 0 35 -26 71 -51 71 -10
0 -19 5 -19 12 0 9 -3 9 -12 0 -17 -17 -24 -15 -47 10 l-20 21 -11 -27z m120
-76 c0 -9 -72 -2 -82 8 -4 4 13 5 37 4 25 -2 45 -7 45 -12z M3657 2753 c-2 -5
-1 -35 3 -67 5 -47 12 -64 34 -82 15 -13 39 -24 53 -24 15 0 34 -7 43 -15 23
-21 57 -8 63 23 10 52 -41 122 -87 122 -8 0 -28 11 -44 25 -30 25 -57 32 -65
18z m136 -104 c15 -16 25 -34 23 -38 -8 -12 -85 4 -102 20 -8 9 -11 24 -7 37
5 19 10 22 32 17 14 -3 39 -19 54 -36z M3593 2371 c-52 -29 -60 -39 -58 -72 3
-45 34 -72 86 -71 43 1 69 19 69 48 0 10 -60 116 -64 113 -1 0 -16 -8 -33 -18z
m31 -56 c25 -38 21 -70 -8 -71 -34 -2 -57 55 -34 84 15 18 24 15 42 -13z
M3490 2116 c0 -9 7 -12 21 -9 16 4 17 8 7 14 -19 13 -28 11 -28 -5z M3565
2042 c-23 -17 -45 -72 -39 -97 8 -32 59 -75 88 -75 36 0 84 20 90 37 8 19 -30
63 -54 63 -21 0 -62 43 -58 60 4 15 -13 23 -27 12z m52 -92 c7 0 19 -7 27 -16
12 -12 13 -20 6 -35 -9 -16 -14 -17 -33 -8 -32 18 -56 51 -57 78 l0 24 23 -21
c13 -12 28 -22 34 -22z M1333 1887 c-41 -48 -34 -114 15 -137 15 -7 35 -17 46
-22 14 -7 24 -4 42 13 13 12 24 31 24 41 0 20 -68 87 -89 88 -12 0 -12 3 -3
12 7 7 12 16 12 20 0 16 -27 7 -47 -15z m82 -116 c-11 -19 -59 5 -67 34 -12
46 3 51 39 11 19 -20 31 -41 28 -45z M3837 1882 c-11 -2 -16 -10 -13 -17 3 -8
-4 -25 -15 -39 -23 -30 -14 -62 27 -95 28 -22 104 -30 104 -11 0 6 -13 10 -30
10 -17 0 -38 9 -50 22 -32 34 -24 83 9 54 9 -8 27 -16 40 -18 18 -2 27 -12 33
-35 6 -24 14 -33 29 -33 17 0 20 5 17 38 -3 32 -7 38 -36 48 -18 6 -48 26 -65
45 -20 22 -39 34 -50 31z M125 1700 c-4 -6 1 -7 11 -3 13 5 15 2 9 -18 -4 -17
-4 -20 3 -10 9 12 14 12 36 -3 14 -9 26 -12 26 -6 0 5 5 10 11 10 6 0 9 -6 6
-12 -3 -8 5 -14 21 -15 l25 -1 -28 26 c-19 17 -30 22 -33 14 -5 -17 -15 -15
-42 8 -26 22 -36 25 -45 10z M146 1629 c6 -11 31 -12 37 -1 3 4 -6 8 -19 8
-13 1 -21 -2 -18 -7z M50 1095 c0 -8 7 -15 15 -15 9 0 12 6 9 15 -4 8 -10 15
-15 15 -5 0 -9 -7 -9 -15z M3844 520 c-80 -32 -95 -97 -36 -153 31 -28 118
-52 160 -42 40 8 54 -12 50 -72 l-3 -48 -59 -3 -58 -3 -49 53 c-41 45 -51 51
-66 42 -10 -6 -18 -20 -19 -30 -2 -39 -16 -64 -42 -76 -48 -23 -34 -43 28 -41
241 7 324 12 330 23 4 6 11 11 16 9 5 -1 11 6 13 17 2 10 12 25 23 32 15 11
18 24 16 69 -3 52 -5 57 -39 76 -33 19 -43 20 -97 11 -96 -16 -147 10 -154 76
l-3 35 55 0 c54 0 55 0 58 -32 2 -17 10 -34 19 -37 21 -8 53 21 53 49 0 11 5
26 12 33 17 17 11 19 -77 26 -66 5 -89 2 -131 -14z M493 523 c-25 -5 -31 -19
-11 -25 9 -3 8 -13 -4 -39 -9 -19 -19 -45 -23 -58 -4 -12 -18 -39 -31 -58 -13
-20 -24 -42 -24 -50 0 -9 -13 -35 -30 -60 -16 -24 -30 -48 -30 -53 0 -5 -9
-15 -20 -23 -11 -8 -17 -17 -13 -20 8 -9 76 -9 97 -1 21 8 21 22 0 26 -13 2
-10 11 15 45 17 23 36 57 44 75 8 18 20 38 28 45 17 14 85 21 95 10 4 -4 8
-50 9 -102 1 -53 5 -99 9 -102 9 -9 107 -3 125 7 11 6 10 10 -7 19 -20 11 -21
18 -21 159 0 112 4 152 15 170 8 12 12 27 9 32 -6 9 -184 11 -232 3z m97 -83
c0 -43 -3 -50 -19 -50 -11 0 -27 -3 -36 -6 -13 -5 -10 5 12 49 15 31 31 56 36
56 4 1 7 -21 7 -49z M917 510 c-99 -38 -127 -77 -127 -179 0 -74 29 -125 89
-159 46 -26 152 -30 214 -8 47 17 109 64 104 79 -6 20 -32 19 -55 -2 -54 -46
-130 -52 -167 -11 -10 11 -23 20 -30 20 -22 0 -45 37 -45 73 0 25 10 48 33 78
39 52 57 60 57 25 0 -22 5 -26 28 -26 34 0 43 7 70 52 l23 36 -30 21 c-36 26
-97 26 -164 1z M3111 522 c-18 -6 -13 -38 8 -53 20 -15 25 -50 22 -170 -1 -55
-1 -56 -39 -68 -93 -31 -130 7 -134 139 -3 69 -1 76 20 85 24 11 29 34 10 53
-13 13 -126 16 -165 6 -31 -8 -29 -30 2 -38 25 -6 25 -9 24 -89 -1 -69 3 -93
27 -151 26 -63 33 -71 76 -91 69 -32 118 -26 171 21 55 49 66 80 66 195 1 73
5 100 16 109 15 13 21 49 8 51 -27 3 -103 4 -112 1z M3351 521 c-34 -9 -37
-29 -7 -41 25 -9 25 -12 28 -112 2 -57 0 -130 -5 -162 -4 -33 -5 -61 -3 -63
10 -10 146 -7 157 4 14 14 3 33 -19 33 -14 0 -17 11 -18 68 l-1 67 46 2 c25 1
67 12 92 24 47 21 47 22 54 81 6 53 5 62 -16 84 -22 23 -27 24 -153 23 -72 -1
-142 -4 -155 -8z m213 -51 c21 -8 25 -14 21 -42 -5 -40 -30 -60 -70 -56 -27 3
-31 7 -36 48 -4 25 -5 48 -2 53 6 10 57 9 87 -3z M1210 505 c-10 -12 -11 -18
-3 -23 7 -5 12 -42 13 -92 3 -174 1 -188 -21 -209 -14 -13 -19 -26 -15 -37 6
-15 17 -16 83 -10 42 3 99 6 127 6 44 0 56 5 89 35 21 19 35 40 32 45 -11 17
-42 11 -72 -14 -34 -28 -117 -41 -137 -20 -12 11 -14 49 -7 132 1 6 12 12 26
12 18 0 25 -5 25 -20 0 -11 7 -23 15 -26 26 -10 42 13 41 58 -1 50 -26 63 -57
29 -33 -35 -50 -17 -45 48 l4 56 56 2 c47 1 56 -1 61 -18 10 -32 40 -19 43 19
l3 32 -68 1 c-37 0 -93 2 -124 5 -43 4 -59 1 -69 -11z M2559 508 c-100 -25
-146 -70 -161 -161 -11 -71 9 -121 68 -167 25 -19 50 -34 56 -32 6 2 15 -3 19
-10 9 -15 133 -15 152 0 7 5 28 15 47 22 41 16 80 48 80 67 0 19 -16 16 -60
-13 -41 -27 -111 -41 -152 -30 -13 3 -40 21 -60 40 -30 28 -38 42 -38 71 0 48
31 106 74 139 39 29 49 23 44 -24 -3 -22 1 -25 30 -25 26 -1 37 6 57 35 41 59
34 77 -32 86 -69 10 -89 10 -124 2z M2016 421 c-16 -3 -38 -18 -49 -33 -19
-26 -19 -29 -4 -70 22 -56 22 -55 -15 -50 -26 3 -39 -3 -62 -27 l-29 -30 20
-33 c17 -30 24 -33 70 -36 63 -4 87 20 72 71 -5 18 -9 33 -9 34 0 1 7 0 15 -3
8 -3 24 -26 35 -50 22 -44 21 -93 -2 -121 -8 -10 -2 -13 25 -13 45 0 60 24 55
86 -3 36 0 43 13 39 22 -7 51 27 43 51 -20 60 -50 104 -72 104 -27 0 -37 -21
-23 -49 7 -13 8 -22 1 -26 -5 -3 -10 -2 -10 4 0 5 -9 13 -20 16 -11 3 -20 12
-20 19 0 8 -7 19 -15 26 -8 7 -15 20 -15 29 1 14 2 14 13 0 32 -41 74 -20 56
28 -10 28 -37 41 -73 34z m-49 -211 c9 -13 9 -21 2 -25 -18 -12 -38 3 -32 24
7 26 15 26 30 1z M4303 243 c-37 -7 -48 -29 -29 -58 19 -29 25 -30 71 -11 38
16 44 36 19 60 -16 16 -21 17 -61 9z"/>
</g>
</svg>
