<?xml version="1.0" standalone="no"?>
<!DOCTYPE svg PUBLIC "-//W3C//DTD SVG 20010904//EN"
 "http://www.w3.org/TR/2001/REC-SVG-20010904/DTD/svg10.dtd">
<svg version="1.0" xmlns="http://www.w3.org/2000/svg"
 width="500.000000pt" height="878.000000pt" viewBox="0 0 500.000000 878.000000"
 preserveAspectRatio="xMidYMid meet">
<metadata>
Created by potrace 1.16, written by Peter Selinger 2001-2019
</metadata>
<g transform="translate(0.000000,878.000000) scale(0.100000,-0.100000)"
fill="#000000" stroke="none">
<path d="M2479 8663 c-1 -38 -2 -72 -4 -78 -1 -5 -3 -20 -3 -32 -2 -19 -9 -22
-49 -25 -49 -3 -67 -21 -36 -35 10 -4 113 -6 228 -3 178 4 210 7 210 20 0 11
-13 16 -47 18 -52 3 -49 -3 -53 92 -5 121 -1 110 -42 110 l-38 0 0 -100 0
-100 -47 0 -48 0 0 100 0 100 -35 0 -35 0 -1 -67z M1586 8355 c-3 -9 -18 -15
-36 -15 -17 0 -40 -5 -50 -10 -10 -6 -43 -12 -72 -15 -74 -7 -120 -15 -143
-25 -11 -5 -32 -11 -47 -14 -15 -3 -33 -13 -42 -21 -8 -8 -17 -15 -19 -15 -3
0 -27 -15 -54 -33 -35 -24 -63 -34 -93 -35 -24 -1 -51 -9 -60 -17 -9 -8 -21
-15 -26 -15 -5 0 -36 -17 -68 -39 -49 -32 -66 -38 -96 -34 -39 6 -61 -10 -118
-86 -13 -18 -29 -28 -37 -25 -21 8 -73 -51 -107 -123 -16 -35 -34 -63 -38 -63
-10 0 -30 -54 -36 -92 -2 -14 -15 -38 -29 -52 -14 -14 -25 -35 -25 -48 0 -13
-6 -35 -14 -50 -8 -14 -11 -30 -7 -35 3 -4 4 -7 2 -5 -8 4 -71 -62 -71 -75 0
-7 -9 -27 -20 -45 -11 -18 -20 -45 -20 -60 0 -58 84 -41 186 39 28 22 48 30
63 26 11 -3 28 0 36 7 9 8 19 9 32 2 13 -8 35 -1 93 30 41 22 82 47 91 54 8 8
32 14 53 14 20 0 56 9 79 21 23 11 67 22 97 24 30 2 94 15 141 29 47 14 96 22
108 19 32 -8 4 -25 -30 -18 -35 8 -80 -10 -73 -29 9 -23 149 -10 165 15 3 5
13 7 22 3 13 -5 14 -10 7 -25 -6 -10 -17 -16 -25 -13 -18 7 -19 -5 -2 -26 33
-41 254 -22 310 28 16 14 19 14 33 -6 8 -12 24 -22 34 -22 10 0 21 -8 24 -18
4 -10 22 -33 41 -52 34 -33 38 -34 114 -35 48 0 84 5 93 12 12 11 17 9 28 -11
7 -14 10 -31 7 -39 -8 -22 62 -31 83 -12 23 21 30 9 18 -27 -8 -21 -23 -35
-55 -49 -45 -19 -50 -39 -10 -39 13 0 33 7 45 16 22 15 24 14 67 -30 36 -38
50 -46 79 -46 19 0 38 -5 41 -11 4 -5 18 -14 31 -19 13 -5 24 -16 24 -24 0
-16 58 -38 92 -36 41 4 53 0 85 -28 17 -15 39 -33 50 -40 13 -9 14 -14 6 -18
-19 -8 -16 -60 7 -104 15 -29 20 -59 20 -118 0 -72 -2 -79 -20 -78 -10 1 -19
-3 -19 -9 0 -5 9 -10 19 -9 17 0 20 -6 20 -38 0 -26 -4 -38 -14 -38 -37 0
-226 171 -226 205 0 3 -12 22 -26 41 -29 38 -29 38 12 24 37 -13 83 0 101 27
12 18 12 23 -2 36 -8 9 -15 20 -15 25 0 33 -132 88 -186 77 -43 -8 -74 -37
-74 -70 0 -47 72 -225 92 -225 4 0 18 -16 31 -35 30 -44 116 -110 181 -140
l49 -22 -48 -24 c-27 -13 -67 -46 -89 -73 l-41 -48 1 -92 c1 -89 12 -131 46
-168 7 -8 23 -32 34 -54 15 -27 36 -46 67 -61 25 -12 48 -27 52 -33 3 -6 -3
-25 -14 -44 -12 -18 -21 -47 -21 -64 l0 -31 -57 5 c-32 3 -76 10 -98 16 -42
11 -256 14 -339 4 -28 -4 -69 -13 -93 -21 -24 -8 -54 -15 -66 -15 -31 0 -87
-53 -87 -83 0 -15 9 -28 23 -36 26 -14 54 -69 73 -146 7 -27 29 -97 49 -154
27 -76 37 -122 37 -167 0 -35 6 -71 13 -81 11 -15 7 -21 -34 -47 -40 -26 -54
-30 -109 -28 -44 2 -69 -2 -87 -14 -34 -22 -48 -9 -87 76 -16 36 -38 83 -48
105 -10 22 -28 66 -40 98 -12 31 -38 76 -56 100 -19 23 -34 45 -34 49 0 7 -46
78 -138 215 -40 60 -91 98 -144 107 -35 6 -38 10 -38 40 0 40 21 60 55 53 37
-7 65 20 70 66 2 21 10 46 19 56 9 10 16 25 16 34 0 11 8 17 23 17 35 0 62 23
53 46 -4 10 -11 40 -16 66 -8 39 -6 53 12 90 12 23 23 63 24 88 4 66 15 102
37 121 25 19 17 49 -13 49 -29 0 -25 12 11 33 25 14 29 20 20 31 -14 17 -83
15 -105 -3 -13 -11 -15 -9 -13 16 2 24 -2 28 -25 31 -15 2 -36 -2 -47 -7 -11
-7 -22 -7 -25 -2 -3 5 -15 7 -25 4 -10 -3 -30 2 -42 10 -33 20 -268 19 -293
-2 -9 -8 -19 -11 -22 -8 -4 3 -29 -3 -57 -14 -60 -24 -152 -109 -167 -155 -6
-18 -17 -38 -25 -44 -8 -6 -11 -19 -8 -28 6 -15 5 -15 -10 -3 -23 18 -40 3
-57 -49 -12 -35 -11 -42 3 -58 15 -16 15 -20 2 -33 -8 -8 -16 -25 -17 -39 -3
-23 0 -25 39 -24 l42 1 -24 -23 c-32 -30 -32 -53 1 -79 24 -19 25 -23 13 -43
-12 -19 -10 -24 16 -52 19 -20 39 -30 57 -30 25 0 27 -2 18 -19 -5 -11 -10
-28 -10 -39 0 -26 -26 -46 -80 -61 -71 -21 -161 -122 -159 -181 0 -19 -2 -78
-5 -130 -4 -52 -9 -176 -12 -275 -3 -99 -12 -227 -19 -285 -7 -58 -12 -119
-10 -137 16 -119 9 -541 -10 -709 -4 -32 -8 -189 -10 -349 -2 -159 -6 -384 -9
-500 -10 -376 -10 -475 -2 -848 l9 -367 -44 0 c-27 0 -61 -9 -89 -24 -25 -13
-70 -26 -100 -29 -30 -4 -56 -6 -57 -7 -7 -1 -2 -40 5 -40 46 1 149 24 179 39
21 11 52 21 68 23 28 3 30 0 33 -31 2 -19 -1 -44 -7 -55 -6 -12 -12 -34 -14
-51 -4 -32 -12 -34 -121 -20 -65 8 -56 18 11 12 56 -4 63 -3 69 15 3 11 4 21
2 23 -3 3 -162 7 -210 6 -11 -1 -18 -9 -18 -21 0 -17 7 -20 43 -21 l42 -2 -40
-6 c-25 -4 -41 -12 -43 -22 -3 -15 63 -24 245 -33 20 -1 21 -5 16 -42 -4 -34
-1 -45 18 -63 13 -12 30 -19 40 -16 14 5 17 -4 21 -52 3 -32 3 -64 0 -71 -3
-10 -42 -12 -173 -10 -168 3 -169 3 -169 -19 0 -22 3 -22 158 -25 86 -2 182 0
212 3 61 6 103 -11 98 -40 -3 -14 -32 -16 -236 -19 l-232 -2 0 -23 0 -22 234
1 234 2 7 -59 c4 -32 13 -63 21 -70 16 -13 19 -49 4 -49 -5 0 -38 -14 -74 -31
-72 -35 -97 -71 -71 -106 8 -10 15 -26 15 -35 0 -35 28 -48 101 -48 38 0 69
-4 69 -9 0 -20 59 -30 123 -21 77 11 115 25 143 51 21 20 21 20 56 -1 25 -14
50 -20 84 -19 37 2 64 -6 112 -29 57 -28 73 -32 165 -34 56 -1 137 2 180 7 70
7 80 11 88 32 11 30 0 54 -37 78 -34 22 -21 31 49 34 64 2 150 26 166 45 10
11 7 17 -11 30 -19 13 -20 18 -9 25 11 7 13 27 7 99 -4 50 -3 92 1 95 4 2 494
6 1088 8 l1079 4 -3 -54 c-3 -61 -33 -115 -85 -154 -36 -28 -139 -77 -161 -77
-9 0 -34 -9 -58 -19 -23 -11 -54 -22 -69 -25 -34 -8 -112 -67 -116 -89 -6 -28
41 -64 98 -76 29 -6 99 -14 155 -17 103 -5 238 15 410 61 33 8 74 17 90 20 41
5 88 24 97 38 4 7 5 28 2 48 l-6 35 89 23 c48 13 93 24 98 25 6 2 17 6 25 9
43 16 110 30 150 31 74 3 77 5 109 37 37 37 41 82 11 131 -35 57 -33 58 110
58 104 0 130 3 130 14 0 20 -30 25 -160 27 -118 1 -140 8 -140 41 0 18 8 19
133 17 175 -1 167 -2 167 21 0 19 -7 20 -152 20 l-153 1 -18 38 c-9 20 -17 57
-17 80 0 23 -12 97 -27 164 -34 156 -34 190 -2 223 l25 25 115 -16 c63 -9 123
-20 134 -24 19 -8 69 -30 88 -39 5 -2 7 9 5 24 -2 23 -10 31 -35 39 -36 10
-45 35 -14 35 45 0 73 106 31 117 -11 3 -20 11 -20 18 0 7 -9 24 -20 38 -11
14 -20 32 -20 39 0 22 -42 40 -86 36 -31 -2 -39 -7 -39 -22 0 -13 -9 -20 -25
-23 -62 -9 -93 -60 -72 -116 6 -17 9 -34 6 -39 -3 -5 0 -15 6 -23 11 -13 7
-15 -22 -15 -35 0 -36 1 -41 46 -2 25 -11 50 -20 57 -15 12 -36 57 -53 112 -5
17 -21 36 -36 43 -15 7 -44 31 -65 54 -21 23 -66 70 -100 105 -54 54 -99 111
-124 157 -29 52 -39 78 -39 98 0 13 -4 28 -10 34 -6 6 -5 24 1 49 5 22 11 83
14 135 6 125 13 160 30 160 7 0 20 3 28 6 8 3 22 -3 31 -12 38 -37 122 -5 113
44 -4 22 -4 22 15 5 18 -16 21 -16 61 5 25 13 48 35 55 52 8 18 18 27 27 24
19 -8 120 61 151 101 22 29 24 36 12 55 -11 18 -11 23 4 34 23 17 23 37 0 78
-22 38 -100 256 -112 308 -4 19 -14 55 -23 80 -17 52 -44 143 -62 215 -22 87
-55 167 -99 240 -23 38 -50 86 -58 105 -9 19 -28 46 -41 58 -28 26 -32 67 -12
115 10 25 24 36 62 50 47 17 49 19 99 125 29 59 55 127 59 152 12 80 48 220
56 220 5 0 20 25 34 55 14 30 40 66 57 80 18 15 28 31 24 40 -3 9 1 15 10 15
24 0 14 171 -15 270 -12 41 -27 93 -34 115 -8 30 -39 67 -124 153 -62 61 -117
112 -123 112 -5 0 -10 6 -10 13 0 16 -74 77 -94 77 -8 0 -18 5 -21 10 -3 6
-19 10 -34 10 -28 0 -61 26 -61 48 0 7 -3 12 -7 12 -8 0 -33 47 -33 62 0 4 12
3 26 -2 14 -6 32 -10 40 -10 20 0 30 30 13 41 -12 8 -11 12 4 23 22 17 22 26
0 26 -15 0 -10 14 5 16 17 2 42 17 42 25 0 4 -16 11 -35 15 -19 3 -35 11 -35
16 0 6 7 7 16 4 18 -7 48 19 39 34 -4 6 -11 8 -16 5 -13 -9 -11 9 3 23 14 14
12 80 -4 99 -6 7 -20 13 -32 13 -13 0 -28 12 -38 30 -9 17 -24 30 -31 30 -8 0
-24 20 -36 45 -23 48 -61 77 -166 127 -93 43 -226 42 -318 -2 -22 -11 -46 -20
-51 -20 -6 0 -22 -9 -35 -19 -17 -13 -35 -17 -56 -14 -38 6 -129 -36 -146 -68
-6 -12 -9 -36 -6 -53 3 -19 -1 -39 -9 -51 -35 -48 -1 -97 68 -99 42 -1 43 -2
46 -36 2 -19 7 -39 12 -45 8 -10 19 -76 24 -149 4 -44 14 -56 50 -60 23 -2 33
-14 61 -69 47 -96 51 -100 104 -94 l45 5 -25 -19 c-13 -10 -41 -26 -61 -35
-21 -9 -40 -25 -43 -34 -3 -11 -20 -20 -44 -24 -57 -9 -161 -115 -161 -164 0
-26 3 -26 -51 -6 -24 9 -89 20 -144 25 -55 5 -113 11 -130 13 -49 6 -216 -14
-272 -33 l-53 -18 0 39 c0 44 -22 93 -54 120 -14 12 -17 20 -10 25 35 25 92
71 114 94 23 24 33 40 63 106 5 12 7 35 5 52 -3 17 -1 31 4 31 15 0 8 39 -15
92 -22 50 -103 138 -127 138 -25 0 -6 17 38 32 78 29 202 117 254 182 103 129
83 286 -37 286 -72 0 -168 -61 -158 -101 11 -42 86 -64 134 -39 15 9 19 7 19
-7 -1 -65 -119 -208 -204 -247 -101 -46 -94 -50 -98 58 -3 104 10 190 30 192
6 1 17 2 22 3 6 0 10 19 10 41 0 44 -2 42 136 108 33 17 78 47 98 68 32 33 45
39 84 41 40 2 52 7 80 37 18 20 32 47 32 60 0 14 14 40 33 60 18 19 42 51 52
71 14 25 24 33 35 29 28 -13 115 -20 150 -12 50 9 214 70 221 81 4 5 29 10 55
12 67 3 116 15 135 31 12 11 23 12 43 5 30 -12 56 -5 56 15 0 8 4 14 9 14 5 0
7 -10 3 -22 -4 -17 -2 -20 12 -15 10 4 30 10 44 14 15 3 30 11 34 17 5 8 13 7
28 -1 11 -7 36 -13 57 -13 20 0 52 6 71 13 29 10 36 10 40 -2 7 -21 103 -61
150 -61 30 0 47 6 59 20 14 16 30 20 81 20 55 0 65 3 69 19 4 17 13 19 57 17
28 -1 60 -7 71 -13 35 -18 92 -22 111 -8 16 11 23 9 50 -11 37 -28 38 -29 58
-8 24 24 18 162 -7 147 -6 -4 -8 2 -5 15 4 12 2 20 -3 16 -5 -3 -9 -1 -9 4 0
5 -15 25 -32 45 -50 55 -58 65 -58 74 0 14 -95 100 -118 107 -12 4 -22 12 -22
18 0 6 -7 5 -17 -3 -11 -9 -14 -10 -9 -2 7 12 -12 36 -89 113 -16 17 -61 51
-98 76 -52 34 -75 44 -100 42 -26 -2 -32 1 -31 15 2 19 -49 50 -104 62 -18 4
-46 18 -63 32 -33 28 -92 45 -126 37 -23 -6 -162 20 -191 35 -11 6 -24 6 -32
1 -8 -5 -27 -3 -48 5 -18 8 -36 14 -40 13 -4 -1 -20 5 -37 13 -34 17 -163 18
-174 1 -3 -6 -18 -13 -33 -17 -14 -4 -39 -20 -54 -37 -29 -29 -29 -30 -27
-148 2 -69 -2 -122 -7 -125 -6 -3 -10 -13 -10 -22 0 -27 -82 -142 -116 -162
-31 -18 -33 -19 -39 -3 -3 10 -27 37 -54 61 l-48 43 13 56 c7 32 16 67 19 80
6 19 2 24 -31 38 -27 11 -53 14 -86 10 -36 -5 -48 -3 -48 6 0 9 -3 9 -10 -2
-5 -8 -11 -12 -15 -9 -3 3 4 18 16 33 29 37 14 53 -34 37 -31 -11 -43 -9 -86
10 -35 15 -61 19 -84 15 -26 -5 -38 -2 -52 14 -21 24 -29 25 -47 6 -8 -7 -28
-17 -45 -20 -23 -6 -32 -3 -37 10 -4 9 -9 14 -12 11 -6 -6 -64 52 -64 64 0 19
-31 8 -40 -13 -16 -40 -36 -59 -54 -52 -10 4 -26 -1 -39 -12 -12 -11 -35 -19
-52 -18 -16 1 -43 -5 -59 -13 -23 -12 -27 -19 -23 -41 5 -27 5 -27 -46 -25
-29 0 -60 4 -69 8 -24 9 -81 -34 -71 -55 11 -22 7 -88 -6 -104 -6 -7 -8 -21
-5 -30 5 -14 2 -16 -18 -11 -14 4 -41 0 -61 -9 -46 -19 -61 -63 -40 -115 7
-19 11 -36 8 -39 -3 -3 -5 0 -5 6 0 6 -12 23 -26 37 -14 14 -23 29 -20 32 3 3
-4 14 -15 24 -12 10 -18 23 -13 30 4 7 3 9 -4 5 -11 -7 -30 58 -23 79 2 6 5
17 5 25 1 8 8 25 14 37 7 12 12 36 12 53 0 50 -30 140 -51 153 -10 6 -19 19
-19 28 0 23 -17 34 -85 54 -33 9 -70 21 -83 26 -33 13 -49 11 -56 -6z m117
-58 c31 -11 57 -25 57 -32 0 -6 10 -20 21 -31 26 -23 49 -74 49 -108 0 -13 -9
-43 -19 -67 -12 -27 -18 -58 -16 -85 4 -54 54 -152 97 -191 18 -16 38 -38 44
-49 6 -10 21 -19 32 -19 31 0 36 -12 18 -40 -15 -22 -22 -25 -49 -20 -18 4
-36 12 -42 19 -12 14 -45 9 -45 -7 0 -6 -6 -2 -14 9 -13 16 -18 17 -35 7 -35
-22 -48 -14 -13 8 41 27 44 54 5 45 -85 -21 -81 -22 -45 16 35 37 33 48 -7 48
-24 1 -25 1 -7 15 21 16 14 35 -14 35 -29 0 -34 19 -11 41 25 23 27 37 6 45
-12 5 -13 10 -4 20 6 8 9 20 6 29 -9 21 -157 11 -174 -11 -28 -38 -106 -55
-158 -35 -16 7 -7 11 39 21 33 7 87 27 120 45 47 25 70 31 99 27 29 -3 37 -1
37 12 0 9 -11 21 -25 26 -34 13 -31 25 6 36 45 13 56 34 34 68 -18 27 -30 29
-97 10 -12 -4 -18 0 -18 10 0 9 7 16 15 16 25 0 17 19 -15 35 -29 15 -31 15
-55 -11 -18 -20 -25 -23 -25 -11 0 9 -3 18 -8 21 -4 2 -57 -6 -117 -18 -151
-32 -185 -36 -185 -25 0 5 15 16 33 23 17 8 46 20 62 27 17 7 37 14 45 15 108
15 131 16 145 4 13 -11 18 -10 31 8 9 13 31 24 55 28 22 4 42 11 45 16 3 5 13
6 23 2 9 -3 42 -16 74 -27z m1970 17 c9 -3 22 -14 28 -26 10 -19 12 -19 29 -3
21 19 29 19 188 -14 56 -11 122 -21 146 -21 31 0 48 -6 62 -21 l19 -21 -70 8
c-39 4 -116 7 -173 6 -79 -2 -109 2 -125 13 -12 8 -41 15 -64 15 -34 0 -46 -5
-59 -25 -11 -17 -25 -25 -45 -25 -35 0 -46 -17 -23 -36 18 -14 18 -14 -1 -29
-12 -10 -30 -13 -47 -9 -34 7 -38 -14 -8 -41 15 -14 17 -21 9 -32 -9 -9 -8
-17 0 -27 9 -10 8 -15 -3 -19 -17 -7 -18 -45 -2 -65 13 -17 -9 -32 -46 -32
-30 0 -39 -26 -13 -36 22 -9 10 -21 -30 -28 -23 -5 -35 -12 -33 -21 2 -8 -6
-21 -17 -29 -20 -14 -20 -15 9 -45 31 -33 30 -34 -21 -31 -21 1 -35 -5 -41
-17 -9 -14 -13 -16 -23 -5 -15 14 -59 16 -59 2 0 -16 62 -50 91 -50 14 0 34 7
45 15 10 8 26 15 35 15 9 0 24 9 33 19 16 17 21 18 54 7 44 -15 47 -32 10 -59
-24 -18 -30 -18 -58 -7 -22 9 -34 10 -42 2 -16 -16 -1 -30 38 -38 25 -5 34
-11 32 -23 -4 -21 -42 -26 -58 -6 -7 8 -23 15 -36 15 -12 0 -26 5 -29 10 -3 6
-15 10 -27 10 -17 0 -20 -4 -14 -30 8 -41 -11 -39 -53 4 -29 30 -33 39 -27 69
4 19 3 37 -2 39 -5 1 -6 28 -3 58 4 33 9 50 14 43 11 -17 36 -16 43 1 3 8 22
32 43 53 74 78 116 198 98 279 -15 65 -1 129 34 159 17 14 41 25 55 25 13 0
24 5 24 11 0 11 66 6 113 -7z m-1150 -106 c-3 -13 -13 -31 -21 -40 -8 -10 -16
-38 -16 -62 -1 -34 4 -49 24 -68 14 -14 33 -28 44 -31 10 -4 16 -13 13 -21 -8
-19 20 -43 34 -29 5 5 11 23 12 38 2 25 -4 32 -38 50 -49 26 -57 60 -23 98 24
26 108 49 108 29 0 -6 -19 -21 -42 -34 -46 -25 -59 -56 -34 -77 18 -15 36 -6
36 18 0 22 15 36 50 46 23 7 22 6 -7 -19 -37 -31 -41 -47 -17 -70 19 -20 58
-21 74 -2 6 8 26 16 43 18 20 2 32 8 32 18 0 21 -51 25 -81 5 -29 -19 -30 -12
-3 26 13 18 29 29 45 29 17 0 24 5 24 20 0 30 26 35 68 15 l37 -18 -27 -9
c-25 -9 -26 -13 -23 -61 3 -65 3 -63 17 -49 19 19 26 14 20 -13 -7 -38 21 -32
57 13 33 43 87 65 141 60 34 -3 35 -4 33 -42 -2 -21 -10 -52 -18 -69 -13 -26
-13 -34 -3 -42 7 -6 37 -36 66 -67 42 -46 52 -63 52 -92 0 -42 -13 -46 -36
-11 -9 13 -25 27 -35 30 -26 9 -69 -20 -69 -46 0 -24 28 -69 43 -69 16 0 57
-41 57 -58 0 -8 10 -31 21 -52 12 -21 19 -45 16 -54 -8 -21 -63 -21 -71 -1 -9
25 -46 17 -77 -16 -40 -42 -48 -30 -13 17 25 32 29 46 29 103 0 61 -2 66 -22
69 -22 3 -23 0 -23 -55 0 -70 -24 -116 -75 -140 -24 -11 -34 -22 -30 -32 3
-12 -10 -21 -48 -36 -40 -15 -53 -25 -55 -44 -3 -20 0 -23 17 -18 12 3 24 1
27 -4 3 -5 -1 -9 -10 -9 -8 0 -23 -12 -33 -26 -16 -22 -29 -27 -67 -29 -40 -1
-49 2 -56 19 -10 27 3 42 46 56 19 7 39 21 45 31 31 59 11 87 -52 73 -42 -9
-51 -31 -11 -26 37 5 25 -15 -14 -22 -19 -4 -37 -13 -40 -21 -5 -11 -12 -10
-37 6 -18 10 -44 19 -59 19 -33 0 -37 15 -7 23 13 3 18 10 14 17 -4 7 -9 44
-12 83 -3 45 -10 78 -20 89 -14 16 -13 20 11 48 42 51 31 110 -21 110 -27 0
-29 -7 -6 -32 13 -15 14 -23 4 -44 -8 -19 -16 -24 -29 -19 -9 3 -48 15 -87 27
-55 16 -76 18 -97 9 -16 -6 -28 -16 -28 -23 1 -7 29 -35 63 -61 56 -44 65 -48
102 -43 49 7 70 -4 60 -33 -4 -14 1 -36 14 -61 l20 -38 -30 -11 c-16 -5 -29
-14 -29 -20 0 -25 21 -60 40 -66 16 -5 18 -10 10 -20 -7 -8 -7 -16 -2 -19 6
-3 15 1 22 9 6 7 18 11 26 8 18 -7 18 -48 -1 -66 -21 -22 -93 -11 -126 19 -14
13 -30 24 -37 24 -7 0 -12 9 -12 20 0 11 -7 20 -16 20 -10 0 -14 -6 -10 -17 3
-12 -4 -25 -20 -37 -23 -16 -28 -17 -40 -4 -20 20 -7 48 23 48 13 0 21 4 18
10 -3 6 -15 10 -26 10 -12 0 -19 5 -16 13 3 7 19 11 46 9 23 -1 41 2 41 8 0
15 -45 30 -90 30 -21 0 -41 4 -44 9 -10 15 5 43 20 37 7 -3 18 1 24 9 13 15
-3 27 -53 39 -35 8 -61 60 -45 89 5 11 8 27 5 37 -3 10 1 21 9 24 7 3 16 17
20 31 4 17 13 25 28 25 11 0 28 5 36 11 11 7 7 9 -18 7 -34 -3 -52 12 -52 44
0 16 2 16 38 0 20 -10 49 -26 64 -36 41 -27 57 -14 17 16 -38 28 -90 48 -125
48 -15 0 -24 6 -24 15 0 8 -6 15 -14 15 -28 0 -46 -12 -46 -31 0 -10 -4 -19
-9 -19 -6 0 -11 -19 -13 -42 -3 -39 -7 -45 -41 -61 -21 -10 -41 -25 -44 -33
-6 -17 15 -36 29 -28 19 12 25 -8 13 -43 -10 -29 -20 -39 -45 -46 -52 -13 -59
14 -24 87 16 34 18 78 4 92 -6 6 -8 18 -4 27 5 15 9 14 26 -8 20 -25 48 -34
48 -15 0 6 -7 25 -16 43 -12 21 -13 32 -5 35 6 2 11 16 11 31 0 24 3 28 24 24
34 -7 40 11 21 67 -14 44 -15 52 -1 78 21 40 34 48 88 55 40 6 51 3 76 -18 16
-13 44 -27 63 -30 39 -7 99 -60 99 -87 0 -25 36 -23 50 2 16 31 -7 70 -50 84
-45 14 -48 36 -11 76 16 19 29 36 28 39 0 3 5 23 12 44 14 40 43 53 34 15z
m1223 -29 l29 -30 -29 5 c-33 6 -32 5 -40 34 -10 31 5 28 40 -9z m204 6 c0 -8
12 -18 28 -21 15 -4 43 -15 62 -26 19 -10 39 -18 45 -18 6 0 19 -14 29 -31 30
-50 8 -54 -80 -13 -43 20 -104 45 -133 55 -30 11 -66 27 -80 37 l-26 17 50 6
c91 11 105 10 105 -6z m138 -7 c7 -7 12 -15 12 -19 0 -10 -58 10 -66 22 -8 14
40 11 54 -3z m148 2 c39 -15 111 -100 84 -100 -22 0 -86 40 -119 74 -32 33
-33 36 -14 36 12 0 34 -5 49 -10z m-2906 -9 c-31 -18 -151 -54 -157 -47 -15
14 28 40 73 42 25 1 49 5 52 8 3 3 15 6 26 6 17 -1 18 -2 6 -9z m208 -17 c-2
-8 -22 -26 -45 -40 l-43 -25 21 36 c22 37 48 57 62 48 4 -3 7 -11 5 -19z m852
7 c0 -6 -4 -13 -10 -16 -5 -3 -10 -17 -10 -31 0 -29 -13 -31 -40 -4 -20 20
-25 41 -13 53 10 11 73 8 73 -2z m-1270 -25 c0 -19 -78 -87 -135 -117 -44 -24
-57 -43 -33 -51 8 -3 5 -13 -10 -33 -12 -15 -22 -38 -22 -51 0 -13 -4 -24 -9
-24 -4 0 -28 -16 -52 -35 -24 -19 -47 -35 -51 -35 -23 0 0 35 58 90 49 46 64
64 55 73 -8 8 -19 7 -40 -6 -16 -9 -34 -17 -40 -17 -21 0 -11 36 19 70 16 19
29 40 30 46 0 18 32 41 75 54 22 7 45 17 52 22 31 25 103 34 103 14z m294 5
c9 -15 -103 -157 -145 -186 -50 -33 -63 -32 -54 2 10 41 41 80 113 139 68 56
77 60 86 45z m195 -15 c-13 -13 -32 -35 -42 -50 -19 -27 -104 -76 -133 -76
-16 0 -16 1 -1 18 10 10 45 35 80 55 34 20 68 46 75 57 7 11 20 20 29 20 13 0
11 -5 -8 -24z m2188 -24 c18 -9 33 -20 33 -25 0 -12 -116 0 -142 14 -14 8 -20
6 -25 -8 -14 -38 -60 -46 -59 -10 2 38 43 59 105 52 30 -4 69 -14 88 -23z
m-2533 0 c3 -5 -30 -44 -73 -88 -97 -99 -221 -166 -221 -120 0 21 154 171 187
183 96 35 100 36 107 25z m1656 -17 c-12 -15 -30 -12 -30 6 0 5 10 9 21 9 18
0 19 -2 9 -15z m970 -4 c0 -24 23 -43 43 -36 21 9 107 -34 107 -52 0 -13 -10
-15 -57 -9 -32 4 -71 13 -87 21 -16 8 -37 15 -47 15 -10 0 -21 5 -24 10 -3 6
5 10 18 10 26 0 40 20 31 45 -4 8 -1 15 5 15 6 0 11 -8 11 -19z m653 -82 c28
-27 48 -52 44 -55 -18 -19 -177 103 -177 136 0 19 81 -31 133 -81z m-345 61
c9 -5 33 -16 53 -25 43 -19 134 -109 125 -124 -9 -14 -79 13 -126 48 -19 15
-47 32 -62 39 -22 9 -28 18 -28 42 0 31 9 36 38 20z m185 -7 c-7 -2 -21 -2
-30 0 -10 3 -4 5 12 5 17 0 24 -2 18 -5z m-3599 -22 c3 -5 -1 -15 -10 -22 -8
-7 -24 -30 -35 -51 -11 -21 -23 -38 -27 -38 -5 0 -27 -16 -50 -36 -57 -48 -53
-23 7 51 90 109 101 119 115 96z m2959 -5 c13 -10 15 -16 7 -21 -7 -4 -22 2
-33 14 -25 24 -4 30 26 7z m632 -26 c3 -5 2 -10 -4 -10 -5 0 -13 5 -16 10 -3
6 -2 10 4 10 5 0 13 -4 16 -10z m95 -31 c19 -15 73 -47 119 -71 83 -43 113
-69 98 -84 -4 -4 -33 0 -64 10 -47 15 -71 32 -135 96 -98 98 -105 116 -18 49z
m-780 21 c16 -10 13 -17 -10 -20 -29 -4 -40 0 -40 15 0 17 27 20 50 5z m205
-15 c22 -8 62 -16 88 -20 40 -5 46 -9 36 -21 -6 -8 -23 -14 -38 -14 -14 0 -41
-2 -59 -6 -17 -3 -58 -3 -90 1 -55 7 -56 8 -34 22 13 9 22 26 22 40 0 20 4 24
18 18 9 -4 35 -13 57 -20z m270 -40 c77 -44 116 -82 163 -159 52 -86 53 -99
10 -84 -66 23 -258 236 -258 286 0 13 2 14 18 0 9 -8 40 -28 67 -43z m277 -11
c29 -31 65 -62 80 -70 46 -24 35 -37 -24 -30 -61 8 -118 24 -118 34 0 4 9 13
20 20 26 16 25 36 -1 73 -32 45 -15 35 43 -27z m-2814 -6 c7 -20 8 -36 2 -42
-6 -6 -13 0 -19 17 -13 32 -20 33 -63 7 -20 -12 -49 -20 -73 -19 l-40 1 45 12
c25 7 61 22 80 34 47 28 54 27 68 -10z m-443 -14 c9 -14 15 -27 13 -28 -30
-22 -95 -56 -143 -74 -103 -40 -122 -45 -149 -38 -28 7 -36 36 -11 36 8 0 15
4 15 8 0 15 59 42 92 42 24 0 54 13 94 39 32 22 62 40 65 40 4 1 14 -11 24
-25z m-399 4 c10 -16 -124 -138 -152 -138 -12 0 -33 -9 -47 -20 l-25 -20 8 34
c10 47 18 56 46 56 27 0 95 42 128 79 22 24 32 26 42 9z m530 -24 c24 -14 44
-30 44 -35 0 -15 -71 -39 -116 -39 -51 0 -58 17 -14 33 23 9 30 17 30 39 0 15
3 28 6 28 3 0 25 -12 50 -26z m2802 -45 c47 -62 50 -70 30 -67 -13 2 -23 10
-23 18 0 10 -29 24 -87 43 -49 16 -88 31 -88 35 0 7 83 38 105 40 6 0 34 -31
63 -69z m-445 43 c68 -4 82 -13 48 -31 -43 -24 -96 -24 -141 -1 -41 21 -43 23
-25 36 11 8 26 11 35 8 8 -4 45 -9 83 -12z m-1630 0 c5 -7 -37 -62 -48 -62 -3
0 -5 11 -5 25 0 29 41 58 53 37z m1859 -26 c4 -6 4 -14 2 -18 -5 -8 -114 -12
-114 -4 0 3 4 16 9 29 9 23 12 24 53 13 24 -6 46 -15 50 -20z m-2244 -25 c13
-12 20 -25 16 -35 -3 -9 -2 -22 4 -29 16 -19 -6 -41 -64 -66 -63 -27 -187 -27
-192 0 -3 18 62 40 113 38 47 -3 103 19 111 43 10 32 -8 41 -55 27 -31 -9 -45
-9 -53 -1 -8 8 -4 14 15 21 15 6 33 8 41 5 8 -3 17 -1 21 5 9 15 16 13 43 -8z
m-218 -1 c0 -5 -4 -10 -10 -10 -5 0 -10 5 -10 10 0 6 5 10 10 10 6 0 10 -4 10
-10z m2939 -28 c-12 -2 -26 2 -30 10 -16 24 -9 27 21 10 27 -16 28 -17 9 -20z
m-2891 4 c12 -28 7 -36 -22 -36 -12 0 -33 -7 -48 -14 -44 -23 -32 -2 13 23 26
15 38 28 35 37 -9 24 10 15 22 -10z m3292 -21 c19 -25 46 -59 59 -76 13 -16
21 -32 19 -35 -8 -7 -101 44 -139 76 l-34 28 29 -5 c27 -6 28 -4 24 26 -2 17
-2 31 1 31 3 0 22 -20 41 -45z m-2569 -8 c5 -19 2 -33 -9 -47 -16 -20 -17 -19
-17 30 0 53 14 62 26 17z m1361 11 c16 -5 26 -14 23 -18 -7 -11 -145 -9 -145
2 0 4 9 8 20 8 10 0 25 7 32 15 7 8 20 12 28 9 8 -3 27 -11 42 -16z m263 9
c17 -1 54 2 83 6 33 5 51 4 48 -1 -14 -23 -233 -40 -267 -21 -23 12 -23 12 -4
20 11 5 40 6 65 3 25 -3 59 -6 75 -7z m791 -19 c-9 -5 -16 -18 -16 -28 0 -24
-20 -25 -60 -5 -36 18 -38 33 -7 40 67 14 114 10 83 -7z m-3849 -14 c11 -10
26 -14 44 -10 16 3 31 1 34 -5 10 -15 -12 -36 -68 -64 -74 -36 -119 -72 -133
-104 -12 -27 -91 -91 -113 -91 -17 0 11 39 31 46 10 3 18 12 18 21 0 11 -7 14
-26 10 -18 -3 -22 -1 -15 6 6 6 28 12 48 13 30 1 43 8 70 40 18 21 45 65 60
97 15 31 29 57 31 57 2 0 11 -7 19 -16z m3227 -16 c3 -13 19 -38 36 -57 39
-42 30 -53 -51 -59 -73 -5 -96 9 -50 32 34 18 39 40 15 67 -20 22 -11 39 21
39 15 0 25 -7 29 -22z m81 2 c3 -5 17 -10 30 -10 13 0 34 -11 47 -24 24 -25
62 -46 115 -66 21 -8 45 -32 72 -72 45 -68 50 -88 22 -88 -41 0 -79 24 -156
101 -44 43 -91 86 -105 95 -31 21 -50 44 -50 61 0 15 16 17 25 3z m-2835 -8
c0 -19 -194 -45 -239 -32 l-26 8 35 16 c26 12 59 15 132 14 54 -2 98 -4 98 -6z
m2445 -2 c3 -6 -1 -7 -9 -4 -18 7 -21 14 -7 14 6 0 13 -4 16 -10z m-3038 -49
c-27 -40 -67 -71 -67 -52 0 27 35 79 59 88 14 5 28 8 30 6 2 -1 -8 -20 -22
-42z m717 20 c-5 -22 -1 -32 22 -50 15 -12 25 -23 23 -24 -8 -7 -137 -27 -168
-27 -46 0 -38 14 24 44 36 17 55 32 55 43 0 10 10 23 23 29 12 7 23 12 24 13
1 0 0 -12 -3 -28z m1766 19 c0 -5 -5 -10 -11 -10 -5 0 -7 5 -4 10 3 6 8 10 11
10 2 0 4 -4 4 -10z m1316 -22 l29 -31 -32 22 c-18 12 -33 27 -33 32 0 14 4 11
36 -23z m-836 12 c0 -18 44 -50 92 -66 48 -16 64 -34 29 -34 -10 0 -44 12 -75
26 -55 25 -83 55 -71 74 8 13 25 13 25 0z m254 2 c49 -9 57 -28 17 -37 -20 -4
-50 1 -91 16 -33 12 -60 23 -60 25 0 6 92 3 134 -4z m-3319 -46 c-26 -53 -44
-46 -29 11 5 18 31 35 42 27 2 -1 -4 -18 -13 -38z m365 27 c0 -20 -124 -109
-166 -119 -24 -6 -24 -5 -12 20 7 17 32 37 65 53 29 14 60 34 69 45 22 23 44
23 44 1z m3840 -23 c0 -16 -14 -12 -38 10 -30 28 -28 33 8 15 17 -9 30 -20 30
-25z m-1555 -8 c-3 -3 -16 5 -28 17 l-22 23 28 -17 c15 -10 25 -20 22 -23z
m-780 -16 c10 -3 24 -1 31 5 22 18 16 -6 -6 -26 -19 -17 -21 -17 -40 0 -11 10
-20 30 -19 44 0 24 1 25 9 5 4 -12 16 -24 25 -28z m2265 11 c17 -15 40 -27 50
-27 25 0 36 -20 19 -31 -24 -15 -65 -10 -100 14 -19 13 -53 34 -75 47 l-41 25
57 -1 c48 -1 64 -6 90 -27z m-3505 3 c-11 -18 -196 -57 -216 -45 -5 4 -5 14 2
27 10 18 18 20 58 15 25 -3 62 -2 81 3 50 11 82 12 75 0z m515 -5 c10 -12 8
-16 -15 -25 -15 -6 -31 -12 -34 -15 -4 -2 -13 1 -21 6 -12 8 -11 13 10 29 30
24 44 25 60 5z m476 -22 c-10 -10 -19 5 -10 18 6 11 8 11 12 0 2 -7 1 -15 -2
-18z m1684 -9 c0 -8 -4 -14 -9 -14 -5 0 -11 -8 -14 -19 -2 -10 -16 -20 -31
-23 -29 -6 -34 3 -11 22 8 7 15 23 15 35 0 18 4 21 25 17 14 -2 25 -11 25 -18z
m595 12 c11 -7 37 -16 58 -20 20 -4 37 -11 37 -16 0 -20 -23 -21 -70 -4 -37
13 -53 15 -61 7 -9 -9 -2 -16 27 -28 21 -8 48 -18 60 -21 12 -3 25 -12 28 -20
9 -24 -71 -19 -84 6 -6 11 -16 20 -23 20 -14 0 -74 57 -66 63 4 3 61 24 69 26
3 1 14 -5 25 -13z m-3966 -32 c13 -29 7 -44 -18 -44 -9 0 -22 -5 -28 -11 -6
-6 -4 9 4 35 18 53 25 56 42 20z m1074 12 c7 -17 -6 -28 -53 -43 -51 -17 -160
-27 -160 -15 0 12 34 22 75 22 17 0 48 11 70 25 46 28 61 31 68 11z m2070 -3
c4 -3 3 -11 -3 -18 -7 -8 -9 -19 -6 -24 4 -5 2 -12 -4 -16 -10 -6 -30 34 -30
60 0 13 16 12 43 -2z m517 -28 c37 -38 37 -39 -4 -49 -26 -6 -28 -5 -23 14 7
29 -18 37 -53 17 -15 -9 -48 -18 -73 -18 -45 -2 -107 16 -107 31 0 4 43 9 95
12 55 2 100 9 107 16 17 17 20 16 58 -23z m710 -1 c6 -14 18 -24 29 -24 25 0
35 -15 24 -35 -8 -13 -13 -12 -33 10 -13 14 -29 25 -36 25 -18 0 -26 17 -19
40 8 24 23 17 35 -16z m-3950 16 c0 -16 72 -29 130 -25 44 4 50 3 31 -5 -13
-6 -61 -10 -105 -10 -45 1 -93 1 -108 0 -36 -1 -35 3 5 29 36 23 47 26 47 11z
m967 -2 c93 -2 107 -25 36 -62 -40 -20 -38 -20 -62 5 -17 18 -28 21 -68 16
-40 -4 -73 2 -92 19 -3 3 4 10 14 18 12 8 35 12 60 9 22 -2 72 -5 112 -5z
m-747 -8 c0 -5 -5 -10 -11 -10 -5 0 -7 5 -4 10 3 6 8 10 11 10 2 0 4 -4 4 -10z
m3504 -9 c16 -17 16 -19 -6 -24 -27 -8 -41 4 -32 26 8 22 17 21 38 -2z m-884
-12 c11 -6 9 -8 -10 -8 -14 0 -36 6 -50 14 -25 14 -25 14 10 8 19 -3 42 -9 50
-14z m-2130 -7 c0 -5 -28 -23 -61 -40 -45 -23 -75 -32 -111 -32 -61 0 -55 15
9 24 27 3 66 17 88 30 41 25 75 33 75 18z m504 -16 c-6 -16 -24 -23 -24 -8 0
10 22 33 27 28 2 -2 1 -11 -3 -20z m1439 -6 c4 -15 14 -20 39 -20 40 0 83 -25
58 -34 -70 -24 -85 -23 -113 4 -26 24 -28 29 -16 49 17 26 25 27 32 1z m-1323
-77 c36 -10 21 -18 -26 -15 -58 5 -76 34 -48 77 l18 28 18 -43 c10 -24 26 -44
38 -47z m2558 70 c5 -18 -37 -16 -68 2 -24 15 -24 15 19 13 25 -2 46 -9 49
-15z m-4022 -12 c-9 -14 -128 -92 -133 -87 -6 6 34 46 45 46 5 0 26 13 48 29
38 28 53 33 40 12z m2494 -2 c0 -5 -4 -9 -10 -9 -5 0 -10 7 -10 16 0 8 5 12
10 9 6 -3 10 -10 10 -16z m145 10 c4 -6 17 -14 29 -19 19 -8 17 -9 -10 -9 -31
-1 -60 19 -47 32 9 10 21 8 28 -4z m-1429 -34 c-3 -9 -11 -15 -18 -13 -7 1
-30 -1 -50 -5 -25 -5 -47 -3 -70 8 l-33 15 50 -3 c34 -3 60 2 80 13 32 19 52
12 41 -15z m1824 25 c0 -11 -32 -30 -61 -35 -13 -3 -19 2 -19 15 0 17 10 22
68 29 6 0 12 -3 12 -9z m90 0 c0 -5 -2 -10 -4 -10 -3 0 -8 5 -11 10 -3 6 -1
10 4 10 6 0 11 -4 11 -10z m-3415 -43 c-1 -56 -47 -114 -103 -132 -24 -7 -16
7 68 117 11 14 20 33 20 42 0 9 3 16 8 16 4 0 7 -19 7 -43z m1615 -1 c0 -15
-21 -26 -51 -26 -27 0 -24 28 4 33 41 8 47 7 47 -7z m1269 0 c8 -6 43 -11 79
-11 41 0 67 -4 69 -12 9 -27 -162 -28 -194 -1 -34 28 11 51 46 24z m-1550 -30
c42 -19 59 -22 89 -15 49 11 52 11 52 -4 0 -9 -22 -14 -79 -16 -71 -2 -81 0
-100 20 -19 21 -27 39 -17 39 2 0 27 -11 55 -24z m1389 -8 c-4 -40 -21 -46
-36 -13 -14 31 -8 45 19 45 17 0 20 -6 17 -32z m-2644 -13 c-4 -8 -10 -15 -15
-15 -4 0 -6 7 -3 15 4 8 10 15 15 15 4 0 6 -7 3 -15z m1649 -5 c58 -15 57 -34
-2 -38 -34 -3 -47 1 -62 19 -35 41 -30 42 64 19z m1082 0 c10 -11 29 -20 42
-20 12 0 23 -4 23 -10 0 -17 -56 -4 -79 19 -11 11 -21 23 -21 26 0 11 18 4 35
-15z m-247 -7 c-4 -24 -78 -32 -78 -9 0 14 20 21 63 25 13 1 17 -5 15 -16z
m-992 -9 c-3 -9 -6 -20 -6 -25 0 -15 -17 -10 -24 8 -4 9 -1 20 6 25 21 12 31
9 24 -8z m861 -20 c-3 -3 -12 -4 -19 -1 -8 3 -5 6 6 6 11 1 17 -2 13 -5z m233
-41 c-1 -24 -2 -26 -11 -10 -5 9 -7 22 -4 27 10 17 15 11 15 -17z m-62 -8 c16
-36 15 -45 -6 -45 -17 0 -72 48 -72 63 0 4 15 7 33 7 26 0 36 -6 45 -25z
m-835 0 c-7 -19 -55 -45 -83 -45 -24 0 -25 8 -4 38 19 27 98 33 87 7z m711 0
c11 -8 17 -18 13 -22 -9 -8 -57 14 -57 27 0 14 22 12 44 -5z m-661 -53 c3 -4
-3 -22 -12 -40 -15 -29 -19 -32 -30 -18 -18 22 -6 66 19 66 10 0 21 -3 23 -8z
m682 -6 c25 -4 31 -31 14 -63 -11 -20 -11 -26 1 -33 21 -13 50 17 50 52 0 15
4 28 9 28 5 0 16 3 24 6 10 3 18 -2 22 -16 10 -33 -38 -97 -78 -103 -37 -5
-45 0 -70 41 -15 27 -16 32 -2 45 23 23 19 40 -7 31 -52 -15 -74 -58 -43 -84
17 -14 20 -50 5 -50 -5 0 -10 -8 -11 -17 0 -10 -6 -4 -12 14 -7 17 -15 35 -19
39 -5 4 -8 16 -8 26 0 23 -35 24 -44 1 -4 -9 1 -31 10 -49 12 -22 15 -40 9
-60 l-8 -29 -9 33 c-7 27 -13 33 -31 30 -17 -2 -21 -9 -19 -30 5 -43 -24 -92
-66 -112 l-37 -18 29 29 c35 35 45 60 36 93 -4 18 -14 26 -33 28 -28 3 -35 -6
-16 -25 8 -8 7 -18 -3 -36 -16 -30 -75 -81 -81 -70 -15 28 -14 45 5 68 15 19
19 34 14 59 -6 29 -4 33 16 31 31 -2 120 20 146 36 28 17 29 49 2 49 -10 0
-28 -9 -39 -21 -22 -24 -133 -40 -145 -20 -4 6 -16 11 -27 11 -11 0 -30 7 -44
16 -21 14 -26 14 -57 -2 -18 -9 -39 -25 -46 -35 -16 -23 -50 -24 -74 -2 -21
19 -22 35 -6 79 l11 31 42 -18 c23 -10 64 -19 91 -20 29 -1 57 -8 68 -18 27
-24 145 -19 166 7 11 13 35 21 80 25 35 4 73 14 84 22 13 8 33 12 51 9 17 -3
39 -6 50 -8z m-769 -54 c6 -30 5 -32 -22 -31 -16 0 -23 3 -16 6 10 4 8 11 -9
29 l-22 24 24 9 c29 11 37 5 45 -37z m322 -72 c7 0 12 -5 12 -10 0 -7 -7 -7
-21 0 -27 15 -47 7 -51 -22 -3 -26 -21 -28 -27 -2 -1 9 4 21 13 26 9 5 16 19
16 30 l0 21 23 -21 c13 -12 29 -22 35 -22z m17 -84 c-10 -14 -21 -23 -26 -20
-14 8 -11 25 8 46 24 27 39 6 18 -26z m51 -193 c8 -17 14 -39 14 -48 0 -26
-23 -12 -26 16 -11 84 -12 102 -8 84 3 -11 12 -34 20 -52z m60 0 c-10 -11 -25
18 -18 35 4 13 8 11 15 -6 6 -12 7 -25 3 -29z m-420 20 c16 -21 18 -37 4 -28
-13 8 -33 45 -24 45 4 0 13 -8 20 -17z m758 2 c3 -8 4 -15 2 -15 -3 0 -11 -3
-19 -6 -12 -4 -14 0 -10 15 6 25 18 27 27 6z m796 -35 c13 -9 13 -10 0 -9 -8
1 -26 5 -40 9 l-25 8 25 1 c14 0 32 -4 40 -9z m-339 -80 c15 -8 19 -22 19 -61
0 -47 -2 -50 -22 -47 -15 2 -23 10 -23 22 0 11 -7 22 -15 24 -8 3 -18 10 -22
16 -4 7 -14 4 -26 -8 -21 -18 -37 -10 -23 12 8 13 69 50 84 51 5 1 17 -4 28
-9z m174 -17 c31 -15 35 -21 35 -53 0 -43 -20 -64 -67 -73 -26 -5 -35 -2 -48
16 -24 35 -19 82 11 106 32 25 25 25 69 4z m175 -41 c29 -36 26 -76 -5 -90
-42 -20 -83 -15 -96 11 -11 19 -10 20 2 10 12 -10 23 -9 52 4 20 10 37 20 37
24 0 4 -12 14 -26 24 -19 12 -29 14 -37 6 -15 -15 -27 -14 -27 3 0 21 38 45
61 39 11 -3 28 -17 39 -31z m168 -28 c28 -20 29 -61 0 -91 -29 -30 -62 -29
-87 4 -24 30 -20 58 11 86 25 21 47 22 76 1z m168 -71 c7 -7 16 -13 20 -12 22
5 44 -15 44 -40 l-1 -26 -18 23 c-24 28 -35 28 -49 -2 -15 -33 -59 -42 -91
-18 -39 28 -39 64 0 96 30 26 32 26 58 10 14 -9 31 -23 37 -31z m-775 -6 c-1
-4 -1 -20 -1 -37 0 -36 -16 -39 -32 -5 -8 19 -8 28 2 40 13 15 32 17 31 2z
m-2095 -23 c-25 -18 -36 -18 -36 0 0 8 10 16 23 18 31 5 35 -1 13 -18z m-90 4
c7 -10 -20 -38 -38 -38 -10 0 -11 34 -1 43 10 11 31 8 39 -5z m2296 -18 c18
-11 42 -20 54 -20 11 0 29 -9 40 -21 13 -14 28 -19 52 -17 30 2 35 -1 47 -29
17 -39 42 -53 95 -53 24 0 48 -6 57 -15 14 -14 17 -14 34 1 18 16 19 16 19 -1
0 -11 -12 -31 -27 -47 -23 -24 -24 -28 -9 -34 11 -4 28 1 45 14 23 17 29 18
37 6 5 -8 25 -17 44 -20 31 -5 33 -4 18 9 -10 8 -18 18 -18 23 0 4 5 3 12 -4
7 -7 21 -12 32 -12 15 0 38 -28 85 -101 35 -55 74 -107 87 -116 13 -8 24 -19
24 -23 0 -12 -74 -63 -141 -99 -53 -28 -99 -33 -99 -10 0 14 -18 11 -47 -8
-29 -19 -80 -26 -88 -12 -3 4 -1 16 4 26 9 15 25 85 37 153 1 8 6 25 9 38 9
29 1 28 -39 -4 -33 -26 -194 -86 -208 -77 -5 2 -8 12 -8 22 0 9 -6 26 -14 36
-13 18 -11 20 17 30 43 14 32 30 -21 31 -50 1 -60 8 -41 30 13 16 10 16 -33
10 l-47 -7 0 82 c0 64 -3 86 -15 94 -8 7 -20 34 -26 61 -6 27 -13 57 -16 67
-7 22 8 22 48 -3z m-2097 0 c3 -5 1 -10 -4 -10 -6 0 -11 5 -11 10 0 6 2 10 4
10 3 0 8 -4 11 -10z m-315 -35 c0 -20 -5 -25 -26 -25 -14 0 -23 3 -21 8 2 4 7
15 10 25 10 27 37 21 37 -8z m2580 15 c0 -5 -4 -10 -9 -10 -6 0 -13 5 -16 10
-3 6 1 10 9 10 9 0 16 -4 16 -10z m145 -39 c16 -4 25 -10 20 -13 -16 -10 -78
6 -83 21 -3 10 0 12 14 6 11 -4 32 -10 49 -14z m399 4 c-8 -19 -43 -30 -56
-17 -8 8 0 14 23 20 19 6 35 11 36 11 1 1 0 -6 -3 -14z m-3224 -20 c0 -20 -24
-45 -43 -45 -5 0 0 28 9 58 7 23 34 13 34 -13z m248 6 c29 -25 28 -31 -6 -31
-34 0 -68 23 -58 38 11 17 38 14 64 -7z m115 -6 c20 -28 17 -30 -30 -13 -18 7
-33 18 -33 25 0 22 44 14 63 -12z m-222 -25 c25 -14 24 -27 -1 -35 -11 -3 -20
-13 -20 -21 0 -26 -18 -14 -25 16 -10 47 6 61 46 40z m2985 -11 c3 -5 -1 -9
-10 -9 -21 0 -46 11 -46 20 0 10 49 0 56 -11z m-3256 -17 c0 -25 -28 -62 -46
-62 -12 0 -14 7 -9 33 11 50 55 74 55 29z m1730 -207 c0 -160 -3 -215 -12
-215 -19 0 -108 101 -129 145 -19 41 -24 90 -13 143 11 53 95 137 142 141 9 1
12 -48 12 -214z m-1263 199 c-3 -3 -12 -4 -19 -1 -8 3 -5 6 6 6 11 1 17 -2 13
-5z m2668 -4 c3 -5 1 -10 -4 -10 -6 0 -11 5 -11 10 0 6 2 10 4 10 3 0 8 -4 11
-10z m-3257 -53 c-4 -43 -26 -45 -33 -3 -9 43 1 62 21 45 9 -7 14 -25 12 -42z
m314 26 c23 -21 8 -33 -40 -33 -26 0 -35 5 -39 20 -3 11 -10 20 -17 20 -6 0
-4 5 4 10 19 14 69 4 92 -17z m1671 -21 c51 -52 61 -87 47 -159 -7 -32 -17
-67 -22 -78 -12 -23 -59 -75 -68 -75 -4 0 -7 79 -7 175 0 96 3 175 6 175 4 0
23 -17 44 -38z m1317 23 c11 -13 10 -14 -4 -9 -9 3 -16 10 -16 15 0 13 6 11
20 -6z m165 -16 c4 -6 5 -13 2 -16 -8 -7 -47 7 -47 18 0 13 37 11 45 -2z
m-2840 -28 c4 -21 -1 -45 -19 -83 -24 -51 -24 -55 -11 -112 16 -68 13 -78 -19
-70 -17 4 -28 0 -38 -15 -8 -12 -29 -24 -46 -27 -36 -7 -41 -21 -15 -39 22
-16 27 -81 8 -89 -38 -14 -189 68 -199 109 -4 14 -13 25 -21 25 -24 0 -18 -44
10 -76 22 -26 25 -38 25 -110 0 -78 1 -81 35 -114 19 -19 35 -38 35 -42 0 -9
-77 19 -100 37 -38 29 -125 67 -192 85 -79 20 -79 20 -48 85 11 22 28 67 38
100 17 55 23 62 67 86 27 14 51 31 53 37 2 7 17 12 33 12 l29 0 -41 41 c-41
41 -47 68 -8 33 15 -13 23 -15 26 -7 3 7 17 10 38 6 26 -4 42 1 78 26 25 17
52 31 61 31 8 0 27 15 43 34 37 45 78 66 130 66 38 0 42 -3 48 -29z m-712 -28
c-4 -10 -9 -11 -16 -4 -5 5 -7 18 -3 28 6 14 9 15 16 4 4 -8 6 -21 3 -28z
m280 12 c-3 -14 -62 -28 -82 -19 -9 4 -19 6 -23 6 -10 -2 -10 12 -1 22 11 10
108 3 106 -9z m-356 -44 c-12 -25 -12 -25 -15 -2 -2 12 -1 30 3 39 5 13 8 14
15 3 5 -8 3 -25 -3 -40z m503 4 c-7 -8 -17 -15 -23 -15 -5 0 -2 9 8 20 21 23
35 19 15 -5z m-285 -15 c14 -28 14 -31 -1 -37 -19 -7 -70 40 -60 56 14 21 45
11 61 -19z m-117 -28 c2 -7 -3 -12 -12 -12 -9 0 -16 7 -16 16 0 17 22 14 28
-4z m-78 -36 c0 -13 -20 -26 -41 -26 -16 0 -9 28 9 33 29 8 32 7 32 -7z m280
4 c0 -5 -4 -10 -10 -10 -5 0 -10 5 -10 10 0 6 5 10 10 10 6 0 10 -4 10 -10z
m-30 -10 c0 -5 -5 -10 -11 -10 -5 0 -7 5 -4 10 3 6 8 10 11 10 2 0 4 -4 4 -10z
m-116 -40 c-6 -5 -24 21 -24 34 0 6 6 1 14 -10 8 -10 12 -21 10 -24z m-64 20
c0 -5 -4 -10 -10 -10 -5 0 -10 5 -10 10 0 6 5 10 10 10 6 0 10 -4 10 -10z
m-75 -90 c3 -5 1 -10 -4 -10 -6 0 -11 5 -11 10 0 6 2 10 4 10 3 0 8 -4 11 -10z
m99 -5 c-7 -16 -24 -21 -24 -6 0 8 7 13 27 20 1 1 0 -6 -3 -14z m26 -9 c0 -3
-4 -8 -10 -11 -5 -3 -10 -1 -10 4 0 6 5 11 10 11 6 0 10 -2 10 -4z m3055 -6
c-3 -5 -13 -10 -21 -10 -8 0 -12 5 -9 10 3 6 13 10 21 10 8 0 12 -4 9 -10z
m563 -12 c2 -10 -2 -18 -9 -18 -7 0 -44 -15 -83 -34 -39 -19 -80 -37 -91 -40
-16 -6 -17 -9 -5 -16 20 -12 -44 -87 -114 -134 -79 -52 -86 -54 -86 -19 0 16
-3 33 -7 36 -13 13 -33 -16 -33 -49 0 -24 -5 -34 -21 -39 -27 -9 -32 -3 -19
29 5 15 10 34 10 42 0 27 -40 -9 -51 -46 -7 -22 -22 -42 -40 -52 -40 -24 -38
-4 6 63 45 65 32 87 -17 30 -51 -60 -64 -88 -51 -111 10 -15 6 -24 -22 -56
-18 -22 -36 -36 -40 -32 -11 11 5 48 21 48 18 0 31 30 17 39 -6 3 -13 32 -15
63 -4 56 -3 59 34 95 28 28 36 42 32 58 -6 17 -3 17 20 -6 44 -44 177 -48 221
-8 5 5 14 9 21 9 7 0 42 18 78 40 36 22 69 40 74 40 5 0 19 11 32 25 13 14 29
24 36 21 7 -2 22 7 35 20 26 28 62 29 67 2z m-598 -68 c0 -6 -11 -22 -25 -36
-24 -23 -25 -24 -43 -7 -18 17 -17 19 12 35 36 20 56 23 56 8z m-93 -94 c-4
-9 -10 -16 -16 -16 -11 0 -22 40 -14 53 9 14 36 -20 30 -37z m624 -59 c19 -48
67 -57 109 -22 8 7 35 15 58 18 24 3 54 15 66 26 l21 20 22 -32 c12 -18 29
-51 37 -75 15 -43 15 -43 -11 -53 -22 -8 -33 -5 -67 17 -35 23 -50 27 -104 26
-35 -1 -68 -5 -74 -8 -5 -3 -15 2 -22 11 -18 25 -60 11 -46 -15 8 -15 4 -23
-23 -41 -17 -13 -35 -28 -39 -33 -4 -6 -10 -7 -14 -3 -4 4 0 15 9 25 18 19 22
59 9 78 -14 21 -51 34 -81 28 -17 -4 -31 -5 -31 -3 0 2 28 34 63 70 l62 65 22
-35 c12 -20 28 -48 34 -64z m-1676 -62 c0 -58 -1 -105 -2 -105 -12 0 -35 73
-35 112 1 39 21 98 35 98 1 0 2 -47 2 -105z m95 16 c0 -42 -18 -111 -28 -111
-6 0 -7 128 -2 175 2 26 30 -33 30 -64z m943 49 c3 -11 1 -18 -4 -14 -5 3 -9
12 -9 20 0 20 7 17 13 -6z m-2852 -55 c24 -8 94 -40 154 -70 192 -94 252 -111
318 -86 22 9 28 3 82 -87 33 -54 63 -98 67 -100 4 -2 8 -9 8 -16 0 -7 13 -30
28 -52 16 -21 48 -84 72 -139 23 -55 46 -104 50 -110 10 -14 47 -132 54 -172
5 -31 4 -32 -27 -29 -18 1 -42 7 -54 14 -17 9 -28 9 -50 0 -15 -7 -31 -17 -34
-22 -9 -11 -29 1 -29 19 0 14 -76 55 -103 55 -10 0 -17 8 -17 19 0 10 -16 33
-35 50 -22 19 -33 36 -29 45 4 10 -24 51 -75 112 -45 54 -81 105 -81 114 0 9
-9 25 -20 35 -11 10 -20 23 -20 29 0 19 -93 104 -131 120 -94 39 -214 56 -290
40 -22 -4 -27 -2 -25 13 1 14 -5 18 -31 16 -17 -2 -35 2 -38 8 -5 7 -14 4 -28
-8 -20 -18 -20 -17 -12 2 5 11 9 29 9 41 1 15 6 19 23 16 12 -2 47 5 78 17 30
12 65 21 77 21 21 0 21 0 2 -14 -24 -18 -18 -24 37 -34 25 -5 63 -20 84 -35
30 -20 42 -24 57 -16 11 6 17 16 15 24 -5 10 -1 10 21 -1 15 -7 48 -19 75 -26
41 -11 49 -10 63 4 19 18 11 38 -14 38 -9 0 -48 16 -86 35 -70 35 -83 35 -108
0 -4 -5 -11 -6 -15 -1 -4 5 -2 11 5 13 6 3 12 13 12 23 0 36 -127 55 -186 28
-22 -10 -28 -10 -32 0 -5 17 -43 15 -72 -5 -19 -12 -17 -8 9 19 18 20 45 38
60 41 14 3 42 10 61 15 51 14 72 14 121 -3z m1459 -6 c277 -26 255 -22 258
-47 2 -13 1 -31 -3 -40 -5 -14 -8 -12 -18 8 -11 23 -21 26 -105 34 -97 9 -120
4 -87 -20 15 -11 34 -14 77 -9 34 4 64 3 75 -4 15 -9 12 -10 -18 -11 -43 0
-72 -24 -39 -33 26 -7 26 -27 0 -27 -23 0 -27 -15 -5 -24 23 -8 18 -25 -10
-36 -30 -11 -32 -26 -5 -40 32 -17 14 -39 -30 -37 -49 2 -53 -15 -6 -26 21 -5
36 -15 36 -24 0 -10 -6 -12 -22 -7 -67 22 -92 -7 -29 -34 62 -26 54 -44 -15
-36 -46 6 -56 4 -52 -7 2 -8 24 -19 47 -24 23 -6 41 -15 39 -20 -2 -6 -10 -9
-18 -7 -63 14 -93 -6 -40 -28 18 -8 30 -20 30 -31 0 -23 -13 -24 -30 -4 -7 8
-18 15 -25 15 -7 0 -18 7 -25 15 -16 19 -83 19 -168 1 -69 -15 -70 -10 -7 23
27 14 58 21 97 21 59 0 77 10 54 29 -18 15 -99 12 -154 -7 -51 -17 -64 -11
-28 13 16 11 50 18 93 19 51 2 68 6 68 17 0 21 -94 24 -160 5 -70 -21 -77 -20
-37 4 18 11 62 24 98 28 35 4 64 12 64 17 -1 14 -151 11 -179 -4 -21 -12 -22
-11 -16 8 5 16 2 21 -11 21 -10 0 -14 3 -11 7 4 4 51 8 105 10 106 4 126 8
117 23 -3 5 -43 10 -88 10 -65 0 -78 2 -68 13 7 7 44 12 99 13 76 0 87 3 90
18 4 17 -4 18 -108 14 -100 -3 -114 -6 -130 -25 -19 -23 -40 -14 -40 17 0 19
105 40 196 40 40 0 54 3 51 13 -5 16 -194 15 -226 -2 -12 -7 -25 -10 -29 -7
-14 15 20 25 118 36 58 7 116 17 130 23 23 11 20 12 -30 15 -30 2 -97 -4 -149
-13 -76 -13 -96 -13 -102 -3 -4 7 -6 14 -4 16 1 2 43 5 91 8 105 6 121 8 130
17 4 3 34 4 66 0 58 -6 60 -5 56 17 -3 22 -6 23 -83 21 -145 -4 -202 -10 -246
-25 -55 -20 -65 -20 -49 -1 21 25 168 61 265 64 22 0 92 -4 155 -10z m1028
-21 c42 -10 90 -22 105 -25 17 -3 33 -15 39 -29 16 -35 4 -39 -26 -11 -29 27
-60 33 -216 43 -98 6 -161 -3 -168 -24 -5 -15 104 -17 113 -2 9 14 165 3 214
-15 l36 -14 -35 1 c-19 0 -62 3 -94 7 -56 7 -226 -16 -243 -32 -3 -4 44 -7
106 -7 119 0 251 -17 251 -32 0 -5 -15 -7 -32 -4 -85 13 -146 16 -168 8 -35
-13 -13 -22 90 -34 49 -6 90 -14 90 -17 0 -3 -4 -12 -9 -19 -6 -11 -26 -8 -98
13 -83 24 -123 25 -123 5 0 -8 104 -43 163 -55 15 -3 27 -10 27 -16 0 -6 -7
-8 -17 -5 -34 13 -150 29 -166 23 -35 -13 -15 -25 62 -37 84 -13 107 -22 97
-38 -3 -6 -26 -5 -63 4 -57 13 -93 11 -93 -6 0 -4 29 -16 65 -25 41 -12 65
-23 65 -32 0 -9 -7 -12 -17 -9 -48 14 -111 17 -118 6 -10 -17 -3 -21 59 -29
60 -8 72 -14 62 -30 -4 -6 -18 -6 -39 0 -47 13 -97 11 -97 -4 0 -8 24 -18 60
-25 79 -17 78 -34 -1 -30 -79 4 -93 -17 -19 -27 44 -6 59 -15 112 -65 64 -62
70 -83 23 -92 -25 -5 -26 -4 -21 27 7 35 -3 51 -52 83 -19 12 -27 13 -30 4 -2
-8 -15 -5 -41 10 -25 14 -44 19 -57 14 -26 -11 -104 -14 -104 -4 0 4 18 8 41
8 53 0 48 23 -7 30 -29 4 -35 7 -21 13 10 4 34 7 54 7 23 0 33 4 30 13 -2 7
-24 12 -58 12 -43 0 -54 3 -57 18 -3 15 5 17 53 17 41 0 55 3 52 13 -2 8 -24
12 -60 12 -31 0 -61 5 -68 13 -14 13 -14 13 53 16 59 2 45 20 -19 26 -46 4
-59 9 -61 23 -3 15 2 18 29 15 38 -4 51 17 17 28 l-23 8 24 6 c35 8 39 30 6
30 -36 0 -68 -18 -61 -36 3 -8 -1 -14 -9 -14 -7 0 -23 25 -34 55 -25 67 -25
69 -5 61 9 -4 23 -1 30 5 7 6 17 9 21 6 14 -8 55 12 48 23 -4 7 -23 8 -49 5
-34 -5 -44 -3 -49 8 -4 10 -14 14 -29 10 -17 -4 -20 -3 -13 6 6 6 39 13 73 15
74 6 88 12 71 32 -9 11 -9 14 0 14 7 0 9 5 6 10 -9 15 -71 12 -113 -6 -20 -9
-47 -16 -59 -15 -13 0 -23 -6 -26 -17 -3 -10 -5 -7 -6 10 -1 31 12 42 54 45
17 1 50 6 75 12 25 6 56 13 70 16 14 3 48 9 75 14 64 12 156 4 253 -21z m367
-52 c-9 -20 -20 -34 -26 -31 -13 9 -63 -25 -53 -35 5 -5 20 -10 34 -12 27 -3
36 -24 20 -48 -8 -13 -11 -12 -23 4 -16 22 -68 26 -91 6 -24 -19 -21 -83 5
-106 14 -12 19 -27 16 -43 -6 -31 41 -81 75 -81 27 0 68 26 68 43 0 7 18 21
41 31 67 33 73 68 17 117 l-30 25 35 24 c20 14 40 34 45 45 11 23 49 43 138
73 l62 20 5 -31 c3 -21 0 -36 -9 -43 -22 -18 -17 -40 17 -68 36 -31 38 -31 68
-10 17 12 26 13 34 5 6 -6 19 -11 29 -11 24 0 23 -27 -2 -40 -14 -7 -25 -7
-38 1 -23 15 -52 6 -52 -16 0 -9 9 -15 25 -15 26 0 33 -21 17 -48 -7 -9 -13
-8 -27 8 -13 14 -29 20 -48 18 -26 -3 -31 2 -40 27 -14 43 -26 55 -55 55 -34
0 -82 -46 -82 -79 0 -13 10 -35 22 -48 l21 -23 -32 -6 c-17 -4 -40 -18 -51
-31 -20 -25 -20 -25 1 -55 29 -41 63 -52 94 -32 23 15 26 15 47 -10 13 -14 35
-28 50 -32 24 -5 29 -2 38 21 6 15 9 44 8 63 -2 28 1 37 15 40 24 5 23 -54 -3
-93 -23 -35 -25 -57 -7 -88 8 -13 11 -34 8 -51 -5 -26 -7 -28 -20 -13 -22 28
-66 21 -95 -14 -14 -17 -26 -37 -26 -44 0 -15 38 -55 52 -55 9 0 6 -29 -5 -46
-4 -7 4 -14 22 -17 42 -9 85 -51 78 -77 -7 -26 14 -36 43 -20 18 10 21 17 15
51 -5 31 -4 39 9 39 27 0 28 20 2 65 -23 42 -23 45 -6 45 10 0 21 3 23 8 8 13
-12 52 -27 52 -31 0 -27 73 5 91 11 5 19 16 19 24 0 7 14 27 30 43 36 37 39
56 8 46 -13 -3 -29 -11 -35 -16 -7 -6 -13 -7 -13 -2 0 15 126 103 185 131 81
36 121 39 199 13 97 -32 101 -46 56 -205 -12 -44 -33 -130 -46 -191 -29 -133
-85 -264 -114 -264 -10 0 -21 -9 -25 -19 -7 -25 -52 -54 -71 -47 -9 3 -14 20
-14 43 0 46 -11 66 -33 57 -13 -4 -15 -15 -10 -53 4 -32 1 -51 -6 -56 -19 -11
-26 3 -27 56 -1 27 -2 54 -3 59 -2 16 -31 12 -37 -5 -9 -21 -24 -8 -24 20 0
30 -12 38 -33 22 -12 -10 -14 -25 -8 -84 4 -40 4 -73 0 -73 -4 0 -9 10 -11 23
-6 41 -33 26 -38 -23 -4 -40 -8 -45 -30 -45 -24 0 -25 2 -22 58 4 52 2 58 -14
55 -20 -3 -31 -34 -33 -89 -1 -31 -5 -37 -25 -41 -30 -6 -46 8 -46 38 0 27
-24 48 -46 40 -12 -5 -15 -14 -11 -35 7 -31 -10 -53 -50 -65 -22 -7 -23 -6
-16 53 5 53 4 61 -11 61 -20 0 -33 -29 -35 -81 -1 -16 -40 -63 -47 -57 -2 2 4
27 13 55 17 55 13 86 -12 77 -8 -3 -12 -11 -8 -17 3 -6 1 -7 -5 -3 -7 4 -14
-4 -18 -21 -4 -15 -15 -43 -26 -60 -18 -30 -24 -33 -68 -33 -27 0 -51 4 -54 8
-3 5 6 30 19 57 15 29 25 66 25 92 l0 44 22 -21 c23 -21 38 -26 38 -11 0 5 -9
13 -21 16 -18 6 -20 12 -14 39 4 17 7 40 7 50 -1 35 26 -4 40 -57 10 -38 10
-52 0 -68 -10 -16 -10 -20 3 -26 19 -7 35 7 39 33 2 11 10 18 20 16 38 -7 39
76 1 134 -12 19 -19 22 -34 15 -10 -6 -21 -7 -25 -4 -3 4 -25 8 -49 9 -23 2
-61 6 -84 10 -42 6 -43 7 -43 45 0 27 4 39 14 39 25 0 48 31 42 56 -5 19 -2
24 12 24 27 0 62 37 62 65 0 14 -9 34 -20 45 -19 19 -19 22 -5 36 19 20 19 47
0 84 -12 23 -22 30 -45 30 -16 0 -31 3 -33 8 -9 13 5 62 15 56 6 -4 14 0 19 7
14 22 11 29 -12 29 -16 0 -20 5 -17 28 3 27 2 27 -52 25 -30 -1 -47 0 -38 3
10 3 15 11 11 20 -3 8 1 14 10 14 8 0 20 13 25 29 7 19 18 31 34 33 13 2 28
13 33 26 7 16 16 21 31 18 32 -8 64 20 64 57 0 24 3 28 12 19 19 -19 46 -14
54 11 4 12 9 17 11 11 2 -6 -4 -27 -12 -48z m867 -19 c33 -26 64 -123 60 -186
-2 -21 -5 -23 -38 -16 -20 3 -47 11 -61 16 -23 9 -24 11 -11 31 9 13 26 25 39
28 15 4 25 14 27 28 4 27 -16 55 -34 48 -12 -5 -24 23 -24 57 0 23 9 22 42 -6z
m-3348 7 c17 -6 22 -24 8 -24 -5 0 -17 7 -28 15 -19 15 -8 20 20 9z m3130 -31
c-34 -25 -51 -14 -19 14 20 18 30 22 33 13 3 -7 -3 -19 -14 -27z m-1722 -38
c20 -23 19 -46 -7 -97 -16 -33 -17 -46 -8 -105 17 -111 53 -183 89 -183 12 0
24 7 28 15 3 8 11 15 18 15 20 1 68 119 68 167 0 55 -14 89 -51 124 -25 24
-28 31 -19 49 23 42 71 15 85 -49 4 -19 25 -63 47 -99 40 -66 56 -106 82 -205
14 -55 14 -59 -4 -77 -11 -11 -20 -33 -20 -50 0 -16 -4 -30 -10 -30 -5 0 -10
4 -10 9 0 8 -73 46 -190 99 -50 22 -87 31 -162 36 -87 6 -98 5 -98 -9 0 -9 -5
-13 -10 -10 -6 4 -8 10 -5 14 2 5 14 53 25 107 37 182 60 277 69 288 15 18 65
13 83 -9z m1648 -20 c0 -27 33 -63 65 -71 12 -3 26 -14 33 -24 11 -17 8 -20
-28 -30 -21 -6 -63 -29 -92 -52 -29 -22 -59 -46 -67 -52 -11 -9 -13 -6 -6 14
4 14 13 39 20 55 7 17 18 50 25 75 8 25 17 49 22 55 11 13 10 47 -2 40 -5 -3
-10 -2 -10 4 0 11 21 20 33 14 4 -2 7 -15 7 -28z m424 -42 c-9 -66 -25 -91
-21 -33 4 44 15 80 24 80 2 0 1 -21 -3 -47z m-1945 -87 c9 -41 9 -65 1 -95 -6
-23 -13 -41 -15 -41 -3 0 -5 39 -4 86 1 50 -4 91 -10 97 -16 16 -14 32 2 18 8
-6 19 -35 26 -65z m-2142 58 c-3 -3 -12 -4 -19 -1 -8 3 -5 6 6 6 11 1 17 -2
13 -5z m2069 -107 c2 -120 -10 -120 -21 1 -4 45 -2 78 5 91 6 12 12 21 13 21
1 0 3 -51 3 -113z m-2122 68 c-4 -8 -8 -15 -10 -15 -2 0 -4 7 -4 15 0 8 4 15
10 15 5 0 7 -7 4 -15z m248 -3 c-13 -9 -35 -26 -49 -38 l-27 -21 27 -18 c15
-9 34 -15 42 -11 17 6 21 36 4 36 -5 0 -7 5 -4 10 3 6 15 10 26 10 12 0 19 7
19 20 0 28 8 27 82 -11 15 -8 52 -38 82 -67 46 -45 55 -58 50 -78 -5 -21 2
-33 45 -72 57 -53 68 -76 19 -39 -18 14 -39 22 -45 20 -7 -3 -13 2 -13 10 0
15 -33 31 -89 42 -18 4 -41 15 -51 25 -14 14 -32 18 -83 17 -53 -2 -67 1 -76
16 -7 10 -23 22 -37 27 -19 8 -24 15 -19 30 12 37 -7 45 -32 14 l-23 -29 0 31
c0 27 6 35 43 54 49 26 84 38 112 39 19 0 19 -1 -3 -17z m-194 -22 c-12 -16
-26 -30 -31 -30 -10 0 9 28 33 47 23 19 23 16 -2 -17z m4122 -20 c0 -23 -4
-30 -20 -30 -18 0 -18 1 -2 30 9 16 18 30 20 30 1 0 2 -13 2 -30z m-4170 -14
c0 -2 -7 -7 -16 -10 -8 -3 -12 -2 -9 4 6 10 25 14 25 6z m25 -56 c-3 -5 -16
-10 -28 -10 -18 0 -19 2 -7 10 20 13 43 13 35 0z m15 -75 c0 -10 -9 -14 -27
-13 -35 2 -45 7 -38 19 10 16 65 11 65 -6z m321 -58 c14 -8 44 -17 67 -21 25
-3 61 -21 87 -40 24 -19 54 -37 65 -41 21 -7 70 -81 70 -106 0 -11 -16 -15
-63 -17 -58 -2 -68 1 -101 27 -21 17 -46 33 -57 36 -10 4 -19 13 -19 22 0 9
-20 38 -45 64 -25 26 -45 57 -45 69 0 24 6 25 41 7z m1269 9 c0 -11 -19 -15
-25 -6 -3 5 1 10 9 10 9 0 16 -2 16 -4z m-1590 -18 c0 -4 -16 -8 -35 -8 -19 0
-35 4 -35 9 0 5 16 9 35 8 19 -1 35 -5 35 -9z m2850 -15 c0 -17 -31 -16 -54 0
-17 12 -15 14 18 13 22 -1 36 -6 36 -13z m-1162 -21 c5 -30 -14 -52 -44 -52
-20 0 -24 5 -24 28 0 15 6 34 12 40 20 20 53 10 56 -16z m297 3 c84 -8 197
-46 262 -90 19 -14 40 -25 45 -25 5 0 13 -11 18 -25 6 -15 15 -23 23 -19 9 3
23 -9 36 -32 20 -34 21 -38 6 -53 -15 -15 -18 -14 -36 8 -17 21 -25 23 -70 18
-62 -8 -127 18 -158 61 -17 24 -31 30 -91 39 -80 13 -85 15 -76 38 4 13 16 14
58 10 29 -4 57 -10 63 -15 12 -9 115 -24 115 -16 0 18 -137 70 -211 80 -26 4
-55 14 -65 22 -11 9 -14 13 -9 11 6 -3 46 -8 90 -12z m-417 -30 c1 -37 -16
-47 -37 -21 -10 12 -9 19 6 34 25 28 30 27 31 -13z m-1558 -7 c0 -6 -7 -7 -16
-4 -9 3 -27 6 -40 6 -14 0 -23 4 -20 8 7 11 76 2 76 -10z m266 -23 c24 -25 44
-54 44 -65 0 -13 12 -25 35 -34 41 -17 54 -41 34 -61 -18 -18 -59 -8 -59 14 0
9 -20 43 -45 76 -42 56 -72 115 -58 115 3 0 25 -20 49 -45z m1511 29 c2 -5 -6
-15 -18 -22 -30 -19 -53 3 -24 24 20 15 37 14 42 -2z m71 -40 c-14 -14 -33
-24 -42 -22 -13 2 -10 10 15 36 23 24 34 31 42 23 8 -8 4 -18 -15 -37z m730
34 c18 -18 14 -46 -9 -58 -27 -15 -49 3 -49 41 0 24 4 29 23 29 13 0 28 -5 35
-12z m-2393 -76 c-8 -8 -53 37 -58 60 -4 15 4 10 29 -17 19 -21 32 -40 29 -43z
m1290 52 c9 -14 15 -27 13 -30 -8 -7 -48 27 -48 42 0 22 16 17 35 -12z m941
18 c7 -4 14 -25 15 -47 4 -36 2 -40 -20 -43 -43 -7 -67 50 -35 82 17 18 24 19
40 8z m244 -39 c0 -7 -10 -17 -21 -24 -20 -10 -21 -9 -16 12 4 13 7 33 7 44 1
20 1 20 15 1 8 -11 15 -26 15 -33z m137 25 c13 -15 22 -40 25 -70 3 -46 2 -46
-23 -41 -43 8 -43 -14 1 -57 22 -22 35 -40 28 -40 -16 1 -98 74 -98 88 0 5 11
17 24 26 36 23 42 53 17 87 -26 36 -5 41 26 7z m-314 -15 c2 -10 8 -27 12 -38
7 -18 6 -18 -8 -5 -18 18 -32 60 -19 60 5 0 12 -8 15 -17z m-2483 -29 c0 -9
-5 -12 -12 -8 -6 4 -25 11 -42 15 -29 7 -29 7 12 8 32 1 42 -3 42 -15z m1720
-4 c10 -6 -1 -9 -35 -8 -55 1 -115 -23 -115 -47 0 -8 3 -15 8 -16 34 -3 115
-1 152 6 35 6 42 5 34 -4 -6 -7 -37 -16 -69 -20 -67 -9 -96 -34 -70 -60 13
-13 18 -12 48 3 18 10 42 16 52 14 16 -4 13 -8 -17 -21 -22 -9 -38 -23 -38
-33 0 -17 19 -16 65 1 l20 8 -20 -21 c-39 -40 -220 -131 -273 -138 -49 -7
-155 -35 -166 -46 -23 -19 -28 -4 -24 69 5 77 5 77 49 115 24 21 49 38 55 38
7 0 47 34 90 76 44 41 88 79 99 84 27 12 136 12 155 0z m1160 -30 c0 -5 -2
-10 -4 -10 -3 0 -8 5 -11 10 -3 6 -1 10 4 10 6 0 11 -4 11 -10z m-1469 -47
c-63 -53 -111 -84 -122 -78 -15 10 -11 25 9 32 9 3 33 19 53 35 35 26 73 46
93 47 5 1 -10 -15 -33 -36z m1215 17 c127 -65 233 -178 234 -251 0 -56 -17
-71 -86 -73 -50 -1 -71 5 -136 37 -49 24 -91 37 -116 37 -26 0 -42 5 -46 15
-4 12 4 15 44 15 27 0 52 5 55 10 9 14 -39 30 -91 30 -24 0 -44 4 -44 9 0 14
22 19 78 16 38 -2 52 1 52 10 0 20 -9 23 -84 27 -105 4 -105 35 1 42 72 4 89
12 72 32 -7 9 -31 14 -65 14 -53 0 -75 12 -52 27 7 4 40 11 73 14 33 3 63 7
66 7 3 1 23 -7 45 -18z m-2446 -25 c0 -11 25 -71 48 -117 2 -5 -1 -8 -6 -8 -5
0 -15 13 -22 29 -6 16 -23 44 -36 62 -31 42 -33 75 -4 59 11 -6 20 -17 20 -25z
m3280 25 c0 -5 -5 -10 -11 -10 -5 0 -7 5 -4 10 3 6 8 10 11 10 2 0 4 -4 4 -10z
m-3460 -42 c0 -5 -21 -8 -46 -8 -27 0 -43 4 -39 10 7 11 85 9 85 -2z m1250 8
c0 -23 -23 -56 -39 -56 -11 0 -23 -4 -26 -10 -3 -5 -18 -10 -33 -10 -24 0 -23
2 16 21 24 12 49 30 55 40 11 17 27 26 27 15z m644 -12 c33 -8 71 -22 83 -30
12 -8 39 -16 60 -19 21 -4 63 -11 93 -17 30 -5 75 -13 101 -17 25 -4 61 -17
81 -29 19 -12 47 -22 61 -22 31 0 35 -11 31 -85 -6 -113 -34 -215 -113 -414
-23 -57 -41 -113 -39 -124 2 -14 30 -34 93 -66 50 -25 96 -54 103 -63 15 -20
21 -21 41 -9 26 17 -8 50 -97 92 -48 22 -89 43 -91 45 -4 4 18 69 59 169 16
39 43 122 60 185 41 150 49 170 69 169 28 -1 46 -13 49 -34 6 -47 1 -215 -8
-289 -5 -45 -12 -138 -16 -208 -6 -127 -5 -128 16 -128 12 0 39 8 59 19 35 18
81 33 203 66 31 8 59 19 62 24 3 5 -2 19 -12 32 -34 44 -70 123 -82 179 -6 30
-18 75 -25 100 -8 25 -16 71 -20 103 l-5 57 35 0 c30 0 35 -3 35 -23 0 -12 14
-39 31 -59 28 -35 33 -37 73 -32 27 4 46 2 50 -5 5 -7 -5 -11 -29 -11 l-36 0
7 -37 c4 -21 13 -60 20 -88 8 -31 9 -54 3 -61 -12 -15 -2 -42 21 -54 12 -6 15
-18 12 -38 -2 -16 1 -33 7 -36 7 -5 6 -14 -5 -31 -8 -13 -22 -72 -30 -132 -8
-59 -21 -133 -30 -163 -9 -30 -26 -97 -39 -148 -38 -148 -64 -231 -101 -317
-19 -44 -34 -91 -34 -104 0 -14 16 -39 39 -62 21 -22 41 -46 44 -54 6 -13 65
-35 98 -35 11 0 14 -7 11 -29 -6 -45 28 -63 96 -49 46 9 55 8 72 -7 12 -11 20
-31 20 -50 0 -18 9 -58 20 -91 18 -50 21 -81 19 -204 -2 -119 1 -153 16 -190
22 -54 39 -75 55 -65 13 8 9 41 -13 100 -11 29 -14 68 -11 153 3 90 0 131 -16
199 -35 148 -25 182 45 149 29 -14 42 -15 76 -6 23 6 59 8 82 5 37 -7 40 -6
34 14 -7 27 4 27 21 1 15 -25 94 -28 147 -6 33 14 53 7 41 -13 -5 -8 -39 -173
-74 -361 -14 -75 -9 -158 11 -173 9 -7 22 -34 28 -62 7 -27 23 -85 36 -128 22
-76 29 -163 17 -224 -4 -23 -18 -35 -67 -61 -89 -47 -248 -112 -257 -107 -8 5
-31 99 -28 113 7 30 -39 371 -53 394 -7 11 -11 10 -24 -2 -12 -13 -13 -26 -6
-70 18 -101 24 -213 12 -206 -6 4 -11 18 -11 32 0 17 -9 30 -28 41 -24 14 -28
23 -29 63 -1 68 -10 88 -55 121 -53 38 -104 40 -118 5 -6 -18 -21 -28 -50 -36
-26 -7 -40 -16 -40 -27 0 -13 -3 -14 -12 -5 -20 20 -79 14 -105 -10 -13 -12
-23 -17 -23 -11 0 7 -11 25 -25 41 -13 16 -22 32 -18 35 7 8 -41 27 -69 27
-12 0 -22 -8 -25 -21 -4 -12 -11 -18 -20 -15 -8 4 -33 9 -56 12 -23 4 -50 11
-60 16 -14 7 -24 5 -40 -10 -12 -11 -37 -27 -54 -36 l-33 -17 0 48 c0 48 -1
49 -54 81 -30 17 -60 32 -68 32 -8 0 -29 11 -46 24 -30 22 -36 23 -72 12 -59
-17 -74 -44 -65 -121 4 -41 3 -65 -4 -70 -18 -11 -12 -47 11 -72 19 -20 20
-25 8 -33 -11 -7 -19 -4 -27 8 -26 36 -35 42 -63 42 -17 0 -37 -9 -48 -21 -11
-11 -34 -22 -53 -24 -49 -7 -66 -28 -52 -65 12 -33 12 -33 -62 -46 -51 -8
-122 -40 -157 -70 -26 -21 -35 -22 -168 -20 -77 1 -143 5 -146 9 -17 17 -34
210 -34 397 1 113 -4 248 -9 300 -6 52 -13 156 -16 230 -6 133 -8 161 -20 251
-25 189 -36 357 -51 814 -3 83 -9 164 -13 181 -5 18 -9 82 -10 143 0 111 0
111 24 111 32 0 75 17 75 30 0 5 -6 10 -12 10 -21 0 -51 88 -49 141 1 26 -3
50 -8 54 -5 3 -29 2 -52 -1 -53 -9 -93 -45 -84 -75 5 -15 4 -19 -4 -15 -13 9
-15 71 -2 95 13 23 100 95 107 88 3 -3 1 -14 -5 -25 -8 -15 -7 -23 4 -32 18
-15 40 -1 50 31 4 13 16 19 36 19 17 0 32 6 35 15 4 8 13 15 22 15 14 0 14 -2
0 -17 -10 -11 -19 -48 -23 -94 -6 -68 -10 -78 -31 -88 -28 -12 -32 -46 -8 -79
16 -23 48 -29 60 -11 3 6 15 8 26 6 11 -3 38 4 59 15 31 16 38 25 34 39 -5 15
-1 19 18 19 13 0 27 3 30 6 10 10 77 10 77 1 0 -13 -62 -172 -71 -181 -5 -6
-9 -16 -9 -23 0 -23 -84 -163 -118 -198 -51 -51 -46 -59 93 -137 57 -33 90
-31 59 3 -11 12 -35 30 -54 40 -19 10 -44 25 -54 34 -19 15 -19 16 6 42 58 63
117 183 187 383 19 54 34 78 51 87 13 7 25 11 27 10 4 -5 -28 -244 -41 -302
-8 -33 -26 -98 -40 -145 -60 -192 -60 -188 -45 -206 11 -14 26 -16 84 -11 79
7 156 21 230 44 28 8 74 17 103 20 61 7 72 21 47 59 -17 26 -62 143 -96 249
-10 33 -28 121 -39 195 -11 74 -23 152 -26 172 -5 29 -3 39 9 44 10 4 21 28
28 65 6 32 14 59 16 59 3 0 33 -7 67 -16z m-1331 -7 c30 -13 68 -47 52 -47
-15 0 -95 44 -95 52 0 11 5 10 43 -5z m-401 -115 c17 -34 35 -65 39 -68 5 -3
9 -14 9 -25 0 -43 40 -104 87 -134 27 -16 53 -31 58 -34 6 -2 27 -15 48 -28
33 -23 43 -25 90 -19 28 4 57 7 62 6 6 0 45 -3 88 -6 47 -4 77 -11 78 -18 0
-6 1 -31 2 -56 l2 -45 -85 3 c-47 2 -104 10 -128 18 -23 8 -51 14 -62 14 -10
0 -47 7 -82 16 -35 9 -75 16 -90 16 -18 0 -28 5 -31 19 -4 17 -3 18 9 8 34
-28 54 41 22 76 -12 13 -41 -24 -34 -42 3 -7 2 -13 -3 -13 -5 0 -14 21 -21 48
-7 26 -21 63 -30 82 -27 55 -69 181 -79 235 -9 46 -8 48 6 30 8 -11 29 -48 45
-83z m551 83 c11 -7 25 -11 32 -9 16 7 55 -13 55 -26 0 -15 -51 -11 -80 5 -14
8 -41 15 -60 16 -19 1 -27 3 -17 6 9 2 17 9 17 14 0 14 32 10 53 -6z m-708
-26 c5 -7 -12 -9 -49 -8 -31 1 -56 6 -56 11 0 12 98 10 105 -3z m513 -4 c46
-8 39 -34 -18 -62 -77 -40 -150 -23 -198 44 l-21 29 102 -2 c56 -2 117 -6 135
-9z m175 -40 l58 -7 -24 -18 c-18 -14 -34 -17 -68 -13 -62 8 -84 20 -68 39 6
8 19 12 28 10 9 -2 42 -7 74 -11z m315 0 c7 -6 -12 -35 -26 -40 -26 -9 -60
-58 -67 -97 -5 -29 -2 -40 18 -64 14 -15 35 -29 48 -29 13 -1 35 -7 47 -14 13
-7 35 -10 48 -7 17 5 26 1 34 -14 11 -20 9 -21 -27 -18 -21 2 -43 9 -49 17
-10 13 -22 13 -80 2 -82 -15 -277 -20 -284 -7 -3 5 36 8 88 7 91 -2 162 11
162 30 0 6 -38 9 -97 7 -87 -3 -98 -1 -95 14 3 17 -30 34 -47 24 -5 -3 -22 1
-37 9 -16 8 -34 15 -40 15 -21 0 -64 42 -64 62 0 36 24 44 95 34 58 -9 64 -12
69 -37 6 -34 26 -45 91 -52 49 -5 51 -4 93 39 23 24 42 49 42 54 0 20 -32 9
-62 -20 -40 -40 -84 -41 -99 -3 -9 24 -7 30 11 45 13 11 39 18 62 18 32 0 41
4 45 21 5 19 10 20 62 14 31 -4 57 -8 59 -10z m-1088 -9 c0 -11 -19 -15 -25
-6 -3 5 1 10 9 10 9 0 16 -2 16 -4z m90 -24 c0 -12 -3 -13 -12 -4 -7 7 -25 12
-40 12 -15 0 -28 3 -28 8 0 4 18 6 40 4 28 -3 40 -9 40 -20z m2910 -112 c-23
-104 -48 -146 -72 -122 -9 9 -6 18 12 37 25 27 58 113 61 160 2 27 2 28 6 5 3
-14 0 -50 -7 -80z m-2599 80 c5 0 9 -9 9 -20 0 -57 64 -120 142 -141 41 -11
49 -11 65 4 16 14 26 15 81 4 34 -6 62 -15 62 -19 0 -5 -25 -8 -55 -8 -37 0
-68 -7 -96 -22 l-42 -22 -15 22 c-8 13 -25 22 -39 22 -30 0 -127 61 -148 94
-20 31 -11 101 12 92 8 -3 19 -6 24 -6z m-322 -10 c13 0 16 -14 17 -87 1 -71
-1 -83 -11 -69 -8 11 -25 16 -46 15 -77 -4 -95 11 -21 18 55 5 62 10 62 40 0
42 -11 52 -63 55 -38 2 -47 6 -47 22 0 17 5 18 46 12 26 -3 54 -6 63 -6z m475
-11 c-7 -12 10 -52 35 -81 11 -15 11 -18 1 -18 -33 0 -78 25 -98 54 -28 42
-28 44 11 49 17 2 38 5 45 5 7 1 10 -3 6 -9z m1249 1 c22 -1 22 -1 3 -15 -11
-8 -31 -15 -44 -15 -38 0 -20 -25 21 -28 47 -4 49 -28 5 -37 -18 -4 -42 -9
-52 -12 -17 -5 -18 -1 -13 28 10 60 26 92 43 85 9 -3 25 -6 37 -6z m1879 -34
c3 -14 1 -31 -3 -38 -6 -8 -9 1 -9 25 0 42 6 48 12 13z m-3645 -32 c-3 -3 -12
-4 -19 -1 -8 3 -5 6 6 6 11 1 17 -2 13 -5z m2668 -24 c3 -10 12 -21 20 -24 22
-8 18 -24 -7 -28 -35 -5 -34 -28 1 -28 24 0 31 -4 31 -20 0 -11 1 -23 2 -27 1
-5 -11 -10 -28 -13 -39 -7 -37 -24 4 -28 17 -2 32 -7 32 -12 0 -5 -15 -10 -32
-12 -44 -4 -38 -22 8 -28 44 -6 56 -27 22 -35 -14 -4 -28 -5 -34 -4 -22 4 -34
-2 -34 -17 0 -13 8 -15 51 -9 41 6 50 4 47 -6 -3 -8 -20 -18 -39 -23 -43 -12
-47 -15 -30 -25 7 -5 28 -5 47 -1 26 6 34 5 34 -6 0 -9 -12 -14 -37 -14 -40 0
-72 -14 -61 -26 7 -7 63 -8 102 -2 10 2 21 -2 23 -8 2 -7 -14 -14 -38 -18 -51
-8 -82 -24 -73 -37 3 -5 15 -7 26 -3 12 4 18 2 14 -4 -3 -5 -19 -12 -36 -15
-32 -7 -42 -27 -12 -27 9 0 48 8 85 19 37 10 70 15 73 10 2 -4 -15 -13 -38
-19 -24 -6 -74 -22 -112 -35 -38 -14 -71 -23 -74 -20 -2 2 3 89 12 193 9 104
16 233 16 285 0 80 2 95 15 91 8 -3 17 -14 20 -24z m-880 -55 c0 -16 -8 -21
-48 -25 -66 -7 -59 -25 9 -24 51 1 55 0 52 -20 -3 -18 -12 -22 -58 -26 -40 -4
-55 -9 -55 -20 0 -16 16 -18 81 -7 34 6 43 4 48 -9 9 -23 4 -26 -60 -33 -36
-4 -59 -11 -62 -20 -4 -12 8 -13 67 -8 39 3 71 3 71 -1 0 -14 -55 -32 -96 -32
-24 0 -47 -6 -53 -14 -17 -21 -3 -24 64 -15 85 11 111 11 100 0 -10 -9 -75
-20 -127 -20 -18 -1 -28 -6 -28 -16 0 -12 14 -14 90 -8 63 4 90 3 90 -5 0 -14
-63 -32 -112 -32 -42 0 -68 -8 -68 -21 0 -12 117 -11 160 1 25 7 36 7 42 -2
12 -20 -13 -27 -120 -34 -55 -4 -106 -10 -113 -14 -21 -14 1 -30 31 -23 18 3
30 1 30 -5 0 -6 -10 -12 -22 -14 -15 -2 -22 -9 -20 -19 3 -19 -25 -29 -80 -29
-43 0 -43 0 -24 55 48 134 90 311 98 415 3 32 6 35 43 41 58 9 70 6 70 -16z
m1736 -53 c4 -11 20 -27 34 -35 l27 -14 -26 -16 c-22 -15 -26 -15 -26 -3 0 22
-28 46 -53 46 -34 0 -72 -24 -69 -43 2 -12 -4 -17 -23 -17 -36 0 -82 -26 -90
-51 -5 -14 0 -28 16 -45 l22 -23 -28 -11 c-15 -6 -32 -13 -37 -17 -6 -3 -5 4
1 16 7 12 9 26 6 31 -9 15 -71 12 -84 -4 -9 -11 -5 -18 21 -34 34 -22 34 -21
-17 -37 -10 -3 -14 2 -12 17 2 24 -11 32 -33 18 -12 -7 -12 -12 4 -29 19 -21
19 -21 -6 -21 -26 0 -45 24 -28 35 16 10 11 43 -8 57 -10 7 -22 25 -25 39 -5
21 -3 28 13 32 26 7 25 32 -2 51 -26 18 -18 32 10 17 11 -6 22 -8 25 -5 2 3 9
-8 15 -25 15 -41 39 -52 89 -39 52 13 87 44 79 70 -5 21 12 58 27 58 5 0 7
-10 5 -21 -6 -43 45 -51 54 -9 4 17 53 37 87 35 15 -1 28 -11 32 -23z m113
-88 c-55 -52 -123 -109 -152 -127 -30 -17 -69 -42 -89 -55 -43 -28 -109 -52
-144 -52 -14 0 -29 -4 -35 -10 -5 -5 -48 -12 -96 -14 -77 -5 -86 -3 -91 13 -4
17 5 19 84 23 63 4 98 11 122 25 18 11 51 26 73 33 21 7 46 18 54 25 8 6 38
24 65 40 93 52 240 153 270 185 16 17 31 26 33 20 3 -7 -40 -54 -94 -106z
m-3674 96 c-19 -13 -30 -13 -30 0 0 6 10 10 23 10 18 0 19 -2 7 -10z m1111
-34 c13 -6 16 -24 15 -99 -1 -78 7 -228 29 -547 3 -36 7 -155 9 -265 4 -175
11 -252 32 -355 2 -14 9 -104 14 -200 5 -96 12 -188 16 -205 5 -27 13 -368 16
-700 1 -92 7 -163 24 -244 12 -62 25 -150 29 -195 4 -44 11 -121 16 -171 5
-49 9 -95 9 -101 0 -9 -41 -34 -55 -34 -3 0 -5 9 -5 19 0 16 -8 19 -47 20 -27
1 -56 2 -66 2 -13 0 -16 6 -11 24 4 17 0 26 -16 35 -12 6 -28 9 -35 6 -15 -5
-45 18 -45 35 0 5 9 9 20 9 29 0 37 24 28 98 -4 37 -7 148 -8 247 0 99 -2 200
-5 225 -3 25 -5 110 -5 190 -1 187 -23 511 -36 532 -4 6 -15 -13 -25 -42 -15
-44 -17 -67 -10 -153 4 -56 9 -194 10 -307 1 -113 6 -234 10 -270 5 -36 9
-162 9 -281 l2 -217 -48 6 c-26 2 -52 8 -58 13 -12 10 -11 1113 2 1279 5 58 8
290 7 515 -2 376 -4 426 -27 607 -15 108 -26 238 -26 289 0 51 -5 119 -12 151
-7 31 -9 60 -6 63 3 4 30 8 59 10 30 3 68 9 84 13 34 10 82 9 106 -2z m-1023
-8 c7 -7 12 -19 11 -27 0 -11 -2 -12 -6 -3 -3 7 -25 12 -56 13 -37 0 -46 3
-32 8 11 5 23 7 27 5 4 -3 9 0 13 6 8 14 28 13 43 -2z m3002 -27 c0 -9 -41
-23 -48 -16 -2 2 -1 8 3 14 8 13 45 15 45 2z m-74 -36 c-9 -9 -16 -13 -16 -8
0 12 22 34 28 28 2 -2 -3 -11 -12 -20z m814 -26 c0 -5 -5 -9 -10 -9 -10 0 -30
41 -30 58 1 10 40 -39 40 -49z m-3735 31 c-3 -5 -12 -10 -18 -10 -7 0 -6 4 3
10 19 12 23 12 15 0z m3640 -20 c-8 -25 10 -50 35 -50 10 0 21 -7 24 -16 8
-22 9 -22 -19 -17 -13 3 -31 16 -40 29 -9 14 -20 22 -26 18 -5 -3 -18 -3 -27
1 -15 6 -13 10 13 31 37 29 48 30 40 4z m-3745 1 c0 -6 -4 -13 -10 -16 -5 -3
-10 1 -10 9 0 9 5 16 10 16 6 0 10 -4 10 -9z m37 3 c-3 -3 -12 -4 -19 -1 -8 3
-5 6 6 6 11 1 17 -2 13 -5z m3455 -26 c-7 -7 -12 -8 -12 -2 0 6 3 14 7 17 3 4
9 5 12 2 2 -3 -1 -11 -7 -17z m-3385 -29 c2 -19 -2 -21 -29 -15 -17 3 -38 6
-47 7 -12 0 42 23 69 28 3 1 6 -9 7 -20z m313 -28 c0 -27 18 -36 38 -18 9 8
22 13 27 12 6 -2 36 -11 69 -21 l58 -18 -7 -290 c-9 -348 -10 -524 -5 -669 3
-90 6 -110 21 -121 17 -11 18 -22 11 -102 -13 -168 -7 -445 17 -869 9 -139 7
-289 -4 -360 -7 -47 -8 -336 -1 -342 19 -19 31 25 33 115 1 53 7 167 13 252 7
85 9 188 6 230 -3 41 -8 131 -12 199 -3 68 -7 138 -9 155 -12 100 -15 471 -4
556 6 52 13 178 14 280 1 102 5 223 9 270 4 48 9 117 10 155 2 39 5 76 7 84 6
22 -28 25 -40 3 -5 -10 -12 -84 -15 -163 -2 -79 -9 -155 -15 -169 -11 -25 -9
105 5 300 2 41 5 169 5 284 l1 209 72 -6 c40 -3 80 -1 89 5 16 8 17 4 15 -49
-1 -54 11 -250 32 -513 12 -139 12 -920 1 -1005 -5 -33 -9 -50 -10 -37 -1 24
-27 40 -41 26 -5 -5 -2 -27 6 -49 11 -30 13 -67 8 -150 -3 -60 -1 -146 4 -191
5 -44 6 -103 1 -130 -4 -27 -3 -80 2 -119 6 -38 12 -168 14 -287 2 -119 8
-225 14 -236 5 -10 8 -28 5 -39 -3 -12 -1 -24 5 -27 7 -4 11 -41 11 -91 0
-111 16 -187 38 -183 11 2 16 12 14 28 -1 14 -5 78 -8 143 l-7 117 37 0 c33 0
36 -2 36 -29 0 -17 4 -32 9 -35 7 -5 15 -102 13 -171 -1 -38 8 -65 22 -65 19
0 25 43 19 137 -5 73 -4 83 11 83 18 0 22 -15 5 -25 -6 -4 -7 -14 -3 -24 3 -9
8 -59 10 -112 2 -53 6 -103 9 -111 10 -26 -21 -41 -74 -35 -29 3 -53 1 -59 -5
-7 -7 -18 -4 -38 11 -15 11 -35 21 -45 21 -11 0 -19 1 -19 3 0 1 -5 56 -10
122 -5 66 -18 219 -29 340 -11 121 -25 310 -31 420 -6 110 -18 261 -27 335
-23 202 -27 356 -13 467 15 123 22 404 10 423 -8 12 -12 12 -22 2 -9 -9 -14
-58 -15 -171 -1 -87 -7 -209 -14 -272 -13 -136 -2 -363 25 -506 3 -11 7 -96
10 -189 4 -93 9 -194 11 -224 10 -109 15 -178 30 -360 30 -365 38 -422 59
-418 12 3 86 -52 86 -64 0 -5 -24 -8 -52 -8 -65 0 -127 -16 -153 -40 -11 -10
-30 -21 -43 -25 -19 -5 -22 -3 -20 17 2 17 -3 24 -21 26 -13 2 -28 -1 -34 -7
-15 -15 -107 -14 -112 1 -2 7 -6 31 -10 53 -6 39 -5 40 12 19 43 -52 134 -61
196 -19 64 44 36 63 -38 25 -53 -27 -81 -25 -110 6 -27 29 -30 45 -16 73 8 13
1 35 -26 87 -34 66 -35 72 -29 144 3 41 9 131 12 200 3 69 9 163 14 208 4 46
6 91 4 100 -3 10 -8 82 -13 162 -6 111 -5 149 4 160 8 9 10 23 5 35 -5 11 -9
32 -9 48 -1 15 -6 27 -12 27 -6 0 -7 5 -2 13 4 6 9 31 10 55 3 32 0 42 -12 42
-19 0 -19 10 -1 35 8 12 15 53 16 105 5 133 3 152 -17 148 -14 -3 -17 -22 -19
-141 -2 -76 -6 -142 -9 -148 -4 -5 -3 -14 1 -20 4 -8 9 -7 15 2 6 10 9 8 9 -8
0 -13 -4 -23 -10 -23 -6 0 -8 -35 -6 -87 2 -49 0 -92 -4 -98 -3 -5 -3 -66 2
-135 4 -69 6 -174 3 -235 -3 -60 -7 -148 -10 -195 -2 -47 -7 -141 -11 -210 -6
-118 -5 -129 16 -170 l22 -43 -21 -17 c-17 -12 -22 -27 -23 -65 -1 -28 2 -59
7 -69 5 -12 3 -35 -6 -60 -12 -34 -23 -46 -68 -69 -54 -27 -129 -38 -116 -17
13 21 -15 40 -41 29 -14 -5 -56 -9 -94 -9 l-69 0 -13 42 c-8 29 -9 43 -2 45 6
2 28 12 49 23 33 17 39 17 53 4 25 -25 36 -1 37 82 1 55 6 79 16 84 24 14 92
119 95 148 14 124 20 219 22 410 1 74 6 121 11 117 6 -3 14 2 19 11 5 10 9
-106 10 -297 2 -374 -1 -396 -78 -468 -55 -51 -68 -86 -47 -116 11 -14 25 -19
51 -17 27 2 36 -1 36 -13 0 -20 13 -19 40 3 17 13 21 24 16 40 -8 25 -23 27
-61 10 -18 -8 -29 -8 -36 -1 -8 8 1 25 33 60 63 67 90 149 90 268 -1 136 0
779 0 955 0 85 -2 279 -4 430 -4 260 1 413 17 452 7 17 -19 38 -31 25 -24 -24
-31 -318 -19 -736 7 -212 -3 -257 -23 -109 -12 89 -24 318 -21 433 0 39 2 240
3 447 1 334 0 378 -14 375 -12 -2 -15 11 -13 73 3 170 7 199 24 189 22 -11 29
-2 29 38 0 19 5 44 12 56 6 12 10 49 9 82 -1 33 3 85 9 115 17 90 70 181 70
121z m-84 -27 c-33 -67 -47 -102 -62 -164 -9 -35 -21 -74 -27 -85 -6 -11 -14
-54 -17 -95 l-7 -75 -1 80 c-1 45 3 86 8 91 6 6 15 38 21 73 12 78 43 161 70
190 27 29 34 22 15 -15z m2723 -27 c1 -5 -3 -5 -9 -2 -5 3 -10 16 -9 28 0 21
1 21 9 2 5 -11 9 -24 9 -28z m-2956 14 c4 -1 7 -5 7 -9 0 -9 -119 4 -129 13
-4 4 69 2 122 -4z m3860 -115 c22 -52 36 -99 33 -105 -4 -5 -2 -12 4 -16 16
-10 12 -35 -5 -35 -18 0 -36 42 -38 88 0 17 -4 32 -8 32 -18 0 -39 34 -39 61
0 16 -5 29 -10 29 -6 0 -5 8 2 20 7 11 15 20 18 20 3 0 22 -42 43 -94z m-3853
53 c0 -7 -122 -20 -128 -14 -2 2 -2 7 1 12 6 9 127 11 127 2z m3578 -61 c10
-29 22 -68 25 -85 6 -28 4 -33 -13 -33 -23 0 -26 -22 -6 -39 11 -10 17 -8 25
6 6 10 11 15 11 11 0 -17 2 -24 11 -41 8 -13 5 -19 -11 -25 -20 -8 -21 -9 -4
-23 9 -7 20 -13 23 -11 3 1 7 -6 9 -18 2 -13 -2 -20 -13 -20 -14 0 -16 -7 -10
-42 11 -78 -13 -17 -50 124 -19 73 -38 143 -41 156 -5 18 -3 21 10 16 12 -5
16 0 16 16 0 19 -4 21 -25 16 -30 -8 -35 17 -7 33 27 16 29 14 50 -41z m-238
23 c0 -11 5 -23 10 -26 6 -3 10 -23 10 -44 0 -20 9 -86 20 -146 11 -60 20
-114 20 -121 0 -7 -16 -18 -35 -24 -19 -6 -39 -19 -44 -27 -6 -11 -12 10 -21
68 -14 100 -11 145 10 141 20 -5 40 26 40 62 0 42 -13 59 -44 59 -51 0 -26 72
27 76 4 1 7 -8 7 -18z m452 -77 c10 -18 29 -67 44 -110 21 -64 24 -81 14 -99
-10 -18 -9 -27 5 -49 10 -14 21 -26 25 -26 9 0 40 -84 40 -107 0 -10 -5 -11
-19 -3 -13 7 -28 7 -46 0 -14 -5 -28 -10 -30 -10 -7 0 -17 38 -30 114 -8 43
-20 85 -29 95 -20 22 -10 77 11 60 10 -9 17 -9 25 -1 16 16 -1 34 -28 28 -20
-5 -24 -2 -29 31 -4 21 -14 58 -23 83 -22 58 -22 58 8 73 23 12 26 11 35 -17
6 -17 18 -45 27 -62z m-1085 70 c-3 -3 -12 -4 -19 -1 -8 3 -5 6 6 6 11 1 17
-2 13 -5z m-2709 -16 c-6 -16 -108 -24 -108 -9 0 5 21 12 48 14 26 2 51 4 55
5 5 1 7 -4 5 -10z m3676 -40 c16 -49 12 -66 -11 -56 -6 2 -40 88 -43 106 0 1
8 2 18 2 14 0 24 -14 36 -52z m-228 32 c19 0 28 -8 38 -32 26 -63 28 -78 13
-78 -32 0 -45 -33 -43 -109 1 -63 4 -75 25 -92 22 -18 30 -21 75 -23 15 -1 24
-19 43 -86 40 -138 39 -134 13 -127 -39 10 -63 -10 -57 -48 5 -30 -6 -55 -24
-55 -4 0 -13 16 -19 35 -6 19 -15 33 -18 31 -4 -2 -8 11 -9 29 -1 25 3 34 18
38 10 3 22 12 25 21 7 18 -31 76 -51 76 -9 0 -16 19 -20 58 -4 31 -17 111 -30
177 -35 181 -37 198 -19 191 9 -3 27 -6 40 -6z m-216 -9 c0 -13 -74 -41 -78
-30 -9 23 9 39 43 39 19 0 35 -4 35 -9z m-1517 -8 c-7 -2 -21 -2 -30 0 -10 3
-4 5 12 5 17 0 24 -2 18 -5z m1391 -33 c15 -32 7 -41 -14 -15 -15 18 -66 20
-77 3 -4 -7 -10 -42 -13 -77 -6 -81 -30 -98 -30 -22 0 28 5 51 10 51 6 0 10 7
10 15 0 8 -4 15 -10 15 -15 0 -12 47 3 53 6 3 33 6 59 6 42 1 48 -2 62 -29z
m-3109 -10 c4 -6 -20 -10 -64 -10 -41 0 -71 4 -71 10 0 6 28 10 64 10 36 0 68
-4 71 -10z m1702 4 c-3 -3 -12 -4 -19 -1 -8 3 -5 6 6 6 11 1 17 -2 13 -5z
m1493 -140 c0 -2 -11 -9 -25 -14 -56 -21 -9 -100 60 -100 l33 0 8 -67 c4 -38
8 -70 9 -73 2 -6 11 -72 25 -178 6 -46 14 -91 17 -100 6 -15 4 -15 -14 1 -11
9 -25 17 -31 17 -6 0 -19 14 -29 31 -16 28 -22 30 -55 26 -25 -3 -38 -1 -39 6
-1 7 -2 37 -4 67 -2 30 -9 132 -16 226 -7 94 -9 179 -6 188 6 16 10 16 37 -4
16 -12 30 -23 30 -26z m-107 -86 c7 -59 9 -55 -18 -60 -17 -2 -20 3 -23 40 -3
40 10 72 28 72 4 0 10 -23 13 -52z m-3093 -13 c0 -9 -19 -14 -67 -17 -77 -4
-77 -4 -70 16 8 20 137 22 137 1z m122 -157 c3 -76 1 -138 -3 -138 -11 0 -14
69 -11 219 3 103 9 67 14 -81z m2888 -18 c0 -131 -1 -140 -19 -140 -11 0 -26
-2 -33 -5 -12 -5 -13 6 -7 62 5 37 8 75 8 84 1 9 10 19 22 22 22 6 23 44 1 40
-7 -2 -12 0 -13 5 0 4 -2 17 -3 30 -2 20 16 41 37 42 4 0 7 -63 7 -140z
m-3010 100 c0 -6 -17 -10 -39 -10 -21 0 -54 -3 -72 -6 -24 -5 -31 -3 -24 4 9
10 28 13 108 19 15 1 27 -2 27 -7z m3783 -52 c4 -18 9 -49 12 -68 l7 -35 -26
40 c-14 22 -26 52 -26 68 0 39 26 35 33 -5z m-900 -58 c-5 -29 -14 -55 -20
-57 -14 -5 -9 41 9 90 15 40 19 28 11 -33z m-2885 35 c11 -10 -5 -13 -55 -8
-29 3 -50 10 -47 15 6 9 92 3 102 -7z m4015 -27 c8 -24 18 -51 22 -62 6 -14 4
-17 -9 -15 -13 3 -51 82 -56 117 0 1 6 2 14 2 8 0 21 -19 29 -42z m-266 -66
c1 -9 14 -51 28 -92 40 -113 41 -118 14 -122 -16 -2 -24 -10 -24 -23 0 -28 30
-30 41 -4 10 21 11 20 32 -20 12 -23 22 -44 22 -46 0 -8 -36 -6 -44 3 -4 4
-20 7 -34 7 -29 0 -30 2 -80 225 l-19 85 32 2 c23 2 31 -2 32 -15z m-3747 -12
c0 -5 -7 -10 -16 -10 -8 0 -12 5 -9 10 3 6 10 10 16 10 5 0 9 -4 9 -10z m3110
-135 l0 -112 -25 5 c-23 4 -25 9 -25 57 0 44 3 53 18 51 25 -2 21 28 -5 32
-20 3 -23 9 -23 46 0 42 1 42 30 38 l30 -4 0 -113z m276 79 c20 -14 29 -15 51
-5 32 15 38 7 53 -69 6 -30 15 -69 21 -86 14 -46 12 -49 -28 -51 -39 -2 -56
-18 -49 -46 4 -16 -30 -45 -41 -34 -2 3 -9 50 -13 105 -5 54 -11 111 -14 126
-19 89 -20 86 20 60z m685 -32 c9 -26 19 -55 23 -64 5 -11 4 -18 -2 -18 -14 0
-65 108 -57 120 12 19 20 10 36 -38z m-3948 1 c4 -19 2 -33 -3 -33 -6 0 -10
17 -10 37 0 43 5 41 13 -4z m3755 23 c-7 -8 -15 -12 -17 -11 -5 6 10 25 20 25
5 0 4 -6 -3 -14z m-3963 -6 c-3 -5 -16 -10 -28 -10 -18 0 -19 2 -7 10 20 13
43 13 35 0z m90 0 c8 -13 -15 -13 -35 0 -12 8 -11 10 7 10 12 0 25 -4 28 -10z
m-42 -57 c-18 -2 -48 -2 -65 0 -18 2 -4 4 32 4 36 0 50 -2 33 -4z m163 -38
c-4 -41 -16 -41 -16 -1 0 20 4 35 9 31 5 -3 8 -17 7 -30z m3870 6 c25 -1 33
-8 51 -45 15 -30 18 -47 11 -54 -15 -15 0 -34 22 -27 33 10 32 -15 0 -45 -38
-35 -50 -38 -50 -10 0 23 -19 26 -39 8 -11 -11 -12 -9 -7 8 5 16 -5 37 -39 82
-55 73 -58 93 -12 88 17 -2 46 -4 63 -5z m-1100 -88 c-3 -43 -5 -85 -5 -93 -1
-9 -10 -16 -22 -16 -19 0 -21 4 -15 45 3 24 10 49 15 55 4 6 11 28 15 49 11
61 17 42 12 -40z m686 44 c10 -8 14 -22 11 -38 -7 -36 18 -53 71 -47 l44 5 36
-120 c20 -67 33 -124 29 -128 -5 -4 -20 3 -35 16 -16 14 -23 27 -18 30 14 9 3
25 -17 25 -10 0 -14 -6 -10 -20 5 -20 -23 -37 -43 -25 -10 6 -36 88 -46 141
-3 15 -7 31 -10 36 -11 18 -42 138 -36 138 4 0 14 -6 24 -13z m-3587 -7 c3 -5
2 -10 -4 -10 -5 0 -13 5 -16 10 -3 6 -2 10 4 10 5 0 13 -4 16 -10z m-90 -10
c4 -6 -6 -10 -22 -10 -22 0 -25 2 -13 10 19 12 27 12 35 0z m4045 -101 c0 -20
-19 -7 -39 27 -31 52 -26 63 9 19 17 -21 30 -42 30 -46z m-4050 51 c8 -5 12
-11 10 -14 -8 -7 -60 6 -60 15 0 12 31 11 50 -1z m217 -42 c-2 -13 -4 -5 -4
17 -1 22 1 32 4 23 2 -10 2 -28 0 -40z m2680 39 c24 -14 19 -33 -11 -38 -28
-6 -32 -29 -7 -36 17 -4 20 -10 15 -27 -9 -29 -11 -31 -28 -17 -23 20 -28 46
-16 91 12 44 14 45 47 27z m315 -2 c4 -5 8 -22 8 -37 0 -24 -4 -28 -30 -28
-28 0 -30 2 -30 38 0 34 3 38 23 38 12 -1 25 -5 29 -11z m232 -107 c7 -47 7
-48 -19 -48 -43 0 -85 -30 -85 -60 0 -14 5 -31 12 -38 9 -9 7 -13 -5 -18 -9
-3 -23 -4 -31 -1 -14 6 -36 87 -36 136 0 25 3 27 30 23 24 -3 36 2 60 28 19
20 30 43 30 60 0 16 6 30 13 33 12 4 17 -13 31 -115z m-3339 102 c8 -13 -5
-13 -25 0 -13 8 -13 10 2 10 9 0 20 -4 23 -10z m-27 -46 c12 -4 22 -13 22 -20
0 -12 -5 -12 -31 1 -20 11 -45 15 -75 11 -24 -2 -44 0 -44 5 0 10 92 12 128 3z
m3038 -18 c1 -1 4 -40 7 -89 5 -95 8 -90 -58 -99 -25 -3 -25 -5 -25 106 l0 95
38 -6 c20 -3 38 -6 38 -7z m-2886 -6 c0 -5 -5 -10 -11 -10 -5 0 -7 5 -4 10 3
6 8 10 11 10 2 0 4 -4 4 -10z m3870 -15 c11 -13 8 -15 -15 -15 -23 0 -26 2
-15 15 7 8 14 15 15 15 1 0 8 -7 15 -15z m-4080 -26 c0 -5 -16 -9 -35 -9 -46
0 -46 14 0 17 19 1 35 -3 35 -8z m83 -19 c-6 -23 -19 -26 -26 -6 -5 13 5 23
25 25 3 1 4 -8 1 -19z m2870 4 c18 -7 23 -39 7 -49 -23 -14 -50 6 -50 37 0 20
4 28 13 24 6 -3 20 -9 30 -12z m-3008 -34 c3 -5 -1 -10 -10 -10 -9 0 -13 5
-10 10 3 6 8 10 10 10 2 0 7 -4 10 -10z m262 -18 c3 -17 4 -378 1 -390 -1 -4
1 -23 5 -43 4 -20 3 -47 -1 -60 -13 -33 -21 101 -22 335 0 165 6 219 17 158z
m-209 -1 c3 -8 -1 -12 -9 -9 -7 2 -15 10 -17 17 -3 8 1 12 9 9 7 -2 15 -10 17
-17z m3552 -35 c0 -6 10 -20 22 -33 l21 -23 -35 0 c-34 0 -37 3 -52 47 -9 26
-16 48 -16 49 0 2 13 -5 30 -14 16 -9 30 -21 30 -26z m-3468 5 c3 -21 1 -28
-9 -24 -14 6 -18 53 -4 53 5 0 11 -13 13 -29z m-78 -48 c5 -11 2 -13 -10 -9
-8 3 -27 6 -40 6 -13 0 -24 6 -24 13 0 18 67 9 74 -10z m3215 6 c-8 -5 -25 -8
-39 -8 -24 1 -24 1 5 14 31 14 57 9 34 -6z m-3129 -50 c0 -24 -23 -21 -28 4
-2 10 3 17 12 17 10 0 16 -9 16 -21z m-80 -9 c0 -3 -4 -11 -9 -19 -7 -11 -17
-12 -42 -5 -48 14 -45 29 6 29 25 0 45 -2 45 -5z m90 -68 c0 -11 -7 -18 -20
-18 -20 0 -27 16 -13 29 13 13 33 7 33 -11z m-96 -27 c4 -11 -1 -15 -19 -15
-16 0 -25 6 -25 15 0 8 9 15 19 15 10 0 21 -7 25 -15z m104 -405 c0 -151 0
-281 0 -287 -1 -7 -14 -13 -30 -13 -21 0 -28 5 -28 19 0 11 9 23 20 26 26 8
26 35 0 35 -15 0 -20 7 -20 25 0 20 5 25 26 25 33 0 30 33 -4 38 -27 4 -29 32
-3 39 34 9 38 53 5 53 -11 0 -14 9 -12 33 2 20 8 32 18 32 8 0 16 11 18 23 3
20 0 23 -17 17 -27 -8 -27 3 0 31 20 21 19 51 -2 39 -5 -4 -9 1 -9 9 0 8 -9
20 -20 26 -22 12 -27 50 -7 50 7 0 18 -5 25 -12 9 -9 15 -9 25 1 10 10 7 16
-11 30 -21 15 -22 19 -8 30 20 17 21 51 1 51 -22 0 -20 48 3 52 25 5 30 -54
30 -372z m-115 307 c-3 -15 -16 -26 -39 -33 -19 -6 -34 -10 -34 -8 0 13 14 33
21 29 4 -3 14 3 21 15 17 27 36 26 31 -3z m-11 -84 c3 -10 4 -54 3 -98 -1 -44
2 -88 7 -99 15 -28 -4 -39 -38 -21 -17 9 -22 15 -13 15 27 0 32 30 6 40 -15 6
-17 9 -6 9 29 1 31 30 4 37 -31 8 -32 22 -3 26 25 4 37 28 14 28 -9 0 -16 5
-16 10 0 6 5 10 10 10 6 0 10 7 10 15 0 8 -9 15 -20 15 -27 0 -25 18 3 23 12
2 25 5 28 6 4 0 9 -7 11 -16z m3682 -155 c9 -29 28 -64 42 -78 15 -14 40 -46
56 -72 17 -27 35 -49 41 -50 7 0 17 -2 22 -2 45 -7 104 -96 119 -180 7 -35 4
-42 -26 -73 -27 -29 -95 -73 -111 -73 -3 0 -10 20 -16 45 -7 27 -19 48 -29 52
-24 9 -32 23 -32 60 0 18 -11 67 -25 110 -13 43 -29 101 -35 130 -6 28 -18 57
-26 64 -20 17 -19 119 2 119 1 0 10 -24 18 -52z m-1464 -108 c11 -11 31 -20
44 -20 13 0 29 -6 36 -14 6 -8 21 -16 33 -18 26 -4 34 -37 17 -77 -9 -23 -21
-29 -69 -39 -68 -14 -128 -16 -135 -3 -3 5 4 11 15 14 14 4 19 12 17 26 -2 11
5 26 16 34 26 19 14 47 -19 47 -29 0 -32 16 -9 48 19 27 28 28 54 2z m-2205
-1 c13 -19 -5 -23 -38 -6 l-32 16 32 0 c17 1 35 -4 38 -10z m0 -51 c5 4 5 1 1
-6 -6 -10 -11 -10 -22 -1 -8 6 -14 14 -14 16 0 3 6 0 13 -6 8 -6 18 -7 22 -3z
m210 -293 c4 -60 9 -113 11 -117 3 -4 4 -45 4 -90 -1 -46 -1 -105 -1 -132 -1
-79 -18 -40 -35 75 -16 114 -18 456 -3 534 2 13 15 -130 24 -270z m-222 248
c-7 -2 -21 -2 -30 0 -10 3 -4 5 12 5 17 0 24 -2 18 -5z m3132 -23 c23 -24 29
-39 29 -78 l1 -47 -37 3 c-38 4 -50 -11 -29 -33 5 -6 11 -23 13 -40 4 -42 42
-43 46 -2 3 26 6 28 30 22 40 -10 48 -22 29 -43 -21 -23 -21 -36 -2 -52 22
-18 18 -30 -10 -30 -18 0 -25 5 -25 20 0 11 -7 23 -15 26 -18 7 -47 -14 -39
-27 3 -5 0 -9 -5 -9 -6 0 -11 9 -11 20 0 21 -35 41 -57 33 -16 -6 -73 28 -73
43 0 15 -35 28 -50 19 -22 -13 -50 6 -50 34 0 15 -6 36 -14 47 -10 13 -11 23
-4 31 12 15 58 18 58 4 0 -5 16 -15 36 -21 41 -14 58 -1 48 35 -5 16 -4 18 7
8 19 -19 36 -16 42 6 3 14 11 18 25 14 21 -5 39 12 22 22 -12 7 -13 25 -2 25
5 0 21 -14 37 -30z m-368 -67 c24 -36 42 -68 40 -70 -2 -1 -36 5 -76 15 -65
17 -74 22 -91 55 -11 20 -20 39 -20 43 0 3 20 2 45 -2 38 -5 45 -4 45 10 0 29
14 16 57 -51z m-2747 28 c0 -26 -2 -28 -31 -22 -16 3 -30 9 -30 14 1 4 1 11 1
16 0 5 12 12 28 14 15 2 28 5 30 6 1 0 2 -12 2 -28z m2525 15 c-16 -11 -17
-17 -7 -29 7 -8 21 -13 30 -10 13 3 24 -6 37 -31 11 -20 24 -36 28 -36 5 0 7
-6 4 -14 -3 -8 1 -22 9 -33 13 -17 14 -17 32 5 17 22 20 23 35 7 22 -22 13
-35 -23 -35 -43 0 -107 28 -124 55 -9 13 -26 27 -38 31 -13 3 -25 10 -28 14
-3 4 -18 14 -33 22 l-28 14 38 26 c41 28 105 41 68 14z m-2538 -74 c9 -6 10
-27 4 -87 -5 -44 -7 -84 -4 -88 7 -11 -16 -27 -37 -27 -12 1 -12 3 3 14 22 17
22 46 0 46 -14 0 -13 3 5 16 28 20 30 48 2 41 -30 -8 -35 12 -6 23 14 5 26 14
26 19 0 13 -26 32 -33 24 -4 -3 -7 -1 -7 5 0 5 6 13 13 15 18 8 21 8 34 -1z
m2318 -36 c47 6 55 4 55 -10 0 -9 3 -16 8 -17 74 -6 103 -18 141 -56 15 -14
31 -21 40 -18 31 13 54 14 70 5 9 -4 45 -10 80 -11 35 -1 102 -15 150 -30 104
-34 229 -57 351 -66 77 -5 90 -9 90 -24 0 -15 -9 -17 -82 -12 -47 3 -124 17
-178 33 -118 35 -158 42 -165 30 -11 -17 -35 -11 -35 9 0 22 -35 36 -113 45
-43 5 -50 3 -54 -14 -5 -18 -14 -20 -82 -20 -42 0 -101 -7 -131 -15 -30 -9
-94 -22 -141 -30 -110 -17 -159 -37 -159 -64 0 -25 20 -27 63 -5 17 9 67 21
110 25 43 5 92 16 108 24 17 9 71 18 127 22 65 4 103 11 115 21 15 14 17 13
17 -1 0 -11 24 -21 89 -36 97 -23 127 -26 135 -12 6 9 64 0 85 -13 6 -4 24
-10 39 -12 15 -3 31 -9 37 -15 5 -5 18 -9 28 -9 15 0 17 -3 9 -13 -19 -22 1
-34 76 -48 69 -13 72 -15 72 -41 0 -16 8 -33 21 -41 11 -9 16 -18 10 -21 -13
-8 -7 -116 8 -145 7 -12 25 -27 41 -33 30 -10 35 -22 45 -105 l5 -43 -118 -2
c-464 -5 -1186 -9 -1709 -8 l-183 0 -1 68 c0 37 -4 93 -8 125 -7 60 -1 69 30
41 17 -15 30 -15 131 -4 111 12 221 45 306 90 32 17 37 18 47 4 10 -14 19 -12
78 15 37 17 70 31 72 31 10 0 75 45 75 53 0 14 -46 7 -88 -13 -22 -11 -47 -20
-55 -20 -7 0 -22 -7 -33 -15 -26 -20 -33 -19 -27 5 8 29 -8 25 -90 -21 -84
-48 -167 -75 -254 -83 -45 -4 -63 -2 -66 8 -4 9 -20 12 -55 8 -71 -6 -87 6
-101 78 -13 65 -10 79 17 79 9 0 47 9 85 20 66 19 67 19 67 0 0 -30 51 -24
138 16 43 20 85 40 94 45 10 6 25 10 33 10 8 0 15 9 15 19 0 21 27 36 33 18 2
-7 13 -3 28 11 20 19 21 24 9 33 -8 5 -30 8 -47 6 -18 -1 -33 0 -33 4 0 11 28
19 65 19 18 0 68 12 111 26 44 14 95 27 114 28 27 1 39 8 55 33 11 17 35 40
54 51 33 19 34 19 52 1 16 -16 28 -18 74 -13z m-269 -25 c-7 -11 -95 -36 -102
-28 -3 2 8 11 25 18 16 7 35 24 41 38 l11 24 15 -21 c8 -12 13 -26 10 -31z
m389 39 c4 -6 -5 -9 -19 -8 -15 1 -26 6 -26 10 0 12 38 10 45 -2z m1932 -32
c4 -7 6 -23 4 -35 -1 -16 3 -23 13 -23 10 0 16 -9 16 -25 0 -14 6 -27 13 -29
42 -13 46 -16 41 -31 -4 -11 -17 -15 -41 -13 -32 2 -46 -7 -56 -37 -2 -6 -9
-5 -18 2 -8 7 -26 9 -40 6 -20 -5 -22 -3 -11 8 19 21 14 38 -13 45 -33 8 -49
37 -35 64 11 20 16 22 75 24 27 1 30 4 27 29 -4 28 11 37 25 15z m-4250 -30
c-2 -8 -16 -14 -31 -16 -36 -3 -35 26 2 30 33 4 36 3 29 -14z m2667 6 c23 -9
20 -24 -4 -24 -11 0 -20 7 -20 15 0 17 2 18 24 9z m1271 -33 c3 -16 15 -39 26
-52 28 -32 24 -75 -12 -120 -17 -21 -28 -43 -25 -48 12 -19 -114 -162 -158
-182 -12 -5 -32 -16 -46 -26 l-25 -17 26 30 c51 59 54 65 39 74 -12 7 -12 12
1 27 19 22 30 49 22 57 -3 3 -18 -3 -32 -13 -14 -10 -37 -24 -50 -31 -22 -11
-23 -11 -16 6 4 11 9 30 10 44 0 14 5 49 10 79 7 48 11 55 41 67 19 8 55 35
81 61 27 26 53 46 60 45 6 -2 14 7 18 18 8 26 22 18 30 -19z m-3778 -3 c-3 -8
-6 -5 -6 6 -1 11 2 17 5 13 3 -3 4 -12 1 -19z m2615 -11 c21 -7 4 -17 -20 -10
-13 3 -22 13 -22 25 0 17 2 18 15 5 8 -9 20 -17 27 -20z m-2779 -22 c-6 -28
-41 -44 -54 -24 -13 20 -6 32 19 34 12 1 25 5 29 8 10 11 11 9 6 -18z m-7 -90
c-3 -8 -15 -15 -26 -15 -29 0 -27 38 3 42 24 3 32 -5 23 -27z m3668 9 c11 -30
-3 -49 -57 -74 -28 -14 -57 -25 -64 -25 -6 0 -19 -8 -30 -17 -10 -8 -34 -19
-53 -23 -45 -9 -50 -13 -44 -29 7 -18 48 -13 100 10 22 9 45 18 52 20 7 1 24
9 37 18 58 38 69 11 33 -86 -20 -56 -66 -108 -95 -108 -5 0 -32 -12 -59 -26
-60 -33 -135 -54 -191 -54 -45 0 -47 1 -57 44 -7 29 -7 29 33 23 28 -3 41 -1
45 8 5 14 -17 39 -26 29 -6 -6 -68 23 -68 31 0 2 14 2 31 -2 26 -5 30 -3 28
12 -2 10 -17 26 -33 35 -45 24 -42 37 10 45 26 4 54 10 63 15 9 4 69 32 135
61 65 29 134 66 154 81 40 32 48 34 56 12z m-3778 -10 c-3 -9 -6 -18 -6 -20 0
-2 -9 -4 -20 -4 -25 0 -25 9 -2 26 23 18 35 17 28 -2z m1710 -10 c-25 -18 -37
-18 -30 0 6 15 34 26 44 18 3 -2 -4 -10 -14 -18z m-1376 -4 c0 -5 -5 -10 -11
-10 -5 0 -7 5 -4 10 3 6 8 10 11 10 2 0 4 -4 4 -10z m1143 -11 c61 -3 50 -13
-39 -33 -39 -9 -79 -18 -88 -22 -13 -5 -16 1 -16 27 l0 34 47 -2 c27 0 70 -2
96 -4z m187 -3 c0 -2 -7 -7 -16 -10 -8 -3 -12 -2 -9 4 6 10 25 14 25 6z
m-1660 -31 c0 -10 -10 -15 -27 -15 l-28 0 25 14 c14 8 26 14 28 15 1 1 2 -6 2
-14z m118 -24 c3 -30 2 -33 -12 -22 -8 7 -19 10 -24 7 -11 -6 -23 40 -13 49 3
3 14 5 26 3 15 -2 21 -12 23 -37z m212 29 c0 -5 -4 -10 -10 -10 -5 0 -10 5
-10 10 0 6 5 10 10 10 6 0 10 -4 10 -10z m1270 -4 c0 -2 -7 -7 -16 -10 -8 -3
-12 -2 -9 4 6 10 25 14 25 6z m1679 -32 c3 -3 -1 -9 -8 -13 -15 -10 -81 8 -81
22 0 9 79 1 89 -9z m-3294 -33 c-3 -6 -14 -11 -23 -11 -13 0 -13 2 4 14 21 15
30 14 19 -3z m144 -59 c1 -8 -8 -12 -21 -10 -17 2 -24 11 -26 32 -2 17 0 26 7
22 5 -4 13 -1 17 6 8 12 20 -16 23 -50z m-144 8 c-3 -5 -14 -10 -23 -9 -14 0
-13 2 3 9 27 11 27 11 20 0z m4071 -18 c-6 -10 21 -158 35 -194 14 -34 14 -97
1 -110 -7 -7 -1 -18 19 -35 21 -18 29 -33 29 -59 0 -47 26 -119 67 -186 22
-36 33 -63 29 -76 -8 -23 -66 -43 -90 -30 -10 5 -23 5 -33 -1 -13 -7 -23 -5
-35 6 -20 18 -53 10 -44 -12 3 -8 1 -17 -4 -20 -6 -4 -14 5 -20 19 -6 16 -17
26 -29 26 -28 0 -34 -15 -15 -35 12 -11 14 -19 6 -27 -13 -13 -32 -2 -32 18 0
8 -10 14 -26 14 -23 0 -25 -3 -20 -25 7 -29 0 -32 -25 -9 -21 19 -54 11 -45
-11 7 -18 -1 -18 -33 -1 -49 27 -30 110 28 126 45 13 79 64 83 121 1 32 7 43
24 49 27 10 38 26 28 41 -4 8 -9 8 -17 0 -6 -6 -18 -11 -26 -11 -10 1 -4 7 12
16 15 8 27 21 27 29 0 8 5 15 10 15 6 0 10 5 10 11 0 7 -10 9 -25 7 -21 -4
-25 -1 -25 19 0 20 -4 22 -25 17 -21 -5 -25 -3 -25 14 0 15 9 22 30 27 26 6
29 10 24 32 -5 20 -1 30 17 44 13 10 20 21 16 25 -7 7 -21 4 -79 -21 -33 -13
-18 11 16 27 50 24 102 73 116 110 8 18 18 39 23 46 10 13 31 17 23 4z m-256
-43 c-7 -11 -14 -18 -17 -15 -8 8 5 36 17 36 7 0 7 -6 0 -21z m-3825 -5 c-10
-8 -22 -14 -27 -14 -4 0 -8 6 -8 14 0 8 11 14 27 14 25 0 26 -1 8 -14z m166
-37 c-16 -20 -4 -27 44 -27 29 0 42 -4 42 -14 0 -11 -6 -12 -29 -4 -15 6 -35
7 -43 4 -10 -3 -20 5 -30 24 -15 29 -15 30 6 30 17 0 19 -3 10 -13z m-146 -27
c3 -6 -6 -15 -20 -20 -34 -13 -35 -13 -35 4 0 22 43 35 55 16z m3719 -37 c-3
-12 -17 -24 -31 -28 -17 -4 -23 -11 -19 -21 3 -9 6 -22 6 -29 0 -7 11 -16 25
-19 23 -6 25 -10 19 -41 -3 -19 -7 -73 -8 -122 l-1 -87 -37 -11 c-45 -13 -52
-20 -43 -42 5 -10 7 -24 6 -31 -1 -7 14 -19 34 -28 24 -10 35 -20 31 -29 -2
-7 0 -30 5 -49 6 -20 7 -42 3 -48 -11 -17 -9 -58 4 -90 6 -14 9 -39 7 -55 -2
-15 -4 -31 -4 -35 -1 -5 -6 -8 -12 -8 -6 0 -9 6 -6 13 5 14 -39 85 -64 100 -9
6 -24 7 -34 3 -17 -6 -17 -8 2 -29 38 -41 47 -67 30 -85 -14 -13 -17 -11 -30
21 -18 43 -49 63 -66 43 -8 -10 -6 -20 10 -40 12 -15 20 -28 18 -29 -2 -1 -14
-8 -26 -15 -21 -11 -23 -10 -23 13 0 23 -34 65 -52 65 -15 0 -21 -32 -10 -51
15 -23 15 -39 2 -39 -5 0 -10 6 -10 13 0 20 -77 100 -91 95 -19 -6 -22 -24 -7
-39 35 -36 60 -81 51 -90 -12 -12 -32 5 -63 56 -15 24 -29 35 -45 35 -38 0
-40 -19 -6 -52 30 -30 41 -58 21 -58 -5 0 -10 5 -10 12 0 18 -42 58 -61 58
-26 0 -34 -19 -13 -34 12 -9 14 -15 5 -20 -6 -4 -17 -3 -24 2 -25 20 -76 24
-93 8 -21 -21 -77 -20 -104 2 l-23 18 36 22 c20 11 56 28 79 36 67 22 187 74
243 103 34 19 99 86 120 124 8 15 15 63 17 113 3 82 4 86 26 86 32 0 26 35 -6
36 -28 2 -36 9 -29 28 4 11 15 13 42 9 33 -5 37 -4 33 13 -2 14 -14 20 -48 24
-52 6 -44 15 20 25 53 8 54 9 46 31 -5 12 -15 15 -44 12 -20 -3 -43 -7 -51 -9
-7 -2 -15 1 -18 7 -2 7 14 14 41 17 69 10 134 46 138 76 2 16 10 27 23 30 11
2 31 12 44 22 28 22 32 21 25 -8z m-3521 -27 c37 -9 35 -24 -3 -18 -28 4 -60
-11 -60 -28 0 -4 18 -10 40 -14 22 -3 40 -11 40 -16 0 -6 -11 -8 -24 -4 -13 3
-33 1 -44 -5 -17 -9 -20 -7 -25 15 -5 29 21 84 38 79 5 -2 22 -6 38 -9z m3605
-110 c-2 -16 7 -35 25 -54 l28 -30 -30 -4 c-17 -3 -33 -2 -36 0 -7 8 -6 98 2
105 11 12 15 8 11 -17z m-3668 -15 c0 -5 -8 -12 -17 -15 -27 -11 6 -36 56 -43
22 -3 41 -11 41 -18 0 -20 -10 -23 -43 -15 -18 4 -44 11 -59 14 -22 5 -28 12
-28 34 0 15 5 33 12 40 14 14 38 16 38 3z m65 -11 l20 -9 -20 0 c-11 0 -27 4
-35 9 -13 9 -13 10 0 9 8 0 24 -4 35 -9z m3226 -141 l7 -26 -747 -2 c-410 -2
-872 -3 -1027 -4 -154 -1 -293 0 -309 3 l-29 5 29 20 c42 28 124 30 1179 30
l890 0 7 -26z m434 11 c9 -30 -2 -39 -43 -37 -32 2 -37 5 -40 30 -3 25 -1 27
37 27 31 0 41 -4 46 -20z m-2725 -134 c0 -74 4 -117 11 -122 18 -11 27 14 28
79 1 76 11 128 23 121 11 -7 8 -162 -3 -186 -8 -16 -78 -64 -82 -57 -1 2 -1
66 1 142 4 167 22 186 22 23z m2703 24 c-17 -34 -68 -66 -78 -49 -4 5 0 18 9
28 9 10 16 25 16 34 0 13 9 17 34 17 l34 0 -15 -30z m-2635 -219 c25 -16 -47
-31 -142 -30 -71 1 -84 3 -61 10 17 5 49 10 72 12 23 1 45 6 49 10 10 10 66 9
82 -2z m-232 -81 c10 -8 35 -29 55 -46 l36 -31 -91 -12 c-99 -13 -216 -4 -274
21 l-32 14 37 20 c20 10 49 26 65 34 38 21 177 21 204 0z M3010 8039 c-77 -51
-97 -93 -64 -130 17 -19 11 -39 -12 -39 -25 0 -150 -62 -135 -67 16 -6 155 16
191 30 l25 10 -25 7 -25 7 25 10 c74 31 78 34 38 29 -21 -3 -38 -2 -38 1 0 3
14 22 30 43 17 21 30 46 30 56 0 9 7 25 16 35 15 16 12 39 -4 39 -4 0 -27 -14
-52 -31z M2165 8051 c-13 -22 9 -95 39 -130 41 -48 42 -48 108 -67 34 -10 67
-27 84 -45 15 -16 31 -29 36 -29 15 0 8 36 -9 53 -62 57 -63 58 -83 47 -10 -5
-26 -8 -34 -5 -53 17 -50 14 -32 33 21 24 21 58 0 74 -9 7 -31 28 -49 46 -32
33 -49 39 -60 23z M2761 8011 c-9 -6 -11 -14 -3 -26 5 -10 7 -26 5 -36 -7 -25
19 -25 40 -1 21 23 21 27 0 52 -20 22 -22 23 -42 11z M2350 8001 c0 -5 5 -13
10 -16 6 -3 10 -15 10 -25 0 -25 17 -35 35 -20 18 15 19 22 3 42 -16 19 -58
33 -58 19z M2650 7970 c-12 -7 -12 -12 -2 -22 9 -9 15 -9 24 0 16 16 -2 34
-22 22z M2436 7913 c-11 -11 -6 -23 9 -23 8 0 15 4 15 9 0 13 -16 22 -24 14z
M2565 7901 c-3 -5 -1 -12 5 -16 12 -7 30 2 30 16 0 12 -27 12 -35 0z M2820
7894 c0 -9 7 -14 17 -12 25 5 28 28 4 28 -12 0 -21 -6 -21 -16z M2487 7894
c-9 -10 2 -24 19 -24 8 0 14 7 14 15 0 15 -21 21 -33 9z M2702 7888 c5 -15 28
-18 29 -3 0 6 -7 12 -17 13 -10 3 -15 -1 -12 -10z M2480 7820 c0 -5 7 -10 16
-10 8 0 12 5 9 10 -3 6 -10 10 -16 10 -5 0 -9 -4 -9 -10z M2663 7778 c-26 -33
-22 -61 13 -96 31 -31 34 -40 33 -83 -1 -27 1 -52 4 -55 13 -13 37 6 37 30 0
48 8 56 44 41 20 -9 37 -10 47 -4 7 5 24 9 36 9 26 0 43 27 43 68 0 19 8 35
23 45 19 14 20 18 7 27 -14 10 -83 6 -115 -6 -7 -3 -17 -16 -24 -30 -14 -31
-48 -44 -81 -32 -33 12 -40 26 -29 55 5 14 9 29 9 34 0 13 -36 11 -47 -3z
m217 -97 c0 -9 -5 -22 -12 -29 -16 -16 -48 -15 -48 2 0 8 8 13 17 12 12 0 19
7 21 22 4 25 22 20 22 -7z M2470 7365 c0 -8 0 -18 -1 -22 -2 -19 19 -11 29 12
10 22 9 25 -8 25 -11 0 -20 -7 -20 -15z M2740 7346 c0 -10 9 -16 21 -16 24 0
21 23 -4 28 -10 2 -17 -3 -17 -12z M3571 6744 c-26 -33 -26 -46 -1 -62 17 -10
26 -10 47 0 34 17 34 32 0 36 -24 3 -26 6 -16 18 8 10 9 18 2 25 -7 7 -17 2
-32 -17z M3917 6683 c-12 -11 -8 -41 6 -46 19 -6 47 4 47 17 0 25 -37 46 -53
29z M4080 6632 c-23 -19 -24 -22 -8 -38 12 -13 22 -14 44 -7 33 11 44 33 16
33 -11 0 -22 7 -24 16 -3 14 -6 14 -28 -4z M3487 6542 c-10 -10 -17 -23 -17
-28 0 -13 65 -84 76 -84 5 0 24 9 42 20 42 26 32 44 -18 37 -38 -5 -60 6 -60
30 0 7 7 13 15 13 8 0 15 7 15 15 0 21 -33 19 -53 -3z M1240 6354 c0 -4 7 -12
17 -19 23 -17 8 -38 -18 -24 -29 15 -32 7 -12 -35 20 -40 33 -44 55 -18 36 40
40 60 16 82 -20 19 -58 28 -58 14z M4044 5939 c-10 -17 13 -36 27 -22 12 12 4
33 -11 33 -5 0 -12 -5 -16 -11z M3731 5904 c-23 -17 -51 -70 -51 -99 0 -23 28
-18 35 8 4 12 19 37 32 55 29 39 20 60 -16 36z M3972 5888 c2 -13 10 -23 18
-23 8 0 16 10 18 23 3 17 -2 22 -18 22 -16 0 -21 -5 -18 -22z M4170 5910 c-13
-8 -13 -11 2 -27 21 -20 45 -5 35 21 -7 18 -16 20 -37 6z M4480 5850 c0 -21
21 -50 36 -50 26 0 14 54 -13 58 -13 2 -23 -2 -23 -8z M2882 5610 c-41 -10
-46 -15 -38 -37 5 -11 10 -13 14 -7 4 6 24 14 45 18 22 4 37 12 35 18 -6 16
-17 17 -56 8z M3835 5706 c-16 -12 -17 -16 -6 -30 17 -20 35 -20 51 -1 10 12
10 18 0 30 -15 19 -21 19 -45 1z M4379 5453 c0 -16 -2 -39 -4 -53 -11 -69 -23
-127 -30 -142 -5 -13 -3 -18 8 -18 19 0 24 8 30 41 3 13 9 42 15 64 5 22 13
61 16 88 5 42 4 47 -14 47 -15 0 -20 -7 -21 -27z M4237 5426 c-20 -23 -43 -58
-51 -77 -8 -19 -22 -51 -31 -71 -8 -21 -22 -56 -30 -78 -13 -37 -13 -40 4 -40
13 0 21 10 25 34 4 19 17 50 30 69 13 19 29 51 36 71 13 41 37 64 26 25 -3
-13 -9 -46 -13 -74 -3 -27 -9 -54 -13 -60 -25 -32 -59 -105 -51 -109 11 -7 37
22 53 59 7 17 20 41 29 55 9 14 19 49 23 79 3 30 14 71 24 92 18 36 18 39 2
54 -9 8 -19 15 -22 15 -3 0 -22 -20 -41 -44z M4454 5442 c-19 -13 -25 -45 -30
-167 -6 -122 -23 -190 -72 -290 -11 -22 -18 -43 -16 -47 11 -17 33 7 54 55 57
133 63 154 70 262 4 61 11 129 15 153 7 41 2 50 -21 34z M3554 5345 c-19 -15
-19 -15 1 -30 17 -13 21 -13 33 -1 15 14 10 46 -6 46 -4 0 -17 -7 -28 -15z
M3688 5343 c-26 -7 -23 -48 5 -60 46 -21 82 33 38 57 -11 5 -21 9 -23 9 -2 -1
-11 -3 -20 -6z M3577 5246 c-29 -27 -35 -63 -16 -99 10 -18 8 -24 -15 -43 -14
-13 -26 -32 -26 -43 0 -22 35 -51 63 -51 10 0 28 -7 41 -15 15 -10 35 -14 56
-10 20 4 29 2 25 -5 -3 -5 -15 -10 -26 -10 -26 0 -24 -15 4 -37 13 -10 29 -28
36 -41 15 -29 45 -30 38 -1 -5 19 -4 20 12 5 22 -20 31 -20 31 -1 0 23 16 18
28 -10 12 -27 42 -34 42 -11 0 8 -5 27 -10 42 -6 15 -8 29 -6 32 3 3 10 -7 16
-22 11 -30 33 -30 38 -2 4 19 -34 66 -54 66 -6 0 -18 10 -27 23 -15 22 -15 22
-36 3 -12 -11 -20 -25 -17 -32 3 -8 -1 -11 -10 -7 -16 6 -17 12 -5 32 5 7 5
29 0 49 -5 24 -4 39 3 43 17 11 12 58 -8 80 -13 14 -27 19 -47 16 -24 -3 -30
1 -42 30 -8 18 -18 33 -24 33 -5 0 -16 2 -23 5 -8 3 -26 -5 -41 -19z m103
-156 c0 -5 -5 -10 -11 -10 -5 0 -7 5 -4 10 3 6 8 10 11 10 2 0 4 -4 4 -10z
M3820 5242 c-26 -21 -18 -50 17 -58 33 -9 46 7 38 45 -7 35 -23 39 -55 13z
M4297 5202 c-16 -17 -14 -32 4 -32 3 0 14 11 23 25 13 20 14 25 3 25 -8 0 -21
-8 -30 -18z M4173 5093 c-7 -2 -13 -14 -13 -25 0 -28 34 -19 38 10 3 22 -2 25
-25 15z M3861 5031 c-8 -5 -9 -11 -3 -15 13 -8 42 3 42 15 0 11 -21 11 -39 0z
M3457 5023 c-8 -14 6 -31 28 -35 14 -2 20 3 20 17 0 21 -38 34 -48 18z M3501
4686 c-10 -12 -8 -17 10 -26 17 -10 24 -9 36 3 9 8 12 20 9 26 -10 16 -41 14
-55 -3z M4484 5579 c-9 -15 11 -33 30 -26 9 4 13 13 10 22 -7 17 -30 20 -40 4z
M4170 5550 c0 -24 29 -38 40 -20 12 19 1 40 -21 40 -12 0 -19 -7 -19 -20z
M825 5426 c-15 -11 -17 -18 -9 -26 16 -16 56 -2 52 18 -4 22 -20 25 -43 8z
M3615 4500 c-9 -15 4 -30 26 -30 12 0 19 7 19 20 0 21 -33 29 -45 10z M856
4401 c-36 -14 -46 -81 -51 -342 -2 -135 -9 -275 -14 -311 -6 -35 -14 -89 -17
-119 -3 -30 -9 -74 -14 -98 -10 -52 -4 -71 20 -71 18 0 22 13 35 140 4 30 8
69 11 85 9 67 24 269 30 415 4 85 13 178 21 205 26 91 21 113 -21 96z M952
4396 c-5 -6 -17 -49 -27 -96 -10 -47 -20 -90 -22 -96 -5 -15 27 -48 37 -37 4
4 13 42 20 83 15 94 32 146 25 80 -20 -189 -20 -192 6 -188 21 3 23 8 21 43
-2 22 4 74 12 115 8 42 10 82 6 90 -10 18 -66 22 -78 6z M3874 4025 c-4 -9 -2
-21 4 -27 15 -15 44 -1 40 19 -4 23 -36 29 -44 8z M4310 4220 c-12 -7 -12 -12
-2 -22 9 -9 15 -9 24 0 16 16 -2 34 -22 22z M4375 3920 c-7 -12 2 -30 16 -30
12 0 12 27 0 35 -5 3 -12 1 -16 -5z M3976 4231 c-8 -12 21 -34 34 -26 17 11
11 35 -9 35 -11 0 -22 -4 -25 -9z M4066 3923 c-13 -14 -5 -33 14 -33 11 0 20
6 20 14 0 15 -24 28 -34 19z M4116 3775 c4 -8 10 -15 15 -15 5 0 9 7 9 15 0 8
-7 15 -15 15 -9 0 -12 -6 -9 -15z M3726 3872 c-3 -5 1 -17 8 -27 16 -22 49
-13 44 12 -3 19 -42 30 -52 15z M3757 3713 c-13 -12 -7 -41 8 -47 18 -6 30 16
21 39 -6 16 -18 19 -29 8z M3504 3759 c-10 -17 13 -36 27 -22 12 12 4 33 -11
33 -5 0 -12 -5 -16 -11z M4254 3689 c-10 -17 13 -36 27 -22 12 12 4 33 -11 33
-5 0 -12 -5 -16 -11z M3934 3599 c-3 -6 1 -18 9 -27 13 -13 19 -13 31 -2 9 7
16 19 16 26 0 17 -46 19 -56 3z M3935 3490 c-9 -15 4 -30 26 -30 12 0 19 7 19
20 0 21 -33 29 -45 10z M4506 3542 c-2 -4 -1 -14 3 -21 7 -10 13 -10 30 -2 11
7 21 16 21 21 0 12 -47 13 -54 2z M4190 3379 c0 -14 5 -19 17 -17 26 5 29 38
4 38 -15 0 -21 -6 -21 -21z M3744 3299 c-3 -6 -2 -15 4 -21 13 -13 32 -2 32
18 0 16 -26 19 -36 3z M3496 3311 c-3 -4 3 -16 13 -25 16 -14 20 -15 30 -2 7
8 10 20 6 26 -8 12 -42 13 -49 1z M3430 2081 c0 -30 14 -41 51 -41 44 0 50 11
17 34 -24 17 -68 22 -68 7z M1841 2001 c-23 -15 -5 -43 26 -39 20 2 28 9 28
23 0 22 -31 31 -54 16z M4455 2146 c-15 -23 -12 -56 6 -56 12 0 41 59 34 70
-10 16 -24 11 -40 -14z M4136 2004 c-38 -21 -20 -39 28 -30 37 7 48 29 20 40
-19 7 -13 8 -48 -10z M350 7559 c0 -5 5 -7 10 -4 6 3 10 8 10 11 0 2 -4 4 -10
4 -5 0 -10 -5 -10 -11z M3205 6710 c3 -5 8 -10 11 -10 2 0 4 5 4 10 0 6 -5 10
-11 10 -5 0 -7 -4 -4 -10z M4520 6090 c0 -5 5 -10 10 -10 6 0 10 5 10 10 0 6
-4 10 -10 10 -5 0 -10 -4 -10 -10z M4604 2059 c-12 -21 13 -31 60 -24 47 7 58
18 30 29 -26 10 -82 7 -90 -5z M4730 2026 c0 -10 8 -16 23 -16 12 0 55 -9 96
-20 92 -25 101 -25 101 -1 0 26 -46 41 -142 48 -68 5 -78 4 -78 -11z M4785
881 c-17 -3 -40 -13 -53 -22 -19 -14 -22 -22 -16 -56 l6 -40 -51 -7 c-34 -4
-51 -11 -51 -21 0 -18 15 -26 59 -32 20 -3 37 -6 37 -7 1 0 5 -11 8 -23 6 -20
4 -23 -21 -24 -15 -1 -37 -3 -48 -4 -11 -1 -29 -2 -40 -3 -37 -4 -48 -17 -36
-41 10 -17 21 -21 66 -21 29 0 57 5 60 10 4 6 -6 10 -22 10 -45 0 -60 16 -23
24 62 12 67 9 67 -34 0 -22 -5 -40 -11 -41 -39 -1 -104 -13 -118 -20 -24 -13
-23 -49 1 -49 10 0 24 6 30 14 7 8 32 16 56 18 41 3 45 1 50 -22 3 -14 5 -50
5 -80 -1 -128 2 -141 24 -138 19 3 21 10 21 88 1 95 8 118 31 99 12 -10 18 -9
31 3 20 21 7 41 -22 34 -15 -4 -25 -1 -29 9 -3 10 1 15 12 16 9 0 44 1 77 2
l60 2 3 38 3 37 -53 2 c-29 1 -64 2 -77 2 -13 1 -26 6 -28 11 -2 6 22 10 62
10 42 -1 70 4 77 12 12 15 14 15 -87 17 -56 1 -70 4 -73 17 -3 14 8 16 77 15
84 -3 109 4 96 24 -5 7 -31 11 -74 10 -89 -3 -101 -2 -101 10 0 6 25 10 55 10
42 0 55 3 55 15 0 16 -11 18 -72 17 -32 -1 -38 3 -38 19 0 19 5 20 51 16 41
-4 54 -2 70 14 10 10 19 23 19 29 0 22 -74 41 -125 31z m65 -31 c0 -5 -21 -10
-46 -10 -27 0 -43 4 -39 10 3 6 24 10 46 10 21 0 39 -4 39 -10z m-130 -115 c0
-8 -7 -15 -15 -15 -26 0 -18 20 13 29 1 1 2 -6 2 -14z m185 -176 c5 -5 -19 -9
-58 -9 -62 0 -91 13 -49 22 25 6 95 -3 107 -13z"/>
</g>
</svg>
