<?xml version="1.0" standalone="no"?>
<!DOCTYPE svg PUBLIC "-//W3C//DTD SVG 20010904//EN"
 "http://www.w3.org/TR/2001/REC-SVG-20010904/DTD/svg10.dtd">
<svg version="1.0" xmlns="http://www.w3.org/2000/svg"
 width="500.000000pt" height="878.000000pt" viewBox="0 0 500.000000 878.000000"
 preserveAspectRatio="xMidYMid meet">
<metadata>
Created by potrace 1.16, written by Peter Selinger 2001-2019
</metadata>
<g transform="translate(0.000000,878.000000) scale(0.100000,-0.100000)"
fill="#000000" stroke="none">
<path d="M2402 8652 c2 -12 15 -18 41 -20 l38 -3 -1 -82 c-3 -124 -4 -127 -56
-127 -37 0 -44 -3 -44 -19 0 -10 6 -21 13 -23 6 -2 104 -1 217 2 173 4 205 7
205 20 0 11 -13 16 -47 18 l-48 3 0 58 c0 32 -3 78 -6 103 l-6 45 48 1 c49 2
71 13 61 29 -4 6 -99 10 -212 11 -191 2 -206 0 -203 -16z m238 -128 l0 -104
-44 0 c-42 0 -44 1 -47 33 -2 17 -3 64 -1 104 l4 71 44 0 44 0 0 -104z M1620
8251 c0 -5 -15 -12 -32 -16 -18 -4 -46 -11 -63 -15 -16 -5 -64 -14 -105 -20
-82 -13 -157 -35 -178 -53 -8 -6 -22 -16 -31 -22 -10 -5 -32 -20 -50 -32 -18
-11 -53 -24 -77 -28 -49 -7 -84 -23 -155 -70 -36 -23 -62 -33 -92 -33 -43 -1
-60 -14 -110 -86 -10 -15 -28 -26 -40 -26 -26 0 -69 -50 -101 -119 -12 -27
-30 -56 -39 -65 -9 -10 -17 -26 -17 -36 0 -10 -4 -21 -9 -24 -5 -3 -9 -18 -9
-32 0 -15 -6 -31 -14 -35 -9 -5 -25 -40 -38 -78 -14 -43 -35 -83 -56 -106 -19
-21 -34 -45 -34 -54 0 -9 -5 -22 -10 -27 -6 -6 -14 -25 -20 -42 -8 -28 -6 -34
15 -48 22 -14 27 -13 79 14 30 17 70 41 88 54 18 12 47 24 63 26 17 1 44 3 60
5 17 1 44 9 60 18 71 37 111 61 120 72 6 7 31 13 57 13 27 1 60 9 74 19 15 10
61 21 102 26 41 5 103 18 137 29 46 15 68 18 86 11 21 -9 22 -10 4 -11 -11 -1
-30 -1 -42 0 -30 2 -63 -17 -57 -34 8 -20 141 -8 154 14 3 5 15 7 27 4 19 -5
20 -7 6 -24 -9 -10 -23 -16 -31 -13 -12 5 -12 2 -3 -15 23 -44 183 -43 272 1
53 26 54 26 74 7 12 -11 26 -20 32 -20 7 0 14 -8 17 -18 4 -10 21 -33 39 -50
30 -29 40 -32 93 -33 32 0 72 4 89 11 25 10 31 9 43 -7 7 -10 10 -28 7 -40 -5
-21 -2 -23 33 -23 21 0 43 5 50 12 16 16 21 8 15 -26 -5 -22 -16 -33 -50 -48
-24 -11 -42 -25 -40 -31 5 -14 43 -12 74 5 21 10 27 7 63 -30 28 -30 47 -42
67 -42 31 0 79 -28 104 -61 13 -17 30 -23 75 -27 47 -4 66 -11 92 -33 18 -16
37 -29 42 -29 6 0 8 -16 4 -40 -4 -26 -1 -53 10 -80 9 -22 18 -76 20 -120 4
-79 4 -80 -20 -80 -13 0 -24 -4 -24 -10 0 -9 14 -14 33 -11 4 0 7 -5 7 -13 0
-8 2 -20 5 -28 3 -7 1 -19 -4 -26 -12 -20 -129 65 -178 130 -53 70 -93 131
-89 135 2 2 16 -1 31 -7 35 -13 92 3 100 30 4 11 -4 34 -19 58 -20 32 -35 42
-90 61 -74 25 -110 22 -146 -11 -19 -18 -21 -27 -15 -67 4 -25 13 -57 20 -71
7 -14 22 -45 34 -70 43 -91 154 -197 246 -236 l38 -15 -44 -22 c-24 -12 -63
-46 -87 -76 l-45 -55 6 -93 c5 -88 8 -97 47 -160 53 -85 69 -103 90 -103 9 0
27 -11 40 -25 23 -24 23 -25 5 -45 -10 -11 -19 -38 -21 -61 -1 -22 -4 -42 -6
-44 -2 -2 -53 5 -113 16 -202 36 -501 5 -570 -58 -30 -29 -33 -68 -4 -85 23
-15 53 -78 74 -157 8 -31 28 -99 45 -151 20 -61 31 -116 32 -155 0 -36 6 -66
14 -76 17 -19 11 -26 -60 -62 -41 -21 -53 -23 -83 -14 -28 9 -40 8 -69 -8 -46
-24 -58 -16 -90 60 -15 33 -30 68 -35 78 -5 9 -23 52 -40 95 -17 42 -41 93
-54 112 -12 19 -47 73 -75 120 -92 149 -124 194 -155 222 -27 25 -80 48 -112
48 -17 0 -17 76 -1 86 7 5 26 7 43 5 39 -3 62 22 66 69 2 19 10 43 18 53 9 11
16 26 16 35 0 10 10 16 27 16 45 2 50 15 33 88 -14 62 -14 67 6 108 11 23 23
61 25 84 2 22 6 56 8 74 2 20 13 40 25 48 28 20 26 32 -6 45 l-28 10 28 21
c40 29 35 48 -14 48 -22 0 -48 -4 -58 -9 -14 -8 -17 -6 -17 12 1 21 -3 22 -70
22 -39 0 -77 5 -85 11 -14 11 -65 16 -169 15 -51 0 -193 -30 -225 -48 -30 -17
-125 -116 -125 -130 0 -8 -9 -28 -21 -44 -11 -16 -18 -33 -14 -38 3 -6 -6 -9
-21 -8 -23 2 -29 -4 -42 -40 -15 -39 -14 -44 1 -61 14 -16 15 -20 2 -33 -8 -8
-16 -25 -17 -39 -3 -23 1 -25 33 -25 l37 0 -19 -24 c-26 -32 -24 -51 7 -76 24
-19 25 -23 13 -43 -12 -19 -10 -24 16 -52 20 -21 37 -30 52 -27 19 4 21 1 16
-32 -7 -47 -27 -69 -77 -82 -43 -11 -78 -39 -129 -103 -25 -31 -32 -51 -34
-90 -6 -120 -13 -292 -17 -441 -3 -88 -9 -198 -15 -245 -8 -65 -7 -324 1 -405
2 -20 -13 -301 -17 -330 -19 -118 -34 -1309 -24 -1870 l4 -250 -50 -6 c-27 -3
-68 -15 -90 -26 -28 -15 -68 -23 -133 -28 -82 -6 -92 -9 -92 -27 0 -17 5 -18
57 -14 32 4 82 8 111 11 30 2 68 13 85 24 18 10 49 22 70 25 31 6 37 4 38 -11
2 -35 -3 -68 -12 -78 -5 -5 -9 -24 -9 -42 0 -32 -2 -33 -37 -32 -55 1 -134 16
-103 19 14 2 41 2 61 1 35 -2 57 17 44 38 -2 5 -72 9 -155 9 -138 1 -150 0
-150 -17 0 -10 6 -18 13 -19 6 -1 34 -4 61 -7 71 -8 70 -15 -2 -15 -48 0 -62
-3 -62 -15 0 -8 6 -16 13 -17 16 -2 177 -9 257 -11 l65 -2 -4 -43 c-3 -47 18
-82 49 -82 19 0 30 -36 30 -96 l0 -34 -210 0 c-202 0 -210 -1 -210 -20 0 -18
9 -19 198 -22 108 -2 220 0 247 3 56 6 98 -12 93 -40 -3 -14 -34 -16 -271 -19
-259 -2 -267 -3 -267 -22 0 -19 7 -20 269 -20 l269 0 7 -60 c4 -32 13 -64 20
-70 24 -20 4 -45 -66 -78 -74 -35 -92 -62 -70 -105 6 -12 15 -34 21 -49 10
-30 17 -32 93 -28 39 1 54 -3 72 -20 22 -20 31 -22 87 -16 86 9 128 24 161 55
18 16 30 22 35 15 13 -21 51 -34 96 -34 31 0 68 -11 113 -32 64 -31 74 -32
178 -32 61 0 139 5 174 10 61 9 65 10 68 39 4 24 -2 35 -28 57 -18 15 -30 30
-28 33 3 3 39 8 79 11 82 7 138 26 147 51 4 9 -1 19 -11 25 -14 8 -15 13 -5
24 8 10 10 40 5 104 l-8 90 334 0 c183 0 657 3 1052 6 l719 6 -7 -58 c-4 -32
-14 -70 -23 -84 -20 -33 -80 -89 -107 -101 -12 -5 -28 -13 -36 -18 -25 -14
-63 -29 -90 -34 -97 -19 -220 -89 -220 -127 0 -24 39 -57 85 -69 22 -6 90 -14
150 -17 111 -5 251 13 375 51 25 7 77 19 115 25 90 16 106 30 99 84 -6 37 -4
42 16 43 12 1 49 11 83 21 138 43 228 64 253 59 16 -3 41 3 63 15 68 36 83 88
45 156 -13 23 -24 45 -24 47 0 3 54 5 120 5 101 0 120 2 120 15 0 22 -10 24
-145 27 l-120 3 -3 28 -3 28 133 -3 c130 -2 133 -1 136 20 3 22 2 22 -137 22
l-141 0 -15 36 c-8 20 -15 52 -15 71 0 20 -12 92 -27 162 -32 148 -33 189 -9
225 16 25 21 27 64 22 26 -3 70 -8 97 -12 58 -6 154 -33 173 -48 11 -8 13 -4
10 19 -2 21 -10 31 -26 35 -30 6 -30 19 0 34 19 9 24 21 26 64 2 28 -1 52 -6
52 -11 0 -52 74 -52 94 0 17 -43 36 -80 36 -27 0 -44 -13 -45 -34 0 -5 -11
-11 -25 -13 -27 -4 -67 -37 -75 -63 -3 -10 0 -30 6 -46 7 -16 13 -41 14 -56 2
-23 -1 -26 -26 -26 -16 1 -29 6 -30 12 -3 48 -11 83 -22 91 -14 10 -37 59 -53
110 -5 17 -21 36 -36 43 -15 7 -42 29 -60 50 -18 20 -57 61 -85 90 -29 29 -53
56 -53 61 0 5 -7 14 -15 21 -21 17 -75 98 -75 112 0 6 -7 19 -15 28 -18 20
-22 90 -12 235 13 177 14 182 46 187 18 3 37 -3 51 -14 37 -30 117 3 104 44
-6 21 6 24 24 6 17 -17 78 16 95 51 8 17 22 27 40 29 15 2 27 8 27 13 0 5 5 9
11 9 16 0 78 50 101 83 18 25 19 33 9 49 -11 17 -9 24 8 42 l20 22 -24 53
c-32 69 -94 241 -111 310 -7 30 -17 66 -23 80 -5 14 -19 64 -31 111 -44 168
-73 246 -121 326 -27 45 -49 86 -49 91 0 6 -16 31 -35 56 -38 49 -42 72 -23
123 9 25 23 38 60 54 46 20 50 24 97 125 32 68 53 129 61 177 17 104 39 177
60 198 10 10 21 32 25 49 4 17 23 48 43 69 20 20 35 42 34 48 -1 7 4 14 13 18
12 4 14 19 9 83 -3 43 -12 105 -21 138 -8 33 -19 80 -24 104 -12 60 -47 117
-109 176 -29 28 -70 69 -93 93 -22 23 -47 42 -54 42 -7 0 -13 7 -13 16 0 29
-100 94 -145 94 -22 0 -55 28 -55 46 0 5 -9 20 -20 34 -28 36 -25 41 19 34 33
-5 41 -3 50 15 10 17 9 21 -4 21 -19 0 -20 16 0 24 27 10 16 26 -17 26 -40 0
-66 14 -48 25 6 4 23 2 36 -5 18 -10 30 -11 49 -2 31 14 33 32 3 32 -13 0 -30
5 -38 10 -12 8 -11 10 6 10 30 0 52 27 30 36 -15 6 -15 9 -3 28 16 24 11 80
-8 96 -8 6 -23 12 -34 13 -11 0 -22 10 -25 22 -3 11 -17 27 -31 35 -14 9 -35
35 -47 60 -19 36 -36 50 -104 87 -99 53 -171 68 -251 54 -61 -12 -152 -44
-192 -70 -13 -8 -39 -14 -58 -12 -43 3 -120 -41 -134 -77 -6 -14 -7 -37 -4
-51 3 -13 1 -27 -5 -31 -6 -3 -11 -24 -12 -45 -2 -46 22 -67 70 -63 37 3 52
-12 52 -52 0 -15 4 -30 9 -35 5 -6 12 -44 16 -85 9 -101 11 -108 48 -116 34
-7 56 -29 57 -55 0 -9 7 -22 15 -29 8 -7 15 -21 15 -31 0 -28 44 -53 81 -45
43 8 25 -12 -35 -42 -25 -13 -48 -31 -51 -41 -3 -12 -19 -21 -43 -25 -20 -3
-44 -12 -52 -19 -35 -29 -100 -117 -100 -136 0 -25 -17 -26 -67 -6 -40 17
-153 27 -303 28 -92 0 -219 -23 -247 -45 -9 -8 -12 1 -11 34 1 48 -12 79 -45
116 l-21 23 29 27 c17 15 44 37 61 49 47 34 92 136 93 211 0 34 -5 75 -12 90
-18 43 -79 112 -112 130 l-30 15 55 25 c80 35 183 106 229 158 57 65 75 108
75 187 1 63 -1 69 -29 92 -50 40 -118 32 -192 -24 -39 -29 -41 -50 -9 -80 19
-18 33 -22 63 -19 21 3 46 8 56 13 16 7 17 4 11 -21 -22 -90 -128 -209 -218
-243 -31 -11 -61 -21 -66 -21 -6 0 -8 47 -6 123 6 168 5 159 21 153 24 -9 45
21 38 54 -5 27 -2 32 28 46 19 8 52 26 74 39 22 14 47 25 56 25 9 0 36 21 61
48 39 42 49 47 87 48 37 0 49 6 77 37 22 23 34 47 34 64 0 19 10 36 30 53 17
14 30 30 30 36 0 5 9 20 19 31 11 12 17 24 13 28 -4 4 4 4 18 -1 44 -16 175
-10 203 9 15 9 33 17 42 17 8 0 44 13 78 28 39 18 89 31 131 35 38 4 76 13 85
21 11 10 29 13 59 9 34 -5 42 -3 42 11 0 9 4 16 10 16 5 0 7 -7 4 -15 -8 -20
28 -20 73 1 25 13 37 14 46 5 16 -16 77 -14 111 4 28 15 31 14 55 -9 30 -29
100 -56 142 -56 16 0 39 10 51 22 17 17 32 21 69 19 37 -2 52 2 68 18 25 25
83 28 125 6 35 -18 103 -22 118 -7 8 8 19 5 42 -12 17 -13 37 -21 44 -19 15 6
17 153 2 153 -5 0 -10 9 -10 19 0 16 -17 42 -80 118 -6 7 -10 16 -10 21 0 4
-21 27 -47 51 -65 57 -70 61 -83 61 -6 0 -8 6 -4 13 5 8 2 8 -9 -2 -15 -11
-17 -11 -17 2 0 8 -3 17 -8 19 -4 2 -29 29 -56 61 -27 31 -52 57 -57 57 -5 0
-36 20 -69 45 -51 37 -65 43 -84 35 -27 -10 -36 -5 -36 21 0 18 -75 59 -107
59 -10 0 -34 13 -53 30 -33 28 -107 49 -128 36 -13 -8 -119 13 -161 31 -25 11
-39 13 -51 5 -11 -7 -22 -6 -36 1 -10 6 -26 11 -34 12 -8 1 -26 7 -40 15 -58
31 -188 13 -244 -35 -43 -37 -52 -77 -42 -172 7 -62 6 -90 -2 -104 -7 -10 -12
-25 -12 -33 0 -26 -78 -133 -112 -154 -30 -20 -33 -20 -39 -4 -4 10 -27 36
-52 59 -49 46 -49 43 -24 140 19 71 9 78 -98 78 l-83 0 20 28 c27 37 18 60
-17 47 -40 -15 -72 -12 -118 11 -23 12 -44 21 -47 19 -3 -1 -13 -6 -23 -12
-15 -7 -24 -5 -41 11 -21 20 -56 20 -56 1 0 -14 -59 -17 -64 -3 -3 7 -11 13
-18 13 -7 0 -24 16 -38 35 -28 39 -49 44 -57 15 -3 -11 -9 -20 -13 -20 -4 0
-10 -9 -13 -19 -3 -14 -11 -18 -26 -14 -12 3 -29 -1 -39 -9 -9 -9 -36 -18 -60
-21 -55 -7 -75 -23 -67 -55 l6 -25 -75 5 c-98 6 -116 -7 -110 -83 2 -29 -2
-59 -8 -66 -5 -7 -8 -20 -4 -28 4 -12 0 -14 -18 -9 -35 9 -95 -23 -103 -55
-11 -39 -10 -44 5 -74 7 -16 11 -31 8 -35 -3 -3 -6 0 -6 6 0 6 -12 23 -26 37
-14 14 -23 29 -20 32 3 3 -4 14 -15 24 -12 10 -18 23 -13 30 4 7 3 9 -3 6 -24
-15 -25 112 0 141 23 28 -4 162 -40 196 -12 11 -23 28 -23 37 0 19 -23 30
-115 58 -78 23 -95 25 -95 12z m103 -61 c100 -36 155 -154 112 -236 -24 -46
-19 -110 14 -178 29 -61 64 -106 81 -106 5 0 15 -12 22 -27 8 -16 22 -28 33
-29 35 -2 36 -3 20 -35 -15 -27 -20 -30 -48 -23 -18 3 -36 13 -40 21 -8 12
-12 12 -33 -2 -21 -14 -24 -14 -24 0 0 17 -35 21 -45 5 -3 -5 -12 -10 -18 -10
-7 0 0 8 16 18 26 16 38 52 17 52 -6 0 -26 -7 -45 -14 -42 -18 -45 -6 -9 28
29 26 25 46 -9 46 -16 0 -18 3 -9 12 18 18 14 38 -7 38 -29 0 -34 17 -12 39
20 20 19 51 -1 51 -6 0 -5 6 2 15 18 21 -4 46 -33 38 -12 -3 -38 -6 -57 -5
-51 1 -80 -7 -80 -22 0 -20 -46 -36 -105 -36 -66 0 -73 15 -12 24 24 4 72 21
108 39 39 19 79 32 104 32 45 0 59 24 24 40 -31 14 -29 27 8 39 44 15 47 20
28 55 -15 31 -17 31 -65 25 -34 -5 -50 -3 -50 5 0 6 7 11 16 11 23 0 12 23
-20 40 -25 14 -28 14 -46 -8 -17 -20 -20 -21 -28 -6 -8 15 -20 14 -135 -10
-69 -14 -133 -26 -141 -26 -30 0 -5 27 37 40 23 8 47 16 52 19 6 3 44 11 85
17 64 9 77 8 86 -5 10 -13 13 -12 23 7 8 15 25 24 52 28 21 4 42 11 45 16 3 5
13 6 23 3 9 -4 38 -15 64 -25z m1920 8 c9 -5 17 -13 17 -18 0 -6 7 -10 15 -10
8 0 15 5 15 11 0 14 62 8 165 -16 39 -9 99 -18 134 -20 41 -2 69 -9 79 -19 9
-8 14 -17 11 -19 -2 -3 -38 0 -79 5 -41 5 -114 6 -161 3 -66 -4 -90 -2 -105
10 -21 16 -114 21 -114 6 0 -18 -32 -41 -56 -41 -25 0 -34 -25 -11 -33 9 -3 7
-10 -7 -25 -14 -16 -26 -20 -47 -15 -35 7 -37 -3 -8 -34 18 -18 20 -25 10 -37
-9 -10 -9 -16 -1 -21 8 -5 8 -11 0 -20 -7 -8 -10 -31 -8 -52 3 -36 2 -38 -29
-41 -32 -3 -45 -24 -23 -37 18 -11 10 -22 -20 -29 -17 -3 -33 -14 -37 -23 -4
-10 -14 -23 -22 -30 -14 -10 -12 -15 13 -42 31 -33 30 -34 -21 -31 -21 1 -35
-5 -41 -17 -9 -14 -13 -16 -23 -5 -18 17 -49 15 -49 -3 0 -32 90 -54 127 -30
12 8 29 15 37 15 8 0 21 9 29 20 13 19 16 19 51 5 42 -18 46 -38 11 -61 -20
-13 -31 -14 -57 -5 -19 7 -35 8 -41 2 -14 -14 0 -29 33 -36 17 -4 30 -13 30
-20 0 -23 -20 -28 -45 -11 -13 9 -33 16 -44 16 -11 0 -23 5 -26 10 -3 6 -15
10 -26 10 -18 0 -20 -4 -14 -30 9 -40 -8 -39 -52 5 -30 30 -33 38 -27 70 4 22
2 35 -4 35 -7 0 -7 12 0 36 5 20 7 42 4 51 -4 11 -1 13 14 8 24 -8 61 28 115
109 54 82 67 136 59 237 -6 88 -2 108 34 150 9 10 29 19 44 19 16 0 28 5 28
11 0 12 93 3 123 -13z m-1138 -138 c-9 -9 -18 -33 -21 -52 -5 -27 -1 -40 21
-66 15 -18 33 -32 41 -32 8 0 15 -6 15 -12 1 -7 2 -20 3 -28 0 -8 10 -15 21
-15 16 0 20 7 20 35 0 30 -5 37 -37 53 -32 14 -38 22 -38 48 0 45 39 79 90 79
51 0 51 -12 0 -35 -47 -21 -62 -42 -49 -67 12 -23 39 -23 39 -1 0 21 29 53 48
53 11 0 8 -8 -11 -28 l-28 -29 22 -27 c22 -28 47 -28 80 0 8 8 28 14 43 14 30
0 31 16 3 34 -13 8 -25 7 -49 -7 -17 -10 -32 -16 -34 -15 -8 9 50 68 64 66 10
-2 18 5 20 17 6 30 22 35 59 17 38 -18 41 -27 13 -35 -16 -4 -19 -12 -16 -53
4 -62 3 -59 23 -43 15 13 16 12 11 -9 -11 -40 21 -40 56 0 41 47 64 58 127 58
l52 0 -6 -35 c-3 -20 -13 -50 -21 -67 l-16 -31 60 -63 c40 -44 61 -75 66 -99
9 -50 -1 -54 -40 -16 -32 31 -36 32 -63 19 -16 -7 -29 -23 -31 -35 -4 -25 24
-73 43 -73 19 0 41 -31 70 -99 21 -51 24 -66 13 -72 -21 -14 -55 -10 -62 6
-11 30 -86 8 -86 -26 0 -5 -7 -9 -15 -9 -11 0 -8 9 10 36 27 40 38 84 33 135
-2 26 -8 34 -23 34 -17 0 -21 -8 -25 -60 -6 -69 -27 -108 -70 -130 -17 -9 -30
-24 -30 -34 0 -12 -12 -22 -39 -29 -21 -7 -44 -19 -51 -27 -17 -21 -5 -46 17
-38 11 4 4 -8 -17 -30 -32 -34 -39 -38 -80 -35 -41 3 -45 5 -45 28 0 19 9 29
38 43 39 18 70 67 60 94 -5 13 -59 18 -87 7 -25 -10 -19 -24 12 -25 25 0 23
-2 -15 -19 -24 -11 -43 -25 -43 -32 0 -10 -2 -10 -8 -1 -10 16 -74 42 -89 36
-18 -6 -16 16 1 23 10 4 13 18 10 47 -3 23 -5 57 -4 76 0 19 -7 45 -15 58 -15
22 -14 26 10 55 42 50 21 124 -30 104 -17 -6 -17 -7 0 -26 15 -17 16 -24 6
-46 -7 -17 -17 -24 -27 -20 -81 31 -153 46 -177 37 -15 -6 -27 -16 -27 -24 0
-7 26 -34 57 -61 53 -44 60 -47 98 -42 49 7 70 -4 60 -32 -3 -13 1 -37 11 -59
12 -23 14 -38 7 -40 -5 -2 -18 -9 -27 -16 -24 -18 -12 -61 22 -77 16 -7 22
-15 15 -17 -7 -3 -13 -9 -13 -14 0 -14 28 -11 33 4 3 9 9 8 21 -4 14 -13 15
-21 6 -43 -10 -27 -12 -28 -58 -21 -26 4 -56 15 -67 24 -11 10 -28 21 -37 24
-11 4 -15 12 -12 22 4 10 0 15 -15 15 -12 0 -21 -4 -21 -10 0 -5 6 -10 13 -10
6 0 -1 -11 -18 -24 -24 -19 -31 -21 -42 -10 -22 21 -16 44 12 44 30 0 33 16 5
25 -37 12 -22 28 20 22 29 -4 40 -1 40 8 0 17 -30 24 -132 31 -62 5 -88 11
-103 25 -18 18 -18 21 -4 45 18 30 33 33 37 7 9 -41 72 -84 72 -48 0 9 10 15
26 15 34 0 29 33 -6 40 -52 11 -87 59 -68 94 5 10 8 26 5 37 -3 10 -1 19 4 19
6 0 15 14 21 31 6 18 16 28 23 25 7 -2 21 2 32 10 17 14 16 15 -10 11 -29 -5
-51 19 -45 49 2 12 16 7 62 -21 59 -35 76 -41 76 -27 0 16 -85 61 -127 68 -24
3 -47 13 -52 22 -11 20 -41 9 -48 -18 -3 -11 -10 -20 -15 -20 -6 0 -7 -11 -4
-24 8 -33 -12 -76 -36 -76 -22 0 -61 -37 -53 -50 4 -6 17 -10 31 -10 24 0 34
-23 14 -35 -5 -3 -10 -17 -10 -29 0 -19 -7 -25 -32 -29 -18 -2 -37 -2 -41 0
-12 7 1 72 19 97 19 27 18 61 -2 81 -13 13 -14 19 -5 28 9 9 16 7 30 -12 10
-13 25 -22 35 -20 15 4 15 7 -4 44 -12 23 -16 41 -10 43 5 2 10 15 10 28 0 20
5 24 30 24 34 0 35 3 19 65 -13 52 -8 82 21 113 15 15 28 21 41 17 11 -4 26
-1 34 5 12 10 23 6 57 -19 23 -17 54 -31 68 -31 28 0 97 -65 92 -86 -5 -24 28
-23 43 0 22 34 5 73 -36 84 -52 13 -58 35 -21 73 18 18 32 39 32 46 0 8 8 30
17 51 l17 37 4 -28 c2 -17 -3 -36 -13 -47z m1195 15 l23 -25 -24 0 c-16 0 -28
9 -36 25 -15 34 5 34 37 0z m200 2 c0 -6 15 -17 33 -23 103 -36 136 -59 137
-96 0 -19 -29 -25 -45 -9 -11 9 -121 58 -207 91 -84 32 -75 47 30 49 36 1 52
-3 52 -12z m137 -23 c-4 -4 -19 -1 -34 6 -26 12 -27 13 -8 20 21 8 55 -13 42
-26z m-2671 11 c-19 -14 -112 -45 -136 -45 -6 0 -10 6 -8 13 5 13 28 21 103
35 28 5 52 10 55 10 3 1 -4 -5 -14 -13z m2854 -27 c22 -23 40 -46 40 -50 0
-26 -87 20 -118 61 l-23 31 30 0 c22 0 41 -11 71 -42z m-2642 14 c3 -10 -52
-52 -70 -52 -13 0 5 41 26 55 22 16 38 15 44 -3z m822 6 c0 -4 -4 -10 -10 -13
-5 -3 -10 -17 -10 -31 0 -33 -33 -32 -55 3 -17 25 -17 27 0 39 18 13 75 15 75
2z m-1230 -27 c0 -13 -61 -70 -109 -100 -75 -50 -77 -51 -63 -57 16 -7 15 -24
-3 -44 -8 -9 -16 -26 -18 -39 -3 -20 -90 -101 -109 -101 -22 0 -1 33 53 85 38
36 58 63 55 72 -5 13 -12 12 -42 -6 -57 -34 -66 -11 -20 54 12 16 26 39 31 49
11 21 30 33 100 63 71 30 125 40 125 24z m284 1 c2 -4 -11 -28 -31 -52 -19
-25 -41 -57 -48 -71 -13 -25 -85 -79 -105 -79 -5 0 -10 11 -10 25 0 39 137
177 182 184 4 1 9 -3 12 -7z m170 -29 c-27 -42 -71 -76 -123 -99 -78 -33 -58
-3 39 61 36 24 72 50 79 59 26 31 30 15 5 -21z m2120 -2 c49 -28 42 -37 -21
-30 -32 3 -65 9 -74 13 -10 5 -22 -2 -35 -19 -21 -27 -44 -33 -44 -11 0 8 -2
20 -5 28 -3 7 8 19 26 28 38 18 111 14 153 -9z m-2434 -8 c-2 -21 -132 -146
-184 -178 -59 -35 -106 -45 -106 -24 0 25 162 172 208 190 50 19 82 24 82 12z
m1594 -18 c-4 -8 -10 -15 -15 -15 -5 0 -9 7 -9 15 0 8 7 15 15 15 9 0 12 -6 9
-15z m974 -28 c27 3 107 -40 107 -59 0 -19 -74 -11 -146 16 -58 22 -59 23 -34
34 16 7 25 20 25 34 0 23 0 23 13 -2 9 -17 20 -24 35 -23z m523 4 c60 -39 131
-113 104 -108 -45 7 -117 61 -150 110 -22 35 -10 34 46 -2z m-218 -18 c75 -36
159 -133 117 -133 -16 0 -92 40 -115 60 -11 10 -33 24 -50 31 -23 11 -31 22
-33 46 -4 37 -5 37 81 -4z m132 17 c3 -5 2 -10 -4 -10 -5 0 -13 5 -16 10 -3 6
-2 10 4 10 5 0 13 -4 16 -10z m-605 -36 c12 -12 12 -14 -6 -14 -12 0 -29 10
-40 21 -19 22 -19 22 6 14 14 -4 32 -13 40 -21z m-2870 1 c0 -8 -4 -15 -9 -15
-5 0 -14 -13 -21 -30 -11 -25 -108 -120 -124 -120 -14 0 14 46 54 89 9 9 28
33 43 54 29 38 57 49 57 22z m3468 -30 c-3 -3 -9 2 -12 12 -6 14 -5 15 5 6 7
-7 10 -15 7 -18z m-667 4 c11 -5 17 -14 14 -20 -11 -16 -44 -10 -55 11 -9 16
-8 20 5 20 9 0 25 -5 36 -11z m751 -18 c20 -17 107 -68 176 -102 27 -14 42
-28 42 -40 0 -22 -9 -23 -64 -7 -29 9 -64 35 -118 89 -86 84 -109 123 -36 60z
m-565 4 c12 -8 48 -18 80 -21 32 -4 60 -8 62 -10 10 -9 -14 -24 -37 -24 -15 0
-43 -5 -62 -10 -25 -7 -51 -7 -87 1 -49 11 -51 13 -30 24 13 6 22 20 21 33 -1
26 22 29 53 7z m293 -53 c30 -17 67 -43 81 -59 33 -34 94 -130 104 -161 6 -22
5 -23 -17 -17 -34 11 -66 36 -134 107 -71 73 -134 161 -134 185 0 14 3 14 23
-4 12 -11 47 -34 77 -51z m355 -100 c-7 -8 -127 12 -142 24 -17 13 -17 15 0
25 21 12 22 47 2 73 -33 44 -11 29 64 -43 43 -42 77 -77 76 -79z m-2817 96 c8
-22 9 -35 2 -42 -7 -7 -13 -4 -16 12 -8 28 -26 28 -82 1 -34 -17 -48 -19 -65
-11 -22 10 -22 11 4 11 14 1 50 14 80 30 30 15 56 29 59 30 3 0 11 -13 18 -31z
m-430 -13 c7 -14 12 -28 12 -29 0 -9 -99 -65 -135 -76 -22 -7 -44 -16 -50 -20
-32 -24 -115 -22 -115 3 0 19 81 67 112 67 36 0 85 21 123 54 37 32 39 32 53
1z m-394 -27 c-38 -48 -113 -109 -138 -112 -14 -1 -35 -11 -47 -22 l-21 -19 7
35 c9 45 24 63 47 57 12 -4 42 13 86 48 66 53 103 61 66 13z m544 -10 c12 -6
22 -15 22 -20 0 -17 -72 -39 -118 -36 l-47 3 32 20 c20 12 33 28 33 41 0 30
11 36 34 19 12 -8 31 -20 44 -27z m2680 -28 c43 -57 49 -70 33 -70 -10 0 -21
9 -24 19 -3 13 -23 24 -63 35 -33 9 -70 21 -84 27 -25 11 -24 12 25 34 28 13
52 24 55 24 3 1 29 -30 58 -69z m-408 30 l55 -6 -37 -17 c-49 -22 -80 -21
-130 4 l-42 21 24 13 c18 10 31 10 50 2 14 -6 50 -13 80 -17z m-1610 -25 c-25
-26 -43 -25 -33 3 9 26 35 44 47 32 6 -6 2 -18 -14 -35z m1808 13 c24 -20 12
-28 -43 -28 -55 0 -61 4 -49 35 5 13 14 15 43 10 20 -4 42 -11 49 -17z m-2148
-62 c-5 -5 -4 -16 3 -26 14 -24 -1 -42 -57 -69 -52 -26 -167 -29 -186 -6 -10
12 -7 17 16 26 16 6 54 13 84 16 71 6 108 20 116 45 10 32 -8 40 -53 24 -42
-15 -53 -13 -53 11 0 9 13 13 39 13 22 0 43 5 46 10 4 7 16 2 30 -12 14 -13
20 -27 15 -32z m2600 25 c0 -5 8 -12 18 -14 10 -3 6 -5 -10 -6 -19 -1 -28 4
-28 14 0 8 5 15 10 15 6 0 10 -4 10 -9z m400 -36 c19 -25 46 -59 59 -76 13
-16 21 -33 18 -36 -7 -7 -138 69 -155 90 -10 12 -8 13 14 9 25 -5 26 -3 22 27
-2 17 -2 31 1 31 3 0 22 -20 41 -45z m-3172 2 c3 -12 -3 -17 -20 -17 -13 0
-35 -7 -50 -14 -16 -8 -28 -11 -28 -7 0 4 16 16 35 27 19 10 35 22 35 27 0 15
25 1 28 -16z m693 -10 c5 -19 2 -33 -9 -47 -16 -20 -17 -19 -17 29 0 54 14 63
26 18z m1306 14 c18 -7 31 -17 28 -22 -7 -11 -135 -9 -135 2 0 5 9 9 20 9 10
0 25 7 32 15 7 8 15 13 18 11 3 -1 20 -8 37 -15z m271 3 c24 -1 59 2 78 8 19
5 41 7 47 5 21 -8 -66 -26 -154 -33 -61 -4 -93 -2 -110 7 -23 12 -23 12 -4 20
11 5 38 6 60 2 22 -4 59 -8 83 -9z m754 -12 c-7 -2 -12 -15 -12 -29 0 -23 -3
-25 -32 -19 -35 7 -66 31 -55 43 10 9 89 21 102 14 5 -2 4 -6 -3 -9z m-3718
-18 c4 -10 16 -14 33 -13 16 2 34 0 41 -5 17 -10 -9 -36 -56 -55 -18 -8 -52
-29 -75 -47 -53 -43 -66 -43 -35 -1 14 17 36 56 49 85 25 55 33 62 43 36z
m3113 -11 c3 -10 21 -37 40 -60 l34 -43 -27 -10 c-26 -10 -119 -8 -130 3 -3 3
8 13 25 22 34 17 40 45 16 65 -20 16 -19 27 3 33 30 8 32 7 39 -10z m110 -13
c13 0 34 -10 46 -23 23 -25 62 -48 112 -67 30 -11 84 -80 104 -132 9 -25 8
-28 -9 -28 -38 0 -76 25 -155 102 -44 42 -98 93 -119 111 -25 22 -36 38 -31
46 5 9 10 10 18 2 6 -6 22 -11 34 -11z m-2812 2 c33 -6 36 -9 20 -15 -30 -12
-169 -27 -194 -20 -30 8 -26 18 12 31 38 12 107 14 162 4z m2410 -2 c3 -5 2
-10 -4 -10 -5 0 -13 5 -16 10 -3 6 -2 10 4 10 5 0 13 -4 16 -10z m-2929 -44
c-15 -28 -76 -77 -76 -61 0 20 42 83 62 92 32 15 35 8 14 -31z m688 15 c-5
-22 -1 -32 22 -50 15 -12 25 -23 23 -24 -8 -7 -137 -27 -168 -27 -46 0 -38 14
24 44 36 17 55 32 55 43 0 10 10 23 23 29 12 7 23 12 24 13 1 0 0 -12 -3 -28z
m2453 -8 c3 -7 -7 -15 -22 -19 -32 -8 -158 36 -130 46 25 9 148 -13 152 -27z
m-282 8 c5 -17 54 -47 108 -64 21 -8 23 -27 2 -27 -30 0 -132 59 -138 79 -8
34 17 45 28 12z m795 4 c7 -8 8 -15 2 -15 -5 0 -15 7 -22 15 -7 8 -8 15 -2 15
5 0 15 -7 22 -15z m-3751 -24 c-6 -17 -17 -35 -25 -42 -11 -9 -14 -7 -14 12 0
28 9 44 30 52 8 3 16 6 17 6 1 1 -3 -12 -8 -28z m349 6 c2 -10 -9 -22 -30 -33
-18 -9 -49 -29 -68 -44 -19 -15 -47 -30 -62 -34 -27 -6 -27 -5 -16 20 7 14 32
36 58 49 25 12 56 32 70 44 28 23 43 22 48 -2z m3682 3 c14 -10 21 -22 17 -26
-4 -4 -20 4 -35 19 -31 31 -19 36 18 7z m-1484 -27 c-7 -7 -26 7 -26 19 0 6 6
6 15 -2 9 -7 13 -15 11 -17z m1424 2 c13 -14 37 -29 54 -33 39 -10 44 -30 11
-38 -30 -7 -57 3 -130 49 l-50 32 40 6 c22 3 43 7 46 8 3 0 16 -10 29 -24z
m-2190 1 c0 -19 30 -29 46 -15 21 17 17 -5 -4 -24 -15 -14 -21 -14 -34 -4 -18
14 -31 57 -17 57 5 0 9 -6 9 -14z m-1185 -6 c-7 -11 -92 -36 -152 -44 -44 -6
-57 2 -46 29 5 14 15 17 57 13 28 -3 65 -2 81 2 48 9 66 9 60 0z m503 -12 c2
-11 -6 -18 -27 -23 -44 -9 -59 4 -30 26 28 22 52 21 57 -3z m458 -15 c-10 -10
-19 5 -10 18 6 11 8 11 12 0 2 -7 1 -15 -2 -18z m1608 11 c17 -6 22 -34 7 -34
-5 0 -11 -9 -14 -20 -4 -14 -14 -20 -33 -20 -26 0 -26 1 -11 18 10 10 17 25
17 34 0 13 8 28 16 28 1 0 9 -3 18 -6z m636 -22 c55 -19 56 -20 43 -33 -9 -9
-25 -7 -62 7 -36 13 -54 15 -62 7 -7 -7 8 -18 51 -35 34 -13 62 -29 63 -34 1
-5 -15 -10 -35 -12 -29 -2 -39 1 -48 17 -6 12 -17 21 -25 21 -14 0 -55 46 -55
61 0 5 9 9 19 9 11 0 23 5 26 11 4 6 14 7 24 3 9 -4 36 -14 61 -22z m-3871
-18 c6 -14 9 -29 6 -34 -8 -12 -54 -18 -50 -6 2 6 6 23 9 39 8 34 19 34 35 1z
m1036 6 c0 -8 -16 -22 -35 -31 -44 -20 -170 -35 -170 -20 0 11 17 16 83 25 20
3 49 14 64 26 29 23 58 23 58 0z m2000 1 c3 -5 0 -13 -6 -16 -5 -4 -8 -13 -5
-21 3 -8 -1 -14 -9 -14 -8 0 -15 6 -15 14 0 8 -3 21 -6 30 -4 11 0 16 14 16
12 0 23 -4 27 -9z m517 -46 c9 -12 0 -21 -30 -30 -21 -6 -22 -4 -16 19 5 22 3
26 -15 26 -12 0 -33 -7 -46 -16 -30 -20 -124 -15 -151 7 -15 12 -6 15 80 20
53 3 102 11 108 17 9 9 18 7 37 -11 14 -12 29 -26 33 -32z m668 19 c6 -14 18
-24 30 -24 13 0 20 -7 20 -20 0 -11 -4 -20 -8 -20 -5 0 -17 9 -27 20 -10 11
-24 20 -31 20 -18 0 -26 17 -19 40 8 24 23 17 35 -16z m-3803 9 c19 -12 45
-17 86 -16 36 1 55 -2 47 -7 -8 -5 -61 -8 -118 -7 l-104 1 28 23 c35 27 29 27
61 6z m847 8 c3 -5 37 -8 76 -6 66 3 70 2 70 -19 0 -16 -11 -27 -34 -39 -33
-15 -36 -15 -59 4 -18 13 -41 19 -79 19 -65 0 -88 11 -69 34 14 17 86 22 95 7z
m-644 -11 c0 -5 -5 -10 -11 -10 -5 0 -7 5 -4 10 3 6 8 10 11 10 2 0 4 -4 4
-10z m3381 -6 c10 -13 10 -17 -2 -25 -23 -14 -39 -10 -39 9 0 34 20 42 41 16z
m-3831 -2 c0 -19 -116 -109 -127 -98 -3 3 9 19 27 36 26 24 31 33 20 40 -7 4
-20 6 -29 3 -12 -3 -12 -2 2 7 9 6 21 9 26 6 5 -4 20 -2 33 3 29 12 48 13 48
3z m2975 -13 c15 -15 -28 -10 -55 6 -25 14 -25 14 10 8 19 -3 39 -10 45 -14z
m-2055 -8 c0 -17 -127 -71 -169 -71 -56 0 -52 17 7 25 26 3 66 17 88 30 40 24
74 31 74 16z m481 -24 c-8 -8 -11 -7 -11 4 0 20 13 34 18 19 3 -7 -1 -17 -7
-23z m1397 3 c8 -13 23 -20 45 -20 17 0 39 -5 47 -10 13 -9 13 -11 0 -20 -8
-5 -27 -10 -42 -10 -15 0 -29 -4 -33 -9 -3 -5 -17 1 -31 14 -20 19 -25 30 -20
50 8 30 17 32 34 5z m1190 5 c3 -3 1 -10 -6 -17 -8 -8 -19 -7 -43 2 -28 12
-29 15 -13 21 20 7 53 4 62 -6z m-3878 -13 c0 -11 -92 -78 -119 -87 l-23 -7
21 21 c12 12 24 21 29 21 4 0 25 14 46 30 43 32 46 34 46 22z m2400 -13 c0 -5
-4 -9 -10 -9 -5 0 -10 7 -10 16 0 8 5 12 10 9 6 -3 10 -10 10 -16z m157 1 l26
-20 -25 0 c-24 0 -48 16 -48 32 0 14 21 9 47 -12z m-2837 -5 c-8 -9 -10 -29
-7 -49 5 -30 1 -39 -33 -70 -22 -20 -52 -41 -67 -47 l-28 -10 21 23 c29 32 94
133 94 146 0 6 6 13 13 15 20 8 20 8 7 -8z m1444 -18 c-3 -9 -10 -14 -15 -11
-5 3 -25 1 -44 -5 -24 -6 -46 -6 -65 1 -44 15 -36 27 14 21 29 -3 55 1 73 11
31 16 47 9 37 -17z m1756 23 c0 -4 -12 -15 -26 -25 -28 -18 -51 -8 -41 18 5
15 67 22 67 7z m90 0 c0 -5 -2 -10 -4 -10 -3 0 -8 5 -11 10 -3 6 -1 10 4 10 6
0 11 -4 11 -10z m-1735 -39 c6 -11 -1 -16 -37 -25 -21 -5 -28 -3 -28 8 0 20
54 34 65 17z m1220 -1 c3 -5 35 -10 70 -10 60 0 88 -11 65 -25 -17 -10 -134
-8 -162 4 -35 13 -37 41 -4 41 14 0 28 -4 31 -10z m-2866 -22 c-5 -10 -11 -18
-12 -18 -2 0 -3 8 -3 18 0 10 6 19 13 19 8 0 9 -6 2 -19z m1373 -9 c33 -17 51
-20 90 -15 29 4 48 3 48 -3 0 -13 -83 -25 -128 -17 -34 5 -62 27 -62 48 0 12
7 10 52 -13z m1341 13 c8 -11 -4 -62 -14 -62 -13 0 -31 40 -25 56 6 15 32 19
39 6z m-1018 -22 c-3 -6 4 -10 18 -10 31 0 87 -19 87 -30 0 -5 -19 -11 -41
-15 -36 -6 -45 -4 -68 19 -22 23 -24 28 -11 36 19 12 23 12 15 0z m-1543 -22
c-7 -7 -12 -8 -12 -2 0 14 12 26 19 19 2 -3 -1 -11 -7 -17z m2408 2 c0 -21
-38 -37 -65 -26 -23 9 -18 23 13 34 41 16 52 14 52 -8z m230 11 c0 -4 17 -15
38 -24 l37 -15 -30 -1 c-19 -1 -37 7 -48 19 -20 23 -21 30 -7 30 6 0 10 -4 10
-9z m-1185 -23 c-11 -36 -22 -42 -34 -20 -9 17 -8 23 6 31 28 16 35 13 28 -11z
m971 -46 c13 -8 34 -46 34 -61 0 -16 -49 6 -70 32 -17 20 -17 23 -2 29 23 9
25 9 38 0z m84 -13 c0 -11 -4 -17 -10 -14 -5 3 -10 13 -10 21 0 8 5 14 10 14
6 0 10 -9 10 -21z m-860 3 c0 -26 -78 -70 -100 -57 -10 6 4 44 21 55 14 10 79
11 79 2z m680 -17 c10 -12 9 -15 -8 -15 -11 0 -25 7 -32 15 -10 12 -9 15 8 15
11 0 25 -7 32 -15z m-645 -46 c8 -12 -13 -69 -26 -69 -12 0 -21 38 -14 60 7
21 30 27 40 9z m648 -5 c32 -6 37 -10 37 -33 0 -15 -5 -32 -12 -39 -9 -9 -9
-15 -1 -23 13 -13 52 9 54 31 1 8 2 21 3 29 0 7 11 17 24 22 20 8 22 6 22 -28
0 -43 -45 -93 -84 -93 -40 0 -85 77 -56 95 16 10 11 25 -8 25 -10 0 -28 -10
-40 -23 -19 -20 -20 -25 -7 -47 27 -47 28 -52 14 -61 -22 -14 -24 -12 -43 36
-16 38 -21 43 -37 34 -23 -12 -24 -32 -3 -64 11 -17 14 -34 9 -52 l-7 -28 -13
33 c-18 41 -45 43 -45 3 0 -55 -20 -91 -64 -112 l-41 -21 27 24 c35 31 47 58
41 90 -5 28 -34 45 -54 33 -7 -5 -5 -13 6 -25 15 -17 13 -21 -29 -65 l-46 -47
-11 25 c-9 21 -8 30 10 54 18 24 20 34 12 56 -10 25 -8 27 14 27 38 0 138 29
154 44 7 8 11 21 8 30 -7 18 -28 13 -68 -17 -15 -10 -42 -19 -60 -20 -41 -1
-127 23 -141 40 -7 9 -19 7 -49 -9 -21 -11 -39 -24 -39 -29 0 -4 -9 -13 -21
-19 -16 -9 -26 -8 -43 4 -31 20 -37 47 -19 84 14 30 15 30 49 16 18 -8 57 -15
86 -17 36 -1 59 -8 72 -21 16 -16 29 -18 84 -13 41 3 70 11 76 19 10 13 97 35
119 30 4 -2 18 4 30 13 24 17 35 18 90 9z m-733 -40 c14 -36 13 -41 -11 -47
-15 -4 -19 -2 -15 9 3 8 1 14 -3 14 -12 0 -23 29 -15 41 10 18 35 9 44 -17z
m290 -85 c0 -5 -7 -9 -15 -9 -9 0 -15 -9 -15 -25 0 -28 -17 -34 -27 -10 -3 9
2 24 11 34 9 10 16 23 16 31 0 10 3 10 15 0 8 -7 15 -16 15 -21z m35 -9 c3 -5
2 -10 -4 -10 -5 0 -13 5 -16 10 -3 6 -2 10 4 10 5 0 13 -4 16 -10z m18 -48 c3
-4 -3 -17 -13 -30 -21 -26 -36 -13 -20 18 11 21 25 26 33 12z m43 -231 c8 -24
13 -46 10 -48 -9 -9 -25 7 -25 25 -1 9 -3 37 -6 62 -2 25 -2 36 1 25 3 -11 12
-40 20 -64z m54 27 c0 -17 -3 -18 -14 -8 -8 6 -12 18 -9 26 7 19 23 7 23 -18z
m-390 -20 c0 -14 -19 1 -31 25 -12 22 -12 22 10 3 11 -11 21 -23 21 -28z m718
25 c-5 -25 -28 -28 -28 -4 0 12 6 21 16 21 9 0 14 -7 12 -17z m767 -33 l20 -9
-20 0 c-11 0 -29 4 -40 9 l-20 9 20 0 c11 0 29 -4 40 -9z m-321 -83 c13 -9 16
-24 14 -57 -3 -37 -7 -45 -23 -45 -13 0 -21 8 -23 23 -2 12 -10 22 -18 22 -8
0 -14 5 -14 10 0 16 -22 12 -36 -7 -12 -17 -13 -16 -14 4 0 13 12 28 33 41 38
24 57 26 81 9z m161 -11 c31 -13 35 -19 35 -50 0 -44 -29 -76 -69 -76 -34 0
-49 15 -57 59 -5 25 -2 37 16 56 27 29 30 30 75 11z m145 -21 c17 -9 33 -28
40 -50 7 -20 10 -37 8 -39 -52 -35 -85 -41 -118 -21 -17 11 -11 23 9 18 23 -6
84 24 76 37 -4 6 -12 10 -20 10 -7 0 -15 6 -18 13 -3 9 -9 9 -26 -1 -17 -10
-21 -10 -21 2 0 14 26 46 36 46 3 0 18 -7 34 -15z m185 -49 c37 -26 21 -97
-26 -111 -14 -5 -28 0 -45 16 -59 55 6 143 71 95z m143 -45 c12 -11 22 -24 22
-30 0 -6 7 -8 15 -5 22 9 45 -14 45 -45 l-1 -26 -17 28 c-20 33 -25 34 -42 2
-7 -13 -26 -29 -41 -34 -24 -8 -33 -6 -53 12 -40 36 -41 61 -6 91 37 31 47 32
78 7z m-726 -56 c-5 -38 -13 -43 -32 -20 -15 19 -3 55 19 55 14 0 16 -7 13
-35z m-2012 10 c-13 -16 -50 -21 -50 -7 0 15 13 22 38 22 21 0 22 -2 12 -15z
m-100 -9 c0 -8 -5 -18 -10 -21 -17 -11 -40 3 -34 20 8 19 44 20 44 1z m2260
-26 c10 0 25 -6 32 -13 25 -25 57 -38 83 -31 20 5 25 3 25 -14 0 -11 8 -30 18
-42 15 -19 28 -23 75 -22 43 0 57 -3 57 -14 0 -19 29 -18 36 1 4 8 10 15 14
15 13 0 -1 -43 -22 -67 -30 -32 -13 -48 23 -22 28 19 31 20 48 5 10 -9 30 -16
46 -16 28 0 28 1 9 15 -25 19 -15 19 30 0 20 -8 36 -20 36 -25 0 -17 100 -165
128 -188 l27 -23 -35 -29 c-84 -70 -200 -116 -200 -79 0 14 -18 11 -47 -8 -15
-10 -40 -16 -57 -14 -38 4 -42 7 -29 23 12 16 29 78 38 138 4 25 11 50 17 57
20 26 -15 24 -43 -3 -28 -26 -185 -87 -201 -77 -5 2 -8 12 -8 21 0 10 -7 27
-15 39 -14 21 -14 22 12 25 47 5 35 33 -14 34 -51 1 -61 8 -42 30 13 16 11 17
-13 11 -14 -4 -33 -10 -42 -13 -18 -7 -19 0 -16 91 1 46 -3 66 -18 85 -10 14
-22 41 -25 60 -4 19 -10 48 -13 64 l-7 30 37 -22 c20 -12 46 -22 56 -22z
m-2060 10 c0 -5 -4 -10 -10 -10 -5 0 -10 5 -10 10 0 6 5 10 10 10 6 0 10 -4
10 -10z m-310 -31 c0 -12 -7 -19 -20 -19 -22 0 -29 35 -7 43 18 6 27 -2 27
-24z m2493 14 c-7 -2 -19 -2 -25 0 -7 3 -2 5 12 5 14 0 19 -2 13 -5z m-2590
-43 c3 -13 -2 -28 -16 -41 l-22 -20 -3 26 c-3 25 12 55 28 55 4 0 10 -9 13
-20z m237 -5 c28 -21 31 -25 16 -31 -10 -4 -34 1 -54 11 -35 16 -36 18 -17 31
23 17 15 18 55 -11z m109 -1 c15 -34 11 -37 -27 -18 -38 18 -42 44 -9 44 16 0
28 -9 36 -26z m2371 11 l35 -14 -39 2 c-22 2 -41 8 -44 15 -5 15 3 14 48 -3z
m390 6 c0 -17 -25 -30 -40 -20 -13 8 -13 10 0 19 19 12 40 13 40 1z m-2962
-50 c11 -6 8 -14 -13 -35 -14 -14 -27 -26 -29 -26 -8 0 -16 51 -11 60 8 12 35
13 53 1z m2871 -7 c2 -2 -7 -4 -22 -4 -14 0 -29 5 -32 10 -6 10 42 4 54 -6z
m-3147 -25 c-3 -27 -31 -61 -43 -53 -10 6 -1 53 14 72 15 19 32 8 29 -19z
m1677 -194 c1 -164 -1 -215 -11 -215 -6 0 -35 25 -64 56 -90 98 -106 201 -46
288 23 32 90 83 113 85 4 1 7 -96 8 -214z m-1219 195 c0 -5 -4 -10 -9 -10 -6
0 -13 5 -16 10 -3 6 1 10 9 10 9 0 16 -4 16 -10z m2575 0 c3 -5 1 -10 -4 -10
-6 0 -11 5 -11 10 0 6 2 10 4 10 3 0 8 -4 11 -10z m-2838 -32 c20 -16 5 -28
-36 -28 -30 0 -40 5 -49 24 -9 21 -8 25 6 29 19 4 60 -9 79 -25z m-309 5 c6
-10 6 -27 0 -45 l-10 -29 -14 27 c-8 14 -14 35 -14 45 0 24 26 25 38 2z m1964
-94 c17 -58 -13 -166 -58 -210 l-34 -33 0 179 0 179 40 -39 c22 -22 46 -56 52
-76z m-1358 50 c4 -23 -1 -47 -17 -83 -21 -46 -22 -56 -11 -101 19 -80 18 -88
-11 -81 -17 4 -31 0 -45 -14 -11 -11 -31 -22 -45 -26 -34 -8 -40 -21 -15 -34
15 -8 20 -21 20 -50 0 -36 -3 -40 -25 -40 -28 0 -105 29 -105 39 0 3 -15 15
-34 25 -19 10 -37 29 -40 42 -8 29 -22 31 -29 4 -3 -12 6 -33 22 -55 24 -32
26 -44 24 -107 -2 -86 17 -120 84 -150 23 -10 43 -23 43 -28 0 -13 -17 -13
-25 -1 -3 5 -22 15 -43 22 -20 6 -75 33 -122 58 -101 54 -144 71 -187 71 -39
0 -43 21 -15 72 10 18 26 60 36 93 19 62 40 95 62 95 7 0 26 11 42 25 17 14
39 25 50 25 20 0 20 1 -4 28 -29 31 -48 62 -38 62 4 0 13 -8 21 -17 9 -12 16
-14 19 -7 3 8 20 10 44 7 32 -5 45 -1 70 21 17 14 40 26 50 26 11 0 33 18 51
39 37 47 81 70 130 71 33 0 37 -3 43 -31z m-684 -13 c0 -8 -4 -18 -10 -21 -5
-3 -10 3 -10 14 0 12 5 21 10 21 6 0 10 -6 10 -14z m267 -3 c3 -7 -10 -16 -29
-21 -29 -8 -47 -4 -78 16 -2 2 2 7 10 13 20 13 92 7 97 -8z m-340 -42 c-12
-25 -12 -25 -15 -2 -2 12 -1 30 3 39 5 13 8 14 15 3 5 -8 3 -25 -3 -40z m483
4 c-7 -8 -17 -15 -23 -15 -5 0 -2 9 8 20 21 23 35 19 15 -5z m-271 -21 c9 -20
8 -26 -5 -31 -20 -7 -59 30 -51 50 8 22 42 10 56 -19z m-119 -19 c0 -8 -4 -15
-9 -15 -13 0 -22 16 -14 24 11 11 23 6 23 -9z m-80 -55 c-22 -14 -40 -12 -40
4 0 17 31 26 45 14 6 -6 5 -12 -5 -18z m280 20 c0 -5 -4 -10 -9 -10 -5 0 -18
-3 -28 -6 -16 -5 -16 -4 1 10 23 18 36 20 36 6z m-144 -47 c-4 -4 -11 -1 -16
7 -16 25 -11 35 7 17 9 -9 13 -20 9 -24z m-31 -73 c-3 -5 -1 -10 5 -10 6 0 8
-5 4 -12 -6 -9 -9 -9 -11 -1 -3 7 -12 9 -21 6 -15 -6 -15 -5 -3 10 14 18 36
24 26 7z m2965 -20 c-20 -13 -33 -13 -25 0 3 6 14 10 23 10 15 0 15 -2 2 -10z
m539 -4 c9 -11 -4 -21 -72 -55 -45 -22 -89 -41 -96 -41 -8 0 -10 -7 -6 -20 8
-26 -75 -115 -145 -152 l-50 -28 0 35 c0 19 -4 35 -9 35 -17 0 -33 -31 -28
-56 3 -19 0 -27 -17 -34 -29 -11 -37 -3 -26 26 6 14 10 32 10 40 0 29 -36 -4
-50 -45 -7 -21 -20 -42 -29 -45 -9 -3 -22 -9 -29 -12 -13 -6 22 68 50 108 7 9
9 20 5 24 -10 10 -33 -12 -68 -64 -23 -34 -29 -53 -25 -74 5 -23 -1 -36 -29
-66 -29 -31 -34 -34 -35 -17 0 25 10 40 33 48 17 6 24 37 8 37 -5 0 -11 24
-14 53 -4 48 -2 55 29 94 19 23 34 50 35 60 0 11 3 13 6 5 7 -18 51 -38 99
-46 49 -9 124 17 219 75 36 21 68 39 73 39 5 0 19 11 32 25 13 14 29 24 36 21
7 -2 22 6 35 20 26 27 41 30 58 10z m-593 -105 c-26 -27 -29 -28 -45 -13 -16
16 -15 18 19 38 46 28 62 13 26 -25z m-74 -67 c-10 -18 -11 -17 -20 6 -12 32
-4 46 15 27 11 -11 13 -20 5 -33z m608 -46 c0 -20 32 -48 54 -48 12 0 30 6 41
14 11 7 40 17 64 21 24 4 52 16 64 28 20 20 20 20 35 1 20 -26 52 -96 52 -114
0 -8 -9 -21 -20 -28 -17 -10 -26 -8 -61 18 -45 32 -82 37 -152 21 -30 -7 -40
-6 -44 5 -5 14 -35 19 -46 7 -4 -3 -2 -12 3 -19 8 -9 1 -20 -27 -43 -34 -28
-61 -35 -35 -9 7 7 12 27 12 45 0 41 -36 68 -80 59 -17 -3 -30 -3 -30 0 0 3
26 34 57 68 l57 63 28 -38 c15 -22 28 -44 28 -51z m-1615 -67 c0 -78 -3 -97
-12 -89 -38 32 -33 188 6 188 3 0 6 -45 6 -99z m85 54 c11 -30 2 -119 -16
-142 -10 -15 -13 -3 -13 75 0 91 11 116 29 67z m917 10 c0 -8 -4 -12 -9 -9 -4
3 -8 9 -8 15 0 5 4 9 8 9 5 0 9 -7 9 -15z m-2716 -71 c35 -14 71 -31 79 -38
25 -19 90 -51 175 -85 77 -30 95 -32 165 -16 23 5 30 -3 85 -97 33 -57 74
-124 91 -150 18 -26 40 -69 50 -95 9 -26 32 -80 50 -118 34 -74 59 -148 68
-202 5 -31 4 -33 -24 -33 -17 0 -39 5 -50 12 -15 10 -26 9 -55 -5 -20 -10 -33
-22 -30 -28 4 -6 13 -8 20 -5 18 6 85 -12 85 -24 0 -5 -9 -15 -21 -23 -35 -25
-69 -80 -69 -111 1 -60 43 -88 152 -103 20 -3 39 -11 42 -19 8 -20 -65 -15
-80 6 -10 12 -21 13 -70 2 -87 -17 -284 -27 -284 -13 0 7 33 11 98 12 104 1
145 8 140 24 -2 6 -40 9 -91 9 -71 -1 -87 1 -83 12 6 14 -29 38 -43 30 -11 -7
-98 27 -122 47 -10 9 -19 25 -19 36 0 33 24 43 89 35 57 -6 61 -8 71 -40 12
-35 17 -38 97 -48 39 -6 43 -4 82 40 23 26 41 51 41 55 0 19 -29 7 -64 -26
-21 -19 -43 -35 -50 -35 -19 0 -43 23 -50 47 -6 17 -1 25 22 37 16 8 38 13 48
10 10 -3 28 1 38 9 19 14 19 16 3 50 -16 34 -90 83 -108 71 -4 -2 -10 5 -14
16 -3 11 -20 33 -36 50 -17 16 -29 35 -27 42 3 15 -25 56 -99 147 -29 36 -53
72 -53 81 0 9 -9 25 -20 35 -11 10 -20 23 -20 30 0 7 -24 35 -53 62 -53 51
-106 75 -194 88 -24 4 -45 11 -49 16 -3 5 -8 8 -12 5 -4 -2 -33 -7 -64 -10
-48 -6 -57 -4 -52 7 7 18 -24 31 -41 17 -9 -7 -16 -6 -25 5 -12 14 -15 14 -31
-1 -17 -15 -17 -14 -7 19 7 22 16 33 24 30 7 -2 33 5 59 16 25 11 63 23 83 27
l37 7 -25 -21 -25 -20 30 -7 c17 -3 41 -8 54 -11 13 -3 39 -17 58 -31 28 -21
38 -24 51 -16 10 6 16 17 14 23 -2 8 3 10 15 5 92 -39 137 -45 147 -19 8 20
12 17 -49 39 -27 10 -62 27 -77 37 -32 22 -52 23 -68 3 -7 -8 -17 -15 -23 -15
-7 0 -7 4 1 12 7 7 12 18 12 25 0 33 -109 52 -165 28 -33 -13 -38 -13 -52 0
-19 19 -37 19 -53 0 -7 -8 -17 -15 -24 -15 -28 0 55 62 99 74 77 21 125 18
196 -10z m1441 5 c25 -4 73 -11 105 -14 71 -8 73 -9 73 -46 0 -35 -11 -38 -25
-6 -6 14 -19 22 -35 23 -14 1 -53 4 -86 8 -65 8 -86 -1 -58 -25 11 -9 39 -12
85 -10 48 1 69 -1 69 -9 0 -7 -7 -10 -15 -6 -18 7 -65 -10 -65 -23 0 -5 10
-12 23 -16 22 -6 22 -7 -23 -21 -13 -5 -12 -7 3 -15 21 -12 24 -54 3 -46 -8 3
-20 0 -26 -8 -9 -11 -7 -16 10 -25 31 -17 19 -35 -25 -35 -50 0 -55 -19 -8
-31 20 -5 39 -15 41 -23 4 -11 -1 -12 -19 -7 -70 22 -95 -5 -30 -32 54 -23 46
-38 -19 -34 -65 4 -66 -18 -2 -32 25 -6 42 -16 42 -24 0 -10 -5 -12 -17 -7
-27 12 -66 11 -70 -1 -2 -6 10 -17 27 -24 28 -12 38 -29 24 -42 -3 -4 -25 7
-49 23 -49 33 -95 37 -187 15 -32 -7 -58 -11 -58 -7 0 16 102 51 148 51 54 0
71 10 47 30 -16 13 -102 8 -148 -9 -34 -13 -47 -14 -47 -2 0 17 63 34 122 34
48 0 58 3 56 16 -4 23 -89 26 -149 7 -66 -22 -80 -20 -39 5 23 15 55 22 95 24
43 2 60 6 60 16 0 20 -85 23 -146 6 -51 -15 -58 -12 -36 16 9 12 35 18 100 23
111 9 111 27 1 34 -105 7 -80 24 35 25 57 0 86 4 88 12 7 19 -42 26 -136 19
-68 -5 -89 -10 -102 -26 -13 -15 -19 -17 -26 -7 -15 20 -9 40 12 42 11 2 40 7
65 14 25 6 69 11 98 11 38 0 52 4 50 13 -7 19 -97 20 -173 2 -38 -8 -70 -13
-73 -10 -9 9 46 23 141 36 94 12 127 22 115 34 -3 3 -55 0 -114 -6 -139 -16
-174 -16 -171 -4 1 6 16 11 32 11 17 1 74 7 129 14 54 6 109 9 123 5 29 -7 54
10 46 31 -4 12 -27 13 -132 8 -127 -6 -195 -17 -219 -36 -7 -6 -15 -8 -19 -5
-10 11 16 34 45 41 15 3 50 13 77 21 55 16 277 19 357 4z m843 2 c148 -22 249
-71 216 -104 -8 -8 -11 -6 -11 6 0 20 -26 35 -76 43 -131 20 -172 23 -230 15
-69 -10 -87 -17 -79 -32 9 -14 91 -11 104 4 18 23 231 -1 231 -26 0 -5 -10 -6
-22 -3 -53 15 -150 18 -214 6 -92 -16 -104 -20 -104 -31 0 -7 29 -8 80 -3 52
4 109 2 158 -6 117 -19 119 -30 6 -23 -64 4 -103 2 -107 -4 -7 -12 86 -33 145
-33 39 0 44 -5 29 -28 -7 -12 -22 -10 -85 7 -85 23 -112 26 -121 11 -7 -12 26
-26 113 -47 34 -9 62 -20 62 -26 0 -5 -7 -7 -15 -3 -31 12 -146 28 -160 22
-30 -11 -14 -25 43 -36 31 -6 69 -13 85 -16 15 -3 27 -12 27 -20 0 -15 -18
-13 -86 7 -34 11 -67 3 -61 -15 2 -6 32 -17 66 -24 38 -9 60 -18 58 -25 -3 -7
-8 -11 -13 -11 -77 13 -113 14 -119 4 -10 -17 -2 -21 56 -29 29 -3 54 -12 57
-18 4 -15 -21 -17 -66 -4 -38 11 -62 5 -62 -15 0 -8 10 -14 25 -14 27 0 95
-25 95 -35 0 -3 -28 -4 -61 -3 -82 4 -92 -17 -13 -27 40 -5 58 -12 61 -23 3
-10 24 -31 47 -47 51 -38 58 -78 13 -83 -25 -3 -27 -1 -21 22 3 13 3 33 0 43
-8 24 -68 61 -74 45 -2 -7 -14 -4 -35 9 -23 13 -45 18 -77 15 -25 -2 -37 -2
-27 1 33 8 19 33 -19 33 -21 0 -33 4 -29 10 3 6 24 10 46 10 28 0 39 4 36 13
-3 8 -21 11 -53 10 -46 -2 -69 10 -58 29 3 4 28 8 55 8 36 0 49 4 46 13 -3 8
-23 12 -60 11 -39 -1 -58 3 -61 12 -6 15 0 17 58 14 28 -1 37 2 34 12 -3 8
-25 14 -59 16 -51 3 -74 16 -62 35 3 4 18 5 34 2 33 -8 40 10 12 31 -17 12
-16 13 5 14 13 0 22 6 22 16 0 12 -7 14 -32 9 -43 -10 -50 -14 -44 -31 3 -7 1
-16 -4 -19 -5 -3 -18 11 -28 32 -24 47 -37 97 -23 89 15 -10 102 15 98 28 -2
6 -21 9 -44 8 -23 -2 -44 1 -48 7 -3 6 -16 11 -28 11 -18 0 -19 2 -7 10 8 5
33 10 55 10 49 0 85 9 85 21 0 5 -12 10 -27 10 l-28 2 28 4 c15 2 27 9 27 14
0 19 -30 20 -87 3 -32 -10 -67 -19 -78 -19 -11 -1 -19 -7 -18 -13 2 -7 -2 -12
-7 -12 -15 0 -12 36 5 50 8 7 24 10 35 7 11 -3 23 -1 26 4 3 5 20 9 39 9 19 0
37 5 40 11 4 5 17 9 28 8 12 -1 29 1 37 4 39 16 135 19 215 8z m431 -67 c-10
-30 -18 -38 -33 -36 -23 3 -48 -22 -38 -38 4 -6 15 -8 26 -5 22 7 35 -15 25
-41 -6 -16 -8 -16 -24 0 -24 21 -70 21 -94 -1 -25 -23 -23 -69 6 -98 16 -16
22 -31 19 -49 -6 -31 35 -76 69 -76 27 0 68 26 68 43 0 7 20 22 43 33 56 28
62 63 17 109 l-31 32 35 22 c19 12 37 30 40 39 8 23 32 37 117 67 40 14 73 25
75 25 1 0 4 -12 7 -27 3 -17 0 -34 -10 -45 -20 -23 -14 -47 20 -72 27 -20 29
-20 57 -4 17 10 32 13 35 7 4 -5 17 -9 31 -9 28 0 31 -12 8 -34 -18 -19 -36
-20 -51 -5 -8 8 -17 7 -34 -1 -21 -12 -22 -13 -5 -26 10 -7 25 -10 34 -7 12 5
14 2 9 -11 -4 -10 -7 -24 -7 -33 0 -11 -6 -10 -27 7 -17 14 -35 19 -50 15 -19
-4 -25 2 -42 40 -16 37 -25 45 -46 45 -29 0 -85 -51 -85 -77 0 -8 9 -28 20
-44 l21 -28 -25 -7 c-13 -3 -34 -17 -47 -30 l-23 -24 21 -28 c31 -42 61 -54
90 -35 23 16 26 15 46 -9 48 -56 92 -38 92 39 0 37 4 48 18 51 24 5 23 -48 -3
-90 -22 -36 -26 -73 -10 -83 13 -8 13 -75 1 -75 -6 0 -13 5 -16 10 -3 6 -19
10 -35 10 -21 0 -36 -9 -56 -35 -30 -39 -27 -57 13 -82 28 -18 34 -53 10 -53
-7 -1 4 -8 23 -16 52 -22 78 -51 73 -78 -3 -13 0 -27 6 -30 16 -10 63 24 56
41 -3 8 -8 26 -11 39 -5 19 -3 23 10 18 26 -10 29 21 7 65 -25 48 -26 52 -6
45 8 -4 17 1 21 9 8 21 -13 57 -33 57 -22 0 -12 58 16 91 11 13 34 41 51 61
34 40 25 60 -15 34 -27 -18 -35 -20 -35 -8 0 4 15 16 33 27 17 10 43 29 57 42
30 30 132 80 182 88 26 5 57 0 103 -15 93 -31 97 -43 61 -179 -16 -58 -39
-155 -52 -215 -26 -126 -80 -256 -106 -256 -9 0 -19 -9 -23 -19 -7 -22 -65
-62 -77 -55 -4 3 -8 21 -8 40 0 47 -17 79 -34 64 -9 -7 -12 -25 -9 -54 4 -27
1 -46 -7 -51 -17 -10 -22 0 -22 42 0 56 -7 83 -22 83 -7 0 -18 -10 -24 -22
l-11 -23 0 25 c-2 36 -16 54 -36 46 -15 -5 -17 -17 -12 -84 5 -64 4 -72 -5
-49 -17 38 -32 29 -38 -24 -4 -39 -8 -44 -30 -44 -24 0 -25 2 -22 58 4 53 2
58 -15 55 -14 -2 -20 -17 -27 -65 -7 -49 -13 -63 -30 -67 -27 -7 -44 9 -48 47
-2 24 -8 32 -23 32 -16 0 -21 -8 -23 -37 -3 -39 -13 -51 -51 -63 -23 -7 -23
-6 -18 49 3 31 2 58 -2 60 -13 9 -30 -10 -35 -39 -8 -45 -26 -83 -42 -89 -17
-7 -17 -8 1 44 21 59 19 80 -6 80 -13 0 -18 -4 -13 -12 4 -6 3 -8 -3 -5 -6 4
-16 -12 -23 -36 -18 -61 -36 -77 -86 -77 -24 0 -45 4 -49 9 -3 5 4 27 14 48
11 21 21 59 23 85 2 27 5 48 7 48 3 0 15 -10 28 -22 28 -26 31 -6 3 22 -17 17
-18 24 -9 41 6 11 8 27 5 35 -3 8 -1 14 5 14 19 0 41 -73 36 -117 -3 -29 -1
-43 7 -43 17 0 36 21 36 41 0 12 6 16 19 12 27 -7 33 41 11 97 l-18 45 -63 1
c-35 0 -77 6 -93 12 -16 7 -37 10 -47 7 -16 -6 -19 -1 -19 35 0 34 4 42 25 50
14 5 25 15 26 22 1 7 2 22 3 33 0 11 6 19 12 18 7 -1 23 8 37 21 28 26 27 56
0 88 -13 15 -13 19 0 38 11 16 13 30 6 52 -12 43 -27 58 -60 58 -27 0 -29 3
-29 35 0 28 4 35 17 33 10 -2 19 4 21 15 2 10 -3 17 -12 17 -11 0 -16 9 -16
31 0 26 -3 30 -17 24 -22 -8 -21 -8 -58 -5 -17 1 -23 4 -13 7 11 3 15 10 11
20 -4 11 -3 14 6 9 8 -5 16 3 24 23 7 19 21 34 35 38 12 3 27 14 33 24 5 11
19 19 30 19 37 0 59 19 59 50 0 32 8 37 29 18 10 -11 16 -9 29 8 23 29 25 24
8 -22z m836 -17 c19 -16 32 -41 43 -87 16 -62 20 -108 11 -118 -8 -7 -106 19
-106 28 0 21 14 40 29 40 39 0 56 55 25 81 -12 10 -17 10 -23 0 -6 -8 -10 -2
-15 19 -13 67 -7 73 36 37z m-192 -6 c0 -12 -21 -28 -50 -35 -24 -7 -24 -6 5
18 31 27 45 32 45 17z m-1677 -67 c17 -23 17 -25 -4 -75 -20 -46 -21 -58 -12
-118 17 -103 53 -181 85 -181 9 0 21 6 25 13 4 8 16 16 26 20 9 3 17 13 17 21
0 8 9 30 20 49 40 67 25 174 -30 220 -27 22 -22 51 8 55 31 5 49 -12 56 -54 4
-19 23 -62 43 -96 41 -71 82 -180 83 -220 0 -15 5 -30 11 -33 7 -5 2 -16 -12
-31 -13 -14 -22 -35 -21 -54 0 -16 -4 -30 -9 -30 -5 0 -9 5 -9 10 0 6 -55 37
-122 69 -109 51 -133 59 -206 65 -46 4 -89 8 -95 9 -7 1 -11 -6 -9 -15 2 -10
-2 -18 -8 -18 -13 0 -13 5 9 102 10 46 29 130 41 188 13 58 27 110 31 116 16
20 63 14 82 -12z m1587 -9 c0 -29 43 -75 69 -75 9 0 22 -9 28 -20 12 -17 9
-20 -25 -29 -39 -11 -59 -24 -123 -80 -22 -18 -39 -30 -39 -26 0 5 17 58 37
118 26 78 33 112 25 115 -19 6 -14 22 8 22 15 0 20 -7 20 -25z m405 -81 c-3
-18 -11 -36 -17 -40 -8 -5 -9 3 -4 27 4 19 9 43 11 54 5 37 8 40 12 16 3 -13
2 -39 -2 -57z m-3935 12 c0 -2 -7 -6 -15 -10 -8 -3 -15 -1 -15 4 0 6 7 10 15
10 8 0 15 -2 15 -4z m2061 -57 c10 -43 3 -139 -9 -139 -4 0 -7 35 -7 77 0 43
-4 89 -9 103 -6 19 -5 22 4 14 6 -7 16 -31 21 -55z m-68 -59 c5 -90 4 -101 -7
-75 -14 34 -21 135 -11 166 4 11 8 19 10 17 1 -2 5 -50 8 -108z m-2050 75 c-3
-9 -8 -14 -10 -11 -3 3 -2 9 2 15 9 16 15 13 8 -4z m257 7 c0 -5 -18 -19 -41
-31 -46 -26 -49 -50 -6 -65 22 -8 30 -7 37 4 6 9 5 19 0 24 -16 16 -12 26 10
26 13 0 20 7 20 20 0 11 3 20 8 19 27 -2 90 -42 146 -92 59 -53 65 -61 59 -88
-5 -26 0 -35 41 -71 51 -46 64 -75 15 -34 -17 14 -35 24 -39 21 -5 -3 -14 3
-19 14 -7 11 -31 24 -62 31 -28 7 -60 21 -69 30 -14 14 -33 18 -84 17 -46 -2
-66 2 -66 10 0 7 -14 20 -31 28 -21 11 -28 21 -25 33 5 16 -9 51 -17 42 -2 -3
-11 -16 -20 -29 -14 -21 -17 -22 -23 -8 -10 27 1 42 48 67 65 34 118 49 118
32z m-202 -32 c-12 -16 -26 -30 -32 -30 -5 0 3 14 19 30 16 17 30 30 32 30 2
0 -6 -13 -19 -30z m1352 10 c0 -5 -7 -10 -16 -10 -8 0 -12 5 -9 10 3 6 10 10
16 10 5 0 9 -4 9 -10z m2630 -35 c0 -18 -5 -25 -20 -25 -17 0 -18 3 -8 25 6
14 15 25 20 25 4 0 8 -11 8 -25z m-4035 -15 c-3 -5 -11 -10 -16 -10 -6 0 -7 5
-4 10 3 6 11 10 16 10 6 0 7 -4 4 -10z m30 -50 c-3 -5 -16 -10 -28 -10 -18 0
-19 2 -7 10 20 13 43 13 35 0z m15 -75 c0 -17 -4 -18 -37 -9 -33 9 -28 24 7
24 20 0 30 -5 30 -15z m317 -59 c21 -8 50 -17 65 -20 16 -4 47 -19 70 -35 24
-15 56 -36 71 -45 27 -17 75 -102 64 -113 -3 -3 -34 -6 -69 -6 -60 -2 -67 0
-97 31 -18 17 -39 32 -47 32 -8 0 -14 7 -14 15 0 8 -20 37 -45 65 -25 28 -45
60 -45 70 0 24 0 24 47 6z m1203 4 c-34 -11 -60 -11 -35 0 11 5 29 8 40 8 16
0 15 -2 -5 -8z m-1520 -12 c0 -4 -16 -8 -35 -8 -19 0 -35 4 -35 9 0 5 16 9 35
8 19 -1 35 -5 35 -9z m1630 -43 c0 -46 -62 -62 -68 -18 -4 31 34 69 54 52 8
-6 14 -22 14 -34z m1117 31 c-5 -12 -47 -10 -59 2 -5 5 8 8 27 8 20 0 34 -4
32 -10z m-829 -20 c65 -5 156 -34 212 -67 8 -5 32 -18 54 -30 21 -11 41 -29
43 -40 3 -11 12 -18 21 -17 19 4 56 -56 48 -77 -7 -20 -21 -19 -42 2 -12 13
-31 17 -67 15 -69 -3 -111 13 -145 54 -24 29 -38 36 -98 47 -49 9 -69 17 -69
27 0 20 64 21 125 3 25 -8 58 -16 73 -19 45 -8 28 15 -28 38 -28 11 -57 24
-67 28 -9 5 -36 11 -61 14 -47 6 -97 22 -97 30 0 3 6 4 13 1 6 -2 45 -6 85 -9z
m442 10 c0 -3 -4 -8 -10 -11 -5 -3 -10 -1 -10 4 0 6 5 11 10 11 6 0 10 -2 10
-4z m-852 -71 c-5 -5 -15 -3 -25 8 -16 15 -15 18 3 38 l19 21 6 -28 c3 -16 2
-33 -3 -39z m1142 44 c0 -6 -4 -7 -10 -4 -5 3 -10 11 -10 16 0 6 5 7 10 4 6
-3 10 -11 10 -16z m-2641 -15 c10 -9 -6 -11 -41 -6 -21 2 -38 8 -38 12 0 8 69
2 79 -6z m254 -22 c21 -21 41 -52 46 -68 5 -18 16 -30 31 -34 48 -11 54 -70 7
-70 -19 0 -26 7 -30 28 -3 15 -14 36 -25 48 -22 24 -65 91 -75 117 -10 27 6
20 46 -21z m1460 31 c11 -10 -23 -42 -39 -36 -20 7 -17 31 4 36 27 7 28 7 35
0z m785 -41 c4 -26 -45 -43 -59 -21 -13 21 -11 57 4 62 18 7 52 -18 55 -41z
m-1069 -21 c-17 -5 -48 29 -42 47 5 12 11 9 30 -14 12 -16 18 -31 12 -33z
m371 44 c0 -17 -39 -55 -57 -55 -7 0 -13 5 -13 10 0 6 4 10 8 10 5 0 14 11 20
25 12 27 42 34 42 10z m-1616 -74 c-7 -7 -64 52 -64 66 0 7 15 -4 34 -25 19
-20 32 -39 30 -41z m2151 71 c6 -4 10 -25 10 -47 0 -36 -3 -40 -25 -40 -16 0
-29 9 -39 27 -14 24 -14 28 3 47 20 22 34 26 51 13z m224 -14 c10 -25 -3 -48
-26 -48 -10 0 -11 4 -3 19 5 11 7 27 4 35 -3 9 -1 16 5 16 7 0 15 -10 20 -22z
m138 7 c16 -11 22 -28 25 -69 3 -49 1 -53 -15 -45 -19 11 -37 4 -37 -14 0 -6
14 -26 32 -44 48 -49 30 -47 -26 3 l-48 44 31 29 c35 32 39 56 15 89 -18 25
-8 29 23 7z m-287 -62 c0 -3 -7 0 -15 7 -8 7 -15 24 -15 39 1 25 1 25 15 -8 8
-18 15 -36 15 -38z m-2411 12 c-2 -2 -17 0 -34 3 l-30 6 30 6 c26 5 45 -4 34
-15z m1663 -4 c4 -4 -16 -7 -45 -7 -54 0 -111 -26 -104 -48 4 -13 131 -15 166
-2 18 6 22 5 19 -5 -3 -8 -22 -18 -44 -22 -91 -19 -107 -32 -85 -66 8 -12 14
-12 37 4 29 19 74 29 74 16 0 -4 -16 -13 -35 -20 -25 -9 -35 -18 -35 -33 0
-21 9 -21 54 -2 31 12 10 -14 -34 -41 -86 -54 -179 -95 -255 -110 -44 -9 -94
-23 -112 -30 -30 -13 -32 -12 -38 12 -10 40 5 116 29 141 11 13 36 33 56 44
19 12 42 29 51 37 8 9 31 30 50 46 19 17 43 42 52 55 10 15 34 29 58 35 42 10
129 8 141 -4z m1113 -21 c3 -5 1 -10 -4 -10 -6 0 -11 5 -11 10 0 6 2 10 4 10
3 0 8 -4 11 -10z m-262 -20 c7 -6 32 -24 57 -40 107 -70 122 -83 155 -135 60
-93 45 -151 -41 -161 -45 -6 -59 -2 -134 35 -52 25 -98 41 -121 41 -24 0 -39
5 -43 15 -4 12 4 15 44 15 46 0 68 15 38 25 -14 4 -84 14 -106 15 -7 0 -10 5
-7 10 3 6 33 10 66 10 32 0 59 4 59 8 0 21 -29 32 -88 32 -55 0 -63 2 -60 18
3 14 16 18 71 20 64 3 68 4 65 25 -3 20 -8 22 -55 19 -31 -2 -54 1 -58 8 -12
19 7 28 70 35 33 3 61 8 64 11 6 6 11 5 24 -6z m-2513 -10 c0 -5 -7 -7 -15 -4
-8 4 -15 8 -15 10 0 2 7 4 15 4 8 0 15 -4 15 -10z m1369 -16 c-39 -42 -109
-86 -126 -80 -12 5 -13 9 -3 21 7 8 16 15 20 15 4 0 31 16 60 35 62 41 83 45
49 9z m-1208 5 c11 -6 18 -16 16 -23 -3 -7 6 -34 19 -61 13 -27 21 -52 17 -55
-3 -3 -8 0 -10 6 -2 7 -19 37 -38 69 -45 75 -46 87 -4 64z m3179 7 c0 -3 -4
-8 -10 -11 -5 -3 -10 -1 -10 4 0 6 5 11 10 11 6 0 10 -2 10 -4z m-3340 -45 c0
-4 -18 -8 -40 -8 -22 0 -40 4 -40 8 0 5 18 9 40 9 22 0 40 -4 40 -9z m1194
-17 c-3 -12 -23 -28 -45 -38 -51 -23 -76 -15 -27 8 20 10 44 26 54 37 20 23
25 21 18 -7z m636 12 c30 -8 69 -21 85 -29 17 -9 62 -20 100 -26 129 -20 190
-36 227 -59 20 -13 45 -22 55 -20 16 3 18 -6 20 -67 2 -82 -38 -249 -91 -377
-68 -167 -69 -186 -8 -212 52 -23 122 -63 144 -82 24 -22 50 -11 40 17 -5 13
-40 37 -93 64 -99 51 -99 49 -44 182 21 48 41 104 45 123 5 19 18 69 29 110
44 154 43 152 65 146 12 -3 26 -6 31 -6 6 0 11 -10 12 -22 5 -75 2 -220 -6
-300 -6 -51 -13 -143 -16 -204 -6 -131 -3 -136 74 -98 28 13 54 24 59 24 13 0
176 55 190 64 11 6 11 11 -1 24 -48 54 -107 235 -131 399 l-6 42 35 -1 c29 -1
35 -5 35 -22 0 -12 14 -38 31 -58 28 -35 33 -37 73 -32 27 4 46 2 50 -5 5 -7
-5 -11 -28 -11 -31 0 -36 -3 -36 -24 0 -13 8 -51 19 -84 11 -36 15 -65 10 -74
-13 -19 -11 -25 12 -47 15 -13 19 -26 14 -41 -4 -11 -1 -27 5 -35 8 -10 9 -19
0 -35 -11 -20 -24 -89 -36 -180 -6 -49 -8 -60 -53 -233 -41 -160 -89 -313
-113 -361 -11 -22 -20 -55 -20 -75 0 -30 7 -43 42 -73 24 -21 39 -38 35 -38
-4 0 -2 -7 5 -15 6 -7 32 -17 56 -21 42 -6 44 -8 44 -40 0 -46 25 -59 91 -45
65 14 89 3 89 -43 0 -19 9 -64 21 -101 17 -57 20 -88 18 -204 -3 -123 -1 -141
20 -194 13 -31 27 -57 31 -57 4 0 6 -16 5 -35 -1 -19 1 -56 5 -82 16 -97 20
-163 10 -163 -5 0 -10 11 -10 25 0 18 -9 31 -28 42 -25 14 -28 22 -29 72 -2
53 -4 58 -48 99 -29 28 -51 42 -61 38 -9 -3 -24 -6 -34 -6 -10 0 -20 -9 -23
-19 -3 -13 -19 -24 -46 -31 -27 -7 -41 -16 -41 -27 0 -13 -3 -14 -12 -5 -20
20 -85 15 -101 -8 -14 -20 -15 -20 -41 14 -14 19 -26 40 -26 46 0 15 -44 30
-69 23 -12 -3 -21 -12 -21 -20 0 -9 -7 -12 -17 -9 -10 3 -36 8 -58 12 -22 3
-47 10 -55 14 -10 6 -30 -3 -61 -26 -26 -19 -49 -34 -53 -34 -3 0 -6 19 -6 42
0 42 -21 78 -45 78 -7 0 -18 6 -24 14 -7 8 -27 18 -44 21 -18 4 -42 16 -54 28
-20 18 -27 19 -62 9 -57 -18 -75 -51 -67 -123 4 -36 3 -60 -4 -64 -17 -11 -11
-47 12 -72 19 -20 20 -25 8 -33 -14 -9 -34 6 -43 33 -2 6 -19 12 -38 13 -25 2
-41 -4 -61 -23 -15 -15 -30 -24 -34 -21 -3 4 -19 2 -35 -4 -22 -8 -29 -16 -29
-37 0 -15 5 -32 11 -38 13 -13 0 -17 -70 -28 -50 -8 -129 -45 -153 -72 -17
-19 -42 -20 -225 -15 l-72 2 -11 37 c-11 37 -15 118 -25 443 -2 91 -9 230 -15
310 -5 80 -12 190 -15 245 -3 55 -10 127 -15 159 -5 33 -8 62 -5 64 2 2 -1 15
-6 29 -5 14 -12 100 -14 191 -3 92 -8 194 -10 227 -3 33 -8 139 -11 235 -3 96
-9 191 -13 210 -4 19 -8 83 -9 143 l-2 107 24 0 c33 0 76 17 76 30 0 5 -6 10
-14 10 -21 0 -48 79 -47 136 1 58 -5 63 -61 56 -45 -5 -78 -34 -78 -70 -1 -24
-2 -25 -11 -9 -6 10 -8 33 -5 50 7 32 47 87 64 87 6 0 12 7 16 15 10 27 35 17
33 -12 -3 -40 27 -42 43 -3 9 22 19 30 38 30 14 0 34 7 44 17 10 9 18 11 18 5
0 -6 -4 -13 -9 -16 -5 -3 -14 -44 -21 -91 -8 -56 -16 -85 -25 -85 -28 0 -37
-27 -20 -60 20 -38 39 -47 71 -30 13 8 27 11 30 7 3 -3 24 4 45 15 29 15 38
25 34 38 -4 14 2 19 32 24 21 3 50 6 65 6 l26 0 -13 -42 c-12 -39 -28 -80 -57
-148 -40 -96 -100 -196 -130 -218 -38 -28 -22 -54 65 -110 46 -28 86 -52 90
-52 4 0 7 8 7 19 0 12 -23 33 -66 60 l-67 42 26 27 c22 24 49 70 107 182 22
43 90 225 90 242 0 21 13 35 39 43 23 7 23 7 16 -56 -13 -122 -44 -284 -70
-369 -57 -181 -61 -200 -45 -211 23 -16 155 -4 270 25 58 14 122 27 142 30 56
7 61 13 39 49 -11 18 -29 59 -41 92 -12 33 -27 74 -34 90 -23 52 -55 197 -67
295 -4 41 -11 97 -15 123 -5 38 -3 50 10 60 9 7 18 24 20 37 5 40 18 80 25 80
3 -1 31 -7 61 -14z m-1252 -27 c30 -23 36 -24 57 -3 14 15 18 15 40 0 13 -9
35 -16 48 -16 14 0 31 -7 38 -17 13 -15 10 -16 -31 -9 -25 4 -70 11 -100 15
-48 6 -130 43 -130 58 0 10 54 -9 78 -28z m-135 14 c-7 -2 -19 -2 -25 0 -7 3
-2 5 12 5 14 0 19 -2 13 -5z m-287 -107 c13 -30 31 -59 39 -66 8 -7 12 -16 9
-21 -3 -5 2 -29 11 -54 15 -38 29 -52 112 -106 93 -61 95 -61 146 -55 29 4 57
7 62 6 6 0 44 -4 85 -8 l75 -7 0 -54 0 -55 -68 3 c-38 1 -94 9 -125 18 -31 8
-68 17 -82 18 -14 1 -47 8 -75 15 -27 7 -62 12 -77 12 -18 -1 -28 6 -31 19 -5
17 -3 18 10 7 12 -10 17 -9 28 5 12 17 9 63 -5 72 -13 8 -42 -26 -36 -41 3 -8
2 -14 -2 -14 -5 0 -16 29 -27 65 -10 37 -22 68 -26 71 -10 6 -66 179 -74 229
-6 39 -6 39 10 18 9 -13 27 -47 41 -77z m-152 58 c5 -14 1 -16 -31 -10 -21 3
-46 6 -56 6 -10 0 -15 5 -12 10 11 17 92 12 99 -6z m507 -5 c30 -16 22 -37
-21 -59 -73 -37 -156 -21 -199 39 l-21 29 111 1 c61 0 120 -4 130 -10z m163
-35 c45 -7 46 -8 30 -25 -10 -11 -29 -19 -43 -19 -35 0 -101 19 -101 29 0 22
30 26 114 15z m-754 -14 c0 -5 -4 -10 -10 -10 -5 0 -10 5 -10 10 0 6 5 10 10
10 6 0 10 -4 10 -10z m85 -11 c11 -16 3 -17 -40 -3 l-40 12 37 1 c20 1 40 -4
43 -10z m316 -75 c9 -48 38 -82 92 -109 58 -28 89 -32 110 -10 11 11 22 12 48
5 19 -6 46 -10 61 -10 16 0 28 -4 28 -10 0 -5 -25 -10 -56 -10 -40 0 -67 -6
-91 -21 -36 -22 -63 -20 -63 6 0 11 -7 15 -23 13 -23 -3 -109 42 -138 71 -23
24 -30 50 -23 87 5 28 9 32 27 25 13 -5 24 -20 28 -37z m2509 27 c0 -41 -33
-163 -50 -184 -15 -17 -21 -19 -31 -10 -10 10 -9 17 8 35 27 29 63 131 56 158
-3 11 0 20 6 20 6 0 11 -8 11 -19z m-2827 -4 c4 -1 9 -39 11 -85 2 -74 1 -81
-13 -68 -11 10 -29 13 -59 9 -58 -8 -54 11 5 23 43 8 48 12 50 39 3 41 -13 55
-63 55 -30 0 -44 4 -44 13 0 8 2 16 5 19 5 5 81 1 108 -5z m452 -8 c-7 -11 19
-74 35 -84 6 -3 10 -10 10 -15 0 -19 -88 24 -104 51 -23 39 -20 47 17 52 17 2
36 5 40 5 5 1 5 -3 2 -9z m1201 1 c8 0 14 -7 14 -15 0 -11 -11 -15 -36 -15
-48 0 -40 -24 9 -28 23 -2 37 -8 37 -17 0 -14 -10 -18 -69 -30 l-34 -7 7 37
c12 63 25 88 42 81 9 -3 22 -6 30 -6z m1824 -44 c0 -14 -4 -28 -10 -31 -6 -4
-10 7 -10 24 0 17 5 31 10 31 6 0 10 -11 10 -24z m-950 -52 c6 -14 14 -22 20
-19 5 3 10 0 10 -8 0 -8 -9 -17 -20 -20 -29 -7 -24 -25 8 -29 21 -2 28 -9 30
-30 3 -22 -1 -27 -24 -30 -44 -5 -42 -28 2 -28 41 0 37 -16 -5 -22 -43 -6 -37
-28 8 -28 30 0 41 -4 41 -15 0 -10 -10 -15 -34 -15 -37 0 -57 -17 -36 -30 7
-5 28 -6 45 -3 18 3 35 1 39 -5 6 -10 -16 -21 -52 -26 -9 -2 -18 -9 -20 -16
-4 -10 6 -12 42 -8 32 4 46 2 43 -6 -2 -6 -23 -13 -47 -16 -25 -3 -45 -11 -48
-19 -4 -12 6 -13 57 -8 53 6 61 4 61 -10 0 -9 -2 -14 -6 -11 -3 3 -26 0 -51
-6 -51 -13 -69 -35 -31 -37 19 -1 18 -3 -9 -11 -18 -6 -33 -17 -33 -24 0 -18
0 -18 88 7 71 20 111 20 61 0 -55 -21 -192 -61 -196 -57 -3 3 2 92 11 199 9
107 16 231 16 276 0 83 12 104 30 55z m-845 -50 c0 -15 -9 -20 -48 -24 -66 -7
-59 -25 9 -24 51 1 55 0 52 -20 -3 -18 -12 -22 -57 -26 -34 -3 -56 -10 -59
-19 -4 -12 7 -13 62 -8 61 6 66 5 66 -13 0 -19 -14 -24 -89 -32 -14 -2 -26 -9
-29 -17 -4 -11 8 -13 67 -7 41 4 71 3 71 -2 0 -11 -63 -31 -109 -34 -19 -2
-36 -9 -39 -15 -4 -15 49 -17 116 -4 30 6 42 5 39 -3 -2 -6 -34 -14 -70 -17
-37 -3 -70 -8 -73 -12 -17 -16 12 -22 83 -16 43 4 82 3 87 -1 14 -14 -28 -29
-85 -31 -60 -2 -93 -14 -83 -31 6 -9 67 -8 168 5 34 4 29 -22 -6 -27 -40 -7
-121 -15 -165 -15 -22 -1 -33 -6 -33 -16 0 -11 12 -15 43 -16 43 -1 42 -3 -6
-14 -19 -4 -27 -11 -23 -20 5 -15 -4 -19 -68 -30 -38 -6 -38 -6 -33 22 3 15
19 73 36 128 29 92 49 187 66 307 6 47 6 47 48 51 57 5 62 3 62 -19z m1679
-59 c3 -12 16 -25 28 -29 l23 -6 -25 -20 -25 -19 -3 24 c-6 45 -103 43 -110
-2 -2 -15 -13 -22 -41 -27 -34 -5 -57 -21 -74 -52 -4 -7 3 -23 14 -38 l20 -26
-27 -10 c-15 -6 -31 -13 -36 -16 -5 -4 -4 3 3 14 21 33 6 50 -38 43 -45 -8
-49 -24 -9 -50 l29 -19 -53 -16 c-62 -19 -80 -10 -62 29 10 21 8 28 -12 47
-33 32 -40 69 -15 75 10 3 19 11 19 18 0 17 -35 47 -45 38 -4 -5 -5 -2 -1 5 5
8 15 11 25 7 9 -4 23 -8 31 -9 8 -2 16 -13 18 -25 2 -12 13 -28 26 -36 26 -18
78 -5 122 30 23 18 26 25 16 37 -9 11 -8 19 4 36 20 29 36 28 28 -2 -4 -16 -1
-25 12 -30 18 -7 44 9 44 28 0 16 49 33 82 28 17 -3 28 -12 32 -27z m-3434 21
c0 -2 -7 -6 -15 -10 -8 -3 -15 -1 -15 4 0 6 7 10 15 10 8 0 15 -2 15 -4z
m3630 -2 c0 -4 -40 -46 -88 -94 -103 -102 -242 -197 -327 -222 -33 -10 -74
-23 -91 -28 -17 -6 -63 -10 -102 -10 -63 0 -72 2 -72 18 0 15 10 18 74 19 61
1 86 7 139 32 36 17 72 31 80 31 9 0 18 4 22 9 3 5 54 39 113 76 133 83 213
139 224 159 9 16 28 22 28 10z m-2569 -38 c13 -6 16 -28 17 -137 1 -71 3 -133
6 -137 3 -4 8 -75 11 -157 4 -83 9 -175 11 -205 2 -30 6 -143 8 -250 3 -173
13 -280 32 -360 3 -14 8 -86 10 -160 3 -74 10 -171 15 -215 6 -44 12 -248 15
-452 2 -205 8 -398 13 -430 6 -32 17 -94 25 -138 8 -44 18 -123 21 -175 4 -52
10 -126 14 -163 7 -62 5 -70 -13 -83 -27 -19 -36 -18 -36 5 0 17 -7 20 -42 21
-90 1 -88 0 -82 25 4 17 0 26 -15 35 -12 6 -25 8 -30 5 -16 -9 -41 7 -41 26 0
12 7 19 20 19 23 0 23 -5 20 135 -10 667 -37 1165 -60 1138 -22 -26 -32 -97
-26 -175 4 -46 9 -183 12 -305 2 -123 6 -242 9 -265 3 -34 7 -389 5 -484 0
-19 -5 -21 -41 -18 -22 1 -46 7 -53 13 -10 8 -12 139 -10 623 2 337 7 656 12
708 11 122 5 835 -8 920 -20 132 -32 249 -41 395 -4 83 -10 167 -12 188 -2 22
1 37 7 38 6 1 32 3 58 5 26 2 57 8 70 13 24 9 72 8 99 -3z m-981 -11 c17 -20
14 -21 -50 -14 -48 5 -50 7 -11 13 5 0 13 4 17 9 12 11 31 8 44 -8z m2900 -24
c0 -5 -11 -11 -25 -13 -24 -5 -32 2 -18 15 9 10 43 8 43 -2z m-73 -36 c-7 -13
-14 -20 -15 -14 -2 5 2 16 8 24 18 21 20 18 7 -10z m783 -26 c0 -5 -5 -9 -10
-9 -10 0 -30 41 -30 58 1 10 40 -39 40 -49z m-3610 31 c0 -5 -5 -10 -11 -10
-5 0 -7 5 -4 10 3 6 8 10 11 10 2 0 4 -4 4 -10z m3516 -16 c-8 -22 11 -54 33
-54 11 0 21 -6 24 -14 4 -11 -1 -14 -20 -12 -17 2 -30 11 -35 25 -6 16 -13 21
-27 16 -30 -9 -37 15 -10 36 30 23 43 24 35 3z m-3616 -3 c0 -6 -4 -13 -10
-16 -5 -3 -10 1 -10 9 0 9 5 16 10 16 6 0 10 -4 10 -9z m3372 -23 c-7 -7 -12
-8 -12 -2 0 6 3 14 7 17 3 4 9 5 12 2 2 -3 -1 -11 -7 -17z m-3266 -29 c0 -17
-5 -20 -29 -15 -16 3 -37 6 -45 6 -23 0 -2 17 28 23 14 2 30 5 35 6 6 0 11 -8
11 -20z m304 -28 c0 -27 19 -36 33 -18 11 14 19 14 81 -1 l68 -16 -7 -296 c-8
-338 -9 -509 -4 -664 2 -95 5 -109 21 -114 16 -4 17 -12 10 -86 -10 -112 -7
-470 7 -689 18 -305 20 -388 10 -466 -5 -41 -10 -149 -11 -240 -1 -134 2 -166
13 -166 19 0 28 54 29 185 0 63 3 129 6 145 6 36 6 345 0 435 -3 36 -7 90 -10
120 -13 147 -17 494 -7 605 6 66 13 215 16 330 2 116 6 224 8 240 11 69 11
219 0 222 -22 8 -32 -35 -37 -172 -4 -77 -10 -153 -15 -170 -6 -20 -8 27 -5
135 3 91 7 171 10 178 2 8 4 114 4 237 l1 224 84 3 85 3 1 -92 c1 -51 2 -96 3
-100 5 -19 18 -199 21 -289 2 -54 6 -110 9 -124 6 -26 7 -884 1 -935 -2 -16
-4 -39 -5 -50 -2 -14 -4 -10 -9 10 -3 17 -13 30 -21 30 -11 0 -14 -9 -12 -30
1 -16 5 -113 8 -215 2 -102 6 -243 8 -315 2 -71 6 -226 10 -344 3 -117 9 -223
12 -235 10 -29 14 -65 23 -191 5 -60 13 -123 20 -138 13 -34 37 -31 33 4 -1
13 -5 77 -8 142 l-7 118 34 -3 c29 -2 34 -7 34 -28 0 -14 4 -32 10 -40 5 -8
12 -62 15 -120 4 -84 8 -105 20 -105 12 0 15 18 14 107 -1 101 0 108 19 108
16 0 17 -3 7 -15 -7 -9 -10 -25 -6 -41 4 -15 7 -65 7 -112 0 -48 4 -91 10 -98
6 -7 5 -15 -3 -22 -16 -12 -84 -19 -94 -9 -4 4 -16 0 -26 -10 -17 -15 -20 -15
-41 5 -13 12 -31 22 -39 22 -19 0 -28 33 -33 112 -1 29 -8 96 -14 148 -16 141
-28 305 -56 770 -3 52 -11 140 -18 195 -13 111 -14 342 -2 658 7 187 6 207 -9
207 -22 0 -24 -17 -32 -240 -11 -279 -9 -512 4 -610 12 -82 25 -277 37 -525 3
-66 8 -133 10 -150 2 -16 7 -73 10 -125 3 -52 10 -133 15 -180 5 -47 12 -110
15 -140 11 -120 16 -140 36 -140 11 0 19 -3 19 -7 0 -5 16 -19 35 -32 20 -13
33 -26 31 -29 -3 -2 -42 -8 -87 -13 -62 -6 -90 -14 -118 -33 -46 -32 -58 -33
-57 -3 1 25 -7 25 -91 6 -65 -14 -80 -5 -81 50 l-1 39 26 -24 c51 -47 203 -23
203 32 0 19 -13 18 -57 -6 -53 -28 -97 -26 -121 5 -16 20 -19 32 -12 55 9 32
-4 78 -34 124 -20 32 -27 92 -15 146 6 31 21 313 23 445 1 28 -2 113 -6 191
-5 96 -4 144 3 151 8 8 8 22 -1 49 -7 20 -12 66 -11 102 1 39 -3 68 -10 73 -8
4 -8 12 -1 25 13 25 25 193 17 227 -4 15 -13 27 -21 27 -11 0 -14 -23 -16
-107 0 -60 -2 -130 -3 -156 -2 -38 0 -47 11 -43 8 3 14 -1 14 -9 0 -8 -5 -15
-11 -15 -5 0 -8 -4 -4 -9 3 -5 1 -12 -4 -15 -12 -8 -12 -53 1 -100 6 -24 6
-42 0 -48 -9 -9 -7 -212 3 -287 2 -18 0 -81 -5 -140 -9 -104 -23 -412 -21
-461 1 -13 10 -42 20 -62 18 -38 18 -39 -1 -52 -23 -16 -33 -97 -17 -137 8
-21 6 -35 -8 -65 -21 -44 -61 -70 -126 -83 -42 -8 -46 -7 -49 13 -3 19 -9 21
-58 18 -30 -1 -74 -5 -97 -8 -38 -5 -43 -3 -43 15 0 11 -4 23 -10 26 -23 14
-10 46 24 60 19 8 38 20 41 25 5 8 14 5 27 -7 18 -16 21 -16 32 -1 7 9 11 42
10 77 -2 54 1 64 28 98 64 81 75 111 88 239 6 66 11 129 10 140 -1 10 -2 79
-1 152 1 95 4 131 12 126 6 -3 15 0 20 7 6 9 9 -26 8 -91 -1 -58 -1 -197 0
-310 2 -252 -6 -288 -80 -360 -37 -36 -49 -55 -49 -78 0 -38 21 -56 60 -50 24
4 30 1 30 -14 0 -22 9 -23 38 -2 24 17 29 43 10 62 -8 8 -20 7 -46 -3 -43 -18
-42 -18 -42 1 0 9 18 36 39 60 27 31 46 67 61 116 19 64 21 91 19 267 -1 108
-2 241 -2 296 0 55 0 282 0 505 -1 723 0 824 12 865 11 42 1 69 -20 48 -25
-25 -29 -105 -25 -505 2 -230 0 -416 -4 -413 -3 2 -13 44 -20 92 -10 66 -14
231 -14 661 0 458 -3 572 -13 572 -9 0 -13 17 -14 53 -1 28 -1 56 0 60 1 4 4
43 8 85 3 42 8 71 11 64 2 -6 10 -12 17 -12 14 0 20 33 35 205 11 128 41 225
71 225 5 0 9 -9 9 -19z m-99 -54 c-26 -58 -34 -82 -45 -143 -2 -11 -11 -37
-20 -58 -9 -21 -16 -50 -16 -65 0 -19 -3 -22 -9 -12 -9 14 -9 20 5 56 9 26 13
43 19 84 9 57 33 130 56 167 34 56 40 39 10 -29z m2637 7 c-3 -14 -5 -12 -10
9 -3 19 -2 25 4 19 6 -6 8 -18 6 -28z m-2843 6 c7 -12 -68 -12 -105 0 -19 6
-9 8 37 9 34 1 65 -3 68 -9z m3723 -111 c33 -80 44 -149 26 -156 -16 -5 -44
89 -32 104 7 9 3 15 -14 22 -30 11 -55 86 -36 109 15 17 19 11 56 -79z m-3728
51 c-8 -5 -18 -6 -24 -3 -5 4 -1 10 10 13 24 9 34 2 14 -10z m-42 -4 c3 -3
-14 -6 -37 -6 -27 0 -40 4 -36 10 7 11 61 7 73 -4z m3512 -82 c12 -41 20 -76
19 -77 -2 -1 -13 -7 -25 -14 -20 -11 -22 -8 -36 43 -15 52 -15 54 4 54 11 0
18 5 16 13 -3 6 -13 12 -24 12 -27 0 -37 18 -17 33 30 22 40 13 63 -64z m-233
29 c17 -58 54 -313 47 -324 -3 -5 -13 -9 -23 -9 -10 0 -24 -7 -31 -15 -21 -25
-27 -17 -39 54 -17 104 -15 141 7 141 28 0 42 20 42 60 0 42 -14 60 -47 60
-29 0 -30 23 -3 50 28 28 35 25 47 -17z m403 20 c0 -10 7 -31 16 -48 33 -61
82 -212 73 -226 -15 -24 -10 -47 15 -71 22 -21 46 -82 46 -117 0 -11 -3 -11
-15 -1 -12 10 -21 10 -45 0 -17 -7 -33 -10 -36 -7 -3 3 -12 45 -21 94 -8 48
-21 95 -29 104 -18 20 -9 70 11 63 17 -7 30 15 17 28 -8 8 -15 8 -25 -1 -16
-13 -27 3 -27 40 0 11 -9 45 -20 76 -11 32 -20 59 -20 60 0 2 9 3 20 3 11 0
20 5 20 10 0 6 5 10 10 10 6 0 10 -8 10 -17z m-95 -36 c7 -18 17 -45 20 -60 6
-23 4 -27 -14 -27 -13 0 -21 7 -21 18 -1 9 -7 34 -14 54 -7 21 -11 40 -8 43
12 12 24 3 37 -28z m-3540 13 c-3 -5 -34 -9 -68 -8 -62 1 -62 1 -17 8 70 11
92 11 85 0z m3330 -12 c25 -2 32 -10 45 -46 15 -43 15 -44 -12 -63 -24 -18
-26 -25 -26 -91 0 -40 4 -80 9 -90 10 -19 69 -41 90 -33 10 4 21 -21 42 -97
32 -120 32 -119 11 -111 -8 3 -27 0 -40 -8 -21 -11 -25 -18 -20 -45 8 -40 -17
-66 -33 -35 -6 11 -11 27 -11 35 0 9 -3 16 -7 16 -5 0 -9 16 -10 35 -2 19 0
34 5 34 22 -4 32 3 32 24 0 22 -28 61 -49 68 -5 2 -17 47 -25 99 -9 52 -22
127 -30 165 -23 119 -28 169 -13 157 6 -6 26 -12 42 -14z m-215 3 c0 -13 -22
-29 -52 -36 -23 -6 -26 -4 -21 14 3 11 12 22 22 24 29 8 51 7 51 -2z m-119
-38 c7 -16 15 -32 17 -37 3 -5 -9 2 -26 14 -41 31 -77 22 -86 -21 -3 -17 -6
-51 -6 -75 0 -33 -4 -44 -15 -44 -11 0 -14 7 -11 23 13 61 15 106 6 109 -5 2
-7 13 -4 25 6 21 20 26 90 31 14 1 26 -7 35 -25z m-3001 -18 c0 -6 -26 -9 -62
-8 -76 2 -70 1 -65 11 8 11 127 9 127 -3z m1623 -2 c-7 -2 -19 -2 -25 0 -7 3
-2 5 12 5 14 0 19 -2 13 -5z m-1436 -65 c-3 -7 -5 -2 -5 12 0 14 2 19 5 13 2
-7 2 -19 0 -25z m3303 -18 c11 17 15 13 24 -22 5 -21 3 -28 -9 -28 -22 0 -18
-21 5 -27 23 -6 27 -43 5 -43 -17 0 -20 -23 -5 -50 6 -10 6 -21 1 -24 -8 -5
-41 97 -57 174 -6 32 -5 33 10 20 15 -12 19 -12 26 0z m-426 -30 l30 -19 -26
-10 c-33 -12 -39 -29 -22 -62 14 -28 64 -52 89 -43 8 4 17 0 19 -7 4 -15 25
-191 33 -274 2 -27 8 -66 14 -85 13 -52 12 -69 -5 -47 -7 9 -18 17 -24 17 -6
0 -20 14 -32 31 -19 26 -28 30 -59 27 l-36 -3 -6 125 c-3 69 -10 180 -14 248
-5 71 -4 122 1 122 5 0 22 -9 38 -20z m-2943 -83 c-8 -8 -11 -2 -11 19 0 40
14 54 18 19 2 -15 -1 -32 -7 -38z m2867 -73 c-2 -1 -12 -4 -23 -6 -18 -3 -20
2 -18 46 3 71 26 80 36 14 4 -28 6 -52 5 -54z m-2988 41 c0 -11 -12 -15 -47
-15 -27 0 -58 -3 -70 -6 -17 -5 -23 -2 -23 9 0 11 12 17 43 20 90 8 97 7 97
-8z m107 -57 c-3 -8 -6 -5 -6 6 -1 11 2 17 5 13 3 -3 4 -12 1 -19z m2793 -23
c0 -43 -1 -44 -20 -33 -25 16 -27 65 -2 71 9 3 18 5 20 6 1 0 2 -19 2 -44z
m-2900 5 c0 -5 -15 -10 -32 -10 -18 0 -51 -3 -73 -7 -23 -3 -36 -2 -32 3 7 7
38 13 125 23 6 0 12 -3 12 -9z m115 -116 c3 -70 1 -100 -4 -84 -10 27 -15 207
-5 198 3 -3 7 -55 9 -114z m3535 45 c7 -27 10 -53 7 -55 -9 -9 -37 53 -37 81
0 42 17 28 30 -26z m-867 -26 c-3 -27 -12 -55 -20 -63 -13 -13 -14 -10 -7 25
7 43 21 85 28 85 2 0 1 -21 -1 -47z m-2785 22 c11 -10 -5 -13 -55 -8 -29 3
-50 10 -47 15 6 9 92 3 102 -7z m2900 -160 c-2 -1 -15 -5 -30 -9 -27 -6 -27
-5 -26 40 0 32 4 42 11 35 17 -17 39 -13 35 7 -2 10 -11 16 -21 14 -28 -5 -23
60 6 73 22 10 22 9 25 -74 2 -46 2 -85 0 -86z m976 128 c19 -55 20 -76 4 -71
-8 3 -45 91 -48 116 0 1 6 2 14 2 8 0 21 -21 30 -47z m-259 -52 c-3 -5 -1 -20
4 -33 6 -13 20 -57 32 -98 12 -41 33 -97 47 -124 19 -38 21 -50 11 -57 -7 -4
-19 -3 -26 2 -6 6 -22 9 -35 7 -21 -3 -25 4 -44 85 -36 147 -36 146 -14 140
14 -4 20 0 20 11 0 12 -7 16 -22 14 -18 -2 -23 3 -29 30 -6 31 -6 32 28 32 19
0 32 -4 28 -9z m-3615 -21 c0 -5 -7 -10 -16 -10 -8 0 -12 5 -9 10 3 6 10 10
16 10 5 0 9 -4 9 -10z m-97 -17 c-7 -2 -21 -2 -30 0 -10 3 -4 5 12 5 17 0 24
-2 18 -5z m3093 -7 c1 -1 4 -70 6 -153 l4 -153 -28 0 c-25 0 -28 3 -28 35 0
28 4 35 20 35 11 0 20 7 20 16 0 11 -6 14 -20 9 -18 -6 -20 -2 -20 51 0 32 3
54 7 51 7 -8 33 11 33 24 0 5 -9 9 -19 9 -22 0 -31 19 -31 61 0 27 2 29 28 23
15 -4 28 -7 28 -8z m270 -30 c19 -10 33 -12 45 -5 32 17 37 10 58 -81 12 -49
24 -97 27 -105 5 -11 -1 -15 -23 -15 -38 0 -68 -22 -60 -43 6 -16 -28 -45 -40
-34 -2 3 -9 50 -13 104 -5 54 -13 119 -18 146 -5 26 -8 47 -7 47 2 0 15 -6 31
-14z m654 -19 c1 -12 7 -33 15 -47 17 -30 19 -50 5 -50 -5 0 -10 5 -10 12 0 6
-9 31 -21 55 -11 23 -18 47 -14 53 10 16 25 2 25 -23z m-3801 -14 c0 -34 -1
-36 -11 -16 -6 12 -8 29 -5 37 11 27 17 18 16 -21z m3619 23 c-7 -8 -15 -12
-17 -11 -5 6 10 25 20 25 5 0 4 -6 -3 -14z m-3823 -6 c-3 -5 -15 -10 -26 -10
-10 0 -19 5 -19 10 0 6 12 10 26 10 14 0 23 -4 19 -10z m85 1 c0 -4 -11 -6
-25 -3 -14 2 -25 6 -25 8 0 2 11 4 25 4 14 0 25 -4 25 -9z m-11 -57 c2 -2 -22
-4 -55 -3 -42 0 -53 3 -39 9 18 8 83 3 94 -6z m131 -34 c0 -16 -4 -30 -9 -30
-5 0 -8 12 -6 28 4 34 4 32 10 32 3 0 5 -13 5 -30z m3786 -41 c14 -29 18 -46
12 -50 -6 -4 -8 -15 -4 -24 5 -14 9 -15 21 -5 9 7 18 10 22 6 9 -9 -15 -48
-43 -69 -23 -18 -24 -17 -24 4 0 17 -5 20 -24 17 -16 -3 -23 -1 -20 7 3 7 -15
42 -40 79 -26 36 -46 71 -46 77 0 6 23 8 62 6 61 -5 62 -5 84 -48z m-1113 -11
c-2 -24 -4 -64 -3 -90 1 -42 -2 -48 -19 -48 -29 0 -25 44 14 168 9 25 12 11 8
-30z m673 -18 c-7 -40 18 -59 70 -53 l40 4 19 -63 c10 -35 26 -88 36 -118 21
-64 12 -82 -24 -46 -14 14 -21 28 -16 31 13 9 1 25 -17 25 -10 0 -14 -8 -12
-22 2 -17 -3 -24 -20 -26 -27 -4 -44 31 -61 122 -6 32 -16 65 -22 72 -6 8 -9
14 -6 14 4 0 0 19 -8 41 -19 54 -19 58 6 52 17 -5 20 -11 15 -33z m-3476 20
c0 -5 -2 -10 -4 -10 -3 0 -8 5 -11 10 -3 6 -1 10 4 10 6 0 11 -4 11 -10z m-80
-9 c0 -4 -11 -6 -25 -3 -14 2 -25 6 -25 8 0 2 11 4 25 4 14 0 25 -4 25 -9z
m3900 -93 c0 -5 -4 -8 -9 -8 -9 0 -51 65 -51 78 1 9 59 -61 60 -70z m-3900 42
c0 -12 -17 -12 -45 0 -17 7 -15 9 13 9 17 1 32 -3 32 -9z m100 -6 c0 -2 -9 -4
-21 -4 -11 0 -18 4 -14 10 5 8 35 3 35 -6z m2696 2 c19 -14 19 -15 -1 -22 -42
-15 -48 -26 -25 -44 22 -16 19 -55 -4 -47 -24 8 -38 56 -26 92 13 38 26 43 56
21z m511 2 c0 -7 3 -43 7 -80 7 -65 7 -68 -14 -68 -28 0 -76 -26 -84 -45 -3
-8 -1 -27 4 -41 13 -34 13 -34 -15 -34 -26 0 -37 27 -48 118 -5 40 -4 43 16
41 51 -6 95 32 102 89 4 34 2 32 18 32 8 0 14 -6 14 -12z m-3098 -60 c-1 -31
-1 -31 -8 -8 -5 14 -6 28 -4 33 9 15 13 6 12 -25z m-137 6 c10 -3 18 -12 18
-21 0 -13 -3 -13 -27 2 -17 11 -44 17 -75 16 -27 0 -47 3 -44 8 6 9 95 6 128
-5z m2930 -49 c11 -66 9 -135 -4 -139 -7 -3 -27 -7 -45 -10 l-32 -5 2 100 2
100 35 -4 c32 -3 35 -6 42 -42z m952 4 c-7 -11 -34 -12 -34 -1 0 14 11 21 26
15 8 -3 11 -9 8 -14z m-3944 -9 c0 -5 -17 -10 -37 -9 -34 1 -35 2 -13 9 36 11
50 11 50 0z m75 -38 c-3 -4 -10 0 -15 8 -6 9 -5 17 3 22 13 8 24 -19 12 -30z
m2778 22 c21 -8 24 -54 3 -54 -32 0 -46 13 -46 42 0 20 4 28 13 24 6 -3 20 -9
30 -12z m-2648 -329 c2 -163 2 -295 0 -293 -9 8 -16 183 -16 378 0 244 0 225
7 218 3 -4 7 -140 9 -303z m-208 269 c-9 -9 -28 6 -21 18 4 6 10 6 17 -1 6 -6
8 -13 4 -17z m3433 -35 c0 -5 10 -17 22 -29 l22 -20 -36 0 c-34 0 -37 3 -52
47 -9 26 -16 48 -16 50 0 2 14 -6 30 -19 17 -12 30 -25 30 -29z m-3350 5 c0
-14 -4 -23 -10 -19 -5 3 -10 15 -10 26 0 10 5 19 10 19 6 0 10 -12 10 -26z
m-76 -41 c5 -11 2 -13 -10 -9 -8 3 -27 6 -40 6 -13 0 -24 6 -24 13 0 18 67 9
74 -10z m3101 7 c-3 -5 -18 -10 -33 -9 -24 0 -25 1 -7 9 28 12 47 12 40 0z
m253 -40 c15 -24 85 -27 145 -6 20 8 37 11 37 8 0 -6 -40 -213 -65 -340 -22
-105 -20 -187 4 -209 11 -10 24 -43 30 -73 5 -30 19 -82 30 -114 21 -60 30
-218 13 -241 -16 -24 -266 -145 -298 -145 -22 0 -32 54 -49 260 -8 93 -36 245
-47 251 -6 4 -8 11 -5 16 4 6 -2 34 -12 64 -16 44 -19 76 -16 171 2 65 -1 135
-6 155 -30 122 -36 173 -24 190 12 16 15 15 50 -1 32 -16 44 -17 77 -6 23 6
57 9 80 5 38 -7 41 -6 35 14 -7 27 4 27 21 1z m-3268 -11 c0 -24 -23 -21 -28
4 -2 10 3 17 12 17 10 0 16 -9 16 -21z m-80 -9 c0 -3 -4 -11 -9 -19 -7 -11
-17 -12 -42 -5 -48 14 -45 29 6 29 25 0 45 -2 45 -5z m90 -68 c0 -11 -7 -18
-20 -18 -20 0 -27 16 -13 29 13 13 33 7 33 -11z m-92 -29 c2 -8 -6 -13 -22
-13 -17 0 -26 5 -26 16 0 19 41 16 48 -3z m100 -385 c0 -299 -1 -308 -34 -308
-30 0 -33 36 -4 45 11 3 20 13 20 21 0 8 -9 14 -20 14 -15 0 -20 7 -20 25 0
20 5 25 26 25 33 0 30 33 -4 38 -27 4 -29 32 -2 39 23 6 27 43 5 43 -25 0 -20
66 5 73 11 3 20 12 20 21 0 9 -8 16 -20 16 -23 0 -27 18 -5 26 17 7 21 44 5
44 -5 0 -10 6 -10 14 0 8 -9 18 -20 21 -21 7 -27 39 -9 50 6 4 16 -1 24 -11
13 -18 14 -18 21 -1 4 12 0 23 -12 32 -18 14 -18 16 -1 29 21 16 23 46 2 46
-22 0 -20 48 3 52 25 5 30 -51 30 -354z m-111 292 c-7 -17 -19 -30 -29 -30 -9
0 -20 -4 -23 -10 -11 -18 -23 -11 -18 10 3 11 11 20 19 20 7 0 17 6 21 14 4 7
15 16 23 19 8 3 16 6 17 6 1 1 -4 -12 -10 -29z m-13 -87 c3 -10 5 -49 4 -88
-1 -38 2 -85 6 -102 8 -36 3 -39 -41 -22 -28 11 -28 11 -5 20 27 10 29 29 2
29 -11 0 -20 5 -20 10 0 6 6 10 14 10 28 0 27 20 -1 31 l-28 12 24 6 c33 9 39
31 10 38 l-23 6 23 9 c26 9 19 28 -10 28 -26 0 -24 18 4 23 12 2 25 5 29 6 4
0 9 -7 12 -16z m3554 -155 c7 -27 25 -56 47 -78 19 -18 35 -38 35 -44 0 -22
52 -76 74 -76 12 0 32 -10 43 -22 29 -33 73 -126 67 -142 -3 -8 -1 -17 5 -21
25 -15 -54 -104 -109 -124 -25 -8 -27 -6 -43 40 -10 27 -24 49 -32 49 -9 0
-17 24 -25 72 -7 39 -18 85 -26 103 -7 17 -20 62 -29 100 -8 38 -23 77 -32 87
-12 13 -14 28 -9 63 9 54 19 51 34 -7z m-1408 -108 c0 -6 13 -10 29 -10 17 0
36 -8 43 -17 7 -10 19 -18 26 -19 6 -1 17 -2 22 -2 14 -3 12 -64 -3 -83 -7 -9
-45 -24 -85 -33 -59 -13 -77 -14 -95 -4 -19 11 -20 13 -4 16 10 2 17 13 17 27
0 13 7 28 16 33 19 10 14 48 -5 44 -7 -1 -19 2 -27 9 -12 9 -10 16 7 40 17 24
24 27 40 19 10 -6 19 -15 19 -20z m-2140 5 c10 -12 10 -15 -1 -15 -26 0 -59
12 -59 21 0 15 47 10 60 -6z m5 -63 c-3 -3 -11 0 -18 7 -9 10 -8 11 6 5 10 -3
15 -9 12 -12z m189 -72 c3 -30 8 -75 11 -100 13 -131 21 -319 17 -425 l-3 -60
-15 35 c-19 44 -35 342 -27 497 3 62 7 112 9 111 1 -2 5 -28 8 -58z m-189 40
c7 -12 -12 -12 -40 0 -18 8 -17 9 7 9 15 1 30 -3 33 -9z m3010 -20 c23 -24 29
-39 29 -78 1 -47 1 -47 -31 -44 -38 4 -51 -13 -28 -38 9 -10 15 -24 14 -32 -6
-47 27 -53 43 -8 8 25 14 29 32 24 35 -10 41 -22 23 -42 -21 -23 -21 -36 -2
-52 8 -7 12 -16 9 -21 -9 -16 -39 -5 -44 16 -8 28 -40 32 -47 6 -7 -26 -23
-27 -23 -2 0 25 -14 33 -59 37 -26 2 -42 11 -61 35 -20 23 -32 30 -47 25 -33
-11 -53 3 -53 37 0 17 -7 38 -16 48 -14 16 -14 18 6 29 17 9 29 7 65 -10 48
-23 70 -19 62 11 -4 15 0 17 24 12 22 -4 29 -2 29 11 0 9 8 16 19 16 23 0 40
22 23 28 -13 4 -16 22 -4 22 5 0 21 -14 37 -30z m-370 -37 c10 -21 29 -50 43
-65 34 -37 15 -42 -66 -20 -54 15 -65 23 -82 55 -11 20 -20 39 -20 43 0 3 20
2 45 -2 38 -5 45 -4 45 10 0 28 17 17 35 -21z m-2635 -1 c0 -26 -3 -28 -31
-24 -37 5 -36 33 1 43 14 4 26 7 28 8 1 1 2 -12 2 -27z m2438 15 c-21 -17 -5
-50 21 -42 13 4 23 -4 37 -30 10 -19 23 -35 27 -35 5 0 7 -6 4 -14 -3 -8 1
-22 9 -33 14 -17 15 -17 30 4 18 25 44 20 44 -8 0 -40 -105 -15 -151 35 -14
14 -44 37 -68 49 -24 13 -44 26 -44 29 -3 11 67 56 88 57 18 0 18 -1 3 -12z
m-2439 -106 c-1 -38 -11 -56 -33 -56 -27 0 -31 21 -6 28 26 7 26 27 0 34 -25
7 -26 20 -2 25 29 7 42 -3 41 -31z m2146 20 c-11 -18 32 -30 84 -24 42 5 51 3
51 -10 0 -11 14 -18 46 -23 30 -4 59 -18 85 -40 34 -28 44 -32 61 -23 11 6 30
8 42 4 11 -4 55 -11 96 -15 41 -4 109 -19 150 -33 83 -28 214 -53 333 -63 62
-5 77 -10 77 -23 0 -14 -10 -15 -82 -10 -48 3 -116 17 -160 31 -97 33 -154 43
-163 29 -11 -19 -35 -12 -35 9 0 24 -24 35 -99 43 -45 5 -54 4 -58 -11 -4 -15
-17 -19 -85 -21 -45 -1 -106 -9 -137 -18 -31 -8 -90 -21 -131 -28 -114 -19
-160 -43 -140 -75 8 -13 14 -13 42 2 44 22 63 27 132 33 32 3 72 13 88 21 18
10 69 18 127 21 70 4 99 10 108 21 11 14 13 13 18 -1 6 -13 72 -36 125 -42 8
-1 28 -6 44 -10 18 -5 36 -4 47 3 14 9 32 7 81 -9 99 -31 116 -40 110 -61 -2
-10 0 -18 4 -19 5 0 16 -2 24 -5 8 -2 39 -9 68 -16 48 -11 53 -15 49 -35 -3
-16 3 -29 19 -42 20 -16 21 -20 8 -25 -9 -3 -12 -11 -8 -18 5 -7 7 -28 5 -48
-3 -53 14 -87 53 -104 32 -13 34 -18 41 -76 4 -34 5 -64 2 -67 -12 -11 -1913
-20 -1925 -8 -8 7 -24 236 -18 243 3 3 14 -2 25 -12 23 -21 52 -21 176 -2 102
15 128 23 225 68 42 19 59 23 72 15 13 -9 29 -5 70 16 29 15 57 27 61 27 13 0
87 52 87 61 0 17 -38 8 -113 -26 -84 -39 -88 -40 -85 -23 4 15 -32 24 -41 10
-17 -27 -199 -102 -249 -102 -15 0 -42 -4 -60 -9 -26 -8 -34 -7 -39 5 -4 11
-17 15 -42 13 -20 -1 -50 -1 -67 0 -35 1 -41 14 -51 104 -5 41 -3 47 14 47 10
0 44 9 76 20 62 22 81 25 73 11 -10 -15 22 -33 46 -26 24 7 149 60 180 76 10
5 25 9 33 9 8 0 15 9 15 19 0 10 7 21 15 25 8 3 15 1 15 -5 0 -5 9 -1 21 10
28 25 17 41 -29 41 -25 0 -33 3 -25 11 5 5 30 10 54 11 24 0 55 5 69 11 14 5
30 11 35 12 6 2 31 10 57 19 26 8 54 13 62 10 8 -3 27 11 47 37 19 23 48 48
64 55 37 16 38 16 30 5z m-180 -51 c-9 -14 -83 -32 -105 -25 -11 4 -20 11 -20
17 0 7 4 7 14 -1 18 -15 72 12 80 42 l6 22 15 -23 c9 -12 13 -26 10 -32z m375
41 c0 -6 -9 -9 -20 -8 -11 1 -20 5 -20 9 0 4 9 8 20 8 11 0 20 -4 20 -9z
m1868 -59 c2 -19 9 -32 17 -32 8 0 15 -12 17 -27 2 -20 9 -29 26 -31 14 -2 22
-10 22 -23 0 -16 -6 -19 -36 -17 -28 2 -40 -3 -55 -22 -11 -15 -19 -19 -19
-11 0 10 -8 12 -32 7 -25 -5 -30 -4 -20 6 19 19 14 36 -15 50 -29 14 -40 43
-24 67 5 8 27 15 53 15 41 1 43 2 40 30 -3 20 0 27 10 24 7 -3 14 -19 16 -36z
m-4100 -3 c-6 -18 -58 -21 -58 -3 0 9 11 14 31 14 19 0 29 -5 27 -11z m2580
-7 c2 -7 -6 -12 -17 -12 -21 0 -27 11 -14 24 9 9 26 2 31 -12z m1217 -21 c3
-16 15 -39 26 -52 28 -33 24 -78 -11 -118 -17 -18 -30 -43 -30 -55 0 -26 -101
-145 -143 -168 -16 -10 -35 -22 -41 -28 -5 -5 -14 -10 -19 -10 -5 0 8 19 27
42 31 36 34 43 20 51 -14 8 -14 11 2 28 17 18 30 59 19 59 -2 0 -21 -11 -41
-25 -43 -29 -59 -32 -49 -7 4 9 8 28 9 42 1 14 6 48 10 77 8 47 12 53 41 63
19 6 52 31 74 56 23 24 48 44 56 44 7 0 17 9 20 20 8 26 22 17 30 -19z m-3648
-3 c-3 -8 -6 -5 -6 6 -1 11 2 17 5 13 3 -3 4 -12 1 -19z m2533 -22 c0 -4 -7
-5 -16 -2 -9 3 -20 6 -25 6 -5 0 -9 9 -9 20 0 20 1 20 25 3 13 -10 25 -22 25
-27z m-2802 -11 c-2 -42 -20 -66 -33 -45 -4 6 -1 10 4 10 6 0 11 9 11 20 0 12
-7 20 -16 20 -12 0 -11 5 7 20 13 10 25 19 26 20 2 0 2 -20 1 -45z m115 4 c-3
-11 -17 -25 -30 -30 -32 -12 -30 -12 -29 13 1 12 9 22 19 24 11 1 21 5 25 8
12 13 20 5 15 -15z m-19 -96 c-26 -19 -43 -16 -37 6 5 20 45 33 52 17 2 -5 -4
-15 -15 -23z m3551 7 c3 -11 4 -24 1 -29 -9 -14 -96 -61 -114 -61 -8 0 -23 -7
-31 -15 -9 -8 -34 -20 -55 -27 -21 -7 -37 -17 -37 -23 3 -19 68 -8 134 23 92
44 101 43 93 -10 -9 -57 -51 -131 -87 -152 -16 -9 -29 -15 -29 -12 0 3 -22 -7
-49 -23 -56 -34 -139 -54 -196 -49 -36 3 -40 6 -42 34 -2 30 -1 31 35 30 27
-1 37 3 37 14 0 8 -9 16 -20 18 -28 4 -65 24 -65 34 0 4 9 3 20 -4 14 -9 22
-10 31 -1 11 11 9 14 -44 54 -33 25 -27 39 18 39 49 0 303 113 335 150 14 15
35 27 52 29 4 1 9 -8 13 -19z m-3648 -10 c-1 -11 -8 -20 -17 -20 -26 0 -31 12
-12 26 24 19 31 17 29 -6z m1663 10 c0 -11 -39 -34 -46 -27 -6 6 25 37 37 37
5 0 9 -4 9 -10z m-1340 -15 c0 -8 -4 -15 -10 -15 -5 0 -7 7 -4 15 4 8 8 15 10
15 2 0 4 -7 4 -15z m1104 -14 c27 0 47 -4 44 -7 -7 -6 -146 -44 -164 -44 -10
0 -26 45 -18 52 2 3 20 3 138 -1z m176 -5 c0 -2 -7 -7 -16 -10 -8 -3 -12 -2
-9 4 6 10 25 14 25 6z m-1487 -56 c-7 -25 -41 -19 -46 8 -3 17 1 26 17 32 23
8 37 -11 29 -40z m207 34 c0 -8 -5 -12 -10 -9 -6 4 -8 11 -5 16 9 14 15 11 15
-7z m-325 -13 c-3 -6 -16 -11 -28 -11 -21 0 -21 1 3 13 27 15 36 14 25 -2z
m1555 9 c-8 -5 -19 -10 -25 -10 -5 0 -3 5 5 10 8 5 20 10 25 10 6 0 3 -5 -5
-10z m1617 -32 c-2 -8 -18 -12 -43 -10 -62 5 -66 22 -5 22 38 0 51 -4 48 -12z
m-3172 -28 c-3 -5 -14 -10 -23 -10 -15 0 -15 2 -2 10 20 13 33 13 25 0z m118
-73 c-32 -20 -47 36 -15 59 15 11 18 9 22 -19 4 -20 1 -35 -7 -40z m-130 16
c-7 -2 -19 -2 -25 0 -7 3 -2 5 12 5 14 0 19 -2 13 -5z m3941 -99 c8 -43 19
-92 25 -107 13 -34 14 -104 2 -111 -5 -4 4 -19 20 -35 21 -21 29 -39 29 -63 0
-45 27 -122 62 -177 49 -78 36 -104 -54 -107 -35 -1 -69 3 -75 8 -18 14 -46 1
-39 -17 8 -22 -12 -18 -24 5 -11 20 -44 27 -54 11 -3 -5 1 -14 9 -21 8 -7 15
-16 15 -21 0 -15 -27 -10 -34 6 -5 15 -37 21 -49 8 -4 -3 -2 -12 5 -20 17 -21
1 -29 -20 -10 -27 24 -52 22 -52 -5 0 -14 -3 -18 -8 -12 -4 7 -16 13 -27 15
-46 9 -17 112 33 122 35 7 72 63 72 108 0 22 9 39 35 61 36 32 38 56 4 37 -11
-5 -25 -8 -32 -6 -7 3 0 8 15 12 14 4 29 14 32 23 3 10 9 23 12 31 5 11 0 13
-20 9 -25 -5 -27 -3 -21 19 5 23 4 25 -18 19 -41 -10 -43 21 -2 35 28 11 32
15 22 30 -9 15 -7 23 13 44 31 33 19 43 -25 22 -40 -19 -45 -20 -45 -9 0 4 13
13 29 20 37 16 108 86 117 115 7 25 25 49 31 44 2 -2 10 -40 17 -83z m-244 57
c0 -5 -7 -14 -15 -21 -16 -14 -18 -10 -9 14 6 17 24 22 24 7z m-3695 -21 c-3
-5 -15 -10 -26 -10 -10 0 -19 5 -19 10 0 6 12 10 26 10 14 0 23 -4 19 -10z
m-300 -20 c3 -5 1 -10 -4 -10 -6 0 -11 5 -11 10 0 6 2 10 4 10 3 0 8 -4 11
-10z m455 -15 c-19 -23 -1 -37 41 -33 23 2 39 -1 39 -7 0 -6 -18 -9 -44 -7
-35 3 -46 9 -55 28 -14 31 -15 29 10 31 16 2 18 -1 9 -12z m-143 -31 c2 -5
-10 -15 -27 -21 -27 -10 -30 -9 -30 7 0 26 49 38 57 14z m3593 -18 c0 -18 -17
-39 -38 -47 -18 -7 -22 -13 -14 -21 6 -6 8 -16 6 -23 -3 -7 5 -15 18 -18 23
-6 23 -9 21 -122 -1 -63 -4 -119 -7 -124 -3 -5 -21 -12 -41 -15 -43 -8 -54
-25 -29 -43 16 -12 17 -15 5 -23 -12 -7 -7 -13 21 -30 20 -12 37 -29 38 -38 0
-9 2 -53 5 -97 2 -44 6 -101 9 -127 4 -38 2 -48 -10 -48 -8 0 -12 4 -9 10 6
10 -16 51 -49 88 -22 24 -25 25 -44 13 -11 -7 -7 -18 17 -52 29 -39 30 -44 15
-58 -9 -9 -18 -12 -20 -6 -24 59 -56 87 -75 68 -10 -10 -9 -17 4 -31 18 -20
24 -57 7 -47 -5 3 -10 1 -10 -4 0 -6 -4 -11 -10 -11 -5 0 -10 11 -10 23 0 29
-34 62 -55 54 -20 -8 -19 -44 1 -55 10 -5 12 -12 7 -15 -6 -4 -24 14 -42 38
-38 52 -63 69 -79 53 -11 -11 -7 -18 48 -85 15 -18 12 -43 -4 -43 -8 0 -26 20
-40 44 -25 44 -56 64 -76 51 -16 -10 -12 -22 20 -53 29 -30 39 -52 22 -52 -5
0 -14 11 -20 25 -15 33 -58 53 -75 36 -9 -10 -8 -15 7 -27 32 -23 11 -27 -40
-8 -44 17 -47 17 -59 1 -20 -28 -125 -18 -125 12 0 20 159 91 203 91 9 0 17 3
17 8 0 8 91 52 108 52 13 0 113 104 129 134 7 13 14 62 15 109 3 77 5 87 23
89 28 4 25 33 -3 34 -28 2 -36 9 -29 28 4 11 15 13 41 9 38 -6 40 -4 30 21 -4
11 -19 16 -46 16 -54 0 -40 16 22 24 55 7 64 20 26 37 -17 8 -33 8 -54 1 -31
-10 -46 -6 -36 9 3 5 16 9 30 9 29 0 125 39 137 54 4 6 5 19 3 28 -4 17 19 32
34 23 4 -2 15 4 25 15 16 18 35 26 35 16z m-3392 -42 c34 -10 26 -23 -10 -18
-39 6 -63 -8 -55 -30 4 -10 18 -16 37 -16 16 0 30 -5 30 -10 0 -6 -13 -9 -28
-8 -15 1 -33 -1 -39 -5 -17 -10 -24 34 -10 66 12 27 30 33 75 21z m3470 -109
c-4 -17 3 -32 24 -53 l28 -30 -30 -4 c-17 -3 -32 -2 -35 0 -7 8 -6 98 2 105
12 13 15 7 11 -18z m-3544 -14 c3 -5 -1 -11 -9 -15 -27 -10 -16 -25 28 -37 23
-6 48 -13 54 -15 7 -2 10 -9 7 -17 -4 -12 -15 -12 -62 -3 -52 11 -57 14 -60
39 -5 39 26 74 42 48z m61 -11 c13 -6 15 -9 5 -9 -8 0 -22 4 -30 9 -18 12 -2
12 25 0z m3114 -129 c6 -11 11 -23 11 -28 0 -4 -141 -9 -313 -10 -396 -2
-1617 -5 -1677 -4 l-44 1 22 23 c20 20 35 22 150 27 70 3 513 6 984 8 850 4
856 3 867 -17z m419 -13 c3 -26 1 -27 -35 -25 -34 2 -38 5 -41 30 -3 27 -2 28
35 25 33 -3 38 -7 41 -30z m-2627 -25 c0 -10 0 -62 -1 -116 -1 -91 0 -99 17
-95 14 2 19 14 20 48 9 159 34 204 32 57 -1 -87 -7 -101 -51 -130 -40 -25 -48
-22 -37 15 5 18 7 79 5 135 -3 59 0 103 5 103 5 0 9 -8 10 -17z m2608 -77
c-20 -34 -56 -53 -72 -37 -4 4 -1 14 8 21 8 7 15 21 15 31 0 15 7 19 35 19
l34 0 -20 -34z m-3239 -90 c0 -3 -4 -8 -10 -11 -5 -3 -10 -1 -10 4 0 6 5 11
10 11 6 0 10 -2 10 -4z m699 -122 c15 -15 -72 -32 -174 -33 -65 -1 -42 15 35
24 31 4 63 11 71 16 13 8 57 4 68 -7z m-239 -71 c54 -36 99 -82 88 -89 -6 -4
-75 -7 -152 -7 -125 0 -146 2 -181 21 -22 12 -34 21 -26 22 8 0 30 12 48 26
26 20 52 28 106 34 40 4 77 8 82 9 6 0 22 -7 35 -16z M2184 7950 c-19 -19 0
-94 35 -137 25 -31 45 -44 91 -58 35 -11 70 -29 86 -46 32 -33 44 -36 44 -11
-1 21 -23 52 -38 52 -6 0 -16 9 -22 20 -9 17 -14 18 -35 8 -19 -8 -31 -8 -51
0 -24 11 -24 13 -10 34 24 33 21 41 -34 97 -56 57 -52 55 -66 41z M2982 7928
c-58 -41 -76 -76 -56 -113 19 -37 18 -42 -13 -50 -49 -12 -136 -57 -124 -64 6
-4 55 2 109 13 53 11 89 22 80 24 -28 5 -21 22 15 37 29 13 24 20 -11 16 -7
-1 1 17 18 40 16 23 30 49 30 58 0 9 7 26 15 37 14 22 11 35 -9 33 -6 0 -30
-14 -54 -31z M2753 7870 c1 -22 6 -40 10 -40 4 0 10 0 15 0 4 0 13 9 20 20 15
24 -3 60 -30 60 -14 0 -17 -8 -15 -40z M2363 7883 c9 -11 17 -27 17 -37 0 -21
19 -17 34 7 13 20 2 33 -39 43 -29 7 -30 7 -12 -13z M2636 7861 c-3 -5 0 -14
8 -20 10 -8 16 -8 25 2 6 8 8 17 4 20 -9 10 -31 9 -37 -2z M2430 7800 c0 -5 7
-10 15 -10 8 0 15 5 15 10 0 6 -7 10 -15 10 -8 0 -15 -4 -15 -10z M2567 7804
c-8 -8 1 -24 14 -24 5 0 9 7 9 15 0 15 -12 20 -23 9z M2810 7795 c0 -8 7 -15
15 -15 8 0 15 7 15 15 0 8 -7 15 -15 15 -8 0 -15 -7 -15 -15z M2490 7790 c-12
-8 -12 -10 3 -16 21 -8 35 2 21 16 -5 5 -15 6 -24 0z M2695 7791 c-7 -12 12
-24 25 -16 11 7 4 25 -10 25 -5 0 -11 -4 -15 -9z M2486 7721 c-4 -5 -2 -12 3
-15 5 -4 12 -2 15 3 4 5 2 12 -3 15 -5 4 -12 2 -15 -3z M2663 7682 c-7 -4 -16
-22 -19 -40 -6 -27 -2 -36 27 -63 29 -27 33 -37 34 -82 0 -67 25 -73 38 -9 7
38 10 41 29 31 12 -6 38 -8 64 -4 49 7 77 36 68 71 -4 15 1 26 17 37 24 17 20
47 -6 47 -42 0 -105 -23 -110 -41 -11 -35 -47 -51 -85 -38 -31 11 -32 13 -26
55 6 45 -3 54 -31 36z m197 -122 c-12 -23 -50 -27 -50 -6 0 8 8 13 17 12 12
-1 19 7 21 24 3 21 5 22 13 7 7 -11 6 -24 -1 -37z M2470 7266 c-4 -12 -6 -25
-3 -29 7 -11 30 10 36 32 6 25 -23 23 -33 -3z M2732 7248 c7 -19 38 -22 38 -4
0 10 -9 16 -21 16 -12 0 -19 -5 -17 -12z M3531 6654 c-12 -15 -21 -30 -21 -35
0 -15 42 -31 66 -25 29 8 32 36 4 36 -17 0 -19 5 -14 25 8 33 -9 32 -35 -1z
M3870 6595 c-16 -20 -6 -45 19 -45 27 0 34 15 19 40 -15 24 -22 25 -38 5z
M4028 6546 c-23 -17 -23 -32 -1 -44 20 -12 66 6 60 22 -3 6 -10 10 -16 9 -6
-2 -11 4 -11 12 0 18 -9 19 -32 1z M3446 6451 c-17 -19 -17 -21 5 -50 30 -40
66 -64 74 -50 4 6 18 14 31 19 25 10 33 29 12 31 -7 1 -27 0 -45 -1 -22 -1
-35 4 -42 18 -9 16 -7 21 10 25 12 3 18 10 14 16 -10 17 -40 13 -59 -8z M1280
6271 c0 -5 7 -12 16 -15 26 -10 10 -31 -21 -28 -27 4 -28 3 -15 -13 8 -10 20
-28 25 -41 10 -22 11 -22 30 -5 28 24 46 58 39 74 -9 24 -74 48 -74 28z M3986
5861 c-7 -11 18 -33 27 -24 4 3 7 12 7 20 0 15 -26 18 -34 4z M3684 5826 c-25
-18 -50 -94 -35 -109 6 -6 17 5 31 36 12 25 28 51 36 58 13 11 11 29 -4 29 -4
0 -17 -6 -28 -14z M3933 5833 c-16 -6 -17 -39 -2 -49 6 -3 15 -2 20 3 13 13
-3 51 -18 46z M4105 5831 c-3 -5 2 -17 11 -26 19 -19 40 -6 31 19 -7 17 -32
21 -42 7z M4414 5775 c-7 -18 12 -45 32 -45 17 0 18 32 2 48 -16 16 -27 15
-34 -3z M2880 5542 c-30 -5 -50 -20 -50 -37 0 -9 10 -9 45 3 59 19 62 43 5 34z
M3792 5634 c-19 -13 -21 -19 -11 -30 13 -16 50 -15 56 1 2 6 -2 19 -9 28 -12
16 -15 16 -36 1z M4317 5403 c-4 -3 -7 -20 -7 -37 0 -17 -7 -66 -15 -109 -18
-95 -18 -87 0 -87 8 0 17 12 20 28 3 15 10 43 15 62 5 19 11 61 15 93 4 44 3
57 -8 57 -8 0 -17 -3 -20 -7z M4177 5356 c-36 -44 -44 -59 -91 -176 -30 -74
-32 -90 -12 -90 8 0 18 18 25 43 6 24 19 54 29 68 11 13 25 41 31 61 7 21 17
41 23 45 7 4 9 0 5 -10 -3 -9 -9 -40 -13 -69 -4 -30 -22 -81 -41 -116 -28 -51
-31 -63 -17 -60 25 5 83 124 95 198 6 36 19 76 28 90 18 25 18 26 -4 42 -23
17 -24 17 -58 -26z M4382 5368 c-13 -17 -22 -81 -26 -198 -4 -95 -18 -146 -66
-241 -23 -45 -25 -59 -7 -59 13 0 49 72 85 165 8 22 18 90 23 150 4 61 11 129
15 153 7 42 -3 55 -24 30z M3518 5279 c-23 -13 -11 -39 18 -39 19 0 24 5 24
25 0 26 -14 31 -42 14z M3643 5273 c-18 -7 -16 -50 3 -57 28 -11 52 -6 58 10
8 21 8 20 -10 38 -16 16 -29 19 -51 9z M3547 5186 c-30 -23 -42 -72 -24 -100
15 -22 14 -25 -14 -52 -16 -15 -29 -33 -29 -39 0 -20 35 -45 62 -45 14 0 31
-7 38 -15 7 -9 30 -15 54 -16 37 0 39 -1 16 -10 -35 -14 -36 -17 -7 -39 14
-11 29 -29 32 -40 4 -11 15 -20 26 -20 16 0 19 5 14 23 -5 19 -4 20 5 5 6 -10
18 -18 25 -18 8 0 15 8 15 18 1 12 5 9 16 -10 8 -16 21 -28 29 -28 17 0 20 33
5 61 -6 11 -7 19 -2 19 6 0 12 -9 15 -20 7 -29 37 -26 37 4 0 17 -11 32 -32
47 -18 12 -39 29 -46 38 -15 19 -48 3 -46 -23 1 -10 -3 -15 -10 -13 -6 2 -10
19 -8 40 2 20 -1 45 -7 55 -8 15 -7 21 4 26 8 3 15 16 15 29 0 36 -32 67 -69
67 -21 0 -31 5 -31 15 0 18 -35 55 -52 55 -7 0 -21 -7 -31 -14z m93 -160 c0
-3 -4 -8 -10 -11 -5 -3 -10 -1 -10 4 0 6 5 11 10 11 6 0 10 -2 10 -4z M3778
5179 c-24 -14 -23 -46 3 -59 32 -18 51 -5 47 32 -3 35 -21 45 -50 27z M4236
5135 c-10 -7 -15 -19 -11 -25 5 -8 13 -6 26 6 33 30 21 46 -15 19z M4113 5033
c-7 -3 -13 -16 -13 -30 0 -18 5 -24 17 -21 19 4 30 35 16 48 -4 4 -14 5 -20 3z
M3426 4961 c-10 -16 5 -41 24 -41 25 0 35 18 20 35 -14 17 -36 20 -44 6z
M3810 4955 c0 -8 4 -15 9 -15 5 0 14 7 21 15 10 13 9 15 -9 15 -12 0 -21 -6
-21 -15z M3470 4630 c-13 -8 -13 -11 1 -25 19 -19 51 -9 47 14 -4 19 -27 25
-48 11z M4414 5509 c-9 -16 12 -33 31 -25 14 5 15 9 5 21 -15 18 -26 19 -36 4z
M4114 5485 c-7 -18 3 -35 21 -35 18 0 26 15 19 34 -8 20 -33 21 -40 1z M885
5356 c-16 -12 -18 -17 -7 -28 15 -15 47 0 47 22 0 20 -18 22 -40 6z M2380
4900 c0 -5 5 -10 10 -10 6 0 10 5 10 10 0 6 -4 10 -10 10 -5 0 -10 -4 -10 -10z
M3577 4443 c-9 -9 12 -33 29 -33 8 0 14 9 14 20 0 19 -28 28 -43 13z M3595
4360 c-4 -7 -3 -16 3 -22 14 -14 45 -2 40 15 -6 16 -34 21 -43 7z M904 4335
c-29 -20 -35 -69 -40 -335 -2 -123 -8 -256 -13 -296 -31 -222 -34 -289 -11
-289 16 0 20 19 40 185 14 115 26 275 35 470 5 101 13 163 26 203 25 75 12 97
-37 62z M1001 4328 c-5 -13 -17 -63 -26 -112 -14 -73 -14 -90 -3 -97 7 -5 16
-9 20 -9 3 0 14 45 24 100 10 55 22 100 27 100 5 0 6 -10 3 -22 -17 -59 -28
-190 -18 -200 20 -20 40 -1 37 34 -2 18 3 71 10 116 8 46 11 90 8 98 -3 8 -19
14 -39 14 -26 0 -37 -5 -43 -22z M3824 3975 c-4 -9 -2 -21 4 -27 15 -15 44 -1
40 19 -4 23 -36 29 -44 8z M4240 4156 c0 -8 4 -17 9 -20 11 -7 33 18 24 27
-12 12 -33 7 -33 -7z M4311 3871 c-16 -10 -6 -31 15 -31 16 0 18 9 6 27 -4 7
-13 9 -21 4z M3927 4183 c-3 -5 -2 -15 3 -22 10 -17 43 -6 38 12 -6 15 -34 22
-41 10z M4005 3860 c-8 -12 20 -24 35 -15 6 3 8 11 5 16 -8 12 -32 12 -40 -1z
M4060 3731 c0 -6 5 -13 10 -16 6 -3 10 1 10 9 0 9 -4 16 -10 16 -5 0 -10 -4
-10 -9z M3685 3820 c-8 -13 13 -40 31 -40 20 0 27 19 14 35 -14 17 -36 19 -45
5z M3710 3655 c-10 -12 -10 -18 0 -31 12 -13 15 -13 28 0 15 15 10 46 -6 46
-5 0 -15 -7 -22 -15z M4253 3483 c-21 -8 -15 -43 7 -43 15 0 20 7 20 25 0 25
-4 28 -27 18z M3891 3561 c-21 -14 -5 -43 21 -39 15 2 23 10 23 23 0 22 -22
30 -44 16z M3891 3446 c-8 -10 -8 -16 2 -24 17 -14 42 2 34 22 -8 20 -21 20
-36 2z M4452 3499 c-13 -5 -20 -13 -17 -19 8 -13 42 -13 51 1 10 17 -9 28 -34
18z M4133 3344 c-9 -23 11 -38 26 -20 13 16 7 36 -10 36 -5 0 -12 -7 -16 -16z
M3700 3260 c-11 -7 -12 -12 -3 -21 14 -14 46 -4 41 13 -6 16 -20 19 -38 8z
M3464 3269 c-10 -17 23 -46 37 -32 7 7 9 19 6 27 -7 18 -33 21 -43 5z M3394
2058 c-10 -15 32 -48 62 -48 36 0 30 29 -11 46 -41 17 -42 17 -51 2z M1854
1969 c-3 -6 1 -18 10 -27 19 -19 49 -7 54 22 3 12 -4 16 -27 16 -16 0 -33 -5
-37 -11z M4392 2128 c-17 -17 -16 -69 2 -62 13 5 36 46 36 64 0 14 -24 12 -38
-2z M4082 1978 c-20 -10 -27 -31 -9 -29 4 1 21 1 38 1 24 0 30 4 27 17 -4 22
-25 26 -56 11z M4450 6009 c0 -5 5 -7 10 -4 6 3 10 8 10 11 0 2 -4 4 -10 4 -5
0 -10 -5 -10 -11z M4530 2025 c0 -13 10 -15 50 -13 67 4 69 22 3 26 -43 2 -53
0 -53 -13z M4668 2013 c-39 -10 -17 -30 38 -37 31 -3 64 -10 73 -15 9 -4 28
-11 44 -15 24 -6 27 -3 27 18 0 19 -8 25 -42 35 -51 13 -116 20 -140 14z
M4653 846 c-17 -18 -21 -31 -17 -58 l6 -35 -46 -7 c-25 -4 -48 -11 -51 -15 -8
-13 16 -29 57 -36 25 -5 39 -14 44 -27 8 -27 3 -30 -52 -30 -51 0 -94 -12 -94
-27 0 -22 32 -38 74 -39 55 -1 69 13 21 22 -20 4 -33 11 -30 17 4 5 10 7 15 4
5 -3 11 -1 14 3 3 5 16 9 28 8 20 -1 23 -7 25 -42 l3 -41 -57 -7 c-63 -7 -83
-19 -83 -47 0 -22 17 -25 39 -5 9 7 38 16 64 19 l48 5 -2 -77 c0 -42 4 -90 9
-107 7 -21 7 -35 0 -42 -16 -16 11 -26 29 -11 11 10 14 25 10 59 -3 26 -3 65
0 88 5 37 8 41 28 36 28 -7 56 22 31 32 -9 3 -23 4 -31 0 -8 -3 -15 -1 -15 4
0 6 0 13 0 18 -1 4 27 7 62 7 l63 0 3 36 c3 35 2 36 -35 42 -21 4 -53 7 -70 7
-18 0 -33 5 -33 10 0 6 30 10 71 10 52 0 70 3 66 13 -2 7 -25 12 -58 13 -94 3
-99 4 -99 19 0 12 10 15 43 14 86 -4 117 0 117 16 0 12 -16 15 -80 15 -47 0
-80 4 -80 10 0 6 22 10 49 10 46 0 72 13 57 28 -4 3 -29 6 -56 5 -43 0 -50 3
-50 19 0 18 5 19 50 15 36 -4 54 -1 65 10 37 36 5 63 -77 63 -42 0 -57 -5 -75
-24z m107 -6 c0 -6 -18 -10 -41 -10 -22 0 -38 4 -35 8 7 12 76 13 76 2z m-120
-115 c0 -8 -7 -15 -15 -15 -26 0 -18 20 13 29 1 1 2 -6 2 -14z m148 -160 c51
-9 37 -25 -22 -25 -49 0 -74 9 -61 21 7 8 49 9 83 4z"/>
</g>
</svg>
