<?xml version="1.0" standalone="no"?>
<!DOCTYPE svg PUBLIC "-//W3C//DTD SVG 20010904//EN"
 "http://www.w3.org/TR/2001/REC-SVG-20010904/DTD/svg10.dtd">
<svg version="1.0" xmlns="http://www.w3.org/2000/svg"
 width="500.000000pt" height="878.000000pt" viewBox="0 0 500.000000 878.000000"
 preserveAspectRatio="xMidYMid meet">
<metadata>
Created by potrace 1.16, written by Peter Selinger 2001-2019
</metadata>
<g transform="translate(0.000000,878.000000) scale(0.100000,-0.100000)"
fill="#000000" stroke="none">
<path d="M2433 8713 c-18 -7 -16 -43 2 -43 21 0 19 -12 -10 -64 -14 -25 -25
-52 -25 -60 0 -35 -19 -20 -50 40 -31 61 -32 65 -15 78 34 25 12 46 -50 46
-64 0 -83 -20 -45 -47 23 -16 90 -151 90 -180 0 -9 -8 -22 -17 -29 -17 -11
-16 -13 7 -19 41 -10 143 -2 148 13 2 7 -5 12 -18 12 -17 0 -20 3 -12 13 5 6
26 51 47 100 21 48 43 87 51 87 15 0 28 35 19 50 -6 10 -99 13 -122 3z M2265
6470 c-69 -16 -185 -86 -185 -111 0 -7 -19 -31 -42 -55 -46 -47 -53 -69 -64
-204 -6 -64 -5 -65 29 -99 39 -37 63 -52 120 -77 20 -10 37 -23 37 -31 0 -7 7
-14 15 -14 8 -1 21 -2 28 -3 6 0 14 -12 15 -26 2 -14 7 -29 12 -34 4 -4 -7
-28 -26 -53 -19 -24 -34 -53 -34 -63 0 -10 -15 -50 -34 -87 -19 -37 -37 -88
-40 -113 -11 -74 -25 -161 -37 -230 -19 -103 -20 -120 -25 -215 -2 -49 -8
-189 -13 -310 -11 -233 -3 -1325 9 -1370 1 -5 2 -12 2 -15 0 -3 -5 -66 -12
-142 -6 -75 -12 -258 -12 -407 l-1 -271 -46 1 c-25 0 -98 -5 -161 -11 -63 -7
-152 -14 -198 -15 -82 -4 -140 -24 -127 -45 6 -10 -27 -17 -120 -25 -38 -3
-88 -8 -110 -10 -22 -3 -69 -7 -105 -10 -35 -3 -66 -8 -69 -10 -2 -3 -10 0
-17 6 -7 6 -18 7 -25 3 -6 -4 -43 -9 -81 -11 -39 -2 -79 -8 -89 -14 -13 -6
-25 -6 -38 0 -10 6 -21 7 -25 4 -3 -4 -85 -7 -182 -9 -159 -1 -177 -3 -197
-22 -21 -18 -72 -38 -91 -33 -4 1 -13 -2 -20 -7 -6 -5 -31 -8 -56 -7 -25 2
-63 -2 -85 -8 -50 -13 -54 -14 -87 -15 -23 -2 -28 -7 -28 -27 0 -21 4 -25 23
-21 21 5 132 20 222 30 58 7 147 35 167 53 13 11 45 15 142 15 70 0 129 4 131
8 3 5 14 6 25 3 11 -3 33 -1 49 5 16 6 33 6 37 2 5 -5 26 -5 46 -1 21 5 100 9
175 10 76 0 149 3 162 6 13 2 60 7 105 10 88 6 189 24 276 49 54 16 78 19 265
31 50 3 101 9 114 12 17 4 22 2 19 -7 -2 -8 -13 -14 -24 -15 -10 -1 -41 -5
-69 -9 -27 -5 -63 -10 -80 -12 -16 -1 -50 -7 -75 -13 -172 -38 -257 -51 -356
-55 -43 -2 -101 -9 -129 -15 -27 -7 -99 -14 -158 -16 -59 -2 -112 -7 -117 -10
-5 -3 -89 -10 -187 -15 -98 -5 -191 -12 -208 -15 -77 -12 -198 -24 -205 -20
-5 3 -10 0 -12 -5 -6 -19 -185 -75 -300 -95 -32 -5 -38 -10 -38 -31 0 -22 3
-24 43 -21 23 2 49 6 57 10 8 3 39 8 68 12 29 3 67 14 85 24 18 10 46 21 62
26 17 5 32 9 35 10 61 18 90 24 115 22 17 -2 46 0 66 5 47 10 171 20 227 19
23 -1 84 4 135 10 50 6 135 12 188 15 53 2 119 8 145 15 27 6 81 12 119 14
103 5 234 23 285 39 121 38 335 65 327 42 -4 -12 -78 -31 -214 -55 -62 -11
-121 -24 -131 -30 -11 -6 -53 -15 -93 -21 -133 -19 -139 -20 -139 -35 0 -8 9
-15 19 -15 11 0 22 -3 24 -8 3 -4 -17 -7 -44 -7 -39 0 -48 3 -44 15 2 8 1 21
-4 29 -10 15 -25 14 -205 -14 -55 -8 -108 -13 -117 -10 -10 3 -59 -2 -111 -11
-51 -10 -141 -18 -200 -18 -71 -1 -111 -5 -119 -14 -27 -26 7 -35 123 -34 148
1 150 1 163 12 7 5 27 12 46 14 19 3 39 6 44 7 6 1 18 -1 28 -6 19 -8 82 -2
172 15 112 21 138 24 131 12 -4 -7 -24 -12 -44 -12 -20 0 -53 -5 -72 -10 -19
-6 -80 -20 -135 -31 -55 -12 -133 -36 -172 -54 -40 -19 -97 -39 -127 -45 -30
-6 -60 -18 -66 -26 -19 -22 -28 -17 -41 26 -21 69 -59 84 -144 60 -22 -6 -50
-14 -63 -17 -44 -11 -115 -90 -168 -188 -15 -27 -30 -41 -45 -43 -13 -1 -66
-12 -116 -24 -74 -17 -93 -25 -93 -39 0 -14 6 -17 27 -14 48 7 82 15 108 25
24 9 29 6 26 -13 -1 -5 9 -1 21 7 31 22 39 20 29 -6 -19 -46 -39 -125 -51
-193 -11 -61 -10 -75 4 -109 9 -21 16 -40 16 -42 0 -2 -21 8 -47 22 -27 13
-67 27 -90 30 l-43 6 0 -77 c0 -52 3 -74 11 -69 7 4 9 -2 7 -17 -3 -24 2 -26
34 -14 16 6 18 1 18 -36 -1 -58 -40 -326 -60 -417 -6 -23 -10 -65 -10 -92 0
-56 15 -64 58 -34 22 15 23 15 16 -13 -12 -57 -14 -59 -42 -58 -20 0 -27 -5
-27 -20 0 -15 7 -20 25 -20 22 0 25 -5 28 -42 3 -39 1 -42 -25 -45 l-28 -3 -3
-88 -3 -88 29 15 c40 21 47 44 23 77 -18 23 -18 29 -6 39 17 14 15 19 39 -90
10 -41 24 -101 33 -132 15 -53 19 -58 44 -58 29 0 29 0 -2 110 -35 123 -51
280 -28 280 5 0 9 -12 8 -27 -4 -50 1 -73 15 -73 11 0 15 25 18 110 3 89 7
113 21 127 17 17 18 17 8 -10 -14 -37 -14 -144 0 -153 21 -13 32 16 30 75 -3
83 13 85 50 6 42 -92 61 -201 57 -335 l-3 -110 31 0 31 0 7 73 c12 129 -21
297 -81 425 -9 18 -13 35 -10 38 3 3 31 -2 64 -11 32 -9 83 -22 113 -29 30 -8
84 -22 120 -31 36 -10 88 -18 115 -18 51 1 91 -20 78 -40 -4 -6 -6 -30 -4 -54
2 -34 -1 -43 -13 -43 -18 0 -21 -23 -5 -51 7 -15 7 -24 -2 -35 -16 -20 -29
-18 -29 5 0 40 -18 70 -38 64 -18 -4 -19 -11 -14 -69 3 -45 1 -68 -9 -80 -12
-15 -14 -15 -20 7 -4 13 -7 46 -8 72 -1 47 -2 48 -28 45 -16 -2 -27 -8 -26
-14 13 -70 14 -148 3 -169 -7 -14 -17 -25 -20 -25 -4 0 -9 43 -12 95 -2 52 -7
97 -10 101 -4 3 -15 3 -25 0 -16 -5 -18 -19 -18 -131 l0 -125 35 0 c22 0 45 9
62 23 15 12 36 29 47 38 27 20 95 82 153 138 37 35 51 42 60 33 29 -29 110 -5
133 38 12 23 16 24 131 22 137 -3 252 -17 307 -38 21 -8 70 -35 108 -61 73
-48 141 -69 158 -49 5 6 6 30 1 55 -4 25 -7 65 -5 90 2 25 6 99 10 164 l8 119
-28 -4 c-28 -3 -28 -5 -31 -73 -4 -92 -25 -215 -36 -215 -10 0 -4 266 7 292 3
9 13 14 20 12 19 -8 55 14 55 31 0 8 -4 15 -9 15 -22 0 -97 162 -85 182 3 5
-2 45 -12 89 -17 81 -17 81 4 98 20 15 24 34 32 171 0 11 4 10 16 -5 13 -18
28 -20 146 -22 73 -1 137 2 143 7 7 6 10 -11 10 -52 0 -59 1 -62 34 -80 23
-13 48 -18 80 -16 42 3 46 5 51 33 10 54 21 9 19 -73 -3 -76 -1 -80 30 -120
21 -26 45 -43 65 -48 17 -3 37 -11 45 -18 8 -6 56 -11 110 -12 l96 -2 5 -34
c4 -28 13 -37 65 -65 33 -17 72 -32 86 -32 32 -1 93 -57 85 -77 -5 -13 10 -51
25 -64 15 -14 18 -44 5 -59 -8 -9 -16 -27 -18 -40 -4 -32 -56 -63 -111 -66
-23 -1 -50 -6 -60 -10 -10 -4 -26 -9 -35 -9 -45 -5 -139 -29 -152 -39 -8 -7
-23 -25 -33 -40 -22 -33 -16 -43 48 -86 56 -38 85 -43 235 -47 69 -2 166 -5
215 -8 69 -3 94 -1 106 10 14 13 18 13 28 0 14 -17 41 -10 41 10 0 8 5 14 10
14 6 0 10 -7 10 -15 0 -12 7 -14 27 -9 15 4 33 7 40 7 12 0 17 22 14 59 -1 10
2 18 8 18 6 0 8 -7 5 -15 -4 -8 -2 -15 4 -15 5 0 12 14 16 30 5 25 9 29 23 22
10 -4 29 -7 43 -6 14 2 36 4 50 6 36 4 49 47 27 93 -12 24 -15 48 -11 73 5 33
2 42 -26 72 -31 33 -31 34 -25 114 4 45 9 83 11 85 3 3 51 5 107 5 80 1 106 5
122 18 11 9 35 29 53 43 36 30 43 76 17 111 -8 10 -15 41 -15 67 0 30 -4 46
-10 42 -5 -3 -10 -17 -10 -30 0 -13 -5 -27 -10 -30 -6 -4 -10 5 -8 24 1 17 6
31 11 31 5 0 5 10 2 22 -6 17 -4 20 9 15 12 -5 16 0 16 18 0 20 5 25 25 25 17
0 43 16 76 47 44 41 50 52 48 82 -1 20 -1 50 0 66 1 25 3 27 12 13 5 -10 16
-15 24 -12 8 4 15 1 15 -4 0 -6 15 -10 33 -10 17 1 51 0 74 -2 41 -3 42 -4 36
-34 -3 -17 -11 -49 -18 -71 -7 -22 -18 -58 -25 -80 -7 -22 -30 -77 -51 -123
-22 -46 -39 -88 -39 -93 0 -5 -11 -28 -26 -50 -76 -121 -76 -122 29 -175 71
-36 73 -36 216 -40 185 -4 187 -6 125 -160 -60 -151 -128 -279 -178 -332 l-21
-24 35 4 c29 2 40 11 68 53 72 111 155 284 187 392 20 68 30 77 45 38 6 -16
14 -23 25 -19 17 7 20 -12 5 -50 -5 -13 -10 -46 -11 -73 -2 -26 -6 -55 -10
-63 -11 -22 -51 -272 -44 -278 3 -3 27 0 53 7 26 8 83 22 127 31 44 10 73 19
65 20 -27 4 -94 -1 -132 -10 -46 -10 -68 8 -43 34 18 18 19 18 94 20 36 1 56
7 59 16 4 11 -10 12 -72 7 -76 -7 -77 -6 -74 15 2 18 12 24 48 30 25 4 55 10
66 13 18 4 26 -4 49 -49 15 -29 38 -66 51 -81 13 -15 24 -32 24 -36 0 -4 -24
-10 -52 -12 -30 -2 -12 -4 40 -4 l94 -1 -19 21 c-10 12 -20 24 -23 27 -13 13
-50 103 -50 120 0 11 -7 37 -15 57 -16 44 -23 82 -32 178 -5 64 -3 75 22 124
26 50 27 55 16 99 -32 117 -29 131 47 254 26 42 73 119 104 171 43 71 66 98
89 108 38 15 103 19 142 8 27 -8 27 -7 27 41 l0 49 -84 -4 c-80 -3 -84 -2 -94
20 -20 44 -103 73 -237 83 -66 5 -143 8 -172 7 -44 -1 -52 2 -57 19 -5 19 27
76 43 76 7 0 34 56 46 100 6 21 66 148 95 200 16 31 31 67 54 135 23 69 23 72
6 115 -11 27 -25 46 -36 49 -11 2 -30 8 -44 14 -14 5 -34 11 -45 13 -11 2 -38
6 -60 10 -22 4 -74 8 -115 10 -72 3 -280 15 -290 17 -7 1 -47 -11 -125 -41
-38 -14 -75 -26 -81 -27 -5 0 -24 -12 -42 -27 -38 -31 -43 -77 -13 -107 11
-11 17 -22 14 -25 -3 -2 4 -18 16 -34 12 -17 21 -34 21 -38 0 -10 53 -88 63
-92 4 -2 7 -12 7 -22 0 -10 5 -22 11 -25 5 -4 23 -34 39 -68 17 -33 37 -69 46
-79 10 -11 12 -18 6 -18 -21 0 -13 -36 12 -59 l25 -23 -21 -29 c-24 -32 -28
-86 -9 -99 7 -4 11 -16 9 -26 -2 -15 -15 -20 -58 -25 -30 -3 -70 -1 -88 3 -19
5 -40 7 -48 4 -10 -4 -14 2 -15 19 -1 23 -4 42 -8 48 -1 1 -4 34 -7 72 -6 72
-11 120 -14 120 -1 0 -3 18 -6 40 -2 22 -9 72 -16 110 -15 96 -23 419 -10 411
6 -4 14 -1 18 5 5 8 8 8 14 0 8 -15 78 -5 104 14 10 8 16 21 13 29 -5 12 -19
14 -64 11 -32 -2 -66 -7 -76 -10 -16 -7 -17 1 -16 92 0 55 5 106 10 114 6 9 9
1 9 -27 0 -28 5 -44 15 -48 18 -6 60 8 70 24 13 22 60 37 118 39 28 1 37 5 38
19 0 9 8 -5 17 -32 19 -56 44 -78 64 -58 12 12 15 117 5 182 -7 42 -35 97 -54
105 -42 16 -120 23 -160 13 -32 -8 -43 -16 -48 -36 -4 -18 -9 -22 -14 -13 -6
9 -15 4 -35 -19 -14 -17 -26 -36 -26 -42 0 -18 -25 -2 -26 18 -1 10 -3 38 -5
62 -2 24 -5 45 -8 47 -4 2 -5 36 -3 77 l3 74 47 14 c26 8 54 14 62 14 8 1 21
5 29 10 8 5 16 4 20 -2 4 -7 22 -7 56 -1 28 5 91 7 140 3 50 -3 111 -7 137 -8
27 0 48 -4 48 -8 0 -5 12 -8 28 -8 15 0 58 -7 96 -14 38 -8 73 -13 78 -10 4 3
8 1 8 -4 0 -6 15 -13 34 -16 66 -13 276 -128 276 -153 0 -6 -38 -20 -85 -31
-46 -11 -103 -31 -126 -44 l-42 -23 -41 41 c-66 66 -157 69 -242 8 -39 -28
-74 -112 -53 -125 12 -7 12 -9 0 -9 -10 0 -12 -9 -8 -35 3 -19 2 -35 -4 -35
-5 0 -9 -6 -9 -14 0 -8 -9 -18 -20 -21 -11 -3 -20 -11 -20 -16 0 -6 -4 -8 -8
-5 -5 3 -35 -1 -68 -9 -75 -18 -74 -18 -74 1 0 13 -3 14 -13 5 -8 -6 -17 -7
-22 -3 -4 4 -5 -6 -1 -23 8 -32 21 -45 49 -45 16 0 124 26 157 38 8 3 18 5 22
4 18 -4 58 19 58 34 0 10 6 14 14 11 8 -3 17 -3 21 1 3 4 37 14 73 22 61 14
67 17 67 41 1 24 -1 26 -27 18 -16 -4 -28 -4 -28 2 0 5 7 9 15 9 21 0 30 27
16 44 -9 10 -7 17 5 26 12 11 22 11 49 1 26 -9 40 -9 57 -1 l23 11 -22 -18
c-12 -10 -34 -26 -48 -36 -29 -21 -32 -48 -8 -68 14 -12 17 -12 21 0 5 16 28
38 65 65 15 10 40 32 57 47 16 16 33 29 37 30 13 1 35 7 93 24 216 63 200 60
288 50 41 -4 42 -4 42 24 0 28 -2 29 -52 33 -29 2 -68 1 -85 -3 -28 -6 -40 -1
-80 29 -27 20 -49 40 -51 44 -2 4 -8 8 -12 8 -5 0 -47 18 -93 40 -162 76 -400
116 -665 112 -92 -1 -128 -5 -253 -28 l-37 -6 -7 63 c-4 35 -7 120 -6 189 3
171 3 178 -16 213 -11 23 -17 67 -20 152 -2 66 -5 143 -8 170 -2 28 -6 136 -9
240 -3 105 -11 249 -16 320 -6 72 -10 144 -9 160 3 70 -27 530 -36 545 -2 3
-6 80 -9 170 -8 223 -14 314 -27 385 -14 74 -90 235 -120 254 -100 61 -170 84
-258 84 -41 0 -69 26 -78 70 -9 51 -20 64 -57 71 -23 5 -51 0 -87 -14 -47 -17
-55 -18 -68 -5 -19 19 -8 30 16 17 26 -14 53 2 35 20 -6 6 -12 24 -12 40 0 17
-7 31 -21 38 -16 9 -18 14 -9 26 21 25 4 44 -39 44 -31 0 -43 5 -51 21 -39 71
-140 142 -249 175 -48 14 -145 16 -196 4z m195 -70 c14 -8 28 -13 32 -12 4 1
22 -12 40 -29 18 -18 26 -28 18 -23 -8 5 -19 9 -25 11 -5 1 -37 13 -70 26 -82
34 -156 43 -194 24 -26 -13 -32 -13 -42 -1 -9 11 -8 15 2 18 47 16 201 7 239
-14z m-18 -70 c20 -6 39 -17 42 -25 6 -17 -9 -21 -19 -5 -4 6 -10 8 -15 5 -5
-3 -26 2 -47 10 -25 11 -71 17 -131 18 -54 1 -85 5 -75 9 23 10 196 1 245 -12z
m-287 -10 c-27 -12 -35 -12 -35 0 0 6 12 10 28 9 24 0 25 -1 7 -9z m-45 -16
c0 -8 -4 -12 -10 -9 -5 3 -10 10 -10 16 0 5 5 9 10 9 6 0 10 -7 10 -16z m167
-32 c29 8 176 -20 192 -37 28 -27 2 -28 -78 -1 -44 14 -98 26 -121 26 -38 0
-49 8 -33 23 4 4 10 2 14 -4 4 -7 15 -10 26 -7z m291 -14 c19 -19 14 -30 -8
-18 -11 6 -20 15 -20 20 0 14 14 12 28 -2z m-226 -33 c23 -11 25 -13 8 -9 -55
14 -192 13 -225 0 -18 -8 -35 -13 -37 -10 -2 2 -19 -10 -37 -27 -24 -21 -37
-27 -44 -20 -12 12 -14 10 43 47 80 51 205 60 292 19z m388 20 c23 -13 23 -14
4 -15 -11 0 -29 7 -40 15 -26 19 1 20 36 0z m-100 -40 c7 -8 18 -15 25 -15 7
0 18 -7 25 -15 10 -12 10 -15 -1 -15 -20 0 -79 38 -79 50 0 15 16 12 30 -5z
m-294 -60 c92 -44 139 -59 227 -70 45 -6 58 -17 37 -30 -5 -3 -15 -3 -22 1 -7
4 -32 9 -57 11 -39 2 -110 32 -213 89 -15 8 -56 17 -91 21 -50 4 -66 2 -79
-11 -9 -9 -24 -16 -33 -16 -30 0 3 37 42 48 54 13 86 6 189 -43z m436 35 c10
0 18 -4 18 -10 0 -15 -46 -12 -59 3 -13 17 -2 32 13 17 5 -5 18 -10 28 -10z
m-344 -9 c40 -11 79 -24 86 -30 7 -6 16 -8 19 -4 4 3 7 1 7 -6 0 -11 -55 -11
-75 1 -6 3 -26 9 -45 13 -19 4 -41 11 -50 15 -8 4 -26 13 -40 18 l-25 11 25 0
c14 0 58 -8 98 -18z m-362 -53 c-9 -13 -19 -31 -23 -40 -6 -21 -33 -24 -33 -4
0 8 7 16 15 20 8 3 15 15 15 26 0 14 7 20 21 20 20 0 21 -1 5 -22z m240 -34
c68 -37 100 -49 172 -63 28 -6 42 -5 42 2 0 7 4 7 12 -1 18 -18 4 -24 -54 -23
-62 0 -110 18 -180 67 -28 19 -61 34 -74 34 -12 0 -26 5 -29 10 -14 23 50 8
111 -26z m-96 -9 c0 -7 -11 -12 -25 -12 -14 0 -25 5 -25 12 0 7 11 13 25 13
14 0 25 -6 25 -13z m737 -17 c-3 -11 1 -34 9 -50 21 -41 10 -47 -21 -10 -17
21 -38 32 -66 37 -45 8 -42 18 11 33 59 17 73 15 67 -10z m-827 -2 c0 -11 -19
-15 -25 -6 -3 5 1 10 9 10 9 0 16 -2 16 -4z m610 -5 c0 -12 -20 -25 -27 -18
-7 7 6 27 18 27 5 0 9 -4 9 -9z m-449 -39 c-32 -5 -93 7 -87 17 3 5 29 3 58
-3 37 -7 46 -12 29 -14z m534 18 c-3 -5 -11 -10 -16 -10 -6 0 -7 5 -4 10 3 6
11 10 16 10 6 0 7 -4 4 -10z m-138 -18 c1 -10 -11 -25 -28 -34 -16 -10 -29
-24 -29 -33 0 -10 -9 -15 -29 -15 -16 0 -48 -7 -71 -15 -23 -8 -45 -13 -49
-10 -15 9 -135 -35 -182 -67 -24 -16 -28 -16 -39 -3 -11 13 -9 20 11 41 l24
26 -42 -7 c-39 -6 -43 -5 -43 14 0 12 6 21 14 21 8 0 16 4 18 9 4 12 107 20
115 9 6 -11 118 -1 144 12 10 6 31 9 46 8 16 -1 34 1 41 6 11 6 28 11 69 20 7
1 16 6 20 10 4 4 -18 5 -49 1 -39 -5 -58 -4 -58 3 0 6 19 13 43 15 23 2 49 4
57 5 9 1 16 -6 17 -16z m209 -31 c-19 -30 -55 1 -42 36 6 15 9 15 28 -4 11
-12 17 -26 14 -32z m-76 0 c0 -25 -10 -32 -31 -20 -24 12 -25 36 -1 42 23 5
32 -1 32 -22z m-681 -15 c9 -11 6 -12 -14 -8 -14 2 -28 8 -31 13 -9 15 33 10
45 -5z m578 -8 c-3 -8 -6 -5 -6 6 -1 11 2 17 5 13 3 -3 4 -12 1 -19z m113 -38
c0 -5 -4 -10 -10 -10 -5 0 -10 5 -10 10 0 6 5 10 10 10 6 0 10 -4 10 -10z
m304 -23 c15 -10 31 -15 36 -12 12 7 42 -21 59 -53 11 -20 5 -18 -45 15 -53
35 -63 38 -128 38 -58 0 -71 3 -74 17 -2 9 4 18 15 20 33 6 110 -8 137 -25z
m-346 -37 c7 0 10 -4 7 -10 -9 -14 -135 -13 -135 1 0 7 12 9 30 7 17 -3 33 -1
37 5 3 5 15 6 27 3 11 -3 27 -6 34 -6z m-220 -11 c44 -10 76 -31 65 -43 -10
-10 -88 6 -96 20 -17 30 -98 10 -178 -43 -22 -14 -42 -24 -45 -21 -12 13 154
97 191 97 11 0 40 -4 63 -10z m564 -6 c10 -9 18 -25 18 -36 0 -19 -1 -19 -32
2 -18 11 -34 27 -36 36 -5 20 26 20 50 -2z m-465 -28 c0 -8 -4 -15 -9 -15 -10
0 -11 14 -1 23 9 10 10 9 10 -8z m217 -16 c19 -11 38 -29 41 -40 4 -10 10 -19
15 -19 16 0 68 -96 95 -175 18 -53 37 -267 24 -279 -5 -6 -9 -1 -10 15 -2 80
-29 251 -45 282 -9 16 -13 31 -10 34 3 3 -7 26 -21 52 -27 45 -65 86 -110 118
-13 8 -23 19 -23 24 0 13 5 12 44 -12z m424 -79 c29 -62 56 -159 47 -168 -5
-5 -32 58 -39 91 -4 16 -18 46 -31 68 -24 37 -33 79 -17 79 4 0 22 -32 40 -70z
m-758 10 c0 -10 5 -22 10 -25 6 -3 10 -22 10 -41 0 -20 4 -44 10 -54 5 -10 7
-26 4 -34 -12 -31 -20 -15 -22 39 -1 32 -8 65 -17 78 -17 24 -21 72 -5 62 6
-3 10 -15 10 -25z m634 -68 c6 -59 10 -102 29 -352 12 -146 9 -314 -4 -240 -4
19 -7 73 -8 120 -2 94 -37 487 -48 529 -6 23 -4 24 9 13 10 -8 19 -36 22 -70z
m-854 -14 c-9 -21 -14 -96 -15 -211 -2 -98 -5 -181 -9 -184 -15 -16 -21 17
-22 125 -1 140 10 242 32 284 20 39 30 29 14 -14z m207 -55 c-3 -10 -5 -4 -5
12 0 17 2 24 5 18 2 -7 2 -21 0 -30z m0 -115 c-2 -18 -4 -4 -4 32 0 36 2 50 4
33 2 -18 2 -48 0 -65z m822 -22 c-5 -6 -9 10 -8 40 l1 49 8 -40 c5 -22 4 -44
-1 -49z m-42 12 c-3 -8 -6 -5 -6 6 -1 11 2 17 5 13 3 -3 4 -12 1 -19z m-733
-50 c4 -17 2 -28 -4 -28 -5 0 -10 14 -10 32 0 36 4 35 14 -4z m805 -188 c4
-85 5 -158 1 -163 -5 -6 -31 296 -29 348 0 17 2 16 10 -5 6 -14 14 -95 18
-180z m-852 128 c-2 -13 -4 -5 -4 17 -1 22 1 32 4 23 2 -10 2 -28 0 -40z m800
-35 c-3 -10 -5 -4 -5 12 0 17 2 24 5 18 2 -7 2 -21 0 -30z m-800 -25 c-3 -7
-5 -2 -5 12 0 14 2 19 5 13 2 -7 2 -19 0 -25z m43 -90 c-7 -28 -8 -24 -8 27 0
46 2 54 8 33 4 -14 4 -41 0 -60z m-43 35 c-3 -10 -5 -4 -5 12 0 17 2 24 5 18
2 -7 2 -21 0 -30z m810 -30 c-3 -10 -5 -2 -5 17 0 19 2 27 5 18 2 -10 2 -26 0
-35z m-1031 -29 c3 -24 1 -85 -5 -136 -6 -51 -7 -106 -3 -122 4 -16 4 -58 -1
-95 -5 -36 -8 -85 -7 -108 0 -24 -4 -52 -10 -62 -6 -13 -7 -22 0 -26 8 -5 8
-109 0 -323 0 -7 -5 -10 -11 -7 -11 7 -13 808 -2 892 7 55 30 47 39 -13z m221
-26 c-2 -13 -4 -5 -4 17 -1 22 1 32 4 23 2 -10 2 -28 0 -40z m40 -20 c-3 -8
-6 -5 -6 6 -1 11 2 17 5 13 3 -3 4 -12 1 -19z m780 -10 c-3 -8 -6 -5 -6 6 -1
11 2 17 5 13 3 -3 4 -12 1 -19z m-170 -35 c-3 -10 -5 -4 -5 12 0 17 2 24 5 18
2 -7 2 -21 0 -30z m182 -86 c0 -10 -3 -15 -9 -12 -5 3 -9 25 -9 48 1 40 2 40
9 12 4 -16 8 -38 9 -48z m44 -120 c2 -54 1 -94 -3 -90 -4 4 -10 64 -13 133 -4
85 -3 114 4 90 5 -19 10 -79 12 -133z m-226 -24 c-2 -27 -3 -5 -3 47 0 52 1
74 3 48 2 -27 2 -69 0 -95z m180 95 c-3 -8 -6 -5 -6 6 -1 11 2 17 5 13 3 -3 4
-12 1 -19z m0 -80 c-2 -13 -4 -5 -4 17 -1 22 1 32 4 23 2 -10 2 -28 0 -40z
m-147 -44 c0 -8 -5 -12 -10 -9 -6 4 -8 11 -5 16 9 14 15 11 15 -7z m157 -36
c-3 -7 -5 -2 -5 12 0 14 2 19 5 13 2 -7 2 -19 0 -25z m73 2 c0 -5 -2 -10 -4
-10 -3 0 -8 5 -11 10 -3 6 -1 10 4 10 6 0 11 -4 11 -10z m-9 -55 c15 5 19 1
19 -18 0 -20 -5 -25 -25 -23 -22 1 -25 5 -24 41 1 24 3 31 6 17 3 -17 9 -21
24 -17z m-1 -79 c0 -8 -4 -18 -10 -21 -5 -3 -10 3 -10 14 0 12 5 21 10 21 6 0
10 -6 10 -14z m-250 -6 c0 -5 -5 -10 -11 -10 -5 0 -7 5 -4 10 3 6 8 10 11 10
2 0 4 -4 4 -10z m270 -56 c0 -8 -7 -17 -15 -20 -12 -5 -14 -17 -9 -58 3 -28 6
-61 6 -73 0 -13 6 -23 13 -23 23 0 29 -22 10 -36 -19 -14 -29 -81 -14 -99 4
-6 7 -28 6 -50 -3 -45 -27 -61 -28 -18 0 15 -2 73 -5 128 -3 81 -6 265 -4 272
2 9 40 -13 40 -23z m-257 -19 c-3 -9 -8 -14 -10 -11 -3 3 -2 9 2 15 9 16 15
13 8 -4z m-143 -51 c0 -8 -4 -12 -10 -9 -5 3 -10 10 -10 16 0 5 5 9 10 9 6 0
10 -7 10 -16z m150 -50 c0 -32 -4 -44 -15 -44 -10 0 -15 10 -15 29 0 16 -3 38
-6 48 -5 15 -4 15 5 3 9 -13 11 -12 11 3 0 10 5 15 10 12 6 -3 10 -26 10 -51z
m-153 -46 c-2 -13 -4 -5 -4 17 -1 22 1 32 4 23 2 -10 2 -28 0 -40z m150 -131
c1 -88 -1 -117 -11 -117 -9 0 -13 25 -14 86 -1 48 -4 90 -7 94 -3 4 3 11 12
14 12 5 14 9 5 18 -16 16 -15 31 1 26 8 -3 13 -38 14 -121z m-147 76 c-1 -24
-2 -26 -11 -10 -5 9 -7 22 -4 27 10 17 15 11 15 -17z m-493 -45 c-2 -13 -4 -3
-4 22 0 25 2 35 4 23 2 -13 2 -33 0 -45z m6 -110 c-4 -47 -4 -97 -2 -116 5
-32 -3 -82 -11 -77 -11 7 -13 162 -3 222 8 52 21 29 16 -29z m-283 -50 c0
-117 -13 -125 -17 -10 -2 72 3 112 13 112 2 0 4 -46 4 -102z m922 -280 c4
-156 3 -310 -2 -343 l-7 -60 -2 65 c-1 36 -4 115 -6 175 -10 235 -8 445 3 445
5 0 11 -127 14 -282z m258 272 c0 -5 -9 -14 -20 -20 -17 -9 -20 -8 -20 10 0
13 7 20 20 20 11 0 20 -4 20 -10z m-405 -40 c3 -5 1 -10 -4 -10 -6 0 -11 5
-11 10 0 6 2 10 4 10 3 0 8 -4 11 -10z m429 -20 c5 -5 -2 -12 -18 -16 -28 -7
-30 -30 -2 -28 23 2 20 -13 -5 -26 -34 -19 -45 -7 -41 45 4 45 5 46 31 40 14
-3 30 -10 35 -15z m-1207 -268 c3 -439 2 -496 -10 -508 -6 -6 -9 80 -9 286 0
307 3 450 10 450 4 0 8 -102 9 -228z m278 136 c-2 -24 -4 -60 -4 -80 -1 -28
-5 -38 -17 -38 -11 0 -14 5 -9 17 3 10 9 46 12 80 3 35 9 63 14 63 4 0 6 -19
4 -42z m880 -6 c-2 -15 -7 -44 -10 -66 -4 -22 -10 -35 -15 -30 -11 11 11 135
22 128 4 -3 5 -17 3 -32z m65 -12 c0 -5 -4 -10 -10 -10 -5 0 -10 5 -10 10 0 6
5 10 10 10 6 0 10 -4 10 -10z m18 -65 c-11 -11 -37 7 -31 22 5 13 8 13 21 -1
9 -9 13 -18 10 -21z m-8 -58 c0 -17 4 -46 9 -63 13 -47 0 -96 -27 -100 -26 -5
-29 11 -4 25 16 10 16 12 0 25 -22 16 -23 36 -3 36 20 0 19 19 0 27 -14 5 -14
8 1 24 19 21 16 29 -14 32 -11 0 -18 5 -16 9 3 5 9 6 14 3 5 -3 11 -1 15 5 13
20 25 9 25 -23z m-450 13 c0 -5 -5 -10 -11 -10 -5 0 -7 5 -4 10 3 6 8 10 11
10 2 0 4 -4 4 -10z m-513 -17 c13 -224 12 -251 -7 -246 -16 4 -17 8 -7 24 9
15 9 21 0 27 -9 6 -10 22 -4 60 4 29 6 75 3 102 -2 28 0 50 5 50 5 0 9 -8 10
-17z m518 -22 c3 -5 1 -12 -5 -16 -5 -3 -10 1 -10 9 0 18 6 21 15 7z m395 -31
c0 -5 -7 -10 -15 -10 -8 0 -15 5 -15 10 0 6 7 10 15 10 8 0 15 -4 15 -10z
m-20 -51 c0 -6 -4 -7 -10 -4 -5 3 -10 11 -10 16 0 6 5 7 10 4 6 -3 10 -11 10
-16z m79 -93 c15 -18 2 -27 -27 -19 -22 5 -27 14 -15 26 11 11 30 8 42 -7z
m-11 -67 c-18 -12 -48 -11 -48 1 0 17 34 29 48 18 11 -9 11 -13 0 -19z m-74
-10 c-3 -5 -10 -7 -15 -3 -5 3 -7 10 -3 15 3 5 10 7 15 3 5 -3 7 -10 3 -15z
m-877 -11 c-3 -8 -6 -5 -6 6 -1 11 2 17 5 13 3 -3 4 -12 1 -19z m9 -29 c3 -6
1 -14 -5 -18 -8 -6 -9 -15 -2 -33 5 -14 7 -29 4 -32 -3 -3 -6 -94 -6 -203 -1
-109 -3 -178 -5 -153 -2 24 -9 51 -15 59 -9 11 -9 15 1 18 12 5 18 114 7 125
-7 7 -13 207 -7 231 5 19 18 22 28 6z m945 -19 c5 0 9 -12 8 -27 0 -16 -3 -22
-6 -15 -2 6 -11 12 -19 12 -8 0 -14 2 -14 4 0 2 -3 12 -7 22 -5 14 -3 16 11
11 10 -4 22 -7 27 -7z m-51 -29 c0 -12 -20 -25 -27 -18 -7 7 6 27 18 27 5 0 9
-4 9 -9z m-245 -131 c4 -75 2 -135 -4 -150 -10 -26 -13 23 -13 205 1 80 0 80
6 74 3 -3 8 -61 11 -129z m290 64 c23 -9 18 -26 -7 -22 -18 2 -23 10 -25 38
-2 31 -1 32 7 12 5 -12 16 -25 25 -28z m78 6 c-3 -12 -8 -19 -11 -16 -5 6 5
36 12 36 2 0 2 -9 -1 -20z m-43 -80 c0 -5 -13 -10 -30 -10 -16 0 -30 5 -30 10
0 6 14 10 30 10 17 0 30 -4 30 -10z m-1271 -169 c0 -89 -3 -152 -9 -156 -6 -4
-10 39 -10 118 0 110 6 187 15 187 2 0 4 -67 4 -149z m1241 125 c0 -3 -4 -8
-10 -11 -5 -3 -10 -1 -10 4 0 6 5 11 10 11 6 0 10 -2 10 -4z m-2 -38 c8 -8 15
-8 27 2 16 13 20 4 7 -17 -10 -15 -62 -4 -62 13 0 17 12 18 28 2z m-431 -80
c-3 -8 -6 -5 -6 6 -1 11 2 17 5 13 3 -3 4 -12 1 -19z m147 -24 c3 -8 2 -13 -2
-10 -4 2 -9 -25 -10 -62 -4 -95 -12 -90 -12 6 0 76 10 103 24 66z m-147 -26
c-3 -8 -6 -5 -6 6 -1 11 2 17 5 13 3 -3 4 -12 1 -19z m473 2 c0 -13 -7 -16
-30 -12 -39 6 -39 27 0 28 22 1 30 -3 30 -16z m-453 -42 c-2 -13 -4 -5 -4 17
-1 22 1 32 4 23 2 -10 2 -28 0 -40z m-20 -35 c-3 -10 -5 -2 -5 17 0 19 2 27 5
18 2 -10 2 -26 0 -35z m483 -45 c6 -46 15 -87 18 -93 3 -5 6 -23 5 -40 -2 -29
-2 -29 6 -5 5 14 9 20 10 13 1 -6 4 -18 7 -26 4 -11 0 -14 -13 -12 -10 2 -27
4 -38 5 -11 1 -14 4 -7 7 32 13 -9 53 -44 41 -9 -3 -14 4 -14 20 0 4 12 9 27
10 38 3 54 21 26 28 -19 5 -20 9 -10 26 10 16 9 22 -8 34 -19 14 -19 16 -2 25
12 7 16 17 12 30 -4 10 -2 19 3 19 5 0 15 -37 22 -82z m-323 30 c-3 -8 -6 -5
-6 6 -1 11 2 17 5 13 3 -3 4 -12 1 -19z m-676 -13 c1 -22 1 -144 0 -152 -2
-12 -22 25 -26 49 -3 11 -1 26 3 32 12 20 13 49 1 57 -6 4 -8 12 -5 18 10 16
26 14 27 -4z m541 -53 c3 -56 1 -66 -18 -69 -6 -1 -11 22 -12 61 -1 47 2 63
13 63 9 0 14 -17 17 -55z m-838 -40 c-7 -79 -14 -78 -14 2 0 41 4 65 10 61 5
-3 7 -30 4 -63z m955 36 c1 15 21 16 21 1 0 -6 -7 -17 -15 -25 -16 -17 -20
-54 -6 -54 5 0 12 6 14 13 3 6 6 2 6 -10 1 -13 -3 -23 -9 -23 -5 0 -10 -10
-10 -22 0 -19 -2 -20 -10 -8 -5 8 -9 47 -9 85 0 48 3 64 9 50 5 -11 9 -14 9
-7z m-479 -68 c0 -5 -2 -10 -4 -10 -3 0 -8 5 -11 10 -3 6 -1 10 4 10 6 0 11
-4 11 -10z m360 -41 c0 -5 -4 -9 -10 -9 -5 0 -10 7 -10 16 0 8 5 12 10 9 6 -3
10 -10 10 -16z m-543 -64 c-2 -36 -1 -65 3 -65 3 0 6 -47 6 -105 -1 -58 -5
-105 -10 -105 -4 0 -5 -12 -1 -27 11 -38 15 -576 5 -588 -4 -5 -10 -19 -13
-30 -2 -11 -6 129 -7 310 -3 387 -3 402 5 432 3 13 1 23 -5 23 -14 0 -13 133
2 181 6 22 13 39 15 39 3 0 3 -29 0 -65z m-303 -154 c-7 -175 -9 -288 -5 -326
6 -59 -9 -563 -19 -638 -7 -48 -9 -94 -6 -102 10 -26 -5 -105 -20 -105 -11 0
-13 17 -9 88 3 48 8 101 11 117 3 17 8 94 10 173 2 78 6 147 9 152 3 5 1 11
-4 14 -5 4 -8 34 -5 69 2 34 6 132 9 217 2 85 9 233 15 327 5 95 7 180 3 189
-5 12 -3 15 6 9 10 -6 12 -45 5 -184z m844 159 c-1 -16 -5 -30 -11 -30 -6 0
-6 -4 0 -12 13 -17 14 -146 2 -154 -13 -7 -16 180 -4 214 8 21 14 13 13 -18z
m138 -66 c-8 -22 -26 -16 -26 9 0 18 2 19 10 7 8 -13 10 -13 10 2 0 9 -6 18
-12 21 -10 3 -10 10 2 32 l15 28 3 -42 c2 -24 1 -50 -2 -57z m344 70 c0 -10
-12 -14 -47 -13 -47 1 -48 1 -13 9 19 5 36 13 38 19 5 15 22 3 22 -15z m-205
6 c-3 -5 -11 -10 -16 -10 -6 0 -7 5 -4 10 3 6 11 10 16 10 6 0 7 -4 4 -10z
m90 -10 c3 -5 1 -10 -4 -10 -6 0 -11 5 -11 10 0 6 2 10 4 10 3 0 8 -4 11 -10z
m-95 -40 c0 -5 -7 -10 -16 -10 -8 0 -12 5 -9 10 3 6 10 10 16 10 5 0 9 -4 9
-10z m225 -134 c3 -55 8 -125 11 -155 10 -90 11 -111 2 -111 -5 0 -6 -53 -3
-117 l6 -118 -27 -12 c-33 -15 -39 -11 -25 15 20 37 14 53 -14 42 -22 -8 -24
-7 -22 20 1 21 5 26 14 18 8 -7 19 -5 35 6 l22 16 -26 0 c-21 0 -25 4 -21 19
3 13 -1 21 -14 24 -15 3 -13 6 11 16 19 8 26 16 22 27 -3 9 -6 23 -6 31 0 11
-6 14 -22 10 -21 -6 -21 -4 5 19 26 22 26 24 8 24 -28 0 -26 8 6 42 31 32 27
43 -11 29 -34 -13 -36 5 -2 20 30 14 43 59 14 51 -23 -6 -23 7 0 25 13 11 14
16 4 20 -10 4 -10 8 0 21 12 13 8 14 -27 8 -35 -6 -38 -5 -22 7 9 8 17 22 17
31 0 9 7 19 15 22 25 10 17 43 -12 56 l-28 12 25 4 c14 2 29 8 35 13 16 15 25
-26 30 -135z m337 64 c6 -38 1 -43 -49 -56 -33 -9 -45 -8 -53 1 -5 6 -6 15 -2
19 4 4 7 11 7 14 3 38 18 52 55 52 34 0 38 -3 42 -30z m-696 -23 c-3 -17 -1
-36 5 -43 9 -11 8 -14 0 -14 -7 0 -10 -4 -7 -9 3 -5 8 -34 10 -65 3 -50 2 -55
-12 -44 -13 11 -14 4 -10 -70 3 -55 2 -78 -5 -67 -5 9 -8 69 -7 133 2 64 2
141 1 169 -2 45 0 52 14 46 13 -4 15 -13 11 -36z m381 -79 c-3 -8 -6 -5 -6 6
-1 11 2 17 5 13 3 -3 4 -12 1 -19z m-526 -46 c-4 -54 -11 -53 -11 3 0 27 3 45
7 41 4 -4 6 -24 4 -44z m11 -177 c3 -6 0 -19 -8 -30 -13 -17 -14 -11 -13 51 1
58 3 63 8 29 4 -22 10 -45 13 -50z m-1091 -46 c-7 -8 -162 -39 -191 -39 -21 0
-28 -26 -8 -32 31 -11 -108 -29 -165 -22 -34 4 -68 7 -74 5 -7 -1 -13 2 -13 7
0 5 20 9 44 9 27 1 55 9 73 21 15 11 57 25 93 32 100 18 203 42 220 51 16 8
34 -20 21 -32z m2250 11 c16 0 29 -5 29 -11 0 -5 -3 -8 -7 -6 -11 7 -45 -7
-44 -18 1 -5 31 -9 68 -10 48 0 75 -5 93 -18 39 -27 93 -20 69 10 -8 9 -8 13
-1 13 6 0 16 -9 22 -20 29 -55 -48 -87 -277 -116 -126 -15 -303 -10 -315 9 -4
6 -16 12 -27 12 -12 0 -21 5 -20 10 0 6 6 9 14 7 22 -4 29 19 7 25 -19 4 -19
6 -4 22 10 9 29 18 44 19 14 1 39 9 55 17 25 13 26 15 6 15 -12 0 -25 5 -28
11 -5 7 22 9 87 7 84 -3 96 -1 121 19 23 18 33 20 53 12 14 -5 39 -9 55 -9z
m-1025 -35 c1 -14 -2 -25 -7 -25 -5 0 -9 14 -9 32 0 36 12 31 16 -7z m654 -11
c-56 -17 -62 -17 -30 1 14 8 36 14 50 14 18 0 12 -4 -20 -15z m-60 -13 c0 -5
-7 -14 -15 -21 -12 -10 -15 -10 -15 2 0 8 3 18 7 21 9 10 23 9 23 -2z m-1815
-37 c4 -49 4 -136 2 -444 l-2 -295 -147 -2 -146 -2 5 57 c3 31 9 73 14 92 5
19 9 54 9 77 l0 43 -97 -5 c-125 -6 -128 -6 -187 -33 -97 -44 -154 -55 -251
-49 -76 5 -93 9 -107 28 -10 11 -18 29 -18 38 0 9 -11 29 -24 45 -21 27 -29
30 -76 29 l-53 0 -87 87 c-48 48 -94 90 -101 92 -26 9 10 37 70 55 31 10 61
18 68 18 7 0 18 6 25 13 6 6 20 12 29 12 9 0 22 7 29 15 15 18 84 38 128 37
19 -1 70 8 115 19 127 32 174 37 287 32 130 -5 210 -5 370 -1 125 3 127 4 122
38 -1 6 -17 11 -34 11 -28 2 -29 2 -8 6 14 3 29 9 35 14 16 15 28 5 30 -27z
m1085 1 c0 -14 -4 -25 -8 -25 -4 0 -9 11 -10 25 -1 14 3 25 8 25 6 0 10 -11
10 -25z m154 -133 c1 -78 -1 -142 -5 -142 -4 0 -7 30 -8 67 0 36 -5 89 -10
117 -13 69 -10 116 7 107 10 -5 14 -45 16 -149z m36 87 c-14 -26 -18 -24 -12
6 2 14 8 22 13 19 5 -3 5 -14 -1 -25z m1198 -38 c-41 -79 -42 -81 -69 -81 -14
0 -44 -6 -65 -14 -22 -7 -64 -17 -94 -22 -30 -4 -58 -9 -62 -10 -5 -1 -26 -2
-49 -3 -27 -1 -39 -5 -37 -13 7 -19 157 -7 246 18 60 18 70 14 54 -20 -8 -19
-23 -26 -74 -35 -56 -11 -118 -19 -155 -20 -7 -1 -13 -8 -13 -16 0 -18 19 -18
123 -1 76 12 89 9 69 -20 -6 -10 -65 -23 -136 -30 -16 -1 -33 -7 -39 -13 -17
-17 15 -23 79 -12 32 5 60 8 62 6 1 -1 0 -10 -4 -19 -6 -15 -18 -18 -114 -20
-24 -1 -35 -6 -35 -16 0 -11 13 -15 53 -15 28 0 52 -2 52 -5 0 -10 -25 -75
-34 -88 -6 -10 -11 -11 -19 -3 -8 8 -8 14 1 23 24 24 13 38 -28 38 -25 0 -47
-7 -58 -18 -18 -18 -20 -18 -45 3 -25 19 -39 43 -18 30 5 -3 12 -1 16 4 3 6
-21 15 -55 22 -47 9 -60 15 -60 30 0 10 -9 23 -20 29 -17 9 -135 196 -153 242
-9 25 24 41 57 28 52 -19 285 -30 394 -17 28 4 52 3 52 -2 0 -9 -72 -21 -124
-21 -29 0 -56 -15 -56 -30 0 -10 200 18 245 34 22 8 41 21 43 30 2 9 10 16 18
16 8 0 17 6 20 14 3 8 12 12 20 9 8 -3 13 -8 12 -12z m-1208 -1 c0 -5 -5 -10
-11 -10 -5 0 -7 5 -4 10 3 6 8 10 11 10 2 0 4 -4 4 -10z m253 -17 c-7 -2 -19
-2 -25 0 -7 3 -2 5 12 5 14 0 19 -2 13 -5z m-2937 -29 c14 -4 24 -17 28 -36 7
-36 190 -217 219 -218 11 0 17 -5 14 -12 -2 -7 5 -23 16 -35 l20 -22 -36 -40
c-52 -58 -79 -125 -78 -193 1 -48 -2 -58 -15 -58 -15 0 -16 8 -10 62 3 34 11
67 16 72 16 16 11 36 -9 36 -10 0 -23 -6 -29 -12 -12 -16 -26 -89 -26 -142 -1
-44 -20 -59 -32 -24 -12 39 -6 129 11 148 28 31 12 60 -24 41 -30 -17 -44 -75
-38 -158 l6 -74 -27 3 c-34 4 -41 34 -30 128 6 51 6 76 -2 78 -5 2 -10 8 -10
14 0 7 5 6 14 -1 17 -15 23 -6 32 47 7 45 -3 54 -28 25 -26 -32 -60 -165 -57
-221 3 -32 0 -51 -6 -49 -15 5 -18 144 -5 197 6 25 19 60 27 78 18 37 9 54
-23 46 -17 -5 -25 -22 -42 -99 -26 -111 -28 -194 -6 -236 8 -17 14 -32 12 -33
-11 -6 -80 -36 -83 -36 -3 0 -5 8 -5 17 0 9 -10 27 -22 40 -46 49 -50 133 -13
298 11 52 57 159 81 192 13 17 24 36 24 42 0 13 -20 14 -36 3 -38 -25 -108
-190 -120 -282 -4 -28 -11 -53 -16 -56 -25 -16 23 175 71 281 31 68 103 144
165 175 46 22 43 22 72 14z m3004 -69 c-15 -18 -41 -24 -65 -14 -17 6 -17 8
-2 8 9 1 17 6 17 12 0 6 7 9 15 5 17 -6 21 9 5 19 -6 4 -5 11 3 19 6 8 15 12
20 9 4 -2 8 2 9 9 0 7 3 -2 5 -20 3 -18 -1 -39 -7 -47z m3 -62 c-4 -26 -3 -26
8 -8 12 19 12 19 20 0 4 -11 8 -47 9 -80 1 -33 6 -82 11 -110 6 -27 12 -90 14
-139 2 -49 6 -95 9 -102 10 -25 -18 -79 -41 -81 -31 -4 -29 5 3 17 22 9 24 13
14 25 -7 8 -19 15 -26 15 -8 0 -14 5 -14 10 0 6 9 10 19 10 38 0 32 20 -6 21
-27 1 -31 3 -13 6 31 6 51 23 27 23 -14 0 -16 6 -11 25 6 24 4 25 -19 20 -14
-4 -28 -2 -32 4 -3 7 -3 11 2 10 12 -3 43 12 43 20 0 4 -16 5 -35 3 -38 -5
-43 1 -20 24 8 9 15 13 15 9 0 -3 9 -1 19 5 13 6 17 17 14 30 -3 11 1 27 8 36
11 14 10 15 -7 12 -14 -2 -18 2 -16 16 3 14 -1 17 -13 12 -10 -3 -14 -2 -10 5
4 6 18 14 31 19 13 5 24 15 24 21 0 8 -4 8 -15 -1 -21 -17 -26 -10 -28 39 -1
22 -2 41 -3 41 -2 0 -15 -5 -29 -10 -20 -8 -26 -7 -23 2 3 7 14 14 26 16 12 2
22 10 22 19 0 11 -7 14 -25 11 -35 -7 -31 6 8 23 40 19 45 16 40 -18z m-1513
17 c0 -5 -5 -10 -11 -10 -5 0 -7 5 -4 10 3 6 8 10 11 10 2 0 4 -4 4 -10z
m1230 -30 c0 -5 -4 -10 -10 -10 -5 0 -10 5 -10 10 0 6 5 10 10 10 6 0 10 -4
10 -10z m-219 -57 c2 -23 0 -45 -4 -49 -4 -4 -7 17 -7 46 0 62 7 64 11 3z
m159 -30 c0 -35 -4 -53 -9 -47 -9 8 -3 104 5 104 2 0 4 -26 4 -57z m-1160 28
c0 -12 -20 -25 -27 -18 -7 7 6 27 18 27 5 0 9 -4 9 -9z m451 -104 c1 -26 5
-47 9 -47 11 0 10 -432 -1 -452 -5 -10 -6 -18 -1 -18 5 0 7 -25 4 -55 -3 -36
-1 -55 6 -55 7 0 9 -7 5 -17 -17 -44 -25 56 -28 365 -1 183 -1 331 1 329 2 -2
4 -24 5 -50z m546 -39 c-7 -99 -13 -137 -22 -146 -4 -4 -4 18 -1 48 4 30 9 83
12 118 8 92 17 75 11 -20z m-987 57 c0 -8 -7 -15 -15 -15 -16 0 -20 12 -8 23
11 12 23 8 23 -8z m810 -15 c0 -5 -4 -10 -10 -10 -5 0 -10 5 -10 10 0 6 5 10
10 10 6 0 10 -4 10 -10z m350 -135 c8 -10 11 -47 25 -290 4 -55 9 -102 13
-105 4 -3 7 -43 8 -90 1 -51 -2 -77 -7 -65 -4 11 -8 37 -8 58 -1 20 -6 37 -11
37 -6 0 -8 11 -4 25 3 14 2 31 -4 38 -6 7 -10 78 -11 164 -1 90 -7 177 -15
215 -13 57 -14 80 -5 128 2 8 4 -12 6 -45 2 -32 8 -64 13 -70z m64 104 c-9
-15 -34 -10 -28 5 3 8 12 12 20 9 8 -3 11 -9 8 -14z m-2317 -11 c6 -7 13 -33
16 -58 5 -44 5 -44 -12 -24 -26 32 -60 47 -93 40 -26 -5 -29 -4 -18 9 7 8 23
15 35 15 13 0 25 7 29 15 7 18 30 20 43 3z m1091 -10 c16 -16 15 -25 -1 -31
-21 -8 -39 7 -31 26 7 20 16 21 32 5z m1477 2 c3 -5 1 -10 -4 -10 -6 0 -11 5
-11 10 0 6 2 10 4 10 3 0 8 -4 11 -10z m-1912 -44 c16 -12 17 -24 12 -92 -6
-70 -22 -175 -28 -179 -23 -17 -46 -20 -105 -10 -79 13 -84 22 -57 119 10 34
20 83 24 111 5 41 10 50 31 56 42 12 104 9 123 -5z m1667 4 c0 -5 -4 -10 -10
-10 -5 0 -10 5 -10 10 0 6 5 10 10 10 6 0 10 -4 10 -10z m710 -10 c0 -5 -2
-10 -4 -10 -3 0 -8 5 -11 10 -3 6 -1 10 4 10 6 0 11 -4 11 -10z m45 -57 c7
-36 -8 -51 -30 -29 -18 18 -19 48 -3 64 15 15 24 6 33 -35z m75 2 c0 -37 -13
-47 -24 -19 -8 20 2 54 15 54 5 0 9 -16 9 -35z m76 10 c7 -29 -2 -59 -16 -50
-11 7 -10 75 1 75 5 0 11 -11 15 -25z m-3273 -5 c14 -11 32 -20 41 -20 15 0
22 -30 10 -43 -3 -3 -25 8 -47 24 -29 21 -51 29 -72 27 -47 -5 -36 -30 28 -60
31 -15 57 -34 57 -42 0 -8 10 -22 22 -30 22 -15 22 -16 -15 -31 -38 -16 -75
-19 -101 -9 -28 11 -17 20 18 16 24 -3 35 1 39 12 7 19 -57 56 -98 56 -30 0
-31 9 -8 73 17 46 18 47 59 47 26 0 51 -7 67 -20z m475 -52 c-6 -35 -14 -67
-19 -72 -6 -6 -9 -6 -9 2 0 7 -8 12 -19 12 -22 0 -31 -26 -31 -89 0 -34 3 -42
15 -37 24 9 17 -10 -10 -28 -13 -9 -27 -16 -30 -16 -3 0 -5 45 -5 101 0 97 -1
100 -21 97 -21 -3 -22 -9 -23 -110 -1 -110 -11 -144 -34 -108 -10 17 -10 20 3
20 12 0 15 18 15 103 0 57 -3 106 -6 109 -3 3 -14 3 -25 1 -18 -5 -20 -12 -17
-64 3 -62 2 -64 -21 -50 -10 7 -12 22 -8 60 9 73 3 82 -45 74 -32 -5 -40 -3
-36 8 4 11 22 13 79 11 53 -3 97 2 154 18 44 12 82 23 84 25 13 14 17 -12 9
-67z m672 38 c0 -19 -14 -28 -34 -20 -13 5 -14 9 -5 20 15 18 39 18 39 0z
m987 -68 c-2 -18 -4 -6 -4 27 0 33 2 48 4 33 2 -15 2 -42 0 -60z m238 62 c3
-5 -1 -10 -9 -10 -8 0 -18 5 -21 10 -3 6 1 10 9 10 8 0 18 -4 21 -10z m25 -65
c10 -12 10 -15 -3 -15 -23 0 -47 11 -47 21 0 15 37 10 50 -6z m1120 6 c3 -1
-5 -6 -17 -11 -37 -15 -27 -27 28 -33 66 -8 136 -35 144 -55 8 -22 -2 -27 -35
-15 -22 8 -33 8 -48 -3 -29 -20 -372 -27 -372 -8 0 10 15 14 50 14 54 0 65 14
34 44 -8 9 -12 20 -9 26 9 14 58 13 73 -2 18 -18 40 6 23 26 -9 11 -9 15 0 18
12 4 119 3 129 -1z m-3404 -28 c-10 -10 -19 5 -10 18 6 11 8 11 12 0 2 -7 1
-15 -2 -18z m74 -4 c0 -10 -4 -19 -10 -19 -5 0 -10 12 -10 26 0 14 4 23 10 19
6 -3 10 -15 10 -26z m3498 -2 c19 -15 9 -18 -24 -8 -16 5 -47 12 -68 16 -25 4
-35 9 -27 14 15 9 100 -6 119 -22z m-2532 12 c9 -16 -12 -33 -31 -25 -14 5
-15 9 -5 21 15 18 26 19 36 4z m1458 -17 c-7 -4 -14 -18 -17 -32 -4 -21 -4
-20 -6 8 -1 24 3 32 17 32 11 0 13 -3 6 -8z m543 -15 c-16 -5 -31 -6 -35 -2
-11 10 19 23 41 17 20 -5 19 -6 -6 -15z m-2706 -59 l-9 -33 -1 36 c-1 20 2 39
6 43 13 12 15 -10 4 -46z m1688 0 c-1 -38 -3 -46 -8 -28 -7 24 -3 80 5 80 2 0
4 -24 3 -52z m28 30 c-3 -8 -6 -5 -6 6 -1 11 2 17 5 13 3 -3 4 -12 1 -19z
m1563 -3 c0 -14 -2 -25 -4 -25 -2 0 -11 -3 -20 -6 -13 -5 -14 -2 -5 25 13 37
29 41 29 6z m-1330 6 c0 -5 -13 -11 -29 -13 -18 -3 -27 0 -25 7 5 13 54 19 54
6z m-293 -33 c-3 -8 -6 -5 -6 6 -1 11 2 17 5 13 3 -3 4 -12 1 -19z m-967 -14
c0 -16 -26 -19 -35 -4 -3 6 -4 14 0 20 8 13 35 1 35 -16z m-1805 -12 c-8 -8
-25 10 -19 20 4 6 9 5 15 -3 4 -7 6 -15 4 -17z m508 21 c-7 -2 -21 -2 -30 0
-10 3 -4 5 12 5 17 0 24 -2 18 -5z m1384 -25 c-3 -7 -5 -2 -5 12 0 14 2 19 5
13 2 -7 2 -19 0 -25z m-1902 -43 c50 -32 116 -75 148 -96 32 -22 64 -39 71
-39 7 0 34 -9 60 -20 46 -21 46 -21 46 -70 0 -31 4 -50 12 -50 6 0 4 -7 -6
-18 -9 -11 -15 -29 -14 -41 2 -18 -5 -25 -36 -36 -22 -8 -43 -12 -47 -9 -16
10 3 32 27 32 33 0 36 4 24 36 -5 15 -10 38 -10 52 0 13 -6 24 -13 24 -18 0
-37 -21 -37 -41 0 -10 -9 -20 -20 -24 -17 -5 -19 -12 -14 -50 6 -37 4 -45 -16
-55 -12 -6 -24 -9 -27 -7 -2 3 1 41 8 86 7 44 10 84 6 87 -3 3 -14 3 -25 0
-16 -5 -21 -22 -30 -98 -7 -55 -17 -98 -26 -107 -23 -22 -29 -8 -17 36 12 44
15 189 3 197 -4 2 -15 -1 -24 -8 -12 -9 -17 -35 -21 -101 -4 -50 -11 -106 -17
-125 -13 -46 -13 -48 9 -59 14 -8 30 -4 67 15 56 29 216 84 245 84 10 0 19 -4
19 -9 0 -4 26 -17 58 -28 70 -24 125 -14 130 24 2 13 13 24 30 29 15 4 34 9
42 12 27 9 114 6 175 -6 33 -7 72 -13 86 -15 14 -1 33 -8 42 -15 10 -8 35 -13
64 -11 27 1 54 -1 61 -5 7 -4 16 -4 22 -1 12 7 70 -34 70 -50 0 -17 -147 -85
-264 -121 -109 -33 -130 -35 -120 -10 6 15 -14 33 -36 34 -8 0 -32 3 -54 6
-23 3 -52 0 -72 -9 -30 -12 -34 -18 -28 -40 6 -24 5 -25 -38 -20 -25 2 -80 13
-124 24 -43 11 -92 23 -109 26 -16 2 -55 14 -85 25 -30 11 -83 23 -117 26 -35
4 -68 13 -74 20 -6 8 -18 14 -25 14 -14 0 -13 19 9 115 14 62 13 203 -1 217
-8 8 -16 7 -27 -2 -13 -11 -15 -25 -11 -62 4 -29 0 -75 -8 -111 -8 -34 -17
-88 -21 -119 -5 -37 -12 -58 -20 -58 -23 0 -25 44 -6 122 16 68 20 192 6 206
-2 3 -11 -1 -20 -8 -13 -10 -15 -9 -15 10 0 15 5 20 14 17 19 -7 36 12 36 41
0 20 -4 23 -23 18 -22 -5 -23 -3 -22 50 0 35 5 58 14 63 10 7 11 13 2 29 -32
60 -5 54 114 -23z m3385 51 c0 -2 -7 -6 -15 -10 -8 -3 -15 -1 -15 4 0 6 7 10
15 10 8 0 15 -2 15 -4z m-297 -20 c7 -17 -16 -28 -39 -19 -15 6 -15 8 2 20 23
17 31 16 37 -1z m119 -6 c10 0 18 -4 18 -10 0 -15 -16 -12 -37 8 -10 9 -14 14
-9 10 6 -5 18 -8 28 -8z m-2385 -6 c29 -4 103 -71 103 -92 0 -9 -87 -42 -110
-42 -10 0 -7 5 8 16 24 17 29 46 10 61 -23 18 -94 23 -310 22 -117 -1 -228 -1
-247 -1 -24 1 -35 -4 -38 -18 -5 -19 -50 -33 -71 -21 -11 6 -11 9 0 18 25 20
124 46 178 48 30 0 62 4 70 8 29 13 326 14 407 1z m2549 -10 c-9 -9 -19 -14
-22 -11 -3 2 3 12 12 21 9 9 19 15 21 12 3 -3 -2 -13 -11 -22z m341 4 c-8 -29
17 -74 45 -81 32 -9 33 -3 9 43 -28 54 -27 64 7 55 44 -11 110 -16 232 -18 97
-2 115 -5 118 -18 3 -17 71 -32 109 -24 11 2 42 5 69 6 38 3 49 0 49 -11 0
-12 -17 -15 -87 -15 -48 0 -88 -3 -88 -7 0 -5 0 -11 0 -15 0 -5 16 -9 35 -9
19 -1 53 -2 76 -3 22 0 38 -5 35 -10 -3 -5 -31 -7 -62 -4 -45 4 -55 2 -52 -8
3 -8 19 -15 37 -16 38 -2 56 -15 48 -36 -4 -11 -21 -13 -81 -9 -66 4 -76 2
-76 -12 0 -11 7 -16 23 -15 58 5 88 -1 85 -17 -2 -12 -18 -17 -66 -19 -35 -2
-66 -5 -69 -8 -14 -14 11 -25 47 -20 21 3 46 3 55 -1 14 -5 14 -8 0 -35 -14
-28 -17 -29 -45 -19 -34 11 -64 4 -58 -14 2 -6 17 -13 33 -15 36 -5 37 -6 29
-27 -4 -11 -18 -16 -43 -16 -41 0 -55 -7 -64 -33 -4 -11 -16 -21 -27 -24 -21
-5 -21 -13 -5 -116 6 -34 -14 -33 -31 2 -7 13 -17 28 -23 34 -19 19 -13 68 9
74 12 3 18 11 15 17 -3 6 -8 19 -11 29 -4 11 -17 17 -35 17 -24 0 -29 4 -29
25 0 13 -28 79 -62 146 -85 166 -117 177 -138 46 -6 -40 -19 -99 -29 -132 -10
-33 -26 -87 -36 -120 -10 -33 -26 -77 -37 -97 l-18 -38 -53 21 c-85 33 -86 36
-36 126 77 141 102 197 107 246 2 26 8 47 12 47 5 0 14 17 21 38 23 73 72 151
56 90z m-2507 -2 c23 -3 46 -8 52 -14 15 -15 -233 -152 -287 -158 -11 -1 -56
-11 -100 -22 -79 -20 -285 -45 -294 -36 -11 10 17 24 59 29 103 12 244 52 337
95 78 37 173 98 173 111 0 6 4 8 9 4 5 -3 28 -7 51 -9z m610 -11 c0 -16 -35
-21 -44 -6 -8 12 4 21 26 21 10 0 18 -7 18 -15z m90 -20 c0 -19 -5 -35 -10
-35 -6 0 -10 16 -8 35 1 19 6 35 10 35 4 0 8 -16 8 -35z m497 13 c13 -12 23
-28 23 -35 0 -21 -62 -12 -81 12 -36 42 15 63 58 23z m848 12 c3 -5 1 -10 -4
-10 -6 0 -11 5 -11 10 0 6 2 10 4 10 3 0 8 -4 11 -10z m30 -32 c-7 -34 -16
-35 -13 -1 1 18 5 30 9 27 4 -2 6 -14 4 -26z m-138 3 c0 -11 -5 -17 -9 -15
-11 7 -10 34 1 34 6 0 9 -9 8 -19z m-328 -43 c-1 -29 -4 -44 -6 -33 -3 11 -10
23 -17 27 -8 6 -7 8 2 8 6 0 12 11 12 25 0 14 2 25 5 25 3 0 4 -24 4 -52z
m291 42 c0 -5 -7 -10 -16 -10 -8 0 -12 5 -9 10 3 6 10 10 16 10 5 0 9 -4 9
-10z m242 -30 c-24 -22 -46 -40 -48 -40 -2 0 -4 11 -4 24 0 19 4 24 20 21 11
-2 20 1 20 6 0 8 33 27 50 28 3 0 -15 -17 -38 -39z m-294 10 c-7 -10 -14 -18
-15 -16 -6 6 9 36 18 36 5 0 4 -9 -3 -20z m172 2 c0 -4 -10 -9 -22 -9 -18 -2
-20 0 -8 7 18 12 30 13 30 2z m-1921 -94 c7 -51 14 -95 15 -98 0 -3 -9 -6 -21
-8 -13 -2 -23 2 -23 8 0 6 -4 8 -10 5 -5 -3 -10 -2 -10 4 0 5 4 12 8 15 5 3 8
15 7 28 -1 16 -9 24 -24 26 -22 3 -23 1 -16 -36 7 -44 -9 -67 -19 -27 -5 18
-13 25 -31 25 -16 0 -25 -6 -25 -16 0 -8 -4 -12 -10 -9 -5 3 -10 15 -10 26 0
12 -7 19 -20 19 -15 0 -20 -7 -20 -25 0 -29 -15 -33 -28 -8 -6 10 -16 14 -27
9 -14 -5 -16 -14 -11 -47 6 -35 4 -40 -11 -37 -12 2 -20 15 -23 36 -3 18 -8
33 -12 32 -5 0 -15 0 -23 0 -18 0 -20 -30 -2 -31 8 0 8 -2 1 -5 -7 -3 -10 -14
-7 -24 3 -11 0 -20 -6 -20 -6 0 -11 13 -11 29 0 17 -5 33 -10 36 -17 10 -40
-15 -40 -42 0 -33 -17 -20 -22 17 -5 35 0 40 51 51 85 17 307 115 333 146 6 7
18 13 27 13 14 0 20 -18 30 -92z m-539 71 c0 -5 -14 -9 -30 -9 -33 0 -50 -24
-31 -43 18 -18 13 -27 -16 -27 -16 0 -45 -5 -66 -11 -35 -9 -41 -8 -60 13 -46
50 -183 62 -194 17 -6 -23 -4 -23 -47 -2 -43 20 -38 34 8 26 27 -4 39 -1 58
19 22 23 27 24 201 25 105 1 177 -2 177 -8z m1060 -5 c0 -11 -8 -14 -27 -12
-39 4 -42 28 -4 28 21 0 31 -5 31 -16z m1439 -58 c-9 -8 -10 -7 -5 7 3 10 7
28 7 40 2 16 3 14 6 -7 3 -16 -1 -34 -8 -40z m-39 44 c0 -5 -4 -10 -10 -10 -5
0 -10 5 -10 10 0 6 5 10 10 10 6 0 10 -4 10 -10z m-150 -15 c0 -9 -6 -12 -15
-9 -8 4 -12 10 -9 15 8 14 24 10 24 -6z m-1090 -25 c-20 -13 -40 -13 -40 0 0
6 12 10 28 10 21 0 24 -2 12 -10z m1135 -10 c3 -5 -1 -10 -10 -10 -9 0 -13 5
-10 10 3 6 8 10 10 10 2 0 7 -4 10 -10z m-2660 -40 c-3 -5 -15 -10 -26 -10
-11 0 -17 5 -14 10 3 6 15 10 26 10 11 0 17 -4 14 -10z m2352 -67 c-2 -16 -4
-5 -4 22 0 28 2 40 4 28 2 -13 2 -35 0 -50z m247 48 c3 -5 -1 -11 -9 -15 -9
-3 -15 0 -15 9 0 16 16 20 24 6z m736 0 c0 -5 -7 -11 -15 -15 -9 -3 -15 0 -15
9 0 8 7 15 15 15 8 0 15 -4 15 -9z m-1807 -15 c4 -10 1 -13 -9 -9 -7 3 -14 9
-14 14 0 14 17 10 23 -5z m1107 10 c0 -3 -4 -8 -10 -11 -5 -3 -10 -1 -10 4 0
6 5 11 10 11 6 0 10 -2 10 -4z m-3210 -36 c0 -5 -7 -10 -15 -10 -8 0 -15 5
-15 10 0 6 7 10 15 10 8 0 15 -4 15 -10z m640 0 c0 -5 -4 -10 -10 -10 -5 0
-10 5 -10 10 0 6 5 10 10 10 6 0 10 -4 10 -10z m307 -1 c-15 -9 -17 -18 -12
-50 4 -25 3 -39 -4 -39 -6 0 -11 9 -11 19 0 32 -11 51 -30 51 -25 0 -33 -15
-20 -39 11 -21 -5 -41 -20 -25 -15 18 -21 64 -8 68 38 11 95 24 108 24 11 1
10 -2 -3 -9z m265 -41 c-15 -15 -26 -4 -18 18 5 13 9 15 18 6 9 -9 9 -15 0
-24z m2033 22 c-7 -12 -55 -14 -55 -2 0 4 14 8 30 9 18 1 28 -2 25 -7z m-2461
-22 c6 -25 -7 -44 -23 -34 -12 8 -15 39 -4 49 12 12 21 7 27 -15z m496 7 c0
-8 -4 -15 -10 -15 -5 0 -10 7 -10 15 0 8 5 15 10 15 6 0 10 -7 10 -15z m78 -3
c3 -9 -2 -13 -14 -10 -9 1 -19 9 -22 16 -3 9 2 13 14 10 9 -1 19 -9 22 -16z
m-653 -20 c-8 -8 -25 10 -19 20 4 6 9 5 15 -3 4 -7 6 -15 4 -17z m733 11 c-2
-10 -10 -18 -18 -18 -8 0 -16 8 -18 18 -2 12 3 17 18 17 15 0 20 -5 18 -17z
m1498 -20 c-10 -10 -19 5 -10 18 6 11 8 11 12 0 2 -7 1 -15 -2 -18z m1024 0
c0 -12 -7 -14 -31 -9 -17 3 -42 6 -56 6 -47 0 -14 15 36 17 40 1 51 -2 51 -14z
m-2670 -11 c0 -13 -12 -22 -22 -16 -10 6 -1 24 13 24 5 0 9 -4 9 -8z m1952
-14 c-6 -6 -16 -7 -22 -3 -9 6 -9 9 1 16 17 10 34 0 21 -13z m-2172 2 c0 -5
-12 -10 -27 -9 -25 0 -26 1 -8 9 27 12 35 12 35 0z m-450 -9 c0 -6 -10 -22
-23 -36 -15 -18 -28 -24 -40 -19 -23 9 -16 28 12 32 12 2 25 10 28 18 6 16 23
19 23 5z m550 -1 c0 -5 -9 -10 -20 -10 -11 0 -20 5 -20 10 0 6 9 10 20 10 11
0 20 -4 20 -10z m2814 -6 c13 -35 7 -39 -74 -41 -44 -2 -80 1 -80 6 0 30 12
36 61 32 29 -2 56 2 62 8 15 15 24 14 31 -5z m-964 -19 c0 -8 -9 -19 -20 -25
-14 -7 -20 -7 -20 0 0 5 7 10 15 10 8 0 15 7 15 15 0 8 2 15 5 15 3 0 5 -7 5
-15z m-1586 -12 c3 -10 19 -36 36 -58 36 -50 37 -56 2 -78 -15 -9 -48 -33 -74
-51 -26 -19 -89 -48 -140 -65 -119 -39 -338 -92 -349 -85 -5 3 -9 14 -9 24 0
13 14 23 48 35 193 68 311 125 352 171 16 19 33 34 37 34 4 1 24 21 43 45 39
50 45 53 54 28z m1810 11 c13 -5 14 -9 5 -20 -10 -13 -39 -20 -39 -10 0 8 12
36 15 36 2 0 11 -3 19 -6z m150 -10 c3 -9 6 -17 6 -20 0 -4 -96 -54 -105 -54
-17 0 -1 22 22 31 35 13 64 39 57 50 -3 5 -1 9 4 9 6 0 13 -7 16 -16z m-2159
-4 c3 -5 -3 -10 -14 -10 -12 0 -21 5 -21 10 0 6 6 10 14 10 8 0 18 -4 21 -10z
m1555 0 c0 -5 -2 -10 -4 -10 -3 0 -8 5 -11 10 -3 6 -1 10 4 10 6 0 11 -4 11
-10z m288 -19 c3 -9 -2 -9 -22 0 -14 7 -26 16 -26 20 0 12 43 -6 48 -20z
m-663 9 c3 -5 1 -10 -4 -10 -6 0 -11 5 -11 10 0 6 2 10 4 10 3 0 8 -4 11 -10z
m308 3 c-7 -2 -19 -2 -25 0 -7 3 -2 5 12 5 14 0 19 -2 13 -5z m-2772 -30 c-8
-15 -10 -15 -11 -2 0 17 10 32 18 25 2 -3 -1 -13 -7 -23z m2711 15 c-16 -16
-118 -22 -167 -9 -37 9 -35 10 30 7 39 -1 84 1 100 5 46 10 50 10 37 -3z m588
-28 c0 -5 -9 -6 -20 -3 -11 3 -20 9 -20 13 0 5 9 6 20 3 11 -3 20 -9 20 -13z
m645 5 c22 0 46 4 53 9 20 12 26 -1 13 -30 -9 -21 -16 -25 -39 -19 -16 3 -47
2 -70 -4 -48 -10 -57 -3 -41 33 9 18 16 23 28 18 9 -5 34 -8 56 -7z m-1007
-42 c2 -13 -2 -23 -8 -23 -6 0 -9 4 -6 9 9 14 -51 18 -83 5 -31 -13 -150 -22
-166 -13 -5 4 -31 10 -57 13 -26 4 -51 12 -54 18 -5 8 5 8 32 2 21 -5 76 -8
122 -7 58 1 82 -2 82 -10 0 -9 2 -9 8 -1 8 13 78 33 107 31 12 -1 21 -10 23
-24z m95 7 c-3 -12 -8 -19 -11 -16 -5 6 5 36 12 36 2 0 2 -9 -1 -20z m1057 11
c0 -6 -4 -13 -10 -16 -5 -3 -10 -19 -10 -35 0 -16 5 -32 10 -35 15 -9 12 -35
-5 -35 -20 0 -30 64 -15 100 12 28 30 41 30 21z m177 -67 c3 -21 12 -46 19
-55 18 -20 8 -29 -33 -29 -32 0 -46 14 -22 22 7 2 11 27 10 63 -1 66 16 66 26
-1z m-352 -5 c0 -19 -48 -29 -69 -13 -10 7 -15 17 -12 22 8 14 81 6 81 -9z
m73 4 c-2 -11 -14 -19 -31 -21 -29 -4 -30 -2 -21 22 9 23 56 21 52 -1z m-965
-97 c-1 -56 -3 -107 -3 -114 0 -7 -4 -11 -9 -7 -6 3 -10 13 -10 23 1 9 -1 47
-4 85 -3 37 -1 67 4 67 5 0 9 10 8 23 0 21 -1 21 -9 2 -6 -15 -9 -16 -9 -4 -1
19 5 26 22 26 9 0 11 -26 10 -101z m-110 54 c3 -11 1 -23 -5 -26 -13 -9 -42
21 -34 35 11 18 33 13 39 -9z m-53 -25 c0 -8 -5 -15 -11 -15 -5 0 -7 -5 -3
-12 5 -7 2 -8 -7 -3 -34 20 -39 27 -28 46 8 15 14 17 29 9 11 -6 20 -17 20
-25z m-1351 -71 c-6 -43 -12 -81 -14 -83 -2 -2 -11 -1 -20 3 -25 9 -13 125 16
149 12 9 23 16 26 14 2 -2 -2 -39 -8 -83z m2346 76 c-3 -5 -13 -10 -21 -10 -8
0 -14 5 -14 10 0 6 9 10 21 10 11 0 17 -4 14 -10z m145 0 c0 -5 -14 -7 -32 -3
-46 8 -48 13 -5 13 21 0 37 -4 37 -10z m-3172 -52 c7 -7 12 -15 12 -19 0 -7
-55 -29 -71 -29 -14 0 -10 22 8 42 19 21 34 23 51 6z m2117 -5 c-5 -10 -7 -26
-7 -35 1 -10 2 -26 2 -35 0 -10 0 -30 0 -45 0 -15 -7 -31 -15 -36 -14 -7 -13
-11 5 -27 17 -15 20 -16 20 -2 0 20 20 27 43 15 10 -5 17 -20 17 -39 0 -18 4
-28 10 -24 6 3 10 1 10 -4 0 -15 -27 -14 -32 1 -3 7 -7 6 -11 -5 -4 -11 -1
-17 8 -17 11 0 15 -9 13 -31 -1 -17 -6 -33 -10 -35 -4 -3 -5 -11 -1 -19 8 -22
-10 -18 -24 5 -7 10 -28 22 -48 26 -19 3 -32 10 -29 15 9 16 -9 10 -30 -10
-36 -32 -72 -35 -94 -6 -35 44 -76 26 -46 -20 15 -23 15 -25 0 -25 -9 0 -27
18 -41 41 -20 30 -32 39 -48 37 -18 -2 -21 -9 -19 -33 2 -27 2 -28 -9 -10 -22
36 -41 45 -63 29 -14 -9 -23 -10 -32 -3 -9 7 -18 5 -31 -8 -15 -15 -34 -19
-89 -19 -64 1 -69 3 -72 24 -7 49 82 87 223 96 117 7 165 16 165 32 0 8 5 14
10 14 6 0 10 6 9 13 -6 45 27 65 70 42 29 -15 45 -13 88 7 18 9 20 15 12 29
-12 23 -27 24 -48 5 -23 -20 -54 -27 -70 -16 -12 7 -13 13 -3 35 10 22 17 26
38 21 15 -4 32 -2 40 5 7 6 20 9 27 6 7 -3 21 1 32 9 26 19 39 18 30 -3z
m-1527 -40 c-2 -35 -7 -48 -18 -48 -20 0 -27 74 -8 86 24 16 29 9 26 -38z
m-84 -37 c-5 -36 -11 -46 -23 -44 -12 3 -15 13 -13 43 4 43 20 71 34 57 4 -4
5 -29 2 -56z m2946 30 c0 -8 -4 -17 -8 -20 -13 -8 -35 11 -28 23 10 16 36 14
36 -3z m-3380 -27 c0 -6 9 -18 21 -27 l20 -17 -23 -35 c-25 -38 -58 -52 -58
-26 0 9 -7 16 -16 16 -8 0 -12 5 -9 10 3 6 17 10 29 10 26 0 53 25 37 34 -5 4
-34 4 -65 1 -30 -3 -57 -1 -60 4 -10 16 23 34 64 34 22 0 40 4 40 9 0 5 5 6
10 3 6 -3 10 -11 10 -16z m350 -3 c0 -14 -5 -28 -11 -31 -13 -9 -15 -7 -23 28
-5 23 -3 27 14 27 15 0 20 -7 20 -24z m-80 -10 c0 -17 -24 -38 -33 -29 -15 15
-6 43 13 43 11 0 20 -6 20 -14z m3108 -28 c-4 -31 -48 -39 -48 -10 0 20 12 30
38 31 8 1 12 -8 10 -21z m-3203 2 c-3 -5 -10 -10 -16 -10 -5 0 -9 5 -9 10 0 6
7 10 16 10 8 0 12 -4 9 -10z m-81 -21 c-3 -5 -10 -7 -15 -3 -5 3 -7 10 -3 15
3 5 10 7 15 3 5 -3 7 -10 3 -15z m418 15 c9 -9 -4 -45 -15 -41 -16 5 -19 47
-4 47 8 0 16 -3 19 -6z m1643 -14 c-4 -12 -2 -27 4 -34 6 -7 9 -24 7 -37 -3
-13 -5 -33 -6 -44 -1 -31 -16 2 -24 55 -4 24 -12 51 -19 59 -10 12 -8 14 11 9
12 -4 22 -2 22 3 0 5 3 9 6 9 3 0 2 -9 -1 -20z m-1557 4 c18 -5 20 -9 11 -20
-15 -18 -59 -18 -59 -1 0 26 11 30 48 21z m-328 -22 c0 -14 -11 -21 -26 -15
-21 8 -17 23 6 23 11 0 20 -4 20 -8z m78 -3 c-2 -6 -8 -10 -13 -10 -5 0 -11 4
-13 10 -2 6 4 11 13 11 9 0 15 -5 13 -11z m79 5 c-3 -3 -12 -4 -19 -1 -8 3 -5
6 6 6 11 1 17 -2 13 -5z m-257 -14 c0 -5 -2 -10 -4 -10 -3 0 -8 5 -11 10 -3 6
-1 10 4 10 6 0 11 -4 11 -10z m3225 -21 c8 -26 9 -25 -43 -32 -40 -5 -43 -4
-40 16 3 20 16 26 70 36 4 0 10 -8 13 -20z m-2963 -1 c-9 -9 -15 -9 -24 0 -9
9 -7 12 12 12 19 0 21 -3 12 -12z m174 -45 c12 -7 24 -10 26 -7 3 3 18 -9 32
-27 34 -40 28 -46 -17 -16 -19 13 -49 30 -66 37 -17 7 -31 16 -31 20 0 11 32
7 56 -7z m2804 -33 c0 -28 -2 -30 -37 -29 -21 1 -45 0 -53 -2 -9 -3 -16 4 -18
18 -3 19 3 22 50 31 29 5 54 10 56 11 1 0 2 -12 2 -29z M3081 2924 c0 -11 3
-14 6 -6 3 7 2 16 -1 19 -3 4 -6 -2 -5 -13z M3580 2259 c0 -5 5 -7 10 -4 6 3
10 8 10 11 0 2 -4 4 -10 4 -5 0 -10 -5 -10 -11z M3581 2144 c0 -11 3 -14 6 -6
3 7 2 16 -1 19 -3 4 -6 -2 -5 -13z M4313 2233 c-25 -10 -12 -20 42 -32 53 -12
75 -9 75 9 0 19 -86 36 -117 23z M4090 2055 c0 -8 7 -15 15 -15 8 0 15 7 15
15 0 8 -7 15 -15 15 -8 0 -15 -7 -15 -15z M433 1853 c-17 -15 -46 -107 -60
-186 -19 -118 -20 -139 -9 -189 12 -56 33 -71 62 -47 13 10 12 14 -6 31 -15
14 -20 31 -20 69 0 61 24 184 52 262 22 65 15 90 -19 60z M3605 1880 c-3 -5
-2 -10 4 -10 5 0 13 5 16 10 3 6 2 10 -4 10 -5 0 -13 -4 -16 -10z M336 1233
c-11 -11 -6 -23 9 -23 8 0 15 4 15 9 0 13 -16 22 -24 14z M4447 1274 c-11 -11
3 -24 24 -24 12 0 19 5 17 13 -5 14 -31 21 -41 11z M2930 601 c0 -6 -15 -11
-32 -11 -32 -1 -31 -2 17 -20 54 -21 79 -14 59 18 -13 20 -44 29 -44 13z
M3055 521 c-3 -12 -11 -21 -18 -21 -7 0 -7 -4 2 -12 10 -11 15 -10 25 4 7 10
16 15 19 11 4 -3 7 -2 7 4 0 6 -6 16 -14 22 -11 10 -16 8 -21 -8z M580 4949
c0 -5 5 -7 10 -4 6 3 10 8 10 11 0 2 -4 4 -10 4 -5 0 -10 -5 -10 -11z M480
3671 c-67 -6 -90 -15 -90 -32 0 -6 -6 -17 -14 -24 -9 -10 -14 -40 -15 -91 -1
-42 -4 -80 -7 -85 -13 -21 -20 -5 -20 45 0 45 -4 59 -26 80 -15 16 -32 24 -41
20 -8 -3 -18 -1 -22 5 -8 14 -72 -19 -100 -51 -12 -13 -29 -42 -40 -66 -10
-24 -27 -48 -37 -53 -17 -9 -18 -30 -18 -305 0 -194 3 -293 10 -289 6 3 10 14
10 24 0 21 109 161 126 161 31 0 44 -65 14 -75 -24 -8 -80 -65 -80 -82 0 -7 9
-13 20 -13 32 0 24 -14 -40 -73 -55 -51 -75 -87 -50 -87 10 0 101 60 111 73 3
4 13 5 22 1 9 -3 25 3 38 15 15 14 30 19 43 15 17 -4 18 -3 6 5 -13 10 -8 15
12 12 5 0 7 5 5 12 -1 6 3 11 10 10 7 -2 10 3 7 11 -3 7 1 16 9 19 10 4 13 -1
9 -19 -2 -13 -8 -27 -13 -30 -5 -3 -9 -12 -9 -21 0 -9 -9 -27 -21 -39 -21 -23
-19 -44 5 -44 16 0 90 73 93 91 9 56 23 102 37 123 9 14 16 32 16 40 0 40 40
28 66 -19 17 -33 39 -44 94 -50 62 -7 125 -44 106 -63 -3 -2 -29 -4 -58 -4
-29 0 -59 -5 -65 -10 -9 -7 -15 -4 -22 14 -5 13 -24 36 -43 50 -32 25 -35 25
-55 10 -27 -22 -33 -43 -18 -62 7 -8 16 -26 20 -38 6 -20 4 -23 -12 -18 -20 6
-67 -14 -69 -29 -2 -27 -20 -48 -58 -67 -43 -22 -58 -37 -50 -50 7 -11 84 21
126 53 20 16 40 29 44 29 18 0 74 53 74 69 0 26 29 35 50 16 21 -19 34 -19 50
0 10 12 16 12 34 3 26 -15 37 -16 55 -7 8 4 31 1 50 -6 20 -6 42 -10 49 -8 6
3 12 0 12 -5 0 -9 47 -8 57 2 3 3 20 -6 38 -19 17 -14 35 -22 38 -19 3 4 13
-1 22 -10 20 -20 35 -20 60 -3 22 17 12 37 -19 37 -18 0 -116 64 -116 76 0 1
20 1 45 -1 28 -3 45 -1 45 6 0 6 6 9 14 6 8 -3 17 -1 20 6 2 7 5 4 5 -5 1 -10
7 -18 14 -19 6 0 0 -5 -16 -11 -61 -22 -9 -65 57 -47 21 6 36 16 36 25 0 10 7
13 28 9 15 -4 38 -8 51 -11 13 -3 30 -12 38 -19 12 -13 65 -21 96 -16 4 1 16
-3 27 -9 22 -12 50 -3 50 16 0 23 34 16 83 -17 35 -23 63 -32 107 -36 42 -4
60 -2 60 6 0 14 49 8 106 -12 23 -8 79 -17 125 -18 71 -3 84 -1 87 13 4 18
-24 26 -100 30 -27 1 -48 6 -48 10 0 5 -4 7 -9 4 -5 -4 -41 4 -80 16 -61 20
-69 26 -65 44 4 14 -5 31 -25 53 -22 24 -26 33 -16 37 8 3 11 13 8 22 -4 13
-3 14 5 3 5 -7 14 -11 19 -8 5 3 10 1 11 -6 1 -7 3 -25 4 -42 2 -16 7 -36 11
-42 5 -7 5 -18 1 -25 -5 -7 -3 -8 5 -4 7 5 20 1 30 -8 15 -13 23 -14 50 -5 26
9 35 8 49 -3 30 -26 54 -30 73 -12 11 10 19 12 19 6 0 -20 38 -13 54 9 29 42
-19 91 -72 74 -17 -5 -19 -2 -15 15 3 11 9 23 14 26 23 14 -9 113 -47 145 -8
6 -14 21 -14 32 0 42 -35 127 -52 127 -30 0 -49 -12 -64 -41 -22 -44 -36 -36
-32 19 2 39 0 47 -14 46 -10 -1 -20 7 -23 17 -7 22 -25 25 -43 7 -9 -9 -12 -8
-12 5 0 25 -46 23 -53 -3 -3 -11 -1 -22 3 -25 4 -3 13 -18 18 -35 l11 -30 -30
16 c-28 14 -69 12 -69 -5 0 -10 41 -47 60 -54 8 -3 1 -6 -16 -6 -16 -1 -39 6
-50 14 -10 8 -29 15 -41 15 -39 0 -38 -22 1 -56 29 -25 33 -33 21 -38 -29 -11
-14 -50 20 -56 26 -4 30 -10 31 -37 2 -41 -16 -43 -50 -7 -21 24 -29 26 -63
19 -65 -13 -203 -6 -203 10 0 6 7 19 15 29 19 25 19 50 2 43 -11 -4 -14 14
-13 85 0 83 -1 91 -24 108 -15 11 -47 19 -88 22 -53 3 -68 8 -84 28 -28 34
-80 49 -175 51 -101 1 -100 -2 -107 197 -2 80 -4 84 -32 103 -16 10 -40 19
-54 19 -14 0 -34 7 -44 15 -11 8 -25 14 -30 13 -6 0 -40 -4 -76 -7z m71 -58
c2 -20 7 -177 8 -241 1 -34 5 -44 23 -51 15 -5 18 -10 9 -15 -9 -6 -9 -11 0
-22 17 -20 110 -18 148 4 28 15 33 15 41 2 14 -21 6 -256 -10 -305 -22 -69
-24 -71 -28 -35 -5 47 -16 56 -41 31 -17 -17 -19 -26 -11 -46 11 -29 12 -29
-33 -10 -20 8 -48 15 -61 15 -17 0 -32 9 -43 28 -10 15 -26 33 -35 40 -13 9
-18 27 -18 63 0 27 -2 49 -4 49 -2 0 -13 3 -23 6 -15 6 -16 4 -5 -7 16 -17 16
-54 0 -66 -13 -10 -74 8 -63 19 3 2 7 28 10 56 2 29 7 56 10 62 7 12 -13 52
-31 63 -16 9 -18 64 -5 99 5 13 14 75 21 138 7 63 17 121 22 128 6 7 33 12 64
12 43 0 53 -3 55 -17z m-341 -83 c0 -5 -5 -10 -11 -10 -5 0 -7 5 -4 10 3 6 8
10 11 10 2 0 4 -4 4 -10z m60 -164 c0 -3 -4 -8 -10 -11 -5 -3 -10 -1 -10 4 0
6 5 11 10 11 6 0 10 -2 10 -4z m-60 -81 c-13 -14 -26 -22 -29 -19 -3 3 5 14
18 25 33 27 39 24 11 -6z m696 -51 c6 -28 14 -56 18 -62 3 -6 -1 -15 -10 -20
-14 -8 -14 -13 -4 -32 9 -16 10 -42 5 -84 -4 -34 -7 -77 -6 -96 0 -19 -6 -51
-14 -71 -8 -20 -11 -39 -8 -43 4 -3 -7 -6 -23 -6 -17 0 -35 -5 -40 -10 -7 -7
-24 -4 -55 9 -24 12 -37 21 -28 21 17 0 29 20 55 95 9 28 21 54 26 60 4 5 8
30 8 56 0 29 6 53 15 63 12 12 14 28 9 73 -4 32 -12 61 -17 64 -20 14 2 40 30
37 24 -3 29 -9 39 -54z m-677 -49 c-24 -35 -39 -44 -39 -25 0 6 7 13 15 16 10
4 13 13 10 25 -5 14 -2 17 9 13 10 -4 16 -1 16 7 0 7 3 9 6 6 4 -4 -4 -22 -17
-42z m848 -21 c-3 -3 -12 -4 -19 -1 -8 3 -5 6 6 6 11 1 17 -2 13 -5z m-882
-34 c3 -5 -1 -10 -9 -10 -9 0 -15 -5 -13 -11 1 -6 -15 -22 -37 -36 l-38 -25
18 26 c11 14 24 24 31 21 7 -2 15 0 18 5 4 6 1 10 -6 10 -8 0 -8 4 1 15 14 17
26 19 35 5z m48 -39 c-10 -17 -22 -31 -27 -31 -4 0 -2 10 6 23 8 12 18 28 22
35 5 7 10 11 12 9 3 -2 -3 -18 -13 -36z m838 13 c17 -8 29 -18 26 -21 -7 -7
-77 19 -77 29 0 12 18 10 51 -8z m679 -28 c0 -3 -4 -8 -10 -11 -5 -3 -10 -1
-10 4 0 6 5 11 10 11 6 0 10 -2 10 -4z m-642 -86 c-2 -7 -10 1 -17 16 -12 27
-11 28 4 12 10 -9 16 -21 13 -28z m672 -4 c0 -3 -4 -8 -10 -11 -5 -3 -10 -1
-10 4 0 6 5 11 10 11 6 0 10 -2 10 -4z m-16 -97 c-3 -5 -1 -9 5 -9 5 0 13 5
16 10 9 15 22 12 22 -5 0 -8 -5 -16 -11 -16 -59 -7 -56 -9 -56 40 l0 46 15
-29 c8 -15 12 -32 9 -37z m-1524 7 c0 -2 -17 -16 -37 -32 -25 -19 -33 -22 -23
-9 24 32 60 56 60 41z m1165 -26 c13 -12 41 -23 66 -26 24 -3 53 -12 64 -19
45 -32 69 -55 57 -55 -7 0 -10 -4 -7 -10 3 -5 2 -10 -4 -10 -14 0 -71 34 -71
43 0 4 -8 7 -17 7 -10 0 -36 11 -59 24 -47 27 -94 39 -88 22 9 -25 -11 -37
-44 -25 -18 6 -32 15 -32 20 0 5 -10 9 -23 9 -12 0 -28 9 -34 19 -12 18 -9 20
30 23 92 7 138 0 162 -22z m-258 -26 c-8 -8 -47 10 -47 22 0 12 5 11 25 -2 14
-9 24 -18 22 -20z m-148 13 c-2 -1 -12 -9 -21 -16 -15 -12 -18 -11 -18 3 0 10
8 16 22 16 12 0 19 -1 17 -3z M473 3582 c-18 -12 -25 -98 -9 -111 22 -19 45
10 52 67 6 47 5 52 -12 52 -11 0 -25 -4 -31 -8z M722 3218 c-20 -20 -14 -30
16 -26 16 2 27 9 27 18 0 19 -27 24 -43 8z M623 3212 c-18 -12 -9 -47 14 -50
22 -3 36 19 27 43 -7 16 -22 19 -41 7z M1795 2760 c-3 -5 -1 -10 4 -10 6 0 11
5 11 10 0 6 -2 10 -4 10 -3 0 -8 -4 -11 -10z M3830 2559 c-13 -6 -31 -16 -40
-23 -8 -8 -32 -20 -53 -27 -46 -16 -48 -45 -2 -42 24 2 107 35 155 62 44 25
-8 51 -60 30z M3820 2461 c0 -6 5 -13 10 -16 6 -3 10 1 10 9 0 9 -4 16 -10 16
-5 0 -10 -4 -10 -9z M4815 2270 l-70 -5 -3 -47 c-3 -43 -6 -48 -27 -48 -28 0
-59 -39 -53 -67 3 -14 12 -18 41 -16 47 3 49 -14 3 -23 -47 -8 -51 -28 -13
-60 18 -14 25 -24 16 -21 -27 9 -59 -21 -59 -54 0 -24 4 -29 25 -29 18 0 25 5
25 20 0 15 7 20 26 20 26 0 26 -1 19 -47 -9 -52 -8 -147 1 -204 4 -30 9 -36
29 -36 41 0 50 20 36 83 -7 30 -9 69 -5 86 3 18 6 53 5 79 0 31 4 47 12 46 39
-1 57 5 57 18 0 10 -11 15 -35 15 -54 0 -41 18 16 22 56 3 77 -14 46 -37 -25
-18 -21 -25 13 -25 29 0 30 2 30 46 l0 47 -75 -5 c-58 -4 -75 -2 -75 8 0 10
17 14 66 13 36 -1 68 1 71 4 16 16 -16 27 -79 27 -39 0 -69 2 -67 4 4 4 93 14
142 15 35 2 17 28 -24 35 -49 8 -47 16 5 18 28 1 36 5 36 20 0 15 -5 18 -21
13 -15 -5 -19 -4 -15 4 4 6 14 11 22 11 18 0 20 69 2 71 -35 4 -59 4 -123 -1z
m85 -31 c0 -4 -20 -9 -45 -11 -42 -3 -53 1 -39 14 8 8 84 5 84 -3z m-3 -53 c4
-3 -19 -6 -50 -6 -31 0 -57 4 -57 9 0 10 97 7 107 -3z m-160 -61 c-4 -8 -11
-15 -17 -15 -7 0 -7 6 0 21 13 23 26 19 17 -6z m122 21 c-12 -10 -59 -15 -59
-6 0 5 14 10 32 10 17 0 29 -2 27 -4z M434 2171 c-17 -4 -37 -12 -45 -17 -8
-4 -18 -9 -24 -9 -5 0 -27 -8 -49 -18 -21 -9 -41 -17 -45 -17 -4 0 -22 -13
-41 -28 -55 -46 -73 -52 -129 -45 -49 6 -51 5 -51 -19 0 -22 5 -26 46 -32 28
-3 54 -1 67 6 12 7 24 13 27 13 3 0 33 19 67 43 34 23 69 42 77 42 8 0 16 5
18 11 2 6 27 15 56 20 53 8 88 31 77 49 -7 11 -7 11 -51 1z M165 1954 c-44
-19 -88 -34 -97 -34 -13 0 -18 -8 -18 -25 0 -32 17 -32 78 -1 26 13 61 27 77
30 17 4 41 16 55 26 21 17 23 21 10 30 -19 12 -12 14 -105 -26z M4853 1913
c-24 -5 -31 -27 -12 -38 18 -12 61 4 57 22 -3 19 -13 22 -45 16z M482 603
c-20 -4 -23 -9 -17 -31 19 -78 32 -196 28 -255 -5 -62 -4 -67 15 -67 11 0 22
7 26 15 14 38 17 117 6 185 -7 41 -14 94 -17 118 -3 23 -8 41 -12 41 -3 -1
-17 -4 -29 -6z M576 541 c-12 -5 -16 -10 -9 -14 13 -8 43 2 43 14 0 10 -8 10
-34 0z M990 364 c-94 -17 -212 -48 -227 -60 -14 -10 -16 -17 -7 -31 9 -15 26
-18 100 -20 86 -2 89 4 10 22 -15 3 -27 8 -24 10 2 2 44 12 93 22 96 20 169
21 495 7 209 -8 249 -20 167 -51 -31 -11 -29 -12 29 -12 89 -1 114 38 46 73
-35 18 -88 23 -312 31 -91 3 -205 7 -255 9 -49 2 -101 2 -115 0z M50 336 c0
-22 3 -27 11 -19 8 8 8 16 0 30 -9 16 -10 14 -11 -11z M1538 253 c7 -3 16 -2
19 1 4 3 -2 6 -13 5 -11 0 -14 -3 -6 -6z"/>
</g>
</svg>
