<?xml version="1.0" standalone="no"?>
<!DOCTYPE svg PUBLIC "-//W3C//DTD SVG 20010904//EN"
 "http://www.w3.org/TR/2001/REC-SVG-20010904/DTD/svg10.dtd">
<svg version="1.0" xmlns="http://www.w3.org/2000/svg"
 width="500.000000pt" height="878.000000pt" viewBox="0 0 500.000000 878.000000"
 preserveAspectRatio="xMidYMid meet">
<metadata>
Created by potrace 1.16, written by Peter Selinger 2001-2019
</metadata>
<g transform="translate(0.000000,878.000000) scale(0.100000,-0.100000)"
fill="#000000" stroke="none">
<path d="M4869 8433 c-1 -164 -1 -559 0 -878 1 -319 4 -1381 7 -2360 3 -979 6
-1789 6 -1800 1 -11 1 -153 0 -316 l-2 -295 -102 1 c-69 1 -103 5 -106 13 -2
7 -9 12 -16 12 -7 0 -21 10 -32 21 -47 53 -296 145 -439 163 -224 27 -385 25
-571 -10 -31 -6 -31 -5 -38 45 -4 27 -6 123 -6 213 2 159 -7 218 -33 218 -5 0
-7 10 -3 23 3 12 1 114 -4 227 -20 427 -32 688 -35 780 -8 202 -17 340 -30
465 -8 72 -17 225 -20 340 -8 236 -17 286 -69 400 -46 98 -88 135 -201 173
-32 11 -36 12 -104 16 -52 4 -91 40 -91 85 0 55 -58 73 -137 42 -45 -18 -53
-18 -64 -5 -16 19 -6 28 18 16 26 -14 53 2 35 20 -6 6 -12 24 -12 40 0 18 -7
31 -21 39 -15 8 -18 14 -10 22 22 22 11 36 -34 43 -25 3 -45 9 -45 13 0 22
-105 121 -149 140 -27 11 -52 25 -55 30 -17 26 -191 30 -266 5 -47 -15 -145
-83 -145 -100 0 -6 -18 -29 -40 -53 -32 -34 -42 -54 -52 -104 -21 -109 -17
-157 17 -194 16 -18 32 -33 36 -33 3 0 20 -11 38 -25 18 -14 40 -25 49 -25 9
0 21 -9 27 -20 6 -11 20 -20 31 -20 11 0 22 -8 25 -17 3 -10 10 -26 15 -36 8
-14 3 -26 -20 -53 -17 -18 -35 -51 -41 -73 -5 -21 -23 -67 -39 -103 -21 -46
-34 -98 -45 -184 -9 -65 -21 -140 -27 -165 -5 -25 -9 -50 -8 -55 1 -5 0 -20
-4 -34 -10 -40 -30 -675 -29 -925 2 -427 14 -820 26 -828 8 -5 8 -9 -1 -15 -7
-4 -12 -21 -11 -37 1 -17 -2 -79 -7 -140 -4 -60 -8 -226 -9 -368 l-1 -257
-100 -6 c-55 -3 -113 -7 -130 -8 -119 -13 -176 -19 -214 -20 -33 -1 -48 -7
-65 -27 -19 -25 -31 -27 -151 -39 -179 -17 -206 -19 -324 -25 -57 -3 -109 -9
-115 -12 -6 -4 -94 -8 -196 -10 -208 -3 -212 -3 -237 -25 -16 -14 -61 -31 -88
-33 -5 0 -15 -3 -20 -7 -6 -4 -33 -5 -59 -3 -27 1 -62 -1 -80 -7 -44 -13 -82
-19 -188 -27 -5 -1 -8 -13 -8 -27 0 -25 2 -26 38 -21 20 3 80 12 132 21 52 8
118 17 145 20 61 7 164 39 174 54 5 9 59 15 111 11 44 -3 150 5 150 12 0 4 9
5 20 2 11 -3 33 0 49 5 21 7 33 7 37 1 3 -6 13 -7 23 -4 9 4 72 9 141 11 69 2
163 6 210 10 47 4 99 8 115 9 62 4 191 28 225 41 56 21 127 31 285 38 50 2 98
7 109 11 14 6 18 4 14 -6 -2 -8 -20 -15 -39 -17 -43 -4 -232 -38 -284 -50 -22
-6 -58 -13 -80 -16 -139 -20 -197 -26 -204 -21 -5 3 -42 -2 -83 -11 -40 -8
-117 -17 -170 -19 -54 -2 -102 -6 -107 -9 -5 -4 -85 -11 -178 -16 -213 -12
-385 -34 -443 -55 -119 -45 -184 -63 -282 -80 -108 -18 -108 -18 -108 -47 0
-24 3 -28 23 -24 92 20 130 25 137 21 5 -3 11 -1 14 4 3 4 32 11 64 15 32 4
67 12 78 20 30 21 214 79 214 67 0 -7 65 -3 90 6 15 6 33 7 248 17 62 3 117 8
122 11 5 3 62 8 126 10 64 3 135 10 158 16 22 6 73 13 111 14 86 4 263 30 296
44 37 16 188 44 247 45 56 2 66 -13 16 -26 -16 -3 -56 -13 -89 -21 -33 -8 -85
-18 -115 -22 -30 -4 -75 -15 -100 -25 -25 -10 -79 -21 -120 -25 -41 -4 -83
-11 -93 -17 -21 -11 -13 -28 14 -28 10 0 19 -3 19 -8 0 -4 -20 -6 -45 -4 -25
2 -43 8 -40 12 3 5 2 16 -2 25 -7 19 -34 18 -178 -6 -38 -7 -90 -12 -115 -11
-25 0 -85 -7 -135 -15 -49 -8 -136 -16 -193 -17 -79 -1 -105 -4 -112 -16 -17
-27 7 -33 117 -32 134 2 145 3 159 13 12 10 82 23 102 19 37 -6 115 -3 172 9
119 23 144 25 136 13 -4 -7 -20 -12 -37 -12 -60 0 -302 -61 -374 -95 -40 -18
-90 -37 -111 -40 -22 -4 -49 -13 -61 -21 -34 -21 -41 -17 -53 25 -13 48 -29
62 -72 63 -114 3 -201 -57 -275 -190 -22 -39 -39 -58 -54 -60 -13 -2 -82 -19
-154 -37 -99 -25 -131 -37 -133 -50 -3 -12 1 -15 15 -11 10 3 38 8 63 11 25 3
70 13 102 21 31 8 63 12 71 8 8 -3 18 -1 22 5 12 20 26 12 16 -8 -11 -21 -25
-72 -47 -176 -14 -69 -11 -139 7 -151 5 -3 9 -10 9 -16 0 -6 -8 -4 -17 4 -20
18 -114 48 -149 48 -13 0 -39 -9 -58 -21 l-36 -21 0 -95 c0 -60 4 -92 10 -88
5 3 10 19 10 34 0 27 48 127 56 118 2 -2 -4 -24 -15 -48 -11 -24 -21 -60 -23
-79 -3 -30 0 -35 19 -38 20 -3 23 1 24 30 0 18 4 42 9 53 8 19 9 18 9 -4 1
-20 5 -23 27 -18 l27 5 -6 -87 c-7 -92 -12 -133 -28 -221 -13 -66 -21 -129
-21 -153 1 -9 -3 -15 -7 -13 -4 3 -18 -13 -30 -35 -17 -29 -27 -38 -40 -34
-17 5 -18 -5 -19 -126 l-2 -132 35 37 c21 23 32 42 28 52 -8 21 12 32 51 29
28 -2 31 -6 34 -39 3 -37 2 -39 -50 -50 -16 -4 -28 -13 -28 -21 0 -8 -3 -15
-7 -16 -5 0 -18 -2 -30 -3 -13 -2 -26 -5 -29 -8 -12 -13 17 -46 46 -51 44 -9
39 -35 -7 -39 -31 -2 -39 -7 -41 -27 -3 -21 -1 -23 25 -17 15 4 38 8 51 11 34
5 72 33 72 53 0 10 -7 28 -16 40 -15 21 -12 42 5 42 5 0 14 -30 21 -68 22
-114 67 -269 92 -314 l23 -43 96 -3 95 -3 47 36 c40 31 52 35 82 29 21 -4 37
-13 40 -25 4 -10 22 -23 43 -29 45 -12 362 -14 362 -1 0 4 -48 11 -107 15 -60
4 -126 12 -148 18 -34 9 -37 11 -19 18 11 4 37 8 57 8 68 0 134 21 141 45 7
28 -12 42 -64 51 -42 7 -53 21 -22 30 33 9 137 29 147 28 6 -1 89 -4 185 -6
203 -4 390 -15 402 -22 25 -16 -30 -39 -102 -43 -19 -1 -78 -7 -130 -14 -79
-10 -95 -15 -98 -31 -5 -23 6 -34 40 -40 15 -2 32 -7 37 -10 5 -4 37 -7 70 -8
53 -2 60 -4 66 -25 5 -23 7 -23 148 -22 138 0 141 1 97 15 -25 8 -73 17 -108
21 -43 4 -62 10 -62 20 0 20 -43 33 -107 33 -31 0 -54 2 -52 4 2 3 43 10 89
16 115 16 111 15 145 29 57 24 59 53 8 79 -30 15 -72 21 -188 27 -343 16 -452
19 -490 10 -180 -39 -203 -46 -209 -62 -11 -28 13 -51 66 -64 l53 -14 -90 -6
c-49 -3 -102 -9 -117 -13 -21 -6 -29 -4 -37 12 -9 17 -2 26 52 67 34 27 99 84
145 129 74 73 84 79 102 68 11 -6 27 -12 35 -12 29 0 76 31 94 61 10 17 21 26
25 21 3 -5 34 -8 68 -7 93 3 253 -14 306 -32 26 -8 83 -40 127 -69 82 -54 128
-67 153 -42 8 8 8 17 0 31 -7 13 -8 64 -3 156 13 223 12 231 -20 231 -24 0
-25 -2 -25 -65 0 -78 -19 -215 -31 -215 -9 0 -10 186 -1 249 6 40 10 44 34 45
38 2 58 23 38 39 -38 31 -99 164 -85 187 3 4 -2 43 -11 85 -16 75 -15 77 5 96
20 19 24 42 25 147 0 35 10 41 24 15 8 -14 28 -17 128 -18 66 0 127 3 136 7
15 7 17 0 20 -54 3 -56 6 -64 29 -75 14 -7 47 -14 73 -16 45 -4 48 -3 61 27
13 29 14 26 13 -60 l0 -91 40 -41 c23 -23 47 -42 55 -42 8 0 29 -7 47 -16 23
-12 58 -17 117 -16 72 0 84 -2 82 -17 -6 -37 13 -59 70 -85 32 -14 67 -26 78
-26 27 0 86 -58 79 -76 -5 -13 10 -52 25 -64 4 -3 9 -15 13 -28 5 -15 3 -24
-8 -28 -9 -3 -16 -17 -16 -29 0 -41 -40 -70 -110 -79 -25 -3 -63 -10 -85 -15
-22 -5 -56 -12 -75 -16 -62 -12 -91 -27 -105 -56 -21 -40 -20 -44 28 -83 38
-31 117 -57 172 -56 107 1 145 0 223 -7 51 -5 96 -5 99 0 2 4 10 3 17 -2 9 -7
19 -6 35 6 17 11 25 13 30 4 8 -13 41 -5 41 10 0 5 5 9 11 9 5 0 7 -4 4 -10
-4 -6 6 -10 24 -10 16 0 33 5 36 10 4 6 11 8 16 4 6 -3 10 0 8 7 -3 27 3 74 8
57 6 -24 21 -23 25 3 3 18 11 21 60 23 31 2 64 9 73 16 19 16 19 53 0 90 -9
17 -12 40 -9 59 7 32 -14 77 -43 94 -11 7 -12 22 -7 69 4 33 8 70 9 82 1 11 3
24 4 29 0 4 13 5 29 2 15 -3 58 -6 96 -5 64 0 71 3 122 43 47 37 54 46 54 77
0 20 -7 45 -15 56 -8 10 -15 38 -15 62 0 23 -4 42 -10 42 -5 0 -10 10 -10 23
0 18 2 19 10 7 8 -12 10 -9 10 11 0 21 6 28 31 33 17 3 48 24 70 45 37 38 39
44 39 101 0 58 1 60 20 50 11 -6 20 -8 20 -4 0 3 7 1 15 -6 8 -6 18 -9 23 -6
6 3 31 2 56 -3 28 -5 46 -5 46 1 0 5 4 7 8 4 22 -13 -33 -202 -98 -341 -11
-22 -29 -60 -40 -85 -11 -25 -32 -64 -45 -88 -13 -23 -22 -49 -18 -58 3 -9 39
-32 80 -51 72 -34 79 -35 211 -39 142 -4 152 -7 152 -51 0 -33 -78 -234 -110
-283 -5 -8 -16 -30 -24 -47 -17 -37 -23 -45 -88 -118 -27 -28 -48 -56 -48 -61
0 -15 50 -64 64 -64 8 0 27 -7 42 -15 38 -20 134 -20 134 -1 0 8 -15 17 -37
21 -53 9 -133 47 -133 62 0 7 15 30 33 50 48 55 177 287 177 319 0 3 7 20 14
37 8 18 25 63 37 102 l22 70 12 -35 c6 -19 18 -35 26 -35 8 -1 13 -7 11 -14
-2 -8 -19 -108 -38 -222 -19 -115 -43 -239 -53 -277 -10 -37 -16 -73 -13 -80
4 -14 52 -17 52 -3 0 5 8 7 19 4 10 -3 22 0 25 6 4 6 20 11 35 11 15 0 31 3
35 8 4 4 11 7 14 8 45 5 102 18 102 23 0 3 13 6 30 6 16 0 31 4 32 9 5 17 -33
15 -110 -5 -41 -10 -87 -19 -102 -19 -15 0 -33 -7 -40 -15 -19 -23 -30 -18
-30 13 0 36 13 54 33 46 9 -3 22 -2 29 3 7 4 22 8 33 9 11 1 40 4 65 8 25 5
60 9 77 11 18 1 39 7 46 13 10 9 22 0 52 -39 31 -41 36 -52 24 -60 -19 -12
-85 -31 -139 -39 l-45 -7 55 -1 c30 -1 75 3 100 9 25 6 57 10 73 9 23 0 27 4
27 26 0 19 -16 44 -54 84 -58 61 -104 140 -110 192 -3 18 -10 47 -17 63 -13
32 -14 41 -25 157 -6 67 -4 81 14 111 32 54 35 88 15 143 -21 54 -16 123 10
153 8 9 27 41 43 71 15 30 40 71 54 90 35 48 46 67 77 127 21 41 34 54 57 59
43 10 96 11 128 3 15 -4 30 -3 34 2 17 27 24 -17 24 -146 0 -135 9 -195 28
-195 8 0 12 276 11 800 -1 630 -7 4785 -8 5765 -1 561 1 1039 3 1063 4 41 4
42 -25 42 l-29 0 -1 -297z m-2404 -2119 c42 -20 70 -42 63 -49 -2 -2 -26 7
-53 20 -60 30 -160 42 -206 26 -25 -9 -34 -8 -40 1 -13 21 13 27 106 25 64 -2
101 -9 130 -23z m-206 -53 c9 -6 0 -10 -30 -14 -24 -2 -54 -8 -66 -12 -13 -4
-23 -3 -23 2 0 5 21 14 48 20 26 6 49 11 52 11 3 1 11 -2 19 -7z m154 -10 c43
-7 100 -41 70 -41 -7 0 -15 5 -18 10 -4 6 -10 8 -14 6 -4 -3 -29 1 -56 9 -26
8 -61 15 -77 15 -17 0 -27 4 -23 10 3 6 21 7 38 4 18 -3 54 -9 80 -13z m-293
-27 c0 -8 -5 -12 -10 -9 -6 4 -8 11 -5 16 9 14 15 11 15 -7z m223 -39 c72 -7
137 -28 137 -45 0 -15 -19 -12 -76 9 -54 21 -90 29 -136 30 -16 1 -28 6 -28
12 0 6 8 8 18 5 9 -2 48 -7 85 -11z m232 -33 c-6 -7 -35 18 -35 31 0 5 9 2 20
-8 11 -10 18 -20 15 -23z m148 12 c9 -4 17 -10 17 -15 0 -4 -13 -3 -30 2 -16
6 -30 15 -30 21 0 5 6 7 13 4 6 -3 20 -9 30 -12z m-421 -5 c29 -6 57 -15 63
-20 12 -12 -1 -11 -49 2 -24 7 -69 8 -113 4 -60 -5 -83 -13 -123 -40 -45 -30
-60 -34 -60 -14 0 11 92 63 125 70 49 10 101 10 157 -2z m327 -37 c9 -10 25
-22 35 -25 32 -12 11 -18 -23 -6 -17 6 -36 20 -42 30 -13 25 8 26 30 1z m-315
-38 c17 -9 38 -22 46 -29 22 -20 127 -52 193 -60 55 -6 70 -16 46 -31 -6 -3
-16 -1 -22 5 -6 6 -31 11 -57 11 -43 0 -81 16 -208 84 -48 26 -144 33 -161 12
-17 -20 -41 -21 -41 -1 0 9 19 20 47 28 51 15 100 9 157 -19z m96 12 c30 -8
69 -20 85 -27 17 -7 33 -12 38 -11 4 1 7 -3 7 -8 0 -10 -57 -9 -75 2 -6 3 -43
15 -82 28 -40 12 -73 24 -73 26 0 8 47 4 100 -10z m356 4 c8 0 14 -5 14 -11 0
-15 -53 -6 -58 10 -3 10 0 12 12 8 10 -4 24 -7 32 -7z m-684 -63 c-12 -13 -22
-31 -22 -40 0 -9 -6 -17 -14 -17 -25 0 -28 18 -6 30 15 8 19 17 15 31 -5 16
-2 19 21 19 l27 0 -21 -23z m241 -37 c83 -43 197 -76 197 -57 0 8 4 7 12 -1
17 -17 5 -24 -46 -24 -59 0 -109 19 -175 65 -30 20 -65 37 -77 37 -13 0 -26 5
-29 10 -14 23 46 7 118 -30z m-103 1 c0 -9 -41 -23 -48 -16 -2 2 -2 7 1 12 7
11 47 14 47 4z m717 -33 c0 -18 4 -44 8 -58 8 -24 7 -23 -24 7 -18 18 -47 35
-67 39 -41 8 -34 22 18 34 60 14 64 13 65 -22z m-807 8 c0 -3 -4 -8 -10 -11
-5 -3 -10 -1 -10 4 0 6 5 11 10 11 6 0 10 -2 10 -4z m588 -8 c-2 -6 -10 -14
-16 -16 -7 -2 -10 2 -6 12 7 18 28 22 22 4z m-423 -29 c16 -6 13 -8 -15 -8
-45 -1 -81 9 -74 20 5 9 53 2 89 -12z m510 11 c-3 -5 -11 -10 -16 -10 -6 0 -7
5 -4 10 3 6 11 10 16 10 6 0 7 -4 4 -10z m-138 -19 c1 -10 -9 -24 -22 -31 -13
-7 -26 -21 -28 -32 -4 -15 -13 -19 -34 -17 -15 2 -37 -2 -48 -8 -11 -6 -40
-13 -65 -17 -25 -4 -56 -9 -69 -11 -13 -2 -46 -18 -74 -35 -67 -41 -102 -30
-57 18 l21 22 -41 0 c-29 0 -40 4 -40 15 0 8 6 15 14 15 8 0 16 4 18 9 4 13
107 21 114 9 5 -8 99 -2 116 8 4 3 32 10 61 15 28 5 61 11 72 14 11 2 21 4 23
5 1 2 6 3 11 4 5 0 13 5 18 10 4 5 -15 6 -44 2 -31 -4 -53 -2 -53 3 0 6 17 12
38 14 20 2 44 4 52 5 9 1 16 -6 17 -17z m200 -25 c-4 -9 -11 -16 -17 -16 -15
0 -24 26 -16 47 6 15 8 15 23 1 9 -9 13 -24 10 -32z m-69 -4 c3 -17 -2 -22
-18 -22 -25 0 -38 29 -19 41 20 13 34 6 37 -19z m-652 -13 c3 -5 -6 -9 -20 -9
-16 0 -26 6 -26 14 0 15 36 11 46 -5z m559 2 c3 -5 1 -12 -5 -16 -5 -3 -10 1
-10 9 0 18 6 21 15 7z m-515 -11 c0 -5 -5 -10 -11 -10 -5 0 -7 5 -4 10 3 6 8
10 11 10 2 0 4 -4 4 -10z m616 -47 c-10 -10 -19 5 -10 18 6 11 8 11 12 0 2 -7
1 -15 -2 -18z m291 -9 c12 -8 30 -14 38 -14 19 0 37 -16 54 -47 10 -20 6 -19
-40 10 -45 28 -61 32 -120 32 -76 1 -94 9 -64 31 23 17 97 10 132 -12z m-423
-40 c20 -8 11 -24 -15 -24 -19 0 -25 11 -12 23 8 8 8 8 27 1z m90 -3 c21 -8
11 -18 -14 -16 -8 1 -23 3 -33 3 -23 2 -12 22 11 21 9 0 26 -4 36 -8z m-177
-16 c21 -7 39 -33 29 -43 -3 -2 -19 1 -35 8 -16 6 -35 9 -40 5 -6 -3 -11 1
-11 9 0 39 -115 10 -197 -50 -13 -9 -23 -13 -23 -8 1 12 80 61 127 79 36 14
103 14 150 0z m517 -1 c9 -8 16 -24 16 -35 0 -18 -1 -18 -35 3 -19 13 -35 29
-35 36 0 17 36 15 54 -4z m-212 -68 c3 -6 18 -24 32 -41 15 -16 34 -47 43 -67
9 -21 20 -38 24 -38 4 0 9 -15 12 -32 3 -18 10 -60 15 -93 15 -84 23 -205 14
-205 -4 0 -15 57 -24 128 -20 152 -20 153 -36 170 -7 8 -10 18 -6 23 14 23
-70 134 -133 176 -13 9 -20 19 -17 24 5 9 63 -25 76 -45z m366 -28 c42 -89 52
-117 52 -138 0 -19 -2 -20 -15 -10 -8 7 -12 16 -10 21 3 4 -10 41 -29 80 -30
62 -37 89 -21 89 2 0 13 -19 23 -42z m-718 -17 c0 -10 3 -21 7 -25 4 -3 8 -12
9 -19 13 -94 15 -117 6 -117 -5 0 -10 21 -10 46 -1 52 -10 86 -20 80 -4 -2 -8
12 -10 31 -1 21 2 32 8 28 5 -3 10 -14 10 -24z m605 -28 c8 -43 10 -67 20
-207 4 -54 9 -111 11 -125 10 -61 14 -305 6 -296 -6 6 -12 71 -16 145 -3 74
-8 158 -10 185 -3 28 -10 102 -16 165 -6 63 -13 130 -17 149 -4 22 -2 32 4 28
6 -4 14 -24 18 -44z m-821 -69 c-13 -56 -19 -180 -15 -303 1 -44 -2 -67 -11
-73 -10 -6 -10 -10 2 -18 11 -7 14 -26 13 -77 -4 -154 -13 -371 -18 -418 -2
-27 -4 -61 -4 -75 -1 -332 -2 -353 -16 -338 -6 5 -6 668 0 823 2 55 4 174 6
265 1 136 5 175 21 218 26 69 39 66 22 -4z m203 -31 c-3 -10 -5 -4 -5 12 0 17
2 24 5 18 2 -7 2 -21 0 -30z m793 -33 c0 -5 -2 -10 -4 -10 -3 0 -8 5 -11 10
-3 6 -1 10 4 10 6 0 11 -4 11 -10z m-793 -82 c-2 -18 -4 -6 -4 27 0 33 2 48 4
33 2 -15 2 -42 0 -60z m797 15 c4 -27 2 -43 -4 -43 -5 0 -10 21 -10 47 0 55 5
54 14 -4z m-797 -130 c-2 -16 -4 -3 -4 27 0 30 2 43 4 28 2 -16 2 -40 0 -55z
m45 52 c3 -14 1 -25 -3 -25 -5 0 -9 11 -9 25 0 14 2 25 4 25 2 0 6 -11 8 -25z
m776 -230 l-1 -130 -13 145 c-7 80 -12 168 -12 195 l0 50 14 -65 c7 -37 13
-122 12 -195z m-51 138 c-3 -10 -5 -4 -5 12 0 17 2 24 5 18 2 -7 2 -21 0 -30z
m-770 -25 c-3 -7 -5 -2 -5 12 0 14 2 19 5 13 2 -7 2 -19 0 -25z m42 -60 l-1
-53 -9 44 c-8 40 -5 61 7 61 2 0 4 -24 3 -52z m-42 10 c-3 -7 -5 -2 -5 12 0
14 2 19 5 13 2 -7 2 -19 0 -25z m780 -25 c-3 -10 -5 -4 -5 12 0 17 2 24 5 18
2 -7 2 -21 0 -30z m-780 -60 c-3 -10 -5 -2 -5 17 0 19 2 27 5 18 2 -10 2 -26
0 -35z m790 -35 c-3 -8 -6 -5 -6 6 -1 11 2 17 5 13 3 -3 4 -12 1 -19z m-163
-28 c-6 -6 -10 -2 -11 12 -2 16 1 18 10 9 7 -7 8 -14 1 -21z m170 -63 c5 -27
4 -37 -3 -32 -6 3 -11 22 -11 42 0 44 5 41 14 -10z m45 -141 c0 -55 -1 -97 -3
-95 -2 2 -6 60 -9 129 -3 69 -2 112 3 95 4 -16 8 -75 9 -129z m-209 23 c0 -38
-3 -68 -8 -65 -4 2 -7 28 -6 58 2 70 3 78 9 78 3 0 5 -32 5 -71z m167 39 c-3
-7 -5 -2 -5 12 0 14 2 19 5 13 2 -7 2 -19 0 -25z m0 -70 c-2 -13 -4 -5 -4 17
-1 22 1 32 4 23 2 -10 2 -28 0 -40z m-150 -60 c-3 -7 -5 -2 -5 12 0 14 2 19 5
13 2 -7 2 -19 0 -25z m160 -30 c-3 -7 -5 -2 -5 12 0 14 2 19 5 13 2 -7 2 -19
0 -25z m73 12 c0 -5 -4 -10 -10 -10 -5 0 -10 5 -10 10 0 6 5 10 10 10 6 0 10
-4 10 -10z m-233 -67 c-3 -10 -5 -4 -5 12 0 17 2 24 5 18 2 -7 2 -21 0 -30z
m221 9 c11 2 18 -5 20 -18 3 -18 -2 -22 -22 -20 -23 1 -26 5 -25 36 1 19 3 27
6 17 2 -10 12 -16 21 -15z m-242 -90 c-11 -10 -14 3 -8 33 l7 30 3 -28 c2 -16
1 -31 -2 -35z m244 14 c0 -8 -4 -17 -9 -20 -10 -7 -23 19 -14 28 11 11 23 6
23 -8z m-240 -46 c0 -5 -5 -10 -11 -10 -5 0 -7 5 -4 10 3 6 8 10 11 10 2 0 4
-4 4 -10z m258 -18 c2 -7 -4 -16 -14 -18 -18 -5 -18 -11 -10 -80 7 -49 14 -74
23 -74 16 0 17 -22 1 -38 -15 -15 -21 -82 -9 -97 15 -17 7 -80 -9 -80 -12 0
-15 21 -17 115 -1 63 -4 155 -6 203 -4 84 -3 88 16 85 11 -2 22 -9 25 -16z
m-391 -74 c-3 -8 -6 -5 -6 6 -1 11 2 17 5 13 3 -3 4 -12 1 -19z m147 -60 c-3
-16 -11 -27 -17 -25 -15 5 -17 80 -3 89 15 10 28 -30 20 -64z m-147 -25 c-3
-10 -5 -2 -5 17 0 19 2 27 5 18 2 -10 2 -26 0 -35z m138 -21 c9 -6 14 -229 15
-697 0 -151 0 -165 -8 -165 -4 0 -9 64 -10 143 -2 78 -5 174 -7 212 -2 39 -4
77 -4 85 1 8 1 58 2 110 1 52 0 136 -3 185 -4 56 -2 93 5 98 7 6 6 10 -2 14
-14 5 -18 23 -5 23 4 0 12 -4 17 -8z m-138 -44 c-3 -7 -5 -2 -5 12 0 14 2 19
5 13 2 -7 2 -19 0 -25z m-467 -119 c2 -133 -2 -209 -10 -209 -11 0 -14 180 -4
218 8 28 14 24 14 -9z m-272 -109 c-2 -71 -7 -133 -11 -136 -4 -4 -7 54 -7
129 0 91 4 137 11 137 7 0 9 -42 7 -130z m1130 23 c-5 -25 -28 -28 -28 -4 0
12 6 21 16 21 9 0 14 -7 12 -17z m-378 -43 c0 -5 -2 -10 -4 -10 -3 0 -8 5 -11
10 -3 6 -1 10 4 10 6 0 11 -4 11 -10z m395 0 c22 0 25 -26 2 -27 -11 -1 -25
-7 -30 -12 -10 -10 -7 -12 33 -24 10 -2 5 -9 -17 -20 -37 -20 -42 -13 -35 51
3 33 8 42 19 38 8 -3 21 -6 28 -6z m-879 -129 c-3 -5 -6 -36 -7 -70 -1 -46 -5
-61 -16 -61 -10 0 -12 6 -7 22 6 19 12 75 14 133 1 18 1 19 11 2 5 -9 8 -21 5
-26z m843 -22 c-5 -11 -9 -27 -8 -37 3 -38 -1 -63 -11 -57 -7 4 -8 21 -4 43 4
20 9 46 10 57 3 28 3 27 14 20 7 -4 6 -13 -1 -26z m-1114 -302 c3 -247 1 -318
-9 -326 -10 -9 -12 32 -10 212 1 122 3 271 3 331 1 60 3 107 6 104 3 -3 7
-147 10 -321z m1193 235 c2 -7 -3 -12 -12 -12 -9 0 -16 7 -16 16 0 17 22 14
28 -4z m3 -112 c24 0 4 -106 -22 -113 -24 -6 -26 18 -2 27 14 6 13 9 -8 29
-20 19 -21 22 -6 25 20 4 22 13 5 31 -10 11 -10 14 0 18 6 3 12 11 12 18 0 7
-6 16 -12 18 -10 4 -9 8 2 16 12 9 16 4 18 -29 2 -22 7 -40 13 -40z m-441 60
c0 -5 -5 -10 -11 -10 -5 0 -7 5 -4 10 3 6 8 10 11 10 2 0 4 -4 4 -10z m390 0
c0 -5 -5 -10 -11 -10 -5 0 -7 5 -4 10 3 6 8 10 11 10 2 0 4 -4 4 -10z m-883
-17 c9 -144 8 -243 -3 -243 -7 0 -16 5 -19 10 -3 6 -1 10 4 10 6 0 11 9 11 21
0 13 -4 18 -11 13 -9 -5 -10 1 -5 21 4 16 7 64 7 107 0 43 3 78 7 78 4 0 8 -8
9 -17z m498 -22 c3 -5 1 -12 -5 -16 -5 -3 -10 1 -10 9 0 18 6 21 15 7z m380
-31 c3 -5 -1 -10 -9 -10 -9 0 -16 5 -16 10 0 6 4 10 9 10 6 0 13 -4 16 -10z
m-20 -40 c3 -5 1 -10 -4 -10 -6 0 -11 5 -11 10 0 6 2 10 4 10 3 0 8 -4 11 -10z
m83 -107 c2 -8 -6 -13 -22 -13 -17 0 -26 5 -26 16 0 19 41 16 48 -3z m-10 -51
c2 -8 -8 -12 -30 -12 -31 1 -32 1 -13 15 21 17 37 15 43 -3z m-78 -12 c0 -5
-5 -10 -11 -10 -5 0 -7 5 -4 10 3 6 8 10 11 10 2 0 4 -4 4 -10z m-840 -16 c0
-8 -5 -12 -10 -9 -6 4 -8 11 -5 16 9 14 15 11 15 -7z m6 -36 c4 -6 3 -13 -2
-15 -5 -2 -9 -36 -8 -77 1 -82 -5 -136 -15 -136 -3 0 -5 40 -5 90 1 49 -2 90
-7 90 -4 0 -3 14 2 30 12 32 23 38 35 18z m908 -24 c9 -8 16 -23 16 -32 -1
-15 -2 -15 -11 1 -5 9 -17 17 -24 17 -8 0 -15 7 -15 15 0 19 14 19 34 -1z
m-54 -19 c0 -8 -7 -15 -15 -15 -26 0 -18 20 13 29 1 1 2 -6 2 -14z m-231 -132
c5 -70 6 -130 5 -132 -9 -10 -16 11 -19 56 -2 26 -4 53 -5 58 -5 23 0 158 6
153 3 -4 9 -64 13 -135z m280 70 c14 -11 14 -14 1 -22 -17 -12 -27 -4 -30 24
-4 32 2 53 7 30 3 -11 13 -25 22 -32z m81 8 c0 -6 -4 -13 -10 -16 -5 -3 -10 1
-10 9 0 9 5 16 10 16 6 0 10 -4 10 -9z m-55 -81 c4 -6 -7 -10 -27 -9 -27 0
-30 2 -13 9 27 12 33 12 40 0z m-1217 -165 c0 -83 -4 -147 -9 -151 -6 -3 -9
50 -8 145 0 83 4 151 8 151 5 0 8 -65 9 -145z m1192 115 c0 -5 -5 -10 -11 -10
-5 0 -7 5 -4 10 3 6 8 10 11 10 2 0 4 -4 4 -10z m-911 -85 c-2 -41 -7 -75 -11
-75 -8 0 -12 17 -8 35 7 33 9 44 9 78 1 20 4 37 7 37 3 0 4 -34 3 -75z m941
55 c8 12 10 10 10 -9 0 -21 -3 -23 -32 -17 -37 7 -42 11 -34 25 5 7 13 7 27
-2 16 -10 21 -9 29 3z m-443 -82 c-3 -8 -6 -5 -6 6 -1 11 2 17 5 13 3 -3 4
-12 1 -19z m139 -16 c-2 -15 -4 -47 -5 -71 0 -24 -4 -41 -8 -38 -3 4 -5 31 -4
60 1 28 2 60 2 70 0 9 4 15 9 12 5 -3 7 -18 6 -33z m-139 -34 c-3 -8 -6 -5 -6
6 -1 11 2 17 5 13 3 -3 4 -12 1 -19z m453 2 c0 -13 -6 -16 -25 -12 -32 6 -32
27 0 28 18 1 25 -3 25 -16z m-433 -42 c-2 -13 -4 -5 -4 17 -1 22 1 32 4 23 2
-10 2 -28 0 -40z m-520 -5 c1 -24 -2 -32 -8 -22 -11 18 -12 59 -1 59 4 0 9
-16 9 -37z m500 -30 c-3 -10 -5 -2 -5 17 0 19 2 27 5 18 2 -10 2 -26 0 -35z
m469 -76 c4 -31 10 -59 14 -62 4 -2 6 -17 4 -32 -4 -23 -3 -24 4 -8 9 19 9 19
16 -3 10 -29 10 -29 -39 -21 -22 3 -32 7 -22 8 33 2 15 36 -21 39 -42 4 -37
26 6 30 35 4 41 16 15 31 -14 8 -15 12 -6 22 10 10 9 16 -4 31 -12 14 -13 21
-4 32 6 8 11 18 10 22 -1 5 0 14 1 19 3 18 19 -48 26 -108z m-319 51 c-3 -7
-5 -2 -5 12 0 14 2 19 5 13 2 -7 2 -19 0 -25z m-647 -70 c-1 -75 -2 -81 -15
-64 -18 23 -19 45 -5 82 8 20 8 29 -1 35 -6 4 -8 12 -5 18 18 28 26 4 26 -71z
m520 7 c0 -45 -4 -62 -13 -62 -10 0 -14 18 -15 62 -1 48 2 62 13 62 12 0 15
-15 15 -62z m715 56 c28 5 84 7 125 4 41 -2 101 -6 133 -7 31 -2 57 -6 57 -10
0 -5 15 -8 33 -8 17 0 48 -4 67 -10 19 -5 49 -11 65 -13 17 -2 43 -9 58 -15
16 -7 32 -12 36 -12 4 0 35 -13 69 -30 34 -16 65 -30 68 -30 2 0 30 -19 61
-42 65 -47 68 -43 -62 -80 -38 -10 -84 -28 -102 -38 l-32 -19 -40 39 c-61 60
-147 65 -228 14 -37 -23 -56 -62 -59 -122 -5 -82 -13 -110 -35 -117 -10 -4
-19 -10 -19 -14 0 -5 -11 -8 -25 -8 -14 0 -46 -6 -71 -13 -35 -10 -48 -10 -53
-1 -14 22 -38 2 -33 -29 l4 -29 64 3 c36 2 70 8 77 14 7 5 32 13 56 17 24 4
54 17 66 29 12 11 27 22 32 23 6 1 21 4 34 7 13 2 37 9 52 15 15 6 33 10 39 8
17 -3 22 34 6 44 -7 5 -19 7 -25 4 -7 -2 -13 0 -13 5 0 6 6 10 14 10 21 0 30
20 17 33 -17 17 -13 27 11 36 15 5 30 4 43 -5 13 -9 25 -10 35 -4 40 25 28 6
-17 -28 -51 -38 -51 -38 -33 -61 l17 -24 38 34 c21 19 56 51 78 72 22 20 56
41 76 46 64 16 75 19 111 32 71 25 62 22 115 34 39 8 74 8 125 1 14 -2 30 -4
37 -5 9 -1 12 -61 12 -239 l0 -237 -101 -3 c-56 -1 -104 -4 -106 -7 -5 -5 -10
-33 -11 -72 -1 -16 -8 -23 -28 -25 -19 -2 -32 -12 -42 -32 -12 -26 -12 -31 4
-42 10 -8 29 -11 42 -8 14 4 23 2 23 -5 0 -6 -11 -11 -24 -11 -47 0 -58 -52
-13 -66 18 -6 18 -8 -11 -20 -33 -13 -53 -57 -35 -75 14 -14 40 -1 46 23 4 12
12 18 24 16 16 -3 18 -13 14 -104 -2 -56 0 -120 4 -143 6 -34 11 -41 30 -41
40 0 51 37 30 98 -3 7 -2 53 2 102 l6 89 31 3 c44 4 42 33 -2 32 -18 0 -31 4
-29 10 4 11 96 16 103 5 7 -12 -7 -39 -22 -39 -8 0 -14 -5 -14 -11 0 -8 15
-10 43 -7 l42 5 1 -214 1 -213 -36 -1 c-20 0 -61 -2 -92 -4 -51 -3 -58 -1 -67
21 -19 41 -104 72 -227 82 -60 4 -134 7 -162 6 -29 0 -53 2 -53 7 0 4 -2 14
-5 22 -4 8 10 33 29 56 20 23 42 64 50 89 8 26 39 99 69 162 85 178 115 278
87 295 -5 3 -10 15 -10 25 0 13 -12 22 -37 31 -21 6 -42 14 -48 18 -5 3 -17 6
-25 8 -8 1 -35 5 -60 9 -25 3 -76 8 -115 10 -38 1 -118 6 -177 9 -111 7 -147
0 -248 -43 -19 -9 -39 -15 -43 -14 -14 4 -75 -48 -80 -67 -6 -23 18 -81 33
-81 6 0 9 -4 5 -9 -3 -6 4 -26 15 -46 11 -19 20 -42 20 -50 0 -8 4 -15 9 -15
9 0 45 -54 50 -75 1 -5 10 -19 20 -30 10 -11 24 -37 31 -58 6 -21 23 -51 37
-67 14 -17 20 -30 14 -30 -21 0 -11 -35 22 -69 17 -18 27 -31 20 -27 -7 4 -19
-4 -28 -18 -19 -29 -23 -88 -7 -94 14 -4 16 -38 2 -47 -9 -6 -111 -7 -165 -1
-21 2 -31 8 -32 22 -1 10 -4 51 -7 89 -3 39 -8 81 -11 95 -3 14 -8 50 -11 80
-3 30 -12 97 -20 147 -8 51 -14 158 -14 237 0 135 1 144 20 149 11 3 20 1 20
-5 0 -12 69 -1 86 13 6 5 14 6 17 2 4 -3 7 3 7 15 0 27 -45 37 -97 23 -21 -6
-41 -11 -45 -11 -12 0 -10 208 2 215 5 3 9 -2 8 -12 0 -10 0 -31 0 -47 2 -27
4 -28 34 -22 18 3 42 15 53 26 12 11 27 20 33 20 7 0 12 4 12 10 0 5 7 7 15 4
11 -5 5 -12 -21 -30 -19 -13 -36 -24 -38 -24 -2 0 -20 -7 -39 -15 -47 -19 -41
-49 7 -41 35 5 152 61 162 77 8 14 -14 29 -33 22 -7 -3 -13 0 -13 6 0 6 14 11
30 11 22 0 30 5 31 18 0 12 37 -76 39 -95 0 -2 9 -3 20 -3 27 0 34 35 27 129
-9 132 -34 164 -136 176 -66 8 -100 -2 -112 -33 -7 -18 -13 -22 -18 -14 -8 14
-39 -15 -61 -57 -11 -21 -14 -22 -22 -8 -5 10 -7 21 -3 26 3 5 -2 17 -11 25
-8 9 -11 16 -6 16 5 0 7 46 4 105 l-4 104 28 6 c16 3 37 11 47 16 10 6 27 7
37 4 10 -3 22 -1 25 6 5 7 10 8 14 1 4 -7 23 -7 56 -1z m-1520 -68 c-7 -53
-15 -53 -15 1 0 28 4 45 10 41 5 -3 8 -22 5 -42z m925 -53 c8 12 10 10 10 -8
0 -13 -4 -20 -10 -17 -6 4 -11 -6 -11 -22 -1 -19 -4 -14 -9 16 -6 41 -6 102 1
126 2 6 4 -17 6 -50 3 -41 7 -55 13 -45z m7 58 c-3 -7 -5 -2 -5 12 0 14 2 19
5 13 2 -7 2 -19 0 -25z m253 2 c0 -5 -5 -10 -11 -10 -5 0 -7 5 -4 10 3 6 8 10
11 10 2 0 4 -4 4 -10z m-380 -89 c0 -6 -4 -13 -10 -16 -5 -3 -10 1 -10 9 0 9
5 16 10 16 6 0 10 -4 10 -9z m-522 -266 c0 -140 3 -272 7 -293 3 -21 1 -50 -4
-65 -7 -19 -7 -27 0 -27 7 0 8 -23 4 -67 -4 -38 -6 -75 -6 -83 3 -66 -1 -154
-9 -173 -6 -16 -9 4 -10 68 0 50 -2 205 -3 345 -2 140 1 273 6 295 5 26 5 41
-2 43 -21 7 -8 212 14 212 1 0 2 -115 3 -255z m519 205 c-1 -16 -6 -30 -10
-30 -5 0 -5 -6 0 -12 10 -17 13 -157 3 -163 -12 -7 -18 175 -7 208 12 35 17
34 14 -3z m-813 -128 c-5 -109 -14 -440 -14 -487 1 -5 2 -64 4 -130 1 -66 -1
-176 -6 -245 -9 -140 -16 -249 -17 -297 -1 -21 -6 -33 -15 -33 -11 0 -13 17
-10 88 3 48 7 101 11 117 7 38 12 191 14 475 0 80 2 177 5 215 16 267 21 420
16 433 -3 10 -1 13 7 8 9 -6 10 -42 5 -144z m949 106 c-7 -64 -12 -76 -23 -58
-6 8 -10 20 -10 25 0 6 5 3 10 -5 8 -12 10 -11 10 8 0 12 -4 22 -10 22 -5 0
-10 7 -10 16 0 8 5 12 10 9 6 -3 10 1 10 9 0 9 4 16 9 16 5 0 7 -19 4 -42z
m127 27 c0 -8 -4 -15 -10 -15 -5 0 -7 7 -4 15 4 8 8 15 10 15 2 0 4 -7 4 -15z
m200 -5 c0 -17 -7 -20 -40 -20 -22 0 -40 5 -40 10 0 6 14 10 30 10 17 0 30 5
30 10 0 6 5 10 10 10 6 0 10 -9 10 -20z m-110 -10 c0 -5 -2 -10 -4 -10 -3 0
-8 5 -11 10 -3 6 -1 10 4 10 6 0 11 -4 11 -10z m-90 -40 c0 -5 -4 -10 -9 -10
-6 0 -13 5 -16 10 -3 6 1 10 9 10 9 0 16 -4 16 -10z m216 -69 c1 -25 5 -93 9
-151 3 -58 7 -120 10 -137 2 -18 0 -35 -5 -38 -6 -3 -7 -52 -4 -115 l5 -109
-32 -16 c-31 -16 -32 -16 -24 1 12 30 18 64 11 64 -4 0 -16 -5 -27 -10 -15 -8
-19 -7 -19 3 0 14 29 45 37 39 2 -1 11 2 21 7 15 9 14 10 -5 11 -16 0 -23 6
-23 20 0 11 -4 20 -10 20 -5 0 -10 5 -10 10 0 6 9 10 19 10 15 0 19 7 18 36
-1 32 -3 35 -26 29 -26 -5 -26 -5 4 20 29 24 30 25 6 25 l-23 0 27 36 c29 38
28 52 -3 35 -27 -14 -28 -14 -28 9 0 12 4 16 10 11 9 -10 36 10 36 27 0 6 6
13 13 16 8 4 7 5 -3 5 -40 -3 -45 2 -20 21 20 16 22 20 8 20 -10 0 -18 5 -18
10 0 6 5 10 10 10 6 0 10 4 10 10 0 5 -14 7 -32 4 -27 -4 -30 -3 -15 6 9 6 17
20 17 30 0 11 5 20 10 20 18 0 10 39 -11 53 -20 15 -20 15 8 24 35 12 44 -1
49 -66z m326 7 c6 -39 -10 -56 -57 -60 -39 -2 -40 -2 -37 27 5 47 17 60 55 61
31 0 36 -3 39 -28z m-669 -2 c3 -7 1 -18 -5 -24 -6 -6 -7 -19 -4 -29 4 -10 10
-48 12 -86 3 -51 1 -67 -8 -65 -10 2 -12 -15 -11 -67 2 -48 0 -64 -6 -49 -6
14 -7 289 -1 332 1 8 19 0 23 -12z m364 -98 c-3 -8 -6 -5 -6 6 -1 11 2 17 5
13 3 -3 4 -12 1 -19z m-510 -70 c-2 -13 -4 -3 -4 22 0 25 2 35 4 23 2 -13 2
-33 0 -45z m150 -85 c-3 -10 -5 -4 -5 12 0 17 2 24 5 18 2 -7 2 -21 0 -30z
m-148 -103 c-5 -10 -8 10 -7 55 l0 70 8 -55 c5 -30 4 -61 -1 -70z m-1039 6 c0
-19 -6 -25 -32 -29 -48 -7 -151 -27 -167 -33 -10 -3 -10 -8 -2 -18 9 -10 0
-15 -42 -24 -28 -7 -70 -10 -92 -7 -22 3 -55 6 -72 7 -49 2 -40 18 11 18 27 0
52 7 67 18 14 11 72 28 135 40 89 17 160 36 192 51 1 0 2 -10 2 -23z m2159 -6
c17 0 31 -5 31 -12 0 -6 -3 -8 -6 -5 -9 9 -46 -12 -39 -23 3 -5 27 -6 53 -3
37 4 58 0 92 -16 24 -11 52 -21 61 -21 24 0 35 20 18 31 -10 6 -10 9 -2 9 7 0
17 -9 23 -21 11 -20 3 -41 -25 -61 -15 -11 -181 -46 -270 -57 -101 -12 -256
-4 -270 13 -6 7 -19 13 -30 12 -28 -1 -31 18 -3 25 20 5 21 7 6 14 -14 5 -15
10 -6 25 7 10 15 17 19 14 4 -2 10 0 14 5 3 6 11 8 18 5 8 -3 27 2 43 11 26
13 26 15 7 15 -12 0 -25 5 -28 10 -5 7 24 10 87 8 86 -2 96 0 116 20 18 18 27
20 42 12 10 -5 32 -10 49 -10z m-689 -5 c0 -8 -4 -15 -10 -15 -5 0 -7 7 -4 15
4 8 8 15 10 15 2 0 4 -7 4 -15z m-288 -25 c5 -34 -7 -41 -15 -8 -5 19 -2 38 7
38 2 0 6 -13 8 -30z m1155 4 c-3 -3 -12 -4 -19 -1 -8 3 -5 6 6 6 11 1 17 -2
13 -5z m-536 -24 c-29 -11 -59 -24 -67 -31 -16 -13 -18 -1 -4 21 5 8 12 12 15
8 4 -3 21 0 38 7 18 8 41 14 52 14 11 0 -4 -8 -34 -19z m-1801 -83 c0 -43 5
-78 12 -85 8 -8 8 -12 1 -12 -7 0 -9 -77 -6 -257 2 -142 1 -277 -2 -300 l-6
-42 -140 1 -140 1 5 46 c3 25 8 73 12 106 3 33 8 63 11 68 2 4 2 16 -2 26 -5
18 -13 19 -98 15 -118 -7 -113 -6 -171 -32 -93 -42 -136 -52 -221 -52 -109 0
-128 8 -144 60 -18 61 -42 80 -100 80 -49 0 -49 1 -145 98 -95 95 -96 97 -75
112 12 8 29 15 38 16 34 5 97 28 113 42 9 8 21 11 26 8 5 -3 15 1 22 9 15 18
107 45 153 45 19 0 47 4 63 10 100 33 252 45 383 31 82 -9 129 -10 157 -3 21
6 80 10 131 10 50 0 96 3 102 6 19 12 -1 36 -33 37 -27 2 -28 2 -6 6 14 3 29
9 35 14 20 19 25 6 25 -64z m1048 38 c0 -14 -3 -25 -7 -25 -4 0 -8 11 -9 25
-1 14 2 25 7 25 5 0 9 -11 9 -25z m148 -138 c1 -128 0 -139 -6 -67 -4 47 -11
118 -15 158 -7 60 -6 72 6 67 11 -4 14 -37 15 -158z m1590 150 c4 -4 -14 -7
-40 -7 -26 0 -45 4 -42 9 7 11 71 9 82 -2z m-1555 -54 c-8 -15 -10 -15 -11 -2
0 17 10 32 18 25 2 -3 -1 -13 -7 -23z m1549 6 c0 -5 -20 -9 -44 -9 -25 0 -47
4 -50 9 -3 5 17 9 44 9 28 0 50 -4 50 -9z m70 4 c0 -5 -11 -8 -25 -8 -14 0
-25 3 -25 8 0 4 11 7 25 7 14 0 25 -3 25 -7z m-1813 -45 c-3 -8 -6 -5 -6 6 -1
11 2 17 5 13 3 -3 4 -12 1 -19z m1351 -7 c-38 -74 -41 -78 -67 -79 -14 0 -46
-7 -71 -16 -33 -11 -183 -36 -217 -36 -2 0 -3 -5 -3 -11 0 -23 233 7 267 33 7
5 17 7 23 3 15 -9 -17 -65 -38 -66 -9 0 -26 -2 -37 -3 -11 -2 -45 -6 -75 -10
-30 -4 -63 -10 -73 -12 -23 -7 -16 -30 9 -27 10 1 43 5 73 8 30 3 65 8 78 11
27 7 30 -7 7 -27 -17 -14 -24 -16 -113 -27 -33 -4 -56 -13 -59 -21 -4 -12 8
-13 67 -7 66 6 72 5 69 -11 -3 -15 -16 -19 -76 -21 -87 -3 -96 -25 -13 -30 45
-3 52 -6 46 -20 -4 -9 -10 -27 -12 -39 -6 -26 -30 -49 -40 -39 -4 4 -2 16 5
26 21 35 15 43 -29 37 -22 -3 -48 -12 -57 -20 -15 -14 -20 -13 -47 9 -23 18
-26 24 -12 24 36 0 15 16 -40 30 -34 9 -58 21 -58 28 0 7 -9 21 -21 30 -18 14
-104 154 -104 168 0 3 -11 22 -25 42 -25 37 -31 53 -17 50 4 0 15 2 25 7 11 5
29 2 44 -6 20 -11 75 -14 225 -14 194 0 230 -7 96 -20 -46 -4 -68 -11 -72 -22
-6 -15 2 -15 143 2 69 8 121 30 148 61 15 18 32 30 40 27 8 -3 12 -8 11 -12z
m462 2 c0 -9 -11 -11 -32 -9 -18 3 -40 5 -48 6 -22 3 31 17 57 16 13 -1 23 -7
23 -13z m-220 -14 c-7 -11 -14 -18 -17 -15 -8 8 5 36 17 36 7 0 7 -6 0 -21z
m108 14 c-10 -2 -26 -2 -35 0 -10 3 -2 5 17 5 19 0 27 -2 18 -5z m-1271 -19
c-3 -3 -12 -4 -19 -1 -8 3 -5 6 6 6 11 1 17 -2 13 -5z m1383 -59 c0 -34 -1
-34 -39 -30 -21 2 -56 -1 -77 -5 -36 -8 -51 -2 -42 16 2 4 31 6 65 5 37 -1 64
2 68 9 11 19 0 22 -74 21 -39 0 -71 4 -71 9 0 5 6 7 13 5 6 -3 41 -1 77 3 36
5 68 7 73 5 4 -3 7 -20 7 -38z m-4202 22 c6 -6 13 -24 17 -39 8 -31 191 -211
206 -202 5 3 9 -4 9 -14 0 -11 7 -25 15 -32 21 -18 19 -33 -9 -59 -44 -41 -78
-129 -77 -193 1 -48 -2 -58 -15 -58 -14 0 -16 8 -10 61 4 34 12 70 19 80 14
23 8 30 -21 23 -26 -7 -32 -26 -41 -117 -7 -80 -26 -99 -36 -38 -8 45 2 116
18 143 17 27 -3 42 -30 23 -30 -21 -48 -110 -33 -165 6 -22 8 -45 5 -50 -9
-14 -42 -12 -51 2 -11 17 -11 108 -1 146 6 23 5 38 -4 48 -9 12 -9 13 3 9 10
-4 18 6 27 36 7 22 10 44 6 47 -29 29 -88 -127 -83 -221 2 -35 -1 -56 -7 -54
-18 6 -17 154 1 215 9 32 20 62 25 68 10 12 2 44 -10 44 -24 0 -43 -35 -61
-110 -24 -103 -26 -180 -4 -226 9 -19 15 -36 13 -37 -27 -17 -79 -34 -79 -26
0 6 -11 25 -25 43 -14 18 -25 42 -25 54 0 11 -5 24 -11 28 -7 4 -9 28 -4 73
12 117 51 245 100 325 35 58 35 67 4 59 -37 -10 -108 -165 -125 -273 -10 -65
-27 -87 -19 -25 6 51 57 221 77 259 25 48 125 143 168 159 26 10 57 7 68 -6z
m2897 -37 c-3 -21 -59 -50 -76 -39 -12 8 -12 11 1 19 8 5 21 10 28 10 6 0 12
5 12 10 0 6 -6 10 -12 10 -7 1 -2 10 12 21 23 20 24 20 31 2 3 -10 5 -25 4
-33z m-11 -77 c-6 -24 -5 -26 8 -15 13 10 17 9 22 -10 3 -13 6 -43 6 -68 0
-25 5 -72 11 -105 6 -33 13 -98 15 -144 2 -47 6 -91 8 -98 9 -22 -14 -71 -37
-77 -31 -8 -34 1 -3 15 20 9 23 15 15 26 -6 7 -18 13 -25 13 -8 0 -14 5 -14
10 0 6 9 10 19 10 38 0 32 20 -6 21 -27 1 -31 3 -13 6 31 6 51 23 27 23 -14 0
-16 6 -11 25 6 24 4 25 -19 20 -15 -4 -28 -2 -32 6 -5 7 -4 10 2 6 6 -4 19 0
29 8 18 13 16 14 -21 15 l-40 1 24 19 c13 11 30 20 37 20 10 0 13 7 8 26 -4
17 -2 29 7 35 11 7 10 9 -3 9 -11 0 -18 8 -18 21 0 13 -5 18 -12 14 -7 -4 1 5
17 20 26 23 27 26 8 20 -20 -5 -23 -2 -24 22 -1 15 -1 34 0 41 2 10 -6 12 -31
7 -31 -6 -32 -5 -14 10 11 8 26 15 33 15 7 0 10 6 7 15 -4 10 -15 13 -33 10
-23 -5 -21 -3 9 13 48 27 51 26 44 -5z m-1454 13 c0 -3 -4 -8 -10 -11 -5 -3
-10 -1 -10 4 0 6 5 11 10 11 6 0 10 -2 10 -4z m1187 -32 c-3 -3 -12 -4 -19 -1
-8 3 -5 6 6 6 11 1 17 -2 13 -5z m-220 -86 c-2 -18 -4 -6 -4 27 0 33 2 48 4
33 2 -15 2 -42 0 -60z m154 5 c2 -23 0 -45 -4 -49 -4 -4 -7 17 -7 46 0 62 7
64 11 3z m-1121 18 c0 -6 -4 -13 -10 -16 -5 -3 -10 1 -10 9 0 9 5 16 10 16 6
0 10 -4 10 -9z m449 -141 c9 0 6 -429 -4 -452 -4 -11 -3 -18 4 -18 6 0 11 -5
11 -11 0 -5 -4 -8 -9 -4 -5 3 -11 -2 -13 -11 -2 -10 -3 120 -3 287 0 167 1
283 3 257 2 -27 7 -48 11 -48z m-439 66 c0 -17 -14 -29 -23 -20 -8 8 3 34 14
34 5 0 9 -6 9 -14z m945 -156 l-15 -65 5 60 c3 33 9 87 13 120 l7 60 3 -55 c1
-30 -4 -84 -13 -120z m174 74 c-2 -50 -3 -54 -17 -40 -12 11 -13 18 -4 29 7 8
9 16 6 20 -6 6 4 47 12 47 2 0 3 -25 3 -56z m66 36 c3 -5 -1 -10 -10 -10 -9 0
-13 5 -10 10 3 6 8 10 10 10 2 0 7 -4 10 -10z m-2235 -15 c7 -9 14 -34 15 -56
l2 -41 -24 26 c-25 27 -31 29 -78 26 -25 -2 -27 0 -16 14 7 9 17 14 21 11 4
-3 19 4 31 15 29 24 33 24 49 5z m1058 -22 c-2 -10 -10 -18 -18 -18 -8 0 -16
8 -18 18 -2 12 3 17 18 17 15 0 20 -5 18 -17z m-424 -28 c20 -15 19 -54 -5
-207 -12 -78 -18 -82 -107 -72 -83 9 -89 20 -62 119 11 41 21 93 22 115 1 35
5 41 27 46 14 3 31 7 36 9 25 8 72 3 89 -10z m1606 5 c0 -5 -4 -10 -10 -10 -5
0 -10 5 -10 10 0 6 5 10 10 10 6 0 10 -4 10 -10z m727 -70 c2 -41 -18 -57 -31
-24 -12 32 -7 64 12 64 14 0 18 -9 19 -40z m73 5 c0 -19 -4 -35 -10 -35 -5 0
-10 16 -10 35 0 19 5 35 10 35 6 0 10 -16 10 -35z m78 -18 c-6 -34 -23 -22
-26 18 -2 38 -1 39 13 20 9 -11 14 -28 13 -38z m-3152 15 c8 -12 21 -19 29
-16 10 4 15 0 15 -13 0 -33 -10 -33 -53 -2 -40 29 -71 36 -95 21 -16 -11 7
-32 65 -58 24 -11 43 -26 43 -35 0 -9 10 -23 23 -32 l22 -15 -37 -16 c-46 -20
-78 -20 -103 -2 -17 12 -15 14 20 12 55 -2 58 24 7 47 -21 9 -48 17 -60 17
-26 0 -27 11 -6 73 l16 47 50 -4 c36 -2 53 -9 64 -24z m2209 20 c6 -4 10 -32
11 -62 3 -137 15 -314 21 -319 5 -3 8 -44 9 -91 1 -51 -2 -77 -7 -65 -4 11 -8
35 -8 53 -1 17 -5 32 -9 32 -5 0 -9 15 -9 33 0 49 -14 360 -17 379 -1 10 -5
21 -9 24 -18 18 -2 31 18 16z m-1761 -61 c-3 -32 -12 -85 -20 -117 l-14 -59 5
58 c5 51 3 57 -14 57 -22 0 -31 -26 -31 -89 0 -37 3 -42 17 -37 13 5 11 0 -6
-18 -14 -15 -28 -26 -32 -26 -4 0 -8 43 -8 96 0 54 -3 100 -6 103 -3 3 -13 1
-21 -4 -13 -8 -16 -31 -16 -112 1 -105 -5 -125 -29 -96 -11 13 -11 17 -1 20 8
3 12 34 12 109 0 57 -3 104 -6 104 -3 0 -14 -5 -25 -11 -18 -9 -19 -17 -13
-66 5 -45 4 -55 -7 -51 -9 3 -16 27 -19 74 l-5 69 -39 -3 c-28 -3 -37 0 -34 9
3 10 24 13 79 11 48 -1 98 4 144 17 103 27 97 30 89 -38z m646 29 c0 -19 -20
-27 -33 -13 -8 7 11 33 24 33 5 0 9 -9 9 -20z m957 -57 c-2 -16 -4 -5 -4 22 0
28 2 40 4 28 2 -13 2 -35 0 -50z m228 57 c3 -5 -1 -10 -9 -10 -8 0 -18 5 -21
10 -3 6 1 10 9 10 8 0 18 -4 21 -10z m23 -67 c5 -17 -23 -16 -37 1 -9 10 -7
13 11 12 12 0 23 -7 26 -13z m1067 8 c18 -2 18 -3 -3 -12 -30 -11 -19 -29 17
-29 30 0 119 -27 139 -43 6 -5 12 -16 12 -23 0 -17 -32 -18 -48 -2 -9 9 -16 8
-30 -5 -15 -14 -46 -17 -190 -19 -132 -2 -172 0 -172 10 0 8 17 12 51 12 48 0
50 1 43 23 -4 12 -11 25 -17 28 -15 10 2 29 27 29 12 0 27 -5 33 -11 6 -6 16
-8 22 -5 15 10 14 36 -1 37 -7 1 1 5 17 9 17 4 41 6 55 5 14 -2 34 -4 45 -4z
m-3269 -28 c-10 -10 -19 5 -10 18 6 11 8 11 12 0 2 -7 1 -15 -2 -18z m67 14
c3 -8 1 -20 -4 -28 -6 -10 -9 -7 -9 14 0 29 5 35 13 14z m933 -8 c10 -17 -13
-36 -27 -22 -12 12 -4 33 11 33 5 0 12 -5 16 -11z m2448 -9 c17 -17 2 -19 -54
-4 -79 20 -83 25 -15 19 33 -3 64 -10 69 -15z m-1477 -12 c-3 -8 -6 -5 -6 6
-1 11 2 17 5 13 3 -3 4 -12 1 -19z m443 8 c0 -3 -4 -8 -10 -11 -5 -3 -10 -1
-10 4 0 6 5 11 10 11 6 0 10 -2 10 -4z m524 -17 c-33 -13 -48 -11 -35 5 7 8
21 12 33 8 21 -5 21 -6 2 -13z m549 -23 c6 -16 -18 -54 -28 -45 -8 9 5 59 15
59 4 0 10 -6 13 -14z m-1534 -43 c0 -36 -2 -43 -9 -27 -7 18 -3 74 6 74 2 0 4
-21 3 -47z m31 37 c0 -5 -4 -10 -10 -10 -5 0 -10 5 -10 10 0 6 5 10 10 10 6 0
10 -4 10 -10z m220 0 c0 -5 -12 -10 -26 -10 -14 0 -23 4 -19 10 3 6 15 10 26
10 10 0 19 -4 19 -10z m-283 -32 c-3 -8 -6 -5 -6 6 -1 11 2 17 5 13 3 -3 4
-12 1 -19z m-938 -2 c14 -17 0 -29 -23 -20 -17 7 -20 16 -9 27 10 11 19 8 32
-7z m-1734 -77 c153 -101 189 -124 200 -125 6 0 31 -10 58 -22 46 -21 47 -22
41 -57 -3 -23 -1 -42 7 -52 11 -12 10 -17 -3 -27 -10 -8 -14 -21 -11 -37 4
-22 0 -27 -37 -38 -23 -7 -44 -10 -47 -7 -11 10 13 31 37 31 17 0 24 5 21 15
-3 8 -6 34 -9 58 -2 23 -6 42 -9 42 -17 0 -43 -24 -43 -40 0 -11 -8 -24 -19
-29 -15 -9 -18 -18 -14 -55 5 -39 3 -45 -17 -51 -12 -4 -23 -5 -26 -3 -2 3 0
29 6 58 15 77 13 120 -4 120 -24 0 -31 -18 -43 -120 -7 -66 -19 -100 -34 -100
-7 0 -9 16 -5 48 13 103 16 181 7 186 -26 17 -38 -8 -49 -107 -6 -56 -14 -117
-18 -136 -11 -54 26 -63 86 -21 14 9 71 32 128 50 86 27 105 30 118 19 26 -21
112 -48 136 -42 33 8 50 24 45 43 -6 24 95 45 181 36 83 -8 94 -10 108 -18 5
-4 19 -5 30 -4 10 2 26 -2 34 -10 9 -8 47 -14 93 -16 42 -2 77 -6 77 -11 0 -4
11 -13 25 -19 14 -6 25 -17 25 -23 0 -22 -190 -106 -305 -135 -16 -4 -38 -11
-47 -15 -14 -5 -18 -2 -18 13 0 11 -6 24 -12 30 -21 17 -110 21 -147 6 -28
-12 -32 -18 -27 -39 6 -22 4 -24 -26 -21 -46 3 -209 42 -298 71 -41 13 -97 26
-125 30 -27 4 -64 14 -82 23 -35 17 -35 17 -11 125 13 61 13 196 -1 210 -5 5
-17 7 -26 3 -13 -4 -16 -19 -14 -68 1 -35 -1 -74 -4 -88 -3 -14 -11 -61 -17
-105 -14 -90 -25 -110 -39 -73 -6 17 -5 46 4 90 24 112 25 122 19 171 -4 29
-11 46 -18 44 -6 -2 -10 -12 -10 -21 1 -9 -4 -16 -10 -16 -8 0 -11 11 -8 29 3
21 10 31 25 33 23 3 33 28 23 55 -5 13 -9 14 -18 5 -20 -20 -23 -14 -23 43 0
38 5 59 14 65 12 7 13 13 3 35 -14 29 -7 49 12 38 6 -5 57 -38 111 -74z m-5
65 c0 -8 -4 -12 -10 -9 -5 3 -10 10 -10 16 0 5 5 9 10 9 6 0 10 -7 10 -16z
m493 9 c-7 -2 -19 -2 -25 0 -7 3 -2 5 12 5 14 0 19 -2 13 -5z m1334 -25 c-3
-7 -5 -2 -5 12 0 14 2 19 5 13 2 -7 2 -19 0 -25z m1141 -29 c-6 -4 -19 -4 -30
-1 -20 5 -20 6 3 23 22 17 24 17 30 1 4 -9 2 -20 -3 -23z m172 31 c0 -5 -2
-10 -4 -10 -3 0 -8 5 -11 10 -3 6 -1 10 4 10 6 0 11 -4 11 -10z m120 6 c0 -2
-7 -6 -15 -10 -8 -3 -15 -1 -15 4 0 6 7 10 15 10 8 0 15 -2 15 -4z m-160 -38
c0 -14 -17 -8 -35 12 -17 19 -17 19 9 7 14 -7 26 -15 26 -19z m-2305 6 c28 -9
85 -65 85 -84 0 -15 -24 -27 -90 -45 l-25 -7 23 21 c39 38 25 64 -41 76 -36 7
-268 10 -436 5 -71 -2 -84 -5 -88 -20 -5 -20 -45 -31 -65 -19 -19 12 -2 24 73
48 40 13 82 20 105 18 22 -3 44 -1 49 4 6 4 35 9 65 11 76 5 321 -1 345 -8z
m2450 -4 c-10 -11 -21 -17 -24 -14 -3 3 3 12 13 20 28 20 32 17 11 -6z m329
-4 c-7 -31 11 -66 36 -66 10 0 20 -6 23 -12 2 -7 7 -10 11 -7 4 4 -3 27 -15
53 -13 25 -21 48 -18 51 3 2 31 0 64 -5 65 -11 259 -15 273 -6 5 3 14 -6 20
-19 9 -19 19 -25 42 -25 16 0 30 -4 30 -10 0 -5 -4 -10 -10 -10 -5 0 -10 -7
-10 -15 0 -10 10 -15 33 -15 44 0 107 -11 107 -19 0 -3 -38 -4 -85 -2 -59 2
-85 0 -85 -8 0 -17 28 -25 44 -12 10 9 16 9 21 1 4 -6 13 -9 21 -6 8 3 26 1
39 -4 21 -8 24 -13 16 -28 -9 -17 -16 -18 -64 -9 -30 6 -62 7 -71 4 -31 -12
-15 -26 39 -32 81 -10 74 -33 -10 -37 -75 -3 -88 -23 -17 -24 65 -1 64 0 47
-35 -13 -24 -20 -29 -38 -23 -37 12 -51 10 -55 -8 -3 -14 3 -18 27 -18 32 0
43 -21 19 -37 -14 -8 -19 -9 -61 -11 -19 -2 -30 -9 -37 -27 -5 -14 -17 -25
-26 -25 -14 0 -16 -9 -12 -70 4 -50 2 -70 -6 -67 -6 2 -12 13 -14 25 -2 11
-10 26 -18 32 -19 17 -18 66 2 74 11 4 13 13 8 28 -8 29 -21 37 -45 31 -15 -4
-19 0 -19 23 0 16 -27 83 -60 150 -50 100 -65 123 -85 127 -32 6 -37 -2 -51
-93 -14 -87 -80 -315 -101 -347 -12 -19 -19 -20 -41 -12 -57 22 -92 42 -92 53
0 6 31 74 70 151 38 77 71 156 73 175 2 19 11 53 21 75 9 22 24 57 33 78 18
41 37 50 27 13z m-2363 -12 c12 -7 -36 -38 -175 -108 -48 -25 -93 -43 -98 -40
-5 3 -14 1 -21 -4 -37 -29 -367 -79 -367 -56 0 12 15 17 95 30 107 17 231 58
305 100 14 8 44 24 68 36 24 12 53 32 65 43 19 17 29 19 69 13 27 -4 53 -10
59 -14z m537 4 c-7 -20 -48 -23 -48 -4 0 11 9 16 26 16 16 0 24 -5 22 -12z
m82 -25 c0 -27 -3 -34 -11 -26 -7 7 -9 23 -5 37 9 37 16 32 16 -11z m480 15
c29 -32 25 -46 -11 -42 -31 4 -58 27 -59 52 0 20 48 14 70 -10z m399 -55 c-1
-32 -4 -48 -6 -35 -2 12 -9 22 -16 22 -8 0 -8 3 1 12 7 7 12 22 12 35 0 13 2
23 5 23 3 0 4 -26 4 -57z m315 42 c-4 -8 -8 -15 -10 -15 -2 0 -4 7 -4 15 0 8
4 15 10 15 5 0 7 -7 4 -15z m136 -7 c0 -16 -3 -19 -11 -11 -6 6 -8 16 -5 22
11 17 16 13 16 -11z m96 3 c-4 -5 -24 -24 -46 -41 l-40 -32 0 26 c0 19 4 24
19 21 11 -2 22 3 25 11 3 8 12 14 21 14 8 0 15 5 15 12 0 6 3 9 6 5 3 -3 3
-10 0 -16z m-306 -1 c0 -5 -4 -10 -10 -10 -5 0 -10 5 -10 10 0 6 5 10 10 10 6
0 10 -4 10 -10z m34 2 c3 -5 -1 -9 -9 -9 -8 0 -15 4 -15 9 0 4 4 8 9 8 6 0 12
-4 15 -8z m1210 -1 c12 -20 -21 -29 -82 -24 -74 7 -70 20 8 26 30 2 58 4 62 5
4 1 9 -2 12 -7z m-2943 -108 c9 -54 12 -102 8 -107 -5 -6 -19 -4 -34 4 -17 9
-22 17 -15 24 5 5 10 20 10 33 0 17 -6 23 -21 23 -18 0 -20 -5 -17 -37 3 -42
-16 -57 -26 -18 -7 27 -46 36 -46 10 0 -8 -4 -15 -10 -15 -5 0 -10 8 -10 18 0
10 -3 21 -6 25 -11 11 -34 -5 -34 -24 0 -20 -15 -26 -25 -9 -3 6 -16 10 -27
10 -18 0 -20 -4 -15 -40 3 -22 1 -43 -5 -46 -14 -9 -20 1 -23 38 -3 34 -15 44
-42 34 -11 -5 -13 -10 -6 -17 12 -12 5 -59 -9 -59 -6 0 -8 9 -5 19 2 10 1 24
-3 31 -13 20 -40 3 -40 -25 0 -22 -18 -37 -21 -17 -8 53 -7 60 17 71 14 6 35
11 47 11 13 0 33 7 45 16 12 8 22 13 22 10 0 -9 64 16 83 32 9 8 17 12 17 9 0
-8 106 49 139 75 13 10 26 18 30 18 3 0 13 -44 22 -97z m1849 93 c0 -2 -7 -7
-16 -10 -8 -3 -12 -2 -9 4 6 10 25 14 25 6z m-2387 -15 c27 -2 10 -21 -19 -21
-28 0 -42 -24 -25 -44 14 -17 5 -20 -72 -31 -40 -5 -51 -3 -65 13 -45 51 -192
56 -192 7 0 -12 -5 -12 -35 2 -47 22 -44 33 9 33 35 0 48 5 60 22 14 19 21 21
88 15 40 -3 93 -2 118 2 25 4 61 7 80 5 19 -1 43 -2 53 -3z m1040 -16 c-3 -17
-27 -17 -48 0 -19 15 -18 15 15 13 19 -2 34 -7 33 -13z m1352 -23 c-8 -8 -25
10 -19 20 4 6 9 5 15 -3 4 -7 6 -15 4 -17z m45 -2 c0 -16 -4 -30 -8 -30 -5 0
-7 14 -4 30 2 17 6 30 8 30 2 0 4 -13 4 -30z m-192 -10 c-2 -6 -8 -6 -18 0
-13 9 -13 11 0 20 15 10 25 0 18 -20z m-1059 -9 c9 -6 10 -11 2 -15 -13 -8
-31 1 -31 15 0 11 11 11 29 0z m-1459 -50 c0 -5 -9 -11 -20 -14 -22 -6 -28 8
-7 16 19 8 27 8 27 -2z m1736 -17 c-3 -7 -1 -16 4 -19 6 -4 10 -16 9 -28 0
-14 -2 -17 -6 -7 -2 8 -7 22 -10 30 -12 31 -13 51 -2 45 6 -4 8 -13 5 -21z
m531 -56 c-2 -13 -4 -3 -4 22 0 25 2 35 4 23 2 -13 2 -33 0 -45z m232 33 c-15
-5 -22 6 -14 19 6 9 10 9 16 -1 5 -8 4 -15 -2 -18z m711 9 c0 -5 -7 -10 -15
-10 -8 0 -15 5 -15 10 0 6 7 10 15 10 8 0 15 -4 15 -10z m-1740 -10 c0 -5 -2
-10 -4 -10 -3 0 -8 5 -11 10 -3 6 -1 10 4 10 6 0 11 -4 11 -10z m1239 -32 c0
-27 -2 -29 -8 -13 -5 11 -6 26 -4 33 8 21 13 13 12 -20z m-2649 1 c0 -5 -4 -9
-10 -9 -5 0 -10 7 -10 16 0 8 5 12 10 9 6 -3 10 -10 10 -16z m1447 15 c-3 -3
-12 -4 -19 -1 -8 3 -5 6 6 6 11 1 17 -2 13 -5z m-1160 -54 c1 -29 -2 -48 -8
-45 -5 4 -9 15 -9 25 0 30 -11 50 -29 51 -12 0 -12 2 4 9 35 15 40 11 42 -40z
m-71 25 c-3 -8 -1 -27 4 -41 9 -22 7 -25 -7 -22 -24 4 -36 65 -14 71 9 3 18 5
20 6 2 0 1 -6 -3 -14z m2294 6 c0 -12 -30 -22 -43 -14 -7 4 -3 9 9 14 26 10
34 10 34 0z m-2372 -42 c-1 -13 -7 -23 -13 -22 -13 3 -18 30 -11 50 10 24 29
1 24 -28z m415 35 c3 -3 3 -12 0 -20 -4 -11 -9 -12 -19 -3 -8 6 -11 15 -8 20
6 10 18 12 27 3z m67 -8 c0 -8 -4 -17 -9 -21 -12 -7 -24 12 -16 25 9 15 25 12
25 -4z m68 -4 c2 -7 -3 -12 -12 -12 -9 0 -16 7 -16 16 0 17 22 14 28 -4z m722
8 c0 -5 -2 -10 -4 -10 -3 0 -8 5 -11 10 -3 6 -1 10 4 10 6 0 11 -4 11 -10z
m-1354 -27 c-10 -10 -19 5 -10 18 6 11 8 11 12 0 2 -7 1 -15 -2 -18z m712 5
c-3 -7 -11 -13 -18 -13 -7 0 -15 6 -17 13 -3 7 4 12 17 12 13 0 20 -5 18 -12z
m1439 -20 c-3 -8 -6 -5 -6 6 -1 11 2 17 5 13 3 -3 4 -12 1 -19z m998 1 c5 -5
-14 -9 -48 -9 -50 0 -67 7 -53 21 8 8 90 -2 101 -12z m-798 -11 c-3 -8 -6 -5
-6 6 -1 11 2 17 5 13 3 -3 4 -12 1 -19z m-1987 -7 c0 -5 -11 -11 -25 -13 -28
-6 -35 8 -7 15 28 8 32 7 32 -2z m205 -1 c-3 -5 -10 -10 -16 -10 -5 0 -9 5 -9
10 0 6 7 10 16 10 8 0 12 -4 9 -10z m1885 0 c0 -5 -4 -10 -10 -10 -5 0 -10 5
-10 10 0 6 5 10 10 10 6 0 10 -4 10 -10z m-2530 -15 c0 -8 -9 -24 -20 -35 -11
-11 -27 -20 -35 -20 -24 0 -17 30 10 40 14 5 25 14 25 20 0 5 5 10 10 10 6 0
10 -7 10 -15z m525 5 c3 -5 -3 -10 -14 -10 -12 0 -21 5 -21 10 0 6 6 10 14 10
8 0 18 -4 21 -10z m2725 -21 c7 -11 10 -22 8 -24 -2 -1 -38 -5 -81 -7 -73 -3
-78 -2 -75 16 3 17 12 21 56 22 30 2 56 5 60 8 10 11 21 6 32 -15z m-2470 -13
c0 -7 7 -19 16 -27 25 -21 58 -93 45 -97 -7 -2 -32 -21 -57 -43 -54 -46 -81
-60 -204 -97 -168 -52 -209 -63 -261 -69 -49 -6 -51 -5 -47 17 2 19 17 28 88
52 150 50 247 105 328 185 39 39 72 77 72 82 0 6 5 11 10 11 6 0 10 -6 10 -14z
m1754 8 c13 -5 14 -9 5 -20 -10 -13 -39 -20 -39 -10 0 8 12 36 15 36 2 0 11
-3 19 -6z m143 -28 c-5 -13 -75 -56 -92 -56 -3 0 -5 6 -5 14 0 7 14 16 30 20
19 3 34 15 42 31 12 27 35 19 25 -9z m-2082 3 c-7 -10 -35 -1 -35 11 0 5 9 6
20 3 11 -3 17 -9 15 -14z m1505 17 c0 -3 -4 -8 -10 -11 -5 -3 -10 -1 -10 4 0
6 5 11 10 11 6 0 10 -2 10 -4z m-67 -13 c-7 -2 -19 -2 -25 0 -7 3 -2 5 12 5
14 0 19 -2 13 -5z m272 -3 c-3 -5 -13 -10 -21 -10 -8 0 -12 5 -9 10 3 6 13 10
21 10 8 0 12 -4 9 -10z m59 -3 c16 -12 16 -14 2 -26 -14 -12 -16 -12 -11 1 4
9 -3 19 -17 26 -15 7 -18 11 -7 11 8 1 23 -5 33 -12z m-3012 -29 c-8 -8 -9 -4
-5 13 4 13 8 18 11 10 2 -7 -1 -18 -6 -23z m1288 12 c0 -5 -5 -10 -11 -10 -5
0 -7 5 -4 10 3 6 8 10 11 10 2 0 4 -4 4 -10z m1312 -2 c-21 -8 -129 -8 -160 0
-13 4 22 7 77 7 55 0 93 -3 83 -7z m1267 -44 c-8 -10 -21 -13 -35 -10 -13 4
-42 2 -64 -3 -43 -10 -55 -3 -45 28 5 16 13 18 69 14 47 -4 65 -2 72 8 7 11 9
10 12 -4 2 -10 -2 -25 -9 -33z m-679 26 c0 -5 -9 -9 -20 -7 -31 5 -36 17 -7
17 15 0 27 -4 27 -10z m-350 -44 c0 -12 -4 -16 -8 -10 -9 13 -77 17 -100 5
-37 -20 -175 -15 -236 9 -36 13 -27 25 11 15 26 -7 63 -14 88 -16 6 0 31 2 58
6 33 6 47 4 47 -4 0 -6 5 -11 12 -11 6 0 8 3 4 7 -8 9 93 31 112 25 6 -2 12
-14 12 -26z m1102 12 c-15 -15 -16 -64 -2 -73 15 -9 12 -35 -4 -35 -16 0 -30
59 -20 86 10 26 26 46 32 39 3 -3 0 -11 -6 -17z m177 -38 c5 -17 8 -37 5 -45
-3 -7 4 -18 16 -25 29 -16 15 -30 -30 -30 l-39 0 15 28 c9 17 12 40 8 65 -7
45 10 50 25 7z m-339 -19 c0 -22 -48 -35 -67 -19 -22 18 -15 27 25 31 20 2 38
4 40 5 1 1 2 -6 2 -17z m68 2 c-4 -22 -48 -31 -48 -10 0 19 10 27 32 27 13 0
18 -6 16 -17z m-951 -25 c-3 -8 -6 -5 -6 6 -1 11 2 17 5 13 3 -3 4 -12 1 -19z
m21 -61 c0 -46 2 -87 3 -93 3 -18 -1 -34 -10 -34 -13 0 -19 159 -7 186 6 13
12 24 12 24 1 0 2 -37 2 -83z m-103 38 c0 -28 -29 -25 -33 3 -3 19 0 23 15 20
10 -2 18 -12 18 -23z m-57 -16 c4 -19 -19 -31 -38 -19 -18 11 -4 42 17 38 10
-2 19 -10 21 -19z m-1292 -29 c-3 -22 -9 -58 -12 -80 -5 -31 -10 -40 -26 -40
-19 0 -19 4 -13 63 5 44 12 67 27 80 28 24 31 22 24 -23z m2254 30 c0 -5 -7
-10 -15 -10 -8 0 -15 5 -15 10 0 6 7 10 15 10 8 0 15 -4 15 -10z m140 0 c0 -5
-14 -7 -32 -3 -46 8 -48 13 -5 13 21 0 37 -4 37 -10z m-3860 -29 c-5 -11 -10
-29 -10 -40 0 -16 -7 -21 -27 -22 -41 -2 -57 2 -65 14 -13 21 -9 25 31 32 22
4 45 13 52 21 17 21 31 17 19 -5z m120 -7 c-6 -14 -10 -52 -10 -85 0 -53 2
-59 21 -59 17 0 20 6 19 38 -5 102 6 118 40 53 49 -97 78 -262 64 -370 -3 -31
-8 -89 -9 -130 -3 -91 -18 -105 -68 -67 -40 30 -49 48 -76 141 -35 123 -52
204 -56 272 -5 79 8 110 15 39 3 -27 10 -51 16 -53 8 -3 13 30 15 105 3 73 9
115 18 126 19 23 22 20 11 -10z m200 3 c14 -5 50 -15 80 -22 30 -7 91 -22 134
-33 44 -12 92 -18 108 -15 41 8 55 -9 57 -72 1 -42 -3 -57 -15 -62 -12 -4 -14
-14 -10 -38 7 -33 0 -65 -14 -65 -4 0 -11 20 -14 45 -4 25 -13 45 -19 45 -28
-1 -34 -16 -27 -73 5 -47 3 -60 -11 -72 -15 -14 -17 -11 -22 44 -6 71 -11 81
-37 74 -19 -5 -20 -11 -14 -78 7 -76 1 -125 -16 -125 -6 0 -10 15 -10 34 0 18
-3 61 -6 95 -6 56 -9 62 -28 59 -20 -3 -21 -9 -21 -121 0 -106 -2 -120 -19
-133 -11 -7 -21 -12 -23 -10 -3 2 1 31 8 65 9 48 9 77 -1 138 -7 43 -15 97
-18 121 -4 41 -5 43 -31 37 -34 -9 -34 -7 -22 -51 25 -94 31 -171 20 -250 -6
-43 -12 -87 -13 -98 -2 -18 -33 -42 -43 -33 -3 3 1 23 8 44 8 23 13 89 13 168
0 118 -3 141 -33 240 -18 61 -39 120 -47 132 -8 12 -14 25 -14 28 0 7 67 -4
100 -18z m488 -28 c2 -10 -9 -21 -28 -29 -40 -16 -56 -3 -34 28 18 26 57 26
62 1z m2042 15 c0 -3 -5 -14 -10 -25 -7 -13 -7 -25 0 -38 7 -13 7 -22 0 -26
-6 -3 -7 -17 -4 -31 4 -17 1 -29 -10 -37 -16 -12 -16 -14 3 -31 18 -16 21 -17
21 -3 0 23 16 30 40 17 12 -6 20 -21 20 -35 0 -16 6 -25 16 -25 13 0 15 7 9
38 -4 20 -11 43 -17 50 -8 9 -6 12 4 12 8 0 20 -11 26 -25 15 -32 16 -105 2
-105 -5 0 -10 4 -10 9 0 5 -9 7 -20 4 -12 -3 -20 -2 -19 3 3 20 -2 28 -10 15
-7 -10 -5 -19 6 -26 13 -10 14 -18 5 -44 -6 -17 -9 -38 -6 -46 4 -8 1 -15 -5
-15 -6 0 -11 4 -11 9 0 18 -31 41 -55 41 -13 0 -25 6 -28 13 -3 8 -11 6 -28
-9 -40 -36 -67 -36 -91 -3 -24 33 -33 35 -53 15 -12 -12 -12 -16 0 -26 8 -7
15 -19 15 -26 0 -22 -28 -4 -49 32 -15 24 -27 34 -46 34 -28 0 -29 -3 -15 -30
7 -13 7 -21 0 -25 -5 -3 -10 0 -10 8 0 8 -9 22 -19 31 -16 14 -24 15 -40 6
-12 -6 -25 -8 -30 -5 -14 8 -41 -6 -41 -21 0 -17 -12 -18 -28 -2 -9 9 -12 9
-12 0 0 -15 -78 -14 -97 1 -21 16 -15 42 16 64 30 23 84 35 241 54 70 8 100
16 113 30 10 11 16 23 13 27 -8 14 23 52 42 52 9 0 25 -7 36 -15 12 -9 25 -11
35 -6 9 5 19 10 23 10 26 5 35 14 31 32 -6 22 -38 26 -50 5 -7 -13 -31 -20
-60 -17 -7 0 -13 9 -13 20 0 24 19 39 50 40 38 0 63 6 85 19 22 13 35 15 35 6z
m-1479 -55 c-7 -49 -30 -66 -32 -22 -2 41 2 57 14 65 19 12 24 0 18 -43z m-80
18 c-1 -4 -1 -25 -1 -47 0 -33 -3 -40 -20 -40 -16 0 -20 7 -20 30 0 32 19 72
33 67 5 -1 8 -6 8 -10z m2839 -22 c0 -8 -7 -15 -15 -15 -8 0 -15 7 -15 15 0 8
7 15 15 15 8 0 15 -7 15 -15z m-3260 -31 c0 -8 6 -14 14 -14 24 0 26 -28 3
-62 -24 -35 -57 -49 -57 -24 0 8 -8 20 -17 25 -15 9 -13 10 13 11 29 0 54 15
54 32 0 5 -29 7 -65 5 -49 -4 -65 -1 -65 8 0 16 65 39 85 31 8 -3 15 -1 15 5
0 6 5 7 10 4 6 -3 10 -13 10 -21z m340 2 c0 -14 -5 -28 -11 -31 -13 -9 -15 -7
-23 28 -5 23 -3 27 14 27 15 0 20 -7 20 -24z m-80 -17 c0 -14 -5 -19 -17 -17
-26 5 -29 38 -4 38 15 0 21 -6 21 -21z m-98 -21 c-7 -7 -12 -8 -12 -2 0 14 12
26 19 19 2 -3 -1 -11 -7 -17z m3098 2 c0 -24 -26 -38 -42 -22 -16 16 -2 42 22
42 13 0 20 -7 20 -20z m-3166 -21 c-3 -5 -10 -7 -15 -3 -5 3 -7 10 -3 15 3 5
10 7 15 3 5 -3 7 -10 3 -15z m406 12 c0 -17 -12 -41 -21 -41 -5 0 -9 11 -9 25
0 16 6 25 15 25 8 0 15 -4 15 -9z m78 -7 c18 -5 20 -9 11 -20 -21 -25 -63 -16
-52 12 6 16 9 16 41 8z m-238 -25 c0 -5 -7 -9 -15 -9 -15 0 -20 12 -9 23 8 8
24 -1 24 -14z m75 11 c3 -5 -1 -10 -9 -10 -9 0 -16 5 -16 10 0 6 4 10 9 10 6
0 13 -4 16 -10z m-155 -10 c0 -5 -6 -10 -14 -10 -8 0 -18 5 -21 10 -3 6 3 10
14 10 12 0 21 -4 21 -10z m3018 -36 c3 -19 -3 -22 -39 -26 -29 -3 -43 0 -47
11 -7 19 20 37 55 36 21 0 29 -5 31 -21z m-2861 10 c-3 -3 -12 -4 -19 -1 -8 3
-5 6 6 6 11 1 17 -2 13 -5z m173 -4 c0 -5 -4 -10 -10 -10 -5 0 -10 5 -10 10 0
6 5 10 10 10 6 0 10 -4 10 -10z m20 -50 c15 0 50 -38 50 -55 0 -7 -111 53
-125 68 -7 7 -6 8 2 3 6 -3 14 -2 18 4 4 6 12 5 21 -5 9 -8 24 -15 34 -15z
m2688 -26 c3 -19 -3 -22 -50 -27 -73 -7 -87 12 -28 40 38 18 74 12 78 -13z
m22 -58 c0 -20 38 -85 68 -118 14 -15 23 -30 20 -34 -6 -5 -175 -26 -213 -25
-10 0 -25 -5 -32 -11 -10 -8 -13 -6 -13 9 0 13 12 22 43 31 39 11 115 25 145
25 6 0 12 5 12 10 0 10 -92 4 -152 -9 -20 -5 -29 -2 -34 10 -8 20 22 46 51 45
11 -1 25 0 30 1 6 1 24 1 41 0 18 -1 35 4 39 10 5 8 -15 11 -71 9 -64 -2 -80
1 -82 13 -5 28 29 43 116 47 22 1 32 -4 32 -13z M3061 2884 c0 -11 3 -14 6 -6
3 7 2 16 -1 19 -3 4 -6 -2 -5 -13z M3782 2420 c0 -14 2 -19 5 -12 2 6 2 18 0
25 -3 6 -5 1 -5 -13z M4490 2031 c0 -5 7 -11 14 -14 10 -4 13 -1 9 9 -6 15
-23 19 -23 5z M4745 1880 c-11 -17 5 -30 36 -30 22 0 29 5 29 20 0 15 -7 20
-29 20 -17 0 -33 -4 -36 -10z M3540 2229 c0 -5 5 -7 10 -4 6 3 10 8 10 11 0 2
-4 4 -10 4 -5 0 -10 -5 -10 -11z M3540 2114 c0 -8 5 -12 10 -9 6 3 10 10 10
16 0 5 -4 9 -10 9 -5 0 -10 -7 -10 -16z M4240 2200 c-16 -10 -9 -14 40 -25 14
-2 37 -8 53 -11 21 -5 27 -3 27 10 0 29 -86 48 -120 26z M4040 2040 c-12 -7
-12 -12 -3 -21 15 -15 26 -7 21 15 -2 11 -7 13 -18 6z M503 1832 c-13 -8 -25
-49 -53 -187 -22 -106 -24 -141 -9 -201 12 -45 27 -54 59 -34 12 8 12 11 -3
27 -34 39 -23 183 27 338 9 28 16 53 16 58 0 9 -22 9 -37 -1z M3560 1889 c0
-5 5 -7 10 -4 6 3 10 8 10 11 0 2 -4 4 -10 4 -5 0 -10 -5 -10 -11z M3565 1860
c-3 -5 -1 -10 4 -10 6 0 11 5 11 10 0 6 -2 10 -4 10 -3 0 -8 -4 -11 -10z M410
1205 c0 -9 5 -15 11 -13 6 2 11 8 11 13 0 5 -5 11 -11 13 -6 2 -11 -4 -11 -13z
M642 533 c-19 -8 -4 -22 18 -16 11 3 17 9 14 14 -6 10 -12 10 -32 2z M2915
589 c-4 -6 -13 -8 -21 -5 -28 11 -12 -10 20 -26 40 -19 57 -12 45 20 -9 23
-33 30 -44 11z M3032 505 c-11 -24 0 -36 13 -15 4 6 11 8 16 5 14 -9 11 11 -4
24 -11 8 -16 5 -25 -14z M2477 8602 c-53 -3 -72 -24 -42 -46 16 -12 16 -16 -9
-64 -14 -28 -26 -58 -26 -67 0 -29 -15 -14 -43 43 -32 66 -32 71 -11 86 9 7
12 18 8 29 -5 13 -18 17 -60 17 -67 0 -78 -17 -39 -58 29 -31 85 -153 81 -178
-1 -9 -9 -19 -16 -24 -12 -8 -12 -10 1 -15 28 -11 142 -1 147 13 2 6 -3 12
-12 12 -17 0 -22 15 -7 24 5 3 12 18 15 32 12 46 49 118 73 141 46 44 27 60
-60 55z M546 3621 c-65 -6 -71 -8 -87 -37 -9 -18 -20 -65 -23 -109 -7 -82 -12
-99 -27 -90 -5 4 -5 13 1 24 20 39 -31 140 -65 127 -8 -3 -15 0 -18 7 -5 16
-66 -15 -94 -47 -12 -14 -32 -45 -44 -68 -25 -49 -37 -60 -61 -52 -22 7 -58
-13 -58 -31 0 -8 -4 -15 -9 -15 -6 0 -10 -115 -9 -294 l1 -293 48 20 c40 17
51 27 58 55 6 18 27 53 48 76 21 23 43 51 49 62 10 15 16 17 30 8 10 -6 20
-23 21 -37 1 -19 -5 -28 -26 -37 -36 -14 -77 -68 -63 -82 15 -15 48 -1 66 27
9 14 23 25 32 25 8 0 -1 -14 -23 -32 -21 -18 -60 -56 -87 -85 -42 -46 -54 -53
-86 -53 -57 0 -70 -8 -70 -44 0 -22 3 -27 9 -17 5 8 26 14 52 14 34 0 53 7 91
35 26 20 48 39 48 43 0 4 9 5 20 2 21 -6 71 27 123 81 16 17 24 23 17 14 -7
-10 -9 -18 -6 -18 4 0 -1 -15 -10 -32 -48 -91 -47 -90 -34 -98 7 -5 19 -6 26
-3 14 5 67 71 71 88 1 5 6 28 11 51 5 22 16 53 25 70 8 16 18 37 21 47 3 9 10
17 15 17 17 0 52 -43 46 -58 -2 -7 0 -10 5 -7 6 3 10 2 10 -3 0 -13 47 -26 83
-23 15 1 27 -2 27 -8 0 -6 6 -10 13 -9 6 2 11 -2 10 -9 -2 -7 4 -10 12 -7 8 3
22 -1 30 -10 15 -15 14 -16 -9 -16 -14 0 -27 -4 -31 -10 -3 -6 -15 -6 -30 0
-18 7 -28 5 -40 -6 -13 -14 -16 -13 -24 8 -5 13 -23 35 -41 50 -26 22 -37 25
-52 17 -27 -14 -38 -50 -22 -67 8 -7 14 -17 14 -22 0 -5 3 -16 7 -26 4 -11 3
-15 -5 -10 -23 14 -63 -6 -77 -40 -8 -21 -25 -38 -42 -45 -48 -18 -82 -59 -49
-59 18 0 106 47 132 71 11 10 25 19 32 19 16 0 62 48 62 64 0 22 31 28 51 10
18 -16 20 -16 39 1 17 16 24 16 44 5 14 -7 32 -10 40 -7 9 4 47 -2 86 -12 38
-9 75 -14 82 -10 7 5 19 2 28 -6 8 -7 26 -18 40 -24 14 -6 33 -17 43 -23 14
-11 19 -10 26 0 4 8 12 13 17 12 5 0 10 6 12 14 2 11 -4 16 -22 16 -14 0 -40
13 -58 28 -18 16 -42 34 -53 40 -17 10 -12 11 28 8 26 -2 47 0 47 5 0 5 8 9
18 10 11 0 12 2 4 6 -7 3 -19 -1 -27 -7 -12 -10 -15 -9 -15 3 0 34 49 28 67
-9 10 -21 9 -24 -7 -24 -22 0 -32 -13 -25 -32 4 -10 20 -14 49 -13 48 2 66 10
66 30 0 11 7 11 44 0 25 -8 55 -20 68 -27 13 -7 32 -13 43 -14 11 -1 41 -5 68
-8 36 -5 49 -3 53 8 10 27 32 25 79 -8 56 -40 137 -56 164 -32 14 13 22 12 70
-4 62 -22 232 -32 238 -14 5 16 -22 25 -87 29 -31 2 -67 8 -80 13 -14 5 -27
10 -30 11 -3 1 -25 8 -50 15 -25 7 -44 16 -42 20 1 3 2 14 2 23 0 13 6 11 29
-12 24 -22 36 -27 63 -23 30 5 94 -12 84 -23 -2 -2 6 -4 19 -4 13 0 23 2 23 5
-1 18 4 21 16 11 11 -9 20 -9 35 -2 14 8 21 8 24 -2 3 -6 4 2 2 18 -7 64 -39
94 -78 73 -26 -13 -29 -7 -12 26 8 16 15 37 15 47 0 23 -45 114 -60 124 -5 3
-10 18 -10 33 0 42 -26 107 -45 110 -22 5 -62 -23 -70 -48 -12 -39 -28 -22
-22 25 6 37 4 45 -9 45 -9 0 -24 10 -34 22 -15 19 -20 20 -34 9 -14 -11 -16
-11 -16 3 0 20 -39 21 -46 1 -4 -8 1 -33 10 -55 l16 -41 -29 16 c-31 16 -61
11 -61 -10 0 -13 27 -39 50 -48 10 -3 6 -6 -8 -6 -13 -1 -39 6 -58 15 -62 29
-85 0 -35 -43 24 -21 27 -29 19 -43 -16 -25 -3 -50 26 -50 20 0 24 -6 28 -35
5 -43 -12 -46 -47 -9 -21 23 -29 25 -62 19 -21 -4 -60 -6 -88 -4 -27 1 -62 2
-77 3 -33 1 -33 2 -12 51 14 34 14 37 0 32 -22 -9 -25 2 -15 62 5 35 5 59 -2
67 -5 6 -9 16 -8 20 5 30 -4 43 -33 50 -43 10 -47 11 -86 12 -21 1 -43 12 -59
28 -14 14 -31 27 -37 29 -6 1 -23 7 -37 13 -15 6 -61 10 -103 9 l-76 -2 -5 30
c-2 17 -7 50 -11 75 -4 25 -7 75 -7 113 0 37 -3 67 -8 67 -4 0 -15 7 -24 16
-9 9 -29 17 -45 18 -16 1 -35 7 -42 14 -6 6 -19 11 -27 10 -9 -1 -47 -4 -85
-7z m74 -59 c1 -9 3 -74 4 -143 3 -124 8 -155 27 -144 5 4 8 -4 6 -17 -2 -21
2 -23 55 -26 38 -2 68 2 89 13 26 14 33 15 40 3 13 -19 4 -255 -11 -308 -18
-60 -30 -72 -30 -29 0 44 -7 51 -32 38 -16 -9 -19 -18 -15 -44 l5 -33 -33 14
c-19 8 -46 14 -60 14 -19 0 -31 9 -46 34 -11 19 -26 37 -34 40 -10 3 -15 20
-15 49 0 41 -13 67 -34 67 -6 0 -5 -5 2 -12 14 -14 16 -47 3 -66 -6 -10 -13
-11 -34 -1 -30 14 -30 13 -17 93 10 60 3 89 -27 111 -13 11 -12 36 7 135 6 30
14 90 17 132 3 43 10 82 17 87 11 9 93 19 108 13 4 -1 7 -10 8 -20z m-260
-122 c0 -5 -2 -10 -4 -10 -3 0 -8 5 -11 10 -3 6 -1 10 4 10 6 0 11 -4 11 -10z
m-17 -115 c-3 -9 -8 -14 -10 -11 -3 3 -2 9 2 15 9 16 15 13 8 -4z m-50 -87
c-9 -10 -20 -18 -25 -18 -5 0 -4 8 1 18 6 10 17 19 26 19 13 0 13 -2 -2 -19z
m662 -20 c4 -18 9 -43 9 -55 1 -12 5 -25 9 -29 4 -4 2 -12 -3 -19 -6 -7 -6
-23 -1 -42 16 -55 -20 -298 -43 -290 -6 2 -22 -1 -36 -8 -21 -10 -32 -9 -65 6
-22 10 -33 19 -24 19 17 0 29 20 55 95 9 28 21 54 26 60 4 5 8 32 8 61 0 35 5
56 16 65 11 9 13 20 8 38 -4 14 -6 37 -5 50 0 13 -4 30 -10 37 -17 20 -3 44
24 44 19 0 26 -7 32 -32z m-645 -72 c-21 -35 -40 -47 -40 -26 0 6 7 13 15 16
10 4 13 13 9 27 -5 16 -3 19 10 14 9 -4 16 -1 16 5 0 6 3 9 6 5 4 -3 -4 -22
-16 -41z m765 -4 c-3 -3 -11 0 -18 7 -9 10 -8 11 6 5 10 -3 15 -9 12 -12z
m-802 -48 c12 -12 -13 -42 -53 -63 l-41 -21 37 45 c39 45 45 50 57 39z m50
-39 c-9 -19 -21 -35 -26 -35 -5 0 -3 10 5 23 8 12 18 28 22 35 15 26 15 10 -1
-23z m817 5 c12 -6 19 -14 17 -17 -7 -7 -77 19 -77 28 0 10 32 4 60 -11z m30
-114 c0 -12 -5 -7 -19 24 -11 24 -11 24 3 6 9 -11 16 -24 16 -30z m616 -45
c-9 -13 31 -44 49 -38 8 4 15 3 15 -1 0 -13 -15 -28 -34 -35 -14 -6 -17 -3
-12 8 7 19 -4 19 -18 0 -9 -12 -11 -8 -10 22 1 47 2 53 10 53 3 0 3 -4 0 -9z
m-79 -46 c0 -14 -7 -20 -23 -21 -13 -1 -24 2 -24 7 0 5 4 9 10 9 5 0 7 6 4 13
-3 8 3 13 15 13 12 0 18 -7 18 -21z m-417 -9 c0 7 97 10 140 5 3 -1 16 -11 30
-23 16 -15 41 -24 70 -27 30 -2 51 -10 66 -26 11 -12 27 -25 35 -29 11 -4 11
-7 1 -12 -6 -3 -10 -10 -6 -15 9 -15 -4 -10 -46 16 -22 14 -58 32 -80 41 -22
9 -46 25 -54 35 -13 18 -14 18 -40 -6 -32 -30 -37 -31 -29 -7 5 14 3 13 -10
-3 -15 -19 -16 -19 -35 -2 -11 10 -29 19 -41 20 -11 1 -21 4 -21 8 0 4 -3 16
-7 26 -6 16 -5 16 10 4 9 -7 17 -10 17 -5z m-90 -39 c0 -4 -3 -6 -7 -4 -5 2
-16 7 -26 10 -10 4 -16 11 -12 17 7 11 45 -9 45 -23z m510 13 c10 -6 12 -12 5
-19 -7 -7 -14 -4 -23 9 -13 21 -6 25 18 10z M546 3537 c-13 -10 -17 -24 -14
-62 3 -49 12 -61 36 -47 15 10 21 113 7 119 -6 2 -19 -3 -29 -10z M784 3173
c-17 -17 -17 -18 5 -21 27 -4 47 11 37 27 -10 16 -22 14 -42 -6z M693 3173
c-7 -2 -13 -16 -13 -30 0 -20 4 -24 23 -21 16 2 22 10 22 27 0 25 -11 33 -32
24z M240 3065 c-7 -9 -8 -15 -2 -15 5 0 12 7 16 15 3 8 4 15 2 15 -2 0 -9 -7
-16 -15z M1820 2719 c0 -5 5 -7 10 -4 6 3 10 8 10 11 0 2 -4 4 -10 4 -5 0 -10
-5 -10 -11z M515 2143 c-75 -18 -165 -56 -201 -86 -49 -40 -75 -50 -138 -49
-99 1 -126 -6 -126 -35 0 -21 3 -23 23 -17 33 11 110 11 128 1 17 -10 73 17
150 72 23 17 47 31 52 31 6 0 18 6 26 14 9 8 36 17 60 20 41 5 75 31 65 48 -5
8 -7 8 -39 1z M290 1947 c-115 -52 -132 -57 -184 -57 -52 0 -56 -2 -56 -24 0
-43 48 -41 170 7 30 11 60 25 67 30 7 5 16 6 21 3 12 -7 54 33 47 45 -8 12
-34 11 -65 -4z M4891 558 l-1 -458 24 0 c17 0 26 7 30 25 4 14 4 29 2 34 -3 4
-8 175 -10 380 -5 332 -8 374 -23 398 -17 26 -17 27 0 20 23 -8 22 5 -3 34
-19 24 -19 22 -19 -433z M50 325 c0 -43 2 -45 28 -45 35 0 72 26 72 50 0 23
-23 36 -67 38 -33 2 -33 2 -33 -43z M4510 180 c0 -5 6 -10 14 -10 8 0 18 5 21
10 3 6 -3 10 -14 10 -12 0 -21 -4 -21 -10z"/>
</g>
</svg>
