<?xml version="1.0" standalone="no"?>
<!DOCTYPE svg PUBLIC "-//W3C//DTD SVG 20010904//EN"
 "http://www.w3.org/TR/2001/REC-SVG-20010904/DTD/svg10.dtd">
<svg version="1.0" xmlns="http://www.w3.org/2000/svg"
 width="500.000000pt" height="878.000000pt" viewBox="0 0 500.000000 878.000000"
 preserveAspectRatio="xMidYMid meet">
<metadata>
Created by potrace 1.16, written by Peter Selinger 2001-2019
</metadata>
<g transform="translate(0.000000,878.000000) scale(0.100000,-0.100000)"
fill="#000000" stroke="none">
<path d="M4916 8514 c1 -113 5 -208 8 -211 3 -4 6 89 6 205 0 117 -4 212 -8
212 -4 0 -7 -93 -6 -206z M2235 8675 c-3 -8 -7 -22 -9 -29 -3 -9 3 -18 14 -21
10 -3 38 -24 62 -45 24 -22 46 -40 50 -40 10 0 10 -27 0 -32 -4 -1 -22 -22
-40 -45 -23 -30 -41 -43 -58 -43 -28 0 -42 -25 -27 -49 10 -15 21 -16 95 -12
11 1 20 12 24 29 4 15 17 41 31 59 l24 32 34 -38 c19 -21 35 -48 35 -59 0 -27
72 -52 98 -35 26 16 26 42 0 54 -22 10 -108 105 -115 126 -5 14 66 85 78 77
17 -10 39 17 39 47 0 24 -4 28 -27 29 -16 0 -46 1 -68 2 l-40 3 0 -42 c-1 -59
-15 -71 -54 -42 -19 14 -27 25 -20 30 6 3 9 17 7 29 -3 21 -9 23 -66 27 -49 2
-64 0 -67 -12z M4922 8250 c0 -19 2 -27 5 -17 2 9 2 25 0 35 -3 9 -5 1 -5 -18z
M2283 8239 c-20 -7 -23 -16 -24 -61 0 -46 -2 -50 -11 -30 -8 17 -19 22 -37 20
-25 -3 -26 -4 -23 -73 3 -82 9 -105 25 -105 23 0 39 18 47 51 l8 34 1 -44 c1
-40 3 -43 24 -37 12 3 26 6 30 6 10 0 0 231 -10 241 -5 4 -18 3 -30 -2z M2532
8213 c-15 -30 -34 -162 -28 -188 5 -18 13 -25 31 -25 22 0 30 10 26 33 -1 4 6
34 14 66 20 76 19 117 -1 125 -25 9 -33 7 -42 -11z M2615 8208 c-2 -7 -11 -51
-20 -97 -16 -81 -16 -85 1 -98 40 -29 47 -20 64 87 13 84 13 86 -6 104 -19 19
-33 20 -39 4z M2714 8183 c-3 -16 -10 -42 -15 -60 -6 -17 -11 -52 -13 -78 -2
-42 0 -48 22 -56 33 -13 42 -4 42 42 0 22 4 48 9 58 15 26 19 99 7 111 -19 19
-45 11 -52 -17z M2120 8193 c-25 -10 -29 -24 -25 -102 5 -110 22 -138 65 -103
17 14 19 22 12 47 -5 17 -10 57 -11 89 -3 77 -6 82 -41 69z M2800 8158 c-6
-24 -15 -53 -20 -66 -16 -38 -12 -109 6 -116 32 -12 44 -6 44 22 0 16 7 51 15
78 20 65 19 110 -1 118 -28 11 -33 7 -44 -36z M2006 8145 c-3 -9 -4 -30 -1
-48 4 -26 12 -98 14 -130 1 -10 54 4 63 17 4 5 5 13 3 16 -1 3 -6 34 -9 69 -3
35 -11 70 -17 78 -15 18 -46 17 -53 -2z M2902 8147 c-12 -14 -37 -85 -47 -134
-6 -29 -3 -34 20 -45 30 -13 41 -4 50 42 3 14 12 48 20 75 14 46 13 51 -2 63
-21 15 -28 15 -41 -1z M4924 8065 c0 -55 1 -76 3 -47 2 29 2 74 0 100 -2 26
-3 2 -3 -53z M4330 8140 c0 -5 5 -10 11 -10 5 0 7 5 4 10 -3 6 -8 10 -11 10
-2 0 -4 -4 -4 -10z M1792 8110 c-19 -10 -35 -20 -37 -22 -6 -5 25 -152 34
-161 4 -4 17 2 29 14 24 21 24 50 0 127 -7 24 -7 37 2 47 15 18 14 18 -28 -5z
M2354 8116 c-14 -11 -16 -22 -11 -61 8 -58 9 -59 41 -51 15 4 26 15 29 29 l4
22 2 -23 c1 -25 49 -51 60 -33 13 21 -4 114 -22 125 -21 13 -37 -5 -37 -41 0
-13 -4 -23 -10 -23 -5 0 -10 13 -10 29 0 33 -20 45 -46 27z M1924 8110 c-20
-8 -20 -9 -5 -74 17 -71 24 -78 59 -65 22 8 23 13 17 52 -8 45 -31 97 -43 96
-4 0 -16 -4 -28 -9z M1576 8091 c-17 -19 -17 -24 14 -115 l31 -95 25 15 c13 9
24 21 24 28 0 32 -58 186 -70 186 -4 0 -15 -9 -24 -19z M2990 8095 c0 -9 -9
-33 -20 -55 -28 -55 -26 -88 5 -96 32 -8 36 -4 51 49 7 23 15 51 19 63 4 14 1
27 -10 38 -21 20 -45 21 -45 1z M1850 8085 c-8 -10 -10 -33 -5 -75 7 -63 19
-74 48 -42 17 19 15 78 -4 113 -12 23 -22 24 -39 4z M1678 8078 c-14 -12 -15
-19 -2 -63 7 -27 13 -60 14 -72 0 -31 18 -38 41 -17 24 21 24 55 2 117 -18 49
-28 56 -55 35z M3066 8004 c-19 -61 -18 -66 18 -70 22 -2 27 4 41 47 13 39 14
53 5 64 -25 30 -46 17 -64 -41z M1392 8034 c-17 -12 -20 -19 -12 -34 5 -10 13
-36 16 -57 6 -38 27 -88 42 -96 4 -3 16 1 26 9 19 13 18 16 -10 104 -16 49
-31 90 -34 90 -3 0 -16 -7 -28 -16z M1483 8027 c-8 -13 39 -147 52 -147 7 0
19 8 28 18 14 16 14 22 -4 79 -19 56 -23 62 -46 61 -13 -2 -27 -6 -30 -11z
M3283 8028 c-4 -7 -17 -43 -29 -80 -18 -56 -19 -69 -8 -79 35 -28 78 26 89
111 4 32 1 41 -14 50 -25 13 -28 13 -38 -2z M3184 8013 c-3 -10 -12 -35 -20
-56 -18 -48 -19 -43 16 -55 33 -12 37 -9 57 48 17 47 16 67 -3 74 -27 10 -44
7 -50 -11z M1302 7999 c-13 -5 -21 -15 -19 -21 3 -7 15 -44 27 -83 26 -84 31
-90 59 -73 19 11 21 19 16 57 -6 43 -43 132 -54 130 -4 0 -17 -4 -29 -10z
M3361 7930 c-38 -62 -40 -90 -6 -90 17 0 32 12 55 44 33 48 36 66 18 84 -21
21 -36 13 -67 -38z M1183 7959 c-7 -7 -9 -17 -4 -23 4 -6 18 -39 30 -73 28
-75 41 -89 70 -73 25 13 26 21 5 68 -45 104 -72 130 -101 101z M3464 7928
c-25 -38 -54 -100 -54 -113 0 -11 68 -4 77 8 6 6 20 37 31 68 15 42 18 59 9
68 -20 20 -36 12 -63 -31z M1103 7899 c-13 -13 49 -152 70 -157 7 -1 22 6 32
18 18 19 17 21 -15 85 -25 50 -38 65 -54 65 -12 0 -27 -5 -33 -11z M2095 7897
c-59 -9 -139 -39 -151 -58 -3 -5 6 -25 20 -44 14 -18 26 -43 26 -54 0 -12 5
-21 11 -21 6 0 8 -7 5 -16 -3 -8 -2 -12 4 -9 6 3 12 -1 15 -9 3 -9 8 -24 11
-33 3 -10 5 -20 4 -22 -1 -2 2 -7 7 -10 10 -7 47 -85 42 -88 -2 -1 5 -9 16
-16 17 -13 18 -18 7 -42 -11 -23 -10 -30 3 -44 11 -13 14 -32 9 -82 -5 -68
-41 -218 -55 -233 -5 -6 -9 -19 -9 -31 0 -24 -36 -59 -45 -45 -4 6 -3 10 1 10
4 0 -5 14 -21 30 -28 29 -81 119 -140 239 -19 38 -24 56 -16 64 17 17 13 41
-7 54 -14 8 -18 20 -14 45 2 18 9 39 14 46 7 8 7 12 0 12 -6 0 -5 24 3 68 7
37 13 97 14 133 2 75 -12 99 -57 99 -75 -1 -335 -82 -373 -116 -10 -9 -19 -23
-19 -31 0 -12 73 -120 90 -133 4 -3 11 -13 16 -22 10 -19 69 -90 100 -122 16
-15 20 -30 17 -52 -4 -25 -1 -32 14 -36 38 -10 27 -133 -29 -325 -11 -39 -18
-77 -15 -85 7 -20 67 -36 164 -44 114 -9 141 -2 202 54 l52 48 57 -28 c70 -34
97 -34 231 -3 58 14 114 27 123 29 17 4 52 -7 119 -37 46 -20 66 -18 161 17
l77 28 33 -25 c56 -43 179 -97 198 -87 9 5 30 9 46 8 16 0 49 7 73 16 54 20
50 20 61 -8 15 -40 75 -77 158 -98 42 -10 93 -24 112 -30 19 -6 58 -11 85 -12
40 -1 49 2 46 14 -24 93 -22 186 6 290 8 30 18 67 20 83 3 15 9 27 14 27 5 0
17 17 26 37 10 21 34 48 53 61 19 13 60 47 90 75 30 29 71 60 91 69 44 20 54
49 27 77 -25 28 -67 55 -74 48 -3 -3 8 -13 25 -23 17 -10 31 -22 31 -27 0 -5
-7 -4 -15 3 -13 10 -19 8 -36 -14 -19 -24 -23 -25 -38 -13 -9 8 -42 27 -74 43
-45 21 -54 30 -42 36 10 6 26 3 48 -10 30 -17 67 -20 67 -4 0 10 -110 68 -142
76 -16 3 -28 11 -28 16 0 10 29 1 81 -25 17 -9 36 -14 42 -11 8 3 7 5 -2 5 -8
1 -22 7 -30 15 -26 22 -158 68 -187 64 -26 -3 -29 -8 -44 -79 -10 -42 -20 -81
-24 -88 -4 -6 -10 -49 -12 -94 -3 -60 -9 -85 -21 -94 -9 -7 -16 -26 -15 -44 1
-42 -56 -126 -140 -205 -36 -33 -74 -67 -85 -75 -11 -8 -22 -19 -24 -26 -3 -8
-9 -9 -19 -3 -11 7 -15 42 -17 179 -2 167 -2 171 20 182 12 7 27 19 34 28 15
19 17 51 3 51 -23 0 -7 30 39 73 27 25 47 48 45 50 -3 2 2 10 11 17 8 7 15 18
15 26 0 7 23 32 50 55 71 60 67 83 -20 126 -36 18 -104 46 -151 63 -171 62
-210 50 -202 -61 2 -35 4 -113 4 -172 1 -94 -2 -110 -18 -122 -16 -12 -16 -18
-6 -45 8 -21 9 -40 3 -56 -5 -13 -7 -24 -4 -24 6 0 -56 -116 -86 -161 -44 -63
-91 -111 -104 -106 -18 7 -41 76 -72 215 -25 113 -25 142 3 174 10 11 13 28
10 44 -3 15 -1 35 3 43 27 51 90 190 90 198 0 4 11 25 25 45 30 45 25 62 -25
82 -50 20 -176 34 -166 18 5 -8 -14 -9 -64 -5 -84 7 -112 -6 -83 -40 18 -20
18 -20 -14 -2 -31 18 -32 20 -18 42 17 25 6 38 -25 28 -15 -5 -20 -15 -20 -40
0 -19 -5 -37 -10 -40 -7 -4 -9 2 -5 17 8 30 -12 56 -52 67 -38 11 -173 10
-258 -2z m149 -27 c-12 -5 -25 -13 -29 -19 -11 -19 24 -24 82 -12 63 12 83 7
35 -10 -18 -6 -32 -15 -32 -20 0 -5 -10 -9 -22 -9 -34 0 -50 -15 -46 -41 3
-22 8 -24 51 -23 46 0 48 -1 45 -25 -3 -22 -9 -26 -38 -29 -83 -6 -100 -12
-100 -36 0 -35 20 -47 61 -36 43 13 41 13 37 -7 -2 -12 -15 -17 -47 -19 -51
-3 -62 -11 -55 -42 7 -23 13 -26 52 -22 12 1 22 -3 22 -9 0 -6 -8 -10 -17 -9
-42 3 -53 -2 -53 -27 0 -15 -6 -25 -14 -25 -11 0 -13 9 -10 33 4 23 -3 49 -24
89 -16 32 -27 60 -24 63 3 3 16 5 30 5 21 0 23 3 17 27 -3 15 -11 31 -17 34
-5 4 -3 9 7 13 10 3 15 15 13 28 -2 18 -11 24 -35 26 -23 2 -30 7 -26 18 4 11
-4 14 -33 15 -60 2 -89 13 -89 34 0 10 5 20 12 22 7 3 9 -4 6 -18 -6 -21 -4
-21 38 -16 24 4 68 9 97 13 42 5 52 10 52 25 0 15 7 19 38 18 31 0 33 -2 16
-9z m551 -50 c0 -10 -12 -16 -35 -18 -47 -5 -220 8 -220 16 0 4 40 6 90 4 72
-3 90 -1 90 11 0 10 9 12 38 8 23 -4 37 -12 37 -21z m-995 -4 c0 -2 -16 -6
-35 -8 -19 -2 -35 0 -35 4 0 4 16 8 35 8 19 0 35 -2 35 -4z m1270 -14 c-46 -4
-55 -15 -31 -36 14 -12 26 -16 38 -11 25 11 52 7 96 -16 40 -20 97 -26 97 -9
0 6 14 10 30 10 17 0 30 -4 30 -10 0 -5 -4 -10 -8 -10 -5 0 -7 -13 -4 -30 2
-16 10 -30 18 -30 20 0 27 19 14 35 -15 18 1 20 18 3 19 -19 14 -37 -11 -49
-27 -12 -57 -4 -196 56 -53 22 -88 32 -94 26 -6 -6 7 -16 35 -29 42 -18 44
-21 40 -56 -4 -34 -2 -37 34 -52 23 -10 52 -14 73 -10 l35 5 -22 -22 c-19 -18
-25 -20 -42 -10 -10 7 -37 15 -58 19 -35 5 -40 4 -45 -17 -8 -28 -3 -33 46
-49 27 -8 36 -15 29 -22 -7 -7 -24 -6 -52 6 -36 14 -41 14 -45 1 -3 -8 -7 -22
-10 -31 -3 -10 -10 -12 -20 -6 -13 7 -17 33 -19 145 -2 112 -5 139 -19 155
-32 35 -2 64 53 52 22 -4 20 -5 -10 -8z m-1382 -8 c-17 -9 -25 -20 -22 -29 4
-8 10 -12 15 -9 5 3 7 8 5 12 -2 4 16 8 40 9 24 1 44 -2 44 -6 0 -4 -28 -17
-62 -28 -35 -12 -82 -29 -105 -37 -52 -19 -141 -28 -149 -15 -10 16 13 35 58
49 24 7 61 21 83 30 67 30 89 39 105 39 8 0 3 -6 -12 -15z m1462 0 c0 -2 -9
-4 -20 -4 -11 0 -20 4 -20 9 0 5 9 7 20 4 11 -3 20 -7 20 -9z m-663 -16 c-3
-8 -6 -5 -6 6 -1 11 2 17 5 13 3 -3 4 -12 1 -19z m106 -8 c4 -17 14 -20 54
-20 54 0 93 -9 93 -20 0 -13 -70 -19 -101 -8 -39 13 -46 5 -19 -22 17 -17 31
-21 66 -18 24 2 43 -1 41 -6 -2 -5 -33 -8 -69 -7 -50 2 -67 -1 -71 -12 -9 -25
16 -46 57 -49 22 -2 41 -9 44 -16 3 -11 -7 -12 -50 -7 -46 6 -56 4 -61 -9 -8
-20 26 -56 52 -56 21 0 35 -35 22 -58 -6 -10 -10 -5 -14 18 -6 25 -11 31 -29
28 -17 -2 -27 6 -45 37 -12 22 -25 59 -29 81 -5 36 -4 42 15 47 14 3 21 13 21
30 0 14 -4 27 -9 29 -5 2 -13 15 -16 31 -6 24 -4 27 18 27 16 0 26 -7 30 -20z
m627 -1 c12 -7 11 -8 -5 -8 -11 0 -29 7 -40 15 -19 16 -19 16 5 9 14 -4 32
-11 40 -16z m-751 -136 c5 -32 7 -61 4 -65 -2 -5 1 -8 7 -8 7 0 9 -7 6 -16 -3
-8 -2 -12 4 -9 15 9 12 -6 -4 -19 -23 -18 -28 -52 -11 -70 18 -18 80 -22 90
-5 10 15 55 -29 55 -53 0 -10 -7 -18 -15 -18 -25 0 -19 -49 8 -60 21 -8 21 -9
-5 -9 -23 -1 -28 -6 -28 -25 0 -27 14 -40 45 -41 13 0 21 -9 26 -32 6 -31 5
-33 -22 -33 -33 0 -32 0 -19 -34 12 -32 38 -34 50 -3 l9 22 0 -22 c1 -33 -2
-38 -24 -35 -28 3 -49 -13 -42 -32 5 -13 16 -16 47 -12 52 6 62 -10 11 -19
-51 -8 -80 -29 -65 -45 9 -9 27 -6 73 13 34 14 64 21 67 16 3 -5 -5 -13 -18
-18 -13 -5 -42 -17 -65 -26 -29 -12 -47 -15 -55 -8 -17 13 -111 49 -121 45
-16 -5 -18 28 -3 50 9 12 16 32 16 43 0 11 12 58 25 104 14 46 28 113 31 148
6 59 5 63 -14 63 -31 0 -52 -27 -52 -69 0 -20 -9 -71 -21 -112 -11 -41 -24
-90 -28 -109 -6 -32 -8 -33 -18 -15 -6 11 -16 40 -23 65 -6 25 -17 59 -24 75
-21 47 -40 156 -30 163 5 4 14 19 21 33 9 22 8 28 -11 45 -22 18 -24 43 -6 69
3 6 12 30 19 55 17 58 28 93 43 131 l11 31 23 -45 c13 -25 28 -71 33 -104z
m-683 -15 c-18 -130 -20 -184 -6 -193 6 -3 10 -11 10 -18 0 -8 -3 -8 -12 1 -7
7 -22 12 -34 12 -12 0 -29 11 -38 25 -15 22 -22 25 -53 19 -28 -5 -35 -4 -31
7 3 8 20 16 38 19 40 6 45 17 21 49 -18 23 -21 23 -66 12 -34 -8 -51 -9 -58
-2 -8 8 -4 11 12 11 43 0 111 22 111 36 0 25 -47 36 -80 19 -33 -17 -100 -20
-100 -5 0 6 13 10 30 10 31 0 109 16 148 31 25 10 30 29 7 29 -8 0 -15 4 -15
9 0 12 124 60 128 50 2 -4 -4 -59 -12 -121z m1797 -75 c18 -10 39 -23 47 -30
8 -6 47 -27 87 -47 108 -54 112 -81 5 -31 -70 32 -82 32 -82 -3 0 -29 20 -42
94 -66 14 -5 16 -10 9 -17 -8 -8 -25 -3 -61 17 -53 29 -82 28 -82 -6 0 -13 11
-24 35 -34 19 -8 35 -20 35 -25 0 -15 -4 -14 -45 10 -40 24 -65 20 -65 -11 0
-21 -8 -24 -34 -14 -12 5 -15 18 -10 67 6 82 26 207 31 207 3 0 19 -8 36 -17z
m-1033 -53 c0 -5 -5 -10 -11 -10 -5 0 -7 5 -4 10 3 6 8 10 11 10 2 0 4 -4 4
-10z m-260 -41 c0 -9 -6 -22 -14 -28 -10 -8 -11 -22 -5 -54 12 -60 11 -67 -6
-67 -8 0 -15 -8 -15 -19 0 -22 25 -45 39 -37 5 4 12 2 15 -3 4 -5 -6 -11 -21
-13 -33 -4 -46 -38 -15 -38 27 0 52 -10 52 -21 0 -5 -13 -6 -29 -3 -21 4 -30
2 -35 -11 -8 -21 21 -68 37 -62 50 18 52 17 76 -27 33 -60 26 -72 -51 -79 -36
-3 -84 -13 -107 -21 l-43 -14 6 31 c3 18 8 52 12 77 4 25 10 50 14 55 7 10 14
144 11 222 0 23 3 44 9 48 5 3 7 12 3 20 -3 10 -1 13 9 10 15 -6 38 32 38 63
0 15 2 15 10 2 5 -8 10 -22 10 -31z m1610 -9 c0 -5 -5 -10 -11 -10 -5 0 -7 5
-4 10 3 6 8 10 11 10 2 0 4 -4 4 -10z m-864 -26 c-3 -9 -6 -21 -6 -27 0 -8 -3
-8 -10 -1 -12 12 -3 44 12 44 6 0 7 -7 4 -16z m-1348 -59 c-9 -9 -30 14 -23
25 6 9 10 8 17 -4 6 -10 8 -19 6 -21z m90 19 c-10 -10 -21 -13 -29 -8 -12 7 0
14 41 23 2 1 -3 -6 -12 -15z m1378 0 c-3 -9 -6 -18 -6 -20 0 -2 -4 -4 -9 -4
-5 0 -7 9 -4 20 3 11 10 20 15 20 6 0 7 -7 4 -16z m-84 -24 c6 0 6 -6 -2 -15
-19 -23 -49 -19 -43 6 4 12 11 18 20 15 8 -3 19 -6 25 -6z m-1332 -26 c0 -14
-3 -14 -15 -4 -8 7 -15 14 -15 16 0 2 7 4 15 4 8 0 15 -7 15 -16z m115 -109
c31 -60 73 -126 92 -147 20 -20 33 -42 31 -50 -3 -9 -8 -6 -17 10 -13 25 -43
29 -61 7 -18 -22 -24 -19 -38 18 -13 33 -72 255 -72 271 0 14 2 10 65 -109z
m330 28 c-12 -137 -18 -158 -43 -161 -27 -4 -27 0 -4 63 10 28 24 78 32 113 7
34 15 62 17 62 3 0 2 -35 -2 -77z m870 7 c-2 -8 -7 -36 -11 -62 -6 -46 -7 -47
-27 -33 -38 26 -57 19 -57 -20 0 -21 5 -35 13 -36 6 0 2 -4 -11 -10 -27 -10
-22 -23 18 -44 31 -16 52 -3 31 18 -7 7 -7 14 0 24 20 23 24 14 25 -52 1 -62
-12 -88 -23 -45 -3 12 -30 31 -69 50 l-64 30 52 77 c28 42 53 72 56 65 2 -7
12 -12 23 -12 21 0 27 38 10 56 -6 6 -1 9 14 9 17 0 23 -5 20 -15z m-1295 -4
c0 -9 -7 -12 -20 -9 -31 8 -34 23 -6 23 16 0 26 -6 26 -14z m1764 -13 c20 8
21 -6 1 -23 -13 -11 -18 -10 -30 6 -8 10 -15 25 -15 33 0 11 4 10 14 -4 8 -11
19 -16 30 -12z m73 -25 c-3 -8 -6 -5 -6 6 -1 11 2 17 5 13 3 -3 4 -12 1 -19z
m-1846 -20 c23 1 29 -4 29 -21 0 -28 55 -182 75 -213 8 -13 15 -26 15 -30 0
-10 -209 1 -220 12 -7 7 -4 29 10 73 11 35 20 74 20 86 0 31 8 35 38 19 51
-27 66 -14 36 31 -9 14 -25 25 -35 25 -11 0 -19 7 -19 16 0 9 5 12 11 8 7 -4
25 -7 40 -6z m1729 -10 c-1 -12 -20 -41 -150 -223 l-54 -77 -18 22 c-26 32
-23 43 25 78 48 37 146 144 166 185 15 28 31 36 31 15z m48 -51 c-18 -34 -23
-64 -26 -149 -4 -108 -9 -119 -40 -99 -11 7 -11 9 2 14 22 9 20 34 -3 47 -31
16 -48 12 -55 -15 -4 -16 -13 -25 -27 -25 -24 0 -28 -8 67 131 39 59 75 116
79 128 3 12 11 19 16 16 5 -4 -1 -25 -13 -48z m-655 -86 c-4 -15 7 -24 51 -46
60 -29 71 -39 61 -55 -11 -18 -145 63 -145 87 0 11 21 33 31 33 4 0 5 -8 2
-19z m-733 -41 c0 -7 -6 -7 -20 0 -11 6 -20 20 -20 30 0 20 0 20 20 0 11 -11
20 -25 20 -30z m-205 -40 c-3 -5 -11 -10 -16 -10 -6 0 -7 5 -4 10 3 6 11 10
16 10 6 0 7 -4 4 -10z m1170 -10 c-3 -5 -13 -10 -21 -10 -8 0 -14 5 -14 10 0
6 9 10 21 10 11 0 17 -4 14 -10z m275 -118 c24 -13 24 -13 -10 -8 -45 8 -55
19 -38 45 l13 21 5 -22 c3 -13 17 -29 30 -36z m130 -28 c0 -2 -11 -4 -25 -4
-14 0 -25 4 -25 9 0 4 11 6 25 3 14 -2 25 -6 25 -8z M2530 7185 c0 -28 25 -44
42 -27 7 7 6 17 -1 31 -16 30 -41 27 -41 -4z M2515 7110 c-12 -20 6 -50 31
-50 19 0 24 5 24 24 0 30 -41 49 -55 26z M2281 7068 c-55 -9 -65 -19 -57 -53
6 -24 11 -27 40 -22 17 3 48 12 68 20 29 12 35 20 31 35 -6 25 -26 30 -82 20z
M1666 7001 c-9 -13 3 -39 21 -45 8 -3 47 -9 86 -13 l72 -6 -16 23 c-23 35
-148 66 -163 41z M3590 7892 c-34 -40 -70 -103 -65 -112 10 -16 61 -11 77 8 8
9 25 34 38 55 22 37 22 39 4 52 -25 19 -37 18 -54 -3z M3745 7872 c-19 -13
-95 -119 -95 -131 0 -6 12 -16 27 -22 31 -11 33 -9 87 70 38 56 41 78 11 73
-10 -2 -14 1 -10 7 7 12 -5 14 -20 3z M1005 7844 c-13 -14 -14 -19 -3 -33 7
-9 24 -38 37 -65 28 -54 40 -62 70 -47 20 11 20 12 -10 69 -33 60 -57 92 -70
92 -4 0 -15 -7 -24 -16z M3934 7809 c-19 -22 -19 -22 4 -10 12 6 22 16 22 21
0 15 -5 12 -26 -11z M914 7805 c-6 -15 28 -79 68 -128 l24 -29 23 19 24 20
-30 44 c-59 85 -96 109 -109 74z M3826 7795 c-45 -48 -79 -106 -70 -115 5 -5
23 -12 39 -16 28 -5 33 -1 72 60 38 59 40 67 27 81 -22 21 -42 19 -68 -10z
M3943 7773 c-29 -20 -51 -38 -48 -41 4 -5 58 31 89 60 31 28 16 21 -41 -19z
M817 7758 c-15 -12 -14 -18 22 -75 48 -75 71 -90 100 -65 20 17 20 17 -30 82
-53 70 -65 77 -92 58z M3939 7728 c-13 -18 -36 -48 -52 -67 l-29 -34 23 -13
c13 -7 31 -13 40 -14 17 0 58 53 80 104 12 25 11 30 -6 42 -26 20 -31 18 -56
-18z M740 7695 c0 -7 52 -87 67 -103 20 -21 15 -27 -6 -8 -11 10 -32 36 -47
59 -16 23 -30 44 -32 47 -2 2 -7 -2 -12 -9 -4 -8 -4 -19 1 -25 5 -6 28 -37 50
-68 22 -32 43 -58 47 -58 4 0 17 8 30 18 l23 18 -46 58 c-25 32 -45 62 -45 67
0 5 -7 9 -15 9 -8 0 -15 -2 -15 -5z M4041 7638 c-11 -18 -31 -47 -45 -63 -28
-34 -24 -50 15 -60 23 -6 32 1 77 57 51 63 51 63 30 81 -30 25 -54 21 -77 -15z
m51 -20 c-7 -7 -12 -8 -12 -2 0 14 12 26 19 19 2 -3 -1 -11 -7 -17z M660 7614
c0 -13 84 -114 94 -114 14 0 4 25 -25 61 -29 37 -69 68 -69 53z M1085 7587
c-28 -12 -68 -33 -90 -46 -38 -23 -172 -135 -187 -156 -16 -22 -7 -45 25 -61
17 -9 39 -24 47 -33 8 -9 25 -23 36 -31 12 -8 56 -41 97 -74 63 -48 75 -61 67
-76 -11 -20 13 -60 36 -60 8 0 15 -8 15 -17 3 -43 7 -61 24 -108 25 -71 30
-203 8 -227 -13 -14 -13 -18 -2 -22 93 -27 121 -33 161 -35 l48 -2 107 111
c60 61 109 117 111 125 2 7 -8 15 -22 19 -40 10 -105 59 -180 134 -67 68 -68
71 -57 102 13 39 2 64 -37 82 -29 14 -46 65 -71 218 -21 122 -28 149 -41 164
-17 21 -35 20 -95 -7z m72 -51 c-3 -7 -2 -31 3 -52 5 -22 11 -59 13 -84 2 -25
12 -77 22 -117 l18 -72 -24 -20 c-45 -38 -89 -40 -56 -3 23 25 21 39 -4 53
-17 9 -25 7 -45 -12 -23 -21 -26 -22 -41 -7 -15 16 -13 18 31 40 50 24 55 41
21 64 -19 12 -26 10 -72 -21 -43 -29 -53 -32 -63 -20 -10 12 -7 17 16 26 75
29 134 60 134 69 0 22 -29 20 -55 -4 -14 -14 -32 -23 -39 -20 -7 3 -29 -7 -50
-21 -40 -27 -72 -32 -79 -12 -4 13 44 50 82 62 28 8 116 60 144 83 39 34 13
30 -40 -6 -67 -45 -107 -67 -143 -76 -24 -7 -24 -6 3 9 31 18 33 27 12 45 -19
16 -19 30 0 30 8 0 19 -9 25 -21 11 -20 12 -20 38 -3 15 10 43 26 62 35 19 9
46 29 59 43 27 29 36 33 28 12z m-267 -166 c-20 -13 -40 -13 -40 0 0 6 12 10
28 10 21 0 24 -2 12 -10z m350 -256 c0 -24 -17 -15 -22 11 -4 20 -3 23 8 14 8
-6 14 -18 14 -25z m-40 -26 c0 -14 -20 -18 -40 -8 -17 9 -19 14 -10 25 9 11
16 12 31 2 10 -6 19 -15 19 -19z m146 -81 c39 -41 94 -89 123 -107 28 -18 51
-37 51 -40 0 -12 -42 -61 -48 -56 -2 3 1 12 7 20 13 16 -1 56 -19 56 -6 0 -37
-28 -69 -61 l-59 -62 -7 43 c-10 58 -60 204 -79 232 -22 31 -20 48 6 48 14 0
47 -26 94 -73z m-146 5 c0 -7 -4 -10 -10 -7 -5 3 -10 16 -10 28 0 18 2 19 10
7 5 -8 10 -21 10 -28z m39 -84 c4 -13 11 -36 15 -51 6 -25 5 -27 -13 -18 -24
13 -37 91 -15 91 2 0 8 -10 13 -22z m27 -145 c-3 -3 -13 -2 -23 2 -17 7 -17 8
2 15 19 7 34 -5 21 -17z m194 3 c0 -2 -8 -10 -17 -17 -16 -13 -17 -12 -4 4 13
16 21 21 21 13z m-73 -70 c-2 -6 -13 -12 -25 -14 -16 -3 -22 2 -22 16 0 15 5
18 25 14 14 -2 24 -10 22 -16z m-109 7 c-10 -2 -26 -2 -35 0 -10 3 -2 5 17 5
19 0 27 -2 18 -5z M4180 7593 c0 -5 -23 -32 -51 -62 -27 -30 -48 -59 -46 -65
2 -5 16 -14 32 -19 27 -9 32 -6 81 46 44 47 54 54 64 42 7 -8 18 -15 24 -15
13 1 -39 45 -76 66 -16 8 -28 11 -28 7z M656 7548 c26 -43 51 -68 66 -68 15 0
8 17 -28 63 -47 61 -75 64 -38 5z M1929 7573 c-13 -16 -12 -17 4 -4 9 7 17 15
17 17 0 8 -8 3 -21 -13z M4923 7515 c0 -27 2 -38 4 -22 2 15 2 37 0 50 -2 12
-4 0 -4 -28z M525 7540 c-8 -13 13 -47 62 -101 29 -32 38 -37 54 -28 28 14 24
25 -27 85 -44 51 -75 67 -89 44z M1989 7523 c-13 -16 -12 -17 4 -4 9 7 17 15
17 17 0 8 -8 3 -21 -13z M4258 7483 c-79 -76 -85 -88 -53 -109 24 -16 25 -15
60 23 20 21 52 54 71 74 23 24 33 41 28 52 -11 31 -45 18 -106 -40z M435 7460
c-8 -13 10 -44 52 -91 40 -44 57 -48 73 -19 9 18 4 28 -36 70 -45 48 -76 61
-89 40z M4329 7400 l-64 -61 24 -20 c13 -11 27 -18 31 -17 4 2 28 27 54 56 46
52 57 90 30 99 -7 2 -40 -24 -75 -57z M340 7365 c-7 -9 -11 -17 -9 -18 2 -1
28 -22 57 -45 52 -43 84 -51 90 -22 5 27 -77 100 -111 100 -8 0 -20 -7 -27
-15z M4038 7349 c-2 -8 -2 -25 2 -39 6 -25 -10 -126 -24 -148 -4 -7 -9 -20
-12 -29 -2 -10 -10 -39 -16 -65 -8 -32 -20 -51 -36 -60 -28 -14 -43 -47 -36
-75 4 -14 -10 -31 -58 -69 -80 -62 -122 -86 -235 -135 -18 -8 -33 -16 -33 -19
1 -14 27 -80 38 -93 7 -8 15 -29 17 -47 2 -18 6 -35 10 -38 8 -8 77 -32 95
-32 8 0 35 -10 60 -22 56 -26 111 -48 126 -48 6 0 14 28 17 66 7 73 43 187 81
255 23 41 24 47 11 65 -15 19 -15 19 -30 0 -11 -15 -18 -17 -27 -8 -8 8 -8 15
2 27 17 20 36 19 59 -4 34 -34 75 -13 94 50 5 15 140 99 160 99 17 0 127 71
127 82 0 17 -41 81 -70 108 -106 101 -162 150 -174 150 -7 0 -19 6 -25 14 -7
8 -20 15 -29 14 -9 0 -33 3 -53 7 -26 5 -37 3 -41 -6z m65 -40 c-8 -30 83
-122 113 -115 14 4 28 -2 39 -14 11 -12 26 -18 35 -15 22 7 86 -63 72 -77 -7
-7 -30 3 -68 28 -32 22 -66 44 -75 49 -99 59 -162 126 -144 154 12 20 33 12
28 -10z m132 -59 c10 -11 16 -20 13 -20 -3 0 -13 9 -23 20 -10 11 -16 20 -13
20 3 0 13 -9 23 -20z m-4 -126 c54 -37 97 -69 94 -72 -3 -3 -32 14 -65 37 -50
35 -63 40 -80 31 -31 -17 -24 -36 25 -72 80 -59 46 -54 -39 6 -25 18 -27 18
-46 1 -20 -18 -27 -45 -12 -45 12 -1 65 -51 59 -56 -3 -3 -22 6 -43 20 -28 19
-42 23 -56 15 -10 -5 -18 -14 -18 -19 0 -6 -4 -10 -9 -10 -17 0 -10 75 15 160
14 47 28 93 30 103 5 16 8 15 25 -7 11 -14 65 -56 120 -92z m-236 -163 c3 -5
1 -12 -5 -16 -5 -3 -10 1 -10 9 0 18 6 21 15 7z m35 -55 c0 -3 -4 -8 -10 -11
-5 -3 -10 -1 -10 4 0 6 5 11 10 11 6 0 10 -2 10 -4z m-44 -28 c4 -7 3 -8 -5
-4 -7 5 -27 -6 -50 -26 -20 -18 -55 -48 -77 -67 -104 -89 -153 -141 -148 -156
3 -8 12 -15 19 -15 18 0 83 51 140 109 27 28 54 51 59 51 5 0 -1 -12 -15 -26
-24 -25 -24 -26 -5 -40 11 -8 23 -14 28 -14 12 0 10 -39 -4 -77 -14 -38 -12
-38 -68 -18 -58 21 -87 19 -100 -6 -7 -11 -10 -22 -8 -24 9 -9 111 -45 128
-45 14 0 20 -7 20 -21 0 -16 -3 -19 -13 -11 -7 6 -46 22 -87 35 -65 21 -75 27
-72 46 2 13 -2 21 -11 21 -18 0 -59 66 -55 88 2 8 21 25 43 37 22 12 62 34 90
49 27 15 59 35 70 46 28 26 99 78 107 79 4 1 10 -4 14 -11z M4405 7310 c-48
-49 -49 -52 -31 -66 30 -21 40 -18 85 31 79 86 28 118 -54 35z M237 7277 c-3
-8 4 -20 15 -28 11 -8 35 -29 53 -46 40 -39 46 -40 70 -13 18 20 18 21 -1 34
-10 8 -32 26 -49 40 -32 28 -80 35 -88 13z M4570 7272 c-24 -8 -118 -82 -123
-97 -6 -15 26 -49 41 -44 22 9 122 109 122 122 0 17 -19 26 -40 19z M595 7242
c-67 -22 -156 -86 -207 -149 -78 -97 -105 -148 -88 -168 7 -8 15 -13 17 -11 3
2 26 -8 51 -23 26 -15 60 -31 76 -35 17 -4 37 -16 46 -26 10 -11 20 -17 24
-13 3 3 6 1 6 -6 0 -7 5 -9 10 -6 6 4 33 -7 60 -24 28 -17 59 -31 69 -31 25 0
75 -58 104 -123 14 -28 35 -97 47 -152 13 -55 26 -103 30 -108 3 -4 40 -2 81
4 114 17 119 19 119 32 0 7 12 29 26 48 14 19 41 64 60 101 18 36 38 69 43 73
29 17 -31 55 -86 55 -75 0 -270 153 -312 245 -5 11 -17 38 -27 60 -10 22 -18
45 -19 51 0 6 -6 18 -13 27 -7 8 -11 19 -10 23 1 5 -6 40 -16 77 -15 54 -24
70 -43 78 -13 5 -25 9 -26 8 -1 -1 -11 -4 -22 -7z m51 -54 c6 -19 -6 -35 -77
-100 -77 -72 -161 -138 -176 -138 -9 0 77 82 125 119 66 51 27 74 -44 26 -20
-14 -41 -25 -45 -25 -25 0 100 109 151 132 31 14 59 8 66 -14z m-37 -120 c-7
-12 -20 -29 -31 -38 -18 -15 -17 -16 7 -45 l25 -30 31 33 c17 19 33 31 36 28
4 -3 -3 -15 -15 -26 -26 -24 -28 -48 -7 -76 14 -19 15 -18 35 6 12 15 20 20
20 11 0 -8 7 -23 16 -33 13 -14 14 -21 5 -32 -8 -10 -9 -16 -1 -21 17 -11 11
-23 -9 -18 -11 3 -27 1 -37 -5 -16 -9 -15 -11 4 -21 12 -7 22 -16 22 -21 0
-15 -28 -12 -37 4 -4 7 -23 21 -41 30 -31 16 -33 19 -18 35 21 23 20 34 -4 56
-20 18 -21 18 -49 -9 -19 -18 -33 -24 -46 -20 -15 6 -12 11 19 38 32 28 34 33
21 50 -19 24 -51 16 -92 -24 -18 -18 -37 -29 -43 -25 -18 11 -11 20 48 52 31
18 77 52 102 77 50 52 56 55 39 24z m251 -313 c36 -30 79 -61 95 -69 17 -7 56
-26 88 -41 31 -14 57 -29 57 -32 0 -6 -66 -94 -103 -136 -15 -18 -25 -24 -21
-15 3 9 1 25 -5 36 -9 17 -8 19 8 15 10 -3 25 3 32 12 8 9 22 24 32 33 21 20
22 55 2 72 -20 16 -51 -9 -74 -62 l-17 -37 -44 82 c-49 92 -119 180 -137 172
-7 -2 -13 0 -13 4 0 8 15 18 30 20 3 1 35 -24 70 -54z m-30 -100 c0 -8 -4 -15
-8 -15 -9 0 -52 72 -52 86 1 15 60 -56 60 -71z m29 -85 c-14 -9 -29 -4 -29 10
0 12 34 18 39 7 2 -5 -3 -13 -10 -17z m27 -73 c-15 -11 -16 -17 -7 -35 9 -17
18 -20 49 -16 l37 4 -30 -14 c-43 -21 -62 -19 -69 7 -11 40 -7 65 12 69 25 6
28 0 8 -15z M146 7184 c-9 -23 88 -116 117 -112 34 5 27 33 -22 83 -45 46 -84
58 -95 29z M89 7114 c-11 -13 -5 -23 39 -67 44 -43 55 -50 70 -41 26 17 21 30
-27 79 -48 49 -61 54 -82 29z M4628 7111 c-44 -20 -78 -49 -78 -66 0 -6 11
-17 24 -25 22 -11 27 -10 62 24 20 20 41 36 46 36 12 0 6 43 -7 46 -5 1 -27
-6 -47 -15z M50 7006 c0 -27 7 -39 30 -56 33 -24 80 -21 80 4 0 13 -89 86
-104 86 -3 0 -6 -15 -6 -34z M4701 6989 c-67 -44 -79 -71 -37 -90 21 -10 30
-7 64 21 47 38 56 54 42 81 -13 24 -16 24 -69 -12z M4518 6858 c-20 -29 -59
-99 -88 -155 -43 -82 -58 -103 -75 -103 -31 0 -58 -23 -60 -51 -1 -18 -14 -31
-54 -52 -82 -42 -170 -74 -243 -87 -74 -13 -86 -29 -62 -75 8 -15 11 -31 8
-36 -3 -6 26 -39 64 -74 39 -36 87 -90 107 -120 27 -41 42 -55 60 -55 13 0 25
6 27 12 3 7 13 13 23 13 11 0 21 10 25 25 28 98 36 119 53 154 10 21 39 61 64
87 39 42 51 49 83 49 39 0 55 12 61 43 3 14 37 30 137 63 74 24 143 44 155 44
45 0 53 14 32 59 -10 23 -25 47 -33 54 -13 9 -14 9 -8 0 4 -8 2 -13 -4 -13 -8
0 -10 9 -6 25 5 19 2 27 -11 32 -18 7 -49 35 -93 86 -22 25 -22 27 -5 21 27
-10 -51 73 -87 92 -15 8 -29 14 -31 14 -2 0 -20 -24 -39 -52z m95 5 c3 -5 -6
-8 -19 -8 -13 0 -24 3 -24 8 0 4 9 7 19 7 11 0 22 -3 24 -7z m-44 -76 c5 -12
25 -42 46 -67 35 -42 36 -44 16 -52 -30 -11 -26 -37 11 -75 45 -47 29 -41 -20
7 -40 40 -64 44 -76 14 -3 -7 6 -27 19 -43 14 -16 25 -33 25 -37 0 -5 -11 4
-24 21 -22 28 -25 29 -52 15 -16 -7 -33 -13 -38 -11 -5 1 -17 -6 -27 -15 -38
-34 -31 12 14 102 25 49 53 106 62 127 20 43 32 47 44 14z m93 -52 c15 -27 25
-34 39 -30 14 5 17 2 13 -10 -7 -18 22 -55 43 -55 13 0 46 -60 38 -69 -9 -8
-78 56 -110 102 -19 29 -42 62 -51 75 -11 14 -12 22 -5 22 6 0 21 -16 33 -35z
m-297 -195 c-10 -11 -20 -18 -23 -15 -7 6 18 35 31 35 5 0 2 -9 -8 -20z m42
-42 c-3 -8 -6 -5 -6 6 -1 11 2 17 5 13 3 -3 4 -12 1 -19z m-17 -46 c0 -4 -10
-13 -22 -21 -23 -14 -23 -14 -4 8 20 22 26 25 26 13z m-225 -58 c-69 -34 -164
-68 -171 -61 -14 14 7 37 33 37 15 1 57 11 93 24 86 31 107 31 45 0z m120 -12
c-32 -6 -40 -19 -26 -45 11 -20 10 -29 -8 -58 -12 -19 -21 -44 -21 -56 0 -13
-4 -23 -9 -23 -8 0 -96 120 -90 123 58 32 157 73 164 69 6 -4 1 -8 -10 -10z
m-144 -186 c33 -43 58 -80 56 -82 -2 -3 -23 20 -47 51 -23 30 -58 69 -76 85
-19 16 -34 34 -34 39 0 16 35 17 38 1 2 -8 31 -50 63 -94z M2374 6882 c-8 -5
-10 -45 -6 -129 5 -119 5 -123 27 -123 38 0 42 18 37 143 -4 111 -6 117 -26
117 -11 0 -26 -4 -32 -8z M2491 6876 c-8 -10 -9 -20 -1 -37 6 -13 14 -51 18
-84 7 -55 9 -60 32 -60 25 0 25 0 22 89 -1 58 -7 93 -15 98 -19 12 -43 9 -56
-6z M2034 6858 c-20 -9 -21 -16 -17 -76 2 -37 9 -93 16 -124 10 -51 14 -58 34
-58 32 0 38 22 25 83 -7 29 -14 79 -17 112 -6 68 -12 77 -41 63z M2287 6848
c-21 -32 -18 -172 3 -175 35 -6 43 13 44 103 1 76 -1 89 -16 92 -9 2 -23 -7
-31 -20z M2607 6864 c-3 -4 -2 -14 3 -24 5 -9 9 -50 9 -90 0 -76 14 -109 44
-97 33 13 34 198 1 211 -20 8 -49 8 -57 0z M4783 6841 c-56 -40 -60 -51 -34
-73 22 -17 24 -17 53 0 42 23 65 59 52 80 -16 25 -28 24 -71 -7z M50 6835 c0
-15 4 -24 10 -20 13 8 13 32 0 40 -6 4 -10 -5 -10 -20z M2188 6847 c-11 -9
-17 -31 -20 -67 -3 -50 -1 -55 19 -58 29 -4 45 27 41 85 -3 50 -13 60 -40 40z
M2743 6755 c4 -109 11 -130 43 -123 24 4 36 83 26 164 -7 57 -8 59 -39 62
l-33 3 3 -106z M2102 6838 c-6 -6 -12 -31 -12 -55 0 -36 3 -43 20 -43 25 0 42
32 38 73 -3 34 -25 46 -46 25z M1931 6821 c-11 -7 -11 -15 -2 -44 14 -42 33
-60 55 -51 19 7 20 29 5 73 -11 31 -31 39 -58 22z M208 6804 c-4 -3 -12 -6
-20 -8 -26 -4 -64 -36 -101 -85 -30 -39 -38 -57 -35 -83 l3 -33 33 48 c37 53
57 59 66 21 10 -39 35 -26 66 34 l27 53 6 -43 c3 -24 20 -70 38 -103 51 -95
61 -133 45 -157 -8 -11 -27 -26 -42 -34 -28 -15 -28 -15 -9 6 15 17 16 24 7
45 -6 14 -18 25 -25 25 -19 0 -47 -32 -47 -53 0 -10 -8 -17 -20 -17 -11 0 -20
4 -20 10 0 17 54 89 67 90 17 0 -26 50 -43 50 -14 0 -94 -102 -94 -120 0 -11
-23 -14 -33 -4 -3 4 19 36 49 72 67 78 109 140 101 148 -3 3 -10 -4 -17 -15
-6 -12 -17 -21 -24 -21 -7 0 -30 -27 -50 -60 -21 -34 -49 -73 -62 -87 -15 -16
-24 -38 -24 -58 0 -28 4 -34 28 -38 15 -3 43 -9 62 -12 19 -4 49 -8 65 -9 22
-1 30 -6 29 -18 -1 -10 2 -15 7 -12 5 3 9 1 9 -5 0 -5 18 -12 39 -16 32 -5 42
-13 56 -41 9 -20 29 -54 45 -77 24 -37 39 -74 69 -177 16 -52 153 -46 206 10
26 28 103 152 135 219 l21 43 -22 24 c-16 18 -33 24 -63 24 -38 0 -125 25
-195 57 -19 9 -46 19 -60 23 -19 4 -27 15 -32 40 -4 18 -13 37 -21 41 -34 20
-48 36 -50 59 -2 14 -10 32 -19 40 -14 12 -48 77 -53 100 -15 62 -76 126 -98
104z m-8 -39 c-35 -20 -62 -19 -36 0 11 8 29 15 40 15 19 -1 19 -2 -4 -15z
m295 -403 c74 -30 138 -49 194 -56 18 -3 38 -9 44 -15 12 -12 -15 -58 -90
-155 -29 -37 -53 -72 -53 -77 0 -4 -10 -14 -22 -20 -21 -11 -22 -11 -10 4 12
14 11 25 -7 71 -11 30 -36 79 -56 110 -30 48 -34 58 -23 75 10 17 9 23 -6 40
-10 11 -23 18 -29 16 -7 -3 -23 4 -36 15 -19 17 -21 23 -11 35 11 13 14 13 24
0 6 -8 43 -27 81 -43z m-170 8 c3 -5 2 -10 -4 -10 -5 0 -13 5 -16 10 -3 6 -2
10 4 10 5 0 13 -4 16 -10z m170 -252 c25 -53 34 -101 16 -82 -11 10 -52 134
-44 134 2 0 15 -24 28 -52z M548 6270 c-11 -18 -14 -18 -30 -3 -39 35 -34 -12
6 -61 27 -33 51 -30 65 8 19 48 -16 96 -41 56z M630 6241 c-14 -20 -35 -46
-47 -58 -27 -26 -28 -33 -9 -59 14 -18 15 -18 46 11 52 49 73 83 66 109 -9 38
-30 37 -56 -3z M2899 6808 c0 -2 -3 -16 -5 -33 -3 -16 -9 -54 -14 -84 -10 -55
-2 -81 25 -81 31 0 49 53 50 145 0 47 -2 50 -27 53 -16 2 -28 2 -29 0z M1667
6793 c-12 -3 -17 -11 -13 -21 3 -10 17 -57 30 -106 32 -113 56 -142 96 -116
13 8 13 13 -1 42 -9 18 -27 71 -40 118 -24 85 -32 94 -72 83z M1787 6785 c-13
-12 -13 -20 -2 -52 14 -42 29 -51 50 -33 27 23 12 100 -20 100 -7 0 -20 -7
-28 -15z M3033 6768 c-6 -7 -15 -47 -21 -88 -9 -59 -8 -78 2 -88 30 -31 61 10
76 100 9 55 8 65 -7 76 -9 6 -22 12 -29 12 -6 0 -16 -6 -21 -12z M3161 6743
c-17 -33 -43 -140 -39 -164 2 -16 11 -25 25 -27 26 -4 33 9 64 118 17 60 17
66 2 78 -23 17 -41 15 -52 -5z M1559 6731 c-21 -17 -21 -18 -5 -43 22 -34 39
-40 65 -22 21 15 21 16 4 44 -22 38 -37 43 -64 21z M4850 6712 c-44 -21 -47
-52 -7 -66 24 -9 31 -6 55 17 21 22 25 31 16 44 -15 24 -24 24 -64 5z M3257
6703 c-4 -3 -7 -13 -7 -21 0 -8 -6 -28 -14 -45 -14 -31 -29 -83 -30 -101 -1
-5 9 -12 21 -17 28 -10 45 13 79 105 17 47 20 66 11 75 -12 12 -50 15 -60 4z
M1470 6665 c-10 -13 -10 -19 2 -33 8 -9 20 -36 26 -58 15 -53 34 -69 61 -54
25 13 26 27 4 82 -28 74 -64 98 -93 63z M3336 6608 c-38 -85 -40 -103 -11
-122 23 -15 25 -15 39 6 25 40 67 149 61 158 -4 6 -20 10 -36 10 -27 0 -33 -6
-53 -52z M1387 6612 c-15 -16 -14 -22 7 -73 25 -62 64 -129 74 -129 23 1 52
14 52 24 0 6 -8 28 -19 48 -10 20 -28 62 -41 92 -24 60 -44 70 -73 38z M4900
6602 c-21 -17 -21 -19 -5 -35 25 -26 35 -21 35 18 0 41 -1 41 -30 17z M1202
6594 c-12 -8 -22 -23 -21 -32 0 -9 21 -60 47 -112 49 -98 74 -119 102 -86 14
17 10 26 -57 161 -44 88 -44 88 -71 69z M1282 6587 c-9 -11 -7 -23 11 -55 23
-44 46 -53 68 -26 11 13 10 22 -6 52 -21 40 -54 52 -73 29z M3461 6571 c-11
-11 -29 -41 -41 -67 -20 -46 -20 -49 -4 -61 10 -7 23 -13 30 -13 15 0 53 49
78 97 15 31 15 32 -6 47 -29 20 -34 20 -57 -3z M3556 6468 c-50 -77 -53 -95
-20 -110 24 -11 28 -10 50 17 13 17 34 49 46 72 24 45 21 55 -19 67 -19 6 -28
-1 -57 -46z M4754 6496 c-11 -6 -36 -23 -56 -38 -19 -16 -42 -28 -50 -28 -8 0
-24 -10 -36 -23 -22 -24 -22 -24 -2 -42 11 -10 17 -23 13 -29 -4 -6 1 -5 11 3
10 9 20 11 24 5 9 -12 46 -18 38 -6 -3 5 24 35 59 67 36 32 65 63 65 70 0 20
-43 34 -66 21z M1138 6489 c-27 -15 -21 -50 17 -92 30 -35 35 -37 54 -25 24
15 27 40 8 60 -7 7 -21 25 -31 41 -20 30 -23 31 -48 16z M4834 6429 c-3 -5
-23 -18 -44 -29 -40 -21 -113 -105 -107 -124 2 -6 17 -19 34 -28 30 -18 30
-18 44 9 8 15 34 45 58 67 83 75 83 76 71 91 -14 17 -48 26 -56 14z M3643
6378 c-55 -92 -60 -108 -38 -124 10 -8 22 -14 27 -14 12 0 83 94 98 130 12 29
12 34 -5 46 -32 24 -50 16 -82 -38z M1035 6359 c-19 -20 -18 -21 44 -81 57
-56 64 -59 79 -45 14 15 14 19 -4 52 -16 29 -83 95 -97 95 -2 0 -12 -9 -22
-21z M4431 6290 c-49 -46 -72 -74 -68 -84 5 -12 0 -15 -15 -13 -30 3 -35 -28
-8 -43 28 -15 54 -5 47 19 -3 13 0 17 12 14 9 -2 34 12 57 34 22 21 57 53 77
71 39 35 44 47 27 57 -35 22 -57 12 -129 -55z M50 6306 c0 -42 12 -51 44 -34
28 15 24 25 -16 51 l-28 17 0 -34z M4854 6302 c-52 -42 -102 -92 -91 -92 4 0
3 -10 -2 -23 -8 -20 -5 -25 20 -34 28 -11 31 -9 89 55 62 70 68 85 46 115 -13
16 -17 15 -62 -21z M3743 6298 c-28 -29 -53 -75 -53 -97 0 -8 50 -34 55 -29
97 116 109 140 79 152 -31 12 -51 6 -81 -26z M866 6301 c-17 -19 -17 -21 20
-59 22 -22 55 -56 74 -76 36 -38 76 -47 87 -20 4 11 -8 28 -36 54 -22 21 -41
41 -41 45 0 5 8 1 19 -9 23 -21 51 -11 51 18 0 45 -48 62 -73 26 -13 -19 -14
-19 -42 10 -34 35 -37 36 -59 11z M252 6238 c3 -7 17 -14 32 -16 20 -3 27 0
24 10 -3 7 -17 14 -32 16 -20 3 -27 0 -24 -10z M4514 6218 c-16 -13 -39 -32
-51 -43 -11 -11 -33 -30 -47 -42 -33 -27 -33 -51 -2 -59 20 -5 40 7 105 62 45
37 81 71 81 76 0 7 -41 28 -54 28 -1 0 -16 -10 -32 -22z M50 6187 c0 -40 6
-44 34 -24 16 12 15 14 -8 36 l-26 24 0 -36z M3841 6174 c-48 -54 -50 -70 -16
-86 21 -10 30 -8 53 9 38 28 74 94 60 110 -21 26 -55 14 -97 -33z M816 6181
c-17 -18 -15 -21 44 -71 64 -53 76 -56 94 -26 9 13 7 20 -8 31 -10 8 -35 30
-57 49 -44 41 -50 43 -73 17z M4865 6134 c-35 -38 -37 -73 -3 -81 10 -3 18
-10 18 -17 0 -6 12 2 25 17 19 21 25 40 25 73 0 56 -19 58 -65 8z M167 6153
c-16 -16 -3 -40 36 -68 72 -52 121 -74 135 -63 22 19 13 35 -55 87 -62 47 -99
61 -116 44z M3935 6109 c-48 -42 -70 -86 -54 -105 25 -30 58 -12 122 66 33 42
34 48 1 60 -33 13 -28 15 -69 -21z M4518 6092 c-68 -51 -83 -83 -48 -102 24
-13 30 -9 108 62 29 25 52 50 52 55 0 6 -11 15 -25 21 -22 10 -31 6 -87 -36z
M765 6090 c-18 -20 -18 -21 16 -50 19 -16 49 -34 68 -41 31 -11 36 -10 53 11
19 24 16 40 -8 40 -8 0 -33 14 -56 30 -49 36 -50 36 -73 10z M120 6060 l-22
-22 51 -37 c73 -55 127 -77 146 -61 24 20 18 35 -20 53 -20 9 -38 24 -41 32
-4 8 -14 15 -24 15 -9 0 -29 9 -43 20 l-26 21 -21 -21z M4581 5999 c-33 -28
-61 -56 -61 -64 0 -24 37 -38 63 -24 35 19 117 93 117 106 0 6 -13 16 -29 21
-26 9 -34 6 -90 -39z M722 6008 c-28 -28 -11 -51 62 -88 29 -15 43 -17 53 -9
22 19 15 36 -31 73 -46 38 -65 43 -84 24z M4027 5989 c-44 -36 -49 -70 -13
-87 22 -10 29 -6 70 35 25 25 46 49 46 54 0 9 -41 29 -58 29 -4 0 -24 -14 -45
-31z M4910 5974 c-8 -19 -6 -29 5 -40 13 -14 15 -11 15 25 0 47 -6 52 -20 15z
M62 5978 c-22 -22 -13 -33 60 -78 122 -75 138 -82 154 -69 24 19 16 38 -25 59
-22 11 -66 38 -97 60 -62 43 -73 47 -92 28z M598 5956 c-28 -21 -22 -31 40
-68 122 -74 158 -81 150 -28 -2 17 -24 34 -83 66 -44 24 -82 44 -85 43 -3 0
-13 -6 -22 -13z M4645 5905 c-64 -60 -68 -66 -53 -81 24 -25 58 -11 122 47 59
53 68 73 39 83 -10 3 -22 8 -28 11 -5 2 -41 -25 -80 -60z M4185 5940 c-10 -11
-25 -20 -34 -20 -20 0 -91 -66 -91 -84 0 -8 11 -21 24 -29 22 -15 25 -14 47 9
12 13 27 24 33 24 21 1 96 78 96 99 0 28 -50 29 -75 1z M4281 5879 c-56 -25
-151 -105 -151 -127 0 -10 9 -23 21 -30 20 -13 20 -14 2 -27 -10 -8 -13 -14
-8 -15 6 0 33 23 60 51 28 28 64 57 82 64 44 18 73 50 73 80 0 31 -19 32 -79
4z M50 5856 c0 -30 6 -39 46 -65 25 -17 49 -31 54 -31 5 0 22 -12 39 -26 34
-28 71 -26 71 5 0 22 -23 42 -77 66 -23 10 -50 27 -60 37 -10 11 -30 26 -45
34 -28 14 -28 14 -28 -20z M512 5860 c-11 -18 -7 -22 40 -46 28 -14 69 -32 91
-40 36 -13 42 -12 59 3 16 14 17 19 4 31 -17 17 -144 72 -166 72 -8 0 -21 -9
-28 -20z M4767 5845 c-48 -28 -107 -85 -107 -101 0 -7 10 -20 22 -28 20 -14
24 -13 58 12 74 54 112 93 106 107 -3 8 -12 15 -20 15 -8 0 -16 4 -18 9 -1 5
-20 -1 -41 -14z M4405 5790 c-3 -5 -17 -10 -29 -10 -13 0 -29 -7 -36 -15 -7
-8 -17 -15 -23 -15 -12 0 -84 -75 -99 -104 -8 -14 -5 -23 10 -39 l20 -20 35
29 c20 16 45 41 57 57 12 15 27 27 34 27 20 0 45 33 52 68 6 31 -7 45 -21 22z
M420 5770 c-13 -24 -9 -33 18 -35 9 0 47 -16 84 -34 71 -35 88 -34 88 4 0 19
-11 29 -53 50 -30 14 -70 28 -89 32 -30 4 -38 2 -48 -17z M50 5713 c1 -35 5
-40 56 -71 44 -27 58 -31 69 -22 25 20 17 38 -27 66 -24 15 -55 36 -70 46
l-28 19 0 -38z M4786 5694 c-57 -46 -68 -72 -40 -95 19 -16 57 2 128 63 l49
42 -23 18 c-33 27 -53 22 -114 -28z M314 5669 c-14 -16 -14 -18 3 -27 10 -5
32 -13 50 -17 18 -3 57 -19 88 -35 l55 -28 15 21 c15 21 14 24 -12 45 -38 32
-69 44 -131 52 -43 5 -55 3 -68 -11z M4440 5664 c-60 -10 -70 -15 -70 -33 0
-11 -15 -28 -35 -40 -19 -11 -35 -27 -35 -34 0 -14 31 -47 44 -47 10 0 70 43
79 58 4 6 16 12 25 12 9 0 31 11 47 24 25 21 28 28 19 43 -12 19 -32 23 -74
17z M4910 5643 c-8 -3 -41 -26 -72 -50 -55 -42 -72 -73 -48 -88 8 -5 7 -11 -1
-21 -21 -25 -1 -27 30 -3 16 13 48 37 70 52 38 26 41 32 41 73 0 24 -1 44 -2
43 -2 0 -10 -3 -18 -6z M50 5575 c0 -30 5 -38 35 -52 28 -13 37 -14 50 -3 25
21 18 38 -28 65 -24 14 -47 25 -50 25 -4 0 -7 -16 -7 -35z M271 5567 c-14 -14
-14 -34 1 -43 6 -4 46 -15 87 -25 63 -15 78 -16 89 -5 22 21 -2 54 -46 65 -64
16 -120 19 -131 8z M4448 5521 c-7 -12 -20 -21 -29 -21 -17 0 -49 -30 -49 -47
0 -5 9 -18 19 -27 16 -15 23 -16 43 -5 13 6 26 16 29 22 4 5 26 11 50 13 23 2
47 8 51 12 12 12 -9 62 -26 62 -7 0 -27 3 -44 6 -24 5 -33 2 -44 -15z M50
5464 c0 -31 3 -35 23 -32 33 5 35 41 2 56 -24 11 -25 10 -25 -24z M254 5466
c-10 -40 -1 -59 44 -90 34 -24 46 -28 60 -20 17 11 30 83 15 85 -28 2 -46 10
-69 28 -34 27 -42 26 -50 -3z M4863 5466 c-22 -10 -28 -24 -24 -53 1 -7 -3
-22 -9 -34 -15 -28 -8 -32 26 -17 45 19 73 54 72 88 -1 24 -5 30 -22 29 -12
-1 -31 -6 -43 -13z M4579 5436 c-3 -3 -22 -7 -43 -9 -20 -3 -42 -9 -49 -16 -6
-6 -19 -11 -29 -11 -20 0 -46 -47 -41 -72 6 -24 35 -23 75 2 18 11 42 20 53
20 29 0 69 30 57 42 -6 6 -17 6 -30 -1 -11 -6 -27 -11 -34 -11 -7 0 3 8 22 17
45 22 45 22 34 33 -6 6 -12 8 -15 6z M50 5380 c0 -19 3 -21 12 -12 9 9 9 15 0
24 -9 9 -12 7 -12 -12z M243 5351 c-6 -3 -14 -20 -17 -38 -6 -28 -4 -34 21
-47 17 -9 22 -15 12 -16 -14 0 -29 -36 -29 -70 0 -14 30 -20 55 -10 29 11 35
54 8 68 -13 8 -11 11 15 17 24 5 32 12 32 28 0 12 -4 27 -8 33 -10 17 -77 43
-89 35z M4540 5305 c-9 -10 -17 -12 -30 -5 -21 11 -30 -4 -30 -50 0 -36 11
-44 36 -26 11 9 23 11 29 6 13 -11 75 27 75 46 0 10 -6 11 -26 3 -15 -5 -29
-7 -32 -4 -3 3 9 10 26 16 18 6 29 15 26 20 -9 14 -60 10 -74 -6z M4872 5303
c-15 -6 -46 -63 -38 -71 4 -3 23 2 43 12 29 14 38 15 44 4 6 -8 9 1 9 25 0 32
-3 37 -22 36 -13 0 -29 -3 -36 -6z M51 5274 c0 -11 3 -14 6 -6 3 7 2 16 -1 19
-3 4 -6 -2 -5 -13z M4562 5202 c-11 -11 -28 -19 -38 -19 -20 2 -38 -55 -21
-72 10 -10 57 5 57 18 0 4 12 8 26 9 29 2 54 18 54 34 0 10 -17 8 -52 -7 -10
-4 -18 -3 -18 2 0 6 14 14 31 19 37 11 39 28 5 32 -15 2 -33 -5 -44 -16z
M4882 5213 c-17 -7 -44 -61 -34 -67 5 -3 25 2 45 12 58 26 48 79 -11 55z M250
5129 c-18 -33 -9 -64 20 -64 20 0 26 6 28 28 3 27 -12 57 -29 57 -5 0 -13 -9
-19 -21z M4907 5121 c-22 -37 -21 -41 3 -41 16 0 20 7 20 35 0 19 -1 35 -3 35
-1 0 -10 -13 -20 -29z M4576 5106 c-38 -37 -58 -82 -43 -95 10 -8 23 -2 50 20
21 17 44 29 51 26 18 -7 52 28 37 37 -6 4 -19 2 -30 -4 -24 -12 -31 -13 -31
-1 0 5 9 13 20 16 28 9 25 25 -5 25 -14 0 -36 -11 -49 -24z M4896 5021 c-17
-31 -13 -41 16 -41 14 0 18 8 18 35 0 42 -14 45 -34 6z M257 4993 c-11 -10 -8
-63 3 -63 13 0 32 48 24 61 -6 11 -18 12 -27 2z M4625 4990 c-4 -6 -15 -8 -25
-5 -14 4 -23 -2 -34 -24 -9 -17 -16 -35 -16 -41 0 -17 39 -11 59 9 13 13 22
16 29 9 6 -6 12 -6 16 1 9 14 -2 33 -15 26 -5 -4 -9 -2 -9 4 0 5 5 11 12 13 9
3 9 6 1 11 -7 4 -15 3 -18 -3z M255 4887 c-4 -8 -5 -26 -3 -39 4 -23 4 -23 18
5 10 21 11 30 2 39 -8 8 -13 7 -17 -5z M4540 4864 c-15 -37 -13 -44 13 -44 24
0 53 42 42 61 -12 19 -46 9 -55 -17z M4569 4803 c0 -5 -3 -20 -5 -35 -3 -19 0
-28 9 -28 16 0 40 47 32 61 -7 11 -35 12 -36 2z M675 3839 c-4 -6 -4 -26 -1
-45 6 -30 4 -34 -14 -34 -25 0 -97 35 -126 61 -17 16 -24 17 -52 7 -18 -7 -32
-19 -32 -28 0 -45 88 -147 152 -176 35 -15 38 -21 38 -56 0 -46 25 -88 52 -88
13 0 17 -4 12 -12 -15 -23 -4 -82 19 -101 12 -10 28 -29 37 -41 8 -13 27 -41
42 -63 14 -22 45 -55 68 -73 34 -27 44 -30 51 -19 7 12 9 12 9 -1 0 -8 25 -39
55 -69 45 -44 59 -52 79 -47 21 5 25 2 31 -27 18 -93 40 -180 62 -246 19 -57
22 -76 12 -81 -20 -13 -37 0 -44 31 -9 40 -48 58 -113 54 l-51 -3 1 33 c1 30
-25 87 -60 128 -10 10 -29 17 -53 17 -50 0 -89 18 -89 42 0 20 -6 22 -64 19
-58 -3 -70 -14 -91 -75 l-19 -55 -38 35 c-38 34 -82 45 -91 22 -2 -7 -6 7 -8
32 -4 44 -3 46 22 42 45 -7 94 22 119 69 31 59 30 116 -1 140 -13 11 -37 23
-54 28 -16 5 -25 10 -18 10 14 1 -2 69 -20 88 -7 7 -42 14 -79 15 -38 2 -64 7
-60 12 3 6 -9 0 -26 -13 -35 -25 -43 -46 -40 -106 3 -39 2 -40 -36 -50 -65
-17 -67 -39 -11 -135 8 -14 16 -28 17 -33 3 -8 32 -16 86 -24 27 -4 32 -9 32
-32 0 -25 -5 -29 -60 -44 -73 -21 -70 -21 -70 -2 0 9 -12 28 -26 42 -19 19
-25 33 -21 52 7 32 -13 61 -41 61 -12 0 -25 7 -30 15 -7 13 -14 14 -37 5 -41
-16 -45 -25 -45 -115 0 -71 2 -81 18 -81 19 0 22 11 24 89 1 26 5 47 10 47 4
0 8 -6 8 -14 0 -7 7 -19 15 -26 8 -7 13 -24 11 -40 -3 -23 1 -30 21 -35 20 -5
24 -10 19 -28 -3 -12 -6 -28 -6 -35 0 -10 -4 -10 -20 0 -18 11 -18 14 -3 30 9
10 11 18 6 18 -11 0 -27 -29 -25 -42 1 -5 -4 -8 -12 -8 -8 0 -17 -7 -20 -16
-4 -10 -14 -14 -25 -11 -19 4 -20 -2 -20 -109 -1 -63 3 -114 8 -114 5 0 17 7
25 16 14 14 17 14 22 0 5 -13 8 -13 20 -1 19 18 18 31 -1 15 -12 -10 -15 -10
-15 1 0 18 61 69 83 69 9 0 18 3 18 8 1 4 3 16 4 27 3 27 64 91 84 88 9 -1 11
0 3 3 -19 9 -14 20 13 32 32 15 65 15 65 1 0 -5 -3 -8 -8 -5 -10 6 -37 -15
-45 -36 -7 -20 10 -34 36 -30 10 2 25 -2 33 -8 10 -9 14 -9 14 -1 0 6 -5 11
-10 11 -17 0 7 38 29 45 14 4 17 13 15 35 -2 17 1 30 6 30 6 0 10 -3 10 -7 0
-5 14 -17 30 -28 17 -11 33 -29 37 -40 3 -11 27 -41 52 -66 95 -95 114 -117
108 -125 -3 -5 11 -10 31 -11 51 -3 126 -10 132 -12 3 -1 -2 -6 -11 -11 -9 -5
-30 -5 -55 1 -39 10 -111 12 -125 3 -4 -2 -5 -13 -2 -24 4 -13 14 -20 32 -21
14 0 40 -3 56 -5 17 -2 41 -5 55 -7 14 -1 45 7 71 20 31 15 56 20 80 17 18 -3
48 -6 64 -7 17 -1 32 -5 35 -8 5 -7 43 -12 68 -10 6 1 12 12 12 25 0 13 7 27
16 30 28 11 34 -4 15 -32 -23 -32 -54 -150 -49 -189 2 -20 -1 -27 -11 -25 -8
2 -26 -2 -40 -7 -26 -11 -274 -39 -403 -46 -79 -4 -108 -12 -105 -28 2 -13
-52 -22 -130 -22 -29 0 -53 -2 -53 -5 0 -3 -19 -6 -42 -7 -24 -1 -72 -7 -108
-12 -36 -6 -71 -11 -77 -11 -7 0 -13 -6 -13 -13 0 -20 -33 -47 -58 -47 -15 0
-22 -6 -22 -20 0 -13 7 -20 18 -20 10 0 23 -5 30 -12 9 -9 12 -9 12 1 0 7 6
11 14 8 7 -3 25 1 40 8 23 12 28 12 43 -3 16 -16 16 -16 10 1 -4 10 -7 21 -7
23 0 3 -4 3 -9 -1 -6 -3 -9 4 -8 15 1 11 8 20 17 21 8 0 28 3 43 5 16 3 35 0
43 -7 12 -10 13 -9 8 5 -7 17 11 23 21 6 4 -6 13 -7 23 -1 27 15 164 22 179 9
9 -7 13 -7 13 1 0 6 11 11 24 11 14 0 27 4 31 10 3 5 13 7 23 4 14 -5 15 -4 2
5 -23 16 -6 23 67 27 37 2 79 6 91 8 68 14 140 18 146 7 4 -6 15 -11 24 -10
14 0 14 2 2 6 -15 6 84 31 128 32 20 1 22 -3 16 -21 -9 -31 -12 -34 -26 -20
-7 7 -17 12 -22 12 -6 0 -4 -5 4 -10 8 -5 10 -10 5 -10 -6 0 -42 -7 -80 -16
-39 -8 -78 -17 -87 -18 -10 -1 -21 -6 -25 -11 -5 -4 -2 -5 5 -1 18 11 15 -34
-4 -55 -9 -10 -17 -29 -18 -41 -1 -18 -7 -23 -31 -24 -70 -1 -185 -17 -257
-36 -85 -22 -97 -37 -71 -90 11 -23 20 -28 48 -28 19 0 35 -4 35 -8 0 -16 -50
-32 -98 -32 -44 0 -155 -14 -212 -26 -14 -3 -45 -7 -69 -10 -64 -8 -91 -21
-91 -43 0 -12 -9 -21 -25 -25 -19 -5 -25 -13 -25 -35 0 -28 0 -28 46 -20 56
11 63 15 74 45 5 13 13 23 17 22 5 0 15 1 23 5 21 8 161 26 250 32 130 8 180
34 180 91 0 28 -16 41 -62 49 -26 5 -38 13 -38 24 0 9 8 17 18 17 9 1 33 3 52
7 19 3 67 8 105 12 39 3 90 8 114 11 50 5 84 30 78 56 -3 11 4 25 19 37 13 10
24 26 24 34 0 14 44 27 111 33 23 2 25 -1 21 -23 -3 -17 2 -29 17 -39 12 -9
19 -19 16 -24 -3 -4 6 -22 20 -38 14 -16 25 -34 25 -40 0 -5 9 -16 20 -23 15
-10 26 -40 41 -104 11 -49 24 -99 29 -110 9 -21 22 -63 26 -81 1 -6 5 -25 8
-41 l7 -29 -263 -2 c-145 -1 -270 -2 -278 -2 -31 -1 -109 8 -119 14 -6 4 -11
3 -11 -2 0 -4 -22 -8 -49 -8 -27 1 -48 3 -46 6 2 3 -105 5 -236 5 l-239 0 0
-42 0 -43 358 3 357 3 -3 22 c-2 12 2 22 7 22 6 0 11 -10 11 -22 0 -22 4 -23
83 -25 355 -10 420 -12 423 -16 3 -3 9 -28 13 -57 5 -29 15 -56 22 -61 11 -7
9 -12 -8 -24 -31 -22 -30 -69 2 -99 25 -23 41 -77 51 -170 5 -47 3 -54 -26
-84 -25 -27 -37 -32 -59 -27 -30 6 -81 -25 -81 -50 0 -7 -6 -15 -12 -18 -9 -3
-5 -12 12 -30 23 -22 36 -26 115 -31 50 -3 125 -13 168 -22 73 -16 78 -16 97
1 11 10 20 23 20 29 0 13 82 38 102 31 7 -3 24 4 37 14 22 17 23 21 12 54 -7
20 -26 51 -42 68 -19 20 -30 43 -31 63 -2 58 14 176 24 176 9 0 38 60 38 79 0
5 -11 22 -24 38 -16 19 -25 46 -29 86 l-6 58 32 -3 c31 -3 33 -5 51 -80 17
-72 21 -78 52 -90 38 -13 41 -24 69 -214 9 -60 21 -114 27 -121 6 -7 21 -13
34 -13 13 0 32 -9 42 -21 9 -11 34 -29 55 -40 35 -18 41 -19 68 -5 27 13 29
13 29 -3 0 -21 54 -81 73 -81 13 0 79 -32 100 -48 7 -5 25 -12 41 -15 38 -6
80 33 74 68 -5 23 -3 24 41 18 25 -3 63 -15 85 -25 21 -11 49 -18 62 -15 12 2
51 -2 86 -9 96 -20 102 -19 95 16 -6 28 -5 29 19 20 14 -6 37 -10 52 -10 26
-1 26 -1 7 -16 -20 -15 -20 -15 0 -30 10 -8 24 -13 30 -11 14 5 19 38 6 46 -6
4 -8 22 -4 45 5 34 8 37 31 31 14 -3 50 -28 82 -56 61 -53 74 -58 84 -33 7 18
5 21 -42 84 -42 56 -60 70 -88 70 -18 0 -23 6 -26 33 -3 29 -10 35 -86 74 -46
23 -94 50 -105 61 -12 11 -42 28 -67 39 -58 25 -76 46 -56 62 13 11 12 19 -8
64 -13 29 -32 89 -43 134 l-19 82 31 5 c16 3 161 4 320 2 303 -4 404 -15 441
-48 11 -10 34 -18 51 -18 29 0 30 -2 41 -66 11 -64 10 -68 -14 -99 -14 -18
-32 -36 -39 -39 -12 -4 -14 -23 -11 -91 2 -47 0 -88 -5 -91 -5 -3 -9 -15 -9
-26 0 -12 -7 -30 -17 -40 -26 -29 -4 -59 77 -102 67 -35 77 -37 133 -32 67 6
64 5 69 28 3 16 -76 98 -94 98 -5 0 -6 17 -2 38 10 54 34 112 48 112 17 0 56
-29 57 -43 0 -7 14 -23 31 -36 23 -19 41 -24 80 -23 28 0 53 3 56 6 10 10 -21
88 -50 123 -20 25 -26 42 -22 59 8 29 -11 32 -26 4 -11 -21 -4 -44 31 -89 11
-13 19 -32 19 -43 0 -18 -1 -19 -29 -2 -17 10 -38 33 -48 51 -10 18 -25 36
-35 39 -16 5 -16 8 -4 27 8 12 13 34 11 50 -2 15 0 25 5 22 4 -3 11 2 14 10 5
13 9 13 26 3 15 -10 22 -10 32 0 19 19 30 14 18 -9 -7 -11 -9 -23 -6 -26 12
-12 35 21 52 75 10 31 23 66 30 77 6 11 17 36 23 56 10 32 17 37 48 41 33 4
37 2 50 -31 13 -31 13 -39 -1 -69 -9 -18 -14 -37 -12 -41 3 -4 -8 -21 -24 -36
-17 -16 -30 -34 -30 -40 0 -35 92 -75 119 -51 9 7 27 17 41 21 13 4 37 17 51
27 31 23 64 17 72 -12 3 -11 17 -24 31 -30 14 -5 26 -17 26 -25 0 -9 7 -30 16
-46 14 -28 18 -99 11 -194 -2 -24 3 -31 25 -39 56 -20 141 68 137 142 -1 15 1
46 5 70 6 32 4 48 -7 60 -9 11 -13 30 -10 54 4 29 13 42 45 64 71 50 99 109
66 142 -14 14 -30 13 235 12 l187 -1 0 31 c0 16 -3 31 -7 31 -32 6 -71 8 -158
10 -55 1 -104 4 -108 6 -5 3 -43 5 -85 5 -42 0 -85 4 -94 9 -12 6 -18 6 -18
-1 0 -5 -4 -10 -10 -10 -5 0 -10 9 -10 20 0 26 -22 35 -49 21 -16 -9 -19 -18
-14 -49 8 -49 30 -92 61 -118 l25 -21 -47 -36 -47 -36 -97 5 c-93 5 -119 13
-153 46 -8 8 -31 26 -51 42 -21 15 -40 38 -44 49 -3 12 -13 30 -21 39 -8 9
-12 21 -9 27 3 5 0 11 -6 14 -10 3 -10 11 1 38 7 19 15 45 18 59 10 44 21 50
77 44 41 -5 55 -3 65 10 10 12 11 20 4 27 -6 6 -7 24 -4 42 9 41 34 45 97 18
26 -12 58 -21 73 -21 15 0 21 -3 14 -8 -8 -5 -9 -26 -4 -70 8 -71 30 -104 59
-86 14 9 17 24 15 77 -2 55 1 69 17 80 28 19 42 63 43 135 2 62 2 62 28 57 41
-9 76 25 75 72 -2 31 -6 38 -26 43 l-25 6 22 8 c26 8 31 34 8 42 -8 4 -15 12
-15 19 0 8 -9 17 -20 20 -11 3 -20 11 -20 16 0 5 -7 9 -15 9 -8 0 -24 11 -37
24 -13 13 -43 30 -67 36 -42 11 -49 10 -113 -22 -70 -33 -75 -41 -70 -100 1
-10 -3 -18 -8 -18 -16 0 -12 -57 5 -64 8 -3 15 -10 15 -16 0 -7 -8 -5 -21 4
-26 18 -66 6 -99 -28 -28 -31 -12 -40 35 -20 21 8 44 13 52 10 9 -4 11 -2 7 6
-5 7 0 9 14 6 12 -3 23 -1 26 6 3 8 5 7 5 -1 1 -7 15 -19 31 -28 50 -26 36
-37 -41 -32 -38 3 -73 8 -76 11 -7 7 -54 -4 -70 -16 -9 -7 -14 -2 -19 17 -6
24 -11 27 -38 22 -22 -3 -39 1 -55 14 -24 20 -81 26 -81 10 0 -5 9 -13 20 -16
11 -3 21 -14 22 -23 0 -9 2 -22 2 -29 3 -28 22 -34 48 -13 l26 20 10 -28 c8
-24 7 -27 -15 -28 -31 -2 -35 -7 -27 -28 10 -27 36 -35 84 -26 29 6 49 5 55
-2 7 -7 6 -12 -2 -15 -8 -3 -13 -21 -13 -43 0 -36 -2 -38 -44 -49 -50 -12 -75
-38 -109 -113 -26 -56 -59 -66 -79 -23 -6 14 -15 25 -20 25 -4 0 -8 9 -8 20 0
32 -26 76 -58 99 -16 11 -32 18 -34 15 -3 -2 -3 6 -1 19 3 13 -2 40 -11 60
-12 31 -13 37 -1 37 8 0 16 -4 20 -9 12 -21 93 -24 142 -5 63 23 72 32 50 49
-13 9 -27 11 -50 4 -18 -5 -41 -9 -51 -9 -18 0 -18 1 3 24 27 29 34 82 9 80
-10 -1 -19 8 -22 22 -7 26 -17 29 -47 14 -14 -8 -18 -18 -14 -35 3 -14 7 -36
10 -49 4 -18 0 -25 -17 -29 -12 -4 -29 0 -38 7 -8 7 -37 16 -65 20 -27 3 -51
11 -53 16 -2 6 -10 10 -17 10 -7 0 -35 17 -62 38 -57 46 -93 66 -93 54 0 -20
31 -69 62 -98 18 -17 59 -42 91 -54 35 -15 57 -30 57 -39 0 -9 9 -31 20 -49
11 -18 20 -44 20 -58 0 -23 -3 -25 -22 -18 -32 10 -107 8 -142 -5 -24 -10 -26
-14 -15 -27 9 -11 27 -15 58 -13 76 3 78 2 40 -37 -31 -34 -32 -36 -10 -31
l24 6 -27 -28 c-20 -21 -27 -37 -24 -57 4 -36 32 -39 36 -4 5 32 70 100 97 99
20 0 20 0 -1 -9 -28 -11 -64 -58 -64 -82 0 -11 -11 -34 -25 -52 -30 -40 -32
-66 -5 -66 33 0 55 -71 30 -96 -5 -5 -11 -40 -14 -78 -2 -38 -8 -71 -13 -75
-5 -3 -13 -15 -18 -26 -8 -19 -9 -19 -12 2 -3 13 -12 28 -22 35 -28 20 -42 53
-29 66 9 9 9 25 0 63 -17 71 -15 89 7 89 22 0 45 25 36 40 -3 5 -14 10 -23 10
-10 0 -28 7 -41 16 -19 13 -22 22 -16 48 14 69 12 81 -13 78 -21 -3 -23 -1
-16 32 5 28 3 37 -10 42 -21 8 -56 -23 -56 -50 -1 -12 -7 -38 -14 -58 -12 -34
-12 -38 5 -43 10 -4 23 -4 28 -1 8 6 23 -55 15 -63 -2 -3 -14 5 -27 17 -17 16
-26 18 -40 11 -13 -8 -28 -4 -60 13 -49 27 -57 55 -14 50 19 -3 29 2 33 15 4
10 19 32 34 48 36 38 45 69 27 87 -12 12 -12 17 2 34 9 11 24 18 33 16 24 -5
39 30 33 75 -6 46 -24 93 -36 93 -5 0 -9 19 -10 43 -1 62 -12 92 -33 91 -14
-2 -16 3 -10 30 10 47 21 64 64 95 25 18 36 32 30 40 -22 37 -134 -61 -144
-126 -10 -66 -10 -106 2 -158 13 -58 22 -105 29 -156 5 -38 -5 -50 -115 -138
-43 -35 -53 -58 -27 -67 10 -4 11 -10 4 -22 -10 -15 -39 -17 -272 -16 -144 1
-288 4 -319 8 l-58 7 -15 52 c-8 28 -15 59 -15 68 0 10 -5 21 -11 24 -6 5 -8
22 -3 49 13 76 7 178 -17 286 -6 25 -12 57 -14 72 -2 15 -9 53 -16 83 -13 60
-7 78 18 53 10 -11 23 -14 37 -9 11 3 35 6 53 6 18 0 30 1 28 4 -7 7 16 31 25
26 8 -5 5 44 -4 52 -3 4 -15 -2 -26 -12 -24 -22 -121 -30 -113 -9 8 22 -16 25
-28 3 -11 -21 -12 -20 -29 17 -18 40 -16 64 3 45 16 -16 83 -13 97 4 9 11 25
13 66 9 42 -5 54 -4 54 7 1 8 8 2 16 -14 13 -23 18 -26 35 -17 11 6 28 9 37 7
15 -4 14 -5 -2 -6 -10 0 -35 -15 -56 -31 -41 -32 -44 -57 -9 -78 22 -14 56 1
65 30 3 10 24 23 47 30 23 6 48 16 56 22 7 6 19 11 25 12 33 3 37 5 33 12 -3
4 35 7 83 8 52 0 94 5 102 12 8 6 41 14 74 18 43 5 65 13 82 30 30 31 30 58 0
48 -27 -8 -43 -11 -118 -23 -30 -5 -77 -15 -103 -24 -36 -12 -63 -13 -110 -7
-34 4 -103 7 -153 7 l-90 -2 10 28 c10 27 37 43 67 39 8 -2 24 6 33 17 10 11
23 18 28 15 16 -10 40 18 34 42 -5 17 -1 24 14 29 11 3 24 4 29 0 5 -3 12 -1
16 4 3 5 13 9 23 9 9 -1 29 2 45 5 15 4 27 3 27 -2 0 -15 42 -25 50 -12 4 8
14 9 32 2 13 -5 31 -6 38 -1 7 4 27 6 44 3 17 -3 38 -6 46 -7 8 -2 23 -6 34
-11 11 -5 25 -4 35 2 9 6 25 7 39 2 17 -7 27 -3 46 18 21 22 27 24 40 14 13
-11 20 -11 38 1 13 8 36 15 51 16 16 1 62 11 103 21 69 18 79 18 120 4 40 -13
60 -33 33 -33 -5 0 -8 -4 -4 -9 3 -5 1 -12 -5 -16 -14 -9 -13 -28 2 -23 6 2
12 12 14 22 4 27 12 31 31 14 10 -8 35 -15 56 -15 40 -1 67 -17 67 -39 0 -12
12 -18 31 -16 4 1 24 3 44 5 21 3 42 12 47 21 5 9 14 16 19 16 6 0 8 -4 5 -9
-6 -10 16 -31 36 -35 7 -2 20 -6 29 -10 17 -7 84 17 94 35 10 14 -7 30 -36 34
-66 8 -96 18 -114 35 -19 20 -19 20 18 20 22 0 37 -5 37 -12 0 -9 3 -9 11 -1
9 9 18 8 35 -3 12 -9 37 -18 55 -21 18 -2 40 -14 50 -26 10 -12 18 -17 19 -11
0 5 -5 15 -12 22 -9 9 -9 12 0 12 7 0 21 -9 32 -20 11 -11 30 -21 43 -21 14
-1 9 -4 -13 -8 -19 -4 -42 -4 -50 0 -8 4 -25 0 -40 -11 -14 -9 -36 -20 -50
-24 -14 -4 -35 -12 -46 -18 -16 -7 -29 -6 -52 6 -56 29 -150 19 -190 -21 -7
-7 -20 -13 -27 -13 -21 0 -28 -19 -15 -35 18 -22 39 -18 78 12 40 30 71 33
122 10 l35 -15 -33 -1 c-36 -1 -129 -28 -149 -44 -20 -15 2 -44 37 -49 22 -3
35 1 51 18 23 25 21 25 149 2 96 -17 113 -14 127 22 9 24 18 30 57 35 56 9 77
29 46 45 -39 21 -145 -8 -156 -42 -4 -14 -12 -18 -27 -14 -12 3 -32 6 -44 6
-27 0 -32 20 -5 20 9 0 26 7 36 15 11 8 30 15 43 15 13 0 37 10 52 21 16 12
34 18 41 14 20 -12 73 -19 140 -16 108 3 123 3 173 -1 26 -3 50 -1 53 4 11 18
34 8 31 -14 -2 -20 3 -23 33 -24 19 -1 44 -3 55 -4 11 -2 38 5 59 14 22 10 50
16 63 13 21 -4 24 -1 21 22 -3 25 -6 26 -65 26 -56 0 -66 3 -88 28 -24 25 -28
26 -46 13 -18 -12 -27 -12 -65 1 -24 8 -46 19 -49 24 -3 4 10 2 29 -6 30 -13
36 -13 46 0 7 8 17 15 22 15 20 0 79 54 76 70 -2 9 5 27 14 41 10 16 15 42 13
72 -3 58 -29 90 -101 123 -28 12 -54 30 -57 38 -4 9 -14 16 -23 16 -10 0 -32
12 -51 26 -59 45 -173 28 -173 -26 0 -13 -9 -22 -25 -26 -14 -3 -25 -11 -25
-18 0 -6 -13 -19 -30 -28 -37 -21 -48 -60 -26 -93 10 -15 12 -26 6 -30 -16
-10 -12 -68 6 -93 21 -30 62 -46 80 -31 10 8 19 5 37 -15 13 -14 30 -26 37
-26 7 0 11 -2 8 -5 -8 -9 -134 22 -171 41 -48 26 -55 40 -50 116 2 37 0 68 -5
68 -5 0 -7 19 -5 43 6 74 -44 87 -140 37 -77 -40 -121 -40 -141 -1 -9 16 -22
31 -31 34 -8 4 -15 15 -15 26 0 11 -5 23 -10 26 -6 4 -10 12 -9 18 4 33 -4 51
-38 82 -55 50 -76 47 -107 -19 l-26 -54 -160 1 c-149 2 -160 3 -160 20 0 11
-15 34 -34 53 -29 29 -44 35 -81 34 -3 0 -19 7 -36 16 -39 20 -102 21 -152 3
-31 -11 -38 -18 -34 -36 3 -17 -3 -24 -27 -34 -17 -7 -45 -23 -63 -36 -27 -20
-32 -29 -31 -66 0 -23 5 -45 11 -49 20 -13 44 11 51 51 6 38 27 58 48 45 6 -4
-1 -17 -16 -31 -29 -27 -32 -41 -12 -68 12 -17 17 -18 41 -7 20 9 26 18 22 32
-3 13 3 26 19 39 13 10 24 25 24 33 0 7 10 18 22 23 13 6 24 18 26 28 3 13 -3
17 -27 17 -17 0 -31 5 -31 10 0 6 18 10 41 10 45 0 129 -34 129 -53 0 -8 3 -8
9 2 7 11 11 9 21 -9 14 -27 9 -33 -29 -33 -35 0 -59 -31 -41 -53 9 -10 27 -12
69 -8 45 5 61 3 73 -10 9 -9 23 -16 31 -16 25 0 40 -26 27 -49 -7 -14 -7 -27
-1 -39 6 -12 7 -30 1 -48 -4 -16 -9 -23 -9 -16 -1 7 -6 10 -11 7 -5 -3 -10 -2
-10 4 0 5 6 12 13 15 6 3 -1 4 -16 1 -22 -4 -27 -3 -21 7 6 10 3 9 -9 -1 -15
-12 -19 -10 -35 9 -16 20 -21 21 -41 11 -12 -7 -43 -15 -68 -17 -35 -3 -48 -1
-58 13 -16 22 -27 13 -27 -22 0 -14 -3 -25 -6 -25 -10 0 -31 36 -32 54 0 29
-9 14 -14 -23 -3 -24 0 -31 10 -27 7 3 16 1 19 -4 3 -5 20 -7 38 -5 25 4 35 1
45 -15 10 -17 10 -20 -3 -20 -8 0 -15 -5 -15 -11 0 -6 7 -8 16 -5 8 3 12 2 9
-4 -3 -6 -18 -10 -33 -10 -19 0 -23 3 -13 9 11 7 9 11 -7 20 -19 10 -21 9 -15
-6 6 -16 5 -16 -10 -4 -9 7 -17 10 -17 6 0 -5 -9 0 -19 9 -12 11 -20 13 -23 6
-2 -6 -19 -13 -38 -15 -19 -3 -30 -1 -25 3 14 9 13 33 0 30 -5 -2 -9 -5 -8 -8
1 -3 -20 -12 -45 -21 -63 -21 -106 -10 -121 31 -11 32 -21 36 -50 20 -37 -19
10 -104 63 -115 77 -15 82 -17 61 -25 -11 -5 -37 -9 -58 -9 -46 -1 -96 -21
-121 -50 -11 -11 -25 -21 -32 -21 -7 0 -15 -9 -19 -19 -3 -11 -22 -25 -43 -32
-20 -6 -42 -16 -48 -20 -8 -7 -9 2 -2 33 5 24 9 53 9 65 -1 13 8 27 20 34 11
6 27 26 35 45 8 19 19 34 24 34 7 0 6 8 -1 23 -7 12 -11 40 -10 63 1 29 -4 45
-18 58 -11 10 -24 15 -29 12 -5 -3 -7 5 -5 17 2 12 -5 33 -16 47 -39 49 -149
21 -135 -35 4 -18 0 -24 -19 -29 -31 -7 -42 -46 -33 -114 3 -27 2 -39 -2 -28
-7 16 -13 10 -41 -39 l-32 -57 -27 23 c-71 62 -75 78 -40 178 16 44 29 66 45
72 12 4 28 18 35 29 7 11 29 25 48 30 19 5 47 21 62 35 15 13 46 37 70 52 24
16 57 40 73 56 17 15 35 25 42 23 6 -3 19 4 29 16 10 11 51 44 90 74 66 49 72
57 80 101 8 42 14 50 69 87 58 40 135 128 135 155 0 9 -7 11 -22 7 -13 -3 -40
-9 -60 -12 -33 -6 -38 -4 -38 13 0 32 -9 32 -57 5 -34 -19 -51 -37 -68 -74
-13 -27 -31 -55 -40 -62 -14 -10 -15 -16 -6 -34 6 -12 16 -22 21 -22 6 0 10
-13 10 -30 0 -25 -4 -30 -23 -30 -16 0 -28 -9 -37 -27 l-14 -28 -4 27 c-2 14
-10 32 -18 39 -13 11 -11 14 15 25 30 13 45 54 21 54 -20 0 -68 -29 -74 -46
-4 -10 -12 -14 -22 -10 -9 4 -23 1 -32 -6 -8 -7 -29 -17 -46 -23 -18 -6 -36
-22 -44 -37 -13 -28 -17 -29 -99 -12 -34 7 -73 -6 -73 -23 0 -10 -6 -13 -16
-9 -20 8 -54 -10 -54 -29 0 -7 12 -22 26 -33 23 -16 24 -20 10 -25 -11 -4 -20
3 -31 23 -18 35 -33 37 -68 10 -14 -11 -30 -20 -36 -20 -9 0 -13 -9 -13 -30 0
-3 3 -22 6 -42 6 -30 4 -38 -8 -38 -21 0 -31 -23 -46 -103 -9 -52 -10 -70 -1
-81 10 -12 8 -17 -10 -27 -18 -9 -24 -9 -33 3 -6 8 -27 24 -46 34 l-35 19 22
45 23 45 -6 -42 c-5 -35 -3 -44 11 -49 31 -12 55 26 62 100 5 59 9 69 30 77
27 10 30 31 8 49 -12 10 -19 10 -27 2 -16 -16 -28 -15 -28 3 0 19 -34 19 -50
0 -9 -11 -9 -22 -1 -46 13 -39 13 -39 1 -39 -5 0 -10 8 -10 18 0 37 -30 82
-55 82 -33 0 -37 -12 -19 -55 15 -37 14 -65 -4 -145 l-8 -35 -31 33 c-52 54
-113 34 -135 -44 -5 -21 -17 -48 -25 -61 l-15 -23 -24 24 c-15 14 -23 33 -22
47 4 33 -27 36 -48 5 -16 -25 -15 -28 7 -61 13 -19 30 -35 37 -35 23 0 12 -17
-23 -36 -19 -10 -37 -25 -39 -34 -4 -14 -8 -32 -36 -170 -7 -30 -10 -71 -8
-90 3 -30 6 -35 28 -33 43 3 52 -4 39 -29 -9 -17 -8 -37 6 -97 10 -42 21 -85
26 -96 13 -31 26 -92 40 -184 12 -83 12 -85 -11 -103 -12 -10 -34 -21 -49 -24
-14 -2 -38 -11 -52 -18 -41 -21 -63 -2 -67 59 -1 28 -4 75 -7 105 l-4 55 22
-70 c15 -45 28 -70 37 -70 8 0 13 7 11 15 -2 8 -10 37 -17 65 -8 27 -14 74
-14 105 0 77 -17 170 -34 189 -8 9 -16 27 -18 40 -4 29 -28 41 -28 14 0 -10 9
-42 20 -71 13 -34 20 -74 19 -115 l-2 -62 -8 45 c-5 25 -11 60 -14 79 -10 67
-30 53 -25 -16 4 -46 4 -82 2 -235 -1 -40 -1 -84 1 -98 2 -21 -3 -25 -29 -28
-17 -2 -51 4 -75 12 -38 13 -46 13 -58 1 -20 -20 1 -42 53 -55 92 -24 88 -14
85 -190 -3 -146 -1 -159 19 -192 29 -46 29 -88 2 -88 -11 0 -38 -11 -60 -25
l-39 -25 -16 22 c-20 30 -19 97 2 120 9 10 11 18 5 18 -6 0 -12 -6 -15 -12 -2
-7 -8 -10 -12 -6 -4 4 -3 14 3 21 7 8 9 17 5 21 -4 4 1 4 12 0 18 -6 17 -4 -4
19 -16 18 -22 34 -19 51 3 14 2 23 -2 21 -7 -5 -34 81 -35 115 -1 8 -5 23 -9
33 -5 9 -6 26 -3 37 3 11 -1 27 -10 35 -8 8 -11 20 -7 26 4 8 3 9 -4 5 -17
-10 -15 5 4 25 23 25 11 49 -24 49 -50 0 -54 15 -48 167 4 76 13 166 21 201
19 80 8 104 -30 66 -15 -15 -16 -15 -11 7 3 13 7 35 8 49 2 14 9 31 16 38 6 7
12 21 12 31 0 10 9 26 20 36 11 10 20 13 20 7 0 -6 3 -18 7 -28 5 -13 3 -16
-10 -11 -23 9 -29 -6 -11 -31 8 -13 26 -22 40 -22 15 0 24 -6 24 -16 0 -13 3
-14 14 -5 11 9 20 10 35 1 19 -9 71 -5 71 7 0 3 -9 18 -21 35 -15 20 -28 28
-44 26 -23 -3 -65 33 -65 55 0 13 -64 116 -72 117 -5 0 -8 -12 -8 -27 0 -16
-4 -23 -9 -18 -11 13 -51 177 -57 235 -3 25 -7 51 -10 59 -2 7 0 19 6 26 14
17 -13 85 -34 85 -20 0 -52 -33 -37 -38 21 -7 12 -34 -10 -30 -15 2 -27 18
-40 52 -26 71 -36 78 -82 64 -27 -8 -37 -17 -37 -31 0 -14 -10 -6 -32 29 -29
42 -33 58 -34 114 0 56 -2 65 -17 62 -14 -2 -17 4 -15 30 3 31 1 33 -29 33
-31 0 -32 1 -18 22 34 51 3 94 -39 54 -12 -12 -25 -19 -28 -15 -10 9 7 57 25
68 14 9 26 1 70 -47 29 -31 61 -57 70 -57 10 0 17 -8 17 -19 0 -10 7 -24 15
-31 8 -7 15 -18 15 -25 0 -19 43 -37 81 -33 28 2 34 7 34 27 0 17 -11 29 -45
47 -25 13 -55 24 -67 24 -15 0 -21 5 -17 14 6 16 -72 111 -98 121 -10 3 -18
11 -18 17 0 6 -7 16 -15 22 -8 6 -16 27 -19 47 -5 40 -51 139 -66 139 -5 0
-12 -5 -15 -11z m-145 -37 c0 -9 77 -46 118 -57 12 -4 22 -11 22 -16 0 -15 27
-10 34 7 3 8 1 24 -4 34 -18 34 -10 46 10 15 23 -35 28 -124 8 -126 -45 -4
-54 -3 -60 6 -4 6 -13 10 -20 10 -7 1 -12 6 -10 13 1 7 -2 12 -8 12 -5 0 -10
6 -10 14 0 8 -15 24 -33 35 -40 24 -75 61 -59 61 7 0 12 -4 12 -8z m2382 -88
c-35 -24 -26 -34 26 -29 l47 5 -35 -16 c-30 -14 -33 -18 -18 -27 14 -9 12 -14
-20 -39 -20 -16 -42 -26 -50 -23 -7 3 -18 5 -23 5 -26 0 8 91 45 122 12 10 28
17 36 18 9 0 7 -5 -8 -16z m-251 -256 c0 -7 2 -23 3 -35 2 -13 -1 -23 -6 -23
-4 0 -8 9 -8 19 0 11 -4 23 -10 26 -15 9 -12 25 5 25 8 0 15 -6 16 -12z m-154
-79 c19 -7 20 -11 11 -43 -11 -34 -48 -58 -48 -30 0 8 -18 32 -40 54 l-40 40
48 -7 c26 -3 57 -10 69 -14z m80 -1 c-3 -8 -6 -5 -6 6 -1 11 2 17 5 13 3 -3 4
-12 1 -19z m-178 -96 c-2 -5 -14 7 -27 27 l-24 36 27 -26 c15 -15 26 -31 24
-37z m-1969 22 c10 -11 1 -74 -11 -74 -12 0 -11 -47 1 -55 6 -3 10 -14 10 -23
0 -9 13 -26 28 -37 16 -11 22 -13 15 -4 -10 12 -9 18 7 29 24 18 25 24 3 46
-17 17 -16 17 12 10 17 -4 34 -12 39 -17 13 -11 -29 -99 -46 -99 -7 0 -24 -3
-37 -7 -21 -5 -23 -3 -19 15 7 25 -15 47 -37 38 -13 -5 -19 5 -16 26 0 3 -14
2 -32 -3 -17 -5 -34 -9 -36 -9 -2 0 0 -11 3 -25 8 -32 -13 -25 -34 12 -14 25
-14 28 8 50 19 19 27 22 38 12 12 -9 13 -9 9 3 -4 9 1 22 10 31 12 13 13 21 4
41 -18 39 -6 57 36 53 20 -3 40 -8 45 -13z m3420 -143 c0 -15 8 -37 17 -51 16
-22 93 -177 93 -186 0 -2 -29 -4 -64 -4 -56 0 -66 3 -71 20 -10 33 -39 40
-165 44 -67 2 -123 6 -126 9 -3 3 -9 30 -13 60 -4 31 -13 63 -21 72 -12 14 -1
16 120 14 l133 -1 29 30 c37 36 68 33 68 -7z m675 -24 c0 -1 5 -12 12 -23 10
-19 9 -22 -10 -22 -12 -1 -31 -3 -42 -4 -21 -3 -31 21 -21 49 5 11 14 13 34 8
15 -4 27 -7 27 -8z m-2581 -117 c32 -16 63 -30 70 -30 14 0 67 -65 84 -104 16
-37 41 -66 57 -66 21 0 26 30 10 61 -9 16 -11 29 -5 29 5 0 10 -4 10 -9 0 -15
43 -64 127 -143 13 -13 21 -32 21 -49 l-1 -29 -23 27 c-12 15 -22 31 -21 36 1
5 -7 14 -17 20 -11 7 -28 20 -38 30 -21 20 -41 22 -69 7 -15 -8 -23 -7 -34 4
-16 15 -41 13 -92 -10 -42 -19 -98 -16 -145 8 -36 17 -51 38 -28 38 6 0 15 11
20 25 5 14 16 25 25 25 22 0 19 46 -5 70 -24 24 -48 25 -78 4 -29 -20 -28 -14
9 63 30 63 31 64 48 44 10 -11 44 -34 75 -51z m616 40 c0 -11 -2 -20 -4 -20
-2 0 -6 9 -9 20 -3 11 -1 20 4 20 5 0 9 -9 9 -20z m1806 -57 c-11 -11 -19 6
-11 24 8 17 8 17 12 0 3 -10 2 -21 -1 -24z m336 25 c17 -14 32 -48 20 -48 -9
1 -62 47 -62 55 0 10 26 5 42 -7z m-59 -5 c-7 -2 -19 -2 -25 0 -7 3 -2 5 12 5
14 0 19 -2 13 -5z m-2065 -19 c13 -9 21 -22 18 -30 -3 -8 -1 -14 4 -14 5 0 11
8 13 18 4 13 5 12 6 -5 1 -14 -8 -27 -21 -35 -22 -12 -27 -13 -57 -16 -11 -2
-11 -5 -1 -17 10 -12 10 -19 2 -27 -9 -9 -12 -9 -12 1 0 7 -4 9 -10 6 -16 -10
-12 22 5 39 19 19 19 26 -1 26 -9 0 -12 5 -8 12 4 7 3 8 -4 4 -7 -4 -10 -18
-6 -34 5 -22 4 -25 -6 -15 -7 6 -14 28 -16 48 -2 32 0 36 16 32 11 -3 24 1 31
9 15 18 19 18 47 -2z m1480 -17 c18 7 62 -24 62 -43 0 -13 -7 -15 -37 -9 -21
4 -42 8 -48 9 -16 3 -54 39 -49 47 2 4 17 4 32 0 15 -4 33 -6 40 -4z m-1917
-40 c-17 -17 -24 -1 -9 22 11 18 14 19 16 5 2 -9 -1 -21 -7 -27z m2426 28 c13
-9 20 -21 17 -30 -4 -8 -1 -15 6 -15 6 0 9 4 6 8 -2 4 3 13 13 19 14 9 23 8
40 -3 28 -20 27 -36 -3 -28 -13 3 -29 0 -37 -8 -21 -20 -53 -23 -46 -4 3 8 -2
20 -11 28 -15 11 -16 11 -4 -3 11 -15 10 -17 -10 -17 -40 0 -61 -8 -79 -30
-14 -18 -22 -20 -42 -13 -14 6 -28 15 -32 20 -8 14 -3 14 32 0 15 -5 25 -7 21
-4 -4 4 6 18 22 32 16 13 31 32 34 41 7 22 44 26 73 7z m-1369 -4 c11 -6 9 -9
-7 -14 -12 -3 -22 1 -25 9 -6 16 12 18 32 5z m-2501 -21 c11 -17 10 -19 -5
-14 -14 5 -15 4 -2 -5 8 -6 22 -11 30 -11 11 0 15 -11 15 -39 l0 -39 -47 4
-48 4 20 -38 c22 -40 25 -56 10 -47 -5 3 -10 16 -11 28 0 18 -2 19 -7 5 -6
-15 -9 -15 -26 -2 -19 13 -19 14 -2 14 14 0 16 3 7 13 -6 8 -8 17 -4 21 4 3 8
13 9 22 3 22 38 104 44 104 3 0 11 -9 17 -20z m4040 -12 c-3 -8 -6 -5 -6 6 -1
11 2 17 5 13 3 -3 4 -12 1 -19z m-2911 -25 c-7 -7 -26 7 -26 19 0 6 6 6 15 -2
9 -7 13 -15 11 -17z m1594 7 c-24 -15 -36 -11 -14 4 10 8 21 12 24 10 2 -3 -2
-9 -10 -14z m179 14 c24 -5 31 -12 31 -29 0 -19 -7 -23 -52 -30 -29 -4 -72 -9
-96 -11 l-42 -3 37 38 c39 39 64 46 122 35z m-1023 -28 c7 -8 19 -16 26 -19
10 -3 10 -7 1 -17 -6 -7 -9 -19 -6 -26 3 -8 0 -14 -7 -14 -6 0 -8 5 -4 12 4 7
3 8 -4 4 -6 -4 -9 -13 -6 -20 3 -8 1 -17 -5 -21 -6 -3 -11 -2 -11 4 0 6 -18
15 -40 21 -40 11 -51 24 -27 33 6 2 17 -3 24 -12 9 -12 14 -13 24 -4 6 6 17 9
24 7 16 -6 29 12 19 27 -4 8 -9 7 -16 -2 -8 -11 -9 -10 -4 4 3 9 1 17 -4 17
-6 0 -10 5 -10 10 0 14 9 12 26 -4z m1201 -38 c-3 -7 -5 -2 -5 12 0 14 2 19 5
13 2 -7 2 -19 0 -25z m288 22 c4 -6 -5 -10 -20 -10 -15 0 -24 4 -20 10 3 6 12
10 20 10 8 0 17 -4 20 -10z m121 -5 c10 -25 -4 -35 -31 -23 -23 10 -23 12 -7
24 22 17 31 17 38 -1z m-239 -60 c-1 -36 -6 -55 -14 -55 -7 0 -13 4 -13 8 0 5
-12 15 -27 23 -34 17 -43 28 -43 54 0 17 2 17 13 -5 15 -31 45 -38 54 -13 6
18 23 43 29 43 1 0 2 -25 1 -55z m-1516 -3 c9 -12 29 -27 45 -32 35 -12 49
-33 58 -85 9 -54 -9 -65 -98 -58 l-67 6 6 38 c4 25 2 48 -8 67 -13 26 -12 31
10 58 12 16 23 36 24 44 0 13 1 13 7 0 4 -9 14 -26 23 -38z m2279 28 c0 -13
-5 -18 -15 -14 -12 5 -13 10 -4 20 15 19 19 18 19 -6z m-3831 -42 c-8 -14 -14
-18 -17 -10 -2 6 -9 9 -15 5 -7 -3 -4 3 6 14 9 11 17 26 17 34 1 10 3 9 11 -3
7 -12 6 -25 -2 -40z m2206 36 c23 -3 55 -17 55 -24 0 -3 -18 -7 -41 -8 -25 -1
-38 2 -34 8 4 6 1 18 -7 27 -11 14 -11 16 2 8 8 -5 20 -10 25 -11z m-2290 -13
c-3 -10 1 -24 10 -31 8 -7 15 -9 15 -4 0 5 5 2 10 -8 6 -9 18 -14 29 -11 11 3
21 -2 25 -12 8 -21 0 -35 -20 -35 -8 0 -14 -7 -14 -15 0 -17 -16 -20 -24 -6
-4 5 0 11 6 14 17 6 -25 47 -47 47 -18 0 -20 16 -2 24 6 4 3 5 -9 2 -17 -3
-20 1 -16 20 3 16 9 21 20 17 10 -4 13 -2 8 5 -4 7 -2 12 4 12 7 0 9 -8 5 -19z
m2538 -45 c-7 -11 -33 22 -33 42 0 9 7 6 19 -9 11 -13 17 -28 14 -33z m-3161
22 c-7 -7 -12 -8 -12 -2 0 14 12 26 19 19 2 -3 -1 -11 -7 -17z m1595 -2 c-3
-8 -11 -50 -18 -95 -7 -44 -15 -78 -19 -76 -4 2 -1 39 6 82 7 43 13 84 13 91
1 6 6 12 12 12 6 0 9 -6 6 -14z m-1682 -26 c3 -5 2 -10 -4 -10 -5 0 -13 5 -16
10 -3 6 -2 10 4 10 5 0 13 -4 16 -10z m2048 -17 c4 -3 0 -14 -8 -23 -14 -15
-14 -21 1 -56 9 -21 20 -52 25 -69 4 -16 17 -63 29 -103 26 -94 48 -298 52
-487 l2 -150 -27 -27 c-16 -16 -27 -38 -27 -55 l-1 -28 -15 28 c-15 29 -52
191 -55 242 -1 17 2 95 6 175 4 80 7 174 7 209 -2 74 -24 131 -51 131 -14 0
-20 9 -23 35 l-4 35 21 -26 c18 -23 22 -24 33 -11 8 9 12 35 10 64 -2 37 -7
49 -21 51 -10 2 -25 -5 -32 -15 -13 -17 -14 -17 -8 4 4 17 0 25 -18 31 -20 8
-18 10 24 23 26 7 47 17 47 21 0 10 24 11 33 1z m-918 -22 c3 -5 1 -12 -5 -16
-5 -3 -10 1 -10 9 0 18 6 21 15 7z m757 -27 c25 5 27 4 16 -14 -9 -14 -9 -24
-1 -42 6 -13 14 -88 17 -168 10 -260 14 -304 29 -345 9 -22 18 -78 21 -125 5
-88 27 -197 50 -253 26 -61 35 -97 25 -97 -6 0 -9 -10 -7 -21 3 -25 -39 -48
-47 -26 -33 96 -49 188 -55 323 -4 83 -10 156 -14 162 -9 16 -43 15 -52 0 -8
-12 -17 -54 -33 -148 l-7 -45 -7 40 c-4 22 -12 63 -17 90 -5 28 -9 88 -9 135
-1 47 -6 117 -12 155 -8 56 -7 93 5 183 19 136 20 194 4 211 -8 7 2 6 26 -4
23 -10 52 -14 68 -11z m-1217 -4 c3 -6 -1 -7 -9 -4 -18 7 -21 14 -7 14 6 0 13
-4 16 -10z m284 -21 l11 -31 -51 5 c-29 3 -57 11 -63 17 -8 9 -4 10 16 5 20
-5 31 -2 45 14 23 28 29 27 42 -10z m1341 -59 c0 -5 -4 -10 -10 -10 -5 0 -10
5 -10 10 0 6 5 10 10 10 6 0 10 -4 10 -10z m-640 -20 c0 -5 -4 -10 -10 -10 -5
0 -10 5 -10 10 0 6 5 10 10 10 6 0 10 -4 10 -10z m57 -37 c-3 -10 -5 -4 -5 12
0 17 2 24 5 18 2 -7 2 -21 0 -30z m462 -78 c1 -17 -1 -17 -9 -5 -5 8 -9 26 -9
40 0 23 1 23 9 5 5 -11 9 -29 9 -40z m101 -110 c45 -201 49 -221 61 -283 8
-41 9 -96 5 -155 -4 -51 -8 -98 -9 -104 0 -7 -3 -13 -7 -13 -8 0 -27 166 -39
345 -12 191 -18 215 -52 215 -27 0 -33 -22 -20 -77 5 -27 12 -77 15 -113 7
-95 9 -411 2 -417 -3 -4 -6 9 -7 28 0 19 -3 43 -5 54 -3 11 -9 121 -14 245 -8
203 -20 315 -35 341 -4 5 -2 9 3 9 5 0 12 -9 15 -21 10 -37 42 -20 45 25 5 56
16 35 42 -79z m-563 43 c-3 -7 -5 -2 -5 12 0 14 2 19 5 13 2 -7 2 -19 0 -25z
m273 -54 c0 -14 -4 -22 -10 -19 -5 3 -10 17 -10 31 0 14 4 22 10 19 6 -3 10
-17 10 -31z m2281 -100 c4 -2 10 -29 14 -60 8 -65 4 -70 -57 -72 -34 -2 -39 0
-28 12 9 12 8 22 -3 48 -24 54 -25 62 -3 74 18 10 57 9 77 -2z m-3204 -26 c-3
-7 -5 -2 -5 12 0 14 2 19 5 13 2 -7 2 -19 0 -25z m3263 -118 c0 -5 -5 -10 -11
-10 -5 0 -7 5 -4 10 3 6 8 10 11 10 2 0 4 -4 4 -10z m-190 -71 c0 -5 5 -9 11
-9 5 0 7 5 4 10 -4 6 6 10 22 11 15 0 44 2 63 3 58 5 78 -3 72 -26 -3 -12 1
-24 10 -29 10 -6 14 -18 10 -34 l-5 -26 -22 21 c-12 11 -39 23 -59 27 -33 5
-36 3 -37 -18 l-2 -24 -4 23 c-5 28 -28 39 -47 23 -11 -9 -15 -8 -20 5 -5 12
-10 14 -17 7 -5 -5 -21 -8 -34 -5 -26 4 -24 27 4 48 16 12 51 7 51 -7z m-132
-14 c0 -14 -4 -25 -8 -25 -11 0 -18 22 -12 38 7 21 20 13 20 -13z m-2371 -37
c-3 -8 -6 -5 -6 6 -1 11 2 17 5 13 3 -3 4 -12 1 -19z m-143 -28 c51 -21 66
-47 66 -110 0 -59 -20 -141 -36 -147 -18 -7 -18 -32 1 -76 8 -20 15 -50 15
-66 0 -16 5 -33 10 -36 17 -10 0 -26 -17 -16 -9 4 -24 6 -34 4 -16 -5 -18 1
-17 40 0 29 -7 57 -20 79 -17 28 -20 53 -23 163 -3 140 -1 185 5 185 2 0 25
-9 50 -20z m263 -17 c-3 -10 -5 -4 -5 12 0 17 2 24 5 18 2 -7 2 -21 0 -30z
m-110 -44 c6 -61 8 -132 4 -190 -1 -21 -6 -26 -27 -26 -25 0 -26 0 -20 61 11
102 29 226 33 222 2 -2 7 -32 10 -67z m123 0 c0 -6 -4 -7 -10 -4 -5 3 -10 11
-10 16 0 6 5 7 10 4 6 -3 10 -11 10 -16z m77 -61 c-3 -7 -5 -2 -5 12 0 14 2
19 5 13 2 -7 2 -19 0 -25z m1342 -54 c-13 -14 -25 -20 -27 -14 -2 6 4 18 14
25 31 24 39 17 13 -11z m-1374 -81 l-10 -46 -6 50 c-4 27 -10 60 -14 73 -7 23
-7 23 17 -4 22 -26 23 -32 13 -73z m85 2 c13 -18 20 -64 10 -70 -10 -6 -7
-150 5 -197 11 -44 -10 -33 -29 15 -12 31 -16 74 -15 167 1 117 10 177 17 120
2 -14 7 -29 12 -35z m-161 -42 c0 -17 -3 -34 -7 -37 -5 -3 -8 25 -9 62 0 48 2
59 7 37 4 -16 8 -44 9 -62z m1966 38 c7 -22 0 -90 -14 -139 -6 -18 -8 -39 -5
-46 5 -12 -39 -56 -56 -56 -4 0 -13 18 -20 39 -12 37 -11 41 19 86 17 25 31
49 31 53 0 4 -16 17 -35 30 -42 27 -43 34 -9 61 24 19 28 19 54 6 16 -8 31
-24 35 -34z m-1425 -135 c0 -7 -7 -19 -16 -27 -11 -9 -14 -22 -10 -43 l6 -31
-15 25 c-8 14 -14 40 -15 58 0 28 3 32 25 32 15 0 25 -6 25 -14z m144 -23 c29
-98 42 -164 38 -196 -4 -35 -1 -42 42 -82 26 -24 58 -46 72 -49 14 -4 35 -16
47 -28 12 -11 50 -34 85 -50 64 -30 83 -51 64 -70 -7 -7 -39 3 -103 31 -51 23
-100 39 -110 36 -12 -4 -25 4 -40 24 -13 17 -31 33 -40 36 -10 3 -23 21 -29
40 -6 19 -18 35 -26 35 -19 0 -57 -19 -66 -33 -8 -13 9 -47 23 -47 10 0 75
-64 110 -107 10 -12 35 -23 60 -27 49 -8 96 -37 85 -55 -11 -18 -26 -13 -38
14 -14 30 -44 32 -73 5 -20 -19 -24 -19 -58 -5 -20 8 -50 15 -66 15 -16 0 -39
8 -51 18 -29 24 -60 108 -72 201 -3 26 4 28 42 19 57 -15 74 -6 66 35 -12 55
-14 61 -25 104 -13 49 -6 87 23 125 25 32 33 34 40 11z m1541 -54 c10 -14 1
-21 -19 -13 -9 3 -13 10 -10 15 7 12 21 11 29 -2z m-1930 -26 c20 -23 24 -39
25 -88 0 -50 12 -117 47 -273 5 -20 3 -21 -18 -14 -39 15 -66 121 -84 335 -3
37 -3 67 0 67 3 0 17 -12 30 -27z m-603 -33 c2 -17 -2 -25 -12 -25 -8 0 -39
-10 -69 -22 -50 -22 -91 -23 -91 -3 0 11 90 77 121 89 29 11 47 -3 51 -39z
m738 6 c0 -19 9 -45 22 -61 17 -22 19 -31 10 -46 -7 -10 -12 -36 -12 -56 0
-47 66 -240 93 -270 10 -12 16 -26 12 -32 -8 -14 -45 -14 -45 -1 0 6 -7 10
-15 10 -15 0 -19 11 -59 178 -38 158 -47 336 -16 317 6 -3 10 -21 10 -39z
m-607 12 c25 -12 36 -41 19 -52 -16 -10 -72 23 -72 44 0 23 15 25 53 8z m737
-73 c0 -17 -4 -16 -25 10 -24 30 -31 56 -18 69 9 9 42 -52 43 -79z m1616 37
c-12 -12 -19 -13 -27 -5 -16 16 -3 32 22 26 19 -5 19 -7 5 -21z m-2049 -49
c13 -9 35 -18 46 -19 12 -1 25 -3 30 -3 4 -1 7 -11 7 -23 0 -13 11 -68 25
-123 28 -114 29 -115 15 -115 -5 0 -10 7 -10 16 0 8 -13 20 -29 25 -15 5 -33
20 -39 32 -45 93 -63 142 -59 158 3 10 1 19 -4 21 -4 2 -10 21 -12 43 -3 22
-2 32 0 22 2 -10 16 -25 30 -34z m-452 -46 c12 -19 14 -51 13 -153 -2 -95 1
-137 12 -161 16 -37 5 -58 -15 -29 -10 12 -21 17 -36 13 -28 -7 -62 10 -55 28
8 23 -37 27 -53 5 -7 -11 -20 -20 -27 -20 -23 0 -16 15 16 33 17 10 30 23 30
28 0 5 10 23 21 39 23 30 23 38 3 173 -7 46 8 67 47 67 19 0 34 -8 44 -23z
m115 -7 c6 -12 8 -52 5 -101 -7 -107 17 -185 53 -172 15 6 15 5 3 -10 -19 -24
-86 -23 -96 1 -20 49 -22 80 -13 186 8 84 15 116 24 116 7 0 18 -9 24 -20z
m1880 -10 c0 -3 -11 -6 -25 -6 -23 -2 -33 14 -19 29 6 6 44 -14 44 -23z m826
14 c-4 -10 1 -22 11 -30 15 -11 15 -13 3 -14 -26 0 -40 21 -29 42 12 22 23 24
15 2z m-822 -93 c-21 -52 -22 -84 -3 -129 11 -26 26 -50 32 -54 32 -20 -26 -5
-72 18 -46 24 -50 29 -44 53 3 14 11 37 18 51 7 14 11 41 9 61 l-3 37 35 -11
c26 -8 33 -15 28 -26z m830 -96 c-4 -8 -10 -12 -15 -9 -14 8 -10 24 6 24 9 0
12 -6 9 -15z m-744 -105 c0 -5 -4 -10 -9 -10 -6 0 -13 5 -16 10 -3 6 1 10 9
10 9 0 16 -4 16 -10z M377 3281 c-3 -14 -1 -18 9 -14 16 6 18 19 5 27 -5 3
-11 -3 -14 -13z M380 3190 c0 -5 5 -10 11 -10 5 0 7 5 4 10 -3 6 -8 10 -11 10
-2 0 -4 -4 -4 -10z M4494 3124 c-4 -11 -9 -23 -12 -27 -3 -7 33 8 46 18 1 1
-4 8 -13 15 -12 10 -16 9 -21 -6z M2550 2999 c0 -5 5 -7 10 -4 6 3 10 8 10 11
0 2 -4 4 -10 4 -5 0 -10 -5 -10 -11z M2547 2969 c7 -7 15 -10 18 -7 3 3 -2 9
-12 12 -14 6 -15 5 -6 -5z M4557 2969 c7 -7 15 -10 18 -7 3 3 -2 9 -12 12 -14
6 -15 5 -6 -5z M710 2885 c-7 -9 -10 -18 -7 -21 3 -3 10 4 17 15 13 25 8 27
-10 6z M665 2860 c4 -6 11 -8 16 -5 14 9 11 15 -7 15 -8 0 -12 -5 -9 -10z
M870 2761 c0 -6 4 -13 10 -16 6 -3 7 1 4 9 -7 18 -14 21 -14 7z M4305 2250
c-4 -6 -3 -14 0 -20 9 -15 35 -12 35 4 0 17 -27 29 -35 16z M1289 3770 c-46
-28 -77 -78 -64 -100 4 -6 -1 -17 -11 -25 -17 -12 -18 -17 -7 -46 11 -27 10
-34 -3 -44 -14 -10 -14 -12 0 -24 9 -8 16 -20 16 -27 0 -8 9 -19 20 -26 24
-15 27 -53 5 -62 -19 -7 -101 2 -138 16 -36 14 -62 -4 -45 -32 16 -25 65 -53
73 -40 3 5 18 10 33 9 16 0 21 -3 12 -6 -24 -9 -60 -45 -54 -54 3 -5 22 -9 42
-8 20 0 46 -1 57 -3 12 -2 21 4 23 15 2 11 14 34 27 53 18 26 26 31 32 21 9
-16 44 -26 123 -33 30 -3 60 -10 67 -16 21 -17 3 -31 -33 -25 -41 7 -53 -8
-27 -34 13 -13 39 -21 85 -26 61 -5 66 -4 73 16 3 11 12 21 18 21 31 -1 97
-42 123 -76 34 -46 43 -54 65 -54 27 0 32 31 8 56 l-21 22 24 4 c16 2 29 15
41 43 10 22 36 53 58 68 34 24 45 28 79 22 22 -4 42 -11 46 -16 8 -14 50 -11
64 6 6 8 9 19 5 25 -8 13 8 13 21 0 6 -6 35 -7 75 -3 55 5 69 11 97 40 32 31
34 36 28 85 -3 29 -5 78 -5 108 0 51 -3 58 -38 92 -32 31 -47 38 -94 43 -65 7
-105 -6 -157 -51 -32 -28 -33 -32 -34 -102 0 -42 4 -78 11 -85 15 -15 14 -54
-1 -64 -7 -4 -23 -9 -36 -11 -12 -1 -35 -8 -50 -14 -15 -6 -29 -12 -32 -12 -3
-1 -19 -11 -37 -24 -43 -30 -75 -78 -75 -109 l0 -25 -33 32 c-17 17 -48 35
-68 41 -23 6 -37 16 -37 26 0 12 -7 14 -34 9 -27 -5 -40 -2 -64 19 -16 14 -35
25 -41 25 -6 0 -11 9 -11 21 0 16 4 19 19 14 14 -4 23 0 30 14 6 11 21 21 33
23 26 3 40 48 15 48 -10 0 -14 12 -14 43 1 80 -13 120 -58 165 -24 23 -52 42
-63 42 -12 0 -23 4 -26 9 -13 20 -92 10 -137 -19z m101 -59 c0 -5 -7 -11 -14
-14 -10 -4 -13 -1 -9 9 6 15 23 19 23 5z m-90 -11 c0 -5 -5 -10 -11 -10 -5 0
-7 5 -4 10 3 6 8 10 11 10 2 0 4 -4 4 -10z m52 -50 c-2 -16 -6 -30 -8 -30 -2
0 -4 14 -4 30 0 17 4 30 8 30 5 0 7 -13 4 -30z m134 15 c8 -19 -12 -44 -31
-41 -23 3 -27 13 -15 35 13 24 38 28 46 6z m-210 -60 c1 -14 -2 -22 -7 -19
-11 6 -12 44 -1 44 4 0 8 -11 8 -25z m130 -165 c16 0 19 -16 5 -24 -10 -6 -71
12 -85 25 -5 5 1 12 14 17 17 6 28 5 38 -4 7 -8 20 -14 28 -14z m671 -26 c-3
-3 -12 -4 -19 -1 -8 3 -5 6 6 6 11 1 17 -2 13 -5z M1026 3327 c-14 -10 -15
-18 -7 -40 17 -45 61 -31 61 18 0 23 -34 36 -54 22z M3266 3084 c-8 -20 -8
-24 2 -24 4 0 8 9 9 20 2 24 -3 26 -11 4z M2916 3074 c-9 -8 -16 -20 -16 -25
0 -15 -27 -10 -33 5 -12 31 -77 -13 -77 -52 0 -21 30 -26 50 -7 16 14 20 15
20 4 0 -19 36 -40 55 -32 10 3 15 13 12 24 -3 12 4 24 19 34 30 20 33 65 5 65
-11 0 -27 -7 -35 -16z M3127 3079 c7 -7 15 -10 18 -7 3 3 -2 9 -12 12 -14 6
-15 5 -6 -5z M3305 3060 c-3 -5 -1 -10 4 -10 6 0 11 5 11 10 0 6 -2 10 -4 10
-3 0 -8 -4 -11 -10z M3265 3040 c3 -5 8 -10 11 -10 2 0 4 5 4 10 0 6 -5 10
-11 10 -5 0 -7 -4 -4 -10z M3365 3040 c-3 -5 -2 -10 3 -10 6 0 8 -10 5 -21 -5
-19 -4 -20 15 -10 19 10 20 14 9 31 -13 22 -23 25 -32 10z M1201 2996 c-9 -23
-9 -38 1 -69 7 -21 18 -39 23 -38 16 1 17 66 2 102 l-15 34 -11 -29z M3205
3010 c3 -5 8 -10 11 -10 2 0 4 5 4 10 0 6 -5 10 -11 10 -5 0 -7 -4 -4 -10z
M3072 2960 c-13 -34 -4 -57 15 -38 10 11 11 21 4 39 l-9 24 -10 -25z M105
2959 c-4 -6 -5 -12 -2 -15 2 -3 7 2 10 11 7 17 1 20 -8 4z M2981 2951 c-7 -5
-12 -14 -9 -21 2 -7 10 -4 22 9 19 21 12 28 -13 12z M2918 2945 c-7 -12 17
-37 26 -28 10 10 7 25 -3 19 -5 -4 -11 -1 -13 6 -3 7 -7 8 -10 3z M236 2791
c-2 -3 9 -7 25 -8 15 -1 31 2 34 7 3 5 -8 8 -25 8 -17 -1 -32 -4 -34 -7z M268
2760 c-31 -9 -36 -14 -92 -84 -45 -55 -84 -96 -93 -96 -3 0 -11 8 -18 17 -10
14 -12 8 -13 -35 -1 -29 3 -52 8 -52 11 0 76 37 106 60 11 8 34 35 51 60 17
25 43 54 58 64 54 40 50 82 -7 66z M3410 2710 c0 -5 5 -10 10 -10 6 0 10 5 10
10 0 6 -4 10 -10 10 -5 0 -10 -4 -10 -10z M3474 2684 c3 -23 13 -26 18 -6 3
11 0 19 -7 19 -7 0 -12 -6 -11 -13z M3574 2674 c3 -7 -16 -16 -51 -23 -50 -10
-56 -9 -72 9 -14 17 -21 18 -56 9 -22 -6 -45 -11 -52 -11 -15 -2 -5 -25 15
-34 9 -4 29 -6 45 -5 40 4 33 -14 -16 -37 -24 -11 -49 -27 -55 -35 -12 -15 -7
-47 8 -47 4 0 11 -11 14 -24 4 -16 23 -33 58 -50 29 -14 58 -26 65 -26 7 0 13
-4 13 -10 0 -5 -7 -10 -16 -10 -8 0 -12 -4 -9 -10 3 -5 19 -10 35 -10 34 0 50
-17 20 -22 -31 -5 -29 -23 3 -26 15 -2 27 -8 27 -13 0 -6 17 -17 38 -25 20 -9
51 -26 67 -38 43 -32 61 -36 82 -21 17 13 16 16 -17 44 -19 17 -40 30 -45 31
-6 0 -16 5 -22 11 -16 16 30 85 61 93 24 6 27 24 11 60 -6 13 -3 29 8 48 23
40 7 81 -41 103 -68 31 -102 50 -102 58 0 4 5 7 10 7 6 0 10 4 10 8 0 4 -9 8
-20 8 -12 0 -19 -5 -16 -12z m111 -178 c-17 -12 -18 -17 -7 -41 12 -25 10 -31
-14 -56 -25 -26 -32 -28 -86 -25 -33 2 -62 7 -65 10 -10 10 48 66 68 66 9 0
24 11 33 24 14 22 33 31 75 35 10 1 9 -3 -4 -13z m-62 -169 c4 3 7 1 7 -5 0
-14 -2 -14 -24 -6 -9 3 -16 11 -16 16 0 7 5 6 13 -1 8 -6 17 -8 20 -4z M3106
2665 c-16 -12 -17 -15 -4 -15 9 0 18 7 22 15 7 18 6 18 -18 0z M2803 2655 c0
-8 4 -12 9 -9 4 3 8 9 8 15 0 5 -4 9 -8 9 -5 0 -9 -7 -9 -15z M2983 2655 c-10
-10 -9 -16 1 -24 11 -9 14 -6 14 14 0 14 -1 25 -2 25 0 -1 -6 -7 -13 -15z
M3205 2661 c-3 -5 -1 -12 5 -16 5 -3 10 -1 10 5 0 6 5 8 10 5 6 -3 10 -1 10 4
0 13 -27 14 -35 2z M3281 2654 c0 -11 3 -14 6 -6 3 7 2 16 -1 19 -3 4 -6 -2
-5 -13z M3140 2644 c0 -14 3 -14 15 -4 8 7 15 14 15 16 0 2 -7 4 -15 4 -8 0
-15 -7 -15 -16z M2765 2640 c3 -5 8 -10 11 -10 2 0 4 5 4 10 0 6 -5 10 -11 10
-5 0 -7 -4 -4 -10z M4412 2630 c4 -28 35 -39 120 -41 32 -1 55 -5 53 -9 -8
-14 45 2 57 17 19 23 -16 43 -76 43 -28 0 -75 3 -104 7 -52 6 -54 5 -50 -17z
M1530 2630 c-13 -9 -13 -11 0 -20 19 -13 34 -8 38 13 4 19 -15 22 -38 7z
M3271 2598 c-35 -33 -38 -35 -91 -45 -16 -3 -28 -9 -25 -13 3 -5 -4 -6 -15 -3
-12 3 -20 0 -20 -7 0 -7 12 -10 33 -8 17 2 34 -1 37 -7 3 -6 -22 -12 -62 -16
-42 -3 -75 -12 -86 -22 -10 -10 -21 -15 -24 -12 -2 3 -2 -9 0 -26 3 -19 1 -29
-5 -26 -5 3 -21 0 -35 -7 -23 -12 -24 -12 -20 9 3 17 -3 26 -27 38 -21 11 -31
12 -35 3 -3 -7 -5 -7 -5 2 -1 6 -6 12 -12 12 -5 0 -8 -4 -5 -9 9 -13 -41 -31
-89 -31 -33 0 -64 -11 -121 -41 -62 -34 -87 -42 -134 -42 -53 -2 -56 -3 -52
-25 7 -35 33 -44 103 -33 34 6 69 17 78 24 31 27 90 49 142 52 43 2 56 -1 69
-18 11 -13 28 -20 48 -19 34 1 161 57 163 73 1 5 2 15 3 22 1 7 24 14 61 18
81 9 89 13 135 73 22 28 47 59 56 68 20 20 12 48 -13 48 -10 0 -33 -15 -52
-32z M548 2598 c-33 -11 -35 -19 -10 -40 29 -25 43 -31 40 -16 -2 7 2 12 9 11
16 -3 36 24 29 42 -6 17 -28 18 -68 3z M306 2587 c-16 -5 -43 -23 -60 -39 -17
-17 -43 -36 -58 -44 -15 -8 -31 -21 -36 -30 -5 -9 -21 -18 -35 -19 -14 -2 -31
-6 -36 -10 -6 -3 -11 -1 -11 4 0 6 -4 11 -10 11 -5 0 -10 -16 -10 -36 0 -22 4
-33 10 -29 6 4 19 1 28 -6 9 -7 13 -9 9 -4 -8 10 71 37 106 36 10 0 17 6 16
12 -3 28 4 37 61 79 60 43 77 65 63 78 -4 4 -21 3 -37 -3z M4645 2570 c-3 -5
-1 -10 4 -10 6 0 11 5 11 10 0 6 -2 10 -4 10 -3 0 -8 -4 -11 -10z M442 2544
c-9 -6 -46 -22 -82 -34 -134 -47 -139 -51 -120 -80 8 -12 14 -13 41 -3 18 7
36 10 42 6 6 -4 7 -1 2 7 -6 10 -3 12 13 8 12 -4 20 -3 17 1 -2 5 15 14 38 21
23 8 46 17 52 22 5 4 17 8 26 8 21 0 51 28 46 43 -4 14 -55 15 -75 1z M661
2547 c-14 -14 0 -47 20 -47 10 0 21 5 24 10 4 6 11 8 16 5 19 -12 55 -18 100
-16 32 1 62 -6 97 -24 65 -32 157 -33 157 0 0 17 -9 21 -53 26 -29 4 -75 16
-102 28 -37 16 -73 22 -150 24 -56 1 -105 -2 -109 -6z M3095 2530 c-3 -5 -1
-10 4 -10 6 0 11 5 11 10 0 6 -2 10 -4 10 -3 0 -8 -4 -11 -10z M3020 2516 c0
-2 7 -7 16 -10 8 -3 12 -2 9 4 -6 10 -25 14 -25 6z M3990 2509 c-30 -5 -66 -6
-78 -3 -13 2 -21 1 -18 -4 2 -4 -11 -17 -30 -27 -36 -19 -39 -32 -11 -49 12
-8 24 -6 45 6 15 9 53 20 83 23 88 11 118 23 112 45 -6 22 -15 23 -103 9z
M2963 2494 c3 -23 16 -44 26 -44 15 0 8 30 -11 47 -17 15 -18 15 -15 -3z
M2890 2489 c0 -5 5 -7 10 -4 6 3 10 8 10 11 0 2 -4 4 -10 4 -5 0 -10 -5 -10
-11z M2934 2486 c1 -8 5 -18 8 -22 4 -3 5 1 4 10 -1 8 -5 18 -8 22 -4 3 -5 -1
-4 -10z M385 2450 c3 -5 8 -10 11 -10 2 0 4 5 4 10 0 6 -5 10 -11 10 -5 0 -7
-4 -4 -10z M2509 2369 c-10 -6 -4 -9 19 -9 17 0 32 2 32 4 0 9 -39 13 -51 5z
M4773 2279 c-2 -23 3 -25 10 -4 4 8 3 16 -1 19 -4 3 -9 -4 -9 -15z M731 2281
c-11 -7 -9 -10 8 -16 23 -7 28 -21 9 -28 -8 -4 -7 -6 3 -6 9 -1 19 -7 22 -15
7 -17 -20 -30 -27 -13 -3 9 -5 9 -5 0 -1 -18 18 -26 33 -14 11 9 11 18 1 47
-15 44 -26 56 -44 45z M817 2274 c3 -8 14 -14 25 -14 23 0 16 16 -11 23 -14 3
-18 1 -14 -9z M1303 2274 c-3 -8 0 -26 6 -38 7 -13 11 -31 9 -41 -4 -21 23
-41 46 -32 20 8 21 50 1 67 -8 7 -15 23 -15 36 0 17 -6 24 -20 24 -11 0 -23
-7 -27 -16z M665 2254 c9 -9 19 -13 23 -10 3 4 0 11 -8 16 -24 15 -33 11 -15
-6z M4750 2210 c0 -5 5 -10 10 -10 6 0 10 5 10 10 0 6 -4 10 -10 10 -5 0 -10
-4 -10 -10z M320 2199 c0 -6 -9 -8 -22 -3 -13 3 -21 5 -18 3 3 -2 14 -12 25
-21 19 -16 20 -15 21 8 1 13 0 24 -2 24 -2 0 -4 -5 -4 -11z M1650 2190 c-8 -5
-11 -12 -8 -16 10 -9 38 3 38 16 0 12 -10 13 -30 0z M641 2177 c2 -1 13 -9 24
-17 19 -14 19 -14 6 3 -7 9 -18 17 -24 17 -6 0 -8 -1 -6 -3z M700 2166 c0 -2
8 -10 18 -17 15 -13 16 -12 3 4 -13 16 -21 21 -21 13z M385 2150 c3 -5 11 -10
16 -10 6 0 7 5 4 10 -3 6 -11 10 -16 10 -6 0 -7 -4 -4 -10z M147 2128 c-3 -8
4 -13 18 -13 18 0 21 3 13 13 -6 6 -14 12 -18 12 -4 0 -10 -6 -13 -12z M204
2120 c0 -13 4 -16 10 -10 7 7 7 13 0 20 -6 6 -10 3 -10 -10z M3027 2129 c7 -7
15 -10 18 -7 3 3 -2 9 -12 12 -14 6 -15 5 -6 -5z M3190 2136 c0 -2 6 -9 14
-15 10 -9 15 -8 19 2 3 8 -3 13 -14 14 -10 1 -19 0 -19 -1z M1330 1946 c0 -9
5 -16 10 -16 6 0 10 4 10 9 0 6 -4 13 -10 16 -5 3 -10 -1 -10 -9z M4177 1923
c-9 -16 18 -123 30 -123 14 0 17 46 7 99 -6 28 -27 42 -37 24z M475 1820 c-3
-5 -1 -10 4 -10 6 0 11 5 11 10 0 6 -2 10 -4 10 -3 0 -8 -4 -11 -10z M4093
1822 c-13 -2 -23 -7 -23 -12 0 -4 -11 -11 -24 -14 -28 -7 -41 -33 -25 -52 6
-8 8 -14 3 -14 -5 0 2 -7 14 -16 16 -11 22 -24 20 -47 -2 -38 38 -106 79 -134
45 -32 57 -37 49 -25 -4 7 -1 12 8 12 8 0 16 -6 19 -12 2 -7 8 -10 13 -5 4 4
-2 14 -14 23 -12 8 -20 20 -16 25 3 6 -5 20 -18 32 -49 44 -77 108 -39 87 15
-7 23 -6 35 6 16 15 15 38 -6 93 -6 17 -5 27 4 32 27 17 -22 30 -79 21z m67
-12 c0 -5 -4 -10 -10 -10 -5 0 -10 5 -10 10 0 6 5 10 10 10 6 0 10 -4 10 -10z
M4597 1764 c5 -13 3 -16 -10 -11 -8 3 -20 0 -27 -7 -16 -20 16 -29 35 -10 17
18 19 30 5 39 -6 4 -7 -1 -3 -11z M4520 1755 c7 -9 15 -13 17 -11 7 7 -7 26
-19 26 -6 0 -6 -6 2 -15z M4190 1737 c0 -1 4 -17 9 -35 7 -24 6 -32 -3 -32 -7
0 -21 -9 -31 -20 -17 -18 -17 -20 -2 -14 12 4 17 1 17 -13 0 -11 9 -28 20 -38
12 -10 18 -25 16 -32 -3 -7 -2 -12 2 -11 14 4 52 -13 52 -23 0 -6 -4 -7 -10
-4 -16 10 -11 -1 7 -16 14 -12 16 -12 8 0 -6 11 -3 13 14 8 l22 -5 -20 34
c-11 19 -16 34 -11 34 5 0 8 14 8 30 -1 17 -7 30 -13 30 -7 0 -18 15 -25 33
-26 70 -30 77 -45 77 -8 0 -15 -1 -15 -3z M4010 1676 c0 -2 8 -10 18 -17 15
-13 16 -12 3 4 -13 16 -21 21 -21 13z M1375 1573 c0 -15 7 -28 15 -31 12 -3
12 -2 3 8 -6 7 -9 18 -7 25 3 7 1 15 -3 18 -5 3 -9 -6 -8 -20z M4668 919 c-29
-16 -21 -29 17 -29 19 0 35 -3 35 -7 0 -10 -57 -9 -67 0 -3 4 -14 7 -24 7 -13
0 -19 -9 -21 -37 -3 -37 -4 -38 -60 -48 -97 -17 -104 -50 -17 -83 l52 -19 -57
-6 c-61 -6 -110 -30 -103 -50 7 -22 59 -39 118 -38 32 0 59 -4 59 -9 0 -6 -22
-10 -49 -10 -53 0 -68 -11 -67 -50 1 -20 7 -26 28 -28 22 -3 30 2 37 22 7 18
15 23 30 19 25 -6 33 -63 29 -189 -3 -102 6 -124 54 -124 28 0 29 1 22 38 -4
20 -6 46 -5 57 2 11 4 63 5 115 2 87 4 95 22 93 144 -16 227 8 217 61 -7 35
-43 46 -148 46 -114 0 -128 15 -17 18 89 3 115 9 109 25 -2 7 2 20 11 30 8 9
12 20 8 25 -4 4 -55 7 -114 7 -81 0 -107 4 -110 14 -4 12 8 13 67 8 62 -5 72
-4 81 13 12 23 -3 30 -68 31 l-47 1 39 9 c47 11 66 25 66 48 0 35 -93 63 -132
40z m22 -95 c0 -2 -7 -4 -15 -4 -8 0 -15 4 -15 10 0 5 7 7 15 4 8 -4 15 -8 15
-10z m-97 -61 c-7 -2 -19 -2 -25 0 -7 3 -2 5 12 5 14 0 19 -2 13 -5z m174 -49
c-11 -11 -68 -14 -62 -4 3 6 20 10 37 10 17 0 29 -3 25 -6z m-163 -53 c9 -14
-18 -20 -65 -14 -34 5 -39 8 -24 14 28 11 83 11 89 0z m234 -70 c-4 -17 -59
-23 -124 -12 -79 13 -10 40 84 32 34 -2 42 -7 40 -20z M4721 471 c-19 -12 -6
-45 15 -37 9 3 22 6 30 6 8 0 14 7 14 15 0 8 -4 15 -9 15 -5 0 -15 2 -23 5 -7
3 -19 1 -27 -4z"/>
</g>
</svg>
