<?xml version="1.0" standalone="no"?>
<!DOCTYPE svg PUBLIC "-//W3C//DTD SVG 20010904//EN"
 "http://www.w3.org/TR/2001/REC-SVG-20010904/DTD/svg10.dtd">
<svg version="1.0" xmlns="http://www.w3.org/2000/svg"
 width="500.000000pt" height="878.000000pt" viewBox="0 0 500.000000 878.000000"
 preserveAspectRatio="xMidYMid meet">
<metadata>
Created by potrace 1.16, written by Peter Selinger 2001-2019
</metadata>
<g transform="translate(0.000000,878.000000) scale(0.100000,-0.100000)"
fill="#000000" stroke="none">
<path d="M2307 8682 l52 -47 -27 -31 c-15 -17 -35 -41 -44 -52 -10 -12 -29
-22 -43 -22 -29 0 -43 -25 -28 -49 19 -31 123 -19 123 14 0 16 46 95 55 95 13
0 71 -76 75 -99 4 -21 13 -28 47 -35 94 -20 95 13 3 103 -38 38 -70 73 -70 78
0 17 69 81 92 86 13 2 -4 5 -36 6 -49 1 -64 -3 -83 -21 -16 -15 -27 -19 -31
-12 -13 21 -51 34 -94 34 l-43 -1 52 -47z M2255 8340 c-4 -6 -6 -20 -5 -33 1
-12 2 -35 1 -52 l-2 -30 -12 25 c-22 46 -69 32 -62 -18 2 -15 4 -51 4 -79 1
-48 3 -53 24 -53 33 0 47 19 47 64 0 54 9 41 13 -19 3 -53 13 -63 41 -42 16
12 19 27 19 90 -1 41 -4 94 -8 116 -6 34 -11 41 -30 41 -13 0 -27 -5 -30 -10z
M2533 8318 c-11 -24 -33 -140 -33 -176 0 -28 36 -48 56 -31 8 7 13 18 10 26
-3 8 1 33 9 56 20 58 20 133 -1 141 -25 10 -30 7 -41 -16z M2624 8322 c-13 -8
-38 -176 -30 -197 3 -8 16 -15 30 -15 22 0 25 6 35 63 16 94 14 135 -7 146
-10 5 -23 7 -28 3z M2733 8308 c-14 -17 -43 -140 -43 -178 0 -24 6 -33 26 -40
36 -14 44 -6 44 46 0 25 4 54 10 64 5 10 12 36 15 59 4 33 1 42 -14 51 -25 13
-26 13 -38 -2z M2823 8298 c-17 -22 -45 -144 -41 -179 2 -28 7 -35 30 -37 24
-3 28 1 33 35 4 21 11 52 15 68 15 51 15 92 1 109 -16 19 -25 20 -38 4z M2087
8293 c-9 -8 -7 -137 2 -178 7 -35 34 -44 61 -20 15 13 16 22 9 48 -5 18 -9 53
-9 79 0 25 -3 53 -6 62 -6 16 -45 22 -57 9z M2923 8262 c-17 -10 -44 -90 -50
-144 l-5 -48 31 0 c25 0 32 5 37 28 3 15 12 49 20 76 8 27 14 55 14 62 0 17
-33 35 -47 26z M1988 8248 c-3 -7 0 -50 6 -96 l10 -83 30 3 31 3 -3 69 c-4 89
-15 116 -46 116 -13 0 -26 -6 -28 -12z M1790 8231 c0 -5 -14 -14 -31 -21 -30
-13 -31 -15 -25 -54 4 -23 9 -57 12 -76 3 -19 9 -39 15 -45 17 -17 44 10 50
51 l5 39 8 -37 c7 -34 10 -37 30 -26 31 16 34 24 25 80 -9 54 -25 74 -46 57
-7 -6 -17 -8 -22 -5 -6 4 -6 -5 0 -26 11 -40 11 -38 1 -38 -5 0 -14 17 -20 37
-10 31 -9 40 5 55 10 11 12 18 5 18 -7 0 -12 -4 -12 -9z M2351 8221 c-15 -15
-18 -29 -14 -63 7 -54 13 -61 46 -49 19 8 33 6 53 -4 15 -8 31 -12 36 -9 4 3
8 31 8 62 0 47 -4 59 -21 70 -29 18 -39 5 -41 -50 -3 -58 -18 -52 -18 7 0 50
-20 65 -49 36z M1546 8199 c-27 -23 -27 -25 -12 -54 9 -17 19 -47 22 -68 4
-20 11 -40 15 -43 5 -3 9 -14 9 -25 0 -22 17 -24 43 -5 24 18 21 38 -16 135
l-33 83 -28 -23z M1888 8215 c-5 -6 25 -132 35 -141 3 -4 18 -3 33 0 24 6 26
10 21 49 -9 73 -23 97 -55 97 -16 0 -31 -2 -34 -5z M3007 8203 c-4 -3 -7 -16
-7 -28 0 -11 -5 -26 -11 -32 -6 -6 -14 -27 -19 -46 -7 -33 -6 -37 21 -46 34
-12 39 -6 63 72 14 46 15 61 5 73 -12 15 -41 19 -52 7z M1648 8186 c-17 -12
-17 -17 -3 -62 8 -27 15 -61 15 -76 0 -38 18 -44 46 -17 21 22 22 28 13 64 -6
22 -13 51 -16 65 -5 23 -20 40 -33 40 -3 -1 -13 -7 -22 -14z M3103 8153 c-3
-10 -14 -37 -24 -61 -19 -45 -18 -47 26 -54 21 -3 54 49 55 88 0 39 -45 61
-57 27z M1347 8138 c-18 -14 -19 -7 20 -128 19 -58 40 -72 67 -45 12 12 13 21
6 36 -6 10 -20 48 -31 84 -20 66 -31 75 -62 53z M1468 8143 c-28 -7 -27 -44 4
-115 23 -53 21 -52 49 -38 19 11 26 50 12 64 -4 4 -8 13 -9 19 0 7 -4 27 -9
45 -7 31 -13 34 -47 25z M3205 8103 c-33 -75 -34 -80 -22 -92 6 -6 22 -11 34
-11 19 0 28 10 44 46 18 44 18 84 -1 84 -5 0 -15 3 -24 6 -11 4 -20 -5 -31
-33z M3305 8118 c-4 -13 -16 -47 -28 -76 -22 -55 -19 -65 21 -77 19 -5 25 -1
39 32 23 55 33 116 21 131 -17 20 -46 14 -53 -10z M1258 8103 c-22 -6 -23 1 8
-96 33 -103 30 -98 60 -85 24 11 25 15 19 56 -8 52 -44 133 -59 131 -6 -1 -19
-3 -28 -6z M1141 8071 c-18 -11 -10 -44 31 -127 32 -66 46 -75 72 -49 14 14
14 20 -3 63 -26 65 -61 122 -74 122 -7 0 -18 -4 -26 -9z M3397 8043 c-48 -76
-49 -81 -28 -93 31 -16 38 -13 71 35 36 52 37 88 3 93 -16 2 -28 -7 -46 -35z
M3517 8062 c-8 -9 -29 -45 -46 -79 -26 -52 -28 -62 -15 -67 46 -18 70 1 97 74
21 58 21 67 -2 79 -14 8 -22 6 -34 -7z M1062 8009 c-13 -5 -22 -13 -20 -17 21
-55 75 -152 83 -152 6 0 20 6 30 14 18 13 19 17 6 53 -15 43 -51 101 -66 107
-5 2 -21 -1 -33 -5z M2080 8000 c-30 -5 -56 -7 -58 -5 -6 6 -95 -50 -99 -61
-2 -6 8 -23 22 -38 14 -15 25 -38 25 -52 0 -13 5 -24 11 -24 6 0 9 -7 6 -14
-4 -10 -1 -13 7 -10 10 4 19 -12 31 -48 19 -58 51 -117 73 -133 11 -9 11 -16
2 -37 -10 -20 -9 -31 3 -54 22 -45 8 -144 -48 -318 -17 -54 -55 -102 -55 -69
0 9 -13 31 -29 48 -27 27 -74 104 -138 224 -17 33 -22 54 -17 78 5 25 2 39
-11 53 -9 10 -14 27 -11 37 3 10 8 41 11 68 3 28 8 66 11 85 3 19 7 67 10 106
9 110 -19 123 -181 85 -171 -41 -285 -93 -285 -128 0 -12 66 -109 94 -139 25
-25 92 -108 100 -123 5 -9 18 -22 29 -30 12 -9 15 -17 9 -23 -13 -13 -4 -39
17 -55 32 -23 4 -254 -44 -369 -24 -59 11 -78 166 -90 108 -8 151 -1 187 34
81 78 78 76 109 55 15 -11 48 -25 71 -33 47 -15 64 -13 256 29 95 20 115 18
191 -23 34 -18 54 -16 168 21 71 23 79 24 95 10 10 -9 59 -37 110 -62 71 -35
96 -44 110 -36 10 5 32 10 48 9 16 0 49 7 74 16 l45 17 22 -28 c13 -15 23 -30
23 -33 0 -18 82 -52 181 -74 64 -15 120 -31 125 -35 5 -5 26 -6 47 -4 35 5 38
8 33 30 -11 43 -15 187 -6 223 32 129 45 167 61 186 11 11 19 25 19 31 0 6 16
24 35 40 19 15 67 56 107 91 39 34 79 62 87 62 34 1 66 45 55 74 -5 14 -77 66
-91 66 -4 0 8 -14 27 -31 19 -17 27 -26 18 -19 -15 10 -21 7 -42 -16 -23 -27
-25 -28 -43 -13 -10 9 -44 29 -76 45 -47 22 -55 30 -40 35 11 4 31 0 50 -11
31 -18 78 -17 67 1 -7 13 -112 65 -146 73 -16 3 -28 11 -28 16 0 10 29 1 81
-25 17 -9 35 -15 41 -13 16 6 -91 55 -159 74 -34 9 -68 14 -75 11 -8 -3 -20
-31 -27 -63 -7 -33 -18 -72 -23 -89 -5 -16 -13 -67 -17 -112 -5 -54 -14 -87
-25 -98 -9 -9 -16 -29 -16 -45 0 -52 -84 -158 -202 -254 -27 -21 -48 -45 -48
-52 0 -17 -14 -18 -28 -1 -15 19 -25 169 -17 272 6 85 9 94 29 99 12 3 28 18
35 33 11 23 10 29 -5 40 -16 11 -14 16 22 57 21 24 47 47 57 51 9 3 15 10 12
15 -3 4 2 13 10 20 8 7 15 18 15 25 0 7 23 32 50 55 52 44 64 76 35 100 -17
14 -133 70 -145 70 -5 0 -21 5 -37 12 -15 6 -30 12 -33 13 -3 1 -29 9 -59 18
-72 23 -114 22 -136 -3 -15 -17 -17 -30 -10 -102 4 -46 7 -99 6 -118 -1 -139
-3 -148 -17 -154 -15 -6 -19 -43 -5 -65 14 -21 -13 -96 -64 -180 -41 -67 -121
-161 -137 -161 -20 0 -41 68 -88 278 -13 57 -7 97 17 124 10 11 13 26 9 43 -5
19 7 52 44 130 27 57 50 107 50 110 0 3 11 23 25 44 15 22 23 45 19 54 -10 26
-62 47 -133 53 -36 4 -70 9 -75 12 -5 3 -7 -1 -4 -10 5 -12 -6 -14 -70 -11
-86 4 -120 -7 -89 -31 42 -32 4 -22 -42 11 -2 2 4 12 14 23 16 18 16 20 1 26
-27 10 -46 -4 -46 -33 0 -15 -5 -35 -11 -43 -8 -12 -9 -9 -5 11 4 18 0 35 -13
50 -17 21 -26 23 -137 25 -65 1 -144 -2 -174 -6z m164 -19 c3 -5 -5 -12 -19
-15 -27 -7 -33 -21 -12 -29 6 -2 41 0 76 4 67 10 94 6 42 -6 -17 -4 -34 -13
-38 -20 -5 -7 -21 -15 -38 -17 -26 -3 -30 -7 -30 -33 0 -30 1 -30 53 -29 28 1
52 0 52 -1 0 -2 -4 -15 -10 -29 -8 -22 -16 -26 -52 -26 -66 0 -88 -9 -88 -35
0 -35 20 -45 65 -35 44 10 53 7 37 -13 -7 -8 -31 -14 -54 -15 -52 -2 -62 -11
-48 -46 9 -25 13 -26 46 -20 27 5 35 4 30 -5 -4 -6 -20 -11 -35 -11 -33 0 -54
-20 -45 -44 4 -11 1 -16 -10 -16 -14 0 -16 7 -11 33 4 24 -2 48 -25 95 -16 35
-30 65 -30 67 0 1 11 3 25 3 36 0 39 6 22 41 -12 23 -12 31 -2 35 8 2 11 15 8
30 -5 22 -11 26 -42 26 -24 0 -32 3 -22 9 20 13 5 29 -22 24 -33 -7 -107 15
-107 31 0 8 7 20 16 27 15 12 16 11 10 -8 -4 -12 -3 -24 2 -27 5 -3 49 0 97 6
76 10 88 15 96 35 9 23 52 33 63 14z m560 -51 c20 -19 -9 -30 -77 -29 -82 1
-183 15 -132 19 17 1 54 1 83 0 41 -1 52 2 52 14 0 12 7 14 33 9 17 -3 36 -9
41 -13z m-1034 -10 c0 -5 -17 -9 -37 -9 -38 1 -38 1 -8 9 43 11 45 11 45 0z
m1395 -21 c11 -4 -10 -5 -46 -2 -73 6 -90 -4 -58 -33 17 -15 23 -16 40 -6 16
10 30 8 83 -13 67 -27 101 -31 111 -15 3 6 19 10 36 10 16 0 29 -4 29 -10 0
-5 -4 -10 -8 -10 -5 0 -7 -14 -4 -31 5 -37 39 -37 34 0 -2 20 0 22 13 11 41
-34 -6 -69 -69 -50 -23 7 -49 16 -59 21 -9 5 -52 23 -94 40 -87 34 -125 25
-42 -10 38 -17 48 -26 40 -34 -6 -6 -11 -21 -11 -34 0 -30 60 -56 114 -50 l39
5 -20 -20 c-20 -19 -21 -19 -70 -2 -58 20 -83 14 -83 -19 0 -20 8 -27 45 -37
36 -10 43 -15 34 -26 -9 -11 -16 -11 -40 1 -40 21 -69 19 -69 -4 0 -24 -18
-37 -31 -24 -5 5 -11 71 -13 147 -3 109 -7 140 -20 155 -20 22 -20 26 0 45 16
16 71 14 119 -5z m-1508 -5 c-26 -14 -29 -34 -6 -34 6 0 8 3 6 8 -3 4 17 8 44
9 60 3 56 -10 -8 -27 -27 -7 -64 -21 -83 -30 -38 -19 -92 -31 -153 -35 -68 -4
-58 33 15 54 24 7 61 22 84 32 23 10 48 19 57 19 9 0 19 5 22 10 3 6 16 10 28
10 20 -1 20 -2 -6 -16z m830 -16 c-3 -8 -6 -5 -6 6 -1 11 2 17 5 13 3 -3 4
-12 1 -19z m108 -8 c6 -17 15 -20 75 -20 59 0 92 -11 78 -25 -8 -8 -83 -8
-110 -1 -22 7 -28 5 -28 -8 0 -22 46 -38 93 -34 20 2 36 -1 34 -6 -2 -5 -34
-9 -72 -10 -65 -1 -70 -3 -73 -24 -2 -16 3 -25 20 -31 13 -5 27 -7 31 -4 5 3
19 2 33 -1 42 -11 16 -26 -39 -23 -43 2 -52 -1 -55 -16 -5 -25 16 -47 43 -47
25 0 42 -40 28 -63 -5 -8 -10 -1 -13 18 -4 24 -10 30 -30 30 -20 0 -30 10 -47
45 -12 25 -25 62 -29 83 -6 33 -4 37 15 37 16 0 21 6 21 28 0 15 -4 32 -9 38
-5 5 -12 19 -16 32 -5 19 -3 22 19 22 16 0 27 -7 31 -20z m650 -1 c16 -16 -20
-10 -41 7 -18 14 -18 15 6 8 14 -3 29 -10 35 -15z m-811 -31 c21 -37 45 -130
49 -190 1 -10 6 -18 12 -18 5 0 3 -6 -6 -13 -37 -29 -32 -72 10 -89 21 -9 22
-12 9 -15 -11 -3 -19 -18 -23 -41 -16 -106 -55 -265 -67 -277 -3 -3 -13 23
-23 57 -9 35 -24 75 -31 90 -8 15 -20 57 -28 94 -13 62 -13 68 5 99 19 32 19
32 -2 59 -19 24 -20 30 -8 59 8 18 14 37 16 42 1 6 6 24 12 40 6 17 18 56 27
88 9 31 18 57 20 57 2 0 14 -19 28 -42z m-658 -15 c-10 -54 -17 -99 -26 -192
-8 -79 -7 -97 7 -118 15 -23 15 -26 -4 -44 -18 -18 -21 -18 -33 -5 -10 14 -9
16 7 16 11 0 23 3 26 7 12 11 -14 33 -39 33 -14 0 -30 10 -39 24 -14 21 -22
24 -51 19 -46 -8 -44 13 3 24 44 10 50 22 24 50 -17 18 -25 19 -63 12 -58 -11
-68 -11 -68 1 0 6 12 10 26 10 42 0 104 22 104 37 0 19 -47 35 -69 23 -10 -5
-37 -13 -59 -19 -32 -7 -44 -6 -53 5 -9 12 -5 14 27 14 40 1 144 22 163 35 16
9 13 25 -4 25 -33 0 -12 20 48 43 79 32 80 32 73 0z m1847 -181 c17 -10 50
-29 72 -43 22 -14 61 -35 86 -46 45 -20 71 -43 49 -43 -6 0 -38 12 -72 26 -65
27 -82 23 -76 -16 2 -17 16 -28 56 -43 28 -11 52 -24 52 -28 0 -15 -18 -10
-71 17 -57 28 -79 26 -79 -8 0 -17 11 -28 43 -42 23 -10 37 -20 30 -23 -6 -2
-29 4 -50 15 -42 21 -63 19 -63 -7 0 -24 -8 -30 -31 -24 -19 5 -20 12 -15 82
6 74 26 201 33 201 2 0 18 -8 36 -18z m-1076 -64 c-3 -8 -6 -5 -6 6 -1 11 2
17 5 13 3 -3 4 -12 1 -19z m-267 -22 c0 -13 -6 -29 -14 -35 -10 -9 -11 -22 -5
-57 5 -25 11 -50 15 -55 3 -6 -3 -13 -15 -16 -12 -3 -21 -9 -21 -13 0 -24 15
-40 39 -41 26 -1 25 -1 -6 -15 -31 -13 -49 -50 -20 -38 7 2 27 -2 43 -11 l29
-15 -36 0 c-41 0 -55 -19 -38 -52 8 -16 19 -19 51 -16 40 3 42 1 65 -41 29
-56 21 -66 -60 -74 -35 -3 -83 -13 -106 -21 l-43 -14 5 41 c7 59 18 110 27
122 5 6 9 46 10 90 1 44 3 100 4 125 2 25 4 58 4 73 1 17 6 26 13 22 14 -9 38
24 39 53 0 13 4 20 10 17 6 -3 10 -17 10 -29z m322 -33 c22 -20 24 -63 3 -63
-8 0 -15 -4 -15 -9 0 -23 14 -41 31 -41 10 0 19 -4 19 -10 0 -5 -13 -10 -30
-10 -23 0 -30 -5 -30 -19 0 -24 25 -45 45 -37 16 6 35 -21 35 -52 0 -13 -7
-18 -22 -18 -29 1 -36 -35 -12 -55 14 -12 19 -10 35 10 l19 23 0 -26 c0 -22
-4 -26 -28 -26 -27 0 -52 -15 -52 -32 0 -4 23 -8 50 -8 59 0 66 -15 12 -25
-49 -8 -66 -19 -59 -39 5 -14 11 -14 54 1 26 9 54 20 61 26 7 5 16 7 20 3 8
-9 -26 -36 -45 -36 -8 0 -28 -7 -44 -16 -29 -15 -34 -14 -85 10 -29 14 -65 28
-79 32 -26 6 -32 23 -16 40 6 5 14 27 19 49 5 22 22 84 36 139 14 54 26 120
26 146 0 43 6 55 29 59 3 1 13 -6 23 -16z m543 7 c3 -5 1 -10 -4 -10 -6 0 -11
5 -11 10 0 6 2 10 4 10 3 0 8 -4 11 -10z m775 0 c0 -5 -4 -10 -10 -10 -5 0
-10 5 -10 10 0 6 5 10 10 10 6 0 10 -4 10 -10z m-868 -30 c-6 -16 -11 -20 -16
-11 -4 6 -2 19 5 27 16 20 21 12 11 -16z m-1396 -48 c-10 -10 -29 15 -21 28 6
9 10 8 17 -4 6 -10 7 -20 4 -24z m1509 0 c-15 -16 -16 -15 -4 12 7 15 15 23
17 16 3 -7 -3 -19 -13 -28z m-77 -24 c-25 -15 -46 -9 -41 11 4 17 8 18 29 9
18 -8 21 -14 12 -20z m-1374 -3 c6 -17 4 -18 -18 -9 -20 8 -21 24 -2 24 8 0
16 -7 20 -15z m142 -164 c16 -29 45 -72 66 -96 21 -24 38 -49 38 -57 0 -7 -10
0 -21 15 l-21 28 -32 -19 -33 -19 -12 31 c-15 37 -81 267 -81 281 1 10 37 -53
96 -164z m319 102 c-7 -65 -17 -146 -24 -185 -1 -8 -51 -12 -51 -5 0 2 6 17
14 33 8 16 24 71 37 122 12 50 24 92 26 92 2 0 1 -26 -2 -57z m893 0 c12 10
14 9 9 -8 -3 -11 -9 -44 -12 -73 -6 -48 -9 -52 -24 -39 -20 18 -61 31 -62 20
0 -4 -2 -19 -4 -33 -1 -14 2 -31 7 -37 8 -9 6 -13 -6 -13 -23 0 -20 -16 6 -34
39 -28 75 -17 46 12 -10 10 -10 15 2 22 24 15 25 13 25 -55 1 -62 -11 -87 -22
-45 -3 12 -30 31 -69 50 -35 16 -64 32 -64 35 0 4 86 134 97 145 2 2 8 -2 13
-9 12 -21 40 -5 40 24 0 14 -4 25 -10 25 -5 0 -10 5 -10 12 0 9 3 9 12 0 9 -9
15 -9 26 1z m-1334 -19 c5 -12 2 -15 -10 -10 -8 3 -22 6 -30 6 -8 0 -14 5 -14
10 0 17 47 11 54 -6z m1829 -18 c22 8 22 1 -2 -20 -19 -17 -20 -17 -35 13 -21
40 -20 52 2 23 12 -15 24 -21 35 -16z m-1837 -46 c18 0 25 -7 30 -27 13 -58
57 -179 76 -210 l20 -33 -59 -1 c-32 -1 -62 0 -68 1 -5 1 -30 4 -54 6 -52 3
-65 14 -56 44 7 22 7 22 25 2 14 -14 38 -22 90 -27 39 -4 74 -5 76 -2 3 3 1
14 -5 24 -12 23 -105 48 -146 41 -21 -4 -25 -2 -20 11 4 9 9 37 12 64 3 26 7
47 8 47 1 0 19 -7 39 -15 20 -9 41 -13 47 -10 15 10 -23 65 -48 71 -13 4 -23
11 -23 16 0 6 7 7 16 4 9 -3 26 -6 40 -6z m1789 -10 c-8 -25 -66 -112 -103
-155 -15 -17 -45 -56 -66 -88 -22 -31 -42 -57 -46 -57 -3 0 -13 13 -23 29 -17
29 -17 30 5 45 44 31 180 171 200 209 23 39 44 50 33 17z m65 -9 c0 -5 -9 -29
-20 -54 -13 -29 -22 -78 -26 -143 -4 -55 -8 -101 -10 -102 -1 -2 -11 1 -21 7
-10 6 -12 11 -5 11 18 0 15 47 -4 54 -35 13 -54 7 -54 -19 0 -20 -5 -25 -26
-25 -29 0 -34 -10 63 129 41 58 76 115 79 128 6 22 24 33 24 14z m-629 -181
c57 -29 69 -43 50 -55 -14 -8 -151 72 -151 89 0 5 8 18 18 29 17 19 17 19 20
-7 3 -21 16 -33 63 -56z m-841 40 c26 -26 25 -32 -2 -28 -15 2 -24 11 -26 26
-4 27 2 28 28 2z m-195 -70 c-3 -5 -11 -10 -16 -10 -6 0 -7 5 -4 10 3 6 11 10
16 10 6 0 7 -4 4 -10z m1215 -10 c0 -5 -9 -10 -20 -10 -11 0 -20 5 -20 10 0 6
9 10 20 10 11 0 20 -4 20 -10z m278 -116 c38 -19 36 -24 -4 -13 -51 14 -58 22
-42 48 l13 21 5 -22 c3 -13 16 -28 28 -34z m125 -31 c-7 -2 -21 -2 -30 0 -10
3 -4 5 12 5 17 0 24 -2 18 -5z M2270 7161 c-47 -9 -60 -18 -60 -40 0 -37 24
-44 89 -25 52 14 61 20 61 39 0 34 -21 39 -90 26z M2532 7273 c2 -20 8 -28 23
-28 31 0 28 49 -3 53 -20 3 -23 0 -20 -25z M2515 7200 c-10 -16 14 -50 36 -50
25 0 35 25 19 45 -14 17 -46 20 -55 5z M3597 7954 c-42 -63 -42 -84 1 -84 31
0 46 13 82 74 23 38 23 39 5 52 -32 24 -49 16 -88 -42z M3742 7919 c-26 -34
-47 -68 -47 -77 0 -9 12 -19 28 -23 26 -7 31 -3 72 54 45 62 59 105 30 93 -8
-3 -15 -1 -15 4 0 24 -23 6 -68 -51z M950 7950 c-12 -7 -8 -21 25 -84 40 -76
51 -84 85 -66 19 10 18 13 -11 68 -48 89 -65 103 -99 82z M3984 7909 c-19 -22
-19 -22 4 -10 12 6 22 16 22 21 0 15 -5 12 -26 -11z M855 7910 c-9 -15 30 -88
67 -127 26 -27 33 -30 49 -20 25 15 24 32 -3 70 -56 80 -95 106 -113 77z
M3840 7853 c-28 -37 -47 -70 -42 -75 5 -5 25 -11 45 -15 32 -5 37 -3 53 28 9
19 27 48 40 64 27 36 17 65 -21 65 -18 0 -37 -17 -75 -67z M3993 7873 c-29
-20 -51 -38 -49 -40 4 -5 116 67 116 73 0 10 -20 0 -67 -33z M758 7863 c-10
-2 -18 -8 -18 -13 0 -12 58 -98 86 -129 22 -24 23 -24 49 -7 25 16 26 19 11
39 -9 12 -24 33 -33 47 -28 41 -56 70 -67 69 -6 -1 -19 -3 -28 -6z M3989 7828
c-12 -18 -36 -48 -52 -67 l-29 -34 23 -13 c13 -7 32 -13 41 -14 28 0 109 123
91 140 -26 24 -52 20 -74 -12z M680 7795 c0 -4 18 -34 39 -66 32 -47 35 -55
15 -41 -13 9 -24 23 -24 30 0 7 -7 15 -15 18 -8 4 -15 12 -15 19 0 18 -27 38
-34 26 -4 -6 6 -28 21 -49 37 -52 52 -74 62 -90 12 -20 61 -4 61 20 0 11 -21
45 -46 76 -44 54 -64 72 -64 57z M4101 7737 c-11 -18 -31 -43 -45 -56 -36 -34
-34 -58 5 -66 28 -6 35 -3 70 36 21 24 43 55 51 68 11 20 10 25 -7 37 -30 22
-52 17 -74 -19z m49 -17 c0 -5 -5 -10 -11 -10 -5 0 -7 5 -4 10 3 6 8 10 11 10
2 0 4 -4 4 -10z M590 7709 c0 -5 3 -9 8 -9 4 -1 23 -23 42 -50 34 -49 60 -64
60 -36 0 8 -4 16 -8 18 -4 2 -20 19 -35 39 -26 35 -67 58 -67 38z M1032 7686
c-57 -24 -205 -124 -259 -176 -39 -36 -44 -75 -12 -85 12 -4 38 -21 58 -39 43
-37 98 -76 107 -76 4 0 14 -8 23 -18 9 -9 33 -30 54 -45 30 -23 36 -32 27 -42
-15 -17 2 -51 29 -60 13 -4 21 -19 26 -48 4 -23 14 -64 24 -92 25 -72 28 -191
6 -215 -20 -22 -23 -20 65 -44 50 -14 101 -20 139 -17 15 1 241 220 241 234 0
4 -12 13 -27 19 -53 23 -118 72 -190 142 -58 56 -70 73 -62 87 22 42 0 99 -39
99 -16 0 -24 9 -31 38 -18 66 -29 126 -36 190 -4 34 -11 62 -17 62 -5 0 -7 4
-4 8 7 12 -14 86 -28 94 -17 12 -36 8 -94 -16z m75 -48 c-3 -11 25 -186 50
-301 4 -24 0 -34 -26 -58 -31 -28 -51 -35 -64 -23 -3 3 6 16 20 28 24 21 24
23 9 39 -22 21 -44 22 -67 1 -18 -16 -49 -13 -49 4 0 5 23 19 51 31 49 21 50
23 36 44 -21 33 -43 32 -99 -2 -46 -29 -68 -32 -68 -11 0 4 21 16 48 26 70 26
107 49 107 65 0 21 -20 17 -52 -11 -15 -14 -36 -24 -46 -22 -10 2 -36 -8 -59
-23 -40 -26 -68 -27 -68 -3 0 8 46 38 103 67 92 48 163 98 153 108 -2 3 -33
-15 -68 -39 -35 -24 -84 -52 -108 -62 -68 -28 -79 -29 -37 -6 43 24 45 30 16
48 -16 11 -19 16 -10 25 9 9 16 6 30 -12 17 -22 19 -23 49 -7 17 9 34 20 37
26 3 5 14 10 24 10 9 0 32 16 51 35 36 37 45 43 37 23z m-277 -172 c0 -9 -30
-14 -35 -6 -4 6 3 10 14 10 12 0 21 -2 21 -4z m370 -256 c0 -5 -4 -12 -10 -15
-5 -3 -10 -4 -10 -1 0 2 -3 12 -6 20 -5 12 -2 15 10 10 9 -3 16 -10 16 -14z
m-70 -10 c0 -5 7 -10 16 -10 13 0 14 -3 4 -14 -9 -12 -17 -13 -36 -4 -18 9
-21 14 -13 25 13 15 29 17 29 3z m309 -215 c28 -16 51 -33 51 -36 0 -3 -15
-18 -32 -35 -18 -16 -25 -20 -15 -8 17 20 17 22 -2 45 l-19 24 -44 -40 c-24
-22 -54 -53 -65 -69 l-22 -29 -6 29 c-15 78 -49 185 -73 234 -15 30 -28 58
-30 62 -2 3 7 8 20 10 18 3 42 -15 104 -77 45 -44 105 -93 133 -110z m-287
111 c-6 -10 -20 20 -21 44 0 8 6 4 13 -10 8 -14 12 -29 8 -34z m44 -91 c18
-44 18 -66 0 -59 -14 6 -38 79 -28 89 9 9 13 6 28 -30z m34 -120 c0 -8 -9 -15
-19 -15 -29 0 -35 18 -9 23 13 2 24 5 26 6 1 0 2 -6 2 -14z m190 -9 c0 -2 -8
-10 -17 -17 -16 -13 -17 -12 -4 4 13 16 21 21 21 13z m-180 -65 c0 -4 -11 -6
-25 -3 -14 2 -25 6 -25 8 0 2 11 4 25 4 14 0 25 -4 25 -9z m101 -1 c6 0 7 -4
4 -10 -10 -16 -45 -12 -45 6 0 11 5 14 16 10 9 -3 20 -6 25 -6z M580 7657 c28
-48 76 -91 85 -77 4 6 0 19 -8 28 -59 69 -72 82 -83 82 -10 0 -8 -9 6 -33z
M4186 7628 c-55 -62 -56 -62 -33 -75 12 -7 29 -12 39 -13 16 0 72 50 99 89 14
21 14 21 39 1 l25 -19 -58 -56 c-57 -54 -58 -57 -41 -76 9 -10 22 -19 29 -19
6 0 44 34 84 75 61 63 71 78 61 90 -15 18 -41 19 -59 3 -11 -10 -14 -10 -18 0
-3 6 -9 12 -15 12 -6 0 -23 11 -40 25 -16 14 -35 25 -43 25 -7 0 -38 -28 -69
-62z m74 8 c0 -3 -4 -8 -10 -11 -5 -3 -10 -1 -10 4 0 6 5 11 10 11 6 0 10 -2
10 -4z M454 7639 c-9 -15 82 -139 103 -139 12 0 43 22 43 30 0 5 -24 34 -54
64 -53 55 -78 67 -92 45z M1915 7640 c-3 -5 -1 -10 4 -10 6 0 11 5 11 10 0 6
-2 10 -4 10 -3 0 -8 -4 -11 -10z M362 7558 c-13 -13 13 -56 61 -101 33 -30 54
-32 70 -6 8 13 0 26 -44 68 -57 53 -68 58 -87 39z M4399 7501 c-55 -51 -62
-62 -53 -78 21 -35 49 -27 98 30 48 57 55 77 32 96 -10 9 -27 -2 -77 -48z
M266 7464 c-15 -14 -10 -20 45 -66 48 -40 65 -49 77 -42 34 22 19 49 -52 98
-45 30 -49 31 -70 10z M4097 7454 c-3 -4 -4 -26 0 -51 5 -40 -4 -89 -27 -148
-5 -11 -16 -48 -27 -83 -14 -49 -24 -67 -45 -78 -27 -14 -33 -27 -29 -70 1
-15 -17 -35 -61 -70 -34 -27 -74 -55 -88 -61 -14 -7 -38 -21 -55 -31 -16 -10
-54 -27 -83 -37 -49 -18 -53 -21 -47 -45 3 -14 17 -46 31 -72 13 -26 24 -57
24 -68 0 -11 8 -23 18 -26 9 -3 26 -9 37 -14 11 -4 40 -13 65 -20 25 -7 55
-19 67 -26 30 -18 105 -44 113 -39 4 3 10 34 14 70 7 68 57 213 88 254 22 29
23 54 3 71 -13 11 -18 10 -29 -5 -18 -24 -40 -11 -26 16 13 24 35 24 66 0 37
-29 86 -6 96 44 3 19 138 105 166 105 6 0 39 17 72 38 79 48 77 62 -16 156
-113 114 -166 153 -248 181 -45 16 -69 19 -79 9z m66 -57 c-6 -32 90 -119 122
-111 13 3 27 -2 39 -14 9 -11 25 -18 35 -15 24 6 87 -65 72 -80 -7 -7 -27 1
-67 28 -31 22 -68 45 -83 53 -40 21 -131 93 -142 113 -15 28 -11 49 10 49 14
0 17 -6 14 -23z m77 -7 c0 -5 -2 -10 -4 -10 -3 0 -8 5 -11 10 -3 6 -1 10 4 10
6 0 11 -4 11 -10z m71 -57 c10 -12 5 -11 -18 6 -18 12 -33 24 -33 27 0 9 37
-15 51 -33z m-132 -32 c17 -16 70 -55 117 -87 46 -31 88 -62 91 -68 8 -12 -33
12 -85 51 -36 27 -59 27 -76 -1 -9 -15 -6 -22 18 -40 16 -11 41 -31 55 -43
l26 -23 -41 20 c-22 10 -46 26 -54 34 -17 22 -43 20 -66 -5 -17 -19 -17 -22
-3 -32 51 -39 71 -58 66 -63 -3 -3 -24 7 -46 22 l-42 27 -23 -22 -23 -22 -6
34 c-3 23 4 63 24 123 16 49 29 97 29 106 0 24 3 23 39 -11z m-129 -257 c0 -8
-4 -12 -10 -9 -5 3 -10 10 -10 16 0 5 5 9 10 9 6 0 10 -7 10 -16z m30 -54 c0
-5 -5 -10 -11 -10 -5 0 -7 5 -4 10 3 6 8 10 11 10 2 0 4 -4 4 -10z m-40 -20
c0 -5 -6 -7 -14 -4 -8 3 -19 -3 -25 -15 -7 -11 -22 -26 -35 -33 -45 -24 -216
-183 -216 -200 0 -43 74 -3 155 82 22 23 49 46 60 52 16 9 15 6 -5 -16 l-25
-28 28 -20 c31 -22 33 -41 12 -91 l-15 -35 -50 19 c-65 25 -85 24 -104 -3 -22
-30 -20 -35 12 -41 58 -12 132 -43 132 -56 0 -9 -6 -11 -17 -5 -10 4 -51 19
-91 32 -61 21 -71 28 -66 44 4 13 -1 21 -18 27 -34 13 -63 73 -49 100 7 11 18
21 26 21 8 0 41 16 74 35 32 19 62 35 65 35 3 0 36 25 73 55 65 52 93 66 93
45z M4479 7412 c-56 -52 -62 -82 -16 -82 26 0 107 70 107 93 0 14 -19 37 -31
37 -4 0 -31 -22 -60 -48z M161 7377 c-9 -11 2 -25 51 -66 l61 -52 21 21 21 20
-30 28 c-66 61 -102 75 -124 49z M4587 7330 c-72 -52 -85 -73 -55 -94 25 -18
33 -14 106 51 39 36 52 53 47 66 -11 27 -37 21 -98 -23z M447 7297 c-61 -34
-91 -59 -140 -118 -82 -99 -105 -142 -87 -163 7 -9 15 -14 17 -12 3 2 28 -9
56 -26 29 -17 59 -31 68 -32 21 -1 89 -39 89 -49 0 -4 4 -6 9 -2 5 3 37 -11
70 -30 34 -20 65 -34 70 -30 11 6 101 -94 101 -112 0 -6 6 -24 14 -40 8 -15
26 -75 39 -133 l24 -105 29 3 c140 12 167 18 178 37 6 11 20 34 32 50 11 17
35 57 54 90 18 33 40 68 48 77 7 9 11 22 7 28 -10 17 -69 40 -100 40 -55 0
-223 114 -277 188 -36 49 -60 103 -53 119 2 8 1 11 -5 8 -11 -7 -33 32 -25 45
3 6 2 10 -4 10 -11 0 -30 52 -36 98 -14 115 -53 128 -178 59z m125 -13 c12
-25 9 -29 -38 -73 -104 -95 -202 -171 -221 -171 -9 0 62 64 125 112 28 22 52
44 52 48 0 20 -39 14 -90 -14 l-55 -30 24 32 c28 40 147 118 184 121 4 1 13
-11 19 -25z m-50 -147 l-31 -32 24 -30 23 -30 34 33 c39 37 59 34 22 -3 -29
-29 -30 -46 -5 -69 18 -16 20 -16 33 3 14 20 15 20 37 -10 19 -25 21 -33 10
-40 -11 -6 -11 -13 -3 -27 11 -16 9 -18 -16 -14 -32 5 -51 -16 -26 -30 9 -5
16 -13 16 -18 0 -15 -28 -12 -37 4 -4 7 -23 21 -42 31 -31 16 -33 19 -18 30
23 16 21 38 -3 60 -20 18 -21 18 -49 -9 -19 -18 -33 -24 -46 -20 -15 6 -12 11
19 38 l36 31 -19 25 -19 24 -41 -29 c-23 -15 -46 -35 -50 -43 -8 -15 -31 -9
-31 8 0 6 21 21 48 34 26 13 72 47 102 74 60 55 82 61 32 9z m285 -297 c41
-33 91 -67 111 -75 69 -28 131 -60 132 -67 0 -5 -15 -25 -33 -45 -18 -21 -44
-55 -57 -75 -14 -21 -29 -38 -34 -38 -5 0 -7 3 -3 6 3 3 2 17 -3 30 -9 21 -7
24 16 24 14 0 27 7 31 18 4 9 15 23 25 30 22 16 24 55 3 72 -13 11 -20 9 -41
-11 -31 -29 -57 -76 -49 -89 3 -6 4 -10 2 -10 -3 0 -28 42 -57 93 -51 93 -124
182 -141 171 -5 -3 -9 -1 -9 5 0 8 12 17 29 20 1 1 37 -26 78 -59z m-56 -66
c11 -19 19 -40 17 -46 -5 -13 -48 48 -61 86 -6 16 -5 17 8 6 8 -7 24 -28 36
-46z m53 -117 c-15 -9 -34 -2 -34 13 0 13 34 17 42 6 4 -6 1 -14 -8 -19z m32
-70 c-10 -8 -16 -22 -14 -33 3 -16 11 -19 48 -16 57 4 42 -17 -17 -25 -36 -5
-41 -3 -46 18 -11 40 -8 57 11 62 32 9 36 7 18 -6z M73 7293 c-7 -2 -13 -11
-13 -19 0 -18 96 -114 113 -114 14 0 37 19 37 31 0 9 -61 72 -89 91 -28 19
-29 19 -48 11z M4703 7202 c-58 -24 -85 -50 -73 -72 18 -33 40 -31 83 5 22 19
45 35 49 35 13 0 6 43 -7 46 -5 2 -29 -5 -52 -14z M50 7171 c0 -47 27 -85 57
-79 39 7 24 51 -35 102 l-22 19 0 -42z M4790 7085 c-19 -14 -38 -25 -43 -25
-12 0 -36 -31 -37 -46 0 -6 13 -17 29 -24 27 -11 33 -9 70 21 46 36 58 63 41
84 -16 20 -21 19 -60 -10z M50 7050 c0 -19 11 -26 23 -14 8 8 -3 34 -14 34 -5
0 -9 -9 -9 -20z M4592 6948 c-20 -29 -54 -84 -74 -122 -20 -39 -45 -86 -54
-103 -11 -21 -25 -33 -38 -33 -30 -1 -64 -31 -68 -60 -3 -27 -44 -51 -178
-104 -55 -22 -167 -45 -179 -37 -8 6 -21 -25 -21 -52 0 -16 7 -30 15 -33 12
-5 13 -9 4 -21 -10 -11 -7 -17 12 -31 37 -25 146 -140 178 -186 28 -42 57 -50
74 -20 4 7 15 10 23 7 19 -7 34 13 34 44 0 12 6 37 14 55 8 18 22 52 31 74 9
23 40 67 68 97 48 52 55 56 89 52 30 -4 40 -1 52 17 8 12 13 25 10 30 -3 4 5
12 18 17 54 22 246 79 286 86 46 7 49 15 27 68 -16 38 -35 57 -35 35 0 -9 -3
-9 -10 2 -5 8 -7 23 -4 33 3 11 -1 20 -12 24 -10 4 -29 16 -42 27 -28 25 -81
93 -63 82 10 -7 11 -4 3 10 -16 29 -64 72 -95 83 -26 10 -29 8 -65 -41z m109
-5 c13 -15 12 -15 -9 -4 -18 10 -27 10 -38 0 -11 -9 -14 -8 -14 5 0 21 43 21
61 -1z m-53 -70 c5 -16 25 -46 45 -68 32 -36 34 -41 17 -47 -31 -11 -33 -28
-8 -56 48 -53 51 -66 6 -24 -46 45 -80 52 -86 21 -2 -9 9 -30 23 -48 15 -17
24 -31 20 -31 -3 0 -16 12 -29 27 l-23 27 -29 -19 c-16 -11 -33 -18 -38 -17
-4 2 -15 -3 -22 -9 -11 -9 -18 -9 -26 -1 -7 7 7 46 52 135 77 157 80 160 98
110z m91 -49 c17 -28 25 -34 42 -29 18 6 20 4 15 -13 -7 -22 16 -52 39 -52 14
0 45 -48 45 -70 0 -18 -77 48 -107 92 -16 22 -38 52 -50 68 -25 30 -28 40 -14
40 5 0 18 -16 30 -36z m-304 -194 c-10 -11 -20 -18 -23 -15 -7 6 18 35 31 35
5 0 2 -9 -8 -20z m45 -40 c0 -5 -5 -10 -11 -10 -5 0 -7 5 -4 10 3 6 8 10 11
10 2 0 4 -4 4 -10z m-30 -65 c-7 -8 -18 -15 -24 -15 -6 0 -2 7 8 15 25 19 32
19 16 0z m-181 -29 c-8 -8 -207 -86 -219 -86 -6 0 -10 7 -8 17 2 12 29 23 97
39 51 13 96 26 99 29 3 3 12 5 20 5 9 0 13 -2 11 -4z m69 -32 c-31 -16 -34
-25 -16 -53 9 -15 8 -24 -4 -43 -8 -13 -19 -38 -22 -56 -4 -17 -11 -32 -14
-31 -14 1 -102 129 -90 129 7 0 45 16 83 35 69 34 117 49 63 19z m-201 -86
c-4 -14 107 -164 126 -171 7 -2 8 -8 4 -13 -5 -5 -22 9 -40 31 -17 22 -55 64
-84 93 -51 51 -52 53 -31 62 31 12 30 12 25 -2z M2369 6970 c-10 -6 -15 -20
-13 -36 1 -15 5 -68 9 -118 4 -50 10 -95 15 -99 19 -21 56 19 51 55 0 4 -2 52
-3 107 -2 95 -3 101 -22 101 -12 0 -28 -5 -37 -10z M2491 6966 c-9 -11 -10
-20 -2 -35 6 -11 14 -46 16 -78 6 -63 14 -77 41 -71 14 2 20 15 24 43 6 47 -9
137 -24 147 -18 12 -43 9 -55 -6z M2014 6945 c-17 -11 -18 -22 -12 -96 8 -110
20 -164 36 -163 6 1 18 2 26 3 23 2 27 32 11 91 -8 30 -15 80 -15 111 0 62
-13 77 -46 54z M2285 6947 c-15 -11 -18 -29 -20 -96 -2 -89 5 -102 44 -81 19
10 21 20 21 100 0 95 -6 105 -45 77z M2619 6953 c-5 -39 5 -191 14 -201 5 -7
20 -12 31 -10 26 4 39 68 30 150 -5 46 -9 57 -27 62 -30 8 -47 7 -48 -1z
M4858 6925 c-27 -20 -48 -39 -48 -45 0 -5 10 -16 21 -24 19 -13 26 -13 48 -1
14 7 37 25 50 39 24 25 24 26 6 46 -10 11 -21 20 -24 20 -3 0 -27 -16 -53 -35z
M2175 6935 c-15 -12 -19 -28 -20 -68 0 -45 3 -52 21 -55 32 -5 45 20 42 79 -3
57 -12 66 -43 44z M2751 6863 c1 -130 5 -143 39 -143 27 0 28 3 35 58 6 54 0
146 -11 164 -3 4 -18 8 -34 8 l-29 0 0 -87z M2090 6927 c-10 -7 -16 -27 -15
-52 0 -34 4 -41 22 -43 17 -3 26 4 33 24 23 58 -2 102 -40 71z M1910 6910
c-13 -8 -13 -14 0 -52 12 -35 20 -44 43 -46 24 -3 27 0 27 27 0 64 -31 96 -70
71z M136 6893 c-3 -3 -17 -7 -31 -9 -54 -5 -69 -49 -43 -121 18 -49 43 -43 75
20 l27 52 7 -41 c4 -23 22 -68 39 -100 49 -91 63 -139 48 -163 -6 -11 -19 -22
-28 -25 -8 -3 -22 -9 -30 -12 -11 -5 -11 -2 3 13 22 25 22 36 -4 59 -21 19
-21 18 -45 -9 -13 -16 -24 -35 -24 -43 0 -14 -21 -19 -33 -8 -9 9 54 94 70 94
17 0 -2 32 -29 49 -17 10 -24 7 -54 -26 -33 -36 -35 -41 -32 -103 l3 -65 41 0
c43 0 74 -18 74 -42 0 -8 4 -12 9 -9 21 13 71 -20 96 -64 15 -25 37 -63 51
-85 13 -22 34 -71 45 -110 12 -38 25 -73 30 -76 20 -12 107 -9 139 5 67 30 94
64 193 246 l28 52 -21 23 c-14 15 -38 25 -73 29 -51 7 -132 29 -172 46 -11 5
-42 18 -70 28 -36 13 -50 23 -51 37 -2 38 -4 42 -39 61 -19 10 -34 23 -32 29
2 5 -9 32 -25 59 -16 26 -27 51 -24 54 3 3 -3 13 -15 22 -11 10 -19 22 -17 26
1 5 -6 28 -16 51 -18 38 -56 69 -70 56z m-16 -38 c-35 -20 -62 -19 -36 0 11 8
29 15 40 15 19 -1 19 -2 -4 -15z m281 -401 c65 -30 178 -64 216 -64 16 0 37
-6 46 -12 15 -12 14 -17 -15 -63 -17 -27 -46 -67 -64 -87 -18 -20 -40 -50 -49
-67 -8 -17 -25 -36 -38 -42 -20 -11 -21 -11 -8 4 11 14 11 22 -3 51 -9 19 -16
40 -16 47 0 12 -19 44 -72 122 -16 24 -17 28 -3 33 8 3 15 12 15 19 0 19 -35
46 -52 40 -19 -8 -52 30 -44 51 5 13 9 14 22 4 8 -7 37 -24 65 -36z m-153 -2
c2 -7 -2 -10 -12 -6 -9 3 -16 11 -16 16 0 13 23 5 28 -10z m164 -234 c30 -60
43 -108 30 -108 -5 0 -17 26 -26 58 -9 32 -23 67 -31 78 -16 21 -20 38 -7 30
4 -3 20 -29 34 -58z M476 6348 c-14 -19 -16 -19 -22 -5 -8 22 -34 22 -34 0 1
-28 56 -87 74 -80 27 10 41 53 28 82 -14 31 -26 32 -46 3z M566 6329 c-10 -16
-31 -44 -47 -60 -33 -34 -34 -38 -15 -65 14 -18 16 -18 56 21 59 57 73 86 54
114 -20 28 -26 27 -48 -10z M2900 6828 c-6 -40 -13 -77 -14 -83 -6 -19 15 -45
35 -45 24 0 44 42 54 118 8 59 -3 82 -40 82 -21 0 -24 -7 -35 -72z M1637 6877
c-17 -12 -17 -16 -3 -52 8 -22 22 -69 31 -105 20 -78 29 -90 65 -90 33 0 42
17 24 46 -8 11 -26 63 -42 115 -28 97 -41 112 -75 86z M1763 6883 c-25 -10 -2
-103 25 -103 39 0 52 37 30 85 -11 24 -28 30 -55 18z M3052 6858 c-15 -19 -34
-170 -23 -181 16 -16 52 4 66 36 7 18 15 56 19 85 6 50 5 53 -19 62 -33 12
-30 13 -43 -2z M3187 6843 c-11 -19 -47 -153 -47 -175 0 -19 6 -27 25 -30 14
-3 29 0 33 6 11 14 52 155 52 177 0 21 -53 38 -63 22z M1523 6823 c-38 -15 17
-91 56 -78 25 8 27 32 5 63 -14 21 -35 26 -61 15z M3279 6773 c-21 -53 -49
-138 -49 -149 0 -7 10 -14 23 -18 31 -8 50 16 81 101 25 71 25 73 6 83 -31 17
-50 11 -61 -17z M4905 6780 c-17 -19 -17 -20 6 -39 34 -29 39 -26 39 19 0 45
-16 52 -45 20z M1435 6756 c-17 -12 -17 -16 -5 -31 8 -9 21 -38 30 -63 18 -53
41 -72 68 -56 21 14 18 43 -10 104 -28 62 -47 73 -83 46z M126 6735 c-3 -8
-12 -15 -20 -15 -20 0 -56 -53 -56 -82 1 -22 2 -21 30 12 39 45 72 100 61 100
-5 0 -11 -7 -15 -15z M3366 6698 c-36 -83 -40 -108 -19 -124 30 -22 39 -17 70
49 53 109 52 126 -5 127 -18 0 -28 -11 -46 -52z M1353 6702 c-23 -17 -23 -17
-5 -62 25 -64 58 -124 76 -139 17 -14 56 1 56 22 0 22 -84 197 -95 197 -5 0
-20 -8 -32 -18z M1148 6676 c-25 -18 -23 -28 17 -102 19 -35 35 -69 35 -75 0
-18 40 -69 54 -69 7 0 21 6 31 14 18 13 16 19 -38 130 -32 64 -63 116 -70 116
-6 0 -20 -7 -29 -14z M1248 6679 c-24 -13 -23 -22 7 -69 28 -44 32 -46 59 -25
17 13 17 18 6 47 -12 30 -36 58 -49 58 -3 0 -14 -5 -23 -11z M3483 6643 c-30
-44 -52 -99 -45 -110 4 -6 17 -13 28 -17 17 -5 28 1 49 26 37 43 59 93 52 112
-11 27 -63 20 -84 -11z M3586 6543 c-44 -69 -44 -97 -1 -100 27 -3 34 4 68 55
42 67 44 77 18 92 -35 18 -47 11 -85 -47z M4824 6577 c-11 -7 -36 -24 -56 -39
-19 -16 -42 -28 -50 -28 -14 0 -48 -30 -48 -43 0 -15 44 -45 58 -40 10 4 13 2
8 -5 -9 -15 24 -4 39 12 6 6 38 35 73 64 34 30 62 57 62 61 0 8 -45 31 -58 31
-4 -1 -16 -6 -28 -13z M1078 6563 c-18 -21 -13 -38 25 -82 21 -26 33 -32 51
-27 37 9 37 29 3 79 -34 50 -55 57 -79 30z M3695 6479 c-52 -79 -74 -128 -61
-137 31 -24 46 -21 80 21 36 45 76 107 76 119 0 7 -52 38 -63 38 -2 0 -17 -18
-32 -41z M4883 6494 c-48 -29 -127 -118 -120 -137 3 -6 18 -20 34 -29 30 -17
30 -17 44 10 8 15 21 32 29 38 57 44 81 76 78 106 -4 40 -13 42 -65 12z M982
6448 c-7 -7 -12 -17 -12 -23 0 -16 107 -115 124 -115 42 0 20 65 -39 118 -40
35 -54 39 -73 20z M4500 6369 c-41 -38 -74 -75 -72 -82 1 -8 -7 -13 -20 -13
-34 1 -36 -32 -2 -44 35 -14 58 -5 51 19 -3 14 -1 18 9 14 8 -3 33 12 57 33
23 22 59 53 80 70 39 33 47 58 21 68 -33 13 -51 3 -124 -65z M3789 6380 c-56
-58 -65 -111 -20 -123 17 -4 32 7 71 56 28 34 50 68 50 75 0 10 -38 32 -57 32
-3 0 -23 -18 -44 -40z M801 6381 c-9 -15 2 -31 64 -95 52 -54 80 -76 98 -76
44 0 43 31 -2 68 -23 19 -41 38 -41 44 0 6 9 3 20 -7 16 -15 22 -15 35 -5 31
26 11 70 -33 70 -15 0 -26 -7 -29 -20 -7 -26 -10 -25 -40 10 -28 34 -58 39
-72 11z M4898 6348 c-45 -42 -81 -110 -55 -105 7 1 11 -3 10 -8 -4 -22 46 -9
71 18 21 23 26 38 26 83 0 29 -1 54 -3 54 -1 0 -23 -19 -49 -42z M172 6318 c3
-7 17 -14 32 -16 20 -3 27 0 24 10 -3 7 -17 14 -32 16 -20 3 -27 0 -24 -10z
M4585 6297 c-17 -12 -40 -31 -52 -42 -12 -11 -33 -28 -48 -38 -32 -23 -31 -60
2 -65 15 -2 47 17 100 59 95 75 103 86 68 99 -34 13 -35 13 -70 -13z M3892
6257 c-49 -50 -55 -83 -17 -93 33 -8 68 15 101 67 20 32 23 43 13 55 -21 25
-53 15 -97 -29z M756 6265 c-20 -21 -13 -33 45 -78 64 -49 73 -52 94 -30 17
17 15 20 -41 70 -64 57 -74 61 -98 38z M79 6224 c-11 -14 -7 -20 27 -49 21
-19 61 -46 88 -60 49 -25 50 -26 69 -7 18 19 18 20 -54 76 -75 58 -107 68
-130 40z M3985 6189 c-68 -60 -79 -119 -22 -119 17 0 126 104 127 121 0 7 -46
29 -60 29 -5 0 -25 -14 -45 -31z M4586 6169 c-69 -53 -81 -80 -47 -99 11 -5
22 -10 25 -10 4 0 112 86 141 112 10 9 -27 48 -45 48 -4 0 -37 -23 -74 -51z
M4928 6193 c-16 -19 -13 -39 9 -61 11 -11 13 -6 13 32 0 25 -2 46 -3 46 -2 0
-11 -8 -19 -17z M707 6172 c-24 -27 -21 -34 26 -64 61 -38 89 -43 111 -19 19
21 14 41 -10 41 -8 0 -33 14 -56 30 -48 35 -50 36 -71 12z M50 6123 c0 -38 3
-41 62 -76 69 -41 89 -45 109 -21 12 14 10 19 -10 33 -13 9 -34 26 -48 39 -13
12 -29 22 -35 22 -6 0 -26 9 -44 21 l-34 21 0 -39z M4650 6071 c-61 -56 -64
-60 -48 -76 23 -25 55 -14 122 42 59 50 68 67 39 76 -10 2 -25 8 -33 11 -10 4
-38 -14 -80 -53z M655 6080 c-17 -19 -17 -21 0 -40 10 -11 37 -29 60 -40 83
-40 102 10 25 66 -54 39 -61 40 -85 14z M4082 6064 c-48 -41 -52 -57 -18 -79
27 -18 39 -12 98 50 l29 30 -22 18 c-30 24 -40 22 -87 -19z M4750 6009 c-25
-23 -55 -50 -67 -61 -28 -25 -29 -44 -2 -58 17 -9 29 -6 69 20 46 30 100 88
100 108 0 5 -8 12 -17 16 -10 3 -22 8 -28 11 -5 2 -30 -14 -55 -36z M50 6006
c0 -29 6 -40 37 -61 21 -14 42 -25 47 -25 5 0 17 -7 26 -15 15 -14 19 -13 34
4 22 24 16 35 -32 61 -20 11 -54 31 -74 45 l-38 25 0 -34z M519 6024 c-11 -14
-9 -19 11 -35 41 -32 170 -91 185 -85 36 14 11 57 -50 88 -16 8 -43 23 -60 32
-38 20 -69 20 -86 0z M4242 6015 c-17 -14 -34 -26 -37 -26 -16 2 -23 -2 -57
-34 -45 -40 -46 -49 -13 -71 23 -15 26 -15 56 10 17 14 36 26 43 26 7 0 22 10
33 23 11 12 30 30 42 40 29 23 23 51 -10 55 -17 2 -37 -6 -57 -23z M4345 5955
c-69 -33 -127 -76 -144 -107 -14 -24 -14 -29 3 -47 15 -17 16 -23 6 -36 -28
-33 4 -12 51 35 28 28 73 62 101 76 48 24 75 62 64 91 -7 18 -23 16 -81 -12z
M445 5940 c-10 -11 -16 -22 -14 -24 15 -14 132 -66 148 -66 11 0 23 -5 26 -11
8 -12 45 17 45 36 0 7 -21 20 -47 30 -27 10 -62 26 -79 36 -40 24 -57 24 -79
-1z M4855 5927 c-47 -27 -115 -91 -115 -108 0 -17 27 -39 48 -39 11 0 145 108
150 121 3 7 -51 41 -60 38 -2 -1 -12 -6 -23 -12z M50 5867 c0 -26 5 -35 28
-44 15 -7 36 -19 48 -28 18 -13 23 -13 40 -1 27 21 10 44 -56 79 -30 15 -55
27 -57 27 -2 0 -3 -15 -3 -33z M346 5848 c-22 -31 -20 -38 8 -38 28 0 91 -25
128 -51 35 -25 46 -24 54 6 9 35 -7 50 -84 79 -82 32 -87 32 -106 4z M4442
5856 c-19 -7 -37 -18 -41 -25 -4 -7 -12 -11 -18 -9 -11 3 -88 -73 -103 -102
-10 -18 13 -60 32 -60 6 0 34 24 62 54 28 29 62 56 74 61 14 4 30 22 38 41 24
58 19 62 -44 40z M4871 5770 c-64 -53 -74 -77 -41 -98 18 -11 27 -8 70 20 48
32 50 34 50 80 0 27 -4 48 -9 48 -6 0 -37 -23 -70 -50z M50 5730 c0 -36 3 -40
24 -40 45 0 41 46 -6 71 -16 9 -18 5 -18 -31z M238 5754 c-21 -20 -7 -43 30
-50 20 -4 65 -20 100 -36 67 -31 92 -27 92 13 0 35 -196 100 -222 73z M4455
5727 c-8 -4 -15 -15 -15 -23 0 -8 -16 -24 -35 -35 -39 -23 -44 -47 -17 -72 24
-22 35 -21 57 3 10 11 24 20 31 20 7 0 14 4 16 10 2 5 23 20 48 32 35 18 45
28 45 48 0 24 -3 25 -58 25 -31 1 -64 -3 -72 -8z M4897 5646 c-39 -36 -43 -46
-26 -63 8 -8 8 -17 -1 -33 -14 -26 -9 -24 42 10 35 23 38 29 38 73 0 26 -4 47
-8 47 -4 0 -25 -15 -45 -34z M193 5639 c-7 -7 -13 -18 -13 -25 0 -12 79 -49
87 -40 3 2 23 -2 45 -10 37 -13 43 -13 59 2 38 34 -9 66 -116 79 -35 5 -54 3
-62 -6z M50 5615 c0 -15 4 -24 10 -20 13 8 13 32 0 40 -6 4 -10 -5 -10 -20z
M4518 5592 c-7 -10 -25 -22 -40 -25 -34 -9 -46 -42 -22 -68 22 -24 24 -24 65
4 19 12 49 24 68 25 19 1 38 5 42 8 17 10 9 53 -10 64 -32 17 -88 12 -103 -8z
M170 5534 c-14 -35 7 -66 63 -98 l38 -21 19 24 c34 40 26 67 -22 76 -13 3 -28
11 -33 18 -6 8 -20 17 -33 21 -18 6 -24 2 -32 -20z M4927 5523 c-4 -3 -7 -20
-7 -38 0 -17 -5 -36 -12 -43 -16 -16 -7 -22 20 -15 19 5 22 12 22 54 0 46 -7
59 -23 42z M4649 5505 c-3 -2 -22 -6 -43 -8 -20 -3 -42 -9 -49 -16 -6 -6 -19
-11 -29 -11 -20 0 -46 -47 -41 -72 6 -23 41 -23 72 -1 13 9 35 17 49 19 14 1
36 8 49 15 27 15 32 45 6 34 -44 -19 -65 -15 -25 4 24 11 41 25 37 31 -7 11
-19 13 -26 5z M163 5421 c-6 -3 -14 -20 -17 -38 -6 -26 -3 -34 12 -44 18 -12
19 -15 5 -35 -23 -36 -13 -68 21 -72 16 -2 32 2 37 10 14 21 10 56 -7 66 -13
7 -10 10 15 15 24 5 31 12 31 29 0 13 -4 28 -8 34 -10 17 -77 43 -89 35z
M4615 5378 c-11 -7 -29 -12 -40 -13 -17 0 -20 -7 -20 -40 0 -34 3 -40 20 -37
11 2 31 4 45 6 30 3 68 25 75 45 4 10 -1 12 -25 8 -39 -8 -39 1 0 14 16 6 27
15 24 20 -7 13 -55 11 -79 -3z M4927 5336 c-19 -29 -12 -52 11 -37 8 5 12 21
10 37 l-3 28 -18 -28z M4650 5275 c-27 -15 -47 -25 -67 -31 -16 -4 -17 -60 -3
-69 6 -4 21 0 33 8 12 7 35 17 52 21 33 8 55 23 55 38 0 10 -17 8 -52 -7 -11
-4 -18 -3 -18 3 0 6 16 14 35 18 37 7 45 18 19 28 -22 8 -26 8 -54 -9z M4936
5242 c-4 -13 -5 -26 -2 -29 10 -11 18 4 14 29 l-4 23 -8 -23z M171 5201 c-6
-11 -11 -31 -11 -45 0 -21 5 -26 25 -26 30 0 42 22 29 58 -12 33 -30 38 -43
13z M4678 5187 c-51 -22 -102 -117 -64 -117 8 0 29 12 47 27 19 16 42 26 55
25 15 -2 27 4 34 19 12 21 11 22 -29 15 -46 -7 -54 0 -16 14 26 10 35 30 13
30 -7 -1 -25 -6 -40 -13z M176 5063 c-9 -10 -7 -61 3 -67 7 -5 31 42 31 59 0
7 -29 13 -34 8z M4677 5051 c-20 -4 -33 -16 -42 -38 -14 -33 -14 -33 14 -33
16 0 34 6 41 14 6 8 17 13 25 10 7 -3 16 -1 20 5 3 6 -1 14 -10 17 -12 5 -13
9 -4 20 13 16 6 16 -44 5z M168 4930 c-3 -19 0 -30 8 -30 12 0 24 22 24 46 0
27 -28 14 -32 -16z M4616 4928 c-21 -42 -20 -48 8 -48 32 0 50 24 42 55 -9 34
-31 31 -50 -7z M4641 4848 c-14 -41 -14 -48 4 -48 8 0 21 13 30 30 14 27 14
30 -4 39 -16 9 -21 6 -30 -21z M605 3881 c-3 -11 -3 -31 1 -45 5 -22 3 -26
-15 -26 -24 0 -93 33 -129 61 -18 14 -29 16 -52 8 -29 -11 -48 -38 -32 -48 5
-3 12 -16 16 -28 10 -32 106 -121 144 -134 27 -9 32 -15 32 -42 0 -18 8 -48
18 -67 13 -28 22 -34 42 -32 19 2 22 0 12 -10 -22 -22 -14 -77 16 -106 27 -27
45 -50 83 -109 11 -17 41 -48 66 -69 36 -29 47 -34 54 -23 6 10 9 11 9 1 0 -7
26 -37 57 -68 47 -45 61 -54 83 -49 26 6 26 4 49 -97 12 -57 33 -136 47 -176
20 -57 23 -77 13 -88 -15 -18 -26 -10 -43 31 -20 47 -58 64 -122 56 l-52 -7 5
35 c4 30 -2 46 -34 91 -37 52 -41 55 -87 58 -49 3 -100 27 -91 42 9 14 -15 23
-61 22 -60 -2 -79 -17 -99 -80 l-17 -54 -33 32 c-32 31 -95 50 -95 28 0 -4 -4
-8 -9 -8 -5 0 -9 18 -9 40 -1 38 1 40 29 40 78 0 135 60 143 150 4 43 -16 70
-65 89 -20 7 -28 19 -33 49 -7 49 -25 65 -79 67 -23 1 -46 3 -52 5 -27 7 -58
-2 -81 -25 -21 -21 -24 -32 -22 -77 l3 -53 -39 -10 c-68 -17 -69 -34 -11 -135
8 -14 16 -28 17 -33 3 -7 23 -13 88 -26 20 -4 36 -13 38 -22 4 -22 -24 -49
-51 -49 -12 -1 -33 -7 -47 -15 -33 -19 -40 -18 -40 3 0 9 -11 29 -25 44 -14
15 -25 39 -25 53 0 40 -18 65 -46 65 -25 0 -25 -1 -23 -80 1 -43 4 -79 8 -78
34 4 39 -2 28 -37 -8 -27 -13 -32 -24 -24 -11 9 -13 -5 -13 -84 0 -77 3 -96
16 -101 24 -9 31 -7 14 4 -13 9 -13 11 0 20 8 6 23 8 33 6 9 -2 17 1 18 7 3
42 11 58 55 104 47 50 95 75 108 55 3 -5 -3 -12 -13 -15 -11 -2 -24 -13 -30
-24 -8 -17 -6 -24 16 -43 19 -16 24 -18 20 -6 -4 9 -2 16 4 16 6 0 26 12 45
26 25 20 34 34 34 56 l0 30 39 -31 c21 -17 44 -43 50 -58 6 -16 24 -35 40 -45
16 -9 38 -29 48 -45 31 -48 84 -93 124 -103 50 -14 50 -22 2 -16 -57 7 -85 -2
-81 -28 2 -14 9 -20 23 -19 11 1 38 -3 60 -8 55 -14 108 -11 118 7 5 8 12 12
16 10 4 -3 25 1 47 9 29 10 44 10 59 2 11 -6 35 -10 53 -8 18 1 32 -3 32 -9 0
-7 15 -10 38 -8 32 3 37 7 40 30 3 29 31 46 43 26 5 -8 0 -21 -12 -34 -11 -11
-22 -37 -24 -56 -3 -20 -9 -48 -15 -64 -6 -16 -10 -44 -8 -63 2 -30 0 -35 -22
-37 -14 -1 -56 -7 -95 -13 -201 -30 -395 -43 -414 -27 -11 8 -13 8 -8 0 4 -7
-3 -14 -18 -18 -14 -4 -24 -12 -22 -18 2 -14 -62 -25 -140 -24 -29 1 -53 -3
-53 -7 0 -5 -3 -6 -7 -4 -5 3 -53 -2 -108 -9 -55 -7 -106 -13 -112 -14 -9 0
-13 -17 -13 -52 0 -49 2 -53 24 -53 13 0 22 5 19 11 -2 6 3 18 11 27 12 11 13
16 3 20 -6 2 13 7 42 10 35 4 59 2 68 -5 11 -9 12 -7 6 7 -5 15 -3 17 13 11
10 -5 25 -7 32 -6 6 1 34 3 61 3 27 1 48 4 46 8 -7 11 70 7 84 -4 12 -9 13 -9
7 1 -5 8 1 12 23 12 19 0 35 8 45 21 9 14 21 19 31 15 9 -3 13 -2 10 4 -3 6 3
10 15 10 12 0 19 -4 15 -9 -3 -6 9 -6 30 0 19 6 58 12 87 15 29 3 74 8 101 11
46 5 53 0 48 -30 -1 -4 8 -2 19 5 10 7 15 15 10 18 -6 4 26 13 71 22 80 15 81
15 75 -6 -3 -12 -6 -24 -6 -28 0 -5 -10 -8 -22 -8 -38 0 -171 -30 -186 -42 -7
-6 -11 -16 -9 -22 2 -6 -6 -23 -19 -38 -14 -17 -20 -35 -17 -48 5 -18 0 -20
-53 -22 -33 0 -63 -2 -69 -3 -5 -1 -41 -5 -80 -9 -86 -10 -165 -35 -178 -57
-7 -12 -6 -26 3 -48 10 -26 18 -31 46 -31 18 0 35 -4 38 -9 12 -19 -23 -30
-109 -36 -50 -3 -101 -8 -115 -10 -14 -2 -54 -9 -90 -14 -146 -24 -130 -15
-130 -76 0 -60 15 -72 31 -26 11 31 32 40 108 47 24 3 47 6 51 9 4 3 52 7 106
10 55 4 110 9 124 12 14 4 29 5 34 4 5 -1 12 2 15 6 3 4 15 13 26 19 11 6 24
23 29 37 12 32 -14 67 -50 67 -32 0 -54 10 -54 26 0 17 67 29 235 41 106 7
145 24 145 64 0 17 9 32 25 43 14 9 24 21 22 27 -1 6 21 17 48 24 74 19 85 16
85 -17 0 -17 8 -33 19 -40 10 -6 17 -17 14 -23 -2 -7 10 -24 27 -39 17 -14 29
-30 25 -35 -3 -6 3 -15 14 -20 12 -7 26 -32 34 -63 8 -29 31 -110 51 -180 20
-70 36 -129 36 -130 0 -4 -395 -2 -471 1 -31 2 -66 -2 -77 -8 -11 -6 -23 -7
-26 -3 -3 5 -28 10 -57 11 -28 1 -56 4 -60 7 -5 3 -9 1 -9 -3 0 -5 -26 -7 -57
-6 -66 2 -349 5 -405 4 -37 -1 -38 -2 -38 -40 l0 -40 325 2 325 2 0 23 c0 12
5 22 10 22 6 0 10 -9 10 -20 0 -11 1 -20 3 -20 1 0 74 -3 162 -5 88 -3 206 -8
261 -11 l102 -6 7 -53 c3 -30 13 -59 20 -65 12 -10 10 -15 -12 -34 -20 -18
-25 -28 -19 -49 6 -26 27 -52 46 -59 6 -2 18 -50 27 -106 l16 -103 -33 -34
c-27 -28 -38 -32 -64 -28 -34 5 -86 -26 -86 -53 0 -8 -5 -14 -12 -14 -6 0 1
-14 17 -30 26 -27 36 -31 80 -30 56 1 152 -12 235 -30 l54 -13 31 36 c25 31
38 37 85 43 82 10 92 18 84 62 -4 22 -20 51 -41 74 l-35 36 6 84 c3 45 6 91 6
101 1 9 12 28 26 42 31 31 31 71 0 104 -17 19 -25 42 -29 84 l-6 58 31 -3 c32
-3 44 -23 68 -116 9 -34 17 -45 44 -56 37 -15 32 1 69 -216 21 -121 23 -125
48 -128 15 -2 44 -19 65 -38 43 -38 97 -53 125 -35 25 15 29 14 29 -8 0 -21
57 -81 76 -81 7 0 39 -13 71 -30 73 -38 115 -39 134 -4 7 15 12 37 11 49 -3
22 -1 22 40 13 24 -6 66 -19 93 -29 28 -10 64 -18 80 -17 28 1 44 -1 138 -18
32 -6 37 -4 37 13 0 10 -6 25 -12 32 -11 10 -5 11 27 5 22 -4 49 -10 60 -14
18 -7 19 -9 3 -15 -24 -10 -22 -20 6 -33 19 -9 27 -8 37 4 9 11 9 18 -4 32
-11 12 -13 22 -6 35 7 12 7 22 -1 32 -14 17 6 25 38 14 12 -5 22 -7 22 -6 0 2
26 -21 57 -50 91 -85 125 -55 52 44 -24 32 -44 60 -46 62 -2 2 -20 7 -40 10
-34 6 -38 10 -38 36 0 25 -8 34 -65 67 -36 21 -72 38 -80 38 -9 0 -31 13 -50
29 -19 15 -56 37 -81 48 -55 24 -64 36 -48 60 9 15 7 26 -10 56 -11 20 -27 68
-35 105 -8 37 -17 79 -21 94 -6 24 -4 27 28 33 56 11 647 -2 690 -15 20 -6 41
-9 46 -5 5 3 23 -6 39 -20 17 -14 43 -25 59 -25 27 0 30 -3 41 -58 17 -82 16
-85 -28 -129 l-39 -40 4 -81 c2 -45 -1 -84 -6 -88 -5 -3 -9 -16 -9 -28 0 -13
-7 -29 -15 -36 -32 -26 -7 -58 80 -102 48 -24 156 -43 170 -30 4 4 14 7 22 7
34 0 20 36 -33 84 l-55 48 11 46 c16 75 30 98 54 91 12 -3 26 -13 31 -22 17
-27 59 -64 83 -73 35 -14 102 -11 108 4 7 18 -30 101 -56 127 -16 16 -21 31
-18 51 5 31 -1 36 -20 17 -19 -19 -14 -54 12 -85 13 -15 27 -39 31 -51 6 -22
5 -23 -17 -17 -12 4 -32 19 -43 33 -11 15 -32 39 -46 54 -15 15 -23 28 -18 30
5 2 11 17 13 33 8 57 16 67 48 60 17 -4 35 -2 43 5 12 10 15 9 15 -3 0 -8 -6
-17 -12 -20 -7 -2 -9 -8 -5 -13 14 -15 40 11 52 51 6 22 19 56 27 75 9 19 25
55 36 80 17 40 23 45 54 47 32 3 36 0 48 -36 11 -33 10 -44 -4 -71 -8 -18 -14
-36 -11 -40 2 -4 -9 -20 -25 -35 -42 -40 -38 -59 16 -86 l47 -22 84 44 85 43
26 -31 c15 -17 35 -33 45 -36 9 -4 17 -13 17 -22 0 -9 7 -30 17 -48 18 -35 24
-135 12 -181 -18 -62 47 -77 111 -26 38 30 67 88 57 114 -3 7 -1 34 5 60 8 38
7 51 -6 70 -25 38 -11 92 31 117 70 43 99 91 83 134 -11 30 -26 28 198 25
l162 -2 0 36 c0 36 -1 36 -42 37 -63 1 -173 6 -173 8 0 1 -40 3 -88 5 -48 2
-93 8 -100 15 -13 13 -31 15 -22 2 3 -5 1 -12 -5 -16 -5 -3 -10 3 -10 14 0 26
-15 34 -46 27 -23 -6 -24 -10 -19 -48 8 -54 31 -97 64 -125 14 -11 24 -23 21
-25 -3 -3 -26 -19 -51 -37 -43 -30 -50 -32 -105 -26 -32 3 -70 6 -83 5 -13 0
-31 6 -39 12 -13 10 -14 10 -8 1 15 -26 -16 -12 -75 34 -55 43 -119 120 -119
144 0 5 -5 17 -11 27 -9 14 -7 27 10 60 11 23 21 48 21 56 0 22 39 41 53 27 6
-6 25 -11 43 -11 17 0 37 -7 44 -15 7 -8 17 -15 23 -15 5 0 0 8 -11 19 -24 20
-29 36 -9 28 7 -3 13 3 13 13 0 10 -3 18 -6 17 -7 -3 -10 9 -10 42 0 41 28 47
86 22 26 -12 63 -21 83 -21 22 0 31 -3 23 -8 -9 -6 -11 -26 -7 -73 7 -74 30
-108 62 -91 17 9 19 20 16 78 -3 60 -1 69 22 90 14 13 25 30 25 40 0 11 5 14
16 10 13 -5 14 -3 7 6 -6 7 -9 40 -8 73 2 59 3 60 29 57 15 -2 38 3 51 12 19
12 23 24 23 61 0 42 -1 45 -26 45 l-27 0 24 13 c32 16 38 37 12 44 -12 3 -21
12 -21 19 0 8 -4 14 -8 14 -5 0 -19 9 -32 20 -13 11 -28 20 -34 20 -6 0 -16 8
-23 19 -7 10 -34 24 -62 31 -47 11 -53 10 -120 -21 -73 -34 -78 -40 -73 -101
1 -10 -3 -18 -8 -18 -16 0 -12 -57 5 -64 8 -3 15 -11 15 -17 0 -8 -4 -8 -15 1
-21 18 -77 4 -105 -25 -31 -33 -20 -41 31 -21 22 9 51 14 63 11 17 -5 18 -4 6
5 -12 10 -11 11 8 7 12 -3 22 0 22 6 0 6 7 1 16 -11 8 -12 21 -22 28 -22 8 0
19 -7 26 -15 11 -13 3 -15 -69 -13 -44 2 -81 6 -81 11 0 9 -51 -2 -65 -14 -15
-15 -23 -10 -27 14 -2 18 -9 22 -38 22 -19 0 -46 8 -60 18 -26 18 -75 23 -84
8 -4 -5 7 -12 24 -16 17 -4 28 -10 25 -14 -2 -5 0 -22 5 -40 8 -30 8 -31 -24
-31 -17 0 -37 -5 -42 -10 -6 -6 -18 -8 -28 -4 -16 6 -16 8 2 28 38 42 38 92 0
80 -12 -4 -18 -2 -15 3 4 6 1 18 -7 28 -10 14 -17 15 -33 7 -15 -9 -20 -21
-20 -52 0 -22 4 -43 9 -46 14 -9 -2 -24 -26 -24 -12 0 -27 5 -34 12 -6 6 -28
13 -49 15 -41 3 -123 40 -136 61 -4 6 -14 12 -22 12 -8 0 -20 9 -27 20 -7 11
-20 20 -28 20 -9 0 -21 5 -28 12 -21 21 -14 -11 10 -45 36 -50 74 -87 90 -87
9 0 21 -6 27 -14 6 -7 24 -16 39 -19 22 -4 35 -18 55 -57 38 -74 36 -121 -5
-99 -21 11 -124 4 -148 -11 -11 -7 -11 -11 -1 -24 11 -13 26 -15 72 -10 67 7
75 -3 29 -36 -35 -25 -39 -44 -7 -35 l22 6 -21 -18 c-44 -37 -52 -93 -13 -93
13 0 19 7 19 24 0 33 60 96 91 95 23 0 23 -1 3 -9 -28 -11 -64 -58 -64 -82 0
-11 -11 -34 -25 -52 -32 -43 -33 -66 0 -66 20 0 25 -6 31 -35 4 -21 1 -48 -6
-65 -7 -16 -13 -55 -15 -86 -1 -31 -7 -59 -12 -63 -5 -3 -13 -15 -18 -26 l-8
-20 -5 20 c-2 11 -17 32 -33 47 -24 22 -28 33 -23 55 4 15 8 29 9 31 2 2 -3
22 -9 45 -15 51 -10 77 14 77 21 0 44 25 36 38 -3 6 -20 12 -38 16 -37 7 -57
30 -51 61 15 93 15 100 2 88 -27 -26 -40 -15 -33 27 6 35 4 40 -13 40 -37 0
-57 -41 -66 -135 -2 -17 3 -19 28 -17 16 2 27 1 23 -3 -3 -4 -2 -20 2 -36 10
-34 2 -36 -31 -10 -16 12 -34 17 -51 14 -18 -3 -40 3 -63 17 -44 27 -47 52 -5
43 27 -5 31 -2 41 25 6 17 21 37 34 46 29 19 42 66 22 81 -13 9 -12 14 4 34
11 13 22 21 26 18 3 -4 15 -1 26 4 17 10 19 18 13 72 -3 33 -13 68 -21 77 -9
10 -20 46 -26 80 -12 75 -16 83 -36 76 -12 -5 -14 -1 -9 16 3 13 6 29 6 36 0
13 60 75 87 91 9 5 13 14 8 20 -23 38 -136 -57 -150 -126 -14 -66 -12 -102 6
-180 10 -42 16 -80 13 -84 -2 -4 1 -11 7 -14 5 -4 8 -13 5 -21 -3 -7 -1 -16 4
-19 18 -11 -14 -52 -85 -110 -38 -31 -74 -61 -79 -66 -6 -5 -2 -17 9 -29 13
-14 15 -24 8 -31 -11 -11 -520 -14 -615 -3 -62 7 -65 11 -83 104 -4 19 -11 40
-16 45 -11 15 -2 77 13 87 8 4 8 8 2 8 -6 0 -11 13 -11 30 0 18 4 27 11 23 8
-5 8 -3 0 8 -6 8 -12 30 -13 49 -2 32 -7 68 -11 80 -1 3 -2 8 -2 11 1 3 -5 30
-13 60 -8 30 -15 68 -15 84 -1 17 -7 46 -14 66 -16 45 -11 62 14 49 20 -10 92
-8 121 4 25 11 45 54 31 68 -9 9 -17 7 -34 -9 -19 -17 -31 -19 -73 -14 -27 3
-49 9 -47 14 8 24 -1 28 -18 7 -10 -14 -21 -23 -23 -20 -6 7 -28 73 -25 76 2
1 26 -2 53 -6 44 -8 52 -6 67 11 14 16 21 18 37 10 26 -15 78 -14 87 1 5 7 10
4 15 -10 7 -20 14 -22 51 -17 35 4 38 3 16 -4 -42 -14 -88 -51 -88 -70 0 -19
30 -51 48 -51 6 0 23 15 37 34 17 23 40 38 71 46 24 7 47 17 50 21 3 5 13 9
24 9 10 0 20 6 23 14 5 12 13 13 42 5 23 -7 52 -7 78 -1 24 5 52 8 64 7 12 -1
20 2 18 6 -6 8 104 23 113 15 3 -3 -9 -6 -27 -6 -22 0 -31 -4 -29 -12 6 -17
49 -23 58 -8 5 8 11 6 20 -5 11 -13 8 -15 -16 -16 -16 0 -42 -2 -59 -3 -16 -2
-36 2 -42 7 -9 7 -13 5 -13 -7 0 -9 -7 -16 -15 -16 -8 0 -14 5 -13 11 2 6 -3
14 -9 16 -14 5 -18 -13 -4 -21 18 -12 -13 -71 -46 -87 -32 -16 -33 -16 -27 6
3 13 0 26 -6 30 -20 12 -80 23 -80 15 0 -8 -54 -30 -72 -30 -5 0 -6 5 -3 11 4
6 -2 5 -14 -3 -17 -10 -25 -10 -41 0 -23 14 -33 16 -26 3 6 -10 -25 -32 -94
-69 -33 -17 -63 -24 -114 -25 -37 -1 -63 -3 -57 -5 6 -2 11 -12 11 -22 0 -33
32 -42 107 -30 37 6 75 18 85 27 9 8 22 12 30 7 7 -4 10 -4 6 1 -13 14 44 36
104 40 49 3 60 1 68 -16 13 -24 60 -25 121 -4 52 19 109 61 109 81 0 9 12 14
38 16 43 1 46 2 90 12 23 5 40 20 58 48 14 21 38 53 55 70 16 17 29 36 29 42
0 7 15 10 40 8 35 -4 39 -6 28 -19 -6 -8 -29 -21 -49 -30 -44 -17 -56 -39 -34
-63 8 -9 15 -21 15 -27 0 -18 46 -53 93 -69 42 -14 63 -34 37 -34 -5 0 -10 -4
-10 -10 0 -5 15 -10 34 -10 39 0 58 -17 24 -22 -33 -5 -35 -28 -1 -28 17 0 33
-8 40 -19 6 -10 23 -21 37 -25 14 -3 47 -20 72 -36 36 -23 51 -27 65 -19 33
17 27 24 -77 94 -13 9 -10 17 25 54 26 28 46 41 56 37 12 -4 14 0 9 22 -4 15
-11 32 -16 39 -6 7 -4 23 6 42 9 16 16 39 16 50 0 21 -50 64 -87 76 -13 3 -23
10 -23 15 0 4 -12 11 -26 14 -21 6 -24 9 -14 21 11 13 7 15 -21 15 -25 0 -30
-3 -19 -10 17 -11 13 -15 -22 -24 -18 -4 -32 -1 -44 11 -16 16 -17 16 -12 1 4
-10 1 -19 -8 -22 -21 -8 -21 -8 -27 14 -6 23 -40 26 -84 8 -15 -6 -32 -10 -36
-9 -5 1 -6 -3 -3 -8 4 -5 -4 -13 -16 -16 -13 -4 -36 -19 -53 -34 -16 -15 -43
-33 -60 -40 l-30 -13 20 23 c11 13 26 29 34 35 8 6 11 18 8 29 -6 13 -10 15
-21 6 -10 -8 -16 -9 -21 -1 -3 5 -12 10 -18 10 -7 0 -6 -4 3 -10 8 -5 13 -10
10 -11 -22 -4 -54 -8 -105 -14 -33 -4 -66 -12 -73 -18 -16 -13 -95 -14 -240
-4 -69 5 -110 3 -124 -4 -27 -14 -31 -7 -16 27 16 36 26 44 60 44 15 0 33 7
42 15 8 8 21 15 29 15 20 0 40 27 34 45 -4 8 -2 17 4 20 10 7 82 17 111 17 10
-1 20 4 24 9 4 6 16 1 30 -12 22 -21 25 -21 42 -6 10 10 22 14 25 11 4 -4 40
-8 82 -10 41 -2 84 -8 96 -14 16 -9 24 -8 39 5 12 11 20 13 25 6 9 -16 36 -13
55 6 15 16 14 19 -2 35 -10 10 -18 24 -18 31 0 7 7 4 15 -7 8 -11 27 -27 41
-37 25 -16 29 -16 53 -1 14 9 39 18 56 18 16 1 56 9 88 19 87 25 158 13 201
-34 12 -13 30 -20 50 -19 46 2 72 -10 84 -37 7 -15 20 -25 33 -25 19 0 18 -2
-8 -24 -15 -13 -38 -26 -50 -30 -13 -4 -23 -14 -23 -22 0 -38 75 -31 109 10
16 19 44 20 93 3 52 -18 56 -25 15 -25 -38 0 -96 -11 -112 -21 -10 -6 -16 -7
-35 -10 -16 -2 -11 -48 6 -55 30 -11 61 -6 79 14 20 22 50 25 90 10 14 -5 61
-13 104 -16 l78 -6 7 26 c7 29 29 41 89 51 29 5 37 10 35 23 -8 40 -159 17
-172 -26 -5 -16 -13 -18 -51 -12 -47 7 -72 20 -39 20 11 0 28 6 39 14 11 7 36
17 55 21 19 4 45 14 58 23 20 13 31 13 77 2 29 -7 69 -10 88 -7 18 3 40 1 48
-3 7 -5 18 -5 24 0 6 5 56 8 111 7 93 -2 100 -3 100 -22 -1 -17 6 -20 54 -22
68 -2 120 21 120 54 0 19 -5 23 -32 23 -22 0 -42 10 -65 32 -18 18 -33 27 -33
21 0 -19 -48 -24 -85 -9 -43 18 -46 29 -5 14 25 -8 34 -7 49 6 10 9 22 16 27
16 18 0 64 56 64 77 0 11 7 26 15 33 10 8 15 30 15 60 0 61 -33 104 -106 136
-28 12 -54 30 -57 38 -4 9 -15 16 -26 16 -11 0 -34 12 -51 27 -42 35 -111 41
-152 12 -15 -11 -28 -29 -28 -39 0 -11 -10 -20 -25 -24 -14 -4 -25 -12 -25
-20 0 -7 -13 -19 -30 -26 -34 -14 -49 -64 -30 -100 8 -14 8 -25 1 -33 -11 -14
0 -80 18 -101 17 -20 61 -29 76 -16 10 8 21 4 44 -19 17 -17 31 -32 31 -34 0
-8 -157 37 -171 49 -8 8 -21 14 -28 14 -7 0 -9 5 -6 10 3 6 1 10 -5 10 -7 0
-11 21 -10 58 0 31 -2 87 -6 124 -6 56 -10 67 -28 72 -38 10 -60 6 -111 -20
-27 -14 -69 -29 -93 -33 -42 -8 -42 -8 -64 30 -12 22 -25 39 -29 39 -9 0 -28
48 -43 105 -8 33 -64 75 -100 75 -17 0 -27 -12 -45 -53 l-24 -53 -131 3 c-72
2 -135 4 -141 5 -5 1 -20 -2 -32 -6 -19 -6 -25 -2 -38 30 -24 57 -63 78 -202
106 -43 9 -59 8 -98 -7 -40 -15 -46 -21 -43 -40 4 -19 -4 -26 -54 -49 -40 -19
-59 -34 -62 -49 -3 -12 -7 -34 -10 -49 -5 -20 -1 -30 13 -38 25 -13 51 11 51
45 0 23 23 55 39 55 20 0 17 -14 -7 -35 -23 -20 -25 -27 -17 -50 6 -15 20 -32
33 -36 13 -5 21 -5 18 0 -3 5 1 11 9 15 8 3 15 17 15 30 0 14 8 31 19 38 10 7
20 22 23 33 2 11 11 19 19 17 13 -2 39 34 39 55 0 3 -16 2 -35 -1 -35 -7 -49
6 -19 18 27 10 54 7 96 -14 23 -11 48 -20 55 -20 7 0 13 -7 13 -15 0 -8 5 -15
11 -15 5 0 7 6 3 13 -5 8 -2 8 9 -2 9 -7 17 -19 17 -26 0 -13 -48 -30 -58 -21
-3 3 -12 -3 -19 -14 -12 -17 -12 -24 -3 -36 10 -11 26 -13 73 -8 48 5 63 3 72
-9 6 -8 22 -17 35 -19 23 -3 25 -7 26 -76 2 -75 -5 -92 -26 -67 -10 12 -9 15
4 15 9 0 16 4 16 10 0 6 -9 6 -24 0 -28 -10 -37 2 -29 42 3 14 1 28 -5 32 -11
7 -50 -20 -41 -29 4 -3 14 1 23 10 9 9 16 11 16 5 0 -6 -7 -13 -15 -16 -8 -4
-15 -13 -15 -21 0 -8 5 -11 10 -8 6 3 10 -1 10 -9 0 -23 -17 -20 -25 4 -7 21
-25 26 -41 11 -5 -5 -32 -11 -61 -15 -48 -6 -51 -5 -46 14 3 11 0 20 -6 20 -6
0 -11 -5 -11 -10 0 -6 -6 -10 -14 -8 -8 2 -21 -6 -29 -16 -15 -21 -42 -13 -33
10 3 7 1 16 -3 19 -5 2 -11 -4 -14 -15 -3 -11 0 -20 6 -20 7 0 4 -7 -6 -14
-12 -10 -15 -16 -7 -21 7 -4 4 -13 -10 -25 -17 -15 -26 -16 -50 -7 -24 9 -39
8 -74 -5 -25 -9 -55 -14 -68 -11 -29 7 -58 32 -58 49 0 20 -16 25 -43 15 -20
-8 -24 -15 -20 -33 16 -61 66 -94 147 -97 15 -1 17 -4 9 -12 -6 -6 -38 -12
-70 -14 -64 -3 -110 -21 -133 -54 -8 -12 -20 -21 -27 -21 -7 0 -17 -8 -22 -17
-5 -10 -30 -26 -55 -35 l-46 -17 5 37 c3 20 7 47 8 60 1 13 10 28 20 33 9 6
26 28 37 50 11 21 26 39 33 39 8 0 8 3 -2 9 -8 5 -11 16 -8 26 4 10 3 14 -4
10 -7 -5 -8 5 -4 29 8 42 -17 91 -41 82 -12 -4 -14 -1 -9 14 5 14 -2 29 -25
51 -27 27 -36 31 -67 26 -46 -8 -76 -35 -69 -62 4 -16 -1 -23 -26 -33 l-31
-11 5 -71 c3 -40 1 -70 -4 -70 -5 0 -6 5 -3 10 3 6 2 10 -2 10 -5 0 -22 -25
-38 -54 l-31 -55 -47 43 c-35 33 -47 51 -47 72 0 40 50 164 67 164 7 0 25 14
40 30 15 17 36 30 50 30 12 0 40 15 60 33 48 41 100 77 111 77 4 0 21 14 37
30 16 17 38 30 48 30 11 0 30 10 43 23 33 32 74 65 113 90 31 20 67 89 56 107
-6 9 30 41 75 68 60 35 145 141 128 158 -4 3 -30 -1 -58 -9 -51 -15 -51 -15
-60 9 -5 13 -16 24 -23 24 -28 0 -93 -58 -116 -104 -13 -26 -29 -50 -37 -53
-20 -7 -17 -27 6 -48 26 -24 27 -65 1 -65 -11 0 -29 -12 -40 -27 -19 -26 -20
-26 -21 -7 0 12 -7 27 -15 34 -14 11 -12 15 15 31 30 19 39 42 20 54 -13 8
-66 -21 -73 -40 -4 -8 -17 -15 -31 -15 -14 0 -31 -6 -38 -13 -7 -6 -26 -17
-43 -22 -16 -6 -35 -20 -41 -33 -16 -32 -22 -36 -37 -24 -7 6 -37 12 -66 13
-43 2 -57 -1 -70 -17 -9 -10 -25 -18 -37 -16 -11 2 -27 -4 -34 -13 -11 -13
-10 -19 5 -35 10 -11 25 -20 34 -20 13 -1 12 -3 -4 -16 -18 -13 -21 -12 -38
21 -15 30 -22 35 -40 29 -12 -3 -30 -14 -39 -23 -9 -9 -24 -21 -32 -28 -11 -9
-12 -21 -6 -49 8 -34 6 -40 -22 -66 -18 -16 -28 -34 -24 -43 3 -8 -1 -36 -9
-62 -9 -31 -11 -51 -5 -57 30 -30 -12 -57 -44 -28 -12 10 -36 25 -54 32 -27
10 -30 15 -20 27 19 23 38 84 38 123 0 40 -38 114 -60 117 -8 2 -21 -1 -29 -6
-13 -8 -12 -15 4 -51 19 -43 20 -50 10 -90 -3 -14 -9 -41 -13 -60 l-8 -35 -33
35 c-25 25 -41 34 -60 32 -30 -3 -81 -54 -81 -80 0 -9 -9 -32 -20 -50 l-21
-34 -25 26 c-18 17 -24 31 -19 46 10 30 -22 38 -48 11 l-22 -21 20 -38 c14
-26 27 -37 42 -36 31 1 13 -29 -26 -46 -17 -7 -33 -22 -36 -34 -36 -135 -55
-255 -44 -283 9 -25 28 -30 47 -11 16 16 29 -19 15 -40 -7 -11 -4 -34 9 -75
10 -32 18 -69 18 -81 0 -12 5 -27 11 -33 11 -11 35 -129 45 -224 l6 -56 -38
-18 c-22 -11 -45 -18 -52 -16 -8 1 -25 -5 -38 -14 -22 -14 -27 -14 -52 -1 -15
9 -21 15 -13 16 8 0 11 6 7 17 -4 9 -9 44 -12 77 -2 34 -7 72 -9 86 -5 24 -5
24 10 6 8 -11 15 -31 15 -45 0 -32 20 -73 39 -79 11 -4 12 2 6 24 -19 71 -26
115 -31 199 -3 52 -13 107 -23 130 -10 22 -21 52 -24 68 -4 15 -14 27 -21 27
-11 0 -12 -8 -6 -32 16 -60 23 -83 30 -93 9 -13 14 -142 5 -134 -3 4 -12 42
-18 85 -7 44 -16 77 -21 74 -13 -7 -17 -360 -4 -383 20 -38 -27 -53 -96 -30
-51 17 -75 16 -83 -2 -7 -21 22 -42 72 -51 77 -13 76 -10 74 -184 -1 -150 0
-157 26 -207 29 -56 28 -83 -5 -83 -11 0 -38 -11 -59 -24 -37 -24 -40 -24 -55
-7 -21 24 -21 99 1 123 9 10 11 18 5 18 -6 0 -12 -6 -15 -12 -8 -22 -19 -1
-12 22 5 15 12 19 23 15 13 -5 11 -1 -4 17 -19 21 -55 132 -59 184 -1 11 -5
25 -9 32 -4 7 -4 17 0 24 5 7 3 8 -6 3 -10 -6 -12 -4 -7 8 3 10 2 17 -3 17 -5
0 -13 15 -18 33 -7 25 -5 37 9 56 22 28 19 36 -18 44 -56 12 -57 17 -55 139 3
124 8 179 24 251 12 57 2 75 -32 57 -20 -11 -21 -10 -10 10 6 12 9 24 7 27 -8
7 13 63 24 63 4 0 6 7 2 16 -3 9 3 23 15 35 26 24 28 24 35 -1 4 -15 0 -20
-14 -20 -23 0 -24 -9 -4 -37 10 -14 22 -19 35 -16 12 3 22 -1 26 -10 3 -9 12
-13 19 -11 8 3 21 1 31 -4 11 -6 27 -5 45 2 27 10 40 26 20 26 -5 0 -11 9 -14
21 -4 16 -12 20 -35 18 -36 -4 -62 25 -107 118 -35 72 -59 84 -50 26 5 -32 4
-35 -6 -19 -11 18 -16 35 -40 131 -23 90 -35 184 -27 199 11 19 -16 86 -35 86
-21 0 -54 -30 -39 -36 21 -10 14 -36 -10 -32 -15 2 -25 15 -35 43 -7 22 -22
51 -31 63 -17 22 -21 23 -60 11 -26 -7 -42 -18 -43 -28 0 -14 -1 -14 -6 -1 -4
8 -14 21 -24 28 -27 19 -42 78 -35 133 6 45 5 49 -14 49 -17 0 -20 6 -18 33 3
30 1 32 -29 31 -31 -2 -32 -1 -18 19 20 29 19 54 -4 67 -16 8 -23 5 -39 -15
-11 -13 -22 -21 -26 -18 -10 11 -6 47 8 66 23 30 29 26 109 -62 16 -17 35 -31
43 -31 8 0 19 -10 25 -22 29 -64 41 -78 79 -88 57 -15 98 10 72 45 -14 20
-102 56 -121 50 -16 -5 -18 -2 -14 15 4 16 -13 38 -74 99 -66 67 -79 85 -81
115 -3 46 -51 136 -73 136 -4 0 -10 -9 -14 -19z m-145 -29 c0 -11 100 -58 115
-54 7 1 18 -5 25 -13 7 -8 19 -15 27 -15 16 0 15 30 -1 75 -6 15 -1 13 17 -8
18 -21 24 -39 23 -72 -1 -24 -5 -47 -9 -51 -12 -13 -50 -10 -65 4 -8 7 -17 10
-22 7 -4 -3 -11 6 -14 20 -4 16 -27 39 -61 61 -52 35 -68 54 -45 54 6 0 10 -4
10 -8z m2468 -86 c-33 -25 -21 -35 35 -30 l52 4 -34 -13 c-35 -13 -54 -37 -30
-37 14 0 -17 -37 -43 -51 -22 -12 -68 -1 -68 15 0 24 40 95 62 110 27 19 50
21 26 2z m-259 -299 c-1 -27 -3 -33 -6 -17 -2 14 -12 31 -21 38 -14 11 -15 14
-2 22 22 14 30 2 29 -43z m-149 -53 c12 -13 -16 -74 -34 -74 -8 0 -17 9 -21
19 -3 11 -21 33 -40 49 -18 17 -31 32 -29 35 7 7 114 -19 124 -29z m79 -14
l-1 -25 -8 25 c-4 14 -8 32 -9 40 -1 13 0 13 9 0 5 -8 9 -26 9 -40z m-191 -75
c-3 -4 -16 9 -28 27 l-23 33 28 -27 c16 -15 26 -30 23 -33z m-2050 28 c28 -24
20 -87 -10 -80 -15 4 -17 2 -9 -7 6 -7 8 -16 4 -19 -3 -4 2 -16 11 -26 10 -11
15 -24 12 -30 -3 -5 8 -20 26 -32 18 -12 27 -16 21 -9 -10 11 -9 18 8 36 18
19 19 23 5 37 -9 9 -16 18 -16 21 0 7 59 -14 65 -24 8 -13 -33 -100 -47 -100
-7 0 -23 -3 -35 -6 -18 -5 -22 -1 -25 23 -2 21 -9 29 -27 31 -14 2 -34 10 -45
17 -28 19 -61 -3 -51 -34 9 -30 -16 -18 -35 16 -14 25 -14 28 8 50 22 22 24
22 50 7 24 -14 25 -14 8 0 -16 13 -17 18 -6 31 7 8 20 15 29 15 11 0 12 3 4 8
-15 10 -35 61 -27 73 10 17 32 10 27 -10 -7 -28 14 -35 28 -9 11 21 11 22 -4
9 -18 -14 -20 -12 -11 13 8 20 17 20 42 -1z m3536 -119 c10 -4 16 -18 16 -37
0 -17 7 -38 15 -46 10 -12 105 -187 105 -195 0 -1 -31 0 -70 2 -56 3 -70 7
-75 22 -9 30 -54 40 -178 43 -131 3 -137 5 -137 70 0 21 -7 49 -17 63 l-16 25
130 -2 c122 -2 132 0 161 21 18 13 32 27 32 32 0 10 12 10 34 2z m692 -50 c12
-3 26 -15 31 -27 9 -20 7 -22 -18 -24 -16 -1 -28 1 -28 5 3 21 -3 24 -16 6
-14 -18 -14 -18 -15 7 0 38 8 43 46 33z m-2726 -74 c18 -21 124 -80 144 -80
15 0 81 -78 90 -107 9 -29 41 -63 59 -63 22 0 27 24 11 55 -21 42 -17 42 19 0
41 -49 78 -86 106 -107 24 -17 48 -92 28 -85 -7 2 -21 21 -33 43 -11 21 -25
39 -32 39 -6 0 -20 10 -31 21 -20 22 -62 23 -88 1 -9 -7 -13 -5 -13 7 0 22
-46 21 -101 -3 -35 -16 -53 -18 -90 -11 -83 16 -125 48 -84 64 8 3 15 12 15
20 0 8 9 18 20 21 29 9 26 49 -6 74 -31 24 -44 26 -68 8 -21 -15 -13 -40 17
-55 22 -11 21 -11 -3 -8 -15 2 -30 13 -37 27 -10 21 -7 34 20 92 18 37 34 67
36 67 2 0 11 -9 21 -20z m710 -10 c0 -11 -2 -20 -4 -20 -2 0 -6 9 -9 20 -3 11
-1 20 4 20 5 0 9 -9 9 -20z m1876 -40 c0 -11 -4 -20 -8 -20 -10 0 -11 24 -1
33 9 9 9 10 9 -13z m346 8 c18 -15 31 -48 19 -48 -4 0 -16 9 -26 20 -11 12
-32 20 -54 21 l-36 1 30 8 c45 11 50 11 67 -2z m-2187 -38 c4 -6 12 -7 18 -4
7 4 3 -2 -8 -13 -11 -11 -24 -18 -30 -15 -5 3 -5 -1 2 -8 10 -11 15 -11 28 0
10 8 15 9 15 1 0 -16 -51 -25 -71 -12 -31 18 -48 14 -42 -11 5 -18 3 -21 -7
-11 -7 6 -14 28 -16 48 -2 29 1 35 14 33 9 -1 23 1 30 5 7 5 12 3 12 -3 0 -6
5 -8 10 -5 6 4 7 11 4 17 -4 6 1 6 14 -1 12 -6 24 -16 27 -21z m1520 -5 c37
-4 65 -25 65 -48 0 -16 -101 4 -121 24 -24 24 -25 42 -1 35 9 -3 35 -8 57 -11z
m545 -24 c0 -3 -4 -13 -10 -21 -7 -12 -12 -11 -32 5 -13 11 -25 21 -27 22 -2
1 2 9 8 17 11 14 16 13 37 -1 13 -8 24 -18 24 -22z m-2527 1 c-3 -12 -9 -22
-14 -22 -12 0 -11 7 3 30 15 24 19 21 11 -8z m1117 -37 c5 -3 10 -16 9 -28 0
-15 -2 -17 -6 -7 -3 8 -11 18 -17 22 -6 4 -12 12 -12 18 -1 5 -2 15 -3 21 0 5
-5 7 -11 4 -12 -7 -14 18 -3 29 5 4 13 -6 20 -22 7 -17 17 -33 23 -37z m1334
51 c-6 -15 42 -51 70 -51 11 0 21 -6 23 -12 3 -8 -5 -13 -21 -13 -14 0 -26 4
-26 8 0 5 -11 14 -25 20 -19 9 -24 9 -22 -1 1 -6 -3 -11 -9 -10 -7 1 -24 -9
-38 -22 -21 -20 -31 -23 -50 -15 -32 12 -47 35 -17 25 29 -9 101 37 101 65 0
11 4 20 10 20 5 0 7 -6 4 -14z m-3965 -43 c-12 -16 -12 -17 1 -6 12 9 19 8 34
-3 18 -13 18 -14 -5 -33 -13 -11 -19 -20 -12 -21 6 0 13 4 15 10 2 5 8 -2 15
-16 l12 -25 -55 5 c-58 7 -63 3 -37 -26 11 -12 12 -18 3 -18 -7 0 -2 -9 11
-20 13 -10 19 -19 12 -20 -6 0 -15 5 -18 10 -4 6 -9 9 -13 7 -4 -2 -15 4 -24
15 -16 16 -16 18 -2 18 13 0 14 3 5 13 -6 8 -8 17 -4 21 4 3 8 17 10 29 2 12
12 34 23 49 11 15 20 33 20 40 0 9 3 9 12 0 8 -8 8 -15 -3 -29z m4129 -1 c2
-7 -10 -10 -34 -9 -21 1 -39 8 -42 16 -3 9 2 11 19 7 13 -3 18 -3 11 0 -6 3
-9 10 -6 15 7 11 46 -11 52 -29z m-1586 14 c5 3 4 -3 -4 -15 -17 -28 -29 -27
-24 2 6 32 7 33 13 19 2 -6 9 -9 15 -6z m1655 -8 c-3 -8 -6 -5 -6 6 -1 11 2
17 5 13 3 -3 4 -12 1 -19z m-1613 6 c8 -3 12 -12 9 -20 -3 -8 -1 -14 5 -14 5
0 12 -7 16 -15 9 -24 -10 -17 -24 9 -7 14 -18 22 -26 19 -10 -4 -12 0 -8 11 7
18 7 18 28 10z m-636 -45 c2 -8 -2 -6 -8 4 -16 24 -24 21 -37 -14 -15 -38 -10
-49 20 -49 36 0 50 15 42 41 -7 20 -6 22 7 12 8 -7 19 -9 24 -5 4 4 2 -1 -5
-10 -7 -10 -11 -23 -8 -30 2 -7 -6 -21 -19 -31 -13 -10 -24 -13 -24 -8 0 6
-16 13 -35 17 -40 7 -55 23 -33 35 9 5 19 25 22 45 7 34 8 35 29 21 11 -7 23
-20 25 -28z m1080 32 c16 -1 22 -7 22 -24 0 -21 -7 -24 -72 -36 -94 -16 -148
-19 -142 -9 3 4 11 8 19 8 7 0 28 16 47 35 28 29 39 34 68 30 19 -2 45 -4 58
-4z m-198 -16 c-7 -8 -17 -12 -22 -9 -6 4 -5 10 3 15 22 14 33 10 19 -6z
m-390 -9 c0 -3 -4 -8 -10 -11 -5 -3 -10 -1 -10 4 0 6 5 11 10 11 6 0 10 -2 10
-4z m124 -12 c5 -14 4 -15 -9 -4 -17 14 -19 20 -6 20 5 0 12 -7 15 -16z m643
-26 c-3 -7 -5 -2 -5 12 0 14 2 19 5 13 2 -7 2 -19 0 -25z m303 17 c0 -1 -13
-5 -30 -7 -32 -5 -42 8 -12 14 16 4 42 -1 42 -7z m120 -16 c0 -22 -1 -23 -35
-7 l-26 12 23 12 c27 15 38 10 38 -17z m-1700 11 c0 -5 -4 -10 -10 -10 -5 0
-10 5 -10 10 0 6 5 10 10 10 6 0 10 -4 10 -10z m-83 -88 c46 -24 77 -57 68
-72 -4 -6 -2 -17 4 -24 30 -36 -18 -60 -111 -55 -33 2 -53 -1 -56 -9 -2 -7 -9
-12 -15 -12 -8 0 -7 4 1 12 15 15 16 120 1 135 -7 7 -3 21 15 48 14 21 26 43
26 49 1 6 7 -3 15 -21 8 -19 29 -40 52 -51z m1476 30 c10 -2 21 6 28 22 19 41
39 33 29 -10 -5 -20 -6 -43 -3 -50 7 -19 -16 -18 -38 2 -9 8 -25 17 -35 18
-12 2 -19 13 -21 37 -4 33 -3 34 9 9 8 -14 21 -26 31 -28z m845 31 c-3 -19
-17 -33 -33 -33 -5 0 -3 5 5 10 8 5 11 10 7 10 -4 0 -2 7 5 15 17 19 19 18 16
-2z m-3964 -38 c-8 -26 -8 -26 -28 -19 -15 6 -15 8 3 21 12 8 18 20 15 31 -5
14 -4 15 5 2 6 -8 8 -24 5 -35z m-85 12 c-3 -27 2 -39 15 -34 8 3 17 -1 20 -9
4 -10 13 -13 26 -9 13 4 22 1 26 -9 7 -18 -14 -49 -27 -40 -5 3 -9 -2 -9 -10
0 -9 -7 -16 -15 -16 -18 0 -20 17 -2 23 15 5 -30 46 -53 47 -10 1 -11 3 -2 7
16 6 15 23 -2 23 -21 0 -27 38 -7 43 21 5 32 -1 30 -16z m2406 0 l30 -16 -49
-1 c-27 0 -46 3 -43 7 4 3 2 12 -4 19 -15 18 27 13 66 -9z m-3055 -17 c0 -5
-5 -10 -11 -10 -5 0 -7 5 -4 10 3 6 8 10 11 10 2 0 4 -4 4 -10z m4046 -1 c3
-5 10 -7 15 -3 11 7 69 -14 69 -25 0 -4 12 -7 28 -6 15 0 33 -7 40 -17 7 -10
18 -18 24 -18 7 0 6 6 -2 15 -7 8 -8 15 -2 15 13 0 33 -25 26 -33 -3 -3 5 -3
18 0 18 4 20 3 8 -6 -8 -6 -29 -10 -47 -9 -18 1 -40 -5 -51 -15 -10 -9 -29
-17 -41 -17 -12 0 -35 -6 -50 -14 -25 -13 -31 -13 -61 6 -25 15 -45 19 -77 15
-24 -2 -46 -1 -49 4 -3 5 6 9 21 9 14 0 33 9 42 20 18 21 39 28 28 10 -10 -16
14 -40 40 -40 13 0 25 -5 27 -10 4 -14 86 20 93 39 7 19 -13 31 -52 31 -20 0
-33 5 -33 13 0 8 -4 7 -10 -3 -9 -13 -14 -8 -12 11 1 4 -7 5 -16 2 -10 -2 -25
4 -35 14 -16 18 -15 19 18 20 19 1 38 -3 41 -8z m-2394 -12 c-7 -7 -14 -33
-17 -58 -3 -24 -9 -71 -15 -104 -9 -57 -9 -56 -5 26 6 113 14 149 32 149 12 0
13 -3 5 -13z m376 -39 c9 -9 7 -14 -5 -23 -14 -11 -14 -17 6 -74 12 -34 19
-66 16 -71 -3 -4 0 -10 6 -12 33 -11 76 -310 82 -575 3 -135 1 -154 -13 -158
-20 -6 -40 -46 -40 -77 0 -58 -39 46 -60 162 -13 67 -14 191 -4 353 3 51 6 97
5 102 -6 83 -9 104 -22 130 -8 18 -23 31 -37 33 -17 3 -22 10 -22 34 l0 30 19
-23 c28 -35 52 -11 49 49 -4 54 -30 79 -53 49 -13 -18 -14 -17 -17 4 -4 30
-20 34 -49 10 -20 -16 -22 -22 -12 -42 10 -21 19 -139 29 -399 1 -47 9 -101
17 -120 8 -19 18 -71 22 -115 10 -111 30 -212 54 -267 19 -46 25 -80 23 -129
-2 -20 -8 -28 -27 -31 -21 -4 -25 0 -34 36 -6 23 -18 66 -27 96 -12 38 -18 96
-20 185 -1 72 -6 144 -11 160 -10 31 -38 44 -56 26 -17 -17 -30 -100 -31 -188
0 -46 -1 -82 -2 -80 -9 9 -45 277 -50 382 -10 194 -10 239 6 363 12 93 12 117
1 134 -12 19 -11 20 6 14 46 -19 86 -18 153 3 39 12 70 27 70 32 0 13 14 11
28 -3z m2449 6 c-3 -3 -12 -4 -19 -1 -8 3 -5 6 6 6 11 1 17 -2 13 -5z m-3397
-35 c0 -5 -4 -9 -10 -9 -5 0 -10 7 -10 16 0 8 5 12 10 9 6 -3 10 -10 10 -16z
m-483 -26 c-3 -3 -11 -2 -17 2 -8 5 -7 11 2 22 12 15 13 14 16 -1 2 -10 1 -20
-1 -23z m296 0 c2 -10 8 -26 12 -37 8 -17 5 -18 -41 -12 -68 10 -85 16 -78 27
4 6 11 6 19 -1 16 -13 33 -5 53 22 17 23 28 23 35 1z m-173 -53 c0 -5 -5 -10
-11 -10 -5 0 -7 5 -4 10 3 6 8 10 11 10 2 0 4 -4 4 -10z m-46 -6 c24 -9 19
-24 -8 -24 -28 0 -43 16 -24 23 7 3 14 6 15 6 1 1 8 -2 17 -5z m1013 -71 c-3
-10 -5 -4 -5 12 0 17 2 24 5 18 2 -7 2 -21 0 -30z m472 -83 c0 -23 -1 -23 -9
-5 -5 11 -9 29 -9 40 -1 17 1 17 9 5 5 -8 9 -26 9 -40z m1474 0 c-27 -11 -30
-32 -8 -50 14 -12 12 -17 -15 -45 -28 -28 -36 -32 -78 -29 -26 2 -57 3 -70 3
l-23 1 26 34 c14 19 38 36 53 39 16 3 33 16 39 29 8 18 19 23 54 25 35 1 39 0
22 -7z m-1377 -70 c75 -298 90 -419 69 -560 l-8 -55 -18 105 c-10 58 -18 137
-19 175 0 39 -5 112 -10 163 -9 100 -28 146 -56 135 -14 -5 -16 -16 -10 -72 4
-36 8 -88 11 -116 6 -65 15 -438 11 -434 -14 16 -36 223 -34 319 1 100 -1 146
-17 295 -2 17 -6 41 -11 55 l-7 25 20 -25 c18 -21 23 -22 37 -11 9 7 16 27 16
44 0 43 7 31 26 -43z m-293 -61 c-8 -29 -13 -23 -13 14 0 22 3 28 9 18 5 -7 6
-22 4 -32z m1600 -42 c4 3 7 1 7 -5 0 -14 -2 -14 -24 -6 -9 3 -16 11 -16 16 0
7 5 6 13 -1 8 -6 17 -8 20 -4z m769 -56 c4 -3 9 -32 12 -63 5 -63 0 -68 -61
-68 -32 0 -34 2 -22 17 11 13 11 17 2 20 -7 3 -13 13 -13 24 0 10 -5 19 -11
19 -6 0 -9 6 -6 14 3 7 0 19 -6 26 -9 10 -8 12 5 7 9 -3 22 1 28 8 12 14 55
12 72 -4z m58 -141 c0 -5 -5 -10 -11 -10 -5 0 -7 5 -4 10 3 6 8 10 11 10 2 0
4 -4 4 -10z m-440 -50 c0 -19 2 -25 13 -40 9 -12 8 -13 -1 -4 -13 11 -62 7
-62 -5 0 -4 7 -16 15 -29 14 -19 22 -21 80 -17 37 3 65 1 65 -4 0 -5 -6 -11
-12 -14 -8 -2 -13 -20 -13 -42 0 -36 -2 -38 -47 -51 -52 -16 -77 -42 -111
-116 -14 -31 -27 -46 -35 -43 -8 3 -20 5 -28 5 -8 0 -14 7 -14 15 0 9 -6 18
-14 21 -7 3 -16 22 -20 43 -6 37 -43 82 -79 94 -13 5 -16 13 -12 27 4 11 -1
34 -9 52 -22 42 -20 51 7 36 60 -33 191 -13 214 33 19 37 63 64 63 39z m409
-9 c7 -5 11 -15 9 -22 -3 -8 1 -22 9 -31 8 -9 13 -26 11 -37 -3 -21 -4 -21
-28 -4 -14 10 -30 18 -36 19 -6 1 -21 5 -32 8 -16 5 -21 2 -24 -16 -4 -22 -5
-22 -13 -3 -12 28 -27 36 -43 23 -9 -8 -16 -8 -20 -2 -4 6 -24 10 -45 9 -33
-1 -37 1 -31 19 9 29 24 37 54 31 14 -3 30 -5 35 -5 6 1 34 2 63 4 29 2 56 6
59 10 8 8 15 7 32 -3z m-305 -53 c-10 -16 -25 17 -17 38 6 15 7 15 15 -5 4
-13 5 -28 2 -33z m-2601 -42 c58 -25 67 -40 67 -108 0 -54 -20 -141 -35 -153
-20 -16 -20 -36 -2 -77 10 -21 17 -51 17 -67 0 -16 5 -33 10 -36 18 -11 0 -26
-19 -16 -10 6 -27 8 -39 5 -19 -5 -20 -3 -15 35 4 31 0 49 -20 83 -23 40 -26
55 -27 168 -2 157 -1 190 5 190 2 0 29 -11 58 -24z m155 -23 c0 -21 3 -86 7
-144 l8 -106 -32 -5 -32 -5 6 66 c8 90 26 214 32 224 8 14 11 7 11 -30z m124
-13 c3 -16 1 -30 -4 -30 -4 0 -8 14 -8 30 0 17 2 30 4 30 2 0 6 -13 8 -30z
m1498 -114 c0 -11 -52 -57 -58 -51 -4 4 6 18 21 31 27 23 37 28 37 20z m-1448
-52 c13 -14 16 -24 9 -29 -6 -3 -11 -21 -12 -38 -1 -22 -5 -12 -14 33 -14 68
-17 96 -8 70 3 -8 14 -25 25 -36z m88 -49 c14 -18 22 -73 11 -79 -11 -7 -9
-122 4 -195 10 -58 -8 -48 -29 17 -11 33 -15 82 -15 167 1 113 9 165 17 120 2
-11 8 -24 12 -30z m-168 -27 c3 -25 2 -52 -3 -60 -6 -8 -9 6 -9 39 0 28 -3 60
-6 70 -5 12 -4 15 3 8 6 -5 13 -31 15 -57z m2009 49 c30 -23 36 -46 26 -110
-5 -34 -10 -75 -11 -92 -1 -27 -38 -74 -58 -75 -4 0 -14 15 -23 34 -18 38 -14
52 32 114 24 31 24 52 0 52 -7 0 -23 9 -37 20 l-25 19 24 25 c27 28 47 32 72
13z m-1441 -163 c0 -3 -9 -19 -20 -35 -19 -26 -20 -31 -6 -57 22 -43 46 -115
40 -121 -10 -10 -44 44 -44 70 0 15 -7 46 -15 69 -23 65 -20 80 15 80 17 0 30
-3 30 -6z m160 -82 c13 -48 23 -109 22 -135 -1 -44 2 -51 43 -91 24 -24 56
-47 72 -50 15 -4 37 -16 49 -27 12 -11 54 -36 95 -57 73 -37 93 -63 54 -71
-10 -2 -33 3 -50 12 -73 36 -112 50 -144 52 -23 2 -43 12 -63 34 -16 17 -33
31 -39 31 -5 0 -16 18 -25 40 -19 46 -36 50 -78 17 l-29 -23 84 -84 c60 -60
92 -84 113 -87 41 -4 100 -37 104 -56 5 -23 -29 -22 -35 1 -2 10 -14 24 -25
31 -18 11 -25 10 -51 -9 -26 -20 -34 -21 -66 -12 -20 6 -54 13 -75 16 -47 6
-74 31 -86 77 -5 19 -15 52 -24 74 -8 22 -15 55 -16 72 0 31 1 32 26 23 37
-14 81 -12 87 4 3 8 -3 49 -14 92 -23 86 -19 131 11 157 11 9 20 26 20 37 0
43 16 16 40 -68z m-405 -45 c11 -5 15 -22 15 -72 0 -37 11 -116 25 -177 30
-133 30 -127 5 -121 -42 11 -73 121 -85 308 -3 44 -8 94 -10 110 -4 30 -4 30
15 -6 11 -20 26 -39 35 -42z m1985 43 c20 -12 9 -21 -18 -13 -12 3 -19 9 -16
14 7 11 15 11 34 -1z m-1860 -56 c0 -17 10 -43 21 -58 18 -23 20 -31 9 -50
-16 -30 -8 -110 17 -167 11 -24 26 -65 32 -90 7 -25 23 -57 35 -70 19 -20 20
-27 10 -37 -16 -15 -44 -16 -44 -2 0 6 -7 10 -15 10 -8 0 -15 6 -16 13 -2 28
-8 56 -28 122 -39 130 -61 303 -44 363 8 31 23 9 23 -34z m-764 8 c10 -24 10
-32 1 -34 -23 -2 -32 -5 -57 -15 -81 -33 -100 -37 -112 -24 -11 10 -8 16 12
32 38 30 124 79 133 76 5 -1 15 -17 23 -35z m131 6 c24 -9 33 -18 33 -35 0
-27 -2 -27 -47 -11 -24 9 -33 18 -33 35 0 27 2 27 47 11z m2453 -27 c0 -6 -5
-13 -10 -16 -15 -9 -43 3 -35 15 8 13 45 13 45 1z m-2125 -61 c22 -11 46 -20
55 -20 11 0 20 -23 34 -83 10 -45 22 -89 26 -97 13 -26 19 -90 9 -90 -5 0 -9
9 -9 20 0 14 -7 20 -22 20 -27 0 -58 27 -58 52 0 10 -3 18 -8 18 -7 0 -45 92
-57 140 -4 14 -9 33 -11 43 -7 21 -7 21 41 -3z m-491 -31 c27 -13 38 -51 31
-108 -15 -116 -14 -166 5 -209 20 -45 17 -79 -5 -49 -6 8 -29 17 -51 19 -32 2
-40 7 -42 26 -4 27 -46 31 -60 6 -5 -9 -17 -14 -28 -12 -16 4 -12 8 18 27 21
13 36 27 33 31 -3 4 2 13 9 20 23 19 28 64 16 146 -10 68 -10 78 6 95 20 22
33 23 68 8z m133 -29 c8 -16 10 -53 7 -105 -6 -97 12 -160 45 -159 12 0 21 -3
21 -7 0 -14 -35 -28 -67 -27 -48 1 -67 46 -59 139 4 41 9 99 11 129 2 30 4 57
5 58 1 11 27 -8 37 -28z m1939 5 c18 -14 18 -14 -8 -15 -18 0 -28 5 -28 15 0
19 11 19 36 0z m877 -37 c-8 -14 -22 -8 -28 12 -10 31 5 45 20 18 6 -12 10
-26 8 -30z m-870 -72 c-3 -17 -10 -39 -14 -48 -6 -11 -4 -22 6 -32 8 -8 15
-23 15 -33 0 -11 9 -29 20 -41 28 -30 5 -29 -54 2 -25 13 -50 26 -56 28 -6 2
-2 26 11 62 13 37 19 71 16 92 l-6 33 34 -16 c30 -14 33 -19 28 -47z m864 -82
c-9 -9 -28 6 -21 18 4 6 10 6 17 -1 6 -6 8 -13 4 -17z m-767 -104 c0 -5 -4
-10 -9 -10 -6 0 -13 5 -16 10 -3 6 1 10 9 10 9 0 16 -4 16 -10z M305 3230 c3
-5 8 -10 11 -10 2 0 4 5 4 10 0 6 -5 10 -11 10 -5 0 -7 -4 -4 -10z M4570 3176
c0 -2 8 -10 18 -17 15 -13 16 -12 3 4 -13 16 -21 21 -21 13z M2547 3009 c7 -7
15 -10 18 -7 3 3 -2 9 -12 12 -14 6 -15 5 -6 -5z M4630 3005 c7 -9 15 -13 17
-11 7 7 -7 26 -19 26 -6 0 -6 -6 2 -15z M4526 2945 c-11 -8 -15 -15 -9 -15 6
0 16 7 23 15 16 19 11 19 -14 0z M810 2801 c0 -6 4 -13 10 -16 6 -3 7 1 4 9
-7 18 -14 21 -14 7z M4265 2779 c-11 -16 -1 -19 13 -3 7 8 8 14 3 14 -5 0 -13
-5 -16 -11z M4367 2284 c-11 -11 5 -34 24 -34 23 0 25 25 3 34 -19 7 -19 7
-27 0z M3790 1760 c0 -5 5 -10 11 -10 5 0 7 5 4 10 -3 6 -8 10 -11 10 -2 0 -4
-4 -4 -10z M1248 3823 c-48 -27 -86 -86 -68 -108 6 -7 2 -15 -10 -22 -19 -12
-18 -44 3 -70 7 -9 5 -13 -7 -13 -18 0 -21 -21 -5 -37 6 -6 17 -22 23 -35 7
-12 18 -22 24 -21 7 2 12 -9 12 -26 0 -25 -5 -30 -31 -36 -20 -5 -34 -3 -39 5
-5 7 -20 9 -42 5 -22 -4 -38 -3 -42 4 -10 16 -56 13 -62 -4 -13 -33 52 -70
101 -56 21 6 37 6 41 0 3 -5 -3 -9 -13 -9 -10 0 -29 -7 -42 -16 -29 -21 -14
-38 37 -41 20 -1 46 -3 57 -5 14 -2 20 2 18 15 0 11 7 27 18 38 10 10 19 26
19 35 0 9 3 14 8 12 52 -27 90 -38 141 -39 36 -1 65 -7 72 -15 18 -22 0 -34
-42 -28 -31 5 -39 3 -39 -9 0 -24 43 -45 108 -52 55 -6 62 -4 76 16 14 21 18
22 53 10 45 -15 68 -33 106 -84 31 -41 69 -48 75 -15 5 29 -94 136 -137 148
-20 5 -43 20 -52 32 -14 18 -20 20 -32 10 -16 -14 -67 -1 -67 17 0 5 -13 14
-30 20 -37 12 -44 53 -9 44 13 -4 27 0 33 8 6 8 23 20 39 26 29 14 36 40 12
49 -10 4 -15 20 -16 48 0 22 -3 57 -7 77 -9 48 -68 116 -106 125 -17 3 -35 10
-41 14 -22 17 -91 8 -137 -17z m102 -62 c0 -5 -7 -11 -14 -14 -10 -4 -13 -1
-9 9 6 15 23 19 23 5z m-40 -63 c0 -23 -3 -29 -9 -19 -8 12 -4 51 5 51 2 0 4
-15 4 -32z m135 2 c0 -20 -6 -26 -27 -28 -32 -4 -32 -3 -18 33 13 34 45 30 45
-5z m-213 -45 c3 -14 1 -25 -3 -25 -5 0 -9 11 -9 25 0 14 2 25 4 25 2 0 6 -11
8 -25z m112 -160 c10 -8 23 -12 27 -9 5 3 9 -2 9 -11 0 -13 -7 -15 -42 -10
-47 7 -58 12 -58 25 0 7 16 14 40 19 3 0 14 -6 24 -14z M2082 3797 c-18 -7
-49 -28 -68 -47 -28 -27 -35 -41 -31 -63 2 -15 0 -30 -4 -33 -10 -6 1 -74 17
-99 21 -35 2 -63 -51 -70 -25 -4 -48 -11 -51 -16 -3 -5 -12 -9 -20 -9 -23 0
-81 -48 -104 -85 -24 -38 -26 -68 -5 -85 22 -19 51 -3 67 38 31 78 137 119
192 73 26 -22 49 -10 73 37 1 2 11 -2 23 -8 12 -6 29 -8 38 -4 9 4 31 6 47 5
17 -1 45 8 63 19 45 28 63 72 52 130 -5 25 -7 65 -4 90 5 42 2 47 -38 87 -38
36 -50 42 -103 47 -37 3 -73 0 -93 -7z m-18 -335 c2 -4 -4 -8 -14 -8 -10 0
-16 4 -14 8 3 4 9 8 14 8 5 0 11 -4 14 -8z M972 3368 c-25 -25 -6 -68 29 -68
21 0 34 47 18 66 -14 17 -31 18 -47 2z M2041 3353 c-20 -16 -22 -23 -12 -41
14 -27 14 -100 0 -141 -9 -26 -9 -36 3 -47 34 -34 66 11 75 102 5 52 9 64 23
64 24 0 32 24 15 47 -11 14 -18 16 -32 7 -14 -9 -21 -7 -33 8 -15 19 -16 19
-39 1z M2925 3104 c-22 -23 -26 -25 -39 -11 -9 9 -25 13 -36 10 -26 -7 -54
-48 -46 -68 7 -19 45 -20 52 0 5 11 11 8 28 -12 27 -32 56 -26 56 12 0 15 6
25 15 25 16 0 35 30 35 54 0 25 -38 19 -65 -10z M3330 3094 c0 -8 5 -12 10 -9
6 3 10 10 10 16 0 5 -4 9 -10 9 -5 0 -10 -7 -10 -16z M3180 3070 c-9 -6 -10
-10 -3 -10 6 0 15 5 18 10 8 12 4 12 -15 0z M3321 3054 c0 -11 3 -14 6 -6 3 7
2 16 -1 19 -3 4 -6 -2 -5 -13z M1155 3046 c-3 -9 -7 -23 -10 -31 -7 -22 20
-90 36 -90 15 0 21 72 7 81 -4 3 -8 14 -8 24 0 24 -19 36 -25 16z M3018 2999
c-10 -10 -24 -16 -31 -13 -7 2 -22 -4 -32 -16 -10 -11 -13 -20 -7 -20 6 0 16
8 21 18 8 13 13 14 19 4 6 -9 14 -6 32 13 13 14 22 26 19 28 -2 2 -12 -4 -21
-14z M3095 3010 c-3 -5 -3 -14 0 -20 3 -5 2 -10 -4 -10 -6 0 -8 -7 -4 -16 8
-22 28 0 28 31 1 26 -9 33 -20 15z M3040 2980 c-12 -7 -10 -9 7 -7 12 0 19 5
17 9 -6 10 -6 10 -24 -2z M55 2960 c-3 -5 -1 -10 4 -10 6 0 11 5 11 10 0 6 -2
10 -4 10 -3 0 -8 -4 -11 -10z M195 2830 c-3 -5 -2 -10 4 -10 5 0 13 5 16 10 3
6 2 10 -4 10 -5 0 -13 -4 -16 -10z M3751 2803 c-10 -11 -10 -18 -2 -26 14 -14
23 -4 19 21 -3 18 -5 18 -17 5z M185 2798 c-18 -5 -50 -34 -83 -73 -48 -59
-53 -69 -50 -107 l3 -43 40 45 c87 96 124 132 133 126 11 -7 7 44 -5 54 -4 4
-21 3 -38 -2z M285 2800 c3 -5 11 -10 16 -10 6 0 7 5 4 10 -3 6 -11 10 -16 10
-6 0 -7 -4 -4 -10z M3642 2764 c-7 -8 -8 -14 -3 -14 10 0 25 19 20 25 -2 1
-10 -3 -17 -11z M3363 2748 c0 -7 6 -19 13 -25 9 -9 14 -8 18 4 4 9 4 18 1 21
-3 3 -5 -1 -5 -8 0 -9 -4 -8 -13 4 -10 14 -14 15 -14 4z M3450 2748 c0 -9 5
-20 10 -23 13 -8 13 5 0 25 -8 13 -10 13 -10 -2z M3667 2743 c-4 -3 -7 -11 -7
-17 0 -6 5 -5 12 2 6 6 9 14 7 17 -3 3 -9 2 -12 -2z M3165 2730 c-3 -5 1 -10
9 -10 9 0 16 5 16 10 0 6 -4 10 -9 10 -6 0 -13 -4 -16 -10z M3255 2715 c-10
-13 -24 -21 -29 -18 -5 3 -6 1 -2 -5 7 -12 46 -12 46 1 0 4 6 5 13 1 9 -6 9
-4 -1 8 -10 13 -10 17 0 20 7 3 8 7 3 10 -6 3 -19 -5 -30 -17z M2817 2705 c3
-8 9 -12 14 -9 12 7 11 11 -5 17 -10 4 -13 1 -9 -8z M2782 2698 c-15 -15 -15
-28 -1 -28 5 0 8 4 5 9 -4 5 0 11 6 14 7 2 10 7 7 10 -3 4 -11 1 -17 -5z
M3170 2684 c0 -8 5 -12 10 -9 6 3 10 10 10 16 0 5 -4 9 -10 9 -5 0 -10 -7 -10
-16z M3310 2689 c0 -5 5 -7 10 -4 6 3 10 8 10 11 0 2 -4 4 -10 4 -5 0 -10 -5
-10 -11z M3705 2690 c3 -5 8 -10 11 -10 2 0 4 5 4 10 0 6 -5 10 -11 10 -5 0
-7 -4 -4 -10z M3740 2686 c0 -3 9 -10 20 -16 11 -6 20 -8 20 -6 0 3 -9 10 -20
16 -11 6 -20 8 -20 6z M2990 2676 c0 -2 7 -7 16 -10 8 -3 12 -2 9 4 -6 10 -25
14 -25 6z M4480 2661 c0 -30 15 -34 125 -37 112 -3 140 5 114 32 -13 12 -42
17 -128 20 -105 4 -111 4 -111 -15z M1485 2661 c-9 -16 30 -32 43 -19 7 7 12
16 12 20 0 11 -48 10 -55 -1z M2990 2640 c0 -5 5 -10 11 -10 5 0 7 5 4 10 -3
6 -8 10 -11 10 -2 0 -4 -4 -4 -10z M473 2630 c-13 -5 -23 -12 -23 -14 0 -10
55 -56 65 -55 5 0 4 3 -2 6 -21 8 -15 20 12 27 37 9 35 46 -2 45 -16 0 -38 -4
-50 -9z M223 2620 c-20 -8 -110 -73 -138 -100 -40 -38 -48 -80 -16 -80 11 0
23 5 26 10 4 6 14 8 23 6 13 -4 17 1 19 20 0 15 7 30 15 35 114 71 164 146 71
109z M361 2574 c-11 -8 -21 -12 -21 -9 0 3 -10 0 -22 -7 -13 -7 -27 -13 -33
-14 -5 -1 -28 -9 -50 -18 -22 -9 -50 -21 -62 -26 -25 -10 -27 -18 -13 -40 8
-13 14 -13 42 -1 18 8 43 14 55 15 11 0 19 4 17 8 -10 15 20 20 31 5 7 -10 16
-17 21 -17 4 0 3 5 -4 12 -19 19 -14 28 17 28 16 0 32 6 35 13 5 10 7 10 12 0
3 -7 11 -13 17 -13 5 0 8 3 5 6 -3 3 5 16 19 30 13 13 22 28 19 33 -9 14 -62
11 -85 -5z M591 2581 c-12 -7 -12 -13 -3 -24 7 -7 9 -17 5 -20 -9 -10 1 -9 31
3 18 7 37 5 67 -5 24 -9 47 -11 53 -7 18 14 69 4 121 -24 42 -22 57 -25 102
-19 29 3 56 11 59 17 8 13 -25 40 -41 34 -14 -5 -113 20 -129 33 -16 13 -248
24 -265 12z M3110 2560 c0 -5 5 -10 10 -10 6 0 10 5 10 10 0 6 -4 10 -10 10
-5 0 -10 -4 -10 -10z M4088 2545 c-2 -3 -37 -6 -76 -7 -39 -2 -69 -5 -67 -7 3
-2 -10 -11 -28 -20 -35 -18 -41 -38 -15 -55 13 -8 24 -7 45 5 28 16 69 26 147
35 47 6 61 16 53 38 -6 15 -47 22 -59 11z M2975 2530 c-3 -5 -1 -10 4 -10 6 0
11 5 11 10 0 6 -2 10 -4 10 -3 0 -8 -4 -11 -10z M2900 2519 c0 -5 5 -7 10 -4
6 3 10 8 10 11 0 2 -4 4 -10 4 -5 0 -10 -5 -10 -11z M2943 2515 c0 -8 6 -16
13 -19 7 -3 10 2 7 15 -6 22 -20 26 -20 4z M2988 2480 c2 -16 8 -27 13 -24 5
3 7 9 4 14 -3 4 2 11 11 14 19 7 12 19 -14 23 -15 2 -18 -3 -14 -27z M2557
2416 c-5 -12 -18 -14 -54 -11 -30 2 -42 1 -33 -5 24 -15 88 -9 95 8 3 8 4 17
1 19 -2 2 -6 -3 -9 -11z M2585 2409 c-12 -19 5 -23 22 -6 16 16 16 17 1 17 -9
0 -20 -5 -23 -11z M987 2339 c7 -7 15 -10 18 -7 3 3 -2 9 -12 12 -14 6 -15 5
-6 -5z M4842 2327 c-8 -10 -6 -13 7 -13 11 0 17 6 14 13 -3 7 -6 13 -8 13 -1
0 -7 -6 -13 -13z M672 2311 c-7 -4 -8 -12 -2 -21 8 -12 10 -12 10 -1 0 11 3
11 15 1 19 -15 20 -3 2 15 -8 7 -19 10 -25 6z M710 2316 c0 -2 7 -7 16 -10 8
-3 12 -2 9 4 -6 10 -25 14 -25 6z M753 2304 c0 -7 8 -15 17 -17 9 -2 17 2 17
9 0 7 -8 15 -17 17 -9 2 -17 -2 -17 -9z M820 2310 c-12 -7 -10 -9 7 -7 12 0
19 5 17 9 -6 10 -6 10 -24 -2z M1255 2310 c-4 -6 1 -24 9 -42 9 -17 14 -40 11
-49 -5 -14 1 -20 19 -25 14 -3 30 -3 35 1 16 9 13 51 -4 65 -8 7 -15 23 -15
36 0 19 -5 24 -24 24 -14 0 -28 -5 -31 -10z M479 2253 c-13 -16 -12 -17 4 -4
9 7 17 15 17 17 0 8 -8 3 -21 -13z M766 2255 c-3 -8 -1 -15 4 -15 6 0 10 7 10
15 0 8 -2 15 -4 15 -2 0 -6 -7 -10 -15z M570 2241 c0 -9 30 -24 36 -18 2 1 -6
8 -16 15 -11 7 -20 8 -20 3z M240 2229 c0 -6 -9 -8 -22 -3 -20 6 -20 4 5 -16
15 -12 31 -20 34 -16 4 3 1 6 -5 6 -7 0 -12 5 -12 11 0 6 7 8 16 5 14 -5 15
-4 4 9 -15 18 -20 19 -20 4z M705 2230 c-3 -5 -13 -7 -23 -4 -14 5 -15 4 -2
-5 20 -14 27 -14 34 4 6 17 0 20 -9 5z M436 2203 c-6 -14 -5 -15 5 -6 7 7 10
15 7 18 -3 3 -9 -2 -12 -12z M1610 2210 c0 -5 9 -10 20 -10 11 0 20 5 20 10 0
6 -9 10 -20 10 -11 0 -20 -4 -20 -10z M320 2199 c0 -6 -7 -8 -16 -5 -14 6 -15
4 -4 -9 9 -11 15 -13 20 -4 6 8 13 8 29 0 29 -16 27 -7 -4 13 -16 10 -25 12
-25 5z M570 2206 c0 -2 7 -7 16 -10 8 -3 12 -2 9 4 -6 10 -25 14 -25 6z M63
2156 c-9 -11 -7 -14 12 -12 17 1 21 4 13 14 -12 14 -10 14 -25 -2z M150 2166
c0 -2 7 -9 15 -16 9 -7 15 -8 15 -2 0 5 -7 12 -15 16 -8 3 -15 4 -15 2z M3047
2159 c7 -7 15 -10 18 -7 3 3 -2 9 -12 12 -14 6 -15 5 -6 -5z M3220 2161 c0 -5
5 -13 10 -16 6 -3 10 -2 10 4 0 5 -4 13 -10 16 -5 3 -10 2 -10 -4z M434 1978
c10 -6 22 -6 26 -2 5 5 -3 10 -18 11 -22 1 -24 0 -8 -9z M1285 1970 c3 -5 10
-10 16 -10 5 0 9 5 9 10 0 6 -7 10 -16 10 -8 0 -12 -4 -9 -10z M2930 1969 c0
-5 5 -7 10 -4 6 3 10 8 10 11 0 2 -4 4 -10 4 -5 0 -10 -5 -10 -11z M4238 1951
c4 -10 1 -12 -8 -6 -9 6 -11 4 -5 -6 5 -7 14 -36 20 -63 16 -69 32 -70 37 -2
1 31 -1 56 -6 56 -4 0 -6 8 -4 18 4 12 -1 17 -17 17 -15 0 -21 -5 -17 -14z
M400 1839 c0 -5 5 -7 10 -4 6 3 10 8 10 11 0 2 -4 4 -10 4 -5 0 -10 -5 -10
-11z M4126 1835 c-3 -8 -9 -15 -13 -14 -22 4 -32 -4 -42 -33 -6 -17 -8 -29 -5
-25 13 12 44 -41 44 -75 0 -19 5 -39 11 -45 6 -6 16 -21 23 -34 17 -34 80 -81
99 -73 24 9 21 51 -4 66 -22 14 -64 86 -55 95 3 3 12 1 20 -6 23 -20 49 14 40
53 -4 17 -8 39 -8 48 0 9 -2 15 -4 14 -2 -2 -14 7 -27 20 -27 27 -70 32 -79 9z
M4650 1806 c0 -2 7 -7 16 -10 8 -3 12 -2 9 4 -6 10 -25 14 -25 6z M4597 1779
c7 -7 15 -10 18 -7 3 3 -2 9 -12 12 -14 6 -15 5 -6 -5z M4634 1769 c-3 -6 -2
-15 3 -20 5 -5 9 -1 9 11 0 23 -2 24 -12 9z M4667 1773 c-4 -3 -7 -11 -7 -17
0 -6 5 -5 12 2 6 6 9 14 7 17 -3 3 -9 2 -12 -2z M4250 1758 c0 -2 4 -18 9 -36
6 -18 6 -30 2 -28 -4 3 -18 -4 -29 -15 -26 -23 -28 -31 -7 -23 11 4 15 -1 15
-17 1 -16 17 -37 50 -64 26 -22 53 -41 59 -43 17 -6 13 19 -6 40 -9 11 -11 18
-5 18 7 0 12 16 12 38 0 23 -3 32 -8 24 -6 -9 -14 1 -26 30 -28 66 -32 73 -50
76 -9 2 -16 2 -16 0z M4596 1745 c4 -8 11 -15 16 -15 6 0 5 6 -2 15 -7 8 -14
15 -16 15 -2 0 -1 -7 2 -15z M4810 1730 c-8 -5 -10 -10 -5 -10 6 0 17 5 25 10
8 5 11 10 5 10 -5 0 -17 -5 -25 -10z M1337 1633 c-3 -7 -3 -46 2 -77 0 -6 7
-4 13 2 9 9 9 15 3 20 -6 4 -10 19 -10 35 1 28 -1 32 -8 20z M4300 1546 c0 -2
7 -12 16 -20 17 -18 39 -22 29 -6 -7 11 -45 33 -45 26z M4736 929 c-15 -9 -16
-13 -5 -20 8 -5 26 -9 42 -9 15 0 27 -3 27 -7 0 -10 -49 -8 -72 2 -30 12 -48
-2 -48 -38 0 -33 0 -34 -62 -43 -39 -6 -65 -15 -72 -26 -14 -23 0 -36 64 -58
l51 -17 -59 -6 c-62 -5 -112 -29 -112 -53 0 -21 45 -35 119 -38 36 -1 66 -7
68 -12 2 -6 -11 -8 -32 -6 -54 6 -82 -4 -90 -35 -4 -19 -2 -31 10 -39 22 -16
52 -7 58 18 4 14 12 19 29 16 19 -2 24 -11 30 -53 5 -27 6 -88 3 -133 -7 -100
8 -135 53 -130 20 2 26 8 25 23 -2 11 -2 34 -2 50 0 17 1 76 2 133 l2 103 90
-3 90 -3 3 57 3 57 -73 -1 c-113 0 -130 1 -124 10 2 4 44 9 93 11 48 1 90 4
94 6 3 2 6 22 7 44 l2 39 -100 -2 c-79 -2 -103 1 -113 12 -10 13 -2 14 66 9
68 -5 78 -3 87 13 12 23 -3 30 -68 31 l-47 1 39 9 c50 12 68 27 64 53 -6 39
-96 61 -142 35z m34 -95 c0 -2 -7 -4 -15 -4 -8 0 -15 4 -15 10 0 5 7 7 15 4 8
-4 15 -8 15 -10z m-97 -61 c-7 -2 -19 -2 -25 0 -7 3 -2 5 12 5 14 0 19 -2 13
-5z m177 -53 c0 -5 -17 -10 -37 -10 -28 0 -34 3 -23 10 20 13 60 13 60 0z
m-170 -50 c0 -16 -18 -21 -62 -14 -32 6 -38 9 -23 14 30 10 85 11 85 0z m250
-57 c-1 -27 -21 -34 -87 -32 -75 2 -100 10 -89 28 8 12 176 16 176 4z M4795
470 c-11 -17 6 -31 33 -27 40 5 42 37 3 37 -16 0 -33 -4 -36 -10z"/>
</g>
</svg>
