<?xml version="1.0" standalone="no"?>
<!DOCTYPE svg PUBLIC "-//W3C//DTD SVG 20010904//EN"
 "http://www.w3.org/TR/2001/REC-SVG-20010904/DTD/svg10.dtd">
<svg version="1.0" xmlns="http://www.w3.org/2000/svg"
 width="500.000000pt" height="878.000000pt" viewBox="0 0 500.000000 878.000000"
 preserveAspectRatio="xMidYMid meet">
<metadata>
Created by potrace 1.16, written by Peter Selinger 2001-2019
</metadata>
<g transform="translate(0.000000,878.000000) scale(0.100000,-0.100000)"
fill="#000000" stroke="none">
<path d="M1952 8679 c2 -6 8 -10 13 -10 5 0 11 4 13 10 2 6 -4 11 -13 11 -9 0
-15 -5 -13 -11z M2960 7243 c-287 -27 -587 -170 -793 -378 -50 -49 -97 -101
-105 -115 -9 -14 -29 -42 -44 -62 -73 -95 -157 -303 -189 -468 -21 -108 -16
-339 11 -448 32 -134 85 -263 152 -369 42 -66 41 -83 -7 -91 -11 -2 -32 -13
-46 -23 -15 -10 -32 -19 -37 -19 -6 0 -32 -17 -59 -38 -53 -43 -145 -83 -256
-112 -40 -11 -115 -31 -166 -45 -52 -14 -100 -25 -107 -25 -7 0 -11 20 -12 58
0 76 -6 106 -33 148 -14 24 -24 32 -29 24 -4 -7 -8 -1 -7 15 0 29 -42 78 -104
121 -29 20 -36 30 -29 42 43 83 58 188 36 262 l-16 53 59 66 c107 121 163 228
202 388 59 238 -42 529 -247 710 -116 103 -241 165 -399 201 -76 17 -234 18
-323 2 -88 -15 -362 -111 -362 -126 0 -9 12 -14 33 -14 40 0 116 -55 147 -105
47 -77 7 -204 -66 -205 -30 0 -57 34 -52 65 5 23 3 26 -21 23 -18 -2 -27 -10
-29 -25 -5 -31 15 -63 38 -63 11 0 20 -4 20 -10 0 -15 67 -12 98 4 102 53 120
175 38 264 l-41 46 33 -20 c42 -23 73 -65 75 -101 3 -36 25 -41 37 -8 7 19 6
35 -4 59 -14 33 -84 97 -120 110 -15 5 -17 9 -7 19 10 9 14 8 22 -5 9 -17 12
-17 41 -2 101 52 281 65 405 28 17 -5 23 -2 23 10 0 17 16 16 89 -6 34 -10
153 -66 200 -93 53 -30 172 -149 217 -216 48 -73 97 -185 109 -251 7 -34 5
-38 -14 -38 -18 0 -20 -4 -15 -27 8 -34 23 -55 35 -47 5 3 9 -18 9 -45 0 -45
-2 -51 -20 -48 -19 2 -21 -4 -25 -98 -2 -55 -7 -109 -11 -120 -8 -19 -8 -18
-14 5 -11 47 -34 29 -47 -37 -14 -69 -79 -186 -119 -216 -23 -17 -27 -18 -43
-3 -19 18 -47 21 -56 7 -6 -10 21 -41 36 -41 5 0 9 -7 9 -15 0 -8 4 -15 9 -15
20 0 43 -110 31 -144 -5 -16 -8 -15 -19 12 -14 33 -39 48 -54 33 -5 -5 -3 -18
7 -34 12 -18 15 -40 12 -85 -6 -91 -12 -97 -72 -74 -81 31 -217 34 -312 7 -82
-24 -174 -78 -233 -138 -54 -54 -100 -140 -101 -189 -1 -24 -4 -27 -25 -22
-31 8 -151 -31 -208 -67 -34 -22 -45 -35 -45 -54 l0 -26 38 31 c39 31 135 70
172 70 32 0 46 -20 54 -75 10 -65 35 -125 52 -125 8 0 14 -5 14 -11 0 -5 -4
-7 -10 -4 -6 3 -10 -4 -10 -17 0 -54 100 -168 195 -223 29 -18 63 -26 127 -31
48 -4 95 -3 105 1 10 4 33 7 51 6 41 -3 92 8 92 20 0 5 -8 9 -17 9 -12 0 -7 7
15 21 20 13 45 45 63 80 25 51 28 66 23 111 -11 102 -87 208 -149 208 -12 0
-40 -9 -63 -20 -22 -11 -45 -20 -51 -20 -18 0 -38 -40 -33 -65 5 -30 33 -47
69 -43 36 4 41 26 9 38 -33 12 -25 35 16 49 49 17 64 13 100 -24 110 -118 53
-282 -114 -326 -64 -17 -181 8 -252 56 -95 63 -139 135 -153 250 -16 125 -7
249 21 290 82 121 171 176 316 195 71 10 204 -7 290 -35 56 -19 146 -102 175
-162 11 -23 22 -40 25 -38 3 2 5 -7 6 -18 0 -12 4 -44 8 -70 5 -27 5 -63 2
-81 -7 -35 -57 -93 -93 -107 -35 -13 -85 -89 -81 -121 4 -23 0 -29 -24 -37
-15 -6 -28 -14 -28 -19 0 -11 87 -35 98 -28 22 13 132 -78 188 -155 73 -101
95 -233 55 -332 -6 -16 -11 -30 -11 -32 0 -2 -13 -23 -29 -47 -39 -57 -109
-122 -146 -136 -86 -31 -210 -40 -295 -22 -119 26 -165 45 -209 87 -24 24 -51
43 -59 43 -23 0 -51 42 -58 88 -6 42 -22 53 -52 33 -22 -13 20 -120 60 -154
18 -15 53 -45 78 -67 69 -61 84 -69 173 -95 152 -45 331 -23 403 49 11 12 42
37 67 56 25 19 46 38 47 42 0 4 12 20 26 35 14 15 34 46 45 67 24 50 43 195
30 228 -6 12 -17 48 -25 79 -29 105 -164 251 -249 268 -28 6 -32 11 -29 37 5
42 30 78 82 115 25 18 52 42 61 54 11 13 40 25 80 34 35 8 69 16 74 20 6 3 17
6 25 8 15 2 63 15 205 55 98 28 181 66 240 109 51 37 150 86 219 109 63 20
195 19 406 -6 148 -17 217 -35 315 -83 182 -89 214 -101 277 -107 34 -4 68
-10 73 -14 10 -7 71 -24 130 -36 17 -4 64 -10 105 -15 77 -8 103 -13 180 -31
58 -13 132 -39 145 -50 14 -12 -7 -10 -51 5 -22 8 -60 17 -85 20 -55 7 -80 -7
-82 -46 -1 -15 -8 -27 -14 -27 -7 0 -13 -6 -14 -12 0 -7 -2 -21 -4 -30 -6 -30
48 -64 120 -78 79 -15 96 -6 69 35 -16 25 -19 26 -31 9 -11 -15 -18 -16 -52
-6 -46 14 -65 34 -57 60 8 24 56 89 56 75 0 -6 23 -14 50 -18 28 -4 50 -11 50
-16 0 -5 10 -9 23 -9 52 -1 58 -34 16 -89 -25 -32 -24 -41 6 -41 19 0 30 10
46 41 11 23 19 52 16 65 -5 30 8 53 23 38 19 -19 -30 -128 -73 -164 -16 -13
-32 -14 -95 -7 -43 4 -81 8 -87 9 -5 0 -28 -2 -50 -6 -40 -7 -173 -8 -210 -3
-11 2 -51 14 -89 27 -56 18 -93 23 -187 24 -105 1 -120 -1 -146 -21 -27 -19
-33 -20 -54 -8 -48 28 -72 35 -91 29 -28 -9 -17 -26 32 -50 52 -25 45 -31 -52
-47 -79 -14 -105 -37 -41 -37 21 0 67 5 103 10 111 17 105 18 102 -12 -4 -32
17 -38 38 -13 7 9 19 14 26 11 7 -3 15 0 17 7 2 7 7 9 11 6 4 -4 1 -13 -6 -20
-28 -28 -64 -154 -48 -164 15 -9 2 -25 -22 -25 -14 0 -18 -5 -14 -16 3 -9 6
-18 6 -20 0 -23 51 37 58 69 6 25 34 82 46 91 8 6 16 22 18 36 2 19 11 26 38
32 19 3 76 16 125 28 78 19 123 22 338 24 231 2 249 4 275 22 32 24 88 133 95
186 5 35 4 36 -29 42 -19 4 -34 9 -34 12 0 10 55 53 68 54 25 0 238 225 295
313 62 93 130 230 141 284 5 22 12 30 22 26 8 -3 22 1 32 9 26 22 64 35 92 32
14 -1 30 -3 37 -3 14 -1 27 -24 37 -65 6 -25 5 -28 -7 -17 -12 9 -21 9 -41 0
-14 -7 -26 -16 -26 -20 0 -5 -13 -23 -29 -42 -16 -18 -33 -46 -37 -63 -4 -16
-13 -42 -21 -57 -12 -24 -12 -32 -1 -50 22 -35 20 -75 -7 -117 -14 -22 -25
-43 -25 -47 0 -4 -9 -16 -19 -27 -25 -27 -101 -170 -101 -189 0 -8 -6 -17 -14
-20 -7 -3 -22 -23 -33 -44 -12 -22 -42 -73 -69 -114 -64 -99 -71 -110 -84
-137 -19 -44 -83 -113 -122 -133 -21 -11 -65 -24 -96 -30 -31 -6 -72 -19 -90
-29 -17 -11 -38 -17 -46 -14 -8 3 -17 1 -20 -5 -7 -10 -104 -43 -241 -81 -154
-43 -181 -53 -274 -101 -102 -53 -113 -56 -131 -34 -16 20 -105 16 -105 -5 0
-17 57 -32 125 -33 35 0 58 8 102 35 69 43 130 66 263 103 55 15 141 42 190
60 84 30 139 48 289 91 79 24 128 67 210 188 37 55 66 97 65 91 -13 -37 -90
-185 -137 -264 -37 -62 -67 -100 -91 -115 -39 -25 -150 -60 -221 -71 -25 -4
-79 -17 -120 -30 -41 -13 -104 -30 -140 -38 -65 -15 -177 -63 -260 -113 -25
-15 -69 -35 -98 -45 -52 -18 -54 -18 -106 2 -29 10 -80 20 -114 22 -33 1 -60
6 -59 11 3 13 -143 47 -171 40 -13 -2 -21 -1 -18 4 7 12 -228 81 -399 116
-126 26 -306 68 -372 86 -24 7 -50 9 -59 6 -15 -6 -15 -8 1 -26 10 -11 16 -22
14 -24 -6 -5 -275 -72 -321 -80 -23 -4 -42 -15 -48 -27 -14 -24 -3 -42 20 -36
27 7 125 -18 152 -38 31 -24 95 -106 108 -139 17 -45 15 -166 -4 -221 -18 -52
-68 -121 -120 -167 -52 -46 -146 -72 -258 -73 -53 0 -99 -3 -102 -6 -4 -3 1
-12 10 -20 12 -10 47 -14 119 -14 111 0 126 -6 144 -56 13 -37 8 -36 -32 1
-34 32 -44 35 -66 21 -11 -7 -6 -17 23 -47 43 -45 47 -85 14 -151 -23 -46 -92
-99 -157 -121 -122 -42 -321 28 -321 113 0 12 22 42 51 70 63 62 79 92 79 150
0 65 -48 109 -79 71 -10 -11 -8 -16 8 -21 25 -8 35 -37 26 -82 -9 -48 -94
-137 -160 -168 -107 -48 -145 -57 -235 -51 -263 18 -496 169 -580 375 l-19 46
0 -61 c-1 -52 4 -67 30 -108 18 -26 43 -52 55 -57 13 -4 24 -15 24 -23 0 -23
102 -103 171 -135 175 -79 360 -97 493 -47 38 14 72 26 75 26 4 0 15 -15 24
-34 55 -116 271 -151 434 -71 102 50 163 142 151 226 -4 24 -1 28 21 31 34 4
38 40 11 92 -11 22 -19 40 -17 40 1 1 28 15 61 31 71 36 110 80 160 181 38 75
39 78 33 163 -4 61 -13 103 -30 141 -23 54 -107 153 -137 162 -8 3 -12 9 -8
13 10 11 270 77 298 76 14 -1 90 -15 170 -32 80 -16 188 -39 240 -49 52 -11
142 -36 200 -56 58 -19 142 -43 187 -53 45 -9 85 -20 89 -24 4 -4 28 -7 53 -7
25 0 60 -8 76 -17 46 -25 173 -23 212 5 16 11 42 24 59 28 16 4 34 10 39 14
42 32 186 96 260 115 50 13 115 31 145 40 30 9 74 21 97 25 82 18 183 52 207
71 13 10 29 19 35 19 14 0 82 105 146 225 82 154 116 215 126 221 5 3 9 12 9
20 0 8 21 50 46 93 31 54 48 96 53 133 4 35 18 69 38 98 36 54 73 128 73 149
0 8 6 22 14 30 8 9 38 62 65 118 71 142 69 208 -5 239 -38 16 -84 11 -143 -13
-18 -8 -34 -13 -36 -11 -1 2 3 37 10 78 38 218 21 470 -41 605 -13 28 -28 64
-34 80 -17 45 -96 183 -140 245 -58 81 -230 250 -254 250 -5 0 -26 16 -48 35
-81 69 -379 194 -500 210 -24 3 -70 9 -103 14 -58 8 -214 11 -285 4z m355 -69
c173 -28 343 -95 501 -200 63 -42 217 -190 283 -272 24 -28 47 -49 53 -46 5 3
8 -2 7 -12 -2 -11 17 -59 42 -109 83 -162 129 -343 129 -505 0 -237 -82 -496
-211 -666 -156 -207 -389 -390 -424 -334 -3 6 -26 15 -51 21 -24 6 -44 15 -44
19 0 4 15 13 33 20 46 19 150 93 236 169 136 121 251 306 307 496 39 132 44
309 15 462 -12 62 -33 139 -45 171 -49 125 -153 278 -258 378 -210 202 -546
326 -838 310 -124 -7 -128 -8 -242 -37 -540 -138 -886 -631 -813 -1157 23
-162 76 -300 170 -436 25 -38 45 -69 43 -71 -2 -1 -28 -7 -58 -13 -53 -11 -56
-10 -76 14 -67 81 -158 298 -192 459 -12 58 -8 358 6 410 53 195 126 351 221
470 155 196 313 312 536 395 222 83 426 102 670 64z m-5 -168 c104 -23 136
-32 187 -56 26 -12 73 -34 103 -48 134 -62 299 -206 392 -342 86 -127 153
-321 165 -476 6 -90 -10 -255 -33 -323 -26 -78 -85 -215 -100 -232 -8 -8 -14
-19 -14 -23 0 -14 -89 -124 -149 -184 -73 -74 -161 -137 -275 -197 l-90 -47
-95 12 c-121 14 -212 30 -231 40 -8 4 -42 15 -74 24 -33 10 -118 47 -190 83
-137 68 -201 92 -251 93 l-30 1 25 20 c14 11 117 86 228 165 220 155 212 152
267 104 22 -19 227 -164 341 -241 50 -34 77 -46 92 -42 12 3 22 7 22 10 0 8
-71 228 -154 478 l-23 70 61 44 c74 53 357 250 408 285 25 17 36 31 32 41 -5
13 -47 15 -313 15 l-307 0 -11 33 c-6 17 -35 106 -63 197 -88 282 -102 320
-122 331 -10 5 -22 8 -27 5 -5 -3 -27 -63 -51 -133 -23 -71 -44 -135 -47 -143
-3 -8 -26 -76 -52 -150 l-46 -135 -45 -2 c-25 -1 -165 -2 -312 -3 -284 -1
-302 -5 -255 -48 20 -18 312 -226 414 -296 24 -16 47 -34 53 -41 8 -10 -7 -68
-55 -217 -37 -111 -73 -223 -81 -247 -8 -25 -14 -55 -14 -68 0 -19 -4 -23 -19
-18 -10 3 -77 10 -147 15 l-129 9 -40 45 c-158 178 -243 462 -215 716 23 210
138 439 296 590 88 84 141 126 196 154 25 13 35 23 31 35 -4 12 -3 13 5 3 7
-11 21 -8 68 16 184 91 461 123 674 78z m-155 -411 c26 -82 56 -179 67 -215
11 -36 22 -73 25 -82 5 -17 -7 -18 -150 -18 -86 0 -158 3 -160 8 -3 4 24 93
60 197 35 105 72 211 81 238 10 29 19 42 23 35 4 -7 28 -80 54 -163z m-45
-355 l158 0 51 -159 c28 -88 51 -162 51 -164 0 -3 -44 -36 -97 -73 -54 -38
-118 -83 -141 -101 l-44 -33 -46 33 c-26 19 -85 60 -132 92 -47 32 -89 62 -94
66 -8 7 52 218 75 261 5 10 9 24 9 32 0 18 44 68 48 56 2 -6 71 -10 162 -10z
m-255 -42 c-24 -80 -84 -250 -89 -255 -3 -3 -46 23 -95 58 -50 35 -142 99
-206 143 -63 43 -115 82 -115 87 0 5 114 9 259 9 l259 0 -13 -42z m955 35 c0
-5 -61 -51 -136 -103 -74 -52 -162 -115 -195 -139 -33 -24 -64 -40 -68 -35 -8
10 -91 258 -91 274 0 6 90 10 245 10 135 0 245 -3 245 -7z m-881 -466 c58 -40
106 -77 107 -83 2 -5 -23 -26 -54 -47 -31 -21 -80 -55 -108 -75 -127 -92 -217
-152 -221 -148 -5 5 61 223 109 358 26 75 33 86 47 77 9 -5 63 -42 120 -82z
m487 1 c16 -51 49 -155 74 -230 25 -76 45 -138 43 -138 -3 0 -277 190 -350
244 -29 21 -53 41 -53 44 0 4 17 18 38 31 57 37 102 69 152 106 25 19 50 34
56 34 7 1 25 -41 40 -91z m1114 -183 c0 -3 -14 -27 -30 -54 -17 -26 -35 -63
-41 -80 -10 -28 -29 -43 -29 -23 0 43 63 162 85 162 8 0 15 -2 15 -5z m-1385
-809 c11 -2 26 -4 33 -5 6 0 12 -5 12 -9 0 -12 -159 -44 -187 -38 -36 8 -85
48 -71 58 11 8 148 3 213 -6z M50 6880 c0 -5 16 -16 35 -24 20 -9 39 -26 45
-41 11 -28 22 -32 39 -11 15 18 2 47 -31 70 -25 18 -88 22 -88 6z M50 6390 c0
-5 14 -10 30 -10 17 0 33 0 37 -1 4 0 9 4 11 10 2 7 -12 11 -37 11 -23 0 -41
-4 -41 -10z M117 6354 c-13 -13 -7 -24 14 -24 29 0 59 -18 67 -40 5 -13 12
-16 21 -11 17 11 6 48 -17 60 -26 14 -77 22 -85 15z M52 6303 c2 -10 13 -19
26 -21 46 -7 69 -86 37 -128 -8 -10 -15 -28 -15 -40 0 -11 -11 -31 -25 -44
-16 -15 -25 -34 -25 -53 l0 -30 35 46 c40 52 150 123 205 132 33 6 31 4 -16
-19 -52 -27 -92 -62 -82 -72 4 -3 23 5 45 18 47 30 156 60 203 56 28 -2 35 0
34 15 -2 19 34 23 71 7 18 -7 19 -8 3 -15 -23 -9 -23 -21 0 -29 9 -3 31 -14
47 -25 17 -11 38 -20 48 -20 9 -1 17 -8 17 -16 0 -20 16 -19 38 3 9 9 30 22
47 27 21 7 31 19 37 43 15 58 89 66 156 15 63 -48 29 -125 -62 -142 -61 -11
-80 -33 -71 -81 9 -49 29 -67 89 -81 99 -22 146 8 54 35 -88 25 -132 96 -60
96 42 0 109 52 120 92 13 51 3 76 -46 114 -38 29 -53 34 -98 34 -45 0 -59 -5
-89 -31 -19 -17 -35 -37 -35 -45 0 -11 -8 -9 -37 6 -59 30 -189 55 -284 55
-90 -1 -199 -26 -232 -53 -24 -21 -27 -13 -17 33 7 33 5 45 -12 73 -29 48
-113 83 -106 45z m395 -119 c-3 -3 -12 -4 -19 -1 -8 3 -5 6 6 6 11 1 17 -2 13
-5z m183 -45 c26 -15 29 -18 10 -13 -35 9 -78 33 -60 33 8 0 31 -9 50 -20z
M195 6220 c-4 -7 -3 -16 3 -22 14 -14 45 -2 40 15 -6 16 -34 21 -43 7z M592
6035 c-11 -14 -23 -43 -27 -64 -4 -27 -13 -41 -26 -44 -52 -14 7 -151 81 -189
58 -29 171 -28 268 3 48 16 35 34 -21 30 -83 -5 -172 32 -218 90 -43 55 -52
127 -20 170 21 28 21 29 2 29 -11 0 -29 -11 -39 -25z m78 -257 c19 -9 46 -21
60 -27 25 -10 25 -10 -5 -10 -38 -1 -103 40 -133 83 -35 51 -26 62 11 14 18
-24 48 -51 67 -60z M50 5615 c0 -18 5 -25 20 -25 11 0 20 3 20 8 0 4 -9 15
-20 25 -19 16 -20 16 -20 -8z M252 5600 c-61 -25 -44 -114 20 -108 40 4 47 25
14 38 -14 5 -26 14 -26 20 0 20 29 22 59 4 24 -14 31 -25 31 -49 -1 -34 -24
-55 -80 -73 -77 -24 -102 -18 -170 40 -49 42 -49 54 -2 36 24 -9 35 -9 43 -1
9 9 -1 18 -40 36 l-51 25 0 -74 c0 -60 3 -74 15 -74 9 0 26 -7 39 -15 18 -12
30 -13 49 -6 17 7 28 7 32 1 9 -15 88 -12 126 4 19 8 47 26 62 40 53 49 25
134 -51 156 -43 11 -40 11 -70 0z M755 5390 c-59 -8 -140 -48 -173 -83 -32
-34 -9 -47 26 -14 39 36 86 57 140 64 26 3 49 6 52 6 3 0 40 -3 83 -7 51 -6
82 -5 89 2 15 15 -10 27 -59 28 -22 1 -56 4 -75 6 -18 3 -56 2 -83 -2z M498
5290 c-45 -37 -85 -117 -94 -187 -7 -60 17 -168 50 -220 22 -35 52 -45 43 -15
-2 9 -17 58 -31 107 -27 90 -27 90 -10 165 14 67 21 80 65 123 27 26 49 49 49
52 0 15 -40 1 -72 -25z M50 5274 c0 -17 22 -14 28 4 2 7 -3 12 -12 12 -9 0
-16 -7 -16 -16z M2706 5038 c-16 -23 -13 -38 9 -38 17 0 38 36 30 50 -10 16
-23 12 -39 -12z M135 5024 c-22 -13 -50 -30 -62 -36 -21 -10 -34 -58 -17 -58
4 0 31 20 60 45 28 25 60 45 71 45 31 0 63 12 57 21 -10 17 -69 8 -109 -17z
M220 4996 c0 -2 9 -6 20 -9 11 -3 18 -1 14 4 -5 9 -34 13 -34 5z M2710 4980
c-13 -8 -13 -11 0 -24 15 -14 100 -33 100 -22 0 5 -75 56 -82 56 -2 0 -10 -5
-18 -10z M150 4955 c-44 -28 -64 -51 -51 -59 5 -4 30 12 55 33 52 45 49 60 -4
26z M873 4915 c-3 -9 2 -24 11 -34 22 -24 20 -53 -4 -84 -11 -14 -20 -30 -20
-36 0 -18 -59 -42 -97 -39 -45 4 -56 -18 -17 -32 54 -21 149 31 184 101 27 52
25 81 -6 113 -31 30 -42 32 -51 11z M823 4878 c-4 -7 -8 -26 -8 -43 0 -23 -5
-30 -19 -30 -27 0 -31 -21 -7 -34 16 -9 25 -6 50 15 32 27 38 52 21 85 -12 22
-25 24 -37 7z M520 4780 c0 -24 67 -57 84 -40 5 5 8 11 5 12 -2 2 -18 13 -36
26 -40 27 -53 28 -53 2z M612 4718 c6 -18 52 -32 74 -24 18 7 18 8 0 22 -25
18 -79 19 -74 2z M76 4468 c3 -13 7 -24 8 -24 0 -1 21 -14 45 -29 30 -19 46
-24 54 -16 12 12 -17 51 -38 51 -7 0 -20 9 -30 20 -25 28 -48 26 -39 -2z M464
4453 c-3 -16 -9 -42 -14 -59 -7 -30 2 -65 14 -53 6 6 26 103 26 125 0 25 -19
15 -26 -13z M50 4417 c0 -27 7 -41 30 -61 35 -29 114 -66 141 -66 31 0 22 -16
-21 -35 -22 -10 -65 -44 -95 -76 -53 -55 -55 -60 -55 -111 l0 -53 20 41 c31
62 113 148 167 174 26 13 60 29 75 37 14 7 36 13 48 13 31 0 80 28 80 46 0 13
-5 14 -22 8 -13 -4 -58 -7 -101 -6 -92 3 -163 30 -226 87 l-41 37 0 -35z M923
4411 c-64 -16 -82 -49 -59 -105 8 -20 22 -36 30 -36 20 0 20 9 1 34 -23 30
-18 54 15 71 95 49 181 -29 148 -137 -17 -57 -61 -87 -143 -99 -55 -7 -73 -6
-101 7 -66 31 -100 111 -90 207 l6 60 -21 -19 c-19 -17 -20 -26 -15 -77 5 -55
46 -154 70 -169 7 -5 6 -8 -4 -8 -8 0 -37 25 -66 54 -50 54 -64 85 -64 147 0
17 -5 29 -13 29 -19 0 -6 -97 20 -146 20 -38 83 -98 129 -122 30 -16 79 -17
152 -3 80 15 110 28 145 63 27 27 32 50 27 123 -1 28 -41 108 -58 119 -17 10
-79 14 -109 7z M508 4375 c-8 -19 -12 -33 -8 -30 4 2 12 -7 19 -21 15 -35 32
-22 21 17 -5 16 -7 36 -4 44 12 30 -14 21 -28 -10z M303 4238 c-30 -11 -53
-26 -53 -34 0 -18 12 -18 71 3 45 16 61 35 42 46 -5 3 -32 -4 -60 -15z M383
4185 c-24 -13 -49 -26 -55 -28 -10 -4 -10 -8 1 -15 15 -11 67 7 107 36 52 38
11 43 -53 7z M1526 4172 c-4 -3 16 -27 43 -53 27 -26 55 -57 61 -69 13 -24 15
-97 5 -130 -6 -17 -3 -21 11 -18 22 4 36 52 29 98 -9 49 -66 133 -108 158 -20
11 -38 18 -41 14z M1200 4133 c-52 -40 -102 -63 -137 -63 -15 0 -23 -5 -20
-12 7 -21 92 -13 134 13 43 25 83 63 83 78 0 22 -17 17 -60 -16z M144 4118
c-22 -19 -50 -60 -67 -98 -27 -60 -29 -71 -24 -145 3 -47 14 -100 26 -128 12
-27 21 -56 21 -65 0 -18 72 -132 99 -156 25 -22 76 -26 76 -6 0 8 -10 16 -22
18 -26 4 -78 54 -100 97 -48 92 -85 279 -63 325 4 8 15 33 26 55 10 22 33 56
51 75 18 19 33 38 33 42 0 20 -23 15 -56 -14z M379 4115 c-27 -14 -63 -46 -89
-79 -37 -49 -43 -63 -46 -114 -3 -60 15 -130 30 -122 13 6 7 81 -6 98 -7 8 -7
17 2 27 7 8 10 15 6 15 -9 0 20 45 61 96 20 25 51 49 78 60 43 18 54 37 24 41
-8 1 -35 -8 -60 -22z M1565 4033 c27 -65 25 -87 -10 -155 -19 -39 -30 -70 -24
-74 15 -9 68 54 79 97 15 56 -11 149 -42 149 -6 0 -7 -8 -3 -17z M194 4022
c-7 -4 -22 -25 -34 -47 -20 -35 -21 -48 -15 -119 11 -134 58 -246 102 -246 19
0 16 11 -11 39 -30 32 -53 109 -62 204 -5 67 -4 75 20 110 35 51 34 82 0 59z
M274 3764 c3 -9 6 -18 6 -20 0 -2 5 -4 10 -4 6 0 10 9 10 20 0 12 -7 20 -16
20 -11 0 -14 -5 -10 -16z M1240 3726 c0 -19 47 -34 84 -27 37 7 35 26 -2 27
-16 1 -41 4 -55 8 -20 5 -27 3 -27 -8z M1130 3701 c0 -21 76 -56 145 -67 58
-8 189 35 193 65 4 24 -14 28 -37 8 -9 -8 -43 -21 -76 -30 -52 -14 -67 -15
-117 -3 -32 7 -69 21 -83 30 -24 16 -25 16 -25 -3z M280 3664 c0 -25 19 -56
63 -101 36 -38 67 -55 67 -37 0 4 -20 24 -44 45 -25 22 -50 55 -56 74 -12 36
-30 47 -30 19z M902 3598 c-15 -15 -16 -35 -2 -43 15 -9 41 21 34 39 -7 19
-16 20 -32 4z M320 3516 c0 -30 133 -109 236 -141 56 -17 119 -14 119 5 0 11
-16 17 -60 22 -67 7 -192 60 -241 101 -35 30 -54 34 -54 13z M946 3497 c-12
-51 -170 -147 -240 -147 -31 0 -40 -14 -21 -30 34 -29 161 21 243 95 41 37 52
53 50 73 -4 34 -24 39 -32 9z M1380 3356 c0 -47 -102 -116 -172 -116 -42 0
-104 24 -134 52 -17 15 -24 16 -30 7 -10 -18 51 -67 101 -81 74 -20 107 -17
169 14 74 37 96 63 92 108 -4 40 -26 54 -26 16z M1095 3350 c-12 -19 29 -64
68 -74 43 -11 102 3 102 24 0 9 -8 14 -20 12 -11 -2 -31 -5 -44 -7 -29 -4 -60
10 -82 38 -12 14 -18 16 -24 7z M3594 2889 c-9 -15 11 -33 30 -26 9 4 13 13
10 22 -7 17 -30 20 -40 4z M3491 2827 c-6 -14 -14 -28 -20 -32 -6 -3 -9 0 -5
8 7 20 -21 28 -43 12 -17 -13 -17 -14 1 -28 23 -17 18 -47 -11 -58 -16 -6 -27
-2 -47 18 -22 22 -28 24 -42 12 -13 -11 -17 -11 -25 3 -5 10 -17 14 -29 11
-11 -3 -20 0 -20 6 0 6 -14 11 -31 11 -28 0 -31 -2 -25 -25 5 -19 2 -25 -10
-25 -9 0 -18 -8 -21 -18 -3 -14 -12 -17 -36 -15 l-32 4 24 -20 c28 -25 22 -46
-14 -55 -37 -9 -55 -29 -55 -60 0 -14 -8 -29 -17 -35 -15 -8 -15 -11 -4 -25
12 -14 11 -19 -5 -34 -10 -10 -34 -24 -51 -31 -18 -7 -33 -17 -33 -21 0 -10
31 -36 53 -43 21 -8 23 -27 2 -27 -8 0 -15 5 -15 10 0 19 -38 10 -43 -10 -3
-14 -14 -20 -31 -20 -17 0 -26 -5 -26 -16 0 -12 7 -15 25 -12 19 4 25 1 25
-12 0 -10 7 -20 15 -24 25 -9 17 -24 -10 -18 -20 3 -25 0 -25 -15 0 -26 -10
-35 -26 -22 -18 14 -54 2 -48 -16 3 -8 16 -17 27 -21 19 -7 17 -9 -18 -20 -33
-10 -42 -9 -51 2 -13 16 -44 9 -44 -10 0 -7 6 -18 13 -25 10 -11 6 -13 -20 -8
-25 5 -31 3 -29 -10 5 -35 44 -39 89 -9 15 10 30 16 34 13 3 -4 -2 -9 -11 -13
-9 -3 -16 -15 -16 -25 0 -13 -7 -19 -24 -19 -16 0 -27 -7 -31 -20 -4 -11 -10
-18 -15 -15 -19 11 -134 -56 -122 -72 11 -16 -4 -10 -29 11 -24 20 -34 24 -49
16 -16 -9 -22 -6 -34 18 -8 15 -26 33 -39 39 -22 10 -25 16 -20 51 l5 39 -35
-2 c-43 -3 -61 -13 -49 -28 14 -18 -5 -62 -21 -50 -40 32 -96 18 -76 -19 11
-20 7 -30 -14 -34 -18 -3 -87 -34 -87 -38 0 -3 8 -12 17 -22 17 -17 16 -17
-16 -11 -18 4 -40 7 -47 7 -8 0 -14 7 -14 16 0 13 -7 15 -34 10 -28 -5 -34 -3
-39 14 -8 31 -75 21 -99 -14 -6 -8 -11 -7 -17 3 -7 10 -13 11 -30 1 -28 -14
-22 -35 10 -35 38 0 33 -19 -6 -21 -19 0 -35 3 -35 8 0 4 -24 8 -54 8 -44 0
-55 -3 -59 -19 -4 -17 -57 -37 -57 -20 0 4 10 9 23 11 14 2 23 11 25 26 4 29
-23 39 -48 17 -11 -10 -26 -14 -38 -11 -24 8 -38 -20 -21 -41 15 -18 6 -27
-20 -18 -17 5 -19 9 -9 25 9 14 9 25 1 42 -6 13 -14 31 -16 40 -4 10 -13 15
-25 11 -12 -3 -22 2 -26 12 -3 9 -10 13 -16 10 -5 -3 -10 0 -10 8 0 8 -9 17
-20 20 -23 6 -62 -21 -42 -29 13 -6 17 -55 5 -53 -21 3 -33 -2 -33 -16 0 -11
-6 -12 -22 -6 -29 10 -48 4 -48 -15 0 -9 -4 -12 -10 -9 -5 3 -10 15 -10 26 0
12 -7 19 -20 19 -13 0 -20 7 -20 18 0 21 -42 48 -58 38 -13 -8 3 -59 24 -77 8
-6 14 -17 14 -25 0 -8 -10 -3 -25 12 -14 14 -25 31 -25 39 0 8 -5 17 -10 20
-6 4 -8 15 -5 26 8 23 -20 38 -38 20 -9 -9 -9 -16 1 -31 7 -11 8 -20 3 -20 -5
0 -12 -8 -14 -17 -4 -14 -5 -12 -6 5 -1 15 -7 22 -21 22 -14 0 -20 -6 -18 -17
2 -11 -3 -18 -12 -18 -10 0 -16 12 -18 33 -3 27 -7 32 -28 32 -30 0 -55 -43
-36 -62 7 -7 12 -20 12 -30 0 -10 7 -21 15 -24 8 -4 15 -17 15 -30 l0 -24 -33
21 c-40 27 -62 65 -41 73 8 3 14 15 14 26 0 15 -7 20 -25 20 -30 0 -43 -24
-25 -45 10 -12 9 -15 -5 -15 -10 0 -23 7 -30 17 -14 19 0 55 31 78 14 10 16
17 8 25 -14 14 -54 -7 -54 -29 0 -10 -3 -11 -13 -3 -8 7 -18 7 -27 2 -21 -14
-27 -12 -32 8 -4 15 0 17 22 14 34 -5 50 16 26 34 -10 7 -15 17 -12 23 4 5 2
12 -3 16 -15 9 -61 -6 -61 -19 0 -9 -18 -11 -61 -8 -74 6 -97 -9 -60 -39 14
-11 34 -19 46 -17 23 3 70 -35 61 -50 -9 -14 19 -33 38 -26 9 3 16 12 16 20 0
16 18 18 40 4 13 -9 13 -11 0 -20 -8 -5 -25 -10 -37 -10 -28 0 -37 -14 -24
-39 9 -16 7 -20 -14 -23 -14 -3 -33 1 -42 8 -17 13 -17 15 0 25 9 5 17 19 17
31 0 16 -5 19 -26 15 -18 -3 -22 -1 -15 6 15 15 14 37 -3 37 -7 0 -25 -11 -39
-24 -22 -21 -26 -30 -20 -58 6 -30 5 -31 -9 -17 -8 8 -18 24 -22 36 -5 15 -17
22 -44 26 -20 2 -41 0 -46 -4 -14 -13 -30 -11 -52 7 -18 15 -17 15 18 10 43
-5 74 13 65 39 -5 13 -14 15 -32 11 -21 -5 -27 -2 -35 19 -5 14 -16 25 -25 25
-8 0 -15 4 -15 8 0 5 14 9 30 9 22 0 29 -4 26 -14 -3 -8 1 -16 10 -20 21 -8
40 12 28 29 -11 16 -11 38 0 56 13 22 -8 36 -34 22 -16 -9 -19 -15 -11 -23 18
-18 12 -28 -10 -15 -17 11 -22 10 -32 -2 -17 -21 -57 -23 -77 -5 -16 15 -19
14 -35 -1 -16 -17 -16 -18 1 -31 10 -7 24 -13 31 -13 7 0 13 -4 13 -10 0 -5 9
-19 20 -30 11 -11 20 -24 20 -29 0 -14 -38 -1 -44 15 -3 8 -12 14 -21 14 -8 0
-15 9 -15 20 0 24 -26 38 -42 22 -14 -14 -20 -62 -7 -63 5 -1 13 -2 17 -3 9
-1 42 -32 42 -39 0 -16 -34 -13 -51 4 -13 13 -27 18 -37 14 -31 -12 -35 -10
-55 28 -22 40 -37 46 -62 21 -14 -14 -14 -19 -2 -33 18 -20 29 -51 19 -51 -11
0 -49 36 -54 51 -3 9 -9 9 -26 0 -17 -9 -21 -17 -16 -38 5 -19 3 -24 -7 -21
-8 3 -14 13 -14 24 0 10 -7 19 -15 19 -11 0 -16 -13 -18 -48 -2 -34 0 -47 8
-42 6 4 17 1 25 -5 8 -7 22 -9 31 -6 10 4 14 1 12 -6 -6 -16 -48 -23 -48 -9 0
6 -7 11 -15 11 -11 0 -15 -11 -15 -39 0 -34 4 -41 35 -55 32 -15 34 -19 20
-32 -30 -30 -12 -44 58 -44 41 0 41 0 19 -16 -19 -13 -21 -19 -11 -30 10 -12
9 -17 0 -27 -7 -7 -12 -7 -11 -2 5 24 -1 35 -19 35 -11 0 -21 9 -24 21 -3 12
-10 18 -15 15 -12 -7 -36 20 -28 33 8 12 -3 41 -15 41 -5 0 -9 -58 -9 -130 0
-71 3 -129 8 -129 4 1 22 1 41 0 30 -1 33 -3 27 -25 -5 -20 -1 -24 26 -30 30
-6 31 -7 13 -26 -13 -15 -15 -23 -7 -33 16 -19 4 -56 -19 -54 -10 1 -19 8 -19
17 0 8 -4 22 -10 30 -7 12 -12 12 -34 0 -23 -12 -26 -20 -26 -66 l0 -52 33 3
c17 2 40 6 50 10 10 4 17 3 17 -4 0 -8 22 -12 63 -12 34 1 69 1 77 1 8 -1 38
1 67 3 41 3 55 0 67 -15 14 -16 20 -17 39 -7 21 12 21 11 8 -7 -8 -10 -26 -29
-40 -41 -21 -18 -23 -25 -13 -35 10 -10 17 -10 32 0 10 6 21 8 24 3 3 -5 -3
-11 -14 -14 -23 -6 -27 -37 -5 -37 8 0 24 -6 35 -12 27 -17 50 4 33 30 -6 10
-9 30 -6 45 4 20 1 27 -11 27 -13 0 -13 3 4 20 26 26 22 76 -6 74 -10 -1 -27
-5 -36 -9 -10 -4 -18 -3 -18 2 0 11 44 33 64 33 8 0 16 7 20 15 9 23 -4 45
-26 45 -19 0 -19 1 -4 25 19 30 23 66 4 47 -17 -17 -29 -15 -22 3 4 8 15 15
25 15 23 0 25 13 5 29 -9 7 -32 10 -58 7 -24 -2 -46 -5 -50 -5 -5 -1 -8 -8 -8
-16 0 -8 -5 -15 -12 -15 -9 0 -9 -3 0 -12 7 -7 12 -18 12 -26 0 -12 -3 -12
-15 -2 -8 6 -18 9 -23 6 -5 -3 -17 5 -27 16 -14 17 -15 25 -6 40 15 24 14 28
-8 28 -24 0 -38 20 -21 30 7 4 9 16 6 28 -6 17 -3 20 16 15 17 -3 19 -2 9 5
-14 10 -7 32 10 32 5 0 22 11 36 24 31 29 38 27 47 -15 7 -38 63 -92 88 -86 9
3 19 0 21 -7 2 -6 7 -8 11 -5 13 12 -16 68 -37 71 -20 3 -20 4 7 21 26 18 28
18 40 1 7 -9 18 -14 24 -10 14 8 5 65 -14 87 -8 8 -14 26 -14 38 0 19 4 21 23
16 36 -12 40 -11 46 10 9 32 32 30 29 -3 -1 -15 1 -33 5 -39 5 -8 -1 -15 -18
-19 -24 -6 -30 -22 -27 -64 1 -8 -3 -27 -8 -42 -13 -40 6 -45 41 -12 19 18 29
38 29 57 0 25 2 28 15 17 9 -8 15 -9 15 -2 0 6 -4 14 -10 17 -5 3 -10 12 -10
18 0 7 10 0 21 -15 11 -16 27 -28 35 -28 8 0 14 -7 14 -16 0 -13 7 -15 34 -11
44 7 51 -10 19 -40 -20 -19 -22 -26 -13 -43 14 -26 -16 -71 -45 -67 -17 2 -19
8 -17 40 4 44 -9 47 -75 18 -41 -19 -42 -19 -59 0 -19 21 -29 18 -37 -12 -4
-15 -2 -19 9 -15 11 4 14 1 10 -12 -3 -9 -8 -37 -10 -62 -2 -25 -10 -66 -16
-92 -14 -56 -9 -78 20 -78 11 0 20 -7 20 -15 0 -9 -6 -15 -12 -14 -29 4 -38
-2 -38 -26 0 -14 9 -34 20 -45 20 -20 27 -36 11 -26 -30 19 -36 -66 -7 -104 9
-13 9 -13 -6 -2 -9 8 -22 11 -27 7 -15 -9 -2 -186 15 -206 18 -20 18 -29 0
-29 -8 0 -17 -8 -19 -17 -3 -10 -5 1 -6 24 -1 31 -7 46 -23 57 -20 14 -20 17
-6 33 16 19 24 123 9 123 -5 0 -6 11 -3 25 7 38 -19 32 -66 -15 -22 -22 -45
-40 -51 -40 -6 0 -12 -4 -13 -10 -4 -32 -2 -35 32 -32 l35 3 -30 -19 c-23 -15
-34 -17 -45 -8 -8 6 -4 -2 9 -16 19 -21 28 -25 42 -18 25 14 29 13 29 -9 0
-11 -13 -31 -30 -44 -16 -14 -30 -30 -30 -35 0 -15 25 -21 41 -11 26 17 34 9
10 -10 -14 -10 -30 -17 -36 -15 -18 7 -41 -24 -27 -38 8 -8 15 -8 27 2 13 11
20 11 39 0 13 -7 29 -9 35 -6 6 4 11 2 11 -3 0 -13 -7 -14 -130 -13 -188 2
-178 1 -176 19 1 12 -7 19 -26 21 -40 5 -53 26 -34 54 11 15 16 18 16 7 0 -8
-6 -21 -12 -29 -11 -12 -10 -12 4 -2 16 13 41 81 25 70 -9 -7 -36 25 -30 35 3
5 -2 16 -12 24 -11 7 -14 13 -7 13 7 0 5 10 -6 29 -9 16 -20 27 -25 24 -5 -3
-7 3 -3 13 3 11 1 26 -4 34 -6 10 -10 -36 -10 -137 0 -145 1 -153 19 -153 11
0 23 -4 26 -10 4 -6 -5 -10 -19 -10 -21 0 -26 -5 -26 -25 0 -20 5 -25 28 -27
15 -1 969 -2 2120 -2 1672 -1 2092 1 2092 11 0 7 5 13 11 13 6 0 9 -6 6 -14
-4 -11 50 -14 319 -15 l324 -2 0 26 c0 23 -4 25 -41 25 -24 0 -38 4 -34 10 3
5 1 10 -4 10 -6 0 -11 -4 -11 -10 0 -5 -38 -9 -90 -9 -49 0 -93 -2 -97 -4 -5
-3 -17 -1 -28 4 -17 6 -17 8 -3 8 11 1 15 6 12 16 -4 8 -2 15 4 15 5 0 15 -7
22 -15 13 -16 70 -21 70 -6 0 5 7 16 15 24 21 22 -5 43 -34 28 -25 -14 -41
-14 -21 -1 13 9 13 10 0 10 -8 0 -21 9 -28 20 -7 11 -8 20 -3 20 5 0 12 8 15
18 4 13 4 13 3 -3 -1 -11 2 -26 6 -32 10 -17 49 -17 66 0 11 10 12 9 7 -1 -4
-7 -2 -19 4 -27 6 -8 9 -19 5 -25 -9 -15 13 -40 36 -40 21 0 35 53 25 97 -6
25 -5 26 7 11 8 -10 28 -18 45 -18 25 0 29 3 25 20 -5 19 -11 22 -57 24 -11 1
-21 6 -23 12 -6 18 79 -1 94 -21 10 -15 12 5 12 114 -1 91 -4 131 -12 132 -81
8 -111 23 -34 18 l47 -4 0 42 0 43 -59 0 c-78 0 -88 -5 -111 -55 -25 -54 -53
-63 -79 -26 -11 15 -20 36 -19 47 0 10 -3 27 -7 37 -5 13 -4 18 6 17 38 -6 61
1 66 20 3 11 10 17 15 14 5 -3 16 2 24 12 11 14 14 15 13 4 -3 -31 2 -40 20
-40 13 0 21 8 23 23 2 17 9 21 28 19 78 -9 75 -11 77 38 2 36 0 41 -8 25 -8
-17 -8 -16 -3 5 14 54 16 123 4 146 -10 18 -10 27 -2 37 9 10 11 108 9 348
l-2 334 -21 -2 c-16 -2 -24 5 -28 23 -4 14 -4 29 -1 35 18 29 -28 69 -80 69
-30 0 -32 15 -5 30 12 6 18 16 13 23 -5 8 -8 8 -11 -1 -2 -7 -7 -10 -12 -7
-15 9 -55 -15 -78 -49 -27 -40 -28 -46 0 -46 19 0 17 -4 -18 -35 -21 -19 -47
-35 -56 -35 -24 0 -23 -17 1 -30 13 -7 22 -7 26 0 8 12 25 13 25 1 0 -5 -10
-11 -21 -14 -15 -4 -20 -11 -16 -21 8 -21 -9 -21 -21 0 -10 18 -53 16 -59 -3
-2 -6 5 -20 17 -31 17 -16 18 -21 6 -25 -8 -3 -17 1 -20 9 -7 17 -38 18 -54 2
-9 -9 -12 -9 -12 1 0 9 -8 11 -26 7 -21 -6 -27 -3 -31 14 -4 15 -12 20 -27 18
-16 -2 -21 -10 -20 -33 0 -16 -4 -33 -10 -37 -13 -9 -46 20 -46 40 0 11 -8 13
-32 9 -18 -3 -27 -3 -20 0 6 2 12 11 12 19 0 8 7 25 15 38 14 21 14 24 0 29
-8 4 -15 16 -15 27 0 22 -7 25 -30 10 -9 -6 -17 -5 -22 3 -12 18 -10 27 6 27
21 0 27 27 10 41 -11 9 -18 9 -26 1 -14 -14 -68 -16 -68 -4 0 5 -10 14 -22 20
l-23 11 22 0 c12 1 23 -4 25 -10 6 -18 78 -2 78 16 0 8 -7 15 -15 15 -8 0 -15
5 -15 10 0 6 -6 10 -13 10 -17 0 -38 51 -31 78 5 17 2 22 -14 22 -11 0 -22 -6
-25 -12 -4 -10 -7 -10 -18 0 -12 11 -11 15 4 26 9 7 17 18 17 25 0 16 -26 14
-44 -5 -15 -14 -16 -13 -16 6 0 18 -4 21 -25 17 -16 -3 -24 0 -22 7 2 6 19 11
38 11 41 0 47 26 9 35 -21 5 -22 7 -7 13 9 3 17 13 17 22 0 18 -26 20 -36 3
-6 -9 -10 -5 -14 12 -6 23 -11 25 -52 22 -28 -2 -49 2 -54 9 -5 9 1 10 21 5
23 -6 32 -1 61 31 19 21 34 41 34 46 0 11 -35 8 -47 -4 -8 -8 -17 -8 -31 0
-30 16 -52 13 -52 -6 -1 -17 -1 -17 -11 0 -10 17 -49 24 -49 9 0 -5 -13 -7
-30 -4 -16 2 -30 8 -30 13 0 5 -7 9 -15 9 -8 0 -15 7 -15 15 0 18 -9 19 -45 5
-23 -9 -25 -13 -14 -26 6 -8 18 -13 25 -10 22 8 27 -14 8 -29 -18 -13 -18 -14
5 -39 19 -20 21 -26 9 -26 -9 0 -18 8 -22 18 -3 9 -11 26 -17 37 -7 11 -15 27
-19 35 -4 8 -16 14 -26 13 -10 -1 -22 3 -25 9 -12 19 -41 0 -34 -22 6 -20 -9
-28 -20 -10 -9 15 -43 12 -52 -5 -5 -9 -13 -11 -22 -6 -11 7 -10 12 8 22 11 8
21 22 21 31 0 21 -4 22 -31 7 -19 -10 -20 -8 -17 17 4 35 -19 43 -31 11z
m-256 -87 c-3 -5 -12 -10 -18 -10 -7 0 -6 4 3 10 19 12 23 12 15 0z m590 -10
c3 -5 -1 -10 -9 -10 -9 0 -16 5 -16 10 0 6 4 10 9 10 6 0 13 -4 16 -10z m122
-14 c0 -8 -11 -16 -24 -19 -27 -5 -29 1 -5 19 22 17 29 17 29 0z m-571 -32
c-3 -7 2 -21 10 -33 20 -28 11 -27 -22 4 -15 14 -28 34 -29 44 -1 15 2 16 22
7 13 -6 21 -16 19 -22z m-96 16 c0 -5 -7 -10 -15 -10 -8 0 -15 5 -15 10 0 6 7
10 15 10 8 0 15 -4 15 -10z m420 6 c0 -2 -7 -7 -16 -10 -8 -3 -12 -2 -9 4 6
10 25 14 25 6z m-460 -20 c0 -11 -19 -15 -25 -6 -3 5 1 10 9 10 9 0 16 -2 16
-4z m325 -26 c10 -11 15 -26 11 -35 -8 -22 -40 -15 -44 10 -2 11 -11 26 -20
33 -14 10 -13 12 10 12 13 0 33 -9 43 -20z m-265 -26 c0 -14 -4 -23 -10 -19
-5 3 -10 15 -10 26 0 10 5 19 10 19 6 0 10 -12 10 -26z m-66 -9 c-6 -15 -34
-29 -42 -20 -3 2 3 7 12 11 9 3 16 13 16 21 0 8 4 12 10 8 5 -3 7 -12 4 -20z
m241 15 c-3 -5 -10 -10 -16 -10 -5 0 -9 5 -9 10 0 6 7 10 16 10 8 0 12 -4 9
-10z m379 -19 c4 -5 -3 -7 -14 -4 -23 6 -26 13 -6 13 8 0 17 -4 20 -9z m-346
-38 c-4 -39 -28 -42 -28 -4 0 21 5 31 16 31 11 0 14 -8 12 -27z m308 0 c24
-16 25 -18 8 -30 -15 -11 -21 -9 -41 13 -12 14 -23 27 -23 30 0 10 33 3 56
-13z m-381 -3 c3 -5 1 -10 -4 -10 -6 0 -11 5 -11 10 0 6 2 10 4 10 3 0 8 -4
11 -10z m455 6 c0 -3 -4 -8 -10 -11 -5 -3 -10 -1 -10 4 0 6 5 11 10 11 6 0 10
-2 10 -4z m-562 -31 c-3 -3 -9 2 -12 12 -6 14 -5 15 5 6 7 -7 10 -15 7 -18z
m351 6 c11 -7 10 -10 -6 -15 -27 -9 -60 3 -41 15 17 11 29 11 47 0z m260 -18
c9 -19 9 -29 1 -37 -14 -14 -30 9 -30 42 0 30 14 28 29 -5z m-684 -3 c9 -15
-22 -60 -41 -60 -13 0 -14 3 -4 15 6 8 9 19 5 26 -4 6 -1 15 6 20 18 12 26 11
34 -1z m328 -17 c-30 -6 -49 -31 -35 -45 8 -8 24 -5 59 12 38 18 51 20 66 11
10 -7 22 -9 26 -6 5 3 7 -4 4 -15 -4 -15 0 -20 15 -20 29 0 39 20 18 36 -25
18 -11 38 15 23 11 -6 27 -8 34 -5 21 8 26 -6 8 -19 -14 -11 -15 -15 -4 -28 7
-9 18 -14 26 -11 7 3 16 1 19 -4 3 -5 -3 -12 -14 -15 -18 -5 -19 -8 -9 -31 14
-29 49 -35 50 -8 0 9 6 2 13 -17 7 -19 18 -37 24 -39 7 -2 12 -12 12 -21 0
-10 11 -28 26 -42 23 -22 24 -24 8 -36 -10 -7 -15 -16 -11 -19 10 -11 -13 -34
-34 -34 -19 0 -35 -17 -25 -28 4 -3 22 0 42 7 20 7 37 11 39 9 3 -2 -2 -17
-10 -32 -12 -22 -12 -32 -4 -42 20 -24 -14 -17 -52 11 -62 44 -110 65 -129 55
-9 -5 -34 -36 -55 -70 -21 -33 -48 -66 -60 -73 -12 -6 -41 -22 -65 -35 l-42
-24 -31 29 c-18 15 -34 31 -37 34 -19 21 -41 13 -88 -32 -48 -46 -126 -88
-139 -75 -3 3 -1 12 6 20 6 8 11 18 10 22 -3 20 2 35 10 30 16 -10 41 6 41 26
0 17 -5 19 -27 15 -14 -3 -40 0 -57 6 -26 9 -27 11 -11 17 11 4 32 2 47 -4 37
-14 46 -2 24 35 -19 33 -15 62 8 53 18 -7 78 35 69 49 -3 5 -20 7 -37 4 -26
-4 -34 -1 -42 16 -5 12 -17 21 -26 19 -12 -2 -15 3 -11 17 3 11 15 21 27 23
15 2 22 11 24 33 2 17 13 38 25 47 15 12 18 20 11 25 -6 5 -14 19 -18 33 -3
14 -3 19 0 13 3 -7 14 -13 24 -13 10 0 21 -4 25 -10 8 -12 35 -1 35 15 0 7 10
15 22 18 20 6 20 7 4 31 -16 25 -16 26 7 26 13 0 27 3 31 8 13 12 79 30 111
30 21 -1 23 -2 8 -5z m-205 -52 c-7 -11 -16 -17 -20 -14 -10 5 10 33 23 33 5
0 4 -9 -3 -19z m472 15 c0 -3 -4 -8 -10 -11 -5 -3 -10 -1 -10 4 0 6 5 11 10
11 6 0 10 -2 10 -4z m80 -23 c0 -5 -11 -8 -25 -8 -14 0 -25 3 -25 8 0 4 11 7
25 7 14 0 25 -3 25 -7z m-50 -27 c0 -11 -19 -15 -25 -6 -3 5 1 10 9 10 9 0 16
-2 16 -4z m76 -17 c18 -20 18 -21 -1 -35 -28 -21 -33 -18 -33 21 0 40 7 43 34
14z m-716 -4 c7 -9 8 -15 2 -15 -5 0 -12 7 -16 15 -3 8 -4 15 -2 15 2 0 9 -7
16 -15z m810 -35 c0 -5 -2 -10 -4 -10 -3 0 -8 5 -11 10 -3 6 -1 10 4 10 6 0
11 -4 11 -10z m-36 -46 c4 -9 3 -20 0 -23 -4 -3 -9 0 -11 7 -3 6 -14 12 -26
13 -21 0 -21 1 -2 9 29 12 32 12 39 -6z m-867 -25 c15 -25 15 -28 -3 -50 -25
-32 -65 -27 -82 9 -12 25 -10 29 14 50 32 28 50 25 71 -9z m973 21 c13 -8 13
-10 -2 -10 -9 0 -20 5 -23 10 -8 13 5 13 25 0z m-1105 -10 c3 -5 -1 -10 -10
-10 -9 0 -13 5 -10 10 3 6 8 10 10 10 2 0 7 -4 10 -10z m1035 -10 c0 -5 -2
-10 -4 -10 -3 0 -8 5 -11 10 -3 6 -1 10 4 10 6 0 11 -4 11 -10z m798 -28 c-2
-8 -11 -20 -20 -26 -24 -15 -57 16 -40 37 16 19 64 10 60 -11z m-741 -54 c-3
-7 -5 -2 -5 12 0 14 2 19 5 13 2 -7 2 -19 0 -25z m-123 -30 c-3 -4 -9 -8 -15
-8 -5 0 -9 4 -9 8 0 5 7 9 15 9 8 0 12 -4 9 -9z m73 -10 c-3 -8 -6 -5 -6 6 -1
11 2 17 5 13 3 -3 4 -12 1 -19z m-871 -25 c-7 -7 -26 7 -26 19 0 6 6 6 15 -2
9 -7 13 -15 11 -17z m1104 17 c0 -5 -4 -10 -9 -10 -6 0 -13 5 -16 10 -3 6 1
10 9 10 9 0 16 -4 16 -10z m527 -26 c7 -19 -20 -49 -36 -40 -12 8 -15 39 -4
49 12 12 33 7 40 -9z m-692 -3 c7 -12 -31 -25 -45 -16 -5 3 -10 10 -10 16 0
12 47 12 55 0z m-309 -42 c24 -27 67 -49 95 -49 26 0 59 -27 59 -47 0 -8 -16
-21 -35 -29 -34 -14 -48 -45 -25 -59 16 -10 12 -23 -10 -30 -43 -14 -2 -105
48 -105 20 0 72 -39 72 -54 0 -5 -7 -3 -15 4 -8 6 -18 9 -24 6 -5 -4 -12 3
-16 14 -5 16 -12 19 -28 14 -30 -9 -32 -11 -18 -28 9 -11 8 -15 -4 -20 -23 -8
-18 -34 8 -39 l22 -4 -22 -8 c-33 -11 -28 -34 8 -42 20 -4 26 -8 18 -14 -7 -4
-20 -4 -28 0 -17 9 -42 3 -52 -11 -6 -9 22 -73 40 -91 5 -5 7 -15 4 -23 -4
-10 -9 -10 -23 -2 -21 13 -53 3 -48 -14 3 -7 15 -15 28 -18 23 -5 23 -5 -5
-18 -23 -11 -30 -10 -46 4 -10 9 -25 13 -37 9 -11 -3 -23 -1 -27 5 -3 6 3 10
15 10 30 0 19 25 -11 26 -35 1 -51 -7 -45 -22 3 -8 -1 -14 -9 -14 -8 0 -15 -7
-15 -15 0 -9 9 -15 22 -15 l21 0 -23 -25 c-19 -20 -21 -27 -10 -40 7 -8 11
-18 8 -20 -3 -3 -11 1 -18 10 -9 11 -17 12 -31 4 -25 -13 -24 -26 1 -34 11 -4
18 -10 15 -15 -8 -13 -59 -19 -72 -8 -8 6 -19 5 -34 -3 l-23 -12 22 -17 c29
-24 121 -19 139 7 12 16 14 16 30 0 11 -11 13 -17 5 -17 -7 0 -12 -9 -12 -20
0 -22 -10 -26 -26 -10 -5 5 -15 6 -24 0 -20 -13 -4 -26 42 -34 25 -5 39 -3 45
6 12 19 60 48 67 41 10 -10 7 -25 -3 -18 -5 3 -17 -2 -26 -11 -12 -12 -13 -19
-4 -30 14 -17 51 -18 67 -2 9 9 12 9 12 0 0 -6 -9 -17 -20 -24 -23 -15 -27
-38 -6 -38 8 0 13 -8 12 -17 -2 -27 37 -23 49 5 5 12 15 20 22 18 6 -3 16 1
22 8 8 9 3 21 -18 45 -27 30 -32 61 -10 61 4 0 6 -6 3 -14 -6 -16 23 -48 40
-43 6 2 12 16 14 32 3 24 1 27 -17 22 -12 -3 -21 -1 -21 4 0 5 5 9 11 9 5 0 8
4 4 9 -3 5 -1 12 4 15 5 3 11 -1 15 -9 6 -17 43 -20 65 -6 10 6 19 3 30 -10
23 -28 94 -14 99 19 3 20 5 20 19 7 8 -9 32 -15 52 -15 20 0 71 -5 113 -11 68
-10 75 -13 63 -26 -30 -29 -4 -54 34 -33 23 12 28 36 9 43 -9 3 -7 9 7 20 17
13 17 17 5 32 -12 15 -11 16 15 13 37 -4 42 15 10 36 -21 14 -29 15 -41 5 -11
-9 -14 -9 -14 1 0 7 -7 10 -15 6 -12 -4 -14 0 -9 21 6 23 4 25 -15 20 -15 -3
-24 1 -32 14 -13 25 -6 35 32 43 29 6 101 54 124 84 11 14 57 3 70 -17 8 -14
42 -14 47 0 3 8 15 9 36 4 38 -8 33 -25 -7 -25 -15 0 -31 -3 -34 -6 -10 -11
12 -44 26 -38 8 3 27 -1 43 -7 16 -7 35 -13 43 -15 8 -2 26 -6 39 -9 13 -3 30
0 38 6 12 9 18 9 27 0 9 -10 8 -14 -6 -22 -9 -6 -15 -15 -11 -20 3 -5 -12 -17
-34 -26 -22 -8 -42 -24 -45 -34 -3 -11 -14 -19 -27 -19 -13 0 -24 -8 -27 -20
-3 -11 -12 -20 -19 -20 -17 0 -17 2 -3 34 14 29 0 73 -32 102 -27 24 -32 14
-18 -38 11 -41 10 -48 -9 -76 -12 -16 -22 -39 -22 -50 0 -26 -8 -31 -58 -34
-31 -2 -38 -6 -30 -15 6 -7 16 -13 23 -13 22 0 23 -34 1 -58 -11 -12 -21 -30
-21 -40 -1 -9 -4 -24 -6 -32 -3 -10 5 -16 24 -18 29 -4 36 -16 12 -26 -19 -7
-19 -30 0 -46 11 -10 17 -9 29 3 8 8 13 17 10 20 -3 3 0 16 7 29 7 12 14 28
15 34 1 6 5 21 9 33 10 32 -20 39 -45 10 -21 -26 -26 -19 -10 12 6 10 17 19
25 19 10 0 15 10 15 29 0 16 7 34 16 42 13 11 14 9 9 -14 -5 -20 -1 -34 19
-58 35 -42 34 -83 -2 -47 -9 9 -12 8 -12 -5 0 -23 40 -39 59 -23 15 12 50 10
66 -5 5 -5 1 -9 -13 -10 -48 -3 -75 -20 -70 -44 2 -14 18 -22 53 -30 37 -8 45
-12 32 -18 -29 -11 -72 -8 -92 7 -11 8 -24 13 -30 12 -5 -2 -7 -1 -2 1 4 3 7
11 7 19 0 9 5 12 10 9 6 -3 10 -1 10 5 0 7 -7 9 -16 6 -9 -3 -21 -6 -29 -6 -7
0 -18 -14 -25 -30 -11 -27 -16 -30 -41 -25 -22 5 -31 2 -36 -10 -4 -11 0 -21
10 -27 10 -5 17 -16 17 -23 0 -19 5 -19 34 0 27 18 46 16 62 -4 14 -18 -16
-51 -46 -51 -23 0 -26 10 -8 28 20 20 -8 15 -61 -13 -49 -24 -64 -24 -54 1 3
8 0 14 -6 14 -11 0 -15 -20 -11 -49 1 -9 -4 -12 -14 -8 -9 4 -16 2 -16 -3 0
-6 -8 -18 -18 -28 -15 -15 -35 -19 -89 -19 -68 -1 -70 0 -65 23 3 18 0 24 -14
24 -21 0 -51 -16 -44 -23 3 -2 14 -9 25 -15 15 -8 -10 -11 -107 -9 -70 2 -130
6 -134 10 -4 4 -3 7 3 7 22 0 20 28 -3 54 -28 30 -37 32 -57 12 -8 -9 -24 -12
-36 -9 -14 3 -23 0 -27 -11 -8 -20 -6 -21 22 -30 14 -4 28 -1 38 9 15 15 16
15 16 0 0 -8 7 -18 15 -21 50 -19 -36 -24 -408 -20 -227 2 -447 4 -491 5 -69
1 -77 3 -66 16 7 8 9 15 4 16 -5 0 -47 3 -94 6 -47 4 -106 6 -132 5 -28 -1
-48 3 -48 9 0 6 -10 9 -22 7 -18 -2 -23 -9 -22 -33 l1 -30 -518 -3 c-481 -2
-518 -1 -512 14 4 10 0 22 -11 29 -15 12 -15 13 5 18 18 5 19 9 9 27 -6 12
-25 26 -41 32 l-30 10 23 26 c13 14 18 22 12 19 -6 -3 -22 18 -37 49 -27 54
-39 64 -53 43 -5 -8 -10 -6 -16 5 -11 19 -34 21 -41 4 -2 -7 -7 -10 -11 -7 -4
4 4 18 18 32 27 27 33 56 17 72 -6 6 -3 19 8 34 15 20 19 21 24 7 4 -9 2 -16
-3 -16 -17 0 -11 -37 12 -77 28 -48 39 -56 57 -38 12 11 10 19 -8 48 l-21 34
32 16 c29 14 32 14 48 -5 13 -16 20 -18 36 -10 10 6 27 13 37 16 19 6 24 56 6
56 -8 0 -8 5 1 15 7 8 19 15 27 15 18 0 8 -67 -14 -92 -10 -11 -11 -18 -3 -23
6 -4 8 -20 4 -41 -4 -23 -2 -34 5 -34 8 0 10 -11 5 -35 -4 -23 -2 -35 5 -35 9
0 9 -5 1 -20 -9 -16 -8 -22 6 -27 23 -9 35 16 28 57 -5 33 -5 34 10 15 12 -15
16 -17 17 -5 1 8 1 18 0 22 0 5 3 8 8 8 15 0 22 -32 10 -46 -6 -7 -8 -18 -4
-24 3 -5 0 -13 -8 -16 -13 -5 -12 -12 6 -46 20 -37 20 -40 4 -49 -29 -17 -19
-28 38 -45 44 -12 59 -13 70 -4 8 7 21 10 28 7 8 -3 20 -1 27 3 11 7 11 11 1
24 -18 21 -51 20 -67 -1 -12 -17 -13 -17 -19 2 -4 11 -16 38 -26 59 -20 43
-18 56 6 36 10 -8 15 -9 15 -1 0 6 -4 11 -10 11 -5 0 -10 6 -10 14 0 8 -7 21
-15 29 -13 13 -13 16 1 21 13 5 13 9 -1 35 -19 37 -19 41 0 41 20 0 19 29 -1
51 -15 16 -14 17 5 12 28 -7 28 16 0 51 -25 32 -32 27 -49 -36 -7 -27 -16 -48
-20 -48 -15 0 -19 30 -8 60 5 17 8 44 6 60 -5 34 -1 37 18 13 7 -10 16 -15 20
-10 4 4 2 13 -4 19 -7 7 -12 20 -12 30 0 20 -15 24 -26 7 -11 -19 -25 6 -16
30 10 27 4 81 -9 81 -4 0 -16 -23 -26 -50 -17 -49 -19 -50 -48 -44 -16 4 -38
7 -48 6 -10 0 -15 4 -11 10 4 6 -1 17 -11 25 -17 12 -16 13 12 13 22 0 35 7
48 26 9 14 32 32 50 40 42 17 50 30 35 52 -7 9 0 4 15 -12 21 -23 26 -37 23
-70 -2 -27 3 -50 16 -68 10 -16 16 -34 13 -41 -3 -8 -1 -20 3 -27 7 -11 11
-11 24 -1 13 11 17 9 26 -14 13 -34 45 -31 45 5 0 19 -5 25 -22 25 -12 0 -25
4 -29 8 -4 4 0 7 9 7 9 0 17 5 17 11 0 8 4 8 14 0 16 -14 184 -8 213 7 11 6
29 9 40 6 11 -3 27 1 36 10 14 14 16 14 21 0 5 -12 14 -15 39 -10 26 5 36 2
47 -14 17 -24 58 -27 66 -5 5 12 9 13 21 4 9 -8 17 -9 24 -2 7 7 27 7 57 1 69
-13 144 -18 156 -10 6 3 40 7 75 9 39 1 68 7 73 15 6 10 8 10 8 1 0 -7 11 -13
25 -13 16 0 25 6 25 16 0 11 8 14 33 12 24 -2 33 -8 35 -25 3 -23 35 -33 46
-15 8 13 113 15 121 2 3 -5 18 -10 33 -10 26 -1 26 -1 7 -16 -17 -13 -18 -16
-5 -24 8 -5 25 -7 36 -4 12 3 25 1 28 -5 10 -16 76 -14 82 3 8 21 32 28 56 15
22 -12 28 -9 32 18 3 21 57 26 64 6 2 -8 -5 -13 -17 -13 -25 0 -36 -17 -23
-33 8 -10 -5 -13 -56 -15 -74 -3 -102 -3 -146 1 -16 1 -31 -3 -33 -10 -6 -16
48 -42 70 -34 10 4 67 6 128 6 109 -1 126 4 97 33 -8 8 -5 14 14 21 21 8 24
14 20 41 -4 29 -3 31 22 24 22 -5 27 -2 36 21 13 34 13 45 -2 45 -6 0 -20 7
-30 16 -11 11 -37 17 -67 18 -40 1 -47 3 -38 15 9 10 7 16 -6 25 -12 10 -15
22 -10 49 6 41 25 40 21 -1 -2 -21 2 -28 20 -30 12 -2 22 0 23 5 0 4 2 20 4
35 4 32 -21 51 -77 62 -41 7 -51 33 -23 56 16 13 11 56 -9 78 -19 20 -49 4
-42 -24 3 -12 2 -25 -3 -28 -13 -8 -25 52 -13 67 5 7 14 27 20 45 9 27 9 34
-4 39 -8 3 -20 1 -27 -6 -17 -17 -26 -13 -20 8 3 11 13 21 24 24 13 4 19 14
19 34 0 26 5 30 46 41 51 14 56 36 8 39 -49 2 -50 3 -15 19 19 8 52 30 73 50
l40 36 24 -23 c29 -27 23 -39 -20 -39 -36 0 -62 -21 -53 -44 8 -20 79 -5 120
27 19 14 46 29 61 33 30 7 146 81 146 93 0 10 63 91 71 91 3 0 14 -9 25 -21z
m-774 -21 c-9 -9 -12 -7 -12 12 0 19 3 21 12 12 9 -9 9 -15 0 -24z m158 18 c0
-3 -4 -8 -10 -11 -5 -3 -10 -1 -10 4 0 6 5 11 10 11 6 0 10 -2 10 -4z m875
-23 c33 -38 31 -43 -15 -43 -35 0 -40 3 -40 23 0 20 16 47 27 47 2 0 15 -12
28 -27z m-1140 -23 c-5 -8 -11 -8 -17 -2 -6 6 -7 16 -3 22 5 8 11 8 17 2 6 -6
7 -16 3 -22z m1630 7 c12 -3 4 -5 -17 -6 -30 -1 -36 2 -32 14 4 10 10 12 18 6
6 -5 20 -11 31 -14z m-1398 7 c-3 -3 -12 -4 -19 -1 -8 3 -5 6 6 6 11 1 17 -2
13 -5z m-37 -24 c0 -5 -5 -10 -11 -10 -5 0 -7 5 -4 10 3 6 8 10 11 10 2 0 4
-4 4 -10z m1220 -11 c0 -5 -4 -9 -10 -9 -5 0 -10 7 -10 16 0 8 5 12 10 9 6 -3
10 -10 10 -16z m-1950 -14 c-16 -19 -3 -37 21 -30 23 7 27 -20 5 -28 -22 -9
-83 11 -90 29 -8 20 4 41 14 25 7 -13 40 -4 40 10 0 5 5 9 11 9 8 0 8 -4 -1
-15z m2030 11 c0 -3 -4 -8 -10 -11 -5 -3 -10 -1 -10 4 0 6 5 11 10 11 6 0 10
-2 10 -4z m245 -46 c-8 -24 -28 -22 -33 5 -4 20 18 39 31 26 5 -5 6 -19 2 -31z
m-169 10 c0 -11 -4 -20 -8 -20 -10 0 -11 24 -1 33 9 9 9 10 9 -13z m-1449 -12
c-3 -8 -6 -5 -6 6 -1 11 2 17 5 13 3 -3 4 -12 1 -19z m142 -15 c0 -25 -1 -26
-9 -8 -12 27 -12 35 0 35 6 0 10 -12 9 -27z m-69 7 c0 -5 -4 -10 -10 -10 -5 0
-10 5 -10 10 0 6 5 10 10 10 6 0 10 -4 10 -10z m1250 -14 c0 -3 -4 -8 -10 -11
-5 -3 -10 -1 -10 4 0 6 5 11 10 11 6 0 10 -2 10 -4z m-2840 -31 c7 -14 11 -28
7 -31 -9 -10 -50 33 -42 45 10 17 21 13 35 -14z m1448 7 c2 -7 -6 -12 -17 -12
-21 0 -27 11 -14 24 9 9 26 2 31 -12z m1792 -3 c0 -6 -4 -7 -10 -4 -5 3 -10
11 -10 16 0 6 5 7 10 4 6 -3 10 -11 10 -16z m-2778 -41 c-2 -10 -9 -18 -14
-18 -6 0 -8 10 -4 23 3 12 6 29 7 37 0 10 3 8 8 -5 4 -11 6 -28 3 -37z m2300
20 c-9 -9 -15 -9 -24 0 -10 10 -10 15 2 22 20 12 38 -6 22 -22z m-2072 6 c0
-8 -5 -12 -10 -9 -6 4 -8 11 -5 16 9 14 15 11 15 -7z m134 0 c3 -8 2 -12 -4
-9 -6 3 -10 10 -10 16 0 14 7 11 14 -7z m-2164 -16 c27 16 35 15 20 -3 -7 -8
-10 -22 -6 -30 7 -20 -18 -20 -34 0 -7 8 -17 12 -22 9 -5 -3 -16 2 -23 12 -22
30 -18 35 15 16 24 -14 33 -15 50 -4z m113 15 c4 -3 -2 -13 -14 -21 -23 -16
-34 -10 -26 13 7 15 28 20 40 8z m72 -31 c-6 -7 -35 18 -35 31 0 5 9 2 20 -8
11 -10 18 -20 15 -23z m779 4 c-10 -8 -20 -13 -22 -11 -2 2 2 13 8 25 9 16 15
19 23 11 8 -8 6 -15 -9 -25z m1373 27 c-10 -9 -57 -10 -57 -1 0 4 14 8 32 8
17 0 28 -3 25 -7z m513 3 c0 -3 -4 -8 -10 -11 -5 -3 -10 -1 -10 4 0 6 5 11 10
11 6 0 10 -2 10 -4z m-2463 -12 c-3 -3 -12 -4 -19 -1 -8 3 -5 6 6 6 11 1 17
-2 13 -5z m1838 -4 c3 -6 -1 -7 -9 -4 -18 7 -21 14 -7 14 6 0 13 -4 16 -10z
m1665 0 c8 -5 11 -10 5 -10 -5 0 -17 5 -25 10 -8 5 -10 10 -5 10 6 0 17 -5 25
-10z m291 -13 c-13 -13 -26 -3 -16 12 3 6 11 8 17 5 6 -4 6 -10 -1 -17z
m-3898 3 c7 0 -3 -9 -20 -20 -18 -11 -33 -25 -34 -32 0 -7 -4 -4 -9 7 -13 29
-12 33 8 31 10 0 16 5 14 13 -2 9 3 11 13 7 9 -3 22 -6 28 -6z m644 -16 c-3
-3 -17 -2 -32 2 -19 5 -23 9 -14 15 13 7 55 -8 46 -17z m330 6 c27 -21 23 -24
-14 -14 -13 4 -23 13 -23 20 0 19 7 18 37 -6z m3010 3 c2 -6 -3 -13 -12 -16
-10 -5 -15 0 -15 14 0 21 21 22 27 2z m-2384 -29 c-14 -14 -28 -23 -31 -20 -7
7 40 54 50 49 4 -2 -5 -15 -19 -29z m1087 32 c0 -3 -4 -8 -10 -11 -5 -3 -10
-1 -10 4 0 6 5 11 10 11 6 0 10 -2 10 -4z m-651 -37 c-24 -15 -30 -10 -11 9 9
10 19 14 21 9 2 -5 -3 -13 -10 -18z m-1554 11 c8 0 11 -7 8 -20 -5 -20 -7 -20
-24 -4 -10 9 -27 14 -39 11 -11 -3 -20 -1 -20 3 0 10 30 19 48 14 8 -2 20 -4
27 -4z m324 -27 c-6 -7 -8 -16 -5 -21 3 -6 -4 -12 -15 -15 -14 -4 -19 -1 -16
7 3 7 1 19 -3 27 -14 22 8 41 30 26 14 -8 16 -15 9 -24z m581 22 c0 -8 -2 -15
-4 -15 -2 0 -6 7 -10 15 -3 8 -1 15 4 15 6 0 10 -7 10 -15z m2094 -25 c-14
-14 -39 14 -29 31 5 8 12 6 23 -5 11 -11 13 -19 6 -26z m-2794 20 c0 -5 -4
-10 -10 -10 -5 0 -10 5 -10 10 0 6 5 10 10 10 6 0 10 -4 10 -10z m646 1 c-5
-8 -56 -3 -56 5 0 2 14 4 31 4 16 0 28 -4 25 -9z m-1546 -11 c0 -5 -6 -10 -14
-10 -8 0 -18 5 -21 10 -3 6 3 10 14 10 12 0 21 -4 21 -10z m69 1 c10 -6 5 -13
-19 -25 -40 -20 -38 -20 -36 2 0 9 8 20 16 24 20 9 23 9 39 -1z m868 3 c-3 -3
-12 -4 -19 -1 -8 3 -5 6 6 6 11 1 17 -2 13 -5z m747 -10 c9 -8 16 -21 15 -27
0 -9 -2 -8 -6 1 -2 6 -13 12 -23 12 -10 0 -26 3 -36 7 -16 6 -16 7 2 14 28 11
31 11 48 -7z m414 -6 c0 -13 3 -33 7 -45 4 -14 3 -23 -3 -23 -5 0 -12 14 -16
31 -8 43 -8 59 3 59 5 0 9 -10 9 -22z m345 2 c3 -11 1 -20 -4 -20 -5 0 -9 9
-9 20 0 11 2 20 4 20 2 0 6 -9 9 -20z m77 -6 c0 -8 -4 -14 -10 -14 -5 0 -10 9
-10 21 0 11 5 17 10 14 6 -3 10 -13 10 -21z m110 1 c0 -25 -23 -35 -35 -15
-10 16 2 40 20 40 9 0 15 -9 15 -25z m-2376 0 c-10 -8 -30 -14 -44 -14 l-25 0
25 14 c14 8 34 14 44 15 20 0 20 0 0 -15z m1026 9 c0 -17 -23 -44 -38 -44 -10
0 -13 3 -6 8 6 4 13 15 17 25 6 15 27 25 27 11z m620 -4 c0 -5 -8 -10 -17 -10
-15 0 -16 2 -3 10 19 12 20 12 20 0z m990 0 c0 -5 -2 -10 -4 -10 -3 0 -8 5
-11 10 -3 6 -1 10 4 10 6 0 11 -4 11 -10z m1523 -1 c29 -16 28 -14 21 -33 -3
-9 -12 -16 -19 -16 -21 0 -45 29 -39 45 7 18 9 18 37 4z m-3783 -9 c0 -5 -5
-10 -11 -10 -5 0 -7 5 -4 10 3 6 8 10 11 10 2 0 4 -4 4 -10z m-715 -38 c-6 -7
-54 22 -49 29 3 5 16 1 29 -8 13 -10 22 -19 20 -21z m1495 34 c0 -3 -4 -8 -10
-11 -5 -3 -10 -1 -10 4 0 6 5 11 10 11 6 0 10 -2 10 -4z m1394 -12 c8 -21 -13
-49 -27 -35 -10 10 0 51 13 51 4 0 11 -7 14 -16z m986 -5 c0 -5 -7 -9 -15 -9
-15 0 -20 12 -9 23 8 8 24 -1 24 -14z m857 4 c4 -12 -34 -29 -44 -19 -3 3 -3
12 1 21 7 18 37 17 43 -2z m-4117 3 c0 -2 -7 -7 -16 -10 -8 -3 -12 -2 -9 4 6
10 25 14 25 6z m1860 -16 c11 -11 20 -26 20 -34 0 -8 5 -18 10 -21 6 -3 10
-11 10 -16 0 -13 -55 51 -63 74 -8 22 -2 22 23 -3z m576 3 c0 -10 -9 -24 -18
-31 -10 -7 -18 -20 -18 -28 0 -9 -10 -14 -27 -13 -22 1 -23 2 -8 6 27 7 36 23
30 52 -5 18 -3 22 9 18 9 -4 18 -2 21 3 9 15 13 12 11 -7z m-933 -23 c3 -11 1
-18 -4 -14 -5 3 -9 12 -9 20 0 20 7 17 13 -6z m-1578 0 c3 -6 -1 -7 -9 -4 -18
7 -21 14 -7 14 6 0 13 -4 16 -10z m160 0 c-3 -5 -12 -10 -18 -10 -7 0 -6 4 3
10 19 12 23 12 15 0z m1020 0 c3 -5 -1 -10 -10 -10 -9 0 -13 5 -10 10 3 6 8
10 10 10 2 0 7 -4 10 -10z m300 0 c3 -6 -1 -7 -9 -4 -18 7 -21 14 -7 14 6 0
13 -4 16 -10z m-395 -10 c0 -5 -8 -10 -17 -10 -15 0 -16 2 -3 10 19 12 20 12
20 0z m740 -15 c0 -19 -20 -29 -32 -17 -8 8 -7 16 2 26 14 17 30 12 30 -9z
m210 10 c0 -7 8 -18 17 -24 10 -5 15 -12 11 -16 -7 -8 -48 30 -48 45 0 6 5 10
10 10 6 0 10 -7 10 -15z m223 1 c16 -13 16 -14 -5 -19 -22 -6 -41 9 -32 25 7
11 16 10 37 -6z m1557 4 c0 -5 -4 -10 -10 -10 -5 0 -10 5 -10 10 0 6 5 10 10
10 6 0 10 -4 10 -10z m-3195 -10 c-3 -5 -11 -10 -16 -10 -6 0 -7 5 -4 10 3 6
11 10 16 10 6 0 7 -4 4 -10z m420 1 c3 -6 -4 -15 -15 -21 -13 -7 -19 -18 -16
-26 3 -8 1 -14 -4 -14 -14 0 -12 38 3 55 14 17 24 18 32 6z m2429 -5 c-3 -8
-12 -12 -20 -9 -21 8 -17 23 6 23 13 0 18 -5 14 -14z m-3224 0 c0 -3 -4 -8
-10 -11 -5 -3 -10 -1 -10 4 0 6 5 11 10 11 6 0 10 -2 10 -4z m1019 -27 c-12
-23 -12 -23 -19 -4 -5 14 -2 22 9 26 22 9 25 4 10 -22z m2311 10 c0 -6 -4 -7
-10 -4 -5 3 -10 11 -10 16 0 6 5 7 10 4 6 -3 10 -11 10 -16z m-3095 -9 c-3 -5
-10 -10 -16 -10 -5 0 -9 5 -9 10 0 6 7 10 16 10 8 0 12 -4 9 -10z m1832 4 c-3
-3 -12 -4 -19 -1 -8 3 -5 6 6 6 11 1 17 -2 13 -5z m-435 -26 c-7 -7 -12 -8
-12 -2 0 14 12 26 19 19 2 -3 -1 -11 -7 -17z m488 1 c0 -5 -4 -9 -10 -9 -5 0
-10 7 -10 16 0 8 5 12 10 9 6 -3 10 -10 10 -16z m1610 -1 c0 -6 -6 -5 -15 2
-8 7 -15 14 -15 16 0 2 7 1 15 -2 8 -4 15 -11 15 -16z m-2790 8 c0 -11 -19
-15 -25 -6 -3 5 1 10 9 10 9 0 16 -2 16 -4z m440 -1 c0 -2 -9 -9 -20 -15 -16
-9 -20 -8 -20 5 0 8 9 15 20 15 11 0 20 -2 20 -5z m1900 -5 c0 -5 -9 -14 -20
-20 -26 -14 -27 -56 -1 -63 11 -2 24 0 29 5 11 11 32 3 32 -11 0 -12 -34 -19
-63 -14 -20 4 -27 13 -32 41 -6 30 -3 39 17 54 26 20 38 23 38 8z m567 -12
c-3 -8 -6 -5 -6 6 -1 11 2 17 5 13 3 -3 4 -12 1 -19z m-4037 2 c0 -5 -5 -10
-11 -10 -5 0 -7 5 -4 10 3 6 8 10 11 10 2 0 4 -4 4 -10z m2150 -34 c-1 -20 -2
-20 -15 4 -19 33 -19 46 0 30 8 -7 15 -22 15 -34z m-2689 17 c13 -16 12 -17
-3 -4 -10 7 -18 15 -18 17 0 8 8 3 21 -13z m2603 -33 c-20 -7 -43 13 -44 38 0
9 10 6 32 -9 28 -20 29 -23 12 -29z m330 9 c-3 -5 -15 -9 -27 -9 -17 0 -19 2
-8 9 8 6 11 16 7 27 -7 17 -6 17 13 0 11 -10 18 -23 15 -27z m-1114 22 c0 -6
-4 -13 -10 -16 -5 -3 -10 -15 -10 -26 0 -10 -4 -19 -10 -19 -5 0 -7 6 -4 14 3
8 0 17 -6 21 -8 5 -8 11 1 21 13 16 39 19 39 5z m195 -1 c3 -5 -1 -10 -9 -10
-9 0 -16 -5 -16 -12 0 -9 -3 -9 -12 0 -10 10 -10 15 2 22 19 12 27 12 35 0z
m-380 -10 c-3 -5 -11 -10 -16 -10 -6 0 -7 5 -4 10 3 6 11 10 16 10 6 0 7 -4 4
-10z m99 -5 c-10 -8 -27 -15 -38 -15 -30 0 -2 25 30 28 27 2 27 1 8 -13z
m2577 2 c-1 -12 -15 -9 -19 4 -3 6 1 10 8 8 6 -3 11 -8 11 -12z m99 -11 c0
-33 -20 -46 -47 -31 l-23 12 27 21 c35 28 43 28 43 -2z m-4361 -11 c3 -17 2
-17 -13 -3 -19 20 -21 31 -3 26 6 -3 14 -13 16 -23z m4171 15 c0 -5 -5 -10
-11 -10 -5 0 -7 5 -4 10 3 6 8 10 11 10 2 0 4 -4 4 -10z m464 -5 c-7 -17 -20
-20 -28 -6 -7 10 3 21 20 21 8 0 11 -6 8 -15z m-4032 -17 c-12 -12 -35 -1 -27
12 3 5 13 6 21 3 10 -4 12 -9 6 -15z m485 10 c37 -10 47 -10 50 0 7 19 30 14
36 -8 3 -12 14 -20 26 -20 23 0 28 -19 9 -38 -11 -11 -9 -13 40 -28 8 -2 12
-12 10 -21 -3 -15 -12 -17 -56 -15 -55 4 -92 -14 -92 -45 0 -7 -3 -13 -7 -13
-5 0 -17 -7 -27 -15 -15 -11 -16 -17 -7 -28 7 -9 10 -35 7 -63 -4 -53 11 -97
30 -90 6 2 17 -1 23 -7 9 -9 13 -6 17 11 4 12 10 22 15 22 17 0 17 -18 -2 -46
-35 -53 -15 -89 25 -45 20 22 38 90 28 105 -4 6 -7 22 -7 36 0 15 -6 25 -15
25 -10 0 -16 12 -18 35 -3 29 10 38 14 9 1 -5 2 -13 3 -19 3 -23 22 -7 37 30
19 46 50 57 40 13 -5 -17 -3 -29 6 -34 9 -6 5 -11 -14 -18 -35 -13 -41 -26
-23 -45 9 -8 11 -17 6 -21 -6 -3 -13 -26 -17 -50 -3 -25 -10 -48 -15 -50 -4
-3 -6 -12 -2 -20 3 -9 -1 -15 -11 -15 -9 0 -22 -15 -30 -32 -9 -22 -15 -27
-15 -15 -2 39 -74 -7 -78 -50 -1 -12 3 -25 8 -29 14 -8 41 16 35 32 -8 21 20
23 33 2 10 -16 9 -24 -4 -44 -17 -26 -31 -31 -37 -13 -3 9 -10 9 -26 0 -33
-18 -13 -47 38 -56 25 -4 40 -12 40 -21 0 -8 7 -14 16 -14 14 0 13 -5 -5 -36
-25 -41 -21 -54 17 -54 l27 -1 -24 -20 c-37 -30 -50 -18 -55 49 0 12 -4 22 -7
22 -4 0 -9 13 -12 30 -5 21 -14 31 -32 36 -32 8 -36 25 -32 152 3 99 -2 120
-21 86 -6 -11 -12 -13 -16 -6 -3 6 -2 13 4 17 16 10 12 45 -5 45 -18 0 -19 11
-4 43 8 19 7 31 -10 60 -13 23 -16 39 -10 43 14 8 6 29 -12 29 -30 2 -68 17
-73 31 -8 22 4 44 25 44 10 0 19 7 19 15 0 8 -7 15 -16 15 -8 0 -13 4 -9 9 3
5 1 12 -4 15 -10 6 -3 46 8 46 19 0 73 -44 81 -66 13 -34 44 -29 48 9 2 15 9
27 18 27 17 0 18 24 2 38 -7 5 -24 12 -37 14 -27 3 -42 28 -17 28 9 0 37 -6
63 -12z m763 -15 c13 3 20 0 20 -9 0 -8 -4 -14 -10 -14 -5 0 -10 -7 -10 -15 0
-18 -5 -18 -31 -5 -11 6 -19 21 -19 37 0 21 2 24 15 13 8 -7 24 -10 35 -7z
m259 -23 l26 -1 -24 -13 c-30 -16 -58 -10 -72 17 -16 29 11 44 30 17 7 -11 25
-20 40 -20z m66 30 c3 -5 1 -10 -4 -10 -6 0 -11 5 -11 10 0 6 2 10 4 10 3 0 8
-4 11 -10z m1884 -28 c-25 -17 -42 -7 -27 17 9 15 15 17 29 8 17 -10 17 -12
-2 -25z m451 34 c0 -11 -19 -15 -25 -6 -3 5 1 10 9 10 9 0 16 -2 16 -4z
m-3860 -16 c0 -5 -2 -10 -4 -10 -3 0 -8 5 -11 10 -3 6 -1 10 4 10 6 0 11 -4
11 -10z m880 -5 c0 -24 36 -37 54 -19 9 8 16 11 16 5 0 -5 -5 -13 -11 -17 -6
-3 -9 -15 -6 -25 3 -11 2 -19 -1 -19 -15 0 -83 71 -77 80 9 15 25 12 25 -5z
m830 5 c8 -5 11 -10 5 -10 -5 0 -17 5 -25 10 -8 5 -10 10 -5 10 6 0 17 -5 25
-10z m1370 -8 c0 -4 -9 -8 -20 -9 -11 -1 -20 2 -20 8 0 5 9 9 20 9 11 0 20 -4
20 -8z m110 -14 c29 -32 14 -37 -18 -5 -14 15 -21 27 -15 27 7 0 21 -10 33
-22z m-3890 3 c0 -6 -4 -13 -10 -16 -5 -3 -10 1 -10 9 0 9 5 16 10 16 6 0 10
-4 10 -9z m1760 -1 c0 -5 -4 -10 -10 -10 -5 0 -10 5 -10 10 0 6 5 10 10 10 6
0 10 -4 10 -10z m1015 0 c3 -5 -3 -18 -15 -30 -18 -18 -20 -19 -20 -2 0 10 -5
23 -12 30 -9 9 -6 12 14 12 15 0 29 -4 33 -10z m214 -6 c7 -6 -2 -12 -32 -19
-23 -6 -27 -4 -27 15 0 19 4 21 27 15 16 -4 30 -9 32 -11z m1631 1 c10 -12 10
-15 -4 -15 -9 0 -16 7 -16 15 0 8 2 15 4 15 2 0 9 -7 16 -15z m-2656 -22 c-10
-41 -37 -56 -48 -28 -4 10 1 15 14 15 13 0 20 7 20 20 0 11 5 20 10 20 6 0 8
-11 4 -27z m280 18 c11 -4 15 -10 9 -14 -5 -3 -19 0 -29 8 -20 15 -11 18 20 6z
m103 3 c-3 -3 -12 -4 -19 -1 -8 3 -5 6 6 6 11 1 17 -2 13 -5z m23 -75 c-15
-27 -16 -24 -11 24 3 37 5 39 12 19 6 -14 5 -31 -1 -43z m460 51 c0 -5 -7 -10
-15 -10 -8 0 -15 5 -15 10 0 6 7 10 15 10 8 0 15 -4 15 -10z m1380 -5 c6 -8 9
-19 5 -25 -4 -6 -1 -17 5 -25 9 -11 9 -15 1 -15 -6 0 -16 11 -21 25 -5 14 -16
25 -25 25 -18 0 -20 16 -2 23 20 9 24 8 37 -8z m-2783 -1 c-3 -3 -12 -4 -19
-1 -8 3 -5 6 6 6 11 1 17 -2 13 -5z m273 2 c0 -3 -4 -8 -10 -11 -5 -3 -10 -1
-10 4 0 6 5 11 10 11 6 0 10 -2 10 -4z m940 -17 c0 -6 -4 -7 -10 -4 -5 3 -10
11 -10 16 0 6 5 7 10 4 6 -3 10 -11 10 -16z m1774 -4 c-4 -8 -10 -12 -15 -9
-11 6 -2 24 11 24 5 0 7 -7 4 -15z m-2908 -24 c3 -16 19 -39 36 -51 16 -12 27
-24 24 -27 -3 -3 -12 0 -21 7 -8 7 -15 9 -15 4 0 -14 -49 69 -50 84 0 24 21
11 26 -17z m712 1 c3 -20 0 -23 -20 -20 -15 2 -24 11 -26 26 -3 20 0 23 20 20
15 -2 24 -11 26 -26z m1580 8 c3 -7 0 -10 -6 -6 -6 3 -23 -5 -38 -19 -15 -14
-28 -25 -30 -25 -5 0 3 47 10 58 9 14 59 8 64 -8z m-1948 -6 c0 -8 -4 -12 -10
-9 -5 3 -10 10 -10 16 0 5 5 9 10 9 6 0 10 -7 10 -16z m2084 1 c6 -17 46 -21
46 -4 0 6 7 4 15 -5 8 -8 15 -17 15 -20 0 -11 -50 -6 -69 6 -29 18 -53 3 -45
-27 8 -30 -12 -34 -21 -4 -5 14 0 28 16 45 26 28 35 30 43 9z m181 5 c-3 -5
-13 -10 -21 -10 -8 0 -12 5 -9 10 3 6 13 10 21 10 8 0 12 -4 9 -10z m-1623
-42 c16 -17 28 -32 28 -34 0 -2 -20 -4 -45 -4 -36 0 -45 3 -45 18 0 9 -3 28
-7 41 -5 21 -4 23 18 16 13 -4 36 -21 51 -37z m363 32 c-3 -5 -13 -10 -21 -10
-8 0 -12 5 -9 10 3 6 13 10 21 10 8 0 12 -4 9 -10z m-534 -13 c-1 -12 -15 -9
-19 4 -3 6 1 10 8 8 6 -3 11 -8 11 -12z m480 -2 c0 -5 -11 -12 -23 -13 -13 -2
-29 -9 -35 -14 -10 -8 -13 -5 -13 10 0 13 8 22 23 25 31 6 48 4 48 -8z m-808
-38 c-4 -28 -10 -37 -25 -37 -19 0 -19 1 1 29 12 16 21 35 21 42 0 7 2 10 5 8
2 -3 2 -22 -2 -42z m-551 13 c10 0 18 -4 18 -10 0 -5 -10 -8 -22 -6 -13 3 -26
5 -30 5 -5 1 -8 9 -8 18 0 13 3 14 12 5 7 -7 20 -12 30 -12z m333 0 c4 -6 -1
-23 -11 -38 -10 -15 -17 -35 -16 -44 3 -13 -4 -18 -22 -18 -24 0 -56 -23 -56
-40 0 -4 -12 -11 -26 -14 -19 -5 -24 -11 -19 -24 5 -13 3 -14 -5 -6 -13 13 3
53 26 67 17 10 19 37 3 37 -6 0 -24 14 -39 31 -23 24 -26 31 -14 36 8 3 26 1
40 -6 31 -14 104 -4 111 15 6 17 19 18 28 4z m607 -23 c3 -15 -4 -35 -19 -53
-22 -28 -23 -28 -23 -6 0 12 7 25 15 28 10 4 12 15 8 36 -4 20 -3 29 4 25 6
-4 13 -17 15 -30z m1428 3 c-24 -18 -20 -40 8 -40 14 0 15 -2 2 -9 -17 -11
-26 -7 -40 19 -8 15 -6 24 10 40 11 11 26 18 32 14 7 -4 3 -13 -12 -24z
m-3200 -47 c0 -18 -2 -33 -4 -33 -8 0 -34 89 -28 95 12 11 32 -28 32 -62z
m1970 57 c0 -5 -5 -10 -11 -10 -5 0 -7 5 -4 10 3 6 8 10 11 10 2 0 4 -4 4 -10z
m2025 0 c3 -5 1 -10 -4 -10 -6 0 -11 5 -11 10 0 6 2 10 4 10 3 0 8 -4 11 -10z
m-2705 -22 c0 -18 -2 -20 -9 -8 -6 8 -7 18 -5 22 9 14 14 9 14 -14z m410 2 c0
-11 -4 -20 -10 -20 -5 0 -10 9 -10 20 0 11 5 20 10 20 6 0 10 -9 10 -20z m675
0 c18 -19 17 -20 -3 -20 -15 0 -22 6 -22 20 0 11 2 20 3 20 2 0 12 -9 22 -20z
m750 3 c18 -14 18 -15 2 -9 -10 3 -23 6 -28 6 -5 0 -9 5 -9 10 0 14 12 12 35
-7z m-1055 -3 c0 -5 -4 -10 -10 -10 -5 0 -10 5 -10 10 0 6 5 10 10 10 6 0 10
-4 10 -10z m-2119 -60 c9 -29 9 -43 1 -53 -7 -8 -9 -17 -5 -21 8 -8 16 -56 9
-56 -2 0 -13 15 -24 33 -17 29 -17 35 -5 43 13 8 11 16 -11 55 -14 26 -23 49
-19 52 13 14 43 -16 54 -53z m139 34 c0 -8 5 -14 11 -14 6 0 9 -6 6 -13 -3 -7
4 -19 15 -26 15 -9 17 -16 9 -24 -19 -19 -12 -30 16 -24 24 4 25 4 10 -8 -16
-11 -16 -14 -1 -45 15 -29 15 -33 1 -48 -15 -14 -17 -13 -27 13 -15 38 -35 52
-83 53 -50 2 -55 7 -34 30 10 10 17 23 17 29 0 6 7 24 14 40 8 15 17 36 20 46
7 20 26 14 26 -9z m3261 13 c18 -14 14 -37 -6 -37 -7 0 -16 7 -19 16 -13 35
-4 43 25 21z m-1541 -7 c0 -5 -4 -10 -10 -10 -5 0 -10 5 -10 10 0 6 5 10 10
10 6 0 10 -4 10 -10z m660 -10 c0 -5 -15 -10 -32 -10 -25 0 -29 3 -18 10 20
13 50 13 50 0z m-211 -14 c17 -21 -4 -30 -29 -13 -11 8 -17 17 -13 20 11 11
30 8 42 -7z m-1499 -6 c0 -5 -8 -10 -17 -10 -15 0 -16 2 -3 10 19 12 20 12 20
0z m2180 -15 c0 -8 -6 -12 -14 -9 -8 3 -12 12 -9 20 6 17 23 9 23 -11z m347
-82 c-5 -7 -5 -17 -1 -24 4 -7 2 -10 -7 -7 -8 2 -15 19 -17 36 -3 31 -11 37
-41 33 -7 -2 -10 2 -6 8 3 6 15 11 26 11 14 0 19 7 20 28 0 22 4 17 18 -23 11
-31 14 -55 8 -62z m163 92 c-7 -9 -15 -13 -17 -11 -7 7 7 26 19 26 6 0 6 -6
-2 -15z m-3685 -5 c3 -5 -1 -10 -9 -10 -9 0 -16 5 -16 10 0 6 4 10 9 10 6 0
13 -4 16 -10z m631 -10 c2 -35 5 -40 20 -40 13 0 14 -3 5 -14 -6 -7 -22 -11
-35 -9 -21 4 -23 8 -13 24 9 14 9 21 -1 31 -17 17 -15 30 5 26 10 -2 18 -10
19 -18z m173 -43 c1 -10 -3 -15 -9 -12 -5 3 -10 21 -9 38 0 27 2 29 9 12 5
-11 9 -28 9 -38z m611 43 c0 -5 -5 -10 -11 -10 -5 0 -7 5 -4 10 3 6 8 10 11
10 2 0 4 -4 4 -10z m98 -25 c-1 -21 -6 -35 -14 -35 -19 0 -26 17 -9 24 8 3 15
15 15 26 0 11 2 20 5 20 2 0 4 -16 3 -35z m146 20 c11 -8 14 -15 8 -15 -7 0
-12 -8 -13 -17 0 -14 -3 -13 -11 5 -6 12 -15 22 -20 22 -4 0 -8 5 -8 10 0 14
22 12 44 -5z m166 -5 c-24 -15 -37 -11 -16 5 11 8 22 12 25 9 3 -3 -1 -9 -9
-14z m-1420 6 c0 -3 -4 -8 -10 -11 -5 -3 -10 -1 -10 4 0 6 5 11 10 11 6 0 10
-2 10 -4z m-790 -21 c0 -8 -4 -15 -10 -15 -5 0 -10 7 -10 15 0 8 5 15 10 15 6
0 10 -7 10 -15z m354 -1 c9 -24 2 -26 -12 -4 -7 11 -8 20 -3 20 5 0 12 -7 15
-16z m2759 -10 c-6 -17 -23 -9 -23 11 0 8 6 12 14 9 8 -3 12 -12 9 -20z m1002
16 c3 -5 1 -10 -4 -10 -6 0 -11 5 -11 10 0 6 2 10 4 10 3 0 8 -4 11 -10z
m-1836 -34 c-31 -16 -42 -10 -29 15 9 16 14 17 32 8 20 -11 20 -11 -3 -23z
m1708 12 c-3 -8 -6 -5 -6 6 -1 11 2 17 5 13 3 -3 4 -12 1 -19z m-1577 2 c0 -5
-5 -10 -11 -10 -5 0 -7 5 -4 10 3 6 8 10 11 10 2 0 4 -4 4 -10z m1400 6 c0 -3
-4 -8 -10 -11 -5 -3 -10 -1 -10 4 0 6 5 11 10 11 6 0 10 -2 10 -4z m-33 -22
c-3 -3 -12 -4 -19 -1 -8 3 -5 6 6 6 11 1 17 -2 13 -5z m823 -3 c0 -12 -20 -25
-27 -18 -7 7 6 27 18 27 5 0 9 -4 9 -9z m-4113 -48 c1 -27 2 -58 2 -70 1 -12
10 -24 21 -28 25 -8 26 -31 2 -44 -20 -11 -62 -4 -62 10 0 5 -7 9 -15 9 -9 0
-15 9 -15 24 0 13 7 29 15 36 8 7 15 18 15 24 0 22 21 86 28 86 4 0 8 -21 9
-47z m1667 32 c-4 -8 -10 -15 -15 -15 -5 0 -9 7 -9 15 0 8 7 15 15 15 9 0 12
-6 9 -15z m260 -1 c20 -8 20 -20 0 -28 -21 -8 -34 1 -27 19 6 17 6 17 27 9z
m391 -4 c3 -5 1 -10 -4 -10 -6 0 -11 5 -11 10 0 6 2 10 4 10 3 0 8 -4 11 -10z
m870 -7 c3 -10 1 -19 -4 -21 -6 -2 -11 -9 -11 -15 0 -13 -45 -15 -72 -3 -10 5
-25 6 -33 2 -8 -3 -15 -2 -15 3 0 9 70 32 81 26 3 -3 12 2 19 10 16 20 26 19
35 -2z m-1325 3 c0 -3 -4 -8 -10 -11 -5 -3 -10 -1 -10 4 0 6 5 11 10 11 6 0
10 -2 10 -4z m601 -6 c5 0 9 -8 9 -17 0 -9 9 -26 19 -37 20 -21 20 -21 -10
-21 -21 0 -28 4 -24 14 9 23 -5 51 -26 51 -12 0 -17 4 -14 11 4 6 14 8 22 5 8
-3 19 -6 24 -6z m-1929 -53 c7 -54 14 -67 34 -67 8 0 14 -4 14 -10 0 -13 -13
-13 -27 1 -8 8 -17 8 -33 -1 -16 -9 -25 -9 -36 0 -7 7 -23 10 -34 7 -11 -3
-23 -1 -26 4 -3 5 6 9 19 9 32 0 43 15 52 68 9 55 28 50 37 -11z m3108 49 c0
-11 -19 -15 -25 -6 -3 5 1 10 9 10 9 0 16 -2 16 -4z m-1083 -26 c14 -11 21
-20 15 -20 -12 0 -60 39 -49 40 5 0 20 -9 34 -20z m-2640 -12 c-3 -8 -6 -5 -6
6 -1 11 2 17 5 13 3 -3 4 -12 1 -19z m517 9 c19 -14 15 -57 -5 -57 -6 0 -8 4
-5 9 9 13 -19 32 -38 25 -18 -7 -21 -29 -6 -39 8 -5 7 -11 -1 -21 -9 -11 -5
-17 20 -31 16 -10 32 -27 33 -38 2 -11 10 -19 17 -17 8 2 17 -2 21 -9 9 -14
64 -3 85 18 13 13 15 13 15 -1 0 -9 5 -16 10 -16 11 0 -4 -31 -29 -63 -11 -13
-12 -20 -3 -29 16 -16 15 -39 0 -35 -17 3 -11 -35 7 -48 10 -9 9 -15 -6 -34
-29 -36 -25 -54 11 -49 27 4 29 2 23 -16 -4 -12 -7 -33 -8 -48 0 -17 -6 -28
-14 -28 -8 0 -11 6 -7 16 3 8 2 12 -3 9 -5 -3 -12 -1 -16 5 -4 7 -13 7 -26 -1
-16 -8 -25 -7 -42 8 l-22 18 19 -23 c11 -12 16 -25 13 -29 -10 -10 -127 -12
-127 -2 0 4 8 12 17 18 23 12 9 25 -29 27 -17 1 -27 -1 -22 -5 5 -3 10 -16 11
-29 3 -21 2 -22 -25 -8 -23 12 -32 12 -52 1 -24 -13 -50 -10 -50 6 0 5 16 9
35 9 19 0 35 4 35 8 0 14 -85 102 -98 102 -6 0 -12 5 -12 10 0 6 5 10 10 10 7
0 7 8 -1 22 -9 17 -9 24 4 33 11 8 14 20 10 36 -5 20 -3 22 8 12 7 -7 23 -13
35 -13 17 0 21 5 17 20 -4 15 -11 18 -32 14 -18 -4 -32 0 -40 10 -8 9 -9 16
-4 16 5 0 10 14 10 31 0 23 -7 34 -24 42 -12 5 -23 14 -23 19 0 5 9 4 19 -2
27 -14 41 -13 41 5 0 9 -11 21 -25 27 -25 11 -34 28 -15 28 6 0 10 6 10 14 0
22 45 26 59 4 15 -23 14 -28 -4 -28 -17 0 -18 -2 -9 -24 9 -22 45 -20 51 3 3
10 19 27 37 36 20 11 32 25 32 37 -1 14 10 24 34 33 47 17 53 17 74 2z m-313
-4 c-11 -4 -11 -7 0 -13 10 -7 10 -12 0 -23 -6 -8 -11 -32 -11 -54 1 -21 -1
-48 -5 -59 -5 -15 0 -28 17 -44 14 -13 17 -20 8 -18 -13 2 -14 -10 -11 -77 2
-44 6 -82 10 -85 8 -7 8 -70 0 -70 -4 0 -9 9 -12 20 -3 11 -12 20 -21 20 -20
0 -21 14 -2 29 15 12 14 45 -3 165 -1 11 -39 -22 -52 -46 -6 -12 -5 -24 3 -37
11 -18 9 -24 -16 -50 -16 -17 -34 -29 -39 -28 -22 4 -17 -30 8 -55 19 -20 22
-28 13 -36 -16 -13 -63 -5 -78 13 -9 11 -7 12 9 8 16 -4 21 -1 21 16 0 11 -4
21 -10 21 -5 0 -17 15 -26 33 -16 29 -16 31 -1 18 9 -7 24 -11 32 -7 20 7 19
35 -1 43 -8 3 -13 12 -10 20 8 19 -21 28 -40 12 -10 -8 -18 -9 -22 -3 -4 6
-16 16 -27 22 -20 11 -20 11 2 12 12 0 24 -4 27 -9 7 -10 56 -2 56 9 0 5 17 6
38 4 31 -4 43 1 76 30 26 24 36 40 32 52 -4 10 -12 14 -22 10 -15 -6 -15 -4
-3 11 8 10 20 22 27 26 7 5 12 31 12 67 0 51 3 60 18 59 12 0 13 -2 3 -6z
m759 -29 c10 -25 10 -25 40 -7 16 9 30 21 30 25 0 4 7 8 17 8 14 0 14 -2 -2
-20 -10 -11 -24 -20 -32 -20 -20 0 -15 -40 6 -48 19 -7 18 -8 -5 -19 -21 -10
-26 -9 -31 5 -4 9 -15 28 -25 41 -17 22 -25 61 -13 61 3 0 10 -12 15 -26z
m-30 -47 c0 -6 -9 0 -20 13 -11 13 -20 25 -20 28 0 3 9 -3 20 -13 11 -10 20
-23 20 -28z m3348 -14 c-10 -2 -26 -2 -35 0 -10 3 -2 5 17 5 19 0 27 -2 18 -5z
m-4264 -64 c-3 -6 2 -16 12 -24 16 -12 22 -12 41 1 28 18 53 18 53 0 0 -25
-27 -38 -64 -30 -23 4 -42 2 -50 -5 -10 -8 -16 -9 -21 -1 -3 5 1 10 9 10 20 0
20 10 2 36 -13 18 -12 20 5 21 11 1 17 -3 13 -8z m4209 -36 c-7 -2 -19 -2 -25
0 -7 3 -2 5 12 5 14 0 19 -2 13 -5z m-3060 -66 c-3 -5 -9 -4 -13 3 -4 7 -13 9
-20 5 -8 -5 -7 0 2 14 12 20 14 20 25 5 7 -9 10 -21 6 -27z m3127 24 c0 -5
-11 -8 -25 -7 -33 1 -33 16 0 16 14 0 25 -4 25 -9z m-3610 -25 c0 -3 -4 -8
-10 -11 -5 -3 -10 -1 -10 4 0 6 5 11 10 11 6 0 10 -2 10 -4z m3568 -23 c-10
-2 -26 -2 -35 0 -10 3 -2 5 17 5 19 0 27 -2 18 -5z m-3363 -33 c9 -17 13 -35
10 -40 -3 -5 3 -13 12 -19 17 -10 16 -10 -2 -11 -23 0 -53 52 -47 83 5 24 9
22 27 -13z m3405 -16 c0 -2 -9 -4 -20 -4 -11 0 -20 4 -20 9 0 5 9 7 20 4 11
-3 20 -7 20 -9z m-63 0 c-3 -3 -12 -4 -19 -1 -8 3 -5 6 6 6 11 1 17 -2 13 -5z
m-203 -29 c3 -8 1 -15 -4 -15 -6 0 -10 7 -10 15 0 8 2 15 4 15 2 0 6 -7 10
-15z m116 -31 c0 -14 -3 -14 -15 -4 -8 7 -15 14 -15 16 0 2 7 4 15 4 8 0 15
-7 15 -16z m-3390 -29 c0 -19 5 -35 11 -35 8 0 8 -4 0 -13 -12 -15 3 -37 23
-33 6 2 7 1 3 -2 -4 -2 -3 -9 2 -16 8 -9 1 -12 -24 -12 -28 0 -32 2 -22 14 9
11 8 17 -6 27 -19 14 -22 40 -6 51 6 3 9 17 6 30 -2 13 0 24 4 24 5 0 9 -16 9
-35z m-775 15 c3 -5 1 -10 -4 -10 -6 0 -11 5 -11 10 0 6 2 10 4 10 3 0 8 -4
11 -10z m935 -35 c7 -8 24 -15 39 -15 l26 0 -25 -13 c-21 -11 -27 -10 -43 6
-10 10 -25 16 -34 13 -13 -5 -14 -4 -3 9 16 19 24 19 40 0z m-722 -42 c12 -19
21 -37 20 -38 -4 -5 -96 -7 -220 -6 -91 1 -106 3 -102 16 4 10 11 12 22 6 25
-13 203 -6 230 8 16 9 22 19 19 32 -8 29 6 22 31 -18z m3748 1 c-4 -10 1 -25
11 -36 16 -18 15 -19 -49 -16 -56 2 -63 4 -51 16 11 12 17 12 31 1 14 -11 15
-11 5 1 -18 20 -16 30 6 30 11 0 23 5 26 10 10 17 28 11 21 -6z m184 6 c0 -5
-4 -10 -10 -10 -5 0 -10 5 -10 10 0 6 5 10 10 10 6 0 10 -4 10 -10z m-3157
-49 c6 -6 -20 -8 -69 -6 -95 4 -92 3 -75 14 17 11 131 5 144 -8z m1265 2 c-10
-2 -28 -2 -40 0 -13 2 -5 4 17 4 22 1 32 -1 23 -4z m-148 -7 c0 -3 -4 -8 -10
-11 -5 -3 -10 -1 -10 4 0 6 5 11 10 11 6 0 10 -2 10 -4z M3627 2475 c-9 -8
-25 -15 -36 -15 -27 0 -34 -15 -15 -31 12 -10 19 -10 32 -1 10 7 25 15 35 18
18 7 23 29 8 39 -5 3 -16 -2 -24 -10z M3470 2466 c-7 -9 -9 -23 -6 -32 6 -15
9 -15 29 -1 12 8 22 21 22 28 0 20 -30 23 -45 5z M3785 2380 c-19 -7 -19 -8
-2 -15 10 -4 23 -3 29 3 14 14 -3 21 -27 12z M3830 2356 c-8 -10 -7 -15 2 -18
16 -6 38 1 38 12 0 15 -28 19 -40 6z M3803 2305 c-17 -13 -17 -14 0 -21 10 -3
21 -4 24 0 3 3 12 1 19 -5 15 -13 48 -4 40 10 -13 20 -64 30 -83 16z M3394
1559 c-9 -16 12 -33 31 -25 14 5 15 9 5 21 -15 18 -26 19 -36 4z M3704 1526
c-8 -22 3 -33 18 -18 9 9 9 15 0 24 -9 9 -13 7 -18 -6z M4550 1473 c-16 -36
-19 -57 -14 -95 6 -47 24 -74 32 -50 2 7 10 12 18 12 19 0 18 29 -1 36 -8 4
-15 11 -15 16 0 6 6 8 14 5 8 -3 20 1 26 9 10 12 7 14 -19 14 -36 0 -41 18
-12 44 11 10 17 25 14 37 -8 30 -20 23 -43 -28z M4580 1315 c-7 -8 -19 -15
-26 -15 -8 0 -14 -10 -14 -22 0 -17 3 -19 12 -10 15 15 28 16 28 2 0 -5 -11
-12 -25 -16 -26 -7 -36 -44 -12 -44 24 0 48 37 54 79 6 44 2 49 -17 26z M2007
1218 c-3 -12 -4 -25 -1 -30 7 -11 35 -10 53 1 12 8 13 12 1 25 -7 9 -15 14
-18 11 -3 -3 -11 0 -17 5 -9 8 -14 4 -18 -12z M2406 1232 c-8 -13 8 -30 36
-37 30 -8 46 9 28 30 -13 16 -56 20 -64 7z M4195 1229 c4 -5 -7 -6 -24 -3 -27
6 -32 3 -41 -22 -17 -44 2 -78 38 -69 30 7 83 63 79 84 -1 8 -14 15 -30 17
-15 1 -25 -1 -22 -7z m-15 -49 c0 -5 -5 -10 -11 -10 -5 0 -7 5 -4 10 3 6 8 10
11 10 2 0 4 -4 4 -10z M2820 1220 c-8 -5 -32 -10 -52 -10 -27 0 -38 -4 -38
-15 0 -18 43 -30 67 -19 35 15 65 10 80 -12 16 -26 43 -22 43 6 0 21 -25 44
-39 36 -5 -3 -11 1 -15 9 -6 17 -24 19 -46 5z M4041 1213 c10 -12 10 -16 -1
-23 -8 -5 -18 -6 -22 -4 -14 9 -21 -26 -8 -41 10 -12 9 -15 -3 -15 -10 0 -14
-6 -11 -14 4 -11 -4 -16 -28 -18 -44 -4 -54 -38 -10 -38 16 0 35 -7 42 -15 24
-29 64 -6 44 26 -4 7 -8 25 -8 41 -1 23 3 28 22 28 13 0 25 8 28 18 3 9 10 25
15 35 13 24 8 29 -36 33 -31 2 -34 0 -24 -13z M2190 1210 c-13 -8 -13 -11 3
-27 16 -16 18 -16 33 -1 28 27 -1 50 -36 28z M2507 1200 c-15 -14 -15 -19 -4
-28 8 -7 17 -9 20 -6 3 4 13 -1 22 -9 11 -11 22 -14 38 -8 26 10 36 41 12 41
-9 0 -28 6 -43 14 -24 12 -29 11 -45 -4z M2953 1213 c-18 -7 -16 -53 3 -60 8
-3 22 1 30 9 24 24 -1 62 -33 51z M1951 1196 c-13 -15 -5 -26 20 -26 26 0 32
17 10 29 -14 8 -22 7 -30 -3z M3028 1203 c-20 -5 -26 -57 -8 -68 20 -12 51 15
48 42 -3 28 -12 33 -40 26z M4271 1186 c-17 -20 -4 -56 20 -56 24 0 36 27 22
48 -14 22 -28 25 -42 8z M4347 1179 c-9 -6 -17 -17 -17 -24 0 -19 34 -19 49
-1 16 19 -8 38 -32 25z M4467 1159 c7 -7 15 -10 18 -7 3 3 -2 9 -12 12 -14 6
-15 5 -6 -5z M4484 1129 c-9 -15 12 -33 30 -26 9 4 16 13 16 22 0 17 -35 21
-46 4z M2396 1121 c-3 -5 1 -14 9 -21 12 -10 18 -10 30 0 18 15 11 30 -15 30
-10 0 -21 -4 -24 -9z M2685 1120 c-4 -7 -1 -16 6 -21 22 -14 49 -10 49 6 0 8
-4 15 -9 15 -5 0 -16 3 -24 6 -8 3 -18 0 -22 -6z M2944 1116 c-8 -21 3 -36 27
-36 15 0 20 6 17 22 -4 27 -35 37 -44 14z M3073 1122 c-14 -2 -23 -10 -23 -22
0 -10 -7 -20 -15 -24 -22 -8 -18 -25 8 -36 17 -7 18 -9 5 -9 -21 -1 -24 -29
-4 -37 8 -3 26 2 41 12 21 13 31 15 50 6 17 -8 26 -8 31 -1 6 10 -2 24 -14 24
-11 1 -72 35 -72 40 0 3 10 4 22 2 14 -1 23 4 26 15 4 20 -24 36 -55 30z
M4080 1107 c0 -19 26 -41 40 -32 12 8 13 35 1 35 -5 0 -16 3 -25 6 -10 4 -16
1 -16 -9z M2083 1094 c-8 -23 24 -46 46 -34 10 5 23 5 30 1 20 -13 52 -1 49
18 -4 20 -44 27 -64 11 -11 -10 -14 -9 -14 4 0 21 -39 21 -47 0z M2263 1103
c-18 -7 -16 -30 2 -37 20 -7 45 3 45 19 0 10 -25 28 -33 24 -1 0 -8 -3 -14 -6z
M2615 1100 c-4 -7 -3 -16 3 -22 14 -14 47 -6 47 12 0 18 -40 26 -50 10z M4380
1082 c0 -25 7 -31 31 -25 29 8 25 43 -6 43 -18 0 -25 -5 -25 -18z M1640 1066
c-10 -13 -9 -17 3 -22 24 -9 52 0 52 16 0 21 -39 24 -55 6z M1901 1066 c-10
-11 -8 -17 9 -29 18 -12 18 -15 5 -20 -8 -4 -15 -13 -15 -21 0 -21 40 -8 74
25 24 24 27 29 13 35 -9 3 -21 3 -27 -1 -5 -3 -10 1 -10 9 0 20 -34 21 -49 2z
M2865 1070 c-4 -7 -3 -16 3 -22 14 -14 45 -2 40 15 -6 16 -34 21 -43 7z M4324
1058 c-24 -39 7 -67 36 -33 10 12 10 18 0 30 -15 18 -26 19 -36 3z M4159 1044
c-10 -13 -10 -17 2 -25 11 -7 10 -9 -6 -7 -38 3 -55 -2 -55 -16 0 -19 60 -32
70 -16 4 7 12 10 18 6 6 -3 16 -1 24 6 7 7 22 13 33 13 13 0 20 7 20 20 0 16
-7 20 -35 20 -19 1 -40 4 -46 8 -7 4 -18 0 -25 -9z M3970 1042 c0 -4 10 -13
23 -21 22 -14 22 -14 3 8 -20 22 -26 25 -26 13z M4396 1034 c-9 -23 -8 -24 25
-24 34 0 36 18 2 31 -15 5 -23 3 -27 -7z M3904 1015 c-4 -9 -4 -19 0 -22 3 -3
-4 -14 -16 -25 -20 -17 -36 -23 -83 -30 -14 -2 -20 -11 -20 -28 0 -22 4 -25
30 -22 17 2 34 11 39 19 8 15 10 14 22 -2 15 -20 63 -24 74 -5 6 9 10 6 15 -9
5 -16 12 -20 26 -16 11 4 19 2 19 -4 0 -6 -6 -11 -12 -11 -7 0 3 -14 22 -30
34 -28 35 -29 15 -44 -20 -14 -19 -15 8 -25 36 -14 44 -14 50 2 3 9 7 9 18 1
23 -18 64 -10 64 12 0 14 -7 19 -25 19 -14 0 -30 -3 -36 -7 -6 -4 -19 -1 -30
7 -17 13 -17 14 -1 15 9 0 17 5 17 10 0 7 8 7 23 -1 21 -11 21 -11 -2 12 -15
14 -20 24 -13 27 7 2 12 12 12 22 0 14 -6 18 -25 16 -14 -2 -31 -8 -37 -14 -7
-7 -18 -12 -26 -12 -12 0 -12 3 -1 16 7 9 14 35 15 59 l3 43 -39 -10 c-54 -14
-61 -38 -12 -39 l37 -1 -35 -9 c-38 -9 -70 -4 -70 12 0 5 6 9 14 9 18 0 30 31
16 40 -6 4 -10 13 -8 21 4 20 -41 24 -48 4z M2728 1012 c-28 -5 -21 -26 16
-46 36 -19 66 -16 66 7 0 16 -58 44 -82 39z M2830 985 c0 -9 7 -18 15 -21 23
-9 45 3 39 21 -8 20 -54 20 -54 0z M2941 964 c0 -11 3 -14 6 -6 3 7 2 16 -1
19 -3 4 -6 -2 -5 -13z M3124 965 c-14 -10 -16 -17 -8 -25 13 -13 44 -3 44 15
0 21 -15 26 -36 10z M4266 965 c-20 -21 -10 -45 20 -45 27 0 33 30 10 49 -11
9 -17 8 -30 -4z M1610 955 c-15 -18 -5 -35 22 -35 16 0 18 -3 9 -14 -9 -11 -6
-15 16 -19 33 -6 53 7 53 35 0 16 -5 19 -25 16 -19 -4 -25 -1 -25 13 0 23 -32
26 -50 4z M2404 945 c-3 -8 -3 -19 1 -25 8 -12 42 -13 49 -1 3 5 15 7 25 4 23
-6 38 14 22 30 -9 9 -16 8 -31 -1 -12 -7 -21 -8 -25 -2 -9 15 -35 12 -41 -5z
M4466 953 c-3 -4 -6 -17 -6 -30 0 -18 6 -23 24 -23 25 0 39 19 28 37 -9 13
-39 23 -46 16z M2533 936 c-12 -15 1 -36 22 -36 17 0 34 21 28 36 -7 18 -34
17 -50 0z M2844 936 c-15 -12 -17 -17 -6 -28 15 -15 45 0 50 26 4 20 -18 21
-44 2z M3727 943 c-10 -3 -16 -10 -14 -16 5 -17 52 -15 52 2 0 16 -12 21 -38
14z M2056 932 c-9 -15 20 -34 46 -30 35 5 29 32 -9 36 -17 2 -34 -1 -37 -6z
M3031 924 c-45 -19 -29 -35 27 -27 42 6 56 25 26 37 -9 3 -16 6 -17 6 -1 -1
-17 -7 -36 -16z M1973 923 c-18 -7 -16 -30 4 -37 19 -8 48 17 39 33 -7 11 -22
13 -43 4z M2184 919 c-8 -14 16 -31 34 -24 8 3 18 5 23 5 5 0 9 7 9 15 0 18
-55 21 -66 4z M4151 911 c-21 -13 4 -41 35 -41 26 0 31 19 12 38 -14 14 -28
15 -47 3z M4385 910 c-10 -16 4 -30 31 -30 17 0 24 5 24 20 0 15 -7 20 -24 20
-14 0 -28 -4 -31 -10z M4230 896 c0 -18 39 -31 52 -18 15 15 0 32 -28 32 -14
0 -24 -6 -24 -14z M4304 899 c-9 -15 23 -40 42 -32 8 3 14 13 12 22 -4 19 -43
27 -54 10z M2470 886 c-10 -13 -9 -17 4 -22 22 -8 49 3 44 19 -7 18 -33 20
-48 3z M3115 890 c-3 -6 1 -13 9 -16 22 -8 68 4 61 16 -8 13 -62 13 -70 0z
M1760 860 c-17 -23 -19 -34 -11 -44 9 -11 5 -16 -19 -24 -50 -18 -32 -42 30
-42 34 0 47 15 23 24 -15 6 -15 8 -3 16 8 5 15 22 16 37 1 15 3 34 5 42 8 27
-19 21 -41 -9z M2224 869 c-3 -6 -2 -15 4 -21 15 -15 46 -5 50 15 3 12 -3 17
-22 17 -14 0 -28 -5 -32 -11z M2870 860 c0 -5 -6 -10 -13 -10 -7 0 -18 -5 -25
-12 -15 -15 3 -38 29 -38 15 0 19 7 19 35 0 19 -2 35 -5 35 -3 0 -5 -4 -5 -10z
M2759 844 c-10 -13 -10 -17 2 -25 32 -20 61 0 39 26 -16 19 -24 19 -41 -1z
M3035 850 c-3 -5 -4 -14 0 -19 3 -6 -4 -15 -15 -21 -26 -14 -26 -34 0 -27 11
3 20 1 20 -3 0 -16 59 -21 93 -9 19 7 43 9 53 5 33 -13 117 -12 121 2 3 8 -8
12 -38 12 -32 0 -47 6 -65 25 -19 20 -33 25 -73 25 -27 0 -53 5 -56 10 -3 6
-12 10 -20 10 -8 0 -17 -4 -20 -10z M2903 843 c-20 -8 -15 -30 8 -36 26 -7 49
1 49 18 0 20 -30 29 -57 18z M3830 837 c0 -17 52 -16 58 1 2 8 -7 12 -27 12
-19 0 -31 -5 -31 -13z M2010 812 c0 -23 19 -42 42 -42 13 0 18 8 18 30 0 27
-3 30 -30 30 -22 0 -30 -5 -30 -18z M4343 813 c-22 -8 -14 -33 13 -44 35 -13
58 -4 72 25 10 23 9 24 -31 23 -23 0 -48 -2 -54 -4z M2474 796 c-8 -22 2 -33
36 -38 28 -4 31 -2 28 21 -2 20 -9 27 -31 29 -17 2 -29 -2 -33 -12z M2588 803
c-22 -5 -23 -17 -3 -33 8 -6 23 -9 36 -5 16 5 19 4 14 -5 -5 -9 -4 -11 4 -6 9
6 9 13 -2 29 -15 23 -24 27 -49 20z M2097 789 c-22 -13 -13 -29 17 -29 29 0
39 10 25 27 -13 15 -18 16 -42 2z M2395 790 c-10 -16 4 -30 29 -30 28 0 36 8
29 26 -6 16 -49 19 -58 4z M2215 781 c-7 -12 26 -31 53 -31 25 0 36 26 16 34
-24 9 -62 7 -69 -3z M4281 776 c-9 -11 -8 -15 5 -20 9 -4 19 -4 22 -1 3 3 0 5
-7 5 -7 0 -9 5 -6 10 4 6 11 7 17 4 7 -4 8 -2 4 4 -10 16 -21 15 -35 -2z
M1266 1508 c-14 -8 -12 -12 14 -35 34 -28 57 -21 46 15 -8 23 -36 33 -60 20z
M1360 1195 c0 -14 5 -25 10 -25 6 0 10 11 10 25 0 14 -4 25 -10 25 -5 0 -10
-11 -10 -25z M992 1158 c-18 -18 -14 -28 12 -28 31 0 53 25 30 34 -22 9 -28 8
-42 -6z M938 1098 c-35 -29 -23 -67 17 -52 17 7 29 39 20 54 -8 13 -18 13 -37
-2z M1124 1022 c-21 -20 -18 -28 20 -51 41 -26 38 -26 67 1 17 15 19 19 6 15
-14 -5 -16 -2 -11 17 5 21 2 24 -31 28 -24 3 -42 -1 -51 -10z M1048 1002 c-24
-5 -24 -42 0 -42 18 0 42 18 42 31 0 10 -22 16 -42 11z M947 909 c-21 -12 -22
-32 -3 -48 11 -9 18 -8 30 4 19 20 20 29 3 43 -8 7 -18 7 -30 1z M1010 890
c-13 -9 -12 -13 9 -30 13 -11 18 -20 12 -20 -6 0 -11 -8 -11 -18 0 -12 8 -18
25 -20 32 -2 41 15 20 38 -11 12 -13 20 -5 25 8 5 8 11 -1 21 -13 16 -28 18
-49 4z M1102 879 c-23 -9 -26 -29 -6 -36 16 -5 36 14 32 29 -2 12 -9 13 -26 7z
M1211 831 c-7 -5 -11 -13 -7 -19 3 -6 1 -12 -6 -14 -7 -3 -5 -7 6 -11 11 -5
15 -3 10 5 -5 8 -2 9 9 5 10 -4 25 -10 35 -13 14 -5 14 -4 2 5 -8 5 -11 13 -7
17 7 7 -10 34 -22 34 -3 0 -12 -4 -20 -9z M1140 785 c-7 -9 -8 -15 -2 -15 5 0
12 7 16 15 3 8 4 15 2 15 -2 0 -9 -7 -16 -15z M682 973 c-2 -26 28 -32 46 -10
14 17 2 33 -23 33 -15 0 -22 -7 -23 -23z M3600 2835 c-7 -8 -10 -19 -6 -22 9
-9 38 8 38 22 -1 16 -18 16 -32 0z M3816 2815 c6 -16 22 -19 48 -9 28 11 17
24 -19 24 -26 0 -33 -3 -29 -15z M3260 2805 c0 -8 6 -15 14 -15 8 0 16 7 20
15 4 10 -1 15 -14 15 -11 0 -20 -7 -20 -15z M4700 2495 c-11 -13 -10 -21 9
-46 24 -32 22 -59 -4 -59 -19 0 -19 -14 -1 -30 12 -9 17 -7 28 9 7 12 18 21
25 21 7 0 17 9 23 19 8 16 5 23 -14 38 -13 11 -25 28 -27 38 -5 25 -23 29 -39
10z M4790 2454 c0 -9 7 -14 17 -12 25 5 28 28 4 28 -12 0 -21 -6 -21 -16z
M4892 2456 c-50 -18 -57 -30 -37 -60 14 -21 25 -26 57 -26 l39 0 -3 47 c-3 52
-9 56 -56 39z m28 -31 c0 -8 -4 -15 -10 -15 -5 0 -10 7 -10 15 0 8 5 15 10 15
6 0 10 -7 10 -15z M4307 2344 c-14 -14 -7 -25 13 -22 12 2 21 8 21 13 0 12
-24 18 -34 9z M2470 2310 c0 -6 -8 -14 -17 -17 -25 -10 -53 -36 -53 -50 0 -6
9 -15 20 -18 22 -7 26 -20 10 -30 -5 -3 -10 -13 -10 -21 0 -22 34 -16 60 11
25 26 20 40 -15 47 -19 3 -19 4 2 23 28 27 39 65 19 65 -9 0 -16 -5 -16 -10z
M720 2237 c0 -16 -9 -28 -25 -35 -14 -6 -25 -18 -25 -27 0 -14 68 -84 82 -85
9 0 58 52 58 62 0 5 -16 8 -35 8 -37 0 -52 17 -41 46 5 14 9 13 36 -2 24 -15
32 -16 42 -5 11 10 8 17 -15 37 -37 32 -77 33 -77 1z M214 2205 c-8 -21 4 -35
31 -35 31 0 40 16 21 35 -19 19 -45 19 -52 0z M552 2208 c-18 -18 -14 -28 8
-28 11 0 20 6 20 14 0 21 -15 27 -28 14z M1640 2161 c0 -12 45 -22 64 -15 9 3
13 10 10 15 -7 12 -74 12 -74 0z M195 2139 c-11 -17 33 -52 58 -45 33 8 61 32
53 44 -9 15 -103 16 -111 1z M2470 2137 c0 -21 12 -28 27 -16 19 16 16 29 -7
29 -11 0 -20 -6 -20 -13z M587 2124 c-10 -11 3 -24 24 -24 10 0 19 7 19 15 0
15 -31 21 -43 9z M2203 2113 c-15 -10 -23 -26 -23 -44 0 -24 4 -29 24 -29 19
0 24 6 29 37 8 46 -1 56 -30 36z M1507 2094 c-27 -28 24 -94 61 -79 15 6 15 8
-4 24 -12 10 -23 26 -25 36 -4 20 -21 30 -32 19z M2467 2093 c-4 -3 -7 -15 -7
-25 0 -14 6 -19 23 -16 29 4 38 48 9 48 -10 0 -22 -3 -25 -7z M1953 2074 c-3
-9 0 -20 7 -24 8 -5 9 -9 1 -14 -22 -14 -10 -26 24 -26 24 0 37 6 45 19 11 21
-2 37 -20 26 -5 -3 -10 3 -10 14 0 26 -37 29 -47 5z M1213 2045 c-3 -9 -3 -18
0 -22 10 -10 37 6 37 22 0 20 -29 20 -37 0z M2523 2053 c-7 -2 -13 -12 -13
-20 0 -10 6 -13 16 -9 9 3 20 6 25 6 5 0 9 7 9 15 0 15 -14 18 -37 8z M2153
2009 c-20 -6 -33 -16 -33 -26 0 -13 7 -14 42 -9 49 8 58 13 58 32 0 16 -19 17
-67 3z M1822 1998 c-15 -15 -16 -45 -2 -53 15 -9 50 4 50 20 0 7 9 15 20 17
12 2 21 8 21 13 -1 14 -75 17 -89 3z M1392 1973 c-15 -6 -6 -23 14 -23 8 0 14
7 14 15 0 15 -6 17 -28 8z M50 1246 c0 -31 38 -60 57 -44 18 15 17 49 -2 42
-8 -4 -17 1 -21 10 -10 25 -34 19 -34 -8z M146 1254 c-23 -22 -20 -32 10 -28
32 3 38 9 31 29 -8 19 -21 19 -41 -1z M296 1261 c-3 -5 -15 -7 -27 -4 -21 6
-39 -10 -39 -35 0 -9 7 -11 23 -6 12 4 34 8 50 9 33 2 41 9 34 30 -7 16 -32
20 -41 6z M4713 1194 c-3 -8 1 -22 9 -30 13 -14 17 -14 32 1 13 13 14 20 5 31
-15 19 -38 18 -46 -2z M127 1183 c-11 -10 13 -32 29 -26 20 8 17 33 -4 33 -10
0 -22 -3 -25 -7z M50 1161 c0 -19 23 -35 34 -24 14 15 5 43 -14 43 -13 0 -20
-7 -20 -19z M366 1161 c-9 -13 19 -32 37 -25 9 3 13 12 10 20 -6 15 -39 19
-47 5z M266 1143 c-6 -14 -5 -15 5 -6 7 7 10 15 7 18 -3 3 -9 -2 -12 -12z
M108 1137 c-21 -17 -31 -48 -13 -41 7 3 22 1 32 -4 16 -9 19 -7 21 13 2 31
-20 49 -40 32z M340 1130 c0 -5 5 -10 11 -10 5 0 7 5 4 10 -3 6 -8 10 -11 10
-2 0 -4 -4 -4 -10z M164 1115 c-4 -9 -2 -21 4 -27 15 -15 44 -1 40 19 -4 23
-36 29 -44 8z M240 1110 c0 -12 40 -29 55 -24 26 10 11 29 -23 29 -18 0 -32
-2 -32 -5z M220 1091 c0 -6 6 -11 13 -12 6 -1 1 -4 -13 -8 -29 -8 -34 -34 -7
-39 30 -6 51 6 38 22 -6 7 -9 15 -6 18 3 3 -1 11 -10 18 -10 8 -15 9 -15 1z
M373 1089 c-25 -9 -30 -24 -12 -35 6 -3 20 3 31 14 23 23 13 34 -19 21z M90
1050 c10 -6 11 -10 3 -10 -24 0 -13 -28 15 -38 25 -8 28 -7 28 12 0 23 -22 45
-46 46 -13 0 -13 -1 0 -10z M147 968 c-2 -7 0 -21 5 -31 7 -14 17 -16 51 -11
74 12 69 50 -7 52 -28 1 -46 -3 -49 -10z M280 965 c-17 -20 -8 -28 34 -30 36
-1 39 17 5 35 -23 13 -24 13 -39 -5z M181 881 c-8 -5 -16 -23 -17 -40 -3 -27
-1 -31 21 -31 30 0 48 35 33 63 -10 19 -17 21 -37 8z M308 882 c-10 -2 -18
-11 -18 -21 0 -9 -5 -22 -10 -27 -7 -7 -7 -21 1 -42 8 -24 17 -32 35 -32 27 0
29 8 12 45 -11 25 -28 34 -28 15 0 -5 -4 -10 -10 -10 -20 0 -9 20 14 26 40 10
43 55 4 46z M240 840 c0 -5 5 -10 11 -10 5 0 7 5 4 10 -3 6 -8 10 -11 10 -2 0
-4 -4 -4 -10z M234 812 c3 -5 -3 -12 -14 -15 -31 -8 -14 -39 19 -35 33 4 39
33 10 48 -12 7 -19 8 -15 2z M4914 794 c-19 -8 -4 -54 17 -54 14 0 19 7 19 30
0 29 -9 35 -36 24z M4881 763 c7 -12 15 -20 18 -17 3 2 -3 12 -13 22 -17 16
-18 16 -5 -5z M55 602 c-3 -3 -5 -30 -4 -61 l0 -56 19 43 c28 61 43 57 54 -13
4 -22 9 -48 12 -57 5 -15 -1 -18 -40 -18 -39 0 -46 -3 -46 -20 0 -20 6 -23 50
-21 38 2 51 -12 62 -65 5 -27 11 -56 13 -64 2 -8 4 -18 4 -22 1 -5 28 -8 61
-8 49 0 58 3 54 15 -4 8 -14 15 -24 15 -15 0 -20 10 -25 48 -4 26 -14 72 -22
102 -16 54 -22 142 -13 168 4 10 -13 14 -73 16 -42 1 -79 0 -82 -2z M757 596
c-16 -13 -17 -15 -3 -23 13 -7 16 -34 17 -161 0 -83 -3 -156 -6 -162 -4 -7 47
-10 148 -10 148 0 154 1 175 23 26 27 29 57 6 57 -8 0 -30 -11 -47 -24 -27
-20 -42 -24 -97 -23 l-65 2 -3 73 c-3 62 -1 72 13 72 9 0 19 -9 22 -21 4 -12
11 -18 20 -15 8 3 19 6 24 6 12 0 12 97 -1 105 -5 3 -21 -6 -34 -20 -33 -36
-46 -25 -43 38 l3 52 63 3 c60 3 63 2 58 -17 -6 -26 7 -35 39 -27 20 5 24 13
24 41 0 42 -14 52 -48 34 -20 -11 -26 -11 -29 -1 -7 18 -212 16 -236 -2z M475
594 c-11 -3 -30 -7 -42 -10 -34 -7 -94 -64 -114 -109 -25 -55 -24 -105 5 -159
41 -77 38 -76 195 -76 132 0 141 1 152 21 19 36 -3 46 -58 26 -27 -9 -58 -17
-70 -17 -68 0 -146 67 -159 136 -16 85 57 158 149 151 55 -5 65 -11 47 -32
-11 -13 -10 -19 5 -35 23 -26 37 -25 63 3 25 27 28 55 9 81 -11 15 -30 19 -88
22 -41 1 -83 0 -94 -2z M1624 589 c-7 -12 13 -29 34 -29 9 0 12 -39 12 -160
l0 -160 53 0 54 0 -7 42 c-5 37 -6 84 -1 111 0 4 19 7 41 7 49 0 145 41 159
68 19 36 13 77 -15 103 -24 23 -32 24 -174 26 -100 2 -151 -1 -156 -8z m274
-76 c3 -51 -22 -73 -84 -73 -49 0 -54 8 -47 74 l6 47 61 -3 61 -3 3 -42z
M2031 588 c-25 -9 -23 -35 3 -30 9 2 16 -3 17 -10 0 -7 2 -60 3 -118 2 -58 4
-124 5 -147 l1 -43 45 0 44 0 3 78 c3 76 3 77 28 74 14 -2 32 -12 40 -23 28
-36 50 -15 50 48 0 51 -2 54 -22 51 -15 -2 -24 -11 -26 -24 -3 -18 -9 -21 -35
-19 l-32 2 0 64 0 64 50 0 c36 0 54 -5 65 -18 23 -28 52 -12 48 27 l-3 31
-130 1 c-72 0 -141 -3 -154 -8z M2733 593 c-53 -4 -71 -20 -34 -30 13 -3 21
-17 25 -41 6 -40 9 -146 7 -202 l-2 -35 -16 23 c-9 12 -50 66 -91 119 -41 52
-78 109 -81 127 -7 30 -8 31 -69 34 -41 2 -62 -1 -62 -8 0 -7 9 -14 21 -17 19
-5 20 -12 19 -122 -3 -212 -5 -201 34 -201 34 0 35 0 40 52 3 29 7 69 9 88 l2
35 30 -49 c17 -27 47 -67 68 -88 34 -35 41 -38 92 -38 l55 0 1 118 c1 64 2
122 4 127 1 6 3 23 3 38 2 20 8 31 22 34 20 5 29 33 11 33 -5 0 -15 1 -23 3
-7 2 -37 2 -65 0z M4450 590 c-84 -4 -105 -8 -105 -20 0 -8 10 -16 23 -18 l22
-3 -5 -155 -6 -154 48 0 48 0 0 77 c0 84 10 98 44 62 33 -35 51 -19 51 46 0
30 -4 55 -9 55 -12 0 -41 -29 -41 -41 0 -5 -14 -9 -31 -9 -24 0 -30 3 -25 16
3 9 6 39 6 67 l0 52 55 3 c50 3 55 1 55 -18 0 -27 27 -37 47 -17 22 21 8 57
-22 57 -13 0 -29 1 -37 3 -7 2 -60 0 -118 -3z M4790 593 c-39 -10 -100 -49
-109 -70 -18 -40 -13 -59 25 -93 30 -26 44 -31 78 -29 71 3 76 1 96 -44 19
-42 18 -78 -3 -104 -7 -10 0 -13 32 -13 l41 0 0 89 c0 82 -2 91 -22 105 -12 9
-41 16 -65 16 -30 0 -50 7 -70 24 -24 21 -26 26 -15 50 6 14 17 26 23 26 7 0
21 8 31 17 13 12 22 13 29 6 8 -8 7 -13 -1 -18 -7 -4 4 -18 30 -37 47 -35 63
-29 58 23 -3 31 -7 35 -43 42 -52 11 -97 14 -115 10z M2873 583 c-18 -7 -16
-60 2 -67 9 -3 23 3 32 14 13 15 25 18 52 14 20 -3 38 -8 41 -11 4 -4 9 -138
10 -285 0 -5 21 -8 48 -8 l48 0 -1 153 0 152 43 3 c36 3 48 -1 68 -23 27 -29
44 -26 44 10 0 56 3 55 -194 54 -99 0 -187 -3 -193 -6z M3343 583 c-22 -8 -14
-23 13 -23 22 0 24 -3 19 -22 -4 -13 -11 -27 -16 -32 -5 -6 -9 -18 -9 -27 0
-9 -7 -22 -15 -29 -8 -7 -15 -19 -15 -28 0 -8 -9 -33 -19 -56 -32 -69 -51
-114 -51 -121 0 -3 10 -5 22 -3 16 2 28 19 48 68 l26 65 81 2 c54 2 84 -2 90
-10 6 -7 18 -38 27 -70 l18 -57 49 0 c45 0 62 11 40 24 -7 5 -19 43 -36 116
-2 8 -15 51 -29 94 -14 43 -26 87 -26 97 0 17 -9 19 -102 18 -57 0 -109 -3
-115 -6z m128 -55 c10 -13 18 -36 19 -51 0 -16 5 -37 10 -48 10 -18 7 -19 -54
-19 -36 0 -67 3 -70 8 -7 11 52 132 65 132 6 0 19 -10 30 -22z M3780 563 c-62
-31 -109 -90 -112 -138 -3 -46 11 -119 28 -154 14 -28 20 -31 64 -31 l49 0
-19 46 c-26 59 -25 124 0 174 26 52 80 92 117 88 26 -3 28 -6 25 -44 -3 -34 0
-42 16 -46 26 -7 33 -1 55 45 25 54 22 64 -20 72 -110 19 -146 17 -203 -12z
M4053 584 c-8 -4 -9 -13 -3 -29 5 -13 8 -89 7 -170 l-2 -146 45 3 45 3 1 105
c3 208 3 212 17 207 19 -7 41 8 33 22 -7 11 -119 14 -143 5z M1368 444 c-45
-24 -53 -49 -29 -90 12 -19 21 -42 21 -50 0 -8 4 -14 10 -14 5 0 12 -11 16
-25 5 -21 12 -25 45 -25 38 0 38 1 34 33 -3 17 -3 26 1 20 3 -7 17 -13 30 -13
21 0 24 5 24 35 0 25 -6 39 -24 50 -32 21 -59 10 -52 -21 10 -37 -19 -30 -44
11 -27 43 -21 64 14 58 28 -6 36 13 14 35 -15 15 -27 15 -60 -4z M1228 315
c-28 -15 -44 -47 -33 -65 3 -5 40 -10 81 -10 72 0 74 1 74 25 0 55 -64 81
-122 50z m57 -55 c-5 -8 -11 -8 -21 1 -12 10 -12 14 -2 20 16 10 33 -5 23 -21z
M4721 317 c-6 -8 -14 -28 -17 -45 l-6 -32 44 0 44 0 -4 38 c-6 49 -36 69 -61
39z M4620 271 c-15 -28 -13 -33 13 -29 14 2 23 11 25 26 4 28 -23 30 -38 3z
M4299 260 l-24 -19 38 -1 c30 0 37 3 37 20 0 25 -21 26 -51 0z M2300 255 c-11
-13 -9 -15 13 -15 13 0 30 7 37 15 11 13 9 15 -13 15 -13 0 -30 -7 -37 -15z"/>
</g>
</svg>
