<?xml version="1.0" standalone="no"?>
<!DOCTYPE svg PUBLIC "-//W3C//DTD SVG 20010904//EN"
 "http://www.w3.org/TR/2001/REC-SVG-20010904/DTD/svg10.dtd">
<svg version="1.0" xmlns="http://www.w3.org/2000/svg"
 width="500.000000pt" height="878.000000pt" viewBox="0 0 500.000000 878.000000"
 preserveAspectRatio="xMidYMid meet">
<metadata>
Created by potrace 1.16, written by Peter Selinger 2001-2019
</metadata>
<g transform="translate(0.000000,878.000000) scale(0.100000,-0.100000)"
fill="#000000" stroke="none">
<path d="M1976 8571 c-4 -5 -2 -12 3 -15 5 -4 12 -2 15 3 4 5 2 12 -3 15 -5 4
-12 2 -15 -3z M3029 7156 c-2 -2 -38 -6 -79 -10 -445 -36 -854 -337 -1023
-751 -68 -168 -88 -270 -88 -449 1 -231 54 -419 172 -612 27 -45 35 -65 26
-71 -6 -4 -41 -23 -77 -41 -36 -19 -83 -49 -105 -66 -61 -49 -141 -79 -357
-136 -143 -37 -162 -38 -155 -8 11 41 -5 138 -28 171 -12 18 -27 31 -33 30 -6
-2 -9 4 -6 12 8 21 -37 78 -90 115 l-44 30 20 52 c34 89 41 152 23 220 l-15
60 58 67 c104 117 165 241 197 401 27 133 4 291 -65 438 -102 217 -326 391
-560 434 -30 6 -62 13 -70 16 -28 9 -55 9 -160 0 -103 -9 -172 -28 -447 -125
-66 -23 -73 -28 -73 -53 0 -23 4 -27 28 -26 15 1 25 6 22 11 -2 6 -10 9 -16 7
-7 -1 -15 2 -18 7 -7 10 69 31 113 31 23 0 43 -13 85 -54 61 -59 71 -85 63
-154 -4 -36 -12 -53 -36 -74 -17 -15 -38 -28 -45 -28 -24 0 -56 50 -50 76 7
28 -15 33 -40 8 -26 -26 0 -74 51 -92 36 -14 45 -13 79 0 24 10 50 31 69 57
24 35 29 50 27 93 -2 53 -15 81 -61 132 l-26 30 30 -18 c44 -27 64 -54 71 -97
8 -48 31 -51 39 -5 10 53 -20 96 -100 146 -27 17 -33 25 -23 31 8 6 14 3 16
-6 4 -19 5 -19 50 4 86 43 271 60 356 31 34 -11 40 -10 48 3 8 14 13 14 61 0
167 -49 329 -165 419 -300 48 -71 101 -192 113 -255 6 -30 4 -36 -14 -41 -19
-4 -20 -8 -10 -37 7 -17 18 -34 25 -37 9 -3 14 -21 14 -49 0 -38 -3 -43 -21
-41 -19 2 -21 -4 -23 -98 -2 -55 -7 -109 -12 -120 -8 -19 -8 -19 -14 5 -11 45
-34 30 -40 -25 -6 -54 -64 -171 -107 -217 -24 -25 -26 -25 -52 -10 -16 9 -35
12 -45 9 -16 -6 -13 -13 23 -48 43 -43 55 -78 49 -144 -4 -39 -4 -39 -15 -15
-15 36 -41 56 -54 43 -8 -8 -6 -18 5 -36 12 -18 16 -42 13 -91 -5 -83 -13 -92
-63 -71 -88 37 -221 36 -332 -1 -42 -14 -84 -32 -93 -40 -8 -8 -20 -14 -26
-14 -5 0 -38 -27 -71 -61 -64 -63 -95 -117 -107 -187 -5 -33 -10 -39 -26 -35
-21 6 -99 -13 -139 -34 -14 -7 -28 -13 -33 -13 -4 0 -26 -14 -49 -30 -40 -29
-48 -30 -96 -13 -7 3 -12 -4 -12 -20 0 -14 5 -27 12 -29 9 -3 9 -11 0 -34 -8
-19 -11 -80 -10 -184 3 -138 5 -157 23 -177 11 -13 27 -23 37 -23 16 0 16 3
-4 38 -18 29 -22 53 -23 117 0 116 19 159 102 226 37 30 72 55 77 55 6 1 23 2
39 3 31 1 36 16 9 23 -45 12 -151 -44 -210 -110 l-33 -37 37 53 c50 73 95 107
175 132 67 22 70 22 89 5 12 -11 20 -31 20 -50 0 -17 7 -54 15 -81 11 -37 12
-50 2 -56 -7 -4 1 -6 17 -5 16 1 31 -4 33 -11 3 -7 -1 -10 -11 -6 -12 5 -14 1
-7 -23 15 -52 39 -88 83 -129 69 -61 91 -78 120 -91 35 -16 180 -28 205 -18
10 4 34 7 53 6 19 -1 49 3 65 8 28 9 29 10 8 16 -22 7 -22 8 9 29 43 29 87
110 87 163 1 57 -32 141 -73 186 -39 43 -80 48 -143 20 -56 -25 -73 -43 -73
-74 0 -36 32 -59 68 -50 35 10 39 29 7 41 -32 12 -25 27 21 46 45 19 46 19 87
-23 42 -41 71 -120 60 -162 -16 -65 -49 -105 -117 -140 l-67 -35 -77 13 c-89
15 -147 45 -208 108 -78 80 -89 120 -89 323 0 118 2 127 27 165 75 113 160
165 303 185 58 9 209 -11 275 -34 53 -20 151 -112 170 -161 9 -23 18 -32 29
-28 12 4 13 2 3 -4 -10 -8 -10 -20 2 -64 24 -95 4 -158 -65 -200 -52 -32 -101
-101 -97 -136 2 -21 -2 -29 -17 -31 -11 -2 -24 -8 -30 -13 -14 -14 10 -26 68
-34 101 -14 230 -147 262 -271 26 -101 21 -166 -20 -249 -39 -81 -117 -159
-179 -179 -159 -53 -411 -11 -484 80 -15 19 -35 34 -44 34 -23 0 -50 42 -58
88 -5 32 -9 37 -30 34 -13 -1 -25 -4 -27 -5 -1 -2 5 -29 14 -60 12 -45 25 -65
62 -97 25 -23 62 -56 81 -74 19 -18 46 -40 60 -49 38 -24 173 -57 234 -57 102
0 236 38 236 67 0 7 10 17 23 22 23 9 78 60 124 114 41 48 63 105 71 183 7 66
5 89 -14 156 -26 95 -82 182 -150 236 -61 48 -87 62 -114 62 -19 0 -21 4 -16
36 7 43 20 62 66 99 19 16 51 43 70 61 23 21 50 34 80 39 25 4 54 12 65 18 11
6 29 12 40 13 46 6 235 64 325 100 25 9 70 36 100 59 69 52 180 102 254 116
98 18 416 -13 546 -53 19 -6 94 -39 166 -75 91 -44 152 -67 195 -74 35 -5 80
-16 101 -24 37 -14 166 -41 181 -37 27 7 230 -39 302 -68 52 -22 41 -22 -62 0
-79 18 -113 5 -113 -40 0 -19 -5 -29 -12 -28 -8 2 -14 -9 -16 -26 -5 -45 27
-71 109 -86 80 -15 98 -8 69 30 -16 21 -22 22 -29 11 -12 -19 -79 -4 -94 20
-13 20 -3 59 23 89 16 18 22 20 34 10 9 -6 20 -9 26 -5 5 3 10 2 10 -3 0 -5
19 -12 41 -16 82 -13 92 -35 45 -99 -18 -24 -18 -29 -6 -38 25 -16 70 46 70
98 0 43 16 66 26 38 9 -22 -20 -93 -55 -136 -28 -34 -32 -36 -85 -32 -30 1
-66 7 -80 13 -17 6 -35 6 -53 -1 -27 -10 -187 -14 -233 -6 -14 3 -43 11 -65
19 -62 23 -201 41 -258 35 -28 -4 -64 -15 -78 -26 -27 -20 -27 -20 -65 0 -40
20 -84 22 -86 4 -1 -5 15 -18 35 -28 59 -30 49 -38 -60 -53 -37 -5 -53 -11
-53 -22 0 -12 13 -14 83 -9 46 4 96 11 111 17 38 14 39 13 32 -15 -8 -31 20
-47 38 -23 6 8 22 18 34 23 20 6 23 4 20 -12 -2 -10 -10 -17 -16 -15 -7 1 -12
-7 -12 -18 0 -12 -7 -35 -16 -51 -19 -37 -15 -83 7 -87 12 -2 18 7 24 35 3 21
18 50 32 65 16 16 23 33 19 43 -3 9 0 17 7 19 69 21 240 55 247 51 6 -4 16 -3
23 2 6 4 100 8 207 9 259 1 247 0 276 31 36 38 75 125 77 170 2 31 -2 38 -18
41 -48 8 -50 12 -20 37 17 13 35 24 40 25 6 0 62 53 126 118 143 145 232 282
289 443 11 33 25 55 36 58 9 1 31 12 48 22 31 19 92 25 112 11 9 -6 34 -64 34
-78 0 -2 -12 -1 -28 2 -24 5 -33 -1 -70 -47 -23 -28 -42 -60 -42 -71 0 -10 -7
-32 -15 -48 -12 -24 -13 -37 -3 -73 14 -54 8 -78 -38 -147 -47 -72 -114 -198
-114 -216 0 -8 -9 -19 -20 -26 -11 -7 -20 -18 -20 -25 0 -6 -25 -52 -55 -100
-30 -48 -73 -118 -95 -155 -60 -100 -95 -133 -165 -153 -134 -39 -155 -47
-155 -57 0 -6 -7 -7 -16 -4 -8 3 -32 -2 -52 -13 -20 -10 -95 -35 -167 -55
-185 -53 -233 -71 -315 -116 -74 -40 -104 -48 -115 -30 -8 13 -102 13 -110 0
-11 -18 77 -44 133 -41 18 2 61 19 95 40 71 43 139 70 252 100 44 12 128 40
186 62 59 21 116 39 127 39 12 0 23 4 27 9 3 5 31 15 62 21 125 26 171 63 265
211 28 44 52 78 54 77 4 -5 -64 -145 -122 -250 -44 -78 -62 -101 -97 -121 -42
-24 -141 -57 -227 -75 -117 -26 -311 -82 -363 -106 -33 -15 -83 -43 -114 -62
-30 -20 -77 -42 -104 -50 -47 -14 -55 -14 -112 5 -73 23 -144 34 -150 23 -2
-4 -2 -2 -1 5 3 11 -138 49 -165 44 -8 -1 -17 1 -20 6 -9 14 -313 97 -506 139
-93 20 -187 43 -208 50 -71 26 -121 12 -85 -24 9 -9 8 -13 -3 -16 -36 -13
-200 -55 -254 -66 -79 -16 -97 -26 -93 -53 2 -17 10 -22 33 -23 99 -2 105 -4
151 -46 26 -24 58 -64 73 -90 15 -27 31 -46 34 -43 4 3 3 0 -2 -6 -5 -6 -7
-37 -4 -69 8 -81 -11 -149 -62 -221 -76 -110 -172 -154 -328 -151 -98 2 -113
-12 -41 -36 35 -12 67 -12 151 2 26 5 59 -28 69 -68 l7 -29 -30 32 c-19 19
-40 31 -57 31 -35 0 -33 -11 9 -53 41 -41 44 -68 14 -137 -16 -37 -34 -58 -82
-91 -60 -42 -64 -43 -152 -47 -83 -3 -94 -1 -145 25 -38 19 -61 39 -75 65
l-19 36 51 54 c62 67 83 105 83 156 0 54 -27 87 -63 78 -29 -7 -37 -26 -12
-26 23 0 38 -43 31 -84 -5 -24 -24 -53 -62 -92 -136 -137 -334 -160 -557 -63
-194 84 -302 209 -352 407 -23 91 -3 256 39 325 36 58 121 143 163 161 21 9
46 21 55 26 10 6 27 10 38 10 27 0 90 31 90 45 0 8 -28 11 -88 9 -68 -2 -99 2
-140 17 -72 28 -163 114 -202 191 l-30 61 0 -55 c0 -61 9 -77 88 -160 40 -41
78 -63 161 -95 24 -9 23 -11 -27 -38 -89 -49 -184 -183 -197 -280 -8 -60 -8
-185 0 -230 17 -87 101 -240 142 -256 13 -5 23 -16 23 -26 0 -20 34 -52 106
-98 167 -109 396 -142 544 -80 70 29 80 30 80 9 0 -64 127 -134 242 -134 135
0 251 59 305 155 21 37 20 34 22 95 1 46 3 50 26 50 21 0 25 5 25 28 0 15 -9
45 -19 65 -18 35 -18 39 -3 44 116 37 238 200 237 318 -2 138 -28 207 -113
294 -33 33 -57 63 -53 64 3 2 24 9 46 15 22 6 74 21 115 33 41 12 93 22 115
22 70 0 437 -81 585 -130 145 -47 270 -79 346 -88 22 -3 64 -14 93 -24 28 -11
62 -17 74 -14 12 2 33 7 47 10 14 3 37 14 51 24 14 10 38 21 55 25 16 3 43 17
61 30 17 13 36 24 41 24 5 0 35 13 68 29 32 16 75 32 94 36 19 3 82 20 140 36
58 17 137 39 175 51 93 26 113 35 159 66 49 34 68 64 201 316 31 60 63 116 71
123 8 8 14 21 14 29 0 9 18 46 40 83 37 65 64 146 54 163 -3 4 10 32 29 60 41
62 77 136 77 157 0 8 7 22 15 31 8 9 38 63 66 120 46 95 50 108 44 152 -9 62
-39 88 -104 88 -25 -1 -57 -7 -71 -15 -27 -15 -64 -20 -56 -7 2 4 12 52 21
107 23 134 14 352 -20 480 -31 115 -122 300 -199 405 -48 66 -189 210 -231
236 -16 10 -48 33 -70 50 -95 76 -339 173 -499 199 -89 14 -250 27 -257 21z
m301 -79 c299 -74 517 -215 712 -460 22 -29 45 -51 49 -50 5 2 9 -5 9 -16 0
-10 19 -56 43 -102 84 -166 120 -319 120 -514 0 -180 -30 -309 -110 -485 -50
-110 -115 -200 -223 -310 -143 -146 -242 -205 -284 -171 -6 5 -26 12 -43 16
-47 10 -49 21 -6 41 96 45 275 200 350 304 53 73 103 162 103 183 0 9 4 17 9
17 11 0 54 128 75 227 23 102 20 258 -5 389 -26 132 -44 181 -114 304 -153
269 -408 448 -732 515 -153 31 -315 27 -477 -14 -325 -82 -605 -322 -728 -625
-55 -135 -71 -218 -72 -376 0 -227 41 -370 161 -559 30 -46 53 -85 51 -86 -2
-2 -22 -5 -46 -9 -24 -3 -47 -8 -52 -11 -20 -12 -115 147 -154 261 -61 173
-70 228 -69 409 0 155 3 178 27 260 15 50 30 101 33 115 3 14 30 72 60 130
166 327 484 559 853 623 112 20 370 16 460 -6z m-50 -162 c162 -34 264 -78
411 -181 148 -104 263 -250 333 -426 74 -187 93 -355 60 -541 -13 -79 -86
-277 -110 -301 -8 -8 -14 -20 -14 -26 0 -6 -15 -31 -34 -56 -116 -151 -236
-254 -385 -330 -79 -40 -122 -45 -221 -24 -25 5 -72 14 -105 21 -103 19 -196
54 -347 129 -93 46 -161 74 -191 77 -26 3 -47 9 -47 13 0 5 13 16 29 27 29 18
72 48 296 211 l110 80 30 -23 c48 -35 274 -197 350 -250 61 -43 97 -56 111
-42 5 5 -32 135 -65 232 -11 33 -37 112 -56 175 -20 63 -38 120 -41 126 -3 6
19 29 48 51 119 89 348 253 354 253 3 0 23 14 45 30 72 58 62 60 -270 60
l-296 0 -19 63 c-11 34 -27 87 -37 117 -9 30 -35 116 -58 190 -49 160 -60 184
-87 188 -17 2 -26 -17 -69 -150 -27 -84 -49 -161 -49 -170 0 -10 -3 -18 -7
-18 -3 0 -21 -46 -39 -102 -17 -57 -35 -106 -39 -110 -3 -4 -140 -8 -304 -8
-163 -1 -299 -5 -302 -10 -13 -22 -11 -23 313 -258 103 -74 126 -90 148 -107
16 -11 11 -33 -61 -259 -42 -136 -77 -258 -77 -272 0 -19 -5 -23 -17 -19 -10
3 -73 9 -142 14 l-124 10 -40 44 c-78 86 -158 246 -191 380 -20 87 -28 277
-15 370 13 93 92 293 149 380 83 123 248 282 330 316 21 9 29 18 25 29 -4 13
-3 14 5 4 7 -11 16 -9 43 7 58 34 191 78 269 90 41 6 86 13 100 15 42 7 231
-5 300 -19z m-165 -352 c20 -65 52 -167 71 -227 19 -61 34 -116 34 -123 0 -10
-33 -13 -150 -13 -120 0 -150 3 -150 14 0 7 32 107 71 222 39 115 73 217 76
227 3 9 7 17 9 17 1 0 19 -53 39 -117z m-265 -414 c0 -5 -20 -73 -46 -150
l-45 -139 -72 50 c-40 27 -99 69 -133 92 -33 24 -92 66 -132 93 -39 28 -72 53
-72 58 0 4 113 7 250 7 170 0 250 -3 250 -11z m441 -150 c28 -88 49 -162 47
-163 -7 -5 -244 -180 -256 -189 -9 -7 -26 -1 -58 21 -24 18 -49 32 -53 32 -5
0 -11 4 -13 8 -1 4 -38 34 -80 65 -43 31 -78 60 -78 65 0 10 79 260 94 295
l11 27 167 0 167 0 52 -161z m471 148 c-6 -6 -67 -53 -137 -102 -70 -50 -152
-109 -183 -133 -31 -23 -59 -39 -63 -35 -7 9 -89 259 -89 274 0 5 103 9 241 9
193 0 239 -3 231 -13z m-369 -484 c21 -71 53 -173 71 -228 19 -55 32 -101 31
-103 -2 -2 -45 27 -97 65 -51 38 -129 95 -173 126 -44 32 -90 65 -103 75 l-24
18 79 52 c43 29 98 68 123 87 25 18 48 34 51 34 3 1 22 -56 42 -126z m-564 89
c20 -16 71 -52 114 -81 42 -28 77 -55 77 -60 0 -10 -369 -275 -375 -269 -3 2
4 31 15 64 10 32 39 124 65 204 25 80 48 151 50 158 6 17 13 15 54 -16z m1629
-239 c-9 -22 -81 -159 -84 -162 -11 -12 -12 10 -1 44 20 63 56 125 73 125 9 0
14 -3 12 -7z m-1387 -794 c96 -13 119 -25 63 -34 -22 -4 -52 -11 -68 -16 -62
-19 -91 -12 -156 38 -9 8 25 23 51 23 14 0 64 -5 110 -11z M95 6785 c-22 -8
-41 -15 -42 -15 -2 0 -3 -12 -2 -27 0 -16 3 -22 6 -15 7 19 75 49 101 44 12
-2 34 -19 48 -38 21 -27 30 -32 40 -23 21 17 17 32 -14 62 -32 31 -74 35 -137
12z M68 6699 c-12 -6 -18 -22 -18 -44 0 -41 17 -47 22 -7 2 16 12 31 26 37 12
5 22 13 22 17 0 11 -32 9 -52 -3z M98 6301 c-27 -9 -48 -22 -48 -28 0 -17 50
-13 72 5 9 8 33 14 52 14 20 0 36 4 36 9 0 5 -3 10 -7 11 -30 6 -65 2 -105
-11z M195 6269 c-9 -14 -3 -19 31 -25 34 -6 54 -21 54 -40 0 -16 16 -19 25 -4
10 17 -4 46 -28 58 -36 17 -75 23 -82 11z M78 6243 c-17 -3 -28 -11 -28 -20 0
-12 7 -14 30 -10 32 7 109 -16 122 -36 12 -18 10 -75 -3 -100 -7 -12 -12 -28
-13 -37 -1 -22 -53 -83 -64 -76 -17 10 -72 -18 -72 -36 0 -17 1 -18 25 -2 14
9 28 15 30 12 2 -2 -9 -32 -25 -66 -29 -60 -30 -65 -30 -221 l0 -159 45 -60
44 -61 -42 -3 c-32 -2 -43 -8 -45 -22 -3 -16 0 -18 19 -11 51 16 87 16 115 2
19 -10 37 -12 51 -6 13 5 25 4 28 -1 11 -17 94 -11 135 10 49 25 70 55 70 100
0 65 -83 115 -140 85 -37 -19 -46 -49 -25 -81 13 -20 23 -25 48 -22 37 4 44
31 10 36 -26 4 -33 42 -8 42 34 0 65 -31 65 -65 0 -37 -16 -54 -69 -72 -48
-17 -86 -16 -119 2 -35 19 -87 73 -79 82 4 4 13 1 19 -5 15 -15 58 -16 58 -2
0 6 -17 18 -37 28 -21 9 -42 23 -48 29 -5 7 -21 14 -35 15 -17 1 -25 8 -27 22
0 12 -4 50 -8 86 -6 63 -6 64 10 37 13 -23 19 -26 31 -16 11 9 12 15 3 25 -6
8 -9 27 -5 44 5 28 -1 36 -27 31 -32 -6 58 194 110 245 43 43 149 100 203 108
33 5 32 5 -10 -12 -59 -23 -108 -54 -115 -71 -9 -24 3 -24 37 0 43 31 109 50
178 53 47 1 55 4 53 20 -1 16 4 18 44 12 50 -7 140 -43 130 -52 -3 -4 -25 3
-48 15 -40 21 -69 22 -69 2 0 -5 8 -11 18 -15 9 -3 32 -15 50 -26 18 -11 35
-19 39 -19 4 0 9 -4 11 -10 2 -6 -8 -11 -22 -11 -32 0 -66 -50 -66 -97 0 -26
-4 -33 -20 -33 -51 0 -1 -134 67 -180 33 -22 46 -25 122 -23 90 1 161 19 169
41 3 9 -11 12 -55 10 -113 -4 -216 68 -234 165 -12 69 8 94 125 150 18 9 33
27 40 48 16 49 60 59 123 28 45 -22 48 -27 51 -65 3 -35 -1 -45 -23 -62 -14
-11 -43 -23 -64 -27 -54 -9 -75 -35 -67 -79 12 -63 33 -78 114 -80 39 0 73 3
74 8 2 5 -19 14 -45 21 -52 13 -97 48 -97 75 0 13 12 19 40 24 46 7 120 71
120 104 0 39 -19 71 -61 102 -59 43 -124 42 -173 -1 -20 -17 -35 -34 -35 -37
3 -20 -4 -20 -38 -2 -63 32 -200 59 -283 56 -79 -3 -183 -30 -213 -55 -23 -20
-27 -12 -17 33 12 56 -11 101 -64 120 -55 20 -76 23 -108 19z m439 -139 c-3
-3 -12 -4 -19 -1 -8 3 -5 6 6 6 11 1 17 -2 13 -5z m196 -389 c20 -14 48 -30
64 -35 l28 -8 -34 -1 c-28 -1 -43 8 -82 48 -27 26 -49 57 -49 67 0 14 5 11 19
-12 11 -18 35 -44 54 -59z M275 6140 c-4 -7 -3 -16 3 -22 14 -14 45 -2 40 15
-6 16 -34 21 -43 7z M56 6068 c-4 -21 -2 -34 6 -40 10 -6 10 -8 1 -8 -7 0 -13
-7 -13 -15 0 -21 24 -19 46 6 15 17 16 22 4 29 -11 6 -11 12 -2 22 9 11 9 17
0 26 -20 20 -35 13 -42 -20z M103 5592 c-8 -5 -8 -16 2 -40 11 -24 20 -32 40
-32 27 0 34 17 10 26 -8 4 -15 12 -15 19 0 18 -24 35 -37 27z M815 5320 c-49
-7 -92 -25 -144 -59 -14 -9 -33 -14 -44 -13 -26 5 -82 -41 -111 -91 -39 -68
-50 -152 -30 -234 10 -37 28 -85 42 -105 40 -62 56 -44 27 29 -8 21 -21 65
-30 97 -13 53 -13 66 0 124 9 36 25 80 36 99 23 37 87 88 77 61 -12 -29 4 -28
43 2 74 59 124 69 273 55 73 -7 78 -7 74 11 -3 15 -13 19 -51 20 -26 1 -62 4
-80 7 -17 2 -55 1 -82 -3z M78 5258 c-20 -7 -28 -17 -28 -33 l0 -24 40 26 c58
38 51 55 -12 31z M84 5186 c-36 -36 -41 -55 -23 -87 8 -15 14 -18 24 -9 7 6
11 19 8 29 -5 20 42 81 63 81 8 0 14 5 14 10 0 23 -53 9 -86 -24z M50 5042 c0
-25 4 -32 20 -32 11 0 23 0 27 -1 4 0 9 4 11 10 2 6 -3 11 -12 11 -8 0 -22 10
-30 22 -16 22 -16 22 -16 -10z M2703 4983 c-16 -6 -17 -39 -1 -49 12 -8 38 21
38 43 0 13 -15 16 -37 6z M297 4933 c-3 -5 6 -9 19 -9 13 -1 21 2 18 7 -6 11
-31 12 -37 2z M260 4911 c0 -6 -11 -13 -25 -17 -34 -8 -73 -64 -46 -64 17 0
92 78 81 85 -5 3 -10 2 -10 -4z M2696 4911 c-8 -12 12 -25 56 -38 50 -15 57 0
12 26 -38 23 -60 26 -68 12z M930 4851 c0 -5 7 -22 17 -38 15 -27 15 -31 0
-58 -9 -17 -19 -37 -22 -46 -11 -26 -62 -50 -102 -47 -48 4 -53 -22 -7 -35 24
-7 40 -4 75 13 60 31 77 47 99 98 25 55 25 57 -1 93 -19 27 -59 40 -59 20z
M875 4808 c-2 -7 -3 -24 -2 -38 2 -19 -3 -26 -20 -28 -28 -4 -30 -18 -4 -31
14 -8 25 -6 44 9 32 25 41 53 27 80 -12 22 -38 27 -45 8z M590 4720 c0 -23 66
-58 81 -43 6 6 -4 19 -30 36 -48 32 -51 33 -51 7z M675 4661 c-7 -13 27 -31
59 -31 35 0 40 15 10 29 -30 13 -61 14 -69 2z M2887 4433 c-11 -3 -16 -10 -13
-20 3 -8 6 -17 6 -19 0 -14 19 0 28 21 12 25 11 26 -21 18z M160 4410 c0 -21
67 -70 95 -70 27 0 16 29 -17 46 -18 9 -37 23 -41 30 -12 21 -37 17 -37 -6z
M534 4393 c-3 -16 -9 -42 -14 -59 -7 -30 2 -65 14 -53 6 6 26 103 26 125 0 25
-19 15 -26 -13z M953 4345 c-17 -7 -34 -23 -38 -34 -8 -27 11 -87 30 -95 19
-7 19 4 0 40 -14 28 -14 30 10 52 18 15 39 22 69 22 74 0 110 -68 81 -150 -18
-50 -46 -75 -102 -89 -138 -36 -219 34 -217 186 0 69 -1 72 -17 57 -32 -29 -7
-154 44 -228 l20 -28 -20 11 c-12 6 -39 31 -62 57 -38 44 -48 68 -55 139 -2
16 -9 31 -15 33 -19 6 -3 -104 21 -148 30 -55 105 -118 155 -128 57 -12 187
15 237 49 39 26 46 43 46 112 0 123 -84 187 -187 142z M587 4343 c-4 -3 -7
-15 -7 -25 0 -10 -4 -18 -10 -18 -5 0 -10 -5 -10 -11 0 -5 4 -8 9 -4 5 3 12
-4 16 -15 12 -37 26 -21 22 25 -4 48 -9 59 -20 48z M368 4184 c-25 -11 -38
-23 -38 -35 0 -20 19 -25 36 -10 5 5 26 14 47 21 39 12 45 33 11 37 -10 1 -36
-5 -56 -13z M481 4146 c-7 -8 -28 -20 -47 -26 -34 -12 -43 -24 -24 -35 14 -9
122 45 117 58 -6 18 -32 20 -46 3z M1560 4119 c0 -6 21 -33 48 -60 26 -27 52
-62 58 -77 11 -25 10 -75 -2 -115 -5 -14 -1 -18 13 -15 13 2 20 15 24 48 7 53
-4 90 -43 144 -30 42 -98 94 -98 75z M1249 4081 c-40 -34 -101 -61 -135 -61
-25 0 -35 -29 -11 -31 33 -3 75 4 102 18 38 19 95 73 95 90 0 20 -12 16 -51
-16z M217 4058 c-44 -49 -73 -111 -83 -175 -10 -61 44 -263 87 -326 44 -64 82
-97 111 -97 38 0 35 17 -4 34 -54 22 -108 95 -123 167 -4 19 -12 40 -17 47 -6
6 -13 52 -16 101 -4 80 -2 94 21 142 13 30 39 69 56 87 17 18 31 37 31 43 0
20 -37 7 -63 -23z M458 4064 c-69 -35 -128 -116 -135 -186 -6 -59 6 -119 25
-126 16 -5 8 84 -9 105 -7 8 -8 13 -1 13 5 0 12 10 16 23 6 27 72 117 95 132
9 6 29 15 45 21 17 6 31 15 33 21 7 21 -24 20 -69 -3z M1605 3975 c15 -52 8
-108 -19 -155 -30 -52 -31 -60 -12 -60 20 0 62 58 70 96 8 38 -11 119 -32 136
-13 11 -14 9 -7 -17z M264 3958 c-44 -51 -49 -72 -36 -171 15 -120 35 -178 72
-206 34 -25 41 -9 11 23 -25 28 -49 110 -57 199 -5 67 -4 75 20 110 40 58 32
93 -10 45z M354 3714 c3 -9 6 -18 6 -20 0 -3 5 -2 10 1 16 10 12 35 -6 35 -11
0 -14 -5 -10 -16z M1280 3681 c0 -17 27 -31 60 -31 36 0 69 14 58 25 -8 8
-118 14 -118 6z M1176 3662 c-17 -28 85 -73 164 -73 82 -1 183 42 166 70 -8
13 -36 15 -36 3 0 -11 -92 -43 -126 -44 -43 -1 -95 12 -131 32 -18 11 -35 16
-37 12z M358 3604 c6 -31 98 -134 120 -134 11 0 0 16 -31 46 -26 26 -52 62
-59 80 -14 40 -38 46 -30 8z M957 3554 c-15 -15 -7 -45 11 -42 9 2 17 12 17
22 0 20 -16 31 -28 20z M400 3476 c0 -48 173 -143 277 -153 60 -6 65 -5 61 13
-2 15 -10 18 -34 16 -43 -4 -203 61 -252 104 -45 38 -52 41 -52 20z M1004
3455 c-12 -49 -141 -134 -219 -145 -26 -3 -40 -10 -40 -20 0 -46 137 -2 226
71 47 40 59 56 59 79 0 38 -18 48 -26 15z M1420 3317 c0 -29 -14 -47 -69 -86
-69 -48 -158 -42 -222 17 -39 34 -50 8 -13 -28 65 -62 178 -74 248 -26 21 14
42 26 46 26 15 0 38 66 33 93 -6 33 -23 36 -23 4z M1143 3304 c-8 -22 34 -63
73 -70 48 -9 96 4 91 24 -2 10 -10 15 -18 13 -56 -16 -79 -13 -109 18 -25 24
-32 27 -37 15z M3556 2851 c-8 -12 21 -34 33 -27 6 4 8 13 4 21 -6 17 -29 20
-37 6z M3452 2780 c-15 -33 -31 -40 -28 -13 2 23 -32 29 -41 7 -4 -10 -2 -19
5 -22 18 -6 14 -49 -5 -56 -10 -4 -28 1 -45 14 -31 23 -48 26 -48 8 -1 -8 -7
-5 -15 6 -8 11 -21 16 -30 12 -9 -3 -18 0 -21 9 -7 17 -50 20 -60 4 -3 -6 -1
-16 5 -22 16 -16 14 -25 -6 -23 -12 1 -19 -7 -21 -22 -3 -18 -6 -21 -17 -12
-9 8 -20 8 -31 2 -15 -8 -14 -11 6 -25 27 -18 20 -33 -19 -42 -29 -6 -58 -45
-47 -63 3 -6 -3 -17 -15 -26 -19 -13 -20 -18 -9 -31 16 -20 1 -39 -49 -62 -20
-9 -37 -18 -39 -19 -7 -4 33 -44 44 -44 6 0 17 -7 24 -15 10 -13 9 -15 -9 -15
-11 0 -21 5 -21 10 0 6 -9 10 -20 10 -14 0 -20 -6 -18 -17 2 -14 -5 -19 -30
-21 -39 -4 -38 -28 1 -25 19 1 24 -2 20 -13 -3 -7 2 -17 11 -20 23 -9 20 -24
-5 -24 -12 0 -23 -8 -26 -20 -4 -15 -13 -19 -36 -17 -39 3 -47 -20 -10 -34
l28 -11 -40 -13 c-34 -10 -42 -10 -52 3 -7 8 -19 12 -28 9 -17 -7 -20 -23 -5
-32 21 -13 10 -27 -16 -21 -21 6 -25 4 -22 -11 5 -27 52 -28 91 -2 l32 23 -23
-25 c-12 -14 -19 -28 -16 -32 4 -3 -5 -9 -20 -13 -14 -3 -26 -12 -26 -20 0 -8
-9 -14 -19 -14 -29 0 -103 -43 -109 -62 -6 -24 -18 -23 -36 3 -11 17 -20 20
-45 14 -26 -6 -31 -3 -37 18 -3 15 -18 30 -35 37 -24 10 -28 17 -23 34 14 44
11 51 -31 51 -40 0 -40 0 -39 -38 0 -37 0 -38 -30 -31 -69 16 -80 9 -61 -38 6
-14 2 -18 -18 -18 -14 0 -29 -4 -32 -10 -3 -5 -12 -10 -18 -9 -9 0 -9 2 1 6 6
2 12 14 12 25 0 15 -4 18 -17 13 -10 -4 -31 -10 -48 -14 -43 -10 -40 -37 4
-33 27 2 32 0 23 -11 -8 -9 -8 -17 -1 -24 7 -7 -2 -11 -30 -11 -23 0 -39 3
-36 8 8 13 -17 25 -47 21 -20 -2 -28 2 -28 13 0 8 -5 18 -10 21 -13 8 -80 -14
-80 -26 0 -5 -10 -7 -22 -4 -13 3 -29 1 -37 -4 -20 -13 -2 -34 25 -28 18 3 24
0 24 -13 0 -13 -6 -16 -27 -13 -16 3 -35 7 -43 10 -43 17 -110 9 -110 -13 0
-8 -3 -14 -7 -14 -5 0 -19 -3 -32 -7 -17 -4 -22 -3 -17 5 4 7 15 12 26 12 19
0 30 17 23 38 -6 14 -39 16 -48 2 -3 -5 -17 -10 -30 -10 -30 0 -39 -14 -25
-39 13 -25 -2 -34 -26 -16 -11 8 -14 14 -6 15 17 0 15 31 -4 69 -12 24 -21 31
-35 28 -11 -3 -19 0 -19 6 0 7 -12 20 -26 30 -30 22 -69 14 -59 -11 18 -43 17
-52 -4 -52 -31 0 -27 -34 7 -59 26 -20 26 -20 4 -21 -14 0 -26 9 -34 25 -15
33 -48 43 -65 19 -13 -18 -14 -18 -19 4 -4 12 -13 22 -20 22 -8 0 -14 7 -14
15 0 8 -13 24 -30 36 -23 18 -27 25 -18 36 20 24 -7 38 -28 15 -11 -11 -28
-22 -39 -24 -11 -2 -18 -10 -16 -19 2 -8 3 -27 2 -43 -1 -15 3 -34 9 -41 15
-18 -17 -35 -66 -35 -31 0 -35 2 -24 15 10 12 16 12 26 4 8 -6 21 -8 30 -5 14
5 15 21 4 83 -2 11 -29 -13 -34 -30 -7 -27 -16 -17 -25 25 -9 42 -34 48 -57
13 -13 -20 -14 -29 -5 -38 6 -6 11 -19 11 -29 0 -10 7 -21 15 -24 16 -6 21
-54 6 -54 -5 0 -14 7 -21 15 -7 8 -19 15 -27 15 -8 0 -11 5 -8 10 4 6 1 18 -7
27 -10 13 -10 17 0 20 16 6 16 53 -1 53 -7 0 -22 -6 -32 -14 -16 -11 -17 -17
-7 -29 10 -12 10 -17 1 -23 -7 -4 -19 2 -28 15 -13 17 -23 20 -48 15 -29 -6
-31 -4 -26 15 4 16 9 19 23 11 28 -15 50 -12 57 8 4 9 15 23 25 30 19 14 16
32 -6 32 -7 0 -21 -8 -32 -18 -11 -10 -25 -17 -32 -14 -7 2 -19 -1 -26 -7 -10
-9 -15 -7 -18 7 -4 15 0 17 22 14 32 -5 47 20 24 38 -8 7 -14 21 -14 31 0 11
-3 19 -6 19 -12 0 -50 -24 -57 -37 -5 -7 -13 -11 -19 -7 -21 13 -96 13 -107 0
-20 -24 20 -53 66 -47 17 2 55 -38 47 -50 -3 -6 1 -16 9 -22 8 -7 18 -27 22
-44 6 -30 4 -33 -17 -33 -36 0 -51 20 -32 41 19 21 11 54 -10 46 -10 -4 -12 0
-9 14 8 28 -20 24 -54 -7 -24 -22 -26 -28 -14 -46 14 -23 10 -31 -12 -22 -9 3
-17 18 -19 32 -3 26 -5 27 -72 27 -44 0 -71 4 -73 12 -3 8 8 10 35 6 33 -4 42
-2 50 14 14 25 -2 53 -19 36 -15 -15 -39 -5 -39 17 0 10 -9 20 -20 23 -11 3
-20 10 -20 17 0 6 5 8 12 3 7 -4 21 -6 30 -5 12 2 16 -2 12 -11 -3 -8 2 -17
10 -20 17 -7 42 18 27 27 -5 3 -7 24 -5 46 4 30 1 40 -9 40 -23 0 -39 -24 -25
-38 9 -9 9 -12 1 -12 -7 0 -15 5 -18 11 -5 7 -12 6 -23 -4 -28 -24 -64 -28
-78 -9 -12 16 -14 16 -31 -1 -17 -18 -17 -19 2 -32 60 -43 89 -85 59 -85 -8 0
-17 7 -20 15 -4 8 -12 15 -19 15 -7 0 -16 12 -19 26 -5 19 -12 25 -29 22 -13
-2 -22 -10 -22 -20 0 -9 -4 -20 -8 -24 -13 -13 -7 -24 13 -24 11 0 29 -8 39
-17 18 -15 19 -17 3 -29 -14 -10 -19 -9 -31 8 -11 16 -21 19 -47 15 -31 -5
-35 -3 -50 29 -21 43 -25 45 -48 28 -18 -12 -18 -15 -3 -46 21 -43 2 -52 -29
-13 -18 23 -24 26 -43 16 -17 -10 -19 -15 -11 -31 9 -16 7 -20 -5 -20 -8 0
-15 9 -15 20 0 13 -7 20 -20 20 -12 0 -25 13 -36 35 -13 27 -21 34 -35 30 -23
-8 -26 10 -3 19 9 3 14 13 11 21 -4 8 2 16 13 20 25 8 34 35 12 35 -10 0 -23
-5 -30 -12 -9 -9 -12 -7 -12 10 0 12 -4 22 -10 22 -6 0 -10 -34 -10 -82 0 -62
4 -86 17 -100 15 -17 15 -18 0 -18 -15 0 -17 -19 -17 -175 0 -168 1 -175 20
-175 26 0 26 -16 -1 -30 -16 -9 -18 -14 -9 -25 6 -8 19 -11 28 -8 16 6 16 5 1
-13 -16 -20 -15 -54 3 -54 6 0 8 -10 4 -25 -4 -14 -2 -25 2 -25 18 0 42 38 42
67 0 27 3 30 28 26 49 -8 57 -12 44 -25 -18 -18 -14 -28 11 -28 33 0 40 -10
20 -32 -14 -15 -15 -21 -4 -27 19 -12 4 -51 -20 -51 -12 0 -19 7 -19 19 0 27
-17 36 -43 22 -12 -6 -34 -15 -48 -20 -31 -11 -47 -51 -21 -51 15 -1 15 -2 2
-13 -8 -7 -16 -21 -18 -32 -1 -11 -5 -32 -8 -47 -4 -20 1 -30 18 -42 19 -14
24 -14 37 -1 13 12 11 17 -10 34 -24 20 -24 20 -4 35 11 8 24 16 29 16 6 0 1
-7 -10 -15 -18 -15 -18 -16 11 -40 32 -27 43 -29 64 -16 18 11 7 42 -13 35 -9
-3 -17 3 -22 18 -4 13 -6 25 -6 27 3 7 72 8 72 1 0 -10 172 -7 188 4 7 4 19 3
26 -3 7 -6 20 -9 28 -6 9 4 18 -1 22 -10 5 -13 13 -15 34 -10 26 6 26 5 -13
-35 -32 -33 -37 -43 -25 -50 10 -6 20 -4 31 6 8 8 19 11 22 7 4 -3 -2 -12 -13
-20 -23 -16 -28 -48 -6 -40 7 3 23 -1 34 -9 17 -11 22 -11 31 0 14 17 5 43
-17 49 -15 4 -15 5 1 6 21 1 23 41 2 41 -13 0 -12 5 5 28 17 23 19 33 10 56
-10 28 -11 28 -36 11 -14 -9 -28 -14 -31 -11 -10 10 8 25 36 31 16 3 35 12 40
19 15 18 3 46 -20 46 -18 0 -19 2 -4 30 20 39 20 57 0 40 -9 -7 -18 -10 -21
-7 -10 10 6 27 27 27 22 0 25 13 5 29 -20 17 -96 8 -111 -12 -7 -10 -10 -28
-7 -43 l5 -25 -34 19 c-28 16 -34 25 -33 51 2 24 -2 31 -17 31 -11 0 -19 7
-19 16 0 8 5 12 10 9 14 -9 12 29 -2 44 -11 11 -9 12 8 7 17 -5 22 -3 20 11 0
10 4 18 11 18 6 0 23 12 36 27 28 30 30 29 41 -17 9 -37 64 -88 88 -81 12 3
18 -2 18 -12 0 -11 3 -13 10 -6 16 16 -5 63 -31 72 -21 8 -21 9 6 26 25 17 27
17 39 0 7 -9 18 -14 24 -10 12 7 1 55 -21 86 -17 24 -11 65 7 53 6 -5 20 -8
31 -8 15 0 19 7 18 23 -2 14 3 22 12 22 8 0 15 -3 16 -7 6 -82 6 -83 -12 -83
-24 0 -26 -6 -30 -75 -5 -69 5 -75 45 -28 17 20 27 45 28 67 1 19 5 33 10 30
5 -3 6 -15 3 -25 -5 -14 -2 -20 7 -18 31 4 48 -2 48 -17 0 -13 7 -15 35 -11
41 7 47 -11 15 -43 -17 -17 -18 -24 -9 -41 9 -17 7 -25 -12 -45 -38 -41 -53
-32 -49 29 2 32 -7 33 -70 9 -43 -17 -45 -17 -64 2 -19 19 -19 19 -28 -4 -5
-13 -5 -26 0 -29 15 -10 -2 -176 -18 -186 -16 -10 2 -43 26 -49 29 -8 32 -26
4 -26 -11 0 -23 -7 -26 -15 -9 -23 5 -65 21 -65 22 0 18 -17 -5 -23 -24 -6
-26 -34 -5 -84 15 -36 15 -36 -4 -19 -10 9 -21 13 -24 9 -3 -5 -4 -48 -2 -97
3 -66 8 -93 21 -107 19 -21 18 -26 -10 -31 -15 -2 -19 3 -20 26 -1 15 -9 34
-18 40 -15 11 -15 16 -4 32 14 22 20 124 7 124 -5 0 -7 8 -4 19 9 37 -18 34
-55 -6 -21 -21 -45 -42 -54 -46 -10 -3 -18 -15 -18 -26 0 -16 5 -19 30 -16 17
2 28 0 25 -6 -4 -5 -12 -9 -20 -9 -17 0 -29 -30 -16 -43 5 -5 17 -4 30 2 34
18 27 -17 -11 -56 -27 -28 -29 -33 -15 -39 10 -3 27 -4 40 -1 20 6 20 5 5 -7
-10 -7 -18 -20 -18 -28 0 -21 27 -41 45 -34 8 3 15 1 15 -4 0 -12 -27 -14
-211 -10 -73 2 -86 5 -85 19 1 10 -8 17 -24 19 -27 4 -50 19 -50 33 0 5 5 9
11 9 5 0 7 -6 3 -12 -5 -9 -2 -9 9 1 18 15 23 26 7 16 -5 -3 -10 1 -10 10 0 9
4 14 9 11 12 -8 34 21 26 34 -3 6 -10 8 -15 5 -7 -4 -28 38 -36 73 -1 8 -9 21
-16 30 -20 25 -40 90 -32 103 4 7 3 9 -4 5 -6 -3 -12 3 -14 15 -2 12 -13 26
-25 30 -21 8 -23 6 -23 -30 0 -21 3 -41 7 -44 6 -7 13 -49 12 -72 -4 -76 -8
-105 -14 -115 -4 -7 -2 -16 5 -20 9 -5 9 -9 1 -14 -6 -4 -15 -4 -21 -1 -6 4
-10 -11 -10 -39 0 -39 2 -44 18 -39 16 6 16 5 -1 -14 -9 -11 -17 -31 -17 -44
l0 -24 2087 1 c1574 1 2088 4 2091 12 2 7 8 12 14 12 6 0 8 -6 5 -13 -4 -10
59 -13 299 -15 l304 -3 0 25 c0 23 -4 26 -37 26 -28 0 -34 3 -23 10 9 6 10 10
3 10 -6 0 -15 -5 -18 -10 -4 -6 -53 -9 -118 -9 -62 1 -102 4 -90 6 14 3 20 9
16 19 -7 19 11 18 27 -1 7 -8 23 -15 35 -15 26 0 42 29 23 41 -7 4 -9 11 -5
15 3 4 15 1 24 -7 17 -12 17 -12 2 5 -14 15 -20 16 -40 6 -13 -7 -21 -9 -17
-5 4 4 -2 16 -13 26 -12 10 -18 23 -14 28 10 16 25 13 19 -4 -4 -10 3 -16 23
-20 42 -9 58 -20 58 -41 0 -27 13 -44 35 -44 22 0 36 53 25 97 -6 25 -5 26 7
10 10 -13 24 -18 45 -15 29 3 31 4 18 22 -9 12 -26 19 -45 18 -16 0 -32 3 -35
8 -6 10 51 7 78 -5 15 -6 17 -1 17 48 0 35 -5 57 -12 60 -10 4 -10 6 0 6 18 1
14 29 -5 34 -17 4 -17 5 0 6 13 1 17 10 17 41 0 42 -7 46 -77 40 -13 -1 -23 2
-23 7 0 4 22 8 50 7 l50 0 0 43 c0 40 -2 43 -27 43 -16 0 -45 -3 -65 -6 -32
-6 -39 -12 -55 -50 -12 -30 -25 -45 -43 -49 -14 -4 -26 -2 -28 4 -2 6 -10 18
-18 25 -8 8 -11 21 -8 29 3 9 1 25 -6 36 -9 18 -8 21 10 22 11 1 25 3 30 4 6
1 15 3 20 4 6 0 10 7 10 14 0 6 12 17 26 24 21 10 25 10 20 -2 -6 -16 19 -39
34 -30 5 3 10 15 10 26 0 21 11 23 56 10 l32 -9 1 470 c2 419 0 470 -13 465
-16 -6 -24 13 -25 63 0 32 -35 60 -72 60 -31 0 -39 17 -14 26 8 4 15 14 14 23
0 9 -3 11 -5 4 -3 -7 -12 -9 -20 -6 -8 3 -28 -10 -49 -33 -37 -40 -45 -64 -20
-64 9 0 1 -13 -21 -35 -19 -19 -42 -35 -50 -35 -9 0 -14 -6 -11 -12 2 -8 17
-12 36 -10 37 3 40 -5 6 -18 -17 -7 -23 -15 -19 -27 5 -16 3 -15 -13 2 -20 22
-63 22 -63 0 0 -7 7 -20 15 -29 19 -18 19 -26 1 -26 -8 0 -16 6 -19 14 -10 25
-42 12 -42 -17 1 -15 -4 -28 -10 -31 -7 -2 -10 7 -7 26 4 29 3 30 -22 24 -23
-6 -29 -3 -33 14 -8 31 -43 26 -44 -7 -1 -16 -1 -31 0 -35 0 -5 -8 -8 -19 -8
-13 0 -22 9 -26 26 -6 22 -11 25 -34 20 l-28 -5 20 41 c17 36 18 43 6 52 -8 6
-13 16 -11 23 6 17 -16 26 -31 14 -10 -9 -15 -8 -20 5 -4 10 2 22 15 33 19 15
20 18 5 30 -13 11 -20 11 -28 3 -14 -14 -68 -16 -68 -4 0 5 -10 14 -22 20
l-23 11 22 0 c12 1 23 -4 25 -10 6 -18 78 -2 78 16 0 8 -7 15 -15 15 -8 0 -15
5 -15 10 0 6 -6 10 -13 10 -17 0 -38 51 -31 78 5 17 2 22 -14 22 -11 0 -23 -6
-25 -12 -4 -10 -8 -9 -16 2 -8 11 -6 17 9 24 24 11 26 22 5 30 -8 3 -21 -1
-29 -9 -13 -13 -15 -13 -21 5 -5 15 -12 19 -26 15 -10 -4 -19 -2 -19 3 0 14
25 21 50 15 18 -5 21 -2 18 13 -2 11 -11 18 -21 18 -21 -2 -22 5 0 21 22 17 8
38 -17 25 -27 -14 -32 -13 -25 9 7 24 -19 35 -48 20 l-22 -12 20 23 c11 13 30
35 43 48 12 14 19 29 14 34 -10 10 -42 0 -42 -12 0 -5 -16 -3 -36 3 -27 8 -37
8 -43 -2 -6 -10 -10 -9 -15 4 -4 12 -12 15 -24 10 -41 -17 -67 -14 -89 11 -15
18 -30 25 -49 22 -29 -3 -45 -25 -22 -32 54 -16 54 -17 36 -27 -22 -12 -23
-32 -3 -49 17 -14 20 -30 5 -30 -5 0 -10 6 -10 14 0 7 -6 19 -14 25 -8 7 -18
26 -21 42 -7 29 -9 30 -72 33 -12 1 -17 -5 -15 -16 3 -19 -22 -25 -33 -8 -9
15 -45 -7 -46 -28 0 -14 -2 -14 -9 3 -5 14 -2 26 12 41 22 24 11 39 -21 29
-15 -5 -18 -1 -13 20 6 36 -20 32 -36 -5z m-238 -75 c-4 -8 -11 -12 -16 -9 -6
4 -5 10 3 15 19 12 19 11 13 -6z m571 -11 c20 -15 20 -16 -4 -12 -14 2 -26 9
-29 16 -5 16 9 15 33 -4z m-442 -50 c-2 -6 3 -17 11 -24 9 -7 13 -16 10 -21
-7 -12 -49 38 -59 70 l-7 24 25 -19 c13 -10 23 -24 20 -30z m575 -3 c-6 -2
-15 4 -20 13 -6 11 -16 15 -29 11 -10 -4 -19 -2 -19 4 0 5 8 11 17 13 19 4 68
-35 51 -41z m-668 23 c0 -10 -6 -14 -15 -11 -8 4 -17 2 -20 -3 -7 -12 -25 -13
-25 -2 0 5 12 13 28 19 15 6 28 11 30 12 1 1 2 -6 2 -15z m410 2 c0 -2 -7 -6
-15 -10 -8 -3 -15 -1 -15 4 0 6 7 10 15 10 8 0 15 -2 15 -4z m-131 -41 c7 -8
11 -21 7 -30 -9 -23 -40 -14 -44 13 -2 12 -8 22 -13 22 -5 0 -9 5 -9 11 0 13
39 2 59 -16z m-256 -44 c-9 -12 -25 20 -18 36 7 16 9 15 15 -7 4 -14 5 -27 3
-29z m167 29 c0 -5 -8 -10 -17 -10 -15 0 -16 2 -3 10 19 12 20 12 20 0z m-230
-9 c0 -13 -29 -41 -41 -41 -6 0 -2 11 8 25 19 25 33 32 33 16z m590 -11 c13
-8 13 -10 -2 -10 -9 0 -20 5 -23 10 -8 13 5 13 25 0z m-400 -45 c0 -5 -5 -3
-10 5 -5 8 -10 20 -10 25 0 6 5 3 10 -5 5 -8 10 -19 10 -25z m74 13 c7 -27 -9
-47 -25 -31 -12 12 -3 53 11 53 4 0 10 -10 14 -22z m302 -13 c16 -13 17 -16 4
-25 -21 -13 -23 -13 -43 15 -17 24 -17 25 1 25 10 0 27 -7 38 -15z m64 5 c0
-5 -5 -10 -11 -10 -5 0 -7 5 -4 10 3 6 8 10 11 10 2 0 4 -4 4 -10z m-542 -25
c-3 -3 -9 2 -12 12 -6 14 -5 15 5 6 7 -7 10 -15 7 -18z m336 9 c22 -9 10 -24
-20 -24 -23 0 -31 10 -17 23 8 9 17 9 37 1z m258 -38 c4 -23 -17 -33 -25 -11
-8 19 3 49 13 38 5 -4 10 -17 12 -27z m-659 10 c7 -18 -39 -69 -54 -60 -8 5
-7 10 4 16 9 5 14 15 10 24 -3 9 0 20 8 25 20 12 26 11 32 -5z m322 -16 c-3
-5 -15 -10 -26 -10 -12 0 -19 -7 -19 -20 0 -13 7 -20 20 -20 11 0 20 3 20 8 0
11 75 32 78 21 2 -5 10 -9 18 -9 8 0 14 -7 14 -15 0 -16 35 -21 45 -6 3 5 -2
16 -11 25 -19 20 -9 42 12 25 8 -6 23 -9 34 -6 24 6 26 -5 5 -23 -20 -16 0
-43 26 -35 9 3 20 2 23 -3 3 -6 -4 -12 -15 -15 -15 -4 -19 -11 -14 -25 4 -15
0 -22 -15 -27 -26 -8 -26 -25 0 -25 11 0 20 4 20 9 0 5 12 11 26 14 20 3 27
-1 34 -19 5 -13 14 -24 20 -24 5 0 10 -8 10 -18 0 -10 11 -29 26 -43 22 -21
23 -25 9 -35 -9 -7 -14 -17 -13 -24 3 -12 -13 -24 -46 -35 -15 -4 -16 -9 -8
-17 9 -9 18 -9 37 0 14 7 30 12 35 12 11 0 1 -32 -14 -42 -6 -4 -3 -15 9 -29
l20 -22 -29 7 c-31 8 -76 34 -76 45 0 12 -76 42 -91 36 -8 -3 -32 -35 -54 -70
-24 -40 -49 -68 -62 -71 -13 -3 -23 -10 -23 -14 0 -8 -61 -40 -77 -40 -4 0
-25 16 -46 35 -21 19 -43 35 -48 35 -6 0 -31 -20 -57 -45 -50 -48 -119 -88
-134 -79 -6 4 -5 11 1 17 6 6 11 21 11 34 0 15 6 23 18 23 27 0 44 21 31 37
-8 9 -16 10 -29 3 -13 -7 -21 -7 -25 0 -3 5 -16 10 -28 10 -20 1 -20 2 -5 11
12 7 24 6 39 -2 34 -18 47 4 26 41 -20 33 -16 49 11 47 20 -1 72 31 72 45 0 7
-16 8 -39 5 -35 -4 -40 -2 -43 17 -2 13 -10 20 -21 20 -26 -3 -22 34 6 38 16
2 23 11 25 32 2 16 13 37 25 47 19 16 20 20 7 29 -8 5 -11 10 -5 10 5 0 4 5
-3 12 -7 7 -12 17 -12 22 0 8 3 8 8 1 10 -15 55 -33 70 -28 6 3 12 11 12 19 0
8 7 14 15 14 20 0 19 25 -2 46 -14 13 -14 16 -3 12 8 -3 26 -1 40 5 79 33 147
47 135 27z m-211 -54 c-6 -16 -24 -23 -24 -8 0 10 22 33 27 28 2 -2 1 -11 -3
-20z m536 -5 c0 -5 -11 -8 -25 -8 -13 0 -22 3 -19 8 3 5 14 9 25 9 10 0 19 -4
19 -9z m-50 -31 c0 -5 -4 -10 -10 -10 -5 0 -10 5 -10 10 0 6 5 10 10 10 6 0
10 -4 10 -10z m76 -11 c18 -20 18 -21 -1 -35 -27 -20 -31 -18 -32 21 -1 40 6
43 33 14z m-686 -10 c0 -5 -4 -9 -10 -9 -5 0 -10 7 -10 16 0 8 5 12 10 9 6 -3
10 -10 10 -16z m756 -84 c15 -14 23 -25 17 -25 -5 0 -13 3 -17 8 -4 4 -11 8
-14 8 -4 1 -18 5 -31 10 -25 7 -24 9 16 23 1 1 14 -10 29 -24z m-851 -15 c14
-28 14 -31 -5 -50 -29 -29 -62 -26 -78 8 -12 25 -10 29 13 50 35 30 51 28 70
-8z m945 14 c0 -2 -7 -4 -15 -4 -8 0 -15 4 -15 10 0 5 7 7 15 4 8 -4 15 -8 15
-10z m-1075 -4 c3 -5 1 -10 -4 -10 -6 0 -11 5 -11 10 0 6 2 10 4 10 3 0 8 -4
11 -10z m1773 -25 c2 -2 -1 -13 -8 -24 -13 -25 -33 -27 -50 -6 -18 21 5 48 34
39 12 -4 22 -8 24 -9z m-721 -37 c-3 -8 -6 -5 -6 6 -1 11 2 17 5 13 3 -3 4
-12 1 -19z m-107 -52 c0 -2 -7 -6 -15 -10 -8 -3 -15 -1 -15 4 0 6 7 10 15 10
8 0 15 -2 15 -4z m70 -16 c0 -5 -4 -10 -10 -10 -5 0 -10 5 -10 10 0 6 5 10 10
10 6 0 10 -4 10 -10z m216 -9 c-4 -6 -14 -7 -23 -4 -15 6 -14 7 3 13 22 9 29
6 20 -9z m-1060 -18 c-7 -7 -26 7 -26 19 0 6 6 6 15 -2 9 -7 13 -15 11 -17z
m910 -14 c3 -5 1 -9 -5 -9 -5 0 -16 -3 -24 -6 -9 -3 -20 2 -26 13 -9 17 -7 19
20 15 16 -2 32 -8 35 -13z m659 11 c7 -12 -12 -50 -26 -50 -13 0 -22 27 -15
45 6 17 32 20 41 5z m-1547 -14 c-7 -8 -15 -12 -17 -11 -5 6 10 25 20 25 5 0
4 -6 -3 -14z m585 -36 c8 -11 38 -29 66 -39 67 -23 89 -44 71 -65 -7 -9 -18
-16 -25 -16 -7 0 -18 -7 -26 -16 -11 -13 -10 -19 0 -37 12 -19 11 -23 -8 -35
-11 -8 -21 -24 -21 -35 0 -28 38 -67 65 -67 12 0 31 -10 43 -23 21 -23 21 -23
1 -24 -11 -1 -23 5 -26 13 -5 14 -34 19 -46 7 -4 -3 -2 -12 3 -18 8 -9 6 -14
-5 -19 -22 -8 -18 -36 5 -36 11 0 20 -4 20 -10 0 -5 -9 -10 -20 -10 -32 0 -24
-30 10 -36 41 -9 28 -24 -15 -17 -25 4 -36 1 -40 -9 -6 -15 19 -83 34 -93 6
-3 8 -12 5 -20 -5 -11 -10 -12 -24 -3 -21 13 -53 3 -48 -14 3 -7 15 -15 28
-18 l23 -5 -26 -12 c-21 -10 -28 -9 -38 3 -9 11 -22 14 -41 10 -32 -6 -39 9
-7 17 30 8 13 28 -19 23 -15 -2 -30 -5 -34 -5 -5 -1 -8 -8 -8 -16 0 -8 -4 -15
-10 -15 -5 0 -10 -7 -10 -15 0 -8 7 -15 15 -15 20 0 19 -17 -2 -29 -15 -8 -16
-13 -5 -30 13 -23 3 -28 -16 -9 -8 8 -15 8 -27 -2 -15 -13 -14 -15 7 -31 21
-16 21 -18 5 -25 -10 -3 -36 -4 -58 0 -31 5 -41 3 -46 -10 -9 -23 14 -34 74
-34 34 0 57 5 67 16 11 10 21 12 31 6 14 -8 15 -10 1 -21 -8 -7 -12 -19 -9
-27 6 -17 -8 -19 -24 -3 -6 6 -16 8 -23 4 -21 -13 -4 -28 37 -32 33 -3 46 1
72 24 38 33 39 43 5 43 -36 0 -20 18 24 26 20 4 42 11 49 16 13 11 33 3 33
-13 0 -13 -26 -40 -37 -38 -21 4 -33 -2 -33 -15 0 -8 -9 -18 -20 -21 -28 -9
-25 -34 6 -45 19 -7 31 -7 40 1 10 8 14 8 14 0 0 -6 -9 -16 -20 -23 -24 -15
-26 -28 -5 -28 9 0 15 -7 13 -17 -2 -10 4 -19 15 -21 21 -4 49 16 41 29 -3 5
4 9 15 9 33 0 35 20 3 53 -21 22 -28 38 -23 50 4 10 10 18 14 18 21 -3 27 0
27 14 0 20 10 19 25 -2 10 -13 17 -14 43 -5 24 8 33 8 43 -4 24 -29 99 -15 99
19 0 19 1 19 20 2 13 -12 27 -15 45 -11 14 4 34 2 44 -3 10 -6 46 -11 79 -12
60 -2 60 -2 46 -24 -12 -18 -12 -24 -1 -33 19 -16 57 -3 57 19 0 10 -8 23 -17
28 -17 10 -17 10 -1 11 24 0 32 18 17 36 -11 13 -9 15 16 12 21 -2 30 2 33 13
4 20 -28 32 -92 38 -14 1 -16 4 -7 14 14 17 4 27 -25 27 -21 0 -39 24 -29 40
3 4 20 11 38 14 18 3 55 25 82 49 50 45 81 51 106 21 14 -17 46 -18 51 -2 3 7
14 9 31 4 35 -8 25 -26 -14 -26 -41 0 -36 -31 6 -41 17 -4 55 -14 85 -23 33
-9 56 -12 58 -6 5 15 32 12 32 -4 0 -19 -46 -66 -65 -66 -9 0 -19 -10 -24 -22
-5 -13 -17 -23 -27 -23 -11 0 -23 -10 -29 -22 -5 -13 -13 -23 -17 -23 -12 0
-19 18 -8 25 17 10 11 55 -11 91 -11 19 -25 34 -30 34 -11 0 -11 -5 0 -52 7
-29 5 -43 -10 -68 -11 -17 -19 -41 -19 -54 0 -21 -6 -24 -52 -30 l-53 -8 28
-22 c30 -24 34 -38 13 -55 -8 -6 -16 -22 -19 -34 -2 -12 -8 -30 -12 -40 -6
-13 -2 -17 17 -17 33 0 41 -10 22 -25 -19 -13 -11 -55 10 -55 13 0 46 72 46
101 0 8 5 20 12 27 9 9 7 13 -5 18 -9 3 -24 -1 -33 -11 -9 -9 -18 -14 -21 -11
-9 8 18 46 32 46 10 0 15 10 15 29 0 17 5 33 11 36 16 11 22 -1 10 -23 -8 -15
-5 -24 14 -42 32 -30 34 -64 4 -55 -18 6 -20 5 -10 -14 12 -22 40 -28 57 -11
6 6 21 6 39 1 l30 -8 -38 -8 c-42 -8 -67 -39 -48 -58 12 -12 16 -13 66 -15 20
-2 26 -5 18 -13 -16 -16 -71 -14 -91 4 -13 12 -21 14 -29 6 -8 -8 -13 -8 -17
0 -4 6 -1 11 7 11 15 0 32 29 22 38 -3 3 -5 1 -5 -5 0 -6 -8 -9 -19 -6 -14 3
-22 -4 -32 -27 -10 -21 -20 -30 -34 -29 -36 2 -45 -1 -45 -16 0 -9 7 -18 15
-21 8 -4 15 -12 15 -20 0 -17 12 -18 27 -3 7 7 23 13 37 14 20 3 26 -1 26 -15
0 -30 -11 -50 -28 -50 -8 0 -24 -8 -34 -17 -18 -16 -18 -17 4 -40 l22 -24 -67
3 c-59 2 -65 4 -53 17 13 12 18 12 33 1 15 -12 16 -12 6 0 -18 19 -16 30 5 30
24 1 48 21 56 48 9 28 6 28 -54 -3 -34 -17 -51 -21 -56 -13 -5 7 -2 8 7 3 12
-7 12 -5 1 6 -11 12 -14 12 -21 0 -5 -8 -7 -19 -5 -25 2 -6 -9 -19 -26 -29
-16 -10 -30 -22 -30 -27 0 -6 -29 -9 -65 -7 -60 2 -65 4 -65 25 0 23 -23 29
-49 13 -10 -7 -9 -12 8 -23 19 -13 -33 -15 -452 -13 -650 2 -754 4 -738 14 20
13 2 34 -23 27 -12 -3 -58 -1 -102 4 -43 5 -83 5 -87 0 -11 -10 -47 -1 -47 12
0 5 -10 8 -22 6 -34 -5 -36 -44 -3 -52 15 -4 23 -11 19 -17 -5 -8 -8 -8 -13
-1 -5 8 -162 10 -514 7 -427 -4 -506 -3 -501 9 3 7 -2 20 -10 29 -14 13 -13
15 5 20 18 5 19 9 9 27 -6 12 -25 26 -41 32 -27 9 -28 12 -16 27 13 14 12 22
-11 69 -20 44 -29 53 -45 48 -13 -3 -25 2 -33 12 -12 16 -14 16 -28 -3 -14
-18 -15 -18 -16 -2 0 9 4 17 10 17 5 0 17 14 25 31 12 23 13 34 5 44 -8 10 -8
19 2 34 7 12 16 21 20 21 13 0 9 -28 -4 -33 -18 -6 37 -117 57 -117 25 0 28
28 7 64 l-20 33 32 14 c24 11 30 19 28 38 -1 14 -9 32 -16 40 -19 22 -30 61
-17 61 5 0 11 -10 13 -22 2 -16 9 -22 21 -20 9 2 17 -3 17 -11 0 -8 10 -22 23
-30 l22 -16 -21 0 c-24 -1 -37 -22 -28 -46 7 -17 30 -20 39 -5 3 5 12 7 20 4
20 -8 42 46 24 57 -18 11 7 40 27 32 16 -6 13 -26 -12 -77 -10 -21 -11 -33 -3
-42 7 -9 7 -19 -1 -35 -10 -18 -9 -24 4 -31 12 -7 13 -14 6 -34 -13 -33 -13
-34 5 -34 12 0 13 -4 5 -19 -13 -26 -13 -31 5 -31 21 0 39 38 25 55 -7 9 -8
15 0 20 5 3 10 1 10 -4 0 -6 5 -11 10 -11 6 0 10 10 10 23 0 17 2 19 9 7 10
-15 3 -72 -10 -80 -4 -3 0 -23 10 -45 15 -35 16 -41 3 -51 -22 -16 -8 -30 44
-43 32 -8 50 -9 59 -1 7 6 19 8 27 5 8 -3 20 1 27 9 10 12 8 17 -11 27 -13 7
-24 13 -24 13 -1 1 -11 -7 -23 -18 -20 -18 -21 -18 -27 0 -3 11 -14 37 -24 59
-20 44 -18 54 5 35 10 -8 15 -9 15 -1 0 6 -4 11 -10 11 -5 0 -10 6 -10 14 0 8
-7 22 -16 30 -14 15 -14 16 0 16 19 0 20 8 1 40 -19 34 -18 43 4 37 15 -4 18
-1 14 12 -6 14 -4 14 14 -2 11 -9 26 -17 34 -18 8 0 4 -5 -9 -11 -18 -9 -32
-38 -18 -38 19 0 56 22 51 30 -3 5 3 10 14 10 15 0 21 6 21 21 0 16 -4 19 -20
14 -14 -5 -20 -2 -20 9 0 18 -17 21 -39 7 -9 -6 -22 -6 -33 0 -22 12 -24 31
-3 23 24 -10 18 32 -7 56 l-23 21 -13 -32 c-8 -18 -14 -41 -15 -51 -1 -21 -8
-23 -24 -7 -7 7 -6 22 4 52 8 22 11 52 8 66 -6 25 -6 25 9 6 8 -11 18 -17 22
-13 4 4 1 14 -6 23 -7 8 -9 15 -4 15 4 0 3 5 -4 12 -8 8 -15 8 -25 -1 -12 -9
-16 -8 -20 3 -4 9 -2 18 3 21 13 8 13 65 0 85 -7 11 -11 8 -20 -15 -25 -69
-32 -81 -62 -102 -17 -12 -35 -20 -40 -17 -11 7 21 33 40 34 6 0 12 4 12 9 0
4 -15 7 -34 5 -26 -2 -33 1 -29 12 3 8 -2 17 -11 20 -23 9 -11 22 16 17 18 -3
27 3 41 27 12 19 29 33 48 37 20 4 31 13 36 31 6 24 7 24 19 7 8 -11 14 -39
14 -64 0 -25 7 -55 15 -65 8 -11 15 -33 15 -49 0 -26 3 -28 24 -23 18 4 25 1
29 -14 3 -11 14 -20 24 -20 10 0 24 -5 30 -11 15 -15 43 -4 43 17 0 12 -7 15
-25 12 -19 -4 -25 -1 -25 13 0 14 -8 19 -32 20 -18 1 -25 3 -15 6 9 2 17 9 17
15 0 7 4 7 13 1 16 -13 67 -15 67 -3 0 6 9 6 23 1 15 -6 45 -4 83 5 32 7 66
11 76 8 10 -3 22 4 31 16 13 18 15 19 21 5 4 -11 15 -16 34 -14 17 2 36 -3 46
-14 17 -17 66 -24 66 -9 0 8 102 7 136 -1 23 -6 96 -10 104 -7 3 2 33 4 68 6
35 1 69 8 77 14 9 8 15 8 20 0 10 -16 33 -12 37 7 2 10 14 17 32 18 23 1 31
-5 40 -27 11 -30 25 -35 43 -17 15 15 80 14 132 -2 34 -10 38 -14 25 -24 -14
-10 -14 -12 0 -24 13 -11 19 -11 32 0 11 9 18 9 22 2 7 -10 39 -17 71 -14 7 1
11 7 7 16 -6 18 34 21 64 5 15 -8 19 -5 24 15 5 18 13 25 31 25 13 0 27 -4 30
-10 3 -5 -3 -10 -14 -10 -26 0 -36 -17 -21 -35 10 -12 7 -14 -17 -14 -15 0
-59 -1 -98 -2 -38 -1 -79 0 -90 2 -12 3 -20 -2 -23 -13 -5 -25 36 -38 100 -32
74 7 166 7 177 0 14 -9 25 14 12 27 -16 16 -14 24 10 30 18 5 21 11 16 36 -6
29 -4 31 21 31 19 0 30 7 38 24 10 21 8 27 -18 46 -16 11 -51 24 -79 27 -31 4
-45 9 -38 14 10 6 10 12 -3 26 -12 13 -15 27 -9 53 4 22 10 30 15 22 4 -7 5
-21 1 -31 -3 -12 0 -21 11 -25 21 -8 36 2 32 22 -1 10 1 22 5 28 9 15 -28 39
-75 48 -41 7 -49 27 -23 56 23 25 6 75 -26 75 -18 0 -24 -5 -24 -22 0 -31 -12
-38 -19 -10 -3 15 2 43 15 72 24 55 14 81 -21 50 -20 -18 -20 -18 -18 8 1 15
10 28 20 30 12 4 18 15 18 36 0 25 4 31 23 31 72 1 94 37 25 42 l-43 3 48 22
c26 12 47 26 47 31 0 5 12 17 26 27 24 16 27 16 45 -1 27 -25 19 -38 -27 -44
-31 -4 -39 -9 -39 -25 0 -37 72 -26 116 17 8 8 35 22 60 31 25 10 54 25 65 35
10 10 26 21 35 24 9 4 34 32 55 62 42 61 55 67 77 36z m-743 -5 c0 -8 -4 -15
-10 -15 -5 0 -10 7 -10 15 0 8 5 15 10 15 6 0 10 -7 10 -15z m991 -17 c27 -34
24 -48 -11 -45 -39 5 -44 11 -36 42 8 31 22 32 47 3z m759 2 c0 -5 -5 -10 -11
-10 -5 0 -7 5 -4 10 3 6 8 10 11 10 2 0 4 -4 4 -10z m-1860 -15 c0 -8 -4 -15
-10 -15 -5 0 -10 7 -10 15 0 8 5 15 10 15 6 0 10 -7 10 -15z m220 5 c0 -5 -5
-10 -11 -10 -5 0 -7 5 -4 10 3 6 8 10 11 10 2 0 4 -4 4 -10z m1265 -10 c3 -5
1 -10 -4 -10 -6 0 -11 5 -11 10 0 6 2 10 4 10 3 0 8 -4 11 -10z m-1425 -20 c0
-5 -5 -10 -11 -10 -5 0 -7 5 -4 10 3 6 8 10 11 10 2 0 4 -4 4 -10z m130 6 c0
-3 -4 -8 -10 -11 -5 -3 -10 -1 -10 4 0 6 5 11 10 11 6 0 10 -2 10 -4z m1170
-6 c0 -5 -4 -10 -10 -10 -5 0 -10 5 -10 10 0 6 5 10 10 10 6 0 10 -4 10 -10z
m-1870 -10 c0 -5 -5 -10 -11 -10 -5 0 -7 5 -4 10 3 6 8 10 11 10 2 0 4 -4 4
-10z m-1135 -48 c2 -18 10 -41 19 -51 26 -28 18 -42 -9 -17 -14 13 -25 30 -25
39 0 8 -4 17 -10 19 -5 2 -7 13 -3 26 8 32 25 22 28 -16z m1122 11 c3 -8 13
-11 25 -7 15 4 19 2 16 -7 -11 -33 -98 -10 -98 25 0 18 50 8 57 -11z m2203 8
c0 -24 -18 -37 -32 -23 -8 8 -7 16 2 27 17 21 30 19 30 -4z m-164 -10 c0 -11
-4 -17 -8 -15 -4 3 -8 12 -8 20 0 8 4 14 8 14 4 0 8 -9 8 -19z m-1256 -20 c0
-11 -5 -23 -12 -27 -7 -5 -9 -2 -5 8 3 9 0 21 -6 27 -8 8 -7 11 6 11 10 0 17
-8 17 -19z m-70 -1 c0 -5 -4 -10 -10 -10 -5 0 -10 5 -10 10 0 6 5 10 10 10 6
0 10 -4 10 -10z m-3000 -14 c0 -3 -4 -8 -10 -11 -5 -3 -10 -1 -10 4 0 6 5 11
10 11 6 0 10 -2 10 -4z m1470 -50 c0 -19 -1 -19 -21 3 -13 14 -18 28 -14 39 6
16 8 15 21 -2 8 -11 14 -29 14 -40z m1390 30 c0 -9 -7 -12 -20 -9 -11 3 -17 9
-14 14 8 14 34 10 34 -5z m-954 -43 c-10 -26 -18 -8 -9 23 5 21 8 24 11 11 2
-10 1 -25 -2 -34z m2224 27 c0 -11 -4 -20 -9 -20 -14 0 -23 18 -16 30 10 17
25 11 25 -10z m-3853 -7 c4 -11 -26 -27 -35 -19 -2 3 -2 12 2 21 6 18 27 16
33 -2z m1853 8 c0 -5 3 -18 6 -28 6 -16 5 -16 -9 2 -19 23 -21 35 -7 35 6 0
10 -4 10 -9z m134 -7 c5 -14 4 -15 -9 -4 -17 14 -19 20 -6 20 5 0 12 -7 15
-16z m161 6 c-3 -5 -18 -10 -33 -9 -24 0 -25 1 -7 9 28 12 47 12 40 0z m495 0
c0 -5 -5 -10 -11 -10 -5 0 -7 5 -4 10 3 6 8 10 11 10 2 0 4 -4 4 -10z m-2747
-19 c10 6 21 8 25 5 3 -3 0 -6 -7 -6 -8 0 -11 -8 -8 -20 6 -22 -12 -27 -31 -8
-9 9 -21 8 -53 -2 -30 -10 -44 -11 -46 -3 -2 6 -14 9 -26 6 -21 -4 -21 -4 -3
11 16 13 21 13 32 1 20 -19 53 -8 47 16 -5 18 -4 18 23 5 20 -11 33 -12 47 -5z
m167 4 c7 -8 8 -15 2 -15 -5 0 -15 7 -22 15 -7 8 -8 15 -2 15 5 0 15 -7 22
-15z m210 6 c0 -6 -9 -9 -19 -8 -11 0 -17 5 -15 9 7 11 34 10 34 -1z m1770
-12 c0 -6 -4 -7 -10 -4 -5 3 -10 11 -10 16 0 6 5 7 10 4 6 -3 10 -11 10 -16z
m1611 3 c-7 -2 -18 1 -23 6 -8 8 -4 9 13 5 13 -4 18 -8 10 -11z m-3491 -13 c0
-5 -4 -9 -9 -9 -5 0 -17 -7 -26 -17 -14 -14 -18 -14 -26 -2 -6 10 -3 15 12 17
12 2 18 9 16 17 -4 9 1 11 14 8 10 -3 19 -9 19 -14z m3770 6 c0 -8 -4 -15 -10
-15 -5 0 -10 7 -10 15 0 8 5 15 10 15 6 0 10 -7 10 -15z m-1180 -5 c0 -5 -2
-10 -4 -10 -3 0 -8 5 -11 10 -3 6 -1 10 4 10 6 0 11 -4 11 -10z m1260 -11 c0
-5 -7 -9 -15 -9 -9 0 -12 6 -9 15 6 15 24 11 24 -6z m-2281 4 c0 -5 -14 -19
-32 -33 -31 -24 -29 -12 2 22 17 18 31 23 30 11z m-789 -43 c-6 -4 -8 -13 -5
-21 4 -10 -1 -15 -14 -16 -13 -1 -18 3 -15 12 3 7 1 16 -5 19 -7 5 -7 13 1 26
11 18 14 18 30 3 12 -11 15 -19 8 -23z m564 24 c4 -10 1 -14 -6 -12 -15 5 -23
28 -10 28 5 0 13 -7 16 -16z m636 2 c0 -7 -9 -16 -21 -19 -20 -5 -20 -5 -3 14
20 23 24 23 24 5z m-1500 -6 c0 -3 -4 -11 -9 -18 -6 -10 -11 -10 -21 3 -9 11
-22 14 -39 10 -20 -4 -22 -3 -11 4 15 10 80 11 80 1z m185 0 c3 -5 1 -10 -4
-10 -6 0 -11 5 -11 10 0 6 2 10 4 10 3 0 8 -4 11 -10z m631 1 c-3 -5 -17 -8
-31 -8 -14 0 -25 3 -25 8 0 5 14 9 31 9 16 0 28 -4 25 -9z m2070 -2 c10 -17
-13 -36 -27 -22 -12 12 -4 33 11 33 5 0 12 -5 16 -11z m-3558 -11 c9 -9 15 -9
23 -1 12 12 39 7 39 -7 0 -4 -8 -10 -17 -14 -10 -3 -24 -9 -30 -12 -8 -3 -13
1 -13 10 0 10 -9 16 -25 16 -14 0 -25 5 -25 10 0 14 33 13 48 -2z m1622 -17
c0 -9 -26 -6 -60 6 -12 4 -11 7 5 13 21 8 55 -4 55 -19z m395 -20 c2 -23 -1
-41 -6 -41 -6 0 -8 4 -4 10 3 5 0 18 -6 28 -7 11 -9 27 -5 37 9 26 18 12 21
-34z m405 24 c0 -8 -4 -17 -10 -20 -6 -4 -10 5 -10 20 0 15 4 24 10 20 6 -3
10 -12 10 -20z m106 -12 c-2 -9 -7 -18 -13 -20 -14 -5 -24 23 -17 42 8 20 33
1 30 -22z m1389 27 c3 -5 1 -10 -4 -10 -6 0 -11 5 -11 10 0 6 2 10 4 10 3 0 8
-4 11 -10z m-3665 -5 c0 -10 -56 -32 -70 -27 -10 3 -3 10 20 18 40 14 50 16
50 9z m954 -42 c-25 -18 -28 -9 -7 23 16 24 18 26 22 9 2 -10 -5 -25 -15 -32z
m1143 15 c-3 -7 -5 -2 -5 12 0 14 2 19 5 13 2 -7 2 -19 0 -25z m1907 16 c19
-7 21 -25 4 -42 -9 -9 -16 -8 -30 5 -34 30 -17 54 26 37z m-4359 -33 c17 -10
17 -12 2 -7 -10 3 -23 6 -28 6 -5 0 -9 8 -9 18 0 10 3 13 8 6 4 -6 16 -16 27
-23z m705 19 c0 -5 -4 -10 -10 -10 -5 0 -10 5 -10 10 0 6 5 10 10 10 6 0 10
-4 10 -10z m750 0 c0 -5 -4 -10 -10 -10 -5 0 -10 5 -10 10 0 6 5 10 10 10 6 0
10 -4 10 -10z m1344 -5 c8 -21 -3 -45 -20 -45 -15 0 -18 18 -8 44 8 20 20 20
28 1z m160 -12 c-8 -33 -25 -47 -36 -30 -12 18 -9 27 7 27 9 0 18 7 21 15 10
25 15 17 8 -12z m-3075 -3 c12 0 21 -4 21 -9 0 -5 9 -13 21 -16 16 -5 18 -10
9 -20 -7 -8 -9 -23 -5 -35 4 -11 2 -20 -4 -20 -6 0 -13 12 -17 28 -10 48 -12
51 -48 58 -21 3 -36 12 -36 20 0 11 4 12 19 4 11 -5 29 -10 40 -10z m2514 -2
c13 -13 27 -34 30 -47 l6 -25 -24 27 c-14 14 -25 31 -25 37 0 6 -10 15 -22 20
-17 6 -18 9 -6 9 9 1 28 -9 41 -21z m1347 6 c0 -8 -4 -12 -10 -9 -5 3 -10 10
-10 16 0 5 5 9 10 9 6 0 10 -7 10 -16z m230 12 c0 -3 -4 -8 -10 -11 -5 -3 -10
-1 -10 4 0 6 5 11 10 11 6 0 10 -2 10 -4z m600 -6 c0 -12 -28 -25 -36 -17 -9
9 6 27 22 27 8 0 14 -5 14 -10z m-2750 -15 c11 -13 10 -14 -4 -9 -9 3 -16 10
-16 15 0 13 6 11 20 -6z m-1295 -15 c3 -5 2 -10 -4 -10 -5 0 -13 5 -16 10 -3
6 -2 10 4 10 5 0 13 -4 16 -10z m165 0 c0 -5 -10 -10 -22 -9 -22 0 -22 1 -3 9
11 5 21 9 23 9 1 1 2 -3 2 -9z m975 0 c3 -5 -1 -10 -10 -10 -9 0 -13 5 -10 10
3 6 8 10 10 10 2 0 7 -4 10 -10z m290 0 c3 -5 2 -10 -4 -10 -5 0 -13 5 -16 10
-3 6 -2 10 4 10 5 0 13 -4 16 -10z m95 0 c0 -5 -4 -10 -10 -10 -5 0 -10 5 -10
10 0 6 5 10 10 10 6 0 10 -4 10 -10z m458 -37 c9 -7 12 -16 8 -20 -11 -11 -49
33 -40 48 6 10 9 10 12 -1 2 -8 11 -21 20 -27z m196 22 c11 -8 15 -15 9 -15
-6 0 -18 -3 -27 -6 -12 -4 -16 0 -16 15 0 25 8 26 34 6z m1506 6 c0 -6 -4 -13
-10 -16 -5 -3 -10 1 -10 9 0 9 5 16 10 16 6 0 10 -4 10 -9z m-3080 -11 c0 -5
-5 -10 -11 -10 -5 0 -7 5 -4 10 3 6 8 10 11 10 2 0 4 -4 4 -10z m390 -20 c-13
-10 -20 -22 -16 -29 4 -6 2 -11 -3 -11 -15 0 -14 38 1 54 7 7 19 11 27 8 10
-4 8 -9 -9 -22z m770 16 c0 -20 -19 -31 -32 -18 -6 6 -7 15 -4 21 10 16 36 13
36 -3z m1588 2 c-6 -18 -25 -20 -31 -3 -5 10 0 15 14 15 12 0 19 -5 17 -12z
m-3118 -8 c0 -5 -5 -10 -11 -10 -5 0 -7 5 -4 10 3 6 8 10 11 10 2 0 4 -4 4
-10z m3367 4 c-3 -3 -12 -4 -19 -1 -8 3 -5 6 6 6 11 1 17 -2 13 -5z m-4262
-42 c-6 -7 -35 18 -35 31 0 5 9 2 20 -8 11 -10 18 -20 15 -23z m1884 17 c-9
-17 -13 -19 -20 -8 -14 22 -11 29 11 29 18 0 19 -3 9 -21z m2231 11 c0 -5 -4
-10 -10 -10 -5 0 -10 5 -10 10 0 6 5 10 10 10 6 0 10 -4 10 -10z m-2990 -10
c0 -5 -4 -10 -10 -10 -5 0 -10 5 -10 10 0 6 5 10 10 10 6 0 10 -4 10 -10z
m1770 6 c0 -11 -19 -15 -25 -6 -3 5 1 10 9 10 9 0 16 -2 16 -4z m1710 -6 c0
-5 -2 -10 -4 -10 -3 0 -8 5 -11 10 -3 6 -1 10 4 10 6 0 11 -4 11 -10z m-2125
-19 c-3 -6 -11 -11 -17 -11 -6 0 -6 6 2 15 14 17 26 13 15 -4z m-685 -1 c0 -5
-2 -10 -4 -10 -3 0 -8 5 -11 10 -3 6 -1 10 4 10 6 0 11 -4 11 -10z m430 0 c0
-5 -2 -10 -4 -10 -2 0 -12 -3 -20 -6 -12 -5 -15 -2 -10 10 7 17 34 22 34 6z
m715 0 c3 -5 1 -10 -4 -10 -6 0 -11 5 -11 10 0 6 2 10 4 10 3 0 8 -4 11 -10z
m1107 -18 c-28 -18 -29 -58 -2 -65 11 -3 23 -1 26 4 3 6 12 5 21 -2 13 -11 12
-14 -7 -21 -39 -14 -67 0 -75 38 -7 38 -1 54 21 54 8 0 14 5 14 11 0 5 5 7 12
3 8 -5 5 -12 -10 -22z m452 12 c5 -14 4 -15 -9 -4 -17 14 -19 20 -6 20 5 0 12
-7 15 -16z m-4363 -10 c-16 -12 -20 -19 -12 -27 6 -6 11 -18 10 -26 0 -11 -4
-8 -11 7 -6 12 -17 22 -25 22 -7 0 -13 2 -13 4 0 2 -3 11 -6 20 -5 13 2 16 37
16 43 0 43 0 20 -16z m579 6 c0 -5 -5 -10 -11 -10 -5 0 -7 5 -4 10 3 6 8 10
11 10 2 0 4 -4 4 -10z m2000 -42 c0 -17 -23 -18 -35 -2 -24 32 -18 47 10 27
13 -10 25 -21 25 -25z m80 0 c0 -20 -18 -5 -23 19 -5 26 -4 26 9 8 8 -10 14
-22 14 -27z m-857 -9 c-8 -16 -17 -29 -19 -29 -3 0 -3 4 0 9 3 5 -1 14 -9 21
-13 11 -13 14 2 25 29 22 43 8 26 -26z m195 23 c-10 -2 -18 -8 -18 -13 0 -5
-4 -9 -10 -9 -5 0 -10 6 -10 14 0 16 28 26 45 17 6 -3 2 -7 -7 -9z m-1898 -13
c0 -14 -16 -11 -29 5 -10 12 -8 13 8 9 12 -3 21 -9 21 -14z m1550 16 c0 -2
-10 -10 -22 -16 -21 -11 -22 -11 -9 4 13 16 31 23 31 12z m84 -10 c-10 -8 -27
-15 -38 -15 -30 0 -2 25 30 28 27 2 27 1 8 -13z m1157 0 c0 -6 -10 -12 -23
-13 -19 -4 -20 -2 -9 12 15 17 33 18 32 1z m1330 2 c-1 -12 -15 -9 -19 4 -3 6
1 10 8 8 6 -3 11 -8 11 -12z m99 -2 c0 -8 -5 -23 -11 -34 -10 -14 -16 -16 -34
-7 l-23 10 22 23 c24 26 46 30 46 8z m260 -4 c0 -12 -20 -25 -27 -18 -7 7 6
27 18 27 5 0 9 -4 9 -9z m-3408 -18 c20 -4 33 -1 39 8 7 11 12 10 27 -7 9 -12
26 -24 36 -28 15 -5 17 -9 8 -18 -19 -19 -14 -36 11 -40 14 -2 23 -11 25 -25
3 -22 1 -22 -43 -16 -49 6 -95 -10 -95 -33 0 -7 -12 -22 -26 -33 -22 -17 -24
-24 -14 -36 7 -8 10 -25 6 -39 -3 -14 -1 -28 4 -31 8 -5 8 -11 0 -20 -16 -19
8 -69 27 -54 9 9 13 8 13 0 0 -19 20 -12 29 11 5 15 10 18 15 9 4 -6 1 -22 -6
-34 -20 -31 -28 -66 -16 -73 12 -8 58 35 58 54 0 9 2 13 5 10 10 -10 -7 -58
-20 -58 -7 0 -16 -15 -19 -32 -6 -27 -9 -30 -16 -16 -13 21 -52 12 -48 -11 2
-9 11 -15 21 -15 9 1 17 -4 17 -11 0 -7 6 -16 13 -18 9 -4 9 -8 -1 -15 -8 -5
-13 -12 -13 -16 3 -23 -2 -26 -33 -21 -35 7 -52 -9 -36 -35 7 -11 17 -14 70
-19 8 -1 20 -12 26 -25 9 -20 8 -30 -7 -54 -21 -35 -17 -42 25 -42 l31 -1 -24
-19 c-32 -27 -51 -25 -51 4 0 14 -5 28 -11 31 -7 5 -4 14 7 26 16 18 16 19 1
13 -12 -4 -17 -1 -17 10 0 20 -38 59 -50 51 -14 -8 -20 49 -17 153 1 50 0 92
-3 92 -3 0 -11 -5 -18 -12 -9 -9 -12 -8 -12 4 0 9 4 19 10 23 13 8 1 35 -17
35 -11 0 -13 5 -8 18 15 35 18 54 9 61 -20 14 -33 48 -22 59 11 11 1 35 -11
27 -5 -2 -23 2 -40 11 -39 20 -41 51 -3 65 25 10 26 11 9 24 -21 15 -28 66
-10 72 7 2 33 -16 58 -42 48 -48 65 -50 65 -9 0 15 6 24 15 24 18 0 18 5 5 31
-6 11 -21 19 -35 19 -25 0 -39 12 -28 24 4 4 18 4 31 1 14 -3 38 -9 54 -12z
m-482 -3 c13 -8 13 -10 -2 -10 -9 0 -20 5 -23 10 -8 13 5 13 25 0z m1453 -32
l22 -3 -21 -12 c-27 -16 -62 -6 -70 19 -9 29 16 42 33 18 7 -10 23 -20 36 -22z
m62 32 c3 -5 1 -10 -4 -10 -6 0 -11 5 -11 10 0 6 2 10 4 10 3 0 8 -4 11 -10z
m1819 -33 c-22 -13 -36 1 -23 24 10 20 11 20 24 2 11 -15 11 -19 -1 -26z m46
33 c0 -5 -5 -10 -11 -10 -5 0 -7 5 -4 10 3 6 8 10 11 10 2 0 4 -4 4 -10z m390
6 c0 -11 -19 -15 -25 -6 -3 5 1 10 9 10 9 0 16 -2 16 -4z m-3725 -16 c3 -5 2
-10 -4 -10 -5 0 -13 5 -16 10 -3 6 -2 10 4 10 5 0 13 -4 16 -10z m850 -9 c8
-26 31 -33 50 -15 8 9 15 11 15 5 0 -5 -5 -13 -11 -17 -6 -3 -9 -15 -6 -25 3
-11 3 -19 0 -19 -12 0 -82 74 -77 82 9 14 22 9 29 -11z m325 4 c0 -5 -7 -18
-14 -28 -12 -16 -17 -16 -35 -5 -19 12 -27 29 -17 39 9 9 66 4 66 -6z m480 5
c13 -8 13 -10 -2 -10 -9 0 -20 5 -23 10 -8 13 5 13 25 0z m1315 -10 c3 -5 -3
-10 -15 -10 -12 0 -18 5 -15 10 3 6 10 10 15 10 5 0 12 -4 15 -10z m120 -29
c11 -14 22 -34 25 -45 6 -22 50 -36 50 -16 0 7 6 6 15 -4 8 -8 15 -17 15 -20
0 -11 -50 -6 -69 6 -29 18 -49 4 -44 -29 5 -26 4 -27 -12 -11 -17 15 -16 18
11 53 l28 37 -32 25 c-18 13 -32 29 -32 34 0 14 21 0 45 -30z m-2065 19 c0 -5
-4 -10 -10 -10 -5 0 -10 5 -10 10 0 6 5 10 10 10 6 0 10 -4 10 -10z m977 -5
c2 -6 -5 -15 -16 -22 -16 -10 -20 -9 -24 13 -4 21 -1 25 16 22 11 -2 22 -8 24
-13z m212 -1 c7 -7 -4 -14 -37 -20 -28 -6 -30 -4 -25 16 5 17 11 20 32 15 14
-4 28 -9 30 -11z m1571 -5 c0 -5 -4 -9 -10 -9 -5 0 -10 7 -10 16 0 8 5 12 10
9 6 -3 10 -10 10 -16z m-2564 -15 c-4 -15 -13 -32 -20 -39 -10 -11 -15 -9 -24
6 -10 16 -9 19 7 19 10 0 21 9 24 20 3 11 8 20 12 20 4 0 4 -12 1 -26z m278 4
c-3 -5 -12 -4 -20 3 -19 16 -18 18 6 12 11 -3 17 -9 14 -15z m102 5 c7 -10 13
-29 13 -43 0 -22 -2 -21 -13 9 -7 19 -21 38 -32 42 -18 7 -18 8 0 8 10 1 25
-7 32 -16z m-1496 -3 c0 -5 -5 -10 -11 -10 -5 0 -7 5 -4 10 3 6 8 10 11 10 2
0 4 -4 4 -10z m-190 -10 c0 -5 -4 -10 -10 -10 -5 0 -10 5 -10 10 0 6 5 10 10
10 6 0 10 -4 10 -10z m2140 0 c0 -5 -7 -10 -16 -10 -8 0 -12 5 -9 10 3 6 10
10 16 10 5 0 9 -4 9 -10z m1334 -9 c13 -15 14 -20 4 -23 -10 -4 -10 -9 2 -24
14 -18 14 -18 -2 -5 -10 7 -18 20 -18 27 0 8 -10 14 -21 14 -18 0 -19 2 -9 15
16 20 23 19 44 -4z m-2424 5 c0 -3 -4 -8 -10 -11 -5 -3 -10 -1 -10 4 0 6 5 11
10 11 6 0 10 -2 10 -4z m910 -17 c0 -5 -4 -9 -10 -9 -5 0 -10 7 -10 16 0 8 5
12 10 9 6 -3 10 -10 10 -16z m1706 -16 c-10 -10 -19 5 -10 18 6 11 8 11 12 0
2 -7 1 -15 -2 -18z m-2806 -14 c0 -21 6 -32 18 -36 20 -5 48 -43 32 -43 -5 0
-10 5 -10 11 0 5 -4 8 -9 4 -11 -6 -62 75 -55 87 11 18 24 6 24 -23z m688 4
c2 -13 -1 -23 -6 -23 -24 0 -42 14 -42 32 0 29 44 20 48 -9z m1529 11 c2 -6
-6 -10 -17 -11 -12 -1 -30 -12 -40 -25 -17 -20 -19 -21 -20 -5 0 35 18 56 47
53 15 -2 28 -7 30 -12z m-1879 -13 c3 -8 -1 -12 -9 -9 -7 2 -15 10 -17 17 -3
8 1 12 9 9 7 -2 15 -10 17 -17z m2177 9 c-3 -5 -11 -10 -16 -10 -6 0 -7 5 -4
10 3 6 11 10 16 10 6 0 7 -4 4 -10z m-1576 -22 c2 -6 12 -18 22 -26 29 -25 23
-32 -27 -32 -41 0 -46 2 -41 20 3 11 1 23 -4 26 -5 3 -9 12 -9 21 0 12 6 14
28 8 15 -3 29 -11 31 -17z m366 12 c-3 -5 -13 -10 -21 -10 -8 0 -12 5 -9 10 3
6 13 10 21 10 8 0 12 -4 9 -10z m-514 -13 c-1 -12 -15 -9 -19 4 -3 6 1 10 8 8
6 -3 11 -8 11 -12z m460 -2 c0 -6 -11 -12 -23 -13 -13 -2 -29 -9 -37 -15 -10
-9 -13 -7 -10 8 5 26 71 45 70 20z m-781 -40 c-4 -22 -8 -36 -9 -31 0 4 -12 1
-26 -8 -14 -9 -25 -12 -25 -7 0 5 7 11 15 15 8 3 23 21 32 41 21 43 23 41 13
-10z m367 14 c3 -18 14 -34 27 -39 16 -7 17 -9 4 -9 -9 -1 -25 -12 -36 -26
-11 -14 -22 -25 -25 -25 -2 0 -2 11 1 25 2 14 8 25 13 25 13 0 11 54 -3 68 -9
9 -9 12 0 12 7 0 15 -14 19 -31z m-895 1 c10 0 18 -5 18 -11 0 -6 -7 -8 -16
-5 -9 3 -22 6 -30 6 -8 0 -14 8 -14 17 0 13 3 14 12 5 7 -7 20 -12 30 -12z
m318 -9 c0 -10 -7 -24 -15 -31 -10 -8 -13 -21 -8 -38 5 -22 3 -24 -17 -19 -16
4 -29 -2 -49 -22 -14 -15 -34 -31 -43 -34 -12 -4 -16 -13 -12 -24 5 -15 4 -15
-4 -4 -12 17 1 50 24 64 8 4 14 12 14 17 0 12 -59 70 -71 70 -5 0 -4 6 3 13 9
11 19 11 47 1 41 -14 92 -8 104 13 12 19 27 16 27 -6z m1972 -4 c-28 -13 -28
-35 0 -46 18 -6 19 -9 5 -14 -18 -7 -47 17 -47 38 0 18 40 46 54 38 5 -4 0
-11 -12 -16z m-3092 -49 c0 -10 -4 -18 -8 -18 -11 0 -32 67 -24 75 8 7 31 -35
32 -57z m1900 52 c0 -5 -5 -10 -11 -10 -5 0 -7 5 -4 10 3 6 8 10 11 10 2 0 4
-4 4 -10z m1955 0 c3 -5 1 -10 -4 -10 -6 0 -11 5 -11 10 0 6 2 10 4 10 3 0 8
-4 11 -10z m-2610 -28 c-8 -8 -25 10 -19 20 4 6 9 5 15 -3 4 -7 6 -15 4 -17z
m395 2 c0 -8 -4 -12 -10 -9 -5 3 -10 13 -10 21 0 8 5 12 10 9 6 -3 10 -13 10
-21z m649 8 c8 -14 6 -19 -5 -19 -7 0 -14 9 -14 19 0 10 2 18 5 18 2 0 9 -8
14 -18z m720 4 c10 -12 8 -13 -8 -9 -12 3 -21 9 -21 14 0 14 16 11 29 -5z
m-2330 -24 c-2 -15 0 -33 4 -40 6 -8 -1 -15 -17 -22 -27 -10 -35 -35 -13 -43
9 -3 9 -7 1 -18 -7 -8 -14 -23 -16 -34 -3 -11 -8 3 -13 33 -6 39 -11 52 -21
48 -8 -3 -15 -2 -15 2 -7 41 -6 62 1 62 4 0 11 -12 15 -27 7 -31 12 -28 47 36
21 38 30 39 27 3z m-744 -6 c14 -21 19 -56 14 -96 -1 -8 1 -25 5 -37 5 -14 3
-23 -3 -23 -6 0 -11 6 -11 14 0 7 -7 19 -15 26 -13 11 -13 14 2 26 14 10 16
15 6 25 -7 7 -13 21 -13 30 0 9 -7 22 -15 29 -15 12 -12 30 5 30 5 0 17 -11
25 -24z m154 -8 c8 -18 21 -39 28 -47 10 -9 11 -17 3 -26 -14 -17 1 -27 27
-19 17 5 17 5 1 -6 -17 -10 -16 -13 2 -48 18 -34 19 -37 3 -46 -12 -6 -18 -5
-21 4 -12 34 -51 60 -92 60 -43 0 -53 17 -25 40 8 7 15 21 15 31 0 10 4 20 9
23 4 3 11 19 14 36 8 39 19 38 36 -2z m3142 19 c18 -14 14 -37 -6 -37 -7 0
-16 7 -19 16 -13 35 -4 43 25 21z m-846 -17 c-3 -5 -21 -10 -38 -10 -24 0 -28
3 -17 10 20 13 63 13 55 0z m-208 -15 c8 -23 -3 -29 -26 -13 -21 15 -18 28 6
28 7 0 16 -7 20 -15z m-2411 -22 c-10 -10 -19 5 -10 18 6 11 8 11 12 0 2 -7 1
-15 -2 -18z m969 17 c-3 -5 -14 -10 -23 -10 -15 0 -15 2 -2 10 20 13 33 13 25
0z m2099 -5 c3 -9 0 -15 -9 -15 -8 0 -15 7 -15 15 0 8 4 15 9 15 5 0 11 -7 15
-15z m489 0 c-3 -9 -8 -14 -10 -11 -3 3 -2 9 2 15 9 16 15 13 8 -4z m-2947
-10 c-3 -9 3 -24 13 -34 22 -22 18 -31 -13 -31 -18 0 -21 6 -21 40 0 27 4 40
13 40 9 0 12 -6 8 -15z m850 -51 c-3 -9 -11 -12 -17 -9 -8 5 -8 10 0 18 6 6
12 22 12 37 2 24 2 24 6 -3 3 -16 2 -35 -1 -43z m-1074 34 c-7 -7 -12 -8 -12
-2 0 14 12 26 19 19 2 -3 -1 -11 -7 -17z m385 -25 c-3 -10 -5 -2 -5 17 0 19 2
27 5 18 2 -10 2 -26 0 -35z m603 43 c0 -3 -4 -8 -10 -11 -5 -3 -10 -1 -10 4 0
6 5 11 10 11 6 0 10 -2 10 -4z m236 -11 c10 -8 14 -15 7 -15 -6 0 -13 -8 -15
-17 -3 -14 -8 -10 -20 15 -18 36 -7 43 28 17z m154 -5 c-24 -15 -37 -11 -16 5
11 8 22 12 25 9 3 -3 -1 -9 -9 -14z m1644 -33 c4 -16 3 -26 -2 -23 -5 3 -7 -6
-4 -19 7 -40 -15 -29 -25 13 -8 31 -13 37 -34 35 -20 -2 -19 0 11 16 39 20 45
18 54 -22z m-3774 18 c0 -8 -7 -15 -16 -15 -14 0 -14 3 -4 15 7 8 14 15 16 15
2 0 4 -7 4 -15z m3000 0 c0 -8 -4 -15 -10 -15 -5 0 -10 7 -10 15 0 8 5 15 10
15 6 0 10 -7 10 -15z m-795 -22 c-29 -20 -48 -17 -35 6 7 13 16 17 31 14 21
-6 21 -7 4 -20z m1636 4 c-10 -9 -11 -8 -5 6 3 10 9 15 12 12 3 -3 0 -11 -7
-18z m-196 -6 c3 -6 -3 -9 -14 -8 -11 0 -17 5 -15 9 7 11 22 10 29 -1z m-801
-41 c9 0 13 -6 10 -14 -3 -8 6 -25 21 -38 l26 -24 -33 4 c-30 3 -33 7 -33 35
0 23 -4 32 -16 31 -12 -1 -14 5 -11 24 5 26 5 26 13 4 5 -12 15 -22 23 -22z
m1596 32 c0 -13 -12 -22 -22 -16 -10 6 -1 24 13 24 5 0 9 -4 9 -8z m-4300 -12
c0 -5 -2 -10 -4 -10 -3 0 -8 5 -11 10 -3 6 -1 10 4 10 6 0 11 -4 11 -10z m327
-32 c1 -24 3 -54 4 -67 0 -14 9 -25 20 -28 11 -3 19 -14 19 -25 0 -14 -5 -18
-16 -14 -8 3 -12 2 -9 -3 3 -5 1 -12 -4 -15 -5 -4 -12 -2 -16 4 -4 6 -11 8
-16 5 -5 -4 -12 0 -15 9 -3 8 -12 12 -20 9 -21 -8 -18 34 6 64 11 14 20 36 20
49 0 26 9 54 19 54 3 0 7 -19 8 -42z m1607 27 c-4 -8 -8 -15 -10 -15 -2 0 -4
7 -4 15 0 8 4 15 10 15 5 0 7 -7 4 -15z m266 -16 c0 -5 -9 -9 -20 -9 -22 0
-23 1 -14 24 5 13 9 14 20 5 8 -6 14 -15 14 -20z m365 22 c3 -5 1 -12 -5 -16
-5 -3 -10 1 -10 9 0 18 6 21 15 7z m1338 -11 c3 -11 3 -20 1 -20 -2 0 -8 9
-14 20 -6 11 -7 20 -2 20 6 0 12 -9 15 -20z m-63 -10 c0 -5 -5 -10 -11 -10 -5
0 -7 5 -4 10 3 6 8 10 11 10 2 0 4 -4 4 -10z m-2996 -22 c15 -76 15 -96 -5
-101 -27 -7 -100 4 -93 14 3 5 10 7 15 3 18 -11 49 28 49 61 0 48 26 65 34 23z
m1957 -5 l24 -27 -24 15 c-14 9 -27 21 -29 27 -6 19 3 14 29 -15z m1409 7 c0
-5 -5 -10 -11 -10 -5 0 -7 5 -4 10 3 6 8 10 11 10 2 0 4 -4 4 -10z m-3950 -15
c0 -8 -2 -15 -4 -15 -2 0 -6 7 -10 15 -3 8 -1 15 4 15 6 0 10 -7 10 -15z m498
3 c6 -9 6 -21 0 -38 l-10 -25 -9 23 c-11 28 -49 30 -49 2 0 -11 5 -20 12 -20
9 0 9 -3 0 -12 -16 -16 3 -48 29 -48 15 0 19 -6 17 -22 -2 -16 4 -23 27 -30
38 -10 82 -1 95 20 9 16 9 16 10 0 0 -10 4 -18 10 -18 11 0 -7 -46 -28 -72 -9
-11 -10 -18 -3 -23 6 -3 11 -13 11 -21 0 -8 -4 -13 -9 -9 -5 3 -12 1 -16 -5
-3 -5 -1 -10 4 -10 6 0 11 -9 11 -20 0 -11 5 -20 10 -20 6 0 4 -13 -5 -30 -8
-16 -15 -33 -15 -38 0 -15 38 -21 44 -8 3 6 3 0 -1 -14 -3 -14 -6 -31 -6 -37
0 -7 -5 -13 -10 -13 -5 0 -4 -6 2 -14 9 -11 7 -15 -7 -18 -15 -4 -18 0 -17 23
2 33 -2 34 -29 14 -10 -8 -23 -12 -29 -8 -6 3 -7 1 -3 -5 10 -17 -13 -26 -71
-27 -55 -2 -64 4 -38 25 19 16 11 25 -20 25 -18 1 -22 -4 -20 -22 2 -24 -14
-30 -32 -12 -8 8 -18 6 -36 -6 -25 -16 -47 -14 -47 6 0 5 14 9 30 9 17 0 30 4
30 9 0 18 -66 91 -88 97 -17 5 -20 9 -12 20 8 9 8 18 0 33 -8 17 -8 21 4 21
21 0 30 19 16 35 -17 20 -1 19 22 -2 22 -19 42 -6 36 23 -2 14 -11 18 -31 16
-39 -5 -46 3 -37 43 7 32 5 37 -21 56 -16 11 -33 17 -39 14 -15 -9 -12 -42 6
-59 8 -9 11 -16 5 -16 -7 0 -9 -21 -6 -57 3 -32 7 -85 10 -118 3 -43 2 -54 -5
-37 -5 12 -16 22 -25 22 -19 0 -19 14 0 30 8 7 12 22 9 38 -3 22 -9 68 -13
115 -2 15 -18 6 -40 -24 -17 -23 -20 -33 -11 -44 17 -21 2 -54 -27 -61 -18 -5
-21 -9 -11 -15 10 -7 9 -9 -4 -9 -28 0 -29 -17 -3 -48 29 -35 18 -54 -28 -45
-30 6 -47 23 -23 23 16 0 23 35 8 42 -13 5 -54 78 -44 78 5 0 12 -9 15 -20 6
-22 43 -28 50 -7 2 6 -2 19 -9 28 -8 8 -17 29 -20 46 -6 31 -6 31 32 26 34 -4
44 0 78 29 28 25 38 39 33 52 -5 13 -11 15 -26 6 -11 -5 -22 -18 -26 -29 -6
-21 -49 -33 -63 -19 -6 6 -17 6 -30 -1 -27 -15 -39 -14 -24 1 16 16 15 23 -4
42 -14 15 -13 16 6 16 12 0 19 -4 15 -9 -12 -20 30 -31 59 -15 16 8 34 14 41
14 6 0 23 9 36 21 22 19 24 28 28 117 1 14 7 22 19 21 12 0 13 -2 3 -6 -11 -5
-11 -7 0 -15 11 -7 11 -11 2 -15 -19 -7 -16 -63 4 -85 18 -20 53 -25 53 -7 0
6 -9 18 -20 27 -16 14 -17 20 -7 33 18 24 57 34 57 15 0 -9 6 -16 13 -16 6 0
4 -5 -5 -11 -27 -15 -22 -39 7 -39 14 0 25 6 25 13 0 6 16 23 35 36 19 13 33
27 30 31 -8 13 7 42 19 37 6 -2 20 -1 31 4 30 12 51 10 63 -3z m382 -58 c9
-16 8 -18 -5 -14 -8 4 -15 12 -15 20 0 20 7 17 20 -6z m-900 -31 c0 -6 -4 -7
-10 -4 -5 3 -10 11 -10 16 0 6 5 7 10 4 6 -3 10 -11 10 -16z m650 1 c0 -5 -5
-10 -11 -10 -5 0 -7 5 -4 10 3 6 8 10 11 10 2 0 4 -4 4 -10z m3500 0 c0 -5
-12 -10 -27 -10 -22 0 -25 2 -13 10 20 13 40 13 40 0z m-55 -100 c-3 -5 -12
-7 -20 -3 -21 7 -19 13 6 13 11 0 18 -4 14 -10z m-2956 -57 c1 -6 -7 -9 -18
-6 -16 4 -17 8 -7 28 10 21 12 22 18 7 4 -9 7 -22 7 -29z m-1159 -13 c0 -5 7
-10 16 -10 8 0 12 -4 9 -10 -9 -14 -16 -12 -45 10 l-25 20 23 0 c12 0 22 -4
22 -10z m690 0 c0 -5 -5 -10 -11 -10 -5 0 -7 5 -4 10 3 6 8 10 11 10 2 0 4 -4
4 -10z m3443 -17 c-7 -2 -21 -2 -30 0 -10 3 -4 5 12 5 17 0 24 -2 18 -5z
m-3239 -57 c2 -16 9 -31 16 -36 7 -4 8 -10 2 -14 -5 -3 -17 3 -27 14 -10 11
-15 20 -11 20 4 0 2 9 -4 20 -12 23 -3 47 12 32 5 -5 10 -21 12 -36z m3276 4
c0 -13 -11 -13 -30 0 -12 8 -11 10 8 10 12 0 22 -4 22 -10z m-250 -31 c0 -5
-4 -9 -10 -9 -5 0 -10 7 -10 16 0 8 5 12 10 9 6 -3 10 -10 10 -16z m110 -30
c0 -5 -4 -9 -10 -9 -5 0 -10 7 -10 16 0 8 5 12 10 9 6 -3 10 -10 10 -16z
m-3268 -26 c2 -66 11 -88 30 -77 7 5 8 2 3 -6 -4 -7 -3 -15 4 -19 6 -4 -5 -7
-24 -7 -25 0 -32 3 -24 12 7 8 4 17 -7 29 -15 14 -16 22 -6 47 6 16 8 36 5 44
-3 8 0 14 6 14 6 0 12 -17 13 -37z m189 -33 l24 0 -25 -13 c-22 -11 -27 -11
-39 6 -7 10 -20 16 -28 12 -13 -4 -14 -3 -3 10 12 14 15 14 30 0 9 -8 27 -15
41 -15z m-736 -23 c11 -17 21 -35 23 -39 2 -5 -69 -8 -157 -8 -138 0 -160 2
-155 15 4 8 11 12 17 8 14 -9 122 -12 175 -6 47 6 76 27 68 49 -10 26 9 14 29
-19z m-705 -35 l35 -11 -45 2 c-41 1 -59 10 -60 30 0 4 8 3 18 -2 9 -5 33 -14
52 -19z m1428 -2 c10 0 23 -4 30 -9 8 -4 -19 -7 -62 -7 -44 1 -75 6 -74 11 2
6 17 10 35 10 17 0 35 4 39 8 5 5 10 3 12 -2 2 -6 11 -11 20 -11z m1250 -7
c-10 -2 -28 -2 -40 0 -13 2 -5 4 17 4 22 1 32 -1 23 -4z M3435 2435 c-17 -14
-18 -17 -3 -31 14 -14 17 -14 32 1 35 35 11 60 -29 30z M3580 2440 c0 -5 -11
-10 -24 -10 -31 0 -40 -14 -20 -31 12 -10 19 -10 32 -1 10 7 25 15 35 18 24 9
22 34 -3 34 -11 0 -20 -4 -20 -10z M3780 2322 c0 -14 11 -21 26 -15 21 8 17
23 -6 23 -11 0 -20 -4 -20 -8z M3760 2275 c-8 -10 -8 -15 0 -20 6 -4 14 -4 17
-1 3 3 12 1 19 -5 14 -12 44 -6 44 9 0 5 -16 13 -35 19 -26 8 -37 8 -45 -2z
M3365 1541 c-8 -15 3 -31 21 -31 9 0 14 7 12 17 -4 20 -24 28 -33 14z M3654
1509 c-10 -17 13 -36 27 -22 12 12 4 33 -11 33 -5 0 -12 -5 -16 -11z M4490
1488 c0 -7 -7 -26 -16 -43 -11 -22 -14 -44 -9 -79 8 -63 12 -68 35 -53 21 12
28 47 10 47 -18 0 -10 18 10 23 29 8 25 25 -5 19 -30 -5 -33 12 -9 46 16 23
13 52 -6 52 -5 0 -10 -6 -10 -12z M4493 1291 c-30 -25 -30 -45 -1 -35 20 6 21
5 9 -10 -7 -9 -20 -16 -27 -16 -8 0 -14 -9 -14 -20 0 -11 3 -20 8 -20 18 1 47
27 50 45 2 11 6 32 9 48 6 32 -3 34 -34 8z M2026 1203 c-10 -24 -7 -30 13 -36
25 -6 45 7 38 26 -8 21 -44 28 -51 10z M2410 1205 c0 -21 50 -40 62 -23 13 21
3 33 -30 36 -24 2 -32 -1 -32 -13z M3885 1209 c-10 -14 24 -49 41 -42 8 3 14
16 14 29 0 19 -5 24 -24 24 -14 0 -28 -5 -31 -11z M4088 1207 c-21 -16 -30
-58 -16 -74 20 -25 61 -15 91 23 16 19 26 42 23 50 -6 16 -46 19 -46 4 0 -7
-6 -7 -19 -1 -13 7 -23 7 -33 -2z M2806 1202 c-3 -5 -22 -9 -42 -10 -42 -2
-49 -6 -39 -22 5 -8 26 -10 65 -5 53 6 60 5 72 -14 22 -36 56 -21 43 19 -4 11
-15 20 -25 20 -10 0 -22 5 -25 10 -7 12 -42 13 -49 2z M3993 1189 c4 -15 0
-19 -19 -19 -39 0 -32 -36 9 -43 38 -6 55 7 59 48 3 27 0 30 -25 31 -23 1 -28
-3 -24 -17z M2202 1193 c-10 -4 -10 -8 -1 -19 15 -18 35 -18 42 0 9 23 -9 32
-41 19z M2506 1185 c-21 -16 -13 -38 12 -33 10 2 22 -3 28 -11 10 -13 16 -13
39 -3 27 12 30 37 4 37 -8 1 -24 6 -36 13 -26 14 -24 15 -47 -3z M2926 1184
c-3 -8 -1 -24 4 -35 9 -15 15 -17 30 -9 21 11 24 19 14 44 -8 21 -40 21 -48 0z
M3007 1183 c-27 -7 -19 -57 10 -61 17 -3 24 3 29 22 6 25 -1 47 -14 45 -4 -1
-15 -3 -25 -6z M4204 1165 c-8 -20 1 -42 23 -54 15 -7 19 -6 20 7 1 10 2 22 3
27 5 24 -1 35 -20 35 -11 0 -23 -7 -26 -15z M4273 1154 c-3 -8 -1 -20 4 -25
12 -12 48 14 39 29 -10 17 -36 15 -43 -4z M4417 1116 c-8 -19 15 -37 32 -26
17 10 7 40 -13 40 -7 0 -16 -6 -19 -14z M2405 1110 c-8 -13 3 -30 20 -30 20 0
30 21 14 31 -18 11 -26 11 -34 -1z M3947 1101 c4 -16 1 -21 -13 -20 -37 4 -54
-1 -54 -16 0 -15 10 -19 41 -16 9 1 19 -5 22 -14 7 -17 42 -20 52 -5 4 6 2 17
-5 25 -6 8 -10 24 -8 37 2 17 -2 24 -19 26 -17 3 -20 -1 -16 -17z M2680 1102
c0 -12 23 -32 37 -32 7 0 13 9 13 20 0 15 -7 20 -25 20 -14 0 -25 -4 -25 -8z
M2920 1095 c0 -9 7 -18 15 -21 23 -9 45 3 39 21 -8 20 -54 20 -54 0z M3030
1085 c-5 -14 -14 -25 -20 -25 -5 0 -10 -7 -10 -15 0 -9 9 -15 22 -15 21 0 21
0 2 -14 -15 -11 -16 -17 -7 -27 9 -9 19 -9 45 4 22 11 37 13 50 6 19 -10 38
-5 38 12 0 5 -9 9 -20 9 -11 0 -20 4 -20 9 0 5 -9 11 -20 14 -11 3 -20 10 -20
15 0 6 9 8 20 5 13 -4 20 0 20 9 0 42 -65 53 -80 13z M2105 1086 c-16 -12 -17
-16 -6 -30 15 -18 51 -22 51 -5 0 8 4 8 15 -1 17 -14 55 -4 55 15 0 18 -28 27
-48 16 -12 -7 -22 -5 -33 5 -13 12 -18 12 -34 0z M4020 1092 c0 -12 23 -32 37
-32 7 0 13 9 13 20 0 15 -7 20 -25 20 -14 0 -25 -4 -25 -8z M2262 1073 c2 -12
12 -18 28 -18 36 0 33 29 -3 33 -23 3 -28 0 -25 -15z M2612 1078 c5 -15 48
-18 48 -3 0 6 -11 11 -26 13 -18 3 -25 0 -22 -10z M4310 1067 c0 -20 9 -25 31
-20 28 8 24 33 -6 33 -14 0 -25 -6 -25 -13z M1677 1063 c-15 -15 -6 -33 17
-33 33 0 42 16 17 29 -23 13 -26 13 -34 4z M2850 1045 c0 -8 9 -15 20 -15 11
0 20 7 20 15 0 8 -9 15 -20 15 -11 0 -20 -7 -20 -15z M4099 1033 c-11 -13 -11
-17 -1 -20 26 -9 11 -19 -23 -15 -30 4 -35 1 -35 -17 0 -13 4 -19 10 -16 6 4
18 1 27 -6 13 -11 17 -10 28 4 6 9 15 14 18 11 3 -4 14 -3 24 1 10 5 23 7 29
6 17 -2 37 27 30 45 -4 12 -14 15 -34 11 -15 -3 -34 -1 -43 4 -12 6 -21 4 -30
-8z M4257 1043 c-12 -11 -7 -41 7 -46 17 -7 45 23 39 41 -5 13 -35 17 -46 5z
M4324 1019 c-7 -12 12 -29 33 -29 19 0 27 21 12 31 -19 12 -36 11 -45 -2z
M3863 1013 c-19 -7 -16 -31 5 -36 16 -4 16 -5 0 -6 -10 0 -27 -10 -38 -21 -11
-11 -33 -20 -50 -20 -32 0 -60 -34 -42 -52 12 -12 62 1 69 19 5 12 8 11 24 -3
24 -22 78 -26 73 -4 -3 8 1 5 7 -7 7 -13 21 -23 33 -23 18 0 19 -2 6 -11 -10
-7 -11 -12 -3 -15 6 -3 21 -14 34 -25 22 -19 22 -20 3 -33 -18 -14 -18 -15 10
-26 19 -7 33 -7 39 -1 6 6 17 7 27 1 26 -14 55 -5 55 16 0 14 -7 19 -25 19
-14 0 -30 -3 -35 -7 -6 -4 -17 -3 -25 3 -13 8 -13 11 3 20 9 5 17 18 17 27 0
10 5 23 11 29 6 6 9 16 5 21 -6 11 -54 4 -62 -9 -3 -5 -13 -9 -22 -9 -11 0
-13 3 -6 8 6 4 11 28 12 54 0 46 0 46 -30 42 -32 -4 -53 11 -53 36 0 15 -21
22 -42 13z m52 -73 c-4 -6 7 -10 26 -10 18 0 29 -3 25 -7 -9 -9 -47 -12 -70
-6 -19 5 -19 6 -1 19 22 17 28 18 20 4z M3940 1006 c0 -2 7 -7 16 -10 8 -3 12
-2 9 4 -6 10 -25 14 -25 6z M2707 993 c-13 -12 -7 -22 25 -37 36 -19 54 -20
63 -6 8 13 -14 42 -25 35 -5 -3 -11 -1 -15 5 -7 11 -38 14 -48 3z M2825 980
c-9 -15 4 -30 26 -30 12 0 19 7 19 20 0 21 -33 29 -45 10z M1641 946 c-10 -11
-7 -19 10 -35 16 -15 19 -21 8 -22 -8 -1 2 -5 21 -9 25 -6 39 -5 49 5 20 19 6
48 -19 40 -16 -5 -20 -2 -20 14 0 25 -31 29 -49 7z M3094 949 c-11 -18 13 -34
31 -19 8 7 15 16 15 21 0 13 -38 11 -46 -2z M4196 944 c-3 -9 -1 -23 5 -30 9
-11 7 -14 -11 -14 -29 0 -23 -34 8 -38 21 -3 27 6 23 36 -1 6 5 12 14 12 11 0
15 7 13 23 -4 27 -42 36 -52 11z M2411 941 c-8 -5 -11 -16 -8 -25 7 -17 42
-22 51 -7 3 4 17 6 31 3 18 -3 25 0 25 11 0 19 -29 30 -45 17 -9 -8 -15 -8
-20 0 -8 12 -16 13 -34 1z M4396 934 c-11 -29 -6 -42 18 -46 40 -8 44 40 4 55
-10 3 -19 0 -22 -9z M2538 927 c-21 -16 -8 -40 18 -35 22 4 33 48 12 48 -7 0
-21 -6 -30 -13z M2835 926 c-16 -12 -18 -17 -7 -28 15 -15 47 0 47 22 0 20
-18 22 -40 6z M4290 930 c0 -5 5 -10 11 -10 5 0 7 5 4 10 -3 6 -8 10 -11 10
-2 0 -4 -4 -4 -10z M2075 920 c-4 -7 -3 -16 3 -22 14 -14 57 -6 57 12 0 18
-50 26 -60 10z M3670 915 c0 -9 9 -15 25 -15 16 0 25 6 25 15 0 9 -9 15 -25
15 -16 0 -25 -6 -25 -15z M1993 913 c-18 -7 -16 -32 2 -39 23 -9 48 15 34 32
-12 15 -16 16 -36 7z M2194 909 c-3 -6 0 -15 7 -20 21 -12 54 -4 57 14 3 13
-4 17 -27 17 -16 0 -33 -5 -37 -11z M3008 913 c-17 -4 -24 -24 -13 -35 11 -11
85 14 85 28 0 14 -34 17 -72 7z M4103 902 c-22 -14 -11 -48 14 -46 31 1 37 9
23 33 -12 23 -18 25 -37 13z M4320 891 c0 -25 26 -34 45 -15 19 20 11 34 -21
34 -17 0 -24 -6 -24 -19z M4247 893 c-12 -12 -7 -31 10 -37 9 -4 23 0 32 9 14
14 14 17 1 25 -18 11 -34 13 -43 3z M2474 876 c-18 -14 -18 -15 -1 -21 24 -10
48 1 41 20 -8 19 -15 19 -40 1z M3097 883 c-16 -15 -5 -24 25 -21 41 4 50 28
11 28 -17 0 -33 -3 -36 -7z M1788 852 c-9 -15 -16 -36 -15 -47 1 -14 -5 -21
-20 -23 -26 -4 -31 -27 -7 -36 42 -16 95 0 63 19 -7 5 -5 13 6 25 11 12 13 20
6 25 -8 4 -8 12 -1 25 24 45 -6 57 -32 12z M2247 863 c-10 -3 -16 -10 -14 -16
5 -17 52 -15 52 2 0 16 -12 21 -38 14z M2861 846 c0 -11 -4 -16 -7 -13 -4 3
-15 2 -26 -4 -15 -8 -17 -13 -7 -25 14 -17 36 -19 41 -3 2 7 12 7 32 -1 28
-10 56 0 56 20 0 13 -32 17 -57 9 -18 -7 -23 -4 -26 14 -4 18 -5 19 -6 3z
M2752 838 c-13 -13 2 -38 24 -38 20 0 27 19 14 35 -15 18 -22 19 -38 3z M3016
841 c-4 -5 -3 -16 0 -25 4 -11 1 -16 -10 -16 -9 0 -16 -7 -16 -16 0 -10 6 -14
15 -10 8 3 15 1 15 -4 0 -15 66 -23 88 -11 14 7 43 8 93 1 55 -6 76 -6 81 3 5
8 -5 13 -34 15 -26 2 -53 13 -71 28 -21 17 -41 24 -72 24 -24 0 -47 5 -50 10
-8 12 -32 13 -39 1z M3787 833 c-14 -14 -6 -22 20 -20 34 3 44 27 11 27 -14 0
-28 -3 -31 -7z M2027 813 c-3 -4 -1 -18 4 -31 13 -33 54 -27 54 8 0 20 -6 26
-27 28 -14 2 -28 0 -31 -5z M3876 805 c-8 -8 -20 -13 -28 -10 -7 3 -20 0 -28
-5 -13 -9 -12 -12 4 -25 25 -19 31 -19 49 0 13 12 15 12 20 -5 7 -27 57 -28
57 -2 0 17 -38 62 -52 62 -4 0 -13 -7 -22 -15z M4067 809 c7 -7 15 -10 18 -7
3 3 -2 9 -12 12 -14 6 -15 5 -6 -5z M4267 787 c-10 -10 -22 -15 -26 -12 -5 2
-14 -1 -20 -9 -9 -10 -8 -15 4 -20 9 -3 14 -2 11 3 -9 13 33 21 60 11 31 -12
74 6 74 31 0 15 -8 18 -42 16 -26 -1 -50 -9 -61 -20z M2481 791 c-22 -14 -6
-38 28 -43 24 -3 31 -1 31 12 0 32 -31 49 -59 31z M2588 793 c-22 -5 -24 -29
-3 -37 22 -8 46 4 43 22 -3 17 -15 22 -40 15z M2109 779 c-10 -6 -11 -11 -2
-20 13 -13 45 -9 50 7 5 15 -31 24 -48 13z M2400 770 c0 -17 5 -21 28 -18 16
2 27 9 27 18 0 9 -11 16 -27 18 -23 3 -28 -1 -28 -18z M2226 771 c-8 -12 25
-31 54 -31 15 0 20 5 18 18 -4 19 -62 30 -72 13z M1310 1490 c-13 -8 -11 -13
11 -36 27 -26 49 -26 49 1 0 14 -26 45 -38 45 -4 0 -14 -5 -22 -10z M1407
1203 c-11 -10 -8 -43 3 -43 6 0 10 11 10 25 0 26 -2 29 -13 18z M1404 1086
c-7 -29 1 -46 22 -46 19 0 18 44 -1 60 -12 10 -15 7 -21 -14z M1046 1144 c-11
-11 -14 -20 -8 -26 15 -15 54 1 50 20 -4 23 -23 25 -42 6z M980 1070 c-12 -23
-6 -40 14 -40 18 0 49 37 41 49 -11 18 -44 12 -55 -9z M1173 1013 c-25 -9 -13
-39 22 -58 36 -19 36 -19 58 4 21 21 21 22 2 15 -18 -7 -18 -6 -7 9 8 9 11 20
8 26 -6 9 -61 12 -83 4z M1095 987 c-8 -4 -15 -15 -15 -23 0 -22 40 -14 56 11
12 19 11 21 -6 21 -11 0 -27 -4 -35 -9z M745 971 c-4 -9 2 -21 12 -29 15 -11
20 -10 31 5 7 9 11 22 9 27 -5 16 -46 14 -52 -3z M983 884 c-3 -8 1 -23 10
-31 13 -13 19 -14 31 -3 9 7 16 21 16 31 0 24 -48 26 -57 3z M1063 879 c-16
-16 1 -39 29 -39 14 0 19 6 16 22 -3 26 -28 34 -45 17z M1129 864 c8 -33 43
-41 49 -11 2 11 -3 17 -15 17 -11 0 -24 5 -31 12 -8 8 -9 4 -3 -18z M1263 827
c-22 -27 -21 -42 3 -43 28 -2 39 22 20 41 -11 11 -16 12 -23 2z M1070 810 c0
-17 5 -21 28 -18 16 2 27 9 27 18 0 9 -11 16 -27 18 -23 3 -28 -1 -28 -18z
M3557 2795 c-4 -8 -2 -17 4 -21 11 -6 39 13 39 27 0 15 -37 10 -43 -6z M3770
2781 c0 -15 15 -21 38 -14 32 8 27 23 -8 23 -16 0 -30 -4 -30 -9z M3236 2766
c3 -8 12 -12 20 -9 21 8 17 23 -6 23 -13 0 -18 -5 -14 -14z M4620 2450 c0 -12
9 -31 21 -43 l20 -22 -26 -21 c-21 -16 -23 -23 -13 -31 10 -8 23 -3 52 22 l39
33 -26 26 c-15 15 -27 33 -27 41 0 8 -9 15 -20 15 -13 0 -20 -7 -20 -20z
M4710 2424 c0 -9 7 -14 17 -12 25 5 28 28 4 28 -12 0 -21 -6 -21 -16z M4812
2426 c-48 -18 -55 -28 -41 -59 10 -21 19 -27 46 -27 l33 0 0 50 c0 28 -1 49
-2 49 -2 -1 -18 -7 -36 -13z m28 -37 c0 -5 -4 -9 -10 -9 -5 0 -10 7 -10 16 0
8 5 12 10 9 6 -3 10 -10 10 -16z M4240 2304 c0 -9 7 -14 17 -12 25 5 28 28 4
28 -12 0 -21 -6 -21 -16z M2459 2272 c-9 -9 -26 -26 -39 -36 l-24 -19 23 -19
c19 -15 21 -21 11 -33 -12 -14 -6 -35 9 -35 4 0 21 11 37 25 30 25 26 40 -11
47 -19 3 -19 4 2 23 26 25 40 65 21 64 -7 0 -20 -8 -29 -17z M780 2207 c0 -16
-9 -28 -25 -35 -34 -15 -31 -31 9 -70 41 -38 54 -39 84 -7 22 23 22 53 1 39
-18 -11 -59 6 -59 25 0 28 10 31 42 15 43 -22 58 -3 25 30 -34 34 -77 35 -77
3z M290 2170 c0 -13 9 -22 25 -26 32 -8 39 -2 30 25 -9 29 -55 29 -55 1z M617
2184 c-14 -14 -7 -35 11 -32 9 2 17 10 17 17 0 16 -18 25 -28 15z M1670 2131
c0 -11 38 -21 56 -14 26 10 14 23 -21 23 -19 0 -35 -4 -35 -9z M286 2117 c-16
-11 -15 -15 9 -37 25 -23 27 -24 53 -8 40 25 36 52 -9 54 -21 2 -44 -3 -53 -9z
M2473 2115 c-3 -9 -3 -18 0 -22 10 -10 37 6 37 22 0 20 -29 20 -37 0z M653
2088 c2 -7 12 -13 22 -13 10 0 20 6 23 13 2 7 -6 12 -23 12 -17 0 -25 -5 -22
-12z M2217 2087 c-10 -6 -19 -26 -20 -42 -2 -24 2 -30 17 -30 14 0 22 10 29
34 10 40 -2 57 -26 38z M2475 2066 c-11 -8 -16 -19 -12 -30 10 -27 42 -15 45
17 4 30 -5 34 -33 13z M1537 2063 c-15 -15 -5 -41 24 -62 24 -18 34 -20 42
-11 9 9 7 15 -8 26 -11 8 -21 19 -21 24 -1 6 -2 15 -3 20 -1 11 -24 13 -34 3z
M1974 2045 c-4 -10 -1 -21 7 -26 10 -6 10 -9 2 -9 -7 0 -13 -7 -13 -15 0 -17
18 -19 54 -5 32 12 36 45 6 37 -15 -4 -20 -1 -18 11 4 22 -30 28 -38 7z M2528
2029 c-10 -6 -18 -14 -18 -19 0 -14 37 -12 46 1 10 17 -9 29 -28 18z M1846
1974 c-21 -21 -20 -50 1 -59 12 -4 24 1 35 14 9 12 23 21 32 21 20 0 31 19 14
24 -47 15 -68 15 -82 0z M1431 1946 c-8 -10 -9 -16 -1 -21 13 -8 30 3 30 21 0
18 -14 18 -29 0z M233 1243 c-7 -2 -13 -11 -13 -20 0 -21 44 -13 48 10 3 17
-10 21 -35 10z M324 1237 c-8 -4 -14 -15 -14 -22 0 -18 31 -20 48 -3 9 9 12 8
12 -5 0 -16 2 -16 24 -1 34 22 23 44 -21 41 -19 -1 -41 -6 -49 -10z M4630
1171 c0 -25 30 -36 48 -17 19 18 7 36 -24 36 -17 0 -24 -6 -24 -19z M213 1165
c-3 -9 -3 -18 0 -22 10 -10 37 6 37 22 0 20 -29 20 -37 0z M132 1162 c-7 -5
-10 -16 -6 -26 9 -24 49 -17 49 9 0 21 -22 30 -43 17z M440 1136 c0 -11 9 -16
26 -16 31 0 28 23 -4 28 -15 2 -22 -2 -22 -12z M184 1118 c-16 -25 -11 -33 18
-35 25 -2 29 1 26 20 -3 25 -32 35 -44 15z M263 1117 c-25 -11 -29 -27 -11
-45 18 -18 25 -15 36 18 13 34 6 42 -25 27z M320 1120 c8 -5 20 -10 25 -10 6
0 3 5 -5 10 -8 5 -19 10 -25 10 -5 0 -3 -5 5 -10z M357 1109 c-10 -11 -23 -17
-30 -12 -7 4 -7 0 2 -10 7 -9 22 -17 32 -17 13 0 17 7 17 30 -1 17 -1 30 -2
29 -1 0 -9 -9 -19 -20z M145 1100 c3 -5 8 -10 11 -10 2 0 4 5 4 10 0 6 -5 10
-11 10 -5 0 -7 -4 -4 -10z M430 1065 c-10 -12 -9 -16 4 -21 16 -6 46 11 46 27
0 15 -37 10 -50 -6z M293 1052 c-27 -4 -29 -14 -8 -32 22 -19 59 -1 42 20 -7
8 -22 14 -34 12z M165 1040 c-4 -6 1 -7 12 -3 16 6 16 5 5 -10 -16 -19 -10
-33 16 -39 24 -7 27 31 4 48 -21 16 -29 17 -37 4z M55 959 c-4 -6 -5 -12 -2
-15 2 -3 7 2 10 11 7 17 1 20 -8 4z M227 958 c-9 -27 12 -48 46 -44 18 3 38 5
45 5 8 1 12 10 10 22 -2 18 -11 22 -50 25 -31 3 -48 0 -51 -8z M354 949 c-8
-13 15 -30 36 -27 8 2 21 -1 27 -5 16 -10 5 24 -11 35 -16 11 -44 9 -52 -3z
M50 894 c0 -14 4 -23 10 -19 13 8 13 45 0 45 -5 0 -10 -12 -10 -26z M262 867
c-5 -7 -14 -26 -19 -42 -10 -29 -9 -30 16 -29 42 1 63 63 26 78 -7 2 -18 -1
-23 -7z M369 860 c-3 -20 -4 -25 -11 -36 -7 -11 -5 -29 7 -56 8 -21 55 -24 55
-5 0 22 -37 60 -43 45 -2 -7 -8 -10 -12 -6 -12 12 6 30 26 25 15 -4 19 0 19
19 0 17 -6 24 -20 24 -11 0 -21 -4 -21 -10z M320 830 c0 -5 5 -10 11 -10 5 0
7 5 4 10 -3 6 -8 10 -11 10 -2 0 -4 -4 -4 -10z M315 800 c3 -6 0 -10 -8 -10
-8 0 -21 -8 -28 -17 -10 -11 -10 -14 -1 -9 6 4 12 2 12 -3 0 -13 47 -15 54 -2
9 13 -3 39 -20 45 -9 3 -12 1 -9 -4z M445 774 c-14 -10 -16 -17 -8 -25 15 -15
43 -4 43 15 0 22 -13 26 -35 10z M4833 782 c-13 -8 -6 -52 8 -52 5 0 9 14 9
30 0 33 0 33 -17 22z M4780 771 c0 -5 7 -12 16 -15 14 -5 15 -4 4 9 -14 17
-20 19 -20 6z M848 600 c-43 -12 -51 -20 -34 -33 13 -10 16 -39 17 -166 1
-111 -2 -156 -11 -161 -7 -4 -10 -14 -8 -21 3 -10 40 -13 157 -15 142 -1 152
0 148 17 -3 10 5 27 19 40 27 25 31 49 9 49 -20 0 -65 -22 -65 -32 0 -4 -31
-8 -70 -8 l-70 0 0 70 c0 53 3 70 14 70 8 0 16 -7 20 -15 8 -21 46 -19 47 3 3
47 1 83 -4 88 -7 8 -47 -15 -47 -26 0 -6 -7 -10 -15 -10 -12 0 -15 13 -15 55
l0 55 65 0 c62 0 65 -1 55 -19 -13 -25 1 -34 34 -21 20 7 26 16 26 40 0 35
-22 49 -46 29 -10 -8 -18 -9 -22 -2 -9 13 -167 23 -204 13z M97 592 c-55 -4
-61 -25 -9 -30 18 -2 32 -6 32 -9 0 -2 -16 -41 -35 -85 -30 -69 -35 -90 -33
-142 l3 -60 21 64 22 65 62 -2 c34 -1 64 -4 67 -7 10 -10 33 -130 28 -147 -7
-22 7 -31 56 -35 31 -3 41 0 49 17 14 24 6 49 -14 49 -15 0 -20 18 -32 105 -4
28 -13 63 -21 79 -13 26 -14 85 -2 125 3 11 -11 14 -71 15 -41 1 -97 0 -123
-2z m107 -59 c3 -16 8 -45 12 -65 l6 -36 -49 1 c-54 3 -55 6 -23 82 22 51 46
58 54 18z M565 592 c-81 -14 -146 -60 -170 -120 -17 -40 -20 -128 -4 -137 5
-4 8 -12 6 -18 -5 -17 52 -76 95 -98 41 -21 138 -27 178 -11 32 13 70 49 70
66 0 18 -29 29 -44 17 -6 -5 -29 -14 -52 -21 -35 -11 -45 -9 -86 10 -108 50
-136 189 -50 244 46 29 87 37 123 24 24 -8 27 -12 17 -28 -14 -22 4 -50 32
-50 40 0 68 71 41 104 -6 7 -28 14 -49 14 -20 1 -48 3 -62 5 -14 1 -34 1 -45
-1z M1658 583 c-7 -9 -3 -15 16 -23 l27 -10 -2 -161 c-1 -151 -2 -162 -20
-166 -11 -3 -18 -11 -16 -17 2 -7 31 -11 73 -11 63 0 69 2 66 20 -1 11 -5 55
-9 98 -5 62 -3 77 8 78 81 5 146 27 173 60 38 44 32 105 -11 125 -10 4 -80 10
-156 13 -104 5 -141 3 -149 -6z m250 -35 c16 -16 15 -83 -1 -96 -7 -6 -35 -12
-62 -14 l-50 -3 -3 57 -3 57 43 4 c24 2 48 4 54 5 5 1 15 -3 22 -10z M2155
590 c-60 -3 -116 -9 -123 -13 -16 -11 -6 -27 18 -27 17 0 18 -11 20 -127 3
-182 2 -194 -18 -209 -32 -24 -29 -24 177 -21 86 2 94 4 102 23 4 12 12 25 18
29 6 3 11 10 11 16 0 16 -33 9 -56 -12 -18 -17 -35 -21 -75 -20 -30 0 -56 6
-61 13 -4 7 -7 42 -6 78 3 62 4 65 28 66 14 0 32 -8 41 -19 27 -33 47 -16 47
40 0 26 -2 51 -4 55 -8 12 -44 -11 -44 -27 0 -10 -11 -15 -34 -15 l-34 0 1 65
1 65 51 0 c40 0 53 -4 63 -20 18 -30 54 -9 50 28 -4 34 -29 39 -173 32z M2448
582 c-41 -3 -50 -17 -18 -27 19 -6 20 -14 19 -145 0 -77 1 -143 4 -147 9 -15
-12 -53 -29 -53 -8 0 -14 -6 -11 -12 3 -9 22 -12 63 -9 69 4 83 10 61 26 -15
10 -16 25 -10 105 l6 92 33 -54 c19 -29 47 -69 64 -88 17 -19 41 -47 54 -61
23 -27 71 -45 80 -31 3 5 6 74 7 153 2 179 6 210 30 216 21 6 25 29 7 35 -7 3
-41 3 -76 0 l-62 -4 25 -24 c20 -19 25 -33 26 -76 0 -50 4 -90 10 -113 1 -5
-1 -17 -4 -25 -3 -8 -7 -23 -9 -34 -2 -14 -12 -5 -40 35 -21 30 -48 65 -60 79
-42 47 -71 93 -77 124 -7 33 -31 43 -93 38z M2870 582 c-16 -6 -30 -39 -24
-56 8 -21 40 -21 48 0 5 13 15 15 47 11 22 -3 43 -7 45 -10 3 -3 5 -71 5 -152
-1 -121 -4 -151 -17 -166 -20 -23 -10 -28 59 -27 59 1 76 9 60 31 -5 7 -11 83
-12 170 l-3 157 50 0 c40 0 52 -4 64 -22 17 -25 48 -19 48 10 0 46 -15 50
-193 54 -92 2 -172 1 -177 0z M3331 581 c-34 -9 -39 -31 -7 -31 l26 0 -20 -50
c-11 -27 -24 -57 -29 -67 -6 -10 -27 -63 -49 -118 -33 -85 -42 -100 -63 -103
-31 -5 -48 -20 -32 -30 18 -11 126 1 130 15 2 6 -5 13 -16 15 -19 3 -20 5 -8
28 7 14 23 50 35 80 l22 55 76 -1 c41 0 79 -5 83 -10 5 -5 19 -42 31 -82 22
-70 22 -73 5 -86 -14 -10 -15 -15 -5 -21 7 -4 16 -2 21 6 6 10 9 11 9 2 0 -9
16 -13 44 -13 47 0 64 12 48 33 -5 7 -18 44 -30 82 -11 39 -34 114 -51 168
-16 54 -27 105 -24 113 4 11 -7 14 -53 15 -33 1 -72 2 -89 4 -16 1 -41 0 -54
-4z m101 -53 c16 -25 40 -110 33 -117 -9 -9 -101 -11 -113 -3 -10 7 -6 23 17
75 17 37 34 67 39 67 6 0 16 -10 24 -22z M3795 580 c-54 -12 -108 -46 -144
-92 -45 -58 -23 -206 41 -270 21 -21 109 -47 161 -48 37 0 87 26 87 46 0 12
-5 14 -17 9 -69 -30 -155 -4 -178 52 -8 19 -16 61 -17 93 -2 52 2 65 28 102
32 47 84 79 114 71 15 -4 18 -13 17 -46 -2 -36 1 -42 20 -45 17 -3 26 6 41 40
21 48 18 80 -7 76 -9 -1 -29 2 -46 6 -44 12 -66 14 -100 6z M4338 582 c-51 -3
-58 -6 -58 -24 0 -17 4 -19 25 -14 23 6 25 4 21 -16 -3 -13 -7 -88 -10 -167
-3 -79 -10 -149 -16 -156 -6 -7 -8 -20 -4 -28 5 -13 17 -15 67 -11 34 3 88 6
119 8 66 3 84 15 98 64 13 49 -4 67 -31 33 -10 -13 -19 -29 -19 -37 0 -10 -15
-13 -60 -11 -33 1 -60 4 -61 7 0 3 -2 40 -5 83 -6 73 -5 77 15 77 11 0 25 -9
31 -21 6 -11 19 -19 28 -17 23 4 29 118 7 118 -8 0 -20 -9 -27 -19 -17 -24
-64 -33 -60 -11 2 8 3 38 3 67 l0 53 55 0 c47 0 54 -3 54 -19 0 -24 13 -33 34
-25 19 7 21 50 4 61 -14 8 -112 10 -210 5z M4665 565 c-58 -31 -65 -39 -65
-81 0 -44 47 -86 97 -86 64 0 82 -7 99 -40 33 -65 8 -126 -51 -126 -34 0 -45
12 -45 49 0 53 -55 62 -65 10 -3 -14 -10 -39 -16 -56 -25 -70 -25 -67 17 -59
46 10 66 9 119 0 33 -6 45 -4 68 14 26 21 27 24 27 130 0 67 -4 111 -11 115
-6 4 -32 9 -57 12 -63 6 -95 27 -86 56 8 29 24 48 34 42 4 -3 13 2 20 10 17
20 32 19 26 -2 -3 -13 7 -26 34 -45 l40 -28 0 44 c0 41 -2 44 -32 50 -88 19
-102 18 -153 -9z M3997 573 c-2 -4 -1 -31 2 -60 10 -72 3 -290 -9 -313 -14
-26 6 -30 144 -27 l109 2 23 40 c13 22 23 46 24 53 0 21 -42 4 -70 -29 -22
-25 -32 -29 -77 -29 l-52 0 0 98 c0 54 -1 103 -2 108 -1 5 -1 37 0 72 1 60 2
62 27 62 16 0 24 5 22 13 -5 14 -133 23 -141 10z M1399 435 c-15 -8 -29 -23
-31 -33 -3 -10 18 -65 47 -125 29 -58 50 -108 47 -111 -3 -3 -7 -17 -8 -31 -2
-21 1 -25 26 -25 27 0 29 3 35 53 5 38 2 64 -8 90 l-16 36 25 -11 c32 -15 43
-2 37 40 -7 40 -43 63 -68 42 -11 -9 -12 -16 -5 -25 10 -11 4 -25 -11 -25 -10
0 -37 44 -45 75 -6 26 -5 27 20 21 19 -5 28 -2 33 10 12 32 -34 43 -78 19z
M1285 316 c-16 -8 -36 -23 -43 -35 -11 -19 -9 -25 12 -46 25 -25 58 -31 103
-19 43 12 41 83 -3 103 -30 14 -32 13 -69 -3z m45 -52 c0 -17 -22 -14 -28 4
-2 7 3 12 12 12 9 0 16 -7 16 -16z M50 230 c0 -31 6 -35 34 -24 22 9 20 19 -9
38 -25 16 -25 16 -25 -14z"/>
</g>
</svg>
