<?xml version="1.0" standalone="no"?>
<!DOCTYPE svg PUBLIC "-//W3C//DTD SVG 20010904//EN"
 "http://www.w3.org/TR/2001/REC-SVG-20010904/DTD/svg10.dtd">
<svg version="1.0" xmlns="http://www.w3.org/2000/svg"
 width="500.000000pt" height="878.000000pt" viewBox="0 0 500.000000 878.000000"
 preserveAspectRatio="xMidYMid meet">
<metadata>
Created by potrace 1.16, written by Peter Selinger 2001-2019
</metadata>
<g transform="translate(0.000000,878.000000) scale(0.100000,-0.100000)"
fill="#000000" stroke="none">
<path d="M2105 8622 c-70 -4 -81 -8 -64 -28 10 -13 30 -15 101 -12 64 2 91 -1
97 -10 4 -7 7 -56 6 -110 l-1 -97 -74 0 c-63 0 -75 -3 -78 -17 -2 -10 2 -18
10 -19 7 0 153 -2 325 -5 309 -4 344 -1 315 28 -6 6 -40 13 -77 15 -42 4 -65
10 -62 17 2 6 10 29 17 51 7 22 22 63 32 92 l20 52 61 3 c50 2 62 7 65 21 3
15 -7 17 -105 17 -59 0 -205 1 -323 3 -118 1 -237 1 -265 -1z m340 -96 c14
-30 25 -58 25 -63 0 -5 9 -26 21 -47 12 -23 17 -42 11 -48 -5 -5 -44 -8 -87
-6 l-79 3 -4 108 -4 107 46 0 c46 0 46 0 71 -54z m163 42 c-23 -83 -42 -138
-49 -138 -4 0 -10 15 -14 33 -4 17 -18 49 -31 69 -13 21 -24 40 -24 43 0 3 27
5 61 5 43 0 60 -3 57 -12z M2155 6404 c-40 -11 -108 -35 -129 -46 -93 -47
-191 -160 -234 -268 -68 -171 -2 -403 146 -515 l43 -34 -38 -6 c-48 -8 -121
-34 -128 -46 -4 -5 1 -21 9 -36 15 -29 36 -109 36 -138 0 -11 -5 -15 -14 -12
-22 9 -28 -5 -10 -24 11 -12 14 -24 8 -36 -4 -10 -9 -44 -10 -75 -2 -45 2 -64
19 -90 12 -18 28 -46 35 -62 11 -24 15 -26 29 -15 14 12 16 12 11 -2 -9 -23
19 -59 45 -59 13 0 26 -9 32 -23 15 -31 7 -59 -13 -53 -71 20 -79 18 -116 -21
-20 -21 -38 -45 -41 -54 -4 -12 -17 -15 -65 -12 -78 4 -131 -21 -190 -88 -25
-29 -56 -56 -70 -61 -14 -5 -38 -25 -54 -44 -25 -31 -29 -44 -32 -109 -2 -41
1 -77 6 -80 19 -12 10 -36 -20 -53 -27 -16 -29 -21 -24 -57 9 -60 35 -169 44
-180 9 -10 -4 -138 -21 -213 -17 -78 -11 -173 16 -250 24 -69 24 -74 9 -104
-15 -29 -15 -33 6 -70 25 -45 20 -58 -41 -88 -43 -22 -117 -103 -125 -137 -4
-13 -3 -45 2 -71 4 -26 7 -60 6 -75 -3 -34 14 -67 32 -67 14 0 24 -52 18 -100
-2 -21 -11 -28 -47 -39 -25 -7 -45 -18 -45 -25 0 -6 -12 -34 -27 -61 -15 -28
-30 -70 -35 -95 -5 -25 -11 -57 -15 -72 -3 -18 2 -39 17 -62 14 -24 19 -43 15
-57 -7 -20 -9 -19 -25 15 -9 20 -28 43 -41 50 -33 17 -114 7 -115 -14 -1 -8
-2 -34 -2 -57 -2 -42 -3 -43 -36 -43 -45 0 -54 -26 -55 -162 0 -106 7 -129 29
-88 10 20 17 158 9 190 -3 9 4 16 18 18 18 3 22 -3 28 -38 9 -53 29 -47 33 11
4 74 10 88 32 82 16 -4 20 0 20 17 0 17 -5 21 -19 17 -13 -3 -21 1 -24 15 -6
22 10 31 45 26 22 -3 23 -7 26 -95 2 -65 7 -95 17 -103 9 -7 15 -30 15 -52 0
-35 2 -40 20 -35 18 5 20 0 20 -59 l0 -65 -34 26 c-27 20 -36 35 -38 63 -3 40
-30 53 -36 17 -2 -11 -27 -44 -55 -73 l-51 -52 -14 25 c-8 16 -21 25 -37 25
-24 0 -42 30 -30 50 11 18 -6 100 -21 100 -9 0 -14 -11 -14 -30 0 -20 -5 -30
-15 -30 -8 0 -18 0 -22 0 -12 -1 -20 68 -28 225 -4 77 -11 150 -16 162 -9 24
-64 57 -79 48 -6 -3 -10 1 -10 11 0 14 -7 15 -42 10 -57 -9 -70 -22 -62 -59 3
-17 6 -71 6 -121 0 -50 5 -96 10 -103 7 -8 5 -17 -5 -27 -10 -11 -13 -28 -10
-61 5 -40 4 -45 -15 -45 -11 0 -27 -2 -34 -5 -11 -4 -17 16 -27 85 -12 80 -17
93 -41 110 -30 21 -104 27 -115 10 -4 -6 -6 -76 -6 -155 1 -80 -2 -145 -7
-145 -25 0 -44 41 -45 99 -2 86 -37 82 -37 -4 0 -43 -17 -88 -30 -80 -6 4 -10
12 -9 18 4 32 -2 37 -51 37 l-50 0 -1 73 c-1 39 -3 110 -5 157 -6 135 -4 188
6 192 10 3 50 -27 50 -39 0 -21 121 -36 127 -15 3 8 -7 12 -32 12 -28 0 -38 5
-42 20 -3 10 -15 22 -26 26 -12 4 -30 17 -40 30 -10 13 -25 24 -32 24 -7 0
-15 10 -18 23 -3 19 -6 18 -20 -15 -9 -21 -17 -53 -17 -71 0 -19 -5 -49 -12
-67 -10 -30 -9 -35 10 -48 26 -17 29 -34 5 -30 -16 3 -18 -9 -20 -116 -1 -92
2 -122 13 -133 19 -20 19 -83 -1 -83 -8 0 -15 -9 -15 -21 0 -11 4 -18 9 -15 5
4 11 0 14 -6 5 -16 55 27 53 45 -1 14 6 17 33 17 12 0 21 -10 26 -27 7 -29 5
-31 -71 -91 -29 -22 -29 -22 -32 -2 -2 11 -10 20 -18 20 -11 0 -14 -15 -14
-60 0 -64 4 -69 31 -44 16 14 18 12 24 -25 8 -50 3 -60 -30 -53 -18 3 -25 0
-25 -11 0 -24 53 -31 91 -11 29 15 31 18 16 29 -24 17 -21 25 8 25 31 0 33 17
2 23 -18 4 -17 4 6 6 24 1 27 4 22 21 -6 19 -2 20 55 20 58 0 60 -1 55 -23 -4
-15 -1 -28 10 -37 19 -16 24 -11 27 23 1 15 3 27 4 27 1 0 14 -6 29 -14 l27
-14 -23 -7 c-22 -7 -22 -8 -4 -21 17 -12 17 -14 2 -14 -9 0 -17 -4 -17 -10 0
-5 7 -10 16 -10 13 0 14 -3 5 -14 -9 -10 -8 -15 4 -20 20 -7 19 -23 -2 -29
-17 -4 -17 -5 0 -6 19 -1 21 -9 7 -31 -5 -9 -5 -19 1 -26 7 -8 6 -14 -1 -19
-15 -9 -12 -25 4 -25 15 0 28 -24 19 -34 -4 -3 -23 -6 -42 -6 -20 0 -45 -6
-56 -14 -11 -7 -24 -14 -30 -15 -52 -9 -64 -15 -148 -81 -18 -14 -44 -32 -59
-39 -37 -19 -39 -61 -4 -61 14 0 27 -4 30 -9 3 -5 23 0 43 10 21 10 43 19 50
19 8 0 26 7 41 17 l27 16 -27 -27 c-16 -15 -28 -30 -28 -35 0 -4 -14 -8 -32
-9 -17 0 -34 -6 -38 -13 -5 -7 -24 -10 -49 -7 -34 3 -41 1 -41 -14 0 -10 8
-18 18 -19 9 0 175 -2 367 -4 326 -4 524 -11 533 -19 2 -2 -11 -14 -28 -26
-35 -25 -66 -26 -643 -14 -218 4 -247 3 -247 -11 0 -12 12 -15 53 -15 28 0
138 -2 242 -5 105 -3 263 -7 353 -9 89 -2 163 -6 164 -8 1 -1 -10 -21 -23 -43
-49 -79 -63 -119 -64 -187 -1 -48 2 -69 12 -72 7 -3 13 -13 13 -22 0 -37 113
-154 142 -146 6 2 14 -1 17 -5 11 -15 76 -46 126 -59 97 -26 472 4 553 45 9 5
44 16 77 26 116 34 130 39 146 52 8 7 22 13 30 13 21 1 161 80 208 119 22 18
41 40 41 47 0 8 5 14 11 14 23 0 84 102 75 126 -9 23 5 44 29 44 21 0 25 -6
30 -48 7 -55 26 -98 61 -135 13 -14 24 -31 24 -37 0 -12 78 -70 94 -70 6 0 25
-7 41 -16 123 -65 368 -127 545 -139 190 -13 304 -8 372 15 108 37 151 62 202
119 17 19 38 42 48 50 17 17 37 105 34 152 -1 16 1 30 5 31 4 2 3 25 -4 51 -9
40 -8 50 4 58 13 9 165 8 962 -6 187 -3 227 -2 227 10 0 21 -46 24 -425 30
-192 3 -464 8 -602 10 l-253 5 -41 30 -42 30 64 1 c78 1 240 -1 454 -6 128 -2
782 -7 833 -5 17 0 15 27 -4 34 -9 3 -51 6 -95 6 -85 0 -90 4 -64 50 14 24 16
23 19 -10 2 -23 36 -25 36 -3 0 16 6 18 35 15 19 -2 45 -2 58 2 23 5 23 9 26
130 2 118 1 125 -19 136 -24 13 -83 -2 -112 -28 -13 -11 -28 -13 -55 -7 -21 4
-48 6 -61 6 -35 -1 -72 -30 -72 -57 0 -12 -4 -26 -10 -29 -6 -3 -10 -19 -10
-35 0 -16 -5 -32 -10 -35 -25 -15 39 -77 83 -80 17 -1 22 -8 22 -28 l1 -27
-79 0 -79 0 6 32 c3 18 5 92 4 163 -1 72 -1 200 -2 285 l0 154 52 1 c45 1 51
-2 47 -16 -5 -15 0 -16 35 -12 25 4 40 2 40 -5 0 -6 -12 -10 -27 -9 -19 1 -28
-3 -28 -13 0 -11 9 -14 33 -12 27 2 32 -1 32 -19 0 -12 5 -19 12 -17 7 3 19
-2 27 -9 10 -11 32 -13 85 -9 39 3 74 5 79 5 14 1 7 41 -7 41 -8 0 -18 5 -22
11 -4 8 1 9 16 4 21 -7 22 -5 16 31 -13 75 -14 134 -4 140 6 4 5 9 -3 15 -11
6 -11 11 -1 21 13 13 17 32 4 24 -9 -6 -7 48 3 64 3 6 3 10 -2 9 -18 -4 -41
13 -36 27 4 10 0 12 -13 8 -16 -6 -15 -2 5 19 28 31 36 34 27 11 -5 -14 -4
-15 9 -4 26 22 18 49 -21 65 -20 8 -43 15 -51 15 -8 0 -26 9 -40 20 -34 26
-55 25 -83 -5 -29 -31 -102 -59 -133 -51 -29 7 -33 19 -36 115 -3 82 -17 113
-64 137 -21 11 -40 14 -66 8 -20 -4 -42 -6 -48 -5 -19 3 -51 -17 -64 -40 -8
-15 -8 -28 2 -50 18 -44 43 -34 47 19 l3 42 65 0 c61 0 65 -1 75 -27 6 -16 13
-75 15 -133 9 -215 13 -280 19 -290 7 -12 -10 -46 -39 -79 -15 -17 -17 -25 -8
-28 6 -3 12 -18 12 -34 0 -16 3 -29 8 -29 8 0 7 -50 -3 -121 -7 -43 -9 -45
-36 -41 -16 2 -29 0 -29 -6 0 -26 14 -42 36 -42 17 0 22 -4 18 -15 -4 -10 0
-15 12 -15 12 0 15 -3 8 -8 -9 -6 -22 -174 -25 -324 0 -16 -15 -18 -174 -18
-148 0 -174 2 -179 16 -10 27 -7 34 22 46 l27 12 -25 3 c-50 8 -57 13 -36 28
15 11 16 17 7 28 -9 11 -8 17 3 26 12 10 18 6 31 -17 17 -28 83 -56 110 -45
17 6 27 103 14 120 -19 22 -87 16 -113 -11 l-24 -23 -6 51 c-3 28 -4 105 -2
171 1 66 -2 126 -7 133 -19 25 9 34 87 30 50 -2 76 0 76 7 0 17 -21 34 -35 29
-9 -4 -13 11 -14 53 0 31 -4 66 -7 76 -4 12 -1 18 8 16 18 -3 48 11 48 23 0 5
-7 17 -16 26 -15 15 -15 16 2 23 22 7 37 2 29 -11 -3 -5 -1 -11 4 -15 6 -3 8
-11 6 -18 -13 -40 -12 -122 2 -153 15 -31 73 -66 73 -43 0 5 -4 9 -9 9 -13 0
-20 75 -26 255 -5 181 0 225 26 225 12 0 19 7 19 20 0 11 5 20 10 20 6 0 10
-9 10 -20 0 -27 37 -27 45 0 3 11 0 32 -7 47 -11 23 -19 27 -43 25 -17 -2 -39
-13 -50 -26 -11 -13 -28 -26 -37 -29 -9 -3 -21 -22 -26 -41 -8 -29 -61 -102
-62 -86 0 3 -3 39 -6 80 -5 69 -8 248 -4 260 6 15 -4 57 -15 70 -7 8 -15 29
-18 45 -11 59 -27 85 -61 101 -19 9 -42 14 -51 10 -17 -6 -17 -8 0 -26 10 -11
26 -22 36 -25 19 -6 27 -35 10 -35 -5 0 -12 -10 -16 -22 -7 -20 -9 -19 -12 12
-4 33 -18 60 -32 60 -3 0 -22 -10 -41 -22 -19 -12 -45 -21 -57 -19 -25 3 -31
-17 -12 -36 8 -8 8 -13 0 -17 -14 -9 -14 -46 0 -46 8 0 8 -4 0 -13 -7 -9 -10
-86 -10 -237 1 -223 -1 -239 -34 -240 -13 0 -19 37 -32 207 -1 22 -6 47 -11
55 -5 7 -9 20 -9 28 0 23 -32 24 -40 1 -8 -27 -35 -27 -35 -1 0 11 6 20 13 20
20 0 55 42 40 47 -7 2 -9 11 -6 19 4 12 -2 13 -37 8 -41 -7 -42 -6 -35 16 6
19 4 22 -10 17 -9 -4 -23 -7 -31 -7 -7 0 -20 -13 -29 -29 -8 -16 -24 -32 -35
-36 -24 -8 -48 -52 -43 -77 5 -21 8 -22 34 -7 19 9 19 9 10 -9 -6 -11 -23 -30
-37 -41 -24 -19 -26 -24 -16 -46 6 -14 17 -22 24 -20 20 8 37 -41 44 -126 l6
-75 -35 -11 c-38 -11 -41 -8 -53 52 -9 43 -13 48 -29 35 -8 -7 -15 -23 -15
-36 0 -13 -4 -24 -9 -24 -14 0 -8 247 7 262 6 6 12 22 12 35 0 13 7 26 15 29
10 4 15 20 15 49 0 35 -5 46 -27 60 -15 10 -54 47 -88 82 -43 46 -70 67 -95
72 -39 8 -47 26 -49 109 -1 59 -18 140 -34 160 -15 19 -16 52 -2 52 27 0 56
48 61 100 3 29 7 57 10 61 3 5 30 16 60 25 l54 15 1 47 c0 26 0 99 -1 162 l-1
115 36 49 c19 28 40 67 45 87 16 60 27 229 18 294 -8 64 -54 222 -70 242 -5 7
-7 17 -4 22 4 5 -1 14 -11 20 -17 9 -17 11 2 30 15 18 17 27 9 49 -6 15 -16
26 -22 25 -6 -2 -9 3 -6 10 8 22 -84 189 -127 230 -36 35 -44 38 -86 35 -41
-3 -49 0 -59 20 -17 35 -119 85 -156 78 -23 -4 -40 1 -74 24 -41 29 -45 30
-77 16 -24 -10 -48 -11 -84 -6 -28 5 -76 8 -107 7 -54 -2 -73 7 -41 19 8 4 15
14 15 24 0 11 9 20 22 22 29 4 35 28 9 35 -30 8 -26 26 4 21 14 -3 28 -2 30 3
9 13 -14 59 -30 59 -12 0 -13 9 -8 45 3 27 1 50 -6 58 -6 8 -8 17 -4 20 3 4
-6 7 -21 7 -23 0 -27 3 -21 18 3 9 15 44 26 76 11 33 27 69 35 80 8 11 14 31
14 43 0 24 -10 28 -83 37 -21 2 -41 7 -45 10 -3 4 17 30 45 59 48 49 88 126
108 210 4 15 11 30 16 33 5 3 7 9 4 14 -3 4 -7 39 -9 77 -11 186 -133 350
-316 424 -41 16 -81 22 -155 25 -55 1 -109 1 -120 -2z m170 -65 c90 -17 174
-59 233 -118 194 -194 146 -519 -95 -643 -72 -37 -85 -39 -233 -42 -90 -1 -99
1 -163 34 -86 44 -152 108 -188 184 -44 92 -55 155 -41 237 24 142 103 249
229 311 53 26 86 34 189 47 6 0 37 -4 69 -10z m335 -826 c0 -5 -16 -53 -35
-107 -19 -55 -35 -101 -35 -103 0 -3 -14 -1 -32 2 -57 13 -389 7 -507 -9 -154
-21 -152 -22 -150 12 1 15 -6 58 -15 96 -9 37 -15 70 -12 73 4 5 120 33 122
30 1 -1 4 -18 6 -37 4 -47 28 -71 74 -75 63 -5 85 9 82 50 -1 19 2 39 7 44 12
11 198 21 213 12 6 -3 12 -22 14 -41 l3 -35 63 2 c35 0 66 4 70 7 3 4 5 25 3
46 l-3 40 66 0 c36 0 66 -3 66 -7z m-160 -41 c0 -17 -52 -12 -58 6 -5 16 40
33 50 18 4 -6 8 -17 8 -24z m-425 18 c3 -5 15 -10 26 -10 14 0 19 -7 19 -25 0
-22 -4 -25 -34 -25 -35 0 -46 13 -46 51 0 20 24 26 35 9z m208 -232 l6 -22 26
24 c21 19 25 21 25 7 0 -21 29 -22 37 -2 5 14 8 14 25 -2 10 -9 37 -18 60 -19
22 -1 45 -7 51 -13 6 -6 7 -11 2 -11 -6 0 -16 -4 -24 -9 -12 -8 -12 -12 -2
-25 8 -10 9 -16 3 -16 -6 0 -14 5 -18 11 -8 13 -124 6 -151 -9 -11 -7 -18 -24
-19 -52 -2 -34 2 -43 19 -49 28 -11 37 -5 37 21 0 20 1 21 20 3 16 -14 23 -15
34 -6 8 7 19 10 24 7 6 -3 15 1 22 8 9 12 7 17 -9 26 -12 6 -21 15 -21 21 0
12 52 -14 69 -35 7 -9 17 -13 22 -10 5 3 10 -3 10 -13 1 -10 3 -28 4 -41 1
-13 -6 -40 -17 -60 -19 -38 -26 -71 -27 -129 -1 -28 -9 -38 -62 -73 -63 -42
-83 -48 -95 -29 -4 8 -30 10 -75 7 -37 -3 -72 -1 -77 4 -5 5 -24 17 -43 26
-23 12 -44 35 -64 73 -16 31 -35 63 -42 70 -8 10 -9 34 -3 80 9 80 24 109 53
109 l22 0 -24 -19 c-29 -22 -21 -47 11 -30 26 14 47 -3 29 -24 -9 -12 -6 -17
18 -25 23 -8 32 -7 42 4 9 11 7 14 -15 14 -31 0 -32 3 -9 30 22 26 39 25 46
-1 7 -25 40 -22 45 4 12 62 -29 89 -125 82 -35 -3 -63 -1 -63 3 0 4 7 18 16
31 11 16 23 21 38 17 13 -3 43 8 81 29 72 40 81 41 88 13z m197 -512 c0 -11
-19 -15 -25 -6 -3 5 1 10 9 10 9 0 16 -2 16 -4z m-102 -35 c23 -12 42 -23 42
-25 0 -22 -26 -65 -41 -69 -28 -7 -79 12 -79 29 0 23 -12 17 -54 -29 -33 -35
-55 -48 -112 -66 -56 -17 -89 -35 -150 -85 l-78 -64 -2 -63 c-2 -85 -2 -85
-14 -73 -5 5 -15 42 -22 83 l-13 74 67 61 c67 62 94 106 64 106 -9 0 -22 -13
-30 -29 -13 -24 -54 -56 -43 -33 28 59 47 82 88 110 27 17 55 32 63 32 7 0 19
6 25 13 6 8 30 20 53 27 24 7 47 17 52 21 18 15 140 2 184 -20z m117 -31 c3
-5 1 -29 -6 -52 -11 -43 -10 -55 4 -50 4 1 7 -5 7 -14 0 -16 -9 -15 -67 7 -26
9 -31 34 -9 42 8 3 19 22 26 41 11 35 32 47 45 26z m268 -15 c26 -3 47 -11 47
-18 0 -9 2 -9 8 0 6 10 15 10 40 1 18 -7 32 -15 32 -19 0 -4 9 -5 20 -2 16 4
20 0 20 -21 0 -29 20 -35 43 -11 13 12 17 12 32 -5 12 -14 34 -20 74 -22 50
-3 56 -6 59 -26 2 -15 9 -22 20 -21 27 4 59 -10 66 -29 3 -9 21 -37 39 -62 40
-55 51 -80 34 -80 -7 0 -18 5 -24 11 -21 21 -34 -1 -28 -45 5 -34 3 -46 -15
-66 l-21 -25 6 33 c5 25 3 32 -9 32 -9 0 -16 7 -16 15 0 17 -25 20 -35 5 -10
-16 -25 -12 -19 5 9 23 -13 18 -31 -7 -12 -16 -19 -19 -22 -10 -3 9 -13 6 -35
-9 l-30 -22 16 31 c20 39 20 52 1 52 -8 0 -15 5 -15 10 0 21 -36 9 -53 -17
l-17 -28 6 43 c7 42 -1 53 -24 30 -9 -9 -12 -8 -12 5 0 22 -26 22 -40 0 -8
-15 -10 -13 -8 12 2 23 -1 30 -14 29 -14 -1 -16 4 -11 27 5 25 3 29 -18 29
-13 0 -31 5 -39 10 -10 6 -21 3 -36 -11 -29 -27 -42 -7 -19 28 13 19 14 28 5
37 -9 8 -16 6 -28 -9 -9 -12 -25 -24 -35 -28 -16 -6 -16 -4 -3 28 16 38 7 52
-24 35 -13 -7 -20 -7 -20 0 0 5 -7 10 -15 10 -9 0 -15 9 -15 21 0 18 -4 20
-30 14 -30 -7 -35 -1 -24 29 5 12 15 15 43 10 20 -3 47 -1 61 4 14 6 34 9 45
7 11 -2 41 -7 68 -10z m312 -45 c8 -13 -15 -13 -35 0 -12 8 -11 10 7 10 12 0
25 -4 28 -10z m150 -50 c10 -11 14 -20 8 -20 -5 0 -18 9 -28 20 -10 11 -14 20
-8 20 5 0 18 -9 28 -20z m-800 -57 c22 -25 27 -26 61 -15 34 10 43 8 102 -21
106 -53 192 -164 221 -285 7 -27 10 -88 8 -136 l-4 -88 -51 -47 c-53 -48 -72
-77 -72 -109 0 -25 -32 -53 -115 -99 l-70 -38 -130 0 c-123 0 -134 2 -198 30
-54 24 -83 46 -137 102 -76 82 -103 131 -117 218 -25 155 20 290 134 396 71
67 184 113 284 116 52 2 62 -1 84 -24z m-581 -238 c1 -11 7 -29 14 -41 13 -24
3 -68 -15 -71 -8 -2 -13 8 -13 26 0 35 -26 62 -36 36 -4 -9 -2 -27 4 -41 10
-20 9 -26 -8 -36 -11 -7 -20 -19 -20 -26 0 -14 22 -12 64 4 32 12 15 -17 -18
-31 -38 -16 -50 -30 -41 -44 3 -6 20 -4 40 5 30 12 35 12 35 0 0 -8 -12 -17
-27 -21 -63 -15 -66 -49 -4 -39 36 6 39 4 50 -26 13 -39 13 -40 4 -38 -5 1
-21 -4 -36 -10 -16 -7 -37 -12 -47 -12 -10 0 -20 -6 -23 -14 -6 -16 11 -36 31
-36 7 0 11 -4 7 -9 -3 -5 2 -16 10 -25 14 -14 13 -16 -9 -22 -57 -14 -51 -49
9 -56 25 -2 29 -7 27 -26 -2 -16 4 -25 22 -32 19 -7 26 -17 26 -36 0 -19 4
-25 15 -20 9 3 15 0 15 -9 0 -21 29 -19 37 3 19 55 34 84 40 79 3 -4 0 -13 -7
-22 -13 -16 -7 -45 9 -45 6 0 17 12 26 28 15 26 15 26 9 2 -12 -42 -10 -54 9
-58 11 -2 17 3 17 15 1 25 26 56 39 48 8 -4 8 -12 0 -26 -6 -11 -8 -28 -4 -37
6 -14 10 -12 31 13 18 23 24 26 24 12 0 -25 28 -33 44 -12 11 15 21 17 72 10
32 -4 89 -8 126 -9 37 -1 72 -6 79 -13 15 -15 -16 -114 -35 -107 -17 7 -31
-12 -49 -66 -14 -42 -37 -66 -37 -38 0 12 22 75 45 132 6 14 4 17 -11 14 -20
-3 -74 -99 -74 -130 0 -10 -7 -18 -16 -18 -19 0 -11 31 17 72 24 33 25 61 2
56 -9 -2 -30 -29 -47 -60 -17 -32 -34 -58 -38 -58 -12 0 5 45 28 77 13 17 24
36 24 42 0 18 -18 21 -34 5 -9 -9 -23 -13 -31 -10 -8 3 -25 -8 -41 -27 -21
-25 -25 -27 -20 -10 10 31 -13 41 -34 15 -17 -21 -18 -21 -38 -1 -31 28 -39
24 -67 -28 -22 -41 -25 -43 -21 -18 3 17 9 41 12 53 6 21 4 23 -17 20 -20 -2
-27 -13 -39 -61 -14 -51 -18 -57 -29 -43 -11 13 -10 21 3 47 9 17 13 35 10 40
-9 15 -32 10 -43 -8 -9 -17 -11 -17 -25 2 -16 20 -16 20 -31 1 -8 -11 -15 -30
-15 -43 0 -13 -4 -23 -10 -23 -5 0 -10 15 -10 34 0 43 -23 53 -45 20 -13 -20
-19 -22 -35 -14 -26 14 -30 13 -30 -11 0 -11 -5 -17 -10 -14 -6 4 0 24 16 52
21 35 24 47 14 53 -7 5 -19 6 -27 3 -18 -7 -17 12 2 27 8 7 15 19 15 26 0 22
-30 16 -51 -8 -23 -29 -27 -3 -3 30 19 28 10 46 -17 32 -16 -9 -19 -7 -19 11
0 15 -4 19 -15 15 -13 -5 -12 -1 2 19 20 28 33 32 33 11 0 -18 52 -56 77 -56
30 0 43 21 43 69 0 55 -12 76 -35 67 -14 -5 -15 -14 -10 -46 4 -22 3 -40 -2
-40 -20 1 -31 19 -42 68 -17 80 -15 90 16 94 29 3 30 6 57 124 25 110 32 204
15 215 -12 7 -11 10 2 21 8 7 28 33 44 56 28 42 29 43 38 20 5 -12 10 -32 11
-43z m1476 15 c4 -64 -1 -95 -15 -114 -22 -29 -27 -14 -9 23 11 23 15 49 12
87 -3 30 -1 51 3 47 4 -4 8 -24 9 -43z m-207 -30 c-3 -12 -8 -19 -11 -16 -5 6
5 36 12 36 2 0 2 -9 -1 -20z m80 -74 c4 -9 -2 -17 -14 -21 -27 -9 -35 0 -19
20 16 19 26 19 33 1z m-1481 -24 c6 -22 -44 -258 -58 -271 -4 -3 -4 8 -1 24
30 142 39 218 29 240 -6 13 -8 26 -5 29 11 11 28 0 35 -22z m1538 -92 c0 -12
-10 -24 -24 -30 -13 -5 -27 -13 -30 -19 -4 -6 -12 -8 -19 -5 -7 2 -21 -2 -32
-10 -19 -14 -19 -16 -3 -32 16 -17 19 -17 36 -1 10 9 28 17 40 17 32 0 29 -38
-3 -50 -26 -10 -35 -45 -13 -52 19 -7 -22 -78 -51 -89 -18 -7 -22 -14 -17 -34
6 -24 -11 -46 -23 -28 -3 5 -14 12 -23 16 -14 5 -17 19 -16 81 0 60 -4 82 -21
112 -16 26 -19 40 -12 47 6 6 11 19 11 29 0 17 6 18 60 12 58 -6 60 -6 87 25
32 36 53 40 53 11z m-286 -144 c-1 -52 -5 -100 -9 -105 -9 -16 7 -13 30 5 21
16 22 18 24 74 1 30 3 33 13 16 6 -11 9 -46 6 -87 -3 -37 -1 -72 3 -76 5 -5 3
-26 -3 -48 -8 -30 -40 -70 -131 -161 l-120 -122 -61 5 c-93 9 -103 14 -98 57
4 30 7 35 18 25 12 -9 18 -8 30 7 35 45 48 82 50 144 2 60 9 124 20 177 6 29
53 73 70 66 19 -7 18 -28 -2 -44 -24 -19 -33 -51 -22 -73 8 -15 12 -16 19 -5
6 10 9 11 9 2 0 -7 7 -13 16 -13 9 0 12 5 8 12 -4 7 -3 8 4 4 6 -4 19 -3 29 2
10 6 30 15 45 22 l27 13 -5 115 c-5 111 -4 115 13 99 16 -13 18 -31 17 -111z
m-1356 -43 c2 -41 -1 -63 -8 -63 -6 0 -14 8 -17 18 -4 9 -13 23 -20 30 -12 12
-11 20 9 74 16 42 32 14 36 -59z m12 -113 c0 -5 -2 -10 -4 -10 -3 0 -8 5 -11
10 -3 6 -1 10 4 10 6 0 11 -4 11 -10z m-50 -31 c-7 -11 -14 -18 -17 -15 -3 3
0 12 7 21 18 21 23 19 10 -6z m1790 7 c0 -3 -4 -8 -10 -11 -5 -3 -10 -1 -10 4
0 6 5 11 10 11 6 0 10 -2 10 -4z m-277 -60 c6 -15 -1 -26 -15 -26 -4 0 -8 9
-8 20 0 23 15 27 23 6z m-511 -86 c-11 -11 -25 -27 -30 -36 -5 -9 -14 -14 -21
-10 -16 10 4 45 32 56 36 14 42 11 19 -10z m448 -9 c-5 -11 -15 -23 -22 -27
-7 -5 -8 -2 -3 7 21 37 44 55 25 20z m130 -11 c0 -5 -5 -10 -11 -10 -5 0 -7 5
-4 10 3 6 8 10 11 10 2 0 4 -4 4 -10z m-558 -51 c-5 -13 -9 -52 -8 -86 1 -63
-6 -78 -22 -45 -17 33 -13 96 8 131 23 37 35 37 22 0z m-82 -91 c0 -3 3 -14 6
-23 6 -13 1 -16 -22 -13 -21 2 -30 9 -32 24 -3 18 2 22 22 20 14 0 26 -4 26
-8z m-370 -23 c0 -8 -4 -15 -10 -15 -5 0 -7 7 -4 15 4 8 8 15 10 15 2 0 4 -7
4 -15z m394 -41 c5 -14 4 -15 -9 -4 -17 14 -19 20 -6 20 5 0 12 -7 15 -16z
m-449 -154 c3 -5 -1 -10 -10 -10 -9 0 -13 5 -10 10 3 6 8 10 10 10 2 0 7 -4
10 -10z m264 -60 c65 -31 78 -48 25 -31 -16 5 -57 15 -91 22 -61 13 -70 18
-56 32 14 15 61 6 122 -23z m644 3 c-7 -2 -21 -2 -30 0 -10 3 -4 5 12 5 17 0
24 -2 18 -5z m-1206 -58 c21 -14 23 -19 12 -27 -11 -8 -10 -8 4 -4 13 4 33 -7
67 -36 59 -54 238 -152 320 -176 19 -6 59 -19 88 -30 29 -11 76 -25 105 -32
28 -6 76 -18 105 -26 43 -13 51 -18 42 -29 -16 -19 -3 -37 18 -26 9 5 26 5 38
1 18 -7 22 -19 27 -97 9 -125 16 -153 37 -153 15 0 19 10 22 65 1 35 0 75 -3
87 -3 13 -3 31 -1 40 3 14 8 15 23 7 18 -9 19 -20 15 -197 -3 -103 -5 -199 -6
-214 0 -25 -4 -28 -34 -28 -18 0 -47 -5 -65 -11 -18 -6 -35 -9 -38 -5 -3 3 -9
53 -13 112 -5 89 -10 109 -26 121 -14 11 -15 17 -6 20 10 4 10 8 0 21 -10 12
-10 16 0 19 7 3 12 24 12 58 0 59 -19 90 -61 100 -53 13 -66 -51 -30 -147 24
-65 23 -59 21 -225 l-2 -121 -66 -17 c-81 -20 -187 -21 -244 -1 -24 7 -69 17
-101 21 -51 7 -61 5 -77 -13 -20 -21 -20 -21 28 -27 26 -3 85 -15 132 -27 104
-26 153 -27 248 -4 40 10 75 16 77 14 3 -2 6 -38 7 -78 3 -61 0 -75 -12 -75
-8 0 -25 -10 -37 -22 -26 -26 -84 -26 -206 0 -43 10 -108 17 -143 17 -56 0
-68 3 -88 25 -27 29 -39 21 -51 -34 -7 -31 -9 -33 -39 -25 -17 4 -52 8 -78 8
-27 1 -48 6 -49 11 0 6 -6 45 -13 88 -7 42 -10 79 -8 82 3 2 14 -1 25 -6 37
-20 162 6 174 37 10 27 -11 36 -50 19 -22 -9 -60 -14 -96 -13 l-60 3 -5 35
c-3 19 -8 73 -12 120 -3 47 -8 88 -10 92 -8 12 -4 563 4 603 10 47 6 65 -13
65 -8 0 -17 -16 -22 -37 -10 -53 -10 -551 1 -707 l9 -129 -42 6 c-23 3 -61 13
-86 24 l-45 18 -1 100 c-5 310 -4 456 3 590 4 83 8 163 8 178 l0 28 64 -3 c36
-1 68 0 71 4 9 9 102 -17 132 -37z m439 13 c9 -15 -37 1 -56 18 -13 13 -11 13
18 3 17 -6 35 -16 38 -21z m-743 -21 c-3 -20 -11 -37 -17 -37 -7 0 -7 -3 -1
-8 7 -5 8 -89 3 -252 -4 -135 -4 -352 -1 -482 l6 -238 -27 0 c-55 0 -66 15
-66 86 0 64 0 65 21 51 28 -20 59 -10 59 17 0 18 -8 25 -37 32 l-38 9 -11 320
c-5 176 -9 347 -7 379 3 65 26 104 49 85 10 -8 13 -3 16 23 2 23 10 36 28 45
13 6 25 11 27 9 1 -1 0 -19 -4 -39z m1176 7 c44 -13 51 -18 40 -30 -10 -12
-14 -13 -28 -1 -9 8 -29 22 -46 30 -38 21 -31 21 34 1z m-548 -29 c1 -16 -16
-16 -36 0 -19 15 -19 15 8 13 15 -2 28 -7 28 -13z m449 -26 c27 -6 50 -15 50
-20 0 -11 -3 -11 -73 6 -99 23 -79 36 23 14z m-393 -50 c25 -11 43 -23 40 -26
-6 -5 -97 33 -97 41 0 9 9 7 57 -15z m398 -19 c8 -13 -5 -13 -25 0 -13 8 -13
10 2 10 9 0 20 -4 23 -10z m181 -29 c112 -46 177 -83 107 -61 -16 5 -53 16
-83 25 -82 26 -130 46 -130 56 0 16 33 10 106 -20z m-506 9 c0 -5 -2 -10 -4
-10 -3 0 -8 5 -11 10 -3 6 -1 10 4 10 6 0 11 -4 11 -10z m972 -55 c-2 -14 -6
-25 -8 -25 -2 0 -4 11 -4 25 0 14 4 25 9 25 4 0 6 -11 3 -25z m905 -183 c1
-86 4 -266 6 -399 4 -200 2 -243 -9 -244 -8 -1 -18 -3 -24 -4 -5 -1 -14 -3
-19 -4 -14 -2 -23 -53 -12 -64 19 -19 13 -46 -9 -40 -24 6 -39 -22 -21 -40 10
-9 15 -8 23 8 11 19 11 19 19 0 18 -47 15 -48 -93 -42 -57 3 -119 9 -138 13
-19 3 -43 7 -52 7 -10 1 -18 6 -18 12 0 5 -4 4 -8 -3 -14 -22 -60 3 -76 42
-24 57 -73 70 -129 33 -19 -12 -27 -27 -29 -54 -5 -65 -25 -49 -22 19 3 78 18
92 87 84 52 -6 91 -31 119 -76 11 -19 26 -30 40 -30 13 0 34 -1 48 -2 16 -2
25 3 28 14 2 12 -6 19 -31 23 -23 5 -39 16 -51 35 -9 16 -24 36 -32 45 -13 12
-14 19 -4 30 7 9 10 28 6 47 -9 48 -10 313 -2 327 4 6 16 11 27 11 10 0 19 5
19 10 0 6 -9 10 -20 10 -11 0 -20 3 -20 8 0 8 95 10 104 1 12 -12 21 -385 11
-451 -3 -24 -1 -41 9 -50 7 -8 17 -24 20 -36 8 -25 34 -29 42 -7 5 12 9 13 21
3 11 -9 16 -9 23 2 5 8 7 17 4 21 -2 4 5 10 16 14 19 6 20 12 14 418 -4 277
-10 416 -17 426 -19 23 20 41 87 41 l61 0 2 -158z m-2783 114 c3 -13 3 -38 0
-55 -6 -30 -9 -32 -46 -29 -22 1 -41 5 -43 8 -3 5 21 62 38 88 14 21 44 14 51
-12z m2106 -44 c0 -20 -20 -2 -44 40 l-19 33 32 -29 c17 -17 31 -36 31 -44z
m-600 13 c25 -13 38 -24 29 -25 -22 0 -86 27 -94 40 -10 17 18 10 65 -15z
m360 8 c0 -5 -5 -15 -10 -23 -8 -12 -10 -11 -10 8 0 12 5 22 10 22 6 0 10 -3
10 -7z m300 -78 c35 -18 41 -55 10 -55 -11 0 -20 -7 -20 -15 0 -32 -28 -14
-34 23 -11 70 -7 74 44 47z m-2168 -39 c11 -16 10 -74 -2 -81 -12 -7 -119 -9
-127 -2 -10 11 8 59 31 81 17 18 30 22 57 18 19 -3 37 -10 41 -16z m1848 -6
c0 -11 -4 -20 -10 -20 -5 0 -10 9 -10 20 0 11 5 20 10 20 6 0 10 -9 10 -20z
m-2486 -32 c3 -18 7 -102 9 -185 l3 -153 -32 -31 c-25 -24 -34 -28 -40 -17 -5
7 -9 104 -9 215 l0 203 32 0 c28 0 33 -4 37 -32z m2750 -43 c3 -8 12 -15 20
-15 11 0 14 -8 10 -32 -6 -50 -16 -375 -18 -623 -1 -121 -3 -272 -4 -336 l-2
-115 -82 17 c-77 17 -195 45 -226 55 -9 3 -3 13 17 30 29 24 31 29 30 95 -1
39 2 73 5 76 3 4 17 1 30 -6 13 -8 28 -11 33 -8 4 3 9 31 11 64 3 43 9 64 25
81 20 21 22 33 20 123 l-1 100 35 33 36 32 -2 95 c-1 52 -6 141 -12 199 -12
121 -4 150 42 150 15 0 29 -7 33 -15z m-392 -7 c-9 -9 -15 -9 -24 0 -9 9 -7
12 12 12 19 0 21 -3 12 -12z m-209 -98 c2 -36 6 -72 9 -80 11 -30 39 -211 33
-219 -3 -5 -16 -4 -29 2 -19 9 -25 21 -29 62 -2 27 -1 58 2 68 6 16 -1 116
-13 201 -3 17 -2 34 1 39 11 19 22 -10 26 -73z m-1583 56 c0 -3 -4 -8 -10 -11
-5 -3 -10 -1 -10 4 0 6 5 11 10 11 6 0 10 -2 10 -4z m80 -43 c0 -5 1 -106 3
-226 l2 -218 25 -20 c14 -10 34 -18 45 -17 34 3 64 -12 67 -34 3 -25 52 -56
94 -61 45 -6 91 -34 98 -61 3 -13 8 -31 12 -39 3 -9 -6 -25 -22 -41 -24 -22
-26 -28 -16 -48 6 -13 16 -35 22 -50 5 -16 16 -28 25 -28 17 0 18 -5 6 -29 -7
-11 -24 -18 -53 -19 -121 -7 -283 -32 -340 -54 -53 -20 -56 -7 -62 273 -10
465 -10 494 -8 577 2 65 5 82 17 82 8 0 15 5 15 10 0 6 16 10 35 10 19 0 35
-3 35 -7z m1427 -25 c-3 -7 -5 -2 -5 12 0 14 2 19 5 13 2 -7 2 -19 0 -25z
m197 -25 c55 -55 68 -87 45 -110 -8 -8 -8 -17 0 -31 6 -11 11 -47 11 -80 0
-68 -14 -87 -51 -74 -21 8 -25 22 -50 173 -24 144 -27 179 -15 179 2 0 29 -26
60 -57z m1760 15 c-38 -44 -47 -63 -14 -29 19 19 36 29 38 23 2 -6 10 -8 19
-5 21 8 12 -7 -46 -76 -25 -30 -40 -51 -32 -47 10 7 12 3 6 -15 -4 -13 -13
-27 -19 -31 -8 -6 -7 -8 2 -8 6 0 12 -10 12 -22 l0 -23 -19 25 c-11 13 -18 28
-15 31 2 4 -2 9 -8 12 -10 3 -9 8 2 22 12 15 12 17 1 10 -11 -6 -13 -4 -7 11
4 10 9 31 10 45 2 25 1 26 -20 12 -12 -7 -29 -28 -37 -45 -9 -18 -17 -26 -21
-19 -4 6 -4 17 0 24 4 7 3 9 -2 4 -11 -11 -13 -58 -2 -51 14 9 9 -7 -11 -32
l-19 -24 -5 22 c-4 12 -2 27 4 34 7 8 6 13 -3 16 -10 4 -10 9 2 23 9 11 10 16
3 11 -20 -11 -16 19 4 35 15 12 16 12 10 -5 -7 -17 -6 -17 9 -5 14 11 18 11
22 1 2 -8 14 -1 33 19 15 17 32 28 37 25 5 -3 22 8 37 24 33 35 58 41 29 8z
m-4277 -10 c6 -7 13 -53 17 -103 3 -49 9 -100 12 -112 5 -17 -2 -26 -40 -48
-25 -15 -46 -31 -46 -36 0 -5 -3 -9 -7 -9 -6 0 -9 272 -4 313 2 12 58 8 68 -5z
m3835 -55 c0 -26 -1 -54 -1 -61 -1 -9 -11 -12 -28 -10 -16 2 -27 6 -25 11 1 4
2 22 2 41 0 26 5 36 20 41 11 3 20 14 20 22 0 9 3 14 6 10 3 -3 6 -28 6 -54z
m-1509 -70 c5 -94 3 -113 -9 -113 -15 0 -16 9 -14 135 1 70 6 103 15 93 1 -2
5 -54 8 -115z m2080 98 c5 -1 -1 -14 -12 -30 -14 -20 -29 -28 -46 -27 -29 1
-31 8 -10 26 8 7 15 17 15 22 0 5 -12 -4 -26 -21 -14 -17 -30 -28 -36 -25 -5
4 2 18 17 34 25 26 39 29 98 21z m-45 -97 c18 -5 21 -11 16 -28 -9 -28 -16
-34 -21 -18 -7 17 -42 15 -50 -4 -10 -26 13 -40 45 -28 l28 11 2 -129 1 -128
-40 0 -40 0 3 58 c1 41 -3 65 -16 85 -14 20 -16 30 -7 41 6 7 9 37 7 67 -1 30
-1 60 2 67 4 13 33 15 70 6z m-881 -39 c-4 -8 -13 -15 -22 -15 -21 0 -19 28 3
32 22 5 26 2 19 -17z m-3131 -78 c23 -29 46 -51 52 -50 6 2 9 -4 6 -12 -4 -10
-21 -15 -55 -15 -43 0 -52 4 -84 38 -40 43 -41 45 -18 72 28 32 54 23 99 -33z
m2730 21 c-1 -18 1 -64 4 -103 7 -73 2 -85 -34 -85 -14 0 -16 3 -8 13 6 7 14
51 17 98 4 46 8 90 11 97 7 23 12 12 10 -20z m1118 -31 c20 -29 36 -56 36 -60
0 -4 -25 -7 -55 -7 -30 0 -66 -5 -80 -12 -40 -18 -52 3 -21 40 14 16 26 33 26
38 0 10 41 54 51 54 3 0 23 -24 43 -53z m-4050 1 c11 -20 19 -39 16 -42 -9 -8
-161 -15 -158 -7 6 16 101 92 110 89 6 -2 20 -20 32 -40z m2623 26 c-3 -3 -12
-4 -19 -1 -8 3 -5 6 6 6 11 1 17 -2 13 -5z m-92 -14 c3 -5 1 -10 -4 -10 -6 0
-11 5 -11 10 0 6 2 10 4 10 3 0 8 -4 11 -10z m805 -10 c0 -5 -9 -10 -20 -10
-11 0 -20 5 -20 10 0 6 9 10 20 10 11 0 20 -4 20 -10z m-3612 -40 c15 -21 32
-39 37 -40 14 0 37 -39 30 -50 -4 -6 -42 -7 -93 -4 -52 4 -103 2 -126 -4 -42
-12 -62 -7 -34 9 9 5 45 36 80 69 35 33 66 60 71 60 4 0 20 -18 35 -40z m2386
-29 c-3 -36 0 -50 11 -54 19 -8 30 10 30 48 0 24 4 29 20 27 11 -2 23 -9 27
-15 11 -17 10 -125 -1 -132 -6 -3 -47 -7 -93 -9 -46 -3 -90 -7 -99 -11 -12 -5
-17 7 -25 64 -9 68 -9 70 16 84 14 8 42 18 63 22 20 4 40 11 43 16 10 17 11 9
8 -40z m924 11 c3 -28 0 -32 -20 -32 -21 1 -22 2 -5 14 9 7 17 20 17 29 0 8
-8 18 -17 21 -14 4 -14 4 2 3 15 -2 21 -11 23 -35z m-2009 -17 c63 -8 78 -21
85 -72 4 -26 9 -66 12 -88 6 -38 5 -39 -10 -20 -16 20 -16 20 -22 -2 -6 -21
-8 -21 -33 -9 -14 7 -42 16 -61 20 -69 12 -77 25 -79 125 l-1 89 41 -20 c23
-11 54 -21 68 -23z m-449 -45 c6 0 10 -9 10 -20 0 -19 -7 -20 -91 -20 l-91 0
24 29 c12 16 31 43 41 61 l18 33 40 -41 c22 -23 44 -42 49 -42z m1991 68 c5
-55 -16 -142 -32 -133 -15 10 -11 72 6 79 8 3 15 12 15 21 0 8 -7 15 -15 15
-8 0 -15 7 -15 15 0 18 40 20 41 3z m-278 -31 c13 -5 17 -18 17 -65 0 -64 9
-78 50 -80 14 -1 20 2 15 6 -6 4 -11 12 -11 17 -1 6 -5 31 -8 58 -7 44 -6 47
16 47 13 0 33 3 46 6 22 6 22 5 22 -79 0 -87 -11 -115 -39 -97 -8 4 -21 6 -29
2 -8 -3 -21 3 -27 12 -8 11 -15 13 -20 7 -3 -6 -19 -11 -35 -11 -33 0 -36 9
-43 138 -4 66 -3 72 12 59 9 -8 24 -17 34 -20z m1052 23 c4 -7 -3 -8 -22 -4
-38 9 -42 14 -10 14 14 0 29 -5 32 -10z m-3305 -46 c0 -20 -5 -23 -47 -26 -42
-3 -50 -7 -62 -33 -8 -16 -27 -47 -43 -67 -28 -36 -30 -65 -3 -54 9 3 11 -2 8
-15 -3 -10 0 -33 7 -49 14 -34 4 -55 -12 -27 -7 14 -13 15 -23 7 -8 -6 -11
-18 -8 -26 3 -8 0 -14 -6 -14 -7 0 -10 32 -8 96 2 78 5 98 20 108 19 15 22 37
6 53 -6 6 -9 21 -7 34 4 33 58 41 58 10 0 -29 18 -26 30 4 12 31 17 31 41 3
l18 -23 1 27 c0 20 4 26 15 22 8 -4 15 -17 15 -30z m1890 -56 c0 -29 -3 -63
-6 -75 -11 -42 -24 -23 -23 35 1 31 -2 75 -6 97 l-7 40 21 -22 c16 -17 21 -35
21 -75z m-1600 43 c0 -22 5 -43 10 -46 6 -3 10 -21 10 -40 l0 -33 -62 -6 c-35
-3 -131 -5 -214 -4 -148 2 -151 2 -145 23 3 11 14 31 23 44 16 23 21 24 170
26 193 3 181 1 175 26 -7 27 1 49 19 49 10 0 14 -12 14 -39z m3020 3 c0 -9
-10 -24 -22 -33 -21 -18 -18 -41 6 -41 8 0 16 -9 19 -20 3 -13 0 -20 -9 -20
-8 0 -14 -6 -14 -12 -1 -34 -21 28 -26 81 -7 61 -7 61 20 61 17 0 26 -5 26
-16z m-2783 -88 c4 -3 -1 -6 -10 -6 -10 0 -17 -7 -17 -15 0 -10 11 -15 35 -15
19 0 35 -5 35 -10 0 -6 -15 -9 -32 -8 -24 2 -33 -1 -33 -12 0 -10 12 -16 33
-18 17 -2 32 -9 32 -16 0 -8 -12 -11 -36 -8 -31 4 -35 2 -32 -14 2 -11 10 -19
18 -20 8 -1 26 -2 39 -2 19 -2 21 -5 12 -16 -7 -8 -19 -12 -29 -10 -20 5 -50
-12 -39 -22 4 -5 20 -8 35 -9 36 0 45 -42 10 -47 -28 -4 -27 -21 2 -28 32 -8
29 -24 -8 -36 -51 -16 -68 -38 -54 -69 14 -30 3 -32 -27 -6 -13 11 -27 21 -33
23 -6 2 -8 16 -4 35 5 23 12 30 23 26 19 -8 35 17 21 34 -6 7 -14 10 -19 7 -5
-3 -9 -1 -9 4 0 5 9 12 20 15 14 3 18 10 14 21 -4 10 -13 14 -24 11 -11 -3
-20 1 -24 10 -3 8 -16 19 -29 24 -22 9 -23 13 -21 93 2 45 3 86 4 89 0 8 139
3 147 -5z m1945 -51 c3 -38 5 -40 41 -43 27 -2 39 1 44 14 5 14 8 13 19 -7 19
-35 17 -48 -6 -42 -11 3 -27 0 -35 -7 -17 -14 -21 -35 -5 -25 6 3 10 1 10 -6
0 -7 8 -6 25 5 23 15 25 15 25 -1 0 -11 -16 -26 -37 -36 -33 -16 -37 -17 -45
-3 -18 32 -44 17 -39 -21 2 -16 -21 -17 -37 -1 -21 21 -14 48 12 48 22 0 36
16 36 42 0 6 -11 7 -26 4 -25 -7 -26 -5 -19 21 4 15 8 44 10 63 4 55 4 55 14
45 5 -6 11 -28 13 -50z m88 16 c0 -5 -11 -11 -25 -13 -26 -5 -35 6 -12 15 20
9 37 8 37 -2z m442 -59 c6 -22 15 -32 28 -32 10 0 22 -5 26 -11 3 -6 15 -9 25
-6 11 3 19 1 19 -3 0 -17 -22 -22 -43 -11 -12 6 -40 16 -62 23 -40 13 -53 33
-41 64 10 26 39 11 48 -24z m-2869 19 l39 -1 -31 -26 c-21 -17 -31 -35 -31
-53 0 -15 -9 -36 -20 -46 -11 -10 -20 -26 -20 -36 0 -24 -10 -28 -39 -18 -18
7 -21 12 -12 23 9 11 8 18 -5 30 -15 16 -18 16 -35 0 -20 -18 -43 -10 -35 13
5 12 1 14 -18 9 -21 -5 -24 -2 -28 32 -3 20 -1 47 3 59 8 21 13 22 101 18 51
-2 110 -4 131 -4z m167 5 c0 -3 -4 -8 -10 -11 -5 -3 -10 -1 -10 4 0 6 5 11 10
11 6 0 10 -2 10 -4z m1300 -51 c54 -19 113 -19 176 0 85 26 82 28 98 -88 2
-15 9 -34 16 -42 14 -17 -7 -80 -40 -122 -17 -22 -17 -27 -5 -57 l14 -33 -65
-33 c-61 -32 -116 -89 -137 -142 -4 -11 -17 -18 -32 -18 -20 0 -25 5 -25 24 0
33 -70 119 -113 139 -33 16 -35 19 -30 56 5 33 1 44 -19 63 -14 13 -33 35 -42
50 -16 25 -17 29 -2 43 20 20 21 8 -9 101 -14 43 -25 81 -25 83 0 10 201 -10
240 -24z m786 -30 c-8 -48 9 -151 27 -173 6 -7 11 -38 11 -68 l1 -55 -30 5
c-16 3 -60 8 -96 11 l-66 7 -11 49 c-8 33 -9 65 -2 100 11 59 16 69 35 69 7 0
15 6 18 13 5 15 -13 57 -25 57 -5 0 -15 6 -23 13 -10 11 3 14 77 16 l90 2 -6
-46z m-2191 17 c-11 -2 -26 -11 -32 -20 -7 -9 -13 -12 -13 -6 1 24 35 47 55
35 6 -3 1 -7 -10 -9z m93 -8 c22 -15 31 -64 12 -64 -5 0 -7 6 -5 13 3 6 1 18
-4 26 -12 19 -43 6 -40 -16 3 -33 -1 -36 -21 -18 -20 19 -28 41 -10 30 6 -3
14 5 20 19 11 30 18 32 48 10z m1686 -14 c-6 -27 -4 -30 17 -30 18 0 24 -6 25
-22 0 -13 4 -32 9 -42 7 -15 5 -18 -7 -14 -19 8 -38 -10 -31 -28 6 -17 30 -18
36 -1 3 8 9 7 19 -6 10 -14 24 -18 58 -15 l45 3 3 78 c3 75 4 77 28 77 33 0
40 -24 18 -58 -31 -45 -27 -152 8 -225 16 -32 26 -63 22 -68 -3 -6 1 -18 9
-27 8 -9 18 -40 22 -67 8 -60 10 -64 55 -95 52 -36 69 -67 30 -57 -11 3 -18 2
-15 -3 3 -4 -22 -8 -56 -8 -33 0 -63 -3 -66 -6 -8 -7 -58 19 -115 61 -47 34
-78 94 -78 149 0 26 -62 84 -90 84 -13 0 -25 12 -35 36 -14 35 -14 37 11 67
18 21 24 37 19 54 -4 16 -1 23 10 23 8 0 15 7 15 15 0 8 4 15 9 15 23 0 18 32
-9 62 -17 18 -30 36 -30 39 0 4 -2 13 -5 21 -4 9 6 14 35 16 39 2 40 2 34 -28z
m66 12 c0 -15 -22 -30 -36 -25 -11 4 -12 9 -3 19 12 15 39 19 39 6z m855 -2
c3 -5 2 -10 -4 -10 -5 0 -13 5 -16 10 -3 6 -2 10 4 10 5 0 13 -4 16 -10z
m-1544 -62 c12 -44 11 -48 -9 -65 l-23 -18 23 -29 c13 -16 35 -44 51 -62 15
-17 27 -39 27 -49 0 -32 -32 -71 -78 -95 -46 -25 -56 -38 -88 -115 -39 -97
-49 -113 -89 -136 -49 -29 -97 -48 -150 -59 -88 -19 -129 -50 -65 -50 16 0 59
-11 96 -25 36 -14 70 -23 74 -20 5 3 10 2 12 -2 7 -16 68 -43 97 -43 43 0 40
17 -19 94 l-50 65 28 16 c36 22 51 44 96 148 34 78 44 90 78 107 26 12 46 16
56 11 10 -5 29 -13 43 -19 14 -6 38 -31 54 -57 23 -40 26 -55 21 -92 -8 -61
-30 -103 -80 -156 -71 -74 -172 -132 -303 -176 -271 -91 -379 -111 -558 -105
-175 6 -270 43 -357 138 -71 76 -75 132 -16 234 55 97 149 171 273 217 28 10
57 24 65 30 13 11 50 19 240 55 48 9 123 12 103 4 -6 -3 -34 -26 -61 -52 -27
-26 -71 -63 -97 -82 l-48 -35 -133 -1 c-73 -1 -138 -5 -144 -9 -21 -13 11 -35
81 -56 38 -12 69 -26 69 -32 0 -7 -28 -32 -62 -57 -34 -25 -78 -58 -99 -75
-20 -16 -48 -39 -62 -50 -19 -15 -23 -25 -17 -35 8 -13 22 -11 97 13 48 16
117 42 153 59 82 38 196 68 231 61 24 -4 28 -11 31 -42 4 -53 31 -49 34 6 2
43 37 103 61 103 7 0 13 5 13 11 0 5 15 24 34 42 33 30 75 128 76 174 1 10 7
29 15 43 12 22 14 23 20 8 8 -21 55 -24 55 -4 0 8 -13 19 -30 25 -34 11 -34
10 -20 45 8 22 16 26 50 26 45 0 61 20 42 51 -7 10 -12 26 -12 34 0 15 5 17
50 19 22 1 25 5 25 38 0 31 6 41 35 62 19 13 38 21 42 18 4 -4 12 -28 19 -54z
m1802 -20 c9 -24 -6 -23 -27 1 -20 22 -13 49 8 29 7 -7 15 -21 19 -30z m-3005
3 c10 -6 8 -10 -8 -14 -15 -4 -21 -11 -17 -21 4 -9 2 -16 -3 -16 -11 0 -13 21
-4 44 7 18 13 19 32 7z m42 5 c0 -3 -4 -8 -10 -11 -5 -3 -10 -1 -10 4 0 6 5
11 10 11 6 0 10 -2 10 -4z m3045 -38 c0 -20 3 -40 8 -44 20 -21 4 -50 -43 -81
-43 -27 -50 -29 -50 -14 0 10 -9 26 -20 36 -33 30 -24 74 10 53 24 -15 50 5
50 37 0 36 11 56 29 53 11 -3 16 -14 16 -40z m141 23 c-10 -11 -15 -24 -12
-29 3 -6 -10 -12 -30 -14 -40 -5 -45 0 -37 30 4 16 14 22 47 25 22 2 43 4 45
5 2 1 -4 -7 -13 -17z m-2992 -43 c-10 -16 -25 17 -17 38 6 15 7 15 15 -5 4
-13 5 -28 2 -33z m2674 36 c9 -7 -32 -54 -47 -54 -10 0 -26 -6 -37 -14 -14
-11 -22 -12 -33 -3 -10 9 -19 4 -42 -23 l-28 -35 -1 28 c0 16 5 27 14 27 7 0
19 6 26 14 6 8 17 13 25 10 7 -3 16 -1 19 4 3 5 17 7 31 4 15 -2 25 0 25 7 0
6 1 14 2 19 1 4 -19 8 -45 9 -26 1 -47 -2 -47 -7 0 -6 -4 -10 -10 -10 -19 0
-10 21 13 30 18 7 125 3 135 -6z m377 -4 c4 -12 4 -38 0 -58 -5 -31 -12 -40
-43 -52 -50 -21 -82 -15 -82 15 0 15 8 25 23 30 12 4 24 8 27 9 3 1 17 5 33 9
18 5 27 14 27 27 0 11 -4 20 -10 20 -5 0 -10 5 -10 10 0 19 29 10 35 -10z
m-2355 -32 c0 -5 -4 -8 -10 -8 -5 0 -10 10 -10 23 0 18 2 19 10 7 5 -8 10 -18
10 -22z m-810 12 c0 -5 -2 -10 -4 -10 -3 0 -8 5 -11 10 -3 6 -1 10 4 10 6 0
11 -4 11 -10z m3957 -5 c7 -20 -2 -29 -21 -22 -9 4 -13 13 -10 22 8 19 23 19
31 0z m-4219 -19 c12 -4 19 -12 16 -18 -5 -7 -1 -7 11 0 13 7 26 7 42 -1 27
-12 30 -22 6 -24 -10 -1 -27 -4 -38 -6 -11 -3 -23 -6 -27 -6 -14 -2 -8 -32 7
-37 8 -3 29 1 46 10 30 15 34 15 51 -1 14 -13 16 -18 6 -24 -16 -10 -21 -61
-6 -70 22 -14 40 2 33 30 l-7 26 20 -26 c11 -14 23 -41 27 -61 l7 -36 -49 5
c-26 3 -55 12 -64 19 -13 11 -19 11 -37 -2 -12 -8 -22 -11 -22 -5 0 6 -10 12
-22 12 l-23 2 23 4 c23 5 30 27 12 38 -6 4 -18 1 -26 -6 -13 -11 -18 -10 -25
4 -6 9 -17 17 -26 17 -13 0 -14 3 -5 12 7 7 12 17 12 23 0 13 -50 36 -61 29
-13 -8 -11 -32 2 -36 17 -6 19 -68 3 -68 -7 0 -21 -3 -31 -6 -17 -5 -17 -5 0
9 9 8 17 19 17 26 0 6 -8 11 -17 12 -11 0 -13 3 -5 6 22 9 13 21 -39 48 -39
20 -54 24 -63 15 -8 -8 -7 -15 6 -24 15 -11 15 -13 -3 -24 -11 -7 -24 -10 -29
-7 -4 3 -21 0 -36 -5 -27 -11 -28 -11 -10 8 9 11 14 22 9 25 -14 9 -90 2 -105
-9 -15 -12 -94 -44 -108 -44 -6 0 -10 5 -10 10 0 6 8 10 19 10 10 0 29 8 42
18 32 22 59 39 87 54 12 6 22 17 22 24 0 14 28 28 53 25 10 -1 25 3 33 10 9 7
32 10 59 7 25 -3 48 -1 51 4 4 5 15 8 25 5 10 -3 21 -2 23 1 5 9 95 7 124 -2z
m4083 -19 c26 -8 25 -108 -1 -132 -18 -16 -22 -16 -57 -2 -50 20 -56 45 -11
49 26 2 34 8 36 27 3 21 1 23 -21 17 -14 -3 -33 -9 -44 -13 -12 -4 -10 2 10
20 26 25 37 44 18 32 -5 -3 -12 -1 -15 4 -8 12 34 19 54 10 8 -4 22 -10 31
-12z m-3931 -23 c0 -8 -5 -12 -10 -9 -6 4 -8 11 -5 16 9 14 15 11 15 -7z m86
-11 c-10 -10 -19 5 -10 18 6 11 8 11 12 0 2 -7 1 -15 -2 -18z m325 -35 c-1
-24 -4 -44 -5 -46 -2 -1 -16 0 -32 4 -26 7 -26 8 -7 15 13 5 23 20 27 44 9 48
21 36 17 -17z m3659 31 c0 -5 -4 -9 -10 -9 -5 0 -10 7 -10 16 0 8 5 12 10 9 6
-3 10 -10 10 -16z m-1301 -55 c-11 -11 -16 -24 -12 -27 3 -4 1 -7 -5 -7 -5 0
-19 -3 -29 -6 -12 -5 -11 -1 6 11 l24 18 -24 19 c-23 19 -24 19 -2 13 16 -4
26 0 35 14 12 19 13 19 19 3 4 -10 -1 -25 -12 -38z m106 47 c3 -5 19 -12 35
-16 24 -5 30 -12 30 -33 0 -15 -4 -33 -8 -40 -12 -19 -58 -24 -74 -9 -7 8 -20
17 -28 20 -8 4 0 5 18 4 18 -2 37 2 42 8 15 18 1 44 -26 51 -13 3 -21 10 -18
15 7 12 21 11 29 0z m-537 -13 c17 -17 15 -28 -7 -28 -22 0 -35 15 -26 30 8
13 18 13 33 -2z m942 -21 c0 -17 -34 -49 -43 -41 -4 4 -18 -1 -32 -10 -20 -13
-25 -14 -25 -2 0 8 19 26 43 40 49 29 57 31 57 13z m-136 -5 c3 -5 -12 -17
-32 -26 l-37 -18 24 26 c26 27 36 32 45 18z m-3470 -47 c4 -36 -24 -68 -40
-47 -8 11 -18 12 -49 3 -28 -7 -42 -7 -52 1 -16 13 -8 23 20 24 66 2 77 5 77
19 0 13 31 38 38 30 2 -1 4 -15 6 -30z m607 14 c11 -11 27 -18 35 -15 8 3 14
2 14 -3 0 -5 14 -11 32 -15 24 -5 29 -9 20 -18 -8 -8 -15 -8 -26 2 -20 16 -50
5 -42 -16 5 -13 3 -13 -16 1 -43 29 -85 12 -51 -22 18 -18 17 -18 -25 -18
l-44 0 6 34 c5 32 49 91 68 91 4 0 17 -9 29 -21z m3729 -8 c0 -6 -4 -13 -10
-16 -5 -3 -10 1 -10 9 0 9 5 16 10 16 6 0 10 -4 10 -9z m-3136 -48 c-4 -21
-12 -54 -19 -73 l-12 -35 -22 35 c-12 19 -24 46 -27 60 -4 14 -13 31 -22 38
-13 10 -5 12 47 12 l62 0 -7 -37z m1916 -5 c0 -13 -28 -9 -32 4 -6 17 -38 2
-38 -17 0 -11 8 -16 23 -15 35 3 43 0 27 -10 -8 -5 -25 -10 -37 -10 -20 0 -23
5 -23 39 0 35 2 38 25 33 16 -3 25 0 25 9 0 13 29 -19 30 -33z m370 -2 c0 -43
-1 -44 -35 -48 -19 -2 -42 0 -50 5 -20 11 -19 36 3 44 9 4 19 9 22 12 7 9 44
30 53 30 4 1 7 -19 7 -43z m-3040 -8 c0 -31 -3 -39 -11 -31 -7 7 -8 24 -4 42
9 43 15 39 15 -11z m2110 12 c205 -32 388 -84 473 -133 32 -19 59 -46 81 -80
59 -95 65 -120 45 -190 -10 -38 -63 -107 -81 -107 -6 0 -16 -7 -23 -17 -7 -9
-25 -17 -41 -19 -16 -1 -55 -9 -87 -18 -32 -9 -71 -16 -85 -16 -15 0 -52 -3
-82 -8 -55 -9 -81 -9 -220 3 -138 12 -422 97 -502 151 -50 32 -108 84 -108 96
0 4 -11 24 -25 44 -29 43 -34 114 -11 169 15 35 81 85 114 85 10 0 23 5 29 11
8 8 21 7 47 -2 41 -15 66 -46 65 -81 0 -13 3 -35 6 -50 7 -26 6 -26 -40 -25
-73 3 -63 -15 23 -42 82 -26 152 -59 152 -73 0 -5 -18 -37 -40 -72 -22 -35
-40 -73 -40 -85 0 -20 4 -22 33 -16 37 8 148 52 254 100 l71 33 114 -24 c62
-14 142 -32 178 -41 36 -10 68 -16 72 -15 4 1 19 -3 33 -8 18 -7 33 -7 47 1
20 11 20 11 -7 36 -31 29 -90 75 -153 117 -23 16 -42 32 -42 37 0 4 24 16 53
27 81 31 69 47 -38 49 -113 2 -143 8 -169 33 -50 48 -128 110 -138 110 -7 0
-25 -12 -40 -27 l-28 -27 0 27 c0 14 -4 29 -10 32 -5 3 -10 13 -10 21 0 12 7
14 28 10 15 -3 61 -10 102 -16z m-2440 -14 c0 -8 8 -16 18 -18 9 -3 -2 -5 -25
-6 -40 -1 -42 1 -30 19 14 22 37 25 37 5z m3034 5 c3 -4 -4 -17 -17 -27 -17
-15 -19 -15 -8 -2 7 9 10 22 6 28 -3 5 -2 10 4 10 5 0 12 -4 15 -9z m131 -1
c-3 -5 -11 -10 -16 -10 -6 0 -7 5 -4 10 3 6 11 10 16 10 6 0 7 -4 4 -10z m-95
-19 c0 -6 -4 -13 -10 -16 -5 -3 -10 1 -10 9 0 9 5 16 10 16 6 0 10 -4 10 -9z
m-2086 -53 c18 -23 22 -35 13 -39 -17 -10 -157 -16 -157 -8 0 14 84 79 101 79
10 0 29 -15 43 -32z m1450 -15 c17 -16 43 -36 56 -45 24 -17 23 -17 -57 -17
-75 -1 -83 1 -83 18 0 17 35 71 47 71 3 0 20 -12 37 -27z m-1450 -112 c-21
-30 -43 -51 -53 -50 -9 1 -29 -3 -44 -9 -16 -7 -34 -12 -40 -12 -19 0 -137 52
-137 60 0 4 12 15 26 25 19 12 60 19 146 25 65 4 121 10 125 14 3 3 8 4 10 2
3 -2 -12 -27 -33 -55z m-299 19 c-3 -5 -15 -10 -25 -10 -10 0 -22 5 -25 10 -4
6 7 10 25 10 18 0 29 -4 25 -10z m1897 -21 c29 -16 21 -26 -39 -54 -49 -22
-55 -28 -40 -36 25 -14 21 -28 -8 -25 -38 5 -55 25 -55 67 0 21 -4 41 -10 44
-5 3 -10 11 -10 16 0 12 136 2 162 -12z m98 11 c0 -5 -9 -10 -20 -10 -11 0
-20 5 -20 10 0 6 9 10 20 10 11 0 20 -4 20 -10z m-1943 -77 c24 -10 43 -21 43
-24 0 -4 -17 -10 -37 -14 -21 -3 -78 -24 -128 -44 -49 -21 -101 -42 -115 -45
-23 -7 -22 -4 10 24 79 70 146 119 165 119 11 1 39 -7 62 -16z m1987 -34 c42
-29 76 -55 76 -59 0 -4 -35 1 -77 11 -43 10 -94 21 -113 23 -19 2 -46 8 -60
14 l-24 9 24 14 c24 13 77 35 92 38 3 0 40 -22 82 -50z m-345 -18 c9 -6 -24
-23 -107 -56 -67 -26 -126 -45 -132 -43 -6 2 6 27 26 56 l37 52 81 0 c45 0 87
-4 95 -9z m-1199 -29 c0 -5 11 -22 25 -38 14 -16 25 -32 25 -35 0 -6 -98 37
-110 48 -7 6 31 33 47 33 7 0 13 -4 13 -8z M2225 6254 c-13 -28 -14 -38 -4
-50 6 -8 10 -15 8 -17 -2 -1 -12 -7 -23 -12 -10 -6 -27 -31 -36 -55 -20 -51
-9 -48 -167 -36 -116 9 -114 0 20 -102 32 -25 61 -51 64 -59 3 -7 -6 -46 -20
-86 -31 -87 -49 -165 -42 -178 10 -15 74 18 155 80 l77 59 79 -64 c72 -59 118
-84 130 -72 2 3 -12 52 -31 109 -20 57 -38 111 -40 119 -3 9 21 35 65 70 39
30 74 56 80 58 5 2 10 10 10 18 0 10 -15 14 -57 14 -32 0 -81 3 -110 6 l-51 7
-28 84 c-15 47 -34 91 -41 98 -9 10 -10 14 -1 17 12 4 3 28 -11 28 -5 0 -16
-16 -26 -36z m50 -128 c8 -27 13 -52 10 -54 -6 -7 -76 -4 -83 3 -3 2 6 32 19
64 26 66 30 65 54 -13z m-160 -94 c12 -4 9 -52 -4 -65 -7 -7 -25 2 -56 27 -25
21 -45 41 -45 45 0 6 73 1 105 -7z m212 -60 l20 -59 -36 -29 c-57 -47 -56 -47
-115 -2 -59 46 -59 45 -30 115 14 32 15 33 78 33 l63 0 20 -58z m99 38 c19 0
34 -3 34 -7 0 -5 -18 -21 -40 -36 l-40 -29 -14 34 c-16 36 -12 52 11 44 8 -3
30 -6 49 -6z m-239 -159 c18 -14 33 -29 33 -33 0 -3 -24 -23 -52 -44 -29 -21
-59 -44 -66 -51 -7 -7 -20 -13 -27 -13 -11 0 -9 16 11 73 44 121 39 117 101
68z m201 -47 c13 -42 21 -78 19 -80 -2 -3 -30 17 -61 43 l-56 47 32 33 c18 18
34 33 37 33 4 0 16 -34 29 -76z M2373 5057 c5 -16 47 -21 60 -8 6 6 7 11 2 12
-6 0 -23 2 -38 4 -19 3 -27 0 -24 -8z M2230 4950 c-13 -9 -13 -11 0 -20 8 -5
21 -10 28 -10 6 0 12 -7 12 -15 0 -15 -42 -31 -58 -21 -14 9 -52 -23 -52 -45
0 -23 13 -25 30 -4 7 8 15 13 19 11 3 -3 35 -1 70 3 36 4 83 4 105 0 54 -10
78 7 46 33 -15 12 -27 15 -39 9 -10 -6 -23 -5 -34 0 -9 6 -21 8 -26 4 -5 -3
-12 -1 -16 5 -3 5 3 15 15 22 11 7 20 18 20 25 0 16 -9 16 -39 -1 -21 -12 -28
-12 -46 0 -13 9 -25 10 -35 4z M2240 4814 c0 -26 15 -33 59 -28 37 4 61 20 61
39 0 8 -19 12 -60 11 -55 0 -60 -2 -60 -22z M2698 4653 c12 -2 30 -2 40 0 9 3
-1 5 -23 4 -22 0 -30 -2 -17 -4z M2331 4448 c-5 -12 -27 -76 -48 -142 l-38
-118 -104 6 c-57 4 -108 8 -114 9 -7 1 -13 -8 -15 -20 -2 -17 3 -25 21 -32 13
-5 53 -33 88 -62 35 -29 66 -54 68 -56 3 -2 -12 -52 -33 -113 -36 -104 -40
-150 -14 -150 18 0 126 69 132 85 3 8 12 15 20 15 8 0 28 12 46 26 l31 26 54
-36 c30 -20 58 -36 62 -36 5 0 26 -14 47 -30 22 -17 50 -30 62 -30 29 0 41 34
20 56 -17 17 -49 82 -71 145 -16 43 -17 41 103 129 40 29 69 57 65 61 -5 5
-64 10 -133 11 l-125 4 -39 94 c-21 52 -41 113 -45 134 -7 46 -27 58 -40 24z
m39 -164 c28 -94 28 -94 -30 -94 -27 0 -50 3 -50 6 0 27 45 154 55 154 2 0 13
-30 25 -66z m-140 -134 c0 -6 -7 -27 -15 -47 l-15 -35 -42 37 c-24 21 -47 42
-52 46 -6 5 19 9 57 9 39 0 67 -4 67 -10z m205 -35 c39 -71 39 -80 3 -104 -18
-11 -42 -27 -53 -35 -18 -14 -25 -12 -82 25 -35 22 -63 45 -63 52 0 8 7 35 16
61 l16 47 70 -3 70 -3 23 -40z m178 39 c5 -5 -88 -84 -99 -84 -6 0 -34 64 -34
77 0 9 17 13 63 13 35 0 67 -3 70 -6z m-334 -179 c22 -13 42 -28 45 -33 6 -10
-142 -117 -151 -109 -2 3 2 18 10 34 8 15 20 52 28 81 7 28 17 52 21 52 5 0
26 -11 47 -25z m249 -43 c17 -37 32 -71 32 -75 0 -5 -31 9 -70 29 -38 21 -70
43 -70 50 0 11 58 65 69 63 3 0 21 -30 39 -67z M1807 3963 c-12 -11 -8 -21 12
-26 24 -6 46 7 37 22 -8 12 -39 15 -49 4z M3057 3993 c-15 -15 -6 -33 17 -33
23 0 41 22 29 34 -8 8 -38 8 -46 -1z M3096 3921 c-7 -11 18 -33 27 -24 4 3 7
12 7 20 0 15 -26 18 -34 4z M3140 3860 c-9 -16 -8 -22 5 -26 21 -8 39 10 32
30 -9 22 -24 20 -37 -4z M3091 3807 c-12 -15 -5 -27 16 -27 7 0 13 9 13 20 0
23 -13 26 -29 7z M1548 3103 c7 -3 16 -2 19 1 4 3 -2 6 -13 5 -11 0 -14 -3 -6
-6z M4025 2850 c-10 -16 4 -30 29 -30 25 0 51 22 39 33 -10 11 -61 8 -68 -3z
M4026 2774 c-19 -19 -20 -25 -2 -49 27 -37 58 2 40 49 -8 20 -18 20 -38 0z
M3736 2447 c-27 -19 -11 -48 23 -41 34 9 45 19 38 38 -8 19 -37 21 -61 3z
M3738 2389 c-28 -16 -21 -29 16 -29 30 0 56 14 45 24 -13 11 -47 14 -61 5z
M4032 2373 c2 -11 14 -18 31 -20 22 -1 27 2 23 13 -3 9 -6 18 -6 20 0 2 -12 4
-26 4 -19 0 -25 -5 -22 -17z M4032 2267 c-14 -17 1 -40 28 -42 27 -2 34 9 18
35 -15 23 -31 26 -46 7z M4030 2151 c0 -11 4 -22 8 -25 14 -9 35 12 29 28 -9
23 -37 20 -37 -3z M3964 1965 c-7 -18 3 -35 21 -35 15 0 28 27 19 41 -8 14
-34 11 -40 -6z M3925 1919 c-4 -6 -4 -13 -1 -16 8 -8 36 5 36 17 0 13 -27 13
-35 -1z M657 2663 c-13 -12 -7 -33 8 -33 8 0 15 9 15 20 0 20 -11 26 -23 13z
M654 2579 c-3 -6 -1 -16 5 -22 9 -9 14 -8 21 3 9 15 4 30 -10 30 -5 0 -12 -5
-16 -11z M661 2461 c-10 -6 -10 -10 -1 -16 13 -8 24 -1 19 14 -3 6 -10 7 -18
2z M4694 2408 l-19 -23 23 19 c21 18 27 26 19 26 -2 0 -12 -10 -23 -22z M392
2446 c1 -10 8 -17 13 -17 15 1 12 24 -3 29 -9 3 -13 -2 -10 -12z M4819 2433
c-13 -16 -12 -17 4 -4 9 7 17 15 17 17 0 8 -8 3 -21 -13z M4766 2174 c-8 -21
-1 -28 19 -20 9 3 15 11 13 18 -7 19 -25 20 -32 2z M1033 1994 c-3 -8 -1 -20
6 -27 14 -14 47 15 37 32 -10 16 -36 13 -43 -5z M1067 1703 c-14 -13 -6 -33
13 -33 13 0 20 7 20 20 0 19 -20 27 -33 13z M566 1932 c-6 -11 4 -52 13 -52
15 0 28 23 24 41 -5 19 -28 26 -37 11z M637 1923 c-4 -3 -7 -15 -7 -25 0 -28
34 -19 38 10 3 21 -16 31 -31 15z M2698 1689 c-31 -17 -20 -29 27 -29 32 0 45
4 45 14 0 24 -42 33 -72 15z M2721 1621 c-19 -12 -5 -31 23 -31 22 0 46 17 46
32 0 11 -51 10 -69 -1z M1835 1730 c-4 -7 -3 -16 3 -22 14 -14 45 -2 40 15 -6
16 -34 21 -43 7z M1744 1629 c-8 -14 14 -38 34 -35 9 2 17 9 17 16 0 16 -42
33 -51 19z M3997 1709 c-21 -12 -13 -29 13 -29 24 0 33 15 17 28 -8 7 -18 7
-30 1z M704 1639 c-3 -6 -2 -15 4 -21 13 -13 32 -2 32 18 0 16 -26 19 -36 3z
M4030 3101 c0 -35 17 -49 35 -30 16 17 2 59 -20 59 -10 0 -15 -10 -15 -29z
M3999 3048 c-27 -22 -51 -70 -42 -79 16 -16 39 0 56 37 26 53 20 70 -14 42z
M4396 2523 c-11 -11 -6 -23 9 -23 8 0 15 4 15 9 0 13 -16 22 -24 14z M1057
2434 c-9 -10 12 -46 24 -39 14 9 11 45 -4 45 -8 0 -17 -3 -20 -6z M4365 2425
c-19 -14 -17 -15 25 -13 25 2 44 8 43 13 -4 17 -47 17 -68 0z M4387 2393 c-14
-13 -6 -23 18 -23 16 0 25 6 25 15 0 15 -31 21 -43 8z M1060 2299 c0 -25 33
-22 38 4 2 12 -3 17 -17 17 -15 0 -21 -6 -21 -21z M4355 2310 c-8 -13 4 -32
16 -25 12 8 12 35 0 35 -6 0 -13 -4 -16 -10z M4391 2186 c-12 -14 -5 -26 16
-26 15 0 18 26 4 34 -5 3 -14 0 -20 -8z M4552 2084 c-12 -21 -4 -54 14 -54 19
0 27 18 20 46 -7 28 -21 31 -34 8z M4415 2000 c4 -6 11 -8 16 -5 14 9 11 15
-7 15 -8 0 -12 -5 -9 -10z M200 1980 c0 -11 7 -20 15 -20 8 0 15 9 15 20 0 11
-7 20 -15 20 -8 0 -15 -9 -15 -20z M4670 1990 c-24 -8 -23 -8 8 -9 20 -1 31 3
27 9 -3 6 -7 10 -8 9 -1 -1 -13 -5 -27 -9z M4163 1974 c-7 -18 7 -46 25 -52
13 -4 27 42 17 57 -10 17 -35 13 -42 -5z M4277 1983 c-4 -3 -7 -17 -7 -30 0
-16 6 -23 19 -23 18 0 35 35 25 52 -6 10 -28 11 -37 1z M4683 1949 c-33 -12
-28 -16 12 -11 19 2 35 5 35 7 0 9 -28 11 -47 4z M4744 1926 c-10 -26 1 -51
21 -51 15 0 21 8 23 33 3 27 0 32 -18 32 -11 0 -23 -6 -26 -14z M4885 1921
c-3 -5 -1 -12 5 -16 5 -3 10 1 10 9 0 18 -6 21 -15 7z M4344 1906 c-10 -26 1
-51 21 -51 15 0 21 8 23 33 3 27 0 32 -18 32 -11 0 -23 -6 -26 -14z M116 1901
c-7 -10 23 -20 42 -14 6 3 12 9 12 14 0 12 -47 12 -54 0z M4695 1890 c27 -12
35 -12 35 0 0 6 -12 10 -27 9 -25 0 -26 -1 -8 -9z M135 1850 c3 -5 10 -10 16
-10 5 0 9 5 9 10 0 6 -7 10 -16 10 -8 0 -12 -4 -9 -10z M4705 1840 c4 -6 11
-8 16 -5 14 9 11 15 -7 15 -8 0 -12 -5 -9 -10z M135 1810 c3 -5 10 -10 16 -10
5 0 9 5 9 10 0 6 -7 10 -16 10 -8 0 -12 -4 -9 -10z M120 1770 c0 -5 5 -10 11
-10 5 0 7 5 4 10 -3 6 -8 10 -11 10 -2 0 -4 -4 -4 -10z M4328 1696 c-23 -21
-26 -29 -21 -65 5 -37 4 -41 -16 -41 -12 0 -19 -4 -16 -10 3 -5 24 -10 46 -10
24 0 38 4 34 10 -4 6 14 10 46 10 l52 0 -5 50 c-3 27 -11 56 -18 65 -19 23
-71 18 -102 -9z M4583 1079 c-26 -8 -33 -15 -34 -37 -1 -15 -2 -36 -3 -47 -1
-16 -12 -21 -65 -30 -109 -17 -109 -62 -1 -85 72 -15 78 -30 13 -30 -59 0 -97
-18 -101 -47 -3 -19 5 -24 49 -37 28 -9 55 -13 59 -11 11 7 40 -5 40 -16 0 -5
-15 -9 -34 -9 -19 0 -44 -8 -56 -18 -21 -17 -22 -21 -11 -55 19 -55 38 -46 32
16 -2 17 0 18 42 20 21 1 22 -3 29 -91 7 -103 12 -126 30 -120 8 3 12 37 13
109 l0 104 110 2 c121 3 163 11 178 35 22 34 1 48 -70 48 -117 1 -206 9 -217
20 -7 7 -6 10 5 11 16 2 11 2 76 -5 38 -5 53 -3 63 8 10 13 8 16 -12 21 -25 6
-82 13 -111 14 -10 1 -16 5 -13 9 3 5 31 7 64 5 59 -4 118 10 108 26 -3 5 -44
12 -91 16 -104 8 -115 28 -13 23 60 -2 73 0 76 13 3 16 -19 23 -112 35 -50 7
-42 14 16 14 48 0 58 3 72 24 21 33 11 54 -32 66 -43 12 -56 11 -99 -1z m75
-46 c-10 -2 -26 -2 -35 0 -10 3 -2 5 17 5 19 0 27 -2 18 -5z m-118 -113 c0 -5
-4 -10 -9 -10 -6 0 -13 5 -16 10 -3 6 1 10 9 10 9 0 16 -4 16 -10z m0 -120 c0
-12 -47 -12 -75 0 -15 6 -8 9 28 9 26 1 47 -3 47 -9z m280 -60 c0 -6 -45 -10
-115 -10 -63 0 -115 4 -115 9 0 5 52 9 115 10 71 1 115 -3 115 -9z M4647 653
c-14 -14 -6 -42 14 -48 26 -8 54 16 46 39 -6 16 -48 22 -60 9z M4550 434 c0
-45 5 -55 26 -47 19 7 18 16 -6 55 l-20 33 0 -41z M65 199 c-14 -5 -1 -8 39
-8 33 -1 57 1 55 3 -10 9 -76 13 -94 5z M198 193 c12 -2 32 -2 45 0 12 2 2 4
-23 4 -25 0 -35 -2 -22 -4z M283 193 c9 -2 23 -2 30 0 6 3 -1 5 -18 5 -16 0
-22 -2 -12 -5z M348 193 c12 -2 30 -2 40 0 9 3 -1 5 -23 4 -22 0 -30 -2 -17
-4z M488 193 c7 -3 16 -2 19 1 4 3 -2 6 -13 5 -11 0 -14 -3 -6 -6z M583 193
c9 -2 25 -2 35 0 9 3 1 5 -18 5 -19 0 -27 -2 -17 -5z M683 193 c15 -2 39 -2
55 0 15 2 2 4 -28 4 -30 0 -43 -2 -27 -4z"/>
</g>
</svg>
