<?xml version="1.0" standalone="no"?>
<!DOCTYPE svg PUBLIC "-//W3C//DTD SVG 20010904//EN"
 "http://www.w3.org/TR/2001/REC-SVG-20010904/DTD/svg10.dtd">
<svg version="1.0" xmlns="http://www.w3.org/2000/svg"
 width="500.000000pt" height="878.000000pt" viewBox="0 0 500.000000 878.000000"
 preserveAspectRatio="xMidYMid meet">
<metadata>
Created by potrace 1.16, written by Peter Selinger 2001-2019
</metadata>
<g transform="translate(0.000000,878.000000) scale(0.100000,-0.100000)"
fill="#000000" stroke="none">
<path d="M2280 8714 c0 -7 -16 -15 -36 -18 -46 -9 -39 -29 10 -30 38 -1 39 -2
87 -93 l49 -93 -42 -1 c-93 -2 -127 -5 -135 -12 -12 -13 19 -27 57 -26 19 1
163 -2 320 -5 294 -7 347 -3 330 24 -7 11 -32 16 -89 18 l-80 4 -7 35 c-6 34
1 131 10 140 2 3 34 6 70 7 68 1 87 9 69 27 -8 8 -102 11 -304 10 -224 -1
-295 2 -301 12 -5 8 -8 8 -8 1z m250 -59 c0 -8 -4 -23 -9 -33 -4 -9 -20 -43
-35 -75 l-27 -59 -23 44 c-13 23 -33 60 -45 81 -11 21 -21 42 -21 47 0 6 35
10 80 10 65 0 80 -3 80 -15z m125 -16 c4 -17 4 -62 0 -100 -8 -75 -7 -74 -80
-69 -38 2 -42 7 -27 30 7 11 12 24 12 30 0 15 71 140 80 140 5 0 11 -14 15
-31z M490 8385 c-30 -8 -73 -23 -95 -32 -40 -17 -158 -91 -163 -103 -1 -3 -25
-37 -52 -74 -62 -85 -90 -173 -90 -279 0 -42 5 -88 11 -104 6 -15 13 -39 16
-53 2 -14 8 -26 14 -28 5 -2 9 -11 9 -19 0 -29 42 -88 108 -151 66 -64 108
-85 122 -62 5 9 12 4 21 -16 29 -59 215 -91 356 -61 40 9 102 30 137 48 78 39
180 137 215 206 13 26 30 59 36 73 23 47 34 184 21 260 -16 93 -93 219 -136
223 -13 1 -18 6 -15 17 11 36 -131 126 -235 150 -87 19 -217 22 -280 5z m295
-61 c153 -52 264 -173 305 -331 18 -69 19 -89 10 -153 -38 -268 -301 -447
-572 -389 -180 39 -325 178 -369 355 -7 27 -9 77 -6 122 5 62 13 91 46 157 48
94 51 97 116 151 55 45 123 79 200 100 64 17 203 11 270 -12z M622 8238 c-7
-7 -12 -18 -12 -25 0 -8 -6 -24 -14 -36 -8 -12 -17 -39 -21 -61 -12 -69 -23
-74 -168 -72 -102 1 -126 -2 -122 -12 3 -8 5 -16 5 -18 0 -2 5 -4 10 -4 6 0
28 -11 50 -25 22 -14 44 -25 49 -25 5 0 24 -13 42 -30 l33 -29 -61 -118 c-56
-110 -66 -143 -42 -143 9 0 64 35 207 131 23 16 48 29 55 29 10 0 106 -69 210
-151 26 -19 30 -20 44 -7 13 14 10 27 -35 119 -75 157 -77 138 29 209 51 35
87 66 82 71 -4 4 -60 9 -123 11 l-114 3 -27 85 c-28 88 -54 121 -77 98z m38
-115 c26 -60 21 -73 -30 -73 -22 0 -40 1 -40 3 0 2 9 22 20 45 11 22 20 48 20
57 0 26 8 17 30 -32z m-153 -160 c-6 -24 -14 -43 -17 -43 -3 0 -23 16 -45 35
-22 19 -43 35 -47 35 -5 0 -8 4 -8 10 0 9 110 19 122 10 4 -3 2 -24 -5 -47z
m203 43 c0 -8 9 -30 20 -48 l19 -33 -60 -39 -61 -39 -36 19 c-20 10 -44 27
-54 36 -16 16 -15 20 10 67 l27 51 68 0 c52 0 67 -3 67 -14z m170 7 c0 -8
-100 -66 -105 -61 -8 10 -25 48 -25 57 0 7 26 11 65 11 36 0 65 -3 65 -7z
m-78 -220 c21 -47 37 -87 34 -90 -7 -8 -165 110 -165 124 -1 16 69 64 82 56 5
-3 27 -44 49 -90z m-240 58 l32 -29 -59 -37 c-33 -21 -72 -49 -87 -63 -16 -14
-28 -22 -28 -16 0 21 84 174 96 174 8 0 28 -13 46 -29z M2435 8365 c-88 -19
-199 -80 -272 -151 -35 -34 -63 -69 -63 -78 0 -9 -8 -26 -18 -36 -34 -37 -63
-165 -59 -265 3 -79 8 -100 40 -169 46 -99 91 -153 172 -211 96 -69 173 -97
280 -102 115 -7 192 8 284 53 168 83 276 239 288 418 4 60 2 81 -8 88 -10 7
-11 11 -2 14 19 8 -18 123 -65 202 -70 118 -208 213 -350 239 -58 11 -170 10
-227 -2z m290 -65 c164 -61 300 -234 308 -394 2 -38 0 -94 -5 -125 -10 -67
-60 -169 -99 -207 -16 -15 -29 -33 -29 -38 0 -6 -8 -16 -18 -21 -10 -6 -41
-25 -68 -43 -106 -71 -263 -93 -397 -55 -83 23 -196 99 -245 165 -193 261 -88
605 219 717 81 29 87 30 184 26 61 -2 110 -10 150 -25z M2533 8198 c-5 -7 -22
-51 -37 -98 l-28 -85 -126 -3 c-69 -1 -130 -6 -135 -11 -4 -4 7 -16 25 -25 18
-9 45 -25 59 -34 88 -58 108 -72 114 -82 4 -6 -16 -58 -44 -116 -43 -90 -49
-108 -38 -125 6 -10 15 -19 19 -19 6 0 109 74 180 130 16 12 33 18 40 14 7 -4
48 -39 91 -78 65 -57 82 -68 95 -59 10 6 15 17 13 25 -2 7 -10 36 -18 63 -7
28 -20 64 -28 81 -30 64 -26 74 55 131 41 28 90 60 108 69 17 9 32 20 32 25 0
18 -30 22 -150 21 l-126 -2 -17 36 c-9 19 -17 42 -17 52 -1 24 -37 102 -48
102 -5 0 -14 -6 -19 -12z m57 -160 c0 -13 -8 -18 -28 -18 -41 0 -44 7 -20 54
l21 41 13 -30 c7 -16 13 -38 14 -47z m37 -105 c20 -62 20 -63 2 -85 -17 -19
-36 -33 -75 -53 -7 -4 -23 4 -37 17 -14 13 -35 31 -48 41 -16 12 -20 20 -11
23 6 3 12 12 12 19 0 7 9 34 19 59 20 45 20 45 69 44 l48 -1 21 -64z m191 51
c6 -4 -121 -94 -133 -94 -13 0 -47 88 -39 102 5 8 162 1 172 -8z m-358 -4 c0
-24 -33 -90 -45 -90 -8 0 -27 11 -43 25 -17 14 -33 25 -38 25 -11 0 -44 31
-44 42 0 4 38 8 85 8 49 0 85 -4 85 -10z m23 -175 c31 -28 35 -53 10 -62 -10
-3 -42 -24 -71 -46 -29 -22 -54 -38 -56 -36 -5 6 73 169 82 169 4 0 19 -12 35
-25z m205 -50 c13 -41 22 -80 20 -85 -2 -6 -27 10 -56 35 -30 25 -58 45 -63
45 -21 0 -6 27 29 52 20 14 39 27 42 27 3 1 15 -33 28 -74z M4400 8364 c-136
-20 -219 -59 -314 -145 -76 -70 -129 -168 -152 -282 -15 -75 -15 -82 5 -164
29 -119 65 -186 143 -265 85 -88 191 -140 318 -156 91 -12 93 -12 185 7 141
28 245 95 330 212 l35 47 0 234 c0 203 -2 237 -17 258 -9 14 -20 27 -23 30 -3
3 -17 20 -29 39 -41 58 -178 148 -256 168 -79 20 -160 26 -225 17z m210 -66
c148 -44 275 -176 316 -330 15 -58 19 -208 5 -236 -81 -165 -116 -208 -226
-267 -114 -62 -197 -81 -294 -68 -175 24 -298 109 -385 266 -14 26 -26 55 -26
65 -1 9 -6 27 -13 40 -18 32 -4 169 24 240 30 76 51 106 125 179 87 85 164
120 269 122 38 0 70 3 73 5 6 7 91 -4 132 -16z m-460 -68 c0 -5 -4 -10 -10
-10 -5 0 -10 5 -10 10 0 6 5 10 10 10 6 0 10 -4 10 -10z M4459 8210 c-6 -16
-15 -30 -20 -30 -5 0 -8 -3 -7 -7 5 -18 -44 -153 -55 -154 -7 0 -64 0 -128 0
-107 0 -117 -1 -122 -19 -4 -14 14 -33 74 -79 43 -33 88 -65 99 -71 24 -13 25
-28 6 -72 -8 -18 -22 -53 -31 -78 -10 -25 -22 -55 -28 -68 -7 -16 -7 -26 0
-33 14 -14 36 -1 145 86 31 25 63 45 72 45 8 0 34 -15 58 -33 82 -63 165 -116
192 -123 31 -7 31 -8 7 42 -10 21 -24 57 -31 79 -15 47 -29 83 -41 107 -16 31
-10 58 19 83 15 13 31 25 35 25 18 0 117 82 117 95 0 17 -8 18 -152 15 l-97
-1 -14 34 c-8 18 -23 68 -33 110 -14 62 -21 77 -36 77 -12 0 -23 -11 -29 -30z
m43 -107 c9 -37 14 -71 12 -75 -9 -14 -84 -9 -84 5 0 17 44 137 50 137 3 0 13
-30 22 -67z m61 -171 c20 -62 20 -63 1 -76 -10 -8 -36 -28 -58 -45 -21 -17
-43 -31 -48 -31 -4 0 -26 11 -48 25 -44 28 -48 45 -25 101 8 19 15 38 16 42
10 44 16 48 80 47 l63 -1 19 -62z m-193 39 c0 -10 -7 -32 -15 -47 -8 -16 -15
-37 -15 -46 0 -10 -3 -18 -6 -18 -10 0 -144 111 -144 119 0 4 41 9 90 10 83 2
90 0 90 -18z m349 12 c0 -5 -22 -25 -49 -46 l-50 -37 -17 37 c-9 21 -19 41
-21 46 -2 4 28 7 67 7 39 0 71 -3 70 -7z m-109 -183 c0 -16 11 -55 25 -86 14
-32 23 -59 20 -62 -3 -3 -20 5 -38 18 -17 14 -53 38 -79 56 -54 35 -53 38 22
83 46 27 50 27 50 -9z m-219 -21 c17 -12 29 -25 27 -30 -5 -14 -103 -80 -106
-70 -3 10 37 121 45 121 3 0 18 -9 34 -21z M495 7036 c-33 -8 -73 -21 -90 -30
-16 -9 -35 -16 -42 -16 -31 0 -186 -144 -199 -185 -3 -11 -13 -28 -21 -37 -8
-9 -12 -22 -8 -27 3 -6 2 -11 -4 -11 -9 0 -27 -57 -23 -74 2 -4 -3 -15 -10
-23 -19 -24 -16 -161 5 -202 9 -19 17 -40 17 -48 0 -25 62 -124 113 -179 35
-39 74 -67 130 -95 43 -22 82 -38 85 -35 3 3 11 1 17 -4 34 -28 240 -31 321
-4 164 53 308 201 348 357 64 252 -82 507 -346 602 -61 22 -219 28 -293 11z
m289 -60 c129 -41 244 -158 292 -296 36 -105 20 -259 -39 -360 -52 -89 -166
-176 -275 -210 -90 -28 -215 -27 -296 2 -133 47 -222 125 -292 254 -33 61 -43
268 -15 321 5 10 17 36 27 58 11 22 53 74 94 116 62 62 88 81 145 103 117 45
241 49 359 12z M595 6899 c4 -12 0 -35 -8 -53 -9 -17 -30 -66 -48 -108 -18
-43 -37 -79 -43 -80 -6 0 -63 -2 -126 -2 -108 -1 -115 -2 -115 -21 0 -15 21
-30 85 -62 47 -24 89 -44 94 -46 8 -3 -6 -44 -70 -209 -10 -26 -15 -50 -11
-54 6 -6 145 60 157 75 5 6 42 27 102 58 36 18 44 15 173 -62 59 -36 112 -62
117 -59 15 10 1 79 -29 137 -14 29 -29 64 -34 79 -8 31 -13 26 91 95 67 44 75
54 53 71 -13 9 -45 10 -125 6 -100 -7 -108 -6 -114 12 -4 10 -31 70 -60 132
-43 91 -57 112 -74 112 -17 0 -20 -4 -15 -21z m50 -91 c11 -18 25 -46 31 -63
6 -16 16 -42 22 -57 11 -27 10 -28 -21 -29 -91 -3 -132 0 -135 9 -1 5 5 25 16
43 10 19 26 55 36 82 10 26 21 47 25 47 4 0 15 -15 26 -32z m109 -230 c23 -56
19 -63 -56 -101 l-53 -27 -75 38 c-73 37 -75 39 -72 72 5 60 19 65 172 65 l64
0 20 -47z m176 47 c0 -3 -25 -21 -56 -41 -62 -40 -75 -37 -88 19 l-6 27 75 0
c41 0 75 -2 75 -5z m-460 -28 c0 -46 -13 -49 -74 -21 -67 30 -61 42 20 43 49
0 54 -2 54 -22z m61 -119 c27 -13 49 -26 49 -30 0 -5 7 -8 15 -8 23 0 18 -18
-7 -26 -13 -3 -30 -12 -38 -19 -29 -24 -139 -79 -146 -73 -9 10 61 178 74 178
3 0 26 -10 53 -22z m275 -5 c4 -16 17 -49 30 -75 13 -26 24 -52 24 -58 0 -6
-28 4 -61 22 -124 66 -132 73 -98 87 13 5 38 19 54 30 39 27 43 26 51 -6z
M4415 7033 c-59 -9 -135 -35 -130 -44 3 -5 -1 -6 -9 -3 -16 6 -90 -33 -149
-80 -55 -43 -110 -121 -142 -201 -57 -141 -33 -325 60 -445 60 -77 105 -116
184 -153 90 -44 161 -60 256 -60 152 2 280 55 382 161 70 71 83 101 82 181 l0
66 -22 -60 c-44 -119 -132 -211 -250 -265 -243 -110 -537 5 -638 250 -32 79
-33 219 -1 311 33 95 122 193 217 237 233 108 482 50 615 -143 37 -55 59 -103
69 -155 8 -40 9 -33 10 49 1 88 -1 98 -26 135 -62 88 -171 162 -304 204 -40
14 -159 22 -204 15z M4458 6888 c-15 -12 -88 -182 -88 -205 0 -16 -24 -19
-139 -22 -58 -1 -109 -5 -114 -8 -14 -9 -3 -36 16 -39 33 -5 167 -75 167 -88
0 -7 -18 -54 -40 -105 -41 -94 -48 -125 -30 -136 5 -3 22 3 37 13 16 11 42 28
60 38 18 11 63 40 100 66 l68 48 45 -23 c64 -31 124 -72 170 -113 67 -61 73
-18 11 82 -17 28 -31 54 -31 57 0 3 -11 23 -25 43 -14 20 -25 40 -25 43 0 8
112 89 145 106 11 6 20 17 20 25 0 12 -13 14 -70 10 -38 -2 -92 -4 -119 -5
l-50 0 -37 95 c-21 52 -38 103 -39 113 0 20 -10 22 -32 5z m58 -166 c14 -37
14 -46 3 -53 -16 -10 -45 -11 -86 -3 l-30 6 17 46 c10 26 23 60 30 76 l11 30
19 -29 c10 -15 26 -48 36 -73z m207 -68 c5 -6 -88 -84 -100 -84 -4 0 -35 62
-31 64 2 2 28 8 58 13 30 6 58 11 61 12 3 0 9 -2 12 -5z m-155 -59 l21 -44
-41 -30 c-23 -17 -46 -31 -51 -31 -4 0 -33 11 -63 25 -30 14 -59 25 -63 25
-18 0 -18 26 0 61 l18 36 78 1 79 2 22 -45z m-234 5 c-9 -16 -18 -30 -21 -30
-8 0 -93 50 -93 54 0 2 29 4 64 5 l65 2 -15 -31z m69 -108 c26 -12 47 -26 47
-30 0 -8 -115 -89 -157 -111 -27 -14 -28 -6 -7 45 36 87 55 124 62 121 4 -2
28 -13 55 -25z m236 -23 c17 -28 30 -54 27 -56 -3 -3 -20 3 -38 12 -18 10 -43
23 -55 29 -13 6 -23 16 -23 22 0 11 37 42 51 43 3 1 20 -22 38 -50z M2220
6842 c-24 -21 -24 -23 -7 -33 18 -10 16 -13 -17 -41 -42 -35 -45 -52 -12 -73
26 -17 40 -70 22 -84 -6 -5 -27 -13 -46 -18 -19 -5 -35 -16 -35 -23 0 -8 -10
-17 -21 -20 -24 -6 -64 -51 -82 -93 -21 -50 -15 -138 14 -193 34 -64 52 -84
79 -84 12 0 42 -20 68 -45 42 -40 49 -53 67 -127 11 -45 23 -85 28 -90 5 -5
28 -12 51 -15 31 -4 41 -10 41 -24 0 -11 4 -19 9 -19 17 0 22 -33 7 -49 -8 -9
-16 -29 -18 -46 -3 -25 -10 -32 -53 -49 -133 -51 -172 -75 -208 -129 -22 -33
-40 -74 -47 -112 -22 -112 -61 -268 -81 -319 -10 -28 -19 -58 -19 -67 0 -9
-13 -32 -29 -52 -15 -20 -34 -50 -41 -67 -11 -27 -11 -34 3 -47 19 -19 37 -9
37 22 0 12 14 49 30 80 17 31 30 65 30 75 0 10 11 42 24 71 14 30 27 68 29 84
2 17 7 38 11 47 4 9 8 22 10 30 1 7 4 18 8 23 7 12 16 60 22 124 3 24 14 57
25 72 12 16 21 32 21 36 1 14 44 40 120 71 119 48 118 48 122 10 3 -36 -9 -68
-31 -82 -11 -7 -9 -12 10 -27 l24 -19 -23 0 c-17 0 -22 -5 -20 -17 1 -10 -1
-24 -6 -31 -4 -7 -3 -19 3 -26 9 -10 8 -15 -4 -20 -23 -9 -18 -36 8 -37 21 -1
21 -1 -3 -8 -31 -9 -33 -35 -2 -39 31 -5 28 -20 -5 -24 -34 -4 -38 -32 -5 -36
29 -4 28 -20 -2 -32 -14 -5 -25 -19 -28 -35 -5 -23 -1 -29 26 -41 l31 -13 -29
-1 c-23 0 -27 -4 -23 -20 3 -10 -1 -24 -9 -31 -19 -15 -8 -29 22 -29 13 0 24
-4 24 -10 0 -5 -8 -10 -17 -10 -10 0 -24 -4 -32 -9 -12 -8 -12 -12 -2 -24 8
-11 9 -17 1 -22 -14 -9 6 -35 26 -35 8 0 14 -7 14 -15 0 -10 -10 -15 -30 -15
-22 0 -30 -5 -30 -18 0 -10 -5 -23 -11 -29 -7 -7 -8 -17 -3 -25 5 -7 9 -22 9
-33 0 -12 9 -21 24 -25 40 -9 38 -30 -3 -30 -19 0 -38 -4 -41 -10 -6 -9 6 -16
60 -36 18 -6 16 -8 -12 -17 -39 -12 -44 -37 -8 -37 14 0 25 -4 25 -10 0 -5 -9
-10 -19 -10 -27 0 -37 -21 -18 -35 9 -7 13 -15 9 -19 -4 -4 2 -14 13 -22 14
-11 16 -17 8 -22 -18 -12 -24 -105 -8 -136 8 -14 10 -26 4 -26 -16 0 -10 -28
8 -39 14 -7 15 -12 4 -25 -7 -8 -10 -20 -6 -26 4 -6 1 -18 -6 -26 -10 -12 -8
-17 7 -28 17 -13 17 -16 3 -33 -18 -19 -15 -38 8 -65 12 -13 12 -21 2 -39 -9
-17 -9 -24 0 -27 16 -5 14 -23 -6 -38 -17 -13 -17 -15 6 -32 l24 -19 -23 -6
c-18 -5 -21 -11 -16 -31 3 -14 2 -28 -4 -31 -15 -10 -12 -35 5 -35 17 0 21
-45 4 -55 -6 -4 -8 -13 -5 -20 2 -7 -1 -18 -7 -24 -16 -16 10 -33 38 -25 13 3
10 -1 -7 -11 -41 -23 -35 -42 10 -36 6 1 12 -3 12 -8 0 -13 -35 -32 -44 -24
-3 3 -6 -1 -6 -10 0 -10 10 -17 28 -19 31 -3 37 -20 9 -24 -31 -4 -33 -14 -8
-33 l23 -17 -23 -15 c-25 -17 -21 -53 6 -43 8 3 15 1 15 -5 0 -6 -6 -11 -14
-11 -22 0 -31 -22 -14 -34 25 -19 32 -55 13 -76 -15 -17 -15 -19 1 -28 15 -9
16 -12 5 -26 -12 -14 -11 -19 2 -34 15 -16 15 -21 2 -46 -14 -26 -13 -30 1
-40 14 -10 13 -15 -6 -39 -23 -29 -20 -62 9 -84 14 -11 12 -12 -12 -13 -15 0
-30 -6 -33 -14 -8 -22 13 -54 38 -59 19 -4 18 -5 -5 -6 -27 -1 -28 -3 -22 -33
9 -43 13 -48 33 -48 12 0 10 -4 -8 -13 -22 -11 -24 -19 -25 -75 0 -43 -4 -66
-14 -71 -9 -6 -11 -15 -6 -27 5 -11 9 -23 10 -29 0 -5 4 -16 8 -22 5 -7 5 -19
0 -25 -11 -19 -13 -88 -2 -88 6 0 6 -7 1 -17 -5 -10 -7 -23 -5 -30 2 -6 0 -14
-6 -17 -16 -10 -1 -36 22 -36 19 0 19 -1 4 -18 -13 -14 -14 -21 -5 -30 8 -8 8
-15 -2 -27 -12 -14 -10 -20 16 -41 16 -13 21 -21 12 -18 -9 3 -22 2 -29 -2
-23 -14 -69 -12 -69 2 0 20 -30 30 -40 13 -5 -7 -6 -26 -3 -41 3 -17 1 -28 -6
-28 -6 0 -11 17 -11 39 0 43 -13 59 -34 42 -14 -12 -37 9 -71 62 -10 15 -26
27 -38 27 -19 0 -20 4 -14 133 4 72 9 209 12 302 3 94 8 198 11 232 6 63 6 63
37 63 18 0 45 -7 61 -15 45 -24 54 -15 45 42 -4 26 -8 120 -7 208 1 223 0 225
-17 225 -13 0 -15 -31 -15 -215 0 -240 5 -224 -70 -208 l-33 6 7 136 c4 75 9
151 12 169 5 27 3 32 -14 32 -24 0 -32 -18 -32 -76 0 -25 -4 -43 -9 -40 -10 7
-8 216 2 233 4 6 1 16 -7 22 -7 6 -11 22 -8 37 4 20 9 25 31 22 22 -2 26 1 23
19 -2 18 1 20 19 16 19 -5 20 -3 14 18 -4 13 -4 21 0 17 5 -4 14 -3 22 4 11 9
11 14 -4 31 -17 19 -17 19 2 14 11 -4 26 -3 33 2 11 7 11 11 -2 24 -21 21 -20
27 4 27 29 0 25 25 -7 41 l-28 13 33 4 c27 3 33 7 29 22 -3 11 1 21 10 24 8 3
11 11 8 17 -4 5 1 16 11 24 11 7 16 17 12 21 -4 4 -3 13 3 21 16 18 -6 43 -37
43 -13 0 -24 6 -24 13 0 8 14 11 45 9 37 -3 45 -1 45 12 0 10 -15 24 -32 32
-20 9 -24 13 -11 11 12 -3 27 1 34 9 8 10 4 18 -23 34 l-33 20 27 0 c46 0 45
30 -2 45 l-25 8 34 14 c31 13 33 16 18 30 -15 15 -15 18 1 30 16 12 16 14 -2
28 -15 11 -16 17 -8 28 7 8 8 17 4 21 -4 4 -8 20 -8 34 -4 68 -22 85 -63 62
-32 -16 -27 9 6 35 30 25 24 45 -12 45 -18 0 -23 4 -19 15 6 15 0 19 -48 29
-15 4 -37 16 -48 28 -16 18 -24 20 -38 12 -18 -11 -57 -11 -84 1 -22 9 -41 -3
-34 -21 3 -9 -2 -14 -14 -14 -11 0 -29 -9 -40 -20 -11 -11 -20 -16 -20 -11 0
5 20 30 45 54 44 44 58 77 33 77 -22 -1 -87 -86 -119 -155 -17 -36 -35 -65
-41 -65 -6 0 -8 -9 -5 -20 3 -11 0 -18 -6 -17 -14 2 -17 -53 -5 -70 5 -6 5
-14 -1 -17 -5 -3 -7 -15 -4 -26 3 -11 0 -20 -6 -20 -6 0 -24 -26 -39 -57 -17
-37 -35 -59 -47 -61 -11 -2 -29 -13 -41 -23 -11 -11 -23 -16 -27 -13 -14 14
-57 -8 -76 -40 -25 -40 -27 -82 -5 -94 15 -8 15 -11 -1 -36 -10 -14 -22 -26
-28 -26 -12 0 -93 -30 -164 -62 -49 -21 -93 -56 -93 -73 0 -7 -14 -32 -32 -56
-18 -24 -33 -52 -33 -62 -2 -25 28 -39 58 -28 36 14 40 2 14 -33 -13 -17 -38
-56 -55 -87 l-31 -55 29 -32 29 -32 42 19 c23 11 51 27 63 37 23 20 34 22 114
27 38 2 57 8 63 20 6 9 14 17 18 17 16 0 121 103 121 119 0 9 7 25 15 35 8 11
15 29 15 40 0 16 3 17 12 8 7 -7 24 -12 38 -12 14 0 30 -8 38 -20 14 -23 42
-26 61 -7 10 10 11 7 6 -13 -7 -33 -14 -109 -21 -250 -3 -63 -9 -117 -13 -120
-4 -3 -7 -16 -7 -30 -1 -14 -6 -47 -12 -74 -9 -44 -8 -49 9 -53 10 -3 19 -12
19 -20 0 -10 7 -14 19 -10 12 3 22 -1 25 -10 3 -8 10 -12 16 -8 5 3 30 -3 54
-15 54 -24 66 -25 66 -4 0 9 6 14 12 12 19 -7 21 -603 2 -619 -10 -8 -12 -23
-8 -51 6 -31 3 -43 -15 -62 l-21 -23 25 -11 c30 -14 31 -18 5 -60 l-20 -33 40
-17 c22 -9 40 -22 40 -28 0 -6 9 -19 19 -28 11 -10 17 -24 14 -32 -2 -7 8 -25
23 -39 15 -14 32 -35 38 -48 17 -32 40 -28 44 8 2 17 8 35 14 40 7 7 9 0 5
-22 -5 -22 -1 -38 12 -54 24 -30 41 -17 34 26 -5 30 -3 34 11 29 9 -3 16 -16
16 -29 0 -30 36 -63 52 -47 9 9 8 18 -2 37 -10 20 -11 28 -2 37 9 9 12 6 12
-13 0 -29 27 -72 41 -63 5 3 7 25 4 50 -5 47 9 61 19 19 4 -17 13 -25 27 -25
18 0 20 4 13 32 -6 29 -5 31 10 19 9 -7 16 -28 16 -45 1 -17 8 -49 16 -71 8
-22 18 -47 20 -55 3 -9 -10 -32 -30 -54 l-36 -37 0 34 c0 25 -10 44 -39 76
-34 36 -43 41 -67 35 -38 -8 -66 -36 -68 -65 -1 -26 -29 -37 -50 -20 -8 6 -16
24 -19 39 -10 48 -83 69 -114 32 -10 -11 -27 -20 -40 -20 -23 0 -73 -55 -73
-81 0 -8 7 -25 16 -37 12 -17 12 -22 2 -22 -8 0 -31 -9 -52 -19 l-38 -20 -14
35 c-8 19 -20 34 -28 34 -7 0 -19 14 -26 30 -10 24 -20 31 -50 36 -31 5 -37
10 -33 25 5 19 41 34 75 32 9 -1 28 9 42 22 27 25 34 45 15 45 -5 0 -7 5 -4
10 3 6 15 10 26 10 24 0 37 29 18 41 -8 5 -24 9 -36 9 -15 0 -23 7 -25 22 -3
25 -5 25 -106 14 -30 -3 -58 -9 -63 -12 -16 -9 2 -25 21 -19 10 3 21 2 24 -3
6 -10 -33 -18 -135 -28 -51 -5 -62 -3 -52 7 13 13 33 17 91 18 22 1 32 6 32
17 0 14 -12 15 -100 9 -88 -6 -101 -5 -106 10 -10 26 7 34 81 39 125 9 237 40
249 71 3 8 16 20 30 26 13 6 26 19 29 29 3 11 19 20 41 24 32 6 36 10 36 37 0
29 -1 29 -41 23 -39 -7 -40 -6 -34 19 l7 26 -196 -4 c-108 -2 -196 -1 -196 4
0 4 14 20 30 36 29 28 55 89 44 107 -9 14 -33 9 -53 -13 -11 -12 -30 -27 -43
-33 -13 -7 -48 -27 -79 -44 l-56 -30 -6 63 c-7 74 -30 176 -64 292 -25 82 -91
199 -119 210 -25 9 -15 23 30 42 43 19 59 39 51 64 -10 28 -12 128 -3 133 16
10 4 121 -16 142 -9 11 -16 23 -15 28 4 21 -15 74 -32 90 -11 9 -19 27 -19 40
0 15 -16 35 -47 61 -27 21 -51 41 -54 46 -3 4 -25 -3 -50 -15 l-44 -22 30 -6
30 -6 -40 -9 c-22 -4 -47 -7 -56 -6 -18 2 -45 -26 -35 -36 3 -4 35 3 70 16 34
12 67 21 72 19 5 -2 9 2 9 7 0 6 -4 9 -10 7 -5 -2 -4 2 3 9 10 11 18 7 45 -20
17 -19 27 -31 20 -27 -6 3 -14 2 -18 -4 -4 -6 -10 -8 -14 -6 -9 6 -131 -28
-169 -48 -48 -25 -133 -113 -195 -203 -32 -45 -57 -85 -57 -90 0 -17 -55 -143
-63 -143 -4 0 -14 15 -22 33 -10 26 -11 43 -3 73 15 57 15 99 1 99 -7 0 -13 5
-13 10 0 24 33 107 56 140 25 38 24 55 -3 55 -14 0 -13 4 5 20 12 11 28 20 37
20 8 0 40 20 69 44 64 52 126 74 223 80 72 4 93 10 93 27 0 5 -41 7 -98 5 -76
-4 -109 -10 -155 -30 -32 -14 -65 -26 -73 -26 -9 0 -44 -28 -77 -62 -66 -67
-107 -152 -105 -214 0 -16 -9 -58 -21 -92 -28 -83 -27 -121 3 -147 38 -31 37
-56 -4 -76 -37 -18 -163 -143 -196 -194 -10 -17 -21 -32 -24 -35 -14 -13 -83
-124 -100 -162 -11 -24 -19 -61 -19 -83 l0 -40 20 38 c11 22 18 46 14 55 -3 9
-3 13 1 10 3 -4 20 19 36 50 17 31 40 68 52 82 13 14 32 41 44 60 47 77 192
200 236 200 8 0 22 7 31 17 10 10 19 12 23 6 4 -5 24 -13 45 -16 66 -10 120
-44 175 -110 58 -68 112 -157 112 -182 0 -9 11 -35 23 -58 36 -63 66 -151 71
-204 7 -72 61 -272 97 -358 4 -11 13 -40 19 -65 14 -55 48 -171 65 -225 7 -22
16 -56 20 -75 4 -19 18 -57 30 -85 27 -58 60 -139 85 -208 9 -26 20 -50 24
-54 3 -3 6 -17 6 -29 0 -13 4 -25 9 -28 5 -3 12 -18 16 -33 3 -14 19 -54 34
-87 38 -82 55 -131 67 -199 5 -30 3 -44 -13 -66 -64 -86 -86 -190 -59 -281 20
-65 20 -70 2 -70 -20 0 -37 57 -30 97 5 29 4 33 -15 33 -18 0 -21 6 -21 38 0
20 7 46 15 56 17 23 20 56 5 56 -18 0 -11 15 26 59 22 25 43 41 54 39 9 -2 18
0 18 5 5 20 0 27 -19 27 -50 0 -133 -96 -112 -129 14 -22 5 -71 -12 -71 -7 0
-16 -10 -20 -22 -7 -21 -8 -20 -14 11 -5 28 -8 31 -17 20 -6 -8 -12 -29 -12
-47 -1 -34 -20 -68 -31 -56 -3 3 -6 18 -6 32 0 17 -5 27 -15 27 -11 0 -16 -13
-18 -48 -2 -26 -7 -47 -12 -47 -4 0 -15 -3 -23 -6 -9 -3 -16 3 -20 16 -8 30
-27 16 -27 -19 0 -22 -5 -30 -24 -33 -20 -4 -26 0 -28 16 -4 30 -22 26 -26 -6
-2 -17 -9 -28 -18 -28 -19 0 -64 -29 -64 -41 0 -5 14 -2 31 6 31 17 59 14 59
-4 0 -6 -25 -29 -55 -52 -31 -23 -54 -44 -51 -46 6 -7 128 57 153 80 13 11 25
18 28 15 8 -8 24 -112 18 -120 -9 -16 -23 -7 -23 16 0 33 -31 69 -49 57 -12
-8 -13 -16 -3 -49 7 -22 12 -44 12 -51 0 -20 -18 -12 -26 12 -10 33 -24 47
-40 40 -12 -4 -14 -15 -8 -47 6 -36 5 -39 -9 -27 -14 11 -21 10 -45 -8 -16
-11 -35 -27 -42 -36 -8 -9 -25 -22 -39 -30 -25 -12 -26 -12 -28 20 -2 45 -20
76 -38 69 -8 -4 -15 -16 -15 -28 0 -26 -35 -46 -80 -46 -23 0 -33 -7 -45 -31
-21 -40 -49 -36 -53 9 -4 41 -30 43 -38 2 -12 -56 -24 -30 -24 51 0 51 -4 78
-10 74 -6 -3 -10 -26 -10 -51 0 -45 -13 -57 -38 -32 -9 9 -12 9 -12 1 0 -7
-10 -15 -22 -18 -16 -6 -26 -1 -40 16 l-18 24 -6 -22 c-4 -13 -13 -23 -21 -23
-10 0 -14 7 -10 20 3 13 0 20 -9 20 -8 0 -17 -13 -20 -30 -7 -34 -8 -34 -34
-20 -11 6 -17 16 -14 24 3 7 -2 19 -11 26 -14 11 -17 10 -22 -8 -3 -12 -12
-22 -19 -22 -14 0 -18 11 -15 43 3 26 -24 21 -39 -8 -19 -36 -34 -31 -27 10 3
19 2 35 -4 35 -5 0 -9 -49 -9 -111 0 -104 1 -111 19 -106 10 2 26 0 35 -5 9
-5 47 -11 84 -13 37 -2 99 -7 137 -10 87 -8 284 17 363 47 61 23 124 58 159
90 14 13 28 18 42 13 11 -3 31 -1 43 6 13 7 34 14 48 15 86 8 134 16 150 24 9
5 20 7 23 4 3 -3 19 2 36 11 17 8 31 13 31 11 0 -3 17 2 38 11 20 9 44 16 52
17 35 3 80 33 104 70 28 44 31 63 16 116 -5 20 -14 83 -19 140 -8 99 -7 107
13 135 18 25 21 42 19 108 -2 45 -10 93 -19 115 -58 131 -78 207 -89 347 -3
28 -8 60 -11 73 l-7 23 539 -6 c297 -4 542 -10 546 -13 3 -4 8 -16 10 -27 2
-12 15 -24 36 -30 17 -5 35 -17 38 -27 3 -10 13 -18 22 -18 14 0 15 -2 3 -9
-12 -8 -13 -15 -4 -34 6 -13 15 -46 18 -73 4 -27 14 -77 22 -112 7 -35 16 -82
19 -105 12 -93 25 -150 44 -194 24 -54 24 -53 7 -53 -16 0 -57 -41 -57 -57 0
-17 -71 -84 -81 -77 -16 9 -79 -17 -103 -43 -18 -19 -35 -26 -73 -28 -150 -8
-242 -96 -132 -125 45 -12 238 2 331 24 31 7 85 11 120 9 35 -2 83 -3 108 -2
68 3 81 2 130 -8 32 -6 58 -5 90 4 57 17 71 32 70 74 0 19 -2 99 -4 179 -6
210 -6 248 -3 418 2 150 3 154 27 173 14 10 30 19 36 19 7 0 30 18 53 40 45
44 47 45 48 28 5 -78 2 -114 -15 -178 -25 -95 -27 -181 -7 -301 8 -52 15 -97
15 -102 0 -4 12 -20 28 -36 24 -25 30 -45 46 -153 20 -125 44 -185 72 -174 7
3 23 -8 36 -25 62 -83 104 -116 174 -137 38 -12 103 -25 145 -30 107 -13 117
-21 121 -85 2 -28 -1 -65 -6 -80 -4 -16 -6 -51 -3 -80 4 -43 10 -56 38 -79 18
-15 41 -28 50 -28 9 0 32 -6 50 -14 67 -27 245 -35 379 -16 36 5 79 7 95 5 17
-2 62 -6 102 -9 54 -5 82 -12 109 -31 20 -14 51 -25 68 -25 30 0 31 1 33 51 2
42 0 50 -13 45 -9 -3 -18 -6 -20 -6 -2 0 -4 -11 -4 -25 0 -30 -7 -31 -40 -5
l-25 19 23 21 c22 21 30 60 12 60 -14 0 -43 -47 -36 -59 13 -20 -16 -22 -48
-2 -39 25 -74 27 -82 6 -11 -28 -34 -17 -30 14 3 28 2 28 -27 20 -32 -9 -47
-19 -29 -19 7 0 12 -4 12 -10 0 -5 -7 -10 -15 -10 -10 0 -15 11 -15 35 0 19
-4 35 -8 35 -18 0 -44 -40 -38 -56 4 -10 1 -21 -6 -26 -21 -13 -30 -9 -23 11
10 32 -4 67 -26 67 -18 0 -20 -6 -17 -43 2 -34 0 -43 -15 -47 -16 -4 -18 1
-15 41 1 26 -1 48 -7 49 -19 7 -35 -12 -38 -46 -3 -19 -9 -36 -14 -37 -6 -2
-7 18 -1 58 7 43 6 65 -2 73 -14 14 -30 -8 -30 -41 0 -13 -4 -23 -10 -23 -5 0
-7 13 -3 30 5 25 2 30 -15 30 -25 0 -39 -18 -36 -50 2 -34 -14 -73 -27 -65
-10 7 -8 86 5 115 3 8 1 22 -4 30 -9 13 -14 10 -35 -15 -21 -25 -23 -26 -18
-7 3 13 1 22 -6 22 -7 0 -9 5 -5 13 5 7 -2 5 -16 -4 -14 -9 -27 -27 -30 -40
-5 -22 -7 -22 -13 -5 -5 12 -2 23 9 31 21 15 9 39 -16 32 -13 -3 -17 0 -13 9
8 23 -23 16 -41 -9 -17 -22 -17 -22 -10 8 4 17 7 40 7 52 -1 22 0 23 28 6 16
-10 29 -20 29 -23 0 -3 12 -6 28 -7 15 0 51 -7 80 -14 28 -7 55 -9 59 -5 16
16 -18 41 -73 55 -91 21 -88 20 -76 34 14 16 6 27 -38 56 -19 13 -45 35 -57
49 -20 24 -28 26 -127 28 -102 3 -131 8 -122 22 2 4 -16 8 -41 9 -35 2 -55 10
-90 39 -25 21 -42 42 -39 50 5 13 -44 44 -70 44 -42 0 -80 181 -74 354 1 43
-9 66 -30 66 -13 0 -22 -9 -26 -26 -13 -53 -28 8 -31 131 -3 119 7 194 33 244
8 14 14 36 14 49 0 12 4 22 10 22 5 0 12 16 16 35 3 19 10 38 15 41 5 3 9 14
9 26 0 24 40 98 53 98 5 0 7 6 4 13 -5 13 27 82 42 91 6 4 6 -8 0 -30 -8 -25
-7 -39 2 -50 15 -19 39 -1 39 30 0 12 7 31 16 42 15 19 16 19 9 -1 -27 -77
-27 -121 -2 -112 13 4 22 21 37 73 13 44 46 69 122 94 50 15 118 94 141 162
11 29 27 60 37 68 10 8 22 32 26 53 6 35 4 39 -12 35 -10 -2 -25 -17 -33 -33
-8 -17 -17 -32 -22 -35 -4 -3 -9 -16 -12 -30 -3 -14 -4 9 -2 50 3 78 34 183
60 209 12 12 15 12 15 2 0 -8 16 3 35 23 20 22 40 34 46 30 8 -4 9 -3 5 4 -4
7 -3 12 2 12 12 0 24 29 16 41 -8 14 -60 -17 -84 -51 -12 -17 -26 -28 -31 -24
-5 3 -18 3 -28 -1 -47 -15 -120 -298 -85 -334 16 -17 0 -53 -36 -86 l-23 -20
14 25 c9 18 14 68 15 170 1 102 6 164 18 210 10 36 20 77 23 92 7 38 21 35 39
-8 8 -20 17 -34 20 -31 9 9 -8 55 -26 72 -16 15 -17 20 -4 63 8 26 17 54 21
62 9 21 9 20 18 75 4 28 12 61 17 75 15 40 59 79 96 86 21 4 36 14 39 25 6 20
30 32 45 22 7 -3 8 -1 4 5 -8 14 50 46 69 38 8 -3 15 -1 17 4 4 13 113 51 163
58 75 9 173 3 203 -12 62 -32 123 -98 145 -159 5 -14 2 -16 -18 -11 -19 5 -27
1 -32 -12 -4 -11 -13 -25 -20 -33 -12 -11 -11 -17 5 -35 11 -11 21 -27 24 -35
2 -8 15 -16 28 -18 31 -5 72 -43 65 -61 -2 -7 0 -10 5 -7 6 3 10 3 10 -2 0 -4
15 -24 33 -43 41 -44 91 -145 81 -162 -4 -7 -3 -10 1 -6 5 5 24 -21 44 -56 37
-65 67 -106 133 -179 l38 -42 -2 75 c0 41 -3 63 -5 48 -6 -36 -15 -35 -45 5
-43 56 -41 84 5 100 24 9 21 -9 -5 -27 -20 -14 -20 -16 -3 -22 25 -10 49 8 53
41 2 17 0 25 -7 20 -6 -3 -11 -2 -11 3 0 16 -61 0 -75 -21 -8 -11 -16 -19 -18
-16 -2 2 -32 58 -67 124 -35 66 -70 125 -79 132 -18 13 -29 138 -21 238 l5 60
35 0 35 0 1 -63 c0 -35 -3 -65 -7 -68 -12 -7 2 -44 17 -44 11 0 14 -21 14 -99
0 -83 3 -102 20 -124 11 -14 20 -31 20 -38 0 -8 3 -9 9 -4 5 6 12 138 15 295
4 157 11 289 15 293 5 5 21 7 37 5 l28 -3 -2 -100 c-3 -113 11 -242 27 -258 8
-8 11 42 9 183 -3 187 -4 195 -23 195 -11 1 -25 4 -31 8 -20 12 -74 -4 -85
-25 -6 -11 -8 -37 -4 -58 4 -22 2 -47 -4 -57 -8 -14 -11 -15 -11 -3 -1 18 -45
70 -59 70 -20 0 -20 -18 0 -44 l20 -26 -42 0 -42 0 22 24 c30 31 10 44 -26 18
l-28 -20 3 -142 c3 -106 0 -140 -8 -135 -7 4 -10 19 -7 34 3 14 -1 46 -8 71
-8 25 -19 65 -26 90 -8 31 -26 59 -59 93 -55 55 -59 63 -66 132 -3 27 -12 57
-20 65 -12 12 -13 6 -10 -45 5 -68 2 -78 -22 -66 -9 5 -35 13 -57 18 -36 7
-40 11 -42 41 -5 62 -7 72 -19 72 -15 0 -38 -52 -25 -59 5 -3 7 -18 4 -32 -4
-21 -11 -26 -34 -27 -35 -1 -215 -62 -266 -90 -24 -13 -33 -1 -33 43 0 13 -5
27 -10 30 -6 4 -8 10 -6 14 5 8 -14 30 -48 59 -23 18 -56 28 -106 31 -25 1
-49 6 -54 11 -12 12 3 70 18 70 14 0 39 47 32 59 -3 4 8 23 24 43 16 19 32 47
36 62 3 15 13 30 20 33 8 3 14 11 14 17 0 7 16 20 35 29 24 11 36 25 40 44 10
47 29 77 60 93 33 17 174 21 239 8 33 -7 42 -6 58 12 14 15 31 20 70 20 42 0
49 3 40 12 -8 8 -41 12 -94 12 -63 -1 -77 1 -62 9 10 6 43 11 72 11 44 0 52 3
52 19 0 17 -6 19 -52 14 -29 -3 -64 -9 -77 -13 -20 -6 -22 -4 -17 12 6 20 17
149 20 224 0 25 11 64 24 88 24 47 28 72 11 72 -11 0 -9 69 8 270 8 101 5 215
-6 244 -6 16 -12 56 -12 90 -2 98 0 97 -148 95 -128 -1 -164 6 -184 39 -5 7
-17 10 -27 7 -27 -9 -34 11 -10 35 25 25 40 26 40 2 0 -10 6 -27 14 -37 13
-18 26 -19 167 -16 127 2 151 1 147 -11 -3 -8 0 -29 8 -46 15 -38 65 -63 106
-55 26 5 78 47 78 64 0 4 17 6 38 4 20 -2 81 -4 136 -6 67 -2 100 -7 103 -15
3 -7 0 -37 -6 -66 -5 -29 -13 -93 -15 -143 -3 -49 -8 -106 -11 -125 -10 -76
-18 -115 -24 -125 -3 -5 -6 -17 -6 -25 -1 -8 -9 -44 -19 -78 -19 -64 -45 -89
-80 -76 -14 5 -46 -20 -46 -37 0 -13 20 -50 34 -64 68 -68 220 -96 336 -62 43
12 45 14 48 55 4 47 1 49 -33 26 -13 -9 -53 -18 -87 -21 -35 -3 -71 -12 -81
-18 -18 -13 -18 -13 0 -24 16 -9 15 -10 -9 -11 -15 0 -30 5 -33 10 -3 6 -15
10 -26 10 -25 0 -104 53 -113 76 -11 29 5 35 93 32 82 -3 87 -2 83 16 -4 13
-1 17 9 14 8 -3 13 -13 13 -22 -1 -10 6 -16 19 -16 11 0 25 -6 31 -13 8 -9 30
-12 74 -9 l62 4 0 34 0 33 -72 -5 c-40 -3 -79 -7 -85 -9 -8 -3 -13 5 -13 18 0
13 -5 28 -10 33 -7 7 -6 49 4 133 7 67 15 176 15 243 1 67 4 149 7 183 l5 60
-108 3 c-176 5 -228 9 -223 18 3 5 48 8 100 7 52 0 124 -2 160 -2 36 -1 71 -5
77 -9 7 -5 22 -64 32 -133 11 -68 36 -189 56 -269 20 -80 38 -165 41 -190 4
-25 8 -47 10 -49 9 -9 3 126 -6 160 -6 19 -12 49 -14 65 -5 37 -32 164 -57
269 -27 114 -26 134 11 147 45 15 55 42 33 81 -33 57 -103 42 -103 -22 l0 -28
-107 5 c-60 2 -141 7 -182 11 -73 6 -75 7 -82 36 -4 17 -10 68 -13 115 -3 47
-8 106 -12 133 -5 39 -4 47 9 47 9 0 22 6 29 13 7 7 39 32 71 56 59 45 72 76
42 101 -11 9 -12 16 -3 30 9 14 9 22 -1 33 -8 10 -10 28 -6 50 6 31 4 37 -24
53 -17 10 -30 25 -28 33 1 8 -10 22 -25 30 -24 14 -30 14 -62 -2 -33 -15 -36
-15 -45 1 -8 13 -12 14 -22 5 -9 -10 -10 -15 0 -27 16 -19 -4 -32 -24 -16 -32
27 2 81 41 66 8 -3 14 1 14 9 0 27 -54 18 -85 -15 -27 -28 -27 -30 -11 -54 9
-14 16 -28 16 -30 0 -3 -30 -14 -68 -25 -80 -24 -96 -44 -112 -144 -5 -36 -13
-73 -16 -81 -4 -11 0 -16 10 -16 20 0 35 35 37 87 2 21 8 46 15 57 7 10 10 24
7 32 -8 21 64 46 145 49 40 1 75 -1 77 -6 7 -11 -34 -33 -65 -35 -66 -2 -86
-24 -93 -106 -2 -20 -14 -49 -26 -65 -21 -26 -22 -28 -5 -32 10 -2 20 2 22 8
2 6 9 11 15 11 8 0 7 -4 -1 -12 -17 -17 -15 -28 4 -28 9 0 18 9 21 20 6 24 10
24 28 6 10 -9 13 -38 11 -103 -3 -92 -22 -157 -43 -149 -7 3 -15 1 -17 -3 -9
-15 -74 -3 -116 20 -22 12 -41 25 -41 28 -7 34 -4 79 5 90 13 17 17 121 4 121
-5 0 -11 -7 -14 -15 -4 -8 -16 -15 -28 -15 -12 0 -33 -10 -45 -21 -19 -18 -25
-19 -32 -8 -5 8 -9 21 -10 29 -1 8 -3 24 -5 35 -2 11 -7 46 -12 78 -5 32 -14
63 -20 69 -7 7 -12 22 -12 34 0 12 -7 27 -15 34 -9 7 -14 19 -11 25 11 30 -79
139 -157 189 -78 50 -122 66 -204 73 -58 5 -73 9 -69 20 3 8 -1 29 -8 48 -17
39 -85 80 -117 70 -13 -4 -21 -1 -26 12 -15 43 -34 53 -102 53 -63 0 -67 2
-83 30 -10 17 -25 33 -35 37 -23 9 -42 33 -43 56 0 9 -4 17 -9 17 -5 0 -11 9
-14 20 -3 11 -6 23 -7 25 0 3 -17 39 -36 81 -33 74 -36 94 -10 94 12 0 28 24
40 63 3 10 -3 44 -13 75 -10 31 -22 70 -25 86 -10 43 -54 94 -89 104 -18 5
-77 10 -132 11 -55 1 -112 3 -127 5 -16 1 -39 3 -53 4 -16 1 -30 11 -37 27 -6
13 -27 36 -47 49 -34 24 -44 25 -141 23 -93 -2 -107 -5 -130 -25z m173 -88
c10 -10 -4 -34 -21 -34 -8 0 -23 7 -31 14 -13 12 -26 13 -56 6 -60 -14 -74
-12 -51 5 20 15 146 22 159 9z m504 -66 c28 -31 43 -62 43 -89 0 -21 -1 -21
-19 -5 -16 14 -20 15 -30 2 -7 -8 -10 -20 -6 -26 3 -5 3 -15 -1 -21 -4 -7 -13
2 -21 20 -10 20 -23 31 -37 31 -23 0 -69 70 -57 88 19 29 101 29 128 0z m-432
2 c16 -26 87 -231 100 -286 7 -33 27 -91 44 -129 17 -37 31 -74 31 -81 0 -7
16 -25 36 -40 34 -26 37 -27 62 -12 34 21 42 58 14 58 -15 0 -19 5 -15 20 5
18 -5 25 -30 21 -4 -1 -3 7 2 17 12 23 -2 47 -23 39 -22 -9 -20 2 5 29 23 24
19 60 -5 51 -9 -4 -12 2 -8 19 3 20 0 24 -18 24 -22 0 -22 1 -7 18 30 33 18
49 -30 43 -7 -1 -13 3 -13 9 0 5 7 10 15 10 9 0 20 10 24 23 9 22 9 21 21 -8
7 -16 20 -55 30 -86 10 -31 30 -79 45 -108 23 -43 30 -49 42 -39 18 15 10 50
-23 100 -13 21 -24 43 -24 51 0 7 -12 48 -26 91 -14 43 -23 81 -20 84 3 2 8
-4 11 -14 4 -10 18 -44 32 -74 25 -54 67 -153 123 -295 15 -38 31 -78 35 -87
4 -10 3 -18 -3 -18 -14 0 -58 78 -67 117 -8 38 -23 52 -36 32 -11 -18 -2 -64
22 -109 20 -37 28 -111 8 -78 -6 10 -16 15 -26 11 -13 -5 -15 -2 -9 20 6 24 3
27 -18 27 -14 0 -30 -8 -35 -19 -12 -21 -5 -31 21 -31 15 0 17 -5 12 -26 -6
-25 -5 -26 19 -22 16 3 28 0 31 -8 3 -8 12 -14 20 -14 16 0 33 -46 22 -57 -3
-3 -14 1 -24 10 -23 21 -27 21 -47 1 -15 -16 -16 -14 -10 18 7 35 6 36 -32 42
-75 12 -78 12 -81 -11 -2 -13 -8 -23 -14 -23 -13 0 -47 41 -48 57 0 20 -47 45
-77 41 -28 -3 -28 -2 -71 132 -23 74 -51 162 -62 195 -11 33 -22 80 -26 105
l-7 45 22 -22 c11 -12 21 -29 21 -38 0 -20 44 -20 65 2 16 15 16 17 -2 27 -10
6 -19 24 -20 40 -4 49 -10 57 -38 50 -14 -3 -25 -4 -25 -1 0 16 14 37 25 37 7
0 18 7 25 15 15 18 26 19 35 5z m155 -69 c0 -9 -24 -21 -41 -21 -16 0 -10 18
9 23 28 8 32 7 32 -2z m-343 -49 c17 -3 28 -71 14 -85 -6 -6 -11 -24 -11 -40
0 -16 -6 -35 -14 -43 -13 -12 -15 -10 -18 18 -2 25 -8 33 -23 33 -16 0 -20 -7
-21 -35 0 -19 -6 -46 -12 -60 -10 -24 -11 -24 -11 11 -1 43 -23 68 -45 50 -10
-8 -12 -24 -9 -53 5 -31 3 -40 -7 -36 -8 2 -14 19 -14 39 -1 29 -4 34 -23 33
-30 -1 -31 32 -1 63 21 22 21 24 3 17 -18 -7 -18 -6 -6 9 7 9 17 15 21 12 5
-3 15 3 22 13 7 11 31 28 52 39 34 18 56 21 103 15z m363 -7 c0 -8 -7 -15 -16
-15 -14 0 -14 3 -4 15 7 8 14 15 16 15 2 0 4 -7 4 -15z m320 -314 c11 -21 10
-26 -6 -38 -32 -24 -42 -16 -22 17 10 15 10 22 0 32 -6 6 -12 18 -12 26 0 11
2 11 13 0 8 -7 20 -24 27 -37z m-605 -26 c14 -13 25 -28 25 -34 0 -5 8 -12 18
-15 12 -4 25 -28 38 -68 22 -70 43 -90 75 -70 19 12 24 10 54 -25 19 -21 34
-41 35 -45 0 -5 6 -8 14 -8 8 0 18 -10 21 -21 6 -18 12 -20 46 -15 28 5 46 2
65 -11 22 -14 31 -15 57 -5 17 7 35 8 39 4 11 -11 -55 -52 -97 -59 -36 -6 -37
-5 -30 18 6 18 -3 12 -35 -23 -23 -27 -48 -48 -56 -48 -16 0 -19 36 -4 45 6 3
10 11 10 17 0 6 -22 -13 -48 -41 -57 -60 -93 -68 -111 -23 -6 15 -22 32 -34
37 -12 6 -22 19 -22 30 0 15 10 22 43 29 30 6 42 14 40 24 -4 23 -23 25 -44 5
-19 -19 -64 -28 -64 -12 0 5 -8 9 -17 9 -17 1 -17 1 0 14 22 17 22 26 -1 26
-11 0 -27 -9 -37 -20 -23 -25 -42 -12 -51 36 -3 19 -10 37 -15 40 -5 3 -9 20
-9 38 0 19 -9 41 -21 55 -12 12 -22 36 -23 53 -1 26 6 36 39 59 50 35 69 36
100 4z m726 -145 c21 -12 25 -41 8 -72 -8 -14 -8 -23 0 -31 18 -18 13 -31 -20
-46 -18 -8 -34 -22 -36 -31 -3 -10 -14 -20 -25 -23 -19 -5 -19 -6 2 -47 25
-50 17 -70 -16 -39 -20 19 -26 20 -40 8 -15 -12 -52 -14 -63 -4 -1 2 19 26 45
53 96 97 133 159 105 176 -5 4 -20 -7 -34 -24 -27 -32 -41 -22 -30 22 16 61
55 83 104 58z m186 -111 c11 -11 7 -39 -8 -49 -22 -16 -99 -134 -99 -153 0
-29 -106 -135 -121 -120 -6 6 2 24 25 53 19 24 33 47 31 51 -8 13 29 74 72
119 24 24 43 49 43 55 0 14 29 55 39 55 4 0 12 -5 18 -11z m-105 -31 c-9 -9
-12 -7 -12 12 0 19 3 21 12 12 9 -9 9 -15 0 -24z m-212 -13 c0 -18 -47 -65
-64 -65 -17 0 -16 5 14 35 31 32 50 43 50 30z m390 -55 c0 -5 -2 -10 -4 -10
-3 0 -8 5 -11 10 -3 6 -1 10 4 10 6 0 11 -4 11 -10z m-37 -33 c5 -15 -62 -118
-81 -125 -18 -6 -15 47 3 54 8 3 17 16 21 27 7 24 33 57 44 57 5 0 10 -6 13
-13z m329 -42 c62 -25 131 -70 164 -106 29 -32 85 -151 86 -180 0 -45 20 -172
28 -188 5 -9 11 -24 14 -35 4 -13 12 -17 27 -13 16 4 19 2 13 -11 -24 -57 -34
-97 -29 -113 4 -11 2 -19 -4 -19 -6 0 -11 3 -11 8 0 4 -4 13 -9 20 -7 11 -15
11 -46 -2 -31 -14 -37 -20 -33 -41 4 -21 3 -23 -13 -15 -25 14 -29 13 -29 -11
0 -18 -3 -19 -15 -9 -12 10 -16 9 -22 -6 -3 -11 -12 -23 -20 -27 -7 -4 -13
-13 -13 -20 0 -7 -9 -18 -21 -25 -11 -7 -19 -19 -16 -25 19 -52 19 -59 -1 -53
-30 10 -39 -14 -13 -33 24 -18 19 -31 -11 -31 -15 0 -18 -5 -13 -20 5 -16 2
-20 -15 -20 -29 0 -22 -34 8 -38 27 -4 28 -13 2 -30 -12 -7 -18 -16 -15 -21 2
-5 -2 -15 -11 -22 -14 -11 -13 -15 8 -31 22 -17 22 -19 5 -29 -17 -10 -18 -12
-1 -30 14 -15 14 -21 4 -34 -10 -12 -9 -16 4 -21 22 -8 20 -24 -3 -24 -33 0
-45 -25 -26 -54 10 -14 21 -26 25 -26 4 0 6 -18 4 -39 -4 -44 4 -50 70 -53 22
-1 36 -6 36 -14 0 -7 9 -18 19 -24 33 -17 38 10 8 36 -15 13 -27 28 -27 34 0
5 -7 11 -15 11 -28 3 -33 4 -41 12 -13 13 36 7 65 -8 16 -8 31 -11 35 -8 3 4
6 -3 6 -13 0 -25 18 -44 36 -37 18 7 18 18 -1 37 -14 14 -14 18 0 46 8 16 20
30 25 30 15 0 12 -11 -7 -33 -17 -18 -17 -19 0 -32 17 -12 17 -20 8 -90 -6
-42 -11 -81 -11 -86 0 -5 -5 -9 -11 -9 -5 0 -8 4 -5 9 3 5 0 14 -8 20 -10 8
-17 6 -31 -9 -28 -31 -46 -26 -38 10 5 27 3 30 -21 30 -14 0 -26 5 -26 10 0 6
11 10 24 10 34 0 41 16 14 34 -49 34 -107 4 -104 -54 1 -26 7 -36 23 -40 16
-3 20 -9 14 -19 -5 -7 -13 -11 -19 -7 -6 3 -14 1 -18 -6 -8 -12 -7 -232 1
-258 3 -8 9 -82 14 -164 9 -148 17 -173 48 -161 14 5 21 -5 33 -46 8 -26 6
-31 -16 -39 -13 -5 -24 -15 -24 -23 0 -19 29 -57 44 -57 8 0 19 -6 25 -14 9
-11 6 -18 -14 -34 -14 -12 -25 -27 -24 -34 3 -25 -13 -57 -31 -63 -27 -8 -31
-51 -8 -80 15 -20 29 -25 64 -25 51 0 101 -19 125 -46 22 -25 44 -127 29 -132
-6 -2 -23 -14 -38 -26 -15 -12 -52 -37 -84 -56 -61 -36 -55 -24 -97 -195 -11
-44 -33 -127 -49 -185 l-28 -105 -47 -24 c-48 -24 -63 -51 -28 -51 11 0 23 5
26 10 9 15 35 12 35 -3 0 -7 -20 -23 -45 -35 -25 -12 -45 -26 -45 -31 0 -14
32 -23 44 -11 15 15 36 12 36 -5 0 -9 -16 -25 -35 -36 -38 -23 -41 -29 -23
-47 9 -9 8 -12 -4 -12 -9 0 -18 -5 -20 -11 -2 -6 -29 -12 -59 -15 -31 -2 -74
-6 -95 -8 -27 -4 -44 0 -56 11 -17 15 -17 17 2 30 26 18 12 40 -28 46 -25 4
-24 4 5 6 65 3 49 48 -20 53 -59 4 -61 28 -2 28 38 0 46 3 43 17 -2 9 -22 23
-48 32 l-45 15 33 9 c38 12 41 40 4 45 -25 4 -30 27 -7 36 22 8 18 36 -5 36
-33 0 -23 25 11 27 38 3 43 7 36 28 -4 9 -19 15 -42 15 -50 0 -48 28 2 32 27
2 39 8 41 21 3 14 -4 17 -37 17 -23 0 -41 5 -41 10 0 6 9 10 19 10 33 0 51 11
51 32 0 18 -4 20 -40 14 -32 -5 -40 -3 -40 9 0 8 9 15 19 15 26 0 66 34 57 48
-4 7 -13 12 -20 12 -7 0 -12 10 -12 23 1 17 -4 21 -21 20 -36 -4 -30 33 7 46
48 16 39 47 -12 42 -28 -3 -31 19 -4 40 28 22 26 39 -5 39 -29 0 -23 17 12 29
33 12 37 36 7 55 -14 8 -21 6 -32 -9 -15 -19 -15 -19 -16 7 0 14 -3 33 -6 42
-5 13 -1 14 25 6 21 -6 33 -5 41 5 16 20 -13 39 -39 26 -29 -16 -31 -14 -31
20 0 16 4 28 10 24 5 -3 21 -3 35 1 40 10 28 39 -15 39 -28 0 -36 4 -38 20 -2
15 7 25 33 38 19 9 35 24 35 33 0 14 -7 16 -42 10 -43 -6 -43 -6 -15 9 35 20
37 49 2 43 -21 -4 -26 -1 -32 20 -3 15 -2 27 4 29 44 15 53 53 12 53 -26 0
-24 13 3 25 13 6 24 18 26 29 3 15 -1 18 -22 14 -21 -4 -26 -1 -26 14 0 10 7
21 15 24 20 8 19 31 -1 42 -13 7 -18 37 -24 158 -15 257 -22 415 -24 527 -2
59 -6 107 -9 107 -4 0 -12 0 -19 0 -8 0 -9 -40 -5 -152 4 -84 8 -162 11 -173
2 -12 7 -151 10 -310 6 -285 12 -403 22 -478 5 -29 3 -36 -8 -32 -22 9 -40 64
-48 150 -5 44 -11 94 -15 110 -4 17 -6 53 -5 82 1 45 -2 54 -24 69 -34 22 -33
46 5 89 30 34 31 36 14 61 -14 21 -16 48 -14 158 2 72 -1 138 -6 146 -14 23
-6 600 11 728 8 63 17 166 20 230 6 107 9 124 44 201 42 94 87 156 171 243 50
51 93 109 142 190 17 27 17 27 104 21 57 -4 108 -14 145 -28z m-769 -7 c25
-12 36 -28 20 -28 -5 0 -19 -9 -32 -19 -20 -16 -22 -21 -11 -41 10 -18 9 -21
-1 -15 -7 5 -17 2 -23 -6 -18 -23 -59 -39 -93 -36 -42 4 -55 17 -17 17 53 0
106 20 102 38 -3 13 -12 16 -48 12 -70 -8 -189 -2 -227 11 -57 18 -24 33 69
31 80 -2 164 13 204 36 24 14 25 14 57 0z m-410 -23 c-4 -15 -36 -12 -41 3 -3
9 3 13 19 10 13 -1 23 -7 22 -13z m-8 -65 c13 -6 15 -9 5 -9 -8 0 -22 4 -30 9
-18 12 -2 12 25 0z m2023 -54 c5 -23 -12 -41 -30 -30 -7 5 -26 7 -43 6 l-30
-3 27 24 c31 29 71 30 76 3z m-1543 -22 c-8 -17 -16 -39 -18 -50 -7 -42 -29
-142 -43 -199 -20 -83 -42 -291 -36 -343 2 -24 -1 -110 -8 -190 -6 -81 -13
-281 -16 -444 -2 -164 -8 -317 -14 -340 -7 -34 -6 -45 5 -54 17 -13 26 -65 12
-81 -15 -20 -47 -16 -45 5 3 43 -3 118 -12 132 -7 12 -12 12 -29 -4 -12 -11
-21 -26 -20 -35 0 -12 3 -11 9 4 8 18 9 17 9 -7 1 -14 -5 -29 -11 -32 -10 -5
-10 -7 0 -12 15 -7 16 -54 0 -54 -6 0 -8 3 -5 7 4 3 3 11 -3 17 -8 10 -15 104
-25 324 -2 45 -16 69 -34 57 -8 -5 -10 -64 -5 -206 6 -192 5 -199 -13 -199
-45 0 -74 154 -70 376 1 85 -1 158 -6 161 -5 3 -15 -1 -23 -9 -28 -27 -16
-419 15 -501 12 -30 5 -33 -33 -16 -15 7 -22 17 -18 23 8 13 10 106 2 101 -4
-2 -7 34 -7 80 -1 46 -4 88 -7 94 -4 5 -2 12 2 15 5 3 8 20 6 38 -15 155 -9
256 15 220 7 -11 9 -11 14 2 5 11 1 16 -14 16 -17 0 -19 4 -13 35 4 22 2 41
-6 50 -21 25 -36 17 -38 -22 -2 -20 -5 -40 -8 -44 -4 -8 -5 -382 0 -486 2 -54
-12 -42 -16 13 -2 28 -7 40 -15 37 -12 -5 -17 8 -14 34 1 8 -5 10 -16 6 -14
-6 -14 -2 5 22 16 20 19 31 11 35 -8 6 -8 9 0 14 6 4 11 12 11 18 0 7 -5 6
-14 -1 -11 -10 -16 -8 -21 9 -4 12 -2 27 4 34 5 6 8 22 4 34 -4 18 -2 21 13
15 14 -5 13 -2 -5 16 -17 17 -20 25 -11 36 7 8 9 19 5 25 -9 14 -19 235 -14
305 1 11 -1 47 -4 80 -3 33 -2 98 3 145 5 47 12 135 15 195 6 117 20 215 33
224 4 3 8 32 8 63 1 31 5 65 9 75 4 10 9 31 11 47 5 36 21 56 40 49 10 -4 11
-10 3 -24 -5 -11 -7 -24 -4 -29 10 -17 33 -11 40 10 3 11 11 20 18 20 8 0 8 3
-1 12 -7 7 -12 16 -12 20 0 12 50 9 92 -6 21 -8 35 -10 32 -5 -3 5 5 9 17 9
16 0 19 -3 11 -12 -15 -19 -24 -111 -12 -128 20 -30 33 12 34 110 1 33 3 35
41 41 22 3 50 9 63 13 20 7 22 5 20 -23 -1 -17 -5 -31 -8 -31 -3 0 -6 -40 -7
-90 -2 -73 0 -88 11 -84 17 7 24 32 32 116 11 116 16 130 54 143 19 7 36 11
38 10 1 -1 -5 -15 -13 -31z m122 -13 c3 -11 11 -22 19 -25 19 -7 18 -26 -1
-26 -8 0 -15 -7 -15 -15 0 -9 -7 -18 -15 -21 -8 -4 -15 -13 -15 -21 0 -7 -10
-33 -21 -56 -12 -23 -21 -58 -20 -78 1 -28 -4 -40 -21 -51 l-24 -16 7 67 c9
89 20 132 30 125 5 -3 9 14 9 36 0 26 8 53 21 71 24 34 39 37 46 10z m1478
-31 c0 -20 -14 -34 -65 -68 -63 -41 -80 -46 -87 -26 -4 12 48 70 90 100 40 28
62 26 62 -6z m13 -83 c3 -22 -3 -29 -35 -42 -72 -31 -80 -33 -93 -25 -12 7
-11 12 4 29 11 12 24 21 30 21 6 0 25 11 41 25 36 29 49 27 53 -8z m-228 -67
c0 -16 -4 -30 -8 -30 -5 0 -9 14 -10 30 0 17 4 30 9 30 5 0 9 -13 9 -30z m75
-165 c3 -88 9 -189 14 -225 4 -36 6 -71 4 -77 -3 -7 2 -16 11 -19 19 -7 22
-57 4 -72 -14 -10 -39 -15 -73 -13 -30 2 -48 36 -34 63 7 13 13 83 15 167 2
80 6 178 10 216 4 39 7 89 8 112 0 41 1 42 18 25 15 -15 19 -42 23 -177z m170
168 c9 -26 -29 -53 -76 -53 -54 0 -50 20 9 47 58 27 58 27 67 6z m-110 -79
c14 -6 14 -8 -1 -25 -23 -26 -34 -24 -34 6 0 26 7 29 35 19z m-394 -105 c-23
-14 -31 -27 -36 -63 -9 -55 -1 -78 23 -74 10 2 35 -10 55 -25 20 -15 53 -30
73 -33 20 -2 39 -6 43 -8 4 -3 26 4 49 14 33 15 42 16 42 5 0 -7 -8 -16 -18
-19 -24 -8 -56 -62 -42 -71 6 -4 22 1 35 9 24 16 25 16 25 -8 0 -23 -3 -24
-70 -24 -54 -1 -70 2 -70 13 0 8 -12 18 -27 21 -43 10 -102 46 -108 65 -3 10
-13 19 -22 21 -13 2 -17 19 -21 74 -4 71 -3 72 33 108 30 30 39 35 51 25 12
-10 10 -15 -15 -30z m-1117 -6 c-3 -15 -7 -30 -10 -35 -3 -4 0 -8 7 -8 7 0 4
-6 -6 -14 -27 -20 -37 -10 -29 27 11 54 47 82 38 30z m1126 -93 c0 -5 -4 -10
-10 -10 -5 0 -10 5 -10 10 0 6 5 10 10 10 6 0 10 -4 10 -10z m-1129 -12 c1 -7
1 -17 0 -22 -1 -4 -3 -56 -5 -115 -9 -261 -15 -325 -32 -309 -9 9 -5 210 5
264 6 29 7 68 4 87 -6 42 4 107 17 107 6 0 11 -6 11 -12z m1029 -46 c0 -5 -11
-14 -25 -20 -32 -15 -35 -15 -35 -1 0 5 4 8 9 5 4 -3 17 1 27 9 23 17 24 17
24 7z m18 -51 c-3 -18 0 -29 6 -28 6 1 10 -7 9 -19 -2 -17 4 -20 34 -21 19 -1
39 -5 44 -10 6 -6 -8 -10 -38 -9 -44 1 -49 4 -65 35 -10 19 -16 37 -14 40 11
18 -56 1 -71 -18 l-18 -22 0 31 c0 31 1 31 42 26 29 -3 45 0 54 10 17 21 22
17 17 -15z m909 -85 c-2 -5 -8 -11 -14 -13 -12 -4 -25 36 -16 50 7 12 35 -23
30 -37z m-1022 -6 c-2 -4 5 -20 16 -34 40 -51 19 -100 -98 -228 -9 -10 -21
-28 -27 -40 -15 -30 -42 -34 -56 -9 -9 17 -8 21 5 21 21 0 19 16 -5 40 l-20
20 25 0 c14 0 25 -5 25 -11 0 -6 4 -9 9 -7 12 4 141 157 141 167 0 5 -12 16
-26 26 -15 9 -23 20 -18 24 5 3 9 12 10 19 2 29 5 33 14 27 6 -4 8 -10 5 -15z
m-37 -69 c4 -23 -17 -45 -43 -46 -5 0 -9 -10 -7 -22 2 -12 -1 -24 -7 -27 -12
-8 -61 14 -61 27 0 5 7 4 15 -3 13 -10 19 -8 36 14 11 14 27 26 34 26 8 0 17
4 20 10 3 6 -1 7 -9 4 -12 -5 -16 1 -16 21 0 34 33 31 38 -4z m124 -123 c4
-107 2 -127 -14 -150 -23 -35 -23 -51 0 -44 14 5 18 1 17 -21 0 -16 -5 -28
-12 -27 -30 2 -34 5 -28 14 4 6 12 7 18 3 7 -3 4 3 -6 14 -16 18 -17 35 -13
143 3 68 8 125 11 128 3 3 5 18 5 34 0 15 4 28 9 28 5 0 11 -55 13 -122z m118
103 c0 -5 -11 -8 -25 -8 -14 0 -25 3 -25 8 0 5 11 9 25 9 14 0 25 -4 25 -9z
m53 2 c-7 -2 -20 -20 -29 -39 -9 -19 -23 -34 -31 -34 -10 0 -12 -6 -8 -20 4
-11 2 -20 -4 -20 -6 0 -11 3 -12 8 -8 62 -7 83 5 73 9 -8 19 -4 36 14 13 14
31 25 39 24 10 0 12 -2 4 -6z m105 -19 c2 -14 -3 -23 -16 -26 -16 -4 -19 0
-18 24 1 34 29 35 34 2z m-213 -98 c9 -39 20 -100 25 -136 6 -36 13 -79 16
-97 5 -28 4 -31 -14 -26 -18 4 -19 8 -9 24 15 23 1 37 -18 18 -12 -11 -13 -22
-5 -48 5 -19 7 -37 4 -42 -6 -10 34 -32 46 -24 6 4 6 15 0 30 -5 14 -6 25 -1
25 12 0 21 -26 21 -57 0 -20 -4 -24 -17 -18 -45 18 -55 18 -51 -1 2 -10 14
-21 28 -25 l25 -7 -27 -1 c-16 -1 -31 -2 -35 -3 -8 -3 -11 62 -18 347 -4 169
2 177 30 41z m128 52 c4 -14 -12 -58 -23 -58 -3 0 -12 -16 -19 -35 -7 -19 -19
-35 -28 -35 -10 0 -13 6 -9 16 3 9 9 27 12 40 3 13 11 21 17 17 6 -3 7 -1 3 6
-8 13 18 61 33 61 5 0 11 -6 14 -12z m65 -80 c6 -46 14 -129 18 -185 6 -91 5
-103 -9 -103 -14 0 -16 -14 -12 -111 3 -98 1 -110 -13 -107 -11 2 -26 31 -45
88 -39 117 -47 165 -32 187 18 28 38 110 32 134 -3 12 3 49 14 83 10 33 19 69
19 79 0 9 4 17 8 17 5 0 14 -37 20 -82z m-336 -34 c-6 -11 -8 -5 -6 23 3 49 6
55 11 21 2 -15 0 -35 -5 -44z m-12 22 c0 -3 -4 -8 -10 -11 -5 -3 -10 -1 -10 4
0 6 5 11 10 11 6 0 10 -2 10 -4z m-1845 -16 c3 -5 -15 -39 -40 -75 -25 -37
-45 -70 -45 -74 0 -4 -20 -29 -44 -57 -24 -27 -58 -66 -76 -86 -18 -21 -38
-38 -46 -38 -28 0 -13 40 26 71 22 18 42 41 46 53 10 34 54 86 80 96 25 10 31
24 14 35 -15 9 -12 30 9 56 19 25 65 36 76 19z m1837 -34 c15 5 19 3 13 -7
-20 -35 -47 -56 -66 -52 -24 7 -24 6 4 53 18 33 23 36 25 19 3 -15 8 -18 24
-13z m-940 -12 c-6 -48 -22 -52 -22 -5 0 30 4 41 13 38 7 -2 11 -16 9 -33z
m1844 -56 c-13 -308 -21 -358 -59 -358 -18 0 -19 5 -14 60 4 34 8 64 11 69 3
4 8 21 11 37 23 119 35 195 35 230 0 35 6 54 16 54 2 0 2 -42 0 -92z m-2682
51 c17 -25 10 -53 -11 -45 -8 3 -12 2 -9 -3 3 -5 -4 -20 -15 -35 -17 -22 -24
-24 -42 -15 -21 10 -21 10 -3 -5 24 -19 11 -38 -29 -42 l-26 -3 32 57 c35 62
70 111 81 111 4 1 14 -9 22 -20z m2016 -9 c-6 -11 -13 -20 -16 -20 -2 0 0 9 6
20 6 11 13 20 16 20 2 0 0 -9 -6 -20z m-204 -41 c-3 -31 -12 -49 -35 -71 -17
-16 -39 -40 -47 -54 -19 -28 -39 -31 -48 -8 -4 10 6 30 28 55 19 21 47 56 62
79 15 22 30 40 35 40 5 0 7 -19 5 -41z m-2006 27 c0 -2 -16 -23 -35 -46 -19
-23 -35 -48 -35 -56 0 -8 -25 -39 -55 -69 -66 -64 -73 -58 -10 9 25 27 46 54
46 62 1 8 2 18 3 23 0 5 19 25 41 45 41 36 45 39 45 32z m1885 -36 c3 -5 1
-10 -4 -10 -6 0 -11 5 -11 10 0 6 2 10 4 10 3 0 8 -4 11 -10z m45 2 c0 -2 -9
-15 -20 -29 -20 -25 -28 -14 -15 20 5 12 35 20 35 9z m-1686 -36 c9 -19 16
-36 16 -39 0 -2 -26 -24 -57 -48 -75 -56 -153 -129 -153 -143 0 -16 -62 -38
-74 -26 -6 6 19 38 67 87 42 43 96 106 121 141 25 34 50 62 55 62 5 0 16 -15
25 -34z m1626 0 c7 -10 8 -16 2 -16 -6 0 -13 6 -15 13 -3 6 -6 3 -6 -8 -1 -16
-3 -17 -10 -5 -6 8 -7 18 -5 22 3 5 2 8 -3 7 -17 -3 -24 1 -18 11 7 12 35 -1
55 -24z m353 14 c-3 -12 -8 -19 -11 -16 -5 6 5 36 12 36 2 0 2 -9 -1 -20z
m-1192 -51 c11 -11 18 -27 15 -35 -9 -23 -44 4 -42 33 1 28 1 28 27 2z m1015
-14 c-3 -8 -9 -22 -13 -31 -5 -14 -2 -16 20 -10 24 6 27 3 27 -19 0 -15 -6
-25 -14 -25 -21 0 -31 -21 -15 -30 7 -5 17 -6 21 -4 4 3 8 -10 8 -29 0 -25 -4
-34 -17 -34 -30 0 -42 29 -43 99 0 71 6 98 22 98 6 0 7 -7 4 -15z m-1946 -10
c0 -7 -33 -40 -74 -75 -16 -14 -26 -19 -21 -11 5 9 4 12 -3 7 -6 -4 -9 -12 -6
-19 2 -7 -9 -25 -24 -41 -25 -23 -30 -25 -36 -11 -4 11 5 30 25 54 62 70 87
93 98 87 5 -4 12 -2 16 4 6 10 25 14 25 5z m160 -60 c-11 -13 -11 -18 -1 -24
16 -10 4 -91 -13 -85 -6 2 -29 -14 -51 -36 -25 -25 -49 -39 -66 -40 -14 0 -30
-5 -37 -12 -7 -7 -12 -8 -12 -2 0 5 14 18 30 30 58 40 140 117 140 130 0 18
-14 18 -30 -1 -7 -8 -17 -12 -23 -8 -6 3 -7 1 -3 -5 4 -7 0 -12 -10 -12 -10 0
-15 -3 -11 -6 9 -9 -92 -86 -103 -79 -6 4 -7 -1 -3 -11 5 -14 3 -16 -12 -10
-11 4 -16 4 -12 0 8 -8 -11 -34 -24 -34 -5 0 -9 7 -9 16 0 17 88 101 102 97 4
-2 5 4 2 12 -7 18 7 20 27 3 12 -11 12 -11 2 1 -13 15 -1 41 19 41 5 0 21 11
36 25 15 14 33 23 39 20 7 -2 12 -1 12 3 -3 19 2 25 13 14 8 -8 8 -15 -2 -27z
m1950 -71 c0 -8 -4 -12 -10 -9 -5 3 -10 10 -10 16 0 5 5 9 10 9 6 0 10 -7 10
-16z m-2346 -24 c28 0 85 -62 100 -108 33 -100 33 -179 1 -152 -19 16 -24 11
-28 -26 -3 -28 -55 -113 -69 -114 -5 0 -8 10 -8 21 0 19 -4 21 -32 15 l-32 -6
20 22 c56 62 45 150 -25 219 -50 50 -97 59 -146 29 l-35 -22 0 23 c0 33 28 59
65 59 20 0 39 8 51 21 14 16 27 20 51 16 18 -3 35 -1 39 4 3 6 13 8 21 5 8 -3
20 -6 27 -6z m1166 -6 c0 -8 -4 -12 -10 -9 -5 3 -10 10 -10 16 0 5 5 9 10 9 6
0 10 -7 10 -16z m1157 -9 c7 -2 15 1 19 7 8 12 34 -63 34 -98 0 -26 -17 -34
-71 -34 -32 0 -39 3 -39 19 0 11 5 23 10 26 6 4 7 11 4 17 -5 7 2 9 19 4 14
-3 29 -1 32 4 10 16 -12 37 -45 44 -17 3 -30 10 -30 16 0 9 26 7 67 -5z m-112
-38 c19 -5 19 -5 -2 -12 -28 -9 -30 -31 -3 -40 11 -3 20 -13 20 -21 0 -19 -10
-18 -26 4 -10 14 -15 15 -25 5 -33 -33 -47 -5 -33 66 6 30 8 31 28 17 12 -7
31 -16 41 -19z m-1833 -36 c-3 -22 -8 -28 -23 -24 -14 4 -19 0 -19 -16 0 -12
6 -21 15 -21 19 0 19 -11 -1 -54 -18 -36 -45 -51 -62 -34 -13 13 -32 2 -32
-18 0 -13 11 -18 37 -15 23 3 25 -21 2 -45 -21 -22 -23 -22 -35 -6 -10 13 -15
14 -24 5 -15 -14 -4 -33 19 -33 22 0 41 -19 34 -36 -4 -10 -10 -10 -31 -1 -30
13 -62 42 -62 56 0 5 -7 14 -15 21 -10 8 -12 17 -6 24 6 7 6 17 1 26 -22 35
-11 68 33 98 23 16 58 33 77 37 19 4 47 20 62 36 15 16 29 29 31 29 2 0 2 -13
-1 -29z m2536 -22 c-2 -6 -8 -10 -13 -10 -5 0 -11 4 -13 10 -2 6 4 11 13 11 9
0 15 -5 13 -11z m-3022 -41 c17 -18 36 -46 42 -61 11 -27 9 -31 -48 -89 -33
-34 -60 -70 -60 -80 0 -42 -27 -101 -62 -135 -21 -20 -41 -34 -44 -30 -4 4 1
26 10 50 20 53 20 62 0 81 -17 18 -69 22 -79 6 -3 -6 -17 -7 -30 -4 -40 10
-103 -39 -97 -76 0 -3 -5 -12 -12 -20 -6 -8 -18 -27 -25 -42 -8 -15 -27 -40
-44 -55 -32 -30 -29 -21 14 42 32 48 57 106 52 121 -7 21 43 54 93 60 58 8
133 39 140 59 11 28 -6 32 -45 13 -22 -11 -55 -22 -73 -24 -68 -9 -84 -17
-130 -60 -67 -63 -85 -58 -43 12 33 55 71 92 82 80 3 -3 12 1 20 9 8 8 23 15
33 15 10 0 21 4 24 9 4 5 31 17 62 27 45 14 65 28 102 71 54 62 76 66 118 21z
m2174 22 c0 -5 -4 -10 -9 -10 -6 0 -13 5 -16 10 -3 6 1 10 9 10 9 0 16 -4 16
-10z m-70 -5 c0 -3 -12 -10 -26 -15 -30 -12 -31 -56 -1 -54 10 1 35 -14 55
-33 20 -19 59 -46 86 -59 81 -42 212 -34 340 21 18 8 19 5 11 -56 -5 -35 -8
-97 -9 -136 0 -44 -4 -73 -11 -73 -5 0 -23 -7 -40 -16 -16 -8 -52 -18 -80 -21
-27 -3 -63 -12 -80 -21 -37 -18 -85 -62 -85 -77 0 -6 -11 -22 -25 -35 -14 -13
-25 -28 -25 -33 0 -5 -13 -29 -30 -54 -16 -24 -30 -48 -30 -53 0 -5 -11 -4
-25 2 -36 16 -31 33 15 52 44 18 55 41 15 34 -21 -4 -26 -1 -31 21 -3 14 -8
33 -11 41 -11 33 -31 266 -32 388 -1 38 -5 52 -13 49 -14 -4 -14 -69 -2 -216
13 -156 10 -204 -11 -170 -9 14 -32 413 -27 466 3 36 8 42 30 46 15 2 30 5 35
6 4 0 7 -1 7 -4z m204 -61 c4 -11 16 -15 43 -12 31 2 38 0 37 -14 -1 -11 5
-18 15 -18 14 -1 14 -2 -2 -11 -9 -5 -21 -8 -26 -5 -4 3 -17 -4 -27 -15 -14
-15 -25 -18 -48 -13 -60 13 -156 72 -156 96 0 4 36 8 79 8 63 0 80 -3 85 -16z
m-1054 -65 c0 -11 -4 -18 -10 -14 -5 3 -7 12 -3 20 7 21 13 19 13 -6z m-1026
-183 c-8 -20 48 -50 65 -33 12 12 13 8 15 -33 1 -18 6 -25 19 -23 15 1 17 -4
12 -20 -3 -12 -8 -74 -9 -137 -4 -140 -16 -249 -28 -256 -5 -3 -13 8 -19 24
-9 27 -14 30 -50 28 -31 -2 -39 1 -39 15 0 23 -27 32 -38 12 -11 -19 -25 194
-17 242 3 17 7 55 9 85 1 31 8 66 15 78 10 18 9 23 -4 28 -21 9 -19 24 4 24
11 0 22 4 26 10 9 14 45 -27 39 -44z m-421 0 c6 -16 -11 -36 -30 -36 -16 0
-17 22 -1 38 16 16 25 15 31 -2z m-103 -31 c-7 -8 -16 -12 -21 -9 -13 8 -1 24
18 24 13 0 13 -3 3 -15z m1161 -30 c41 -3 115 -7 164 -10 66 -3 103 -11 137
-27 87 -42 65 -44 -151 -16 -46 6 -103 8 -127 4 -36 -4 -48 -2 -71 18 -15 12
-37 28 -48 35 -19 12 -19 12 1 6 12 -3 55 -8 95 -10z m340 5 c5 0 9 -4 9 -10
0 -14 -13 -12 -36 6 -17 14 -17 15 -1 10 10 -3 23 -6 28 -6z m-1483 -51 c-6
-19 -12 -40 -14 -46 -2 -7 -8 -13 -14 -13 -7 0 -8 6 0 19 5 11 10 28 10 38 0
18 20 47 27 40 1 -2 -2 -19 -9 -38z m70 -7 c2 -32 0 -42 -12 -42 -18 0 -32 38
-18 52 6 6 8 17 5 26 -4 10 -1 13 8 10 8 -3 15 -21 17 -46z m-123 20 c0 -18
-20 -15 -23 4 -3 10 1 15 10 12 7 -3 13 -10 13 -16z m1184 -70 c-4 -2 -21 4
-36 12 -15 9 -36 18 -45 22 -10 3 -18 10 -18 15 0 5 24 -3 54 -18 30 -16 50
-29 45 -31z m-1211 12 c21 -6 19 -9 -27 -35 -65 -37 -69 -36 -34 5 32 39 30
38 61 30z m-238 -24 c9 -17 8 -20 -9 -20 -25 0 -34 -14 -26 -41 5 -14 10 -18
17 -11 6 6 18 5 34 -2 27 -12 32 -26 9 -26 -22 0 -18 -26 6 -49 26 -24 19 -56
-10 -46 -24 7 -49 -20 -25 -29 9 -3 22 -2 29 4 9 8 14 4 18 -17 3 -15 3 -31 1
-34 -2 -4 -30 -10 -61 -14 -32 -4 -63 -11 -70 -17 -13 -11 -6 -41 8 -32 5 3
19 8 31 11 94 22 118 12 118 -52 0 -43 -1 -45 -37 -54 -21 -5 -57 -8 -80 -6
-23 3 -61 -2 -84 -10 -55 -20 -75 -19 -99 5 -18 18 -20 18 -29 3 -6 -11 -4
-21 6 -32 17 -16 101 -32 109 -20 17 28 91 -20 78 -50 -4 -9 -12 -31 -18 -48
-8 -24 -17 -33 -33 -33 -12 0 -25 -5 -28 -10 -11 -18 17 -41 44 -38 14 2 26
-1 26 -7 1 -5 6 -20 13 -32 8 -15 9 -24 1 -28 -6 -4 -8 -18 -4 -34 5 -22 1
-19 -24 16 -28 38 -98 93 -119 93 -4 0 -34 31 -65 68 -32 37 -66 73 -77 80
-11 7 -20 19 -20 26 0 9 -12 16 -27 18 -20 2 -28 9 -29 23 -1 11 -2 24 -3 29
-1 5 -10 1 -20 -8 -19 -17 -19 -17 -14 4 6 23 39 41 60 33 7 -3 17 6 22 18 5
13 10 19 10 12 1 -14 31 -6 31 8 0 5 -10 13 -22 18 -29 11 -55 40 -60 66 -2
17 2 20 29 18 26 -2 32 1 35 20 2 15 9 21 22 19 17 -3 18 1 13 42 -4 28 -3 46
3 46 6 0 11 -11 11 -25 1 -14 3 -29 4 -35 1 -5 3 -14 4 -20 1 -11 31 -14 31
-2 0 4 -5 24 -11 45 -12 45 -3 120 14 114 7 -2 19 2 28 9 27 24 122 53 176 53
43 1 54 -3 63 -19z m1743 4 c29 -9 14 -29 -24 -32 -33 -4 -194 14 -233 25 -15
4 -16 7 -5 15 14 9 225 2 262 -8z m-343 -130 c0 -45 -3 -85 -8 -88 -4 -2 -6
32 -4 75 1 48 -2 89 -9 102 -11 20 -11 21 4 8 13 -11 17 -31 17 -97z m78 -71
c-1 -92 -6 -164 -12 -172 -10 -13 -12 -66 -16 -571 -2 -262 -3 -250 15 -250
22 0 25 39 29 395 3 182 10 362 16 400 6 39 12 129 13 200 2 96 6 130 15 129
6 -1 22 -2 34 -2 20 -2 20 -3 5 -15 -16 -11 -18 -37 -20 -235 -1 -122 -4 -222
-7 -222 -3 0 -5 -87 -5 -192 0 -172 2 -193 17 -196 24 -5 27 20 33 373 6 315
11 434 17 440 3 3 3 -684 0 -953 -2 -102 -5 -131 -14 -126 -24 15 -105 14
-118 -1 -20 -24 -103 -15 -94 10 3 7 1 16 -5 20 -14 8 -14 55 -1 55 15 0 12
16 -5 34 -10 10 -12 17 -4 21 6 4 9 16 6 26 -3 11 -1 19 4 19 5 0 9 9 9 20 0
11 -5 20 -10 20 -7 0 -7 6 0 19 7 13 7 22 0 26 -5 3 -10 20 -10 37 0 25 2 28
14 19 33 -27 34 -14 52 607 6 208 8 222 26 222 17 0 18 -9 16 -157z m288 110
c0 -9 10 -22 23 -29 23 -12 23 -12 2 -19 -12 -3 -21 -9 -22 -13 -6 -48 -3 -65
14 -77 15 -11 16 -13 2 -18 -17 -7 -21 -37 -5 -37 6 0 8 -10 5 -23 -5 -18 -1
-26 17 -35 22 -10 22 -11 2 -11 -39 -2 -47 -25 -25 -65 17 -29 18 -36 6 -36
-19 0 -19 -29 0 -36 11 -4 12 -11 5 -23 -6 -12 -5 -22 2 -29 9 -9 9 -18 1 -34
-6 -13 -11 -46 -11 -74 0 -29 -3 -61 -6 -72 -4 -11 -2 -23 4 -27 15 -9 12 -35
-5 -35 -22 0 -23 7 -41 480 -3 91 -10 180 -14 198 -8 30 -7 32 20 32 20 0 27
-5 26 -17z m-83 -30 c-1 -21 -2 -44 -2 -50 -1 -7 -5 -13 -10 -13 -5 0 -11 23
-13 50 -2 39 0 50 12 50 11 0 15 -10 13 -37z m289 -75 c3 -7 -5 -20 -16 -29
-19 -16 -21 -16 -33 0 -18 23 -16 29 10 34 12 2 25 5 29 6 3 0 8 -5 10 -11z
m-282 -45 c0 -27 1 -85 3 -130 4 -71 2 -83 -12 -84 -14 -1 -14 -2 1 -6 18 -5
23 -41 34 -223 3 -58 7 -132 10 -165 4 -59 7 -257 5 -325 -2 -49 -13 -64 -45
-56 -28 7 -31 13 -16 36 7 12 12 11 32 -5 l23 -20 -19 23 c-14 16 -25 20 -40
16 -18 -6 -19 -5 -7 10 8 10 9 16 3 16 -8 0 -10 35 -6 113 7 137 9 339 6 552
-3 275 -2 295 14 295 11 0 14 -13 14 -47z m-300 -39 c0 -16 -16 -19 -25 -4 -8
13 4 32 16 25 5 -4 9 -13 9 -21z m-413 -66 c-2 -13 -4 -5 -4 17 -1 22 1 32 4
23 2 -10 2 -28 0 -40z m413 5 c-1 -24 -2 -26 -11 -10 -5 9 -7 22 -4 27 10 17
15 11 15 -17z m10 -53 c0 -5 -7 -10 -16 -10 -8 0 -12 5 -9 10 3 6 10 10 16 10
5 0 9 -4 9 -10z m674 -97 c8 -62 13 -143 26 -383 6 -107 15 -235 20 -285 4
-49 7 -128 6 -174 l-1 -85 -45 -11 c-67 -17 -105 -38 -104 -58 1 -9 -2 -14 -7
-11 -5 3 -9 -1 -10 -8 0 -10 -2 -10 -6 0 -2 6 -15 12 -28 12 -18 0 -28 9 -40
38 -9 20 -21 45 -26 54 -14 27 -11 36 14 40 31 4 25 56 -11 83 l-26 20 29 5
c37 6 37 21 1 39 -23 10 -34 11 -48 2 -26 -16 -38 -14 -38 7 0 16 7 19 45 17
56 -1 74 7 57 28 -7 8 -11 21 -10 28 4 16 -39 39 -72 39 -19 0 -22 2 -10 9 8
6 26 7 41 4 27 -5 50 13 32 26 -14 10 -10 61 6 61 8 0 11 7 8 20 -3 11 0 38 5
61 11 40 10 42 -21 66 -42 33 -42 70 -1 84 32 12 41 44 18 67 -9 9 -8 12 5 12
25 0 21 27 -5 36 -23 7 -22 7 5 16 46 16 29 48 -25 48 -30 0 -16 25 15 25 14
1 30 4 34 9 8 7 -16 30 -41 39 -8 3 -7 9 2 18 11 12 15 11 26 -3 7 -10 18 -18
24 -18 14 0 43 41 36 52 -3 4 0 8 5 8 6 0 11 -4 11 -10 0 -17 30 -11 57 10 14
11 29 18 33 15 4 -2 10 -26 14 -52z m-1098 -133 c-13 -316 -18 -396 -25 -430
-5 -22 -8 17 -7 105 0 77 -1 214 -2 304 -3 181 1 209 25 190 13 -11 14 -37 9
-169z m-934 10 l31 -55 -32 -34 c-18 -20 -31 -27 -31 -19 0 8 9 23 20 33 23
21 24 24 10 45 -9 13 -14 11 -34 -13 -18 -23 -25 -26 -34 -15 -9 11 -6 20 13
41 27 28 33 57 12 57 -7 0 -19 -6 -26 -12 -10 -11 -10 -8 -2 13 5 15 7 31 3
35 -4 4 4 1 17 -7 12 -8 37 -39 53 -69z m1345 48 c-3 -8 -6 -5 -6 6 -1 11 2
17 5 13 3 -3 4 -12 1 -19z m0 -73 c-3 -72 -16 -72 -16 0 1 30 5 55 10 55 5 0
7 -25 6 -55z m-3 -102 c-8 -45 -12 -52 -23 -34 -8 12 13 71 25 71 3 0 2 -17
-2 -37z m-1304 -13 c-13 -31 -24 -37 -35 -20 -6 10 35 63 43 55 3 -2 -1 -18
-8 -35z m-250 20 c0 -5 -2 -10 -4 -10 -3 0 -8 5 -11 10 -3 6 -1 10 4 10 6 0
11 -4 11 -10z m3933 -47 c-6 -78 -13 -80 -13 -5 0 34 4 62 9 62 4 0 6 -26 4
-57z m-3654 -44 c-8 -5 -17 -9 -21 -9 -12 0 -9 25 4 38 9 9 14 9 21 -4 6 -11
5 -19 -4 -25z m1271 5 c0 -8 -4 -12 -10 -9 -5 3 -10 10 -10 16 0 5 5 9 10 9 6
0 10 -7 10 -16z m2137 -20 c-9 -9 -28 6 -21 18 4 6 10 6 17 -1 6 -6 8 -13 4
-17z m-3600 9 c-11 -11 14 -33 37 -33 30 0 46 -47 51 -152 12 -229 14 -292 6
-238 -5 30 -13 73 -19 95 -6 22 -13 59 -16 83 -3 23 -8 47 -12 53 -3 6 -12 36
-19 67 -8 31 -20 70 -29 86 -14 27 -13 46 1 46 4 0 3 -3 0 -7z m1863 -13 c0
-11 -4 -20 -10 -20 -5 0 -10 9 -10 20 0 11 5 20 10 20 6 0 10 -9 10 -20z
m-1648 -45 c4 -17 1 -25 -8 -25 -14 0 -19 31 -7 43 9 10 10 9 15 -18z m1654
-40 c-9 -19 -12 -21 -19 -9 -12 21 -1 45 16 38 12 -4 12 -10 3 -29z m-1636
-50 c0 -16 -6 -25 -15 -25 -16 0 -19 9 -9 34 9 25 24 19 24 -9z m177 -89 c-37
-35 -76 -80 -87 -101 -24 -48 -24 -45 0 -45 21 0 40 27 40 58 0 11 6 22 13 24
6 3 71 6 142 7 72 1 156 3 188 4 31 1 57 -1 57 -5 0 -5 -3 -9 -7 -9 -13 -2
-44 -6 -103 -13 -68 -8 -90 -15 -90 -27 0 -6 27 -7 68 -4 220 18 237 19 224 2
-7 -9 -21 -16 -30 -16 -23 1 -79 -9 -104 -17 -11 -3 -44 -8 -72 -10 -28 -1
-53 -3 -56 -4 -3 0 1 -4 9 -9 8 -5 28 -8 45 -6 17 2 58 6 91 10 39 4 57 3 50
-4 -6 -5 -21 -11 -35 -13 -14 -2 -30 -7 -36 -10 -5 -4 -34 -8 -63 -9 -54 -3
-108 -27 -66 -30 23 -2 19 -2 70 4 22 3 48 8 58 12 10 4 17 3 17 -4 0 -6 -12
-13 -27 -17 -16 -3 -34 -8 -42 -10 -8 -3 -42 -7 -75 -10 -34 -2 -72 -7 -85
-10 -23 -5 -23 -4 7 31 35 40 34 37 26 59 -8 20 -28 20 -67 0 -56 -30 -64 -33
-100 -39 -27 -5 -41 -16 -56 -40 -16 -28 -28 -35 -78 -45 -37 -8 -64 -19 -75
-33 -9 -12 -19 -19 -22 -17 -7 8 23 145 34 148 25 9 90 64 90 77 0 8 4 15 9
15 4 0 16 19 25 43 9 23 26 47 38 53 73 34 128 67 128 77 0 6 3 7 8 3 4 -5
-23 -36 -61 -70z m-177 -1 c-7 -9 -15 -13 -18 -10 -3 2 1 11 8 20 7 9 15 13
18 10 3 -2 -1 -11 -8 -20z m10 -45 c0 -5 -5 -10 -11 -10 -5 0 -7 5 -4 10 3 6
8 10 11 10 2 0 4 -4 4 -10z m1640 -29 c0 -5 -7 -12 -16 -15 -14 -5 -15 -4 -4
9 14 17 20 19 20 6z m-1831 -91 c0 -9 -4 -8 -9 5 -5 11 -9 27 -9 35 0 9 4 8 9
-5 5 -11 9 -27 9 -35z m1591 -15 c0 -10 -10 -15 -33 -15 -19 0 -37 -3 -40 -7
-10 -9 13 -34 25 -27 20 13 55 -5 54 -28 -1 -22 2 -23 89 -23 80 0 90 2 93 19
4 17 -1 18 -52 12 -64 -8 -119 0 -113 17 2 8 35 12 97 12 89 0 93 -1 95 -23 3
-41 -29 -57 -116 -57 -53 0 -79 -4 -79 -11 0 -20 28 -24 123 -17 85 6 91 5 78
-10 -10 -13 -31 -17 -92 -17 -69 0 -102 -10 -86 -26 3 -3 41 -6 85 -7 44 -1
83 -4 85 -7 3 -3 8 -17 12 -31 6 -25 5 -26 -61 -37 -103 -17 -107 -34 -6 -26
54 5 82 3 82 -3 0 -16 -27 -25 -94 -32 -68 -7 -91 -31 -29 -31 48 1 129 22
145 38 14 14 48 16 48 3 0 -10 -189 -86 -250 -100 -110 -24 -141 -21 -146 16
-1 7 -17 43 -35 80 -28 56 -33 78 -31 128 1 40 6 62 16 67 15 9 12 65 -5 99
-11 22 9 39 47 39 18 0 36 5 39 10 10 16 55 12 55 -5z m-1159 -23 c-5 -10 -28
-27 -50 -37 -23 -10 -41 -21 -42 -24 -7 -77 -6 -82 22 -97 15 -7 37 -14 48
-14 14 0 19 -5 15 -14 -11 -28 31 -38 109 -27 39 6 83 14 97 18 22 6 23 4 12
-9 -15 -19 -68 -28 -171 -31 -76 -2 -107 -20 -56 -33 19 -5 23 -9 15 -19 -8
-10 -2 -16 27 -25 21 -7 43 -17 50 -22 15 -12 57 -13 103 -4 34 7 34 7 14 -8
-41 -30 -141 -26 -176 7 -30 28 -196 32 -263 6 -27 -10 -55 -19 -62 -19 -7 0
-17 19 -23 42 -11 39 -10 43 12 59 12 10 28 18 33 17 23 -5 110 99 134 160 12
28 21 36 42 34 3 0 30 12 60 28 29 15 55 29 57 29 1 1 -2 -7 -7 -17z m309
-132 c0 -5 -8 -10 -17 -10 -15 0 -16 2 -3 10 19 12 20 12 20 0z m-43 -16 c-3
-3 -12 -4 -19 -1 -8 3 -5 6 6 6 11 1 17 -2 13 -5z m103 -36 c0 -5 -10 -8 -22
-9 -64 -3 -96 -7 -106 -13 -7 -4 -12 -3 -12 3 0 19 35 30 87 28 29 -1 53 -5
53 -9z m1436 -40 c4 -5 -4 -8 -17 -6 -12 1 -24 8 -26 15 -5 14 34 6 43 -9z
m-1474 -29 c-11 -9 -133 -40 -162 -41 -33 0 -144 13 -149 18 -2 2 13 5 35 5
21 1 50 3 64 5 14 2 58 6 99 9 41 2 76 7 78 9 3 3 13 4 24 3 10 -1 15 -4 11
-8z m282 -60 c21 3 26 -2 26 -28 0 -20 11 -42 34 -66 34 -36 34 -36 18 -66
-13 -23 -22 -28 -40 -24 -12 3 -31 1 -42 -5 -15 -8 -20 -6 -25 10 -5 15 -14
20 -33 18 -25 -3 -27 0 -25 31 1 22 -5 39 -14 46 -13 9 -13 16 -4 33 13 24 31
28 49 10 18 -18 43 9 36 41 -4 18 -3 22 4 13 5 -8 12 -13 16 -13z m238 -4 c7
-9 19 -22 26 -30 15 -17 15 -40 1 -67 -7 -13 -7 -18 -1 -14 6 3 13 2 16 -3 11
-18 -14 -22 -36 -7 -23 17 -45 10 -85 -27 -20 -18 -23 -18 -23 -4 0 9 9 26 20
37 11 11 20 29 20 39 0 11 5 23 11 27 6 3 9 17 6 30 -4 21 4 31 25 33 4 1 13
-6 20 -14z m846 -55 c6 -30 14 -63 18 -74 6 -16 4 -17 -17 -10 -13 4 -40 8
-59 9 -29 0 -34 4 -32 20 1 11 3 33 3 50 0 31 16 58 29 50 4 -3 13 2 20 11 18
20 25 9 38 -56z m292 52 c0 -13 -12 -22 -22 -16 -10 6 -1 24 13 24 5 0 9 -4 9
-8z m126 -55 c-18 -61 -28 -66 -131 -71 -61 -3 -99 -20 -114 -52 -12 -27 -17
-28 -69 -12 l-37 11 -2 83 c-2 88 -3 87 50 66 36 -15 47 -15 47 0 0 6 10 3 21
-8 13 -11 23 -15 26 -8 2 7 19 8 48 4 33 -5 48 -3 60 9 10 10 15 11 15 3 0 -7
7 -12 15 -12 8 0 15 9 15 20 0 23 10 26 29 8 11 -11 15 -10 24 4 19 28 20 12
3 -45z m-2291 23 c3 -5 -1 -10 -10 -10 -9 0 -13 5 -10 10 3 6 8 10 10 10 2 0
7 -4 10 -10z m105 -5 c22 -3 61 -11 86 -20 51 -17 95 -19 142 -6 36 11 41 2
15 -29 -10 -11 -18 -25 -18 -30 0 -6 -3 -9 -6 -7 -3 1 -13 -4 -23 -12 -14 -12
-19 -11 -36 4 -31 28 -99 29 -127 3 -13 -12 -23 -27 -23 -34 0 -6 -15 -14 -34
-16 l-35 -4 -3 79 c-3 81 -2 90 14 81 4 -3 26 -7 48 -9z m1628 -35 l3 -50 -81
0 c-87 0 -120 -10 -120 -38 1 -20 34 -62 49 -62 14 0 51 -36 51 -50 0 -11 -25
-25 -61 -34 -23 -5 -28 -1 -39 24 -11 26 -18 30 -49 30 -50 0 -82 -24 -79 -58
2 -21 -2 -28 -19 -30 -17 -3 -25 5 -37 32 -8 20 -21 36 -28 37 -38 3 -75 -5
-91 -19 -19 -17 -32 -11 -24 13 4 8 16 15 27 15 17 0 21 5 18 28 -3 27 -2 28
50 31 12 1 22 7 22 16 0 8 -10 16 -22 16 -13 1 -30 2 -40 3 -41 3 -26 16 18
16 89 1 278 57 364 108 19 11 46 21 60 21 23 1 25 -3 28 -49z m-1274 -25 c11
-24 21 -35 36 -35 12 0 19 -4 16 -8 -2 -4 -1 -14 4 -21 5 -9 0 -23 -16 -40
-30 -32 -26 -46 14 -46 17 -1 35 -4 39 -9 4 -4 -64 -6 -152 -2 -88 3 -173 5
-190 6 -23 0 -27 3 -15 10 9 6 10 10 3 10 -6 0 -15 -5 -18 -10 -8 -12 -135
-11 -135 1 0 11 38 20 75 17 25 -3 30 1 35 27 5 29 40 50 40 25 0 -7 8 -10 20
-7 15 4 24 -2 35 -23 8 -15 12 -30 10 -32 -3 -3 3 -5 13 -5 25 0 43 17 37 37
-3 9 1 23 10 30 12 10 15 10 15 -4 0 -17 35 -23 44 -7 3 4 0 21 -6 37 -9 26
-8 33 13 56 33 38 56 35 73 -7z m746 9 c0 -17 -22 -14 -28 4 -2 7 3 12 12 12
9 0 16 -7 16 -16z m-1200 -4 c0 -5 -4 -10 -9 -10 -6 0 -13 5 -16 10 -3 6 1 10
9 10 9 0 16 -4 16 -10z m880 0 c0 -5 -2 -10 -4 -10 -3 0 -8 5 -11 10 -3 6 -1
10 4 10 6 0 11 -4 11 -10z m267 -72 c-3 -7 -5 -2 -5 12 0 14 2 19 5 13 2 -7 2
-19 0 -25z m-1142 12 c-3 -5 -12 -10 -20 -10 -8 0 -17 5 -20 10 -4 6 5 10 20
10 15 0 24 -4 20 -10z m1205 3 c0 -5 -5 -15 -10 -23 -8 -12 -10 -11 -10 8 0
12 5 22 10 22 6 0 10 -3 10 -7z m449 -4 c17 -6 31 -15 31 -19 0 -4 17 1 37 11
49 25 103 25 131 -1 12 -12 22 -24 22 -28 0 -12 53 -40 84 -46 16 -3 31 -7 34
-10 3 -3 -4 -29 -15 -58 -15 -40 -26 -54 -46 -59 -15 -4 -48 -27 -72 -51 -44
-41 -81 -67 -98 -68 -5 0 -5 5 -2 10 9 15 -36 12 -84 -5 -22 -8 -57 -13 -76
-11 -40 4 -59 15 -29 18 10 0 24 2 30 2 6 1 22 9 35 18 24 17 24 17 -16 11
-22 -2 -82 -13 -132 -24 -101 -21 -179 -26 -113 -7 19 5 62 20 95 31 33 12 67
22 75 23 8 1 30 8 47 18 18 9 43 16 58 16 14 0 25 4 25 10 0 5 -15 8 -32 5
-18 -3 -87 -8 -153 -11 -147 -8 -148 8 -1 31 131 21 284 98 262 133 -3 5 -41
11 -85 14 -118 7 -154 44 -55 57 6 0 25 -4 43 -10z m-611 -34 c38 1 51 -11 55
-51 l4 -29 -71 2 c-88 3 -103 8 -86 28 6 8 10 20 8 26 -2 7 5 22 16 33 18 18
22 19 31 6 6 -8 24 -15 43 -15z m-383 -38 c1 -34 -1 -37 -26 -37 -24 0 -27 4
-31 40 -4 49 8 65 35 47 13 -9 21 -26 22 -50z m-665 13 c0 -5 -9 -10 -20 -10
-11 0 -20 5 -20 10 0 6 9 10 20 10 11 0 20 -4 20 -10z m887 -22 c-3 -8 -6 -5
-6 6 -1 11 2 17 5 13 3 -3 4 -12 1 -19z m323 12 c0 -5 -4 -10 -10 -10 -5 0
-10 5 -10 10 0 6 5 10 10 10 6 0 10 -4 10 -10z m480 -20 c0 -5 -5 -10 -11 -10
-5 0 -7 5 -4 10 3 6 8 10 11 10 2 0 4 -4 4 -10z m-970 -10 c0 -5 -10 -10 -22
-9 -22 0 -22 1 -3 9 11 5 21 9 23 9 1 1 2 -3 2 -9z m-718 -32 c-6 -6 -16 -7
-22 -3 -9 6 -9 9 1 16 17 10 34 0 21 -13z m1164 -5 c-10 -10 -19 5 -10 18 6
11 8 11 12 0 2 -7 1 -15 -2 -18z m-442 -16 c310 -2 390 -5 394 -16 3 -10 -78
-11 -449 -5 -250 4 -491 7 -536 6 -53 0 -83 4 -86 11 -3 9 34 11 142 10 80 -2
321 -4 535 -6z m771 -8 c-8 -12 -45 -12 -45 0 0 10 30 20 43 14 4 -3 5 -9 2
-14z m-185 -24 c10 -19 10 -28 1 -38 -19 -24 15 -42 80 -42 66 1 59 -10 -13
-20 -27 -4 -58 -15 -70 -25 l-22 -17 29 -19 c23 -15 46 -19 107 -17 70 1 78 0
78 -17 0 -11 6 -23 13 -27 6 -4 12 -15 12 -23 0 -17 48 -19 128 -6 44 8 47 7
47 -13 0 -21 -24 -29 -34 -12 -3 5 -20 7 -38 5 -18 -1 -43 -3 -55 -3 -14 -1
-23 -7 -23 -16 0 -16 11 -18 81 -16 45 1 91 -20 76 -35 -4 -4 -27 -3 -50 3
-52 14 -109 6 -105 -14 2 -10 22 -15 71 -18 74 -4 87 -9 87 -31 0 -12 -6 -13
-22 -8 -23 8 -148 7 -156 0 -14 -15 18 -26 73 -26 66 0 95 -6 95 -20 0 -5 -28
-8 -62 -7 -50 2 -63 -1 -63 -13 0 -12 13 -15 57 -15 63 0 82 -10 55 -29 -21
-16 -22 -32 -2 -40 20 -7 20 -56 -1 -56 -8 0 -13 4 -9 9 3 5 -9 17 -27 25 -39
20 -60 7 -40 -24 10 -17 10 -20 -4 -20 -9 0 -14 -6 -12 -12 6 -17 52 -22 76
-9 13 7 22 7 30 -1 20 -20 14 -25 -29 -25 -40 0 -69 -16 -55 -30 4 -4 20 -2
36 4 17 6 30 8 30 3 0 -4 -7 -11 -16 -14 -20 -8 -9 -26 17 -26 10 0 19 -5 19
-11 0 -7 -9 -9 -22 -6 -12 4 -28 1 -35 -5 -9 -7 -17 -7 -28 2 -18 15 -45 6
-45 -15 0 -10 10 -15 34 -15 19 0 38 -5 42 -11 3 -6 16 -8 29 -5 17 4 24 1 28
-15 5 -18 2 -20 -21 -14 -15 4 -34 13 -43 21 -18 16 -65 19 -74 5 -3 -5 0 -13
6 -16 5 -4 8 -13 5 -20 -3 -8 1 -18 7 -23 17 -14 67 -21 73 -11 7 13 64 -19
64 -35 0 -8 3 -22 6 -30 11 -28 -69 -55 -136 -47 -80 11 -325 5 -395 -8 -33
-7 -111 -15 -173 -18 -125 -6 -153 3 -107 33 25 16 59 22 145 23 15 1 41 16
63 36 30 28 45 35 77 35 34 0 44 5 57 28 9 16 29 34 44 39 20 8 28 19 31 39 2
25 8 29 36 32 39 4 42 24 12 82 -12 24 -32 110 -49 217 -16 98 -36 203 -46
233 -23 77 -26 117 -9 124 16 6 18 43 5 79 -16 42 8 52 29 12z m-1288 -82 c2
-40 1 -73 -2 -73 -9 0 -31 81 -24 91 3 6 -6 22 -21 37 l-27 27 28 5 c16 3 32
1 35 -5 4 -5 9 -43 11 -82z m1217 44 c1 -26 -52 -19 -57 7 -2 11 0 16 7 12 5
-4 15 4 22 16 12 22 12 22 20 3 4 -11 8 -28 8 -38z m719 -39 c-2 -12 -8 -23
-15 -25 -6 -3 -10 4 -8 14 2 10 4 21 4 26 1 4 6 7 12 7 6 0 9 -10 7 -22z
m-269 -112 c33 -18 17 -25 -75 -30 -66 -5 -73 -4 -44 5 19 6 39 17 43 25 10
17 44 18 76 0z m-1726 -656 c-3 -11 -9 -20 -14 -20 -11 0 -11 3 -3 24 9 23 23
20 17 -4z m14 -77 c-12 -13 -15 -13 -20 0 -3 9 1 21 9 27 8 7 15 20 15 29 1 9
4 3 6 -13 3 -17 -1 -35 -10 -43z m-81 -1 c-15 -15 -16 -15 -16 5 0 12 6 23 13
26 19 6 21 -13 3 -31z m-50 -21 c-7 -11 -46 -21 -46 -12 0 13 13 21 32 21 11
0 17 -4 14 -9z m84 -16 c0 -9 6 -28 14 -43 7 -15 16 -44 19 -64 5 -35 4 -38
-19 -38 -13 0 -24 3 -25 8 -1 8 -3 21 -17 82 -8 31 -8 48 0 57 14 18 28 16 28
-2z m90 -66 c0 -32 3 -36 20 -32 24 6 27 -12 4 -21 -28 -11 -32 -7 -39 37 -4
23 -11 49 -16 58 -4 9 -5 19 -1 23 12 13 32 -27 32 -65z m-265 51 c-3 -5 -11
-10 -16 -10 -6 0 -7 5 -4 10 3 6 11 10 16 10 6 0 7 -4 4 -10z m114 -67 c15
-79 15 -85 -11 -81 -19 2 -24 12 -31 53 -4 27 -12 54 -18 61 -12 14 -1 24 26
24 19 0 24 -8 34 -57z m223 15 c-9 -9 -12 -7 -12 12 0 19 3 21 12 12 9 -9 9
-15 0 -24z m-643 -249 c-13 -9 -47 -19 -113 -35 -22 -5 -28 -4 -24 7 5 16 64
46 118 62 21 6 36 -23 19 -34z m-638 18 c-1 -12 -15 -9 -19 4 -3 6 1 10 8 8 6
-3 11 -8 11 -12z m77 -47 c-1 -19 -6 -30 -15 -30 -10 0 -12 6 -8 19 3 11 1 22
-5 26 -5 3 -10 13 -10 21 0 11 4 12 19 4 13 -7 19 -20 19 -40z m142 36 c0 -3
-4 -8 -10 -11 -5 -3 -10 -1 -10 4 0 6 5 11 10 11 6 0 10 -2 10 -4z m67 -2 c-3
-3 -12 -4 -19 -1 -8 3 -5 6 6 6 11 1 17 -2 13 -5z m3524 -11 c13 -17 13 -17
-6 -3 -11 8 -22 16 -24 17 -2 2 0 3 6 3 6 0 17 -8 24 -17z m-3651 -22 c0 -4
23 -9 50 -10 81 -3 90 -5 90 -18 0 -10 -12 -12 -47 -8 -27 3 -63 7 -81 9 -38
4 -47 10 -37 25 8 13 25 15 25 2z m210 -26 c0 -8 -4 -15 -10 -15 -5 0 -10 7
-10 15 0 8 5 15 10 15 6 0 10 -7 10 -15z m3467 -187 c-3 -8 -6 -5 -6 6 -1 11
2 17 5 13 3 -3 4 -12 1 -19z m66 -10 c-8 -46 -13 -48 -13 -5 0 21 4 37 10 37
5 0 7 -14 3 -32z m137 -49 c0 -6 -4 -7 -10 -4 -5 3 -10 11 -10 16 0 6 5 7 10
4 6 -3 10 -11 10 -16z M2439 6490 c-26 -15 -31 -56 -13 -98 35 -78 42 -98 52
-135 18 -67 60 -127 87 -127 14 0 25 5 25 11 0 7 7 17 17 24 23 17 7 38 -23
31 -26 -7 -31 3 -13 21 16 16 3 47 -16 39 -8 -3 -17 -1 -20 5 -4 5 1 12 9 15
23 9 19 31 -6 37 -21 6 -21 7 -5 25 20 21 6 42 -27 42 -19 0 -19 1 2 16 19 13
21 19 11 30 -7 8 -18 13 -25 10 -18 -7 -26 5 -13 20 13 16 5 44 -13 44 -7 0
-20 -5 -29 -10z M2604 6119 c-8 -14 11 -33 25 -25 16 10 13 36 -3 36 -8 0 -18
-5 -22 -11z M2273 6148 l-22 -22 42 -37 c42 -38 57 -41 57 -10 0 9 5 22 12 29
17 17 3 25 -20 11 -21 -13 -52 -7 -52 11 0 6 11 15 25 20 31 12 32 20 2 20
-12 0 -32 -10 -44 -22z M3817 5316 c-29 -26 -48 -34 -86 -38 -37 -4 -65 -15
-105 -43 -31 -21 -53 -42 -50 -46 9 -15 20 -11 75 27 51 34 56 35 130 32 77
-3 78 -3 59 -23 -11 -11 -45 -33 -76 -49 -57 -29 -148 -113 -173 -159 -7 -14
-11 -33 -7 -43 6 -16 8 -16 26 1 11 10 20 23 20 30 0 23 116 121 184 155 65
33 86 57 86 96 0 8 -7 14 -16 14 -14 0 -15 7 -10 40 8 51 -7 52 -57 6z M3503
5104 c-29 -32 -32 -64 -5 -43 27 21 51 53 46 61 -8 13 -18 9 -41 -18z M3557
4869 c-26 -40 -76 -253 -76 -319 1 -62 -32 -410 -41 -450 -12 -48 -6 -205 9
-255 16 -55 62 -145 74 -145 6 0 21 -10 34 -22 18 -16 26 -19 35 -10 9 9 6 22
-11 55 -21 40 -22 53 -17 173 3 72 7 159 10 195 13 155 16 278 7 284 -22 13
-34 -47 -42 -219 -12 -276 -19 -350 -31 -338 -20 20 -32 207 -19 311 11 99 27
276 36 414 3 44 7 82 10 86 2 4 9 39 15 77 6 38 20 89 31 113 17 39 18 47 5
59 -12 12 -16 11 -29 -9z M3467 4753 c-3 -5 -19 -67 -37 -138 -46 -192 -52
-411 -10 -369 5 5 10 53 11 106 1 64 12 142 31 230 16 73 30 142 31 152 2 20
-17 33 -26 19z M3083 4738 c-14 -16 -37 -164 -28 -178 3 -5 12 -10 19 -10 8 0
16 30 23 93 10 92 6 119 -14 95z M3786 4305 c-6 -18 29 -41 39 -25 10 16 -2
40 -19 40 -7 0 -16 -7 -20 -15z M3414 3316 c-4 -10 -2 -22 4 -28 8 -8 13 -7
18 6 4 10 2 22 -4 28 -8 8 -13 7 -18 -6z M3436 3224 c-18 -18 -13 -36 9 -28
17 7 27 32 15 39 -4 3 -16 -2 -24 -11z M3443 3155 c-3 -9 -2 -19 1 -23 8 -8
38 10 44 26 6 18 -38 14 -45 -3z M3455 3080 c-17 -19 -17 -20 0 -26 19 -8 49
22 39 37 -8 14 -19 11 -39 -11z M3443 3015 c-3 -9 -2 -19 1 -23 8 -8 38 10 44
26 6 18 -38 14 -45 -3z M3471 2964 c-15 -11 -19 -20 -12 -27 12 -12 65 19 56
33 -9 14 -17 12 -44 -6z M3465 2904 c-21 -22 -5 -40 22 -25 11 5 25 17 33 25
11 14 9 16 -13 16 -14 0 -33 -7 -42 -16z M3483 2850 c-24 -10 -30 -25 -14 -34
15 -10 61 12 61 29 0 17 -14 18 -47 5z M3488 2789 c-20 -11 -24 -39 -7 -39 20
0 49 21 49 35 0 17 -17 19 -42 4z M3493 2733 c-39 -13 -60 -43 -31 -43 24 0
98 35 95 44 -5 15 -19 15 -64 -1z M3501 2657 c-42 -15 -53 -37 -18 -37 31 0
97 27 97 40 0 13 -37 12 -79 -3z M3508 2564 c-39 -25 -46 -38 -28 -49 11 -7
100 51 100 65 0 17 -34 10 -72 -16z M3533 2503 c-42 -14 -59 -43 -25 -43 24 1
85 33 84 45 -1 15 -13 15 -59 -2z M2731 5573 c-14 -28 -9 -173 7 -173 17 0 20
13 25 90 6 92 -8 127 -32 83z M2565 5548 c-2 -7 -11 -60 -20 -118 -8 -58 -18
-118 -20 -134 -8 -45 5 -107 22 -104 11 2 15 23 17 84 2 45 7 87 12 95 4 8 7
24 5 37 -1 13 5 45 15 71 9 27 14 56 11 65 -7 19 -36 21 -42 4z M2454 5476
c-2 -42 -14 -162 -20 -188 -6 -28 11 -47 28 -30 5 5 14 49 19 98 16 147 16
139 -6 140 -14 1 -20 -6 -21 -20z M2595 5410 c-3 -5 -1 -10 4 -10 6 0 11 5 11
10 0 6 -2 10 -4 10 -3 0 -8 -4 -11 -10z M2719 5323 c-3 -159 -11 -264 -33
-458 -42 -359 -48 -495 -22 -495 7 0 12 -10 11 -22 -2 -25 13 -51 25 -43 9 6
1 45 -9 45 -4 0 -8 7 -8 15 0 8 3 15 6 15 9 0 6 43 -3 58 -4 7 -4 27 0 45 4
17 7 36 5 41 -1 5 4 13 11 17 11 7 11 9 0 9 -9 0 -11 10 -7 33 3 17 6 66 6
107 1 105 8 152 22 143 9 -5 9 -3 0 8 -13 16 -11 68 7 154 17 80 18 347 3 352
-8 3 -13 -6 -14 -24z M2626 5288 c-5 -30 -13 -124 -36 -413 -4 -55 -10 -107
-14 -115 -3 -8 -10 -49 -15 -90 -5 -41 -14 -94 -19 -117 -8 -38 -7 -43 10 -49
26 -8 27 -6 32 62 2 32 9 86 15 119 12 72 19 125 26 224 3 41 7 77 10 81 2 3
7 52 10 107 3 55 9 123 14 150 8 56 5 73 -14 73 -8 0 -16 -14 -19 -32z M2795
5238 c-2 -7 -6 -40 -9 -73 -3 -33 -10 -87 -16 -120 -5 -33 -10 -94 -10 -135
-1 -41 -8 -111 -16 -155 -9 -44 -15 -88 -15 -98 0 -10 -5 -15 -11 -11 -6 4 -8
3 -5 -3 3 -5 7 -97 7 -204 1 -240 2 -229 -10 -229 -5 0 -7 14 -5 31 2 20 0 29
-8 26 -12 -4 -11 -58 2 -67 4 -3 7 -22 6 -42 -1 -33 0 -36 17 -27 20 11 24 20
7 16 -6 -1 -13 6 -14 16 -3 15 -1 16 11 6 8 -6 17 -9 20 -6 5 5 8 115 5 162
-4 47 10 335 19 385 9 56 17 141 25 260 2 36 9 97 14 135 14 90 14 145 1 145
-6 0 -12 -6 -15 -12z M2457 5133 c-5 -9 -15 -100 -22 -208 -3 -38 -7 -77 -10
-85 -2 -8 -5 -47 -7 -85 -2 -69 5 -100 21 -90 12 7 54 451 45 467 -6 10 -21
10 -27 1z M2526 5098 c-3 -24 -8 -100 -11 -170 -6 -124 -5 -128 15 -128 11 0
20 6 21 13 3 48 7 146 9 227 2 80 0 96 -13 98 -12 2 -17 -8 -21 -40z M2386
4558 c3 -5 10 -6 15 -3 13 9 11 12 -6 12 -8 0 -12 -4 -9 -9z M2497 4463 c-4
-3 -7 -13 -7 -22 1 -13 3 -13 11 2 11 19 8 33 -4 20z M2382 4268 c-7 -7 -12
-16 -12 -21 0 -5 7 -1 16 8 9 9 14 18 12 20 -2 3 -10 -1 -16 -7z M2715 4107
c-4 -10 -5 -21 -1 -24 10 -10 18 4 13 24 -4 17 -4 17 -12 0z M4341 4916 c-9
-10 -8 -16 4 -26 20 -16 38 -1 29 23 -8 21 -18 22 -33 3z M4176 5032 c-3 -6
-1 -14 5 -17 15 -10 25 3 12 16 -7 7 -13 7 -17 1z M4010 4565 c0 -8 4 -15 10
-15 5 0 7 7 4 15 -4 8 -8 15 -10 15 -2 0 -4 -7 -4 -15z M3808 4628 c9 -9 15
-9 24 0 9 9 7 12 -12 12 -19 0 -21 -3 -12 -12z M2017 4602 c-19 -21 -22 -38
-7 -47 6 -4 7 1 3 11 -5 14 -3 16 12 11 15 -6 16 -5 6 7 -9 11 -9 15 1 19 7 2
10 7 7 11 -3 3 -13 -2 -22 -12z M1885 4420 c3 -5 8 -10 11 -10 2 0 4 5 4 10 0
6 -5 10 -11 10 -5 0 -7 -4 -4 -10z M2037 4166 c-8 -21 16 -39 31 -24 8 8 9 15
1 25 -15 17 -25 17 -32 -1z M1966 4151 c-3 -5 1 -14 10 -21 11 -10 18 -10 27
-1 9 9 9 14 -3 21 -19 12 -27 12 -34 1z M1930 4106 c0 -8 7 -17 16 -20 8 -3
13 -10 10 -14 -3 -5 1 -18 9 -28 10 -14 17 -16 25 -8 12 11 4 44 -11 44 -5 0
-9 9 -9 20 0 13 -7 20 -20 20 -11 0 -20 -6 -20 -14z M4087 3986 c-4 -9 -12
-15 -19 -14 -17 4 -21 -133 -6 -171 l10 -26 11 30 c5 17 14 33 19 36 13 8 13
121 1 143 -9 16 -11 17 -16 2z M859 3679 c-7 -4 -16 -6 -20 -4 -11 7 -42 -33
-34 -44 11 -18 32 -12 49 14 9 14 24 24 34 22 9 -1 18 3 20 8 3 12 -31 15 -49
4z M860 3625 c-28 -30 -20 -44 14 -26 13 8 29 11 34 7 5 -3 16 1 23 10 10 13
10 17 -2 25 -24 15 -44 10 -69 -16z M888 3592 c-22 -4 -24 -28 -3 -36 19 -7
42 2 49 19 5 14 -19 23 -46 17z M640 3426 c0 -9 7 -16 16 -16 9 0 14 5 12 12
-6 18 -28 21 -28 4z M1050 3380 c-7 -4 -9 -13 -6 -19 10 -16 46 -14 46 3 0 17
-23 27 -40 16z M2575 3450 c3 -5 8 -10 11 -10 2 0 4 5 4 10 0 6 -5 10 -11 10
-5 0 -7 -4 -4 -10z M2571 3284 c0 -11 3 -14 6 -6 3 7 2 16 -1 19 -3 4 -6 -2
-5 -13z M2560 3250 c-8 -5 -12 -12 -9 -15 4 -3 12 1 19 10 14 17 11 19 -10 5z
M2723 2589 c-8 -8 -7 -16 5 -30 9 -10 20 -19 25 -19 5 0 2 7 -7 15 -8 9 -13
22 -10 30 7 18 2 19 -13 4z M3030 2745 c0 -11 7 -15 23 -13 12 2 22 8 22 13 0
6 -10 11 -22 13 -16 2 -23 -2 -23 -13z M3000 2670 c0 -15 7 -20 29 -20 37 0
81 16 81 30 0 6 -24 10 -55 10 -48 0 -55 -2 -55 -20z M3035 2601 c-45 -7 -56
-34 -15 -39 34 -5 97 15 104 33 6 16 -14 18 -89 6z M3045 2506 c-50 -15 -55
-42 -7 -38 42 3 102 28 102 41 0 14 -44 13 -95 -3z M3056 2424 c-58 -16 -75
-29 -58 -46 14 -14 122 19 122 38 0 20 -12 21 -64 8z M3060 2342 c-91 -5 -108
-42 -20 -42 48 0 100 16 100 31 0 11 -21 14 -80 11z M2682 2229 c-38 -14 -26
-32 16 -25 20 3 54 6 75 6 27 0 37 4 34 13 -4 14 -92 18 -125 6z M2276 2105
c4 -8 11 -15 16 -15 6 0 5 6 -2 15 -7 8 -14 15 -16 15 -2 0 -1 -7 2 -15z
M3080 2051 c0 -11 4 -22 9 -25 11 -7 20 14 13 32 -7 19 -22 14 -22 -7z M3227
2043 c-8 -14 8 -98 18 -95 14 3 13 94 -2 99 -6 2 -13 0 -16 -4z M3274 2036
c-9 -23 0 -51 16 -51 10 0 15 10 15 29 0 32 -21 47 -31 22z M2236 1883 c-6
-14 -5 -15 5 -6 7 7 10 15 7 18 -3 3 -9 -2 -12 -12z M1900 1915 c-7 -9 -8 -15
-2 -15 5 0 12 7 16 15 3 8 4 15 2 15 -2 0 -9 -7 -16 -15z M2880 1261 c0 -14
28 -33 40 -26 20 12 10 35 -15 35 -14 0 -25 -4 -25 -9z M461 5700 c-87 -26
-126 -45 -192 -96 -57 -44 -130 -138 -136 -176 -2 -12 -7 -25 -11 -28 -17 -12
-33 -67 -39 -127 -21 -223 122 -436 352 -523 49 -19 80 -23 175 -23 99 -1 125
3 187 25 73 26 176 92 225 144 45 49 98 158 112 232 22 116 6 215 -51 320
-117 214 -384 322 -622 252z m294 -47 c212 -65 353 -269 330 -477 -9 -88 -71
-212 -132 -266 -117 -103 -270 -153 -405 -133 -183 26 -330 149 -388 323 -58
170 19 383 177 493 109 75 285 101 418 60z M590 5575 c-5 -14 -10 -28 -10 -31
0 -2 -16 -38 -35 -78 -19 -41 -35 -81 -35 -89 0 -24 -16 -29 -88 -28 -106 2
-174 -9 -170 -27 4 -19 132 -100 156 -98 31 2 24 -45 -22 -149 -24 -55 -42
-103 -40 -107 12 -18 48 -4 153 62 61 39 117 70 124 70 16 0 187 -111 206
-134 14 -17 46 -22 55 -8 6 10 -35 136 -65 201 -12 25 -17 47 -11 53 4 4 44
32 88 61 112 74 108 81 -47 85 l-127 3 -10 37 c-18 67 -81 197 -97 200 -9 2
-19 -7 -25 -23z m60 -111 c40 -87 39 -104 -2 -104 -18 0 -51 -3 -72 -7 -39 -6
-39 -6 -32 23 8 31 66 154 73 154 2 0 17 -30 33 -66z m71 -169 c39 -67 36 -78
-30 -118 l-61 -36 -75 35 c-41 19 -75 38 -75 43 0 5 9 29 20 54 l21 46 67 4
c109 6 114 5 133 -28z m189 27 c0 -8 -122 -86 -124 -80 -26 56 -34 77 -29 82
10 9 153 7 153 -2z m-440 -19 c0 -7 -5 -24 -12 -38 -9 -19 -16 -24 -32 -19
-24 7 -86 52 -86 62 0 4 29 7 65 7 44 0 65 -4 65 -12z m308 -140 c35 -92 44
-124 38 -130 -3 -3 -23 7 -44 24 -20 16 -52 37 -69 47 -18 9 -33 20 -33 24 0
7 80 62 91 62 4 0 11 -12 17 -27z m-248 -15 c27 -13 50 -26 50 -30 0 -8 -172
-109 -178 -104 -2 2 1 12 7 23 24 44 45 98 44 115 -2 24 17 23 77 -4z M4176
5173 c9 -40 29 -53 66 -42 50 14 62 57 13 45 -14 -4 -28 0 -35 9 -7 8 -21 15
-31 15 -16 0 -18 -5 -13 -27z M4301 3707 c-19 -19 -13 -24 34 -31 24 -4 48
-13 52 -19 5 -7 33 -29 64 -49 48 -33 66 -39 132 -44 55 -5 77 -4 77 5 0 6
-16 11 -37 11 -67 0 -116 20 -163 65 -50 48 -138 83 -159 62z M4057 3663 c-13
-12 -7 -24 16 -33 l22 -9 -22 0 c-30 -1 -38 -18 -15 -30 23 -12 94 -2 89 13
-2 6 -14 13 -28 17 -20 6 -18 7 13 8 36 1 57 14 39 25 -15 9 -107 17 -114 9z
M1225 3606 c-30 -30 -32 -52 -6 -66 32 -17 58 -11 80 17 19 23 20 29 8 47 -21
31 -53 31 -82 2z m55 -15 c0 -12 -29 -35 -36 -28 -11 10 5 37 21 37 8 0 15 -4
15 -9z M4080 3545 c-10 -12 -9 -16 4 -21 22 -8 52 16 34 27 -18 12 -24 11 -38
-6z M4500 3543 c0 -5 7 -18 15 -29 8 -10 15 -31 15 -46 0 -26 7 -32 28 -25 4
1 6 4 6 7 -16 63 -16 62 8 54 13 -4 29 -9 36 -11 6 -3 12 -1 12 3 0 8 -38 26
-102 50 -10 3 -18 2 -18 -3z M4152 3507 c-12 -6 -22 -14 -22 -19 0 -8 9 -10
60 -12 38 -2 40 -47 4 -63 -34 -16 -39 -11 -23 16 17 25 7 35 -26 27 -16 -4
-25 -13 -25 -25 0 -11 -6 -21 -12 -24 -9 -3 -7 -9 6 -19 18 -14 16 -16 -32
-32 -29 -10 -52 -21 -52 -26 0 -14 32 -21 47 -9 7 7 16 9 19 6 18 -17 164 86
164 115 0 19 -20 67 -29 70 -23 6 -60 3 -79 -5z M1225 3480 c-15 -17 -16 -24
-5 -50 10 -24 19 -30 42 -30 61 0 87 39 54 83 -18 23 -68 22 -91 -3z m63 -34
c3 -13 -1 -17 -14 -14 -11 2 -20 11 -22 22 -3 13 1 17 14 14 11 -2 20 -11 22
-22z M4288 3484 c-12 -11 4 -42 27 -52 47 -21 85 -149 53 -175 -9 -7 -18 -27
-22 -45 -5 -27 -3 -33 11 -30 9 2 17 15 19 32 2 15 12 34 22 42 15 10 18 22
15 50 -4 39 -41 134 -52 134 -3 0 -19 11 -35 25 -33 28 -31 27 -38 19z M4274
3390 c5 -28 -8 -43 -16 -18 -8 22 -28 -3 -28 -35 0 -18 -6 -41 -14 -52 -22
-33 -29 -65 -14 -65 14 0 63 72 63 93 0 6 8 11 17 9 26 -4 40 30 27 67 -15 42
-44 43 -35 1z M4556 3371 c-3 -4 -5 -28 -5 -52 0 -24 -2 -51 -4 -59 -2 -8 -7
-29 -11 -46 -7 -33 7 -84 24 -84 5 0 9 17 8 38 -1 20 2 76 6 125 5 57 4 87 -3
87 -5 0 -12 -4 -15 -9z M4493 3280 c-15 -24 -17 -118 -3 -154 6 -17 17 -26 31
-26 19 0 20 2 8 16 -8 10 -16 52 -19 101 -4 72 -7 81 -17 63z M430 3181 c-37
-20 -90 -71 -74 -71 5 0 -8 -16 -28 -35 -21 -18 -38 -42 -38 -51 0 -15 4 -14
26 7 l26 24 -19 -33 c-10 -17 -23 -30 -30 -28 -24 10 -112 -117 -113 -163 0
-8 -11 -37 -24 -65 -30 -64 -44 -140 -25 -134 7 2 17 20 21 39 10 50 81 232
100 260 15 21 17 21 17 6 1 -10 7 -17 13 -15 16 6 71 97 73 122 1 11 16 26 35
35 37 18 51 41 25 41 -28 0 -7 17 45 36 51 18 68 44 28 44 -13 -1 -39 -9 -58
-19z M4704 3168 c-14 -18 -12 -50 3 -55 6 -2 17 6 23 18 10 17 9 24 -2 36 -12
11 -17 12 -24 1z M477 3139 c-9 -6 -15 -15 -12 -20 4 -5 11 -7 16 -3 5 3 40 7
77 10 37 2 69 4 72 4 3 0 -2 5 -10 10 -20 13 -120 12 -143 -1z M490 3080 c-8
-5 -12 -12 -8 -15 9 -9 108 6 108 16 0 12 -81 11 -100 -1z M4860 3070 c0 -18
3 -19 20 -10 11 6 20 15 20 20 0 6 -9 10 -20 10 -13 0 -20 -7 -20 -20z M4193
3068 c-6 -7 -13 -30 -17 -50 -4 -21 -11 -38 -16 -38 -5 0 -6 15 -3 34 4 28 1
36 -17 46 -15 8 -20 8 -16 1 4 -6 2 -11 -4 -11 -6 0 -10 -6 -9 -12 1 -7 -4
-26 -11 -43 -11 -26 -14 -27 -18 -10 -5 24 -20 35 -39 28 -9 -4 -13 -14 -9
-26 5 -21 -9 -47 -26 -47 -5 0 -4 9 2 21 7 11 9 23 6 27 -3 3 -6 1 -6 -5 0 -5
-10 -9 -22 -9 -19 1 -23 -4 -23 -26 0 -16 5 -28 10 -29 6 0 17 -7 27 -15 11
-10 18 -12 23 -4 12 20 79 42 113 36 23 -3 35 -1 39 10 3 7 9 14 14 14 4 0 6
-6 3 -13 -2 -7 6 -26 19 -41 21 -24 29 -27 58 -21 19 4 38 10 44 13 5 4 19 6
30 7 34 0 31 34 -4 46 -17 6 -31 15 -31 20 0 5 -7 9 -16 9 -13 0 -15 8 -9 50
4 28 3 50 -2 50 -13 0 -29 -14 -41 -35 -9 -16 -11 -17 -12 -4 0 25 -25 42 -37
27z m62 -98 c11 9 14 7 12 -9 -1 -12 -6 -19 -12 -16 -5 3 -17 8 -26 11 -11 4
-14 14 -11 32 l5 27 10 -28 c7 -22 12 -25 22 -17z M404 3035 c-15 -11 -16 -14
-3 -15 8 0 24 7 35 15 15 11 16 14 3 15 -8 0 -24 -7 -35 -15z M4366 3042 c2
-2 -6 -16 -16 -30 -25 -31 -25 -52 -1 -52 26 0 47 59 28 76 -8 6 -12 9 -11 6z
M561 3031 c-10 -7 -10 -10 -1 -16 6 -4 16 -3 22 3 13 13 -4 23 -21 13z M1261
3013 c-30 -20 -28 -68 3 -88 22 -15 27 -15 55 0 24 12 31 22 31 44 0 45 -51
71 -89 44z m49 -43 c0 -11 -6 -20 -14 -20 -18 0 -29 16 -21 30 11 18 35 11 35
-10z M4400 2975 c-10 -20 -11 -28 -2 -37 9 -9 16 -7 30 12 21 31 22 44 1 48
-8 1 -21 -9 -29 -23z M4697 2973 c-4 -3 -7 -15 -7 -25 0 -22 26 -24 34 -2 10
25 -10 45 -27 27z M4862 2954 c4 -21 22 -23 26 -1 2 10 -3 17 -13 17 -10 0
-15 -6 -13 -16z M4445 2940 c-14 -16 -16 -23 -7 -32 9 -9 16 -7 32 7 23 21 26
45 7 45 -8 0 -22 -9 -32 -20z M340 2925 c-13 -14 -19 -25 -13 -25 5 0 20 11
33 25 13 14 19 25 13 25 -5 0 -20 -11 -33 -25z M3890 2915 c-6 -16 -6 -34 0
-51 13 -34 14 -31 -21 -49 -28 -15 -32 -15 -43 1 -16 21 -36 11 -36 -18 0 -11
8 -22 20 -25 11 -3 20 -11 20 -18 0 -7 7 -19 16 -26 14 -11 20 -8 45 21 41 49
58 85 48 101 -5 8 -9 31 -9 52 0 44 -25 52 -40 12z M3832 2925 c4 -5 3 -14 -2
-20 -16 -19 8 -75 32 -75 18 0 20 4 14 31 -3 17 -6 35 -6 40 0 5 -10 14 -22
20 -13 6 -20 8 -16 4z M4390 2886 c0 -2 8 -10 18 -17 15 -13 16 -12 3 4 -13
16 -21 21 -21 13z M246 2848 c-9 -12 -16 -27 -16 -33 0 -5 -10 -30 -21 -55
-11 -25 -20 -46 -20 -47 0 -2 -6 -24 -14 -50 -17 -54 -19 -83 -7 -83 5 0 17
28 27 63 17 57 53 148 76 189 21 40 1 53 -25 16z M1277 2832 c-24 -27 -21 -59
8 -78 53 -35 122 29 80 76 -23 25 -67 26 -88 2z m61 -30 c5 -17 -27 -27 -41
-13 -9 9 -8 14 3 21 18 11 32 8 38 -8z M4160 2830 c0 -5 5 -10 10 -10 6 0 10
5 10 10 0 6 -4 10 -10 10 -5 0 -10 -4 -10 -10z M4402 2824 c-6 -7 -8 -15 -3
-19 5 -3 11 1 14 7 3 10 7 10 20 -1 10 -7 17 -9 17 -5 0 5 -8 14 -18 20 -13 9
-20 8 -30 -2z M3970 2776 c0 -2 7 -7 16 -10 8 -3 12 -2 9 4 -6 10 -25 14 -25
6z M4315 2760 c-3 -6 1 -7 9 -4 18 7 21 14 7 14 -6 0 -13 -4 -16 -10z M4255
2739 c-11 -16 -1 -19 13 -3 7 8 8 14 3 14 -5 0 -13 -5 -16 -11z M3780 2730 c0
-5 5 -10 11 -10 5 0 7 5 4 10 -3 6 -8 10 -11 10 -2 0 -4 -4 -4 -10z M4290
2696 c0 -2 8 -10 18 -17 15 -13 16 -12 3 4 -13 16 -21 21 -21 13z M52 2580 c0
-14 2 -19 5 -12 2 6 2 18 0 25 -3 6 -5 1 -5 -13z M4562 2536 c7 -8 15 -12 17
-11 5 6 -10 25 -20 25 -5 0 -4 -6 3 -14z M116 2500 c-18 -46 -20 -60 -7 -60 9
0 35 89 28 97 -3 2 -12 -14 -21 -37z M57 2513 c-4 -3 -7 -13 -7 -22 1 -13 3
-13 11 2 11 19 8 33 -4 20z M4645 2440 c3 -5 8 -10 11 -10 2 0 4 5 4 10 0 6
-5 10 -11 10 -5 0 -7 -4 -4 -10z M4390 2329 c0 -5 5 -7 10 -4 6 3 10 8 10 11
0 2 -4 4 -10 4 -5 0 -10 -5 -10 -11z M3867 2323 c-15 -14 -6 -29 24 -40 25
-10 31 -9 36 3 11 28 -39 59 -60 37z M4257 2309 c7 -7 15 -10 18 -7 3 3 -2 9
-12 12 -14 6 -15 5 -6 -5z M3845 2267 c-20 -15 -13 -37 11 -37 9 0 12 -5 8
-11 -4 -8 0 -8 15 0 24 13 27 31 9 49 -15 15 -20 15 -43 -1z M4876 2261 c-3
-5 1 -11 9 -14 9 -4 12 -1 8 9 -6 16 -10 17 -17 5z M4240 2230 c-8 -5 -10 -10
-5 -10 6 0 17 5 25 10 8 5 11 10 5 10 -5 0 -17 -5 -25 -10z M4824 2228 c10 -6
22 -6 26 -2 5 5 -3 10 -18 11 -22 1 -24 0 -8 -9z M3834 2189 c-3 -6 0 -17 8
-25 13 -13 16 -13 27 0 7 8 10 20 6 26 -8 13 -32 13 -41 -1z M3805 2149 c-10
-15 1 -23 20 -15 9 3 13 10 10 16 -8 13 -22 13 -30 -1z M3743 2084 c-2 -37 -2
-37 21 -28 21 8 20 27 -1 47 -17 14 -18 13 -20 -19z M4810 2106 c0 -2 7 -9 15
-16 9 -7 15 -8 15 -2 0 5 -7 12 -15 16 -8 3 -15 4 -15 2z M3797 2039 c8 -8 16
-8 30 0 16 9 14 10 -11 11 -22 0 -27 -3 -19 -11z M4375 2029 c-4 -6 -5 -12 -2
-15 2 -3 7 2 10 11 7 17 1 20 -8 4z M4766 2023 c-6 -14 -5 -15 5 -6 7 7 10 15
7 18 -3 3 -9 -2 -12 -12z M3697 2023 c-4 -3 -7 -15 -7 -25 0 -28 34 -19 38 10
3 21 -16 31 -31 15z M57 1953 c-3 -16 -1 -29 4 -31 13 -5 11 -40 -2 -44 -6 -2
-9 -23 -6 -53 3 -40 5 -45 11 -27 10 27 23 28 31 2 9 -28 25 -25 25 4 0 15 7
26 18 29 14 4 14 6 -5 12 -28 9 -30 32 -3 40 24 7 16 27 -8 23 -28 -5 -21 35
8 43 21 6 22 7 5 9 -11 1 -26 2 -32 1 -7 -1 -13 3 -13 9 0 23 -28 8 -33 -17z
m23 -102 c0 -6 -4 -13 -10 -16 -5 -3 -10 1 -10 9 0 9 5 16 10 16 6 0 10 -4 10
-9z M3630 1964 c-11 -13 -10 -19 8 -37 29 -28 48 -12 31 26 -14 31 -21 33 -39
11z M3565 1927 c-10 -39 -2 -82 15 -82 11 0 15 12 15 49 0 53 -20 75 -30 33z
M3500 1904 c-15 -37 -12 -81 5 -87 19 -8 22 -1 31 61 6 44 4 52 -10 52 -9 0
-21 -12 -26 -26z M3362 1828 c-16 -16 -15 -25 4 -32 24 -9 47 13 33 30 -14 17
-22 17 -37 2z M276 1775 c-9 -24 -7 -65 4 -105 10 -35 76 -123 110 -147 36
-26 31 7 -8 49 -53 58 -64 83 -71 152 -6 58 -22 83 -35 51z M3328 1753 c-24
-6 -23 -20 3 -34 15 -8 24 -8 32 0 15 15 -11 39 -35 34z M3310 1685 c-10 -12
-10 -18 0 -30 18 -21 51 -19 47 3 -6 41 -26 52 -47 27z M3283 1618 c3 -20 0
-41 -8 -51 -14 -19 -26 -23 -22 -6 1 6 -4 14 -12 17 -10 3 -12 0 -8 -10 3 -9
1 -20 -5 -26 -13 -13 -2 -32 17 -32 9 0 12 -6 8 -16 -3 -9 -13 -14 -24 -11
-11 3 -17 1 -13 -4 3 -5 0 -9 -5 -9 -6 0 -11 -9 -11 -20 0 -12 5 -17 14 -14
17 6 31 -12 16 -21 -5 -3 -10 -24 -10 -46 0 -21 -4 -39 -9 -39 -13 0 -8 -87 6
-101 13 -13 37 -3 28 12 -4 5 -2 9 2 9 5 0 9 12 9 28 -1 18 4 26 13 24 11 -2
12 0 4 10 -8 9 -7 34 3 86 8 41 17 78 20 84 14 23 23 83 13 94 -6 8 -5 14 6
18 23 9 18 32 -11 45 -26 12 -27 11 -21 -21z M235 1629 c-11 -17 1 -21 15 -4
8 9 8 15 2 15 -6 0 -14 -5 -17 -11z M1126 1599 c-18 -14 -24 -25 -18 -31 15
-15 71 21 72 45 0 14 -27 7 -54 -14z M3245 1610 c-3 -6 1 -7 9 -4 18 7 21 14
7 14 -6 0 -13 -4 -16 -10z M4075 1600 c3 -5 8 -10 11 -10 2 0 4 5 4 10 0 6 -5
10 -11 10 -5 0 -7 -4 -4 -10z M253 1590 c-23 -10 -32 -30 -12 -30 17 0 49 20
49 30 0 12 -8 12 -37 0z M4126 1585 c-11 -8 -15 -15 -9 -15 6 0 16 7 23 15 16
19 11 19 -14 0z M4515 1579 c-4 -6 -5 -12 -2 -15 2 -3 7 2 10 11 7 17 1 20 -8
4z M281 1549 c-12 -12 -20 -23 -17 -26 6 -6 55 29 56 40 0 13 -16 7 -39 -14z
M1160 1524 c-22 -26 -28 -40 -21 -47 8 -8 21 -1 46 23 19 19 35 40 35 47 0 24
-28 13 -60 -23z M3342 1540 c5 -22 44 -25 44 -3 0 12 -8 18 -23 18 -16 0 -23
-5 -21 -15z M4689 1533 c-13 -16 -12 -17 4 -4 9 7 17 15 17 17 0 8 -8 3 -21
-13z M325 1510 c-10 -11 -15 -23 -12 -27 8 -7 47 25 47 39 0 14 -16 9 -35 -12z
M4700 1516 c0 -2 7 -9 15 -16 13 -11 14 -10 9 4 -5 14 -24 23 -24 12z M3311
1486 c-11 -13 -8 -16 16 -21 15 -4 33 -8 40 -10 18 -6 25 11 10 23 -24 19 -54
23 -66 8z M1182 1467 c-25 -27 -29 -52 -7 -43 8 3 15 1 15 -3 0 -5 -6 -11 -12
-14 -7 -2 -10 -8 -6 -12 4 -4 19 2 34 14 16 13 36 19 48 16 12 -3 15 -2 9 1
-7 3 -13 12 -13 20 0 7 -6 11 -14 8 -11 -4 -13 0 -9 15 7 29 -18 27 -45 -2z
M3420 1486 c0 -2 7 -7 16 -10 8 -3 12 -2 9 4 -6 10 -25 14 -25 6z M4565 1480
c3 -5 8 -10 11 -10 2 0 4 5 4 10 0 6 -5 10 -11 10 -5 0 -7 -4 -4 -10z M3417
1459 c7 -7 15 -10 18 -7 3 3 -2 9 -12 12 -14 6 -15 5 -6 -5z M391 1434 c-19
-24 -20 -44 -3 -44 12 0 41 59 32 65 -5 3 -18 -7 -29 -21z M490 1437 c0 -8 21
-29 47 -47 46 -33 46 -34 25 -48 -21 -14 -30 -42 -14 -42 5 0 19 11 32 25 12
13 27 22 31 19 15 -9 10 -20 -15 -34 -14 -7 -27 -19 -30 -26 -10 -25 12 -24
42 1 36 30 53 31 77 5 19 -21 16 -30 -29 -75 -20 -19 -20 -20 -1 -24 12 -2 28
7 43 24 12 15 24 26 25 24 1 -2 7 -13 13 -25 10 -17 7 -26 -17 -55 -38 -46
-36 -57 5 -25 l34 26 16 -25 c9 -13 16 -32 16 -42 0 -24 42 -95 59 -101 27 -9
2 67 -73 216 -40 81 -64 107 -152 165 -39 26 -77 54 -84 62 -15 19 -50 20 -50
2z M3304 1426 c-8 -20 -7 -21 28 -30 20 -5 30 -2 37 12 7 14 6 18 -7 18 -9 1
-25 4 -34 9 -12 5 -20 2 -24 -9z M455 1389 c-12 -19 5 -23 22 -6 16 16 16 17
1 17 -9 0 -20 -5 -23 -11z M1254 1384 c-37 -19 -60 -42 -51 -51 4 -3 21 3 37
15 16 12 34 22 39 22 14 0 23 17 13 24 -5 3 -22 -2 -38 -10z M3285 1351 c-7
-13 17 -24 40 -19 9 1 16 8 16 13 0 14 -48 19 -56 6z M1258 1310 c-46 -30 -69
-60 -45 -60 7 1 28 14 47 30 19 17 43 30 53 30 19 0 19 21 1 27 -6 2 -31 -10
-56 -27z M3281 1286 c-14 -16 -4 -26 26 -26 28 0 30 15 4 29 -14 8 -22 7 -30
-3z M623 1261 c-36 -30 -41 -41 -19 -41 20 0 66 39 66 56 0 20 -11 17 -47 -15z
M1300 1249 c-60 -36 -80 -60 -80 -96 0 -40 17 -43 30 -5 16 45 25 55 65 78 40
22 57 44 33 44 -7 0 -29 -10 -48 -21z M4670 1260 c8 -5 20 -10 25 -10 6 0 3 5
-5 10 -8 5 -19 10 -25 10 -5 0 -3 -5 5 -10z M3790 1220 c0 -5 5 -10 10 -10 6
0 10 5 10 10 0 6 -4 10 -10 10 -5 0 -10 -4 -10 -10z M3292 1208 c6 -18 28 -21
28 -4 0 9 -7 16 -16 16 -9 0 -14 -5 -12 -12z M3372 1148 c-8 -10 -4 -13 15
-15 15 0 22 2 17 6 -5 3 -12 10 -15 14 -3 4 -11 2 -17 -5z M4377 1129 c7 -7
15 -10 18 -7 3 3 -2 9 -12 12 -14 6 -15 5 -6 -5z M3920 1126 c0 -2 8 -10 18
-17 15 -13 16 -12 3 4 -13 16 -21 21 -21 13z M4520 1109 c0 -5 5 -7 10 -4 6 3
10 8 10 11 0 2 -4 4 -10 4 -5 0 -10 -5 -10 -11z M735 1065 c-35 -29 -27 -45 9
-18 25 18 42 43 28 43 -4 -1 -20 -12 -37 -25z M3961 1087 c2 -1 13 -9 24 -17
19 -14 19 -14 6 3 -7 9 -18 17 -24 17 -6 0 -8 -1 -6 -3z M3310 1065 c7 -9 15
-13 17 -11 7 7 -7 26 -19 26 -6 0 -6 -6 2 -15z M4347 1049 c7 -7 15 -10 18 -7
3 3 -2 9 -12 12 -14 6 -15 5 -6 -5z M3345 1040 c3 -5 8 -10 11 -10 2 0 4 5 4
10 0 6 -5 10 -11 10 -5 0 -7 -4 -4 -10z M4096 1033 c-6 -14 -5 -15 5 -6 7 7
10 15 7 18 -3 3 -9 -2 -12 -12z M4420 1035 c-7 -9 -8 -15 -2 -15 5 0 12 7 16
15 3 8 4 15 2 15 -2 0 -9 -7 -16 -15z M4760 1040 c-27 -17 0 -24 78 -22 51 2
72 -1 62 -7 -8 -5 -35 -9 -60 -8 -25 0 -59 -2 -75 -6 -28 -7 -31 -11 -27 -41
4 -32 2 -34 -30 -41 -46 -9 -88 -26 -88 -36 0 -17 83 -51 106 -42 16 6 18 -5
5 -26 -6 -9 -21 -12 -44 -9 -20 2 -35 1 -34 -3 1 -4 -7 -15 -18 -23 -20 -16
-20 -16 4 -36 13 -11 38 -20 57 -20 19 0 34 -4 34 -9 0 -5 -16 -8 -35 -7 -19
2 -35 -1 -35 -7 0 -5 -9 -7 -19 -4 -14 3 -18 1 -14 -9 3 -8 -1 -21 -8 -30 -10
-12 -9 -19 8 -36 27 -26 46 -15 38 22 -5 25 -3 28 26 34 18 3 34 5 35 3 7 -6
5 -292 -1 -333 -8 -45 5 -64 25 -39 8 10 13 71 15 192 l3 178 88 0 c72 0 89 3
92 16 2 13 -10 15 -88 12 -59 -3 -90 0 -90 6 0 7 34 11 90 11 73 0 90 3 90 15
0 8 -5 15 -11 15 -8 0 -7 6 2 18 13 16 12 16 -6 1 -26 -20 -165 -25 -165 -6 0
9 19 12 70 11 39 -1 70 2 70 7 0 11 -36 30 -53 28 -39 -5 -88 2 -81 12 3 6 22
9 40 7 19 -2 34 0 34 5 0 5 17 8 38 7 55 -3 62 -1 62 13 0 10 -17 14 -57 16
-63 2 -87 11 -31 11 33 0 75 25 45 28 -107 9 -127 15 -127 38 0 22 4 24 48 24
70 0 122 17 122 40 0 11 -9 24 -19 30 -24 12 -151 13 -171 0z m54 -159 c3 -5
-1 -12 -10 -15 -20 -8 -29 -1 -19 13 8 13 22 14 29 2z m-78 -10 c-3 -5 -15 -7
-26 -4 -28 7 -25 13 6 13 14 0 23 -4 20 -9z m-9 -117 c-3 -4 -19 -3 -34 1
l-28 8 25 7 c25 7 50 -4 37 -16z M743 991 c-41 -36 -52 -51 -35 -51 14 1 84
68 81 78 -2 6 -23 -6 -46 -27z M3958 992 c-66 -38 -74 -47 -58 -67 11 -13 10
-14 -4 -9 -21 8 -21 -12 0 -61 9 -21 14 -49 11 -61 -2 -13 -1 -21 4 -19 4 3
10 -8 14 -24 7 -32 33 -49 41 -27 3 8 -6 51 -20 96 -19 58 -23 86 -16 99 5 10
6 22 2 26 -4 5 -1 5 6 1 7 -4 25 2 42 14 38 27 54 18 46 -29 -3 -24 -2 -31 4
-21 7 11 11 8 20 -15 7 -17 14 -43 17 -58 2 -16 11 -47 19 -69 8 -23 13 -42
12 -43 -2 -1 -19 -9 -40 -18 -41 -19 -64 -21 -73 -7 -9 14 -32 1 -38 -21 -3
-10 -1 -17 4 -13 5 3 9 0 9 -5 0 -16 44 -13 89 5 45 18 94 75 85 98 -4 9 8 27
31 47 47 42 57 67 39 97 -8 12 -11 22 -7 22 3 0 -3 10 -14 23 -11 12 -26 32
-32 45 -16 30 -27 28 -62 -10 -21 -23 -29 -28 -29 -16 0 20 -26 48 -43 47 -7
0 -33 -13 -59 -27z m195 -53 c22 -40 22 -60 -4 -93 -26 -33 -34 -33 -49 4 -17
42 -16 77 5 100 24 26 27 25 48 -11z M4220 979 c0 -6 -7 -8 -17 -4 -13 4 -15
3 -7 -5 6 -6 18 -8 27 -4 18 7 23 24 7 24 -5 0 -10 -5 -10 -11z M4916 952 c-2
-4 4 -8 14 -8 10 0 16 4 14 8 -3 4 -9 8 -14 8 -5 0 -11 -4 -14 -8z M750 915
c-19 -19 -40 -35 -47 -35 -7 0 -13 -4 -13 -10 0 -17 15 -11 58 20 23 17 42 37
42 45 0 21 -1 20 -40 -20z M3349 923 c-13 -16 -12 -17 4 -4 16 13 21 21 13 21
-2 0 -10 -8 -17 -17z M4420 920 c0 -5 5 -10 11 -10 5 0 7 5 4 10 -3 6 -8 10
-11 10 -2 0 -4 -4 -4 -10z M3520 900 c8 -5 20 -10 25 -10 6 0 3 5 -5 10 -8 5
-19 10 -25 10 -5 0 -3 -5 5 -10z M4000 886 c0 -2 7 -7 16 -10 8 -3 12 -2 9 4
-6 10 -25 14 -25 6z M4560 876 c0 -2 7 -7 16 -10 8 -3 12 -2 9 4 -6 10 -25 14
-25 6z M3440 826 c0 -2 7 -7 16 -10 8 -3 12 -2 9 4 -6 10 -25 14 -25 6z M3420
810 c0 -5 5 -10 11 -10 5 0 7 5 4 10 -3 6 -8 10 -11 10 -2 0 -4 -4 -4 -10z
M4040 775 c-7 -9 -8 -15 -2 -15 5 0 12 7 16 15 3 8 4 15 2 15 -2 0 -9 -7 -16
-15z M4440 776 c0 -2 8 -10 18 -17 15 -13 16 -12 3 4 -13 16 -21 21 -21 13z
M4582 756 c7 -8 17 -12 22 -9 4 3 2 9 -5 14 -22 13 -31 11 -17 -5z M4196 744
c-5 -14 -4 -15 9 -4 17 14 19 20 6 20 -5 0 -12 -7 -15 -16z M3460 725 c-7 -9
-8 -15 -2 -15 5 0 12 7 16 15 3 8 4 15 2 15 -2 0 -9 -7 -16 -15z M3840 716 c0
-2 8 -10 18 -17 15 -13 16 -12 3 4 -13 16 -21 21 -21 13z M797 648 c8 -43 10
-45 28 -22 23 30 19 54 -10 54 -22 0 -24 -3 -18 -32z M3720 671 c0 -9 30 -24
36 -18 2 1 -6 8 -16 15 -11 7 -20 8 -20 3z M3877 649 c7 -7 15 -10 18 -7 3 3
-2 9 -12 12 -14 6 -15 5 -6 -5z M3845 640 c3 -5 8 -10 11 -10 2 0 4 5 4 10 0
6 -5 10 -11 10 -5 0 -7 -4 -4 -10z M3937 639 c7 -7 15 -10 18 -7 3 3 -2 9 -12
12 -14 6 -15 5 -6 -5z M4823 640 c-31 -13 -28 -56 3 -55 31 0 67 38 51 54 -13
13 -24 13 -54 1z M4555 630 c-8 -13 3 -30 18 -30 8 0 7 3 -2 9 -7 5 -10 14 -7
20 4 6 5 11 2 11 -3 0 -8 -4 -11 -10z M4920 626 c0 -2 8 -10 18 -17 15 -13 16
-12 3 4 -13 16 -21 21 -21 13z M4117 559 c7 -7 15 -10 18 -7 3 3 -2 9 -12 12
-14 6 -15 5 -6 -5z M4197 529 c7 -7 15 -10 18 -7 3 3 -2 9 -12 12 -14 6 -15 5
-6 -5z M4535 530 c-3 -5 -1 -10 4 -10 6 0 11 5 11 10 0 6 -2 10 -4 10 -3 0 -8
-4 -11 -10z M4630 516 c0 -2 7 -7 16 -10 8 -3 12 -2 9 4 -6 10 -25 14 -25 6z
M3980 506 c0 -2 8 -10 18 -17 15 -13 16 -12 3 4 -13 16 -21 21 -21 13z M4310
476 c0 -2 7 -7 16 -10 8 -3 12 -2 9 4 -6 10 -25 14 -25 6z M4780 441 c0 -6 4
-13 10 -16 6 -3 7 1 4 9 -7 18 -14 21 -14 7z M4879 433 c-13 -16 -12 -17 4 -4
9 7 17 15 17 17 0 8 -8 3 -21 -13z M4909 423 c-13 -16 -12 -17 4 -4 16 13 21
21 13 21 -2 0 -10 -8 -17 -17z M3997 389 c7 -7 15 -10 18 -7 3 3 -2 9 -12 12
-14 6 -15 5 -6 -5z M4483 393 c-17 -6 -17 -20 0 -26 8 -3 13 3 13 14 0 11 0
19 -1 18 0 0 -6 -3 -12 -6z M4115 380 c-3 -6 1 -7 9 -4 18 7 21 14 7 14 -6 0
-13 -4 -16 -10z M4249 363 c-13 -16 -12 -17 4 -4 16 13 21 21 13 21 -2 0 -10
-8 -17 -17z M4870 360 c0 -5 5 -10 10 -10 6 0 10 5 10 10 0 6 -4 10 -10 10 -5
0 -10 -4 -10 -10z M4405 349 c-11 -16 -1 -19 13 -3 7 8 8 14 3 14 -5 0 -13 -5
-16 -11z M4511 338 c-5 -12 -6 -27 -3 -32 3 -5 -2 -7 -11 -3 -11 4 -14 2 -10
-9 3 -7 8 -14 12 -14 16 0 52 43 49 58 -5 25 -27 26 -37 0z M4814 338 c10 -6
22 -6 26 -2 5 5 -3 10 -18 11 -22 1 -24 0 -8 -9z M4312 320 c-7 -12 -8 -20 -2
-20 5 0 10 5 10 10 0 6 4 10 10 10 5 0 7 -7 4 -15 -5 -11 -2 -13 10 -9 16 6
16 8 0 25 -21 23 -17 23 -32 -1z M4447 316 c-4 -10 -1 -13 9 -9 15 6 19 23 5
23 -5 0 -11 -7 -14 -14z M4920 315 c-7 -9 -11 -17 -9 -20 3 -2 10 5 17 15 14
24 10 26 -8 5z M4554 285 c-14 -26 -16 -37 -7 -46 14 -14 42 8 36 27 -2 6 3
17 12 24 13 11 14 10 9 -6 -6 -15 -3 -14 14 5 25 27 29 39 8 22 -10 -8 -16 -9
-21 -1 -12 19 -32 10 -51 -25z M4683 295 c-10 -10 -9 -16 3 -26 8 -6 17 -9 21
-5 3 3 1 6 -6 6 -8 0 -10 7 -6 20 7 23 5 25 -12 5z M4770 306 c0 -2 7 -9 15
-16 9 -7 15 -8 15 -2 0 5 -7 12 -15 16 -8 3 -15 4 -15 2z M4810 277 c0 -2 6
-10 14 -16 11 -9 16 -9 22 1 4 7 4 10 -1 6 -4 -4 -14 -3 -22 3 -7 6 -13 9 -13
6z M4466 254 c-5 -14 -4 -15 9 -4 17 14 19 20 6 20 -5 0 -12 -7 -15 -16z
M4750 249 c0 -5 5 -7 10 -4 6 3 10 8 10 11 0 2 -4 4 -10 4 -5 0 -10 -5 -10
-11z M4884 236 c-6 -6 -14 -25 -18 -41 -4 -17 -10 -40 -13 -52 -4 -18 -1 -23
14 -23 14 0 19 8 21 32 2 18 10 43 18 56 9 14 11 22 6 18 -6 -3 -12 0 -14 8
-2 11 -6 11 -14 2z M4760 225 c-7 -8 -14 -35 -15 -60 -3 -41 -1 -45 18 -45 19
0 22 6 23 38 0 20 2 46 5 56 5 24 -14 31 -31 11z M4812 205 c-7 -14 -12 -39
-12 -55 0 -23 5 -30 20 -30 16 0 20 7 20 33 0 17 3 42 6 55 9 32 -20 29 -34
-3z M4935 200 c-14 -21 -16 -53 -5 -70 14 -23 22 -6 18 41 -2 33 -5 40 -13 29z"/>
</g>
</svg>
