<?xml version="1.0" standalone="no"?>
<!DOCTYPE svg PUBLIC "-//W3C//DTD SVG 20010904//EN"
 "http://www.w3.org/TR/2001/REC-SVG-20010904/DTD/svg10.dtd">
<svg version="1.0" xmlns="http://www.w3.org/2000/svg"
 width="500.000000pt" height="878.000000pt" viewBox="0 0 500.000000 878.000000"
 preserveAspectRatio="xMidYMid meet">
<metadata>
Created by potrace 1.16, written by Peter Selinger 2001-2019
</metadata>
<g transform="translate(0.000000,878.000000) scale(0.100000,-0.100000)"
fill="#000000" stroke="none">
<path d="M2336 8683 c15 -27 31 -52 36 -57 24 -28 7 -36 -76 -36 -81 0 -111
-9 -84 -27 7 -4 60 -9 118 -9 58 -1 204 -4 325 -8 230 -6 285 -2 285 19 0 17
-33 25 -111 25 -76 0 -79 4 -79 93 l0 47 -43 0 -43 0 -2 -52 c-2 -63 -6 -85
-15 -94 -9 -9 -88 -7 -98 3 -5 5 5 36 21 70 17 35 30 65 30 68 0 3 -20 5 -45
5 -34 0 -45 -4 -45 -16 0 -8 -12 -36 -26 -60 l-27 -45 -36 60 c-33 58 -37 61
-74 61 l-38 0 27 -47z M455 8505 c-5 -1 -30 -8 -55 -15 -70 -19 -121 -41 -170
-74 -25 -17 -48 -30 -52 -28 -5 1 -8 -2 -8 -8 0 -5 -7 -10 -16 -10 -8 0 -13
-4 -10 -8 2 -4 -18 -36 -45 -71 l-50 -64 1 -221 c1 -257 1 -255 113 -363 66
-63 112 -87 127 -63 6 9 13 4 24 -18 21 -41 89 -62 221 -69 168 -9 302 39 416
149 71 68 124 141 115 156 -3 5 1 15 8 21 30 25 49 184 33 276 -9 50 -74 184
-93 192 -8 3 -14 11 -14 19 0 8 -9 14 -21 14 -13 0 -23 10 -30 28 -16 48 -137
116 -257 146 -54 14 -206 21 -237 11z m265 -71 c59 -17 184 -95 194 -119 3 -8
12 -15 20 -15 7 0 16 -8 20 -17 3 -10 19 -39 35 -64 40 -63 63 -151 62 -231
-2 -117 -44 -213 -135 -304 -192 -191 -507 -193 -708 -6 -72 68 -119 150 -139
242 -31 144 40 327 165 425 56 45 153 91 218 105 59 13 202 4 268 -16z M544
8333 c-3 -10 -12 -31 -19 -48 -8 -16 -17 -43 -20 -60 -4 -16 -7 -32 -8 -35 0
-3 -8 -13 -17 -23 -14 -14 -35 -17 -131 -18 -63 0 -122 3 -132 6 -13 6 -17 2
-17 -14 0 -12 5 -21 11 -21 7 0 34 -13 61 -30 26 -16 52 -30 58 -30 5 0 23
-13 40 -29 l31 -28 -30 -49 c-17 -26 -31 -56 -31 -65 0 -10 -5 -21 -10 -24 -6
-4 -21 -28 -35 -55 -20 -39 -22 -50 -11 -59 13 -11 48 8 220 121 57 37 60 38
85 22 14 -9 37 -26 51 -38 14 -13 36 -30 50 -39 14 -9 44 -30 68 -47 91 -64
98 -35 27 107 -30 62 -55 118 -55 126 0 13 91 78 155 112 11 6 20 17 20 25 0
12 -23 15 -120 18 -80 2 -122 7 -127 15 -5 7 -18 44 -29 82 -12 39 -26 76 -32
83 -14 18 -47 15 -53 -5z m50 -109 c20 -50 17 -59 -31 -69 -41 -8 -47 4 -23
51 11 21 20 44 20 51 0 27 16 11 34 -33z m65 -146 c16 -35 21 -53 13 -56 -6
-2 -27 -14 -46 -27 -71 -48 -71 -48 -126 -14 -55 34 -57 38 -35 74 49 81 41
75 108 75 l62 -1 24 -51z m154 46 c8 -9 -11 -25 -61 -51 l-43 -22 -13 32 c-7
18 -11 35 -9 40 5 8 117 10 126 1z m-368 -21 c-4 -10 -12 -30 -17 -45 -12 -33
-21 -35 -45 -9 -10 10 -30 26 -45 36 -16 9 -28 21 -28 26 0 5 32 9 71 9 64 0
70 -2 64 -17z m63 -180 c-6 -7 -27 -23 -47 -35 -20 -12 -53 -35 -74 -51 -21
-16 -40 -27 -43 -24 -3 3 5 22 19 44 13 21 27 48 31 60 4 12 16 33 27 47 l21
26 38 -27 c28 -21 36 -31 28 -40z m230 -27 c24 -49 41 -91 38 -94 -3 -2 -31
15 -63 39 -32 24 -70 52 -86 62 -16 10 -27 23 -24 30 5 16 68 58 81 54 6 -2
30 -43 54 -91z M2450 8479 c-133 -21 -325 -144 -361 -232 -7 -18 -19 -38 -25
-44 -24 -25 -58 -148 -60 -220 -7 -226 148 -433 384 -513 73 -24 231 -29 304
-10 147 40 238 103 346 242 8 9 26 50 41 90 30 81 42 210 21 223 -8 5 -9 10
-2 14 8 5 8 19 0 49 -6 23 -14 40 -18 37 -5 -3 -6 4 -3 14 8 31 -53 129 -124
198 -76 76 -165 123 -278 149 -43 10 -172 12 -225 3z m269 -64 c66 -24 101
-44 160 -92 147 -120 198 -258 166 -454 -11 -69 -93 -203 -160 -262 -32 -28
-155 -86 -216 -101 -204 -52 -465 64 -557 249 -89 180 -59 399 75 527 80 78
157 121 262 148 51 13 218 4 270 -15z M2533 8305 c-7 -7 -15 -26 -19 -42 -3
-15 -16 -54 -28 -85 l-21 -58 -110 -1 c-146 -1 -158 -2 -161 -14 -2 -5 19 -20
47 -33 27 -13 55 -29 62 -36 7 -7 31 -25 54 -39 23 -14 44 -30 46 -34 3 -5
-18 -57 -47 -116 -46 -96 -51 -110 -39 -127 16 -23 26 -25 45 -7 31 29 185
137 195 137 5 0 24 -15 44 -33 116 -103 141 -120 158 -110 9 6 14 17 12 25 -2
7 -10 36 -18 63 -7 28 -22 69 -33 92 -11 24 -20 49 -20 58 0 8 26 31 58 51 31
20 83 53 114 73 32 20 56 41 54 46 -1 6 -62 11 -147 13 l-144 3 -17 42 c-10
23 -18 48 -18 55 0 21 -34 92 -45 92 -5 -1 -15 -7 -22 -15z m51 -130 c9 -48 9
-50 -22 -47 -37 5 -38 7 -17 52 21 46 30 44 39 -5z m36 -104 c0 -15 7 -37 16
-49 25 -36 14 -64 -40 -99 l-49 -32 -32 27 c-18 15 -40 32 -51 38 -16 10 -17
13 -5 28 7 9 10 16 6 16 -4 0 -3 6 2 13 6 6 16 29 22 49 13 40 27 46 94 39 33
-3 37 -6 37 -30z m141 29 c57 0 67 -2 62 -15 -3 -9 -20 -23 -37 -32 -17 -9
-44 -26 -59 -39 -16 -13 -32 -24 -37 -24 -12 0 -43 97 -35 110 4 6 14 9 22 6
8 -3 46 -6 84 -6z m-301 -12 c-1 -21 -38 -98 -48 -98 -5 0 -25 12 -45 28 -20
15 -48 35 -62 45 -14 10 -23 22 -20 28 10 15 175 12 175 -3z m38 -231 c-57
-46 -132 -97 -135 -93 -2 2 14 43 37 90 l41 86 41 -32 40 -33 -24 -18z m191
18 c41 -118 36 -130 -34 -67 -23 20 -50 42 -61 49 -17 11 -17 13 -3 22 9 6 27
19 40 30 13 11 28 19 32 18 5 -1 17 -25 26 -52z M4418 8467 c-80 -18 -110 -29
-129 -48 -10 -10 -19 -14 -19 -9 0 13 -109 -60 -146 -97 -40 -40 -102 -139
-109 -176 -4 -18 -11 -37 -16 -43 -5 -6 -12 -42 -17 -80 -23 -199 112 -422
310 -513 173 -80 347 -78 518 5 39 19 86 48 105 66 30 27 35 37 35 77 l-1 46
-32 -37 c-40 -47 -172 -122 -258 -148 -197 -59 -420 24 -543 202 -50 73 -84
174 -79 235 7 90 14 133 24 138 5 4 9 16 9 29 0 50 105 178 195 238 88 59 161
74 338 69 99 -2 217 -59 299 -144 l48 -48 0 44 c0 42 -3 46 -57 86 -56 42
-143 87 -187 98 -100 24 -212 28 -288 10z m-208 -126 c0 -6 -4 -13 -10 -16 -5
-3 -10 1 -10 9 0 9 5 16 10 16 6 0 10 -4 10 -9z m-190 -391 c0 -5 -4 -10 -10
-10 -5 0 -10 5 -10 10 0 6 5 10 10 10 6 0 10 -4 10 -10z M4529 8320 c-6 -16
-15 -30 -19 -30 -4 0 -7 -6 -7 -12 2 -23 -35 -138 -47 -145 -6 -4 -69 -7 -140
-8 -121 0 -129 -1 -132 -20 -2 -15 14 -31 61 -64 36 -24 72 -52 81 -63 10 -10
23 -18 29 -18 7 0 18 -7 25 -15 9 -11 8 -26 -9 -69 -11 -31 -25 -64 -30 -73
-5 -10 -16 -37 -25 -60 -12 -34 -13 -42 -2 -46 16 -6 76 28 76 43 0 6 4 9 8 6
5 -3 34 15 65 40 31 24 65 44 76 44 11 0 41 -17 68 -38 74 -57 159 -111 187
-118 28 -7 31 -3 17 24 -5 9 -19 44 -31 77 -12 33 -30 82 -41 109 -10 27 -19
55 -19 64 0 13 44 62 56 62 3 0 17 8 32 18 15 11 44 30 64 43 37 24 54 57 22
45 -8 -3 -12 -2 -9 4 4 6 -39 10 -119 10 l-125 0 -24 83 c-14 45 -28 94 -31
110 -9 38 -44 37 -57 -3z m41 -97 c7 -32 16 -63 21 -69 14 -17 -1 -24 -49 -24
-50 0 -48 -8 -16 92 11 32 22 58 26 58 4 0 12 -26 18 -57z m-130 -137 c0 -28
-37 -116 -47 -114 -16 4 -142 101 -142 110 -1 8 56 13 136 13 29 0 53 -4 53
-9z m200 -47 c12 -34 18 -64 13 -68 -31 -26 -100 -79 -111 -85 -12 -7 -79 27
-95 48 -9 13 1 76 14 92 5 7 9 16 8 20 -1 5 2 19 6 32 7 20 14 22 75 22 l67 0
23 -61z m155 49 c6 -6 -81 -78 -94 -78 -4 0 -13 17 -21 38 -8 20 -16 40 -18
43 -4 8 125 5 133 -3z m-105 -195 c0 -12 11 -48 25 -79 14 -32 23 -59 20 -62
-3 -3 -22 7 -42 22 -21 16 -57 40 -80 54 -24 15 -43 30 -43 33 0 4 24 23 53
42 54 36 67 35 67 -10z m-226 -14 c14 -11 26 -24 26 -28 0 -11 -106 -81 -113
-75 -4 4 27 96 39 116 8 13 19 9 48 -13z M495 7142 c-52 -8 -151 -35 -190 -52
-83 -35 -192 -128 -220 -186 -8 -18 -20 -36 -25 -39 -6 -3 -9 -48 -9 -98 1
-73 3 -83 8 -47 11 69 42 129 109 207 51 59 74 77 144 111 96 46 133 55 243
56 83 0 163 -18 239 -57 85 -42 205 -182 229 -265 19 -69 20 -217 1 -275 -47
-145 -168 -256 -337 -309 -145 -45 -338 -7 -461 91 -43 34 -126 137 -126 155
0 7 -6 18 -12 24 -7 7 -18 43 -24 80 l-12 67 -1 -87 c0 -49 4 -99 11 -115 22
-50 96 -137 145 -170 49 -33 163 -87 163 -78 0 3 9 1 20 -5 11 -6 54 -15 95
-20 240 -30 475 95 570 303 33 71 36 84 40 184 4 81 -13 171 -37 201 -6 6 -8
12 -4 12 14 0 -62 107 -113 158 -87 87 -227 147 -358 154 -38 2 -78 2 -88 0z
M4378 7100 c-149 -54 -249 -134 -311 -248 -54 -99 -70 -226 -44 -338 20 -83
38 -120 91 -187 190 -237 569 -270 805 -71 24 20 31 34 31 61 l0 36 -53 -51
c-133 -125 -326 -167 -502 -107 -131 44 -231 129 -287 244 -30 60 -33 76 -36
171 -3 96 0 111 26 174 43 104 125 191 227 238 147 69 320 71 450 6 73 -37
123 -73 140 -100 23 -39 35 -35 35 11 0 35 -5 42 -58 80 -150 110 -349 141
-514 81z M533 7013 c-8 -3 -10 -15 -6 -34 3 -17 1 -29 -5 -29 -5 0 -13 -12
-16 -26 -4 -14 -16 -47 -28 -73 -11 -25 -27 -61 -35 -79 l-15 -34 -126 3
c-122 3 -127 3 -130 -17 -2 -16 10 -27 55 -51 32 -17 75 -36 95 -43 47 -15 51
-21 33 -56 -25 -52 -85 -206 -85 -220 0 -16 26 -19 35 -3 4 5 32 22 63 36 32
14 90 46 131 71 l75 45 30 -18 c51 -29 94 -54 134 -76 20 -12 52 -30 70 -41
28 -17 33 -18 38 -4 10 25 -4 77 -36 139 -48 92 -46 103 28 149 142 87 135
103 -37 100 -117 -3 -120 -2 -127 20 -13 42 -104 226 -117 236 -6 5 -17 7 -24
5z m42 -115 c28 -46 66 -140 59 -147 -8 -9 -155 -7 -161 2 -5 9 68 177 77 177
3 0 15 -15 25 -32z m114 -231 c28 -57 26 -60 -57 -105 l-53 -29 -82 42 c-87
44 -90 49 -64 105 11 23 19 25 92 30 144 9 137 11 164 -43z m176 44 c-10 -17
-92 -71 -108 -71 -14 0 -37 40 -37 63 0 8 25 13 76 15 51 2 74 0 69 -7z m-482
-8 c20 -5 22 -22 4 -47 -13 -17 -16 -17 -72 9 -43 19 -55 29 -45 35 15 9 82
11 113 3z m74 -139 c29 -15 53 -30 53 -35 0 -5 3 -8 8 -6 4 1 9 -2 11 -7 4
-13 -192 -117 -202 -107 -4 4 3 32 17 62 13 30 30 69 37 87 8 17 16 32 18 32
2 0 28 -12 58 -26z m289 -11 c4 -16 18 -50 31 -76 13 -27 23 -53 21 -58 -3
-10 -178 88 -178 99 1 11 83 60 102 61 11 1 20 -9 24 -26z M4528 6978 c-15
-13 -88 -182 -88 -205 0 -19 -27 -23 -144 -23 -112 0 -140 -8 -129 -36 3 -8
15 -14 27 -14 12 0 40 -10 61 -21 22 -12 57 -30 78 -41 44 -22 44 -20 -11
-138 -37 -80 -44 -111 -31 -131 6 -11 12 -10 26 2 10 9 38 27 63 40 25 13 74
45 109 71 63 47 88 56 106 40 6 -5 26 -15 45 -22 37 -15 116 -70 163 -114 30
-27 47 -27 47 2 0 9 -29 66 -65 127 -63 105 -72 135 -42 135 8 0 21 7 28 16 7
9 37 30 66 46 48 27 65 50 46 61 -9 5 -173 -9 -211 -18 -19 -5 -25 1 -38 32
-8 21 -23 56 -33 78 -11 22 -24 59 -31 83 -14 46 -18 48 -42 30z m50 -140 c25
-55 30 -73 20 -80 -15 -9 -112 -11 -120 -2 -3 3 4 31 16 62 13 31 26 65 29 75
11 29 21 19 55 -55z m225 -108 c-20 -18 -97 -70 -104 -70 -6 0 -29 53 -29 66
0 2 17 4 38 5 20 1 48 4 62 8 27 9 47 3 33 -9z m-162 -40 c11 -19 19 -40 19
-46 0 -15 -71 -64 -92 -64 -18 0 -148 56 -148 64 0 18 36 76 49 78 9 2 47 3
85 3 68 0 69 0 87 -35z m-231 25 c0 -11 -24 -55 -31 -55 -4 0 -26 10 -49 22
-34 19 -38 24 -23 29 20 8 103 12 103 4z m309 -161 c18 -30 30 -58 27 -61 -3
-3 -27 9 -54 26 -27 17 -54 31 -60 31 -20 0 -13 17 16 39 15 11 29 20 32 20 3
0 20 -24 39 -55z m-240 21 c45 -21 51 -27 41 -40 -7 -8 -16 -15 -21 -15 -5 0
-38 -20 -75 -45 -89 -62 -100 -60 -68 13 13 31 30 69 37 85 15 33 18 33 86 2z
M2210 6932 c-24 -21 -24 -23 -7 -33 18 -10 16 -13 -17 -41 -42 -34 -45 -50
-13 -75 13 -10 26 -31 29 -47 5 -23 1 -31 -25 -46 -16 -10 -36 -16 -44 -13 -9
4 -16 -2 -20 -16 -3 -11 -13 -21 -22 -21 -25 0 -72 -53 -88 -97 -21 -61 -16
-137 11 -191 32 -62 61 -92 91 -92 40 0 110 -78 129 -143 9 -30 16 -65 16 -76
0 -33 35 -61 75 -61 25 0 38 -5 42 -17 4 -10 11 -21 17 -25 7 -5 7 -17 -3 -40
-7 -18 -16 -45 -18 -60 -4 -22 -15 -31 -59 -48 -30 -11 -59 -20 -64 -20 -9 0
-51 -22 -99 -52 -28 -17 -75 -92 -89 -143 -6 -22 -25 -98 -43 -170 -41 -172
-76 -272 -110 -315 -35 -44 -47 -89 -28 -101 22 -14 27 -11 34 24 4 17 15 43
25 57 10 14 23 45 30 70 7 25 23 68 36 96 13 28 25 66 27 85 2 19 7 41 10 49
23 55 37 108 43 162 5 47 15 74 37 105 36 51 58 66 134 94 32 12 62 25 67 30
6 5 19 9 31 9 26 0 51 -66 27 -75 -8 -3 -11 -12 -8 -20 3 -9 0 -15 -9 -15 -20
0 -19 -17 2 -28 14 -9 14 -10 -5 -16 -27 -9 -28 -21 -4 -35 16 -10 16 -10 0
-11 -23 0 -34 -20 -17 -31 12 -8 11 -11 -3 -20 -25 -14 -22 -26 10 -35 l27 -7
-29 -6 c-38 -8 -45 -28 -12 -37 34 -8 33 -22 -1 -26 -38 -4 -41 -27 -4 -34 34
-7 32 -20 -6 -35 -15 -5 -23 -15 -20 -23 3 -7 1 -18 -6 -25 -7 -7 -1 -14 23
-25 33 -13 33 -14 10 -18 -18 -2 -24 -9 -23 -22 1 -11 -6 -25 -15 -32 -14 -10
-14 -12 4 -21 10 -6 25 -8 32 -6 6 3 12 -2 12 -10 0 -8 -6 -15 -12 -14 -34 1
-48 -4 -48 -17 0 -8 6 -16 13 -19 9 -3 9 -7 0 -19 -15 -17 -7 -28 19 -28 29 0
21 -28 -9 -32 -20 -2 -29 -9 -31 -25 -2 -13 -8 -23 -13 -23 -16 0 -10 -28 8
-34 14 -6 15 -9 4 -16 -19 -11 -7 -38 20 -42 40 -6 35 -29 -5 -26 -19 1 -39
-1 -42 -5 -12 -12 10 -28 41 -30 38 -3 44 -25 8 -29 -37 -4 -37 -32 0 -36 30
-4 28 -22 -3 -22 -26 0 -37 -21 -17 -32 9 -5 14 -15 11 -22 -3 -9 3 -17 17
-21 21 -7 21 -9 6 -20 -10 -7 -15 -19 -11 -28 3 -8 1 -17 -3 -20 -15 -9 -6
-91 10 -101 13 -8 12 -12 -7 -27 l-21 -17 30 -12 c28 -11 29 -12 11 -25 -10
-8 -15 -19 -11 -25 4 -6 1 -18 -6 -26 -11 -13 -9 -19 11 -34 l23 -18 -21 -11
c-23 -12 -21 -32 6 -64 12 -13 13 -22 4 -41 -9 -20 -8 -27 4 -37 14 -11 13
-15 -7 -30 l-22 -17 21 -13 c28 -17 28 -25 1 -32 -17 -5 -20 -11 -15 -31 3
-14 2 -28 -4 -31 -17 -11 -11 -35 9 -35 15 0 18 -5 14 -22 -3 -13 -10 -28 -14
-34 -5 -6 -6 -14 -2 -17 3 -4 0 -14 -7 -23 -12 -13 -11 -17 1 -25 8 -4 22 -6
32 -3 27 8 20 -5 -8 -16 -39 -15 -31 -36 13 -31 6 1 12 -5 12 -14 0 -8 -4 -16
-10 -16 -5 -1 -16 -2 -22 -3 -24 -2 -14 -31 11 -31 13 0 26 -6 28 -13 3 -7 -1
-10 -9 -7 -7 3 -20 0 -28 -5 -13 -9 -12 -13 8 -30 l23 -19 -20 -13 c-27 -17
-27 -37 1 -47 l23 -8 -23 -7 c-25 -8 -29 -24 -7 -32 8 -4 15 -14 15 -24 0 -10
6 -21 13 -24 9 -3 7 -9 -5 -19 -22 -18 -23 -33 -2 -41 15 -6 15 -8 1 -24 -15
-17 -15 -19 0 -34 14 -14 14 -21 3 -48 -11 -27 -11 -32 4 -43 16 -12 15 -15
-10 -40 -24 -24 -26 -30 -16 -52 6 -14 16 -25 22 -25 5 0 10 -4 10 -10 0 -5
-12 -10 -26 -10 -23 0 -25 -3 -22 -32 2 -27 8 -34 33 -39 30 -7 30 -7 3 -8
-30 -1 -43 -15 -31 -33 4 -7 8 -20 8 -28 0 -8 11 -17 25 -21 23 -6 23 -7 3 -8
-30 -1 -37 -17 -34 -73 2 -32 -4 -58 -16 -78 -15 -26 -15 -32 -4 -39 7 -5 11
-13 7 -19 -3 -6 3 -17 15 -25 l21 -15 -21 -7 c-23 -7 -25 -13 -11 -35 6 -9 5
-17 -3 -22 -9 -5 -9 -12 -1 -25 7 -12 8 -31 2 -57 -7 -32 -6 -43 6 -51 9 -7
13 -20 9 -33 -3 -13 -1 -22 6 -22 8 0 7 -6 -1 -21 -11 -17 -10 -22 2 -32 8 -7
22 -21 30 -32 14 -19 14 -19 -2 -6 -11 8 -25 10 -35 6 -39 -16 -71 -13 -76 7
-7 27 -43 20 -39 -7 2 -11 4 -26 5 -34 1 -8 -4 -16 -10 -18 -9 -3 -13 8 -13
36 0 44 -24 67 -41 40 -7 -11 -11 -10 -24 8 -8 12 -21 28 -29 35 -7 7 -18 24
-25 36 -8 16 -18 21 -30 17 -17 -5 -18 1 -15 67 1 40 6 168 9 283 4 116 10
251 14 300 l6 90 45 -3 c25 -2 53 -11 62 -19 32 -29 46 -10 37 49 -5 29 -9
135 -8 235 0 180 -3 207 -23 201 -7 -3 -10 -76 -9 -222 l2 -219 -23 7 c-13 3
-38 6 -57 6 l-33 0 6 103 c4 56 9 135 12 175 5 61 3 72 -10 72 -25 0 -36 -34
-36 -112 0 -40 -4 -78 -8 -85 -8 -13 -7 281 2 304 4 9 0 23 -8 32 -21 24 -3
65 25 58 15 -4 23 0 26 14 3 10 14 19 24 19 22 0 24 11 7 28 -9 9 -7 12 10 12
23 0 30 14 12 25 -18 11 -11 27 9 20 27 -8 36 13 15 36 -16 18 -16 19 9 19 32
0 37 25 8 35 -11 3 -25 13 -32 21 -11 14 -9 15 22 12 28 -2 34 0 34 16 0 11 6
21 12 23 9 3 10 10 3 24 -9 16 -7 19 11 19 16 0 20 5 16 20 -3 10 0 21 6 23
23 7 -3 37 -33 37 -20 0 -30 5 -30 15 0 12 10 15 40 13 44 -2 55 4 47 27 -4 9
-19 15 -37 15 -18 0 -29 4 -25 10 3 6 17 7 30 4 12 -3 26 -1 30 6 10 15 -13
40 -39 41 -17 0 -14 4 12 15 28 12 32 17 22 29 -7 8 -21 15 -31 15 -29 0 -22
17 12 29 33 11 31 27 -5 41 l-21 9 22 0 c30 1 40 21 18 37 -14 10 -15 17 -7
27 9 10 9 16 0 25 -8 8 -8 15 1 25 9 11 8 17 -4 27 -8 7 -14 20 -13 29 4 19
-39 28 -55 12 -15 -15 -27 -14 -27 4 0 9 11 21 25 27 14 6 25 19 25 30 0 13
-7 18 -25 18 -18 0 -25 5 -25 20 0 14 -7 20 -23 20 -30 0 -77 22 -77 36 0 19
-28 24 -43 9 -11 -10 -24 -11 -53 -5 -57 14 -64 12 -64 -11 0 -11 -5 -17 -10
-14 -6 4 -24 -7 -40 -24 -17 -17 -30 -24 -30 -16 0 14 15 32 53 62 33 26 52
62 38 76 -15 15 -83 -63 -123 -143 -18 -36 -39 -70 -47 -76 -8 -6 -11 -18 -8
-27 4 -10 2 -16 -5 -14 -14 2 -19 -53 -6 -70 5 -7 5 -14 -1 -17 -6 -4 -8 -13
-5 -21 3 -8 -8 -31 -25 -52 -17 -21 -31 -45 -31 -53 0 -21 -20 -40 -40 -40 -9
0 -25 -9 -35 -20 -12 -13 -25 -18 -41 -14 -51 13 -124 -113 -81 -138 13 -7 14
-13 5 -33 -6 -14 -20 -27 -32 -30 -28 -8 -123 -44 -163 -61 -17 -8 -35 -14
-40 -14 -18 -1 -50 -38 -74 -84 -13 -27 -32 -54 -41 -60 -45 -28 -4 -85 47
-66 45 17 47 8 7 -43 -27 -35 -61 -89 -73 -117 -4 -10 4 -29 21 -50 27 -33 28
-33 61 -20 19 7 50 25 69 39 19 14 47 26 62 26 15 0 30 4 34 8 4 4 21 5 38 2
21 -4 38 0 54 12 87 67 142 118 142 132 0 9 9 27 20 41 11 14 20 32 20 42 0
14 5 15 37 5 21 -7 46 -20 55 -29 23 -23 39 -23 66 2 12 11 27 20 35 20 7 0
18 5 25 12 9 9 15 8 27 -8 8 -10 12 -26 9 -35 -5 -19 41 -43 72 -37 15 2 19
-3 19 -27 0 -23 4 -30 18 -28 15 1 17 -4 12 -20 -3 -12 -8 -76 -10 -142 -4
-146 -15 -254 -27 -261 -5 -3 -13 8 -19 24 -9 26 -15 30 -47 30 -20 0 -41 -5
-45 -11 -6 -8 -7 -5 -3 6 13 42 -26 66 -41 25 -5 -16 -10 6 -15 72 -7 103 8
327 25 348 7 9 7 16 -1 24 -34 34 -52 -61 -55 -289 -2 -66 -6 -94 -15 -98 -7
-3 -11 -9 -8 -14 4 -5 -1 -38 -9 -73 -9 -39 -11 -64 -5 -66 6 -2 17 -10 24
-18 8 -8 21 -14 30 -14 8 0 17 -4 21 -9 3 -5 19 -12 36 -16 17 -4 42 -13 57
-21 35 -18 52 -18 52 1 0 8 6 15 13 15 18 0 18 -617 0 -628 -8 -5 -11 -23 -9
-50 4 -34 0 -47 -17 -63 -13 -13 -17 -23 -11 -26 6 -2 18 -9 27 -16 14 -11 14
-16 -3 -50 l-19 -38 40 -17 c21 -9 39 -20 39 -24 0 -3 8 -14 18 -24 17 -17 19
-22 21 -56 0 -9 14 -25 31 -34 16 -10 30 -27 32 -38 2 -12 10 -22 20 -24 12
-2 18 7 23 37 4 23 11 39 16 36 4 -3 6 -20 2 -37 -5 -23 -2 -34 11 -44 29 -21
45 -7 39 33 -5 28 -3 35 8 31 8 -2 15 -16 17 -30 4 -35 38 -66 54 -50 10 10
10 17 0 33 -8 12 -9 25 -4 36 7 12 11 8 16 -20 8 -43 32 -68 42 -43 3 9 3 32
0 51 -8 41 6 46 22 10 6 -14 19 -25 28 -25 13 0 15 6 11 30 -4 17 -4 30 -1 30
17 0 34 -33 34 -65 0 -20 9 -58 20 -84 l21 -47 -35 -37 c-41 -43 -46 -45 -44
-13 3 33 -30 90 -63 110 -22 13 -33 14 -56 5 -43 -16 -63 -39 -57 -64 7 -26
-11 -36 -43 -24 -14 5 -23 17 -23 29 0 31 -44 70 -78 70 -16 0 -37 -9 -47 -20
-10 -11 -26 -20 -36 -20 -22 0 -79 -56 -79 -79 0 -9 7 -26 15 -37 17 -25 11
-34 -22 -34 -13 0 -34 -10 -47 -23 l-23 -23 -9 35 c-6 22 -18 40 -31 46 -12 5
-28 22 -34 37 -6 16 -19 29 -28 29 -9 1 -20 2 -26 4 -5 1 -15 3 -22 3 -14 2
-6 33 11 44 6 4 27 8 47 8 50 0 104 59 67 73 -7 3 2 8 20 12 18 4 35 12 38 17
9 14 -15 37 -44 40 -20 2 -28 10 -30 27 -3 22 -7 23 -45 16 -23 -4 -61 -8 -84
-9 -23 -1 -45 -5 -49 -8 -11 -12 8 -29 26 -23 10 3 21 2 24 -3 6 -11 -47 -21
-144 -28 -57 -4 -63 -3 -48 9 10 8 41 15 70 16 57 2 63 4 53 22 -6 8 -32 9
-94 5 -48 -4 -94 -4 -104 -1 -26 10 -22 45 6 46 12 1 40 2 62 4 110 5 265 49
265 74 0 6 14 17 30 26 17 9 30 22 30 30 0 8 12 17 28 21 49 10 52 13 52 39 0
24 -4 26 -32 25 -53 -3 -56 -2 -50 26 4 25 3 26 -26 19 -38 -8 -360 -10 -368
-2 -3 3 10 21 30 40 36 35 53 75 42 102 -8 21 -20 19 -57 -12 -24 -21 -172
-103 -184 -103 -1 0 -5 31 -9 69 -14 152 -94 421 -126 421 -5 0 -11 8 -15 19
-3 10 -17 31 -30 47 -30 35 -28 46 11 56 51 13 65 37 56 90 -5 25 -7 61 -4 79
11 80 7 157 -9 175 -9 11 -19 34 -23 52 -3 19 -15 45 -26 59 -11 14 -20 33
-20 43 0 18 -34 57 -86 96 l-31 24 -44 -22 -44 -22 30 -6 30 -6 -40 -9 c-22
-4 -47 -7 -56 -6 -8 1 -24 -8 -34 -19 -18 -19 -18 -20 1 -20 10 0 43 9 72 20
30 11 61 19 69 18 9 -2 18 3 21 11 3 10 0 12 -14 7 -14 -5 -16 -4 -8 4 9 9 18
8 37 -5 29 -18 42 -45 24 -46 -70 -5 -177 -38 -223 -70 -23 -16 -65 -52 -92
-81 -89 -93 -126 -156 -194 -328 l-10 -25 -19 24 c-23 28 -24 79 -4 128 17 41
14 63 -10 63 -8 0 -15 3 -15 8 0 16 39 114 59 145 25 41 27 57 4 57 -14 0 -14
2 2 20 10 11 26 20 37 20 10 0 43 20 72 44 65 52 124 73 229 80 80 5 97 10 97
27 0 6 -39 7 -99 5 -76 -4 -115 -12 -162 -31 -34 -14 -70 -25 -79 -25 -9 0
-43 -26 -76 -58 -46 -45 -65 -73 -87 -130 -16 -40 -27 -79 -24 -87 3 -7 -5
-48 -19 -91 -32 -101 -31 -123 6 -156 39 -34 38 -56 -3 -73 -42 -17 -177 -152
-228 -227 -40 -59 -55 -113 -23 -87 9 7 33 38 54 69 72 105 219 230 270 230
10 0 22 5 25 10 5 8 11 7 21 -1 7 -6 21 -8 30 -5 9 4 22 2 28 -3 6 -4 29 -14
51 -21 48 -14 167 -133 197 -198 11 -23 24 -45 29 -48 5 -3 9 -18 9 -34 0 -16
7 -35 15 -44 8 -8 15 -17 15 -20 0 -3 12 -31 26 -62 14 -31 30 -84 36 -118 17
-103 62 -276 79 -301 4 -5 10 -26 14 -45 4 -19 11 -39 15 -45 6 -9 15 -43 27
-105 3 -20 43 -139 54 -165 5 -11 13 -42 19 -70 6 -27 20 -68 30 -90 31 -65
79 -182 125 -308 24 -65 55 -141 70 -170 14 -29 35 -92 47 -139 l21 -87 -27
-31 c-14 -17 -26 -40 -26 -51 0 -10 -4 -19 -9 -19 -4 0 -15 -24 -24 -52 -14
-46 -15 -62 -3 -123 7 -38 16 -78 21 -87 5 -13 3 -18 -9 -18 -25 0 -47 61 -36
99 5 17 6 32 2 32 -4 1 -14 2 -22 3 -19 1 -22 64 -5 86 19 22 28 60 16 60 -23
0 -9 34 28 71 24 24 45 37 54 33 21 -8 30 11 12 26 -23 19 -84 -17 -119 -69
-26 -39 -28 -46 -14 -54 12 -8 13 -16 5 -44 -6 -18 -16 -33 -23 -33 -6 0 -15
-10 -19 -22 -7 -21 -8 -20 -12 10 -6 47 -28 34 -30 -18 -1 -24 -8 -50 -17 -58
-14 -14 -16 -14 -17 -2 -1 8 -2 24 -3 35 0 11 -9 21 -19 23 -14 3 -17 -4 -17
-46 0 -43 -3 -50 -22 -56 -35 -9 -38 -8 -38 15 0 12 -5 19 -12 16 -8 -2 -12
-15 -10 -30 3 -21 -2 -29 -20 -36 -29 -11 -38 -6 -38 20 0 30 -24 17 -28 -14
-2 -16 -10 -27 -18 -27 -19 0 -64 -29 -64 -41 0 -5 13 -3 30 6 52 27 78 13 47
-25 -22 -28 -110 -80 -135 -80 -22 0 -24 -3 -18 -32 3 -17 8 -34 11 -37 8 -7
34 32 35 51 0 10 3 17 8 16 9 -2 155 72 162 82 3 5 11 10 19 12 9 2 18 -15 26
-52 7 -30 11 -58 9 -62 -11 -17 -21 -6 -33 31 -12 42 -33 57 -50 37 -8 -10 -7
-25 4 -56 18 -52 18 -50 1 -50 -8 0 -18 10 -22 23 -10 33 -24 47 -40 40 -12
-4 -14 -15 -8 -47 6 -35 4 -39 -8 -29 -16 14 -36 3 -101 -54 -47 -41 -57 -41
-57 0 0 40 -25 78 -45 71 -8 -4 -15 -17 -15 -30 0 -27 -32 -45 -83 -48 -19 -1
-32 -10 -40 -26 -7 -14 -22 -26 -34 -28 -18 -3 -22 2 -25 30 -4 40 -31 46 -36
8 -2 -14 -8 -29 -12 -34 -13 -13 -21 31 -18 94 2 31 -1 56 -7 57 -5 2 -10 -5
-11 -15 -1 -9 -2 -30 -3 -46 -1 -25 -4 -27 -25 -22 -14 3 -28 2 -31 -4 -9 -15
-45 -12 -51 5 -9 22 -31 18 -37 -6 -7 -25 -27 -16 -27 12 0 29 -17 23 -29 -11
-5 -16 -14 -30 -18 -30 -16 0 -31 15 -34 34 -5 24 -29 34 -29 12 0 -9 -7 -16
-15 -16 -17 0 -21 -35 -5 -45 5 -3 10 -22 10 -41 0 -23 -4 -33 -11 -28 -7 4
-9 -2 -7 -17 3 -23 8 -24 94 -30 50 -4 100 -10 111 -13 24 -8 235 19 318 40
80 20 153 54 196 92 25 22 41 29 61 25 14 -3 36 1 49 8 13 7 47 14 74 16 74 4
147 21 260 60 55 19 107 36 116 39 21 7 69 83 69 109 0 11 -4 36 -10 55 -5 19
-14 84 -19 143 -9 106 -9 109 15 145 23 34 25 43 19 112 -4 44 -16 96 -30 125
-12 28 -29 68 -36 90 -8 22 -16 42 -19 45 -9 9 -27 138 -35 243 l-3 47 127 0
c312 1 606 -1 726 -4 72 -2 159 -5 195 -5 63 -1 66 -2 77 -31 7 -19 20 -31 38
-36 27 -7 83 -54 63 -54 -6 0 -8 -9 -3 -22 11 -40 63 -301 70 -358 8 -63 30
-135 51 -167 13 -21 12 -23 -20 -37 -20 -8 -37 -24 -41 -38 -9 -29 -75 -99
-87 -92 -17 11 -70 -9 -104 -38 -28 -25 -44 -31 -92 -33 -93 -5 -178 -50 -170
-92 8 -44 158 -51 348 -16 84 16 313 19 408 7 57 -8 126 3 152 24 21 18 27 59
15 122 -3 19 -6 42 -6 50 -1 27 -1 274 0 310 1 19 2 104 3 188 l3 152 50 25
c28 14 64 41 82 60 l31 36 4 -53 c3 -31 -3 -87 -13 -134 -27 -123 -33 -202
-19 -285 18 -113 31 -152 57 -175 20 -17 28 -41 47 -158 23 -136 43 -183 72
-172 8 3 24 -8 36 -25 51 -68 112 -119 152 -129 23 -6 52 -15 65 -21 12 -5 51
-12 85 -15 70 -6 138 -23 148 -39 10 -13 9 -108 -1 -160 -9 -50 4 -105 31
-127 15 -14 38 -18 95 -18 44 0 72 4 68 10 -9 14 6 61 17 54 6 -4 6 -10 0 -16
-17 -17 -2 -48 24 -48 21 0 24 5 24 39 0 21 3 53 6 70 8 36 -6 41 -34 11 l-19
-21 -6 21 c-7 26 -32 26 -50 -1 -9 -13 -17 -16 -22 -10 -3 6 -2 11 3 11 16 0
24 33 11 41 -7 4 -19 5 -27 1 -10 -3 -13 -1 -8 6 5 8 0 12 -12 12 -11 0 -22
-9 -25 -20 -3 -11 -10 -20 -16 -20 -6 0 -5 15 4 41 8 23 12 45 9 50 -8 13 9
11 31 -5 19 -12 60 -26 95 -32 16 -3 41 -9 76 -19 26 -8 40 10 24 30 -13 15
-54 30 -113 40 -28 4 -37 10 -33 20 3 8 -1 29 -9 47 -8 18 -14 27 -15 21 0
-23 -19 -14 -61 28 l-41 41 -115 3 c-63 2 -119 8 -126 13 -7 5 -28 12 -48 16
-21 4 -42 13 -49 21 -7 8 -17 15 -22 15 -13 0 -56 43 -60 60 -4 22 -29 39 -56
40 -17 0 -27 10 -38 36 -8 20 -13 39 -10 42 4 3 -1 13 -9 22 -10 11 -17 49
-21 121 -7 111 -12 187 -15 206 -4 19 -44 -2 -47 -26 -5 -32 -20 -25 -26 12
-24 157 -7 304 49 432 7 17 24 59 36 94 13 36 38 84 56 108 18 24 28 43 23 43
-6 0 -10 -5 -10 -12 0 -6 -3 -9 -6 -6 -8 9 40 91 56 96 12 4 13 2 3 -10 -7 -8
-14 -30 -15 -49 -3 -28 0 -34 16 -34 14 0 22 10 28 34 13 48 21 32 9 -18 -7
-33 -6 -43 4 -48 23 -8 33 5 45 60 13 56 13 56 162 115 32 13 108 106 108 132
0 10 5 22 10 25 5 3 10 14 10 24 0 9 11 27 24 38 23 20 44 78 33 90 -11 11
-47 -9 -47 -27 0 -10 -7 -25 -15 -34 -8 -8 -15 -20 -15 -27 0 -23 -12 -1 -15
28 -6 54 58 251 73 225 6 -8 22 2 52 33 25 25 50 43 57 41 13 -5 19 25 8 36
-14 14 -53 -7 -79 -42 -23 -31 -33 -37 -46 -30 -18 10 -38 -5 -57 -45 -49 -97
-80 -289 -48 -301 12 -5 9 -15 -17 -51 -44 -61 -49 -61 -30 -4 9 30 20 47 26
44 6 -4 5 0 -2 9 -15 18 -27 212 -15 232 4 6 8 18 10 26 3 20 23 101 30 120 4
8 8 24 10 34 6 32 11 30 29 -8 10 -20 22 -36 27 -36 13 0 -3 42 -25 67 -22 24
-19 54 12 127 10 22 21 66 24 97 6 45 15 65 43 99 25 29 42 40 54 37 11 -3 17
-2 14 3 -2 4 9 10 25 13 19 4 28 11 24 20 -4 12 36 40 61 42 6 0 16 6 24 13 7
7 19 11 27 8 7 -3 14 0 16 6 2 6 18 11 35 12 17 0 29 4 27 8 -5 8 92 37 121
37 11 -1 34 4 52 9 17 6 33 9 35 6 2 -2 24 -6 48 -9 51 -6 153 -63 146 -82 -3
-8 1 -10 11 -6 13 5 15 2 10 -11 -4 -9 -3 -15 2 -11 13 8 47 -54 54 -98 6 -36
5 -37 -16 -25 -14 7 -17 13 -9 16 16 5 16 32 -1 32 -7 0 -17 -4 -23 -10 -5 -5
-15 -6 -23 0 -12 7 -12 11 -2 24 11 13 11 17 -3 22 -21 8 -46 -13 -46 -38 0
-14 5 -18 16 -14 8 3 24 1 36 -5 19 -10 19 -11 2 -24 -10 -7 -25 -10 -34 -7
-8 3 2 -9 23 -28 20 -19 37 -41 37 -47 0 -12 20 -18 43 -14 4 1 14 -4 21 -11
16 -17 96 -124 118 -157 22 -35 88 -171 88 -182 0 -5 4 -9 9 -9 5 0 16 -15 24
-33 9 -18 25 -41 37 -52 20 -18 20 -18 20 50 0 60 -2 66 -13 51 -12 -17 -17
-11 -54 60 -60 118 -75 144 -106 179 -27 32 -27 36 -28 164 0 72 3 136 6 141
3 6 22 10 42 10 l35 0 -4 -90 c-4 -70 -2 -90 9 -90 15 0 15 -4 18 -123 2 -72
6 -92 23 -110 10 -12 17 -29 14 -37 -5 -13 -3 -13 12 -1 14 12 16 33 15 150
-2 206 8 428 21 451 9 18 8 20 -14 20 -13 0 -27 -7 -30 -16 -3 -9 -6 -77 -6
-151 0 -75 -2 -134 -5 -131 -3 3 -6 38 -6 79 0 75 -12 111 -47 142 -17 15 -21
16 -31 3 -7 -8 -18 -13 -24 -11 -7 3 -23 -4 -37 -15 -25 -19 -25 -20 -22 -159
2 -97 0 -141 -8 -141 -6 0 -10 16 -9 38 1 34 -25 142 -49 203 -6 14 -31 44
-56 66 -42 37 -46 45 -56 108 -12 73 -16 85 -30 85 -6 0 -8 -25 -5 -56 5 -61
0 -80 -18 -66 -7 5 -34 13 -61 17 -45 6 -48 8 -43 32 5 27 -12 83 -25 83 -5 0
-14 -12 -21 -27 -9 -21 -9 -27 1 -31 7 -2 9 -9 5 -15 -4 -7 -8 -19 -8 -27 0
-8 -9 -15 -21 -16 -33 -2 -95 -15 -113 -23 -9 -5 -34 -14 -56 -21 -22 -7 -62
-23 -90 -36 -27 -13 -51 -21 -54 -19 -2 3 -8 28 -12 56 -5 28 -16 60 -25 70
-27 30 -97 59 -143 59 -23 0 -48 6 -56 13 -16 16 -8 67 11 67 16 0 34 31 34
59 0 11 14 36 30 54 17 19 30 42 30 52 0 21 45 67 88 89 25 13 32 23 32 45 0
41 40 84 92 99 43 13 195 10 232 -4 8 -3 27 3 42 15 19 15 41 21 77 21 40 0
48 3 39 12 -8 8 -42 12 -94 11 -64 -1 -78 2 -62 10 10 6 43 11 72 11 44 0 52
3 52 19 0 17 -6 19 -57 14 -32 -3 -68 -8 -80 -12 -21 -7 -22 -5 -12 26 5 19 9
54 9 79 -2 94 17 208 39 236 22 28 27 50 12 56 -11 4 -16 121 -8 198 24 223
23 215 8 305 -6 33 -13 86 -16 119 -9 97 -5 95 -149 89 -68 -3 -132 -3 -142 1
-39 15 7 25 121 27 155 2 177 1 170 -11 -9 -15 21 -77 43 -89 12 -6 39 -11 61
-11 34 0 45 6 72 38 l32 38 66 -7 c37 -4 85 -6 107 -3 21 2 54 1 73 -3 l34 -6
-7 -51 c-3 -28 -8 -64 -10 -81 -3 -16 -5 -57 -6 -90 -2 -65 -28 -234 -38 -250
-4 -5 -7 -17 -7 -25 -1 -23 -36 -134 -47 -147 -6 -7 -28 -13 -50 -13 -43 0
-54 -14 -44 -55 8 -31 63 -84 96 -91 14 -4 44 -12 68 -20 45 -15 111 -18 150
-8 17 5 22 14 22 39 l0 33 -48 -3 c-27 -1 -59 -8 -71 -14 -22 -12 -22 -13 -4
-28 15 -12 16 -14 1 -9 -9 3 -35 10 -58 16 -53 14 -105 45 -124 75 -15 22 -15
25 2 33 9 4 54 7 99 7 53 0 82 3 81 10 -2 5 2 12 7 15 6 3 11 -6 13 -18 3 -18
9 -23 22 -19 11 3 21 -1 24 -9 3 -8 17 -14 31 -14 22 0 25 4 25 33 0 32 0 32
-44 29 l-44 -4 -7 55 c-4 30 -4 68 -1 83 4 16 10 137 15 269 6 132 13 248 17
258 6 16 1 18 -37 17 -55 -2 -303 10 -307 15 -2 2 -1 8 2 14 4 6 38 8 84 6 42
-3 119 -7 171 -10 52 -2 98 -8 102 -12 4 -5 15 -60 24 -123 10 -63 19 -117 21
-119 8 -9 3 145 -6 183 -5 22 -6 45 -2 50 10 16 11 136 1 136 -21 0 -51 -43
-46 -66 l4 -24 -127 4 c-152 6 -249 16 -255 27 -3 4 -7 40 -10 81 -3 40 -11
106 -17 147 -10 65 -9 75 5 85 132 90 167 120 167 141 0 12 -7 28 -14 35 -11
8 -12 18 -6 34 6 17 4 28 -6 38 -11 11 -12 21 -5 41 9 23 7 31 -9 47 -11 11
-24 20 -28 20 -4 0 -13 14 -19 30 -9 25 -17 30 -43 30 -17 0 -41 -5 -52 -11
-17 -9 -24 -8 -33 4 -8 11 -16 12 -28 6 -23 -14 -21 -29 4 -29 11 0 17 -4 14
-10 -10 -17 -44 -11 -55 9 -13 25 11 51 46 51 15 0 24 6 24 15 0 27 -56 18
-85 -12 -29 -32 -30 -41 -9 -71 14 -21 14 -23 -13 -33 -15 -6 -48 -17 -73 -23
-55 -15 -78 -49 -91 -140 -12 -85 -36 -136 -65 -136 -11 0 -33 -9 -47 -20 -27
-22 -43 -13 -44 26 -3 43 -25 149 -36 169 -7 11 -12 25 -13 30 -1 23 -16 55
-26 55 -6 0 -8 9 -5 20 6 24 -37 94 -85 136 -44 38 -151 104 -170 104 -8 0
-18 4 -23 9 -9 9 -76 19 -137 20 -24 1 -28 5 -28 29 0 15 -7 38 -16 50 -21 30
-86 62 -112 55 -15 -4 -24 0 -28 13 -16 45 -34 54 -108 54 -69 0 -72 1 -84 28
-7 16 -22 34 -35 39 -12 6 -31 28 -43 49 -11 22 -25 48 -31 59 -18 32 -73 167
-73 177 0 4 11 13 25 18 30 11 46 62 33 105 -6 17 -16 55 -25 85 -8 30 -24 70
-36 88 -28 42 -91 66 -149 59 -24 -4 -74 -3 -111 1 -38 5 -70 5 -73 0 -3 -4
-14 -4 -24 2 -10 5 -28 10 -39 10 -12 0 -26 11 -36 29 -8 16 -30 38 -48 50
-30 18 -47 21 -143 18 -97 -2 -111 -4 -134 -25z m245 -52 c3 -5 2 -10 -4 -10
-5 0 -13 5 -16 10 -3 6 -2 10 4 10 5 0 13 -4 16 -10z m-65 -50 c0 -15 -7 -20
-25 -20 -14 0 -25 5 -25 11 0 8 -20 10 -67 5 -62 -5 -66 -5 -49 9 14 10 43 15
93 15 66 0 73 -2 73 -20z m516 -48 c23 -19 54 -80 54 -107 0 -15 -1 -15 -16
-1 -26 27 -47 20 -42 -13 5 -35 -14 -32 -30 5 -8 16 -20 24 -37 24 -19 0 -29
9 -43 39 -11 22 -17 43 -13 49 17 26 97 29 127 4z m-409 -87 c19 -50 41 -105
50 -123 8 -18 16 -51 18 -72 4 -38 44 -145 69 -185 7 -11 16 -32 19 -46 4 -15
19 -34 33 -44 22 -14 31 -15 53 -5 25 12 25 11 7 -9 -10 -11 -15 -25 -11 -30
11 -19 44 -12 56 11 9 17 9 24 -4 33 -10 7 -14 20 -10 33 6 25 -13 29 -50 11
-20 -9 -20 -8 2 9 27 22 23 59 -5 48 -12 -5 -15 -2 -9 11 12 32 10 37 -12 41
-28 4 -29 10 -2 38 26 28 16 48 -20 39 -24 -6 -25 -5 -7 8 25 18 14 52 -14 44
-26 -7 -26 5 0 21 30 18 15 45 -21 38 -35 -7 -39 11 -5 24 13 5 26 15 28 22 3
7 17 -21 32 -62 57 -157 91 -212 111 -180 8 13 -13 79 -31 100 -7 8 -27 58
-44 110 -17 52 -34 102 -37 110 -5 13 -4 13 11 1 9 -8 14 -16 12 -19 -3 -2 12
-39 33 -81 21 -42 51 -107 67 -146 15 -38 31 -74 35 -80 3 -5 12 -28 19 -50 7
-22 21 -55 32 -73 14 -22 17 -37 11 -43 -12 -12 -60 65 -69 110 -8 39 -32 61
-44 41 -11 -18 -2 -61 21 -108 20 -38 25 -77 10 -67 -19 11 -61 -18 -61 -42 0
-17 -6 -23 -23 -23 -13 0 -28 5 -34 11 -17 17 -55 1 -48 -21 10 -32 -12 -31
-37 1 -52 69 -67 81 -100 77 -31 -3 -32 -2 -60 82 -16 47 -36 105 -44 130 -43
126 -73 249 -66 269 3 7 13 -4 24 -28 10 -23 25 -44 33 -48 11 -4 12 -10 5
-23 -14 -26 -12 -57 4 -88 18 -35 29 -61 62 -147 15 -38 34 -80 42 -92 16 -25
62 -32 62 -9 0 8 7 16 15 20 8 3 15 13 15 22 0 13 -6 15 -30 11 -34 -7 -37 -1
-14 24 19 21 11 39 -17 39 -21 0 -25 10 -8 27 15 15 3 33 -23 33 -20 0 -20 1
2 18 28 22 19 42 -18 42 l-27 0 24 19 c28 21 21 41 -15 41 -24 0 -32 14 -14
25 21 13 10 35 -17 35 -24 1 -25 2 -10 11 19 11 23 35 6 41 -7 2 -14 22 -16
43 -5 45 -19 58 -45 44 -19 -10 -25 6 -10 26 11 16 56 44 66 42 4 -2 24 -43
43 -92z m130 8 c2 -6 -10 -13 -27 -15 -33 -5 -40 5 -12 21 20 12 34 10 39 -6z
m27 -66 c7 -6 4 -7 -7 -3 -10 3 -27 1 -38 -4 -13 -8 -19 -7 -19 1 0 6 9 13 20
16 11 3 20 10 21 17 0 6 3 4 6 -4 3 -8 11 -19 17 -23z m-370 7 c10 -25 7 -74
-4 -74 -5 0 -10 -15 -10 -34 0 -18 -7 -39 -15 -46 -13 -11 -15 -8 -15 18 0 18
-6 32 -16 36 -25 10 -36 -3 -32 -39 1 -19 -1 -37 -5 -41 -4 -4 -7 -17 -8 -28
0 -21 -1 -21 -8 -1 -5 11 -7 23 -4 28 11 18 -9 48 -30 45 -20 -3 -22 -8 -18
-58 3 -50 2 -53 -14 -40 -10 9 -15 23 -12 39 9 48 -13 67 -39 34 -12 -16 -13
-15 -14 12 0 17 7 41 16 53 8 12 12 22 9 22 -3 0 -3 5 1 11 5 8 9 8 14 -1 6
-9 9 -7 14 6 10 32 85 72 137 73 34 1 49 -3 53 -15z m589 -174 c3 -11 2 -18
-3 -15 -4 3 -10 14 -13 25 -3 11 -2 18 3 15 4 -3 10 -14 13 -25z m74 -92 c27
-30 45 -66 39 -77 -3 -5 -15 -11 -26 -14 -21 -6 -27 12 -10 29 14 14 -12 66
-37 76 -15 5 -15 7 -2 7 8 1 25 -9 36 -21z m-616 -55 c17 -10 32 -27 35 -38 3
-12 15 -25 27 -30 14 -7 26 -27 35 -60 8 -27 23 -60 35 -73 19 -20 22 -21 44
-7 23 15 25 14 88 -51 61 -63 65 -66 99 -60 25 5 43 2 62 -10 21 -15 31 -16
58 -6 39 14 46 15 46 3 0 -18 -57 -50 -100 -57 -38 -6 -43 -5 -37 9 9 25 4 21
-41 -23 -40 -41 -72 -52 -72 -26 0 8 5 18 10 21 6 3 10 12 10 18 0 7 -17 -7
-38 -31 -39 -45 -94 -69 -110 -49 -5 7 -13 22 -16 34 -4 11 -18 24 -31 27 -16
4 -25 13 -25 26 0 15 11 22 45 31 26 7 45 17 45 25 0 18 -46 18 -53 0 -9 -22
-53 -25 -70 -6 -13 16 -13 20 1 34 15 15 15 16 -3 16 -10 0 -29 -10 -42 -21
-18 -17 -25 -19 -37 -10 -13 11 -37 82 -42 128 -3 28 -22 63 -34 63 -4 0 -11
14 -15 31 -5 24 -2 36 16 55 12 13 28 24 35 24 6 0 17 7 24 15 16 19 16 19 51
-2z m779 -173 c24 -24 25 -29 4 -59 -12 -17 -13 -26 -5 -34 16 -16 14 -37 -4
-37 -8 0 -15 -4 -15 -10 0 -5 -7 -10 -15 -10 -8 0 -15 -7 -15 -16 0 -9 -9 -18
-19 -21 -30 -8 -33 -31 -9 -64 15 -20 19 -32 12 -39 -8 -8 -15 -6 -24 5 -14
17 -46 20 -55 5 -3 -5 -12 -7 -20 -3 -8 3 -25 -4 -37 -16 -13 -11 -34 -29 -48
-40 -21 -16 -22 -21 -11 -35 12 -14 11 -16 -4 -16 -10 0 -23 -7 -29 -16 -12
-16 -101 -38 -117 -28 -19 11 -8 19 29 20 51 3 92 20 92 40 0 13 -7 15 -33 10
-80 -15 -209 -7 -271 17 l-30 11 30 9 c16 4 61 8 99 7 75 -1 136 9 200 33 36
14 42 14 58 0 16 -15 32 -12 32 6 0 5 23 31 50 59 79 81 115 128 115 151 0 11
-4 21 -9 21 -20 0 -41 -13 -41 -25 0 -7 -7 -19 -17 -26 -15 -13 -16 -10 -11
29 9 61 32 92 68 92 17 0 39 -9 50 -20z m-274 -9 c-19 -21 -14 -41 10 -41 16
0 41 -46 31 -56 -4 -4 -18 1 -33 10 -24 17 -27 17 -45 0 -18 -16 -19 -16 -16
25 1 24 7 41 14 41 7 0 18 9 25 20 7 11 17 20 22 20 5 0 1 -9 -8 -19z m358
-123 c-9 -14 -24 2 -24 25 1 21 1 21 15 3 8 -10 12 -23 9 -28z m106 27 c7 -9
11 -18 9 -20 -96 -112 -129 -160 -123 -178 4 -13 -12 -34 -56 -78 -56 -55 -80
-66 -80 -36 0 7 14 26 30 44 17 18 30 37 30 43 0 11 29 69 40 80 35 34 90 106
90 118 0 14 27 41 41 42 4 0 12 -7 19 -15z m-330 -42 c-1 -22 -49 -63 -80 -69
l-35 -7 50 41 c48 41 65 50 65 35z m400 -54 c0 -5 -7 -9 -15 -9 -9 0 -12 6 -9
15 6 15 24 11 24 -6z m-37 -31 c5 -16 -8 -41 -51 -96 -19 -23 -38 -40 -43 -37
-16 11 -10 42 12 56 11 8 21 22 23 31 2 18 34 58 47 58 4 0 9 -6 12 -12z m242
-22 c40 -2 83 -14 127 -36 72 -34 178 -122 178 -148 0 -8 6 -23 14 -31 24 -29
45 -105 51 -191 4 -59 10 -89 21 -96 8 -7 14 -16 13 -20 -4 -26 2 -36 21 -31
25 6 25 0 1 -54 -12 -26 -18 -55 -15 -74 5 -29 5 -29 -10 -11 -9 11 -16 24
-16 29 0 12 -41 -2 -63 -21 -13 -11 -16 -24 -12 -41 6 -25 6 -25 -14 -7 -21
19 -44 14 -35 -8 3 -8 -3 -12 -18 -12 -16 1 -23 -4 -22 -16 1 -10 -2 -15 -7
-12 -5 3 -12 -3 -16 -13 -4 -10 -17 -26 -30 -36 -22 -17 -22 -20 -8 -48 16
-29 14 -33 -17 -30 -25 3 -22 -26 3 -40 16 -8 18 -13 9 -19 -7 -5 -19 -6 -26
-3 -18 7 -28 -16 -14 -32 10 -13 8 -15 -14 -15 -35 0 -33 -18 5 -34 23 -10 27
-15 16 -19 -9 -3 -23 -22 -33 -42 -16 -34 -16 -36 2 -51 14 -11 15 -17 7 -20
-18 -8 -16 -24 5 -40 16 -13 16 -15 -2 -25 -18 -11 -18 -12 5 -30 l24 -19 -26
0 c-40 0 -54 -23 -34 -54 10 -14 22 -26 27 -26 6 0 7 -7 4 -15 -4 -10 2 -19
17 -25 16 -6 17 -9 5 -9 -20 -1 -34 -20 -22 -31 5 -4 29 -10 54 -12 32 -2 50
-10 63 -25 22 -27 33 -29 41 -8 4 10 -3 20 -19 27 -14 6 -25 17 -25 24 0 16
-37 37 -50 29 -5 -3 -11 -1 -15 5 -11 17 39 11 80 -10 22 -11 39 -23 38 -25
-12 -21 23 -43 40 -26 7 7 5 16 -5 28 -14 16 -15 22 -3 51 8 17 19 32 25 32
15 0 12 -11 -7 -33 -17 -18 -17 -19 0 -32 16 -12 17 -21 7 -96 -5 -46 -14 -87
-20 -93 -7 -7 -10 -3 -10 12 0 25 -22 29 -40 7 -20 -24 -39 -18 -37 13 2 24
-2 28 -38 33 -37 6 -30 10 20 13 32 2 30 32 -4 46 -27 11 -35 9 -66 -10 -36
-22 -43 -34 -25 -45 8 -5 7 -12 -1 -22 -10 -12 -10 -16 1 -23 7 -4 19 -6 27
-3 7 3 13 -1 13 -10 0 -9 -10 -17 -22 -19 -30 -4 -33 -41 -19 -228 6 -80 13
-192 16 -250 6 -108 11 -120 53 -120 14 0 22 -6 22 -17 0 -10 3 -28 6 -39 4
-16 0 -23 -15 -27 -41 -10 -14 -87 30 -87 29 0 31 -17 4 -38 -14 -11 -25 -27
-25 -37 0 -23 -20 -57 -42 -73 -24 -17 -23 -53 2 -80 16 -16 33 -22 68 -23
100 -1 141 -36 157 -136 6 -36 4 -44 -12 -50 -16 -6 -49 -29 -93 -66 -8 -6
-16 -11 -18 -9 -1 2 -16 -5 -32 -14 -34 -21 -44 -43 -65 -144 -9 -41 -27 -109
-40 -150 -14 -41 -31 -100 -38 -130 -12 -50 -18 -57 -55 -75 -23 -12 -47 -26
-54 -33 -20 -20 17 -25 52 -7 30 16 32 15 28 -2 -2 -10 -25 -28 -51 -41 -26
-13 -47 -27 -47 -32 0 -17 32 -19 61 -4 30 15 30 15 27 -8 -2 -12 -14 -28 -26
-34 -38 -19 -48 -32 -34 -46 22 -22 -40 -43 -159 -54 -54 -4 -69 -2 -83 11
-16 16 -16 18 0 30 24 17 11 43 -23 48 -27 4 -27 4 4 6 69 3 47 51 -23 51 -35
0 -44 4 -44 18 0 13 9 17 42 17 30 0 43 4 43 14 0 16 -18 27 -60 37 l-30 7 33
13 c38 17 43 44 8 44 -33 0 -39 13 -15 33 24 21 24 34 -1 42 -30 10 -24 23 12
27 22 2 34 9 36 21 3 14 -4 17 -42 17 -39 0 -46 3 -46 19 0 15 7 19 36 19 20
0 41 5 46 10 18 18 -2 32 -43 32 -47 0 -53 14 -7 17 38 3 53 16 44 38 -6 16
-15 17 -66 4 -8 -2 -15 2 -15 10 0 8 8 15 18 17 10 1 30 10 44 20 26 17 26 17
7 33 -11 9 -18 24 -16 34 3 13 -3 17 -25 17 -43 0 -43 37 0 48 42 11 42 36 0
40 -40 4 -49 26 -17 41 32 14 32 41 -1 41 -35 0 -31 14 8 31 36 16 41 36 14
53 -15 9 -21 7 -33 -8 -8 -11 -14 -15 -14 -9 0 6 -3 24 -6 40 -6 28 -5 29 30
25 28 -3 36 -1 36 12 0 22 -28 32 -50 18 -14 -9 -19 -8 -24 4 -12 31 -6 41 24
41 35 0 56 16 45 33 -5 8 -20 10 -41 7 -30 -5 -35 -3 -40 19 -4 14 -5 26 -3
27 2 2 21 10 42 20 20 9 37 21 37 26 0 15 -29 21 -56 10 -39 -14 -41 -3 -4 16
36 19 35 41 -4 38 -22 -2 -26 2 -26 27 0 20 6 31 20 35 11 4 20 15 20 27 0 17
-4 19 -25 14 -18 -5 -25 -2 -25 8 0 8 10 16 23 18 14 2 23 11 25 27 3 21 1 23
-22 17 -32 -8 -34 6 -4 36 l21 21 -22 18 c-21 17 -23 30 -31 186 -15 281 -22
454 -24 541 -1 45 -5 82 -9 82 -4 0 -12 0 -18 0 -12 0 -11 -42 11 -455 5 -110
12 -292 15 -405 2 -113 8 -230 11 -260 6 -49 5 -54 -9 -42 -24 21 -50 108 -45
155 3 23 0 53 -5 67 -14 33 -17 63 -17 127 1 45 -2 54 -24 69 -34 21 -32 51 4
93 27 32 29 37 15 57 -15 23 -23 233 -10 266 4 9 0 26 -7 37 -19 28 -15 556 7
751 8 74 17 182 20 240 6 97 9 112 51 199 44 94 63 120 180 243 60 63 134 166
134 186 0 19 24 29 63 26 23 -2 69 -5 102 -8z m-1133 -47 c17 -9 18 -13 7 -20
-23 -15 -39 -10 -39 11 0 23 4 24 32 9z m538 -9 c0 -5 -2 -10 -4 -10 -3 0 -8
5 -11 10 -3 6 -1 10 4 10 6 0 11 -4 11 -10z m-550 -60 c0 -5 -4 -10 -10 -10
-5 0 -10 5 -10 10 0 6 5 10 10 10 6 0 10 -4 10 -10z m30 -15 c0 -8 -4 -15 -10
-15 -5 0 -10 7 -10 15 0 8 5 15 10 15 6 0 10 -7 10 -15z m750 -15 c0 -5 -7
-10 -15 -10 -8 0 -15 5 -15 10 0 6 7 10 15 10 8 0 15 -4 15 -10z m1330 -34 c0
-28 -19 -44 -30 -26 -5 8 -18 10 -41 5 l-34 -7 24 26 c33 35 81 36 81 2z
m-1595 -3 c-18 -46 -27 -76 -51 -188 -36 -162 -53 -300 -54 -420 0 -55 -5
-149 -10 -210 -5 -60 -12 -252 -15 -425 -3 -173 -9 -334 -14 -358 -6 -31 -5
-44 4 -50 22 -12 29 -76 11 -91 -29 -24 -41 -7 -44 65 -4 76 -7 84 -28 84 -9
0 -14 -11 -14 -34 0 -19 -5 -38 -11 -42 -8 -4 -8 -9 0 -17 13 -13 15 -57 3
-57 -4 0 -13 13 -19 29 -12 32 -6 84 8 75 5 -3 9 4 9 15 0 11 -4 23 -10 26 -6
3 -7 -1 -4 -9 3 -9 2 -16 -4 -16 -5 0 -10 24 -10 53 1 106 -12 231 -24 238
-26 16 -38 -11 -32 -75 8 -77 8 -326 0 -333 -14 -15 -36 11 -51 59 -23 76 -35
214 -29 355 5 125 -2 151 -32 121 -29 -28 -15 -450 16 -509 7 -11 9 -23 6 -26
-9 -9 -65 21 -58 32 9 13 9 105 0 105 -3 0 -5 35 -4 78 1 42 -2 85 -6 94 -4 9
-4 19 0 22 5 3 7 29 4 58 -4 49 -4 186 1 267 2 32 -23 64 -38 49 -12 -12 -16
-92 -17 -348 0 -154 -4 -248 -8 -225 -4 22 -6 43 -3 48 2 4 1 7 -4 6 -25 -4
-35 2 -30 22 4 15 2 19 -9 15 -19 -7 -18 3 4 27 13 15 14 21 4 24 -10 4 -9 10
4 25 15 15 16 21 5 27 -8 5 -10 14 -7 20 4 6 3 11 -2 11 -15 0 -23 -28 -10
-32 7 -3 8 -10 3 -18 -6 -10 -10 -8 -17 10 -6 16 -4 28 7 40 10 12 12 19 4 27
-8 8 -8 17 0 31 8 15 8 21 -1 24 -8 3 -8 10 1 26 8 15 8 22 1 22 -6 0 -10 21
-9 50 2 34 6 50 16 50 7 0 13 5 13 11 0 5 -5 7 -10 4 -13 -8 -18 8 -24 78 -3
36 -1 55 5 51 6 -3 5 3 -3 15 -10 17 -10 25 -1 41 9 14 10 21 1 26 -11 7 -8
127 12 409 10 148 22 214 41 226 9 6 10 12 4 17 -11 8 -11 27 0 90 4 23 11 42
15 42 5 0 6 8 3 19 -2 10 2 24 10 32 7 8 12 20 9 27 -2 7 5 12 18 12 17 0 21
-4 15 -17 -4 -10 -9 -28 -10 -40 -3 -19 0 -21 14 -13 22 11 55 60 41 60 -5 0
-10 6 -10 14 0 11 8 12 38 5 20 -5 56 -9 80 -9 27 0 41 -4 37 -10 -4 -6 -9 -8
-13 -6 -6 3 -7 -39 -3 -116 1 -20 31 -25 32 -5 0 6 3 23 5 37 3 14 6 43 7 65
2 31 7 41 23 43 10 1 36 8 57 14 47 14 62 3 47 -37 -6 -15 -12 -63 -15 -106
-3 -62 -1 -79 9 -79 18 0 24 16 31 92 11 107 24 155 48 166 34 17 50 15 42 -5z
m127 -28 c6 -14 17 -25 25 -25 20 0 16 -7 -21 -45 -19 -19 -42 -57 -51 -85
-12 -38 -20 -48 -26 -39 -6 9 -7 -4 -5 -34 6 -57 0 -78 -20 -70 -20 7 -19 124
2 164 8 17 17 46 20 65 4 34 40 94 56 94 5 0 14 -11 20 -25z m1538 -29 c0 -12
-69 -76 -82 -76 -5 0 -23 -9 -39 -21 -29 -20 -49 -19 -49 4 0 14 73 87 87 87
5 0 18 9 27 19 15 16 21 18 37 8 10 -6 19 -16 19 -21z m-156 -17 c-10 -12 -31
-19 -52 -19 -42 0 -89 -26 -96 -54 -3 -12 -6 -37 -6 -57 0 -25 -8 -45 -27 -65
-23 -25 -24 -29 -9 -32 9 -2 25 2 34 9 14 11 15 11 5 -1 -18 -20 -16 -30 6
-30 12 0 21 9 25 25 6 24 7 24 24 7 10 -10 17 -28 15 -42 -2 -14 -3 -56 -3
-95 -1 -76 -16 -124 -40 -126 -8 -1 -26 -3 -40 -5 -34 -4 -114 23 -132 44 -20
23 -22 81 -4 101 9 11 13 35 12 74 -1 41 2 57 11 57 17 0 32 38 35 87 1 21 8
48 16 60 7 12 11 27 8 32 -15 23 75 49 167 49 66 -1 67 -1 51 -19z m161 -69
c0 -19 -10 -30 -45 -47 -73 -36 -132 -27 -77 12 102 72 122 78 122 35z m-235
-70 c0 -16 -4 -30 -10 -30 -5 0 -10 14 -10 30 0 17 5 30 10 30 6 0 10 -13 10
-30z m46 22 c23 -15 30 -49 25 -112 -3 -36 -3 -86 1 -113 10 -66 22 -226 20
-259 -1 -19 4 -28 13 -28 20 0 20 -54 -1 -74 -29 -30 -114 -12 -114 23 0 4 7
21 15 37 9 20 12 40 6 64 -7 35 -6 97 3 155 2 17 5 66 6 110 1 44 7 97 12 118
8 27 8 44 0 62 -12 25 -7 31 14 17z m204 -21 c0 -28 -38 -51 -82 -51 -51 0
-50 23 3 40 22 8 42 17 45 22 10 16 34 8 34 -11z m-117 -103 c-22 -24 -33 -23
-33 5 0 32 8 38 31 24 17 -10 17 -13 2 -29z m-1555 -40 c-2 -13 -6 -27 -10
-33 -3 -5 -5 -22 -3 -37 2 -16 0 -28 -5 -28 -4 0 -11 -10 -15 -22 -6 -21 -7
-20 -16 11 -9 29 -7 39 12 65 13 17 22 38 22 48 -1 10 3 18 8 18 5 0 8 -10 7
-22z m1153 -39 c-47 -28 -59 -134 -16 -134 12 -1 38 -14 59 -30 53 -41 146
-51 192 -20 20 13 24 13 24 1 0 -8 -8 -17 -17 -21 -10 -3 -28 -19 -40 -34 -19
-24 -20 -31 -9 -40 11 -9 18 -8 31 5 18 19 39 7 30 -17 -7 -20 -145 -14 -145
7 0 8 -10 14 -22 14 -33 0 -101 42 -113 68 -5 12 -17 22 -26 22 -11 0 -17 8
-17 23 1 12 -3 43 -7 69 -7 46 -7 49 34 89 34 35 43 39 56 29 14 -11 12 -15
-14 -31z m-4 -101 c-3 -8 -6 -5 -6 6 -1 11 2 17 5 13 3 -3 4 -12 1 -19z
m-1152 -18 c3 -5 3 -16 -2 -22 -4 -7 -8 -35 -8 -62 0 -32 -5 -51 -13 -54 -7
-2 -12 2 -11 9 1 8 -1 31 -6 52 -10 52 20 110 40 77z m1055 -38 c0 -5 -11 -15
-25 -22 -30 -16 -32 -30 -5 -30 11 0 20 -4 20 -10 0 -5 5 -10 10 -10 6 0 10 7
8 16 -2 10 2 19 7 21 6 2 11 -5 12 -14 7 -67 14 -79 43 -75 15 2 36 -1 47 -7
14 -8 6 -10 -39 -11 -51 0 -58 2 -58 19 0 20 -44 61 -65 61 -7 0 -20 -10 -29
-22 -10 -14 -15 -16 -12 -7 2 9 -1 22 -7 28 -8 8 -5 11 11 11 13 0 22 6 22 15
0 8 6 15 14 15 7 0 19 7 26 15 14 17 20 19 20 7z m-13 -116 c-3 -7 1 -24 10
-35 19 -28 7 -43 -14 -16 -8 11 -19 19 -25 17 -6 -2 -18 0 -26 3 -13 5 -12 8
3 25 21 23 60 28 52 6z m-1056 -13 c1 -10 0 -22 -1 -28 -1 -5 -2 -40 -2 -77 0
-44 -4 -68 -12 -68 -6 0 -4 -5 4 -11 11 -8 12 -12 3 -16 -7 -2 -13 -20 -13
-40 0 -23 -4 -33 -12 -30 -9 3 -12 27 -11 83 4 137 13 204 29 204 8 0 15 -8
15 -17z m973 -15 c-4 -5 3 -23 15 -39 26 -35 27 -69 1 -101 -10 -14 -17 -28
-14 -30 3 -3 -9 -17 -26 -31 -16 -14 -30 -30 -30 -36 0 -6 -11 -18 -25 -27
-14 -9 -25 -22 -25 -29 0 -6 -9 -20 -20 -30 -20 -18 -22 -18 -38 -1 -14 14
-15 18 -3 25 17 11 6 49 -17 53 -10 2 -13 6 -6 10 6 4 22 1 37 -7 25 -13 28
-12 64 32 21 24 53 60 71 79 32 35 40 58 22 69 -11 7 -100 -84 -100 -102 0
-17 -5 -16 -41 3 -17 8 -28 18 -25 22 4 3 11 1 17 -5 8 -8 19 -2 40 20 16 18
29 26 29 18 0 -11 3 -11 15 -1 21 18 19 32 -5 25 -11 -4 -20 -2 -20 4 0 6 8
11 18 11 13 0 14 2 3 9 -8 5 -9 11 -3 15 6 3 13 2 17 -4 3 -5 11 -10 18 -10 8
0 8 3 -1 12 -21 21 -13 32 9 13 20 -19 20 -19 11 5 -10 28 -5 53 9 44 5 -3 6
-10 3 -16z m74 -359 l-23 -31 -3 26 c-5 37 15 257 25 281 5 13 11 -27 16 -112
8 -129 7 -133 -15 -164z m122 261 c-29 -8 -40 -3 -21 10 8 4 21 5 30 2 12 -5
10 -8 -9 -12z m82 2 c-12 -2 -29 -16 -37 -31 -8 -16 -22 -31 -31 -35 -10 -4
-14 -12 -10 -22 4 -10 1 -14 -6 -12 -7 3 -14 21 -16 41 -3 30 0 36 12 31 9 -4
29 5 46 20 20 16 36 23 48 18 14 -6 14 -7 -6 -10z m102 -4 c9 -34 7 -38 -8
-32 -25 9 -26 -12 -11 -124 21 -149 23 -261 4 -272 -11 -7 -13 -33 -10 -120 3
-105 0 -119 -25 -102 -12 7 -44 99 -69 196 -12 50 -13 63 -2 80 21 33 36 98
35 147 0 25 4 54 10 65 5 10 17 51 26 89 9 39 19 76 21 83 7 19 22 14 29 -10z
m-218 -130 c8 -31 17 -80 20 -110 3 -29 9 -64 13 -78 16 -45 34 -140 29 -145
-3 -3 -13 -2 -22 1 -12 5 -14 9 -6 14 17 10 2 80 -17 80 -13 0 -13 3 -3 15 17
21 -3 46 -22 27 -9 -9 -9 -21 0 -48 6 -20 8 -42 5 -50 -3 -8 1 -14 8 -14 7 0
5 -6 -7 -14 -21 -16 -13 -31 21 -38 15 -3 12 -5 -11 -9 l-31 -5 -8 155 c-4 86
-9 179 -10 206 -2 28 0 73 3 100 l6 50 8 -40 c5 -22 16 -65 24 -97z m129 73
c3 -5 0 -21 -7 -35 -8 -20 -17 -25 -32 -21 -12 3 -15 2 -8 -1 6 -3 12 -12 12
-20 0 -9 -5 -12 -12 -8 -7 4 -8 3 -4 -5 8 -12 -10 -41 -25 -41 -5 0 -9 7 -9
16 0 9 5 12 12 8 6 -4 8 -3 4 4 -7 12 22 93 38 104 15 10 24 10 31 -1z m-275
-67 c0 -8 -5 -12 -10 -9 -6 4 -8 11 -5 16 9 14 15 11 15 -7z m907 -171 c-13
-298 -23 -352 -64 -336 -12 5 -14 17 -8 61 4 31 10 65 15 77 16 41 47 237 49
308 0 26 4 47 7 47 4 0 4 -71 1 -157z m-911 125 c-3 -31 -14 -49 -58 -97 -21
-22 -38 -46 -38 -53 -1 -7 -7 -2 -15 12 -17 29 -20 52 -4 30 9 -12 10 -11 6 7
-6 26 24 58 39 43 12 -12 44 -3 44 12 0 5 -5 6 -12 2 -7 -4 -8 -3 -4 4 4 7 14
12 22 12 8 0 13 4 10 9 -6 9 2 41 9 41 2 0 3 -10 1 -22z m-1926 -2 c0 -7 -7
-19 -15 -26 -8 -7 -15 -17 -15 -22 0 -6 -13 -27 -30 -48 -16 -21 -30 -42 -30
-47 0 -6 -34 -45 -75 -89 -41 -43 -75 -82 -75 -86 0 -5 -9 -8 -20 -8 -11 0
-20 6 -20 13 1 17 31 52 56 65 12 6 29 28 39 49 20 44 63 93 81 93 19 0 28 20
15 33 -17 17 -13 38 11 64 24 26 78 32 78 9z m1881 -27 c-9 -16 -20 -24 -24
-20 -12 12 8 48 26 48 12 0 11 -5 -2 -28z m-1821 -20 c14 -25 5 -53 -15 -46
-8 4 -12 1 -10 -6 3 -7 -4 -22 -15 -35 -16 -20 -23 -21 -42 -12 -21 10 -22 10
-4 -4 18 -14 18 -16 -2 -44 -28 -39 -108 -103 -117 -94 -5 4 -5 2 -1 -5 3 -6
-7 -26 -22 -43 -24 -25 -31 -28 -40 -17 -9 11 -5 20 18 42 17 16 30 35 30 42
0 8 8 17 18 20 9 4 23 15 31 26 7 10 18 16 25 14 6 -3 21 2 31 10 19 15 19 15
-3 10 l-22 -5 26 48 c30 55 81 120 94 120 5 0 14 -9 20 -21z m863 2 c3 -14 1
-18 -9 -14 -8 3 -14 11 -14 19 0 21 17 17 23 -5z m1218 -24 c-10 -9 -11 -8 -5
6 3 10 9 15 12 12 3 -3 0 -11 -7 -18z m-205 -29 c-3 -29 -11 -48 -27 -63 -14
-11 -37 -37 -53 -58 -27 -36 -30 -37 -47 -21 -18 16 -17 19 30 73 26 31 56 68
66 84 25 38 35 34 31 -15z m-2076 27 c0 -3 -16 -23 -35 -44 -20 -22 -38 -50
-40 -63 -3 -13 -12 -27 -21 -33 -37 -22 -74 -58 -74 -70 0 -8 -4 -17 -10 -20
-5 -3 -10 1 -10 9 0 9 20 35 45 58 30 28 47 54 51 77 4 19 14 35 23 38 9 2 25
15 36 28 19 22 35 32 35 20z m239 -48 c6 -8 13 -27 16 -43 5 -26 0 -33 -62
-79 -88 -65 -143 -115 -143 -129 -1 -6 -17 -18 -36 -28 -32 -15 -36 -15 -41 0
-5 10 14 35 59 78 36 34 92 96 123 138 32 42 61 76 65 76 4 0 13 -6 19 -13z
m1704 -31 c4 -10 1 -13 -9 -9 -10 4 -12 0 -7 -13 4 -11 -5 -5 -20 12 -15 18
-27 37 -27 43 0 16 56 -14 63 -33z m203 15 c-1 -16 -9 -38 -19 -48 -24 -28
-23 -57 3 -50 16 4 20 0 20 -18 0 -14 -7 -25 -20 -28 -28 -7 -25 -25 5 -33 19
-5 25 -13 25 -35 0 -34 -22 -39 -52 -12 -14 13 -18 31 -18 89 0 47 5 77 13 86
8 7 12 19 9 26 -2 8 3 10 15 6 16 -6 16 -5 -2 9 -18 15 -18 16 -2 17 9 0 17 5
17 10 0 6 2 10 4 10 2 0 3 -13 2 -29z m157 9 c-3 -12 -8 -19 -11 -16 -5 6 5
36 12 36 2 0 2 -9 -1 -20z m-1225 -62 c15 -15 16 -48 1 -48 -14 0 -38 30 -39
48 0 15 22 16 38 0z m-811 -68 c-4 -16 -3 -30 1 -30 4 0 6 -20 4 -44 -3 -31
-8 -43 -17 -40 -6 3 -33 -15 -59 -40 -27 -27 -52 -43 -60 -40 -8 3 -24 0 -36
-6 -12 -6 -24 -9 -27 -6 -3 3 3 9 13 13 22 8 22 8 99 74 53 44 82 77 73 80
-28 8 -45 3 -40 -9 4 -11 1 -14 -11 -9 -12 4 -14 2 -10 -10 5 -13 3 -13 -15
-4 -29 15 -40 14 -18 -2 18 -13 17 -15 -15 -37 -19 -13 -36 -27 -39 -30 -3 -3
-26 -22 -51 -43 -41 -33 -59 -38 -59 -16 0 16 103 104 119 102 9 -1 11 0 4 3
-7 3 -13 9 -13 13 0 8 40 29 52 27 4 0 15 9 24 22 10 14 22 21 31 17 20 -7 43
12 36 31 -3 8 0 14 7 14 9 0 11 -10 7 -30z m-22 0 c-3 -5 -11 -10 -16 -10 -6
0 -7 5 -4 10 3 6 11 10 16 10 6 0 7 -4 4 -10z m805 6 c0 -11 -19 -15 -25 -6
-3 5 1 10 9 10 9 0 16 -2 16 -4z m1237 -93 c-3 -3 -11 -2 -17 2 -8 5 -7 11 2
22 12 15 13 14 16 -1 2 -10 1 -20 -1 -23z m-2390 -39 c15 -13 31 -24 35 -24 4
0 13 -19 19 -42 7 -24 16 -47 21 -52 4 -6 8 -39 8 -75 0 -51 -3 -62 -12 -53
-23 23 -39 14 -36 -19 2 -25 -5 -40 -33 -70 -39 -43 -49 -47 -49 -23 0 13 -7
15 -30 11 -35 -7 -38 -2 -11 21 10 10 23 36 30 60 10 37 9 48 -8 85 -49 105
-141 147 -212 96 l-29 -20 0 21 c0 11 8 32 17 46 13 21 22 25 46 20 23 -5 35
-1 51 17 18 20 32 23 93 25 62 1 75 -2 100 -24z m1163 15 c0 -5 -4 -8 -9 -4
-5 3 -12 -3 -14 -12 -4 -14 -5 -13 -6 5 -1 13 5 22 14 22 8 0 15 -5 15 -11z
m1211 -3 c22 1 27 -6 42 -55 19 -63 17 -65 -51 -75 -54 -7 -73 5 -54 35 7 11
10 24 7 30 -4 5 7 8 27 7 49 -4 43 24 -9 42 -47 16 -60 35 -15 23 15 -4 39 -7
53 -7z m-151 -26 c0 -5 9 -10 21 -10 12 0 19 -5 17 -12 -3 -7 -11 -13 -18 -13
-21 0 -24 -24 -3 -32 22 -8 34 -24 26 -36 -3 -6 -14 1 -25 14 -18 23 -19 23
-32 5 -20 -25 -36 -11 -32 27 2 18 4 40 5 50 1 18 41 25 41 7z m-1090 -14 c0
-3 -4 -8 -10 -11 -5 -3 -10 -1 -10 4 0 6 5 11 10 11 6 0 10 -2 10 -4z m-780
-42 c0 -21 -4 -24 -20 -19 -14 4 -22 1 -27 -10 -5 -15 6 -29 30 -38 15 -5 -33
-85 -53 -90 -11 -3 -20 -1 -20 5 0 5 -8 8 -17 6 -26 -5 -22 -31 6 -38 32 -7
36 -22 12 -44 -16 -15 -22 -15 -40 -5 -23 15 -36 7 -27 -17 4 -10 12 -14 22
-10 18 7 44 -16 44 -38 0 -18 -15 -21 -25 -6 -3 6 -13 10 -21 10 -15 0 -54 35
-54 49 0 5 -6 14 -14 21 -8 6 -12 18 -9 26 3 8 2 22 -2 31 -13 28 -15 47 -7
59 16 23 102 74 127 74 17 0 36 11 53 30 32 37 42 38 42 4z m2621 -27 c-13
-13 -26 -3 -16 12 3 6 11 8 17 5 6 -4 6 -10 -1 -17z m-3131 -26 c15 -14 35
-41 44 -60 20 -37 25 -29 -78 -132 -25 -26 -36 -44 -32 -55 15 -38 -83 -179
-107 -155 -5 5 -1 25 7 46 20 48 20 58 -1 81 -20 21 -35 23 -73 9 -14 -5 -37
-7 -53 -6 -32 3 -87 -46 -87 -78 0 -12 -4 -21 -10 -21 -5 0 -10 -6 -10 -13 0
-7 -20 -37 -45 -66 -51 -59 -60 -55 -16 6 42 58 72 120 65 136 -6 16 49 67 74
68 72 3 94 8 135 32 26 15 47 32 47 36 0 16 -27 20 -46 7 -16 -11 -55 -22
-151 -42 -13 -2 -45 -24 -73 -49 -28 -25 -57 -45 -64 -45 -20 0 50 115 77 128
87 42 157 70 187 76 25 5 51 25 90 65 30 32 64 58 74 58 11 0 32 -12 46 -26z
m2249 20 c8 -5 9 -11 3 -15 -5 -3 -15 1 -22 9 -14 16 -3 20 19 6z m-59 -9 c0
-4 -14 -13 -31 -19 -35 -14 -37 -46 -3 -51 12 -2 39 -18 60 -36 22 -18 63 -46
93 -61 51 -25 61 -27 150 -23 73 3 111 10 159 30 37 16 62 21 62 14 0 -6 -7
-42 -15 -81 -9 -41 -13 -94 -10 -127 4 -43 2 -58 -7 -58 -7 -1 -31 -9 -53 -20
-22 -11 -57 -19 -78 -20 -78 0 -164 -67 -212 -165 -6 -11 -23 -40 -40 -65 -16
-25 -30 -46 -31 -48 -3 -7 -54 19 -54 27 0 6 20 19 45 30 51 22 62 46 17 36
-28 -6 -29 -5 -40 62 -6 37 -15 100 -19 138 -4 39 -8 75 -9 80 -1 6 -2 58 -3
118 -1 92 -3 107 -17 107 -17 0 -17 -19 2 -307 4 -63 3 -93 -4 -93 -21 0 -28
61 -39 345 l-6 170 34 11 c45 15 49 15 49 6z m280 -42 c0 -5 -5 -10 -11 -10
-5 0 -7 5 -4 10 3 6 8 10 11 10 2 0 4 -4 4 -10z m-74 -15 c4 -10 20 -15 51
-15 39 0 44 -2 38 -19 -4 -14 0 -21 12 -24 11 -3 6 -5 -11 -6 -17 0 -39 -10
-51 -21 l-22 -21 -56 21 c-30 11 -74 34 -97 51 -54 39 -42 49 58 49 55 0 74
-4 78 -15z m-1096 -70 c0 -8 -2 -15 -4 -15 -2 0 -6 7 -10 15 -3 8 -1 15 4 15
6 0 10 -7 10 -15z m10 -65 c0 -5 -4 -10 -10 -10 -5 0 -10 5 -10 10 0 6 5 10
10 10 6 0 10 -4 10 -10z m-1505 -120 c8 -13 -13 -40 -31 -40 -17 0 -18 22 -2
38 15 15 25 15 33 2z m-107 -32 c-6 -18 -28 -21 -28 -4 0 9 7 16 16 16 9 0 14
-5 12 -12z m1562 -40 c0 -11 -7 -10 -31 2 -28 16 -23 32 6 18 14 -6 25 -15 25
-20z m-330 7 c205 -11 255 -18 279 -36 13 -11 30 -19 37 -19 8 0 14 -5 14 -10
0 -11 -58 -8 -195 11 -39 5 -98 9 -132 7 -52 -2 -66 1 -86 20 -13 12 -28 22
-35 22 -6 0 -14 5 -17 10 -4 7 4 9 22 5 15 -3 66 -7 113 -10z m-1205 -22 c-4
-10 -10 -30 -13 -45 -4 -28 -32 -61 -32 -39 0 6 4 19 9 29 6 9 12 29 16 45 3
15 10 27 16 27 7 0 8 -7 4 -17z m65 -18 c0 -19 0 -38 1 -42 1 -15 -29 -14 -34
2 -10 24 4 75 19 75 9 0 14 -12 14 -35z m-124 14 c3 -6 1 -16 -5 -22 -9 -9
-14 -8 -21 3 -9 15 -4 30 10 30 5 0 12 -5 16 -11z m1180 -50 c29 -18 54 -21
177 -24 145 -4 215 -17 187 -35 -30 -19 -224 -2 -325 28 -38 12 -105 52 -86
52 7 0 29 -9 47 -21z m-1214 -36 c-9 -7 -21 -13 -25 -13 -5 0 -20 -9 -34 -20
-41 -32 -40 -13 1 29 32 33 42 38 57 28 16 -10 16 -12 1 -24z m-252 13 c0 -2
3 -11 6 -20 4 -12 0 -16 -15 -16 -12 0 -24 -7 -27 -15 -8 -21 15 -48 30 -36 7
6 20 3 36 -9 20 -15 21 -20 8 -20 -28 0 -29 -17 -4 -47 25 -30 22 -58 -6 -48
-8 3 -21 -1 -28 -10 -21 -25 8 -40 34 -17 18 16 18 16 12 -5 -4 -12 -2 -24 4
-28 18 -11 2 -22 -47 -31 -27 -4 -53 -8 -59 -9 -21 -1 -45 -28 -35 -38 6 -6
27 -4 61 7 70 23 104 8 108 -48 2 -21 -2 -44 -8 -50 -6 -6 -52 -14 -103 -18
-51 -4 -113 -10 -138 -13 -35 -6 -49 -4 -61 9 -22 21 -38 20 -38 -2 0 -16 37
-48 51 -44 4 0 20 -3 37 -7 20 -6 34 -5 41 2 19 19 44 14 65 -11 18 -22 18
-26 2 -58 -9 -19 -16 -41 -16 -49 0 -9 -10 -15 -24 -15 -14 0 -28 -5 -32 -12
-10 -16 27 -40 52 -34 17 5 23 -1 32 -31 6 -20 8 -41 4 -47 -3 -6 -5 -20 -3
-31 2 -13 -8 -5 -28 22 -27 38 -98 93 -118 93 -5 0 -28 23 -53 52 -25 29 -62
68 -82 87 -21 19 -38 41 -38 49 0 8 -7 11 -17 8 -26 -8 -47 9 -40 33 6 26 -18
29 -32 4 -5 -10 -12 -15 -15 -12 -4 3 5 18 19 33 18 19 32 26 47 23 14 -4 22
0 25 12 3 13 11 17 24 14 32 -9 22 23 -11 37 -40 16 -66 63 -46 79 10 9 16 9
21 1 11 -18 40 -7 40 15 0 13 8 21 21 23 19 3 21 7 15 35 -4 18 -4 43 0 57 l7
25 1 -25 c1 -14 6 -42 12 -64 9 -34 13 -37 25 -24 13 12 13 19 0 55 -12 35
-12 46 -1 79 8 22 14 35 15 30 0 -4 12 -1 26 9 46 30 127 54 187 54 31 1 57
-1 57 -3z m1456 -135 c-4 -86 -14 -87 -13 -1 1 40 -1 74 -5 77 -5 2 -8 9 -8
16 0 6 7 2 15 -10 10 -14 14 -40 11 -82z m83 -83 c-2 -94 -7 -169 -13 -177
-11 -14 -12 -64 -16 -571 -2 -278 -3 -260 18 -260 16 -1 16 -1 0 -11 -27 -15
-91 -1 -83 19 3 8 0 19 -7 24 -11 8 -11 11 0 15 10 4 9 8 -5 19 -11 8 -13 13
-5 14 15 0 16 36 2 45 -8 5 -8 11 0 20 6 7 9 19 8 26 -2 8 2 13 9 12 16 -3 5
28 -15 43 -13 9 -12 12 3 17 16 7 16 9 1 32 -9 13 -16 39 -15 57 0 30 1 31 9
11 10 -24 25 -30 35 -13 3 5 8 38 10 72 6 81 25 624 25 706 0 56 2 62 21 62
21 0 21 -3 18 -162z m94 100 c-9 -16 -14 -55 -13 -95 3 -146 -1 -238 -9 -225
-11 18 -23 -11 -14 -35 6 -15 7 -15 14 3 8 21 2 -406 -6 -447 -6 -27 16 -56
33 -45 7 4 27 382 23 446 0 8 2 98 5 199 4 124 9 179 16 168 6 -11 5 -72 -1
-165 -6 -88 -6 -195 -1 -267 6 -92 3 -639 -4 -640 0 0 -31 1 -68 3 -64 3 -68
5 -63 25 4 18 9 260 14 675 1 35 4 61 9 59 8 -6 13 75 15 251 l2 122 31 -2
c30 -2 30 -2 17 -30z m47 22 c0 -5 -2 -10 -4 -10 -3 0 -8 5 -11 10 -3 6 -1 10
4 10 6 0 11 -4 11 -10z m153 -9 c-4 -16 2 -22 28 -29 l34 -9 -28 -8 c-24 -6
-28 -12 -24 -32 2 -13 1 -26 -4 -29 -15 -9 3 -34 25 -35 21 0 21 0 -1 -11 -27
-13 -30 -33 -7 -46 11 -6 13 -11 5 -16 -19 -12 -12 -26 17 -38 l27 -12 -25 -4
c-35 -6 -54 -22 -40 -36 5 -5 10 -18 10 -28 0 -10 5 -18 10 -18 6 0 10 -4 10
-10 0 -5 -7 -10 -15 -10 -17 0 -20 -27 -4 -32 14 -5 20 -79 8 -93 -4 -6 -6
-28 -5 -49 2 -21 0 -54 -5 -73 -5 -23 -3 -42 4 -54 9 -14 9 -21 0 -30 -27 -27
-30 1 -49 486 -3 88 -9 174 -14 192 -9 36 -5 43 26 43 17 0 21 -4 17 -19z
m-87 -22 c1 -13 5 -73 8 -134 4 -60 8 -134 10 -162 2 -29 0 -51 -4 -48 -5 3
-12 0 -16 -6 -4 -7 -3 -9 4 -5 17 10 23 -9 27 -87 3 -40 7 -105 10 -144 13
-173 15 -226 16 -341 1 -89 -3 -127 -12 -139 -10 -12 -10 -15 -1 -9 8 5 12 -1
12 -18 0 -28 -29 -49 -55 -40 -25 10 -13 39 15 36 24 -2 24 -2 5 12 -11 8 -21
10 -23 5 -2 -5 -8 -9 -13 -9 -5 0 -6 80 -3 193 3 105 5 251 3 322 -1 72 -2
180 -1 240 2 242 1 321 -5 344 -4 17 -2 22 8 19 8 -3 15 -16 15 -29z m308 -87
c2 -4 -7 -17 -20 -29 -18 -16 -24 -18 -24 -7 0 8 -7 17 -16 21 -13 5 -13 7 -2
14 16 11 55 12 62 1z m-604 -12 c0 -5 -5 -10 -11 -10 -5 0 -7 5 -4 10 3 6 8
10 11 10 2 0 4 -4 4 -10z m-2 -74 c3 -12 -1 -17 -10 -14 -7 3 -15 13 -16 22
-3 12 1 17 10 14 7 -3 15 -13 16 -22z m2 -57 c0 -11 -4 -17 -10 -14 -5 3 -10
13 -10 21 0 8 5 14 10 14 6 0 10 -9 10 -21z m0 -59 c0 -5 -5 -10 -11 -10 -5 0
-7 5 -4 10 3 6 8 10 11 10 2 0 4 -4 4 -10z m621 -80 c11 0 24 9 31 20 20 31
45 25 51 -12 3 -18 13 -148 21 -288 9 -140 21 -316 28 -390 13 -145 16 -268 8
-279 -3 -3 -27 -12 -55 -19 -70 -18 -100 -35 -99 -55 1 -9 -2 -14 -7 -11 -5 3
-9 0 -9 -7 0 -9 -3 -9 -14 0 -8 6 -18 11 -22 10 -18 -4 -42 13 -37 27 3 7 -2
17 -11 20 -10 4 -14 13 -11 24 3 11 0 20 -10 24 -25 9 -18 36 10 36 22 0 24 4
23 35 -1 28 -8 40 -29 52 -33 20 -28 36 8 27 20 -6 24 -3 21 11 -4 25 -56 41
-80 26 -20 -13 -38 -7 -38 12 0 7 19 13 50 14 59 3 77 10 61 26 -6 6 -11 19
-11 29 0 22 -29 38 -72 38 -31 1 -32 2 -14 15 11 8 30 12 47 8 22 -4 29 -2 29
11 0 9 -3 16 -7 16 -5 0 -8 14 -9 30 -1 23 3 30 17 30 15 0 17 6 12 35 -3 21
-1 41 7 50 10 12 9 20 -4 40 -9 14 -21 25 -26 25 -15 0 -29 35 -23 58 3 15 13
22 28 22 30 0 41 48 17 67 -15 11 -15 12 6 13 27 0 29 16 2 32 -27 17 -25 28
6 28 35 0 26 22 -14 35 -33 10 -45 38 -14 34 58 -5 72 15 22 34 -34 13 -38 22
-14 31 10 4 22 -1 29 -11 13 -17 14 -17 34 1 12 11 21 31 22 45 0 26 0 26 11
4 6 -13 19 -23 29 -23z m-1045 -10 c-3 -8 -8 -105 -11 -215 -6 -190 -20 -384
-29 -393 -2 -2 -4 61 -3 140 1 79 0 161 -1 183 -5 59 -2 294 4 310 8 20 45 -4
40 -25z m421 14 c-3 -3 -12 -4 -19 -1 -8 3 -5 6 6 6 11 1 17 -2 13 -5z m0 -86
c-3 -7 -5 -2 -5 12 0 14 2 19 5 13 2 -7 2 -19 0 -25z m-1398 -54 c17 -28 31
-54 31 -57 0 -11 -61 -69 -67 -63 -4 3 3 16 15 29 22 23 30 67 13 67 -12 0
-41 -29 -41 -41 0 -15 -17 -10 -24 8 -4 10 3 26 20 44 28 29 27 64 -1 53 -8
-3 -15 -10 -15 -15 0 -5 -4 -9 -9 -9 -6 0 -6 12 0 30 9 25 13 27 28 18 10 -6
32 -35 50 -64z m1394 23 c3 -8 1 -20 -4 -28 -6 -10 -9 -7 -9 14 0 29 5 35 13
14z m-3 -79 c0 -36 -12 -31 -16 7 -1 14 2 25 7 25 5 0 9 -14 9 -32z m2410 -20
c0 -4 -19 -8 -42 -8 l-41 0 23 25 c22 23 25 24 42 8 10 -9 18 -20 18 -25z
m-2408 -63 c-3 -21 -9 -34 -16 -32 -10 4 -11 22 -1 57 2 8 4 16 4 18 1 2 5 1
9 -2 4 -3 6 -21 4 -41z m-1358 -10 c-12 -18 -20 -23 -27 -16 -8 8 -3 19 13 36
29 31 38 17 14 -20z m-254 25 c0 -5 -4 -10 -10 -10 -5 0 -10 5 -10 10 0 6 5
10 10 10 6 0 10 -4 10 -10z m289 -91 c-8 -5 -17 -9 -21 -9 -12 0 -9 25 4 38 9
9 14 9 21 -4 6 -11 5 -19 -4 -25z m-208 4 c13 -16 12 -17 -3 -4 -10 7 -18 15
-18 17 0 8 8 3 21 -13z m1529 8 c0 -6 -4 -13 -10 -16 -5 -3 -10 1 -10 9 0 9 5
16 10 16 6 0 10 -4 10 -9z m414 -20 c8 -13 -4 -42 -15 -35 -12 7 -12 44 0 44
6 0 12 -4 15 -9z m-1897 -31 c17 0 27 -10 38 -36 8 -19 15 -45 15 -57 0 -46 7
-186 13 -272 4 -62 3 -74 -2 -39 -5 28 -13 66 -20 85 -6 19 -13 52 -16 74 -9
59 -46 196 -61 227 -17 33 -18 46 -2 30 7 -7 22 -12 35 -12z m187 -32 c5 -21
3 -28 -9 -28 -15 0 -22 40 -8 53 8 9 9 8 17 -25z m2106 6 c0 -2 -7 -4 -15 -4
-8 0 -15 4 -15 10 0 5 7 7 15 4 8 -4 15 -8 15 -10z m-380 -25 c0 -5 -4 -9 -9
-9 -5 0 -12 -8 -14 -17 -3 -10 -5 -4 -6 14 -1 25 2 31 14 27 8 -4 15 -10 15
-15z m-1707 -84 c-5 -9 -13 -11 -22 -6 -10 7 -11 13 -1 31 11 21 13 21 22 7 5
-10 5 -24 1 -32z m241 -18 c-3 -8 -36 -39 -74 -71 -39 -31 -70 -64 -70 -73 0
-9 -7 -25 -16 -35 -16 -16 -15 -18 0 -24 21 -8 44 13 49 44 6 42 17 45 222 47
108 1 192 -1 188 -6 -4 -4 -48 -13 -98 -19 -49 -7 -94 -16 -99 -21 -16 -14 43
-15 179 -1 83 8 141 3 119 -10 -15 -9 -166 -38 -216 -41 -26 -1 -50 -6 -54
-10 -11 -11 39 -12 146 -2 46 4 61 3 50 -4 -8 -6 -27 -11 -42 -11 -15 0 -30
-4 -33 -10 -3 -5 -30 -10 -59 -10 -32 0 -60 -6 -72 -15 -17 -15 -13 -15 54
-10 40 3 80 8 90 12 13 4 14 3 6 -6 -6 -6 -21 -13 -33 -16 -12 -2 -30 -6 -39
-9 -9 -3 -47 -7 -85 -11 -37 -3 -75 -9 -85 -12 -9 -4 0 13 22 37 l39 43 -23
19 c-22 18 -23 18 -54 -1 -17 -11 -59 -27 -92 -37 -53 -14 -64 -21 -78 -50 -8
-19 -19 -33 -23 -32 -5 1 -19 -2 -33 -5 -14 -4 -38 -9 -54 -11 -16 -3 -37 -14
-48 -26 -21 -22 -48 -29 -30 -7 5 6 13 35 17 62 9 60 21 85 40 85 25 0 91 74
109 121 15 40 25 49 92 84 42 22 78 43 80 48 8 12 14 8 8 -6z m-240 -51 c-3
-9 -10 -16 -15 -16 -5 0 -4 9 3 20 14 22 21 20 12 -4z m-227 -38 c-3 -7 -5 -2
-5 12 0 14 2 19 5 13 2 -7 2 -19 0 -25z m243 -12 c0 -3 -4 -8 -10 -11 -5 -3
-10 -1 -10 4 0 6 5 11 10 11 6 0 10 -2 10 -4z m1695 -36 c-3 -5 -11 -10 -16
-10 -6 0 -7 5 -4 10 3 6 11 10 16 10 6 0 7 -4 4 -10z m-1900 -80 c5 -16 4 -22
-3 -15 -5 6 -12 24 -16 40 -7 34 7 15 19 -25z m1652 -27 c3 -8 -11 -13 -39
-15 -52 -4 -53 -21 -1 -28 32 -4 38 -9 38 -30 0 -25 0 -25 95 -25 85 0 95 2
98 19 4 17 -1 18 -60 12 -70 -8 -121 5 -112 27 4 11 15 12 47 7 22 -5 67 -6
99 -4 56 5 58 4 58 -19 0 -44 -33 -61 -123 -63 -101 -3 -96 -2 -73 -19 16 -12
39 -14 115 -8 88 6 95 5 83 -10 -10 -12 -35 -17 -95 -19 -65 -2 -82 -6 -82
-18 0 -9 8 -14 20 -13 92 12 149 3 159 -25 3 -9 8 -22 11 -28 3 -6 -24 -15
-72 -22 -86 -14 -121 -32 -57 -31 21 0 63 4 92 8 37 5 52 4 52 -4 0 -15 -66
-35 -117 -35 -43 0 -76 -23 -49 -33 8 -3 22 -4 33 -2 10 2 46 9 80 16 35 6 68
18 74 25 6 8 20 14 31 14 87 0 -209 -115 -321 -125 -62 -6 -71 -5 -71 9 0 10
-17 52 -37 94 -31 64 -37 87 -36 135 1 40 6 62 17 70 14 11 14 18 1 67 -16 60
-11 69 35 70 14 0 32 5 40 10 19 13 62 8 67 -7z m-1203 -17 c-3 -7 -26 -24
-52 -37 -44 -22 -47 -27 -48 -64 -2 -51 22 -75 73 -75 29 0 34 -3 23 -10 -13
-9 -12 -12 5 -26 23 -17 97 -13 200 13 65 16 185 23 185 11 0 -5 -10 -8 -22
-9 -62 -3 -120 -11 -203 -30 -27 -6 -84 -11 -125 -12 -58 -2 -75 -5 -75 -17 0
-8 11 -17 25 -20 17 -4 21 -8 12 -14 -19 -11 -6 -23 32 -30 19 -4 39 -13 45
-20 11 -13 51 -14 113 -1 31 6 32 6 13 -8 -45 -32 -145 -32 -182 2 -34 31
-202 37 -278 9 -69 -25 -73 -24 -85 24 -11 39 -10 43 12 60 12 10 28 16 35 13
14 -5 91 78 113 121 27 54 52 85 65 80 7 -2 21 2 32 9 10 8 25 15 34 15 9 0
22 7 29 15 16 19 31 20 24 1z m321 -136 c3 -6 -4 -10 -17 -10 -18 0 -20 2 -8
10 19 12 18 12 25 0z m-48 -16 c-3 -3 -12 -4 -19 -1 -8 3 -5 6 6 6 11 1 17 -2
13 -5z m1458 -64 c-3 -5 -14 -10 -23 -9 -14 0 -13 2 3 9 27 11 27 11 20 0z
m125 -6 l25 -14 -29 2 c-16 2 -31 9 -34 16 -5 16 7 15 38 -4z m-1510 -34 c0
-14 -158 -44 -215 -41 -60 2 -103 20 -55 22 14 0 34 2 45 3 11 2 56 6 100 10
43 4 81 9 83 11 6 6 42 1 42 -5z m-303 -26 c-3 -3 -12 -4 -19 -1 -8 3 -5 6 6
6 11 1 17 -2 13 -5z m598 -36 c14 -2 20 -11 20 -31 0 -15 7 -32 15 -37 8 -5
11 -10 7 -10 -4 0 4 -11 20 -24 l28 -24 -18 -36 c-15 -32 -20 -35 -37 -26 -14
7 -26 8 -39 0 -28 -14 -34 -13 -29 8 4 12 -1 17 -19 17 -12 0 -23 -4 -23 -9 0
-5 -7 -3 -16 5 -11 9 -14 22 -10 42 4 21 1 33 -10 42 -14 10 -15 14 -3 33 14
22 39 30 39 12 0 -15 37 -12 43 4 3 8 3 25 0 38 -3 13 -1 18 4 12 4 -7 17 -13
28 -16z m250 -15 c14 -15 25 -32 26 -38 0 -5 2 -29 4 -52 4 -45 -4 -53 -26
-27 -17 20 -65 12 -96 -18 -20 -18 -23 -19 -23 -5 0 9 5 17 11 17 5 0 8 4 5 9
-3 5 1 11 9 15 8 3 15 16 15 30 0 13 7 26 15 30 11 4 13 11 5 30 -6 17 -5 26
3 30 21 8 26 6 52 -21z m864 -35 c7 -35 15 -74 18 -87 5 -19 3 -22 -8 -15 -8
5 -34 11 -59 14 -33 4 -44 10 -41 20 2 8 3 28 3 44 -1 39 15 67 33 60 8 -4 18
1 21 10 11 29 20 17 33 -46z m305 37 c-6 -16 -24 -21 -24 -7 0 11 11 22 21 22
5 0 6 -7 3 -15z m135 -39 c-15 -62 -41 -78 -135 -84 -75 -5 -105 -20 -130 -64
-8 -15 -13 -15 -54 -2 l-45 15 -2 79 c-3 88 1 94 57 65 26 -14 30 -13 39 3 9
15 10 15 16 1 8 -21 131 -21 144 0 6 9 11 10 15 2 12 -18 36 -12 36 9 0 11 5
20 10 20 6 0 10 -4 10 -10 0 -16 30 -12 37 5 12 32 13 6 2 -39z m-581 -29 l2
-53 -86 1 c-95 0 -124 -7 -124 -30 0 -27 32 -65 66 -80 42 -17 46 -51 8 -65
-42 -16 -62 -12 -76 18 -12 24 -19 27 -53 24 -59 -5 -78 -19 -72 -52 5 -23 2
-29 -15 -33 -28 -8 -36 -2 -53 39 -11 26 -20 34 -39 34 -31 0 -78 -18 -88 -33
-6 -9 -10 -8 -18 3 -11 17 -3 27 25 32 14 2 20 11 20 28 0 15 6 25 15 26 30 2
71 24 65 35 -4 6 -25 9 -48 7 -24 -1 -42 2 -44 9 -3 8 16 12 64 12 89 0 282
58 366 109 17 11 43 21 57 21 23 1 25 -3 28 -52z m-1793 33 c8 -13 -5 -13 -25
0 -13 8 -13 10 2 10 9 0 20 -4 23 -10z m160 -10 c83 -24 101 -26 154 -18 29 5
56 6 59 3 3 -3 -4 -15 -16 -28 -12 -13 -22 -27 -22 -33 0 -5 -12 -14 -26 -21
-23 -11 -29 -10 -43 8 -25 30 -107 31 -131 1 -10 -12 -20 -26 -22 -31 -2 -4
-19 -10 -38 -13 l-35 -6 0 78 -1 79 41 -4 c22 -2 58 -9 80 -15z m296 -20 c10
-6 19 -19 19 -30 0 -18 39 -49 41 -33 1 4 4 -3 8 -17 6 -19 1 -33 -18 -58 -20
-27 -22 -35 -11 -42 8 -5 21 -5 29 -1 18 9 41 4 41 -9 0 -5 -17 -7 -37 -5 -21
2 -114 4 -208 5 -183 0 -275 7 -275 21 0 4 24 9 52 11 44 2 53 7 56 23 6 31
23 48 36 35 5 -5 21 -10 34 -10 17 0 26 -8 34 -31 13 -38 51 -38 56 1 5 37 20
47 36 25 12 -16 16 -17 30 -6 14 11 14 17 1 47 -13 32 -12 38 8 35 4 -1 12 10
17 24 10 27 21 30 51 15z m789 -15 c0 -8 -6 -15 -14 -15 -17 0 -28 14 -19 24
12 12 33 6 33 -9z m-1240 -5 c0 -5 -9 -10 -20 -10 -11 0 -20 5 -20 10 0 6 9
10 20 10 11 0 20 -4 20 -10z m905 0 c3 -5 1 -10 -4 -10 -6 0 -11 5 -11 10 0 6
2 10 4 10 3 0 8 -4 11 -10z m-905 -59 c0 -18 -17 -20 -36 -6 -18 14 -18 14 9
15 15 0 27 -4 27 -9z m1187 -23 c-3 -7 -5 -2 -5 12 0 14 2 19 5 13 2 -7 2 -19
0 -25z m63 18 c0 -8 -4 -18 -10 -21 -5 -3 -10 3 -10 14 0 12 5 21 10 21 6 0
10 -6 10 -14z m-175 -33 c21 -1 42 -6 47 -11 14 -14 23 -86 10 -78 -6 3 -40 7
-76 8 -78 2 -96 9 -77 32 7 8 11 21 9 27 -2 7 5 22 16 33 17 17 22 18 27 6 3
-8 22 -15 44 -17z m663 19 c16 -16 21 -17 28 -5 11 16 101 29 138 19 14 -3 26
-13 26 -21 0 -19 46 -49 98 -64 35 -10 42 -16 37 -29 -4 -9 -12 -30 -17 -47
-14 -40 -27 -55 -47 -55 -9 0 -45 -25 -79 -54 -64 -54 -105 -76 -95 -51 4 11
-8 10 -59 -2 -66 -17 -147 -23 -154 -12 -2 4 8 10 24 13 45 11 82 28 77 36 -2
4 -51 -3 -107 -16 -57 -13 -130 -26 -163 -29 -66 -6 -62 -4 80 40 50 15 104
34 122 41 17 8 45 14 62 14 17 0 31 5 31 11 0 7 -20 9 -62 5 -154 -14 -273
-17 -256 -6 17 10 77 23 168 35 82 11 234 93 228 122 -2 13 -17 17 -68 20 -87
3 -105 7 -125 23 -22 18 -3 30 53 30 28 0 48 -6 60 -18z m-1058 -18 c11 -12
10 -18 -3 -32 -11 -10 -17 -12 -17 -4 0 7 -4 12 -10 12 -17 0 -11 -14 11 -28
12 -8 18 -9 14 -3 -3 6 -1 11 4 11 6 0 11 -9 11 -19 0 -15 -7 -19 -35 -18 -19
1 -35 5 -35 9 0 4 4 8 10 8 6 0 6 10 -1 27 -5 14 -8 32 -5 40 7 18 41 16 56
-3z m-680 -34 c0 -5 -9 -9 -20 -7 -31 5 -36 17 -7 17 15 0 27 -4 27 -10z
m1250 0 c0 -5 -5 -10 -11 -10 -5 0 -7 5 -4 10 3 6 8 10 11 10 2 0 4 -4 4 -10z
m-330 -10 c0 -5 -2 -10 -4 -10 -3 0 -8 5 -11 10 -3 6 -1 10 4 10 6 0 11 -4 11
-10z m-53 -32 c-3 -8 -6 -5 -6 6 -1 11 2 17 5 13 3 -3 4 -12 1 -19z m883 18
c0 -3 -4 -8 -10 -11 -5 -3 -10 -1 -10 4 0 6 5 11 10 11 6 0 10 -2 10 -4z
m-1750 -36 c0 -5 -7 -10 -15 -10 -8 0 -15 5 -15 10 0 6 7 10 15 10 8 0 15 -4
15 -10z m1210 1 c0 -6 -4 -13 -10 -16 -5 -3 -10 1 -10 9 0 9 5 16 10 16 6 0
10 -4 10 -9z m-55 -43 c14 -14 -1093 -4 -1107 10 -7 7 166 9 543 6 367 -4 557
-9 564 -16z m389 13 c3 -5 -1 -12 -10 -15 -25 -10 -34 -7 -34 9 0 16 35 21 44
6z m-192 -33 c11 -17 12 -27 4 -40 -17 -28 4 -39 73 -40 69 -1 63 -14 -11 -24
-62 -8 -87 -26 -69 -47 24 -29 96 -42 156 -27 24 6 56 -1 50 -11 -4 -5 1 -26
10 -45 18 -38 29 -41 119 -23 43 9 60 9 69 0 16 -16 -6 -36 -30 -26 -20 9
-112 9 -121 0 -15 -15 25 -30 84 -31 35 0 70 -6 76 -12 19 -19 1 -25 -49 -16
-58 12 -108 4 -108 -15 0 -11 18 -15 73 -17 79 -3 92 -7 92 -30 0 -12 -7 -14
-32 -9 -38 9 -135 8 -150 -1 -24 -15 18 -29 86 -29 41 0 78 -4 82 -8 14 -13
-18 -27 -38 -16 -16 9 -85 6 -95 -5 -12 -12 12 -27 41 -25 60 4 86 -1 86 -15
0 -21 -20 -30 -33 -17 -18 18 -47 13 -47 -9 0 -16 6 -19 35 -18 42 2 58 -11
53 -43 -4 -30 -24 -35 -31 -7 -4 12 -9 19 -13 15 -4 -4 -13 -2 -20 4 -17 14
-47 4 -42 -13 3 -7 15 -15 29 -19 24 -7 24 -7 -3 -8 -33 -1 -43 -15 -23 -31
11 -9 22 -9 50 0 28 9 39 9 51 -1 19 -16 13 -21 -35 -24 -43 -4 -61 -11 -61
-26 0 -12 37 -12 45 1 3 6 14 10 23 10 13 0 13 -2 -4 -14 -21 -16 -13 -31 21
-39 13 -3 9 -5 -12 -6 -17 0 -35 -5 -38 -11 -4 -6 -13 -5 -24 2 -22 13 -54 3
-49 -15 3 -6 20 -13 39 -15 19 -2 39 -8 45 -13 6 -5 18 -7 27 -3 10 3 20 -3
27 -16 11 -21 10 -22 -22 -15 -18 4 -37 14 -41 21 -4 8 -23 14 -42 14 -33 0
-35 -2 -31 -32 4 -35 33 -53 76 -45 33 7 80 -18 82 -43 0 -11 1 -25 2 -31 2
-23 -85 -47 -144 -40 -78 10 -322 5 -405 -8 -38 -7 -121 -14 -183 -18 -125 -6
-153 3 -107 33 35 23 46 25 118 24 53 0 60 3 93 35 33 33 51 40 102 35 15 -1
27 8 39 28 9 16 29 34 45 40 21 7 28 17 28 36 0 27 24 46 55 43 25 -2 23 30
-6 90 -11 24 -25 75 -30 115 -18 138 -41 263 -61 323 -25 81 -30 122 -14 128
19 8 25 51 10 78 -21 41 3 55 28 17z m-1342 -27 c0 -21 3 -60 6 -87 l5 -49
-19 40 c-13 26 -16 46 -11 57 7 12 2 22 -19 37 -23 17 -25 22 -12 31 33 22 50
12 50 -29z m1269 -13 c1 -23 -32 -24 -54 -1 -16 16 -16 17 3 24 11 4 23 13 28
20 8 14 22 -12 23 -43z m751 -32 c0 -7 -6 -19 -14 -25 -11 -9 -15 -7 -19 8 -4
18 4 28 26 30 4 1 7 -5 7 -13z m-223 -82 c-3 -3 -12 -4 -19 -1 -8 3 -5 6 6 6
11 1 17 -2 13 -5z m-61 -38 c10 -8 17 -17 14 -19 -3 -3 -43 -8 -90 -11 -71 -4
-79 -3 -47 6 21 6 41 17 44 24 7 18 54 18 79 0z m-1786 -653 c0 -14 -19 -38
-25 -32 -8 8 5 39 16 39 5 0 9 -3 9 -7z m26 -55 c-6 -32 -28 -56 -34 -38 -5
14 21 70 32 70 5 0 6 -14 2 -32z m-87 -24 c-6 -8 -15 -14 -20 -14 -14 0 -11
28 4 33 20 7 29 -4 16 -19z m-69 -33 c0 -5 -9 -11 -20 -14 -13 -3 -20 0 -20 9
0 8 9 14 20 14 11 0 20 -4 20 -9z m90 -13 c0 -7 6 -25 13 -39 8 -14 17 -44 21
-67 6 -40 5 -42 -19 -42 -14 0 -25 3 -26 8 -3 25 -8 52 -17 89 -6 29 -6 45 1
52 15 15 27 14 27 -1z m89 -35 c6 -21 11 -45 11 -55 0 -12 6 -15 23 -10 20 5
21 4 8 -11 -26 -32 -44 -20 -55 40 -2 10 -7 30 -11 46 -11 42 12 33 24 -10z
m-274 17 c-3 -5 -11 -10 -16 -10 -6 0 -7 5 -4 10 3 6 11 10 16 10 6 0 7 -4 4
-10z m122 -65 c17 -77 16 -87 -9 -83 -18 2 -25 13 -33 53 -5 28 -13 55 -17 61
-10 15 2 25 27 22 15 -2 23 -15 32 -53z m230 13 c-3 -7 -5 -2 -5 12 0 14 2 19
5 13 2 -7 2 -19 0 -25z m-654 -233 c8 -19 5 -20 -81 -43 -57 -15 -72 -17 -72
-6 0 14 25 31 75 50 43 17 72 16 78 -1z m-443 -15 c0 -5 -7 -10 -16 -10 -8 0
-12 5 -9 10 3 6 10 10 16 10 5 0 9 -4 9 -10z m70 0 c0 -5 -7 -7 -15 -4 -8 4
-15 8 -15 10 0 2 7 4 15 4 8 0 15 -4 15 -10z m3655 -10 c3 -5 2 -10 -4 -10 -5
0 -13 5 -16 10 -3 6 -2 10 4 10 5 0 13 -4 16 -10z m-3716 -33 c64 0 71 -2 71
-19 0 -15 -4 -18 -17 -13 -10 3 -47 8 -81 11 -75 5 -88 10 -71 30 9 12 14 12
20 3 5 -8 33 -12 78 -12z m145 -12 c3 -9 0 -15 -9 -15 -8 0 -15 7 -15 15 0 8
4 15 9 15 5 0 11 -7 15 -15z m3599 -180 c-3 -9 -8 -14 -10 -11 -3 3 -2 9 2 15
9 16 15 13 8 -4z M2607 6196 c-7 -18 24 -31 35 -14 12 20 9 28 -11 28 -10 0
-21 -6 -24 -14z M2264 6229 l-21 -21 24 -24 c13 -13 27 -24 30 -24 3 0 12 -8
19 -17 13 -18 24 -15 28 9 1 7 8 24 15 37 12 22 12 23 -5 16 -40 -16 -51 -16
-63 -1 -11 13 -9 17 13 26 32 12 33 20 3 20 -12 0 -32 -9 -43 -21z M3870 5393
c-19 -14 -34 -28 -33 -33 1 -4 -24 -10 -56 -13 -45 -4 -71 -13 -115 -42 -31
-21 -56 -41 -56 -46 0 -21 21 -15 76 22 58 39 60 40 141 37 79 -3 81 -4 65
-22 -9 -10 -41 -30 -70 -44 -93 -44 -213 -169 -198 -207 8 -23 24 -18 40 14
27 52 114 127 194 166 42 21 78 39 79 39 0 1 4 18 8 39 6 31 5 37 -10 37 -15
0 -17 6 -11 40 7 48 -3 50 -54 13z M3548 5180 c-21 -23 -41 -60 -32 -60 17 0
64 44 64 61 0 23 -10 23 -32 -1z M3582 4903 c-40 -96 -46 -131 -77 -458 -14
-143 -28 -290 -33 -326 -18 -157 33 -330 113 -385 51 -35 66 -19 36 38 -20 40
-21 53 -17 183 3 77 7 160 10 185 11 92 15 289 6 295 -27 16 -37 -70 -56 -455
-3 -58 -9 -109 -14 -114 -26 -26 -33 247 -11 464 6 69 16 175 20 235 9 119 40
275 67 330 9 19 13 39 9 44 -14 23 -33 9 -53 -36z M3495 4798 c-3 -13 -17 -68
-31 -123 -19 -71 -28 -137 -31 -227 -6 -138 -2 -168 21 -149 10 8 14 41 14
118 1 100 12 172 49 313 20 77 20 84 1 88 -11 2 -19 -5 -23 -20z M3102 4798
c-13 -16 -35 -164 -27 -178 3 -5 12 -10 19 -10 9 0 15 22 20 68 4 37 9 82 12
100 6 33 -5 42 -24 20z M3834 4359 c-7 -12 12 -29 34 -29 6 0 12 9 12 20 0 22
-34 28 -46 9z M3444 3359 c-10 -17 13 -36 27 -22 12 12 4 33 -11 33 -5 0 -12
-5 -16 -11z M3473 3273 c-14 -5 -18 -43 -5 -43 12 0 32 23 32 37 0 13 -6 15
-27 6z M3492 3208 c-18 -18 -15 -40 6 -36 9 2 18 13 20 26 4 24 -7 29 -26 10z
M3498 3129 c-21 -12 -24 -39 -5 -39 7 0 18 5 25 12 13 13 16 38 5 38 -5 0 -16
-5 -25 -11z M3480 3055 c-7 -9 -10 -18 -7 -21 9 -9 45 6 51 21 7 20 -28 20
-44 0z M3509 3001 c-13 -11 -20 -23 -16 -27 10 -10 60 17 59 31 -1 17 -19 16
-43 -4z M3508 2949 c-21 -12 -24 -39 -5 -39 17 0 57 29 57 41 0 12 -30 11 -52
-2z M3533 2893 c-30 -6 -50 -31 -31 -38 21 -8 68 12 68 30 0 8 -3 14 -7 14 -5
-1 -18 -4 -30 -6z M3531 2827 c-14 -7 -26 -18 -29 -24 -6 -19 43 -16 58 2 19
23 0 37 -29 22z M3521 2766 c-36 -13 -49 -30 -33 -40 12 -7 112 33 112 45 0
12 -38 10 -79 -5z M3546 2697 c-42 -13 -57 -33 -33 -43 19 -7 107 31 107 45 0
14 -24 13 -74 -2z M3555 2606 c-44 -25 -59 -56 -28 -56 11 0 24 5 30 11 6 6
22 17 35 23 23 12 31 37 13 42 -5 2 -28 -7 -50 -20z M3573 2537 c-70 -26 -70
-59 -1 -37 50 16 70 29 62 41 -7 11 -21 10 -61 -4z M2742 5648 c-7 -7 -12 -44
-12 -95 0 -66 3 -83 14 -83 22 0 25 10 27 86 2 110 -1 120 -29 92z M2577 5633
c-10 -16 -26 -89 -31 -138 -5 -50 -12 -89 -21 -132 -3 -13 -2 -41 1 -63 5 -30
11 -40 23 -38 12 3 16 17 18 58 1 30 4 71 7 90 3 19 7 57 10 83 3 26 11 57 16
68 14 24 9 71 -7 76 -6 2 -13 0 -16 -4z M2454 5553 c-1 -10 -5 -43 -9 -73 -12
-87 -11 -153 1 -157 17 -6 26 23 35 112 4 44 11 92 15 108 6 24 3 27 -18 27
-16 0 -24 -6 -24 -17z M2600 5480 c0 -5 5 -10 10 -10 6 0 10 5 10 10 0 6 -4
10 -10 10 -5 0 -10 -4 -10 -10z M2727 5378 c-3 -24 -6 -86 -7 -138 0 -101 -3
-131 -25 -275 -8 -49 -17 -137 -20 -195 -4 -58 -11 -134 -16 -170 -15 -112
-12 -158 12 -171 17 -9 19 -13 8 -20 -8 -5 -9 -9 -3 -9 6 0 11 -6 12 -12 7
-98 13 -133 22 -136 5 -2 10 -8 10 -13 0 -6 -4 -7 -10 -4 -5 3 -10 2 -10 -4 0
-5 5 -13 11 -16 6 -4 8 -13 5 -21 -3 -8 0 -14 5 -14 6 0 9 9 6 20 -4 15 0 20
13 20 15 0 20 11 25 65 5 46 4 70 -5 80 -7 8 -9 23 -5 32 4 10 9 88 11 173 3
85 9 182 14 215 13 88 19 139 25 240 4 50 10 104 14 120 4 17 9 53 10 80 1 28
3 59 4 69 3 28 -21 31 -27 4 -3 -13 -7 -51 -10 -86 -3 -34 -8 -67 -11 -72 -3
-5 -10 -74 -15 -152 -9 -140 -13 -172 -29 -233 -4 -16 -9 -79 -10 -140 -2 -70
-7 -113 -14 -117 -9 -6 -9 -8 0 -8 8 0 12 -16 12 -42 -1 -24 0 -47 1 -53 1 -5
2 -38 1 -73 -1 -75 -17 -76 -18 -1 -1 29 -7 55 -13 59 -7 5 -8 10 -3 13 10 6
9 24 -3 105 -3 23 -3 50 1 60 8 20 12 83 19 272 2 74 12 169 20 210 20 91 27
371 10 377 -7 2 -14 -14 -17 -39z M2626 5338 c-3 -29 -6 -83 -6 -119 0 -37 -4
-88 -9 -116 -5 -27 -12 -87 -16 -133 -3 -47 -10 -113 -16 -147 -9 -50 -14 -61
-27 -57 -15 5 -14 4 1 -6 16 -10 26 -36 10 -27 -5 3 -9 -16 -10 -41 -4 -82 -8
-107 -17 -113 -5 -4 1 -10 13 -14 30 -9 33 -4 37 52 2 26 8 71 14 98 5 28 14
100 20 160 6 61 13 124 15 140 3 17 10 86 15 155 6 69 13 146 16 173 6 42 5
47 -13 47 -17 0 -21 -9 -27 -52z M2455 5201 c-3 -6 -8 -35 -10 -63 -3 -29 -10
-105 -16 -168 -18 -181 -17 -234 4 -238 14 -3 17 4 17 40 0 25 4 69 9 99 8 45
17 155 25 303 1 29 -17 46 -29 27z M2526 5158 c-3 -29 -7 -107 -8 -173 -3
-117 -2 -120 19 -121 14 -1 20 3 16 12 -3 8 0 14 7 14 9 0 9 4 2 13 -5 6 -8
28 -6 47 2 19 5 86 7 148 2 100 1 112 -15 112 -13 0 -18 -12 -22 -52z M2730
4930 c0 -5 5 -10 11 -10 5 0 7 5 4 10 -3 6 -8 10 -11 10 -2 0 -4 -4 -4 -10z
M2497 4560 c3 -11 9 -17 14 -14 14 8 10 34 -5 34 -9 0 -12 -7 -9 -20z M2497
4523 c-4 -3 -7 -11 -7 -17 0 -6 5 -5 12 2 6 6 9 14 7 17 -3 3 -9 2 -12 -2z
M2720 4151 c0 -6 4 -13 10 -16 6 -3 7 1 4 9 -7 18 -14 21 -14 7z M4230 5262
c0 -5 3 -12 8 -16 4 -4 8 -12 8 -17 1 -5 2 -13 3 -18 2 -16 29 -20 66 -10 44
13 46 43 2 45 -15 1 -33 6 -40 13 -13 13 -47 15 -47 3z M4411 4986 c-14 -17
-7 -36 14 -36 22 0 29 20 13 36 -13 13 -16 13 -27 0z M4235 5090 c3 -5 10 -10
16 -10 5 0 9 5 9 10 0 6 -7 10 -16 10 -8 0 -12 -4 -9 -10z M4063 4625 c0 -8 4
-15 9 -15 4 0 8 7 8 15 0 8 -4 15 -8 15 -5 0 -9 -7 -9 -15z M3827 4654 c6 -16
19 -18 27 -5 3 5 -3 11 -13 14 -14 3 -18 1 -14 -9z M1986 4643 c-4 -9 -2 -21
4 -27 8 -8 9 -6 4 8 -6 16 -4 18 11 13 15 -6 16 -5 5 8 -16 19 -16 19 -24 -2z
M1860 4480 c0 -5 5 -10 10 -10 6 0 10 5 10 10 0 6 -4 10 -10 10 -5 0 -10 -4
-10 -10z M1815 4429 c-11 -17 1 -21 15 -4 8 9 8 15 2 15 -6 0 -14 -5 -17 -11z
M2021 4222 c-8 -16 -7 -21 6 -26 26 -10 40 11 21 30 -15 15 -17 15 -27 -4z
M1944 4208 c-9 -15 27 -41 40 -28 6 6 5 15 -4 25 -15 18 -26 19 -36 3z M1911
4166 c-10 -12 -8 -17 9 -26 11 -6 18 -15 16 -19 -3 -4 1 -17 9 -27 11 -15 16
-17 27 -6 10 10 10 16 0 30 -7 9 -16 27 -22 40 -11 25 -23 28 -39 8z M4140
4036 c0 -8 -8 -13 -17 -12 -13 1 -18 -6 -16 -24 1 -14 2 -55 4 -92 2 -73 22
-101 34 -47 4 16 11 29 16 29 10 0 13 119 3 144 -8 20 -24 21 -24 2z m7 -63
c-3 -10 -5 -4 -5 12 0 17 2 24 5 18 2 -7 2 -21 0 -30z M794 3727 c-10 -6 -25
-13 -33 -17 -22 -10 -25 -29 -5 -37 12 -4 23 2 36 20 15 21 25 26 44 21 13 -3
24 -2 24 4 0 14 -43 20 -66 9z M798 3669 l-33 -30 30 6 c17 3 40 7 52 8 30 3
38 14 23 32 -18 22 -36 19 -72 -16z M826 3638 c-22 -12 -20 -25 4 -33 20 -6
50 9 50 25 0 13 -36 18 -54 8z M575 3480 c-4 -7 -1 -16 6 -21 17 -10 26 8 11
23 -6 6 -12 6 -17 -2z M995 3419 c-8 -12 14 -31 30 -26 6 2 10 10 10 18 0 17
-31 24 -40 8z M2582 3515 c0 -16 2 -22 5 -12 2 9 2 23 0 30 -3 6 -5 -1 -5 -18z
M2570 3375 c0 -8 4 -15 10 -15 5 0 7 7 4 15 -4 8 -8 15 -10 15 -2 0 -4 -7 -4
-15z M2551 3284 c0 -11 3 -14 6 -6 3 7 2 16 -1 19 -3 4 -6 -2 -5 -13z M2576
3263 c-6 -14 -5 -15 5 -6 7 7 10 15 7 18 -3 3 -9 -2 -12 -12z M2725 2619 c-11
-17 1 -21 15 -4 8 9 8 15 2 15 -6 0 -14 -5 -17 -11z M3046 2792 c-9 -14 21
-35 40 -28 8 3 14 12 12 19 -6 15 -44 22 -52 9z M3020 2715 c-16 -20 3 -27 61
-23 32 2 45 8 47 21 3 14 -4 17 -46 17 -32 0 -54 -5 -62 -15z M3085 2643 c-58
-7 -75 -14 -75 -29 0 -23 22 -26 81 -11 34 8 54 19 54 27 0 16 -14 19 -60 13z
M3062 2540 c-40 -9 -46 -15 -39 -34 5 -13 13 -13 64 -1 32 8 61 14 64 15 4 0
9 7 13 15 4 12 -3 15 -32 14 -20 -1 -52 -5 -70 -9z M3067 2453 c-44 -12 -57
-19 -55 -32 3 -16 34 -23 53 -12 6 3 26 11 45 16 19 6 35 17 35 24 0 20 -13
21 -78 4z M3068 2371 c-60 -6 -74 -13 -63 -30 8 -14 95 -14 129 -1 29 11 36
41 9 39 -10 -1 -44 -5 -75 -8z M2692 2261 c-31 -8 -29 -26 3 -25 110 2 126 5
123 17 -5 13 -86 18 -126 8z M2074 2033 c-1 -13 -1 -23 0 -21 1 2 7 10 14 19
10 13 10 18 0 22 -8 3 -14 -5 -14 -20z M3105 2088 c-9 -22 4 -43 17 -30 7 7 7
16 0 29 -10 17 -11 17 -17 1z M3254 2067 c-11 -29 0 -92 16 -92 11 0 15 12 15
43 1 45 -20 77 -31 49z M3311 2066 c-16 -20 -10 -61 9 -61 18 0 25 37 12 60
-8 14 -10 15 -21 1z M1660 2026 c0 -2 7 -7 16 -10 8 -3 12 -2 9 4 -6 10 -25
14 -25 6z M395 5778 c-138 -36 -256 -117 -321 -219 -21 -33 -24 -50 -23 -121
1 -71 2 -78 10 -46 13 54 61 146 103 194 92 107 258 172 409 161 144 -11 242
-55 334 -149 213 -218 148 -568 -131 -702 -98 -47 -148 -59 -242 -58 -223 2
-412 144 -468 352 l-15 55 0 -91 c-1 -86 1 -93 29 -130 123 -163 270 -238 465
-237 129 0 233 32 332 102 86 62 113 90 157 171 43 80 58 143 58 237 -2 165
-89 313 -243 413 -67 43 -126 64 -222 80 -88 14 -147 11 -232 -12z M515 5638
c-4 -18 -22 -62 -40 -98 -18 -36 -35 -77 -38 -91 -7 -26 -7 -26 -130 -31 -68
-3 -129 -8 -135 -12 -15 -9 2 -46 21 -46 7 0 36 -16 65 -35 30 -18 60 -31 66
-29 7 3 18 -1 24 -9 14 -17 3 -53 -51 -165 -20 -41 -33 -80 -31 -87 8 -20 54
-3 143 52 142 89 133 87 188 57 26 -14 85 -50 131 -81 108 -74 117 -66 69 59
-19 51 -41 108 -48 127 -10 24 -11 35 -3 38 33 11 169 111 172 125 3 16 -10
18 -129 20 l-133 3 -12 40 c-6 22 -23 63 -37 90 -14 28 -31 62 -36 78 -15 39
-47 36 -56 -5z m75 -124 c17 -42 30 -77 28 -79 -2 -1 -36 -5 -76 -8 l-74 -6 7
27 c11 48 64 154 74 148 5 -3 23 -40 41 -82z m47 -122 c6 -4 21 -28 32 -54 23
-53 22 -55 -60 -102 l-47 -27 -58 26 c-85 38 -104 48 -103 54 0 3 10 26 22 51
l22 45 70 6 c39 3 79 6 90 7 11 1 25 -2 32 -6z m211 -2 c-2 -6 -31 -27 -65
-46 l-62 -35 -16 37 c-8 20 -12 40 -9 45 8 13 157 12 152 -1z m-457 -27 c-7
-39 -22 -54 -44 -47 -26 8 -87 52 -87 63 0 4 30 6 68 4 58 -2 67 -4 63 -20z
m318 -121 c15 -28 54 -143 49 -147 -1 -2 -21 10 -43 26 -22 15 -57 36 -78 45
-21 9 -37 20 -35 25 4 9 80 67 90 68 4 1 12 -7 17 -17z m-252 -24 c29 -13 53
-26 53 -30 0 -6 -142 -92 -172 -103 -15 -6 -12 4 12 59 17 36 30 72 30 81 0
21 16 19 77 -7z M4355 3749 c-11 -17 -1 -21 73 -28 6 0 22 -12 34 -26 11 -13
24 -22 28 -20 4 2 17 -5 28 -15 31 -29 72 -43 152 -52 33 -3 70 3 70 11 0 6
-22 10 -49 9 -69 0 -88 8 -152 62 -68 59 -165 90 -184 59z M4119 3710 c-15
-10 -3 -30 17 -30 8 0 12 -5 9 -10 -4 -6 -14 -9 -23 -8 -10 2 -17 -4 -17 -12
0 -11 12 -15 48 -15 49 -1 70 11 47 25 -7 5 -19 6 -27 3 -7 -3 -13 0 -13 6 0
6 15 11 34 11 30 0 56 14 45 24 -9 8 -109 12 -120 6z M1181 3654 c-39 -32 -39
-49 -1 -69 29 -15 32 -15 60 5 38 27 40 62 5 78 -33 15 -28 16 -64 -14z m49
-19 c0 -16 -27 -32 -37 -22 -3 4 -3 13 0 22 8 20 37 20 37 0z M4144 3595 c-16
-13 -17 -16 -4 -25 20 -13 25 -13 39 4 18 22 -10 40 -35 21z M4577 3594 c-3
-3 4 -21 14 -42 11 -20 19 -45 19 -55 0 -12 6 -17 18 -15 18 4 18 6 6 52 -6
26 -5 27 14 17 26 -14 52 -14 52 -1 0 6 -8 10 -18 10 -10 0 -26 6 -37 13 -22
16 -62 27 -68 21z M4244 3561 c-64 -16 -69 -45 -7 -39 29 2 37 -1 44 -20 7
-19 4 -26 -24 -42 -34 -21 -49 -11 -22 16 10 10 13 20 7 26 -11 11 -62 -7 -62
-23 0 -7 -8 -21 -17 -32 -10 -11 -13 -17 -7 -14 7 4 17 0 24 -8 10 -12 6 -15
-29 -21 -47 -8 -73 -30 -50 -44 8 -6 18 -5 23 0 6 6 22 10 36 10 33 0 151 81
162 111 6 15 2 31 -13 55 -11 19 -24 34 -27 33 -4 -1 -21 -4 -38 -8z M1202
3543 c-33 -6 -46 -37 -30 -71 16 -33 46 -39 87 -17 35 18 40 44 14 75 -17 20
-26 21 -71 13z m46 -50 c2 -8 -6 -13 -22 -13 -17 0 -26 5 -26 16 0 19 41 16
48 -3z M4355 3530 c-8 -13 12 -50 28 -50 26 -1 67 -86 67 -138 0 -14 -6 -33
-14 -41 -20 -24 -29 -81 -12 -81 7 0 16 14 20 32 3 17 14 37 24 44 24 16 20
82 -8 139 -22 44 -95 111 -105 95z M4335 3433 c3 -24 1 -33 -4 -24 -15 23 -42
5 -39 -26 1 -16 -8 -47 -20 -70 -26 -49 -26 -53 -9 -53 17 0 67 75 68 103 0
12 3 16 6 10 8 -20 29 -15 40 10 15 33 -9 86 -39 87 -5 0 -6 -17 -3 -37z
M4626 3358 c-3 -35 -9 -87 -12 -117 -6 -50 1 -70 26 -71 3 0 6 39 7 88 2 48 5
104 9 125 4 28 2 37 -9 37 -10 0 -16 -17 -21 -62z M4562 3320 c-13 -21 -15
-98 -3 -139 7 -25 36 -50 46 -40 3 3 -1 19 -9 35 -9 18 -14 55 -13 97 1 37 0
67 -3 67 -3 0 -11 -9 -18 -20z M355 3223 c-38 -20 -86 -64 -80 -73 3 -4 -11
-20 -30 -34 -21 -16 -35 -36 -35 -48 0 -21 0 -21 26 3 l26 24 -19 -33 c-10
-17 -23 -30 -30 -28 -21 8 -89 -78 -108 -135 -10 -30 -26 -73 -37 -97 -12 -27
-18 -59 -16 -85 l3 -42 14 45 c7 25 19 59 26 75 7 17 23 57 34 90 25 69 60
122 61 92 0 -10 6 -17 12 -15 16 6 71 97 73 122 1 11 16 26 35 35 39 19 49 37
23 44 -13 3 -6 10 27 25 25 12 53 22 63 22 9 0 17 7 17 15 0 20 -46 19 -85 -2z
M4785 3205 c-3 -8 -7 -22 -10 -30 -6 -21 15 -30 32 -12 9 9 13 23 8 36 -7 24
-24 28 -30 6z M400 3180 c-26 -16 -6 -19 84 -13 52 4 82 9 74 14 -18 12 -139
11 -158 -1z M411 3121 c-7 -5 -9 -11 -4 -14 14 -9 113 4 113 14 0 12 -91 11
-109 0z M4251 3101 c-6 -11 -12 -35 -13 -54 -2 -21 -7 -33 -15 -30 -7 3 -9 17
-6 38 4 27 1 35 -17 45 -15 8 -20 8 -16 1 4 -6 2 -11 -4 -11 -6 0 -9 -4 -6 -9
3 -5 -2 -24 -11 -42 -15 -29 -18 -31 -21 -14 -5 24 -20 35 -39 28 -9 -4 -13
-15 -10 -30 3 -16 -2 -27 -14 -34 -15 -7 -19 -6 -19 6 0 21 -30 31 -41 14 -16
-25 -9 -49 16 -59 14 -5 25 -15 25 -21 0 -6 14 1 30 15 32 27 89 42 116 32 10
-4 25 1 37 11 19 18 20 17 7 -6 -6 -13 -7 -21 -2 -17 6 3 19 -5 30 -19 18 -22
25 -25 61 -19 23 4 44 11 47 16 4 6 9 5 14 -2 6 -9 14 -6 31 11 l23 23 -43 18
c-23 10 -40 22 -37 27 3 5 -4 7 -15 4 -12 -4 -24 -14 -26 -25 -6 -20 -18 -24
-28 -7 -4 6 -13 8 -20 5 -10 -4 -11 2 -4 26 12 43 19 47 19 10 0 -18 4 -32 8
-32 29 0 66 100 43 114 -6 4 -22 -5 -35 -19 l-24 -26 -4 22 c-4 30 -24 35 -37
10z M326 3075 c-15 -11 -16 -15 -5 -15 8 0 24 7 35 15 14 11 15 14 4 14 -8 0
-24 -6 -34 -14z M485 3070 c-8 -13 15 -24 27 -12 6 6 4 11 -6 15 -8 3 -18 2
-21 -3z M4425 3060 c-10 -11 -21 -18 -25 -15 -4 2 -5 -7 -2 -21 7 -36 43 -29
54 11 10 38 -3 51 -27 25z M1210 3048 c-27 -25 -23 -55 13 -81 l27 -21 28 21
c46 34 40 76 -15 92 -25 7 -35 5 -53 -11z m60 -38 c0 -13 -7 -20 -18 -20 -24
0 -32 8 -25 26 8 22 43 17 43 -6z M4525 3040 c3 -5 8 -10 11 -10 2 0 4 5 4 10
0 6 -5 10 -11 10 -5 0 -7 -4 -4 -10z M4470 3015 c-11 -20 -11 -28 -1 -38 10
-9 16 -7 32 12 11 13 18 29 16 35 -7 21 -33 16 -47 -9z M4777 3013 c-4 -3 -7
-15 -7 -25 0 -22 26 -24 34 -2 10 25 -10 45 -27 27z M260 2965 c-18 -19 -20
-25 -8 -25 15 0 48 30 48 43 0 14 -17 6 -40 -18z M3946 2968 c-3 -7 -6 -20 -9
-28 -2 -8 0 -23 5 -33 12 -24 1 -57 -21 -57 -9 0 -22 -5 -28 -11 -7 -7 -12 -3
-17 16 -6 22 -9 25 -21 15 -8 -7 -15 -23 -15 -36 0 -21 5 -26 26 -23 4 0 12
-10 18 -22 12 -23 59 -48 50 -26 -2 7 6 23 18 37 31 33 50 79 41 93 -5 7 -8
28 -8 47 0 25 -5 36 -18 38 -9 2 -19 -2 -21 -10z M3882 2965 c4 -5 3 -14 -3
-21 -14 -17 14 -84 35 -84 29 0 13 85 -18 102 -11 6 -18 7 -14 3z M4460 2950
c8 -5 20 -10 25 -10 6 0 3 5 -5 10 -8 5 -19 10 -25 10 -5 0 -3 -5 5 -10z
M4085 2920 c-3 -6 1 -7 9 -4 18 7 21 14 7 14 -6 0 -13 -4 -16 -10z M166 2895
c-9 -9 -18 -28 -21 -43 -3 -15 -14 -43 -24 -62 -15 -28 -51 -146 -51 -166 0
-2 7 -4 15 -4 8 0 15 8 15 18 0 30 43 143 86 226 18 35 5 55 -20 31z M1232
2867 c-12 -13 -22 -29 -22 -35 0 -21 39 -52 65 -52 27 0 65 32 65 55 0 21 -40
55 -65 55 -12 0 -31 -10 -43 -23z m62 -38 c-3 -5 -14 -9 -25 -9 -21 0 -26 26
-6 33 15 5 39 -12 31 -24z M4255 2859 c-4 -6 -5 -12 -2 -15 2 -3 7 2 10 11 7
17 1 20 -8 4z M4502 2848 c-7 -7 -12 -16 -12 -21 0 -5 7 -1 16 8 9 9 14 18 12
20 -2 3 -10 -1 -16 -7z M4065 2820 c-3 -5 -1 -10 4 -10 6 0 11 5 11 10 0 6 -2
10 -4 10 -3 0 -8 -4 -11 -10z M4267 2729 c7 -7 15 -10 18 -7 3 3 -2 9 -12 12
-14 6 -15 5 -6 -5z M4351 2727 c2 -2 18 -11 34 -21 l30 -17 -24 20 c-13 12
-28 21 -34 21 -6 0 -8 -1 -6 -3z M3931 2717 c2 -1 13 -9 24 -17 19 -14 19 -14
6 3 -7 9 -18 17 -24 17 -6 0 -8 -1 -6 -3z M3960 2540 c-9 -6 -10 -10 -3 -10 6
0 15 5 18 10 8 12 4 12 -15 0z M4420 2476 c0 -2 8 -10 18 -17 15 -13 16 -12 3
4 -13 16 -21 21 -21 13z M4760 2439 c0 -5 5 -7 10 -4 6 3 10 8 10 11 0 2 -4 4
-10 4 -5 0 -10 -5 -10 -11z M4814 2438 c9 -5 23 -5 32 0 12 6 7 9 -16 9 -23 0
-28 -3 -16 -9z M4540 2399 c0 -5 5 -7 10 -4 6 3 10 8 10 11 0 2 -4 4 -10 4 -5
0 -10 -5 -10 -11z M4156 2383 c-6 -14 -5 -15 5 -6 7 7 10 15 7 18 -3 3 -9 -2
-12 -12z M3845 2370 c3 -5 8 -10 11 -10 2 0 4 5 4 10 0 6 -5 10 -11 10 -5 0
-7 -4 -4 -10z M4460 2359 c0 -5 5 -7 10 -4 6 3 10 8 10 11 0 2 -4 4 -10 4 -5
0 -10 -5 -10 -11z M3917 2353 c-16 -15 -5 -30 28 -40 31 -10 35 -9 35 6 0 31
-43 55 -63 34z M4750 2316 c7 -7 13 -7 20 0 6 6 3 10 -10 10 -13 0 -16 -4 -10
-10z M3898 2299 c-25 -14 -22 -28 9 -40 22 -8 30 -6 45 10 10 12 15 19 12 16
-4 -2 -13 2 -21 10 -17 17 -22 18 -45 4z M4906 2274 c-5 -14 -4 -15 9 -4 17
14 19 20 6 20 -5 0 -12 -7 -15 -16z M4760 2276 c0 -2 8 -10 18 -17 15 -13 16
-12 3 4 -13 16 -21 21 -21 13z M4930 2260 c-8 -5 -12 -12 -9 -15 4 -3 12 1 19
10 14 17 11 19 -10 5z M3885 2220 c-8 -13 1 -27 25 -40 16 -9 18 -8 13 7 -5
13 -3 15 12 9 18 -7 18 -6 0 14 -20 22 -40 26 -50 10z M3855 2179 c-10 -15 1
-23 20 -15 9 3 13 10 10 16 -8 13 -22 13 -30 -1z M3790 2110 c-14 -26 -13 -30
9 -30 10 0 22 7 25 16 8 21 8 21 -9 28 -8 3 -19 -3 -25 -14z M3850 2070 c0 -5
4 -10 9 -10 6 0 13 5 16 10 3 6 -1 10 -9 10 -9 0 -16 -4 -16 -10z M3748 2053
c-22 -5 -23 -27 -2 -47 17 -17 25 -20 22 -8 0 4 2 15 7 25 9 22 -3 35 -27 30z
M3675 1999 c-10 -16 3 -56 20 -63 21 -8 28 14 16 47 -11 28 -25 35 -36 16z
M3607 1964 c-10 -11 -9 -92 2 -98 16 -10 32 22 29 60 -3 36 -16 52 -31 38z
M3542 1948 c-5 -7 -12 -33 -13 -58 -4 -39 -1 -45 16 -45 15 0 21 10 28 43 12
62 -4 92 -31 60z M4780 1890 c-9 -6 -10 -10 -3 -10 6 0 15 5 18 10 8 12 4 12
-15 0z M3391 1846 c-10 -12 -8 -17 7 -25 15 -8 23 -7 32 4 13 16 6 35 -14 35
-8 0 -19 -6 -25 -14z M3964 1820 c0 -13 4 -16 10 -10 7 7 7 13 0 20 -6 6 -10
3 -10 -10z M4227 1829 c7 -7 15 -10 18 -7 3 3 -2 9 -12 12 -14 6 -15 5 -6 -5z
M197 1803 c-16 -15 -6 -101 16 -141 23 -44 102 -132 118 -132 19 0 7 24 -32
67 -51 55 -69 98 -69 163 0 35 -4 50 -13 50 -8 0 -17 -3 -20 -7z M3352 1772
c-10 -7 -8 -12 5 -24 10 -8 25 -18 34 -21 14 -5 16 -1 10 21 -8 28 -27 38 -49
24z M3328 1698 c2 -10 -2 -20 -11 -24 -12 -4 -13 -12 -6 -37 11 -41 12 -40 -5
-34 -10 4 -12 0 -9 -14 4 -15 0 -19 -20 -19 -14 0 -27 -6 -30 -14 -7 -18 1
-26 24 -26 12 0 16 -5 13 -15 -7 -18 -34 -20 -34 -2 0 6 -7 -1 -15 -17 -17
-32 -12 -48 12 -39 13 5 15 2 10 -18 -4 -13 -7 -34 -7 -47 0 -13 -4 -21 -8
-18 -5 3 -8 -25 -8 -62 1 -55 4 -67 19 -70 10 -2 17 3 17 13 0 9 3 14 8 12 4
-3 7 9 8 26 1 45 32 194 44 217 6 11 12 36 14 57 1 21 6 46 10 55 10 21 0 38
-22 38 -13 0 -13 3 -4 12 10 10 15 10 21 -1 11 -17 41 -7 41 13 0 18 -18 31
-46 31 -15 1 -20 -4 -16 -17z M4259 1683 c-13 -16 -12 -17 4 -4 9 7 17 15 17
17 0 8 -8 3 -21 -13z M3465 1670 c3 -5 8 -10 11 -10 2 0 4 5 4 10 0 6 -5 10
-11 10 -5 0 -7 -4 -4 -10z M145 1649 c-12 -19 5 -23 22 -6 16 16 16 17 1 17
-9 0 -20 -5 -23 -11z M1076 1619 c-16 -13 -24 -25 -19 -30 12 -12 73 19 73 37
0 20 -23 17 -54 -7z M3275 1630 c-3 -6 1 -7 9 -4 18 7 21 14 7 14 -6 0 -13 -4
-16 -10z M168 1609 c-19 -10 -24 -29 -9 -29 5 0 19 9 32 20 26 21 9 28 -23 9z
M3260 1590 c0 -5 7 -10 16 -10 8 0 12 5 9 10 -3 6 -10 10 -16 10 -5 0 -9 -4
-9 -10z M200 1570 c-14 -10 -22 -22 -18 -25 7 -8 57 25 58 38 0 12 -14 8 -40
-13z M1113 1547 c-21 -20 -33 -39 -29 -45 4 -7 10 -12 14 -12 15 0 83 71 77
80 -10 17 -24 12 -62 -23z M3372 1562 c2 -8 15 -19 30 -23 25 -6 27 -5 18 11
-13 24 -52 34 -48 12z M242 1530 c-14 -12 -18 -21 -12 -25 12 -7 50 21 50 37
0 13 -13 9 -38 -12z M4785 1530 c3 -5 8 -10 11 -10 2 0 4 5 4 10 0 6 -5 10
-11 10 -5 0 -7 -4 -4 -10z M3340 1505 c-14 -17 -10 -19 46 -29 25 -4 33 -1 36
12 3 11 -1 18 -11 18 -9 0 -25 4 -37 7 -14 5 -26 2 -34 -8z M4760 1510 c0 -5
5 -10 11 -10 5 0 7 5 4 10 -3 6 -8 10 -11 10 -2 0 -4 -4 -4 -10z M1132 1487
c-26 -28 -28 -47 -6 -47 14 0 14 -3 4 -15 -19 -23 6 -19 41 7 26 19 31 20 40
8 9 -12 10 -12 5 3 -3 10 -6 23 -6 28 0 6 -9 8 -19 4 -16 -5 -18 -2 -14 15 7
28 -18 26 -45 -3z M4640 1500 c0 -5 5 -10 11 -10 5 0 7 5 4 10 -3 6 -8 10 -11
10 -2 0 -4 -4 -4 -10z M306 1446 c-22 -34 0 -47 25 -15 22 29 24 39 5 39 -7 0
-21 -11 -30 -24z M410 1458 c0 -7 20 -26 45 -43 46 -31 55 -49 30 -59 -17 -6
-21 -36 -5 -36 6 0 18 9 27 20 17 20 43 27 43 12 0 -5 -13 -18 -30 -30 -31
-23 -39 -42 -18 -42 6 0 26 12 45 26 l33 25 31 -22 31 -21 -31 -32 c-31 -32
-40 -56 -21 -56 6 0 23 12 37 26 25 25 27 26 40 8 17 -24 17 -24 -17 -63 -37
-42 -31 -53 12 -21 30 22 32 22 45 4 7 -10 18 -34 23 -54 12 -43 46 -100 60
-100 24 0 3 64 -68 210 -40 81 -76 125 -135 161 -28 17 -72 47 -96 65 -45 35
-81 44 -81 22z M3330 1446 c-10 -13 -10 -17 1 -20 8 -2 28 -9 46 -14 27 -9 31
-8 26 5 -3 8 0 19 7 23 9 5 5 8 -11 7 -13 0 -31 3 -40 7 -9 4 -21 1 -29 -8z
M4590 1446 c0 -2 8 -10 18 -17 15 -13 16 -12 3 4 -13 16 -21 21 -21 13z M3434
1410 c0 -13 4 -16 10 -10 7 7 7 13 0 20 -6 6 -10 3 -10 -10z M380 1410 c-8 -5
-11 -12 -8 -16 10 -9 38 3 38 16 0 12 -10 13 -30 0z M1200 1398 c-25 -13 -47
-31 -49 -42 -3 -18 -1 -18 30 3 19 12 42 25 52 28 9 3 17 12 17 19 0 18 2 18
-50 -8z M4640 1380 c-9 -6 -10 -10 -3 -10 6 0 15 5 18 10 8 12 4 12 -15 0z
M3318 1374 c-10 -9 3 -35 13 -28 6 3 21 -2 34 -10 14 -9 25 -12 25 -6 0 5 -4
10 -9 10 -5 0 -8 8 -7 18 1 11 -7 18 -24 20 -14 2 -29 0 -32 -4z M1225 1340
c-11 -4 -33 -21 -48 -38 -42 -44 -15 -50 35 -8 23 20 50 36 60 36 11 0 16 5
13 10 -7 12 -32 12 -60 0z M572 1290 c-7 -11 -19 -20 -26 -20 -18 0 -29 -16
-21 -30 8 -13 61 14 69 35 14 38 -1 48 -22 15z M3307 1304 c-15 -15 -6 -24 24
-24 20 0 29 4 27 13 -5 14 -40 21 -51 11z M4085 1290 c3 -5 8 -10 11 -10 2 0
4 5 4 10 0 6 -5 10 -11 10 -5 0 -7 -4 -4 -10z M1245 1259 c-27 -17 -56 -38
-62 -47 -14 -17 -17 -64 -6 -75 11 -11 33 14 33 38 0 25 24 49 72 73 31 16 40
33 21 39 -4 1 -30 -11 -58 -28z M4057 1267 c-3 -7 3 -13 13 -13 10 0 16 6 13
13 -3 7 -9 13 -13 13 -4 0 -10 -6 -13 -13z M3371 1246 c-9 -11 -8 -15 4 -20
10 -4 14 -2 9 5 -4 6 0 15 7 20 8 5 9 9 3 9 -6 0 -17 -6 -23 -14z M3853 1253
c-15 -5 -17 -23 -4 -23 5 0 11 7 15 15 3 8 4 15 3 14 -1 0 -8 -3 -14 -6z
M3322 1229 c2 -7 10 -15 17 -17 8 -3 12 1 9 9 -2 7 -10 15 -17 17 -8 3 -12 -1
-9 -9z M3399 1153 c-13 -16 -12 -17 4 -4 9 7 17 15 17 17 0 8 -8 3 -21 -13z
M4230 1140 c0 -5 5 -10 11 -10 5 0 7 5 4 10 -3 6 -8 10 -11 10 -2 0 -4 -4 -4
-10z M4447 1139 c7 -7 15 -10 18 -7 3 3 -2 9 -12 12 -14 6 -15 5 -6 -5z M3767
1129 c7 -7 15 -10 18 -7 3 3 -2 9 -12 12 -14 6 -15 5 -6 -5z M3980 1136 c0 -2
8 -10 18 -17 15 -13 16 -12 3 4 -13 16 -21 21 -21 13z M670 1081 c-19 -16 -32
-32 -28 -36 9 -9 68 36 68 52 0 17 1 17 -40 -16z M3333 1087 c12 -13 26 -21
31 -19 5 3 -2 13 -15 23 -34 26 -43 23 -16 -4z M4380 1086 c0 -2 7 -7 16 -10
8 -3 12 -2 9 4 -6 10 -25 14 -25 6z M4865 1061 c-47 -10 -31 -26 30 -29 50 -3
55 -1 55 18 0 21 -23 25 -85 11z M4085 1050 c-4 -6 -16 -8 -28 -5 -12 2 -16 2
-9 -1 10 -5 10 -9 1 -20 -6 -8 -15 -14 -20 -14 -5 0 -27 -11 -49 -25 -35 -22
-39 -28 -30 -45 9 -16 8 -18 -5 -14 -20 8 -19 -5 5 -66 11 -27 17 -50 13 -50
-4 0 -2 -5 5 -12 7 -7 12 -24 12 -39 0 -22 15 -39 36 -39 10 0 2 54 -15 102
-27 74 -33 108 -21 108 5 0 10 8 10 17 0 9 3 13 6 10 4 -3 18 3 32 13 13 11
31 20 38 20 20 0 28 -21 13 -31 -9 -5 -10 -9 -2 -9 6 0 17 -15 23 -32 15 -38
59 -183 57 -184 -1 0 -18 -8 -39 -17 -41 -19 -60 -21 -73 -8 -6 5 -17 6 -26 2
-12 -4 -14 -12 -8 -28 11 -31 52 -30 114 2 27 13 53 21 59 18 6 -4 5 0 -2 9
-10 12 -9 18 3 28 9 7 13 21 10 31 -4 13 6 29 33 54 22 19 42 43 44 53 6 20
-27 102 -41 102 -5 0 -12 11 -15 25 -4 15 -14 25 -24 25 -10 0 -29 -11 -42
-25 -26 -28 -40 -32 -40 -11 0 7 -7 19 -15 26 -13 10 -13 15 -3 21 7 4 10 11
6 14 -3 4 -9 1 -13 -5z m145 -152 c0 -20 -35 -68 -51 -68 -6 0 -22 35 -34 76
-4 15 3 32 21 53 l26 32 19 -36 c11 -19 19 -45 19 -57z M671 999 c-24 -21 -41
-42 -38 -46 8 -7 97 64 97 78 0 16 -14 9 -59 -32z M4759 1013 c-13 -16 -12
-17 4 -4 9 7 17 15 17 17 0 8 -8 3 -21 -13z M4850 1011 c-21 -6 -25 -13 -25
-43 0 -34 -3 -37 -35 -43 -46 -8 -90 -25 -90 -36 0 -18 84 -51 107 -42 11 4
14 0 11 -13 -4 -23 -66 -33 -80 -12 -7 10 -8 9 -6 -4 2 -9 -6 -24 -17 -32 -20
-16 -20 -16 4 -36 13 -11 38 -20 57 -20 19 0 34 -4 34 -9 0 -5 -15 -8 -32 -7
-25 2 -40 -5 -60 -26 -32 -32 -34 -41 -12 -62 8 -9 12 -21 9 -27 -4 -6 3 -5
14 3 18 10 21 19 16 44 -5 30 -3 32 27 37 18 2 35 3 36 2 9 -8 8 -323 -1 -343
-13 -29 4 -52 26 -34 11 9 14 52 16 189 1 97 4 180 7 184 3 5 25 6 49 4 35 -4
45 -1 45 10 0 11 -12 15 -45 15 -25 0 -45 5 -45 10 0 6 20 10 45 10 37 0 45 3
45 18 0 15 -8 18 -45 18 -41 -1 -62 13 -34 23 7 2 9 -1 4 -8 -5 -9 0 -9 15 1
17 10 24 10 27 1 6 -18 33 -4 33 17 0 15 -8 18 -45 17 -28 -1 -45 2 -45 9 0
16 44 23 65 11 13 -7 16 -6 11 2 -4 6 -2 11 3 11 18 0 12 28 -6 33 -17 4 -17
5 0 6 10 1 17 9 17 21 0 15 -7 20 -27 21 -38 1 -58 11 -58 29 0 20 23 29 58
23 22 -5 27 -2 27 16 0 18 -6 21 -37 20 -21 -1 -49 -4 -63 -8z m-34 -130 c-4
-6 -14 -7 -23 -4 -15 6 -14 7 3 13 22 9 29 6 20 -9z m84 10 c0 -5 -7 -11 -15
-15 -9 -3 -15 0 -15 9 0 8 7 15 15 15 8 0 15 -4 15 -9z m-87 -116 c1 -15 -34
-18 -47 -5 -8 10 -6 12 12 7 14 -3 20 -1 16 5 -4 6 -1 9 5 7 7 -3 13 -9 14
-14z M3955 1000 c-3 -6 1 -7 9 -4 18 7 21 14 7 14 -6 0 -13 -4 -16 -10z M680
925 c-19 -19 -40 -35 -47 -35 -7 0 -13 -4 -13 -10 0 -5 3 -10 6 -10 22 0 104
65 104 82 0 16 -17 7 -50 -27z M3799 943 c-13 -16 -12 -17 4 -4 9 7 17 15 17
17 0 8 -8 3 -21 -13z M3379 933 c-13 -16 -12 -17 4 -4 16 13 21 21 13 21 -2 0
-10 -8 -17 -17z M4041 931 c-8 -5 -9 -11 -3 -15 5 -3 12 1 16 9 6 17 6 18 -13
6z M4495 930 c3 -5 8 -10 11 -10 2 0 4 5 4 10 0 6 -5 10 -11 10 -5 0 -7 -4 -4
-10z M4060 905 c-7 -9 -8 -15 -2 -15 5 0 12 7 16 15 3 8 4 15 2 15 -2 0 -9 -7
-16 -15z M3707 899 c7 -7 15 -10 18 -7 3 3 -2 9 -12 12 -14 6 -15 5 -6 -5z
M4330 861 c0 -5 5 -13 10 -16 6 -3 10 -2 10 4 0 5 -4 13 -10 16 -5 3 -10 2
-10 -4z M4449 843 c-13 -16 -12 -17 4 -4 9 7 17 15 17 17 0 8 -8 3 -21 -13z
M4456 813 c-6 -14 -5 -15 5 -6 7 7 10 15 7 18 -3 3 -9 -2 -12 -12z M3660 796
c0 -2 7 -7 16 -10 8 -3 12 -2 9 4 -6 10 -25 14 -25 6z M4099 783 c-13 -16 -12
-17 4 -4 9 7 17 15 17 17 0 8 -8 3 -21 -13z M3940 735 c-7 -9 -8 -15 -2 -15 5
0 12 7 16 15 3 8 4 15 2 15 -2 0 -9 -7 -16 -15z M4622 726 c7 -8 15 -12 17
-11 5 6 -10 25 -20 25 -5 0 -4 -6 3 -14z M4520 720 c-8 -5 -12 -12 -9 -15 4
-3 12 1 19 10 14 17 11 19 -10 5z M4669 713 c-13 -16 -12 -17 4 -4 16 13 21
21 13 21 -2 0 -10 -8 -17 -17z M3760 686 c0 -3 9 -10 20 -16 11 -6 20 -8 20
-6 0 3 -9 10 -20 16 -11 6 -20 8 -20 6z M3920 666 c0 -2 7 -9 15 -16 9 -7 15
-8 15 -2 0 5 -7 12 -15 16 -8 3 -15 4 -15 2z M3895 650 c-3 -5 -1 -10 4 -10 6
0 11 5 11 10 0 6 -2 10 -4 10 -3 0 -8 -4 -11 -10z M4914 650 c-34 -13 -37 -28
-10 -45 31 -21 46 -12 46 26 0 31 -3 33 -36 19z M4772 614 c10 -10 20 -16 22
-13 3 3 -5 11 -17 18 -21 13 -21 12 -5 -5z M4595 599 c-4 -6 -5 -12 -2 -15 2
-3 7 2 10 11 7 17 1 20 -8 4z M4100 596 c0 -2 7 -9 15 -16 13 -11 14 -10 9 4
-5 14 -24 23 -24 12z M4450 526 c0 -2 8 -10 18 -17 15 -13 16 -12 3 4 -13 16
-21 21 -21 13z M4427 509 c7 -7 15 -10 18 -7 3 3 -2 9 -12 12 -14 6 -15 5 -6
-5z M4085 490 c-3 -6 1 -7 9 -4 18 7 21 14 7 14 -6 0 -13 -4 -16 -10z M4565
489 c-4 -6 -5 -12 -2 -15 2 -3 7 2 10 11 7 17 1 20 -8 4z M4340 446 c0 -2 8
-10 18 -17 15 -13 16 -12 3 4 -13 16 -21 21 -21 13z M4300 436 c0 -2 7 -7 16
-10 8 -3 12 -2 9 4 -6 10 -25 14 -25 6z M4914 418 c-14 -17 -15 -20 -2 -9 9 7
22 10 27 6 7 -3 8 0 5 9 -8 20 -7 20 -30 -6z M4160 416 c0 -2 8 -10 18 -17 15
-13 16 -12 3 4 -13 16 -21 21 -21 13z M4040 406 c0 -2 8 -10 18 -17 15 -13 16
-12 3 4 -13 16 -21 21 -21 13z M4256 392 c-2 -4 4 -8 14 -8 10 0 16 4 14 8 -3
4 -9 8 -14 8 -5 0 -11 -4 -14 -8z M4537 389 c7 -7 15 -10 18 -7 3 3 -2 9 -12
12 -14 6 -15 5 -6 -5z M4740 396 c0 -2 7 -7 16 -10 8 -3 12 -2 9 4 -6 10 -25
14 -25 6z M4455 369 c-4 -6 -5 -12 -2 -15 2 -3 7 2 10 11 7 17 1 20 -8 4z
M4476 354 c-8 -22 -4 -25 11 -9 7 8 9 16 4 19 -5 3 -12 -1 -15 -10z M4586 344
c-18 -48 10 -61 36 -16 16 27 16 28 -7 30 -13 1 -26 -5 -29 -14z M4136 329 c2
-4 0 -10 -6 -14 -6 -3 -9 -19 -8 -33 1 -15 -2 -33 -6 -40 -6 -10 5 -12 51 -10
l58 3 3 53 c3 47 1 53 -15 50 -10 -2 -19 -14 -21 -28 -2 -14 -8 -29 -12 -34
-6 -5 -7 6 -3 27 5 35 4 37 -20 35 -14 -1 -24 -5 -21 -9z M4397 330 c9 -10 10
-17 2 -27 -7 -8 -8 -13 -1 -13 18 0 21 28 4 41 -14 11 -15 11 -5 -1z M4430
336 c0 -2 7 -9 15 -16 9 -7 15 -8 15 -2 0 5 -7 12 -15 16 -8 3 -15 4 -15 2z
M4654 333 c3 -6 3 -13 -1 -15 -5 -1 -16 -17 -25 -34 -15 -27 -16 -34 -4 -43
11 -9 15 -8 20 4 3 9 11 13 18 9 8 -5 9 -2 5 11 -4 9 -2 24 4 32 10 11 8 18
-6 31 -10 9 -15 12 -11 5z M4330 309 c0 -6 -9 -8 -22 -4 -18 5 -20 4 -8 -4 8
-6 15 -23 15 -38 0 -21 5 -29 23 -31 20 -3 22 0 20 31 -2 23 -7 33 -16 30 -8
-4 -10 0 -6 11 3 9 3 16 0 16 -3 0 -6 -5 -6 -11z M4554 302 c9 -16 -5 -44 -20
-38 -8 3 -11 0 -7 -10 6 -17 43 -28 70 -21 10 3 4 5 -14 6 -18 0 -33 4 -33 9
0 13 15 29 30 34 11 3 9 8 -9 17 -13 7 -21 8 -17 3z M4730 307 c0 -2 11 -13
25 -25 14 -12 25 -18 25 -13 0 5 -11 16 -25 25 -14 9 -25 15 -25 13z M4860
300 c8 -5 20 -10 25 -10 6 0 3 5 -5 10 -8 5 -19 10 -25 10 -5 0 -3 -5 5 -10z
M4254 287 c-6 -7 -13 -22 -16 -35 -5 -19 -2 -22 24 -22 27 0 29 3 26 32 -3 34
-17 44 -34 25z M4413 280 c-13 -10 -23 -25 -23 -34 0 -27 43 -19 57 11 7 15
11 29 8 31 -3 3 -5 -1 -6 -9 0 -10 -2 -9 -7 3 -6 15 -9 15 -29 -2z M4704 272
c-6 -4 -13 -15 -17 -25 -6 -15 -2 -18 16 -15 14 2 23 11 25 26 3 22 -5 27 -24
14z M4900 270 c8 -5 20 -10 25 -10 6 0 3 5 -5 10 -8 5 -19 10 -25 10 -5 0 -3
-5 5 -10z M4827 259 c7 -7 15 -10 18 -7 3 3 -2 9 -12 12 -14 6 -15 5 -6 -5z
M4463 254 c-24 -10 -13 -20 23 -22 26 -2 35 1 32 10 -5 14 -35 20 -55 12z
M4855 240 c-3 -5 1 -10 10 -10 9 0 13 5 10 10 -3 6 -8 10 -10 10 -2 0 -7 -4
-10 -10z"/>
</g>
</svg>
