<?xml version="1.0" standalone="no"?>
<!DOCTYPE svg PUBLIC "-//W3C//DTD SVG 20010904//EN"
 "http://www.w3.org/TR/2001/REC-SVG-20010904/DTD/svg10.dtd">
<svg version="1.0" xmlns="http://www.w3.org/2000/svg"
 width="500.000000pt" height="878.000000pt" viewBox="0 0 500.000000 878.000000"
 preserveAspectRatio="xMidYMid meet">
<metadata>
Created by potrace 1.16, written by Peter Selinger 2001-2019
</metadata>
<g transform="translate(0.000000,878.000000) scale(0.100000,-0.100000)"
fill="#000000" stroke="none">
<path d="M1883 8723 c28 -3 47 -9 47 -16 0 -7 10 -23 23 -37 65 -73 88 -103
84 -113 -2 -6 -23 -12 -48 -14 -72 -4 -107 -13 -113 -28 -7 -20 21 -32 64 -29
54 3 344 16 355 15 65 -6 335 -5 353 1 33 11 27 28 -18 45 l-40 16 -2 61 c-1
34 -2 71 -2 84 0 19 -5 22 -43 22 l-43 0 0 -57 c0 -81 -8 -103 -35 -103 -29 0
-35 16 -35 96 l0 64 -35 0 c-34 0 -34 0 -33 -42 0 -24 0 -62 -1 -84 l-1 -41
-47 -6 c-27 -3 -54 -1 -60 5 -7 6 -20 7 -29 4 -37 -14 -30 9 21 79 30 41 55
76 55 79 0 4 -19 6 -42 6 -42 -1 -44 -2 -83 -65 -46 -75 -69 -83 -90 -31 -8
19 -30 43 -50 54 -19 12 -35 26 -35 32 0 6 -31 9 -82 8 -54 -1 -66 -3 -35 -5z
M2615 7180 c-91 -13 -175 -71 -175 -121 0 -37 -26 -58 -43 -35 -12 17 -15 17
-51 -1 -29 -13 -45 -31 -67 -76 -17 -32 -27 -62 -24 -66 7 -12 -33 -223 -45
-235 -14 -14 -12 -40 6 -85 12 -31 26 -45 60 -61 24 -12 60 -37 80 -57 29 -28
38 -32 50 -22 11 9 18 9 26 1 7 -7 21 -12 31 -12 28 0 74 -51 55 -61 -88 -50
-129 -117 -188 -303 -18 -55 -41 -117 -51 -137 -10 -20 -21 -68 -25 -105 -4
-38 -17 -93 -30 -122 -13 -29 -24 -55 -24 -59 0 -3 -29 -35 -65 -70 -62 -61
-125 -162 -125 -199 0 -9 6 -30 14 -47 13 -29 19 -58 32 -157 8 -54 43 -117
85 -151 21 -17 41 -40 44 -50 14 -43 106 -82 189 -80 22 0 43 -4 47 -11 8 -12
60 4 89 28 8 6 31 21 52 32 l36 21 15 -62 c8 -34 20 -84 25 -112 6 -27 18 -75
27 -105 9 -30 29 -100 44 -155 33 -121 43 -140 81 -160 27 -14 31 -14 36 0 3
8 -5 28 -20 46 -14 17 -29 43 -32 57 -3 15 -8 34 -12 42 -3 8 -7 30 -9 48 -2
19 -11 50 -19 70 -19 45 -46 138 -49 172 -7 67 -27 146 -39 158 -12 12 -10 20
11 51 13 20 27 48 30 62 3 15 18 34 36 44 18 11 52 37 76 59 25 23 41 35 37
28 -12 -20 -16 -71 -6 -77 5 -3 6 -20 3 -39 -6 -38 10 -55 32 -36 12 10 15 10
15 -1 2 -209 12 -417 22 -463 11 -51 17 -61 41 -69 38 -12 42 -5 28 45 -7 23
-15 58 -17 78 -21 158 -25 235 -24 367 2 153 -6 193 -35 193 -8 0 -15 7 -15
16 0 11 -6 15 -20 11 -22 -6 -24 3 -10 47 5 17 24 76 41 131 17 55 37 112 45
127 16 32 19 131 3 159 -8 15 -6 25 9 44 11 13 30 49 42 80 12 30 25 55 29 55
8 0 5 -1814 -4 -2250 -12 -623 -18 -739 -35 -693 -8 20 -58 40 -87 35 -7 -2
-19 21 -28 52 -13 43 -14 67 -6 108 9 53 7 128 -5 183 -4 17 -8 108 -8 204 -1
125 -4 175 -13 178 -6 2 -16 -5 -22 -15 -12 -23 -18 -289 -7 -347 13 -76 14
-157 2 -217 -10 -50 -14 -57 -25 -45 -22 27 -26 88 -7 102 35 26 17 230 -24
280 -7 8 -3 33 11 75 17 49 19 64 9 70 -24 15 -35 1 -58 -69 -26 -83 -26 -76
-4 -97 46 -46 55 -167 17 -238 -14 -26 -25 -56 -25 -67 0 -24 -11 -24 -41 0
-18 14 -23 28 -23 63 1 59 9 78 34 78 15 0 20 7 20 29 0 17 5 33 10 36 6 4 1
18 -14 36 -13 15 -27 42 -31 58 -6 30 9 134 26 181 5 14 11 39 13 55 2 17 21
77 41 135 20 58 38 115 39 128 2 12 11 31 20 41 9 9 16 23 16 29 0 6 9 27 21
46 16 28 18 39 9 56 -6 11 -16 18 -21 14 -7 -4 -7 2 1 15 16 30 35 36 62 17
25 -18 78 -22 78 -5 0 6 6 17 14 25 13 12 12 18 0 44 -9 16 -19 30 -24 30 -13
0 -32 -39 -25 -50 3 -6 -1 -7 -9 -4 -19 7 -20 16 -4 32 9 9 7 17 -10 35 -12
13 -22 32 -21 43 0 10 3 13 6 7 2 -7 11 -13 19 -13 8 0 26 -14 41 -30 50 -56
77 -28 34 35 -32 48 -71 129 -71 149 0 7 -7 33 -15 56 -8 24 -17 59 -20 79 -2
20 -13 82 -25 139 -11 57 -20 137 -20 177 0 76 -9 96 -30 70 -15 -18 -16 -146
-1 -200 31 -118 36 -172 18 -190 -23 -22 -15 -81 25 -183 20 -51 20 -53 3 -72
-24 -27 -29 -25 -42 11 -11 28 -14 30 -29 19 -19 -16 -13 -64 12 -92 22 -24
12 -71 -25 -113 -25 -28 -59 -108 -110 -255 -52 -150 -76 -213 -100 -265 -27
-57 -45 -102 -69 -170 -5 -16 -16 -44 -23 -62 -12 -30 -11 -34 10 -57 13 -13
20 -29 16 -35 -3 -6 -1 -26 5 -45 10 -30 28 -46 73 -60 9 -3 20 -14 23 -23 3
-10 13 -34 21 -53 19 -42 17 -122 -3 -200 -19 -73 -31 -378 -16 -407 6 -11 8
-24 4 -28 -4 -3 -8 -28 -8 -53 -1 -26 -5 -63 -9 -82 -3 -19 -8 -42 -9 -50 -2
-8 -6 -30 -11 -48 -6 -28 -9 -30 -19 -16 -11 14 -18 14 -54 3 -23 -7 -42 -17
-42 -22 0 -6 -3 -8 -6 -4 -4 3 7 23 24 44 71 90 110 228 99 349 -16 167 -146
346 -301 415 -35 15 -50 29 -61 56 -39 94 -104 139 -185 129 -44 -5 -46 -3
-101 52 -30 31 -66 64 -79 73 -22 14 -23 20 -15 44 11 32 61 73 72 60 5 -4 2
-10 -5 -12 -17 -6 -42 -32 -42 -43 0 -16 60 -41 81 -35 11 4 42 1 69 -5 42
-10 52 -9 87 8 37 19 63 55 63 88 0 8 9 27 19 42 27 38 18 88 -19 107 -29 15
-60 55 -60 79 0 21 -21 31 -31 15 -7 -12 -9 -11 -9 1 0 13 -1 13 -10 0 -5 -9
-5 -19 0 -26 6 -6 7 -13 5 -16 -6 -6 42 -58 67 -73 22 -13 31 -56 17 -75 -8
-11 -12 -12 -16 -2 -13 34 -96 -4 -91 -41 2 -17 11 -23 41 -25 57 -5 48 -45
-13 -54 -46 -7 -67 5 -85 47 -16 40 -54 59 -97 50 -34 -8 -35 -3 -3 39 35 46
63 134 71 220 9 100 -14 201 -67 291 -43 75 -42 79 22 89 35 6 39 9 39 34 0
28 -35 69 -89 105 -14 9 -26 27 -28 39 -2 13 -10 40 -18 61 -8 20 -15 54 -15
75 0 31 -7 44 -36 71 -21 17 -48 38 -63 45 -22 12 -25 19 -22 60 7 112 -108
196 -219 161 -19 -6 -18 -4 5 31 14 20 25 49 25 63 1 34 20 58 50 63 27 3 27
3 14 -74 -6 -34 -4 -38 20 -44 24 -6 53 -2 90 12 12 4 16 0 16 -16 0 -64 53
-75 63 -13 4 20 4 40 0 46 -9 15 -73 38 -91 33 -14 -5 -17 1 -18 29 0 19 -8
43 -17 53 -9 10 -14 27 -11 39 4 15 -5 33 -32 63 -35 39 -41 41 -77 36 -48 -8
-84 -31 -93 -59 -4 -12 -24 -39 -46 -60 l-38 -37 20 -45 c19 -42 22 -44 52
-38 l32 6 -21 -32 c-23 -37 -36 -41 -41 -14 -7 41 -35 84 -77 121 -43 38 -44
39 -26 58 10 10 37 30 60 44 48 29 63 64 35 84 -18 13 -18 15 1 52 11 21 26
45 32 52 55 58 0 196 -76 194 -19 0 -41 7 -53 18 -19 17 -61 30 -99 30 -10 0
-31 12 -48 28 -40 37 -50 113 -26 196 25 85 17 154 -28 248 -21 43 -52 91 -69
107 -46 43 -126 84 -161 83 -17 0 -44 6 -60 15 -47 24 -170 -11 -229 -65 -34
-31 -34 -43 -4 -104 18 -37 20 -48 9 -52 -22 -9 -15 -22 28 -50 32 -21 43 -25
54 -16 12 10 17 7 27 -14 14 -32 42 -30 46 2 3 18 -3 26 -27 35 -41 15 -40 29
2 15 37 -13 87 -60 87 -83 0 -22 28 -18 35 5 11 36 46 23 102 -37 64 -69 89
-62 37 10 -43 59 -89 89 -129 84 -21 -3 -40 4 -65 23 -32 25 -88 50 -113 50
-5 0 -7 -7 -3 -15 11 -31 -4 -13 -39 45 -20 33 -33 65 -29 71 20 34 193 75
208 50 4 -6 26 -11 50 -11 33 0 57 -9 103 -39 56 -36 65 -47 107 -131 25 -51
46 -104 46 -119 0 -16 -9 -54 -20 -86 -13 -38 -20 -84 -20 -133 l0 -75 -55 60
c-30 34 -78 76 -107 95 -145 93 -374 114 -525 48 -42 -18 -43 -18 -53 0 -16
29 -12 48 14 71 21 18 23 24 13 55 -10 31 -8 37 15 60 29 30 97 48 149 39 40
-7 58 7 40 29 -20 23 -77 26 -133 6 -67 -23 -133 -90 -124 -124 8 -32 -15 -51
-43 -36 -39 20 -44 83 -11 128 19 25 20 33 10 53 -21 40 -52 69 -75 69 -11 0
-31 7 -43 16 -22 15 -22 14 -22 -25 0 -22 5 -41 13 -44 9 -4 9 -7 0 -18 -7 -7
-13 -24 -13 -37 l0 -23 30 21 c17 12 30 30 30 42 0 26 24 18 28 -10 2 -12 -6
-34 -17 -48 -12 -15 -21 -36 -21 -48 1 -40 38 -104 70 -121 17 -9 28 -20 25
-25 -4 -6 0 -26 7 -46 12 -35 12 -36 -28 -69 -22 -19 -60 -58 -82 -88 l-42
-54 1 -109 1 -109 12 60 c26 129 119 250 237 309 88 44 160 59 268 54 74 -3
96 -8 162 -39 164 -79 253 -202 274 -381 14 -115 -40 -251 -137 -348 -103
-103 -213 -145 -366 -138 -80 3 -108 9 -161 33 -81 37 -165 102 -207 161 -34
48 -70 143 -77 204 -2 19 -4 -27 -5 -102 0 -76 4 -140 8 -143 5 -3 10 0 12 5
2 6 17 -7 33 -29 17 -22 58 -62 93 -88 l63 -48 -48 -7 c-26 -4 -59 -10 -73
-13 -27 -8 -47 -8 -70 -3 -12 2 -15 -8 -17 -47 -1 -27 1 -42 3 -33 9 30 141
57 239 49 6 -1 32 -21 58 -46 70 -68 64 -120 -23 -172 -30 -17 -31 -19 -25
-74 l6 -56 -53 -27 c-68 -35 -93 -56 -100 -83 -9 -34 16 -107 40 -118 26 -12
21 -46 -15 -88 -27 -33 -28 -42 -9 -79 l15 -28 -47 -1 c-26 -1 -57 0 -69 1
-18 1 -23 -4 -23 -24 0 -21 5 -25 34 -28 l35 -3 -25 -48 c-29 -59 -30 -100 -4
-155 24 -48 25 -77 6 -123 -16 -40 -13 -52 25 -100 42 -53 46 -103 15 -164
-14 -27 -26 -53 -26 -57 0 -16 37 -7 72 17 20 14 40 25 43 25 16 0 -37 -77
-64 -93 -22 -13 -31 -26 -31 -43 0 -14 4 -22 10 -19 6 3 7 -1 4 -9 -7 -18 -24
-22 -24 -6 0 19 -40 10 -54 -12 -13 -19 -15 -91 -15 -446 -1 -288 3 -421 10
-417 5 4 9 15 7 24 -4 22 62 81 90 81 11 0 27 -11 36 -25 10 -14 26 -25 39
-25 18 0 25 -9 35 -43 24 -82 9 -278 -21 -260 -5 3 -7 2 -4 -4 8 -13 -22 -55
-34 -47 -6 3 -18 -1 -28 -11 -22 -19 -62 -16 -85 8 -42 41 -60 8 -29 -54 21
-42 51 -68 80 -69 29 0 37 -15 21 -40 -11 -17 -9 -23 13 -46 31 -30 47 -28
109 17 37 27 41 34 38 62 -3 18 -8 40 -12 49 -6 13 -1 21 20 30 23 11 28 10
32 -2 3 -8 20 -29 39 -47 18 -17 33 -36 33 -42 0 -5 12 -23 26 -40 18 -22 35
-31 56 -31 57 0 98 -70 77 -133 -10 -30 -19 -39 -41 -44 -31 -6 -58 -37 -58
-65 0 -9 -9 -20 -20 -23 -11 -3 -20 -15 -20 -26 0 -15 -7 -19 -37 -19 -119 0
-251 -48 -331 -120 -38 -34 -42 -43 -42 -84 l0 -45 57 54 c64 61 152 109 233
126 66 14 194 5 253 -18 112 -44 210 -132 260 -233 29 -61 31 -72 32 -175 0
-103 -2 -114 -32 -178 -71 -149 -196 -236 -379 -261 -55 -8 -101 -11 -104 -7
-3 4 -27 13 -55 21 -74 19 -164 69 -217 121 l-48 45 0 -53 c0 -36 4 -53 13
-53 7 0 27 -13 45 -29 35 -33 41 -64 17 -98 -22 -31 -2 -68 50 -93 45 -22 76
-25 90 -11 6 6 28 6 58 -1 43 -9 51 -8 70 10 22 21 68 42 91 42 7 0 21 -7 32
-16 20 -16 13 -16 -31 2 -9 4 -15 0 -15 -9 0 -19 33 -31 61 -22 11 4 35 8 53
9 l32 3 -4 -51 c-2 -28 -5 -53 -7 -55 -2 -2 -56 -7 -119 -11 -110 -8 -155 -22
-178 -55 -4 -5 -13 -10 -19 -10 -7 0 -13 -9 -15 -20 -2 -11 -11 -25 -20 -32
-16 -12 -14 -13 17 -13 26 0 41 8 64 35 32 37 47 41 205 50 58 4 94 10 109 20
6 3 25 -1 43 -8 30 -12 37 -11 78 9 29 15 56 21 75 18 17 -3 55 -7 85 -11 30
-3 62 -11 70 -17 8 -7 44 -27 80 -45 49 -26 81 -35 130 -37 36 -2 71 -6 77 -9
7 -2 32 3 55 11 24 9 48 17 53 18 25 6 83 35 89 44 13 22 -14 21 -83 -3 -39
-14 -80 -25 -91 -25 -17 0 -18 3 -8 25 10 22 8 29 -12 50 -12 13 -32 26 -44
28 -21 3 -21 4 -1 11 11 4 31 14 45 21 14 7 44 18 67 24 23 6 49 18 57 26 17
17 46 20 46 5 0 -5 -4 -10 -10 -10 -5 0 -19 -18 -30 -40 l-20 -39 22 -21 c41
-38 80 -17 92 52 4 23 14 39 25 43 44 14 75 -28 68 -92 -3 -36 -1 -43 20 -52
27 -12 70 -5 94 15 13 12 18 10 37 -11 12 -14 32 -25 45 -25 31 0 65 37 69 75
2 22 9 31 25 33 20 3 21 0 17 -30 -6 -42 5 -58 45 -64 35 -6 71 16 71 43 0 7
5 13 10 13 6 0 10 -6 10 -13 0 -29 36 -47 92 -47 58 0 118 16 118 31 0 5 10 9
22 9 34 0 103 38 116 63 16 31 31 127 21 127 -12 0 -11 47 1 55 6 4 34 1 64
-6 46 -10 57 -9 76 4 21 15 21 15 -13 15 -19 0 -44 5 -55 11 -53 28 -115 -3
-115 -57 0 -17 -4 -29 -8 -26 -13 8 -47 -14 -60 -38 -10 -18 -8 -24 7 -35 10
-7 28 -13 41 -13 34 0 29 -27 -9 -50 -36 -22 -65 -22 -60 -1 2 8 -7 24 -19 37
-24 26 -50 20 -70 -17 -9 -17 -6 -24 16 -43 31 -27 24 -35 -34 -42 -45 -5 -91
9 -91 30 0 7 -7 20 -17 27 -28 24 -86 3 -81 -29 2 -9 -5 -18 -14 -20 -20 -4
-41 32 -40 70 1 35 -22 39 -80 16 -23 -8 -28 -17 -28 -44 0 -37 -14 -51 -35
-34 -10 8 -11 19 -4 46 12 41 6 54 -24 54 -33 -1 -57 -24 -68 -65 -13 -46 -44
-46 -45 1 -1 74 -46 121 -109 116 -16 -2 -38 3 -47 10 -16 12 -15 16 9 56 l26
43 31 -34 c24 -27 38 -34 64 -32 17 1 35 4 38 7 3 4 19 2 36 -2 42 -13 114
-12 178 0 30 6 67 12 81 13 14 1 32 7 40 13 8 6 30 11 49 13 21 1 45 11 60 26
25 23 45 26 96 10 13 -4 25 -1 33 9 8 9 20 16 28 16 7 0 30 8 51 17 20 9 42
17 47 18 6 1 20 5 33 9 12 4 32 9 45 11 56 8 87 19 103 36 17 19 40 27 30 10
-7 -11 3 -41 13 -41 3 0 15 16 25 35 21 39 31 41 79 22 34 -14 55 -12 72 7 19
21 90 73 124 89 40 20 63 21 79 5 17 -17 15 -28 -5 -28 -23 0 -113 -52 -137
-79 -22 -24 -36 -88 -26 -117 9 -24 -18 -74 -40 -74 -18 0 -90 -70 -90 -88 0
-7 -4 -12 -10 -12 -5 0 -10 -8 -10 -18 0 -10 -16 -33 -35 -52 -31 -30 -41 -34
-81 -32 -57 2 -100 -19 -108 -54 -9 -34 8 -53 42 -49 15 2 37 -3 49 -11 25
-16 73 -19 73 -5 0 6 -4 13 -10 16 -17 10 -11 25 10 25 25 0 27 20 3 20 -13 1
-10 5 10 16 29 15 86 73 87 86 0 4 14 27 31 52 26 40 33 45 50 36 24 -13 35
-3 67 61 19 37 22 55 17 91 -8 51 4 81 36 98 19 11 31 14 84 26 28 7 83 -44
95 -86 6 -19 10 -54 10 -78 0 -37 -4 -44 -26 -53 -20 -7 -31 -6 -43 5 -11 10
-28 12 -56 7 -47 -8 -55 -34 -12 -39 15 -2 27 -5 27 -8 0 -14 -35 -54 -47 -54
-8 0 -29 -6 -46 -14 -18 -8 -49 -20 -70 -26 -27 -8 -37 -17 -35 -28 5 -23 62
-18 108 10 20 12 50 20 72 19 20 0 40 4 43 9 10 16 23 12 21 -7 -2 -35 32 -25
60 17 24 36 26 44 15 62 -7 12 -8 17 -2 13 6 -3 26 -2 44 3 17 6 53 12 79 15
41 4 50 1 85 -29 21 -19 41 -34 45 -34 3 0 9 -14 13 -31 18 -81 -28 -176 -81
-166 -13 2 -24 0 -24 -5 0 -13 -114 -1 -118 12 -6 16 -58 11 -83 -8 -17 -13
-39 -18 -79 -17 -30 1 -67 -1 -82 -6 -14 -4 -29 -4 -33 -1 -4 4 -30 8 -58 8
-70 2 -120 14 -130 30 -12 21 -40 17 -56 -8 -28 -45 -6 -48 363 -48 l339 1 43
42 c36 37 43 50 49 100 8 61 10 63 65 43 l35 -13 -42 -26 c-74 -47 -65 -98 23
-130 62 -22 239 -24 269 -3 11 7 35 17 53 21 41 8 37 29 -6 33 -22 2 -42 -5
-68 -24 -25 -20 -51 -29 -90 -32 -51 -4 -74 8 -39 22 22 8 19 53 -5 66 -29 15
-88 9 -107 -12 -20 -22 -33 -23 -33 -3 0 20 38 38 80 39 25 1 36 6 40 21 8 29
67 28 99 -1 14 -13 51 -33 83 -45 51 -19 72 -21 166 -17 61 3 122 12 142 20
31 13 38 13 58 0 12 -8 22 -23 22 -33 0 -19 -42 -38 -47 -22 -2 6 -10 19 -18
29 -14 18 -16 18 -40 -9 -14 -15 -30 -27 -37 -26 -32 4 -58 -3 -79 -20 l-24
-20 115 0 c116 0 159 9 194 38 10 9 21 14 25 12 3 -2 11 6 17 18 19 37 30 43
44 26 7 -8 9 -15 5 -15 -13 0 37 -34 85 -57 41 -21 56 -22 175 -18 72 2 144 4
160 5 17 0 74 -2 128 -6 90 -5 97 -5 97 13 0 16 -10 18 -77 21 -97 4 -127 18
-58 27 65 8 100 28 100 56 0 19 -8 24 -54 35 -30 6 -61 10 -68 7 -7 -3 -13 -1
-13 5 0 5 9 12 20 15 11 3 20 12 20 21 0 16 -19 19 -91 18 -22 0 -26 3 -22 19
5 17 -5 24 -30 20 -5 -1 -6 7 -2 18 8 27 -30 51 -83 51 -34 0 -48 -6 -67 -26
-28 -30 -31 -40 -12 -47 6 -2 -20 -7 -60 -12 -116 -11 -120 -48 -7 -64 53 -8
55 -9 18 -10 -83 -2 -104 -60 -22 -62 l43 -1 -30 -13 c-16 -7 -34 -10 -40 -7
-5 4 -16 7 -23 8 -8 2 -26 17 -42 34 -15 17 -38 33 -51 34 -60 8 -119 31 -114
44 2 7 1 11 -4 8 -17 -11 -38 39 -45 104 -7 64 -7 65 27 98 52 50 147 71 147
32 0 -11 5 -20 11 -20 6 0 19 -10 29 -22 15 -19 20 -20 34 -9 8 7 18 27 21 45
8 42 24 61 57 69 35 9 50 -17 46 -79 -3 -40 0 -49 24 -67 23 -17 31 -19 53 -9
14 6 30 23 37 37 17 37 28 31 28 -15 0 -29 4 -40 15 -40 8 0 15 -9 15 -20 0
-11 13 -34 29 -52 l29 -33 30 22 29 21 49 -29 c27 -16 61 -29 77 -29 22 0 27
4 27 25 0 19 -5 25 -22 25 -13 1 -34 7 -46 14 -23 12 -23 13 22 30 l46 18 0
54 c0 48 -3 56 -25 66 -19 9 -29 7 -50 -6 -39 -26 -42 -46 -12 -72 15 -13 27
-25 27 -27 0 -2 -23 -7 -51 -10 -28 -4 -62 -13 -74 -21 -26 -17 -35 -12 -35
19 0 13 -7 28 -15 35 -9 7 -13 20 -10 27 3 8 -8 27 -24 43 -33 34 -57 31 -97
-9 l-27 -26 7 27 c3 15 0 45 -8 67 l-13 40 36 -1 c20 -1 56 -9 79 -20 53 -22
160 -33 236 -24 53 7 56 9 56 36 0 27 -1 28 -35 20 -37 -8 -142 -7 -185 2 -14
3 -45 13 -70 22 -28 11 -58 15 -78 11 -23 -4 -32 -3 -27 4 3 7 0 8 -9 5 -9 -3
-16 -1 -16 5 0 6 -3 10 -8 9 -14 -3 -67 15 -83 28 -24 21 -150 61 -184 58 -34
-4 -48 12 -34 37 13 25 11 90 -4 119 -7 14 -10 38 -7 55 4 17 1 45 -6 63 -18
45 -10 64 23 51 32 -12 33 -12 33 10 0 10 -16 29 -35 42 -19 13 -35 28 -35 33
0 5 -7 18 -17 28 -9 10 -11 18 -5 18 6 0 14 -4 17 -10 10 -15 45 -12 45 5 0 8
-10 23 -22 35 -18 16 -19 20 -5 20 8 0 19 -4 22 -10 3 -5 13 -10 21 -10 27 0
11 44 -22 60 -16 8 -54 38 -83 65 -29 28 -56 49 -61 48 -19 -5 -89 74 -103
118 -14 45 -13 94 3 104 4 3 32 -17 61 -45 29 -27 55 -47 59 -45 3 2 25 0 48
-6 37 -8 131 -13 200 -10 12 1 22 7 22 16 0 17 35 21 45 5 3 -5 12 -10 19 -10
9 0 12 22 9 90 -1 50 0 90 3 90 11 0 64 -62 64 -75 0 -7 -12 -37 -28 -66 -15
-30 -35 -73 -46 -97 -22 -54 -68 -85 -103 -71 -32 12 -100 12 -108 -1 -3 -6
-17 -10 -30 -10 -50 0 -41 -44 10 -46 17 -1 59 -6 95 -11 51 -7 72 -6 98 6 40
18 49 10 55 -49 7 -66 37 -178 64 -234 12 -28 23 -57 23 -67 0 -21 38 -69 54
-69 8 0 33 -17 56 -37 24 -21 52 -46 63 -55 11 -10 28 -18 38 -18 24 0 76 -45
105 -92 14 -21 33 -42 42 -45 9 -4 24 -14 32 -22 13 -13 15 -12 18 12 2 19 -4
34 -20 47 l-23 19 23 -6 c18 -4 22 -1 22 16 0 15 -6 21 -22 21 -19 0 -20 2 -8
10 13 8 12 12 -6 24 -27 19 -21 59 12 85 24 19 33 51 14 51 -5 0 -28 -16 -50
-36 -30 -27 -40 -44 -40 -67 0 -30 0 -30 -21 -11 -12 10 -40 28 -63 39 -22 11
-41 26 -41 33 0 7 -18 23 -40 36 l-40 24 28 13 28 13 -23 17 c-21 16 -22 19
-7 34 12 12 22 14 40 6 14 -5 37 -7 53 -4 22 5 27 10 24 31 -2 19 -12 28 -38
37 l-34 12 26 17 c37 24 80 13 72 -19 -13 -54 36 -83 84 -49 23 16 29 48 12
59 -20 13 -10 27 15 21 21 -5 25 -3 25 15 0 20 -4 21 -49 15 -28 -4 -68 -1
-93 5 -39 11 -50 10 -84 -7 -27 -13 -42 -29 -49 -51 -6 -17 -23 -46 -38 -63
-19 -21 -26 -37 -22 -50 4 -14 2 -20 -9 -20 -20 0 -34 52 -17 58 8 3 2 15 -18
33 -38 34 -41 59 -6 59 38 0 58 38 50 94 -5 31 -4 46 4 47 48 6 80 9 106 11
28 3 30 6 33 50 3 44 7 50 53 83 50 38 64 43 112 44 25 1 27 4 25 36 -1 24 -5
31 -13 25 -23 -19 -25 4 -3 29 14 16 9 13 -13 -6 -42 -40 -62 -44 -28 -6 13
15 2 8 -25 -15 -27 -23 -56 -42 -65 -43 -25 -1 -96 -87 -93 -114 1 -18 -4 -24
-28 -27 -32 -5 -37 1 -18 20 7 7 8 12 2 12 -5 0 -20 -12 -33 -25 -26 -28 -50
-34 -30 -7 7 9 0 4 -17 -13 -38 -39 -63 -71 -47 -61 20 11 16 -19 -4 -35 -15
-12 -16 -12 -10 4 3 9 3 17 -2 17 -11 0 -21 41 -27 106 -3 50 -2 55 43 106 74
84 83 99 17 28 l-61 -64 0 33 c0 24 12 45 46 84 77 89 88 104 47 67 -29 -26
-36 -29 -27 -13 6 12 10 28 9 34 -2 8 12 14 40 15 23 1 42 -2 42 -7 0 -5 -3
-9 -7 -9 -5 0 -16 -13 -27 -28 -10 -15 2 -6 28 20 53 56 86 66 35 11 -18 -20
-25 -31 -14 -23 11 8 26 23 33 32 22 30 44 49 50 44 2 -3 -1 -12 -8 -21 -17
-20 -6 -19 15 1 29 30 29 4 -1 -29 l-29 -32 35 33 c40 36 52 40 43 15 -6 -16
-3 -15 17 2 20 17 23 18 17 2 -6 -16 -5 -16 18 -1 36 24 31 6 -12 -41 l-38
-40 45 43 c43 39 69 55 55 32 -9 -14 7 -12 27 4 20 15 24 46 7 46 -8 0 -7 6 2
18 13 16 13 16 -5 2 -10 -8 -32 -15 -48 -16 l-30 -2 46 47 c34 35 46 54 44 73
-1 16 -6 24 -13 20 -5 -4 -38 -7 -72 -8 l-61 -1 25 36 26 36 -37 -39 c-20 -21
-39 -36 -43 -33 -9 10 48 72 67 72 10 1 25 6 33 14 9 7 23 14 30 15 27 4 47
28 47 58 l0 29 -55 -31 c-30 -17 -63 -30 -72 -29 -10 2 -56 -3 -102 -10 -99
-16 -280 -9 -292 11 -5 7 -11 38 -14 68 -4 30 -17 91 -30 135 -13 44 -25 91
-27 105 -2 18 -8 24 -21 22 -14 -2 -17 4 -15 40 1 24 -1 57 -5 73 -17 77 -30
269 -31 459 -1 199 0 209 19 220 27 15 35 27 35 54 0 13 17 40 43 65 80 81 79
79 65 131 -11 42 -11 49 4 57 20 11 38 68 38 120 0 27 -8 43 -36 70 -38 36
-106 170 -129 254 -8 28 -19 66 -24 85 -6 19 -11 47 -11 61 0 15 -7 32 -15 39
-8 7 -15 25 -15 41 0 15 -5 40 -11 56 -6 15 -13 38 -14 50 -2 12 -15 47 -29
77 -14 30 -26 64 -26 74 0 11 -12 27 -26 36 -14 10 -24 22 -22 28 6 18 -105
128 -130 128 -18 0 -21 4 -17 23 5 23 13 182 18 357 2 71 8 117 19 143 17 37
17 37 77 37 52 0 68 5 116 35 30 20 56 35 57 33 2 -1 23 3 48 10 51 13 90 44
90 72 0 10 11 35 24 55 13 19 27 53 31 75 4 22 11 43 17 46 11 7 2 73 -14 91
-5 7 -7 25 -4 40 9 39 -50 200 -135 366 -16 32 -29 68 -29 81 0 12 -6 28 -12
34 -10 10 -10 15 1 21 20 13 -4 105 -32 124 -12 8 -28 32 -35 53 -29 85 -55
151 -77 194 -12 25 -30 69 -40 97 -25 79 -74 107 -222 124 -44 5 -138 20 -207
34 -89 17 -141 22 -183 18 -67 -7 -138 -6 -171 2 -19 5 -21 9 -12 25 15 28 12
40 -11 48 -19 7 -17 11 27 52 52 48 52 73 -2 75 -109 4 -104 2 -104 39 0 32
-3 35 -57 56 -67 26 -90 48 -99 96 -8 41 -55 81 -111 95 -21 6 -81 12 -133 14
-52 3 -108 6 -125 8 -16 2 -53 0 -80 -3z m65 -304 c0 -8 5 -16 12 -18 8 -3 9
-6 1 -11 -5 -3 -21 5 -33 18 l-23 25 21 0 c12 0 22 -6 22 -14z m295 -27 c17
-32 20 -63 5 -54 -5 3 -10 15 -10 26 0 12 -10 23 -25 29 -24 9 -31 21 -19 33
11 11 35 -5 49 -34z m-465 -113 c54 -15 94 -17 116 -6 24 13 54 8 54 -10 0 -5
-4 -10 -9 -10 -5 0 -16 -6 -23 -13 -7 -7 -25 -20 -40 -30 -18 -11 -25 -22 -21
-33 5 -12 12 -9 39 17 26 25 39 31 64 27 34 -5 47 6 31 26 -9 11 -6 15 13 18
16 3 30 -2 40 -14 14 -16 56 -24 107 -19 18 2 39 -38 39 -74 0 -15 6 -25 14
-25 15 0 26 21 26 51 0 10 6 19 14 19 7 0 19 7 26 15 17 21 25 19 38 -10 9
-19 19 -25 45 -25 18 0 37 4 43 9 5 6 39 -8 91 -40 65 -39 88 -48 109 -43 25
6 26 5 23 -37 -3 -54 -11 -71 -60 -124 -47 -50 -168 -114 -227 -119 -34 -3
-41 0 -46 18 -3 11 -1 25 4 30 6 6 0 18 -16 33 -25 23 -25 25 -10 57 21 45 20
56 -4 56 -11 0 -20 -6 -20 -14 0 -20 -38 -86 -67 -116 -14 -14 -34 -41 -46
-60 -28 -43 -80 -62 -104 -37 -15 15 -15 18 7 35 30 24 19 43 -20 35 -17 -3
-30 -2 -30 3 0 10 90 54 110 54 6 0 10 8 8 18 -2 9 -11 15 -19 13 -8 -2 -24
-4 -35 -5 -12 -1 -31 -9 -41 -18 -28 -26 -35 -22 -28 16 8 43 -5 52 -39 25
-42 -33 -72 -11 -111 81 l-31 75 -45 -3 c-24 -2 -48 -7 -53 -12 -16 -16 -24
-12 -41 24 -18 38 -14 56 14 56 29 0 40 38 25 86 -7 23 -10 45 -7 48 4 3 20
-5 37 -17 17 -13 42 -27 56 -31z m468 -6 c-7 -11 -16 -20 -20 -20 -13 0 -9 28
5 33 23 10 27 7 15 -13z m642 -106 c47 -8 97 -17 111 -19 14 -3 37 -9 51 -14
14 -5 59 -13 99 -17 41 -3 88 -12 105 -19 53 -21 103 -73 110 -113 4 -20 15
-52 26 -70 10 -18 18 -39 18 -46 0 -8 11 -47 25 -87 13 -40 22 -76 20 -80 -3
-4 7 -21 21 -39 33 -38 24 -50 -43 -60 -50 -8 -73 1 -73 27 0 12 -7 14 -31 9
-17 -3 -40 -6 -50 -6 -15 0 -19 -7 -19 -33 0 -18 5 -38 10 -43 15 -15 -3 -27
-70 -48 -78 -24 -84 -29 -77 -66 4 -17 3 -30 -1 -28 -127 52 -160 72 -169 102
-7 24 -14 31 -36 32 -17 1 -43 17 -76 50 -91 91 -125 114 -168 114 -45 0 -78
-26 -67 -54 3 -9 10 -16 14 -16 13 0 20 -43 9 -56 -5 -6 -7 -19 -3 -28 4 -11
0 -16 -14 -16 -12 0 -24 5 -27 10 -3 6 -14 10 -23 10 -42 0 -90 21 -95 42 -6
20 -7 20 -29 4 -40 -28 -64 -35 -189 -51 -66 -9 -129 -21 -140 -28 -11 -7 -26
-30 -35 -52 -14 -38 -61 -106 -51 -75 33 107 42 123 95 158 30 20 52 42 52 53
0 14 -11 10 -61 -23 -33 -23 -64 -50 -69 -62 -4 -12 -22 -54 -39 -94 -17 -40
-31 -78 -31 -86 0 -8 -7 -16 -15 -20 -19 -7 -19 11 0 44 8 14 14 44 15 67 0
23 5 45 10 48 6 3 10 16 10 29 0 27 41 67 92 91 39 18 58 45 31 45 -20 0 -115
-54 -135 -77 -8 -10 -21 -49 -28 -88 -17 -102 -23 -108 -30 -30 -7 89 2 106
79 156 41 27 61 46 59 57 -3 14 15 19 122 33 69 10 164 18 211 18 74 1 93 -3
133 -24 26 -14 49 -25 52 -25 12 0 1 24 -20 45 l-25 25 46 20 c25 11 51 20 58
20 41 0 106 88 143 196 22 63 26 89 21 129 -5 41 -3 75 5 75 0 0 39 -7 86 -16z
m-165 -13 c40 -6 40 -6 43 -56 2 -27 -4 -73 -13 -102 -18 -57 -73 -134 -108
-150 -66 -30 -130 -51 -142 -47 -7 3 -20 -5 -29 -18 -13 -18 -26 -23 -65 -24
-27 -1 -90 -4 -139 -8 -60 -5 -92 -4 -97 3 -4 7 -23 9 -48 5 l-42 -6 40 24
c34 21 46 23 85 16 67 -13 163 -7 201 11 112 55 192 117 220 174 16 30 20 53
17 101 -2 33 -8 70 -13 80 -7 17 -5 18 21 11 16 -4 47 -11 69 -14z m-990 -81
c-10 -11 -20 -18 -23 -15 -7 6 18 35 31 35 5 0 2 -9 -8 -20z m95 -110 c0 -9 6
-22 13 -29 10 -11 8 -11 -10 -2 -25 13 -43 41 -43 67 0 16 1 16 20 -1 11 -10
20 -26 20 -35z m108 -57 c7 -23 -29 -27 -50 -5 l-21 20 33 -1 c18 -1 35 -8 38
-14z m-72 -109 c14 -21 40 -51 57 -66 24 -20 28 -28 15 -28 -9 0 -21 -6 -25
-13 -4 -8 -16 -16 -25 -20 -30 -11 -50 -67 -58 -166 -9 -103 -5 -116 38 -106
19 5 22 2 22 -27 0 -18 -7 -42 -16 -53 -12 -16 -18 -18 -34 -7 -11 6 -28 12
-38 12 -22 0 -58 32 -67 60 -3 11 -10 20 -15 20 -21 0 -42 -15 -50 -35 -10
-25 -46 -36 -79 -23 l-23 8 26 31 c18 21 26 42 26 67 0 42 17 108 54 206 44
118 98 187 143 182 14 -2 33 -18 49 -42z m104 -25 c0 -16 -17 -10 -49 17 -48
40 -40 62 9 24 22 -17 40 -36 40 -41z m54 -100 c-3 -6 -30 -26 -58 -44 -68
-44 -74 -52 -79 -111 -2 -28 -7 -56 -11 -62 -17 -28 -24 -7 -19 56 7 93 32
129 103 153 66 21 73 22 64 8z m772 -81 c18 -12 35 -34 37 -48 7 -34 46 -82
60 -73 7 4 8 0 4 -11 -4 -10 -10 -35 -13 -57 -6 -35 -4 -39 14 -39 11 0 23 8
26 18 3 9 3 0 0 -21 -4 -29 -1 -39 12 -44 22 -8 44 22 44 59 0 15 3 28 8 28 4
0 7 -21 7 -47 0 -64 22 -65 52 -5 2 5 66 -29 85 -46 10 -8 16 -18 13 -22 -2
-3 9 -14 25 -24 29 -17 30 -16 54 7 l24 24 34 -21 c42 -27 65 -54 73 -87 5
-21 11 -26 26 -22 29 8 33 26 15 61 -20 38 -94 102 -118 102 -10 0 -18 5 -18
10 0 18 57 11 84 -11 30 -24 56 -19 56 9 0 27 -18 39 -81 56 l-54 14 45 3 c37
3 45 7 45 24 0 16 -9 21 -40 26 -39 5 -38 9 10 24 12 4 13 9 6 23 -6 10 -7 29
-4 42 6 22 8 21 45 -21 21 -24 38 -48 38 -54 0 -7 11 -18 25 -25 31 -16 31
-27 3 -49 -28 -23 -15 -44 22 -36 36 8 47 -9 15 -23 -30 -14 -33 -42 -6 -42
25 0 36 -16 16 -24 -23 -8 -18 -31 10 -46 35 -19 56 1 31 29 -16 17 -16 19 0
25 11 4 14 13 10 30 -7 30 12 45 29 23 7 -10 17 -17 23 -17 6 0 16 -9 21 -19
9 -15 7 -20 -9 -24 -31 -8 -23 -32 20 -61 22 -14 40 -34 40 -43 0 -13 -3 -14
-11 -6 -6 6 -18 9 -25 6 -23 -9 -16 -32 15 -48 34 -17 45 -31 36 -45 -4 -6
-17 -4 -35 5 -60 31 -70 3 -15 -39 23 -18 35 -35 35 -52 0 -24 -1 -24 -25 -8
-14 9 -32 14 -40 10 -26 -9 -16 -34 18 -46 39 -13 73 -37 64 -46 -3 -3 -20 4
-36 16 -17 12 -39 20 -48 18 -24 -4 -30 -38 -8 -38 22 0 78 -47 66 -54 -5 -4
-18 6 -30 21 -16 22 -23 26 -37 18 -9 -6 -16 -15 -14 -19 1 -5 -4 -13 -12 -18
-10 -8 -9 -9 3 -5 9 3 22 1 29 -3 11 -7 11 -11 1 -24 -11 -13 -11 -19 -1 -31
10 -12 10 -18 0 -30 -17 -20 -27 -19 -33 5 -7 27 -35 25 -47 -2 -6 -17 -9 -18
-9 -6 -1 9 8 32 18 50 30 52 50 232 29 254 -15 14 -28 -10 -28 -53 l0 -46 -26
26 c-18 18 -24 32 -19 46 7 23 -9 36 -33 25 -9 -4 -24 -6 -33 -5 -9 1 -21 -5
-28 -12 -9 -12 -4 -20 26 -43 21 -16 49 -41 61 -56 13 -16 30 -28 38 -28 10 0
13 -9 9 -34 -4 -38 -33 -101 -42 -93 -2 3 0 14 6 25 6 12 11 28 11 38 0 23
-42 77 -85 110 -29 22 -38 24 -50 14 -21 -18 -19 -37 6 -43 20 -5 20 -7 5 -22
-14 -15 -14 -19 -1 -45 8 -16 19 -32 25 -35 5 -3 10 -11 10 -17 0 -6 -11 -1
-25 12 -20 18 -27 21 -39 11 -13 -11 -12 -17 6 -48 12 -19 27 -37 35 -40 22
-8 15 -18 -29 -43 -31 -17 -39 -19 -29 -7 27 34 -16 65 -48 35 -10 -10 -10 -8
0 10 12 19 12 24 0 31 -18 11 -42 3 -58 -20 -11 -15 -18 -16 -43 -6 -28 11
-42 37 -20 37 17 0 11 36 -8 53 -14 13 -25 15 -52 7 -36 -10 -58 -4 -42 12 12
12 5 38 -9 38 -6 0 -23 -10 -39 -22 -40 -29 -47 -18 -14 21 19 23 24 35 16 43
-8 8 -15 8 -27 -2 -18 -15 -21 0 -3 18 9 9 9 15 0 24 -9 9 -18 6 -38 -13 l-27
-24 8 35 c12 51 11 110 -3 119 -9 5 -6 23 10 69 21 57 22 64 8 103 -8 24 -20
44 -26 46 -10 3 -35 -45 -49 -95 -6 -22 -8 -22 -20 -6 -11 16 -14 15 -29 -14
-9 -18 -21 -32 -26 -32 -11 0 -13 23 -3 33 3 4 8 19 9 34 2 16 7 57 12 93 11
83 1 139 -30 163 -12 11 -22 24 -20 30 2 7 -1 7 -10 0 -9 -8 -18 -8 -31 1 -21
16 -22 30 -2 46 8 6 14 15 13 18 -6 47 26 55 78 20z m-346 -38 c0 -5 10 -10
23 -11 35 0 92 -23 93 -36 1 -7 2 -17 3 -23 0 -5 18 -12 39 -16 48 -9 96 -29
116 -49 22 -23 24 -205 2 -205 -19 0 -24 22 -24 93 0 52 -3 60 -31 85 -66 59
-126 96 -141 87 -18 -11 -11 -21 26 -39 20 -9 34 -19 31 -23 -3 -3 -25 4 -49
15 -52 25 -77 30 -77 17 0 -11 66 -49 99 -58 17 -4 19 -11 13 -38 -3 -18 -17
-51 -31 -73 -13 -23 -21 -32 -17 -21 13 34 17 74 11 99 -8 32 -77 54 -188 59
-47 3 -95 10 -107 16 -27 15 -46 5 -27 -15 8 -8 19 -14 25 -14 16 0 15 -4 -33
-79 -25 -38 -55 -93 -67 -122 -12 -30 -27 -60 -33 -67 -7 -10 -6 -16 5 -23 23
-15 36 -10 58 19 15 19 20 22 21 11 0 -9 -8 -27 -18 -38 -14 -19 -23 -21 -60
-15 -55 9 -99 39 -133 89 -41 61 -41 98 0 135 19 16 39 30 45 30 12 0 77 117
76 138 0 19 39 30 163 47 62 8 126 19 142 24 41 13 45 13 45 1z m1040 -35 c22
0 25 -4 23 -36 -2 -29 2 -38 17 -42 27 -7 35 -33 17 -51 -15 -16 -18 -13 -45
56 -6 15 -25 34 -42 43 -16 8 -30 19 -30 24 0 14 12 21 24 13 6 -4 22 -7 36
-7z m-839 -16 c68 -30 61 -40 -11 -16 -33 11 -60 24 -60 28 0 14 17 11 71 -12z
m95 -53 c10 -8 17 -17 14 -19 -3 -3 -16 3 -30 13 -29 22 -14 27 16 6z m-103
-114 c-1 -30 -11 -64 -23 -84 -11 -18 -20 -41 -20 -50 0 -10 -7 -18 -15 -18
-19 0 -19 23 -1 58 11 23 23 69 28 117 1 6 -2 21 -7 35 -8 24 -7 24 16 8 21
-14 24 -23 22 -66z m-141 -3 c-2 -13 -6 -41 -9 -61 -5 -34 -1 -41 40 -83 49
-49 62 -53 87 -30 16 15 18 12 29 -32 15 -57 36 -83 68 -83 15 0 23 -6 23 -17
0 -33 76 -128 135 -169 40 -28 66 -56 82 -87 22 -44 26 -47 63 -47 28 0 43 6
54 21 l14 21 13 -23 c7 -13 17 -29 23 -35 37 -38 55 -65 60 -90 3 -16 8 -130
11 -254 3 -175 1 -240 -11 -290 -18 -83 -19 -85 -43 -147 -13 -32 -16 -53 -10
-55 16 -5 -1 -58 -18 -58 -16 0 -95 -52 -125 -82 -13 -13 -16 -26 -12 -44 7
-26 6 -26 -42 -21 -132 15 -158 15 -175 6 -13 -6 -19 -6 -19 1 0 5 4 10 8 10
25 0 36 61 48 265 3 50 7 118 9 152 2 36 -2 81 -11 110 -17 54 -14 115 4 121
9 3 12 -7 10 -32 -1 -19 1 -39 5 -42 13 -14 28 13 30 53 2 73 -42 96 -81 43
-26 -34 -28 -87 -7 -173 7 -32 12 -83 9 -115 -2 -31 -6 -117 -8 -190 -5 -112
-8 -137 -25 -161 -11 -16 -18 -31 -16 -35 3 -3 2 -4 -1 -1 -11 8 -44 -15 -44
-30 0 -9 -9 -15 -22 -15 -13 0 -32 -3 -43 -5 -34 -9 -45 8 -60 96 -20 106 -19
294 0 427 9 60 -5 70 -30 22 -10 -19 -15 -57 -15 -109 0 -44 -4 -82 -10 -86
-5 -3 -9 49 -9 137 -1 78 -4 236 -8 352 -11 349 -9 868 4 889 10 16 28 -1 25
-24z m-850 -62 c28 -12 37 -27 18 -27 -6 0 -9 -21 -7 -50 2 -33 -2 -51 -10
-54 -17 -7 -17 -36 0 -37 6 -1 22 0 35 1 21 1 22 -1 11 -18 -12 -19 -13 -19
-43 -2 -27 15 -37 15 -81 4 -27 -6 -46 -13 -41 -13 5 -1 2 -9 -6 -18 -9 -10
-19 -32 -23 -50 -3 -17 -13 -37 -21 -44 -9 -7 -23 -30 -31 -51 -8 -21 -21 -38
-28 -38 -7 0 -16 -7 -19 -16 -4 -9 -9 -15 -12 -12 -2 3 0 17 6 32 13 35 -4 70
-31 63 -16 -4 -14 1 10 36 37 54 65 79 142 130 91 60 127 132 84 167 -10 8
-19 8 -34 0 -17 -9 -20 -8 -14 6 6 17 44 14 95 -9z m93 -7 c-3 -5 -16 -10 -28
-9 -20 1 -20 2 3 9 14 4 26 8 28 9 2 1 0 -3 -3 -9z m65 -10 c8 -5 11 -12 8
-16 -4 -3 -14 1 -23 10 -18 17 -9 21 15 6z m153 -119 c17 -14 40 -36 51 -48
12 -12 47 -29 79 -38 31 -9 57 -18 57 -20 0 -3 -9 -19 -20 -37 -11 -18 -20
-43 -20 -55 0 -12 -9 -43 -21 -69 -11 -27 -21 -60 -22 -75 -2 -22 -5 -25 -19
-18 -22 12 -23 23 -2 39 23 20 14 64 -13 68 -17 3 -23 -2 -23 -17 0 -11 -4
-23 -10 -26 -26 -16 -6 31 42 97 31 43 -26 32 -72 -13 -22 -23 -30 -40 -30
-66 0 -40 23 -73 51 -73 12 0 16 -5 13 -15 -5 -13 -10 -13 -36 1 -16 9 -32 13
-35 10 -22 -22 -87 67 -98 134 -4 25 -14 62 -22 83 -15 37 -33 50 -33 22 0 -8
-7 -15 -16 -15 -14 0 -16 -8 -12 -44 4 -32 2 -46 -8 -50 -19 -7 -17 -36 5 -89
l19 -44 -25 3 c-14 1 -27 -4 -30 -12 -8 -22 -19 -17 -33 16 -7 17 -17 30 -22
30 -18 0 -19 -32 -2 -82 20 -60 50 -99 69 -92 7 3 37 -17 66 -45 56 -54 64
-58 75 -40 3 6 -15 33 -42 60 -64 65 -53 71 14 7 50 -48 52 -52 36 -69 -9 -11
-22 -19 -29 -19 -7 0 -22 -9 -35 -20 -29 -25 -39 -26 -17 -2 10 10 17 26 17
35 0 15 -57 63 -65 55 -12 -12 -17 -68 -6 -68 16 0 14 -17 -3 -23 -14 -6 -96
90 -96 113 0 5 -7 10 -15 10 -31 0 -5 -70 34 -93 22 -13 28 -22 24 -38 -7 -25
-30 -36 -46 -20 -6 6 -30 11 -54 11 -39 0 -44 3 -57 33 -7 17 -23 43 -34 55
-12 13 -23 29 -24 34 -3 7 -11 7 -27 -1 -27 -15 -51 -8 -51 16 0 15 1 15 13
-1 12 -16 16 -17 35 -5 18 11 21 20 16 44 -12 57 -35 66 -55 21 -9 -19 -9 -19
-3 4 3 14 13 54 21 89 11 43 18 59 24 50 5 -8 9 -21 9 -30 0 -10 11 -19 25
-21 25 -5 45 10 60 47 7 18 8 19 12 2 3 -13 12 -17 31 -15 22 2 28 9 30 33 2
17 8 34 13 40 14 14 11 41 -7 56 -12 10 -22 10 -45 2 -40 -15 -36 -8 11 22 49
31 62 32 55 2 -4 -16 0 -29 15 -42 22 -20 22 -20 36 0 8 11 19 36 24 56 6 21
22 48 36 61 55 49 72 70 79 96 3 15 15 36 25 47 10 11 21 31 25 44 7 24 9 22
32 -23 14 -27 39 -61 56 -75z m-393 79 c0 -4 -7 -13 -15 -20 -13 -11 -15 -8
-15 13 0 19 4 25 15 21 8 -4 15 -10 15 -14z m208 -20 c5 -13 3 -13 -11 -1 -12
9 -30 12 -55 8 -26 -5 -33 -4 -22 3 22 15 83 8 88 -10z m632 -10 c0 -5 -5 -10
-11 -10 -5 0 -7 5 -4 10 3 6 8 10 11 10 2 0 4 -4 4 -10z m-880 -14 c0 -3 -4
-8 -10 -11 -5 -3 -10 -1 -10 4 0 6 5 11 10 11 6 0 10 -2 10 -4z m223 -32 c-3
-15 -20 -15 -33 1 -11 13 -9 15 11 12 13 -2 23 -8 22 -13z m-1427 -185 c3 -6
1 -16 -5 -22 -9 -9 -14 -8 -21 3 -5 8 -10 18 -10 23 0 11 28 8 36 -4z m85 -51
c0 -10 2 -10 6 0 8 20 29 14 60 -18 26 -26 33 -29 61 -21 28 8 34 6 52 -16 28
-35 25 -69 -8 -101 -39 -37 -58 -97 -42 -127 17 -31 8 -51 -27 -59 -42 -11
-73 -34 -73 -56 0 -16 -7 -19 -39 -17 -23 1 -47 -5 -58 -14 -22 -19 -113 -72
-113 -65 0 2 16 27 35 56 19 29 35 58 35 65 0 7 9 32 19 56 16 35 19 63 17
153 -1 61 -4 117 -6 124 -3 8 10 22 30 33 41 22 50 23 51 7z m3028 -54 c30
-50 20 -53 -13 -4 -14 22 -22 40 -17 40 5 0 19 -16 30 -36z m-389 -74 c0 -5
-5 -10 -11 -10 -5 0 -7 5 -4 10 3 6 8 10 11 10 2 0 4 -4 4 -10z m-1183 -97
c34 -20 43 -29 30 -31 -23 -5 -83 41 -102 78 -22 42 -18 51 4 13 11 -17 41
-44 68 -60z m547 46 c11 -55 8 -101 -6 -92 -7 4 -21 6 -30 5 -25 -4 -23 14 2
21 11 3 20 12 20 21 0 9 -8 16 -20 16 -25 0 -27 35 -2 49 26 16 29 14 36 -20z
m-666 -3 c7 -33 -13 -37 -32 -5 l-18 31 23 -4 c14 -2 25 -11 27 -22z m238 -13
c-7 -7 -56 17 -56 27 0 7 13 4 30 -6 16 -10 28 -19 26 -21z m1439 -17 c11 -11
9 -13 -16 -12 -37 1 -37 16 -1 25 2 1 10 -5 17 -13z m-1272 -36 c-7 -8 -22 24
-16 34 4 5 10 1 13 -10 4 -10 6 -21 3 -24z m267 -69 c0 -14 -6 -17 -25 -13
-39 7 -30 24 18 31 4 0 7 -7 7 -18z m-1639 -62 c12 -24 5 -34 -33 -43 -33 -8
-58 25 -37 50 17 21 57 17 70 -7z m1637 -34 c-2 -48 -5 -54 -22 -51 -25 4 -34
26 -11 26 10 0 15 6 13 18 -2 9 -10 16 -16 15 -7 -2 -12 6 -12 16 0 12 8 21
23 24 12 2 23 5 24 6 2 0 2 -24 1 -54z m-1762 -73 c-14 -14 -16 -14 -16 -1 0
20 23 44 29 28 2 -6 -4 -18 -13 -27z m-199 -1 c73 -34 111 -124 114 -271 2
-93 -17 -143 -73 -197 -46 -44 -98 -133 -98 -167 0 -8 -20 -24 -45 -36 -25
-12 -69 -43 -98 -70 l-52 -47 -30 18 c-16 11 -27 19 -22 19 20 0 -26 60 -51
66 -15 4 -37 18 -50 31 -24 26 -42 23 -42 -7 0 -28 -24 -15 -37 20 -7 19 -25
36 -56 50 -60 29 -107 95 -114 162 -3 33 -1 48 5 44 18 -11 23 11 7 27 -22 22
-18 60 8 84 20 19 35 25 106 38 12 2 29 9 36 15 20 16 84 14 128 -4 43 -19 49
-48 17 -89 -22 -28 -26 -52 -10 -62 15 -10 80 62 80 88 0 40 19 -3 26 -61 4
-34 2 -63 -6 -83 -10 -23 -10 -33 -1 -42 6 -6 11 -25 11 -41 0 -54 40 -107 53
-72 3 8 -1 39 -9 70 -10 39 -12 62 -5 75 16 30 18 141 2 150 -17 11 -6 31 16
31 9 0 14 -3 11 -6 -4 -3 5 -22 18 -41 24 -36 27 -48 28 -132 2 -92 46 -49 49
47 1 31 6 63 10 70 5 8 3 12 -7 12 -9 0 -30 13 -48 30 -28 25 -31 31 -18 40
23 15 27 13 62 -34 36 -49 56 -62 71 -47 12 12 2 29 -51 85 -46 50 -54 51
-129 19 -51 -21 -53 -18 -53 57 0 57 4 74 20 90 20 20 32 24 60 20 8 -1 12 2
8 6 -9 8 79 63 102 63 8 0 34 -8 57 -18z m1968 -42 c4 -16 11 -31 16 -34 13
-9 11 -25 -3 -25 -10 0 -12 -18 -10 -65 4 -67 -1 -75 -33 -51 -18 13 -18 14 4
26 18 9 21 17 16 38 -4 15 -8 33 -8 40 0 7 -6 11 -13 8 -8 -3 -16 -1 -19 4 -3
5 4 11 15 15 26 8 26 32 0 40 -31 10 -26 30 9 32 14 1 21 -6 26 -28z m-2695
-167 c0 -5 -6 -16 -13 -27 -16 -20 -33 -5 -23 20 6 16 36 21 36 7z m1088 -8
c37 -26 45 -51 31 -99 -12 -39 -15 -42 -35 -33 -28 13 -58 3 -50 -17 7 -20
-14 -19 -29 2 -11 14 -16 15 -44 3 -17 -7 -45 -30 -62 -52 -35 -44 -48 -45
-26 -1 8 15 18 50 22 76 4 26 11 50 17 53 5 3 20 23 34 45 23 36 27 39 72 39
27 0 57 -7 70 -16z m1610 -141 c-3 -118 -3 -118 -28 -121 l-25 -3 24 19 c14
11 20 22 13 26 -5 3 -8 15 -5 25 3 13 -2 23 -16 30 -22 12 -29 33 -8 26 6 -3
19 0 27 6 13 8 12 12 -8 26 -21 15 -21 16 -5 29 17 13 17 15 0 28 -18 14 -18
14 0 19 10 3 22 5 26 6 4 0 6 -52 5 -116z m-1608 -73 c15 -29 27 -40 44 -40
33 0 36 7 20 47 -17 39 -16 39 54 -10 35 -26 42 -36 42 -64 0 -19 6 -44 12
-56 7 -12 13 -47 13 -77 0 -53 1 -55 39 -75 45 -24 51 -39 15 -43 -16 -2 -39
8 -65 29 -109 87 -218 123 -364 122 -58 0 -117 -5 -132 -11 -15 -6 -29 -8 -32
-4 -16 26 58 61 129 62 22 1 56 9 75 18 35 18 35 18 63 -10 18 -18 39 -28 58
-28 41 0 38 26 -6 51 -40 24 -44 45 -14 83 11 14 17 30 14 36 -3 5 -2 10 4 10
6 0 20 -18 31 -40z m-118 -2 c-17 -33 -40 -57 -55 -58 -8 0 6 19 54 78 18 22
18 13 1 -20z m2563 22 c3 -5 1 -10 -4 -10 -6 0 -11 5 -11 10 0 6 2 10 4 10 3
0 8 -4 11 -10z m88 -78 c14 -20 33 -59 43 -87 9 -27 24 -57 31 -66 8 -9 24
-50 37 -90 13 -41 28 -83 32 -94 7 -18 6 -18 -9 -6 -9 7 -17 20 -17 27 0 8 -9
14 -20 14 -24 0 -25 -9 -4 -58 8 -20 24 -84 35 -142 11 -58 24 -124 29 -146 5
-23 12 -86 16 -140 9 -160 12 -186 23 -244 6 -30 20 -71 30 -90 18 -35 18 -37
-1 -63 l-20 -28 -19 39 c-11 22 -31 44 -45 51 -52 24 -59 61 -60 356 -1 149
-6 290 -12 315 -14 61 -27 110 -36 138 -7 21 -5 23 12 18 38 -12 34 14 -17
115 -40 81 -51 112 -51 150 0 27 -4 49 -9 49 -5 0 -11 7 -14 14 -11 28 21 5
46 -32z m-853 29 c0 -6 -4 -13 -10 -16 -5 -3 -10 1 -10 9 0 9 5 16 10 16 6 0
10 -4 10 -9z m760 -18 c13 -12 20 -30 20 -54 0 -23 18 -70 50 -135 28 -54 45
-92 37 -84 -7 8 -23 21 -35 28 -53 30 -62 -28 -29 -193 18 -92 14 -436 -7
-580 -31 -210 -31 -214 -9 -234 11 -10 29 -22 41 -25 19 -6 22 -14 20 -50 -1
-47 6 -66 27 -66 20 0 22 9 16 74 -6 57 -8 61 -46 81 -45 23 -44 20 -26 140
28 183 32 229 36 410 3 143 0 203 -11 245 -8 30 -14 70 -14 90 l1 35 19 -35
c11 -19 19 -45 20 -57 0 -13 7 -41 16 -63 18 -45 21 -122 12 -320 -6 -134 8
-287 32 -330 7 -13 24 -33 37 -43 13 -10 28 -28 34 -40 10 -17 8 -24 -10 -38
-27 -22 -40 -59 -31 -85 6 -15 2 -28 -16 -49 -22 -26 -23 -30 -9 -44 15 -15
19 -13 41 14 l24 30 1 -45 c1 -25 3 -94 4 -155 2 -60 11 -181 20 -267 9 -87
14 -162 11 -166 -8 -14 19 -115 40 -147 31 -47 48 -99 59 -182 4 -26 9 -59 11
-73 17 -90 23 -159 25 -256 2 -109 -2 -134 -22 -134 -6 0 -7 5 -3 11 3 6 -6 3
-22 -7 -36 -24 -189 -28 -203 -5 -5 8 -18 12 -30 8 -12 -3 -21 -1 -21 4 0 5
-6 9 -12 9 -48 1 -126 185 -114 265 3 18 1 59 -5 91 -6 32 -12 68 -14 79 -2
11 -6 28 -10 38 -4 9 -4 17 0 17 10 0 44 -43 45 -57 0 -15 50 -18 50 -3 0 24
-42 91 -71 112 -33 25 -104 126 -95 135 3 4 2 11 -3 17 -12 15 -80 186 -86
214 -2 12 -7 27 -11 33 -3 6 -19 45 -33 88 -27 76 -35 145 -16 147 18 1 79 15
112 27 24 8 35 8 47 -2 13 -11 19 -10 33 8 13 16 35 24 76 30 39 5 64 15 78
29 11 12 26 22 33 22 18 0 29 27 15 36 -6 3 -8 15 -6 26 4 15 3 17 -8 8 -7 -6
-17 -10 -21 -9 -30 5 -41 0 -101 -51 -7 -5 -20 -10 -31 -10 -10 0 -22 -4 -28
-10 -5 -5 -30 -13 -55 -16 -69 -9 -87 11 -104 118 -8 48 -21 101 -30 119 l-17
32 -20 -21 c-11 -11 -22 -31 -23 -44 -2 -12 -7 -40 -13 -61 -8 -29 -7 -50 4
-88 9 -28 12 -63 9 -79 l-6 -28 -54 22 c-54 21 -55 22 -66 76 -6 30 -22 86
-35 124 -28 80 -30 148 -9 229 8 31 17 83 19 114 2 32 10 89 17 127 12 73 6
214 -11 247 -6 10 -16 16 -23 13 -9 -3 -12 -38 -11 -132 2 -132 -3 -183 -37
-364 -22 -121 -20 -162 14 -263 13 -38 27 -89 30 -112 l7 -41 -66 2 c-36 2
-69 7 -74 12 -22 23 -53 146 -58 232 -3 66 -8 92 -18 92 -21 0 -27 -18 -25
-78 1 -50 -9 -66 -16 -24 -11 75 -12 127 -2 164 23 91 23 100 3 96 -13 -2 -25
-21 -38 -58 -17 -50 -17 -67 -7 -189 11 -143 22 -171 66 -171 33 0 35 -8 12
-45 -20 -30 -27 -34 -62 -32 -33 2 -40 -1 -43 -19 -2 -17 3 -20 35 -23 85 -6
292 -1 298 8 5 8 101 -35 128 -57 9 -7 19 -28 22 -45 19 -94 165 -481 196
-521 11 -14 18 -30 14 -36 -3 -5 -1 -20 6 -32 7 -12 13 -36 15 -53 1 -16 5
-42 9 -57 l7 -28 -57 5 c-64 6 -184 51 -192 72 -8 21 -98 63 -134 63 -20 0
-45 -11 -69 -30 -21 -17 -62 -41 -92 -54 -72 -33 -196 -62 -209 -49 -21 21
-17 744 5 923 3 19 7 186 11 370 3 184 8 351 10 370 2 19 6 118 10 220 4 102
9 189 12 193 3 5 15 -1 27 -12 12 -11 36 -24 54 -27 18 -4 35 -11 38 -15 3 -5
23 -9 44 -9 22 0 50 -5 64 -11 20 -9 29 -9 40 0 8 7 20 10 27 6 6 -4 30 -9 52
-10 23 -1 63 -6 90 -10 38 -6 47 -5 47 7 0 17 -60 40 -112 43 -21 1 -51 8 -68
15 -24 10 -33 10 -45 0 -9 -7 -18 -10 -22 -6 -3 3 -1 6 5 6 7 0 12 7 12 15 0
8 -5 15 -11 15 -5 0 -7 5 -3 12 6 9 9 9 12 0 2 -7 15 -12 28 -12 13 0 24 -4
24 -10 0 -14 43 -13 57 1 19 19 91 1 110 -27 18 -28 31 -31 40 -6 4 9 17 27
30 39 19 18 21 26 13 47 -8 21 -4 28 27 52 31 23 35 25 29 8 -4 -10 -10 -31
-13 -46 -3 -16 -9 -28 -14 -28 -5 0 -9 -7 -9 -16 0 -23 44 -14 49 11 2 10 19
39 37 64 19 24 34 56 34 70 0 14 9 41 20 58 11 18 22 44 24 58 5 25 14 45 21
45 3 0 14 -8 25 -17z m-2660 -29 c0 -2 -9 -4 -20 -4 -11 0 -20 4 -20 9 0 5 9
7 20 4 11 -3 20 -7 20 -9z m1900 -5 c0 -5 -4 -9 -10 -9 -5 0 -10 7 -10 16 0 8
5 12 10 9 6 -3 10 -10 10 -16z m-73 -15 c-3 -3 -12 -4 -19 -1 -8 3 -5 6 6 6
11 1 17 -2 13 -5z m93 -172 c13 -5 13 -43 1 -39 -5 1 -16 -6 -23 -16 -11 -15
-13 1 -11 100 1 65 3 120 4 123 1 3 6 -33 11 -80 4 -47 13 -86 18 -88z m-2721
99 c-1 -9 3 -27 8 -41 8 -18 7 -29 0 -40 -6 -8 -7 -12 -3 -8 5 5 15 -1 22 -11
17 -24 56 -31 73 -14 14 15 32 12 97 -19 54 -25 86 -70 92 -130 l5 -48 -38 16
c-44 18 -105 15 -115 -6 -4 -8 -13 -27 -21 -42 -14 -31 -28 -37 -25 -11 0 10
-9 19 -24 23 -14 3 -26 14 -28 25 -13 87 -37 99 -189 99 -97 -1 -113 2 -113
15 0 9 -7 27 -16 39 -17 25 -20 23 59 25 23 1 48 7 55 14 16 16 23 61 11 69
-5 3 -9 14 -9 25 0 11 4 18 9 15 5 -3 25 1 44 9 20 8 42 12 50 9 8 -3 17 2 21
12 5 13 9 14 21 4 9 -7 15 -20 14 -29z m2625 23 c3 -8 2 -12 -4 -9 -6 3 -10
10 -10 16 0 14 7 11 14 -7z m-4 -50 c0 -8 -6 -11 -15 -8 -8 4 -15 9 -15 13 0
4 7 8 15 8 8 0 15 -6 15 -13z m-1638 -49 c110 -28 237 -132 294 -240 43 -80
58 -155 52 -258 -4 -74 -10 -96 -41 -160 -63 -128 -179 -218 -321 -251 -161
-38 -307 -6 -443 96 -62 47 -89 82 -132 165 -28 56 -58 192 -47 211 2 4 7 32
10 62 21 176 193 347 390 386 65 13 161 9 238 -11z m1638 1 c0 -29 -11 -44
-31 -39 -20 6 -23 12 -13 37 8 20 44 21 44 2z m-294 -23 c-10 -10 -19 5 -10
18 6 11 8 11 12 0 2 -7 1 -15 -2 -18z m289 -70 c3 -8 2 -33 -1 -55 -6 -36 -8
-38 -23 -23 -15 15 -15 17 2 29 15 12 15 15 2 26 -8 7 -15 18 -15 25 0 16 28
15 35 -2z m-384 -127 c-17 -35 -31 -69 -31 -75 0 -6 -4 -19 -9 -29 -5 -9 -15
-37 -22 -62 -7 -25 -17 -54 -23 -65 -5 -11 -11 -24 -12 -30 -1 -5 -7 -30 -14
-55 -57 -226 -62 -298 -21 -331 22 -18 28 -39 11 -39 -15 0 -50 -42 -50 -62 0
-21 -4 -22 -31 -7 -16 8 -20 19 -17 45 1 21 -4 41 -15 54 -9 11 -17 25 -17 31
0 23 70 217 105 294 21 43 53 124 71 180 42 128 55 162 78 205 32 60 29 15 -3
-54z m-2271 35 c20 -5 28 -17 37 -56 7 -26 18 -52 25 -56 10 -7 10 -11 0 -21
-6 -6 -12 -19 -12 -27 0 -43 -98 -123 -124 -102 -18 15 -39 -10 -30 -34 10
-26 79 -14 115 21 32 31 38 22 13 -16 -37 -56 -103 -113 -167 -147 -80 -42
-104 -71 -87 -103 15 -28 45 -22 45 10 0 20 12 32 55 57 30 17 69 43 86 57 41
34 48 33 30 -3 -14 -26 -14 -30 1 -35 9 -4 20 -1 25 6 23 34 29 52 30 81 1 18
9 48 20 67 17 32 19 33 24 13 13 -46 51 -37 81 20 14 27 13 32 -4 56 -37 51
-38 54 -11 48 31 -8 44 5 53 55 11 56 40 56 108 1 26 -20 27 -23 16 -74 -7
-31 -9 -82 -5 -125 5 -57 4 -73 -7 -77 -20 -7 -31 -75 -17 -92 25 -31 -48
-155 -91 -155 -9 0 -19 -6 -22 -14 -4 -9 -19 -12 -54 -9 -42 4 -53 1 -80 -21
-36 -30 -46 -32 -63 -11 -7 8 -21 15 -31 15 -10 0 -30 5 -46 12 -28 12 -27 12
21 18 39 4 50 9 57 28 8 22 7 23 -19 18 -15 -3 -49 -8 -75 -11 -48 -5 -106
-39 -137 -80 -8 -11 -28 -33 -44 -50 l-29 -30 9 30 c15 54 7 104 -23 148 -39
59 -42 68 -26 104 18 44 16 73 -7 124 -11 24 -19 60 -19 79 0 60 70 120 98 86
9 -11 19 -12 36 -6 13 5 25 7 27 4 3 -2 2 11 0 29 -3 17 -20 49 -38 70 -19 20
-34 41 -34 45 0 5 17 21 37 35 35 25 45 27 133 26 52 -1 106 -4 120 -8z m2646
-38 c-10 -10 -19 5 -10 18 6 11 8 11 12 0 2 -7 1 -15 -2 -18z m0 -50 c-3 -4
-16 -1 -28 4 l-23 11 25 10 c19 7 26 6 28 -5 2 -8 1 -17 -2 -20z m1114 17 c0
-5 -5 -10 -11 -10 -5 0 -7 5 -4 10 3 6 8 10 11 10 2 0 4 -4 4 -10z m-1107
-143 c-5 -95 -14 -120 -35 -99 -9 9 -7 13 5 18 22 8 22 30 0 43 -17 10 -17 10
0 11 9 0 17 7 17 15 0 8 -6 15 -14 15 -21 0 -31 21 -15 31 11 6 11 11 1 21 -6
6 -12 16 -12 20 0 10 42 27 52 22 3 -2 4 -46 1 -97z m1133 13 c3 -25 19 -66
35 -92 28 -47 28 -47 9 -70 l-19 -23 -1 22 c0 12 -4 32 -9 45 -5 13 -14 50
-21 83 -21 108 -22 111 -11 95 6 -8 13 -35 17 -60z m-3696 0 c0 -5 -5 -10 -11
-10 -5 0 -7 5 -4 10 3 6 8 10 11 10 2 0 4 -4 4 -10z m2543 -197 c-7 -2 -19 -2
-25 0 -7 3 -2 5 12 5 14 0 19 -2 13 -5z m1212 -127 c10 -28 28 -71 41 -96 35
-70 37 -84 14 -105 -20 -18 -21 -18 -35 1 -8 10 -17 30 -20 44 -3 14 -10 39
-15 56 -6 17 -10 53 -10 80 0 29 -6 59 -15 70 -8 10 -14 26 -14 34 -1 26 34
-28 54 -84z m113 31 c-2 -11 -8 -22 -14 -24 -13 -4 -28 43 -18 58 9 16 35 -11
32 -34z m-1314 10 c-3 -9 -12 -13 -21 -10 -14 5 -13 8 2 20 22 15 28 12 19
-10z m-1 -80 c-7 -11 -12 -11 -33 0 -24 12 -24 13 -3 13 12 0 25 5 29 12 6 9
9 9 12 0 2 -6 0 -17 -5 -25z m-1053 -17 c0 -5 -7 -10 -15 -10 -8 0 -15 5 -15
10 0 6 7 10 15 10 8 0 15 -4 15 -10z m1050 -22 c3 -67 0 -211 -4 -215 -2 -3
-14 -2 -26 2 -15 5 -19 12 -15 26 4 11 2 19 -4 19 -6 0 -11 5 -11 10 0 6 7 10
15 10 8 0 15 6 15 14 0 8 -7 16 -15 20 -22 8 -18 24 5 28 12 2 21 6 20 11 0 4
0 18 0 32 0 18 -5 25 -20 25 -11 0 -20 4 -20 9 0 8 10 12 53 20 4 0 7 -5 7
-11z m-1380 -83 c0 -9 -9 -15 -22 -15 -21 0 -21 0 -2 15 24 18 24 18 24 0z
m-756 -20 c14 -10 26 -14 26 -11 0 4 9 2 19 -3 23 -13 47 -73 26 -64 -9 3 -22
-8 -36 -31 -28 -47 -83 -65 -114 -36 -24 22 -134 80 -153 80 -8 0 -12 6 -9 13
2 6 11 11 20 11 9 -1 15 2 12 6 -6 10 24 35 60 48 40 15 117 8 149 -13z m-624
-29 c4 -20 6 -36 5 -36 -2 0 -10 -3 -19 -6 -13 -5 -15 1 -12 37 5 54 5 54 12
46 3 -3 9 -22 14 -41z m283 14 c3 -11 1 -20 -4 -20 -5 0 -9 9 -9 20 0 11 2 20
4 20 2 0 6 -9 9 -20z m993 -32 c-9 -13 -19 -31 -23 -40 -7 -23 -12 -22 -43 2
-20 16 -22 20 -8 20 10 0 32 9 50 20 42 25 44 25 24 -2z m193 -25 c12 -10 38
-40 59 -67 34 -46 41 -50 80 -51 23 -1 42 3 42 7 0 4 12 8 26 8 25 0 94 -59
94 -80 0 -4 -35 -6 -78 -3 -43 3 -110 0 -150 -7 -39 -6 -75 -11 -78 -10 -4 1
-10 -2 -13 -7 -3 -4 -36 -23 -73 -41 -77 -38 -182 -143 -218 -218 l-22 -45
-24 22 c-19 18 -30 21 -64 15 -31 -5 -40 -3 -40 8 0 8 5 18 10 21 6 3 10 14
10 24 0 10 10 29 21 42 34 39 59 100 59 150 0 65 32 86 94 60 58 -23 85 -21
111 11 30 35 32 59 6 82 -26 24 -14 64 24 81 43 19 99 18 124 -2z m-1106 -47
c37 -14 67 -22 67 -18 0 4 4 2 8 -3 4 -6 25 -24 47 -40 126 -94 195 -225 195
-371 0 -130 -41 -224 -144 -325 -82 -81 -177 -120 -308 -127 -83 -4 -108 -1
-170 19 -193 62 -338 247 -338 431 0 322 337 549 643 434z m406 -37 c2 -17
-74 -119 -88 -119 -9 1 -29 17 -44 37 l-28 37 36 19 c20 10 44 31 53 47 l16
28 28 -21 c15 -12 27 -25 27 -28z m258 -1 c18 -19 24 -38 28 -92 3 -38 8 -72
10 -76 9 -15 -17 -75 -42 -98 -14 -13 -31 -38 -38 -55 -7 -18 -17 -46 -24 -64
-14 -35 -40 -51 -52 -31 -6 9 -10 7 -15 -7 -4 -11 -15 -27 -24 -35 -9 -8 -22
-26 -29 -38 -10 -18 -18 -22 -36 -18 -13 3 -36 1 -50 -4 -26 -10 -26 -10 -19
22 10 39 10 142 1 179 -5 21 -3 26 10 25 10 -1 19 10 25 30 9 37 30 57 50 49
16 -7 48 -93 48 -130 0 -25 29 -43 40 -25 11 18 2 87 -15 119 -18 36 -20 82
-2 100 10 10 7 16 -12 32 -23 19 -23 19 -53 -2 -16 -12 -46 -43 -66 -70 -36
-48 -37 -49 -49 -27 -18 33 -16 43 16 77 26 28 32 30 50 19 17 -11 24 -9 46
12 15 14 25 34 25 51 0 14 7 32 15 39 8 7 15 18 15 26 0 31 113 25 147 -8z
m220 -45 c-9 -8 -37 10 -53 34 l-16 26 36 -28 c20 -15 35 -30 33 -32z m1512 5
c-1 -29 -4 -81 -8 -115 l-6 -62 -25 15 -25 14 23 6 c28 8 29 32 0 36 -32 5
-35 28 -4 28 29 0 37 27 11 36 -22 9 -18 31 6 37 27 7 19 32 -9 31 -13 -1 -22
5 -22 12 0 9 11 14 30 14 30 0 30 -1 29 -52z m-300 -169 c19 -39 54 -63 86
-56 18 3 29 -1 36 -14 5 -11 15 -19 22 -19 9 0 12 -124 12 -544 l1 -544 -23
-5 c-13 -2 -23 0 -23 4 0 15 -37 10 -50 -6 -7 -8 -20 -15 -30 -15 -10 0 -23
-6 -29 -13 -6 -8 -27 -14 -47 -15 -20 -1 -51 -7 -69 -13 -27 -10 -45 -10 -88
1 l-55 13 -12 93 c-6 52 -9 98 -5 104 3 5 10 40 14 78 11 83 47 232 71 292
l19 45 10 -27 c5 -15 8 -37 6 -49 -8 -40 5 -70 29 -67 18 3 21 9 20 53 -2 78
-6 98 -28 130 -31 45 -49 112 -49 185 0 107 12 280 27 368 7 45 11 82 8 82 -2
0 1 6 7 14 18 21 120 -34 140 -75z m451 66 c0 -8 -2 -15 -4 -15 -2 0 -6 7 -10
15 -3 8 -1 15 4 15 6 0 10 -7 10 -15z m444 -52 c7 -49 23 -95 39 -106 8 -6 6
-7 -5 -3 -10 3 -18 1 -18 -4 0 -6 -5 -10 -11 -10 -6 0 -9 6 -6 14 3 8 -1 42
-9 76 -8 34 -11 66 -8 71 9 15 13 7 18 -38z m-1526 -10 c61 -25 147 -84 185
-128 9 -11 33 -52 53 -91 89 -178 57 -373 -87 -516 -66 -66 -152 -112 -244
-129 -61 -11 -210 -5 -229 10 -6 4 -27 14 -46 21 -100 39 -206 144 -251 248
-93 216 13 474 236 573 124 55 264 59 383 12z m918 -75 c-4 -29 -6 -172 -5
-318 2 -486 0 -585 -11 -588 -6 -2 -6 -10 -1 -20 14 -26 14 -299 0 -307 -8 -5
-9 -1 -5 13 5 15 2 22 -14 27 -20 6 -20 7 2 25 20 17 20 19 6 20 -22 0 -24 20
-3 20 22 0 18 15 -7 34 -21 14 -22 16 -5 26 21 13 23 40 2 40 -24 0 -18 37 8
44 l22 6 -25 20 c-14 11 -19 20 -12 20 15 0 16 30 0 30 -6 0 -4 6 6 13 18 13
17 15 -8 34 -31 25 -32 31 -8 49 16 13 16 15 0 28 -22 16 -23 39 -3 56 9 7 13
20 10 28 -3 8 0 21 7 29 10 12 9 18 -6 29 -16 11 -17 16 -6 29 10 11 10 18 1
29 -10 11 -8 17 6 26 13 8 14 13 6 16 -19 8 -16 31 4 43 17 9 17 10 0 28 -19
21 -23 53 -7 53 16 0 12 27 -5 34 -17 6 -10 35 14 54 15 12 15 14 -1 26 -24
18 -22 40 5 59 l22 16 -22 7 c-26 7 -28 16 -10 45 10 17 10 23 0 26 -19 7 -16
30 5 35 14 4 17 15 16 54 0 27 3 54 8 61 6 7 2 16 -13 26 l-21 15 23 5 c13 2
25 5 27 6 2 0 1 -23 -2 -51z m-1656 -172 c6 -8 18 -12 25 -10 11 5 11 -5 -2
-53 -15 -57 -14 -181 2 -228 6 -17 3 -16 -15 5 -11 14 -25 35 -30 48 -6 15
-17 22 -28 20 -24 -5 -17 -46 13 -78 14 -15 25 -38 25 -54 0 -39 34 -32 38 9
4 29 5 28 25 -20 12 -28 32 -67 45 -87 17 -27 20 -41 13 -55 -5 -10 -16 -34
-25 -54 -21 -50 -81 -99 -120 -99 -34 0 -85 -27 -128 -67 -25 -24 -27 -24 -35
-7 -15 30 -14 78 1 153 13 64 12 108 -3 121 -4 3 -24 27 -46 53 -21 26 -52 54
-69 61 -56 23 -96 65 -96 99 0 17 7 38 16 48 8 9 17 25 18 35 7 47 98 62 138
22 10 -10 22 -18 28 -18 5 0 7 -13 3 -32 -6 -28 -4 -31 15 -26 15 4 22 2 22
-9 0 -8 11 -28 25 -45 24 -28 24 -31 9 -60 -9 -17 -24 -33 -35 -35 -26 -7 -24
-22 4 -33 18 -7 27 -3 51 23 l29 31 -8 -70 c-13 -115 -12 -159 5 -159 14 0 19
21 44 161 8 43 -22 138 -49 157 -25 19 -25 19 -6 45 21 31 18 43 -18 91 -18
24 -22 36 -13 39 6 2 12 13 12 25 0 16 12 28 48 44 56 27 56 27 72 9z m-136
-185 c3 -5 -1 -11 -9 -14 -9 -4 -12 -1 -8 9 6 16 10 17 17 5z m-1154 -106 c0
-7 -43 -45 -52 -45 -9 0 34 47 45 49 4 1 7 -1 7 -4z m935 -70 c61 -30 135
-115 134 -154 0 -45 -44 -146 -63 -146 -10 0 -25 -17 -37 -44 -16 -36 -18 -51
-9 -74 13 -38 13 -37 -10 -37 -11 0 -20 5 -20 10 0 23 -17 7 -34 -32 -16 -39
-16 -45 -2 -68 14 -24 13 -29 -4 -58 -11 -18 -31 -34 -47 -38 -25 -6 -80 -40
-110 -69 -15 -15 -19 -71 -9 -113 12 -49 -9 -64 -24 -18 -12 38 -38 59 -67 54
-13 -2 -20 7 -28 36 -7 30 -20 47 -52 70 -24 16 -43 35 -43 42 0 32 -30 44
-99 39 -76 -6 -87 0 -93 50 -2 19 -11 34 -28 42 -13 7 -30 20 -37 29 -18 25
-17 125 2 150 22 29 19 75 -5 81 -24 6 -25 19 -5 66 18 43 35 55 47 33 5 -9
20 -16 34 -16 20 0 25 4 22 23 -3 23 -5 22 82 28 27 2 49 -7 87 -33 l50 -35
-21 -29 c-25 -35 -57 -63 -72 -64 -5 0 -23 -13 -37 -28 -24 -25 -26 -33 -18
-55 7 -17 18 -27 31 -27 24 0 39 28 21 39 -14 9 2 25 37 35 12 4 22 12 22 17
0 5 6 9 13 9 6 0 23 18 37 40 13 22 28 40 33 40 4 0 6 -4 3 -8 -2 -4 4 -18 14
-32 13 -17 16 -30 10 -46 -5 -13 -5 -37 1 -56 6 -22 6 -34 -2 -37 -16 -5 -49
-43 -49 -57 0 -24 23 -27 41 -6 22 28 41 28 39 0 -4 -43 0 -49 23 -46 24 3 28
33 13 93 l-7 30 17 -24 c9 -13 20 -38 23 -55 7 -34 28 -41 45 -14 8 13 5 26
-9 55 -11 21 -22 49 -25 63 -7 33 -38 38 -49 8 l-8 -23 -7 22 c-4 12 -1 31 6
43 11 18 10 26 -11 62 -20 35 -21 44 -10 65 7 14 19 21 27 18 7 -3 25 -5 38
-5 18 0 31 -10 45 -35 12 -19 27 -35 35 -35 26 0 26 27 0 68 -27 44 -70 61
-105 43 -14 -8 -19 -8 -17 2 4 25 35 73 62 97 65 57 89 59 179 15z m-318 -87
c-3 -8 -6 -5 -6 6 -1 11 2 17 5 13 3 -3 4 -12 1 -19z m6 -73 c-3 -9 -8 -14
-10 -11 -3 3 -2 9 2 15 9 16 15 13 8 -4z m1751 -32 c-3 -16 -9 -41 -14 -58
-18 -60 -42 -204 -35 -214 10 -16 -14 -51 -34 -51 -11 0 -30 -13 -44 -29 -21
-26 -23 -35 -17 -78 4 -26 3 -59 -2 -72 -9 -24 -9 -24 -63 29 -60 59 -67 83
-35 123 24 30 26 65 4 74 -22 8 -31 -5 -49 -74 -18 -72 -16 -79 49 -158 49
-59 69 -111 64 -167 -3 -46 10 -58 36 -33 20 20 21 70 1 125 -20 55 -19 58 6
26 11 -14 27 -26 35 -26 27 0 29 -45 7 -170 -8 -44 -8 -45 -58 -53 -34 -5 -57
-16 -72 -32 l-22 -25 -11 21 c-9 17 -19 20 -46 17 -19 -2 -34 0 -34 6 0 5 12
39 26 75 24 58 26 75 22 165 -5 121 -31 193 -108 297 -47 66 -49 69 -29 80 11
6 27 8 35 5 8 -3 13 -2 10 3 -10 15 33 19 45 4 20 -24 69 -44 89 -38 10 3 22
15 25 26 5 14 12 18 25 14 26 -8 35 12 35 77 0 51 3 61 32 90 21 21 46 34 75
39 24 3 46 7 50 8 4 0 5 -11 2 -26z m-211 -44 c-6 -6 -9 -19 -6 -28 4 -13 3
-14 -5 -1 -10 14 1 40 16 40 3 0 1 -5 -5 -11z m1183 -78 c-20 -20 -36 -40 -36
-45 0 -4 21 16 48 44 35 39 51 50 65 44 10 -4 16 -13 13 -21 -3 -8 -2 -12 2
-9 4 2 15 -2 26 -9 17 -13 15 -16 -24 -57 -23 -24 -39 -35 -36 -25 3 9 1 17
-4 17 -6 0 -10 -4 -10 -10 0 -5 -5 -10 -11 -10 -6 0 -8 7 -5 16 5 14 4 15 -9
4 -9 -7 -18 -10 -22 -6 -4 3 12 26 35 49 23 24 42 47 42 52 0 5 -20 -13 -45
-40 -30 -34 -53 -50 -70 -50 -14 -1 -25 1 -25 3 0 12 95 111 98 102 3 -7 -12
-28 -32 -49z m-41 -6 c-43 -50 -65 -66 -65 -48 0 10 93 103 103 103 5 0 -13
-25 -38 -55z m-1211 29 c3 -8 2 -12 -4 -9 -6 3 -10 10 -10 16 0 14 7 11 14 -7z
m1146 -59 c-19 -19 -39 -34 -44 -33 -6 1 -22 -4 -36 -12 -24 -13 -24 -12 -10
6 27 35 54 55 66 50 7 -3 18 2 24 10 7 8 17 14 23 14 6 0 -4 -16 -23 -35z
m-1544 -8 c132 -47 224 -128 282 -247 36 -73 37 -79 37 -185 0 -105 -2 -113
-34 -179 -98 -201 -323 -306 -536 -250 -142 36 -249 122 -309 247 -83 171 -58
343 70 485 61 68 179 130 274 145 50 7 176 -2 216 -16z m411 -9 c-3 -7 -5 -2
-5 12 0 14 2 19 5 13 2 -7 2 -19 0 -25z m1377 10 c-23 -28 -36 -38 -48 -38 -6
0 3 14 19 30 33 35 57 41 29 8z m56 2 c12 -7 12 -12 -4 -29 -18 -20 -66 -30
-66 -14 0 8 41 53 49 53 3 0 13 -4 21 -10z m-404 -29 c-9 -10 -28 -18 -41 -17
-19 1 -21 4 -14 19 5 9 14 17 19 17 5 0 7 -8 3 -17 -5 -14 -1 -13 18 4 27 27
40 22 15 -6z m444 16 c0 -11 -41 -49 -47 -44 -7 8 25 47 39 47 4 0 8 -2 8 -3z
m15 -27 c-10 -11 -23 -20 -28 -20 -6 0 0 11 13 25 27 29 42 25 15 -5z m-537 3
c-8 -10 -26 -11 -70 -4 -5 0 -8 4 -8 9 0 4 20 7 44 7 33 0 42 -3 34 -12z m582
10 c0 -10 -32 -43 -42 -43 -5 0 -1 11 8 25 15 23 34 33 34 18z m11 -36 c-29
-30 -39 -12 -10 19 14 15 25 20 27 14 3 -7 -5 -21 -17 -33z m49 26 c-1 -14
-40 -56 -47 -49 -4 3 4 17 17 31 25 26 30 30 30 18z m30 -11 c0 -5 -11 -19
-25 -32 -28 -26 -33 -16 -9 18 15 22 34 30 34 14z m20 -22 c-12 -22 -29 -34
-37 -27 -7 8 30 56 40 50 4 -2 3 -13 -3 -23z m-485 -22 c-84 -93 -98 -111 -80
-98 11 8 29 26 41 40 71 81 83 94 90 87 4 -4 -3 -19 -17 -33 -13 -14 -24 -37
-24 -50 -1 -22 3 -21 48 23 28 27 47 40 44 31 -8 -22 6 -23 23 -3 7 9 15 13
18 11 2 -3 -23 -37 -58 -76 -34 -38 -57 -70 -51 -70 6 0 11 3 11 8 0 4 29 39
65 77 110 120 71 54 -52 -86 -64 -74 -106 -124 -92 -112 13 12 69 74 124 137
55 63 106 115 114 115 10 1 7 -8 -10 -26 -23 -27 -23 -27 8 1 62 56 44 17 -32
-68 -42 -47 -70 -83 -63 -80 7 3 44 42 81 85 58 67 72 79 90 73 12 -4 30 -8
40 -8 22 0 22 -2 -13 -39 -35 -38 -49 -32 -19 9 28 37 -55 -46 -110 -110 -31
-35 -39 -51 -30 -57 10 -6 10 -11 0 -23 -18 -21 -35 -20 -27 2 4 9 -12 -4 -34
-30 -41 -48 -68 -63 -56 -32 5 14 4 15 -8 5 -10 -8 -21 -9 -41 -1 -16 6 -41
12 -57 14 -16 2 -39 13 -51 24 -12 11 -39 23 -60 26 l-38 7 63 70 c66 74 102
119 96 119 -2 0 -41 -43 -87 -95 -58 -66 -89 -94 -99 -90 -9 3 -19 0 -24 -7
-6 -10 -8 -9 -8 2 0 18 209 254 217 246 5 -5 -159 -200 -178 -212 -5 -3 -9
-10 -9 -16 0 -6 9 0 21 13 163 190 202 229 232 229 l31 0 -29 -32z m1375 24
c0 -4 -14 -24 -31 -45 -30 -36 -30 -37 -57 -20 -15 10 -29 20 -32 23 -7 8 -43
5 -58 -4 -7 -4 -16 -5 -19 -2 -3 3 -12 1 -20 -6 -21 -17 -29 0 -10 20 15 14
19 15 26 3 6 -9 11 -10 15 -3 4 6 22 10 42 8 19 -1 37 1 40 6 3 4 10 8 16 8 7
0 6 -6 -2 -15 -18 -21 -7 -19 20 5 13 12 30 18 37 16 7 -3 15 -1 18 4 7 12 15
13 15 2z m-1324 -49 c-38 -35 -46 -20 -10 18 16 17 30 25 33 18 2 -6 -9 -22
-23 -36z m-156 27 c0 -5 -3 -10 -7 -10 -5 -1 -42 -41 -83 -90 -41 -49 -78 -89
-82 -89 -17 -2 -5 17 48 77 67 74 65 83 -3 11 -26 -28 -49 -46 -51 -41 -2 6
10 23 25 39 15 17 43 47 61 67 33 37 58 44 32 9 -8 -10 -1 -6 15 10 31 28 45
34 45 17z m1180 2 c0 -11 -34 -42 -46 -42 -19 0 -27 19 -15 34 11 13 61 19 61
8z m-1300 -11 c0 -4 -13 -20 -30 -36 -16 -16 -30 -24 -30 -18 0 6 7 16 15 23
8 7 15 17 15 22 0 6 -7 5 -15 -2 -14 -11 -22 -1 -10 12 8 8 55 7 55 -1z m706
-18 c-10 -10 -19 5 -10 18 6 11 8 11 12 0 2 -7 1 -15 -2 -18z m618 15 c-16
-28 -27 -38 -36 -32 -5 3 -2 14 8 25 19 21 39 26 28 7z m26 -13 c-13 -14 -26
-23 -28 -20 -7 7 29 45 41 45 6 0 0 -11 -13 -25z m-1320 8 c-1 -5 -21 -28 -46
-53 -53 -52 -55 -42 -5 19 31 38 52 52 51 34z m566 -26 c21 8 17 -11 -9 -35
-15 -14 -30 -19 -45 -15 l-23 6 28 29 c15 16 29 25 31 19 2 -5 10 -7 18 -4z
m44 -15 c0 -12 -39 -46 -45 -41 -6 7 24 49 36 49 5 0 9 -4 9 -8z m30 0 c0 -16
-49 -66 -56 -59 -4 4 5 21 21 37 31 32 35 35 35 22z m762 -36 c-62 -79 -102
-116 -89 -82 4 10 1 13 -9 9 -17 -6 -18 8 -1 26 10 11 8 11 -12 1 -19 -10 -22
-10 -16 2 14 23 48 58 58 58 6 0 2 -10 -9 -22 l-19 -23 25 21 c14 12 31 25 39
29 17 10 8 -8 -23 -45 -11 -14 0 -6 24 17 47 45 65 50 32 9z m-759 -11 c-26
-32 -43 -44 -43 -29 0 13 46 63 58 63 7 1 1 -14 -15 -34z m52 -18 c4 -35 0
-48 -15 -62 -27 -25 -38 -10 -14 18 10 13 6 10 -9 -6 -30 -30 -50 -30 -26 0
12 15 12 16 -3 10 -10 -3 -18 -4 -18 -1 0 10 73 95 77 90 2 -2 6 -24 8 -49z
m755 46 c0 -3 -8 -16 -17 -27 -18 -21 -18 -21 2 -4 22 19 69 14 58 -6 -3 -6 0
-6 8 2 7 6 20 12 28 12 10 0 5 -10 -14 -30 -16 -17 -35 -28 -41 -26 -7 3 -21
-6 -33 -18 -13 -14 -34 -23 -53 -24 l-31 -1 34 35 c18 19 30 34 26 34 -4 0
-23 -18 -43 -40 -20 -22 -41 -40 -46 -40 -12 0 5 23 62 88 42 48 60 61 60 45z
m-3475 -8 c-21 -8 -105 -12 -105 -5 0 3 26 7 58 8 31 1 53 -1 47 -3z m3280
-15 c-3 -5 -11 -10 -16 -10 -6 0 -7 5 -4 10 3 6 11 10 16 10 6 0 7 -4 4 -10z
m24 -16 c-13 -14 -25 -20 -27 -14 -5 15 17 40 36 40 12 0 10 -6 -9 -26z m291
9 c0 -4 -10 -18 -22 -32 -14 -16 -8 -13 13 7 36 33 56 42 43 20 -5 -9 -2 -8 9
1 28 23 32 3 6 -27 -15 -17 -10 -15 14 7 47 44 49 23 1 -27 -22 -22 -37 -32
-40 -25 -3 7 -12 9 -21 6 -10 -4 -14 -2 -10 4 4 7 0 9 -10 7 -10 -2 -25 0 -33
5 -12 8 -11 14 10 35 23 25 40 33 40 19z m-1100 -23 c0 -5 -5 -10 -11 -10 -5
0 -7 5 -4 10 3 6 8 10 11 10 2 0 4 -4 4 -10z m70 -9 c0 -5 -7 -14 -15 -21 -12
-10 -18 -8 -32 6 -17 16 -17 17 -1 11 10 -3 20 -2 23 3 8 12 25 13 25 1z
m-1309 -23 c0 -10 2 -10 6 0 2 6 9 12 15 12 6 0 8 -7 4 -15 -3 -8 -1 -15 5
-15 6 0 8 -7 5 -16 -3 -8 -2 -12 4 -9 6 3 10 0 10 -8 0 -19 43 -54 59 -49 10
3 11 0 5 -9 -6 -11 -3 -10 11 1 15 12 19 12 23 2 3 -10 11 -7 29 10 l25 23 -7
-25 c-7 -25 -7 -25 9 -4 11 16 25 21 48 20 18 -1 42 4 53 11 11 7 35 13 53 15
18 1 40 10 49 20 16 18 63 25 63 9 0 -5 -7 -14 -15 -21 -23 -19 -18 -32 8 -19
20 11 21 11 8 -4 -9 -12 -10 -17 -2 -17 7 0 10 -4 6 -10 -3 -5 -13 -7 -23 -4
-13 5 -14 4 -3 -4 11 -8 10 -15 -5 -41 -21 -36 -36 -43 -66 -32 -14 5 -17 10
-10 15 7 4 12 12 12 18 0 5 -8 0 -18 -12 -17 -21 -20 -22 -43 -8 -13 8 -36 14
-51 13 -16 0 -28 2 -28 6 0 11 -43 -2 -62 -19 -16 -13 -22 -11 -20 9 1 11 -70
9 -84 -2 -11 -9 -14 -8 -14 4 0 8 -6 17 -12 20 -10 3 -10 8 2 23 14 18 14 18
-6 1 -17 -14 -27 -15 -48 -8 -14 6 -26 13 -26 16 0 8 33 59 45 68 6 5 3 7 -7
3 -10 -3 -18 -1 -18 3 0 5 -3 16 -6 25 -3 9 -1 16 5 16 6 0 11 -6 12 -12z
m1317 -8 c-13 -20 -28 -27 -28 -12 0 10 22 32 32 32 5 0 3 -9 -4 -20z m-88
-10 c0 -5 -5 -10 -11 -10 -5 0 -7 5 -4 10 3 6 8 10 11 10 2 0 4 -4 4 -10z
m110 3 c0 -9 -58 -73 -66 -73 -6 0 4 17 31 53 20 26 35 35 35 20z m140 -8 c-7
-8 -17 -15 -22 -15 -6 0 -5 7 2 15 7 8 17 15 22 15 6 0 5 -7 -2 -15z m-2752
-12 c-10 -2 -26 -2 -35 0 -10 3 -2 5 17 5 19 0 27 -2 18 -5z m2522 -3 c0 -5
-5 -10 -11 -10 -5 0 -7 5 -4 10 3 6 8 10 11 10 2 0 4 -4 4 -10z m91 -23 c-13
-13 -26 -3 -16 12 3 6 11 8 17 5 6 -4 6 -10 -1 -17z m-2686 -21 c8 3 15 -7 19
-27 3 -18 14 -38 25 -45 13 -9 20 -32 25 -76 9 -84 10 -87 29 -132 10 -21 17
-41 17 -45 0 -4 7 -16 15 -26 8 -11 25 -36 38 -55 12 -19 48 -55 79 -80 l57
-45 -52 -16 c-73 -23 -122 -45 -136 -62 -9 -12 -20 -13 -54 -5 -28 6 -54 6
-78 -1 -28 -8 -49 -7 -95 5 -32 9 -65 16 -73 17 -7 0 -23 20 -33 45 -45 101
-176 209 -302 247 -45 14 -93 25 -106 25 -37 0 -17 10 24 12 22 1 32 4 25 9
-18 11 5 59 28 60 46 4 90 -2 118 -15 58 -27 108 -46 121 -46 7 0 16 9 19 21
6 19 8 19 23 5 10 -9 40 -36 67 -60 36 -32 44 -44 30 -43 -37 4 -27 -30 22
-78 26 -25 66 -64 89 -86 28 -29 50 -41 73 -43 19 -1 37 -10 43 -19 5 -9 15
-17 23 -17 45 0 13 66 -37 75 -22 4 -60 32 -113 81 -77 71 -79 74 -45 67 65
-13 114 -9 118 8 2 13 -9 18 -58 23 -51 6 -68 13 -103 44 -23 20 -44 38 -46
39 -2 1 7 11 20 21 22 19 23 20 9 78 -8 33 -13 66 -12 74 4 17 61 69 77 70 6
0 -3 -11 -19 -23 -16 -13 -27 -30 -24 -38 3 -8 -2 -19 -9 -24 -12 -9 -10 -11
6 -12 23 -2 37 12 22 22 -18 10 0 35 40 56 22 11 39 24 39 30 0 6 9 4 21 -5
12 -8 27 -12 34 -10z m2535 14 c0 -5 -4 -10 -10 -10 -5 0 -10 5 -10 10 0 6 5
10 10 10 6 0 10 -4 10 -10z m214 -86 c-38 -41 -87 -96 -110 -121 -25 -29 -45
-44 -53 -39 -20 13 -73 -54 -67 -85 3 -15 -1 -34 -8 -44 -11 -16 -15 -16 -51
4 -65 35 -99 24 -164 -51 -26 -30 -30 -39 -18 -44 19 -7 74 21 90 46 13 22 47
26 64 9 17 -17 78 -27 98 -17 20 12 48 75 39 89 -8 14 25 49 48 49 11 0 23
-11 28 -25 11 -30 26 -32 42 -5 15 23 24 24 60 8 22 -11 25 -17 21 -48 -5 -32
-1 -40 32 -69 32 -27 44 -32 79 -29 l41 3 11 -68 c12 -72 36 -115 73 -132 14
-6 20 -16 18 -27 -3 -9 1 -26 9 -37 10 -13 11 -27 5 -43 -6 -16 -5 -34 4 -55
11 -25 11 -39 2 -63 -15 -40 -23 -38 -32 8 -3 20 -16 68 -27 106 -18 61 -30
78 -87 135 -68 68 -145 115 -241 147 -71 24 -243 24 -313 0 -128 -43 -243
-127 -293 -212 -14 -24 -29 -44 -34 -44 -11 0 -20 26 -12 34 3 4 5 26 3 49 -1
23 3 56 10 72 10 27 14 79 18 262 1 40 4 51 15 47 7 -3 20 1 27 8 17 17 58 9
73 -14 8 -13 5 -24 -12 -48 -19 -25 -21 -34 -11 -53 41 -80 115 -104 144 -46
15 28 15 33 1 54 -20 30 -20 41 -2 25 18 -14 62 4 80 32 16 26 -20 61 -56 54
-34 -7 -36 8 -5 29 28 18 64 10 126 -29 37 -24 46 -25 79 -16 35 9 67 35 86
68 5 8 1 21 -10 33 -9 10 -14 22 -9 27 4 4 10 1 12 -6 4 -10 11 -8 29 9 27 26
32 16 7 -15 -9 -12 10 6 43 39 32 33 69 73 81 88 13 15 28 27 34 27 7 0 4 -9
-6 -20 -27 -29 -10 -24 20 6 14 14 29 23 32 20 3 -3 -25 -40 -63 -82z m-167
61 c-2 -5 -11 -10 -19 -10 -8 0 -23 -6 -32 -14 -23 -19 -33 -5 -12 18 17 19
69 24 63 6z m64 -48 c-25 -24 -32 -27 -27 -12 6 17 4 17 -18 -4 -32 -30 -44
-23 -15 8 12 12 27 20 34 17 7 -2 21 4 31 15 9 10 20 17 23 14 3 -3 -10 -20
-28 -38z m-661 18 c0 -10 -10 -15 -27 -15 l-28 0 25 14 c14 8 26 14 28 15 1 1
2 -6 2 -14z m434 -11 c4 -12 2 -15 -9 -10 -8 3 -15 1 -15 -4 0 -6 -7 -10 -17
-10 -14 0 -14 2 2 20 22 24 31 25 39 4z m376 -3 c-11 -21 -29 -36 -35 -29 -3
2 2 14 11 26 19 28 39 30 24 3z m-929 -178 c-1 -98 -6 -194 -11 -213 -26 -102
-37 -134 -41 -122 -2 7 -19 14 -36 14 -22 1 -30 5 -26 14 3 8 1 14 -5 14 -5 0
-10 18 -10 40 -1 37 3 42 38 60 43 22 80 64 80 91 0 31 -40 21 -52 -12 -4 -9
-27 -30 -52 -47 l-45 -31 21 52 c11 29 23 70 25 92 5 42 27 75 49 75 23 0 45
44 36 70 -6 15 -3 33 7 55 9 18 18 31 19 30 2 -2 3 -84 3 -182z m609 183 c0
-3 -4 -8 -10 -11 -5 -3 -10 -1 -10 4 0 6 5 11 10 11 6 0 10 -2 10 -4z m88 -33
c-9 -9 -26 -17 -37 -18 -11 -1 -39 -22 -61 -48 -50 -56 -45 -63 6 -9 22 23 31
29 25 15 -12 -24 -14 -40 -5 -30 4 3 13 -1 21 -9 14 -13 13 -17 -2 -34 -19
-21 -41 -28 -30 -10 3 6 -1 7 -9 4 -19 -7 -21 7 -3 26 6 8 3 7 -9 -3 -17 -14
-23 -15 -40 -3 -10 7 -36 19 -56 25 -21 7 -38 16 -38 20 0 17 47 49 72 49 l28
0 -21 -32 c-20 -29 -19 -29 12 5 19 20 48 39 64 43 51 11 54 12 61 19 4 4 14
7 23 7 13 0 13 -2 -1 -17z m-577 -153 c-1 -63 -3 -124 -5 -135 -3 -11 -5 -35
-5 -52 -1 -22 -6 -33 -16 -33 -17 0 -20 26 -4 36 8 4 8 9 0 17 -7 7 -7 14 0
24 8 9 8 17 0 27 -9 11 -8 15 6 20 15 6 15 8 1 23 -13 13 -14 20 -5 36 9 15 9
21 0 24 -7 3 -13 11 -13 18 0 7 6 15 13 18 9 3 9 9 -1 27 -11 19 -11 24 3 34
16 12 16 13 0 29 -14 15 -15 20 -4 33 11 14 14 13 22 -8 4 -12 8 -75 8 -138z
m90 134 c-20 -25 -20 -26 -1 -46 15 -16 27 -20 55 -15 32 5 34 4 24 -14 -7
-15 -20 -19 -47 -19 -20 1 -46 0 -57 -2 -18 -3 -20 4 -23 56 -3 55 -2 58 17
53 12 -3 24 -1 27 4 3 5 10 9 15 9 6 0 1 -12 -10 -26z m698 -21 l-24 -26 28
18 c31 20 36 7 7 -20 -11 -10 -20 -23 -20 -29 0 -6 7 0 16 12 20 29 30 28 43
-5 6 -16 16 -36 23 -45 11 -15 9 -21 -9 -40 -31 -31 -42 -14 -12 20 l24 27
-27 -24 c-33 -29 -49 -21 -22 11 l19 23 -25 -22 c-17 -15 -33 -20 -48 -16 -22
5 -22 6 -5 27 13 15 10 14 -12 -5 -19 -16 -39 -24 -53 -21 -23 3 -23 4 -6 23
9 10 13 19 8 19 -5 0 -15 -9 -22 -20 -12 -20 -32 -27 -32 -12 1 13 81 95 87
88 3 -3 -2 -16 -12 -28 -10 -13 6 2 36 33 30 30 56 51 58 47 2 -5 -7 -21 -20
-35z m-549 33 c0 -3 -4 -8 -10 -11 -5 -3 -10 -1 -10 4 0 6 5 11 10 11 6 0 10
-2 10 -4z m17 -24 c-10 -10 -17 -22 -17 -26 0 -4 11 6 24 21 13 15 28 25 32
21 4 -4 -12 -28 -35 -53 -22 -24 -41 -38 -41 -30 0 7 4 16 10 20 5 3 7 12 3
21 -5 15 26 59 35 49 3 -3 -2 -13 -11 -23z m-711 2 c-3 -8 -2 -13 3 -9 5 3 16
2 25 -1 12 -4 14 -15 10 -42 -3 -21 -6 -47 -8 -60 -2 -13 -21 -42 -42 -65 -30
-32 -31 -35 -6 -13 33 31 40 29 21 -6 -7 -12 -7 -18 -1 -14 6 3 12 1 14 -5 2
-6 12 0 23 12 11 12 14 19 8 15 -21 -12 -14 9 13 40 31 36 51 70 35 60 -13 -9
-14 4 -1 24 5 9 5 19 -1 26 -6 8 -5 14 6 18 8 3 15 1 15 -4 0 -5 8 -6 17 -3
13 5 15 2 10 -12 -6 -14 -5 -16 6 -6 11 8 22 8 46 0 l32 -11 -20 -22 c-11 -12
-27 -38 -36 -59 -8 -20 -21 -37 -28 -37 -8 0 -24 -11 -37 -25 -18 -19 -20 -25
-8 -25 22 0 31 -30 15 -49 -25 -29 -29 -41 -11 -34 13 5 15 2 9 -18 -5 -13 -9
-38 -9 -55 -1 -22 -12 -41 -34 -63 -28 -25 -31 -33 -20 -44 7 -8 22 -12 33 -9
16 4 17 2 8 -8 -8 -9 -8 -20 -1 -42 6 -16 8 -32 5 -35 -3 -3 0 -12 8 -20 17
-17 18 -23 6 -41 -10 -17 -74 -26 -65 -9 5 9 3 9 -7 0 -14 -14 -69 -18 -69 -5
0 4 3 12 8 18 4 5 -1 1 -11 -10 -16 -17 -40 -25 -89 -29 -9 -1 -15 -3 -13 -5
4 -5 -63 -62 -72 -62 -3 0 -2 8 2 17 4 12 -3 9 -22 -10 -35 -33 -54 -36 -27
-4 12 14 7 12 -12 -6 -28 -25 -34 -27 -60 -15 -16 6 -31 13 -33 15 -3 2 6 15
20 31 18 20 15 19 -12 -5 -34 -32 -57 -44 -44 -23 9 15 -4 12 -21 -5 -27 -27
-38 -16 -13 13 19 22 17 21 -11 -5 -31 -28 -37 -30 -54 -18 -10 8 -24 16 -30
18 -6 3 1 17 17 34 15 16 27 32 27 36 0 4 -13 -7 -30 -25 -24 -27 -32 -30 -39
-19 -11 16 -4 41 11 41 6 0 5 -6 -2 -15 -22 -26 -4 -16 21 12 13 15 16 21 7
14 -12 -9 -18 -10 -18 -2 0 6 5 12 10 12 21 3 27 7 78 58 29 28 57 49 61 46 5
-2 14 2 21 11 7 8 19 13 27 10 8 -3 29 11 49 33 50 56 81 96 66 87 -17 -10
-15 5 4 32 8 12 13 26 10 31 -7 11 20 35 31 28 4 -3 14 1 21 9 7 8 9 14 4 14
-14 0 -21 35 -10 54 5 9 17 16 26 16 25 0 41 18 35 41 -3 12 -14 19 -29 19
-28 0 -31 16 -6 44 16 20 16 20 -2 6 -18 -14 -19 -13 -11 5 4 11 10 33 13 50
7 39 31 58 50 39 19 -20 30 -17 55 11 25 28 42 33 33 9z m784 1 c0 -3 -17 -24
-37 -47 -35 -41 -34 -40 15 6 28 28 54 48 56 45 5 -5 -36 -48 -91 -96 -18 -16
-34 -40 -36 -55 -4 -39 -16 -46 -13 -8 2 22 -2 29 -11 26 -20 -8 -2 21 52 82
41 46 65 63 65 47z m-2727 -30 c-3 -9 -8 -14 -10 -11 -3 3 -2 9 2 15 9 16 15
13 8 -4z m3279 -157 c-14 -16 -21 -28 -14 -28 6 0 18 10 26 22 9 12 18 19 22
15 7 -6 -56 -87 -68 -87 -9 0 -10 4 -12 53 -2 22 5 40 22 59 23 25 26 26 38
10 11 -14 9 -21 -14 -44z m-185 6 c-3 -3 -12 -4 -19 -1 -8 3 -5 6 6 6 11 1 17
-2 13 -5z m240 -28 c-4 -11 -1 -13 10 -9 13 5 13 3 5 -14 -16 -29 -42 -48 -69
-48 -12 -1 -23 1 -23 3 0 2 14 21 32 43 31 39 55 52 45 25z m-720 -37 c-3 -11
0 -16 8 -13 14 6 29 -23 15 -31 -8 -5 -50 40 -50 55 0 4 7 7 16 7 10 0 14 -7
11 -18z m743 -14 c-7 -8 -17 -15 -23 -15 -5 0 -2 9 8 20 21 23 35 19 15 -5z
m-1660 -4 c-1 -17 -18 -30 -38 -28 -26 2 -27 5 -6 28 14 16 44 16 44 0z m-170
-11 c8 -5 16 -14 16 -20 1 -5 2 -14 3 -20 0 -5 12 -17 27 -26 18 -13 28 -14
36 -6 8 8 15 7 24 -5 13 -19 8 -46 -7 -37 -5 3 -7 9 -5 13 3 4 -13 6 -35 5
-25 -1 -37 2 -32 9 3 6 1 7 -5 3 -6 -4 -8 -14 -5 -23 5 -12 2 -15 -10 -10 -14
5 -16 2 -11 -18 4 -18 2 -25 -9 -25 -19 0 -39 24 -29 35 4 4 -3 2 -15 -4 -18
-9 -23 -9 -23 0 0 8 -7 6 -19 -5 -13 -12 -24 -14 -42 -8 -13 5 -31 7 -39 4 -8
-3 8 20 35 50 28 31 55 54 62 52 7 -2 10 3 6 13 -5 12 -2 15 10 10 8 -3 21 1
27 9 14 16 20 17 40 4z m1850 1 c0 -6 -4 -13 -10 -16 -5 -3 -10 1 -10 9 0 9 5
16 10 16 6 0 10 -4 10 -9z m12 -33 c-7 -7 -12 -8 -12 -2 0 14 12 26 19 19 2
-3 -1 -11 -7 -17z m458 -5 c0 -3 -8 -16 -17 -27 -17 -20 -17 -20 1 -6 16 13
19 13 15 1 -3 -8 -11 -17 -17 -19 -18 -6 -26 26 -12 43 13 15 30 20 30 8z
m-1450 -85 c0 -5 0 -14 0 -20 0 -10 -3 -10 -9 0 -12 20 -46 10 -46 -13 0 -15
6 -19 23 -17 18 1 22 -2 18 -15 -5 -19 -12 -58 -21 -111 -6 -33 19 -102 36
-102 5 0 9 -12 9 -26 0 -22 -2 -25 -15 -14 -8 7 -30 20 -48 30 -17 9 -37 27
-43 39 -6 11 -14 18 -17 14 -7 -6 0 46 9 76 3 8 7 46 10 85 4 44 11 75 20 82
15 12 75 5 74 -8z m690 -31 c198 -90 299 -266 270 -470 -25 -173 -185 -325
-377 -355 -114 -19 -256 10 -318 64 -16 15 -46 37 -66 50 -110 70 -183 297
-132 412 9 20 15 42 14 49 -1 7 7 18 17 24 11 7 17 20 15 29 -5 19 81 120 103
120 8 0 14 7 14 15 0 8 7 15 15 15 9 0 25 8 36 19 11 10 48 28 82 40 88 30
247 25 327 -12z m327 -9 c-3 -8 -6 -5 -6 6 -1 11 2 17 5 13 3 -3 4 -12 1 -19z
m-2063 -34 c-1 -15 -10 -34 -20 -43 -15 -15 -16 -15 -11 1 4 12 2 15 -9 11
-20 -8 -17 10 6 35 27 29 38 28 34 -4z m136 -1 c14 -6 43 -9 65 -6 l39 4 -26
-21 c-30 -23 -45 -26 -32 -7 5 7 2 6 -6 -3 -40 -41 -123 -113 -115 -100 7 13
6 13 -7 2 -13 -11 -17 -9 -23 15 -3 15 -12 31 -18 35 -7 4 3 6 22 4 21 -2 40
2 49 10 16 16 23 74 9 74 -4 0 -5 5 -1 11 3 6 9 7 13 2 3 -4 17 -13 31 -20z
m150 23 c0 -2 -8 -10 -17 -17 -16 -13 -17 -12 -4 4 13 16 21 21 21 13z m525
-28 c34 -3 32 -21 -4 -24 -28 -3 -36 -11 -45 -41 -9 -27 32 -58 64 -48 26 8
26 35 0 35 -11 0 -20 4 -20 9 0 5 15 9 34 8 32 -1 34 -3 33 -34 -1 -19 -6 -32
-11 -30 -14 5 -65 -20 -92 -44 -20 -19 -21 -19 -16 11 2 17 -1 36 -7 43 -8 11
-10 117 -2 146 1 2 9 -3 19 -12 9 -8 31 -17 47 -19z m-1018 -74 c3 -8 11 -14
19 -14 19 0 18 10 -3 26 -15 11 -12 11 22 3 22 -5 53 -12 68 -15 32 -8 50 -38
71 -117 20 -78 41 -112 82 -138 34 -21 41 -22 94 -11 78 16 75 17 128 -31 26
-24 58 -51 72 -61 25 -18 25 -18 -27 -11 -33 4 -59 2 -75 -6 -30 -16 -68 -57
-68 -73 0 -8 -11 -17 -25 -20 -14 -4 -25 -10 -25 -14 0 -13 -94 -7 -117 8 -18
12 -24 11 -46 -3 -14 -9 -28 -29 -32 -45 -5 -25 -14 -32 -58 -46 -47 -15 -53
-15 -63 -1 -9 12 -13 13 -16 3 -3 -9 -23 -12 -64 -11 -84 2 -166 10 -186 18
-23 9 -13 26 10 18 9 -3 14 -2 9 2 -4 5 -17 9 -30 10 -12 1 -22 7 -22 12 0 6
-3 15 -7 19 -15 14 -8 49 18 101 31 61 28 85 -18 138 -34 38 -101 79 -112 68
-3 -4 -6 -1 -6 6 0 6 8 14 18 18 9 3 25 13 34 21 19 16 76 11 123 -10 28 -13
59 -64 44 -74 -5 -3 -6 -10 -3 -16 4 -6 2 -13 -4 -17 -7 -4 -7 -22 -2 -53 7
-36 6 -56 -6 -84 -18 -42 -14 -59 11 -59 12 0 21 -9 25 -24 5 -22 14 -26 72
-36 36 -6 71 -9 77 -7 32 11 -10 52 -52 52 -51 0 -81 37 -65 80 5 13 9 39 10
57 l1 33 32 -24 c17 -13 60 -37 96 -54 59 -26 74 -29 140 -25 41 3 85 1 98 -4
32 -12 81 11 81 38 0 18 -8 19 -123 17 l-123 -2 -71 36 c-69 35 -122 69 -151
96 -26 24 17 27 46 3 15 -12 44 -29 64 -38 21 -9 35 -19 33 -24 -3 -4 7 -4 22
0 16 4 29 14 31 22 3 15 -46 49 -71 49 -9 0 -22 8 -29 18 -7 10 -21 21 -31 25
-13 5 -16 13 -11 32 5 20 1 27 -20 36 -31 15 -31 15 -6 73 14 33 25 46 39 46
11 0 23 5 26 10 8 13 44 -5 52 -26z m-273 0 c26 -26 35 -64 16 -64 -5 0 -10 5
-10 11 0 7 -10 20 -22 30 -11 11 -18 19 -13 19 4 0 2 7 -5 15 -21 26 6 16 34
-11z m-372 -25 c16 -11 28 -14 30 -8 2 6 12 0 23 -12 18 -20 18 -22 2 -16 -16
6 -16 4 -2 -23 8 -16 21 -27 28 -25 7 3 13 -4 13 -20 1 -14 -2 -23 -6 -20 -5
3 -6 -3 -4 -12 4 -14 -6 -22 -38 -35 -58 -24 -88 -23 -88 1 0 10 -8 29 -19 42
-16 21 -21 21 -49 10 -48 -20 -62 -41 -48 -73 8 -19 16 -24 25 -18 10 5 25 -3
48 -25 30 -29 38 -32 60 -24 48 18 36 -1 -13 -21 -117 -49 -159 -86 -152 -132
4 -32 38 -37 38 -6 0 28 44 73 80 82 23 6 23 6 5 -5 -57 -33 -75 -61 -75 -115
0 -35 -6 -58 -17 -71 -30 -34 -107 -90 -133 -98 -14 -4 -36 -16 -49 -27 -24
-18 -24 -18 -45 14 -58 88 -58 88 -44 127 6 20 11 40 10 45 -2 4 18 30 44 58
25 27 62 83 82 126 30 65 36 91 40 164 3 51 8 85 14 82 5 -3 18 2 29 12 10 9
19 13 19 9 0 -4 8 -1 18 8 11 10 30 15 55 12 31 -2 37 0 33 12 -8 20 49 9 86
-18z m278 21 c0 -5 -5 -10 -11 -10 -5 0 -7 5 -4 10 3 6 8 10 11 10 2 0 4 -4 4
-10z m551 -37 c13 -16 12 -17 -3 -4 -17 13 -22 21 -14 21 2 0 10 -8 17 -17z
m-618 -8 c-3 -9 -8 -14 -10 -11 -3 3 -2 9 2 15 9 16 15 13 8 -4z m624 -37 c-3
-8 -6 -5 -6 6 -1 11 2 17 5 13 3 -3 4 -12 1 -19z m-430 6 c-3 -3 -12 -4 -19
-1 -8 3 -5 6 6 6 11 1 17 -2 13 -5z m-210 -66 c-3 -7 -5 -2 -5 12 0 14 2 19 5
13 2 -7 2 -19 0 -25z m1318 -18 c-3 -5 -11 -10 -16 -10 -6 0 -7 5 -4 10 3 6
11 10 16 10 6 0 7 -4 4 -10z m-115 -9 c0 -5 -12 -24 -26 -43 -14 -18 -8 -13
15 12 22 24 43 41 47 37 10 -10 -63 -83 -97 -97 -15 -7 -35 -23 -43 -36 -12
-17 -23 -22 -46 -19 -38 5 -52 14 -44 27 4 6 2 8 -3 5 -6 -4 -17 0 -24 9 -7 8
-8 14 -3 12 5 -1 18 3 29 9 11 6 22 11 25 10 3 -1 19 9 35 21 17 12 35 23 40
23 6 1 21 10 34 20 25 20 61 26 61 10z m78 -3 c-2 -6 -15 -18 -28 -27 -21 -14
-23 -14 -16 -1 16 27 28 40 38 40 5 0 8 -5 6 -12z m182 -8 c0 -5 -2 -10 -4
-10 -3 0 -8 5 -11 10 -3 6 -1 10 4 10 6 0 11 -4 11 -10z m-1760 -15 c-7 -8
-18 -15 -24 -15 -6 0 -2 7 8 15 25 19 32 19 16 0z m1710 -25 c0 -5 -9 -10 -20
-10 -11 0 -20 5 -20 10 0 6 9 10 20 10 11 0 20 -4 20 -10z m-1287 -77 c28 -40
29 -42 13 -73 -8 -17 -21 -58 -27 -91 -10 -53 -14 -59 -36 -59 -13 0 -22 -4
-18 -10 3 -5 13 -6 23 -3 15 6 16 5 2 -13 -46 -59 -91 -84 -152 -84 -16 0 -28
-4 -28 -10 0 -5 10 -10 23 -10 16 0 11 -5 -20 -20 -24 -10 -43 -24 -43 -30 0
-20 -68 -40 -137 -40 -43 0 -79 -6 -98 -16 -39 -20 -121 -21 -165 -1 l-34 15
49 31 c27 17 58 34 69 37 22 7 107 74 139 108 20 22 32 60 23 74 -3 6 -3 23 0
39 4 21 17 35 49 52 51 27 66 51 32 51 -16 1 -10 7 23 23 35 17 45 27 45 47 0
20 5 25 33 27 29 3 32 0 33 -27 2 -33 2 -33 12 -73 10 -38 -18 -84 -60 -98
-44 -14 -42 -29 3 -29 28 0 44 8 70 34 36 36 41 58 25 113 -12 40 0 88 22 88
8 0 19 3 22 7 15 15 79 -20 108 -59z m2624 25 c-3 -7 -5 -2 -5 12 0 14 2 19 5
13 2 -7 2 -19 0 -25z m-1410 6 c-3 -3 -12 -4 -19 -1 -8 3 -5 6 6 6 11 1 17 -2
13 -5z m378 -129 c10 -42 32 -92 55 -127 l37 -56 -33 -7 c-18 -3 -37 -13 -42
-21 -6 -11 -11 11 -16 65 -3 45 -12 93 -19 109 -14 32 -56 82 -69 82 -10 0
-38 25 -38 34 0 10 95 11 101 1 4 -5 14 -41 24 -80z m1246 78 c9 -3 39 -15 65
-29 37 -17 43 -23 26 -24 -13 0 -33 -5 -44 -11 -18 -10 -24 -8 -35 7 -7 11
-25 32 -40 48 -23 24 -24 28 -8 21 11 -4 27 -9 36 -12z m-181 -13 c0 -5 -5
-10 -11 -10 -5 0 -7 5 -4 10 3 6 8 10 11 10 2 0 4 -4 4 -10z m76 -15 c29 -8
55 -24 63 -37 14 -22 14 -22 -10 -5 -13 9 -35 22 -49 27 -77 31 -79 38 -4 15z
m-1791 -45 c3 -5 2 -10 -4 -10 -5 0 -13 5 -16 10 -3 6 -2 10 4 10 5 0 13 -4
16 -10z m1770 -16 c17 -8 22 -12 12 -9 -27 7 -105 -41 -161 -99 -26 -28 -41
-40 -32 -26 21 33 54 105 62 137 6 22 10 24 48 18 22 -4 55 -14 71 -21z m-175
-219 c-15 -18 -34 -20 -24 -2 6 10 4 10 -7 0 -7 -7 -24 -13 -38 -13 -36 0 -12
21 28 25 17 1 34 5 38 9 13 12 16 -4 3 -19z m-3330 -29 c0 -3 -4 -8 -10 -11
-5 -3 -10 -1 -10 4 0 6 5 11 10 11 6 0 10 -2 10 -4z m2300 -10 c0 -2 -7 -7
-16 -10 -8 -3 -12 -2 -9 4 6 10 25 14 25 6z m-670 -16 c0 -5 -5 -10 -11 -10
-5 0 -7 5 -4 10 3 6 8 10 11 10 2 0 4 -4 4 -10z m1690 -2 c0 -9 3 -9 12 0 9 9
14 7 24 -6 10 -14 10 -20 -3 -34 -24 -26 -39 -22 -17 5 13 15 10 14 -11 -5
-26 -23 -41 -27 -110 -31 -48 -3 -94 0 -114 7 l-35 12 50 24 c33 17 70 25 113
27 35 2 66 5 69 8 9 9 22 5 22 -7z m558 -25 c-10 -2 -26 -2 -35 0 -10 3 -2 5
17 5 19 0 27 -2 18 -5z m-105 -10 c-7 -2 -19 -2 -25 0 -7 3 -2 5 12 5 14 0 19
-2 13 -5z m-3046 -45 c-3 -7 -5 -2 -5 12 0 14 2 19 5 13 2 -7 2 -19 0 -25z
m3246 15 c-7 -2 -21 -2 -30 0 -10 3 -4 5 12 5 17 0 24 -2 18 -5z m-906 -39
c44 -7 138 -6 203 1 40 5 43 4 25 -8 -11 -8 -27 -14 -35 -14 -81 -3 -169 -2
-185 0 -44 7 -74 20 -79 33 -4 11 -2 12 14 4 10 -5 36 -13 57 -16z m-2599 -11
c-8 -10 -18 -30 -22 -45 -5 -23 -10 -26 -28 -19 -31 11 -32 24 -4 54 29 31 81
40 54 10z m3022 -19 c0 -22 -18 -26 -29 -5 -15 27 -14 30 9 24 11 -3 20 -11
20 -19z m630 6 c34 -5 -61 -20 -140 -24 -127 -5 -168 9 -55 18 50 4 95 9 100
11 9 2 58 0 95 -5z m-1285 -60 c-3 -5 -17 -10 -31 -10 -13 0 -24 5 -24 10 0 6
14 10 31 10 17 0 28 -4 24 -10z m1123 -5 c-10 -8 -118 -14 -118 -6 0 6 21 11
48 13 42 3 78 -1 70 -7z M2672 6639 c-34 -10 -48 -29 -39 -53 8 -20 58 -8 64
15 3 11 14 19 24 19 11 0 19 7 19 15 0 17 -19 18 -68 4z M2675 6560 c-3 -5 3
-10 15 -10 12 0 18 5 15 10 -3 6 -10 10 -15 10 -5 0 -12 -4 -15 -10z M3966
5695 c-3 -8 2 -19 12 -24 10 -5 29 -32 42 -60 14 -31 30 -51 40 -51 26 0 28 8
13 53 -25 72 -91 123 -107 82z M4300 5646 c0 -2 7 -7 16 -10 8 -3 12 -2 9 4
-6 10 -25 14 -25 6z M4212 5627 c-8 -9 -5 -19 8 -37 15 -20 20 -22 34 -11 20
17 20 25 0 45 -19 19 -28 20 -42 3z M4287 5273 c-4 -3 -7 -11 -7 -17 0 -6 5
-5 12 2 6 6 9 14 7 17 -3 3 -9 2 -12 -2z M3916 5248 c-17 -24 -21 -48 -8 -48
8 0 72 58 72 66 0 15 -51 0 -64 -18z M3307 4993 c-25 -17 -37 -34 -37 -50 0
-12 5 -23 11 -23 18 0 49 20 49 32 0 6 8 20 17 30 29 33 1 41 -40 11z M3851
4946 c-15 -18 -27 -105 -36 -256 -10 -166 -13 -194 -32 -283 -14 -68 -23 -86
-60 -126 l-42 -46 -1 38 c0 21 -7 52 -16 69 -11 22 -14 43 -9 74 8 58 -16 60
-39 4 -22 -54 -20 -83 5 -98 19 -12 20 -20 15 -67 -5 -48 -3 -55 14 -60 15 -5
35 6 75 41 55 47 93 109 100 168 3 15 7 36 10 45 3 9 7 62 10 116 3 55 7 111
10 125 2 14 7 61 10 105 3 44 10 95 16 112 15 47 -4 70 -30 39z M3323 4888
c-6 -7 -13 -30 -16 -50 -5 -34 -4 -37 15 -34 18 2 22 11 25 49 4 46 -5 59 -24
35z M3314 4706 c4 -37 2 -85 -5 -113 -19 -84 -12 -290 11 -333 21 -40 45 -18
30 26 -15 44 -18 251 -5 315 7 31 10 81 7 112 -4 49 -7 57 -25 57 -18 0 -19
-4 -13 -64z M2816 5460 c-11 -3 -15 -9 -10 -13 10 -6 42 9 34 16 -3 3 -14 1
-24 -3z M2370 5125 c0 -21 22 -68 41 -87 14 -13 19 -14 28 -5 7 9 1 26 -21 60
-31 47 -48 59 -48 32z M1197 4553 c-4 -3 -7 -11 -7 -17 0 -6 5 -5 12 2 6 6 9
14 7 17 -3 3 -9 2 -12 -2z M3239 3863 c-1 -7 0 -178 1 -205 0 -5 7 -8 15 -8 8
0 16 3 16 8 5 31 7 186 2 197 -5 15 -32 21 -34 8z M3645 3570 c-4 -6 -8 -52
-11 -103 -2 -51 -8 -110 -14 -132 -23 -95 -3 -235 34 -235 18 0 21 22 7 49
-19 35 -19 120 0 218 23 117 24 186 5 202 -10 9 -16 9 -21 1z M4059 2023 c-13
-16 -12 -17 4 -4 9 7 17 15 17 17 0 8 -8 3 -21 -13z M1346 4048 c-9 -12 -16
-26 -16 -31 0 -24 -75 -176 -89 -179 -9 -3 -64 -4 -123 -3 -96 1 -108 -1 -108
-16 0 -10 10 -21 23 -24 35 -11 147 -89 147 -103 0 -6 -22 -59 -50 -117 -81
-171 -61 -174 163 -28 l49 31 81 -52 c125 -79 187 -110 199 -98 6 6 0 33 -20
78 -61 145 -70 169 -65 177 2 4 39 28 81 53 96 56 137 89 128 103 -5 8 -46 9
-136 5 l-128 -7 -35 69 c-19 38 -40 86 -46 106 -17 53 -35 65 -55 36z m42
-133 c12 -31 22 -60 22 -65 0 -6 -24 -10 -54 -10 l-55 0 27 65 c15 36 29 65
32 65 3 0 15 -25 28 -55z m58 -161 c8 -18 14 -37 14 -42 0 -5 -22 -23 -49 -39
l-49 -31 -48 40 c-27 22 -53 44 -58 48 -5 5 -2 19 7 34 15 22 25 25 84 28 38
2 72 1 77 -1 4 -2 14 -18 22 -37z m135 21 c-39 -23 -71 -32 -71 -21 0 2 -3 11
-6 19 -6 17 10 23 76 25 l45 1 -44 -24z m-368 6 c14 -2 7 -19 -11 -23 -10 -3
-28 3 -40 12 -21 18 -21 18 11 15 18 -2 35 -3 40 -4z m55 -140 c12 -11 22 -23
22 -28 0 -9 -120 -83 -134 -83 -5 0 18 46 61 123 7 12 27 7 51 -12z m240 -48
c12 -31 19 -59 17 -62 -3 -2 -15 5 -28 15 -12 11 -34 28 -49 37 -16 10 -28 21
-28 25 0 7 48 39 61 41 3 1 16 -25 27 -56z M508 3413 c7 -3 16 -2 19 1 4 3 -2
6 -13 5 -11 0 -14 -3 -6 -6z M566 3084 c-9 -8 -16 -20 -16 -26 0 -23 -89 -219
-105 -230 -5 -4 -65 -8 -132 -8 -104 0 -123 -2 -123 -15 0 -9 17 -24 38 -33
67 -31 152 -86 152 -100 0 -7 -7 -29 -16 -50 -28 -63 -54 -136 -54 -149 0 -20
37 -15 83 10 23 13 68 39 100 57 58 32 59 33 90 16 44 -23 62 -34 136 -84 78
-53 90 -47 74 35 -6 32 -16 76 -23 98 -6 22 -12 45 -13 52 -1 6 54 40 123 75
110 55 125 66 125 88 l0 25 -152 -3 c-152 -3 -153 -3 -162 20 -13 34 -48 148
-56 183 -12 54 -39 70 -69 39z m48 -163 c22 -74 21 -78 -21 -83 -52 -7 -64 -1
-53 25 4 12 16 51 26 86 19 69 19 69 48 -28z m300 -124 c-23 -15 -119 -54
-155 -62 -23 -6 -27 -3 -33 20 -4 15 -4 30 -1 33 7 7 80 16 159 19 43 2 47 1
30 -10z m-525 -13 c30 -6 44 -35 23 -48 -8 -5 -92 41 -92 50 0 6 32 5 69 -2z
m280 -39 c7 -25 12 -47 10 -49 -2 -2 -30 -16 -62 -31 -63 -29 -70 -28 -125 13
-21 17 -22 20 -9 57 15 44 33 51 127 54 l46 1 13 -45z m-188 -121 c14 -17 11
-20 -43 -50 -32 -17 -34 -14 -12 32 18 37 34 43 55 18z m232 -36 c8 -24 18
-51 22 -61 5 -12 -13 -4 -54 25 -33 23 -61 45 -61 48 0 9 41 28 62 29 10 1 21
-14 31 -41z M2910 2820 c0 -5 5 -10 11 -10 5 0 7 5 4 10 -3 6 -8 10 -11 10 -2
0 -4 -4 -4 -10z M2734 2769 c-3 -6 -2 -15 3 -20 5 -5 9 -1 9 11 0 23 -2 24
-12 9z M2875 2740 c3 -5 8 -10 11 -10 2 0 4 5 4 10 0 6 -5 10 -11 10 -5 0 -7
-4 -4 -10z M2715 2620 c3 -5 11 -10 16 -10 6 0 7 5 4 10 -3 6 -11 10 -16 10
-6 0 -7 -4 -4 -10z M2755 2560 c3 -5 8 -10 11 -10 2 0 4 5 4 10 0 6 -5 10 -11
10 -5 0 -7 -4 -4 -10z M2686 2502 c-3 -5 1 -9 9 -9 8 0 15 4 15 9 0 4 -4 8 -9
8 -6 0 -12 -4 -15 -8z M2607 1859 c7 -7 15 -10 18 -7 3 3 -2 9 -12 12 -14 6
-15 5 -6 -5z M2720 1860 c-9 -6 -10 -10 -3 -10 6 0 15 5 18 10 8 12 4 12 -15
0z M2040 2863 c0 -9 -6 -24 -13 -32 -8 -9 -20 -32 -27 -51 -8 -19 -26 -55 -40
-80 l-26 -44 -108 -2 c-59 -1 -112 -6 -118 -12 -19 -19 3 -49 62 -83 100 -56
94 -46 66 -116 -14 -33 -39 -84 -56 -112 -38 -65 -39 -85 -5 -77 28 7 134 54
207 92 28 14 54 21 65 17 27 -10 93 -54 127 -86 30 -27 72 -45 82 -34 3 3 -1
27 -9 53 -39 132 -44 153 -38 162 4 6 27 20 52 30 25 11 52 26 60 33 8 8 39
30 71 48 31 19 54 39 52 45 -8 21 -84 36 -183 36 -113 0 -101 -11 -126 113
-10 47 -24 86 -36 98 -24 24 -59 25 -59 2z m36 -95 c2 -24 6 -57 9 -75 5 -28
3 -33 -20 -39 -14 -3 -36 -3 -49 0 l-24 6 21 39 c12 22 25 37 29 35 5 -3 8 8
8 25 0 33 10 65 18 57 2 -3 6 -25 8 -48z m-176 -169 c0 -13 -25 -39 -38 -39
-4 0 -18 10 -30 23 l-21 23 44 2 c26 1 45 -3 45 -9z m157 5 c36 -4 43 -9 52
-36 19 -53 14 -82 -16 -95 -37 -18 -38 -17 -99 19 -51 31 -54 35 -48 63 12 55
21 59 111 49z m258 -8 c5 -1 -21 -20 -58 -40 -38 -21 -69 -37 -71 -35 -2 2 -6
23 -10 45 l-6 42 68 -5 c37 -3 71 -6 77 -7z m-365 -155 c19 -16 33 -31 30 -33
-51 -40 -115 -78 -131 -78 l-20 0 20 29 c12 16 21 31 21 34 0 13 31 77 38 77
4 0 23 -14 42 -29z m222 -60 c5 -18 7 -35 5 -38 -3 -2 -21 7 -41 21 -34 22
-35 26 -20 41 24 24 47 14 56 -24z M860 1801 c0 -6 5 -13 10 -16 6 -3 10 1 10
9 0 9 -4 16 -10 16 -5 0 -10 -4 -10 -9z M824 1765 c-8 -31 1 -55 20 -55 14 0
27 45 19 67 -9 22 -32 15 -39 -12z M2140 1916 c0 -2 7 -9 15 -16 13 -11 14
-10 9 4 -5 14 -24 23 -24 12z M2386 1832 c-3 -6 -1 -14 5 -17 15 -10 25 3 12
16 -7 7 -13 7 -17 1z M2285 1530 c-3 -6 -3 -19 0 -30 3 -11 2 -36 -4 -56 -7
-27 -7 -42 1 -51 14 -18 38 1 38 31 0 12 7 32 16 44 8 12 11 22 6 22 -6 0 -13
11 -16 25 -6 25 -30 34 -41 15z M3599 1993 l-24 -28 28 24 c25 23 32 31 24 31
-2 0 -14 -12 -28 -27z M3369 1973 c-13 -16 -12 -17 4 -4 9 7 17 15 17 17 0 8
-8 3 -21 -13z M1727 1868 c-14 -24 -30 -60 -37 -80 -6 -21 -16 -38 -21 -38 -6
0 -8 -4 -5 -8 2 -4 -5 -26 -17 -47 l-23 -40 -109 -2 c-61 -1 -113 -2 -117 -3
-24 -1 2 -33 76 -94 l83 -69 -9 -36 c-6 -20 -13 -38 -17 -41 -14 -10 -53 -119
-49 -137 6 -32 41 -25 147 31 l104 55 51 -42 c100 -84 178 -138 192 -133 21 8
18 31 -27 170 -47 146 -52 129 61 191 90 48 115 69 107 90 -6 14 -20 16 -95
15 -48 -1 -105 -2 -128 -1 l-41 1 -13 55 c-7 31 -17 58 -22 61 -4 3 -8 18 -8
34 0 40 -29 110 -46 110 -7 0 -24 -19 -37 -42z m46 -126 c9 -42 17 -81 17 -85
0 -4 -25 -7 -56 -7 -31 0 -54 3 -52 8 24 47 51 112 55 135 9 45 19 31 36 -51z
m-174 -148 c2 -2 -1 -16 -7 -30 l-12 -25 -40 31 c-22 17 -40 34 -40 37 0 6 92
-6 99 -13z m218 -14 c30 -64 28 -72 -35 -112 -32 -21 -62 -38 -65 -38 -8 0
-50 35 -78 64 -12 12 -15 24 -9 35 5 9 14 31 21 49 l12 33 71 -3 c64 -3 72 -5
83 -28z m173 14 c0 -5 -89 -54 -98 -54 -10 0 -24 39 -17 49 3 6 115 10 115 5z
m-345 -170 l30 -25 -30 -25 c-31 -25 -86 -56 -91 -51 -2 2 3 15 10 29 8 14 19
42 26 62 6 20 15 36 18 36 4 -1 21 -12 37 -26z m254 -60 c18 -48 29 -89 27
-92 -3 -2 -19 6 -35 19 -16 13 -51 40 -77 59 -41 30 -44 36 -29 45 10 5 31 20
49 32 17 12 32 22 33 22 0 1 15 -38 32 -85z M3675 1960 c-10 -11 -14 -20 -9
-20 5 0 15 9 22 20 7 11 11 20 9 20 -2 0 -12 -9 -22 -20z M3396 1882 l-19 -27
26 24 c28 26 32 31 20 31 -5 0 -17 -13 -27 -28z M3660 1818 l-43 -53 48 47
c27 26 47 50 44 53 -3 3 -25 -19 -49 -47z M3431 1761 c-50 -55 -91 -103 -91
-108 1 -4 11 4 23 18 12 15 55 63 96 108 40 45 71 81 68 81 -2 0 -45 -45 -96
-99z M3419 1831 c-2 -5 -22 -29 -44 -53 -60 -65 -79 -88 -73 -88 10 0 130 141
125 146 -3 3 -7 1 -8 -5z M3556 1782 c-21 -26 -59 -69 -85 -97 -25 -27 -52
-59 -60 -70 -14 -21 31 26 107 110 25 28 57 62 71 78 13 15 21 27 15 26 -5 0
-26 -21 -48 -47z M3409 1773 l-24 -28 28 24 c25 23 32 31 24 31 -2 0 -14 -12
-28 -27z M3310 1751 c-21 -23 -77 -99 -63 -86 34 33 94 105 87 104 -5 0 -16
-8 -24 -18z M3598 1751 c-1 -5 -21 -29 -43 -53 -59 -64 -79 -88 -73 -88 2 0
35 34 72 75 37 41 63 75 58 75 -6 0 -12 -4 -14 -9z M3365 1729 c-4 -6 -5 -12
-2 -15 2 -3 7 2 10 11 7 17 1 20 -8 4z M3398 1684 c-29 -30 -55 -61 -57 -67
-2 -7 9 2 25 18 15 17 43 47 63 68 19 20 32 37 29 37 -4 0 -30 -25 -60 -56z
M3480 1658 c-33 -38 -65 -86 -43 -63 45 45 94 105 87 105 -5 -1 -25 -19 -44
-42z M4750 1875 c-13 -14 -19 -25 -14 -25 8 1 50 50 41 50 -2 0 -14 -11 -27
-25z M4465 1880 c-3 -5 -1 -10 4 -10 6 0 11 5 11 10 0 6 -2 10 -4 10 -3 0 -8
-4 -11 -10z M3765 1819 c-11 -17 1 -21 15 -4 8 9 8 15 2 15 -6 0 -14 -5 -17
-11z M3899 1763 l-24 -28 28 24 c25 23 32 31 24 31 -2 0 -14 -12 -28 -27z
M4670 1745 c-18 -19 -32 -37 -29 -39 2 -3 19 13 37 35 41 48 37 51 -8 4z
M2789 1643 c-13 -16 -12 -17 4 -4 9 7 17 15 17 17 0 8 -8 3 -21 -13z M977
1458 c-13 -40 52 -84 103 -71 15 4 29 -3 49 -26 32 -35 51 -40 51 -12 0 51
-41 81 -109 81 -30 0 -44 5 -53 20 -14 23 -34 26 -41 8z M786 1371 c-8 -12 23
-97 40 -111 7 -7 20 -10 28 -7 12 5 12 12 -1 49 -21 61 -52 93 -67 69z M980
1159 c0 -5 5 -7 10 -4 6 3 10 8 10 11 0 2 -4 4 -10 4 -5 0 -10 -5 -10 -11z
M3826 1562 l-30 -37 37 34 c38 36 42 42 30 40 -5 0 -21 -17 -37 -37z M3746
1473 c-21 -24 -35 -43 -30 -42 11 1 79 78 73 82 -2 2 -21 -16 -43 -40z M3560
1505 c-19 -19 -30 -35 -24 -34 9 0 70 69 62 69 -2 0 -19 -16 -38 -35z M3489
1503 l-24 -28 28 24 c25 23 32 31 24 31 -2 0 -14 -12 -28 -27z M3836 1452
l-30 -37 37 34 c38 36 42 42 30 40 -5 0 -21 -17 -37 -37z M3914 1458 l-19 -23
23 19 c12 11 22 21 22 23 0 8 -8 2 -26 -19z M2779 1433 c-13 -16 -12 -17 4 -4
9 7 17 15 17 17 0 8 -8 3 -21 -13z M2629 1423 c-13 -16 -12 -17 4 -4 16 13 21
21 13 21 -2 0 -10 -8 -17 -17z M2809 1423 c-13 -16 -12 -17 4 -4 16 13 21 21
13 21 -2 0 -10 -8 -17 -17z M2505 1289 c-4 -6 -5 -12 -2 -15 2 -3 7 2 10 11 7
17 1 20 -8 4z M2709 1153 c-13 -16 -12 -17 4 -4 9 7 17 15 17 17 0 8 -8 3 -21
-13z M2479 1133 c-13 -16 -12 -17 4 -4 16 13 21 21 13 21 -2 0 -10 -8 -17 -17z
M2539 1123 c-13 -16 -12 -17 4 -4 9 7 17 15 17 17 0 8 -8 3 -21 -13z M2454
1068 l-19 -23 23 19 c12 11 22 21 22 23 0 8 -8 2 -26 -19z M2640 1075 c-7 -9
-8 -15 -2 -15 5 0 12 7 16 15 3 8 4 15 2 15 -2 0 -9 -7 -16 -15z M2509 973
c-13 -16 -12 -17 4 -4 16 13 21 21 13 21 -2 0 -10 -8 -17 -17z M2249 963 c-13
-16 -12 -17 4 -4 16 13 21 21 13 21 -2 0 -10 -8 -17 -17z M2325 970 c-3 -5 -1
-10 4 -10 6 0 11 5 11 10 0 6 -2 10 -4 10 -3 0 -8 -4 -11 -10z M2572 964 c-7
-8 -8 -14 -3 -14 10 0 25 19 20 25 -2 1 -10 -3 -17 -11z M2359 923 c-13 -16
-12 -17 4 -4 16 13 21 21 13 21 -2 0 -10 -8 -17 -17z M2379 903 c-13 -16 -12
-17 4 -4 16 13 21 21 13 21 -2 0 -10 -8 -17 -17z M2209 873 c-13 -16 -12 -17
4 -4 9 7 17 15 17 17 0 8 -8 3 -21 -13z M2279 873 c-13 -16 -12 -17 4 -4 9 7
17 15 17 17 0 8 -8 3 -21 -13z M2369 853 l-24 -28 28 24 c25 23 32 31 24 31
-2 0 -14 -12 -28 -27z M2435 850 c-10 -11 -16 -22 -14 -24 2 -2 12 7 22 20 22
29 17 32 -8 4z M2469 843 c-13 -16 -12 -17 4 -4 9 7 17 15 17 17 0 8 -8 3 -21
-13z M2209 833 c-13 -16 -12 -17 4 -4 9 7 17 15 17 17 0 8 -8 3 -21 -13z
M2269 823 c-13 -16 -12 -17 4 -4 16 13 21 21 13 21 -2 0 -10 -8 -17 -17z
M2140 799 c0 -5 5 -7 10 -4 6 3 10 8 10 11 0 2 -4 4 -10 4 -5 0 -10 -5 -10
-11z M2170 795 c-7 -9 -8 -15 -2 -15 5 0 12 7 16 15 3 8 4 15 2 15 -2 0 -9 -7
-16 -15z M3985 1376 c-23 -25 -26 -40 -4 -19 12 12 21 24 18 27 -2 2 -9 -1
-14 -8z M4010 1285 c-7 -9 -11 -17 -9 -20 3 -2 10 5 17 15 14 24 10 26 -8 5z
M3032 1034 c2 -11 11 -20 22 -22 13 -3 17 1 14 14 -2 11 -11 20 -22 22 -13 3
-17 -1 -14 -14z M3615 1036 c-11 -8 -42 -57 -70 -110 l-50 -96 -106 0 c-70 0
-111 -4 -123 -13 -19 -14 -20 -13 107 -94 23 -15 44 -28 46 -30 4 -3 -20 -65
-54 -138 -39 -85 -40 -95 -10 -95 15 0 39 8 53 18 15 11 68 39 119 65 81 40
93 44 110 31 10 -7 34 -18 54 -24 19 -5 61 -30 93 -55 79 -61 124 -61 86 -1
-16 26 -69 177 -70 197 0 4 15 12 33 20 17 7 34 16 37 20 3 3 28 18 56 32 28
14 54 33 57 41 12 30 -19 38 -129 34 l-108 -3 -9 32 c-13 44 -81 176 -93 180
-5 2 -18 -3 -29 -11z m44 -146 c12 -22 21 -45 21 -50 0 -11 -52 -13 -87 -4
l-22 6 21 36 c29 53 28 52 38 52 4 0 17 -18 29 -40z m-195 -109 c3 -4 -1 -16
-8 -26 -12 -17 -15 -16 -52 9 l-39 26 47 0 c26 0 49 -4 52 -9z m253 -22 c7
-13 13 -31 13 -40 0 -15 -90 -79 -111 -79 -5 0 -26 10 -47 23 -20 13 -45 26
-55 30 -17 6 -17 8 -1 39 26 52 28 53 111 52 72 0 79 -2 90 -25z m153 27 c0
-6 -75 -46 -85 -46 -3 0 -5 10 -5 23 0 19 6 22 45 25 25 1 45 0 45 -2z m-102
-172 c7 -26 11 -48 9 -50 -4 -4 -107 44 -107 50 0 7 64 46 75 46 6 0 16 -21
23 -46z m-239 19 c17 -10 31 -21 31 -24 0 -3 -32 -22 -71 -42 -53 -27 -69 -32
-64 -19 4 9 12 31 17 47 21 60 37 66 87 38z M1907 975 c3 -8 9 -12 14 -9 12 7
11 11 -5 17 -10 4 -13 1 -9 -8z M1820 790 c0 -5 5 -10 10 -10 6 0 10 5 10 10
0 6 -4 10 -10 10 -5 0 -10 -4 -10 -10z M1640 450 c0 -4 9 -10 20 -13 11 -3 20
-2 20 3 0 4 -9 10 -20 13 -11 3 -20 2 -20 -3z M1770 420 c0 -5 7 -10 16 -10 8
0 12 5 9 10 -3 6 -10 10 -16 10 -5 0 -9 -4 -9 -10z M1218 883 c6 -2 18 -2 25
0 6 3 1 5 -13 5 -14 0 -19 -2 -12 -5z M840 460 c0 -5 5 -10 10 -10 6 0 10 5
10 10 0 6 -4 10 -10 10 -5 0 -10 -4 -10 -10z M2489 743 l-24 -28 28 24 c15 14
27 26 27 28 0 8 -8 1 -31 -24z M2479 693 c-13 -16 -12 -17 4 -4 16 13 21 21
13 21 -2 0 -10 -8 -17 -17z M1263 651 c-32 -16 -43 -31 -23 -31 18 0 70 30 70
40 0 13 -7 11 -47 -9z M1460 630 c0 -5 5 -10 11 -10 5 0 7 5 4 10 -3 6 -8 10
-11 10 -2 0 -4 -4 -4 -10z M1180 550 c0 -5 5 -10 10 -10 6 0 10 5 10 10 0 6
-4 10 -10 10 -5 0 -10 -4 -10 -10z M1125 290 c-3 -5 -1 -10 4 -10 6 0 11 5 11
10 0 6 -2 10 -4 10 -3 0 -8 -4 -11 -10z M1090 260 c0 -5 4 -10 9 -10 6 0 13 5
16 10 3 6 -1 10 -9 10 -9 0 -16 -4 -16 -10z M700 5932 c-22 -4 -35 -13 -35
-22 0 -12 12 -14 62 -12 37 2 70 -1 85 -9 22 -13 27 -14 56 -17 10 -2 12 -11
7 -32 -8 -35 12 -41 38 -12 31 34 21 49 -50 76 -80 30 -116 36 -163 28z M300
5732 c0 -16 41 -42 54 -35 6 4 4 8 -4 11 -8 3 -23 11 -32 20 -11 9 -18 10 -18
4z M523 5508 c-5 -7 -27 -54 -48 -105 -27 -65 -44 -93 -59 -97 -12 -3 -67 -6
-122 -6 -131 0 -144 -11 -77 -67 27 -22 67 -53 91 -68 23 -15 42 -35 42 -45 0
-10 -11 -43 -25 -74 -14 -31 -25 -62 -25 -68 0 -6 -12 -27 -26 -46 -22 -28
-24 -36 -13 -43 8 -5 17 -9 20 -9 4 0 55 32 114 71 121 81 118 81 201 9 44
-37 141 -100 155 -100 4 0 13 8 18 18 7 14 1 40 -25 105 -19 48 -34 95 -34
105 0 10 -5 23 -11 29 -20 20 -4 37 85 86 69 39 86 53 86 72 0 22 -4 23 -124
30 -142 8 -123 -8 -168 134 -23 75 -37 92 -55 69z m25 -145 c14 -45 9 -53 -30
-53 -25 0 -29 3 -23 18 4 9 12 29 17 45 13 36 22 34 36 -10z m11 -113 c21 0
31 -8 44 -35 9 -20 17 -42 17 -49 0 -8 -25 -28 -56 -46 l-55 -31 -45 28 c-24
15 -44 31 -44 34 0 12 32 84 43 97 7 9 22 12 40 8 16 -3 42 -6 56 -6z m-166
-35 c-16 -33 -18 -34 -37 -20 -12 8 -31 20 -43 27 -38 19 -26 28 37 28 l60 0
-17 -35z m328 14 c-28 -23 -54 -21 -59 4 -3 14 4 17 40 17 l43 -1 -24 -20z
m-54 -189 c35 -93 28 -100 -42 -39 -33 29 -60 56 -60 61 0 11 57 47 69 44 5
-1 20 -31 33 -66z m-228 31 l23 -18 -51 -38 c-29 -20 -54 -35 -56 -33 -3 3 4
23 15 46 11 22 20 46 20 52 0 15 22 12 49 -9z M2675 4960 c-3 -5 -1 -27 4 -47
6 -21 15 -71 21 -112 12 -84 46 -171 66 -171 18 0 18 15 -1 88 -9 33 -22 99
-30 148 -12 77 -24 103 -47 104 -4 0 -10 -4 -13 -10z M165 4730 c3 -5 8 -10
11 -10 2 0 4 5 4 10 0 6 -5 10 -11 10 -5 0 -7 -4 -4 -10z M50 4560 c0 -32 1
-33 17 -17 16 16 16 18 0 34 -16 16 -17 15 -17 -17z M50 4488 c0 -26 9 -42 35
-68 30 -29 37 -32 45 -20 7 11 0 24 -25 50 -19 20 -35 41 -35 47 0 7 -4 15
-10 18 -6 4 -10 -8 -10 -27z M105 4230 c-3 -5 -1 -10 4 -10 6 0 11 5 11 10 0
6 -2 10 -4 10 -3 0 -8 -4 -11 -10z M50 3611 c0 -22 25 -45 40 -36 15 9 12 26
-7 41 -25 18 -33 17 -33 -5z M50 3392 c0 -54 7 -67 27 -51 16 14 17 53 3 80
-18 33 -30 21 -30 -29z M60 1945 c-11 -13 -10 -14 4 -9 9 3 16 10 16 15 0 13
-6 11 -20 -6z M4920 1908 c-46 -58 -52 -73 -11 -28 22 25 41 48 41 53 0 11 -3
8 -30 -25z M4880 1903 c-12 -16 -30 -37 -39 -48 l-16 -20 24 20 c23 20 66 75
58 75 -2 0 -14 -12 -27 -27z M4921 1866 l-24 -31 28 27 c16 15 27 29 24 31 -2
3 -15 -10 -28 -27z M4922 1747 c-12 -13 -22 -27 -22 -31 0 -8 15 6 39 37 20
25 8 21 -17 -6z M121 1661 c-11 -11 -31 -27 -45 -36 -25 -17 -36 -55 -16 -55
14 0 82 44 99 64 14 17 9 46 -9 46 -5 0 -19 -9 -29 -19z M177 1644 c-4 -4 -7
-17 -7 -29 0 -26 -71 -111 -100 -120 -13 -4 -20 -15 -20 -31 0 -30 5 -30 47 2
50 38 49 24 -2 -26 -37 -36 -45 -51 -45 -80 l1 -35 40 45 c101 114 113 131
103 148 -7 11 -5 26 8 51 10 20 17 45 16 56 -3 20 -28 32 -41 19z M237 1637
c-12 -31 54 -79 96 -69 21 4 23 42 2 42 -8 0 -29 9 -47 20 -39 24 -44 24 -51
7z M4925 1630 c-10 -11 -14 -20 -9 -20 5 0 15 9 22 20 7 11 11 20 9 20 -2 0
-12 -9 -22 -20z M4690 1605 c-18 -19 -32 -36 -29 -38 2 -2 19 14 38 35 42 48
36 50 -9 3z M4764 1608 l-19 -23 23 19 c21 18 27 26 19 26 -2 0 -12 -10 -23
-22z M4805 1617 c-5 -7 -19 -24 -30 -37 -11 -14 -3 -10 18 9 20 19 37 36 37
38 0 8 -16 1 -25 -10z M4864 1598 l-29 -33 33 29 c30 28 37 36 29 36 -2 0 -16
-15 -33 -32z M4925 1590 c-10 -11 -14 -20 -9 -20 5 0 15 9 22 20 7 11 11 20 9
20 -2 0 -12 -9 -22 -20z M4676 1554 c-21 -24 -35 -44 -30 -43 5 0 26 21 48 45
21 24 35 44 30 43 -5 0 -26 -21 -48 -45z M4866 1562 l-30 -37 37 34 c38 36 42
42 30 40 -5 0 -21 -17 -37 -37z M4629 1573 c-13 -16 -12 -17 4 -4 9 7 17 15
17 17 0 8 -8 3 -21 -13z M4779 1543 l-24 -28 28 24 c25 23 32 31 24 31 -2 0
-14 -12 -28 -27z M4689 1523 l-34 -38 38 34 c20 19 37 36 37 38 0 8 -8 0 -41
-34z M4525 1503 l-18 -28 27 24 c28 26 31 31 17 31 -5 0 -17 -12 -26 -27z
M4604 1508 l-19 -23 23 19 c12 11 22 21 22 23 0 8 -8 2 -26 -19z M4737 1458
c-36 -40 -64 -75 -62 -77 2 -2 17 12 32 30 15 19 45 53 67 76 21 24 36 43 33
43 -3 0 -34 -33 -70 -72z M4817 1513 c-4 -3 -7 -11 -7 -17 0 -6 5 -5 12 2 6 6
9 14 7 17 -3 3 -9 2 -12 -2z M4609 1473 l-24 -28 28 24 c15 14 27 26 27 28 0
8 -8 1 -31 -24z M4679 1473 c-13 -16 -12 -17 4 -4 16 13 21 21 13 21 -2 0 -10
-8 -17 -17z M4706 1462 l-19 -27 26 24 c28 26 32 31 20 31 -5 0 -17 -13 -27
-28z M4538 1435 c-21 -24 -38 -46 -38 -50 0 -3 18 15 40 40 36 41 46 56 38 55
-2 -1 -20 -20 -40 -45z M4614 1438 l-19 -23 23 19 c12 11 22 21 22 23 0 8 -8
2 -26 -19z M4616 1403 c-21 -24 -37 -45 -35 -47 2 -2 21 16 43 40 50 58 43 64
-8 7z M4537 1392 c-15 -15 -27 -32 -27 -37 0 -5 6 0 14 11 8 10 18 16 22 11 4
-4 -3 -19 -17 -35 -13 -15 -5 -9 18 12 24 22 41 42 38 44 -2 3 -11 -1 -20 -8
-18 -15 -20 1 -3 18 7 7 10 12 7 12 -3 0 -17 -13 -32 -28z M4636 1382 l-19
-27 26 24 c28 26 32 31 20 31 -5 0 -17 -13 -27 -28z M4536 1311 l-30 -36 34
32 c19 18 32 34 29 36 -2 2 -17 -12 -33 -32z M431 1221 c-16 -4 -28 -19 -37
-43 -7 -21 -24 -57 -38 -81 l-26 -44 -106 -6 c-59 -3 -108 -8 -111 -11 -14
-14 14 -47 67 -77 99 -56 93 -45 70 -124 -11 -38 -29 -91 -41 -117 -12 -25
-19 -54 -16 -62 11 -28 60 -18 120 24 30 22 59 40 62 40 4 0 25 14 46 31 l39
31 48 -35 c70 -51 168 -107 185 -107 8 0 20 6 26 14 10 11 3 33 -29 103 -22
48 -45 97 -51 107 -8 14 -8 21 2 27 8 4 52 30 99 57 47 27 86 56 88 65 5 24
-66 39 -175 36 l-95 -3 -46 92 c-26 51 -49 92 -52 91 -3 -1 -16 -4 -29 -8z
m39 -121 c29 -56 26 -62 -22 -58 -24 2 -43 6 -43 8 1 13 35 90 40 90 2 0 14
-18 25 -40z m-176 -105 c2 -7 -1 -21 -8 -30 -11 -15 -13 -15 -25 -1 -8 9 -19
16 -25 16 -7 0 -21 6 -32 14 -17 13 -15 15 33 14 33 0 53 -5 57 -13z m371 -33
l-48 -24 -18 23 -18 24 42 5 c23 3 53 3 66 1 22 -4 19 -7 -24 -29z m-126 -8
c12 -19 21 -40 21 -45 0 -6 -24 -21 -54 -35 l-54 -25 -49 32 c-67 45 -66 43
-49 78 16 30 18 31 90 31 l74 0 21 -36z m-139 -145 c0 -9 -98 -69 -113 -69 -9
0 -2 26 24 88 l19 43 35 -27 c19 -14 35 -30 35 -35z m203 9 c29 -68 38 -91 34
-94 -2 -2 -19 9 -38 25 -19 15 -44 33 -56 40 -30 15 -29 22 5 43 38 23 39 22
55 -14z M4942 840 c0 -14 2 -19 5 -12 2 6 2 18 0 25 -3 6 -5 1 -5 -13z M2440
330 c0 -5 5 -10 10 -10 6 0 10 5 10 10 0 6 -4 10 -10 10 -5 0 -10 -4 -10 -10z
M3116 286 c-32 -43 -33 -56 -2 -56 13 0 30 -2 38 -5 10 -4 13 8 15 45 2 61
-13 65 -51 16z M50 272 c0 -12 7 -25 15 -29 25 -9 27 2 6 28 l-20 24 -1 -23z
M2619 243 c-13 -16 -12 -17 4 -4 16 13 21 21 13 21 -2 0 -10 -8 -17 -17z M50
170 c0 -13 5 -20 13 -17 6 2 12 10 12 17 0 7 -6 15 -12 18 -8 2 -13 -5 -13
-18z"/>
</g>
</svg>
