<?xml version="1.0" standalone="no"?>
<!DOCTYPE svg PUBLIC "-//W3C//DTD SVG 20010904//EN"
 "http://www.w3.org/TR/2001/REC-SVG-20010904/DTD/svg10.dtd">
<svg version="1.0" xmlns="http://www.w3.org/2000/svg"
 width="500.000000pt" height="878.000000pt" viewBox="0 0 500.000000 878.000000"
 preserveAspectRatio="xMidYMid meet">
<metadata>
Created by potrace 1.16, written by Peter Selinger 2001-2019
</metadata>
<g transform="translate(0.000000,878.000000) scale(0.100000,-0.100000)"
fill="#000000" stroke="none">
<path d="M4016 8675 c-22 -30 -46 -55 -53 -55 -23 0 -145 -60 -188 -93 -141
-106 -219 -289 -195 -457 24 -166 142 -329 290 -397 69 -32 137 -53 171 -53
16 0 31 -6 34 -12 2 -7 6 -66 9 -130 6 -115 6 -117 -16 -123 -49 -13 -166 -78
-211 -117 -89 -75 -176 -237 -177 -325 0 -18 -5 -44 -12 -58 -15 -34 12 -152
58 -254 55 -119 205 -249 333 -287 32 -9 48 -19 45 -27 -2 -7 -6 -61 -7 -121
l-2 -108 -52 -18 c-223 -78 -383 -300 -383 -530 0 -233 150 -449 375 -541 l40
-17 1 -84 2 -85 -37 -18 c-243 -115 -367 -388 -285 -629 50 -147 135 -242 274
-311 l55 -27 1 -223 2 -223 -52 -23 c-76 -35 -185 -148 -224 -231 -40 -86 -51
-135 -52 -227 0 -132 51 -264 138 -357 41 -44 147 -119 175 -125 17 -4 19 -20
20 -202 1 -108 -1 -197 -5 -197 -5 0 -8 9 -8 19 0 11 -4 22 -9 25 -8 5 -236
19 -284 18 -15 -1 -16 6 -11 53 6 47 3 60 -21 100 -38 66 -89 88 -196 83 -43
-2 -79 -3 -79 -2 0 0 7 15 16 33 10 20 14 44 10 62 -3 16 -2 39 3 52 6 15 4
31 -4 47 -8 14 -11 35 -9 46 7 29 -38 64 -82 64 l-34 0 0 74 c0 73 0 74 -29
79 -39 8 -85 -6 -89 -26 -2 -10 3 -41 12 -69 9 -31 11 -57 6 -62 -10 -10 -155
-46 -188 -46 -12 0 -30 9 -39 20 -10 11 -23 20 -30 20 -6 0 -15 9 -18 20 -3
11 -16 22 -28 26 -18 4 -25 16 -34 64 -12 62 -42 110 -80 129 -13 6 -23 19
-23 30 0 31 -22 71 -34 64 -6 -4 4 8 22 26 32 33 40 59 22 77 -6 6 -5 24 1 49
21 81 22 94 5 101 -17 7 -23 59 -7 68 5 3 11 16 14 28 8 32 84 249 90 255 3 2
26 6 52 8 25 1 54 10 64 19 21 19 55 116 44 127 -21 19 -86 49 -108 49 -14 0
-29 8 -35 20 -8 15 -21 20 -53 20 -24 0 -48 5 -53 10 -7 7 -25 7 -50 2 -32 -6
-42 -14 -57 -45 -29 -58 -5 -122 50 -132 10 -2 20 -4 22 -4 2 -1 -1 -7 -7 -13
-11 -13 -49 -117 -83 -225 -11 -35 -24 -63 -28 -63 -10 0 -20 34 -22 70 0 14
-9 39 -20 55 -23 37 -31 54 -60 129 -12 32 -31 66 -42 77 -27 25 -17 42 45 75
47 26 74 57 91 108 2 5 31 12 65 16 105 13 181 98 142 160 -5 9 -5 19 2 27 6
7 8 29 5 47 -4 24 -1 39 9 47 22 18 18 76 -6 91 -11 7 -20 19 -20 26 0 51 -59
108 -124 121 -24 5 -32 13 -34 33 -4 32 -52 76 -90 83 -15 3 -47 12 -70 20
-32 11 -49 12 -64 4 -14 -7 -23 -7 -33 1 -16 13 -125 7 -166 -9 -15 -5 -54
-35 -89 -67 -52 -49 -68 -58 -94 -56 -41 4 -76 -28 -76 -69 0 -23 -7 -34 -29
-46 -43 -25 -63 -69 -57 -127 5 -51 25 -81 60 -92 11 -4 33 -17 48 -30 27 -22
27 -23 9 -46 -18 -21 -22 -22 -63 -11 -62 17 -84 8 -109 -43 -23 -49 -36 -55
-41 -21 -2 16 -11 23 -30 25 -30 4 -34 13 -18 43 16 28 -4 59 -38 59 -38 0
-69 -24 -77 -59 -5 -24 -12 -30 -47 -35 -28 -5 -42 -12 -45 -26 -3 -11 -14
-22 -25 -26 -28 -9 -16 -29 18 -29 22 0 32 7 42 28 17 34 28 34 35 0 5 -29 -6
-43 -34 -43 -14 0 -50 -18 -124 -63 -11 -7 -47 -38 -79 -69 -62 -61 -73 -67
-82 -45 -5 14 -64 11 -64 -2 0 -4 -6 -16 -14 -26 -11 -16 -17 -17 -29 -7 -12
11 -25 10 -66 -4 -28 -9 -51 -22 -51 -29 0 -7 17 -27 38 -45 29 -25 32 -31 15
-27 -12 3 -22 2 -21 -2 0 -3 -3 -20 -7 -37 -6 -27 -11 -31 -41 -32 -41 -2 -57
-9 -48 -24 4 -6 28 -8 63 -4 46 5 60 2 81 -13 l24 -19 -28 -41 c-16 -22 -32
-38 -37 -35 -5 2 -11 -8 -15 -23 -4 -15 -15 -37 -25 -48 -9 -11 -25 -53 -35
-92 -13 -57 -22 -74 -38 -78 -34 -10 -66 -27 -61 -34 7 -12 -9 -25 -47 -43
-43 -20 -48 -43 -17 -77 14 -15 27 -20 42 -15 l22 6 -22 -23 c-20 -20 -25 -21
-49 -10 -22 10 -31 9 -50 -4 -29 -18 -32 -55 -6 -55 10 0 22 4 28 9 13 12 84
21 84 10 0 -15 22 -10 37 8 13 16 14 16 9 1 -3 -9 -10 -35 -16 -57 -6 -22 -15
-43 -20 -46 -6 -3 -10 -19 -10 -35 0 -16 -9 -44 -20 -63 -12 -19 -20 -39 -19
-43 2 -5 -3 -20 -9 -34 -6 -14 -13 -41 -17 -61 -3 -20 -15 -45 -26 -55 -12
-10 -28 -32 -37 -49 -15 -29 -68 -257 -79 -343 -6 -47 -10 -50 -29 -25 -8 12
-14 48 -14 98 -1 188 -30 321 -69 313 -9 -2 -16 -13 -15 -26 0 -15 -5 -22 -18
-22 -16 0 -17 3 -7 21 6 12 13 49 16 81 4 47 2 59 -9 56 -7 -3 -14 -11 -15
-19 -10 -77 -14 -87 -46 -102 l-32 -16 -1 -133 c-3 -223 2 -201 -41 -195 -64
10 -103 19 -107 26 -3 4 -7 27 -10 51 -3 32 0 50 11 62 21 24 10 36 -44 44
-41 6 -48 4 -64 -17 -10 -13 -19 -34 -19 -46 0 -44 -54 -20 -55 23 0 24 -6 30
-44 41 -25 7 -49 17 -55 23 -17 17 -46 12 -46 -8 0 -10 -5 -23 -11 -29 -8 -8
0 -23 30 -56 23 -24 41 -47 41 -50 0 -3 -16 -15 -35 -27 -84 -52 -13 -81 163
-66 24 2 31 -1 27 -12 -3 -7 -5 -16 -5 -18 0 -2 -11 -4 -25 -4 -18 0 -25 -5
-25 -19 0 -25 17 -36 34 -22 11 9 15 5 19 -21 6 -42 4 -43 -32 -28 -16 6 -48
13 -70 14 -32 2 -50 10 -81 39 -23 20 -45 37 -50 37 -6 0 -10 -18 -10 -41 0
-24 4 -38 10 -34 14 9 12 -8 -2 -25 -11 -12 -10 -12 3 -2 19 14 45 7 53 -14 5
-12 17 -14 53 -9 46 5 83 -5 155 -45 23 -13 51 -13 65 1 7 7 15 6 26 -5 14
-14 13 -19 -14 -45 -16 -16 -29 -36 -29 -44 0 -23 -31 -44 -93 -61 -52 -15
-59 -15 -73 -1 -22 21 -59 29 -83 16 -19 -11 -20 -10 -10 12 8 18 8 39 0 79
-10 47 -15 54 -34 53 -22 -2 -22 -5 -24 -148 -2 -81 1 -147 5 -147 5 0 19 11
32 25 23 24 24 24 37 5 8 -11 20 -17 28 -14 18 7 32 -23 17 -38 -6 -6 -36 -10
-67 -10 -47 0 -56 -2 -53 -16 2 -12 16 -17 53 -19 28 -1 73 -5 102 -8 32 -3
54 -1 58 6 5 7 36 8 93 4 94 -8 102 -10 102 -28 0 -9 -51 -11 -205 -9 -202 3
-205 3 -205 -17 0 -20 5 -21 178 -22 97 -1 188 -2 202 -3 22 -1 25 -6 27 -45
1 -24 4 -45 6 -47 4 -5 93 -16 119 -16 9 1 15 -5 13 -11 -2 -7 -9 -41 -15 -77
-7 -36 -21 -94 -32 -130 -11 -36 -26 -90 -33 -120 -7 -30 -22 -86 -33 -125
-92 -330 -92 -327 22 -338 21 -2 59 2 84 8 51 13 41 -8 97 193 39 140 42 145
68 137 105 -32 182 -16 223 48 14 20 28 69 38 132 16 95 49 223 66 255 6 11
23 14 71 13 35 -1 243 -3 462 -3 240 -1 397 -5 397 -11 0 -5 -8 -9 -18 -9 -10
0 -28 -7 -41 -16 -20 -14 -22 -22 -17 -54 5 -31 1 -44 -25 -79 -16 -23 -43
-54 -59 -69 -16 -15 -32 -39 -35 -53 -6 -23 -1 -31 31 -55 20 -16 46 -38 58
-49 18 -17 33 -19 129 -17 99 2 114 -1 165 -25 46 -22 71 -26 141 -27 47 0
116 5 153 12 108 20 172 11 258 -36 41 -22 93 -57 116 -77 47 -42 92 -114 77
-124 -14 -9 -33 -69 -33 -102 0 -21 13 -43 47 -78 27 -27 53 -56 58 -66 25
-41 204 -38 266 6 14 10 61 32 105 49 43 18 84 36 90 41 7 5 48 23 93 39 75
27 119 48 131 60 3 3 31 24 63 48 31 23 57 49 57 56 0 8 11 21 24 29 50 33 41
134 -11 124 -14 -3 -40 -1 -57 4 -78 22 -150 16 -223 -17 -33 -15 -151 -26
-189 -17 -12 2 -28 20 -37 42 -25 56 -88 78 -134 46 -19 -14 -23 -11 -64 42
-24 32 -58 71 -74 89 -17 17 -31 41 -32 52 -1 11 -13 38 -26 59 -21 33 -96
165 -105 185 -4 9 53 12 248 11 435 -3 511 -3 585 2 44 3 88 8 99 11 17 6 18
3 10 -32 -13 -59 -6 -213 12 -269 36 -110 121 -225 208 -280 28 -17 90 -45
138 -62 171 -59 353 -27 500 88 41 32 45 30 52 -29 3 -22 10 -51 15 -64 6 -12
15 -42 21 -65 10 -40 14 -43 66 -60 46 -14 59 -15 76 -4 l21 13 -5 -191 c-3
-107 -2 -191 3 -191 5 0 9 1691 9 3963 0 2561 -4 3957 -10 3947 -8 -13 -10
-13 -10 2 0 9 5 20 10 23 6 4 10 126 10 332 0 180 -2 324 -4 322 -12 -11 -20
-494 -10 -549 4 -27 0 -45 -16 -73 -12 -20 -26 -34 -31 -31 -6 3 -5 11 2 20 8
9 11 60 9 161 -1 82 -2 221 -2 311 2 159 1 162 -20 162 l-21 0 6 -315 c4 -195
2 -317 -3 -320 -11 -7 -13 -48 -3 -58 3 -4 12 -2 20 5 11 9 13 4 9 -27 -5 -35
-16 -62 -16 -36 0 8 -7 10 -19 6 -24 -7 -33 17 -26 71 8 52 7 303 -1 315 -3 6
-6 89 -5 185 0 170 0 174 -21 174 -20 0 -20 -2 -14 -192 4 -106 8 -271 9 -366
1 -94 4 -172 8 -172 3 0 2 -25 -1 -56 -3 -30 -2 -58 2 -60 5 -3 4 -12 -3 -20
-8 -10 -12 -48 -12 -104 0 -50 -3 -90 -7 -90 -5 0 -9 44 -9 98 -2 183 -12 627
-16 667 -2 22 -4 97 -4 168 -1 122 -2 127 -22 127 -18 0 -20 -4 -15 -32 13
-72 26 -985 16 -1169 -3 -60 -5 -66 -20 -56 -13 7 -17 24 -16 65 1 36 -3 57
-11 59 -9 3 -13 -9 -13 -44 0 -35 -3 -44 -10 -33 -12 18 -12 156 -1 220 7 39
9 34 10 -43 1 -66 4 -88 14 -84 9 3 12 43 14 148 1 79 3 204 5 277 2 73 0 136
-4 138 -5 3 -8 98 -8 212 0 114 -4 234 -10 267 -5 33 -10 63 -10 68 0 4 -9 7
-21 7 -12 0 -17 -4 -14 -11 4 -5 9 -40 11 -77 9 -180 14 -251 20 -295 5 -43 4
-48 -12 -45 -16 3 -19 -3 -17 -42 2 -38 0 -42 -9 -25 -7 11 -13 29 -14 40 -5
45 -58 135 -115 193 -38 40 -57 67 -52 75 4 6 8 41 8 77 1 36 5 75 9 88 6 16
5 22 -6 22 -16 0 -38 -40 -38 -70 0 -11 -4 -20 -10 -20 -8 0 -6 41 6 78 2 7
-5 12 -16 12 -11 0 -21 -3 -21 -7 -14 -80 -13 -134 2 -144 8 -5 15 -4 17 1 6
18 22 10 22 -10 0 -11 -3 -20 -6 -20 -12 0 -160 75 -165 85 -4 5 -22 29 -40
52 -33 41 -36 42 -94 42 l-60 1 -39 -55z m84 -21 c0 -9 -11 -14 -31 -14 -30 0
-31 5 -6 38 11 15 37 -2 37 -24z m76 9 c19 -25 17 -32 -5 -26 -12 3 -19 13
-18 24 2 24 6 24 23 2z m244 -53 c0 -5 -4 -10 -10 -10 -5 0 -10 5 -10 10 0 6
5 10 10 10 6 0 10 -4 10 -10z m-204 -65 c86 -22 143 -54 201 -111 110 -108
160 -281 119 -414 -22 -70 -52 -134 -70 -149 -9 -7 -16 -19 -16 -25 0 -6 -20
-25 -43 -42 -206 -154 -448 -142 -623 31 -138 137 -163 355 -59 520 32 51 107
125 125 125 6 0 27 11 48 25 78 51 211 68 318 40z m470 -399 c-3 -17 -6 -69
-6 -116 -1 -115 -9 -170 -25 -170 -8 0 -16 -18 -21 -42 -10 -58 -7 -312 5
-439 5 -57 7 -119 3 -137 l-7 -34 -23 25 c-20 21 -21 25 -7 37 17 14 21 91 5
120 -6 10 -11 29 -11 42 -2 21 11 291 15 312 0 6 -6 11 -15 13 -13 3 -17 -22
-27 -174 -7 -98 -11 -208 -9 -245 1 -38 0 -68 -4 -68 -25 0 -28 39 -25 294 3
262 4 269 27 307 24 39 48 55 29 20 -17 -33 -12 -61 10 -61 11 0 19 3 19 8 -1
4 2 26 6 50 5 30 12 42 21 38 10 -4 14 5 15 37 0 54 6 198 8 215 0 7 6 10 12
6 6 -3 8 -20 5 -38z m-46 -145 c0 -41 -3 -50 -21 -54 -14 -4 -19 -2 -16 8 3 7
11 31 18 54 7 23 14 41 16 41 1 0 3 -22 3 -49z m296 -59 c1 -83 0 -86 -13 -54
-8 20 -12 52 -9 75 2 23 5 48 5 55 1 6 4 12 9 12 4 0 7 -40 8 -88z m-78 -120
c11 2 19 17 23 38 4 19 7 27 8 18 0 -9 13 -30 27 -47 25 -31 25 -31 4 -31 -18
0 -21 -4 -16 -27 21 -94 27 -243 28 -618 0 -323 -6 -463 -23 -480 -14 -14 -11
-51 5 -64 18 -15 27 -49 15 -57 -5 -3 -9 0 -9 6 0 5 -13 24 -30 41 l-30 32 23
31 c22 31 22 33 20 391 -1 198 -3 392 -6 430 -18 278 -20 295 -34 295 -7 0
-14 -10 -14 -22 -2 -32 2 -127 7 -163 8 -62 14 -220 19 -551 5 -289 4 -344 -8
-356 -14 -14 -47 -72 -47 -83 0 -3 13 -11 29 -16 37 -13 50 -48 58 -151 4 -53
2 -78 -5 -78 -6 0 -9 7 -6 15 9 23 -16 148 -33 168 -9 9 -23 17 -30 17 -8 0
-23 10 -33 23 -15 18 -16 25 -5 37 12 14 17 51 32 225 9 103 8 522 -2 786 -4
113 -4 223 1 245 l9 39 3 -48 c3 -39 6 -48 20 -45z m-358 -234 c0 -122 -4
-188 -10 -178 -7 11 -14 177 -12 318 0 25 9 52 17 52 3 0 5 -87 5 -192z m-60
122 c0 -5 -2 -10 -4 -10 -3 0 -8 5 -11 10 -3 6 -1 10 4 10 6 0 11 -4 11 -10z
m-55 -105 c16 -192 15 -216 -13 -182 -15 18 -25 237 -11 254 7 7 13 12 14 11
2 -2 6 -39 10 -83z m59 -61 c8 -141 16 -180 39 -178 12 1 17 -6 17 -23 0 -20
-4 -24 -17 -18 -10 4 -33 12 -52 17 l-33 10 22 20 c19 18 22 28 17 72 -15 125
-19 241 -9 231 5 -5 13 -64 16 -131z m358 -302 c3 -84 1 -155 -4 -158 -4 -3
-8 16 -8 43 0 26 -5 79 -10 118 -13 86 -15 389 -4 407 9 14 19 -144 26 -410z
m-487 343 c4 -36 11 -65 16 -65 5 0 9 -9 9 -20 0 -29 -12 -24 -37 15 -22 34
-30 86 -17 119 12 32 23 15 29 -49z m-105 25 c0 -5 -7 -7 -15 -3 -9 3 -25 -3
-35 -12 -19 -17 -20 -17 -20 3 0 18 6 22 35 22 19 0 35 -4 35 -10z m33 -34
c-6 -24 -11 -29 -21 -22 -18 11 -14 35 6 32 9 -2 16 -6 15 -10z m-86 -106 c0
-38 -4 -70 -8 -70 -5 0 -9 17 -9 39 0 21 -3 53 -6 70 -5 24 -3 31 9 31 12 0
15 -14 14 -70z m527 -99 c3 -53 2 -81 -4 -75 -5 5 -12 47 -16 94 -4 57 -3 82
3 75 6 -5 13 -48 17 -94z m-431 50 c21 -36 21 -41 2 -41 -8 0 -15 9 -15 19 0
11 -4 23 -10 26 -5 3 -10 10 -10 16 0 18 16 9 33 -20z m64 -13 c-3 -8 -6 -5
-6 6 -1 11 2 17 5 13 3 -3 4 -12 1 -19z m427 -173 c7 -60 14 -132 15 -160 1
-46 0 -49 -14 -31 -8 11 -15 31 -14 45 1 53 -12 295 -17 303 -3 4 -2 14 3 21
5 7 9 -3 10 -28 2 -22 9 -89 17 -150z m-383 61 c209 -64 349 -250 349 -465 0
-110 -72 -274 -154 -349 -82 -74 -206 -122 -317 -122 -143 0 -253 45 -354 145
-92 91 -139 199 -139 325 -1 132 41 238 135 335 57 60 155 119 221 135 55 13
210 11 259 -4z m338 -113 c1 -37 -13 -43 -29 -12 -8 15 -8 24 0 34 6 7 10 17
9 21 -1 5 0 16 1 24 3 22 18 -30 19 -67z m100 -273 c-2 -87 -16 -120 -18 -42
0 26 -5 61 -10 79 -8 26 -6 33 7 36 10 3 18 5 20 6 1 0 2 -35 1 -79z m-3 -127
c-1 -16 -4 -32 -7 -38 -3 -5 -7 -28 -8 -50 -1 -22 -11 -53 -22 -68 -12 -17
-18 -35 -14 -47 4 -13 1 -22 -10 -26 -22 -9 -28 0 -17 23 28 53 43 101 54 164
12 68 27 95 24 42z m-111 -323 c-8 -9 -21 -34 -29 -56 -12 -33 -15 -35 -15
-14 -1 14 6 36 15 48 8 12 12 27 8 33 -3 6 0 22 7 36 l13 25 8 -28 c5 -19 3
-33 -7 -44z m106 49 c16 -16 23 -18 35 -9 20 18 34 -26 34 -107 0 -69 -8 -83
-12 -22 -2 43 -21 73 -54 87 -32 15 -34 15 -34 -4 0 -9 -11 -29 -24 -44 -25
-30 -33 -77 -35 -205 -2 -98 15 -164 45 -175 13 -5 29 -7 36 -4 28 11 51 79
56 167 2 48 9 87 14 87 6 0 7 -7 4 -16 -3 -8 -1 -25 5 -36 16 -30 31 -8 34 49
5 78 7 81 17 23 15 -85 11 -237 -7 -272 -16 -34 -12 -50 10 -41 8 3 15 1 16
-3 5 -67 4 -392 -1 -429 -7 -49 -8 -49 -10 25 -1 41 -4 84 -5 95 -12 101 -15
204 -6 227 7 20 7 29 -4 38 -34 28 -49 -87 -32 -245 11 -98 15 -162 34 -542 4
-89 2 -133 -4 -133 -6 0 -14 -17 -18 -37 -12 -57 -12 -70 -5 -118 4 -24 3 -50
-1 -57 -6 -8 -9 -2 -9 18 0 43 -24 96 -61 138 -23 27 -28 39 -21 53 5 10 8 61
6 113 -7 181 -7 207 6 255 3 10 20 -79 20 -105 0 -8 0 -77 -1 -154 -1 -105 2
-140 12 -146 7 -5 17 -6 21 -4 7 5 4 235 -7 424 -2 36 -5 167 -7 292 -1 126
-6 228 -10 228 -16 0 -22 -29 -20 -105 1 -44 4 -97 6 -117 2 -20 -1 -42 -5
-50 -7 -10 -9 -9 -9 5 0 9 -4 17 -8 17 -4 0 -7 54 -7 120 1 66 -2 125 -6 131
-17 28 -26 -6 -22 -83 l4 -82 -26 38 c-19 28 -23 41 -15 46 30 19 -19 140 -56
140 -14 0 -21 29 -28 115 l-5 60 14 -37 c7 -20 16 -51 18 -67 11 -66 91 -127
141 -108 34 13 68 88 73 163 7 84 -11 106 -22 27 -4 -27 -18 -72 -32 -100 -19
-41 -30 -53 -47 -53 -52 0 -94 91 -103 225 -7 103 10 186 47 228 15 18 31 47
35 65 8 38 9 38 36 11z m-180 -87 c-5 -10 -9 -24 -9 -32 3 -41 -3 -80 -11 -80
-15 0 -9 94 7 113 19 22 25 22 13 -1z m204 -49 c1 -24 -2 -28 -23 -28 -21 0
-27 -7 -34 -34 -5 -19 -8 -59 -6 -90 4 -49 7 -58 31 -69 26 -13 26 -13 10 -47
-18 -38 -39 -45 -47 -17 -13 43 -15 149 -5 210 18 100 69 153 74 75z m-261
-95 c13 -211 15 -298 7 -298 -15 0 -22 60 -28 233 -4 113 -2 167 5 167 6 0 13
-42 16 -102z m-46 -25 c0 -54 3 -131 7 -170 6 -74 0 -88 -26 -56 -20 23 -27
302 -7 314 7 5 16 9 19 9 3 0 6 -44 7 -97z m129 75 c-3 -8 -6 -5 -6 6 -1 11 2
17 5 13 3 -3 4 -12 1 -19z m-197 -75 c1 -32 3 -93 7 -136 5 -69 4 -77 -11 -71
-13 5 -16 23 -17 98 0 50 -2 104 -4 120 -4 32 1 46 16 46 5 0 9 -26 9 -57z
m-55 35 c9 -22 12 -199 4 -204 -9 -5 -16 34 -23 139 -4 49 -2 77 4 77 6 0 13
-6 15 -12z m211 -15 c-10 -10 -19 5 -10 18 6 11 8 11 12 0 2 -7 1 -15 -2 -18z
m-418 -74 c-1 -49 -5 -92 -10 -95 -5 -3 -8 37 -7 90 1 53 6 96 11 96 5 0 8
-41 6 -91z m44 39 c-9 -9 -12 -4 -11 23 0 32 1 33 11 11 8 -17 8 -26 0 -34z
m109 35 c0 -10 2 -46 6 -80 3 -42 1 -63 -6 -63 -13 0 -19 26 -25 103 -4 45 -1
57 10 57 8 0 14 -8 15 -17z m-51 -2 c0 -6 -4 -13 -10 -16 -5 -3 -10 1 -10 9 0
9 5 16 10 16 6 0 10 -4 10 -9z m320 -26 c0 -8 -4 -15 -10 -15 -5 0 -7 7 -4 15
4 8 8 15 10 15 2 0 4 -7 4 -15z m-380 -105 c0 -11 -4 -20 -8 -20 -4 0 -8 9 -8
20 0 11 4 20 8 20 4 0 8 -9 8 -20z m389 -88 c1 -29 -2 -51 -7 -48 -4 2 -8 35
-9 73 -2 47 0 62 7 48 5 -11 9 -44 9 -73z m-266 -71 c49 -7 97 -21 127 -37 67
-36 154 -116 174 -159 9 -19 20 -35 24 -35 8 0 32 -52 38 -84 3 -11 11 -39 19
-63 38 -110 -4 -292 -92 -402 -49 -61 -60 -72 -118 -113 -68 -47 -119 -65
-212 -77 -377 -47 -671 335 -526 684 44 106 135 203 235 252 104 52 162 58
331 34z m295 -41 c7 0 12 5 12 11 0 7 9 0 20 -14 11 -14 20 -35 20 -47 0 -21
-4 -19 -44 16 -24 22 -47 45 -50 53 -5 11 -2 10 12 -2 10 -9 24 -17 30 -17z
m118 -869 c-3 -29 -6 -55 -9 -57 -2 -2 -17 2 -34 8 -26 10 -35 9 -57 -5 -14
-9 -27 -17 -28 -17 -2 0 -4 18 -5 40 -3 49 12 60 26 19 8 -24 14 -29 24 -21 7
6 22 9 34 6 15 -4 22 0 26 18 10 34 8 101 -2 117 -6 9 -5 24 2 40 11 23 13 21
20 -35 4 -32 6 -83 3 -113z m-58 35 c2 -16 -1 -33 -7 -39 -8 -8 -11 -5 -11 10
0 12 -4 24 -10 28 -12 8 -1 37 14 32 6 -2 12 -16 14 -31z m-103 -164 c1 -53 5
-134 10 -179 8 -85 2 -100 -26 -65 -12 13 -14 51 -13 173 1 144 7 190 22 175
3 -4 6 -50 7 -104z m-56 -71 c1 -122 -9 -172 -23 -116 -8 32 5 245 14 245 5 0
8 -58 9 -129z m181 115 c0 -2 3 -11 6 -20 4 -11 0 -16 -14 -16 -27 0 -32 -10
-39 -68 -4 -38 -1 -52 17 -75 26 -32 41 -34 58 -7 7 12 17 18 22 15 18 -11 23
46 7 80 -13 28 -14 35 -3 45 21 16 66 -80 66 -139 0 -74 -8 -90 -56 -112 -43
-19 -44 -21 -44 -66 0 -57 -16 -48 -26 14 -6 41 -5 44 23 55 39 17 79 66 81
101 2 33 -15 36 -28 5 -14 -35 -38 -61 -48 -54 -6 3 -12 1 -14 -5 -8 -25 -47
3 -63 46 -17 43 -16 82 4 198 1 7 51 10 51 3z m-232 -116 c-2 -77 -7 -110 -15
-110 -17 0 -26 37 -18 78 4 21 7 61 6 90 -1 40 3 52 14 52 13 0 15 -18 13
-110z m434 60 c3 -17 1 -33 -4 -36 -4 -3 -8 11 -8 30 0 44 6 47 12 6z m-488
-17 c-2 -21 -3 -57 -3 -81 -1 -30 -5 -42 -13 -40 -9 3 -14 31 -15 81 -3 69 -1
77 16 77 15 0 17 -7 15 -37z m-276 -42 c1 -33 -3 -63 -8 -66 -6 -4 -10 21 -10
65 0 86 15 87 18 1z m212 19 c0 -27 -4 -50 -9 -50 -13 0 -19 28 -16 65 3 36 3
35 15 35 6 0 10 -22 10 -50z m-163 3 c1 -34 0 -35 -8 -14 -9 22 -6 51 4 51 2
0 3 -17 4 -37z m98 27 c3 -6 -1 -7 -9 -4 -18 7 -21 14 -7 14 6 0 13 -4 16 -10z
m444 -32 c11 -30 8 -32 -21 -16 -12 7 -25 14 -27 15 -1 1 0 6 4 12 11 19 35
12 44 -11z m-480 -67 c-3 -6 -10 -7 -18 -2 -7 5 -10 14 -6 21 9 14 29 -2 24
-19z m615 -79 c0 -41 -6 -54 -34 -84 l-33 -35 -3 -174 c-5 -255 -5 -310 6
-459 5 -74 12 -233 15 -354 3 -141 9 -224 16 -232 15 -18 44 -18 63 1 13 14
15 12 13 -12 -1 -16 -5 -26 -7 -24 -3 2 -16 -1 -29 -8 -20 -11 -23 -19 -18
-51 2 -20 1 -44 -4 -51 -6 -9 -9 4 -9 37 0 35 -5 54 -14 57 -8 3 -16 3 -19 1
-3 -3 -3 -84 -1 -180 3 -105 1 -174 -5 -174 -16 0 -19 48 -17 230 1 96 -4 254
-12 350 -8 96 -15 248 -16 337 0 88 -5 165 -9 170 -11 10 -39 -26 -30 -40 3
-5 7 -91 9 -191 1 -100 5 -194 8 -211 15 -87 28 -525 15 -525 -11 0 -23 39
-25 85 -2 22 -8 219 -15 438 -11 371 -11 400 6 445 10 26 25 53 33 60 13 10
17 42 22 160 3 81 3 165 0 187 -8 66 6 148 30 167 23 19 50 77 50 108 0 11 3
20 8 20 4 0 7 -22 6 -48z m-216 -24 c9 -10 17 -44 19 -79 l4 -61 -24 28 c-18
22 -26 46 -31 99 -5 55 -4 66 5 50 7 -11 19 -28 27 -37z m-275 -27 c21 -7 61
-29 90 -48 137 -92 201 -224 192 -392 -9 -157 -119 -305 -265 -359 -201 -73
-414 3 -524 187 -43 72 -57 136 -53 236 8 166 119 317 277 375 38 13 232 29
240 19 3 -3 22 -12 43 -18z m537 -31 c0 -5 -13 -22 -30 -37 -16 -14 -30 -32
-30 -40 0 -7 -4 -13 -10 -13 -22 0 -8 34 27 66 40 37 43 39 43 24z m-5 -265
c-1 -16 -3 -48 -3 -69 -4 -79 -14 -24 -19 99 -6 146 7 203 18 80 3 -44 6 -93
4 -110z m-189 117 c-12 -12 -18 8 -10 35 l8 28 4 -28 c2 -16 1 -31 -2 -35z
m131 -20 c4 -23 5 -144 2 -157 -2 -5 1 -30 5 -54 5 -24 10 -170 12 -325 2
-154 5 -292 7 -306 3 -14 5 -31 6 -37 0 -7 8 -13 17 -13 12 0 15 -6 11 -22 -3
-13 -9 -44 -12 -70 -8 -52 -29 -81 -37 -51 -2 10 -5 119 -7 242 -1 124 -4 227
-6 230 -5 9 -18 222 -18 301 0 194 4 293 10 286 4 -3 8 -14 10 -24z m-2282
-61 c17 -10 31 -25 33 -34 4 -22 -28 -15 -41 9 -6 10 -18 24 -26 31 -24 18 0
14 34 -6z m-71 -6 c-4 -8 -10 -15 -15 -15 -4 0 -6 7 -3 15 4 8 10 15 15 15 4
0 6 -7 3 -15z m-104 -41 c0 -14 -3 -15 -17 -3 -10 7 -20 15 -22 16 -2 2 5 3
17 3 14 0 22 -6 22 -16z m67 -37 c-2 -7 -11 -13 -20 -15 -12 -3 -17 4 -17 23
0 23 2 25 21 15 11 -6 18 -17 16 -23z m-227 4 c0 -17 -18 -21 -24 -6 -3 9 0
15 9 15 8 0 15 -4 15 -9z m336 -16 c6 -16 -15 -50 -24 -40 -3 3 -7 16 -8 30
-3 28 23 36 32 10z m-446 -44 c0 -11 -5 -23 -11 -27 -15 -9 -33 12 -26 30 9
23 37 20 37 -3z m258 -18 c-5 -23 -23 -20 -26 4 -3 18 0 21 13 17 9 -4 15 -13
13 -21z m-68 -3 c0 -13 -7 -20 -20 -20 -25 0 -26 16 -2 29 23 14 22 14 22 -9z
m163 -46 c-4 -12 -8 -13 -14 -3 -9 15 -2 32 11 24 5 -3 6 -13 3 -21z m132 17
c3 -5 1 -12 -5 -16 -14 -9 -52 4 -45 16 8 12 42 12 50 0z m-377 -42 c-4 -27
-23 -36 -32 -14 -8 22 13 60 26 47 5 -5 8 -20 6 -33z m-100 -1 c-3 -7 -13 -15
-24 -17 -16 -3 -17 -1 -5 13 16 19 34 21 29 4z m-90 -26 c3 -17 -2 -22 -17
-22 -14 0 -21 6 -21 18 0 38 33 41 38 4z m282 19 c0 -5 -7 -14 -16 -22 -13
-10 -17 -10 -24 1 -5 8 -6 18 -4 22 7 11 44 10 44 -1z m220 -11 c0 -5 -5 -10
-11 -10 -5 0 -7 5 -4 10 3 6 8 10 11 10 2 0 4 -4 4 -10z m68 -12 c17 -17 15
-48 -3 -48 -12 0 -14 4 -6 17 7 13 5 21 -7 30 -10 7 -12 13 -6 13 5 0 15 -5
22 -12z m-124 -34 c4 -15 2 -32 -5 -40 -13 -16 -39 -19 -39 -4 0 6 9 10 20 10
21 0 28 24 10 35 -12 8 -13 25 -1 25 5 0 12 -12 15 -26z m396 4 c0 -16 -3 -19
-11 -11 -6 6 -8 16 -5 22 11 17 16 13 16 -11z m-481 -37 c-13 -16 -30 -32 -38
-36 -37 -15 -75 31 -51 60 17 21 30 19 30 -5 0 -28 25 -25 45 6 12 18 20 23
27 16 7 -7 3 -20 -13 -41z m-269 29 c0 -12 -33 -30 -55 -30 -24 0 -12 23 16
31 35 10 39 10 39 -1z m427 -19 c17 -27 49 -32 77 -10 29 22 40 13 50 -42 4
-26 13 -38 27 -42 15 -4 19 -11 15 -25 -8 -23 20 -56 40 -48 20 8 17 -8 -5
-28 -17 -15 -20 -15 -34 -2 -12 12 -54 15 -62 4 -1 -2 -19 -35 -40 -75 -47
-88 -82 -117 -121 -103 -15 6 -32 18 -39 26 -7 11 -19 13 -38 9 -37 -10 -34
-32 8 -49 37 -16 46 -40 20 -50 -10 -4 -15 -16 -13 -33 3 -25 0 -28 -22 -24
-28 3 -124 81 -142 114 -6 12 -17 25 -24 30 -7 4 -10 19 -8 35 11 65 2 89 -22
57 -27 -35 2 -199 43 -246 16 -19 9 -61 -16 -96 -23 -32 -29 -28 -28 20 2 96
-52 231 -125 315 -31 37 -30 42 20 86 59 53 78 60 102 36 11 -11 25 -20 30
-20 15 0 12 36 -5 50 -8 7 -15 22 -15 34 0 16 2 18 9 7 8 -12 12 -12 25 -2 17
14 16 17 19 -39 1 -15 8 -25 17 -25 8 0 21 -4 27 -8 7 -4 29 -5 49 -1 36 7 61
41 50 70 -3 7 2 10 15 7 28 -8 65 21 72 56 7 35 26 40 44 12z m160 -23 c-3 -8
-6 -5 -6 6 -1 11 2 17 5 13 3 -3 4 -12 1 -19z m-687 -25 c0 -20 -24 -11 -28
10 -2 12 1 15 12 11 9 -3 16 -13 16 -21z m87 -29 c-9 -9 -28 6 -21 18 4 6 10
6 17 -1 6 -6 8 -13 4 -17z m263 -14 c0 -5 -7 -10 -15 -10 -8 0 -15 5 -15 10 0
6 7 10 15 10 8 0 15 -4 15 -10z m2529 -162 c-1 -74 -4 -117 -8 -98 -3 19 -6
53 -5 75 2 121 4 155 9 155 3 0 4 -60 4 -132z m-243 -35 c3 -81 7 -211 8 -288
2 -77 6 -183 10 -235 l8 -95 -21 22 c-19 20 -21 37 -26 245 -5 227 -12 375
-21 437 -3 23 1 40 13 53 9 10 18 16 20 14 3 -2 7 -71 9 -153z m-2896 123 c0
-7 -6 -28 -14 -46 l-13 -32 -7 26 c-4 15 -1 34 6 46 15 23 28 26 28 6z m1040
-67 c0 -5 -7 -9 -15 -9 -15 0 -20 12 -9 23 8 8 24 -1 24 -14z m1784 -39 c4
-33 9 -156 12 -273 2 -116 6 -221 9 -232 2 -11 0 -27 -5 -34 -7 -12 -11 -13
-25 -1 -11 9 -12 15 -5 20 14 9 14 1 -4 303 -9 142 -14 263 -10 268 13 21 22
5 28 -51z m-2561 18 c26 -26 106 -165 123 -214 10 -27 17 -71 16 -99 -1 -27 4
-60 10 -72 22 -43 108 -37 108 8 0 12 10 23 25 29 14 5 37 22 51 37 l25 28
-26 -42 c-19 -29 -27 -57 -28 -95 -2 -53 -2 -53 -39 -59 -20 -3 -43 -11 -51
-17 -8 -7 -16 -10 -18 -8 -2 3 -2 -16 0 -40 2 -27 -1 -44 -8 -44 -6 0 -11 15
-11 33 0 41 -8 53 -44 67 -24 9 -32 8 -44 -4 -13 -12 -13 -18 -2 -30 7 -9 20
-16 29 -16 11 0 16 -9 17 -30 1 -36 -7 -32 -46 26 -26 37 -29 45 -16 50 21 8
20 38 0 58 -25 25 -55 124 -61 200 -6 74 -17 100 -39 92 -15 -6 -24 15 -24 54
0 18 -8 33 -25 44 -21 14 -23 19 -14 45 9 26 13 28 44 21 19 -4 40 -14 48 -22z
m677 0 c0 -13 -23 -5 -28 10 -2 7 2 10 12 6 9 -3 16 -11 16 -16z m-892 -10
c-2 -6 -10 -14 -16 -16 -7 -2 -10 2 -6 12 7 18 28 22 22 4z m2712 3 c0 -6 -4
-13 -10 -16 -5 -3 -10 1 -10 9 0 9 5 16 10 16 6 0 10 -4 10 -9z m-43 -172 c5
-99 -1 -188 -13 -176 -8 8 -23 310 -17 321 12 19 24 -40 30 -145z m43 94 c0
-55 -5 -54 -14 5 -4 26 -2 42 4 42 5 0 10 -21 10 -47z m-119 -5 c1 -55 8 -161
14 -205 4 -42 -6 -56 -22 -30 -4 6 -8 41 -9 77 0 36 -2 70 -4 75 -1 6 -2 34
-1 63 1 56 20 74 22 20z m-2487 -24 c10 -39 36 -74 55 -74 14 0 17 -7 13 -31
l-4 -30 -17 22 c-9 12 -25 32 -37 44 -12 13 -24 42 -28 65 -7 45 7 48 18 4z
m2221 -165 c0 -140 -3 -193 -12 -196 -9 -3 -12 42 -12 182 0 177 3 220 18 211
3 -2 6 -91 6 -197z m74 184 c0 -10 2 -95 5 -189 5 -145 4 -173 -9 -178 -8 -3
-16 -2 -18 2 -2 4 -4 85 -5 181 -1 95 -4 177 -7 181 -3 5 1 11 7 13 22 9 27 7
27 -10z m67 -8 c13 -12 12 -15 -5 -24 -15 -8 -20 -7 -25 5 -6 15 0 34 10 34 3
0 12 -7 20 -15z m64 6 c0 -6 -4 -13 -10 -16 -5 -3 -10 1 -10 9 0 9 5 16 10 16
6 0 10 -4 10 -9z m-1507 -41 c4 -4 9 -16 10 -27 0 -11 6 -20 12 -21 5 -1 24
-4 41 -8 24 -4 32 -2 40 14 7 16 14 18 32 11 22 -8 22 -10 7 -33 -9 -14 -18
-33 -20 -43 -2 -10 -4 -19 -4 -20 -1 -1 -16 3 -33 9 -18 5 -53 12 -77 14 -54
5 -56 7 -75 46 -15 28 -15 34 -1 55 16 23 45 25 68 3z m1510 -70 c-7 -8 -22
24 -16 34 4 5 10 1 13 -10 4 -10 6 -21 3 -24z m-53 -12 c24 -50 24 -52 6 -45
-7 3 -19 0 -25 -6 -13 -13 -12 -15 -16 46 -2 26 1 47 6 47 5 0 18 -19 29 -42z
m-1237 5 c7 -12 -31 -93 -43 -93 -15 0 -12 53 6 78 15 22 29 28 37 15z m1481
-148 c4 -77 9 -149 13 -160 5 -19 4 -19 -13 -2 -15 14 -19 34 -20 125 -1 99 5
187 11 180 1 -2 6 -66 9 -143z m-3217 63 c-3 -8 -6 -5 -6 6 -1 11 2 17 5 13 3
-3 4 -12 1 -19z m1546 13 l25 -10 -18 -63 c-10 -35 -30 -94 -45 -133 -15 -38
-32 -87 -38 -107 -10 -36 -14 -38 -50 -38 -30 0 -37 3 -30 13 6 6 20 46 32 87
12 41 35 109 50 150 16 41 31 83 34 93 7 20 8 20 40 8z m1407 -11 c0 -5 -4
-10 -10 -10 -5 0 -10 5 -10 10 0 6 5 10 10 10 6 0 10 -4 10 -10z m60 -10 c0
-16 -48 -108 -60 -115 -6 -4 -10 15 -10 51 0 48 2 55 14 44 12 -9 17 -7 28 9
14 22 28 28 28 11z m-2525 -46 c64 -26 115 -106 115 -179 0 -17 9 -54 19 -83
19 -51 19 -52 0 -52 -20 0 -22 -21 -22 -194 l0 -58 -47 6 c-43 6 -50 4 -79
-23 -40 -38 -41 -74 -1 -111 17 -15 30 -31 30 -35 0 -4 -25 -35 -56 -68 -65
-71 -81 -103 -90 -184 -3 -32 -12 -75 -20 -97 -13 -35 -13 -40 2 -57 20 -23
47 -24 64 -4 14 17 5 35 -17 35 -13 0 -13 3 -2 16 7 9 14 44 15 82 1 37 8 83
16 102 17 39 129 156 159 165 10 4 19 13 19 21 0 18 36 54 54 54 7 0 25 9 39
20 14 11 31 20 38 20 6 0 -6 -13 -28 -29 -60 -43 -120 -118 -158 -197 -39 -80
-45 -131 -22 -186 l16 -38 -29 0 c-33 0 -45 -16 -55 -73 -7 -33 -10 -36 -32
-31 -15 4 -28 2 -33 -5 -12 -20 -77 25 -89 61 -6 17 -9 33 -6 36 2 3 -3 17
-12 32 -14 24 -14 34 -4 71 7 24 16 63 21 86 11 51 34 97 61 124 21 21 70 123
74 152 1 12 -5 17 -22 17 -25 0 -26 -1 -43 -67 -6 -24 -22 -55 -36 -70 l-25
-28 6 51 c13 105 9 174 -10 192 -10 9 -15 11 -11 5 4 -7 3 -13 -2 -13 -5 0 -9
-33 -9 -72 1 -93 -11 -177 -34 -253 -9 -33 -20 -93 -23 -133 -2 -41 -7 -76
-10 -80 -13 -12 -55 19 -85 63 -35 51 -37 60 -17 52 19 -7 28 17 13 32 -9 9
-6 17 13 31 24 18 25 23 25 133 0 111 1 114 30 153 31 40 55 95 55 127 0 10
15 33 34 52 24 23 33 40 29 54 -6 23 15 91 28 91 5 0 9 7 9 15 0 40 -75 -12
-77 -53 0 -12 -1 -34 -2 -48 -1 -20 -5 -24 -20 -19 -15 4 -20 -3 -30 -42 -7
-27 -19 -60 -27 -76 -9 -15 -13 -31 -9 -37 3 -5 -5 -16 -19 -25 -31 -21 -39
-59 -38 -177 1 -54 -2 -98 -7 -98 -25 0 -27 113 -4 230 9 47 17 136 18 201 l0
115 45 70 c49 77 54 81 90 90 40 10 51 23 40 45 -8 14 -17 17 -40 12 -25 -4
-30 -2 -30 14 0 18 69 72 97 74 7 1 22 2 32 3 11 0 22 4 26 8 9 8 58 0 100
-18z m2669 -67 c5 -55 -8 -62 -24 -12 -9 27 -9 37 2 49 17 18 17 18 22 -37z
m-75 -8 c13 -37 8 -49 -18 -42 -16 4 -18 9 -11 28 13 35 -14 40 -40 8 -26 -34
-26 -10 1 28 16 23 24 27 39 19 10 -5 23 -24 29 -41z m-1796 -37 c9 -10 18
-44 21 -86 6 -79 -3 -98 -60 -116 -36 -12 -39 -17 -25 -39 7 -11 14 -11 42 4
19 9 66 19 104 21 85 6 71 -6 -38 -31 -77 -18 -101 -35 -80 -56 7 -7 17 -7 29
-1 24 13 153 44 178 44 10 -1 21 -3 24 -7 8 -8 -15 -28 -35 -30 -49 -5 -104
-18 -109 -26 -3 -6 -13 -7 -22 -5 -10 3 -24 1 -32 -4 -13 -9 -13 -11 -1 -19 8
-5 19 -7 26 -5 6 3 23 1 36 -5 18 -6 30 -5 44 5 20 15 77 16 72 1 -4 -13 -95
-49 -126 -51 -13 0 -26 -6 -28 -13 -7 -20 43 -26 78 -9 47 24 103 32 97 15 -5
-17 -115 -77 -143 -78 -11 -1 -38 -22 -61 -49 -42 -48 -92 -72 -151 -72 -34 0
-58 -14 -49 -28 3 -6 -4 -22 -16 -36 -13 -14 -36 -41 -52 -61 -16 -20 -35 -34
-42 -31 -8 3 -13 2 -11 -2 1 -4 -2 -8 -7 -9 -5 -1 -12 -5 -15 -10 -10 -15 -94
-68 -126 -80 -52 -20 -83 -24 -91 -12 -11 19 -14 115 -3 146 5 15 14 47 20 71
12 50 54 101 88 107 13 2 34 11 46 19 13 8 31 15 41 16 44 1 64 5 64 11 0 4
11 9 24 13 36 9 99 73 161 165 38 56 53 87 47 93 -19 19 -40 0 -80 -69 -48
-80 -110 -146 -107 -113 1 11 13 32 27 48 40 43 67 105 79 184 14 93 41 150
88 182 44 30 53 31 74 8z m-1343 -132 c-18 -18 -29 -35 -24 -39 14 -9 11 -51
-5 -60 -8 -5 -11 -16 -7 -29 4 -11 2 -23 -4 -27 -5 -3 -10 -15 -10 -26 0 -10
-6 -18 -12 -16 -7 1 -13 -5 -13 -13 0 -9 -10 -29 -22 -45 -18 -24 -22 -26 -23
-12 0 10 -5 15 -10 12 -6 -4 -8 -11 -5 -16 4 -5 -1 -9 -10 -9 -11 0 -15 6 -12
18 3 9 13 50 23 90 13 53 22 72 34 72 11 0 34 34 66 95 48 93 49 95 58 66 7
-26 4 -33 -24 -61z m1033 35 c-15 -19 -29 -33 -30 -31 -2 2 4 19 12 39 10 25
20 35 30 31 11 -5 9 -13 -12 -39z m2151 -5 c147 -62 251 -197 277 -359 6 -39
8 -85 4 -103 -3 -18 -7 -42 -9 -53 -2 -11 -9 -33 -15 -50 -65 -170 -193 -277
-370 -307 -253 -43 -510 158 -528 414 -11 147 33 262 143 375 30 31 54 53 54
50 0 -3 29 8 65 24 91 41 128 49 220 45 63 -3 97 -11 159 -36z m458 5 c5 -85
-1 -170 -11 -159 -18 17 -18 184 -1 184 6 0 11 -11 12 -25z m-58 -70 c-4 -8
-8 -15 -10 -15 -2 0 -4 7 -4 15 0 8 4 15 10 15 5 0 7 -7 4 -15z m26 -210 c19
-46 22 -128 26 -695 3 -485 2 -522 -12 -490 -14 30 -17 100 -19 494 -1 290 -6
460 -12 465 -13 8 -12 1 -18 226 -4 185 -4 188 9 110 8 -44 19 -93 26 -110z
m-2987 -126 c28 -2 29 -2 7 -6 -14 -3 -35 -14 -48 -26 -19 -18 -25 -19 -32 -7
-12 19 7 53 27 46 8 -3 29 -7 46 -7z m799 -31 c-7 -7 -12 -21 -12 -33 0 -12
-7 -30 -15 -41 -8 -10 -15 -27 -15 -36 0 -27 -57 -28 -77 -1 -11 14 -7 20 20
39 17 13 36 27 40 33 42 46 59 62 64 57 4 -4 1 -12 -5 -18z m78 -3 c0 -16 -6
-25 -15 -25 -18 0 -18 5 -5 31 14 26 20 24 20 -6z m2050 -30 c0 -8 -4 -15 -10
-15 -5 0 -7 7 -4 15 4 8 8 15 10 15 2 0 4 -7 4 -15z m-3705 -19 c0 0 6 -12 14
-26 16 -27 24 -157 11 -165 -4 -3 -14 2 -21 11 -9 11 -22 13 -51 9 -31 -6 -39
-3 -45 11 -4 10 -2 19 5 22 25 8 44 34 33 45 -14 14 -14 54 -1 62 6 4 8 11 5
16 -11 16 6 30 28 23 12 -3 22 -7 22 -8z m3717 -446 c1 -225 -1 -413 -4 -416
-3 -3 -15 8 -27 25 -12 16 -18 32 -14 34 13 8 7 681 -6 685 -7 2 -6 12 4 32 8
16 15 37 15 48 0 26 12 36 22 18 5 -8 9 -200 10 -426z m-3527 420 c3 -5 -1
-10 -9 -10 -9 0 -16 5 -16 10 0 6 4 10 9 10 6 0 13 -4 16 -10z m728 -36 c-10
-19 -19 -31 -21 -26 -4 14 16 62 28 62 5 0 2 -16 -7 -36z m-58 -21 c-22 -77
-37 -144 -47 -203 -12 -70 -22 -80 -43 -40 -20 39 -9 102 31 182 23 45 64 108
70 108 1 0 -4 -21 -11 -47z m900 1 c20 -49 19 -51 -10 -22 -16 16 -23 32 -19
42 9 23 12 21 29 -20z m-91 17 c4 -5 0 -12 -6 -15 -11 -5 -11 -7 0 -12 6 -3
10 -10 6 -15 -7 -12 -64 -12 -64 1 0 6 -7 10 -16 10 -14 0 -14 3 -4 15 7 9 19
14 25 11 7 -2 18 0 26 5 18 11 26 11 33 0z m-274 -7 c0 -3 -15 -25 -32 -47
-48 -59 -58 -84 -65 -149 -3 -32 -10 -58 -14 -58 -17 0 -79 63 -79 79 0 10 38
55 85 99 75 73 105 95 105 76z m159 -40 c5 3 11 -1 15 -9 3 -10 -1 -15 -13
-15 -32 0 -50 11 -44 26 4 11 9 12 19 3 7 -6 17 -8 23 -5z m656 6 c8 -13 -5
-13 -25 0 -13 8 -13 10 2 10 9 0 20 -4 23 -10z m-771 -34 c-3 -8 0 -17 6 -21
7 -4 2 -17 -14 -36 -13 -15 -27 -42 -31 -59 -4 -17 -10 -28 -15 -25 -4 3 -6
15 -3 28 8 36 47 127 55 127 4 0 5 -6 2 -14z m301 -55 c-7 -7 36 -51 50 -51
24 0 85 -68 85 -94 0 -32 22 -34 50 -6 11 11 28 20 38 20 11 0 26 8 36 19 10
11 25 16 40 14 13 -3 43 5 67 16 50 24 61 17 57 -39 -3 -30 -7 -35 -28 -36
-14 -1 -30 3 -37 8 -7 5 -22 8 -35 6 -32 -4 -31 -40 2 -48 24 -6 126 4 163 16
28 9 19 -10 -14 -28 -17 -10 -50 -18 -73 -18 -32 0 -48 -6 -66 -25 -13 -14
-29 -25 -37 -25 -7 0 -37 16 -67 35 -55 35 -89 44 -101 25 -3 -6 8 -18 25 -28
18 -9 48 -27 67 -39 51 -34 118 -27 148 14 19 26 50 2 51 -39 1 -21 -2 -35 -7
-33 -4 3 -45 8 -91 11 -68 4 -86 9 -101 26 -13 15 -32 22 -70 25 -28 2 -72 8
-97 13 -25 6 -47 10 -50 9 -3 -1 -16 4 -30 11 -14 8 -31 15 -38 16 -6 1 -32
12 -57 24 -24 12 -65 23 -91 26 -26 2 -51 7 -56 10 -13 8 -1 72 20 106 23 37
106 98 134 99 13 0 32 4 43 9 15 6 27 1 47 -18 15 -14 26 -28 23 -31z m1907
22 c-5 -10 -10 -155 -11 -322 -2 -242 0 -306 11 -312 8 -6 -1 -9 -25 -9 l-38
0 3 93 c1 50 -2 111 -6 135 -7 36 -6 42 8 42 14 0 16 17 15 158 -1 133 1 163
17 195 10 20 22 37 26 37 5 0 5 -8 0 -17z m-2150 -26 c-12 -13 -31 -41 -42
-63 -23 -46 -27 -32 -5 19 15 37 54 81 63 72 3 -3 -4 -15 -16 -28z m-1197 13
c3 -5 1 -10 -4 -10 -6 0 -11 5 -11 10 0 6 2 10 4 10 3 0 8 -4 11 -10z m582
-182 c-3 -75 -15 -107 -35 -94 -6 3 -8 15 -5 26 3 11 8 18 12 16 4 -3 7 7 6
21 0 15 -5 28 -11 30 -8 3 -9 16 -3 41 4 20 11 60 15 87 l7 50 8 -50 c5 -27 7
-85 6 -127z m-949 151 c26 3 122 -29 122 -41 0 -4 14 -8 30 -8 30 0 70 29 70
51 0 8 5 7 16 -2 14 -11 13 -14 -6 -29 -14 -10 -19 -22 -14 -33 7 -19 29 -23
39 -7 7 12 35 14 35 2 0 -4 -13 -12 -29 -18 -21 -9 -38 -8 -67 2 -22 8 -45 14
-52 14 -8 0 -30 7 -49 16 -26 13 -50 15 -98 11 -45 -4 -65 -3 -68 6 -6 17 23
48 37 40 6 -4 21 -6 34 -4z m1409 -31 c-3 -7 -5 -2 -5 12 0 14 2 19 5 13 2 -7
2 -19 0 -25z m977 -14 c21 -20 20 -28 -6 -58 -29 -33 -57 -22 -38 13 10 20 9
23 -9 28 -12 3 -21 12 -21 19 0 19 55 18 74 -2z m1247 -46 c7 -44 -6 -244 -14
-221 -12 33 -65 73 -96 73 -27 0 -46 -13 -90 -65 -45 -54 -64 -161 -42 -235
16 -52 14 -72 -6 -68 -22 4 -28 54 -28 238 0 92 4 134 12 137 8 3 9 -6 1 -36
-8 -31 -7 -45 2 -56 18 -22 32 -7 28 32 -2 22 3 37 12 43 13 8 12 10 -2 10
-10 0 -18 5 -18 10 0 20 38 10 43 -11 9 -33 32 -17 32 22 0 40 29 54 38 18 8
-31 32 -17 33 19 1 52 21 61 29 14 3 -22 13 -43 21 -46 15 -6 16 0 16 69 -1
47 6 75 18 75 4 0 9 -10 11 -22z m-3501 -18 c41 -12 76 -23 78 -24 5 -5 -102
-19 -138 -18 -53 3 -155 36 -158 53 -4 22 126 16 218 -11z m1036 -21 c-9 -76
-49 -139 -90 -139 -19 0 -19 2 6 23 37 31 68 86 68 123 0 28 6 44 17 44 3 0 2
-23 -1 -51z m1249 -21 c-12 -40 -33 -66 -80 -98 -51 -35 -58 -26 -17 22 16 18
32 45 36 60 5 24 19 34 54 37 9 1 11 -6 7 -21z m-1381 -18 c10 0 26 5 37 10
33 18 22 -9 -21 -52 -21 -22 -44 -37 -50 -33 -6 4 -9 29 -8 56 2 39 5 46 14
34 6 -8 19 -15 28 -15z m-1080 -6 c20 -5 23 -13 25 -57 2 -53 28 -121 46 -119
6 0 13 11 17 24 3 13 6 16 7 8 1 -9 28 -49 62 -90 34 -41 67 -87 75 -102 8
-16 20 -28 26 -28 16 0 137 -118 129 -126 -3 -4 0 -4 6 0 7 4 25 0 40 -8 16
-8 51 -25 78 -36 28 -11 59 -26 70 -32 28 -16 115 -17 152 -1 18 7 42 13 54
13 24 0 81 25 121 52 16 11 65 34 110 51 75 29 89 32 147 25 35 -4 79 -14 96
-23 18 -8 36 -15 41 -15 4 0 16 -8 26 -17 12 -10 22 -13 26 -8 4 6 18 10 32
11 40 1 104 15 118 26 8 7 16 7 25 1 20 -16 85 -3 109 22 17 18 23 37 24 82 3
72 36 178 66 210 19 20 20 25 8 33 -9 6 -10 10 -3 10 6 0 13 7 15 15 2 9 8 11
16 6 10 -6 10 -19 2 -62 -6 -30 -16 -65 -22 -79 -5 -14 -16 -38 -23 -55 -16
-37 -28 -72 -51 -150 -27 -93 -33 -103 -59 -97 -14 2 -22 9 -19 17 3 7 0 16
-6 20 -15 9 -67 -13 -74 -32 -4 -8 -12 -13 -20 -10 -8 3 -17 3 -21 -1 -4 -4
-79 -7 -168 -7 -146 0 -168 -2 -222 -23 -33 -13 -69 -27 -80 -32 -103 -39
-156 -71 -225 -136 -102 -96 -124 -107 -197 -94 -48 8 -71 13 -90 19 -2 1 -6
1 -10 2 -5 0 -15 7 -24 15 -29 26 -81 28 -112 4 -15 -12 -27 -29 -27 -38 -1
-44 -41 -59 -98 -37 -20 7 -64 19 -97 26 -33 6 -75 22 -95 35 -19 13 -38 24
-42 24 -15 0 -47 34 -41 43 3 6 1 7 -5 3 -7 -4 -22 9 -37 32 -25 38 -25 42
-20 168 8 221 16 318 30 382 6 26 4 32 -8 32 -40 0 -53 -69 -62 -321 -3 -85
-8 -169 -11 -187 -3 -22 0 -42 11 -59 21 -32 8 -48 -28 -34 -45 17 -48 33 -32
198 3 34 14 97 25 140 10 43 26 116 35 163 19 98 48 166 75 175 10 3 22 15 25
26 4 13 12 18 22 15 8 -3 25 -9 37 -12z m876 -14 c0 -5 7 -10 16 -10 12 0 15
-7 12 -25 -3 -14 -1 -28 3 -31 14 -8 11 -21 -6 -28 -20 -7 -87 24 -93 43 -3 9
0 11 8 6 10 -6 12 -4 7 8 -6 16 8 22 35 18 4 0 5 6 2 14 -4 8 -1 15 5 15 6 0
11 -4 11 -10z m2276 -192 c5 -129 -2 -218 -16 -218 -5 0 -8 84 -8 186 1 208
16 228 24 32z m-696 128 c0 -15 -82 -86 -99 -86 -22 0 -10 19 37 59 50 44 62
49 62 27z m909 -231 c1 -98 -1 -137 -9 -129 -13 13 -26 335 -15 360 12 28 22
-62 24 -231z m-1889 225 c0 -5 -4 -10 -10 -10 -5 0 -10 5 -10 10 0 6 5 10 10
10 6 0 10 -4 10 -10z m1744 -27 c-7 -70 -6 -268 1 -286 12 -30 40 -16 38 18
-5 66 -3 222 3 263 4 23 11 42 18 42 10 0 13 -54 20 -325 1 -28 -3 -39 -12
-37 -7 1 -29 4 -49 7 -20 2 -37 6 -39 7 -2 3 -6 235 -5 311 1 25 6 37 15 37
10 0 13 -10 10 -37z m-3562 -121 c-1 -85 2 -143 8 -147 15 -9 12 -62 -4 -68
-11 -5 -14 -22 -13 -72 2 -72 -8 -87 -53 -83 -21 3 -25 8 -25 34 0 39 -30 74
-63 74 -30 0 -72 -36 -72 -62 0 -22 -9 -23 -38 -3 -12 9 -34 15 -48 13 -25 -3
-28 1 -40 47 -20 76 -18 104 9 109 12 3 34 7 48 10 14 3 34 -1 45 -8 11 -8 51
-16 89 -18 l68 -3 1 155 1 155 35 6 c19 3 39 5 44 4 6 -1 9 -60 8 -143z m3990
42 c15 -39 17 -68 13 -138 -2 -49 -6 -91 -9 -93 -2 -2 -9 50 -16 117 -12 114
-15 122 -42 145 -33 28 -44 25 -77 -16 -27 -35 -40 -81 -36 -133 4 -38 -9 -49
-18 -16 -16 61 20 159 74 204 l31 27 31 -24 c19 -14 39 -44 49 -73z m-1649 64
c47 -18 52 -41 20 -99 -32 -60 -74 -95 -123 -102 -19 -3 -44 -8 -54 -13 -18
-7 -17 -2 7 40 15 27 27 57 27 67 0 30 -29 22 -48 -12 -33 -60 -39 -65 -34
-28 3 19 15 50 28 69 28 40 30 60 9 60 -20 0 -19 10 3 26 19 15 116 10 165 -8z
m-657 -15 c-4 -4 -19 -8 -34 -10 -23 -2 -24 -1 -7 7 24 11 51 13 41 3z m1296
-39 c87 -45 90 -160 4 -230 -17 -14 -40 -32 -50 -41 -38 -31 -161 -107 -240
-148 -154 -81 -376 -142 -476 -130 -90 10 -117 22 -129 57 -22 64 -8 114 53
188 45 54 157 150 168 144 5 -3 8 0 8 5 0 6 7 11 16 11 9 0 29 11 46 25 41 34
48 31 32 -12 -7 -21 -13 -45 -14 -54 0 -18 -55 -44 -152 -75 -66 -20 -123 -69
-98 -84 8 -5 24 -7 35 -5 48 9 155 15 155 8 -1 -14 -37 -113 -44 -120 -13 -14
-6 -43 12 -43 22 0 182 108 232 155 43 41 76 55 133 53 68 -1 145 12 158 28
16 19 5 30 -56 53 -48 18 -71 41 -43 41 24 0 98 70 98 92 0 17 3 18 14 9 12
-10 19 -8 36 9 28 28 16 44 -28 36 -26 -4 -39 -1 -48 12 -12 16 -13 15 -14 -6
0 -15 -9 -26 -26 -32 -32 -13 -34 -13 -34 3 1 23 48 65 76 69 50 6 148 -4 176
-18z m-417 7 c-2 -2 -37 -18 -78 -35 l-74 -33 9 36 9 36 69 0 c37 0 67 -2 65
-4z m1366 -54 c3 -20 2 -37 -3 -37 -4 0 -8 5 -8 10 0 6 -3 10 -7 10 -22 -1
-37 -23 -43 -62 l-7 -43 -2 53 c-1 40 4 61 20 83 26 37 42 33 50 -14z m-1296
-3 c7 -42 10 -38 -39 -58 -36 -15 -43 -15 -92 1 -30 9 -54 19 -54 23 0 3 15
11 33 19 58 23 132 50 138 51 4 0 10 -16 14 -36z m-3130 -3 c10 -17 -12 -21
-25 -6 -10 12 -10 15 3 15 9 0 18 -4 22 -9z m170 -52 c0 -54 -3 -63 -21 -70
-12 -4 -37 -4 -56 0 -19 5 -48 6 -64 4 -39 -5 -62 10 -46 30 9 10 29 13 72 11
57 -4 60 -2 74 25 9 16 13 31 10 34 -9 8 5 27 19 27 8 0 12 -21 12 -61z m3105
5 c-21 -25 -50 -37 -50 -21 0 10 27 27 59 36 2 1 -2 -6 -9 -15z m1167 -71 c-2
-16 -4 -3 -4 27 0 30 2 43 4 28 2 -16 2 -40 0 -55z m-1448 28 c11 -7 7 -13
-20 -24 -40 -17 -43 -15 -34 12 7 22 30 27 54 12z m155 -7 c5 -12 2 -15 -10
-10 -8 3 -18 6 -20 6 -3 0 -2 5 1 10 9 15 22 12 29 -6z m-49 -41 c19 -9 35
-20 35 -23 0 -4 -10 -16 -23 -28 -17 -16 -44 -24 -112 -31 -49 -6 -91 -9 -93
-7 -2 3 -1 13 2 24 4 12 34 32 74 50 81 37 73 36 117 15z m1262 -5 c-3 -8 -6
-5 -6 6 -1 11 2 17 5 13 3 -3 4 -12 1 -19z m13 -28 c0 -5 -2 -10 -4 -10 -3 0
-8 5 -11 10 -3 6 -1 10 4 10 6 0 11 -4 11 -10z m-620 -13 c80 -2 84 -7 39 -44
-25 -21 -37 -23 -156 -23 -71 0 -133 3 -137 7 -3 4 7 21 24 38 29 30 34 31 92
28 34 -2 96 -5 138 -6z m-521 -6 c10 -6 1 -11 -28 -16 -45 -7 -57 -3 -46 14 8
13 55 14 74 2z m-374 -31 c-3 -5 -11 -10 -16 -10 -6 0 -7 5 -4 10 3 6 11 10
16 10 6 0 7 -4 4 -10z m-2292 -20 c22 -11 27 -19 23 -39 -3 -14 -8 -48 -12
-74 l-7 -49 -23 24 c-18 18 -23 35 -24 78 -2 73 -1 82 8 78 4 -2 20 -10 35
-18z m2037 14 c0 -3 -11 -22 -25 -42 -14 -20 -25 -44 -25 -54 0 -9 -4 -20 -10
-23 -19 -12 -11 -97 12 -131 46 -67 181 -102 303 -79 70 13 121 24 143 30 16
6 22 3 22 -9 0 -9 4 -16 9 -16 5 0 11 -10 15 -23 5 -23 5 -23 173 -21 92 2
222 3 288 3 273 -1 273 -1 312 32 40 33 95 116 83 124 -15 10 -13 180 3 193 9
8 47 9 123 3 60 -5 136 -7 169 -5 151 9 372 14 392 9 13 -3 23 -9 23 -14 0 -5
23 -44 50 -85 27 -42 50 -82 50 -90 0 -7 7 -19 15 -26 12 -10 15 -29 13 -79
l-3 -66 -80 0 -80 0 -1 -28 c-2 -43 -16 -50 -45 -23 -43 39 -160 101 -219 114
-72 17 -185 21 -235 9 -22 -5 -47 -10 -55 -11 -8 -1 -37 -12 -64 -24 -27 -12
-51 -22 -53 -22 -7 0 -83 -59 -120 -94 -18 -16 -33 -25 -33 -18 0 7 5 12 11
12 5 0 7 5 3 11 -5 9 -53 10 -173 5 -203 -9 -183 -9 -586 -2 -181 3 -349 8
-372 12 -51 7 -69 31 -79 101 -5 38 -15 59 -41 86 -19 21 -39 37 -44 37 -12 0
-69 51 -69 61 0 4 10 11 23 14 59 17 75 28 92 66 11 24 25 39 35 39 10 0 20 7
24 15 5 14 26 22 26 9z m400 -42 c0 -4 -13 -15 -29 -25 -16 -9 -48 -33 -71
-52 -64 -54 -75 -46 -40 30 17 37 25 44 52 48 61 7 88 7 88 -1z m563 -31 c181
0 176 0 176 -18 0 -45 13 -151 22 -180 6 -18 8 -37 5 -42 -3 -5 -155 -8 -348
-7 -335 1 -343 1 -346 21 -2 16 15 28 85 63 161 79 206 105 247 146 36 36 44
39 61 29 11 -6 55 -12 98 -12z m-1335 -38 c39 -3 72 -10 72 -15 0 -5 11 -13
24 -18 13 -5 40 -23 60 -40 20 -18 36 -30 36 -27 0 13 90 -88 91 -102 5 -68 9
-86 28 -111 11 -16 26 -51 32 -77 19 -77 49 -156 68 -178 31 -36 161 -249 161
-264 0 -11 76 -117 127 -178 37 -44 47 -51 63 -43 22 12 33 0 24 -24 -3 -9 -2
-22 4 -29 17 -21 22 -65 12 -89 -6 -13 -26 -33 -43 -44 -18 -12 -44 -42 -57
-68 -35 -65 -82 -63 -100 5 -10 37 -9 41 17 63 26 23 27 25 9 32 -10 4 -27 2
-39 -5 -17 -11 -23 -9 -43 16 -29 35 -29 39 -4 46 11 3 20 12 20 21 0 19 -13
20 -42 5 -25 -13 -35 -5 -18 16 18 21 -2 44 -23 26 -11 -9 -17 -8 -26 3 -7 8
-34 23 -59 32 -102 38 -323 200 -363 266 -32 53 -72 159 -94 255 -20 83 -57
131 -79 101 -15 -21 -27 -18 -226 52 -80 28 -156 53 -170 56 -36 7 -104 40
-118 56 -9 12 2 28 61 84 95 90 206 145 347 173 30 6 64 13 75 15 11 3 38 3
60 0 22 -2 73 -7 113 -11z m-1863 -42 c3 -5 -7 -19 -22 -30 -16 -11 -32 -25
-38 -31 -5 -6 -20 -20 -32 -32 -12 -11 -24 -30 -27 -42 -5 -22 -83 -68 -119
-72 -9 -1 -25 -8 -35 -17 -25 -22 -53 -25 -65 -5 -17 26 7 45 71 58 73 15 97
31 123 81 15 30 32 46 65 60 24 11 44 24 44 29 0 13 27 13 35 1z m85 -31 c-20
-13 -33 -13 -25 0 3 6 14 10 23 10 15 0 15 -2 2 -10z m-61 -42 c-11 -18 -42
-67 -69 -109 -33 -53 -47 -84 -43 -98 3 -12 1 -21 -6 -21 -6 0 -11 12 -11 26
0 19 -7 28 -30 37 -36 14 -38 23 -7 32 34 11 67 46 67 73 0 17 4 22 14 19 10
-4 13 -1 10 8 -3 8 11 23 38 39 56 34 61 33 37 -6z m192 -31 c20 -27 69 -42
124 -40 20 1 37 -6 50 -20 22 -24 48 -42 82 -56 11 -6 24 -14 27 -19 3 -5 27
-13 53 -16 85 -13 101 -16 125 -26 16 -7 -10 -8 -87 -4 -60 3 -153 7 -205 10
-52 2 -108 6 -125 8 -16 3 -59 8 -95 12 -36 4 -72 12 -80 19 -8 6 -32 11 -52
9 -21 -2 -38 1 -38 6 0 18 45 38 77 35 19 -3 36 1 43 10 7 8 21 15 31 15 22 0
36 20 20 29 -6 4 -38 6 -71 4 -33 -2 -60 0 -60 3 0 4 10 17 23 30 19 20 30 23
80 20 47 -3 61 -8 78 -29z m-611 -67 c8 -5 12 -12 9 -15 -8 -8 -39 5 -39 16 0
11 11 11 30 -1z m4296 -51 c78 -14 167 -62 229 -124 172 -173 171 -456 -3
-623 -150 -144 -355 -179 -532 -90 -84 42 -180 137 -201 198 -9 25 -22 61 -29
80 -7 19 -15 57 -18 85 -5 53 15 182 30 191 5 3 6 10 2 15 -10 16 82 134 138
176 72 54 109 72 182 88 77 17 127 18 202 4z m-2954 -25 c57 -3 122 -5 145 -5
23 1 45 -3 48 -9 3 -6 17 -7 29 -4 16 4 25 0 29 -10 5 -14 -19 -15 -210 -15
l-216 0 28 29 c15 16 32 27 36 24 4 -2 54 -7 111 -10z m-1153 -20 c2 -10 8
-22 13 -25 6 -4 -2 -6 -17 -6 -28 0 -41 17 -31 43 8 20 30 13 35 -12z m4538
-94 c-2 -55 -6 -103 -10 -107 -4 -3 -7 3 -7 15 0 11 -8 26 -17 32 -13 8 -14
13 -5 16 8 4 12 29 12 73 0 37 3 71 6 74 18 17 24 -13 21 -103z m-4627 64 c0
-2 -7 -4 -15 -4 -8 0 -15 4 -15 10 0 5 7 7 15 4 8 -4 15 -8 15 -10z m150 6 c0
-5 -4 -10 -10 -10 -5 0 -10 5 -10 10 0 6 5 10 10 10 6 0 10 -4 10 -10z m160
-12 c0 -7 -5 -20 -10 -28 -8 -12 -10 -9 -10 13 0 15 5 27 10 27 6 0 10 -6 10
-12z m60 -13 c0 -14 -4 -25 -10 -25 -5 0 -10 4 -10 9 0 5 -3 16 -6 25 -4 11
-1 16 10 16 10 0 16 -9 16 -25z m114 -38 c-7 -94 -14 -128 -25 -122 -5 4 -7
23 -4 43 10 72 13 121 8 126 -3 2 -16 1 -29 -4 -18 -7 -24 -6 -24 4 0 8 14 13
39 14 l39 2 -4 -63z m90 -45 l1 -82 -31 0 -31 0 3 55 c4 90 13 117 37 113 19
-3 21 -10 21 -86z m101 69 c-3 -10 -6 -48 -7 -85 -2 -65 -3 -66 -29 -66 -27 0
-27 0 -27 73 0 79 8 97 45 97 19 0 23 -4 18 -19z m127 -31 c-5 -51 -17 -59
-20 -13 -2 19 -3 38 -4 42 -2 15 3 20 15 15 8 -3 11 -18 9 -44z m2774 28 c-3
-13 -6 -52 -7 -88 0 -46 -3 -59 -9 -45 -10 24 -13 139 -3 148 14 15 25 6 19
-15z m64 -12 c0 -40 -8 -66 -21 -66 -10 0 -12 60 -3 84 11 28 24 17 24 -18z
m-2896 -23 c-1 -27 -3 -63 -3 -80 -1 -26 -5 -33 -21 -33 -19 0 -20 4 -14 68 7
82 10 92 26 92 10 0 13 -14 12 -47z m118 15 c5 -78 3 -118 -4 -118 -17 0 -27
50 -21 100 7 56 22 67 25 18z m180 -50 c-2 -43 -8 -78 -13 -78 -15 0 -11 148
4 153 6 2 12 4 13 3 0 0 -1 -36 -4 -78z m200 -3 c-2 -79 -6 -94 -19 -81 -9 8
-14 146 -7 158 3 5 11 7 17 5 8 -3 11 -30 9 -82z m73 25 c-7 -57 8 -102 30
-94 9 4 15 1 15 -8 0 -19 -58 -17 -71 3 -10 16 -12 142 -3 152 3 3 12 3 20 0
11 -4 13 -17 9 -53z m1320 -67 c-3 -13 -10 -21 -14 -18 -10 5 -9 20 5 100 l9
50 3 -54 c2 -30 1 -65 -3 -78z m807 62 c-4 -94 -17 -92 -26 3 -6 57 -5 63 11
60 15 -3 18 -13 15 -63z m70 -12 c3 -73 -3 -105 -18 -90 -9 8 -15 147 -8 159
14 23 23 1 26 -69z m1050 51 c-3 -18 -7 -22 -13 -13 -4 7 -3 19 3 26 15 18 16
17 10 -13z m-4145 -36 c-2 -13 -4 -5 -4 17 -1 22 1 32 4 23 2 -10 2 -28 0 -40z
m502 -15 c1 -37 5 -71 8 -76 3 -5 0 -8 -8 -5 -16 5 -26 148 -11 148 5 0 10
-30 11 -67z m61 -8 c0 -43 -4 -75 -10 -75 -5 0 -10 17 -11 38 0 20 -2 51 -3
67 -3 33 1 45 15 45 5 0 9 -34 9 -75z m129 0 c1 -61 -1 -75 -14 -75 -14 0 -20
29 -16 85 7 90 28 83 30 -10z m71 8 c0 -68 -14 -114 -24 -83 -8 26 -14 111 -9
131 3 10 12 19 19 19 11 0 14 -17 14 -67z m232 -97 c-16 -29 -28 76 -15 135 7
28 9 21 14 -46 3 -44 4 -84 1 -89z m78 126 c-3 -20 -3 -50 1 -66 9 -34 -7 -74
-23 -58 -14 14 -29 110 -22 139 4 16 14 23 29 23 20 0 22 -3 15 -38z m68 1
c-1 -21 2 -57 6 -80 7 -39 6 -43 -12 -43 -16 0 -22 9 -27 40 -9 52 3 120 20
120 9 0 13 -12 13 -37z m65 -39 c2 -34 1 -68 -4 -75 -7 -12 -9 -11 -10 1 0 8
-2 22 -4 30 -11 50 -16 94 -10 108 10 27 23 -1 28 -64z m1131 4 c-2 -89 -19
-102 -19 -15 1 53 8 87 19 87 1 0 2 -32 0 -72z m60 33 c-4 -16 -1 -46 6 -66
10 -30 10 -39 -1 -46 -18 -11 -20 -8 -25 42 -6 52 3 112 16 104 5 -3 7 -19 4
-34z m49 -13 c-7 -61 -13 -60 -13 1 0 29 4 50 9 47 5 -4 7 -25 4 -48z m118 -5
c-4 -34 -5 -35 -11 -13 -7 30 0 77 9 61 4 -6 5 -28 2 -48z m132 37 c9 -34 3
-145 -8 -145 -6 0 -11 36 -13 83 -3 76 9 109 21 62z m59 -12 c-4 -28 -6 -30
-13 -13 -12 30 -10 45 4 45 10 0 12 -10 9 -32z m146 -45 c5 -43 6 -82 2 -86
-7 -9 -41 88 -46 135 -3 22 0 28 15 28 16 0 20 -12 29 -77z m56 12 c3 -33 8
-71 12 -84 5 -18 4 -23 -7 -19 -8 3 -14 24 -16 59 -2 30 -5 60 -8 67 -4 11 4
46 10 40 2 -2 5 -30 9 -63z m-2017 -7 c-2 -13 -4 -5 -4 17 -1 22 1 32 4 23 2
-10 2 -28 0 -40z m327 -11 c-2 -79 -5 -89 -14 -52 -13 50 -11 115 3 115 8 0
12 -19 11 -63z m1357 -22 c-3 -25 -5 -26 -11 -10 -4 11 -5 38 -2 60 6 39 6 39
12 10 3 -16 4 -43 1 -60z m-1299 5 c-2 -34 -6 -59 -10 -56 -7 7 -11 108 -5
119 12 20 18 -7 15 -63z m957 16 c1 -24 -3 -47 -9 -51 -6 -4 -10 14 -10 50 0
66 15 67 19 1z m545 -17 c16 -59 11 -83 -11 -54 -12 17 -20 125 -8 113 3 -3
12 -29 19 -59z m-2875 34 c-1 -10 -4 -29 -8 -43 -6 -22 -8 -23 -14 -7 -8 22 1
67 14 67 5 0 9 -8 8 -17z m1435 -1 c-1 -7 -2 -30 -2 -52 -1 -22 -6 -40 -11
-40 -4 0 -8 25 -7 55 1 32 5 54 11 52 6 -2 10 -9 9 -15z m1121 -42 c3 -32 1
-50 -4 -45 -11 13 -23 90 -14 98 10 11 13 4 18 -53z m-2615 -8 c0 -21 -3 -23
-32 -17 -55 12 -63 46 -12 55 32 6 44 -4 44 -38z m101 -3 l-9 -34 -1 31 c-1
17 2 34 6 37 12 13 14 -1 4 -34z m1457 -4 c1 -34 -2 -45 -13 -45 -12 0 -14 9
-11 38 3 20 5 40 5 45 1 4 5 7 9 7 4 0 9 -20 10 -45z m1310 -1 c2 -38 0 -45
-11 -36 -8 7 -11 25 -9 47 6 49 16 44 20 -11z m-2378 27 c0 -6 -4 -13 -10 -16
-5 -3 -10 1 -10 9 0 9 5 16 10 16 6 0 10 -4 10 -9z m1153 -13 c-2 -5 -3 -19
-3 -33 0 -18 -5 -25 -20 -25 -16 0 -20 7 -20 36 0 31 3 35 23 32 12 -2 21 -6
20 -10z m55 -49 c-3 -8 -7 -3 -11 10 -4 17 -3 21 5 13 5 -5 8 -16 6 -23z
m1442 10 c0 -6 -4 -7 -10 -4 -5 3 -10 11 -10 16 0 6 5 7 10 4 6 -3 10 -11 10
-16z m1221 -73 c1 -28 3 -93 5 -144 2 -56 0 -91 -5 -87 -10 5 -20 53 -41 185
-6 41 -13 82 -16 91 -3 12 2 15 26 11 29 -4 30 -6 31 -56z m-2603 -13 c6 -39
-25 -56 -87 -48 -30 4 -60 13 -66 21 -5 7 -28 17 -49 22 -22 4 -41 12 -43 18
-3 8 34 11 119 9 115 -2 123 -3 126 -22z m-1613 -3 c4 -6 -5 -10 -19 -10 -14
0 -26 5 -26 10 0 6 9 10 19 10 11 0 23 -4 26 -10z m-70 -32 c0 -24 4 -32 15
-29 46 12 60 12 60 2 0 -6 -6 -11 -14 -11 -41 0 -15 -49 27 -50 29 0 19 -20
-11 -20 -17 0 -32 -8 -40 -20 -16 -26 -8 -40 24 -40 16 0 24 -5 21 -12 -2 -7
-15 -13 -28 -13 -28 0 -39 -32 -15 -41 22 -9 21 -44 -2 -44 -10 0 -23 5 -29
11 -14 14 -47 3 -37 -12 3 -6 22 -17 40 -25 39 -16 49 -50 12 -38 -25 8 -57 8
-65 0 -14 -14 9 -36 37 -36 30 0 31 -1 30 -47 0 -5 -7 -8 -15 -8 -27 0 -41
-23 -27 -46 10 -16 9 -31 -7 -84 -24 -76 -38 -105 -51 -105 -13 0 -12 27 2 67
9 25 9 36 0 45 -9 9 -18 -2 -38 -48 -33 -73 -29 -69 -58 -56 -28 13 -30 -2 26
197 21 77 41 147 43 155 2 8 8 33 14 55 19 73 62 240 67 263 7 33 19 27 19
-10z m245 -23 c7 -17 18 -25 42 -27 21 -2 33 -8 33 -18 0 -11 -11 -14 -48 -11
-43 2 -48 0 -45 -16 2 -11 14 -19 31 -21 32 -4 36 -17 6 -25 -31 -8 -17 -32
19 -32 19 0 32 -5 32 -12 0 -8 -15 -13 -41 -13 -33 0 -40 -3 -37 -17 2 -11 14
-19 31 -21 31 -4 37 -22 7 -22 -23 0 -26 -21 -8 -50 16 -25 0 -55 -28 -55 -19
0 -20 6 -12 75 2 19 -2 26 -19 28 -17 3 -22 -3 -28 -35 -8 -51 -19 -67 -40
-59 -13 5 -16 14 -11 39 17 99 25 137 40 187 43 141 56 159 76 105z m1163 -72
c-4 -23 1 -31 25 -45 41 -24 59 -23 87 8 21 22 26 24 44 12 12 -7 21 -18 21
-25 0 -7 7 -14 15 -14 28 -3 33 -4 41 -11 4 -5 2 -8 -4 -8 -21 0 33 -67 63
-78 34 -12 119 -25 151 -24 11 1 33 -11 48 -27 l27 -28 -33 -1 c-19 -1 -64
-11 -102 -22 -49 -16 -72 -18 -79 -11 -6 6 -27 11 -46 11 -19 0 -64 14 -100
31 -53 25 -78 31 -128 30 -34 0 -66 -1 -70 -2 -25 -4 -53 3 -67 16 -8 9 -29
20 -45 26 -27 10 -29 13 -19 40 7 22 16 29 35 29 17 0 23 4 20 14 -3 7 5 25
18 38 13 14 22 28 19 31 -3 3 14 12 38 20 24 9 43 16 44 16 0 1 -1 -11 -3 -26z
m261 12 c-4 -8 -8 -15 -10 -15 -2 0 -4 7 -4 15 0 8 4 15 10 15 5 0 7 -7 4 -15z
m88 -52 c18 -38 34 -72 36 -76 2 -4 -7 -6 -20 -3 -12 3 -35 7 -49 10 -18 4
-28 15 -36 40 -9 30 -8 39 11 65 11 17 22 31 23 31 2 0 17 -30 35 -67z m2519
-158 c6 -16 13 -98 16 -180 l5 -151 -36 -1 c-20 -1 -36 3 -36 8 0 5 7 9 15 9
27 0 16 29 -12 32 -14 2 -29 9 -31 17 -3 10 0 12 12 8 17 -7 59 30 53 48 -2 5
-21 12 -43 15 -31 4 -39 9 -39 25 0 13 -8 21 -22 23 -13 2 -23 8 -23 13 0 10
7 13 54 24 22 5 26 9 17 18 -15 15 -14 27 3 27 23 0 28 18 15 53 -10 29 -9 41
7 83 l19 49 8 -45 c4 -25 13 -58 18 -75z m16 73 c-3 -8 -6 -5 -6 6 -1 11 2 17
5 13 3 -3 4 -12 1 -19z m-87 -72 c0 -3 -4 -8 -10 -11 -5 -3 -10 -1 -10 4 0 6
5 11 10 11 6 0 10 -2 10 -4z m-1575 -126 c-3 -5 2 -13 11 -18 15 -8 16 -14 5
-41 -8 -17 -11 -38 -7 -46 4 -13 2 -14 -14 -5 -19 10 -18 40 2 40 6 0 0 16
-12 37 -16 28 -18 38 -9 44 15 9 32 1 24 -11z m523 -52 c38 -2 39 -7 11 -39
-12 -13 -26 -35 -31 -49 -11 -31 -88 -87 -88 -65 0 8 -9 15 -20 15 -11 0 -20
-4 -20 -8 0 -4 -9 -8 -21 -9 -26 -2 -51 -22 -43 -35 3 -5 -3 -4 -14 3 -24 15
-56 5 -48 -16 3 -8 1 -15 -4 -15 -6 0 -10 7 -10 15 0 17 -30 20 -46 6 -5 -5
-22 -11 -39 -13 -24 -2 -30 -8 -30 -28 0 -20 -5 -25 -25 -25 -17 0 -29 -8 -38
-27 -7 -16 -24 -31 -37 -34 -13 -3 -29 -12 -36 -20 -6 -8 -16 -11 -21 -8 -6 4
-14 1 -18 -6 -4 -7 -19 -14 -33 -15 -14 -2 -31 -6 -37 -10 -8 -5 -11 -1 -8 11
2 11 21 27 43 38 97 45 168 134 146 182 -9 20 -7 25 10 34 21 12 24 58 4 72
-10 8 49 12 115 9 19 -1 64 10 100 23 53 20 78 24 135 20 39 -2 85 -5 103 -6z
m-535 -159 c11 -12 15 -28 12 -39 -6 -20 -76 -80 -93 -80 -5 0 -16 -7 -23 -16
-22 -27 -58 -36 -76 -19 -11 12 -19 13 -28 5 -8 -6 -28 -10 -46 -8 -27 3 -34
9 -45 41 -15 43 -5 47 30 11 23 -25 27 -26 82 -18 51 8 60 13 74 39 8 17 18
32 23 33 4 2 7 9 7 15 0 10 48 56 60 57 3 0 14 -9 23 -21z m-133 -215 c0 -2
-15 -4 -32 -4 -23 0 -29 3 -19 9 12 8 51 4 51 -5z M4030 8375 l-52 -107 -76 6
c-155 12 -157 12 -157 -3 0 -8 28 -31 61 -50 34 -20 76 -47 93 -61 l32 -25
-44 -100 c-82 -183 -43 -196 155 -52 28 20 56 37 61 37 5 0 55 -33 110 -73 69
-49 109 -71 125 -69 22 3 30 26 12 37 -5 3 -10 14 -10 24 0 10 -16 53 -35 95
-19 43 -35 81 -35 86 0 5 36 30 80 56 117 67 110 80 -48 90 -107 7 -115 11
-133 78 -6 21 -14 46 -18 55 -51 108 -57 107 -121 -24z m94 -11 c7 -27 16 -59
20 -71 7 -22 5 -23 -48 -23 -30 0 -57 4 -60 9 -3 5 5 33 17 62 13 30 27 63 31
73 10 27 24 9 40 -50z m-161 -130 c7 -7 -14 -56 -22 -52 -3 2 -25 12 -49 22
-23 11 -42 23 -42 28 0 9 104 11 113 2z m226 -30 c38 -63 37 -68 -29 -108
l-60 -37 -30 22 c-16 13 -30 25 -30 29 0 3 -13 14 -30 23 -35 21 -35 23 -15
71 l16 37 79 -2 c79 -3 81 -3 99 -35z m159 17 c8 -5 -4 -16 -37 -34 -51 -29
-55 -28 -80 20 -10 21 -9 21 47 22 32 0 63 -4 70 -8z m-315 -149 l37 -30 -80
-51 c-83 -53 -117 -71 -108 -55 10 17 48 103 48 109 0 3 7 21 15 41 16 39 21
39 88 -14z m239 -52 c16 -41 34 -81 40 -87 6 -7 8 -13 5 -13 -8 0 -172 111
-175 119 -3 8 80 60 92 57 5 -1 22 -35 38 -76z M4213 7218 c-11 -15 -38 -74
-78 -173 -16 -38 -32 -74 -36 -79 -4 -4 -55 -8 -113 -7 -59 1 -111 -1 -117 -5
-14 -8 19 -44 35 -38 6 2 16 -6 21 -18 6 -12 33 -36 62 -52 28 -17 54 -34 58
-37 3 -3 -15 -55 -39 -115 -56 -135 -56 -175 1 -138 39 26 58 37 140 83 39 23
74 45 77 50 6 10 71 -25 189 -101 59 -38 74 -44 85 -34 17 16 4 68 -40 169
-16 38 -28 75 -26 84 2 9 37 40 78 69 109 75 106 83 -30 86 l-111 3 -47 101
c-26 56 -53 116 -60 133 -14 32 -33 40 -49 19z m62 -141 c54 -123 57 -113 -35
-113 -47 0 -80 5 -80 11 0 23 64 185 72 183 5 -2 25 -38 43 -81z m-185 -158
c0 -4 -5 -20 -12 -34 -12 -26 -32 -33 -43 -15 -4 6 -22 17 -41 25 -54 22 -42
36 31 34 36 -1 65 -6 65 -10z m267 -36 c14 -42 14 -43 -14 -67 -15 -14 -32
-26 -36 -26 -5 0 -22 -10 -39 -21 l-29 -21 -52 27 c-84 45 -87 49 -70 97 8 23
17 46 19 50 3 5 51 7 106 6 l101 -3 14 -42z m109 16 c-54 -34 -71 -33 -78 5
-5 26 -5 26 61 26 l66 0 -49 -31z m-322 -145 c25 -14 46 -29 46 -32 0 -8 -83
-62 -95 -62 -4 0 -25 -14 -47 -31 -21 -17 -41 -30 -43 -27 -2 2 9 29 24 59 15
31 33 70 39 87 6 18 15 32 20 32 5 0 30 -12 56 -26z m272 -26 c9 -29 23 -65
31 -80 7 -16 11 -28 8 -28 -16 0 -164 96 -161 105 3 11 74 53 93 54 6 1 19
-23 29 -51z M4282 5848 c-7 -7 -12 -17 -12 -24 0 -7 -23 -53 -52 -102 l-51
-91 -126 2 c-111 2 -126 0 -129 -15 -2 -11 15 -31 48 -55 28 -21 64 -49 81
-63 l30 -25 -56 -87 c-30 -48 -55 -91 -55 -96 0 -4 -13 -16 -30 -25 -55 -33
-29 -84 27 -54 84 46 256 127 268 127 8 0 38 -22 68 -50 88 -82 198 -152 214
-137 7 8 -15 97 -52 206 -19 58 -34 106 -32 107 12 12 112 76 145 93 42 21 68
54 57 71 -4 6 -61 10 -134 10 l-127 0 -18 83 c-30 138 -37 152 -64 125z m27
-143 c7 -31 11 -59 8 -61 -3 -3 -28 -4 -56 -2 l-51 3 38 62 c20 33 40 59 43
57 3 -1 11 -28 18 -59z m-181 -120 c3 -3 -14 -34 -34 -64 -5 -6 -93 53 -98 66
-4 10 11 11 62 7 36 -3 68 -7 70 -9z m235 -45 c17 -68 21 -61 -70 -110 l-61
-34 -49 39 c-26 21 -52 42 -56 45 -14 12 44 109 67 113 12 2 51 5 87 6 l67 1
15 -60z m197 50 c0 -5 -4 -10 -9 -10 -5 0 -31 -15 -57 -33 -75 -51 -82 -52
-94 -9 -17 63 -18 62 75 62 50 0 85 -4 85 -10z m-392 -232 c-13 -10 -39 -23
-58 -29 -19 -7 -52 -20 -72 -31 -21 -10 -38 -15 -38 -11 0 9 68 122 89 146 12
15 17 13 58 -20 l45 -37 -24 -18z m266 -58 c10 -30 20 -61 23 -67 2 -7 0 -13
-5 -13 -11 0 -151 109 -171 134 -17 20 -11 28 56 66 l48 28 16 -47 c9 -25 24
-71 33 -101z M4224 4604 c-20 -33 -47 -84 -60 -114 l-22 -55 -101 -5 c-127 -6
-142 -18 -86 -66 22 -20 57 -46 78 -60 20 -13 37 -30 37 -37 0 -8 -17 -54 -38
-103 -44 -101 -50 -161 -17 -156 11 2 32 12 47 23 15 10 30 19 34 19 4 0 17 8
28 19 12 10 44 31 72 46 l51 28 34 -24 c19 -13 57 -41 85 -62 60 -44 108 -61
134 -47 17 9 16 15 -16 92 -19 46 -41 95 -49 110 -28 49 -19 79 38 123 29 22
63 42 77 45 17 3 25 12 25 25 0 19 -7 20 -112 19 l-112 0 -16 38 c-8 21 -24
71 -35 110 -11 40 -24 76 -29 81 -5 5 -24 -14 -47 -49z m63 -105 c13 -39 21
-74 19 -77 -3 -3 -33 -1 -66 4 l-61 9 36 73 c21 40 39 71 42 68 3 -3 16 -37
30 -77z m-177 -127 c0 -10 -6 -26 -13 -36 -13 -18 -15 -17 -50 5 -20 13 -37
27 -37 31 0 6 27 11 83 16 10 1 17 -5 17 -16z m167 9 c51 -1 53 -2 69 -38 19
-46 15 -54 -58 -105 -64 -45 -62 -46 -136 19 -31 27 -32 29 -20 68 16 55 21
60 60 59 18 -1 57 -2 85 -3z m167 -23 c-16 -12 -34 -25 -40 -30 -8 -6 -15 2
-22 22 l-11 30 51 0 51 0 -29 -22z m-37 -165 c30 -69 54 -135 50 -139 -6 -6
-177 106 -177 117 0 9 82 79 93 79 4 0 20 -26 34 -57z m-254 12 c20 -14 37
-29 37 -34 0 -4 -19 -18 -42 -31 -24 -13 -54 -32 -67 -42 -37 -28 -42 -22 -22
25 11 23 25 57 31 75 7 17 15 32 19 32 3 0 23 -11 44 -25z M2537 4033 c-13
-12 -7 -23 11 -23 23 0 42 -19 42 -43 0 -17 -3 -16 -31 7 -39 33 -53 25 -34
-21 8 -19 12 -40 9 -45 -4 -6 -1 -8 7 -5 8 3 32 11 54 18 52 16 65 27 58 47
-12 33 -37 53 -59 48 -14 -4 -24 -1 -28 9 -6 16 -18 19 -29 8z M2541 3796
c-14 -17 11 -41 34 -32 20 7 19 32 -1 40 -21 8 -20 8 -33 -8z M2010 3750 c0
-6 7 -10 15 -10 8 0 15 2 15 4 0 2 -7 6 -15 10 -8 3 -15 1 -15 -4z M2075 3696
c0 -18 3 -22 12 -14 6 5 9 16 6 24 -8 22 -18 17 -18 -10z M2087 3581 c-4 -17
-3 -21 5 -13 5 5 8 16 6 23 -3 8 -7 3 -11 -10z M2270 3420 c0 -5 5 -10 10 -10
6 0 10 5 10 10 0 6 -4 10 -10 10 -5 0 -10 -4 -10 -10z M1515 2490 c-3 -5 -1
-10 4 -10 6 0 11 5 11 10 0 6 -2 10 -4 10 -3 0 -8 -4 -11 -10z M2540 3336 c0
-2 7 -9 15 -16 9 -7 15 -8 15 -2 0 5 -7 12 -15 16 -8 3 -15 4 -15 2z M2600
3250 c-6 -11 -8 -20 -6 -20 3 0 10 9 16 20 6 11 8 20 6 20 -3 0 -10 -9 -16
-20z M2515 3230 c-3 -6 1 -7 9 -4 18 7 21 14 7 14 -6 0 -13 -4 -16 -10z M4313
3263 c-7 -2 -19 -19 -27 -36 -8 -18 -28 -63 -45 -100 -17 -38 -31 -74 -31 -81
0 -28 -27 -36 -118 -32 -128 5 -135 -6 -52 -82 35 -31 71 -63 81 -69 16 -12
14 -21 -27 -125 -48 -123 -51 -140 -29 -158 12 -10 31 1 109 60 53 39 98 75
101 80 14 22 55 7 116 -43 106 -87 178 -123 194 -97 6 9 -27 119 -55 185 -13
32 -40 105 -40 110 0 2 28 24 63 49 135 96 131 116 -17 109 -97 -5 -106 -4
-112 13 -4 11 -19 46 -35 79 -15 33 -34 79 -41 103 -7 23 -15 42 -18 41 -3 0
-11 -3 -17 -6z m44 -162 c19 -40 33 -74 31 -76 -9 -8 -125 -14 -136 -7 -12 8
-11 15 2 40 9 17 16 35 16 41 0 23 43 105 47 91 3 -8 21 -48 40 -89z m65 -164
c21 -55 22 -52 -68 -116 l-40 -29 -55 34 c-29 18 -58 35 -62 37 -9 3 7 72 21
95 5 7 36 15 72 17 35 3 66 7 69 10 3 3 14 5 25 3 14 -2 26 -18 38 -51z m148
49 c0 -6 -83 -66 -91 -66 -10 0 -29 57 -22 64 7 7 113 8 113 2z m-397 -22 c3
-4 -1 -20 -9 -36 l-15 -29 -39 31 c-22 18 -40 34 -40 36 0 7 96 5 103 -2z
m310 -196 c16 -46 33 -91 38 -101 24 -45 -11 -27 -118 59 l-52 42 42 33 c23
18 44 37 45 41 9 20 19 2 45 -74z m-253 16 l40 -26 -43 -32 c-74 -56 -108 -78
-112 -74 -3 2 4 27 14 54 46 122 41 118 101 78z M961 2374 c-26 -33 -26 -35
-2 -63 20 -22 21 -76 4 -105 -9 -14 -12 -26 -19 -102 -5 -50 -2 -76 19 -140
14 -43 28 -92 31 -109 19 -112 28 -140 45 -159 24 -25 96 -53 161 -62 25 -3
55 -11 68 -17 31 -15 48 8 28 38 -10 15 -30 22 -77 28 -35 4 -84 18 -109 30
-43 22 -46 27 -63 93 -11 38 -30 107 -43 154 -28 98 -29 119 -10 186 8 27 17
69 19 94 2 25 8 53 12 63 8 20 -14 88 -32 94 -6 2 -20 -8 -32 -23z M1094 2215
c-11 -27 6 -81 32 -106 15 -13 43 -49 64 -80 37 -53 102 -119 119 -119 4 0 25
-16 47 -35 41 -37 49 -41 58 -27 9 15 -25 53 -78 87 -52 33 -106 82 -106 95 0
4 -20 34 -45 66 -25 32 -50 75 -56 96 -10 39 -25 49 -35 23z M1833 1836 c-51
-29 -101 -60 -111 -69 -10 -9 -22 -17 -26 -17 -4 0 -20 -9 -35 -21 -24 -18
-34 -19 -64 -11 -39 11 -77 6 -77 -10 0 -12 63 -38 94 -38 14 0 58 22 98 49
40 26 93 59 118 71 70 36 120 71 120 86 0 23 -21 16 -117 -40z M1382 1728
c-20 -20 6 -38 58 -38 54 0 63 6 49 31 -11 22 -87 27 -107 7z M627 2303 c-12
-12 -7 -50 8 -63 12 -10 16 -8 25 15 15 39 12 55 -8 55 -10 0 -22 -3 -25 -7z
M620 2125 c-7 -8 -9 -22 -6 -31 5 -13 9 -14 21 -4 17 14 20 36 6 44 -5 3 -14
-1 -21 -9z M647 2023 c-12 -11 -8 -23 8 -23 8 0 15 7 15 15 0 16 -12 20 -23 8z
M374 1985 c-7 -18 2 -45 15 -45 12 0 24 37 16 50 -9 15 -25 12 -31 -5z M4752
1791 c-14 -8 -9 -59 9 -93 21 -40 47 -58 84 -58 29 0 37 5 45 26 14 36 13 48
-7 72 -10 11 -22 27 -28 35 -11 17 -84 30 -103 18z m75 -58 c33 -43 35 -53 9
-53 -18 0 -27 8 -35 31 -14 39 -14 39 0 39 7 0 18 -8 26 -17z M2986 693 c-3
-4 -6 -15 -6 -25 0 -24 33 -21 38 3 3 17 -21 33 -32 22z M4330 1483 c-16 -27
-30 -54 -30 -61 0 -7 -5 -23 -12 -35 -7 -12 -19 -42 -28 -67 l-15 -45 -102 1
c-91 1 -103 0 -103 -16 0 -17 54 -65 104 -90 39 -20 41 -32 17 -92 -11 -29
-32 -82 -46 -118 -14 -36 -27 -69 -28 -74 -6 -25 30 -9 131 59 62 41 118 75
125 75 15 -1 150 -88 198 -129 73 -62 80 -33 29 121 -22 66 -40 126 -40 132 0
7 23 28 51 47 76 51 92 59 120 59 27 0 46 24 28 36 -6 3 -56 1 -112 -6 -144
-17 -144 -17 -186 117 -18 59 -35 114 -37 121 -7 26 -35 10 -64 -35z m73 -114
c15 -45 24 -85 21 -90 -6 -11 -134 -12 -134 -1 0 8 56 148 65 163 13 20 22 6
48 -72z m-183 -145 c0 -5 -6 -18 -12 -27 -12 -16 -16 -15 -50 8 -21 14 -38 28
-38 30 0 3 22 4 50 2 27 -1 50 -7 50 -13z m243 -27 c11 -21 18 -39 16 -40 -2
-2 -32 -22 -67 -45 -35 -23 -69 -39 -75 -36 -7 4 -33 22 -59 41 l-47 34 21 42
21 42 85 0 85 0 20 -38z m117 35 c0 -9 -53 -42 -68 -42 -12 0 -24 29 -16 41 6
11 84 12 84 1z m-55 -197 c16 -46 27 -87 24 -89 -3 -3 -30 10 -60 30 -30 20
-64 40 -76 45 -13 4 -23 15 -23 23 0 15 76 75 95 76 6 0 23 -38 40 -85z m-262
42 c43 -38 43 -37 -40 -90 -52 -33 -66 -34 -58 -4 10 36 50 127 55 127 3 0 22
-15 43 -33z M2210 916 c0 -2 8 -10 18 -17 15 -13 16 -12 3 4 -13 16 -21 21
-21 13z M4840 750 c0 -5 5 -10 10 -10 6 0 10 5 10 10 0 6 -4 10 -10 10 -5 0
-10 -4 -10 -10z M3716 625 c-4 -10 1 -15 16 -15 17 0 18 2 8 15 -7 8 -14 15
-15 15 -2 0 -5 -7 -9 -15z M4200 8722 c0 -14 11 -21 26 -15 21 8 17 23 -6 23
-11 0 -20 -4 -20 -8z M4263 8709 c-2 -24 14 -34 32 -19 17 14 25 -14 13 -48
-6 -17 -4 -24 8 -29 20 -8 21 -6 26 59 l5 56 -42 0 c-33 0 -41 -3 -42 -19z
M4487 8723 c-14 -22 -18 -103 -7 -123 17 -31 28 -14 31 45 3 60 7 75 23 75 21
0 43 -35 50 -81 10 -60 10 -62 3 -161 -6 -74 -5 -88 8 -88 23 0 28 39 23 179
-2 88 -8 134 -17 145 -14 17 -105 23 -114 9z M4539 8663 c-3 -24 3 -188 7
-195 3 -4 9 -8 15 -8 10 0 12 151 3 188 -6 21 -23 31 -25 15z M2236 8648
c-153 -4 -281 -10 -284 -13 -4 -3 -1 -14 4 -23 8 -12 25 -17 56 -17 40 1 46
-3 57 -27 7 -16 33 -55 57 -87 24 -32 44 -62 44 -65 0 -3 -31 -6 -70 -6 -50 0
-70 -4 -70 -13 0 -26 37 -32 165 -30 72 1 236 4 365 6 129 1 241 6 248 10 22
14 2 27 -41 27 l-42 0 -2 90 c-2 65 1 90 10 90 22 0 97 35 94 44 -6 20 -194
24 -591 14z m91 -55 c4 -12 -56 -112 -81 -132 -14 -12 -22 -7 -59 34 -41 46
-66 83 -67 97 -1 17 202 18 207 1z m127 -10 c11 -35 5 -164 -8 -169 -7 -3 -47
-4 -89 -2 l-77 3 45 65 c25 36 45 69 45 74 0 37 74 62 84 29z m101 -35 c11
-85 4 -122 -22 -126 -22 -3 -23 -1 -23 87 0 83 2 91 19 91 16 0 21 -10 26 -52z
m113 -34 c3 -90 4 -89 -45 -98 -4 0 -8 31 -9 69 0 39 -4 80 -8 93 -7 20 -4 22
26 22 l33 0 3 -86z M4498 8546 c-3 -12 -1 -33 4 -46 13 -34 32 -10 23 29 -8
39 -21 48 -27 17z M4610 8350 c0 -48 25 -56 35 -10 7 33 1 50 -21 50 -10 0
-14 -12 -14 -40z M195 7030 c-3 -5 -1 -10 4 -10 6 0 11 5 11 10 0 6 -2 10 -4
10 -3 0 -8 -4 -11 -10z M50 2273 c0 -34 1 -35 14 -18 7 10 11 27 8 37 -8 31
-22 20 -22 -19z M50 2155 c0 -17 5 -25 13 -22 6 2 12 12 12 22 0 10 -6 20 -12
23 -8 2 -13 -6 -13 -23z M165 2000 c-9 -15 4 -50 20 -50 16 0 26 25 19 45 -7
17 -30 20 -39 5z M176 1804 c-9 -22 3 -32 14 -14 12 19 12 30 1 30 -5 0 -12
-7 -15 -16z M136 1788 c-17 -24 -20 -38 -8 -38 8 0 34 52 28 57 -2 3 -11 -6
-20 -19z M1349 766 c-2 -2 -41 -6 -86 -10 -151 -10 -267 -28 -317 -47 -112
-45 -164 -110 -150 -187 4 -21 8 -45 9 -54 2 -28 81 -114 122 -133 21 -10 40
-21 43 -24 6 -9 107 -41 127 -41 8 0 35 -7 61 -15 54 -17 328 -45 387 -40 153
13 187 19 242 36 120 39 164 74 214 171 23 44 24 70 5 106 -22 43 -55 67 -156
115 -146 69 -235 95 -367 108 -65 6 -120 12 -124 14 -3 3 -8 3 -10 1z m27 -61
c140 -7 195 -14 249 -30 28 -8 52 -14 55 -14 32 3 188 -83 243 -134 54 -52 22
-133 -70 -178 -60 -29 -58 -29 -173 -41 -101 -10 -256 -5 -355 12 -33 5 -82
12 -110 16 -115 13 -284 86 -345 149 -102 106 29 206 290 221 58 3 107 7 109
10 2 2 7 1 11 -1 4 -3 47 -7 96 -10z M1447 673 c-9 -9 -43 -27 -76 -38 -62
-23 -82 -22 -236 5 -39 7 -53 5 -64 -5 -13 -13 -10 -17 20 -30 19 -9 45 -22
58 -30 23 -13 23 -13 -22 -33 -25 -11 -55 -23 -66 -27 -25 -7 -45 -41 -35 -56
7 -11 86 -9 274 7 71 6 79 5 128 -22 147 -80 177 -93 191 -79 11 11 9 20 -13
57 -14 25 -26 52 -26 61 0 16 6 18 120 34 38 6 56 13 58 24 2 13 -11 18 -70
24 -96 10 -98 11 -136 19 -34 8 -52 31 -52 65 0 30 -33 44 -53 24z m3 -116
c21 -4 40 -16 40 -27 0 -14 -93 -18 -115 -5 -11 6 -32 15 -47 19 -16 3 -28 11
-28 18 0 10 81 7 150 -5z m-186 -27 c32 -12 34 -28 4 -27 -13 0 -52 -3 -88 -8
-74 -9 -75 -5 -5 24 60 24 57 24 89 11z m269 -69 c3 -14 0 -17 -14 -14 -26 7
-35 23 -18 33 16 11 25 6 32 -19z M4526 586 c-31 -9 -41 -18 -47 -41 -9 -30
-5 -40 14 -40 5 0 12 -4 14 -10 1 -5 -13 -11 -34 -12 -46 -2 -93 -22 -93 -38
0 -20 23 -34 55 -33 51 1 65 -2 65 -12 0 -5 -9 -10 -20 -10 -33 0 -130 -41
-130 -54 0 -28 27 -37 90 -31 54 5 61 4 58 -12 -2 -12 -15 -17 -50 -19 -53 -3
-88 -18 -88 -38 0 -21 37 -49 56 -42 16 6 16 8 0 25 -16 17 -16 19 6 23 13 2
34 1 48 -2 22 -5 25 -11 25 -50 0 -38 3 -45 20 -45 17 0 20 8 23 51 l3 51 132
12 c154 15 202 28 202 56 0 28 -53 35 -209 28 -108 -5 -128 -4 -124 8 4 11 21
13 71 11 69 -4 107 3 107 19 0 5 -35 9 -77 9 -43 0 -84 4 -91 9 -16 10 136 22
196 15 32 -4 42 -2 42 9 0 20 -29 25 -135 22 -104 -3 -139 8 -51 15 80 7 89
30 12 30 -31 0 -56 4 -56 10 0 5 14 7 31 5 17 -2 42 1 55 7 27 13 42 54 26 70
-15 15 -100 18 -146 4z m104 -36 c0 -5 -16 -9 -35 -8 -19 1 -35 5 -35 10 0 4
16 8 35 8 19 0 35 -4 35 -10z m-127 -107 c-7 -2 -21 -2 -30 0 -10 3 -4 5 12 5
17 0 24 -2 18 -5z m-3 -98 c0 -11 -12 -15 -45 -15 -72 0 -53 24 23 29 13 0 22
-5 22 -14z m315 -34 c-10 -9 -162 -30 -222 -31 -55 0 -71 15 -29 26 35 9 207
20 234 15 13 -2 20 -6 17 -10z M4592 228 c-23 -23 -14 -48 17 -48 33 0 54 20
45 44 -7 19 -45 21 -62 4z"/>
</g>
</svg>
