<?xml version="1.0" standalone="no"?>
<!DOCTYPE svg PUBLIC "-//W3C//DTD SVG 20010904//EN"
 "http://www.w3.org/TR/2001/REC-SVG-20010904/DTD/svg10.dtd">
<svg version="1.0" xmlns="http://www.w3.org/2000/svg"
 width="500.000000pt" height="878.000000pt" viewBox="0 0 500.000000 878.000000"
 preserveAspectRatio="xMidYMid meet">
<metadata>
Created by potrace 1.16, written by Peter Selinger 2001-2019
</metadata>
<g transform="translate(0.000000,878.000000) scale(0.100000,-0.100000)"
fill="#000000" stroke="none">
<path d="M50 8721 c0 -13 23 -20 61 -17 19 2 42 -1 52 -6 10 -5 25 -7 34 -4
37 14 1111 20 1843 10 239 -3 446 -6 460 -5 14 0 85 3 159 5 73 3 144 7 157
10 12 3 25 2 29 -3 3 -6 145 -7 368 -3 199 3 414 6 477 6 140 0 956 -13 1133
-18 120 -4 127 -3 127 15 0 19 -47 19 -2450 19 -1431 0 -2450 -4 -2450 -9z
M2206 8560 c-66 -7 -72 -28 -10 -32 47 -3 48 -4 56 -43 5 -22 7 -71 6 -110
l-3 -70 -45 -5 c-49 -5 -54 -26 -5 -23 17 1 113 4 215 7 233 7 342 16 354 27
12 11 7 12 -64 9 -49 -1 -59 2 -84 26 -15 16 -34 40 -42 55 -12 25 -11 30 27
80 33 44 46 55 76 59 20 3 38 11 41 18 3 11 -41 13 -234 10 -132 -2 -261 -5
-288 -8z m343 -55 c-19 -19 -37 -35 -40 -35 -4 0 -14 12 -24 26 -22 33 -9 44
54 44 l44 0 -34 -35z m-111 -30 c45 -58 46 -70 5 -106 -10 -9 -26 -26 -36 -38
-11 -14 -27 -21 -40 -19 -20 3 -23 11 -31 95 -10 108 -6 123 31 122 22 0 38
-13 71 -54z m122 -147 c0 -4 -13 -8 -30 -8 -34 0 -37 6 -13 32 16 18 18 18 30
2 7 -10 13 -21 13 -26z M3541 7261 c-7 -5 -11 -13 -9 -17 3 -5 -1 -22 -8 -39
-12 -27 -13 -28 -14 -7 0 14 -5 22 -12 19 -14 -4 -16 -55 -5 -119 5 -34 4 -38
-18 -44 -32 -8 -75 -59 -75 -88 0 -29 32 -59 54 -50 17 7 23 -11 6 -21 -17
-11 -11 -43 11 -59 l21 -14 -21 -21 c-23 -23 -26 -42 -10 -58 8 -8 7 -17 -2
-34 -6 -13 -12 -54 -13 -91 0 -64 2 -70 34 -103 18 -19 36 -33 38 -30 2 2 9
-1 16 -6 6 -6 26 -19 44 -29 31 -19 32 -22 32 -83 l0 -64 -29 5 c-54 8 -158
-79 -185 -156 -20 -55 -13 -72 30 -72 28 0 35 -5 40 -25 3 -14 14 -26 23 -26
16 -2 38 -5 55 -8 5 0 1 -10 -9 -21 -17 -19 -17 -20 9 -31 14 -7 26 -17 26
-22 0 -6 21 -7 55 -3 50 6 55 4 55 -13 0 -35 -57 -145 -92 -179 -32 -30 -37
-31 -66 -21 -36 12 -77 4 -53 -10 10 -6 10 -10 1 -16 -7 -4 -13 1 -17 13 -4
16 -10 19 -25 13 -16 -6 -30 2 -65 38 -24 25 -47 46 -51 47 -68 10 -95 30
-106 77 -9 36 -75 98 -209 197 -15 11 -51 16 -125 17 -58 1 -107 5 -110 8 -3
3 -18 5 -34 5 -49 0 -68 16 -68 59 0 48 31 81 55 61 11 -9 13 -16 5 -24 -18
-18 -11 -46 15 -58 29 -13 55 3 55 33 0 22 -11 24 -28 7 -22 -22 -12 4 13 34
14 16 25 36 25 43 0 8 9 19 19 25 11 5 21 20 23 32 2 14 27 38 70 68 134 90
218 219 221 334 2 57 -1 69 -29 107 -18 24 -51 58 -75 76 -56 40 -301 136
-431 168 -99 25 -294 18 -318 -11 -6 -7 -18 -10 -25 -7 -8 2 -48 -14 -88 -36
-70 -39 -107 -73 -136 -130 -16 -29 -17 -89 -2 -104 6 -6 11 -27 11 -46 0 -21
12 -57 29 -86 24 -42 27 -54 19 -84 -6 -19 -17 -45 -25 -58 -11 -16 -14 -38
-11 -67 4 -36 16 -57 63 -110 41 -46 66 -66 82 -66 22 0 23 -3 19 -47 -2 -27
-4 -51 -5 -55 -1 -4 -7 -5 -15 -2 -8 3 -32 -4 -55 -15 -22 -12 -53 -20 -68
-19 -63 4 -214 -76 -255 -135 -12 -18 -36 -48 -54 -68 -18 -21 -40 -54 -49
-75 -9 -22 -23 -54 -31 -71 l-14 -33 -74 0 c-41 0 -86 5 -100 11 -35 16 -91 3
-130 -31 -31 -27 -36 -29 -67 -19 -19 7 -38 16 -43 20 -18 16 -77 9 -120 -12
-22 -12 -49 -26 -60 -31 -10 -5 -30 -12 -45 -14 -14 -3 -53 -12 -86 -21 -97
-25 -115 -27 -115 -11 0 12 -21 17 -95 22 -52 4 -100 4 -106 1 -11 -8 -159 12
-177 24 -13 8 -22 175 -14 266 7 67 8 70 35 73 15 2 27 -2 27 -7 0 -16 61 -51
87 -51 12 0 42 16 67 35 26 19 50 35 56 35 22 0 49 97 54 194 1 32 7 43 30 56
16 9 39 28 50 43 17 24 19 32 9 58 -9 24 -8 51 4 127 9 53 17 114 17 134 0 47
-30 90 -71 102 -39 12 -73 78 -73 141 0 36 -5 48 -25 61 -13 9 -27 25 -30 36
-9 25 -47 42 -78 34 -14 -3 -39 -20 -56 -37 -17 -17 -31 -28 -31 -24 0 3 -10
1 -21 -6 -20 -10 -21 -9 -14 17 11 42 7 77 -10 90 -8 6 -15 16 -15 22 0 17
-30 42 -51 42 -10 0 -37 -19 -60 -42 -35 -37 -40 -47 -36 -75 5 -30 3 -35 -32
-53 -39 -19 -56 -43 -45 -61 3 -6 -2 -21 -11 -35 -12 -18 -15 -36 -11 -59 8
-41 -15 -54 -45 -24 -26 26 -39 21 -67 -27 -20 -34 -22 -48 -17 -114 5 -65 9
-78 35 -105 29 -30 39 -55 21 -55 -5 0 -19 -25 -31 -55 -17 -42 -21 -65 -16
-99 6 -38 4 -44 -14 -49 -11 -3 -20 -12 -20 -21 0 -21 43 -21 60 -1 7 8 18 15
25 15 7 0 18 7 25 15 10 12 7 20 -20 45 -20 19 -29 34 -23 42 8 14 10 19 12
42 2 24 53 78 68 72 8 -3 28 1 45 10 28 15 31 14 52 -5 21 -19 22 -20 33 -2 8
13 20 17 42 13 39 -5 41 12 4 32 -31 16 -118 12 -140 -5 -9 -8 -17 -8 -28 1
-8 6 -19 9 -25 5 -7 -4 -9 2 -4 19 6 24 4 26 -25 26 -17 0 -31 3 -32 8 -5 41
-7 122 -3 140 5 25 33 31 35 7 3 -35 4 -38 15 -42 6 -2 22 10 37 27 15 16 33
30 41 30 13 0 26 20 26 40 0 4 -9 10 -20 13 -28 7 -25 37 8 63 21 18 24 25 15
35 -10 10 -9 15 5 25 9 8 25 14 35 14 24 0 39 43 27 76 -8 21 -6 30 19 56 34
36 57 33 66 -9 4 -15 10 -35 15 -44 6 -12 3 -22 -10 -34 -16 -15 -17 -19 -3
-46 14 -29 46 -39 58 -18 4 6 14 8 22 4 17 -6 53 21 53 40 0 7 9 20 20 30 18
17 21 17 45 1 14 -9 25 -20 25 -25 0 -4 11 -20 25 -35 19 -20 23 -33 19 -56
-4 -17 1 -49 11 -79 17 -46 17 -50 2 -66 -21 -20 -21 -15 6 -52 26 -35 40 -32
56 10 14 37 39 34 57 -8 16 -38 11 -79 -13 -107 -8 -9 -12 -21 -9 -27 4 -6 2
-20 -4 -31 -9 -16 -8 -25 1 -36 9 -11 8 -18 -4 -32 -15 -17 -15 -21 3 -54 18
-34 18 -37 1 -52 -10 -9 -23 -16 -30 -16 -7 0 -26 -8 -42 -17 -23 -14 -29 -23
-24 -38 9 -29 16 -157 9 -177 -4 -13 -12 -16 -28 -12 -18 4 -25 -1 -36 -28
-13 -28 -21 -33 -54 -36 -63 -5 -68 13 -15 61 71 65 84 84 70 101 -9 11 -20
12 -44 5 -18 -5 -34 -9 -36 -9 -11 0 18 22 49 38 46 23 59 47 39 67 -15 15
-17 14 -32 -9 -12 -17 -22 -23 -37 -19 -13 3 -26 -1 -33 -11 -11 -15 -14 -15
-35 -1 -12 9 -22 25 -22 35 0 10 -5 22 -12 26 -14 9 -49 -32 -42 -50 3 -8 1
-17 -5 -21 -7 -3 -11 2 -11 14 0 21 -33 30 -44 13 -6 -11 -64 -3 -72 9 -3 5
-14 9 -26 9 -18 0 -19 -4 -14 -35 7 -36 -1 -44 -21 -24 -21 21 -43 3 -37 -30
5 -25 2 -32 -24 -45 -26 -14 -31 -14 -36 -1 -8 22 -31 18 -49 -7 -13 -20 -18
-21 -36 -10 -19 11 -21 10 -21 -18 l0 -30 70 6 c51 5 70 4 70 -5 0 -18 65 -81
83 -81 8 0 22 6 30 14 12 13 16 4 26 -67 10 -73 15 -187 9 -187 -2 0 -34 11
-73 25 -128 45 -227 10 -213 -74 3 -20 4 -20 34 8 17 16 40 28 50 27 11 -2 24
4 31 13 11 14 12 14 13 -3 0 -14 5 -17 24 -12 15 4 43 -2 70 -14 40 -17 46
-23 48 -52 3 -61 4 -148 0 -148 -2 0 -8 13 -13 29 -6 16 -15 28 -22 28 -40 -1
-47 3 -42 26 5 20 1 25 -30 34 -20 7 -45 10 -56 8 -10 -2 -19 2 -19 8 0 8 -3
9 -8 1 -4 -6 -23 -10 -42 -10 -34 1 -35 0 -38 -43 -3 -36 -1 -43 12 -38 20 8
20 0 2 -18 -11 -12 -13 -68 -10 -322 3 -169 5 -328 6 -353 0 -25 -3 -127 -7
-227 l-8 -183 27 0 c16 0 26 -5 26 -15 0 -9 -9 -15 -25 -15 -22 0 -25 -4 -25
-40 0 -29 4 -40 15 -40 8 0 15 -7 15 -15 0 -9 -6 -12 -15 -9 -12 5 -15 -3 -15
-40 0 -36 3 -44 15 -40 8 3 17 14 20 24 3 10 28 33 55 50 28 18 50 36 50 41 0
12 -27 11 -35 -1 -3 -5 -10 -10 -15 -10 -15 0 -16 34 -2 63 16 33 4 76 -23 78
-8 1 -19 3 -25 4 -5 1 -12 3 -15 4 -3 0 -1 10 5 21 16 29 89 80 106 73 8 -3
14 -1 14 3 0 5 19 10 42 11 23 2 46 7 52 13 16 16 30 12 16 -5 -7 -8 -17 -36
-21 -62 -9 -46 -41 -93 -64 -93 -6 0 -21 -9 -34 -21 -21 -20 -21 -22 -6 -39 9
-10 22 -17 29 -14 7 3 36 -1 65 -9 44 -11 50 -15 37 -26 -8 -7 -36 -20 -63
-30 -29 -10 -49 -24 -53 -36 -3 -11 -12 -21 -20 -23 -27 -6 -60 -32 -60 -47 0
-9 13 -18 30 -22 29 -5 30 -7 14 -24 -10 -11 -15 -28 -12 -43 3 -14 1 -23 -3
-20 -5 3 -14 -6 -20 -20 -9 -19 -8 -35 7 -75 29 -83 -1 -84 -37 -1 -28 64 -49
73 -49 20 0 -22 5 -40 10 -40 6 0 10 -11 10 -24 0 -14 -4 -28 -10 -31 -16 -10
-11 -52 7 -59 26 -10 39 11 20 32 -27 30 -20 35 17 13 45 -28 74 -27 88 4 7
16 19 25 33 25 19 0 23 -7 28 -41 4 -32 16 -53 52 -89 l47 -48 -23 -13 c-13
-6 -37 -13 -54 -14 -74 -5 -130 -29 -121 -51 3 -8 9 -21 12 -29 3 -8 2 -15 -2
-16 -98 -7 -114 -21 -114 -102 0 -43 5 -66 17 -79 16 -18 16 -18 0 -12 -15 5
-17 -2 -17 -57 1 -59 2 -62 15 -45 8 11 15 25 15 32 0 6 7 17 15 24 8 7 13 16
10 20 -3 4 6 10 20 12 17 4 29 -1 38 -15 17 -25 62 -17 100 19 l27 25 0 -26
c0 -18 -5 -25 -19 -25 -10 0 -29 -9 -42 -20 l-24 -20 23 -6 c25 -7 26 -12 12
-48 -5 -14 -20 -28 -35 -32 -17 -4 -25 -13 -25 -29 0 -21 27 -38 93 -59 25 -8
21 -25 -8 -38 -14 -6 -24 -17 -21 -24 3 -7 -2 -12 -12 -12 -9 1 -50 -2 -90 -6
l-72 -8 9 25 c5 14 7 27 4 31 -3 3 -2 13 2 23 6 16 11 13 41 -21 28 -33 36
-37 49 -26 20 17 19 33 -4 54 -28 25 -37 89 -17 118 9 12 16 30 16 40 0 32
-30 19 -62 -27 -24 -34 -34 -42 -45 -34 -10 9 -13 6 -13 -15 0 -14 5 -26 12
-26 9 0 9 -3 0 -12 -8 -8 -12 -46 -12 -103 l0 -92 55 19 c151 51 358 -27 438
-165 124 -212 4 -479 -241 -537 -53 -12 -200 -9 -235 5 -16 7 -17 -5 -17 -161
1 -117 4 -164 11 -152 5 9 15 15 22 12 19 -7 8 -66 -14 -82 -17 -12 -19 -29
-19 -174 0 -159 0 -161 19 -144 11 10 25 15 32 10 6 -4 25 -7 40 -6 30 1 38
-11 16 -25 -6 -4 -32 -13 -57 -18 -43 -10 -45 -12 -48 -48 -3 -36 -2 -38 20
-31 121 38 196 43 279 17 178 -56 297 -243 259 -411 -36 -165 -159 -274 -330
-293 -72 -8 -114 -3 -207 26 -20 7 -23 4 -23 -24 0 -24 6 -34 33 -47 17 -9 35
-22 39 -29 4 -7 24 -16 43 -19 20 -4 33 -11 30 -17 -10 -15 -101 -11 -115 6
-20 24 -30 17 -30 -20 0 -36 7 -40 52 -36 11 2 18 -5 18 -14 0 -9 11 -31 25
-49 34 -44 94 -55 230 -41 39 4 70 14 90 29 16 12 38 25 48 29 10 4 23 20 28
37 12 33 28 37 62 16 42 -27 90 -30 117 -6 l25 21 -47 -6 c-39 -5 -52 -2 -77
16 -23 17 -37 20 -66 15 -20 -4 -38 -12 -40 -19 -15 -53 -16 -53 -30 -20 -16
37 -43 43 -68 15 -22 -24 -21 -31 4 -58 l21 -22 -21 -12 c-29 -15 -39 -7 -33
29 5 39 -24 57 -63 39 -27 -12 -29 -26 -10 -70 6 -14 2 -18 -15 -18 -16 0 -20
4 -16 16 7 19 -13 104 -25 104 -5 0 -9 -7 -9 -15 0 -8 -4 -15 -9 -15 -21 0
-42 -32 -35 -54 7 -21 6 -21 -15 -2 -31 28 -27 53 14 70 40 17 53 39 36 60
-10 12 -6 15 17 21 38 8 114 4 128 -7 6 -4 32 -4 58 1 28 5 49 5 52 -1 7 -11
87 -4 156 14 42 10 50 10 67 -6 13 -12 30 -17 47 -13 14 2 39 -2 56 -10 34
-18 92 -12 118 12 21 19 53 19 92 -1 28 -14 36 -14 99 1 68 17 92 35 82 63 -3
8 5 12 24 12 16 0 33 4 39 9 5 5 18 11 29 13 18 3 20 -3 21 -54 0 -31 6 -74
13 -95 12 -37 11 -42 -13 -78 -53 -78 -32 -89 109 -60 61 12 128 27 150 34 49
13 130 14 154 2 10 -6 38 -12 62 -15 25 -3 65 -12 88 -21 78 -27 398 -53 444
-36 12 5 40 11 62 14 22 4 87 18 145 33 112 28 200 33 307 15 33 -5 71 -7 82
-4 30 8 108 -14 145 -41 65 -48 121 -58 331 -61 88 -1 187 -8 220 -15 60 -12
187 -17 300 -11 33 2 94 -1 135 -5 41 -5 227 -9 413 -9 l338 0 -6 -25 c-3 -14
-6 -35 -6 -46 1 -18 -7 -22 -43 -26 -55 -7 -121 -38 -121 -58 0 -26 45 -41
153 -49 7 -1 11 -4 9 -9 -3 -4 -31 -8 -62 -10 -31 -2 -66 -7 -78 -12 -14 -6
35 -9 135 -9 l156 -1 -1 68 -2 67 -34 5 c-19 3 -36 11 -39 18 -2 6 2 10 10 8
57 -18 68 -17 68 9 0 20 -5 25 -25 25 -14 0 -25 5 -25 10 0 6 11 8 25 4 22 -5
25 -3 25 20 0 20 -5 26 -22 26 l-22 0 22 16 c16 11 22 25 22 55 0 26 -4 39
-13 39 -16 0 -47 -32 -47 -48 0 -8 -18 -12 -50 -12 -30 0 -50 -4 -50 -11 0 -8
-4 -8 -13 -1 -9 8 -56 9 -158 2 -234 -14 -463 -10 -514 9 -24 9 -47 20 -51 24
-4 4 -18 7 -31 7 -12 0 -23 4 -23 9 0 18 7 20 128 36 33 5 50 22 63 65 19 61
-9 120 -80 167 -31 21 -68 48 -83 60 -16 12 -62 29 -105 38 -120 26 -319 95
-366 126 -71 47 -151 120 -164 148 -15 35 -5 82 18 88 11 3 19 11 19 19 0 25
-20 25 -45 0 -48 -48 -27 -140 46 -196 24 -19 61 -49 81 -67 21 -18 55 -40 75
-48 65 -28 235 -82 313 -99 58 -14 94 -30 158 -73 92 -62 102 -75 102 -130 0
-56 -16 -71 -75 -74 -50 -2 -104 -26 -138 -61 -27 -27 -61 -33 -194 -33 -84 0
-126 4 -135 13 -6 6 -21 12 -32 12 -20 0 -20 0 0 14 19 14 19 15 0 22 -10 4
-81 -1 -158 -11 -176 -22 -297 -15 -344 20 -35 27 -70 37 -218 65 -126 23
-238 26 -298 6 -24 -8 -77 -21 -118 -30 -41 -10 -94 -22 -116 -28 -98 -24
-403 -5 -468 30 -21 11 -70 26 -109 33 -46 8 -84 21 -105 37 -29 21 -40 23
-75 17 -23 -5 -76 -8 -117 -9 l-75 -1 2 85 c5 162 13 286 27 425 8 77 18 176
21 220 8 94 20 155 33 164 5 3 9 24 8 46 0 60 23 190 50 280 13 44 23 94 23
110 -1 17 4 42 10 58 6 15 8 27 5 27 -2 0 3 14 11 30 19 36 12 54 -14 40 -19
-10 -44 -76 -56 -145 -8 -55 -25 -80 -25 -40 0 38 37 316 50 373 6 23 10 64
10 90 0 26 4 52 9 57 5 6 16 60 25 120 9 61 18 121 20 135 12 63 35 243 41
315 6 90 11 136 25 280 16 148 20 193 25 270 2 39 11 129 19 200 8 72 18 200
21 285 4 85 8 162 10 170 2 8 7 44 10 80 4 36 11 88 16 115 6 28 10 158 10
291 -1 132 3 254 8 272 6 19 6 32 0 34 -5 2 -15 31 -21 65 -9 50 -9 68 2 87
10 20 10 31 0 55 -10 26 -10 36 4 66 21 43 34 195 18 195 -19 0 -39 -42 -46
-97 -4 -28 -15 -78 -26 -110 -23 -69 -25 -142 -6 -198 11 -31 14 -107 15 -322
0 -160 -4 -285 -9 -288 -9 -6 -24 52 -18 70 7 21 -43 112 -81 148 -59 55 -121
80 -216 84 -68 4 -85 1 -113 -17 -19 -11 -32 -26 -29 -33 4 -14 5 -14 71 -3
120 21 265 -58 305 -164 7 -19 22 -53 33 -76 19 -37 20 -44 7 -73 -8 -17 -22
-34 -32 -37 -25 -8 -15 -29 14 -29 15 0 28 8 34 23 14 31 27 28 15 -4 -6 -14
-11 -37 -11 -52 -2 -24 -2 -24 -6 -4 -4 22 -36 31 -47 14 -7 -12 15 -92 25
-92 5 0 5 -8 2 -17 -6 -16 -5 -17 11 -3 17 14 18 13 13 -15 -4 -17 -9 -66 -12
-110 -18 -275 -21 -315 -29 -323 -3 -3 -6 46 -7 109 0 124 -5 211 -13 274 -7
52 -54 152 -89 190 -15 17 -37 44 -49 61 -67 96 -282 170 -333 114 -18 -20
-17 -20 37 -20 110 0 237 -88 333 -231 61 -91 73 -154 74 -401 l1 -118 25 0
c21 0 25 -4 21 -22 -6 -27 -15 -127 -21 -223 -8 -131 -17 -250 -21 -270 -2
-11 -6 -47 -9 -80 -3 -33 -8 -89 -12 -125 -4 -36 -6 -69 -4 -74 1 -4 -4 -45
-11 -90 l-13 -81 -9 45 c-4 25 -10 312 -12 639 -4 639 -6 661 -58 772 -14 30
-35 68 -46 84 -11 17 -24 40 -29 52 -20 45 -132 99 -183 88 -64 -14 -74 -44
-15 -46 18 0 41 -4 52 -9 l20 -9 -20 -1 c-24 -1 -55 -23 -55 -39 0 -18 37 -13
45 7 6 16 7 16 19 -1 19 -24 29 -21 24 8 -4 20 -2 23 11 15 34 -20 58 -47 100
-114 75 -120 93 -193 92 -376 -1 -74 -1 -269 -1 -432 -1 -166 -5 -300 -10
-303 -5 -3 -9 93 -10 232 0 224 -5 295 -31 503 -15 120 -64 262 -116 337 -24
35 -43 70 -43 78 0 17 -55 21 -79 6 -11 -7 -7 -16 20 -43 96 -97 154 -259 174
-478 4 -36 8 -76 10 -90 3 -14 7 -169 10 -345 3 -176 8 -364 10 -418 5 -120
-10 -120 -21 1 -9 102 -9 106 -18 152 -9 50 -15 104 -22 190 -3 41 -11 147
-19 235 -8 88 -17 198 -21 243 -8 111 -16 138 -39 134 -15 -3 -17 3 -13 48 3
29 -1 88 -8 133 -11 70 -17 85 -48 116 -20 20 -36 42 -36 48 0 15 -60 25 -76
12 -15 -13 -11 -64 8 -88 28 -35 46 -78 51 -129 l6 -53 -33 7 c-43 8 -58 -12
-28 -37 26 -20 27 -32 7 -49 -8 -7 -15 -21 -15 -32 0 -31 -23 -15 -33 22 -10
39 -55 90 -79 90 -37 0 -47 11 -41 43 3 18 14 38 24 44 17 13 32 83 17 83 -12
0 -9 20 5 34 7 7 29 16 50 20 20 4 37 11 37 15 0 12 -42 21 -67 15 -18 -5 -20
-2 -16 20 5 26 21 43 56 61 12 6 24 24 28 43 4 18 13 38 22 45 16 13 29 79 27
138 -1 31 5 39 40 63 40 26 41 28 35 71 -6 39 -5 45 19 61 15 9 69 81 121 160
52 79 104 148 115 154 29 16 25 34 -6 26 -25 -7 -54 7 -54 25 0 4 6 14 13 21
26 28 61 83 44 69 -28 -23 -32 -3 -6 27 l24 27 -31 -28 c-18 -16 -37 -25 -46
-22 -9 4 -22 -1 -29 -12 -31 -42 -95 -71 -82 -37 5 15 3 14 -21 -1 -15 -10
-29 -15 -32 -13 -7 8 45 40 55 33 10 -6 71 63 71 80 0 5 -4 4 -9 -3 -6 -11 -9
-9 -13 5 -4 13 0 19 13 20 11 1 19 -3 19 -9 0 -6 9 -3 20 7 11 10 20 13 20 7
0 -20 18 -13 25 9 6 16 12 19 33 15 20 -5 23 -4 12 3 -12 8 -9 17 19 52 31 38
33 43 18 54 -23 16 -21 23 5 27 29 4 45 52 24 73 -14 14 -18 13 -42 -14 -21
-24 -32 -29 -58 -24 -22 3 -36 0 -45 -10 -7 -9 -18 -14 -26 -11 -7 3 -16 0
-21 -7 -4 -8 -3 -10 4 -5 7 4 23 -4 38 -19 14 -14 30 -23 35 -20 20 13 8 -26
-16 -50 -25 -24 -41 -33 -31 -17 2 4 -18 8 -45 8 -44 0 -54 -5 -50 -28 0 -5
-9 -9 -21 -10 -13 0 -28 -2 -35 -2 -6 -1 -20 -9 -31 -19 -19 -18 -20 -17 -31
14 -13 38 -14 49 -2 31 6 -10 10 -10 21 3 11 13 10 14 -5 8 -15 -5 -17 -3 -12
12 6 15 5 16 -8 5 -12 -10 -16 -8 -24 13 -8 20 -16 25 -40 23 -17 -1 -31 2
-31 8 0 6 -5 5 -12 -2 -13 -13 -32 -16 -24 -4 3 5 -15 8 -40 7 -39 0 -50 -6
-76 -35 -17 -19 -28 -27 -25 -17 4 9 2 17 -3 17 -6 0 -10 -4 -10 -9 0 -6 -12
-3 -27 5 -16 7 -36 14 -46 14 -10 0 -20 7 -24 16 -6 15 -7 15 -19 0 -7 -10
-15 -13 -18 -7 -7 10 48 54 57 45 3 -3 15 4 26 15 12 12 27 21 35 21 7 0 19 7
27 16 7 8 21 13 31 11 10 -3 16 -1 12 4 -3 5 -2 9 1 9 22 0 162 33 171 41 6 5
14 6 17 2 4 -3 7 -2 7 4 0 5 15 18 34 28 33 18 34 18 82 -6 59 -29 134 -34
134 -9 0 20 34 53 58 56 9 2 27 -6 38 -17 15 -14 23 -17 26 -8 3 10 11 9 34
-2 19 -10 39 -13 57 -8 15 4 29 3 32 -1 3 -5 12 -7 20 -3 8 3 15 3 15 0 0 -11
-85 -202 -111 -250 -11 -20 -4 -37 16 -37 16 0 55 60 55 86 0 11 7 27 15 37 7
10 34 83 60 161 41 127 80 215 89 205 2 -2 7 -53 10 -114 8 -129 23 -190 77
-302 27 -56 59 -104 101 -148 90 -95 97 -93 257 65 69 69 144 145 166 170 44
49 103 98 150 124 17 9 37 21 45 26 32 21 149 69 219 91 64 19 88 21 185 16
129 -7 213 -27 235 -55 9 -11 25 -22 35 -24 32 -5 28 -23 -7 -36 -43 -15 -75
-48 -60 -63 7 -7 21 -3 46 11 20 12 46 20 59 18 22 -4 22 -5 3 -12 -66 -26
-149 -73 -169 -97 -13 -15 -31 -58 -41 -96 -9 -37 -25 -93 -35 -123 -20 -57
-48 -173 -56 -225 -3 -16 -11 -63 -19 -103 -8 -40 -17 -155 -20 -255 -3 -100
-10 -249 -15 -332 -6 -82 -8 -184 -5 -225 20 -306 50 -425 147 -580 36 -57 37
-62 13 -40 -39 35 -122 162 -139 213 -29 86 -38 132 -40 212 -2 45 -6 88 -10
94 -14 22 -16 551 -3 572 9 15 8 22 -10 39 -12 11 -20 26 -17 33 2 7 6 66 8
132 3 66 7 144 10 173 8 69 53 229 76 267 9 17 20 46 24 66 4 21 18 53 31 73
45 66 19 95 -29 34 -24 -31 -25 -32 -22 -8 8 70 55 149 118 200 35 28 53 49
48 54 -23 23 -145 -79 -191 -158 -35 -63 -39 -129 -9 -161 l20 -21 -28 -31
c-16 -17 -34 -43 -40 -59 -14 -36 -36 -145 -33 -161 1 -7 -2 -13 -8 -13 -14 0
-21 -67 -27 -262 l-6 -177 31 -30 c18 -18 26 -31 18 -34 -20 -6 -14 -469 9
-672 8 -64 31 -163 47 -195 21 -44 79 -134 114 -178 30 -37 99 -82 125 -82 5
0 26 -11 46 -25 42 -29 64 -31 82 -10 6 8 15 14 18 13 22 -2 33 4 30 19 -2 14
8 20 39 28 26 6 58 25 84 50 23 22 40 33 37 25 -3 -8 -13 -52 -24 -97 -15 -66
-23 -83 -37 -83 -18 0 -21 -5 -31 -53 -4 -15 -11 -25 -16 -22 -5 3 -11 1 -15
-5 -3 -5 -1 -10 5 -10 14 0 9 -18 -42 -140 -30 -75 -45 -99 -66 -108 -15 -7
-49 -28 -77 -47 -42 -30 -57 -35 -93 -32 -33 3 -49 10 -66 31 -19 25 -23 26
-35 13 -10 -13 -7 -22 22 -53 l34 -38 -41 -20 c-22 -12 -47 -33 -55 -47 -14
-25 -13 -30 10 -63 13 -20 39 -43 58 -52 32 -15 36 -15 80 7 42 22 46 28 49
64 2 30 -3 46 -18 62 -29 32 -26 53 8 53 16 0 37 7 48 15 10 8 26 15 34 15 27
0 98 83 120 139 20 53 50 104 50 87 0 -5 -20 -51 -45 -104 -25 -52 -45 -99
-45 -103 0 -19 39 -8 45 12 16 48 16 4 0 -78 -25 -132 -38 -183 -46 -177 -4 2
-5 -4 -3 -13 6 -23 -55 -126 -104 -176 -20 -21 -49 -41 -65 -45 -34 -9 -37
-25 -5 -34 19 -5 17 -6 -12 -7 -45 -2 -65 -14 -56 -36 5 -15 15 -16 64 -10 56
7 57 7 35 -12 -12 -10 -29 -23 -38 -28 -15 -9 -16 -12 -3 -23 12 -10 22 -7 53
13 20 15 39 25 41 23 7 -7 -12 -24 -48 -43 -41 -21 -44 -25 -26 -43 15 -15 -4
-38 -40 -45 -47 -9 -153 68 -189 137 -15 29 -15 31 6 44 27 18 27 32 0 32 -69
0 -79 37 -78 289 1 140 4 185 9 141 10 -94 43 -165 111 -235 32 -33 65 -77 73
-97 18 -43 27 -50 46 -38 23 14 -39 126 -94 173 -34 28 -50 52 -69 104 -14 37
-25 75 -25 83 2 36 -14 230 -22 285 -5 33 -7 83 -5 110 10 114 13 224 8 244
-3 11 -12 21 -19 21 -11 0 -14 -25 -14 -125 0 -81 -4 -125 -10 -125 -7 0 -10
24 -9 63 2 34 -1 141 -5 237 -7 164 -17 453 -16 475 4 75 11 165 16 185 8 33
8 146 -1 159 -16 27 -23 3 -31 -111 -14 -213 -11 -557 12 -1248 4 -96 7 -251
9 -345 3 -178 15 -249 46 -265 9 -6 20 -27 24 -49 11 -64 82 -143 169 -189 11
-5 29 -37 42 -73 40 -114 47 -133 71 -194 23 -56 70 -137 114 -195 63 -83 99
-129 111 -141 8 -8 27 -31 43 -52 36 -49 213 -182 297 -224 83 -41 176 -83
187 -83 5 0 62 -16 127 -36 66 -20 127 -38 136 -39 29 -6 104 -62 123 -92 40
-63 108 -99 223 -119 94 -16 197 -54 219 -82 8 -9 23 -36 34 -59 31 -66 83
-98 151 -94 16 1 18 22 17 260 0 250 0 260 -20 266 -10 4 -33 5 -49 3 -35 -3
-35 -4 -14 48 12 31 24 44 50 53 28 10 34 18 34 40 0 19 -8 32 -25 41 -14 8
-25 22 -25 34 0 15 3 17 12 8 7 -7 18 -12 25 -12 10 0 13 25 12 110 -1 87 -5
110 -16 110 -20 0 -26 -25 -13 -50 15 -28 9 -33 -27 -26 -21 5 -33 16 -41 40
-11 30 -67 112 -97 141 -5 6 -27 21 -47 34 -21 12 -38 27 -38 32 0 14 16 11
30 -6 7 -8 19 -15 27 -15 7 0 16 -6 19 -14 3 -8 17 -17 31 -21 35 -8 67 -36
71 -60 8 -47 52 -42 52 6 0 16 5 29 10 29 6 0 10 -4 10 -10 0 -5 7 -10 15 -10
13 0 15 23 15 145 0 90 -4 145 -10 145 -5 0 -10 9 -10 20 0 11 4 20 9 20 6 0
10 97 11 243 l0 242 -33 23 c-41 27 -39 27 -88 -4 -39 -24 -41 -25 -55 -7 -16
22 -17 29 -3 54 8 16 7 25 -6 39 -17 19 -9 32 25 37 8 1 25 14 38 28 18 21 22
35 18 67 -2 22 -6 42 -9 44 -2 2 -16 -5 -30 -16 -25 -20 -28 -20 -57 -5 -23
12 -29 21 -25 35 9 27 -71 90 -116 90 -45 0 -63 13 -56 40 8 33 -18 36 -57 6
-42 -32 -50 -33 -35 -5 11 21 9 21 -39 14 -44 -6 -53 -4 -72 15 -20 20 -30 22
-81 17 -33 -3 -59 -2 -59 2 0 12 84 61 105 61 12 0 32 10 44 21 l23 22 20 -21
20 -20 -21 -7 c-11 -3 -21 -11 -21 -16 0 -15 49 -10 75 7 31 20 34 54 5 54
-13 0 -24 10 -30 25 -11 28 -20 31 -39 13 -11 -11 -13 -10 -8 4 4 11 -2 24
-18 37 -28 21 -33 56 -10 65 22 8 18 29 -10 56 -14 13 -25 22 -26 19 -2 -10
-9 -86 -10 -108 -1 -18 -3 -21 -10 -10 -6 10 -11 11 -16 3 -5 -6 -23 -16 -42
-22 -34 -12 -33 -12 -126 28 -16 8 -34 13 -38 12 -5 -2 -7 8 -5 20 3 20 8 23
41 21 36 -2 52 6 97 48 15 14 19 14 40 -3 29 -23 52 -24 43 0 -15 37 -101 87
-135 78 -25 -6 -22 11 3 19 12 4 26 2 32 -4 14 -14 30 -14 21 0 -5 8 6 9 35 4
l41 -7 0 65 0 64 -42 9 c-27 6 -44 15 -46 26 -5 25 46 31 132 17 62 -10 75
-15 78 -32 2 -11 12 -26 23 -33 29 -19 71 3 67 34 -4 25 6 27 51 9 18 -8 37
-12 43 -10 14 5 17 -63 3 -105 -12 -35 -35 -52 -71 -52 -30 0 -60 -21 -50 -35
11 -16 79 -64 104 -75 22 -8 22 -9 2 -9 -12 -1 -27 -8 -34 -16 -7 -9 -20 -15
-29 -14 -37 3 -60 -2 -82 -20 l-22 -18 21 -31 c12 -16 22 -35 22 -41 0 -6 11
-11 25 -11 14 0 25 6 25 13 0 7 14 18 30 24 17 6 30 19 30 28 0 12 5 15 16 11
9 -3 23 -6 32 -7 11 0 7 -5 -10 -13 -34 -15 -78 -55 -78 -72 0 -6 -10 -18 -22
-26 -26 -17 -17 -38 16 -38 32 0 121 -58 141 -92 18 -31 40 -36 49 -12 3 9 6
18 6 21 0 11 -71 72 -109 94 -50 28 -53 58 -6 74 34 11 48 23 57 46 5 13 85
59 103 59 3 0 5 -11 5 -25 0 -15 -6 -25 -14 -25 -7 0 -19 -7 -27 -16 -7 -8
-30 -24 -51 -35 -26 -14 -36 -24 -31 -35 4 -10 14 -14 29 -11 24 4 34 -16 14
-28 -14 -9 -12 -31 5 -48 9 -9 31 -14 59 -13 l45 1 -3 -38 c-2 -20 -11 -46
-20 -56 -15 -16 -15 -20 0 -50 20 -39 40 -49 61 -29 13 14 13 18 -1 40 -21 32
-14 38 32 27 86 -20 82 -27 80 134 0 78 -4 152 -9 164 -5 12 -5 25 0 27 4 3 7
31 7 63 -1 56 -2 58 -31 64 -44 8 -95 30 -95 40 0 5 12 9 28 9 39 0 78 23 74
43 -2 10 4 17 13 17 29 0 17 44 -19 68 -37 25 -41 45 -23 97 14 41 14 41 37
20 20 -18 20 -17 20 13 0 23 -5 32 -16 32 -9 0 -14 6 -11 13 2 6 0 27 -5 45
-7 23 -6 38 3 48 7 8 9 28 6 48 -4 28 -3 34 9 29 11 -4 14 8 14 64 l0 68 -72
-2 c-83 -2 -118 -17 -118 -49 0 -16 -9 -25 -30 -32 -20 -7 -36 -24 -47 -49
-10 -21 -24 -44 -31 -51 -14 -16 -14 -16 -32 75 -7 35 -19 68 -26 74 -8 6 -14
22 -14 34 0 23 -17 35 -51 35 -23 0 -25 15 -4 24 34 12 4 65 -37 66 -21 0 -34
23 -41 70 -7 41 -54 88 -98 97 -36 7 -37 16 -4 31 19 9 40 8 88 -2 75 -16 117
-32 117 -44 0 -10 77 -42 99 -42 8 0 31 16 52 35 22 19 45 35 52 35 17 0 51
30 59 51 6 16 42 22 116 20 21 -1 22 2 22 95 0 56 -4 93 -9 89 -5 -3 -12 -1
-15 4 -3 5 1 11 9 15 12 4 15 28 15 124 l0 120 -31 6 c-37 7 -34 30 4 34 27 3
27 4 27 89 0 85 0 86 -20 68 -11 -10 -20 -27 -20 -37 0 -10 -11 -30 -24 -44
l-23 -26 -37 35 c-30 30 -33 37 -21 47 8 7 15 23 15 36 0 25 -8 28 -64 24 -38
-2 -30 19 17 45 44 24 50 36 31 64 -12 16 -26 21 -60 21 -26 0 -43 4 -39 10
10 16 -18 49 -49 56 l-31 7 35 28 c27 23 44 29 80 29 25 0 52 6 59 13 10 10
11 9 6 -4 -4 -11 1 -18 15 -22 20 -5 22 -11 19 -84 -3 -94 4 -120 34 -122 12
-1 33 -2 47 -4 19 -1 26 3 28 21 3 19 -1 22 -32 22 -35 0 -36 1 -36 38 0 50
10 82 25 82 15 0 45 33 45 50 0 9 -8 6 -23 -8 -24 -23 -47 -29 -47 -13 0 6 10
17 22 25 24 17 47 88 48 148 0 31 -3 35 -20 31 -14 -4 -20 -14 -20 -32 0 -34
-8 -43 -25 -28 -9 8 -9 16 -2 28 13 21 2 65 -19 73 -22 9 -81 -11 -88 -29 -8
-22 -26 -18 -26 5 0 11 6 20 14 20 8 0 24 8 37 19 22 18 22 19 6 44 -9 14 -25
27 -36 29 -19 3 -19 5 -4 38 9 19 15 50 14 67 -2 18 5 43 13 55 10 14 16 44
16 79 0 72 12 83 85 77 l55 -5 0 59 c0 39 -7 70 -20 95 -11 21 -20 44 -20 51
0 8 -8 12 -17 10 -13 -3 -17 -12 -16 -31 1 -15 -2 -25 -7 -22 -4 3 -6 -4 -3
-15 3 -11 0 -20 -6 -20 -6 0 -11 6 -12 13 0 6 -8 -5 -18 -25 -9 -21 -29 -47
-44 -58 -26 -21 -27 -25 -24 -103 l4 -82 -43 -46 -42 -46 0 186 c0 246 1 258
42 275 18 7 42 25 53 40 21 27 47 34 58 16 12 -19 53 -10 73 15 11 14 25 25
31 25 8 0 11 55 11 180 l0 181 -27 26 c-29 26 -31 47 -8 73 22 26 24 82 4 123
-11 20 -24 37 -29 37 -6 0 -10 11 -10 24 0 31 -24 50 -53 42 -19 -4 -26 0 -35
18 -6 13 -20 27 -31 31 -22 7 -24 14 -21 52 1 13 -7 26 -20 33 -11 6 -18 15
-15 21 12 18 -24 20 -52 3 -92 -56 -103 -67 -103 -95 0 -23 -7 -32 -32 -43
-48 -20 -129 -107 -137 -147 -5 -26 -13 -35 -37 -41 -42 -11 -110 -86 -124
-137 -6 -23 -10 -67 -8 -99 3 -54 5 -58 38 -74 19 -10 38 -27 42 -38 4 -11 16
-20 28 -20 20 0 20 -1 -3 -37 -29 -46 -39 -103 -27 -162 9 -50 34 -75 67 -66
13 3 47 8 77 10 47 5 62 1 108 -24 l53 -30 3 -113 c1 -62 -1 -144 -5 -183 l-8
-70 -75 0 c-41 0 -80 -3 -86 -7 -6 -4 -24 1 -41 11 -41 26 -76 17 -121 -31
-64 -69 -135 -109 -200 -112 -47 -3 -59 0 -74 18 -9 12 -18 17 -18 11 -1 -5
-3 -81 -5 -167 -4 -150 -8 -212 -21 -304 -5 -37 -10 -42 -44 -53 -60 -18 -106
-13 -171 19 -106 51 -132 88 -133 190 -1 60 -3 65 -24 68 -31 5 -39 28 -17 52
14 15 16 31 13 70 -5 49 -3 53 45 113 27 34 56 77 65 95 18 38 21 38 55 12 31
-25 37 -25 37 -2 0 23 -19 42 -42 42 -18 0 -24 11 -12 22 3 3 24 -5 47 -18 50
-28 53 -29 61 -9 4 10 -5 22 -27 35 -19 12 -25 20 -16 20 9 0 28 -9 43 -21
l26 -20 0 20 c0 12 6 21 15 21 23 0 75 51 75 72 0 14 -6 19 -22 18 -13 -1 -25
-1 -28 0 -44 17 -174 14 -202 -4 -14 -9 -28 -13 -31 -9 -8 8 12 33 26 33 16 0
87 51 87 63 0 16 -67 0 -132 -32 -34 -17 -64 -28 -67 -25 -13 13 69 74 109 80
42 7 66 33 56 60 -5 13 -19 14 -78 8 -40 -3 -78 -11 -85 -18 -6 -6 -23 -33
-37 -61 -20 -40 -26 -46 -32 -32 -6 17 17 85 39 114 5 7 29 20 54 29 37 14 49
15 65 5 17 -10 20 -9 25 8 7 27 19 27 34 -1 l12 -22 16 21 c17 20 17 20 87
-12 57 -26 76 -41 101 -79 34 -51 62 -167 46 -189 -5 -6 -10 -54 -12 -104 -2
-73 1 -93 11 -93 10 0 14 18 16 62 2 47 8 67 22 80 23 22 25 62 6 115 -7 21
-18 58 -24 82 l-10 44 24 -27 c14 -14 28 -26 33 -26 29 0 80 28 104 57 16 18
34 33 42 33 15 0 26 25 19 43 -7 18 -53 52 -95 70 -74 31 -239 221 -239 276 0
18 -8 30 -83 123 -54 65 -90 89 -109 70 -9 -9 -2 -20 30 -48 81 -69 169 -218
123 -208 -9 3 -23 0 -31 -5 -12 -9 -12 -12 1 -28 8 -10 21 -31 27 -48 10 -24
2 -19 -45 31 -38 40 -74 67 -103 78 -95 37 -134 63 -143 96 -9 37 11 76 47 90
18 6 23 15 22 42 -1 18 -5 39 -9 46 -5 7 -3 12 6 12 8 0 18 -9 23 -20 8 -18
11 -19 36 -6 16 9 30 11 33 5 11 -17 45 -9 61 16 35 53 -13 86 -66 45 -14 -11
-32 -20 -40 -20 -8 0 0 9 18 20 77 47 65 177 -18 195 -38 8 -40 38 -5 61 26
17 34 44 13 44 -6 0 -20 -7 -30 -17 -10 -9 -21 -13 -25 -10 -14 14 55 108 88
119 8 3 11 9 7 13 -4 4 -32 -13 -63 -39 -32 -28 -55 -42 -55 -33 0 7 9 22 20
32 11 10 20 25 20 34 0 11 -13 3 -36 -22 -40 -44 -57 -41 -31 4 9 17 17 35 17
40 0 11 -21 11 -39 0z m1146 -151 c4 -64 9 -73 37 -66 20 5 25 2 28 -16 2 -19
9 -23 43 -24 36 0 40 -3 37 -23 -3 -16 3 -24 18 -28 23 -6 40 -39 40 -78 0
-21 -3 -23 -33 -18 -47 7 -67 -17 -36 -45 22 -21 19 -42 -7 -42 -8 0 -14 -5
-14 -11 0 -5 -4 -8 -9 -5 -15 9 -52 -27 -43 -42 7 -10 17 -9 51 3 60 21 87 19
105 -7 17 -24 22 -53 8 -44 -5 3 -25 1 -45 -5 -28 -7 -37 -15 -37 -31 0 -23
26 -58 44 -58 12 0 56 -86 56 -107 0 -7 -6 -13 -12 -14 -10 0 -10 -2 0 -6 18
-7 14 -27 -9 -41 -26 -17 -27 -15 -42 44 -10 40 -16 50 -36 52 -14 2 -34 10
-46 18 -18 11 -25 11 -49 -1 -16 -8 -37 -15 -47 -15 -27 0 -31 -14 -18 -65 8
-32 16 -45 25 -41 19 7 17 -1 -6 -26 -22 -24 -61 -32 -53 -11 3 7 0 13 -6 13
-6 0 -11 -5 -11 -10 0 -6 -9 -5 -22 2 -13 7 -24 14 -26 14 -1 1 2 14 8 30 10
25 8 30 -12 46 -30 23 -53 23 -77 -1 -11 -11 -32 -21 -47 -23 -15 -2 -32 -12
-38 -23 -6 -11 -12 -22 -13 -24 -6 -10 -42 46 -43 65 0 22 24 39 41 28 17 -10
21 27 5 45 -16 17 -16 19 4 24 22 6 27 45 10 78 -15 27 -34 24 -63 -11 -31
-36 -35 -37 -39 -7 -2 16 -10 22 -28 22 -24 0 -25 2 -23 57 3 89 34 135 108
158 55 17 65 27 65 67 0 28 3 33 18 29 25 -8 40 5 38 34 -1 20 4 26 26 28 34
4 78 55 78 89 0 31 46 75 75 71 16 -2 20 -12 22 -48z m-2097 -60 c19 -6 44
-15 55 -20 11 -5 67 -23 125 -40 124 -38 116 -34 160 -63 129 -81 152 -112
158 -207 3 -57 0 -72 -25 -120 -23 -44 -34 -55 -54 -55 -22 0 -24 3 -21 45 3
30 10 49 23 58 23 16 25 50 3 59 -10 3 -31 1 -47 -5 -36 -14 -35 -14 -43 26
-6 31 -6 31 23 20 44 -17 65 -5 61 34 -4 41 -27 47 -76 21 -26 -13 -36 -15
-39 -6 -6 17 -4 28 5 28 23 2 52 18 52 30 0 38 -83 54 -97 19 -3 -8 -12 -14
-21 -14 -12 0 -11 5 7 24 48 51 -24 92 -77 44 l-25 -23 7 28 c8 34 -11 67 -25
45 -7 -10 -9 -10 -9 0 0 14 -36 16 -45 2 -10 -16 -19 -12 -30 13 -12 27 -48
34 -79 14 -20 -14 -23 -13 -34 4 -17 26 -54 24 -85 -5 -18 -17 -28 -21 -36
-13 -8 8 -11 8 -11 -1 0 -6 -6 -9 -14 -6 -19 7 -57 -31 -50 -50 4 -9 -5 -16
-29 -20 -42 -8 -67 -47 -49 -76 13 -22 3 -33 -43 -45 -65 -16 -106 -11 -131
19 -13 15 -24 36 -24 46 0 58 112 158 215 191 58 19 267 19 325 -1z m943 -11
c-4 -15 0 -19 23 -21 16 0 36 0 44 0 34 4 62 -10 80 -41 27 -43 25 -73 -6
-103 -21 -22 -31 -25 -62 -20 -20 3 -46 7 -57 9 -26 3 -35 15 -35 49 0 16 -9
33 -22 43 -21 14 -24 14 -34 0 -7 -9 -18 -13 -28 -9 -18 7 -22 24 -6 24 6 0
10 6 10 14 0 23 29 46 57 46 20 0 24 4 20 19 -3 13 0 18 8 15 7 -3 11 -14 8
-25z m-1048 -50 c4 -6 5 -12 2 -15 -7 -7 -37 7 -37 17 0 13 27 11 35 -2z m110
-19 c3 -5 1 -10 -4 -10 -6 0 -11 5 -11 10 0 6 2 10 4 10 3 0 8 -4 11 -10z
m-205 -40 c0 -5 -7 -7 -15 -4 -8 4 -12 10 -9 15 6 11 24 2 24 -11z m170 -34
c0 -3 -4 -8 -10 -11 -5 -3 -10 -1 -10 4 0 6 5 11 10 11 6 0 10 -2 10 -4z
m-250 -36 c0 -5 -4 -10 -9 -10 -6 0 -13 5 -16 10 -3 6 1 10 9 10 9 0 16 -4 16
-10z m279 -33 c10 -2 25 -1 32 4 8 5 22 3 35 -6 22 -14 31 -16 97 -15 27 1 37
-4 37 -15 0 -14 12 -20 34 -16 16 3 25 -22 15 -42 -9 -17 -8 -17 10 -7 25 13
27 3 4 -22 -9 -10 -11 -18 -5 -18 7 0 9 -13 7 -32 -2 -18 1 -35 7 -39 6 -4 8
-15 4 -25 -6 -16 -8 -16 -19 6 -11 22 -20 25 -72 28 -33 1 -65 -1 -70 -5 -13
-9 -62 -112 -71 -147 -3 -14 -12 -30 -20 -37 -21 -17 -17 -29 11 -29 19 0 26
7 32 28 3 15 15 46 25 70 l20 43 23 -25 c35 -38 78 -35 68 5 -3 12 -20 23 -45
31 -36 11 -38 13 -22 25 25 18 52 16 81 -6 13 -11 31 -17 40 -14 9 3 14 2 12
-3 -28 -63 -53 -106 -64 -110 -8 -3 -37 -41 -64 -84 -86 -133 -161 -173 -230
-122 -17 12 -35 22 -41 22 -6 0 -26 10 -44 22 -33 22 -76 101 -76 141 0 19
-20 23 -37 6 -14 -14 -1 -54 37 -119 20 -35 37 -49 76 -65 27 -11 55 -25 61
-32 20 -18 82 -35 107 -29 25 6 36 -12 36 -61 0 -12 9 -31 20 -41 20 -19 20
-19 -18 -45 -21 -15 -43 -27 -49 -27 -6 0 -13 -4 -15 -9 -1 -4 -39 -32 -83
-62 -44 -29 -90 -61 -101 -71 -19 -17 -33 -19 -120 -14 -56 3 -123 13 -154 24
-49 17 -55 22 -58 49 -4 37 48 110 96 135 19 9 41 23 51 32 10 9 21 16 24 16
10 0 9 -50 -2 -87 -7 -24 -6 -33 5 -37 14 -5 58 79 49 94 -3 4 -5 57 -6 116 0
60 -5 116 -10 126 -6 11 -6 18 0 18 12 0 33 59 25 72 -8 12 -34 -10 -34 -29 0
-8 -5 -11 -10 -8 -8 5 -7 11 1 21 6 7 9 20 6 28 -4 10 0 12 14 9 14 -4 19 0
19 14 0 11 11 30 25 43 24 22 65 115 65 146 0 9 7 22 15 30 8 9 15 26 15 40 0
13 5 24 11 24 6 0 9 12 7 27 -2 23 1 29 25 33 16 3 33 15 40 30 8 15 21 25 34
25 12 0 25 4 29 8 4 4 13 -2 20 -12 7 -10 22 -21 33 -24z m-165 17 c3 -8 2
-12 -4 -9 -6 3 -10 10 -10 16 0 14 7 11 14 -7z m1316 -30 c0 -8 -4 -12 -10 -9
-5 3 -10 10 -10 16 0 5 5 9 10 9 6 0 10 -7 10 -16z m-1640 -75 c0 -6 -4 -7
-10 -4 -5 3 -10 11 -10 16 0 6 5 7 10 4 6 -3 10 -11 10 -16z m141 6 c-1 -15
-24 -12 -29 3 -3 9 2 13 12 10 10 -1 17 -7 17 -13z m1304 -11 c9 -13 6 -21
-17 -44 -23 -24 -27 -35 -23 -65 7 -58 14 -72 48 -97 28 -22 55 -34 146 -69
13 -5 22 -12 19 -15 -10 -10 -174 69 -205 99 -29 27 -33 37 -33 85 0 38 6 65
21 88 24 39 27 40 44 18z m-1225 -79 c0 -104 -61 -192 -115 -167 -31 14 -32
32 -2 32 48 0 96 71 99 148 3 67 18 56 18 -13z m-180 4 c0 -6 -4 -7 -10 -4 -5
3 -10 11 -10 16 0 6 5 7 10 4 6 -3 10 -11 10 -16z m118 4 c-5 -25 -28 -28 -28
-4 0 12 6 21 16 21 9 0 14 -7 12 -17z m-17 -86 c-8 -8 -11 -7 -11 4 0 20 13
34 18 19 3 -7 -1 -17 -7 -23z m-54 1 c-3 -8 -6 -5 -6 6 -1 11 2 17 5 13 3 -3
4 -12 1 -19z m-85 -120 c-10 -22 -11 -21 -11 12 -1 26 2 31 11 22 8 -8 8 -17
0 -34z m78 2 c0 -14 -40 -53 -48 -46 -9 9 20 56 35 56 7 0 13 -4 13 -10z
m2587 -22 c-3 -8 -6 -5 -6 6 -1 11 2 17 5 13 3 -3 4 -12 1 -19z m-2567 -22 c0
-3 -4 -8 -10 -11 -5 -3 -10 -1 -10 4 0 6 5 11 10 11 6 0 10 -2 10 -4z m1818
-118 c28 -26 66 -55 84 -64 18 -9 41 -23 51 -32 19 -17 24 -37 5 -26 -6 4 -22
-7 -38 -25 l-26 -33 -26 39 c-14 21 -28 48 -32 61 -10 29 -24 28 -32 -3 -6
-25 -7 -25 -50 21 -42 44 -54 64 -36 64 11 0 37 -30 45 -52 8 -23 19 -23 34 1
11 17 8 26 -20 60 -18 22 -35 40 -39 40 -15 2 -48 41 -48 58 0 13 10 7 38 -22
21 -22 61 -61 90 -87z m522 113 c0 -5 -8 -22 -17 -39 -19 -33 -11 -67 13 -58
13 5 14 4 6 -7 -15 -17 -6 -27 24 -27 28 0 41 -18 20 -26 -19 -7 -67 26 -85
59 -11 22 -11 28 3 48 9 13 16 31 16 41 0 10 5 18 10 18 6 0 10 -4 10 -9z
m-846 -17 c13 -34 6 -72 -14 -77 -18 -5 -20 0 -20 37 0 41 5 56 21 56 4 0 10
-7 13 -16z m-877 -20 c-9 -9 -28 6 -21 18 4 6 10 6 17 -1 6 -6 8 -13 4 -17z
m-617 -25 c0 -11 -4 -19 -9 -19 -10 0 -21 24 -21 47 0 13 3 13 15 3 8 -7 15
-21 15 -31z m1708 -132 c2 -4 -12 1 -32 13 -20 11 -41 20 -47 20 -6 0 -26 12
-45 26 -27 21 -34 33 -34 62 l0 35 78 -74 c42 -41 79 -78 80 -82z m436 103 c4
-25 3 -31 -4 -20 -5 8 -10 26 -10 39 0 32 6 24 14 -19z m398 15 c-4 -25 -42
-56 -42 -35 0 5 5 10 10 10 6 0 10 6 10 13 0 10 18 37 26 37 1 0 -1 -11 -4
-25z m-1962 -5 c0 -5 -4 -10 -10 -10 -5 0 -10 5 -10 10 0 6 5 10 10 10 6 0 10
-4 10 -10z m799 -74 c13 -15 5 -24 -46 -50 -18 -9 -33 -20 -33 -25 0 -13 -66
-82 -72 -76 -13 13 20 83 58 122 41 44 73 54 93 29z m38 8 c-3 -3 -12 -4 -19
-1 -8 3 -5 6 6 6 11 1 17 -2 13 -5z m-3207 -81 c0 -22 -2 -25 -10 -13 -13 20
-13 40 0 40 6 0 10 -12 10 -27z m-70 -8 c0 -8 -4 -15 -10 -15 -5 0 -10 7 -10
15 0 8 5 15 10 15 6 0 10 -7 10 -15z m150 -9 c0 -14 -27 -42 -34 -35 -2 2 0
14 5 27 9 24 29 30 29 8z m3180 -28 c-14 -5 -40 -17 -59 -24 -37 -16 -44 -15
-31 6 4 7 28 17 52 20 61 10 66 10 38 -2z m1239 -14 c1 -10 9 -26 17 -34 12
-14 7 -16 -36 -18 -28 -1 -50 1 -50 5 0 4 10 22 23 40 24 35 40 38 46 7z
m-2739 6 c0 -5 -21 -21 -47 -36 -27 -15 -56 -34 -65 -42 -21 -17 -24 -4 -5 21
14 20 87 66 105 67 6 0 12 -4 12 -10z m-1655 -30 c-10 -11 -24 -20 -32 -20 -8
0 -2 10 14 24 33 28 45 25 18 -4z m-213 -15 c-5 -30 -20 -41 -35 -26 -7 7 -5
16 8 31 24 27 33 25 27 -5z m1682 -78 c-11 -42 -12 -77 -3 -182 6 -71 10 -138
10 -148 0 -9 4 -15 9 -12 6 3 7 0 4 -8 -9 -23 34 -115 67 -145 26 -23 30 -32
22 -48 -6 -10 -14 -40 -17 -66 -8 -55 -20 -60 -44 -18 -9 16 -25 30 -34 30
-10 0 -18 4 -18 9 0 4 -18 35 -40 67 -22 33 -40 66 -40 74 0 9 -6 25 -14 36
-23 32 -46 177 -46 283 l0 97 38 36 c47 45 93 69 108 57 9 -7 9 -23 -2 -62z
m971 52 c17 -5 64 -40 105 -79 41 -38 80 -72 87 -75 15 -5 17 -25 3 -25 -5 0
-10 4 -10 8 0 10 -23 12 -139 15 -150 3 -345 -55 -405 -122 -11 -12 -25 -21
-31 -21 -23 0 -170 -117 -210 -166 -55 -69 -264 -274 -278 -274 -17 0 -5 21
18 30 24 9 28 18 40 94 9 58 34 104 95 177 109 132 124 151 141 179 9 15 43
48 76 73 32 25 67 54 78 64 11 10 35 28 53 38 17 11 32 22 32 25 0 4 16 13 35
20 22 9 34 19 31 27 -3 7 -1 13 4 13 6 0 10 -4 10 -8 0 -5 23 -1 52 9 54 18
152 17 213 -2z m745 -94 c0 -8 -2 -15 -4 -15 -2 0 -6 7 -10 15 -3 8 -1 15 4
15 6 0 10 -7 10 -15z m-1654 -113 c5 1 27 -4 49 -12 22 -7 79 -14 127 -14 49
-1 88 -4 88 -7 0 -4 -9 -18 -20 -32 -16 -20 -27 -25 -53 -22 -216 28 -207 26
-207 50 0 13 -3 32 -6 42 -4 13 -3 14 3 5 6 -7 14 -12 19 -10z m2294 -57 c5 3
24 -4 44 -16 l35 -20 18 20 c14 17 29 21 85 21 55 0 68 -3 68 -15 0 -13 -13
-15 -70 -13 -51 1 -74 -2 -84 -12 -20 -20 -35 -111 -24 -140 7 -18 4 -31 -13
-54 -15 -20 -17 -26 -6 -17 22 18 25 14 20 -31 -4 -32 -9 -37 -36 -41 -18 -2
-35 0 -38 5 -3 5 -10 10 -15 10 -19 1 -34 11 -28 19 3 5 -3 6 -12 2 -14 -5
-16 -3 -10 13 6 15 5 17 -5 7 -7 -7 -17 -13 -23 -13 -6 0 -5 5 2 12 21 21 13
30 -8 10 -14 -13 -32 -18 -55 -16 -26 2 -36 -2 -40 -17 -5 -14 -11 -17 -23
-10 -9 4 -24 6 -32 3 -11 -4 -10 1 4 17 26 29 12 27 -18 -4 -16 -16 -31 -23
-42 -18 -10 3 -15 2 -12 -3 3 -5 0 -15 -8 -22 -14 -12 -19 -7 -14 13 2 6 4 30
4 55 1 43 2 44 34 46 30 2 32 0 20 -15 -7 -9 -3 -7 8 5 16 17 31 22 58 20 20
-2 39 1 42 5 3 5 10 9 17 9 8 0 8 -3 -1 -12 -7 -7 -12 -15 -12 -20 0 -4 11 4
25 18 21 21 27 23 39 12 9 -8 11 -17 5 -22 -5 -6 -9 -14 -9 -20 0 -5 8 1 19
12 22 26 36 29 27 5 -6 -15 -4 -15 14 2 27 24 38 11 14 -17 -12 -16 -9 -14 12
5 32 28 50 36 38 15 -6 -10 -4 -10 8 0 9 7 22 11 29 10 9 -2 13 4 11 17 -5 30
-16 37 -56 37 -25 0 -37 5 -41 18 -8 24 -33 30 -65 15 -96 -46 -144 -58 -120
-31 6 8 18 12 26 9 8 -3 14 0 14 5 0 6 16 19 35 28 19 9 35 20 35 25 0 5 5 9
10 9 13 0 39 27 65 65 16 24 20 27 23 12 2 -9 7 -15 12 -12z m369 -66 c-29
-41 -16 -66 31 -61 21 2 30 0 25 -7 -3 -6 -12 -11 -19 -11 -7 0 -21 -9 -31
-20 -14 -15 -16 -23 -7 -32 8 -8 7 -15 -6 -24 -30 -23 -34 -15 -30 69 4 70 8
87 29 111 31 35 37 16 8 -25z m-2615 13 c2 -4 1 -14 -3 -21 -12 -18 -55 -10
-59 12 -3 13 3 17 27 17 16 0 32 -4 35 -8z m122 -12 c15 0 24 -6 24 -15 0 -22
-27 -30 -56 -17 -27 13 -35 48 -8 38 9 -3 27 -6 40 -6z m2411 -149 c5 -81 4
-92 -16 -117 -19 -24 -20 -29 -7 -42 13 -13 11 -20 -16 -53 -24 -30 -28 -41
-19 -52 9 -12 4 -16 -28 -21 -21 -3 -53 -1 -70 5 -17 6 -40 9 -50 6 -16 -4
-20 2 -24 37 -2 22 -8 51 -12 63 -7 21 -4 22 61 25 76 3 92 21 42 46 -35 16
-37 42 -3 42 23 0 24 3 28 68 3 56 3 51 5 -30 2 -97 11 -118 32 -78 6 11 16
19 22 17 15 -3 29 68 22 106 -3 16 -3 45 1 65 11 57 25 17 32 -87z m-160 72
c-3 -10 -5 -4 -5 12 0 17 2 24 5 18 2 -7 2 -21 0 -30z m-3972 -9 c23 6 27 4
21 -10 -6 -16 -5 -16 14 1 13 12 20 14 20 5 0 -6 6 -10 14 -7 8 3 17 3 20 -1
4 -3 25 -5 46 -3 36 2 40 0 40 -20 l0 -23 16 23 c12 16 19 20 27 12 7 -7 15
-7 23 -1 8 8 12 4 12 -15 0 -13 -7 -30 -14 -36 -8 -6 -14 -7 -14 -2 0 11 -36
11 -46 0 -4 -4 -18 -7 -30 -7 -13 0 -26 -5 -30 -11 -4 -8 -9 -7 -15 2 -6 10
-9 11 -9 2 0 -7 -6 -13 -14 -13 -10 0 -14 9 -13 28 2 29 2 29 -74 31 -45 1
-45 1 -41 32 3 20 7 26 12 19 5 -8 18 -10 35 -6z m2932 -5 c13 1 32 -4 43 -12
19 -13 18 -14 -18 -39 -184 -122 -211 -151 -255 -268 -39 -105 -59 -204 -98
-495 -12 -86 -13 -97 -29 -285 -15 -174 -28 -486 -24 -540 6 -65 22 -136 46
-203 32 -90 16 -76 -21 18 -40 103 -51 149 -70 300 -9 65 -7 356 3 550 3 66 8
167 11 225 5 126 40 317 77 420 11 30 30 94 42 142 13 48 29 94 36 103 18 22
75 55 138 81 45 18 60 20 76 11 12 -6 31 -10 43 -8z m663 -9 c0 -7 -13 -7 -38
-1 -2 1 -1 5 3 11 6 10 35 2 35 -10z m-3904 -29 c9 8 14 8 14 1 0 -16 -16 -23
-34 -16 -9 3 -13 11 -9 17 5 8 8 7 11 -1 3 -10 7 -10 18 -1z m584 -1 c0 -5 -2
-10 -4 -10 -3 0 -8 5 -11 10 -3 6 -1 10 4 10 6 0 11 -4 11 -10z m-310 -20 c0
-5 -4 -10 -10 -10 -5 0 -10 5 -10 10 0 6 5 10 10 10 6 0 10 -4 10 -10z m3059
-32 c-7 -13 -14 -18 -16 -11 -3 7 1 22 8 35 7 13 14 18 16 11 3 -7 -1 -22 -8
-35z m1321 20 c0 -18 -2 -20 -9 -8 -6 8 -7 18 -5 22 9 14 14 9 14 -14z m-1427
-70 c-85 -86 -128 -162 -181 -318 -51 -146 -52 -151 -62 -145 -8 5 -7 15 12
95 13 55 61 202 82 251 10 25 46 62 108 112 51 42 97 76 103 76 5 1 -23 -32
-62 -71z m-3154 34 c0 -10 2 -83 4 -163 2 -80 6 -150 10 -155 4 -7 -9 -11 -33
-12 -41 -2 -49 5 -29 25 9 9 5 24 -15 59 -29 52 -34 79 -12 71 24 -10 37 18
39 88 3 73 -7 90 -34 56 -13 -15 -15 -29 -10 -49 5 -15 5 -36 1 -47 -7 -19 -9
-18 -18 7 -7 17 -8 38 -2 59 10 35 6 49 -15 49 -33 0 -37 -121 -5 -182 20 -38
20 -41 3 -53 -14 -11 -15 -16 -6 -26 10 -10 15 -9 28 1 23 19 30 4 11 -25 -19
-29 -25 -30 -51 -11 -23 17 -30 60 -28 193 1 117 11 143 46 118 29 -20 54 -19
68 4 14 22 47 17 48 -7z m221 8 c0 -4 -7 -10 -15 -14 -10 -4 -15 1 -15 14 0
13 5 18 15 14 8 -4 15 -10 15 -14z m74 -6 c3 -7 0 -17 -6 -20 -7 -4 -14 -2
-16 4 -2 7 -12 12 -23 12 -10 0 -19 4 -19 9 0 15 58 10 64 -5z m4196 -8 c0
-21 -20 -30 -33 -17 -9 9 -8 14 3 21 21 14 30 12 30 -4z m-3230 -5 c0 -6 -4
-13 -10 -16 -5 -3 -10 1 -10 9 0 9 5 16 10 16 6 0 10 -4 10 -9z m-876 -48 c-8
-46 -18 -59 -58 -80 -16 -9 -36 -21 -43 -27 -28 -25 -40 -32 -70 -45 -22 -9
-33 -20 -33 -33 0 -18 4 -20 32 -14 18 4 58 23 88 44 82 55 123 47 106 -22 -4
-17 -14 -22 -41 -24 -43 -3 -113 -33 -142 -61 -12 -12 -35 -21 -50 -21 -15 0
-35 -5 -43 -10 -13 -9 -12 -12 4 -25 10 -8 23 -16 28 -17 14 -5 -2 -38 -18
-38 -8 0 -14 -8 -14 -17 0 -13 3 -14 11 -6 9 9 16 9 30 0 24 -15 53 1 57 33 2
12 12 25 23 27 11 3 26 18 35 34 13 26 20 31 40 28 4 0 10 4 14 10 3 6 29 13
57 15 28 2 56 7 62 10 17 11 14 -49 -3 -63 -8 -7 -41 -14 -74 -16 -63 -4 -132
-27 -132 -45 0 -18 31 -24 74 -13 48 13 78 -2 82 -40 2 -24 2 -25 -69 -20 -85
5 -122 -10 -122 -47 0 -42 -28 -30 -40 17 -5 23 -13 45 -17 49 -12 11 -38 -16
-38 -39 0 -11 -7 -29 -16 -39 -14 -14 -14 -20 -4 -33 9 -11 16 -12 25 -5 9 7
16 6 24 -4 12 -15 79 -18 96 -5 6 4 19 1 29 -7 17 -12 17 -14 3 -20 -24 -9
-21 -34 9 -65 22 -23 24 -30 14 -48 -6 -12 -29 -29 -51 -37 -22 -9 -46 -25
-53 -36 -13 -19 -14 -18 -33 9 -11 15 -18 34 -16 41 7 19 -26 52 -53 52 -12 0
-31 3 -41 7 -14 6 -10 10 22 18 51 15 58 43 16 68 -16 9 -36 17 -44 17 -9 0
-28 5 -43 10 -26 10 -27 11 -8 25 11 7 33 15 49 17 22 2 30 10 36 31 6 23 2
34 -23 62 -16 19 -36 35 -44 35 -12 0 -34 37 -34 56 0 8 38 4 65 -6 25 -9 25
-11 11 -32 -19 -26 -5 -48 30 -48 17 0 24 6 24 20 0 11 -5 20 -11 20 -8 0 -7
5 1 16 11 12 10 18 -3 31 -14 15 -14 19 0 56 16 39 16 41 -6 59 -23 18 -23 18
-2 18 12 0 21 -4 21 -10 0 -19 20 -10 52 26 18 20 45 42 60 50 16 8 31 28 39
51 12 38 32 58 79 80 45 20 52 17 44 -24z m2883 -28 c15 -14 28 -40 29 -58 10
-99 16 -116 56 -162 53 -60 39 -82 -19 -30 -30 27 -42 47 -47 76 -7 41 -14 47
-34 27 -32 -32 11 -123 72 -152 36 -17 36 -17 19 -40 -46 -61 -114 -81 -173
-51 -23 12 -31 12 -42 2 -7 -6 -32 -13 -55 -15 -38 -2 -44 1 -58 27 -8 17 -15
41 -15 54 0 51 81 257 101 257 4 0 7 -33 6 -72 -2 -65 0 -73 16 -73 17 0 19
10 21 81 2 84 20 129 70 176 21 19 21 19 24 -1 2 -10 15 -31 29 -46z m-2519
-5 c-1 -25 5 -47 14 -56 14 -14 19 -14 53 0 21 9 40 15 42 12 2 -2 -10 -18
-28 -35 -17 -18 -29 -38 -26 -46 3 -7 2 -15 -2 -17 -5 -2 -18 -21 -29 -43
l-21 -40 -1 36 c0 20 -7 58 -16 85 -28 89 -24 139 13 144 2 0 2 -18 1 -40z
m3691 21 c11 -7 9 -10 -8 -16 -25 -8 -36 -2 -26 14 8 13 15 14 34 2z m-4228
-44 c-17 -17 -24 -1 -10 25 12 21 14 21 17 4 2 -10 -1 -23 -7 -29z m4408 13
c-21 -14 -32 1 -12 15 12 9 19 10 22 3 2 -6 -3 -14 -10 -18z m-4112 14 c-3 -3
-12 -4 -19 -1 -8 3 -5 6 6 6 11 1 17 -2 13 -5z m133 -52 c14 -15 16 -19 5 -11
-11 9 -41 23 -67 33 -63 23 -72 39 -11 19 27 -8 59 -27 73 -41z m3416 43 c44
-44 40 -156 -7 -201 -34 -33 -36 -28 -8 20 23 39 25 130 3 172 -15 27 -10 31
12 9z m-3196 -5 c0 -5 -4 -10 -10 -10 -5 0 -10 5 -10 10 0 6 5 10 10 10 6 0
10 -4 10 -10z m3051 -17 c10 -17 16 -53 17 -93 l0 -65 -7 67 c-4 36 -15 78
-24 92 -10 14 -14 26 -9 26 4 0 15 -12 23 -27z m89 -34 c11 -41 8 -69 -8 -69
-4 0 -8 16 -9 35 0 19 -4 46 -7 60 -4 17 -3 24 3 20 6 -3 15 -24 21 -46z
m-157 24 c4 -2 7 -11 7 -20 0 -9 7 -25 16 -35 15 -16 15 -18 0 -24 -13 -5 -62
-2 -123 7 -14 2 -18 70 -6 83 7 6 90 -2 106 -11z m-3773 -13 c0 -5 -5 -10 -11
-10 -5 0 -7 5 -4 10 3 6 8 10 11 10 2 0 4 -4 4 -10z m380 0 c0 -5 -2 -10 -4
-10 -3 0 -8 5 -11 10 -3 6 -1 10 4 10 6 0 11 -4 11 -10z m92 -12 c26 -10 27
-10 11 -43 -11 -23 -21 -31 -33 -28 -10 3 -27 0 -39 -6 -20 -11 -21 -10 -21
44 0 55 0 55 28 49 15 -3 39 -10 54 -16z m154 -109 c4 -62 -8 -87 -60 -119
-20 -12 -41 -33 -48 -47 -8 -17 -23 -27 -39 -29 -25 -2 -24 -1 17 44 24 26 53
56 63 67 31 31 54 94 47 129 -5 22 -3 27 5 19 6 -6 13 -35 15 -64z m185 28
c-8 -8 -11 -8 -11 2 0 7 -5 9 -11 6 -6 -4 -5 2 3 14 11 18 14 18 21 5 6 -10 5
-20 -2 -27z m94 24 c-3 -6 -11 -11 -17 -11 -6 0 -6 6 2 15 14 17 26 13 15 -4z
m3415 -32 c0 -6 -4 -7 -10 -4 -5 3 -10 11 -10 16 0 6 5 7 10 4 6 -3 10 -11 10
-16z m-3768 -14 c-6 -32 -20 -41 -29 -19 -4 11 1 22 12 30 24 18 23 18 17 -11z
m3123 -1 c9 -9 13 -24 10 -35 -3 -10 -1 -27 5 -38 7 -15 7 -26 -1 -39 -9 -14
-9 -25 2 -48 11 -22 30 -35 84 -55 59 -23 70 -31 70 -51 0 -29 -34 -36 -67
-14 -38 25 -101 30 -135 12 -29 -15 -31 -14 -36 4 -3 11 -1 23 5 26 5 3 8 16
6 29 -2 13 5 32 15 42 14 17 24 49 29 98 0 6 -3 27 -7 48 -8 41 -4 45 20 21z
m-3195 -77 c4 -5 -8 -26 -28 -48 -42 -45 -57 -44 -18 1 20 24 26 44 28 83 1
47 2 48 5 12 3 -22 8 -44 13 -48z m3778 53 l40 0 -5 -42 c-3 -24 -6 -44 -7
-45 -1 -1 -24 4 -51 13 -28 8 -52 14 -55 14 -8 -1 -12 50 -6 66 4 11 10 12 25
4 11 -5 38 -10 59 -10z m-3470 -20 c24 -18 40 -20 120 -17 59 1 91 -1 89 -8
-8 -22 -68 -52 -118 -58 -56 -7 -75 -22 -56 -46 7 -8 11 -23 9 -33 -4 -22 26
-61 40 -52 5 3 20 -2 34 -11 20 -13 28 -14 40 -4 31 26 13 -18 -25 -60 l-39
-43 -46 32 c-36 26 -51 31 -76 26 -26 -5 -33 -2 -37 14 -3 11 -14 22 -24 25
-10 4 -19 11 -19 17 0 11 -28 8 -117 -10 -34 -8 -45 -6 -55 6 -11 13 -10 15 3
10 9 -4 27 1 39 9 33 23 100 34 100 17 0 -17 41 -18 60 -1 12 10 12 9 0 -6
-12 -16 -12 -20 0 -27 18 -11 71 -2 89 15 21 20 3 37 -35 33 l-34 -4 23 26
c37 40 67 87 60 94 -17 17 -45 1 -78 -44 -20 -27 -40 -50 -45 -50 -5 0 -15 -3
-23 -6 -12 -4 -15 1 -12 23 2 15 -1 33 -6 39 -6 7 -2 17 10 28 15 14 24 15 40
6 18 -9 22 -7 31 15 6 15 10 32 10 39 0 12 9 26 17 26 2 0 16 -9 31 -20z
m3077 -19 c-3 -6 14 -19 37 -29 24 -11 57 -34 73 -52 l30 -32 -47 6 c-27 4
-49 3 -52 -3 -10 -16 34 -34 69 -28 33 5 33 5 19 -21 -28 -54 -7 -114 29 -83
10 7 17 7 24 0 16 -16 33 -2 33 25 0 26 -31 41 -49 23 -14 -14 -14 -4 0 27 12
26 52 39 68 23 7 -7 15 -6 26 3 25 21 1 38 -47 33 l-41 -4 32 27 32 26 114
-17 c63 -9 115 -20 115 -24 0 -20 -32 -40 -97 -61 -40 -12 -77 -28 -83 -36
-13 -15 3 -52 32 -72 24 -17 14 -32 -20 -31 -38 1 -104 -17 -112 -31 -8 -13
-2 -49 11 -66 19 -24 4 -68 -34 -103 -34 -31 -38 -38 -32 -69 9 -46 -7 -34
-38 30 -35 74 -37 84 -22 105 31 40 5 103 -43 103 -15 0 -33 4 -41 9 -10 7 -7
12 15 22 25 12 29 21 32 60 5 80 -23 115 -108 134 -16 4 -32 11 -36 16 -13 22
7 58 43 77 41 21 78 28 68 13z m182 -15 c-3 -7 -1 -18 4 -23 7 -7 5 -12 -5
-16 -10 -4 -16 -1 -16 7 0 18 11 46 17 46 3 0 3 -6 0 -14z m-4167 -82 c0 -3
-7 -16 -16 -29 -9 -14 -14 -32 -10 -40 3 -10 -1 -15 -14 -15 -29 0 -33 -65
-14 -207 5 -42 4 -53 -7 -53 -12 0 -12 -2 0 -9 11 -7 10 -11 -6 -19 -19 -10
-19 -6 -19 184 1 167 3 191 14 165 6 -17 16 -31 22 -31 16 0 23 50 11 76 -17
37 -14 40 14 10 14 -15 25 -29 25 -32z m3555 46 c3 -5 23 -10 43 -10 29 0 39
-5 47 -22 6 -14 22 -25 40 -28 l30 -6 -22 -14 c-26 -17 -29 -33 -9 -49 22 -18
-8 -74 -35 -66 -12 4 -29 -2 -45 -14 -15 -12 -40 -21 -56 -21 -16 0 -39 -7
-52 -15 l-23 -16 3 121 c2 84 -1 122 -9 127 -8 5 -1 10 18 14 46 10 63 10 70
-1z m168 -24 c-5 -10 -13 -12 -23 -6 -11 7 -12 11 0 25 16 20 36 4 23 -19z
m-2615 -52 c-9 -10 -21 -13 -29 -8 -9 5 -8 9 7 15 31 12 39 10 22 -7z m-1040
-31 c20 -20 23 -28 12 -31 -8 -2 -34 -13 -57 -23 -36 -15 -43 -15 -43 -3 0 8
7 14 15 14 17 0 39 46 29 61 -12 20 18 7 44 -18z m3361 -131 c2 -190 -19 -508
-39 -599 -6 -23 -15 -71 -20 -105 -38 -238 -55 -312 -73 -301 -9 5 -9 3 0 -8
16 -20 -35 -169 -89 -261 l-42 -70 -49 5 c-36 3 -56 11 -75 31 -25 25 -26 28
-9 38 18 9 17 12 -9 39 -15 16 -25 32 -21 35 4 4 0 12 -8 18 -10 8 -17 38 -20
99 -3 49 -13 114 -21 145 -20 76 -31 221 -22 307 4 39 10 117 13 175 2 58 9
130 15 160 6 30 14 111 19 180 5 76 16 145 27 176 17 49 19 51 33 32 11 -13
33 -21 71 -24 30 -3 60 -10 66 -15 7 -5 41 -7 83 -3 39 4 74 7 78 7 12 1 47
38 66 70 10 15 19 27 21 27 2 0 4 -71 5 -158z m-2889 134 c0 -3 -4 -8 -10 -11
-5 -3 -10 -1 -10 4 0 6 5 11 10 11 6 0 10 -2 10 -4z m2417 -58 c-3 -8 -6 -5
-6 6 -1 11 2 17 5 13 3 -3 4 -12 1 -19z m1427 6 c21 -8 21 -43 0 -51 -9 -3
-25 3 -37 16 -19 19 -20 23 -7 31 18 11 23 12 44 4z m134 -20 c2 -16 -4 -20
-28 -22 -33 -3 -38 8 -14 33 20 20 38 15 42 -11z m-3967 -10 l24 -25 -28 10
c-20 8 -34 8 -48 0 -33 -17 -14 -42 42 -53 14 -3 39 -18 55 -32 l29 -27 -50
-17 c-37 -12 -51 -22 -53 -38 -3 -16 2 -22 17 -22 11 0 23 5 26 10 3 6 17 10
29 10 30 0 36 -22 29 -113 -5 -60 -3 -76 11 -90 27 -26 41 -11 42 46 1 28 3
66 5 82 1 17 -1 53 -5 80 -8 46 -7 48 7 30 8 -11 13 -24 10 -30 -3 -5 0 -5 7
2 9 8 20 8 41 1 37 -13 59 -5 59 21 0 26 -7 29 -74 34 -44 4 -61 10 -72 26
-13 18 -13 21 -1 21 8 0 17 -6 20 -14 7 -19 95 -19 124 -1 38 25 90 26 133 4
l40 -21 -22 -17 c-28 -21 -83 -41 -114 -41 -27 0 -77 -60 -72 -87 2 -10 13
-19 26 -21 12 -2 29 -16 37 -33 9 -16 14 -29 13 -30 -2 0 -24 -2 -50 -3 -48
-2 -67 -12 -72 -37 -2 -8 -8 -25 -13 -39 -7 -16 -7 -29 -1 -37 6 -8 2 -28 -12
-60 -20 -44 -23 -46 -31 -25 -5 12 -20 27 -34 32 -28 11 -49 53 -39 82 5 17 2
19 -29 13 -32 -6 -35 -5 -46 26 -9 27 -8 35 5 50 11 13 14 27 9 49 -9 39 -42
56 -82 43 -15 -6 -34 -8 -40 -6 -15 5 -18 53 -3 53 6 0 10 6 10 13 0 14 40 37
65 37 15 0 19 11 15 40 -3 26 -52 70 -77 70 -28 0 -83 26 -83 40 0 5 37 11 83
13 45 1 89 4 98 5 8 1 26 -10 40 -24z m3308 -11 c13 -9 37 -19 52 -22 l29 -6
-27 -27 c-16 -15 -42 -39 -59 -53 -51 -40 -58 -120 -11 -113 16 2 23 12 27 38
4 19 14 45 24 56 19 22 18 22 115 -11 11 -4 10 -10 -4 -31 -9 -15 -15 -37 -12
-50 3 -20 2 -22 -9 -13 -9 7 -31 9 -56 6 -34 -5 -52 -17 -106 -71 -45 -45 -73
-66 -90 -66 -34 0 -91 -29 -103 -52 -13 -24 -4 -68 13 -68 7 0 2 -7 -10 -16
-21 -15 -25 -15 -43 2 -24 22 -26 95 -3 115 14 12 14 14 -2 26 -10 7 -29 13
-42 13 -20 0 -22 2 -12 15 6 8 21 17 32 21 38 12 69 56 64 90 -2 18 0 36 6 42
16 16 -1 32 -32 30 -19 -1 -38 6 -54 21 -27 26 -26 41 3 41 10 0 35 11 55 25
33 23 36 23 36 5 0 -10 5 -22 10 -25 6 -4 8 -15 5 -25 -3 -10 -2 -21 3 -24 7
-4 1 -93 -9 -135 -5 -19 31 -27 42 -9 6 9 10 3 15 -19 4 -18 9 -33 13 -34 50
-7 58 -5 79 19 20 23 21 27 7 42 -26 29 -45 113 -42 191 1 41 7 77 12 81 17
13 60 9 84 -9z m-141 -51 c4 -24 -7 -29 -25 -11 -14 14 -5 41 11 36 6 -2 12
-13 14 -25z m-3704 -19 c-19 -19 -18 -29 7 -52 20 -18 20 -21 5 -36 -9 -9 -16
-32 -16 -51 0 -19 -3 -34 -7 -34 -5 0 -7 27 -6 59 0 33 -2 75 -6 93 -11 46 -5
60 19 46 15 -10 16 -14 4 -25z m4440 11 c10 -26 -4 -37 -25 -18 -10 9 -16 21
-13 25 9 15 31 10 38 -7z m129 -2 c3 7 6 0 6 -16 1 -22 -3 -27 -15 -22 -9 3
-20 6 -25 6 -11 0 -12 33 -2 44 4 4 13 0 19 -9 9 -12 13 -13 17 -3z m-193 -64
c0 -22 -4 -29 -16 -26 -25 5 -38 32 -30 63 7 26 8 27 26 10 11 -10 20 -31 20
-47z m-103 -15 c1 -25 -10 -42 -28 -43 -5 0 -29 45 -29 55 0 4 26 12 45 14 6
0 11 -11 12 -26z m-781 -14 c11 -23 13 -34 5 -42 -19 -19 -35 10 -32 56 2 25
8 21 27 -14z m1003 17 c20 -23 10 -71 -14 -71 -16 0 -21 8 -23 43 -3 45 13 57
37 28z m-4414 -36 c3 -5 1 -10 -4 -10 -6 0 -11 -14 -11 -31 0 -18 -4 -28 -10
-24 -15 9 -9 75 6 75 7 0 16 -4 19 -10z m2826 -145 c-6 -49 -13 -130 -16 -180
-7 -109 -14 -147 -25 -140 -8 5 -4 110 5 125 2 4 7 49 10 101 5 80 12 151 20
194 1 6 3 21 5 35 3 20 4 18 7 -10 3 -19 0 -75 -6 -125z m-2775 119 c1 -10 3
-25 5 -33 2 -7 -1 -15 -7 -18 -7 -2 -13 12 -16 37 -2 25 0 39 7 37 5 -2 11
-12 11 -23z m4470 -6 c-1 -17 -7 -22 -21 -20 -30 6 -32 12 -11 28 27 19 33 18
32 -8z m-3743 -14 c-8 -21 -43 -17 -43 5 0 14 6 17 24 14 16 -3 23 -10 19 -19z
m3513 1 c12 -48 -13 -68 -56 -45 -16 9 -17 15 -8 40 13 39 54 43 64 5z m-121
-40 c0 -27 -30 -42 -50 -25 -16 13 -15 15 5 32 27 22 45 19 45 -7z m388 13
c-4 -7 -6 -21 -4 -32 1 -11 -2 -16 -8 -12 -14 9 -14 29 1 44 16 16 21 15 11 0z
m-4313 -14 c0 -23 -12 -44 -26 -44 -16 0 -19 26 -4 35 6 4 8 10 6 14 -3 4 1 8
9 8 8 0 15 -6 15 -13z m3210 9 c0 -5 -18 -18 -40 -31 l-40 -23 0 25 c0 18 6
26 23 29 38 7 57 7 57 0z m-3476 -40 c-34 -17 -38 -13 -18 16 13 17 19 20 30
10 12 -10 10 -14 -12 -26z m-146 -8 c0 -14 -4 -25 -9 -25 -5 0 -9 14 -9 31 0
16 4 28 9 25 5 -3 9 -17 9 -31z m521 -6 c-16 -9 -29 -3 -29 16 0 19 23 25 34
7 5 -9 4 -17 -5 -23z m3511 30 c0 -5 -5 -7 -11 -3 -14 9 -59 -16 -59 -33 0 -7
-7 -13 -15 -13 -21 0 -9 23 23 43 31 19 62 22 62 6z m528 -18 c5 -30 -10 -45
-37 -36 -23 7 -28 34 -9 53 19 19 43 10 46 -17z m93 19 c22 -12 26 -35 5 -27
-8 3 -17 1 -19 -6 -3 -9 -8 -9 -16 -1 -6 6 -9 18 -5 27 7 20 9 20 35 7z
m-4404 -22 c-3 -8 -6 -5 -6 6 -1 11 2 17 5 13 3 -3 4 -12 1 -19z m3872 -66
c-24 -9 -39 9 -39 45 l0 38 24 -40 c14 -22 20 -42 15 -43z m237 30 c-21 -22
-28 -24 -38 -13 -9 9 -10 15 -2 18 6 2 20 10 30 17 31 23 38 6 10 -22z m361
14 c-4 -10 -1 -13 7 -10 7 3 16 -3 20 -13 4 -9 4 -14 0 -11 -3 4 -28 -1 -54
-11 -36 -14 -47 -15 -47 -5 0 7 4 11 8 8 4 -2 18 9 31 25 24 32 44 41 35 17z
m-681 -40 c-5 -28 -3 -37 14 -49 12 -8 18 -17 13 -20 -14 -9 -26 4 -49 50 -23
45 -22 53 9 53 17 0 18 -5 13 -34z m394 -26 c-15 -28 -30 -34 -45 -19 -11 12
-11 20 1 49 l15 35 20 -23 c14 -18 16 -28 9 -42z m-3964 -9 c-9 -14 -43 -14
-51 0 -4 6 1 17 11 24 16 12 21 12 33 0 7 -7 10 -18 7 -24z m4142 -20 c-2 -14
-8 -26 -14 -28 -7 -2 -9 9 -7 29 3 29 2 30 -7 11 -10 -24 -30 -31 -30 -12 0 5
8 21 18 34 16 22 18 23 30 7 7 -9 12 -28 10 -41z m-1024 6 c8 8 8 -20 0 -41
-3 -9 -10 -14 -14 -11 -5 3 -16 -2 -24 -11 -18 -18 -20 -9 -10 44 5 26 9 30
24 22 9 -5 20 -6 24 -3z m-2714 -18 c15 -27 -5 -51 -39 -47 -19 2 -27 10 -29
27 -6 41 48 57 68 20z m2910 18 c0 -2 -9 -12 -20 -22 -24 -21 -27 -14 -4 9 15
15 24 20 24 13z m715 -43 c0 -32 -3 -39 -20 -39 -16 0 -20 6 -18 29 5 68 38
77 38 10z m-4230 26 c3 -5 1 -10 -4 -10 -6 0 -11 5 -11 10 0 6 2 10 4 10 3 0
8 -4 11 -10z m3722 -17 c3 -8 -1 -21 -10 -30 -13 -13 -21 -13 -52 -3 -34 11
-35 13 -21 29 9 10 14 20 11 22 -2 3 12 3 31 1 20 -3 38 -11 41 -19z m166 -2
c-4 -16 1 -18 34 -16 21 1 48 7 60 13 29 16 32 15 27 -6 -5 -18 -109 -75 -156
-86 -35 -8 -36 -29 -3 -44 19 -9 25 -9 25 0 0 7 6 3 14 -7 18 -25 10 -38 -15
-25 -14 8 -19 7 -19 -2 -1 -8 -5 -7 -14 5 -7 9 -26 17 -43 17 -27 0 -29 2 -25
34 5 41 -11 53 -43 32 -14 -9 -25 -12 -25 -7 0 15 35 31 69 31 48 0 62 9 55
36 -5 21 -3 24 20 24 17 0 26 5 26 16 0 8 4 13 9 10 5 -3 7 -14 4 -25z m527
25 c0 -2 -7 -7 -16 -10 -8 -3 -12 -2 -9 4 6 10 25 14 25 6z m-4125 -15 c10
-17 -12 -21 -25 -6 -10 12 -10 15 3 15 9 0 18 -4 22 -9z m4025 -70 c-11 -21
-22 -26 -33 -15 -3 4 4 15 16 24 27 22 32 19 17 -9z m-3967 -25 c3 -8 -1 -20
-9 -27 -12 -10 -18 -9 -31 3 -8 9 -12 21 -9 27 10 16 43 14 49 -3z m3184 -8
c-3 -8 -6 -5 -6 6 -1 11 2 17 5 13 3 -3 4 -12 1 -19z m133 6 c30 -6 32 -8 15
-15 -11 -4 -35 -8 -52 -8 -27 -1 -33 3 -33 20 0 15 5 19 18 15 9 -2 33 -8 52
-12z m-3440 -9 c10 -12 10 -21 1 -42 -11 -25 -12 -25 -31 -8 -20 18 -26 46
-13 58 11 12 30 8 43 -8z m297 -12 c-4 -3 -2 -12 3 -18 11 -14 3 -45 -11 -45
-5 0 -9 13 -9 28 0 27 7 42 18 42 3 0 2 -3 -1 -7z m3753 -17 c0 -7 -7 -19 -16
-27 -13 -10 -17 -10 -25 2 -6 9 -3 18 8 27 22 16 33 15 33 -2z m-4260 0 c0 -2
-9 -6 -20 -9 -11 -3 -18 -1 -14 4 5 9 34 13 34 5z m393 -33 c-4 -10 -9 -11
-16 -4 -5 5 -7 18 -3 28 6 14 9 15 16 4 4 -8 6 -21 3 -28z m3087 34 c0 -2 -9
-12 -19 -21 -19 -17 -20 -17 -31 3 -10 19 -8 21 20 21 16 0 30 -2 30 -3z m-81
-65 c22 -29 28 -43 18 -39 -22 8 -47 -2 -47 -18 0 -15 38 -42 74 -51 19 -4 28
-2 32 11 4 10 1 21 -7 27 -11 8 -10 9 4 4 10 -3 27 -6 37 -6 13 0 17 -5 13
-20 -7 -25 15 -26 63 -4 37 18 67 52 58 66 -9 14 -37 9 -59 -12 l-22 -21 6 37
c6 40 13 44 93 57 32 5 37 3 35 -12 -2 -10 -15 -33 -30 -50 -15 -18 -27 -38
-27 -45 0 -36 -122 -94 -133 -62 -3 8 -11 7 -29 -1 -30 -14 -49 -70 -27 -84
14 -8 49 6 49 20 0 18 76 -28 87 -52 15 -33 11 -35 -42 -29 -31 3 -52 0 -68
-11 -23 -15 -25 -14 -44 12 -18 24 -35 32 -123 58 -29 8 13 23 48 17 37 -7 72
16 72 47 0 27 -47 76 -85 89 -20 7 -37 20 -41 33 -4 12 -18 36 -31 54 l-25 32
59 -1 c57 -1 59 -2 92 -46z m551 -2 c11 -6 22 -26 25 -48 13 -77 16 -83 48
-97 18 -8 27 -14 20 -15 -7 0 -24 -12 -37 -27 -14 -15 -42 -32 -62 -38 -20 -5
-42 -19 -48 -30 -15 -27 -29 -36 -37 -23 -5 7 -12 3 -20 -11 -22 -35 -32 -24
-25 28 4 32 3 52 -4 56 -8 5 -6 13 6 26 13 15 14 22 5 33 -11 13 -58 31 -73
28 -4 -1 -23 -4 -41 -6 -30 -4 -34 -2 -30 15 3 11 23 38 45 61 29 30 44 39 60
35 12 -4 28 -1 35 5 10 8 13 5 13 -13 0 -13 -9 -30 -20 -37 -23 -14 -26 -35
-7 -50 17 -14 57 11 57 35 0 26 15 4 17 -25 4 -53 10 -77 19 -76 44 5 74 39
74 84 0 28 -38 26 -51 -2 -9 -23 -9 -23 -5 1 3 14 1 30 -4 35 -10 13 -1 66 12
66 5 0 18 -5 28 -10z m-4025 -20 c10 -11 24 -20 32 -20 12 0 12 -3 -1 -16 -9
-8 -16 -18 -16 -22 0 -10 43 -52 54 -52 6 0 22 -9 35 -19 l24 -18 -29 -16
c-16 -9 -44 -23 -62 -32 -18 -9 -32 -21 -29 -28 5 -17 47 -10 79 14 l27 19
-20 -47 c-39 -91 -47 -121 -34 -127 21 -8 33 8 63 87 38 97 84 163 101 144 6
-8 8 -17 4 -20 -3 -4 2 -16 12 -27 18 -20 18 -21 -4 -37 -19 -12 -22 -23 -19
-54 3 -37 2 -39 -31 -45 -36 -7 -111 -75 -111 -101 0 -8 -4 -12 -9 -9 -5 4 -7
-2 -4 -12 2 -10 -3 -24 -11 -31 -13 -11 -21 -9 -50 15 -58 49 -53 97 12 124
14 6 22 17 20 27 -3 15 -14 20 -88 37 -20 4 -25 12 -26 35 -1 17 1 30 5 29 20
-2 58 3 69 10 21 14 3 92 -27 119 -31 30 -37 64 -14 80 22 17 27 16 48 -7z
m355 6 c0 -8 -4 -17 -8 -20 -13 -8 -35 11 -28 23 10 16 36 14 36 -3z m146 -51
c-7 -19 -36 -19 -36 0 0 17 33 38 38 24 2 -5 1 -16 -2 -24z m3464 19 c0 -2 -7
-4 -15 -4 -8 0 -15 4 -15 10 0 5 7 7 15 4 8 -4 15 -8 15 -10z m-3886 -11 c-5
-14 -4 -15 4 -4 5 8 30 16 53 18 26 2 39 0 32 -5 -10 -6 -9 -16 5 -44 18 -34
18 -36 1 -47 -15 -9 -20 -7 -29 9 -6 11 -17 20 -24 20 -20 0 -66 39 -66 56 0
8 7 14 15 14 9 0 12 -6 9 -17z m3266 -24 c0 -4 -9 -9 -20 -12 -21 -5 -25 7
-13 39 6 16 7 16 20 -2 7 -10 13 -21 13 -25z m-2464 -50 c11 -37 20 -238 10
-228 -3 3 -8 34 -11 69 -9 110 -17 163 -31 205 -13 39 -13 39 4 16 9 -14 22
-41 28 -62z m-606 56 c0 -8 -6 -15 -14 -15 -17 0 -28 14 -19 24 12 12 33 6 33
-9z m2467 -62 c-3 -10 -5 -2 -5 17 0 19 2 27 5 18 2 -10 2 -26 0 -35z m-2351
17 c0 -11 -3 -20 -7 -20 -11 0 -29 27 -22 33 13 14 29 6 29 -13z m-71 -50 c3
-5 2 -10 -4 -10 -5 0 -13 5 -16 10 -3 6 -2 10 4 10 5 0 13 -4 16 -10z m2434
-42 c-2 -7 1 -33 6 -58 4 -25 10 -58 12 -75 1 -16 6 -45 9 -63 5 -27 4 -31
-10 -26 -9 3 -16 18 -17 33 0 14 -3 35 -5 46 -9 38 -20 146 -15 150 9 10 22 5
20 -7z m1091 -30 c0 -6 -6 -5 -15 2 -8 7 -15 14 -15 16 0 2 7 1 15 -2 8 -4 15
-11 15 -16z m-505 -8 c3 -5 -1 -10 -9 -10 -9 0 -16 5 -16 10 0 6 4 10 9 10 6
0 13 -4 16 -10z m-2692 -28 c33 -31 33 -80 1 -115 -14 -15 -28 -27 -32 -28 -4
0 -43 -2 -87 -3 -61 -3 -94 -10 -138 -30 -57 -26 -107 -34 -107 -18 0 9 44 32
60 32 5 0 32 17 59 38 54 39 69 70 29 57 -58 -18 -66 -17 -65 1 2 18 37 44 61
44 6 0 25 11 41 25 26 22 38 25 92 22 48 -2 68 -8 86 -25z m3482 8 c16 -51
-25 -79 -59 -41 -20 22 -14 38 18 51 31 13 34 12 41 -10z m-743 -38 c-23 -7
-40 -18 -36 -23 3 -5 -10 -9 -28 -9 -19 0 -39 -5 -45 -11 -7 -7 -10 -4 -10 13
0 21 4 23 34 22 19 0 44 7 55 16 13 10 31 15 47 12 24 -5 23 -6 -17 -20z m406
9 c-7 -9 -13 -18 -15 -20 -1 -2 -1 5 0 16 0 11 7 20 14 20 10 0 10 -4 1 -16z
m753 -5 c2 -14 -2 -40 -6 -44 -11 -11 -44 22 -43 42 2 18 7 22 25 18 13 -2 24
-9 24 -16z m-3716 -73 c-7 -84 -13 -136 -20 -171 -2 -12 1 -45 6 -74 6 -29 14
-87 19 -128 9 -71 14 -105 25 -175 3 -16 13 -41 24 -56 11 -14 22 -41 26 -60
8 -42 14 -159 8 -141 -3 6 -8 10 -13 7 -4 -3 -20 9 -34 25 -25 31 -40 69 -56
145 -5 22 -13 60 -19 85 -6 25 -11 150 -11 279 0 184 3 238 13 255 8 12 18 36
21 54 13 56 18 35 11 -45z m3124 63 c9 -10 8 -15 -2 -19 -8 -3 -13 3 -13 14 0
23 0 23 15 5z m38 -33 c-3 -10 -5 -2 -5 17 0 19 2 27 5 18 2 -10 2 -26 0 -35z
m223 12 c0 -25 -27 -17 -32 10 -4 21 -3 23 13 14 11 -5 19 -16 19 -24z m-731
-36 c-11 -7 -12 -12 -1 -26 30 -43 60 -133 44 -133 -5 0 -12 18 -15 40 -6 46
-49 103 -89 119 -39 14 -35 25 8 18 26 -4 37 -2 41 10 5 13 7 13 16 -2 7 -12
5 -20 -4 -26z m981 -10 c0 -26 -18 -59 -31 -59 -13 0 -48 41 -49 57 0 6 10 19
22 27 26 19 58 5 58 -25z m-4186 9 c17 -24 4 -42 -24 -33 -25 8 -96 -47 -136
-105 -39 -58 -84 -115 -84 -107 0 9 26 63 49 100 13 21 33 57 45 80 13 26 35
49 61 63 52 28 70 29 89 2z m3377 0 c10 -13 18 -34 18 -48 l0 -25 -10 25 c-6
14 -20 35 -31 47 -13 14 -17 23 -9 23 7 0 21 -10 32 -22z m-2719 -40 c4 -105
7 -140 17 -253 21 -213 27 -315 20 -327 -4 -6 -19 11 -34 43 -17 32 -22 49
-12 41 27 -23 27 3 1 104 -29 114 -38 252 -21 362 12 80 26 95 29 30z m3027
-33 c1 -30 -2 -55 -7 -55 -14 0 -20 58 -8 70 7 7 7 10 -1 10 -6 0 -8 11 -5 26
7 39 18 11 21 -51z m22 44 c-9 -22 -10 -22 -10 -3 -1 11 2 24 6 27 12 12 14 0
4 -24z m259 1 c0 -13 -11 -13 -30 0 -12 8 -11 10 8 10 12 0 22 -4 22 -10z
m300 -14 c0 -27 -16 -44 -23 -24 -5 18 3 48 14 48 5 0 9 -11 9 -24z m-725 3
c11 -16 1 -19 -13 -3 -7 8 -8 14 -3 14 5 0 13 -5 16 -11z m331 -7 c23 -15 22
-37 -1 -38 -17 -1 -24 5 -28 22 -4 24 8 31 29 16z m-826 -24 c0 -16 -3 -19
-11 -11 -6 6 -8 16 -5 22 11 17 16 13 16 -11z m-2622 -27 c1 -34 -27 -64 -47
-52 -11 7 -11 15 0 45 16 45 46 49 47 7z m2704 7 c-7 -7 -12 -8 -12 -2 0 6 3
14 7 17 3 4 9 5 12 2 2 -3 -1 -11 -7 -17z m-3189 -13 c-18 -25 -33 -32 -33
-16 0 7 37 39 48 40 2 1 -5 -10 -15 -24z m3887 -30 c7 -8 19 -15 27 -15 11 0
13 -3 5 -12 -6 -7 -12 -29 -14 -48 -3 -31 0 -35 20 -34 27 1 29 -12 2 -21 -11
-3 -20 -15 -20 -26 0 -10 -4 -19 -10 -19 -5 0 -10 9 -10 20 0 13 -12 26 -34
37 -35 16 -47 43 -41 93 2 14 4 38 4 53 l1 28 28 -20 c16 -11 35 -27 42 -36z
m366 1 c7 -39 0 -56 -22 -56 -8 0 -14 10 -14 24 0 14 -5 28 -10 31 -8 5 -7 11
1 21 20 24 38 16 45 -20z m-1006 -32 c0 -25 -4 -43 -9 -40 -5 3 -7 23 -6 43 4
44 3 43 10 43 3 0 5 -21 5 -46z m1073 33 c3 -8 1 -20 -4 -28 -6 -10 -9 -7 -9
14 0 29 5 35 13 14z m-1244 -6 c12 -8 13 -12 1 -26 -12 -14 -15 -14 -28 -1 -8
8 -11 19 -8 25 9 13 16 14 35 2z m506 -1 c3 -5 -1 -10 -9 -10 -9 0 -16 5 -16
10 0 6 4 10 9 10 6 0 13 -4 16 -10z m-3409 -10 c16 -5 54 -12 84 -14 89 -7
113 -17 158 -63 23 -25 48 -43 55 -40 29 9 38 -24 47 -175 6 -84 14 -170 19
-190 10 -44 -4 -72 -70 -134 -56 -52 -108 -81 -178 -99 -69 -19 -112 -19 -148
-1 -15 8 -46 20 -68 26 -201 62 -307 274 -232 461 15 36 27 71 27 77 0 37 127
123 214 147 64 17 58 17 92 5z m3569 0 c3 -5 1 -10 -4 -10 -6 0 -11 5 -11 10
0 6 2 10 4 10 3 0 8 -4 11 -10z m360 -10 c3 -5 1 -10 -4 -10 -6 0 -11 5 -11
10 0 6 2 10 4 10 3 0 8 -4 11 -10z m-931 -29 c3 -4 0 -16 -7 -25 -12 -16 -14
-16 -26 -2 -7 8 -10 20 -6 26 8 12 32 13 39 1z m344 -17 c22 -21 33 -24 65
-19 37 5 53 -10 22 -21 -8 -4 -15 -11 -15 -18 0 -6 -23 -21 -50 -33 l-49 -21
3 -83 c3 -73 6 -84 27 -100 13 -10 29 -19 36 -19 6 0 14 -4 17 -9 4 -5 -3 -7
-13 -4 -18 5 -90 -39 -99 -59 -7 -16 -21 -7 -15 8 4 10 0 20 -10 26 -16 8 -16
11 0 34 14 22 14 27 2 35 -8 5 -20 9 -26 9 -16 0 -17 12 -2 27 16 16 4 43 -20
43 -23 0 -34 -35 -15 -51 11 -9 8 -15 -15 -34 -15 -13 -40 -27 -56 -31 -30 -8
-30 -6 7 49 16 22 17 28 5 32 -7 3 -25 1 -40 -4 -17 -7 -27 -7 -29 0 -2 6 -34
13 -71 16 -37 3 -70 9 -73 14 -2 5 -16 4 -30 -1 -34 -13 -44 -13 -44 3 1 39
87 85 120 64 15 -9 23 -8 37 6 12 10 27 14 41 10 12 -3 30 -2 39 2 10 5 23 9
28 9 29 4 55 19 55 33 0 13 4 13 28 -2 15 -10 22 -12 15 -5 -9 10 -8 16 3 28
8 8 13 21 10 28 -6 15 48 64 70 64 8 0 27 -12 42 -26z m457 16 c3 -5 1 -10 -4
-10 -6 0 -11 5 -11 10 0 6 2 10 4 10 3 0 8 -4 11 -10z m90 -21 c9 -17 14 -37
11 -45 -7 -18 -37 -18 -60 -1 -17 12 -17 14 1 45 10 17 21 32 25 32 4 0 15
-14 23 -31z m-322 -2 c3 -8 1 -20 -4 -28 -6 -10 -9 -7 -9 14 0 29 5 35 13 14z
m37 -8 c0 -6 -4 -7 -10 -4 -5 3 -10 11 -10 16 0 6 5 7 10 4 6 -3 10 -11 10
-16z m388 -11 c-4 -39 -25 -48 -34 -14 -7 29 1 46 22 46 11 0 14 -9 12 -32z
m132 12 c0 -5 -5 -10 -11 -10 -5 0 -7 5 -4 10 3 6 8 10 11 10 2 0 4 -4 4 -10z
m-4533 -27 c-3 -3 -11 -2 -17 2 -9 6 -9 10 1 16 14 8 27 -7 16 -18z m3483 0
c-1 -27 -54 -53 -108 -53 -31 0 -24 22 8 27 14 2 32 10 40 18 15 15 60 21 60
8z m-3569 -13 c10 0 19 -6 19 -12 0 -7 -11 -13 -25 -13 -14 0 -25 5 -25 12 0
6 -3 13 -7 16 -5 2 -2 2 5 0 8 -1 22 -3 33 -3z m3409 -20 c0 -5 -4 -10 -9 -10
-6 0 -13 5 -16 10 -3 6 1 10 9 10 9 0 16 -4 16 -10z m-3310 -29 c0 -14 -6 -17
-24 -14 -22 5 -23 6 -8 23 18 22 32 17 32 -9z m3236 -48 c-10 -10 -19 5 -10
18 6 11 8 11 12 0 2 -7 1 -15 -2 -18z m1210 -31 c-12 -12 -18 8 -10 35 l8 28
4 -28 c2 -16 1 -31 -2 -35z m-4644 -14 c-1 -36 -12 -50 -30 -39 -8 5 -10 21
-6 54 6 41 8 44 22 31 8 -9 15 -29 14 -46z m141 38 c4 -10 1 -13 -8 -9 -8 3
-12 9 -9 14 7 12 11 11 17 -5z m-50 -72 c10 -10 -12 -44 -28 -44 -9 0 -15 10
-15 25 0 18 5 25 18 25 10 0 22 -3 25 -6z m4507 -15 c0 -18 -2 -19 -15 -9 -15
12 -12 30 6 30 5 0 9 -10 9 -21z m-930 -35 c0 -2 -7 -4 -15 -4 -8 0 -15 4 -15
10 0 5 7 7 15 4 8 -4 15 -8 15 -10z m867 -24 c31 -24 60 -26 85 -3 10 9 18 11
18 5 0 -6 32 -21 70 -33 64 -19 92 -39 56 -39 -20 0 -30 -18 -18 -33 14 -16
-32 -62 -53 -53 -21 7 -19 29 4 50 22 20 17 53 -7 51 -56 -6 -102 -20 -135
-41 -44 -29 -61 -24 -45 12 10 20 8 31 -6 55 -15 26 -15 49 1 49 2 0 16 -9 30
-20z m-1002 -10 c-3 -5 -11 -10 -16 -10 -6 0 -7 5 -4 10 3 6 11 10 16 10 6 0
7 -4 4 -10z m245 -24 c0 -3 -4 -8 -10 -11 -5 -3 -10 -1 -10 4 0 6 5 11 10 11
6 0 10 -2 10 -4z m-408 -38 c-21 -21 -15 -75 10 -92 23 -17 21 -18 -24 -20
-23 -1 -28 3 -28 21 0 12 4 32 9 45 5 13 12 31 15 41 3 9 11 17 18 17 9 0 9
-3 0 -12z m78 -6 c0 -5 -9 -17 -20 -27 -20 -18 -25 -11 -14 19 6 17 34 23 34
8z m90 -16 c0 -8 -7 -16 -15 -20 -15 -5 -21 14 -8 27 11 12 23 8 23 -7z m344
-49 c4 -19 3 -26 -4 -22 -5 3 -10 18 -10 32 0 32 5 28 14 -10z m-1174 3 c0 -5
-5 -10 -11 -10 -5 0 -7 5 -4 10 3 6 8 10 11 10 2 0 4 -4 4 -10z m838 -71 c-32
-21 -38 2 -10 41 l17 25 3 -29 c2 -16 -2 -32 -10 -37z m-2354 35 c3 -8 9 -69
12 -135 5 -87 4 -119 -5 -119 -18 0 -24 26 -11 50 7 14 8 26 2 33 -11 14 -22
187 -11 187 4 0 10 -7 13 -16z m148 -31 c-3 -16 -7 -22 -10 -15 -4 13 4 42 11
42 2 0 2 -12 -1 -27z m3423 8 c3 -11 3 -31 -1 -46 -5 -19 -12 -25 -28 -23 -17
2 -20 9 -18 33 6 50 35 73 47 36z m-2055 -196 c-7 -14 -18 177 -11 195 3 8 8
-30 11 -85 3 -55 3 -104 0 -110z m1150 176 c0 -21 -29 -63 -30 -42 0 11 -3 11
-15 1 -13 -11 -14 -10 -9 4 4 10 13 15 21 11 11 -4 13 -1 9 10 -4 10 -2 14 5
9 8 -4 9 1 4 16 -5 15 -4 20 4 16 6 -4 11 -15 11 -25z m-390 4 c0 -14 -29 -35
-49 -35 -20 0 -11 25 12 36 31 16 37 16 37 -1z m705 -5 c3 -5 1 -10 -4 -10 -6
0 -11 5 -11 10 0 6 2 10 4 10 3 0 8 -4 11 -10z m-828 -55 c-7 -5 -20 -18 -30
-29 -17 -18 -18 -18 -12 10 16 69 15 68 35 47 13 -13 15 -21 7 -28z m751 17
c6 -19 -13 -14 -33 8 -18 20 -18 21 5 12 13 -5 26 -14 28 -20z m-539 -42 c-16
-33 -33 -60 -39 -60 -27 0 5 78 42 104 12 9 23 16 24 16 1 0 -11 -27 -27 -60z
m428 30 c14 -11 23 -20 19 -20 -10 0 -66 30 -66 35 0 11 24 4 47 -15z m-333
-54 c-15 -40 -41 -3 -29 42 l7 27 14 -27 c8 -15 11 -34 8 -42z m-3354 11 c23
-21 39 -41 36 -44 -4 -4 -103 30 -124 43 -6 4 32 44 39 42 4 -2 26 -20 49 -41z
m3165 0 c-21 -51 -19 -74 9 -92 20 -14 29 -14 48 -4 13 7 28 19 35 28 7 9 13
11 13 5 0 -6 -9 -19 -20 -29 -11 -10 -20 -26 -20 -37 0 -10 -5 -18 -11 -18 -6
0 -8 -9 -4 -20 4 -14 2 -20 -8 -20 -10 0 -13 8 -9 25 5 29 -17 59 -61 81 -25
13 -32 13 -71 -5 -25 -10 -49 -28 -55 -39 -13 -25 -14 -64 -2 -77 5 -6 4 -21
-3 -36 -9 -22 -15 -25 -34 -18 -16 6 -22 15 -19 26 3 10 11 50 17 88 15 87 19
99 27 91 3 -3 23 11 43 32 30 31 42 37 72 34 22 -2 39 3 48 13 20 24 22 12 5
-28z m575 19 c0 -3 -4 -8 -10 -11 -5 -3 -10 -1 -10 4 0 6 5 11 10 11 6 0 10
-2 10 -4z m-227 -69 c-6 -38 -36 -67 -48 -47 -10 15 17 79 34 83 22 5 21 6 14
-36z m-2773 10 c10 -4 8 -6 -6 -6 -12 -1 -25 6 -28 15 -5 13 -3 14 6 7 7 -6
20 -13 28 -16z m2843 -9 c-9 -15 -23 -8 -23 12 0 17 2 19 14 8 8 -7 12 -16 9
-20z m-3420 -44 c21 -8 46 -16 56 -17 10 -2 26 -11 35 -20 10 -9 24 -17 31
-17 8 0 19 -9 25 -20 8 -16 6 -26 -12 -50 -27 -37 -29 -37 -22 -2 8 41 -15 56
-76 50 -41 -4 -51 -2 -55 13 -3 10 -21 31 -40 48 -33 28 -30 47 5 34 8 -3 32
-12 53 -19z m3417 16 c0 -6 11 -16 25 -22 14 -6 25 -20 25 -30 0 -10 15 -27
33 -38 l32 -20 -45 0 c-28 0 -56 -8 -74 -19 -17 -11 -33 -18 -38 -15 -4 3 -5
-2 -2 -10 4 -10 -2 -17 -20 -22 -16 -4 -26 -13 -26 -24 0 -25 -18 -35 -22 -13
-2 10 6 31 19 46 16 19 23 42 23 69 0 29 8 49 28 73 28 35 42 43 42 25z m147
-2 c8 -7 35 -8 71 -4 62 7 79 1 61 -21 -7 -7 -12 -33 -13 -58 -1 -41 -4 -46
-47 -74 -26 -16 -49 -35 -52 -43 -4 -10 -7 -11 -18 0 -7 6 -22 12 -33 12 -18
0 -17 3 8 28 38 40 39 82 4 100 -16 7 -28 18 -28 24 0 6 -7 19 -15 28 -14 16
-13 17 17 18 18 0 38 -4 45 -10z m-2945 -39 c40 -13 68 -43 68 -73 0 -12 9
-46 20 -75 11 -30 18 -57 15 -60 -2 -4 -30 -7 -62 -6 l-58 0 -25 72 c-14 40
-30 77 -36 84 -21 20 -53 -13 -91 -93 l-37 -77 -83 -6 c-60 -5 -83 -11 -83
-21 0 -11 79 -65 115 -77 6 -2 -2 -37 -18 -83 -15 -43 -27 -89 -27 -101 0 -33
41 -30 82 5 18 16 50 41 70 56 43 32 46 31 148 -51 100 -82 110 -70 56 72 -14
38 -26 77 -26 85 0 19 97 92 105 79 9 -14 3 -301 -6 -320 -25 -49 -190 -104
-281 -94 -99 11 -132 24 -211 84 -96 72 -150 200 -133 316 16 102 100 216 194
261 86 42 216 51 304 23z m2358 -8 c11 -21 4 -51 -12 -51 -6 0 -8 6 -5 14 3 8
-1 20 -8 26 -11 9 -20 6 -40 -16 -23 -25 -25 -26 -25 -6 0 23 35 52 62 52 9 0
22 -9 28 -19z m-2740 5 c0 -2 -7 -6 -15 -10 -8 -3 -15 -1 -15 4 0 6 7 10 15
10 8 0 15 -2 15 -4z m2990 -20 c0 -8 -4 -18 -10 -21 -5 -3 -10 3 -10 14 0 12
5 21 10 21 6 0 10 -6 10 -14z m-2471 -53 l0 -58 -15 45 c-14 46 -12 70 6 70 6
0 10 -24 9 -57z m2551 15 c0 -28 -16 -55 -26 -45 -4 4 -2 13 4 19 7 7 12 20
12 30 0 10 2 18 5 18 3 0 5 -10 5 -22z m-2475 -108 c3 -58 13 -156 21 -218 8
-62 12 -117 9 -122 -3 -5 2 -13 11 -18 14 -8 14 -17 5 -73 -6 -35 -16 -93 -22
-129 -5 -36 -13 -76 -16 -90 l-6 -25 -8 28 c-15 54 -21 182 -11 220 6 21 6 35
1 32 -11 -7 -13 131 -4 305 0 19 2 73 3 119 1 46 4 82 7 80 2 -3 7 -52 10
-109z m1679 69 c35 -27 35 -72 1 -95 -31 -20 -75 -12 -75 15 0 10 -10 25 -22
33 -26 17 -19 44 14 58 36 14 53 12 82 -11z m469 -5 c-26 -19 -35 -17 -21 5 6
10 18 17 25 14 11 -4 10 -8 -4 -19z m487 -8 c0 -11 -33 -36 -47 -36 -14 0 -14
3 2 20 16 18 45 28 45 16z m-2927 -61 l16 -45 -40 0 c-21 0 -39 3 -39 7 0 19
34 92 40 88 5 -3 15 -25 23 -50z m3312 40 c17 -1 40 2 53 6 16 6 21 6 17 -2
-4 -5 1 -19 11 -30 22 -25 14 -32 -21 -19 -44 17 -175 23 -225 12 -24 -6 -46
-9 -48 -7 -3 2 18 15 44 29 39 20 58 23 94 19 25 -4 59 -7 75 -8z m-635 -15
c0 -11 -7 -20 -15 -20 -17 0 -18 2 -9 24 9 23 24 20 24 -4z m-2310 -51 c0 -22
4 -48 10 -58 8 -16 3 -127 -6 -118 -2 2 -6 28 -9 58 -3 30 -7 80 -11 112 -3
40 -2 57 5 52 6 -3 11 -24 11 -46z m-824 -1 c-11 -29 -27 -24 -32 9 -2 13 4
18 20 18 20 0 21 -3 12 -27z m2898 -3 c19 -28 57 -33 76 -10 20 24 40 18 40
-11 0 -37 16 -61 47 -69 25 -6 26 -8 10 -17 -13 -7 -22 -6 -32 2 -38 32 -155
-59 -155 -120 0 -38 -25 -41 -34 -4 -7 25 -9 26 -54 20 -36 -5 -43 -4 -29 4
20 13 23 50 5 69 -11 11 -9 13 11 8 67 -16 117 62 86 136 -11 26 10 21 29 -8z
m1051 -11 c16 -24 17 -25 42 -9 13 9 27 14 30 12 6 -7 -15 -47 -25 -47 -16 1
-102 57 -95 63 13 14 31 7 48 -19z m-1207 8 c9 -6 5 -12 -14 -21 -22 -10 -25
-16 -19 -39 6 -27 6 -27 -10 -5 -30 42 2 91 43 65z m732 -1 c0 -5 -13 -14 -29
-20 -24 -11 -33 -9 -62 8 l-34 21 63 0 c34 0 62 -4 62 -9z m-198 -13 c-11 -14
-27 -112 -23 -140 5 -35 -18 -17 -29 22 -6 23 -21 47 -35 56 -14 9 -22 21 -18
30 4 11 9 12 16 5 17 -17 35 -13 59 14 22 25 50 37 30 13z m493 1 c76 -14 138
-46 202 -103 85 -77 123 -165 123 -287 0 -61 0 -61 -27 -56 l-27 5 23 -17 23
-18 -28 -59 c-62 -128 -184 -211 -326 -222 -68 -5 -194 13 -204 29 -13 21 -34
8 -34 -21 0 -29 -13 -40 -25 -20 -3 6 -1 10 4 10 6 0 11 7 11 15 0 8 -4 15
-10 15 -5 0 -10 8 -10 18 0 9 -19 32 -42 51 -72 58 -121 149 -131 243 -16 155
80 325 218 384 98 43 164 51 260 33z m-935 -28 c0 -16 -7 -34 -15 -41 -17 -14
-42 -3 -27 12 7 7 7 19 2 34 -8 21 -7 24 15 24 21 0 25 -5 25 -29z m514 -11
c14 -5 26 -14 26 -20 0 -17 -26 -11 -45 10 -20 23 -17 24 19 10z m-2850 -32
c11 -31 -8 -59 -54 -83 -22 -11 -28 -11 -48 5 -13 11 -29 17 -36 14 -18 -7
-27 31 -16 61 9 24 32 30 110 30 29 0 36 -5 44 -27z m81 17 c-21 -17 -37 -15
-43 3 -2 8 8 12 30 12 31 -1 32 -1 13 -15z m-275 -4 c0 -15 -16 -22 -35 -15
-13 5 -14 8 -3 15 18 12 38 11 38 0z m2445 -51 c-3 -5 -10 -10 -16 -10 -5 0
-9 5 -9 10 0 6 7 10 16 10 8 0 12 -4 9 -10z m364 -24 c7 -8 21 -12 31 -9 24 6
25 -5 5 -34 -9 -13 -31 -24 -57 -28 -76 -13 -90 -55 -32 -92 20 -13 44 -23 54
-23 30 0 32 -17 6 -44 -23 -22 -29 -23 -60 -14 -28 9 -33 14 -25 25 9 10 4 20
-20 42 l-31 29 22 41 c12 22 30 43 40 47 23 7 24 34 1 34 -13 0 -9 6 12 19 37
24 40 24 54 7z m-112 -44 c-14 -9 -33 -35 -42 -59 -16 -41 -42 -62 -31 -25 2
9 7 31 11 48 3 17 15 41 26 53 17 18 24 19 41 10 21 -11 21 -11 -5 -27z
m-2638 7 c13 -11 22 -21 20 -22 -2 -1 -24 -18 -48 -36 l-44 -34 7 29 c10 41
27 84 35 84 3 -1 17 -10 30 -21z m182 -34 c10 -27 17 -51 14 -53 -3 -4 -22 9
-95 66 -7 5 43 42 54 39 4 -2 17 -25 27 -52z m2670 -12 c-12 -20 -14 -14 -5
12 4 9 9 14 11 11 3 -2 0 -13 -6 -23z m999 -37 c-13 -13 -35 7 -25 24 5 8 11
8 21 -1 10 -8 12 -15 4 -23z m-1390 -21 c16 -8 39 -15 51 -15 22 0 22 0 3 -14
-17 -13 -17 -15 -2 -21 9 -4 18 -15 21 -25 4 -14 -2 -19 -24 -22 -18 -3 -29 0
-29 7 0 6 -11 22 -25 35 -24 22 -25 22 -74 6 -60 -19 -78 -20 -110 -2 -24 13
-24 14 -3 25 26 14 59 14 67 1 7 -12 55 -14 56 -2 4 41 29 76 37 51 2 -5 17
-16 32 -24z m-2872 -35 c26 0 37 -16 16 -24 -10 -4 -14 -14 -11 -26 3 -13 0
-20 -8 -20 -8 0 -15 10 -17 22 -2 12 -13 27 -25 33 -17 9 -19 14 -11 30 10 17
12 17 23 2 7 -10 22 -17 33 -17z m2622 26 c0 -2 -7 -9 -15 -16 -13 -11 -14
-10 -9 4 5 14 24 23 24 12z m652 -48 c-8 -8 -9 -4 -5 13 4 13 8 18 11 10 2 -7
-1 -18 -6 -23z m1006 10 c-2 -13 -10 -23 -18 -23 -8 0 -16 10 -18 23 -3 17 2
22 18 22 16 0 21 -5 18 -22z m-1257 -6 c28 -33 27 -37 -10 -37 -31 0 -37 4
-37 20 1 18 13 34 26 35 3 0 12 -8 21 -18z m-2927 -7 c3 -10 -1 -15 -14 -15
-20 0 -33 13 -23 24 11 11 31 6 37 -9z m3023 -99 c184 -65 276 -281 193 -452
-36 -73 -91 -126 -169 -162 -47 -22 -71 -26 -146 -27 -81 0 -97 3 -155 31 -80
38 -134 91 -169 164 -22 46 -26 69 -26 140 0 72 4 93 27 136 15 28 51 73 81
100 51 47 88 64 192 88 33 8 127 -2 172 -18z m-447 4 c0 -5 11 -12 25 -16 l25
-6 -45 -51 c-43 -49 -86 -141 -89 -191 0 -15 -4 -26 -8 -26 -13 0 -28 38 -28
68 0 16 -7 46 -16 67 -15 36 -15 37 15 65 16 16 32 37 35 47 4 10 21 26 39 35
38 20 47 21 47 8z m-2555 -25 c81 -35 162 -96 198 -151 45 -68 61 -136 55
-232 -8 -135 -81 -238 -215 -304 -57 -28 -81 -34 -151 -37 -93 -4 -151 8 -230
47 -71 35 -154 125 -181 197 -25 65 -28 169 -7 237 33 110 127 204 245 246 56
19 80 22 156 18 54 -2 106 -11 130 -21z m-543 -16 c40 -2 84 1 98 6 25 7 25 7
7 -13 -25 -27 -97 -37 -135 -18 -26 13 -29 13 -40 -5 -17 -27 -41 -24 -52 7
-13 34 -5 45 25 34 13 -5 57 -10 97 -11z m4718 -4 c0 -8 -4 -15 -9 -15 -13 0
-22 16 -14 24 11 11 23 6 23 -9z m-3550 -164 c5 -11 17 -26 25 -35 17 -16 27
-84 15 -101 -4 -5 -12 -36 -19 -68 l-13 -58 -36 7 c-73 12 -72 11 -55 44 16
32 10 70 -11 70 -7 0 -27 -5 -45 -11 -26 -9 -35 -8 -50 5 -10 9 -25 16 -34 16
-19 0 -20 4 -11 37 4 13 10 20 15 17 5 -2 23 3 41 12 20 10 28 11 21 3 -9 -9
-10 -16 -2 -25 9 -11 18 -10 47 5 32 16 39 17 50 4 22 -22 42 2 42 51 0 53
-11 70 -39 61 -12 -4 -21 -2 -21 4 0 6 -7 11 -15 11 -19 0 -18 6 3 50 9 19 28
40 42 47 l25 12 7 -69 c4 -39 12 -79 18 -89z m3469 122 c-15 -18 -34 -1 -25
22 5 14 9 15 21 5 12 -10 13 -16 4 -27z m-3731 -66 c6 -5 12 -15 12 -22 0 -17
33 -25 108 -25 48 0 62 -3 62 -15 0 -8 -9 -19 -20 -25 -16 -8 -20 -8 -20 3 0
17 -30 27 -85 27 -66 0 -115 18 -125 46 -6 14 -10 27 -10 29 0 8 64 -7 78 -18z
m3710 -79 c-2 -13 -11 -24 -20 -26 -21 -4 -24 18 -6 36 19 19 30 14 26 -10z
m-774 -40 c-3 -4 2 -5 10 -2 18 7 22 -11 6 -21 -17 -10 -40 15 -40 43 0 25 1
25 14 7 8 -11 12 -23 10 -27z m46 -28 c0 -5 -4 -10 -10 -10 -5 0 -10 5 -10 10
0 6 5 10 10 10 6 0 10 -4 10 -10z m797 -6 c7 -18 -17 -38 -31 -24 -11 11 -1
40 14 40 6 0 13 -7 17 -16z m-307 -53 c0 -13 -7 -18 -25 -18 -14 0 -33 -8 -43
-16 -12 -11 -29 -14 -58 -10 -82 11 -269 -28 -282 -60 -2 -4 -8 -5 -13 -1 -12
7 -11 -2 4 -29 6 -12 13 -24 14 -26 1 -1 28 10 60 25 53 27 67 29 173 29 114
0 116 0 186 -38 39 -21 85 -52 103 -69 46 -45 94 -105 97 -120 1 -7 8 -35 16
-63 21 -72 14 -181 -17 -250 -31 -71 -120 -164 -187 -197 -64 -31 -165 -53
-213 -45 -26 4 -51 23 -101 74 -60 62 -67 66 -75 48 -9 -18 -9 -18 -5 3 5 26
-30 47 -127 78 -77 24 -90 51 -91 189 -1 93 1 104 31 166 20 40 52 84 83 113
27 26 50 54 49 64 0 14 -2 14 -9 -3 -8 -18 -9 -17 -9 7 l-1 27 -30 -17 c-16
-9 -30 -21 -30 -27 -1 -14 -39 67 -40 83 0 6 7 12 15 12 8 0 15 7 15 15 0 10
10 15 31 15 22 0 32 5 36 20 4 15 11 18 28 14 13 -3 26 -1 29 4 4 6 23 5 53
-5 69 -22 185 -19 258 5 76 25 75 25 75 3z m220 -37 c0 -7 -4 -15 -9 -18 -5
-3 -7 -15 -4 -26 7 -25 -41 -47 -64 -29 -18 16 3 31 32 23 16 -5 17 -4 8 6 -9
10 -7 17 8 33 10 11 16 23 13 26 -4 3 -9 0 -11 -7 -4 -10 -8 -10 -19 -1 -12
10 -12 14 3 25 15 11 20 11 31 -3 6 -9 12 -22 12 -29z m79 4 c0 -7 -4 -22 -8
-32 -10 -26 -25 -3 -16 24 7 22 25 28 24 8z m-3765 -55 c-61 -36 -69 -33 -58
24 l6 30 45 -15 45 -15 -38 -24z m-1014 -6 c0 -7 -6 -21 -13 -32 -17 -22 -32
-5 -22 25 7 22 35 28 35 7z m4535 3 c3 -6 -1 -7 -9 -4 -18 7 -21 14 -7 14 6 0
13 -4 16 -10z m-3378 -51 c15 -6 44 -12 63 -14 19 -2 38 -3 41 -4 15 -2 17
-32 3 -46 -20 -20 -68 -21 -61 -1 9 24 -17 38 -47 26 -36 -13 -35 -14 -34 20
1 17 2 30 4 30 1 0 15 -5 31 -11z m-142 -29 c-24 -25 -27 -34 -19 -48 6 -9 24
-18 40 -18 47 -2 48 -3 30 -23 -11 -12 -15 -27 -12 -38 6 -17 0 -19 -56 -19
-35 0 -82 -4 -106 -9 l-43 -8 7 29 c4 16 16 43 29 59 12 17 25 38 28 49 4 11
13 16 22 12 8 -3 20 3 28 14 7 10 26 20 42 23 17 2 32 5 34 6 3 0 -8 -13 -24
-29z m-935 -13 c0 -16 -47 -40 -61 -32 -16 11 -10 25 11 25 11 0 20 5 20 10 0
6 7 10 15 10 8 0 15 -6 15 -13z m3833 -51 c-3 -6 -11 -18 -18 -26 -24 -31 -62
-133 -64 -177 -1 -6 -14 -20 -31 -30 -35 -20 -38 -41 -10 -75 20 -26 16 -46
-5 -28 -7 6 -27 12 -44 13 -17 1 -31 5 -31 9 0 4 -11 19 -25 34 -13 14 -22 30
-19 35 3 5 1 17 -5 26 -8 14 -23 18 -78 18 -38 1 -79 7 -93 15 -31 17 -12 24
32 13 36 -10 77 1 118 30 66 47 99 64 109 57 18 -11 -17 -78 -43 -82 -11 -2
-22 -10 -24 -19 -4 -22 26 -33 46 -17 8 7 23 12 34 10 16 -3 23 8 19 31 -1 5
8 21 19 37 16 23 18 33 10 47 -14 22 2 73 23 73 8 0 24 9 37 20 17 15 26 17
36 9 8 -6 11 -16 7 -23z m-2729 -60 c-6 -16 -24 -23 -24 -8 0 10 22 33 27 28
2 -2 1 -11 -3 -20z m66 -35 c0 -12 -20 -25 -27 -18 -7 7 6 27 18 27 5 0 9 -4
9 -9z m-79 -85 c99 -48 99 -49 83 -201 -8 -71 -17 -191 -21 -265 -3 -74 -9
-140 -14 -146 -5 -6 -37 -22 -72 -35 -124 -47 -286 -25 -389 54 -50 38 -111
126 -128 181 -16 53 -15 163 2 201 44 102 134 186 243 227 77 28 221 21 296
-16z m-484 -26 c-47 -44 -53 -48 -65 -33 -11 16 -14 16 -41 0 -25 -15 -61 -15
-61 0 0 19 34 33 148 63 19 4 36 11 39 14 4 3 12 6 19 6 7 0 -11 -22 -39 -50z
m3156 -181 c3 -10 4 -19 2 -19 -7 0 -35 32 -35 40 0 17 28 -1 33 -21z m891
-157 c9 -15 -6 -52 -20 -52 -9 0 -14 11 -14 30 0 29 21 42 34 22z m-75 -98
c-14 -18 -49 -18 -49 -1 0 24 21 37 42 26 15 -8 17 -13 7 -25z m106 6 c-4 -6
-1 -17 5 -25 17 -21 5 -51 -15 -35 -7 6 -12 18 -9 26 2 8 6 21 9 29 2 8 7 15
10 15 4 0 3 -5 0 -10z m-4059 -159 c27 -24 60 -47 74 -53 54 -20 80 -33 80
-40 0 -5 -6 -8 -13 -8 -8 0 -27 -11 -43 -25 -34 -29 -43 -30 -70 -10 -10 8
-31 15 -46 15 -18 0 -28 5 -28 15 0 20 -70 20 -135 0 -27 -8 -51 -12 -54 -10
-2 3 1 5 7 5 6 0 21 18 32 39 11 22 33 48 50 58 39 23 40 53 3 53 l-28 0 27
23 c14 12 29 32 33 45 6 22 8 21 34 -20 15 -24 50 -63 77 -87z m3840 102 c-10
-10 -19 5 -10 18 6 11 8 11 12 0 2 -7 1 -15 -2 -18z m114 -53 c-18 -11 -24 -6
-16 16 5 14 9 15 19 5 9 -9 9 -14 -3 -21z m93 -50 c-7 -27 -22 -35 -29 -16 -7
18 13 49 26 41 5 -3 6 -14 3 -25z m37 -100 c0 -5 -7 -10 -15 -10 -8 0 -15 5
-15 10 0 6 7 10 15 10 8 0 15 -4 15 -10z m-3787 -11 l42 -1 -44 -10 c-37 -8
-46 -7 -60 8 -15 16 -15 16 2 10 10 -3 37 -6 60 -7z m-656 -151 c-3 -8 -6 -5
-6 6 -1 11 2 17 5 13 3 -3 4 -12 1 -19z m1148 -6 c-12 -10 -63 -25 -160 -47
-38 -9 -76 -18 -83 -20 -16 -6 -8 10 21 43 19 20 27 22 82 16 35 -4 70 -2 78
3 21 11 74 16 62 5z m3195 -357 c0 -16 -28 -19 -68 -8 -32 8 -9 23 36 23 22 0
32 -5 32 -15z m130 -6 c0 -12 -67 -12 -74 0 -3 4 -3 10 -1 13 8 7 75 -4 75
-13z m-20 -49 c0 -5 -12 -10 -27 -9 -25 0 -26 1 -8 9 27 12 35 12 35 0z M3560
6936 c-17 -22 3 -46 39 -46 35 0 54 14 49 36 -4 25 -69 32 -88 10z M2436 6721
c-3 -5 1 -11 8 -14 8 -3 17 -1 20 6 3 8 9 7 19 -5 8 -10 18 -18 22 -18 5 0 17
-8 27 -17 24 -21 49 -3 28 21 -21 26 -113 46 -124 27z M2440 6657 c0 -9 58
-67 67 -67 10 0 43 32 43 42 0 3 -12 8 -27 11 -16 3 -40 9 -55 13 -16 3 -28 4
-28 1z M2542 6453 c-18 -7 -4 -23 19 -23 12 0 19 5 17 12 -5 14 -18 18 -36 11z
M2453 6403 c-25 -10 -12 -20 42 -33 61 -15 81 -30 41 -30 -16 0 -26 -6 -26
-15 0 -10 10 -15 30 -15 17 0 30 4 30 10 0 5 13 7 28 4 19 -4 32 -1 41 10 11
14 11 16 -3 16 -9 0 -19 7 -22 15 -4 8 -18 15 -34 15 -17 0 -30 7 -34 17 -6
15 -8 15 -16 3 -7 -12 -12 -12 -22 -2 -12 12 -33 14 -55 5z M4317 5765 c3 -8
9 -12 14 -9 12 7 11 11 -5 17 -10 4 -13 1 -9 -8z M4356 5552 l-29 -37 34 32
c18 18 31 35 28 37 -3 3 -18 -12 -33 -32z M4322 5558 c-7 -7 -12 -16 -12 -21
0 -5 7 -1 16 8 9 9 14 18 12 20 -2 3 -10 -1 -16 -7z M4129 5533 c-13 -16 -12
-17 4 -4 9 7 17 15 17 17 0 8 -8 3 -21 -13z M4490 5405 c-11 -14 -10 -19 8
-38 26 -25 46 -13 40 24 -4 29 -30 36 -48 14z M447 4869 c-19 -11 -23 -44 -7
-54 17 -11 50 5 50 24 0 27 -21 42 -43 30z M3447 5436 c-22 -23 -32 -115 -17
-162 7 -22 14 -45 17 -53 2 -11 6 -11 18 -1 19 16 19 43 -1 82 -15 30 -15 31
5 25 11 -3 25 1 32 9 9 11 7 14 -10 14 -28 0 -35 19 -21 55 13 35 -1 53 -23
31z M3483 5163 c-12 -31 74 -82 92 -54 5 9 -62 71 -78 71 -4 0 -10 -7 -14 -17z
M4317 4943 c-9 -15 -20 -87 -20 -126 1 -42 12 -60 29 -49 16 10 23 174 7 179
-6 2 -13 0 -16 -4z M3568 4905 c-3 -4 -2 -22 4 -42 7 -24 5 -80 -7 -186 -9
-84 -20 -202 -25 -263 -5 -61 -13 -129 -19 -150 -5 -21 -13 -55 -16 -74 -18
-105 -74 -271 -102 -302 -15 -17 -15 -18 4 -18 27 0 67 48 71 85 2 16 7 34 11
40 36 46 96 379 105 580 2 61 9 139 15 175 12 77 3 153 -20 158 -8 1 -18 0
-21 -3z M3477 4879 c-9 -6 -15 -14 -12 -19 8 -13 -14 -252 -36 -400 -12 -74
-22 -143 -22 -152 -1 -10 -5 -18 -9 -18 -4 0 -8 -11 -8 -24 0 -38 -47 -168
-94 -258 -32 -64 -49 -86 -74 -97 -45 -20 -41 -41 7 -41 36 0 40 3 70 58 17
31 35 64 40 72 23 42 60 131 74 180 16 57 65 294 66 320 0 28 30 295 37 330 7
42 -10 64 -39 49z M4398 3788 c-8 -21 2 -38 22 -38 19 0 30 17 23 38 -3 6 -13
12 -23 12 -10 0 -20 -6 -22 -12z M722 3690 c-12 -16 -28 -47 -35 -67 l-12 -38
-80 0 c-44 0 -86 -4 -92 -8 -22 -14 -15 -57 10 -66 13 -5 29 -16 36 -25 7 -9
19 -16 25 -16 40 0 32 -49 -24 -163 -18 -36 -18 -37 1 -47 15 -9 35 1 110 50
65 43 99 60 113 56 12 -3 59 -33 105 -66 64 -47 86 -58 97 -49 14 11 13 15
-21 79 -10 19 -24 47 -32 62 -8 15 -15 40 -16 55 -2 25 5 31 63 60 44 22 65
38 65 50 0 16 -12 19 -99 23 l-99 5 -31 65 c-17 36 -38 66 -46 68 -9 1 -26
-11 -38 -28z m54 -75 c19 -46 19 -45 -18 -38 -42 8 -40 5 -27 41 14 41 27 40
45 -3z m-136 -90 c0 -26 -28 -28 -56 -6 l-27 21 42 0 c30 0 41 -4 41 -15z
m186 -15 c20 -37 17 -45 -22 -66 -34 -18 -36 -18 -48 -2 -7 10 -27 21 -45 24
-34 7 -36 11 -22 46 8 21 15 24 66 23 50 0 58 -3 71 -25z m104 23 c0 -13 -40
-34 -50 -28 -20 13 -9 31 20 33 17 1 30 -1 30 -5z m-200 -132 c0 -10 -122 -82
-128 -76 -3 3 6 30 21 60 l26 54 41 -16 c22 -9 40 -19 40 -22z m147 -11 c12
-22 19 -40 17 -40 -3 0 -28 16 -57 36 -29 20 -42 33 -30 29 12 -3 24 -1 28 5
11 17 19 11 42 -30z M3987 3663 c-60 -46 -64 -90 -6 -56 43 24 69 50 69 68 0
23 -23 18 -63 -12z M3818 3603 c-18 -4 -25 -28 -10 -36 19 -12 89 -16 102 -7
13 9 12 13 -9 30 -22 19 -46 23 -83 13z M3589 2763 c-46 -57 -61 -85 -50 -96
14 -14 40 0 55 29 6 10 18 31 28 45 25 39 -4 57 -33 22z M4356 2728 c-7 -13
-17 -43 -20 -67 -4 -24 -16 -66 -28 -92 l-20 -49 -60 0 c-73 0 -77 -23 -5 -28
48 -3 54 -10 37 -42 -6 -12 -17 -16 -30 -13 -24 6 -28 -18 -5 -37 13 -11 13
-16 0 -47 -18 -42 -20 -86 -4 -81 6 2 17 21 24 42 19 55 28 60 66 41 l33 -18
-29 -23 c-15 -12 -46 -31 -67 -41 -30 -14 -38 -24 -38 -45 0 -27 1 -27 86 34
l87 62 76 -40 c42 -21 93 -49 113 -61 44 -27 58 -29 58 -8 0 8 -4 15 -9 15 -6
0 -30 42 -54 93 l-45 92 41 38 c23 22 59 48 79 58 42 22 54 56 16 44 -28 -9
-169 -26 -181 -22 -16 5 -87 180 -82 199 9 26 -21 23 -39 -4z m44 -123 c0 -5
7 -23 15 -39 19 -37 14 -43 -35 -43 -46 0 -48 5 -24 78 15 45 18 48 30 32 7
-10 14 -22 14 -28z m170 -98 c0 -1 -13 -15 -29 -30 l-30 -28 -11 22 c-10 17
-9 23 1 30 12 8 69 13 69 6z m-111 -42 c15 -41 13 -44 -38 -79 l-39 -27 -52
26 c-30 15 -50 31 -47 38 27 64 30 66 87 70 30 2 60 4 65 5 6 1 17 -14 24 -33z
m57 -128 c12 -29 21 -53 19 -55 -3 -3 -105 59 -105 65 0 8 55 51 60 47 2 -3
14 -28 26 -57z M4073 2513 c-26 -10 -13 -40 22 -50 38 -12 45 -5 37 34 -4 22
-28 29 -59 16z M4180 2241 c0 -6 5 -13 10 -16 6 -3 10 1 10 9 0 9 -4 16 -10
16 -5 0 -10 -4 -10 -9z M3601 2328 c-15 -41 -32 -92 -42 -124 l-9 -32 -97 -1
c-138 -2 -154 -25 -54 -76 26 -12 57 -31 70 -42 l23 -19 -30 -84 c-21 -61 -27
-91 -21 -107 11 -30 35 -29 54 1 9 14 41 43 72 66 l55 42 51 -28 c29 -15 72
-40 96 -56 25 -15 53 -28 63 -28 25 0 24 46 -2 85 -12 17 -32 54 -47 83 -30
63 -28 66 58 110 37 20 54 35 54 48 0 17 -9 19 -102 22 l-103 3 -25 55 c-14
31 -25 61 -24 67 5 42 -26 53 -40 15z m33 -115 c8 -21 -10 -41 -24 -27 -11 11
-3 44 10 44 4 0 11 -8 14 -17z m166 -71 c0 -4 -13 -15 -28 -24 -22 -13 -32
-14 -40 -6 -23 23 -15 28 56 37 6 0 12 -3 12 -7z m-115 -32 c21 -40 20 -42
-26 -78 -42 -31 -42 -31 -73 -14 -17 9 -32 18 -34 19 -12 5 25 86 42 93 44 18
75 11 91 -20z m-155 7 c0 -7 -6 -21 -12 -30 -12 -15 -15 -15 -45 4 -18 12 -33
24 -33 28 0 4 20 9 45 9 31 2 45 -2 45 -11z m223 -143 c15 -31 25 -59 23 -62
-7 -6 -116 59 -116 69 0 8 49 49 59 49 3 0 19 -25 34 -56z m-187 21 c18 -15
18 -16 -21 -50 -48 -41 -58 -44 -45 -10 6 14 14 36 20 50 11 29 19 31 46 10z
M574 2213 c-20 -43 -39 -85 -44 -93 -5 -11 -31 -16 -96 -20 l-89 -5 -3 -31
c-3 -30 1 -34 54 -60 31 -16 59 -35 61 -41 3 -7 -7 -44 -22 -84 -36 -93 -26
-105 51 -65 30 16 71 42 90 57 l36 28 52 -29 c29 -17 76 -37 103 -45 28 -8 56
-22 63 -30 25 -30 59 -11 41 22 -31 57 -81 179 -79 191 3 14 21 27 91 67 49
28 28 40 -64 37 l-85 -3 -43 90 c-55 117 -67 119 -117 14z m79 -25 c8 -24 18
-51 22 -60 6 -16 1 -18 -45 -18 -52 0 -52 0 -45 27 11 45 33 93 44 93 5 0 16
-19 24 -42z m157 -117 c0 -9 -24 -21 -41 -21 -5 0 -9 7 -9 15 0 9 9 15 25 15
14 0 25 -4 25 -9z m-310 -13 c-1 -30 -16 -41 -41 -28 -22 12 -22 13 -4 26 23
17 45 18 45 2z m214 -10 c9 -12 16 -25 16 -29 0 -9 -110 -81 -118 -77 -4 2
-26 14 -49 28 -34 20 -41 29 -37 45 14 44 34 55 105 55 59 0 70 -3 83 -22z
m66 -134 c18 -36 31 -67 29 -68 -6 -6 -149 66 -149 74 0 8 70 58 82 59 3 1 21
-29 38 -65z m-211 5 c7 -3 -11 -21 -44 -43 -31 -20 -59 -36 -61 -34 -2 3 6 27
18 56 21 50 22 50 47 38 14 -7 32 -15 40 -17z M1346 2064 c-14 -14 -14 -17 0
-40 19 -28 27 -30 44 -9 10 12 9 20 -4 40 -19 29 -20 30 -40 9z M4180 1983
c-19 -10 -36 -26 -38 -35 -3 -14 3 -17 30 -14 44 4 88 26 88 43 0 7 -4 13 -9
13 -5 0 -15 2 -23 5 -7 3 -29 -3 -48 -12z M4364 1813 c-8 -21 -18 -51 -21 -68
-4 -16 -12 -44 -19 -60 -12 -29 -16 -31 -70 -32 -58 -2 -77 -13 -67 -42 8 -23
-31 18 -40 42 -7 20 -38 20 -44 0 -6 -18 38 -58 47 -43 5 8 9 4 13 -10 3 -12
10 -19 16 -15 6 3 11 0 11 -8 0 -8 16 -29 35 -46 l35 -31 -35 -92 c-41 -105
-37 -121 24 -90 60 31 85 46 91 53 3 3 16 12 29 19 20 10 27 9 50 -8 77 -60
192 -133 200 -128 12 8 4 71 -15 113 -8 17 -14 40 -14 52 0 12 -4 21 -9 21 -5
0 -14 15 -20 32 -11 31 -10 34 26 65 21 17 55 40 76 49 29 13 37 23 35 38 -3
20 -11 21 -118 26 l-114 5 -11 36 c-5 20 -15 42 -22 50 -6 8 -17 36 -23 62 -7
26 -16 47 -21 47 -5 0 -16 -17 -25 -37z m55 -155 c1 -5 -13 -8 -30 -8 -31 0
-31 1 -24 37 10 57 17 61 36 17 10 -21 18 -42 18 -46z m-129 -54 c0 -8 -5 -24
-10 -35 -11 -19 -12 -19 -45 7 -19 15 -35 30 -35 35 0 5 20 9 45 9 34 0 45 -4
45 -16z m145 4 c2 -2 13 -25 24 -51 l20 -47 -41 -30 c-22 -17 -44 -30 -47 -30
-3 1 -23 15 -44 33 -34 29 -37 36 -28 58 5 13 12 37 16 52 5 27 8 28 51 24 25
-3 47 -7 49 -9z m145 -8 l35 0 -37 -25 c-46 -31 -56 -31 -68 1 -14 35 -13 37
13 30 12 -3 38 -6 57 -6z m-230 -171 c0 -9 -59 -49 -72 -49 -13 0 -9 29 7 61
15 28 16 29 40 13 14 -9 25 -20 25 -25z m185 -29 c19 -38 35 -72 35 -75 0 -6
-61 36 -114 78 l-29 23 34 22 c19 12 35 22 36 22 2 0 19 -31 38 -70z M1019
1741 c-18 -15 -21 -22 -13 -31 15 -15 74 13 74 35 0 21 -33 19 -61 -4z M1077
1470 l-36 -79 -98 -3 c-83 -3 -98 -6 -101 -20 -2 -12 16 -30 60 -58 35 -22 67
-41 71 -43 5 -1 -9 -43 -30 -92 -56 -131 -44 -153 50 -91 29 18 70 43 93 55
l40 23 65 -41 c75 -47 119 -61 119 -38 0 8 -14 52 -31 97 l-31 81 23 17 c57
40 82 69 76 87 -6 15 -17 17 -67 13 -36 -3 -64 0 -69 6 -5 6 -16 35 -25 65
-19 63 -41 101 -60 101 -7 0 -29 -36 -49 -80z m67 -57 c7 -20 4 -23 -23 -23
-36 0 -36 1 -15 42 17 33 23 30 38 -19z m-134 -80 c0 -5 -4 -14 -9 -22 -8 -12
-13 -12 -35 3 -34 22 -33 26 9 26 19 0 35 -3 35 -7z m108 -5 c9 -9 12 -9 12 0
0 19 47 14 53 -5 2 -10 8 -26 12 -35 5 -12 -4 -25 -35 -47 l-42 -30 -44 30
c-24 16 -44 32 -44 35 0 3 9 19 21 35 21 31 47 37 67 17z m150 0 c-7 -19 -38
-22 -38 -4 0 10 9 16 21 16 12 0 19 -5 17 -12z m-205 -117 l29 -18 -29 -20
c-15 -11 -43 -28 -62 -38 -33 -16 -34 -16 -26 1 4 11 11 31 15 46 17 55 28 59
73 29z m174 -33 c12 -29 19 -54 18 -56 -5 -5 -95 53 -95 61 0 9 41 46 51 47 4
0 15 -24 26 -52z M737 970 c-36 -11 -57 -28 -57 -47 0 -11 5 -13 18 -8 9 4 36
12 60 17 31 7 42 14 42 29 0 21 -16 23 -63 9z M3576 6671 c-4 -5 -3 -16 0 -24
3 -8 1 -18 -5 -22 -17 -10 6 -45 29 -45 24 0 26 22 5 40 -11 9 -13 16 -5 24 5
5 10 16 10 23 0 15 -26 18 -34 4z M3626 6635 c-8 -21 1 -35 20 -35 10 0 14 8
12 22 -4 27 -23 34 -32 13z M3663 6564 c-9 -23 13 -40 32 -24 12 10 13 16 4
26 -15 18 -28 18 -36 -2z M3737 6544 c-12 -13 -8 -19 24 -33 34 -15 48 -8 33
17 -12 18 -45 27 -57 16z M4873 6004 c-3 -8 0 -21 6 -27 10 -9 16 -8 26 7 8
10 12 23 9 27 -9 15 -34 10 -41 -7z M4873 5769 c-49 -14 -58 -74 -10 -67 12 1
28 -2 36 -6 9 -6 18 -3 28 9 17 24 17 29 -4 53 -15 16 -24 18 -50 11z M3690
5756 c0 -10 9 -16 21 -16 24 0 21 23 -4 28 -10 2 -17 -3 -17 -12z M2902 5727
c-44 -25 -92 -133 -69 -156 18 -18 37 -12 37 12 0 40 31 117 51 128 19 9 26
29 12 29 -5 -1 -18 -6 -31 -13z M1216 5653 c-6 -14 -5 -15 5 -6 7 7 10 15 7
18 -3 3 -9 -2 -12 -12z M1040 5619 c0 -5 5 -7 10 -4 6 3 10 8 10 11 0 2 -4 4
-10 4 -5 0 -10 -5 -10 -11z M1553 5558 l-12 -33 19 24 c21 24 26 41 12 41 -4
0 -13 -15 -19 -32z M2483 5558 c-56 -64 -77 -108 -89 -197 -11 -78 -10 -96 5
-96 10 0 19 22 27 70 20 108 33 146 70 198 35 48 25 67 -13 25z M1215 5539
c-4 -6 -5 -12 -2 -15 2 -3 7 2 10 11 7 17 1 20 -8 4z M840 5519 c0 -5 5 -7 10
-4 6 3 10 8 10 11 0 2 -4 4 -10 4 -5 0 -10 -5 -10 -11z M1517 5478 c-15 -17
-25 -34 -22 -37 7 -6 55 48 55 61 0 11 -1 10 -33 -24z M1210 5489 c0 -5 5 -7
10 -4 6 3 10 8 10 11 0 2 -4 4 -10 4 -5 0 -10 -5 -10 -11z M1189 5423 c-13
-16 -12 -17 4 -4 16 13 21 21 13 21 -2 0 -10 -8 -17 -17z M1499 5413 c-13 -16
-12 -17 4 -4 9 7 17 15 17 17 0 8 -8 3 -21 -13z M1446 5395 c-3 -8 -1 -15 3
-15 5 0 11 7 15 15 3 8 1 15 -3 15 -5 0 -11 -7 -15 -15z M1510 5378 c-11 -18
-20 -38 -20 -44 0 -6 -9 -21 -20 -33 -18 -22 -18 -25 -3 -47 21 -33 49 -27 45
9 -2 15 4 37 12 48 l14 21 11 -20 c6 -12 11 -30 11 -41 0 -23 18 -37 31 -24
28 28 -6 154 -44 161 -10 2 -25 -10 -37 -30z M1351 5328 c-19 -21 -31 -41 -29
-44 3 -3 20 13 38 36 42 53 35 58 -9 8z M1410 5355 c-7 -9 -8 -15 -2 -15 5 0
12 7 16 15 3 8 4 15 2 15 -2 0 -9 -7 -16 -15z M4745 5360 c-10 -16 14 -40 40
-40 13 0 25 6 28 13 8 25 -54 50 -68 27z M4847 5163 c-4 -3 -7 -19 -7 -35 0
-21 5 -28 19 -28 26 0 34 15 27 46 -6 23 -25 32 -39 17z M1642 5008 c-5 -7
-11 -22 -14 -33 -2 -13 -13 -21 -31 -23 -29 -4 -36 -19 -13 -28 8 -3 22 -23
30 -45 11 -28 22 -39 37 -39 15 0 19 5 15 18 -17 57 -17 91 -1 116 23 35 3 65
-23 34z M1325 4832 c-73 -24 -69 -56 6 -47 40 5 58 1 101 -21 29 -14 61 -33
70 -41 21 -19 38 -9 38 22 0 32 -20 50 -85 74 -56 21 -93 25 -130 13z M2016
4781 c-7 -10 -28 -165 -61 -431 -8 -69 -20 -150 -25 -180 -6 -30 -11 -68 -11
-85 0 -16 -7 -68 -14 -115 -17 -103 -24 -191 -29 -336 -4 -107 -8 -144 -26
-234 -5 -25 -12 -72 -14 -105 -17 -199 -39 -412 -50 -490 -7 -49 -14 -133 -15
-185 -1 -52 -5 -98 -7 -102 -3 -4 -2 -24 2 -43 5 -28 9 -33 19 -25 13 11 17
51 30 265 3 50 8 97 10 105 2 8 9 76 15 150 6 74 15 164 20 200 5 36 12 92 15
125 3 33 9 87 15 120 5 33 18 167 29 298 11 130 23 241 26 247 3 5 7 40 10 77
2 37 6 79 9 93 3 14 7 45 10 70 3 25 10 68 15 95 5 28 12 77 15 110 18 175 28
265 37 309 5 27 9 55 9 62 0 15 -26 19 -34 5z M1218 4734 c-44 -23 -33 -31 42
-30 66 0 70 1 70 23 0 20 -5 23 -42 23 -24 -1 -55 -8 -70 -16z M2470 4675 c0
-8 -6 -24 -12 -35 -13 -21 -2 -54 17 -51 11 1 16 101 4 101 -5 0 -9 -7 -9 -15z
M1849 4558 c-14 -25 -17 -79 -23 -328 -5 -194 -17 -326 -46 -505 -16 -101 -29
-233 -34 -370 -3 -71 -8 -168 -11 -215 -3 -47 -7 -128 -10 -180 -3 -52 -8
-111 -10 -130 -2 -19 -6 -89 -9 -155 -3 -66 -9 -121 -14 -123 -5 -1 -7 -20 -5
-42 2 -22 -1 -49 -8 -61 -6 -12 -7 -19 -2 -16 13 8 15 -59 3 -103 -5 -19 -14
-71 -19 -115 -6 -44 -17 -127 -26 -185 -8 -58 -22 -163 -30 -235 -19 -169 -21
-180 -29 -194 -4 -6 -2 -19 5 -27 10 -12 10 -34 0 -107 -30 -233 -35 -552 -9
-568 34 -22 38 -10 39 99 0 59 2 134 4 167 2 33 4 103 5 155 3 182 52 572 86
689 6 20 4 23 -9 18 -23 -9 -21 14 18 253 25 147 44 378 50 595 11 377 14 479
20 575 7 105 29 292 46 385 6 33 12 78 14 100 1 22 8 96 14 165 13 155 20 480
9 480 -4 0 -13 -10 -19 -22z M2741 4528 c-15 -40 -24 -128 -13 -128 13 0 20
22 31 90 9 53 -3 78 -18 38z M1110 4475 c-16 -19 -14 -21 33 -29 29 -6 37 -4
37 8 0 15 -29 36 -48 36 -5 0 -15 -7 -22 -15z M4941 4460 c-1 -3 -4 -18 -5
-34 -1 -15 -11 -36 -22 -45 -11 -9 -32 -33 -48 -53 -16 -21 -34 -38 -41 -38
-8 0 -21 -7 -30 -16 -26 -27 2 -46 69 -48 61 -1 73 -10 26 -19 -58 -12 -25
-87 37 -87 22 0 23 3 23 100 0 84 -3 102 -16 107 -15 6 -15 7 0 19 13 9 16 24
13 66 -2 29 -4 51 -6 48z M2707 4333 c-3 -32 -5 -67 -5 -78 0 -11 -8 -62 -17
-114 -18 -107 -23 -380 -11 -691 4 -107 9 -328 11 -490 2 -162 6 -326 10 -365
3 -38 8 -137 11 -220 11 -302 34 -523 64 -620 16 -52 58 -198 70 -243 13 -51
45 -116 66 -133 34 -28 32 9 -6 126 -78 237 -93 305 -105 455 -2 30 -9 104
-15 164 -7 69 -8 112 -2 118 6 6 5 20 -4 37 -8 15 -16 61 -19 102 -3 41 -10
130 -15 199 -23 303 -39 764 -27 786 4 8 5 19 2 24 -18 29 -27 638 -12 748 6
39 13 72 17 72 3 0 7 41 8 90 3 100 -13 124 -21 33z M4748 4355 c-48 -35 -58
-50 -37 -57 15 -5 98 37 120 61 16 17 16 20 3 25 -27 10 -38 7 -86 -29z M4467
4343 c-15 -14 -6 -31 23 -43 17 -7 39 -23 49 -36 24 -31 60 -44 90 -32 31 11
42 0 46 -46 3 -33 2 -36 -20 -30 -13 3 -28 3 -34 0 -17 -11 0 -36 24 -36 17 0
24 -7 29 -30 4 -23 11 -30 30 -30 24 0 46 32 27 38 -14 5 -14 52 -1 52 5 0 17
-14 25 -30 13 -26 19 -29 35 -20 25 13 25 20 -2 67 -24 42 -38 54 -50 46 -5
-2 -16 14 -25 36 -17 44 -24 48 -45 27 -10 -10 -20 -11 -31 -4 -10 5 -21 6
-27 3 -5 -3 -19 8 -31 24 -28 38 -93 63 -112 44z M2111 4262 c-10 -20 -4 -62
9 -62 13 0 42 -185 42 -267 0 -43 -3 -193 -7 -333 -5 -167 -3 -307 5 -405 6
-82 15 -220 20 -305 13 -219 18 -279 27 -325 3 -22 6 -47 5 -55 -2 -12 -1 -12
7 1 6 9 9 43 7 75 -2 32 -7 131 -10 219 -4 88 -12 189 -17 225 -22 145 -30
486 -17 695 12 198 12 274 -1 341 -6 34 -9 68 -6 77 4 8 2 18 -4 22 -6 3 -11
15 -11 26 0 10 -6 19 -14 19 -12 0 -13 7 -5 32 11 41 12 38 -6 38 -8 0 -19 -8
-24 -18z M50 4212 c0 -25 29 -82 41 -82 19 0 22 32 6 66 -18 36 -47 46 -47 16z
M2832 3943 c1 -76 11 -109 29 -97 12 7 11 116 -1 148 -18 48 -29 27 -28 -51z
M136 3877 c-16 -12 -16 -14 3 -31 18 -16 19 -20 5 -34 -12 -11 -13 -17 -3 -23
20 -12 41 2 36 23 -5 17 -2 18 25 13 21 -5 33 -3 39 6 14 22 11 29 -11 29 -11
0 -20 5 -20 11 0 5 -4 7 -10 4 -5 -3 -18 -1 -28 4 -14 7 -24 7 -36 -2z M50
3855 c0 -14 4 -25 10 -25 6 0 6 -9 0 -26 -13 -32 -13 -101 -1 -109 13 -8 25
18 41 89 13 57 13 59 -9 77 -31 25 -41 24 -41 -6z M4937 3693 c-11 -10 -8 -63
3 -63 6 0 10 16 10 35 0 36 -2 40 -13 28z M2914 3615 c-9 -49 2 -82 44 -140
21 -27 49 -68 63 -90 15 -22 51 -56 82 -75 33 -21 58 -45 62 -59 8 -32 2 -35
-23 -12 -14 11 -31 16 -47 13 -29 -5 -33 -18 -7 -26 10 -3 39 -27 64 -52 26
-25 52 -44 59 -42 15 5 22 65 9 73 -6 3 -10 14 -10 24 0 14 10 20 39 25 27 4
46 15 60 34 12 15 25 32 31 39 34 41 -24 48 -91 11 -31 -17 -41 -18 -77 -8
-54 14 -56 35 -2 27 44 -6 57 4 66 50 4 23 0 36 -21 61 -22 27 -34 32 -69 32
-47 0 -72 -19 -84 -64 -7 -26 -10 -24 -65 51 -55 74 -58 80 -52 121 5 34 3 42
-9 42 -9 0 -18 -13 -22 -35z m267 -165 c24 -14 24 -32 -1 -55 -19 -17 -21 -17
-40 0 -27 25 -27 65 1 65 11 0 29 -5 40 -10z M4520 3614 c-50 -28 -72 -30
-110 -8 -28 17 -60 14 -60 -6 0 -7 17 -19 39 -28 39 -17 41 -22 32 -85 -1 -4
-17 -5 -36 -1 -52 9 -48 -21 5 -37 32 -10 38 -15 30 -29 -10 -18 7 -61 28 -68
9 -3 13 12 12 60 -1 105 8 129 65 160 28 15 55 26 61 24 16 -6 5 31 -11 37 -6
3 -31 -6 -55 -19z M4307 3601 c-3 -12 -1 -21 3 -21 15 0 23 21 12 32 -6 6 -11
2 -15 -11z M1540 3573 c1 -15 25 -38 43 -41 18 -3 21 6 11 32 -6 16 -54 23
-54 9z M3260 3171 c0 -17 18 -21 24 -6 3 9 0 15 -9 15 -8 0 -15 -4 -15 -9z
M202 3033 c-11 -10 -32 -54 -45 -98 l-25 -80 -41 -3 c-33 -3 -41 -7 -41 -23 0
-11 7 -19 18 -19 28 0 43 -15 36 -34 -5 -13 -13 -16 -30 -12 -29 8 -32 -9 -7
-36 15 -17 15 -22 0 -72 -9 -29 -17 -72 -17 -95 0 -37 2 -42 18 -36 9 4 29 10
44 13 15 2 30 12 33 22 3 10 26 30 51 45 l44 26 46 -32 c25 -17 61 -45 80 -62
47 -41 65 -25 40 35 -10 24 -26 64 -36 89 l-19 46 47 39 c25 21 55 44 66 49
33 17 43 42 24 61 -14 14 -27 15 -95 7 -43 -6 -83 -8 -89 -6 -6 2 -19 38 -30
80 -10 41 -26 84 -35 94 -16 18 -17 18 -37 2z m37 -130 c12 -41 8 -53 -19 -53
-10 0 -21 4 -24 8 -7 12 13 82 24 82 5 0 14 -16 19 -37z m142 -115 c-32 -29
-35 -30 -48 -12 -24 33 -16 44 35 44 l47 -1 -34 -31z m-92 -20 c12 -39 11 -43
-11 -60 -40 -31 -57 -31 -99 -4 l-39 26 15 36 c8 20 15 38 15 40 0 2 24 4 53
4 l54 0 12 -42z m-128 -97 c13 -11 22 -21 19 -23 -3 -2 -19 -13 -37 -26 -41
-28 -45 -28 -37 6 16 72 18 73 55 43z m189 -63 c0 -14 -14 -8 -45 18 -29 24
-30 25 -10 40 18 13 21 12 37 -18 9 -18 17 -36 18 -40z M4866 2941 c-7 -10 7
-22 52 -45 31 -16 32 -16 32 3 0 34 -68 68 -84 42z M4873 2854 c-3 -9 -1 -25
6 -35 6 -11 7 -19 1 -19 -12 0 -75 -69 -75 -83 0 -6 5 -12 11 -14 12 -4 29 10
63 53 20 25 22 26 39 10 10 -9 22 -16 25 -16 13 0 7 59 -7 67 -8 4 -15 17 -18
28 -4 25 -36 32 -45 9z M3187 2750 c-31 -36 -35 -37 -47 -5 -10 26 -34 33 -45
14 -4 -5 0 -18 9 -28 21 -23 20 -31 -4 -31 -28 0 -25 -14 8 -31 15 -8 31 -20
35 -26 12 -20 27 -15 27 7 0 11 14 39 30 62 47 65 36 97 -13 38z M4927 2733
c-2 -5 2 -24 9 -43 l13 -35 0 43 c1 37 -11 56 -22 35z M1855 2463 c-4 -15 -10
-36 -16 -45 -16 -31 -11 -86 10 -98 11 -5 21 -10 23 -10 2 0 5 30 6 68 1 37 3
76 4 86 5 31 -21 30 -27 -1z M2210 2459 c0 -11 4 -18 10 -14 5 3 7 12 3 20 -7
21 -13 19 -13 -6z M2206 2422 c-3 -5 -3 -35 -1 -68 2 -32 6 -106 10 -164 8
-139 22 -264 34 -303 5 -18 17 -75 27 -127 26 -148 89 -277 123 -256 17 11 13
34 -8 45 -21 12 -71 128 -71 165 0 12 -12 70 -26 127 -25 101 -48 284 -61 482
-5 90 -14 120 -27 99z M1749 2388 c-1 -2 -3 -14 -4 -28 -1 -14 -9 -60 -18
-102 -21 -96 -22 -181 -3 -197 19 -16 22 -7 25 67 1 35 9 98 17 140 22 105 22
116 2 120 -10 2 -19 2 -19 0z M2430 2307 c0 -14 5 -29 10 -32 7 -4 8 3 4 22
-9 38 -14 42 -14 10z M2935 2190 c-13 -41 -7 -135 14 -220 11 -47 30 -146 41
-220 19 -133 26 -167 55 -265 8 -27 17 -62 20 -77 4 -22 11 -28 30 -28 17 0
29 -9 39 -28 8 -16 22 -35 31 -42 24 -20 45 -63 84 -175 33 -91 38 -100 63
-103 15 -2 38 -12 50 -23 13 -11 52 -33 87 -47 35 -15 68 -34 72 -42 11 -18
31 -70 35 -87 8 -41 28 -82 53 -109 81 -89 231 -169 231 -124 0 4 -38 33 -85
65 -110 75 -106 70 -179 225 -38 82 -79 117 -163 139 -23 7 -45 16 -48 21 -3
6 -15 10 -26 10 -22 0 -60 72 -74 140 -8 40 -32 82 -87 156 -21 28 -38 57 -38
63 0 8 -7 11 -15 7 -9 -3 -17 0 -19 7 -2 6 -15 53 -29 102 -14 50 -33 133 -42
185 -9 52 -30 149 -47 215 -28 108 -33 154 -25 244 3 31 -19 39 -28 11z M2314
2094 c-19 -46 -15 -139 6 -139 11 0 16 14 18 53 3 50 22 66 22 19 0 -13 9 -40
20 -61 10 -22 33 -81 51 -133 29 -88 49 -123 69 -123 13 0 22 18 11 24 -5 3
-19 32 -31 63 -13 32 -29 72 -36 88 -33 76 -43 107 -54 162 -19 92 -49 111
-76 47z M2336 1914 c-19 -50 6 -135 60 -200 19 -24 25 -26 33 -15 7 11 2 24
-19 48 -31 35 -53 98 -52 151 0 34 -12 43 -22 16z M4932 1784 c-7 -8 -8 -14
-3 -14 10 0 25 19 20 25 -2 1 -10 -3 -17 -11z M1689 1743 c-7 -16 -15 -64 -20
-108 -49 -459 -51 -595 -9 -690 5 -11 11 -32 14 -47 7 -29 87 -132 116 -148
44 -24 32 26 -21 87 -15 18 -42 63 -61 100 -31 64 -33 75 -36 193 -2 69 1 166
7 215 6 50 13 131 16 180 3 50 10 117 15 150 6 33 10 68 10 78 0 26 -19 20
-31 -10z M2450 1578 c0 -28 11 -62 30 -98 17 -30 37 -71 46 -90 19 -42 75
-120 123 -173 19 -20 42 -48 50 -61 78 -116 119 -151 211 -182 51 -18 137 -35
205 -41 33 -2 62 -9 63 -14 6 -14 32 -11 32 4 0 17 -36 50 -78 72 -19 9 -86
25 -150 36 -65 11 -126 22 -136 26 -21 6 -89 73 -114 113 -14 22 -96 122 -129
157 -6 7 -17 30 -23 50 -7 21 -24 52 -39 68 -47 54 -63 91 -70 163 0 6 -5 12
-11 12 -5 0 -10 -19 -10 -42z M227 1518 c-8 -13 -24 -51 -36 -84 l-23 -62 -59
-6 c-57 -7 -59 -8 -59 -36 0 -19 10 -36 31 -54 l31 -26 -31 -74 c-25 -60 -41
-136 -28 -136 1 0 49 23 106 51 57 27 107 46 110 41 14 -20 136 -101 142 -94
4 4 -3 39 -16 77 -14 39 -25 79 -25 90 0 20 62 73 123 104 30 16 31 19 17 41
-6 11 -35 16 -102 20 l-92 5 -26 79 c-15 44 -31 81 -38 84 -6 2 -17 -7 -25
-20z m43 -130 c0 -13 -8 -18 -30 -18 -35 0 -35 -1 -14 48 l15 37 14 -25 c8
-14 14 -33 15 -42z m135 -84 c-51 -42 -65 -48 -65 -25 0 11 -3 26 -6 35 -5 12
4 15 43 18 26 2 50 1 53 0 3 -2 -8 -15 -25 -28z m-258 19 c-2 -5 -7 -16 -10
-26 -7 -18 -8 -18 -37 0 -41 24 -38 33 11 33 22 0 38 -3 36 -7z m151 -33 c17
-54 17 -54 -27 -78 l-40 -23 -35 32 c-20 17 -36 34 -36 38 0 3 9 21 20 39 17
28 25 32 62 32 41 0 44 -2 56 -40z m-118 -94 l28 -23 -60 -43 c-33 -23 -61
-40 -62 -38 -4 4 55 128 61 128 3 0 18 -11 33 -24z m168 -53 c13 -39 6 -41
-37 -9 l-32 24 22 16 c26 18 32 14 47 -31z M2614 1474 c3 -9 6 -18 6 -20 0 -2
4 -4 9 -4 5 0 7 9 4 20 -3 11 -10 20 -15 20 -6 0 -7 -7 -4 -16z M3350 1379 c0
-5 5 -7 10 -4 6 3 10 8 10 11 0 2 -4 4 -10 4 -5 0 -10 -5 -10 -11z M4926 1381
c-8 -12 3 -41 15 -41 5 0 9 11 9 25 0 25 -14 34 -24 16z M1050 770 c-12 -7
-12 -12 -2 -22 9 -9 15 -9 24 0 16 16 -2 34 -22 22z M1185 770 c-11 -18 -1
-21 67 -23 50 -2 63 1 63 13 0 11 -15 16 -62 18 -37 2 -64 -1 -68 -8z M1056
671 c-58 -4 -91 -10 -94 -18 -3 -10 21 -12 103 -8 59 2 110 7 113 10 6 6 -19
26 -28 23 -3 -1 -45 -4 -94 -7z M660 650 c-21 -13 -12 -17 47 -22 58 -6 68 -2
52 19 -13 15 -77 17 -99 3z M118 542 c-50 -2 -68 -7 -68 -17 0 -11 25 -14 124
-14 68 0 130 -2 137 -3 8 -2 14 4 14 12 0 17 -93 27 -207 22z M413 542 c-45
-7 -22 -20 40 -24 81 -4 279 11 292 23 9 9 -274 9 -332 1z M1393 532 c-13 -2
-23 -8 -23 -13 0 -5 35 -9 78 -9 42 1 200 -2 350 -5 170 -4 272 -3 272 3 0 17
-29 19 -245 20 -116 1 -255 3 -310 4 -55 2 -110 2 -122 0z M2591 531 c-8 -5
-9 -11 -3 -15 15 -9 126 -1 132 10 6 12 -111 17 -129 5z M1170 520 c0 -5 24
-10 53 -9 38 0 47 3 32 9 -28 12 -85 12 -85 0z M2255 520 c3 -5 31 -10 61 -10
30 0 54 5 54 10 0 6 -27 10 -61 10 -37 0 -58 -4 -54 -10z M170 405 c0 -12 13
-15 55 -15 30 0 55 4 55 9 0 13 -27 21 -71 21 -28 0 -39 -4 -39 -15z M802 385
c-33 -15 -52 -41 -52 -76 0 -12 -8 -28 -17 -35 -16 -12 -11 -13 37 -13 43 0
50 2 33 9 -13 5 -23 17 -23 27 1 17 1 17 11 1 5 -10 19 -18 30 -18 11 0 17 -4
14 -10 -4 -6 33 -10 105 -10 106 0 111 1 119 23 12 30 5 38 -24 27 -16 -6 -25
-6 -25 0 0 20 -49 10 -55 -10 -9 -27 -23 -17 -18 12 9 49 -78 96 -135 73z m79
-42 c13 -17 13 -17 -6 -3 -11 8 -22 16 -24 17 -2 2 0 3 6 3 6 0 17 -8 24 -17z
m-20 -34 c8 -15 8 -24 0 -32 -8 -8 -11 -4 -11 15 0 15 -6 29 -12 31 -10 4 -10
6 -1 6 7 1 17 -8 24 -20z M123 263 c9 -2 23 -2 30 0 6 3 -1 5 -18 5 -16 0 -22
-2 -12 -5z"/>
</g>
</svg>
