<?xml version="1.0" standalone="no"?>
<!DOCTYPE svg PUBLIC "-//W3C//DTD SVG 20010904//EN"
 "http://www.w3.org/TR/2001/REC-SVG-20010904/DTD/svg10.dtd">
<svg version="1.0" xmlns="http://www.w3.org/2000/svg"
 width="500.000000pt" height="878.000000pt" viewBox="0 0 500.000000 878.000000"
 preserveAspectRatio="xMidYMid meet">
<metadata>
Created by potrace 1.16, written by Peter Selinger 2001-2019
</metadata>
<g transform="translate(0.000000,878.000000) scale(0.100000,-0.100000)"
fill="#000000" stroke="none">
<path d="M1970 8040 c-79 -7 -150 -24 -181 -43 -14 -9 -21 -9 -31 1 -6 6 -26
12 -44 12 -38 0 -161 -36 -169 -50 -3 -6 -23 -10 -43 -10 -20 0 -57 -9 -81
-20 -32 -15 -65 -20 -132 -20 -51 0 -91 -4 -94 -11 -4 -6 -13 -8 -20 -5 -23 8
-75 -33 -95 -77 -11 -23 -29 -58 -40 -77 l-20 -34 22 -23 c12 -13 29 -23 38
-23 27 0 29 -9 14 -58 -33 -111 -9 -225 60 -277 31 -24 46 -28 96 -27 33 0 65
4 71 8 16 9 2 103 -27 191 -28 83 -32 143 -9 143 17 0 21 35 5 45 -5 3 -10 16
-10 29 0 23 19 46 75 91 25 19 28 26 17 37 -11 11 -19 9 -50 -8 -20 -12 -41
-31 -47 -43 -12 -26 -20 -26 -45 -1 -11 11 -26 20 -32 20 -22 -1 -54 -33 -72
-72 -19 -43 -33 -55 -49 -39 -14 14 48 137 80 158 15 10 60 17 130 21 85 4
114 9 134 25 15 10 34 17 44 15 15 -3 15 -5 -4 -27 -31 -36 -35 -65 -22 -155
6 -45 16 -115 21 -156 16 -136 2 -210 -24 -128 -8 23 -17 33 -31 33 -23 0 -36
25 -54 102 -11 46 -11 56 8 98 12 28 29 49 41 52 25 7 26 33 1 33 -23 0 -78
-61 -87 -96 -10 -38 2 -143 21 -188 9 -21 19 -70 22 -107 5 -57 9 -69 23 -69
20 0 32 44 23 80 l-6 24 36 -23 37 -22 24 26 c15 16 27 22 31 15 14 -22 50
-10 73 26 19 29 23 45 19 83 -10 87 -14 131 -10 131 2 0 12 -5 23 -12 31 -20
34 -3 10 56 -19 49 -20 59 -10 93 14 41 49 97 57 89 2 -2 0 -13 -6 -24 -11
-21 -5 -52 9 -52 5 0 14 16 20 35 6 20 23 49 37 65 13 16 22 34 19 39 -7 11
63 38 139 52 81 15 293 6 375 -16 71 -19 173 -65 202 -92 23 -21 77 -113 88
-152 9 -32 -11 -133 -30 -157 -16 -18 -40 -18 -40 1 0 8 4 15 10 15 15 0 41
58 45 102 4 33 2 39 -13 36 -11 -2 -21 -20 -29 -50 -15 -63 -21 -72 -38 -58
-12 10 -11 17 6 43 23 39 25 95 3 104 -21 8 -34 -13 -34 -57 0 -42 -13 -65
-30 -55 -9 6 -9 9 0 15 12 7 18 125 7 136 -3 4 -13 4 -21 1 -12 -5 -15 -21
-12 -77 1 -38 0 -70 -4 -70 -19 0 -26 31 -24 103 3 61 0 77 -11 77 -21 0 -26
-14 -26 -85 -1 -47 -4 -65 -14 -65 -9 0 -14 12 -13 33 0 32 -9 89 -18 117 -10
30 -34 -22 -34 -74 -1 -53 -20 -93 -40 -81 -8 5 -6 12 5 25 15 16 15 24 1 90
-16 79 -19 85 -36 75 -8 -5 -9 -28 -5 -74 5 -47 3 -62 -4 -51 -6 8 -11 28 -11
43 0 36 -16 67 -35 67 -19 0 -19 -20 0 -47 10 -14 12 -24 5 -28 -5 -3 -10 -19
-10 -34 0 -26 -4 -29 -46 -35 -25 -3 -57 -3 -70 0 -36 9 -134 -60 -134 -95 0
-9 -19 -25 -42 -36 -87 -41 -151 -120 -164 -203 -7 -42 -7 -42 -40 -36 -26 5
-34 3 -34 -9 0 -17 21 -27 55 -27 20 0 24 -7 34 -63 14 -84 14 -97 -4 -97 -8
0 -15 9 -15 20 0 13 -7 20 -18 20 -10 0 -37 14 -60 31 -30 22 -43 40 -48 65
-6 35 -21 43 -42 22 -9 -9 -12 -6 -12 14 0 15 -5 30 -11 33 -18 12 -49 -26
-49 -60 0 -17 -4 -35 -8 -40 -5 -6 -14 -29 -21 -52 -10 -38 -15 -43 -41 -43
-27 0 -28 2 -23 35 4 28 2 35 -11 35 -9 0 -16 -8 -16 -17 0 -9 -7 -24 -15 -33
-20 -22 -9 -50 20 -50 12 0 36 -3 52 -6 39 -8 69 22 78 78 l7 39 41 -44 c23
-25 56 -51 72 -59 43 -22 114 -31 131 -17 23 19 33 1 17 -31 -18 -38 -3 -63
32 -54 20 5 23 3 18 -14 -7 -28 15 -37 37 -17 16 15 22 15 35 5 21 -18 19 -40
-4 -40 -42 0 -68 -83 -36 -110 8 -7 15 -16 15 -21 0 -12 -30 1 -50 21 -21 21
-107 33 -168 24 -105 -16 -254 -111 -268 -171 -3 -15 -12 -42 -20 -60 -8 -17
-14 -46 -14 -64 0 -32 -13 -83 -33 -126 -6 -15 -6 -45 3 -95 7 -40 11 -84 10
-98 -5 -63 -1 -724 4 -745 4 -15 15 -25 29 -27 28 -4 36 -58 13 -93 -20 -30
-13 -47 31 -80 32 -25 33 -28 19 -44 -22 -24 -20 -38 8 -56 32 -21 37 -37 26
-76 -7 -25 -6 -39 5 -56 8 -12 15 -40 15 -61 0 -34 4 -41 30 -52 16 -7 37 -10
46 -6 8 3 24 1 34 -4 15 -8 21 -6 31 11 7 13 7 25 1 31 -5 5 -6 26 -2 47 4 21
5 52 3 68 -4 24 -1 31 16 36 19 4 21 11 16 44 -2 21 -7 119 -10 218 -3 99 -9
200 -14 223 -11 54 8 39 28 -23 28 -83 85 -186 140 -252 56 -66 58 -70 70
-156 12 -91 7 -117 -24 -117 -11 0 -55 -77 -55 -96 0 -3 -17 -26 -38 -52 -73
-89 -198 -313 -242 -432 -23 -63 -46 -124 -51 -135 -4 -11 -25 -60 -45 -110
-20 -49 -63 -145 -95 -212 -32 -67 -59 -131 -59 -141 0 -22 36 -57 70 -67 14
-4 35 -18 47 -31 24 -26 53 -32 53 -10 0 7 -7 19 -15 26 -22 18 -9 79 38 180
40 87 103 252 111 292 7 37 67 180 92 220 13 20 26 49 30 65 4 15 16 48 28 73
13 25 32 65 43 90 98 210 102 217 137 204 23 -9 20 -21 -19 -80 -19 -29 -35
-55 -35 -57 0 -3 -13 -35 -30 -70 -16 -36 -30 -70 -30 -75 0 -6 -4 -12 -8 -14
-8 -3 -124 -260 -164 -363 -35 -92 -89 -249 -104 -304 -8 -30 -19 -60 -24 -66
-6 -7 -8 -14 -5 -17 3 -3 -2 -25 -10 -49 -24 -65 -55 -186 -55 -209 0 -23 61
-55 86 -46 8 3 14 1 14 -5 0 -19 49 -59 72 -59 13 0 40 -11 60 -25 25 -17 51
-25 79 -25 35 0 40 -2 33 -17 -4 -10 -8 -135 -10 -278 -1 -143 -7 -278 -13
-299 -6 -26 -6 -46 0 -58 31 -57 50 69 55 352 3 129 5 262 7 295 l2 60 -49 -4
c-39 -2 -62 3 -100 22 -28 15 -59 28 -68 31 -35 10 -20 107 47 311 9 28 20 66
25 85 4 19 27 87 50 150 23 63 55 152 70 197 16 46 34 91 40 100 10 16 11 16
4 -2 -22 -63 -54 -194 -52 -215 2 -17 9 -25 23 -25 17 0 22 11 32 72 22 133
98 346 185 518 55 109 61 118 83 121 18 3 18 -6 5 -55 -8 -33 -30 -139 -51
-251 -11 -63 -16 -82 -43 -195 -53 -221 -68 -291 -92 -432 -13 -81 -26 -157
-29 -168 -6 -31 -42 -165 -56 -212 -10 -34 -11 -55 -1 -100 6 -31 17 -62 22
-67 6 -6 31 -11 56 -10 24 0 44 -2 44 -6 0 -9 67 -40 88 -40 10 0 28 7 41 16
17 12 29 14 44 7 35 -15 87 3 87 30 0 12 5 29 10 37 6 9 7 -5 3 -41 -7 -68 6
-95 53 -115 19 -8 34 -18 34 -23 0 -5 -14 -40 -31 -78 -17 -37 -37 -92 -45
-120 -25 -96 -74 -209 -100 -234 -36 -33 -105 -134 -132 -191 -19 -42 -20 -49
-6 -63 10 -10 13 -23 8 -37 -16 -52 -68 -143 -105 -182 -21 -24 -39 -48 -39
-54 0 -14 -35 -34 -44 -25 -6 6 -52 7 -203 3 -25 0 0 -30 26 -31 14 0 20 -3
14 -6 -22 -8 -14 -32 12 -39 14 -3 37 -3 53 0 53 13 137 39 145 46 4 4 19 5
33 2 24 -4 23 -6 -23 -48 -27 -24 -51 -44 -55 -44 -10 0 -11 -40 -2 -40 4 0
33 18 65 40 33 22 59 38 59 36 0 -3 -12 -18 -28 -34 -15 -17 -37 -44 -50 -61
-13 -17 -31 -31 -41 -31 -9 0 -22 -5 -28 -11 -6 -6 -28 -13 -49 -16 -22 -3
-44 -9 -50 -14 -7 -6 -21 -6 -35 0 -35 14 -82 25 -98 22 -10 -2 -10 2 3 14 20
20 8 40 -30 49 -14 4 -23 12 -21 19 4 12 12 12 60 1 20 -5 27 -3 27 8 0 13
-40 40 -62 42 -3 1 -10 5 -15 9 -4 5 9 6 30 2 30 -6 37 -4 37 9 0 9 -11 21
-25 28 -13 6 -29 24 -35 41 -15 44 -12 46 10 9 22 -35 48 -39 41 -6 -5 29 -4
176 2 204 3 14 10 40 15 57 14 45 111 203 128 210 18 7 18 43 0 43 -12 0 -86
-91 -86 -105 0 -3 -9 -16 -20 -28 -22 -23 -70 -121 -70 -143 0 -8 -15 -31 -33
-51 -46 -53 -79 -134 -76 -191 1 -26 -2 -69 -6 -95 -6 -40 -12 -50 -34 -59
-32 -12 -142 -2 -166 16 -26 18 -11 53 26 61 33 7 70 52 88 104 15 45 14 108
-1 113 -9 3 -12 27 -9 80 2 65 -1 82 -21 120 -14 23 -28 55 -31 70 -4 14 -20
40 -37 56 -23 24 -41 31 -87 36 -32 4 -74 2 -93 -4 -31 -9 -37 -7 -66 21 -28
27 -42 32 -98 36 -48 4 -71 2 -88 -9 -21 -14 -27 -13 -58 3 -19 11 -42 19 -52
19 -20 0 -32 17 -33 45 0 11 -7 20 -15 21 -8 0 -27 6 -42 12 -44 18 -116 2
-178 -39 -26 -18 -146 -29 -166 -16 -6 3 -41 4 -77 0 l-66 -6 -1 -197 c0 -108
3 -199 6 -203 10 -9 34 4 34 19 0 7 -8 18 -18 24 -12 8 -13 13 -4 16 6 3 12
13 12 22 0 31 29 -10 32 -46 1 -19 9 -34 18 -37 29 -9 85 -55 68 -55 -9 0 -19
-8 -21 -18 -4 -13 -5 -12 -6 5 -1 29 -46 60 -64 45 -8 -7 -18 -7 -27 -2 -24
15 -30 12 -30 -19 0 -17 10 -38 24 -52 28 -27 25 -44 -5 -29 -17 10 -19 7 -19
-24 0 -21 6 -36 16 -40 19 -7 17 -113 -4 -109 -8 2 -12 -11 -12 -43 0 -28 4
-43 10 -39 6 3 28 7 50 7 31 0 41 5 46 22 l7 21 8 -23 c7 -18 16 -22 50 -22
31 0 40 -3 36 -14 -10 -26 17 -38 40 -17 20 19 63 21 86 4 7 -5 37 -8 67 -7
34 0 70 -6 95 -17 22 -10 48 -19 59 -19 10 0 39 -11 65 -24 26 -13 68 -26 94
-30 45 -7 98 -38 86 -50 -3 -4 -34 1 -69 10 -34 9 -76 14 -93 11 -16 -2 -51 4
-77 14 -92 35 -128 -10 -40 -51 27 -13 48 -25 46 -28 -2 -2 -14 1 -26 8 -16 9
-27 8 -49 -3 -16 -8 -40 -12 -54 -10 -13 3 -41 0 -61 -6 -26 -7 -46 -7 -64 0
-55 21 -104 21 -159 -2 -46 -18 -61 -20 -103 -12 l-50 10 0 -32 c0 -30 4 -34
44 -48 25 -8 47 -13 49 -10 6 5 87 -35 87 -43 0 -3 -9 -2 -21 1 -13 4 -27 1
-39 -10 -14 -13 -32 -16 -69 -14 -47 4 -51 2 -51 -18 0 -19 6 -23 31 -23 27 0
30 -2 19 -15 -7 -9 -21 -13 -31 -10 -13 4 -19 1 -19 -8 0 -18 55 -28 70 -13 5
5 10 7 10 3 0 -4 14 0 31 8 17 9 28 22 26 29 -9 23 8 36 50 40 51 5 63 12 63
36 0 11 12 24 30 32 61 27 25 39 -76 25 -59 -9 -78 -8 -110 6 l-39 16 38 0
c21 1 63 10 94 21 42 15 60 17 75 9 24 -13 109 -15 155 -4 22 5 42 2 65 -9 29
-15 34 -15 44 -1 10 13 15 13 46 0 33 -13 37 -13 52 4 9 10 14 25 11 33 -4 10
4 19 23 27 31 13 92 3 136 -23 12 -6 32 -12 46 -11 22 0 25 4 24 35 0 19 -4
43 -8 53 -6 13 7 10 65 -18 58 -27 92 -36 154 -41 44 -3 85 -10 91 -15 6 -5
27 -6 47 -4 l37 5 -27 -53 c-15 -28 -30 -54 -34 -57 -12 -9 -59 -129 -59 -150
0 -44 32 -13 67 65 20 44 44 91 55 104 10 13 18 29 18 36 0 7 11 37 25 67 13
29 30 77 36 106 11 56 18 60 68 39 23 -10 28 -16 19 -25 -8 -8 1 -17 38 -33
40 -19 45 -23 27 -27 -44 -7 -16 -42 34 -42 18 0 33 -5 33 -11 0 -6 -8 -8 -19
-4 -10 3 -29 1 -42 -4 l-24 -9 28 -11 c16 -6 33 -9 38 -5 5 3 9 3 9 -1 0 -3
-11 -10 -25 -15 -24 -9 -25 -11 -10 -33 17 -26 12 -52 -11 -61 -8 -3 -14 -12
-14 -21 0 -9 -9 -15 -23 -15 -39 0 -40 -13 -5 -41 40 -33 34 -45 -11 -23 -28
14 -35 14 -42 3 -6 -10 -9 -11 -9 -1 0 6 -7 12 -15 12 -8 0 -15 -7 -15 -15 0
-8 8 -15 18 -15 26 -1 92 -67 92 -93 0 -21 -16 -47 -30 -47 -3 0 -7 12 -8 28
-3 43 -95 102 -158 102 -32 0 -34 -2 -24 -20 6 -11 21 -20 34 -20 13 0 26 -6
29 -14 3 -8 -1 -13 -10 -12 -21 1 -27 -18 -11 -35 20 -20 48 -62 48 -71 0 -12
-52 23 -68 44 -18 25 -83 24 -107 -1 -16 -19 -16 -22 1 -58 13 -25 26 -38 39
-38 13 0 21 -8 23 -22 2 -16 -2 -23 -12 -23 -9 0 -16 -4 -16 -9 0 -5 -9 -7
-20 -4 -11 3 -27 3 -35 -1 -14 -5 -14 -8 2 -25 10 -10 27 -21 38 -23 11 -2 21
-10 23 -19 4 -24 -46 -12 -53 12 -6 19 -51 37 -63 25 -3 -4 -1 -16 6 -26 13
-21 16 -63 5 -73 -3 -4 -11 3 -17 16 -10 18 -20 22 -56 22 -37 0 -45 -3 -48
-20 -1 -12 6 -25 18 -33 18 -11 20 -10 20 8 0 11 5 20 10 20 6 0 10 -15 10
-33 0 -41 -39 -62 -97 -50 -21 4 -42 8 -48 8 -5 0 -15 7 -21 15 -9 11 -5 23
23 57 19 23 32 47 29 52 -4 5 -2 12 4 16 5 3 10 15 10 26 0 10 5 19 11 19 5 0
15 14 20 30 6 17 15 30 20 30 5 0 9 7 9 15 0 9 7 18 15 21 8 4 15 15 15 25 0
10 4 19 9 19 17 0 82 73 77 87 -8 20 -42 -4 -90 -65 -38 -49 -39 -49 -58 -30
-16 16 -20 17 -33 4 -19 -19 -19 -35 1 -57 15 -17 14 -21 -13 -58 -22 -31 -32
-37 -45 -30 -11 6 -19 6 -23 -1 -4 -7 -13 -6 -27 1 -11 6 -35 8 -54 4 -39 -7
-43 3 -19 49 8 15 15 35 15 43 0 8 5 11 11 8 6 -4 8 -14 5 -22 -4 -9 5 -19 27
-28 64 -26 70 -24 74 24 2 27 -2 51 -11 60 -7 9 -13 31 -13 49 0 43 -26 63
-73 55 -19 -3 -36 -9 -38 -13 -1 -4 -17 -4 -34 -1 -25 5 -34 13 -41 40 -5 20
-16 35 -28 38 -19 5 -24 15 -13 26 4 3 13 0 21 -8 8 -8 21 -15 29 -15 19 0 9
39 -14 58 -13 10 -13 12 -1 12 33 0 57 -13 63 -32 5 -20 7 -20 28 -6 13 9 23
21 23 28 0 21 -67 51 -97 44 -17 -3 -28 -1 -28 5 0 16 -43 23 -73 12 -17 -7
-27 -18 -27 -31 0 -13 -7 -20 -18 -20 -25 0 -51 -30 -57 -66 -6 -34 2 -49 32
-58 18 -6 21 -4 16 16 -4 20 -3 21 7 5 17 -27 43 -22 38 7 -3 14 -1 31 4 38 8
10 9 9 5 -3 -3 -9 -1 -21 5 -27 6 -6 13 -26 15 -43 2 -18 8 -38 13 -44 6 -7 8
-20 4 -29 -5 -14 -11 -12 -39 13 -45 39 -68 45 -105 26 -23 -12 -30 -12 -30
-3 0 7 -9 19 -19 25 -15 10 -22 9 -31 -2 -15 -18 -6 -45 13 -45 8 0 22 -9 33
-21 15 -17 27 -20 57 -16 31 4 42 1 62 -19 14 -14 25 -36 25 -49 0 -28 -3 -29
-30 -15 -13 7 -21 5 -31 -6 -11 -14 -10 -19 7 -33 11 -9 19 -22 16 -29 -2 -8
5 -22 17 -33 12 -11 21 -30 21 -42 -1 -21 -1 -22 -15 -3 -8 11 -15 23 -15 28
0 4 -11 8 -24 8 -29 0 -40 -24 -21 -44 8 -8 15 -18 15 -23 0 -4 10 -14 22 -22
l22 -14 -22 -8 c-24 -9 -29 -38 -10 -57 9 -9 9 -15 0 -24 -9 -9 -12 -9 -12 3
0 21 -36 53 -52 47 -7 -3 -22 -2 -33 2 -28 10 -94 -26 -101 -56 -7 -26 10 -54
32 -54 20 0 17 -30 -3 -36 -10 -3 -27 -10 -38 -15 -11 -5 -37 -7 -57 -5 -21 2
-38 -1 -38 -7 0 -6 -5 -6 -12 1 -20 16 -70 3 -66 -17 2 -9 13 -16 26 -15 12 0
22 -5 22 -13 0 -7 6 -13 13 -14 6 0 1 -5 -13 -10 -23 -9 -23 -11 -7 -20 9 -6
26 -12 37 -14 11 -2 27 -11 36 -19 10 -10 25 -13 44 -9 41 8 38 -10 -3 -25
-44 -16 -57 -15 -57 3 0 8 -6 12 -14 9 -8 -3 -17 0 -21 5 -3 6 -11 8 -17 5 -6
-4 -27 12 -48 34 -32 36 -36 47 -33 83 2 24 5 45 8 48 5 4 27 8 85 14 14 1 35
8 46 16 20 13 20 16 5 31 -24 25 -44 29 -72 14 -33 -18 -62 -17 -98 4 -33 18
-41 46 -16 56 26 10 16 36 -19 53 -50 23 -66 13 -66 -42 0 -26 5 -56 11 -68 9
-16 9 -22 0 -25 -7 -2 -11 -41 -11 -117 l0 -113 31 -11 c36 -12 31 -31 -6 -23
-24 4 -25 3 -25 -52 l0 -56 53 0 c247 -1 1068 -15 1472 -25 345 -8 1127 -15
2210 -20 561 -2 1053 -6 1093 -7 72 -3 73 -3 70 22 -3 23 -8 25 -55 28 -41 2
-51 6 -46 18 3 7 1 14 -5 14 -6 0 -16 2 -24 5 -7 3 -20 0 -28 -5 -13 -9 -13
-11 0 -21 11 -7 -7 -9 -65 -5 -44 4 -308 6 -587 7 -286 1 -508 5 -508 10 0 5
20 7 44 5 63 -6 80 9 71 63 -4 24 -14 45 -22 48 -20 8 -49 -10 -46 -29 2 -9
-6 -14 -25 -13 -22 0 -27 -4 -25 -22 2 -18 -2 -23 -22 -23 -29 0 -35 -26 -7
-33 14 -4 -1058 -2 -1347 2 l-83 1 6 28 c4 15 3 22 -1 15 -6 -8 -13 -8 -27 3
-19 13 -19 14 7 14 14 0 30 7 35 16 7 12 14 14 28 6 76 -40 92 -45 127 -38 20
4 41 14 46 24 5 9 13 13 17 9 5 -5 2 -12 -6 -18 -13 -8 -13 -10 0 -19 8 -6 24
-7 35 -4 11 4 38 7 59 9 22 1 42 7 44 14 3 9 10 8 28 -4 19 -12 32 -14 58 -7
21 6 39 6 51 -1 23 -13 74 -12 88 2 6 6 21 11 34 11 17 0 22 5 20 22 -1 14 6
26 20 33 13 7 32 20 44 30 17 16 22 17 29 5 11 -18 3 -30 -21 -30 -10 0 -19
-7 -19 -15 0 -9 10 -15 26 -15 54 0 97 46 69 74 -13 12 -13 19 -4 34 8 13 9
27 2 48 -8 24 -15 29 -42 29 -21 0 -30 4 -27 12 3 7 -5 25 -18 40 -14 17 -22
38 -20 53 1 14 3 28 3 32 1 4 16 7 34 6 42 -1 127 36 127 56 0 9 7 16 15 16
19 0 19 -14 0 -30 -14 -12 -14 -15 1 -31 21 -23 89 -26 101 -5 4 8 10 14 13
13 3 0 20 4 38 11 24 8 32 17 32 36 0 29 -10 37 -65 51 -39 11 -64 45 -32 45
22 0 47 34 47 64 0 19 -7 29 -26 36 -58 22 -161 -22 -132 -57 7 -8 23 -19 35
-24 20 -7 22 -12 12 -27 -6 -10 -24 -24 -40 -31 -25 -11 -32 -9 -71 16 -24 15
-45 29 -48 31 -3 2 3 8 13 14 14 7 17 17 12 39 -8 35 1 67 18 65 7 0 13 4 15
9 1 6 -10 10 -25 10 -22 0 -32 -8 -45 -35 -15 -28 -18 -31 -18 -13 0 12 5 25
10 28 17 10 11 35 -8 35 -10 0 -28 -9 -40 -20 -12 -12 -22 -16 -22 -9 0 7 -13
10 -33 7 -20 -2 -39 2 -46 10 -8 8 -21 10 -34 6 -33 -10 -34 -14 -8 -35 27
-22 51 -25 52 -6 0 6 4 3 9 -8 14 -33 11 -36 -20 -20 -17 9 -30 13 -30 11 0
-11 -82 25 -114 49 -18 14 -38 25 -44 25 -6 0 -17 10 -23 23 -7 12 -18 25 -25
29 -20 13 -10 200 17 301 8 29 14 37 25 33 9 -3 50 -8 92 -11 105 -7 205 -25
217 -39 6 -6 29 -12 52 -13 24 0 49 -7 58 -17 20 -20 24 -19 -96 0 -71 11
-108 12 -133 5 -23 -6 -48 -6 -71 0 -31 9 -75 -1 -75 -16 0 -2 25 -9 55 -15
42 -9 63 -9 89 1 25 9 38 10 48 2 19 -16 96 -35 109 -28 7 5 6 12 -2 21 -10
12 -9 13 5 8 10 -4 15 -12 12 -20 -3 -7 0 -15 7 -18 7 -2 -1 -5 -18 -5 -35 -1
-63 -16 -51 -28 4 -4 53 -9 109 -9 56 -1 126 -7 156 -13 58 -12 77 -21 45 -21
-10 0 -26 -5 -34 -10 -26 -17 8 -30 85 -30 39 0 97 -4 130 -9 33 -5 88 -12
121 -15 84 -8 98 -14 79 -33 -20 -20 -20 -23 20 -66 l34 -37 -34 0 c-19 0 -37
-4 -40 -10 -3 -5 -2 -10 4 -10 6 0 8 -7 5 -15 -8 -19 10 -20 28 -1 9 8 20 11
29 6 8 -4 62 -10 121 -14 116 -7 167 -14 183 -27 6 -4 25 -7 43 -7 18 1 41 -7
51 -16 13 -12 27 -15 45 -10 30 7 34 -3 8 -22 -16 -13 -16 -15 7 -34 26 -22
46 -14 46 18 0 14 10 17 60 16 156 -4 208 -14 176 -34 -21 -12 -5 -44 17 -35
80 35 164 38 337 13 44 -6 126 -12 183 -14 l102 -3 0 25 c0 17 -6 24 -18 24
-11 0 -27 14 -37 34 -15 27 -37 43 -104 75 -85 40 -203 91 -271 116 -85 32
-131 56 -125 64 9 15 53 3 140 -39 103 -50 174 -80 190 -80 6 0 59 -23 116
-51 83 -41 100 -53 84 -59 -19 -7 -19 -7 3 -19 l22 -12 0 106 c0 69 -4 104
-10 100 -6 -4 -8 -11 -5 -16 4 -5 -3 -5 -18 0 -14 6 -27 7 -30 4 -3 -2 -14 0
-24 6 -16 9 -16 10 -1 11 15 0 16 4 7 26 -12 33 -11 34 37 38 21 2 40 9 42 15
4 13 -2 14 -81 13 -71 -1 -90 -13 -76 -49 9 -25 9 -26 -15 -9 -14 9 -37 16
-51 16 -17 0 -25 6 -26 18 -1 9 -2 26 -3 37 -2 28 -64 60 -99 51 -19 -4 -27
-12 -25 -24 3 -15 -9 -17 -103 -19 -74 -2 -123 -9 -163 -23 -60 -20 -96 -15
-96 15 0 23 -37 27 -72 8 -44 -23 -80 -24 -96 -1 -18 24 -40 23 -96 -7 -59
-31 -74 -31 -86 0 -17 46 -78 26 -115 -39 -5 -9 -26 -19 -45 -22 -19 -3 -40
-7 -47 -9 -6 -2 -14 3 -17 11 -6 16 -47 35 -91 40 -16 2 -68 9 -115 15 -69 8
-92 15 -120 38 -50 40 -68 48 -127 56 -29 4 -58 14 -68 25 -15 16 -14 18 7 22
35 7 377 1 428 -7 64 -10 94 -13 185 -16 62 -2 83 -7 93 -20 11 -16 81 -31
137 -30 11 0 72 0 135 -1 139 -3 320 -1 538 3 140 3 161 2 157 -11 -4 -8 -3
-11 1 -7 4 4 13 2 20 -4 7 -6 30 -12 51 -13 21 -2 37 -7 36 -13 -2 -7 6 -7 22
1 34 15 31 36 -5 36 -31 0 -37 9 -20 26 6 6 -34 9 -108 9 -64 0 -148 3 -187 7
-38 5 -112 10 -164 12 -99 5 -152 25 -70 27 87 2 119 5 125 12 4 4 16 7 26 7
20 0 25 18 6 25 -7 3 -65 7 -128 10 -63 3 -153 7 -200 9 -155 8 -475 14 -483
9 -4 -2 0 -11 8 -20 13 -12 46 -15 181 -16 122 0 167 -4 175 -14 8 -9 16 -10
29 -3 24 13 90 13 90 0 0 -5 13 -10 30 -10 21 0 28 -4 24 -14 -3 -7 2 -16 11
-20 9 -3 14 -10 10 -15 -3 -6 -12 -8 -20 -5 -7 3 -85 7 -172 8 -186 4 -173 2
-173 20 0 17 -58 26 -165 27 -43 0 -84 3 -90 7 -5 3 -22 7 -37 7 -15 0 -30 4
-34 8 -4 4 24 7 62 7 67 1 68 1 42 16 -51 27 -40 37 68 64 88 23 118 25 108 9
-10 -16 16 -29 40 -20 12 4 46 7 76 5 30 -1 60 2 65 6 12 9 107 21 195 25 65
3 127 11 165 21 18 4 18 4 3 -6 -28 -17 -168 -41 -225 -38 -58 3 -72 -12 -24
-26 32 -9 218 16 253 35 17 9 74 21 168 35 74 11 350 -1 350 -15 0 -3 -47 -6
-104 -7 -99 -1 -108 -3 -180 -38 -42 -20 -76 -41 -76 -47 0 -18 31 -22 49 -5
10 9 24 16 33 16 8 0 28 10 42 21 23 18 45 22 142 27 l114 5 0 28 c0 31 -13
35 -83 30 -16 -1 -38 4 -50 12 -33 21 -70 25 -129 15 -29 -5 -100 -11 -158
-13 -58 -2 -139 -8 -180 -14 -41 -6 -100 -10 -130 -10 l-55 1 50 14 c28 7 70
14 94 14 25 0 52 6 60 14 23 20 111 36 194 36 76 -1 201 -14 230 -26 23 -8 23
18 0 38 -25 21 -164 68 -253 86 -112 22 -212 28 -356 21 -119 -5 -135 -9 -209
-41 -85 -37 -145 -53 -145 -39 0 5 7 11 15 15 8 3 15 11 15 17 0 22 -105 5
-149 -24 -25 -17 -54 -27 -76 -27 -19 0 -35 -4 -35 -10 0 -22 88 -15 121 9 34
26 57 27 55 4 -1 -21 -25 -35 -88 -54 -57 -16 -64 -34 -10 -25 64 12 130 38
125 51 -3 8 12 14 44 17 26 3 77 17 113 32 104 43 169 58 220 50 l45 -7 -85
-17 c-101 -20 -229 -75 -213 -91 7 -7 25 -3 59 14 27 13 74 30 104 37 30 7 66
16 80 20 14 4 34 4 45 0 28 -10 60 7 45 25 -6 7 -7 16 -2 19 13 8 193 -2 205
-12 7 -5 30 -10 52 -10 37 -1 124 -23 170 -42 12 -5 -20 -8 -85 -8 -58 0 -97
2 -87 5 21 5 23 23 2 24 -106 5 -187 -1 -240 -19 -33 -11 -90 -23 -126 -26
-69 -5 -165 -38 -162 -54 2 -9 -33 -14 -167 -27 -19 -1 -78 -14 -130 -28 -52
-13 -119 -25 -149 -26 -30 0 -63 -3 -73 -7 -12 -3 -20 1 -25 13 -4 10 -14 23
-22 30 -13 10 -7 12 36 13 57 0 77 15 48 37 -17 12 -17 13 -2 13 9 0 16 6 14
12 -1 8 8 12 25 10 36 -4 59 9 32 18 -16 6 -14 9 16 22 19 8 57 29 84 47 28
17 58 31 67 31 24 0 35 20 18 31 -20 12 -43 3 -122 -48 -38 -24 -89 -52 -115
-61 -49 -18 -64 -37 -35 -45 14 -4 13 -5 -4 -6 -13 0 -23 -7 -23 -13 0 -10
-30 -14 -110 -15 -91 -2 -110 0 -110 12 0 11 -12 15 -45 15 -33 0 -45 -4 -45
-15 0 -11 12 -15 43 -16 58 -1 23 -14 -63 -24 -36 -4 -78 -9 -93 -10 -16 -2
-38 0 -50 5 -25 10 -28 9 57 16 45 4 74 23 54 35 -9 6 -6 9 9 9 25 0 41 19 24
29 -6 4 -40 4 -74 -1 -34 -5 -89 -7 -122 -4 -33 3 -120 9 -192 12 -115 6 -133
5 -133 -8 0 -9 -7 -21 -15 -28 -18 -15 -20 0 -2 20 6 8 2 6 -11 -4 -27 -23
-42 -13 -19 12 10 10 15 21 12 23 -2 3 37 6 88 7 50 1 126 5 167 9 41 3 83 6
93 6 120 -6 207 -2 240 12 37 15 183 45 222 45 42 -1 -10 -17 -92 -30 -46 -7
-83 -16 -83 -21 0 -9 12 -12 45 -10 l20 1 -20 -9 c-11 -6 -37 -12 -57 -16 -25
-4 -38 -11 -38 -22 0 -9 6 -13 15 -9 8 3 55 10 103 16 105 13 162 27 182 46 9
7 40 18 70 25 30 6 80 26 110 43 30 18 72 41 93 51 20 11 37 22 37 26 0 3 20
17 45 30 25 13 45 27 45 31 0 5 9 8 21 8 27 0 61 19 54 29 -12 20 -149 -36
-207 -84 -15 -13 -44 -29 -65 -35 -21 -7 -65 -25 -98 -41 -56 -27 -160 -52
-125 -30 21 14 6 24 -48 32 l-47 7 50 0 c75 0 76 1 73 19 -2 10 2 18 7 19 50
5 146 49 215 99 25 18 65 42 90 53 27 12 70 46 102 81 39 43 63 61 80 61 17 0
51 -26 113 -85 85 -82 110 -96 131 -75 14 14 138 -4 170 -24 13 -9 88 -29 166
-45 123 -26 158 -29 253 -25 149 6 155 7 155 21 0 9 -40 11 -147 11 -125 -1
-166 3 -263 25 -63 14 -133 35 -155 45 -22 11 -74 23 -115 27 -101 10 -116 17
-186 89 -48 51 -68 65 -101 71 -54 9 -86 -8 -141 -74 -30 -36 -65 -62 -113
-86 -38 -18 -83 -45 -101 -59 -60 -45 -128 -69 -223 -76 -61 -5 -117 -17 -175
-38 -85 -31 -88 -32 -338 -38 -139 -3 -261 -7 -270 -8 -15 -1 -16 7 -13 64 8
120 6 148 -12 168 -19 21 -19 26 13 142 10 36 28 108 40 160 13 52 31 112 41
132 11 21 19 44 19 53 0 9 10 35 21 58 16 30 24 71 30 147 13 175 30 343 35
352 3 4 22 8 42 8 41 0 100 26 116 52 6 11 7 43 0 97 -6 55 -6 85 1 93 7 8 6
9 -2 4 -8 -5 -13 -1 -13 11 -1 68 -16 337 -25 433 -20 223 -24 329 -13 336 4
3 8 -31 8 -76 0 -78 10 -169 31 -275 5 -27 11 -68 13 -90 17 -173 43 -291 78
-359 11 -20 -2 -55 -35 -93 -26 -29 -16 -55 19 -49 25 5 36 15 70 63 15 20 13
28 -19 105 -49 117 -49 118 -54 168 -2 25 -13 101 -23 170 -13 84 -15 127 -8
131 7 4 5 15 -5 30 -16 25 -23 73 -32 229 -3 52 -10 113 -16 135 -6 22 -14 59
-19 83 -6 24 -12 47 -15 52 -3 5 -6 25 -7 45 -1 20 -5 38 -10 41 -5 3 -5 11 0
17 11 13 21 322 11 332 -4 3 2 34 13 68 17 56 18 76 10 207 -4 80 -7 147 -6
149 2 1 13 -6 25 -18 28 -26 69 -28 69 -3 0 17 -65 60 -82 54 -4 -1 -8 7 -8
19 0 14 5 19 13 16 22 -8 39 8 53 49 9 26 10 40 3 43 -6 2 -14 14 -19 27 -5
13 -16 24 -24 24 -10 0 -14 10 -14 29 1 28 2 29 20 11 25 -23 48 -29 76 -19
32 12 27 34 -13 58 -19 11 -35 28 -35 37 0 12 3 14 13 6 8 -7 17 -7 30 2 24
18 21 33 -10 53 -32 20 -63 52 -63 65 0 5 11 2 24 -7 21 -14 25 -14 46 3 26
21 21 38 -16 52 -29 11 -31 26 -4 33 11 3 21 17 25 33 5 26 40 143 68 232 12
34 25 40 45 20 9 -9 15 -9 24 0 13 13 5 23 -27 36 -6 2 -5 9 3 17 9 10 15 10
24 1 17 -17 38 -15 38 3 0 8 -7 15 -15 15 -8 0 -15 4 -15 9 0 5 10 8 23 6 12
-2 42 -7 66 -11 23 -4 46 -3 50 2 9 13 49 34 64 34 12 0 16 -40 8 -83 0 -4
-25 -5 -53 -2 -69 8 -86 -3 -63 -38 16 -25 16 -26 -20 -42 -58 -28 -55 -43 15
-55 30 -5 35 -9 33 -30 -1 -14 -4 -83 -8 -155 -4 -71 -12 -135 -17 -142 -5 -6
-11 -31 -13 -55 -12 -128 -16 -142 -58 -180 -22 -21 -48 -38 -58 -38 -24 0
-32 -15 -33 -64 -1 -36 -5 -43 -33 -56 -38 -17 -43 -40 -10 -40 33 0 79 42 83
76 2 20 23 49 64 91 33 34 60 70 60 80 1 10 7 36 16 58 8 22 19 113 25 204 11
158 21 217 50 289 12 28 12 34 0 42 -8 4 -20 6 -27 3 -12 -4 -30 14 -22 22 2
3 19 0 37 -5 59 -17 72 -1 69 83 -3 66 -5 72 -25 75 -29 4 -29 10 -1 39 12 13
34 45 48 70 31 57 67 79 145 88 78 9 93 18 117 73 11 26 39 72 61 101 37 50
41 61 44 124 4 77 -6 100 -42 91 -40 -10 -36 12 8 43 56 39 108 104 146 179
23 46 31 80 37 145 19 236 -98 418 -325 507 -57 22 -82 26 -181 26 -85 1 -130
-4 -173 -17 -126 -40 -249 -157 -297 -284 -44 -113 -35 -264 22 -377 27 -55
87 -128 99 -121 5 4 9 -1 9 -9 0 -8 12 -24 26 -35 l27 -21 -84 -85 c-91 -91
-108 -119 -109 -178 0 -24 -9 -50 -24 -70 -13 -18 -31 -57 -40 -87 -22 -77
-41 -103 -67 -89 -21 11 -49 32 -75 57 -7 7 -34 20 -59 29 -34 11 -44 19 -41
32 50 162 53 419 6 682 -6 30 -10 93 -10 140 0 90 -22 197 -44 214 -7 6 -25
31 -40 57 -33 56 -71 87 -162 129 -86 39 -142 56 -219 63 -104 11 -138 12
-215 6z m-264 -85 c-11 -8 -24 -15 -29 -15 -21 0 -97 -63 -116 -96 -24 -40
-30 -99 -13 -130 6 -11 13 -42 16 -69 19 -165 19 -177 5 -185 -19 -13 -27 -4
-34 40 -4 22 -11 42 -16 46 -5 3 -9 15 -9 27 0 13 -7 50 -16 82 -28 107 -34
175 -19 205 20 39 118 104 144 95 11 -3 29 -2 38 4 10 6 29 10 43 10 24 0 24
0 6 -14z m1888 -15 c116 -40 228 -142 272 -249 25 -57 28 -79 28 -171 1 -99
-1 -109 -32 -173 -44 -89 -119 -165 -202 -204 -156 -72 -150 -70 -150 -48 0
24 -25 28 -60 10 -28 -15 -36 -15 -93 0 -96 24 -167 63 -228 125 -68 70 -102
128 -125 219 -58 223 110 468 347 510 70 13 176 4 243 -19z m-1998 -144 c-4
-20 -2 -37 4 -41 11 -7 4 -25 -10 -25 -16 0 -22 41 -10 71 17 39 24 37 16 -5z
m584 -76 c0 -5 -7 -10 -15 -10 -8 0 -15 5 -15 10 0 6 7 10 15 10 8 0 15 -4 15
-10z m-930 -48 c0 -7 -9 -30 -20 -52 -23 -44 -27 -138 -8 -173 23 -43 25 -80
6 -99 -10 -10 -20 -18 -22 -18 -3 0 -21 17 -40 38 -81 85 -68 259 23 326 32
24 35 24 47 8 7 -9 14 -23 14 -30z m870 -31 c0 -4 18 -8 40 -8 22 0 43 4 46 8
15 25 133 -16 184 -64 l33 -31 -28 -12 c-37 -15 -45 -40 -29 -86 7 -20 10 -38
8 -41 -3 -3 1 -18 9 -34 11 -21 12 -34 5 -47 -14 -25 5 -44 27 -26 8 7 15 19
15 26 0 25 18 15 24 -14 4 -17 -3 -54 -18 -98 -13 -39 -27 -90 -31 -113 -4
-23 -14 -45 -22 -48 -8 -3 -40 0 -71 6 -31 7 -68 14 -82 17 -56 10 -67 14 -96
39 -30 26 -64 30 -72 8 -2 -7 3 -13 11 -13 8 0 17 -6 20 -14 6 -14 92 -76 106
-76 11 0 61 -61 72 -87 11 -28 2 -52 -27 -78 -25 -22 -44 -95 -25 -95 6 0 11
-4 11 -9 0 -4 -10 -8 -22 -7 -25 1 -35 27 -37 89 -1 29 -6 39 -24 46 -13 5
-29 16 -37 26 -17 20 -70 44 -135 60 -40 9 -51 16 -53 34 -2 13 1 28 7 34 6 6
11 23 11 38 0 15 5 31 10 34 17 11 11 37 -10 42 -22 6 -26 23 -9 40 16 16 2
33 -27 33 -29 0 -32 30 -8 78 8 18 16 45 16 62 1 22 4 28 12 20 16 -16 44 -12
56 9 5 11 11 50 13 88 4 77 27 130 62 143 12 5 26 14 30 19 7 13 35 15 35 2z
m330 -169 c13 -13 13 -14 -3 -8 -10 3 -28 6 -38 6 -11 0 -18 4 -15 9 4 5 0 12
-6 15 -7 3 1 3 17 -1 17 -3 37 -12 45 -21z m150 20 c0 -13 -12 -22 -22 -16
-10 6 -1 24 13 24 5 0 9 -4 9 -8z m-170 -63 c7 -11 9 -23 6 -26 -8 -9 -36 17
-36 33 0 21 18 17 30 -7z m110 -3 c0 -3 -4 -8 -10 -11 -5 -3 -10 -1 -10 4 0 6
5 11 10 11 6 0 10 -2 10 -4z m96 -108 c19 -135 17 -242 -6 -308 -18 -50 -18
-56 -3 -67 10 -8 16 -26 15 -47 -2 -50 -41 -155 -75 -203 -23 -32 -27 -46 -19
-56 15 -18 -23 -74 -76 -111 -45 -31 -151 -51 -211 -40 -100 19 -259 89 -346
154 -28 21 -85 55 -126 75 -71 35 -77 37 -159 33 -83 -4 -170 -34 -170 -58 0
-12 41 -24 49 -13 10 15 85 33 139 33 53 0 149 -39 135 -55 -5 -4 -3 -5 4 -1
16 9 59 -14 103 -56 20 -18 39 -34 43 -34 5 -1 28 -12 53 -25 42 -23 56 -39
34 -39 -5 0 -10 -8 -10 -17 0 -18 50 -53 75 -53 7 0 16 -11 19 -24 4 -17 15
-26 35 -31 32 -7 73 -55 48 -55 -8 0 -27 -10 -43 -22 -15 -13 -25 -18 -21 -12
12 20 -22 53 -52 51 -16 -1 -27 -7 -24 -13 2 -5 -6 -19 -18 -30 l-21 -19 7 43
c6 37 5 42 -13 42 -11 0 -26 -14 -38 -35 -10 -19 -22 -35 -27 -35 -15 0 -46
-44 -47 -66 0 -23 41 -51 59 -40 6 4 11 0 11 -11 0 -42 42 -55 86 -27 13 9 27
15 29 12 3 -2 5 -28 6 -56 1 -29 4 -52 5 -52 2 0 13 8 24 17 23 20 24 31 8 85
-14 46 -43 63 -73 42 -27 -19 -33 -18 -37 9 -2 18 -8 22 -36 19 -23 -1 -32 2
-32 13 0 22 27 30 56 16 20 -9 30 -8 46 3 18 13 24 12 50 -7 l29 -21 47 24
c62 33 114 40 182 23 27 -7 36 -15 38 -33 2 -14 9 -31 15 -38 8 -10 3 -20 -18
-40 -24 -22 -26 -27 -12 -30 9 -2 26 6 39 17 12 12 24 21 27 21 3 0 6 -24 6
-53 -1 -49 -2 -52 -27 -53 -14 -1 -39 -11 -56 -22 -16 -12 -32 -22 -35 -22 -3
0 -18 -5 -34 -11 -22 -8 -24 -12 -13 -19 18 -11 46 -4 82 22 18 12 35 17 52
12 38 -9 80 36 71 76 -8 36 11 100 30 100 24 0 28 21 6 27 -22 5 -27 18 -13
27 14 8 52 -24 52 -43 0 -23 25 -45 41 -36 7 5 9 23 5 53 -5 35 -2 50 11 64
25 28 3 45 -30 24 -13 -9 -31 -14 -38 -11 -8 3 -37 -6 -64 -20 l-50 -25 -18
24 c-20 27 -98 50 -151 44 -20 -2 -33 1 -33 8 0 6 9 9 19 6 14 -3 18 1 18 26
0 33 -9 43 -60 62 -59 22 -141 62 -136 67 2 3 26 -5 53 -17 65 -29 101 -35
218 -32 113 3 114 4 200 89 42 43 66 75 79 113 15 43 21 50 30 38 6 -8 33 -25
60 -39 55 -27 65 -42 43 -67 -14 -15 -14 -21 -3 -44 15 -28 6 -55 -14 -43 -8
5 -11 4 -7 -2 4 -6 -23 -41 -59 -78 -52 -53 -63 -69 -54 -80 10 -12 28 2 102
76 84 84 92 90 122 83 35 -8 72 -40 78 -69 2 -11 11 -19 21 -19 20 2 22 -12 3
-23 -7 -4 -20 -22 -29 -39 -9 -17 -23 -36 -31 -43 -9 -7 -13 -18 -10 -23 3 -5
3 -25 0 -43 -5 -27 -15 -38 -42 -51 -36 -17 -59 -47 -49 -64 8 -13 -42 -81
-76 -102 -37 -23 -38 -66 -1 -79 27 -10 67 23 58 47 -7 18 19 61 52 87 12 10
27 27 33 38 12 24 2 46 -14 30 -16 -16 -27 -13 -21 4 4 8 17 15 30 15 17 0 31
12 49 39 13 22 32 44 41 49 12 7 15 18 12 43 -5 28 3 60 18 78 2 2 12 -7 23
-20 19 -23 19 -23 -15 -74 -19 -27 -34 -55 -34 -61 0 -18 -69 -151 -85 -164
-8 -7 -15 -16 -15 -21 0 -5 -25 -47 -55 -94 -30 -46 -55 -88 -55 -92 -1 -15
-36 -48 -65 -62 -42 -19 -165 -24 -165 -6 0 8 8 16 19 20 27 8 55 41 42 50
-16 10 -96 -48 -99 -72 -6 -40 -42 -61 -125 -72 -92 -13 -157 -14 -157 -3 0 4
-60 7 -134 7 -74 0 -137 3 -141 7 -4 3 2 15 13 26 19 19 22 19 49 5 38 -21
198 -18 235 3 12 8 -3 34 -21 35 -9 0 11 7 44 15 68 16 162 62 217 105 28 22
44 28 63 23 28 -7 30 -2 15 27 -16 30 -51 22 -96 -20 -82 -79 -203 -119 -319
-106 -42 5 -63 12 -73 26 -7 10 -27 26 -43 35 -24 12 -28 18 -19 29 25 31 7
59 -58 91 -70 34 -79 49 -29 48 17 0 35 4 39 10 5 7 8 3 8 -8 0 -31 29 -57 51
-46 14 8 19 6 23 -8 8 -24 62 -18 76 9 12 21 0 32 -24 23 -10 -4 -16 -1 -16 9
0 8 -7 20 -15 27 -13 10 -19 10 -35 -5 -20 -18 -20 -17 -20 18 0 41 -12 46
-48 21 -29 -20 -47 -14 -47 16 0 13 -5 25 -11 27 -19 6 -44 -26 -44 -56 0 -18
-8 -34 -22 -43 -22 -15 -22 -15 21 -46 24 -18 51 -32 60 -32 39 -1 58 -35 37
-68 -9 -15 8 -39 35 -47 26 -9 26 -61 -1 -75 -11 -6 -21 -9 -21 -8 -1 2 -3 16
-5 33 -2 16 -8 31 -14 33 -5 2 -8 8 -4 13 8 13 -10 11 -24 -3 -16 -16 -16 4 1
21 6 8 7 11 1 8 -16 -9 -72 52 -56 62 9 6 8 12 -8 26 -18 16 -20 16 -26 1 -3
-9 -14 -16 -24 -16 -23 0 -46 -26 -28 -32 9 -4 10 -9 2 -19 -18 -25 -16 -74 4
-92 11 -10 23 -17 28 -16 23 4 33 -3 36 -23 4 -31 48 -39 48 -9 0 11 5 23 10
26 15 9 1 -47 -14 -60 -19 -16 -27 -55 -10 -48 23 9 16 -33 -11 -64 -20 -23
-24 -25 -25 -10 0 10 -6 20 -14 23 -11 4 -12 11 -3 35 9 22 9 34 0 47 -7 9
-19 31 -28 47 -8 17 -29 39 -45 48 -27 17 -50 64 -50 107 0 8 -9 21 -20 28
-11 7 -20 19 -20 28 0 8 -15 21 -32 29 -45 18 -103 79 -93 97 5 7 5 10 0 6
-11 -10 -61 56 -75 98 -12 35 -24 43 -36 23 -3 -6 -14 2 -25 20 -10 17 -23 31
-28 31 -5 0 -7 -48 -5 -107 2 -60 6 -150 7 -201 2 -68 7 -96 18 -103 7 -5 9
-9 3 -9 -7 0 -10 -51 -10 -152 1 -141 0 -153 -18 -156 -10 -2 -22 0 -27 5 -5
5 -12 169 -16 364 l-6 356 32 6 c28 6 31 10 25 32 -3 14 -3 32 0 41 5 13 9 14
22 4 22 -19 39 1 25 28 -17 32 -13 70 9 92 22 22 25 36 11 44 -27 17 -71 -45
-71 -99 0 -24 -22 -54 -41 -55 -12 0 -19 80 -10 97 5 10 15 53 22 96 9 59 18
83 37 102 14 14 28 25 32 25 4 0 19 29 34 64 26 60 31 65 74 81 114 40 157 44
165 16 3 -12 17 -21 38 -26 99 -19 180 -50 227 -85 28 -21 59 -43 69 -49 28
-15 149 -41 191 -41 20 0 46 -7 56 -15 11 -8 28 -15 38 -15 10 0 18 -4 18 -10
0 -19 -79 -11 -99 9 -14 14 -27 18 -45 13 -73 -20 6 -61 127 -67 45 -2 59 1
66 14 11 21 -4 60 -26 68 -10 4 -25 16 -34 27 -12 14 -31 20 -70 22 -141 8
-197 23 -254 71 -17 16 -40 33 -51 40 -46 28 55 -6 126 -42 41 -21 83 -43 93
-47 11 -5 54 -8 97 -7 53 2 83 -1 94 -10 20 -17 74 -5 104 23 39 35 90 137
101 201 6 33 13 110 15 170 2 66 10 124 19 145 15 36 17 36 33 -18 7 -24 24
-2 24 32 0 46 -21 72 -47 58 -37 -20 -56 -79 -64 -202 -4 -63 -12 -135 -18
-160 -5 -25 -13 -58 -16 -74 -3 -15 -9 -26 -12 -23 -3 4 -14 2 -24 -4 -27 -14
-25 6 7 75 22 49 26 69 25 155 -1 67 4 110 14 135 8 19 15 45 15 56 0 19 54
80 70 80 4 0 17 18 29 41 13 22 26 38 29 35 3 -3 11 -47 18 -98z m-1343 42
c-6 -22 -18 -26 -28 -10 -7 11 16 40 27 34 3 -2 4 -13 1 -24z m1252 20 c3 -5
-1 -10 -10 -10 -9 0 -13 5 -10 10 3 6 8 10 10 10 2 0 7 -4 10 -10z m-675 -30
c0 -5 -4 -10 -10 -10 -5 0 -10 5 -10 10 0 6 5 10 10 10 6 0 10 -4 10 -10z
m-370 -87 c0 -9 18 -33 40 -55 49 -46 40 -50 -12 -5 -34 29 -68 100 -39 83 6
-4 11 -14 11 -23z m1660 -183 c-6 -10 -28 -39 -49 -64 -51 -58 -59 -85 -35
-103 11 -8 28 -11 39 -8 11 4 31 9 45 12 14 3 45 20 70 38 25 18 73 46 107 63
34 16 75 39 91 51 33 23 42 26 42 12 0 -5 -24 -26 -52 -47 -68 -48 -178 -153
-178 -170 0 -6 6 -14 14 -17 10 -4 27 11 50 42 31 44 117 125 134 127 4 0 23
8 42 17 48 21 53 11 10 -21 -19 -15 -64 -55 -100 -89 -36 -34 -78 -73 -94 -86
-20 -17 -25 -27 -16 -32 7 -5 37 16 78 56 104 101 137 127 149 115 8 -8 -53
-73 -132 -139 -62 -51 -81 -74 -71 -84 3 -4 27 15 54 41 49 48 132 104 132 88
0 -19 -35 -46 -243 -187 -72 -49 -152 -111 -177 -136 l-45 -45 -78 49 c-70 44
-76 51 -63 66 7 9 24 48 37 86 13 39 29 78 37 87 13 16 27 59 39 121 6 31 150
190 165 181 4 -3 4 -14 -2 -24z m132 -9 c26 -9 48 -19 48 -22 0 -4 -22 -16
-49 -28 -28 -11 -53 -26 -56 -31 -9 -14 -101 -60 -120 -60 -27 0 -16 30 29 78
24 26 49 57 55 70 9 17 18 21 29 17 9 -4 38 -15 64 -24z m386 -9 c-5 -15 -161
-152 -166 -147 -7 7 141 154 156 154 8 1 12 -3 10 -7z m72 4 c0 -14 -190 -196
-204 -196 -10 0 -26 -4 -36 -10 -15 -8 -17 -6 -13 8 2 10 19 24 36 30 18 7 69
48 115 92 72 70 102 92 102 76z m-151 -15 c-1 -11 -60 -53 -66 -47 -9 9 34 53
52 53 8 0 15 -3 14 -6z m-1184 -77 c-16 -55 -19 -58 -41 -50 -21 8 -11 54 18
79 32 27 38 20 23 -29z m1345 31 c0 -8 -24 -38 -52 -68 -29 -29 -65 -67 -81
-84 -24 -28 -34 -32 -90 -35 -34 -2 -71 -8 -82 -12 -16 -6 -15 -3 5 13 14 11
41 21 60 22 61 2 77 12 150 97 72 82 90 95 90 67z m-16 -77 c-5 -7 -21 -32
-36 -55 -16 -23 -35 -57 -43 -77 -19 -44 -33 -52 -114 -60 -68 -6 -129 -31
-142 -56 -4 -8 -15 -36 -24 -61 -24 -68 -74 -120 -122 -125 -21 -2 -47 -6 -58
-7 -11 -2 -28 1 -38 5 -16 8 -16 10 0 32 10 13 22 22 28 20 6 -3 19 11 29 31
11 19 23 35 28 35 4 0 8 8 8 18 -1 12 -10 6 -35 -23 l-34 -40 1 31 c1 26 8 34
47 55 25 13 70 43 98 67 29 23 53 39 53 36 0 -4 9 1 19 10 12 11 21 14 26 7 4
-7 14 -6 29 4 19 13 62 20 148 24 9 1 42 33 73 71 50 62 79 91 59 58z m-1890
-14 c5 -13 9 -14 21 -4 49 41 235 -32 235 -92 0 -10 8 -30 17 -45 17 -25 16
-25 -2 -16 -11 6 -38 19 -59 29 -22 11 -58 29 -80 41 -23 11 -69 27 -103 34
-54 11 -63 16 -63 34 0 35 23 48 34 19z m447 -106 c0 -10 2 -10 6 0 5 13 23
17 23 4 0 -12 -51 -64 -57 -58 -3 3 0 12 7 21 7 9 10 18 6 22 -3 3 -6 1 -6 -5
0 -7 -5 -12 -10 -12 -7 0 -7 6 0 20 12 22 30 27 31 8z m94 -67 c-3 -6 -11 -11
-17 -11 -6 0 -6 6 2 15 14 17 26 13 15 -4z m-1015 5 c0 -3 -4 -8 -10 -11 -5
-3 -10 -1 -10 4 0 6 5 11 10 11 6 0 10 -2 10 -4z m1509 -188 c75 -43 116 -74
137 -106 21 -31 35 -90 24 -97 -11 -7 -40 35 -40 58 0 25 -53 77 -78 77 -11 0
-22 7 -26 15 -3 8 -11 15 -18 15 -31 0 -88 22 -88 33 0 12 19 37 28 37 3 0 30
-14 61 -32z m251 13 c0 -11 -11 -33 -25 -50 -19 -22 -24 -36 -19 -55 3 -14 4
-26 0 -26 -5 0 -36 54 -36 64 0 7 70 86 76 86 2 0 4 -9 4 -19z m172 -283 c-6
-6 -15 -8 -19 -4 -4 4 -1 11 7 16 19 12 27 3 12 -12z m-838 -83 c-4 -8 -10
-15 -15 -15 -5 0 -9 7 -9 15 0 8 7 15 15 15 9 0 12 -6 9 -15z m-1081 -60 c4
-8 2 -17 -3 -20 -6 -4 -10 3 -10 14 0 25 6 27 13 6z m47 -64 c0 -6 -4 -13 -10
-16 -5 -3 -10 1 -10 9 0 9 5 16 10 16 6 0 10 -4 10 -9z m107 -103 c69 -71 83
-94 83 -136 0 -22 9 -38 31 -56 54 -46 82 -95 75 -135 -4 -25 -1 -40 11 -53
12 -14 13 -21 4 -31 -8 -11 -8 -17 2 -25 37 -31 147 44 147 99 0 20 4 29 13
26 6 -2 11 -10 9 -16 -1 -8 2 -9 10 -4 7 4 42 9 78 9 36 1 84 5 108 9 28 5 42
4 42 -3 0 -6 -6 -9 -12 -7 -7 3 -19 1 -26 -3 -10 -7 -9 -26 3 -96 9 -49 20
-97 26 -107 5 -11 6 -19 2 -19 -4 0 -2 -5 5 -12 16 -16 16 -41 0 -32 -7 4 -5
-2 5 -13 9 -11 17 -27 17 -36 0 -9 7 -35 17 -58 13 -32 14 -46 5 -60 -10 -15
-9 -17 3 -13 8 4 15 1 15 -5 0 -6 -7 -11 -15 -11 -14 0 -85 135 -85 163 0 6
-11 47 -24 90 -29 90 -26 77 -26 125 0 20 -7 45 -15 56 -13 17 -15 17 -31 2
-15 -16 -14 -25 9 -134 34 -160 47 -203 69 -234 20 -29 25 -63 7 -52 -23 14
-155 317 -145 333 8 12 -14 61 -27 61 -6 0 -7 -3 -4 -7 4 -3 0 -14 -9 -24 -15
-16 -12 -27 31 -146 26 -70 51 -132 56 -137 5 -6 9 -19 9 -29 0 -16 -3 -17
-15 -7 -8 6 -17 21 -21 32 -3 12 -20 37 -38 55 -17 19 -35 41 -39 49 -9 17
-37 19 -37 3 0 -6 9 -23 20 -39 11 -15 17 -30 13 -33 -7 -7 -75 67 -114 124
-19 27 -29 35 -37 27 -13 -13 -4 -32 50 -104 52 -69 48 -80 -4 -13 -24 29 -53
64 -66 78 -12 14 -36 54 -53 90 -16 36 -34 73 -39 82 -5 9 -6 20 -3 23 4 3 18
-24 33 -62 17 -42 34 -68 45 -71 15 -2 16 1 10 20 -4 13 -8 34 -9 46 0 11 -4
19 -7 17 -9 -5 -23 35 -45 124 -10 40 -26 80 -36 89 -17 16 -20 16 -35 0 -16
-16 -16 -17 5 -17 15 0 20 -4 16 -15 -4 -8 1 -33 10 -55 23 -57 20 -62 -8 -15
-35 57 -64 152 -67 213 -3 54 -23 89 -35 59 -8 -23 3 -282 17 -367 6 -41 12
-148 13 -236 1 -145 -1 -164 -18 -182 -14 -16 -17 -30 -12 -55 4 -19 2 -45 -3
-58 -9 -21 -10 -19 -12 21 -1 25 -3 142 -4 260 -2 224 -10 402 -26 555 -17
172 -14 176 78 83z m1191 5 c-4 -22 -22 -20 -26 1 -2 10 3 16 13 16 10 0 15
-7 13 -17z m122 -16 c0 -7 -4 -17 -9 -22 -5 -6 -6 -28 -2 -50 5 -26 3 -47 -5
-60 -9 -15 -10 -32 -2 -65 16 -74 17 -199 2 -299 -14 -93 -14 -94 8 -118 27
-29 28 -101 1 -177 l-18 -48 -42 6 c-23 3 -45 1 -48 -4 -14 -22 -279 19 -308
48 -15 16 -31 77 -54 202 -8 49 -21 63 -39 45 -19 -18 -18 -44 3 -67 14 -15
14 -19 3 -16 -10 2 -14 -4 -12 -17 1 -11 5 -50 8 -87 l5 -67 -40 17 c-35 15
-43 25 -61 73 -11 31 -20 65 -20 77 0 11 -13 60 -29 109 -57 173 -52 196 41
209 35 4 70 7 78 6 8 0 33 4 55 10 22 6 43 11 48 10 4 -1 7 2 7 8 0 14 97 40
151 40 47 0 112 21 133 43 13 14 59 86 69 107 4 8 16 29 27 45 11 17 23 36 26
43 8 16 24 16 24 -1z m-1040 -120 c0 -33 -25 -12 -28 24 -2 32 -1 33 13 15 8
-11 15 -28 15 -39z m-383 -59 c-3 -7 -5 -2 -5 12 0 14 2 19 5 13 2 -7 2 -19 0
-25z m694 2 c17 0 28 -4 25 -9 -9 -14 -68 -20 -111 -12 l-40 8 35 10 c19 6 41
9 48 7 8 -2 27 -4 43 -4z m-734 -57 c-3 -10 -5 -4 -5 12 0 17 2 24 5 18 2 -7
2 -21 0 -30z m50 -35 c-3 -7 -5 -2 -5 12 0 14 2 19 5 13 2 -7 2 -19 0 -25z
m11 -153 c-3 -3 -9 2 -12 12 -6 14 -5 15 5 6 7 -7 10 -15 7 -18z m-1 -37 c-3
-8 -6 -5 -6 6 -1 11 2 17 5 13 3 -3 4 -12 1 -19z m2 -105 c0 -34 -3 -50 -7
-40 -7 17 -4 97 4 97 2 0 4 -26 3 -57z m-59 -29 c0 -33 -3 -43 -12 -38 -34 19
-36 24 -21 54 21 43 33 37 33 -16z m530 -90 c0 -8 -4 -12 -10 -9 -5 3 -10 13
-10 21 0 8 5 12 10 9 6 -3 10 -13 10 -21z m-488 -23 c3 -3 9 -57 12 -120 7
-135 -11 -143 -21 -10 -4 59 -11 91 -25 108 -10 13 -18 28 -18 33 0 9 39 1 52
-11z m434 1 c6 -4 13 -15 17 -24 3 -10 15 -18 26 -18 11 0 22 -4 26 -9 3 -6
27 -13 53 -17 26 -3 65 -14 87 -24 59 -26 75 -30 160 -39 62 -7 82 -14 104
-35 15 -14 34 -26 42 -26 21 0 109 -33 109 -41 0 -4 17 -13 38 -20 l37 -12
-29 -8 c-18 -5 -38 -3 -55 5 -14 7 -53 20 -86 30 -33 9 -79 26 -101 36 -23 10
-59 22 -80 26 -22 3 -46 12 -54 20 -26 22 -241 93 -297 97 -21 2 -26 8 -28 35
-3 31 8 40 31 24z m20 -111 c10 8 18 8 27 1 7 -6 22 -11 32 -11 43 -1 85 -14
85 -27 0 -8 5 -14 10 -14 6 0 29 -9 53 -19 23 -11 62 -24 87 -30 43 -9 205
-66 319 -111 47 -18 141 -76 141 -87 0 -10 -101 16 -210 54 -110 39 -138 45
-230 49 -58 3 -127 9 -155 14 -27 6 -63 12 -80 14 -39 6 -156 36 -175 46 -25
12 -17 34 15 40 27 5 29 9 28 40 -3 53 4 65 23 45 12 -12 19 -13 30 -4z m961
-53 c-3 -8 -6 -5 -6 6 -1 11 2 17 5 13 3 -3 4 -12 1 -19z m-199 -13 c157 -16
197 -36 166 -83 -8 -13 -12 -31 -9 -42 4 -13 -1 -22 -15 -30 -17 -9 -27 -6
-58 18 -55 42 -101 68 -162 91 -30 12 -68 30 -85 41 l-30 20 30 0 c17 0 90 -7
163 -15z m-926 -132 c-21 -31 -62 -112 -62 -124 0 -9 -38 -92 -135 -294 -34
-71 -74 -170 -89 -220 -33 -109 -86 -252 -119 -320 -14 -27 -28 -65 -32 -83
l-7 -32 -29 21 c-16 11 -29 26 -29 32 0 7 29 71 65 142 36 72 65 134 65 138 0
5 14 38 30 74 17 35 30 69 30 74 0 6 5 7 12 3 7 -4 8 -3 4 5 -16 26 126 337
236 516 17 28 37 60 45 73 7 12 18 22 24 22 6 0 2 -12 -9 -27z m929 -23 l24
-20 -30 12 c-39 15 -54 28 -33 28 9 0 26 -9 39 -20z m-747 -5 c3 -9 -15 -46
-43 -88 -75 -112 -93 -153 -178 -390 -7 -20 -17 -45 -22 -55 -5 -9 -16 -42
-26 -72 -16 -53 -29 -87 -44 -120 -4 -8 -27 -75 -50 -147 -23 -73 -47 -133
-52 -133 -5 0 -9 -15 -9 -34 0 -19 -9 -62 -19 -97 -11 -35 -22 -86 -26 -112
-6 -46 -8 -48 -24 -33 -10 9 -23 16 -29 16 -7 0 -12 3 -12 8 0 14 39 148 63
222 14 41 38 116 53 165 14 50 33 101 40 115 7 14 20 47 29 74 22 69 124 303
183 421 27 55 53 111 57 125 4 14 18 39 30 55 12 17 28 45 35 63 13 34 34 42
44 17z m177 -28 c-10 -9 -11 -8 -5 6 3 10 9 15 12 12 3 -3 0 -11 -7 -18z m203
1 c-12 -19 -7 -148 7 -164 8 -10 9 -32 4 -72 -4 -31 -9 -70 -10 -87 -8 -93
-17 -148 -26 -173 -14 -37 -69 -344 -69 -388 0 -19 30 -45 42 -38 10 7 8 -35
-6 -91 -15 -66 -68 -294 -72 -313 -4 -18 -8 -21 -18 -13 -17 14 -27 2 -50 -60
-16 -44 -19 -47 -59 -52 -23 -2 -51 -8 -61 -13 -15 -6 -17 -4 -11 7 6 11 5 12
-6 2 -17 -16 -33 -17 -23 -1 5 8 2 9 -9 5 -10 -3 -17 -3 -17 1 -2 34 -74 64
-92 38 -14 -20 -23 7 -23 67 1 34 13 107 27 162 15 55 36 147 48 205 12 58 23
112 24 120 2 8 6 38 10 65 3 28 18 98 33 158 20 79 31 107 42 107 12 0 13 2 3
8 -10 7 -9 27 8 103 27 123 48 199 49 176 1 -27 34 -17 43 13 4 14 16 68 28
120 12 54 28 100 38 108 22 17 156 17 146 0z m262 -78 c21 0 22 -3 14 -25 -5
-14 -7 -32 -3 -41 10 -26 -20 -12 -32 15 -7 16 -16 21 -32 18 -13 -2 -23 0
-23 4 0 5 -6 9 -12 9 -25 0 -39 -17 -44 -51 -2 -19 -7 -50 -11 -69 -4 -19 -8
-44 -9 -55 -2 -11 -8 -47 -13 -79 -5 -33 -10 -133 -10 -224 -1 -90 -3 -168 -6
-172 -2 -4 -7 -74 -9 -156 -7 -197 -19 -306 -52 -471 -8 -40 -14 -74 -14 -77
0 -3 -6 -4 -12 -2 -7 1 -10 1 -5 -1 13 -8 7 -56 -10 -75 -17 -19 -49 -23 -72
-9 -13 9 -12 76 3 209 6 45 53 238 62 253 4 7 32 182 69 428 8 51 16 96 19 99
11 10 -16 31 -31 25 -13 -5 -15 -2 -10 11 4 10 7 21 7 25 0 4 10 7 23 7 19 -1
22 4 23 39 1 46 13 135 19 145 2 4 7 36 10 71 8 95 12 118 26 135 10 12 9 18
-3 30 -13 13 -16 13 -27 0 -12 -14 -15 -13 -32 8 -35 44 -20 46 77 11 53 -19
107 -35 120 -35z m284 35 c0 -14 -4 -25 -10 -25 -5 0 -10 4 -10 9 0 5 -3 16
-6 25 -4 11 -1 16 10 16 10 0 16 -9 16 -25z m-160 -60 c17 -9 32 -14 35 -13 3
2 20 -9 38 -23 17 -14 47 -34 65 -43 35 -18 44 -37 13 -29 -27 7 -29 -3 -22
-89 4 -45 3 -78 -2 -78 -5 0 -4 -7 3 -15 7 -9 13 -39 12 -68 -5 -384 0 -901 8
-916 10 -20 -3 -31 -41 -31 -18 0 -19 11 -13 383 10 602 8 857 -5 857 -4 0
-16 -9 -26 -20 -15 -17 -17 -31 -10 -112 13 -167 15 -334 5 -419 -6 -46 -10
-217 -10 -379 0 -262 -2 -299 -17 -329 -24 -46 -47 -60 -73 -43 -12 7 -25 10
-31 6 -7 -4 -8 49 -3 167 4 96 9 266 10 379 0 113 2 280 3 371 1 92 -1 173 -5
182 -3 8 0 18 5 22 6 3 9 10 7 13 -2 4 1 39 9 77 13 71 11 94 -10 107 -16 10
-6 58 12 58 8 0 27 -7 43 -15z m170 -27 c0 -11 -8 -10 -31 2 -28 16 -23 30 6
17 14 -7 25 -15 25 -19z m-365 -48 c-3 -5 -8 -38 -10 -72 -3 -35 -7 -76 -10
-93 -8 -49 -10 -153 -3 -161 4 -3 13 -4 21 -1 10 4 16 33 21 99 3 51 11 109
16 128 6 19 10 50 10 67 0 44 24 43 46 -2 12 -25 14 -45 9 -72 -4 -21 -9 -180
-10 -353 -5 -545 -6 -582 -15 -731 -11 -176 -13 -182 -47 -166 -18 8 -29 8
-43 -1 -30 -19 -43 16 -36 102 3 39 8 134 10 211 3 77 13 193 23 258 13 90 14
120 5 126 -14 8 -2 125 17 174 13 34 15 97 2 97 -18 0 -32 -30 -43 -92 -5 -34
-13 -74 -15 -88 -3 -14 -9 -56 -13 -95 -6 -53 -7 -42 -3 45 3 63 7 185 9 270
2 85 6 166 8 180 6 31 33 169 35 178 1 1 6 2 12 2 5 0 7 -4 4 -10z m420 -230
c3 -5 1 -10 -4 -10 -6 0 -11 5 -11 10 0 6 2 10 4 10 3 0 8 -4 11 -10z m-625
-300 l-11 -25 6 25 c2 14 6 39 6 55 l2 30 4 -30 c2 -17 -1 -42 -7 -55z m591
-36 c0 -54 4 -142 9 -194 5 -52 12 -149 15 -215 3 -66 10 -143 17 -172 12 -59
6 -86 -19 -81 -12 2 -18 13 -19 33 -1 17 -4 71 -8 120 -11 132 -12 624 -1 613
3 -3 5 -50 6 -104z m-610 -85 l-9 -34 -1 31 c-1 17 2 34 6 37 12 13 14 -1 4
-34z m146 -176 c-3 -10 -5 -4 -5 12 0 17 2 24 5 18 2 -7 2 -21 0 -30z m-40
-345 c-3 -7 -5 -2 -5 12 0 14 2 19 5 13 2 -7 2 -19 0 -25z m-22 -154 c-3 -19
-10 -34 -14 -34 -4 0 -3 24 3 53 5 28 12 44 14 34 2 -11 1 -34 -3 -53z m400
-26 c-8 -100 -19 -282 -17 -290 5 -20 -21 -116 -43 -160 -14 -27 -25 -60 -25
-72 0 -12 -4 -26 -10 -32 -5 -5 -16 -41 -25 -79 -29 -125 -36 -160 -39 -180
-2 -11 -8 -31 -14 -45 -12 -27 -33 -127 -37 -174 -2 -21 2 -30 16 -33 36 -10
22 -40 -23 -49 -28 -6 -43 -15 -43 -24 0 -15 17 -17 45 -6 16 6 48 -9 38 -19
-3 -3 -23 -8 -43 -11 -21 -2 -42 -7 -47 -11 -15 -8 14 -23 34 -17 9 2 19 0 23
-6 3 -5 1 -10 -4 -10 -6 0 -11 -7 -11 -15 0 -12 -11 -15 -52 -13 -50 3 -53 2
-50 -20 1 -18 -2 -22 -15 -18 -10 2 -34 8 -53 11 -19 4 -49 16 -66 26 -17 10
-33 17 -36 14 -2 -3 -13 4 -24 15 -10 12 -28 28 -38 38 -63 56 -88 83 -83 88
4 4 22 -7 42 -25 39 -34 46 -36 63 -19 8 8 0 21 -35 53 -43 40 -44 42 -22 48
15 4 35 -1 57 -15 43 -27 87 -36 197 -43 50 -4 99 -7 110 -8 14 -1 20 4 20 18
0 18 -9 21 -115 28 -220 14 -267 59 -263 252 1 56 36 143 77 192 25 30 76 158
76 191 0 9 -7 13 -19 9 -15 -3 -21 5 -34 47 -8 28 -19 67 -22 86 -4 19 -12 38
-17 41 -6 4 4 41 24 90 32 81 35 84 68 87 45 4 80 37 82 76 l1 31 4 -34 c6
-49 19 -57 97 -59 78 -2 96 7 96 50 0 17 4 27 10 23 6 -4 30 -8 54 -9 35 -2
47 2 62 20 30 36 35 29 29 -38z m-529 -369 c21 -82 14 -190 -16 -234 -49 -71
-94 -186 -86 -220 4 -15 -2 -29 -18 -44 -31 -29 -44 -87 -41 -184 1 -64 5 -81
23 -100 24 -25 30 -66 10 -68 -28 -2 -87 -3 -162 -1 l-78 2 30 35 c17 19 34
51 37 72 4 21 13 70 22 108 9 39 16 95 17 125 2 66 43 188 68 201 13 7 15 17
11 45 -5 32 -2 40 41 83 32 33 54 67 70 112 13 35 26 72 30 82 3 9 8 24 11 33
8 24 14 13 31 -47z m-1699 -93 c14 -14 -19 -23 -42 -12 -13 6 -19 13 -14 17
13 7 47 5 56 -5z m-111 -35 c-10 -15 21 -32 50 -27 15 3 33 1 40 -5 9 -7 17
-4 28 12 l15 22 31 -27 c19 -15 44 -26 61 -26 18 0 32 -6 36 -16 7 -19 -10
-50 -26 -46 -8 1 -7 -5 1 -18 7 -11 18 -20 23 -20 6 0 28 -18 49 -39 36 -37
38 -41 22 -56 -20 -20 -20 -29 -1 -45 18 -15 10 -30 -16 -30 -11 0 -27 -7 -36
-15 -8 -8 -20 -12 -26 -9 -7 4 -4 -1 5 -11 17 -18 18 -18 37 -1 11 10 22 13
25 8 18 -30 -43 -73 -98 -70 -22 2 -31 7 -25 12 12 13 11 63 -2 72 -6 3 -8 15
-6 25 4 13 -3 25 -19 35 -19 13 -22 20 -13 36 21 40 13 95 -21 138 -41 52 -63
63 -109 55 -37 -6 -38 -5 -38 24 0 17 4 31 9 31 5 0 7 -4 4 -9z m-78 -36 c-2
-5 -6 -9 -10 -8 -4 2 -15 -9 -24 -23 -22 -33 -6 -53 28 -36 33 16 145 10 164
-9 14 -14 12 -16 -14 -14 -25 1 -28 -1 -24 -23 4 -19 1 -23 -14 -21 -41 7 -60
-35 -28 -62 14 -11 18 -10 34 10 9 13 22 21 28 17 6 -4 18 6 27 24 8 16 18 30
21 30 10 0 -7 -74 -20 -90 -16 -18 -28 -62 -15 -55 17 11 47 -14 42 -34 -4
-17 -8 -18 -24 -8 -15 9 -22 8 -34 -4 -13 -13 -13 -17 -1 -34 13 -17 18 -18
36 -7 20 12 20 12 5 -24 -8 -20 -15 -37 -15 -38 0 0 -21 -2 -47 -2 -29 -1 -52
4 -61 13 -8 8 -30 13 -52 11 -30 -1 -48 6 -84 33 -25 19 -46 42 -46 52 0 10
-7 20 -15 23 -19 8 -19 28 0 44 36 30 3 72 -50 63 -27 -4 -35 -2 -35 10 0 9 9
19 21 22 28 9 22 49 -9 53 -12 2 -20 7 -17 12 3 5 -1 15 -9 22 -22 22 -30 58
-13 58 8 0 14 -7 13 -16 0 -10 16 -26 39 -39 21 -12 41 -29 44 -36 2 -8 10
-17 17 -21 6 -5 10 -16 7 -27 -3 -10 0 -22 6 -25 18 -11 52 -16 46 -6 -3 5 -1
11 4 15 14 8 2 35 -15 35 -18 0 -18 9 2 31 17 19 11 39 -12 39 -8 0 -12 4 -9
10 4 6 13 5 25 -2 16 -10 23 -8 44 11 14 13 23 28 20 33 -4 6 1 8 10 6 10 -1
16 -7 14 -13z m505 -29 c9 -13 23 -30 32 -39 14 -15 14 -17 -4 -26 -25 -14
-34 -49 -12 -54 9 -2 24 3 34 11 15 14 19 13 31 -4 8 -10 22 -19 32 -19 24 0
84 -89 77 -115 -4 -14 -9 -18 -15 -12 -5 5 -18 7 -28 5 -19 -5 -21 -30 -5 -95
5 -19 1 -32 -14 -47 -12 -12 -21 -32 -21 -46 0 -28 -3 -30 -29 -13 -15 9 -25
9 -46 0 -41 -19 -58 -16 -52 10 4 12 1 28 -5 36 -10 11 -8 16 5 23 23 13 22
45 -2 52 -24 6 -56 -26 -48 -47 4 -10 -1 -13 -18 -12 -26 1 -21 19 14 48 12
10 21 26 21 36 0 10 5 23 11 29 7 7 11 37 10 69 -1 60 -27 116 -62 134 -22 12
-26 32 -4 24 10 -4 13 1 12 22 -1 21 4 31 23 41 35 18 46 16 63 -11z m250 -37
c42 -11 77 -37 77 -56 0 -6 -7 -19 -15 -27 -20 -19 -4 -56 23 -56 32 0 42 -20
25 -46 -12 -19 -13 -30 -4 -55 12 -36 8 -47 -25 -59 -20 -8 -23 -15 -21 -49 3
-51 9 -56 48 -42 17 6 35 8 40 5 10 -6 -15 -71 -37 -95 -15 -17 -18 -17 -50
-1 -19 10 -34 25 -34 35 0 11 -8 17 -25 17 -17 0 -25 5 -25 18 0 9 -9 42 -20
71 -21 59 -21 61 6 65 20 3 31 32 33 87 1 41 -26 83 -85 130 -21 18 -31 29
-21 26 11 -4 16 -3 12 4 -8 12 23 38 45 39 8 0 32 -5 53 -11z m1039 -334 c-2
-14 -8 -25 -13 -25 -10 0 -12 34 -2 43 13 14 20 6 15 -18z m-1432 -32 c-8 -3
-23 -15 -33 -27 -16 -20 -17 -20 -10 -1 8 24 22 35 43 34 13 -1 13 -1 0 -6z
m-70 -139 c0 -53 -44 -97 -65 -64 -7 12 -15 112 -9 122 3 4 20 -2 39 -13 24
-15 35 -28 35 -45z m-360 37 c5 -11 10 -38 10 -61 0 -41 -1 -41 -32 -38 -33 3
-33 4 -36 61 -3 55 -2 57 22 57 15 0 30 -8 36 -19z m551 -46 c5 -86 5 -85 -23
-85 -27 0 -28 2 -28 54 0 51 1 54 25 52 17 -1 25 -7 26 -21z m130 -78 c-8 -8
-11 2 -11 34 0 59 14 73 18 19 2 -24 -2 -48 -7 -53z m2434 18 c-22 -8 -47 -14
-55 -14 -21 1 51 27 75 28 11 0 2 -6 -20 -14z m-89 -24 c-3 -5 -17 -11 -32
-14 -29 -5 -20 9 11 16 11 3 21 5 23 6 2 0 1 -3 -2 -8z m-2984 -30 c11 -11 5
-13 -35 -7 -73 9 -94 25 -30 23 29 -1 58 -8 65 -16z m118 -8 c0 -9 -10 -11
-32 -6 -63 12 -71 20 -19 19 33 -1 51 -5 51 -13z m215 -8 c6 -7 29 -21 50 -30
57 -26 18 -32 -56 -10 -49 15 -57 21 -55 41 1 19 5 22 26 17 14 -3 30 -11 35
-18z m2585 21 c0 -2 -24 -12 -52 -21 -44 -15 -96 -18 -292 -21 -241 -3 -310 3
-129 12 54 3 123 9 153 13 30 4 98 6 152 4 59 -3 103 -1 115 6 17 10 53 15 53
7z m-1862 -38 c-3 -7 -10 -13 -16 -12 -7 1 -31 2 -54 4 l-43 3 50 7 c28 4 54
8 58 8 5 1 7 -4 5 -10z m744 -40 c-4 -35 -7 -38 -36 -37 -28 1 -29 2 -7 8 43
12 37 31 -11 33 -164 5 -237 0 -263 -22 -8 -7 -18 -10 -22 -7 -3 4 5 15 18 26
21 17 41 20 164 20 76 1 144 6 149 11 13 13 14 11 8 -32z m103 16 c21 -9 50
-14 63 -11 14 3 40 -2 59 -10 19 -8 64 -15 99 -17 35 -2 66 -5 69 -8 3 -2 -2
-40 -11 -84 -8 -43 -19 -108 -24 -144 -5 -36 -11 -78 -14 -95 -8 -47 -20 -158
-19 -183 1 -24 59 -83 118 -119 40 -25 205 -86 205 -76 0 3 8 -3 18 -15 10
-11 43 -30 73 -41 30 -12 70 -34 89 -50 l35 -29 -28 -11 c-32 -12 -83 -13
-111 -2 -19 7 -19 8 2 29 26 26 28 37 7 28 -8 -3 -15 -1 -15 3 0 15 -29 21
-53 12 -13 -5 -37 -23 -54 -40 -21 -21 -36 -28 -52 -24 -32 8 -26 16 33 48 30
16 53 32 50 36 -4 8 -43 0 -59 -11 -5 -4 -36 -6 -68 -4 -53 3 -59 1 -69 -21
-11 -24 -23 -26 -76 -9 -20 6 13 61 48 79 34 18 32 36 -3 28 -20 -4 -21 -3 -4
10 9 8 17 17 17 21 0 14 -39 5 -64 -15 -26 -20 -35 -49 -16 -49 5 0 0 -16 -11
-35 -12 -19 -27 -35 -35 -35 -16 0 -19 16 -3 25 5 4 9 14 7 23 -3 14 -14 16
-65 14 -54 -2 -65 -7 -99 -38 -59 -56 -77 -59 -119 -21 l-36 33 16 42 c10 23
15 53 13 67 -5 24 -3 25 39 25 31 0 43 4 40 13 -2 7 -16 11 -36 9 -27 -3 -32
-1 -29 15 2 13 15 20 43 24 29 4 35 7 23 13 -9 4 -14 14 -12 21 4 9 -4 15 -23
17 -36 4 -37 23 0 24 47 2 52 20 6 27 -28 4 -41 47 -15 47 9 0 16 7 16 15 0 8
-9 15 -20 15 -12 0 -20 7 -20 16 0 13 7 15 30 11 29 -6 57 12 31 21 -8 3 -9 8
-1 17 8 10 4 15 -20 23 -47 17 -36 25 24 18 32 -4 57 -3 60 3 7 11 -8 16 -71
26 -35 6 -43 11 -43 28 0 16 3 18 12 9 12 -12 70 -17 81 -6 12 13 -6 34 -31
34 -14 0 -22 3 -18 8 8 8 14 9 51 11 31 1 42 24 23 46 -33 40 -55 57 -81 62
-23 5 -27 10 -25 34 1 16 7 28 13 26 5 -2 9 -13 7 -24 -2 -15 7 -24 40 -36 24
-10 54 -17 66 -17 24 0 30 15 10 24 -7 3 11 4 40 2 29 -2 55 0 57 5 8 11 -5
17 -55 24 -25 3 -70 18 -100 34 -30 15 -61 26 -67 24 -14 -5 -18 9 -6 20 8 9
4 10 48 -9z m255 6 c0 -5 -7 -10 -16 -10 -8 0 -12 5 -9 10 3 6 10 10 16 10 5
0 9 -4 9 -10z m950 2 c0 -9 -119 -36 -126 -29 -4 4 48 19 101 31 11 2 21 4 23
5 1 0 2 -3 2 -7z m-880 -12 c0 -5 -4 -10 -9 -10 -6 0 -13 5 -16 10 -3 6 1 10
9 10 9 0 16 -4 16 -10z m-1682 -40 c39 -26 23 -30 -20 -5 -24 14 -52 25 -63
26 -20 0 -20 1 0 8 19 7 35 2 83 -29z m397 21 c-16 -15 -67 -17 -72 -3 -3 8 8
12 38 12 27 0 39 -4 34 -9z m3188 -23 c-2 -5 -16 -8 -31 -8 -15 -1 -38 -7 -52
-15 -14 -8 -41 -14 -61 -15 -20 0 -61 -7 -90 -16 -30 -9 -61 -18 -69 -21 -12
-3 -13 -5 0 -13 17 -11 13 -15 -20 -24 -14 -3 -19 -3 -12 0 6 3 12 12 12 19 0
10 -16 15 -52 17 l-53 3 50 17 c28 10 82 19 120 22 39 2 93 13 120 24 47 19
148 26 138 10z m-3307 -18 c13 0 25 -4 28 -9 9 -15 -78 -11 -104 5 l-25 15 28
-6 c18 -3 27 -1 27 7 0 9 3 9 12 0 7 -7 22 -12 34 -12z m214 -8 c0 -4 -4 -12
-9 -17 -5 -6 -11 -23 -13 -40 -3 -29 -4 -30 -53 -28 -148 4 -212 13 -260 38
-54 26 -52 30 10 15 22 -6 75 -13 119 -16 73 -5 78 -4 72 13 -3 10 3 6 15 -9
21 -28 52 -35 78 -19 18 11 5 31 -20 31 -24 0 -16 18 15 30 27 11 46 12 46 2z
m710 -15 c14 -2 -45 -2 -130 -1 -85 2 -157 4 -160 5 -3 1 8 4 25 8 26 5 193
-2 265 -12z m-182 -59 c73 -16 75 -29 3 -22 -69 8 -99 1 -82 -19 6 -8 34 -14
67 -15 32 -1 64 -7 73 -15 15 -14 55 -26 96 -30 33 -3 23 25 -15 40 l-35 13
35 -6 c19 -3 45 -10 58 -16 17 -9 25 -9 34 0 7 7 16 12 20 12 15 0 8 -25 -10
-37 -15 -9 -20 -29 -25 -100 -3 -48 -2 -110 3 -138 4 -30 4 -52 -2 -56 -5 -3
-8 -10 -6 -15 5 -18 -13 -99 -24 -105 -8 -5 -7 -16 1 -40 9 -25 8 -37 -2 -53
-20 -30 -26 -61 -16 -79 7 -11 4 -17 -11 -22 -23 -7 -24 -13 -10 -49 14 -37
60 -37 60 -1 0 14 5 25 10 25 6 0 8 -11 4 -25 -5 -20 -1 -27 17 -34 19 -7 28
-5 39 8 9 10 29 20 45 23 17 3 38 8 47 12 13 6 15 3 11 -13 -3 -12 0 -22 6
-22 6 -1 16 -2 21 -3 6 0 15 -7 19 -15 5 -7 14 -10 20 -7 6 4 18 3 26 -1 12
-7 7 -12 -20 -22 -19 -7 -35 -18 -35 -24 0 -6 -13 3 -29 21 -19 20 -39 32 -56
32 -35 0 -65 -17 -59 -34 3 -8 -4 -16 -19 -20 -35 -8 -51 -50 -32 -80 9 -13
25 -26 35 -29 32 -8 24 -34 -10 -35 -17 0 -40 -3 -53 -7 l-22 -6 23 17 c28 21
28 52 0 63 -16 6 -23 17 -24 41 -2 34 -20 53 -41 45 -17 -6 -16 3 2 21 21 22
19 29 -16 58 -35 29 -64 32 -114 11 -41 -17 -51 -35 -35 -65 20 -38 4 -60 -45
-60 -60 0 -94 -37 -64 -67 6 -6 8 -16 5 -22 -8 -12 -45 -15 -47 -3 -8 54 -5
72 12 77 40 13 9 85 -36 85 -18 0 -21 5 -18 24 6 28 -5 37 -35 29 -24 -6 -30
-41 -10 -61 8 -8 5 -14 -15 -23 -17 -8 -26 -19 -24 -32 1 -14 -4 -20 -20 -22
-33 -3 -39 -13 -20 -33 15 -14 21 -15 38 -4 31 19 69 -7 65 -45 -4 -34 -42
-45 -53 -16 -9 26 -23 33 -65 33 -25 0 -45 -7 -58 -20 -11 -11 -20 -16 -20
-10 0 5 -7 7 -15 4 -11 -5 -15 1 -15 24 0 47 9 60 55 83 56 28 66 63 28 98
-22 19 -34 22 -71 18 -24 -3 -49 -10 -54 -15 -16 -16 -12 -75 6 -87 10 -8 14
-25 12 -52 -4 -52 -11 -63 -42 -63 -19 0 -24 5 -24 26 0 15 10 35 21 45 27 23
19 62 -17 85 -21 14 -29 15 -52 5 l-27 -13 33 -14 c34 -14 39 -36 10 -42 -9
-2 -18 6 -21 18 -3 12 -13 20 -26 20 -25 0 -38 -24 -24 -43 6 -6 13 -28 16
-49 4 -29 2 -37 -12 -41 -15 -4 -18 3 -19 41 0 32 -6 50 -18 59 -22 16 -70 17
-80 2 -4 -8 0 -9 15 -4 17 5 23 1 32 -21 9 -24 7 -30 -12 -45 -23 -17 -23 -16
-40 21 -15 33 -21 38 -50 36 -36 -2 -56 -24 -46 -50 8 -19 31 -17 33 2 1 7 2
17 3 23 0 5 5 8 10 5 5 -3 7 -14 4 -24 -2 -10 3 -24 11 -31 23 -19 20 -31 -9
-31 -32 0 -70 -33 -62 -54 5 -12 0 -16 -19 -16 l-26 0 21 33 c15 24 17 37 9
45 -7 7 -7 19 0 41 8 23 7 32 -3 41 -21 18 -50 8 -47 -15 3 -25 -47 -53 -59
-33 -4 7 -3 20 2 30 6 11 9 31 7 46 -2 22 -8 27 -28 25 -23 -3 -24 -2 -7 11
10 8 15 20 11 29 -3 9 1 23 9 32 13 12 18 13 29 2 7 -7 33 -20 57 -30 36 -13
47 -14 60 -4 14 10 14 10 4 -4 -15 -19 -7 -29 24 -29 14 0 23 6 23 15 0 22 43
19 58 -5 7 -12 23 -20 41 -20 40 0 53 19 41 60 -5 19 -8 36 -5 38 3 3 21 -3
40 -14 24 -13 38 -15 43 -8 4 6 15 13 25 17 13 5 18 16 17 34 -3 43 -1 44 20
23 22 -22 50 -17 50 9 0 9 -9 24 -20 34 -25 21 -25 38 0 67 11 12 17 26 15 30
-9 14 82 86 123 98 56 17 76 43 77 105 1 29 5 68 9 88 5 25 4 39 -4 44 -8 5
-3 16 15 35 24 25 26 34 21 65 -6 32 -4 37 14 42 11 3 23 16 26 29 7 28 5 27
37 15 34 -13 67 8 44 28 -9 6 -25 13 -36 14 -20 1 -26 8 -16 18 7 8 127 0 183
-13z m229 8 c10 -10 -11 -34 -25 -29 -84 26 -96 44 -25 37 26 -3 48 -6 50 -8z
m457 6 c5 -9 34 -10 51 -1 9 4 106 4 238 0 21 0 36 -5 33 -10 -3 -4 4 -17 15
-27 17 -15 41 -19 132 -23 69 -2 115 -8 119 -15 5 -7 31 -10 69 -9 34 2 59 0
56 -4 -15 -14 16 -32 51 -28 133 13 186 16 180 9 -4 -4 -3 -13 3 -21 12 -13
-3 -19 -41 -14 -8 0 -109 3 -225 6 -175 3 -223 8 -285 25 -41 12 -104 23 -139
26 -64 4 -113 9 -198 21 -27 3 -57 6 -69 6 -16 -1 -21 5 -19 21 1 11 3 27 4
34 1 14 17 16 25 4z m844 -29 c2 -1 -33 -1 -77 0 -45 1 -81 5 -81 8 0 3 26 10
58 15 46 8 61 7 77 -6 11 -8 21 -16 23 -17z m-1212 12 c9 -8 13 -19 10 -24
-10 -16 -46 0 -46 20 0 23 16 25 36 4z m1809 -15 c-3 -5 -11 -10 -16 -10 -6 0
-7 5 -4 10 3 6 11 10 16 10 6 0 7 -4 4 -10z m58 3 c-7 -2 -21 -2 -30 0 -10 3
-4 5 12 5 17 0 24 -2 18 -5z m-1023 -153 c12 -8 9 -10 -13 -10 -16 0 -26 4
-22 10 8 12 16 12 35 0z m-863 -66 c-3 -3 -12 -4 -19 -1 -8 3 -5 6 6 6 11 1
17 -2 13 -5z m-1577 -49 c0 -8 -4 -15 -10 -15 -5 0 -7 7 -4 15 4 8 8 15 10 15
2 0 4 -7 4 -15z m3578 -104 c9 -6 55 -22 102 -36 47 -14 123 -45 170 -69 47
-24 108 -51 135 -60 28 -9 77 -33 110 -52 l60 -35 -75 6 c-48 4 -84 13 -100
24 -42 30 -181 98 -255 124 -78 28 -160 67 -190 91 -20 15 -20 15 3 16 12 0
30 -4 40 -9z m532 -11 c0 -5 6 -10 13 -10 16 -1 76 -50 60 -50 -10 0 -91 28
-101 35 -1 1 0 10 4 19 7 17 24 22 24 6z m-930 -10 c0 -9 124 -71 170 -85 31
-9 100 -55 100 -66 0 -12 -70 21 -98 45 -15 14 -40 21 -75 22 -28 2 -53 8 -55
14 -3 7 -18 27 -34 46 -17 19 -25 34 -19 34 6 0 11 -4 11 -10z m-3033 -22 c-2
-7 2 -20 10 -30 13 -14 12 -22 -6 -60 -20 -43 -20 -43 -22 -13 -5 66 -4 81 4
98 9 19 21 24 14 5z m3183 2 c8 -5 11 -10 5 -10 -5 0 -17 5 -25 10 -8 5 -10
10 -5 10 6 0 17 -5 25 -10z m181 -10 c13 -10 19 -19 13 -20 -7 0 -22 9 -35 20
-13 10 -19 19 -13 20 7 0 22 -9 35 -20z m-2659 -12 c-7 -7 -12 -8 -12 -2 0 6
3 14 7 17 3 4 9 5 12 2 2 -3 -1 -11 -7 -17z m2283 -9 c17 -16 17 -19 3 -19
-31 0 -68 19 -68 35 0 21 36 11 65 -16z m-2845 1 c0 -10 -29 -34 -35 -28 -10
10 8 46 21 41 8 -3 14 -9 14 -13z m408 -2 c-4 -28 -24 -34 -31 -9 -6 22 0 31
20 31 9 0 13 -8 11 -22z m879 16 c-3 -3 -12 -4 -19 -1 -8 3 -5 6 6 6 11 1 17
-2 13 -5z m1869 -20 c33 -14 80 -35 106 -46 25 -11 56 -34 68 -50 l22 -30 -33
7 c-19 4 -61 24 -94 45 -33 20 -85 51 -115 68 -69 39 -38 43 46 6z m489 -1
c28 -11 66 -27 85 -36 19 -9 72 -30 118 -47 63 -24 82 -36 82 -51 0 -10 -3
-19 -6 -19 -6 0 -105 49 -141 70 -10 5 -55 26 -101 45 -84 35 -150 73 -107 62
11 -3 43 -14 70 -24z m-321 -17 c28 -14 98 -45 156 -70 l105 -45 -72 -1 c-59
0 -73 3 -73 15 0 9 -8 18 -17 22 -10 3 -27 14 -38 24 -11 10 -47 32 -80 48
-71 36 -55 42 19 7z m-2854 -41 c0 -16 -27 -28 -36 -14 -7 12 15 41 27 33 5
-3 9 -11 9 -19z m1766 -47 c3 -5 3 -15 0 -23 -4 -12 -10 -13 -31 -3 -24 11
-32 28 -19 40 7 8 43 -2 50 -14z m-289 -13 c8 -19 8 -23 0 -18 -26 14 -36 26
-31 34 9 15 18 10 31 -16z m-2137 0 c13 -16 6 -35 -15 -35 -18 0 -26 15 -19
34 8 20 18 20 34 1z m582 -17 c-7 -7 -12 -8 -12 -2 0 14 12 26 19 19 2 -3 -1
-11 -7 -17z m1613 -18 c3 -5 -1 -10 -9 -10 -8 0 -18 5 -21 10 -3 6 1 10 9 10
8 0 18 -4 21 -10z m-1995 -32 l29 -21 -19 -25 c-11 -14 -20 -30 -20 -36 0 -6
-20 -20 -45 -32 l-45 -21 0 32 c0 42 25 101 47 114 23 13 19 14 53 -11z m1420
-28 c0 -5 -4 -10 -10 -10 -5 0 -10 5 -10 10 0 6 5 10 10 10 6 0 10 -4 10 -10z
m-1111 -22 c0 -7 -5 -22 -10 -33 -9 -19 -9 -18 -5 3 2 12 0 22 -6 22 -5 0 -6
5 -3 10 9 14 25 12 24 -2z m1421 2 c0 -14 -28 -80 -33 -80 -3 0 -1 17 4 38 5
20 9 40 9 45 0 11 20 8 20 -3z m157 -27 c-14 -15 -30 -23 -34 -19 -4 4 5 19
21 32 37 32 48 21 13 -13z m382 4 c19 -23 -9 -36 -38 -18 -15 10 -7 31 13 31
8 0 19 -6 25 -13z m-729 -27 c0 -5 8 -6 17 -3 13 5 15 2 10 -11 -9 -22 14 -46
42 -46 14 0 21 6 21 20 0 11 5 20 11 20 5 0 8 -4 5 -8 -9 -16 11 -33 47 -39
30 -4 37 -2 37 10 0 25 16 28 41 8 l23 -19 -42 -7 c-48 -8 -65 -29 -60 -78 2
-22 10 -35 25 -42 41 -17 36 -35 -8 -35 -24 0 -52 -8 -67 -19 -15 -10 -50 -22
-78 -26 l-51 -6 1 45 c1 54 23 63 50 21 19 -30 46 -33 53 -6 3 13 11 17 24 14
22 -6 38 27 31 64 -6 31 -43 28 -57 -4 -15 -35 -32 -27 -38 17 -6 47 -22 70
-47 70 -26 0 -33 66 -8 67 10 1 18 -2 18 -7z m-1290 -45 c0 -5 -5 -3 -10 5 -5
8 -10 20 -10 25 0 6 5 3 10 -5 5 -8 10 -19 10 -25z m820 -16 c0 -13 -18 -20
-25 -9 -3 5 -15 10 -26 10 -24 0 -24 8 -2 33 17 18 18 18 35 -3 10 -12 18 -26
18 -31z m-1305 -34 c-3 -36 -11 -65 -17 -65 -6 0 -8 14 -4 35 3 19 9 51 12 71
10 58 17 30 9 -41z m816 38 c-9 -34 -48 -44 -68 -17 -20 28 -16 33 30 37 23 2
43 4 44 5 1 1 -2 -10 -6 -25z m1324 -20 c7 -40 7 -40 -20 -44 -12 -2 -32 9
-51 28 -26 27 -29 34 -17 45 8 8 27 12 47 10 30 -3 35 -8 41 -39z m-2068 5
c-3 -8 -6 -5 -6 6 -1 11 2 17 5 13 3 -3 4 -12 1 -19z m-201 -3 c19 -15 19 -15
-1 -31 -38 -30 -52 -34 -71 -20 -16 12 -16 18 -6 40 13 30 47 35 78 11z m1137
-29 c6 -14 -19 -44 -28 -34 -7 6 6 48 15 48 4 0 10 -6 13 -14z m304 8 c-3 -3
-12 -4 -19 -1 -8 3 -5 6 6 6 11 1 17 -2 13 -5z m251 -26 c2 -20 -3 -28 -28
-38 -41 -17 -60 -2 -40 34 22 42 63 44 68 4z m157 22 c3 -5 12 -7 20 -4 20 8
31 -24 14 -41 -26 -25 -63 -28 -83 -7 -17 19 -16 21 5 41 25 23 35 26 44 11z
m-1648 -22 c2 -18 0 -20 -7 -8 -12 18 -13 30 -2 30 4 0 9 -10 9 -22z m1973
-20 c0 -38 -61 -34 -68 6 -4 20 37 38 56 24 6 -6 12 -19 12 -30z m-1870 18 c0
-3 -4 -8 -10 -11 -5 -3 -10 -1 -10 4 0 6 5 11 10 11 6 0 10 -2 10 -4z m-694
-38 c-3 -18 -5 -43 -5 -55 -1 -14 -7 -23 -16 -23 -20 0 -20 59 1 88 21 30 25
28 20 -10z m434 -6 c0 -16 -7 -37 -15 -48 -14 -18 -15 -18 -12 5 1 19 -4 26
-23 31 -17 4 -21 8 -12 14 6 4 16 5 21 2 5 -3 14 1 21 9 17 21 20 19 20 -13z
m2269 9 c7 -13 6 -23 -2 -35 -12 -16 -15 -16 -40 4 -31 25 -34 37 -9 43 33 9
41 7 51 -12z m-1564 -11 c3 -5 2 -10 -4 -10 -5 0 -13 5 -16 10 -3 6 -2 10 4
10 5 0 13 -4 16 -10z m539 -6 c9 -24 7 -28 -9 -14 -17 14 -20 30 -6 30 5 0 12
-7 15 -16z m76 -45 c-13 -31 -33 -34 -38 -5 -2 10 2 15 10 14 7 -2 12 3 10 11
-1 7 3 20 10 29 12 13 13 13 16 -2 2 -10 -2 -31 -8 -47z m446 21 c26 0 26 -1
10 -25 -9 -13 -16 -32 -16 -40 0 -9 -6 -15 -12 -12 -7 2 -12 12 -10 21 5 26
-17 46 -49 46 -34 0 -37 12 -7 32 19 13 24 12 40 -4 10 -10 30 -18 44 -18z
m-313 1 c4 -1 7 -8 7 -17 0 -11 -5 -14 -16 -10 -9 3 -27 9 -41 12 -29 8 -14
22 20 18 12 -1 25 -3 30 -3z m750 -30 c3 -13 -5 -16 -40 -16 -38 0 -43 2 -43
22 0 37 73 33 83 -6z m127 0 c0 -11 8 -28 18 -37 16 -17 16 -17 0 -11 -10 3
-20 2 -23 -4 -4 -5 -10 -7 -15 -4 -5 3 -19 1 -31 -6 -17 -9 -20 -8 -13 3 5 7
7 22 6 34 -2 13 5 24 20 32 33 15 38 14 38 -7z m-2196 -16 c-4 -8 -8 -15 -10
-15 -2 0 -4 7 -4 15 0 8 4 15 10 15 5 0 7 -7 4 -15z m596 -22 c0 -20 -16 -8
-23 17 -4 17 -3 19 9 9 8 -6 14 -18 14 -26z m-933 -25 c-4 -23 -4 -23 -14 2
-8 18 -8 29 1 39 9 12 11 12 14 -2 2 -9 2 -27 -1 -39z m193 42 c0 -5 -2 -10
-4 -10 -3 0 -8 5 -11 10 -3 6 -1 10 4 10 6 0 11 -4 11 -10z m348 -11 c-2 -6
-8 -10 -13 -10 -5 0 -11 4 -13 10 -2 6 4 11 13 11 9 0 15 -5 13 -11z m247 -27
c1 -14 -4 -18 -17 -14 -26 6 -32 20 -17 38 14 17 32 5 34 -24z m885 28 c0 -5
-4 -10 -10 -10 -5 0 -10 5 -10 10 0 6 5 10 10 10 6 0 10 -4 10 -10z m200 -6
c0 -8 -5 -12 -10 -9 -6 4 -8 11 -5 16 9 14 15 11 15 -7z m-507 -14 c-5 -20
-15 -25 -26 -14 -9 9 4 34 18 34 8 0 11 -8 8 -20z m171 -7 c-10 -8 -32 -17
-47 -20 -16 -3 -34 -14 -40 -24 -15 -25 -27 -24 -27 1 0 11 -6 20 -12 20 -7 0
-2 7 10 16 14 9 33 14 46 10 14 -3 28 0 35 8 7 8 21 12 33 8 20 -5 20 -5 2
-19z m66 17 c8 -5 12 -12 8 -15 -10 -10 -49 5 -43 16 8 11 16 11 35 -1z m830
0 c0 -5 -4 -10 -10 -10 -5 0 -10 5 -10 10 0 6 5 10 10 10 6 0 10 -4 10 -10z
m-200 -21 c7 -11 10 -23 8 -25 -8 -8 -58 21 -58 34 0 20 38 14 50 -9z m-2110
1 c0 -5 -2 -10 -4 -10 -3 0 -8 5 -11 10 -3 6 -1 10 4 10 6 0 11 -4 11 -10z
m873 -5 c10 -7 15 -15 10 -18 -14 -9 -63 5 -63 17 0 16 30 16 53 1z m-1217
-16 l19 -22 -30 7 c-36 9 -39 12 -30 25 9 16 20 13 41 -10z m472 -46 c0 -30
-1 -31 -21 -20 -30 16 -37 27 -37 59 0 27 0 27 29 10 23 -13 29 -23 29 -49z
m119 59 c8 -5 3 -18 -17 -45 l-27 -37 -6 30 c-11 51 13 76 50 52z m1378 -2 c3
-5 -1 -10 -10 -10 -9 0 -13 5 -10 10 3 6 8 10 10 10 2 0 7 -4 10 -10z m-1270
-10 c3 -5 2 -10 -4 -10 -5 0 -13 5 -16 10 -3 6 -2 10 4 10 5 0 13 -4 16 -10z
m245 -5 c12 -14 6 -35 -10 -35 -5 0 -7 7 -4 15 5 11 -1 15 -20 15 -14 0 -26 5
-26 10 0 15 46 12 60 -5z m490 11 c0 -2 3 -12 6 -21 6 -13 1 -16 -22 -13 -17
2 -34 -3 -41 -12 -6 -8 -14 -12 -18 -8 -9 9 16 47 35 52 22 6 40 7 40 2z
m1180 -16 c16 -31 1 -44 -20 -18 -18 22 -18 38 0 38 5 0 14 -9 20 -20z m-2259
-22 c23 -25 24 -38 5 -38 -8 0 -21 -3 -29 -6 -18 -7 -30 35 -15 53 14 17 18
17 39 -9z m779 7 c0 -8 8 -15 17 -15 14 0 13 -3 -6 -16 -19 -14 -25 -14 -32
-3 -14 22 -10 49 6 49 8 0 15 -7 15 -15z m1019 1 c9 -11 6 -15 -15 -20 -27 -7
-58 9 -48 25 8 14 50 11 63 -5z m151 4 c0 -5 -7 -10 -16 -10 -8 0 -12 5 -9 10
3 6 10 10 16 10 5 0 9 -4 9 -10z m-1255 -10 c3 -5 1 -10 -4 -10 -6 0 -11 5
-11 10 0 6 2 10 4 10 3 0 8 -4 11 -10z m525 0 c0 -5 -6 -10 -14 -10 -8 0 -18
5 -21 10 -3 6 3 10 14 10 12 0 21 -4 21 -10z m235 0 c8 -13 52 -13 57 0 2 6
17 6 42 -1 21 -6 54 -8 72 -4 19 3 34 2 34 -3 0 -13 -29 -24 -41 -16 -6 3 -21
3 -35 0 -27 -7 -33 -40 -9 -50 8 -3 15 -12 15 -21 0 -8 5 -15 10 -15 6 0 10
-5 10 -10 0 -6 -20 -9 -45 -8 -38 1 -45 5 -54 29 -6 18 -6 30 2 38 13 13 -11
24 -45 19 -18 -2 -23 -10 -24 -36 -1 -21 4 -36 15 -42 12 -7 9 -9 -16 -10 -30
0 -33 3 -33 30 0 23 -5 31 -25 36 -47 12 -69 -10 -40 -40 21 -21 20 -21 -30
-21 -43 -1 -44 0 -20 13 36 19 33 52 -5 52 -34 0 -57 -29 -37 -49 9 -9 -16
-11 -106 -10 -94 2 -115 5 -106 15 8 9 18 10 36 3 20 -7 30 -6 44 7 11 10 27
14 40 11 15 -4 23 0 26 14 3 10 14 19 24 19 11 0 19 4 19 10 0 6 11 5 26 -2
22 -10 28 -10 39 5 7 10 16 14 19 9 8 -14 62 -22 96 -15 43 8 39 33 -6 33 -21
0 -33 4 -29 10 3 6 21 10 40 10 19 0 37 -4 40 -10z m595 -30 c0 -4 -16 -7 -35
-8 l-35 -1 17 23 c17 22 19 23 36 9 9 -9 17 -19 17 -23z m-1744 -6 c-4 -23 7
-30 37 -25 5 1 6 -3 2 -9 -17 -28 -65 6 -65 45 0 18 4 23 15 19 9 -4 13 -15
11 -30z m1924 -3 c-1 -14 -2 -13 -11 2 -5 9 -17 17 -24 17 -8 0 -15 4 -15 10
0 6 10 5 25 -2 14 -6 25 -18 25 -27z m-2502 16 c15 6 15 4 4 -10 -14 -17 -19
-15 89 -32 14 -2 35 3 47 11 11 8 23 10 26 5 3 -4 17 -6 31 -3 34 6 32 -14 -2
-23 -16 -4 -83 -8 -150 -9 -96 -1 -119 2 -111 12 7 8 7 17 -2 27 -10 13 -9 15
8 15 12 0 24 5 28 12 6 9 9 9 11 1 3 -7 12 -9 21 -6z m751 -10 c8 -11 5 -17
-13 -26 -13 -7 -32 -11 -42 -9 -18 3 -17 5 4 26 25 25 35 27 51 9z m671 4 c0
-12 -28 -22 -34 -12 -3 5 -3 11 1 15 9 9 33 7 33 -3z m977 3 c-3 -3 -12 -4
-19 -1 -8 3 -5 6 6 6 11 1 17 -2 13 -5z m-1503 -23 c-15 -15 -99 -17 -90 -2 3
4 16 6 30 4 13 -3 32 0 43 5 20 12 32 7 17 -7z m231 9 c8 -13 52 -13 57 0 5
15 66 -10 71 -29 3 -9 8 -23 11 -32 6 -13 -5 -15 -81 -14 -262 4 -260 4 -266
24 -6 23 28 35 67 25 13 -3 27 -1 30 5 5 7 15 7 32 1 20 -8 28 -6 41 10 19 22
29 25 38 10z m-712 -33 c3 -8 -3 -14 -14 -14 -10 -1 -19 3 -19 8 0 6 5 7 10 4
6 -3 10 -1 10 4 0 15 7 14 13 -2z m123 -22 l29 -15 -52 0 c-51 0 -80 14 -46
23 32 8 40 7 69 -8z M3405 7840 c-8 -16 -15 -35 -15 -42 0 -7 -12 -50 -27 -95
-30 -91 -30 -91 -138 -99 -73 -5 -140 -27 -140 -45 0 -12 80 -51 173 -86 l31
-11 -15 -54 c-9 -29 -25 -75 -37 -101 -17 -41 -18 -50 -6 -58 21 -13 20 -13
85 37 32 25 81 57 108 71 47 24 51 24 77 9 15 -9 34 -16 43 -16 8 0 36 -11 62
-25 92 -49 106 -27 49 79 -19 37 -35 73 -35 81 0 7 24 30 53 49 66 44 84 64
89 96 3 28 8 28 -142 15 l-85 -7 -28 58 c-15 33 -27 64 -27 70 0 6 -7 17 -15
24 -8 7 -17 27 -21 46 -8 42 -19 43 -39 4z m45 -107 c11 -27 25 -56 30 -65 14
-25 14 -26 -25 -37 -33 -9 -75 -5 -75 7 0 9 44 142 47 142 1 0 12 -21 23 -47z
m240 -127 c0 -8 -84 -66 -95 -66 -10 0 -35 40 -35 55 0 2 10 6 23 8 30 6 107
8 107 3z m-160 -52 c11 -25 20 -47 20 -48 0 -7 -100 -66 -111 -66 -26 0 -99
35 -99 47 0 7 7 30 15 51 15 37 18 39 78 49 34 5 66 11 70 11 4 1 17 -19 27
-44z m-216 -11 c-4 -16 -10 -31 -13 -35 -8 -9 -141 33 -141 44 0 6 21 9 133
16 25 2 27 0 21 -25z m281 -123 c10 -22 16 -43 13 -45 -3 -3 -27 4 -54 16
l-49 21 28 24 c15 13 32 24 36 24 4 0 16 -18 26 -40z m-216 -41 c-19 -16 -38
-29 -43 -29 -5 0 -18 -7 -28 -17 -26 -23 -23 -6 17 105 3 9 15 7 47 -9 l42
-21 -35 -29z M2130 7548 c-44 -21 -44 -22 -17 -26 16 -2 35 2 42 8 11 9 26 9
65 0 60 -14 75 -6 40 20 -33 25 -75 25 -130 -2z M2126 7495 c-11 -8 -18 -16
-15 -18 28 -23 58 -37 79 -37 l25 0 -30 25 c-21 17 -25 24 -14 25 9 0 19 -7
23 -15 11 -29 66 -11 66 22 0 19 -109 17 -134 -2z M2320 7335 c-17 -21 1 -39
29 -30 27 8 28 45 2 45 -10 0 -24 -7 -31 -15z M2329 7265 c-3 -2 -21 -6 -40
-8 -75 -8 -79 -32 -7 -41 63 -9 72 -14 58 -31 -16 -19 -4 -35 26 -35 26 0 33
17 9 26 -22 9 -18 23 4 17 13 -3 23 2 31 17 12 23 6 55 -9 45 -5 -3 -12 -1
-16 5 -6 10 -48 14 -56 5z M1409 6631 c-32 -33 -36 -66 -6 -66 9 0 17 5 18 10
1 18 21 35 41 35 14 0 19 6 16 22 -5 34 -34 33 -69 -1z M1490 6650 c0 -5 5
-10 11 -10 5 0 7 5 4 10 -3 6 -8 10 -11 10 -2 0 -4 -4 -4 -10z M2655 6561 c-3
-5 -1 -12 5 -16 5 -3 10 1 10 9 0 18 -6 21 -15 7z M1903 6540 c-33 -14 -28
-26 20 -49 70 -34 85 -24 46 30 -22 31 -30 33 -66 19z M1600 6065 c0 -8 5 -15
10 -15 6 0 10 7 10 15 0 8 -4 15 -10 15 -5 0 -10 -7 -10 -15z M2229 5751 c-31
-25 -25 -28 34 -23 38 3 47 8 45 21 -5 24 -51 25 -79 2z M1596 5831 c-4 -7 -5
-15 -2 -18 9 -9 19 4 14 18 -4 11 -6 11 -12 0z M1670 5736 c0 -2 7 -7 16 -10
8 -3 12 -2 9 4 -6 10 -25 14 -25 6z M1693 5685 c0 -8 4 -12 9 -9 5 3 6 10 3
15 -9 13 -12 11 -12 -6z M564 2795 c-4 -9 -2 -21 4 -27 16 -16 47 -5 47 17 0
26 -42 34 -51 10z M613 2708 c-16 -8 -23 -20 -23 -40 0 -25 4 -29 23 -26 18 2
22 9 22 41 0 20 0 37 0 36 0 0 -10 -5 -22 -11z M652 2653 c4 -38 43 -45 50 -9
5 25 -7 36 -38 36 -11 0 -14 -8 -12 -27z M645 2600 c3 -5 11 -10 16 -10 6 0 7
5 4 10 -3 6 -11 10 -16 10 -6 0 -7 -4 -4 -10z M615 2570 c-7 -11 2 -30 13 -30
4 0 14 5 22 10 13 9 13 11 0 20 -19 12 -27 12 -35 0z M320 2730 c-16 -16 -19
-25 -11 -34 6 -7 9 -15 6 -17 -2 -3 5 -6 17 -6 43 -4 65 47 28 67 -16 8 -24 6
-40 -10z M282 2617 c-25 -30 15 -81 44 -56 7 6 18 8 24 4 8 -5 9 -2 1 11 -5
11 -12 27 -15 37 -6 20 -39 23 -54 4z M210 2580 c0 -26 25 -36 45 -20 12 10
13 16 4 26 -18 22 -49 17 -49 -6z M262 2521 c-5 -13 42 -61 61 -61 16 0 18 31
3 54 -17 27 -55 31 -64 7z M767 2758 c-4 -12 -2 -27 4 -34 11 -14 52 -26 44
-13 -3 4 0 18 7 29 11 17 11 22 -2 30 -25 16 -47 11 -53 -12z M840 2545 c-11
-13 -11 -19 2 -31 14 -14 17 -14 32 1 9 10 15 22 13 29 -6 18 -33 18 -47 1z
M1145 2520 c3 -5 8 -10 11 -10 2 0 4 5 4 10 0 6 -5 10 -11 10 -5 0 -7 -4 -4
-10z M2525 1291 c-3 -5 -1 -12 4 -15 12 -8 41 3 41 15 0 12 -37 12 -45 0z
M1793 1585 c-14 -10 -24 -12 -28 -5 -3 5 -17 10 -30 10 -30 0 -61 -50 -42 -69
18 -18 45 -13 52 9 6 20 7 20 23 1 13 -15 22 -17 40 -11 12 5 22 16 22 25 0 8
5 15 10 15 6 0 10 9 10 20 0 24 -26 26 -57 5z M1857 1543 c-13 -13 -7 -32 14
-44 17 -9 25 -8 37 4 8 9 12 23 9 31 -6 16 -48 22 -60 9z M2003 1512 c-25 -4
-31 -30 -9 -38 16 -6 56 12 56 25 0 12 -20 18 -47 13z M1665 1481 c-8 -14 33
-40 56 -34 22 6 24 14 7 31 -14 14 -54 16 -63 3z M1555 1450 c-10 -16 4 -30
31 -30 17 0 24 5 24 20 0 15 -7 20 -24 20 -14 0 -28 -4 -31 -10z M1955 1449
c-11 -4 -32 -8 -47 -8 -23 -1 -28 -6 -28 -26 0 -21 5 -25 30 -25 17 0 30 -4
30 -10 0 -5 9 -10 19 -10 20 0 51 35 51 57 0 18 -32 32 -55 22z M1782 1422
c-9 -7 -8 -13 8 -27 16 -14 22 -15 35 -5 34 28 -4 56 -43 32z M1447 1363 c-6
-11 -3 -46 6 -60 4 -6 29 -11 56 -11 42 0 50 4 60 25 13 29 7 43 -20 43 -12 0
-24 -11 -31 -27 l-12 -28 -4 28 c-2 15 -7 27 -12 27 -5 0 -15 3 -23 6 -8 3
-17 2 -20 -3z M1839 1343 c-9 -2 -22 -15 -29 -28 -15 -28 -30 -33 -30 -10 0
18 -28 34 -51 28 -22 -6 -23 -16 -9 -44 16 -30 2 -42 -22 -19 -22 20 -63 27
-71 12 -3 -4 5 -19 18 -35 25 -28 60 -36 68 -14 3 9 8 8 18 -4 20 -23 49 -31
55 -15 3 7 15 11 27 9 18 -3 27 6 49 50 19 40 23 58 15 66 -6 6 -13 10 -16 10
-4 -1 -13 -3 -22 -6z M1381 1301 c-11 -7 -10 -15 9 -40 25 -35 43 -36 48 -2 6
39 -25 62 -57 42z M1879 1279 c-24 -24 -22 -52 4 -57 25 -5 57 26 57 55 0 30
-32 31 -61 2z M1507 1273 c-15 -14 -6 -32 22 -41 32 -11 41 -7 41 19 0 23 -46
40 -63 22z M1763 1180 c-26 -11 -21 -45 9 -61 38 -20 60 9 42 55 -7 18 -18 19
-51 6z M1523 1174 c-20 -9 -15 -31 9 -48 26 -19 51 -4 46 28 -3 21 -30 30 -55
20z M907 1086 c-10 -26 23 -36 53 -16 13 9 13 11 0 20 -22 14 -47 12 -53 -4z
M1385 780 c-9 -15 14 -40 36 -40 26 0 32 16 13 34 -18 18 -40 21 -49 6z M1544
7325 c-15 -38 56 -102 104 -93 32 6 22 26 -20 39 -31 10 -44 20 -48 38 -7 30
-28 39 -36 16z M1840 4259 c0 -5 5 -7 10 -4 6 3 10 8 10 11 0 2 -4 4 -10 4 -5
0 -10 -5 -10 -11z M1983 2972 c-17 -11 -30 -44 -43 -105 -9 -45 -18 -62 -42
-80 -38 -28 -100 -147 -87 -168 8 -12 12 -11 25 6 9 11 24 38 34 61 10 22 36
56 59 75 34 28 43 43 50 84 5 28 16 66 24 87 13 29 14 37 3 41 -7 3 -17 2 -23
-1z M3922 2468 c-7 -7 -12 -24 -12 -38 0 -20 -11 -32 -53 -58 -29 -18 -56 -32
-61 -32 -4 0 -22 -10 -39 -23 -76 -53 -156 -92 -211 -103 -20 -3 -44 -14 -53
-23 -15 -15 -15 -16 1 -19 10 -2 23 1 29 7 6 6 21 11 34 11 34 0 128 38 148
60 10 11 24 20 30 20 7 0 24 9 37 20 24 18 51 34 151 90 30 16 38 26 34 41 -3
13 2 24 14 32 10 6 19 15 19 19 0 13 -55 9 -68 -4z M3990 2202 c0 -29 95 -43
336 -47 127 -3 230 -14 350 -39 11 -2 52 -18 90 -36 79 -36 184 -55 184 -33 0
8 -12 13 -33 13 -17 0 -52 11 -77 24 -114 60 -288 93 -525 101 -206 7 -259 10
-297 20 -18 5 -28 3 -28 -3z M96 2089 c-16 -4 -33 -6 -38 -3 -4 3 -8 -16 -8
-41 0 -47 0 -47 27 -40 16 4 35 7 44 7 9 0 31 13 49 29 24 23 30 33 21 42 -14
14 -57 17 -95 6z M307 2058 c-20 -12 1 -21 53 -23 51 -2 60 4 37 24 -14 11
-71 11 -90 -1z M4850 1991 c0 -6 1 -11 3 -12 1 0 24 -3 51 -5 36 -4 47 -2 44
7 -5 16 -98 25 -98 10z M4826 1859 c-27 -4 -53 -14 -57 -21 -11 -18 5 -22 43
-9 18 6 57 13 86 17 28 4 52 10 52 15 0 10 -50 9 -124 -2z M1465 1771 c-8 -14
28 -31 44 -21 8 4 10 13 7 19 -9 13 -43 15 -51 2z M2524 1586 c-15 -12 -17
-18 -8 -33 6 -10 20 -18 30 -18 14 0 18 6 16 25 -4 35 -15 42 -38 26z M2931
1591 c-33 -21 23 -81 74 -81 19 0 49 46 41 65 -4 11 -11 13 -31 5 -20 -8 -27
-6 -31 5 -7 17 -32 19 -53 6z M121 1581 c-8 -5 -10 -14 -7 -20 9 -13 33 -15
40 -2 9 14 -18 31 -33 22z M224 1576 c-9 -23 40 -67 72 -66 30 1 47 -2 76 -14
24 -11 53 -3 53 14 0 9 -11 16 -28 18 -22 3 -27 7 -22 20 12 31 10 36 -11 40
-14 2 -29 -6 -41 -21 l-19 -25 -21 24 c-24 27 -51 31 -59 10z M954 1575 c-7
-17 3 -35 19 -35 17 0 48 38 37 45 -4 3 -11 -1 -14 -7 -5 -10 -7 -10 -12 0 -8
16 -23 15 -30 -3z M3204 1565 c-4 -9 -2 -21 4 -27 15 -15 44 -1 40 19 -4 23
-36 29 -44 8z M3103 1560 c-29 -12 -30 -46 -3 -53 23 -6 52 27 43 49 -6 16 -9
16 -40 4z M3274 1555 c-4 -9 -4 -18 -1 -21 10 -10 48 7 44 19 -6 19 -36 20
-43 2z M2618 1553 c-36 -9 -12 -53 29 -53 25 0 29 11 13 41 -11 19 -13 20 -42
12z M2854 1545 c-7 -18 12 -45 32 -45 16 0 37 37 29 50 -10 16 -55 12 -61 -5z
M2703 1543 c-18 -7 -16 -40 2 -47 25 -9 45 4 45 30 0 24 -17 30 -47 17z M120
1505 c7 -8 19 -15 26 -15 8 0 14 7 14 15 0 10 -10 15 -26 15 -22 0 -25 -2 -14
-15z M3014 1496 c-9 -24 4 -48 23 -44 12 2 18 12 18 28 0 29 -32 41 -41 16z
M3335 1500 c-8 -13 4 -70 17 -87 5 -6 15 -10 22 -7 8 3 16 -2 19 -10 10 -25
31 -18 52 17 10 17 29 40 42 50 32 26 30 49 -4 45 -21 -2 -27 -8 -25 -22 3
-14 -1 -17 -13 -12 -11 4 -24 -2 -36 -16 l-18 -23 -1 38 c0 33 -3 37 -24 37
-14 0 -28 -5 -31 -10z M3261 1486 c-6 -7 -23 -13 -37 -13 -31 0 -38 -7 -30
-28 9 -23 37 -31 50 -13 10 13 13 13 25 1 7 -8 18 -12 24 -10 17 5 21 45 7 63
-15 18 -24 18 -39 0z M3120 1475 c-17 -21 -3 -37 21 -25 10 6 19 15 19 19 0
16 -28 20 -40 6z M2805 1470 c3 -5 8 -10 11 -10 2 0 4 5 4 10 0 6 -5 10 -11
10 -5 0 -7 -4 -4 -10z M477 1443 c-4 -3 -7 -15 -7 -25 0 -20 25 -24 50 -8 13
8 12 11 -5 24 -23 17 -29 19 -38 9z M80 1418 c0 -8 9 -14 20 -14 24 0 21 20
-3 24 -9 2 -17 -3 -17 -10z M309 1392 c-9 -24 -12 -25 -20 -9 -11 19 -44 23
-54 7 -4 -6 -12 -7 -18 -3 -7 3 -4 -3 6 -14 9 -11 17 -24 17 -30 0 -10 22 -23
40 -23 5 0 12 9 15 21 6 16 9 18 22 8 15 -13 18 -11 43 33 10 17 8 20 -23 31
-13 5 -20 0 -28 -21z M394 1379 c-9 -16 10 -31 30 -23 13 5 14 9 5 20 -14 17
-25 18 -35 3z M3240 1380 c-13 -8 -13 -11 1 -25 19 -19 49 -10 49 16 0 21 -25
25 -50 9z M3653 1383 c-19 -7 -15 -31 7 -43 15 -8 21 -6 30 9 8 16 7 22 -7 29
-10 5 -24 7 -30 5z M3714 1375 c-7 -18 3 -35 22 -35 8 0 14 2 14 4 0 2 3 11 6
19 3 9 -3 16 -16 20 -13 3 -23 0 -26 -8z M50 1360 c0 -5 5 -10 10 -10 6 0 10
5 10 10 0 6 -4 10 -10 10 -5 0 -10 -4 -10 -10z M110 1364 c0 -3 10 -14 23 -24
16 -13 26 -15 35 -8 8 7 12 7 12 -1 0 -6 5 -11 10 -11 6 0 3 11 -6 25 -11 17
-25 25 -45 25 -16 0 -29 -3 -29 -6z M514 1359 c-3 -6 -1 -16 5 -22 8 -8 11 -5
11 11 0 24 -5 28 -16 11z M3517 1363 c-10 -9 13 -33 33 -33 22 0 30 9 23 26
-5 14 -44 19 -56 7z M3795 1360 c-9 -14 -6 -17 20 -22 13 -2 20 3 20 12 0 18
-30 26 -40 10z M3250 1304 c0 -27 20 -54 40 -54 21 0 28 15 22 47 -3 18 -11
23 -33 23 -20 0 -29 -5 -29 -16z M3356 1305 c-20 -21 -21 -59 0 -75 32 -27 67
45 35 74 -17 16 -20 16 -35 1z M3630 1307 c0 -7 6 -19 12 -25 10 -10 8 -14
-10 -18 -27 -8 -28 -24 -4 -54 17 -21 19 -21 35 -5 20 19 23 55 5 55 -6 0 -3
6 7 14 25 18 13 46 -20 46 -14 0 -25 -6 -25 -13z M3724 1306 c-3 -9 -4 -22 -1
-30 3 -8 -2 -16 -14 -19 -23 -6 -25 -30 -4 -47 21 -17 45 -5 45 24 0 13 7 27
16 30 24 9 14 50 -14 54 -13 2 -25 -3 -28 -12z M3512 1288 c4 -28 21 -33 42
-13 24 24 20 35 -15 35 -26 0 -30 -3 -27 -22z M4153 1303 c-7 -2 -13 -12 -13
-20 0 -12 7 -14 27 -8 36 9 41 14 23 25 -16 11 -19 11 -37 3z M410 1287 c0
-30 32 -38 103 -28 6 1 11 30 5 31 -2 1 -27 3 -55 6 -42 5 -53 3 -53 -9z
M3823 1274 c-15 -32 -1 -64 27 -64 15 0 20 7 20 24 0 14 5 28 10 31 21 13 10
35 -17 35 -20 0 -31 -7 -40 -26z M368 1283 c7 -3 16 -2 19 1 4 3 -2 6 -13 5
-11 0 -14 -3 -6 -6z M3435 1274 c-9 -9 -14 -23 -11 -31 3 -8 6 -17 6 -19 0 -2
8 -4 18 -4 23 0 52 30 52 53 0 22 -43 23 -65 1z M60 1268 c0 -18 57 -49 75
-42 31 12 10 34 -47 48 -20 4 -28 2 -28 -6z M200 1256 c-6 -8 -10 -25 -8 -38
3 -20 8 -23 41 -21 21 2 52 -4 68 -13 17 -8 38 -12 49 -9 23 7 34 35 15 36 -8
1 -19 3 -25 4 -5 1 -13 3 -16 4 -4 0 -1 8 6 16 12 15 11 16 -37 31 -7 2 -15
-1 -18 -6 -3 -6 -16 -5 -31 0 -32 12 -29 13 -44 -4z M3930 1259 c0 -6 -7 -17
-15 -25 -19 -20 -19 -30 1 -38 25 -9 56 16 60 47 2 23 -1 27 -22 27 -13 0 -24
-5 -24 -11z M4207 1248 c-19 -10 -21 -17 -8 -37 10 -16 51 2 51 23 0 19 -22
26 -43 14z M4118 1227 c-7 -8 -19 -12 -28 -10 -25 6 -43 -12 -35 -36 7 -25 27
-27 45 -6 7 8 20 15 30 15 10 0 23 7 31 16 10 13 10 17 -2 25 -19 12 -26 11
-41 -4z M461 1216 c-9 -11 -8 -15 5 -20 20 -8 34 1 34 20 0 18 -24 18 -39 0z
M543 1223 c-22 -8 -15 -42 7 -40 12 1 20 8 20 19 0 20 -10 27 -27 21z M4406
1214 c-14 -35 34 -59 53 -26 9 16 10 16 16 0 4 -10 15 -18 25 -18 23 0 44 26
36 45 -6 18 -56 20 -56 3 0 -9 -3 -9 -12 0 -17 17 -55 15 -62 -4z M4667 1213
c-14 -4 -16 -8 -6 -19 7 -9 33 -14 68 -15 31 -1 70 -5 86 -9 27 -7 25 -8 -17
-9 -27 0 -48 -5 -48 -11 0 -19 43 -32 83 -26 56 9 77 23 77 50 0 19 -7 25 -37
31 -45 9 -180 14 -206 8z M420 1201 c0 -5 7 -11 14 -14 10 -4 13 -1 9 9 -6 15
-23 19 -23 5z M4563 1203 c-19 -7 -15 -33 5 -33 25 0 46 16 38 29 -7 11 -22
13 -43 4z M4930 1176 c0 -8 5 -18 10 -21 6 -3 10 3 10 14 0 12 -4 21 -10 21
-5 0 -10 -6 -10 -14z M3290 1165 c0 -7 18 -15 42 -18 46 -6 58 -3 58 17 0 10
-15 14 -50 14 -33 0 -50 -4 -50 -13z M4262 1169 c-13 -5 -22 -15 -20 -21 6
-19 43 -21 56 -5 18 21 -6 37 -36 26z M3739 1152 c-26 -22 -21 -51 11 -59 32
-8 23 -25 -9 -18 -19 4 -41 0 -61 -10 -25 -13 -30 -20 -24 -38 3 -12 10 -26
14 -30 13 -14 75 -24 97 -16 33 12 92 -20 93 -51 0 -19 -3 -21 -12 -12 -17 17
-68 15 -68 -2 0 -7 10 -26 21 -41 19 -23 26 -26 58 -20 20 4 41 11 47 16 17
14 24 62 12 77 -8 9 -6 12 6 12 10 0 23 15 31 34 8 19 19 37 25 41 14 9 12 55
-2 56 -37 4 -81 -2 -113 -15 -41 -17 -47 -6 -10 18 20 13 24 22 19 39 -9 30
-22 37 -70 37 -26 0 -51 -7 -65 -18z m78 -18 c3 -8 1 -20 -5 -26 -15 -15 -43
8 -35 28 7 19 32 18 40 -2z m113 -84 c0 -5 -15 -10 -32 -9 -28 0 -30 2 -13 9
28 12 45 12 45 0z m-174 -25 c16 -12 17 -14 2 -15 -23 0 -48 11 -48 21 0 14
24 11 46 -6z m134 -37 c0 -13 -23 -5 -28 10 -2 7 2 10 12 6 9 -3 16 -11 16
-16z M213 1153 c-14 -5 -18 -24 -5 -21 4 1 18 -2 31 -6 20 -7 53 7 40 17 -9 8
-54 15 -66 10z M3448 1153 c-28 -7 -22 -33 7 -33 15 0 25 6 25 14 0 18 -10 24
-32 19z M3547 1142 c-11 -2 -17 -11 -15 -20 4 -20 48 -29 48 -10 0 7 9 2 20
-12 21 -28 38 -20 42 20 3 23 0 25 -37 26 -22 0 -48 -2 -58 -4z M4673 1131
c-5 -22 -30 -28 -108 -31 -59 -1 -82 -17 -63 -43 13 -16 56 -25 131 -26 47 -1
49 -21 2 -21 -31 0 -121 -15 -154 -26 -12 -4 -11 -9 6 -25 15 -15 38 -22 96
-26 99 -8 105 -28 10 -38 -36 -4 -72 -9 -79 -12 -41 -16 -10 -83 38 -83 23 0
29 4 24 15 -3 8 -9 21 -12 29 -4 11 7 15 50 18 l56 3 -3 -50 c-2 -44 1 -51 25
-64 15 -9 30 -13 33 -9 4 4 9 30 11 59 1 29 7 56 11 60 4 4 26 4 48 -2 69 -17
155 -20 155 -6 0 14 -112 37 -175 37 -32 0 -54 14 -41 28 6 5 134 4 191 -1 16
-2 21 5 23 35 3 35 2 36 -35 42 -21 3 -67 7 -101 8 -35 2 -66 6 -69 11 -2 4
43 5 101 3 84 -4 106 -2 106 8 0 8 -14 16 -31 20 -26 5 -29 8 -19 21 16 19 3
24 -87 33 -60 6 -68 9 -71 30 -4 30 -61 32 -69 3z m-20 -68 c-7 -2 -19 -2 -25
0 -7 3 -2 5 12 5 14 0 19 -2 13 -5z m182 -2 c37 -8 35 -9 -27 -10 -40 -1 -68
3 -68 9 0 12 39 12 95 1z m-235 -91 c0 -5 -4 -10 -10 -10 -5 0 -10 5 -10 10 0
6 5 10 10 10 6 0 10 -4 10 -10z m165 0 c3 -5 -1 -10 -9 -10 -9 0 -16 5 -16 10
0 6 4 10 9 10 6 0 13 -4 16 -10z m-128 -6 c-3 -3 -12 -4 -19 -1 -8 3 -5 6 6 6
11 1 17 -2 13 -5z m253 -3 l45 -8 -40 -1 c-22 -1 -58 3 -80 7 l-40 9 35 0 c19
0 55 -3 80 -7z M2933 1133 c-31 -6 -32 -49 -1 -59 24 -7 51 19 46 45 -3 17
-14 20 -45 14z M3238 1103 c-10 -3 -18 -13 -18 -24 0 -22 26 -25 53 -4 18 13
18 14 0 22 -10 5 -26 8 -35 6z M4130 1080 c0 -23 35 -28 43 -6 7 18 -1 26 -25
26 -11 0 -18 -7 -18 -20z M4385 1090 c-4 -6 -2 -17 5 -24 14 -18 52 -8 48 13
-4 19 -43 27 -53 11z M3141 1077 c-15 -18 9 -50 34 -46 25 5 29 23 10 43 -20
19 -29 20 -44 3z M3057 1063 c-4 -3 -1 -13 5 -21 7 -8 17 -24 23 -36 7 -13 20
-21 35 -21 21 0 24 4 22 25 -2 14 -11 33 -19 43 -16 17 -54 23 -66 10z M370
1050 c-11 -7 -12 -12 -3 -21 14 -14 46 -4 41 13 -6 16 -20 19 -38 8z M3256
1053 c-10 -10 -7 -73 4 -73 6 0 10 -9 10 -20 0 -16 7 -20 31 -20 24 0 30 4 27
18 -2 9 -10 16 -16 15 -7 -2 -12 2 -12 7 0 6 9 10 20 10 20 0 44 33 38 52 -4
11 -92 21 -102 11z M4160 1045 c-14 -7 -28 -11 -33 -8 -4 3 -19 6 -33 8 -17 1
-24 -3 -24 -14 0 -33 19 -46 68 -48 44 -1 51 1 61 24 17 38 -3 57 -39 38z
M3463 1043 c-20 -8 -16 -43 5 -43 23 0 64 29 57 41 -6 9 -41 11 -62 2z M4250
1022 c-40 -32 2 -59 43 -28 21 16 22 32 1 40 -21 8 -19 9 -44 -12z M2981 1009
c-19 -8 -21 -12 -11 -24 16 -19 34 -19 49 -1 17 20 -7 36 -38 25z M4393 983
c-23 -9 -14 -43 13 -53 38 -15 44 -13 44 15 0 20 -27 48 -42 44 -2 0 -9 -3
-15 -6z M3561 966 c-15 -17 14 -50 36 -42 8 3 26 6 39 6 23 0 43 24 31 36 -13
13 -95 13 -106 0z M4305 961 c-7 -13 21 -57 42 -66 9 -3 23 0 30 8 12 12 11
17 -4 34 -21 25 -59 38 -68 24z M3158 949 c-24 -14 -23 -42 3 -65 17 -15 23
-16 40 -6 11 7 24 10 28 7 13 -7 34 22 26 35 -4 7 -17 9 -30 6 -17 -4 -22 -2
-21 11 1 21 -22 27 -46 12z M3417 954 c-14 -14 -7 -42 12 -47 26 -6 44 7 39
29 -3 19 -38 31 -51 18z M2981 921 c-30 -19 11 -61 47 -46 9 4 28 8 42 9 15 1
26 8 28 19 3 14 -4 17 -36 17 -22 0 -46 2 -54 5 -7 3 -19 1 -27 -4z M3664 918
c-8 -13 30 -48 52 -48 20 0 29 27 14 45 -15 18 -56 20 -66 3z M3973 920 c-42
-17 -23 -57 21 -46 28 7 42 36 24 48 -16 9 -17 9 -45 -2z M4083 895 c-7 -20
14 -36 42 -33 12 2 20 11 20 23 0 26 -52 35 -62 10z M3410 875 c-8 -10 -8 -19
0 -34 15 -29 73 -28 102 1 20 20 20 22 3 34 -11 8 -24 10 -33 5 -9 -5 -26 -5
-38 -1 -16 6 -26 5 -34 -5z M3566 851 c-11 -17 6 -41 29 -41 26 0 50 24 40 40
-8 12 -62 13 -69 1z M3240 825 c0 -34 27 -43 52 -17 25 25 16 42 -23 42 -24 0
-29 -4 -29 -25z M4220 838 c0 -26 41 -79 58 -76 21 4 27 39 12 67 -12 23 -70
30 -70 9z M4320 810 c0 -30 5 -42 21 -51 18 -9 24 -8 31 5 5 9 19 16 32 16 23
0 56 28 56 48 0 14 -22 19 -87 21 l-53 1 0 -40z M3147 834 c-3 -3 -21 -6 -41
-8 -44 -2 -49 -8 -41 -45 8 -36 42 -52 61 -27 6 9 16 16 20 15 35 -6 55 44 24
61 -10 5 -20 7 -23 4z M4765 826 c-16 -11 -16 -13 0 -26 18 -15 72 -3 67 15
-4 17 -50 24 -67 11z M2959 806 c-8 -17 -17 -21 -43 -18 -19 2 -37 -1 -40 -7
-4 -6 -23 -11 -42 -11 -28 0 -35 -4 -32 -17 5 -25 49 -29 65 -7 7 10 13 13 13
7 0 -17 38 -22 51 -7 8 10 22 13 39 9 49 -11 75 53 27 66 -23 6 -30 4 -38 -15z
M3950 807 c0 -12 -9 -14 -41 -10 -32 5 -41 3 -37 -7 8 -24 36 -36 56 -24 11 7
26 8 41 2 18 -6 29 -5 40 7 18 18 8 31 -31 40 -21 6 -28 4 -28 -8z M3790 790
c-9 -16 -8 -21 4 -26 26 -10 51 0 51 21 0 28 -40 32 -55 5z M4130 791 c0 -5
-14 -8 -31 -7 -38 1 -49 -18 -20 -34 14 -7 27 -7 39 -1 10 5 24 6 31 2 23 -15
51 0 51 25 0 21 -5 24 -35 24 -19 0 -35 -4 -35 -9z M3450 780 c-13 -8 -13 -11
1 -25 19 -19 51 -9 47 14 -4 19 -27 25 -48 11z M3327 774 c-4 -4 0 -15 9 -25
18 -20 56 -14 52 10 -3 16 -48 28 -61 15z M4870 751 c0 -24 10 -31 51 -36 28
-4 30 -2 27 23 -3 23 -8 27 -40 30 -32 3 -38 0 -38 -17z M50 511 c0 -45 3 -81
7 -81 3 0 21 11 40 26 24 18 33 33 33 53 0 33 -25 66 -57 76 -23 6 -23 5 -23
-74z M156 560 c13 -25 14 -34 4 -40 -8 -5 -10 -17 -6 -33 3 -15 1 -31 -6 -39
-7 -7 -14 -22 -14 -33 -4 -70 -32 -138 -61 -149 -15 -6 -14 -9 7 -20 15 -7 32
-9 41 -5 9 5 31 4 48 -1 19 -5 31 -5 31 1 0 5 9 9 21 9 11 0 17 5 14 10 -3 5
-15 10 -25 10 -28 0 -31 13 -19 72 15 71 23 80 77 76 l44 -3 20 -64 c18 -59
18 -65 3 -73 -28 -16 2 -39 49 -37 23 1 51 -2 63 -6 17 -5 25 -3 30 11 4 10 2
19 -5 22 -7 2 -12 11 -12 20 0 15 -12 43 -71 168 -16 34 -29 71 -29 82 0 31
-26 40 -128 48 l-92 7 16 -33z m118 -65 c-3 -7 0 -16 6 -20 15 -9 -6 -25 -32
-25 -21 0 -24 39 -7 72 11 20 12 21 25 4 7 -10 10 -24 8 -31z M767 577 c-14
-9 20 -40 34 -31 5 3 5 -5 0 -18 -4 -13 -7 -36 -5 -53 2 -16 6 -59 8 -95 2
-36 7 -72 11 -81 4 -11 -3 -23 -20 -37 -23 -18 -24 -21 -8 -26 31 -10 233 0
244 11 7 7 12 29 13 50 1 36 -1 38 -31 41 -30 3 -33 1 -33 -26 0 -20 -7 -32
-24 -41 -37 -20 -46 -7 -45 67 1 37 3 59 6 50 5 -19 45 -34 61 -24 11 6 4 87
-8 100 -5 5 -22 1 -40 -7 l-31 -16 2 60 c2 58 3 59 31 59 23 0 28 -4 28 -25 0
-33 33 -51 55 -29 15 16 14 58 -2 74 -8 8 -234 6 -246 -3z M579 570 c-31 -4
-68 -16 -82 -26 -26 -19 -50 -85 -40 -110 3 -8 1 -14 -5 -14 -12 0 -6 -54 7
-58 5 -2 8 -9 6 -15 -6 -16 11 -35 60 -72 37 -28 45 -30 123 -29 46 1 87 5 92
10 5 5 10 34 11 64 l3 55 -44 8 c-25 4 -69 6 -98 5 -48 -3 -53 -1 -59 20 -7
30 4 83 23 110 18 26 61 29 90 7 25 -19 64 -19 64 0 0 17 -57 56 -80 54 -8 -1
-40 -5 -71 -9z m64 -225 c32 -6 57 -53 35 -66 -6 -4 -20 -3 -29 2 -10 5 -31 9
-46 9 -32 0 -53 16 -53 40 0 26 20 39 44 30 11 -5 34 -11 49 -15z M1885 571
c-3 -6 7 -16 22 -23 l28 -13 0 -139 c1 -104 -2 -139 -12 -143 -7 -3 -13 -9
-13 -14 0 -13 169 -7 173 6 1 6 -8 11 -21 13 -21 3 -23 8 -21 55 3 72 4 74 54
75 51 0 98 24 128 64 28 38 15 75 -38 105 -36 20 -54 23 -167 23 -70 0 -129
-4 -133 -9z m233 -30 c9 -5 11 -22 7 -56 -7 -58 -8 -59 -46 -61 -23 -1 -29 3
-30 20 0 11 -2 40 -3 64 -3 41 -2 42 28 42 17 0 37 -4 44 -9z M2234 569 c-2
-4 2 -12 10 -18 10 -8 12 -32 8 -94 -7 -116 -4 -184 8 -207 10 -18 21 -20 131
-20 l120 0 -3 53 -3 52 -37 3 c-40 3 -39 4 -42 -53 -1 -24 -54 -34 -67 -13 -9
14 -12 118 -4 118 3 0 14 -9 25 -20 21 -21 55 -27 65 -11 3 6 3 28 -1 50 -6
39 -9 41 -40 41 -24 0 -34 -5 -34 -15 0 -8 -5 -15 -11 -15 -6 0 -9 17 -5 48 2
26 5 55 5 65 1 12 9 17 29 17 26 0 29 -4 30 -32 1 -36 26 -60 57 -56 17 3 20
10 19 50 0 26 -4 51 -8 55 -10 10 -246 12 -252 2z M2563 572 c-38 -4 -45 -29
-10 -34 19 -3 23 -10 27 -61 3 -32 2 -61 -1 -63 -4 -2 -5 -40 -3 -84 5 -80 4
-80 -20 -80 -14 0 -28 -4 -31 -10 -4 -6 27 -10 87 -9 74 0 88 3 66 11 -30 10
-29 7 -32 141 -1 37 1 67 4 67 3 0 15 -21 28 -47 69 -147 92 -173 147 -173 72
0 76 8 67 140 -9 147 -7 160 24 160 14 0 24 -6 24 -15 0 -26 37 -38 65 -19 43
28 50 10 49 -124 -1 -66 -5 -125 -8 -131 -5 -8 16 -11 64 -11 39 0 69 4 66 8
-15 25 -20 77 -18 190 l2 82 30 0 c23 0 33 -6 40 -25 7 -18 17 -25 35 -25 26
0 28 4 27 54 -1 47 -5 48 -217 49 -55 0 -113 -1 -130 -2 -16 -2 -60 1 -96 4
-72 8 -100 -6 -55 -26 20 -9 25 -20 28 -58 1 -25 1 -66 -2 -91 l-6 -45 -40 85
c-23 47 -44 95 -48 107 -10 33 -65 44 -163 35z M3331 546 c-11 -13 -11 -17 4
-22 13 -5 15 -15 10 -48 -7 -40 -22 -107 -33 -136 -2 -8 -7 -33 -9 -55 -2 -22
-10 -43 -16 -47 -7 -4 7 -8 29 -8 41 0 42 1 49 42 4 24 7 47 6 52 -5 21 29 42
63 38 30 -4 37 -9 47 -41 6 -20 19 -48 27 -63 15 -26 21 -28 76 -28 l59 0 -27
21 c-14 11 -26 28 -26 36 0 9 -9 34 -19 57 -22 48 -51 138 -51 160 0 9 7 16
15 16 31 0 14 18 -22 23 -117 19 -169 19 -182 3z m96 -73 c-4 -3 0 -14 9 -24
21 -23 14 -54 -11 -54 -16 0 -20 6 -18 29 3 35 10 56 19 56 4 0 4 -3 1 -7z
M3745 546 c-53 -24 -83 -66 -92 -126 -11 -68 1 -108 47 -155 34 -35 35 -35
119 -35 125 0 164 16 106 42 -19 9 -29 8 -49 -6 -73 -47 -147 99 -89 178 22
31 37 28 41 -6 2 -15 10 -29 19 -32 20 -8 72 31 104 78 41 62 54 44 55 -79 0
-49 4 -108 9 -129 5 -27 4 -37 -3 -32 -6 3 -13 2 -17 -4 -4 -7 42 -10 134 -10
l140 0 21 30 c26 36 19 50 -22 50 -21 0 -45 -12 -74 -35 -23 -19 -44 -35 -46
-35 -3 0 -5 53 -7 118 -1 106 1 121 19 144 18 24 19 26 2 33 -30 12 -146 17
-170 8 -21 -8 -48 -7 -172 11 -30 4 -55 2 -75 -8z M4290 531 c0 -5 9 -12 20
-16 23 -7 39 -70 21 -88 -6 -6 -11 -48 -11 -104 l0 -93 61 0 c46 0 58 3 52 13
-4 6 -9 32 -10 57 -2 35 0 41 8 28 5 -10 20 -18 33 -18 31 0 35 -6 26 -46 l-8
-34 43 0 42 0 -1 38 c-1 33 -4 37 -28 40 -29 3 -30 5 -32 62 -1 32 -4 35 -33
38 -25 3 -33 -1 -33 -13 0 -9 -4 -14 -8 -11 -6 4 -8 52 -3 114 1 14 20 16 41
2 12 -8 13 -11 1 -19 -23 -15 -4 -51 28 -51 37 0 51 17 51 61 0 36 -1 37 -42
42 -72 10 -218 8 -218 -2z M1472 523 c-13 -3 -31 -12 -40 -22 -19 -19 -28 -71
-12 -71 5 0 10 -5 10 -11 0 -6 13 -23 29 -39 19 -20 32 -48 42 -89 l13 -61 38
0 c46 0 56 17 38 61 -16 38 -7 47 28 27 17 -10 33 -13 41 -8 11 6 6 18 -19 54
-38 57 -70 74 -104 58 -20 -9 -27 -7 -46 13 -18 20 -21 27 -11 39 10 12 16 12
38 1 24 -13 53 -11 53 4 -1 18 -47 53 -67 50 -4 -1 -18 -4 -31 -6z M4655 523
c-39 -10 -47 -25 -41 -72 8 -57 18 -68 69 -76 62 -11 93 -41 89 -87 -2 -21 -7
-38 -13 -38 -5 0 -9 -4 -9 -10 0 -6 30 -10 71 -10 l72 0 -6 59 c-7 83 -24 104
-95 116 -56 10 -57 11 -60 47 l-3 37 38 -6 c20 -4 45 -16 54 -27 14 -17 21
-19 45 -11 24 9 29 16 29 45 l0 35 -110 2 c-60 0 -119 -1 -130 -4z M1302 393
c-12 -2 -30 -16 -39 -30 -15 -23 -15 -27 1 -58 31 -56 95 -71 154 -35 40 25
42 57 6 99 -26 31 -54 37 -122 24z m68 -52 c17 -32 12 -43 -17 -39 -22 2 -29
9 -31 31 -3 22 1 27 17 27 11 0 25 -9 31 -19z M4618 286 c-10 -7 -18 -23 -18
-35 0 -19 6 -21 50 -21 41 0 50 3 50 18 0 9 -4 22 -8 29 -12 19 -55 24 -74 9z
M4928 233 c7 -3 16 -2 19 1 4 3 -2 6 -13 5 -11 0 -14 -3 -6 -6z"/>
</g>
</svg>
