<?xml version="1.0" standalone="no"?>
<!DOCTYPE svg PUBLIC "-//W3C//DTD SVG 20010904//EN"
 "http://www.w3.org/TR/2001/REC-SVG-20010904/DTD/svg10.dtd">
<svg version="1.0" xmlns="http://www.w3.org/2000/svg"
 width="500.000000pt" height="878.000000pt" viewBox="0 0 500.000000 878.000000"
 preserveAspectRatio="xMidYMid meet">
<metadata>
Created by potrace 1.16, written by Peter Selinger 2001-2019
</metadata>
<g transform="translate(0.000000,878.000000) scale(0.100000,-0.100000)"
fill="#000000" stroke="none">
<path d="M1964 7932 c-57 -7 -131 -26 -142 -35 -10 -7 -23 -7 -48 2 -42 15
-118 1 -174 -32 -19 -11 -47 -19 -63 -18 -15 1 -46 -9 -70 -21 -35 -19 -55
-22 -128 -19 -54 1 -89 -2 -94 -8 -3 -6 -16 -11 -28 -11 -38 0 -64 -27 -103
-106 -44 -88 -40 -107 28 -128 15 -4 15 -9 1 -53 -19 -64 -13 -179 13 -223 38
-65 101 -89 189 -73 26 6 27 6 20 67 -4 33 -14 79 -22 101 -35 99 -38 165 -9
165 8 0 16 -19 20 -52 8 -67 42 -176 48 -157 3 8 5 -15 4 -51 -1 -52 2 -65 14
-65 11 0 16 14 20 48 5 46 6 47 25 33 28 -22 50 -20 68 7 12 18 18 20 28 10
23 -23 44 -14 68 30 22 40 23 48 14 125 -5 45 -8 82 -6 82 2 0 12 -5 23 -12
31 -19 34 -2 12 53 -19 44 -20 57 -11 93 6 24 21 56 35 72 l24 29 -10 -29
c-11 -31 -7 -56 9 -56 6 0 14 12 17 28 4 15 17 41 29 57 13 17 24 39 26 50 11
57 336 82 495 38 39 -11 99 -35 134 -54 52 -27 70 -45 102 -94 43 -68 47 -90
18 -98 -14 -3 -21 -17 -26 -46 -4 -22 -12 -49 -20 -58 -12 -17 -13 -17 -19 -1
-4 9 1 30 9 47 19 35 21 87 4 97 -15 9 -40 -25 -33 -47 7 -22 -12 -72 -25 -64
-6 4 -6 15 0 31 12 31 13 94 2 112 -11 17 -42 4 -41 -17 0 -9 4 -40 8 -69 6
-45 5 -52 -8 -50 -13 3 -16 19 -17 86 -1 46 -5 86 -8 89 -17 17 -31 -23 -30
-83 1 -44 -3 -64 -11 -64 -8 0 -15 26 -20 75 -5 52 -11 75 -20 75 -18 0 -25
-23 -25 -79 0 -34 -5 -53 -18 -64 -24 -22 -37 -9 -16 14 14 15 14 25 2 86 -10
50 -18 69 -31 71 -16 3 -17 -4 -11 -77 4 -46 3 -81 -2 -81 -5 0 -10 23 -11 50
-2 73 -11 102 -30 98 -24 -5 -27 -24 -5 -46 15 -15 16 -20 4 -31 -8 -8 -11
-23 -8 -36 5 -21 1 -23 -48 -29 -30 -3 -61 -3 -69 0 -31 11 -127 -64 -127 -99
0 -7 -23 -23 -52 -37 -72 -35 -147 -143 -148 -212 0 -26 -2 -27 -27 -17 -18 7
-30 6 -37 -1 -14 -14 2 -28 39 -33 31 -4 33 -8 49 -114 5 -35 3 -43 -9 -43 -8
0 -15 9 -15 20 0 12 -7 20 -18 20 -36 0 -91 48 -102 90 -6 24 -17 40 -25 40
-8 0 -15 -4 -15 -10 0 -5 -4 -10 -10 -10 -5 0 -10 14 -10 30 0 17 -4 30 -8 30
-18 0 -47 -43 -44 -64 2 -12 -4 -35 -12 -51 -9 -17 -16 -39 -16 -50 0 -29 -17
-43 -45 -38 -21 5 -23 9 -18 40 8 50 -16 40 -36 -16 -14 -37 -14 -43 -1 -52 8
-5 22 -8 31 -5 9 2 22 0 29 -4 34 -21 80 32 80 90 0 38 11 38 34 -1 36 -62
174 -120 211 -89 19 16 27 -3 15 -36 -15 -39 -6 -58 25 -50 20 5 25 3 25 -13
0 -28 18 -36 39 -17 16 15 19 15 36 -4 17 -19 17 -20 -1 -26 -42 -13 -49 -22
-52 -64 -2 -32 1 -46 12 -52 17 -10 22 -28 7 -28 -5 0 -24 12 -42 28 -30 25
-40 27 -113 27 -80 0 -88 -2 -202 -57 -40 -19 -103 -85 -109 -114 -3 -16 -10
-37 -16 -47 -5 -9 -14 -52 -19 -95 -6 -42 -16 -87 -22 -99 -7 -14 -8 -47 -2
-100 5 -43 8 -94 6 -113 -5 -85 -2 -709 4 -724 3 -9 14 -16 23 -16 29 0 39
-19 31 -57 -5 -19 -13 -40 -18 -45 -15 -15 -3 -37 35 -71 31 -27 32 -31 18
-47 -21 -23 -19 -37 10 -56 22 -15 26 -23 24 -68 -1 -57 17 -145 35 -163 6 -7
34 -14 61 -17 43 -4 53 -2 63 15 7 10 8 19 3 19 -16 0 -4 143 13 155 12 9 14
32 10 121 -9 241 -15 331 -23 368 -14 56 2 33 42 -64 47 -114 79 -169 134
-230 25 -28 47 -63 49 -77 16 -146 16 -173 2 -173 -21 0 -46 -30 -59 -71 -7
-19 -22 -45 -34 -59 -21 -23 -95 -136 -95 -144 0 -2 -24 -44 -54 -93 -29 -49
-59 -107 -67 -129 -7 -21 -16 -43 -20 -49 -4 -5 -12 -26 -17 -45 -13 -42 -55
-156 -75 -202 -8 -18 -22 -52 -30 -74 -9 -23 -44 -101 -78 -173 l-62 -132 19
-26 c11 -15 34 -31 50 -37 16 -6 40 -21 52 -33 25 -26 52 -30 52 -9 0 7 -7 19
-15 26 -21 17 -12 65 32 165 19 44 41 94 48 110 15 35 43 118 76 225 12 41 42
113 66 160 24 47 43 92 43 100 0 8 8 29 19 46 10 17 22 41 26 55 13 42 94 207
105 214 6 3 8 10 6 14 -3 4 -1 13 4 21 7 12 13 12 34 1 26 -15 25 -31 -4 -66
-18 -21 -33 -49 -67 -125 -11 -25 -39 -84 -61 -131 -23 -48 -42 -90 -42 -94 0
-4 -20 -53 -44 -109 -64 -147 -134 -339 -157 -431 -7 -27 -16 -56 -22 -62 -5
-7 -7 -13 -4 -13 3 0 -2 -21 -10 -48 -23 -73 -53 -193 -53 -211 0 -19 62 -53
82 -46 7 3 21 -8 30 -25 10 -17 28 -32 45 -35 15 -4 51 -17 78 -31 28 -13 62
-24 76 -24 25 0 25 -1 18 -57 -4 -32 -7 -150 -7 -263 0 -113 -5 -226 -11 -252
-12 -50 -7 -78 14 -78 23 0 37 126 36 330 -1 107 3 219 9 248 6 32 6 60 1 70
-6 11 -5 23 4 35 11 15 13 11 19 -32 8 -59 24 -75 72 -69 29 3 43 -1 62 -19
29 -27 92 -32 112 -9 8 11 18 12 35 6 13 -5 35 -5 50 -1 22 5 31 17 43 54 20
62 25 55 10 -14 -14 -66 1 -105 47 -129 17 -8 32 -16 34 -17 2 -1 -11 -36 -28
-78 -18 -41 -43 -115 -57 -163 -14 -48 -29 -91 -35 -97 -5 -5 -9 -17 -9 -26 0
-9 -16 -37 -36 -61 -84 -99 -141 -190 -134 -214 1 -4 -4 -10 -10 -14 -8 -5 -7
-12 5 -24 14 -14 15 -21 4 -54 -18 -56 -56 -120 -112 -189 -52 -65 -57 -68
-73 -55 -14 13 -196 2 -191 -11 2 -6 14 -14 28 -18 13 -4 18 -7 12 -8 -23 -2
-13 -30 12 -37 22 -5 36 -3 90 12 6 2 20 5 33 8 13 3 35 11 50 18 15 8 38 11
51 8 24 -5 22 -8 -32 -55 -31 -27 -57 -52 -57 -57 0 -23 58 2 108 46 12 11 22
15 22 10 0 -5 -9 -15 -21 -22 -11 -7 -27 -29 -35 -48 -15 -36 -61 -63 -134
-79 -19 -4 -41 -12 -48 -17 -8 -7 -17 -6 -28 3 -9 8 -22 14 -28 14 -6 0 -26 4
-45 9 -24 6 -30 11 -20 17 19 12 -1 43 -30 47 -11 2 -21 10 -21 19 0 15 2 15
63 -4 25 -8 21 19 -5 37 -13 8 -30 18 -38 22 -8 5 0 5 18 2 39 -7 42 9 7 42
-14 13 -25 28 -25 34 0 7 7 5 16 -4 24 -25 37 -20 30 12 -10 43 -8 153 4 202
6 25 13 54 15 64 2 11 15 35 27 55 13 20 32 53 43 75 11 21 30 48 42 60 27 25
30 49 6 44 -15 -3 -81 -83 -82 -101 -1 -4 -11 -19 -24 -32 -12 -14 -35 -59
-51 -100 -16 -42 -37 -82 -48 -89 -29 -21 -70 -132 -67 -185 2 -60 -10 -139
-24 -148 -13 -8 -120 -6 -160 3 -24 5 -28 10 -25 36 2 24 9 32 27 35 50 7 87
62 100 145 6 38 5 53 -7 64 -11 12 -14 36 -13 98 2 63 -1 86 -13 95 -8 7 -18
27 -21 44 -11 48 -43 96 -78 114 -36 18 -123 21 -154 5 -17 -9 -24 -7 -47 17
-48 50 -164 65 -197 25 -9 -12 -15 -11 -36 6 -14 11 -36 20 -48 20 -23 0 -47
20 -44 36 4 23 -4 31 -46 43 -56 16 -105 8 -165 -27 -42 -25 -53 -26 -177 -27
-118 0 -134 -2 -160 -21 -18 -14 -27 -29 -25 -42 2 -13 -5 -26 -17 -34 -19
-12 -21 -22 -20 -118 0 -58 3 -99 6 -92 2 6 9 10 14 6 5 -3 3 -15 -6 -27 -21
-29 -21 -101 0 -93 8 3 15 1 15 -4 0 -6 -7 -10 -15 -10 -9 0 -15 -9 -15 -25 0
-17 6 -25 18 -25 16 -1 16 -1 0 -11 -24 -13 -24 -59 0 -59 9 0 26 -7 36 -15
11 -8 27 -15 37 -15 20 0 27 -23 21 -72 -4 -39 -18 -48 -79 -48 l-33 0 0 -95
c0 -108 -4 -104 88 -80 31 8 69 17 84 20 16 3 28 10 28 17 0 6 8 17 18 24 38
30 -29 41 -105 18 -17 -5 -23 -2 -23 9 0 18 15 24 57 21 24 -1 33 3 38 20 6
18 8 19 12 3 4 -17 11 -19 63 -21 18 -1 25 -7 25 -21 0 -24 28 -31 47 -11 15
15 34 14 101 -2 20 -6 39 -6 42 -2 5 8 55 1 70 -10 6 -4 26 -11 45 -15 19 -4
56 -18 81 -31 26 -13 68 -28 95 -34 58 -14 94 -30 94 -42 0 -5 -15 -6 -32 -3
-18 3 -62 8 -98 11 -36 4 -84 12 -108 20 -60 20 -82 18 -82 -6 0 -14 15 -27
50 -45 55 -28 66 -39 22 -23 -22 9 -36 8 -60 -5 -18 -8 -34 -12 -37 -8 -2 5
-21 6 -42 3 -53 -7 -71 -6 -131 6 -47 10 -58 9 -106 -12 -47 -21 -59 -22 -110
-14 -64 11 -108 5 -100 -15 6 -16 59 -49 67 -41 3 3 19 -2 36 -10 16 -9 39
-16 50 -16 11 0 35 -9 53 -21 23 -14 27 -19 13 -18 -11 2 -34 -4 -51 -13 -23
-13 -40 -15 -70 -8 -30 7 -42 6 -56 -7 -25 -22 -13 -33 33 -33 28 0 39 -4 36
-12 -2 -9 -24 -12 -70 -10 -51 2 -67 0 -67 -10 0 -9 13 -14 38 -14 20 -1 58
-2 84 -4 52 -3 103 21 95 45 -8 19 13 35 48 35 37 0 70 21 63 41 -3 9 9 20 31
30 l36 17 -25 9 c-17 7 -36 7 -60 -1 -46 -15 -97 -13 -140 8 -19 9 -26 14 -16
11 10 -3 49 4 85 15 63 20 70 21 131 6 57 -13 69 -13 94 0 30 15 96 10 96 -7
0 -5 9 -9 20 -9 11 0 20 7 20 14 0 13 5 13 36 0 41 -17 69 -4 61 28 -4 13 3
23 23 33 25 13 33 12 81 -7 75 -28 109 -33 120 -17 9 15 2 57 -14 77 -15 19 3
14 68 -19 47 -24 77 -32 140 -36 44 -3 86 -10 93 -16 8 -6 30 -10 49 -9 l35 3
-23 -43 c-13 -24 -32 -54 -41 -67 -10 -13 -18 -32 -18 -42 0 -11 -4 -19 -9
-19 -8 0 -18 -30 -27 -79 -5 -26 8 -33 27 -15 10 9 19 21 19 26 0 5 29 69 63
141 60 123 77 169 92 241 5 25 9 27 33 22 15 -4 35 -7 45 -7 9 0 17 -4 17 -10
0 -5 -4 -9 -10 -9 -26 0 -5 -20 36 -36 42 -16 44 -18 24 -26 -32 -12 -19 -31
31 -45 l44 -11 -47 -1 c-27 -1 -48 -5 -48 -11 0 -5 5 -11 10 -11 6 -1 15 -3
20 -4 6 -1 17 -3 26 -4 8 0 12 -6 9 -11 -4 -6 -10 -8 -14 -6 -4 3 -13 1 -21
-4 -11 -7 -10 -11 3 -25 10 -9 17 -22 17 -28 -1 -18 -47 -67 -64 -67 -28 0
-28 -22 0 -45 33 -26 27 -45 -7 -21 -16 11 -27 12 -41 5 -13 -7 -18 -6 -18 3
0 9 -3 9 -12 0 -13 -13 -8 -22 15 -26 28 -4 77 -63 77 -94 0 -40 -28 -51 -36
-14 -4 15 -13 35 -22 44 -41 47 -157 79 -150 41 2 -11 14 -19 30 -21 14 -2 29
-10 32 -19 4 -11 2 -14 -9 -10 -27 11 -26 -12 5 -54 38 -53 38 -63 0 -41 -16
9 -30 22 -30 28 0 15 -23 24 -59 24 -35 0 -76 -41 -59 -58 7 -7 8 -12 3 -12
-5 0 2 -11 14 -24 13 -14 29 -22 37 -19 10 4 14 -3 14 -22 0 -15 -4 -24 -10
-20 -5 3 -10 1 -10 -4 0 -6 -16 -11 -35 -11 -19 0 -35 -4 -35 -8 0 -13 33 -40
54 -43 11 -2 21 -9 23 -16 7 -21 -41 -10 -60 14 -21 26 -57 31 -57 9 0 -8 4
-17 8 -20 7 -4 8 -38 3 -69 -2 -16 -21 5 -21 24 0 18 -6 20 -47 17 -40 -2 -49
-7 -51 -24 -2 -15 3 -23 17 -27 14 -3 21 0 21 9 0 8 5 14 10 14 6 0 10 -16 10
-35 0 -28 -4 -35 -19 -35 -11 0 -23 -4 -26 -10 -6 -10 -40 -8 -51 3 -4 4 -17
7 -29 7 -13 0 -28 7 -35 15 -10 12 -7 22 18 53 17 21 33 54 37 74 4 20 13 39
21 42 8 3 14 12 14 20 0 8 6 21 12 28 17 18 37 49 44 68 3 8 26 31 49 50 47
38 57 60 26 60 -16 0 -77 -61 -102 -102 -4 -6 -16 -4 -31 6 -24 16 -25 15 -37
-11 -10 -22 -10 -28 3 -35 22 -12 20 -26 -9 -63 -13 -18 -21 -35 -18 -39 4 -3
1 -6 -5 -6 -6 0 -13 4 -16 9 -3 4 -35 8 -71 7 -39 -1 -65 3 -64 9 1 21 35 95
41 89 4 -3 4 -12 1 -20 -5 -14 50 -44 82 -44 20 0 21 92 2 109 -8 6 -12 23 -9
39 5 40 -23 63 -71 55 -20 -3 -37 -9 -37 -13 0 -14 -65 6 -65 20 -1 24 -25 61
-36 55 -5 -4 -9 4 -9 16 0 21 1 21 18 6 19 -18 42 -23 42 -9 0 4 -7 20 -15 35
-14 27 -14 28 8 22 12 -4 28 -15 36 -26 10 -14 17 -16 32 -8 10 5 19 16 19 24
0 22 -61 54 -93 48 -16 -3 -27 -1 -27 6 0 14 -73 14 -87 0 -6 -6 -9 -18 -6
-25 3 -9 -2 -14 -14 -14 -30 0 -56 -35 -57 -76 -1 -30 3 -38 23 -45 19 -7 22
-6 17 6 -7 19 1 19 21 0 21 -21 35 -8 28 25 -4 17 -2 31 5 35 7 4 10 1 9 -6
-2 -15 6 -56 22 -106 16 -51 2 -58 -42 -18 -44 40 -49 41 -89 20 -23 -12 -30
-13 -30 -3 0 7 -9 19 -19 25 -15 10 -22 9 -31 -2 -15 -18 -6 -45 13 -45 8 0
22 -9 33 -21 14 -16 27 -20 54 -16 47 6 80 -20 80 -62 0 -28 -2 -31 -19 -22
-14 8 -22 7 -32 -5 -11 -14 -10 -18 5 -29 10 -8 16 -20 14 -27 -3 -7 5 -25 18
-41 14 -16 21 -34 17 -44 -5 -13 -9 -11 -19 10 -16 30 -44 43 -56 25 -12 -19
-11 -22 21 -59 24 -27 27 -35 15 -42 -16 -9 -19 -53 -4 -62 6 -4 8 -11 5 -16
-4 -5 -17 4 -30 19 -41 49 -143 34 -165 -24 -14 -37 -13 -43 15 -50 39 -10 28
-57 -12 -50 -17 4 -20 1 -16 -11 5 -12 1 -14 -18 -7 -13 4 -33 6 -44 5 -31 -4
-39 -4 -50 -1 -31 7 -55 -1 -55 -20 0 -14 7 -20 24 -20 28 0 42 -26 19 -34
-22 -9 4 -39 28 -33 10 3 26 -4 35 -14 13 -15 25 -18 46 -14 38 9 36 -7 -3
-24 -28 -12 -35 -12 -59 3 -16 9 -35 16 -43 16 -19 0 -87 78 -81 93 2 7 5 27
7 45 2 33 3 34 56 37 32 3 61 11 72 21 18 16 18 17 -3 35 -25 23 -31 23 -86 4
-38 -14 -45 -14 -58 0 -9 8 -22 15 -30 15 -19 0 -18 34 1 50 22 18 18 35 -10
48 -37 17 -59 15 -75 -7 -7 -11 -17 -18 -22 -15 -16 10 -8 -20 11 -40 11 -12
23 -34 26 -51 7 -27 6 -28 -7 -12 -8 11 -28 19 -48 20 l-35 2 -3 -52 -3 -52
40 -12 c51 -15 53 -27 4 -25 -37 1 -38 0 -41 -36 -3 -30 0 -37 12 -32 11 4 14
-2 14 -25 -1 -40 3 -43 40 -30 22 8 36 7 52 -1 27 -15 19 -24 -23 -24 -29 -1
-32 -4 -32 -31 0 -28 -2 -30 -32 -27 -30 3 -33 1 -33 -22 l0 -26 93 0 c295 0
1212 -16 1522 -26 148 -4 954 -11 2340 -19 462 -3 857 -7 878 -10 34 -5 37 -3
37 19 0 20 -6 24 -46 30 -26 3 -62 6 -81 6 -23 0 -32 4 -27 11 7 11 -12 29
-31 29 -5 0 -17 -5 -25 -10 -13 -9 -13 -11 0 -21 11 -7 -7 -9 -65 -5 -44 4
-297 7 -563 7 -265 1 -484 5 -487 9 -2 3 19 7 47 8 28 0 54 5 59 9 4 4 3 29
-2 56 -9 40 -14 47 -35 47 -22 0 -28 -8 -25 -35 0 -6 -11 -11 -27 -10 -22 0
-26 -4 -24 -23 3 -18 -2 -22 -22 -22 -32 0 -35 -27 -3 -33 12 -2 -250 -3 -583
-2 -892 4 -797 1 -804 29 -3 14 -14 27 -24 29 -11 3 -8 5 9 6 15 0 32 8 39 16
9 11 16 13 24 5 5 -5 18 -10 27 -10 9 0 23 -7 30 -16 17 -20 82 -13 110 12 10
9 19 12 19 6 0 -6 -6 -12 -12 -15 -21 -7 -1 -20 29 -19 67 3 91 8 105 19 11
10 19 9 35 -2 14 -10 29 -12 49 -6 16 4 38 5 49 0 29 -11 83 -11 90 1 3 6 17
10 30 10 20 0 24 5 22 22 -1 14 6 26 20 33 13 7 31 19 41 28 19 18 32 14 32
-9 0 -8 -11 -16 -25 -20 -32 -8 -22 -24 16 -24 48 0 93 62 54 76 -12 5 -12 9
1 29 14 21 14 27 -1 55 -14 26 -21 31 -41 26 -19 -5 -24 -2 -24 12 0 11 -9 27
-20 37 -20 18 -24 60 -8 81 10 14 51 6 42 -7 -9 -15 16 -49 36 -49 19 0 36 32
25 50 -3 5 -16 10 -28 11 -20 1 -20 1 3 8 38 12 70 34 70 48 0 7 7 13 15 13
13 0 13 -3 3 -20 -17 -26 0 -54 34 -58 24 -3 127 42 139 61 4 5 4 18 1 29 -5
20 -26 32 -74 42 -35 8 -36 33 -3 48 14 6 25 16 26 22 0 6 2 19 4 28 6 31 -30
51 -76 44 -56 -9 -79 -23 -79 -47 0 -13 11 -25 31 -33 l32 -13 -21 -19 c-51
-46 -48 -46 -99 -14 -26 16 -53 30 -60 30 -20 0 -93 51 -87 61 9 15 24 10 24
-7 0 -8 17 -22 37 -31 51 -21 68 -8 68 48 0 36 3 43 18 41 19 -3 23 13 6 23
-20 13 -57 -5 -67 -32 -9 -25 -11 -25 -11 -6 -1 12 3 25 9 28 6 3 10 10 10 16
0 13 -44 11 -58 -3 -14 -14 -81 -11 -99 4 -13 11 -53 2 -53 -12 0 -5 12 -17
26 -26 20 -14 27 -15 33 -5 6 9 10 6 14 -9 4 -17 2 -20 -11 -15 -9 4 -35 11
-57 17 -22 5 -59 22 -82 38 -23 17 -46 30 -52 30 -6 0 -16 10 -22 23 -7 12
-18 25 -25 30 -12 7 -13 132 -1 197 13 72 21 126 19 132 -2 10 12 10 21 1 4
-3 35 -8 70 -10 34 -3 89 -9 122 -14 33 -5 69 -11 80 -12 11 -1 24 -8 28 -14
4 -7 28 -13 52 -13 25 0 45 -4 45 -9 0 -5 8 -12 18 -14 9 -3 -17 -3 -58 0 -41
3 -83 9 -94 12 -10 4 -44 4 -74 -1 -34 -5 -66 -5 -83 1 -20 7 -32 6 -45 -3
-16 -12 -14 -14 20 -26 34 -11 64 -10 121 3 11 2 26 0 33 -6 8 -6 39 -16 70
-23 32 -7 46 -13 32 -13 -14 -1 -32 -6 -40 -11 -28 -18 10 -30 90 -28 41 1
109 -4 150 -12 71 -12 73 -14 42 -22 -18 -5 -32 -14 -29 -21 5 -15 64 -27 98
-20 23 4 253 -21 308 -34 20 -5 21 -7 7 -15 -23 -13 -20 -32 9 -66 32 -38 31
-42 -6 -42 -27 0 -30 -3 -23 -22 10 -33 14 -35 30 -14 11 16 17 17 26 8 7 -7
43 -12 88 -12 41 -1 109 -7 150 -15 41 -8 90 -17 109 -19 19 -2 38 -11 43 -20
6 -11 18 -14 41 -9 31 5 31 5 12 -10 -16 -13 -18 -19 -9 -34 18 -28 41 -27 56
4 12 25 16 27 63 23 28 -2 65 -4 83 -4 17 -1 32 -5 32 -9 0 -5 5 -5 10 -2 6 3
20 3 32 -1 21 -6 21 -7 3 -20 -14 -11 -16 -17 -7 -26 8 -8 26 -7 71 6 63 18
193 16 316 -5 33 -5 113 -11 177 -12 l118 -2 -3 145 c-2 144 -2 145 -25 148
-13 2 -31 -3 -40 -11 -15 -13 -34 -15 -75 -8 -5 0 -5 6 -2 11 4 6 11 8 16 5 5
-4 4 6 -1 21 -6 15 -8 29 -6 32 3 2 35 5 71 6 45 1 65 5 65 14 0 13 -9 14
-120 12 -87 -2 -103 -10 -89 -47 9 -25 9 -26 -15 -9 -14 9 -37 16 -51 16 -23
0 -25 4 -25 40 0 36 -4 41 -32 53 -44 18 -88 10 -88 -15 0 -15 -6 -19 -27 -18
-16 1 -32 1 -38 0 -5 -1 -40 -1 -77 0 -46 1 -78 -4 -105 -17 -52 -25 -86 -24
-98 5 -13 30 -39 36 -70 16 -29 -19 -100 -31 -90 -14 3 5 -5 15 -19 21 -22 10
-33 8 -77 -14 -63 -33 -73 -33 -87 -2 -6 14 -17 25 -24 25 -35 -1 -58 -15 -73
-46 -9 -20 -25 -36 -38 -38 -60 -13 -76 -12 -81 1 -9 24 -51 35 -171 48 -86 9
-109 16 -145 44 -52 41 -75 51 -118 51 -24 0 -47 7 -60 19 -27 22 -28 30 -4
30 9 0 87 1 172 2 85 1 196 -3 245 -10 50 -6 127 -13 171 -15 65 -3 85 -7 101
-23 14 -14 35 -20 74 -22 79 -3 581 -4 604 -1 47 6 255 -3 255 -10 0 -15 43
-27 103 -29 28 -1 36 -4 31 -13 -6 -9 -3 -9 9 0 9 8 20 11 25 9 4 -3 14 -1 22
4 13 8 13 10 0 19 -8 5 -21 8 -27 5 -7 -2 -13 -1 -13 3 0 5 6 14 13 22 6 8 3
7 -9 -3 -26 -22 -76 -23 -68 -2 4 8 2 15 -2 16 -5 0 -67 2 -139 4 -71 1 -168
6 -215 10 -47 4 -101 9 -120 10 -58 4 -61 5 -56 13 3 5 18 10 33 11 15 1 47 3
70 4 23 2 45 6 49 10 4 4 16 7 26 7 11 0 18 5 15 13 -3 8 -34 12 -108 12 -57
0 -109 3 -114 7 -15 9 -434 23 -554 19 l-24 -1 23 -20 c20 -17 34 -19 104 -16
45 2 91 0 103 -5 13 -5 25 -4 28 1 8 13 80 7 98 -9 9 -7 22 -9 28 -5 18 11 83
12 90 1 4 -5 19 -9 33 -9 19 0 26 -5 22 -14 -3 -8 6 -20 22 -29 l27 -16 -42 6
c-23 3 -108 5 -189 6 -136 0 -147 1 -151 20 -4 14 -15 19 -42 20 -134 5 -271
18 -271 28 0 4 27 6 60 5 33 -1 60 2 60 7 0 5 -6 9 -13 9 -8 0 -23 8 -35 18
-20 18 -19 19 76 45 115 32 120 32 118 9 -1 -15 8 -17 84 -13 47 2 116 11 154
21 39 11 77 15 88 11 11 -4 43 -4 72 0 28 4 71 10 96 13 l45 6 -45 -14 c-88
-28 -159 -40 -183 -29 -27 11 -59 6 -54 -10 7 -22 82 -22 190 0 59 12 113 25
120 30 6 4 21 9 32 10 11 1 54 7 95 13 42 6 112 8 160 5 47 -4 99 -8 115 -10
17 -1 39 -3 49 -3 11 -1 17 -4 14 -7 -3 -3 -54 -6 -114 -8 -91 -2 -114 -5
-139 -23 -17 -11 -45 -26 -62 -33 -18 -8 -33 -20 -33 -27 0 -19 34 -18 50 1 7
8 19 15 26 15 7 0 33 10 56 22 38 21 56 23 166 22 67 -1 122 2 122 7 0 5 -10
9 -22 9 -18 0 -20 2 -8 10 28 18 -7 34 -76 36 -45 1 -72 7 -85 18 -22 18 -67
20 -136 6 -63 -13 -173 -17 -173 -6 0 4 -10 5 -22 2 -57 -17 -298 -42 -298
-31 0 8 98 27 132 26 21 -1 55 8 80 21 38 20 58 23 173 23 72 0 156 -4 188 -8
88 -13 74 28 -20 56 -28 8 -63 22 -79 30 -16 8 -53 18 -83 21 -29 3 -57 8 -62
11 -5 4 -28 10 -51 15 -36 8 -29 9 37 5 125 -7 181 -20 287 -70 32 -14 79 -29
105 -31 27 -3 63 -9 81 -14 24 -6 32 -5 32 5 0 16 -16 21 -85 30 -27 3 -64 14
-81 24 -89 53 -276 89 -497 97 -254 8 -260 9 -284 22 -16 9 -24 9 -29 1 -12
-20 27 -39 80 -38 28 0 65 -4 81 -9 17 -5 65 -8 106 -5 41 2 85 -1 99 -7 24
-10 24 -10 -5 -6 -16 2 -93 1 -170 -4 -131 -7 -146 -10 -223 -44 -46 -20 -96
-36 -110 -36 l-27 0 24 19 c18 14 20 19 9 23 -26 10 -107 -11 -145 -37 -29
-19 -50 -25 -88 -24 -40 0 -45 2 -28 9 13 5 46 25 75 45 29 19 60 35 68 35 8
0 22 5 30 10 13 9 13 11 0 20 -24 16 -32 13 -111 -38 -41 -27 -96 -57 -122
-67 -50 -19 -69 -35 -43 -35 9 0 16 -4 16 -10 0 -5 -7 -7 -15 -4 -9 4 -15 1
-15 -8 0 -10 -20 -14 -80 -15 -44 -1 -93 -4 -110 -8 -24 -5 -29 -4 -24 8 8 22
-9 28 -56 21 -50 -8 -48 -29 4 -28 58 2 42 -13 -27 -25 -77 -13 -202 -14 -172
-1 11 5 35 9 53 9 18 1 43 6 54 12 21 11 21 12 3 25 -17 13 -16 14 14 14 48 0
34 24 -17 28 -23 2 -50 -2 -61 -8 -14 -7 -61 -7 -158 0 -205 15 -252 17 -247
9 10 -16 -9 -38 -32 -37 -28 3 -30 11 -8 32 10 11 11 16 3 16 -7 0 -10 2 -7 5
7 8 288 18 414 16 88 -2 123 2 170 18 65 22 104 30 179 37 36 3 44 2 29 -5
-17 -7 -109 -23 -148 -25 -5 -1 -11 -7 -13 -13 -3 -8 6 -13 24 -14 24 0 25 -2
8 -8 -11 -5 -25 -6 -31 -4 -16 6 -64 -15 -64 -28 0 -21 242 19 287 47 12 8 46
19 75 25 48 11 194 88 243 129 24 20 89 56 128 70 39 14 25 30 -18 20 -36 -8
-104 -45 -168 -91 -21 -15 -52 -31 -69 -34 -17 -4 -46 -16 -64 -27 -39 -23
-144 -50 -144 -37 0 5 5 9 11 9 5 0 7 5 4 10 -3 6 -27 10 -52 10 -64 0 -46 13
19 14 43 1 53 4 50 17 -2 12 8 19 35 24 47 8 122 47 188 94 27 21 64 43 82 50
27 11 58 39 136 122 31 34 55 23 145 -66 82 -82 107 -96 128 -75 12 12 138 -6
167 -24 12 -8 83 -28 157 -44 133 -30 189 -33 370 -19 14 1 37 -2 53 -6 20 -6
27 -4 27 7 0 22 -57 29 -168 22 -53 -3 -122 -2 -152 3 -129 21 -222 43 -272
65 -33 14 -84 26 -135 31 l-81 7 -55 53 c-30 30 -57 59 -59 65 -2 6 -22 17
-44 25 -55 19 -108 3 -137 -40 -31 -45 -84 -88 -147 -119 -30 -15 -57 -31 -60
-35 -8 -12 -82 -55 -120 -70 -19 -8 -73 -17 -120 -20 -51 -4 -106 -16 -138
-29 -84 -35 -122 -40 -372 -47 -129 -4 -237 -9 -239 -11 -11 -10 -30 20 -23
35 5 9 9 53 11 99 2 66 -1 87 -14 102 -15 16 -15 23 0 81 9 35 24 102 35 149
31 136 57 220 91 296 19 41 25 74 33 189 10 129 27 309 29 312 2 1 19 4 40 7
82 10 113 31 123 82 3 18 1 48 -5 66 -6 18 -14 95 -17 173 -3 77 -7 160 -10
185 -2 25 -6 90 -9 145 -3 55 -10 133 -15 173 -10 72 -14 229 -6 221 2 -2 7
-51 11 -109 7 -118 24 -270 31 -281 2 -4 7 -34 10 -66 2 -32 9 -78 14 -103 5
-25 11 -67 14 -95 6 -55 15 -95 26 -110 4 -5 13 -27 19 -47 13 -39 7 -59 -33
-105 -15 -18 -17 -25 -7 -37 20 -24 70 4 96 54 12 23 9 36 -25 122 -32 81 -43
125 -60 259 -11 89 -18 169 -15 178 3 10 -1 31 -9 47 -9 18 -17 78 -21 154 -5
79 -17 169 -35 245 -38 167 -41 183 -29 191 7 4 10 70 8 182 -1 107 3 188 9
204 15 36 18 141 8 263 l-8 100 24 -22 c26 -25 62 -30 74 -11 4 6 -1 17 -12
24 -10 7 -25 18 -32 25 -7 6 -22 9 -33 6 -11 -3 -19 0 -19 6 0 17 13 32 28 33
6 1 16 2 22 3 5 0 14 18 19 38 8 29 7 40 -4 53 -8 9 -15 21 -15 27 0 6 -6 13
-14 16 -7 3 -16 17 -18 31 -6 30 -2 32 18 11 22 -22 62 -29 79 -15 24 20 18
36 -20 59 -35 20 -49 49 -19 37 10 -4 25 1 35 10 15 14 16 18 4 30 -7 8 -18
14 -22 14 -13 0 -68 59 -61 66 3 3 16 -1 27 -8 16 -10 26 -10 39 -2 29 19 26
41 -7 52 -32 11 -42 32 -16 32 17 0 35 30 35 59 0 11 6 35 14 53 8 18 20 53
26 78 29 106 31 109 57 99 32 -12 33 -12 33 6 0 7 -7 18 -16 23 -10 5 -14 14
-9 21 5 9 12 8 26 -5 15 -13 22 -15 31 -6 9 9 7 15 -8 27 -18 14 -18 14 8 15
15 0 39 -5 53 -10 22 -8 34 -5 70 16 25 14 48 23 53 20 9 -5 7 -70 -3 -86 -4
-7 -13 -6 -25 0 -46 25 -120 -1 -85 -30 18 -15 20 -40 3 -40 -19 -1 -64 -38
-55 -46 4 -4 24 -10 44 -13 34 -6 38 -9 37 -36 -7 -182 -15 -280 -24 -289 -5
-5 -10 -23 -10 -39 0 -59 -24 -163 -42 -183 -10 -12 -31 -27 -46 -35 -51 -25
-61 -38 -55 -74 5 -31 2 -36 -31 -56 -41 -24 -46 -39 -13 -39 35 0 79 42 83
78 3 22 17 44 48 72 45 42 71 85 80 133 2 14 8 32 12 38 7 12 8 24 19 204 8
144 19 207 42 246 20 33 8 66 -21 61 -9 -2 -16 2 -16 9 0 8 12 10 37 6 52 -9
63 5 63 77 0 63 -12 89 -36 79 -8 -3 -14 1 -14 10 0 8 7 17 15 20 8 4 25 28
39 54 38 76 67 100 134 108 83 10 119 30 133 73 6 21 28 60 49 87 53 71 64 95
51 108 -6 6 -7 16 -1 27 5 10 6 34 3 54 -5 34 -8 37 -36 34 -44 -4 -43 15 1
45 51 33 102 96 140 173 24 47 32 80 38 145 21 261 -131 464 -392 525 -79 18
-173 13 -263 -15 -264 -82 -394 -401 -266 -652 29 -57 78 -119 92 -119 8 0 12
-4 9 -8 -3 -5 9 -19 26 -32 l30 -22 -64 -67 c-101 -104 -115 -125 -123 -183
-4 -29 -18 -68 -31 -88 -12 -19 -26 -48 -29 -65 -11 -52 -38 -105 -53 -105 -8
0 -35 17 -61 38 -25 21 -62 44 -81 52 -19 7 -36 14 -38 15 -1 1 7 55 18 121
16 94 20 147 16 254 -3 74 -9 158 -15 185 -5 28 -14 122 -21 210 -12 178 -29
252 -65 291 -13 14 -27 36 -31 48 -18 60 -180 145 -325 172 -72 12 -196 16
-265 6z m-224 -70 c0 -5 -12 -15 -27 -22 -112 -56 -170 -152 -133 -219 5 -10
12 -44 15 -77 4 -32 10 -78 15 -102 4 -24 5 -52 3 -63 -8 -28 -32 -23 -38 9
-3 15 -12 41 -20 57 -8 17 -16 48 -18 70 -2 22 -12 66 -21 98 -9 32 -16 76
-16 99 0 35 6 47 43 81 64 60 82 70 105 58 14 -8 24 -6 38 4 21 16 54 20 54 7z
m1855 -42 c85 -40 182 -133 213 -203 54 -121 54 -267 2 -374 -47 -95 -108
-152 -221 -207 -103 -50 -119 -54 -119 -32 0 25 -19 28 -53 8 -21 -12 -40 -16
-52 -12 -11 4 -45 15 -76 24 -75 22 -154 75 -209 142 -66 80 -84 122 -100 234
-21 146 64 320 193 398 82 49 136 62 252 58 89 -2 107 -6 170 -36z m-2085 -15
c0 -8 -3 -15 -8 -15 -4 0 -16 -15 -26 -34 -18 -34 -18 -37 3 -149 28 -145 33
-282 11 -282 -9 0 -17 12 -20 30 -4 21 -12 31 -26 33 -25 4 -38 28 -53 104
-11 51 -10 60 9 98 12 23 30 45 41 47 23 6 25 21 3 30 -19 7 -69 -42 -84 -83
l-11 -27 -15 22 c-27 38 -8 77 61 124 20 15 24 22 15 33 -10 11 -16 11 -40 -1
-16 -8 -37 -26 -48 -40 -24 -30 -26 -31 -51 -3 -19 20 -23 20 -47 8 -14 -8
-37 -36 -50 -62 -26 -50 -33 -55 -52 -36 -8 8 -7 17 7 37 10 14 26 43 34 63
24 58 54 71 169 75 82 3 105 7 125 23 30 24 53 26 53 5z m115 -114 c-3 -17 -2
-32 5 -36 11 -7 4 -25 -10 -25 -14 0 -21 49 -10 70 15 29 23 24 15 -9z m939
-130 c-6 -49 -35 -101 -55 -101 -5 0 -9 7 -9 15 0 8 4 15 10 15 15 0 40 55 40
88 0 27 9 47 17 38 2 -2 1 -27 -3 -55z m-1279 32 c10 -13 8 -26 -11 -70 -29
-66 -30 -102 -4 -179 17 -48 19 -63 9 -81 -18 -33 -40 -28 -76 17 -64 81 -51
252 24 309 34 25 42 26 58 4z m1097 -107 c44 -37 46 -44 14 -52 -42 -10 -44
-60 -5 -162 5 -13 6 -34 3 -48 -8 -32 18 -33 39 -1 l15 22 7 -27 c4 -16 -1
-52 -14 -95 -11 -37 -26 -89 -33 -115 -14 -55 -15 -56 -128 -33 -101 21 -103
22 -136 50 -33 28 -57 29 -62 1 -2 -10 0 -16 6 -12 5 3 12 0 15 -8 5 -13 92
-76 105 -76 4 0 22 -17 40 -37 39 -46 46 -111 12 -120 -25 -7 -47 -78 -30 -98
8 -9 6 -14 -6 -19 -26 -10 -35 5 -41 67 -5 51 -9 59 -41 79 -85 55 -110 67
-154 73 -42 7 -48 11 -48 31 0 14 4 32 9 42 31 62 33 112 5 112 -17 0 -18 22
-2 38 10 10 10 15 -2 22 -8 6 -20 8 -27 6 -6 -3 -14 2 -17 10 -9 23 -7 54 3
54 9 0 26 66 22 88 -2 14 16 17 21 2 2 -6 13 -4 28 3 23 11 26 20 31 92 6 86
29 145 56 145 9 0 24 7 34 16 11 10 23 13 31 8 21 -13 77 -12 89 2 15 18 110
-18 161 -60z m-492 -40 c0 -3 -4 -8 -10 -11 -5 -3 -10 -1 -10 4 0 6 5 11 10
11 6 0 10 -2 10 -4z m526 -57 c17 1 44 -10 44 -19 0 -6 -10 -6 -25 0 -14 5
-25 6 -25 2 0 -11 -20 22 -20 33 0 6 4 4 9 -3 4 -8 12 -13 17 -13z m166 -11
c-7 -7 -12 -8 -12 -2 0 14 12 26 19 19 2 -3 -1 -11 -7 -17z m-138 -60 c6 -5 2
-8 -10 -8 -23 0 -39 24 -28 42 4 6 11 3 17 -8 6 -11 15 -22 21 -26z m96 12 c0
-5 -4 -10 -10 -10 -5 0 -10 5 -10 10 0 6 5 10 10 10 6 0 10 -4 10 -10z m95
-150 c19 -148 19 -149 -22 -307 -4 -17 -1 -23 12 -23 37 0 -7 -175 -62 -247
-22 -29 -25 -38 -15 -54 11 -17 7 -25 -29 -64 -63 -68 -112 -88 -212 -83 -57
3 -96 11 -129 26 -26 12 -51 22 -55 22 -16 0 -129 63 -188 105 -33 23 -88 57
-123 74 -54 27 -74 32 -137 32 -108 0 -219 -52 -159 -75 8 -3 22 0 30 8 13 14
99 30 154 29 14 -1 47 -11 74 -23 37 -17 45 -24 35 -32 -10 -7 -8 -8 7 -4 14
5 35 -5 68 -30 27 -20 77 -53 111 -73 59 -35 62 -38 43 -50 -18 -11 -19 -14
-4 -30 9 -10 13 -21 9 -26 -5 -4 -3 -5 3 -2 19 11 74 -16 74 -36 0 -17 13 -26
44 -31 16 -2 45 -34 46 -50 0 -4 -6 -6 -14 -3 -7 3 -23 -1 -34 -9 -18 -12 -22
-11 -36 11 -21 32 -31 31 -65 -5 -31 -34 -45 -31 -29 6 8 17 8 28 1 35 -13 13
-41 1 -48 -21 -3 -9 -21 -34 -40 -53 -19 -20 -35 -44 -35 -55 0 -21 42 -48 58
-38 6 3 12 -3 14 -15 4 -28 30 -44 54 -35 11 4 21 7 23 6 2 -1 8 4 12 12 12
18 28 -7 22 -33 -3 -11 0 -26 7 -34 10 -12 10 -15 -1 -15 -10 0 -10 -3 -1 -12
9 -9 15 -8 27 8 14 18 14 80 -1 119 -8 20 -41 25 -61 9 -25 -18 -33 -17 -33 5
0 22 -20 32 -49 24 -15 -4 -21 -1 -21 11 0 23 27 31 56 16 21 -12 27 -11 45 5
13 13 23 15 27 9 4 -6 17 -16 30 -23 20 -10 29 -9 65 12 23 13 58 24 76 26 19
1 37 3 38 5 2 2 25 -4 51 -13 36 -13 48 -22 50 -41 2 -14 8 -30 14 -37 6 -8 2
-17 -16 -28 -14 -10 -26 -21 -26 -26 0 -16 26 -9 45 11 10 11 21 20 24 20 3 0
6 -24 5 -52 0 -46 -3 -53 -20 -53 -11 -1 -35 -10 -54 -22 -19 -12 -47 -25 -62
-28 -28 -7 -38 -24 -15 -26 30 -3 54 4 74 23 15 14 31 19 48 16 17 -4 33 2 51
19 21 20 25 30 20 57 -7 38 10 96 29 96 24 0 28 21 6 27 -28 7 -27 25 0 21 12
-2 26 -11 30 -20 5 -10 13 -26 17 -35 22 -45 51 -7 32 42 -8 22 -7 31 6 46 9
10 14 26 10 35 -6 14 -9 15 -29 1 -12 -8 -35 -14 -49 -14 -15 0 -43 -10 -63
-22 l-36 -21 -22 25 c-15 18 -40 29 -82 38 -54 11 -60 14 -57 35 4 28 -20 58
-52 66 -34 8 -138 57 -133 62 2 3 28 -4 56 -16 29 -11 56 -18 61 -15 5 3 11 1
15 -5 3 -5 50 -8 115 -6 l110 3 67 59 c51 45 73 74 95 122 25 54 31 62 41 49
7 -9 23 -21 37 -27 67 -28 86 -50 61 -71 -16 -13 -17 -19 -6 -45 12 -28 10
-31 -62 -106 -41 -43 -73 -83 -71 -90 9 -25 28 -18 58 23 46 64 127 129 159
129 29 0 81 -50 81 -78 0 -9 7 -13 20 -9 11 3 20 2 20 -2 0 -3 -9 -12 -20 -19
-11 -7 -20 -18 -20 -26 0 -7 -10 -24 -23 -38 -16 -17 -23 -37 -23 -63 0 -28
-6 -42 -24 -56 -59 -46 -72 -60 -66 -74 7 -20 -37 -84 -74 -107 -46 -27 -35
-78 17 -78 22 0 45 29 42 53 -4 29 3 42 46 84 25 24 45 48 45 53 0 16 -22 23
-31 9 -4 -7 -11 -10 -14 -7 -12 12 6 28 30 28 17 0 30 12 49 44 14 24 32 46
41 50 12 4 14 15 9 43 -3 24 -1 44 8 55 12 16 14 15 30 -6 15 -21 15 -25 -18
-77 -18 -30 -34 -61 -35 -69 -1 -18 -54 -117 -124 -230 -27 -45 -59 -98 -70
-118 -33 -58 -66 -76 -151 -80 -41 -3 -74 0 -74 5 0 5 14 19 30 31 31 24 39
42 17 42 -21 0 -87 -60 -87 -80 0 -9 -6 -22 -13 -28 -43 -36 -240 -63 -256
-34 -6 10 -17 13 -37 8 -41 -9 -185 -10 -212 -2 -25 8 -30 26 -7 26 8 0 15 4
15 10 0 12 33 8 52 -6 12 -9 70 -11 171 -6 30 2 37 6 37 22 0 11 -7 20 -16 20
-8 0 -13 4 -9 9 3 6 13 10 23 10 18 0 35 3 67 15 11 5 34 13 50 19 38 14 126
69 143 90 11 13 17 14 32 4 27 -16 36 -2 16 28 -22 33 -36 32 -72 -6 -72 -77
-224 -140 -297 -123 -18 4 -44 6 -59 5 -16 -1 -28 4 -28 10 0 11 -37 49 -49
49 -3 0 -12 4 -19 9 -11 7 -11 12 -1 28 19 32 5 50 -65 84 -61 30 -81 57 -32
45 11 -3 28 -1 36 4 11 7 16 4 20 -12 7 -28 41 -49 48 -29 3 11 9 8 22 -9 15
-19 21 -21 46 -13 31 10 40 39 12 37 -10 -1 -18 4 -18 11 0 7 -7 18 -16 26
-12 10 -20 10 -35 1 -17 -11 -19 -9 -19 18 0 23 -5 30 -19 30 -10 0 -24 -7
-31 -15 -21 -25 -40 -18 -40 15 0 17 -5 30 -12 30 -22 0 -48 -33 -48 -60 0
-15 -7 -33 -15 -40 -8 -7 -15 -16 -15 -20 0 -13 74 -57 108 -65 26 -5 32 -11
29 -28 -1 -12 -6 -28 -11 -35 -5 -9 -1 -19 13 -28 12 -9 19 -20 16 -25 -3 -5
1 -6 9 -3 10 4 16 1 16 -7 -1 -60 -46 -86 -48 -27 -1 34 -16 49 -41 40 -14 -5
-14 -4 -1 13 12 15 12 17 1 10 -11 -6 -13 -4 -8 8 3 9 3 16 -1 16 -20 -3 -30
3 -40 26 -8 18 -8 25 -1 25 8 0 7 5 -1 15 -16 20 -40 19 -40 -1 0 -10 -6 -14
-14 -11 -19 7 -42 -18 -26 -28 7 -4 8 -11 1 -18 -27 -33 -9 -107 25 -107 8 0
14 -5 14 -11 0 -5 5 -7 10 -4 6 3 14 -5 20 -19 13 -35 27 -33 45 7 l15 32 -6
-35 c-4 -19 -13 -39 -20 -43 -16 -9 -19 -37 -4 -37 15 0 12 -43 -6 -68 -17
-25 -34 -29 -34 -7 0 8 -4 15 -9 15 -6 0 -7 16 -4 35 7 45 -27 113 -73 144
-25 18 -33 31 -39 69 -4 28 -14 52 -26 60 -10 7 -19 20 -19 27 0 8 -14 22 -30
30 -18 9 -28 21 -24 27 4 6 3 8 -3 5 -10 -6 -63 37 -63 52 0 4 -9 16 -19 28
-11 11 -31 44 -46 73 -19 38 -30 49 -38 41 -8 -8 -16 -2 -29 20 -11 17 -22 28
-26 25 -7 -7 -3 -282 5 -351 2 -22 5 -112 6 -200 2 -148 1 -160 -17 -163 -10
-2 -22 0 -26 5 -5 4 -11 165 -14 356 l-6 348 30 11 c24 8 29 15 25 29 -4 10
-3 28 0 40 5 16 10 18 20 9 21 -17 37 -3 25 20 -16 30 -12 75 10 100 22 26 13
47 -15 36 -19 -7 -45 -65 -45 -100 0 -14 -10 -30 -24 -39 -24 -16 -24 -16 -28
26 -3 23 -1 49 3 57 4 8 14 51 21 94 11 68 17 84 45 111 18 17 44 57 58 89 14
31 33 59 43 62 9 3 31 12 49 19 18 8 54 17 81 21 43 5 50 4 54 -14 4 -13 17
-21 44 -26 76 -13 166 -48 208 -81 75 -57 108 -70 216 -84 36 -5 85 -18 110
-29 l45 -21 -46 0 c-30 -1 -51 4 -59 14 -14 17 -56 20 -65 5 -18 -30 81 -65
165 -58 39 3 45 6 48 27 3 17 -8 33 -39 62 -40 36 -48 39 -104 39 -69 0 -166
21 -193 41 -104 77 -108 81 -77 73 17 -4 70 -28 118 -53 85 -44 93 -46 173
-46 50 0 88 -5 95 -12 16 -16 69 -5 97 21 13 11 39 48 57 81 38 69 54 150 59
300 1 55 9 114 16 130 l13 30 10 -28 c6 -15 16 -26 21 -24 17 5 19 60 3 81
-39 54 -97 -44 -97 -165 0 -40 -8 -115 -17 -167 -15 -85 -19 -95 -45 -108 -33
-17 -37 -6 -14 38 28 54 38 103 41 197 3 136 20 189 76 243 26 24 50 54 53 66
4 12 11 22 15 22 4 0 16 -63 26 -140z m-1303 85 c-3 -20 -7 -23 -18 -14 -10 8
-11 14 -1 24 18 21 25 18 19 -10z m558 -5 c0 -5 -5 -10 -11 -10 -5 0 -7 5 -4
10 3 6 8 10 11 10 2 0 4 -4 4 -10z m1115 -28 c-3 -3 -11 0 -18 7 -9 10 -8 11
6 5 10 -3 15 -9 12 -12z m-1419 -131 c22 -18 30 -28 19 -22 -42 23 -74 57 -80
86 l-6 30 14 -31 c8 -17 32 -45 53 -63z m1527 -147 c-79 -98 -86 -116 -53
-134 25 -13 99 10 145 44 17 12 61 39 98 59 37 20 78 43 90 52 27 19 38 19 31
0 -4 -8 -10 -15 -15 -15 -12 0 -64 -46 -140 -124 -48 -49 -56 -62 -47 -74 10
-12 15 -10 33 13 54 71 108 123 154 148 28 15 56 27 62 27 11 0 -129 -138
-205 -203 -19 -17 -24 -27 -16 -32 7 -4 43 24 93 72 89 87 127 114 127 90 0
-13 -59 -73 -160 -161 -28 -25 -40 -41 -32 -44 7 -2 30 13 50 33 44 44 117 96
125 89 12 -12 87 39 160 110 43 42 82 76 88 76 19 0 8 -17 -37 -54 -25 -21
-62 -61 -81 -87 -22 -31 -45 -51 -61 -55 -15 -3 -35 -9 -44 -14 -11 -6 -18 -5
-21 3 -3 7 -16 0 -35 -20 -17 -18 -35 -33 -40 -33 -5 0 -22 -11 -38 -25 -16
-14 -54 -42 -84 -62 -156 -106 -217 -153 -229 -177 -8 -14 -18 -26 -22 -26
-12 0 -144 90 -147 101 -2 5 1 9 6 9 6 0 13 13 17 30 4 16 11 32 16 35 5 4 9
17 9 30 0 13 5 27 10 30 6 3 10 13 10 22 0 8 9 26 19 39 11 13 22 47 26 75 6
41 17 62 58 111 27 33 58 63 68 65 9 3 20 15 24 26 6 20 8 20 12 4 3 -10 -7
-33 -24 -53z m137 31 c65 -26 66 -30 18 -54 -24 -13 -68 -38 -98 -57 -100 -62
-121 -35 -40 53 28 30 50 61 50 70 0 8 6 13 13 10 6 -3 32 -13 57 -22z m388
-13 c-5 -12 -146 -142 -154 -142 -9 0 35 51 54 63 14 9 22 19 53 60 18 24 56
40 47 19z m-102 -37 c-15 -14 -31 -25 -37 -25 -15 0 21 48 39 53 27 6 27 -1
-2 -28z m-1120 -60 c-25 -63 -62 -63 -45 1 8 26 46 59 58 48 2 -2 -4 -24 -13
-49z m1298 33 c-3 -13 -11 -25 -17 -27 -12 -4 -29 -22 -90 -94 -46 -55 -50
-57 -97 -57 -27 0 -61 -5 -76 -11 -28 -10 -28 -10 -9 10 11 14 31 21 54 21 49
1 84 19 117 60 50 61 107 120 116 120 5 0 6 -10 2 -22z m-44 -116 c-21 -31
-41 -69 -45 -84 -10 -40 -26 -48 -107 -60 -99 -13 -136 -30 -144 -65 -11 -44
-53 -123 -69 -130 -8 -3 -15 -11 -15 -19 0 -13 -24 -22 -60 -23 -8 0 -28 -3
-45 -6 -16 -3 -37 -1 -45 4 -12 8 -12 13 4 30 10 11 22 19 26 16 3 -2 15 10
25 28 10 18 25 38 32 46 8 7 11 16 8 20 -4 3 -20 -10 -36 -29 l-28 -35 -1 26
c0 20 10 33 40 53 22 14 42 26 45 26 4 0 34 23 68 50 34 28 68 48 76 45 7 -3
19 -1 26 5 12 10 76 18 142 20 15 0 33 15 53 43 76 105 114 136 50 39z m-1775
28 c20 16 62 15 125 -3 62 -19 110 -62 110 -100 0 -13 7 -30 15 -37 9 -7 14
-14 12 -16 -3 -4 -35 12 -151 72 -23 12 -67 27 -98 34 -49 11 -58 16 -58 35 0
29 12 39 23 20 6 -12 12 -13 22 -5z m404 -107 c-11 -15 -10 -15 9 1 30 26 37
15 11 -17 -19 -25 -48 -39 -34 -17 3 6 1 10 -4 10 -16 0 -13 16 5 35 21 21 31
11 13 -12z m101 -58 c-7 -8 -17 -15 -22 -15 -6 0 -5 7 2 15 7 8 17 15 22 15 6
0 5 -7 -2 -15z m472 -180 c20 -14 40 -25 43 -25 13 0 74 -52 91 -78 21 -31 35
-90 24 -97 -11 -7 -40 34 -40 56 0 26 -39 69 -64 69 -12 0 -29 9 -39 20 -9 11
-27 20 -40 20 -33 0 -62 23 -54 44 9 23 37 20 79 -9z m248 11 c0 -8 -12 -28
-26 -45 -19 -23 -24 -38 -20 -56 9 -35 -6 -31 -22 5 -13 28 -12 33 18 70 33
41 50 50 50 26z m-860 -230 c0 -3 -4 -8 -10 -11 -5 -3 -10 -1 -10 4 0 6 5 11
10 11 6 0 10 -2 10 -4z m1025 -45 c-3 -6 -11 -11 -17 -11 -6 0 -6 6 2 15 14
17 26 13 15 -4z m-811 -86 c-4 -8 -10 -12 -15 -9 -14 8 -10 24 6 24 9 0 12 -6
9 -15z m-1047 -77 c-3 -7 -5 -2 -5 12 0 14 2 19 5 13 2 -7 2 -19 0 -25z m53
-42 c0 -3 -4 -8 -10 -11 -5 -3 -10 -1 -10 4 0 6 5 11 10 11 6 0 10 -2 10 -4z
m99 -103 c66 -66 81 -90 81 -131 0 -18 10 -37 26 -53 14 -13 39 -43 56 -67 23
-34 28 -49 23 -74 -5 -19 -2 -40 6 -56 11 -20 12 -26 1 -30 -19 -6 5 -32 30
-32 31 0 108 60 114 89 10 45 14 52 24 46 6 -4 8 -10 6 -14 -3 -4 0 -13 6 -21
8 -13 9 -12 5 1 -5 14 8 17 81 22 48 3 97 9 110 13 13 4 22 2 22 -5 0 -6 -10
-11 -21 -11 -21 0 -22 -3 -15 -70 3 -38 15 -92 26 -120 23 -59 26 -85 8 -74
-7 4 -5 -2 5 -13 10 -11 20 -33 23 -49 3 -16 10 -43 16 -60 9 -25 8 -35 -3
-46 -12 -13 -18 -7 -43 51 -33 74 -79 239 -70 252 3 5 0 9 -6 9 -7 0 -9 7 -6
17 6 15 -10 83 -20 83 -2 0 -12 -5 -22 -11 -15 -10 -17 -18 -11 -48 4 -20 12
-58 17 -86 15 -77 50 -191 72 -232 21 -39 19 -53 -4 -34 -21 17 -58 110 -50
124 4 7 4 9 -1 5 -4 -4 -13 3 -20 15 -22 42 -62 162 -63 186 -1 13 -7 29 -14
35 -7 6 -12 9 -10 7 1 -2 -5 -13 -14 -22 -15 -17 -15 -23 6 -81 12 -35 26 -72
30 -83 24 -60 60 -156 60 -162 0 -3 -9 2 -20 12 -11 10 -20 24 -20 32 0 7 -15
30 -32 49 -18 20 -37 42 -41 50 -8 15 -37 20 -37 7 0 -5 9 -22 20 -40 10 -18
16 -34 12 -37 -7 -4 -23 14 -104 115 -9 11 -19 26 -21 32 -3 9 -8 9 -17 0 -11
-10 -6 -23 26 -70 21 -32 43 -65 47 -73 10 -19 3 -10 -74 85 -57 72 -125 210
-108 220 5 4 9 -1 9 -9 0 -32 49 -126 66 -126 12 0 14 5 9 18 -11 25 -51 147
-72 217 -14 48 -23 61 -40 63 -13 2 -23 -1 -23 -7 0 -6 7 -11 15 -11 9 0 12
-6 9 -15 -4 -8 1 -34 10 -56 9 -23 14 -44 11 -47 -3 -3 -5 0 -5 6 0 6 -6 17
-13 24 -23 22 -67 166 -67 216 0 52 -5 63 -24 56 -16 -6 -12 -269 4 -336 6
-24 13 -128 17 -233 5 -183 5 -191 -15 -208 -17 -16 -20 -27 -16 -75 4 -38 2
-52 -4 -42 -5 8 -12 166 -15 350 -5 288 -15 476 -31 582 -8 56 13 51 83 -19z
m1157 16 c10 -17 -13 -36 -27 -22 -12 12 -4 33 11 33 5 0 12 -5 16 -11z m114
-33 c0 -8 -4 -18 -10 -21 -5 -3 -7 -25 -3 -50 4 -29 1 -50 -6 -59 -10 -12 -10
-27 0 -73 14 -66 17 -178 7 -239 -20 -117 -19 -136 3 -160 19 -21 21 -31 17
-94 -3 -39 -11 -77 -17 -83 -6 -6 -11 -18 -11 -27 0 -12 -18 -16 -102 -18
-138 -3 -274 22 -295 55 -16 23 -55 223 -44 223 3 0 -2 5 -13 11 -14 9 -22 7
-34 -5 -15 -14 -14 -18 8 -48 17 -23 19 -30 7 -25 -17 6 -17 2 -2 -120 5 -40
-3 -46 -43 -31 -25 10 -35 23 -51 68 -12 32 -21 67 -21 78 0 12 -12 57 -26 99
-32 93 -43 200 -23 208 12 4 107 16 226 28 11 1 19 5 16 10 -8 14 61 35 134
40 101 8 142 32 182 107 13 25 30 52 37 61 8 8 14 20 14 25 0 14 30 54 41 54
5 0 9 -6 9 -14z m-1010 -109 c0 -10 -5 -17 -12 -15 -13 5 -20 37 -11 51 7 12
23 -13 23 -36z m-363 -59 c-3 -8 -6 -5 -6 6 -1 11 2 17 5 13 3 -3 4 -12 1 -19z
m657 -5 c27 -4 35 -8 25 -14 -19 -12 -129 -12 -129 0 0 17 40 23 104 14z
m-697 -60 c-3 -10 -5 -4 -5 12 0 17 2 24 5 18 2 -7 2 -21 0 -30z m50 -175 c-3
-8 -6 -5 -6 6 -1 11 2 17 5 13 3 -3 4 -12 1 -19z m0 -110 c-3 -8 -6 -5 -6 6
-1 11 2 17 5 13 3 -3 4 -12 1 -19z m-47 -64 c0 -33 -3 -43 -12 -38 -34 19 -36
24 -21 54 21 43 33 37 33 -16z m60 19 c0 -5 -5 -15 -10 -23 -8 -12 -10 -11
-10 8 0 12 5 22 10 22 6 0 10 -3 10 -7z m450 -111 c0 -15 -2 -15 -10 -2 -13
20 -13 33 0 25 6 -3 10 -14 10 -23z m-458 -128 c2 -58 0 -108 -3 -110 -8 -4
-19 73 -19 128 0 25 -8 50 -20 65 -11 14 -20 32 -20 40 0 11 5 11 29 -2 30
-15 30 -15 33 -121z m420 95 c3 -22 54 -45 113 -52 17 -2 60 -16 97 -30 61
-25 103 -33 181 -36 15 -1 36 -11 48 -25 12 -13 37 -27 57 -31 21 -4 42 -10
47 -15 6 -5 32 -20 60 -33 47 -24 48 -26 23 -32 -16 -4 -37 -1 -55 9 -17 8
-52 20 -79 27 -27 7 -67 20 -89 30 -22 9 -58 23 -79 29 -22 7 -65 26 -97 41
-32 16 -64 29 -71 29 -7 0 -35 8 -63 19 -27 10 -69 22 -93 26 -26 4 -41 11
-39 18 2 7 0 20 -5 30 -7 14 -4 17 16 17 17 0 26 -6 28 -21z m318 -43 c0 -3
-4 -8 -10 -11 -5 -3 -10 -1 -10 4 0 6 5 11 10 11 6 0 10 -2 10 -4z m-306 -50
c17 4 26 2 26 -6 0 -6 4 -9 9 -5 12 7 101 -17 101 -27 0 -9 90 -52 102 -50 3
1 33 -8 65 -19 32 -11 87 -29 123 -41 36 -11 86 -31 112 -44 26 -13 55 -24 64
-24 9 0 35 -14 58 -32 63 -49 64 -49 26 -44 -58 7 -100 18 -106 27 -3 5 -15 9
-28 9 -12 0 -31 7 -42 15 -10 8 -28 15 -39 15 -11 0 -33 7 -48 15 -18 9 -62
15 -125 16 -77 1 -225 23 -287 43 -15 5 -89 20 -99 21 -13 0 -31 33 -23 41 4
4 17 8 30 9 18 1 22 8 24 36 3 65 2 62 17 50 8 -7 25 -9 40 -5z m917 -59 c-10
-9 -11 -8 -5 6 3 10 9 15 12 12 3 -3 0 -11 -7 -18z m-261 -2 c155 -13 187 -18
213 -34 23 -13 27 -21 22 -41 -4 -14 -7 -37 -7 -53 -1 -41 -38 -47 -75 -12
-15 14 -62 42 -103 61 -122 58 -160 79 -160 87 0 4 10 5 23 3 12 -3 51 -8 87
-11z m-818 -133 c-11 -15 -50 -95 -85 -177 -83 -191 -101 -227 -111 -218 -4 4
-4 -1 0 -11 6 -15 4 -17 -6 -11 -8 5 -11 4 -6 -3 3 -6 -5 -35 -18 -64 -13 -29
-43 -114 -66 -188 -44 -143 -44 -143 -86 -235 -15 -33 -34 -81 -43 -107 l-16
-48 -30 24 -29 23 59 119 c32 66 66 139 76 164 33 87 86 215 102 250 9 19 27
66 41 103 45 122 205 407 228 407 5 0 0 -13 -10 -28z m918 -46 c0 -2 -15 4
-34 13 -18 9 -32 19 -29 24 4 6 63 -29 63 -37z m-805 -101 c-36 -59 -69 -121
-74 -139 -11 -36 -57 -162 -70 -191 -10 -23 -9 -20 -63 -170 -21 -60 -55 -159
-74 -220 -19 -60 -41 -123 -48 -140 -18 -39 -66 -237 -66 -271 0 -17 -4 -24
-12 -20 -7 3 -21 9 -31 12 -21 8 -18 39 13 134 9 30 30 96 45 145 46 151 65
209 75 230 5 11 18 47 30 80 30 87 105 265 161 381 26 55 56 120 65 145 10 24
28 59 41 78 13 19 23 40 23 47 0 20 33 35 42 20 5 -8 -18 -56 -57 -121z m171
88 c-3 -8 -10 -42 -16 -76 -6 -34 -15 -80 -21 -102 -6 -22 -14 -62 -19 -90 -4
-27 -18 -90 -29 -140 -12 -49 -28 -124 -37 -165 -8 -41 -21 -102 -29 -135 -7
-33 -23 -116 -35 -185 -12 -69 -38 -193 -58 -277 l-37 -152 -50 -6 c-43 -6
-58 -3 -99 19 -27 14 -57 26 -67 26 -11 0 -20 8 -20 18 -4 46 2 102 17 157 18
65 73 251 81 275 37 103 79 223 104 298 17 52 33 92 35 89 2 -2 -2 -21 -9 -43
-26 -74 -41 -184 -29 -196 23 -23 34 0 52 112 12 72 59 217 109 335 5 11 19
45 31 75 12 30 28 62 34 70 7 8 18 29 25 45 22 53 40 75 57 68 8 -3 13 -12 10
-20z m249 -62 c-1 -54 3 -81 13 -94 13 -15 13 -29 3 -100 -6 -45 -15 -111 -20
-147 -5 -36 -20 -119 -34 -185 -56 -274 -57 -325 -4 -316 11 2 3 -45 -38 -224
-18 -82 -35 -159 -37 -170 -2 -12 -10 -19 -21 -17 -12 2 -24 -12 -40 -50 -23
-51 -26 -53 -78 -65 -68 -16 -92 -16 -83 -2 4 7 1 10 -7 7 -8 -3 -22 6 -32 19
-19 24 -77 33 -77 11 0 -10 -7 -9 -10 2 -17 67 -18 89 -5 135 32 115 72 303
100 480 17 108 53 249 65 253 4 2 5 12 3 23 -3 11 -1 37 5 57 6 20 20 73 30
117 12 51 24 80 33 81 8 0 19 2 25 2 7 1 15 27 19 58 8 67 32 151 50 180 11
17 23 20 77 20 l64 0 -1 -75z m143 19 c50 -16 103 -30 117 -30 22 0 24 -3 15
-19 -5 -11 -10 -30 -10 -42 0 -18 -2 -19 -15 -9 -8 7 -15 19 -15 27 0 11 -7
14 -25 11 -14 -3 -25 -1 -25 3 0 11 -21 11 -36 1 -7 -4 -15 -29 -18 -57 -4
-27 -14 -88 -22 -135 -9 -47 -17 -158 -19 -250 -2 -91 -6 -190 -9 -220 -3 -30
-8 -125 -11 -210 -7 -168 -8 -174 -30 -300 -8 -47 -17 -102 -20 -122 -4 -27
-11 -38 -23 -39 -10 0 -12 -3 -4 -6 18 -7 15 -48 -5 -65 -25 -21 -61 -29 -70
-15 -4 7 -9 21 -11 32 -7 40 22 233 54 360 18 72 38 168 44 215 7 47 23 152
36 234 13 82 21 153 18 158 -3 4 -12 8 -20 8 -9 0 -14 10 -14 27 0 21 3 24 12
15 23 -23 38 -13 38 25 0 61 41 337 52 350 6 7 8 20 4 28 -6 17 -36 21 -36 5
0 -5 -4 -10 -10 -10 -5 0 -10 7 -10 15 0 8 -4 15 -9 15 -5 0 -11 7 -15 15 -7
19 -14 20 92 -15z m392 0 c0 -16 -4 -30 -10 -30 -5 0 -10 6 -10 14 0 8 -3 21
-6 30 -4 11 -1 16 10 16 11 0 16 -9 16 -30z m-124 -74 c57 -29 134 -79 134
-87 0 -4 -8 -5 -19 -2 -27 7 -29 -3 -22 -89 4 -45 3 -78 -2 -78 -5 0 -4 -7 3
-15 9 -11 12 -46 9 -123 -7 -207 2 -834 12 -853 9 -17 6 -19 -26 -19 l-35 0 6
378 c10 598 8 842 -5 842 -4 0 -16 -9 -25 -19 -15 -17 -17 -31 -10 -103 11
-119 2 -1009 -12 -1094 -2 -18 -13 -43 -24 -57 -18 -23 -23 -24 -56 -14 l-35
11 6 245 c3 135 7 383 8 551 1 190 6 308 12 312 6 5 6 8 -1 8 -7 0 -6 20 3 63
18 78 18 99 -2 113 -15 11 -20 45 -8 57 8 9 37 0 89 -27z m127 1 c4 3 7 1 7
-5 0 -16 -23 -15 -38 0 -19 19 -14 33 6 15 10 -10 22 -14 25 -10z m-348 -57
c-3 -5 -8 -38 -10 -72 -8 -104 -16 -182 -20 -196 -8 -23 13 -62 30 -56 11 5
15 22 15 68 0 33 7 92 15 131 8 38 15 82 15 97 0 18 5 28 15 28 8 0 15 -6 15
-14 0 -8 7 -22 16 -31 11 -11 14 -24 9 -43 -3 -15 -8 -182 -10 -372 -6 -501
-15 -774 -30 -853 -6 -30 -11 -37 -24 -31 -21 8 -32 9 -57 0 -27 -8 -32 9 -28
90 1 32 5 116 8 185 7 144 12 200 28 317 9 64 9 85 0 91 -14 8 -2 126 17 174
6 16 11 44 11 63 0 28 -4 35 -17 32 -18 -3 -33 -61 -48 -183 -4 -27 -8 -51
-10 -53 -8 -8 6 417 16 478 17 106 30 160 41 160 5 0 6 -4 3 -10z m-188 -472
c-3 -7 -5 -2 -5 12 0 14 2 19 5 13 2 -7 2 -19 0 -25z m563 -62 c0 -41 -4 -77
-8 -80 -4 -2 -8 31 -8 75 0 43 4 79 8 79 4 0 8 -33 8 -74z m-573 7 c-3 -10 -5
-4 -5 12 0 17 2 24 5 18 2 -7 2 -21 0 -30z m-16 -114 l-9 -34 -1 31 c-1 17 2
34 6 37 12 13 14 -1 4 -34z m146 -91 c-2 -18 -4 -4 -4 32 0 36 2 50 4 33 2
-18 2 -48 0 -65z m458 -123 c10 -191 16 -265 24 -292 9 -30 -2 -73 -18 -73
-20 0 -27 70 -37 367 -8 281 15 279 31 -2z m-468 13 c-3 -7 -5 -2 -5 12 0 14
2 19 5 13 2 -7 2 -19 0 -25z m-40 -340 c-3 -7 -5 -2 -5 12 0 14 2 19 5 13 2
-7 2 -19 0 -25z m-12 -90 c-3 -29 -10 -57 -15 -62 -13 -13 -13 0 1 64 14 65
21 64 14 -2z m381 -60 c-3 -35 -8 -116 -11 -181 -8 -162 -13 -195 -36 -247
-39 -86 -117 -375 -105 -388 3 -3 1 -11 -5 -18 -9 -11 -49 -157 -47 -173 5
-44 4 -44 -114 -37 -208 12 -250 54 -251 246 0 59 19 106 75 188 29 41 63 128
70 174 2 16 -2 23 -14 23 -10 0 -18 4 -18 8 0 4 -7 24 -14 44 -8 21 -17 56
-21 78 -4 22 -11 43 -16 46 -6 3 4 42 23 92 33 87 33 87 69 87 41 0 75 30 72
64 -3 20 -2 20 6 1 5 -11 12 -27 14 -36 4 -13 20 -17 78 -17 79 -1 99 8 99 43
0 20 4 21 49 19 41 -3 52 1 71 21 13 14 25 25 28 25 2 0 1 -28 -2 -62z m-510
-369 c27 -102 15 -168 -51 -297 -24 -47 -40 -92 -43 -125 -3 -36 -12 -59 -28
-75 -26 -27 -34 -73 -31 -178 1 -51 7 -77 19 -90 9 -11 18 -30 20 -44 3 -21
-2 -25 -32 -30 -19 -3 -74 -4 -123 -2 l-87 4 29 34 c17 18 33 51 36 71 3 21
13 74 22 118 9 44 17 100 18 125 2 54 41 170 62 187 11 8 14 22 10 42 -5 24 1
37 41 83 36 41 56 78 81 147 18 51 35 90 38 88 2 -3 11 -29 19 -58z m-1638
-97 c5 -15 -34 -17 -43 -2 -4 6 -11 7 -17 4 -6 -4 -8 -2 -4 4 9 14 58 10 64
-6z m-93 -58 c7 -3 23 -1 34 5 13 7 22 8 26 1 11 -17 37 -11 42 11 5 20 7 19
34 -6 16 -16 41 -28 60 -30 42 -3 60 -32 32 -54 -19 -16 -20 -41 -1 -41 16 0
90 -82 80 -89 -5 -3 -15 -17 -22 -31 -7 -14 -9 -22 -5 -18 10 10 37 -11 29
-23 -3 -5 -12 -9 -19 -9 -16 0 -55 -30 -55 -42 0 -17 28 -7 43 15 l16 22 0
-27 c1 -37 -41 -68 -92 -68 -32 0 -37 2 -28 14 13 16 10 48 -7 69 -7 8 -10 21
-7 30 4 9 -2 21 -15 30 -17 12 -19 18 -10 41 16 43 12 85 -12 119 -37 53 -59
66 -108 67 -44 0 -46 1 -44 28 3 37 6 41 11 14 3 -13 11 -26 18 -28z m-323
-19 c-3 -20 0 -25 17 -25 12 0 24 -7 27 -15 4 -8 12 -15 20 -15 8 0 14 -7 14
-15 0 -9 7 -18 15 -21 9 -4 13 -14 11 -23 -8 -25 9 -44 33 -36 25 8 28 33 5
50 -15 10 -15 13 1 28 18 18 12 37 -11 37 -8 0 -13 4 -10 9 3 4 16 6 29 4 18
-4 30 3 45 22 16 20 26 25 39 19 16 -7 16 -8 -3 -11 -12 -2 -27 -15 -35 -29
-11 -22 -11 -27 1 -34 10 -6 19 -5 27 3 16 16 155 7 161 -10 2 -8 -6 -13 -21
-13 -20 0 -24 -4 -20 -20 4 -15 0 -20 -14 -20 -38 0 -60 -51 -27 -64 25 -10
32 -7 39 13 4 13 12 17 25 14 11 -3 20 -1 20 4 0 5 7 18 15 29 15 18 16 17 9
-16 -3 -19 -13 -43 -21 -52 -19 -21 -13 -50 12 -63 13 -6 19 -18 17 -33 -3
-20 -5 -20 -19 -7 -12 12 -18 13 -29 4 -8 -6 -14 -17 -14 -25 0 -15 34 -36 44
-27 9 10 7 -16 -3 -36 -13 -24 -87 -28 -112 -5 -12 11 -29 15 -51 11 -27 -4
-42 2 -80 31 -27 20 -48 44 -48 54 0 9 -7 21 -16 26 -16 9 -16 11 0 33 20 29
20 43 1 63 -11 11 -23 12 -44 6 -40 -11 -47 8 -13 36 29 24 23 44 -14 44 -14
0 -23 4 -20 9 3 5 -1 23 -10 40 -15 29 -12 51 5 51 5 0 6 -11 3 -25z m718 -7
c0 -7 12 -25 27 -40 21 -22 23 -28 10 -28 -9 0 -23 -13 -31 -28 -14 -27 -13
-28 8 -27 13 0 29 5 37 12 12 10 17 8 27 -8 7 -10 21 -19 31 -19 16 0 81 -80
81 -99 -1 -15 -17 -26 -40 -26 -27 0 -29 -11 -15 -78 6 -32 4 -41 -13 -57 -13
-13 -18 -27 -15 -44 4 -19 1 -26 -10 -26 -8 0 -17 6 -20 13 -3 10 -11 10 -39
0 -49 -18 -60 -16 -57 10 2 12 0 28 -5 36 -6 9 -3 17 8 23 22 12 20 35 -4 48
-16 8 -22 6 -36 -14 -8 -14 -13 -29 -10 -34 3 -6 -5 -9 -18 -8 l-24 1 29 33
c16 18 29 41 29 52 0 10 5 22 10 25 6 3 10 35 10 70 0 60 -2 66 -39 107 -29
31 -36 44 -25 46 9 2 13 10 9 19 -3 9 2 24 11 34 19 21 74 26 74 7z m297 -69
c27 -27 28 -32 6 -54 -19 -20 -9 -43 26 -61 32 -16 33 -19 16 -50 -13 -25 -13
-31 1 -51 17 -27 12 -41 -21 -53 -20 -8 -23 -16 -23 -54 1 -26 6 -46 12 -46
28 0 55 14 59 29 3 11 6 8 11 -10 9 -31 -26 -109 -49 -109 -28 0 -65 24 -65
42 0 13 -7 18 -25 18 -17 0 -25 5 -25 18 0 9 -9 41 -19 70 l-20 53 25 9 c13 5
24 16 24 25 0 8 8 15 18 16 10 0 12 3 5 6 -7 2 -13 22 -13 42 0 24 -8 49 -22
67 -31 39 -70 73 -85 74 -7 0 -13 5 -13 11 0 6 7 8 16 5 8 -3 12 -2 9 3 -11
18 30 32 79 27 32 -4 57 -13 73 -27z m-1044 4 c3 -5 -3 -16 -13 -26 -16 -16
-18 -16 -24 -2 -3 9 -4 21 0 26 6 11 31 12 37 2z m-19 -69 c8 -22 8 -24 -8
-24 -9 0 -14 9 -13 20 2 24 13 26 21 4z m65 -118 c6 -8 11 -18 10 -22 -4 -26
3 -54 14 -54 7 0 28 -14 47 -31 19 -17 30 -28 23 -24 -6 3 -16 -3 -22 -12 -10
-17 -10 -16 -11 3 0 29 -37 61 -52 46 -15 -15 -32 -16 -23 -2 3 5 0 7 -9 4
-20 -8 -68 40 -60 60 9 22 23 20 17 -2 -5 -21 21 -47 37 -37 16 10 12 45 -5
45 -13 0 -13 3 -3 20 15 24 22 25 37 6z m1947 -112 c-3 -9 -6 -21 -6 -27 0 -8
-3 -8 -10 -1 -12 12 -3 44 12 44 6 0 7 -7 4 -16z m-1977 -58 c13 -14 18 -26
12 -30 -12 -8 -53 33 -45 46 7 11 8 11 33 -16z m568 -11 c-4 -8 -11 -15 -17
-15 -6 0 -6 7 2 20 14 22 24 19 15 -5z m1398 -25 c3 -5 1 -10 -4 -10 -6 0 -11
5 -11 10 0 6 2 10 4 10 3 0 8 -4 11 -10z m87 -30 c31 -24 89 -37 198 -45 47
-3 93 -8 103 -11 13 -4 20 0 24 14 7 30 35 38 31 10 -2 -17 -14 -25 -43 -34
-22 -6 -40 -17 -40 -25 0 -14 13 -15 53 -3 16 5 22 2 22 -9 0 -10 -14 -18 -40
-22 -62 -10 -65 -30 -3 -25 20 1 21 -1 10 -23 -10 -23 -16 -25 -58 -20 -49 5
-74 -10 -48 -29 10 -7 -1 -8 -33 -4 -54 6 -168 55 -168 72 0 7 -11 19 -24 28
-35 22 -76 65 -76 78 0 7 12 0 28 -14 35 -32 58 -40 71 -24 8 10 0 22 -34 52
-38 33 -42 40 -28 46 27 10 28 10 55 -12z m-1572 -5 c7 -8 18 -15 25 -15 28 0
22 -85 -7 -104 -27 -17 -40 5 -44 73 -4 62 3 74 26 46z m-300 -16 c6 -11 10
-37 8 -57 -4 -33 -7 -37 -33 -37 -29 0 -30 1 -33 58 -3 55 -2 57 22 57 15 0
30 -8 36 -21z m530 -43 c3 -11 4 -35 2 -53 -3 -27 -8 -33 -28 -33 -22 0 -24 4
-24 55 0 51 2 55 23 52 12 -1 24 -11 27 -21z m130 -37 c0 -31 -4 -48 -10 -44
-11 7 -13 54 -4 79 10 27 14 18 14 -35z m2360 -19 c-14 -4 -34 -8 -45 -8 l-20
-1 20 9 c11 5 31 8 45 8 l25 0 -25 -8z m-105 -30 c-3 -5 -14 -10 -23 -9 -14 0
-13 2 3 9 27 11 27 11 20 0z m-2842 -19 c15 -1 27 -4 27 -8 0 -14 -153 -3
-168 12 -3 3 21 3 54 1 32 -2 71 -5 87 -5z m74 -27 c-2 -2 -12 -1 -22 3 -18 6
-18 7 1 13 17 7 33 -5 21 -16z m218 3 c7 -9 16 -17 21 -17 5 0 20 -10 34 -21
l25 -21 -30 6 c-87 18 -113 30 -111 51 1 25 43 27 61 2z m2465 13 c-8 -5 -22
-9 -30 -9 -10 0 -8 3 5 9 27 12 43 12 25 0z m-70 -10 c16 0 21 -3 14 -10 -7
-7 -104 -12 -250 -14 -241 -4 -284 7 -68 18 64 3 120 8 123 12 3 3 40 3 81 0
41 -3 86 -5 100 -6z m-1702 -22 c-3 -7 -10 -13 -16 -12 -7 1 -29 2 -49 4 l-38
3 35 7 c56 12 72 11 68 -2z m2752 0 c0 -4 -3 -8 -7 -8 -68 -1 -273 -70 -273
-92 0 -14 34 -9 65 10 49 29 184 63 235 59 20 -2 25 2 23 21 -3 21 0 22 79 22
45 0 95 -4 112 -10 17 -5 65 -16 106 -24 41 -7 91 -21 110 -29 l35 -15 -65 3
c-36 2 -81 4 -100 4 -24 1 -31 4 -21 10 43 27 -170 24 -234 -4 -22 -9 -56 -19
-75 -21 -103 -11 -132 -16 -166 -30 -20 -9 -43 -22 -51 -30 -8 -8 -26 -15 -41
-16 -15 0 -40 -2 -57 -3 -63 -4 -141 -18 -189 -35 -28 -9 -91 -21 -139 -25
-84 -7 -89 -6 -94 14 -3 12 -13 21 -22 22 -12 0 -11 2 4 9 12 4 35 6 52 4 39
-4 63 19 36 35 -10 6 -12 11 -5 11 6 0 12 7 12 15 0 15 26 19 117 15 38 -1 81
12 93 30 3 4 16 11 29 15 20 6 23 4 18 -10 -4 -9 -7 -20 -7 -25 0 -5 -29 -18
-65 -30 -36 -12 -63 -26 -59 -31 3 -5 8 -7 12 -5 4 2 23 7 42 10 45 7 102 35
95 47 -4 5 2 10 12 10 69 5 103 14 168 44 27 12 61 28 75 33 29 13 140 13 140
0z m-2030 -38 c0 -39 -1 -40 -32 -39 -30 0 -31 1 -10 9 25 11 29 25 8 33 -8 3
-69 6 -135 5 -90 0 -123 -4 -132 -14 -6 -8 -16 -14 -23 -14 -6 0 0 10 14 23
23 20 34 22 137 20 92 -1 130 2 171 16 1 1 2 -17 2 -39z m91 16 c19 -7 48 -12
64 -11 17 1 38 -2 48 -7 25 -13 85 -21 135 -19 23 1 42 -2 42 -6 0 -4 -9 -55
-20 -113 -11 -58 -20 -121 -20 -141 0 -20 -3 -39 -7 -43 -8 -8 -9 -20 -18
-144 -6 -89 -6 -94 14 -99 11 -3 23 -13 26 -22 9 -26 117 -87 197 -112 40 -13
84 -33 98 -45 14 -12 44 -28 67 -35 51 -14 109 -60 99 -77 -8 -14 -122 -17
-130 -4 -3 5 4 19 15 30 16 18 17 22 4 22 -8 0 -15 5 -15 10 0 29 -103 -11
-116 -45 -7 -16 -49 -21 -59 -6 -5 9 22 28 78 53 49 22 32 37 -20 17 -15 -6
-54 -11 -87 -11 -50 1 -59 -2 -63 -19 -4 -13 -14 -19 -34 -19 -55 0 -46 54 14
91 31 19 31 19 9 25 -18 5 -20 9 -11 20 21 25 -27 16 -58 -11 -22 -19 -25 -27
-14 -34 11 -7 10 -14 -5 -37 -21 -34 -35 -45 -46 -38 -4 3 -1 16 8 29 9 13 11
26 6 29 -18 11 -126 -2 -137 -16 -11 -15 -100 -78 -109 -78 -3 0 -6 7 -6 15 0
9 -11 20 -25 25 -19 7 -25 17 -25 38 0 15 5 33 12 40 6 6 11 27 10 47 -1 32 1
35 26 35 15 0 34 5 42 10 17 11 9 13 -33 10 -23 -1 -28 2 -25 17 2 13 15 19
43 23 36 5 38 6 20 17 -11 7 -14 13 -7 13 27 0 10 20 -18 20 -20 0 -30 5 -30
15 0 10 10 15 30 15 30 0 43 19 15 21 -8 1 -20 2 -27 3 -6 0 -13 12 -15 25 -2
17 1 22 12 17 10 -4 15 1 15 14 0 14 -7 20 -21 20 -29 0 -18 25 12 26 40 2 43
4 32 15 -6 6 -9 18 -6 25 3 8 -5 18 -21 24 -43 16 -30 21 34 14 42 -5 60 -3
60 5 0 6 -3 11 -7 12 -5 0 -17 2 -28 5 -11 2 -33 5 -48 6 -16 0 -31 7 -34 15
-8 20 -2 22 45 13 37 -6 42 -5 42 11 0 12 -7 19 -19 19 -28 0 -37 20 -9 21 13
1 28 1 35 0 7 -1 16 7 22 17 13 25 -31 80 -74 91 -25 6 -30 13 -30 39 -1 23 2
28 12 21 6 -6 9 -17 6 -25 -3 -8 3 -16 13 -20 11 -3 28 -10 39 -14 40 -17 63
-21 70 -10 3 5 1 10 -4 10 -6 0 -11 4 -11 10 0 5 21 7 50 4 70 -8 64 12 -7 26
-32 6 -79 22 -104 35 -26 13 -49 21 -53 18 -3 -4 -6 1 -6 10 0 20 -1 20 41 3z
m259 10 c0 -2 -7 -6 -15 -10 -8 -3 -15 -1 -15 4 0 6 7 10 15 10 8 0 15 -2 15
-4z m910 -5 c0 -5 -23 -11 -50 -15 -28 -4 -58 -10 -68 -13 -9 -3 -14 -3 -10 2
4 4 31 13 60 21 67 16 68 16 68 5z m-2488 -41 c21 -14 38 -28 38 -32 0 -13 -9
-9 -29 11 -11 11 -39 25 -63 32 -39 11 -41 13 -18 19 14 3 27 4 30 1 3 -4 22
-17 42 -31z m1638 36 c0 -11 -19 -15 -25 -6 -3 5 1 10 9 10 9 0 16 -2 16 -4z
m-1250 -15 c22 -1 23 -3 7 -12 -21 -13 -69 -8 -74 7 -2 6 6 10 19 8 13 -1 34
-3 48 -3z m-1160 -21 c0 -5 -2 -10 -4 -10 -3 0 -8 5 -11 10 -3 6 -1 10 4 10 6
0 11 -4 11 -10z m4215 -16 c-33 -8 -64 -19 -69 -24 -6 -6 -30 -10 -54 -10 -46
0 -142 -29 -142 -42 0 -5 6 -8 13 -8 8 0 7 -4 -3 -10 -8 -5 -22 -10 -30 -10
-12 0 -13 2 -1 9 23 15 2 31 -42 31 l-42 0 27 14 c15 8 62 17 105 21 76 7 139
21 158 37 5 4 38 8 75 7 l65 -1 -60 -14z m-3168 -11 c5 3 19 -1 33 -8 23 -13
20 -14 -30 -8 -30 3 -64 10 -75 15 -18 8 -18 8 2 4 13 -2 26 0 29 5 3 6 11 6
19 -1 8 -7 18 -9 22 -7z m203 -22 c-5 -11 -10 -31 -10 -45 0 -32 -1 -32 -155
-21 -74 6 -185 39 -185 56 0 3 26 0 58 -8 31 -8 86 -16 122 -17 36 -2 73 -7
82 -10 25 -11 63 -3 63 14 0 10 -8 14 -22 13 -13 -2 -23 0 -23 3 0 15 28 33
53 34 24 0 26 -2 17 -19z m522 10 c19 -7 17 -9 -18 -9 -22 0 -44 -2 -50 -3
-21 -4 -45 2 -40 9 7 12 80 14 108 3z m165 -15 c4 -5 -10 -6 -32 -3 -22 4 -55
7 -73 7 -18 0 -31 4 -28 8 6 10 122 -1 133 -12z m663 6 c0 -4 -9 -8 -20 -8
-11 0 -20 4 -20 8 0 4 9 8 20 8 11 0 20 -4 20 -8z m-845 -58 c76 -8 94 -26 20
-20 -33 3 -67 1 -74 -3 -24 -15 -1 -31 45 -31 27 0 67 -10 98 -24 73 -34 106
-37 106 -12 0 15 -21 26 -51 26 -10 0 -19 4 -19 9 0 10 47 3 78 -12 17 -8 28
-8 42 1 28 17 35 -4 8 -23 -24 -16 -23 -14 -30 -180 -1 -16 2 -49 6 -72 4 -24
4 -43 -1 -43 -4 0 -8 -15 -9 -32 -1 -40 -7 -69 -18 -86 -4 -7 -5 -29 -1 -48 4
-22 2 -41 -5 -49 -7 -8 -12 -31 -13 -52 0 -24 -7 -43 -18 -50 -14 -11 -15 -17
-6 -38 7 -13 17 -27 24 -29 17 -7 45 23 39 40 -3 8 0 14 5 14 7 0 9 -9 6 -22
-11 -42 45 -70 58 -29 4 12 12 17 24 14 10 -3 32 2 49 11 29 15 30 15 25 -4
-4 -15 2 -23 23 -32 16 -6 37 -12 47 -13 27 -3 32 -14 11 -21 -10 -4 -27 -14
-36 -22 -16 -13 -20 -12 -38 10 -22 29 -66 41 -92 27 -29 -16 -21 -37 15 -41
27 -2 32 -7 32 -28 0 -18 -8 -27 -28 -34 -35 -13 -54 3 -38 32 8 16 7 21 -4
26 -20 7 -55 -28 -55 -54 0 -21 33 -60 50 -60 6 0 10 -7 10 -15 0 -10 -10 -15
-29 -15 -16 0 -38 -3 -48 -7 -13 -4 -11 -1 6 14 28 23 23 49 -11 62 -19 7 -23
16 -22 45 1 19 -1 35 -5 34 -3 0 -17 0 -31 1 l-25 1 25 20 25 19 -29 30 c-24
25 -38 31 -71 31 -22 0 -51 -7 -64 -16 -19 -14 -22 -22 -16 -51 10 -56 1 -68
-51 -68 -59 0 -83 -25 -59 -62 15 -22 14 -24 -7 -32 -13 -5 -26 -7 -31 -4 -15
9 -3 68 17 85 30 24 13 69 -31 80 -24 6 -30 12 -26 27 6 23 -10 34 -37 26 -24
-8 -26 -32 -5 -56 15 -15 14 -17 -10 -23 -18 -5 -25 -13 -25 -31 0 -18 -6 -24
-25 -27 -30 -4 -35 -18 -11 -33 11 -7 21 -6 34 2 26 15 61 -13 58 -47 -3 -31
-43 -41 -53 -13 -9 25 -23 33 -60 33 -20 0 -41 -8 -53 -20 -11 -11 -26 -17
-35 -14 -23 9 -18 94 6 94 5 0 25 10 44 22 56 37 41 96 -29 114 -27 6 -81 -17
-90 -41 -7 -19 10 -65 24 -65 8 0 9 -15 4 -45 -5 -35 -3 -45 7 -45 8 -1 1 -7
-16 -14 -26 -12 -32 -11 -42 2 -19 23 -16 50 7 57 24 8 25 26 5 65 -15 30 -43
38 -79 24 -21 -8 -10 -24 15 -24 24 0 37 -29 18 -41 -17 -11 -29 -11 -28 -1 4
22 -3 32 -24 32 -32 0 -38 -9 -25 -34 17 -30 18 -84 3 -90 -9 -3 -13 6 -13 29
0 58 -9 72 -50 78 -42 5 -68 -4 -34 -13 13 -3 23 -9 22 -14 -1 -5 4 -12 10
-16 8 -5 5 -14 -11 -29 l-23 -21 -14 34 c-10 26 -20 35 -43 38 -16 3 -37 -1
-45 -7 -19 -14 -15 -50 6 -50 8 0 14 5 13 12 -1 6 4 16 12 23 11 9 13 6 9 -18
-3 -21 0 -31 11 -35 23 -9 18 -27 -8 -27 -27 0 -72 -43 -62 -59 3 -7 -2 -11
-14 -11 -25 0 -26 8 -5 38 12 17 13 26 5 36 -8 10 -8 22 -1 41 13 33 6 45 -26
45 -16 0 -24 -6 -24 -17 0 -10 -11 -26 -24 -35 -21 -15 -25 -15 -30 -3 -3 9
-2 25 3 38 20 52 -5 102 -29 57 -6 -11 -16 -18 -21 -14 -6 3 -1 13 11 24 11 9
20 26 20 37 0 12 6 26 14 33 12 9 21 7 44 -10 16 -12 44 -22 64 -23 21 -1 34
-6 31 -13 -2 -6 6 -14 18 -17 15 -4 23 -1 26 14 7 26 33 24 62 -6 26 -28 39
-31 66 -11 14 10 17 21 12 50 -6 38 1 44 32 25 14 -9 25 -9 50 2 26 12 31 19
31 49 1 31 2 33 14 18 7 -10 21 -18 30 -18 27 0 31 29 7 54 -26 28 -26 37 0
70 11 14 17 26 14 26 -4 0 6 15 21 33 24 29 61 51 127 76 33 13 56 64 47 104
-4 18 -1 48 6 68 8 25 9 40 2 47 -7 7 -3 20 12 40 17 23 21 39 17 61 -5 24 -2
33 13 41 11 6 23 22 26 36 5 19 9 22 20 13 18 -15 64 -3 64 16 0 8 -9 15 -20
15 -11 0 -20 5 -20 12 0 6 -10 3 -21 -8 -22 -19 -22 -19 -8 3 14 23 23 23 174
7z m235 -4 c0 -26 -35 -26 -75 0 l-30 20 53 0 c45 0 52 -3 52 -20z m750 6 c0
-7 9 -21 21 -32 17 -15 37 -18 127 -18 73 -1 111 -5 120 -13 11 -11 24 -15 52
-15 3 -1 21 2 40 6 25 4 31 3 20 -4 -30 -20 12 -30 105 -24 50 3 97 7 105 9
10 3 15 -3 16 -21 l2 -25 -87 6 c-145 11 -254 13 -296 6 -45 -8 -78 -4 -70 9
3 4 -1 7 -8 7 -15 -1 -82 12 -122 24 -16 4 -64 11 -105 14 -70 6 -128 12 -175
19 -11 2 -34 4 -52 5 -24 1 -30 5 -28 19 2 9 4 22 4 27 1 16 331 17 331 1z
m486 -1 c14 -13 6 -15 -67 -15 -88 0 -96 4 -33 19 59 14 84 13 100 -4z m-1147
-9 c7 -9 8 -17 2 -20 -14 -9 -41 4 -41 20 0 18 24 18 39 0z m1764 -13 c-7 -2
-21 -2 -30 0 -10 3 -4 5 12 5 17 0 24 -2 18 -5z m-943 -149 c0 -2 -12 -4 -27
-4 -21 0 -24 3 -14 9 13 8 41 5 41 -5z m-135 -24 c3 -5 2 -10 -4 -10 -5 0 -13
5 -16 10 -3 6 -2 10 4 10 5 0 13 -4 16 -10z m-708 -36 c-3 -3 -12 -4 -19 -1
-8 3 -5 6 6 6 11 1 17 -2 13 -5z m2288 -164 c96 -47 174 -80 187 -80 9 0 189
-88 198 -96 2 -3 -2 -9 -10 -14 -11 -7 -9 -11 13 -19 35 -14 35 -31 0 -31 -20
1 -34 10 -48 33 -22 36 -80 67 -275 148 -171 70 -211 90 -205 99 9 14 55 1
140 -40z m-357 11 c9 -6 42 -17 72 -26 75 -22 81 -25 190 -78 52 -25 120 -55
152 -67 31 -11 62 -27 68 -35 7 -8 19 -15 26 -15 7 0 28 -9 46 -21 19 -12 25
-18 13 -16 -44 11 -86 19 -125 21 -22 2 -48 10 -58 19 -28 25 -162 93 -237
120 -85 30 -195 86 -195 98 0 12 26 11 48 0z m592 -68 c0 -6 -54 9 -83 24 -23
12 -26 17 -17 28 10 12 19 10 56 -17 24 -17 44 -33 44 -35z m-973 51 c-3 -3
-12 -4 -19 -1 -8 3 -5 6 6 6 11 1 17 -2 13 -5z m-2916 -54 c14 0 10 -43 -6
-64 -8 -10 -12 -23 -8 -29 3 -6 2 -7 -4 -4 -12 7 -16 91 -6 120 l7 22 4 -22
c2 -13 8 -23 13 -23z m3071 -30 c29 -11 67 -32 83 -45 44 -36 9 -32 -51 7 -34
22 -63 32 -94 34 -40 2 -47 6 -68 38 l-23 37 50 -26 c28 -14 74 -34 103 -45z
m165 50 c14 -11 23 -20 20 -20 -14 0 -57 24 -57 32 0 13 10 10 37 -12z m-2557
6 c0 -3 -4 -8 -10 -11 -5 -3 -10 -1 -10 4 0 6 5 11 10 11 6 0 10 -2 10 -4z
m2180 -18 c24 -15 30 -23 19 -25 -24 -6 -69 15 -69 32 0 20 9 19 50 -7z
m-2747 -23 c-22 -16 -24 -15 -16 13 4 18 8 20 19 11 12 -10 11 -14 -3 -24z
m405 13 c-2 -13 -7 -23 -13 -23 -5 0 -11 10 -13 23 -2 15 2 22 13 22 11 0 15
-7 13 -22z m849 16 c-3 -3 -12 -4 -19 -1 -8 3 -5 6 6 6 11 1 17 -2 13 -5z
m1848 -38 c82 -37 145 -80 145 -100 0 -13 -80 17 -124 47 -28 19 -62 40 -76
47 -14 7 -36 21 -49 31 -40 32 -1 22 104 -25z m416 23 c29 -11 76 -30 103 -43
28 -13 80 -34 116 -47 43 -17 66 -31 68 -43 3 -16 0 -18 -25 -12 -15 4 -50 20
-76 36 -27 17 -52 30 -56 30 -4 0 -31 11 -59 25 -29 14 -55 25 -59 25 -14 0
-89 49 -76 50 7 0 36 -9 64 -21z m-315 -15 c18 -14 18 -15 -6 -8 -31 8 -50 24
-29 24 8 0 24 -7 35 -16z m122 -54 c49 -22 94 -40 98 -40 5 0 18 -7 28 -15 18
-14 14 -15 -46 -15 -58 0 -67 3 -73 20 -3 11 -12 20 -18 20 -12 1 -96 70 -85
70 3 0 46 -18 96 -40z m-2858 15 c0 -16 -27 -32 -37 -21 -7 7 16 36 28 36 5 0
9 -7 9 -15z m1702 -59 c4 -6 3 -15 -3 -21 -13 -13 -43 6 -47 30 -3 14 1 16 20
10 12 -4 26 -13 30 -19z m-2334 -24 c3 -19 -1 -23 -15 -20 -10 2 -19 14 -21
26 -3 19 1 23 15 20 10 -2 19 -14 21 -26z m192 -51 c23 -18 23 -21 8 -38 -8
-10 -19 -28 -22 -40 -4 -13 -14 -23 -22 -23 -8 0 -26 -7 -39 -16 -25 -16 -25
-16 -25 15 0 41 23 96 47 110 24 14 24 14 53 -8z m1370 -31 c0 -5 -7 -10 -16
-10 -8 0 -12 5 -9 10 3 6 10 10 16 10 5 0 9 -4 9 -10z m-1064 -24 c-7 -6 -16
-18 -18 -26 -3 -9 -7 -5 -10 11 -4 23 -1 27 19 27 19 0 21 -3 9 -12z m1344
-35 c-6 -23 -13 -41 -16 -41 -7 0 5 70 13 83 12 19 14 -4 3 -42z m177 24 c-7
-14 -21 -25 -31 -25 -18 0 -18 2 4 25 30 32 41 32 27 0z m359 -6 c3 -6 1 -16
-4 -21 -13 -13 -45 8 -36 23 7 12 31 11 40 -2z m-705 -19 c6 0 7 -6 3 -12 -5
-8 0 -7 11 2 17 14 18 13 13 -7 -4 -14 1 -28 12 -38 20 -18 50 -10 50 14 1 14
2 14 11 -1 22 -39 89 -47 89 -12 0 19 13 18 41 -6 l24 -19 -37 -1 c-60 0 -93
-51 -63 -96 9 -14 23 -28 31 -31 26 -10 15 -23 -20 -23 -19 0 -49 -10 -69 -24
-19 -13 -37 -22 -40 -20 -2 3 -23 1 -46 -5 -35 -8 -41 -7 -41 8 0 9 4 23 10
31 5 9 5 19 -2 27 -7 9 -6 15 7 19 12 5 24 -2 39 -21 23 -29 56 -30 56 -2 0 8
10 13 23 13 18 -1 22 5 25 37 2 27 -1 37 -12 37 -25 0 -46 -12 -46 -25 0 -7
-6 -15 -14 -18 -10 -4 -15 7 -19 40 -5 50 -14 63 -45 66 -16 1 -20 7 -17 34 1
18 -1 34 -4 36 -3 2 0 2 7 0 8 -1 18 -3 23 -3z m-461 -60 c0 -13 -6 -16 -25
-12 -33 6 -39 17 -19 37 19 18 44 4 44 -25z m-486 14 c32 -12 13 -54 -24 -54
-13 0 -32 39 -25 50 7 11 26 13 49 4z m1292 -7 c1 -1 5 -16 8 -34 6 -26 4 -32
-14 -38 -29 -9 -86 50 -68 72 8 10 22 13 42 9 16 -4 30 -7 32 -9z m-2051 -29
c-4 -18 -7 -43 -7 -55 0 -29 -15 -30 -24 -1 -4 13 -2 24 5 26 6 2 11 17 11 33
0 16 5 29 11 29 6 0 8 -12 4 -32z m68 12 c-3 -12 -8 -19 -11 -16 -5 6 5 36 12
36 2 0 2 -9 -1 -20z m-199 -6 c23 -22 20 -29 -18 -49 -29 -16 -37 -17 -50 -6
-21 18 -20 27 4 51 24 24 43 25 64 4z m1096 -33 c0 -19 -17 -38 -25 -29 -7 7
7 48 16 48 5 0 9 -9 9 -19z m-900 -13 c0 -18 -2 -20 -9 -8 -6 8 -7 18 -5 22 9
14 14 9 14 -14z m1197 16 c-3 -3 -12 -4 -19 -1 -8 3 -5 6 6 6 11 1 17 -2 13
-5z m421 -4 c22 0 13 -40 -13 -52 -20 -9 -31 -8 -50 2 -29 16 -31 23 -9 45 10
10 25 14 38 11 12 -3 27 -6 34 -6z m277 -30 c0 -18 -6 -26 -23 -28 -24 -4 -38
18 -28 44 3 9 15 14 28 12 17 -2 23 -10 23 -28z m-765 4 c0 -8 -4 -12 -10 -9
-5 3 -10 10 -10 16 0 5 5 9 10 9 6 0 10 -7 10 -16z m-1704 -41 c-2 -27 -5 -54
-5 -62 -1 -11 -4 -11 -16 -1 -16 13 -14 54 4 88 18 33 22 27 17 -25z m-101 -1
c-6 -7 -35 18 -35 31 0 5 9 2 20 -8 11 -10 18 -20 15 -23z m2715 3 c0 -36 -19
-40 -48 -12 l-26 26 25 9 c33 13 49 5 49 -23z m-2192 3 c-1 -13 -6 -28 -11
-35 -5 -7 -6 -21 -2 -33 4 -12 2 -20 -5 -20 -7 0 -10 14 -8 37 3 32 0 38 -22
44 -23 6 -23 7 -3 8 12 1 25 6 28 11 11 18 24 11 23 -12z m677 2 c3 -5 1 -10
-4 -10 -6 0 -11 5 -11 10 0 6 2 10 4 10 3 0 8 -4 11 -10z m531 -28 c-9 -8 -26
10 -26 26 1 15 2 15 15 -2 8 -11 13 -21 11 -24z m64 -23 c-10 -24 -30 -40 -30
-25 0 2 -3 12 -6 21 -4 9 -3 15 2 13 5 -2 11 2 12 7 2 6 9 19 15 30 10 19 11
19 15 2 2 -10 -2 -32 -8 -48z m386 36 c9 -8 30 -15 47 -15 18 0 27 -4 21 -8
-6 -4 -15 -20 -21 -37 -11 -34 -28 -36 -28 -3 0 17 -9 25 -35 32 -46 12 -47
14 -24 31 24 18 22 18 40 0z m467 -48 c3 -8 -10 -12 -39 -12 -35 0 -44 4 -44
17 0 27 30 38 56 21 12 -8 24 -20 27 -26z m-715 16 c5 -17 -27 -16 -58 2 -25
15 -25 15 14 13 22 -2 41 -9 44 -15z m842 -20 c0 -9 7 -25 17 -35 9 -11 11
-18 5 -18 -7 0 -12 5 -12 11 0 8 -6 7 -17 -2 -15 -12 -16 -12 -9 5 6 18 5 19
-11 4 -36 -31 -43 -31 -39 2 2 17 5 32 7 33 2 1 13 7 24 13 23 14 35 9 35 -13z
m-2128 -15 c-7 -7 -12 -8 -12 -2 0 14 12 26 19 19 2 -3 -1 -11 -7 -17z m572 6
c9 -23 7 -36 -3 -30 -12 8 -21 46 -11 46 4 0 11 -7 14 -16z m-892 -31 c-4 -35
-6 -36 -15 -16 -10 23 -4 53 11 53 4 0 6 -17 4 -37z m504 18 c-4 -5 -1 -12 4
-14 6 -3 5 -4 -2 -3 -15 3 -23 26 -8 26 6 0 9 -4 6 -9z m256 -26 c5 -26 1 -29
-26 -19 -19 7 -21 25 -4 42 15 15 25 8 30 -23z m558 11 c0 -8 -4 -17 -9 -21
-12 -7 -24 12 -16 25 9 15 25 12 25 -4z m155 -22 c-15 -8 -34 -14 -41 -14 -8
0 -22 -8 -32 -18 -18 -18 -19 -18 -29 3 -8 18 -6 24 9 34 10 6 29 9 43 5 18
-4 27 -1 31 10 5 12 10 13 26 5 19 -10 19 -11 -7 -25z m85 15 c0 -12 -37 -12
-44 0 -3 4 -3 11 0 14 8 7 44 -4 44 -14z m57 15 c-3 -3 -12 -4 -19 -1 -8 3 -5
6 6 6 11 1 17 -2 13 -5z m193 -4 c0 -5 -4 -10 -10 -10 -5 0 -10 5 -10 10 0 6
5 10 10 10 6 0 10 -4 10 -10z m535 0 c3 -5 1 -10 -4 -10 -6 0 -11 5 -11 10 0
6 2 10 4 10 3 0 8 -4 11 -10z m-187 -28 c3 -20 1 -21 -22 -11 -27 13 -31 20
-19 33 14 13 38 1 41 -22z m-1190 -17 c-8 -8 -58 5 -58 15 0 15 35 17 49 4 8
-8 12 -16 9 -19z m-1183 5 c17 -19 17 -20 -1 -20 -10 0 -26 5 -34 10 -13 9
-13 11 0 20 8 5 15 10 16 10 0 0 9 -9 19 -20z m415 12 c0 -4 10 -12 22 -17 14
-7 22 -20 23 -42 2 -29 1 -31 -16 -22 -11 5 -19 6 -20 2 -1 -12 -22 39 -26 65
-2 12 1 22 7 22 5 0 10 -3 10 -8z m155 -2 c11 0 11 -5 -1 -29 -8 -16 -21 -34
-29 -41 -13 -11 -15 -6 -15 35 0 39 3 46 16 41 9 -3 22 -6 29 -6z m1340 0 c3
-5 -3 -10 -15 -10 -12 0 -18 5 -15 10 3 6 10 10 15 10 5 0 12 -4 15 -10z
m-1240 -10 c3 -5 1 -10 -4 -10 -6 0 -11 5 -11 10 0 6 2 10 4 10 3 0 8 -4 11
-10z m241 -4 c18 -14 18 -15 1 -33 -18 -17 -18 -17 -15 2 2 15 -2 20 -19 19
-13 0 -23 5 -23 13 0 17 31 17 56 -1z m488 -21 c-3 -8 -12 -11 -19 -9 -7 3
-23 0 -35 -6 -29 -16 -46 1 -23 22 35 31 89 26 77 -7z m1126 15 c15 -28 2 -46
-16 -23 -7 10 -14 24 -14 31 0 19 18 14 30 -8z m-2160 -52 c0 -4 -6 -8 -14 -8
-8 0 -21 -3 -29 -6 -22 -8 -31 38 -10 53 13 10 19 9 35 -9 10 -11 18 -25 18
-30z m730 37 c0 -8 8 -15 17 -15 15 0 14 -2 -3 -15 -10 -8 -22 -15 -25 -15 -8
0 -18 48 -11 55 10 10 22 5 22 -10z m987 -2 c6 -16 -45 -29 -59 -15 -6 6 -7
15 -3 22 9 14 57 9 62 -7z m143 7 c0 -5 -5 -10 -11 -10 -5 0 -7 5 -4 10 3 6 8
10 11 10 2 0 4 -4 4 -10z m-1210 -10 c0 -5 -4 -10 -10 -10 -5 0 -10 5 -10 10
0 6 5 10 10 10 6 0 10 -4 10 -10z m502 -2 c-9 -9 -15 -9 -24 0 -9 9 -7 12 12
12 19 0 21 -3 12 -12z m223 2 c8 -13 65 -13 65 -1 0 6 15 5 37 -1 20 -5 52 -8
71 -5 23 4 32 2 29 -6 -2 -7 -20 -12 -40 -12 -48 0 -66 -18 -44 -43 9 -10 17
-22 17 -27 0 -4 8 -14 18 -21 15 -12 10 -13 -35 -12 -56 2 -60 8 -53 71 1 15
-5 18 -32 15 -29 -3 -33 -7 -34 -33 0 -16 4 -36 10 -43 8 -11 5 -13 -14 -10
-16 2 -24 11 -27 28 -4 28 -19 40 -50 40 -25 0 -32 -27 -12 -47 8 -8 -1 -12
-31 -15 -39 -3 -41 -3 -21 10 29 20 28 52 -3 52 -28 0 -51 -24 -43 -45 5 -12
-10 -15 -98 -14 -58 0 -105 4 -105 9 0 16 18 20 43 11 19 -8 29 -6 38 5 8 9
23 14 37 11 17 -3 26 0 29 12 6 24 45 40 67 27 14 -9 20 -7 29 5 9 15 14 15
44 2 38 -15 106 -8 100 11 -2 6 -18 12 -35 14 -18 2 -30 8 -27 13 8 12 62 12
70 -1z m585 -30 c0 -4 -16 -7 -35 -8 l-35 -1 17 23 c17 22 19 23 36 9 9 -9 17
-19 17 -23z m-1684 -6 c-3 -16 0 -24 10 -24 8 0 14 -4 14 -10 0 -15 -16 -12
-34 6 -21 21 -22 66 -1 58 9 -4 13 -15 11 -30z m1852 0 c2 -11 0 -15 -5 -8 -4
6 -16 13 -25 17 -10 3 -18 11 -18 16 0 18 45 -5 48 -25z m-2410 13 c15 6 15 4
4 -10 -12 -14 -9 -17 23 -23 20 -3 39 -4 42 0 3 3 12 1 20 -5 9 -9 19 -7 36 4
14 9 29 12 36 7 7 -4 22 -5 32 -3 27 7 24 -13 -3 -22 -33 -11 -52 -12 -63 -4
-6 4 -16 5 -22 1 -6 -4 -47 -6 -91 -4 -68 3 -80 6 -75 19 3 8 0 19 -8 24 -11
7 -9 9 8 9 12 0 25 5 29 12 6 9 9 9 11 1 3 -7 12 -9 21 -6z m722 -7 c13 -9 12
-12 -4 -25 -22 -17 -56 -20 -56 -6 0 11 28 41 38 41 4 0 14 -5 22 -10z m650 2
c0 -14 -11 -21 -26 -15 -8 3 -11 9 -8 14 7 11 34 12 34 1z m947 2 c-3 -3 -12
-4 -19 -1 -8 3 -5 6 6 6 11 1 17 -2 13 -5z m-1453 -18 c-6 -16 -68 -26 -87
-14 -13 8 -4 11 30 8 12 -1 30 3 40 9 23 13 23 13 17 -3z m221 4 c8 -14 52
-13 57 1 3 8 14 6 37 -5 18 -10 30 -20 27 -23 -3 -4 1 -14 10 -24 15 -16 13
-18 -28 -23 -23 -4 -61 -5 -83 -3 -22 3 -81 5 -130 6 -83 1 -91 3 -91 21 0 23
54 40 66 20 5 -9 9 -9 15 -1 3 6 22 10 42 9 24 -1 38 3 44 15 11 19 25 22 34
7z m-680 -40 c3 -5 1 -10 -4 -10 -6 0 -11 5 -11 10 0 6 2 10 4 10 3 0 8 -4 11
-10z m111 -15 l29 -15 -52 0 c-54 0 -81 15 -41 23 13 2 26 5 29 6 4 0 20 -6
35 -14z M3382 7757 c-6 -6 -13 -26 -17 -42 -6 -28 -56 -187 -60 -192 -1 -2
-37 -7 -81 -13 -104 -14 -164 -31 -164 -48 0 -13 89 -58 163 -81 20 -7 37 -16
37 -19 0 -18 -30 -112 -48 -154 -32 -72 -6 -79 74 -18 110 83 184 115 184 79
0 -5 8 -9 18 -9 10 0 40 -11 68 -24 27 -13 60 -27 73 -31 23 -7 24 -6 17 26
-3 19 -20 60 -36 91 -17 31 -30 63 -30 70 0 7 17 23 38 36 65 41 90 66 97 101
l7 34 -43 -7 c-24 -3 -74 -9 -111 -13 l-68 -6 -31 69 c-17 38 -37 81 -45 96
-8 14 -14 36 -14 47 0 24 -12 27 -28 8z m64 -214 c-7 -16 -81 -21 -96 -7 -2 3
7 37 20 76 l24 71 28 -63 c16 -35 26 -70 24 -77z m184 -53 c-63 -52 -71 -56
-86 -35 -29 40 -19 52 49 54 l62 1 -25 -20z m-136 -30 c9 -22 16 -44 16 -49 0
-4 -23 -22 -51 -40 l-50 -33 -45 17 c-24 9 -46 21 -50 26 -6 10 13 78 26 92 4
4 29 10 56 13 26 2 50 7 53 9 13 14 31 1 45 -35z m-210 -17 c-4 -16 -9 -31
-11 -35 -4 -7 -53 8 -108 33 l-29 14 44 6 c25 3 60 7 78 7 31 2 32 0 26 -25z
m284 -159 c-9 -8 -76 14 -84 28 -4 6 6 22 22 35 l29 23 19 -40 c11 -22 17 -42
14 -46z m-215 3 c-40 -32 -84 -59 -89 -54 -4 3 6 37 31 105 3 10 14 8 45 -8
l41 -21 -28 -22z M2140 7448 c-38 -18 -41 -22 -23 -25 12 -3 31 1 42 6 25 14
67 14 92 1 31 -17 45 0 18 21 -32 24 -74 23 -129 -3z M2136 7397 c-17 -13 -16
-15 18 -35 38 -22 66 -28 66 -14 0 4 10 12 22 17 13 6 24 18 26 28 3 15 -5 17
-55 17 -33 0 -67 -6 -77 -13z m69 -18 c11 -17 0 -20 -21 -4 -17 13 -17 14 -2
15 9 0 20 -5 23 -11z M2333 7245 c-15 -11 -16 -16 -5 -27 13 -13 42 -2 49 19
6 17 -24 23 -44 8z M2337 7173 c-4 -4 -26 -9 -50 -12 -46 -7 -65 -35 -25 -38
44 -3 88 -14 88 -21 0 -5 -5 -13 -12 -20 -15 -15 31 -34 49 -20 16 13 8 28
-15 29 -11 1 -8 4 7 8 13 3 30 16 39 29 13 20 12 22 -9 30 -49 19 -66 22 -72
15z M1463 6560 c-18 -11 -35 -31 -39 -44 -11 -46 20 -64 36 -21 6 15 17 25 30
25 26 0 37 27 19 46 -12 12 -19 11 -46 -6z M1911 6446 c-16 -19 -6 -36 21 -36
12 0 30 -8 40 -17 14 -13 21 -14 30 -5 9 9 7 18 -9 39 -23 32 -64 41 -82 19z
M1790 6290 c0 -5 5 -10 11 -10 5 0 7 5 4 10 -3 6 -8 10 -11 10 -2 0 -4 -4 -4
-10z M1490 6099 c0 -5 5 -7 10 -4 6 3 10 8 10 11 0 2 -4 4 -10 4 -5 0 -10 -5
-10 -11z M1632 5975 c1 -14 6 -25 10 -25 4 0 8 11 8 25 0 14 -4 25 -10 25 -5
0 -9 -11 -8 -25z M2235 5676 c-11 -8 -17 -17 -13 -21 11 -11 99 6 95 19 -6 17
-60 19 -82 2z M1955 6790 c-3 -5 -1 -10 4 -10 6 0 11 5 11 10 0 6 -2 10 -4 10
-3 0 -8 -4 -11 -10z M1626 5761 c-4 -7 -5 -15 -2 -18 9 -9 19 4 14 18 -4 11
-6 11 -12 0z M1717 5609 c4 -13 9 -17 15 -11 11 11 3 32 -12 32 -4 0 -6 -9 -3
-21z M2010 3660 c0 -5 5 -10 10 -10 6 0 10 5 10 10 0 6 -4 10 -10 10 -5 0 -10
-4 -10 -10z M630 2750 c0 -15 7 -20 25 -20 18 0 25 5 25 20 0 15 -7 20 -25 20
-18 0 -25 -5 -25 -20z M663 2663 c-17 -6 -16 -38 1 -52 11 -9 18 -8 30 4 12
13 16 13 16 3 0 -8 5 -19 12 -26 14 -14 48 2 48 23 0 17 -30 34 -47 28 -7 -3
-16 2 -19 11 -6 16 -18 19 -41 9z M715 2560 c3 -5 8 -10 11 -10 2 0 4 5 4 10
0 6 -5 10 -11 10 -5 0 -7 -4 -4 -10z M681 2536 c-8 -10 -7 -17 5 -27 13 -11
17 -10 25 2 12 20 11 26 -5 32 -8 3 -19 0 -25 -7z M398 2699 c-35 -20 -8 -67
32 -54 24 8 28 50 4 59 -19 7 -15 8 -36 -5z M340 2660 c0 -5 5 -10 10 -10 6 0
10 5 10 10 0 6 -4 10 -10 10 -5 0 -10 -4 -10 -10z M365 2586 c-17 -12 -18 -17
-7 -40 12 -26 36 -34 47 -16 4 6 10 8 15 5 5 -3 3 9 -4 27 -17 39 -26 43 -51
24z M290 2546 c0 -28 24 -41 40 -21 16 20 5 45 -20 45 -14 0 -20 -7 -20 -24z
M358 2503 c-25 -6 -22 -25 6 -53 29 -26 57 -21 49 9 -7 27 -34 48 -55 44z
M836 2734 c-10 -9 -15 -23 -12 -31 3 -8 6 -17 6 -19 0 -11 33 -2 47 12 12 12
14 21 7 32 -15 23 -30 25 -48 6z M896 2508 c-14 -20 -14 -23 0 -31 22 -13 58
21 43 40 -16 18 -25 16 -43 -9z M1125 2690 c-3 -5 -1 -10 4 -10 6 0 11 5 11
10 0 6 -2 10 -4 10 -3 0 -8 -4 -11 -10z M1190 2490 c0 -5 5 -10 10 -10 6 0 10
5 10 10 0 6 -4 10 -10 10 -5 0 -10 -4 -10 -10z M2523 1277 c-9 -15 20 -27 34
-15 7 6 13 13 13 17 0 10 -41 8 -47 -2z M1818 1566 c-16 -9 -30 -11 -33 -5
-12 19 -45 8 -59 -20 -11 -21 -12 -31 -3 -40 16 -16 47 -14 47 4 0 17 16 20
25 5 13 -20 50 -10 63 17 24 53 11 66 -40 39z M1883 1523 c-21 -8 -15 -33 10
-42 26 -11 53 9 44 33 -6 16 -29 20 -54 9z M2023 1492 c-24 -3 -31 -26 -13
-37 15 -9 50 4 50 20 0 18 -9 22 -37 17z M1696 1461 c-8 -13 33 -41 51 -34 8
3 13 13 11 22 -4 18 -53 28 -62 12z M1585 1430 c-10 -16 4 -30 29 -30 28 0 36
8 29 26 -6 16 -49 19 -58 4z M1987 1434 c-4 -5 -44 -12 -75 -13 -8 -1 -12 -10
-10 -23 2 -17 9 -23 28 -22 14 1 29 -5 33 -12 10 -18 22 -18 41 2 20 19 21 60
2 67 -8 3 -16 3 -19 1z M1813 1405 c-17 -13 -17 -14 2 -29 18 -13 22 -13 38 1
9 9 17 19 17 23 0 15 -39 18 -57 5z M1489 1348 c-7 -15 -6 -59 2 -63 5 -4 28
-8 52 -10 38 -3 44 0 55 23 17 37 15 42 -14 42 -17 0 -28 -6 -31 -20 -6 -24
-23 -16 -23 11 0 12 -7 19 -20 19 -11 0 -21 -1 -21 -2z M1839 1300 l-30 -29
-9 24 c-16 42 -68 26 -54 -16 4 -13 7 -30 6 -36 -7 -36 45 -71 63 -43 3 6 17
10 31 10 14 0 24 6 24 14 0 8 9 31 21 50 35 60 -1 78 -52 26z M1418 1284 c-12
-11 24 -64 43 -64 22 0 27 38 7 58 -13 13 -41 16 -50 6z M1919 1283 c-24 -6
-43 -52 -28 -69 16 -19 25 -18 49 8 34 37 22 70 -21 61z M1660 1270 c-12 -7
-10 -14 10 -37 14 -15 26 -30 27 -31 1 -2 11 -1 22 3 41 13 23 45 -39 71 -3 2
-12 -1 -20 -6z M1535 1250 c-9 -14 19 -40 45 -40 34 0 23 44 -12 48 -14 2 -29
-2 -33 -8z M1782 1162 c-8 -5 -10 -16 -6 -28 9 -23 23 -34 47 -34 15 0 18 7
15 33 -3 33 -29 47 -56 29z M1550 1141 c0 -24 25 -45 45 -37 8 3 15 17 15 31
0 21 -5 25 -30 25 -23 0 -30 -5 -30 -19z M973 1083 c-17 -6 -17 -29 0 -36 7
-3 21 1 31 8 17 13 17 14 -1 23 -10 5 -24 7 -30 5z M1425 770 c-9 -15 14 -40
36 -40 21 0 25 20 7 38 -15 15 -35 15 -43 2z M1576 7231 c-20 -32 50 -96 97
-89 31 4 27 20 -6 29 -37 10 -57 27 -57 50 0 19 -24 26 -34 10z M1993 2928
c-14 -17 -36 -87 -38 -120 -2 -17 -15 -38 -35 -54 -33 -28 -90 -133 -90 -167
0 -34 24 -12 55 49 17 33 47 75 67 94 27 25 39 45 42 70 2 20 11 53 20 75 22
52 7 88 -21 53z M3876 2434 c-9 -8 -16 -26 -16 -38 0 -15 -13 -31 -41 -49 -22
-15 -44 -27 -47 -27 -4 -1 -38 -21 -77 -46 -82 -52 -137 -79 -185 -89 -55 -11
-84 -45 -40 -45 11 0 20 5 20 10 0 6 11 10 24 10 40 0 88 22 176 79 47 31 90
58 95 60 6 2 36 20 68 39 44 27 56 39 52 53 -4 12 1 22 15 29 11 6 20 15 20
20 0 16 -47 11 -64 -6z M376 2031 c-3 -5 1 -14 8 -20 9 -8 16 -8 20 -2 4 6 18
6 36 1 32 -9 53 6 29 21 -18 11 -86 12 -93 0z M4770 1961 c0 -4 22 -11 48 -14
26 -3 54 -7 61 -9 24 -5 23 19 -1 26 -34 9 -108 7 -108 -3z M4746 1834 c-52
-14 -68 -22 -61 -34 3 -5 25 -2 48 6 23 8 75 16 115 16 46 1 71 6 69 12 -5 14
-115 14 -171 0z M4906 1755 c4 -8 8 -15 10 -15 2 0 4 7 4 15 0 8 -4 15 -10 15
-5 0 -7 -7 -4 -15z M1504 1749 c-7 -12 12 -29 34 -29 18 0 15 27 -4 34 -21 8
-22 8 -30 -5z M2923 1573 c-7 -2 -13 -13 -13 -23 0 -22 28 -53 40 -45 5 3 11
1 15 -5 11 -18 34 -11 51 15 22 34 12 58 -20 45 -18 -7 -26 -5 -30 6 -5 14
-20 17 -43 7z M304 1555 c-3 -8 1 -22 10 -30 9 -9 16 -21 16 -26 0 -5 17 -9
38 -8 39 0 55 -3 85 -16 22 -9 50 1 45 18 -3 6 -15 13 -27 15 -19 3 -21 8 -16
33 8 36 -14 39 -53 9 l-25 -20 -19 20 c-22 24 -46 26 -54 5z M1007 1556 c-3
-8 1 -20 9 -27 12 -10 18 -8 34 9 12 12 16 23 10 27 -6 3 -10 1 -10 -6 0 -10
-3 -10 -12 -1 -16 16 -25 15 -31 -2z M2517 1563 c-13 -12 -7 -41 9 -47 22 -9
34 1 34 30 0 17 -6 24 -18 24 -10 0 -22 -3 -25 -7z M200 1546 c0 -10 9 -16 21
-16 24 0 21 23 -4 28 -10 2 -17 -3 -17 -12z M3176 1543 c-7 -17 11 -35 29 -30
6 2 11 13 13 25 3 16 -2 22 -16 22 -11 0 -23 -8 -26 -17z M50 1522 c0 -32 27
-52 42 -30 11 18 10 48 -1 48 -5 0 -16 3 -25 6 -12 5 -16 -1 -16 -24z M3083
1539 c-14 -5 -23 -17 -23 -29 0 -17 5 -21 27 -18 18 2 29 10 31 22 5 25 -9 35
-35 25z M3244 1535 c-4 -9 -4 -18 -1 -21 10 -10 48 7 44 19 -6 19 -36 20 -43
2z M2618 1533 c-10 -3 -18 -10 -18 -17 0 -30 51 -49 66 -25 9 15 -27 47 -48
42z M2840 1521 c0 -10 7 -24 15 -31 19 -16 45 3 45 31 0 14 -7 19 -30 19 -23
0 -30 -5 -30 -19z M2690 1514 c-11 -12 -11 -18 2 -30 20 -20 48 -7 48 22 0 28
-30 33 -50 8z M200 1485 c7 -8 19 -15 26 -15 8 0 14 7 14 15 0 10 -10 15 -26
15 -22 0 -25 -2 -14 -15z M2994 1475 c-9 -23 4 -47 23 -43 11 2 19 14 21 31 3
22 -1 27 -18 27 -11 0 -23 -7 -26 -15z M3304 1476 c-9 -25 11 -81 31 -85 11
-2 25 -11 32 -20 12 -15 15 -14 31 7 9 13 29 38 45 54 33 38 35 61 5 56 -13
-2 -23 -10 -23 -18 0 -9 -8 -14 -18 -12 -9 2 -20 -4 -23 -13 -10 -25 -24 -17
-24 15 0 25 -4 30 -25 30 -14 0 -28 -6 -31 -14z M3235 1468 c-11 -7 -29 -14
-40 -15 -32 -6 -37 -18 -15 -38 16 -14 22 -15 35 -5 12 10 18 10 31 0 24 -21
48 8 35 43 -12 30 -17 32 -46 15z M70 1454 c0 -8 -5 -14 -11 -14 -6 0 -4 -7 5
-15 20 -20 33 -19 46 4 14 27 13 28 -15 33 -17 4 -25 1 -25 -8z M3101 1457
c-6 -6 -11 -15 -11 -20 0 -12 43 -4 47 9 5 16 -22 25 -36 11z M2795 1450 c3
-5 8 -10 11 -10 2 0 4 5 4 10 0 6 -5 10 -11 10 -5 0 -7 -4 -4 -10z M547 1423
c-4 -3 -7 -15 -7 -26 0 -16 5 -18 27 -12 38 9 40 13 17 30 -22 16 -28 18 -37
8z M160 1397 c0 -7 9 -13 20 -13 11 0 20 6 20 13 0 7 -9 13 -20 13 -11 0 -20
-6 -20 -13z M387 1373 c-3 -16 0 -34 6 -41 9 -11 14 -9 29 10 22 29 23 44 2
52 -26 10 -31 7 -37 -21z M310 1369 c0 -5 -5 -7 -11 -3 -7 4 -1 -7 11 -24 28
-37 45 -45 59 -28 19 23 -4 66 -34 66 -14 0 -25 -5 -25 -11z M50 1280 c0 -49
2 -90 4 -90 33 0 66 50 66 99 0 21 6 32 21 36 15 5 18 10 10 18 -14 14 -61 18
-61 6 0 -6 -7 -3 -16 5 -8 9 -17 16 -20 16 -2 0 -4 -40 -4 -90z M466 1361 c-3
-5 0 -13 7 -19 15 -13 42 1 33 17 -9 13 -33 15 -40 2z M3213 1354 c-7 -18 14
-35 34 -27 7 3 13 14 13 24 0 24 -38 26 -47 3z M3604 1356 c-8 -21 3 -36 27
-36 15 0 20 6 17 22 -4 27 -35 37 -44 14z M3671 1356 c-10 -12 -8 -17 8 -25
22 -12 37 0 27 24 -7 19 -20 19 -35 1z M208 1353 c-23 -6 -23 -11 5 -33 21
-18 47 -12 47 11 0 13 -33 26 -52 22z M580 1335 c0 -8 5 -15 10 -15 6 0 10 7
10 15 0 8 -4 15 -10 15 -5 0 -10 -7 -10 -15z M3482 1338 c7 -21 36 -34 49 -21
6 6 8 16 5 22 -10 15 -59 14 -54 -1z M3757 1344 c-14 -14 -6 -24 19 -24 16 0
24 5 22 13 -5 14 -31 21 -41 11z M260 1310 c0 -5 5 -10 10 -10 6 0 10 5 10 10
0 6 -4 10 -10 10 -5 0 -10 -4 -10 -10z M3238 1303 c-21 -5 -22 -13 -6 -48 15
-33 51 -31 56 3 3 22 -13 53 -27 51 -3 -1 -14 -3 -23 -6z M3320 1279 c-18 -33
-9 -64 19 -64 33 0 49 52 23 71 -23 18 -30 17 -42 -7z M3489 1288 c-8 -8 -27
-15 -43 -16 -52 -4 -72 -36 -40 -63 14 -12 20 -9 43 19 22 25 30 29 40 19 10
-9 15 -8 27 8 23 32 0 60 -27 33z M3590 1293 c0 -3 7 -15 17 -25 13 -14 13
-18 2 -18 -8 0 -20 -4 -27 -8 -17 -11 1 -62 22 -62 20 0 39 37 31 57 -3 9 0
20 6 24 20 12 2 39 -26 39 -14 0 -25 -3 -25 -7z M3680 1275 c0 -13 -7 -28 -16
-33 -23 -13 -13 -46 14 -50 20 -3 28 10 23 41 0 4 5 7 13 7 8 0 16 7 20 15 9
25 -4 45 -30 45 -19 0 -24 -5 -24 -25z M483 1274 c-7 -20 24 -47 45 -39 8 3
24 5 37 5 13 0 25 7 27 18 4 13 -2 17 -26 17 -17 1 -41 4 -54 9 -16 5 -24 3
-29 -10z M3791 1281 c-6 -4 -13 -21 -17 -38 -5 -25 -2 -33 14 -42 12 -6 23
-11 26 -11 5 0 26 66 26 81 0 10 -37 17 -49 10z M4084 1279 c-3 -6 -2 -14 2
-19 12 -11 57 7 49 20 -8 13 -42 13 -51 -1z M435 1270 c3 -5 13 -10 21 -10 8
0 12 5 9 10 -3 6 -13 10 -21 10 -8 0 -12 -4 -9 -10z M146 1252 c-8 -13 53 -52
71 -45 21 8 15 30 -11 37 -13 3 -31 8 -39 12 -8 3 -18 1 -21 -4z M3165 1250
c3 -5 8 -10 11 -10 2 0 4 5 4 10 0 6 -5 10 -11 10 -5 0 -7 -4 -4 -10z M3871
1230 c-32 -44 -9 -66 40 -39 16 8 18 14 9 24 -8 9 -8 15 0 20 6 3 8 11 5 16
-11 17 -31 9 -54 -21z M276 1234 c-3 -9 -6 -24 -6 -35 0 -16 6 -19 33 -18 17
2 49 -4 70 -11 27 -10 43 -11 54 -4 28 17 27 34 -2 34 -21 0 -25 4 -20 19 7
23 -7 28 -77 29 -33 1 -48 -3 -52 -14z M4140 1225 c-10 -12 -10 -19 -1 -28 14
-14 46 2 46 24 0 20 -30 23 -45 4z M533 1205 c-7 -7 -18 -15 -25 -18 -8 -2 -9
-8 -4 -13 5 -5 10 -4 13 2 2 6 15 9 28 6 18 -3 25 0 25 11 0 20 -22 27 -37 12z
M4055 1210 c-3 -5 -17 -10 -31 -10 -19 0 -24 -5 -24 -25 0 -18 5 -25 19 -25
11 0 23 5 26 10 3 6 13 10 21 10 20 0 47 27 39 40 -8 13 -42 13 -50 0z M4342
1203 c-5 -10 -7 -24 -5 -30 6 -16 39 -17 48 -2 5 7 13 5 25 -6 9 -8 24 -13 33
-9 18 6 30 31 21 45 -8 14 -54 11 -54 -3 0 -7 -5 -5 -11 5 -5 9 -19 17 -29 17
-11 0 -23 -8 -28 -17z M600 1190 c0 -13 7 -20 19 -20 14 0 18 5 14 20 -3 11
-12 20 -19 20 -8 0 -14 -9 -14 -20z M4585 1189 c-11 -16 35 -29 107 -29 54 -1
69 -3 56 -11 -10 -5 -24 -9 -30 -8 -7 1 -22 1 -33 0 -42 -3 17 -31 65 -31 81
0 112 61 41 80 -45 12 -199 12 -206 -1z M4480 1176 c0 -8 6 -16 13 -19 17 -6
49 12 42 24 -10 15 -55 11 -55 -5z M4887 1184 c-3 -3 -3 -12 0 -20 4 -11 9
-12 19 -3 8 6 11 15 8 20 -6 10 -18 12 -27 3z M3277 1162 c-30 -6 -13 -26 26
-33 33 -5 57 4 57 22 0 8 -58 16 -83 11z M4843 1158 c2 -7 10 -13 17 -13 7 0
15 6 18 13 2 7 -5 12 -18 12 -13 0 -20 -5 -17 -12z M3735 1153 c-58 -9 -76
-54 -30 -75 37 -17 30 -27 -13 -21 -28 4 -44 0 -62 -15 -23 -19 -23 -20 -7
-45 19 -29 62 -42 98 -29 32 12 96 -24 91 -51 -3 -14 -7 -16 -17 -7 -16 14
-57 10 -62 -6 -2 -6 9 -23 23 -38 22 -22 33 -26 58 -20 41 8 55 23 59 60 2 17
11 41 20 54 9 14 17 28 17 33 0 5 7 15 15 23 19 20 19 53 0 61 -15 5 -89 -7
-130 -22 -16 -5 -14 -1 8 19 15 14 27 30 27 36 0 15 -38 50 -52 49 -7 -1 -26
-4 -43 -6z m39 -31 c9 -14 -12 -35 -28 -29 -23 9 -20 37 3 37 11 0 22 -4 25
-8z m106 -86 c0 -9 -8 -12 -27 -8 -25 5 -25 6 -8 13 29 11 35 10 35 -5z m-174
-21 c18 -15 18 -15 -5 -13 -14 2 -26 9 -29 16 -5 17 10 15 34 -3z m139 -35 c3
-5 -1 -10 -9 -10 -8 0 -18 5 -21 10 -3 6 1 10 9 10 8 0 18 -4 21 -10z M4193
1153 c-26 -10 -13 -33 18 -33 24 0 30 4 27 17 -3 18 -24 26 -45 16z M291 1136
c-7 -9 -2 -15 19 -23 23 -9 32 -8 41 3 11 14 12 14 -35 28 -8 3 -19 -1 -25 -8z
M3405 1130 c-4 -7 -3 -16 3 -22 14 -14 45 -2 40 15 -6 16 -34 21 -43 7z M4600
1126 c-5 -5 -10 -15 -10 -21 0 -6 -17 -12 -37 -13 -68 -4 -118 -13 -128 -23
-16 -16 32 -49 74 -50 72 -3 90 -5 97 -12 4 -4 -1 -7 -12 -8 -72 -2 -163 -19
-170 -31 -14 -23 27 -43 98 -48 87 -6 102 -25 26 -35 -88 -10 -106 -16 -112
-31 -8 -20 20 -61 44 -67 22 -6 47 17 30 28 -5 3 -10 13 -10 21 0 10 13 14 53
14 l52 0 -3 -50 c-4 -46 -2 -50 23 -60 15 -6 30 -8 33 -6 2 3 7 31 11 63 l6
58 34 -3 c19 -2 45 -8 58 -13 27 -10 107 -12 141 -3 18 5 22 13 22 50 0 34 -4
44 -16 44 -13 0 -14 3 -5 14 14 17 8 22 -44 32 -43 8 -62 10 -143 12 -29 1
-51 6 -48 10 3 5 55 6 116 4 97 -4 110 -3 110 12 0 12 -10 16 -40 16 -35 0
-39 3 -37 22 2 19 -5 23 -38 29 -22 5 -57 8 -79 8 -29 1 -37 4 -33 15 11 28
-40 45 -63 22z m-23 -72 c-3 -3 -12 -4 -19 -1 -8 3 -5 6 6 6 11 1 17 -2 13 -5z
m213 -15 c9 -5 -1 -7 -25 -4 -22 1 -55 3 -73 4 -20 1 -31 5 -27 11 7 11 99 3
125 -11z m-210 -85 c0 -2 -18 -4 -41 -4 -22 0 -38 4 -35 8 5 8 76 4 76 -4z
m107 0 c-3 -3 -12 -4 -19 -1 -8 3 -5 6 6 6 11 1 17 -2 13 -5z m113 -3 l45 -8
-45 -1 c-25 0 -58 4 -75 8 l-30 8 30 0 c17 0 50 -3 75 -7z m77 -17 c-3 -3 -12
-4 -19 -1 -8 3 -5 6 6 6 11 1 17 -2 13 -5z m31 -39 c4 -4 -2 -13 -13 -22 -15
-11 -33 -13 -75 -7 -30 4 -79 10 -109 13 -33 4 -56 11 -59 20 -4 11 18 12 123
8 70 -3 130 -8 133 -12z M3494 1118 c-4 -5 1 -17 10 -26 12 -13 19 -13 28 -4
16 16 28 15 28 -3 0 -25 30 -17 40 11 6 14 10 27 10 29 0 9 -110 3 -116 -7z
M3203 1083 c-28 -11 -11 -39 19 -34 4 0 6 -17 3 -39 -3 -24 -1 -40 5 -40 5 0
10 -9 10 -19 0 -25 14 -34 40 -26 23 7 27 35 5 35 -8 0 -15 5 -15 10 0 6 9 10
20 10 18 0 40 26 40 49 0 6 -12 11 -27 12 -40 1 -70 14 -55 23 27 17 -11 33
-45 19z M4083 1083 c-17 -6 -16 -30 1 -36 17 -7 40 18 31 33 -7 11 -13 11 -32
3z M4324 1075 c-12 -31 23 -48 45 -21 10 12 8 17 -8 25 -26 14 -31 14 -37 -4z
M4890 1070 c-11 -7 -12 -12 -3 -21 16 -16 32 -8 24 13 -4 12 -10 15 -21 8z
M3114 1059 c-9 -16 35 -54 49 -40 5 5 7 17 5 27 -4 22 -43 31 -54 13z M3045
1051 c-9 -16 30 -76 53 -79 18 -3 22 2 22 22 0 42 -57 85 -75 57z M440 1035
c-9 -11 -7 -16 8 -24 15 -8 23 -7 32 4 9 11 7 16 -8 24 -15 8 -23 7 -32 -4z
M3433 1030 c-27 -11 -30 -28 -7 -37 21 -8 67 14 61 30 -5 16 -26 18 -54 7z
M4101 1031 c-7 -5 -31 -6 -52 -4 -43 6 -43 5 -30 -30 9 -22 16 -25 61 -25 45
0 52 3 61 25 14 38 -6 55 -40 34z M4182 1008 c-19 -19 -14 -38 11 -38 30 0 62
24 53 38 -9 16 -49 15 -64 0z M2955 990 c-4 -7 -3 -16 3 -22 13 -13 54 0 49
15 -5 16 -43 21 -52 7z M3505 990 c3 -5 8 -10 11 -10 2 0 4 5 4 10 0 6 -5 10
-11 10 -5 0 -7 -4 -4 -10z M3524 955 c-11 -28 16 -45 64 -38 32 4 42 10 42 24
0 12 -7 19 -19 19 -10 0 -32 3 -50 6 -23 5 -32 2 -37 -11z M4320 951 c0 -19
26 -41 50 -41 6 0 10 12 8 28 -2 21 -9 28 -30 30 -23 3 -28 -1 -28 -17z M3143
940 c-26 -10 -29 -36 -9 -62 15 -20 41 -24 51 -8 4 6 10 8 14 6 14 -9 34 12
28 29 -5 11 -13 14 -26 10 -14 -4 -18 -1 -17 11 1 21 -12 25 -41 14z M3387
943 c-12 -12 -7 -41 8 -47 22 -8 45 4 45 24 0 23 -37 39 -53 23z M4245 928
c15 -49 73 -64 67 -18 -3 28 -18 40 -50 40 -20 0 -22 -4 -17 -22z M2967 909
c-9 -6 -17 -14 -17 -19 0 -15 40 -32 58 -24 9 4 28 7 42 8 15 1 26 8 28 18 3
15 -3 18 -36 16 -21 0 -43 1 -48 5 -5 3 -17 1 -27 -4z M3630 910 c-13 -9 -11
-13 9 -31 39 -33 81 -10 46 25 -19 18 -34 20 -55 6z M3922 909 c-31 -12 -30
-49 1 -49 21 0 57 27 57 42 0 11 -36 15 -58 7z M4027 887 c-7 -20 12 -37 41
-37 19 0 23 5 20 23 -4 26 -52 37 -61 14z M3373 854 c-15 -40 68 -61 100 -26
29 32 20 40 -39 40 -38 0 -57 -5 -61 -14z M3532 838 c-15 -15 2 -38 28 -38 22
0 44 25 35 40 -8 14 -48 13 -63 -2z M3217 833 c-18 -18 0 -53 28 -53 10 0 35
33 35 46 0 14 -50 20 -63 7z M4160 828 c0 -26 41 -79 58 -76 21 4 27 39 12 67
-12 23 -70 30 -70 9z M4256 833 c-13 -13 -5 -52 14 -74 l20 -24 18 20 c9 11
24 19 33 17 9 -2 24 4 33 13 17 17 22 44 9 46 -59 6 -122 7 -127 2z M3043 807
c-2 -4 -2 -21 2 -37 8 -36 41 -49 59 -24 7 9 18 14 24 10 13 -8 25 10 30 42 3
21 0 22 -54 20 -31 -2 -58 -6 -61 -11z M4676 812 c-3 -5 1 -16 10 -23 17 -14
67 -2 68 16 1 13 -70 19 -78 7z M50 786 c0 -19 4 -24 15 -19 18 6 16 34 -2 41
-8 2 -13 -6 -13 -22z M2943 791 c-4 -16 -11 -18 -44 -14 -30 4 -39 2 -39 -9 0
-10 -9 -13 -36 -10 -31 4 -35 2 -32 -14 4 -22 47 -32 58 -14 6 9 13 9 29 0 18
-9 26 -9 38 2 9 7 28 13 42 13 25 0 56 39 45 57 -10 16 -56 8 -61 -11z M3900
796 c0 -11 -9 -13 -35 -9 -28 5 -35 2 -35 -11 0 -22 28 -32 49 -19 12 7 23 8
35 1 23 -13 46 -3 46 21 0 11 -9 21 -22 25 -33 9 -38 8 -38 -8z M3743 784 c-3
-8 -1 -20 5 -26 16 -16 47 -5 50 20 3 18 -1 22 -23 22 -14 0 -28 -7 -32 -16z
M4075 780 c-3 -6 -17 -7 -30 -4 -29 7 -42 -13 -21 -34 14 -14 20 -15 37 -3 14
8 25 9 31 3 17 -17 48 -1 48 24 0 20 -5 24 -29 24 -17 0 -33 -5 -36 -10z
M3417 773 c-12 -12 -7 -31 10 -37 19 -8 48 17 39 33 -8 12 -39 15 -49 4z
M3300 758 c0 -22 20 -36 41 -31 12 3 19 12 17 22 -4 20 -58 28 -58 9z M4780
752 c0 -21 28 -43 60 -48 19 -3 41 -7 48 -9 14 -5 39 41 29 51 -10 10 -137 16
-137 6z M50 574 c0 -8 9 -14 19 -14 11 0 23 -5 27 -12 10 -16 11 -58 2 -58 -4
0 -8 -5 -8 -11 0 -5 4 -7 10 -4 6 3 7 -1 4 -10 -4 -8 -17 -18 -30 -21 -13 -3
-24 -12 -24 -20 0 -36 125 4 155 50 19 29 7 68 -29 91 -33 22 -126 29 -126 9z
M247 582 l-27 -3 20 -26 c11 -15 17 -29 12 -32 -15 -11 -21 -38 -9 -50 8 -8 8
-11 0 -11 -6 0 -19 -34 -28 -75 -10 -46 -26 -86 -41 -104 -17 -20 -21 -32 -13
-37 20 -12 117 -10 135 3 15 11 16 13 2 13 -32 0 -39 24 -26 86 l13 59 53 3
c46 3 52 1 52 -17 0 -11 4 -22 10 -26 5 -3 14 -22 20 -43 8 -31 7 -39 -7 -50
-26 -19 -6 -29 70 -35 54 -5 67 -3 67 8 0 8 -4 17 -10 20 -5 3 -10 13 -10 21
0 8 -7 30 -15 50 -8 19 -14 37 -14 39 -1 3 -12 27 -26 53 -14 27 -31 68 -38
92 l-13 44 -74 11 c-41 5 -87 9 -103 7z m106 -92 c6 -24 5 -35 -5 -41 -29 -19
-46 10 -34 58 9 33 28 25 39 -17z M824 571 c-7 -7 18 -31 32 -31 10 0 11 -6 5
-22 -4 -13 -7 -34 -5 -48 2 -14 6 -58 8 -98 2 -41 7 -76 10 -79 9 -9 -14 -43
-29 -43 -26 0 -16 -20 10 -21 72 -4 87 -3 91 2 2 4 28 4 58 2 73 -6 96 7 96
56 0 34 -3 39 -27 44 -36 7 -43 2 -43 -33 0 -23 -5 -31 -25 -36 -14 -4 -27 -5
-29 -3 -2 2 -6 36 -9 74 -3 46 -2 62 4 48 6 -17 17 -23 39 -23 31 0 31 1 26
43 -2 23 -5 45 -5 50 -1 12 -46 8 -59 -5 -9 -9 -12 2 -12 51 0 59 1 62 23 59
16 -2 23 -11 25 -30 4 -32 48 -51 63 -27 15 24 10 58 -10 68 -17 10 -227 11
-237 2z M1963 572 c-69 -3 -80 -14 -32 -31 l30 -10 -3 -137 c-2 -108 -6 -138
-18 -144 -29 -17 7 -33 75 -33 48 -1 69 3 75 14 7 10 4 16 -7 20 -22 7 -29 30
-25 83 l4 44 51 6 c136 18 180 118 76 172 -32 16 -113 22 -226 16z m169 -37
c10 -4 12 -19 8 -58 -5 -52 -5 -52 -42 -55 l-38 -3 0 60 c0 61 0 61 29 61 16
0 35 -2 43 -5z M616 558 c-40 -9 -84 -49 -85 -77 0 -9 -3 -40 -6 -68 -4 -37
-2 -53 6 -53 6 0 8 -7 5 -17 -10 -24 64 -89 110 -97 20 -4 65 -4 100 -1 l64 7
0 43 c0 24 3 50 6 58 7 18 -23 26 -121 31 l-70 3 -3 38 c-7 76 40 127 93 103
14 -6 25 -15 25 -20 0 -16 45 -4 48 13 7 37 -82 56 -172 37z m96 -220 c24 -9
43 -42 33 -59 -3 -3 -26 -4 -52 -2 -57 6 -89 34 -72 64 10 20 32 19 91 -3z
M2240 561 c0 -5 6 -13 13 -19 12 -11 13 -82 2 -194 -4 -40 -1 -69 9 -93 l15
-36 113 3 113 3 3 52 c3 44 0 52 -18 58 -35 11 -59 -3 -62 -38 -3 -28 -7 -32
-34 -35 -28 -3 -32 0 -35 25 -2 15 -2 46 1 68 5 39 6 39 18 17 10 -17 21 -22
40 -20 31 3 39 29 23 71 -14 35 -57 38 -71 5 -6 -17 -9 -6 -9 45 l-1 67 30 0
c26 0 30 -4 30 -28 0 -36 16 -52 52 -52 24 0 28 4 28 29 0 16 -4 41 -10 55 -9
25 -10 25 -130 25 -66 0 -120 -4 -120 -8z M2543 563 c-20 -7 -15 -23 10 -32
21 -8 22 -12 22 -144 l0 -136 -29 -7 c-28 -6 -29 -7 -11 -20 19 -14 110 -19
139 -8 23 9 20 21 -7 28 -21 5 -22 11 -25 107 -3 71 0 99 7 95 6 -4 11 -12 11
-18 0 -15 67 -145 93 -179 22 -31 55 -37 103 -19 l27 11 -6 138 -7 139 25 5
c20 3 27 -1 31 -19 7 -26 41 -33 61 -13 6 6 19 9 29 7 16 -3 18 -16 19 -131 0
-70 -3 -127 -7 -127 -5 0 -8 -6 -8 -14 0 -10 19 -15 68 -18 85 -6 100 -1 73
23 -25 23 -37 129 -25 227 5 39 8 42 35 42 22 0 29 -5 29 -19 0 -22 45 -35 59
-17 12 15 7 64 -8 79 -10 10 -245 17 -321 9 -14 -2 -58 0 -99 4 -61 6 -73 4
-69 -7 2 -8 14 -15 26 -17 21 -3 22 -8 21 -95 0 -88 -1 -91 -16 -69 -9 13 -31
58 -50 100 -18 42 -40 82 -48 88 -15 11 -127 16 -152 7z M3295 540 c-5 -8 -1
-16 10 -22 13 -8 15 -18 10 -47 -12 -74 -47 -217 -55 -232 -10 -19 12 -29 63
-29 31 0 33 5 13 26 -11 11 -12 21 -4 46 25 77 30 80 100 69 3 -1 14 -23 23
-51 9 -27 21 -50 26 -50 6 0 9 -7 7 -17 -4 -20 47 -36 100 -31 39 3 49 21 16
26 -22 4 -53 40 -54 62 0 9 -9 33 -19 54 -11 21 -23 52 -26 69 -3 18 -11 45
-17 60 -9 23 -8 30 7 41 26 19 11 24 -96 32 -73 5 -98 3 -104 -6z m102 -75
c-4 -8 -2 -17 3 -20 15 -10 12 -52 -5 -58 -8 -4 -17 -2 -20 4 -6 9 2 65 12 82
8 13 15 7 10 -8z M3679 522 c-50 -32 -57 -43 -69 -116 -5 -36 -4 -59 7 -85 20
-48 85 -107 123 -113 42 -6 123 7 128 21 2 6 10 11 19 11 8 0 13 6 11 13 -6
16 -56 21 -73 7 -28 -23 -65 -3 -88 48 -25 56 -24 83 4 129 23 36 35 34 41 -7
7 -52 67 -27 119 51 39 57 52 35 55 -96 1 -57 5 -108 8 -113 3 -6 -1 -17 -9
-25 -22 -22 -19 -40 5 -34 11 3 20 1 20 -4 0 -10 105 -12 173 -3 40 6 50 12
72 46 28 42 28 45 5 48 -41 6 -69 -3 -98 -31 -18 -18 -35 -29 -39 -26 -3 4 -6
58 -7 121 -1 95 2 117 17 133 9 11 17 22 17 25 0 11 -84 22 -135 19 -75 -5
-154 -4 -210 4 -45 6 -55 3 -96 -23z M4230 520 c0 -5 5 -10 10 -10 6 0 18 -16
27 -35 14 -29 14 -37 3 -50 -10 -12 -14 -44 -13 -106 1 -81 0 -90 -19 -100
-36 -19 -1 -26 122 -24 63 1 120 3 125 4 6 0 11 23 12 51 2 47 0 50 -25 56
-35 9 -41 20 -35 61 3 20 1 33 -5 33 -6 0 -17 3 -25 6 -8 3 -22 -2 -31 -11
-15 -15 -16 -12 -16 44 0 54 2 61 19 61 23 0 36 -16 21 -25 -14 -9 -12 -21 6
-39 33 -33 74 -6 74 48 0 29 -4 34 -31 40 -51 10 -219 7 -219 -4z m171 -213
c13 -2 24 -9 23 -15 -1 -7 -2 -23 -2 -37 -2 -19 -7 -25 -26 -25 -30 0 -32 3
-41 60 -6 38 -5 43 7 32 8 -6 25 -13 39 -15z M1495 510 c-12 -4 -25 -14 -31
-21 -14 -20 -18 -69 -5 -69 6 0 11 -5 11 -11 0 -5 12 -22 26 -37 37 -38 57
-117 38 -154 -8 -15 -23 -32 -34 -38 -28 -15 -16 -30 24 -30 22 0 42 9 63 30
38 37 48 74 32 112 -15 37 -7 44 25 23 35 -23 61 -13 45 17 -23 45 -72 88
-100 88 -15 0 -31 -5 -34 -10 -9 -15 -48 37 -41 55 6 17 22 20 31 5 8 -13 52
-13 60 -1 8 13 -44 51 -69 50 -11 0 -30 -4 -41 -9z M4558 509 c-21 -12 -25
-87 -5 -111 6 -8 32 -21 57 -27 68 -19 87 -39 82 -84 -5 -45 -47 -82 -63 -56
-5 8 -9 22 -9 32 0 23 -39 37 -67 24 -22 -10 -41 -73 -26 -88 4 -4 60 -9 124
-10 148 -3 159 4 151 95 -7 82 -22 103 -80 112 -59 8 -72 19 -72 56 0 29 1 30
38 23 20 -4 45 -15 55 -26 10 -10 21 -19 25 -19 20 0 43 28 45 55 l2 30 -120
2 c-69 2 -127 -2 -137 -8z M1363 390 c-63 -14 -77 -44 -48 -100 15 -28 23 -33
80 -45 43 -8 101 40 91 76 -15 57 -62 83 -123 69z m47 -55 c10 -19 11 -28 2
-37 -23 -23 -61 14 -48 47 8 23 31 18 46 -10z M50 255 c0 -8 7 -15 16 -15 14
0 14 3 4 15 -7 8 -14 15 -16 15 -2 0 -4 -7 -4 -15z M4813 214 c-10 -27 20 -40
85 -36 26 2 31 36 6 46 -31 12 -84 6 -91 -10z M4911 134 c0 -11 3 -14 6 -6 3
7 2 16 -1 19 -3 4 -6 -2 -5 -13z M123 123 c9 -2 23 -2 30 0 6 3 -1 5 -18 5
-16 0 -22 -2 -12 -5z M258 123 c34 -2 88 -2 120 0 31 2 3 3 -63 3 -66 0 -92
-1 -57 -3z"/>
</g>
</svg>
