<?xml version="1.0" standalone="no"?>
<!DOCTYPE svg PUBLIC "-//W3C//DTD SVG 20010904//EN"
 "http://www.w3.org/TR/2001/REC-SVG-20010904/DTD/svg10.dtd">
<svg version="1.0" xmlns="http://www.w3.org/2000/svg"
 width="500.000000pt" height="878.000000pt" viewBox="0 0 500.000000 878.000000"
 preserveAspectRatio="xMidYMid meet">
<metadata>
Created by potrace 1.16, written by Peter Selinger 2001-2019
</metadata>
<g transform="translate(0.000000,878.000000) scale(0.100000,-0.100000)"
fill="#000000" stroke="none">
<path d="M2119 8709 c-10 -10 -19 -24 -19 -31 0 -6 -8 -21 -19 -32 -28 -32
-35 -72 -14 -88 19 -13 63 -73 63 -83 0 -11 -65 -33 -121 -39 -51 -6 -61 -4
-95 19 -29 20 -49 26 -76 23 -33 -3 -37 -1 -40 21 -4 30 -49 64 -91 68 -17 2
-53 6 -78 9 -78 10 -106 -42 -49 -89 43 -36 38 -46 -20 -42 -88 6 -149 -22
-189 -87 -21 -36 -21 -65 0 -52 6 3 25 8 42 10 18 2 44 6 60 9 19 3 27 0 27
-10 0 -7 10 -21 22 -29 l22 -16 -29 0 c-17 -1 -59 -16 -95 -34 -51 -26 -66
-38 -68 -58 -2 -19 -16 -32 -51 -52 -73 -39 -121 -97 -121 -145 0 -51 12 -58
46 -26 35 33 67 35 36 3 -39 -42 -64 -154 -46 -202 11 -29 44 -18 59 18 8 18
21 36 29 39 8 3 25 27 36 52 20 44 22 46 35 28 8 -10 15 -24 15 -30 0 -23 18
-13 40 22 19 31 21 44 15 108 -5 59 -3 76 10 92 16 20 16 20 5 -2 -9 -19 -6
-27 18 -54 23 -26 34 -31 55 -25 14 3 34 20 44 36 23 39 35 38 21 -1 -6 -17
-8 -50 -4 -75 l6 -44 -35 0 c-42 0 -99 -46 -115 -94 -8 -26 -19 -35 -60 -50
-53 -19 -82 -48 -106 -105 -17 -41 -17 -36 2 -55 14 -15 13 -19 -10 -46 -40
-48 -49 -161 -14 -168 9 -2 37 15 61 37 35 33 47 53 61 104 9 35 28 76 41 93
l24 29 1 -40 c0 -46 6 -57 36 -73 17 -9 25 -8 38 7 9 9 16 24 16 33 0 8 8 22
19 32 14 13 24 14 45 7 32 -13 32 -18 5 -47 -25 -26 -38 -107 -20 -119 7 -3
23 0 36 9 30 20 35 20 35 1 0 -9 -38 -56 -85 -104 -77 -79 -86 -93 -88 -129 0
-23 6 -50 17 -66 21 -32 34 -25 68 35 12 21 30 41 40 45 10 3 18 10 18 16 0 5
13 -4 30 -22 19 -21 28 -39 26 -53 -3 -12 -5 -32 -5 -43 -1 -13 -17 -32 -43
-50 -58 -38 -78 -63 -78 -100 0 -19 -8 -38 -21 -50 -42 -38 -57 -112 -30 -145
l20 -24 41 40 c23 22 49 54 58 70 22 41 28 10 8 -40 -9 -21 -16 -50 -16 -66 0
-15 -4 -30 -9 -34 -5 -3 -17 -31 -26 -63 l-17 -57 -22 28 c-25 32 -37 33 -77
10 -40 -24 -39 -63 2 -97 l31 -27 -18 -47 c-25 -65 -34 -122 -23 -149 11 -28
23 -29 60 -2 l29 20 0 -31 c0 -49 -16 -70 -54 -70 -37 0 -66 -25 -66 -57 0
-40 37 -52 91 -29 13 6 18 -1 22 -32 7 -40 47 -124 74 -154 61 -68 105 81 49
163 -30 44 -43 89 -27 89 24 0 53 39 58 80 l6 43 14 -27 c11 -21 20 -26 41
-24 26 3 27 5 28 66 1 40 -5 83 -17 115 -18 50 -18 51 1 64 37 26 15 130 -43
200 -38 47 -39 49 -32 108 4 41 13 66 27 80 l20 20 -5 -31 c-7 -37 7 -97 27
-113 24 -20 43 -2 49 48 3 27 15 65 25 85 l20 37 21 -45 c25 -52 52 -78 58
-58 3 6 11 12 19 12 13 0 15 9 18 100 2 42 -25 113 -55 145 -15 17 -37 51 -48
78 -11 26 -25 47 -31 47 -5 0 -10 9 -10 20 0 31 -22 73 -51 100 -33 29 -54
115 -27 105 21 -8 30 17 37 95 l6 64 19 -28 c14 -22 19 -50 20 -125 2 -106 21
-159 71 -194 24 -17 28 -18 50 -3 14 9 25 18 25 21 0 28 -38 151 -62 202 l-31
66 27 19 c34 26 33 35 -9 59 -19 12 -35 27 -35 34 0 37 -101 112 -134 99 -9
-3 -16 -1 -16 5 0 18 29 24 46 10 14 -11 19 -10 35 10 22 27 25 102 7 162 -9
33 -9 42 5 57 10 10 17 26 17 35 0 17 -45 57 -65 57 -7 0 -19 7 -26 16 -11 14
-9 19 14 36 15 11 27 27 27 36 0 13 4 12 20 -5 14 -16 18 -30 14 -55 -6 -32
-3 -35 39 -56 36 -18 46 -29 51 -56 8 -42 46 -80 103 -106 l43 -19 -3 -59 c-2
-34 -13 -79 -26 -105 l-22 -45 20 -62 c26 -78 59 -132 79 -128 23 5 45 84 47
173 1 44 6 105 10 136 l8 57 31 -9 c17 -5 47 -9 67 -9 20 0 51 -3 68 -6 31 -6
32 -8 27 -48 -3 -22 -8 -174 -12 -336 -7 -342 -10 -430 -18 -675 -3 -99 -8
-333 -12 -520 -6 -379 -10 -515 -18 -720 -3 -77 -8 -255 -11 -395 -6 -254 -10
-344 -20 -515 -14 -237 -15 -239 -31 -248 -39 -22 -55 -47 -44 -67 9 -17 6
-27 -12 -53 -12 -17 -30 -61 -39 -97 -10 -37 -24 -83 -32 -103 l-16 -36 -78
-3 c-43 -2 -96 1 -117 5 -31 6 -42 5 -48 -8 -12 -20 -36 -19 -40 1 -3 17 -64
33 -297 80 -125 25 -121 31 -121 -191 0 -115 -4 -175 -11 -182 -16 -16 6 -69
30 -76 10 -2 83 8 162 24 156 30 329 50 329 37 0 -4 -9 -8 -20 -8 -32 0 -101
-39 -140 -79 -19 -20 -49 -46 -65 -59 -17 -13 -53 -46 -82 -73 -50 -48 -83
-62 -83 -36 0 32 -63 99 -115 123 l-53 24 5 63 c5 64 1 77 -51 151 -19 26 -18
27 2 49 37 39 53 153 32 229 -15 53 -99 142 -148 156 -22 7 -51 12 -66 12 -14
0 -26 2 -26 5 0 3 12 28 26 56 33 66 48 144 47 249 -1 73 -6 96 -33 160 -38
88 -54 114 -94 159 l-31 33 31 -6 c68 -15 154 76 158 166 4 67 -49 180 -93
199 -17 8 -31 17 -31 21 0 4 -18 12 -40 18 -42 11 -52 34 -27 59 8 8 12 52 11
151 0 154 -5 171 -76 263 -45 59 -110 110 -183 143 -68 32 -200 45 -282 28
-32 -6 -58 -12 -58 -12 0 0 -9 -4 -20 -7 -129 -42 -234 -132 -270 -234 -19
-51 -23 -56 -48 -53 -22 3 -27 -1 -27 -17 0 -14 13 -26 43 -39 48 -22 85 -58
93 -93 16 -66 15 -79 -6 -114 -23 -37 -38 -49 -20 -16 16 31 12 63 -13 104
-21 34 -70 77 -89 77 -22 0 -4 -52 28 -84 38 -38 40 -56 18 -125 -7 -22 -5
-23 19 -17 16 4 27 2 27 -4 0 -24 32 -7 54 29 14 22 30 42 36 46 28 17 -6 136
-56 190 -36 40 -36 40 -25 91 30 130 261 261 441 248 67 -5 138 -28 185 -60
20 -13 39 -24 43 -24 20 0 92 -86 120 -143 26 -53 31 -70 27 -117 -3 -30 0
-70 5 -89 7 -24 5 -42 -5 -65 -12 -26 -13 -27 -9 -6 6 36 -10 84 -29 88 -15 3
-17 -6 -17 -63 0 -69 -20 -125 -44 -125 -8 0 -16 -7 -19 -14 -8 -21 30 -31 50
-14 14 10 13 6 -3 -21 -55 -96 -208 -166 -289 -131 -15 6 -7 9 31 9 62 1 108
16 152 49 35 27 44 57 13 49 -14 -3 -17 0 -14 14 7 24 -14 25 -39 2 -26 -23
-82 -21 -115 3 -32 24 -41 44 -19 44 8 0 19 6 23 13 4 8 16 17 27 20 15 6 17
14 13 43 -9 53 -31 81 -88 109 l-50 26 -58 -27 c-98 -43 -136 -102 -129 -196
2 -29 8 -62 13 -73 8 -20 8 -20 -16 1 -55 47 -173 75 -264 64 -38 -5 -40 -7
-43 -43 -3 -34 -1 -37 15 -29 35 18 98 21 150 8 101 -27 166 -86 179 -162 8
-52 18 -68 37 -61 17 7 15 73 -3 122 l-10 27 44 -25 c52 -29 118 -41 205 -38
113 5 195 50 262 143 37 52 37 52 73 38 32 -12 35 -35 4 -27 -24 7 -48 -8 -48
-28 0 -7 14 -15 30 -19 52 -10 80 -47 80 -105 0 -67 -13 -95 -49 -111 -35 -14
-39 -25 -14 -34 12 -5 13 -10 5 -18 -7 -7 -27 1 -69 30 -76 54 -130 73 -230
79 -200 14 -399 -84 -472 -232 -21 -42 -25 -64 -25 -150 -1 -90 2 -105 26
-151 28 -53 27 -64 -3 -64 -28 0 -78 -48 -105 -102 -33 -64 -43 -162 -21 -205
l16 -31 -39 -6 c-35 -5 -40 -10 -40 -32 0 -26 1 -26 49 -20 36 5 51 3 60 -8 9
-11 9 -14 -1 -13 -7 1 -34 -2 -60 -6 -43 -7 -48 -11 -48 -35 0 -20 3 -23 12
-14 7 7 34 12 60 12 41 0 50 3 57 23 5 12 12 20 17 17 15 -9 16 41 1 58 -7 9
-24 45 -37 80 -20 56 -22 68 -10 105 19 67 46 102 100 131 l50 27 62 -34 c75
-42 188 -61 188 -33 0 10 -9 16 -22 17 -57 3 -78 10 -136 44 -104 61 -136 117
-133 233 2 98 13 127 72 201 34 43 58 61 117 88 94 43 125 48 245 46 86 -1
105 -5 160 -31 95 -46 166 -116 216 -214 22 -46 44 -99 47 -118 4 -31 2 -29
-15 15 -28 67 -118 183 -170 219 -51 34 -121 47 -121 23 0 -10 19 -25 46 -38
82 -37 158 -135 174 -225 5 -33 14 -79 19 -104 13 -60 3 -117 -27 -162 -23
-36 -24 -68 -2 -68 11 0 56 67 71 107 5 14 12 23 16 19 8 -8 -58 -137 -74
-143 -16 -6 -16 -13 1 -36 9 -12 31 -19 66 -22 99 -9 177 -80 195 -179 9 -47
-13 -127 -42 -158 -38 -40 -56 -36 -72 16 -26 89 -97 147 -199 162 -58 9 -181
-13 -225 -40 -42 -26 -135 -98 -191 -148 -22 -21 -46 -38 -52 -38 -6 0 -17
-11 -24 -25 -20 -37 -70 -30 -120 16 -56 53 -68 151 -26 218 46 73 154 141
224 141 52 0 118 -32 150 -71 27 -33 52 -38 52 -11 0 30 -59 90 -107 112 -63
28 -213 31 -266 5 -47 -22 -124 -96 -138 -132 -17 -45 -19 -121 -3 -134 8 -6
14 -25 14 -41 0 -63 55 -123 141 -153 24 -9 52 -14 63 -11 16 4 18 0 12 -32
-3 -20 -6 -48 -6 -62 0 -23 -4 -25 -51 -27 -117 -6 -233 -56 -332 -143 -46
-41 -47 -43 -47 -99 l0 -57 67 63 c84 77 173 123 255 131 44 4 62 9 65 21 5
21 77 20 101 -3 10 -9 28 -16 40 -16 25 0 82 -46 82 -66 0 -16 41 -19 56 -4
14 14 27 -3 47 -63 15 -46 14 -77 -3 -77 -4 0 -10 -17 -13 -37 -3 -21 -8 -48
-12 -60 -6 -18 -3 -23 9 -23 23 0 20 -10 -15 -63 -55 -83 -118 -114 -214 -104
-58 6 -99 27 -136 71 -24 28 -26 36 -19 83 8 67 31 93 80 93 21 0 40 -6 42
-12 8 -24 -7 -59 -31 -71 -27 -14 -29 -28 -7 -42 12 -7 26 -4 53 10 29 16 39
28 45 58 5 24 4 46 -3 59 -6 11 -8 22 -6 25 8 7 37 -53 37 -76 0 -11 -11 -33
-25 -49 -33 -40 -33 -56 2 -47 77 18 96 90 50 187 -24 51 -32 59 -68 68 -81
22 -249 -36 -249 -86 0 -8 9 -14 20 -14 25 0 25 -8 -1 -36 -20 -21 -21 -27
-10 -84 16 -93 35 -119 121 -164 71 -38 76 -39 125 -29 27 6 52 9 53 8 2 -2
-3 -18 -11 -37 -32 -75 -39 -108 -44 -203 -5 -90 -3 -108 21 -178 37 -109 77
-166 180 -255 l39 -34 -30 -41 c-16 -23 -50 -55 -76 -71 -44 -27 -57 -30 -151
-32 -102 -2 -102 -2 -186 39 -54 27 -94 55 -113 79 -17 21 -28 40 -26 43 3 2
25 -12 50 -33 43 -35 105 -67 176 -89 75 -25 253 37 253 88 0 27 -23 24 -61
-8 -28 -24 -44 -28 -104 -31 -63 -4 -77 -1 -111 21 -21 13 -49 27 -61 31 -32
10 -93 91 -109 144 -11 36 -12 54 -3 80 13 39 2 53 -33 44 -41 -10 -45 -90
-10 -200 6 -18 7 -30 3 -27 -14 8 -44 129 -42 170 3 54 18 105 39 132 l17 22
45 -20 c78 -36 148 -50 212 -43 67 8 78 17 71 62 -4 26 -10 32 -31 32 -30 0
-102 43 -156 94 -44 39 -45 40 -65 27 -12 -8 -12 -13 2 -35 10 -14 33 -41 52
-61 41 -40 34 -46 -14 -11 -89 66 -151 159 -151 228 0 36 -2 39 -22 32 -13 -3
-24 -11 -26 -15 -20 -51 -25 150 -6 210 6 22 5 23 -19 19 -24 -5 -26 -3 -21
21 22 101 65 170 129 207 15 9 17 15 8 24 -18 19 -82 -17 -120 -68 l-33 -44 0
-247 0 -248 32 -44 c17 -24 40 -50 50 -57 25 -18 23 -25 -13 -62 -23 -22 -35
-28 -42 -21 -18 18 -27 12 -27 -19 0 -20 5 -30 15 -30 13 0 14 -7 8 -37 -11
-53 -6 -188 8 -215 61 -117 109 -158 237 -203 111 -39 268 -32 364 15 26 12
30 11 60 -19 18 -17 43 -34 55 -37 28 -7 93 4 110 18 9 7 22 7 40 0 67 -26
207 -38 285 -23 100 19 166 50 231 110 75 69 117 133 117 175 l0 37 38 -7 c20
-4 57 -13 82 -22 35 -12 98 -15 291 -16 l246 -1 11 -29 c8 -21 8 -34 0 -50
-17 -31 -27 -97 -21 -129 7 -36 83 -114 129 -133 86 -36 197 -7 244 63 32 47
34 138 3 198 -15 30 -18 47 -12 70 5 16 6 39 3 51 -8 33 26 48 95 40 65 -7
160 8 211 34 52 26 126 111 141 159 8 28 18 41 30 41 40 0 90 126 94 240 0 8
16 17 39 22 22 5 54 19 72 33 34 26 48 66 59 182 7 60 6 62 -30 101 -35 39
-36 42 -21 65 20 30 33 142 18 151 -6 4 -9 13 -6 20 7 19 -125 94 -199 112
-32 9 -79 17 -105 19 -26 2 -50 4 -54 4 -4 1 -5 7 -2 14 7 19 -10 58 -39 90
-30 31 -30 31 79 17 43 -5 147 -17 229 -26 165 -17 260 -38 282 -60 8 -8 21
-14 29 -14 21 0 54 19 54 30 0 25 -141 61 -355 91 -155 22 -163 23 -308 37
-180 19 -777 20 -887 2 -30 -5 -89 -12 -130 -15 -86 -7 -293 -41 -336 -54 -50
-16 -112 -22 -119 -11 -3 5 3 10 15 10 11 0 23 6 26 14 3 8 13 12 24 9 26 -7
37 20 45 115 7 71 5 82 -9 88 -25 9 -30 -1 -37 -69 -6 -50 -6 -44 -4 28 2 50
1 96 -2 102 -7 19 -41 -2 -46 -29 -2 -13 -5 -2 -6 24 l-1 48 33 -5 c37 -5 72
-12 95 -19 9 -3 58 -10 107 -16 50 -6 104 -13 120 -15 17 -2 156 -6 310 -9
279 -6 535 -15 584 -21 48 -6 476 -1 476 5 0 1 27 4 60 6 72 4 177 21 244 39
47 12 49 12 59 -10 6 -13 8 -79 5 -163 l-4 -142 27 -10 c20 -8 29 -8 35 1 9
15 13 115 11 278 -1 101 -4 127 -18 142 -12 13 -21 16 -29 9 -6 -5 -14 -7 -17
-4 -4 3 -45 -13 -92 -35 -46 -22 -111 -45 -143 -50 -43 -8 -343 -28 -454 -31
-10 0 -27 72 -35 145 -6 57 -12 74 -35 98 -23 22 -27 32 -19 51 12 32 -9 68
-45 77 l-30 8 2 178 c1 98 5 243 7 323 3 80 8 771 12 1535 3 765 9 1393 13
1396 3 4 48 9 99 13 l93 7 -6 -89 c-6 -85 -5 -91 19 -120 18 -20 26 -42 26
-66 0 -41 11 -44 65 -21 39 16 55 46 55 105 0 28 -6 43 -21 54 -17 12 -22 27
-25 90 -4 67 -2 77 13 82 76 25 143 77 143 110 0 20 54 74 73 74 8 0 22 9 31
19 14 15 15 24 6 40 -13 26 0 54 40 88 19 16 26 29 23 43 -5 19 20 70 35 70 4
0 7 -12 8 -27 0 -16 8 -93 18 -173 17 -136 17 -290 2 -360 -3 -13 -10 -67 -16
-120 -5 -52 -13 -117 -15 -145 -8 -66 -34 -268 -43 -325 -9 -60 -9 -285 1
-335 15 -82 44 -179 107 -355 99 -278 108 -446 31 -580 -64 -111 -84 -168 -77
-219 9 -75 24 -158 30 -177 7 -22 66 -65 77 -58 16 9 58 213 59 279 0 17 7 41
16 54 9 13 23 42 30 65 12 38 13 39 13 11 1 -16 -6 -52 -14 -80 -17 -54 -14
-75 9 -75 31 0 119 193 111 243 -2 12 -6 50 -10 85 -6 60 -5 64 23 90 19 18
36 52 51 99 20 63 21 78 11 132 -6 34 -17 80 -25 102 -18 49 -18 52 -5 44 6
-3 10 -15 10 -26 0 -10 4 -19 9 -19 5 0 14 -13 20 -30 10 -30 34 -40 47 -18
12 19 8 151 -6 194 -7 21 -25 68 -41 103 -22 47 -27 67 -19 76 22 27 -44 182
-118 279 -94 122 -165 267 -142 290 7 7 10 6 10 -2 0 -23 92 -173 116 -188 12
-9 35 -14 51 -12 23 2 28 8 28 31 -1 21 3 26 17 21 25 -8 58 5 58 22 0 8 -23
44 -51 79 -28 36 -47 65 -42 65 4 0 26 -14 47 -30 64 -48 102 -33 55 21 -24
28 -89 136 -89 149 0 5 12 10 28 12 23 3 27 8 30 40 3 39 -26 119 -65 177 -26
41 -22 52 10 25 56 -49 127 -70 127 -39 0 9 -19 37 -43 63 -56 61 -77 92 -77
115 0 16 5 14 30 -13 23 -25 36 -31 62 -28 25 2 34 8 36 24 4 30 -34 90 -74
114 -19 12 -34 26 -34 31 0 5 23 9 50 9 55 0 73 17 49 46 -22 27 -127 74 -169
76 -22 1 -40 5 -40 10 0 4 3 8 8 9 4 0 16 2 27 4 11 2 31 6 45 8 32 5 61 20
83 45 21 23 12 33 -45 51 -21 7 -38 14 -38 16 0 3 14 25 32 49 30 44 31 45 14
71 l-18 27 -22 -21 c-12 -12 -24 -21 -27 -21 -2 0 -5 30 -7 68 -2 37 -5 74 -8
83 -7 24 -62 45 -77 30 -20 -20 -28 -12 -21 23 7 39 -3 99 -17 94 -4 -2 -21
-28 -36 -58 -35 -69 -53 -76 -53 -21 0 47 -4 48 -76 26 -27 -8 -50 -15 -50
-15 -1 0 -5 11 -8 25 -7 29 -33 33 -43 8 -6 -15 -8 -14 -13 7 -5 21 -12 25
-48 28 l-42 3 0 -45 c0 -24 -3 -52 -6 -61 -6 -14 -10 -13 -29 11 -32 40 -55
27 -55 -31 0 -31 -10 -67 -32 -111 -29 -60 -34 -65 -57 -59 -14 4 -39 15 -56
25 -27 17 -28 19 -10 26 35 12 55 36 55 65 0 15 5 31 10 34 22 14 10 60 -21
80 -17 11 -35 30 -40 43 -7 19 -16 22 -68 22 -33 0 -63 -4 -66 -10 -3 -5 -17
-10 -31 -10 -61 0 -90 -79 -58 -156 14 -33 13 -35 -8 -43 -23 -8 -23 -7 -28
80 -4 75 -9 91 -29 113 -15 16 -35 26 -53 26 l-28 0 30 -27 c28 -27 30 -32 32
-115 1 -48 -1 -90 -4 -93 -3 -3 -28 -8 -57 -12 l-51 -6 0 127 0 126 -25 0
c-24 0 -25 -2 -25 -69 0 -39 5 -73 10 -76 6 -4 7 -12 3 -18 -4 -7 -9 -27 -10
-46 -1 -18 -4 -35 -6 -37 -1 -2 -20 2 -40 8 l-37 11 0 78 c0 61 5 86 21 113
l21 36 -25 0 c-37 0 -58 -40 -64 -126 -6 -71 -23 -105 -23 -45 0 17 -5 33 -11
37 -6 3 -8 17 -4 31 13 55 -43 89 -163 98 -33 3 -48 -1 -63 -16z m819 -26 c2
-14 10 -23 21 -23 40 0 55 -47 21 -68 -17 -10 -18 -15 -8 -31 17 -28 -7 -54
-44 -49 -16 3 -33 -1 -38 -7 -13 -16 16 -55 41 -55 10 0 19 -4 19 -9 0 -15 84
-49 163 -65 88 -18 154 -20 193 -6 15 6 28 9 30 7 2 -2 -8 -20 -22 -41 -14
-20 -23 -44 -20 -52 7 -18 -13 -18 -39 -1 -11 8 -56 23 -100 35 -44 13 -96 28
-115 34 -19 6 -73 17 -120 25 -47 7 -98 16 -115 19 -121 19 -222 29 -290 28
-228 -3 -452 -36 -635 -92 -104 -32 -106 -32 -102 -6 2 13 -13 36 -40 65 -24
24 -43 53 -43 64 0 17 -11 25 -75 55 -8 4 -17 15 -18 25 -3 14 1 16 20 10 12
-4 29 -13 37 -20 10 -10 21 -11 39 -4 32 12 59 -6 40 -28 -9 -11 -9 -16 3 -24
8 -5 18 -9 22 -9 4 0 3 -9 -3 -20 -26 -48 95 -65 235 -33 33 8 77 16 97 18 61
6 119 49 102 76 -3 5 -14 9 -25 9 -15 0 -19 6 -17 22 2 16 -3 23 -22 28 -33 8
-40 54 -12 69 11 6 22 21 26 35 6 24 37 39 61 29 8 -2 11 -11 9 -18 -9 -22 15
-28 42 -10 32 21 47 11 39 -26 -4 -18 -1 -36 9 -50 11 -16 12 -27 5 -41 -26
-49 99 -91 264 -87 151 4 218 15 239 40 16 19 16 22 -2 52 -25 41 -25 53 1 60
23 6 17 27 -7 27 -16 0 -16 2 -8 24 3 9 18 16 33 16 14 0 35 7 46 16 28 21 59
14 63 -13z m339 -55 c-3 -8 -6 -5 -6 6 -1 11 2 17 5 13 3 -3 4 -12 1 -19z
m173 6 c0 -3 -4 -14 -10 -24 -11 -20 9 -34 35 -24 8 4 15 2 15 -4 0 -8 -72
-32 -99 -32 -15 0 32 89 47 90 6 0 12 -3 12 -6z m-101 -11 c0 -5 -4 -17 -9
-28 -8 -18 -9 -17 -9 8 -1 15 4 27 9 27 6 0 10 -3 9 -7z m214 -8 c-3 -9 -8
-14 -10 -11 -3 3 -2 9 2 15 9 16 15 13 8 -4z m-313 -87 c-11 -15 -18 -33 -15
-38 8 -13 41 -13 66 0 28 15 25 -5 -6 -36 -15 -15 -22 -30 -18 -40 5 -15 -2
-16 -63 -9 -38 4 -71 9 -73 10 -2 2 12 19 31 39 18 19 47 63 63 97 27 56 30
60 33 34 2 -17 -5 -39 -18 -57z m363 28 c-23 -41 -89 -106 -107 -106 -18 0
-16 4 12 33 18 18 32 43 32 56 0 18 4 22 19 18 10 -2 25 -1 32 4 19 12 21 11
12 -5z m-462 -49 c-10 -9 -11 -8 -5 6 3 10 9 15 12 12 3 -3 0 -11 -7 -18z
m323 14 c8 -12 -35 -47 -66 -55 -24 -5 -28 -3 -28 14 0 17 4 20 19 15 13 -4
26 1 38 14 20 22 29 25 37 12z m209 -15 c-3 -13 -13 -26 -24 -29 -16 -4 -16
-2 3 24 12 16 23 29 23 29 1 0 0 -11 -2 -24z m-53 -40 c0 -2 -9 -6 -20 -9 -11
-3 -18 -1 -14 4 5 9 34 13 34 5z m-1760 -26 c11 -7 7 -10 -17 -10 -18 0 -33 5
-33 10 0 13 30 13 50 0z m1500 -11 c0 -7 10 -9 26 -5 19 5 25 3 22 -6 -3 -7
-21 -14 -41 -15 -36 -3 -54 8 -42 27 8 14 35 13 35 -1z m-1852 -39 c-49 -33
-98 -38 -91 -10 6 21 47 38 97 39 l39 1 -45 -30z m2099 5 c-15 -14 -37 -25
-47 -25 -23 0 -54 -40 -41 -53 6 -6 49 -11 97 -13 88 -3 149 -19 138 -36 -4
-5 -15 -8 -25 -5 -11 3 -17 1 -13 -4 3 -5 -1 -9 -8 -9 -42 -2 -96 -14 -115
-26 -12 -8 -28 -14 -36 -14 -7 0 -22 -6 -32 -14 -16 -12 -17 -16 -6 -30 10
-12 32 -16 97 -16 84 0 152 -17 184 -46 12 -12 11 -14 -8 -14 -12 0 -30 4 -40
9 -42 22 -109 30 -148 19 -54 -16 -67 -27 -53 -44 7 -8 31 -14 60 -14 37 0 64
-8 107 -32 66 -37 72 -42 96 -83 15 -24 12 -22 -16 9 -34 39 -36 40 -108 42
-119 3 -156 -26 -85 -67 19 -12 36 -24 36 -27 1 -4 2 -23 3 -42 3 -45 25 -110
47 -135 21 -24 58 -104 59 -125 0 -8 -16 7 -35 34 -19 27 -35 55 -35 62 0 15
-119 134 -133 134 -6 0 -21 -10 -33 -21 -23 -21 -23 -22 -4 -48 22 -31 71
-214 73 -276 1 -24 5 -41 8 -39 3 2 16 -29 27 -70 12 -40 30 -84 40 -97 10
-13 22 -33 26 -43 5 -16 4 -17 -9 -6 -26 22 -82 123 -100 180 -9 30 -19 62
-22 70 -3 8 -6 32 -7 54 -3 41 -27 69 -52 59 -8 -3 -14 -13 -14 -22 0 -9 -5
-22 -12 -29 -9 -9 -9 -18 0 -37 7 -14 12 -47 12 -73 0 -78 34 -188 79 -254 23
-34 41 -65 41 -69 0 -4 10 -19 23 -32 39 -41 61 -73 93 -133 31 -58 50 -114
39 -114 -17 0 -68 61 -71 84 -1 14 -9 33 -18 41 -8 8 -18 24 -21 36 -4 11 -26
49 -50 82 -23 34 -52 81 -63 103 -21 41 -56 60 -88 47 -58 -22 30 -178 190
-338 56 -55 107 -111 115 -124 42 -76 59 -109 64 -131 9 -39 17 -127 10 -110
-3 8 -18 33 -33 55 -15 22 -40 65 -55 95 -37 71 -114 190 -125 190 -4 0 -25
25 -46 55 -36 53 -39 55 -78 53 -37 -3 -41 -6 -43 -32 -3 -40 30 -90 83 -127
49 -34 55 -42 22 -34 -39 10 -62 -17 -64 -71 0 -27 3 -56 7 -64 65 -123 72
-146 74 -225 0 -66 6 -90 29 -138 15 -32 26 -60 24 -62 -4 -5 -32 25 -36 38
-5 17 -17 4 -14 -16 5 -42 -25 36 -32 84 -6 40 -81 271 -105 324 -12 25 -52
161 -58 195 -9 53 -11 309 -3 347 5 22 12 66 16 99 3 32 7 61 9 64 2 3 6 50
10 105 3 55 10 114 15 130 4 17 8 58 8 91 1 34 6 81 13 105 15 56 13 427 -3
439 -4 3 -9 31 -12 63 -3 32 -9 63 -12 69 -4 6 -2 8 3 5 6 -4 18 2 27 12 10
11 26 16 43 14 16 -2 53 5 83 16 70 25 70 25 37 -4z m118 -15 c-18 -18 -39
-30 -54 -30 -22 0 -19 5 24 29 64 37 64 37 30 1z m-934 -15 c168 -29 280 -61
377 -107 65 -30 82 -58 35 -58 -14 0 -35 -7 -45 -17 -19 -17 -25 -68 -8 -78
12 -8 13 -25 1 -25 -5 0 -32 15 -60 34 -61 41 -155 62 -386 87 -120 13 -480 6
-550 -10 -104 -25 -133 -34 -178 -58 -41 -23 -50 -25 -57 -12 -6 9 -5 19 4 27
7 7 11 25 8 38 -5 29 -53 66 -60 46 -6 -20 -21 -14 -36 16 -17 33 -11 47 24
55 14 3 79 19 145 36 66 17 143 31 170 32 28 1 64 4 80 8 17 3 109 8 206 10
155 2 194 0 330 -24z m-1201 -2 c0 -5 -11 -13 -25 -20 -27 -12 -33 -5 -13 15
13 13 38 16 38 5z m-45 -123 c-3 -5 -14 -10 -24 -10 -10 0 -26 -9 -36 -20 -12
-13 -30 -20 -54 -19 l-36 0 24 17 c13 9 45 22 70 29 60 15 63 15 56 3z m110
-67 c4 -16 2 -23 -7 -23 -8 0 -15 13 -16 32 -3 35 11 29 23 -9z m233 13 c2
-10 -1 -23 -7 -29 -16 -16 -34 6 -26 33 8 24 28 22 33 -4z m-356 -18 c2 -25 8
-34 26 -36 12 -2 22 -8 22 -14 0 -6 -9 -7 -22 -3 -13 4 -37 8 -55 8 -29 1 -31
2 -21 26 21 57 45 66 50 19z m828 -23 c0 -22 -4 -25 -37 -25 -43 0 -118 19
-109 27 4 5 67 15 134 22 7 0 12 -10 12 -24z m136 -172 c-4 -109 -9 -556 -11
-993 -4 -678 -9 -1066 -20 -1490 -1 -47 -6 -94 -10 -104 -6 -13 -5 -21 3 -24
17 -5 15 -23 -5 -38 -17 -13 -17 -15 1 -29 17 -13 18 -15 3 -15 -21 0 -22 -26
-2 -34 18 -7 20 -53 3 -59 -10 -3 -10 -9 -1 -25 10 -16 10 -27 1 -46 -8 -19
-8 -29 0 -39 7 -8 9 -17 5 -21 -11 -11 -12 -69 -2 -88 7 -14 6 -18 -6 -18 -18
0 -20 -26 -3 -36 8 -5 5 -11 -7 -20 -17 -13 -17 -15 -2 -32 23 -25 21 -49 -3
-62 -26 -14 -26 -36 1 -43 25 -7 16 -27 -12 -27 -28 0 -23 -29 7 -40 31 -12
24 -29 -11 -22 -20 3 -25 0 -25 -17 0 -14 6 -21 19 -21 11 0 23 -5 27 -11 4
-7 -6 -10 -32 -7 -35 3 -39 1 -37 -19 2 -15 -3 -23 -12 -23 -8 0 -15 -8 -15
-19 0 -10 -7 -24 -15 -31 -8 -7 -12 -16 -9 -21 5 -8 -18 -39 -29 -39 -3 0 -4
15 -2 33 4 49 14 274 20 447 3 85 7 207 10 270 3 63 7 196 10 295 3 99 7 243
10 320 3 77 7 255 10 395 3 140 7 377 10 525 3 149 8 356 10 460 6 218 8 292
31 845 2 58 4 108 4 113 0 4 21 7 46 7 l46 0 -6 -197z m156 -588 c-5 -1740
-13 -2605 -26 -2899 -3 -67 -15 -80 -33 -39 -7 16 -31 52 -54 82 l-40 53 5
207 c10 341 17 832 21 1461 10 1290 16 1807 21 1863 l7 58 51 -3 51 -3 -3
-780z m181 765 c43 -5 80 -10 83 -10 2 0 4 -4 4 -10 0 -5 -8 -10 -18 -10 -10
0 -22 -4 -27 -9 -11 -10 -156 -31 -167 -24 -10 5 -10 45 -2 67 4 10 14 14 28
11 11 -2 56 -9 99 -15z m397 -11 c0 -20 -24 -26 -35 -9 -8 13 14 42 26 34 5
-3 9 -14 9 -25z m-993 -49 c21 -6 44 -14 52 -16 8 -2 11 -7 9 -10 -8 -7 -116
25 -123 37 -4 5 -15 9 -25 9 -24 0 -37 20 -19 30 8 6 23 0 41 -15 15 -13 44
-29 65 -35z m-882 16 c-40 -15 -65 -32 -77 -51 -17 -28 -45 -51 -54 -43 -8 8
61 77 96 97 19 11 49 20 65 20 24 0 19 -4 -30 -23z m350 14 c3 -5 1 -10 -4
-10 -6 0 -11 5 -11 10 0 6 2 10 4 10 3 0 8 -4 11 -10z m379 -32 c8 -18 17 -53
21 -77 10 -60 -3 -205 -21 -228 -13 -16 -14 -13 -7 32 13 85 6 254 -12 281 -9
14 -11 24 -5 24 6 0 17 -15 24 -32z m926 15 c0 -10 -10 -43 -22 -73 -17 -43
-22 -76 -23 -149 0 -66 -4 -96 -12 -98 -10 -4 -13 12 -13 55 0 68 19 261 26
274 10 16 44 8 44 -9z m-1230 -14 c0 -14 -17 -10 -23 5 -4 10 -1 13 9 9 7 -3
14 -9 14 -14z m236 -6 c16 -21 19 -93 4 -93 -16 0 -50 38 -50 56 0 18 18 54
27 54 3 0 12 -8 19 -17z m-356 -2 c0 -5 12 -11 27 -13 34 -4 70 -71 78 -143 7
-67 -12 -37 -22 35 -10 69 -37 90 -76 60 l-26 -21 1 46 c0 25 4 45 9 45 5 0 9
-4 9 -9z m-140 -10 c0 -6 -4 -13 -10 -16 -5 -3 -10 1 -10 9 0 9 5 16 10 16 6
0 10 -4 10 -9z m1572 -8 c38 -34 10 -98 -49 -109 l-32 -6 26 66 c15 36 29 66
31 66 3 0 14 -7 24 -17z m-892 -10 c14 -6 53 -19 88 -29 l63 -17 -3 -46 c-2
-33 -7 -45 -17 -43 -7 1 -47 9 -89 17 -41 8 -77 17 -79 19 -3 2 -8 29 -12 60
-8 60 -6 62 49 39z m670 0 c-45 -20 -170 -30 -170 -14 0 7 23 11 63 12 34 1
73 5 87 9 43 14 57 9 20 -7z m30 -96 l0 -52 -48 -3 c-151 -10 -147 -10 -150
26 -5 47 10 58 79 66 33 4 70 11 82 15 32 12 37 5 37 -52z m842 -110 c42 -56
42 -63 1 -24 -41 39 -66 96 -56 124 4 11 10 2 19 -26 6 -23 23 -56 36 -74z
m-2452 52 c-8 -43 -30 -77 -30 -46 0 19 26 87 33 87 2 0 1 -18 -3 -41z m270
-26 c0 -16 -16 -30 -37 -37 -27 -9 -30 5 -7 28 16 17 44 22 44 9z m133 -8 c4
-8 2 -17 -3 -20 -6 -4 -10 -4 -10 -1 0 2 -3 11 -6 20 -3 9 -2 16 4 16 5 0 12
-7 15 -15z m-53 -53 c-14 -5 -16 -3 -24 28 l-7 25 21 -25 c14 -15 18 -26 10
-28z m-22 -54 c18 -18 15 -28 -8 -28 -13 0 -20 7 -20 20 0 23 10 26 28 8z
m169 -3 c11 -8 23 -25 26 -37 6 -22 5 -22 -8 -4 -8 11 -15 23 -15 26 0 4 -10
12 -22 18 -13 6 -18 11 -13 11 6 1 20 -6 32 -14z m-346 -10 c0 -5 -21 -14 -46
-20 -43 -11 -45 -11 -29 6 22 25 76 35 75 14z m640 -17 c22 -27 25 -91 5 -107
-12 -10 -16 -8 -21 11 -4 13 -13 38 -22 56 -25 56 1 83 38 40z m933 -31 c3
-17 0 -40 -9 -55 -9 -17 -14 -21 -15 -11 0 8 -11 26 -25 39 -27 25 -32 49 -14
67 17 17 57 -8 63 -40z m586 5 c0 -7 13 -30 29 -50 15 -20 41 -68 57 -106 15
-38 41 -87 58 -110 l29 -41 -29 25 c-58 50 -93 94 -98 124 -3 18 -15 39 -25
48 -11 9 -25 42 -31 74 -7 32 -15 65 -18 74 -3 9 2 7 11 -5 9 -11 17 -26 17
-33z m-2074 -11 c-9 -16 -16 -37 -16 -46 0 -8 -4 -15 -9 -15 -11 0 1 56 19 90
7 14 15 20 17 13 2 -6 -3 -25 -11 -42z m202 -46 c21 -63 19 -84 -4 -64 -13 11
-26 47 -45 128 -7 33 -7 34 11 15 10 -10 27 -46 38 -79z m-58 -65 c0 -5 -4
-10 -9 -10 -6 0 -13 5 -16 10 -3 6 1 10 9 10 9 0 16 -4 16 -10z m-347 -32 c-8
-43 -35 -97 -40 -81 -8 22 27 113 43 113 2 0 1 -15 -3 -32z m414 -10 c-3 -8
-6 -5 -6 6 -1 11 2 17 5 13 3 -3 4 -12 1 -19z m177 -148 l6 -45 -25 48 c-14
28 -25 64 -24 85 l1 37 18 -40 c9 -22 20 -60 24 -85z m-275 -44 c-12 -11 -19
-15 -15 -8 4 6 3 12 -1 12 -15 0 -33 -23 -33 -42 0 -10 -5 -18 -11 -18 -6 0
-19 -10 -30 -22 -18 -22 -18 -22 -19 -3 0 12 25 45 62 81 53 50 64 57 66 41 2
-11 -6 -29 -19 -41z m2121 -78 c0 -5 -9 -3 -20 4 -11 7 -20 15 -20 19 0 3 -8
14 -19 25 -10 11 -24 31 -31 44 -7 12 11 -1 39 -31 28 -29 51 -57 51 -61z
m-2000 77 c6 -15 6 -34 0 -47 -8 -22 -9 -22 -9 4 -1 15 -5 29 -11 33 -8 5 -3
35 6 35 3 0 9 -11 14 -25z m-60 -47 c0 -17 -3 -18 -14 -8 -8 6 -12 18 -9 26 7
19 23 7 23 -18z m44 -60 c-6 -39 16 -84 39 -82 14 1 16 -5 11 -35 -5 -34 -48
-141 -57 -141 -5 0 -6 16 -9 155 -2 91 3 135 16 135 3 0 3 -15 0 -32z m1796
-158 c28 -45 49 -85 46 -87 -11 -11 -106 140 -106 168 0 17 4 12 60 -81z
m-1618 -88 c-7 -38 -22 -4 -27 65 l-4 58 18 -50 c9 -27 15 -60 13 -73z m-272
74 c0 -7 -11 -21 -25 -30 -31 -20 -33 -4 -3 24 26 24 28 24 28 6z m168 -37
c-12 -37 -39 -82 -44 -76 -4 4 49 117 54 113 1 -2 -3 -18 -10 -37z m-118 -14
c0 -8 -4 -17 -10 -20 -6 -4 -10 5 -10 20 0 15 4 24 10 20 6 -3 10 -12 10 -20z
m-131 -121 c-34 -69 -50 -73 -29 -7 12 38 49 87 58 78 3 -2 -10 -34 -29 -71z
m1970 -21 c20 -20 27 -31 16 -26 -23 13 -72 63 -61 63 5 0 24 -16 45 -37z
m-1836 -150 c8 -16 17 -46 20 -68 l6 -40 -18 40 c-20 43 -34 95 -26 95 2 0 11
-12 18 -27z m1887 -80 c0 -4 6 -14 14 -22 13 -15 35 -93 23 -81 -3 3 -21 37
-41 76 -38 76 -49 121 -16 66 11 -18 20 -35 20 -39z m-2090 -18 c0 -14 -4 -25
-9 -25 -10 0 -21 36 -13 44 12 13 22 5 22 -19z m155 -27 c8 -30 2 -35 -19 -16
-7 7 -10 23 -8 36 5 28 18 18 27 -20z m2025 -5 c11 -26 27 -54 34 -63 34 -37
61 -175 46 -230 -2 -10 -33 78 -60 175 -16 55 -33 115 -39 133 -14 46 -5 39
19 -15z m-2155 -139 c-9 -30 -21 -54 -26 -54 -13 0 -12 8 13 79 27 76 38 54
13 -25z m109 -45 c6 -81 -4 -136 -17 -90 -3 13 -1 19 5 14 7 -4 8 -1 3 6 -4 7
-9 32 -11 55 -2 22 -6 56 -8 74 -3 19 -2 41 1 49 10 27 20 -14 27 -108z m95
21 c1 -54 -19 -12 -25 52 l-4 53 14 -35 c8 -19 15 -51 15 -70z m1910 -130 c0
-29 -1 -32 -10 -17 -6 9 -8 26 -4 36 3 11 1 22 -5 26 -5 3 -10 30 -9 58 l1 52
14 -60 c7 -33 13 -76 13 -95z m49 -11 l-3 -44 -5 52 c-3 29 -1 48 3 44 5 -5 7
-28 5 -52z m63 -26 c-8 -15 -10 -15 -11 -2 0 17 10 32 18 25 2 -3 -1 -13 -7
-23z m-2253 -46 c2 -10 -3 -17 -12 -17 -10 0 -16 9 -16 21 0 24 23 21 28 -4z
m2155 -71 c10 -24 20 -71 23 -105 2 -34 5 -65 5 -69 1 -4 0 -16 -1 -27 -1 -11
-6 4 -11 34 -5 30 -13 59 -18 65 -14 17 -38 109 -33 129 6 27 16 20 35 -27z
m-2039 -8 c9 -17 16 -45 16 -62 l-1 -31 -18 35 c-21 41 -35 104 -21 95 5 -3
16 -19 24 -37z m1971 -38 c3 -30 5 -68 5 -85 0 -37 -31 -105 -47 -105 -17 0
-17 52 -1 68 7 7 9 12 5 12 -4 0 -2 10 5 23 7 13 11 50 9 92 -3 84 15 80 24
-5z m-52 -204 c22 -17 22 -31 -3 -71 -13 -21 -20 -47 -18 -72 3 -51 -21 -153
-35 -153 -8 0 -7 -3 2 -9 11 -7 11 -13 0 -32 -13 -24 -13 -24 -20 11 -4 19 -9
49 -10 65 -2 17 -7 36 -12 42 -15 21 0 101 32 169 17 35 34 64 38 64 4 0 16
-7 26 -14z m-2946 -396 c34 -16 41 -25 45 -55 2 -22 0 -35 -7 -35 -21 0 -73
-30 -79 -46 -8 -22 27 -68 66 -87 29 -14 30 -17 10 -17 -53 0 -132 69 -132
116 0 17 -6 24 -19 24 -25 0 -31 -19 -21 -66 11 -48 37 -82 79 -105 48 -25 51
-32 11 -24 -84 17 -150 93 -150 172 1 61 71 128 151 142 3 1 24 -8 46 -19z
m491 -216 c33 -23 67 -102 65 -152 -3 -70 -54 -132 -111 -132 -11 0 -6 7 15
20 39 23 49 41 60 105 12 71 7 89 -38 134 -39 41 -34 55 9 25z m33 -717 c-8
-29 -9 -27 -9 23 -1 44 1 50 9 32 5 -15 6 -36 0 -55z m1403 -91 c8 -17 16 -35
18 -40 3 -9 -122 -9 -130 -1 -2 2 8 21 23 43 32 48 65 48 89 -2z m109 -95 c72
-1 77 -2 77 -22 0 -22 -1 -22 -182 -15 -204 7 -288 15 -288 25 0 19 24 21 164
17 83 -2 186 -5 229 -5z m-161 -77 c214 -8 240 -13 258 -49 8 -17 15 -43 16
-60 3 -52 16 -120 26 -132 15 -18 -2 -20 -92 -12 -47 4 -142 9 -212 10 -117 2
-126 3 -118 20 13 22 0 27 -100 35 -97 8 -96 18 3 19 57 0 72 3 75 16 2 12
-12 18 -65 26 l-68 10 90 3 c50 1 94 2 98 1 4 -1 3 8 -3 19 -9 18 -21 20 -96
20 -64 0 -85 3 -82 13 3 8 35 14 93 17 97 5 125 24 53 34 -24 4 -54 7 -67 7
-18 1 -21 3 -10 10 8 5 23 7 34 4 11 -4 86 -9 167 -11z m-2152 -165 c-7 -11
-14 -18 -17 -15 -3 3 0 12 7 21 18 21 23 19 10 -6z m1908 -66 c-10 -2 -26 -2
-35 0 -10 3 -2 5 17 5 19 0 27 -2 18 -5z m-1203 -44 c84 -23 155 -150 139
-249 l-7 -40 -33 25 c-83 64 -232 -1 -209 -92 9 -36 23 -53 46 -53 23 0 35 18
20 33 -6 6 -11 24 -11 39 0 35 34 53 83 44 46 -9 67 -34 67 -82 0 -88 -1 -101
-16 -142 -20 -53 -75 -88 -175 -108 -84 -18 -94 -13 -103 50 -6 36 -16 53 -55
89 -61 57 -101 78 -176 92 l-60 11 -6 43 c-3 27 0 60 11 92 20 59 46 92 34 44
-4 -16 -11 -32 -16 -33 -5 -2 2 -15 16 -29 14 -14 29 -22 34 -19 5 3 12 32 16
63 4 32 15 71 25 87 29 43 121 127 132 120 6 -3 18 1 27 9 30 27 127 29 217 6z
m417 -151 c-7 -7 -12 -8 -12 -2 0 14 12 26 19 19 2 -3 -1 -11 -7 -17z m-5 -50
c-3 -8 -6 -5 -6 6 -1 11 2 17 5 13 3 -3 4 -12 1 -19z m-171 -22 c19 -19 35
-45 35 -57 5 -74 -3 -85 -95 -134 l-44 -23 6 40 c4 36 42 95 42 67 0 -21 45
-3 58 23 11 23 10 31 -3 52 -11 16 -22 22 -35 19 -16 -4 -20 0 -20 21 0 35 15
33 56 -8z m1211 -12 c-3 -3 -12 -4 -19 -1 -8 3 -5 6 6 6 11 1 17 -2 13 -5z
m-275 -53 c2 -30 -1 -47 -7 -45 -5 2 -16 0 -24 -5 -23 -15 1 -35 70 -61 47
-17 63 -19 69 -10 6 10 23 10 79 0 44 -7 102 -9 149 -5 106 9 457 10 512 0 42
-7 151 -57 194 -90 14 -11 18 -26 17 -70 0 -31 -3 -66 -6 -76 -9 -26 -49 -45
-125 -59 -56 -10 -64 -10 -73 5 -8 15 -11 15 -33 0 -29 -19 -47 -11 -39 16 10
31 -29 24 -44 -7 -16 -36 -25 -24 -13 19 6 20 7 38 4 41 -14 14 -33 3 -45 -26
-15 -35 -44 -65 -53 -55 -4 3 3 19 15 35 26 37 29 85 4 80 -9 -2 -21 -18 -27
-36 -13 -37 -42 -60 -57 -45 -6 6 2 18 19 30 36 27 47 80 26 123 -22 43 -38
38 -30 -9 8 -53 -9 -97 -45 -113 -33 -15 -34 -17 -16 -49 25 -48 28 -51 42
-39 8 7 18 9 23 6 14 -8 297 -9 369 -1 57 7 61 6 96 -25 34 -30 37 -36 37 -89
0 -106 -28 -164 -89 -181 -29 -8 -34 -7 -38 10 -7 26 -33 26 -40 0 -3 -12 -14
-20 -25 -20 -15 0 -19 5 -15 20 3 11 1 23 -4 26 -13 7 -41 -15 -33 -27 3 -5
-4 -9 -15 -9 -17 0 -20 5 -14 30 3 17 1 30 -4 30 -15 0 -33 -23 -33 -42 0 -10
-5 -18 -10 -18 -6 0 -8 15 -4 40 4 25 3 40 -4 40 -11 0 -37 -37 -45 -65 -4
-11 -4 1 -1 28 4 38 2 47 -10 47 -9 0 -22 -16 -30 -35 -14 -33 -30 -50 -22
-22 3 6 7 25 11 41 6 26 4 28 -19 22 -14 -3 -26 -1 -28 5 -5 16 -38 -1 -38
-20 0 -36 -36 -73 -95 -97 -33 -13 -67 -24 -75 -24 -12 0 -11 -3 3 -17 15 -15
21 -16 50 -4 17 8 50 15 72 17 86 8 283 10 330 5 l50 -6 -4 -60 c-2 -33 -13
-82 -26 -112 -24 -53 -24 -53 -70 -53 -43 0 -45 1 -35 20 9 17 8 20 -10 20
-11 0 -23 -7 -26 -15 -4 -8 -10 -15 -15 -15 -4 0 -6 7 -3 15 4 8 3 22 0 31 -5
14 -9 14 -22 3 -9 -7 -20 -22 -24 -34 -9 -19 -9 -19 -9 2 -1 12 4 25 9 28 17
11 11 25 -11 25 -13 0 -25 -11 -35 -35 -9 -23 -21 -35 -34 -35 -24 0 -25 13
-4 45 16 24 11 51 -7 39 -5 -3 -19 -25 -30 -49 -19 -41 -24 -44 -70 -50 -28
-4 -53 -5 -56 -2 -3 3 9 24 27 46 20 24 29 44 24 52 -5 9 -14 4 -31 -17 l-24
-29 7 28 c9 40 -22 33 -45 -10 -15 -28 -14 -33 4 -33 8 0 15 -9 15 -20 0 -16
-7 -20 -30 -20 -20 0 -30 -5 -30 -15 0 -20 60 -23 194 -10 82 9 77 9 179 -1
73 -6 77 -8 71 -28 -10 -34 -32 -65 -76 -104 -57 -52 -92 -64 -173 -63 -109 2
-121 2 -271 -5 -117 -6 -150 -4 -189 10 -64 21 -199 32 -228 18 -12 -6 -31
-12 -41 -14 -36 -6 -11 -23 29 -20 78 5 131 1 198 -15 37 -10 67 -20 67 -24 0
-17 -137 -32 -280 -31 -207 2 -278 10 -373 38 -44 13 -88 24 -96 24 -9 0 -27
6 -41 13 -14 8 -49 14 -78 15 -45 1 -53 -2 -50 -16 2 -11 13 -17 33 -17 17 -1
46 -6 67 -13 l36 -13 -24 -61 c-63 -162 -191 -253 -354 -253 -161 1 -243 40
-288 138 -9 18 52 4 103 -23 30 -16 68 -30 84 -30 46 0 147 56 161 90 18 43
15 128 -6 151 -14 15 -14 19 -3 20 83 5 117 5 136 -2 14 -5 25 -3 33 6 26 32
6 38 -131 42 -73 2 -147 7 -164 12 -16 6 -56 15 -87 21 -32 6 -58 15 -58 20 0
5 -21 16 -47 26 -60 22 -80 39 -100 84 -34 74 -39 98 -41 185 -2 75 1 102 23
162 14 40 25 85 25 100 0 14 6 34 14 42 19 22 36 78 36 116 0 42 18 57 56 47
45 -13 416 -2 478 14 26 6 36 -8 16 -21 -14 -9 -13 -35 2 -35 13 0 11 -1 208
189 80 78 148 141 151 141 3 0 25 18 50 40 46 41 50 43 164 80 39 12 77 26 85
30 8 5 45 9 82 9 l66 0 4 -48z m483 32 c-4 -10 -10 -42 -13 -70 l-4 -53 -36 0
c-33 0 -35 1 -16 14 19 14 19 15 -1 23 -11 4 -61 8 -112 8 -120 0 -105 15 18
18 80 2 94 5 97 20 2 10 -3 17 -12 17 -34 0 18 38 53 39 28 1 32 -2 26 -16z
m148 -15 c18 -18 43 -50 56 -70 l23 -38 -91 0 c-106 0 -107 1 -96 85 6 55 7
55 41 55 26 0 43 -8 67 -32z m-483 8 c0 -3 -4 -8 -10 -11 -5 -3 -10 -1 -10 4
0 6 5 11 10 11 6 0 10 -2 10 -4z m167 -12 c-3 -3 -12 -4 -19 -1 -8 3 -5 6 6 6
11 1 17 -2 13 -5z m-149 -61 c-10 -2 -26 -2 -35 0 -10 3 -2 5 17 5 19 0 27 -2
18 -5z m-5 -40 c-7 -2 -19 -2 -25 0 -7 3 -2 5 12 5 14 0 19 -2 13 -5z m175 0
c-21 -2 -55 -2 -75 0 -21 2 -4 4 37 4 41 0 58 -2 38 -4z m-2138 -33 c0 -5 -10
-10 -22 -9 -22 0 -22 1 -3 9 11 5 21 9 23 9 1 1 2 -3 2 -9z m1050 -74 c8 -12
0 -10 -25 9 -44 34 -119 45 -150 21 -16 -12 -18 -18 -9 -33 9 -14 7 -20 -10
-28 -36 -18 -26 -40 19 -40 37 0 40 -2 43 -29 5 -39 -8 -48 -57 -40 -49 8 -92
55 -74 83 7 11 7 21 0 33 -19 29 39 74 113 88 40 7 129 -31 150 -64z m-1215
24 c-3 -5 -12 -10 -18 -10 -7 0 -6 4 3 10 19 12 23 12 15 0z m1143 -36 c18 -8
32 -22 32 -30 0 -23 31 -30 46 -9 12 16 13 16 18 -6 12 -60 -6 -84 -73 -95
-42 -7 -43 -6 -32 14 6 11 11 30 11 41 0 28 -48 81 -73 81 -18 0 -19 2 -7 10
21 14 42 12 78 -6z m-228 -110 c0 -7 9 -19 20 -26 35 -22 22 -28 -62 -28 l-82
0 46 29 c25 16 49 34 52 40 9 14 26 5 26 -15z m-632 -52 c3 -9 -2 -10 -20 -3
-24 9 -114 1 -136 -12 -6 -5 -12 -4 -12 2 0 27 159 40 168 13z m189 -351 c-9
-20 -19 -70 -23 -110 -4 -45 -10 -68 -15 -59 -6 10 -13 10 -26 2 -14 -9 -18
-25 -18 -80 0 -67 1 -69 25 -69 21 0 26 6 31 35 4 19 7 27 8 18 6 -84 114
-225 189 -249 20 -6 80 -15 132 -19 86 -7 140 -15 145 -22 1 -2 9 -19 18 -38
15 -33 15 -41 1 -88 -10 -32 -21 -52 -30 -52 -8 0 -17 -6 -19 -12 -3 -7 -22
-14 -43 -15 l-37 -2 35 13 c35 13 80 66 80 94 0 8 -11 35 -25 58 -20 34 -33
45 -59 50 -52 9 -106 -12 -106 -43 0 -22 29 -27 49 -8 18 15 21 15 51 0 17 -9
34 -23 37 -31 16 -42 -51 -97 -108 -89 -67 9 -175 52 -208 83 -7 7 -24 20 -37
29 -13 8 -24 21 -24 27 0 7 -12 23 -26 37 -31 29 -59 82 -85 158 -27 83 -20
243 14 329 14 34 25 66 25 70 -1 11 57 40 60 30 2 -5 -3 -26 -11 -47z m-569
-175 c15 -32 17 -44 8 -37 -17 15 -46 96 -45 125 1 15 3 12 8 -9 4 -16 17 -52
29 -79z m2332 -406 c0 -5 -16 -10 -35 -10 -19 0 -35 5 -35 10 0 6 16 10 35 10
19 0 35 -4 35 -10z m59 -10 c5 0 6 -10 4 -22 -4 -21 -11 -23 -75 -26 -49 -2
-68 0 -63 8 4 7 19 9 37 5 32 -7 73 18 61 38 -4 6 0 8 11 4 10 -4 21 -7 25 -7z
m-21 -119 c51 -27 70 -128 31 -162 -27 -24 -82 -34 -106 -20 -15 9 -14 10 13
11 33 0 60 22 49 40 -3 5 -17 7 -30 4 -12 -3 -26 -1 -29 5 -9 14 -56 14 -56 1
0 -19 -17 -10 -28 15 -14 30 -42 24 -42 -10 0 -26 36 -75 55 -75 8 0 17 -4 20
-10 13 -22 -25 -8 -54 19 -23 22 -31 38 -31 64 0 50 16 88 48 115 23 19 36 22
83 19 30 -3 65 -9 77 -16z m-1628 -153 c1 -18 -22 -17 -59 3 -35 18 -41 26
-41 53 0 18 3 36 7 39 6 7 92 -81 93 -95z m1579 -84 c14 -12 -19 -1 -35 12
-18 14 -18 14 6 3 14 -6 27 -13 29 -15z M2848 8613 c-32 -16 -35 -34 -12 -57
18 -18 42 -20 78 -6 32 12 34 43 4 64 -26 19 -34 19 -70 -1z M2158 8603 c-29
-35 30 -65 86 -43 20 7 27 16 24 33 -3 19 -9 22 -50 23 -31 1 -52 -3 -60 -13z
M3450 8299 c0 -5 5 -7 10 -4 6 3 10 8 10 11 0 2 -4 4 -10 4 -5 0 -10 -5 -10
-11z M3394 6999 c0 -13 3 -15 13 -7 7 6 13 12 13 13 0 2 -6 5 -13 8 -7 3 -13
-3 -13 -14z M2556 8362 c-2 -4 -7 -22 -11 -39 -6 -32 -15 -40 -28 -26 -4 3 -2
12 5 20 14 18 -2 36 -28 31 -14 -2 -20 -13 -22 -39 -3 -32 0 -38 28 -49 22 -9
40 -10 58 -4 23 8 27 16 30 55 2 34 -1 48 -12 52 -9 4 -17 3 -20 -1z M2109
8309 c-26 -50 20 -92 86 -79 28 5 30 8 30 50 l0 45 -52 2 c-44 2 -54 -1 -64
-18z m78 -33 c-8 -19 -37 -21 -37 -3 0 7 5 18 12 25 15 15 33 -1 25 -22z
M2860 8310 c-41 -41 -14 -90 49 -90 45 0 76 28 66 59 -9 30 -56 29 -52 -1 1
-14 -4 -23 -15 -26 -21 -4 -25 27 -7 45 12 12 4 33 -12 33 -5 0 -18 -9 -29
-20z M844 4019 c-33 -9 -84 -51 -84 -69 0 -17 31 -24 49 -11 32 23 97 51 120
51 35 0 98 -46 110 -81 11 -32 32 -37 51 -14 19 22 3 51 -52 95 -46 36 -56 40
-107 39 -31 0 -70 -5 -87 -10z M1011 3698 c-1 -16 3 -28 7 -28 5 0 19 -9 32
-20 42 -36 74 -18 46 25 -11 17 -26 25 -45 25 -16 0 -32 6 -34 13 -3 6 -6 0
-6 -15z M1053 3599 c-6 -6 -9 -17 -7 -24 6 -14 -34 -85 -47 -85 -5 0 -9 -7 -9
-15 0 -46 102 17 112 68 10 50 -21 84 -49 56z M2547 3524 c-4 -4 -7 -27 -7
-51 0 -37 3 -43 21 -43 18 0 20 5 17 47 -3 44 -15 62 -31 47z M2496 3494 c-18
-47 3 -117 25 -83 15 23 11 99 -5 99 -8 0 -17 -7 -20 -16z M2430 3440 c0 -43
0 -43 24 -34 10 4 16 18 16 40 0 27 -4 34 -20 34 -17 0 -20 -7 -20 -40z M2377
3443 c-7 -12 11 -53 22 -53 16 0 23 18 16 40 -6 20 -30 27 -38 13z M2325 3400
c-8 -14 3 -30 21 -30 8 0 14 9 14 20 0 21 -24 28 -35 10z M2210 3355 c-7 -9
-10 -18 -7 -21 10 -11 37 5 37 21 0 19 -14 19 -30 0z M2605 3350 c-3 -5 -1
-10 4 -10 6 0 11 5 11 10 0 6 -2 10 -4 10 -3 0 -8 -4 -11 -10z M2666 3271 c-3
-4 -17 -6 -31 -3 -18 3 -25 0 -25 -11 0 -20 6 -23 53 -32 36 -7 37 -7 37 24 0
30 -21 44 -34 22z M2552 3243 c2 -10 10 -18 18 -18 22 0 18 29 -3 33 -14 3
-18 -1 -15 -15z M2673 3123 c-3 -10 -12 -33 -19 -52 -15 -35 -11 -51 11 -51
14 0 45 68 45 100 0 25 -28 27 -37 3z M2715 3085 c-19 -56 -17 -72 8 -62 16 6
50 95 41 108 -13 22 -31 5 -49 -46z M2561 3108 c-22 -60 -22 -78 -2 -78 11 0
26 -3 34 -6 18 -7 42 27 52 74 5 25 3 32 -9 32 -8 0 -20 -8 -25 -17 -10 -17
-10 -17 -11 0 0 25 -29 21 -39 -5z M2502 3088 c-10 -35 1 -59 18 -42 5 5 13
24 16 42 9 45 -22 45 -34 0z M2444 3075 c-3 -8 -3 -19 1 -25 8 -12 35 -13 35
-1 0 5 3 16 6 25 4 12 0 16 -15 16 -12 0 -24 -7 -27 -15z M2360 3055 c-10 -12
-9 -16 4 -21 18 -7 49 13 40 27 -8 14 -30 11 -44 -6z M2503 2825 c-13 -9 -28
-25 -33 -36 -17 -30 26 -25 46 6 22 33 15 49 -13 30z M2532 2800 c-27 -36 -27
-40 -3 -40 18 0 51 38 51 60 0 20 -27 9 -48 -20z M2406 2813 c-4 -5 -15 -8
-24 -9 -44 -3 -52 -5 -52 -13 0 -5 17 -11 38 -14 37 -5 82 13 82 33 0 12 -33
13 -44 3z M2651 2631 c-8 -5 -11 -16 -8 -25 5 -13 2 -15 -17 -10 -13 3 -27 1
-30 -5 -4 -6 -16 -11 -27 -11 -15 0 -19 -7 -19 -35 0 -35 8 -43 25 -26 6 5 30
13 55 18 40 8 45 12 52 43 8 39 -8 65 -31 51z M2764 2619 c-9 -16 2 -22 21
-11 15 8 16 10 1 15 -8 3 -18 2 -22 -4z M1508 2589 c-34 -17 -46 -18 -110 -9
-148 20 -178 20 -178 0 0 -9 70 -26 140 -35 25 -3 53 -8 63 -11 21 -6 116 23
136 41 13 12 8 36 -7 35 -4 -1 -24 -10 -44 -21z M2700 2594 c0 -9 5 -14 12
-12 18 6 21 28 4 28 -9 0 -16 -7 -16 -16z M2303 2562 c3 -24 10 -38 21 -40 9
-2 16 2 16 10 0 8 4 7 11 -4 12 -21 35 -24 41 -5 3 6 1 26 -4 43 -7 29 -12 32
-48 32 l-40 1 3 -37z M2236 2581 c-9 -14 22 -34 40 -27 13 5 14 9 4 21 -14 17
-36 20 -44 6z M2459 2573 c-19 -3 -28 -11 -32 -29 -5 -28 8 -41 26 -25 7 5 23
8 35 4 19 -5 22 -1 22 26 0 19 -5 30 -12 30 -7 -1 -25 -4 -39 -6z M1442 2444
c-12 -8 -22 -26 -22 -39 0 -23 -57 -108 -89 -132 -33 -24 -121 -63 -144 -63
-31 0 -57 -27 -34 -36 44 -17 214 61 262 121 51 64 85 153 60 162 -6 2 -20 -4
-33 -13z M1307 2360 c-36 -49 -36 -67 3 -55 26 8 70 62 70 86 0 35 -35 20 -73
-31z M653 2683 c-18 -7 -16 -24 7 -77 34 -81 94 -150 157 -181 68 -33 116 -38
121 -12 3 13 -3 17 -24 17 -15 0 -42 11 -60 25 -18 14 -37 25 -42 25 -5 0 -15
11 -22 25 -7 14 -17 25 -21 25 -10 0 -55 81 -63 116 -10 38 -26 49 -53 37z
M1140 2441 c0 -5 5 -13 10 -16 6 -3 10 -2 10 4 0 5 -4 13 -10 16 -5 3 -10 2
-10 -4z M2280 7820 c0 -5 5 -10 10 -10 6 0 10 5 10 10 0 6 -4 10 -10 10 -5 0
-10 -4 -10 -10z M865 5760 c-3 -5 5 -29 19 -53 15 -24 26 -53 26 -65 0 -26 26
-29 34 -4 7 21 -4 57 -29 99 -20 33 -39 41 -50 23z M50 5482 c0 -17 4 -32 9
-32 19 0 22 20 7 42 -16 22 -16 22 -16 -10z M1697 5427 c-9 -14 -13 -28 -9
-31 3 -4 7 -35 7 -69 3 -112 60 -177 156 -177 35 0 48 -5 63 -25 12 -16 29
-25 47 -25 24 0 29 5 35 38 14 67 8 110 -20 152 -33 49 -76 77 -133 86 -24 3
-48 14 -53 23 -20 34 -26 40 -51 46 -20 5 -29 1 -42 -18z m79 -76 c5 -6 29
-12 53 -15 26 -3 54 -15 69 -28 33 -30 65 -103 57 -129 -7 -20 -8 -20 -26 -3
-14 12 -39 19 -76 20 -61 2 -73 11 -99 71 -26 60 -12 116 22 84z M3066 5371
c-10 -11 -16 -33 -15 -57 0 -22 0 -58 -1 -81 -5 -85 76 -163 167 -163 40 0 58
-5 81 -25 38 -31 42 -31 75 3 29 31 34 70 17 133 -13 48 -44 75 -115 99 -32
11 -70 27 -83 36 -13 8 -30 13 -37 10 -8 -3 -22 9 -34 30 -23 39 -31 41 -55
15z m74 -70 c0 -11 107 -64 128 -64 30 0 70 -53 77 -101 8 -53 0 -70 -20 -42
-11 14 -30 19 -76 22 -117 7 -174 76 -139 168 9 25 30 36 30 17z M100 5237
c-28 -15 -46 -33 -48 -46 -4 -26 -6 -26 49 0 43 21 94 26 152 13 22 -5 27 -2
27 15 0 26 -5 28 -75 36 -52 5 -66 3 -105 -18z M905 5223 l-25 -28 21 -20 20
-20 19 23 19 22 15 -22 c9 -12 16 -33 16 -46 0 -17 5 -23 18 -20 24 5 27 67 4
94 -19 22 -54 44 -71 44 -6 0 -22 -12 -36 -27z M125 5163 c-48 -10 -75 -26
-75 -45 0 -17 3 -18 15 -8 8 6 45 13 82 13 61 2 68 4 68 22 0 16 -7 20 -35 21
-19 1 -44 -1 -55 -3z M326 5151 c-3 -4 0 -23 6 -42 6 -19 13 -40 14 -47 7 -25
39 -8 42 21 6 47 -43 100 -62 68z M50 5031 c0 -14 6 -17 25 -13 14 2 25 11 25
18 0 8 -10 14 -25 14 -18 0 -25 -5 -25 -19z M608 4982 c-17 -20 -1 -26 64 -24
71 3 84 8 67 28 -15 18 -116 15 -131 -4z M1721 4966 c-21 -22 -22 -27 -9 -45
10 -14 14 -37 10 -69 -3 -41 0 -53 21 -78 14 -17 45 -37 68 -44 44 -15 109
-71 109 -94 0 -14 53 -27 69 -17 5 3 11 24 15 46 3 22 8 58 12 81 12 84 -70
188 -149 187 -21 0 -43 10 -65 28 -40 35 -52 36 -81 5z m89 -61 c7 -8 25 -15
41 -15 43 0 106 -70 115 -127 8 -57 -7 -75 -38 -46 -13 12 -47 33 -76 46 -76
36 -94 67 -76 135 7 26 17 28 34 7z M439 4951 c-19 -15 -21 -22 -12 -32 9 -9
17 -8 37 5 28 18 35 46 12 46 -8 0 -24 -9 -37 -19z M1320 4881 c-11 -16 -20
-33 -19 -38 1 -4 -1 -16 -6 -26 -4 -10 -5 -39 -1 -64 7 -55 65 -132 99 -134
36 -2 41 -3 74 -22 17 -9 38 -25 45 -35 17 -24 63 -33 85 -16 26 18 24 127 -2
172 -20 33 -104 93 -139 99 -25 4 -72 43 -85 71 -14 29 -25 28 -51 -7z m61
-77 c10 -9 47 -31 81 -49 68 -34 108 -85 108 -137 0 -32 -15 -37 -29 -10 -11
19 -82 58 -123 67 -34 7 -78 72 -78 115 0 33 14 38 41 14z M337 4862 c-58 -64
-76 -197 -37 -277 37 -76 97 -117 144 -99 20 8 21 34 2 34 -25 0 -73 48 -96
97 -28 61 -22 145 15 208 13 23 21 45 18 49 -11 11 -30 6 -46 -12z M3494 4865
c-4 -8 -3 -23 1 -32 3 -10 9 -58 12 -108 4 -64 11 -101 25 -126 23 -41 40 -51
113 -70 28 -6 57 -18 66 -26 22 -18 32 -16 56 11 34 39 40 58 35 113 -3 44
-10 59 -42 92 -23 24 -57 45 -89 56 -37 12 -62 29 -88 61 -38 45 -78 58 -89
29z m146 -127 c80 -41 110 -81 110 -148 0 -26 -3 -49 -6 -53 -4 -3 -18 2 -33
13 -14 10 -43 21 -63 24 -63 11 -99 81 -84 161 4 19 8 35 9 35 2 0 32 -15 67
-32z M2964 4848 c-87 -102 -38 -245 93 -269 47 -9 93 -3 93 12 0 13 -33 28
-80 35 -56 9 -100 66 -100 129 0 23 3 44 6 48 4 3 21 -4 38 -17 17 -13 54 -35
81 -49 61 -31 80 -53 89 -103 5 -21 12 -45 18 -51 8 -10 5 -13 -11 -13 -17 0
-22 -5 -19 -22 2 -14 11 -24 23 -26 39 -6 58 94 31 160 -17 39 -74 88 -104 88
-11 0 -42 23 -70 50 -28 28 -55 50 -60 50 -4 0 -17 -10 -28 -22z M473 4839
c-44 -28 -77 -99 -70 -150 10 -75 69 -129 141 -129 63 0 132 56 111 90 -10 17
-37 11 -42 -9 -14 -54 -108 -52 -142 3 -55 88 9 185 111 170 127 -18 186 -101
158 -219 -15 -62 -82 -150 -114 -150 -25 0 -33 -23 -11 -32 11 -4 21 0 27 10
5 10 17 17 27 17 31 0 89 69 107 127 37 118 -12 233 -118 277 -54 23 -145 20
-185 -5z M517 4753 c-23 -27 -25 -68 -3 -92 23 -25 49 -27 66 -6 11 13 10 18
-8 31 -28 19 -28 40 -2 54 11 6 18 15 15 21 -10 15 -51 10 -68 -8z M925 4700
c-4 -6 -1 -17 5 -25 6 -8 9 -19 6 -24 -4 -5 3 -34 14 -63 29 -76 26 -135 -10
-215 -32 -70 -38 -103 -17 -103 19 1 44 24 40 37 -3 7 8 39 24 70 29 60 35
133 19 228 -14 79 -59 131 -81 95z M3146 4561 c-4 -7 -5 -15 -2 -18 9 -9 19 4
14 18 -4 11 -6 11 -12 0z M276 4428 c-49 -28 -105 -118 -106 -169 0 -30 26
-99 38 -99 26 1 33 19 27 76 -8 75 12 127 60 156 37 21 47 48 18 48 -10 0 -27
-6 -37 -12z M334 4390 c-23 -9 -94 -90 -94 -107 0 -6 7 -16 15 -23 20 -16 45
3 45 35 0 23 16 41 53 60 42 21 25 51 -19 35z M377 4342 c-19 -21 -22 -42 -7
-42 19 0 60 32 60 46 0 20 -34 17 -53 -4z M1096 4232 c-13 -12 -4 -22 33 -42
55 -28 62 -43 17 -35 -44 9 -49 -10 -12 -50 29 -31 60 -25 53 12 -3 19 -2 21
9 12 8 -6 14 -21 14 -33 0 -40 12 -66 30 -66 10 0 22 10 26 23 20 58 -15 125
-85 165 -25 15 -76 23 -85 14z M445 4171 c-89 -56 -123 -136 -94 -220 12 -35
73 -83 95 -74 21 8 17 39 -8 55 -16 11 -22 27 -26 71 -4 50 -1 61 23 93 15 19
42 43 61 52 19 9 33 21 31 26 -6 19 -51 17 -82 -3z M441 4036 c-19 -23 4 -66
34 -66 20 0 25 5 25 24 0 31 -43 62 -59 42z M102 4008 c-7 -7 -12 -16 -12 -20
0 -13 37 -9 49 5 20 24 -14 38 -37 15z M3492 4008 c-11 -14 -20 -213 -9 -224
3 -3 13 0 21 8 11 11 15 42 17 112 2 97 -7 130 -29 104z M3436 3928 c-13 -64
-15 -137 -4 -144 23 -14 39 29 36 95 -3 65 -23 95 -32 49z M1556 3889 c-4 -29
-3 -56 2 -61 14 -14 40 24 44 67 3 34 0 40 -18 43 -19 3 -22 -3 -28 -49z
M3324 3895 c-5 -21 -9 -23 -21 -13 -12 10 -18 9 -29 -7 -17 -23 -18 -32 -2
-41 6 -4 17 1 25 11 11 16 13 17 13 3 0 -23 18 -32 36 -18 17 15 15 81 -3 87
-7 3 -15 -7 -19 -22z M3377 3913 c-10 -9 -9 -113 1 -113 20 0 32 28 32 72 0
45 -13 62 -33 41z M1621 3878 c-9 -24 -4 -48 9 -48 14 0 32 29 28 46 -5 27
-27 28 -37 2z M1698 3889 c-10 -6 -18 -17 -18 -24 0 -20 39 -19 47 1 8 22 -8
35 -29 23z M3217 3884 c-14 -15 -6 -34 14 -34 14 0 19 5 17 17 -3 18 -20 27
-31 17z M52 3668 c1 -45 3 -75 5 -66 4 16 7 16 26 4 15 -10 29 -11 45 -5 23 9
23 9 -18 63 -22 29 -39 59 -38 66 2 7 -3 15 -10 17 -10 4 -12 -15 -10 -79z
M4290 3684 c0 -8 5 -12 10 -9 6 4 8 11 5 16 -9 14 -15 11 -15 -7z M50 3540 c0
-13 5 -20 13 -17 6 2 12 10 12 17 0 7 -6 15 -12 18 -8 2 -13 -5 -13 -18z M337
2413 c-14 -14 -6 -35 24 -61 45 -38 57 -44 108 -54 55 -10 157 15 171 43 16
30 -8 33 -61 9 -43 -21 -53 -22 -88 -11 -22 6 -61 27 -86 46 -46 36 -57 40
-68 28z M4135 1940 c-7 -12 2 -30 16 -30 12 0 12 27 0 35 -5 3 -12 1 -16 -5z
M4310 1600 c0 -11 5 -20 10 -20 6 0 10 9 10 20 0 11 -4 20 -10 20 -5 0 -10 -9
-10 -20z M1232 1577 c-41 -8 -82 -39 -82 -62 0 -19 -44 -99 -73 -135 -19 -22
-26 -26 -31 -15 -4 11 -21 15 -59 15 -29 0 -57 4 -62 9 -11 10 -36 14 -72 12
-12 0 -38 -17 -57 -36 -20 -19 -40 -35 -45 -35 -5 0 -31 -17 -58 -37 l-48 -38
-115 2 c-94 2 -119 6 -140 21 -59 44 -90 53 -189 55 -68 1 -106 -2 -124 -12
-25 -13 -27 -18 -25 -84 l2 -69 44 47 c25 25 41 49 37 53 -4 4 -22 -11 -41
-33 -18 -22 -34 -34 -34 -27 0 6 11 22 25 34 18 16 22 24 13 29 -9 6 -5 11 12
17 19 7 26 6 28 -5 3 -11 7 -12 18 -2 8 6 16 10 19 8 2 -3 -25 -36 -60 -74
-70 -76 -86 -121 -43 -120 13 0 28 3 33 6 6 4 24 6 41 4 23 -1 31 3 30 14 -1
9 6 16 14 16 8 0 20 4 27 8 6 4 18 4 27 1 9 -3 16 -2 16 4 0 5 8 13 17 16 15
6 15 4 -2 -14 -10 -11 -16 -23 -12 -26 3 -3 19 9 36 28 17 18 31 28 31 21 0
-6 -4 -15 -10 -18 -5 -3 -10 -11 -10 -17 0 -6 11 -1 24 11 14 13 29 20 34 17
9 -5 58 6 140 32 28 9 33 9 28 -3 -7 -18 5 -19 23 -2 12 10 13 9 7 -7 -7 -19
-6 -19 12 -3 10 9 43 24 72 33 30 9 66 28 82 42 15 15 34 27 41 27 7 0 29 18
49 40 34 37 37 39 62 26 20 -11 28 -12 41 -1 10 8 15 9 15 1 0 -6 17 -11 40
-11 22 0 40 -4 40 -9 0 -13 -74 -91 -87 -91 -17 0 -75 -32 -95 -52 -14 -14
-30 -19 -53 -16 -19 2 -32 1 -29 -3 2 -4 -4 -10 -15 -14 -11 -3 -21 -12 -24
-19 -3 -7 -31 -25 -64 -40 -32 -15 -68 -32 -80 -38 -11 -6 -27 -7 -34 -3 -7 5
-10 4 -6 -1 3 -6 -9 -16 -26 -23 -18 -7 -49 -22 -70 -32 -39 -20 -40 -14 -8
26 9 11 -5 1 -31 -23 -51 -45 -76 -57 -40 -19 12 13 22 27 22 31 0 5 -13 -6
-29 -23 -34 -37 -45 -39 -36 -8 5 19 4 20 -5 5 -6 -10 -20 -23 -32 -29 -18
-10 -20 -9 -15 5 4 9 2 16 -2 16 -5 0 -12 -7 -15 -16 -4 -10 -12 -14 -22 -10
-9 4 -23 1 -30 -5 -11 -9 -14 -8 -14 2 0 7 -14 0 -30 -16 -26 -25 -32 -27 -40
-15 -5 8 -10 10 -10 4 0 -7 -8 -15 -18 -19 -14 -5 -15 -4 -4 6 20 21 14 33 -8
14 -15 -14 -20 -31 -20 -72 l0 -53 428 0 c235 0 607 -2 827 -5 220 -3 1019 -8
1775 -11 756 -3 1486 -6 1623 -7 l247 -2 0 307 0 307 -32 -1 c-18 -1 -44 -10
-59 -20 -21 -16 -38 -18 -106 -14 -82 4 -132 24 -133 53 0 7 -17 21 -38 32
-21 11 -44 27 -51 35 -8 9 -21 16 -30 16 -9 0 -22 5 -28 11 -17 17 -57 6 -68
-18 -6 -15 -18 -23 -33 -23 -13 0 -21 4 -17 10 3 5 -8 34 -26 65 -24 42 -36
55 -54 55 -13 0 -28 -6 -32 -12 -5 -7 -36 -40 -71 -73 -48 -46 -64 -57 -74
-47 -20 20 -47 14 -54 -13 -6 -26 -88 -105 -108 -105 -6 0 -37 -13 -68 -29
-91 -46 -181 -59 -247 -34 -47 18 -74 16 -94 -7 -9 -11 -25 -20 -34 -21 -10 0
-27 -2 -38 -3 -11 -2 -51 -6 -90 -10 -38 -5 -79 -10 -90 -12 -50 -11 -107 -11
-195 3 -52 7 -133 17 -180 22 -47 4 -95 13 -107 19 -34 19 -63 14 -128 -18
-33 -16 -76 -30 -95 -30 -19 0 -51 -4 -70 -10 -35 -10 -108 -19 -190 -24 -25
-2 -85 1 -135 6 -49 5 -114 11 -143 12 -29 2 -58 8 -65 15 -6 6 -16 11 -21 11
-6 0 -28 16 -48 35 -47 45 -155 98 -233 116 -33 7 -74 21 -92 32 -17 10 -38
17 -46 15 -8 -2 -44 27 -80 64 -85 88 -123 103 -215 85z m71 -36 c16 -6 5 -23
-79 -116 -54 -61 -88 -101 -74 -90 13 11 40 38 59 59 99 109 121 130 126 124
6 -6 -100 -129 -117 -136 -5 -2 -13 -13 -19 -25 -8 -16 -1 -12 25 12 20 19 36
30 36 24 0 -6 -7 -16 -15 -23 -8 -7 -15 -17 -15 -23 0 -6 32 24 71 66 39 42
76 77 82 77 6 0 -6 -17 -26 -38 -20 -21 -37 -42 -37 -47 0 -6 18 10 41 33 33
36 42 42 55 31 16 -13 14 -18 -60 -96 -22 -24 -37 -43 -33 -43 4 0 32 26 62
58 66 70 74 52 8 -21 l-47 -52 52 50 c67 63 67 46 0 -31 l-52 -59 62 60 c67
64 86 61 25 -3 -73 -76 -129 -137 -143 -157 l-15 -20 25 20 c14 11 29 27 34
35 17 27 155 165 156 155 0 -5 -23 -35 -52 -65 -28 -30 -71 -76 -95 -102 -24
-27 -40 -48 -35 -48 5 0 37 31 71 70 90 101 142 152 149 145 3 -3 -18 -29 -46
-58 -29 -29 -52 -56 -52 -61 0 -5 29 23 65 60 112 120 70 55 -52 -81 -65 -71
-112 -126 -105 -121 6 4 36 33 64 64 142 151 187 197 192 192 3 -3 -18 -31
-47 -61 -88 -93 -113 -122 -97 -114 8 5 48 44 89 88 48 51 77 74 81 66 5 -7
13 -8 21 -3 21 13 -44 -66 -91 -111 -53 -50 -49 -32 5 27 57 61 75 88 36 53
-51 -46 -118 -130 -98 -122 28 11 20 -5 -35 -61 -29 -30 -46 -51 -37 -46 9 5
47 43 85 84 38 41 92 99 120 129 l51 54 58 -28 c32 -16 60 -37 63 -47 2 -10 9
-18 16 -18 6 0 18 -4 26 -10 12 -7 0 -24 -60 -87 -123 -130 -175 -187 -189
-208 -16 -23 76 71 192 195 42 45 79 81 81 79 5 -4 -24 -37 -166 -191 -49 -54
-85 -98 -81 -98 5 0 20 12 32 26 12 14 25 23 28 20 4 -3 -4 -17 -17 -31 -13
-14 -21 -25 -18 -25 4 0 37 33 75 72 156 166 193 203 193 196 0 -9 -67 -87
-149 -173 -64 -67 -87 -95 -78 -95 2 0 55 55 117 123 105 114 138 144 129 119
-6 -16 -283 -312 -292 -312 -5 0 1 15 13 33 16 23 17 27 3 12 -10 -11 -27 -27
-37 -35 -18 -14 -18 -13 -11 9 l7 23 -22 -22 c-33 -33 -37 -14 -4 23 22 24 18
22 -15 -8 -25 -23 -41 -32 -38 -22 8 21 -1 22 -25 0 -10 -9 -18 -11 -18 -5 0
6 25 36 55 67 30 32 55 60 55 64 -1 3 -32 -27 -71 -68 -38 -40 -73 -71 -76
-67 -5 5 52 72 98 116 3 3 32 34 64 70 62 68 85 88 85 71 0 -6 -16 -26 -37
-46 -20 -19 -34 -37 -31 -40 3 -3 48 43 102 101 53 59 94 109 92 112 -3 2 -17
-10 -32 -27 -14 -18 -29 -29 -32 -26 -3 3 5 16 18 30 13 14 21 27 18 30 -3 3
-22 -13 -42 -36 -20 -23 -39 -40 -42 -36 -3 3 13 25 35 50 23 24 41 48 41 53
0 7 -108 -106 -220 -231 -58 -65 -44 -54 59 48 46 45 82 77 80 70 -2 -6 -49
-60 -105 -120 -55 -59 -117 -126 -136 -148 -32 -35 -42 -40 -82 -40 l-45 0 16
25 c16 25 15 25 -14 -2 -32 -31 -53 -38 -32 -11 12 16 11 16 -15 -1 -25 -16
-28 -16 -23 -2 4 9 2 16 -3 16 -6 0 -10 -4 -10 -10 0 -5 -5 -10 -11 -10 -6 0
-8 7 -5 17 5 13 0 11 -18 -6 -33 -31 -34 -15 -1 23 40 46 29 45 -16 -2 -40
-41 -67 -52 -38 -15 13 17 12 17 -6 2 -40 -32 -48 -32 -25 2 l23 34 -36 -34
c-37 -35 -52 -34 -20 1 24 27 0 22 -26 -6 -12 -13 -33 -23 -46 -23 l-24 0 24
32 c37 48 30 49 -15 2 -38 -40 -58 -41 -22 -1 46 53 50 64 6 20 -32 -33 -58
-50 -76 -51 -15 -1 -25 2 -22 7 5 8 -27 4 -65 -8 -9 -3 -11 1 -7 12 5 13 3 14
-6 7 -14 -11 -68 -23 -68 -16 0 3 10 19 22 36 19 29 18 28 -16 -6 -21 -21 -40
-36 -44 -33 -3 4 0 12 6 18 7 7 12 17 12 22 0 6 -7 0 -16 -12 -22 -32 -38 -27
-17 6 l17 27 -32 -29 c-17 -16 -35 -27 -38 -23 -4 3 -15 2 -25 -4 -33 -17 -21
2 61 91 44 48 80 91 80 94 0 7 -76 -73 -145 -152 -21 -23 -42 -42 -47 -42 -11
0 72 102 107 132 11 10 16 17 12 18 -4 0 -39 -33 -77 -72 -37 -40 -71 -71 -74
-68 -6 7 180 213 212 236 24 17 29 13 10 -8 -47 -50 -42 -53 7 -5 32 32 64 56
71 53 7 -3 20 4 30 16 22 23 60 46 50 29 -11 -18 3 -13 26 9 41 38 30 11 -14
-37 -25 -26 -62 -68 -83 -93 -38 -44 -38 -44 -4 -10 117 116 198 210 193 223
-3 8 2 17 11 21 11 4 14 2 10 -7 -4 -6 16 13 44 43 27 30 49 57 49 60 -2 19 6
33 33 65 21 24 30 42 26 56 -8 30 42 48 86 30z m20 -86 c-44 -50 -63 -65 -63
-49 0 10 93 104 103 104 4 0 -13 -25 -40 -55z m2966 15 c-19 -33 -168 -184
-174 -178 -4 4 20 35 53 70 34 34 59 64 57 67 -3 2 -18 -11 -34 -30 -16 -18
-33 -30 -37 -26 -4 4 13 29 39 55 26 26 47 52 47 56 0 5 -19 -12 -41 -38 -23
-26 -44 -44 -47 -41 -9 9 80 94 93 89 7 -3 16 -1 20 5 10 18 35 -11 24 -29z
m5 -32 c-4 -7 -20 -26 -35 -43 -97 -107 -119 -129 -123 -124 -7 6 144 179 156
179 5 0 6 -6 2 -12z m181 -8 c-4 -6 1 -7 11 -3 26 10 14 -8 -63 -93 -39 -43
-82 -92 -96 -109 -14 -16 -29 -27 -33 -23 -4 4 14 30 39 57 26 28 47 54 47 58
0 4 -25 -19 -55 -52 -60 -67 -77 -60 -18 7 l37 43 -45 -43 c-31 -29 -51 -41
-62 -36 -9 3 -17 8 -17 11 0 3 23 30 50 61 28 31 50 60 50 64 0 5 -13 -6 -29
-24 -89 -101 -111 -122 -111 -100 0 4 36 45 81 92 56 60 78 78 73 60 -6 -21
-5 -23 8 -12 14 11 48 7 48 -6 0 -3 -10 -16 -22 -29 -12 -13 -17 -23 -12 -23
5 0 32 25 59 55 44 48 77 73 60 45z m-155 -3 c0 -6 -35 -45 -106 -119 -35 -37
-64 -63 -64 -57 0 6 22 34 48 62 27 29 61 67 77 85 24 27 45 41 45 29z m220
-41 c-16 -16 -11 -30 5 -16 9 7 18 11 20 8 3 -3 -18 -29 -46 -59 -28 -30 -71
-76 -94 -104 -24 -27 -46 -47 -49 -44 -3 3 5 19 19 34 13 16 22 31 20 34 -3 2
-6 2 -8 0 -1 -2 -17 -20 -33 -40 -27 -32 -33 -34 -49 -23 -16 12 -9 23 85 128
90 101 105 113 121 103 12 -7 15 -15 9 -21z m-396 2 c-17 -28 -189 -210 -209
-220 -15 -8 -12 -2 10 23 17 18 35 38 40 44 76 87 151 165 158 165 4 0 5 -6 1
-12z m-69 -40 c-136 -145 -200 -208 -203 -199 -2 5 -11 7 -20 4 -22 -8 -4 13
92 114 63 67 98 92 80 61 -4 -7 11 4 32 25 53 51 67 47 19 -5z m50 -18 c-16
-16 -33 -30 -39 -30 -5 0 3 14 19 30 16 17 33 30 39 30 5 0 -3 -13 -19 -30z
m455 22 c0 -12 -167 -188 -173 -182 -5 5 160 190 169 190 2 0 4 -3 4 -8z m-17
-65 c-26 -29 -49 -54 -50 -56 -2 -2 -6 -1 -10 2 -8 9 89 115 100 109 5 -2 -13
-27 -40 -55z m340 19 c-21 -29 -35 -34 -26 -8 6 19 34 44 41 38 2 -3 -4 -16
-15 -30z m-268 10 c12 -11 8 -19 -21 -50 -20 -21 -38 -35 -42 -32 -3 4 10 22
28 41 19 19 29 35 22 35 -6 0 -15 -6 -19 -14 -4 -8 -30 -37 -56 -65 -27 -28
-46 -54 -43 -59 2 -4 -5 -9 -16 -9 -23 -2 -29 -11 67 100 32 37 60 67 62 67 3
0 11 -6 18 -14z m-706 -43 c-58 -67 -114 -123 -123 -123 -6 0 6 17 25 38 19
20 43 48 53 62 10 14 -11 -6 -48 -44 -36 -38 -69 -67 -73 -63 -4 4 11 25 32
47 22 22 35 40 29 40 -5 0 -27 -21 -48 -46 -43 -51 -60 -53 -25 -2 l23 33 -26
-23 c-23 -21 -58 -22 -58 -2 0 20 -109 -15 -124 -39 -4 -6 -17 -16 -29 -23
-20 -10 -21 -10 -8 5 7 10 9 17 3 17 -5 0 -24 -17 -40 -37 -17 -21 -34 -35
-38 -30 -4 4 2 17 14 30 12 13 22 27 22 30 0 4 -14 -8 -31 -28 -17 -19 -36
-35 -42 -35 -6 0 0 11 13 25 13 14 21 27 18 30 -2 3 -15 -6 -28 -20 -25 -27
-51 -35 -30 -10 7 8 8 15 3 15 -5 0 -17 -10 -28 -22 -10 -12 -20 -18 -22 -13
-4 12 -65 10 -153 -5 -36 -6 -76 -13 -90 -15 -14 -2 -33 -6 -43 -10 -9 -4 -23
-2 -30 4 -10 7 -32 7 -76 0 -56 -9 -65 -8 -91 11 -15 11 -35 20 -43 20 -9 0
-30 12 -48 28 -18 15 -30 21 -25 15 4 -8 1 -13 -9 -13 -9 0 -35 -10 -58 -22
-23 -12 -49 -24 -57 -27 -28 -8 -121 -3 -135 9 -9 7 -15 8 -20 1 -7 -12 -82
-5 -99 8 -13 9 -146 34 -161 30 -14 -4 -55 11 -55 20 0 4 46 8 103 8 112 1
188 6 203 15 5 3 43 9 84 12 42 4 103 19 139 33 57 23 68 24 95 13 17 -7 56
-14 86 -16 124 -8 249 -27 243 -37 -4 -6 -1 -7 8 -2 17 11 108 13 131 3 9 -5
18 -3 20 3 2 6 24 12 48 14 25 2 81 7 125 11 44 4 88 7 97 8 9 0 16 5 15 11
-3 17 132 9 146 -10 6 -7 10 -6 14 3 2 6 9 12 14 12 6 0 5 -10 -2 -22 l-12
-23 26 24 c14 12 30 20 36 16 6 -3 18 1 27 10 9 9 22 14 29 11 7 -2 23 7 36
20 13 14 29 22 35 20 7 -3 18 2 24 10 7 8 17 14 23 14 6 0 0 -12 -14 -27z
m733 -36 c-18 -17 -32 -27 -32 -21 0 6 9 19 20 29 11 10 20 23 20 28 0 6 -13
-2 -30 -18 -37 -35 -40 -22 -4 16 24 25 28 26 42 13 13 -14 12 -19 -16 -47z
m-4431 39 c22 13 -27 -49 -67 -86 -38 -35 -27 -15 25 42 13 15 22 30 19 33 -3
3 -32 -24 -64 -60 -32 -36 -62 -65 -67 -65 -5 0 22 34 59 75 43 49 70 72 75
64 4 -7 12 -8 20 -3z m31 -18 c-24 -24 -11 -31 13 -8 14 13 25 19 25 14 0 -6
-14 -23 -31 -40 -21 -20 -28 -23 -23 -10 6 16 5 17 -14 7 -12 -7 -22 -16 -22
-20 0 -5 -7 -12 -15 -15 -9 -3 3 17 27 44 23 27 44 47 47 44 3 -2 -1 -10 -7
-16z m4422 -39 c-41 -43 -50 -35 -12 11 18 21 35 34 37 29 2 -6 -9 -24 -25
-40z m-4369 12 c-3 -6 -16 -16 -28 -22 -21 -11 -21 -10 2 15 23 25 40 29 26 7z
m4415 4 c-15 -18 1 -20 18 -3 7 7 12 8 12 3 0 -12 -36 -53 -65 -75 -16 -13
-15 -9 5 20 23 33 23 34 2 16 -12 -11 -25 -17 -27 -14 -8 7 44 68 57 68 6 0 5
-6 -2 -15z m74 3 c-13 -24 -37 -48 -47 -48 -6 0 2 14 18 30 31 32 41 38 29 18z
m30 -10 c-4 -7 -12 -19 -17 -26 -14 -18 -17 -55 -5 -63 6 -4 -18 -36 -51 -71
-44 -47 -68 -65 -86 -65 -14 0 -25 1 -25 4 0 2 14 19 32 38 21 23 37 33 49 30
36 -12 79 74 48 95 -10 7 38 70 52 70 6 0 7 -6 3 -12z m-334 -5 c0 -10 -52
-63 -63 -63 -5 0 4 15 20 34 27 33 43 44 43 29z m-419 -20 c-13 -24 -81 -89
-81 -78 0 8 80 95 87 95 2 0 -1 -8 -6 -17z m-2258 -79 c-93 -105 -135 -146
-141 -139 -3 3 9 20 27 37 18 18 63 65 99 105 36 40 70 73 75 73 5 0 -22 -34
-60 -76z m2287 69 c0 -4 -15 -23 -32 -43 l-33 -35 37 34 c45 41 64 34 22 -9
-31 -31 -41 -35 -62 -21 -11 6 -6 17 20 45 31 34 48 44 48 29z m787 -17 c-3
-8 -1 -17 6 -19 7 -2 -1 -4 -16 -4 -27 0 -27 0 -11 18 20 23 28 24 21 5z
m-3137 -1 c0 -8 -52 -56 -56 -52 -6 6 36 57 47 57 5 0 9 -2 9 -5z m2468 -9 c3
-4 2 -10 -3 -14 -6 -4 -19 -18 -30 -32 -12 -15 -5 -12 18 9 20 19 37 30 37 23
0 -7 8 -12 17 -12 14 0 13 -4 -6 -24 -21 -22 -35 -25 -95 -17 -4 1 4 18 19 39
l28 37 -36 -34 c-21 -19 -37 -30 -37 -24 0 6 7 16 15 23 8 7 15 17 15 23 0 6
-16 -4 -35 -23 -40 -39 -48 -30 -9 11 20 21 34 27 60 24 19 -1 38 -5 42 -9z
m-2285 -31 c-17 -23 -33 -32 -33 -18 0 10 32 43 42 43 5 0 1 -11 -9 -25z
m2629 3 c-7 -7 -12 -8 -12 -2 0 14 12 26 19 19 2 -3 -1 -11 -7 -17z m38 2 c0
-5 -9 -15 -20 -22 -11 -7 -20 -17 -20 -22 0 -5 11 1 25 14 47 44 36 13 -15
-41 -27 -30 -50 -49 -50 -43 0 5 5 15 11 21 7 7 5 12 -8 17 -9 4 -14 4 -10 0
14 -14 -14 -34 -33 -24 -10 6 -26 7 -34 4 -21 -8 -20 5 4 36 10 14 22 21 27
17 4 -5 2 -12 -6 -16 -10 -7 -10 -9 3 -14 9 -4 17 1 20 11 3 9 16 23 28 31 23
14 23 14 4 -8 -11 -11 -14 -21 -8 -21 6 0 24 16 39 35 28 35 43 44 43 25z
m-2688 -67 c-132 -148 -210 -228 -216 -222 -3 3 11 23 31 45 99 108 109 119
79 94 -16 -14 -43 -40 -60 -59 -67 -75 -76 -84 -83 -78 -3 4 16 31 43 60 27
29 80 85 117 126 38 40 71 70 75 67 3 -4 -10 -22 -28 -41 -18 -19 -31 -37 -28
-40 2 -3 28 22 57 55 29 33 57 60 63 60 5 0 -17 -30 -50 -67z m1747 54 c6 -8
7 -18 3 -22 -4 -5 -2 -5 4 -2 6 3 30 0 55 -7 27 -8 55 -10 72 -5 16 4 40 4 54
-2 13 -5 36 -9 50 -9 25 0 26 0 8 -20 -24 -26 -10 -26 18 0 12 12 23 16 25 10
2 -5 9 -7 15 -3 7 3 8 2 4 -3 -5 -5 -12 -9 -15 -9 -4 -1 -18 -7 -32 -15 -18
-10 -76 -15 -215 -17 -104 -2 -205 -5 -222 -8 -18 -3 -33 -3 -33 0 0 2 15 12
33 21 17 9 36 23 40 30 4 8 17 14 27 14 11 0 34 13 52 30 38 34 42 35 57 17z
m-1648 -11 c22 13 -42 -64 -130 -156 -44 -47 -81 -89 -81 -95 0 -10 44 35 167
173 36 39 70 72 75 72 12 0 -19 -37 -134 -161 -87 -94 -90 -96 -134 -96 -52 0
-56 -8 56 112 36 39 85 92 109 119 30 32 46 44 51 36 5 -8 13 -9 21 -4z m2273
0 c-5 -13 -34 -31 -34 -21 0 5 30 35 35 35 3 0 2 -6 -1 -14z m31 -6 c-3 -5
-11 -10 -16 -10 -6 0 -7 5 -4 10 3 6 11 10 16 10 6 0 7 -4 4 -10z m495 -10
c-14 -12 -24 -33 -26 -56 -2 -27 0 -34 9 -25 17 17 31 13 17 -4 -7 -9 -20 -13
-28 -10 -9 3 -19 0 -23 -7 -4 -7 -11 -9 -15 -5 -4 4 3 19 17 35 15 17 11 15
-13 -7 -21 -19 -40 -33 -42 -30 -7 7 103 129 116 129 6 0 1 -9 -12 -20z m-201
-32 l-32 -43 37 37 c34 34 39 36 53 22 14 -14 13 -18 -13 -45 -20 -21 -33 -27
-48 -22 -12 3 -29 6 -39 5 -21 -1 -16 8 32 61 39 43 46 32 10 -15z m-2605 -54
c-147 -162 -163 -179 -164 -169 0 12 21 37 137 163 47 51 88 91 91 88 3 -3
-26 -40 -64 -82z m6 -34 c-57 -61 -101 -113 -98 -115 4 -5 80 76 178 188 25
29 37 36 54 31 11 -4 29 -7 39 -6 10 0 17 -3 15 -7 -8 -20 -138 -154 -144
-148 -4 3 21 35 55 70 33 35 61 67 61 71 0 4 -40 -34 -90 -86 -49 -51 -89 -88
-90 -83 0 6 34 46 75 90 41 44 75 84 75 88 0 7 -21 -15 -163 -169 -35 -38 -55
-51 -72 -50 -14 0 -25 2 -25 4 0 5 192 216 208 229 9 7 18 11 20 8 3 -2 -41
-54 -98 -115z m230 97 c0 -10 -213 -237 -218 -232 -5 5 26 43 126 153 65 70
92 93 92 79z m2185 -7 c-3 -5 -11 -10 -16 -10 -6 0 -7 5 -4 10 3 6 11 10 16
10 6 0 7 -4 4 -10z m-3741 -22 c-10 -13 -50 -56 -89 -96 -38 -40 -71 -77 -73
-83 -2 -5 -8 -9 -14 -9 -5 0 0 13 11 29 33 47 162 181 174 181 5 0 2 -10 -9
-22z m1565 -5 c-13 -16 -35 -39 -49 -53 -14 -14 -32 -34 -40 -45 -14 -17 -13
-18 3 -12 27 10 19 -5 -28 -53 -50 -50 -62 -44 -14 8 16 17 26 32 20 32 -5 0
-22 -16 -37 -35 -27 -36 -56 -50 -32 -16 27 38 182 201 192 201 5 0 -1 -12
-15 -27z m-9 -48 c-30 -30 -56 -52 -59 -50 -3 3 19 30 49 60 30 30 56 52 59
50 3 -3 -19 -30 -49 -60z m490 57 c0 -4 -6 -14 -12 -22 -11 -12 -10 -12 4 -1
10 7 22 11 27 9 6 -1 -21 -36 -61 -76 -39 -40 -74 -70 -76 -67 -3 3 15 27 41
53 26 26 47 52 47 57 0 6 -38 -30 -85 -80 -46 -49 -84 -85 -84 -80 -1 6 31 44
69 85 38 41 69 79 70 84 0 5 -34 -26 -75 -70 -83 -89 -102 -90 -24 -2 46 53
122 118 105 90 -4 -7 -2 -12 3 -12 6 0 16 9 23 20 13 20 28 27 28 12z m1369
-19 c-14 -16 -43 -48 -65 -73 -87 -99 -113 -125 -118 -119 -6 6 8 23 83 104
53 57 62 77 12 30 -22 -21 -41 -35 -41 -29 0 18 68 77 80 69 6 -4 20 5 31 19
11 14 25 26 32 26 6 0 -1 -12 -14 -27z m-3510 -50 c-80 -83 -86 -89 -96 -107
-8 -14 -73 -31 -73 -18 0 3 7 14 17 24 9 10 13 18 10 18 -3 0 -14 -9 -24 -19
-22 -24 -68 -37 -77 -22 -4 6 -3 11 3 11 5 0 20 15 32 33 21 31 21 30 -19 -8
-24 -22 -42 -33 -42 -25 0 11 -3 11 -12 2 -7 -7 -25 -12 -42 -12 l-29 0 23 25
c28 29 51 34 25 5 -10 -11 -15 -20 -10 -20 4 0 16 11 27 25 11 14 28 25 37 23
9 -1 26 3 39 10 12 7 22 10 22 7 0 -3 11 2 25 11 23 15 25 15 19 0 -3 -9 -9
-16 -13 -16 -4 0 -17 -15 -30 -32 -12 -18 5 -4 38 31 39 41 66 61 75 58 9 -4
18 -2 21 3 3 6 16 15 28 22 20 10 21 10 9 -5 -8 -9 -38 -42 -68 -74 -29 -32
-54 -62 -54 -68 1 -5 10 1 21 15 41 50 163 170 168 165 2 -3 -20 -31 -50 -62z
m1721 50 c-16 -29 -168 -188 -173 -183 -6 6 165 200 176 200 4 0 3 -8 -3 -17z
m40 1 c0 -3 -16 -20 -35 -37 -19 -17 -35 -35 -35 -41 0 -6 23 12 50 39 64 63
65 48 2 -19 -26 -28 -56 -62 -68 -76 -11 -14 -30 -34 -44 -45 -20 -17 -22 -17
-17 -3 4 12 2 15 -9 11 -27 -10 -14 8 63 93 68 75 93 96 93 78z m440 0 c0 -3
-29 -35 -64 -72 -35 -37 -75 -80 -89 -97 -14 -16 -29 -27 -32 -23 -4 4 10 27
32 50 22 24 61 67 88 96 43 47 65 63 65 46z m1335 -14 c-25 -27 -7 -25 23 3
38 34 22 4 -23 -45 -73 -80 -79 -94 -8 -20 74 77 98 93 62 40 l-22 -33 35 33
c23 22 38 30 43 23 3 -6 11 -9 16 -6 5 4 9 3 9 -2 -1 -13 -148 -168 -154 -162
-3 3 25 39 63 80 38 41 67 76 64 79 -2 3 -23 -15 -45 -40 -23 -25 -60 -65 -82
-89 -22 -24 -42 -39 -44 -33 -3 9 -9 9 -25 1 -18 -9 -20 -9 -9 2 22 24 12 33
-12 10 -17 -16 -25 -19 -28 -9 -4 10 -8 10 -23 -2 -11 -9 -17 -10 -14 -3 7 20
170 193 181 193 6 0 3 -9 -7 -20z m-1790 -82 c-43 -46 -83 -85 -89 -87 -13 -5
3 17 59 78 75 82 96 103 102 97 3 -3 -29 -43 -72 -88z m89 60 c-16 -18 -38
-42 -49 -53 -37 -39 -67 -77 -63 -81 2 -2 39 35 82 81 42 47 82 85 88 85 7 0
1 -11 -12 -25 -29 -31 -15 -33 17 -3 47 44 20 1 -42 -67 -35 -38 -62 -71 -60
-73 3 -3 40 36 113 118 17 19 34 32 37 28 4 -4 -11 -26 -34 -50 -22 -24 -41
-47 -41 -51 0 -5 23 17 51 47 28 31 55 56 61 56 5 0 -25 -38 -67 -85 -43 -47
-80 -83 -83 -80 -3 3 2 13 11 23 28 31 19 33 -11 3 -23 -24 -53 -32 -79 -22
-2 1 22 27 52 58 30 31 52 59 50 62 -3 2 -30 -24 -61 -58 -31 -34 -62 -60 -69
-57 -7 2 -18 -1 -24 -7 -6 -6 -14 -8 -17 -4 -8 7 155 187 170 187 5 0 -3 -15
-20 -32z m318 -56 c-77 -85 -100 -107 -107 -101 -2 2 35 46 82 97 47 51 88 90
91 87 3 -2 -27 -40 -66 -83z m668 78 c10 -6 -3 -8 -39 -5 -29 2 -56 6 -59 10
-9 9 82 5 98 -5z m572 -37 c-52 -65 -126 -130 -149 -131 -26 -1 -29 7 -10 28
6 8 -1 3 -18 -11 -29 -26 -84 -34 -102 -15 -4 3 20 34 52 66 33 33 61 56 63
51 2 -6 11 -7 20 -4 13 5 12 1 -5 -23 -12 -16 -33 -40 -47 -53 -14 -14 -26
-29 -26 -35 0 -6 29 21 65 59 35 39 64 65 65 59 0 -6 -11 -21 -25 -34 -14 -13
-25 -28 -25 -34 0 -6 23 12 50 39 65 64 65 49 0 -22 -28 -31 -48 -58 -45 -61
2 -3 14 6 26 19 73 85 124 139 132 139 5 0 -5 -17 -21 -37z m-1413 -30 c-24
-27 -50 -54 -59 -60 -13 -11 -13 -14 -1 -22 7 -5 10 -14 7 -20 -11 -18 -26
-13 -19 7 6 15 4 15 -15 -2 -12 -11 -24 -17 -27 -14 -3 2 29 42 71 87 42 45
79 79 82 77 3 -3 -15 -27 -39 -53z m279 49 c9 -6 -5 -29 -54 -83 -36 -41 -70
-76 -76 -78 -14 -5 6 32 27 49 8 7 34 36 56 64 23 29 6 14 -39 -34 -90 -95
-119 -106 -39 -15 96 110 99 113 125 97z m82 -12 c-6 -10 -15 -22 -20 -25 -6
-3 -10 -11 -10 -16 0 -6 5 -7 10 -4 16 10 12 -7 -7 -27 -16 -18 -16 -18 0 -12
26 10 20 -9 -13 -41 -16 -16 -30 -24 -30 -18 0 6 7 16 15 23 9 7 13 15 10 18
-3 3 -19 -7 -35 -23 -18 -18 -30 -23 -30 -15 0 11 -3 11 -12 2 -7 -7 -16 -12
-21 -12 -10 0 20 40 79 102 24 26 44 50 44 55 0 4 -36 -30 -80 -77 -44 -47
-80 -80 -80 -74 0 21 144 161 168 162 19 1 20 -2 12 -18z m50 12 c0 -14 -49
-56 -57 -49 -3 4 4 18 17 32 24 25 40 32 40 17z m1310 0 c0 -4 -25 -32 -55
-62 -30 -29 -52 -56 -49 -59 3 -3 34 26 68 64 35 39 67 67 70 64 3 -3 -31 -43
-75 -90 -44 -46 -78 -75 -74 -65 6 19 5 19 -15 1 -15 -14 -20 -15 -20 -4 0 8
8 22 18 30 9 9 39 41 65 72 44 52 67 69 67 49z m-1250 -10 c0 -8 -134 -152
-138 -148 -7 7 11 32 62 86 26 28 46 53 44 56 -3 2 -22 -14 -42 -37 -21 -22
-40 -38 -44 -35 -12 13 69 84 94 82 13 0 24 -2 24 -4z m1332 -18 c-17 -23 -32
-31 -32 -16 0 4 5 13 12 20 9 9 9 12 0 12 -7 0 -12 -3 -12 -8 0 -4 -25 -34
-55 -66 -30 -33 -53 -61 -50 -64 5 -5 35 23 36 35 1 11 69 67 69 56 0 -5 -13
-23 -30 -41 -16 -18 -30 -36 -30 -40 0 -4 29 25 64 63 35 39 67 67 70 64 3 -3
-25 -39 -64 -80 -38 -41 -69 -68 -70 -60 0 10 -3 11 -13 3 -14 -12 -57 -12
-57 -1 0 4 29 39 65 77 46 49 72 70 90 70 23 0 24 -1 7 -24z m-1318 -6 c-10
-12 -23 -28 -29 -34 -41 -47 -55 -65 -55 -71 0 -4 28 23 61 60 34 37 64 66 67
63 2 -3 -22 -36 -55 -73 -46 -51 -67 -68 -87 -68 -14 0 -26 1 -26 3 0 9 125
142 134 142 5 0 1 -10 -10 -22z m79 5 c-5 -15 -3 -16 8 -5 30 27 29 9 -2 -30
l-33 -43 45 41 c24 22 54 41 67 42 l24 1 -29 -37 c-32 -42 -89 -102 -98 -102
-4 0 -3 5 0 10 3 6 2 10 -4 10 -5 0 -13 -4 -16 -10 -3 -5 -11 -10 -16 -10 -6
0 -7 6 -3 13 5 8 2 7 -9 -2 -36 -29 -28 1 12 44 22 24 41 48 41 52 -1 5 -23
-17 -50 -47 -27 -30 -51 -52 -55 -49 -5 5 111 139 121 139 2 0 1 -8 -3 -17z
m1310 1 c-5 -14 -3 -15 15 -5 18 9 21 9 16 -3 -7 -17 -34 -30 -34 -15 0 6 -5
7 -11 3 -8 -5 -8 -9 1 -14 11 -7 -25 -59 -60 -87 -20 -16 -26 -7 -9 14 7 10 1
7 -14 -6 -15 -14 -29 -22 -32 -19 -5 5 122 148 131 148 2 0 1 -7 -3 -16z
m-1173 -3 c0 -5 -11 -23 -25 -39 -39 -46 -30 -47 12 -2 24 27 39 37 43 29 4
-6 13 -8 19 -5 6 4 11 3 11 -1 0 -14 -87 -98 -102 -98 -7 0 -19 -4 -26 -9 -21
-13 -29 4 -9 18 9 7 17 17 17 21 0 5 -13 -4 -30 -20 -49 -47 -34 -18 26 51 58
65 64 71 64 55z m285 -56 c-32 -36 -62 -65 -67 -65 -5 0 16 29 47 65 32 36 62
65 67 65 5 0 -16 -29 -47 -65z m29 -9 c-31 -37 -62 -66 -67 -66 -12 0 5 23 67
87 70 73 70 58 0 -21z m951 57 c42 -2 65 -7 65 -14 0 -13 -98 -114 -104 -108
-3 3 15 28 40 57 25 29 42 52 37 51 -4 0 -28 -25 -53 -54 -43 -51 -60 -64 -60
-47 0 4 15 23 33 42 17 19 38 44 46 55 7 11 -14 -9 -47 -45 -33 -36 -63 -62
-66 -59 -4 3 14 29 39 57 25 27 45 53 45 57 0 4 -27 -21 -59 -56 -32 -35 -62
-61 -65 -58 -3 3 22 36 55 73 34 37 65 63 68 59 3 -5 15 -10 26 -10z m-1170
-57 c-43 -49 -75 -75 -75 -60 0 10 113 124 118 120 2 -3 -17 -30 -43 -60z m40
0 c-45 -51 -75 -75 -75 -58 1 12 111 124 117 118 3 -2 -16 -30 -42 -60z m64
37 c-59 -68 -84 -93 -92 -93 -5 0 14 27 43 60 29 33 57 60 63 60 6 0 0 -12
-14 -27z m21 -20 c-60 -67 -81 -86 -86 -81 -6 7 106 128 118 128 6 0 -9 -21
-32 -47z m61 30 c-12 -23 -111 -120 -111 -109 0 11 103 126 113 126 4 0 3 -8
-2 -17z m110 0 c-5 -10 -23 -31 -40 -47 -17 -17 -31 -34 -31 -40 0 -5 23 16
51 47 28 31 55 57 61 57 5 0 -13 -26 -41 -59 -36 -42 -60 -60 -81 -63 -17 -3
-30 -3 -30 -1 0 3 24 31 52 64 51 57 78 77 59 42z m34 -47 c-46 -53 -85 -83
-68 -51 14 24 105 116 110 111 3 -3 -16 -30 -42 -60z m47 17 c-46 -55 -82 -90
-82 -78 0 12 101 125 112 125 5 0 -8 -21 -30 -47z m1109 19 c-25 -36 -50 -57
-57 -49 -5 5 64 77 74 77 2 0 -6 -13 -17 -28z m-1531 -42 c-49 -57 -66 -71
-58 -51 6 17 91 111 101 111 5 0 -14 -27 -43 -60z m1495 40 c-10 -11 -23 -20
-28 -20 -6 0 -2 9 8 20 10 11 23 20 28 20 6 0 2 -9 -8 -20z m66 3 c-5 -10 -7
-37 -5 -60 2 -23 -1 -45 -7 -49 -17 -10 -23 4 -8 23 13 17 13 17 -7 1 -34 -29
-38 -20 -9 20 28 37 28 37 -20 -8 -59 -56 -55 -40 9 34 51 58 63 68 47 39z
m-251 0 c-1 -14 -89 -108 -95 -101 -3 3 13 29 37 56 41 48 58 61 58 45z m31
-10 c-13 -25 -101 -109 -101 -98 0 11 95 115 105 115 3 0 1 -8 -4 -17z m-691
0 c-1 -12 -90 -99 -90 -87 0 12 70 94 82 94 4 0 8 -3 8 -7z m689 -43 c-23 -27
-47 -50 -52 -50 -6 0 -3 8 5 18 59 69 72 82 80 82 5 0 -10 -22 -33 -50z m56
-1 c-3 -34 -2 -39 11 -28 11 9 14 9 14 -1 0 -7 7 -10 15 -6 8 3 15 1 15 -3 0
-5 -7 -11 -15 -15 -8 -3 -15 0 -15 6 0 7 -4 7 -14 -1 -14 -12 -46 -5 -46 9 0
5 7 16 16 24 8 9 11 16 5 16 -6 0 -20 -13 -32 -30 -12 -16 -26 -27 -31 -24 -6
4 68 94 78 94 2 0 1 -18 -1 -41z m-2665 24 c-1 -22 -40 -56 -68 -59 -30 -3
-31 -2 -20 16 16 25 33 26 24 3 -4 -11 7 -4 26 15 35 34 38 36 38 25z m-1835
-13 c-9 -14 8 -13 23 2 21 21 23 2 2 -23 -15 -16 -23 -20 -28 -12 -5 8 -13 9
-22 3 -8 -6 -26 -10 -40 -10 -22 1 -23 2 -7 11 9 5 21 8 25 5 5 -3 16 4 25 15
17 20 33 26 22 9z m2395 -17 c0 -10 -32 -43 -42 -43 -5 0 -1 11 9 25 17 23 33
32 33 18z M1250 1495 c-19 -19 -29 -35 -24 -35 13 0 69 58 63 65 -3 2 -21 -11
-39 -30z M1193 1438 c-24 -32 -24 -41 0 -19 15 14 27 26 27 28 0 8 -19 2 -27
-9z M1360 1415 c-19 -19 -30 -35 -24 -35 9 0 17 8 53 53 23 29 7 19 -29 -18z
M1305 1352 c-5 -4 -17 -16 -25 -27 -11 -15 -7 -14 13 4 24 22 32 31 25 31 -2
0 -7 -4 -13 -8z M1130 1283 c-24 -27 -65 -72 -92 -100 -27 -29 -46 -53 -43
-53 9 0 81 76 169 178 37 43 8 21 -34 -25z M1170 1285 c-24 -24 -42 -46 -39
-48 2 -2 24 19 48 45 55 61 50 63 -9 3z M1609 1247 c-127 -138 -167 -186 -130
-152 51 46 214 225 210 230 -3 2 -38 -33 -80 -78z M1096 1282 l-19 -27 26 24
c28 26 32 31 20 31 -5 0 -17 -13 -27 -28z M1620 1219 c-47 -51 -77 -90 -67
-86 26 10 21 -6 -13 -38 -16 -16 -30 -34 -30 -39 0 -6 27 18 59 54 33 36 62
62 66 58 3 -3 -23 -37 -59 -76 -36 -38 -66 -73 -66 -77 0 -3 17 11 38 32 140
145 212 225 212 234 0 5 -4 7 -10 4 -5 -3 -10 -1 -10 5 0 7 -6 10 -14 7 -8 -3
-16 -1 -18 4 -2 6 -42 -32 -88 -82z m106 58 c24 9 16 -5 -36 -59 -27 -29 -50
-48 -50 -43 0 6 16 27 35 47 19 20 35 40 35 45 0 4 -29 -23 -65 -62 -35 -38
-67 -67 -70 -64 -3 4 25 39 62 79 37 40 69 67 71 62 2 -6 10 -8 18 -5z M1177
1256 c-20 -25 -37 -48 -37 -51 0 -3 18 15 40 40 36 42 45 55 37 55 -1 0 -19
-20 -40 -44z M1217 1262 c-45 -46 -50 -68 -6 -26 28 26 55 64 46 64 -1 0 -20
-17 -40 -38z M1259 1263 c-50 -54 -71 -85 -36 -54 36 33 34 18 -5 -33 l-31
-41 43 43 c41 41 67 51 39 15 -7 -10 -1 -7 14 6 30 27 34 36 12 27 -23 -8 -18
8 10 34 14 13 23 26 20 29 -3 3 -19 -10 -35 -29 -16 -19 -32 -31 -36 -27 -4 4
5 21 21 37 16 17 27 30 24 30 -3 0 -21 -17 -40 -37z M1326 1254 c-5 -14 -4
-15 9 -4 17 14 19 20 6 20 -5 0 -12 -7 -15 -16z M1312 1124 c-57 -63 -99 -114
-94 -114 6 0 12 6 15 13 2 6 8 9 12 5 5 -5 0 -18 -11 -30 -10 -13 1 -5 24 17
23 21 42 41 42 44 0 2 -9 -4 -20 -14 -37 -33 -34 -5 3 33 102 105 153 166 135
161 -2 0 -49 -52 -106 -115z M1020 1198 c-38 -43 -38 -46 0 -11 19 18 32 34
29 36 -2 2 -15 -9 -29 -25z M1060 1163 c-96 -101 -145 -156 -134 -150 13 7
198 207 192 207 -2 0 -28 -26 -58 -57z M1105 1172 c-5 -4 -16 -15 -24 -25 -12
-15 -12 -17 4 -10 15 5 17 3 12 -13 -5 -11 5 -6 23 15 36 41 39 53 5 21 -25
-23 -37 -16 -13 8 13 13 9 16 -7 4z M1155 1153 c-14 -15 -25 -32 -25 -37 0 -5
1 -7 3 -5 1 2 15 19 31 37 17 17 27 32 23 32 -3 0 -18 -12 -32 -27z M1370
1108 c-30 -33 -59 -68 -64 -77 -5 -9 6 0 24 19 18 19 51 54 74 78 22 23 36 42
31 41 -6 0 -35 -28 -65 -61z M1440 1145 c-13 -14 -20 -25 -17 -25 10 0 49 41
45 46 -3 2 -15 -7 -28 -21z M889 1143 c-13 -15 -12 -15 9 -4 23 12 28 21 13
21 -5 0 -15 -7 -22 -17z M936 1112 l-30 -37 37 34 c38 36 42 42 30 40 -5 0
-21 -17 -37 -37z M807 1094 c-16 -19 -25 -34 -20 -34 8 0 16 9 52 53 26 33 -4
15 -32 -19z M1159 1113 c-13 -16 -12 -17 4 -4 9 7 17 15 17 17 0 8 -8 3 -21
-13z M859 1103 c-13 -16 -12 -17 4 -4 9 7 17 15 17 17 0 8 -8 3 -21 -13z
M1156 1071 l-40 -46 44 42 c24 23 42 44 40 46 -3 2 -23 -17 -44 -42z M1220
1105 c-7 -9 -10 -18 -7 -21 3 -3 10 4 17 15 13 25 8 27 -10 6z M1476 1062
l-49 -57 56 55 c31 30 57 56 57 57 0 13 -23 -6 -64 -55z M1076 1061 l-40 -46
44 42 c24 23 42 44 40 46 -3 2 -23 -17 -44 -42z M1396 1094 c-5 -14 -4 -15 9
-4 17 14 19 20 6 20 -5 0 -12 -7 -15 -16z M1055 1080 c-16 -17 -16 -20 -3 -15
9 4 19 13 22 21 7 19 2 18 -19 -6z M809 1053 l-24 -28 28 24 c15 14 27 26 27
28 0 8 -8 1 -31 -24z M929 1063 c-13 -16 -12 -17 4 -4 16 13 21 21 13 21 -2 0
-10 -8 -17 -17z M870 1037 c-54 -52 -123 -128 -119 -131 2 -2 39 34 83 80 80
86 97 110 36 51z M1100 1055 c-7 -9 -8 -15 -2 -15 5 0 12 7 16 15 3 8 4 15 2
15 -2 0 -9 -7 -16 -15z M1179 1053 c-13 -16 -12 -17 4 -4 9 7 17 15 17 17 0 8
-8 3 -21 -13z M1360 1055 c-7 -9 -8 -15 -2 -15 5 0 12 7 16 15 3 8 4 15 2 15
-2 0 -9 -7 -16 -15z M989 1043 c-13 -16 -12 -17 4 -4 9 7 17 15 17 17 0 8 -8
3 -21 -13z M1370 1025 c-18 -19 -32 -36 -29 -38 2 -2 19 14 38 35 42 48 36 50
-9 3z M1423 1048 c-22 -29 -24 -41 -3 -20 12 13 20 25 17 28 -2 2 -9 -1 -14
-8z M1000 1025 c-13 -14 -21 -27 -18 -30 2 -3 14 9 27 25 26 37 23 39 -9 5z
M892 1028 c-7 -7 -12 -16 -12 -21 0 -5 7 -1 16 8 9 9 14 18 12 20 -2 3 -10 -1
-16 -7z M1457 1002 c-20 -21 -37 -41 -37 -46 0 -4 6 -1 13 6 6 8 25 28 41 46
41 45 28 40 -17 -6z M1052 999 c-18 -18 -30 -34 -27 -38 3 -3 10 1 16 9 7 12
11 12 17 2 7 -10 11 -10 22 3 11 13 10 15 -4 9 -21 -8 -21 4 1 28 27 30 9 20
-25 -13z M1320 1015 c-7 -9 -8 -15 -2 -15 5 0 12 7 16 15 3 8 4 15 2 15 -2 0
-9 -7 -16 -15z M1110 945 c-41 -41 -70 -78 -66 -82 4 -4 17 6 29 22 12 17 44
54 71 83 72 77 52 63 -34 -23z M926 982 l-19 -27 24 22 c12 12 21 24 18 27 -2
2 -13 -8 -23 -22z M981 965 c-22 -24 -41 -50 -41 -57 0 -7 6 -4 12 7 6 11 17
23 24 28 14 8 58 67 51 67 -2 0 -23 -20 -46 -45z M1269 993 c-13 -16 -12 -17
4 -4 9 7 17 15 17 17 0 8 -8 3 -21 -13z M855 986 c-41 -48 -45 -58 -15 -29 19
18 32 34 29 37 -2 2 -8 -1 -14 -8z M1109 983 c-13 -16 -12 -17 4 -4 16 13 21
21 13 21 -2 0 -10 -8 -17 -17z M1159 958 l-33 -43 42 40 c45 42 47 45 33 45
-5 0 -24 -19 -42 -42z M1349 963 l-34 -38 38 34 c20 19 37 36 37 38 0 8 -8 0
-41 -34z M1405 989 c-11 -17 1 -21 15 -4 8 9 8 15 2 15 -6 0 -14 -5 -17 -11z
M1285 979 c-11 -17 1 -21 15 -4 8 9 8 15 2 15 -6 0 -14 -5 -17 -11z M1466 974
c-5 -14 -4 -15 9 -4 17 14 19 20 6 20 -5 0 -12 -7 -15 -16z M1495 970 c-26
-29 -15 -32 15 -4 13 13 20 24 14 24 -6 0 -19 -9 -29 -20z M869 963 c-13 -16
-12 -17 4 -4 9 7 17 15 17 17 0 8 -8 3 -21 -13z M950 969 c0 -5 5 -7 10 -4 6
3 10 8 10 11 0 2 -4 4 -10 4 -5 0 -10 -5 -10 -11z M750 950 c-6 -11 -8 -20 -6
-20 3 0 10 9 16 20 6 11 8 20 6 20 -3 0 -10 -9 -16 -20z M1076 944 c-5 -14 -4
-15 9 -4 17 14 19 20 6 20 -5 0 -12 -7 -15 -16z M690 925 c-13 -14 -20 -25
-15 -25 7 0 45 39 45 47 0 7 -8 2 -30 -22z M880 935 c-8 -9 -8 -15 -2 -15 12
0 26 19 19 26 -2 2 -10 -2 -17 -11z M900 915 c-19 -19 -30 -35 -24 -34 9 0 70
69 62 69 -2 0 -19 -16 -38 -35z M979 924 c-13 -15 -18 -25 -10 -22 13 4 49 48
39 48 -2 0 -15 -12 -29 -26z M1180 939 c0 -5 5 -7 10 -4 6 3 10 8 10 11 0 2
-4 4 -10 4 -5 0 -10 -5 -10 -11z M1429 933 c-13 -16 -12 -17 4 -4 16 13 21 21
13 21 -2 0 -10 -8 -17 -17z M829 913 l-24 -28 28 24 c25 23 32 31 24 31 -2 0
-14 -12 -28 -27z M1337 915 c-10 -14 -14 -25 -10 -25 4 0 16 12 26 25 10 14
14 25 10 25 -4 0 -16 -12 -26 -25z M1451 917 c-13 -21 -12 -21 5 -5 10 10 16
20 13 22 -3 3 -11 -5 -18 -17z M1550 905 c-7 -9 -8 -15 -2 -15 5 0 12 7 16 15
3 8 4 15 2 15 -2 0 -9 -7 -16 -15z M850 899 c0 -5 5 -7 10 -4 6 3 10 8 10 11
0 2 -4 4 -10 4 -5 0 -10 -5 -10 -11z M1386 882 l-19 -27 24 22 c12 12 21 24
18 27 -2 2 -13 -8 -23 -22z M650 879 c0 -5 5 -7 10 -4 6 3 10 8 10 11 0 2 -4
4 -10 4 -5 0 -10 -5 -10 -11z M1415 879 c-11 -17 1 -21 15 -4 8 9 8 15 2 15
-6 0 -14 -5 -17 -11z M4249 1464 c-13 -14 -17 -23 -9 -19 13 5 46 45 37 45 -2
0 -14 -11 -28 -26z M4434 1388 c-57 -65 -57 -80 0 -18 20 22 33 40 28 40 -5 0
-17 -10 -28 -22z M4305 1323 c-33 -36 -62 -70 -64 -77 -4 -12 2 -7 79 77 29
31 51 59 49 62 -3 2 -32 -25 -64 -62z M4480 1358 c-41 -48 -54 -73 -19 -37 53
56 72 79 63 79 -5 -1 -25 -19 -44 -42z M4445 1280 c-16 -16 -24 -30 -18 -30
10 0 34 24 47 48 12 20 2 14 -29 -18z M4375 1239 c-26 -27 -46 -52 -43 -54 2
-2 25 21 51 51 61 68 56 70 -8 3z M4000 1314 c-1 -5 -30 -40 -65 -79 -35 -38
-62 -71 -60 -74 3 -2 6 -2 8 0 1 2 31 37 66 77 35 40 61 76 57 79 -3 3 -6 2
-6 -3z M2883 1175 c0 -8 4 -12 9 -9 5 3 6 10 3 15 -9 13 -12 11 -12 -6z M2380
1141 c0 -9 30 -24 36 -18 2 1 -6 8 -16 15 -11 7 -20 8 -20 3z M2330 1130 c-9
-6 -10 -10 -3 -10 6 0 15 5 18 10 8 12 4 12 -15 0z M3026 1124 c-5 -14 -4 -15
9 -4 17 14 19 20 6 20 -5 0 -12 -7 -15 -16z M3243 1125 c-7 -8 -9 -16 -4 -19
5 -3 12 1 15 10 8 22 4 25 -11 9z M3185 1114 c17 -17 22 -17 28 -1 3 7 -5 13
-19 13 -20 2 -21 0 -9 -12z M4700 1037 l-23 -32 29 27 c15 15 26 30 23 33 -3
2 -16 -10 -29 -28z M4230 1125 c-7 -9 -11 -18 -8 -20 3 -3 11 1 18 10 7 9 11
18 8 20 -3 3 -11 -1 -18 -10z M3635 1060 c3 -5 11 -10 16 -10 6 0 7 5 4 10 -3
6 -11 10 -16 10 -6 0 -7 -4 -4 -10z M1964 1078 c-15 -18 -65 -73 -111 -122
-46 -49 -82 -91 -79 -93 2 -3 24 17 48 43 23 26 70 77 103 112 58 62 81 92 71
92 -2 0 -17 -15 -32 -32z M4642 1057 c-12 -13 -22 -27 -22 -33 0 -5 12 4 26
19 14 16 24 30 22 33 -3 2 -14 -6 -26 -19z M492 949 c-13 -16 -18 -27 -10 -24
16 7 52 55 41 54 -4 0 -18 -13 -31 -30z M340 899 c0 -5 5 -7 10 -4 6 3 10 8
10 11 0 2 -4 4 -10 4 -5 0 -10 -5 -10 -11z M2258 923 c-8 -10 -19 -25 -23 -33
-8 -13 -7 -13 9 -1 16 14 41 51 33 51 -2 0 -11 -8 -19 -17z M4073 949 c-24
-22 -43 -46 -43 -52 0 -6 10 0 22 14 12 13 33 36 47 52 37 40 22 33 -26 -14z
M4123 925 c-17 -19 -28 -35 -24 -35 8 0 44 37 55 58 13 22 0 13 -31 -23z
M4007 883 c-4 -3 -7 -11 -7 -17 0 -6 5 -5 12 2 6 6 9 14 7 17 -3 3 -9 2 -12
-2z M3780 918 c-56 -65 -56 -78 -1 -20 28 29 51 54 51 57 0 14 -19 0 -50 -37z
M2861 900 c-17 -22 -28 -40 -24 -39 11 1 67 69 61 74 -3 3 -19 -13 -37 -35z
M3177 929 c-47 -52 -58 -71 -23 -39 28 25 71 80 63 80 -2 0 -20 -18 -40 -41z
M3095 880 c-3 -5 -2 -10 4 -10 5 0 13 5 16 10 3 6 2 10 -4 10 -5 0 -13 -4 -16
-10z M4410 925 c-7 -9 -11 -18 -8 -20 3 -3 11 1 18 10 7 9 11 18 8 20 -3 3
-11 -1 -18 -10z M3255 900 c-3 -5 -2 -10 4 -10 5 0 13 5 16 10 3 6 2 10 -4 10
-5 0 -13 -4 -16 -10z M817 1265 c3 -8 9 -12 14 -9 12 7 11 11 -5 17 -10 4 -13
1 -9 -8z M665 1199 c-4 -6 -5 -12 -2 -15 2 -3 7 2 10 11 7 17 1 20 -8 4z M626
1176 c3 -8 15 -17 27 -20 31 -8 30 -2 -3 18 -24 13 -29 14 -24 2z M580 1150
c0 -5 5 -10 11 -10 5 0 7 5 4 10 -3 6 -8 10 -11 10 -2 0 -4 -4 -4 -10z M615
1139 c-4 -6 -5 -12 -2 -15 2 -3 7 2 10 11 7 17 1 20 -8 4z M216 1124 c-9 -24
-7 -27 9 -10 17 17 19 26 6 26 -5 0 -12 -7 -15 -16z M397 1127 c3 -4 12 -6 20
-3 9 4 22 1 29 -5 10 -8 14 -8 14 0 0 12 -2 13 -42 15 -15 1 -24 -2 -21 -7z
M480 1128 c0 -5 9 -6 22 -3 17 6 20 4 14 -10 -5 -15 -4 -16 9 -5 9 7 13 15 11
18 -10 9 -56 10 -56 0z M520 1085 c-7 -8 -19 -15 -26 -15 -8 0 -14 -4 -14 -9
0 -5 -7 -11 -15 -13 -8 -2 -11 -8 -7 -15 5 -8 19 0 45 24 21 19 37 37 34 39
-2 3 -10 -2 -17 -11z M133 1078 c-19 -25 -24 -38 -15 -38 5 0 17 11 26 25 17
25 7 36 -11 13z M165 1070 c-3 -5 -2 -10 4 -10 5 0 13 5 16 10 3 6 2 10 -4 10
-5 0 -13 -4 -16 -10z M210 1076 c0 -2 7 -9 15 -16 13 -11 14 -10 9 4 -5 14
-24 23 -24 12z M332 1050 c-7 -11 -9 -20 -4 -20 4 0 13 9 20 20 7 11 9 20 4
20 -4 0 -13 -9 -20 -20z M380 1060 c-8 -5 -12 -11 -9 -14 2 -3 11 -1 19 4 8 5
12 11 9 14 -2 3 -11 1 -19 -4z M419 1053 c-13 -16 -12 -17 4 -4 9 7 17 15 17
17 0 8 -8 3 -21 -13z M170 1034 c-13 -13 -20 -24 -14 -24 6 0 21 11 34 25 30
32 13 32 -20 -1z M280 1035 c-13 -14 -19 -25 -13 -25 12 0 48 38 41 45 -2 3
-15 -6 -28 -20z M233 1023 c-12 -15 -20 -29 -17 -32 5 -5 44 39 44 51 0 12 -3
10 -27 -19z M55 1029 c-11 -17 1 -21 15 -4 8 9 8 15 2 15 -6 0 -14 -5 -17 -11z
M185 1010 c-16 -17 -25 -30 -21 -30 11 0 59 51 53 56 -2 2 -16 -10 -32 -26z
M75 1010 c-10 -11 -16 -22 -13 -25 3 -3 13 4 23 15 10 11 16 22 13 25 -3 3
-13 -4 -23 -15z M85 983 c-22 -26 -34 -44 -26 -41 17 5 88 88 75 87 -5 0 -27
-21 -49 -46z M126 984 c-5 -14 -4 -15 9 -4 17 14 19 20 6 20 -5 0 -12 -7 -15
-16z M570 701 c-139 -47 -188 -109 -178 -223 6 -55 28 -92 78 -125 53 -37 94
-43 198 -33 52 6 98 7 104 4 6 -4 8 2 3 17 -10 33 -11 34 -61 31 -60 -2 -127
30 -153 73 -33 56 -31 116 4 150 34 35 75 33 108 -5 15 -16 32 -30 37 -30 19
0 50 35 61 68 9 29 8 35 -8 47 -30 22 -154 39 -193 26z M2171 695 c-74 -26
-103 -99 -58 -149 18 -22 34 -27 92 -32 83 -7 103 -16 111 -50 7 -26 -17 -92
-33 -95 -41 -8 -83 -4 -83 7 0 7 -8 10 -20 7 -26 -7 -47 11 -55 48 -4 17 -13
33 -20 35 -20 8 -52 -13 -67 -44 -7 -15 -30 -38 -51 -51 -39 -26 -47 -45 -22
-55 14 -5 108 -8 262 -8 122 0 180 33 189 109 5 40 -20 101 -47 114 -8 3 -30
14 -49 23 -23 11 -49 15 -76 11 -32 -4 -45 -1 -59 15 -28 31 -13 50 40 50 37
0 50 -5 68 -26 27 -31 46 -26 82 22 40 52 29 65 -51 60 -48 -3 -73 -1 -88 10
-11 8 -23 13 -26 13 -3 -1 -20 -7 -39 -14z M3230 682 c-62 -30 -94 -71 -104
-131 -19 -122 54 -216 188 -241 29 -6 53 -3 92 12 112 43 163 118 149 223 -8
69 -47 115 -123 144 -72 28 -134 26 -202 -7z m172 -59 c50 -57 58 -178 14
-221 -16 -16 -35 -24 -59 -24 -76 0 -117 52 -117 148 0 62 16 91 60 107 33 12
87 7 102 -10z M4700 695 c-14 -8 -33 -14 -43 -15 -10 0 -29 -11 -42 -25 -32
-31 -35 -97 -6 -122 31 -26 89 -42 140 -37 55 5 78 -8 87 -52 5 -26 0 -38 -24
-65 -25 -27 -33 -32 -43 -21 -7 6 -21 12 -32 12 -12 0 -23 11 -30 30 -9 23
-18 30 -37 30 -14 0 -29 -4 -35 -8 -19 -14 -35 -52 -35 -86 l0 -33 113 -5
c111 -5 150 1 195 30 19 12 22 23 22 73 0 40 -6 68 -19 90 -19 32 -67 63 -81
54 -5 -3 -11 -1 -15 5 -3 5 -19 10 -35 10 -36 0 -72 13 -94 35 -16 16 -16 18
0 36 24 27 52 24 104 -11 25 -16 48 -30 52 -30 13 0 48 79 38 85 -5 3 -35 10
-66 15 -31 5 -63 11 -72 14 -10 3 -28 -1 -42 -9z M64 692 c-7 -4 -12 -45 -13
-99 -1 -105 -11 -95 94 -97 47 -1 50 -3 56 -31 4 -16 7 -49 8 -72 1 -36 -2
-42 -21 -45 -13 -2 -23 -10 -23 -18 0 -11 16 -16 59 -20 127 -11 200 17 150
58 -12 9 -29 39 -38 66 -15 46 -15 50 2 62 16 12 15 13 -5 14 -18 0 -23 8 -28
38 -4 20 -11 52 -16 71 -4 19 -6 37 -4 42 8 12 -47 26 -115 28 -36 1 -72 4
-80 6 -8 3 -20 1 -26 -3z m93 -50 c7 -4 15 -27 18 -50 5 -38 3 -42 -21 -48
-14 -4 -36 -2 -49 4 -23 11 -24 12 -8 44 28 57 37 65 60 50z M943 692 c-76 -3
-86 -11 -58 -42 12 -13 17 -52 22 -149 6 -121 5 -133 -13 -145 -15 -12 -16
-16 -5 -29 10 -13 37 -16 144 -16 159 0 186 7 211 54 11 19 23 35 28 35 14 0
9 30 -6 36 -21 8 -56 -14 -66 -41 -9 -23 -13 -24 -89 -22 l-79 1 -4 36 c-1 19
-1 51 2 70 l5 35 23 -32 c24 -34 47 -43 54 -20 2 6 3 37 3 67 0 53 -1 55 -25
52 -14 -1 -33 -13 -42 -25 -17 -22 -18 -21 -18 29 0 56 9 64 71 64 24 0 27 -5
33 -45 8 -51 17 -60 45 -46 13 7 20 24 22 54 7 77 8 75 -94 79 -51 2 -125 2
-164 0z M2433 689 c-44 -16 -22 -43 36 -44 32 0 36 -5 75 -75 23 -42 56 -106
74 -143 l32 -68 -30 -11 c-20 -7 -30 -16 -28 -27 3 -16 23 -20 128 -24 l45 -2
3 44 c3 34 -1 48 -17 63 -12 10 -21 24 -21 30 0 16 60 108 71 108 5 0 16 -15
25 -32 10 -18 35 -57 56 -86 44 -59 40 -82 -13 -82 -31 0 -39 -20 -16 -37 15
-13 118 -23 147 -16 26 7 22 38 -5 38 -15 0 -19 6 -17 25 5 45 8 54 58 174 35
85 55 121 72 129 12 6 21 18 20 26 -3 13 -19 16 -78 17 -41 0 -81 -1 -87 -4
-24 -8 -13 -33 17 -39 37 -7 44 -16 31 -40 -5 -10 -18 -37 -28 -60 -10 -23
-20 -43 -23 -43 -3 0 -27 22 -53 49 -46 47 -48 48 -95 43 -56 -6 -65 -12 -87
-57 -9 -19 -20 -35 -24 -35 -11 0 -56 68 -65 98 -4 12 -11 22 -16 22 -5 0 -12
15 -15 33 l-6 32 -72 2 c-40 0 -82 -3 -94 -8z M3603 687 c-3 -4 1 -14 7 -23 8
-9 14 -68 17 -165 5 -146 4 -151 -16 -166 -37 -25 -9 -43 66 -43 50 0 65 4 70
16 4 10 0 22 -9 28 -12 9 -16 29 -16 74 0 61 0 62 27 62 29 0 72 -44 104 -107
23 -44 77 -75 124 -71 36 3 38 5 38 36 0 30 -6 37 -50 62 -27 15 -58 40 -67
56 -16 27 -16 29 6 51 43 43 51 150 15 188 -12 12 -309 14 -316 2z m239 -43
c13 -8 -1 -86 -17 -99 -7 -6 -31 -9 -54 -7 l-41 4 0 60 0 60 51 -6 c29 -4 56
-9 61 -12z M4045 692 c-3 -3 4 -14 16 -22 20 -16 21 -24 20 -165 -1 -116 -5
-152 -16 -165 -8 -9 -15 -24 -15 -33 0 -15 14 -17 105 -17 115 0 160 12 231
62 23 16 51 47 64 70 19 34 21 48 15 101 -8 76 -36 116 -102 148 -42 21 -64
24 -180 25 -72 1 -134 -1 -138 -4z m235 -68 c45 -25 70 -58 77 -104 3 -23 -27
-121 -36 -115 -4 2 -21 -9 -36 -25 -18 -19 -39 -30 -56 -30 -23 0 -27 5 -32
38 -7 48 -8 243 -1 254 9 14 35 9 84 -18z M1666 608 c-35 -29 -38 -35 -33 -70
3 -24 20 -59 45 -91 63 -85 68 -167 11 -201 -16 -9 -29 -23 -29 -31 0 -11 -58
-13 -357 -9 -197 3 -559 7 -805 10 l-448 5 0 -41 c0 -22 1 -40 3 -41 1 0 1103
-3 2450 -6 l2447 -6 0 31 0 31 -112 -3 c-125 -4 -114 -4 -358 -4 -96 0 -182
-1 -190 -2 -8 -2 -44 1 -80 5 -36 4 -74 7 -85 7 -11 -1 -236 -1 -500 -1 -264
-1 -631 -1 -815 -2 -184 0 -342 0 -350 1 -8 0 -170 3 -360 6 -190 3 -347 7
-349 10 -2 2 8 14 24 26 27 21 27 24 22 91 -3 38 -11 75 -18 83 -6 8 -9 17 -5
21 3 4 13 -3 22 -15 13 -18 19 -20 36 -11 16 8 19 17 14 40 -8 41 -35 79 -57
79 -20 0 -43 -33 -31 -45 4 -4 0 -6 -8 -3 -16 5 -68 90 -53 87 20 -4 33 2 42
20 8 14 5 23 -12 39 l-23 22 -38 -32z M660 515 c0 -8 5 -15 10 -15 6 0 10 7
10 15 0 8 -4 15 -10 15 -5 0 -10 -7 -10 -15z M1524 465 c-38 -17 -61 -64 -45
-94 44 -81 171 -58 171 31 0 42 -8 52 -49 66 -40 14 -37 14 -77 -3z m54 -59
c3 -15 1 -16 -17 -6 -12 6 -19 16 -15 21 9 15 28 5 32 -15z M805 380 c-3 -5
-1 -10 4 -10 6 0 11 5 11 10 0 6 -2 10 -4 10 -3 0 -8 -4 -11 -10z"/>
</g>
</svg>
