<?xml version="1.0" standalone="no"?>
<!DOCTYPE svg PUBLIC "-//W3C//DTD SVG 20010904//EN"
 "http://www.w3.org/TR/2001/REC-SVG-20010904/DTD/svg10.dtd">
<svg version="1.0" xmlns="http://www.w3.org/2000/svg"
 width="500.000000pt" height="878.000000pt" viewBox="0 0 500.000000 878.000000"
 preserveAspectRatio="xMidYMid meet">
<metadata>
Created by potrace 1.16, written by Peter Selinger 2001-2019
</metadata>
<g transform="translate(0.000000,878.000000) scale(0.100000,-0.100000)"
fill="#000000" stroke="none">
<path d="M2520 8712 c-34 -5 -56 -27 -97 -97 -29 -48 -36 -72 -39 -124 -3 -62
-14 -100 -14 -48 0 14 -5 29 -10 32 -6 4 -10 22 -8 40 3 42 -25 75 -62 75 -14
0 -31 5 -37 11 -6 6 -32 11 -57 11 -47 0 -76 -14 -76 -37 0 -7 -11 -24 -25
-39 -30 -33 -32 -67 -5 -91 11 -10 20 -23 20 -28 0 -6 10 -21 21 -34 l22 -22
-29 -12 c-16 -6 -56 -15 -89 -21 -58 -10 -63 -9 -100 16 -28 20 -49 26 -75 24
-30 -3 -35 0 -38 19 -5 35 -57 73 -91 67 -16 -4 -32 -1 -35 5 -12 19 -74 13
-96 -9 -27 -27 -25 -37 10 -70 17 -15 30 -32 30 -37 0 -4 -28 -9 -62 -9 -87
-1 -129 -21 -162 -78 -28 -48 -27 -72 2 -57 9 4 41 11 70 14 47 5 52 4 52 -13
0 -10 8 -24 18 -29 14 -9 12 -10 -13 -11 -16 0 -57 -15 -90 -34 -46 -25 -61
-39 -63 -59 -2 -18 -14 -30 -39 -42 -81 -39 -148 -131 -130 -179 9 -22 20 -20
51 9 39 37 50 31 22 -12 -47 -74 -56 -203 -13 -203 18 0 37 21 37 40 0 8 9 21
20 28 11 6 29 31 41 54 20 39 22 41 35 23 8 -10 14 -22 14 -27 0 -19 22 -6 40
25 17 27 19 43 14 107 l-6 75 27 -32 c17 -21 35 -33 51 -33 23 0 32 7 69 55
16 19 16 19 8 -5 -4 -14 -8 -49 -7 -77 1 -48 -1 -53 -21 -53 -35 0 -88 -42
-110 -86 -16 -34 -29 -45 -68 -59 -54 -19 -82 -50 -99 -108 -10 -34 -10 -41 5
-52 16 -12 16 -13 1 -26 -26 -21 -54 -89 -54 -130 0 -68 41 -70 98 -5 17 20
34 49 38 64 11 54 35 110 54 127 20 18 20 17 20 -19 0 -46 15 -76 38 -76 21 0
42 19 42 37 0 8 8 23 19 34 15 16 23 18 45 10 14 -6 26 -13 26 -15 0 -3 -11
-22 -25 -43 -45 -65 -16 -135 36 -87 12 11 19 13 19 5 0 -24 -24 -57 -96 -132
-60 -62 -74 -83 -74 -108 0 -35 25 -91 40 -91 6 0 23 21 40 48 34 56 67 81 76
58 3 -9 14 -18 25 -21 16 -5 18 -13 12 -53 -4 -37 -12 -52 -37 -72 -67 -53
-88 -79 -81 -101 5 -15 0 -29 -18 -47 -47 -49 -62 -126 -31 -157 16 -15 20
-14 56 22 22 21 47 52 56 68 22 41 28 10 8 -40 -9 -21 -16 -49 -16 -64 0 -14
-7 -35 -15 -45 -8 -11 -15 -28 -15 -37 0 -10 -5 -30 -11 -46 l-10 -28 -17 28
c-19 31 -47 35 -80 11 -33 -23 -29 -66 8 -98 29 -24 30 -27 16 -54 -19 -38
-41 -145 -33 -165 8 -21 40 -22 57 -2 17 21 27 19 33 -6 10 -37 -12 -69 -48
-69 -51 0 -81 -49 -56 -89 9 -13 36 -12 72 3 13 6 19 -3 28 -41 16 -62 59
-141 85 -155 16 -9 23 -6 38 12 27 34 24 111 -7 159 -32 52 -42 91 -23 91 23
0 47 32 56 76 7 33 10 36 16 18 7 -22 31 -34 54 -27 18 7 16 134 -4 183 -15
38 -15 42 0 59 34 38 13 142 -41 202 -35 39 -35 39 -28 107 6 61 18 92 34 92
3 0 6 -25 6 -55 0 -43 5 -59 22 -76 18 -19 25 -20 37 -10 9 7 15 20 13 29 -3
27 14 102 23 102 4 0 11 10 15 23 6 22 7 21 15 -5 4 -15 17 -40 29 -57 19 -26
24 -28 45 -18 18 9 25 21 28 52 7 66 -15 150 -51 195 -18 22 -39 57 -48 78 -8
20 -21 41 -29 45 -8 4 -14 17 -14 27 0 30 -22 72 -52 102 -21 19 -28 36 -28
63 0 22 4 34 10 30 18 -11 43 65 37 115 l-5 45 23 -27 c19 -22 22 -35 19 -89
-4 -85 11 -155 41 -195 31 -41 62 -52 83 -30 14 14 15 25 5 82 -7 37 -26 96
-44 132 l-31 64 28 23 c24 19 26 25 15 38 -7 9 -21 19 -31 22 -10 3 -23 18
-29 33 -5 15 -16 34 -23 43 -18 22 -90 57 -105 52 -7 -3 -13 0 -13 6 0 17 19
22 41 10 17 -8 24 -8 34 3 20 19 24 116 8 162 -11 34 -11 41 2 56 30 34 11 78
-42 94 -39 12 -46 32 -18 50 14 9 25 23 25 31 0 8 4 15 10 15 17 0 30 -38 24
-69 -6 -29 -4 -32 39 -51 37 -17 46 -26 51 -54 9 -47 37 -80 91 -105 26 -12
46 -28 46 -39 4 -49 -4 -119 -16 -132 -24 -29 -26 -69 -6 -130 22 -68 55 -120
76 -120 18 0 46 120 44 190 -1 30 2 81 6 113 l8 59 31 -6 c17 -3 58 -8 91 -11
32 -3 61 -8 63 -10 2 -2 -1 -169 -8 -371 -6 -202 -11 -392 -9 -423 1 -31 -1
-85 -4 -121 -4 -36 -9 -207 -12 -380 -7 -424 -14 -749 -20 -900 -3 -69 -7
-213 -10 -320 -13 -504 -20 -692 -30 -800 -2 -19 -4 -45 -4 -58 -1 -15 -12
-29 -31 -40 -33 -19 -41 -39 -26 -64 7 -12 3 -25 -17 -51 -15 -20 -27 -42 -27
-51 0 -8 -11 -51 -25 -95 -19 -59 -31 -81 -43 -82 -9 -1 -62 -1 -116 0 -64 1
-104 -3 -114 -11 -11 -10 -17 -8 -28 7 -11 14 -54 27 -172 52 -198 43 -194 42
-214 25 -16 -13 -18 -35 -18 -179 0 -96 -4 -172 -11 -184 -5 -11 -7 -29 -4
-40 9 -26 51 -53 67 -43 7 5 24 10 38 11 14 2 57 10 95 18 126 26 305 45 305
33 0 -4 -11 -8 -24 -8 -28 0 -103 -50 -167 -111 -93 -90 -160 -149 -168 -149
-5 0 -14 13 -19 29 -14 41 -83 106 -125 120 l-35 12 5 59 c4 44 1 69 -12 97
-10 21 -21 40 -24 43 -3 3 -12 13 -20 23 -12 15 -11 21 9 42 36 38 51 151 30
226 -12 43 -78 122 -120 143 -16 8 -47 17 -69 21 l-39 6 25 57 c47 106 59 258
28 353 -49 149 -139 260 -259 319 -58 29 -79 34 -164 38 -204 9 -369 -72 -447
-219 -25 -48 -28 -65 -29 -154 -1 -90 2 -105 26 -151 28 -53 27 -64 -3 -64
-47 0 -117 -99 -134 -190 -6 -33 3 -91 20 -133 6 -13 4 -18 -6 -16 -18 4 -87
-9 -121 -23 -21 -8 -28 -17 -28 -39 l0 -28 43 18 c45 20 142 28 151 13 3 -5
-20 -12 -52 -16 -38 -5 -71 -16 -97 -34 -34 -24 -40 -34 -43 -67 l-2 -40 21
28 c35 46 93 77 144 77 32 0 45 4 45 14 0 8 7 16 15 20 19 7 20 50 1 65 -18
15 -51 119 -48 151 8 72 51 136 109 161 l43 18 63 -34 c57 -31 92 -39 155 -36
39 2 24 19 -25 26 -57 8 -143 56 -179 98 -51 60 -65 107 -58 189 8 92 22 126
79 193 37 43 62 60 123 87 73 31 83 33 202 33 117 0 128 -2 177 -28 67 -35
160 -127 194 -192 30 -58 63 -154 56 -161 -3 -3 -10 12 -17 33 -25 78 -121
203 -180 233 -51 26 -93 30 -98 8 -2 -11 8 -20 35 -29 78 -25 155 -131 179
-246 26 -123 24 -190 -9 -238 -30 -44 -34 -65 -14 -65 15 0 39 24 51 50 20 43
36 64 36 48 0 -21 -35 -85 -63 -115 -19 -22 -19 -24 -3 -42 10 -11 37 -21 73
-25 108 -13 183 -100 183 -213 -1 -49 -9 -70 -46 -116 -34 -42 -51 -34 -71 29
-35 113 -139 162 -296 140 -70 -9 -128 -34 -159 -67 -13 -13 -41 -38 -63 -54
-22 -16 -56 -44 -75 -62 -19 -18 -39 -33 -46 -33 -6 0 -16 -11 -22 -25 -14
-31 -45 -32 -90 -5 -49 30 -72 75 -72 143 0 32 6 70 14 85 18 35 69 82 126
118 83 51 181 31 244 -48 24 -31 46 -31 46 -1 0 8 -14 32 -30 53 -43 54 -101
74 -214 74 -106 1 -128 -8 -198 -80 -62 -63 -80 -135 -51 -204 6 -14 13 -42
17 -62 10 -53 64 -103 132 -123 30 -9 60 -13 66 -9 8 5 9 -4 5 -32 -4 -21 -7
-49 -7 -61 0 -18 -6 -23 -26 -23 -45 0 -168 -32 -216 -56 -25 -13 -74 -47
-109 -76 l-62 -52 -38 22 c-49 28 -51 28 -47 -9 3 -31 13 -41 51 -53 17 -5 17
-7 1 -38 -35 -68 -54 -161 -54 -266 0 -56 4 -110 10 -120 5 -9 14 -35 20 -57
12 -50 74 -156 117 -200 18 -19 33 -38 33 -42 0 -4 -12 -21 -26 -37 l-25 -28
-44 16 c-24 10 -49 24 -55 32 -20 23 -30 16 -30 -20 0 -41 13 -53 68 -62 l43
-7 -6 -41 c-18 -134 6 -235 78 -316 99 -112 366 -155 510 -83 26 13 30 12 63
-16 19 -17 40 -31 47 -32 7 0 21 -2 31 -4 11 -2 39 3 63 11 28 10 49 12 60 5
10 -5 50 -13 88 -17 187 -22 305 12 420 120 54 51 95 117 95 153 0 17 4 34 9
37 4 3 41 -4 82 -16 66 -19 100 -21 311 -22 l237 -1 8 -30 c6 -21 5 -39 -5
-58 -19 -38 -20 -129 -2 -152 8 -9 33 -35 55 -56 90 -88 242 -72 296 31 24 44
25 130 2 173 -12 23 -16 51 -14 97 1 36 4 67 6 69 3 2 51 5 107 6 57 1 121 7
144 14 58 16 158 112 174 169 7 23 19 42 26 42 18 0 59 58 72 100 6 19 14 63
17 98 6 54 10 62 28 62 11 0 40 9 64 21 38 18 45 27 57 72 8 29 18 82 21 118
6 57 4 69 -12 85 -54 55 -57 63 -39 83 19 21 33 120 21 148 -5 10 -8 21 -7 25
2 10 -57 51 -112 77 -53 26 -150 50 -203 51 -24 0 -32 4 -31 18 1 26 -18 68
-43 93 l-21 21 63 -6 c312 -33 466 -58 516 -83 50 -25 53 -25 78 -9 15 10 24
20 21 23 -20 21 -192 65 -301 78 -27 3 -63 9 -80 12 -16 3 -39 7 -50 8 -11 1
-54 6 -95 10 -41 4 -78 9 -81 11 -6 3 -174 10 -439 18 -254 8 -609 -20 -815
-64 -157 -34 -189 -38 -205 -29 -12 7 -10 8 7 9 12 0 28 6 35 13 7 8 20 12 30
9 22 -5 30 26 32 127 1 61 -2 76 -14 76 -11 0 -17 -15 -21 -55 -5 -49 -6 -45
-7 33 -2 78 -4 88 -19 85 -9 -2 -20 -14 -24 -28 -5 -19 -7 -14 -8 21 l-1 46
103 -19 c56 -10 125 -21 152 -24 28 -3 52 -7 55 -9 3 -2 113 -6 245 -9 367 -9
584 -17 608 -22 37 -7 436 -2 557 7 40 3 152 22 213 36 37 8 71 12 75 8 4 -3
8 -76 10 -161 3 -149 4 -156 25 -163 12 -5 25 -7 29 -4 9 5 13 112 11 282 -1
102 -5 127 -19 140 -13 12 -17 13 -21 3 -3 -8 -9 -10 -16 -4 -8 6 -40 -4 -92
-30 -112 -55 -159 -63 -418 -74 -190 -8 -170 -21 -192 124 -12 83 -18 98 -41
117 -21 17 -25 25 -17 39 18 32 4 64 -34 77 l-34 11 5 251 c5 242 16 1779 19
2701 l2 440 25 2 c14 0 57 4 96 8 l71 8 -5 -95 c-4 -87 -3 -96 17 -116 13 -13
21 -34 21 -56 0 -44 16 -51 64 -31 57 24 78 117 36 161 -15 16 -21 39 -24 92
l-3 71 46 17 c57 22 88 49 107 95 19 44 42 70 64 70 31 0 50 32 43 73 -5 33
-2 40 31 69 26 22 34 37 30 50 -5 18 19 68 34 68 4 0 7 -12 8 -27 0 -33 13
-148 19 -183 11 -61 14 -200 6 -274 -6 -45 -17 -146 -26 -226 -8 -80 -25 -217
-36 -305 -32 -242 -35 -351 -11 -465 21 -101 47 -190 80 -280 46 -124 90 -290
97 -360 10 -108 -7 -184 -68 -303 -56 -109 -63 -155 -44 -269 15 -83 22 -101
54 -125 l32 -24 15 24 c9 13 21 61 27 107 5 46 14 90 18 99 4 9 7 30 6 46 -2
17 6 44 16 61 10 17 23 48 28 70 l9 39 1 -35 c0 -19 -6 -57 -14 -84 -16 -52
-7 -80 20 -69 17 6 61 95 82 165 13 46 12 148 -2 198 -3 8 11 30 30 49 19 19
35 42 35 51 0 10 7 35 16 56 19 46 14 119 -15 212 -10 34 -17 62 -15 62 2 0
16 -25 29 -55 18 -38 31 -55 44 -55 26 0 31 19 26 107 -5 74 -39 188 -72 240
-10 14 -11 23 -4 28 21 12 10 63 -31 146 -23 46 -60 109 -83 139 -84 112 -139
220 -133 262 2 18 10 10 38 -46 19 -37 51 -87 71 -109 30 -34 39 -39 62 -33
21 5 27 12 27 34 0 26 3 28 34 24 45 -5 56 21 23 57 -34 38 -79 101 -72 101 4
0 26 -13 50 -30 24 -16 48 -30 54 -30 18 0 12 30 -12 63 -13 18 -38 58 -56 90
l-32 57 26 0 c41 0 49 38 24 113 -11 34 -31 78 -45 98 -28 41 -31 58 -6 37 30
-26 92 -58 112 -58 35 0 31 19 -12 67 -52 56 -78 96 -78 118 0 11 9 6 31 -15
18 -16 36 -30 41 -30 22 0 48 22 48 40 0 29 -35 82 -75 111 l-35 26 46 6 c87
9 85 42 -6 88 -29 15 -74 30 -98 34 -54 8 -45 18 29 34 56 12 103 43 96 64 -2
6 -21 16 -42 24 -21 7 -40 15 -43 17 -2 3 8 24 22 49 14 24 26 51 26 60 0 23
-37 32 -56 13 -8 -9 -16 -16 -17 -16 -1 0 -3 33 -5 73 -3 64 -6 74 -30 95 -15
12 -33 20 -39 17 -7 -3 -20 -8 -28 -11 -12 -5 -14 0 -9 25 7 33 -3 101 -14
101 -4 0 -19 -27 -34 -59 -32 -68 -55 -86 -51 -37 6 58 -20 65 -113 29 -8 -3
-14 1 -14 10 0 8 -6 20 -14 26 -11 9 -18 8 -30 -4 -15 -15 -16 -15 -16 4 0 14
-13 27 -39 41 -22 11 -42 16 -45 12 -2 -4 -4 -35 -3 -69 1 -34 -1 -64 -5 -68
-4 -4 -18 5 -31 20 -31 36 -47 26 -47 -31 0 -24 -4 -52 -9 -62 -6 -9 -20 -38
-32 -64 -12 -27 -27 -48 -32 -48 -5 0 -29 10 -53 21 l-43 22 32 21 c22 15 33
31 35 51 2 17 8 34 13 40 21 21 9 60 -26 84 -19 13 -35 28 -35 34 0 37 -83 48
-123 17 -14 -11 -29 -19 -34 -18 -17 4 -51 -13 -58 -30 -15 -35 -15 -78 0
-114 14 -35 13 -38 -5 -48 -10 -5 -21 -10 -24 -10 -3 0 -6 38 -6 84 0 83 -1
85 -37 130 -21 24 -42 45 -47 45 -5 1 -18 11 -30 24 -34 35 -49 43 -76 39z m3
-244 c9 -6 9 -10 1 -15 -6 -5 -11 -23 -12 -42 0 -18 -2 -35 -4 -37 -2 -2 -21
2 -41 8 l-37 11 4 78 c3 52 12 91 26 120 41 82 45 80 48 -22 2 -59 7 -96 15
-101z m111 123 c14 -13 26 -33 26 -45 1 -11 2 -52 3 -91 l2 -70 -47 -9 c-27
-5 -50 -7 -52 -5 -6 6 -8 61 -7 183 l1 109 24 -24 c13 -13 35 -35 50 -48z
m286 -21 c4 -16 12 -24 22 -22 9 1 24 -8 32 -20 15 -21 15 -24 -1 -36 -12 -8
-18 -26 -18 -50 0 -35 -2 -37 -33 -38 -61 -1 -65 -34 -7 -67 12 -6 40 -22 62
-34 76 -42 254 -63 317 -38 17 7 16 3 -7 -36 -13 -24 -23 -50 -20 -56 6 -17
-2 -16 -40 4 -46 24 -282 88 -362 99 -16 2 -85 12 -153 22 -149 22 -371 17
-562 -14 -72 -12 -238 -53 -291 -73 -30 -12 -55 -21 -56 -21 -2 0 -3 12 -3 28
0 18 -13 40 -39 67 -21 22 -36 46 -33 54 6 16 -35 50 -60 51 -18 0 -42 33 -32
43 8 7 35 -3 52 -20 9 -9 20 -10 38 -3 33 13 47 4 40 -25 -4 -16 -1 -25 10
-29 10 -4 14 -12 10 -23 -4 -9 1 -24 10 -34 22 -24 91 -25 205 -3 46 9 96 18
112 20 73 9 132 84 67 84 -14 0 -19 6 -17 22 1 15 -4 23 -18 26 -19 4 -35 19
-35 34 0 4 11 19 25 34 14 15 25 33 25 41 0 16 39 33 58 25 7 -2 11 -11 8 -18
-8 -21 13 -27 38 -11 30 20 47 5 39 -34 -3 -16 0 -35 7 -43 6 -9 9 -24 5 -36
-9 -28 23 -56 89 -76 59 -17 248 -17 335 0 68 14 83 34 59 77 -22 38 -23 59
-3 59 20 0 19 17 0 28 -24 13 -7 42 24 42 14 0 35 7 46 16 27 20 48 14 55 -16z
m333 -55 c-7 -21 -13 -19 -13 6 0 11 4 18 10 14 5 -3 7 -12 3 -20z m157 -5
c-15 -27 -3 -43 26 -36 13 4 24 2 24 -3 0 -11 -16 -17 -73 -27 l-37 -6 22 45
c13 25 29 46 36 47 10 0 10 -5 2 -20z m-99 -27 c-10 -17 -10 -16 -11 3 0 23
13 41 18 25 2 -6 -1 -18 -7 -28z m219 23 c0 -3 -4 -8 -10 -11 -5 -3 -10 -1
-10 4 0 6 5 11 10 11 6 0 10 -2 10 -4z m-291 -63 c-5 -14 -16 -31 -24 -40 -23
-23 -7 -36 36 -29 45 7 49 -2 13 -33 -22 -19 -24 -24 -12 -38 12 -15 8 -16
-42 -10 -30 4 -66 7 -79 7 -20 0 -22 2 -11 15 7 9 19 14 27 11 8 -3 12 -2 8 3
-3 5 11 33 30 63 20 29 38 64 42 76 4 17 8 20 13 11 5 -7 4 -23 -1 -36z m331
-2 c0 -15 -81 -99 -101 -104 -20 -5 -20 -5 -3 16 10 12 25 28 33 34 8 7 15 23
17 35 1 13 3 24 3 24 3 5 51 0 51 -5z m-130 -34 c0 -8 -8 -21 -17 -29 -23 -19
-73 -32 -73 -18 0 5 0 13 0 18 0 4 12 7 27 7 14 1 31 9 37 18 13 20 26 22 26
4z m203 -11 c-3 -13 -14 -27 -25 -29 -18 -5 -19 -4 -4 12 9 10 16 23 16 29 0
7 4 12 9 12 4 0 6 -11 4 -24z m-1759 -62 c27 -10 18 -21 -14 -16 -16 2 -30 8
-30 13 0 10 21 12 44 3z m1456 -15 c0 -7 10 -9 26 -5 18 5 25 3 22 -6 -5 -14
-75 -21 -83 -7 -4 5 -3 14 0 19 8 14 35 13 35 -1z m-1760 -20 c-13 -6 -33 -17
-43 -26 -25 -23 -79 -27 -75 -5 5 24 47 42 98 41 40 0 42 -1 20 -10z m2005 -9
c-9 -10 -32 -24 -49 -30 -17 -5 -37 -19 -43 -29 -11 -17 -9 -21 10 -27 12 -4
56 -8 97 -9 84 -2 143 -22 114 -38 -11 -6 -19 -5 -25 4 -7 11 -9 11 -9 -2 0
-12 -13 -18 -48 -23 -27 -3 -57 -13 -68 -21 -10 -8 -29 -15 -42 -15 -26 0 -40
-26 -24 -42 6 -6 50 -13 97 -15 59 -2 101 -10 131 -24 55 -24 49 -44 -6 -24
-22 8 -40 12 -40 8 0 -3 -7 0 -14 7 -19 15 -121 3 -137 -17 -18 -20 -1 -32 51
-34 59 -3 174 -69 197 -113 15 -30 15 -30 -19 7 -37 39 -51 42 -148 37 -25 -1
-50 -6 -56 -11 -18 -15 -5 -47 21 -53 22 -6 50 -59 40 -76 -7 -11 25 -101 47
-132 24 -35 61 -118 55 -124 -2 -3 -21 20 -42 51 -20 31 -35 58 -33 61 6 6
-74 88 -107 110 -26 17 -27 17 -53 -10 -21 -21 -23 -25 -8 -20 13 5 17 4 13
-3 -4 -6 -1 -24 7 -40 8 -15 27 -82 41 -148 36 -160 81 -310 100 -325 8 -7 15
-19 15 -27 0 -47 -105 139 -113 201 -3 21 -11 43 -19 47 -10 7 -10 9 0 9 18 0
5 61 -18 85 -19 18 -21 18 -37 2 -11 -10 -17 -31 -16 -54 5 -166 31 -272 88
-355 19 -28 35 -59 35 -70 0 -10 4 -17 9 -14 20 13 141 -191 141 -237 0 -20
-2 -20 -32 10 -17 17 -32 44 -34 59 -2 15 -7 30 -12 33 -5 3 -17 22 -27 41
-10 19 -30 53 -45 75 -15 22 -41 65 -57 95 -28 52 -32 55 -69 55 -55 0 -55
-23 -3 -124 35 -66 65 -105 146 -186 55 -56 113 -122 128 -145 38 -60 75 -164
74 -208 0 -20 -3 -30 -6 -22 -3 8 -14 26 -24 41 -9 14 -39 65 -65 115 -25 49
-65 113 -88 142 -22 30 -55 72 -73 95 -28 36 -37 42 -71 42 -36 1 -38 -1 -40
-31 -3 -42 24 -86 76 -124 48 -35 51 -39 20 -33 -13 2 -32 -2 -42 -10 -38 -28
-22 -115 42 -232 11 -20 17 -56 18 -110 0 -64 6 -91 27 -136 32 -67 34 -78 7
-54 -11 10 -17 22 -14 26 3 5 -4 9 -15 9 -18 0 -25 9 -23 31 1 8 -44 157 -68
224 -11 33 -19 68 -16 78 2 9 1 15 -3 13 -4 -3 -13 10 -20 27 -7 18 -17 40
-22 50 -6 11 -8 21 -5 24 2 3 -2 24 -10 46 -9 23 -18 62 -22 87 -11 74 -7 309
7 400 18 113 19 122 27 220 3 47 8 88 11 93 2 4 6 42 8 85 2 42 8 99 14 125
12 49 17 300 7 316 -3 5 -8 41 -10 80 -2 39 -6 74 -10 78 -3 3 -6 23 -6 44 0
20 -5 40 -10 42 -6 3 -5 4 2 3 6 -1 19 5 29 15 10 10 26 15 40 12 13 -2 49 5
79 16 30 11 57 20 59 20 2 1 -4 -8 -14 -19z m119 -2 c-8 -22 -54 -50 -72 -45
-12 3 -7 9 20 20 20 9 39 21 43 27 9 14 15 12 9 -2z m-889 -37 c156 -29 179
-34 220 -51 11 -5 43 -16 70 -26 53 -18 115 -59 115 -75 0 -5 -16 -9 -35 -9
-24 0 -37 -6 -45 -19 -14 -27 -13 -68 3 -74 8 -3 9 -8 2 -15 -7 -8 -26 -1 -63
24 -53 36 -92 46 -315 83 -68 12 -406 15 -502 5 -93 -9 -190 -34 -248 -62 -50
-25 -59 -27 -70 -14 -9 12 -9 16 1 19 6 3 12 16 12 31 0 42 -51 83 -62 50 -3
-8 -12 -1 -22 15 -22 32 -16 52 16 60 13 3 75 19 138 36 63 17 138 31 165 32
28 1 64 4 80 8 17 4 109 8 205 9 158 3 191 0 335 -27z m-1189 -6 c-22 -17 -36
-19 -36 -7 0 14 12 22 34 22 21 -1 21 -1 2 -15z m-61 -122 c-16 -8 -37 -22
-46 -29 -11 -10 -23 -12 -40 -6 l-23 9 21 12 c20 10 85 28 108 30 6 0 -3 -7
-20 -16z m125 -43 c0 -11 0 -23 1 -27 0 -4 -3 -9 -8 -10 -5 -2 -10 10 -11 27
-1 16 2 30 8 30 5 0 10 -9 10 -20z m228 -4 c2 -10 -1 -23 -7 -29 -16 -16 -34
6 -26 33 8 24 28 22 33 -4z m-320 -52 c15 -8 20 -14 12 -19 -6 -4 -17 -1 -25
5 -8 7 -26 10 -40 8 -28 -6 -31 2 -14 35 19 36 33 39 39 9 3 -14 16 -32 28
-38z m1031 40 l31 -7 -5 -1206 c-4 -1014 -13 -1982 -20 -2276 -1 -38 -3 -103
-3 -142 -1 -40 -5 -73 -9 -73 -5 0 -19 19 -32 43 -13 23 -37 59 -53 80 l-30
37 6 208 c9 324 16 853 21 1662 7 997 14 1575 21 1633 7 51 11 53 73 41z
m-255 -13 c4 -5 3 -17 0 -26 -6 -14 -15 -15 -58 -9 -66 9 -97 20 -76 28 42 15
127 20 134 7z m132 -178 c-4 -104 -9 -550 -11 -993 -3 -443 -8 -938 -12 -1100
-3 -162 -6 -332 -6 -377 0 -46 -4 -83 -8 -83 -16 0 -9 -28 8 -35 16 -6 15 -8
-6 -24 -21 -16 -22 -19 -6 -34 14 -15 15 -17 1 -17 -20 0 -20 -14 -1 -30 18
-15 20 -57 3 -63 -10 -3 -10 -9 -1 -25 10 -16 10 -27 1 -46 -8 -19 -8 -29 0
-39 7 -8 9 -17 5 -21 -12 -11 -12 -70 -1 -83 6 -8 3 -15 -8 -21 -15 -9 -16
-12 -5 -26 12 -14 11 -19 -3 -29 -16 -12 -16 -14 -2 -26 23 -19 20 -58 -4 -66
-26 -8 -26 -31 0 -38 26 -7 26 -27 1 -27 -37 0 -35 -30 3 -43 23 -9 13 -21
-16 -22 -31 0 -34 -23 -4 -35 38 -14 32 -23 -10 -15 -35 6 -36 5 -32 -19 4
-18 0 -26 -15 -30 -12 -3 -17 -10 -14 -20 3 -8 -1 -17 -9 -20 -11 -4 -13 -13
-9 -27 5 -14 3 -19 -3 -15 -6 4 -16 -2 -22 -11 -9 -14 -10 -3 -5 48 3 37 8
154 10 260 3 107 7 230 10 274 2 44 7 175 10 290 3 116 7 266 10 335 7 165 13
427 20 800 3 168 7 384 10 480 3 96 7 272 10 390 3 118 8 262 10 320 2 58 7
183 11 278 l7 172 44 0 45 0 -6 -187z m296 176 c112 -17 119 -19 113 -29 -3
-6 -15 -10 -26 -10 -10 0 -19 -4 -19 -9 0 -6 -8 -10 -17 -9 -10 0 -46 -3 -80
-6 -34 -3 -64 -2 -66 2 -7 12 5 72 14 72 5 0 41 -5 81 -11z m412 -5 c8 -20 -1
-34 -20 -34 -8 0 -14 8 -14 18 0 33 23 44 34 16z m-1017 -28 c12 -13 46 -30
75 -39 29 -8 43 -16 31 -16 -38 -2 -166 56 -158 70 10 15 29 10 52 -15z m-747
5 c0 -5 -23 -17 -51 -26 -36 -12 -56 -26 -68 -46 -15 -27 -39 -44 -48 -35 -11
11 72 86 110 100 51 18 57 18 57 7z m291 -8 c13 -16 12 -17 -3 -4 -10 7 -18
15 -18 17 0 8 8 3 21 -13z m364 -19 c9 -14 20 -57 24 -95 8 -77 -8 -227 -24
-219 -6 3 -8 12 -6 20 3 8 6 66 7 129 2 82 -1 124 -12 149 -21 52 -17 58 11
16z m879 20 c21 -8 20 -22 -5 -97 -15 -45 -21 -85 -20 -149 1 -70 -2 -88 -13
-88 -12 0 -14 15 -10 78 8 165 19 262 29 262 2 0 10 -3 19 -6z m-1481 -29 c-3
-9 -8 -14 -10 -11 -3 3 -2 9 2 15 9 16 15 13 8 -4z m315 -4 c3 -8 -1 -12 -9
-9 -7 2 -15 10 -17 17 -3 8 1 12 9 9 7 -2 15 -10 17 -17z m-52 -48 c20 -26 17
-39 -4 -20 -24 22 -38 21 -62 -3 l-20 -20 0 49 0 49 36 -18 c20 -11 42 -27 50
-37z m285 30 c5 -15 9 -40 7 -56 l-3 -29 -27 22 c-29 23 -36 58 -16 78 18 18
27 15 39 -15z m-491 1 c0 -8 -4 -12 -10 -9 -5 3 -10 10 -10 16 0 5 5 9 10 9 6
0 10 -7 10 -16z m1534 -53 c-8 -32 -31 -57 -63 -66 -22 -7 -23 -5 -16 27 4 18
11 38 15 43 4 6 10 23 14 39 l7 29 24 -23 c19 -17 23 -30 19 -49z m-200 49
c-10 -10 -133 -39 -166 -40 -10 0 -18 5 -18 10 0 6 17 10 38 11 20 0 60 7 87
14 65 17 71 17 59 5z m-678 -9 c5 -4 42 -18 83 -30 l73 -22 -6 -42 c-4 -23 -8
-42 -9 -43 -4 -3 -167 33 -172 38 -3 3 -8 28 -11 57 -5 45 -3 51 13 51 11 0
23 -4 29 -9z m682 -97 l3 -51 -90 -7 c-50 -4 -95 -5 -101 -1 -5 3 -10 22 -10
40 0 40 20 55 77 56 21 1 49 5 63 9 46 15 55 9 58 -46z m-1095 -34 c5 -44 5
-45 -9 -15 -15 33 -19 101 -5 75 5 -8 11 -35 14 -60z m1867 12 c0 -22 36 -90
63 -119 11 -13 17 -23 12 -23 -5 0 -23 16 -41 35 -43 47 -70 125 -44 125 6 0
10 -8 10 -18z m-2324 -20 c-1 -15 -10 -41 -20 -57 l-17 -30 6 39 c5 32 24 76
32 76 2 0 1 -12 -1 -28z m394 8 c0 -5 -2 -10 -4 -10 -3 0 -8 5 -11 10 -3 6 -1
10 4 10 6 0 11 -4 11 -10z m-143 -57 c4 -12 -46 -48 -54 -39 -3 3 2 17 11 31
17 26 36 29 43 8z m133 -9 c0 -8 -4 -12 -10 -9 -5 3 -10 13 -10 21 0 8 5 12
10 9 6 -3 10 -13 10 -21z m-51 -43 c-13 -4 -15 -2 -23 29 l-7 25 20 -25 c11
-14 15 -27 10 -29z m-21 -53 c18 -18 15 -28 -8 -28 -13 0 -20 7 -20 20 0 23
10 26 28 8z m-167 -13 c0 -6 -13 -13 -28 -16 -15 -4 -37 -10 -48 -14 -20 -8
-20 -8 -1 13 24 27 78 39 77 17z m357 -37 c-2 -9 -10 -1 -20 20 l-17 36 20
-21 c12 -11 19 -27 17 -35z m256 17 c18 -27 19 -110 2 -110 -10 0 -46 92 -46
118 0 25 25 21 44 -8z m1466 -23 c0 -7 13 -30 28 -50 16 -20 41 -68 57 -107
15 -38 39 -85 52 -102 36 -49 15 -40 -38 17 -26 28 -49 64 -53 80 -3 17 -15
43 -27 59 -12 16 -25 48 -29 72 -5 24 -12 53 -16 64 l-7 20 16 -20 c9 -11 17
-26 17 -33z m-2010 -33 c-16 -35 -19 -38 -15 -14 9 46 29 93 33 74 1 -8 -6
-35 -18 -60z m190 18 c25 -50 36 -112 22 -121 -8 -5 -62 136 -62 164 0 21 20
-1 40 -43z m1248 38 c9 -9 11 -72 3 -85 -11 -16 -16 -12 -57 46 -21 31 -8 57
25 49 14 -4 27 -8 29 -10z m-1293 -145 c3 -5 2 -10 -4 -10 -5 0 -13 5 -16 10
-3 6 -2 10 4 10 5 0 13 -4 16 -10z m-332 -32 c-8 -43 -35 -97 -40 -81 -8 22
27 113 43 113 2 0 1 -15 -3 -32z m550 -75 c8 -27 18 -64 21 -83 6 -34 5 -34
-19 13 -21 41 -35 117 -21 117 3 0 11 -21 19 -47z m-237 -115 c-9 -12 -16 -17
-16 -10 0 19 -13 13 -34 -15 -12 -16 -14 -23 -5 -18 8 5 -2 -8 -21 -28 -19
-20 -36 -37 -37 -37 -2 0 -3 9 -3 19 0 25 124 147 128 126 2 -8 -4 -25 -12
-37z m2038 -84 c8 -23 -66 52 -83 84 -7 13 7 4 32 -22 24 -24 47 -52 51 -62z
m-1928 70 c4 -14 2 -35 -4 -47 -11 -21 -11 -20 -6 4 3 15 1 30 -5 33 -14 9
-14 36 -1 36 5 0 13 -12 16 -26z m-56 -40 c0 -8 -4 -14 -9 -14 -11 0 -22 26
-14 34 9 9 23 -3 23 -20z m53 -131 c5 -7 15 -13 23 -13 16 0 19 -50 5 -78 -5
-9 -17 -34 -27 -55 l-19 -38 -8 43 c-4 24 -7 49 -7 56 0 6 1 22 1 35 0 12 3
51 7 87 l6 65 6 -45 c3 -25 9 -51 13 -57z m1716 -79 c55 -90 64 -127 13 -52
-28 42 -72 122 -72 133 0 13 11 -1 59 -81z m-1557 -92 c-7 -36 -18 -8 -26 63
l-6 60 18 -50 c10 -27 16 -60 14 -73z m-265 64 c-7 -18 -47 -41 -47 -27 0 12
42 53 48 46 2 -2 2 -11 -1 -19z m149 -67 c-32 -55 -34 -36 -3 27 12 25 23 40
25 32 1 -8 -9 -34 -22 -59z m-105 14 c-9 -16 -10 -14 -11 12 0 21 3 26 11 18
8 -8 8 -16 0 -30z m-97 -60 c-4 -16 -20 -48 -36 -73 -16 -25 -27 -36 -25 -25
3 11 8 34 12 50 5 25 40 75 52 75 2 0 0 -12 -3 -27z m1877 -69 c31 -34 32 -35
6 -19 -23 15 -56 55 -44 55 2 0 19 -16 38 -36z m93 -110 c3 -8 2 -12 -4 -9 -6
3 -10 10 -10 16 0 14 7 11 14 -7z m-1860 -46 c18 -42 32 -122 16 -95 -6 9 -20
42 -30 72 -20 59 -10 76 14 23z m1826 -85 c17 -35 30 -68 27 -75 -3 -11 -77
131 -77 149 0 14 19 -14 50 -74z m-2029 -26 c-14 -14 -26 17 -16 41 6 15 8 14
16 -7 6 -16 6 -28 0 -34z m2177 -172 c11 -38 15 -73 11 -95 -3 -19 -7 -28 -8
-20 -1 8 -8 28 -16 44 -9 16 -25 65 -36 110 -11 45 -27 100 -35 124 -8 23 -14
46 -14 50 1 18 82 -159 98 -213z m-2022 160 c7 -27 6 -29 -9 -16 -10 7 -17 25
-17 39 0 33 16 18 26 -23z m-120 -107 c-4 -24 -16 -57 -27 -73 l-20 -30 6 30
c10 45 38 125 43 120 2 -2 1 -23 -2 -47z m99 -80 c8 -117 -8 -120 -20 -3 -11
107 -8 164 6 111 5 -16 11 -64 14 -108z m89 36 c6 -49 6 -49 -9 -19 -8 17 -14
48 -14 70 0 32 2 36 9 19 5 -12 11 -43 14 -70z m1842 -109 c4 -47 2 -56 -6
-42 -6 9 -9 26 -5 36 3 11 1 22 -5 26 -5 3 -10 27 -9 53 1 45 1 46 10 17 6
-16 12 -57 15 -90z m54 -27 c0 -23 -3 -38 -6 -35 -9 9 -11 86 -1 80 4 -2 7
-23 7 -45z m61 -35 c-8 -15 -10 -15 -11 -2 0 17 10 32 18 25 2 -3 -1 -13 -7
-23z m-184 -45 c-3 -7 -5 -2 -5 12 0 14 2 19 5 13 2 -7 2 -19 0 -25z m-1997
-4 c0 -8 -4 -14 -10 -14 -5 0 -10 9 -10 21 0 11 5 17 10 14 6 -3 10 -13 10
-21z m2083 -74 c16 -45 35 -210 23 -199 -4 3 -9 24 -11 45 -3 22 -14 58 -25
81 -11 24 -20 64 -20 90 0 54 10 49 33 -17z m-1969 -2 c9 -17 16 -45 16 -62
l-1 -31 -19 40 c-17 36 -27 85 -16 85 3 0 12 -14 20 -32z m1901 -29 c2 -24 6
-58 9 -75 4 -20 -1 -44 -14 -69 -11 -22 -20 -45 -20 -52 0 -7 -7 -10 -15 -7
-20 8 -19 33 5 89 11 26 17 51 14 56 -7 11 6 113 13 106 2 -3 6 -25 8 -48z
m-41 -221 c8 -13 7 -26 -6 -50 -9 -18 -19 -61 -22 -96 -7 -76 -16 -113 -25
-108 -4 3 -6 -9 -5 -26 1 -17 -1 -40 -5 -51 -7 -18 -8 -18 -14 -4 -4 10 -2 17
5 17 7 0 7 4 0 13 -6 7 -16 43 -23 80 -14 76 -3 142 35 210 22 39 41 44 60 15z
m-2344 -1299 c-7 -31 -8 -29 -8 21 -1 39 2 49 8 34 4 -11 5 -36 0 -55z m1331
-59 c9 0 39 -59 39 -75 0 -7 -115 -7 -122 1 -11 10 45 85 60 79 7 -3 18 -5 23
-5z m187 -130 c6 0 12 -9 12 -20 0 -24 6 -24 -252 -8 -158 10 -198 15 -198 26
0 12 33 14 213 9 116 -4 218 -6 225 -7z m-148 -76 c74 -3 142 -10 152 -15 21
-11 51 -66 43 -79 -5 -8 7 -74 25 -133 l9 -28 -67 7 c-37 4 -101 8 -142 9
-227 4 -223 4 -210 20 7 9 10 18 7 21 -3 4 -43 12 -89 20 l-83 13 67 -2 c42
-1 72 3 79 10 19 19 7 24 -60 30 -83 8 -68 21 24 20 81 0 91 3 81 29 -6 15
-17 16 -86 11 -51 -4 -80 -3 -80 4 0 14 16 18 98 23 40 2 76 6 79 9 11 12 -10
27 -40 28 -18 1 -43 5 -57 9 -16 6 -1 7 45 5 39 -3 131 -7 205 -11z m-2148
-166 c-7 -7 -12 -8 -12 -2 0 14 12 26 19 19 2 -3 -1 -11 -7 -17z m1846 -55
c-10 -2 -26 -2 -35 0 -10 3 -2 5 17 5 19 0 27 -2 18 -5z m69 -9 c-3 -3 -12 -4
-19 -1 -8 3 -5 6 6 6 11 1 17 -2 13 -5z m-1230 -40 c63 -17 95 -53 117 -128
18 -59 21 -132 7 -140 -5 -3 -20 3 -34 14 -18 14 -40 20 -76 20 -42 0 -56 -5
-84 -30 -40 -35 -47 -53 -35 -97 9 -34 42 -53 61 -34 9 9 8 17 -1 31 -19 31
-14 59 12 71 34 16 93 3 110 -24 18 -30 28 -85 15 -92 -5 -4 -7 -21 -4 -38 13
-78 -79 -156 -201 -172 -64 -8 -69 -4 -80 58 -14 88 -142 173 -268 181 -29 2
-26 104 4 171 l18 40 1 -32 c1 -18 -4 -33 -9 -33 -14 0 22 -49 36 -50 6 0 16
31 23 69 11 58 19 77 58 122 55 65 102 94 170 105 21 3 40 8 42 9 5 5 55 -4
118 -21z m400 -181 c-3 -10 -5 -2 -5 17 0 19 2 27 5 18 2 -10 2 -26 0 -35z
m-188 -18 c29 -14 61 -76 61 -116 0 -24 -37 -60 -91 -88 -22 -12 -41 -21 -44
-21 -2 0 -1 17 2 37 7 44 33 79 45 60 11 -17 41 3 52 36 8 21 6 31 -9 46 -10
11 -22 18 -27 14 -11 -6 -28 14 -28 35 0 15 5 15 39 -3z m921 -79 c0 -35 -4
-46 -19 -51 -31 -9 -14 -32 37 -51 26 -10 53 -22 60 -27 8 -6 17 -5 27 3 10 8
28 10 52 5 20 -3 80 -6 132 -5 53 1 184 3 291 5 216 4 252 -1 345 -47 97 -47
109 -63 100 -138 -8 -72 -19 -84 -87 -105 -63 -18 -105 -19 -111 -2 -3 10 -9
10 -26 0 -31 -19 -41 -16 -41 12 0 16 -6 25 -15 25 -9 0 -20 -11 -25 -25 -5
-14 -15 -25 -21 -25 -7 0 -8 7 -4 18 4 9 10 27 12 40 8 35 -32 29 -47 -8 -13
-31 -37 -56 -46 -48 -3 3 4 21 15 39 26 43 27 69 2 69 -13 0 -21 -9 -26 -29
-8 -37 -29 -55 -52 -46 -17 6 -16 8 2 15 37 14 60 83 42 130 -19 49 -36 37
-34 -25 1 -45 -3 -59 -23 -80 -13 -14 -29 -25 -37 -25 -16 0 -16 0 3 -38 17
-36 33 -49 43 -36 3 6 64 7 141 3 75 -4 168 -3 209 3 66 8 77 8 99 -9 55 -41
62 -61 52 -141 -12 -92 -33 -130 -78 -138 -25 -5 -36 -2 -46 11 -14 19 -36 13
-36 -11 0 -8 -9 -14 -21 -14 -15 0 -19 5 -17 22 2 15 -3 24 -14 26 -13 2 -18
-3 -18 -17 0 -14 -6 -21 -20 -21 -16 0 -19 5 -13 30 3 17 1 30 -4 30 -15 0
-33 -23 -33 -42 0 -10 -5 -18 -11 -18 -6 0 -8 9 -3 23 12 36 10 52 -6 52 -8 0
-19 -15 -25 -32 -5 -18 -13 -33 -18 -33 -9 0 -5 29 9 64 4 11 1 16 -10 16 -10
0 -25 -18 -37 -42 -18 -37 -20 -39 -15 -13 2 17 8 39 12 49 6 16 4 18 -19 13
-14 -4 -27 -3 -29 4 -5 16 -38 -1 -38 -20 0 -40 -35 -74 -100 -97 -35 -12 -66
-27 -68 -32 -6 -19 37 -23 68 -7 23 12 68 17 183 19 84 2 172 1 197 -3 l45 -6
-3 -50 c-4 -59 -27 -133 -49 -157 -10 -11 -31 -18 -55 -18 -35 0 -38 2 -28 19
15 30 -5 35 -30 9 l-21 -23 3 29 c4 41 -19 45 -36 6 -7 -18 -16 -28 -19 -23
-3 5 0 21 8 36 9 17 10 29 4 33 -14 8 -46 -23 -53 -52 -4 -15 -14 -24 -26 -24
-24 0 -26 18 -4 48 15 21 12 42 -6 42 -5 0 -19 -22 -32 -50 l-23 -50 -53 0
-54 0 31 35 c30 34 40 65 22 65 -5 0 -16 -10 -24 -22 l-16 -23 0 23 c-1 28
-15 28 -35 0 -20 -29 -21 -52 -1 -44 11 4 14 -1 11 -17 -2 -15 -11 -22 -27
-23 -40 -2 -42 -3 -29 -19 15 -18 108 -20 192 -5 51 10 223 -2 237 -15 10 -10
-25 -68 -63 -106 -68 -67 -78 -70 -274 -75 -263 -8 -307 -7 -357 11 -55 18
-193 29 -209 16 -6 -5 -21 -11 -34 -13 -39 -5 -20 -23 23 -21 85 4 112 2 175
-14 36 -9 69 -19 73 -23 4 -4 -27 -14 -70 -23 -130 -26 -411 -14 -546 24 -23
7 -46 13 -52 14 -21 2 -100 27 -110 34 -5 5 -30 8 -55 7 -33 -1 -45 -5 -45
-16 0 -9 10 -15 25 -16 14 0 42 -6 63 -13 30 -10 37 -17 32 -30 -4 -9 -11 -28
-15 -43 -16 -52 -63 -119 -121 -171 -50 -45 -67 -55 -121 -66 -126 -25 -269
-8 -317 37 -15 15 -61 80 -61 87 0 11 60 4 72 -8 21 -21 79 -47 104 -47 38 0
131 46 149 74 26 39 31 128 9 161 l-17 26 82 -2 c79 -2 111 7 97 29 -3 5 -63
13 -133 16 -124 7 -260 32 -299 55 -10 6 -40 20 -66 30 -35 15 -52 29 -66 58
-11 21 -20 40 -20 43 0 3 -6 19 -13 35 -6 17 -14 67 -16 111 -4 69 -1 95 21
165 14 45 26 95 26 110 0 15 5 31 11 34 15 10 30 53 38 108 l6 48 230 4 c127
3 247 9 268 14 34 8 50 0 27 -14 -15 -9 -12 -35 4 -35 7 0 83 69 167 153 223
220 258 247 365 282 49 15 93 32 99 36 5 5 40 9 77 9 l68 0 0 -44z m464 17
c-5 -16 -8 -47 -8 -70 l0 -43 -41 1 c-22 1 -32 3 -22 6 10 3 17 12 15 21 -3
14 -21 18 -103 23 -75 4 -88 6 -50 9 28 2 72 4 100 5 39 0 50 4 53 18 2 12 -3
17 -20 18 -17 1 -18 3 -5 6 9 2 17 11 17 19 0 9 12 14 36 14 35 0 36 -1 28
-27z m150 -5 c18 -18 42 -50 54 -70 l21 -38 -89 0 c-51 0 -92 4 -95 11 -4 5
-4 37 0 70 l7 59 34 0 c26 0 43 -8 68 -32z m-451 5 c-7 -2 -21 -2 -30 0 -10 3
-4 5 12 5 17 0 24 -2 18 -5z m64 -9 c-3 -3 -12 -4 -19 -1 -8 3 -5 6 6 6 11 1
17 -2 13 -5z m80 0 c-3 -3 -12 -4 -19 -1 -8 3 -5 6 6 6 11 1 17 -2 13 -5z
m-141 -57 c4 -4 -5 -7 -19 -7 -15 0 -27 4 -27 8 0 10 36 9 46 -1z m-3 -44 c-7
-2 -21 -2 -30 0 -10 3 -4 5 12 5 17 0 24 -2 18 -5z m165 0 c-21 -2 -55 -2 -75
0 -21 2 -4 4 37 4 41 0 58 -2 38 -4z m-2068 -27 c0 -3 -4 -8 -10 -11 -5 -3
-10 -1 -10 4 0 6 5 11 10 11 6 0 10 -2 10 -4z m-43 -12 c-3 -3 -12 -4 -19 -1
-8 3 -5 6 6 6 11 1 17 -2 13 -5z m1000 -21 c26 -14 53 -33 60 -42 23 -29 13
-29 -18 0 -17 16 -41 32 -54 35 -38 10 -97 0 -109 -18 -15 -25 0 -33 38 -20
27 10 38 9 64 -4 18 -8 37 -24 42 -35 12 -22 36 -25 43 -6 7 21 20 -1 19 -34
-1 -33 -23 -66 -45 -66 -7 0 -25 -3 -39 -6 -27 -7 -27 -6 -17 20 30 79 -56
148 -121 95 -20 -16 -20 -19 -7 -31 11 -8 22 -9 34 -3 27 14 43 4 43 -28 0
-30 -23 -56 -40 -45 -5 3 -20 8 -32 10 -37 8 -58 44 -54 98 3 55 11 65 69 89
57 23 69 22 124 -9z m-1052 7 c-3 -5 -12 -10 -18 -10 -7 0 -6 4 3 10 19 12 23
12 15 0z m228 -8 c8 -7 28 -15 44 -18 31 -6 70 -38 79 -66 6 -20 34 -24 52 -6
16 16 26 4 47 -60 15 -47 15 -55 2 -70 -8 -9 -17 -30 -20 -47 -3 -16 -8 -40
-12 -52 -6 -17 -3 -23 9 -23 22 0 20 -9 -13 -61 -49 -76 -102 -109 -176 -109
-65 0 -96 13 -141 59 -44 44 -46 48 -41 94 5 60 37 97 83 97 18 0 34 -5 36
-12 9 -26 -6 -60 -29 -69 -32 -12 -27 -43 8 -47 37 -4 75 30 82 75 4 21 2 42
-5 50 -6 7 -8 16 -5 19 7 7 37 -50 37 -70 0 -8 -11 -28 -25 -44 -30 -36 -32
-52 -4 -52 35 0 79 53 79 95 0 52 -46 144 -79 157 -59 23 -202 -11 -240 -56
-17 -20 -7 -48 14 -40 22 9 19 -10 -6 -32 -18 -16 -20 -26 -14 -73 13 -103 36
-136 129 -183 55 -28 63 -29 110 -20 28 6 52 9 54 7 2 -2 -4 -17 -12 -34 -51
-97 -60 -271 -21 -387 32 -96 58 -135 139 -213 l67 -64 -26 -38 c-49 -75 -145
-113 -266 -105 -95 6 -223 76 -256 139 -16 31 -16 32 3 18 10 -8 30 -25 44
-36 14 -12 47 -35 75 -50 87 -50 237 -39 308 23 17 15 24 52 10 52 -5 0 -28
-14 -52 -30 -38 -26 -53 -30 -112 -30 -37 0 -70 4 -74 9 -3 6 -26 20 -50 32
-103 51 -158 158 -131 252 8 25 6 27 -23 27 -26 0 -32 -5 -42 -38 -9 -32 -8
-52 9 -116 11 -43 17 -74 12 -70 -15 17 -40 123 -40 171 0 47 28 124 49 137 6
4 32 -2 58 -13 110 -47 217 -57 254 -25 20 18 13 74 -9 74 -27 0 -103 44 -150
87 -48 43 -66 51 -77 33 -8 -13 13 -46 55 -88 39 -39 24 -42 -21 -4 -95 79
-126 128 -136 210 -6 47 -23 54 -47 20 -17 -24 -16 -31 -21 117 0 17 5 47 12
68 11 32 10 39 -2 44 -9 3 -23 -1 -32 -8 -15 -12 -16 -12 -9 6 4 11 10 34 13
50 10 54 43 109 90 151 50 45 52 72 5 52 -44 -19 -89 -67 -117 -126 -14 -30
-28 -52 -31 -49 -8 7 51 119 73 139 100 93 189 142 276 153 33 4 57 12 57 19
0 16 73 14 93 -2z m624 -201 c21 -12 21 -12 -75 -15 -72 -2 -84 4 -42 23 16 7
39 23 52 36 l22 23 12 -28 c7 -15 20 -33 31 -39z m-659 3 c40 -11 23 -19 -40
-19 -35 0 -74 -3 -88 -7 -14 -4 -7 1 15 12 41 20 74 24 113 14z m-442 -276
c-8 -38 -12 -45 -14 -27 -3 23 12 79 21 79 2 0 -1 -24 -7 -52z m641 -90 c-9
-29 -18 -78 -22 -109 -5 -48 -9 -55 -27 -55 -25 1 -35 -25 -37 -91 -1 -33 4
-45 19 -53 29 -15 40 -5 41 38 0 34 2 32 22 -29 49 -145 153 -223 295 -220 20
0 61 -4 89 -10 46 -9 55 -15 69 -44 34 -73 -13 -168 -86 -172 l-35 -2 34 13
c43 15 73 54 72 92 -3 94 -2 90 -11 69 -7 -19 -8 -18 -18 6 -21 54 -142 43
-142 -12 0 -22 12 -24 42 -8 51 27 106 -27 75 -74 -17 -26 -58 -44 -92 -41
-53 4 -178 52 -195 73 -3 4 -18 17 -34 29 -16 12 -34 31 -40 41 -6 11 -24 35
-39 55 -74 92 -99 281 -57 421 12 39 24 79 26 90 5 19 53 56 63 49 2 -2 -3
-27 -12 -56z m-558 -138 c12 -33 26 -60 30 -60 4 0 8 -7 8 -16 0 -26 -34 24
-52 75 -8 25 -15 48 -15 53 0 20 9 4 29 -52z m2307 -437 c8 -3 14 -15 14 -27
0 -19 -6 -21 -71 -24 -47 -1 -68 1 -64 8 4 6 20 8 39 4 24 -4 38 -1 51 13 18
17 17 18 -33 21 -33 2 -50 7 -46 13 6 10 77 5 110 -8z m-8 -122 c31 -16 54
-66 50 -109 -5 -63 -93 -103 -133 -60 -7 7 -6 9 1 5 17 -10 69 8 69 24 0 8
-11 15 -25 16 -14 1 -40 5 -57 9 -28 5 -33 3 -34 -12 0 -13 -5 -8 -15 14 -15
35 -25 39 -44 18 -17 -21 6 -64 49 -93 19 -13 27 -23 20 -23 -8 0 -30 12 -48
28 -24 20 -33 37 -36 64 -2 21 1 40 6 43 5 4 9 14 9 23 0 9 12 29 27 44 25 26
32 28 83 25 31 -2 66 -9 78 -16z m-1590 -123 c23 -25 23 -28 8 -34 -9 -4 -32
2 -52 12 -27 15 -34 24 -34 50 0 42 10 48 33 22 11 -13 32 -35 45 -50z m1517
-98 c3 -6 -1 -7 -9 -4 -18 7 -21 14 -7 14 6 0 13 -4 16 -10z M2838 8503 c-49
-25 -30 -73 28 -73 29 0 64 21 64 38 -1 17 -48 56 -62 51 -2 -1 -15 -8 -30
-16z M2202 8503 c-61 -8 -50 -63 12 -63 45 0 74 23 60 47 -12 20 -23 22 -72
16z M3420 8200 c0 -5 5 -10 11 -10 5 0 7 5 4 10 -3 6 -8 10 -11 10 -2 0 -4 -4
-4 -10z M3565 7920 c-3 -5 -1 -10 4 -10 6 0 11 5 11 10 0 6 -2 10 -4 10 -3 0
-8 -4 -11 -10z M3364 6909 c0 -13 3 -15 13 -7 7 6 13 12 13 13 0 2 -6 5 -13 8
-7 3 -13 -3 -13 -14z M2551 8241 c-6 -11 -11 -29 -11 -40 0 -12 -4 -21 -10
-21 -5 0 -10 14 -10 31 0 26 -3 30 -22 27 -17 -2 -24 -11 -26 -34 -4 -36 13
-53 55 -56 41 -3 63 17 63 57 0 42 -24 65 -39 36z M2120 8194 c-7 -17 -7 -32
0 -44 12 -21 67 -35 100 -25 18 6 21 13 18 48 l-3 42 -53 2 c-48 2 -53 1 -62
-23z m77 -28 c-8 -19 -37 -21 -37 -3 0 7 5 18 12 25 15 15 33 -1 25 -22z
M2846 8204 c-18 -17 -21 -51 -6 -74 11 -18 83 -18 105 0 22 19 15 54 -12 58
-16 2 -22 -3 -25 -19 -4 -29 -28 -38 -28 -10 0 11 5 23 10 26 8 5 7 11 -1 21
-15 18 -24 18 -43 -2z M3447 5713 c-4 -6 0 -13 8 -17 8 -3 17 0 21 6 4 6 3 8
-4 4 -5 -3 -12 -1 -14 6 -3 8 -6 9 -11 1z M920 3971 c-68 -21 -110 -57 -94
-82 7 -12 54 -12 54 1 0 14 54 40 92 44 40 5 105 -35 114 -70 10 -37 28 -47
48 -25 22 25 14 56 -22 79 -14 9 -36 27 -49 39 -17 18 -33 23 -70 22 -26 0
-59 -4 -73 -8z M1063 3643 c-3 -8 -4 -15 -2 -16 2 -1 19 -13 37 -25 26 -18 36
-21 47 -12 11 9 11 17 3 35 -12 27 -76 41 -85 18z M1107 3554 c-4 -4 -7 -17
-7 -28 0 -12 -14 -38 -31 -59 -51 -62 -15 -80 46 -23 31 30 36 40 33 73 -3 36
-23 54 -41 37z M2544 3467 c-10 -28 0 -82 16 -82 11 0 15 12 15 44 0 44 -19
68 -31 38z M2496 3444 c-12 -30 -7 -84 8 -84 13 0 26 41 26 81 0 23 -25 25
-34 3z M2437 3434 c-4 -4 -7 -23 -7 -41 0 -27 4 -34 18 -31 12 2 17 13 17 37
0 33 -13 49 -28 35z M2387 3404 c-4 -4 -7 -18 -7 -31 0 -17 6 -23 21 -23 16 0
20 5 17 27 -3 26 -18 39 -31 27z M2325 3350 c-8 -12 20 -24 35 -15 6 3 8 11 5
16 -8 12 -32 12 -40 -1z M2215 3309 c-4 -6 -4 -13 -1 -16 8 -8 36 5 36 17 0
13 -27 13 -35 -1z M2600 3300 c0 -5 5 -10 10 -10 6 0 10 5 10 10 0 6 -4 10
-10 10 -5 0 -10 -4 -10 -10z M2665 3230 c-3 -5 -17 -7 -31 -4 -19 5 -24 2 -24
-12 0 -13 12 -23 36 -30 37 -12 40 -11 46 30 3 21 -16 33 -27 16z M2555 3210
c-7 -12 2 -30 16 -30 12 0 12 27 0 35 -5 3 -12 1 -16 -5z M2666 3088 c-3 -7
-9 -28 -15 -47 -15 -46 -14 -61 5 -61 17 0 44 57 44 95 0 26 -27 36 -34 13z
M2715 3063 c-22 -51 -23 -78 -5 -78 16 0 54 90 45 106 -12 18 -25 8 -40 -28z
M2555 3056 c-18 -43 -19 -66 -2 -66 6 0 22 -3 34 -6 17 -5 25 1 37 25 18 33
21 81 7 81 -6 0 -17 -10 -26 -22 -14 -20 -16 -20 -13 -4 6 35 -22 29 -37 -8z
M2502 3048 c-10 -35 1 -59 18 -42 5 5 13 24 16 42 9 45 -22 45 -34 0z M2447
3029 c-3 -12 0 -22 9 -26 18 -6 19 -5 28 25 6 18 3 22 -12 22 -11 0 -22 -9
-25 -21z M2370 3020 c-12 -7 -12 -12 -3 -21 9 -9 16 -9 27 1 26 21 5 39 -24
20z M2487 2772 c-25 -26 -27 -42 -6 -42 13 0 49 42 49 57 0 20 -14 15 -43 -15z
M2540 2776 c-5 -13 -14 -27 -19 -31 -16 -9 -13 -25 3 -25 18 0 59 56 51 70
-11 17 -25 11 -35 -14z M2415 2777 c-11 -6 -31 -11 -44 -11 -13 -1 -26 -7 -29
-15 -3 -10 2 -12 21 -7 14 3 28 2 32 -4 8 -13 34 -1 45 21 13 23 0 31 -25 16z
M2640 2573 c0 -22 -2 -25 -10 -13 -8 12 -13 13 -30 3 -11 -7 -26 -13 -34 -13
-8 0 -15 -14 -18 -35 -4 -34 12 -49 27 -26 3 6 26 13 50 17 41 6 45 9 51 39 7
38 0 55 -22 55 -9 0 -14 -10 -14 -27z M2750 2580 c0 -5 7 -10 15 -10 8 0 15 5
15 10 0 6 -7 10 -15 10 -8 0 -15 -4 -15 -10z M1550 2559 c-30 -19 -43 -21
-105 -14 -38 4 -82 9 -96 10 -14 1 -31 5 -37 9 -6 4 -22 2 -34 -5 -22 -12 -21
-13 17 -26 22 -8 73 -19 114 -25 65 -10 81 -9 129 8 54 18 73 37 56 54 -6 6
-23 1 -44 -11z M2697 2573 c-12 -11 -8 -23 8 -23 8 0 15 7 15 15 0 16 -12 20
-23 8z M2310 2529 c0 -40 14 -51 38 -27 9 9 12 8 12 -5 0 -18 25 -23 35 -7 4
6 2 25 -4 43 -10 29 -16 33 -46 34 -34 1 -35 0 -35 -38z M2248 2554 c-12 -11
4 -34 24 -34 13 0 18 6 16 17 -3 18 -29 29 -40 17z M2460 2541 c-29 -8 -43
-61 -16 -61 8 0 18 5 21 10 5 8 11 7 21 -1 11 -9 15 -8 20 4 8 21 2 50 -11 53
-5 1 -21 -1 -35 -5z M1482 2414 c-12 -8 -22 -25 -22 -38 0 -22 -57 -107 -90
-134 -21 -17 -118 -62 -134 -62 -21 0 -46 -11 -46 -20 0 -30 94 -9 182 39 63
35 119 103 139 170 15 50 4 68 -29 45z M1352 2335 c-37 -53 -39 -65 -13 -65
24 0 81 64 81 90 0 35 -35 22 -68 -25z M410 2375 c-25 -31 63 -98 140 -109 52
-6 137 19 154 46 18 29 -2 33 -49 10 -25 -12 -56 -22 -68 -22 -27 0 -126 56
-134 75 -7 19 -27 19 -43 0z M705 2640 c-8 -12 34 -103 76 -164 29 -44 77 -86
97 -86 5 0 23 -7 40 -16 37 -18 77 -15 77 6 0 9 -11 16 -29 18 -61 7 -151 96
-182 180 -10 26 -22 53 -27 60 -11 15 -43 16 -52 2z M545 5938 c-27 -5 -57
-11 -65 -15 -8 -3 -17 -7 -20 -7 -3 -1 -31 -14 -62 -29 -93 -44 -179 -141
-197 -222 l-7 -30 -72 4 c-71 3 -72 3 -72 -22 0 -23 3 -25 53 -26 86 -1 143
-40 170 -118 12 -36 12 -45 -1 -75 l-15 -33 -8 42 c-8 45 -46 106 -61 97 -4
-3 -8 0 -8 6 0 18 -51 32 -92 25 -32 -6 -38 -11 -38 -31 0 -17 4 -22 15 -18
27 11 82 -6 109 -33 28 -27 35 -78 16 -113 -18 -33 11 -36 38 -4 16 20 20 22
13 7 -33 -65 9 -56 54 12 36 54 36 55 25 110 -10 50 -54 121 -82 133 -30 13
15 123 70 174 62 58 195 125 254 127 9 1 24 8 32 17 9 8 16 11 16 6 0 -5 27
-12 60 -16 75 -9 110 -21 182 -64 110 -65 169 -152 174 -256 2 -34 6 -83 9
-111 3 -27 1 -57 -5 -65 -8 -12 -10 -9 -10 12 0 39 -18 80 -33 75 -11 -4 -14
-22 -16 -110 -1 -30 -8 -46 -31 -67 -16 -15 -30 -30 -30 -33 0 -12 34 -16 46
-6 22 18 16 -2 -12 -43 -30 -43 -105 -94 -160 -110 -22 -6 -56 -7 -83 -2 l-46
8 67 6 c49 5 80 14 115 36 51 32 73 72 34 61 -18 -4 -21 -2 -16 14 8 23 -16
26 -34 5 -21 -25 -59 -28 -100 -7 -40 21 -62 51 -36 51 8 0 18 6 22 13 4 8 16
16 26 20 21 8 22 48 2 90 -16 34 -84 77 -121 77 -29 0 -114 -46 -141 -75 -22
-25 -47 -120 -39 -146 2 -8 7 -26 10 -42 l6 -27 -52 29 c-97 54 -204 59 -294
15 -51 -25 -54 -28 -54 -64 l0 -39 55 34 c76 45 143 53 219 24 82 -30 131 -82
147 -154 13 -59 24 -74 42 -56 11 11 0 91 -18 136 -8 19 -7 19 11 4 46 -39 88
-52 184 -54 132 -3 172 10 248 85 33 33 64 70 67 80 7 22 26 25 56 9 21 -11
16 -34 -6 -25 -18 7 -50 -18 -41 -32 4 -7 16 -12 26 -12 10 0 32 -12 49 -26
27 -23 31 -32 31 -77 0 -74 -7 -91 -46 -112 -19 -10 -34 -22 -34 -27 0 -14 40
-9 70 9 37 21 51 54 57 128 5 59 4 61 -34 103 -40 42 -37 56 4 27 30 -21 63
-99 63 -149 0 -27 -8 -53 -24 -77 -22 -32 -40 -44 -99 -63 -25 -8 -11 -26 20
-26 67 0 143 88 143 164 0 80 -65 206 -107 206 -7 0 -13 4 -13 10 0 5 -18 15
-40 21 -45 14 -46 18 -25 60 22 41 19 239 -4 307 -38 111 -179 236 -298 263
-63 14 -150 17 -208 7z m124 -513 c49 -25 56 -73 14 -92 -15 -7 -32 -13 -39
-13 -19 0 -25 -43 -8 -68 8 -13 29 -32 47 -42 22 -14 27 -20 14 -20 -49 0
-127 71 -127 117 0 18 -5 24 -17 21 -13 -2 -19 -15 -21 -42 -4 -46 34 -108 79
-126 42 -18 35 -30 -11 -18 -77 20 -140 109 -126 179 3 16 25 49 48 74 36 38
48 45 81 45 21 0 51 -7 66 -15z M920 5678 c0 -7 9 -26 20 -43 11 -16 20 -43
20 -58 0 -22 4 -28 18 -25 26 5 27 48 1 95 -22 41 -59 60 -59 31z M63 5443
c-7 -2 -13 -13 -13 -24 0 -15 6 -19 29 -17 17 1 38 -5 49 -15 34 -31 46 9 12
43 -19 19 -50 24 -77 13z M1726 5358 c-9 -13 -12 -26 -7 -31 5 -5 7 -33 4 -62
-10 -100 49 -174 144 -180 33 -2 52 -10 69 -28 36 -39 68 -27 80 32 22 107
-40 196 -149 216 -23 5 -46 18 -60 35 -32 40 -61 46 -81 18z m82 -77 c9 -6 34
-13 55 -16 44 -7 81 -43 104 -103 12 -33 13 -46 4 -55 -9 -9 -14 -8 -21 3 -6
10 -32 17 -72 20 -61 5 -63 6 -85 45 -23 41 -31 115 -13 115 6 0 18 -4 28 -9z
M3047 5303 c-10 -12 -15 -37 -15 -73 0 -30 -1 -59 -2 -65 -6 -24 1 -55 15 -69
8 -8 15 -19 15 -24 0 -5 18 -22 40 -37 28 -20 55 -28 97 -31 45 -3 63 -10 85
-31 l27 -26 30 31 c34 34 39 68 20 136 -13 46 -37 69 -99 91 -25 9 -62 25 -83
36 -22 10 -44 19 -50 19 -7 0 -20 14 -29 30 -20 35 -29 37 -51 13z m130 -112
c23 -11 51 -21 61 -21 39 0 82 -74 82 -139 l0 -24 -23 21 c-18 17 -36 22 -77
22 -39 0 -63 6 -86 22 -60 42 -74 89 -42 151 9 17 11 17 26 4 9 -8 36 -24 59
-36z M180 5167 c-25 -14 -46 -32 -48 -41 -4 -21 10 -20 66 4 39 17 55 19 97
11 53 -10 65 -8 65 14 0 20 -12 25 -77 31 -49 4 -65 1 -103 -19z M970 5171 c0
-5 -7 -17 -16 -26 -13 -12 -14 -19 -4 -30 17 -20 37 -19 50 3 9 16 11 16 23
-3 6 -11 14 -31 17 -45 8 -40 34 -31 38 13 3 30 -2 43 -27 67 -28 28 -81 42
-81 21z M148 5078 c-58 -30 -98 -82 -98 -127 0 -51 22 -71 50 -46 19 17 27 45
13 45 -4 0 -17 -10 -30 -22 -29 -27 -30 -8 -2 41 36 61 71 83 146 87 73 4 78
6 70 29 -9 22 -102 18 -149 -7z M400 5078 c0 -7 7 -31 14 -53 15 -42 32 -51
48 -25 15 24 -16 90 -41 90 -12 0 -21 -6 -21 -12z M127 4979 c-14 -8 -15 -14
-7 -24 14 -16 73 0 67 19 -5 15 -38 18 -60 5z M671 4916 c-17 -20 -4 -25 60
-24 54 1 84 13 73 29 -9 15 -120 11 -133 -5z M1745 4900 c-15 -17 -16 -24 -6
-43 6 -12 10 -38 8 -57 -8 -64 27 -115 93 -135 39 -12 89 -54 96 -80 6 -26 9
-27 44 -27 11 0 24 0 29 1 5 1 12 22 15 49 3 26 8 60 10 76 12 84 -71 186
-152 186 -18 0 -38 10 -52 25 -28 30 -61 32 -85 5z m90 -60 c10 -12 25 -18 33
-15 17 6 58 -18 84 -49 23 -28 41 -93 34 -122 l-6 -24 -45 34 c-24 19 -60 39
-79 46 -44 14 -72 67 -58 110 6 15 8 31 5 34 -4 3 -2 6 4 6 5 0 18 -9 28 -20z
M506 4881 c-12 -14 -14 -21 -6 -26 15 -9 60 14 60 32 0 19 -34 16 -54 -6z
M1359 4814 c-7 -15 -14 -32 -14 -38 -1 -6 -5 -23 -9 -37 -19 -67 50 -180 112
-181 23 -1 46 -12 75 -38 75 -65 115 -58 124 23 7 62 -18 129 -60 159 -41 30
-94 58 -108 58 -6 0 -28 18 -49 40 -21 22 -43 40 -48 40 -5 0 -15 -12 -23 -26z
m134 -115 c32 -18 66 -44 76 -58 42 -61 46 -136 5 -90 -24 26 -86 59 -114 59
-26 0 -80 74 -80 110 0 36 9 43 34 25 12 -8 47 -29 79 -46z M412 4797 c-44
-46 -70 -161 -52 -228 15 -55 57 -117 91 -135 35 -18 50 -18 74 0 17 12 16 14
-19 31 -76 36 -115 139 -90 236 8 29 20 62 29 75 30 46 6 62 -33 21z M3461
4806 c-8 -10 -9 -21 -1 -42 6 -16 11 -59 11 -97 0 -78 25 -148 61 -170 13 -8
45 -20 72 -26 26 -7 55 -18 63 -26 23 -24 36 -18 71 32 55 79 -10 217 -112
237 -38 8 -53 20 -90 69 -30 39 -55 47 -75 23z m223 -195 c21 -37 31 -116 16
-126 -5 -3 -20 1 -32 9 -12 9 -30 16 -40 16 -30 0 -69 23 -83 50 -20 39 -27
92 -16 122 l10 27 63 -33 c40 -21 69 -44 82 -65z M2948 4783 c-64 -71 -62
-153 7 -219 33 -32 52 -42 89 -47 50 -7 96 7 79 24 -5 5 -33 15 -63 22 -44 10
-58 19 -82 51 -23 33 -28 47 -24 80 2 23 5 45 5 50 1 5 11 0 24 -11 12 -11 43
-32 68 -45 74 -39 104 -68 106 -107 1 -19 10 -42 19 -52 16 -18 16 -19 -4 -19
-12 0 -22 -5 -22 -11 0 -8 -5 -8 -15 1 -12 10 -15 10 -15 -4 0 -9 7 -16 15
-16 8 0 15 -5 15 -11 0 -6 10 -9 23 -7 12 2 22 8 22 15 0 6 3 15 8 19 10 11 9
98 -3 129 -11 29 -34 55 -48 55 -5 0 -15 7 -22 15 -7 8 -21 15 -31 15 -10 0
-41 23 -68 50 -28 28 -52 50 -54 50 -2 0 -15 -12 -29 -27z M538 4770 c-26 -22
-42 -47 -54 -84 -16 -50 -16 -54 4 -99 25 -56 70 -87 129 -87 51 0 103 39 103
76 0 35 -31 31 -53 -7 -16 -29 -20 -31 -59 -26 -23 3 -47 13 -54 21 -6 9 -13
14 -16 11 -2 -3 -5 1 -6 8 -1 6 -4 26 -8 43 -8 41 20 100 55 118 42 22 135 2
179 -38 47 -42 63 -113 41 -190 -11 -40 -82 -126 -105 -126 -19 0 -28 -20 -14
-33 9 -9 14 -8 24 6 7 9 20 17 29 17 23 0 90 76 101 113 15 51 11 158 -7 194
-22 41 -83 91 -127 103 -69 19 -122 13 -162 -20z M592 4693 c-41 -36 -21 -113
30 -113 25 0 36 30 15 42 -21 11 -22 47 -2 54 21 9 19 34 -4 34 -10 0 -28 -8
-39 -17z M985 4603 c4 -27 15 -67 25 -89 25 -57 18 -124 -20 -213 -20 -47 -28
-77 -22 -83 14 -14 50 11 50 36 0 12 12 50 27 85 22 52 26 73 22 120 -11 126
-35 191 -70 191 -16 0 -17 -6 -12 -47z M349 4365 c-30 -16 -76 -80 -88 -122
-17 -59 5 -137 37 -131 14 3 16 14 14 63 -5 79 18 137 64 164 53 32 28 56 -27
26z M403 4330 c-28 -11 -85 -89 -81 -109 2 -9 11 -17 21 -19 13 -3 22 7 33 36
9 22 28 46 45 56 49 29 35 57 -18 36z M445 4280 c-12 -13 -15 -24 -9 -30 12
-12 78 26 69 40 -10 17 -41 11 -60 -10z M1140 4166 c0 -7 13 -19 29 -26 49
-20 83 -64 88 -114 4 -36 10 -46 24 -46 41 0 48 81 11 125 -34 41 -89 75 -120
75 -21 0 -32 -5 -32 -14z M534 4125 c-44 -19 -104 -88 -114 -129 -12 -56 4
-106 46 -144 21 -18 43 -31 48 -29 20 7 18 39 -2 58 -12 11 -24 39 -28 65 -9
61 14 106 73 141 24 14 43 28 43 33 0 15 -37 17 -66 5z M1161 4096 c-10 -12
-9 -17 8 -28 12 -7 21 -18 21 -25 0 -21 37 -15 43 7 10 38 -48 75 -72 46z
M556 3995 c5 -13 2 -15 -20 -9 -24 6 -26 3 -26 -22 0 -41 13 -57 39 -49 17 5
21 14 19 46 -1 22 -5 42 -10 45 -4 3 -5 -2 -2 -11z M186 3957 c-25 -18 -12
-39 17 -28 23 9 30 32 12 38 -6 2 -19 -3 -29 -10z M3452 3938 c-11 -32 -6
-202 6 -206 16 -5 23 28 29 131 5 86 4 97 -11 97 -9 0 -20 -10 -24 -22z M3406
3891 c-4 -5 -9 -43 -11 -85 -5 -63 -3 -76 9 -76 8 0 17 4 20 8 4 8 10 119 7
150 -1 14 -17 16 -25 3z M67 3872 c-14 -15 -17 -42 -17 -148 0 -127 1 -130 27
-163 33 -39 68 -35 60 6 l-4 24 22 -21 c23 -22 65 -24 72 -5 1 6 -11 26 -28
45 -17 19 -33 47 -36 62 -6 31 -19 35 -49 13 -21 -14 -22 -13 -27 35 -6 49 6
115 23 125 6 4 10 15 10 26 0 25 -31 25 -53 1z M1588 3843 c-3 -26 -2 -54 2
-61 11 -22 38 19 42 63 3 35 0 40 -18 43 -19 3 -22 -3 -26 -45z M3303 3857
c-16 -19 -23 -61 -13 -76 15 -24 40 5 38 45 -1 39 -11 50 -25 31z M3347 3863
c-11 -11 -8 -113 3 -113 15 0 30 45 30 86 0 32 -16 45 -33 27z M1651 3828 c-9
-24 -4 -48 9 -48 14 0 32 29 28 46 -5 27 -27 28 -37 2z M1722 3838 c-20 -20
-14 -40 11 -36 14 2 22 10 22 22 0 24 -16 31 -33 14z M3192 3828 c-18 -18 -14
-28 8 -28 11 0 20 6 20 14 0 21 -15 27 -28 14z M3247 3833 c-11 -10 -8 -53 3
-53 13 0 32 38 25 50 -7 12 -19 13 -28 3z M4225 3640 c-3 -5 1 -10 10 -10 9 0
13 5 10 10 -3 6 -8 10 -10 10 -2 0 -7 -4 -10 -10z M50 3552 c0 -17 4 -32 9
-32 19 0 22 20 7 42 -16 22 -16 22 -16 -10z M112 3508 c-8 -8 -9 -15 -1 -25
15 -17 34 -17 48 1 10 12 8 17 -8 25 -24 14 -24 14 -39 -1z M53 2835 c2 -68 3
-70 30 -73 39 -5 45 22 12 50 -15 13 -30 39 -35 58 -7 28 -8 22 -7 -35z M4072
1908 c6 -18 28 -21 28 -4 0 9 -7 16 -16 16 -9 0 -14 -5 -12 -12z M4244 1584
c3 -9 6 -19 6 -22 0 -9 20 21 20 31 0 4 -7 7 -16 7 -11 0 -14 -5 -10 -16z
M1309 1559 c-57 -6 -109 -32 -109 -54 0 -19 -49 -116 -75 -146 -18 -22 -23
-24 -31 -12 -6 8 -27 14 -58 15 -27 0 -60 7 -74 14 -33 17 -71 9 -97 -21 -11
-12 -40 -35 -65 -50 -25 -15 -54 -35 -65 -45 -30 -27 -73 -32 -168 -20 -63 8
-97 17 -123 35 -51 34 -96 44 -189 41 -77 -2 -135 -22 -135 -47 0 -5 -16 -15
-35 -23 -27 -12 -35 -21 -35 -41 0 -23 2 -25 23 -14 l22 12 -23 -25 c-17 -19
-22 -35 -21 -71 2 -43 4 -46 19 -32 30 27 34 16 5 -15 -16 -16 -26 -32 -24
-35 3 -2 20 11 39 31 22 24 35 32 40 24 6 -9 9 -9 15 0 6 9 9 9 15 -1 7 -10
11 -10 24 0 9 7 29 11 46 9 22 -3 29 -1 26 8 -3 7 2 18 10 24 8 7 14 9 14 4 0
-4 5 -3 12 4 22 22 29 12 11 -15 -16 -26 -14 -26 19 6 20 18 41 30 46 27 6 -3
13 -2 17 4 3 5 11 10 17 10 6 0 3 -9 -7 -20 -20 -23 -10 -27 14 -6 18 15 85
30 76 17 -3 -5 14 0 36 11 23 11 52 22 65 24 19 3 22 1 17 -13 -6 -17 -5 -17
14 0 16 14 22 15 26 5 3 -10 9 -9 24 5 11 10 24 17 29 16 23 -6 72 17 104 48
19 18 41 31 48 28 7 -3 11 -1 9 3 -2 4 14 23 36 42 23 19 38 28 35 20 -6 -17
27 -20 52 -5 9 5 15 4 18 -3 2 -7 19 -12 38 -12 19 0 34 -4 34 -8 0 -10 -79
-99 -80 -89 0 10 -58 -20 -93 -49 -15 -13 -34 -21 -42 -18 -14 6 -75 -25 -75
-37 0 -4 -24 -19 -52 -33 -167 -79 -202 -90 -163 -46 17 18 17 20 2 14 -9 -3
-17 -10 -17 -16 0 -5 -4 -7 -9 -4 -5 3 -11 -3 -14 -14 -3 -11 -1 -18 4 -14 5
3 9 0 9 -5 0 -6 -9 -11 -19 -11 -11 0 -23 -4 -26 -10 -3 -5 -11 -10 -17 -10
-6 0 -1 11 12 25 20 21 21 27 10 38 -7 6 -10 7 -7 1 8 -13 -59 -91 -70 -81 -4
5 -1 12 7 17 9 6 10 10 3 10 -7 0 -16 -7 -20 -15 -10 -18 -73 -28 -73 -11 0 7
-3 7 -8 -1 -4 -7 -18 -12 -30 -13 -12 0 -31 0 -42 -1 -11 0 -26 -9 -33 -20 -9
-12 -20 -17 -31 -13 -9 3 -16 1 -16 -6 0 -6 -8 -10 -18 -8 -11 2 -26 -3 -35
-11 -23 -18 -21 -1 2 27 22 26 36 29 27 6 -6 -14 -4 -15 9 -4 12 10 13 15 4
20 -8 5 -1 19 21 44 18 20 36 34 38 31 3 -3 -3 -14 -13 -25 -10 -11 -14 -20
-9 -20 4 0 18 12 30 28 12 15 26 23 30 19 5 -4 2 -12 -6 -17 -8 -5 -12 -11 -9
-14 3 -3 16 5 29 19 l24 25 -35 -4 c-19 -3 -41 -1 -49 4 -12 7 -11 12 3 28 26
29 20 38 -8 12 -17 -16 -22 -27 -15 -35 6 -7 4 -19 -6 -33 -19 -28 -39 -30
-24 -3 16 31 12 35 -9 10 -14 -17 -16 -26 -8 -31 8 -5 0 -19 -22 -42 -19 -20
-37 -33 -40 -31 -2 3 8 19 24 35 16 17 25 30 21 30 -8 0 -30 -21 -71 -71 -15
-18 -16 -20 -3 -10 10 7 18 12 19 10 6 -30 6 -38 1 -38 -24 4 -32 -5 -32 -31
l0 -30 454 0 c249 0 608 -2 797 -5 189 -3 952 -8 1694 -11 743 -2 1488 -6
1658 -7 l307 -2 0 44 c0 33 -3 41 -12 34 -17 -13 -58 -14 -58 -2 0 6 -5 7 -12
3 -7 -4 -8 -3 -4 5 4 6 12 9 17 5 17 -10 50 27 44 50 -3 12 -2 15 1 8 9 -19
24 -4 24 24 0 13 -9 29 -20 36 -25 16 -25 25 -1 33 18 5 19 18 20 166 1 144
-1 160 -16 165 -10 4 -32 12 -50 20 -46 20 -96 18 -118 -6 -17 -18 -27 -20
-94 -16 -42 3 -79 5 -83 6 -3 0 -27 19 -51 43 -61 57 -102 87 -120 87 -9 0
-19 5 -22 10 -13 20 -55 11 -67 -15 -13 -30 -48 -34 -48 -6 0 11 -6 26 -13 33
-7 7 -19 28 -26 46 -20 49 -46 41 -126 -38 -45 -45 -73 -66 -79 -60 -18 18
-56 12 -56 -9 0 -36 -49 -78 -147 -127 -93 -46 -102 -48 -178 -48 -44 1 -96 5
-117 9 -29 6 -40 3 -57 -14 -15 -15 -34 -21 -68 -21 -27 -1 -84 -7 -128 -15
-102 -19 -169 -18 -275 1 -47 8 -112 16 -145 18 -33 2 -73 9 -90 16 -40 17
-81 13 -124 -15 -23 -14 -67 -27 -116 -34 -44 -6 -98 -15 -120 -19 -76 -15
-239 -14 -318 2 -41 9 -82 13 -91 10 -15 -6 -55 19 -117 72 -38 33 -129 81
-169 90 -14 3 -41 8 -60 11 -19 4 -47 15 -62 26 -16 12 -35 17 -47 14 -12 -3
-21 -2 -21 2 0 14 -117 128 -146 142 -20 10 -46 12 -85 8z m29 -35 c12 -4 22
-9 22 -13 0 -3 -34 -42 -75 -86 -40 -44 -71 -82 -68 -85 2 -3 14 6 25 20 47
58 130 141 136 136 3 -4 -15 -28 -41 -54 -26 -26 -47 -52 -47 -57 0 -4 23 17
51 48 94 104 72 59 -26 -55 l-97 -113 101 105 c55 58 100 100 101 94 0 -6 -7
-17 -15 -24 -9 -7 -29 -32 -46 -54 -23 -30 -17 -26 23 17 29 31 56 57 60 57 3
0 9 -7 12 -16 4 -11 -11 -37 -45 -78 l-52 -61 61 60 c34 33 62 56 62 51 0 -4
-21 -33 -47 -64 l-46 -57 46 48 c51 51 68 61 44 25 -24 -38 -156 -174 -157
-162 0 6 9 19 21 30 11 10 25 28 31 39 5 11 -6 2 -25 -20 -19 -22 -39 -37 -43
-32 -4 4 3 18 16 32 13 14 19 25 14 24 -5 0 -38 -35 -73 -77 -64 -77 -64 -77
-13 -27 29 27 52 45 52 39 0 -5 -5 -15 -12 -22 -8 -8 -9 -12 -1 -12 6 0 13 6
16 13 2 6 8 9 12 5 5 -5 1 -16 -8 -26 -10 -10 -17 -22 -17 -26 0 -4 15 10 33
31 17 21 55 62 84 93 28 30 60 66 71 80 11 14 23 22 27 19 3 -4 -34 -51 -82
-106 -104 -116 -129 -149 -85 -109 28 27 44 26 25 0 -5 -5 35 35 88 90 71 74
103 101 123 103 26 2 25 -1 -31 -65 -32 -37 -76 -87 -99 -112 -23 -25 -54 -61
-69 -80 -15 -19 10 5 56 55 164 175 188 200 193 195 3 -3 -14 -26 -36 -50 -23
-25 -58 -62 -77 -84 -20 -21 -28 -35 -19 -30 9 5 42 38 73 74 52 60 85 89 85
75 0 -3 -56 -67 -124 -143 -120 -132 -213 -244 -130 -157 34 37 149 162 237
260 19 22 38 37 41 35 5 -5 -57 -78 -168 -200 -18 -19 -49 -55 -70 -80 -21
-25 6 2 60 60 55 57 124 131 155 164 l57 60 45 -24 c86 -45 86 -46 48 -83 -25
-24 -30 -26 -22 -10 6 12 16 25 21 28 6 3 10 11 10 16 0 6 -4 7 -10 4 -5 -3
-10 0 -10 7 -1 7 -32 -21 -70 -62 -38 -41 -67 -77 -64 -79 4 -4 13 5 87 88 21
24 41 41 43 38 5 -4 -51 -70 -133 -159 -29 -31 -53 -60 -53 -65 0 -4 21 15 46
42 25 28 61 67 81 88 19 22 37 36 41 33 3 -4 -3 -14 -14 -25 -10 -10 -46 -49
-79 -87 -33 -37 -83 -93 -112 -123 -28 -31 -50 -57 -48 -59 3 -3 80 76 125
128 11 13 23 20 26 17 6 -6 -151 -188 -168 -195 -12 -5 -10 12 5 28 6 8 2 6
-11 -5 -27 -22 -116 -30 -104 -9 4 7 45 54 92 105 47 51 90 97 95 103 6 6 52
57 104 114 51 56 89 102 83 102 -5 0 -25 -17 -43 -37 -45 -53 -158 -179 -267
-299 -70 -78 -98 -102 -116 -100 -16 1 -22 6 -18 16 4 12 2 13 -9 3 -19 -18
-34 -16 -19 2 19 23 3 18 -20 -7 -27 -29 -35 -18 -10 15 32 40 23 40 -15 -1
-19 -20 -35 -32 -35 -26 0 6 7 17 15 24 8 7 15 17 15 22 0 5 -14 -4 -31 -21
-38 -38 -45 -39 -22 -3 l17 27 -32 -29 c-18 -17 -32 -25 -32 -18 0 6 5 14 10
17 6 3 10 12 10 18 -1 7 -10 1 -21 -13 -16 -19 -31 -25 -65 -25 -47 -1 -53 5
-29 25 9 7 25 27 37 44 11 17 -1 7 -27 -21 -26 -29 -52 -53 -57 -53 -5 0 -6 5
-3 10 9 14 -8 13 -23 -2 -16 -16 -16 4 1 22 6 7 -1 3 -18 -9 -17 -13 -31 -18
-33 -12 -2 6 -9 8 -15 4 -14 -9 -87 -11 -87 -2 0 3 9 14 20 24 11 10 20 23 20
29 0 6 -16 -7 -34 -29 -32 -38 -64 -45 -35 -8 11 15 10 15 -9 -1 -12 -11 -25
-16 -28 -13 -4 3 -16 2 -27 -4 -14 -8 -18 -8 -13 0 10 15 -7 14 -22 -1 -24
-24 -11 8 15 37 60 68 64 77 7 18 -67 -70 -91 -83 -49 -25 l28 37 -34 -32
c-43 -40 -58 -43 -29 -5 56 71 204 222 214 219 6 -3 26 6 44 20 17 13 32 21
32 18 0 -4 12 3 27 14 33 27 44 19 12 -8 -13 -11 -19 -20 -12 -21 6 0 21 12
33 27 20 26 60 59 60 49 0 -2 -6 -11 -12 -18 -48 -51 -40 -52 10 -1 41 40 60
66 56 77 -4 10 2 17 19 21 29 8 81 68 90 106 4 14 20 38 36 55 22 22 28 35 24
56 -4 20 -1 27 13 31 29 7 37 7 62 1z m2857 -71 l-28 -38 29 28 c31 28 55 37
35 13 -6 -7 -9 -20 -6 -28 3 -8 -3 -23 -15 -33 -11 -10 -20 -23 -20 -29 0 -6
12 2 26 17 14 16 28 26 31 23 5 -5 -95 -123 -133 -158 -16 -13 -21 -14 -31 -3
-9 10 -8 18 9 37 11 12 31 36 44 52 14 16 28 26 31 22 4 -3 -5 -19 -18 -34
-55 -61 -60 -74 -9 -24 43 42 51 55 40 62 -12 7 -9 15 15 40 16 16 25 30 19
29 -5 0 -40 -36 -78 -80 -38 -44 -71 -78 -73 -75 -8 7 9 31 60 85 27 28 44 51
39 51 -5 0 -15 -7 -22 -15 -7 -9 -15 -13 -18 -10 -3 3 10 21 28 40 18 19 31
37 29 40 -3 2 -22 -16 -43 -40 -20 -25 -32 -45 -27 -45 6 0 8 -7 5 -15 -4 -8
-11 -15 -16 -15 -6 0 -7 7 -4 16 3 8 -18 -11 -46 -43 -95 -105 -168 -178 -167
-168 0 6 31 44 69 85 38 41 67 77 64 79 -2 2 -5 2 -7 0 -1 -2 -40 -45 -85 -95
-63 -70 -88 -92 -106 -90 -24 1 -24 1 -5 27 10 14 25 32 34 39 9 7 25 27 37
44 11 17 -9 -1 -46 -40 -61 -67 -69 -72 -106 -71 -22 0 -40 3 -40 6 0 7 80 91
86 91 9 0 3 -9 -30 -46 -55 -62 -34 -50 34 18 69 71 79 65 11 -7 -24 -25 -41
-48 -38 -51 2 -3 33 27 67 66 35 39 69 69 76 66 6 -2 20 4 30 16 24 26 60 46
49 26 -5 -7 3 -2 18 11 14 13 24 28 23 35 -2 6 -1 8 1 4 2 -4 12 -4 21 -1 15
6 14 3 -2 -15 -11 -12 -16 -22 -13 -22 4 0 39 33 78 74 39 41 77 72 84 70 7
-3 16 -1 20 5 3 6 9 11 12 11 3 0 -7 -17 -22 -37z m210 -43 c-3 -6 1 -7 9 -4
28 11 17 -6 -53 -84 -120 -134 -133 -148 -127 -129 4 14 2 17 -12 13 -9 -3
-23 -2 -31 3 -11 7 -1 24 47 78 34 39 62 73 62 77 0 4 -30 -27 -67 -70 -37
-42 -69 -71 -71 -65 -2 6 17 32 42 58 24 26 43 49 40 52 -2 2 -29 -24 -60 -58
-31 -34 -59 -59 -62 -57 -5 6 78 108 125 155 30 28 43 20 17 -11 l-19 -23 21
18 c12 10 28 15 38 11 20 -8 20 -13 -1 -36 -9 -10 -14 -20 -12 -22 2 -3 27 20
54 49 44 48 77 73 60 45z m25 -47 c-19 -25 -95 -111 -157 -181 -13 -14 -23
-20 -23 -13 0 10 68 93 164 199 35 38 48 35 16 -5z m57 1 c4 -10 -9 -31 -38
-60 -41 -42 -66 -53 -38 -17 11 15 10 15 -9 -1 -14 -12 -18 -22 -12 -26 6 -4
-6 -27 -31 -58 -44 -57 -76 -73 -35 -19 38 50 31 52 -14 4 -22 -23 -40 -37
-40 -32 0 14 188 225 201 225 5 0 12 -7 16 -16z m-2975 -39 c-41 -52 -133
-147 -138 -142 -6 6 137 167 149 167 5 0 0 -11 -11 -25z m2553 -15 c-16 -16
-31 -28 -34 -25 -2 3 8 19 24 35 16 16 31 28 34 25 2 -3 -8 -19 -24 -35z m439
15 c-6 -16 -24 -21 -24 -7 0 11 11 22 21 22 5 0 6 -7 3 -15z m-31 -72 c-32
-38 -63 -75 -67 -83 -9 -17 42 35 96 99 21 25 41 42 44 38 4 -3 -27 -42 -67
-86 -45 -50 -76 -77 -80 -70 -4 7 -13 8 -20 4 -17 -10 -7 2 80 103 35 40 66
70 69 67 3 -2 -22 -35 -55 -72z m367 62 c0 -3 -11 -18 -25 -33 -25 -27 -25
-27 -22 -4 2 13 10 28 18 33 16 10 29 12 29 4z m-360 -12 c0 -5 -32 -42 -71
-83 -85 -90 -88 -78 -4 19 56 65 75 82 75 64z m70 -46 l-23 -32 31 29 c31 29
32 29 52 11 26 -23 25 -27 -6 -65 -36 -43 -42 -30 -8 17 l28 38 -37 -34 c-20
-19 -37 -30 -37 -25 0 6 11 21 25 34 14 13 25 28 25 34 0 5 -12 -2 -27 -15
-16 -14 -38 -26 -51 -27 -25 -1 -26 -1 22 55 29 34 33 18 6 -20z m-4327 6 c-5
-12 -3 -14 8 -7 20 13 62 13 49 0 -22 -22 -8 -28 14 -7 18 17 29 20 41 14 14
-8 10 -16 -29 -59 -26 -27 -43 -40 -39 -29 6 19 6 19 -18 -1 -43 -38 -55 -38
-19 0 19 20 36 32 38 26 5 -13 62 38 62 54 0 5 -13 -3 -30 -19 -20 -19 -30
-24 -30 -14 0 8 -22 -10 -49 -38 -67 -73 -75 -67 -11 7 29 34 50 63 48 66 -3
2 -29 -22 -58 -56 -28 -33 -57 -60 -63 -60 -6 0 11 22 38 50 27 27 46 53 41
57 -4 4 -32 -20 -62 -52 l-56 -60 46 56 c25 31 42 59 38 63 -7 8 17 26 35 26
7 0 10 -7 6 -17z m4705 8 c18 -11 -10 -34 -32 -25 -13 5 -14 9 -5 20 13 16 19
17 37 5z m-4556 -33 c-7 -7 -12 -16 -12 -22 0 -6 5 -5 12 2 20 20 32 13 13 -8
-19 -20 -41 -28 -30 -10 3 6 1 10 -4 10 -6 0 -11 -4 -11 -9 0 -5 -8 -12 -17
-16 -10 -3 -3 10 16 29 19 20 37 36 40 36 3 0 0 -5 -7 -12z m1467 -14 c-10
-13 -10 -17 1 -24 10 -6 -19 -44 -111 -146 -193 -213 -209 -230 -209 -216 0
11 81 107 139 163 45 44 133 149 124 149 -4 0 -28 -25 -52 -55 -39 -49 -61
-67 -61 -49 0 7 172 194 178 194 3 0 -1 -7 -9 -16z m2811 -9 c-15 -18 1 -20
18 -3 7 7 12 8 12 3 -1 -12 -19 -34 -45 -57 -17 -13 -22 -14 -32 -3 -10 11 -8
20 13 44 14 17 30 31 36 31 6 0 5 -6 -2 -15z m59 -17 l-22 -33 36 34 c21 19
37 30 37 24 0 -6 -7 -16 -15 -23 -8 -7 -12 -17 -8 -24 3 -6 3 -8 -2 -4 -4 4
-14 3 -21 -3 -8 -7 -19 -7 -29 -2 -14 8 -12 13 11 36 36 36 40 34 13 -5z
m-4599 -18 c-17 -22 -36 -40 -42 -40 -6 0 1 12 15 26 15 15 24 30 22 34 -5 8
10 17 28 19 5 1 -6 -17 -23 -39z m1764 28 c11 -11 3 -25 -46 -80 -33 -38 -55
-68 -50 -68 6 0 15 8 21 17 5 10 13 14 17 10 4 -4 -8 -23 -26 -42 -32 -33 -56
-41 -30 -10 8 10 9 15 1 15 -20 0 -11 14 49 80 33 36 55 67 50 68 -10 4 -14
22 -5 22 3 0 12 -6 19 -12z m875 -3 c48 -6 80 -18 74 -29 -5 -7 -2 -7 8 1 17
14 36 13 247 -13 26 -3 40 -9 36 -16 -4 -7 0 -7 13 0 10 6 50 12 88 13 39 2
81 6 95 11 14 4 60 9 102 11 43 2 84 9 93 17 8 7 15 9 15 4 0 -5 4 -3 9 5 8
12 14 12 40 1 17 -7 42 -12 56 -12 14 0 22 -4 19 -9 -3 -5 -15 -9 -28 -9 -13
0 -41 -13 -62 -28 -61 -44 -64 -45 -58 -25 3 10 -12 -2 -34 -26 -23 -25 -42
-39 -46 -33 -4 6 -14 8 -24 5 -13 -5 -12 -1 6 19 35 39 26 45 -13 8 -33 -32
-50 -31 -22 0 6 8 -1 4 -17 -10 -16 -14 -30 -20 -33 -14 -4 11 -167 -5 -190
-19 -7 -4 -67 -9 -135 -11 -99 -3 -127 0 -147 12 -13 9 -30 17 -38 18 -8 2
-23 10 -32 18 -10 9 -25 16 -35 16 -19 0 -92 -35 -100 -49 -3 -5 -36 -7 -73
-4 -38 2 -92 4 -122 3 -37 -1 -59 4 -71 15 -11 10 -23 14 -28 11 -6 -3 -25 0
-43 8 -19 8 -51 13 -71 11 -21 -2 -44 3 -55 11 -16 12 -7 14 72 13 50 -1 98
-6 107 -10 13 -7 16 -6 12 4 -4 11 10 16 58 21 178 18 288 44 288 68 0 5 5 6
11 2 7 -4 19 -8 28 -9z m957 -24 c-22 -23 -31 -27 -41 -18 -16 15 1 41 21 33
7 -3 16 -1 19 4 4 6 11 10 17 10 7 0 -1 -13 -16 -29z m324 12 c0 -13 -72 -85
-78 -78 -3 3 12 23 33 45 41 42 45 45 45 33z m-2099 -17 c16 10 -24 -48 -46
-66 -9 -7 -25 -27 -37 -44 -11 -17 7 -2 40 34 34 36 61 60 62 54 0 -5 12 -14
26 -20 l26 -9 -28 -31 c-65 -70 -154 -173 -154 -178 0 -6 79 76 155 162 21 23
40 40 43 38 4 -5 -86 -115 -133 -161 -11 -11 -39 -42 -62 -70 -23 -27 -45 -46
-49 -42 -4 4 3 19 17 35 13 15 5 9 -19 -13 -41 -39 -58 -40 -24 -2 16 19 16
20 -5 9 -12 -7 -23 -17 -26 -24 -2 -7 -8 -10 -12 -5 -5 4 4 20 18 35 15 16 27
32 27 36 0 5 -18 -11 -39 -35 -21 -24 -42 -41 -45 -38 -4 3 21 36 55 73 34 36
71 78 82 94 38 50 -51 -38 -106 -105 -49 -61 -76 -81 -63 -46 6 15 5 15 -11 2
-18 -15 -63 -24 -63 -12 0 3 19 27 42 52 103 114 141 152 146 146 3 -3 -12
-24 -34 -48 -56 -59 -75 -89 -31 -48 47 45 48 28 1 -22 -20 -21 -34 -40 -31
-43 2 -3 19 12 37 33 18 21 74 82 124 136 91 99 135 160 56 79 -23 -24 -44
-41 -47 -38 -3 3 14 26 38 51 27 28 45 41 50 34 4 -7 12 -8 20 -3z m2119 -3
c0 -10 -62 -73 -72 -73 -5 0 6 18 23 40 30 37 49 50 49 33z m14 -27 c-3 -9
-10 -16 -15 -16 -5 0 -9 -5 -9 -12 0 -7 16 3 35 22 19 19 35 29 35 24 0 -18
-58 -67 -70 -59 -7 4 -16 1 -21 -6 -4 -7 -11 -10 -15 -6 -4 4 8 23 26 42 35
36 45 39 34 11z m76 15 c0 -17 -48 -66 -56 -58 -4 4 5 21 21 37 31 33 35 35
35 21z m677 -13 c0 -13 -1 -18 -4 -11 -2 7 -12 10 -21 7 -14 -5 -13 -2 2 10
11 9 20 16 21 16 0 0 1 -10 2 -22z m-643 -41 c-16 -19 -15 -19 9 2 15 14 27
20 27 14 0 -14 -39 -48 -47 -40 -3 4 -12 2 -20 -4 -20 -18 -15 5 7 29 34 36
22 38 -15 2 -43 -42 -47 -28 -4 16 28 29 33 31 47 18 13 -13 12 -17 -4 -37z
m549 38 c-3 -9 -8 -14 -10 -11 -3 3 -2 9 2 15 9 16 15 13 8 -4z m-221 -17 c-7
-7 -12 -8 -12 -2 0 14 12 26 19 19 2 -3 -1 -11 -7 -17z m-868 -29 c-3 -5 2 -9
11 -9 9 0 14 -4 11 -9 -3 -4 6 -6 19 -3 13 2 38 -1 55 -6 17 -6 28 -7 25 -3
-7 13 29 20 48 10 8 -5 27 -10 41 -11 27 -2 34 -12 16 -23 -5 -3 -10 -1 -10 6
0 7 -2 10 -5 7 -3 -3 -3 -13 1 -22 6 -15 10 -14 35 10 16 15 29 23 29 17 0
-19 -42 -48 -74 -50 -127 -8 -405 -7 -390 2 9 6 29 20 44 33 15 12 35 22 44
22 9 0 30 13 48 30 24 23 34 27 44 19 8 -6 11 -15 8 -20z m883 3 c-10 -10 -17
-22 -17 -26 0 -4 11 6 25 21 13 15 25 22 25 15 0 -6 -20 -33 -45 -60 -25 -26
-45 -42 -45 -36 0 5 5 15 11 21 7 7 5 12 -8 17 -9 4 -14 4 -10 0 14 -15 -13
-30 -47 -26 -27 3 -33 8 -29 21 5 13 3 14 -8 4 -7 -7 -18 -13 -23 -13 -6 0 -2
7 8 15 10 8 23 12 27 9 5 -3 9 0 9 5 0 6 7 11 15 11 9 0 12 -6 9 -15 -9 -23 4
-18 32 13 19 21 23 23 18 7 -5 -15 1 -13 27 12 34 33 55 37 26 5z m207 -3
c-19 -22 -19 -22 6 -10 23 11 24 11 6 -3 -12 -10 -20 -29 -21 -50 0 -26 2 -32
11 -25 8 6 14 6 18 1 7 -11 -21 -25 -34 -17 -5 3 -11 1 -15 -5 -3 -5 -11 -10
-17 -10 -6 0 -2 10 10 23 12 13 22 27 22 32 0 5 -14 -6 -31 -24 -16 -18 -33
-30 -36 -27 -4 4 10 23 30 44 20 21 37 42 37 47 0 5 -20 -13 -44 -41 -24 -27
-47 -46 -50 -43 -3 3 3 15 14 27 11 12 20 25 20 29 0 4 -14 -7 -30 -26 -25
-28 -34 -32 -51 -25 -21 10 -21 10 7 44 27 34 26 34 -14 -5 -51 -47 -56 -35
-7 18 29 32 37 36 49 25 12 -11 10 -18 -12 -48 l-25 -35 36 34 c19 18 40 31
45 27 5 -3 23 10 41 29 17 19 37 35 43 35 6 0 3 -10 -8 -21z m-504 -14 c-7 -8
-17 -15 -23 -15 -5 0 -2 9 8 20 21 23 35 19 15 -5z m40 5 c-8 -5 -17 -7 -19
-4 -3 3 1 9 9 14 8 5 17 7 19 4 3 -3 -1 -9 -9 -14z m40 10 c0 -5 -5 -10 -11
-10 -5 0 -7 5 -4 10 3 6 8 10 11 10 2 0 4 -4 4 -10z m610 6 c0 -2 -7 -7 -16
-10 -8 -3 -12 -2 -9 4 6 10 25 14 25 6z m-2985 -146 c-65 -72 -120 -129 -122
-126 -7 7 20 39 132 160 54 58 100 104 103 101 3 -2 -48 -63 -113 -135z m124
102 c-69 -84 -195 -222 -202 -222 -13 0 5 23 117 149 54 62 101 110 103 107 3
-3 -5 -18 -18 -34z m2491 -12 c-17 -22 -36 -40 -42 -40 -11 0 0 18 41 62 37
41 38 25 1 -22z m-2466 -3 c-17 -17 -68 -74 -114 -125 -46 -51 -86 -90 -89
-87 -3 4 -1 9 5 13 6 4 17 16 25 28 27 40 192 214 197 209 3 -3 -8 -20 -24
-38z m54 24 c-1 -5 -27 -34 -55 -64 -29 -31 -53 -59 -53 -64 1 -4 32 26 70 67
38 41 69 69 70 63 0 -20 -132 -155 -140 -143 -4 7 -25 -10 -53 -42 -25 -29
-48 -50 -52 -47 -3 3 8 21 25 40 17 19 63 71 103 116 64 74 95 100 85 74z m55
-15 c-4 -7 -40 -49 -80 -92 -39 -44 -81 -90 -92 -104 -10 -14 -22 -22 -26 -18
-4 3 31 48 77 98 46 51 89 101 97 111 15 22 36 26 24 5z m21 -19 c-40 -50
-184 -201 -188 -196 -2 2 18 29 46 59 27 30 72 81 100 112 49 56 80 74 42 25z
m-6 -45 c-29 -31 -73 -81 -97 -109 -24 -29 -48 -53 -53 -53 -12 0 55 82 132
163 30 32 57 64 59 70 3 9 6 8 9 -1 2 -7 -20 -39 -50 -70z m105 44 c-6 -10
-93 -112 -149 -174 -19 -21 -74 -38 -74 -23 0 3 27 35 61 71 33 36 76 84 95
106 25 30 40 41 54 37 11 -3 17 -10 13 -17z m-1560 -18 c-16 -18 -54 -59 -83
-90 -73 -79 -77 -64 -6 17 32 36 53 65 47 65 -6 0 -11 -3 -11 -7 0 -5 -25 -33
-54 -64 -29 -31 -58 -64 -62 -72 -5 -9 -24 -18 -42 -22 -36 -6 -36 -1 -3 40 9
11 -1 5 -22 -13 -35 -29 -77 -43 -77 -24 0 4 23 30 51 57 53 51 55 47 10 -15
-14 -19 1 -7 33 28 34 36 64 61 72 58 7 -3 16 -1 19 4 6 10 45 33 45 27 0 -2
-29 -35 -65 -73 -36 -38 -65 -73 -65 -79 1 -5 10 1 21 15 56 68 153 160 159
150 4 -7 13 -3 25 10 10 11 23 20 29 20 5 0 -4 -15 -21 -32z m1979 5 c-11 -16
-30 -37 -42 -48 -12 -11 -45 -47 -72 -80 -30 -36 -12 -20 43 38 93 96 147 137
73 55 -138 -156 -133 -152 -180 -154 -24 -1 -44 -1 -44 2 0 2 16 22 36 44 20
22 33 40 30 40 -4 0 -24 -19 -46 -42 -26 -28 -48 -43 -64 -43 -25 -1 -25 0 -9
25 15 24 14 23 -16 -4 -55 -52 -41 -23 27 54 51 58 72 75 94 77 33 2 32 0 -35
-72 -21 -22 -43 -49 -48 -60 -6 -12 1 -7 17 10 71 80 92 102 115 120 21 18 20
15 -6 -20 -29 -39 -28 -39 29 13 32 28 61 50 66 47 4 -3 13 2 20 10 22 27 32
16 12 -12z m1258 -87 c-51 -58 -97 -106 -102 -106 -9 0 65 95 97 125 6 6 17
19 24 30 8 11 -25 -20 -72 -70 -48 -49 -86 -84 -87 -76 0 10 -3 11 -14 2 -9
-8 -16 -8 -20 -2 -4 6 -14 7 -24 4 -12 -5 -11 1 7 20 14 15 22 29 19 32 -3 3
-17 -10 -32 -30 -25 -33 -31 -35 -68 -31 -22 3 -43 8 -46 11 -3 2 -11 0 -19
-6 -30 -26 -9 10 37 62 36 41 57 57 75 57 21 0 23 -3 14 -15 -8 -9 -14 -10
-19 -3 -6 10 -34 -16 -74 -70 -11 -14 0 -5 23 19 23 24 45 41 48 37 4 -3 -9
-22 -27 -41 -18 -19 -31 -37 -28 -40 2 -3 28 21 56 54 37 42 58 59 76 59 l25
0 -19 -26 c-34 -42 -14 -36 29 10 22 24 41 39 41 33 0 -5 -17 -28 -38 -50 -39
-41 -67 -90 -38 -66 10 9 15 9 18 0 2 -6 30 19 62 55 32 37 57 69 55 71 -2 2
-27 -23 -54 -56 -47 -55 -65 -69 -65 -51 0 9 117 132 126 132 3 0 2 -4 -1 -10
-3 -5 -2 -10 4 -10 5 0 13 5 16 11 4 6 13 8 20 5 7 -2 23 6 36 20 12 13 24 22
27 20 2 -3 -38 -52 -88 -110z m-1646 92 c-16 -27 -167 -188 -176 -188 -6 0 25
39 69 87 43 48 83 93 88 100 13 16 28 17 19 1z m26 -7 c0 -5 -16 -24 -35 -42
-19 -18 -32 -35 -30 -38 3 -3 26 15 50 39 65 64 55 39 -15 -37 -33 -36 -60
-71 -60 -77 0 -6 4 -4 10 4 5 8 12 11 16 7 4 -4 0 -15 -10 -25 -14 -13 -20
-14 -23 -4 -4 10 -10 9 -26 -5 -20 -17 -20 -17 -13 1 5 16 4 17 -9 6 -11 -9
-15 -10 -15 0 0 10 148 180 157 180 1 0 3 -4 3 -9z m441 -5 c15 9 10 -13 -6
-26 -9 -7 -13 -15 -11 -18 3 -2 13 3 22 12 9 9 19 15 21 12 3 -3 -23 -37 -57
-76 -35 -38 -61 -73 -58 -75 3 -3 33 28 67 70 34 41 67 75 73 75 12 0 5 -10
-69 -96 -39 -45 -60 -61 -78 -61 -25 0 -33 11 -16 21 5 4 28 30 51 59 37 45
34 43 -22 -15 -35 -38 -68 -68 -72 -68 -7 0 69 96 94 120 3 3 13 16 24 30 10
14 -20 -15 -68 -65 -86 -90 -121 -109 -45 -25 85 95 134 141 137 131 2 -6 8
-9 13 -5z m1278 -8 c-11 -23 -11 -23 15 1 46 43 28 3 -24 -51 -27 -29 -50 -57
-49 -63 0 -5 9 1 20 15 47 57 102 111 107 105 3 -3 -8 -20 -24 -38 l-29 -32
35 32 c20 19 44 31 58 30 12 0 22 -3 22 -5 0 -11 -143 -162 -153 -162 -6 0 9
21 34 48 74 78 103 112 97 112 -9 0 -80 -71 -122 -123 -27 -33 -42 -44 -47
-36 -6 10 -11 10 -23 0 -19 -16 -21 -1 -3 19 6 8 0 4 -15 -9 -47 -41 -40 -18
13 39 81 90 78 102 -4 15 -42 -44 -76 -75 -77 -69 0 10 167 194 176 194 3 0
-1 -10 -7 -22z m-1659 -43 c-52 -53 -68 -51 -19 3 18 20 3 8 -34 -28 -37 -35
-67 -61 -67 -56 0 4 23 35 52 67 36 42 57 59 70 56 10 -3 21 -1 24 5 3 5 9 7
12 3 3 -3 -14 -25 -38 -50z m965 45 c16 -7 11 -9 -20 -9 -22 0 -49 4 -60 9
-16 7 -11 9 20 9 22 0 49 -4 60 -9z m-1645 -15 c-7 -9 -15 -13 -17 -11 -7 7 7
26 19 26 6 0 6 -6 -2 -15z m780 7 c0 -8 -145 -172 -152 -172 -13 0 -9 19 6 27
8 4 31 31 51 58 34 46 32 45 -23 -15 -33 -36 -63 -62 -66 -59 -6 6 -3 10 84
108 39 44 60 60 77 59 13 -2 23 -4 23 -6z m409 -19 c-7 -10 -35 -42 -62 -71
-27 -29 -47 -56 -43 -59 3 -3 16 7 28 23 41 53 111 124 121 124 6 0 -2 -15
-19 -32 -52 -58 -68 -85 -20 -34 27 28 57 50 71 52 14 1 25 0 25 -4 0 -3 -23
-32 -51 -64 -67 -77 -54 -74 19 4 47 49 62 59 75 52 15 -8 9 -19 -41 -75 -43
-50 -63 -65 -84 -65 -15 -1 -25 4 -21 9 3 5 -4 4 -16 -2 -26 -14 -27 -2 -3 25
71 77 91 105 30 42 -41 -43 -79 -78 -83 -78 -5 0 2 11 15 25 32 34 13 32 -22
-2 -18 -17 -28 -22 -28 -13 0 11 -3 11 -12 2 -7 -7 -16 -12 -21 -12 -10 0 32
54 96 123 43 45 73 65 46 30z m1263 -46 c-29 -29 -52 -57 -52 -62 0 -6 28 21
63 59 53 59 66 68 81 59 17 -10 15 -14 -24 -57 -43 -47 -46 -64 -3 -24 13 12
23 17 23 12 0 -17 -57 -67 -62 -54 -2 7 -11 4 -22 -9 -11 -12 -14 -21 -8 -21
7 0 12 5 12 10 0 6 4 10 10 10 5 0 7 -7 4 -15 -6 -14 -54 -18 -54 -4 0 3 27
36 60 72 33 36 60 69 60 74 0 9 -120 -119 -120 -129 0 -4 -10 -12 -22 -19 -18
-10 -20 -9 -14 7 7 17 6 17 -14 -1 -37 -34 -21 -2 31 59 61 72 90 99 97 91 3
-3 -18 -29 -46 -58z m-1323 16 c-42 -46 -49 -53 -83 -93 -15 -18 -30 -30 -33
-26 -4 3 7 21 23 39 74 82 109 117 118 117 5 0 -6 -17 -25 -37z m1441 2 c-13
-14 -26 -23 -28 -20 -3 3 5 16 18 30 13 14 26 23 28 20 3 -3 -5 -16 -18 -30z
m67 17 c8 -5 3 -17 -18 -41 -44 -51 -35 -51 16 -1 62 61 56 41 -11 -34 -39
-45 -62 -63 -79 -63 -19 0 -23 3 -16 16 5 9 19 25 30 35 12 11 21 24 21 30 0
6 -20 -12 -46 -39 -62 -69 -51 -41 16 39 55 65 65 72 87 58z m-1243 -13 c4 6
12 11 18 11 6 0 -11 -25 -37 -55 -61 -72 -49 -71 21 3 30 31 51 48 45 37 -5
-11 -23 -35 -40 -53 -17 -18 -31 -36 -31 -40 0 -4 24 19 53 51 58 64 86 78 39
20 -64 -80 -93 -107 -102 -94 -5 9 -10 10 -14 2 -4 -6 -12 -11 -17 -11 -6 0
-7 6 -3 13 5 8 2 7 -9 -2 -36 -29 -28 1 12 44 22 24 41 48 41 52 0 5 -25 -19
-55 -52 -30 -33 -54 -55 -54 -50 -1 19 112 137 119 125 5 -9 9 -9 14 -1z m476
-3 c17 2 30 0 30 -4 -1 -13 -100 -116 -106 -110 -3 4 13 26 35 51 45 49 57 75
14 33 -30 -30 -46 -27 -18 4 10 11 13 20 7 20 -7 0 -12 -3 -12 -7 -1 -14 -88
-108 -95 -102 -3 4 9 24 27 45 59 68 81 89 85 78 2 -6 17 -10 33 -8z m-370
-21 c-13 -14 -21 -25 -17 -25 3 0 18 12 32 27 21 24 25 25 25 9 0 -15 3 -16
15 -6 34 28 21 2 -25 -50 -51 -58 -79 -66 -34 -9 20 26 16 23 -16 -9 -23 -24
-45 -40 -48 -37 -3 3 7 19 23 35 16 17 26 30 22 30 -4 0 -22 -17 -42 -37 -19
-21 -35 -33 -35 -27 0 15 99 124 113 124 6 0 0 -11 -13 -25z m175 10 c11 1 25
4 32 8 6 4 14 1 17 -5 5 -10 7 -10 12 0 3 6 10 12 16 12 5 0 0 -12 -11 -27
-46 -61 -70 -87 -77 -80 -4 4 8 23 26 42 18 19 31 37 28 40 -2 3 -24 -17 -47
-45 -23 -27 -47 -50 -53 -50 -5 0 9 23 32 50 23 28 38 50 33 50 -5 0 -25 -21
-44 -46 -37 -49 -79 -82 -60 -46 5 10 17 24 25 32 9 7 16 17 16 23 0 6 -15 -6
-32 -27 -29 -33 -89 -59 -88 -39 1 15 99 117 106 110 4 -3 -8 -21 -25 -39 -18
-18 -37 -42 -43 -53 -5 -11 16 8 48 43 31 35 60 60 63 55 3 -4 15 -8 26 -8z
m104 -12 c-70 -79 -98 -107 -103 -103 -6 7 104 130 117 130 6 0 0 -12 -14 -27z
m111 -33 c-54 -62 -70 -77 -70 -63 0 13 100 123 112 123 5 0 -13 -27 -42 -60z
m73 48 c-47 -62 -86 -107 -99 -112 -22 -9 -6 15 50 74 44 46 71 67 49 38z
m729 -15 c-26 -36 -106 -112 -101 -96 6 18 101 123 111 123 5 0 0 -12 -10 -27z
m68 17 c12 -8 7 -17 -29 -54 -25 -25 -42 -48 -39 -51 2 -3 24 17 47 45 23 27
47 50 53 50 6 0 -10 -24 -34 -52 -31 -36 -54 -53 -72 -55 -33 -2 -33 7 0 38
14 13 35 38 46 54 11 17 -7 1 -40 -35 -76 -82 -90 -75 -16 8 59 66 61 67 84
52z m292 -2 c-21 -21 -13 -32 10 -12 l21 19 -19 -33 c-21 -37 -94 -111 -94
-96 0 6 9 19 21 30 11 10 26 28 31 39 9 17 7 16 -16 -4 -14 -14 -26 -19 -26
-13 0 6 5 14 10 17 6 3 10 11 10 17 0 7 -6 6 -15 -2 -20 -17 -19 -1 2 22 17
19 39 25 28 8 -10 -16 11 -12 25 5 7 8 15 15 18 15 3 0 1 -5 -6 -12z m-231
-26 c-5 -10 -17 -24 -25 -32 -9 -7 -16 -16 -16 -21 0 -5 15 8 34 29 19 20 37
34 40 31 3 -3 -17 -30 -45 -60 -28 -30 -48 -46 -45 -36 3 9 1 17 -4 17 -6 0
-10 -4 -10 -10 0 -5 -4 -10 -10 -10 -19 0 -10 16 37 63 50 51 59 57 44 29z
m311 -4 c-7 -7 -12 -8 -12 -2 0 14 12 26 19 19 2 -3 -1 -11 -7 -17z m-4392 8
c0 -2 -16 -21 -35 -42 -27 -30 -37 -36 -44 -25 -6 9 -11 10 -15 2 -4 -6 -19
-11 -33 -11 l-26 0 23 25 c29 31 50 33 24 3 -12 -15 -8 -14 12 5 34 30 54 36
33 10 -8 -10 2 -5 21 10 36 27 40 30 40 23z m4129 -34 l-24 -27 31 28 31 28 0
-33 c0 -18 -5 -40 -11 -48 -6 -8 -1 -6 12 4 12 11 22 14 22 8 0 -7 8 -12 17
-12 14 0 14 -3 5 -12 -10 -10 -15 -10 -21 1 -6 9 -11 10 -15 2 -9 -13 -16 -14
-36 -1 -12 7 -11 12 5 32 11 13 3 7 -18 -11 -20 -19 -37 -30 -37 -25 0 6 6 16
13 23 10 10 9 11 -5 6 -10 -4 -18 -11 -18 -16 0 -5 -5 -9 -11 -9 -12 0 35 67
61 87 25 19 25 5 -1 -25z m-2589 21 c0 -11 -63 -73 -73 -73 -5 0 6 18 24 39
33 38 49 49 49 34z m319 -42 c-30 -38 -49 -51 -49 -34 0 10 73 83 78 78 2 -2
-11 -22 -29 -44z m-2035 14 c-8 -21 6 -19 22 2 7 10 15 15 18 12 3 -3 -2 -14
-11 -25 -13 -14 -33 -20 -73 -21 -44 -2 -50 0 -32 7 13 6 27 8 32 5 4 -2 15 4
25 15 22 24 26 25 19 5z m3221 -25 c-16 -16 -31 -28 -34 -25 -2 3 8 19 24 35
16 16 31 28 34 25 2 -3 -8 -19 -24 -35z m1265 1 c-12 -17 -26 -31 -32 -31 -10
0 -4 11 31 53 24 28 25 11 1 -22z m10 -26 c-7 -9 -15 -13 -18 -10 -3 2 1 11 8
20 7 9 15 13 18 10 3 -2 -1 -11 -8 -20z m-1400 5 c0 -5 -5 -10 -11 -10 -5 0
-7 5 -4 10 3 6 8 10 11 10 2 0 4 -4 4 -10z M1295 1480 c-16 -16 -26 -32 -24
-35 3 -3 18 9 34 25 16 16 26 32 24 35 -3 3 -18 -9 -34 -25z M1430 1427 c-8
-7 -26 -26 -40 -42 -17 -20 -11 -17 18 10 38 35 47 46 40 45 -2 0 -10 -6 -18
-13z M1230 1405 c-13 -14 -19 -25 -13 -25 6 0 18 11 27 25 9 14 15 25 13 25
-2 0 -14 -11 -27 -25z M1221 1313 c-51 -56 -80 -70 -40 -19 33 42 18 37 -20
-6 -18 -21 -26 -36 -17 -32 30 11 16 -13 -45 -80 -33 -36 -57 -66 -52 -65 11
1 240 259 230 259 -2 0 -28 -25 -56 -57z M1287 1270 c-68 -73 -94 -106 -64
-81 22 18 141 151 134 151 -2 0 -34 -32 -70 -70z M1493 1264 c-37 -42 -89
-100 -115 -128 -25 -28 -44 -53 -41 -56 2 -3 11 3 18 14 8 10 51 58 96 107 88
96 123 139 115 139 -2 0 -35 -34 -73 -76z M1700 1303 c0 -5 -32 -42 -70 -83
-71 -76 -95 -118 -39 -64 45 42 32 15 -19 -41 -43 -46 -73 -57 -36 -13 10 13
4 10 -14 -6 -36 -33 -39 -38 -17 -30 24 10 17 -8 -18 -46 -17 -20 -41 -47 -51
-60 -19 -25 47 45 217 229 78 85 106 124 77 106 -5 -3 -10 -1 -10 4 0 12 -20
15 -20 4z m18 -22 c-7 -18 -90 -102 -96 -97 -3 4 8 21 25 39 16 17 36 40 44
49 15 18 33 24 27 9z M1226 1242 l-29 -37 36 34 c39 36 42 41 30 41 -5 0 -21
-17 -37 -38z M1191 1238 c-14 -23 -14 -23 8 -4 22 20 25 26 13 26 -4 0 -13
-10 -21 -22z M1110 1233 c0 -5 -21 -30 -47 -58 -81 -88 -91 -104 -15 -27 64
67 83 92 67 92 -3 0 -5 -3 -5 -7z M1093 1131 c-83 -92 -81 -99 2 -11 57 60 72
80 63 80 -2 0 -31 -31 -65 -69z M1235 1129 c-22 -22 -32 -37 -22 -34 27 11 20
-8 -18 -45 -19 -18 -33 -35 -31 -37 2 -3 22 15 44 39 27 28 36 45 29 50 -8 5
-2 17 18 38 16 16 27 30 24 30 -3 0 -23 -18 -44 -41z M1135 1140 c-16 -17 -16
-20 -3 -15 9 4 19 13 22 21 7 19 2 18 -19 -6z M1440 1125 c-18 -19 -32 -36
-29 -38 2 -2 19 14 38 35 42 48 36 50 -9 3z M1156 1122 l-19 -27 26 24 c28 26
32 31 20 31 -5 0 -17 -13 -27 -28z M849 1057 c-37 -39 -66 -73 -64 -75 3 -4
103 101 122 128 24 35 10 21 -58 -53z M1275 1100 c-10 -11 -16 -22 -14 -24 2
-2 12 7 22 20 22 29 17 32 -8 4z M894 1068 c-22 -24 -51 -56 -64 -73 l-25 -30
29 25 c29 26 111 120 104 120 -2 0 -22 -19 -44 -42z M920 1057 c-40 -47 -30
-49 13 -2 18 21 40 55 35 55 -2 0 -23 -24 -48 -53z M1595 1062 l-38 -47 44 42
c23 23 41 45 38 47 -3 3 -22 -16 -44 -42z M816 1062 l-19 -27 26 24 c28 26 32
31 20 31 -5 0 -17 -13 -27 -28z M1056 1052 l-30 -37 37 34 c38 36 42 42 30 40
-5 0 -21 -17 -37 -37z M1125 1050 c-21 -22 -37 -42 -34 -44 2 -2 21 16 42 40
48 55 44 57 -8 4z M1280 1065 c-13 -14 -22 -27 -19 -29 2 -2 14 10 27 25 29
36 24 38 -8 4z M1106 1064 c-23 -23 -20 -30 4 -9 11 10 20 20 20 22 0 7 -9 2
-24 -13z M1366 1042 l-29 -37 34 32 c18 18 31 35 28 37 -3 3 -18 -12 -33 -32z
M1295 1045 c-11 -13 -44 -51 -73 -84 -30 -34 -52 -61 -50 -61 3 0 40 38 82 85
43 47 74 85 69 84 -4 0 -17 -11 -28 -24z M895 992 c-59 -64 -113 -133 -68 -87
62 63 136 146 132 148 -2 2 -31 -25 -64 -61z M960 1025 c-19 -19 -29 -35 -23
-35 6 0 23 16 37 35 15 19 25 35 23 35 -1 0 -18 -16 -37 -35z M1159 1051 c-2
-5 -23 -30 -47 -55 -24 -25 -39 -46 -34 -46 4 0 19 12 32 28 12 15 32 37 43
49 11 13 18 25 15 29 -3 3 -8 1 -9 -5z M1209 1023 l-24 -28 28 24 c25 23 32
31 24 31 -2 0 -14 -12 -28 -27z M1416 983 c-32 -35 -52 -60 -45 -57 17 8 114
113 108 118 -2 1 -30 -26 -63 -61z M984 1008 l-29 -33 33 29 c30 28 37 36 29
36 -2 0 -16 -15 -33 -32z M1315 1030 c-3 -5 -1 -10 4 -10 6 0 11 5 11 10 0 6
-2 10 -4 10 -3 0 -8 -4 -11 -10z M1049 1003 l-24 -28 28 24 c25 23 32 31 24
31 -2 0 -14 -12 -28 -27z M730 965 c-24 -25 -40 -45 -35 -44 10 1 92 89 83 89
-2 0 -24 -20 -48 -45z M1005 996 c-23 -25 -26 -40 -4 -19 12 12 21 24 18 27
-2 2 -9 -1 -14 -8z M1031 948 c-24 -27 -42 -50 -40 -52 2 -2 24 18 48 46 24
27 42 50 40 51 -2 2 -24 -19 -48 -45z M1299 974 l-24 -27 28 18 c15 9 27 21
27 26 0 14 -5 11 -31 -17z M850 980 c-9 -6 -10 -10 -3 -10 6 0 15 5 18 10 8
12 4 12 -15 0z M1160 975 c-7 -9 -8 -15 -2 -15 5 0 12 7 16 15 3 8 4 15 2 15
-2 0 -9 -7 -16 -15z M1165 939 c-48 -51 -78 -61 -35 -11 13 15 3 7 -23 -18
-25 -25 -46 -49 -46 -55 0 -5 9 1 20 14 11 13 22 21 26 18 3 -4 0 -14 -8 -23
-8 -10 -9 -15 -3 -13 11 4 129 139 121 139 -2 0 -26 -23 -52 -51z M1269 973
c-13 -16 -12 -17 4 -4 9 7 17 15 17 17 0 8 -8 3 -21 -13z M890 948 l-23 -33
31 29 c34 31 37 36 24 36 -5 0 -19 -15 -32 -32z M1119 963 c-13 -16 -12 -17 4
-4 9 7 17 15 17 17 0 8 -8 3 -21 -13z M1330 965 c-7 -9 -8 -15 -2 -15 5 0 12
7 16 15 3 8 4 15 2 15 -2 0 -9 -7 -16 -15z M1486 941 l-30 -36 34 32 c19 18
32 34 29 36 -2 2 -17 -12 -33 -32z M1516 940 c-49 -55 -46 -63 5 -10 22 23 39
44 36 46 -2 3 -21 -14 -41 -36z M929 953 c-13 -16 -12 -17 4 -4 16 13 21 21
13 21 -2 0 -10 -8 -17 -17z M1356 953 c-6 -14 -5 -15 5 -6 7 7 10 15 7 18 -3
3 -9 -2 -12 -12z M816 944 c-23 -23 -20 -30 4 -9 11 10 20 20 20 22 0 7 -9 2
-24 -13z M1235 939 c-4 -6 -5 -12 -2 -15 2 -3 7 2 10 11 7 17 1 20 -8 4z M746
901 l-30 -36 34 32 c19 18 32 34 29 36 -2 2 -17 -12 -33 -32z M1055 932 c-5
-4 -19 -18 -30 -32 -16 -21 -14 -20 13 4 29 27 37 36 30 36 -2 0 -7 -4 -13 -8z
M1259 923 c-13 -16 -12 -17 4 -4 9 7 17 15 17 17 0 8 -8 3 -21 -13z M886 902
l-19 -27 24 22 c12 12 21 24 18 27 -2 2 -13 -8 -23 -22z M927 912 c-10 -10
-17 -22 -17 -27 0 -4 9 2 20 15 11 13 20 25 20 27 0 7 -8 2 -23 -15z M1389
913 c-13 -16 -12 -17 4 -4 16 13 21 21 13 21 -2 0 -10 -8 -17 -17z M946 892
l-19 -27 24 22 c12 12 21 24 18 27 -2 2 -13 -8 -23 -22z M1339 893 c-13 -16
-12 -17 4 -4 9 7 17 15 17 17 0 8 -8 3 -21 -13z M760 885 c-20 -24 -6 -28 15
-5 10 11 13 20 8 20 -6 0 -16 -7 -23 -15z M1426 872 l-19 -27 24 22 c12 12 21
24 18 27 -2 2 -13 -8 -23 -22z M1457 873 c-4 -3 -7 -11 -7 -17 0 -6 5 -5 12 2
6 6 9 14 7 17 -3 3 -9 2 -12 -2z M3893 1233 c-80 -91 -90 -114 -14 -33 56 60
88 100 78 100 -2 0 -31 -30 -64 -67z M4364 1367 c-37 -42 -37 -52 -1 -18 21
19 37 36 37 38 0 10 -19 0 -36 -20z M4249 1273 c-34 -38 -53 -63 -46 -63 2 0
21 20 41 45 41 50 44 61 5 18z M4270 1257 l-33 -42 39 37 c21 21 36 40 33 43
-3 3 -21 -14 -39 -38z M4367 1253 c-4 -3 -7 -11 -7 -17 0 -6 5 -5 12 2 6 6 9
14 7 17 -3 3 -9 2 -12 -2z M1805 1180 c-10 -11 -16 -22 -13 -25 3 -3 13 4 23
15 10 11 16 22 13 25 -3 3 -13 -4 -23 -15z M4619 1173 c-13 -16 -12 -17 4 -4
16 13 21 21 13 21 -2 0 -10 -8 -17 -17z M3402 1154 c-7 -8 -8 -14 -3 -14 10 0
25 19 20 25 -2 1 -10 -3 -17 -11z M3350 1146 c7 -7 13 -7 20 0 6 6 3 10 -10
10 -13 0 -16 -4 -10 -10z M2535 1140 c3 -5 8 -10 11 -10 2 0 4 5 4 10 0 6 -5
10 -11 10 -5 0 -7 -4 -4 -10z M3220 1146 c0 -2 7 -7 16 -10 8 -3 12 -2 9 4 -6
10 -25 14 -25 6z M3212 1124 c10 -10 20 -16 22 -13 3 3 -5 11 -17 18 -21 13
-21 12 -5 -5z M2390 1120 c8 -5 20 -10 25 -10 6 0 3 5 -5 10 -8 5 -19 10 -25
10 -5 0 -3 -5 5 -10z M3430 1108 c-11 -12 -18 -24 -15 -26 4 -5 45 36 45 45 0
8 -11 1 -30 -19z M3005 1110 c-3 -6 1 -7 9 -4 18 7 21 14 7 14 -6 0 -13 -4
-16 -10z M1881 1069 c-30 -33 -50 -59 -45 -59 5 0 22 15 38 33 15 17 40 44 54
60 14 15 22 26 16 26 -5 -1 -33 -28 -63 -60z M1893 1043 c-98 -107 -137 -153
-129 -153 3 0 25 21 48 47 24 26 50 54 58 63 33 35 112 130 108 130 -3 0 -41
-39 -85 -87z M1790 965 c-19 -19 -30 -35 -24 -35 5 0 22 16 37 35 36 45 30 45
-13 0z M1590 859 c0 -5 5 -7 10 -4 6 3 10 8 10 11 0 2 -4 4 -10 4 -5 0 -10 -5
-10 -11z M3590 1046 c0 -2 7 -6 15 -10 8 -3 15 -1 15 4 0 6 -7 10 -15 10 -8 0
-15 -2 -15 -4z M2226 984 c-27 -30 -47 -56 -45 -59 3 -2 29 22 58 55 29 33 49
60 44 59 -4 -1 -30 -25 -57 -55z M2137 882 c-15 -15 -27 -32 -27 -37 0 -5 8 0
18 11 49 55 56 75 9 26z M570 945 c-13 -14 -21 -27 -18 -30 2 -3 14 9 27 25
26 37 23 39 -9 5z M2618 949 c-34 -40 -69 -78 -75 -85 -7 -7 -13 -16 -13 -21
0 -4 19 12 40 37 80 89 122 140 117 140 -3 0 -34 -32 -69 -71z M2505 940 c-21
-22 -36 -42 -34 -45 3 -2 22 16 43 40 46 56 42 58 -9 5z M3766 898 c-25 -29
-44 -54 -41 -56 4 -4 75 71 88 94 16 28 -3 13 -47 -38z M2268 913 c-8 -10 -19
-25 -23 -33 -8 -13 -7 -13 9 -1 16 14 41 51 33 51 -2 0 -11 -8 -19 -17z M4056
902 l-30 -37 37 34 c38 36 42 42 30 40 -5 0 -21 -17 -37 -37z M2476 984 c-5
-14 -4 -15 9 -4 17 14 19 20 6 20 -5 0 -12 -7 -15 -16z M3025 933 c-16 -21
-39 -49 -49 -63 l-20 -25 28 25 c37 33 90 100 79 100 -4 0 -21 -17 -38 -37z
M4342 950 c-7 -11 -9 -20 -4 -20 4 0 13 9 20 20 7 11 9 20 4 20 -4 0 -13 -9
-20 -20z M4300 865 c-7 -9 -10 -18 -7 -21 3 -3 10 4 17 15 13 25 8 27 -10 6z
M3377 933 c-4 -3 -7 -11 -7 -17 0 -6 5 -5 12 2 6 6 9 14 7 17 -3 3 -9 2 -12
-2z M870 1265 c0 -5 5 -17 10 -25 5 -8 10 -10 10 -5 0 6 -5 17 -10 25 -5 8
-10 11 -10 5z M806 1193 c-6 -14 -5 -15 5 -6 7 7 10 15 7 18 -3 3 -9 -2 -12
-12z M625 1160 c-3 -5 -1 -10 4 -10 6 0 11 5 11 10 0 6 -2 10 -4 10 -3 0 -8
-4 -11 -10z M550 1150 c0 -5 5 -10 11 -10 5 0 7 5 4 10 -3 6 -8 10 -11 10 -2
0 -4 -4 -4 -10z M662 1148 c-16 -16 -15 -25 2 -31 8 -3 20 2 28 11 12 15 11
16 -4 4 -10 -8 -19 -9 -22 -3 -3 5 0 11 6 14 7 2 10 7 7 10 -3 4 -11 1 -17 -5z
M710 1145 c7 -8 17 -15 22 -15 6 0 5 7 -2 15 -7 8 -17 15 -22 15 -6 0 -5 -7 2
-15z M510 1139 c0 -5 5 -7 10 -4 6 3 10 8 10 11 0 2 -4 4 -10 4 -5 0 -10 -5
-10 -11z M343 1125 c-9 -25 4 -29 17 -6 7 15 7 21 0 21 -6 0 -13 -7 -17 -15z
M539 1121 c7 -5 9 -16 5 -27 -6 -16 -4 -16 13 4 23 25 35 28 32 10 -3 -29 2
-49 11 -43 8 5 7 11 -1 21 -9 11 -8 14 2 14 28 0 -12 25 -43 26 -17 1 -25 -1
-19 -5z M507 1079 c7 -7 15 -10 18 -7 3 3 -2 9 -12 12 -14 6 -15 5 -6 -5z
M260 1065 c-7 -9 -11 -17 -9 -20 3 -2 10 5 17 15 14 24 10 26 -8 5z M102 1050
c-7 -11 -10 -20 -6 -20 7 0 34 27 34 34 0 13 -16 5 -28 -14z M295 1060 c3 -5
8 -10 11 -10 2 0 4 5 4 10 0 6 -5 10 -11 10 -5 0 -7 -4 -4 -10z M460 1050
c-13 -11 -19 -20 -13 -20 5 0 20 9 33 20 13 11 19 20 13 20 -5 0 -20 -9 -33
-20z M399 1028 c-12 -23 -12 -23 10 -4 23 21 26 26 11 26 -5 0 -15 -10 -21
-22z M313 1034 c4 -4 0 -18 -9 -32 -11 -17 -12 -23 -3 -20 7 2 18 13 26 25 12
18 12 21 -4 27 -9 4 -14 4 -10 0z M358 1023 c-30 -36 -30 -47 0 -19 18 17 32
31 32 33 0 9 -19 1 -32 -14z M135 1010 c-10 -11 -13 -20 -8 -20 13 0 38 29 31
35 -3 3 -13 -4 -23 -15z M75 980 c-16 -16 -26 -32 -24 -34 3 -3 17 10 32 29
34 43 30 45 -8 5z M379 963 c-13 -16 -12 -17 4 -4 9 7 17 15 17 17 0 8 -8 3
-21 -13z M69 933 l-24 -28 28 24 c15 14 27 26 27 28 0 8 -8 1 -31 -24z M200
919 c0 -5 5 -7 10 -4 6 3 10 8 10 11 0 2 -4 4 -10 4 -5 0 -10 -5 -10 -11z
M4935 863 l-17 -28 23 22 c12 12 20 25 17 28 -3 3 -13 -7 -23 -22z M640 690
c-110 -36 -147 -68 -169 -150 -23 -86 15 -168 99 -208 37 -18 168 -24 225 -10
19 5 32 3 37 -5 5 -8 8 -5 8 9 0 31 -23 46 -67 43 -60 -3 -126 32 -150 79 -38
78 -5 162 63 162 25 0 38 -7 54 -30 12 -16 26 -30 31 -30 24 0 69 66 69 100 0
26 -150 57 -200 40z M2185 688 c-11 -6 -27 -14 -35 -18 -26 -12 -53 -68 -46
-95 12 -49 40 -65 111 -65 57 0 69 -3 90 -25 30 -29 31 -50 5 -92 -18 -30 -25
-33 -65 -33 -29 0 -44 4 -40 10 4 6 3 10 -2 9 -38 -7 -53 3 -64 41 -11 36 -16
41 -38 38 -14 -2 -30 -12 -36 -23 -18 -35 -39 -60 -67 -78 -55 -34 -37 -44 97
-51 238 -14 311 10 322 105 6 56 -16 106 -55 120 -15 5 -37 14 -49 21 -12 6
-40 8 -63 5 -35 -4 -43 -2 -56 18 -22 33 -10 45 43 45 36 0 49 -5 64 -25 17
-21 23 -23 44 -13 14 6 25 17 25 23 0 7 7 18 15 25 8 7 15 21 15 32 0 17 -6
18 -67 14 -49 -3 -73 -1 -87 10 -23 16 -34 17 -61 2z M3234 685 c-10 -8 -26
-15 -34 -15 -37 -2 -84 -63 -94 -123 -18 -101 34 -192 131 -229 51 -19 108
-24 117 -9 3 5 18 12 33 16 74 18 137 108 134 192 -2 54 -13 85 -46 117 -56
56 -195 86 -241 51z m138 -73 c37 -32 51 -134 27 -193 -20 -49 -88 -64 -132
-28 -39 30 -56 76 -53 135 4 61 8 70 49 94 34 21 80 18 109 -8z M4620 685
c-14 -8 -32 -14 -41 -15 -39 -1 -77 -78 -60 -123 12 -31 83 -58 158 -60 53 -2
59 -4 71 -30 11 -22 11 -35 3 -56 -15 -34 -49 -57 -64 -42 -6 6 -19 11 -29 11
-11 0 -23 11 -28 25 -12 32 -35 41 -65 25 -32 -17 -57 -107 -32 -115 7 -2 61
-6 120 -9 112 -6 142 1 181 39 30 31 13 139 -28 181 -9 8 -48 22 -87 30 -101
21 -139 50 -107 82 19 19 52 14 92 -13 51 -35 69 -32 85 11 7 19 10 38 7 41
-3 4 -30 10 -60 14 -30 4 -62 9 -72 13 -11 3 -30 -1 -44 -9z M141 681 c-33 -9
-37 -27 -11 -41 20 -11 20 -13 6 -29 -9 -10 -16 -21 -16 -24 0 -4 -16 -41 -35
-83 -28 -59 -35 -88 -35 -135 0 -32 4 -59 9 -59 15 0 31 26 22 36 -5 5 5 39
23 76 l31 68 71 0 71 0 7 -37 c12 -77 8 -100 -20 -107 -14 -4 -24 -12 -21 -19
5 -17 118 -39 134 -25 7 6 18 8 25 5 21 -7 58 11 58 29 0 9 -8 22 -17 29 -20
15 -45 106 -32 120 14 14 11 25 -5 19 -13 -5 -26 27 -32 71 -10 91 -22 101
-118 104 -34 1 -68 3 -76 5 -8 2 -26 1 -39 -3z m104 -50 c3 -6 8 -27 11 -49 5
-36 3 -40 -20 -46 -24 -6 -66 7 -66 20 0 3 9 23 20 44 19 38 42 51 55 31z
M992 680 l-74 -5 21 -26 c18 -23 21 -42 23 -152 2 -108 0 -129 -15 -145 -32
-35 -2 -44 142 -43 71 0 140 3 153 6 14 4 35 25 51 51 31 51 32 60 14 67 -16
6 -51 -20 -66 -51 -11 -21 -17 -22 -84 -18 l-72 5 -3 65 c-4 68 7 84 26 41 7
-14 20 -25 31 -25 15 0 20 10 26 55 3 30 4 59 0 65 -9 14 -46 6 -60 -13 -20
-28 -26 -20 -23 30 l3 48 48 3 47 4 0 -34 c0 -19 6 -43 14 -54 14 -18 16 -18
32 -2 10 10 18 36 20 72 l3 56 -42 1 c-23 0 -64 1 -92 2 -27 1 -83 0 -123 -3z
M2438 679 c-21 -12 -24 -38 -5 -40 6 -1 25 -2 42 -3 31 -1 42 -18 138 -211
l34 -70 -31 -13 c-40 -18 -41 -19 -28 -34 7 -9 37 -13 89 -13 l78 0 3 37 c2
26 -3 46 -19 67 l-22 30 27 45 c32 55 47 65 60 41 6 -10 30 -46 54 -81 52 -78
54 -94 8 -94 -41 0 -50 -10 -32 -35 19 -26 159 -28 164 -2 2 12 -3 17 -18 17
-21 0 -22 3 -16 45 4 24 25 85 47 135 21 50 39 97 39 105 0 7 14 25 31 38 18
14 29 29 26 33 -3 5 -40 9 -84 9 -71 0 -78 -2 -78 -20 0 -14 8 -21 28 -23 33
-4 33 -12 -1 -85 l-27 -57 -50 50 c-48 49 -50 50 -95 44 -54 -7 -63 -14 -85
-61 -18 -36 -18 -37 -34 -16 -31 39 -76 118 -81 141 -5 21 -11 24 -75 27 -38
3 -78 0 -87 -6z M3564 679 c-3 -6 0 -17 7 -25 8 -10 14 -65 17 -165 4 -130 2
-150 -12 -155 -16 -6 -23 -43 -8 -45 91 -9 123 -6 132 11 13 25 13 27 -10 33
-17 4 -19 11 -14 58 3 30 7 60 10 67 4 13 54 17 54 3 0 -4 14 -26 31 -47 17
-22 35 -49 40 -61 4 -12 26 -34 47 -48 33 -22 45 -25 73 -18 26 7 35 15 37 35
3 21 -5 32 -35 52 -21 14 -42 26 -48 26 -5 0 -20 15 -32 34 l-22 34 24 22 c42
40 50 146 14 185 -12 12 -297 16 -305 4z m205 -35 c28 -6 31 -10 31 -45 0 -51
-22 -71 -73 -67 l-41 4 -1 49 c-1 28 0 53 2 58 5 9 40 9 82 1z M3996 683 c-11
-11 -6 -21 12 -25 15 -4 18 -21 20 -153 2 -139 1 -150 -19 -171 -36 -39 -22
-46 86 -46 55 0 109 3 120 7 92 32 139 67 166 122 18 37 20 54 14 108 -5 53
-12 69 -36 93 -59 58 -101 70 -236 71 -66 0 -124 -3 -127 -6z m215 -63 c43
-22 79 -71 79 -108 0 -36 -21 -112 -32 -112 -5 0 -21 -11 -36 -25 -32 -30 -81
-34 -83 -7 -5 74 -7 258 -3 264 8 13 33 9 75 -12z M1691 598 c-30 -29 -32 -36
-26 -72 3 -24 22 -61 44 -91 61 -81 62 -161 3 -198 l-27 -16 56 -1 c37 0 61 5
68 14 21 25 24 80 7 131 -18 51 -16 65 4 40 16 -19 25 -19 44 0 16 16 10 40
-22 92 -17 28 -54 17 -62 -18 -6 -23 -8 -22 -33 18 -32 51 -32 49 -7 56 29 7
35 34 15 57 -24 26 -25 26 -64 -12z M726 512 c-3 -6 -1 -14 5 -17 15 -10 25 3
12 16 -7 7 -13 7 -17 1z M1584 469 c-3 -5 -14 -9 -24 -9 -23 0 -50 -36 -50
-67 0 -31 39 -72 76 -79 46 -9 94 35 94 86 0 21 -6 42 -12 47 -27 17 -78 30
-84 22z m26 -65 c0 -9 -5 -14 -12 -12 -18 6 -21 28 -4 28 9 0 16 -7 16 -16z
M4912 368 c-27 -13 -39 -53 -22 -73 7 -8 25 -15 41 -15 28 0 29 2 29 50 0 53
-6 58 -48 38z"/>
</g>
</svg>
