<?xml version="1.0" standalone="no"?>
<!DOCTYPE svg PUBLIC "-//W3C//DTD SVG 20010904//EN"
 "http://www.w3.org/TR/2001/REC-SVG-20010904/DTD/svg10.dtd">
<svg version="1.0" xmlns="http://www.w3.org/2000/svg"
 width="500.000000pt" height="878.000000pt" viewBox="0 0 500.000000 878.000000"
 preserveAspectRatio="xMidYMid meet">
<metadata>
Created by potrace 1.16, written by Peter Selinger 2001-2019
</metadata>
<g transform="translate(0.000000,878.000000) scale(0.100000,-0.100000)"
fill="#000000" stroke="none">
<path d="M2185 8680 c-32 -4 -40 -9 -40 -25 0 -15 8 -21 33 -23 20 -2 32 1 32
9 0 8 4 8 13 1 6 -5 23 -12 37 -14 23 -3 25 -7 26 -58 0 -30 -1 -72 -4 -92
l-5 -38 -62 0 c-41 0 -67 -5 -74 -14 -23 -28 12 -35 165 -35 82 0 200 -2 262
-5 113 -3 114 -3 123 21 5 13 9 26 9 29 0 2 -29 4 -65 4 l-65 0 -1 40 c-1 22
-1 56 -1 75 0 67 -2 65 60 65 53 0 60 2 70 25 9 20 9 27 -1 30 -18 7 -465 11
-512 5z m295 -145 l0 -95 -57 0 -58 0 0 95 0 95 58 0 57 0 0 -95z m-160 -95
c0 -5 -7 -7 -15 -4 -8 4 -15 8 -15 10 0 2 7 4 15 4 8 0 15 -4 15 -10z M310
8480 c0 -5 5 -10 10 -10 6 0 10 5 10 10 0 6 -4 10 -10 10 -5 0 -10 -4 -10 -10z
M4385 8240 c3 -5 8 -10 11 -10 2 0 4 5 4 10 0 6 -5 10 -11 10 -5 0 -7 -4 -4
-10z M3545 7971 c-27 -10 -61 -23 -75 -29 -34 -13 -138 -126 -146 -157 -3 -14
-4 -32 0 -40 6 -16 36 -21 36 -6 0 14 39 54 74 76 20 14 51 20 108 21 70 3 84
0 126 -25 26 -15 52 -37 57 -48 6 -12 17 -28 24 -37 19 -23 9 -131 -16 -158
-30 -33 -96 -75 -130 -82 -64 -14 -54 -42 16 -49 76 -7 188 41 248 106 71 78
98 170 74 252 -15 53 -87 140 -139 166 -64 32 -185 37 -257 10z m190 -41 c11
-5 32 -14 47 -19 30 -11 85 -81 95 -120 3 -14 9 -30 13 -36 13 -17 -7 -122
-31 -165 -23 -41 -99 -100 -128 -100 -11 0 -8 8 11 28 71 75 85 162 40 251
-40 80 -88 111 -184 118 -46 3 -89 1 -109 -6 -18 -6 -34 -9 -36 -7 -8 8 10 36
28 41 11 4 17 10 14 15 -3 4 3 6 13 3 10 -2 34 0 53 5 38 11 143 6 174 -8z
M4900 7840 c-62 -88 -102 -147 -120 -174 -38 -57 -85 -116 -92 -116 -4 0 -8
-6 -8 -14 0 -7 -7 -20 -16 -27 -9 -8 -26 -28 -38 -45 -34 -51 -108 -148 -125
-164 -9 -8 -29 -33 -44 -55 -105 -155 -218 -307 -262 -355 -18 -19 -39 -47
-46 -62 -8 -15 -49 -69 -91 -122 -43 -52 -78 -99 -78 -104 0 -6 -16 -30 -36
-54 -60 -72 -68 -82 -109 -133 -21 -28 -42 -52 -45 -55 -4 -3 -21 -25 -38 -50
-17 -25 -77 -101 -132 -170 -124 -154 -157 -197 -259 -330 -44 -58 -86 -112
-94 -120 -8 -8 -36 -42 -62 -75 -27 -33 -51 -62 -54 -65 -4 -3 -18 -21 -33
-40 -14 -19 -35 -45 -47 -57 -12 -12 -21 -26 -21 -31 0 -4 -18 -26 -39 -49
-22 -23 -46 -56 -54 -75 -8 -18 -23 -41 -33 -50 -18 -16 -21 -15 -59 15 -104
85 -103 83 -110 182 -10 148 -9 184 10 205 19 21 14 88 -11 149 -8 18 -14 42
-14 53 0 28 -77 100 -104 96 -11 -1 -27 2 -35 6 -19 12 -94 10 -119 -3 -14 -8
-34 -8 -69 0 -77 16 -158 14 -200 -5 -51 -24 -100 -86 -119 -152 -13 -47 -13
-58 0 -96 12 -36 12 -45 1 -58 -9 -10 -13 -43 -13 -97 0 -45 -5 -90 -11 -101
-6 -11 -8 -22 -4 -25 3 -4 7 -21 8 -38 2 -17 7 -34 13 -38 13 -8 -11 -37 -62
-75 l-38 -29 -27 34 c-14 19 -37 45 -51 59 -13 14 -25 27 -25 30 0 3 -33 50
-74 105 -118 158 -135 182 -151 205 -8 12 -20 28 -25 34 -6 6 -26 33 -45 61
-19 27 -45 61 -58 75 -13 14 -33 41 -44 60 -12 19 -47 69 -78 110 -31 41 -63
85 -71 96 -8 12 -41 57 -74 101 -33 44 -69 92 -80 107 -11 15 -35 48 -54 72
-26 34 -32 49 -27 71 6 23 5 25 -8 14 -12 -10 -26 3 -85 81 -132 174 -371 498
-461 623 -30 42 -80 109 -110 148 -30 40 -78 103 -105 140 -28 37 -74 99 -102
136 -29 38 -53 72 -53 74 0 3 -14 21 -31 39 -16 18 -45 55 -62 82 l-32 49 -3
-39 c-3 -34 1 -43 32 -71 20 -18 30 -33 23 -33 -6 0 0 -12 16 -25 15 -13 27
-28 27 -32 0 -5 37 -58 83 -120 45 -61 104 -142 131 -180 64 -88 179 -244 227
-308 21 -28 48 -65 61 -82 72 -100 194 -265 228 -308 21 -27 39 -55 39 -60 1
-6 10 -18 21 -28 11 -10 43 -52 71 -95 28 -42 54 -79 57 -82 8 -5 332 -441
372 -500 14 -19 28 -39 32 -45 65 -83 88 -115 88 -124 0 -6 3 -11 8 -11 4 0
18 -17 32 -37 14 -21 65 -91 114 -157 69 -93 86 -123 79 -135 -19 -30 -37 -16
-102 74 -36 50 -90 124 -121 166 -30 42 -113 157 -184 255 -71 98 -134 184
-140 189 -13 11 -151 201 -180 247 -11 17 -34 47 -53 67 -18 20 -33 40 -33 45
0 5 -27 46 -61 90 -62 83 -205 276 -263 356 -19 25 -39 56 -46 69 -7 13 -50
75 -96 137 -46 62 -84 117 -84 122 0 5 -7 12 -15 16 -8 3 -19 16 -24 28 -7 19
-89 128 -111 148 -3 3 -12 17 -20 32 -8 14 -51 75 -95 135 -44 60 -88 120 -97
133 l-17 25 0 -38 c-1 -30 11 -55 61 -128 35 -50 68 -98 73 -107 6 -9 38 -52
73 -95 34 -44 62 -84 62 -89 0 -6 15 -27 32 -47 48 -55 90 -109 113 -146 39
-64 129 -185 137 -185 4 0 8 -6 8 -14 0 -8 3 -16 8 -18 7 -3 95 -123 117 -160
6 -9 37 -53 70 -99 33 -46 74 -102 90 -125 17 -23 57 -79 90 -125 33 -45 73
-101 88 -123 16 -23 35 -45 43 -49 8 -4 14 -13 14 -18 0 -6 11 -25 25 -43 14
-18 25 -38 25 -44 0 -6 3 -12 8 -14 11 -5 87 -100 101 -125 6 -12 54 -79 106
-148 52 -69 95 -128 95 -131 0 -4 79 -113 177 -243 39 -52 39 -55 13 -83 -24
-26 -17 -32 -105 97 -141 205 -187 271 -200 288 -8 9 -15 20 -15 23 0 5 -48
76 -172 253 -37 53 -72 106 -78 119 -5 12 -14 22 -20 22 -5 0 -10 4 -10 10 0
5 -16 30 -35 55 -21 29 -32 52 -28 62 4 11 2 14 -5 9 -6 -4 -25 12 -44 39 -18
25 -48 64 -66 86 -17 23 -32 44 -32 49 0 4 -18 30 -40 56 -22 27 -40 53 -40
59 0 6 -9 18 -21 28 -14 12 -18 25 -14 40 5 17 4 19 -4 7 -11 -17 -10 -18 -45
35 -14 22 -33 51 -43 65 -9 14 -28 43 -42 65 -14 22 -35 51 -46 65 -34 39
-152 216 -176 263 -12 23 -41 65 -63 92 -23 28 -50 61 -59 75 -9 14 -51 72
-92 130 -42 58 -89 125 -105 150 l-30 45 0 -39 c0 -28 10 -54 37 -95 20 -31
39 -58 43 -61 11 -9 124 -171 139 -198 8 -15 31 -48 50 -74 20 -26 47 -63 61
-83 14 -20 40 -56 58 -80 17 -24 32 -46 32 -48 0 -2 23 -38 51 -78 27 -41 63
-94 79 -119 16 -25 38 -56 49 -70 11 -14 40 -55 65 -92 70 -103 136 -201 149
-222 7 -10 26 -37 43 -60 54 -72 124 -175 124 -181 0 -4 14 -24 30 -45 17 -21
30 -42 30 -48 0 -6 3 -12 8 -14 4 -1 51 -64 105 -139 53 -75 104 -142 113
-150 8 -7 22 -26 31 -42 8 -17 19 -35 24 -41 22 -27 107 -151 139 -202 19 -32
54 -80 77 -107 35 -41 40 -52 30 -67 -14 -23 5 -70 28 -70 9 0 14 -4 11 -9 -6
-9 38 -69 61 -84 7 -4 13 -14 13 -21 0 -15 -98 -102 -152 -134 -20 -13 -41
-35 -46 -50 -8 -24 -5 -32 22 -62 41 -45 95 -90 107 -90 6 0 34 23 63 50 29
27 56 50 59 50 3 0 -3 -19 -13 -43 -12 -27 -20 -72 -22 -119 l-3 -76 -55 -6
c-30 -3 -71 -3 -90 0 -108 18 -429 -6 -560 -41 -71 -19 -169 -19 -194 0 -22
17 -57 20 -72 6 -11 -11 -157 -44 -204 -46 -19 -1 -97 -8 -173 -14 -76 -7
-146 -9 -157 -6 -11 3 -25 3 -31 -1 -7 -4 -45 -6 -85 -5 -69 2 -74 1 -74 -18
0 -18 6 -21 48 -21 26 0 83 -6 127 -13 44 -7 112 -12 150 -9 81 4 72 4 150 -2
105 -9 148 11 84 38 l-32 13 29 5 c16 3 66 15 112 27 69 19 89 21 112 11 15
-6 63 -11 106 -11 78 0 95 2 124 14 8 4 29 9 45 11 17 2 37 6 45 10 8 3 44 7
81 9 36 2 69 6 75 9 5 2 23 4 39 3 17 -1 34 0 39 3 8 4 114 6 126 2 36 -12
181 -17 198 -6 24 15 38 -5 38 -54 l0 -48 -270 5 c-149 3 -284 5 -301 5 -422
-11 -511 -15 -519 -22 -28 -28 17 -30 551 -26 l545 4 -6 -58 c-7 -61 6 -121
45 -206 11 -22 19 -45 19 -51 0 -19 50 -73 83 -90 29 -14 79 -25 121 -24 17 0
18 -5 11 -62 -4 -34 -6 -78 -6 -98 1 -22 -5 -41 -14 -49 -9 -8 -23 -27 -31
-43 -14 -26 -14 -33 0 -68 21 -52 20 -72 -4 -94 -11 -10 -24 -32 -28 -49 -6
-21 -20 -37 -44 -49 -46 -25 -82 -87 -74 -130 4 -25 -1 -40 -24 -71 -31 -40
-38 -70 -20 -81 14 -9 12 -25 -2 -25 -17 0 -62 -39 -76 -66 -6 -12 -14 -62
-16 -110 l-5 -89 -58 -44 c-32 -23 -79 -62 -104 -85 -56 -50 -127 -108 -144
-118 -7 -5 -14 -23 -14 -40 -4 -97 -4 -116 3 -148 l7 -35 -68 -1 c-65 -1 -67
-1 -33 11 45 15 55 48 13 45 -58 -4 -104 0 -98 9 3 5 1 12 -4 16 -6 3 -126 7
-267 10 -215 3 -259 6 -273 19 -10 9 -23 16 -30 16 -16 0 -44 27 -34 33 5 3
24 3 43 1 68 -6 296 -5 313 2 11 4 15 13 12 23 -4 14 7 16 101 15 83 -2 107 1
111 12 3 8 2 18 -2 22 -4 4 -58 6 -121 5 -102 -1 -115 1 -124 18 -6 10 -17 16
-25 13 -8 -4 -15 -1 -15 4 0 6 14 12 32 14 17 2 33 9 36 16 3 10 -9 12 -49 10
-40 -2 -54 -7 -54 -18 0 -9 -12 -15 -33 -17 -24 -2 -31 1 -26 10 5 9 4 9 -7
-1 -7 -6 -20 -12 -29 -12 -13 0 -13 1 0 10 9 6 10 10 3 10 -6 0 -15 -4 -18
-10 -9 -15 -85 -13 -85 3 0 9 -2 9 -8 0 -5 -8 -26 -10 -62 -7 -30 2 -101 6
-158 8 -135 6 -146 9 -166 50 l-17 35 -64 -2 c-36 -1 -65 1 -65 5 0 5 41 8 90
9 171 2 170 2 151 -10 -12 -8 -12 -13 -3 -24 10 -12 51 -14 238 -11 125 2 229
5 231 8 2 2 -4 11 -13 21 -13 13 -28 16 -56 12 -21 -3 -38 -1 -38 4 0 5 -12 4
-26 -1 -34 -13 -84 -13 -84 1 0 8 -5 7 -15 -1 -13 -11 -18 -10 -30 6 -9 12
-14 14 -15 6 0 -9 -7 -11 -21 -7 -12 4 -32 1 -45 -6 -18 -9 -29 -9 -46 -1 -21
10 -20 11 14 11 20 1 40 6 44 12 10 16 -16 30 -48 26 -25 -3 -26 -2 -14 12 21
25 8 41 -35 41 -42 0 -49 -12 -24 -40 13 -15 9 -15 -53 -9 -40 4 -72 3 -79 -3
-8 -7 -19 -5 -34 5 -21 15 -21 16 17 23 22 4 55 8 74 8 26 1 35 5 34 17 -1 14
16 16 131 16 126 0 133 -1 122 -18 -18 -29 3 -40 79 -44 68 -4 94 4 94 31 0
11 -17 14 -70 14 -38 0 -70 4 -70 9 0 5 38 9 84 9 94 0 126 7 126 27 0 16 -17
21 -105 30 -33 3 -64 10 -68 14 -5 5 -23 6 -40 2 -47 -10 -269 -5 -308 7 -42
12 -157 13 -165 1 -11 -19 -25 -8 -22 18 2 21 -2 28 -24 34 l-26 7 -1 -293 c0
-270 1 -294 17 -298 16 -4 16 -5 0 -6 -12 -1 -18 -9 -18 -25 0 -21 5 -25 38
-29 l37 -4 -37 -1 -37 -2 1 -64 0 -65 37 -4 36 -4 -38 -1 c-34 -2 -38 -5 -35
-25 3 -21 6 -22 87 -18 60 2 82 0 77 -8 -4 -6 -28 -11 -54 -10 -104 3 -112 1
-112 -25 0 -19 6 -26 28 -29 l27 -4 -27 -2 c-28 -1 -28 -2 -28 -70 0 -46 4
-71 13 -74 9 -4 9 -6 0 -6 -9 -1 -13 -19 -13 -53 l0 -53 328 0 c286 1 489 9
501 21 2 2 11 -1 21 -6 21 -11 424 -16 504 -5 63 8 76 1 76 -43 0 -20 -3 -22
-40 -16 -32 5 -40 3 -40 -9 0 -17 -27 -31 -35 -17 -3 5 1 12 9 17 8 4 -173 8
-402 7 -229 0 -420 1 -424 3 -4 2 -109 4 -232 4 -128 0 -228 4 -231 9 -11 17
-35 -2 -35 -29 l0 -26 603 0 c331 1 645 -2 697 -5 52 -4 100 -3 107 2 18 14
24 -5 35 -115 5 -56 14 -110 20 -120 5 -10 6 -31 3 -48 -6 -28 -5 -29 32 -30
21 -1 83 -3 138 -5 280 -11 270 -9 285 -49 6 -17 20 -25 51 -30 39 -7 41 -9
24 -21 -10 -7 -39 -21 -64 -31 -25 -9 -57 -27 -70 -40 -22 -22 -23 -24 -7 -48
16 -24 21 -25 118 -25 90 0 115 4 203 34 172 58 207 67 224 60 50 -21 253 -21
346 0 118 27 160 27 238 0 39 -13 77 -30 86 -38 40 -33 173 -54 237 -36 70 20
83 59 30 90 -46 28 -121 119 -108 132 5 5 75 11 156 12 81 2 151 7 155 12 4 5
6 31 3 57 -5 56 -22 58 -35 4 l-9 -37 -130 0 c-115 0 -129 2 -124 16 3 9 6 18
6 20 0 2 6 4 14 4 8 0 42 19 75 42 50 34 61 47 61 69 0 15 -4 30 -9 33 -18 12
-51 193 -51 288 0 44 -5 80 -11 84 -6 3 -8 16 -4 28 16 57 18 82 9 136 -5 34
-5 35 33 39 21 2 63 4 93 5 l55 1 -1 -65 c-4 -359 1 -579 14 -592 16 -16 21 2
25 84 1 37 5 70 8 73 3 3 306 5 672 6 l667 1 0 21 0 22 -303 2 c-166 1 -468 3
-670 3 -367 1 -368 1 -365 22 3 20 9 21 203 25 110 2 223 3 250 1 76 -5 318
-2 430 5 55 3 180 7 278 8 l177 2 0 25 0 24 -217 -6 c-120 -4 -248 -9 -284
-12 -37 -2 -77 0 -90 5 -23 10 -23 10 6 9 17 0 155 3 308 7 l277 8 0 133 0
133 -51 25 c-28 14 -69 27 -92 27 -50 2 -104 -23 -117 -54 -26 -63 -56 -75
-187 -76 -57 -1 -63 -3 -63 -22 0 -18 -4 -20 -42 -15 -24 3 -97 7 -163 8 -101
3 -120 1 -120 -12 0 -20 41 -27 163 -29 56 0 102 -5 102 -10 0 -11 -201 -2
-255 11 -64 16 -169 25 -186 17 -9 -5 -57 -4 -107 2 -122 13 -207 9 -207 -11
0 -10 14 -17 40 -21 l40 -6 -37 -2 c-20 0 -42 -3 -50 -6 -10 -4 -13 13 -11 86
2 50 7 97 13 105 8 9 8 19 0 34 -10 19 -8 26 12 49 44 48 49 59 63 126 17 81
3 170 -24 160 -13 -5 -14 -4 -3 6 27 28 4 67 -108 179 -49 49 -64 70 -83 113
-12 29 -45 44 -73 33 -9 -3 -21 -3 -27 1 -12 8 -18 9 -53 11 -27 2 -37 49 -22
109 13 56 -10 132 -59 197 -45 58 -64 72 -88 62 -16 -6 -14 -11 16 -43 19 -19
30 -34 24 -31 -5 2 -31 14 -58 27 -26 12 -52 19 -58 15 -6 -3 -41 -6 -77 -6
-89 1 -155 -21 -223 -77 -31 -25 -71 -54 -88 -63 -30 -17 -42 -38 -21 -38 22
0 94 43 116 69 13 16 49 39 81 53 51 23 70 26 159 24 94 -2 104 -4 138 -29 20
-15 40 -37 46 -47 6 -11 20 -20 31 -20 19 0 20 -5 18 -77 -1 -43 1 -101 6
-129 5 -32 4 -58 -3 -70 -9 -16 -12 -10 -18 34 -7 53 -27 70 -37 31 -7 -27 22
-111 37 -106 8 3 11 -38 10 -147 -1 -137 23 -428 39 -466 3 -8 8 -40 11 -70 3
-30 14 -75 24 -100 11 -25 25 -91 31 -150 6 -58 18 -130 26 -160 24 -81 24
-95 -1 -96 -12 -1 -32 -9 -45 -18 -30 -20 -59 -21 -59 0 0 11 6 13 19 9 21 -6
55 21 45 36 -3 6 -19 7 -35 4 -23 -5 -28 -4 -23 9 3 8 14 18 25 21 10 4 19 13
19 22 0 13 -8 14 -41 9 -30 -5 -40 -3 -37 6 3 7 15 15 29 18 33 8 39 40 7 40
-36 0 -62 -23 -54 -48 4 -11 8 -75 10 -141 3 -137 -2 -145 -83 -137 -25 2 -69
-4 -105 -15 -33 -10 -81 -21 -106 -25 -142 -17 -257 -42 -285 -60 -12 -8 -37
-11 -60 -9 -124 14 -151 18 -194 31 -25 7 -58 24 -72 37 -14 13 -35 29 -46 36
-45 23 -155 7 -183 -27 -14 -17 -19 -18 -61 -5 -52 15 -46 -2 -94 252 -14 73
-27 137 -30 141 -2 4 -7 49 -11 101 -3 52 -14 137 -25 189 -10 52 -18 118 -17
145 1 28 -3 59 -9 70 -6 11 -11 22 -11 25 1 7 -12 175 -19 240 -5 54 -16 80
-35 80 -12 0 0 -205 14 -239 11 -26 15 -61 22 -196 2 -38 11 -105 20 -147 9
-43 20 -122 24 -176 7 -96 7 -98 -13 -94 -12 2 -27 -3 -34 -12 -11 -13 -10
-17 10 -25 18 -7 27 -5 36 7 15 18 18 16 27 -22 7 -29 7 -29 -33 -23 -24 3
-44 1 -48 -5 -9 -16 27 -38 63 -38 32 0 32 0 44 -71 7 -39 10 -73 7 -76 -9 -8
-27 7 -27 21 0 16 -43 46 -65 46 -18 0 -20 -21 -3 -38 9 -9 5 -12 -18 -12 -22
0 -34 7 -47 30 -20 33 -19 133 4 575 12 239 12 272 0 445 -6 69 -8 136 -5 150
2 14 -6 57 -19 95 -40 117 -22 209 44 230 20 7 33 45 19 59 -34 34 22 98 102
116 29 7 61 19 70 27 13 12 31 13 77 8 40 -5 61 -3 61 3 0 30 -172 32 -242 4
-32 -13 -42 -3 -29 30 11 28 32 46 91 80 83 47 119 53 199 32 92 -23 108 -12
56 41 -35 34 -40 36 -94 34 l-56 -3 3 30 c2 19 -8 46 -27 76 -29 46 -29 46 -9
65 19 17 21 17 41 -8 12 -14 47 -41 77 -59 30 -19 74 -49 97 -66 23 -18 47
-34 53 -36 6 -2 13 -16 14 -31 4 -37 12 -44 64 -52 52 -8 57 10 8 30 -22 10
-36 23 -38 37 -2 14 -24 37 -58 60 -30 21 -68 49 -83 63 -16 14 -47 35 -71 46
-48 24 -68 58 -68 122 -1 60 12 147 22 147 5 0 10 12 12 27 2 21 14 34 43 50
22 12 56 31 76 42 20 11 67 50 104 87 78 76 80 75 85 -36 3 -93 13 -153 26
-157 17 -6 22 26 13 87 -4 30 -8 83 -8 117 -1 39 -5 63 -13 66 -9 3 -4 11 12
25 14 12 28 21 31 22 3 0 20 -18 38 -41 21 -25 58 -53 99 -73 37 -18 81 -41
97 -50 17 -9 40 -16 51 -16 12 0 29 -11 38 -24 8 -13 30 -27 48 -31 18 -4 40
-18 50 -30 24 -31 70 -40 123 -25 36 10 47 19 67 59 14 25 29 55 35 66 32 58
56 137 59 190 1 33 3 62 3 65 1 8 67 9 746 14 347 3 721 7 832 8 l203 3 0 23
c0 22 -2 23 -70 19 -40 -3 -70 0 -70 5 0 5 -6 6 -12 1 -20 -13 -1398 -11
-1391 2 3 5 0 4 -8 -2 -7 -7 -26 -13 -42 -13 -27 0 -28 2 -16 17 9 11 3 9 -15
-5 -20 -16 -32 -19 -36 -11 -6 8 -9 8 -14 0 -4 -6 -12 -11 -17 -11 -6 0 -7 6
-3 13 6 9 4 9 -7 1 -8 -6 -30 -12 -50 -12 l-36 -1 0 57 c0 76 10 95 48 87 25
-6 29 -4 29 14 0 21 -39 39 -59 27 -12 -8 -18 17 -24 84 -2 25 -7 54 -12 64
-8 19 -7 19 22 -2 33 -23 63 -29 63 -12 0 6 7 10 15 10 8 0 19 9 25 19 5 11
16 25 23 33 56 59 54 107 -7 147 -59 37 -116 82 -116 91 0 4 18 28 40 53 22
25 40 50 40 56 0 5 6 14 13 18 8 4 22 21 33 38 17 26 47 68 176 245 126 173
179 247 251 352 45 65 122 176 170 246 48 70 97 142 108 160 12 17 25 32 29
32 4 0 15 15 23 33 9 17 24 41 34 52 10 11 40 54 68 95 27 41 68 100 92 130
64 83 77 102 103 145 13 22 27 42 30 45 12 11 70 88 70 94 0 3 24 39 53 79 29
39 74 106 99 148 26 41 61 91 77 110 17 19 33 42 37 52 3 9 10 17 15 17 5 0 9
5 9 11 0 7 24 42 54 78 29 36 69 91 87 121 18 30 36 57 40 60 22 18 42 109 20
96 -14 -9 -129 -163 -147 -198 -9 -18 -34 -53 -54 -78 -38 -45 -112 -152 -247
-355 -40 -60 -83 -123 -96 -139 -12 -15 -33 -45 -47 -65 -71 -103 -145 -207
-151 -211 -3 -3 -22 -30 -42 -60 -19 -31 -42 -62 -51 -69 -9 -7 -16 -19 -16
-26 0 -7 -13 -28 -30 -46 -16 -19 -30 -38 -30 -42 0 -5 -19 -34 -43 -65 -23
-31 -69 -96 -100 -143 -32 -48 -64 -92 -72 -99 -13 -11 -45 -53 -145 -195 -64
-89 -122 -169 -273 -378 -104 -144 -131 -183 -144 -206 -3 -5 -62 43 -62 52
-1 7 38 59 167 222 26 33 49 65 52 72 3 7 29 41 57 75 29 35 87 110 128 168
42 58 84 116 95 130 29 37 83 110 99 134 8 12 28 35 44 53 16 17 34 40 41 51
6 12 36 54 67 94 31 40 75 102 99 138 24 36 117 163 207 282 90 120 163 220
163 223 0 3 7 13 15 22 41 50 169 227 235 324 41 61 90 127 108 146 17 20 32
41 32 48 0 6 11 22 25 35 14 13 48 59 76 102 38 60 49 86 47 110 -3 31 -4 30
-58 -46 -30 -43 -79 -113 -109 -155 -29 -42 -74 -103 -100 -136 -67 -87 -85
-111 -146 -200 -133 -191 -366 -508 -520 -707 -33 -42 -79 -103 -102 -135
-119 -164 -208 -283 -243 -328 -22 -27 -96 -126 -165 -219 -70 -93 -145 -193
-168 -221 -46 -58 -188 -241 -199 -259 -6 -8 -10 -8 -16 1 -4 6 -20 15 -35 18
l-28 8 29 31 c16 17 64 78 108 136 43 58 101 132 129 165 28 33 95 116 148
185 54 69 103 132 111 140 15 16 152 196 249 328 34 46 84 111 111 145 44 56
86 111 201 262 22 29 71 92 109 139 38 48 74 95 80 105 6 11 32 48 58 83 26
35 69 92 95 127 27 35 66 86 88 114 22 27 45 57 50 66 6 9 31 41 56 71 25 30
56 71 70 90 13 19 40 55 60 80 20 25 60 80 88 123 43 65 52 85 49 115 l-3 37
-45 -65z m-2390 -2113 l21 -27 -50 0 c-56 0 -56 0 -39 46 10 29 14 31 29 20
10 -7 28 -24 39 -39z m106 -81 c57 -15 94 -42 94 -67 0 -24 -33 -29 -165 -28
-60 1 -177 -2 -260 -6 -137 -6 -148 -6 -130 9 14 10 16 15 6 16 -26 0 20 40
47 40 20 0 22 3 12 14 -12 15 -12 15 80 29 65 10 269 6 316 -7z m-61 -137 c22
1 51 2 65 3 22 3 25 -2 30 -39 5 -33 0 -55 -21 -103 -16 -33 -26 -66 -23 -73
2 -7 -16 -32 -41 -57 -44 -43 -46 -44 -112 -44 -63 -1 -72 2 -115 34 -28 21
-48 45 -52 61 -3 15 -12 34 -21 43 -9 9 -13 20 -10 26 3 5 -6 21 -21 33 -29
25 -38 77 -17 98 6 6 38 11 72 11 34 0 63 4 66 9 3 4 40 6 83 3 42 -3 95 -5
117 -5z m-711 -174 c-4 -8 -14 -15 -23 -15 -14 1 -13 3 3 15 25 19 27 19 20 0z
m1229 -19 c15 -3 35 -13 45 -21 9 -8 36 -28 60 -45 23 -16 42 -37 42 -45 0
-22 -7 -19 -53 26 -42 42 -107 78 -139 79 -18 0 -23 11 -11 23 3 4 11 3 17 -2
6 -4 23 -11 39 -15z m-310 -20 c3 -7 49 -42 103 -79 55 -36 118 -80 142 -97
23 -16 59 -39 80 -49 20 -11 54 -36 75 -57 21 -20 57 -46 80 -58 23 -13 43
-29 44 -37 1 -8 -11 -29 -27 -48 l-29 -34 -29 29 c-16 16 -36 34 -43 39 -8 6
-42 34 -75 62 -34 29 -102 73 -153 98 -50 26 -91 50 -91 56 0 5 -6 9 -12 9 -7
0 -33 20 -57 45 -24 24 -57 49 -72 56 -33 13 -36 23 -13 41 8 7 23 20 31 30
17 17 38 15 46 -6z m-603 0 c0 -8 12 -29 27 -47 l27 -32 -35 -28 c-18 -16 -42
-36 -52 -44 -10 -9 -41 -31 -70 -49 -29 -19 -85 -59 -125 -90 -40 -31 -77 -56
-82 -56 -5 0 -13 -6 -17 -13 -9 -15 -183 -157 -193 -157 -7 0 -48 53 -52 68
-3 9 130 123 303 259 19 15 43 36 53 46 10 10 46 36 80 59 33 23 75 55 91 70
34 31 45 35 45 14z m-406 -17 c-3 -5 -10 -7 -15 -3 -5 3 -7 10 -3 15 3 5 10 7
15 3 5 -3 7 -10 3 -15z m164 -20 l34 -39 -24 -28 c-12 -16 -33 -35 -44 -43
-12 -8 -40 -27 -63 -43 -41 -28 -73 -30 -35 -1 20 15 11 20 -30 15 -11 -1 -15
3 -12 9 4 6 16 11 27 11 10 0 19 7 19 15 0 8 -4 15 -10 15 -5 0 -18 8 -28 18
-16 16 -16 18 9 40 15 12 34 22 43 22 9 0 16 4 16 9 0 9 46 39 60 39 3 0 20
-17 38 -39z m-205 -4 c-22 -17 -30 -11 -13 10 7 8 17 12 22 9 5 -3 1 -12 -9
-19z m1380 -39 c-1 -10 12 -30 28 -44 17 -13 27 -27 24 -30 -2 -3 -14 3 -24
12 -33 30 -46 8 -15 -25 43 -45 22 -44 -47 4 -35 24 -72 46 -81 50 -25 9 -22
30 7 66 l26 30 42 -23 c28 -14 41 -28 40 -40z m-500 -13 c3 -10 8 -35 12 -55
6 -38 45 -88 68 -88 7 -1 23 -10 36 -20 l23 -20 -68 -66 c-58 -55 -76 -67
-109 -70 -22 -2 -47 -5 -55 -6 -8 -2 -45 1 -81 5 -61 8 -70 12 -130 64 -35 31
-65 59 -67 64 -2 4 6 10 17 14 30 9 40 35 45 107 3 35 5 66 5 71 2 15 23 6 48
-19 22 -22 36 -27 77 -26 70 0 128 17 145 41 17 26 28 27 34 4z m124 -55 c21
-18 40 -36 43 -39 3 -3 20 -14 38 -23 37 -19 41 -31 11 -39 -35 -9 -159 84
-159 120 0 22 27 15 67 -19z m-482 0 c-1 -13 -3 -35 -4 -49 -1 -29 -14 -37
-73 -49 -47 -9 -73 12 -42 35 10 8 24 15 29 15 6 0 26 16 45 35 40 41 48 43
45 13z m-146 -138 c26 -26 28 -32 13 -36 -9 -3 -30 -11 -47 -18 -17 -7 -41 -9
-55 -5 -14 4 -21 7 -16 8 5 1 3 7 -3 14 -8 11 -3 19 27 39 20 14 40 26 44 27
3 1 20 -13 37 -29z m812 -1 c13 -11 18 -18 12 -14 -21 10 -36 -4 -22 -21 9
-11 9 -14 -1 -14 -7 0 -10 -7 -6 -15 6 -16 -12 -19 -51 -9 -30 8 -29 32 4 66
32 34 34 34 64 7z m-153 -53 c-16 -12 -28 -25 -28 -28 0 -4 19 -13 43 -19 62
-18 76 -20 145 -26 99 -8 77 -33 -29 -33 -45 0 -61 -4 -66 -16 -8 -23 9 -30
67 -28 27 1 50 -1 50 -6 0 -21 -36 -33 -103 -34 -57 -1 -72 -4 -72 -16 0 -10
12 -16 33 -18 20 -2 32 -8 29 -15 -2 -7 -19 -11 -44 -9 -30 3 -44 -1 -50 -13
-9 -16 -24 -26 -90 -61 -32 -17 -34 -17 -56 4 -31 29 -47 28 -47 -3 0 -30 -15
-33 -30 -5 -14 25 25 114 69 154 17 17 31 37 31 47 0 9 11 24 25 33 14 9 25
23 25 30 0 8 26 32 58 54 59 41 88 47 40 8z m-528 -7 c14 -5 34 -23 45 -39 11
-17 23 -30 28 -30 4 0 7 -9 7 -19 0 -11 14 -33 31 -49 29 -27 30 -31 20 -69
-9 -31 -19 -45 -45 -57 -43 -20 -48 -20 -44 2 2 13 -4 17 -27 16 -16 -1 -45
-6 -62 -12 -42 -14 -42 -2 -1 21 27 16 30 20 16 28 -11 6 -37 1 -81 -15 -45
-16 -67 -20 -70 -12 -4 12 89 60 102 52 13 -9 45 20 37 33 -10 15 -49 10 -100
-12 -58 -26 -116 -33 -127 -16 -6 10 0 17 24 25 21 7 33 18 35 33 4 22 2 23
-48 16 -60 -8 -62 6 -5 25 19 6 35 17 35 25 0 7 10 13 23 13 27 -1 124 35 140
51 6 6 18 9 27 5 8 -3 26 -10 40 -15z m772 -31 c-9 -9 -72 10 -72 22 0 4 18 2
40 -3 22 -6 36 -15 32 -19z m101 -108 c19 -41 21 -68 25 -295 l4 -251 -42 -79
c-55 -105 -74 -125 -119 -125 -26 0 -45 8 -67 29 -16 16 -40 31 -51 35 -15 5
-19 13 -16 26 4 17 0 20 -25 20 -57 0 -94 12 -87 28 7 19 -13 82 -27 82 -6 0
-25 -9 -42 -19 -29 -18 -34 -19 -64 -4 -36 17 -82 67 -82 88 0 8 14 27 30 42
35 33 32 63 -5 63 -13 0 -27 5 -31 11 -5 9 6 10 42 5 48 -6 51 -5 87 34 23 25
37 51 37 67 0 25 1 25 18 10 10 -10 26 -17 34 -17 16 0 103 -39 151 -68 29
-18 57 -62 57 -91 0 -21 19 -41 38 -41 11 0 13 8 8 35 -5 26 -4 35 6 33 35 -8
9 78 -34 110 -9 7 -18 25 -20 40 -4 37 -50 43 -84 11 -22 -21 -25 -21 -42 -6
-10 10 -24 17 -30 17 -7 0 -12 5 -12 10 0 6 7 10 15 10 8 0 36 13 62 28 26 16
56 31 66 35 9 4 20 15 24 24 4 10 13 23 20 28 7 6 23 28 35 50 58 103 61 106
82 87 10 -9 28 -37 39 -62z m-600 27 c74 2 77 -26 3 -34 -16 -2 -34 -7 -41
-13 -17 -14 -47 -1 -74 32 l-24 29 39 -7 c22 -4 65 -7 97 -7z m-616 -29 c4 -7
8 -18 9 -25 4 -25 52 -65 78 -65 14 0 24 -4 21 -8 -8 -13 50 -47 92 -55 23 -3
44 -13 47 -21 6 -16 0 -19 -55 -28 -36 -6 -119 -60 -119 -77 0 -23 32 -18 68
11 39 31 95 51 120 43 18 -7 14 -23 -6 -23 -35 0 -122 -52 -160 -95 -31 -35
-70 -115 -57 -115 2 0 10 -3 19 -6 11 -4 19 2 26 21 12 33 16 31 23 -12 6 -39
14 -53 31 -53 10 0 13 19 12 69 0 77 13 105 63 134 27 16 31 16 31 2 0 -8 -5
-24 -12 -35 -15 -23 -11 -28 31 -40 34 -9 34 -9 45 41 3 14 15 38 27 53 20 25
22 26 40 11 10 -10 22 -14 28 -11 17 11 24 66 10 82 -10 13 -10 17 2 25 22 14
27 11 44 -21 16 -30 48 -54 58 -43 4 3 2 13 -2 22 -5 9 -8 32 -7 51 1 30 5 35
28 37 23 1 26 -3 32 -40 9 -56 31 -87 61 -87 13 0 27 -4 30 -10 3 -5 20 -10
36 -10 20 0 29 -4 27 -12 -3 -8 -30 -14 -74 -16 -58 -2 -73 -7 -91 -27 -29
-31 -29 -39 4 -63 l27 -20 -27 -36 c-15 -20 -38 -41 -50 -47 -12 -7 -45 -32
-73 -56 -28 -23 -56 -43 -61 -43 -14 0 -44 -35 -37 -43 3 -3 -20 -19 -52 -35
-33 -17 -71 -40 -85 -53 -41 -37 -66 -49 -104 -49 -30 0 -43 8 -77 44 -50 56
-84 119 -91 171 -4 22 -9 110 -12 195 -4 85 -8 162 -10 170 -7 26 22 133 39
142 9 5 16 19 16 32 0 35 21 48 37 24z m362 -172 c29 -10 31 -13 18 -25 -13
-10 -20 -10 -41 6 -44 32 -34 40 23 19z m-40 -50 c9 -10 8 -16 -4 -26 -13 -11
-15 -8 -15 14 0 30 3 32 19 12z m-1629 -132 c0 -2 -15 -4 -32 -4 -23 0 -29 3
-19 9 12 8 51 4 51 -5z m2820 -1533 c0 -5 9 -12 19 -16 11 -3 36 -29 56 -58
19 -29 69 -90 110 -136 41 -47 73 -87 70 -89 -2 -2 -73 -5 -157 -6 -84 -1
-158 -5 -165 -9 -15 -10 -25 90 -21 213 l3 95 35 6 c19 4 38 7 43 8 4 0 7 -3
7 -8z m-3283 -17 c-3 -3 -12 -4 -19 -1 -8 3 -5 6 6 6 11 1 17 -2 13 -5z m13
-39 c-7 -8 -17 -12 -23 -8 -6 4 -3 9 9 14 27 11 28 11 14 -6z m1608 -72 c-1
-32 2 -81 6 -109 l8 -52 -54 -5 c-65 -5 -229 0 -237 9 -3 3 8 15 24 27 17 12
57 47 90 78 65 61 132 109 152 109 9 0 13 -17 11 -57z m-1208 -123 c20 -6 21
-8 5 -8 -11 0 -29 3 -40 8 -25 11 1 11 35 0z m-336 -75 c-4 -8 0 -23 7 -32 12
-15 12 -16 -4 -10 -10 4 -32 7 -49 7 -26 0 -29 2 -18 15 7 8 9 16 4 16 -5 1 5
5 21 9 44 11 45 11 39 -5z m153 -11 c-3 -3 -12 -4 -19 -1 -8 3 -5 6 6 6 11 1
17 -2 13 -5z m223 -6 c0 -10 -87 -11 -93 0 -3 4 17 7 44 8 27 0 49 -3 49 -8z
m1176 -1 c12 -11 17 -147 7 -147 -6 0 -13 9 -16 21 -6 24 -42 23 -42 -1 0 -15
-13 -30 -27 -30 -4 0 -6 17 -5 38 3 49 -21 50 -39 2 -9 -25 -13 -29 -13 -14
-1 26 -26 49 -41 39 -7 -4 -9 -18 -6 -34 6 -24 5 -25 -8 -7 -14 18 -46 17 -46
-2 0 -16 -70 -11 -79 6 -18 34 -23 99 -9 122 13 21 17 22 166 18 83 -3 155 -8
158 -11z m1914 -39 c0 -29 -5 -60 -10 -68 -7 -11 -10 1 -10 41 0 30 -5 60 -12
67 -9 9 -7 12 10 12 20 0 22 -5 22 -52z m-273 -35 c-2 -16 -4 -3 -4 27 0 30 2
43 4 28 2 -16 2 -40 0 -55z m206 20 c-1 -32 -2 -66 -3 -75 0 -10 -5 -15 -13
-12 -9 3 -12 16 -9 35 4 26 2 30 -14 27 -16 -3 -19 -12 -17 -51 2 -26 -2 -47
-7 -47 -9 0 -11 11 -16 85 -1 17 -2 38 -3 48 0 10 -9 17 -21 17 -24 0 -33 -32
-28 -95 3 -45 -4 -59 -16 -29 -3 9 -6 47 -6 85 l0 69 78 0 77 0 -2 -57z
m-3128 17 c-3 -5 -12 -7 -20 -3 -21 7 -19 13 6 13 11 0 18 -4 14 -10z m-328
-26 c-3 -3 -12 -4 -19 -1 -8 3 -5 6 6 6 11 1 17 -2 13 -5z m346 -27 c4 -10 -3
-12 -27 -9 -27 4 -28 6 -11 13 29 11 32 11 38 -4z m-173 -13 c0 -2 -9 -4 -20
-4 -11 0 -20 4 -20 9 0 5 9 7 20 4 11 -3 20 -7 20 -9z m253 9 c-13 -2 -33 -2
-45 0 -13 2 -3 4 22 4 25 0 35 -2 23 -4z m-410 -10 c-7 -2 -21 -2 -30 0 -10 3
-4 5 12 5 17 0 24 -2 18 -5z m167 -41 c0 -5 -22 -9 -50 -9 -27 0 -47 3 -44 8
7 11 94 12 94 1z m238 -49 c17 -4 22 -12 22 -38 0 -31 -3 -34 -40 -40 -45 -8
-57 -19 -40 -40 16 -20 59 -19 100 2 24 12 35 13 38 5 2 -7 20 -12 40 -12 61
0 17 -17 -50 -19 -71 -2 -78 -5 -78 -33 0 -16 -5 -19 -22 -14 -13 3 -29 6 -36
6 -7 0 -11 4 -7 9 9 16 -30 31 -79 31 -47 0 -52 4 -37 28 7 11 9 11 14 -2 8
-21 36 -20 44 2 3 9 12 25 20 34 23 26 -4 65 -40 59 -5 -1 -7 3 -5 9 4 13 7
13 44 4 20 -5 29 -2 36 10 7 13 17 16 32 11 11 -4 31 -9 44 -12z m137 -23 c3
-5 1 -10 -4 -10 -6 0 -11 5 -11 10 0 6 2 10 4 10 3 0 8 -4 11 -10z m248 -7
c-7 -2 -21 -2 -30 0 -10 3 -4 5 12 5 17 0 24 -2 18 -5z m795 -14 c13 1 21 -3
18 -8 -3 -4 -8 -78 -11 -162 -2 -85 -7 -226 -10 -314 -3 -88 -8 -172 -11 -187
-3 -17 -1 -28 5 -28 6 0 11 -7 11 -15 0 -8 18 -33 40 -55 22 -22 40 -41 40
-42 0 -2 -56 -3 -125 -3 -143 0 -143 0 -147 80 -4 96 -3 110 4 144 3 18 3 44
-2 57 -6 16 -5 26 6 34 21 18 17 38 -12 65 -24 22 -26 30 -21 72 3 27 2 69 -3
94 -15 80 -12 208 6 267 3 10 25 11 96 7 51 -4 103 -6 116 -6z m-1498 -9 c0
-13 -20 -13 -40 0 -12 8 -9 10 13 10 15 0 27 -4 27 -10z m124 -6 c10 -27 7
-31 -24 -26 -35 5 -37 10 -12 28 22 18 29 17 36 -2z m416 -4 c0 -5 -4 -10 -10
-10 -5 0 -10 5 -10 10 0 6 5 10 10 10 6 0 10 -4 10 -10z m501 -1 c90 -1 171
-3 180 -6 15 -3 15 -8 3 -48 -8 -28 -9 -47 -3 -50 16 -10 -1 -25 -28 -25 -21
0 -23 2 -13 15 10 12 10 16 -1 19 -8 2 -23 7 -34 11 -11 4 -122 6 -246 5 -193
-1 -227 1 -239 14 -11 14 -8 16 21 18 58 3 64 4 77 12 25 15 -1 26 -71 28 -51
1 -36 4 53 8 69 3 128 4 131 3 3 -1 80 -3 170 -4z m-448 -6 c-7 -2 -21 -2 -30
0 -10 3 -4 5 12 5 17 0 24 -2 18 -5z m-3 -59 c0 -2 -12 -4 -26 -4 -14 0 -23 4
-20 9 6 8 46 4 46 -5z m40 6 c0 -5 -5 -10 -11 -10 -5 0 -7 5 -4 10 3 6 8 10
11 10 2 0 4 -4 4 -10z m-540 -17 c-8 -3 -18 -11 -22 -17 -9 -14 -72 -21 -63
-7 3 6 10 9 15 6 4 -3 13 2 20 10 7 8 24 15 39 14 16 0 20 -3 11 -6z m4486 -8
c4 -9 14 -14 23 -13 9 2 15 -2 14 -8 -1 -6 8 -10 20 -10 14 1 23 -6 25 -19 2
-16 1 -17 -7 -6 -8 13 -15 13 -51 1 -23 -8 -44 -20 -47 -27 -6 -15 -73 -18
-73 -3 0 6 8 10 19 10 10 0 25 7 32 16 11 14 11 18 -4 29 -30 22 -18 42 26 44
10 1 20 -6 23 -14z m-4511 -64 c-16 -14 -55 -23 -55 -12 0 8 16 14 55 20 6 0
6 -2 0 -8z m600 -13 c18 2 19 2 2 -8 -9 -6 -39 -10 -65 -8 l-47 3 35 11 c19 6
40 8 45 5 6 -3 19 -4 30 -3z m-718 -4 c-3 -3 -12 -4 -19 -1 -8 3 -5 6 6 6 11
1 17 -2 13 -5z m333 -4 c0 -5 -2 -10 -4 -10 -3 0 -8 5 -11 10 -3 6 -1 10 4 10
6 0 11 -4 11 -10z m134 2 c2 -4 -4 -8 -14 -8 -10 0 -16 4 -14 8 3 4 9 8 14 8
5 0 11 -4 14 -8z m96 -2 c13 -8 13 -10 -2 -10 -9 0 -20 5 -23 10 -8 13 5 13
25 0z m718 -28 c2 -12 -1 -22 -7 -22 -6 0 -8 7 -5 15 5 11 -1 15 -25 15 -21 0
-31 -5 -31 -15 0 -9 -9 -15 -21 -15 -18 0 -19 3 -9 15 16 19 4 23 -80 28 -36
2 -11 3 55 3 116 -1 120 -2 123 -24z m-1074 -21 c3 -5 -1 -12 -10 -15 -22 -9
-24 -8 -24 9 0 16 25 21 34 6z m542 -3 c4 -5 -51 -7 -122 -6 -111 1 -119 2
-54 7 103 8 167 7 176 -1z m44 -4 c0 -2 -7 -4 -15 -4 -8 0 -15 4 -15 10 0 5 7
7 15 4 8 -4 15 -8 15 -10z m109 12 c-8 -8 -88 -10 -95 -3 -4 4 17 7 46 7 29 0
51 -2 49 -4z m148 -2 c-3 -3 -12 -4 -19 -1 -8 3 -5 6 6 6 11 1 17 -2 13 -5z
m-1047 -8 c0 -3 -7 -12 -16 -20 -19 -20 -40 -11 -23 10 10 13 39 20 39 10z
m419 0 c-7 -8 -98 -10 -105 -3 -4 4 19 7 51 7 32 0 56 -2 54 -4z m48 -2 c-3
-3 -12 -4 -19 -1 -8 3 -5 6 6 6 11 1 17 -2 13 -5z m4123 -6 c0 -11 -31 -10
-50 2 -10 6 -5 9 18 8 18 -1 32 -5 32 -10z m-195 -3 c-25 -8 -185 -12 -185 -4
0 5 44 9 98 8 53 0 93 -2 87 -4z m-775 -15 c11 -7 -1 -10 -40 -9 -40 0 -49 3
-35 9 27 12 57 12 75 0z m-2330 -25 c0 -15 -14 -16 -132 -11 -73 3 -164 6
-203 7 -119 3 -11 14 173 17 145 3 162 2 162 -13z m2679 -1 c4 -4 -11 -5 -99
-6 -65 0 -72 1 -65 12 6 9 154 4 164 -6z m-3839 2 c0 -3 -4 -8 -10 -11 -5 -3
-10 -1 -10 4 0 6 5 11 10 11 6 0 10 -2 10 -4z m706 -8 c3 -4 -8 -6 -25 -6 -17
1 -28 5 -25 9 5 9 40 7 50 -3z m3672 5 c-10 -2 -28 -2 -40 0 -13 2 -5 4 17 4
22 1 32 -1 23 -4z m165 0 c-18 -2 -48 -2 -65 0 -18 2 -4 4 32 4 36 0 50 -2 33
-4z m-520 -10 c-13 -2 -33 -2 -45 0 -13 2 -3 4 22 4 25 0 35 -2 23 -4z m-504
-22 c117 -2 78 -10 -82 -17 -122 -5 -147 -4 -147 8 0 11 17 14 78 12 42 -1
110 -2 151 -3z m734 -8 c-24 -2 -62 -2 -85 0 -24 2 -5 4 42 4 47 0 66 -2 43
-4z m94 1 c-3 -3 -12 -4 -19 -1 -8 3 -5 6 6 6 11 1 17 -2 13 -5z m56 -1 c-7
-2 -21 -2 -30 0 -10 3 -4 5 12 5 17 0 24 -2 18 -5z m-409 -24 c-7 -12 -164
-12 -164 0 0 6 19 11 43 13 62 4 128 -3 121 -13z m-3349 1 c18 -8 17 -9 -7 -9
-16 -1 -28 4 -28 9 0 12 8 12 35 0z m52 4 c-3 -3 -12 -4 -19 -1 -8 3 -5 6 6 6
11 1 17 -2 13 -5z m161 0 c-8 -7 -128 -7 -136 0 -3 4 28 6 68 6 40 0 71 -3 68
-6z m2955 -1 c-7 -2 -21 -2 -30 0 -10 3 -4 5 12 5 17 0 24 -2 18 -5z m-143
-33 c0 -5 -17 -9 -37 -9 -38 1 -38 1 -8 9 43 11 45 11 45 0z m-83 -6 c-3 -3
-12 -4 -19 -1 -8 3 -5 6 6 6 11 1 17 -2 13 -5z m-1638 -493 c20 -11 44 -27 52
-37 8 -9 29 -23 47 -31 31 -13 36 -33 9 -33 -7 0 -53 -13 -102 -29 -97 -31
-240 -48 -290 -33 -30 8 -29 9 50 47 49 24 98 57 128 87 26 26 52 48 58 48 5
0 27 -9 48 -19z m1019 -58 c30 -29 59 -53 63 -53 11 0 39 -30 39 -41 0 -6 -32
-9 -80 -8 -61 2 -91 9 -123 26 -59 32 -76 39 -124 54 -24 7 -43 15 -43 18 1
30 82 60 158 58 50 -1 57 -4 110 -54z M2384 5399 c-5 -8 14 -23 39 -32 21 -8
69 12 64 27 -4 12 -96 16 -103 5z M2403 5314 c-10 -7 -26 -14 -35 -14 -10 0
-18 -5 -18 -10 0 -18 28 -23 68 -13 22 6 48 6 61 1 28 -10 73 0 68 16 -2 6
-10 11 -18 11 -8 1 -23 6 -34 12 -27 15 -71 13 -92 -3z M2405 5250 c-10 -16
45 -33 61 -19 8 6 11 15 8 20 -7 12 -61 11 -69 -1z M2065 4878 c-40 -22 -61
-64 -26 -53 10 3 32 7 47 9 63 9 80 27 45 46 -25 13 -41 12 -66 -2z M1680
7650 c0 -5 7 -10 16 -10 8 0 12 5 9 10 -3 6 -10 10 -16 10 -5 0 -9 -4 -9 -10z
M605 7560 c3 -5 8 -10 11 -10 2 0 4 5 4 10 0 6 -5 10 -11 10 -5 0 -7 -4 -4
-10z M550 7550 c0 -5 5 -10 10 -10 6 0 10 5 10 10 0 6 -4 10 -10 10 -5 0 -10
-4 -10 -10z M550 7511 c0 -6 5 -13 10 -16 6 -3 10 1 10 9 0 9 -4 16 -10 16 -5
0 -10 -4 -10 -9z M586 7497 c3 -10 9 -15 12 -12 3 3 0 11 -7 18 -10 9 -11 8
-5 -6z M1887 7499 c7 -7 15 -10 18 -7 3 3 -2 9 -12 12 -14 6 -15 5 -6 -5z
M2165 7290 c3 -5 11 -10 16 -10 6 0 7 5 4 10 -3 6 -11 10 -16 10 -6 0 -7 -4
-4 -10z M1405 7270 c-3 -5 -1 -10 4 -10 6 0 11 5 11 10 0 6 -2 10 -4 10 -3 0
-8 -4 -11 -10z M1630 7100 c0 -5 5 -10 10 -10 6 0 10 5 10 10 0 6 -4 10 -10
10 -5 0 -10 -4 -10 -10z M1700 7060 c0 -5 5 -10 11 -10 5 0 7 5 4 10 -3 6 -8
10 -11 10 -2 0 -4 -4 -4 -10z M2495 7050 c3 -5 11 -10 16 -10 6 0 7 5 4 10 -3
6 -11 10 -16 10 -6 0 -7 -4 -4 -10z M3070 6290 c0 -5 5 -10 11 -10 5 0 7 5 4
10 -3 6 -8 10 -11 10 -2 0 -4 -4 -4 -10z M3182 6229 c2 -7 10 -15 17 -17 8 -3
12 1 9 9 -2 7 -10 15 -17 17 -8 3 -12 -1 -9 -9z M1026 5993 c-32 -35 -33 -53
-2 -53 28 0 43 16 48 49 5 35 -16 37 -46 4z M4092 5748 c2 -6 15 -15 28 -20
23 -9 23 -8 5 12 -20 22 -39 27 -33 8z M4235 5660 c3 -5 10 -10 16 -10 5 0 9
5 9 10 0 6 -7 10 -16 10 -8 0 -12 -4 -9 -10z M3725 5610 c3 -5 8 -10 11 -10 2
0 4 5 4 10 0 6 -5 10 -11 10 -5 0 -7 -4 -4 -10z M4915 5520 c4 -6 11 -8 16 -5
14 9 11 15 -7 15 -8 0 -12 -5 -9 -10z M1630 5385 c0 -8 5 -15 10 -15 6 0 10 7
10 15 0 8 -4 15 -10 15 -5 0 -10 -7 -10 -15z M4770 5325 c0 -2 10 -10 23 -16
20 -11 21 -11 8 4 -13 16 -31 23 -31 12z M3450 4723 c-8 -2 -29 -11 -46 -19
-17 -7 -41 -15 -52 -17 -12 -2 -30 -11 -41 -21 -11 -10 -25 -15 -32 -10 -8 4
-10 3 -5 -4 4 -7 2 -12 -3 -12 -14 0 -14 -27 0 -35 26 -17 66 -10 84 14 10 13
13 21 7 17 -7 -4 -12 -2 -12 3 0 6 9 11 20 11 11 0 20 4 20 9 0 9 36 21 78 26
30 4 92 -13 92 -26 0 -6 4 -7 10 -4 10 6 103 -39 95 -46 -11 -12 127 -17 149
-6 16 8 18 6 12 -8 -5 -15 -4 -16 8 -6 8 7 19 10 25 7 9 -6 78 -15 161 -21 25
-2 72 -7 105 -11 72 -8 144 -8 152 -1 12 13 -11 27 -43 27 -26 0 -33 3 -28 13
5 7 0 6 -11 -3 -10 -9 -20 -11 -22 -5 -1 6 -32 10 -68 9 -82 -1 -145 9 -127
20 7 4 16 5 19 2 3 -3 14 -1 24 5 14 7 19 6 19 -2 0 -8 4 -8 15 1 9 7 18 10
22 7 3 -4 13 -2 20 5 11 9 17 9 24 -3 6 -10 9 -11 9 -1 0 15 35 12 68 -6 25
-15 91 -22 97 -12 3 4 22 10 43 14 21 3 67 15 102 26 73 23 153 19 173 -10 15
-22 102 -65 147 -74 19 -3 46 -9 60 -12 14 -3 49 -8 78 -11 44 -5 52 -3 52 11
0 19 2 18 -110 41 -47 9 -94 22 -105 28 -112 61 -159 78 -214 76 -31 -1 -63
-6 -71 -11 -8 -5 -56 -17 -107 -27 -80 -16 -95 -16 -124 -4 -18 8 -56 14 -84
13 -49 0 -100 -5 -100 -10 0 -1 -25 -4 -55 -7 -30 -3 -63 -11 -73 -18 -21 -15
-60 -8 -50 9 4 6 -1 5 -10 -3 -9 -7 -23 -11 -32 -8 -8 4 -17 2 -20 -3 -4 -6
-11 -10 -16 -10 -6 0 -7 5 -3 11 5 8 1 8 -14 0 -25 -13 -35 -14 -28 -2 4 5 -4
7 -16 3 -21 -5 -22 -4 -8 13 13 17 13 18 0 9 -23 -14 -61 -12 -56 3 3 7 2 12
-2 11 -4 -1 -18 3 -32 9 -14 6 -42 18 -64 27 -38 16 -77 19 -106 9z M3549
4603 c-13 -16 -12 -17 4 -4 16 13 21 21 13 21 -2 0 -10 -8 -17 -17z M4355
4589 c-27 -3 -53 -4 -57 -2 -13 7 -9 -15 4 -23 11 -7 58 -7 135 1 31 3 55 -3
90 -21 56 -28 63 -29 63 -9 0 8 -6 15 -14 15 -7 0 -25 9 -39 21 -29 22 -98 29
-182 18z M3629 4573 c-13 -16 -12 -17 4 -4 9 7 17 15 17 17 0 8 -8 3 -21 -13z
M3220 4479 c0 -5 5 -7 10 -4 6 3 10 8 10 11 0 2 -4 4 -10 4 -5 0 -10 -5 -10
-11z M51 4374 c0 -11 3 -14 6 -6 3 7 2 16 -1 19 -3 4 -6 -2 -5 -13z M203 4377
c-13 -22 11 -29 132 -40 14 -1 20 4 20 18 0 18 -8 21 -73 25 -41 3 -76 1 -79
-3z M515 4373 c-70 -5 -80 -10 -65 -28 14 -17 61 -20 77 -4 8 8 13 8 17 0 10
-16 42 -13 56 4 7 9 11 17 9 19 -9 8 -48 12 -94 9z M681 4369 c-18 -7 -21 -12
-12 -23 8 -10 42 -14 121 -15 92 -1 112 1 116 14 4 9 5 17 3 19 -10 9 -207 12
-228 5z M1020 4351 c-28 -19 6 -35 77 -37 67 -2 113 10 97 26 -14 13 -157 22
-174 11z M1226 4352 c-11 -19 37 -42 86 -42 46 0 69 13 52 30 -14 14 -131 24
-138 12z M1553 4345 c-8 -21 -4 -24 49 -29 54 -5 95 16 68 34 -25 16 -110 12
-117 -5z M3186 4351 c-11 -17 15 -24 88 -21 126 3 141 5 146 15 7 13 -226 19
-234 6z M3598 4352 c-27 -2 -48 -7 -48 -13 0 -5 -1 -12 -2 -15 -2 -3 72 -6
164 -7 126 -2 169 1 173 10 2 7 -5 15 -18 17 -30 7 -210 12 -269 8z M4798
4355 c-10 -10 -403 -19 -647 -15 -80 1 -101 -3 -89 -16 20 -19 502 -24 786 -7
92 5 102 8 102 25 0 17 -7 19 -75 17 -41 -1 -76 -3 -77 -4z M4670 4290 c0 -11
39 -20 45 -10 3 4 -6 10 -20 12 -14 3 -25 2 -25 -2z M4901 4291 c-11 -7 -10
-11 7 -20 30 -16 42 -14 42 9 0 21 -24 27 -49 11z M50 4259 c0 -21 -2 -21 149
-19 107 1 125 4 119 22 -2 6 -57 11 -136 13 -123 2 -132 1 -132 -16z M437
4273 c-14 -13 -6 -21 23 -25 34 -5 56 5 46 21 -8 12 -58 15 -69 4z M635 4260
c-10 -16 4 -30 30 -30 29 0 43 19 24 31 -19 12 -46 11 -54 -1z M748 4259 c-22
-14 4 -29 60 -36 44 -5 52 -3 52 11 0 9 -3 16 -7 16 -5 1 -27 5 -50 9 -23 4
-47 4 -55 0z M4048 4263 c-42 -11 -12 -23 65 -25 45 -1 93 -2 107 -2 15 -1 25
5 25 13 0 11 -20 15 -90 17 -49 1 -98 0 -107 -3z M4431 4249 c-47 -9 -69 -23
-54 -32 14 -9 193 5 193 14 0 20 -78 31 -139 18z M1706 4243 c-3 -3 -67 -6
-143 -5 -122 1 -134 -1 -121 -14 20 -20 299 -26 305 -7 5 13 -31 36 -41 26z
M4721 4240 c-25 -6 -41 -29 -22 -31 69 -5 221 0 222 7 5 28 -123 44 -200 24z
M1087 4234 c-14 -15 -6 -23 27 -29 38 -8 83 2 70 15 -13 11 -88 22 -97 14z
M3190 4226 c0 -17 42 -23 217 -30 69 -3 115 -1 119 5 13 21 9 22 -218 34 -100
5 -118 4 -118 -9z M3704 4217 c-33 -18 -11 -28 58 -25 92 4 105 25 18 30 -34
1 -68 -1 -76 -5z M3958 4205 c-80 -30 -128 -88 -113 -136 6 -18 4 -21 -10 -15
-11 4 -22 0 -29 -9 -9 -12 -34 -16 -106 -18 -75 -3 -95 -6 -95 -18 0 -16 -32
-26 -87 -28 -23 -1 -40 -7 -46 -17 -10 -18 -83 -20 -224 -8 -58 5 -69 4 -74
-11 -9 -23 13 -36 56 -33 19 1 76 -2 127 -6 66 -6 90 -12 87 -21 -6 -14 26
-25 77 -25 23 0 39 6 42 14 8 21 -2 26 -55 26 -45 0 -47 1 -36 20 11 17 15 18
34 5 19 -12 81 -13 386 -10 199 3 406 7 460 9 90 4 96 3 101 -16 5 -19 11 -20
224 -13 120 3 230 6 246 5 26 0 27 2 27 51 0 46 -2 50 -22 48 -38 -4 -106 22
-111 42 -3 10 -18 23 -34 29 -15 6 -40 17 -55 25 -35 20 -54 19 -108 -7 -25
-11 -63 -22 -85 -25 -113 -11 -141 -8 -167 22 -12 14 -27 25 -33 25 -6 0 -27
11 -46 26 -25 18 -44 24 -71 22 -26 -1 -42 3 -50 14 -12 15 -41 22 -75 19 -21
-2 -15 -39 7 -46 11 -3 24 -4 29 -1 5 3 11 -3 14 -14 7 -27 33 -35 62 -20 20
11 28 10 54 -9 40 -29 45 -77 7 -67 -30 7 -56 -2 -56 -19 0 -14 -22 -25 -50
-25 -15 0 -18 7 -17 37 2 31 -2 39 -23 49 -42 20 -114 34 -125 23 -5 -5 -17
-9 -27 -9 -15 0 -17 5 -12 25 4 18 2 25 -8 25 -19 0 -38 -20 -38 -42 0 -10 -4
-18 -10 -18 -18 0 -10 36 13 56 33 29 81 46 118 42 28 -2 34 0 34 17 0 16 -7
20 -35 22 -19 1 -52 -4 -72 -12z m792 -175 c11 -11 20 -24 20 -30 0 -5 11 -12
25 -16 14 -4 24 -8 22 -10 -10 -10 -218 -29 -226 -21 -5 5 -31 11 -57 13 -27
3 -62 9 -78 14 -16 6 -39 10 -51 10 -13 0 -28 7 -36 16 -11 14 -8 15 32 9 24
-4 53 -8 64 -10 11 -1 44 -5 73 -10 36 -5 57 -3 67 5 8 6 18 9 22 7 5 -3 26 6
48 19 48 29 50 29 75 4z M4295 4170 c-3 -5 -4 -13 -2 -18 7 -11 132 1 132 13
0 14 -122 19 -130 5z M621 4162 c-16 -5 -13 -29 4 -36 9 -3 86 -5 171 -5 138
1 155 3 152 18 -3 14 -21 16 -128 18 -69 2 -139 4 -156 6 -18 1 -37 1 -43 -1z
M1144 4159 c-14 -23 17 -27 200 -31 142 -2 190 0 193 9 6 18 -25 22 -214 27
-115 4 -174 2 -179 -5z M1627 4164 c-14 -14 -6 -24 19 -24 16 0 24 5 22 13 -5
14 -31 21 -41 11z M4573 4163 c-28 -5 -30 -19 -4 -26 26 -6 111 4 111 13 0 18
-51 24 -107 13z M220 4149 c-25 -4 -73 -5 -107 -2 -60 5 -63 4 -63 -17 0 -21
2 -22 115 -18 76 2 118 7 127 16 10 10 10 15 -2 22 -8 5 -17 9 -20 9 -3 -1
-25 -5 -50 -10z M351 4151 c-22 -6 -22 -8 -7 -20 12 -10 34 -12 87 -7 77 7 93
12 84 27 -7 10 -127 11 -164 0z M4941 4134 c0 -11 3 -14 6 -6 3 7 2 16 -1 19
-3 4 -6 -2 -5 -13z M3142 4112 c-7 -2 -12 -9 -12 -16 0 -10 29 -12 121 -10
113 2 150 8 118 18 -19 6 -212 13 -227 8z M952 4080 c-44 -19 -19 -35 54 -36
38 0 121 -4 185 -8 84 -6 119 -4 124 4 11 19 1 22 -102 31 -201 17 -239 19
-261 9z M2266 4082 c-16 -26 -49 -343 -37 -355 24 -24 30 4 46 193 1 14 6 55
10 91 4 43 3 69 -3 73 -6 3 -13 2 -16 -2z M3597 4078 c-54 -14 -42 -34 19 -29
44 3 63 13 64 34 0 9 -36 7 -83 -5z M1564 4068 c-15 -23 39 -33 151 -28 50 2
67 16 34 28 -33 12 -178 12 -185 0z M63 4063 c-28 -11 -10 -24 29 -21 51 4 66
28 16 27 -18 0 -39 -3 -45 -6z M2198 4063 c-2 -4 -5 -31 -6 -59 -2 -35 2 -55
12 -63 13 -11 16 -8 22 14 11 45 -13 139 -28 108z M287 4052 c-16 -2 -27 -8
-24 -15 2 -8 44 -14 123 -17 131 -6 144 -4 144 16 0 8 -6 15 -12 15 -29 3
-205 4 -231 1z M3353 4043 c-22 -8 -14 -23 13 -23 15 0 24 5 22 12 -5 14 -18
18 -35 11z M558 4020 c-18 -9 -52 -28 -75 -43 -24 -15 -49 -27 -57 -27 -8 0
-17 -4 -20 -9 -8 -13 -63 -23 -141 -25 -39 -2 -80 -8 -92 -14 -12 -7 -34 -12
-50 -12 -32 -1 -73 -31 -73 -54 0 -22 27 -20 56 3 15 12 49 22 87 26 128 14
143 15 175 21 33 6 92 33 117 54 15 12 117 31 175 31 33 1 40 0 65 -6 6 -1 17
-3 25 -4 23 -2 -30 -27 -75 -34 -43 -7 -145 -56 -145 -69 0 -5 -4 -6 -10 -3
-12 7 -125 -20 -166 -41 -24 -12 -41 -13 -80 -6 l-49 10 43 1 c30 1 42 5 39
14 -2 8 -25 12 -64 12 -56 0 -74 -5 -146 -41 -16 -8 -33 -12 -38 -8 -5 3 -9
-45 -9 -115 0 -101 2 -121 15 -121 8 0 15 -4 15 -10 0 -5 -7 -10 -15 -10 -8 0
-15 -8 -15 -18 0 -18 16 -19 308 -20 169 -1 343 -4 387 -8 48 -3 91 -1 108 5
29 11 171 19 453 25 183 3 236 15 199 42 -10 8 -30 14 -44 15 l-26 0 25 10
c14 6 85 13 159 15 92 3 143 10 163 20 34 17 32 37 -3 42 -13 2 -33 12 -44 21
-22 20 -80 42 -89 34 -3 -3 -14 9 -24 27 -34 55 -80 76 -167 74 -56 -1 -81 -6
-95 -19 -33 -30 -159 -8 -206 36 -12 12 -37 20 -59 21 -27 1 -62 16 -117 50
-43 26 -80 48 -82 48 -3 0 -22 11 -42 25 -20 14 -40 22 -44 20 -5 -3 -11 -1
-15 4 -14 24 -195 32 -237 11z m579 -239 c8 -23 8 -28 -2 -25 -13 5 -27 54
-16 54 4 0 12 -13 18 -29z m383 2 c0 -5 14 -16 30 -25 23 -13 30 -24 30 -48 0
-34 22 -49 45 -30 11 9 15 9 15 1 0 -7 5 -9 10 -6 6 3 10 1 10 -5 0 -7 -7 -10
-15 -7 -8 4 -17 2 -20 -3 -3 -5 -18 -5 -35 0 -18 5 -32 5 -35 -1 -4 -5 -19 -9
-36 -9 -32 0 -36 20 -6 32 25 10 21 27 -8 34 -29 7 -42 39 -25 59 13 16 40 20
40 8z m-689 -39 c16 3 29 2 29 -3 0 -15 -53 -20 -100 -10 -25 5 -63 7 -85 5
-22 -2 -46 -4 -52 -5 -7 -1 -13 -7 -13 -15 0 -15 -12 -20 -72 -30 -30 -5 -36
-4 -34 9 5 33 73 61 174 71 31 4 59 8 61 10 2 2 17 -6 33 -17 21 -15 38 -20
59 -15z m239 27 c0 -5 -6 -12 -12 -15 -9 -3 -8 -8 5 -16 21 -14 22 -34 1 -55
-15 -14 -19 -13 -49 16 -31 30 -31 33 -14 50 15 15 34 24 62 28 4 0 7 -3 7 -8z
m340 5 c0 -3 -4 -16 -10 -30 -9 -24 -13 -25 -57 -21 -70 8 -93 14 -93 26 0 6
22 9 55 7 37 -3 59 0 67 9 10 12 38 18 38 9z m-1031 -35 c12 -8 12 -12 -3 -26
-16 -16 -15 -18 5 -36 12 -11 29 -17 38 -14 23 7 43 -9 35 -28 -4 -12 -18 -17
-48 -17 -35 0 -45 4 -56 25 -15 27 -39 26 -72 -2 -9 -8 -22 -12 -27 -8 -6 3
-25 -1 -42 -9 -18 -9 -42 -13 -55 -10 l-24 6 23 30 c42 56 66 78 80 72 8 -3
19 1 25 9 13 16 100 21 121 8z m55 -6 c-4 -8 -13 -15 -21 -15 -13 0 -13 3 -3
15 7 8 16 15 21 15 5 0 6 -7 3 -15z m496 5 c0 -5 -5 -10 -11 -10 -5 0 -7 5 -4
10 3 6 8 10 11 10 2 0 4 -4 4 -10z m36 -60 c0 -14 -6 -18 -20 -16 -39 6 -31
25 14 35 3 0 6 -8 6 -19z m204 -1 c0 -5 -4 -9 -10 -9 -5 0 -10 7 -10 16 0 8 5
12 10 9 6 -3 10 -10 10 -16z m-65 -39 c-3 -5 -11 -10 -16 -10 -6 0 -7 5 -4 10
3 6 11 10 16 10 6 0 7 -4 4 -10z m-61 -25 c-7 -16 -24 -21 -24 -6 0 8 7 13 27
20 1 1 0 -6 -3 -14z m-51 -12 c-7 -2 -21 -2 -30 0 -10 3 -4 5 12 5 17 0 24 -2
18 -5z m-743 -40 c22 0 45 6 51 14 10 11 15 11 30 -3 16 -14 43 -16 181 -16
90 1 181 -3 203 -7 37 -9 36 -9 -25 -9 -434 -2 -524 -1 -529 3 -2 3 2 16 9 30
13 24 14 24 26 6 9 -13 26 -18 54 -18z m880 -3 c13 -10 13 -11 0 -9 -8 2 -81
-1 -162 -5 -81 -4 -153 -4 -160 0 -8 6 18 11 67 14 158 10 240 10 255 0z
M1392 3992 c3 -15 22 -17 150 -18 81 -1 154 -4 163 -7 21 -8 45 2 45 19 0 11
-19 14 -82 15 -46 0 -127 2 -181 4 -87 3 -98 2 -95 -13z M1842 4001 c-13 -3
-24 -10 -25 -16 -3 -13 63 -19 75 -7 14 14 -21 30 -50 23z M3030 3995 c0 -12
16 -15 76 -15 56 0 75 3 72 13 -3 8 -30 13 -76 14 -58 2 -72 0 -72 -12z M1000
3991 c0 -5 6 -14 14 -20 16 -13 32 2 21 19 -8 12 -35 13 -35 1z M1070 3987 c0
-19 22 -27 49 -20 31 8 20 27 -17 31 -23 2 -32 -1 -32 -11z M1260 3991 c0 -5
7 -12 16 -15 28 -11 54 -6 54 9 0 10 -11 15 -35 15 -19 0 -35 -4 -35 -9z
M2897 3994 c-3 -4 2 -18 13 -31 11 -14 22 -41 26 -62 4 -20 11 -45 17 -56 6
-11 11 -29 11 -40 1 -22 -23 -55 -39 -55 -27 0 -79 -79 -69 -104 10 -25 20
-19 30 16 13 46 51 66 93 49 35 -15 39 -28 14 -46 -21 -15 -7 -38 18 -30 21 7
52 -12 43 -26 -3 -5 2 -30 11 -55 9 -26 13 -49 10 -52 -3 -3 -21 2 -41 11 -32
16 -37 16 -67 1 -42 -22 -49 -35 -30 -56 21 -24 55 -24 51 0 -4 22 2 25 35 17
22 -6 25 -10 16 -21 -14 -17 -3 -34 22 -34 11 0 23 -10 28 -23 12 -32 56 -54
75 -38 16 14 9 34 -26 76 -9 11 -19 45 -22 77 -3 32 -10 67 -16 78 -6 12 -9
26 -7 33 2 7 -7 25 -19 40 -13 16 -24 35 -24 42 0 8 -10 21 -22 29 -16 12 -22
24 -20 47 1 17 -2 37 -8 44 -5 6 -12 27 -15 46 -2 19 -11 54 -18 79 -11 36
-19 46 -38 48 -14 2 -28 0 -32 -4z M73 3973 c-13 -2 -23 -11 -23 -20 0 -12 9
-14 53 -8 59 8 70 13 62 26 -6 9 -50 10 -92 2z M1103 3908 c2 -9 24 -13 62
-13 38 0 60 4 63 13 3 9 -14 12 -63 12 -49 0 -66 -3 -62 -12z M1360 3901 c0
-18 35 -20 265 -20 127 0 245 -1 263 -1 21 0 32 5 32 15 0 12 -41 14 -280 14
-163 1 -280 -3 -280 -8z M3653 3892 c-25 -2 -33 -8 -33 -22 0 -18 9 -19 203
-16 176 3 202 6 205 20 3 13 -6 16 -45 17 -191 3 -303 4 -330 1z M4085 3880
c-13 -22 8 -27 102 -26 80 1 98 4 98 16 0 12 -19 16 -97 18 -59 2 -99 -1 -103
-8z M4440 3873 c-30 -2 -62 -6 -70 -10 -8 -3 -22 -7 -30 -7 -14 -1 -16 -7 -11
-36 1 -13 34 -13 47 0 12 12 187 15 204 5 6 -4 91 -7 190 -9 179 -2 180 -2
180 20 0 21 -3 22 -207 27 -115 3 -217 7 -228 9 -11 3 -45 3 -75 1z M1810
3853 c-79 -4 -97 -10 -83 -24 7 -7 43 -10 90 -9 43 2 97 2 120 1 40 -1 69 15
41 23 -24 8 -102 12 -168 9z M3060 3853 c1 -23 22 -31 89 -32 40 -1 77 -4 81
-6 13 -8 40 6 40 20 0 8 -22 14 -61 19 -83 8 -149 8 -149 -1z M1329 3813 c-13
-16 -12 -17 4 -4 9 7 17 15 17 17 0 8 -8 3 -21 -13z M3365 3820 c-13 -21 9
-27 122 -34 152 -10 518 -10 533 -1 29 18 -23 23 -189 19 -128 -4 -206 -1
-285 10 -127 19 -172 20 -181 6z M1900 3786 c0 -8 5 -18 10 -21 13 -8 42 14
34 26 -9 15 -44 10 -44 -5z M4162 3722 c-33 -5 -25 -37 8 -36 38 2 40 3 40 18
0 17 -17 23 -48 18z M3439 3710 c-19 -12 -10 -18 36 -22 30 -2 40 1 40 12 0
17 -53 24 -76 10z M4312 3703 c2 -13 14 -19 41 -21 33 -3 38 -1 35 15 -2 13
-14 19 -41 21 -33 3 -38 1 -35 -15z M4845 3712 c-2 -2 -98 -4 -214 -3 -115 1
-212 -3 -215 -8 -15 -24 28 -30 209 -29 285 2 325 6 325 29 0 16 -7 19 -51 17
-27 -1 -52 -4 -54 -6z M3713 3703 c-7 -3 -13 -9 -13 -14 0 -5 44 -9 97 -9 69
0 94 3 86 11 -10 10 -147 20 -170 12z M3155 3690 c-8 -13 6 -17 77 -23 58 -6
79 2 55 20 -17 14 -124 16 -132 3z M2804 3572 c-23 -26 -61 -60 -85 -76 -24
-16 -69 -47 -101 -68 -31 -21 -61 -38 -68 -38 -6 0 -10 -6 -8 -12 8 -23 39
-20 66 4 15 14 54 42 87 63 55 35 175 150 175 168 0 20 -29 2 -66 -41z M4902
3611 c-13 -3 -23 -9 -23 -13 1 -5 1 -12 1 -17 0 -13 30 -22 51 -16 21 7 26 41
7 47 -7 3 -23 2 -36 -1z M3215 3580 c-8 -14 13 -20 55 -16 47 5 48 6 25 16
-28 12 -73 12 -80 0z M3518 3572 c-16 -2 -28 -8 -28 -13 0 -6 4 -8 9 -5 4 3
23 1 42 -4 37 -11 135 -2 122 10 -9 9 -106 17 -145 12z M3945 3550 c3 -5 44
-10 91 -10 54 0 83 4 79 10 -3 6 -44 10 -91 10 -54 0 -83 -4 -79 -10z M4645
3552 c-3 -3 -94 -5 -202 -4 -159 2 -195 0 -185 -10 17 -17 464 -20 459 -4 -4
12 -63 26 -72 18z M2818 3491 c-34 -38 -75 -70 -117 -90 -81 -41 -68 -60 15
-21 89 43 212 170 164 170 -4 0 -32 -26 -62 -59z M1585 3521 c-14 -24 13 -32
116 -32 194 -1 209 0 209 16 0 11 -12 15 -47 15 -27 0 -98 3 -159 6 -83 5
-113 4 -119 -5z M4792 3502 c-13 -2 -21 -9 -19 -15 5 -16 169 -16 174 0 4 11
-105 22 -155 15z M3756 3492 c-7 -12 106 -23 119 -11 5 5 7 9 5 10 -73 8 -119
9 -124 1z M53 3474 c-7 -18 12 -34 40 -34 26 0 18 31 -11 41 -17 7 -24 5 -29
-7z M246 3471 c-27 -3 -51 -11 -53 -18 -7 -21 30 -31 90 -23 61 9 68 8 127 -9
19 -6 81 -11 138 -11 83 0 104 3 109 15 3 9 3 18 0 21 -3 3 -45 6 -94 5 -48 0
-126 7 -172 15 -46 7 -86 13 -90 12 -3 0 -28 -4 -55 -7z M1263 3457 c-14 -23
24 -30 184 -32 92 -1 187 -5 209 -9 40 -8 84 4 84 23 0 4 -26 12 -57 16 -84
11 -413 13 -420 2z M1790 3455 c0 -33 57 -30 68 3 2 8 -9 12 -32 12 -26 0 -36
-4 -36 -15z M4110 3460 c0 -10 15 -14 35 -10 5 1 22 2 37 2 15 1 25 5 22 10
-7 12 -94 10 -94 -2z M765 3451 c-13 -22 5 -26 113 -27 59 -1 157 -5 218 -9
78 -5 113 -4 118 3 12 20 -63 30 -285 39 -116 4 -158 2 -164 -6z M3214 3448
c-15 -24 20 -32 129 -30 110 3 136 10 123 31 -9 14 -244 13 -252 -1z M2370
3442 c0 -15 24 -32 47 -32 31 0 29 18 -3 30 -31 12 -44 13 -44 2z M2265 3430
c-6 -10 67 -60 89 -60 8 0 31 -9 50 -21 34 -20 56 -19 56 2 0 5 -17 17 -37 25
-21 9 -59 27 -85 40 -53 26 -64 29 -73 14z M3564 3416 c-4 -9 -4 -19 -2 -21 9
-9 235 -13 248 -5 30 18 -7 29 -122 36 -105 6 -118 5 -124 -10z M2121 3386
c-15 -18 2 -31 25 -18 12 7 35 2 75 -14 32 -13 66 -24 74 -24 24 0 106 -45
143 -79 46 -41 95 -34 182 28 35 25 73 48 83 51 19 5 25 22 10 27 -9 3 -76
-39 -123 -76 -14 -11 -43 -23 -66 -27 -35 -5 -45 -2 -72 23 -17 15 -60 40 -94
54 -180 74 -215 82 -237 55z M4265 3390 c-12 -20 7 -27 90 -33 85 -6 120 2 98
24 -17 17 -178 25 -188 9z M4827 3393 c-77 -3 -88 -6 -85 -21 3 -14 17 -17 93
-18 49 -1 95 0 102 3 20 8 16 43 -4 41 -10 -1 -58 -4 -106 -5z M2945 3370 c-4
-7 -3 -16 2 -21 12 -12 45 0 40 15 -5 15 -34 19 -42 6z M50 3356 c0 -11 9 -16
28 -16 15 -1 37 -6 49 -13 26 -15 145 -7 150 9 3 8 -21 14 -69 18 -40 3 -92 8
-115 12 -35 5 -43 3 -43 -10z M553 3363 c-17 -2 -34 -11 -37 -18 -4 -12 10
-15 79 -14 46 0 89 -2 95 -6 17 -10 198 -7 217 4 15 8 16 10 3 15 -31 10 -309
25 -357 19z M1091 3351 c-7 -5 -11 -13 -8 -17 6 -11 462 -12 473 -1 18 17 -21
23 -141 19 -27 -1 -108 0 -180 3 -73 3 -136 2 -144 -4z M1667 3341 c-10 -4
-17 -11 -15 -16 4 -14 87 -12 92 2 8 20 -39 29 -77 14z M3370 3296 c0 -20 11
-26 62 -31 54 -5 88 3 88 21 0 8 -3 14 -7 14 -5 1 -38 3 -75 6 -56 4 -68 2
-68 -10z M926 3283 c-3 -4 -26 -7 -50 -8 -42 0 -76 -17 -76 -37 0 -6 11 -7 24
-4 14 3 111 6 216 7 135 0 190 4 188 11 -5 15 -29 17 -162 18 -60 0 -114 5
-121 10 -6 5 -15 7 -19 3z M288 3268 c-21 -6 -38 -13 -38 -16 0 -10 227 -8
236 1 4 4 5 9 3 11 -11 9 -168 12 -201 4z M3728 3272 c-21 -4 -24 -21 -5 -27
6 -2 47 -6 89 -9 57 -4 79 -1 88 9 7 8 7 15 1 19 -12 8 -149 14 -173 8z M1920
3254 c-55 -17 -79 -39 -62 -56 9 -9 16 -8 29 4 10 8 25 16 33 16 107 2 118 5
123 29 4 21 1 23 -37 22 -22 -1 -61 -7 -86 -15z M2060 3262 c0 -11 70 -35 78
-27 10 10 -29 35 -55 35 -13 0 -23 -4 -23 -8z M4098 3249 c-28 -18 9 -29 93
-29 72 0 89 3 89 15 0 9 -10 16 -22 16 -77 4 -151 3 -160 -2z M1545 3240 c-3
-5 0 -13 8 -16 23 -8 82 0 82 11 0 14 -82 19 -90 5z M4685 3239 c-14 -22 21
-30 115 -25 52 3 107 5 123 6 16 0 27 5 27 14 0 18 -254 24 -265 5z M100 3201
c-8 -5 -11 -13 -8 -17 11 -11 228 -15 228 -4 0 6 -10 11 -22 12 -13 0 -34 3
-48 4 -98 12 -137 14 -150 5z M571 3196 c-7 -8 -8 -16 -4 -18 16 -9 138 -3
143 7 11 22 -121 33 -139 11z M1194 3188 c-4 -5 -3 -12 1 -16 5 -5 338 -7 439
-2 6 0 5 5 -2 12 -8 8 -43 11 -99 10 -94 -2 -221 0 -291 3 -24 1 -45 -2 -48
-7z M1981 3152 c-33 -22 -25 -32 24 -30 25 1 45 6 45 11 0 5 19 6 43 3 23 -3
50 -7 60 -8 9 -1 17 -6 17 -10 0 -12 43 -48 57 -48 26 0 12 18 -43 56 -49 34
-62 38 -118 39 -39 1 -71 -4 -85 -13z M390 3122 c-19 -1 -60 -8 -90 -14 -30
-5 -83 -10 -117 -9 -51 2 -63 -1 -63 -13 0 -9 8 -16 18 -17 9 0 44 -2 77 -4
33 -2 67 0 75 5 8 4 42 11 75 14 77 8 56 7 234 2 149 -4 201 3 201 27 0 6 -25
7 -65 3 -36 -4 -65 -3 -65 1 0 8 -206 11 -280 5z M3395 3120 c-8 -13 29 -26
83 -29 52 -2 68 5 51 25 -13 16 -124 20 -134 4z M2970 3105 c-14 -17 -13 -18
55 -19 66 -1 123 -32 148 -79 15 -29 22 -35 33 -27 16 14 3 56 -24 77 -65 52
-186 80 -212 48z M947 3098 c-28 -17 17 -23 191 -23 247 -1 324 4 319 18 -3 9
-37 11 -118 8 -164 -5 -194 -5 -292 0 -48 3 -93 1 -100 -3z M1572 3103 c-47
-6 -29 -23 24 -23 32 0 44 4 42 13 -5 14 -19 16 -66 10z M3825 3090 c-8 -14
38 -30 85 -30 41 0 62 16 39 31 -19 12 -116 11 -124 -1z M4205 3082 c-39 -5
-52 -18 -29 -29 25 -12 146 -1 151 14 4 12 -68 21 -122 15z M4619 3079 c-25
-15 20 -23 106 -19 49 3 120 4 158 4 52 -1 67 2 67 13 0 12 -27 14 -160 12
-89 -2 -165 -6 -171 -10z M2284 3049 c-9 -15 4 -25 56 -44 66 -24 107 -33 178
-39 35 -3 70 -9 78 -14 8 -4 47 -4 87 1 40 5 83 10 97 11 14 2 26 10 28 19 3
15 -8 22 -30 18 -4 0 -39 -6 -78 -12 -51 -8 -79 -8 -103 0 -18 6 -70 13 -115
15 -64 2 -92 8 -133 29 -59 31 -56 30 -65 16z M637 3043 c-4 -3 -7 -11 -7 -17
0 -6 5 -5 12 2 6 6 9 14 7 17 -3 3 -9 2 -12 -2z M2035 3020 c-10 -15 4 -31 42
-46 33 -14 53 -12 53 6 0 7 -73 50 -85 50 -2 0 -7 -4 -10 -10z M3566 2982
c-11 -18 12 -30 56 -28 51 2 64 8 53 25 -7 13 -101 15 -109 3z M847 2974 c-3
-3 -3 -12 0 -20 3 -9 -2 -14 -15 -14 -25 0 -34 -12 -26 -34 5 -14 26 -15 173
-11 195 6 214 9 209 33 -3 15 -17 17 -142 13 -107 -2 -137 0 -131 9 13 21 -49
43 -68 24z M1262 2964 c-24 -18 -16 -21 65 -28 47 -4 74 -3 78 4 11 18 -2 24
-66 30 -40 4 -66 2 -77 -6z M3847 2969 c-27 -16 -10 -29 37 -29 47 0 80 22 50
34 -24 9 -67 7 -87 -5z M1487 2959 c-29 -17 -12 -25 50 -24 44 0 58 4 58 15 0
18 -81 25 -108 9z M4165 2950 c-14 -22 8 -29 78 -24 93 6 119 12 112 24 -8 13
-182 13 -190 0z M4670 2946 c0 -19 33 -26 89 -19 52 6 55 8 47 21 -10 16 -136
14 -136 -2z M2185 2931 c-6 -11 32 -41 52 -41 21 0 25 21 7 35 -22 17 -50 19
-59 6z M4376 2872 c-10 -17 15 -26 84 -29 73 -2 103 3 97 20 -4 14 -172 22
-181 9z M845 2860 c-3 -5 3 -10 15 -10 12 0 18 5 15 10 -3 6 -10 10 -15 10 -5
0 -12 -4 -15 -10z M3600 2850 c-13 -3 -25 -11 -28 -18 -3 -10 13 -12 65 -10
37 2 68 8 68 13 0 12 -72 23 -105 15z M3960 2851 c0 -14 37 -23 60 -16 11 4
18 11 15 16 -8 12 -75 12 -75 0z M4735 2850 c-3 -5 -1 -10 4 -10 6 0 11 5 11
10 0 6 -2 10 -4 10 -3 0 -8 -4 -11 -10z M1226 2842 c-14 -23 25 -30 164 -28
120 2 146 5 148 17 2 13 -21 16 -152 18 -88 1 -157 -2 -160 -7z M2204 2839
c-8 -14 5 -29 27 -29 10 0 19 6 19 14 0 16 -37 28 -46 15z M863 2833 c-26 -2
-44 -10 -47 -20 -9 -24 11 -32 53 -22 20 5 98 8 174 8 76 0 141 2 145 5 3 4 1
11 -5 17 -11 11 -247 20 -320 12z M2060 2831 c0 -5 20 -21 44 -35 24 -14 58
-42 75 -63 18 -21 42 -49 54 -63 12 -14 26 -32 32 -41 5 -9 27 -38 47 -65 20
-27 42 -67 47 -89 6 -22 22 -58 36 -80 13 -22 34 -61 46 -87 12 -27 28 -48 35
-48 24 0 15 50 -21 119 -61 117 -95 201 -81 201 8 0 16 19 20 53 3 28 9 62 12
75 5 17 2 22 -14 22 -11 0 -22 -6 -25 -12 -2 -7 -7 2 -11 19 -8 37 -18 46 -39
38 -11 -5 -12 -14 -4 -50 10 -44 29 -58 41 -32 4 6 4 1 1 -13 -2 -14 -5 -38
-5 -54 l0 -30 -28 27 c-15 15 -36 27 -45 27 -9 0 -14 6 -12 13 9 22 -39 85
-99 131 -53 42 -106 60 -106 37z M2245 2799 c-8 -12 11 -29 33 -29 19 0 10 34
-10 38 -9 2 -19 -2 -23 -9z M3882 2792 c-36 -2 -52 -7 -49 -15 5 -16 139 -16
144 -1 5 15 -27 20 -95 16z M4234 2789 c-11 -18 6 -24 68 -21 64 3 82 8 74 21
-8 12 -134 12 -142 0z M4725 2790 c-10 -16 27 -25 88 -22 17 1 27 8 27 17 0
11 -13 15 -54 15 -30 0 -58 -5 -61 -10z M2636 2765 c-9 -24 -7 -68 3 -84 16
-25 30 -1 27 46 -3 48 -18 67 -30 38z M1252 2760 c-61 -5 -85 -22 -40 -28 33
-6 148 8 148 18 0 12 -38 16 -108 10z M490 2739 c0 -5 5 -7 10 -4 6 3 10 8 10
11 0 2 -4 4 -10 4 -5 0 -10 -5 -10 -11z M805 2740 c3 -5 8 -10 11 -10 2 0 4 5
4 10 0 6 -5 10 -11 10 -5 0 -7 -4 -4 -10z M2770 2714 c-13 -32 -13 -44 0 -44
12 0 30 33 30 54 0 25 -20 19 -30 -10z M1334 2698 l-19 -23 23 19 c21 18 27
26 19 26 -2 0 -12 -10 -23 -22z M3195 2708 c-3 -7 -7 -47 -9 -88 -3 -41 -14
-109 -24 -150 -19 -70 -15 -115 6 -74 27 54 70 293 56 315 -8 13 -24 11 -29
-3z M2492 2693 c-13 -25 0 -165 15 -170 17 -6 24 32 21 111 -3 70 -18 94 -36
59z M4492 2698 c3 -7 21 -14 41 -16 28 -2 37 1 37 12 0 12 -11 16 -41 16 -28
0 -39 -4 -37 -12z M2555 2678 c-13 -57 -23 -273 -13 -286 26 -31 39 32 42 212
1 62 -3 90 -11 93 -7 3 -15 -6 -18 -19z M1344 2668 l-19 -23 23 19 c21 18 27
26 19 26 -2 0 -12 -10 -23 -22z M2434 2678 c-11 -18 -4 -122 9 -130 23 -15 27
-7 27 51 0 81 -15 113 -36 79z M3892 2678 c3 -9 30 -14 78 -16 65 -3 72 -1 60
13 -16 19 -144 22 -138 3z M3720 2665 c0 -11 11 -15 36 -15 31 0 35 2 24 15
-7 8 -23 15 -36 15 -15 0 -24 -6 -24 -15z M1290 2655 c-7 -9 -8 -15 -2 -15 5
0 12 7 16 15 3 8 4 15 2 15 -2 0 -9 -7 -16 -15z M4923 2663 c-7 -2 -13 -12
-13 -22 0 -9 -4 -21 -9 -26 -5 -6 -11 -21 -13 -35 -3 -22 -8 -25 -50 -28 -27
-2 -48 -7 -48 -11 0 -4 -13 -8 -30 -8 -16 0 -30 3 -30 7 0 4 -16 10 -35 13
-34 6 -87 -13 -101 -34 -4 -6 -11 -6 -19 1 -20 17 -132 23 -141 9 -12 -20 27
-39 82 -39 29 0 56 -5 60 -11 4 -7 -20 -10 -80 -8 -94 3 -119 -6 -88 -34 15
-14 42 -18 139 -19 95 -2 120 -5 116 -15 -3 -7 -11 -13 -19 -13 -20 0 -17 -38
4 -44 17 -5 206 -10 270 -7 30 1 32 4 32 35 0 30 -4 35 -27 39 l-28 4 27 2 27
1 -1 125 c0 69 -3 125 -7 124 -3 0 -12 -3 -18 -6z m-228 -163 c0 -22 -29 -18
-33 3 -3 14 1 18 15 15 10 -2 18 -10 18 -18z m155 -29 c0 -5 -11 -11 -25 -13
-24 -5 -32 2 -18 15 9 10 43 8 43 -2z M4805 2649 c-8 -12 14 -31 30 -26 6 2
10 10 10 18 0 17 -31 24 -40 8z M4253 2623 c-7 -2 -13 -11 -13 -19 0 -23 94
-15 98 9 3 14 -4 17 -35 16 -21 0 -44 -3 -50 -6z M4590 2607 c0 -10 12 -14 43
-13 23 1 42 6 42 11 0 6 -19 11 -42 13 -32 2 -43 -1 -43 -11z M3840 2602 c0
-15 27 -22 82 -22 35 0 48 4 46 13 -5 14 -128 23 -128 9z M1085 2590 c-13 -21
8 -29 70 -29 36 0 69 -2 74 -5 5 -3 14 1 20 8 7 8 8 17 3 20 -17 11 -161 15
-167 6z M4165 2572 c-27 -5 -55 -31 -55 -51 -1 -33 -27 -54 -59 -48 -20 4 -35
1 -45 -9 -12 -11 -27 -13 -65 -8 -63 8 -85 1 -72 -23 10 -20 -5 -24 -97 -23
-40 1 -54 -3 -59 -16 -3 -9 0 -20 7 -24 18 -11 100 -11 100 1 0 6 8 8 18 5 14
-4 218 -10 260 -7 6 1 12 10 12 21 0 16 -7 20 -32 20 -17 0 -28 3 -24 7 7 8
13 8 79 11 26 1 37 7 37 17 0 13 4 14 23 3 12 -6 33 -11 47 -9 14 2 43 4 65 5
33 1 40 5 40 21 0 16 -6 20 -32 19 -22 -1 -30 2 -27 11 3 7 -7 27 -23 45 -27
30 -57 40 -98 32z m35 -51 c0 -12 -20 -25 -27 -18 -7 7 6 27 18 27 5 0 9 -4 9
-9z M2637 2543 c-13 -12 -7 -81 8 -93 21 -17 35 -4 35 35 0 55 -20 82 -43 58z
M3746 2531 c-3 -5 1 -14 9 -21 15 -13 95 -5 95 10 0 17 -94 28 -104 11z M2711
2502 c-12 -23 -14 -232 -2 -251 5 -7 14 -12 21 -9 17 5 20 278 3 278 -7 0 -17
-8 -22 -18z M2306 2472 c-6 -11 50 -240 63 -256 5 -6 16 -49 26 -96 28 -144
66 -262 101 -315 54 -81 80 -109 93 -101 12 8 -11 55 -55 108 -25 31 -76 182
-94 278 -7 35 -27 113 -46 173 -19 60 -34 121 -34 135 0 48 -38 99 -54 74z
M4129 2353 c-15 -17 6 -26 59 -25 47 1 69 13 58 31 -9 14 -105 9 -117 -6z
M4285 2360 c-12 -20 7 -30 60 -30 50 0 83 15 53 24 -37 12 -107 16 -113 6z
M3136 2338 c-2 -7 -12 -35 -21 -63 -30 -90 -65 -220 -65 -242 0 -36 18 -27 29
15 29 113 41 165 41 178 0 8 9 34 20 56 11 23 20 48 20 55 0 17 -19 17 -24 1z
M3858 2343 c-25 -6 -22 -22 5 -28 43 -11 122 -1 122 15 0 11 -13 15 -55 16
-30 1 -63 -1 -72 -3z M3210 2311 c-12 -23 -4 -51 15 -51 7 0 16 11 19 25 11
43 -14 62 -34 26z M4892 2323 c-39 -8 -23 -38 21 -40 33 -1 37 2 37 23 0 25
-7 27 -58 17z M3630 2300 c0 -19 5 -21 53 -18 38 2 52 7 52 18 0 11 -14 16
-52 18 -48 3 -53 1 -53 -18z M3222 2228 c-18 -18 -14 -38 8 -38 13 0 20 7 20
19 0 25 -13 34 -28 19z M3225 2147 c-19 -15 -13 -37 10 -37 16 0 38 34 28 44
-9 9 -17 8 -38 -7z M2080 2075 c-19 -49 -9 -85 17 -64 15 13 18 75 3 84 -6 3
-15 -6 -20 -20z M3235 2060 c-14 -15 -16 -23 -7 -32 15 -15 42 7 42 33 0 25
-12 24 -35 -1z M3230 1995 c-10 -12 -10 -19 -1 -28 14 -14 44 2 49 27 4 21
-31 22 -48 1z M3056 1968 c-3 -7 -6 -22 -9 -33 -3 -11 -15 -44 -28 -73 -17
-38 -20 -55 -12 -63 6 -6 16 -9 21 -5 14 9 64 156 58 172 -7 17 -25 18 -30 2z
M1817 1933 c-15 -14 -7 -43 12 -43 26 0 36 17 21 35 -14 16 -23 19 -33 8z
M3243 1923 c-33 -17 -40 -27 -24 -37 12 -8 101 32 101 44 0 15 -41 11 -77 -7z
M2135 1910 c-8 -13 22 -50 40 -50 22 0 37 26 23 37 -22 18 -56 24 -63 13z
M3241 1857 c-26 -13 -30 -30 -8 -35 23 -5 89 26 82 38 -8 14 -45 12 -74 -3z
M2176 1801 c-8 -12 31 -44 43 -36 16 9 13 32 -5 39 -21 8 -32 8 -38 -3z M3136
1771 c-9 -14 5 -42 18 -38 18 6 20 47 2 47 -8 0 -17 -4 -20 -9z M1846 1711
c-10 -15 3 -37 30 -51 20 -11 27 -11 37 -1 9 10 6 17 -18 37 -33 26 -41 29
-49 15z M3162 1698 c-29 -8 -52 -32 -40 -43 3 -4 89 22 96 29 1 2 -3 8 -10 13
-8 6 -25 7 -46 1z M2188 1684 c-14 -13 12 -41 43 -48 27 -5 30 -8 19 -21 -19
-23 -2 -35 72 -51 34 -7 66 -13 71 -14 14 0 7 28 -9 34 -31 12 -7 16 25 5 21
-7 36 -8 42 -2 15 15 -8 29 -66 41 -27 5 -75 20 -105 32 -75 30 -84 32 -92 24z
M2937 1627 c-29 -12 -31 -30 -3 -35 21 -5 69 26 61 38 -7 12 -21 11 -58 -3z
M3149 1626 c-2 -3 -27 -7 -54 -11 -57 -6 -68 -14 -55 -35 7 -12 13 -12 27 -4
10 6 27 8 38 4 18 -7 17 -9 -10 -20 -16 -6 -49 -16 -72 -21 -40 -8 -83 -18
-173 -40 -131 -31 -141 -32 -181 -19 -30 10 -45 11 -65 1 -37 -16 -25 -36 20
-33 20 2 43 -2 51 -8 18 -15 73 -6 170 25 39 13 89 26 111 29 90 14 110 20
179 52 44 20 51 27 49 51 -1 25 -22 42 -35 29z M2667 1598 c-23 -15 17 -28 63
-22 52 8 54 9 45 24 -7 12 -89 10 -108 -2z M2798 1553 c-67 -16 -83 -28 -52
-40 28 -10 174 30 174 48 0 13 -44 10 -122 -8z M2444 1499 c-8 -14 15 -39 37
-39 11 0 19 6 19 13 0 18 -47 40 -56 26z M4800 1003 c-14 -3 -35 -15 -48 -29
-13 -13 -27 -24 -32 -24 -6 0 -10 -13 -10 -30 0 -27 -3 -30 -32 -31 -51 -2
-83 -13 -86 -31 -5 -25 33 -52 81 -58 34 -4 42 -9 42 -25 0 -17 -9 -21 -69
-27 -38 -4 -73 -11 -79 -17 -16 -16 10 -39 56 -49 41 -8 41 -8 -32 -15 -77 -6
-123 -30 -101 -51 8 -8 16 -5 26 9 13 17 28 20 109 22 l95 2 0 -144 c0 -140 7
-172 32 -147 5 5 11 68 11 140 1 72 5 133 8 137 4 3 44 7 90 8 54 2 84 7 87
15 3 9 -20 13 -85 14 l-88 2 85 5 c66 5 85 9 85 21 0 12 -16 15 -89 13 -55 -2
-86 1 -80 7 5 5 45 10 89 12 63 2 80 6 80 18 0 13 -15 14 -92 11 -89 -3 -93
-2 -93 18 0 20 5 21 95 21 90 0 95 1 95 21 0 17 -6 20 -32 19 -75 -4 -158 1
-158 9 0 5 37 9 83 8 67 -2 82 1 82 13 0 11 -14 16 -60 17 -93 3 -100 6 -103
40 -3 27 1 32 25 37 50 10 118 10 123 0 3 -5 -26 -10 -67 -12 -69 -3 -88 -12
-62 -28 21 -13 102 -15 136 -3 29 9 33 15 33 44 0 21 -6 35 -16 39 -17 7 -94
6 -134 -1z m-90 -159 c-15 -17 -61 -15 -68 4 -2 8 9 12 38 12 37 0 41 -2 30
-16z m-5 -124 c4 -6 -11 -10 -37 -9 -33 0 -38 2 -23 9 28 12 53 12 60 0z
M4825 606 c-17 -12 -17 -14 5 -29 24 -17 50 -13 50 9 0 22 -35 35 -55 20z"/>
</g>
</svg>
