<?xml version="1.0" standalone="no"?>
<!DOCTYPE svg PUBLIC "-//W3C//DTD SVG 20010904//EN"
 "http://www.w3.org/TR/2001/REC-SVG-20010904/DTD/svg10.dtd">
<svg version="1.0" xmlns="http://www.w3.org/2000/svg"
 width="500.000000pt" height="878.000000pt" viewBox="0 0 500.000000 878.000000"
 preserveAspectRatio="xMidYMid meet">
<metadata>
Created by potrace 1.16, written by Peter Selinger 2001-2019
</metadata>
<g transform="translate(0.000000,878.000000) scale(0.100000,-0.100000)"
fill="#000000" stroke="none">
<path d="M2154 8555 c-9 -21 7 -36 37 -35 52 1 93 0 96 -4 2 -1 4 -42 4 -90 1
-78 2 -86 20 -86 10 0 19 -5 19 -11 0 -5 -5 -7 -11 -3 -18 11 -151 5 -166 -8
-10 -8 -10 -14 -2 -24 8 -10 47 -14 158 -14 80 0 194 -1 253 -3 110 -4 128 1
128 35 0 15 -9 18 -59 18 l-59 0 -6 63 c-4 35 -4 76 -1 90 7 25 11 27 65 27
51 0 58 3 63 22 4 12 4 24 1 27 -2 3 -124 7 -269 9 -238 3 -266 2 -271 -13z
m326 -131 l0 -94 -55 0 -55 0 0 95 0 94 55 0 55 -1 0 -94z M380 8370 c0 -5 5
-10 10 -10 6 0 10 5 10 10 0 6 -4 10 -10 10 -5 0 -10 -4 -10 -10z M1060 8230
c0 -5 5 -10 11 -10 5 0 7 5 4 10 -3 6 -8 10 -11 10 -2 0 -4 -4 -4 -10z M3530
7876 c-105 -39 -122 -50 -180 -118 -44 -51 -60 -77 -60 -99 0 -22 5 -29 20
-29 11 0 20 4 20 9 0 13 39 54 71 74 41 27 141 30 201 6 54 -21 63 -29 92 -74
27 -41 26 -135 -2 -170 -32 -40 -68 -66 -120 -84 -111 -40 -7 -73 108 -34 153
50 255 224 207 348 -23 59 -85 130 -134 155 -57 28 -168 36 -223 16z m175 -53
c11 -6 28 -14 37 -17 24 -7 87 -96 88 -123 0 -12 4 -24 9 -28 16 -9 0 -106
-25 -156 -15 -31 -39 -57 -70 -78 -63 -41 -80 -39 -41 5 18 19 39 54 49 77 42
105 -33 248 -147 278 -38 11 -125 7 -173 -7 -18 -5 -21 -3 -16 11 4 9 18 21
31 26 13 5 22 12 20 17 -8 12 216 8 238 -5z M4920 7867 c-14 -7 -59 -62 -100
-124 -41 -61 -83 -122 -93 -135 -10 -12 -23 -33 -30 -44 -12 -22 -106 -149
-179 -244 -21 -26 -38 -52 -38 -57 0 -5 -14 -22 -31 -39 -17 -16 -41 -43 -53
-61 -146 -215 -224 -324 -260 -363 -13 -14 -31 -38 -39 -55 -9 -16 -32 -48
-51 -70 -20 -22 -50 -61 -67 -87 -17 -27 -35 -48 -39 -48 -4 0 -10 -10 -14
-22 -3 -13 -16 -34 -28 -48 -23 -25 -105 -130 -183 -235 -100 -135 -144 -192
-195 -253 -31 -37 -62 -76 -70 -88 -48 -68 -209 -277 -295 -384 -55 -69 -118
-149 -139 -177 -21 -29 -42 -53 -46 -53 -5 0 -18 -19 -28 -42 -11 -24 -26 -52
-34 -62 -16 -21 -14 -22 -125 79 l-32 30 -7 133 c-6 117 -4 135 11 152 20 22
16 63 -17 172 -15 52 -29 75 -60 104 -27 24 -43 33 -50 26 -7 -7 -18 -6 -35 5
-25 16 -95 12 -119 -8 -8 -6 -27 -6 -55 2 -52 13 -143 16 -181 6 -15 -4 -44
-24 -64 -45 -66 -67 -89 -147 -63 -221 8 -24 8 -35 -1 -46 -7 -8 -14 -50 -16
-92 -2 -43 -5 -97 -7 -120 -3 -25 2 -54 10 -70 14 -27 13 -29 -24 -61 -64 -56
-65 -56 -107 -1 -21 27 -42 49 -47 49 -5 0 -9 5 -9 11 0 11 -52 89 -80 119 -8
9 -22 27 -30 40 -8 12 -69 97 -135 188 -66 91 -141 195 -166 231 -25 37 -61
87 -80 113 -35 47 -85 117 -209 288 -58 81 -67 98 -57 115 9 17 8 18 -5 7 -14
-11 -25 0 -84 83 -38 53 -87 120 -109 149 -22 29 -48 63 -57 77 -10 13 -47 65
-83 114 -36 50 -91 128 -123 173 -51 75 -163 227 -279 381 -24 31 -46 63 -50
71 -4 8 -28 43 -55 76 -26 34 -48 64 -48 67 0 3 -11 17 -24 31 -13 14 -36 45
-52 68 -42 64 -118 158 -126 158 -21 0 -5 -60 25 -93 17 -20 47 -57 65 -82 18
-25 40 -45 50 -45 11 0 13 -3 5 -8 -9 -5 -7 -14 8 -32 10 -14 39 -54 64 -90
55 -81 148 -211 220 -310 31 -41 58 -83 61 -92 4 -10 10 -18 14 -18 4 0 20
-19 36 -42 16 -24 48 -68 71 -99 24 -30 43 -59 43 -64 0 -5 10 -20 23 -34 37
-40 227 -309 227 -320 0 -5 6 -14 14 -18 7 -4 39 -45 69 -90 31 -45 92 -130
136 -190 171 -232 200 -271 252 -348 30 -44 56 -82 59 -85 8 -7 83 -111 95
-131 6 -9 48 -69 95 -134 47 -64 90 -125 96 -136 6 -10 19 -28 30 -40 18 -20
18 -21 0 -35 -25 -18 -33 -11 -100 85 -29 42 -88 125 -132 184 -43 60 -88 123
-99 140 -10 18 -24 37 -30 44 -5 6 -26 35 -45 63 -19 28 -61 84 -92 125 -32
41 -73 98 -93 127 -65 98 -125 183 -158 222 -17 21 -34 44 -37 51 -5 14 -81
121 -165 233 -45 59 -141 199 -218 317 -14 22 -53 77 -86 123 -34 45 -58 82
-55 82 4 0 -5 9 -20 21 -14 11 -26 25 -26 31 0 5 -26 45 -57 88 -60 80 -145
200 -233 328 -28 39 -57 72 -65 72 -8 0 -15 7 -15 16 0 9 -9 27 -20 41 -19 25
-20 25 -20 4 0 -36 17 -64 199 -329 9 -13 45 -62 80 -109 35 -47 64 -92 65
-99 1 -8 9 -20 17 -26 18 -16 129 -162 129 -171 0 -3 49 -73 108 -154 60 -81
138 -193 175 -248 37 -55 96 -140 132 -190 36 -49 70 -98 77 -109 25 -36 107
-151 122 -171 37 -47 76 -105 76 -113 0 -5 9 -17 20 -27 11 -10 41 -48 65 -84
25 -36 73 -106 108 -156 35 -49 83 -119 108 -155 25 -36 80 -113 122 -172 42
-58 77 -109 77 -112 0 -3 -9 -15 -20 -26 l-21 -21 -24 28 c-13 16 -25 31 -25
34 0 4 -18 33 -41 65 -22 33 -60 90 -85 128 -25 37 -50 73 -55 80 -6 6 -43 61
-82 123 -103 160 -231 347 -239 351 -5 2 -8 9 -8 15 -1 7 -14 28 -30 47 -17
19 -30 45 -30 58 0 13 -4 21 -9 18 -5 -4 -31 24 -57 61 -26 38 -51 70 -55 73
-3 3 -14 19 -23 35 -9 17 -41 64 -71 105 -30 41 -77 109 -104 150 -28 41 -88
129 -133 194 -80 116 -128 191 -158 249 -8 16 -24 38 -36 50 -26 27 -62 79
-222 317 -152 226 -152 226 -152 178 0 -29 19 -64 105 -189 58 -85 113 -165
123 -178 9 -13 24 -34 32 -47 8 -12 45 -67 82 -121 37 -54 103 -152 147 -218
44 -66 93 -138 110 -161 17 -23 31 -46 31 -52 0 -6 12 -25 28 -43 15 -18 36
-47 47 -65 11 -18 74 -112 140 -209 66 -97 125 -184 130 -193 6 -10 34 -52 63
-95 28 -42 52 -82 52 -87 0 -6 4 -10 8 -10 4 0 15 -13 25 -29 20 -34 174 -249
191 -266 6 -7 54 -78 106 -159 52 -81 116 -175 142 -209 30 -39 43 -66 37 -71
-15 -16 -10 -36 16 -61 13 -14 22 -25 18 -25 -8 0 48 -73 64 -83 25 -15 12
-32 -82 -106 -109 -86 -120 -108 -78 -154 52 -56 88 -86 103 -87 8 0 38 23 67
52 56 55 63 54 38 -6 -8 -20 -18 -70 -22 -111 l-6 -75 -36 -2 c-85 -4 -109 -3
-161 4 -49 6 -173 0 -325 -18 -27 -3 -88 -14 -135 -25 -94 -22 -174 -23 -205
-2 -22 15 -57 17 -71 4 -14 -13 -163 -45 -219 -46 -27 -1 -61 -4 -75 -8 -27
-8 -182 -14 -372 -16 -109 -1 -118 -2 -118 -20 0 -18 10 -20 123 -25 67 -3
156 -9 197 -13 41 -5 94 -6 117 -3 23 4 65 3 95 0 66 -9 118 -2 118 16 0 8
-11 16 -25 20 -30 7 -25 21 7 22 13 0 56 10 97 22 62 19 79 21 106 11 45 -16
152 -14 232 5 37 8 81 17 98 20 16 2 53 6 80 10 28 4 68 8 90 9 22 1 40 3 40
4 0 1 28 3 63 4 34 1 62 0 62 -3 0 -3 8 -6 18 -7 37 -3 158 -5 167 -3 32 8 40
-1 40 -45 0 -53 33 -48 -290 -44 -126 2 -261 2 -300 1 -84 -3 -411 -12 -442
-12 -16 0 -23 -6 -23 -19 0 -18 18 -18 529 -14 l530 4 -4 -41 c-3 -23 -7 -45
-10 -50 -8 -12 64 -220 87 -253 26 -36 93 -79 121 -77 12 1 27 1 32 0 6 -2 17
-4 25 -4 10 -1 14 -11 13 -31 -1 -17 -4 -61 -6 -99 -3 -48 -9 -71 -20 -78 -22
-12 -40 -73 -29 -95 19 -35 17 -78 -6 -114 -12 -20 -22 -44 -22 -53 0 -9 -17
-24 -37 -33 -48 -23 -76 -71 -75 -128 1 -24 -3 -47 -9 -50 -5 -4 -18 -24 -29
-45 -17 -34 -18 -41 -5 -54 13 -12 11 -17 -19 -34 -55 -32 -67 -60 -73 -167
l-6 -95 -51 -37 c-28 -21 -82 -66 -121 -100 -38 -35 -76 -61 -83 -58 -7 2 -10
0 -7 -5 4 -6 -4 -19 -17 -29 -13 -11 -24 -32 -26 -52 -6 -70 -6 -105 1 -139
l7 -35 -68 -2 c-50 -1 -60 1 -39 7 35 11 59 29 51 41 -3 5 -37 7 -76 5 -39 -2
-65 0 -58 4 7 4 9 13 6 19 -5 8 -56 11 -159 10 -207 -1 -348 9 -369 28 -9 8
-21 12 -26 9 -6 -3 -12 1 -15 9 -4 9 -26 15 -64 18 -32 2 39 4 157 4 272 1
253 -1 247 23 -5 18 1 20 102 22 86 2 106 6 106 18 0 12 -21 16 -114 18 -86 2
-117 6 -125 17 -6 9 -29 16 -53 17 -24 1 -43 5 -43 9 0 5 -7 6 -15 3 -9 -4
-15 0 -15 7 0 11 -2 12 -9 1 -10 -17 -75 -26 -64 -9 5 9 4 9 -8 0 -18 -14 -61
-6 -53 11 3 6 0 4 -8 -5 -17 -20 -69 -22 -114 -3 -23 10 -47 13 -68 8 -30 -7
-64 -7 -116 0 -14 2 -33 4 -42 5 -10 0 -18 8 -18 16 0 8 -4 15 -9 15 -5 0 -11
9 -14 20 -4 17 -14 20 -68 20 -105 0 -60 10 66 14 94 3 116 1 103 -8 -20 -15
-9 -37 18 -37 197 -2 424 3 428 10 14 22 -27 32 -133 32 -63 0 -113 4 -116 9
-4 6 -11 7 -17 4 -6 -4 -38 -8 -72 -9 -46 -2 -51 -1 -21 4 51 8 55 35 7 39
-26 3 -31 6 -22 16 25 31 -30 56 -69 32 -14 -9 -3 -34 17 -40 10 -3 -18 -3
-60 -1 -53 3 -78 1 -80 -7 -3 -8 -11 -7 -26 4 -22 15 -22 15 17 26 21 7 52 9
70 6 27 -6 31 -4 31 15 0 22 3 22 124 20 l124 -2 -1 -26 c-2 -26 -1 -26 76
-29 64 -2 78 0 84 14 9 23 -12 32 -73 30 -30 -1 -54 2 -54 6 0 4 38 8 84 8 93
0 116 5 116 26 0 14 -18 20 -85 28 -49 5 -66 9 -83 19 -6 5 -17 5 -24 1 -17
-11 -287 -7 -302 4 -18 14 -156 15 -172 1 -15 -12 -17 -7 -15 27 2 17 -7 22
-45 31 -60 14 -76 8 -68 -23 5 -18 2 -24 -10 -24 -13 0 -16 -13 -16 -73 l0
-73 38 -17 c21 -9 43 -17 49 -17 6 0 8 -11 5 -25 -5 -30 -22 -33 -22 -4 0 17
-4 20 -22 15 -13 -3 -29 -6 -35 -6 -10 0 -13 -27 -13 -99 l0 -100 33 -4 32 -4
-32 -1 c-28 -2 -33 -6 -33 -27 0 -20 5 -25 25 -25 14 0 34 -9 44 -19 19 -19
19 -19 -25 -16 -42 4 -45 2 -42 -18 2 -18 9 -21 31 -19 18 2 26 -1 22 -7 -3
-6 -17 -11 -31 -11 -29 0 -34 -36 -6 -43 16 -4 16 -5 0 -6 -13 -1 -18 -9 -18
-29 0 -27 2 -28 47 -28 28 1 48 -4 50 -11 3 -9 -5 -13 -24 -13 -47 0 -73 -11
-73 -31 0 -16 8 -18 71 -18 39 1 73 -2 76 -5 4 -3 -28 -6 -70 -6 -73 0 -77 -1
-77 -22 0 -23 1 -23 126 -20 81 1 123 -1 119 -8 -3 -5 -27 -9 -53 -8 -26 1
-80 1 -119 0 -70 -2 -73 -3 -73 -27 0 -23 2 -24 65 -23 36 0 68 -2 72 -6 3 -3
-26 -6 -65 -6 l-72 0 0 -69 0 -70 32 -4 33 -4 -31 -1 c-31 -2 -32 -3 -32 -51
0 -48 1 -49 33 -53 18 -2 79 0 136 4 57 5 114 6 125 3 31 -7 364 -6 459 2 44
3 125 4 180 2 137 -5 431 -4 482 3 36 4 42 2 47 -16 11 -40 7 -46 -30 -46 -19
0 -42 -7 -51 -15 -8 -9 -18 -13 -21 -10 -4 3 0 10 8 15 10 6 -139 10 -397 10
-299 0 -413 3 -413 11 0 8 -4 8 -13 1 -13 -10 -393 -10 -434 1 -13 3 -25 1
-29 -4 -3 -5 -14 -7 -25 -4 -28 9 -59 -4 -59 -25 0 -12 10 -20 35 -24 20 -4
39 -4 45 -1 7 4 1018 6 1341 3 46 -1 47 -2 53 -37 3 -20 6 -66 6 -102 0 -39 5
-73 14 -84 9 -13 11 -28 5 -47 -4 -15 -4 -30 1 -33 8 -5 138 -11 360 -19 53
-1 68 -9 80 -42 9 -22 25 -28 67 -27 30 1 9 -20 -45 -44 -53 -24 -102 -59
-102 -72 0 -3 7 -14 14 -24 11 -14 33 -19 107 -23 86 -4 101 -2 179 26 180 65
216 72 274 60 86 -18 273 -12 316 10 8 5 45 11 82 14 73 6 158 -16 210 -54 15
-11 45 -22 68 -26 22 -4 43 -11 46 -15 16 -27 149 4 172 40 16 24 10 36 -29
60 -46 28 -114 110 -101 123 7 7 68 12 153 14 78 1 145 6 150 11 4 4 5 30 2
56 -7 55 -25 58 -33 6 l-5 -34 -128 -3 c-101 -2 -128 0 -125 10 3 7 13 18 24
23 10 6 45 28 77 49 64 43 68 58 38 122 -21 46 -40 159 -43 259 -1 39 -6 76
-11 83 -7 8 -7 20 0 35 5 12 9 54 7 92 -3 79 -13 72 106 78 l66 4 -1 -319 c0
-247 3 -322 13 -330 7 -6 14 -9 16 -7 2 2 7 40 10 84 3 44 5 81 6 83 0 2 134
2 298 2 163 -1 474 -1 690 -1 385 1 392 1 392 21 0 20 -7 20 -457 21 -530 2
-514 2 -530 12 -6 4 -14 4 -16 0 -3 -5 -89 -7 -191 -5 -175 3 -186 4 -186 22
0 18 11 19 173 21 266 4 305 4 407 -3 52 -3 120 -2 150 3 43 6 391 17 618 19
27 0 32 4 32 24 0 23 -3 24 -52 21 -98 -7 -633 -17 -628 -12 3 2 88 8 190 11
102 4 241 9 310 13 69 3 137 5 153 4 26 -1 27 0 27 54 0 54 0 55 -30 55 -20 0
-30 5 -30 15 0 10 10 15 30 15 28 0 30 2 30 39 0 38 -1 39 -35 37 -28 -1 -36
3 -45 24 -14 31 -91 70 -145 72 -48 1 -102 -25 -115 -55 -5 -12 -18 -33 -28
-46 -20 -25 -21 -25 -191 -30 -17 -1 -21 -5 -17 -17 5 -13 -12 -14 -153 -8
-160 6 -189 1 -154 -27 12 -11 64 -14 229 -14 121 0 209 -4 204 -9 -14 -14
-445 -3 -464 13 -12 10 -69 14 -233 15 -188 1 -218 -1 -218 -14 0 -12 17 -16
83 -18 45 -2 82 -6 82 -10 0 -4 -42 -7 -92 -7 l-93 0 2 89 c2 49 8 94 14 102
6 7 9 17 6 21 -3 4 20 8 51 8 44 0 57 3 57 15 0 20 -94 27 -106 8 -4 -7 -11
-9 -15 -5 -4 3 9 24 29 46 26 29 38 54 47 98 6 32 13 63 15 69 2 6 -1 32 -7
57 -7 33 -15 47 -26 47 -12 0 -13 3 -4 12 7 7 12 17 12 24 0 15 -84 119 -127
157 -32 29 -51 55 -75 110 -11 24 -18 28 -50 25 -20 -1 -40 1 -44 5 -4 4 -20
7 -35 7 -15 0 -30 4 -33 9 -8 13 -9 61 -1 111 10 65 -23 146 -86 211 -27 28
-47 54 -44 59 6 10 -22 77 -34 82 -6 1 -13 29 -15 61 -3 32 -10 66 -16 77 -5
10 -10 26 -10 35 0 9 -9 28 -20 42 -11 14 -20 34 -20 44 0 10 -9 20 -19 24
-13 4 -21 18 -24 48 -14 113 -47 210 -72 215 -26 6 -42 -15 -24 -30 9 -7 21
-31 27 -53 6 -22 15 -51 18 -65 4 -14 8 -34 10 -45 2 -23 -23 -55 -42 -55 -20
0 -68 -76 -60 -96 10 -26 -76 -116 -172 -180 -48 -32 -89 -61 -92 -64 -3 -4
-13 -9 -23 -13 -10 -4 -15 -11 -12 -17 9 -15 52 -12 58 4 3 8 38 36 77 61 96
63 145 114 176 183 15 31 33 65 42 75 20 22 54 22 83 -2 l23 -18 -22 -12 c-25
-14 -19 -45 8 -36 24 8 52 -5 46 -20 -2 -7 1 -33 9 -58 7 -25 11 -48 8 -50 -3
-3 -19 1 -37 10 -29 13 -36 13 -69 -1 -40 -16 -46 -35 -21 -61 21 -21 39 -14
38 14 -1 19 3 21 25 16 29 -7 52 -25 33 -25 -7 0 -12 -7 -12 -15 0 -8 8 -15
19 -15 10 0 31 -16 45 -35 15 -19 34 -35 43 -35 10 0 13 -6 9 -17 -4 -10 3
-26 21 -45 32 -33 27 -35 -20 -8 -29 17 -47 19 -134 16 -117 -5 -156 -19 -227
-80 -28 -24 -66 -51 -83 -60 -33 -17 -44 -36 -20 -36 22 0 90 41 110 66 10 14
41 36 67 49 48 24 73 27 235 25 32 0 78 -29 108 -67 10 -13 25 -23 32 -23 18
0 27 -47 17 -85 -5 -16 -5 -48 -1 -70 11 -55 11 -125 0 -125 -4 0 -11 18 -14
41 -6 46 -11 54 -26 44 -22 -13 -2 -115 23 -115 8 0 12 -49 14 -169 1 -93 5
-178 7 -190 2 -11 7 -64 11 -118 4 -54 11 -109 16 -123 5 -14 11 -49 13 -78 3
-28 13 -71 23 -95 11 -24 24 -88 30 -152 10 -100 27 -181 47 -227 5 -13 2 -19
-11 -23 -11 -4 -32 -13 -47 -21 -37 -19 -67 -18 -67 2 0 11 6 14 20 9 28 -9
54 13 39 31 -7 9 -18 10 -34 4 -19 -7 -22 -6 -18 10 3 10 13 20 24 23 10 3 19
13 19 22 0 14 -6 16 -35 11 -41 -8 -47 6 -10 22 29 13 32 30 8 39 -14 5 -13 8
5 14 12 5 22 13 22 19 0 15 -63 12 -85 -3 -23 -18 -11 -40 18 -31 l22 6 -22
-16 c-19 -14 -21 -21 -13 -42 6 -14 9 -58 7 -97 -2 -39 0 -89 3 -110 7 -33 4
-40 -14 -52 -14 -9 -39 -13 -66 -11 -25 2 -68 -4 -99 -14 -31 -10 -81 -21
-111 -25 -90 -11 -254 -46 -265 -56 -15 -15 -135 -10 -211 9 -46 12 -86 30
-112 50 -22 18 -54 35 -71 38 -46 9 -115 -4 -140 -27 -17 -16 -29 -19 -54 -14
-56 13 -65 22 -72 77 -8 66 -43 253 -55 293 -5 17 -12 71 -15 120 -9 121 -11
134 -24 180 -6 22 -11 74 -12 115 -1 41 -8 94 -15 117 -7 23 -16 97 -20 165
-6 118 -24 184 -43 162 -10 -12 13 -234 27 -260 6 -12 7 -26 1 -36 -6 -10 -5
-26 1 -43 5 -14 10 -54 10 -88 0 -34 7 -93 15 -132 9 -38 18 -108 21 -155 3
-47 7 -95 10 -108 4 -19 1 -23 -13 -18 -25 8 -47 -8 -40 -28 7 -17 47 -22 47
-6 0 19 18 10 24 -12 8 -32 -8 -44 -40 -29 -19 8 -30 9 -38 1 -17 -17 19 -44
58 -44 l35 0 11 -69 c7 -37 10 -71 7 -74 -9 -8 -27 7 -27 21 0 19 -49 49 -67
41 -13 -4 -14 -8 -5 -17 19 -19 14 -28 -13 -28 -65 0 -69 77 -39 625 12 212 6
443 -12 507 -3 9 0 25 6 35 9 14 6 35 -14 97 -43 132 -32 209 35 236 18 8 28
18 25 26 -3 7 0 15 7 18 8 3 6 10 -7 20 -16 13 -17 19 -7 44 12 29 81 72 116
72 10 0 33 9 51 21 27 16 43 19 74 14 51 -9 54 -8 58 4 8 25 -175 22 -240 -4
-14 -6 -18 -2 -18 18 0 36 26 61 105 101 83 42 111 45 188 21 78 -25 95 -11
44 40 -32 32 -40 35 -96 35 -58 0 -60 1 -52 23 9 23 -7 65 -36 99 -11 13 -12
21 -3 37 13 25 38 28 47 6 6 -17 115 -95 131 -95 6 0 12 -6 15 -14 3 -8 24
-24 46 -37 28 -15 41 -29 41 -44 0 -12 6 -29 12 -38 14 -17 80 -28 88 -13 5 8
-6 16 -50 36 -8 4 -16 17 -18 29 -2 12 -23 35 -50 53 -26 17 -65 48 -87 67
-22 20 -54 42 -71 49 -35 15 -51 42 -60 103 -7 44 13 159 28 159 6 0 8 10 4
23 -5 20 5 29 77 72 45 27 107 75 139 107 31 32 62 58 68 58 5 0 10 -15 10
-32 1 -88 13 -204 23 -216 15 -19 26 14 22 64 -2 22 -7 73 -10 114 -4 41 -11
80 -16 87 -7 8 -3 16 13 27 32 22 40 20 64 -17 14 -22 48 -47 95 -72 41 -21
80 -45 87 -52 7 -7 22 -14 33 -14 10 -1 24 -3 29 -4 6 -1 14 -3 19 -4 5 0 11
-9 14 -20 3 -12 17 -21 40 -25 20 -4 40 -13 44 -20 15 -24 58 -46 91 -46 55 0
84 23 118 92 59 118 76 173 75 241 l0 65 28 -8 c15 -4 38 -6 52 -5 113 12 283
15 956 17 l773 3 0 27 c0 26 -1 26 -52 22 -95 -8 -168 -10 -168 -4 0 3 -39 2
-87 -1 -49 -4 -281 -5 -518 -2 -236 2 -434 3 -440 3 -5 0 -88 -2 -183 -4 -131
-4 -171 -2 -166 7 5 8 3 8 -7 0 -7 -7 -26 -13 -42 -13 -27 0 -28 2 -16 18 7 9
2 7 -12 -5 -30 -27 -47 -30 -28 -5 13 16 13 16 -5 2 -10 -8 -34 -15 -52 -16
l-34 -1 0 68 c0 71 8 83 48 72 11 -2 23 1 27 8 11 16 -24 41 -51 36 -20 -3
-22 1 -26 57 -3 34 -8 69 -13 79 -6 14 -4 16 11 11 11 -4 26 -13 35 -21 15
-12 22 -8 64 33 56 56 72 89 66 134 0 5 -25 27 -53 49 -106 80 -102 75 -88
102 7 13 25 38 39 55 14 17 34 42 43 55 9 13 38 54 65 91 26 37 68 97 93 134
25 36 50 72 57 79 16 16 321 463 393 575 30 47 75 112 100 145 25 34 50 68 55
77 32 52 115 171 154 223 45 59 116 160 136 193 6 9 27 40 48 69 20 29 37 55
37 58 0 4 20 33 45 65 25 33 66 93 91 135 40 69 66 109 101 154 20 28 117 159
133 181 15 21 66 101 98 154 9 16 31 45 48 65 42 49 54 74 54 113 l0 33 -35
-50 c-19 -28 -54 -75 -78 -105 -23 -30 -72 -100 -109 -155 -37 -55 -82 -120
-99 -145 -18 -25 -85 -124 -149 -220 -64 -96 -124 -186 -133 -200 -10 -14 -34
-50 -54 -80 -21 -30 -51 -73 -68 -94 -16 -22 -39 -54 -50 -72 -11 -17 -45 -67
-75 -109 -30 -43 -60 -85 -65 -94 -35 -54 -105 -159 -119 -176 -9 -11 -42 -59
-73 -106 -32 -47 -80 -116 -108 -152 -27 -36 -70 -95 -95 -132 -25 -36 -72
-104 -105 -151 -105 -147 -296 -418 -306 -434 -8 -13 -12 -12 -26 8 -8 12 -22
22 -29 22 -20 0 -17 14 6 35 11 10 20 22 20 27 0 5 9 19 21 31 12 12 32 38 45
58 12 21 43 62 68 93 26 31 46 59 46 64 0 4 19 30 43 57 43 49 116 150 197
271 8 12 77 104 153 205 76 100 168 228 205 283 61 93 111 163 148 209 8 9 14
20 14 23 0 2 21 31 48 63 63 78 312 429 429 606 26 39 57 80 69 93 12 12 27
36 34 52 7 17 16 30 21 30 5 0 54 68 109 151 82 123 100 157 100 187 l-1 37
-24 -40 c-28 -47 -25 -41 -135 -195 -146 -205 -184 -257 -227 -317 -23 -32
-83 -119 -134 -193 -51 -74 -106 -154 -123 -177 -102 -139 -173 -236 -217
-298 -27 -38 -64 -88 -82 -109 -18 -21 -58 -75 -89 -120 -74 -106 -94 -133
-225 -311 -61 -82 -148 -202 -194 -266 -62 -86 -350 -473 -386 -519 -2 -2 -7
1 -11 7 -4 6 -20 15 -35 18 l-28 8 26 27 c15 15 41 48 58 73 18 25 59 81 92
124 85 110 320 412 349 448 22 28 138 186 250 340 28 39 79 105 114 148 34 43
62 81 62 85 0 4 10 18 23 32 27 31 78 98 92 121 6 9 25 34 42 55 18 22 55 71
83 109 71 100 179 246 252 344 35 46 68 93 75 105 6 12 33 45 58 75 26 30 62
78 81 107 18 30 43 63 54 74 20 20 83 112 143 209 16 25 36 50 44 56 8 6 13
21 11 33 -3 19 -5 20 -28 9z m-2406 -2222 l16 -24 -46 4 c-25 2 -48 5 -50 8
-2 2 2 17 8 34 11 29 13 30 34 16 12 -8 30 -25 38 -38z m-149 -5 c3 -5 1 -10
-4 -10 -6 0 -11 5 -11 10 0 6 2 10 4 10 3 0 8 -4 11 -10z m264 -69 c63 -19 94
-75 47 -87 -13 -3 -107 -7 -207 -9 -101 -2 -212 -6 -246 -9 -36 -3 -63 -1 -63
5 0 5 5 9 11 9 8 0 8 5 -1 15 -10 12 -10 15 4 15 9 0 15 6 14 13 -2 6 6 13 17
13 38 3 40 4 25 14 -21 13 -11 19 51 26 29 3 56 8 58 10 9 8 257 -5 290 -15z
m-108 -136 c19 -3 50 0 69 5 23 7 38 6 47 -1 24 -20 12 -100 -24 -165 -7 -12
-13 -37 -15 -57 -1 -20 -6 -33 -10 -31 -4 3 -21 -9 -37 -26 -27 -30 -33 -32
-98 -32 -64 0 -73 3 -104 31 -18 17 -36 31 -40 31 -4 0 -9 13 -12 29 -3 16
-14 36 -23 45 -9 9 -14 20 -10 23 3 4 -6 19 -21 35 -29 31 -36 84 -12 99 8 5
40 9 71 9 31 0 60 5 63 10 6 9 52 8 156 -5z m-651 -164 c0 -5 -15 -17 -32 -25
l-33 -16 28 25 c31 27 37 30 37 16z m305 -1 c3 -5 1 -10 -4 -10 -6 0 -11 5
-11 10 0 6 2 10 4 10 3 0 8 -4 11 -10z m870 -21 c22 -6 42 -14 45 -18 3 -4 26
-22 53 -40 30 -21 47 -39 47 -53 0 -16 -11 -10 -60 35 -44 41 -70 57 -100 62
-22 4 -40 11 -40 16 0 12 6 11 55 -2z m-269 -40 c26 -22 66 -52 88 -66 23 -14
43 -29 46 -33 3 -4 48 -35 100 -70 52 -34 111 -77 131 -95 20 -18 54 -42 77
-54 22 -11 43 -25 46 -30 7 -11 -45 -80 -61 -81 -7 0 -13 4 -13 8 0 18 -186
164 -259 203 -42 22 -114 72 -160 110 -46 38 -87 69 -92 69 -17 0 -9 24 19 51
15 16 28 29 29 29 1 0 23 -18 49 -41z m-593 -4 c9 -19 21 -35 27 -35 21 0 9
-29 -22 -55 -39 -30 -35 -28 -203 -151 -71 -52 -132 -98 -135 -102 -3 -4 -34
-31 -70 -60 -36 -29 -75 -62 -86 -72 -22 -20 -22 -20 -48 14 -14 19 -26 38
-26 43 0 9 144 136 205 181 22 16 52 40 66 53 46 43 133 114 175 142 23 15 52
39 64 52 13 14 26 25 30 25 3 0 14 -16 23 -35z m-408 15 c3 -5 1 -10 -4 -10
-6 0 -11 5 -11 10 0 6 2 10 4 10 3 0 8 -4 11 -10z m164 -31 l33 -40 -23 -25
c-36 -38 -124 -104 -139 -104 -11 0 -11 3 -2 12 20 20 14 31 -13 24 -14 -4
-25 -2 -25 4 0 5 9 10 19 10 11 0 22 4 25 8 6 9 -31 45 -55 55 -10 4 -8 8 8
12 12 4 24 13 27 21 3 8 14 14 25 14 11 0 24 6 28 13 8 11 42 35 53 36 3 0 20
-18 39 -40z m-184 11 c3 -5 4 -10 1 -10 -2 0 -12 -3 -20 -6 -12 -5 -15 -2 -10
10 7 18 20 21 29 6z m1317 -53 c-1 -9 12 -31 30 -48 31 -29 31 -30 5 -15 -41
25 -54 9 -21 -25 37 -39 26 -45 -22 -12 -21 14 -58 39 -81 55 -24 16 -43 32
-43 35 0 3 11 21 25 39 l25 33 43 -22 c28 -15 41 -29 39 -40z m-476 -44 c9
-63 25 -85 84 -117 l50 -27 -71 -69 c-70 -69 -71 -69 -133 -74 -34 -2 -88 1
-120 6 -49 9 -66 18 -105 55 -25 24 -52 49 -61 53 -12 8 -10 13 14 33 29 24
39 62 37 145 -1 40 20 43 51 7 18 -20 31 -25 70 -25 72 0 140 19 146 42 9 35
31 19 38 -29z m136 -44 c18 -17 45 -35 61 -41 35 -13 36 -38 1 -38 -38 0 -138
79 -149 118 -7 23 -6 23 23 8 17 -9 45 -30 64 -47z m-489 4 c-3 -29 -11 -53
-20 -60 -26 -20 -81 -27 -98 -13 -14 11 -13 15 7 29 13 8 25 16 28 16 2 0 20
16 40 37 19 20 38 36 41 37 3 1 4 -20 2 -46z m-142 -114 c16 -17 29 -33 29
-34 0 -2 -22 -11 -48 -19 -47 -16 -88 -13 -77 4 3 5 1 12 -5 15 -8 5 51 61 68
64 2 1 17 -13 33 -30z m794 -9 c3 -6 0 -10 -8 -10 -9 0 -14 -11 -14 -30 0 -40
-7 -45 -43 -30 -37 15 -38 29 -4 69 21 25 29 29 44 21 11 -6 22 -15 25 -20z
m-159 -47 c-16 -13 -25 -28 -20 -32 19 -16 124 -41 178 -42 31 -1 59 -5 61
-10 8 -11 -31 -21 -84 -21 -54 1 -76 -10 -68 -32 5 -12 18 -15 57 -12 55 3 54
3 40 -24 -8 -16 -19 -18 -73 -13 -50 4 -66 2 -76 -11 -11 -13 -9 -17 14 -26
15 -6 31 -7 37 -4 6 4 8 1 6 -7 -3 -9 -17 -13 -38 -11 -21 1 -41 -4 -54 -16
-37 -32 -102 -72 -117 -72 -8 0 -20 9 -27 20 -17 28 -42 26 -42 -5 0 -30 -15
-33 -30 -4 -9 16 -8 26 5 45 8 13 13 24 10 24 -12 0 25 56 54 84 17 17 31 38
31 48 0 9 9 22 21 28 11 6 23 20 27 31 4 11 30 37 57 58 54 41 78 45 31 4z
m-464 -46 c21 -23 38 -49 38 -57 0 -8 13 -28 30 -45 25 -26 28 -35 22 -60 -5
-17 -23 -40 -42 -52 -40 -28 -52 -29 -48 -5 2 13 -4 17 -27 16 -16 -1 -45 -6
-62 -12 -41 -13 -44 2 -3 17 17 5 30 14 30 19 0 21 -32 20 -89 -3 -37 -14 -63
-20 -67 -14 -3 6 -4 11 -3 13 14 10 80 36 91 36 8 0 23 6 34 14 14 11 16 18 8
26 -8 8 -26 6 -70 -10 -64 -24 -145 -31 -151 -15 -2 6 11 15 29 20 18 6 34 18
36 27 3 14 -6 17 -50 20 l-53 3 43 19 c24 10 42 25 42 34 0 12 3 13 11 5 7 -7
18 -8 28 -3 9 4 34 16 56 25 22 10 47 22 55 26 30 16 74 -2 112 -44z m698 18
c6 3 10 1 10 -5 0 -16 -50 -4 -70 17 -13 13 -10 13 18 -1 18 -9 37 -14 42 -11z
m82 -81 c40 -69 49 -143 46 -371 l-3 -218 -35 -68 c-51 -100 -68 -117 -113
-119 -30 -1 -44 5 -70 30 -18 18 -41 32 -50 32 -11 0 -16 7 -14 23 2 18 -3 22
-28 22 -60 1 -80 13 -81 50 0 18 -6 41 -13 49 -12 14 -16 14 -43 -5 -37 -27
-71 -19 -115 27 -41 44 -41 62 -3 96 34 30 31 58 -6 58 -13 0 -24 5 -24 11 0
8 13 10 38 6 30 -5 42 -1 63 17 40 35 60 71 52 92 -7 18 -6 18 20 1 14 -9 32
-17 38 -17 7 0 45 -17 86 -37 73 -37 113 -80 113 -122 0 -18 18 -41 33 -41 5
0 7 16 5 35 -3 23 0 35 8 35 7 0 16 4 19 10 8 14 -32 88 -55 100 -11 6 -17 16
-14 25 16 42 -51 60 -85 23 -19 -20 -22 -20 -39 -5 -10 9 -24 17 -30 17 -7 0
-12 5 -12 10 0 6 7 10 15 10 8 0 36 13 62 28 26 16 56 31 66 35 9 4 20 14 24
24 4 9 15 25 24 34 10 10 21 30 25 45 4 14 17 36 30 49 13 13 24 29 24 35 0
20 24 5 42 -26z m-564 -8 c34 -1 62 -3 62 -6 -1 -13 -17 -27 -32 -27 -10 0
-35 -5 -57 -13 -38 -12 -39 -12 -70 20 -17 18 -31 34 -31 36 0 1 15 0 33 -4
17 -3 60 -6 95 -6z m-590 -28 c7 -7 12 -20 12 -29 0 -20 57 -72 73 -66 6 2 22
-9 35 -25 14 -16 34 -28 47 -28 35 0 77 -18 73 -32 -2 -6 -25 -16 -50 -23 -46
-11 -118 -57 -118 -75 0 -23 23 -18 67 14 43 31 72 40 111 37 18 -1 15 -21 -3
-21 -29 0 -110 -48 -147 -87 -41 -43 -73 -109 -57 -119 15 -9 39 3 39 21 0 8
5 15 10 15 6 0 10 -13 10 -28 0 -32 24 -71 37 -59 4 5 6 35 5 67 -4 68 13 107
60 135 37 21 46 13 23 -21 -18 -28 -15 -34 28 -52 30 -13 30 -13 41 39 3 14
15 38 27 53 20 25 22 26 40 11 10 -10 22 -14 27 -11 16 10 23 68 10 83 -9 11
-9 16 3 24 20 13 21 12 52 -33 19 -27 32 -37 39 -30 6 6 6 17 1 28 -4 11 -8
32 -8 49 0 25 4 30 27 32 24 1 27 -2 33 -40 9 -57 30 -87 60 -87 13 0 27 -4
30 -10 3 -5 20 -10 37 -10 26 0 29 -2 18 -15 -9 -10 -32 -15 -76 -15 -59 0
-64 -2 -85 -31 l-22 -31 29 -23 28 -23 -27 -36 c-16 -20 -32 -36 -36 -36 -4 0
-21 -12 -36 -26 -16 -14 -55 -44 -87 -66 -33 -23 -57 -46 -54 -53 2 -7 -15
-22 -44 -35 -27 -13 -62 -34 -78 -49 -45 -40 -68 -51 -108 -51 -29 0 -43 8
-75 41 -22 23 -51 66 -66 97 -23 49 -27 72 -31 186 -11 293 -9 342 16 375 12
17 22 39 22 49 0 32 17 41 38 20z m341 -169 c33 -12 40 -24 18 -32 -12 -4 -57
25 -57 37 0 8 2 8 39 -5z m-30 -53 c9 -10 8 -16 -4 -26 -13 -11 -15 -8 -15 14
0 30 3 32 19 12z m-1584 -126 c16 -7 11 -9 -20 -9 -29 -1 -36 2 -25 9 17 11
19 11 45 0z m2797 -1575 c10 -13 18 -27 18 -31 0 -4 21 -31 48 -59 62 -68 90
-103 102 -125 8 -15 4 -19 -25 -24 -20 -4 -84 -6 -143 -6 -59 1 -114 -1 -124
-5 -14 -5 -17 3 -23 57 -4 35 -5 104 -3 153 4 86 5 90 29 93 13 2 28 8 33 12
10 10 56 -25 88 -65z m-3282 45 c-20 -13 -33 -13 -25 0 3 6 14 10 23 10 15 0
15 -2 2 -10z m45 0 c3 -5 1 -10 -4 -10 -6 0 -11 5 -11 10 0 6 2 10 4 10 3 0 8
-4 11 -10z m25 -40 c-19 -13 -30 -13 -30 0 0 6 10 10 23 10 18 0 19 -2 7 -10z
m1546 -68 c-3 -26 -2 -70 3 -97 5 -26 7 -54 4 -61 -3 -9 -41 -12 -131 -13
-139 -1 -168 6 -129 32 13 8 51 42 83 73 69 67 131 112 158 113 17 1 18 -4 12
-47z m-1168 -129 c-10 -2 -26 -2 -35 0 -10 3 -2 5 17 5 19 0 27 -2 18 -5z
m-373 -13 c3 -5 1 -10 -4 -10 -6 0 -11 5 -11 10 0 6 2 10 4 10 3 0 8 -4 11
-10z m45 -65 c0 -7 8 -19 18 -25 14 -9 11 -10 -17 -6 -18 3 -39 6 -46 6 -8 0
-11 8 -8 20 6 24 53 29 53 5z m1505 -7 c9 -10 13 -148 5 -148 -6 0 -10 7 -10
15 0 8 -4 16 -10 17 -29 4 -35 1 -35 -17 0 -11 -8 -21 -17 -23 -14 -3 -16 3
-11 31 4 25 1 36 -11 40 -17 7 -20 4 -31 -38 l-8 -30 -6 25 c-5 16 -15 26 -30
28 -20 3 -23 1 -16 -15 15 -39 15 -47 -1 -25 -19 25 -44 29 -44 7 0 -23 -77
-21 -84 3 -15 52 -18 95 -6 117 12 23 14 23 162 19 83 -2 152 -5 153 -6z
m1845 -40 c0 -29 -5 -60 -10 -68 -7 -11 -10 0 -10 37 0 28 -5 55 -11 59 -8 4
-7 9 2 15 25 16 29 10 29 -43z m-3163 36 c-3 -3 -12 -4 -19 -1 -8 3 -5 6 6 6
11 1 17 -2 13 -5z m73 -4 c0 -5 -4 -10 -10 -10 -5 0 -10 5 -10 10 0 6 5 10 10
10 6 0 10 -4 10 -10z m3033 -2 c-4 -7 -8 -33 -9 -58 -2 -71 -3 -80 -15 -80 -6
0 -9 14 -7 33 2 23 -1 32 -12 32 -11 0 -16 -13 -18 -47 -3 -54 -21 -66 -23
-15 -1 17 -2 50 -3 71 -1 41 -11 52 -34 37 -9 -6 -14 -29 -14 -71 0 -83 -15
-63 -21 27 -4 83 -8 79 101 82 48 1 61 -2 55 -11z m-204 -50 c-1 -55 -5 -50
-11 15 -2 20 0 37 4 37 4 0 7 -24 7 -52z m-2826 15 c-7 -2 -19 -2 -25 0 -7 3
-2 5 12 5 14 0 19 -2 13 -5z m21 -40 c4 -4 28 -6 54 -4 75 4 45 -6 -38 -13
-68 -6 -73 -6 -55 8 23 17 29 19 39 9z m-381 -20 c-7 -2 -19 -2 -25 0 -7 3 -2
5 12 5 14 0 19 -2 13 -5z m105 0 c-15 -2 -42 -2 -60 0 -18 2 -6 4 27 4 33 0
48 -2 33 -4z m120 0 c-10 -2 -28 -2 -40 0 -13 2 -5 4 17 4 22 1 32 -1 23 -4z
m-8 -43 c11 -7 -1 -9 -40 -9 -42 1 -49 3 -30 9 35 11 53 11 70 0z m3217 -12
c-3 -8 -6 -5 -6 6 -1 11 2 17 5 13 3 -3 4 -12 1 -19z m-3442 -8 c-3 -5 -17
-10 -30 -10 -13 0 -27 5 -30 10 -4 6 8 10 30 10 22 0 34 -4 30 -10z m35 0 c0
-5 -2 -10 -4 -10 -3 0 -8 5 -11 10 -3 6 -1 10 4 10 6 0 11 -4 11 -10z m517 -6
c-3 -3 -12 -4 -19 -1 -8 3 -5 6 6 6 11 1 17 -2 13 -5z m-89 -21 c17 -4 22 -12
22 -38 0 -31 -3 -34 -40 -40 -45 -8 -57 -19 -40 -40 16 -19 60 -19 96 0 19 9
32 11 38 5 6 -6 23 -10 40 -10 55 0 17 -13 -51 -18 -64 -4 -88 -15 -77 -34 3
-4 -11 -8 -30 -8 -26 0 -34 4 -30 14 6 16 -24 26 -83 26 -44 0 -53 9 -29 29
10 9 15 8 20 -4 8 -22 25 -18 36 9 5 13 15 26 22 29 19 7 -13 62 -35 61 -9 -1
-17 2 -17 6 0 12 29 20 35 10 10 -16 42 -11 49 6 4 12 13 14 29 9 12 -3 32 -9
45 -12z m365 -30 c-7 -2 -19 -2 -25 0 -7 3 -2 5 12 5 14 0 19 -2 13 -5z m769
-15 c14 1 16 -11 13 -96 -2 -53 -6 -196 -10 -317 -3 -121 -8 -230 -10 -241 -7
-30 20 -78 63 -114 20 -16 32 -30 27 -30 -6 -1 -61 -2 -123 -4 -106 -3 -114
-1 -125 18 -14 25 -19 284 -6 292 17 10 9 52 -12 65 -18 12 -21 28 -26 124 -8
139 -5 270 6 313 1 1 43 0 94 -4 50 -3 99 -6 109 -6z m-1442 -8 c0 -5 -6 -10
-14 -10 -8 0 -18 5 -21 10 -3 6 3 10 14 10 12 0 21 -4 21 -10z m120 -19 c0
-14 -6 -17 -25 -13 -29 5 -32 17 -8 31 22 12 33 5 33 -18z m905 6 l160 -2 -2
-25 c-2 -14 -4 -42 -4 -62 -1 -29 -6 -36 -20 -35 -11 1 -18 8 -16 16 4 25 -53
32 -279 32 -181 -1 -223 2 -227 13 -4 10 8 16 49 21 37 4 54 11 54 21 0 11
-17 14 -72 16 -56 2 -44 3 47 8 66 3 127 4 135 2 8 -1 87 -3 175 -5z m-452 -4
c-7 -2 -21 -2 -30 0 -10 3 -4 5 12 5 17 0 24 -2 18 -5z m-33 -53 c0 -5 -5 -10
-11 -10 -5 0 -7 5 -4 10 3 6 8 10 11 10 2 0 4 -4 4 -10z m70 6 c0 -3 -4 -8
-10 -11 -5 -3 -10 -1 -10 4 0 6 5 11 10 11 6 0 10 -2 10 -4z m-537 -34 c-15
-15 -43 -26 -43 -16 0 18 17 34 36 34 23 0 23 -1 7 -18z m4343 3 c4 -9 11 -15
18 -14 20 2 55 -13 60 -27 4 -10 -2 -12 -22 -8 -18 3 -39 -3 -62 -18 -40 -25
-58 -30 -80 -22 -10 4 -5 10 18 19 34 15 41 32 17 41 -8 4 -15 12 -15 19 0 26
57 34 66 10z m-4396 -15 c0 -5 -4 -10 -10 -10 -5 0 -10 5 -10 10 0 6 5 10 10
10 6 0 10 -4 10 -10z m30 -55 c-30 -17 -40 -18 -40 -6 0 10 22 18 50 19 8 1 4
-5 -10 -13z m-95 -5 c-3 -5 -13 -10 -21 -10 -8 0 -12 5 -9 10 3 6 13 10 21 10
8 0 12 -4 9 -10z m650 -11 c-27 -3 -54 -3 -60 0 -14 8 54 18 85 12 18 -4 12
-7 -25 -12z m-338 5 c-3 -3 -12 -4 -19 -1 -8 3 -5 6 6 6 11 1 17 -2 13 -5z
m130 0 c-3 -3 -12 -4 -19 -1 -8 3 -5 6 6 6 11 1 17 -2 13 -5z m98 -4 c8 -13
-5 -13 -25 0 -13 8 -13 10 2 10 9 0 20 -4 23 -10z m232 4 c-3 -3 -12 -4 -19
-1 -8 3 -5 6 6 6 11 1 17 -2 13 -5z m459 -31 c1 -13 -4 -23 -11 -23 -7 0 -12
6 -11 13 1 13 -5 17 -29 17 -8 0 -15 -6 -15 -14 0 -8 -9 -14 -19 -13 -15 1
-17 4 -9 14 14 17 -1 22 -82 26 -36 2 -11 3 55 3 117 -1 120 -2 121 -23z
m-1181 -13 c3 -5 1 -10 -4 -10 -6 0 -11 5 -11 10 0 6 2 10 4 10 3 0 8 -4 11
-10z m-228 -6 c-3 -3 -12 -4 -19 -1 -8 3 -5 6 6 6 11 1 17 -2 13 -5z m166 -19
c-5 -16 -33 -21 -33 -7 0 13 22 32 31 26 5 -2 6 -11 2 -19z m211 16 c3 -5 -3
-11 -14 -14 -13 -3 -20 0 -20 9 0 15 26 19 34 5z m516 2 c0 -4 -55 -9 -123
-10 -67 -1 -106 2 -87 5 53 10 210 14 210 5z m90 -3 c-36 -4 -69 -3 -74 2 -6
4 24 7 65 6 l74 -1 -65 -7z m3620 0 c0 -5 -15 -9 -32 -9 l-33 1 30 8 c17 4 31
8 33 9 1 0 2 -3 2 -9z m-4042 -7 c-15 -2 -42 -2 -60 0 -18 2 -6 4 27 4 33 0
48 -2 33 -4z m860 -56 c-11 -6 -387 6 -383 13 2 4 84 8 182 9 97 1 179 4 182
7 3 2 9 -3 14 -11 5 -9 7 -17 5 -18z m-1128 13 c0 -5 -5 -10 -11 -10 -5 0 -7
5 -4 10 3 6 8 10 11 10 2 0 4 -4 4 -10z m3675 0 c46 -7 43 -7 -37 -9 -53 0
-88 3 -88 9 0 12 53 12 125 0z m645 0 c0 -5 -2 -10 -4 -10 -3 0 -8 5 -11 10
-3 6 -1 10 4 10 6 0 11 -4 11 -10z m80 3 c0 -5 -13 -8 -30 -9 -16 -1 -27 3
-24 7 6 11 54 12 54 2z m93 0 c-7 -2 -19 -2 -25 0 -7 3 -2 5 12 5 14 0 19 -2
13 -5z m-3900 -10 c-13 -2 -33 -2 -45 0 -13 2 -3 4 22 4 25 0 35 -2 23 -4z
m85 0 c-10 -2 -28 -2 -40 0 -13 2 -5 4 17 4 22 1 32 -1 23 -4z m3519 1 c-3 -3
-12 -4 -19 -1 -8 3 -5 6 6 6 11 1 17 -2 13 -5z m-304 -11 c-7 -2 -21 -2 -30 0
-10 3 -4 5 12 5 17 0 24 -2 18 -5z m-597 -14 c166 -2 200 -16 47 -19 -73 -2
-139 -3 -145 -4 -7 -1 -14 7 -16 18 -2 10 0 16 6 12 5 -3 54 -6 108 -7z
m-3529 -15 c-3 -3 -12 -4 -19 -1 -8 3 -5 6 6 6 11 1 17 -2 13 -5z m4341 -1
c-27 -2 -69 -2 -95 0 -27 2 -5 3 47 3 52 0 74 -1 48 -3z m89 1 c-3 -3 -12 -4
-19 -1 -8 3 -5 6 6 6 11 1 17 -2 13 -5z m-3360 -18 c4 -3 -26 -6 -66 -6 -46 0
-70 4 -66 10 6 10 121 7 132 -4z m2998 4 c35 -3 33 -4 -20 -9 -33 -3 -82 -4
-110 -2 l-50 5 40 5 c41 6 72 6 140 1z m-3156 -4 c-10 -9 -79 -14 -79 -5 0 5
19 9 42 9 23 0 39 -2 37 -4z m2788 -32 c-3 -3 -12 -4 -19 -1 -8 3 -5 6 6 6 11
1 17 -2 13 -5z m71 -1 c-10 -2 -28 -2 -40 0 -13 2 -5 4 17 4 22 1 32 -1 23 -4z
m-1649 -492 c20 -11 44 -27 52 -37 8 -9 30 -24 49 -32 l35 -15 -70 -24 c-38
-13 -83 -28 -100 -34 -75 -25 -265 -32 -265 -10 0 3 33 21 73 40 43 21 91 54
120 83 26 26 53 48 58 48 5 0 27 -9 48 -19z m982 -58 c31 -29 61 -53 67 -53
14 0 34 -35 25 -44 -10 -9 -93 -7 -143 5 -24 5 -58 20 -75 33 -16 13 -53 29
-81 36 -40 10 -50 17 -47 30 6 24 79 48 143 47 52 -1 58 -3 111 -54z M2384
5329 c-5 -8 14 -23 39 -32 21 -8 69 12 64 27 -4 12 -96 16 -103 5z M2393 5241
c-18 -9 -33 -19 -33 -22 0 -11 43 -16 70 -9 14 4 35 3 48 -1 24 -9 76 6 68 20
-6 9 -55 22 -96 26 -14 1 -40 -5 -57 -14z M2406 5181 c-10 -15 51 -32 63 -17
6 7 8 16 4 19 -10 10 -61 8 -67 -2z M2080 4815 c-7 -8 -19 -15 -26 -15 -8 0
-14 -9 -14 -20 0 -17 4 -19 26 -14 24 6 37 8 82 13 31 3 -5 50 -39 51 -9 0
-22 -7 -29 -15z M1710 7550 c0 -5 7 -10 16 -10 8 0 12 5 9 10 -3 6 -10 10 -16
10 -5 0 -9 -4 -9 -10z M620 7450 c0 -5 5 -10 10 -10 6 0 10 5 10 10 0 6 -4 10
-10 10 -5 0 -10 -4 -10 -10z M624 7422 c-5 -4 -10 -15 -10 -24 -1 -14 2 -15
16 -8 13 7 20 6 23 -3 2 -6 7 -9 11 -6 9 9 -29 49 -40 41z M1900 7406 c0 -2 7
-7 16 -10 8 -3 12 -2 9 4 -6 10 -25 14 -25 6z M2178 7193 c7 -3 16 -2 19 1 4
3 -2 6 -13 5 -11 0 -14 -3 -6 -6z M1665 7000 c3 -5 8 -10 11 -10 2 0 4 5 4 10
0 6 -5 10 -11 10 -5 0 -7 -4 -4 -10z M2497 6959 c7 -7 15 -10 18 -7 3 3 -2 9
-12 12 -14 6 -15 5 -6 -5z M3050 6210 c0 -5 5 -10 11 -10 5 0 7 5 4 10 -3 6
-8 10 -11 10 -2 0 -4 -4 -4 -10z M3156 6152 c-3 -6 -1 -14 5 -17 15 -10 25 3
12 16 -7 7 -13 7 -17 1z M1077 5912 c-31 -33 -35 -52 -9 -52 27 0 50 22 54 49
4 35 -14 36 -45 3z M4044 5665 c11 -8 24 -15 30 -15 5 0 1 7 -10 15 -10 8 -23
14 -29 14 -5 0 -1 -6 9 -14z M4170 5590 c0 -5 7 -10 16 -10 8 0 12 5 9 10 -3
6 -10 10 -16 10 -5 0 -9 -4 -9 -10z M4810 5500 c0 -5 5 -10 11 -10 5 0 7 5 4
10 -3 6 -8 10 -11 10 -2 0 -4 -4 -4 -10z M4830 5450 c0 -5 5 -10 10 -10 6 0
10 5 10 10 0 6 -4 10 -10 10 -5 0 -10 -4 -10 -10z M1660 5315 c0 -8 5 -15 10
-15 6 0 10 7 10 15 0 8 -4 15 -10 15 -5 0 -10 -7 -10 -15z M4690 5255 c0 -2
10 -10 23 -16 20 -11 21 -11 8 4 -13 16 -31 23 -31 12z M4920 5091 c0 -5 7
-12 16 -15 14 -5 15 -4 4 9 -14 17 -20 19 -20 6z M3440 4662 c-19 -1 -54 -12
-77 -22 -24 -11 -47 -20 -53 -20 -5 0 -18 -8 -28 -17 -10 -10 -26 -22 -35 -28
-24 -14 -7 -36 30 -39 21 -1 35 5 48 23 10 13 13 21 7 17 -7 -4 -12 -2 -12 3
0 6 9 11 19 11 11 0 21 5 23 12 2 6 31 13 66 16 52 4 70 0 117 -23 30 -14 53
-30 50 -35 -3 -4 5 -6 17 -2 12 3 19 1 15 -4 -6 -11 3 -13 81 -16 30 -2 56 0
58 4 3 4 16 3 31 -3 31 -12 103 -20 268 -33 28 -2 55 -5 60 -6 27 -6 95 1 95
10 0 11 -47 26 -69 21 -8 -1 -10 2 -5 11 6 11 5 11 -8 0 -11 -9 -23 -10 -41
-3 -16 6 -29 7 -32 1 -3 -5 -12 -7 -19 -4 -15 6 -57 11 -98 13 -41 2 -34 19 6
19 19 0 39 3 45 6 27 17 108 16 144 -3 35 -18 42 -18 100 -5 34 8 91 23 127
34 53 16 75 18 115 11 27 -5 54 -15 59 -23 17 -22 100 -67 137 -73 19 -4 43
-8 54 -10 21 -4 95 -13 158 -20 20 -2 42 -7 47 -10 6 -4 10 6 10 22 0 28 -1
28 -67 30 -91 2 -206 34 -295 81 -83 44 -124 49 -206 27 -134 -36 -188 -43
-223 -28 -33 14 -166 16 -174 2 -2 -3 -25 -7 -52 -8 -26 -1 -57 -8 -70 -16
-25 -17 -37 -19 -29 -6 4 5 -4 7 -16 3 -16 -4 -19 -2 -13 9 7 11 6 12 -6 3
-20 -16 -69 -23 -69 -11 0 7 -4 7 -12 -1 -14 -14 -32 -16 -24 -3 4 5 -4 7 -16
3 -21 -5 -22 -4 -8 13 13 17 13 18 0 9 -25 -15 -61 -12 -55 5 3 9 3 12 -1 8
-4 -4 -12 -3 -18 2 -24 19 -123 46 -156 43z M4328 4534 c-2 -1 -25 -4 -51 -5
-28 -2 -46 -7 -44 -13 2 -7 41 -11 99 -12 77 0 101 -4 130 -21 53 -31 67 -12
16 21 -30 20 -58 29 -95 31 -28 1 -53 1 -55 -1z M3194 4498 l-19 -23 23 19
c21 18 27 26 19 26 -2 0 -12 -10 -23 -22z M3204 4428 l-19 -23 23 19 c12 11
22 21 22 23 0 8 -8 2 -26 -19z M50 4320 c0 -19 5 -21 48 -18 34 2 47 7 47 18
0 11 -13 16 -47 18 -43 3 -48 1 -48 -18z M286 4321 c-11 -18 15 -30 76 -36 65
-6 93 4 71 26 -11 11 -141 20 -147 10z M528 4309 c-6 -4 -8 -15 -4 -24 5 -13
13 -16 39 -11 17 4 49 6 70 6 30 -1 37 3 37 19 0 18 -6 20 -65 18 -36 0 -71
-4 -77 -8z M734 4305 c-11 -27 7 -31 118 -29 125 2 118 1 118 19 0 11 -11 15
-38 15 -22 0 -73 3 -115 6 -67 6 -77 5 -83 -11z M1287 4303 c-29 -7 -15 -36
22 -45 45 -12 96 -6 96 11 0 11 -77 43 -95 40 -3 -1 -13 -3 -23 -6z M3232
4302 c-52 -2 -72 -6 -69 -15 3 -8 33 -12 93 -12 99 -1 134 3 134 15 0 11 -68
16 -158 12z M4757 4304 c-10 -10 -364 -27 -497 -24 -236 5 -243 5 -247 -6 -4
-11 99 -21 262 -27 95 -3 631 16 639 23 4 4 -1 13 -13 19 -23 13 -135 24 -144
15z M1066 4291 c-12 -20 26 -33 91 -32 69 1 100 14 73 31 -19 12 -157 13 -164
1z M1585 4290 c-13 -21 11 -31 66 -28 40 2 54 7 54 18 0 19 -109 28 -120 10z
M3528 4294 c-10 -3 -18 -12 -18 -20 0 -11 28 -14 159 -14 145 0 190 7 161 25
-13 8 -278 16 -302 9z M4810 4231 c0 -15 10 -18 78 -25 50 -6 62 -4 62 7 0 8
-14 17 -31 21 -47 9 -109 7 -109 -3z M57 4224 c-4 -4 -7 -16 -7 -27 0 -18 8
-19 153 -16 174 4 197 6 197 24 0 10 -35 13 -154 14 -84 0 -160 3 -168 6 -8 3
-17 2 -21 -1z M510 4220 c-21 -13 -1 -30 36 -30 28 0 35 4 32 16 -3 18 -47 27
-68 14z M695 4200 c-9 -15 43 -36 56 -23 6 6 8 16 5 22 -9 14 -53 14 -61 1z
M805 4200 c-10 -16 8 -26 58 -34 42 -7 69 6 51 24 -16 16 -100 24 -109 10z
M3993 4203 c-34 -13 -3 -21 92 -22 89 -2 105 1 105 14 0 12 -16 15 -92 14 -51
0 -99 -3 -105 -6z M4338 4189 c-56 -21 -23 -40 47 -28 21 4 54 5 73 2 29 -5
34 -3 30 13 -3 16 -13 19 -63 21 -33 1 -72 -3 -87 -8z M4685 4190 c-64 -7 -84
-18 -62 -35 11 -8 34 -9 74 -4 32 5 77 6 101 3 26 -4 42 -2 42 5 0 26 -72 40
-155 31z M1475 4181 c-10 -18 25 -32 77 -30 30 1 60 -1 66 -5 19 -11 152 6
152 20 0 21 -13 23 -109 16 -51 -4 -94 -5 -97 -1 -6 10 -83 9 -89 0z M3166
4182 c-15 -25 17 -32 164 -34 177 -3 220 13 63 24 -54 3 -126 9 -160 12 -34 3
-64 2 -67 -2z M1132 4168 c5 -15 98 -24 98 -10 0 12 -34 22 -73 22 -19 0 -27
-4 -25 -12z M3655 4160 c-12 -20 4 -25 70 -22 44 3 65 8 62 15 -5 15 -123 22
-132 7z M3895 4146 c-16 -7 -45 -27 -62 -44 -26 -23 -33 -38 -33 -67 0 -28 -4
-36 -14 -32 -8 3 -22 -3 -31 -13 -13 -15 -30 -18 -97 -17 -74 2 -92 -4 -93
-27 0 -5 -25 -11 -55 -13 -53 -4 -84 -18 -75 -33 4 -7 -154 -4 -230 4 -22 3
-47 1 -55 -5 -24 -15 15 -38 64 -38 23 0 55 -2 71 -4 17 -2 51 -5 78 -5 34 -2
47 -6 47 -17 0 -18 35 -28 81 -23 22 2 34 8 34 18 0 11 -13 16 -47 18 -36 2
-46 6 -41 18 6 16 43 20 43 4 0 -6 39 -10 98 -10 53 -1 104 -1 112 -1 64 -3
629 12 654 17 28 5 34 3 39 -16 l6 -22 248 7 c335 9 307 6 311 33 2 14 -2 22
-11 22 -8 0 -27 10 -43 23 -16 12 -40 22 -54 23 -52 2 -92 17 -102 39 -5 12
-35 33 -73 49 l-64 28 -53 -27 c-44 -22 -67 -27 -142 -28 -85 -1 -89 0 -108
26 -11 15 -24 27 -29 27 -5 0 -27 12 -49 26 -30 20 -47 25 -70 21 -20 -4 -32
-2 -37 7 -10 18 -78 31 -87 18 -12 -20 6 -42 35 -42 18 0 29 -5 29 -14 0 -26
24 -36 58 -24 28 11 34 10 56 -11 37 -35 31 -61 -16 -61 -27 0 -38 -4 -38 -15
0 -18 -28 -34 -51 -28 -14 4 -17 13 -15 39 1 19 -2 38 -8 43 -20 16 -126 33
-139 22 -17 -13 -39 2 -32 21 4 9 2 19 -4 22 -14 9 -41 -22 -41 -46 0 -23 -12
-17 -16 6 -5 35 119 99 144 74 7 -7 14 -4 21 10 6 10 7 22 4 26 -11 11 -87 6
-118 -8z m787 -181 c6 -13 19 -27 30 -30 31 -10 20 -21 -24 -23 -24 -1 -54 -4
-68 -7 -58 -11 -100 -13 -105 -5 -3 5 -31 11 -63 15 -31 3 -66 10 -77 15 -11
5 -31 10 -44 12 -14 2 -26 9 -29 16 -3 9 3 11 20 7 12 -3 39 -7 58 -9 19 -2
56 -7 82 -11 26 -4 56 -4 65 0 10 4 25 9 34 10 8 1 26 9 39 18 36 25 68 22 82
-8z M4241 4119 c-17 -7 -21 -13 -14 -20 15 -15 135 -1 130 15 -5 14 -85 18
-116 5z M1210 4110 c-78 -19 41 -36 268 -39 75 -1 92 2 92 14 0 8 -10 17 -22
20 -32 7 -313 11 -338 5z M4525 4112 c-41 -5 -54 -19 -23 -27 35 -9 104 -2
100 10 -3 13 -40 21 -77 17z M447 4103 c-24 -3 -37 -9 -34 -16 5 -16 144 -22
163 -6 32 26 -12 34 -129 22z M677 4103 c-15 -24 25 -32 165 -37 141 -4 184 2
163 23 -14 14 -320 27 -328 14z M1652 4098 c7 -20 48 -23 48 -4 0 11 -9 16
-26 16 -16 0 -24 -5 -22 -12z M56 4092 c-3 -3 -6 -12 -6 -21 0 -14 19 -16 136
-18 134 -1 198 9 191 30 -3 11 -311 20 -321 9z M4855 4090 c-10 -17 13 -30 53
-30 22 0 32 5 32 15 0 8 -8 15 -17 15 -10 0 -28 3 -39 6 -12 3 -25 0 -29 -6z
M3110 4046 c0 -11 23 -14 120 -13 66 1 120 4 120 8 0 13 -45 19 -142 19 -78 0
-98 -3 -98 -14z M1033 4032 c-34 -2 -43 -7 -43 -22 0 -23 18 -30 47 -17 15 7
45 6 92 -1 84 -14 231 -16 231 -3 0 17 -14 20 -131 31 -63 6 -123 12 -134 13
-11 2 -39 1 -62 -1z M2274 4028 c-10 -15 -10 -15 -24 -163 -17 -182 -17 -190
0 -190 12 0 17 26 26 130 6 72 15 151 19 176 7 46 -5 73 -21 47z M3561 4026
c-52 -19 -51 -36 2 -36 43 0 77 18 77 41 0 12 -38 10 -79 -5z M1599 4019 c-28
-17 9 -30 95 -33 81 -3 111 5 90 24 -13 11 -169 19 -185 9z M137 4009 c-20 -3
-48 -5 -62 -3 -19 2 -25 -2 -25 -17 0 -20 -3 -20 115 -4 11 1 28 3 38 4 9 0
17 7 17 15 0 14 -19 16 -83 5z M2203 3958 c-2 -54 13 -90 28 -66 10 15 11 64
3 96 -11 41 -29 24 -31 -30z M340 3991 c0 -17 15 -20 133 -23 115 -3 135 1
122 21 -8 14 -255 15 -255 2z M3313 3978 c2 -7 12 -13 22 -13 10 0 20 6 23 13
2 7 -6 12 -23 12 -17 0 -25 -5 -22 -12z M4872 3973 c4 -23 78 -32 78 -10 0 15
-28 27 -63 27 -12 0 -17 -6 -15 -17z M630 3973 c-8 -3 -29 -17 -46 -30 -58
-43 -153 -76 -238 -80 -43 -2 -86 -8 -96 -13 -10 -6 -28 -10 -39 -10 -28 0
-98 -38 -105 -57 -4 -10 -14 -13 -31 -9 l-24 6 0 -130 c0 -126 0 -130 22 -135
12 -3 31 -5 42 -4 33 3 55 -1 55 -10 0 -5 -19 -8 -43 -7 -54 3 -77 -3 -77 -20
0 -17 -40 -15 400 -21 201 -2 384 -5 407 -5 23 0 50 3 60 7 21 9 48 10 323 19
272 8 312 13 308 34 -2 11 -16 19 -38 22 l-35 6 50 11 c28 6 96 12 153 12 77
1 109 5 128 17 28 19 27 37 -2 42 -10 2 -28 12 -39 22 -11 10 -39 24 -63 32
-23 7 -45 21 -48 31 -3 10 -18 25 -32 35 -15 9 -32 22 -39 28 -19 18 -160 10
-183 -11 -33 -29 -163 -4 -199 38 -8 11 -28 17 -52 17 -28 0 -55 11 -96 37
-170 110 -210 126 -318 130 -49 1 -97 0 -105 -4z m190 -62 c10 -2 -53 -31 -66
-31 -26 0 -120 -40 -142 -61 -12 -11 -26 -18 -30 -15 -9 5 -124 -26 -164 -44
-19 -9 -34 -9 -55 -2 l-28 10 28 1 c34 1 35 18 2 27 -31 8 -112 -4 -120 -17
-4 -5 -16 -9 -28 -9 -13 0 -32 -7 -43 -15 -20 -14 -34 -11 -34 7 0 4 5 8 11 8
6 0 22 9 35 19 16 12 49 22 92 26 163 17 188 23 252 58 64 36 118 47 215 42
39 -2 72 -4 75 -4z m355 -161 c3 -5 1 -10 -4 -10 -6 0 -11 5 -11 10 0 6 2 10
4 10 3 0 8 -4 11 -10z m385 -25 c7 -8 18 -15 25 -15 15 0 25 -22 25 -56 0 -30
24 -41 47 -23 14 12 16 12 11 -1 -3 -9 -19 -16 -39 -17 -19 -1 -36 -2 -39 -3
-3 -1 -17 -4 -32 -6 -30 -3 -40 19 -13 30 20 7 19 25 -2 33 -19 7 -43 28 -43
37 0 8 31 36 39 36 5 0 14 -7 21 -15z m-1480 -4 c0 -6 -4 -13 -10 -16 -5 -3
-10 1 -10 9 0 9 5 16 10 16 6 0 10 -4 10 -9z m806 -28 c13 2 24 1 24 -3 0 -13
-48 -20 -73 -11 -13 5 -52 8 -87 6 -49 -2 -66 -7 -79 -22 -21 -26 -98 -40 -98
-18 0 22 54 51 117 64 89 18 113 18 143 -2 16 -11 38 -17 53 -14z m234 27 c0
-5 -5 -10 -12 -10 -6 0 -3 -9 8 -21 13 -15 16 -24 8 -36 -16 -25 -26 -25 -57
1 -26 21 -27 26 -16 44 12 18 22 23 62 31 4 0 7 -3 7 -9z m73 -4 c4 -10 1 -13
-9 -9 -15 6 -19 23 -5 23 5 0 11 -7 14 -14z m245 -13 c-3 -27 -5 -28 -58 -25
-65 4 -90 10 -90 22 0 5 25 8 56 7 35 -2 59 2 66 10 17 21 30 15 26 -14z
m-987 -36 c-13 -16 -5 -47 13 -48 37 -3 57 -6 62 -12 14 -13 -17 -34 -51 -35
-29 -1 -38 3 -47 23 -13 30 -25 31 -58 8 -14 -10 -34 -19 -45 -19 -11 -1 -39
-5 -62 -9 -24 -4 -43 -4 -42 1 1 23 68 99 86 99 11 0 26 5 34 12 20 16 91 21
108 6 11 -9 12 -15 2 -26z m57 21 c-3 -7 -13 -15 -24 -17 -16 -3 -17 -1 -5 13
16 19 34 21 29 4z m482 2 c0 -5 -4 -10 -10 -10 -5 0 -10 5 -10 10 0 6 5 10 10
10 6 0 10 -4 10 -10z m30 -53 c0 -16 -6 -23 -20 -24 -25 -2 -26 15 -2 33 22
17 22 18 22 -9z m200 -8 c0 -5 -4 -9 -10 -9 -5 0 -10 7 -10 16 0 8 5 12 10 9
6 -3 10 -10 10 -16z m-70 -33 c0 -3 -4 -8 -10 -11 -5 -3 -10 -1 -10 4 0 6 5
11 10 11 6 0 10 -2 10 -4z m-50 -26 c0 -5 -8 -10 -17 -10 -15 0 -16 2 -3 10
19 12 20 12 20 0z m-831 -31 c-8 -17 -8 -20 1 -14 7 4 16 1 21 -6 6 -11 11
-11 20 -2 9 9 16 9 25 2 10 -8 19 -6 35 5 18 12 24 12 35 2 9 -10 57 -14 176
-15 90 -1 178 -5 196 -9 18 -4 -96 -8 -253 -8 -157 -1 -285 0 -285 3 0 8 31
63 36 63 2 0 0 -10 -7 -21z m774 14 c-7 -2 -19 -2 -25 0 -7 3 -2 5 12 5 14 0
19 -2 13 -5z m147 -40 c0 -4 -53 -10 -118 -12 -182 -7 -205 -7 -209 4 -2 6 58
11 162 13 91 2 165 0 165 -5z M1430 3943 c0 -6 4 -14 9 -18 19 -11 321 -9 333
3 18 18 -2 20 -179 24 -124 3 -163 1 -163 -9z M3014 3949 c-14 -23 10 -31 75
-24 71 7 76 9 67 23 -7 12 -134 13 -142 1z M1056 3941 c-7 -10 22 -37 30 -28
9 8 -3 37 -15 37 -5 0 -12 -4 -15 -9z M1125 3939 c-4 -6 -1 -15 6 -20 20 -13
54 -6 54 11 0 18 -50 26 -60 9z M1307 3944 c-12 -12 4 -24 34 -24 19 0 29 5
29 15 0 15 -50 22 -63 9z M1845 3940 c-10 -16 -1 -22 37 -23 23 -2 33 2 33 13
0 18 -60 27 -70 10z M163 3923 c-45 -3 -63 -8 -63 -18 0 -7 5 -15 12 -17 13
-5 129 10 136 16 6 6 -8 26 -16 24 -4 -1 -35 -3 -69 -5z M85 3860 c4 -6 11 -8
16 -5 14 9 11 15 -7 15 -8 0 -12 -5 -9 -10z M1150 3861 c0 -17 23 -25 60 -22
49 3 71 11 65 22 -8 12 -125 12 -125 0z M1400 3850 c0 -5 4 -11 8 -14 6 -3
310 -8 505 -6 17 0 27 5 27 14 0 12 -42 15 -270 15 -155 0 -270 -4 -270 -9z
M50 3820 c0 -19 3 -21 12 -12 9 9 9 15 0 24 -9 9 -12 7 -12 -12z M3580 3821
c0 -19 8 -20 189 -17 104 2 194 7 200 10 31 20 -16 26 -195 26 -185 0 -194 -1
-194 -19z M4035 3830 c-13 -21 7 -27 97 -26 76 1 93 4 93 16 0 12 -18 16 -92
18 -55 2 -94 -1 -98 -8z M4368 3822 c-40 -2 -68 -7 -68 -14 0 -5 -7 -7 -15 -4
-20 7 -32 -21 -16 -37 9 -9 16 -8 32 1 22 14 147 17 224 5 85 -13 378 -10 382
4 8 24 -48 33 -205 34 -86 0 -182 4 -212 7 -30 4 -85 6 -122 4z M1828 3802
c-73 -3 -93 -11 -67 -27 6 -4 43 -6 82 -5 40 2 91 2 114 1 40 -1 68 15 41 23
-24 8 -93 11 -170 8z M3040 3803 c1 -22 21 -31 80 -32 36 -2 76 -3 90 -4 15
-1 26 4 28 14 2 13 -10 17 -59 23 -82 8 -139 8 -139 -1z M1369 3763 c-13 -16
-12 -17 4 -4 9 7 17 15 17 17 0 8 -8 3 -21 -13z M3335 3770 c-13 -20 6 -27 77
-29 40 -1 100 -5 133 -9 33 -4 141 -7 240 -6 142 2 180 5 180 16 0 10 -37 13
-185 11 -116 -1 -221 4 -280 12 -114 17 -157 18 -165 5z M1920 3735 c0 -11 7
-15 23 -13 12 2 22 8 22 13 0 6 -10 11 -22 13 -16 2 -23 -2 -23 -13z M4097
3673 c-11 -3 -16 -10 -13 -20 3 -8 6 -16 6 -17 0 -8 51 8 56 16 6 9 -14 29
-26 27 -3 -1 -13 -3 -23 -6z M3413 3663 c-28 -11 -10 -23 33 -23 40 0 45 2 34
15 -12 15 -43 18 -67 8z M4246 3662 c-10 -16 21 -34 51 -30 43 5 36 32 -9 36
-20 2 -39 -1 -42 -6z M4758 3664 c-3 -3 -96 -5 -207 -4 -166 0 -201 -2 -201
-14 0 -8 6 -16 13 -19 15 -6 482 1 516 8 63 12 27 35 -55 35 -33 0 -63 -2 -66
-6z M3657 3643 c6 -16 183 -19 183 -3 0 14 -36 20 -116 18 -54 -2 -70 -6 -67
-15z M3132 3638 c5 -15 119 -29 133 -16 17 15 -17 28 -78 28 -43 0 -58 -3 -55
-12z M4812 3563 c-15 -3 -22 -10 -20 -21 3 -13 17 -18 67 -20 35 -2 71 0 80 3
14 6 12 9 -8 26 -22 18 -64 22 -119 12z M3193 3528 c2 -7 9 -13 15 -12 7 1 26
2 42 3 48 2 34 21 -16 21 -32 0 -44 -4 -41 -12z M3461 3521 c-10 -7 0 -12 35
-17 76 -13 153 -2 123 17 -18 11 -140 11 -158 0z M3896 3512 c-7 -12 52 -23
117 -21 29 1 46 6 44 12 -4 14 -153 22 -161 9z M4203 3499 c-41 -14 19 -20
199 -20 234 1 238 1 238 12 0 11 16 10 -223 12 -109 1 -205 -1 -214 -4z M2833
3476 c-16 -13 -35 -36 -43 -51 -9 -17 -40 -40 -82 -61 -37 -19 -68 -39 -68
-44 0 -15 14 -12 72 17 51 26 182 146 170 157 -10 10 -20 7 -49 -18z M1650
3483 c-8 -2 -21 -7 -29 -9 -10 -3 -11 -7 -1 -19 10 -12 40 -14 158 -12 132 2
147 4 150 20 3 16 -4 18 -75 17 -43 0 -103 1 -133 4 -30 2 -62 2 -70 -1z
M3714 3451 c-11 -12 0 -17 37 -20 23 -1 45 -2 48 -3 17 -2 31 3 31 11 0 9
-108 20 -116 12z M4685 3449 c-10 -14 10 -17 135 -20 88 -2 125 1 128 9 4 14
-1 14 -151 17 -59 1 -110 -1 -112 -6z M50 3419 c0 -23 3 -24 71 -22 39 1 72 3
74 5 2 2 0 10 -5 18 -5 9 -32 15 -74 18 -64 4 -66 4 -66 -19z M293 3419 c-15
-5 -21 -14 -17 -24 5 -12 18 -14 73 -9 45 5 89 2 132 -9 35 -8 82 -13 104 -12
22 2 61 4 88 4 34 1 47 5 47 15 0 21 -24 26 -120 25 -47 -1 -98 4 -114 10 -33
13 -159 13 -193 0z M1530 3420 c-25 -4 -84 -5 -132 -2 -78 4 -88 3 -88 -12 0
-9 6 -19 13 -21 27 -9 166 -12 222 -4 39 5 80 4 115 -3 60 -12 114 -5 107 15
-2 7 -23 13 -46 14 -24 1 -57 7 -74 12 -33 12 -50 12 -117 1z M1820 3407 c0
-14 6 -18 28 -15 16 2 27 9 27 18 0 10 -10 15 -27 15 -21 1 -28 -4 -28 -18z
M837 3412 c-10 -2 -17 -10 -15 -18 2 -11 38 -15 173 -20 192 -7 255 -7 263 1
11 11 -9 18 -60 21 -29 2 -82 8 -118 14 -63 9 -206 11 -243 2z M3189 3403
c-21 -24 28 -35 134 -29 98 6 132 16 106 31 -21 13 -229 12 -240 -2z M4050
3410 c0 -6 18 -9 45 -7 64 6 68 17 7 17 -29 0 -52 -5 -52 -10z M2380 3395 c0
-19 28 -38 46 -31 22 9 12 29 -19 37 -19 5 -27 3 -27 -6z M2276 3377 c4 -13
25 -24 118 -66 34 -15 52 -19 59 -12 13 13 16 11 -75 55 -80 38 -111 45 -102
23z M3536 3382 c-10 -2 -16 -11 -14 -20 3 -14 20 -17 107 -20 119 -4 161 2
142 21 -11 11 -198 26 -235 19z M2142 3348 c-19 -19 -14 -31 11 -24 14 3 62
-8 122 -29 102 -36 120 -46 168 -89 48 -42 110 -25 205 56 18 15 42 28 52 28
11 0 20 5 20 10 0 20 -38 9 -80 -22 -24 -18 -50 -38 -59 -45 -9 -7 -34 -15
-57 -19 -36 -5 -45 -2 -75 24 -19 17 -66 43 -104 57 -39 15 -89 36 -113 46
-49 22 -73 24 -90 7z M4238 3352 c-23 -2 -38 -8 -38 -16 0 -16 163 -31 186
-18 37 21 -54 42 -148 34z M4848 3355 c-3 -3 -44 -6 -92 -7 -88 -2 -106 -8
-87 -32 18 -22 221 -8 221 15 0 10 -35 30 -42 24z M73 3323 c-13 -2 -23 -10
-23 -17 0 -9 19 -11 66 -10 45 2 74 -2 89 -12 21 -14 123 -13 146 2 21 13 -6
25 -54 23 -29 -1 -72 3 -97 9 -45 12 -86 13 -127 5z M2927 3324 c-10 -11 3
-24 24 -24 10 0 19 7 19 15 0 15 -31 21 -43 9z M593 3309 c-7 -7 -13 -16 -13
-19 0 -3 37 -6 83 -7 45 0 123 -2 172 -5 91 -5 142 3 130 22 -4 6 -30 11 -58
11 -29 -1 -108 2 -177 5 -95 4 -128 3 -137 -7z M1143 3314 c-7 -3 -13 -12 -13
-19 0 -11 23 -14 108 -14 59 0 151 0 204 -1 103 -3 148 4 148 21 0 7 -34 10
-97 8 -54 -2 -152 0 -218 4 -66 4 -126 4 -132 1z M1675 3291 c-8 -14 4 -18 53
-20 31 -1 42 3 42 14 0 11 -12 15 -44 15 -25 0 -47 -4 -51 -9z M3344 3255 c-9
-24 0 -28 65 -32 42 -3 61 1 70 11 16 19 8 22 -67 30 -52 6 -63 4 -68 -9z
M378 3227 c-27 -5 -48 -12 -48 -16 0 -4 46 -6 103 -6 133 2 143 3 132 14 -14
13 -132 18 -187 8z M903 3232 c-19 -3 -51 -29 -42 -35 2 -1 97 -1 212 1 199 3
265 14 155 26 -62 7 -293 12 -325 8z M50 3221 c0 -11 48 -24 61 -16 5 4 7 11
4 16 -8 12 -65 12 -65 0z M1954 3214 c-64 -14 -74 -20 -74 -45 0 -22 13 -25
28 -6 7 8 35 13 76 12 44 0 66 4 66 12 0 6 2 18 5 26 7 17 -29 18 -101 1z
M2081 3222 c-7 -2 4 -12 25 -22 42 -18 62 -16 44 5 -12 14 -49 24 -69 17z
M3670 3221 c0 -17 17 -21 99 -26 79 -5 112 6 80 26 -19 12 -179 11 -179 0z
M1587 3203 c-16 -15 -5 -23 32 -23 49 0 62 15 20 24 -39 8 -44 8 -52 -1z
M4042 3198 c9 -27 178 -28 178 -2 0 11 -20 14 -91 14 -68 0 -90 -3 -87 -12z
M4610 3200 c-13 -9 -13 -11 0 -20 15 -10 37 -14 54 -11 5 1 57 4 115 6 58 2
113 5 121 5 12 1 12 3 -3 14 -21 16 -264 21 -287 6z M180 3155 c-6 -7 -7 -15
-3 -18 18 -9 223 -7 223 3 0 5 -12 10 -27 11 -16 0 -44 2 -63 5 -103 12 -119
12 -130 -1z M648 3159 c-33 -19 -18 -26 57 -27 42 0 75 4 75 9 0 19 -106 34
-132 18z M1262 3153 c-13 -3 -21 -10 -19 -16 4 -13 415 -18 423 -5 12 18 -21
21 -227 19 -69 -1 -132 0 -140 2 -8 2 -24 2 -37 0z M2050 3121 c-56 -8 -93
-27 -70 -35 17 -7 66 -2 93 9 9 4 34 4 55 -1 20 -4 40 -7 45 -6 4 1 7 -2 7 -8
0 -11 40 -50 52 -50 23 0 3 29 -40 56 -55 37 -80 43 -142 35z M410 3074 c-47
-9 -110 -15 -142 -14 -50 1 -80 -11 -65 -27 9 -8 157 -5 232 5 39 6 139 9 224
7 148 -3 201 4 201 28 0 6 -23 7 -60 3 -43 -5 -60 -4 -60 5 0 7 -7 8 -17 4
-19 -7 -119 -8 -188 0 -22 2 -78 -3 -125 -11z M3365 3081 c-8 -14 10 -22 61
-27 59 -7 81 1 64 21 -14 17 -115 21 -125 6z M2963 3073 c-7 -2 -13 -12 -13
-20 0 -12 7 -14 36 -9 63 12 144 -28 165 -81 11 -30 39 -30 39 0 0 59 -161
137 -227 110z M1033 3062 c-52 -4 -56 -19 -9 -27 40 -8 456 1 464 10 19 18
-24 23 -138 15 -69 -5 -159 -6 -200 -2 -41 4 -94 6 -117 4z M1608 3063 c-45
-7 -32 -23 18 -23 32 0 44 4 42 13 -5 14 -20 16 -60 10z M3780 3047 c0 -17 30
-27 83 -27 31 0 38 3 35 18 -4 23 -118 32 -118 9z M51 3034 c0 -11 3 -14 6 -6
3 7 2 16 -1 19 -3 4 -6 -2 -5 -13z M4544 3038 c-11 -18 6 -21 93 -18 126 5
181 5 238 0 39 -3 50 -1 50 10 0 13 -30 15 -188 16 -106 1 -190 -3 -193 -8z
M4106 3031 c-4 -6 1 -14 11 -19 23 -11 148 0 148 13 0 13 -151 19 -159 6z
M2290 3005 c0 -9 16 -22 38 -31 20 -8 46 -19 57 -24 29 -14 189 -34 265 -33
87 1 150 13 150 28 0 18 -20 23 -55 14 -51 -14 -129 -17 -155 -7 -14 6 -48 10
-77 9 -59 -2 -140 16 -163 34 -8 7 -25 16 -37 19 -17 6 -23 3 -23 -9z M2046
2982 c-8 -14 8 -31 46 -46 30 -13 38 -13 47 -2 9 11 3 18 -32 35 -48 23 -54
25 -61 13z M3532 2933 c2 -13 14 -18 43 -19 41 -1 69 12 59 27 -3 5 -28 9 -55
9 -43 0 -50 -3 -47 -17z M905 2920 c5 -15 2 -20 -14 -20 -23 0 -33 -12 -26
-32 8 -20 343 -13 364 7 27 27 1 32 -128 28 -122 -3 -129 -2 -134 17 -4 15
-13 20 -37 20 -27 0 -30 -3 -25 -20z M1302 2924 c-15 -11 -15 -13 -2 -18 38
-12 139 -16 145 -6 11 18 -2 24 -66 30 -41 4 -66 2 -77 -6z M3803 2933 c-7 -2
-13 -11 -13 -19 0 -19 83 -19 99 0 9 11 8 15 -5 20 -18 7 -63 7 -81 -1z M1515
2920 c-12 -19 3 -25 57 -24 39 0 53 4 53 15 0 17 -100 26 -110 9z M4105 2909
c-12 -18 2 -22 77 -20 80 2 108 7 108 22 0 13 -177 12 -185 -2z M4595 2909
c-12 -18 4 -24 60 -22 58 2 79 9 70 24 -8 13 -122 11 -130 -2z M2200 2887 c0
-21 48 -43 62 -29 9 9 7 15 -8 27 -24 18 -54 19 -54 2z M4240 2840 c0 -5 5
-10 11 -10 5 0 7 5 4 10 -3 6 -8 10 -11 10 -2 0 -4 -4 -4 -10z M906 2833 c-11
-11 -6 -23 9 -23 8 0 15 4 15 9 0 13 -16 22 -24 14z M4310 2825 c0 -10 10 -15
28 -16 15 0 47 -1 72 -3 25 -1 53 2 63 7 35 16 4 27 -79 27 -68 0 -84 -3 -84
-15z M3540 2810 c-13 -9 -13 -11 0 -20 28 -18 140 -6 120 13 -12 11 -106 16
-120 7z M3910 2810 c0 -5 16 -10 35 -10 19 0 35 5 35 10 0 6 -16 10 -35 10
-19 0 -35 -4 -35 -10z M4655 2810 c-3 -5 -1 -10 4 -10 6 0 11 5 11 10 0 6 -2
10 -4 10 -3 0 -8 -4 -11 -10z M1049 2806 c-2 -3 -41 -6 -86 -7 -70 -3 -82 -6
-87 -22 -6 -24 15 -31 62 -22 20 4 94 7 165 6 108 -1 127 1 127 14 0 8 -6 15
-12 15 -40 2 -126 11 -144 15 -12 2 -23 3 -25 1z M1272 2798 c7 -20 48 -25
180 -20 102 4 125 7 121 18 -7 19 -307 21 -301 2z M2087 2803 c-13 -12 -7 -20
41 -51 27 -17 59 -45 73 -63 49 -65 57 -74 64 -67 24 23 -51 121 -127 168 -36
22 -41 23 -51 13z M2210 2801 c0 -5 7 -14 15 -21 12 -10 19 -10 28 -1 9 9 9
14 -3 21 -19 12 -40 13 -40 1z M4905 2790 c-9 -15 4 -30 26 -30 12 0 19 7 19
20 0 21 -33 29 -45 10z M2255 2761 c-3 -6 3 -15 14 -21 21 -11 37 2 26 20 -8
13 -32 13 -40 1z M4647 2756 c-7 -18 13 -26 69 -26 32 0 44 4 44 15 0 8 -3 15
-7 16 -5 0 -29 2 -54 5 -35 3 -48 1 -52 -10z M3798 2753 c-10 -2 -18 -9 -18
-14 0 -5 8 -9 18 -10 9 0 38 -2 64 -4 48 -3 75 6 65 22 -6 10 -100 14 -129 6z
M4177 2753 c-18 -18 -1 -24 60 -21 42 2 68 8 71 16 3 9 -14 12 -60 12 -36 0
-68 -3 -71 -7z M2319 2736 c-2 -3 -3 -23 -1 -45 3 -33 8 -41 24 -41 16 0 19 6
16 42 -2 29 -8 44 -18 46 -9 1 -18 1 -21 -2z M2627 2704 c-7 -42 0 -64 19 -64
10 0 14 14 14 50 0 60 -24 71 -33 14z M1233 2717 c-3 -5 -1 -13 5 -19 15 -15
164 0 159 15 -4 14 -155 18 -164 4z M567 2713 c-4 -3 -7 -11 -7 -17 0 -6 5 -5
12 2 6 6 9 14 7 17 -3 3 -9 2 -12 -2z M897 2698 c-9 -5 -9 -10 0 -19 14 -14
96 -2 90 14 -4 13 -71 17 -90 5z M2375 2688 c-15 -45 -25 -100 -20 -108 12
-19 -9 -10 -36 16 -27 26 -49 26 -49 0 0 -7 12 -23 26 -37 30 -28 55 -73 82
-150 10 -30 31 -72 46 -93 14 -22 29 -50 32 -63 4 -13 12 -23 20 -23 24 0 16
51 -17 110 -17 30 -40 80 -51 110 -11 30 -25 61 -31 68 -8 10 -7 16 1 20 6 4
16 37 21 72 14 85 14 90 -4 90 -9 0 -18 -6 -20 -12z M2760 2681 c-5 -11 -10
-24 -10 -30 0 -17 27 -13 34 5 16 41 -4 62 -24 25z M3171 2677 c-5 -7 -10 -42
-9 -78 0 -35 -9 -104 -21 -153 -21 -86 -21 -110 -1 -90 15 15 48 164 55 246 6
76 -2 101 -24 75z M1335 2660 c-10 -11 -14 -20 -9 -20 5 0 15 9 22 20 7 11 11
20 9 20 -2 0 -12 -9 -22 -20z M4420 2666 c0 -14 56 -30 72 -20 19 12 0 28 -35
31 -25 1 -37 -2 -37 -11z M1390 2645 c-13 -14 -21 -27 -18 -30 2 -3 14 9 27
25 26 37 23 39 -9 5z M2488 2654 c-1 -9 -2 -49 0 -90 3 -55 7 -74 18 -74 19 0
26 34 22 110 -2 51 -7 65 -20 68 -9 2 -18 -4 -20 -14z M2555 2648 c-12 -34
-23 -273 -13 -285 5 -7 13 -11 17 -8 11 6 34 250 27 279 -7 27 -24 35 -31 14z
M3846 2652 c-11 -18 12 -27 72 -30 47 -2 62 1 62 12 0 20 -122 37 -134 18z
M1344 2628 l-19 -23 23 19 c21 18 27 26 19 26 -2 0 -12 -10 -23 -22z M2434
2588 c5 -82 4 -78 21 -78 16 0 18 10 16 78 -1 50 -6 62 -26 62 -12 0 -14 -13
-11 -62z M3672 2628 c5 -15 57 -18 61 -3 1 6 -13 11 -32 13 -24 3 -32 0 -29
-10z M4857 2632 c-22 -9 -57 -66 -57 -92 0 -17 -7 -20 -45 -20 -25 0 -45 -4
-45 -10 0 -11 -49 -10 -65 0 -35 24 -72 18 -118 -20 -14 -11 -20 -11 -26 -2
-8 13 -125 21 -137 9 -17 -17 23 -37 79 -39 31 -1 57 -6 57 -10 0 -9 -12 -10
-97 -8 -65 1 -86 -11 -60 -37 11 -11 43 -15 131 -16 64 -1 116 -5 116 -9 0 -4
-9 -12 -20 -18 -25 -13 -26 -37 -2 -44 20 -5 207 -10 309 -8 l72 2 0 105 c1
88 -1 103 -14 99 -8 -4 -15 -11 -16 -18 0 -6 -5 0 -10 13 -9 22 -10 23 -28 7
-17 -16 -19 -16 -23 2 -5 16 4 45 19 62 2 3 13 -6 23 -20 15 -20 20 -22 34
-11 24 20 21 71 -3 71 -11 0 -23 5 -26 10 -7 11 -22 12 -48 2z m-237 -161 c0
-13 -12 -20 -25 -14 -8 2 -11 11 -9 18 6 14 34 10 34 -4z m140 -30 c0 -11 -31
-24 -39 -16 -3 3 1 10 9 15 19 12 30 12 30 1z m103 -58 c-7 -2 -21 -2 -30 0
-10 3 -4 5 12 5 17 0 24 -2 18 -5z M4731 2621 c-8 -5 -10 -14 -7 -20 9 -13 33
-15 40 -2 9 14 -18 31 -33 22z M4180 2575 c0 -13 9 -16 48 -13 26 2 47 8 47
13 0 6 -21 11 -47 13 -39 3 -48 0 -48 -13z M4542 2583 c-44 -6 -30 -23 18 -23
41 0 61 14 34 24 -9 3 -16 5 -17 4 -1 0 -17 -3 -35 -5z M3795 2571 c-9 -15 25
-27 78 -29 34 -1 47 2 47 12 0 22 -112 37 -125 17z M1132 2548 c5 -14 147 -29
162 -17 21 18 -10 29 -85 29 -60 0 -80 -3 -77 -12z M4072 2518 c-11 -13 -24
-36 -27 -51 -7 -25 -11 -27 -47 -25 -24 1 -43 -3 -47 -11 -6 -9 -24 -11 -61
-8 -66 7 -83 1 -70 -23 8 -15 4 -18 -28 -23 -20 -3 -54 -4 -75 -1 -28 3 -39 0
-43 -11 -4 -9 -4 -19 -1 -22 10 -9 79 -15 96 -7 16 6 131 6 222 -1 58 -4 79 6
59 30 -7 9 -22 14 -32 12 -10 -3 -18 -1 -18 4 0 8 14 11 78 14 13 0 27 7 32
15 7 11 14 12 27 5 28 -16 143 -7 150 11 8 21 -16 35 -44 27 -18 -4 -23 -1
-23 14 0 11 -11 32 -25 47 -32 34 -92 36 -123 4z m68 -38 c-19 -13 -30 -13
-30 0 0 6 10 10 23 10 18 0 19 -2 7 -10z M2636 2511 c-11 -17 -10 -81 2 -93
23 -23 38 -2 33 48 -6 45 -22 66 -35 45z M3704 2498 c-11 -18 9 -29 47 -25 50
4 77 27 34 28 -17 0 -40 2 -53 3 -13 2 -25 -1 -28 -6z M2703 2463 c-10 -29 -8
-227 3 -244 3 -6 11 -8 17 -6 16 5 17 277 1 277 -7 0 -16 -12 -21 -27z M2314
2439 c-3 -6 -3 -22 1 -37 4 -15 9 -36 11 -47 7 -45 43 -167 52 -178 5 -7 15
-43 22 -82 28 -166 74 -300 115 -342 8 -7 22 -27 32 -43 18 -30 43 -40 43 -17
0 6 -20 41 -44 77 -44 65 -68 134 -114 330 -11 47 -29 117 -41 155 -11 39 -25
95 -31 127 -10 53 -32 80 -46 57z M4108 2333 c-42 -5 -52 -28 -15 -35 39 -6
92 6 92 22 0 16 -19 19 -77 13z M4220 2325 c-16 -19 -1 -25 62 -25 53 0 78 14
46 25 -32 11 -99 11 -108 0z M3114 2303 c-3 -10 -14 -40 -24 -68 -31 -83 -64
-221 -56 -240 3 -10 9 -16 11 -13 3 3 17 54 31 114 14 60 34 132 44 161 12 32
15 55 9 58 -5 4 -12 -2 -15 -12z M3813 2312 c-13 -2 -23 -7 -23 -12 0 -24 134
-29 143 -5 4 8 3 16 -2 19 -7 5 -79 4 -118 -2z M3187 2293 c-11 -10 -8 -51 4
-59 14 -8 29 14 29 44 0 21 -19 30 -33 15z M4812 2293 c-15 -3 -22 -10 -20
-21 3 -14 19 -18 81 -22 75 -5 77 -4 77 18 0 12 -6 22 -12 23 -7 0 -33 2 -58
3 -25 2 -55 1 -68 -1z M3190 2195 c-14 -16 -6 -35 16 -35 8 0 14 10 14 25 0
28 -12 32 -30 10z M3202 2118 c-17 -17 -15 -38 3 -38 16 0 38 34 28 44 -9 9
-18 7 -31 -6z M2088 2029 c-2 -22 0 -43 4 -45 17 -11 28 9 28 47 0 55 -27 54
-32 -2z M3205 2030 c-17 -18 -17 -20 -1 -26 20 -8 52 19 42 35 -10 16 -21 14
-41 -9z M3212 1974 c-29 -20 -28 -34 2 -34 31 0 51 23 33 38 -10 9 -19 7 -35
-4z M3037 1943 c-4 -3 -7 -14 -7 -24 0 -10 -12 -43 -27 -73 -22 -46 -25 -57
-13 -71 7 -9 17 -12 21 -8 9 9 59 156 59 172 0 12 -23 15 -33 4z M3236 1905
c-49 -17 -65 -32 -43 -41 17 -6 97 24 97 37 0 16 -16 17 -54 4z M1833 1894
c-3 -8 -1 -20 4 -25 12 -12 48 14 39 29 -10 17 -36 15 -43 -4z M2140 1882 c0
-16 38 -44 56 -40 27 5 27 23 -1 36 -30 14 -55 15 -55 4z M2191 1781 c-10 -6
-9 -12 4 -25 20 -20 45 -21 45 -1 0 19 -32 36 -49 26z M3113 1744 c-8 -21 13
-42 28 -27 13 13 5 43 -11 43 -6 0 -13 -7 -17 -16z M1860 1682 c0 -17 49 -54
64 -49 22 9 20 23 -6 41 -24 17 -58 21 -58 8z M3113 1668 c-24 -12 -29 -23
-14 -32 12 -8 84 18 89 32 5 15 -45 15 -75 0z M2197 1664 c-13 -13 13 -42 44
-48 27 -5 30 -8 19 -21 -19 -23 3 -42 58 -49 26 -4 55 -9 65 -12 11 -4 17 0
17 10 0 9 -4 16 -10 16 -5 0 -10 4 -10 9 0 5 15 4 35 -2 19 -6 38 -7 41 -4 14
13 -18 35 -59 41 -41 6 -150 46 -164 60 -8 8 -28 8 -36 0z M2921 1604 c-24
-11 -31 -18 -23 -26 16 -16 76 3 80 25 4 20 -11 21 -57 1z M3128 1605 c-4 -5
-57 -13 -90 -14 -20 -1 -24 -26 -8 -36 6 -4 16 -2 23 3 7 5 21 6 32 2 19 -7
19 -7 0 -17 -11 -6 -45 -16 -75 -23 -30 -7 -108 -25 -172 -41 -128 -32 -158
-35 -175 -18 -15 15 -83 2 -83 -15 0 -9 17 -16 48 -21 84 -11 116 -8 218 23
54 17 119 33 144 36 24 4 72 19 106 36 54 26 61 32 62 60 1 27 -15 40 -30 25z
M2681 1581 c-30 -5 -32 -8 -18 -19 19 -16 110 -6 104 11 -4 13 -41 16 -86 8z
M2790 1532 c-65 -17 -82 -35 -38 -40 32 -3 141 31 146 46 5 16 -29 14 -108 -6z
M2444 1479 c-8 -14 15 -39 37 -39 11 0 19 6 19 13 0 18 -47 40 -56 26z M4748
990 c-45 -6 -63 -14 -88 -39 -21 -21 -30 -37 -25 -50 5 -16 -2 -19 -45 -24
-60 -7 -70 -12 -70 -36 0 -27 26 -44 73 -50 33 -5 42 -10 42 -26 0 -17 -9 -21
-64 -27 -35 -4 -69 -12 -75 -18 -14 -14 10 -36 54 -48 l35 -10 -45 -1 c-60 -1
-117 -18 -124 -36 -8 -22 14 -29 29 -9 11 16 30 20 104 22 l91 4 1 -109 c1
-171 2 -177 22 -181 19 -4 18 -7 21 165 0 56 4 104 7 108 4 3 49 8 100 10 140
7 161 12 157 38 -3 19 -12 23 -58 29 -30 4 -88 5 -128 3 -42 -2 -70 1 -66 6 3
5 41 9 85 9 71 0 80 2 77 17 -3 15 -14 17 -91 14 -82 -3 -87 -2 -87 18 0 20 5
21 109 21 70 0 112 4 117 11 11 19 -19 29 -81 28 -96 -3 -145 0 -145 11 0 6
31 7 81 3 75 -6 81 -5 78 12 -3 16 -15 19 -71 21 -37 1 -72 5 -77 9 -18 11
-12 54 8 65 25 13 131 13 131 0 0 -6 -30 -10 -70 -10 -70 0 -81 -5 -58 -28 26
-26 163 -5 183 28 13 22 -34 62 -68 59 -7 -1 -38 -5 -69 -9z m-114 -155 c-7
-16 -59 -21 -68 -6 -9 14 5 21 40 21 26 0 32 -4 28 -15z m-9 -125 c4 -6 -9
-10 -32 -10 -28 0 -34 3 -23 10 20 13 47 13 55 0z m255 -40 c-8 -5 -40 -9 -70
-9 -47 1 -50 3 -20 8 65 11 106 12 90 1z m-137 -7 c-7 -2 -21 -2 -30 0 -10 3
-4 5 12 5 17 0 24 -2 18 -5z M4742 598 c-15 -15 3 -38 29 -38 24 0 33 18 19
35 -15 18 -32 19 -48 3z"/>
</g>
</svg>
