<?xml version="1.0" standalone="no"?>
<!DOCTYPE svg PUBLIC "-//W3C//DTD SVG 20010904//EN"
 "http://www.w3.org/TR/2001/REC-SVG-20010904/DTD/svg10.dtd">
<svg version="1.0" xmlns="http://www.w3.org/2000/svg"
 width="500.000000pt" height="878.000000pt" viewBox="0 0 500.000000 878.000000"
 preserveAspectRatio="xMidYMid meet">
<metadata>
Created by potrace 1.16, written by Peter Selinger 2001-2019
</metadata>
<g transform="translate(0.000000,878.000000) scale(0.100000,-0.100000)"
fill="#000000" stroke="none">
<path d="M1171 8668 c-43 -58 -85 -137 -96 -181 -7 -26 -1 -48 37 -149 13 -34
60 -64 116 -73 49 -8 53 -21 13 -59 -27 -26 -124 -205 -120 -222 1 -5 -4 -22
-12 -39 -10 -22 -14 -72 -13 -190 l0 -160 42 -93 c23 -51 55 -113 72 -138 16
-25 30 -48 30 -51 0 -18 76 -117 113 -146 100 -82 287 -177 347 -177 21 0 30
-9 47 -42 11 -24 36 -72 54 -108 41 -80 47 -144 24 -264 -23 -125 -79 -228
-140 -257 -16 -8 -35 -26 -42 -40 -7 -15 -29 -39 -49 -54 l-37 -28 -17 23 c-9
13 -30 48 -46 79 -16 31 -40 70 -52 88 -22 30 -23 34 -8 48 23 23 19 106 -4
112 -12 3 -19 19 -23 46 -3 24 -14 49 -25 58 -15 12 -18 19 -9 34 7 13 6 24
-2 36 -12 20 -5 24 127 80 24 11 40 23 37 29 -15 24 -75 6 -228 -69 -89 -43
-173 -81 -187 -84 -14 -4 -63 -29 -108 -57 -46 -27 -87 -50 -91 -50 -5 0 -29
-16 -54 -35 -25 -19 -49 -35 -52 -35 -13 0 -61 58 -57 69 2 6 -2 18 -8 26 -19
23 -5 42 37 48 51 6 152 46 243 96 41 22 83 41 93 41 25 0 87 33 157 83 72 51
129 87 138 87 4 0 16 -19 27 -42 21 -45 57 -67 90 -54 16 6 16 8 2 24 -8 9
-25 43 -37 75 -21 56 -22 57 -60 57 -31 0 -56 -12 -120 -55 -44 -30 -85 -55
-89 -55 -5 0 -14 12 -20 28 -19 45 -38 75 -83 127 -23 27 -60 76 -81 110 -22
33 -48 67 -59 76 -18 14 -19 19 -8 39 13 24 7 88 -11 121 -17 33 -85 69 -128
69 -61 0 -90 -15 -108 -57 -28 -69 -1 -183 43 -183 19 0 37 -40 73 -165 18
-60 38 -121 46 -135 7 -14 21 -54 30 -90 10 -36 22 -70 27 -76 9 -13 -145 -88
-204 -99 -21 -4 -38 -13 -38 -20 0 -7 -7 -15 -15 -19 -12 -4 -10 -13 10 -55
14 -27 25 -51 25 -54 0 -3 13 -19 29 -36 41 -44 77 -42 125 8 21 21 55 47 76
56 37 17 39 17 68 -5 16 -12 39 -39 51 -61 12 -21 28 -39 36 -39 7 0 18 -12
24 -27 6 -16 24 -46 39 -68 16 -22 37 -62 47 -89 10 -28 28 -59 40 -70 12 -12
56 -87 98 -168 42 -81 85 -160 96 -175 11 -15 23 -42 26 -59 2 -17 24 -67 48
-110 24 -43 86 -162 139 -264 107 -209 168 -319 242 -434 34 -53 49 -87 48
-107 -4 -45 14 -43 69 8 70 66 120 144 126 196 5 40 3 43 -28 57 -27 12 -43
34 -91 129 -32 62 -71 134 -86 160 -51 80 -182 350 -174 355 15 9 196 -23 270
-48 83 -29 181 -85 200 -115 7 -12 21 -21 31 -21 11 0 23 -6 28 -12 11 -19 11
-850 0 -866 -33 -43 77 -25 156 25 47 30 157 136 157 152 0 6 0 14 0 19 0 4
-12 7 -25 7 l-25 0 -4 305 c-3 168 -7 312 -11 321 -4 12 5 22 37 39 24 12 58
36 78 53 42 37 166 95 242 113 120 28 278 23 278 -9 0 -7 -12 -32 -26 -57 -14
-25 -46 -85 -72 -135 -114 -227 -266 -475 -289 -475 -21 0 -15 -32 11 -65 23
-29 26 -29 127 -33 79 -3 113 0 142 12 38 16 47 31 25 38 -8 3 2 30 31 79 75
127 99 174 111 217 6 23 15 42 20 42 5 0 12 10 16 23 4 12 17 36 29 52 25 34
60 100 105 199 l31 68 27 -23 c127 -111 175 -167 212 -246 66 -141 74 -189 73
-428 -2 -256 -21 -416 -61 -518 -16 -39 -44 -121 -62 -182 -31 -109 -97 -266
-132 -317 -10 -14 -18 -29 -18 -32 0 -8 -142 -222 -170 -256 -11 -14 -57 -70
-102 -125 -45 -55 -103 -122 -129 -150 -26 -27 -73 -81 -105 -118 -32 -37 -88
-90 -124 -117 -36 -28 -94 -75 -130 -105 -40 -34 -74 -55 -90 -55 -36 0 -199
83 -313 159 -54 36 -112 75 -130 86 -37 22 -108 78 -234 184 -123 103 -453
440 -499 509 -21 31 -55 82 -76 113 -21 32 -41 65 -45 75 -3 11 -18 37 -32 59
-80 127 -127 240 -146 353 -18 104 -35 164 -51 183 -8 9 -12 18 -9 21 3 2 0
41 -5 86 -13 99 -15 271 -6 332 39 240 168 443 334 526 28 14 52 30 52 34 0
23 -28 18 -97 -16 -125 -63 -219 -162 -286 -302 l-32 -67 -72 6 c-76 6 -113
25 -113 60 0 10 -9 33 -20 52 l-20 34 -68 -4 c-49 -3 -74 0 -92 11 -14 9 -32
18 -40 21 -8 4 -23 24 -32 46 -15 36 -16 43 -2 63 8 13 12 31 8 40 -3 9 -2 17
2 17 5 1 21 3 36 5 46 5 114 40 148 75 42 43 70 89 70 113 0 10 17 35 38 56
l39 37 82 -20 c73 -18 94 -19 178 -10 113 12 134 26 103 66 -17 21 -25 25 -44
18 -12 -5 -60 -11 -107 -14 -81 -5 -131 2 -229 32 -49 15 -63 14 -56 -5 9 -23
-10 -52 -36 -56 -18 -2 -27 -15 -38 -51 -27 -84 -123 -157 -208 -157 -13 0
-35 -12 -49 -26 -36 -36 -97 -56 -170 -57 -82 -1 -134 26 -230 120 l-74 73 3
-48 c2 -26 8 -46 14 -45 6 1 42 -29 81 -66 97 -93 146 -116 248 -116 44 0 90
4 102 8 21 8 22 6 16 -30 -4 -21 -12 -42 -19 -48 -15 -11 -40 -81 -54 -152
-17 -84 -70 -364 -90 -478 -26 -147 -85 -466 -110 -590 -39 -196 -61 -322 -79
-460 -24 -174 -48 -316 -71 -420 -10 -44 -19 -107 -19 -139 -1 -32 -3 -62 -5
-65 -2 -3 -7 -33 -10 -65 -4 -32 -9 -63 -13 -68 -8 -14 -17 -204 -9 -197 4 4
9 22 11 40 5 41 17 103 46 229 11 52 25 124 30 159 5 35 17 107 28 160 22 110
48 270 56 351 8 84 21 170 35 219 6 25 15 65 20 90 19 109 32 171 50 246 11
44 24 112 29 150 6 39 21 124 35 190 14 66 32 161 41 210 9 50 26 137 36 195
40 216 62 305 80 325 17 17 20 17 31 4 29 -35 53 -44 131 -49 l82 -5 2 -34 c4
-47 26 -77 73 -101 49 -25 67 -25 131 -1 46 18 50 18 44 3 -14 -37 -35 -128
-35 -153 0 -14 -7 -46 -15 -69 -26 -75 -14 -185 46 -397 11 -40 27 -112 34
-160 11 -66 26 -112 61 -183 53 -107 156 -289 191 -336 13 -17 23 -34 23 -39
0 -31 393 -454 548 -589 39 -33 42 -39 29 -54 -7 -9 -31 -46 -52 -82 -21 -36
-73 -117 -115 -180 -271 -408 -484 -796 -517 -943 -16 -70 -16 -71 7 -89 60
-48 147 8 255 167 27 39 65 90 85 115 20 25 47 63 60 85 31 52 76 107 66 80
-19 -49 -67 -263 -91 -400 -49 -285 -103 -537 -192 -895 -8 -36 -31 -119 -49
-185 -33 -117 -44 -205 -24 -205 5 0 12 12 16 28 3 15 10 43 15 62 31 114 99
390 103 415 2 17 6 37 9 45 19 51 39 128 57 220 11 58 31 159 45 225 14 66 22
127 20 136 -3 10 -1 20 5 24 5 3 10 18 10 32 0 14 7 55 15 92 8 36 22 104 31
151 8 46 18 89 22 95 4 5 8 18 9 28 2 10 17 59 34 109 20 59 27 94 21 100 -13
13 67 170 107 213 16 17 36 45 45 63 9 17 18 32 20 32 5 0 -16 -92 -44 -191
-30 -108 -57 -242 -74 -371 -9 -62 -23 -147 -31 -188 -47 -239 -58 -293 -71
-375 -8 -49 -17 -99 -19 -110 -2 -11 -11 -63 -19 -116 -9 -53 -18 -103 -21
-110 -2 -8 -9 -52 -15 -98 -17 -146 -101 -578 -151 -776 -25 -103 -29 -170
-10 -170 18 0 25 27 51 170 11 61 27 142 35 180 9 39 18 90 21 115 8 80 12
104 23 135 11 34 50 253 82 460 20 133 45 276 75 430 55 288 71 381 77 451 6
64 43 231 77 344 25 85 49 191 59 260 5 39 20 74 49 120 23 36 56 89 73 118
17 30 35 50 40 45 4 -4 -2 -55 -15 -113 -13 -58 -27 -125 -31 -150 -4 -25 -15
-79 -25 -120 -15 -66 -32 -165 -70 -435 -5 -38 -17 -137 -25 -220 -8 -82 -17
-159 -19 -170 -3 -11 -10 -60 -15 -110 -14 -115 -27 -187 -64 -355 -56 -258
-68 -340 -48 -340 10 0 23 51 51 200 19 103 28 147 61 298 5 23 9 64 9 90 0
26 7 76 14 112 8 36 19 115 25 175 18 163 41 344 52 395 5 25 20 117 34 205
37 236 49 297 92 483 3 12 10 22 16 22 13 0 114 -67 123 -81 3 -6 22 -17 40
-25 l34 -14 2 -98 c0 -53 0 -313 -1 -577 -1 -268 2 -535 8 -605 6 -69 13 -159
16 -200 9 -116 26 -190 48 -211 26 -24 27 -24 68 4 55 37 62 64 66 237 9 461
14 603 19 611 3 5 5 173 5 373 l-1 363 26 12 c14 6 64 41 111 78 83 64 85 65
103 47 36 -39 179 -262 231 -363 30 -57 65 -116 79 -131 14 -16 26 -34 28 -41
2 -7 24 -42 49 -78 24 -35 65 -103 91 -150 60 -115 150 -240 184 -257 48 -25
81 -14 107 34 15 29 -3 120 -25 129 -8 3 -14 13 -14 22 0 10 -6 26 -14 36 -8
11 -12 25 -9 31 5 15 -24 73 -87 174 -25 41 -66 113 -89 160 -24 47 -74 138
-112 202 -38 64 -69 119 -69 121 0 3 -20 40 -44 83 l-44 79 24 90 c27 103 28
108 13 103 -13 -4 -33 -62 -44 -122 l-7 -40 -30 52 c-17 30 -27 59 -24 70 3
10 58 74 121 142 127 139 151 170 268 351 45 69 98 145 118 170 20 24 53 76
73 116 19 39 40 74 45 78 10 6 42 71 94 190 24 57 43 123 53 190 3 17 12 63
20 103 20 101 30 433 15 497 -6 28 -13 72 -16 98 -7 56 -29 131 -71 236 -26
68 -40 85 -147 192 -80 80 -123 116 -134 112 -18 -7 63 157 112 227 17 25 50
80 74 123 24 43 58 92 75 110 18 18 36 45 40 62 4 16 16 35 27 43 11 8 18 19
16 25 -2 7 7 20 20 30 28 22 58 74 58 102 0 12 8 21 20 23 11 2 25 10 31 18
10 13 21 10 70 -22 85 -54 98 -68 80 -83 -8 -6 -17 -24 -21 -39 -4 -15 -29
-74 -57 -132 -27 -58 -72 -161 -99 -230 -27 -69 -53 -132 -58 -140 -5 -9 -12
-35 -16 -59 -6 -37 -5 -42 10 -39 11 2 26 31 45 83 70 201 97 266 219 513 8
17 23 32 33 32 9 0 20 5 23 10 3 6 15 10 26 10 12 0 24 11 30 28 7 15 15 36
19 47 5 11 11 35 14 53 5 30 3 33 -34 48 -22 9 -40 19 -40 23 0 3 15 16 34 29
18 12 41 38 51 56 12 21 28 36 44 39 14 3 34 9 45 13 17 7 17 6 3 -17 -8 -13
-21 -48 -28 -77 -11 -46 -11 -59 3 -97 14 -37 15 -46 3 -52 -34 -20 -107 -215
-88 -234 13 -13 14 -13 53 88 18 45 42 91 54 102 l22 21 34 -28 c19 -16 43
-31 53 -35 11 -4 17 -17 17 -40 0 -18 7 -42 15 -53 8 -10 15 -22 15 -25 0 -3
-34 -9 -75 -12 -179 -13 -352 -125 -421 -272 -30 -64 -40 -126 -24 -155 11
-20 9 -26 -15 -47 -15 -15 -24 -31 -21 -40 3 -8 6 -16 6 -19 0 -2 7 -1 15 2
28 11 15 -14 -14 -26 -42 -17 -76 -109 -68 -189 8 -92 66 -183 138 -217 29
-14 47 -32 64 -66 27 -51 81 -99 165 -145 107 -58 220 -83 345 -76 88 5 148
21 243 64 59 27 62 31 62 64 0 26 -3 33 -15 29 -8 -4 -15 -10 -15 -15 0 -11
-50 -32 -58 -25 -3 3 8 11 24 17 16 6 23 13 17 16 -7 3 -30 -6 -50 -19 -53
-32 -112 -58 -134 -58 -10 0 -19 -3 -19 -7 0 -10 -122 -9 -175 2 -66 12 -204
82 -262 131 -42 36 -54 52 -53 73 3 44 1 46 -43 58 -72 20 -129 84 -142 160
-16 96 11 200 55 215 9 3 9 10 -1 32 -12 25 -11 29 9 44 19 15 21 23 16 68
-11 85 25 175 98 246 89 88 151 113 294 122 68 3 124 25 124 48 0 5 -7 20 -16
33 -15 23 -16 58 -3 105 3 11 -4 14 -29 12 -80 -6 -132 68 -132 187 0 65 23
105 92 156 59 45 63 76 7 56 -27 -9 -30 -9 -19 4 7 8 45 25 84 36 112 34 240
118 303 200 43 54 44 58 41 120 l-3 63 -28 -57 c-78 -160 -197 -249 -411 -307
-53 -15 -63 -21 -78 -52 -9 -20 -34 -50 -55 -67 -32 -27 -45 -31 -83 -29 -44
3 -45 2 -45 -27 0 -37 -38 -93 -69 -101 -13 -3 -40 2 -61 10 -21 9 -46 16 -56
16 -35 0 -35 45 1 90 59 75 132 287 114 333 -4 11 7 21 39 35 51 23 75 53 84
105 11 70 -53 132 -148 143 -69 8 -100 -9 -123 -67 -20 -49 -20 -80 -1 -105
18 -24 19 -35 2 -28 -19 7 -53 -36 -147 -181 -46 -71 -90 -136 -96 -142 -7 -7
-14 -18 -16 -24 -5 -14 -81 27 -170 93 -70 52 -95 57 -113 23 -6 -11 -18 -31
-27 -45 -9 -14 -20 -42 -23 -62 -7 -37 -7 -37 37 -48 23 -7 73 -28 111 -48 61
-33 67 -38 67 -68 0 -22 -5 -33 -18 -36 -11 -3 -23 -23 -32 -49 -7 -24 -17
-48 -22 -53 -4 -6 -8 -20 -8 -32 0 -12 -7 -24 -15 -28 -10 -3 -15 -19 -15 -43
0 -21 -7 -48 -15 -59 -8 -12 -12 -24 -9 -27 10 -9 45 5 54 23 10 19 44 17 56
-2 7 -10 -8 -44 -37 -88 -26 -40 -211 -384 -277 -515 -26 -53 -119 -215 -159
-279 -14 -21 -53 -93 -87 -160 -35 -66 -79 -151 -99 -188 -21 -37 -37 -76 -37
-87 0 -14 -9 -23 -24 -27 -55 -13 -60 20 -13 78 44 56 137 222 272 492 63 126
119 234 123 240 5 6 35 67 66 136 32 69 87 178 122 244 36 65 63 121 60 123
-18 18 -184 -262 -173 -292 3 -7 -1 -16 -9 -19 -8 -3 -18 -14 -22 -23 -4 -10
-27 -55 -50 -101 -31 -60 -46 -81 -55 -74 -32 24 -217 4 -352 -38 -83 -26
-223 -104 -263 -146 -19 -20 -36 -33 -39 -30 -6 6 -10 681 -4 854 3 94 7 122
17 122 8 0 14 -8 14 -18 0 -9 20 -52 45 -94 85 -146 205 -200 388 -177 45 6
114 8 153 5 70 -5 114 0 114 13 0 4 -45 15 -99 25 -95 18 -101 18 -145 1 -123
-47 -278 27 -338 162 -10 23 -23 45 -28 48 -5 3 -6 20 -3 38 7 44 -14 61 -70
55 l-42 -5 0 111 c0 91 3 113 16 123 19 14 31 61 18 69 -13 8 -11 44 2 44 8 0
10 16 6 50 -4 29 -2 50 3 50 5 0 12 11 16 25 3 14 8 25 10 25 27 0 200 -57
221 -72 17 -13 50 11 65 46 14 36 12 175 -4 194 -9 10 -27 12 -67 8 -88 -10
-265 -11 -279 -2 -10 6 -10 11 -1 22 24 29 -19 344 -51 378 -5 5 4 19 19 32
16 14 34 43 41 69 12 42 11 47 -13 78 -44 58 -125 82 -191 57 -14 -5 -37 -27
-52 -50 -23 -34 -26 -47 -20 -88 4 -34 13 -53 32 -68 21 -17 24 -25 16 -40 -6
-11 -13 -39 -16 -64 -3 -25 -13 -96 -22 -159 -9 -62 -13 -127 -10 -143 l6 -30
-53 6 c-28 4 -65 9 -82 11 -16 3 -57 8 -89 11 -58 7 -59 7 -53 -16 3 -13 1
-32 -4 -43 -11 -20 -4 -143 10 -165 9 -15 81 -27 81 -13 0 6 11 11 23 11 13 0
45 6 70 14 l47 14 15 -31 c8 -16 15 -36 15 -44 0 -8 7 -27 15 -43 15 -28 14
-30 -5 -30 -15 0 -20 -7 -20 -25 0 -14 4 -25 9 -25 5 0 9 -10 10 -22 0 -13 3
-43 7 -68 5 -37 4 -43 -7 -32 -18 16 -54 15 -90 -4 -22 -11 -43 -13 -72 -9
-97 15 -175 74 -197 149 -26 87 -22 83 -102 90 -84 8 -178 26 -193 37 -5 4
-29 12 -53 19 -24 6 -68 28 -99 48 -31 20 -66 44 -79 52 -12 8 -34 29 -48 45
-111 135 -125 156 -155 235 -18 47 -42 107 -53 134 -29 72 -28 217 2 306 12
36 23 70 24 75 8 47 49 127 85 167 32 36 42 54 38 71 -5 18 2 25 36 42 23 11
44 28 46 39 3 18 -2 18 -62 12 -78 -8 -134 10 -171 55 -44 52 -42 77 9 176 43
81 73 118 122 150 15 10 11 12 -29 12 -46 1 -49 -1 -87 -51z m1324 -758 c31
-49 32 -84 3 -127 -29 -42 -72 -45 -117 -7 -46 38 -43 84 8 135 50 50 74 50
106 -1z m-5 -251 c0 -16 7 -54 16 -86 12 -48 18 -145 13 -223 -1 -8 0 -22 2
-30 3 -11 -7 -16 -39 -18 -28 -2 -42 0 -38 7 4 5 -3 15 -14 21 -26 14 -26 30
0 30 11 0 20 5 20 10 0 6 -7 10 -15 10 -18 0 -20 16 -2 23 6 3 -6 3 -27 0 -28
-5 -37 -3 -32 5 4 7 20 12 37 12 19 0 29 5 29 15 0 16 -39 36 -52 28 -5 -2 -8
1 -8 6 0 6 11 11 25 11 32 0 36 39 5 47 -11 3 -20 12 -20 19 0 8 9 14 20 14
24 0 28 38 5 46 -22 9 -18 31 5 37 24 6 27 37 4 37 -24 0 -11 24 17 31 29 8
49 -13 49 -52z m-1567 -271 c36 -42 10 -104 -51 -123 -29 -8 -97 35 -106 68
-6 26 17 65 47 77 32 14 89 2 110 -22z m3282 -73 c41 -30 52 -70 29 -96 -9
-11 -21 -19 -25 -19 -5 0 -25 -11 -45 -25 -20 -14 -40 -25 -43 -25 -3 0 -14
17 -23 38 -22 46 -26 115 -9 136 20 24 79 20 116 -9z m-1895 -56 c107 -10 503
-5 535 7 9 4 14 -13 17 -58 3 -35 3 -66 -1 -70 -3 -4 -53 5 -111 20 -99 25
-119 26 -340 26 -194 0 -243 -3 -280 -17 -24 -9 -45 -15 -46 -14 -2 2 -6 106
-5 120 1 5 27 6 59 3 31 -3 109 -11 172 -17z m-1342 -81 c15 -23 31 -47 37
-54 7 -10 4 -17 -9 -27 -15 -11 -16 -15 -3 -25 11 -10 17 -9 27 3 10 12 15 13
21 3 5 -8 -2 -16 -22 -25 -16 -6 -29 -19 -29 -28 0 -19 11 -19 55 -1 37 16 41
14 68 -40 14 -28 14 -31 -4 -42 -10 -7 -19 -19 -19 -28 0 -12 7 -14 33 -9 l32
6 -32 -26 c-39 -31 -45 -59 -10 -50 12 3 -4 -8 -36 -25 -32 -17 -61 -28 -66
-26 -5 3 -11 28 -15 55 -3 27 -17 70 -31 95 -13 25 -25 48 -25 51 0 3 -2 16
-6 30 -3 14 -1 31 4 38 13 15 -1 42 -17 33 -16 -10 -13 10 3 24 20 16 9 42
-15 35 -23 -8 -24 1 -4 22 18 17 11 33 -13 33 -12 1 -10 5 8 14 30 17 34 15
68 -36z m1590 -52 c3 -14 -4 -16 -60 -12 -35 3 -84 5 -110 6 -87 0 -50 16 44
18 51 2 94 5 97 8 9 9 26 -3 29 -20z m1526 -6 c20 0 12 -66 -21 -175 -22 -71
-94 -215 -108 -215 -6 0 -30 9 -53 20 -22 11 -47 20 -55 20 -8 0 -20 7 -27 15
-11 14 -10 14 14 5 15 -5 36 -15 47 -20 11 -6 24 -8 29 -5 13 8 -21 45 -42 45
-23 0 -33 19 -13 26 9 4 24 -1 34 -10 22 -20 51 -21 51 -1 0 8 -6 15 -13 15
-16 0 -53 38 -45 45 3 3 11 -1 18 -10 13 -15 50 -21 50 -8 0 4 -12 18 -27 31
l-28 24 38 -7 c41 -8 51 7 16 25 -12 7 -18 18 -15 26 11 28 71 103 84 104 6 0
12 11 12 23 0 29 9 39 28 32 7 -3 19 -5 26 -5z m-1581 -49 l38 -1 -3 -47 c-3
-44 -5 -48 -28 -46 -14 1 -55 3 -91 4 l-65 2 -1 33 c-1 19 3 34 8 34 5 0 9 7
9 15 0 11 11 13 48 10 26 -2 64 -4 85 -4z m-642 -99 c-33 -62 117 -231 206
-232 31 0 34 -11 18 -71 -8 -30 -33 -126 -54 -214 -56 -227 -108 -425 -120
-458 -20 -53 11 -66 33 -14 16 37 78 268 102 377 8 41 17 83 19 92 6 28 55
210 66 246 6 17 17 32 25 32 8 0 29 7 45 16 23 11 34 12 44 4 10 -8 19 -8 34
-1 41 22 43 -2 43 -541 0 -323 -4 -514 -10 -520 -7 -7 -26 0 -56 21 -62 43
-126 69 -221 90 -98 23 -241 34 -265 21 -15 -8 -28 11 -99 150 -44 88 -81 164
-81 170 0 6 24 21 54 34 33 15 57 32 61 45 3 12 22 32 42 45 44 30 91 96 128
178 26 59 28 72 29 198 l1 135 -39 75 c-21 41 -47 87 -58 102 l-18 27 27 4
c54 8 54 8 44 -11z m661 -38 c4 -3 8 -12 8 -21 0 -11 -6 -14 -22 -9 -13 3 -51
6 -86 6 -46 0 -63 3 -60 12 3 7 15 16 29 20 24 7 115 1 131 -8z m1057 -61 c28
-21 67 -46 88 -57 21 -10 46 -22 56 -28 130 -67 237 -118 247 -118 8 0 21 -6
29 -14 22 -19 194 -96 214 -96 10 0 17 -2 17 -5 0 -4 -40 -86 -46 -94 -2 -2
-32 14 -66 37 -35 22 -84 51 -110 65 -26 14 -75 44 -110 66 -35 22 -106 58
-158 81 -52 23 -126 57 -164 76 -39 19 -76 34 -83 34 -18 0 -16 11 7 40 11 14
20 31 20 38 0 18 5 16 59 -25z m-1155 -73 c4 -33 4 -65 0 -72 -4 -6 -5 -65 -4
-132 2 -67 4 -157 3 -201 0 -44 -1 -197 -2 -340 -2 -143 2 -291 7 -330 6 -40
8 -169 5 -300 -3 -126 -4 -239 -3 -250 1 -11 3 -94 4 -185 1 -91 4 -171 7
-178 2 -7 -16 -30 -39 -50 l-44 -36 3 144 c2 80 2 293 1 474 -1 180 1 332 4
338 11 17 -2 961 -14 1048 -4 31 -3 71 2 93 9 31 14 37 37 37 25 0 27 -3 33
-60z m93 -516 c1 -313 4 -706 6 -874 2 -168 2 -365 -1 -439 -5 -128 -6 -133
-22 -111 -14 19 -17 59 -18 328 -1 169 -7 390 -13 492 -7 113 -8 279 -4 425 3
132 8 344 9 470 3 231 9 289 29 282 7 -2 12 -181 14 -573z m-1207 416 c0 -12
-44 -36 -135 -73 -38 -15 -75 -33 -82 -38 -7 -6 -17 -8 -23 -4 -16 10 56 52
139 82 36 13 70 28 75 33 13 13 26 13 26 0z m2470 -55 c19 -11 56 -32 83 -45
29 -16 47 -32 47 -42 0 -23 3 -23 -61 10 -30 16 -75 37 -101 47 -31 12 -48 24
-48 35 0 35 17 34 80 -5z m-2451 -17 c26 -71 25 -73 -37 -106 -68 -36 -129
-54 -138 -41 -3 5 -10 7 -15 4 -10 -7 -33 44 -24 54 5 5 81 46 203 110 1 0 6
-9 11 -21z m2462 -74 c38 -19 69 -39 69 -45 0 -7 -15 -28 -34 -49 -18 -20 -35
-43 -37 -49 -3 -8 -33 1 -91 29 -83 40 -87 43 -74 64 8 11 19 38 26 59 11 36
14 38 42 32 16 -4 61 -22 99 -41z m-2406 -54 c10 -17 -14 -50 -43 -56 -15 -4
-36 -12 -48 -19 -29 -18 -94 -30 -94 -17 0 5 8 12 18 16 9 3 46 24 82 46 70
43 76 45 85 30z m2299 -96 c72 -34 94 -54 62 -54 -8 0 -41 16 -73 35 -32 19
-64 35 -70 35 -7 0 -13 5 -13 10 0 16 13 12 94 -26z m-2283 -36 c7 -18 29 -60
49 -93 20 -33 101 -186 180 -340 80 -154 162 -314 183 -355 22 -41 54 -102 73
-135 18 -33 60 -114 93 -180 33 -66 69 -136 82 -156 15 -26 20 -45 15 -63 -8
-32 -18 -33 -32 -3 -6 12 -36 72 -67 134 -31 61 -57 116 -57 123 0 17 -39 90
-81 150 -21 30 -41 69 -45 85 -10 43 -138 287 -194 370 -26 39 -66 106 -88
150 -58 114 -112 231 -112 240 0 5 -6 16 -14 24 -13 15 -20 41 -17 69 2 23 18
12 32 -20z m-101 -10 c0 -29 216 -458 267 -531 24 -33 43 -67 43 -74 0 -7 15
-36 33 -65 19 -29 44 -75 57 -103 13 -27 38 -70 54 -95 36 -53 49 -75 78 -133
12 -23 34 -61 50 -84 15 -23 32 -52 37 -65 5 -13 23 -53 40 -91 17 -37 31 -74
31 -83 0 -31 20 -55 41 -49 18 6 18 5 -2 -30 -21 -36 -21 -36 -34 -13 -6 13
-26 46 -43 73 -17 28 -40 70 -51 93 -12 24 -40 74 -64 110 -24 37 -81 141
-126 231 -91 181 -101 199 -117 221 -6 8 -42 76 -80 150 -38 74 -72 137 -75
140 -4 3 -28 47 -54 99 -26 51 -69 134 -96 184 -27 49 -49 93 -49 96 0 6 38
27 53 30 4 0 7 -4 7 -11z m2417 -77 c-17 -19 -147 -237 -147 -246 0 -4 -11
-21 -23 -38 -13 -18 -35 -54 -49 -82 -14 -27 -34 -66 -44 -85 -32 -65 -37 -75
-104 -205 -36 -71 -81 -154 -99 -184 -18 -30 -59 -110 -91 -178 -32 -67 -67
-135 -77 -150 -11 -16 -26 -44 -33 -63 -18 -44 -26 -50 -77 -50 l-41 0 50 88
c28 48 96 177 152 287 56 110 128 240 160 289 32 49 71 118 87 153 16 35 47
96 71 136 23 39 57 103 75 140 18 37 53 99 78 136 25 38 45 72 45 78 0 5 5 14
12 21 8 8 18 6 40 -10 26 -18 28 -22 15 -37z m-1637 -3059 c-2 -24 -161 -293
-219 -372 -65 -88 -77 -105 -121 -185 -18 -33 -48 -81 -66 -108 -19 -26 -34
-49 -34 -52 0 -9 -101 -153 -120 -170 -11 -10 -20 -22 -20 -27 0 -9 -36 -60
-89 -126 -23 -28 -40 -41 -50 -37 -9 3 -12 3 -9 -1 11 -10 -20 -64 -35 -61
-26 5 -26 48 0 110 15 34 32 69 39 77 13 16 37 62 123 240 28 58 64 123 81
145 16 22 37 54 46 70 31 55 255 401 274 422 6 7 27 41 47 75 55 96 49 93 104
47 27 -22 49 -44 49 -47z m960 -50 c0 -11 47 -102 132 -252 14 -25 49 -90 78
-145 29 -55 62 -118 75 -140 26 -46 125 -234 196 -375 45 -88 60 -143 42 -153
-14 -8 -43 8 -61 34 -9 15 -31 45 -49 68 -18 24 -40 64 -49 89 -10 26 -25 56
-34 67 -10 11 -24 32 -31 47 -25 48 -72 122 -101 159 -15 20 -28 41 -28 46 0
6 -13 29 -30 51 -16 23 -30 46 -30 51 0 18 -53 116 -82 151 -15 19 -28 40 -28
46 0 7 -3 14 -7 16 -12 5 -62 111 -69 146 -4 22 -12 32 -24 32 -36 0 -29 29
18 78 l47 48 17 -25 c10 -15 18 -32 18 -39z m-497 -385 c-1 -100 -5 -333 -8
-517 -3 -184 -6 -441 -7 -570 -1 -194 -4 -240 -17 -262 -19 -34 -27 -35 -35
-5 -13 50 -19 187 -7 187 6 0 11 5 11 11 0 6 -6 9 -14 6 -10 -4 -15 15 -21 86
-9 106 -16 1182 -8 1243 l5 41 52 -19 52 -19 -3 -182z M1042 6978 c2 -17 9
-22 23 -20 45 8 44 42 -1 42 -21 0 -25 -4 -22 -22z M3966 6986 c7 -19 48 -22
42 -3 -3 6 -14 13 -26 15 -16 3 -20 -1 -16 -12z M1895 6253 c-26 -117 -82
-346 -90 -365 -5 -14 -2 -18 14 -18 24 0 51 50 51 93 0 13 4 27 9 33 5 5 17
47 26 94 9 47 21 108 27 135 16 78 15 99 -4 103 -13 2 -20 -13 -33 -75z M2083
6247 c-6 -6 -17 -39 -25 -72 -9 -33 -32 -123 -52 -199 -26 -97 -34 -142 -26
-150 17 -17 27 4 59 129 17 66 37 137 45 156 31 75 30 177 -1 136z M4608 8713
c18 -2 45 -2 60 0 15 2 0 4 -33 4 -33 0 -45 -2 -27 -4z M2570 8660 c0 -5 5
-10 11 -10 5 0 7 5 4 10 -3 6 -8 10 -11 10 -2 0 -4 -4 -4 -10z M2475 8620
c-38 -4 -116 -8 -172 -9 -92 -1 -103 -3 -113 -21 -6 -12 -8 -29 -5 -40 5 -16
13 -18 55 -13 l50 6 -2 -72 c-2 -75 -17 -99 -50 -86 -17 7 -40 -36 -29 -54 6
-9 15 -9 35 -1 16 6 45 10 65 11 37 0 361 8 372 9 9 0 17 32 12 48 -3 6 -18
12 -33 12 -36 0 -40 7 -46 73 -6 67 3 81 42 67 24 -9 31 -8 41 6 46 62 -29 84
-222 64z m70 -134 c0 -61 -3 -76 -16 -79 -33 -9 -41 8 -38 74 4 77 4 79 32 79
21 0 22 -5 22 -74z m-134 42 c1 -13 3 -42 4 -66 3 -38 0 -44 -22 -53 -13 -5
-28 -9 -33 -9 -11 0 -11 96 0 126 12 32 49 33 51 2z M4041 6411 c-11 -21 -39
-85 -61 -142 -22 -57 -49 -124 -59 -149 -11 -25 -34 -81 -52 -125 -17 -44 -42
-102 -54 -130 -37 -80 -105 -253 -105 -265 0 -23 44 -5 50 20 4 14 16 45 28
70 11 25 29 68 40 95 40 103 84 211 93 230 17 38 70 170 90 225 11 30 34 82
51 116 29 57 33 94 9 94 -6 0 -20 -18 -30 -39z M4364 6384 c-8 -19 -12 -39 -9
-44 11 -19 36 -10 45 16 14 36 12 51 -6 58 -11 4 -19 -4 -30 -30z M3450 6372
c-8 -3 -26 -9 -40 -15 -29 -12 -25 -11 -67 -21 -36 -8 -42 -20 -17 -30 60 -23
191 30 152 61 -7 6 -20 8 -28 5z M3885 6307 c-24 -37 -198 -488 -210 -545 -6
-29 -4 -33 10 -30 16 3 85 144 85 173 0 6 9 28 20 50 11 22 20 46 20 55 0 9 4
20 9 26 5 5 23 47 40 94 18 47 38 98 46 113 29 56 11 111 -20 64z M3049 6203
c-24 -62 -78 -230 -84 -263 -7 -31 -6 -33 9 -21 8 7 20 27 25 45 5 17 25 76
46 131 51 139 50 135 31 135 -9 0 -21 -12 -27 -27z M2844 6203 c-3 -10 -10
-29 -14 -43 -5 -14 -17 -56 -26 -95 -9 -38 -34 -119 -56 -179 -21 -60 -36
-111 -34 -114 14 -13 35 13 58 74 32 85 58 168 58 186 0 7 13 47 29 88 20 53
26 79 19 88 -15 17 -28 15 -34 -5z M2870 5984 c-16 -47 -19 -69 -11 -77 8 -8
15 0 26 29 8 21 22 52 30 67 16 31 13 47 -10 47 -8 0 -23 -28 -35 -66z M606
5408 c-7 -13 -16 -47 -19 -77 -4 -29 -15 -92 -26 -140 -11 -47 -27 -129 -36
-181 -25 -139 -61 -323 -101 -504 -33 -151 -64 -354 -64 -423 0 -26 3 -30 20
-26 11 3 20 6 20 7 0 1 4 27 10 57 5 30 11 77 14 104 5 45 15 107 31 190 3 17
10 44 15 60 8 27 35 158 76 370 7 39 18 102 24 140 7 39 16 84 21 101 5 17 9
40 9 51 0 11 11 54 24 94 31 100 41 166 25 185 -16 20 -26 18 -43 -8z M325
5353 c-4 -10 -9 -27 -11 -38 -2 -11 -10 -47 -18 -80 -7 -33 -17 -82 -20 -110
-3 -27 -11 -70 -16 -95 -6 -25 -19 -108 -30 -185 -11 -77 -25 -165 -31 -195
-7 -30 -13 -62 -14 -70 -1 -8 -12 -62 -24 -120 -27 -133 -32 -163 -38 -227 -3
-29 -9 -53 -14 -53 -5 0 -9 -32 -9 -71 0 -50 -3 -68 -11 -63 -7 4 -10 2 -8 -5
3 -7 8 -12 13 -11 5 1 12 -3 16 -10 11 -18 42 109 81 335 5 33 16 87 24 120 7
33 23 116 35 185 21 128 41 228 65 335 24 107 58 344 52 360 -8 20 -33 19 -42
-2z M935 5249 c-9 -13 -31 -116 -50 -229 -8 -47 -22 -119 -30 -160 -35 -180
-47 -253 -66 -380 -10 -74 -25 -169 -34 -210 -8 -41 -21 -113 -29 -160 -14
-81 -54 -274 -111 -535 -23 -106 -35 -166 -75 -380 -30 -158 -49 -279 -54
-342 -6 -68 -5 -73 13 -73 16 0 21 9 26 58 3 31 14 102 25 157 11 55 27 145
35 200 9 55 17 110 20 122 32 181 47 264 55 293 8 33 17 72 21 95 1 6 5 21 10
34 5 13 14 51 19 85 5 33 16 93 25 131 9 39 20 93 25 120 5 28 20 115 35 195
14 80 32 183 39 230 22 134 76 403 87 430 6 14 13 45 16 70 5 57 33 159 44
166 12 7 11 38 -3 69 -12 26 -32 33 -43 14z M4881 5068 c-5 -13 -19 -59 -31
-103 -13 -44 -40 -129 -61 -190 -20 -60 -43 -130 -49 -155 -6 -25 -23 -79 -36
-120 -82 -244 -194 -621 -194 -649 0 -7 8 -11 17 -9 18 3 26 26 77 213 23 80
59 201 121 395 19 58 43 139 55 180 11 41 25 84 30 95 5 11 14 38 21 60 6 22
17 56 24 75 62 175 71 219 48 227 -7 3 -17 -6 -22 -19z M4732 4963 c-34 -98
-60 -180 -92 -293 -12 -41 -27 -93 -34 -115 -7 -22 -18 -56 -23 -75 -27 -93
-46 -154 -79 -250 -19 -58 -43 -134 -53 -170 -10 -36 -26 -90 -36 -120 -9 -30
-23 -77 -30 -105 -7 -27 -29 -95 -48 -150 -39 -113 -112 -345 -123 -390 -4
-16 -8 -34 -10 -40 -1 -5 -18 -66 -37 -135 -20 -69 -43 -165 -52 -215 -9 -49
-21 -106 -27 -126 -5 -19 -8 -46 -6 -60 3 -24 3 -24 26 9 16 22 28 60 38 125
7 50 30 148 50 217 50 173 73 260 80 295 4 17 19 66 34 110 54 153 102 300
114 350 6 28 14 55 17 60 4 6 17 46 29 90 12 44 42 145 67 225 177 577 182
594 219 695 19 50 36 105 40 123 6 27 4 32 -13 32 -17 0 -26 -17 -51 -87z
M4357 4913 c-43 -119 -76 -219 -112 -338 -38 -129 -85 -277 -95 -300 -8 -19
-60 -185 -133 -425 -31 -101 -112 -387 -179 -635 -12 -44 -30 -99 -41 -123
-10 -23 -17 -53 -15 -65 3 -20 5 -19 22 12 22 41 51 127 66 196 6 28 19 79 30
115 11 36 38 133 60 215 23 83 51 179 63 215 12 36 22 70 23 75 2 22 29 110
109 350 45 138 92 286 105 330 12 44 27 91 32 105 6 14 28 79 50 145 22 66 48
138 59 161 22 48 24 64 6 64 -8 0 -29 -40 -50 -97z M4484 4904 c-20 -20 -84
-179 -84 -209 0 -8 -15 -56 -34 -107 -55 -149 -117 -357 -111 -368 3 -6 2 -10
-4 -10 -9 0 -14 -13 -41 -110 -23 -81 -60 -195 -70 -212 -6 -10 -10 -29 -10
-43 0 -14 -6 -36 -14 -48 -7 -12 -22 -47 -32 -77 -10 -30 -24 -62 -31 -71 -7
-8 -13 -23 -13 -32 0 -9 -4 -18 -8 -21 -11 -7 -3 -66 9 -66 5 0 9 9 9 21 0 11
13 37 29 57 30 38 91 171 91 201 1 9 9 34 20 56 11 22 19 45 20 51 0 6 13 51
29 100 16 49 32 107 36 129 4 22 22 87 41 144 19 57 34 108 34 113 0 5 11 37
24 71 43 110 73 201 89 262 9 33 23 80 32 104 9 24 15 54 13 65 l-3 21 -21
-21z M1052 4403 c-12 -25 -34 -156 -34 -201 1 -20 -6 -62 -15 -92 -47 -167
-99 -416 -108 -515 -3 -44 -8 -89 -11 -100 -2 -11 -6 -31 -8 -45 -3 -14 -19
-94 -36 -179 -36 -179 -83 -464 -110 -671 -26 -189 -36 -254 -70 -435 -16 -82
-34 -186 -40 -230 -6 -44 -13 -93 -16 -110 -2 -16 -9 -73 -14 -125 -6 -52 -12
-108 -16 -125 -3 -16 -7 -41 -9 -55 -2 -14 -10 -61 -18 -105 -8 -44 -25 -134
-37 -200 -12 -66 -31 -163 -42 -215 -28 -125 -34 -185 -18 -175 6 4 16 19 21
33 16 40 56 229 63 297 4 33 20 119 36 190 27 123 32 154 45 300 6 62 26 213
46 345 6 41 17 98 25 125 23 84 69 366 89 550 4 33 14 98 22 145 8 47 16 92
18 100 1 8 5 31 9 50 4 19 9 46 10 60 4 29 32 177 51 270 18 85 42 247 50 335
5 66 36 219 55 275 27 81 41 146 50 230 6 52 22 132 37 177 14 44 23 88 20 97
-8 21 -34 20 -45 -1z M80 3960 c0 -26 -3 -62 -6 -79 -4 -20 -3 -31 5 -31 6 0
10 3 9 8 0 4 1 14 5 22 3 8 9 38 15 67 8 46 7 52 -10 56 -16 4 -18 -1 -18 -43z
M1147 4003 c-7 -11 -32 -147 -57 -303 -12 -74 -33 -180 -46 -235 -14 -55 -31
-140 -39 -190 -8 -49 -32 -178 -54 -285 -37 -181 -73 -410 -65 -419 2 -2 9 -1
16 2 8 3 19 38 27 83 7 44 32 178 56 299 24 121 50 264 59 318 9 54 26 132 37
175 12 42 27 123 35 179 7 56 22 150 34 208 22 115 25 175 11 175 -6 0 -12 -3
-14 -7z M1296 3948 c-12 -34 -35 -138 -41 -183 -4 -27 -20 -113 -35 -190 -16
-77 -38 -192 -49 -255 -36 -203 -45 -251 -72 -370 -10 -47 -21 -103 -25 -125
-3 -22 -7 -44 -7 -50 -1 -5 5 -10 13 -10 15 0 48 146 110 485 13 69 38 199 56
290 19 91 37 182 39 202 3 21 14 61 23 90 20 62 22 120 5 125 -7 3 -15 -1 -17
-9z M2826 2961 c-3 -5 -19 -76 -36 -157 -17 -82 -32 -158 -35 -169 -2 -11 -18
-83 -35 -160 -29 -128 -36 -166 -56 -264 -5 -26 -3 -32 7 -29 8 3 19 31 24 64
6 32 14 66 17 74 7 17 24 89 62 255 14 61 39 170 56 243 17 73 28 137 25 143
-8 11 -22 12 -29 0z M2742 2848 c-25 -106 -27 -121 -10 -116 13 5 48 112 55
171 4 27 1 37 -9 37 -9 0 -21 -30 -36 -92z M2902 2873 c-18 -62 -20 -70 -57
-267 -19 -104 -44 -219 -55 -255 -28 -94 -80 -313 -80 -339 0 -12 3 -22 8 -22
24 1 35 31 62 175 7 33 25 112 42 175 17 63 34 133 39 155 31 162 41 211 62
295 13 52 22 101 19 108 -8 24 -29 11 -40 -25z M2996 2811 c-6 -9 -10 -31 -45
-261 -11 -74 -32 -198 -45 -275 -14 -77 -30 -174 -36 -215 -12 -73 -61 -325
-80 -405 -18 -79 -52 -307 -46 -313 14 -13 28 19 37 84 14 103 78 434 109 569
5 22 15 76 21 120 18 135 20 146 45 282 13 73 24 143 24 156 0 14 11 73 24
132 14 59 22 113 19 121 -6 16 -19 18 -27 5z M1027 2503 c-9 -16 -37 -142 -57
-258 -19 -117 -30 -168 -52 -250 -5 -22 -12 -51 -14 -65 -2 -14 -8 -45 -14
-70 -5 -25 -13 -74 -19 -110 -66 -411 -69 -430 -81 -545 -6 -55 -20 -131 -30
-170 -10 -38 -30 -124 -45 -190 -14 -66 -30 -138 -35 -160 -27 -121 -43 -219
-46 -294 -2 -46 -6 -86 -9 -89 -3 -3 -5 -14 -5 -24 0 -20 29 -25 31 -5 13 163
63 456 100 582 28 96 28 97 38 208 5 54 14 104 19 110 6 7 17 62 26 122 9 61
20 137 25 170 5 33 15 94 21 135 6 41 15 94 21 118 5 23 9 53 9 66 0 13 11 73
25 133 46 195 63 277 81 373 9 52 20 108 25 124 12 38 11 83 0 91 -5 3 -12 2
-14 -2z M2722 1230 c-5 -22 -6 -42 -2 -45 8 -5 24 74 17 82 -3 2 -9 -14 -15
-37z M4428 1084 c-10 -3 -18 -12 -18 -19 0 -8 -9 -19 -21 -25 -27 -15 -19 -22
39 -37 44 -11 40 -12 -48 -7 -101 5 -180 -2 -180 -17 0 -9 34 -26 85 -45 14
-5 -9 -12 -74 -23 -91 -15 -121 -31 -85 -45 10 -4 75 -7 146 -7 111 0 128 -2
128 -16 0 -13 -8 -15 -47 -10 -60 7 -173 -5 -175 -18 -2 -14 88 -46 108 -38
12 4 13 8 3 14 -25 15 -1 21 52 12 61 -9 56 5 63 -188 5 -129 6 -130 30 -133
25 -3 53 29 42 47 -3 5 -8 65 -12 135 -5 109 -4 126 10 126 8 0 77 -9 153 -21
147 -22 254 -27 291 -15 15 5 22 15 22 32 0 13 -1 24 -3 24 -1 0 -26 9 -56 20
-29 10 -74 22 -100 26 -25 4 -51 11 -57 16 -7 5 -31 15 -55 23 l-44 14 61 -5
c40 -4 64 -2 68 5 11 17 -39 31 -117 32 -40 1 -97 5 -127 9 -55 8 -55 8 20 7
61 -2 75 1 75 13 0 11 -15 17 -55 21 -42 4 -46 6 -19 7 20 1 51 5 68 8 41 9
41 38 0 59 -31 16 -139 28 -171 19z m115 -41 c-13 -2 -33 -2 -45 0 -13 2 -3 4
22 4 25 0 35 -2 23 -4z m-173 -83 c12 -8 12 -10 -5 -9 -11 0 -29 4 -40 9 -18
8 -18 9 5 9 14 0 32 -4 40 -9z m207 -46 c-3 -3 -12 -4 -19 -1 -8 3 -5 6 6 6
11 1 17 -2 13 -5z m-197 -24 c10 -7 -12 -9 -70 -9 -64 1 -76 3 -50 9 52 11
103 11 120 0z m180 -6 c0 -2 -24 -4 -52 -3 -38 1 -46 3 -28 8 24 7 80 3 80 -5z
m219 -55 c100 -19 126 -33 101 -50 -15 -10 -154 -6 -215 6 -88 17 -142 25
-172 25 -27 0 -33 4 -33 20 0 20 5 21 113 20 63 -1 153 -10 206 -21z M2691
1038 c-6 -29 -31 -165 -31 -172 0 -5 6 -3 14 3 16 14 30 101 23 146 -2 17 -5
27 -6 23z M4560 716 c0 -30 86 -44 112 -18 14 14 -3 22 -62 29 -42 5 -50 3
-50 -11z"/>
</g>
</svg>
