<?xml version="1.0" standalone="no"?>
<!DOCTYPE svg PUBLIC "-//W3C//DTD SVG 20010904//EN"
 "http://www.w3.org/TR/2001/REC-SVG-20010904/DTD/svg10.dtd">
<svg version="1.0" xmlns="http://www.w3.org/2000/svg"
 width="500.000000pt" height="878.000000pt" viewBox="0 0 500.000000 878.000000"
 preserveAspectRatio="xMidYMid meet">
<metadata>
Created by potrace 1.16, written by Peter Selinger 2001-2019
</metadata>
<g transform="translate(0.000000,878.000000) scale(0.100000,-0.100000)"
fill="#000000" stroke="none">
<path d="M1052 8667 c-18 -35 -32 -72 -32 -83 0 -20 34 -125 51 -156 13 -23
54 -44 106 -53 24 -4 45 -10 47 -13 2 -4 -16 -34 -41 -67 -43 -56 -115 -194
-112 -212 1 -4 -4 -21 -12 -38 -10 -22 -14 -74 -14 -190 0 -159 0 -160 33
-232 17 -39 32 -74 32 -77 0 -12 73 -116 81 -116 5 0 6 -6 3 -13 -8 -23 83
-134 148 -179 126 -89 272 -157 326 -153 18 1 28 -8 44 -39 11 -23 30 -54 41
-69 80 -115 81 -306 2 -455 -46 -86 -64 -107 -108 -126 -26 -10 -37 -21 -37
-35 0 -18 -70 -82 -89 -81 -7 1 -91 144 -91 156 0 5 -12 22 -26 37 -24 26 -25
30 -10 46 10 11 16 36 16 65 0 39 -4 49 -19 53 -13 3 -21 17 -25 43 -3 23 -15
45 -27 54 -17 12 -19 18 -10 35 8 15 9 27 1 40 -11 21 4 31 123 76 42 16 63
35 37 35 -5 0 -10 5 -10 10 0 6 7 10 15 10 21 0 19 17 -5 47 -11 14 -20 33
-21 42 0 9 -8 30 -18 46 -28 47 -70 40 -174 -29 -46 -31 -89 -56 -95 -56 -5 0
-13 11 -16 25 -8 31 -46 88 -94 140 -21 22 -54 66 -75 97 -40 60 -60 84 -77
90 -7 2 -5 14 5 35 13 26 14 39 4 78 -28 113 -199 158 -252 66 -41 -69 -16
-191 40 -199 17 -3 28 -24 57 -115 20 -62 36 -116 36 -121 0 -5 11 -34 24 -65
26 -62 45 -117 51 -144 2 -9 7 -21 10 -27 7 -12 -78 -55 -167 -86 -36 -12 -76
-32 -88 -44 l-21 -21 24 -49 c35 -69 69 -107 104 -114 26 -6 36 -1 74 33 24
22 63 50 87 61 l42 20 34 -34 c19 -18 42 -48 51 -66 9 -17 22 -29 29 -27 7 3
18 -9 25 -27 8 -17 19 -35 25 -41 6 -5 17 -21 24 -35 6 -14 16 -32 21 -40 5
-8 15 -31 22 -49 7 -19 25 -49 40 -66 15 -16 60 -93 101 -170 41 -77 87 -158
101 -179 15 -21 27 -49 27 -61 0 -22 46 -116 80 -165 10 -14 48 -85 85 -159
37 -73 96 -183 132 -245 36 -61 74 -128 85 -149 10 -21 41 -70 68 -109 39 -57
48 -76 43 -99 -12 -64 56 -22 143 87 43 55 53 76 59 128 5 44 5 46 -19 46 -29
0 -46 22 -106 139 -23 47 -59 112 -79 145 -62 102 -196 364 -190 371 13 12
197 -18 284 -48 92 -31 148 -61 200 -108 17 -15 39 -29 50 -31 20 -3 20 -11
20 -441 0 -241 -3 -441 -7 -443 -5 -3 -8 -9 -8 -14 0 -35 132 3 203 58 52 41
137 132 137 147 0 13 -6 15 -31 10 l-30 -7 1 149 c1 81 -1 231 -5 333 l-8 185
29 12 c16 7 55 32 87 56 105 78 275 136 403 137 92 0 134 -8 134 -28 0 -8 -26
-63 -57 -121 -32 -58 -61 -113 -65 -122 -16 -39 -173 -307 -198 -339 -16 -20
-34 -48 -41 -63 -7 -15 -20 -29 -31 -32 -23 -8 -23 -26 2 -58 30 -38 80 -51
175 -43 70 5 139 20 154 33 3 2 -3 9 -13 16 -15 11 -13 19 35 97 60 100 109
198 109 221 0 9 9 24 20 34 11 10 20 23 20 28 0 6 11 24 24 42 28 37 82 137
114 213 13 28 27 52 31 52 5 0 56 -45 113 -99 96 -91 107 -106 142 -186 58
-135 66 -189 66 -438 0 -121 -2 -223 -5 -228 -3 -5 -10 -48 -16 -96 -6 -55
-22 -118 -43 -172 -36 -91 -69 -192 -92 -278 -21 -80 -127 -281 -188 -358 -18
-22 -47 -65 -66 -95 -18 -30 -52 -75 -75 -100 -23 -25 -61 -70 -85 -100 -72
-95 -303 -340 -353 -376 -27 -20 -68 -52 -90 -72 -81 -72 -126 -102 -152 -102
-39 0 -205 83 -335 168 -211 138 -235 154 -280 197 -25 23 -73 63 -107 89
-111 83 -523 501 -523 530 0 3 -24 43 -54 89 -144 223 -210 359 -230 483 -19
110 -34 164 -52 185 -8 9 -12 18 -9 21 3 2 -2 57 -9 121 -15 120 -13 247 5
339 6 29 11 58 12 63 2 6 9 26 16 45 77 201 169 317 307 387 36 18 53 33 51
43 -4 19 -13 17 -105 -27 -108 -50 -210 -155 -274 -278 l-47 -91 -75 7 c-81 6
-115 25 -117 63 0 12 -8 35 -18 51 -17 29 -21 30 -80 27 -64 -3 -131 12 -131
29 0 5 -6 9 -13 9 -7 0 -23 21 -36 47 -17 36 -19 48 -9 54 7 4 13 20 14 36 1
25 5 29 48 35 103 14 200 102 220 200 3 15 15 29 25 33 11 3 26 16 35 30 l15
23 63 -19 c69 -22 159 -25 252 -9 79 13 91 24 64 60 -16 23 -25 27 -42 21 -11
-5 -62 -11 -113 -15 -81 -7 -103 -4 -188 19 -90 24 -123 26 -110 4 11 -16 -6
-49 -24 -49 -24 0 -47 -28 -56 -67 -13 -62 -113 -135 -200 -147 -43 -5 -64
-16 -75 -36 -23 -42 -184 -66 -253 -36 -18 7 -60 34 -95 60 l-62 46 0 -29 c0
-22 12 -40 51 -75 77 -69 148 -99 239 -100 41 -1 87 3 101 7 24 8 25 7 21 -29
-3 -21 -13 -45 -24 -54 -23 -18 -66 -184 -103 -398 -14 -81 -36 -205 -50 -277
-14 -71 -37 -195 -51 -275 -13 -80 -31 -165 -39 -190 -8 -25 -16 -61 -18 -80
-3 -19 -21 -120 -40 -225 -20 -104 -39 -217 -42 -250 -4 -33 -15 -115 -26
-182 -19 -124 -26 -341 -10 -313 14 24 60 297 92 550 6 47 18 112 27 145 8 33
19 80 23 105 18 108 38 202 53 251 8 30 19 86 25 124 5 39 30 171 54 295 25
124 53 266 62 315 9 50 19 99 21 110 3 11 9 40 14 65 19 97 36 150 51 166 15
15 19 14 43 -8 35 -30 57 -36 139 -37 66 -1 67 -1 67 -28 0 -41 34 -90 79
-113 50 -25 72 -25 140 -1 43 16 52 17 47 5 -15 -39 -36 -123 -41 -163 -3 -24
-12 -64 -20 -88 -18 -51 -10 -167 14 -228 15 -35 67 -259 76 -325 12 -85 48
-163 173 -375 36 -60 76 -124 89 -141 13 -17 23 -34 23 -39 0 -16 109 -142
221 -256 63 -64 137 -140 165 -170 28 -30 88 -88 135 -128 46 -41 83 -78 82
-81 -4 -12 -147 -235 -196 -305 -27 -38 -60 -88 -75 -110 -14 -22 -49 -76 -77
-120 -29 -44 -72 -111 -97 -150 -78 -119 -252 -473 -270 -550 -16 -62 -16 -71
-2 -86 22 -24 64 -30 100 -13 38 18 118 96 153 149 14 22 36 51 49 65 12 14
22 30 22 36 0 6 11 21 24 33 13 12 41 48 62 79 21 31 49 71 63 87 22 28 23 28
16 5 -26 -82 -66 -253 -84 -360 -33 -188 -117 -595 -144 -696 -14 -49 -37
-141 -52 -204 -15 -63 -42 -166 -61 -229 -35 -116 -47 -228 -22 -203 7 7 18
34 24 60 7 26 21 81 32 122 66 251 83 325 79 341 -3 10 -1 19 5 21 8 3 41 122
67 248 7 30 25 118 41 194 21 97 27 143 19 152 -7 8 -6 13 1 16 11 3 20 44 55
240 8 48 21 105 29 125 42 113 77 246 68 255 -14 14 61 157 113 216 22 25 45
57 52 71 23 51 14 -11 -17 -122 -38 -134 -67 -271 -85 -402 -11 -77 -27 -161
-61 -333 -19 -96 -41 -213 -49 -260 -8 -48 -17 -98 -20 -112 -7 -29 -29 -163
-45 -270 -36 -233 -127 -686 -175 -871 -19 -71 -20 -139 -1 -139 18 0 42 96
62 245 0 6 4 17 7 25 7 19 34 157 43 225 9 68 12 84 18 93 5 9 67 332 71 377
6 57 46 298 50 306 3 4 7 27 9 51 3 23 18 108 35 188 29 141 55 287 86 480 8
52 28 147 44 210 17 63 38 144 46 180 9 36 23 86 31 111 8 26 14 65 14 88 0
33 12 59 65 140 35 55 70 111 76 125 7 14 17 26 22 26 13 0 5 -54 -42 -275
-12 -55 -30 -143 -41 -196 -29 -141 -77 -496 -116 -854 -3 -22 -12 -83 -20
-135 -15 -89 -25 -139 -89 -438 -14 -64 -25 -125 -25 -134 0 -29 27 -21 33 9
3 16 19 98 36 183 29 149 41 205 61 298 6 23 10 64 10 90 0 26 6 76 14 112 8
36 17 90 21 120 4 30 9 64 11 75 3 11 7 54 9 95 6 87 46 357 81 545 13 72 29
157 35 190 26 150 60 275 73 275 5 0 43 -23 83 -50 41 -28 84 -55 97 -60 l23
-8 0 -609 c0 -860 24 -1123 100 -1123 54 0 103 64 103 134 0 19 4 37 9 40 4 3
9 144 10 313 0 170 5 344 10 388 4 44 7 222 5 395 -1 173 0 325 3 336 2 12 15
26 28 32 12 6 62 41 110 78 l88 68 26 -30 c51 -59 177 -250 229 -349 30 -55
67 -117 83 -137 16 -20 29 -40 29 -44 0 -4 22 -38 49 -75 28 -38 57 -81 66
-96 8 -15 34 -62 58 -104 99 -178 179 -254 236 -224 44 22 55 55 41 113 -6 28
-18 53 -26 56 -8 3 -14 11 -14 18 0 7 -7 26 -15 41 -8 15 -12 33 -9 40 2 7
-26 62 -63 122 -36 61 -82 139 -101 175 -58 110 -87 162 -130 233 -92 150
-172 300 -164 311 7 9 18 50 38 141 1 6 3 16 5 24 2 7 0 15 -6 17 -12 4 -45
-91 -45 -129 0 -14 -4 -28 -8 -31 -8 -5 -62 92 -62 111 0 6 46 59 102 119 55
60 120 129 143 154 23 25 68 86 99 135 67 106 157 234 189 268 12 14 41 61 65
106 24 44 48 83 53 87 13 8 108 209 124 264 8 25 26 106 40 180 23 116 27 163
28 340 2 244 -12 341 -74 500 -47 119 -57 136 -129 205 -28 28 -76 74 -105
103 -29 28 -60 52 -69 52 -13 0 -7 19 29 90 25 50 61 113 81 140 19 26 45 68
58 92 44 82 51 93 89 130 20 20 40 50 43 67 4 16 15 38 25 47 11 9 19 23 19
30 0 7 9 18 20 24 27 14 72 94 64 114 -4 11 0 16 14 16 11 0 27 7 36 15 8 8
18 15 22 15 4 0 41 -21 81 -47 67 -44 86 -63 64 -63 -5 0 -19 -26 -32 -57 -13
-32 -45 -103 -72 -158 -64 -129 -156 -359 -164 -408 -5 -34 -3 -39 12 -36 12
3 24 24 36 64 10 33 28 80 38 105 11 25 31 77 46 115 50 130 168 355 187 355
9 0 20 5 23 10 3 6 15 10 25 10 24 0 70 92 70 138 0 26 -5 32 -35 42 -19 6
-37 15 -40 19 -2 5 13 21 34 35 22 15 45 40 51 56 9 21 24 33 56 44 24 8 44
14 44 13 0 -1 -9 -26 -20 -55 -23 -60 -25 -101 -8 -148 10 -28 9 -36 -4 -51
-22 -25 -57 -97 -79 -162 -23 -70 -23 -71 1 -71 11 0 20 6 20 14 0 23 55 144
78 173 l22 27 27 -22 c16 -13 40 -28 56 -35 21 -9 27 -18 27 -42 1 -16 7 -41
15 -55 8 -14 14 -28 15 -32 0 -5 -29 -8 -65 -8 -128 0 -282 -74 -384 -185 -62
-67 -85 -125 -86 -214 -1 -57 -5 -75 -18 -83 -22 -12 -24 -63 -2 -54 8 3 15 0
15 -7 0 -7 -13 -17 -28 -23 -42 -16 -77 -113 -69 -193 8 -91 93 -210 163 -227
17 -4 32 -21 46 -50 37 -79 163 -166 303 -210 117 -36 337 -23 438 26 23 11
27 19 25 55 l-1 41 -61 -33 c-34 -18 -71 -33 -84 -33 -13 0 -21 -3 -19 -7 10
-15 -139 -13 -203 3 -88 22 -215 84 -270 133 -38 33 -45 45 -45 76 0 37 -2 38
-50 52 -58 17 -129 86 -139 135 -16 82 -1 228 24 228 3 0 15 6 25 14 19 14 19
15 1 35 -18 19 -18 20 7 43 22 21 24 29 20 71 -11 98 36 200 127 276 71 59
149 87 270 96 59 4 93 12 110 25 23 17 23 20 11 58 -9 25 -11 57 -7 83 7 41 6
41 -21 36 -33 -6 -81 12 -104 39 -22 27 -39 92 -39 151 0 59 32 113 94 158 48
36 63 72 24 60 -51 -16 -53 -16 -33 0 11 9 52 25 90 37 39 11 86 30 105 43 19
12 59 37 88 55 74 46 82 56 82 101 0 47 -8 49 -36 6 -12 -18 -41 -45 -65 -61
-24 -16 -56 -37 -71 -48 -15 -10 -31 -18 -36 -18 -5 0 -22 -6 -38 -14 -16 -8
-67 -26 -114 -39 -78 -22 -86 -27 -102 -60 -9 -19 -34 -49 -55 -66 -33 -28
-44 -32 -88 -29 l-50 3 3 -30 c3 -38 -49 -105 -81 -105 -12 1 -47 9 -77 20
-67 23 -74 44 -33 98 35 45 48 70 78 147 28 72 48 166 40 187 -5 12 5 22 37
36 63 28 88 60 90 114 0 24 -5 54 -12 65 -23 35 -89 71 -146 79 -70 8 -105
-15 -125 -83 -15 -55 -13 -81 8 -105 15 -17 14 -18 -3 -18 -27 0 -48 -26 -147
-175 -48 -71 -93 -137 -102 -146 -8 -9 -15 -21 -15 -27 0 -7 -3 -12 -6 -12
-17 0 -115 57 -177 101 -73 54 -102 58 -122 21 -5 -11 -17 -32 -26 -48 -9 -16
-20 -43 -23 -61 -7 -31 -6 -32 34 -43 23 -6 77 -29 119 -50 74 -37 77 -41 73
-69 -2 -16 -11 -31 -21 -34 -10 -2 -25 -32 -41 -78 -13 -41 -31 -79 -38 -85
-8 -5 -15 -29 -16 -52 -1 -23 -8 -48 -14 -54 -18 -18 -15 -28 7 -28 11 0 26 9
35 21 16 23 44 22 59 -2 7 -11 3 -26 -17 -57 -34 -54 -201 -353 -233 -416 -13
-26 -35 -65 -49 -87 -13 -21 -24 -43 -24 -48 0 -10 -107 -195 -159 -276 -28
-45 -37 -61 -109 -195 -27 -52 -68 -129 -91 -170 -22 -41 -41 -83 -41 -92 0
-13 -8 -18 -30 -18 -45 0 -47 23 -7 72 19 24 53 77 77 118 23 41 57 100 75
130 54 91 385 742 385 756 0 3 32 59 71 125 39 67 69 122 67 124 -13 12 -52
-23 -74 -67 -15 -29 -47 -88 -71 -131 -25 -42 -43 -84 -40 -91 3 -8 0 -16 -6
-19 -7 -3 -36 -49 -65 -103 l-53 -99 -76 4 c-185 9 -447 -75 -570 -183 -24
-21 -46 -36 -49 -33 -6 5 -8 712 -3 869 4 94 6 108 21 108 10 0 15 -6 13 -12
-3 -7 6 -31 20 -53 13 -22 33 -56 44 -76 45 -82 166 -148 271 -149 145 0 371
9 382 16 15 10 -77 32 -165 41 -40 4 -62 1 -74 -8 -10 -9 -40 -14 -88 -13 -81
1 -141 23 -197 72 -40 36 -110 164 -102 186 11 28 -14 54 -57 58 -22 2 -44 -1
-47 -7 -4 -5 -9 42 -12 105 -5 108 -4 117 18 143 24 31 28 57 12 73 -7 7 -5
20 5 41 10 20 12 38 7 53 -12 31 16 89 43 90 24 0 195 -58 212 -72 18 -15 51
8 68 49 19 46 20 176 1 192 -16 13 -27 14 -193 5 -73 -3 -143 -4 -157 0 -23 6
-24 7 -10 35 12 24 13 45 4 123 -6 51 -18 116 -26 143 -8 28 -16 60 -17 73 -2
12 -8 27 -14 33 -8 8 -1 20 24 43 27 25 36 42 40 76 4 41 2 48 -29 77 -34 32
-91 60 -118 57 -8 -1 -28 -2 -44 -3 -37 -1 -91 -58 -100 -103 -8 -42 8 -99 34
-118 17 -13 18 -20 10 -50 -5 -19 -11 -53 -14 -75 -3 -22 -11 -80 -18 -130 -6
-49 -12 -110 -12 -135 -1 -52 11 -50 -154 -25 -121 19 -136 16 -125 -26 3 -11
1 -25 -5 -32 -13 -16 -3 -154 12 -165 15 -13 72 -22 80 -14 4 3 38 14 76 23
l70 16 15 -23 c8 -12 17 -37 20 -55 3 -17 10 -40 16 -51 5 -10 6 -18 2 -17
-22 4 -33 -3 -33 -20 0 -11 5 -23 10 -26 6 -3 10 -19 10 -35 0 -16 5 -32 10
-35 6 -3 10 -22 10 -42 0 -34 -1 -35 -18 -20 -23 21 -58 21 -92 2 -95 -54
-290 63 -290 174 0 37 -25 54 -86 58 -32 2 -70 5 -84 7 -87 14 -115 21 -148
37 -20 11 -44 19 -53 19 -75 0 -325 233 -358 333 -7 22 -19 51 -27 65 -8 15
-14 34 -14 42 0 9 -9 34 -20 55 -45 87 -45 210 -1 345 12 35 21 69 21 77 0 27
59 129 94 163 30 28 36 39 31 62 -5 23 -3 28 12 28 26 0 78 44 69 59 -6 9 -26
11 -70 6 -96 -11 -173 29 -197 102 -10 31 -7 41 29 113 l39 80 -32 0 c-29 0
-34 -5 -63 -63z m1435 -634 c3 -10 12 -25 20 -34 22 -26 19 -75 -8 -114 -32
-47 -81 -49 -128 -5 -35 34 -37 46 -17 94 26 63 117 103 133 59z m-12 -224 c4
-5 9 -25 11 -42 3 -18 11 -59 19 -92 19 -79 26 -178 15 -214 -5 -19 -4 -33 3
-40 17 -17 -10 -31 -47 -24 -26 5 -66 34 -66 48 0 3 9 5 20 5 11 0 20 4 20 9
0 11 -39 37 -65 44 -16 4 -15 5 5 6 40 2 56 16 41 35 -8 9 -22 16 -32 16 -11
0 -19 5 -19 10 0 6 11 10 25 10 15 0 25 6 25 14 0 17 -24 38 -33 29 -4 -3 -7
3 -7 15 0 15 6 22 20 22 24 0 28 38 5 46 -19 8 -20 34 -1 34 23 0 31 22 13 35
-23 16 -21 24 6 35 30 12 35 12 42 -1z m-1649 -299 c26 0 54 -39 54 -74 0 -27
-7 -39 -29 -55 -38 -28 -61 -26 -110 6 -42 27 -50 48 -30 84 12 23 67 51 87
44 8 -3 20 -5 28 -5z m1564 -60 c0 -5 -4 -10 -10 -10 -5 0 -10 5 -10 10 0 6 5
10 10 10 6 0 10 -4 10 -10z m1855 -24 c18 -8 41 -26 50 -40 28 -42 16 -65 -54
-108 -35 -21 -65 -37 -66 -36 -20 28 -43 101 -40 128 1 19 3 40 4 47 2 23 59
28 106 9z m-2020 -68 c49 -11 447 -14 576 -5 l66 5 6 -61 c3 -34 4 -65 1 -68
-2 -4 -19 -3 -37 3 -114 35 -233 49 -437 48 -150 0 -211 -5 -307 -26 l-33 -6
0 59 c0 33 2 62 5 65 7 7 100 -1 160 -14z m-1330 -64 c68 -90 66 -87 50 -104
-20 -22 -19 -30 5 -30 11 0 20 5 20 11 0 5 5 7 10 4 17 -10 11 -19 -22 -38
-22 -13 -28 -21 -20 -29 8 -8 22 -6 51 5 l40 17 25 -42 c24 -41 25 -42 5 -56
-10 -7 -19 -20 -19 -29 0 -12 7 -14 33 -9 l32 6 -32 -26 c-39 -30 -45 -58 -10
-49 12 3 -3 -8 -33 -24 -30 -17 -60 -30 -66 -31 -6 0 -16 26 -23 58 -7 31 -21
75 -31 97 -38 87 -45 108 -32 113 7 2 12 13 12 24 0 15 -5 19 -20 15 -24 -6
-28 18 -5 27 8 3 15 13 15 22 0 12 -6 15 -25 10 -29 -7 -33 1 -8 19 20 15 10
50 -12 41 -8 -3 -15 -1 -15 4 0 5 10 11 23 13 12 2 24 5 27 6 3 0 14 -11 25
-25z m1664 -79 c3 -16 -2 -17 -44 -11 -26 3 -79 6 -116 6 -38 0 -69 4 -69 9 0
11 61 17 160 15 54 -1 66 -4 69 -19z m1597 -8 c7 -6 -27 -148 -46 -197 -12
-30 -27 -68 -34 -85 -6 -16 -24 -49 -39 -72 l-27 -43 -36 18 c-25 11 -31 18
-20 20 20 4 20 7 -1 32 -10 11 -28 20 -40 20 -13 0 -23 4 -23 9 0 19 21 22 45
7 31 -20 55 -21 55 -1 0 8 -6 15 -13 15 -16 0 -53 38 -45 45 3 3 11 -1 18 -10
14 -16 60 -21 60 -6 0 5 -9 12 -19 16 -11 3 -22 12 -24 20 -5 10 2 12 31 9
l37 -5 -29 24 -29 25 24 33 c13 19 29 40 36 47 7 7 13 17 13 22 0 4 10 10 21
13 15 4 20 11 15 22 -10 26 4 38 37 31 17 -3 32 -7 33 -9z m-1653 -46 l38 -1
-3 -47 c-3 -41 -6 -48 -23 -46 -11 1 -53 3 -93 5 -49 2 -71 6 -68 14 2 6 0 17
-4 24 -5 8 -2 22 8 36 14 19 25 22 62 19 25 -1 62 -3 83 -4z m-668 -102 c-9
-28 11 -74 59 -136 40 -50 90 -81 159 -98 15 -4 27 -11 27 -16 0 -15 -89 -379
-105 -429 -8 -25 -23 -81 -34 -125 -11 -44 -29 -109 -41 -144 -24 -76 -24 -81
-5 -81 30 0 49 61 166 545 51 211 64 245 93 245 12 0 32 7 44 16 16 11 26 13
36 5 6 -6 25 -9 41 -8 24 2 30 -2 35 -28 8 -40 7 -1041 -2 -1050 -3 -3 -26 6
-50 22 -23 15 -54 34 -68 41 -36 19 -171 62 -197 62 -23 0 -32 15 -13 22 5 2
24 59 41 128 17 69 37 136 44 150 23 46 40 139 27 152 -8 8 -15 8 -21 2 -19
-18 -124 -421 -115 -436 5 -7 -23 -8 -87 -3 -111 9 -109 9 -131 0 -14 -5 -23
6 -48 57 -17 34 -55 108 -84 163 -29 55 -51 104 -49 108 3 4 29 19 58 32 33
14 56 31 60 44 4 12 24 33 45 46 100 63 170 228 170 400 -1 87 -13 129 -68
230 -47 86 -48 90 -28 97 39 12 48 9 41 -13z m-431 -59 c10 -22 29 -46 43 -54
l26 -13 -32 -6 c-18 -4 -96 -38 -174 -76 -78 -39 -164 -77 -192 -87 -27 -9
-75 -32 -105 -52 -30 -19 -70 -41 -88 -49 -18 -8 -56 -29 -83 -48 -27 -19 -51
-35 -54 -35 -9 0 -65 105 -65 123 0 12 8 17 27 17 25 0 171 51 203 71 42 26
155 77 162 73 8 -5 105 48 180 99 85 58 113 75 124 76 5 1 18 -17 28 -39z
m1118 24 c4 -3 8 -11 8 -19 0 -10 -10 -13 -37 -10 -21 2 -62 4 -90 4 -60 1
-69 15 -20 30 30 10 121 6 139 -5z m1091 -57 c23 -19 62 -44 87 -57 25 -12 52
-26 60 -31 8 -5 40 -20 70 -35 30 -14 82 -38 115 -54 180 -85 255 -119 302
-136 l51 -18 -19 -24 c-10 -14 -19 -33 -19 -43 0 -32 -16 -29 -79 11 -34 22
-64 40 -66 40 -6 0 -125 69 -166 97 -21 13 -103 53 -185 89 -81 35 -152 68
-158 73 -6 5 -28 14 -48 20 -21 7 -38 15 -38 18 0 8 43 83 48 83 2 0 22 -15
45 -33z m-1191 -65 c3 -27 1 -77 -3 -113 -4 -35 -5 -104 -2 -154 7 -107 7
-156 -1 -475 -4 -171 -2 -272 7 -335 8 -56 11 -155 8 -265 -2 -96 -3 -213 -3
-260 5 -320 8 -416 14 -426 7 -11 -5 -24 -57 -61 l-30 -21 3 492 c3 476 2
1253 -2 1406 -1 41 -6 92 -10 113 -5 20 -5 62 -1 92 6 54 7 55 39 55 33 0 34
-1 38 -48z m96 -599 c2 -351 4 -768 5 -928 3 -326 -1 -465 -12 -465 -23 0 -28
66 -29 350 -1 168 -7 388 -13 490 -7 112 -9 285 -5 440 4 140 8 359 10 485 3
218 11 285 34 271 4 -2 8 -291 10 -643z m1398 561 c18 -14 18 -15 -6 -8 -14 3
-32 10 -40 15 -12 7 -11 8 6 9 11 0 29 -7 40 -16z m-2650 -81 c-8 -14 -228
-113 -249 -113 -24 0 2 20 61 47 130 60 201 85 188 66z m2555 -48 c24 -13 65
-36 92 -50 32 -17 47 -32 47 -45 0 -21 -15 -27 -25 -11 -7 12 -124 68 -159 77
-31 7 -38 17 -30 38 8 22 23 20 75 -9z m-2528 -50 l15 -46 -79 -40 c-94 -47
-138 -49 -162 -7 l-16 27 56 31 c31 16 60 30 63 30 4 0 27 11 51 24 24 14 47
25 50 25 4 1 13 -19 22 -44z m2547 -47 c38 -18 69 -38 70 -44 0 -5 -16 -27
-35 -48 -19 -21 -35 -45 -35 -52 0 -19 -2 -18 -65 15 -30 16 -71 35 -90 41
-38 13 -43 21 -20 40 8 7 15 17 15 22 0 5 6 24 14 43 14 32 16 33 46 25 18 -5
63 -24 100 -42z m-2504 -83 c-7 -11 -22 -22 -32 -24 -11 -1 -43 -14 -72 -27
-80 -36 -115 -29 -49 10 106 63 152 84 159 73 4 -7 1 -21 -6 -32z m2363 -55
c20 -10 53 -26 74 -34 20 -8 37 -20 37 -25 0 -20 -35 -11 -90 24 -30 19 -60
35 -66 35 -7 0 -16 5 -19 10 -10 17 25 11 64 -10z m-2332 -57 c8 -20 34 -68
57 -107 24 -39 87 -156 141 -261 54 -104 123 -235 153 -290 30 -55 76 -140
101 -190 25 -49 56 -106 69 -125 13 -19 41 -72 63 -117 22 -45 55 -109 74
-142 36 -60 42 -94 25 -121 -8 -12 -10 -13 -10 -1 0 8 -6 22 -14 30 -19 22
-122 230 -130 262 -3 14 -30 62 -59 106 -29 44 -64 109 -76 144 -13 35 -29 71
-36 79 -7 8 -30 49 -50 90 -21 41 -66 117 -102 169 -57 84 -213 383 -213 409
0 5 -6 15 -14 21 -25 21 -29 100 -4 85 6 -4 17 -22 25 -41z m-107 -8 c0 -9 15
-46 34 -83 19 -37 55 -110 81 -162 64 -133 124 -241 145 -265 10 -11 28 -40
41 -65 47 -93 152 -276 174 -306 13 -16 42 -66 65 -109 22 -44 47 -86 55 -95
17 -19 113 -224 119 -254 11 -54 22 -65 45 -43 14 13 13 7 -8 -35 -14 -28 -31
-37 -31 -17 0 5 -17 36 -39 67 -21 31 -50 81 -65 111 -15 30 -45 79 -66 110
-21 31 -74 126 -117 211 -44 85 -107 202 -140 260 -33 58 -79 141 -102 184
-24 44 -53 95 -65 115 -12 20 -33 59 -46 86 -14 28 -53 101 -88 164 -34 62
-61 114 -60 115 11 7 54 25 61 25 4 1 7 -6 7 -14z m2492 -37 c30 -21 30 -21
11 -37 -22 -18 -231 -366 -286 -476 -69 -139 -156 -302 -195 -367 -22 -36 -68
-122 -102 -190 -116 -232 -124 -246 -150 -257 -21 -8 -80 -13 -80 -6 0 1 22
40 48 86 88 152 121 215 188 349 25 52 60 114 75 138 16 24 29 45 29 48 0 5 8
16 62 96 11 17 42 72 68 122 85 164 123 226 139 226 12 0 13 2 3 8 -14 10 10
59 82 170 25 38 46 73 46 79 0 9 20 33 28 33 2 0 18 -10 34 -22z m-1705 -3112
c26 -22 28 -19 -75 -191 -91 -153 -111 -183 -154 -236 -20 -25 -58 -81 -84
-125 -65 -110 -207 -324 -235 -354 -13 -13 -41 -50 -61 -82 -21 -32 -62 -84
-93 -115 -30 -31 -55 -61 -55 -65 0 -4 -7 -8 -15 -8 -8 0 -15 9 -15 19 0 11
-4 21 -9 23 -9 3 44 123 66 149 17 22 93 171 93 185 0 7 3 14 8 16 4 2 24 38
45 80 21 42 52 96 70 120 18 24 46 65 62 93 16 27 32 54 37 60 19 23 119 171
125 185 3 8 19 30 35 48 15 18 28 37 28 43 0 6 4 7 10 4 5 -3 7 0 4 8 -3 8 8
30 24 48 16 19 35 45 42 59 7 14 24 42 37 63 l23 37 33 -22 c17 -13 42 -31 54
-42z m1013 -72 c0 -11 29 -68 77 -153 139 -243 200 -354 268 -486 26 -49 50
-97 55 -105 47 -76 100 -173 106 -192 4 -13 15 -39 25 -58 18 -34 25 -71 14
-82 -9 -8 -55 3 -55 14 0 6 -18 30 -39 55 -41 46 -81 114 -81 137 0 7 -13 30
-30 51 -16 21 -30 42 -30 46 0 5 -29 52 -65 105 -36 53 -65 99 -65 101 0 2
-13 23 -28 46 -15 23 -42 72 -59 108 -18 36 -43 79 -56 95 -33 40 -92 150
-108 202 -8 30 -20 47 -36 53 -33 12 -29 27 24 81 l47 48 18 -28 c10 -15 18
-32 18 -38z m-552 -191 l43 -15 -7 -267 c-4 -146 -8 -367 -9 -491 -7 -801 -6
-763 -23 -792 -30 -51 -40 -31 -51 96 -6 67 -5 83 8 93 15 11 14 12 0 13 -26
0 -30 89 -35 764 -4 598 -4 628 13 621 10 -4 37 -14 61 -22z M990 7072 c0 -25
7 -31 31 -25 29 8 25 43 -6 43 -18 0 -25 -5 -25 -18z M4022 7078 c3 -7 13 -15
22 -16 12 -3 17 1 14 10 -3 7 -13 15 -22 16 -12 3 -17 -1 -14 -10z M1880 6371
c-6 -21 -14 -59 -19 -82 -36 -177 -61 -281 -73 -293 -23 -27 3 -70 27 -45 18
18 72 218 90 329 3 19 10 50 16 68 12 38 6 62 -15 62 -9 0 -19 -16 -26 -39z
M2240 8722 c-54 -4 -72 -17 -68 -51 3 -27 9 -29 73 -20 l30 4 3 -60 c5 -88 -3
-109 -36 -102 -22 5 -29 1 -39 -20 -15 -32 -8 -46 19 -37 33 10 132 16 305 17
89 1 164 5 168 9 4 4 5 19 1 33 -5 18 -13 25 -31 25 -29 0 -37 11 -46 70 -10
63 2 81 43 69 36 -10 44 -5 53 33 5 21 3 27 -15 33 -20 6 -357 4 -460 -3z
m309 -63 c-6 -13 -9 -47 -7 -80 3 -48 1 -58 -13 -62 -33 -9 -41 8 -37 79 4 67
4 69 33 75 17 4 31 7 33 8 1 0 -2 -9 -9 -20z m-137 -69 l3 -64 -33 -10 c-18
-5 -34 -7 -36 -5 -1 2 -1 35 2 72 4 58 8 70 26 77 30 11 34 4 38 -70z M4102
6507 c-11 -19 -51 -112 -90 -208 -87 -214 -123 -301 -150 -359 -45 -98 -102
-243 -102 -262 0 -13 6 -18 16 -16 10 2 34 43 61 108 24 58 50 119 58 135 15
31 117 278 166 402 15 39 32 80 37 90 41 78 54 112 49 126 -10 26 -23 20 -45
-16z M4430 6465 c-12 -37 -7 -55 15 -55 15 0 40 64 30 80 -13 21 -34 9 -45
-25z M3425 6434 c-38 -13 -72 -24 -75 -24 -2 1 -6 -3 -8 -8 -3 -11 31 -22 68
-22 41 0 112 37 108 57 -5 25 -17 24 -93 -3z M3930 6383 c-47 -99 -200 -495
-215 -555 -5 -21 -4 -28 8 -28 20 0 28 13 66 110 38 101 70 179 82 202 4 9 22
54 39 100 17 45 37 96 45 111 19 36 20 87 2 87 -8 0 -20 -12 -27 -27z M3069
6283 c-7 -16 -17 -46 -24 -68 -8 -22 -25 -73 -39 -112 -30 -85 -34 -122 -11
-103 8 7 19 26 24 44 5 17 25 76 46 131 51 139 50 135 31 135 -9 0 -21 -12
-27 -27z M2841 6233 c-11 -38 -31 -108 -45 -156 -14 -49 -37 -117 -51 -152
-29 -73 -30 -85 -11 -85 7 0 27 33 44 73 30 72 40 104 68 207 8 30 18 64 23
75 35 78 36 105 6 105 -9 0 -22 -26 -34 -67z M2905 6120 c-3 -5 -15 -35 -26
-67 -14 -40 -16 -60 -8 -67 13 -14 39 19 39 49 0 12 7 30 15 41 8 10 15 27 15
37 0 18 -25 24 -35 7z M540 5485 c-7 -8 -14 -28 -16 -43 -10 -87 -15 -112 -33
-186 -11 -44 -30 -135 -41 -201 -21 -117 -75 -380 -124 -600 -13 -60 -27 -153
-31 -205 -3 -52 -9 -106 -12 -118 -5 -20 -2 -23 18 -20 20 2 25 11 31 48 3 25
11 79 17 120 7 41 13 91 16 110 2 19 11 60 19 90 9 30 34 145 56 255 22 110
44 220 50 245 5 25 14 72 20 105 13 85 35 183 50 229 31 94 38 144 23 166 -17
24 -26 25 -43 5z M251 5426 c-7 -8 -13 -25 -15 -38 -1 -13 -5 -30 -8 -38 -9
-22 -26 -108 -32 -160 -3 -25 -10 -60 -15 -79 -6 -18 -20 -99 -31 -180 -19
-132 -66 -392 -90 -498 -6 -23 -9 -97 -9 -165 1 -68 3 -114 6 -103 2 11 13 58
23 105 11 47 22 101 24 120 3 19 14 80 26 135 12 55 25 120 29 145 20 107 54
290 67 355 36 180 64 353 62 379 -3 34 -19 43 -37 22z M872 5303 c-5 -15 -17
-66 -26 -113 -9 -47 -20 -110 -26 -140 -6 -30 -17 -91 -26 -135 -8 -44 -22
-114 -30 -155 -8 -41 -25 -149 -39 -240 -13 -91 -29 -183 -34 -205 -9 -34 -25
-125 -36 -200 -2 -11 -11 -54 -20 -95 -9 -41 -23 -104 -31 -140 -7 -36 -20
-94 -28 -130 -41 -179 -81 -370 -106 -510 -6 -30 -19 -105 -30 -166 -27 -143
-31 -259 -10 -259 11 0 17 16 23 55 4 30 14 91 22 135 8 44 28 157 45 250 48
276 67 375 90 465 12 47 26 108 30 135 5 28 27 138 48 245 41 199 73 374 92
490 22 132 73 376 85 405 7 17 15 57 19 90 8 64 21 116 38 152 14 28 -1 87
-23 91 -10 2 -20 -8 -27 -25z M4835 5088 c-15 -34 -90 -267 -145 -448 -60
-197 -72 -235 -107 -340 -57 -168 -70 -209 -103 -325 -17 -60 -46 -153 -65
-205 -77 -223 -182 -572 -234 -780 -12 -49 -30 -152 -38 -215 -5 -40 -5 -40
15 -21 25 22 38 60 47 136 8 60 33 164 69 280 13 41 38 127 55 190 17 63 59
194 92 290 34 96 66 198 73 225 7 28 16 57 19 65 4 8 25 74 46 145 22 72 67
218 100 325 34 107 80 254 102 325 23 72 59 176 80 231 21 56 39 114 39 128 0
37 -28 33 -45 -6z M4463 5068 c-19 -25 -107 -274 -168 -478 -24 -80 -71 -225
-105 -322 -33 -98 -83 -253 -110 -345 -28 -93 -66 -220 -85 -283 -19 -63 -57
-194 -84 -290 -27 -96 -59 -201 -71 -233 -11 -32 -18 -63 -14 -69 14 -22 46
62 105 272 16 58 38 137 49 175 11 39 27 95 36 125 9 30 22 78 29 105 6 28 21
77 33 110 11 33 30 94 41 135 12 41 35 111 51 155 32 88 111 329 154 470 16
50 36 113 46 140 10 28 34 95 53 150 20 55 42 117 51 137 9 21 16 42 16 48 0
14 -16 13 -27 -2z M4876 4847 c-208 -638 -272 -845 -285 -912 -7 -38 -6 -45 8
-45 16 0 37 58 87 235 18 66 68 224 119 380 19 55 45 138 58 185 14 47 39 124
57 172 24 66 30 100 28 142 -3 54 -4 52 -72 -157z M4552 4968 c-22 -29 -47
-88 -73 -178 -16 -52 -40 -126 -55 -165 -14 -38 -39 -113 -56 -165 -16 -52
-46 -144 -65 -205 -31 -97 -44 -143 -57 -195 -2 -8 -12 -35 -21 -60 -9 -25
-20 -54 -24 -65 -4 -11 -18 -51 -31 -90 -12 -38 -33 -92 -45 -120 -34 -75 -38
-88 -40 -117 -2 -18 2 -28 11 -28 8 0 14 9 14 21 0 11 13 37 29 57 35 44 81
155 137 332 13 41 28 84 33 95 5 11 19 62 31 113 11 51 25 103 30 115 5 12 23
67 40 122 17 55 35 109 40 120 25 55 70 177 70 192 0 19 13 62 47 150 12 34
23 66 23 72 0 15 -25 14 -38 -1z M1003 4468 c-6 -7 -18 -65 -27 -128 -9 -63
-34 -189 -56 -280 -44 -184 -72 -330 -94 -495 -8 -60 -29 -175 -45 -255 -34
-166 -94 -512 -112 -645 -14 -110 -14 -106 -43 -290 -13 -82 -28 -168 -34
-190 -13 -49 -36 -189 -57 -350 -37 -286 -39 -298 -58 -400 -9 -44 -27 -143
-42 -220 -14 -77 -37 -187 -51 -245 -23 -97 -24 -148 -4 -135 10 6 39 91 45
131 2 16 9 45 14 64 6 19 16 73 21 120 6 47 17 112 25 145 37 157 46 210 60
335 21 200 51 403 75 510 11 52 22 104 24 115 2 11 13 72 24 135 11 63 26 156
32 205 19 148 50 347 60 390 6 22 12 54 14 70 2 17 12 68 21 114 9 47 14 92
12 102 -3 10 -1 19 3 21 13 5 49 197 60 321 10 119 25 207 40 242 4 11 13 40
20 65 6 25 16 61 21 80 15 53 39 161 37 168 -5 21 16 128 39 199 22 68 24 85
13 98 -15 18 -24 19 -37 3z M1095 4048 c-13 -44 -37 -172 -71 -387 -8 -51 -16
-97 -19 -101 -7 -12 -54 -230 -69 -325 -8 -49 -27 -142 -41 -205 -33 -151 -67
-364 -63 -400 6 -59 28 -14 48 96 25 145 45 249 69 364 11 52 30 149 41 214
12 66 31 154 42 195 11 42 26 123 34 181 8 58 25 156 38 219 22 110 24 161 5
161 -6 0 -11 -6 -14 -12z M1247 4003 c-3 -5 -8 -33 -12 -63 -4 -30 -10 -59
-14 -65 -4 -5 -8 -25 -9 -43 -2 -19 -20 -122 -42 -230 -21 -108 -53 -271 -70
-362 -17 -91 -40 -204 -51 -252 -10 -47 -21 -99 -23 -115 -3 -15 -8 -39 -12
-52 -6 -19 -4 -22 12 -19 15 3 23 23 40 103 31 146 73 361 100 510 13 72 25
139 28 150 23 91 46 196 50 225 2 19 14 71 25 115 12 44 19 85 16 92 -5 14
-31 18 -38 6z M2837 3003 c-3 -4 -10 -35 -17 -68 -16 -84 -57 -268 -90 -410
-16 -66 -31 -136 -34 -155 -2 -19 -10 -61 -16 -93 -6 -32 -9 -64 -7 -70 6 -16
22 26 35 88 6 28 28 122 50 210 69 277 105 439 106 469 1 28 -17 46 -27 29z
M2752 2890 c-24 -98 -27 -130 -13 -130 5 0 21 37 35 83 34 111 36 137 13 137
-9 0 -22 -32 -35 -90z M2925 2938 c-16 -52 -36 -136 -49 -208 -26 -143 -56
-282 -76 -350 -22 -73 -82 -317 -84 -340 0 -9 7 -15 19 -15 13 0 21 9 26 30 4
17 17 77 29 135 12 58 33 146 47 195 13 50 37 151 53 225 16 74 33 153 39 175
6 22 16 61 22 86 12 48 8 79 -11 79 -6 0 -12 -6 -15 -12z M3015 2849 c-10 -29
-35 -168 -45 -254 -6 -49 -15 -103 -20 -120 -5 -16 -14 -66 -20 -110 -23 -160
-64 -384 -110 -595 -22 -104 -70 -380 -70 -407 0 -16 2 -16 15 -2 10 9 22 55
30 109 15 100 25 149 81 415 20 94 40 197 44 230 14 103 79 484 104 607 20 99
21 119 10 129 -10 9 -15 8 -19 -2z M973 2528 c-10 -13 -39 -138 -50 -213 -2
-22 -27 -139 -53 -260 -46 -208 -56 -260 -65 -330 -2 -16 -13 -86 -25 -155
-33 -199 -48 -300 -55 -375 -3 -38 -10 -81 -16 -95 -5 -14 -18 -65 -29 -115
-11 -49 -32 -139 -46 -200 -14 -60 -29 -135 -34 -165 -5 -30 -16 -95 -25 -145
-8 -49 -14 -110 -14 -135 1 -25 0 -51 -2 -59 -6 -21 18 -25 25 -4 3 10 8 61
12 113 3 52 10 100 14 105 4 6 10 35 14 65 4 30 23 125 42 210 54 237 55 241
59 305 3 33 12 80 20 105 8 25 22 92 31 150 29 193 32 215 42 265 6 28 16 91
23 140 7 50 27 155 46 235 31 135 44 194 73 345 6 33 18 93 26 134 15 72 9
107 -13 79z M2738 1284 c-5 -4 -8 -16 -8 -28 0 -14 3 -17 11 -9 6 6 9 19 7 28
-1 9 -6 13 -10 9z M2726 1221 c-4 -7 -5 -15 -2 -18 9 -9 19 4 14 18 -4 11 -6
11 -12 0z M4480 1080 c0 -11 -6 -20 -14 -20 -21 0 -31 -21 -15 -31 8 -5 26 -9
41 -9 15 0 29 -4 32 -8 3 -5 -53 -7 -123 -4 -88 3 -130 1 -135 -7 -8 -12 50
-51 77 -51 41 0 3 -18 -50 -24 -99 -12 -123 -18 -123 -31 0 -20 35 -25 173
-25 97 0 128 -3 125 -12 -3 -9 -37 -13 -111 -13 -122 -1 -153 -14 -92 -39 37
-16 105 -27 105 -18 0 3 -8 11 -17 19 -16 12 -11 13 42 8 33 -4 61 -8 62 -9 7
-6 20 -172 18 -238 -1 -73 0 -77 23 -81 33 -6 55 19 48 57 -3 17 -8 82 -12
144 -6 100 -5 112 10 112 9 0 80 -9 159 -19 257 -35 247 -35 247 -17 0 13 -11
16 -52 16 -29 0 -107 9 -173 20 -66 11 -134 20 -152 20 -35 0 -51 16 -35 32
16 16 215 9 320 -11 69 -13 92 -15 92 -6 0 13 -71 35 -114 35 -14 0 -28 4 -31
10 -3 5 -27 16 -53 25 l-47 15 64 -3 c42 -1 65 2 68 10 6 17 -36 22 -262 34
-24 2 -10 5 35 8 81 6 101 24 32 29 -51 4 -46 22 6 22 72 0 82 33 19 63 -23
11 -61 17 -111 17 -69 0 -76 -2 -76 -20z m140 -20 c11 -7 3 -10 -30 -10 -33 0
-41 3 -30 10 8 5 22 10 30 10 8 0 22 -5 30 -10z m-192 -87 c-10 -2 -26 -2 -35
0 -10 3 -2 5 17 5 19 0 27 -2 18 -5z m22 -73 c11 -7 -9 -10 -68 -10 -46 0 -81
3 -79 8 8 11 130 14 147 2z m165 0 c26 -7 22 -8 -22 -9 -30 0 -53 3 -53 9 0
11 31 11 75 0z M2693 1038 c0 -14 -21 -120 -30 -153 -5 -20 -5 -20 16 1 17 16
23 37 28 92 4 44 2 72 -4 72 -5 0 -10 -6 -10 -12z M4637 733 c-12 -19 12 -35
56 -38 45 -3 81 15 58 30 -19 11 -108 18 -114 8z"/>
</g>
</svg>
