<?xml version="1.0" standalone="no"?>
<!DOCTYPE svg PUBLIC "-//W3C//DTD SVG 20010904//EN"
 "http://www.w3.org/TR/2001/REC-SVG-20010904/DTD/svg10.dtd">
<svg version="1.0" xmlns="http://www.w3.org/2000/svg"
 width="500.000000pt" height="878.000000pt" viewBox="0 0 500.000000 878.000000"
 preserveAspectRatio="xMidYMid meet">
<metadata>
Created by potrace 1.16, written by Peter Selinger 2001-2019
</metadata>
<g transform="translate(0.000000,878.000000) scale(0.100000,-0.100000)"
fill="#000000" stroke="none">
<path d="M50 8636 c0 -85 2 -94 18 -90 9 2 24 0 32 -6 20 -12 1 -45 -26 -45
-30 0 -31 -60 -3 -98 l22 -31 -21 -37 c-19 -33 -22 -53 -22 -148 0 -99 2 -113
21 -132 15 -15 19 -28 15 -52 -4 -19 -3 -25 2 -14 7 16 11 15 42 -13 19 -17
46 -33 60 -37 14 -3 31 -10 38 -16 9 -7 22 -4 43 12 23 17 34 20 42 12 6 -6 7
-11 3 -11 -5 0 -4 -6 1 -12 6 -7 13 -25 17 -40 5 -23 2 -28 -27 -36 -55 -17
-202 0 -194 23 3 6 1 18 -5 26 -8 11 -9 10 -4 -4 4 -14 1 -18 -12 -15 -9 2
-22 19 -29 38 -12 34 -12 34 -12 -29 -1 -59 3 -69 48 -145 61 -101 118 -150
167 -144 37 4 38 2 34 -72 -1 -19 -3 -59 -4 -89 -1 -52 -2 -55 -36 -66 l-35
-12 1 -114 c0 -95 3 -120 19 -149 18 -32 20 -55 20 -272 0 -231 1 -237 23
-267 24 -33 22 -51 -5 -51 -18 0 -41 25 -93 100 -68 100 -68 103 -73 278 l-5
162 -31 32 -31 32 0 -170 c0 -100 5 -185 12 -209 6 -22 12 -42 13 -45 0 -3 6
-15 13 -28 7 -12 10 -28 6 -34 -4 -7 -3 -8 4 -4 11 7 38 -31 29 -41 -3 -3 -18
1 -34 9 -22 10 -29 22 -34 53 -3 22 -7 -43 -7 -145 -1 -144 2 -191 13 -210 20
-34 20 -74 0 -66 -10 3 -15 -1 -15 -12 0 -11 16 -24 44 -35 25 -10 48 -28 54
-43 10 -22 8 -29 -24 -64 -20 -22 -45 -40 -55 -40 -15 0 -19 -7 -19 -35 0 -21
5 -34 11 -33 6 2 14 -3 16 -9 3 -7 -2 -13 -11 -13 -9 0 -16 -7 -16 -15 0 -18
40 -29 70 -20 18 6 21 3 18 -17 -3 -20 -8 -23 -46 -20 l-42 2 0 -50 c0 -49 1
-50 30 -50 19 0 30 -5 30 -14 0 -17 -24 -28 -45 -20 -11 5 -15 -1 -15 -20 0
-26 1 -26 83 -27 45 -1 86 -1 90 0 23 4 1520 1 1526 -3 9 -6 21 -46 92 -311
28 -104 57 -212 65 -240 8 -27 23 -86 34 -130 11 -44 29 -111 39 -150 11 -38
16 -74 12 -78 -5 -5 -411 -10 -902 -11 -1129 -4 -1039 -2 -1039 -24 0 -17 43
-18 1000 -18 550 1 1000 1 1000 1 0 -1 -9 -18 -20 -39 -14 -28 -17 -44 -10
-57 6 -10 10 -29 10 -43 0 -31 100 -136 129 -136 34 0 141 144 141 190 0 9
-13 34 -29 56 l-29 39 -2 280 c-1 154 -3 366 -5 470 -14 776 -31 1578 -40
1920 -2 88 -7 339 -11 557 l-7 398 303 0 c294 -1 330 3 330 30 0 13 -60 23
-128 22 -61 -1 -63 0 -56 21 15 50 54 127 63 127 5 0 11 8 13 17 2 12 16 17
52 19 45 3 71 18 60 35 -3 6 -56 16 -104 20 -8 1 -71 -2 -140 -6 -69 -4 -132
-8 -140 -7 -21 0 -243 10 -252 11 -5 1 -8 21 -8 46 0 42 -2 45 -27 45 -26 0
-28 -3 -28 -37 0 -53 -19 -57 -23 -5 l-3 42 -51 0 -50 0 6 -187 c4 -104 9
-231 11 -283 2 -52 7 -248 10 -435 3 -187 7 -437 10 -555 2 -118 7 -368 10
-555 3 -187 8 -415 10 -506 11 -449 16 -1441 7 -1435 -5 3 -12 18 -15 33 -11
51 -33 138 -40 153 -4 8 -20 69 -37 135 -18 66 -35 134 -40 150 -24 81 -30
103 -41 145 -47 174 -80 283 -93 302 -11 19 -15 110 -20 498 -3 261 -8 585
-11 720 -3 135 -8 504 -11 820 -3 316 -8 595 -9 620 -2 25 -4 120 -5 213 l-2
167 -25 0 -25 0 6 -202 c7 -222 13 -664 21 -1403 3 -264 8 -556 11 -650 9
-306 13 -731 6 -740 -4 -6 -309 -10 -805 -10 l-797 0 0 21 c0 20 6 21 123 22
382 3 616 1 642 -4 24 -5 365 -7 718 -4 50 0 57 2 57 19 0 11 5 23 11 26 6 4
8 22 5 44 -7 45 -17 362 -22 726 -3 154 -7 349 -10 433 -6 137 -4 155 11 173
17 18 17 20 0 39 -16 17 -18 44 -20 232 -5 373 -4 422 1 449 4 23 2 27 -21 27
-14 0 -34 7 -44 16 -12 11 -36 16 -79 16 -33 0 -64 4 -67 10 -3 5 -3 26 1 46
l7 36 93 -4 c75 -3 95 -1 99 11 10 24 -7 30 -93 32 -77 1 -82 3 -82 23 0 12
-5 27 -11 33 -8 8 -8 17 -1 30 10 17 11 16 21 -9 5 -15 19 -32 30 -37 25 -14
98 -11 110 3 23 29 30 178 10 202 -9 11 -8 14 1 14 10 0 11 24 6 103 -3 56 -6
141 -6 190 0 85 -1 87 -24 87 -26 0 -37 -18 -30 -47 3 -11 -3 -26 -16 -38 -18
-16 -23 -17 -30 -5 -14 22 -12 50 3 56 8 3 14 11 14 19 0 19 -73 21 -80 3 -4
-10 -6 -10 -6 0 -1 7 -14 12 -32 12 -17 0 -28 -4 -24 -10 3 -5 -3 -10 -14 -10
-11 0 -23 5 -26 10 -3 6 -48 10 -98 10 -81 0 -94 -2 -104 -20 -11 -16 -10 -18
2 -14 8 4 15 2 15 -3 0 -11 -21 -33 -32 -33 -12 0 -9 45 4 58 9 9 3 12 -30 12
-31 0 -42 -4 -42 -15 0 -20 -79 -20 -106 0 -15 11 -53 14 -169 14 -115 0 -145
-2 -130 -11 27 -14 65 -50 65 -59 0 -7 -26 -12 -127 -23 -41 -4 -42 -3 -29 18
8 11 16 33 20 48 l6 27 -270 1 -270 0 0 -94z m1222 39 c-5 -52 -17 -65 -59
-65 -30 0 -33 2 -20 15 9 8 18 33 22 55 6 37 10 41 33 38 25 -3 27 -6 24 -43z
m-932 25 c0 -5 -7 -10 -16 -10 -8 0 -12 5 -9 10 3 6 10 10 16 10 5 0 9 -4 9
-10z m1710 -12 c0 -18 -2 -20 -9 -8 -6 8 -7 18 -5 22 9 14 14 9 14 -14z
m-1850 2 c0 -11 -53 -40 -75 -40 -24 0 -18 18 13 34 31 17 62 20 62 6z m293
-15 c3 -6 -6 -12 -19 -13 -22 -2 -31 8 -19 20 9 9 34 5 38 -7z m463 -15 c8 0
14 -7 14 -15 0 -17 -40 -17 -52 0 -13 17 -9 27 8 21 9 -3 22 -6 30 -6z m416
-39 c4 -24 14 -54 23 -67 16 -25 19 -181 6 -359 -6 -90 -6 -90 -34 -93 -25 -3
-27 -1 -20 15 5 10 10 86 12 169 2 115 -1 153 -11 161 -7 6 -37 16 -66 24 -45
11 -61 11 -109 -2 -50 -12 -58 -18 -67 -47 -13 -37 -30 -52 -63 -52 -19 0 -23
9 -33 70 -7 39 -10 77 -7 84 3 7 0 19 -6 25 -8 8 -6 15 6 29 10 11 14 26 10
40 -6 26 17 31 37 7 7 -8 25 -15 40 -15 19 0 29 -6 33 -19 6 -24 35 -29 112
-18 73 11 85 20 85 64 0 30 3 34 22 31 18 -2 24 -12 30 -47z m88 -29 c0 -18
-4 -31 -9 -28 -16 10 -33 65 -26 83 6 17 7 17 21 -1 8 -11 14 -35 14 -54z m95
26 c-2 -17 -10 -38 -18 -46 -13 -12 -15 -10 -15 15 0 23 22 63 34 63 2 0 1
-14 -1 -32z m-1315 -23 c0 -43 -19 -136 -31 -151 -6 -7 -19 -14 -30 -17 -29
-8 -35 17 -15 61 24 53 27 79 10 93 -21 17 -17 26 14 37 46 17 52 14 52 -23z
m197 14 c106 -44 113 -48 112 -77 0 -15 -8 -47 -17 -72 -15 -39 -22 -45 -47
-46 -17 0 -42 3 -56 8 -26 9 -27 10 -26 104 0 52 2 94 3 94 2 0 16 -5 31 -11z
m-87 -9 c0 -5 -4 -10 -9 -10 -6 0 -13 5 -16 10 -3 6 1 10 9 10 9 0 16 -4 16
-10z m418 -19 c0 -17 -7 -36 -19 -47 -10 -9 -19 -22 -19 -28 0 -6 9 0 20 14
11 14 20 21 19 15 0 -18 -27 -47 -38 -41 -5 3 -9 26 -8 50 0 25 4 43 8 40 4
-2 12 3 19 11 16 20 17 20 18 -14z m1279 -118 c-2 -27 -3 -5 -3 47 0 52 1 74
3 48 2 -27 2 -69 0 -95z m77 96 c12 -60 7 -159 -8 -159 -21 0 -38 164 -19 183
13 14 21 6 27 -24z m106 -59 c0 -73 -3 -92 -16 -97 -26 -10 -34 10 -40 100
l-6 87 31 0 31 0 0 -90z m190 33 c45 -60 77 -120 69 -128 -6 -6 -158 -9 -164
-3 -5 4 -9 94 -6 151 1 34 3 37 30 37 23 0 36 -11 71 -57z m195 48 c2 -4 -3
-19 -13 -32 -9 -13 -17 -28 -17 -34 -2 -21 -17 -65 -24 -65 -3 0 -17 17 -30
38 -13 20 -32 49 -43 64 -10 15 -18 30 -18 33 0 8 140 4 145 -4z m-1977 -13
c-6 -18 -25 -20 -31 -3 -5 10 0 15 14 15 12 0 19 -5 17 -12z m313 2 c6 0 9
-25 7 -57 -3 -51 -6 -58 -25 -61 -22 -3 -23 0 -23 63 0 57 2 66 16 61 9 -3 20
-6 25 -6z m-298 -27 c-16 -25 -16 -27 -1 -15 15 12 17 11 15 -7 -1 -12 -7 -21
-13 -21 -18 0 -28 39 -14 55 22 26 31 16 13 -12z m-297 -33 c2 -39 -6 -50 -37
-50 -28 0 -34 8 -29 40 6 45 64 54 66 10z m1214 -68 l0 -77 -29 30 c-15 17
-40 40 -55 52 -15 14 -26 33 -26 48 0 23 2 24 20 13 17 -11 25 -10 48 3 15 9
30 14 35 12 4 -2 7 -39 7 -81z m-960 -9 c0 -13 -6 -23 -14 -23 -22 0 -27 15
-15 46 8 23 12 25 19 14 6 -8 10 -25 10 -37z m123 10 l37 -6 -2 -81 c-3 -76
-5 -81 -26 -84 -15 -2 -31 7 -49 29 -23 26 -27 42 -28 96 -2 55 0 63 14 57 9
-3 33 -8 54 -11z m560 -15 c15 -7 17 -24 17 -114 l0 -105 -82 3 -83 3 -8 59
c-5 37 -5 68 2 80 5 12 12 33 15 48 3 14 14 29 24 31 26 8 95 5 115 -5z m-988
-18 c18 -8 17 -9 -8 -9 -15 -1 -42 -8 -58 -17 -44 -22 -58 -12 -18 14 36 23
52 26 84 12z m662 -80 l1 -79 -34 1 -33 1 0 66 c0 70 5 85 29 93 31 10 37 -3
37 -82z m-611 46 c3 -13 19 -36 35 -52 32 -30 39 -85 18 -127 -18 -35 -71 -87
-106 -103 -28 -14 -34 -14 -61 0 -17 9 -34 20 -37 26 -10 17 -25 11 -25 -9 0
-23 45 -61 71 -61 20 0 26 -34 10 -59 -20 -32 -99 16 -132 80 -11 22 -26 42
-34 46 -17 6 -21 93 -5 93 6 0 10 -16 10 -36 0 -31 2 -35 15 -24 8 7 20 29 26
50 6 21 27 55 45 75 18 21 35 42 36 46 2 5 25 10 52 13 56 6 58 7 60 40 1 33
14 34 22 2z m1157 -33 c18 -23 18 -25 1 -44 -9 -10 -12 -19 -7 -19 6 0 13 7
17 15 5 13 9 13 25 3 11 -7 18 -14 16 -17 -3 -2 0 -10 6 -17 17 -21 -7 -26
-46 -10 -50 21 -60 34 -63 89 -3 44 -1 47 15 36 10 -6 26 -22 36 -36z m-1349
5 c-47 -54 -54 -61 -54 -51 0 12 57 73 67 73 3 0 -2 -10 -13 -22z m449 -31 c3
-18 3 -45 0 -60 -5 -24 -10 -27 -42 -27 -52 0 -62 14 -45 62 19 55 22 58 53
58 24 0 29 -5 34 -33z m1447 -3 c0 -21 -4 -33 -10 -29 -5 3 -10 19 -10 36 0
16 5 29 10 29 6 0 10 -16 10 -36z m71 -21 c0 -32 2 -105 4 -163 6 -157 14
-700 21 -1295 3 -291 7 -548 9 -570 6 -65 18 -1520 12 -1515 -2 3 -8 172 -11
375 -4 204 -9 451 -11 550 -3 99 -7 293 -10 430 -3 138 -7 311 -10 385 -13
354 -23 796 -31 1408 -5 407 -4 452 10 452 13 0 16 -12 17 -57z m-1053 8 c2
-25 -2 -29 -28 -33 -27 -4 -30 -2 -30 22 0 32 7 40 35 40 16 0 21 -7 23 -29z
m982 -88 c0 -25 -3 -43 -7 -40 -9 10 -10 87 0 87 4 0 7 -21 7 -47z m-1365 -42
c3 -6 1 -11 -5 -11 -14 0 -32 49 -23 63 4 7 10 1 14 -15 4 -15 10 -31 14 -37z
m85 10 c0 -62 -15 -74 -29 -24 -16 56 -14 73 9 73 17 0 20 -7 20 -49z m313 29
c3 -11 3 -38 0 -60 -4 -30 -10 -40 -24 -40 -21 0 -34 21 -43 72 -6 33 -4 37
16 41 42 8 46 7 51 -13z m-123 -20 c6 -12 10 -33 8 -48 -2 -22 -8 -27 -30 -28
-27 -1 -28 1 -28 47 0 42 3 49 20 49 10 0 24 -9 30 -20z m565 -10 c8 0 16 -4
19 -9 4 -5 0 -8 -6 -7 -21 3 -38 16 -37 29 0 9 2 9 6 0 2 -7 11 -13 18 -13z
m-928 -12 c22 -18 4 -26 -36 -17 -25 6 -50 5 -66 -1 -15 -6 -31 -10 -36 -10
-16 0 -10 29 9 39 19 12 110 4 129 -11z m675 0 c25 2 27 -1 26 -33 l-1 -35
-79 4 c-43 3 -82 7 -87 10 -4 3 -6 17 -4 30 4 20 12 26 42 29 20 2 45 1 56 -2
11 -2 32 -4 47 -3z m775 -90 c-2 -13 -4 -5 -4 17 -1 22 1 32 4 23 2 -10 2 -28
0 -40z m-1486 11 c36 -11 48 -29 49 -69 0 -9 -15 -20 -35 -26 -34 -11 -37 -9
-87 38 -49 45 -50 48 -25 48 14 0 29 5 32 10 8 13 19 13 66 -1z m430 -33 c4 2
9 -5 12 -15 5 -21 -16 -31 -70 -31 -37 0 -44 7 -32 37 7 19 12 20 45 13 21 -5
41 -7 45 -4z m162 4 c6 0 0 -11 -13 -25 -13 -14 -20 -25 -16 -25 5 0 17 11 28
25 19 24 46 36 32 14 -4 -8 0 -8 15 0 31 17 26 -1 -10 -35 l-31 -29 6 25 7 25
-17 -22 c-31 -43 -67 -16 -37 28 9 12 11 19 5 15 -7 -4 -12 -2 -12 4 0 7 7 9
16 6 9 -3 21 -6 27 -6z m-777 -15 c3 -8 15 -17 26 -21 11 -3 17 -12 14 -19 -3
-10 0 -12 11 -8 13 5 14 3 4 -15 -15 -29 -25 -33 -44 -19 -18 14 -48 83 -39
91 10 10 22 6 28 -9z m928 -17 l-19 -23 26 23 c26 23 54 29 64 13 3 -5 1 -12
-4 -16 -6 -3 -9 -11 -7 -18 1 -7 1 -8 -2 -4 -2 4 -10 3 -18 -4 -19 -16 -18 0
3 23 9 10 12 18 7 18 -5 0 -15 -9 -22 -20 -15 -25 -67 -29 -58 -4 3 9 6 20 6
25 0 6 4 8 9 4 5 -3 13 0 16 6 4 5 10 8 13 5 3 -3 -3 -16 -14 -28z m-581 9
c32 -2 11 -22 -24 -22 -25 0 -35 5 -37 19 -3 16 0 18 19 11 13 -4 32 -7 42 -8z
m322 3 c-3 -5 -10 -10 -16 -10 -5 0 -9 5 -9 10 0 6 7 10 16 10 8 0 12 -4 9
-10z m170 -29 c-3 -6 -11 -11 -17 -11 -6 0 -6 6 2 15 14 17 26 13 15 -4z m849
-561 c3 -256 8 -510 10 -565 5 -105 15 -557 21 -975 2 -135 6 -454 10 -710 4
-256 5 -463 2 -460 -3 3 -9 84 -12 180 -3 96 -7 225 -10 285 -2 61 -7 342 -10
625 -3 283 -8 547 -10 585 -2 39 -6 302 -9 585 -3 283 -8 632 -10 775 -3 153
-1 235 3 200 5 -33 11 -269 15 -525z m-1004 504 c0 -30 -13 -73 -21 -68 -5 3
-7 10 -3 15 3 5 0 8 -6 7 -23 -6 -35 29 -21 56 12 21 16 23 32 13 11 -7 19
-17 19 -23z m-334 -3 c19 16 30 3 14 -16 -9 -11 -16 -12 -25 -5 -6 5 -15 7
-18 3 -4 -3 -7 -2 -7 4 0 15 14 26 18 13 3 -8 8 -7 18 1z m229 -34 c1 -20 4
-40 8 -43 8 -8 -34 -54 -49 -54 -18 0 -22 19 -16 82 4 54 6 57 30 55 23 -2 26
-7 27 -40z m388 -33 c5 -38 14 -79 19 -91 8 -17 7 -28 -6 -47 -9 -14 -16 -32
-16 -41 0 -11 -11 -15 -43 -15 -40 0 -44 3 -54 33 -6 17 -11 76 -12 129 l-1
97 43 4 c23 2 47 3 52 2 6 -1 14 -33 18 -71z m-828 32 c25 -33 26 -66 1 -66
-14 0 -46 56 -46 81 0 28 16 23 45 -15z m249 10 c-3 -9 -10 -13 -16 -10 -5 3
-4 12 3 20 15 18 22 13 13 -10z m416 -12 c0 -34 -1 -35 -32 -32 -54 5 -53 68
2 68 28 0 30 -3 30 -36z m-544 1 c4 -14 4 -29 0 -32 -9 -10 -36 18 -36 38 0
28 29 23 36 -6z m844 -4 c0 -11 -59 -65 -65 -59 -3 2 4 13 15 23 23 21 28 44
5 25 -14 -11 -22 -1 -10 12 8 8 55 7 55 -1z m-2 -41 c-24 -27 -47 -50 -52 -50
-10 0 5 21 49 67 48 52 51 38 3 -17z m-1037 3 c12 -31 6 -51 -17 -60 -21 -8
-34 13 -34 55 0 26 4 32 20 32 13 0 24 -10 31 -27z m299 -9 c28 -11 40 -22 41
-38 2 -25 -2 -60 -6 -64 -2 -2 -28 13 -59 33 -48 33 -53 39 -41 52 8 8 15 19
15 24 0 12 3 12 50 -7z m840 8 c0 -4 -5 -13 -12 -20 -9 -9 -9 -12 0 -12 9 0
10 -5 3 -19 -6 -10 -7 -21 -3 -25 3 -4 -2 -4 -11 0 -13 5 -15 10 -8 17 14 14
14 30 1 22 -13 -8 -13 1 0 26 11 19 30 26 30 11z m-533 -63 c12 -14 10 -18
-16 -29 -30 -12 -51 -7 -51 11 0 6 5 7 12 3 7 -4 8 -3 4 4 -4 6 1 20 11 32 12
14 19 17 22 8 2 -7 10 -20 18 -29z m107 21 c33 -12 34 -30 2 -30 -41 0 -58 10
-45 26 14 17 11 16 43 4z m-569 -21 c0 -5 3 -8 6 -6 10 3 49 -35 44 -43 -3 -4
3 -7 12 -6 25 2 27 -27 2 -42 -33 -21 -77 -6 -96 33 -15 31 -15 36 1 60 16 25
31 26 31 4z m-344 -41 c41 -2 89 1 107 5 50 13 41 -15 -12 -35 -34 -12 -54
-14 -88 -7 -77 16 -118 32 -118 46 0 10 5 11 19 4 10 -6 51 -11 92 -13z m259
-24 c24 -55 24 -50 4 -58 -23 -9 -64 20 -64 45 0 25 17 59 31 59 5 0 19 -21
29 -46z m980 11 c7 -8 25 -15 41 -15 32 0 44 -25 35 -76 -2 -16 -5 -37 -5 -46
-1 -15 -9 -17 -48 -14 -81 7 -89 14 -98 87 -3 25 2 40 17 56 25 27 41 29 58 8z
m-573 -17 c-3 -8 -6 -5 -6 6 -1 11 2 17 5 13 3 -3 4 -12 1 -19z m273 3 c0 -5
3 -23 6 -40 7 -32 6 -32 -27 -29 -31 3 -34 6 -37 41 -3 35 -2 37 27 37 17 0
31 -4 31 -9z m-111 -73 c1 -15 -3 -29 -8 -32 -5 -4 -46 -9 -90 -12 -79 -6 -81
-6 -81 15 0 18 5 22 28 20 52 -4 69 1 81 25 8 13 23 28 35 34 24 11 34 -4 35
-50z m-295 19 c3 3 6 1 6 -5 0 -13 -14 -15 -47 -6 -13 4 -23 12 -23 19 0 21
24 23 41 4 9 -10 19 -16 23 -12z m-394 -6 c0 -6 -5 -13 -10 -16 -15 -9 -43 3
-35 15 8 13 45 13 45 1z m187 -46 c17 -3 38 -14 45 -23 8 -9 8 -13 1 -9 -6 4
-36 10 -67 13 -67 7 -78 -11 -13 -21 60 -10 81 -24 37 -25 -20 0 -41 5 -47 11
-8 8 -13 8 -18 -1 -4 -7 1 -14 14 -17 12 -3 21 -12 21 -20 0 -10 -7 -14 -20
-10 -36 9 -31 -11 5 -23 37 -12 44 -24 21 -33 -10 -4 -13 -1 -9 9 4 11 -4 14
-32 14 -20 0 -34 -4 -31 -9 4 -5 -7 -6 -26 -1 -18 5 -49 13 -68 17 -34 9 -35
10 -32 54 4 50 9 57 43 65 62 13 115 21 129 18 8 -1 29 -5 47 -9z m193 -16
c11 -6 6 -8 -17 -9 -37 0 -63 8 -63 21 0 9 56 1 80 -12z m526 -31 c-12 -46
-21 -58 -49 -58 -25 0 -13 48 20 78 35 32 42 28 29 -20z m104 10 c16 -21 16
-23 1 -35 -19 -15 -31 -16 -50 -4 -11 7 -10 13 4 35 21 32 22 32 45 4z m-218
-29 c-4 -36 -7 -40 -30 -37 -34 4 -37 19 -12 51 31 40 46 35 42 -14z m-212 -9
c0 -13 -7 -20 -20 -20 -13 0 -20 7 -20 20 0 13 7 20 20 20 13 0 20 -7 20 -20z
m98 -2 c-3 -25 -17 -32 -37 -19 -19 12 -6 41 19 41 16 0 21 -5 18 -22z m-300
6 c25 -7 29 -26 7 -44 -12 -10 -21 -7 -50 19 l-36 31 28 0 c15 0 38 -3 51 -6z
m832 -9 c0 -8 -4 -15 -9 -15 -13 0 -22 16 -14 24 11 11 23 6 23 -9z m-118 -32
c-9 -4 -10 -9 -2 -18 21 -25 -24 -76 -52 -59 -7 4 -8 3 -4 -4 8 -14 -13 -16
-32 -3 -12 7 -11 14 3 40 20 39 75 76 90 60 7 -8 6 -13 -3 -16z m-779 -21 c25
-26 26 -31 16 -61 l-11 -32 -44 43 c-45 44 -53 63 -31 71 27 11 44 6 70 -21z
m137 14 c0 -3 -4 -8 -10 -11 -5 -3 -10 -1 -10 4 0 6 5 11 10 11 6 0 10 -2 10
-4z m486 -41 c-3 -9 -18 -15 -36 -15 -41 0 -40 27 3 38 33 9 43 2 33 -23z
m242 -31 c-20 -44 -38 -20 -29 40 l4 30 18 -23 c15 -18 16 -27 7 -47z m-411
30 c-3 -3 -12 -4 -19 -1 -8 3 -5 6 6 6 11 1 17 -2 13 -5z m-183 -20 c11 -28 6
-44 -12 -44 -14 0 -19 8 -20 30 -1 32 21 42 32 14z m-539 -14 c15 -17 18 -40
19 -160 1 -87 -3 -140 -9 -140 -21 0 -33 16 -46 58 -7 23 -18 47 -26 53 -7 6
-13 24 -13 40 0 15 -3 30 -7 32 -5 3 -6 35 -5 71 l4 66 32 0 c20 0 40 -8 51
-20z m653 -2 c20 -20 14 -38 -12 -36 -35 3 -45 48 -11 48 6 0 16 -5 23 -12z
m-439 -36 c34 -33 37 -40 26 -56 -13 -17 -16 -17 -77 4 -66 23 -88 36 -88 51
0 5 12 9 28 9 15 0 36 7 46 15 11 8 21 15 23 15 2 0 21 -17 42 -38z m539 6
c-2 -6 -10 -14 -16 -16 -7 -2 -10 2 -6 12 7 18 28 22 22 4z m37 2 c-3 -5 -10
-10 -16 -10 -5 0 -9 5 -9 10 0 6 7 10 16 10 8 0 12 -4 9 -10z m145 -26 c64
-33 68 -40 76 -110 4 -32 11 -67 16 -77 13 -26 3 -32 -27 -19 -18 8 -25 20
-25 39 -1 39 -41 104 -78 128 -19 12 -31 28 -32 43 0 28 9 28 70 -4z m162 -17
c15 -14 17 -24 10 -51 -5 -18 -8 -57 -5 -87 4 -53 4 -54 -12 -27 -8 15 -18 49
-21 75 -4 26 -14 62 -24 79 -13 23 -15 35 -7 43 11 11 21 6 59 -32z m-753
-178 c1 -136 -1 -148 -17 -142 -9 3 -26 14 -38 25 -20 18 -20 21 -7 70 17 68
17 113 -2 128 -13 10 -12 17 5 51 18 34 23 37 39 27 17 -10 19 -26 20 -159z
m196 159 c8 -21 -10 -73 -26 -73 -16 0 -20 40 -7 68 10 20 27 22 33 5z m262
-2 c10 -9 20 -103 13 -111 -5 -6 -11 -40 -13 -76 -3 -57 -6 -64 -24 -61 -11 1
-26 -4 -33 -13 -13 -15 -50 -21 -50 -7 0 4 -14 16 -30 27 -35 23 -40 48 -8 43
25 -4 34 14 16 33 -7 8 -14 26 -16 41 -2 21 3 28 24 35 25 8 25 10 10 25 -20
21 -21 35 -1 18 9 -7 19 -10 22 -6 4 4 1 11 -6 15 -30 19 25 54 69 45 14 -3
26 -7 27 -8z m-181 -40 c-22 -44 -36 -50 -36 -15 0 31 19 59 39 59 17 0 17 -3
-3 -44z m-482 3 c34 -12 72 -33 84 -47 21 -23 23 -31 17 -81 -4 -31 -13 -71
-20 -88 -16 -38 -14 -145 3 -166 8 -9 9 -24 2 -46 -5 -18 -12 -107 -16 -197
-6 -147 -12 -181 -28 -156 -3 4 -6 71 -7 148 -1 91 -6 149 -15 169 -7 17 -20
57 -29 90 -9 33 -24 76 -33 95 -9 19 -17 40 -17 45 -1 6 -5 44 -9 85 -3 41 -9
96 -12 123 -7 55 -6 56 80 26z m-250 -64 c21 -42 26 -66 24 -107 -4 -65 -24
-71 -51 -14 -15 32 -17 52 -12 108 4 37 8 68 10 68 1 0 15 -25 29 -55z m1031
-40 c9 -33 17 -66 18 -74 2 -15 -49 -34 -70 -26 -16 5 -17 67 -2 136 9 43 13
49 24 38 8 -8 21 -41 30 -74z m-303 -140 c17 -14 28 -29 25 -32 -6 -5 -28 17
-75 72 -7 8 -11 19 -7 24 3 5 0 11 -7 13 -7 3 -8 9 -3 18 6 10 12 3 23 -28 7
-23 27 -53 44 -67z m539 18 c1 -32 3 -73 5 -91 2 -20 0 -31 -6 -27 -6 3 -10
16 -10 28 0 12 -9 47 -20 77 -11 30 -20 56 -20 57 0 2 28 10 43 12 4 0 8 -25
8 -56z m-102 9 c7 -13 10 -26 9 -27 -9 -7 -68 27 -68 39 0 25 47 16 59 -12z
m-539 -17 c7 -9 8 -15 2 -15 -5 0 -12 7 -16 15 -3 8 -4 15 -2 15 2 0 9 -7 16
-15z m-492 -14 c7 -4 14 -17 15 -29 0 -11 4 -19 7 -17 10 6 52 -142 48 -171
-3 -27 -7 -31 -67 -58 -45 -21 -141 -33 -141 -18 0 6 8 9 18 6 16 -5 16 -5 0
6 -15 9 -16 24 -11 122 3 63 10 116 17 123 42 41 85 55 114 36z m981 -28 c60
-49 111 -104 111 -120 0 -7 -35 -49 -78 -93 -76 -77 -80 -80 -125 -80 -46 0
-46 0 -37 26 14 36 12 87 -3 108 -7 10 -28 21 -46 24 l-33 7 47 60 c26 33 51
70 56 83 13 34 54 28 108 -15z m-459 7 c0 -5 -2 -10 -4 -10 -3 0 -8 5 -11 10
-3 6 -1 10 4 10 6 0 11 -4 11 -10z m290 4 c0 -13 -70 -100 -114 -144 l-46 -44
0 39 c0 22 6 63 13 90 12 46 16 51 48 56 48 9 99 10 99 3z m-565 -23 c3 -5 1
-12 -5 -16 -5 -3 -10 1 -10 9 0 18 6 21 15 7z m64 -63 c-8 -14 -14 -18 -17
-10 -4 13 17 46 25 38 3 -2 -1 -15 -8 -28z m248 -97 c3 -48 -9 -71 -38 -71
-13 0 -22 12 -30 41 -12 39 -11 42 12 60 37 29 53 20 56 -30z m-294 -33 c4
-46 3 -58 -9 -58 -15 0 -20 72 -8 105 9 22 10 18 17 -47z m54 20 c-3 -8 -6 -5
-6 6 -1 11 2 17 5 13 3 -3 4 -12 1 -19z m447 -10 c-5 -8 -1 -8 10 1 15 13 19
13 27 0 5 -8 7 -27 5 -43 -5 -33 -53 -87 -71 -80 -7 3 -15 -2 -19 -11 -3 -10
-12 -15 -21 -11 -8 3 -17 0 -21 -6 -4 -7 -3 -8 4 -4 21 12 13 -10 -10 -30 -12
-10 -18 -13 -13 -5 4 7 8 30 9 50 2 38 36 103 70 134 22 20 41 23 30 5z m347
-105 c2 -182 4 -172 -56 -230 -52 -52 -54 -53 -113 -53 -43 0 -63 5 -73 16
-11 14 -9 19 14 36 15 11 39 40 53 64 22 37 25 52 19 89 l-6 45 73 74 c40 40
76 74 81 75 4 0 7 -52 8 -116z m-502 38 c10 -6 10 -13 2 -29 -7 -12 -9 -50 -5
-100 3 -46 2 -88 -4 -98 -9 -16 -12 -15 -37 12 -61 64 -63 129 -9 194 28 32
32 34 53 21z m-512 -163 l-2 -163 -30 2 c-16 1 -47 5 -67 9 -34 6 -36 8 -27
30 11 29 -13 44 -41 26 -26 -16 -41 6 -33 51 5 33 3 37 -16 37 -36 0 -24 33
24 62 29 17 45 34 45 47 0 15 14 24 63 39 34 11 68 20 74 21 10 1 12 -37 10
-161z m-197 104 c0 -4 -9 -13 -20 -20 -16 -10 -20 -10 -20 2 0 8 6 17 13 19
19 8 27 8 27 -1z m367 -20 c1 -15 -6 -36 -15 -47 -16 -19 -16 -19 1 -6 21 17
22 3 2 -27 -13 -18 -13 -21 -2 -16 11 4 14 -3 14 -23 0 -15 -2 -23 -4 -16 -2
7 -10 10 -17 7 -13 -5 -16 122 -3 144 13 20 22 14 24 -16z m603 -7 c-11 -13
-9 -15 11 -13 20 3 24 -2 25 -27 1 -33 -14 -75 -28 -75 -4 0 -8 -6 -8 -12 -1
-27 -52 -51 -111 -53 -61 -2 -68 1 -46 25 6 8 2 6 -10 -4 -21 -17 -23 -17 -23
-3 0 10 5 17 10 17 6 0 10 5 10 12 0 6 -7 4 -18 -5 -26 -24 -39 -21 -17 3 10
12 25 18 33 15 7 -3 19 -2 25 2 19 12 47 14 47 4 0 -6 -4 -13 -10 -16 -10 -6
-34 -45 -27 -45 2 0 18 18 36 40 17 22 25 37 16 34 -19 -8 -20 10 0 26 8 7 15
20 15 30 0 18 23 44 32 35 3 -3 11 1 18 10 7 8 17 15 22 15 6 0 5 -7 -2 -15z
m-204 -122 c-10 -10 -19 5 -10 18 6 11 8 11 12 0 2 -7 1 -15 -2 -18z m-166
-23 c0 -5 -4 -10 -10 -10 -5 0 -10 5 -10 10 0 6 5 10 10 10 6 0 10 -4 10 -10z
m-854 -37 c-2 -16 -4 -32 -5 -36 0 -5 -5 -5 -11 -2 -16 10 -12 65 4 65 10 0
14 -9 12 -27z m71 3 c-4 -10 -1 -13 9 -9 8 3 14 -1 15 -8 1 -8 2 -23 3 -34 1
-11 -8 -36 -18 -55 -19 -34 -19 -34 -1 -20 17 14 18 13 11 -5 -5 -11 -8 -30
-7 -42 0 -13 -4 -23 -10 -23 -6 0 -9 6 -7 12 3 7 -1 31 -8 54 -7 22 -9 46 -5
53 4 6 6 29 4 51 -2 24 1 40 8 40 6 0 9 -7 6 -14z m612 -139 c1 -110 -1 -136
-14 -147 -8 -7 -15 -17 -15 -23 0 -20 -33 -47 -57 -47 -21 0 -23 4 -23 50 0
28 5 94 11 148 10 93 12 97 47 128 20 18 40 30 43 28 3 -2 7 -64 8 -137z m-69
129 c0 -2 -7 -6 -15 -10 -8 -3 -15 -1 -15 4 0 6 7 10 15 10 8 0 15 -2 15 -4z
m-88 -28 c-7 -7 -12 -8 -12 -2 0 14 12 26 19 19 2 -3 -1 -11 -7 -17z m482 6
c23 -9 20 -24 -4 -24 -11 0 -20 7 -20 15 0 17 2 18 24 9z m-754 -35 c36 -24
148 -51 168 -40 9 5 41 12 70 16 l53 7 -6 -89 c-3 -48 -8 -107 -11 -130 l-5
-42 -49 6 c-48 6 -50 5 -96 -41 l-47 -46 -86 0 c-137 0 -133 -2 -128 94 4 76
20 204 32 253 8 34 63 41 105 12z m911 14 c1 -5 2 -19 4 -33 1 -14 5 -35 9
-47 5 -17 3 -23 -8 -23 -22 0 -29 19 -15 38 8 9 1 6 -14 -7 -39 -35 -42 -21
-5 25 l32 39 -31 -28 c-28 -26 -31 -27 -35 -9 -7 24 6 47 20 38 6 -3 13 -2 17
4 7 12 24 13 26 3z m-243 -45 c-9 -25 -14 -29 -37 -23 -24 6 -40 21 -41 37 0
8 27 15 61 15 25 0 26 -2 17 -29z m538 0 c48 -51 53 -67 54 -184 2 -196 4
-183 -35 -200 -19 -7 -61 -14 -93 -14 -86 0 -85 -2 -127 215 -8 39 -18 90 -24
115 -17 71 -17 70 52 70 35 1 73 7 87 15 37 21 53 18 86 -17z m-1469 0 c4 -7
13 -27 19 -44 l11 -31 -34 10 c-34 11 -37 16 -27 55 7 25 19 28 31 10z m998
-65 c-5 -43 -15 -66 -36 -91 -36 -41 -38 -26 -8 76 14 47 27 72 37 72 12 0 13
-10 7 -57z m74 -96 c1 -76 1 -77 -20 -66 -20 10 -21 16 -15 75 4 36 10 79 13
97 l7 32 7 -30 c4 -16 7 -65 8 -108z m-179 81 c0 -13 -43 -6 -47 8 -2 7 6 10
22 7 14 -3 25 -10 25 -15z m287 -24 c22 -6 24 -12 38 -98 6 -38 6 -39 -22 -32
-15 4 -36 7 -45 7 -13 0 -18 8 -18 27 -1 15 -3 44 -6 65 -6 40 2 44 53 31z
m-1096 -31 c-8 -15 -10 -15 -11 -2 0 17 10 32 18 25 2 -3 -1 -13 -7 -23z m799
-23 c0 -15 -7 -20 -25 -20 -18 0 -25 5 -25 20 0 15 7 20 25 20 18 0 25 -5 25
-20z m-812 -41 c-1 -20 -4 -26 -9 -17 -5 7 -9 9 -9 5 0 -5 -5 -5 -11 -2 -7 5
-4 14 7 26 22 25 23 24 22 -12z m898 -41 c-3 -18 -5 -44 -5 -57 -1 -20 -3 -21
-16 -11 -19 16 -19 45 1 75 21 33 25 31 20 -7z m-101 -15 c-8 -46 -13 -55 -26
-48 -10 7 -12 68 -2 78 3 4 13 7 21 7 11 0 13 -8 7 -37z m-173 -33 c-4 -39
-14 -50 -27 -29 -7 11 13 69 24 69 4 0 5 -18 3 -40z m-134 -5 c28 -4 52 -10
51 -13 0 -4 -8 -20 -18 -37 -18 -30 -18 -30 -114 -31 -89 -1 -98 -3 -116 -25
-19 -23 -19 -24 -40 -5 -30 27 -27 33 19 41 37 6 90 51 90 75 0 12 41 18 60 9
8 -4 39 -10 68 -14z m529 -20 c2 -8 -3 -26 -12 -42 -11 -17 -11 -21 -2 -10 19
23 22 22 23 -11 1 -15 -1 -22 -3 -15 -2 7 -10 10 -18 7 -29 -12 -50 13 -50 59
l0 44 28 -10 c16 -5 31 -15 34 -22z m128 23 c14 -2 24 -16 33 -48 21 -75 24
-70 -33 -70 -42 0 -63 27 -71 90 -5 42 -5 42 23 37 15 -3 37 -7 48 -9z m-344
-113 c18 -20 18 -21 -1 -33 -26 -16 -40 10 -32 58 4 24 7 29 10 15 2 -11 12
-29 23 -40z m-180 29 c3 -1 3 -19 1 -38 -4 -36 -4 -36 -54 -36 -27 0 -57 -4
-66 -8 -11 -6 -34 -2 -61 8 -40 15 -42 17 -20 23 13 4 39 7 58 7 24 0 41 8 60
29 24 27 50 32 82 15z m-495 -6 c4 -6 -6 -23 -26 -41 -36 -32 -50 -25 -50 26
0 24 4 27 34 27 19 0 38 -5 42 -12z m-128 -52 c3 -34 1 -37 -20 -34 -17 2 -24
11 -26 32 -3 22 0 27 12 23 11 -4 13 -1 9 10 -4 11 -2 14 8 11 8 -3 15 -21 17
-42z m219 1 c10 -12 33 -29 51 -36 29 -12 35 -12 42 -1 5 8 7 17 4 21 -5 8 25
34 32 27 2 -3 10 -33 16 -67 10 -52 9 -64 -2 -71 -8 -5 -22 -4 -32 1 -10 6
-22 8 -26 5 -4 -2 -26 -1 -50 4 -23 4 -42 3 -42 -1 0 -5 -5 -9 -11 -9 -6 0 -8
7 -5 16 6 15 4 15 -10 3 -14 -12 -16 -10 -13 16 5 45 -7 56 -49 50 -32 -5 -35
-4 -18 7 10 7 31 23 45 35 33 28 45 28 68 0z m1233 -33 c0 -31 -2 -35 -21 -29
-38 12 -52 13 -171 14 -194 1 -133 27 79 33 45 2 85 6 89 11 16 15 24 6 24
-29z m-370 14 c0 -3 3 -14 7 -24 4 -12 2 -15 -8 -12 -8 3 -29 -1 -47 -9 -30
-12 -37 -12 -58 2 -20 13 -22 18 -12 35 10 15 22 18 65 17 29 -1 53 -5 53 -9z
m-202 -14 c24 -7 30 -29 8 -37 -18 -7 -96 4 -96 13 0 5 12 13 28 18 34 13 33
13 60 6z m-276 -66 c-8 -10 -20 -18 -25 -18 -6 0 -2 10 9 23 16 19 15 18 -9
-3 -16 -14 -42 -25 -58 -26 l-31 -2 26 27 c14 15 26 31 26 37 0 5 -9 -2 -20
-16 -11 -14 -20 -20 -19 -15 0 20 27 45 42 39 8 -3 18 -1 21 5 4 6 16 1 29
-12 21 -20 22 -24 9 -39z m-150 16 c-6 -29 -12 -31 -28 -10 -22 31 -18 47 9
37 14 -6 21 -15 19 -27z m-366 -4 c26 0 34 -4 34 -18 0 -10 -7 -19 -15 -19 -8
0 -15 5 -15 11 0 6 -5 5 -12 -2 -7 -7 -22 -12 -35 -12 -18 0 -23 6 -23 26 0
20 4 25 16 20 9 -3 31 -6 50 -6z m1024 -30 c-8 -5 -17 -7 -19 -4 -3 3 1 9 9
14 8 5 17 7 19 4 3 -3 -1 -9 -9 -14z m-320 0 c0 -5 -4 -10 -10 -10 -5 0 -10 5
-10 10 0 6 5 10 10 10 6 0 10 -4 10 -10z m285 0 c-3 -5 -10 -10 -16 -10 -5 0
-9 5 -9 10 0 6 7 10 16 10 8 0 12 -4 9 -10z m222 4 c-11 -11 -66 -14 -89 -4
-18 7 -10 9 36 9 33 1 57 -2 53 -5z m128 -4 c13 -5 14 -9 5 -9 -8 0 -24 4 -35
9 -13 5 -14 9 -5 9 8 0 24 -4 35 -9z m595 -1190 c0 -5 -15 -10 -34 -10 -19 0
-38 5 -41 10 -4 6 10 10 34 10 23 0 41 -4 41 -10z m-90 -35 c16 -17 34 -25 57
-25 20 0 43 -8 55 -19 l20 -20 -20 6 c-17 4 -24 -1 -34 -23 -7 -16 -12 -30
-13 -31 -1 -1 -14 2 -31 6 -16 5 -21 10 -11 10 19 1 20 3 11 25 -3 9 -17 16
-31 16 -22 0 -24 2 -12 16 11 14 10 19 -9 34 -12 10 -22 21 -22 24 0 13 18 5
40 -19z m140 -5 c0 -5 -7 -10 -16 -10 -8 0 -12 5 -9 10 3 6 10 10 16 10 5 0 9
-4 9 -10z M1053 8543 c-18 -7 -16 -58 2 -73 22 -18 35 -3 35 41 0 38 -7 45
-37 32z M1341 8531 c-12 -8 -13 -14 -3 -35 17 -38 44 -34 40 6 -3 34 -15 43
-37 29z M740 8565 c-7 -9 -11 -17 -9 -20 3 -2 10 5 17 15 14 24 10 26 -8 5z
M242 8281 c0 -17 5 -32 14 -35 36 -14 68 29 38 51 -31 22 -51 16 -52 -16z
M342 8248 c-5 -7 -13 -27 -16 -44 -5 -23 -12 -30 -29 -30 -13 1 -21 -4 -19
-12 2 -9 -4 -11 -18 -7 -21 7 -26 -8 -14 -39 8 -20 43 -21 50 -1 10 25 61 75
76 75 21 0 37 20 30 39 -11 31 -42 40 -60 19z M1529 8273 c-13 -16 -12 -17 4
-4 16 13 21 21 13 21 -2 0 -10 -8 -17 -17z M1164 7263 c-15 -26 -6 -43 22 -43
16 0 23 4 18 11 -3 6 -1 15 6 19 7 4 9 13 6 19 -11 17 -40 13 -52 -6z M1234
6808 l-19 -23 23 19 c21 18 27 26 19 26 -2 0 -12 -10 -23 -22z M1219 6753
l-24 -28 28 24 c25 23 32 31 24 31 -2 0 -14 -12 -28 -27z M1146 6743 c-6 -14
-5 -15 5 -6 7 7 10 15 7 18 -3 3 -9 -2 -12 -12z M428 6663 c7 -3 16 -2 19 1 4
3 -2 6 -13 5 -11 0 -14 -3 -6 -6z M484 6489 c-3 -6 1 -18 10 -27 15 -15 17
-15 32 0 19 19 11 38 -16 38 -10 0 -22 -5 -26 -11z M1309 6613 l-24 -28 28 24
c25 23 32 31 24 31 -2 0 -14 -12 -28 -27z M1340 6615 c-11 -13 -10 -14 4 -9 9
3 16 10 16 15 0 13 -6 11 -20 -6z M1265 6570 c-3 -6 1 -7 9 -4 18 7 21 14 7
14 -6 0 -13 -4 -16 -10z M1284 6548 l-29 -33 33 29 c17 17 32 31 32 33 0 8 -8
1 -36 -29z M176 6463 c-6 -14 -5 -15 5 -6 7 7 10 15 7 18 -3 3 -9 -2 -12 -12z
M175 6429 c-11 -17 1 -21 15 -4 8 9 8 15 2 15 -6 0 -14 -5 -17 -11z M1139
6093 c-13 -16 -12 -17 4 -4 16 13 21 21 13 21 -2 0 -10 -8 -17 -17z M1150
6067 l-23 -32 29 27 c15 15 26 30 23 33 -3 2 -16 -10 -29 -28z M729 5903 c-13
-16 -12 -17 4 -4 16 13 21 21 13 21 -2 0 -10 -8 -17 -17z M4900 8718 c-1 -7 0
-115 0 -240 0 -126 -3 -229 -8 -232 -5 -3 -187 -6 -403 -6 -1352 1 -1473 0
-1483 -10 -5 -5 -6 -13 -2 -17 4 -4 375 -8 824 -9 449 -2 826 -3 837 -3 11 0
67 -1 124 -1 58 0 106 -2 109 -5 12 -11 15 -383 17 -2260 2 -1105 5 -2018 7
-2028 3 -18 -31 -19 -888 -20 l-892 -2 -18 30 c-11 16 -26 41 -35 55 -25 40
-119 41 -119 0 0 -10 -13 -33 -29 -50 l-29 -32 -206 -3 c-129 -2 -208 1 -212
7 -3 5 -8 152 -10 326 -2 175 -6 398 -9 497 -2 99 -7 313 -10 475 -3 162 -8
417 -10 565 -3 149 -8 302 -11 341 -4 50 -2 74 6 79 9 6 9 10 -1 16 -12 7 -15
182 -18 1009 l-3 1000 68 1 c461 4 494 6 494 29 0 5 -100 11 -222 14 -123 3
-258 6 -300 8 -58 2 -79 0 -83 -10 -6 -17 3 -1853 10 -1933 3 -31 7 -168 10
-305 11 -615 15 -783 20 -839 4 -51 11 -514 18 -1137 1 -91 5 -170 9 -173 4
-4 87 -8 185 -10 98 -1 193 -3 212 -4 l34 -1 -20 -23 c-40 -44 -88 -169 -107
-281 -4 -21 -11 -46 -17 -55 -5 -9 -12 -32 -17 -51 -8 -33 -12 -35 -98 -62
-182 -57 -275 -79 -310 -72 -23 4 -42 1 -57 -9 -26 -17 -46 -16 -292 7 -117
12 -217 16 -285 12 -58 -3 -172 -8 -255 -10 -203 -5 -275 -19 -295 -57 -7 -13
-29 -19 -87 -25 -43 -4 -82 -6 -88 -4 -5 2 -23 4 -40 5 -16 1 -53 17 -81 34
-46 29 -57 32 -98 26 -38 -6 -52 -14 -78 -47 -35 -45 -115 -88 -163 -88 -16 0
-66 -9 -110 -21 -44 -11 -137 -25 -208 -32 l-127 -11 0 -29 c0 -15 4 -26 8
-23 7 4 118 14 192 18 8 0 20 5 26 9 15 12 155 30 199 26 28 -3 40 -10 51 -33
9 -16 21 -36 28 -44 7 -8 20 -28 30 -43 17 -28 17 -29 -2 -23 -24 8 -38 -9
-23 -28 6 -7 13 -39 15 -72 3 -32 3 -48 0 -34 -17 83 -25 100 -46 100 -19 0
-20 -4 -14 -42 15 -101 15 -110 -2 -53 -13 47 -21 60 -37 60 -14 0 -19 -6 -17
-20 14 -100 14 -102 -3 -109 -24 -9 -25 -6 -33 51 -6 39 -11 48 -27 48 -18 0
-20 -6 -17 -58 3 -47 1 -57 -12 -57 -10 0 -16 9 -16 25 0 35 -27 85 -46 85
-14 0 -14 -33 2 -91 2 -9 -2 -22 -11 -29 -13 -11 -15 -7 -15 24 0 45 -15 76
-36 76 -13 0 -15 -8 -9 -51 5 -38 4 -54 -6 -60 -20 -12 -29 -1 -29 37 0 43
-15 74 -36 74 -14 0 -15 -9 -9 -60 6 -49 4 -60 -8 -60 -10 0 -16 15 -20 46 -6
58 -16 67 -50 52 l-27 -13 0 -148 c0 -82 4 -146 8 -143 4 2 14 1 22 -5 12 -7
10 -9 -7 -9 -20 0 -23 -5 -23 -40 0 -39 10 -48 45 -40 6 1 21 2 35 2 14 0 126
0 250 -1 124 0 342 1 484 4 162 3 264 1 272 -6 11 -9 136 -15 159 -8 6 1 62 0
125 -4 176 -11 1148 -20 1162 -11 9 6 5 10 -12 15 -18 5 -11 7 28 8 42 1 52
-2 52 -15 0 -9 8 -31 19 -48 10 -17 22 -42 26 -56 9 -31 50 -81 79 -97 27 -16
137 -16 171 -1 20 9 34 9 60 0 27 -10 41 -10 77 3 23 8 65 15 91 15 55 0 128
19 235 61 81 32 108 35 131 15 30 -26 119 -35 207 -21 45 7 92 18 104 25 12 7
20 8 17 3 -4 -6 0 -19 8 -30 19 -28 123 -46 218 -38 89 7 522 13 570 7 33 -4
36 -7 42 -43 4 -21 11 -40 16 -40 15 -2 22 -5 59 -22 l35 -16 -35 -1 c-74 -2
-668 2 -720 5 -106 6 -983 16 -1795 20 -716 4 -1855 14 -2119 19 -93 2 -111
-7 -89 -43 6 -9 7 -25 3 -36 -4 -11 -8 -93 -9 -181 l-3 -162 234 -1 c128 -1
309 -3 401 -5 140 -3 167 -1 163 10 -7 18 2 18 20 -1 11 -11 40 -15 107 -16
51 0 218 -4 372 -9 154 -4 561 -11 905 -14 344 -3 747 -8 895 -11 149 -2 479
-8 735 -11 595 -8 669 -10 676 -17 3 -3 18 -1 34 3 16 4 31 6 33 3 3 -3 73 -5
156 -4 l151 0 0 -36 0 -36 -337 7 c-694 14 -793 16 -998 22 -313 9 -455 11
-1075 18 -581 6 -1136 16 -1180 21 -14 2 -209 6 -435 10 -226 3 -498 8 -605
10 -250 5 -250 5 -250 -50 l0 -43 162 -2 c176 -2 281 -4 658 -14 135 -3 358
-8 495 -11 138 -3 282 -8 320 -10 39 -2 318 -7 620 -10 529 -5 885 -10 1345
-20 118 -3 411 -7 650 -10 239 -4 444 -8 455 -11 11 -2 56 -5 100 -6 75 -3 79
-4 78 -25 0 -13 -1 -52 -2 -88 l-1 -65 -52 5 c-29 2 -219 7 -423 10 -203 3
-482 8 -620 10 -137 3 -434 7 -660 10 -1290 16 -1715 22 -1883 30 -46 2 -280
6 -520 9 -241 4 -501 9 -580 12 -137 5 -142 5 -142 -14 0 -18 9 -21 72 -26 40
-3 289 -8 553 -11 264 -3 514 -7 555 -10 70 -4 161 -6 800 -20 129 -3 519 -7
865 -11 347 -3 718 -7 825 -9 269 -5 874 -16 1055 -19 147 -3 150 -3 153 -26
l4 -22 -124 6 c-67 3 -294 8 -503 11 -209 3 -436 8 -505 10 -69 2 -296 7 -505
10 -209 4 -420 8 -470 10 -49 2 -236 6 -415 9 -179 4 -424 9 -545 11 -121 3
-344 7 -495 10 -151 3 -324 7 -385 10 -60 3 -254 7 -430 10 -176 3 -362 8
-412 11 l-93 6 0 -25 c0 -14 3 -28 8 -31 7 -4 206 -11 637 -21 292 -7 590 -14
820 -20 183 -5 602 -11 1345 -20 228 -3 541 -8 695 -10 154 -3 476 -7 715 -10
239 -3 473 -8 520 -10 47 -2 97 -4 113 -5 l27 0 -1 -383 c0 -211 -3 -387 -7
-393 -4 -6 -19 -3 -39 7 -22 11 -29 19 -22 26 16 16 -5 25 -59 25 -57 0 -84 6
-77 19 4 5 42 9 85 9 45 0 82 5 85 11 10 15 -1 22 -34 21 -21 0 -28 4 -27 16
1 11 -8 18 -24 20 -42 6 -42 18 -1 14 30 -3 44 1 60 17 12 12 21 27 21 34 0
22 -95 50 -145 43 -45 -7 -59 -18 -61 -46 -4 -51 -2 -50 -56 -50 -58 0 -128
-16 -128 -29 0 -19 33 -33 99 -45 80 -13 101 -25 48 -27 -21 -1 -41 -3 -47 -4
-5 -1 -26 -3 -45 -4 -27 -1 -35 -5 -35 -19 0 -24 36 -40 105 -48 54 -7 76 -23
33 -25 -87 -2 -112 -16 -98 -53 11 -32 40 -33 40 -2 0 28 13 32 54 16 15 -5
26 -17 26 -28 0 -10 5 -23 12 -30 15 -15 4 -15 -287 -12 -430 5 -898 14 -1200
25 -60 3 -265 7 -455 10 -190 3 -444 7 -565 10 -121 2 -589 7 -1040 10 -451 4
-847 8 -879 10 -32 2 -66 0 -76 -5 -9 -5 -32 -6 -51 -2 -53 11 -89 4 -89 -18
0 -10 6 -21 13 -23 9 -4 9 -6 0 -6 -7 -1 -13 -12 -13 -26 l0 -25 218 0 c211 0
657 -6 1148 -15 133 -2 515 -6 850 -9 335 -3 674 -8 754 -10 197 -7 565 -17
735 -21 77 -2 250 -6 385 -10 135 -4 351 -6 480 -6 303 0 306 0 318 -47 7 -24
10 1454 11 4301 l1 4337 -25 0 c-14 0 -25 -6 -25 -12z m-1890 -4780 c0 -7 -5
-20 -10 -28 -8 -12 -10 -9 -10 13 0 15 5 27 10 27 6 0 10 -6 10 -12z m88 -71
c28 -84 36 -125 33 -168 -1 -22 4 -40 13 -48 22 -18 36 -5 36 34 0 39 8 65 21
65 5 0 9 -49 9 -108 0 -88 -4 -115 -20 -147 -11 -22 -20 -46 -20 -53 0 -8 -10
-31 -21 -52 -21 -38 -22 -38 -93 -42 -89 -5 -196 -43 -196 -69 0 -10 5 -21 10
-24 7 -5 8 -11 1 -19 -5 -6 -13 -46 -17 -89 -5 -62 -9 -75 -20 -66 -22 18 -32
2 -28 -48 l4 -48 -13 37 c-26 77 -46 58 -42 -39 3 -46 0 -63 -8 -60 -7 2 -12
10 -13 18 -2 50 -18 120 -29 129 -22 18 -35 -10 -25 -55 11 -49 16 -123 9
-130 -3 -3 -11 25 -18 62 -17 90 -37 137 -56 129 -10 -4 -20 3 -27 19 -12 26
-32 33 -43 15 -3 -6 3 -23 15 -40 23 -32 50 -112 50 -147 0 -39 -27 -26 -32
15 -5 34 -64 164 -114 249 -22 38 -14 52 19 30 13 -8 37 -17 53 -19 22 -2 33
-11 43 -35 16 -37 35 -42 50 -15 8 15 3 26 -27 55 -21 20 -52 39 -69 43 -34 7
-60 28 -45 38 9 6 185 61 219 69 13 3 25 2 27 -2 7 -11 200 -11 207 0 3 6 2
32 -3 57 -5 26 -11 58 -14 72 -2 14 -7 36 -10 49 -10 46 -15 221 -5 221 5 0 8
-6 8 -12 -2 -24 14 -123 25 -150 6 -16 17 -28 26 -28 12 0 14 11 10 63 -5 58
-5 60 7 27 15 -44 40 -47 39 -5 -1 49 -15 189 -20 208 -3 9 -1 17 4 17 12 0
32 -108 32 -171 0 -56 11 -73 40 -64 20 6 22 12 16 49 -3 22 -10 69 -15 102
-5 34 -14 71 -20 82 -6 12 -11 35 -11 53 0 48 23 22 48 -54z m-141 -39 c-3 -7
-5 -2 -5 12 0 14 2 19 5 13 2 -7 2 -19 0 -25z m1970 -612 c1 -350 -2 -636 -6
-636 -4 0 -15 18 -25 41 -10 22 -45 71 -77 109 l-60 69 -3 78 c-1 43 -8 88
-14 100 -7 12 -12 33 -12 47 0 14 -4 27 -9 30 -5 3 -12 23 -16 43 -4 21 -23
59 -42 85 -29 40 -39 47 -58 42 -13 -3 -32 -1 -42 6 -15 10 -14 10 10 5 15 -3
27 -2 27 2 0 14 -78 53 -104 53 -43 0 -169 -22 -207 -36 -25 -9 -48 -10 -75
-4 -68 16 -93 13 -104 -15 -10 -26 -94 -75 -129 -75 -25 0 -51 -26 -51 -51 0
-11 9 -39 20 -61 24 -50 24 -48 6 -48 -7 0 -26 16 -41 36 -28 37 -48 41 -98
19 -14 -6 -21 2 -37 38 -17 38 -29 49 -82 74 -35 17 -73 33 -86 37 -33 11
-143 74 -168 97 -11 10 -28 19 -37 19 -9 0 -18 4 -21 9 -4 5 -29 12 -56 16
-28 4 -50 11 -50 16 0 5 -15 9 -34 9 -45 0 -51 12 -33 63 46 126 50 153 38
234 -19 127 -23 138 -57 138 -21 0 -30 5 -32 20 -3 20 2 20 780 23 430 2 783
4 784 5 1 1 47 1 101 0 l98 -1 2 -636z m-2010 552 c-3 -8 -6 -5 -6 6 -1 11 2
17 5 13 3 -3 4 -12 1 -19z m56 -35 c3 -24 1 -43 -4 -43 -5 0 -9 21 -9 47 0 56
5 54 13 -4z m-134 -150 c-6 -111 -28 -183 -56 -183 -17 0 -17 34 2 69 8 16 17
48 20 72 9 67 27 149 34 149 3 0 3 -48 0 -107z m221 -286 c-38 -19 -32 -42 10
-39 19 1 42 -2 50 -8 12 -7 8 -10 -17 -10 -33 0 -46 -21 -23 -35 8 -5 7 -11 0
-20 -17 -20 -3 -35 30 -35 16 0 32 -4 35 -10 3 -6 -4 -10 -18 -10 -25 0 -52
-22 -40 -33 3 -4 19 -7 35 -7 17 0 28 -5 28 -14 0 -9 -7 -12 -18 -9 -10 2 -24
-3 -31 -11 -12 -14 -8 -18 23 -31 43 -18 46 -32 9 -37 -36 -4 -41 -26 -9 -38
28 -10 35 -30 11 -30 -8 0 -15 -2 -15 -4 0 -2 -3 -11 -6 -20 -4 -11 0 -16 14
-16 29 0 37 -19 16 -35 -18 -13 -17 -16 20 -46 37 -31 37 -33 17 -40 -24 -9
-29 -39 -6 -39 25 0 17 -30 -11 -41 -15 -5 -54 -12 -88 -16 -68 -6 -100 -19
-90 -34 8 -13 115 -3 184 17 64 19 80 9 80 -49 0 -23 7 -48 16 -58 16 -17 15
-19 -9 -28 -30 -12 -41 -38 -31 -77 l7 -28 -49 28 c-27 16 -74 53 -105 83 -48
46 -60 54 -75 45 -17 -10 -12 -17 49 -77 37 -36 84 -73 105 -82 l37 -16 -59
-27 -60 -28 -28 35 c-15 20 -28 42 -28 51 0 45 -69 118 -86 91 -4 -6 -11 -6
-19 1 -11 9 -13 -5 -11 -76 3 -104 -13 -134 -70 -134 -19 0 -34 5 -34 10 0 6
4 10 10 10 13 0 59 80 66 117 5 27 3 31 -20 37 -31 8 -46 1 -46 -19 0 -18 -44
-97 -55 -99 -5 0 -13 12 -18 27 -8 24 -5 33 13 52 15 16 23 38 24 67 1 24 6
49 10 56 12 20 0 40 -36 63 l-33 20 30 -6 c24 -4 35 -1 51 17 50 56 58 85 79
263 3 22 7 51 10 65 12 62 15 91 19 189 3 57 8 106 10 109 9 8 109 30 141 31
l30 1 -25 -13z m379 -47 c41 -30 96 -60 224 -121 37 -17 67 -35 67 -38 0 -4
14 -29 30 -55 22 -34 34 -45 43 -38 17 13 75 23 81 13 3 -5 -3 -11 -14 -14
-30 -8 -14 -40 16 -34 28 5 53 -17 29 -27 -8 -3 -15 -12 -15 -21 0 -18 40 -21
41 -2 0 8 2 7 6 -2 3 -8 28 -50 55 -95 26 -44 51 -97 54 -118 4 -20 15 -45 25
-54 20 -18 26 -54 9 -54 -5 0 -12 11 -16 25 -3 14 -13 25 -21 25 -10 0 -13 6
-9 16 6 17 -19 74 -34 74 -5 0 -10 12 -12 28 -2 16 -9 27 -18 28 -22 0 -50 15
-50 26 0 5 8 7 18 4 13 -4 18 0 19 15 2 23 -23 37 -39 21 -9 -9 -15 -9 -25 0
-10 8 -20 8 -40 -1 -18 -8 -29 -9 -37 -1 -5 5 -7 10 -3 10 5 0 -8 21 -28 46
-24 33 -35 57 -35 82 0 29 -3 34 -19 29 -13 -3 -21 1 -24 13 -3 13 -14 17 -38
16 -27 -1 -35 -6 -37 -24 -5 -34 -32 -28 -32 8 0 31 -17 39 -37 19 -13 -13
-68 49 -97 112 -33 70 -50 84 -86 69 -17 -7 -30 -16 -30 -21 0 -5 -4 -9 -10
-9 -17 0 -11 58 8 69 26 16 36 13 81 -19z m-1489 6 c36 -3 97 -8 135 -11 73
-6 145 -22 145 -31 0 -4 -7 -3 -16 0 -9 4 -25 -1 -34 -9 -16 -14 -18 -14 -24
1 -5 13 -9 14 -21 4 -8 -7 -15 -19 -15 -26 0 -25 -15 -15 -28 18 -9 25 -14 30
-24 20 -7 -7 -22 -12 -35 -12 -13 0 -23 -5 -23 -11 0 -8 -5 -7 -15 1 -13 10
-19 9 -36 -6 -20 -18 -21 -18 -39 6 -17 22 -19 23 -25 7 -9 -21 -35 -23 -35
-2 0 20 -26 19 -34 -2 -6 -14 -8 -14 -21 3 -14 18 -15 18 -34 -6 -18 -22 -20
-23 -26 -7 -9 21 -31 22 -39 2 -8 -21 -24 -19 -31 5 -7 23 -35 27 -35 5 0 -8
-4 -15 -10 -15 -5 0 -10 7 -10 15 0 8 -7 15 -15 15 -8 0 -15 -5 -15 -11 0 -8
-4 -8 -15 1 -18 15 -35 5 -35 -23 -1 -21 -2 -21 -23 6 -13 15 -26 27 -30 27
-9 0 -9 -52 1 -66 5 -7 88 -10 252 -10 135 1 282 -2 328 -6 l83 -6 11 26 10
27 10 -25 9 -25 20 24 19 23 0 -26 c0 -16 6 -26 15 -26 9 0 12 -6 9 -15 -5
-12 -10 -13 -20 -4 -18 15 -34 3 -34 -26 0 -12 -8 -26 -17 -29 -27 -11 -2 -24
47 -26 94 -4 100 -2 100 26 0 22 2 25 15 14 8 -7 15 -17 15 -22 0 -6 11 -33
25 -60 26 -51 26 -77 1 -43 -12 16 -16 17 -30 6 -9 -7 -13 -17 -10 -22 3 -5 0
-9 -5 -9 -6 0 -11 9 -11 19 0 38 -39 33 -44 -5 -4 -26 -36 -32 -36 -6 0 26
-10 33 -31 21 -10 -5 -16 -16 -13 -24 4 -8 2 -15 -4 -15 -5 0 -13 12 -16 26
-8 31 -38 29 -46 -4 -7 -30 -19 -30 -34 0 -16 32 -40 29 -44 -6 l-4 -29 -12
24 c-9 19 -20 25 -54 26 -41 3 -42 2 -43 -30 -2 -31 -2 -31 -6 -4 -4 23 -9 28
-27 25 -13 -1 -31 4 -40 11 -22 18 -34 6 -38 -39 -4 -43 -21 -46 -28 -5 -8 45
-43 42 -51 -5 -5 -27 -7 -29 -8 -9 -1 33 -24 64 -40 55 -7 -5 -11 -23 -9 -44
2 -22 -2 -37 -9 -39 -9 -3 -13 6 -13 26 0 49 -29 50 -49 1 l-10 -25 0 28 c-1
24 -5 28 -23 25 -17 -2 -22 -9 -20 -25 2 -13 -2 -23 -7 -23 -6 0 -11 9 -11 20
0 13 -10 24 -27 31 -34 13 -50 6 -56 -23 -4 -21 -4 -21 -6 3 -1 22 -7 28 -33
32 -18 2 -41 1 -50 -4 -10 -5 -19 -5 -22 0 -3 5 -15 7 -26 4 -21 -6 -29 20
-10 32 26 16 7 26 -39 20 -40 -5 -49 -4 -55 11 -10 26 19 51 54 46 21 -3 30
-9 28 -21 -3 -14 8 -16 72 -14 98 2 292 11 405 18 50 3 131 7 180 9 50 2 98 6
108 10 9 3 23 8 31 10 10 3 12 14 7 38 -8 40 -23 40 -35 -1 -11 -39 -22 -39
-29 -1 -4 17 -12 30 -18 30 -6 0 -16 -13 -22 -30 -13 -35 -34 -39 -39 -8 -5
32 -25 33 -42 1 -8 -15 -16 -25 -17 -20 -1 4 -2 10 -3 15 -1 4 -7 16 -13 27
-11 19 -12 18 -18 -8 -7 -26 -8 -26 -21 -10 -13 17 -15 17 -33 -4 -24 -28 -27
-28 -34 -2 -7 26 -31 20 -35 -9 -5 -30 -28 -28 -36 3 -9 34 -25 31 -32 -5 -4
-17 -13 -30 -21 -30 -8 0 -19 14 -24 30 -12 33 -26 39 -36 14 -5 -14 -7 -14
-16 2 -9 16 -11 16 -24 -2 -11 -15 -15 -16 -22 -5 -11 18 -31 5 -31 -20 0 -25
-18 -25 -22 1 -4 29 -21 30 -33 3 -6 -14 -19 -23 -32 -23 -18 0 -21 5 -20 28
2 34 -23 37 -39 4 -19 -38 -34 -49 -34 -25 0 33 -22 45 -53 28 -25 -13 -27
-12 -46 18 -11 17 -17 35 -15 39 3 4 29 8 58 8 65 0 116 9 116 21 0 5 -11 9
-25 9 -13 0 -33 9 -44 21 -18 19 -20 19 -29 4 -6 -11 -12 -14 -16 -7 -4 7 -17
6 -41 -4 -45 -18 -60 -18 -41 2 12 11 13 20 6 33 -8 17 -3 19 58 26 37 4 118
9 181 11 62 2 115 4 117 6 4 5 312 1 384 -6z m1334 5 c13 -5 -1 -8 -37 -8 -31
0 -57 4 -57 8 0 11 67 11 94 0z m1191 -10 c26 -2 57 -55 42 -70 -7 -7 -3 -17
17 -32 36 -28 59 -84 45 -111 -13 -25 -35 -17 -31 12 1 12 -2 28 -8 35 -6 7
-8 20 -4 29 7 19 -22 34 -37 19 -7 -7 -5 -16 7 -27 9 -9 14 -19 12 -22 -3 -2
-11 2 -18 11 -11 13 -15 13 -40 -5 -15 -11 -30 -17 -33 -13 -4 3 -9 -2 -13
-11 -5 -14 -9 -14 -34 4 -36 26 -40 25 -40 -5 0 -23 -3 -24 -35 -20 -41 5 -60
-19 -32 -40 10 -7 17 -18 17 -24 0 -7 12 -23 26 -36 15 -14 22 -25 16 -25 -6
0 -19 11 -30 25 -21 27 -51 32 -69 14 -7 -7 -46 -14 -87 -17 -42 -2 -76 -7
-76 -9 0 -10 55 -48 84 -59 17 -6 31 -17 31 -25 0 -20 -104 -31 -126 -12 -8 7
-21 13 -27 13 -9 0 -52 72 -52 86 0 1 13 -3 30 -9 67 -25 58 41 -17 124 -28
31 -34 44 -29 65 6 22 11 25 32 20 16 -4 26 -2 30 8 3 8 21 17 40 21 28 5 39
13 50 41 16 38 18 39 96 20 49 -11 60 -11 69 0 13 16 39 19 39 4 0 -6 11 -15
25 -20 15 -6 32 -25 41 -46 12 -29 17 -34 29 -24 23 19 18 35 -25 74 -22 20
-40 37 -40 38 0 3 88 2 125 -1z m-3711 -16 c3 -8 14 -15 24 -15 10 0 27 -7 38
-15 18 -15 18 -15 -8 -9 -22 5 -28 3 -28 -10 0 -9 -7 -19 -15 -22 -24 -10 -17
-31 15 -51 33 -19 42 -40 11 -23 -48 25 -71 -3 -28 -34 20 -15 20 -16 2 -14
-30 4 -32 -30 -2 -41 14 -6 28 -14 31 -19 9 -16 -16 -115 -35 -135 -16 -18
-17 -17 -16 17 0 19 7 38 14 40 7 3 13 15 13 26 0 18 -5 21 -31 18 -28 -3 -32
0 -34 23 -2 15 -15 46 -30 68 -53 85 -52 92 29 179 34 36 41 39 50 17z m1526
-58 c0 -7 9 -23 20 -37 24 -31 25 -37 2 -35 -32 2 -42 16 -42 56 0 24 4 38 10
34 6 -3 10 -12 10 -18z m80 16 c-1 -18 -18 -35 -24 -24 -4 6 -4 16 -1 21 7 12
25 13 25 3z m-1232 -35 l-3 -33 -68 -3 c-54 -2 -68 0 -73 13 -9 23 13 44 47
43 16 -1 32 2 36 5 3 4 19 7 35 7 27 0 29 -3 26 -32z m2295 -3 c9 -19 13 -35
9 -35 -5 0 -16 16 -25 35 -9 19 -13 35 -9 35 5 0 16 -16 25 -35z m1189 18 c19
-17 25 -73 8 -73 -5 0 -10 10 -10 22 0 12 -10 32 -22 45 -25 27 -5 33 24 6z
m-3701 -46 c-17 -17 -24 -1 -9 22 11 18 14 19 16 5 2 -9 -1 -21 -7 -27z m2315
32 c4 -8 9 -8 17 0 20 20 37 12 37 -18 0 -36 19 -50 36 -27 11 16 13 16 16 -6
2 -15 9 -23 21 -22 9 1 17 -4 17 -12 0 -19 19 -27 34 -15 10 8 17 6 28 -7 25
-28 39 -62 32 -73 -3 -6 -6 -29 -6 -52 1 -55 -12 -71 -18 -23 -8 62 -30 58
-31 -6 l-1 -53 -10 40 c-16 67 -17 70 -30 57 -7 -7 -10 -38 -9 -76 1 -37 -2
-67 -8 -71 -7 -4 -11 14 -11 53 0 64 -6 78 -27 61 -8 -8 -13 -35 -13 -83 0
-94 -16 -68 -18 31 -2 80 -8 98 -31 83 -10 -6 -14 -26 -14 -67 1 -62 -2 -57
-12 20 -3 26 -11 47 -18 47 -7 0 -12 10 -13 23 0 12 -3 58 -7 102 -4 51 -2 84
5 92 13 16 25 17 34 2z m-811 -29 c12 -19 -5 -31 -27 -19 -17 9 -18 13 -7 20
18 11 26 11 34 -1z m-1289 -52 c4 -13 2 -24 -5 -26 -6 -2 -11 -15 -11 -28 0
-14 -5 -24 -12 -23 -33 4 -39 -2 -37 -33 1 -18 1 -49 -1 -68 -2 -34 -3 -34
-14 15 -9 39 -16 50 -32 50 -10 0 -23 6 -27 13 -4 6 -19 12 -32 12 l-23 0 21
50 c22 53 24 54 129 58 30 2 38 -2 44 -20z m68 -17 c-9 -10 -26 18 -18 30 5 9
9 8 14 -7 4 -10 6 -21 4 -23z m-304 -8 c-29 -96 -51 -124 -44 -55 8 68 14 82
33 82 17 0 18 -4 11 -27z m1980 -7 c0 -3 -4 -8 -10 -11 -5 -3 -10 -1 -10 4 0
6 5 11 10 11 6 0 10 -2 10 -4z m-2217 -38 c8 -18 18 -46 21 -63 6 -26 3 -23
-23 18 -31 47 -39 77 -22 77 5 0 15 -15 24 -32z m3873 -53 c2 -12 -7 -33 -26
-55 -30 -34 -43 -22 -15 14 9 12 15 44 16 75 1 54 1 55 11 21 5 -19 11 -44 14
-55z m-3346 49 c0 -16 -16 -19 -25 -4 -8 13 4 32 16 25 5 -4 9 -13 9 -21z
m1321 -44 c5 0 9 -7 9 -15 0 -16 -4 -18 -37 -9 -14 4 -20 11 -16 21 3 8 12 12
20 9 8 -3 19 -6 24 -6z m1929 -9 c0 -12 -20 -25 -27 -18 -7 7 6 27 18 27 5 0
9 -4 9 -9z m-805 -25 c-11 -7 -37 -16 -57 -20 -30 -5 -38 -4 -38 8 0 19 15 24
70 25 40 1 43 0 25 -13z m90 -16 c10 -11 16 -22 13 -25 -10 -10 -58 15 -58 30
0 21 24 19 45 -5z m645 10 c0 -5 -4 -10 -10 -10 -5 0 -10 5 -10 10 0 6 5 10
10 10 6 0 10 -4 10 -10z m-2365 -9 c3 -5 1 -12 -5 -16 -5 -3 -10 1 -10 9 0 18
6 21 15 7z m-861 -28 c-4 -16 -7 -39 -7 -52 1 -14 -3 -19 -8 -14 -12 12 0 93
13 93 6 0 7 -11 2 -27z m3428 -8 c-2 -14 -11 -25 -18 -25 -17 0 -17 5 -4 31
15 27 28 24 22 -6z m-3700 -103 c-9 -26 -21 4 -27 63 l-5 60 18 -55 c10 -30
17 -61 14 -68z m1662 103 c3 -8 1 -15 -4 -15 -6 0 -10 7 -10 15 0 8 2 15 4 15
2 0 6 -7 10 -15z m-1823 -93 c-4 -14 -10 -22 -13 -17 -12 22 -18 67 -12 91 7
26 7 26 19 -10 7 -21 10 -49 6 -64z m1574 88 c3 -5 -1 -10 -9 -10 -9 0 -16 5
-16 10 0 6 4 10 9 10 6 0 13 -4 16 -10z m136 -1 c14 -7 24 -7 33 0 14 12 26 5
26 -15 0 -8 -6 -11 -16 -7 -20 8 -44 -21 -44 -53 0 -12 -7 -24 -15 -28 -8 -3
-15 -17 -15 -31 0 -30 -25 -34 -33 -4 -7 26 -54 24 -49 -3 1 -9 -2 -19 -8 -23
-6 -4 -10 4 -10 19 0 21 -5 26 -25 26 -25 0 -29 -8 -26 -42 1 -10 -3 -18 -8
-18 -6 0 -11 9 -11 20 0 26 -39 48 -51 29 -5 -8 -6 -22 -3 -31 3 -12 0 -18
-10 -18 -10 0 -16 9 -16 25 0 20 -5 25 -25 25 -18 0 -25 -5 -25 -19 0 -29 -18
-35 -22 -9 -4 31 -42 31 -46 1 -3 -19 -10 -23 -38 -23 -30 0 -34 3 -34 25 0
21 -5 25 -31 25 -28 0 -31 -2 -25 -24 12 -49 -33 -44 -51 5 -10 27 -14 29 -32
19 -13 -6 -20 -19 -18 -33 3 -35 -27 -27 -33 8 -7 39 -41 42 -50 5 -8 -33 -37
-39 -42 -8 -5 33 -36 35 -48 3 -12 -31 -34 -29 -38 4 -5 29 -47 26 -47 -4 0
-14 -8 -21 -27 -23 -25 -3 -28 0 -28 28 0 27 -3 31 -22 28 -18 -2 -24 -11 -26
-35 -4 -41 -29 -44 -34 -5 -2 19 -9 27 -23 27 -14 0 -21 -8 -23 -27 -4 -38
-22 -36 -22 2 0 23 -4 30 -20 30 -11 0 -23 -8 -26 -17 -15 -47 -24 -57 -19
-20 5 32 3 37 -15 37 -16 0 -20 6 -20 30 0 22 4 28 15 24 8 -4 15 -11 15 -16
0 -11 360 -5 377 5 5 3 64 8 133 12 69 3 152 8 185 10 33 2 134 7 225 10 181
8 210 14 210 45 0 23 4 24 31 9z m-1031 -13 c0 -3 -4 -8 -10 -11 -5 -3 -10 -1
-10 4 0 6 5 11 10 11 6 0 10 -2 10 -4z m2920 -5 c-54 -17 -110 -61 -117 -91
-3 -17 -10 -30 -14 -30 -10 0 -2 43 12 71 11 21 87 58 119 58 l25 -1 -25 -7z
m-820 -17 c0 -2 -7 -4 -15 -4 -8 0 -15 4 -15 10 0 5 7 7 15 4 8 -4 15 -8 15
-10z m-1790 -4 c0 -5 -5 -10 -11 -10 -5 0 -7 5 -4 10 3 6 8 10 11 10 2 0 4 -4
4 -10z m2610 -22 c-23 -12 -46 -31 -52 -44 -13 -29 -2 -91 19 -102 11 -7 12
-11 4 -17 -7 -4 -18 1 -26 11 -13 17 -16 17 -25 4 -13 -19 -13 -37 0 -45 16
-10 12 -35 -6 -35 -8 0 -12 4 -9 10 3 5 -2 21 -11 35 -20 30 -13 63 23 121 26
41 100 97 116 87 4 -3 -10 -14 -33 -25z m-760 8 c0 -10 20 -19 57 -26 48 -10
57 -10 65 3 7 14 15 13 66 -7 53 -21 114 -27 128 -13 21 21 113 -79 113 -123
1 -10 -6 -7 -18 9 -22 28 -58 23 -46 -7 35 -82 44 -153 25 -197 -6 -14 -9 -1
-9 43 -1 60 -2 63 -23 60 -16 -2 -22 -9 -20 -21 2 -10 -2 -25 -8 -32 -7 -8 -9
-19 -5 -24 3 -6 1 -19 -4 -28 -7 -11 -11 -13 -11 -5 0 8 -9 12 -22 10 -18 -2
-24 -12 -30 -47 -9 -53 -28 -79 -28 -39 0 15 -5 30 -10 33 -17 11 -40 -15 -40
-46 0 -15 -4 -31 -10 -34 -5 -3 -10 1 -10 10 0 24 -33 15 -45 -13 -14 -32 -25
-27 -23 11 3 26 -1 32 -17 32 -14 0 -24 -11 -32 -35 l-12 -35 0 55 c0 33 5 63
14 74 19 26 19 47 0 40 -8 -4 -15 -12 -15 -19 0 -7 -11 -12 -25 -11 -24 1 -25
3 -25 78 0 65 2 76 15 72 10 -4 15 0 15 11 0 9 -9 19 -20 22 -18 5 -19 11 -14
42 7 33 6 35 -9 22 -15 -12 -17 -11 -17 8 0 11 6 21 13 21 6 0 -1 10 -17 23
l-29 23 27 29 c14 15 26 32 26 36 0 5 7 9 15 9 8 0 15 -6 15 -14z m945 2 c-13
-32 -135 -86 -135 -60 0 5 16 13 35 16 19 4 47 18 62 31 31 27 45 32 38 13z
m-3115 -2 c0 -3 -4 -8 -10 -11 -5 -3 -10 -1 -10 4 0 6 5 11 10 11 6 0 10 -2
10 -4z m1160 -25 c0 -12 -23 -31 -37 -31 -17 0 -17 37 0 43 14 5 37 -2 37 -12z
m1988 -8 c-18 -43 -26 -50 -61 -56 -17 -3 -41 -8 -52 -12 -11 -4 4 7 33 24 28
17 58 40 64 51 19 30 29 24 16 -7z m-1098 -6 c0 -7 -5 -18 -12 -25 -9 -9 -7
-17 9 -34 44 -47 74 -208 39 -208 -15 0 -26 50 -26 120 0 32 -8 56 -25 82 -21
31 -22 38 -10 48 8 7 12 16 9 21 -3 5 0 9 5 9 6 0 11 -6 11 -13z m-180 -32 c0
-32 -12 -32 -27 0 -10 22 -9 25 8 25 14 0 19 -7 19 -25z m-2524 -24 c-4 -6
-17 -11 -28 -11 -21 0 -21 1 -3 20 19 21 44 13 31 -9z m3611 -6 c3 -9 3 -18 1
-21 -9 -9 -38 8 -38 22 0 19 29 18 37 -1z m-1810 -37 c-3 -7 -5 -2 -5 12 0 14
2 19 5 13 2 -7 2 -19 0 -25z m2143 22 c0 -5 -4 -10 -10 -10 -5 0 -10 5 -10 10
0 6 5 10 10 10 6 0 10 -4 10 -10z m-2234 -46 c-4 -11 -10 -12 -25 -5 -23 13
-31 5 -32 -33 0 -27 -1 -28 -9 -10 -7 17 -17 21 -54 21 -36 1 -46 -2 -46 -15
0 -12 -3 -13 -12 -4 -26 26 -38 13 -38 -44 0 -36 -4 -53 -11 -49 -6 4 -9 26
-7 49 2 38 1 41 -22 41 -21 0 -25 -5 -27 -30 -2 -55 -6 -60 -12 -20 -5 31 -10
40 -26 40 -16 0 -20 -7 -20 -34 0 -19 -6 -36 -13 -39 -9 -3 -12 4 -11 19 5 54
1 62 -30 56 -15 -3 -33 -1 -39 5 -8 8 -15 8 -27 -2 -11 -9 -19 -9 -28 -2 -14
12 -31 4 -40 -18 -4 -10 -6 -8 -6 8 -1 16 -7 22 -24 22 -13 0 -28 5 -35 12
-16 16 -42 -7 -42 -38 0 -12 -4 -26 -10 -29 -6 -4 -7 11 -3 41 5 41 4 46 -12
43 -20 -4 -30 -20 -41 -64 l-8 -30 -5 40 c-5 32 -11 41 -28 43 -21 3 -23 -1
-23 -37 0 -23 -5 -41 -11 -41 -6 0 -9 17 -7 43 2 37 0 42 -19 45 -17 2 -24 -3
-27 -20 -3 -13 -7 -32 -9 -43 -3 -11 -5 -1 -6 23 -1 46 -20 63 -46 42 -10 -9
-15 -9 -15 -1 0 15 -33 14 -48 -1 -7 -7 -12 -9 -12 -5 0 13 39 46 42 36 4 -12
709 -16 815 -4 40 4 81 13 90 21 15 11 19 10 21 -2 2 -8 1 -22 -2 -30z m949
19 c12 -49 17 -96 18 -173 1 -84 -7 -108 -28 -90 -11 9 -13 44 -12 151 2 136
8 166 22 112z m-2386 1 c10 -9 -45 -3 -59 6 -11 7 -5 8 20 4 19 -4 37 -8 39
-10z m2320 -30 c6 -14 7 -33 2 -46 -4 -13 -6 -29 -4 -35 7 -19 -17 -16 -24 3
-3 9 -1 25 5 35 18 28 15 38 -13 51 -28 12 -25 29 4 21 10 -2 24 -16 30 -29z
m1224 -7 c11 -44 -5 -71 -35 -61 -12 3 -27 -1 -39 -12 -34 -31 -21 5 16 42 40
40 41 42 18 61 -17 12 -16 13 7 11 19 -2 26 -11 33 -41z m157 28 c0 -8 15 -19
33 -24 17 -5 24 -10 15 -10 -9 -1 -24 -8 -32 -17 -13 -12 -17 -13 -20 -2 -10
31 -13 68 -5 68 5 0 9 -7 9 -15z m-3895 -5 c3 -5 -1 -10 -9 -10 -8 0 -18 5
-21 10 -3 6 1 10 9 10 8 0 18 -4 21 -10z m290 0 c3 -5 -1 -10 -10 -10 -9 0
-13 5 -10 10 3 6 8 10 10 10 2 0 7 -4 10 -10z m327 -51 c-5 -47 -7 -47 -15 4
-4 25 -2 37 6 37 9 0 11 -13 9 -41z m2918 0 c0 -28 8 -51 26 -75 15 -19 22
-34 16 -34 -18 0 -62 61 -62 86 0 14 -5 34 -10 45 -9 16 -7 19 10 19 17 0 20
-6 20 -41z m-2980 -4 c0 -40 -26 -50 -32 -12 -2 14 -11 23 -25 25 -19 3 -23
-1 -23 -22 0 -14 -3 -27 -7 -27 -34 -6 -54 -5 -59 2 -3 5 4 9 16 9 13 0 20 5
17 13 -2 6 -11 11 -21 9 -9 -2 -16 1 -16 7 0 7 71 23 138 30 7 1 12 -12 12
-34z m-852 6 c3 -8 -1 -12 -9 -9 -7 2 -15 10 -17 17 -3 8 1 12 9 9 7 -2 15
-10 17 -17z m2012 -17 c0 -17 -5 -24 -20 -24 -14 0 -20 7 -20 24 0 23 17 38
33 29 4 -2 7 -15 7 -29z m1467 14 c-3 -8 -6 -5 -6 6 -1 11 2 17 5 13 3 -3 4
-12 1 -19z m-3640 -4 c-3 -3 -12 -4 -19 -1 -8 3 -5 6 6 6 11 1 17 -2 13 -5z
m1126 -9 c4 -8 2 -17 -3 -20 -6 -4 -10 3 -10 14 0 25 6 27 13 6z m67 -10 c0
-14 -4 -25 -10 -25 -5 0 -10 11 -10 25 0 14 5 25 10 25 6 0 10 -11 10 -25z
m311 -38 c-8 -8 -11 -7 -11 4 0 20 13 34 18 19 3 -7 -1 -17 -7 -23z m179 3 c0
-10 -4 -22 -10 -25 -6 -4 -10 7 -10 25 0 18 4 29 10 25 6 -3 10 -15 10 -25z
m-1075 10 c3 -5 -1 -10 -10 -10 -9 0 -13 5 -10 10 3 6 8 10 10 10 2 0 7 -4 10
-10z m65 0 c0 -5 -4 -10 -10 -10 -5 0 -10 5 -10 10 0 6 5 10 10 10 6 0 10 -4
10 -10z m1301 -37 c-9 -16 -10 -15 -11 8 0 14 3 29 8 33 12 12 14 -22 3 -41z
m-1734 31 c-3 -3 -12 -4 -19 -1 -8 3 -5 6 6 6 11 1 17 -2 13 -5z m140 0 c-3
-3 -12 -4 -19 -1 -8 3 -5 6 6 6 11 1 17 -2 13 -5z m1658 -24 c3 -5 1 -10 -4
-10 -6 0 -11 5 -11 10 0 6 2 10 4 10 3 0 8 -4 11 -10z m2113 -30 c7 0 12 -7
12 -15 0 -17 -32 -20 -61 -5 -19 10 -26 40 -12 53 3 4 16 -2 28 -13 12 -11 27
-20 33 -20z m124 8 c-9 -9 -15 -9 -24 0 -9 9 -7 12 12 12 19 0 21 -3 12 -12z
m-4312 -28 c29 -2 31 -3 12 -8 -23 -7 -85 -8 -147 -2 -29 2 -29 2 -5 9 14 4
43 6 65 5 22 -2 56 -4 75 -4z m3790 -21 c0 -5 -7 -6 -15 -3 -8 4 -15 13 -15
21 0 13 3 13 15 3 8 -7 15 -16 15 -21z m180 10 c0 -5 -7 -9 -15 -9 -15 0 -20
12 -9 23 8 8 24 -1 24 -14z m-4153 5 c-3 -3 -12 -4 -19 -1 -8 3 -5 6 6 6 11 1
17 -2 13 -5z m4067 -3 c3 -4 3 -11 0 -14 -8 -8 -34 3 -34 14 0 11 27 12 34 0z
m-2724 -11 c10 -7 -42 -9 -162 -9 -98 1 -178 5 -178 9 0 12 322 12 340 0z m45
0 c-3 -5 -10 -10 -16 -10 -5 0 -9 5 -9 10 0 6 7 10 16 10 8 0 12 -4 9 -10z
m125 0 c0 -5 -17 -9 -37 -9 -38 1 -38 1 -8 9 43 11 45 11 45 0z m1640 6 c0 -3
-4 -8 -10 -11 -5 -3 -10 -1 -10 4 0 6 5 11 10 11 6 0 10 -2 10 -4z m1553 -3
c10 -18 18 -67 10 -58 -16 18 -33 65 -23 65 5 0 11 -3 13 -7z m-4445 -28 c-11
-9 -128 -14 -128 -6 0 5 24 11 53 13 47 3 83 -1 75 -7z m612 6 c0 -6 -5 -13
-10 -16 -12 -7 -288 -8 -380 -1 -36 3 -81 6 -100 7 -56 4 130 14 318 17 103 1
172 -2 172 -7z m-557 -8 c-7 -2 -21 -2 -30 0 -10 3 -4 5 12 5 17 0 24 -2 18
-5z m4234 -17 c-8 -10 -14 -11 -19 -3 -4 6 -2 15 5 19 17 11 28 -1 14 -16z
m-4485 1 c-31 -7 -46 -7 -54 1 -9 9 1 12 43 11 l54 -1 -43 -11z m3675 -9 c-3
-8 -6 -5 -6 6 -1 11 2 17 5 13 3 -3 4 -12 1 -19z m441 -2 c3 -12 -1 -17 -10
-14 -7 3 -15 13 -16 22 -3 12 1 17 10 14 7 -3 15 -13 16 -22z m92 9 c0 -8 -9
-15 -20 -15 -11 0 -20 7 -20 15 0 8 9 15 20 15 11 0 20 -7 20 -15z m180 5 c0
-5 -11 -10 -25 -10 -14 0 -25 5 -25 10 0 6 11 10 25 10 14 0 25 -4 25 -10z
m-2581 -14 c137 -9 106 -17 -45 -11 -76 2 -204 5 -284 6 -80 0 -134 4 -120 8
27 8 311 6 449 -3z m2222 1 c-1 -12 -15 -9 -19 4 -3 6 1 10 8 8 6 -3 11 -8 11
-12z m-2734 -4 c-20 -2 -52 -2 -70 0 -17 2 0 4 38 4 39 0 53 -2 32 -4z m2573
-8 c7 -8 8 -15 2 -15 -5 0 -15 7 -22 15 -7 8 -8 15 -2 15 5 0 15 -7 22 -15z
m557 9 c-3 -3 -12 -4 -19 -1 -8 3 -5 6 6 6 11 1 17 -2 13 -5z m-2317 -16 c0
-10 -33 -9 -75 2 -25 7 -21 8 23 7 28 0 52 -4 52 -9z m187 -4 c-3 -3 -12 -4
-19 -1 -8 3 -5 6 6 6 11 1 17 -2 13 -5z m2131 -21 c2 -9 -7 -13 -27 -13 -21 0
-31 5 -31 16 0 19 51 16 58 -3z m-298 -9 c0 -8 -5 -12 -10 -9 -6 4 -8 11 -5
16 9 14 15 11 15 -7z m110 5 c0 -5 -14 -9 -31 -9 -16 0 -28 3 -26 8 7 10 57
12 57 1z m70 1 c0 -5 -2 -10 -4 -10 -3 0 -8 5 -11 10 -3 6 -1 10 4 10 6 0 11
-4 11 -10z m-250 -10 c0 -5 -7 -10 -15 -10 -8 0 -15 5 -15 10 0 6 7 10 15 10
8 0 15 -4 15 -10z m-140 -31 c0 -5 -6 -9 -14 -9 -15 0 -28 24 -19 34 7 7 33
-13 33 -25z m60 21 c0 -5 -2 -10 -4 -10 -3 0 -8 5 -11 10 -3 6 -1 10 4 10 6 0
11 -4 11 -10z m-150 -16 c0 -8 -4 -12 -10 -9 -5 3 -10 10 -10 16 0 5 5 9 10 9
6 0 10 -7 10 -16z m-897 -54 c-6 -22 -23 -38 -23 -21 0 17 12 41 20 41 5 0 6
-9 3 -20z m1753 10 c8 0 14 -4 14 -9 0 -11 -49 -1 -57 12 -4 7 0 8 11 4 10 -4
24 -7 32 -7z m0 -85 c8 -21 -24 -67 -43 -63 -21 4 -24 56 -3 68 23 14 40 12
46 -5z m38 -101 c28 -11 17 -20 -19 -16 -19 2 -35 8 -35 13 0 10 31 12 54 3z
m-4799 -39 c-2 -50 -15 -56 -15 -7 0 23 4 42 8 42 4 0 7 -16 7 -35z m51 -53
c-11 -10 -13 3 -7 48 l6 45 3 -44 c2 -23 1 -46 -2 -49z m169 44 c0 -55 -18
-55 -31 -1 -10 44 -9 46 10 43 17 -2 21 -10 21 -42z m73 -3 c-2 -27 -7 -48
-13 -48 -5 0 -11 21 -13 48 -3 38 0 47 13 47 13 0 16 -9 13 -47z m81 -3 c0
-38 -3 -50 -14 -50 -14 0 -17 10 -17 65 0 34 0 35 16 35 9 0 14 -15 15 -50z
m67 5 c0 -25 -5 -46 -11 -48 -11 -2 -19 57 -11 79 11 29 23 12 22 -31z m85 33
c-1 -5 -1 -26 -1 -48 0 -41 -21 -57 -34 -24 -8 21 -8 69 1 78 9 8 34 4 34 -6z
m77 1 c-13 -7 -18 -23 -18 -51 0 -31 -3 -39 -11 -31 -7 7 -8 26 -4 52 5 33 11
41 28 41 20 -1 20 -2 5 -11z m186 2 c62 -1 77 -4 68 -13 -7 -7 -12 -30 -12
-52 0 -48 -13 -40 -15 9 -2 41 -8 50 -30 42 -9 -4 -15 -19 -15 -42 0 -19 -4
-35 -10 -35 -5 0 -10 15 -10 34 0 19 -5 38 -10 41 -18 11 -40 -15 -40 -46 0
-19 -5 -29 -14 -29 -11 0 -13 9 -9 34 3 21 1 36 -7 41 -17 10 -40 -21 -40 -53
0 -13 -4 -21 -9 -17 -6 3 -9 23 -8 45 1 34 5 40 27 42 14 2 32 3 40 2 8 -2 51
-3 94 -3z m329 -8 c3 -4 8 -27 12 -50 6 -36 4 -43 -9 -43 -12 0 -16 10 -16 39
0 43 -9 55 -34 45 -11 -4 -16 -19 -16 -45 0 -29 -4 -39 -16 -39 -11 0 -15 8
-14 28 4 56 1 64 -22 60 -20 -3 -23 -8 -21 -45 1 -24 -2 -43 -7 -43 -5 0 -10
19 -12 43 -2 34 -7 42 -23 42 -16 0 -21 -8 -23 -42 -2 -24 -7 -43 -13 -43 -5
0 -9 6 -9 13 -1 6 -3 28 -6 48 l-5 37 115 1 c63 1 117 -2 119 -6z m345 -51 c2
-29 1 -52 -2 -52 -23 0 -36 16 -36 46 0 27 -4 34 -20 34 -20 0 -23 -5 -24 -45
-2 -36 -21 -27 -26 12 -4 30 -9 38 -25 38 -16 0 -21 -9 -26 -40 l-6 -40 -2 36
c-1 40 -22 57 -41 33 -7 -7 -10 -25 -8 -39 4 -16 1 -25 -8 -25 -8 0 -14 16
-16 43 -3 39 -5 42 -30 40 -16 -1 -28 3 -28 8 0 6 54 9 148 7 l147 -4 3 -52z
m125 35 c-4 -6 -9 -27 -10 -46 -2 -38 -7 -46 -22 -37 -5 4 -7 22 -4 43 6 35 5
36 -20 31 -25 -5 -34 1 -22 14 3 2 23 5 46 6 30 1 38 -1 32 -11z m80 -26 c-7
-52 -11 -61 -27 -61 -10 0 -14 13 -14 49 0 44 2 49 23 49 21 0 23 -4 18 -37z
m77 20 c-5 -11 -10 -34 -10 -51 0 -51 -22 -29 -24 23 -1 43 1 47 22 47 19 0
21 -3 12 -19z m72 7 c-7 -7 -12 -29 -12 -50 0 -56 -17 -46 -22 12 -3 47 -2 50
22 50 19 0 21 -3 12 -12z m68 -38 c0 -36 -4 -50 -14 -50 -10 0 -15 15 -18 50
-2 42 0 50 15 50 14 0 17 -9 17 -50z m206 0 c1 -33 -3 -49 -10 -47 -6 2 -11
19 -11 38 0 28 -4 35 -22 37 -21 3 -23 -1 -23 -37 0 -24 -5 -41 -11 -41 -8 0
-9 13 -5 39 4 28 2 40 -7 44 -24 9 -40 -10 -41 -47 -1 -22 -6 -36 -13 -36 -7
0 -13 6 -14 13 0 6 -2 28 -4 48 l-4 35 82 3 82 2 1 -51z m70 28 c-3 -13 -6
-26 -6 -30 0 -5 -4 -8 -9 -8 -5 0 -11 14 -13 30 -4 25 -1 30 15 30 15 0 18 -5
13 -22z m74 -4 c-6 -14 -10 -36 -10 -50 0 -15 -6 -24 -15 -24 -13 0 -15 7 -9
38 4 20 7 43 7 50 0 6 8 12 18 12 16 0 17 -4 9 -26z m236 -26 c-1 -41 -5 -54
-18 -56 -12 -2 -17 5 -20 30 -2 25 -8 33 -23 33 -14 0 -21 -8 -23 -27 -5 -45
-30 -34 -34 15 -2 34 -7 42 -23 42 -17 0 -20 -6 -19 -42 0 -24 -3 -43 -8 -43
-4 0 -11 0 -15 0 -5 0 -8 23 -8 50 l0 50 96 0 96 0 -1 -52z m61 2 c0 -28 -3
-50 -8 -50 -10 0 -12 83 -2 93 3 4 7 7 7 7 1 0 2 -23 3 -50z m75 38 c-7 -7
-12 -31 -12 -55 0 -24 -4 -43 -10 -43 -11 0 -14 69 -4 94 3 9 13 16 22 16 12
0 13 -3 4 -12z m118 3 c0 -6 -4 -13 -10 -16 -5 -3 -10 -24 -10 -46 0 -36 -2
-39 -29 -39 -28 0 -29 2 -33 55 l-3 55 43 0 c23 0 42 -4 42 -9z m89 -12 c-6
-12 -9 -37 -6 -55 5 -32 4 -34 -22 -34 -37 0 -40 5 -31 46 6 25 4 38 -7 49
-13 13 -9 15 32 15 44 0 45 -1 34 -21z m227 13 c15 -10 5 -102 -11 -102 -16 0
-25 22 -25 61 0 22 -5 29 -19 29 -24 0 -30 -15 -23 -57 4 -28 2 -33 -16 -33
-17 0 -21 7 -24 43 -2 34 -7 42 -23 42 -17 0 -20 -6 -18 -42 1 -30 -2 -43 -12
-43 -9 0 -14 17 -17 54 l-3 55 90 0 c50 0 95 -3 101 -7z m70 -51 c-12 -59 -21
-58 -17 1 2 45 8 61 20 54 4 -3 3 -28 -3 -55z m77 38 c-6 -6 -8 -30 -5 -56 4
-36 2 -45 -9 -41 -17 6 -15 98 3 109 16 10 24 1 11 -12z m179 -45 c-3 -44 -7
-54 -20 -52 -11 2 -16 15 -16 48 -1 38 -4 45 -21 45 -17 0 -20 -7 -20 -48 0
-45 -1 -47 -27 -47 -28 0 -33 9 -29 52 1 10 -3 26 -9 38 -10 19 -8 20 67 20
l78 0 -3 -56z m64 1 c0 -41 -4 -55 -14 -55 -10 0 -12 7 -8 23 3 12 6 37 6 55
0 17 3 32 8 32 4 0 7 -25 8 -55z m279 -5 c0 -38 -4 -60 -11 -60 -8 0 -11 19
-10 53 1 46 -1 52 -19 52 -17 0 -21 -8 -25 -50 l-5 -50 -7 44 c-7 48 -20 67
-38 56 -8 -5 -10 -23 -6 -56 6 -45 5 -49 -14 -49 -16 0 -20 6 -20 36 0 46 -16
75 -36 67 -12 -4 -15 -17 -12 -52 3 -40 1 -46 -17 -46 -17 0 -19 6 -16 50 1
27 5 53 7 57 3 5 56 8 117 8 l112 0 0 -60z m83 -3 c2 -45 0 -57 -12 -57 -21 0
-44 99 -25 111 25 16 34 3 37 -54z m55 33 c-3 -11 -7 -20 -9 -20 -2 0 -4 9 -4
20 0 11 4 20 9 20 5 0 7 -9 4 -20z m201 -40 c-1 -40 -5 -55 -15 -55 -9 0 -13
9 -11 26 4 40 -14 80 -33 73 -10 -4 -15 -20 -15 -50 0 -58 -14 -56 -26 3 -10
50 -30 67 -42 34 -7 -19 -8 -19 -19 5 l-11 25 86 -3 87 -3 -1 -55z m72 -6 c2
-40 0 -54 -9 -51 -15 5 -21 40 -12 84 9 48 18 34 21 -33z m64 12 c0 -56 -19
-91 -21 -39 0 15 -2 39 -4 53 -3 28 2 40 16 40 5 0 9 -24 9 -54z m67 1 c-9
-63 -27 -70 -27 -11 0 53 6 68 23 57 5 -3 7 -24 4 -46z m70 -12 c-2 -46 -5
-55 -20 -55 -17 0 -18 6 -12 53 8 59 13 70 25 62 5 -3 8 -30 7 -60z m219 -1
c7 -60 5 -68 -19 -58 -13 4 -16 19 -16 57 1 29 3 55 6 60 10 17 22 -7 29 -59z
m-136 1 c0 -48 -3 -55 -19 -55 -24 0 -34 28 -25 75 4 25 11 35 25 35 16 0 19
-8 19 -55z m61 30 c4 -77 3 -85 -8 -85 -9 0 -13 18 -13 55 0 54 19 80 21 30z
m137 -19 c1 -24 3 -50 4 -57 2 -7 -4 -14 -12 -16 -13 -3 -16 8 -18 57 -2 46 1
60 11 60 10 0 15 -13 15 -44z m61 2 c0 -24 -4 -52 -9 -63 -10 -22 -13 -13 -10
28 1 15 -4 35 -11 43 -10 13 -10 17 2 25 25 15 29 10 28 -33z m61 -9 c0 -32 3
-39 20 -39 17 0 20 7 20 45 0 34 4 45 15 45 13 0 15 -11 13 -57 l-3 -57 -48 0
c-53 1 -67 8 -49 26 7 7 12 29 12 51 0 23 4 36 10 32 6 -3 10 -24 10 -46z
m-4573 19 c-3 -8 -6 -5 -6 6 -1 11 2 17 5 13 3 -3 4 -12 1 -19z m3707 -34 c6
-24 2 -44 -8 -33 -9 11 -15 59 -7 59 5 0 12 -12 15 -26z m-1699 6 c3 -5 1 -10
-4 -10 -6 0 -11 5 -11 10 0 6 2 10 4 10 3 0 8 -4 11 -10z m2538 -1360 c9 0 17
-4 17 -10 0 -13 -87 -13 -94 -1 -8 12 14 21 39 16 11 -3 28 -5 38 -5z m-135
-98 c4 -14 -65 -17 -95 -4 -13 5 -6 9 27 13 55 7 63 6 68 -9z m127 -2 c16 -7
11 -9 -22 -9 -23 -1 -45 4 -48 9 -8 12 42 12 70 0z m-128 -106 c4 -12 -65 -6
-73 7 -3 5 11 8 32 7 21 -2 39 -8 41 -14z m153 6 c0 -6 -22 -10 -50 -10 -27 0
-50 4 -50 9 0 4 23 9 50 10 28 0 50 -4 50 -9z m9 -46 c56 -11 33 -24 -44 -24
-69 0 -86 6 -68 23 8 9 71 9 112 1z m87 -71 l-1 -48 -109 -3 c-97 -3 -108 -2
-97 12 7 8 10 24 6 35 -6 20 6 21 105 8 10 -1 87 32 96 42 0 1 0 -20 0 -46z
m-4793 -40 c-7 -2 -21 -2 -30 0 -10 3 -4 5 12 5 17 0 24 -2 18 -5z m1342 -9
c94 -2 199 -4 235 -3 251 6 1518 -6 1615 -16 28 -2 237 -7 465 -11 228 -3 471
-7 540 -9 207 -7 569 -7 579 0 13 7 22 -10 15 -28 -5 -13 -45 -15 -302 -12
-351 5 -664 12 -817 20 -60 3 -238 8 -395 11 -157 3 -346 7 -420 9 -74 2 -400
6 -725 10 -324 3 -684 8 -800 10 -115 3 -424 7 -685 10 -490 5 -577 8 -588 20
-7 7 937 -1 1283 -11z M2938 3269 c-21 -12 -24 -29 -4 -29 7 0 16 -9 19 -20 4
-17 11 -19 39 -14 49 10 55 20 28 49 -25 26 -53 31 -82 14z M3050 2603 c0 -21
29 -33 89 -38 34 -3 66 -7 71 -10 5 -3 12 0 16 6 10 16 -24 39 -55 38 -14 -1
-47 2 -73 6 -31 5 -48 4 -48 -2z M3785 2970 c-7 -11 2 -25 39 -67 23 -27 47
-15 39 20 -12 46 -61 75 -78 47z M1394 3206 c-8 -20 5 -39 22 -32 8 3 14 -1
14 -10 0 -9 7 -14 18 -12 26 5 23 53 -3 53 -11 0 -26 4 -33 8 -7 5 -14 3 -18
-7z M2147 3123 c-11 -10 -8 -51 4 -59 18 -10 32 13 25 40 -6 26 -16 32 -29 19z
M4132 3184 c2 -15 9 -29 16 -32 10 -3 13 4 10 24 -2 15 -9 29 -16 32 -10 3
-13 -4 -10 -24z M4289 3163 c12 -43 91 -59 91 -17 0 11 -6 15 -20 11 -11 -3
-30 3 -44 14 -32 25 -36 24 -27 -8z M4074 3138 c3 -13 6 -33 6 -45 0 -13 6
-23 14 -23 24 0 28 17 12 55 -17 39 -42 49 -32 13z M4210 3036 c0 -9 7 -16 16
-16 17 0 14 22 -4 28 -7 2 -12 -3 -12 -12z M4752 278 c5 -15 28 -18 29 -3 0 6
-7 12 -17 13 -10 3 -15 -1 -12 -10z M1524 8668 l-19 -23 23 19 c21 18 27 26
19 26 -2 0 -12 -10 -23 -22z M2755 8148 c-65 -36 -83 -89 -50 -152 16 -30 12
-66 -11 -101 -16 -25 -34 -132 -34 -203 l0 -53 -45 4 c-25 3 -63 3 -84 0 l-39
-5 2 -69 c1 -38 4 -71 7 -73 2 -2 38 -7 79 -9 41 -3 76 -6 76 -6 1 -1 7 -30
14 -65 11 -60 11 -65 -9 -85 -20 -20 -21 -22 -4 -49 9 -15 22 -34 29 -42 9
-11 14 -145 18 -520 4 -278 8 -606 11 -730 3 -124 7 -598 10 -1055 l5 -830 43
-38 c73 -66 98 -66 136 -1 26 44 26 21 36 1879 l8 1279 23 44 c24 45 23 72 -3
72 -11 0 -13 5 -8 18 5 9 12 41 18 70 l10 52 57 0 c78 0 94 14 91 81 -2 72
-13 79 -123 79 l-88 0 0 58 c0 64 -28 231 -41 248 -6 7 -2 18 10 28 15 14 18
26 14 54 -9 55 -33 90 -78 112 -47 23 -53 23 -80 8z m76 -61 c35 -32 42 -64
18 -88 -10 -10 -19 -25 -19 -33 0 -48 -51 -19 -81 46 l-22 48 23 25 c29 31 47
31 81 2z m-6 -235 c0 -41 3 -47 25 -52 21 -5 22 -7 8 -13 -25 -9 -23 -37 2
-37 11 0 20 -4 20 -10 0 -5 -7 -10 -15 -10 -8 0 -15 -9 -15 -20 0 -11 7 -20
15 -20 8 0 15 -4 15 -10 0 -5 -6 -10 -14 -10 -7 0 -20 -9 -28 -21 -12 -19 -19
-20 -70 -14 l-56 7 3 77 c3 81 20 168 36 187 7 9 19 9 42 2 30 -9 32 -13 32
-56z m123 -262 c78 0 142 -3 142 -7 0 -5 3 -18 6 -30 6 -20 2 -22 -42 -23
-116 -4 -148 -4 -320 -2 l-182 2 -5 27 c-3 16 -3 32 0 37 4 5 60 6 132 2 69
-4 190 -7 269 -6z m-63 -108 c5 -1 4 -7 -3 -14 -20 -20 -14 -28 25 -28 53 0
27 -17 -29 -19 -32 -2 -20 -30 15 -34 30 -4 30 -5 9 -12 -16 -5 -22 -13 -19
-26 5 -17 -2 -18 -72 -17 l-77 1 -12 51 c-15 63 -15 93 -2 98 10 3 146 3 165
0z m-100 -181 c22 -1 54 3 69 9 19 7 31 7 35 1 4 -6 12 -6 21 -1 23 15 30 12
30 -10 0 -19 -6 -20 -97 -19 -54 1 -109 4 -123 8 -24 7 -24 7 -5 18 11 6 22 8
25 4 3 -4 23 -8 45 -10z m32 -1641 l3 -1574 -24 24 -24 25 -7 1060 c-3 583 -8
1125 -10 1205 -4 135 -9 785 -6 821 1 12 10 16 34 15 l32 -2 2 -1574z m86 445
c-1 -1150 -9 -1974 -20 -2000 -3 -8 -9 -15 -14 -15 -9 0 -11 3128 -2 3143 3 4
12 7 21 5 16 -3 17 -89 15 -1133z M3515 8141 c-57 -24 -76 -86 -46 -145 11
-21 17 -44 13 -50 -3 -6 -8 -15 -9 -21 -1 -5 -9 -37 -18 -70 -8 -33 -15 -97
-15 -142 l0 -82 -112 -3 -113 -3 3 -55 c4 -54 17 -84 32 -75 5 3 11 1 15 -5 3
-5 33 -10 65 -10 68 0 74 -6 85 -84 7 -44 5 -51 -16 -67 l-24 -18 32 -45 32
-45 1 -168 c0 -92 2 -184 4 -203 3 -33 7 -209 22 -980 4 -179 8 -363 9 -410 1
-47 6 -370 10 -719 l8 -634 40 -36 c70 -64 88 -68 114 -26 47 75 44 17 63
1580 18 1515 19 1597 31 1611 18 22 15 82 -4 97 -16 11 -16 18 -6 67 16 73 22
79 67 71 44 -8 72 -4 72 11 0 6 6 16 14 22 7 6 16 32 19 57 6 44 5 48 -21 57
-15 6 -63 10 -107 9 l-80 -2 -2 40 c-1 22 -6 67 -11 100 -5 33 -7 66 -5 73 3
7 0 18 -5 25 -17 20 -26 93 -13 101 15 10 14 70 -3 110 -26 62 -85 90 -141 67z
m89 -63 c30 -43 18 -94 -27 -111 -22 -8 -35 -39 -19 -45 7 -2 12 -10 12 -18 0
-8 7 -14 15 -14 8 0 15 -4 15 -9 0 -5 -7 -11 -15 -15 -25 -9 -18 -35 9 -33 35
3 36 -17 1 -23 -19 -3 -31 -12 -33 -24 -3 -16 0 -18 25 -13 16 3 34 2 40 -1
19 -12 1 -27 -32 -27 -20 0 -31 -6 -33 -17 -2 -13 5 -17 33 -20 38 -3 49 -23
12 -23 -15 0 -22 -6 -22 -20 0 -23 -52 -40 -72 -23 -23 19 -10 250 18 317 7
18 6 28 -6 41 -24 26 -16 72 15 87 35 18 47 16 64 -9z m16 -492 c36 -3 102 -5
148 -5 l82 -1 0 -32 0 -33 -223 2 c-122 0 -253 2 -290 2 l-68 1 3 32 3 32 77
1 c42 0 80 3 83 7 4 3 32 4 63 2 31 -2 86 -6 122 -8z m-37 -117 c-26 -26 -14
-39 32 -39 45 0 64 -14 24 -17 -40 -3 -52 -43 -13 -43 8 0 14 -4 14 -8 0 -22
-29 -32 -92 -32 -77 0 -79 2 -91 92 -7 53 -8 52 83 57 44 2 53 0 43 -10z m120
-165 c3 -3 4 -11 1 -17 -6 -17 -246 -16 -252 1 -2 8 29 12 110 15 62 1 118 4
124 5 6 1 13 -1 17 -4z m-153 -246 c1 -95 2 -254 4 -353 2 -99 7 -727 11
-1395 6 -1099 6 -1214 -8 -1200 -20 19 -25 134 -32 720 -3 234 -7 524 -10 645
-3 121 -7 380 -10 575 -4 195 -8 364 -10 375 -2 11 -7 197 -9 413 l-5 392 34
0 35 0 0 -172z m134 62 c-1 -58 -4 -472 -8 -920 -3 -448 -8 -932 -11 -1075 -3
-143 -7 -422 -10 -620 -5 -333 -12 -415 -34 -415 -3 0 -6 134 -6 298 0 163 -4
761 -9 1327 -5 567 -10 1139 -10 1273 l-1 243 45 -3 45 -3 -1 -105z m16 -1130
c0 -5 -5 -10 -11 -10 -5 0 -7 5 -4 10 3 6 8 10 11 10 2 0 4 -4 4 -10z M4268
8133 c-21 -5 -51 -69 -51 -107 0 -20 9 -38 30 -57 22 -19 28 -30 21 -37 -16
-16 -40 -136 -45 -224 -3 -43 -8 -78 -11 -79 -4 0 -53 -3 -110 -5 -56 -2 -111
-8 -122 -14 -27 -14 -26 -69 1 -104 17 -22 28 -26 73 -26 86 0 117 -9 114 -34
-1 -11 1 -40 6 -64 7 -36 5 -46 -9 -56 -16 -12 -16 -16 8 -58 23 -41 25 -56
26 -179 1 -129 4 -298 16 -894 2 -154 8 -539 11 -855 3 -316 8 -640 10 -720 2
-80 3 -234 4 -343 l0 -198 54 -57 c50 -50 57 -55 79 -45 13 6 35 34 50 65 l26
53 5 430 c3 237 8 822 11 1300 6 1027 13 1397 24 1405 16 9 25 100 11 100 -9
0 -11 13 -5 53 4 28 7 60 7 70 -1 15 11 17 104 17 57 0 105 3 105 8 6 31 5
113 -1 122 -8 12 -50 17 -172 19 l-68 1 0 54 c0 65 -23 187 -44 237 -14 33
-14 39 5 76 25 51 18 83 -27 123 -28 24 -43 30 -77 29 -23 -1 -49 -3 -59 -6z
m105 -50 c31 -35 26 -68 -19 -127 -37 -49 -38 -60 -2 -61 29 0 34 -23 6 -27
-13 -2 -24 -11 -26 -22 -3 -14 0 -17 12 -13 21 8 69 -10 61 -23 -3 -5 -15 -10
-25 -10 -20 0 -36 -17 -26 -27 3 -3 18 -6 33 -7 37 -1 38 -30 1 -34 -35 -4
-37 -30 -3 -34 32 -4 37 -22 8 -26 -32 -5 -29 -32 3 -32 15 0 23 -4 19 -10 -4
-6 -37 -10 -75 -9 l-69 2 -6 37 c-7 42 8 145 37 243 18 65 19 70 2 88 -9 10
-13 19 -9 19 4 0 0 9 -10 20 -15 17 -16 24 -7 45 9 19 19 25 45 25 20 0 41 -7
50 -17z m137 -507 c36 -1 86 -3 113 -4 43 -2 47 -4 47 -26 0 -14 -5 -28 -12
-32 -10 -7 -134 -6 -543 1 -108 2 -105 1 -105 35 l0 29 108 4 c96 2 197 1 392
-7z m-150 -112 c0 -8 14 -17 30 -21 30 -5 30 -6 10 -20 -30 -21 -24 -33 15
-33 19 0 35 -4 35 -10 0 -5 -8 -10 -19 -10 -20 0 -45 -23 -35 -33 4 -3 -11 -4
-32 -3 -22 2 -60 4 -86 5 -46 1 -47 2 -57 39 -6 20 -11 49 -11 64 0 24 4 27
38 30 92 8 112 6 112 -8z m100 -175 c0 -16 -48 -23 -130 -20 -93 3 -123 8
-115 21 6 10 245 9 245 -1z m-134 -72 c3 -3 5 -340 4 -749 -1 -408 -3 -1115
-4 -1570 -1 -607 -4 -828 -12 -828 -33 0 -33 -15 -50 1320 -3 250 -7 529 -9
620 -2 91 -7 401 -11 690 l-7 525 42 -2 c23 0 45 -3 47 -6z m108 -217 c-2
-113 -6 -680 -9 -1260 -4 -1026 -11 -1604 -21 -1645 -6 -28 -42 -68 -54 -60
-6 3 -7 12 -3 18 12 18 11 -25 17 1297 4 679 8 1330 11 1445 2 116 5 258 5
317 0 103 1 107 23 110 12 2 25 -1 29 -7 4 -5 5 -102 2 -215z M91 7934 c0 -11
3 -14 6 -6 3 7 2 16 -1 19 -3 4 -6 -2 -5 -13z M2650 2239 c0 -5 5 -7 10 -4 6
3 10 8 10 11 0 2 -4 4 -10 4 -5 0 -10 -5 -10 -11z M4084 1108 c-4 -13 -10 -61
-13 -108 l-6 -85 -60 3 c-32 1 -62 8 -66 14 -11 18 -62 17 -75 0 -9 -12 -54
-15 -250 -18 -304 -5 -737 -13 -1064 -20 -140 -3 -714 -6 -1275 -7 l-1020 -2
-57 -40 c-32 -22 -57 -44 -58 -48 0 -11 41 -48 84 -74 34 -21 50 -22 314 -28
281 -6 851 -23 997 -30 147 -7 378 -15 620 -20 132 -3 332 -8 445 -12 113 -3
302 -7 420 -8 301 -4 758 -15 803 -20 21 -3 48 -10 60 -17 12 -7 55 -13 95
-14 40 -1 76 -4 80 -8 4 -4 7 -57 7 -118 1 -127 5 -133 81 -124 70 9 77 19 71
96 -3 36 -2 89 2 119 l6 55 50 13 c28 7 82 17 121 23 89 12 157 37 150 56 -7
19 12 18 31 -2 26 -25 101 -10 141 29 31 30 33 36 30 84 -5 62 -25 88 -79 104
-43 13 -122 -1 -151 -28 -13 -12 -27 -13 -55 -8 -21 5 -45 10 -53 11 -8 2 -48
6 -89 9 -41 3 -78 8 -83 11 -4 3 -8 51 -8 108 0 66 -4 106 -12 114 -7 7 -38
12 -69 12 -50 0 -58 -3 -65 -22z m95 -18 c11 0 12 -49 6 -302 -4 -167 -8 -330
-9 -363 -1 -59 -1 -60 -32 -63 l-31 -3 -6 143 c-3 79 -4 157 -2 173 2 17 5
109 5 205 2 208 5 224 34 216 11 -3 27 -6 35 -6z m-251 -260 c0 -41 -1 -42 -8
-15 -4 17 -8 46 -8 65 -1 28 1 31 8 15 5 -11 8 -40 8 -65z m-63 -10 l0 -55
-265 0 c-284 1 -1520 15 -1710 20 -269 7 -914 19 -1020 18 -63 0 -223 -1 -355
-2 -132 -2 -249 1 -259 5 -13 5 -23 2 -32 -11 -8 -10 -17 -15 -21 -11 -5 5 9
22 29 39 l38 30 202 4 c355 6 380 6 553 -1 245 -10 994 -11 1465 -3 579 11
833 17 836 20 1 1 123 2 271 2 l268 0 0 -55z m198 8 c-3 -133 -2 -128 -22
-128 -14 0 -21 8 -23 28 -2 19 -9 28 -24 30 -20 3 -22 8 -19 60 2 31 4 58 4
60 1 2 20 2 43 0 l42 -3 -1 -47z m626 18 c30 -32 22 -86 -16 -116 -52 -41
-111 -13 -120 59 -5 38 -3 46 18 62 35 27 90 25 118 -5z m-316 -1 c59 -8 111
-16 116 -19 16 -10 20 -76 7 -107 l-13 -31 -6 31 c-5 23 -12 31 -27 31 -18 0
-20 -5 -18 -37 2 -28 -1 -38 -12 -38 -9 0 -14 8 -13 20 5 38 -7 65 -27 65 -17
0 -20 -7 -20 -51 0 -43 -3 -50 -17 -47 -15 3 -17 12 -15 49 3 35 0 48 -12 52
-9 4 -20 -1 -25 -11 -9 -15 -10 -14 -11 7 0 20 -4 23 -28 18 -27 -5 -28 -4
-24 26 8 66 -6 62 145 42z m-4053 -90 c0 -8 -6 -15 -14 -15 -17 0 -28 14 -19
24 12 12 33 6 33 -9z m128 -2 c2 -9 -11 -13 -48 -13 -46 0 -51 2 -40 16 16 18
81 16 88 -3z m80 -1 c2 -7 -6 -12 -17 -12 -21 0 -27 11 -14 24 9 9 26 2 31
-12z m76 12 c25 -9 19 -24 -9 -24 -24 0 -32 10 -18 23 8 8 8 8 27 1z m111 -14
c3 -5 -1 -10 -9 -10 -9 0 -19 0 -23 -1 -4 0 -9 4 -11 10 -5 14 35 14 43 1z
m75 0 c0 -5 -4 -10 -10 -10 -5 0 -10 5 -10 10 0 6 5 10 10 10 6 0 10 -4 10
-10z m118 -8 c2 -7 -6 -12 -17 -12 -21 0 -27 11 -14 24 9 9 26 2 31 -12z m112
-3 c0 -5 -7 -9 -15 -9 -9 0 -12 6 -9 15 6 15 24 11 24 -6z m64 5 c8 -22 9 -21
-18 -21 -22 0 -23 2 -13 18 14 23 23 24 31 3z m74 4 c19 -19 14 -28 -13 -28
-27 0 -28 1 -19 24 7 19 16 20 32 4z m70 -16 c2 -7 -5 -12 -17 -12 -14 0 -19
5 -14 15 6 17 25 15 31 -3z m66 3 c4 -10 -1 -15 -14 -15 -11 0 -20 7 -20 15 0
8 6 15 14 15 8 0 16 -7 20 -15z m106 -7 c0 -16 -3 -19 -11 -11 -6 6 -8 16 -5
22 11 17 16 13 16 -11z m207 -10 c-3 -8 -6 -5 -6 6 -1 11 2 17 5 13 3 -3 4
-12 1 -19z m73 -11 c0 -5 -4 -5 -10 -2 -5 3 -10 14 -10 23 0 15 2 15 10 2 5
-8 10 -19 10 -23z m80 19 c0 -8 -4 -17 -9 -21 -12 -7 -24 12 -16 25 9 15 25
12 25 -4z m150 -2 c0 -8 -5 -12 -10 -9 -6 4 -8 11 -5 16 9 14 15 11 15 -7z
m60 2 c0 -8 -4 -18 -10 -21 -5 -3 -10 3 -10 14 0 12 5 21 10 21 6 0 10 -6 10
-14z m-102 -8 c-6 -18 -25 -20 -31 -3 -5 10 0 15 14 15 12 0 19 -5 17 -12z
m169 -3 c7 -20 -2 -29 -21 -22 -9 4 -13 13 -10 22 8 19 23 19 31 0z m53 -1 c0
-8 -5 -12 -10 -9 -6 4 -8 11 -5 16 9 14 15 11 15 -7z m190 -10 c0 -16 -16 -19
-25 -4 -8 13 4 32 16 25 5 -4 9 -13 9 -21z m1997 -26 c-2 -13 -4 -5 -4 17 -1
22 1 32 4 23 2 -10 2 -28 0 -40z m-2072 32 c3 -5 1 -10 -4 -10 -6 0 -11 5 -11
10 0 6 2 10 4 10 3 0 8 -4 11 -10z m245 -5 c0 -8 -4 -15 -10 -15 -5 0 -10 7
-10 15 0 8 5 15 10 15 6 0 10 -7 10 -15z m80 0 c0 -16 -27 -32 -37 -22 -3 4
-3 13 0 22 8 20 37 20 37 0z m57 -7 c-3 -8 -6 -5 -6 6 -1 11 2 17 5 13 3 -3 4
-12 1 -19z m68 13 c3 -5 1 -12 -5 -16 -5 -3 -10 1 -10 9 0 18 6 21 15 7z m123
-13 c-2 -13 -7 -23 -13 -23 -5 0 -11 10 -13 23 -2 15 2 22 13 22 11 0 15 -7
13 -22z m68 2 c0 -11 -4 -20 -8 -20 -4 0 -8 2 -8 4 0 2 -3 11 -6 20 -4 10 -1
16 8 16 7 0 14 -9 14 -20z m61 -17 c-3 -10 -5 -4 -5 12 0 17 2 24 5 18 2 -7 2
-21 0 -30z m183 12 c0 -14 -4 -25 -10 -25 -5 0 -10 11 -10 25 0 14 5 25 10 25
6 0 10 -11 10 -25z m60 4 c0 -5 -4 -9 -10 -9 -5 0 -10 7 -10 16 0 8 5 12 10 9
6 -3 10 -10 10 -16z m62 -4 c6 -27 0 -38 -13 -29 -12 7 -12 54 0 54 5 0 11
-11 13 -25z m58 0 c0 -14 -4 -25 -9 -25 -4 0 -6 11 -3 25 2 14 6 25 8 25 2 0
4 -11 4 -25z m56 -33 c-12 -12 -18 8 -10 35 l8 28 4 -28 c2 -16 1 -31 -2 -35z
m254 22 c0 -45 -21 -41 -26 4 -3 23 0 32 11 32 11 0 15 -11 15 -36z m70 0 c0
-24 -4 -34 -12 -31 -12 3 -18 41 -10 60 9 20 22 3 22 -29z m69 -11 c1 -7 -3
-13 -9 -13 -5 0 -10 15 -9 33 0 27 2 29 9 12 5 -11 9 -26 9 -32z m139 11 c1
-24 -3 -34 -11 -31 -14 4 -21 32 -13 53 10 26 23 15 24 -22z m-422 -22 c-11
-10 -15 4 -8 28 l7 25 3 -23 c2 -13 1 -26 -2 -30z m70 1 c-10 -26 -29 1 -21
28 7 20 8 21 17 5 5 -9 7 -24 4 -33z m284 30 c0 -20 -17 -50 -24 -43 -2 3 -2
17 1 33 6 30 23 37 23 10z m130 -47 c-7 -7 -10 4 -9 30 1 39 1 39 10 9 5 -18
5 -33 -1 -39z m97 2 c-3 -7 -5 -2 -5 12 0 14 2 19 5 13 2 -7 2 -19 0 -25z m13
-28 c0 -5 -4 -10 -10 -10 -5 0 -10 5 -10 10 0 6 5 10 10 10 6 0 10 -4 10 -10z"/>
</g>
</svg>
