<?xml version="1.0" standalone="no"?>
<!DOCTYPE svg PUBLIC "-//W3C//DTD SVG 20010904//EN"
 "http://www.w3.org/TR/2001/REC-SVG-20010904/DTD/svg10.dtd">
<svg version="1.0" xmlns="http://www.w3.org/2000/svg"
 width="500.000000pt" height="878.000000pt" viewBox="0 0 500.000000 878.000000"
 preserveAspectRatio="xMidYMid meet">
<metadata>
Created by potrace 1.16, written by Peter Selinger 2001-2019
</metadata>
<g transform="translate(0.000000,878.000000) scale(0.100000,-0.100000)"
fill="#000000" stroke="none">
<path d="M2017 8632 c-9 -2 -17 -8 -17 -13 0 -5 29 -9 65 -9 l65 0 50 -106
c28 -59 50 -111 50 -116 0 -5 -12 -9 -27 -8 -72 5 -173 -1 -173 -10 0 -6 146
-9 410 -7 225 1 410 5 410 10 0 7 -22 11 -52 9 -10 -1 -29 3 -43 8 -26 10 -26
10 -23 112 l3 103 88 -2 c48 -1 87 2 87 6 0 16 -24 18 -190 20 -91 1 -282 2
-426 4 -143 1 -268 1 -277 -1z m518 -44 c3 -13 6 -63 8 -113 l2 -90 -113 1
c-62 0 -117 5 -122 10 -5 5 6 47 29 104 l37 95 55 6 c98 11 98 11 104 -13z
m144 4 c4 -7 7 -57 7 -110 l-2 -97 -44 0 -45 0 -3 107 c-2 95 -1 107 15 110
35 7 64 3 72 -10z m-347 3 c6 -7 -54 -175 -63 -175 -6 0 -79 159 -79 173 0 8
134 10 142 2z M2564 7046 c-10 -7 -30 -17 -44 -21 -32 -9 -70 -44 -70 -64 0
-17 -16 -63 -43 -123 -10 -21 -17 -48 -17 -60 0 -34 -19 -96 -31 -104 -6 -4
-15 -1 -19 6 -5 8 -15 10 -26 5 -11 -4 -27 -7 -36 -6 -10 1 -18 -4 -18 -12 0
-17 -27 -31 -52 -28 -20 2 -22 -7 -8 -29 6 -10 4 -20 -6 -31 -13 -14 -13 -18
1 -29 17 -14 3 -50 -20 -50 -22 0 -18 -18 5 -25 23 -7 27 -33 5 -41 -8 -4 -15
-14 -15 -23 -1 -9 -30 -52 -66 -96 -35 -44 -72 -96 -81 -117 l-16 -36 -65 34
c-36 19 -78 46 -95 60 -31 26 -90 54 -113 54 -16 0 -84 -98 -84 -120 0 -8 41
-39 95 -70 87 -51 120 -79 78 -66 -28 8 -73 17 -138 27 -86 13 -85 13 -74 51
5 18 12 53 15 78 4 25 10 55 15 67 5 13 11 60 15 106 5 68 11 87 31 108 34 37
42 75 27 133 -11 43 -50 94 -73 97 -88 10 -144 -12 -167 -67 -19 -45 -17 -81
6 -131 10 -24 15 -43 11 -43 -18 0 -131 -255 -131 -297 0 -7 6 -13 14 -13 9 0
21 22 31 58 9 31 37 101 63 155 35 74 50 96 62 91 8 -3 31 -8 50 -10 19 -3 39
-9 44 -14 11 -11 3 -65 -35 -232 l-24 -107 -40 5 c-83 12 -295 80 -350 113
-46 27 -108 36 -124 18 -15 -19 -40 -117 -34 -134 3 -7 15 -13 27 -13 11 0 41
-7 66 -15 25 -8 71 -22 102 -31 l57 -15 -14 -47 c-27 -93 -34 -176 -16 -195 4
-4 2 -31 -6 -60 -8 -29 -25 -92 -39 -142 -13 -49 -31 -115 -40 -145 -33 -114
-66 -237 -79 -290 -17 -73 -91 -348 -115 -430 -11 -36 -45 -157 -75 -270 -108
-398 -94 -359 -134 -380 -20 -10 -58 -41 -84 -68 l-49 -50 7 -76 c4 -41 13
-80 20 -86 18 -15 31 6 15 25 -7 8 -10 24 -7 35 3 11 1 37 -5 57 -10 37 -10
37 48 90 33 29 62 53 66 53 12 0 -4 -85 -20 -102 -20 -24 -36 -23 -29 2 6 25
-10 27 -17 2 -7 -21 0 -131 8 -139 10 -10 7 -61 -3 -68 -6 -3 -14 3 -20 12
-15 27 -16 26 -115 -162 -18 -33 -67 -121 -109 -196 -71 -125 -77 -140 -69
-170 16 -63 87 -44 137 35 16 25 30 44 32 42 6 -5 -52 -214 -71 -260 -46 -110
12 -176 94 -108 26 22 41 50 65 118 22 64 35 88 46 85 29 -9 74 -1 100 18 18
14 30 16 37 9 10 -10 113 77 282 238 314 298 345 321 380 279 40 -49 178 -34
315 35 44 22 83 40 87 40 3 0 15 -16 27 -35 11 -19 27 -35 34 -35 8 0 20 -7
27 -15 16 -19 56 -12 85 15 12 11 26 20 31 20 17 0 104 95 104 114 0 15 3 16
15 6 10 -9 19 -9 28 -2 6 5 28 13 47 17 19 4 41 12 49 19 8 6 27 11 43 12 16
1 37 9 46 18 22 19 96 46 128 46 13 0 24 4 24 9 0 9 40 19 101 25 l37 4 7 -52
c4 -28 6 -140 6 -250 -1 -142 2 -202 11 -213 9 -11 9 -16 0 -22 -11 -7 -41
-183 -43 -261 -2 -54 16 -123 35 -139 20 -17 26 8 15 60 -11 48 -10 133 2 199
4 25 10 74 13 109 7 79 13 87 21 24 3 -26 8 -60 10 -75 3 -20 -1 -31 -15 -38
-17 -9 -20 -21 -20 -75 0 -67 16 -118 34 -112 11 4 11 78 1 125 -3 12 -2 22 3
22 7 0 15 -41 37 -190 5 -34 5 -34 -6 -7 -6 15 -16 26 -22 24 -21 -7 -8 -69
39 -187 36 -89 56 -125 90 -160 24 -25 44 -51 44 -58 0 -20 -62 -52 -102 -52
-31 0 -38 4 -38 19 0 23 -41 33 -91 22 -39 -8 -52 -7 -132 9 -32 6 -66 8 -76
5 -26 -8 -117 25 -182 67 -69 44 -146 81 -159 76 -19 -6 20 -46 52 -54 18 -3
60 -23 93 -43 83 -50 166 -83 201 -78 33 4 98 -8 132 -25 17 -9 25 -9 34 0 15
15 58 16 58 2 0 -5 -4 -10 -10 -10 -5 0 -17 -8 -27 -19 -30 -31 -79 -40 -290
-52 -196 -11 -206 -11 -292 11 -67 16 -94 28 -105 44 -8 13 -28 29 -44 35 -18
8 -33 23 -36 37 -4 13 -13 24 -20 24 -8 0 -40 26 -73 58 -55 54 -60 63 -92
166 -42 133 -71 191 -119 236 -21 19 -53 56 -71 83 -42 62 -81 78 -203 84 -88
5 -103 3 -162 -21 -74 -29 -76 -30 -76 -17 0 5 22 17 49 26 53 17 65 27 90 78
17 34 19 34 151 39 26 0 63 -13 92 -34 28 -20 33 0 8 27 -13 14 -21 28 -17 31
6 6 144 -33 220 -62 22 -8 64 -30 94 -50 50 -32 54 -37 48 -64 -4 -17 -2 -30
3 -30 13 0 82 -72 82 -85 0 -6 11 -22 24 -36 13 -14 35 -43 49 -65 73 -114
282 -265 282 -204 0 9 -18 21 -45 29 -60 19 -197 155 -272 271 -30 47 -62 91
-71 99 -10 7 -17 24 -17 36 0 63 -73 104 -339 191 -49 16 -81 11 -81 -12 0
-32 -79 18 -80 50 0 11 61 71 80 78 14 4 6 28 -9 28 -11 0 -118 -107 -139
-138 -8 -13 -29 -29 -47 -36 -20 -9 -41 -30 -56 -57 -17 -30 -33 -45 -54 -51
-40 -10 -123 -89 -130 -125 -4 -15 -13 -43 -21 -61 -8 -18 -14 -54 -14 -81 0
-26 -3 -51 -7 -55 -12 -11 -32 -98 -33 -137 0 -36 -19 -103 -41 -146 -16 -29
-84 -30 -102 -1 -19 31 -72 51 -117 44 -32 -5 -46 -1 -76 19 -42 28 -98 32
-186 14 -70 -15 -99 -31 -123 -68 -13 -21 -26 -29 -37 -25 -25 8 -84 -21 -120
-58 -21 -22 -28 -27 -23 -13 8 20 11 33 40 165 9 41 23 88 31 104 10 21 11 33
3 40 -13 13 -37 -16 -45 -54 -3 -14 -16 -65 -30 -113 -13 -48 -24 -96 -24
-105 -1 -27 -25 -53 -44 -46 -19 7 -19 9 -4 33 14 23 -5 53 -28 44 -11 -4 -14
-44 -14 -228 0 -252 -3 -244 77 -220 84 25 297 42 308 25 4 -6 16 -5 35 5 16
8 35 12 43 10 7 -3 38 -2 68 3 30 4 70 4 89 -1 19 -4 43 -8 52 -8 11 0 15 -6
11 -17 -12 -34 -23 -42 -43 -29 -25 15 -38 1 -22 -23 18 -30 14 -35 -7 -9 -16
20 -22 22 -33 11 -11 -12 -9 -16 10 -29 33 -23 27 -35 -13 -27 -28 5 -35 3
-35 -10 0 -18 30 -36 59 -36 12 0 21 -6 21 -14 0 -12 -7 -12 -36 -4 -20 5 -43
7 -52 3 -15 -6 -14 -9 6 -25 13 -11 29 -17 36 -14 7 3 16 -3 20 -12 10 -25 1
-27 -34 -9 -25 13 -35 14 -46 4 -11 -9 -11 -15 -3 -25 6 -7 14 -13 17 -12 4 0
15 0 25 -1 25 -2 21 -29 -5 -33 -29 -4 -35 -28 -9 -35 19 -5 19 -7 7 -32 -8
-15 -17 -43 -21 -63 -4 -21 -13 -42 -21 -49 -8 -6 -14 -19 -14 -28 0 -9 -11
-33 -24 -54 -20 -32 -24 -35 -28 -19 -5 18 -12 19 -77 14 -47 -3 -76 -1 -85 7
-17 15 -133 15 -191 2 -25 -7 -43 -7 -49 -1 -27 27 -46 -2 -30 -44 8 -21 26
-20 76 4 47 22 79 25 159 10 30 -5 84 -11 121 -12 l68 -3 -6 -31 c-13 -70 17
-38 74 78 33 68 63 134 67 148 9 31 25 51 35 45 4 -3 13 2 20 10 15 18 40 20
40 3 0 -6 -7 -19 -16 -29 -17 -18 -12 -55 5 -44 5 3 12 -4 16 -15 9 -28 28
-25 43 7 16 35 -1 56 -23 27 -11 -15 -14 -16 -15 -4 0 22 20 40 46 40 29 0 36
-22 17 -50 -14 -20 -14 -23 1 -38 14 -15 17 -13 26 15 6 17 20 33 30 36 10 3
20 13 23 23 2 11 3 6 0 -11 -2 -16 -4 -40 -3 -52 0 -13 -15 -47 -33 -75 -64
-103 -94 -232 -75 -325 10 -49 9 -56 -10 -76 -12 -13 -42 -28 -66 -35 -25 -6
-55 -23 -68 -36 -13 -13 -48 -43 -78 -66 -228 -173 -240 -179 -375 -186 -97
-6 -113 -10 -97 -26 14 -14 163 -15 184 -2 7 5 21 10 31 11 26 4 75 31 123 67
23 17 54 40 70 51 15 11 53 40 83 65 111 90 19 82 854 80 689 -1 1645 -6 1710
-9 36 -1 27 -18 -20 -37 -22 -10 -39 -26 -48 -47 -24 -56 -7 -62 158 -61 170
1 217 14 217 62 0 16 5 43 11 61 l11 31 126 0 c70 1 285 3 477 5 193 2 475 4
628 4 242 1 277 3 277 16 0 14 -81 15 -746 9 l-746 -6 4 24 3 23 310 2 c171 1
505 3 743 4 l432 3 0 117 c0 76 -5 131 -15 158 -8 22 -10 41 -5 41 4 0 11 -6
14 -12 3 -7 4 21 3 64 -1 42 -5 72 -8 66 -9 -14 -36 66 -44 127 -3 28 -10 64
-15 80 -6 17 -12 48 -14 70 -3 22 -8 57 -11 77 -8 44 -2 47 28 14 12 -13 32
-27 45 -31 19 -5 22 -3 22 19 0 17 -6 26 -15 26 -9 0 -23 17 -31 38 -27 62
-30 67 -47 70 -10 2 -22 -7 -28 -22 -15 -33 -21 -33 -56 4 -39 42 -61 39 -80
-10 -15 -38 -17 -39 -30 -20 -7 10 -20 17 -28 14 -9 -4 -18 1 -22 12 -3 11
-11 22 -17 26 -7 5 -7 8 -1 9 6 0 21 2 35 4 127 17 290 22 309 11 7 -5 11 5
11 28 0 40 -17 50 -44 27 -19 -16 -19 -15 -1 13 11 16 21 24 23 17 7 -21 18
-11 20 18 2 22 -3 30 -19 34 -23 6 -17 27 7 27 10 0 14 12 14 45 0 43 -1 44
-37 50 -21 4 -41 7 -45 8 -4 1 -4 8 1 15 6 10 15 9 44 -3 l37 -15 0 80 0 80
-38 0 c-33 0 -39 4 -49 30 -22 58 -68 24 -54 -41 8 -38 4 -69 -9 -69 -5 0 -10
10 -12 22 -4 29 -51 39 -96 21 -31 -12 -35 -11 -51 8 -16 20 -21 21 -55 9 -26
-8 -36 -17 -34 -28 2 -10 8 -17 15 -17 22 0 24 -13 3 -20 -26 -8 -37 1 -42 35
-2 20 -9 26 -35 28 l-33 3 0 59 c0 34 5 60 11 62 6 2 48 0 93 -5 44 -4 141 -5
214 -2 128 6 132 6 132 -14 0 -18 17 -38 24 -30 2 2 6 20 10 40 l6 37 -45 6
c-28 5 -60 3 -82 -5 -51 -16 -197 -16 -217 0 -13 11 -19 11 -31 1 -18 -15 -64
-5 -82 18 -11 15 -13 15 -20 -8 -6 -22 -8 -20 -14 20 -10 66 1 170 17 170 8 0
14 6 14 14 0 22 171 147 192 140 10 -3 18 -1 18 4 0 6 17 6 43 2 23 -4 79 -10
125 -14 66 -5 82 -4 82 7 0 20 -98 31 -118 14 -12 -9 -16 -9 -19 1 -6 15 -33
16 -33 1 0 -6 -7 -3 -16 5 -8 9 -26 16 -40 16 -13 0 -24 3 -24 8 -1 4 -3 24
-6 45 -8 51 1 74 21 57 8 -7 22 -10 31 -6 9 3 29 -4 47 -18 36 -28 157 -48
157 -27 0 19 -37 54 -49 47 -6 -4 -27 -4 -46 0 l-35 6 35 19 c25 14 41 16 59
10 29 -12 36 -6 36 31 0 17 -5 28 -14 28 -7 0 -19 7 -26 15 -7 8 -27 14 -47
13 -24 -1 -38 4 -45 15 -5 10 -15 17 -23 17 -8 0 -11 7 -8 18 3 12 -4 22 -20
29 -39 18 -80 79 -82 121 0 26 -6 38 -17 40 -21 4 -25 -33 -17 -138 3 -41 5
-133 5 -205 l-1 -130 -89 -67 c-50 -38 -93 -68 -98 -68 -12 0 -13 114 -4 740
7 482 15 770 22 782 3 4 11 5 18 2 20 -8 27 34 25 138 -1 49 1 91 4 94 2 3 58
9 123 14 66 5 120 10 122 10 1 0 2 32 2 70 l0 70 -62 1 c-35 1 -99 0 -144 -1
l-81 -2 -17 124 c-9 68 -17 132 -17 143 0 11 -10 62 -21 113 l-21 93 21 20
c66 61 -25 227 -98 181 -11 -7 -31 -12 -46 -12 -34 0 -84 -53 -84 -90 0 -15 9
-39 21 -54 20 -26 21 -31 9 -109 -17 -117 -17 -118 -25 -267 -4 -74 -10 -139
-14 -143 -5 -4 -75 -9 -157 -11 l-149 -3 2 -59 c1 -32 2 -62 3 -66 0 -9 56
-39 62 -33 9 9 209 8 218 -1 11 -11 17 -150 7 -160 -12 -12 -8 -46 7 -58 13
-9 16 -92 21 -516 3 -278 8 -605 9 -727 2 -123 2 -223 -1 -223 -6 0 -59 56
-87 93 -20 26 -28 51 -33 99 -6 73 5 92 31 53 18 -28 66 -35 66 -10 0 8 -7 15
-16 15 -9 0 -18 9 -21 19 -6 25 -24 32 -60 22 -27 -7 -28 -9 -29 -78 l-2 -71
-115 -117 c-96 -98 -119 -116 -131 -106 -12 10 -14 103 -15 628 0 338 2 626 5
640 4 15 12 22 20 19 28 -11 45 72 20 97 -10 10 -12 17 -5 19 6 2 14 36 17 76
2 40 9 75 14 78 4 3 69 6 142 6 l134 0 6 30 c20 100 8 109 -159 106 -73 -2
-136 0 -139 3 -4 4 -8 33 -10 65 -10 156 -32 332 -47 371 -7 19 -3 32 21 65
37 50 37 74 5 122 -14 21 -23 42 -19 47 3 5 27 20 53 33 26 14 53 32 60 40 8
9 19 16 26 16 12 0 71 -71 109 -132 10 -14 24 -29 33 -32 28 -11 113 60 113
94 0 21 -76 121 -114 151 -14 11 -26 25 -26 31 0 6 33 41 73 78 39 38 92 95
117 129 25 33 52 60 61 61 20 0 66 45 86 84 17 34 11 80 -16 115 -25 33 -112
41 -162 16 -39 -20 -49 -32 -49 -60 0 -13 -13 -27 -35 -39 -48 -26 -48 -51 -1
-31 33 14 34 14 46 -16 7 -17 25 -38 39 -47 14 -9 28 -17 30 -19 2 -1 -8 -17
-21 -35 -69 -90 -191 -211 -202 -201 -10 10 -7 35 4 28 6 -3 10 -2 10 4 0 16
-22 25 -30 11 -8 -13 -8 -12 -35 31 -5 9 -23 35 -39 57 l-28 41 28 25 c16 13
57 39 91 58 35 18 63 39 63 46 0 6 -2 12 -5 12 -12 0 -131 -64 -162 -87 -17
-12 -35 -23 -39 -23 -4 0 1 7 12 14 18 14 18 15 -13 26 -35 13 -41 24 -20 37
7 4 24 26 37 48 13 22 36 56 52 76 15 20 28 45 28 54 0 10 5 15 14 12 7 -3 30
11 50 32 33 33 36 42 36 92 0 63 -18 87 -81 109 -30 11 -43 11 -68 0 -34 -14
-91 -84 -91 -112 0 -26 -11 -21 -53 27 -38 43 -38 44 -17 55 31 17 135 164
176 247 21 44 41 73 50 73 9 0 29 14 46 30 28 29 30 35 26 87 -4 48 -10 61
-37 85 -17 15 -40 28 -51 28 -39 0 -90 -29 -109 -62 -11 -18 -54 -59 -95 -93
-41 -33 -115 -97 -164 -142 l-89 -82 -34 36 c-46 48 -108 93 -129 93 -10 0
-38 -17 -64 -37 -67 -55 -63 -78 34 -162 41 -36 76 -68 78 -72 4 -10 -86 -149
-97 -149 -5 0 -15 -16 -21 -35 -6 -19 -15 -35 -19 -35 -4 0 -54 -54 -111 -120
-58 -66 -108 -120 -112 -120 -9 0 -9 6 -12 90 -2 61 13 83 52 73 26 -6 28 4 6
35 -17 25 -11 43 8 24 16 -16 38 -15 38 2 0 7 -7 19 -15 26 -8 7 -15 17 -15
23 0 7 4 7 12 -1 18 -18 28 -15 28 8 0 12 -7 20 -16 20 -19 0 -13 24 7 26 8 1
20 2 27 3 19 2 14 22 -8 28 -24 6 -27 23 -4 23 11 0 14 5 10 16 -4 10 1 22 10
29 18 13 15 15 -74 59 -12 6 -20 17 -17 23 2 7 -4 17 -14 22 -15 9 -17 23 -16
118 1 59 5 116 10 126 4 10 5 40 3 68 -5 51 -35 95 -84 122 -85 48 -110 58
-171 75 -84 22 -231 27 -259 8z m86 -26 c6 -12 21 -20 36 -20 14 0 41 -8 62
-19 36 -18 126 -33 137 -23 2 3 0 11 -6 19 -9 10 -8 13 3 13 23 0 58 -30 52
-45 -7 -17 40 -49 60 -42 38 15 77 -90 42 -110 -11 -6 -13 -17 -8 -43 5 -19 5
-64 2 -100 -4 -59 -7 -65 -28 -68 -13 -2 -29 3 -35 11 -16 19 -87 38 -115 31
-12 -4 -22 -14 -23 -23 0 -9 -6 0 -12 19 -9 26 -18 35 -35 35 -12 0 -26 5 -30
10 -10 14 -52 17 -66 6 -6 -5 -31 -14 -55 -21 -32 -8 -41 -14 -32 -23 15 -15
14 -27 -4 -27 -17 0 -20 -25 -5 -35 17 -10 11 -25 -9 -25 -28 0 -37 -21 -16
-36 24 -17 20 -20 -35 -28 -43 -6 -44 -6 -20 8 22 13 23 15 8 21 -10 4 -31 2
-48 -3 -24 -9 -30 -8 -30 2 0 18 44 46 72 46 27 0 55 16 45 26 -9 10 -56 9
-90 0 -27 -8 -28 -7 -17 11 18 28 0 77 -28 81 -28 4 -28 27 -1 50 12 9 27 23
34 30 8 6 29 12 49 12 19 0 37 4 41 9 9 15 -30 22 -59 11 -34 -12 -56 -13 -56
-1 0 13 96 41 150 44 65 4 60 22 -5 21 -39 -1 -55 2 -55 12 0 7 -9 14 -20 16
-28 4 -26 22 2 26 73 9 97 32 33 32 -19 0 -35 4 -35 9 0 10 10 14 63 25 25 6
39 26 17 26 -17 0 -11 28 8 39 27 16 50 13 62 -9z m177 -16 c-3 -3 -12 -4 -19
-1 -8 3 -5 6 6 6 11 1 17 -2 13 -5z m1195 -81 c32 -30 35 -55 13 -107 -13 -30
-19 -35 -43 -32 -78 10 -111 61 -78 124 14 27 27 34 70 41 6 0 23 -11 38 -26z
m-146 -118 c10 -21 26 -38 40 -41 13 -3 24 -12 24 -19 0 -48 -166 -295 -198
-295 -19 0 -53 22 -97 62 -17 14 -41 35 -55 46 l-25 21 55 56 c49 51 226 205
235 205 2 0 12 -16 21 -35z m-2240 -125 c21 -14 39 -36 49 -64 15 -39 15 -46
2 -73 -23 -44 -43 -56 -81 -50 -104 17 -147 118 -78 182 33 30 64 32 108 5z
m1784 -18 c25 -20 62 -53 84 -72 21 -19 62 -55 90 -80 132 -114 206 -183 206
-191 0 -5 -14 -22 -32 -37 l-31 -29 -46 46 c-47 47 -159 132 -215 163 -17 10
-27 18 -22 18 5 0 -1 11 -14 25 -13 14 -29 25 -36 25 -16 0 -114 89 -114 103
0 12 61 66 75 66 6 1 30 -16 55 -37z m-640 -72 c0 -5 -4 -10 -10 -10 -5 0 -10
5 -10 10 0 6 5 10 10 10 6 0 10 -4 10 -10z m50 -30 c0 -5 -4 -10 -10 -10 -5 0
-10 5 -10 10 0 6 5 10 10 10 6 0 10 -4 10 -10z m25 -100 c3 -5 1 -10 -4 -10
-6 0 -11 5 -11 10 0 6 2 10 4 10 3 0 8 -4 11 -10z m1165 -40 c37 -19 40 -23
40 -64 0 -52 -30 -96 -65 -96 -57 0 -113 55 -98 97 7 21 63 83 75 83 5 0 27
-9 48 -20z m-529 -17 c19 -16 40 -34 49 -41 8 -7 28 -23 43 -35 l29 -22 -42
-48 c-39 -44 -70 -60 -70 -37 0 6 -9 10 -20 10 -27 0 -25 -8 7 -42 14 -15 23
-31 20 -35 -12 -11 -59 19 -116 75 -43 42 -52 55 -42 65 10 9 17 6 36 -15 25
-29 40 -35 50 -18 3 6 -8 23 -26 39 l-32 30 33 50 c17 28 36 51 40 51 5 0 23
-12 41 -27z m-858 -10 c-7 -2 -19 -2 -25 0 -7 3 -2 5 12 5 14 0 19 -2 13 -5z
m404 -25 c-3 -8 -6 -5 -6 6 -1 11 2 17 5 13 3 -3 4 -12 1 -19z m-467 -2 c0
-14 -34 -28 -44 -18 -9 8 14 32 30 32 8 0 14 -6 14 -14z m324 -16 c70 -31 95
-59 106 -120 6 -29 10 -54 10 -56 0 -1 -10 -4 -22 -6 -29 -4 -29 -15 1 -111
14 -42 21 -80 17 -84 -3 -4 -19 0 -34 8 -29 17 -73 12 -80 -9 -2 -6 8 -16 22
-22 25 -9 36 -30 17 -30 -5 0 -38 7 -72 16 -59 15 -63 15 -76 -2 -19 -26 -16
-35 10 -29 14 3 36 -5 62 -23 38 -27 40 -31 36 -73 -2 -24 -7 -52 -12 -61 -9
-16 -12 -16 -47 -1 -20 10 -45 24 -54 32 -10 8 -18 10 -18 6 0 -5 -10 1 -23
13 -13 12 -44 29 -70 38 -28 9 -49 23 -52 35 -4 11 -12 18 -18 16 -19 -7 -10
-41 14 -57 12 -8 38 -30 57 -48 34 -32 35 -34 29 -92 -5 -39 -18 -80 -41 -122
-33 -62 -34 -63 -87 -72 -36 -5 -71 -4 -109 4 -108 25 -159 41 -171 57 -18 21
-20 134 -3 183 18 51 85 173 101 183 7 4 13 17 13 27 0 16 7 20 30 20 17 0 30
5 30 11 0 6 9 9 20 6 11 -3 22 -1 25 3 7 12 -23 40 -43 40 -43 1 -67 47 -56
105 8 43 23 46 20 4 -1 -18 4 -37 11 -43 8 -6 23 -20 34 -31 17 -17 21 -18 29
-5 13 20 12 37 0 45 -16 10 -12 35 5 35 9 0 20 -12 25 -26 10 -24 14 -26 51
-21 23 3 46 10 51 15 15 15 1 62 -18 62 -9 0 -14 5 -12 12 9 26 26 17 41 -20
20 -49 46 -61 68 -33 10 12 15 30 12 40 -3 13 2 21 17 26 29 9 39 41 27 88
-10 40 2 63 30 53 6 -3 13 4 16 15 6 24 23 24 81 -1z m-709 -26 c-1 -5 -5 -35
-9 -68 -7 -44 -5 -60 4 -66 9 -5 11 -21 7 -49 -4 -34 -1 -44 19 -65 36 -35 15
-40 -34 -7 -24 15 -65 38 -92 51 l-49 23 16 31 c19 37 70 112 97 144 19 22 42
25 41 6z m288 1 c8 -18 -11 -31 -25 -17 -11 11 -3 32 12 32 4 0 10 -7 13 -15z
m-61 -29 c4 -5 4 -14 1 -19 -5 -9 -43 21 -43 34 0 11 33 -1 42 -15z m175 9
c-9 -21 14 -31 28 -12 7 10 18 17 26 17 11 -1 11 -3 -2 -13 -8 -7 -18 -20 -22
-29 -9 -25 -33 -22 -52 4 -14 21 -14 24 2 35 22 17 26 16 20 -2z m109 -37 c-1
-36 -4 -42 -29 -51 -40 -13 -44 -3 -13 33 14 17 26 38 26 46 0 8 4 14 8 14 5
0 8 -19 8 -42z m-326 -14 c0 -18 -20 -28 -32 -16 -6 6 -8 23 -3 39 6 27 7 27
21 9 8 -11 14 -25 14 -32z m-100 21 c0 -8 -6 -15 -14 -15 -8 0 -16 -10 -18
-22 -4 -33 -34 -30 -30 2 4 39 62 72 62 35z m1605 -10 c6 -6 21 -17 33 -24 19
-10 22 -18 17 -39 -7 -28 -37 -76 -80 -127 l-25 -30 -38 44 -39 45 -44 -27
c-61 -37 -85 -59 -94 -86 -5 -17 -2 -24 13 -28 11 -2 25 -16 31 -29 l11 -24
-53 5 c-28 3 -124 10 -211 15 -87 5 -163 13 -167 17 -4 4 4 22 19 38 l27 30
100 -7 c55 -3 126 -9 158 -13 33 -5 57 -4 57 1 0 5 12 23 28 40 15 17 48 55
74 85 72 83 81 92 113 115 30 22 52 21 70 -1z m-2050 -35 c11 -10 76 -48 145
-85 69 -37 130 -71 135 -75 6 -4 47 -27 93 -50 60 -30 80 -46 73 -53 -8 -8 -2
-20 21 -44 29 -30 31 -35 18 -58 -7 -14 -18 -25 -23 -25 -15 0 -154 78 -239
134 -42 28 -111 71 -154 96 -42 25 -84 50 -93 55 -73 47 -100 65 -105 73 -3 5
6 25 20 45 l25 37 32 -16 c18 -9 41 -24 52 -34z m713 38 c16 -16 15 -28 -3
-28 -8 0 -15 2 -15 4 0 2 -3 11 -6 20 -7 19 7 21 24 4z m-58 -8 c0 -5 -9 -19
-21 -31 -16 -16 -24 -18 -32 -9 -9 8 -6 16 13 30 28 22 40 25 40 10z m1204
-19 c12 -13 15 -25 9 -34 -20 -35 -143 -156 -155 -153 -7 3 -25 7 -40 10 -41
9 -34 27 24 66 28 19 67 56 86 83 37 52 50 57 76 28z m-2534 -34 c128 -59 466
-150 639 -172 61 -8 65 -13 39 -44 -13 -16 -27 -36 -33 -45 -9 -16 -15 -16
-86 7 -42 14 -94 28 -115 32 -44 7 -93 19 -179 45 -33 10 -78 21 -100 25 -22
4 -60 13 -85 21 -25 8 -74 22 -110 33 l-65 19 4 43 c3 43 17 72 30 65 3 -1 31
-15 61 -29z m2144 -84 c-38 -42 -107 -118 -154 -168 -47 -50 -176 -189 -286
-310 -111 -121 -221 -241 -245 -266 -24 -25 -78 -83 -119 -130 -41 -46 -93
-103 -115 -126 -22 -23 -92 -99 -155 -169 -123 -136 -239 -261 -385 -414 -49
-53 -151 -160 -225 -240 -74 -79 -148 -158 -165 -176 -107 -112 -135 -146
-130 -154 3 -6 -2 -10 -12 -10 -26 0 -43 -19 -43 -47 0 -16 -6 -23 -19 -23
-11 0 -32 -14 -48 -31 -15 -17 -75 -80 -133 -141 -58 -60 -114 -125 -125 -144
-22 -38 -36 -45 -28 -14 3 11 10 20 15 20 6 0 8 6 5 14 -5 13 73 106 213 251
43 44 147 157 233 250 177 195 263 287 340 365 65 66 253 272 357 390 41 47
117 133 170 191 52 58 125 139 161 180 120 134 231 250 308 323 23 21 41 44
41 50 1 18 87 106 105 106 23 0 65 45 65 71 0 18 57 99 94 134 63 59 186 207
180 216 -4 7 -3 9 3 6 5 -3 36 21 68 53 59 60 60 60 79 41 19 -20 19 -21 -50
-98z m-979 97 c3 -5 2 -10 -4 -10 -5 0 -13 5 -16 10 -3 6 -2 10 4 10 5 0 13
-4 16 -10z m205 -36 c0 -8 -4 -12 -10 -9 -5 3 -10 10 -10 16 0 5 5 9 10 9 6 0
10 -7 10 -16z m1854 -34 c18 -31 18 -33 1 -62 -10 -17 -26 -39 -36 -49 -17
-17 -21 -17 -62 -3 -40 13 -46 20 -55 56 -15 60 -2 85 50 96 55 11 78 3 102
-38z m-2084 36 c0 -3 -4 -8 -10 -11 -5 -3 -10 -1 -10 4 0 6 5 11 10 11 6 0 10
-2 10 -4z m78 -38 c-2 -13 -10 -24 -19 -26 -21 -4 -34 28 -17 40 24 15 39 9
36 -14z m228 8 c15 -12 16 -17 7 -27 -10 -10 -15 -9 -28 1 -16 13 -21 40 -7
40 5 0 17 -6 28 -14z m829 -9 c26 -18 31 -26 24 -40 -6 -9 -17 -17 -24 -17 -8
0 -15 -4 -15 -10 0 -11 -93 -14 -104 -3 -5 6 71 93 82 93 2 0 18 -10 37 -23z
m-1141 -9 c3 -13 2 -26 -3 -31 -11 -11 -34 20 -27 38 8 22 23 18 30 -7z m726
-30 c0 -16 -3 -19 -11 -11 -6 6 -8 16 -5 22 11 17 16 13 16 -11z m-703 -84
c-7 -8 -37 8 -37 19 0 6 8 19 18 30 17 19 17 19 20 -13 2 -17 1 -34 -1 -36z
m60 8 c-28 -5 -39 19 -20 41 16 17 17 16 28 -10 10 -25 9 -28 -8 -31z m1400
21 c15 -21 49 -62 75 -91 25 -28 68 -85 95 -125 53 -79 80 -113 133 -166 42
-43 110 -126 110 -134 0 -4 -17 -18 -37 -31 l-37 -26 -27 43 c-14 23 -61 78
-104 122 -42 44 -105 116 -138 160 -34 44 -87 106 -119 138 -68 67 -73 91 -25
125 17 12 35 22 39 22 4 0 19 -17 35 -37z m-2236 -83 c35 0 34 -22 -2 -105 -4
-11 -12 -36 -17 -55 -7 -30 -13 -35 -39 -38 -30 -3 -177 23 -195 34 -4 3 -8
10 -8 16 0 7 17 8 51 4 45 -6 50 -5 47 11 -2 14 -14 19 -52 21 l-48 3 6 45 c3
24 9 64 12 87 l6 44 110 -34 c61 -18 119 -33 129 -33z m473 -3 c16 -15 41 -32
57 -39 16 -7 29 -16 29 -20 0 -5 6 -8 14 -8 27 0 27 -20 1 -47 -14 -16 -28
-38 -31 -50 -4 -13 -10 -23 -15 -23 -5 0 -15 -11 -21 -25 -6 -14 -16 -25 -21
-25 -6 0 -25 11 -43 25 -18 14 -35 25 -38 25 -13 0 -116 73 -116 82 0 10 34
-6 69 -34 18 -14 27 -15 38 -7 19 16 1 35 -59 61 -26 11 -48 26 -48 33 0 7 20
36 46 63 l45 51 33 -18 c18 -10 45 -30 60 -44z m366 8 c0 -29 -16 -41 -35 -25
-19 16 -19 25 1 44 20 20 34 12 34 -19z m-665 -49 c67 -23 70 -25 68 -55 -2
-16 -17 -54 -34 -83 -17 -29 -54 -96 -82 -148 -27 -52 -88 -165 -135 -250 -46
-85 -101 -184 -120 -220 -20 -36 -48 -86 -63 -112 -16 -26 -40 -73 -54 -104
-33 -72 -43 -64 -17 13 11 32 61 186 112 343 50 157 103 321 117 365 14 44 29
85 33 90 4 6 20 49 36 98 33 101 31 100 139 63z m1511 -12 l23 -30 -47 -51
c-66 -72 -183 -194 -341 -358 -75 -78 -194 -203 -266 -278 -217 -230 -250
-265 -439 -461 -99 -104 -273 -284 -387 -400 -113 -116 -222 -228 -242 -250
-36 -38 -125 -91 -136 -81 -3 3 24 36 60 73 73 75 353 371 559 591 74 80 142
152 152 162 9 9 42 46 73 81 32 34 90 97 129 139 39 42 107 116 151 165 44 48
112 122 151 164 39 41 89 95 110 120 21 25 46 52 54 60 59 60 254 274 330 361
29 34 36 33 66 -7z m349 -4 c50 -7 104 -12 120 -12 33 -1 55 -14 55 -33 0 -9
-11 -12 -32 -10 -106 12 -113 11 -114 -12 -1 -21 -67 -93 -85 -93 -5 0 -6 -7
-2 -16 10 -27 -16 -32 -80 -13 -34 9 -74 20 -89 23 -16 4 -28 10 -28 15 0 18
30 20 60 4 24 -12 34 -13 43 -3 9 9 7 15 -7 26 -11 8 -26 14 -33 14 -7 0 -13
5 -13 12 0 16 41 58 57 58 19 0 16 17 -4 25 -10 3 -46 9 -80 12 -35 3 -63 10
-63 16 0 11 161 4 295 -13z m-654 -19 c13 -11 21 -22 18 -26 -4 -3 -14 1 -22
10 -9 8 -20 15 -26 15 -6 0 -11 5 -11 10 0 15 15 12 41 -9z m435 -22 c3 -6
-14 -32 -40 -58 -25 -26 -46 -53 -46 -60 0 -7 -43 -56 -95 -109 l-95 -95 -25
23 c-14 13 -24 29 -23 36 2 6 59 71 127 143 110 116 128 131 157 131 18 0 36
-5 40 -11z m-1166 -9 c0 -5 -2 -10 -4 -10 -3 0 -8 5 -11 10 -3 6 -1 10 4 10 6
0 11 -4 11 -10z m74 -43 c18 -13 18 -16 2 -63 -19 -58 -23 -132 -9 -159 6 -11
8 -26 6 -33 -9 -24 20 -42 126 -76 83 -27 117 -33 151 -29 l45 6 -20 -23 c-29
-32 -55 -39 -106 -29 -85 18 -156 22 -164 9 -4 -7 -2 -16 5 -20 9 -6 9 -12 -1
-28 -22 -35 -38 -34 -60 3 -12 19 -28 35 -36 35 -9 0 -13 6 -10 14 3 8 -9 28
-29 46 -34 31 -35 34 -29 83 3 29 13 78 21 110 8 32 14 81 14 109 0 48 1 50
25 46 14 -3 28 -1 31 3 7 12 17 11 38 -4z m1429 7 c4 -4 -16 -28 -44 -54 -39
-36 -50 -52 -47 -72 3 -21 -17 -40 -142 -139 -239 -188 -254 -199 -264 -189
-14 14 276 291 339 326 11 6 25 20 30 30 6 10 25 34 43 53 17 18 32 37 32 42
0 10 43 12 53 3z m118 -26 c13 -18 33 -46 45 -63 11 -16 35 -45 53 -64 l32
-34 -24 -23 c-13 -12 -42 -31 -65 -42 l-40 -19 -11 23 c-6 13 -15 24 -21 24
-5 0 -10 6 -10 13 -1 6 -14 30 -30 52 -61 84 -63 89 -31 117 27 25 61 47 72
48 3 0 16 -15 30 -32z m-1965 1 c40 -24 41 -28 11 -77 -12 -20 -28 -46 -35
-57 -6 -11 -28 -49 -47 -85 -44 -82 -74 -133 -140 -240 -50 -82 -345 -592
-390 -675 -12 -22 -36 -63 -53 -91 -28 -49 -56 -98 -125 -224 -90 -164 -162
-286 -175 -297 -21 -17 -42 -16 -42 2 0 8 40 88 89 177 89 165 206 382 289
538 24 47 61 114 82 150 20 36 59 106 85 155 26 50 62 115 80 145 27 45 189
339 304 552 14 26 28 48 30 48 2 0 19 -9 37 -21z m269 -124 c-28 -139 -29
-177 -5 -203 18 -19 19 -23 6 -28 -18 -7 -20 -22 -8 -42 10 -16 42 -5 42 14 0
8 5 14 11 14 23 0 -27 -138 -73 -203 -37 -51 -47 -75 -50 -117 -4 -83 77 -132
125 -75 12 15 34 40 49 56 45 47 59 74 74 139 8 33 23 78 35 98 11 20 18 29
15 20 -3 -10 2 -25 11 -33 14 -15 17 -14 34 1 23 21 20 37 -9 44 -16 4 -19 9
-12 19 7 12 15 13 48 3 22 -7 49 -12 61 -12 11 0 21 -4 21 -9 0 -4 -45 -56
-100 -114 -55 -58 -100 -108 -100 -112 0 -4 -17 -23 -37 -44 -21 -20 -80 -86
-132 -147 -178 -207 -431 -478 -439 -470 -2 3 5 18 17 34 25 36 29 77 6 68
-17 -6 -22 29 -5 39 16 10 12 123 -4 132 -11 7 -12 25 -4 108 16 154 15 190
-2 190 -18 0 -28 -45 -40 -195 -5 -63 -13 -135 -18 -160 -4 -25 -4 -61 1 -80
4 -19 11 -48 14 -65 5 -27 4 -29 -11 -16 -10 9 -14 21 -10 34 7 22 -38 66 -68
67 -22 0 -23 -8 -1 -32 15 -17 15 -18 -1 -18 -9 0 -20 -8 -23 -17 -4 -10 -14
-23 -22 -30 -14 -10 -14 -12 4 -19 31 -12 110 -74 93 -74 -8 0 -23 9 -32 19
-18 20 -61 32 -83 24 -22 -9 -14 -21 21 -33 45 -14 64 -36 47 -53 -10 -9 -14
-8 -22 6 -6 9 -16 17 -24 17 -23 0 -28 -20 -9 -41 9 -10 15 -22 11 -25 -3 -3
-20 10 -37 30 -30 34 -70 49 -70 26 0 -6 16 -26 35 -44 19 -19 35 -42 35 -52
0 -14 -8 -10 -36 18 -20 22 -41 35 -50 31 -20 -7 -17 -30 5 -42 10 -6 22 -18
25 -28 6 -15 5 -15 -13 1 -20 18 -41 15 -41 -7 0 -7 9 -18 20 -25 26 -16 26
-36 -1 -29 -24 7 -37 -17 -19 -38 8 -10 9 -19 1 -32 -8 -14 -11 -15 -11 -3 -1
35 -113 120 -156 120 -8 0 -14 4 -14 9 0 11 25 21 51 21 10 0 19 7 19 15 0 8
-4 15 -10 15 -5 0 -14 9 -20 21 -9 16 -8 26 4 44 9 14 22 22 29 20 6 -2 23 5
37 16 23 19 23 22 7 34 -9 7 -17 15 -17 18 0 16 104 167 115 167 23 0 125 119
125 146 0 28 -18 32 -27 7 -9 -24 -55 -85 -60 -79 -2 2 18 40 46 85 28 44 51
83 51 85 0 4 61 99 78 121 4 6 16 27 27 48 23 43 43 65 42 45 -1 -39 5 -58 18
-58 8 0 15 4 15 9 0 5 5 45 11 88 10 74 16 88 116 257 59 98 113 180 120 183
7 3 13 11 13 19 0 8 5 14 10 14 6 0 17 18 26 40 9 22 21 40 28 39 25 -3 36 2
36 16 0 9 10 30 23 46 l22 31 3 -25 c2 -14 -4 -60 -13 -102z m-760 66 c-5 -13
-109 -375 -119 -416 -8 -32 -31 -110 -52 -180 -14 -44 -29 -96 -34 -115 -14
-57 -58 -206 -100 -340 -71 -232 -99 -325 -111 -370 -11 -45 -83 -196 -101
-215 -13 -13 -3 36 28 140 34 116 233 837 294 1065 29 107 66 242 82 300 16
58 32 114 35 125 11 45 10 44 48 32 26 -8 34 -15 30 -26z m135 -8 c0 -8 -139
-434 -149 -458 -9 -22 -73 -225 -117 -370 -14 -49 -30 -98 -35 -107 -5 -10 -9
-27 -9 -39 0 -20 -17 -55 -137 -276 -62 -116 -63 -114 -10 47 39 119 85 270
101 333 8 32 24 88 36 125 51 170 207 698 215 732 5 23 10 25 55 22 28 -2 50
-6 50 -9z m464 -4 l34 -20 -62 -102 c-35 -56 -84 -136 -110 -177 -26 -41 -51
-82 -56 -90 -4 -8 -27 -46 -49 -83 -23 -38 -41 -70 -41 -73 0 -2 -11 -22 -25
-45 -14 -22 -23 -44 -20 -49 4 -6 0 -10 -8 -10 -8 0 -59 -77 -115 -172 -55
-95 -118 -202 -141 -238 -66 -107 -134 -219 -163 -268 -15 -26 -33 -57 -40
-69 -7 -12 -27 -45 -45 -75 -18 -29 -62 -84 -98 -123 -64 -68 -83 -79 -46 -27
10 15 33 54 51 87 18 33 41 74 51 90 10 17 26 46 36 65 10 19 38 69 62 110
122 208 211 360 234 400 14 25 50 88 80 140 29 52 100 176 157 275 120 209
133 232 161 283 33 58 114 192 116 192 1 0 18 -9 37 -21z m2450 -12 c30 -26
46 -88 27 -111 -6 -8 -28 -17 -47 -21 -29 -5 -44 -1 -74 19 -21 14 -41 35 -45
47 -10 30 24 73 60 76 15 1 30 4 33 7 9 10 18 7 46 -17z m-1067 -2 c5 -15
-1335 -1347 -1348 -1340 -5 4 -9 13 -7 20 6 26 1318 1336 1335 1333 9 -2 18
-8 20 -13z m353 -37 c64 -103 83 -128 96 -128 8 0 14 -4 14 -10 0 -5 -8 -10
-18 -10 -21 0 -142 155 -142 182 0 31 17 20 50 -34z m-880 34 c0 -5 -9 -17
-20 -27 -20 -18 -20 -17 -20 8 0 20 5 27 20 27 11 0 20 -4 20 -8z m625 -34 c6
-6 -11 -29 -50 -65 -33 -31 -137 -133 -232 -227 -94 -94 -175 -174 -180 -178
-68 -61 -203 -198 -203 -207 0 -6 -7 -14 -17 -18 -9 -3 -37 -27 -63 -52 -26
-25 -96 -93 -156 -150 -60 -57 -158 -152 -219 -211 -60 -58 -126 -119 -145
-134 -33 -27 -213 -193 -304 -280 -91 -88 -116 -108 -130 -103 -10 4 67 86
237 254 138 136 436 431 662 655 684 678 747 738 770 732 11 -4 25 -10 30 -16z
m234 -76 l23 -37 -23 -15 c-13 -8 -51 -37 -84 -65 -33 -27 -87 -70 -120 -94
-33 -24 -64 -49 -70 -55 -5 -7 -28 -25 -50 -41 -22 -16 -58 -44 -79 -62 -22
-18 -44 -33 -49 -33 -5 0 -32 -22 -60 -50 -28 -27 -54 -50 -57 -50 -4 0 -20
-12 -36 -26 -38 -33 -129 -104 -163 -126 -14 -10 -35 -28 -46 -41 -17 -20
-196 -168 -312 -257 -105 -82 -256 -201 -309 -245 -34 -27 -85 -68 -114 -90
-29 -22 -77 -59 -106 -83 -30 -24 -54 -40 -54 -36 0 8 30 37 261 254 79 74
205 194 279 266 226 220 274 265 310 289 44 29 90 73 90 85 0 6 7 10 14 10 18
0 199 143 271 213 27 27 59 53 70 57 17 7 139 99 323 245 24 19 49 32 55 29 7
-3 23 -22 36 -42z m-650 -66 l22 -23 -188 -190 c-103 -104 -227 -230 -274
-279 -136 -142 -638 -634 -647 -634 -4 0 -13 4 -21 9 -11 7 15 39 110 136 68
70 156 160 194 200 78 80 307 323 350 370 98 109 416 435 424 435 4 0 18 -11
30 -24z m1313 3 c3 -9 9 -9 26 0 19 10 23 8 37 -18 15 -31 40 -174 54 -321 4
-47 10 -92 12 -100 3 -13 -13 -15 -101 -15 l-105 0 1 60 c0 96 12 243 25 328
9 63 15 77 29 77 10 0 20 -5 22 -11z m-507 -127 c-3 -15 -14 -38 -24 -52 -22
-30 -70 -30 -111 -1 -50 36 -30 140 25 128 11 -3 29 -2 40 3 30 11 79 -42 70
-78z m-219 -2 c0 -28 -2 -50 -6 -50 -8 0 -149 -107 -285 -219 -11 -9 -47 -36
-80 -60 -33 -25 -82 -63 -110 -86 -27 -23 -70 -56 -95 -72 -25 -17 -54 -39
-65 -50 -36 -34 -145 -113 -155 -113 -6 0 -10 -4 -10 -9 0 -5 -17 -20 -37 -32
-20 -13 -48 -34 -62 -49 -14 -14 -46 -41 -71 -60 -24 -19 -52 -42 -61 -50 -9
-8 -34 -26 -54 -40 -21 -14 -47 -34 -59 -46 -11 -11 -79 -65 -151 -119 -71
-54 -141 -109 -156 -121 -14 -13 -29 -24 -34 -24 -9 0 -87 -57 -185 -135 -36
-29 -78 -55 -95 -58 l-29 -5 40 36 c92 84 125 112 257 217 76 61 150 119 165
130 23 18 192 151 322 254 25 20 63 50 85 66 22 16 42 32 46 37 3 4 28 25 55
45 28 21 75 59 105 85 30 26 135 111 234 189 99 79 234 186 300 238 65 53 135
108 155 123 19 15 35 27 35 27 0 1 0 -22 1 -49z m-1392 -56 c9 -23 8 -24 -13
-24 -14 0 -18 5 -14 20 6 24 19 26 27 4z m1431 -14 c4 -6 1 -17 -5 -25 -18
-21 -39 -205 -40 -336 0 -158 5 -153 -154 -151 -118 1 -127 -1 -137 -20 -12
-22 -6 -95 8 -109 5 -5 62 -9 126 -10 l117 0 2 -72 c1 -73 1 -82 -9 -129 -3
-18 1 -32 17 -48 21 -21 22 -28 26 -423 6 -412 2 -456 -30 -414 -12 15 -18 16
-40 6 -20 -9 -29 -9 -41 1 -19 16 -45 6 -45 -18 0 -25 10 -34 25 -22 7 6 23 6
43 1 18 -5 34 -6 37 -2 2 5 16 6 30 3 25 -4 25 -5 25 -103 0 -72 -3 -99 -12
-99 -18 -1 -71 -77 -63 -90 4 -6 1 -9 -6 -8 -13 3 -89 -89 -120 -145 -11 -21
-38 -56 -60 -78 -26 -26 -41 -51 -43 -72 -2 -18 -8 -46 -14 -64 -8 -26 -7 -34
6 -46 28 -24 84 -38 117 -28 22 6 34 4 43 -5 7 -8 24 -14 37 -14 28 0 30 -7
11 -32 -16 -22 -32 -23 -40 -3 -3 8 -12 15 -21 15 -8 0 -15 5 -15 10 0 6 -7
10 -15 10 -8 0 -15 -6 -15 -13 0 -7 -10 -21 -21 -31 -20 -17 -23 -17 -31 -2
-6 11 -16 15 -30 10 -18 -5 -20 -3 -13 12 11 28 11 38 1 44 -5 3 -12 -2 -17
-10 -20 -37 -38 -86 -37 -100 3 -28 -43 -112 -58 -106 -34 13 -115 18 -143 8
-22 -8 -32 -7 -40 2 -8 10 -3 20 19 39 17 15 30 33 30 41 0 7 9 21 20 31 11
10 20 25 20 33 0 19 -29 52 -45 52 -13 0 -62 49 -81 82 -58 100 -83 170 -100
270 -9 59 -20 106 -23 104 -3 -2 -7 36 -7 85 -1 49 -5 97 -9 106 -4 10 -7 50
-6 88 1 39 -8 122 -19 185 -12 63 -25 145 -29 183 -6 63 -5 68 16 82 12 8 35
15 50 15 40 1 114 59 141 111 26 53 52 134 52 169 0 14 23 93 51 175 42 126
51 166 56 248 3 54 10 100 14 103 5 3 4 14 -2 25 -6 13 -7 25 -1 32 8 11 24
72 26 104 1 7 22 27 47 45 63 45 341 255 383 290 25 20 33 22 41 8z m-485 -7
c0 -11 -39 -46 -75 -68 -25 -16 -22 -11 15 28 43 44 60 56 60 40z m589 -43
c17 0 31 -3 31 -7 0 -5 8 -53 16 -108 21 -139 32 -264 27 -302 -5 -28 -9 -32
-42 -35 -20 -2 -59 -1 -88 0 l-51 4 -4 56 c-6 111 18 370 39 405 2 4 13 3 23
-3 10 -5 32 -10 49 -10z m-1501 -14 c6 -30 -17 -45 -34 -22 -8 11 -14 26 -14
34 0 21 44 10 48 -12z m-78 -5 c0 -5 3 -16 6 -24 3 -9 -3 -16 -17 -20 -30 -8
-32 -5 -18 27 12 25 29 35 29 17z m860 -56 c-7 -8 -18 -15 -24 -15 -6 0 -2 7
8 15 25 19 32 19 16 0z m-822 -27 c17 -17 15 -24 -10 -25 -13 -1 -33 -5 -45
-8 -18 -4 -23 -1 -23 14 0 28 56 41 78 19z m-108 -42 c0 -17 -14 -29 -23 -20
-8 8 3 34 14 34 5 0 9 -6 9 -14z m80 -26 c0 -5 -5 -10 -11 -10 -5 0 -7 5 -4
10 3 6 8 10 11 10 2 0 4 -4 4 -10z m-40 -57 c0 -7 -11 -13 -25 -13 -33 0 -45
28 -19 47 16 12 20 11 31 -4 7 -9 13 -23 13 -30z m2608 -44 l3 -47 -48 -6
c-26 -3 -199 -8 -384 -12 -244 -4 -342 -3 -358 5 -27 15 -30 77 -3 85 9 3 133
7 274 8 142 2 258 5 258 8 0 3 57 5 128 5 l127 0 3 -46z m-1633 -181 c-6 -120
-26 -233 -45 -252 -6 -6 -10 -20 -10 -32 0 -13 -14 -60 -30 -105 -18 -48 -29
-93 -26 -108 3 -16 -9 -59 -32 -115 -35 -84 -40 -90 -87 -114 -30 -16 -64 -26
-87 -26 -39 1 -46 -4 -27 -23 17 -17 -26 -27 -50 -11 -17 10 -30 7 -91 -25
-55 -29 -75 -35 -90 -27 -13 7 -21 5 -31 -6 -18 -22 -59 -38 -89 -35 -20 2
-23 0 -12 -10 16 -18 15 -29 -4 -29 -8 0 -12 5 -9 10 11 18 -24 23 -40 6 -18
-18 -29 -20 -97 -16 -39 1 -49 -2 -55 -17 -3 -10 -12 -22 -20 -26 -7 -4 -13
-14 -13 -21 0 -7 -9 -21 -21 -32 l-21 -19 7 38 c6 29 4 38 -9 43 -13 5 -14 10
-5 20 9 10 5 24 -16 60 -21 36 -38 50 -76 66 -60 25 -56 32 45 82 87 43 105
42 174 -15 28 -24 48 -35 51 -27 4 11 -49 63 -100 100 -22 15 -22 17 -6 23 21
9 89 -19 113 -46 18 -20 34 -25 34 -10 0 4 -12 21 -27 37 l-26 28 28 21 c15
11 48 37 74 57 27 23 52 36 62 33 22 -7 34 48 16 75 -9 16 -9 25 5 47 9 16 25
28 35 28 10 0 19 7 21 16 1 9 35 40 75 70 40 29 95 74 123 99 27 25 78 65 113
90 34 25 110 84 169 132 59 47 108 87 109 87 2 1 1 -54 -2 -121z m1387 24 c3
-42 1 -70 -6 -74 -6 -4 -30 -8 -53 -8 -45 0 -57 -8 -44 -29 5 -8 24 -11 51 -9
28 2 44 -1 47 -9 4 -10 -25 -13 -121 -13 -77 0 -126 4 -126 10 0 10 20 14 57
11 12 -1 24 3 28 9 11 19 -16 40 -51 40 -18 0 -35 4 -38 8 -2 4 -8 35 -11 69
l-7 62 73 3 c41 2 102 2 135 0 l62 -4 4 -66z m-361 -85 c5 -33 3 -37 -20 -41
-14 -3 -161 -8 -326 -12 -165 -3 -302 -6 -305 -6 -3 0 -37 0 -77 1 l-71 1 -7
31 c-4 17 -3 35 3 41 5 5 166 12 388 15 209 3 381 7 383 9 12 11 27 -6 32 -39z
m-2457 -156 c-2 -2 -13 4 -24 14 -18 17 -18 19 -3 49 l17 31 7 -45 c3 -25 5
-47 3 -49z m2151 59 c4 -11 3 -45 0 -75 -7 -53 -8 -55 -39 -55 -41 0 -58 -11
-46 -30 5 -9 25 -15 49 -15 33 0 41 -3 41 -17 0 -11 -7 -18 -19 -18 -11 0 -22
-4 -25 -9 -5 -8 -7 -186 -6 -741 0 -408 -11 -2145 -15 -2190 -2 -30 -4 -61 -4
-67 -1 -7 -4 -13 -8 -13 -13 0 -4 484 8 489 7 2 8 6 1 10 -6 4 -12 242 -16
631 -4 344 -10 756 -13 915 -3 160 -6 435 -7 612 0 177 -4 324 -8 328 -28 28
-29 -57 -13 -1475 10 -836 9 -1436 -2 -1494 -5 -22 -10 -27 -32 -24 l-26 3 -1
545 c-1 509 -7 869 -19 1240 -3 85 -7 392 -10 682 l-6 527 23 6 c13 3 44 4 69
2 54 -5 75 4 65 28 -5 15 -15 16 -72 10 -48 -5 -64 -4 -59 4 3 6 14 10 23 9 9
-2 18 5 20 14 3 13 -6 17 -40 20 l-43 3 -1 75 c0 41 3 77 7 80 4 3 55 6 113 7
97 2 105 1 111 -17z m616 -10 c1 -8 1 -17 1 -20 -4 -43 -13 -696 -17 -1240 -8
-1063 -19 -1762 -31 -1892 -4 -41 -11 -68 -18 -68 -8 0 -11 161 -12 622 -1
1047 -15 2582 -24 2592 -18 18 -26 -6 -23 -71 7 -196 14 -2926 8 -3031 -8
-117 -9 -123 -29 -120 l-21 3 -1 505 c-1 278 -5 690 -9 915 -5 226 -9 500 -10
610 -2 110 -5 424 -9 699 -3 274 -4 502 -1 506 2 4 47 6 100 6 77 -1 95 -4 96
-16z m-2864 -146 c18 -16 21 -22 8 -15 -32 15 -61 40 -48 41 7 0 25 -12 40
-26z m833 -133 c0 -25 -14 -41 -36 -41 -30 0 -30 7 -1 31 24 20 37 24 37 10z
m-542 -29 c2 -7 -6 -12 -17 -12 -21 0 -27 11 -14 24 9 9 26 2 31 -12z m87 -11
c3 -6 -4 -15 -15 -21 -17 -9 -20 -8 -20 10 0 20 24 28 35 11z m-150 -41 c3 -5
-3 -10 -15 -10 -12 0 -18 5 -15 10 3 6 10 10 15 10 5 0 12 -4 15 -10z m555 1
c0 -18 -29 -32 -54 -25 -26 6 -32 15 -19 27 10 10 73 8 73 -2z m-467 -26 c-17
-13 -43 -10 -43 5 0 12 22 18 43 12 17 -4 17 -5 0 -17z m-139 -34 c3 -4 -6
-19 -19 -31 -24 -22 -25 -22 -25 -4 0 31 31 56 44 35z m96 -5 c0 -1 -43 -45
-95 -97 -57 -57 -100 -92 -106 -88 -24 15 158 203 186 193 8 -3 15 -7 15 -8z
m415 5 c3 -6 -2 -14 -12 -19 -16 -7 -26 -8 -49 -3 -4 0 -1 8 6 16 14 17 46 20
55 6z m-1029 -27 c40 -19 75 -60 68 -79 -3 -7 3 -16 15 -20 25 -8 26 -14 5
-43 -21 -31 -37 -28 -29 6 11 54 -66 118 -137 114 -43 -2 -59 14 -26 27 35 14
66 13 104 -5z m424 -59 c-5 -14 -22 -41 -37 -60 -21 -26 -30 -31 -40 -23 -11
8 -4 21 29 58 49 55 62 61 48 25z m270 11 c0 -2 -8 -10 -17 -17 -16 -13 -17
-12 -4 4 13 16 21 21 21 13z m-790 -43 c28 -24 42 -52 21 -39 -13 9 -20 -16
-10 -36 13 -24 2 -45 -27 -52 -13 -4 -45 -20 -71 -37 -30 -19 -55 -28 -68 -24
-11 3 -49 8 -83 11 -54 5 -67 3 -85 -14 -25 -22 -52 -33 -61 -25 -3 3 13 28
36 55 36 44 45 49 72 45 17 -2 39 -1 48 4 10 5 41 14 70 19 62 12 107 45 48
35 -31 -6 -33 -5 -15 6 11 7 35 28 54 46 19 18 36 33 38 33 2 0 17 -12 33 -27z
m456 -89 c22 -10 61 -18 87 -20 31 -1 57 -9 70 -22 30 -27 58 -32 113 -20 51
11 94 -1 94 -25 0 -8 6 -27 14 -43 8 -16 17 -50 20 -76 l7 -47 -60 5 c-63 5
-102 -8 -146 -46 -26 -23 -106 -48 -177 -55 -60 -7 -103 4 -60 15 37 8 21 25
-23 23 -38 -2 -111 14 -102 23 2 2 39 9 82 14 125 16 119 32 -10 27 -90 -4
-116 -1 -145 13 -19 9 -41 15 -48 12 -15 -5 -62 17 -62 29 0 10 63 1 123 -18
56 -17 145 -9 171 17 17 17 0 21 -47 10 -39 -8 -55 -7 -100 10 -29 11 -62 26
-73 34 -17 13 -17 15 -2 21 9 4 32 -1 51 -10 37 -17 104 -21 175 -10 l43 7 -3
41 c-4 60 -24 67 -93 33 -60 -29 -85 -31 -93 -6 -3 8 -1 12 3 8 9 -9 105 38
105 51 0 5 10 12 23 14 12 2 23 5 23 6 1 0 19 -6 40 -15z m1254 6 c0 -5 -7
-10 -16 -10 -8 0 -12 5 -9 10 3 6 10 10 16 10 5 0 9 -4 9 -10z m-827 -90 c39
-55 58 -112 47 -147 l-8 -28 -1 26 c-2 42 -31 129 -44 129 -7 0 -20 16 -29 35
-23 45 -2 36 35 -15z m-473 3 c0 -14 -34 -43 -51 -43 -28 0 -31 17 -7 34 23
16 58 22 58 9z m-660 -46 c0 -7 -32 -62 -72 -122 -96 -148 -129 -200 -169
-264 -130 -209 -202 -311 -219 -311 -4 0 -10 10 -14 23 -6 22 36 118 102 232
39 69 114 205 126 232 12 25 29 25 34 2 2 -14 -105 -200 -152 -264 -45 -60
-108 -187 -99 -196 12 -12 215 298 269 411 35 74 48 96 69 120 12 14 24 30 26
35 18 48 65 115 81 115 10 0 18 -6 18 -13z m270 -10 c-14 -12 -54 -55 -89 -94
l-63 -72 -29 42 c-32 47 -35 57 -16 57 6 0 39 14 72 30 33 16 67 30 75 30 8 0
24 7 34 15 31 24 44 17 16 -8z m-370 -25 c0 -7 -46 -72 -51 -72 -4 0 -9 10
-12 23 -2 12 -8 29 -11 39 -6 13 -1 16 33 15 23 -1 41 -3 41 -5z m1470 4 c0
-3 -4 -8 -10 -11 -5 -3 -10 -1 -10 4 0 6 5 11 10 11 6 0 10 -2 10 -4z m-1330
-26 c0 -5 -2 -10 -4 -10 -3 0 -8 5 -11 10 -3 6 -1 10 4 10 6 0 11 -4 11 -10z
m295 -58 c0 -14 -209 -231 -240 -249 -56 -34 -28 12 70 113 36 36 65 69 65 73
0 3 19 23 42 43 42 37 63 43 63 20z m-351 -43 c-3 -5 -1 -9 4 -9 6 0 8 -9 5
-20 l-6 -21 -18 20 c-19 21 -24 42 -12 54 9 9 34 -13 27 -24z m426 26 c0 -2
-37 -41 -82 -85 -310 -303 -486 -473 -475 -459 81 108 514 548 540 549 9 0 17
-2 17 -5z m44 -23 c3 -5 -29 -42 -70 -83 -41 -41 -90 -89 -107 -108 -18 -19
-57 -58 -87 -85 -30 -28 -86 -81 -125 -119 -52 -50 -71 -63 -74 -50 -2 11 65
82 200 212 112 108 213 206 224 217 22 24 31 28 39 16z m711 -32 c-30 -33 -51
-25 -23 9 13 17 27 25 32 20 6 -5 2 -17 -9 -29z m-1215 -73 c0 -25 -4 -37 -12
-35 -16 6 -30 58 -22 88 5 24 6 24 20 6 8 -11 14 -37 14 -59z m144 61 c-5 -7
-26 -32 -48 -56 -50 -54 -76 -92 -76 -114 0 -25 28 -48 58 -48 25 0 22 -5 -39
-62 -36 -35 -86 -88 -113 -118 -58 -66 -57 -61 10 130 30 85 55 141 69 152 12
9 32 39 45 67 20 41 29 51 55 54 16 2 34 5 38 5 5 1 5 -4 1 -10z m354 -55
c-37 -37 -71 -64 -75 -60 -9 10 107 127 127 127 8 0 -15 -30 -52 -67z m1439
-15 c-3 -8 -6 -5 -6 6 -1 11 2 17 5 13 3 -3 4 -12 1 -19z m-2006 -110 c-10
-29 -35 -99 -55 -156 -20 -56 -36 -107 -36 -113 0 -6 -6 -25 -14 -42 -7 -18
-26 -75 -41 -127 -25 -87 -56 -143 -70 -128 -3 3 3 34 14 69 11 35 32 105 47
154 14 50 44 142 65 205 20 63 41 133 45 154 4 22 16 56 28 75 l20 35 8 -36
c5 -26 2 -52 -11 -90z m3945 56 c-8 -22 -21 -9 -30 31 l-7 30 22 -22 c14 -14
19 -27 15 -39z m-3483 -27 c-10 -13 -54 -54 -98 -92 -44 -37 -105 -92 -135
-121 -30 -29 -68 -63 -85 -75 -16 -13 22 26 85 87 63 60 144 138 180 174 61
61 93 78 53 27z m3560 -47 c-4 -4 -18 -11 -30 -15 -18 -5 -23 -2 -23 13 0 15
6 18 31 14 17 -2 27 -8 22 -12z m132 -31 c3 -4 -10 -5 -29 -2 -19 3 -36 1 -40
-6 -8 -13 -26 -15 -26 -3 0 24 82 33 95 11z m-4255 -16 c-4 -16 -19 -62 -33
-103 -13 -41 -32 -106 -42 -145 -10 -38 -24 -81 -32 -95 -7 -14 -13 -31 -13
-38 0 -21 -32 -116 -43 -127 -6 -7 -7 0 -2 20 4 17 13 55 20 85 13 52 34 129
70 250 9 30 18 65 20 76 4 25 47 104 57 104 4 0 3 -12 -2 -27z m4127 -25 c-3
-8 -6 -5 -6 6 -1 11 2 17 5 13 3 -3 4 -12 1 -19z m-1202 -178 c4 -36 6 -74 4
-85 -1 -11 -3 -75 -3 -141 -1 -120 -1 -121 -22 -114 -23 9 -44 -4 -44 -27 0
-7 -6 -13 -12 -14 -10 0 -10 -2 0 -6 6 -2 12 -12 12 -20 0 -10 -6 -13 -16 -9
-9 3 -22 6 -30 6 -15 0 -20 26 -5 32 5 2 5 13 0 26 -8 20 -15 23 -51 20 -41
-3 -43 -4 -43 -35 0 -38 2 -37 -41 -21 -33 12 -36 22 -19 61 4 9 4 24 1 33
-10 26 3 33 33 18 34 -17 149 -26 157 -12 12 19 -18 33 -71 34 -60 0 -71 5
-61 30 5 13 9 14 21 4 8 -7 34 -14 57 -16 24 -2 57 -6 74 -10 33 -6 54 10 36
28 -5 5 -43 15 -83 22 -55 10 -74 17 -73 28 1 14 165 241 170 235 1 -1 5 -31
9 -67z m472 6 c-34 -41 -137 -115 -137 -98 0 4 34 43 76 86 54 57 78 76 86 68
8 -8 1 -23 -25 -56z m-3204 18 c7 -7 -102 -113 -116 -114 -5 0 14 27 43 60 51
59 61 66 73 54z m502 -4 c-3 -5 -1 -10 4 -10 6 0 11 -5 11 -11 0 -6 -7 -8 -16
-5 -14 5 -15 4 -4 -9 15 -18 23 -13 25 18 2 16 7 21 21 19 10 -2 22 -9 26 -15
4 -6 25 -12 47 -12 43 0 48 -4 29 -23 -13 -13 -10 -14 36 -16 11 -1 21 -7 23
-14 3 -8 -1 -10 -14 -6 -16 6 -16 5 2 -9 11 -9 29 -17 40 -17 45 -1 108 -88
84 -116 -10 -12 -9 -13 3 -9 12 5 20 -6 32 -41 9 -26 13 -51 9 -55 -15 -14
-186 -67 -199 -62 -27 10 -14 21 21 19 34 -3 35 -3 19 15 -10 11 -14 22 -11
26 4 3 1 13 -6 21 -10 13 -8 14 13 7 24 -7 24 -7 7 11 -15 16 -19 17 -27 4 -5
-8 -5 -19 0 -26 11 -12 -35 -62 -47 -50 -4 4 -1 11 7 16 9 6 10 10 3 10 -23 0
-25 -22 -4 -44 l22 -23 -43 -20 c-51 -24 -100 -23 -128 2 -19 18 -22 18 -37 2
-10 -9 -12 -17 -6 -17 6 0 13 5 15 12 3 8 13 4 29 -10 15 -14 32 -21 44 -18
20 5 20 5 0 -10 -38 -29 -74 -44 -80 -34 -3 5 -15 15 -25 20 -15 8 -18 7 -14
-3 2 -7 -4 -24 -15 -36 -19 -21 -22 -22 -36 -7 -9 9 -22 16 -28 15 -9 0 -8 -2
1 -6 6 -2 12 -9 12 -14 0 -6 -4 -7 -10 -4 -5 3 -10 2 -10 -4 0 -5 5 -13 11
-16 6 -4 8 -13 5 -20 -3 -8 1 -19 9 -25 11 -9 12 -7 7 12 -4 19 -3 21 9 13 8
-5 6 -2 -4 8 -23 20 -15 36 8 17 12 -10 15 -10 15 0 0 7 7 10 16 6 8 -3 12 -2
9 4 -8 13 23 45 33 35 4 -4 1 -10 -5 -12 -7 -3 -13 -13 -13 -23 0 -11 -6 -23
-14 -27 -19 -11 -39 -53 -41 -85 -1 -22 1 -25 11 -17 10 8 13 3 12 -21 -1 -18
-6 -29 -12 -27 -6 3 -17 -2 -25 -10 -12 -13 -11 -14 8 -8 12 4 21 2 21 -4 0
-6 -6 -11 -12 -11 -10 0 -10 -2 0 -8 7 -5 10 -19 8 -33 -3 -13 -5 -30 -5 -36
-1 -7 -6 -13 -12 -13 -6 0 -8 10 -5 23 3 12 3 16 0 10 -8 -18 -19 -16 -40 4
-13 13 -19 14 -22 5 -2 -6 -8 -12 -14 -12 -6 0 -8 7 -5 14 4 10 1 13 -9 9 -7
-3 -14 -9 -14 -15 0 -5 -8 -7 -17 -4 -21 6 -51 -9 -40 -21 5 -4 12 -1 17 7 8
13 12 13 26 -2 15 -15 19 -15 40 -1 21 14 26 13 54 -7 37 -26 37 -43 5 -132
-36 -99 -65 -146 -99 -158 -38 -13 -39 -13 -32 6 3 9 2 12 -5 9 -5 -4 -21 1
-34 9 -14 9 -25 12 -25 7 0 -5 9 -13 20 -16 24 -8 25 -18 3 -36 -14 -12 -16
-12 -11 1 4 13 -30 50 -47 50 -4 0 3 -8 15 -18 l21 -17 -27 -25 c-16 -15 -25
-19 -22 -10 7 20 -32 21 -55 2 -13 -11 -16 -10 -22 8 -5 15 -13 20 -26 17 -10
-3 -19 -2 -19 1 0 4 -4 14 -10 22 -7 12 -12 11 -30 -5 -21 -19 -21 -19 -14 1
12 31 35 44 52 28 7 -8 11 -18 7 -24 -3 -6 1 -7 9 -4 9 3 16 10 16 15 0 5 5 9
11 9 6 0 9 -6 6 -13 -3 -8 -1 -20 4 -28 8 -12 10 -12 18 0 8 12 12 12 25 2 12
-10 16 -10 16 -2 0 8 8 10 23 5 19 -6 19 -4 -6 16 -15 12 -31 20 -34 16 -4 -3
-1 -6 5 -6 7 0 12 -4 12 -10 0 -17 -18 -11 -46 16 -19 20 -28 24 -34 14 -6
-10 -17 -6 -44 15 -20 15 -36 23 -36 17 0 -6 6 -13 13 -15 9 -4 8 -8 -3 -16
-22 -15 -40 -13 -40 4 0 8 -7 15 -15 15 -8 0 -15 5 -15 10 0 6 7 10 15 10 8 0
15 6 15 13 1 17 29 52 36 44 4 -3 -1 -13 -10 -22 -9 -9 -16 -22 -16 -28 0 -7
4 -6 9 2 8 12 12 12 25 2 11 -9 16 -10 16 -2 0 6 -4 11 -10 11 -5 0 -10 4 -10
9 0 5 19 8 43 6 23 -1 36 -1 30 2 -21 8 -15 25 6 18 26 -8 37 13 17 33 -9 9
-16 11 -16 5 0 -6 6 -13 13 -16 6 -2 9 -8 5 -12 -4 -4 -24 5 -45 20 -21 15
-27 18 -14 6 23 -20 23 -23 8 -38 -9 -9 -20 -13 -24 -9 -4 4 -1 12 7 17 12 8
10 9 -7 4 -31 -8 -39 13 -16 44 11 14 24 38 28 51 4 14 16 35 26 48 10 13 30
60 44 105 15 45 33 87 40 92 7 6 15 20 19 32 4 13 13 20 21 17 18 -7 30 15 16
29 -9 9 -10 8 -5 -7 5 -13 3 -17 -5 -15 -7 3 -12 8 -12 12 2 14 36 82 45 88 4
4 4 9 -2 13 -6 4 -5 19 4 43 7 21 13 46 14 55 1 44 22 118 33 111 7 -4 8 0 3
12 -7 20 18 55 40 55 7 0 23 20 35 45 12 25 26 45 30 45 4 0 11 9 14 20 3 11
13 20 21 20 18 0 18 -8 -1 -26 -15 -16 -10 -44 8 -44 7 0 7 4 -1 12 -9 9 -7
17 10 35 25 27 49 32 25 5 -10 -10 -17 -22 -17 -27 0 -4 9 2 20 15 19 22 19
24 4 42 -10 10 -22 18 -28 18 -6 0 -4 -4 4 -10 8 -5 11 -12 7 -16 -4 -4 -12
-3 -19 4 -18 18 9 44 32 32 13 -7 21 -5 30 5 9 11 9 15 1 15 -6 0 -11 -5 -11
-12 0 -6 -3 -9 -6 -5 -14 14 11 27 52 27 28 0 43 -4 39 -10z m-485 -44 c0 -2
-8 -10 -17 -17 -16 -13 -17 -12 -4 4 13 16 21 21 21 13z m660 -6 c0 -5 -4 -10
-10 -10 -5 0 -10 5 -10 10 0 6 5 10 10 10 6 0 10 -4 10 -10z m2644 -18 c15
-17 15 -21 1 -50 -25 -50 -124 -141 -188 -173 -69 -34 -68 -34 -61 -14 4 8 1
22 -6 30 -20 24 -8 58 23 66 41 11 127 69 127 85 0 8 7 14 15 14 8 0 24 14 37
30 26 35 29 36 52 12z m-349 -132 c3 -5 1 -10 -4 -10 -6 0 -11 5 -11 10 0 6 2
10 4 10 3 0 8 -4 11 -10z m-988 -52 c-3 -8 -6 -5 -6 6 -1 11 2 17 5 13 3 -3 4
-12 1 -19z m1034 -10 c6 -13 19 -31 27 -41 24 -27 43 -110 29 -119 -27 -18
-42 -3 -47 47 -4 37 -9 51 -22 53 -10 2 -18 -1 -18 -6 0 -6 -10 -8 -21 -5 -21
6 -21 7 -4 20 11 7 27 13 37 13 10 0 18 7 18 16 0 12 -7 15 -30 12 -20 -3 -30
0 -30 8 0 11 14 18 42 23 4 0 13 -9 19 -21z m-907 -191 c31 -31 56 -61 56 -67
0 -36 -87 32 -116 92 -28 56 -64 145 -64 155 1 4 16 -21 35 -58 18 -36 58 -91
89 -122z m1255 113 c0 -33 -4 -58 -9 -55 -4 3 -6 14 -3 25 4 14 0 20 -12 20
-14 0 -16 -6 -11 -26 6 -22 4 -25 -9 -20 -9 3 -21 6 -25 6 -5 0 -14 9 -20 20
-9 17 -5 23 32 47 24 16 45 31 46 36 8 17 10 4 11 -53z m-2679 -20 c0 -5 -4
-10 -10 -10 -5 0 -10 5 -10 10 0 6 5 10 10 10 6 0 10 -4 10 -10z m2299 -17
c-8 -52 21 -87 65 -80 28 5 33 2 48 -34 18 -43 11 -48 -32 -24 -55 32 -100 4
-100 -62 0 -17 -4 -34 -10 -38 -6 -3 -8 24 -6 72 2 43 4 99 5 126 1 34 5 47
16 47 8 0 14 -3 14 -7z m161 -52 c0 -12 -20 -25 -27 -18 -7 7 6 27 18 27 5 0
9 -4 9 -9z m49 2 c0 -5 -4 -17 -9 -28 -8 -18 -9 -17 -9 8 -1 15 4 27 9 27 6 0
10 -3 9 -7z m171 -8 c0 -9 -9 -26 -20 -38 -20 -21 -20 -22 -2 -28 16 -6 20
-18 21 -68 1 -50 -2 -59 -14 -55 -17 7 -20 24 -5 24 6 0 10 7 10 15 0 8 -5 15
-11 15 -7 0 -9 9 -5 24 6 25 -7 42 -34 45 -65 6 -91 14 -88 29 5 25 55 25 61
1 3 -11 14 -19 27 -19 20 0 22 4 16 35 -6 33 -5 35 19 35 16 0 25 -6 25 -15z
m-3606 -39 c79 -33 91 -176 15 -176 -36 0 -35 -23 0 -28 38 -6 69 7 77 31 12
36 13 90 4 108 -7 12 -5 21 4 28 19 16 77 -8 100 -40 31 -45 15 -134 -26 -144
-22 -6 -48 -45 -48 -72 0 -37 -76 -50 -130 -21 -32 17 -88 75 -95 99 -7 23
-28 25 -45 4 -17 -20 -9 -48 18 -60 33 -14 21 -30 -24 -31 -35 -2 -43 2 -63
32 -26 37 -38 42 -48 18 -3 -9 6 -27 23 -45 27 -28 27 -29 5 -29 -36 0 -99 37
-103 61 -7 52 -68 45 -68 -7 0 -44 -32 -23 -44 29 -3 15 -10 27 -15 27 -12 0
-22 -30 -15 -43 5 -9 4 -9 -5 -1 -16 15 7 94 25 87 7 -3 33 16 57 41 53 56 92
61 110 13 11 -30 29 -15 33 27 5 53 23 77 70 92 54 17 148 17 188 0z m2906
-132 c-7 -46 -16 -84 -21 -84 -5 0 -8 -10 -7 -22 2 -24 -19 -88 -54 -168 -22
-48 -88 -153 -151 -238 l-40 -53 -25 38 c-14 21 -34 48 -45 61 -18 19 -18 22
-4 22 18 0 23 25 7 35 -16 10 -12 28 5 21 8 -3 14 -2 13 2 -3 11 32 72 41 72
9 0 111 145 111 156 0 4 16 28 35 54 19 26 35 51 35 54 0 4 18 31 40 61 22 30
46 67 53 82 18 41 21 7 7 -93z m-92 94 c24 -24 14 -38 -19 -26 -26 9 -33 8
-41 -6 -5 -9 -14 -16 -20 -16 -7 0 1 14 17 30 31 33 45 36 63 18z m660 -22 c3
-12 -1 -17 -10 -14 -7 3 -15 13 -16 22 -3 12 1 17 10 14 7 -3 15 -13 16 -22z
m-171 -16 c35 -13 54 -16 59 -9 4 8 9 8 17 0 6 -6 21 -11 34 -11 27 0 28 -10
7 -87 -19 -74 -43 -183 -54 -251 -5 -30 -11 -56 -13 -59 -3 -2 -16 1 -28 8
-20 10 -25 8 -46 -17 -29 -37 -31 -59 -3 -44 10 6 23 17 27 24 7 12 11 12 26
1 16 -11 17 -18 7 -61 -19 -80 -17 -77 -45 -57 -13 10 -25 28 -25 39 0 12 -7
27 -15 34 -21 17 -19 22 17 81 l31 51 18 -23 c13 -17 21 -21 29 -13 7 7 1 19
-20 39 -34 33 -48 27 -70 -30 -16 -41 -20 -42 -41 -12 -14 19 -33 107 -24 107
17 0 35 -16 35 -31 0 -10 4 -19 10 -19 15 0 30 35 36 85 7 49 19 55 58 29 17
-11 26 -12 31 -4 9 14 -21 37 -59 44 -32 7 -46 1 -46 -20 0 -8 -5 -14 -11 -14
-6 0 -9 6 -6 13 2 6 10 28 17 48 l13 37 50 -30 c45 -26 77 -31 77 -11 0 4 -10
13 -23 19 -12 6 -41 22 -64 35 -66 37 -83 17 -99 -116 -9 -75 -20 -54 -21 40
0 76 2 95 14 95 8 0 20 15 28 33 14 31 16 31 19 5 2 -18 26 -21 26 -3 0 14 6
15 33 9 49 -11 59 -10 64 3 3 7 -11 15 -34 19 -21 4 -44 11 -50 17 -9 6 -18 5
-28 -3 -13 -10 -15 -9 -15 9 0 11 1 21 3 21 1 0 25 -9 54 -20z m-627 -11 c0
-14 47 -59 61 -59 6 0 15 14 20 30 12 34 13 34 38 18 18 -11 18 -13 2 -37 -48
-77 -81 -108 -81 -77 0 7 -9 25 -21 40 -16 21 -24 24 -39 16 -10 -6 -21 -10
-25 -10 -10 0 7 74 19 82 16 11 26 10 26 -3z m-1761 -5 c32 -7 32 -7 -21 -25
-29 -10 -73 -21 -98 -24 -25 -3 -59 -8 -77 -11 -30 -4 -31 -4 -24 23 7 27 10
28 92 34 46 3 87 6 90 7 4 1 21 -1 38 -4z m-629 -33 c-1 -3 -7 -17 -15 -31
-14 -25 -14 -25 -12 11 1 25 6 35 14 32 7 -3 13 -8 13 -12z m813 -16 c40 -19
51 -41 15 -29 -40 12 -118 49 -118 55 0 10 60 -5 103 -26z m2417 26 c0 -5 -7
-11 -15 -15 -9 -3 -15 0 -15 9 0 8 7 15 15 15 8 0 15 -4 15 -9z m482 -27 c-24
-18 -34 -7 -15 16 12 14 19 16 24 8 4 -7 0 -17 -9 -24z m-87 -10 c44 -36 93
-44 87 -15 -2 8 3 11 12 8 9 -4 32 1 51 9 40 17 125 15 125 -2 0 -17 -38 -24
-44 -9 -6 16 -37 10 -84 -17 -19 -10 -53 -18 -80 -18 -43 0 -52 4 -87 40 -48
50 -38 52 20 4z m-360 6 c-3 -5 -16 -15 -28 -21 -19 -9 -19 -8 3 10 28 23 34
26 25 11z m-2596 -22 c-12 -23 -11 -23 8 -5 20 17 22 17 74 -14 30 -17 63 -33
74 -34 11 -1 26 -3 33 -4 7 0 10 -5 7 -11 -3 -5 -2 -10 4 -10 5 0 12 6 14 13
4 7 6 6 6 -4 1 -21 -52 -79 -72 -79 -26 0 -30 20 -11 43 15 18 13 17 -9 -3
-24 -21 -30 -22 -37 -10 -6 10 -10 11 -10 3 0 -7 -11 -15 -25 -19 -14 -3 -25
-10 -25 -15 0 -5 -3 -8 -7 -8 -19 3 -27 -2 -15 -9 16 -11 -37 -83 -56 -77 -7
3 -23 0 -34 -6 -12 -6 -18 -7 -14 -1 3 5 -11 1 -32 -10 -20 -10 -45 -17 -55
-14 -9 2 -15 0 -11 -5 3 -5 -1 -9 -10 -9 -8 0 -16 -5 -18 -11 -2 -6 -14 -8
-31 -4 -16 4 -24 12 -20 19 4 6 -1 5 -10 -3 -25 -20 -33 -6 -20 32 17 49 27
117 24 168 -2 54 11 64 104 75 64 8 62 8 85 17 33 12 46 15 73 16 26 1 27 -1
16 -21z m2984 -62 c33 -6 36 -9 22 -22 -13 -14 -17 -14 -31 1 -13 12 -19 13
-28 5 -8 -9 -7 -15 5 -23 14 -9 12 -14 -17 -39 -18 -16 -38 -27 -44 -23 -6 3
-10 44 -10 93 l1 87 32 -36 c22 -25 44 -39 70 -43z m-330 10 c2 -37 -1 -45
-13 -41 -8 2 -21 1 -28 -4 -18 -11 12 -35 34 -27 13 5 14 4 6 -7 -7 -8 -8 -18
-4 -23 4 -5 -5 2 -21 15 -41 37 -59 35 -101 -9 -36 -38 -56 -49 -56 -32 0 5 5
34 11 66 9 40 15 54 22 47 6 -6 16 -11 22 -11 5 0 3 5 -5 10 -12 8 -11 10 7
10 12 0 28 6 35 13 14 13 81 46 86 42 2 -2 4 -24 5 -49z m-133 34 c0 -5 -2
-10 -4 -10 -3 0 -8 5 -11 10 -3 6 -1 10 4 10 6 0 11 -4 11 -10z m-4000 -9 c0
-5 -5 -22 -11 -38 l-11 -28 -9 24 c-6 14 -7 31 -5 38 6 15 36 18 36 4z m2720
-1 c12 -8 9 -10 -13 -10 -16 0 -26 4 -22 10 8 12 16 12 35 0z m488 -12 c9 -9
9 -15 0 -25 -8 -10 -8 -17 0 -25 7 -7 12 -18 12 -26 0 -11 -3 -11 -15 2 -8 8
-15 19 -15 24 0 5 -7 15 -15 22 -12 10 -19 10 -27 2 -24 -24 -31 -11 -8 13 25
27 49 32 68 13z m-209 -9 c32 -11 39 -23 20 -35 -6 -3 -15 0 -20 7 -6 10 -9
11 -9 2 0 -7 -7 -13 -16 -13 -9 0 -12 5 -8 13 4 6 -5 1 -19 -12 -26 -24 -38
-49 -17 -36 6 3 10 2 10 -4 0 -7 8 -7 23 -2 14 6 29 5 38 0 12 -8 11 -12 -5
-24 -30 -23 -42 -18 -20 8 11 12 4 9 -15 -8 -26 -23 -32 -26 -27 -11 9 25 -12
38 -38 24 -18 -10 -17 -6 7 25 30 40 37 62 8 26 -11 -13 -23 -20 -27 -16 -9 9
36 48 47 41 4 -2 12 3 19 11 15 18 10 17 49 4z m1686 1 c3 -5 -1 -10 -10 -10
-9 0 -13 5 -10 10 3 6 8 10 10 10 2 0 7 -4 10 -10z m-2880 -15 c43 -5 68 -22
58 -39 -4 -6 1 -5 10 3 27 22 20 -5 -10 -39 -31 -36 -33 -36 -63 -10 l-23 20
21 23 c12 13 22 27 22 31 0 4 -11 -5 -23 -20 -38 -44 -62 -22 -48 44 1 2 5 1
10 -2 5 -3 26 -8 46 -11z m874 -22 c2 -1 -4 -10 -14 -20 -17 -16 -17 -16 -11
5 5 13 3 22 -3 22 -6 0 -11 -5 -11 -11 0 -6 -7 -8 -17 -5 -14 6 -13 2 4 -15
22 -22 23 -22 43 -4 11 10 23 15 27 11 4 -4 1 -11 -6 -15 -8 -5 -9 -11 -3 -15
5 -3 13 2 16 11 6 15 8 15 16 3 6 -8 10 -11 10 -5 0 5 22 -13 50 -40 35 -34
46 -51 37 -57 -9 -6 -9 -12 -1 -26 10 -16 9 -18 -9 -18 -14 1 -21 -6 -22 -23
-1 -14 -7 -27 -13 -29 -18 -6 -14 -30 6 -41 9 -6 14 -11 9 -11 -4 0 -16 6 -27
12 -15 10 -22 10 -32 0 -9 -9 -6 -16 12 -32 13 -11 28 -20 33 -20 6 0 7 -3 4
-6 -4 -4 -17 0 -29 8 -13 8 -29 13 -35 11 -18 -6 -16 -40 3 -47 8 -3 13 -10 9
-15 -3 -6 -17 -3 -34 6 -26 16 -29 15 -49 -5 -12 -12 -26 -22 -31 -22 -12 0
-76 26 -131 54 -42 21 -63 46 -40 46 6 0 10 -5 10 -12 0 -6 3 -8 7 -5 3 4 12
2 20 -4 9 -9 13 -8 13 0 0 6 5 11 11 11 6 0 9 -7 6 -14 -4 -10 -1 -13 7 -10 8
3 17 0 21 -6 6 -9 9 -9 15 -1 11 18 41 1 35 -19 -3 -11 1 -20 11 -24 15 -6 15
-4 3 10 -12 15 -12 16 7 10 14 -4 26 0 38 13 17 19 17 21 -1 45 -18 26 -33 33
-33 17 0 -5 6 -11 13 -14 6 -2 8 -8 4 -13 -4 -5 -12 -2 -16 5 -5 8 -11 9 -15
3 -3 -6 0 -12 6 -15 7 -2 10 -8 6 -12 -4 -4 -14 0 -23 9 -20 19 -32 20 -38 4
-2 -7 -8 -10 -12 -6 -4 4 0 15 10 24 14 14 18 15 25 4 7 -11 13 -9 29 11 11
13 20 29 20 34 0 6 -8 0 -19 -13 -11 -13 -25 -20 -31 -17 -8 6 -7 10 2 17 11
7 11 9 -1 7 -40 -4 -48 3 -31 30 8 12 13 12 35 -3 14 -9 26 -12 26 -6 0 5 -4
10 -9 10 -5 0 -29 18 -53 40 -23 22 -47 39 -53 39 -5 0 5 -12 23 -27 23 -19
31 -33 26 -45 -8 -22 -27 -22 -20 1 4 11 -4 23 -24 37 -17 11 -28 26 -25 33 3
8 -2 20 -10 28 -8 9 -15 11 -15 5 0 -6 -7 -11 -17 -11 -14 0 -14 2 2 20 18 19
18 19 47 -6 21 -17 34 -22 42 -15 8 7 21 2 41 -15 21 -17 26 -27 17 -31 -10
-4 -10 -8 -1 -19 6 -8 17 -14 23 -14 6 0 4 4 -4 10 -8 5 -11 12 -7 16 10 10
37 -16 31 -31 -9 -21 16 -28 36 -10 10 9 23 14 29 10 7 -4 8 0 4 11 -5 13 -3
16 10 11 9 -3 21 1 28 11 11 14 11 15 -1 5 -9 -9 -17 -9 -26 -2 -9 7 -16 4
-27 -11 -12 -17 -19 -20 -34 -11 -26 13 -47 40 -40 48 4 3 15 0 24 -8 16 -13
17 -12 4 4 -8 10 -21 15 -32 12 -21 -7 -31 7 -23 29 4 11 13 15 28 11 19 -5
19 -5 3 5 -9 6 -21 9 -26 6 -16 -10 -42 6 -37 23 3 9 1 23 -4 31 -9 13 -11 13
-20 0 -7 -10 -12 -12 -17 -4 -5 6 -15 13 -23 16 -8 3 11 6 43 6 32 1 73 10 95
20 27 13 41 16 52 8 8 -6 17 -11 19 -13z m395 19 c2 -4 -4 -8 -14 -8 -10 0
-16 4 -14 8 3 4 9 8 14 8 5 0 11 -4 14 -8z m-2329 -52 c-10 -22 -21 -40 -25
-40 -12 0 -23 54 -12 58 5 1 18 9 28 17 27 19 30 11 9 -35z m2105 5 c-18 -19
-26 -22 -37 -14 -16 14 -8 30 11 23 8 -3 17 -1 21 5 3 6 11 11 17 11 6 0 1
-11 -12 -25z m-930 9 c0 -3 -14 -25 -31 -48 l-31 -41 35 38 c31 33 57 51 43
29 -8 -13 14 -82 26 -82 5 0 8 -7 4 -15 -3 -8 -2 -14 2 -14 22 4 23 -4 2 -26
-29 -31 -65 -34 -57 -5 3 11 1 20 -5 20 -6 0 -7 7 -4 16 3 8 2 12 -3 9 -5 -3
-22 6 -37 20 l-27 25 34 39 c32 37 49 49 49 35z m198 -11 c58 -6 73 -24 16
-19 -19 1 -38 -2 -41 -7 -3 -5 -10 -3 -15 4 -7 11 -11 11 -15 2 -9 -23 -25
-14 -18 10 5 16 4 18 -3 8 -6 -8 -18 -11 -28 -7 -14 4 -13 1 5 -14 13 -11 21
-24 17 -27 -4 -4 -11 -1 -16 7 -5 8 -12 11 -16 7 -4 -4 1 -14 12 -21 10 -8 32
-25 49 -40 16 -14 31 -23 34 -20 3 3 -1 9 -8 14 -22 13 8 37 44 34 43 -2 45
-3 45 -15 0 -6 -7 -9 -14 -6 -10 4 -13 1 -9 -9 3 -7 9 -14 14 -14 5 0 9 -7 9
-15 0 -8 3 -14 8 -13 4 1 17 -3 29 -10 19 -11 22 -10 17 3 -4 8 -1 15 7 15 7
0 9 3 6 7 -4 3 -2 12 4 20 9 10 8 13 -1 13 -7 0 -10 7 -7 15 4 8 2 17 -4 20
-5 4 -7 11 -3 16 4 6 11 6 20 -2 9 -7 14 -8 14 -1 0 14 66 8 85 -8 9 -8 15 -8
15 -2 0 6 -9 14 -20 17 -11 3 -20 10 -20 15 0 4 -7 10 -14 13 -10 4 -13 1 -9
-9 3 -7 0 -14 -6 -14 -6 0 -11 5 -11 11 0 8 -5 7 -16 -2 -13 -10 -17 -10 -25
2 -8 12 -10 12 -18 0 -5 -8 -14 -10 -22 -6 -8 5 -4 -3 9 -17 17 -19 20 -27 10
-31 -11 -5 -11 -7 1 -15 9 -7 10 -12 2 -16 -6 -4 -9 -12 -6 -17 4 -5 -1 -9
-10 -9 -11 0 -15 6 -11 18 7 21 -1 32 -36 55 -16 10 -28 22 -28 28 0 8 4 8 14
0 11 -9 17 -8 28 7 7 11 25 18 43 19 17 0 42 3 58 7 16 5 32 4 40 -3 9 -7 17
-7 24 0 11 11 43 2 43 -13 0 -5 -10 -6 -22 -3 -23 7 -23 7 -3 -8 14 -11 22
-12 27 -4 4 6 10 8 14 4 4 -4 -4 -20 -19 -35 -21 -22 -24 -31 -15 -40 6 -6 8
-15 4 -19 -4 -4 -12 -1 -17 7 -9 13 -10 13 -7 1 5 -19 19 -23 38 -11 13 8 12
11 -5 24 -17 13 -18 15 -3 16 20 0 31 -15 34 -48 2 -19 -1 -22 -19 -17 -17 5
-19 4 -7 -4 8 -5 11 -13 7 -17 -4 -4 -16 1 -28 12 -21 19 -21 19 -39 -3 -14
-17 -20 -19 -31 -10 -11 10 -11 9 -1 -4 17 -23 5 -48 -19 -42 -10 3 -19 9 -19
13 0 5 -10 12 -22 16 -13 4 -29 14 -36 23 -8 9 -11 10 -7 4 9 -18 4 -17 -80
23 -113 54 -128 72 -116 146 0 4 16 5 34 2 17 -3 56 -7 85 -11z m1049 0 c1
-10 5 -32 8 -49 10 -45 -16 -64 -40 -28 -13 20 -23 25 -45 22 l-28 -4 22 29
c32 44 80 61 83 30z m-720 -9 c3 3 0 6 -7 6 -7 0 -11 3 -8 6 7 7 50 -14 61
-30 5 -8 10 -6 16 4 6 8 13 11 18 7 4 -5 1 -12 -6 -17 -12 -7 -12 -11 1 -24 9
-8 18 -12 22 -9 3 4 6 1 6 -6 0 -7 -7 -11 -15 -8 -8 4 -17 2 -21 -4 -3 -6 -20
1 -41 17 l-36 27 -17 -23 c-11 -14 -20 -19 -24 -12 -3 6 4 18 16 27 15 12 19
19 11 22 -7 3 -13 12 -13 20 0 13 3 13 15 3 9 -7 18 -10 22 -6z m593 -11 c-20
-36 -59 -77 -66 -70 -4 4 -2 7 4 7 7 0 12 6 12 13 0 12 46 67 56 67 2 0 0 -8
-6 -17z m1690 -18 c7 -14 19 -25 26 -25 8 0 11 -6 8 -15 -4 -8 -10 -15 -16
-15 -5 0 -7 4 -3 9 3 5 -12 23 -32 40 -31 26 -34 31 -17 31 12 0 26 -11 34
-25z m-4660 1 c0 -23 -16 -27 -17 -5 -1 10 2 19 8 19 5 0 9 -6 9 -14z m2070
-18 c0 -5 -4 -8 -10 -8 -5 0 -10 5 -10 11 0 8 -4 8 -14 0 -7 -6 -20 -10 -27
-8 -8 2 -11 2 -6 0 4 -3 7 -9 7 -14 0 -11 -11 -11 -29 0 -21 14 5 44 30 36 11
-4 19 -2 19 4 0 8 7 7 20 -1 11 -7 20 -16 20 -20z m1627 10 c-3 -8 -6 -5 -6 6
-1 11 2 17 5 13 3 -3 4 -12 1 -19z m304 -2 c6 -13 22 -30 35 -37 13 -7 24 -16
24 -20 0 -12 -44 3 -60 21 -16 18 -29 14 -86 -27 -31 -23 -44 -21 -44 4 0 8 6
13 13 11 20 -5 88 35 83 48 -3 7 -2 15 1 18 12 12 24 6 34 -18z m474 14 c-3
-5 -18 -10 -33 -10 -15 0 -38 -7 -50 -16 -12 -8 -22 -11 -22 -6 0 11 66 41 93
41 10 1 15 -3 12 -9z m113 2 c-9 -4 -32 -22 -52 -39 -24 -22 -37 -29 -42 -21
-4 7 -3 13 3 15 5 2 25 15 43 28 19 14 41 25 49 24 14 0 13 -1 -1 -7z m-2909
-11 c23 -15 2 -31 -40 -31 -41 0 -51 12 -21 29 21 13 43 13 61 2z m-709 -15
c0 -3 -4 -8 -10 -11 -5 -3 -10 -1 -10 4 0 6 5 11 10 11 6 0 10 -2 10 -4z
m-353 -22 c8 -22 -23 -84 -43 -84 -9 0 -34 5 -55 11 -28 9 -41 19 -49 42 -13
39 -13 44 2 29 16 -16 57 -15 88 2 34 19 49 19 57 0z m-374 -16 c37 -3 37 -3
22 -25 -15 -22 -17 -22 -43 -6 -29 19 -42 33 -42 47 0 5 6 4 13 -2 7 -6 29
-12 50 -14z m4382 1 c10 -31 -3 -36 -28 -9 -17 18 -17 20 -3 9 18 -13 19 -12
13 4 -3 9 -2 17 3 17 5 0 12 -9 15 -21z m-2495 -9 c0 -5 -4 -10 -10 -10 -5 0
-10 5 -10 10 0 6 5 10 10 10 6 0 10 -4 10 -10z m250 -10 c-10 -6 -7 -12 9 -21
21 -14 28 -29 14 -29 -5 1 -18 9 -31 20 -20 16 -21 22 -10 34 7 7 17 12 22 9
4 -3 2 -9 -4 -13z m660 10 c0 -5 -4 -10 -10 -10 -5 0 -10 5 -10 10 0 6 5 10
10 10 6 0 10 -4 10 -10z m1405 1 c-3 -2 0 -10 6 -17 9 -11 7 -15 -6 -21 -12
-4 -23 0 -31 12 -16 22 -10 34 16 32 10 -1 17 -3 15 -6z m-4115 -22 c-7 -11
-14 -18 -17 -15 -3 3 0 12 7 21 18 21 23 19 10 -6z m1218 0 c13 -21 13 -21
-50 -14 -35 4 -65 9 -68 12 -9 8 19 18 62 21 35 2 46 -2 56 -19z m199 7 c-4
-10 -1 -13 9 -9 7 3 14 1 14 -5 0 -5 -14 -12 -30 -14 -23 -4 -30 -1 -28 11 2
9 10 19 18 23 22 10 23 9 17 -6z m2239 -1 c14 -13 13 -15 -5 -15 -12 0 -38
-16 -60 -35 -31 -28 -41 -33 -50 -22 -15 19 -1 30 17 14 9 -6 13 -7 9 -1 -3 6
5 17 18 24 14 7 27 21 31 32 7 22 20 23 40 3z m377 -27 c-2 -5 -11 -8 -18 -8
-12 0 -12 5 -3 26 11 23 13 24 19 7 3 -10 5 -21 2 -25z m-2735 20 c-2 -6 -10
-14 -16 -16 -7 -2 -10 2 -6 12 7 18 28 22 22 4z m-1660 -47 c-7 -9 -14 -18
-15 -20 -2 -2 -3 10 -3 29 0 28 2 31 15 20 12 -10 13 -16 3 -29z m1972 30 c0
-13 -29 -35 -37 -28 -7 8 15 37 28 37 5 0 9 -4 9 -9z m1060 0 c0 -5 -11 -11
-25 -13 -24 -5 -32 2 -18 15 9 10 43 8 43 -2z m1054 -7 c9 -3 16 -10 16 -16 0
-5 -6 -6 -12 -2 -10 6 -10 4 0 -8 8 -10 9 -19 4 -22 -9 -5 -42 34 -42 49 0 7
15 6 34 -1z m-2094 -14 c0 -5 6 -7 13 -4 7 2 21 -2 32 -10 18 -14 18 -15 3
-16 -10 0 -18 4 -18 10 0 5 -7 7 -15 4 -20 -8 -48 3 -40 16 8 13 25 13 25 0z
m437 -12 c19 -17 23 -19 17 -5 -4 10 -1 17 6 17 7 0 10 -8 7 -20 -4 -15 3 -25
24 -37 33 -19 39 -38 10 -28 -11 3 -26 -1 -35 -11 -16 -15 -18 -15 -37 2 -17
16 -22 16 -29 4 -6 -8 -10 -19 -10 -23 0 -4 -9 -3 -21 3 -12 7 -18 18 -15 26
3 8 1 14 -4 14 -6 0 -10 -5 -10 -11 0 -6 -14 -1 -30 11 -25 18 -29 25 -19 36
7 8 18 13 25 10 7 -3 16 0 20 6 4 6 3 8 -4 4 -6 -3 -14 -1 -17 5 -5 7 -1 10
10 7 22 -4 28 -18 16 -37 -8 -12 -12 -12 -25 -2 -21 17 -21 4 0 -16 13 -13 17
-14 24 -3 4 7 12 10 17 7 6 -4 21 5 33 18 13 14 18 25 12 25 -7 0 -12 5 -12
10 0 17 23 11 47 -12z m398 12 c3 -5 2 -10 -4 -10 -5 0 -13 5 -16 10 -3 6 -2
10 4 10 5 0 13 -4 16 -10z m-1330 -16 c22 -2 99 -6 171 -8 97 -2 139 -7 164
-19 18 -9 56 -17 84 -17 28 -1 65 -7 81 -14 l30 -13 -40 -6 c-22 -4 -78 -12
-125 -18 -61 -7 -90 -16 -103 -30 -13 -14 -26 -18 -55 -14 -35 5 -120 15 -152
17 -8 1 -17 4 -20 7 -21 26 -65 40 -131 42 -67 2 -140 16 -154 30 -15 15 167
62 200 52 6 -2 29 -6 50 -9z m2535 4 c0 -5 -4 -6 -10 -3 -17 10 -11 -4 10 -27
10 -12 17 -26 13 -31 -3 -6 -11 -3 -19 8 -16 22 -58 13 -86 -18 -11 -12 -16
-16 -12 -8 4 9 3 12 -4 8 -13 -9 -42 2 -42 15 0 6 7 7 16 4 8 -3 25 0 37 6 12
7 25 11 30 10 4 -1 7 5 7 14 0 8 4 12 10 9 5 -3 7 0 4 8 -4 10 2 15 20 15 14
0 26 -5 26 -10z m-1650 -7 c0 -5 -7 -14 -15 -21 -16 -14 -18 -10 -9 14 6 17
24 22 24 7z m220 -1 c0 -5 -4 -10 -10 -10 -5 0 -10 5 -10 10 0 6 5 10 10 10 6
0 10 -4 10 -10z m1824 -12 c-4 -6 -10 -24 -13 -40 l-6 -28 -29 19 -28 19 21
21 c22 22 68 30 55 9z m-3204 -48 c21 -22 99 -40 170 -40 56 0 60 -2 60 -23 0
-28 51 -62 68 -45 12 12 92 19 92 7 0 -4 18 -6 39 -4 22 2 47 -2 57 -9 14 -11
4 -13 -67 -13 -116 0 -162 -7 -254 -39 -54 -18 -108 -28 -169 -32 -85 -4 -89
-4 -112 22 -14 14 -32 26 -40 26 -8 0 -12 5 -9 10 3 6 17 7 31 4 20 -5 24 -2
24 15 0 30 -44 32 -67 3 -27 -36 -11 0 28 62 25 41 49 66 62 69 41 7 72 3 87
-13z m954 5 c45 -19 46 -25 4 -18 -18 2 -44 4 -57 4 -24 -1 -24 -1 -5 14 10 8
20 15 20 15 1 0 18 -7 38 -15z m1926 -13 c0 -9 -7 -11 -22 -7 -16 4 -19 3 -9
-3 10 -7 10 -11 1 -17 -16 -10 -34 10 -27 28 7 18 57 17 57 -1z m-95 -3 c4 -6
-3 -13 -15 -16 -15 -4 -20 -11 -17 -24 4 -14 -8 -25 -56 -49 -64 -32 -74 -32
-62 -3 5 10 7 25 6 33 -2 13 0 13 8 1 5 -8 7 -20 4 -28 -3 -7 -1 -13 3 -13 15
1 44 26 44 39 0 12 58 71 71 71 4 0 11 -5 14 -11z m-1515 -9 c0 -5 -4 -10 -10
-10 -5 0 -10 5 -10 10 0 6 5 10 10 10 6 0 10 -4 10 -10z m1215 -42 c21 -46 23
-53 9 -56 -25 -6 -37 13 -39 62 -1 25 0 46 2 46 2 0 15 -24 28 -52z m195 42
c8 -5 11 -10 5 -10 -5 0 -17 5 -25 10 -8 5 -10 10 -5 10 6 0 17 -5 25 -10z
m-935 -10 c-3 -5 -11 -10 -16 -10 -6 0 -7 5 -4 10 3 6 11 10 16 10 6 0 7 -4 4
-10z m295 -29 c-4 -16 -6 -32 -3 -35 6 -6 -49 -76 -61 -76 -4 0 -6 7 -3 14 4
11 1 13 -10 9 -13 -5 -13 -2 2 20 9 15 21 27 26 27 5 0 9 5 9 11 0 13 32 58
42 59 4 0 3 -13 -2 -29z m1340 -1 c8 -18 20 -30 31 -30 23 0 23 -4 5 -33 -8
-12 -17 -43 -20 -69 -4 -26 -11 -50 -15 -53 -5 -2 -12 -26 -17 -52 -8 -52 -8
-51 -17 -73 -3 -8 -15 -54 -28 -102 -12 -49 -26 -88 -31 -88 -4 0 -16 9 -25
20 -22 25 -38 25 -63 0 -19 -19 -19 -19 -40 10 -15 22 -30 30 -51 30 -29 0
-29 0 -29 61 0 44 3 59 13 56 6 -2 11 -10 9 -16 -4 -18 60 -51 99 -51 21 0 50
10 70 23 30 20 34 28 37 73 3 43 -1 54 -24 77 -52 52 -110 56 -171 11 l-23
-16 0 94 c0 104 8 122 47 107 18 -7 33 -5 53 5 25 12 30 12 47 -6 23 -23 55
-14 92 26 31 33 36 33 51 -4z m50 20 c0 -5 -2 -10 -4 -10 -3 0 -8 5 -11 10 -3
6 -1 10 4 10 6 0 11 -4 11 -10z m-2565 -20 c-3 -4 10 -5 28 -1 38 8 67 4 67
-10 0 -6 4 -8 9 -5 11 7 71 -16 71 -27 0 -6 5 -5 13 0 16 13 82 10 135 -5 41
-13 57 -31 27 -33 -14 -1 -19 -2 -42 -8 -7 -2 -38 -2 -215 2 -31 0 -54 5 -51
10 3 5 -4 3 -15 -4 -12 -7 -27 -9 -38 -4 -11 4 -25 7 -33 6 -7 -1 -20 1 -30 5
-17 7 -23 8 -106 19 -81 11 -109 11 -122 2 -14 -10 -17 2 -5 19 11 16 45 27
36 11 -6 -9 -5 -9 7 0 8 7 40 15 69 18 30 3 75 9 100 13 51 8 102 4 95 -8z
m525 14 c0 -7 -27 -34 -34 -34 -4 0 -1 9 6 20 12 19 28 27 28 14z m770 2 c0
-3 -4 -8 -10 -11 -5 -3 -10 -1 -10 4 0 6 5 11 10 11 6 0 10 -2 10 -4z m-47
-19 c3 -7 -3 -13 -14 -14 -12 -1 -16 3 -12 13 6 18 19 18 26 1z m765 -41 c-4
-44 -43 -48 -85 -7 -17 16 -30 31 -27 33 2 2 28 4 59 5 l56 1 -3 -32z m-2328
14 c0 -5 -4 -10 -10 -10 -5 0 -10 5 -10 10 0 6 5 10 10 10 6 0 10 -4 10 -10z
m1635 -9 c-3 -6 -11 -11 -16 -11 -5 0 -4 6 3 14 14 16 24 13 13 -3z m65 3 c0
-8 -4 -12 -10 -9 -5 3 -10 10 -10 16 0 5 5 9 10 9 6 0 10 -7 10 -16z m-416
-48 c25 -29 46 -59 46 -67 0 -8 12 -25 25 -38 14 -13 25 -34 25 -47 0 -20 5
-24 30 -24 24 0 31 -5 36 -27 10 -43 23 -56 42 -41 9 7 13 8 10 3 -4 -6 36
-41 87 -79 51 -38 96 -77 98 -87 6 -21 -34 -80 -81 -121 -43 -37 -60 -76 -68
-145 -9 -83 -32 -161 -63 -210 -30 -49 -21 -47 -211 -44 -44 0 -80 4 -80 9 0
4 12 13 28 20 34 16 71 48 98 87 17 23 21 41 18 75 -2 25 -5 74 -6 110 -1 36
-6 68 -11 71 -5 4 0 20 13 37 20 27 21 34 10 47 -8 9 -21 14 -31 12 -22 -6
-82 53 -139 137 -25 36 -62 78 -82 92 -20 14 -41 39 -47 55 -10 28 -9 30 11
23 18 -5 20 -3 14 20 -5 20 -3 26 10 26 20 0 47 27 39 40 -3 6 0 17 9 25 9 9
17 11 21 5 11 -18 22 -10 30 23 5 17 9 37 9 42 1 8 24 18 58 24 3 0 27 -23 52
-53z m386 50 c0 -3 -4 -8 -10 -11 -5 -3 -10 -1 -10 4 0 6 5 11 10 11 6 0 10
-2 10 -4z m-135 -36 c-3 -5 -11 -10 -16 -10 -6 0 -7 5 -4 10 3 6 11 10 16 10
6 0 7 -4 4 -10z m650 0 c-3 -5 0 -7 9 -4 9 3 17 -2 21 -15 3 -12 15 -21 26
-21 21 0 40 -35 32 -57 -10 -26 -34 -12 -55 33 -21 41 -25 45 -50 40 -31 -6
-34 -2 -15 19 14 16 42 20 32 5z m-485 -24 c0 -18 -5 -23 -22 -21 -13 1 -29 3
-36 4 -7 0 -11 5 -7 11 3 5 12 7 19 4 7 -3 19 2 26 11 17 20 20 19 20 -9z
m-87 -19 c-4 -7 -7 -21 -8 -31 0 -11 -6 -21 -12 -23 -16 -6 -17 13 -2 23 8 4
7 9 -2 14 -10 7 -10 11 0 24 15 18 35 11 24 -7z m527 1 c0 -5 -7 -8 -15 -4 -8
3 -14 0 -12 -7 1 -7 -4 -11 -10 -9 -7 1 -13 -2 -13 -8 0 -5 -7 -10 -15 -10
-27 0 -16 26 18 42 33 16 47 15 47 -4z m-2238 1 c37 -2 55 -7 50 -13 -3 -6 1
-5 10 2 9 7 31 13 49 13 19 0 55 1 82 4 26 2 47 0 47 -5 0 -4 9 -6 20 -3 11 3
28 2 37 -2 10 -5 24 -7 32 -6 8 1 10 -2 5 -10 -4 -8 -3 -10 5 -5 7 4 20 5 29
1 15 -6 14 -8 -6 -16 -12 -5 -32 -5 -45 -1 -12 4 -37 7 -54 7 -18 0 -33 3 -33
8 0 5 -7 4 -15 -3 -8 -7 -15 -9 -15 -4 0 5 -15 9 -32 8 -18 0 -43 3 -55 8 -13
4 -25 3 -28 -3 -4 -5 -24 -9 -45 -7 -32 1 -43 -3 -60 -25 -21 -26 -49 -39 -34
-16 3 6 -4 4 -18 -5 -13 -9 -37 -17 -54 -20 -36 -4 -107 -34 -116 -49 -4 -6
-2 -17 3 -23 9 -11 -8 -25 -33 -28 -3 -1 -10 -4 -14 -8 -4 -5 -16 -8 -26 -8
-26 0 -68 -29 -68 -47 0 -9 -6 -13 -14 -10 -7 3 -22 0 -32 -7 -11 -7 -32 -12
-49 -11 -16 1 -36 -3 -42 -8 -7 -5 -26 -7 -43 -5 -16 3 -30 1 -30 -3 0 -4 -29
-16 -65 -27 -50 -16 -89 -21 -175 -20 -61 1 -113 5 -115 9 -3 3 5 19 16 34 17
20 27 25 46 20 22 -5 24 -3 18 17 -6 21 -4 20 18 -6 17 -21 26 -26 31 -17 5 8
19 10 37 6 32 -7 40 10 17 34 -11 11 -9 11 9 2 26 -13 43 -14 43 -3 0 11 -36
49 -51 54 -7 2 -14 23 -15 47 -2 39 -1 41 15 27 10 -9 39 -19 64 -22 38 -6 47
-4 47 9 0 8 -7 17 -15 21 -8 3 -15 10 -15 16 0 8 6 7 20 0 24 -13 41 -5 33 15
-3 10 2 15 16 15 12 0 21 5 21 11 0 7 10 9 28 4 46 -12 125 -14 157 -5 17 5
41 11 55 14 33 5 110 26 135 36 38 16 50 18 105 14 30 -1 81 -4 112 -5z m2063
1 c4 -6 -7 -10 -24 -10 -17 0 -31 5 -31 10 0 6 11 10 24 10 14 0 28 -4 31 -10z
m-483 -22 c-6 -6 -15 -8 -19 -4 -4 4 -1 11 7 16 19 12 27 3 12 -12z m527 -12
c-7 -15 -23 -29 -38 -32 -55 -12 -60 -15 -54 -30 4 -10 16 -14 36 -12 19 2 32
-2 35 -11 4 -11 -3 -13 -33 -8 -45 7 -47 8 -51 47 -3 28 -2 30 31 30 25 0 41
7 57 25 26 30 33 27 17 -9z m-3147 12 c-9 -9 -15 -9 -24 0 -9 9 -7 12 12 12
19 0 21 -3 12 -12z m2542 -9 c-8 -14 -24 -10 -24 6 0 9 6 12 15 9 8 -4 12 -10
9 -15z m926 0 c0 -16 -4 -19 -22 -13 -32 9 -35 14 -18 24 24 16 40 11 40 -11z
m-1644 3 c-3 -2 -25 -6 -48 -8 -32 -2 -37 -1 -18 5 28 9 74 11 66 3z m364 -35
c0 -20 -25 1 -28 24 -2 23 -2 23 13 5 8 -11 15 -24 15 -29z m1140 8 c0 -13 5
-27 10 -30 6 -4 8 -10 5 -15 -3 -5 0 -12 6 -16 8 -4 9 -3 5 4 -5 8 2 10 25 5
22 -4 35 -2 43 8 17 21 41 19 42 -5 1 -19 -4 -21 -60 -20 -86 1 -89 2 -82 20
3 8 2 12 -4 9 -6 -3 -10 1 -10 9 0 20 -31 26 -51 9 -9 -8 -30 -18 -47 -22 -26
-8 -30 -7 -29 9 1 14 5 16 17 10 12 -6 28 -2 53 15 20 14 41 25 46 25 6 0 11
5 11 11 0 5 5 7 10 4 6 -3 10 -17 10 -30z m-3200 -5 c0 -5 -4 -10 -10 -10 -5
0 -10 5 -10 10 0 6 5 10 10 10 6 0 10 -4 10 -10z m2580 -10 c0 -11 7 -20 16
-20 8 0 13 -4 9 -10 -3 -5 -22 -6 -43 -3 -20 3 -47 6 -59 5 -13 0 -20 4 -17 9
9 15 -14 10 -30 -7 -9 -8 -20 -12 -26 -9 -19 11 -10 22 23 30 61 14 78 14 71
2 -4 -7 2 -4 12 6 24 23 44 22 44 -3z m130 10 c0 -5 -2 -10 -4 -10 -3 0 -8 5
-11 10 -3 6 -1 10 4 10 6 0 11 -4 11 -10z m-755 -10 c-3 -5 -11 -10 -16 -10
-6 0 -7 5 -4 10 3 6 11 10 16 10 6 0 7 -4 4 -10z m-1766 -45 c0 -5 -4 -3 -9 5
-5 8 -9 22 -9 30 0 16 17 -16 18 -35z m896 35 c-3 -5 -11 -10 -16 -10 -6 0 -7
5 -4 10 3 6 11 10 16 10 6 0 7 -4 4 -10z m432 4 c-3 -3 -12 -4 -19 -1 -8 3 -5
6 6 6 11 1 17 -2 13 -5z m175 -6 c-14 -13 -162 -13 -162 0 0 4 38 7 84 7 47 0
82 -3 78 -7z m-433 -15 c7 -7 10 -13 8 -13 -3 0 -58 -11 -123 -24 -120 -25
-242 -40 -232 -30 14 14 132 41 221 51 32 3 61 12 64 18 6 16 47 14 62 -2z
m741 3 c0 -2 -7 -9 -15 -16 -13 -11 -14 -10 -9 4 5 14 24 23 24 12z m640 0 c0
-3 -4 -8 -10 -11 -5 -3 -10 -1 -10 4 0 6 5 11 10 11 6 0 10 -2 10 -4z m70
-148 c-5 -73 -6 -76 -24 -63 -18 13 -18 15 -1 32 11 10 13 19 7 21 -8 2 -8 9
0 22 9 14 8 21 -5 35 -9 9 -17 12 -17 6 0 -9 -16 -10 -74 -2 -4 0 -6 8 -2 16
3 8 1 15 -4 15 -6 0 -10 4 -10 8 0 4 20 9 45 10 28 1 44 -2 40 -8 -9 -15 5
-12 21 5 9 8 12 19 9 25 -3 5 -3 16 2 23 12 19 19 -57 13 -145z m-1800 124 c0
-7 -48 -21 -132 -39 -18 -3 -28 -1 -28 6 0 15 12 19 85 30 33 5 63 9 68 10 4
0 7 -3 7 -7z m2258 -22 c12 -16 22 -31 22 -34 0 -12 -42 9 -51 26 -7 13 -17
17 -32 13 -19 -5 -19 -4 3 9 33 20 33 20 58 -14z m500 8 c17 -14 15 -53 -3
-71 -40 -40 -102 33 -66 77 14 17 43 14 69 -6z m-3573 -40 c-1 -30 -5 -43 -16
-43 -7 0 -12 7 -10 15 2 8 6 27 9 43 7 42 18 32 17 -15z m1431 21 c12 -10 22
-10 49 0 22 8 46 9 73 3 22 -5 53 -7 68 -4 18 3 29 0 36 -12 13 -23 27 -20 50
10 23 29 35 26 18 -5 -18 -34 -1 -46 27 -19 l25 23 -6 -22 c-4 -13 -4 -24 1
-24 4 -1 19 -3 33 -4 14 -1 33 -6 43 -10 14 -6 20 -2 24 14 7 27 19 27 26 -1
5 -18 9 -19 21 -9 13 11 22 6 58 -31 59 -60 108 -119 108 -132 0 -14 85 -96
99 -96 14 0 14 -27 0 -35 -7 -5 -5 -14 4 -29 9 -14 12 -28 6 -37 -8 -16 -6
-65 3 -75 3 -3 4 -13 1 -22 -4 -16 -41 -17 -496 -15 -271 1 -681 4 -912 7
-231 3 -482 6 -558 6 -123 0 -137 2 -123 15 8 8 38 18 68 23 37 5 53 12 53 22
0 22 -82 16 -116 -9 -15 -11 -40 -23 -55 -27 -16 -4 -33 -10 -39 -14 -11 -9
-65 -12 -157 -11 -55 1 -57 2 -67 34 -6 19 -7 60 -3 101 l7 69 40 3 c22 2 71
6 108 8 93 5 160 16 174 28 7 6 39 6 90 -1 115 -16 166 -18 223 -11 29 4 75 3
104 -2 28 -5 62 -11 76 -13 14 -2 41 -9 60 -16 19 -6 55 -13 80 -14 63 -4 118
-13 170 -30 25 -8 79 -19 120 -25 41 -5 96 -15 122 -22 38 -9 50 -9 63 2 11 9
19 10 23 3 6 -9 24 -10 62 -1 30 7 40 20 40 49 l0 30 56 -6 c30 -2 61 -8 67
-12 7 -4 23 -8 37 -9 52 -2 56 -4 41 -13 -7 -5 -43 -9 -78 -10 -36 0 -69 -3
-74 -7 -19 -11 12 -33 54 -39 68 -9 248 -12 253 -4 5 8 76 0 84 -10 3 -3 14
-7 25 -8 11 -2 33 -5 49 -7 16 -2 46 2 65 9 54 18 99 27 82 16 -8 -5 -11 -16
-8 -25 5 -12 19 -16 54 -15 73 2 92 10 83 35 -14 36 -74 57 -138 49 -70 -9
-84 -14 -78 -31 3 -8 1 -14 -4 -14 -6 0 -10 4 -10 9 0 4 -26 11 -57 15 -66 8
-206 47 -251 70 -48 25 -221 56 -292 53 -71 -2 -91 -21 -41 -38 43 -15 41 -45
-3 -58 -38 -10 -100 0 -153 24 -17 8 -49 15 -72 15 -40 0 -41 1 -41 35 0 47
-38 74 -81 58 -23 -9 -29 -8 -29 2 0 14 -46 26 -67 18 -24 -9 -8 -28 33 -38
21 -5 41 -12 44 -16 3 -4 14 -8 24 -10 11 -2 21 -10 24 -18 3 -10 -3 -12 -24
-7 -58 13 -80 16 -154 25 -41 6 -86 12 -100 16 -14 3 -41 8 -60 10 -19 3 -57
9 -85 14 -27 5 -63 7 -80 5 -99 -15 -258 -5 -281 18 -12 13 67 37 149 45 26 3
47 8 47 12 0 3 24 7 54 9 46 3 58 0 78 -21 32 -34 61 -38 106 -16 31 16 45 18
66 9 30 -11 46 -6 46 15 0 26 -71 34 -130 13 -26 -9 -35 -9 -38 1 -4 13 -15
24 -46 45 -17 11 -12 15 45 34 66 22 81 24 185 22 34 -1 101 6 150 14 112 19
178 28 229 31 22 2 67 9 100 17 71 17 199 15 221 -3z m1015 9 c11 0 17 -8 17
-23 0 -24 -2 -24 -62 -16 -4 0 -6 8 -2 16 3 8 1 15 -4 15 -6 0 -10 5 -10 11 0
6 9 8 23 3 12 -4 29 -7 38 -6z m527 -9 c-20 -13 -38 -11 -32 5 3 8 13 12 25 9
16 -5 18 -8 7 -14z m672 -24 c0 -27 -27 -65 -47 -65 -14 0 -14 2 1 19 9 10 20
35 23 56 6 38 23 31 23 -10z m-403 5 c0 -23 -3 -27 -13 -19 -10 8 -11 15 -1
30 6 10 12 19 13 19 0 0 1 -13 1 -30z m-2437 6 c0 -3 -4 -8 -10 -11 -5 -3 -10
-1 -10 4 0 6 5 11 10 11 6 0 10 -2 10 -4z m2080 -6 c0 -5 -2 -10 -4 -10 -3 0
-8 5 -11 10 -3 6 -1 10 4 10 6 0 11 -4 11 -10z m317 3 c-4 -3 -22 -8 -39 -10
-24 -2 -29 0 -18 7 17 11 67 14 57 3z m-182 -34 c10 -16 -4 -24 -17 -11 -16
16 -28 15 -28 -1 0 -15 39 -20 56 -6 7 6 20 6 35 0 23 -9 22 -10 -8 -10 -17
-1 -35 -6 -38 -12 -4 -6 -14 -8 -22 -5 -8 3 -12 2 -8 -3 7 -13 -46 -53 -62
-46 -8 2 -11 0 -8 -5 3 -6 -1 -10 -9 -10 -19 0 -20 8 -1 40 11 20 14 21 15 7
0 -23 28 -19 44 6 8 13 8 20 -3 27 -12 7 -12 11 -2 24 15 18 47 21 56 5z
m-175 -3 c0 -3 -4 -8 -10 -11 -5 -3 -10 -1 -10 4 0 6 5 11 10 11 6 0 10 -2 10
-4z m30 -16 c0 -5 -2 -10 -4 -10 -3 0 -8 5 -11 10 -3 6 -1 10 4 10 6 0 11 -4
11 -10z m70 1 c0 -5 -7 -11 -14 -14 -10 -4 -13 -1 -9 9 6 15 23 19 23 5z m237
-18 c-13 -16 -13 -20 -1 -31 19 -18 44 -8 44 17 0 11 5 23 10 26 6 4 10 -12
10 -42 0 -35 -3 -44 -10 -33 -6 10 -10 11 -10 3 0 -21 -23 -14 -54 17 -17 17
-25 34 -20 41 4 7 3 10 -2 7 -5 -3 -18 -2 -29 3 -14 5 -6 8 29 8 46 1 48 0 33
-16z m-687 -5 c0 -9 3 -9 12 0 14 14 28 16 28 3 0 -17 -34 -22 -49 -6 -10 10
-11 15 -3 15 7 0 12 -5 12 -12z m364 -31 c-3 -12 -10 -26 -15 -31 -5 -6 -9
-18 -9 -27 0 -10 -3 -20 -8 -22 -7 -5 -14 82 -7 93 2 3 13 6 25 7 17 2 20 -2
14 -20z m255 -10 c6 -8 7 -18 3 -22 -4 -5 -2 -5 4 -2 6 3 25 -8 42 -26 30 -31
31 -34 16 -53 -15 -19 -15 -18 -5 2 8 17 6 25 -12 40 -12 10 -28 19 -34 20
-31 2 -35 5 -30 17 8 22 -56 20 -85 -3 -36 -28 -46 -25 -18 5 12 13 26 22 31
20 4 -3 10 -1 14 5 9 15 61 12 74 -3z m-13 -77 c32 -16 52 -30 44 -30 -9 0
-33 9 -55 20 -22 11 -48 17 -59 14 -17 -6 -17 -4 -5 9 8 9 14 16 15 17 1 0 28
-13 60 -30z m409 -30 c20 -38 50 -44 74 -14 16 21 20 22 31 9 7 -8 19 -15 26
-15 14 0 19 -22 8 -33 -4 -3 -19 0 -35 8 -26 14 -30 14 -52 -10 l-23 -25 -29
30 c-16 16 -37 30 -47 30 -12 0 -18 7 -18 24 0 44 41 41 65 -4z m-530 10 c-13
-21 -119 -36 -113 -16 2 4 24 9 51 11 26 1 50 5 54 8 10 10 15 8 8 -3z m-2985
-10 c0 -4 13 -5 29 -2 16 2 31 -1 35 -6 6 -11 -62 -22 -124 -20 -19 1 -54 -2
-78 -6 -42 -8 -42 -8 -31 16 10 23 16 24 90 24 43 0 79 -3 79 -6z m3241 -23
c-8 -8 -11 -7 -11 4 0 20 13 34 18 19 3 -7 -1 -17 -7 -23z m-175 4 c-4 -5 12
-12 34 -16 22 -4 40 -12 40 -18 0 -7 -14 -28 -30 -47 -17 -19 -30 -30 -29 -25
5 38 -23 49 -41 16 -14 -27 -13 -31 10 -31 11 0 20 -6 20 -14 0 -22 -17 -28
-24 -10 -4 10 -12 14 -23 10 -22 -9 -58 24 -41 37 9 6 8 7 -4 4 -18 -6 -42 15
-31 27 4 4 -1 4 -10 0 -12 -4 -17 -2 -15 7 4 17 37 43 45 35 3 -3 12 2 21 10
8 9 23 13 33 11 11 -3 22 -1 25 4 3 5 10 9 15 9 6 0 8 -4 5 -9z m179 -32 c10
-15 4 -18 -27 -12 -15 3 -25 9 -22 14 7 12 41 11 49 -2z m-390 -9 c4 -6 11 -7
17 -4 6 4 8 -1 6 -12 -5 -27 -58 -33 -58 -6 0 30 22 43 35 22z m655 -15 c38
-28 68 -32 76 -10 7 16 54 21 54 5 0 -16 -23 -60 -32 -60 -4 0 -8 -10 -8 -22
0 -11 -12 -36 -26 -55 -14 -19 -23 -41 -20 -48 3 -8 2 -15 -2 -16 -4 0 -29 -1
-57 -2 l-50 -2 0 73 c0 88 8 106 34 75 14 -17 28 -21 65 -20 26 1 44 6 42 12
-2 6 -22 9 -45 7 -24 -1 -41 2 -41 9 0 16 -29 41 -40 34 -6 -4 -10 5 -10 19 0
33 17 33 60 1z m-892 -102 l-3 -108 -64 -3 c-40 -3 -61 0 -57 6 3 6 0 12 -6
15 -10 3 -10 7 0 19 7 9 12 20 11 24 -3 21 3 34 31 65 36 41 84 89 88 89 2 0
2 -48 0 -107z m627 8 c-1 -36 -3 -78 -4 -94 l-1 -27 -124 2 -124 2 57 56 c32
30 72 76 89 101 l31 46 39 -10 39 -10 -2 -66z m-324 19 c28 -16 23 -30 -6 -17
-14 7 -25 15 -25 20 0 10 8 9 31 -3z m-76 -10 c3 -5 -1 -10 -9 -10 -9 0 -16 5
-16 10 0 6 4 10 9 10 6 0 13 -4 16 -10z m-2 -73 c3 -7 -1 -21 -9 -32 -13 -17
-14 -17 -14 13 0 32 14 43 23 19z m-1392 -89 c378 -1 703 -4 723 -6 35 -4 48
-23 25 -37 -5 -4 -243 -7 -527 -6 -284 0 -832 0 -1216 1 l-699 0 19 23 c10 12
24 25 29 29 6 4 224 5 485 3 261 -3 784 -6 1161 -7z M2775 6941 c-11 -18 6
-33 31 -28 13 2 21 0 18 -4 -3 -5 13 -9 35 -9 55 0 52 15 -6 31 -27 7 -53 15
-60 17 -6 2 -14 -2 -18 -7z M2987 6874 c-13 -13 -7 -24 14 -24 11 0 19 5 17
12 -5 14 -22 21 -31 12z M2440 6715 c-19 -10 -22 -15 -10 -19 20 -8 73 7 78
22 5 16 -37 15 -68 -3z M2482 6669 c2 -6 8 -10 13 -10 5 0 11 4 13 10 2 6 -4
11 -13 11 -9 0 -15 -5 -13 -11z M2800 6214 c0 -8 7 -14 15 -14 9 0 18 -7 21
-15 4 -8 14 -15 24 -15 15 0 30 -18 30 -36 0 -11 -26 -2 -47 18 -46 43 -38 -5
11 -56 l23 -25 21 38 c12 21 29 44 37 51 19 16 19 34 0 54 -21 21 -135 21
-135 0z M3465 5880 c3 -5 8 -10 11 -10 2 0 4 5 4 10 0 6 -5 10 -11 10 -5 0 -7
-4 -4 -10z M2210 5780 c0 -12 -7 -35 -16 -51 -21 -41 -20 -123 1 -155 20 -32
44 -19 26 14 -15 29 -13 92 4 122 20 34 20 90 0 90 -8 0 -15 -9 -15 -20z
M2061 5346 c-15 -18 -3 -46 19 -46 24 0 30 11 23 38 -6 25 -25 29 -42 8z
M2301 5242 c-8 -14 -5 -18 12 -19 24 -2 49 15 41 28 -9 15 -43 10 -53 -9z
M2013 5233 c-7 -2 -13 -11 -13 -19 0 -18 46 -18 53 0 9 23 -9 32 -40 19z
M1971 5101 c-14 -9 -9 -41 7 -41 15 0 34 28 27 40 -8 12 -16 13 -34 1z M1586
4858 c-25 -83 -31 -135 -18 -160 22 -47 38 -34 37 30 0 31 4 76 8 100 6 34 4
42 -8 42 -9 0 -17 -6 -19 -12z M1305 4511 c-3 -6 -4 -15 -1 -20 8 -12 58 -1
53 13 -5 15 -43 20 -52 7z M3560 2980 c-8 -11 -20 -20 -28 -20 -7 0 -10 -5 -6
-11 4 -7 16 -2 32 15 14 14 24 28 21 30 -3 3 -11 -3 -19 -14z M3502 2924 c-7
-8 -8 -14 -3 -14 10 0 25 19 20 25 -2 1 -10 -3 -17 -11z M1396 3244 c-5 -14
-4 -15 9 -4 17 14 19 20 6 20 -5 0 -12 -7 -15 -16z M1457 3244 c3 -7 9 -14 14
-14 14 0 10 17 -5 23 -10 4 -13 1 -9 -9z M1350 3229 c0 -6 -9 -8 -22 -3 -22 6
-22 6 2 -14 14 -11 21 -24 17 -28 -4 -5 -13 -2 -18 6 -9 13 -10 13 -6 0 7 -29
31 -16 33 18 1 17 0 32 -2 32 -2 0 -4 -5 -4 -11z M1370 3211 c0 -5 7 -11 15
-15 8 -3 15 -1 15 3 0 5 -7 11 -15 15 -8 3 -15 1 -15 -3z M1491 3217 c2 -1 15
-11 29 -22 l25 -20 -19 23 c-11 12 -24 22 -29 22 -6 0 -8 -1 -6 -3z M1287
3166 c-10 -8 -14 -16 -10 -19 5 -3 14 3 21 14 14 22 13 23 -11 5z M1378 3173
c21 -8 13 -25 -10 -19 -13 3 -17 3 -10 0 18 -8 15 -27 -4 -20 -8 3 -12 2 -9
-4 9 -15 19 -12 46 11 19 17 21 22 9 29 -8 6 -19 9 -25 9 -5 0 -4 -3 3 -6z
M1550 3171 c0 -5 6 -11 13 -14 6 -2 9 -8 5 -12 -4 -4 -16 -2 -25 6 -17 13 -17
13 -4 -4 13 -16 13 -20 0 -28 -8 -5 -9 -9 -3 -9 6 0 17 7 24 15 7 9 20 13 27
10 8 -3 21 2 29 10 9 8 11 15 5 15 -5 0 -13 -5 -16 -10 -4 -7 -14 -3 -25 10
-19 21 -30 26 -30 11z M1175 3160 c3 -5 1 -10 -4 -10 -6 0 -11 -3 -11 -7 1
-11 80 -66 80 -56 0 4 -9 14 -21 21 -13 8 -18 19 -15 29 6 14 4 14 -10 2 -15
-12 -16 -11 -10 9 5 14 3 22 -4 22 -6 0 -8 -4 -5 -10z M1462 3155 c-7 -8 -9
-15 -4 -15 5 0 15 7 22 15 16 19 -1 19 -18 0z M1247 3139 c6 -6 9 -19 6 -28
-4 -14 -3 -14 6 -1 15 21 14 27 -6 35 -14 5 -15 3 -6 -6z M1452 3113 c7 -9 15
-10 21 -4 5 5 17 7 26 4 9 -4 13 -2 9 2 -5 5 -21 9 -38 10 -24 1 -28 -1 -18
-12z M1329 3111 c12 -8 12 -12 2 -25 -10 -12 -11 -16 -1 -16 7 0 10 -7 7 -14
-4 -10 -1 -13 7 -10 7 3 20 -2 29 -10 9 -9 19 -16 24 -16 4 0 -7 14 -26 30
-19 17 -31 33 -28 37 4 3 15 -1 25 -10 10 -10 22 -17 26 -17 5 0 -6 14 -24 30
-18 17 -37 30 -44 30 -6 0 -5 -4 3 -9z M1560 3105 c-7 -8 -9 -15 -6 -15 4 0
14 7 22 15 9 8 11 15 6 15 -5 0 -15 -7 -22 -15z M1627 3109 c7 -7 15 -10 18
-7 3 3 -2 9 -12 12 -14 6 -15 5 -6 -5z M1384 3101 c7 -11 46 -35 46 -28 0 3
-12 12 -26 22 -15 9 -23 12 -20 6z M1424 3101 c4 -6 16 -16 28 -22 15 -8 18
-8 14 0 -4 6 -16 16 -28 22 -15 8 -18 8 -14 0z M1480 3091 c0 -9 30 -24 36
-18 2 1 -6 8 -16 15 -11 7 -20 8 -20 3z M1196 3076 c10 -8 21 -12 24 -10 5 6
-21 24 -34 24 -6 0 -1 -6 10 -14z M1609 3073 c-13 -16 -12 -17 4 -4 9 7 17 15
17 17 0 8 -8 3 -21 -13z M1653 3068 c-2 -18 0 -20 7 -8 12 18 13 30 2 30 -4 0
-9 -10 -9 -22z M1281 3077 c2 -1 13 -9 24 -17 19 -14 19 -14 6 3 -7 9 -18 17
-24 17 -6 0 -8 -1 -6 -3z M1086 3061 c-3 -5 3 -11 15 -14 16 -4 18 -3 8 9 -13
16 -16 17 -23 5z M1177 3059 c7 -7 15 -10 18 -7 3 3 -2 9 -12 12 -14 6 -15 5
-6 -5z M1560 3061 c0 -8 -9 -10 -22 -7 -13 3 -17 3 -10 0 21 -10 13 -21 -17
-21 -22 0 -28 4 -24 16 4 14 3 14 -5 1 -8 -10 -8 -18 0 -28 8 -10 13 -10 18
-1 4 6 13 8 20 4 6 -4 20 1 31 11 10 9 22 14 26 10 4 -4 1 -12 -7 -17 -12 -8
-10 -9 6 -4 13 3 28 0 37 -9 13 -14 16 -14 27 0 11 12 10 13 -2 9 -9 -4 -22 0
-29 7 -34 31 -49 40 -49 29z M1230 3058 c0 -3 6 -11 14 -17 10 -9 17 -7 27 6
12 16 12 17 -2 6 -12 -10 -18 -10 -27 -1 -7 7 -12 9 -12 6z M1140 3035 c-8 -9
-21 -13 -34 -10 -17 5 -18 4 -6 -4 12 -9 13 -12 1 -20 -9 -6 -10 -11 -2 -15 6
-4 11 -2 11 3 0 6 5 11 11 11 6 0 8 -7 5 -16 -3 -9 -2 -12 5 -9 5 4 21 -1 34
-9 14 -9 25 -12 25 -6 0 5 -4 10 -8 10 -5 0 -19 9 -32 20 -22 19 -22 22 -8 37
14 14 19 14 32 2 36 -32 48 -41 52 -36 4 4 -60 57 -69 57 -3 0 -10 -7 -17 -15z
M1660 3008 c-14 -15 -26 -30 -27 -31 -5 -6 59 1 65 8 4 3 0 10 -8 16 -13 7
-13 10 -1 18 7 5 9 11 5 13 -5 3 -20 -8 -34 -24z m20 -18 c0 -5 -2 -10 -4 -10
-3 0 -8 5 -11 10 -3 6 -1 10 4 10 6 0 11 -4 11 -10z M1437 3019 c7 -7 15 -10
18 -7 3 3 -2 9 -12 12 -14 6 -15 5 -6 -5z M1240 3005 c7 -9 15 -13 17 -11 7 7
-7 26 -19 26 -6 0 -6 -6 2 -15z M1275 2987 c-35 -37 -40 -54 -8 -24 28 26 63
29 63 5 0 -6 -7 -8 -14 -5 -11 4 -13 1 -9 -10 5 -12 1 -14 -18 -8 l-24 7 25
-18 c14 -10 28 -23 32 -28 5 -8 8 -8 8 0 0 5 -6 16 -12 23 -11 11 -8 12 12 6
17 -4 21 -3 11 3 -7 5 -10 15 -6 22 4 6 -2 20 -14 31 -24 23 -21 23 -46 -4z
M1350 2988 c17 -14 21 -22 12 -25 -10 -4 -10 -8 -1 -19 6 -8 17 -14 23 -14 6
0 5 4 -3 9 -12 8 -12 12 -2 25 9 11 10 16 2 16 -6 0 -11 4 -11 10 0 5 8 7 18
4 14 -5 14 -4 2 4 -10 8 -18 8 -27 0 -9 -7 -13 -7 -13 1 0 6 -6 11 -12 11 -7
-1 -2 -10 12 -22z M1501 2993 c-7 -8 -11 -16 -8 -19 2 -2 10 2 17 11 17 20 9
27 -9 8z M1205 2933 c-1 -24 2 -43 5 -43 18 0 51 -40 44 -52 -5 -9 -2 -8 10 2
11 8 14 16 7 18 -22 7 -11 23 12 17 22 -7 22 -7 2 8 -11 9 -22 11 -26 6 -10
-17 -41 2 -36 22 3 11 1 22 -5 25 -5 4 -3 13 6 23 14 15 14 17 -2 17 -13 0
-17 -10 -17 -43z M1581 2961 c-12 -8 -12 -12 2 -25 10 -10 18 -12 22 -6 3 5 1
10 -4 10 -6 0 -11 5 -11 11 0 6 7 8 16 5 8 -3 12 -2 9 4 -8 12 -16 12 -34 1z
M1440 2956 c0 -2 7 -9 15 -16 9 -7 15 -8 15 -2 0 5 -7 12 -15 16 -8 3 -15 4
-15 2z M1059 2948 c-1 -2 -2 -15 -3 -30 -2 -22 1 -25 12 -16 10 8 10 13 1 18
-6 4 -8 13 -5 19 4 6 5 11 2 11 -3 0 -7 -1 -7 -2z M1240 2915 c-8 -9 -9 -15
-2 -15 6 0 14 5 17 10 5 8 11 7 21 -1 8 -7 14 -7 14 -1 0 5 -7 13 -16 16 -21
8 -20 8 -34 -9z M1369 2906 c9 -11 9 -16 0 -21 -8 -6 -7 -11 5 -17 10 -6 20
-7 23 -4 4 3 1 6 -5 6 -7 0 -12 5 -12 11 0 6 7 9 15 6 8 -4 17 -1 21 5 4 6 3
8 -4 4 -6 -3 -17 1 -25 9 -20 19 -33 20 -18 1z M1156 2894 c-4 -9 -4 -19 -1
-22 3 -3 5 0 5 7 0 8 6 11 16 7 14 -5 15 -4 4 9 -16 19 -16 19 -24 -1z M1093
2864 c-3 -8 -12 -13 -19 -10 -8 3 -11 0 -7 -10 7 -18 6 -18 31 11 12 14 17 25
12 25 -6 0 -13 -7 -17 -16z M1130 2861 c0 -10 19 -25 25 -20 1 2 -3 10 -11 17
-8 7 -14 8 -14 3z M1149 2809 c-20 -29 -35 -119 -19 -119 16 0 50 43 50 64 0
27 25 53 35 36 3 -5 12 -10 18 -10 7 0 4 7 -6 14 -9 7 -15 20 -12 28 4 9 -3
14 -19 16 -18 1 -31 -7 -47 -29z M1315 2830 c-3 -6 1 -7 9 -4 18 7 21 14 7 14
-6 0 -13 -4 -16 -10z M1087 2818 c-3 -8 5 -14 20 -14 13 -1 23 -1 21 0 -2 1
-10 7 -19 14 -13 10 -18 10 -22 0z M1339 2813 c-13 -16 -12 -17 4 -4 16 13 21
21 13 21 -2 0 -10 -8 -17 -17z M1242 2806 c7 -8 15 -12 17 -11 5 6 -10 25 -20
25 -5 0 -4 -6 3 -14z M1014 2772 c-9 -13 -6 -20 13 -35 13 -11 27 -16 31 -13
6 7 -10 21 -33 29 -5 3 -7 7 -4 11 3 3 18 -3 33 -15 15 -12 24 -25 19 -28 -4
-3 -17 -17 -28 -31 l-20 -25 23 19 c12 11 25 16 29 12 4 -4 1 -11 -7 -16 -8
-6 -10 -10 -4 -10 6 0 17 7 24 15 9 11 10 15 1 15 -8 0 -10 8 -6 20 3 11 2 20
-3 20 -6 0 -13 7 -16 16 -6 15 -4 15 20 -1 14 -9 28 -14 31 -11 3 3 -2 8 -11
12 -9 3 -13 10 -10 15 3 5 10 6 16 3 6 -4 8 -2 4 4 -7 12 -44 10 -65 -2 -8 -5
-16 -4 -20 2 -4 7 -10 5 -17 -6z M1020 2710 c0 -5 5 -10 10 -10 6 0 10 5 10
10 0 6 -4 10 -10 10 -5 0 -10 -4 -10 -10z M1151 2686 c-9 -11 -8 -15 5 -20 9
-4 19 -4 22 -1 3 3 0 5 -6 5 -7 0 -12 5 -12 11 0 6 7 8 16 5 8 -3 12 -2 9 4
-9 14 -21 12 -34 -4z M1117 2664 c5 -13 3 -16 -10 -11 -24 9 -21 2 8 -17 23
-15 24 -15 18 1 -6 16 -5 16 10 4 9 -7 17 -10 17 -5 0 5 -12 17 -25 27 -23 16
-24 16 -18 1z M1010 2649 c0 -6 -9 -9 -20 -6 -23 6 -18 -8 8 -22 14 -7 17 -4
18 15 1 13 0 24 -2 24 -2 0 -4 -5 -4 -11z M1159 2613 c-13 -16 -12 -17 4 -4 9
7 17 15 17 17 0 8 -8 3 -21 -13z M970 2611 c0 -5 7 -12 16 -15 24 -9 27 -7 10
9 -17 17 -26 19 -26 6z M1099 2611 c12 -8 12 -12 -2 -25 -9 -9 -23 -13 -34
-10 -14 4 -15 4 -4 -4 8 -6 10 -15 6 -22 -5 -9 -4 -11 4 -6 6 4 23 1 36 -8 17
-11 26 -12 31 -5 4 8 9 7 14 -2 7 -10 11 -9 23 3 12 12 13 18 4 27 -9 9 -8 14
3 21 8 5 10 10 4 10 -6 0 -17 -7 -24 -15 -9 -10 -9 -15 -1 -15 6 0 11 -4 11
-10 0 -15 -12 -12 -39 10 -18 16 -21 23 -12 34 9 11 8 15 -5 20 -23 9 -31 7
-15 -3z m21 -56 c14 -16 10 -18 -14 -9 -9 3 -16 10 -16 15 0 14 16 11 30 -6z
M1201 2578 c-14 -23 -14 -23 8 -4 22 20 25 26 13 26 -4 0 -13 -10 -21 -22z
M988 2563 c26 -22 30 -31 20 -41 -8 -8 -8 -12 -1 -12 35 0 10 52 -37 74 -8 4
0 -5 18 -21z M1026 2565 c4 -8 11 -15 16 -15 6 0 5 6 -2 15 -7 8 -14 15 -16
15 -2 0 -1 -7 2 -15z M920 2553 c0 -5 5 -14 12 -21 9 -9 9 -12 -1 -12 -11 0
-11 -3 -1 -15 7 -8 18 -15 24 -15 7 0 6 3 -2 8 -7 5 -10 15 -7 24 3 8 -1 21
-10 28 -8 7 -15 8 -15 3z M1210 2516 c0 -2 7 -7 16 -10 8 -3 12 -2 9 4 -6 10
-25 14 -25 6z M880 2471 c0 -5 -7 -17 -16 -26 -9 -9 -14 -18 -11 -21 3 -3 15
9 27 25 12 17 17 31 11 31 -6 0 -11 -4 -11 -9z M947 2459 c12 -12 25 -20 28
-17 3 3 -7 13 -22 23 l-28 17 22 -23z M970 2476 c0 -2 7 -9 15 -16 9 -7 15 -8
15 -2 0 5 -7 12 -15 16 -8 3 -15 4 -15 2z M1016 2454 c-5 -14 -4 -15 9 -4 17
14 19 20 6 20 -5 0 -12 -7 -15 -16z M1085 2450 c-4 -6 -14 -9 -22 -5 -13 5
-14 3 -3 -10 9 -11 15 -12 20 -5 4 6 15 8 26 4 11 -3 15 -2 9 3 -5 4 -13 12
-16 16 -4 5 -10 3 -14 -3z M1157 2446 c-4 -11 -1 -13 11 -9 14 6 15 4 5 -8
-10 -12 -8 -17 10 -29 20 -12 21 -12 8 4 -17 21 -7 33 14 16 8 -7 15 -9 15 -5
0 8 -42 44 -51 45 -4 0 -9 -7 -12 -14z M961 2413 c7 -12 15 -20 18 -17 3 2 -3
12 -13 22 -17 16 -18 16 -5 -5z M920 2410 c8 -5 11 -12 7 -16 -3 -4 -13 -1
-22 6 -9 7 -15 8 -15 2 0 -6 6 -12 13 -15 6 -2 9 -8 5 -12 -5 -5 -16 -1 -26 8
-10 10 -22 17 -26 17 -10 0 13 -23 45 -43 23 -15 28 -15 38 -3 9 11 9 15 -1
20 -11 5 -11 7 0 12 10 5 10 9 1 20 -6 8 -17 14 -23 14 -6 0 -4 -4 4 -10z m10
-50 c0 -5 -2 -10 -4 -10 -3 0 -8 5 -11 10 -3 6 -1 10 4 10 6 0 11 -4 11 -10z
M1080 2400 c-17 -23 -35 -27 -27 -6 8 21 -16 10 -31 -14 -7 -12 -8 -20 -2 -20
5 0 10 5 10 10 0 6 5 10 11 10 6 0 9 -6 6 -12 -3 -8 5 -13 22 -14 14 -1 20 1
14 3 -7 3 -13 9 -13 15 0 6 7 7 16 4 9 -3 12 -2 9 5 -4 5 -1 16 5 24 7 8 8 15
3 15 -5 0 -15 -9 -23 -20z M1179 2376 c18 -22 6 -33 -16 -15 -11 9 -14 10 -9
2 4 -7 17 -18 29 -24 12 -7 19 -8 15 -4 -4 5 -4 13 2 19 6 8 2 16 -13 26 -20
12 -21 12 -8 -4z M980 2366 c0 -2 8 -10 18 -17 15 -13 16 -12 3 4 -13 16 -21
21 -21 13z M1118 2353 c6 -2 12 -9 12 -15 0 -6 -7 -7 -16 -4 -9 3 -12 2 -9 -5
4 -6 13 -8 21 -5 24 9 45 -5 39 -25 -8 -23 10 -25 19 -3 4 9 5 17 4 18 -2 1
-17 11 -35 24 -18 12 -36 22 -40 21 -4 0 -2 -3 5 -6z M930 2315 c-7 -9 -8 -15
-2 -15 5 0 12 7 16 15 3 8 4 15 2 15 -2 0 -9 -7 -16 -15z M972 2323 c-10 -4
-7 -12 10 -31 21 -23 21 -24 3 -17 -11 4 -32 8 -47 10 -23 1 -26 -1 -16 -13 8
-9 14 -10 16 -3 2 6 8 11 14 11 6 0 7 -8 3 -17 -5 -14 -4 -15 6 -6 8 8 16 9
24 3 9 -7 16 -5 25 5 9 10 9 15 1 15 -6 0 -11 5 -11 11 0 6 9 8 23 4 22 -7 22
-7 2 8 -11 9 -21 11 -23 6 -2 -5 -8 -9 -14 -9 -6 0 -8 7 -4 15 3 8 4 15 3 14
-1 0 -8 -3 -15 -6z M1075 2320 c-3 -5 -1 -10 4 -10 6 0 11 5 11 10 0 6 -2 10
-4 10 -3 0 -8 -4 -11 -10z M1045 2310 c12 -20 16 -60 5 -60 -5 0 -10 3 -13 8
-2 4 -2 1 0 -7 2 -8 -2 -18 -9 -23 -9 -5 -9 -8 -1 -8 6 0 18 7 27 15 18 19 30
19 23 2 -3 -8 -1 -20 3 -27 7 -11 11 -11 25 0 16 13 16 15 -4 31 -24 20 -28
34 -7 26 10 -4 13 -1 9 9 -6 16 -23 19 -23 4 0 -5 -5 -10 -11 -10 -6 0 -9 6
-6 14 3 8 -2 20 -11 28 -13 11 -14 11 -7 -2z m55 -80 c0 -5 -5 -10 -11 -10 -5
0 -7 5 -4 10 3 6 8 10 11 10 2 0 4 -4 4 -10z M1120 2246 c0 -2 7 -7 16 -10 8
-3 12 -2 9 4 -6 10 -25 14 -25 6z M923 2226 c-9 -11 -7 -14 12 -12 17 1 21 4
13 14 -12 14 -10 14 -25 -2z M970 2236 c0 -2 7 -9 15 -16 9 -7 15 -8 15 -2 0
5 -7 12 -15 16 -8 3 -15 4 -15 2z M1485 2620 c-10 -11 -14 -20 -9 -20 5 0 15
9 22 20 7 11 11 20 9 20 -2 0 -12 -9 -22 -20z M1593 2578 c-15 -15 -22 -28
-17 -28 5 0 15 9 22 20 18 30 28 24 27 -14 -1 -30 1 -34 16 -25 23 12 53 70
33 62 -8 -3 -14 -1 -14 4 0 19 -42 7 -67 -19z M1329 2563 c-13 -16 -12 -17 4
-4 9 7 17 15 17 17 0 8 -8 3 -21 -13z M1689 2563 c-13 -16 -12 -17 4 -4 9 7
17 15 17 17 0 8 -8 3 -21 -13z M1425 2550 c-10 -11 -16 -22 -14 -24 2 -2 12 7
22 20 22 29 17 32 -8 4z M1345 2540 c-10 -11 -16 -22 -14 -24 2 -2 12 7 22 20
22 29 17 32 -8 4z M1591 2533 c-7 -8 -11 -16 -8 -19 2 -2 10 2 17 11 17 20 9
27 -9 8z M1534 2508 l-19 -23 23 19 c21 18 27 26 19 26 -2 0 -12 -10 -23 -22z
M1415 2499 c-4 -6 -5 -12 -2 -15 2 -3 7 2 10 11 7 17 1 20 -8 4z M1544 2478
l-19 -23 23 19 c21 18 27 26 19 26 -2 0 -12 -10 -23 -22z M1540 2435 c-7 -9
-8 -15 -2 -15 5 0 12 7 16 15 3 8 4 15 2 15 -2 0 -9 -7 -16 -15z M4476 2592
c-3 -5 1 -18 9 -28 13 -16 16 -17 25 -4 5 8 8 20 7 25 -5 13 -34 18 -41 7z
M4144 2585 c-10 -14 -29 -25 -41 -25 -18 0 -22 -6 -21 -30 1 -35 8 -38 28 -9
8 11 20 28 27 37 6 9 22 17 34 17 14 0 25 7 27 18 5 26 -32 21 -54 -8z M1925
2509 c-4 -6 -5 -12 -2 -15 2 -3 7 2 10 11 7 17 1 20 -8 4z M2650 2532 c0 -4
10 -13 23 -21 22 -14 22 -14 3 8 -20 22 -26 25 -26 13z M2695 2530 c3 -5 8
-10 11 -10 2 0 4 5 4 10 0 6 -5 10 -11 10 -5 0 -7 -4 -4 -10z M2725 2511 c4
-8 2 -17 -6 -22 -9 -6 -10 -9 -2 -9 19 0 27 21 13 33 -10 9 -11 9 -5 -2z
M2754 2485 c-16 -17 -19 -26 -11 -34 14 -14 27 -14 27 0 0 5 -4 7 -10 4 -5 -3
-10 -1 -10 5 0 7 7 9 17 6 9 -4 20 -1 24 5 5 9 12 8 24 -4 9 -10 22 -17 28
-16 9 0 8 2 0 6 -14 5 -18 23 -5 23 4 -1 18 -10 31 -20 19 -17 21 -23 11 -35
-15 -19 -3 -20 15 -2 11 12 7 19 -22 46 -20 18 -38 29 -42 24 -3 -4 -18 -9
-33 -10 -19 0 -25 3 -21 13 7 19 2 16 -23 -11z M2830 2369 c-11 -8 -12 -12 -2
-16 17 -7 15 -26 -2 -20 -8 3 -13 -1 -12 -10 0 -9 -5 -18 -13 -21 -9 -3 -11 0
-6 8 4 7 2 16 -6 21 -40 25 -44 -12 -4 -44 27 -21 32 -23 28 -8 -3 11 8 28 31
49 20 17 31 34 26 37 -6 3 -10 1 -10 -4 0 -6 -5 -11 -11 -11 -6 0 -9 7 -5 15
6 18 6 18 -14 4z m-50 -49 c0 -5 -5 -10 -11 -10 -5 0 -7 5 -4 10 3 6 8 10 11
10 2 0 4 -4 4 -10z M2730 2303 c0 -13 29 -38 35 -31 3 3 -4 13 -15 23 -11 10
-20 13 -20 8z M2369 2463 c-12 -16 -12 -17 2 -6 12 10 18 10 28 0 9 -9 14 -9
20 2 5 8 11 9 15 3 8 -13 -20 -36 -33 -27 -6 3 -17 0 -24 -7 -12 -10 -10 -15
9 -31 26 -20 49 -14 39 10 -3 9 2 25 12 35 15 16 15 21 3 28 -9 5 -19 5 -27
-2 -9 -7 -13 -7 -13 1 0 17 -16 13 -31 -6z m47 -70 c-8 -9 -37 18 -30 28 3 5
12 2 21 -6 8 -9 13 -19 9 -22z M2210 2441 c0 -5 7 -12 16 -15 14 -5 15 -4 4 9
-14 17 -20 19 -20 6z M2365 2380 c3 -5 8 -10 11 -10 2 0 4 5 4 10 0 6 -5 10
-11 10 -5 0 -7 -4 -4 -10z M2570 2494 c0 -10 31 -36 37 -31 3 3 -2 13 -10 22
-16 15 -27 19 -27 9z M4585 2420 c3 -5 8 -10 11 -10 2 0 4 5 4 10 0 6 -5 10
-11 10 -5 0 -7 -4 -4 -10z M2526 2315 c-14 -14 -26 -31 -26 -37 0 -5 14 5 32
23 18 20 29 26 25 16 -4 -11 -1 -24 8 -33 12 -13 15 -12 24 5 11 19 6 26 -26
45 -6 3 -23 -5 -37 -19z m64 -9 c0 -3 -4 -8 -10 -11 -5 -3 -10 -1 -10 4 0 6 5
11 10 11 6 0 10 -2 10 -4z M4080 2225 c-7 -9 -8 -15 -2 -15 5 0 12 7 16 15 3
8 4 15 2 15 -2 0 -9 -7 -16 -15z M4727 2163 c-12 -11 -8 -23 7 -23 8 0 16 7
20 15 5 15 -14 21 -27 8z M4702 2087 c-9 -11 -10 -17 -2 -22 15 -9 23 -1 18
21 -3 15 -4 16 -16 1z M4680 1975 c0 -8 7 -15 15 -15 9 0 12 6 9 15 -4 8 -10
15 -15 15 -5 0 -9 -7 -9 -15z M4651 1856 c-8 -9 -11 -19 -7 -23 9 -9 29 13 24
27 -2 8 -8 7 -17 -4z M4625 1789 c-4 -6 -5 -13 -2 -16 7 -7 27 6 27 18 0 12
-17 12 -25 -2z M4193 2203 c-22 -8 -14 -30 13 -36 21 -4 25 -1 22 16 -3 22
-15 29 -35 20z M4145 2100 c-3 -6 1 -17 9 -26 9 -8 16 -11 16 -5 0 5 -5 13
-11 17 -8 4 -7 9 2 15 10 6 10 9 2 9 -6 0 -15 -5 -18 -10z M1055 1960 c-7 -11
52 -50 78 -50 27 0 20 23 -14 43 -35 19 -55 22 -64 7z M3519 1953 c-13 -16
-12 -17 4 -4 16 13 21 21 13 21 -2 0 -10 -8 -17 -17z M1149 1620 c-8 -4 -79
-22 -159 -40 -79 -17 -150 -36 -157 -42 -19 -15 -16 -31 5 -23 25 11 125 36
142 36 8 1 39 7 69 15 29 9 56 13 59 10 3 -4 16 1 29 9 13 9 28 13 33 10 5 -3
11 -1 15 5 4 7 12 7 25 0 24 -13 77 -13 85 0 3 6 0 12 -7 14 -28 9 -125 13
-139 6z M1003 1527 c-40 -12 -73 -25 -73 -29 0 -13 33 -9 64 7 15 8 44 15 62
15 24 0 34 5 34 15 0 18 2 18 -87 -8z M1260 1501 c-8 -5 -12 -13 -8 -16 5 -6
233 -16 328 -15 34 0 59 14 48 26 -11 11 -352 16 -368 5z M875 1489 c-4 -6 -4
-13 -1 -16 8 -8 36 5 36 17 0 13 -27 13 -35 -1z M3996 1685 c4 -8 2 -15 -4
-15 -6 0 -8 -9 -5 -20 7 -26 40 -26 48 1 4 11 5 21 3 22 -1 1 -13 8 -25 14
-19 11 -21 10 -17 -2z M4060 1676 c0 -2 8 -10 18 -17 15 -13 16 -12 3 4 -13
16 -21 21 -21 13z M4537 1554 c-8 -8 1 -24 14 -24 5 0 9 7 9 15 0 15 -12 20
-23 9z M4485 1489 c-4 -6 -5 -13 -2 -16 7 -7 27 6 27 18 0 12 -17 12 -25 -2z
M2606 3922 c-3 -5 1 -30 9 -56 8 -27 15 -94 16 -152 1 -91 3 -103 15 -87 18
24 18 180 0 247 -12 48 -28 67 -40 48z M2570 3765 c0 -45 -21 -148 -39 -190
-5 -11 -21 -56 -36 -100 -16 -44 -36 -97 -47 -117 -20 -41 -23 -68 -8 -68 18
0 58 95 108 256 56 179 68 257 40 262 -15 3 -18 -4 -18 -43z M1740 3591 c0
-18 29 -31 94 -40 90 -13 256 -96 275 -138 13 -28 31 -30 31 -5 0 26 -17 43
-85 88 -75 50 -130 72 -223 90 -87 16 -92 17 -92 5z M2627 3583 c-3 -10 -8
-54 -12 -98 -7 -87 -37 -229 -59 -279 -8 -17 -19 -51 -24 -76 -34 -141 -35
-151 -23 -224 7 -40 11 -77 10 -82 -5 -27 3 -46 24 -54 12 -5 32 -17 44 -25
38 -29 37 4 -2 40 -21 18 -35 39 -33 47 3 7 -1 33 -8 58 -16 53 -18 118 -4
154 6 17 6 27 -1 32 -7 4 -7 9 -2 13 10 7 63 173 83 260 7 30 14 82 16 115 2
34 6 75 9 93 5 34 -10 55 -18 26z M4060 3570 c-11 -7 -12 -12 -3 -21 14 -14
46 -4 41 13 -6 16 -20 19 -38 8z M4706 2943 c-11 -11 -6 -23 9 -23 8 0 15 4
15 9 0 13 -16 22 -24 14z M4545 2852 c-8 -8 5 -22 21 -22 8 0 14 6 14 13 0 13
-25 19 -35 9z M4715 2851 c-7 -12 12 -24 25 -16 11 7 4 25 -10 25 -5 0 -11 -4
-15 -9z M4492 2838 c6 -18 28 -21 28 -4 0 9 -7 16 -16 16 -9 0 -14 -5 -12 -12z
M4653 2803 c9 -9 19 -14 23 -11 10 10 -6 28 -24 28 -15 0 -15 -1 1 -17z M4752
2808 c6 -18 28 -21 28 -4 0 9 -7 16 -16 16 -9 0 -14 -5 -12 -12z M4924 2285
c-3 -8 1 -22 10 -30 15 -15 16 -14 16 14 0 32 -16 42 -26 16z M395 2269 c-33
-4 -109 -12 -170 -19 -60 -6 -113 -14 -117 -18 -4 -4 -3 -13 1 -21 7 -11 18
-11 57 -3 27 6 85 14 129 18 44 3 89 7 100 9 11 1 50 3 88 4 52 1 67 4 67 16
0 8 -8 15 -17 16 -10 1 -31 2 -48 3 -16 1 -57 -1 -90 -5z M385 2199 c-9 -14
17 -22 82 -26 57 -3 64 -1 61 14 -3 15 -15 18 -71 19 -37 1 -70 -2 -72 -7z
M4885 2150 c-11 -17 5 -32 21 -19 7 6 11 15 8 20 -7 12 -21 11 -29 -1z M52
2062 c2 -7 6 -13 11 -12 4 0 23 -7 43 -15 28 -11 40 -12 50 -4 9 8 46 9 111 5
121 -7 255 2 250 18 -2 7 -60 12 -173 13 -93 1 -197 4 -232 5 -47 2 -62 0 -60
-10z M4910 2065 c0 -9 5 -15 11 -13 6 2 11 8 11 13 0 5 -5 11 -11 13 -6 2 -11
-4 -11 -13z M4924 2003 c-15 -24 -12 -54 9 -83 17 -24 17 -24 17 38 0 64 -7
75 -26 45z M73 1863 c-14 -3 -23 -12 -23 -23 0 -18 9 -19 145 -16 79 2 163 0
185 -4 22 -4 43 -4 45 0 3 5 21 4 40 -1 43 -12 54 -7 48 25 -4 21 -8 23 -34
16 -27 -8 -277 -5 -349 3 -19 3 -45 3 -57 0z M722 1738 c-19 -19 -15 -48 8
-48 26 0 37 27 18 46 -11 11 -17 12 -26 2z M379 1570 c-35 -38 -69 -70 -76
-70 -8 0 -26 -12 -41 -27 -25 -25 -31 -26 -119 -25 -75 0 -93 -2 -93 -14 0
-15 9 -17 83 -14 26 1 47 -3 47 -9 0 -21 -53 -51 -91 -51 -28 0 -39 -4 -39
-15 0 -9 9 -15 25 -15 24 0 26 -2 19 -37 -4 -21 -15 -50 -25 -65 -11 -14 -19
-41 -19 -58 l0 -33 20 26 c11 14 20 34 20 45 0 12 4 24 10 27 5 3 21 31 35 61
14 30 29 54 34 54 5 0 17 8 27 17 9 9 35 18 56 19 27 2 44 9 54 22 7 11 24 20
36 20 13 0 35 5 51 11 35 14 38 56 5 65 -18 5 -20 8 -9 15 9 6 33 4 64 -6 59
-17 77 -8 59 32 -9 18 -22 26 -53 31 -42 7 -42 7 -21 25 23 18 29 39 13 39 -6
0 -38 -31 -72 -70z m-17 -112 c-7 -7 -12 -8 -12 -2 0 14 12 26 19 19 2 -3 -1
-11 -7 -17z M667 1592 c-24 -27 -21 -61 6 -72 17 -6 26 -4 39 11 17 19 15 41
-5 67 -13 16 -21 15 -40 -6z M2566 1205 c-25 -19 -9 -19 24 0 14 8 19 14 10
14 -8 0 -24 -6 -34 -14z M4718 1039 c-13 -7 -18 -23 -18 -53 l0 -43 -41 -1
c-49 -2 -119 -20 -119 -30 1 -22 23 -34 73 -41 54 -7 87 -20 56 -22 -19 -1
-42 -6 -68 -14 -34 -11 -24 -47 17 -59 19 -6 22 -4 22 18 0 21 5 26 25 26 14
0 25 -4 25 -10 0 -5 -9 -10 -20 -10 -11 0 -20 -7 -20 -15 0 -9 9 -15 25 -15
35 0 31 -16 -7 -24 -17 -3 -37 -11 -45 -17 -17 -15 -17 -54 2 -69 16 -13 20
-7 27 34 2 11 15 23 31 27 l27 7 2 -126 c1 -70 1 -147 0 -172 -2 -47 13 -100
30 -100 5 0 9 57 8 138 -1 75 -1 165 -1 200 l1 62 99 0 99 0 0 35 c0 32 -3 35
-29 35 -16 0 -29 5 -29 10 0 6 12 9 27 8 19 -2 28 2 31 15 3 15 -5 17 -57 17
-69 0 -85 19 -18 22 23 0 50 1 60 0 9 -1 17 5 17 13 0 8 -9 15 -19 15 -12 0
-21 9 -25 25 -4 15 -13 24 -24 23 -9 -1 -46 0 -82 1 -56 2 -61 4 -35 12 16 4
47 9 68 11 48 3 64 20 49 53 -11 23 -17 25 -79 25 -38 0 -76 -5 -85 -11z m115
-29 c-8 -8 -43 -13 -75 -11 -31 2 -19 20 15 23 40 4 71 -2 60 -12z m-159 -96
c26 -10 18 -23 -11 -20 -52 7 -52 6 -6 25 1 1 8 -2 17 -5z m216 -6 c0 -5 -15
-8 -32 -9 -18 0 -54 -3 -80 -5 -43 -5 -59 2 -42 18 8 9 154 4 154 -4z m-42
-87 c17 -1 32 -5 32 -11 0 -6 -30 -10 -70 -10 -52 0 -70 3 -70 13 0 10 11 13
38 11 20 -1 52 -3 70 -3z m72 -52 c3 -1 -33 -5 -80 -9 -88 -7 -139 1 -60 10
43 5 129 4 140 -1z M4830 656 c0 -34 18 -42 29 -14 5 15 5 26 -3 30 -19 13
-26 9 -26 -16z"/>
</g>
</svg>
