<?xml version="1.0" standalone="no"?>
<!DOCTYPE svg PUBLIC "-//W3C//DTD SVG 20010904//EN"
 "http://www.w3.org/TR/2001/REC-SVG-20010904/DTD/svg10.dtd">
<svg version="1.0" xmlns="http://www.w3.org/2000/svg"
 width="500.000000pt" height="878.000000pt" viewBox="0 0 500.000000 878.000000"
 preserveAspectRatio="xMidYMid meet">
<metadata>
Created by potrace 1.16, written by Peter Selinger 2001-2019
</metadata>
<g transform="translate(0.000000,878.000000) scale(0.100000,-0.100000)"
fill="#000000" stroke="none">
<path d="M2276 8523 c-4 -4 -60 -6 -125 -4 -68 1 -122 -2 -125 -7 -9 -15 20
-22 70 -16 l45 5 49 -106 c28 -58 50 -110 50 -116 0 -6 -12 -9 -27 -8 -62 5
-163 -2 -163 -10 0 -6 160 -9 395 -8 217 1 395 5 395 10 0 7 -2 8 -63 11 -20
2 -40 6 -45 10 -13 13 -15 185 -2 201 9 10 30 12 93 8 69 -4 80 -3 69 8 -10
11 -73 14 -302 16 -159 1 -294 4 -298 7 -5 3 -12 2 -16 -1z m267 -133 c5 -50
6 -98 3 -106 -4 -10 -22 -14 -59 -14 -82 0 -177 12 -177 22 0 13 62 171 73
185 10 13 101 21 132 12 17 -5 21 -19 28 -99z m137 -15 l0 -102 -44 -1 c-36
-1 -46 3 -51 18 -7 21 -6 82 2 152 4 44 7 47 36 50 52 5 57 -4 57 -117z m-340
103 c0 -14 -53 -155 -62 -163 -5 -5 -78 152 -78 168 0 4 32 7 70 7 49 0 70 -4
70 -12z M2585 6963 c-11 -3 -29 -12 -40 -19 -11 -8 -27 -14 -37 -14 -18 0 -58
-49 -58 -72 0 -7 -12 -40 -26 -73 -14 -33 -29 -87 -35 -120 -13 -75 -25 -92
-50 -69 -17 16 -19 16 -25 0 -5 -12 -10 -14 -19 -6 -9 8 -17 4 -29 -15 -10
-16 -26 -25 -41 -25 -28 0 -32 -9 -12 -29 10 -10 9 -15 -4 -25 -14 -10 -15
-14 -4 -30 17 -23 10 -42 -18 -50 l-22 -6 23 -15 c25 -19 29 -40 7 -49 -8 -3
-14 -9 -13 -14 2 -5 -30 -53 -69 -106 -40 -53 -76 -108 -79 -122 -3 -13 -7
-24 -9 -24 -10 0 -132 74 -157 96 -29 23 -90 54 -109 54 -12 0 -79 -102 -79
-120 0 -9 38 -38 90 -68 95 -56 114 -77 53 -60 -20 5 -71 15 -113 22 -41 7
-74 16 -73 21 0 6 11 55 22 110 12 55 24 134 28 175 5 63 11 80 34 108 45 51
34 149 -21 196 -25 21 -38 24 -80 21 -62 -5 -95 -28 -114 -83 -14 -39 -14 -48
0 -85 22 -59 23 -53 -25 -152 -44 -92 -81 -187 -81 -212 0 -7 6 -13 13 -13 8
0 21 25 31 62 13 46 64 164 102 236 1 2 27 -2 58 -10 52 -12 56 -15 56 -41 0
-16 -6 -55 -14 -86 -8 -31 -22 -93 -32 -139 l-18 -82 -35 6 c-90 15 -295 83
-344 113 -45 28 -105 31 -123 6 -8 -10 -14 -29 -14 -41 0 -13 -4 -34 -10 -48
-13 -35 -15 -34 155 -80 33 -9 65 -18 71 -20 8 -3 6 -31 -8 -96 -15 -73 -16
-99 -8 -131 9 -31 8 -51 -3 -87 -17 -54 -21 -69 -82 -297 -25 -93 -51 -192
-59 -220 -17 -62 -56 -218 -67 -265 -15 -68 -48 -194 -58 -220 -5 -14 -21 -68
-35 -120 -14 -52 -38 -144 -55 -205 -16 -60 -39 -149 -52 -197 -20 -75 -27
-89 -50 -98 -15 -6 -51 -36 -82 -67 -48 -48 -55 -60 -51 -87 2 -17 6 -52 9
-78 4 -31 11 -48 20 -48 16 0 29 17 17 22 -5 1 -12 33 -15 70 l-6 66 49 46
c27 25 54 46 59 46 14 0 1 -72 -17 -92 -21 -25 -35 -22 -27 5 6 21 5 21 -8 4
-16 -19 -13 -125 4 -158 8 -16 2 -59 -9 -59 -2 0 -10 7 -16 15 -6 8 -16 11
-22 7 -5 -4 -34 -54 -63 -112 -29 -58 -87 -164 -127 -236 -70 -124 -82 -161
-68 -198 8 -20 53 -21 80 -2 11 8 33 35 49 60 16 25 30 44 32 42 5 -4 -44
-191 -67 -257 -23 -64 -25 -97 -6 -121 18 -25 44 -22 87 8 37 25 51 53 83 164
9 30 18 44 27 41 28 -9 81 -2 99 14 9 8 24 13 33 9 17 -6 38 11 226 192 317
302 362 341 387 336 13 -2 24 -8 24 -12 0 -14 52 -30 99 -30 61 0 137 23 218
66 36 19 69 34 73 34 5 0 16 -13 25 -28 19 -31 67 -62 97 -62 11 0 32 8 46 19
15 10 32 20 37 22 21 8 95 97 95 114 0 14 3 15 15 5 10 -9 19 -9 28 -2 6 6 29
13 50 17 21 4 41 14 44 22 3 8 12 12 20 9 8 -3 48 10 89 29 41 19 85 35 99 35
13 0 26 4 29 9 12 19 125 34 127 16 1 -5 4 -21 6 -35 2 -14 4 -123 4 -242 -1
-140 3 -218 9 -218 5 0 10 -7 10 -16 0 -8 -4 -13 -9 -10 -5 3 -12 -18 -16 -46
-3 -29 -11 -86 -17 -126 -12 -83 -6 -157 17 -203 25 -47 38 -24 24 41 -8 39
-8 80 0 159 6 58 13 128 16 155 5 65 12 68 20 9 3 -26 8 -60 11 -74 4 -21 0
-28 -15 -32 -19 -4 -21 -13 -21 -71 0 -68 16 -119 34 -113 11 4 11 39 1 110
-3 21 -2 36 3 33 5 -3 12 -34 16 -70 3 -35 10 -77 15 -93 15 -46 21 -94 12
-89 -5 3 -11 24 -15 46 -6 39 -18 51 -31 30 -19 -30 83 -281 136 -335 21 -23
39 -48 39 -58 0 -22 -38 -46 -84 -54 -32 -5 -37 -3 -46 22 -10 27 -11 28 -78
22 -67 -5 -187 5 -272 24 -41 9 -69 24 -152 81 -15 10 -32 18 -39 18 -6 0 -24
10 -41 21 -38 28 -61 11 -27 -20 13 -11 27 -21 32 -21 16 0 81 -32 114 -56 49
-36 121 -61 203 -68 41 -4 85 -13 98 -22 15 -10 28 -12 35 -6 16 12 57 22 57
14 0 -10 -61 -57 -85 -66 -21 -8 -51 -11 -219 -21 -55 -3 -111 -7 -125 -10
-56 -9 -250 35 -264 60 -4 8 -21 22 -38 30 -16 9 -35 27 -41 40 -6 14 -16 25
-23 25 -6 0 -20 10 -31 23 -11 12 -31 31 -44 42 -38 31 -55 62 -85 160 -38
126 -79 209 -117 239 -18 14 -44 42 -57 64 -42 69 -115 101 -228 102 -52 0
-164 -31 -192 -54 -11 -8 -13 -8 -10 3 5 15 11 19 72 45 23 10 41 26 48 43 18
47 37 62 67 53 15 -4 38 -3 52 2 30 11 88 2 107 -18 15 -14 43 -19 43 -7 0 4
-10 17 -22 30 l-21 23 23 0 c41 0 233 -72 288 -108 46 -30 53 -38 47 -59 -4
-19 0 -29 20 -45 23 -18 60 -67 135 -177 36 -53 129 -149 170 -176 43 -27 96
-40 105 -26 3 6 -6 16 -22 22 -61 25 -75 34 -142 98 -65 62 -181 215 -181 240
0 6 -11 18 -25 27 -17 11 -25 25 -25 45 0 50 -85 107 -240 159 -123 42 -139
44 -160 25 -23 -21 -52 -13 -70 19 -11 21 -9 28 10 54 12 16 34 35 48 41 19 9
22 15 13 24 -17 17 -35 3 -111 -84 -35 -41 -71 -76 -80 -78 -24 -5 -40 -22
-58 -60 -12 -25 -26 -37 -49 -43 -18 -5 -50 -29 -80 -61 -51 -57 -73 -112 -77
-199 -2 -26 -7 -53 -13 -60 -12 -14 -20 -51 -33 -150 -5 -37 -18 -88 -29 -113
-20 -46 -21 -46 -58 -39 -21 4 -42 13 -46 20 -4 8 -25 23 -47 34 -31 16 -44
18 -69 9 -26 -9 -35 -7 -64 15 -27 21 -45 26 -90 26 -98 0 -157 -18 -201 -61
-21 -22 -47 -39 -57 -39 -33 0 -85 -26 -106 -54 -26 -32 -36 -34 -24 -3 5 12
17 58 26 102 10 44 25 103 33 130 17 56 17 58 3 63 -20 7 -36 -43 -84 -253
-14 -63 -28 -79 -52 -61 -13 9 -15 15 -7 20 14 8 15 26 4 44 -11 16 -45 4 -38
-13 2 -7 -15 -27 -40 -46 -39 -29 -59 -69 -35 -69 5 0 9 -30 10 -67 2 -135 7
-209 14 -220 15 -24 75 -32 125 -18 80 24 287 41 297 25 4 -6 16 -5 35 5 16 8
35 12 43 9 8 -3 38 -1 67 4 35 7 64 6 89 -1 20 -6 41 -10 48 -8 9 1 10 -6 2
-29 -11 -31 -23 -38 -34 -20 -10 17 -38 12 -31 -6 4 -12 1 -14 -14 -9 -27 9
-27 -19 0 -38 25 -18 16 -28 -20 -21 -15 4 -31 1 -34 -5 -8 -12 39 -45 52 -37
6 3 15 -1 22 -9 11 -13 6 -14 -33 -10 -25 3 -48 1 -51 -4 -8 -12 32 -41 49
-35 7 3 15 -2 18 -10 8 -21 -16 -21 -47 -1 -20 14 -25 14 -35 1 -17 -20 -8
-32 29 -39 37 -8 39 -24 4 -37 -25 -10 -29 -38 -4 -32 9 2 10 -4 6 -20 -4 -13
-11 -39 -16 -58 -8 -30 -34 -85 -96 -200 -16 -30 -18 -47 -4 -55 5 -3 28 34
50 82 23 48 49 104 59 123 10 19 21 47 25 61 4 18 19 34 45 47 46 24 60 18 31
-13 -22 -23 -18 -55 6 -55 8 0 14 -7 14 -15 0 -23 25 -18 39 9 18 33 5 53 -20
30 -20 -18 -27 -6 -7 14 15 15 55 16 63 1 4 -5 -1 -19 -10 -29 -15 -16 -15
-22 -5 -35 18 -22 27 -19 33 15 5 21 11 28 22 24 8 -3 15 -1 15 5 0 6 5 11 11
11 8 0 8 -4 0 -14 -7 -8 -9 -25 -6 -38 4 -16 0 -32 -13 -48 -28 -36 -47 -76
-70 -147 -23 -71 -28 -126 -18 -201 10 -63 -5 -86 -66 -102 -21 -6 -60 -30
-87 -53 -231 -202 -290 -234 -436 -240 -62 -2 -80 -6 -80 -17 0 -12 16 -15 70
-16 106 -1 186 30 291 113 47 37 109 85 138 105 28 20 58 43 66 51 13 13 77
15 445 12 237 -2 773 -4 1193 -5 791 -1 805 -2 724 -40 -41 -19 -67 -77 -45
-98 29 -30 351 -9 354 22 6 54 10 73 19 95 l10 26 498 3 c934 6 935 6 940 21
4 11 -112 13 -707 8 -391 -3 -713 -1 -716 3 -3 5 -3 15 1 23 4 12 84 15 557
18 512 3 698 4 820 8 l47 1 0 207 c-1 151 -5 215 -15 239 -7 18 -17 55 -20 81
-4 26 -13 73 -20 103 -18 71 -30 180 -20 180 4 0 16 -11 27 -25 40 -51 66 -19
28 33 -11 15 -22 38 -25 51 -2 14 -8 28 -13 33 -13 13 -40 -1 -47 -23 -9 -26
-18 -24 -53 11 -34 34 -60 39 -68 13 -3 -10 -11 -28 -17 -41 -11 -23 -11 -23
-19 -3 -4 12 -13 18 -21 15 -11 -4 -55 42 -45 47 11 5 240 19 311 19 12 0 17
8 17 30 0 32 -8 37 -29 17 -11 -9 -10 -7 0 10 8 13 17 23 21 23 5 0 8 12 8 26
0 21 -4 25 -19 21 -14 -3 -18 -1 -14 9 3 8 11 14 19 14 17 0 19 36 2 44 -10 5
-10 7 0 12 6 3 12 14 12 25 0 18 -20 25 -57 20 -13 -2 -18 21 -7 32 4 3 19 0
35 -9 l29 -15 0 76 0 75 -36 0 c-27 0 -35 4 -31 14 3 8 -1 22 -8 33 -11 14
-17 16 -32 7 -15 -9 -17 -22 -14 -73 2 -37 -1 -61 -7 -61 -6 0 -12 10 -14 22
-4 28 -52 42 -91 27 -22 -10 -31 -9 -46 5 -22 20 -58 21 -77 2 -18 -19 -18
-36 1 -36 20 0 19 -16 -1 -24 -22 -8 -34 1 -34 27 0 36 -14 49 -44 41 l-27 -6
3 63 3 64 35 -3 c19 -1 117 -3 218 -3 147 -1 182 -4 178 -14 -3 -8 2 -19 10
-25 12 -11 14 -6 14 28 0 40 -1 41 -42 50 -31 6 -49 5 -64 -5 -28 -18 -184
-19 -213 -1 -18 11 -23 11 -30 -1 -11 -18 -67 -5 -76 17 -6 15 -8 15 -21 -2
-13 -19 -14 -18 -15 12 -6 114 0 172 16 172 8 0 15 6 15 14 0 8 34 39 75 70
41 31 77 61 80 65 5 10 72 8 203 -4 64 -6 72 -5 72 10 0 15 -8 17 -60 13 -33
-2 -60 -1 -60 4 0 13 -28 9 -33 -4 -4 -10 -6 -10 -6 -1 -1 7 -17 15 -36 19
-37 7 -35 2 -39 92 -1 14 6 16 39 14 22 -2 49 -12 60 -22 22 -19 47 -29 94
-35 35 -4 45 6 36 35 -5 16 -15 20 -46 20 -45 0 -48 5 -17 30 17 13 29 15 45
9 17 -6 23 -5 23 5 0 26 -65 36 -89 14 -11 -11 -13 -10 -9 1 8 27 35 36 68 24
20 -8 30 -8 30 -1 0 19 -34 37 -68 38 -20 0 -35 6 -38 15 -4 8 -14 15 -24 15
-13 0 -17 6 -13 19 3 14 -3 23 -23 33 -16 7 -35 26 -42 41 -7 15 -17 27 -23
27 -5 0 -9 20 -9 45 0 33 -4 45 -15 45 -19 0 -18 7 -15 -250 l2 -215 -48 -38
c-102 -79 -127 -97 -135 -97 -13 0 -13 45 -4 745 3 242 8 476 10 520 2 44 4
115 4 158 1 69 3 77 20 77 25 0 36 61 29 162 -4 47 -2 71 6 73 12 4 148 14
204 15 l33 0 -2 69 -2 69 -46 5 c-25 2 -87 3 -137 0 l-92 -4 -12 118 c-7 65
-15 122 -18 127 -3 6 -7 31 -8 57 -1 26 -10 74 -19 107 -17 59 -17 60 4 81 12
12 21 27 22 34 4 40 -5 77 -28 111 l-25 39 -55 -7 c-31 -4 -68 -14 -84 -23
-49 -29 -64 -93 -30 -130 20 -21 21 -37 4 -143 -8 -56 -8 -55 -18 -225 -4 -77
-12 -143 -17 -146 -5 -3 -57 -7 -116 -9 -59 -1 -123 -3 -142 -4 -21 -1 -35 -6
-34 -13 1 -7 2 -37 3 -67 1 -66 3 -66 161 -69 l115 -2 6 -80 c3 -44 2 -81 -3
-83 -14 -6 -9 -50 6 -59 12 -7 16 -91 21 -508 3 -275 7 -600 9 -723 l4 -223
-33 33 c-62 64 -82 101 -87 158 -3 30 -3 61 -1 68 7 18 21 15 28 -8 4 -14 15
-20 36 -20 36 0 36 4 0 41 -32 31 -50 35 -83 18 -18 -10 -19 -17 -13 -76 l7
-65 -50 -47 c-27 -25 -51 -50 -53 -56 -3 -5 -32 -37 -67 -70 -41 -39 -65 -56
-72 -49 -16 16 -18 1250 -2 1266 6 6 12 8 12 4 0 -5 7 -3 15 4 17 14 21 85 5
95 -7 4 -7 11 -2 18 5 7 10 41 11 77 2 36 4 67 6 68 7 7 82 12 176 12 107 0
109 1 109 75 0 54 -5 56 -156 58 l-139 2 -6 80 c-12 148 -36 326 -49 361 -7
17 -3 27 16 44 34 33 41 83 18 129 -10 20 -20 39 -22 43 -3 7 112 87 131 91 5
1 38 -34 72 -78 34 -44 69 -81 78 -83 18 -4 97 69 97 90 0 21 -53 100 -94 140
-20 19 -36 41 -36 48 0 7 26 38 59 69 32 31 82 85 111 120 29 36 65 72 81 80
40 22 79 79 79 115 0 48 -33 94 -72 101 -42 7 -87 2 -118 -15 -30 -16 -40 -29
-40 -55 0 -13 -13 -27 -35 -39 -19 -11 -35 -22 -35 -26 0 -16 15 -18 40 -5 26
13 27 13 43 -21 9 -19 28 -40 42 -46 14 -6 25 -14 25 -18 0 -4 -24 -34 -52
-67 -29 -33 -60 -69 -69 -79 -9 -10 -33 -34 -54 -52 -29 -25 -40 -30 -46 -20
-5 8 -2 15 8 19 11 3 13 8 6 12 -6 4 -18 4 -26 1 -11 -4 -21 6 -32 30 -10 20
-20 36 -24 36 -9 0 -44 60 -38 66 19 19 113 84 121 84 18 1 61 38 53 46 -10
10 -147 -58 -172 -85 -10 -12 -23 -21 -29 -21 -6 0 -2 7 8 15 18 14 18 15 -7
24 -32 12 -41 27 -23 38 8 4 24 26 37 48 12 22 35 56 51 76 15 20 28 45 28 54
0 11 5 15 14 12 24 -9 74 56 80 104 9 59 -9 89 -66 117 -44 22 -48 22 -81 6
-33 -16 -87 -85 -87 -111 0 -21 -13 -14 -50 29 -29 34 -32 41 -18 49 28 16
130 159 168 237 29 59 45 79 71 91 40 19 64 76 54 128 -7 38 -58 93 -87 93
-35 0 -87 -31 -108 -65 -11 -18 -53 -59 -93 -91 -39 -32 -74 -60 -77 -63 -3
-4 -40 -39 -83 -80 l-77 -75 -53 51 c-55 53 -85 73 -112 73 -27 0 -105 -72
-105 -97 0 -21 41 -66 129 -141 l35 -29 -50 -73 c-27 -39 -56 -85 -65 -101 -9
-16 -61 -79 -114 -139 -54 -61 -104 -118 -111 -127 -19 -27 -26 -11 -28 64 -1
75 11 96 52 86 25 -6 28 4 7 31 -23 30 -18 40 10 22 24 -16 26 -16 32 0 4 10
0 20 -10 26 -24 13 -21 27 3 21 25 -7 28 22 4 35 -22 12 -10 32 15 25 27 -7
35 13 11 30 -19 13 -19 15 -4 21 12 5 14 9 5 20 -9 10 -8 15 4 20 25 9 17 25
-20 40 -19 8 -35 20 -35 25 0 6 -6 10 -12 9 -7 -2 -14 7 -16 20 -2 12 -9 22
-16 22 -9 0 -12 29 -11 110 1 60 5 113 8 117 4 3 7 27 7 52 0 68 -22 104 -91
146 -58 35 -106 57 -157 70 -60 16 -193 26 -227 18z m92 -53 c13 0 41 -9 62
-20 22 -11 59 -21 83 -22 36 -3 43 0 40 15 -3 20 -1 21 33 5 16 -7 25 -19 25
-33 0 -16 9 -26 30 -35 17 -7 33 -10 37 -7 3 4 14 -4 24 -17 21 -26 25 -81 8
-91 -5 -4 -9 -28 -8 -53 2 -26 2 -70 1 -98 -2 -44 -5 -53 -24 -58 -15 -3 -27
0 -34 9 -6 8 -25 18 -43 21 -17 4 -34 10 -37 15 -6 11 -54 -11 -54 -25 -1 -6
-7 4 -15 22 -9 21 -21 32 -34 32 -11 0 -23 5 -26 10 -8 13 -58 13 -70 1 -6 -5
-26 -13 -45 -18 -23 -6 -35 -15 -35 -26 0 -10 -6 -21 -13 -26 -11 -7 -11 -11
2 -24 22 -21 20 -26 -10 -38 -25 -9 -26 -11 -10 -28 16 -18 15 -19 -11 -25
-15 -4 -36 -9 -45 -12 -10 -3 -18 -1 -18 5 0 6 7 11 15 11 15 0 20 12 9 22 -3
4 -19 2 -37 -3 -17 -5 -33 -7 -35 -4 -12 12 33 44 69 50 21 4 41 11 44 16 9
14 -43 22 -75 11 -24 -9 -30 -8 -30 3 0 8 5 17 11 21 8 4 8 9 0 17 -6 6 -11
19 -11 28 0 11 -9 19 -22 21 -17 2 -22 9 -20 23 2 11 10 23 17 28 8 4 21 14
29 22 8 8 27 15 43 15 15 0 34 4 42 9 24 15 -27 24 -59 11 -51 -21 -57 -3 -7
19 41 18 71 23 155 30 7 1 10 6 6 12 -4 8 -26 10 -60 6 -43 -4 -54 -3 -54 9 0
8 -9 14 -21 14 -26 0 -20 24 7 28 48 7 64 13 59 22 -3 6 -19 10 -36 10 -37 0
-38 18 -1 26 60 13 64 16 53 27 -6 6 -11 19 -11 28 0 25 51 30 69 7 7 -10 24
-18 38 -18z m1290 -72 c29 -33 33 -52 22 -93 -13 -47 -46 -61 -93 -38 -40 19
-52 50 -36 98 7 22 21 37 38 44 40 14 47 13 69 -11z m-137 -128 c7 -18 22 -33
36 -36 13 -3 24 -11 24 -18 0 -31 -105 -208 -162 -272 -27 -31 -54 -21 -131
50 l-67 62 77 76 c104 102 194 179 203 173 4 -3 13 -18 20 -35z m-2157 -120
c27 -22 53 -82 48 -115 -1 -11 -12 -30 -24 -42 -52 -57 -167 0 -167 83 0 78
83 121 143 74z m1714 -13 c21 -18 52 -46 69 -62 17 -17 60 -55 95 -86 156
-137 176 -155 192 -176 18 -23 18 -24 -33 -67 -19 -15 -24 -16 -31 -5 -15 27
-45 56 -103 99 -33 24 -77 59 -97 77 -24 22 -43 32 -51 27 -7 -4 -10 -3 -5 1
8 9 -40 65 -55 65 -17 0 -90 65 -105 94 -8 15 -10 26 -5 22 5 -3 20 5 33 18
33 33 51 31 96 -7z m-567 -101 c0 -3 -4 -8 -10 -11 -5 -3 -10 -1 -10 4 0 6 5
11 10 11 6 0 10 -2 10 -4z m1181 -174 c3 -49 -5 -80 -28 -104 -22 -23 -28 -25
-57 -16 -76 26 -89 82 -32 143 l34 36 41 -21 c23 -11 41 -28 42 -38z m-518 -6
c21 -20 40 -36 43 -36 3 0 14 -8 25 -19 20 -18 19 -18 -13 -59 -40 -49 -53
-56 -78 -40 -14 9 -22 10 -31 1 -8 -8 -3 -17 20 -34 35 -26 39 -39 12 -39 -25
0 -150 109 -151 133 0 15 25 6 52 -20 24 -23 28 -24 34 -9 4 11 -3 27 -20 45
l-27 29 31 51 c36 57 38 57 103 -3z m-858 14 c-3 -5 -10 -10 -16 -10 -5 0 -9
5 -9 10 0 6 7 10 16 10 8 0 12 -4 9 -10z m392 -22 c-3 -8 -6 -5 -6 6 -1 11 2
17 5 13 3 -3 4 -12 1 -19z m-447 -2 c0 -16 -27 -29 -41 -20 -13 8 9 34 27 34
8 0 14 -6 14 -14z m306 -17 c64 -28 104 -71 104 -112 0 -18 5 -39 10 -47 7
-11 4 -16 -13 -21 -18 -4 -22 -12 -21 -42 1 -20 8 -51 16 -69 24 -53 30 -88
15 -88 -7 0 -18 5 -24 11 -13 13 -83 8 -85 -6 -2 -5 10 -16 26 -24 38 -18 19
-40 -19 -23 -14 7 -36 12 -48 12 -13 0 -28 5 -34 11 -8 8 -15 4 -27 -13 -15
-21 -15 -23 1 -26 27 -5 65 -24 90 -45 17 -15 20 -24 13 -43 -5 -13 -7 -30 -4
-37 2 -7 -2 -21 -9 -31 -12 -17 -15 -17 -48 -2 -41 20 -64 34 -106 64 -17 12
-39 22 -50 22 -24 0 -37 10 -52 39 -9 16 -16 20 -24 12 -16 -16 6 -57 41 -75
71 -37 83 -114 35 -217 -40 -85 -52 -93 -127 -93 -88 0 -223 31 -244 57 -6 7
-9 50 -8 97 2 78 6 92 44 165 23 44 48 87 55 95 8 8 17 23 20 33 4 10 17 17
32 17 14 0 25 5 25 11 0 6 9 9 20 6 11 -3 22 -2 24 2 8 13 -8 29 -47 44 -49
21 -63 57 -43 106 l15 36 0 -35 c1 -43 56 -104 72 -79 12 19 11 36 -1 44 -16
10 -12 35 5 35 9 0 20 -12 25 -26 10 -24 14 -26 52 -21 58 8 72 33 38 67 -21
21 -26 40 -10 40 5 0 16 -15 23 -32 8 -18 21 -39 31 -47 14 -12 19 -11 37 4
11 10 18 26 17 36 -2 9 7 25 20 35 25 20 28 41 17 91 -7 29 -5 33 19 39 14 3
26 12 26 19 0 7 6 16 13 18 6 3 13 6 13 6 1 1 23 -9 50 -20z m-680 -55 c-2
-13 -6 -27 -9 -31 -12 -11 -7 -57 7 -76 10 -13 12 -27 5 -49 -9 -32 -2 -48 31
-75 33 -27 -19 -13 -64 17 -24 17 -61 37 -80 45 -20 9 -36 17 -36 19 0 9 57
105 88 149 26 37 37 45 47 37 8 -6 12 -22 11 -36z m277 31 c7 -16 -8 -29 -23
-20 -10 6 -2 35 10 35 4 0 10 -7 13 -15z m-60 -30 c9 -23 -9 -26 -28 -5 -17
19 -17 20 2 20 12 0 23 -7 26 -15z m171 0 c-9 -21 23 -19 35 2 5 10 13 14 17
10 5 -5 4 -11 -2 -15 -6 -4 -13 -15 -17 -24 -3 -10 -13 -18 -20 -18 -19 0 -50
36 -42 49 10 17 35 13 29 -4z m104 -22 c-1 -44 -13 -63 -39 -63 -25 0 -24 22
1 45 11 10 22 26 25 36 10 29 14 22 13 -18z m-318 -3 c12 -23 6 -40 -15 -40
-16 0 -26 25 -19 45 8 21 21 19 34 -5z m-90 0 c0 -5 -7 -10 -15 -10 -8 0 -15
-9 -15 -19 0 -24 -18 -37 -31 -24 -6 6 -6 20 0 36 8 20 18 27 36 27 14 0 25
-4 25 -10z m260 -9 c15 -28 13 -33 -10 -21 -11 6 -20 17 -20 25 0 21 17 18 30
-4z m1309 -11 c31 -27 33 -30 22 -61 -11 -32 -88 -139 -100 -139 -3 0 -16 16
-29 36 -12 19 -29 37 -37 40 -12 5 -59 -23 -116 -68 -27 -22 -33 -55 -11 -62
10 -4 24 -17 30 -30 10 -23 9 -24 -26 -20 -20 2 -111 8 -201 14 -90 5 -168 13
-173 18 -7 7 -2 18 11 31 12 12 21 25 21 29 0 10 174 3 220 -9 68 -18 83 -13
125 43 100 131 178 208 209 208 11 -1 36 -14 55 -30z m-2038 2 c15 -9 44 -29
65 -43 22 -14 80 -47 129 -74 50 -26 101 -56 115 -65 14 -10 58 -34 98 -54 58
-29 71 -40 63 -50 -9 -11 -5 -20 19 -39 35 -30 36 -34 12 -65 l-18 -24 -115
67 c-63 36 -123 74 -134 84 -11 10 -51 35 -90 56 -53 29 -199 123 -234 151 -7
6 41 74 52 74 7 0 24 -8 38 -18z m669 5 c0 -22 -39 -52 -51 -40 -8 8 -4 17 12
32 26 24 39 27 39 8z m1164 -16 c22 -24 18 -31 -63 -116 -62 -64 -66 -67 -104
-62 -65 9 -63 17 19 78 30 22 66 58 79 79 28 45 44 49 69 21z m-2280 -96 c130
-43 285 -81 434 -106 39 -7 72 -14 72 -15 0 -2 -11 -19 -24 -39 -14 -20 -26
-40 -28 -46 -2 -7 -26 -3 -63 11 -33 11 -107 32 -165 45 -58 13 -139 33 -180
45 -140 40 -175 50 -240 69 l-65 19 4 43 c5 67 14 73 72 44 27 -14 109 -45
183 -70z m1954 38 c-8 -10 -118 -133 -244 -273 -126 -141 -249 -278 -273 -305
-24 -28 -83 -93 -131 -145 -48 -52 -165 -183 -260 -290 -95 -107 -190 -213
-211 -235 -21 -22 -62 -67 -91 -101 -94 -108 -239 -267 -327 -359 -87 -91
-138 -146 -292 -315 -120 -132 -137 -153 -131 -169 3 -9 0 -11 -7 -6 -16 9
-51 -23 -51 -47 0 -11 -7 -18 -19 -18 -11 0 -29 -12 -41 -27 -12 -16 -61 -71
-110 -123 -106 -116 -133 -148 -149 -178 -18 -34 -21 -23 -8 21 12 39 54 89
248 297 59 63 124 135 144 160 21 25 104 118 186 207 82 89 149 165 149 168 0
3 16 19 35 36 33 29 259 280 405 449 36 41 101 116 145 166 44 49 105 119 135
153 96 110 182 204 245 265 33 33 69 74 80 91 31 50 84 107 94 100 16 -9 62
38 65 67 3 27 43 82 131 179 27 30 64 71 80 90 17 19 63 72 104 118 l74 82 20
-20 c19 -18 19 -22 5 -38z m-998 37 c0 -5 -2 -10 -4 -10 -3 0 -8 5 -11 10 -3
6 -1 10 4 10 6 0 11 -4 11 -10z m200 -36 c0 -8 -4 -12 -10 -9 -5 3 -10 10 -10
16 0 5 5 9 10 9 6 0 10 -7 10 -16z m1779 -20 c28 -35 26 -60 -6 -103 -14 -20
-27 -37 -28 -39 -1 -1 -22 5 -48 15 -40 15 -47 22 -56 56 -17 70 2 93 81 96
28 1 41 -5 57 -25z m-1927 -19 c-2 -14 -11 -25 -18 -25 -20 0 -30 30 -13 41
25 16 36 10 31 -16z m222 10 c14 -10 17 -18 10 -25 -15 -15 -44 -1 -44 21 0
23 8 23 34 4z m801 -10 l30 -25 -27 -25 c-20 -19 -38 -25 -71 -25 -24 0 -47 3
-51 7 -6 6 72 93 84 93 3 -1 19 -12 35 -25z m-1105 -23 c0 -24 -1 -25 -16 -10
-10 9 -14 24 -10 33 9 23 26 9 26 -23z m700 -14 c0 -16 -3 -19 -11 -11 -6 6
-8 16 -5 22 11 17 16 13 16 -11z m-673 -53 c-1 -26 -5 -34 -15 -30 -7 3 -16 5
-18 5 -12 0 -2 35 14 46 9 7 18 14 19 14 0 0 1 -16 0 -35z m63 21 c0 -8 3 -21
6 -30 4 -12 0 -16 -15 -16 -26 0 -38 25 -21 45 16 19 30 19 30 1z m1340 -22
c14 -20 43 -55 66 -79 22 -24 67 -83 99 -131 32 -49 69 -99 82 -111 13 -12 23
-27 23 -32 0 -6 9 -16 20 -23 23 -14 110 -121 110 -135 0 -4 -16 -18 -35 -30
l-34 -23 -20 29 c-12 16 -21 32 -21 36 0 7 -70 85 -108 119 -13 12 -58 65 -99
119 -41 54 -95 117 -118 140 -61 60 -78 89 -62 109 13 16 58 48 67 48 3 0 16
-17 30 -36z m-2236 -63 c38 -12 76 -21 83 -21 24 0 23 -24 -5 -110 l-27 -85
-40 2 c-58 3 -140 20 -167 34 l-23 12 28 10 c19 6 32 6 39 -1 13 -13 38 -4 38
13 0 18 -34 28 -70 20 -35 -8 -36 -3 -19 89 18 93 13 88 56 72 21 -8 69 -24
107 -35z m516 -3 c0 -9 115 -88 129 -88 16 0 13 -26 -5 -41 -20 -17 -45 -65
-37 -73 4 -3 -1 -6 -11 -6 -9 0 -21 -11 -26 -25 l-9 -24 -98 61 c-115 72 -108
66 -100 74 4 4 25 -5 47 -20 46 -30 56 -32 64 -11 4 11 -12 24 -54 45 l-60 30
14 28 c8 15 28 41 45 58 31 31 31 31 66 16 19 -9 35 -20 35 -24z m373 0 c8
-29 -11 -52 -29 -37 -17 14 -18 46 -1 52 21 9 25 8 30 -15z m-609 -70 c22 -8
41 -19 43 -25 5 -13 -59 -138 -320 -623 -61 -113 -128 -240 -150 -283 -21 -43
-41 -77 -43 -74 -2 2 5 30 15 63 11 32 44 136 74 229 30 94 71 224 91 290 39
128 53 171 111 335 20 58 38 110 40 117 4 12 54 2 139 -29z m1426 -4 c0 -7 5
-14 12 -16 19 -7 -12 -42 -266 -312 -72 -76 -142 -150 -156 -165 -14 -15 -59
-63 -100 -108 -125 -133 -291 -312 -369 -397 -41 -45 -133 -142 -205 -216 -72
-74 -151 -158 -175 -185 -54 -61 -343 -365 -391 -412 -36 -35 -108 -78 -117
-70 -3 4 254 292 342 383 127 132 308 330 620 679 103 116 222 248 264 294 42
47 103 114 135 150 33 36 80 89 106 116 25 28 80 88 120 135 41 47 89 101 107
120 18 19 33 39 33 44 0 5 9 1 20 -9 11 -10 20 -24 20 -31z m280 5 c52 -6 119
-12 148 -14 51 -3 82 -17 82 -37 0 -6 -29 -7 -76 -3 -72 7 -76 7 -70 -12 4
-13 -5 -30 -30 -56 -20 -20 -41 -37 -46 -37 -5 0 -6 -9 -3 -20 9 -29 -16 -35
-72 -17 -26 9 -65 18 -86 22 -23 4 -37 11 -34 18 4 12 11 12 71 5 17 -2 31 2
33 10 3 6 -2 12 -9 12 -8 0 -23 6 -33 14 -18 13 -18 15 -2 40 10 14 27 26 38
26 28 0 19 23 -12 31 -13 4 -45 7 -71 8 -26 1 -50 6 -53 11 -8 13 103 13 225
-1z m-569 -29 c13 -10 21 -19 17 -20 -14 0 -58 23 -58 32 0 14 16 9 41 -12z
m419 -17 c0 -4 -18 -28 -40 -54 -22 -26 -40 -52 -40 -58 0 -13 -183 -201 -195
-201 -6 0 -18 12 -28 26 -21 29 -29 17 136 197 84 90 93 97 128 97 22 0 39 -3
39 -7z m-1046 -62 c3 -5 -1 -28 -9 -51 -18 -52 -22 -129 -7 -156 7 -14 8 -24
1 -31 -30 -30 163 -109 260 -106 l55 2 -25 -24 c-31 -31 -46 -33 -152 -16 -65
11 -91 11 -99 3 -8 -8 -8 -15 0 -25 9 -11 6 -19 -13 -37 l-24 -23 -22 37 c-11
20 -28 36 -36 36 -8 0 -13 6 -10 13 2 6 -11 28 -30 48 l-34 36 11 67 c6 37 17
92 25 121 7 30 12 68 10 85 -4 27 -2 30 25 30 17 0 30 5 30 10 0 12 35 -3 44
-19z m1366 10 c0 -4 -20 -27 -45 -51 -36 -36 -45 -50 -40 -70 4 -20 -3 -30
-33 -52 -20 -15 -107 -83 -192 -151 -212 -171 -222 -151 -22 44 84 83 164 154
178 159 13 5 27 18 31 27 13 36 87 110 105 105 10 -2 18 -7 18 -11z m147 -66
c14 -22 41 -56 60 -76 l35 -37 -24 -22 c-21 -20 -90 -60 -103 -60 -3 0 -5 7
-5 15 0 9 -7 18 -15 21 -8 4 -15 10 -15 15 0 5 -21 41 -46 80 -25 39 -42 75
-37 80 4 4 26 21 48 38 l40 30 18 -22 c10 -12 30 -40 44 -62z m-1901 20 c3 -7
-19 -55 -49 -106 -29 -52 -80 -141 -112 -199 -33 -58 -66 -117 -75 -131 -101
-174 -355 -623 -448 -794 -39 -71 -87 -159 -106 -195 -20 -36 -62 -113 -94
-172 -51 -97 -60 -108 -84 -108 -16 0 -28 2 -28 4 0 5 165 321 222 426 19 36
70 133 113 215 43 83 85 164 95 180 27 46 278 512 360 670 40 77 84 157 97
178 13 21 28 49 33 63 l10 25 31 -22 c17 -12 33 -27 35 -34z m229 -110 c-23
-115 -23 -160 -1 -184 17 -19 17 -21 1 -37 -14 -15 -15 -19 -2 -32 17 -16 37
-9 37 14 0 9 5 14 11 12 6 -2 10 -8 9 -13 -4 -38 -34 -112 -73 -177 -60 -101
-68 -147 -33 -192 23 -31 29 -33 60 -26 42 9 56 18 56 34 0 6 18 29 39 50 38
37 46 55 80 181 6 22 17 49 26 60 12 16 14 17 9 2 -9 -26 14 -49 37 -36 26 13
25 49 -1 49 -14 0 -18 5 -13 16 4 11 13 14 32 9 14 -3 41 -9 59 -12 17 -3 32
-9 32 -14 0 -9 -126 -149 -170 -189 -15 -14 -29 -30 -31 -36 -4 -11 -71 -92
-119 -143 -14 -15 -47 -53 -74 -86 -26 -33 -81 -96 -121 -140 -40 -44 -92
-102 -116 -130 -120 -136 -180 -187 -129 -110 25 37 27 70 4 61 -14 -5 -15 -2
-9 21 17 66 17 126 2 138 -14 10 -14 25 -5 121 16 154 16 179 -2 179 -19 0
-28 -44 -40 -185 -10 -126 -13 -146 -23 -156 -15 -15 -19 30 -9 98 6 40 9 74
6 77 -12 12 -32 -29 -43 -85 -13 -71 -1 -119 30 -111 13 4 17 -2 17 -27 0 -17
5 -44 11 -59 6 -16 11 -38 11 -49 0 -17 -2 -18 -15 -8 -10 8 -13 21 -9 33 7
22 -38 66 -68 67 -22 0 -23 -13 -4 -29 12 -10 9 -17 -15 -44 -25 -27 -27 -34
-15 -42 75 -50 98 -69 87 -73 -7 -2 -23 6 -35 17 -25 23 -76 33 -83 16 -2 -6
12 -16 31 -23 42 -16 58 -33 46 -52 -7 -12 -12 -12 -28 3 -10 9 -24 17 -30 17
-15 0 -16 -26 -2 -35 6 -3 10 -12 10 -20 0 -8 -17 4 -38 27 -23 24 -44 38 -50
34 -18 -11 -15 -22 18 -53 18 -16 30 -38 30 -53 0 -23 -2 -23 -27 13 -28 39
-50 47 -59 22 -4 -9 4 -23 20 -36 14 -11 26 -25 26 -31 0 -6 -8 -4 -18 5 -10
10 -24 17 -30 17 -19 0 -14 -25 8 -45 27 -25 25 -37 -5 -29 -20 5 -25 2 -25
-13 0 -10 5 -24 12 -31 9 -9 9 -15 0 -24 -9 -9 -12 -9 -12 3 0 31 -76 87 -154
113 -19 6 -19 7 0 21 10 8 27 15 37 15 22 0 21 9 -2 39 -17 23 -18 27 -4 48 8
12 20 20 25 17 5 -3 21 4 34 17 23 21 24 25 8 36 -14 11 -11 20 36 97 28 48
55 84 60 81 10 -6 116 108 125 136 15 45 -12 38 -44 -11 -47 -73 -51 -53 -5
22 22 35 46 74 54 88 8 14 41 70 74 125 l60 100 10 -33 c10 -35 29 -38 33 -6
18 139 25 159 95 278 39 67 80 138 91 159 12 21 36 55 55 75 18 20 39 51 47
69 8 20 22 33 37 35 13 2 24 11 27 23 2 10 11 30 20 44 l16 25 3 -28 c2 -16
-4 -66 -13 -111z m-734 96 c4 -3 -11 -69 -33 -146 -21 -77 -70 -252 -109 -390
-98 -351 -108 -388 -141 -495 -35 -110 -119 -398 -123 -420 -4 -22 -84 -180
-91 -180 -11 0 -1 40 145 563 65 232 172 635 176 662 1 11 10 45 20 75 9 30
27 96 40 146 53 203 53 205 83 198 15 -4 30 -9 33 -13z m583 -23 l33 -22 -47
-80 c-26 -45 -57 -99 -70 -121 -13 -22 -29 -47 -36 -55 -32 -40 -204 -352
-199 -361 4 -5 1 -8 -6 -7 -8 2 -20 -10 -29 -27 -14 -27 -45 -79 -77 -130 -7
-11 -21 -36 -31 -55 -44 -82 -112 -199 -148 -256 -83 -131 -135 -219 -186
-314 -7 -14 -18 -31 -25 -38 -7 -7 -13 -17 -13 -21 0 -4 -8 -16 -19 -27 -10
-11 -24 -30 -30 -42 -6 -12 -17 -22 -24 -22 -7 0 -20 -14 -30 -31 -10 -18 -20
-29 -23 -26 -3 3 15 41 39 84 25 43 62 110 82 148 21 39 64 116 96 173 33 57
59 107 59 112 0 5 3 10 8 12 4 2 14 17 23 33 9 17 43 77 76 135 55 97 342 608
427 760 20 36 53 95 74 132 20 38 38 68 40 68 1 0 17 -10 36 -22z m-447 -2 c2
-1 -15 -54 -36 -117 -116 -343 -261 -811 -261 -839 0 -11 -21 -59 -46 -107
-26 -48 -65 -123 -87 -165 -23 -43 -43 -76 -45 -73 -2 2 10 46 26 97 43 131
81 259 108 358 12 47 32 119 44 160 12 41 30 104 40 140 10 36 37 128 60 205
23 77 55 188 72 247 l30 107 47 -5 c25 -3 47 -7 48 -8z m2146 -91 c14 -28 37
-62 52 -78 24 -23 25 -27 9 -27 -11 0 -37 25 -64 62 -59 80 -73 106 -66 125 8
19 32 -10 69 -82z m670 67 c50 -52 26 -122 -43 -122 -30 0 -100 55 -100 78 1
26 32 60 60 65 49 9 57 7 83 -21z m-1554 9 c12 -8 12 -12 2 -25 -19 -23 -31
-20 -31 9 0 27 6 30 29 16z m521 -4 c0 -7 -87 -99 -192 -204 -106 -106 -245
-246 -308 -313 -226 -238 -786 -800 -798 -800 -34 0 4 48 166 212 97 98 210
213 251 256 41 42 209 217 375 387 166 171 337 347 380 393 55 56 87 82 103
82 13 0 23 -6 23 -13z m88 -29 c8 -8 -37 -59 -186 -208 -108 -108 -213 -214
-233 -236 -19 -21 -66 -69 -105 -106 -38 -36 -108 -106 -155 -155 -93 -94
-496 -486 -637 -618 -47 -44 -133 -126 -191 -182 -59 -57 -114 -103 -123 -103
-10 0 -18 2 -18 5 0 3 195 203 434 443 238 240 597 602 797 805 360 364 386
386 417 355z m231 -83 l20 -34 -22 -14 c-12 -8 -38 -29 -57 -47 -19 -18 -60
-51 -90 -73 -30 -23 -99 -77 -153 -121 -54 -45 -110 -88 -125 -96 -15 -9 -48
-36 -73 -60 -25 -25 -56 -54 -69 -64 -45 -36 -141 -111 -168 -131 -15 -11 -41
-34 -57 -50 -32 -32 -105 -94 -195 -166 -109 -88 -386 -313 -430 -350 -85 -71
-205 -165 -220 -173 -8 -4 64 70 160 165 448 442 610 598 667 644 35 28 63 55
63 62 0 6 10 15 23 19 24 7 211 161 267 219 19 20 48 43 65 51 16 7 102 72
190 143 112 90 164 126 172 119 7 -5 21 -25 32 -43z m-914 15 c3 -5 1 -10 -4
-10 -6 0 -11 5 -11 10 0 6 2 10 4 10 3 0 8 -4 11 -10z m285 -75 c13 -14 20
-28 16 -32 -44 -44 -431 -445 -451 -468 -28 -32 -531 -539 -584 -589 -26 -25
-33 -27 -46 -16 -14 11 -4 25 82 114 91 94 293 308 409 435 27 29 66 72 87 95
21 22 46 50 55 61 10 11 83 89 163 174 79 84 164 175 189 202 24 27 47 49 51
49 3 0 16 -11 29 -25z m1264 8 c4 -4 19 -7 34 -8 22 0 29 -7 40 -40 8 -22 16
-58 18 -80 18 -165 37 -311 41 -317 4 -8 -9 -9 -137 -12 l-65 -1 3 145 c1 80
7 163 12 185 5 22 12 61 15 88 6 44 20 59 39 40z m-594 -7 c0 -3 -4 -8 -10
-11 -5 -3 -10 -1 -10 4 0 6 5 11 10 11 6 0 10 -2 10 -4z m90 -73 c11 -14 20
-35 20 -47 0 -22 -25 -65 -44 -78 -14 -9 -53 0 -88 21 -23 13 -28 22 -28 55 0
53 18 71 74 73 38 1 49 -3 66 -24z m-193 -53 c0 -27 -3 -50 -8 -50 -5 0 -37
-24 -71 -53 -35 -29 -94 -77 -133 -107 -38 -30 -77 -60 -85 -67 -8 -7 -42 -34
-75 -60 -33 -26 -62 -50 -65 -54 -3 -4 -37 -30 -75 -58 -39 -28 -88 -66 -110
-85 -57 -48 -134 -106 -141 -106 -3 0 -15 -11 -26 -25 -11 -14 -24 -25 -30
-25 -6 0 -32 -19 -57 -42 -59 -54 -125 -110 -176 -147 -22 -16 -49 -38 -60
-48 -18 -17 -73 -60 -250 -198 -38 -30 -108 -82 -155 -116 -47 -34 -99 -74
-116 -90 -27 -26 -94 -56 -94 -43 0 3 19 22 42 42 23 20 49 44 58 52 36 34
132 113 260 214 74 59 158 126 185 149 28 24 145 119 260 212 116 93 217 176
225 185 14 15 239 199 386 317 82 64 130 104 175 142 19 16 57 47 84 69 28 23
50 41 51 41 0 1 1 -21 1 -49z m-1343 -56 c9 -23 8 -24 -13 -24 -14 0 -18 5
-14 20 6 24 19 26 27 4z m1381 -14 c4 -6 2 -16 -4 -23 -17 -21 -32 -135 -36
-287 -3 -80 -7 -155 -10 -167 -7 -29 -41 -35 -164 -29 l-102 6 -10 -28 c-11
-28 -6 -89 9 -104 4 -4 58 -8 120 -9 l112 -1 2 -42 c1 -22 2 -56 3 -75 1 -19
-3 -47 -9 -62 -8 -24 -7 -33 10 -56 17 -23 22 -50 28 -143 10 -163 7 -683 -3
-693 -5 -5 -18 -3 -29 4 -17 10 -23 10 -37 -1 -12 -10 -19 -10 -27 -2 -21 21
-48 14 -48 -12 0 -30 15 -42 24 -20 5 13 9 14 21 4 7 -6 26 -10 42 -9 65 5 63
7 63 -96 0 -55 -4 -95 -10 -95 -13 0 -86 -98 -191 -257 -22 -35 -51 -71 -63
-81 -15 -11 -25 -34 -31 -67 -15 -97 -15 -97 38 -116 27 -10 54 -16 61 -13 7
3 35 -1 63 -8 l51 -13 -19 -24 -19 -23 -26 26 c-33 32 -35 32 -62 1 -24 -27
-37 -31 -47 -15 -4 6 -15 8 -25 5 -17 -5 -18 -3 -10 26 11 37 7 47 -13 31 -15
-13 -42 -89 -38 -109 1 -7 -10 -35 -24 -62 -25 -51 -26 -51 -75 -34 -27 10
-54 10 -89 1 -49 -14 -62 4 -28 40 15 15 27 32 27 36 0 4 9 21 21 37 20 28 19
69 -2 69 -5 0 -27 16 -49 36 -74 67 -128 190 -150 342 -7 45 -16 82 -21 82 -4
0 -6 15 -3 33 3 17 0 61 -6 97 -7 36 -11 94 -10 130 1 68 -13 181 -36 288 -8
35 -14 85 -14 112 0 41 4 51 23 61 12 7 31 13 42 14 11 0 40 15 65 32 58 40
96 113 115 218 8 44 35 143 60 220 49 149 53 172 59 305 5 129 23 187 65 218
20 15 46 36 58 47 12 11 50 41 85 67 35 26 106 80 158 122 52 41 98 75 102 75
4 1 10 -4 13 -9z m-506 -47 c-55 -48 -66 -48 -19 0 25 25 46 42 48 37 2 -6
-11 -22 -29 -37z m605 -3 c15 0 26 -7 29 -17 22 -80 39 -208 43 -325 4 -112 7
-109 -109 -107 l-66 1 -3 57 c-6 117 18 369 39 404 2 4 13 3 23 -3 10 -5 30
-10 44 -10z m-1449 0 c3 -6 3 -20 -1 -32 l-7 -22 -18 23 c-11 13 -16 27 -13
32 7 12 31 11 39 -1z m-68 -39 c2 -12 -1 -20 -6 -16 -5 3 -12 1 -16 -5 -13
-21 -24 1 -13 26 14 29 30 27 35 -5z m823 -36 c-7 -9 -15 -13 -19 -10 -3 3 1
10 9 15 21 14 24 12 10 -5z m-780 -45 c0 -3 -12 -6 -28 -6 -15 -1 -33 -3 -41
-5 -8 -2 -16 3 -18 12 -6 24 58 41 74 20 7 -9 12 -18 13 -21z m-110 -31 c0 -5
-7 -9 -15 -9 -15 0 -20 12 -9 23 8 8 24 -1 24 -14z m24 -45 c11 -29 6 -44 -14
-44 -29 0 -45 36 -23 49 25 14 30 13 37 -5z m2524 -70 c2 -32 -1 -43 -15 -49
-33 -13 -730 -24 -751 -11 -14 9 -16 72 -2 81 5 3 96 8 202 11 106 3 194 7
195 7 1 1 84 2 185 2 l183 0 3 -41z m-1571 -92 c5 -59 -18 -260 -37 -317 -10
-33 -33 -102 -50 -153 -23 -71 -28 -97 -20 -107 9 -10 8 -20 -3 -37 -8 -13
-25 -54 -38 -91 -21 -61 -29 -72 -68 -95 -24 -14 -63 -27 -85 -28 -23 -2 -43
-3 -45 -3 -2 -1 2 -8 9 -16 10 -12 9 -16 -4 -21 -9 -3 -24 -3 -33 1 -28 12
-53 6 -112 -27 -41 -24 -58 -29 -70 -21 -13 8 -24 4 -51 -18 -25 -21 -40 -27
-58 -22 -21 5 -23 3 -18 -15 4 -11 2 -23 -4 -27 -5 -3 -10 1 -10 9 0 25 -20
29 -42 9 -16 -14 -33 -17 -78 -15 -50 2 -59 -1 -65 -17 -3 -11 -12 -22 -20
-25 -8 -3 -15 -13 -15 -21 0 -17 -29 -53 -31 -38 -1 4 0 20 1 35 1 14 -3 29
-8 32 -6 3 -8 14 -6 24 8 33 -39 96 -90 120 -59 28 -55 34 48 86 67 34 70 34
105 20 20 -8 49 -28 64 -44 30 -30 47 -38 47 -20 0 14 -66 77 -89 85 -22 7
-35 31 -21 40 13 8 90 -27 118 -54 19 -19 22 -20 22 -5 0 10 -10 29 -22 42
l-23 24 25 17 c13 9 46 35 74 58 35 30 53 40 61 33 18 -15 28 43 13 75 -9 19
-8 29 6 50 9 14 21 25 26 25 5 0 31 21 57 47 26 25 60 54 75 63 16 9 45 32 65
51 21 19 79 66 128 103 50 38 108 84 130 102 81 68 136 114 138 114 1 0 3 -12
4 -28z m1335 -51 c0 -34 1 -67 2 -73 1 -7 -12 -14 -29 -16 -54 -5 -75 -12 -75
-26 0 -19 20 -25 49 -14 27 10 51 4 51 -12 0 -6 -44 -10 -120 -10 -73 0 -120
4 -120 10 0 10 21 14 49 11 7 -2 20 0 28 4 27 10 -14 45 -54 45 -18 0 -33 1
-33 3 -6 31 -11 111 -7 120 3 9 43 13 131 15 l126 3 2 -60z m-349 -94 c2 -18
0 -35 -7 -39 -6 -4 -54 -8 -106 -9 -52 -1 -126 -3 -165 -4 -115 -4 -396 -8
-447 -7 -43 2 -47 4 -53 33 -5 22 -3 34 6 40 8 4 58 8 113 8 54 0 100 2 101 3
2 2 127 4 278 5 l275 3 5 -33z m-2370 -156 c-2 -2 -12 4 -23 14 -18 17 -19 19
-2 49 l17 31 5 -45 c3 -25 4 -47 3 -49z m2075 2 l3 -73 -40 0 c-22 0 -43 -5
-47 -11 -10 -17 13 -33 51 -33 27 0 35 -4 35 -17 0 -11 -9 -19 -22 -21 l-23
-3 0 -1240 c-1 -1200 -8 -1694 -26 -1725 -5 -9 -7 88 -6 227 2 134 6 246 10
249 4 4 3 12 0 18 -4 5 -8 170 -9 366 -1 195 -5 528 -9 740 -4 212 -8 599 -10
860 -2 317 -7 476 -14 478 -6 2 -13 -9 -17 -24 -4 -15 -4 -266 0 -558 9 -745
16 -2271 9 -2329 -5 -45 -7 -48 -32 -45 l-26 3 -2 480 c-2 712 -2 732 -13
1100 -5 187 -10 574 -12 860 l-3 520 68 1 c70 2 95 12 82 34 -6 9 -26 11 -72
6 -44 -5 -63 -3 -58 4 3 5 15 10 26 10 10 0 19 7 19 15 0 15 -7 17 -60 19 -24
1 -25 3 -25 78 l-1 77 81 4 c44 2 94 3 110 3 l30 -1 3 -72z m597 39 c3 -13 4
-26 1 -30 -6 -10 -14 -655 -21 -1602 -3 -399 -8 -788 -10 -865 -8 -264 -18
-640 -17 -658 0 -9 -6 -17 -14 -17 -12 0 -14 89 -14 628 -1 345 -3 764 -5 932
-2 168 -6 600 -8 960 -3 360 -5 656 -6 658 -1 1 -8 2 -17 2 -15 0 -16 -38 -9
-422 8 -428 13 -2362 7 -2626 -3 -141 -3 -143 -25 -140 l-22 3 -2 425 c-1 400
-8 935 -18 1450 -14 751 -17 1313 -6 1319 6 4 49 7 96 7 79 -1 84 -2 90 -24z
m-2764 -138 c21 -24 22 -26 3 -16 -25 13 -50 42 -37 42 5 0 20 -12 34 -26z
m794 -153 c-4 -15 -15 -21 -33 -21 l-27 1 29 25 c31 28 41 26 31 -5z m-520 -2
c10 -15 -1 -23 -20 -15 -9 3 -13 10 -10 16 8 13 22 13 30 -1z m85 -24 c-7 -8
-16 -15 -21 -15 -5 0 -9 7 -9 15 0 9 9 15 21 15 18 0 19 -2 9 -15z m-144 -43
c-22 -5 -30 3 -21 18 5 8 11 7 22 -2 15 -12 14 -13 -1 -16z m526 -2 c-19 -15
-28 -17 -43 -9 -28 15 -14 29 29 29 l37 -1 -23 -19z m-434 -6 c-9 -10 -24 -14
-33 -10 -23 9 -9 26 23 26 24 0 25 -1 10 -16z m362 -44 c0 -10 -26 -20 -51
-20 -21 0 -25 10 -8 27 11 11 59 6 59 -7z m-497 3 c3 -5 -6 -16 -19 -26 -23
-17 -24 -17 -24 1 0 10 3 22 7 25 9 9 31 9 36 0z m85 -2 c-1 -6 -43 -51 -92
-101 -59 -60 -93 -87 -99 -81 -7 7 1 23 23 48 76 86 136 142 153 143 10 0 17
-4 15 -9z m-571 -31 c32 -19 55 -51 51 -69 -2 -5 5 -16 16 -23 17 -14 17 -16
-9 -44 l-27 -29 6 33 c8 44 -6 66 -56 98 -31 20 -49 25 -74 21 -38 -6 -53 7
-27 22 29 17 85 13 120 -9z m395 -42 c-3 -13 -17 -39 -31 -58 -14 -19 -26 -37
-27 -38 -2 -2 -10 0 -19 6 -15 8 -12 15 26 60 49 56 60 63 51 30z m258 -2 c0
-2 -7 -9 -15 -16 -13 -11 -14 -10 -9 4 5 14 24 23 24 12z m-743 -53 c17 -15
16 -23 -2 -23 -13 0 -15 -7 -9 -35 6 -32 4 -36 -22 -48 -16 -6 -49 -24 -74
-39 -44 -26 -47 -27 -122 -16 -76 11 -77 10 -108 -16 -17 -14 -35 -26 -40 -26
-23 0 -15 21 25 64 39 43 47 47 74 41 19 -4 40 -1 60 9 16 9 43 16 59 16 16 0
37 9 47 20 17 19 17 19 -14 10 -29 -8 -28 -6 22 40 56 52 51 52 104 3z m73
-53 c0 -5 -2 -10 -4 -10 -3 0 -8 5 -11 10 -3 6 -1 10 4 10 6 0 11 -4 11 -10z
m358 -26 c12 -8 37 -15 55 -14 53 3 61 1 90 -24 23 -20 36 -24 75 -20 26 2 56
6 68 9 11 2 28 -1 36 -8 14 -11 39 -84 53 -154 l6 -32 -60 5 c-62 5 -89 -3
-126 -36 -32 -29 -117 -58 -184 -63 -60 -4 -91 6 -51 16 44 11 18 26 -45 24
-37 -1 -69 3 -76 10 -12 12 4 17 98 28 29 4 55 11 59 16 5 8 -18 14 -40 10 -5
-1 -44 -4 -85 -5 -57 -3 -85 1 -111 14 -19 9 -41 15 -48 12 -16 -5 -63 18 -57
28 6 9 97 -5 124 -19 26 -14 98 -14 106 0 4 6 12 8 19 6 14 -6 51 19 39 26 -5
3 -30 1 -56 -4 -43 -8 -56 -5 -113 21 -37 17 -63 34 -59 40 8 14 25 13 57 -4
37 -19 124 -30 133 -17 3 6 22 11 41 11 28 0 34 4 35 23 2 36 -2 51 -16 66
-12 13 -22 11 -70 -13 -60 -29 -85 -31 -93 -6 -3 8 -1 12 3 8 9 -9 87 30 98
48 11 19 67 18 95 -2z m1199 10 c-3 -3 -12 -4 -19 -1 -8 3 -5 6 6 6 11 1 17
-2 13 -5z m-808 -70 c11 -14 30 -45 42 -70 18 -39 20 -52 11 -87 l-10 -42 -1
46 c-1 49 -25 119 -40 119 -5 0 -16 14 -25 30 -18 37 -5 39 23 4z m-449 -17
c0 -20 -22 -37 -47 -37 -32 0 -29 26 5 38 37 14 42 14 42 -1z m-635 -36 c3 -6
-11 -36 -31 -68 -37 -58 -87 -137 -129 -203 -62 -96 -201 -323 -212 -343 -19
-36 -62 -79 -73 -72 -15 9 -12 58 7 96 9 19 35 68 58 109 23 41 60 109 82 150
79 147 85 155 96 126 3 -7 -31 -74 -75 -147 -169 -281 -188 -319 -158 -319 6
0 10 4 10 9 0 5 17 35 38 67 109 167 165 263 216 369 19 39 44 79 55 89 12 11
21 22 21 27 0 4 14 32 32 63 31 53 50 67 63 47z m260 -19 c-11 -10 -49 -50
-84 -90 l-64 -73 -14 28 c-8 15 -21 36 -30 45 -14 15 -9 20 60 52 41 20 81 36
89 36 7 0 22 7 32 15 26 20 36 8 11 -13z m-375 -22 c19 0 19 -1 -1 -35 -24
-41 -39 -45 -39 -11 0 14 -5 28 -10 31 -15 9 0 27 17 21 8 -3 23 -6 33 -6z
m1430 0 c0 -5 -5 -10 -11 -10 -5 0 -7 5 -4 10 3 6 8 10 11 10 2 0 4 -4 4 -10z
m-1270 -14 c0 -3 -4 -8 -10 -11 -5 -3 -10 -1 -10 4 0 6 5 11 10 11 6 0 10 -2
10 -4z m285 -56 c7 -11 -246 -270 -265 -270 -17 0 43 74 195 237 40 43 58 52
70 33z m-342 -54 c5 -15 7 -30 4 -33 -10 -10 -37 25 -37 47 0 29 22 20 33 -14z
m162 -221 c-142 -140 -260 -255 -262 -255 -10 0 103 129 181 205 50 50 138
138 194 198 71 74 109 107 125 107 17 0 -40 -61 -238 -255z m289 227 c6 -10
-129 -152 -144 -152 -5 0 -10 -5 -10 -12 0 -21 -284 -287 -295 -277 -7 7 65
85 210 229 121 121 223 219 227 220 4 0 9 -4 12 -8z m694 -20 c-32 -42 -57
-43 -28 -2 12 17 26 28 31 24 6 -3 5 -12 -3 -22z m-699 -77 c-34 -36 -66 -62
-72 -58 -5 3 19 34 54 69 34 35 66 61 71 58 5 -3 -19 -34 -53 -69z m-485 43
c10 -40 7 -90 -6 -86 -25 9 -34 108 -9 108 5 0 11 -10 15 -22z m146 14 c0 -4
-18 -26 -41 -47 -60 -59 -93 -119 -79 -144 7 -14 21 -21 40 -21 17 0 30 -4 30
-9 0 -4 -24 -31 -52 -58 -29 -28 -75 -76 -102 -107 -26 -32 -50 -55 -52 -53
-3 2 19 73 47 156 39 115 58 156 75 168 13 8 24 24 24 34 0 10 5 21 11 24 5 4
14 17 19 30 6 15 19 25 37 28 15 2 31 5 36 6 4 0 7 -3 7 -7z m1727 -74 c-3 -7
-5 -2 -5 12 0 14 2 19 5 13 2 -7 2 -19 0 -25z m-1947 -141 c-17 -45 -30 -83
-30 -84 -1 -2 -3 -8 -5 -15 -18 -47 -67 -197 -72 -218 -25 -120 -71 -226 -88
-208 -6 6 42 175 100 358 47 149 65 211 65 232 0 9 10 34 22 54 l22 38 8 -37
c6 -29 1 -54 -22 -120z m3808 131 c16 -16 16 -51 0 -46 -13 5 -31 58 -19 58 4
0 12 -5 19 -12z m-3385 -106 c-27 -26 -64 -59 -83 -74 -18 -15 -65 -57 -104
-95 -157 -149 -141 -127 39 53 105 104 191 183 193 176 2 -7 -18 -34 -45 -60z
m3465 2 c15 -6 15 -7 -3 -14 -33 -14 -45 -11 -45 10 0 19 3 19 48 4z m-3982
-84 c-7 -25 -15 -52 -19 -60 -4 -8 -18 -55 -32 -105 -21 -73 -69 -234 -91
-304 -2 -8 -7 -12 -9 -9 -7 7 18 111 66 279 21 76 39 146 39 156 0 18 48 98
55 91 2 -2 -2 -23 -9 -48z m3998 5 c3 -8 1 -15 -4 -15 -6 0 -10 7 -10 15 0 8
2 15 4 15 2 0 6 -7 10 -15z m-1170 -187 c-2 -4 -1 -9 4 -12 5 -3 7 -22 4 -43
-2 -21 -4 -91 -5 -155 l-1 -117 -33 1 -33 1 20 22 c19 20 20 23 4 29 -9 4 -19
4 -22 1 -3 -3 0 -5 6 -5 7 0 12 -4 12 -10 0 -5 -7 -10 -16 -10 -8 0 -12 -4 -9
-10 3 -5 0 -10 -7 -11 -10 0 -10 -2 0 -6 7 -2 12 -22 12 -44 0 -38 -1 -39 -27
-33 -37 9 -39 12 -25 34 24 39 -13 69 -62 51 -20 -8 -26 -17 -26 -40 0 -28 -1
-29 -30 -18 -28 11 -29 13 -26 64 1 29 5 53 7 54 2 0 15 -4 29 -9 14 -5 53
-12 88 -15 57 -6 62 -5 62 13 0 22 -37 36 -71 27 -12 -3 -32 -1 -46 4 -21 8
-23 12 -13 24 11 13 15 14 29 2 9 -8 31 -13 49 -12 18 2 46 -2 62 -8 23 -9 33
-8 42 1 19 19 -2 31 -73 44 -35 6 -68 15 -72 19 -12 9 3 35 80 137 36 48 68
94 71 102 4 9 9 -1 13 -25 4 -22 5 -43 3 -47z m486 58 c0 -20 -88 -109 -127
-128 -18 -9 -33 -13 -33 -10 0 12 137 152 149 152 6 0 11 -6 11 -14z m-2577
-33 c6 -3 2 -12 -8 -20 -11 -7 -14 -13 -8 -13 7 0 14 4 17 9 12 18 90 -1 119
-28 l28 -27 -22 -28 c-12 -15 -19 -30 -15 -33 3 -4 6 -1 6 5 0 7 5 12 11 12 6
0 8 -9 4 -22 -4 -15 -3 -19 3 -10 5 7 16 10 28 6 16 -6 16 -4 -3 13 -13 11
-23 23 -23 27 0 3 10 6 23 6 30 -1 71 -36 63 -55 -3 -9 -2 -13 4 -10 5 3 14
-4 20 -15 9 -16 8 -25 -1 -38 -8 -9 -9 -14 -5 -10 10 9 36 -9 36 -24 0 -7 -4
-7 -12 -1 -9 7 -20 3 -37 -14 l-24 -25 23 7 c19 6 22 4 16 -10 -5 -14 -4 -16
7 -7 8 7 16 11 18 9 2 -1 -2 4 -10 10 -17 15 -10 26 12 18 16 -7 30 -43 21
-57 -3 -4 -13 -8 -23 -8 -10 0 -21 -3 -24 -7 -13 -12 -110 -43 -119 -37 -17
11 14 35 36 28 20 -6 19 -5 -3 15 -13 11 -29 21 -35 20 -6 0 -6 -3 2 -6 6 -2
12 -9 12 -15 0 -6 -7 -8 -14 -5 -11 4 -13 1 -9 -11 5 -12 -5 -8 -33 12 -36 28
-37 28 -16 4 l23 -26 -33 2 c-18 2 -39 -2 -46 -8 -10 -7 -16 -6 -22 4 -5 9 -8
5 -7 -13 2 -26 2 -26 23 -6 16 15 23 16 32 7 9 -9 12 -9 12 0 0 7 5 12 11 12
6 0 8 -7 5 -17 -6 -15 -5 -15 13 1 19 17 47 14 36 -4 -3 -5 -41 -26 -83 -46
-42 -20 -79 -39 -82 -43 -3 -3 -18 -13 -35 -21 -16 -9 -34 -26 -40 -38 -5 -12
-14 -22 -20 -22 -5 -1 -18 -17 -28 -38 -15 -33 -15 -38 -2 -48 17 -13 21 -79
5 -89 -6 -4 -8 -15 -5 -25 14 -45 -37 -224 -58 -203 -4 3 -7 1 -7 -4 0 -6 5
-13 11 -15 8 -3 6 -14 -5 -36 -10 -19 -21 -30 -28 -26 -6 4 -8 3 -5 -4 11 -17
-3 -42 -34 -57 -37 -20 -41 -19 -35 8 3 12 3 16 0 10 -8 -17 -19 -16 -39 4
-13 13 -18 14 -25 3 -6 -10 -15 -6 -36 14 -16 14 -33 26 -38 26 -5 0 7 -13 25
-30 19 -16 41 -27 49 -25 8 3 22 0 30 -5 13 -8 12 -12 -4 -27 -18 -17 -18 -17
-13 0 9 25 -9 21 -31 -8 -21 -27 -34 -33 -26 -12 3 9 -4 13 -22 12 -15 0 -29
-6 -32 -12 -5 -18 -22 -16 -22 2 0 9 -11 20 -25 25 -14 5 -25 14 -25 20 0 7
-8 9 -20 5 -11 -4 -20 -2 -20 4 0 6 -7 11 -15 11 -8 0 -15 7 -15 15 0 8 -7 15
-15 15 -8 0 -15 5 -15 10 0 6 6 10 13 10 6 0 18 14 25 30 13 29 32 41 32 20 0
-5 -4 -10 -9 -10 -5 0 -12 -7 -15 -16 -3 -9 -2 -12 5 -9 5 4 16 1 24 -5 11 -9
15 -9 15 -1 0 6 -4 11 -10 11 -5 0 -10 5 -10 11 0 6 8 8 19 4 11 -3 22 -1 26
4 3 7 0 8 -9 5 -19 -7 -22 12 -3 20 6 3 2 3 -10 1 -12 -3 -24 -1 -28 5 -3 5
-1 10 5 10 6 0 8 4 5 10 -8 13 39 92 50 83 4 -5 5 -1 3 7 -3 8 3 29 12 45 10
17 23 50 30 75 17 67 31 100 44 100 6 0 23 -11 38 -25 17 -15 29 -21 33 -14 4
6 14 8 22 5 8 -3 11 -1 8 5 -4 5 -16 7 -27 3 -14 -4 -18 -3 -13 5 4 7 1 19 -6
27 -10 12 -14 12 -20 2 -7 -10 -11 -10 -21 0 -9 9 -9 12 1 12 7 0 9 4 6 10 -6
10 29 100 40 100 4 0 4 -8 1 -18 -4 -13 3 -25 25 -41 17 -12 33 -20 36 -17 4
3 1 6 -5 6 -7 0 -12 5 -12 11 0 6 7 8 16 5 14 -6 15 -4 4 9 -11 13 -15 13 -21
3 -7 -10 -12 -9 -26 6 -17 17 -17 18 5 11 14 -4 22 -2 22 5 0 7 6 5 16 -4 14
-15 34 -22 34 -12 0 2 -17 16 -37 32 -21 15 -32 20 -24 11 11 -15 11 -17 -2
-17 -18 0 -41 26 -34 38 3 4 15 55 27 112 21 106 31 124 63 116 15 -4 16 -2 6
10 -9 11 -15 12 -25 3 -20 -16 -17 -3 3 21 10 11 23 20 30 20 7 0 20 17 28 37
9 21 23 45 33 55 29 29 43 48 36 48 -3 0 -1 6 5 14 13 15 54 29 45 15 -3 -5 2
-6 10 -3 8 3 12 12 9 19 -4 12 7 13 58 9 35 -3 67 -8 72 -11z m-587 -48 c-66
-65 -95 -74 -40 -12 21 23 43 47 49 54 5 7 18 12 29 13 14 0 3 -15 -38 -55z
m-56 12 c0 -2 -10 -12 -22 -23 l-23 -19 19 23 c18 21 26 27 26 19z m3304 -26
c16 -18 16 -21 -4 -57 -30 -55 -123 -140 -187 -171 -51 -25 -54 -29 -50 -58 2
-16 7 -37 11 -46 5 -11 1 -18 -13 -22 -28 -7 -41 11 -41 55 0 27 -5 41 -17 45
-9 4 -18 2 -21 -5 -4 -12 -32 -5 -32 9 0 16 71 29 91 16 24 -15 37 -1 21 23
-21 34 -14 57 18 68 44 16 120 71 120 87 0 8 7 15 15 15 8 0 24 14 37 30 26
35 29 36 52 11z m-339 -131 c3 -5 1 -10 -4 -10 -6 0 -11 5 -11 10 0 6 2 10 4
10 3 0 8 -4 11 -10z m44 -58 c8 -15 5 -18 -17 -17 -33 0 -48 17 -24 27 26 10
31 9 41 -10z m-906 -151 c15 -18 27 -36 27 -39 0 -4 14 -15 30 -24 17 -9 30
-24 30 -32 0 -66 -89 22 -135 134 -41 100 -45 128 -7 49 15 -31 39 -70 55 -88z
m1246 74 c0 -30 -4 -55 -9 -55 -4 0 -6 9 -3 20 4 14 0 20 -12 20 -12 0 -16 -6
-12 -20 4 -16 0 -20 -18 -20 -20 0 -35 17 -35 40 0 5 17 19 38 31 20 13 39 27
40 31 8 18 11 5 11 -47z m-368 -47 c1 -13 1 -28 0 -34 -3 -30 53 -52 85 -32 6
4 17 -12 27 -38 9 -24 15 -44 13 -44 -2 0 -17 7 -32 15 -16 8 -42 15 -57 15
-23 0 -31 -7 -43 -35 -8 -20 -13 -39 -10 -43 3 -5 1 -14 -5 -22 -6 -10 -9 2
-10 40 -2 79 2 184 8 193 9 15 23 6 24 -15z m149 -50 c0 -10 -7 -18 -16 -18
-13 0 -14 3 -5 14 6 7 9 22 5 32 -5 16 -4 16 5 4 6 -8 11 -23 11 -32z m220 -1
c0 -19 -40 -59 -40 -40 0 5 -3 18 -6 30 -4 15 -1 22 13 26 32 8 33 7 33 -16z
m-173 -19 c-3 -7 -5 -2 -5 12 0 14 2 19 5 13 2 -7 2 -19 0 -25z m83 -13 c0
-14 12 -20 34 -16 4 1 18 -5 30 -13 19 -12 22 -24 24 -86 2 -40 3 -75 4 -79 0
-3 0 -21 -1 -40 -1 -25 -5 -32 -16 -28 -8 4 -17 2 -21 -4 -7 -12 15 -41 27
-33 5 3 9 -5 9 -17 0 -21 -1 -21 -20 4 -31 40 -60 38 -100 -5 -39 -43 -65 -51
-54 -15 15 46 21 86 15 93 -3 4 2 4 12 1 9 -4 17 -2 17 4 0 6 4 8 8 5 5 -3 21
4 38 15 16 11 39 24 52 29 26 11 28 25 5 39 -17 10 -17 10 0 11 19 0 23 25 6
36 -6 3 -9 15 -6 25 5 20 -17 44 -32 35 -5 -4 -12 -2 -16 4 -3 5 -22 10 -41
10 -37 0 -37 0 -28 24 8 21 54 21 54 1z m-3364 -29 c29 -29 34 -41 34 -79 0
-51 -19 -78 -50 -70 -14 4 -20 0 -20 -11 0 -9 3 -16 8 -17 4 0 18 -2 30 -3 13
-2 33 5 45 15 19 15 22 28 22 86 0 62 2 68 21 71 12 2 35 -8 52 -23 53 -44 52
-144 -1 -164 -13 -5 -30 -24 -37 -43 -18 -44 -39 -68 -62 -68 -39 0 -98 25
-109 47 -7 13 -16 23 -20 23 -4 0 -16 16 -28 35 -18 31 -23 34 -41 25 -30 -16
-27 -58 5 -66 43 -11 30 -34 -19 -34 -40 0 -47 4 -66 35 -18 28 -25 33 -36 24
-11 -9 -9 -17 12 -44 32 -42 15 -50 -43 -21 -26 12 -43 27 -43 37 0 10 -7 25
-16 33 -21 22 -54 4 -54 -29 0 -36 -28 -31 -38 7 -10 38 -32 50 -32 17 0 -18
-3 -20 -12 -11 -10 10 -9 18 5 41 9 15 13 32 9 36 -4 5 1 5 10 2 12 -4 26 3
43 21 14 15 25 30 25 34 0 4 14 14 30 23 33 17 70 7 70 -20 0 -8 7 -15 15 -15
10 0 15 10 15 33 1 76 47 105 169 106 70 1 74 0 107 -33z m3234 14 c0 -5 -4
-10 -10 -10 -5 0 -10 5 -10 10 0 6 5 10 10 10 6 0 10 -4 10 -10z m-446 -52
c-7 -77 -12 -103 -25 -133 -7 -16 -11 -37 -10 -46 4 -35 -74 -208 -135 -299
-76 -113 -101 -146 -107 -140 -2 3 -20 27 -40 54 -34 45 -36 50 -19 62 16 13
16 15 0 28 -22 16 -23 30 -2 22 8 -3 13 -2 11 2 -3 4 23 42 57 84 33 42 70 94
80 115 11 21 29 52 41 68 12 17 33 51 48 78 16 26 31 47 35 47 4 0 18 23 31
50 14 28 28 50 32 50 3 0 5 -19 3 -42z m-97 20 c13 -22 13 -42 0 -29 -16 16
-46 14 -64 -4 -8 -9 -18 -13 -21 -10 -8 7 48 54 65 55 6 0 15 -6 20 -12z m633
-24 c0 -8 -4 -12 -10 -9 -5 3 -10 13 -10 21 0 8 5 12 10 9 6 -3 10 -13 10 -21z
m-151 -13 c23 -7 38 -8 46 -1 9 8 14 6 19 -5 4 -11 13 -14 26 -10 14 4 22 1
27 -11 4 -10 2 -19 -5 -22 -7 -2 -10 -8 -6 -13 3 -5 -4 -43 -16 -85 -22 -81
-28 -113 -37 -181 -3 -24 -8 -43 -12 -43 -4 0 -18 11 -31 25 -28 30 -50 21
-70 -29 -7 -20 -17 -36 -21 -36 -12 0 -39 67 -39 98 0 25 3 29 19 25 13 -3 17
-11 14 -24 -3 -11 0 -19 6 -19 15 0 41 61 41 94 0 34 14 40 49 21 37 -19 41
-19 41 -1 0 12 -66 46 -89 46 -5 0 -14 -12 -19 -27 -9 -24 -11 -25 -11 -7 -1
26 19 86 28 82 3 -2 27 -14 54 -28 33 -17 50 -21 58 -13 14 14 -94 75 -124 71
-23 -3 -45 -60 -51 -131 -4 -53 -16 -59 -17 -9 -3 125 -2 142 6 143 6 0 19 14
29 31 l20 31 8 -24 c8 -22 10 -22 19 -6 8 14 18 16 51 11 55 -9 48 13 -11 33
-33 11 -46 12 -57 2 -11 -9 -14 -8 -14 8 0 25 10 35 24 24 6 -4 26 -13 45 -20z
m-2289 -22 c11 -6 8 -8 -11 -9 -15 0 -43 -7 -63 -15 -20 -8 -61 -17 -91 -19
-30 -3 -59 -7 -65 -11 -6 -4 -10 6 -10 23 l0 29 93 10 c92 10 119 8 147 -8z
m1667 15 c-7 -8 46 -54 62 -54 6 0 16 11 21 25 10 26 14 28 43 16 17 -6 16
-11 -15 -52 -19 -25 -40 -54 -46 -64 -10 -19 -11 -19 -21 5 -19 47 -37 61 -65
54 -26 -6 -27 -5 -20 22 8 33 22 54 37 54 6 0 8 -3 4 -6z m802 -40 c-14 -18
-24 -11 -15 11 3 9 11 13 16 10 8 -5 7 -11 -1 -21z m-3117 -31 c-10 -28 -10
-28 -11 12 -1 28 2 36 10 28 8 -8 8 -19 1 -40z m786 21 c59 -33 62 -36 32 -32
-25 4 -120 46 -120 54 0 12 47 1 88 -22z m2758 -51 c-6 -7 -86 58 -86 69 0 5
20 -7 45 -28 25 -20 43 -39 41 -41z m64 57 c0 -9 -31 -23 -37 -16 -3 3 1 11 8
19 14 15 29 13 29 -3z m170 -22 c0 -11 -8 -18 -20 -18 -11 0 -20 5 -20 10 0
15 -46 12 -59 -4 -19 -22 -100 -41 -114 -27 -7 7 -7 12 -2 11 23 -5 35 1 35
18 0 12 3 13 8 5 6 -10 16 -9 45 6 48 24 127 24 127 -1z m-3041 -34 c28 -16
51 -33 51 -38 0 -5 6 -3 14 3 9 8 21 8 45 0 30 -11 31 -11 15 -37 -25 -42 -62
-66 -79 -52 -8 7 -12 16 -9 21 3 5 -3 6 -12 2 -12 -4 -15 -3 -10 5 4 7 2 12
-5 12 -7 0 -5 9 6 27 16 23 16 25 1 20 -9 -4 -16 -3 -16 2 0 16 -39 19 -51 5
-7 -8 -9 -17 -5 -21 3 -3 6 -1 6 5 0 7 4 12 8 12 4 0 7 -16 7 -35 -1 -31 1
-35 19 -30 16 5 18 4 6 -4 -8 -5 -18 -8 -21 -8 -10 3 -49 -34 -71 -68 -17 -26
-16 -25 11 5 37 43 40 37 6 -11 -14 -19 -33 -35 -43 -36 -24 -3 -42 -7 -84
-22 -21 -7 -43 -9 -49 -5 -8 4 -9 3 -5 -4 4 -7 1 -12 -8 -12 -9 0 -16 -4 -16
-10 0 -13 -47 -13 -54 -1 -4 5 0 12 6 14 9 4 10 6 1 6 -6 1 -15 -3 -18 -9 -21
-34 -29 15 -8 55 6 11 8 25 6 32 -2 6 0 14 6 17 6 4 8 13 5 21 -3 7 -1 23 6
34 6 12 7 21 2 21 -4 0 -8 15 -8 34 0 31 4 35 36 44 19 5 49 10 65 11 50 3 70
6 75 11 15 16 59 26 86 20 17 -4 54 -20 83 -36z m2421 31 c-7 -8 -20 -15 -29
-15 -11 1 -8 5 9 15 32 18 35 18 20 0z m-3050 -15 c0 -5 -4 -10 -10 -10 -5 0
-10 5 -10 10 0 6 5 10 10 10 6 0 10 -4 10 -10z m3433 -60 c15 0 27 -4 27 -9 0
-15 -23 -19 -42 -7 -23 14 -37 -2 -15 -19 16 -11 15 -14 -17 -39 -19 -14 -39
-26 -45 -26 -7 0 -11 32 -11 87 l0 87 38 -37 c25 -24 47 -37 65 -37z m-4315 8
l-11 -31 -13 24 c-14 27 -2 51 21 43 10 -4 11 -12 3 -36z m2642 24 c0 -10 -36
-9 -46 1 -4 4 5 7 19 7 15 0 27 -4 27 -8z m461 -8 c10 -13 10 -17 -2 -24 -11
-7 -11 -12 -1 -22 6 -6 12 -18 12 -26 0 -11 -3 -11 -15 2 -8 8 -15 22 -15 31
0 13 -7 16 -30 13 -37 -6 -38 2 -2 24 35 21 37 21 53 2z m-210 -37 c-24 -24
-40 -16 -21 10 8 10 2 6 -13 -8 -23 -20 -26 -30 -19 -49 6 -15 11 -19 16 -12
4 7 12 12 18 12 6 0 5 -7 -3 -17 -11 -15 -9 -14 9 1 24 21 42 15 23 -8 -15
-18 -71 -27 -64 -10 2 7 -1 15 -6 19 -6 3 -8 12 -5 18 4 7 -5 1 -21 -13 -27
-24 -27 -24 -14 -2 12 19 12 24 1 31 -11 6 -7 13 16 29 16 12 31 19 34 16 3
-2 11 2 18 11 9 11 17 12 32 4 20 -11 20 -11 -1 -32z m-1121 8 c0 7 53 -27 62
-40 5 -6 8 -5 8 3 0 22 35 -7 37 -31 4 -54 9 -75 16 -70 4 2 7 -1 7 -7 0 -15
26 -41 34 -33 3 4 6 -1 6 -11 0 -9 4 -14 10 -11 5 3 17 2 26 -3 25 -14 0 -24
-41 -16 -22 4 -32 10 -28 18 3 6 -3 3 -14 -7 -18 -16 -22 -16 -33 -2 -10 12
-10 18 0 30 7 9 10 18 6 22 -3 3 -6 1 -6 -5 0 -7 -5 -12 -11 -12 -6 0 -9 7 -6
14 4 11 1 13 -10 9 -12 -5 -15 -2 -10 10 4 11 2 14 -7 11 -7 -3 -18 1 -24 9
-9 11 -8 19 8 37 27 31 25 38 -3 12 -24 -23 -43 -30 -32 -12 3 6 -1 7 -9 4
-24 -9 -19 10 9 36 14 13 23 26 20 28 -3 3 -14 -7 -26 -21 -19 -25 -48 -39
-34 -17 3 6 -3 10 -15 10 -18 0 -20 5 -16 33 2 17 5 33 5 34 1 1 17 -5 36 -13
19 -8 35 -12 35 -9z m2763 18 c-7 -2 -19 -2 -25 0 -7 3 -2 5 12 5 14 0 19 -2
13 -5z m-1897 -69 c16 -10 17 -13 5 -28 -12 -14 -17 -15 -35 -3 -19 13 -23 12
-39 -9 -18 -25 -15 -45 6 -43 9 0 9 2 0 6 -7 2 -13 9 -13 15 0 6 8 7 17 4 9
-4 20 -1 25 6 6 10 10 10 16 1 6 -9 12 -7 22 7 19 27 28 25 60 -9 21 -21 26
-35 23 -55 -3 -14 -1 -26 4 -26 5 0 18 -7 29 -15 17 -14 15 -14 -14 0 -33 16
-56 12 -49 -8 2 -7 -3 -20 -11 -30 -13 -15 -14 -22 -4 -38 12 -18 11 -19 -8
-7 -18 11 -23 10 -36 -6 -10 -15 -14 -16 -14 -5 0 8 5 20 12 27 9 9 9 15 1 23
-8 8 -11 6 -10 -6 1 -10 -4 -20 -12 -23 -8 -3 -11 0 -7 6 4 6 -2 17 -14 24
-22 14 -28 33 -7 25 7 -3 13 5 14 21 0 14 -2 20 -6 13 -4 -6 -14 -10 -22 -8
-8 2 -11 2 -6 0 10 -6 9 -23 -1 -23 -12 0 -52 35 -52 45 0 4 7 4 16 1 14 -6
15 -4 4 9 -11 13 -15 13 -21 3 -8 -12 -13 -4 -10 14 0 4 -6 5 -14 2 -11 -5
-13 -2 -8 12 6 17 5 17 -10 5 -26 -21 -20 1 9 32 25 27 25 29 8 42 -16 11 -21
10 -34 -4 -18 -20 -51 -16 -43 5 7 20 -1 18 -22 -6 -18 -20 -18 -21 0 -14 15
6 17 4 12 -9 -3 -9 -2 -17 3 -17 6 0 10 -4 10 -10 0 -16 -15 -12 -40 10 -15
13 -31 18 -43 14 -16 -5 -19 -3 -13 12 7 17 6 17 -14 -1 -11 -10 -20 -23 -20
-29 0 -6 4 -4 10 4 5 8 12 11 16 7 4 -3 1 -13 -6 -22 -10 -12 -16 -13 -26 -4
-10 8 -14 8 -14 0 0 -11 12 -15 43 -12 21 3 22 -6 2 -25 -13 -14 -17 -14 -31
0 -8 9 -20 16 -26 16 -6 0 1 -9 15 -20 24 -19 57 -18 57 1 0 15 15 10 40 -11
25 -21 35 -26 26 -11 -10 15 6 42 21 37 8 -4 11 -1 7 5 -4 6 0 15 7 20 12 8
12 11 -1 18 -8 6 -11 13 -8 17 12 11 37 -22 28 -36 -6 -10 0 -19 21 -32 23
-14 29 -24 25 -41 -3 -12 -3 -16 0 -9 8 18 27 15 20 -4 -3 -8 -2 -13 3 -9 16
9 42 -7 37 -22 -3 -8 -1 -11 4 -8 5 3 19 1 30 -5 18 -10 19 -13 6 -25 -18 -18
-30 -19 -23 -2 3 7 -5 13 -19 13 -13 1 -24 -3 -24 -9 0 -6 3 -8 6 -4 3 3 20
-8 36 -24 17 -16 34 -27 37 -24 3 4 -1 10 -9 15 -8 5 -11 12 -7 16 4 4 15 0
25 -9 10 -10 21 -14 25 -11 3 3 16 -3 28 -15 l22 -20 -31 11 c-37 14 -51 5
-33 -23 16 -26 9 -34 -17 -20 -28 15 -42 14 -42 -3 0 -36 -79 -21 -161 30 -20
13 -40 20 -43 17 -3 -4 -6 0 -6 7 0 7 -3 10 -6 7 -12 -11 -43 13 -38 28 4 8 1
15 -5 15 -6 0 -11 -5 -11 -11 0 -6 -17 1 -37 17 -20 15 -33 22 -29 16 9 -15
-24 -3 -42 15 -7 7 -19 13 -27 13 -7 0 -16 8 -19 17 -5 13 -9 14 -15 5 -5 -9
-26 -3 -77 22 -81 39 -126 82 -119 114 7 37 13 40 62 30 27 -6 60 -11 76 -12
15 -2 30 -6 35 -11 4 -4 -1 -5 -10 -2 -10 3 -22 -1 -30 -11 -12 -15 -11 -16 4
-4 12 9 18 10 23 2 5 -8 12 -4 22 10 11 16 18 18 28 10 10 -8 15 -8 20 0 4 6
12 9 18 7 7 -2 21 -1 33 4 37 13 47 -5 19 -36 -20 -25 -22 -31 -10 -38 18 -9
35 -1 34 16 0 9 -2 9 -6 0 -5 -14 -23 -18 -23 -5 1 4 11 20 24 35 20 25 31 29
82 32 32 1 59 4 59 5 0 1 24 4 54 6 29 2 67 12 85 22 l31 19 31 -26 c17 -14
39 -31 50 -37z m284 41 c-7 -9 -15 -13 -18 -10 -3 2 1 11 8 20 7 9 15 13 18
10 3 -2 -1 -11 -8 -20z m40 15 c0 -5 -5 -10 -11 -10 -5 0 -7 5 -4 10 3 6 8 10
11 10 2 0 4 -4 4 -10z m-2236 -49 c-18 -46 -29 -51 -38 -18 -4 16 1 28 21 44
15 12 29 21 31 19 1 -2 -5 -22 -14 -45z m2029 -2 c-19 -20 -43 -19 -43 1 0 7
18 13 55 19 5 0 0 -9 -12 -20z m313 -23 c8 -34 7 -48 -4 -63 -12 -17 -14 -17
-31 5 -10 13 -29 25 -43 25 -24 2 -24 3 -10 25 13 20 56 50 72 52 3 0 10 -20
16 -44z m-125 7 c-6 -10 -21 -31 -35 -48 -21 -24 -24 -26 -18 -8 7 22 47 73
57 73 3 0 1 -8 -4 -17z m-461 0 c0 -17 -18 -35 -29 -29 -8 5 -7 11 2 21 13 16
27 19 27 8z m2080 -14 c6 -11 20 -23 32 -28 18 -6 18 -8 4 -20 -13 -11 -16
-11 -16 2 0 18 -42 47 -67 47 -21 -1 -95 -54 -87 -63 3 -3 1 -8 -4 -11 -6 -3
-12 0 -15 8 -3 8 12 25 41 43 76 49 96 53 112 22z m-625 -18 c8 -16 23 -32 34
-36 11 -3 22 -12 25 -20 4 -12 1 -12 -22 -2 -15 6 -33 17 -40 24 -7 7 -16 13
-18 13 -10 0 -48 -23 -67 -41 -21 -20 -37 -17 -37 6 0 8 6 12 13 9 7 -2 28 7
47 21 19 14 30 25 26 25 -5 0 -3 7 4 15 16 20 17 20 35 -14z m453 18 c-2 -6
-7 -10 -11 -10 -4 1 -15 1 -24 1 -15 0 -16 2 -3 10 20 13 43 13 38 -1z m-4318
-8 c0 -6 -4 -12 -8 -15 -5 -3 -9 1 -9 9 0 8 4 15 9 15 4 0 8 -4 8 -9z m1617
-6 c8 -9 14 -18 12 -20 -5 -4 -48 -8 -74 -6 -19 2 -19 3 4 21 28 24 38 25 58
5z m1950 -7 c-3 -8 -6 -5 -6 6 -1 11 2 17 5 13 3 -3 4 -12 1 -19z m-1287 4 c0
-4 -6 -14 -12 -22 -11 -12 -10 -12 3 -2 9 7 24 10 33 6 18 -7 22 -24 6 -24 -5
0 -10 5 -10 12 0 6 -3 8 -6 5 -4 -4 -1 -13 6 -22 17 -21 -3 -19 -31 3 -14 12
-20 25 -16 35 6 17 27 24 27 9z m1964 -7 c-25 -19 -40 -19 -24 0 7 8 20 15 28
15 13 0 12 -3 -4 -15z m-3648 -22 c14 -24 -14 -77 -43 -81 -39 -6 -89 23 -102
59 -9 27 -9 31 1 21 17 -17 70 -15 94 3 25 19 37 19 50 -2z m3874 -30 c0 -8
-6 -13 -12 -10 -7 2 -12 9 -11 15 2 7 -4 9 -15 5 -15 -6 -15 -5 -3 10 10 13
17 15 27 6 8 -6 14 -18 14 -26z m-4238 17 c23 0 29 -4 26 -17 -5 -28 -33 -26
-64 2 -20 18 -23 25 -11 21 10 -3 32 -6 49 -6z m2695 -22 c-3 -8 -6 -5 -6 6
-1 11 2 17 5 13 3 -3 4 -12 1 -19z m1363 13 c0 -5 3 -16 6 -25 4 -12 0 -16
-15 -16 -23 0 -29 15 -8 23 6 3 2 6 -11 6 -13 1 -20 5 -17 11 8 13 45 13 45 1z
m-3967 -21 c-5 -19 -23 -29 -23 -12 0 7 20 32 26 32 1 0 0 -9 -3 -20z m1176
-6 c11 -26 11 -26 -16 -19 -15 5 -46 11 -68 15 -39 6 -36 13 10 23 47 11 62 7
74 -19z m187 10 c-3 -8 -2 -12 3 -9 5 3 12 1 15 -4 3 -5 -8 -11 -24 -13 -23
-4 -30 -1 -28 11 2 9 10 19 18 23 22 10 23 9 16 -8z m2164 1 c10 -12 9 -15 -7
-15 -10 0 -34 -15 -52 -34 -19 -19 -40 -32 -47 -29 -23 9 -16 21 21 39 20 9
40 25 46 35 12 23 22 24 39 4z m-2284 -22 c-10 -10 -19 5 -10 18 6 11 8 11 12
0 2 -7 1 -15 -2 -18z m2644 7 c0 -11 -7 -20 -15 -20 -13 0 -14 4 -5 20 6 11
13 20 15 20 3 0 5 -9 5 -20z m-1312 -15 c-10 -10 -49 -14 -66 -7 -12 5 -5 9
23 12 41 6 53 4 43 -5z m-2923 -5 c3 -5 1 -10 -4 -10 -6 0 -11 5 -11 10 0 6 2
10 4 10 3 0 8 -4 11 -10z m3942 2 c7 -4 10 -17 6 -30 -6 -23 -6 -23 -24 -3
-30 32 -18 56 18 33z m-248 -38 c6 4 11 0 11 -9 0 -10 -5 -15 -12 -12 -7 3
-20 8 -28 11 -11 4 -24 -4 -39 -24 -30 -41 -22 -62 11 -29 20 20 29 23 40 15
13 -10 14 -20 4 -69 -7 -32 -15 -58 -19 -57 -18 0 -47 27 -47 43 0 10 -7 28
-14 40 -14 20 -12 27 16 76 l31 53 17 -22 c10 -13 22 -20 29 -16z m244 -51
c11 4 17 1 17 -9 0 -11 -6 -13 -19 -9 -11 3 -22 1 -26 -4 -4 -7 1 -8 12 -4 14
5 15 3 6 -7 -16 -17 -30 -6 -38 30 -8 38 -46 41 -78 6 -26 -27 -63 -41 -72
-26 -3 5 -2 10 4 10 6 0 7 7 4 17 -4 10 -2 14 5 10 16 -11 59 13 78 41 l17 26
37 -44 c26 -30 42 -41 53 -37z m-53 67 c0 -5 -2 -10 -4 -10 -3 0 -8 5 -11 10
-3 6 -1 10 4 10 6 0 11 -4 11 -10z m-2278 -15 c91 -2 136 -7 159 -19 18 -9 53
-16 78 -16 25 -1 60 -7 76 -14 l30 -13 -40 -6 c-22 -4 -65 -9 -95 -12 -76 -8
-100 -15 -120 -35 -11 -11 -28 -16 -46 -14 -31 5 -130 15 -154 16 -8 1 -17 4
-20 7 -20 25 -65 40 -126 42 -74 2 -140 18 -143 34 -1 6 19 18 46 28 38 14 66
16 138 12 50 -4 147 -8 217 -10z m363 5 c3 -5 -1 -10 -10 -10 -9 0 -13 5 -10
10 3 6 8 10 10 10 2 0 7 -4 10 -10z m2290 -37 c-15 -44 -17 -44 -44 -24 l-24
18 21 21 c11 11 29 20 40 19 16 -1 17 -5 7 -34z m-3083 -25 c18 -21 36 -26
148 -36 63 -6 75 -10 72 -24 -1 -10 9 -25 24 -34 21 -14 30 -15 45 -6 15 10
19 9 19 0 0 -9 3 -9 12 0 15 15 32 16 22 1 -4 -8 0 -8 15 0 16 9 21 9 21 0 0
-9 3 -9 14 0 10 8 16 9 21 1 3 -6 10 -8 15 -5 5 3 21 0 36 -8 24 -13 16 -14
-87 -14 -99 0 -125 -4 -194 -28 -97 -34 -111 -36 -199 -40 -62 -3 -73 -1 -99
21 -16 13 -33 24 -38 24 -5 0 -9 5 -9 10 0 6 6 10 13 9 30 -4 47 2 47 16 0 15
-16 19 -52 16 -24 -3 -23 12 2 34 11 10 20 24 20 32 0 45 99 68 132 31z m912
11 c14 -7 23 -16 20 -21 -3 -4 -10 -5 -16 -2 -6 4 -24 7 -40 6 -28 -1 -29 0
-12 13 23 18 18 17 48 4z m1774 -27 c2 -7 -6 -12 -17 -12 -22 0 -27 -15 -12
-38 7 -12 11 -12 22 1 12 12 15 12 28 0 7 -8 21 -11 30 -8 28 11 33 10 38 -4
4 -9 0 -11 -13 -7 -23 7 -49 -8 -40 -23 10 -15 43 -14 49 2 3 7 6 6 6 -5 1
-23 -14 -31 -50 -23 -21 5 -29 11 -25 21 4 10 2 12 -6 8 -8 -5 -9 0 -5 15 4
17 3 20 -8 11 -8 -7 -21 -7 -39 0 -14 5 -26 6 -26 2 0 -5 -18 -18 -40 -31 -37
-21 -40 -21 -39 -4 1 26 17 62 19 43 2 -8 2 -18 2 -21 -3 -17 37 5 41 23 4 14
11 19 22 14 10 -3 14 -2 10 5 -8 12 24 51 39 46 5 -2 12 -9 14 -15z m-272 -89
c1 -7 -4 -13 -11 -13 -21 0 -32 22 -33 70 l-2 45 21 -45 c12 -25 23 -51 25
-57z m-731 77 c-3 -5 -11 -10 -16 -10 -6 0 -7 5 -4 10 3 6 11 10 16 10 6 0 7
-4 4 -10z m1625 -6 c0 -8 -5 -12 -10 -9 -6 4 -8 11 -5 16 9 14 15 11 15 -7z
m-3963 -26 c-3 -7 -5 -2 -5 12 0 14 2 19 5 13 2 -7 2 -19 0 -25z m2619 -10
c-6 -49 -45 -95 -69 -82 -13 8 -9 18 26 66 23 32 43 57 45 58 2 0 1 -19 -2
-42z m1329 -18 c19 0 19 -14 1 -29 -7 -6 -16 -34 -19 -62 -4 -28 -10 -56 -15
-63 -5 -6 -13 -33 -17 -60 -3 -27 -11 -56 -15 -65 -8 -14 -22 -69 -37 -144 -7
-38 -21 -43 -48 -17 -19 18 -27 20 -44 11 -12 -7 -21 -16 -21 -21 0 -19 -15
-9 -33 21 -15 27 -22 31 -47 26 l-29 -6 0 64 c1 48 4 62 14 59 7 -3 15 -14 18
-25 3 -10 18 -24 34 -31 69 -28 144 4 154 68 9 49 -6 81 -50 111 -45 30 -86
29 -125 -3 l-31 -27 -3 93 c-3 105 4 123 48 110 18 -5 37 -4 54 5 21 11 27 11
37 -1 19 -23 55 -16 90 16 l33 29 18 -29 c10 -17 25 -30 33 -30z m-2500 33
c-5 -15 -4 -16 6 -5 15 14 43 17 34 3 -3 -6 6 -6 23 -1 21 5 46 2 88 -12 33
-12 84 -22 114 -24 168 -8 158 -51 -13 -53 -60 0 -68 2 -63 16 5 13 4 14 -8 4
-8 -7 -36 -12 -63 -12 -26 1 -55 1 -63 0 -13 -1 -57 5 -115 16 -112 20 -177
24 -192 12 -19 -14 -16 8 3 27 18 19 38 21 28 4 -5 -8 -1 -7 10 2 10 8 37 15
59 17 23 1 65 7 92 12 28 5 54 9 59 10 4 0 5 -7 1 -16z m1239 -8 c-6 -16 -24
-21 -24 -7 0 11 11 22 21 22 5 0 6 -7 3 -15z m-1504 -25 c0 -5 -4 -10 -10 -10
-5 0 -10 5 -10 10 0 6 5 10 10 10 6 0 10 -4 10 -10z m1571 -13 c-10 -9 -11 -8
-5 6 3 10 9 15 12 12 3 -3 0 -11 -7 -18z m69 13 c0 -5 -2 -10 -4 -10 -3 0 -8
5 -11 10 -3 6 -1 10 4 10 6 0 11 -4 11 -10z m-410 -37 c17 -19 37 -47 43 -62
6 -14 21 -37 33 -51 12 -14 24 -36 26 -50 2 -20 8 -25 30 -23 23 1 29 -3 34
-25 11 -50 13 -54 34 -47 11 3 20 2 20 -4 0 -5 28 -31 63 -58 34 -26 68 -53
75 -60 7 -7 17 -13 22 -13 4 0 10 -10 13 -22 8 -28 -12 -60 -69 -113 -23 -22
-47 -49 -52 -60 -9 -19 -24 -89 -27 -130 -4 -52 -20 -105 -49 -158 l-31 -58
-105 2 c-150 2 -180 11 -122 36 15 7 47 32 70 54 37 38 42 47 42 88 -1 25 -4
64 -9 87 -4 22 -4 51 0 63 6 13 4 29 -3 41 -10 15 -9 23 7 40 23 25 10 55 -23
55 -24 0 -68 45 -127 129 -22 31 -61 77 -87 100 -50 45 -62 76 -29 76 25 0 16
47 -10 55 -19 6 -27 45 -9 45 6 0 10 -3 10 -7 0 -5 9 -19 19 -32 17 -23 20
-23 35 -9 9 9 13 24 10 32 -3 9 -1 16 5 16 6 0 11 8 11 18 0 13 2 14 9 3 10
-16 33 -11 37 10 5 26 13 64 13 64 1 0 14 1 30 2 23 2 37 -6 61 -34z m-252
-18 c-3 -3 -9 2 -12 12 -6 14 -5 15 5 6 7 -7 10 -15 7 -18z m507 15 c-3 -5
-11 -10 -16 -10 -6 0 -7 5 -4 10 3 6 11 10 16 10 6 0 7 -4 4 -10z m649 -15 c9
-14 23 -25 32 -25 8 0 17 -7 20 -15 5 -12 9 -12 29 1 26 17 41 5 31 -23 -5
-12 -9 -14 -18 -5 -9 9 -17 7 -33 -8 -21 -19 -23 -20 -36 -3 -12 14 -12 16 1
11 11 -4 16 0 16 12 0 14 -4 16 -18 9 -14 -8 -19 -5 -24 15 -8 33 -34 37 -64
9 -14 -13 -31 -21 -37 -18 -7 2 -13 0 -13 -4 0 -5 -7 -11 -15 -15 -8 -3 -15 0
-15 7 0 13 94 74 116 76 7 1 19 -10 28 -24z m-488 -2 c-1 -21 -39 -40 -44 -23
-2 5 -8 8 -13 4 -5 -3 -9 0 -9 6 0 7 6 10 14 7 8 -3 20 1 26 9 17 19 28 18 26
-3z m-1552 -18 c8 -9 17 -11 21 -6 6 10 78 2 83 -9 1 -4 13 -5 25 -3 13 3 29
-2 35 -10 10 -12 8 -15 -13 -20 -20 -3 -25 -1 -20 11 4 11 2 12 -7 4 -7 -5
-31 -9 -53 -7 -69 5 -160 17 -167 21 -4 2 -9 0 -13 -6 -8 -14 -55 -13 -55 1 0
8 -4 8 -15 -1 -8 -6 -18 -9 -23 -6 -5 3 -8 -5 -7 -17 3 -21 -4 -24 -61 -35
-74 -14 -150 -47 -158 -68 -3 -8 -1 -14 4 -14 6 0 10 -4 10 -9 0 -5 -24 -17
-52 -26 -29 -9 -63 -28 -76 -42 -12 -13 -28 -23 -35 -20 -6 2 -18 -2 -25 -10
-20 -20 -37 -16 -21 5 13 16 13 16 -5 2 -15 -12 -100 -40 -166 -54 -8 -2 -22
-6 -30 -9 -54 -22 -280 -28 -280 -7 0 5 11 21 24 37 19 22 26 25 38 15 18 -14
29 -6 21 16 -4 11 2 8 15 -6 13 -15 26 -21 34 -16 7 5 23 7 36 5 22 -2 30 13
12 24 -5 3 -10 12 -10 18 0 8 3 8 8 2 4 -5 17 -11 30 -13 23 -3 23 -3 6 23 -9
14 -25 30 -34 35 -12 7 -18 21 -17 44 1 27 4 32 16 26 48 -25 111 -36 111 -20
0 7 -10 21 -22 32 -23 20 -18 20 27 2 13 -5 17 0 14 22 -1 19 54 31 119 26 52
-3 95 1 168 18 55 13 105 28 112 33 17 14 162 22 162 10 0 -5 23 -9 50 -7 28
1 50 -2 50 -8 0 -5 7 -2 16 6 18 19 54 21 54 4 0 -8 6 -6 17 5 21 21 27 21 47
2z m1461 -4 c-3 -11 1 -25 9 -33 13 -13 11 -15 -17 -16 -20 0 -27 2 -18 7 8 5
11 13 7 19 -8 13 3 42 16 42 5 0 7 -9 3 -19z m-2325 -1 c0 -5 -5 -10 -11 -10
-5 0 -7 5 -4 10 3 6 8 10 11 10 2 0 4 -4 4 -10z m2670 6 c0 -8 -51 -13 -56 -5
-3 5 9 9 25 9 17 0 31 -2 31 -4z m-2990 -22 c0 -2 -9 -4 -21 -4 -11 0 -18 4
-14 10 5 8 35 3 35 -6z m1870 6 c0 -5 -5 -10 -11 -10 -5 0 -7 5 -4 10 3 6 8
10 11 10 2 0 4 -4 4 -10z m660 0 c0 -5 -7 -10 -16 -10 -8 0 -12 5 -9 10 3 6
10 10 16 10 5 0 9 -4 9 -10z m30 0 c0 -5 -5 -10 -11 -10 -5 0 -7 5 -4 10 3 6
8 10 11 10 2 0 4 -4 4 -10z m469 -22 c-16 -31 -28 -38 -66 -38 -34 0 -47 19
-15 22 9 0 22 2 27 3 6 2 16 3 23 4 6 0 12 7 12 15 0 13 20 27 28 20 2 -1 -2
-13 -9 -26z m-581 11 c-2 -6 -8 -10 -13 -10 -5 0 -11 4 -13 10 -2 6 4 11 13
11 9 0 15 -5 13 -11z m-691 -5 c-3 -3 -12 -4 -19 -1 -8 3 -5 6 6 6 11 1 17 -2
13 -5z m1440 -14 c-6 -25 45 -72 71 -64 14 5 14 3 -2 -10 -11 -9 -27 -16 -37
-16 -22 0 -43 26 -33 42 4 7 4 10 -1 6 -4 -4 -16 2 -26 14 -11 11 -19 17 -19
12 0 -12 -53 -44 -74 -44 -9 0 -16 7 -16 16 0 12 6 15 23 10 17 -4 35 3 63 24
46 35 58 37 51 10z m-591 -25 c3 -14 11 -22 16 -19 6 4 9 1 7 -5 -3 -7 -8 -12
-12 -12 -4 1 -16 1 -28 1 -13 0 -18 4 -13 13 6 9 5 9 -8 0 -8 -7 -18 -10 -21
-6 -11 11 -67 14 -67 3 0 -5 -7 -7 -16 -3 -8 3 -12 9 -7 14 8 8 72 21 106 20
9 0 17 4 17 10 0 20 20 8 26 -16z m-1026 1 c0 -3 -4 -8 -10 -11 -5 -3 -10 -1
-10 4 0 6 5 11 10 11 6 0 10 -2 10 -4z m-1280 -41 c0 -5 -5 -3 -10 5 -5 8 -10
20 -10 25 0 6 5 3 10 -5 5 -8 10 -19 10 -25z m1410 24 c0 -11 -78 -11 -105 1
-14 5 0 8 43 8 34 0 62 -4 62 -9z m-379 -16 c7 -7 -2 -12 -28 -16 -41 -7 -48
-8 -108 -24 -22 -6 -67 -14 -100 -18 -33 -3 -68 -9 -79 -12 -12 -3 -16 -1 -12
6 4 5 23 13 44 17 20 4 42 10 47 14 10 8 96 22 144 24 13 1 26 6 28 13 5 13
49 11 64 -4z m1645 -7 c15 -1 29 -6 31 -12 2 -6 -6 -10 -19 -8 -13 1 -31 3
-40 3 -12 1 -18 9 -18 24 0 16 2 19 9 8 5 -8 21 -14 37 -15z m361 5 c1 -14 -5
-18 -23 -17 -13 0 -24 2 -24 3 0 32 45 46 47 14z m-2262 -1 c-3 -5 -11 -10
-16 -10 -6 0 -7 5 -4 10 3 6 11 10 16 10 6 0 7 -4 4 -10z m965 0 c0 -5 -5 -10
-11 -10 -5 0 -7 5 -4 10 3 6 8 10 11 10 2 0 4 -4 4 -10z m693 -104 c1 -79 -1
-106 -10 -106 -7 0 -13 5 -13 11 0 5 -4 7 -10 4 -15 -9 -12 11 4 24 16 13 18
63 3 73 -7 4 -6 12 3 25 8 10 1 7 -14 -7 -22 -19 -28 -21 -23 -8 5 15 3 16
-12 6 -21 -13 -56 -3 -45 13 3 6 0 15 -7 20 -10 6 -2 9 23 9 20 0 44 3 52 6
13 5 15 2 9 -12 -7 -18 -6 -18 11 -1 10 10 16 24 13 31 -5 13 2 30 10 23 2 -2
4 -52 6 -111z m450 36 c-21 -5 -64 43 -50 57 8 8 19 1 38 -22 21 -24 24 -33
12 -35z m-2199 48 c-15 -12 -134 -38 -139 -30 -8 13 18 26 54 29 19 1 36 3 37
4 1 1 14 3 29 4 15 0 23 -2 19 -7z m2666 -5 c15 -19 16 -63 2 -77 -8 -8 -18
-8 -37 0 -31 14 -39 33 -31 67 7 29 46 35 66 10z m-3444 -22 c-10 -10 -19 5
-10 18 6 11 8 11 12 0 2 -7 1 -15 -2 -18z m2319 17 c3 -5 1 -10 -4 -10 -6 0
-11 5 -11 10 0 6 2 10 4 10 3 0 8 -4 11 -10z m1199 -33 c5 -21 1 -33 -19 -53
-30 -30 -48 -25 -21 5 10 11 18 36 19 55 1 40 11 36 21 -7z m-2139 17 c20 -13
27 -14 52 -1 17 9 37 11 53 6 14 -4 44 -7 68 -8 25 -1 50 -8 59 -17 15 -14 18
-13 39 13 24 29 31 26 14 -7 -13 -25 8 -39 25 -17 15 21 29 22 22 2 -8 -19 10
-29 55 -31 30 -2 39 2 44 19 l7 22 10 -23 c6 -13 16 -21 24 -18 8 3 27 -4 44
-16 29 -22 119 -130 119 -143 0 -13 73 -90 92 -97 16 -6 17 -11 8 -28 -8 -16
-8 -25 0 -35 8 -10 7 -22 -4 -49 -8 -20 -11 -34 -7 -31 9 5 21 -27 21 -55 0
-16 -266 -18 -1255 -6 -259 3 -539 6 -623 6 -134 0 -152 2 -139 15 8 8 37 18
63 22 36 6 50 13 52 27 4 17 -1 18 -39 12 -24 -4 -56 -15 -70 -26 -15 -10 -40
-22 -55 -26 -16 -4 -34 -11 -40 -15 -6 -5 -54 -9 -107 -8 l-96 1 -10 28 c-8
25 -5 159 5 169 4 5 32 7 164 16 119 7 125 8 144 24 13 11 31 10 103 -2 54
-10 119 -14 168 -11 102 7 93 7 140 -1 22 -3 51 -8 65 -10 14 -2 39 -9 55 -15
17 -7 64 -16 105 -21 87 -9 106 -13 180 -34 30 -8 65 -15 79 -15 14 0 54 -7
90 -16 49 -13 69 -14 82 -5 10 6 20 7 23 2 6 -9 28 -8 68 3 19 6 28 16 32 39
6 31 8 32 52 30 26 -1 54 -5 63 -9 9 -4 27 -8 41 -9 55 -4 56 -5 37 -16 -9 -6
-25 -9 -35 -8 -9 1 -39 1 -65 0 -40 -1 -48 -4 -45 -18 2 -9 16 -20 32 -24 41
-11 256 -18 261 -8 6 8 77 0 85 -10 3 -3 14 -7 25 -8 11 -2 33 -5 49 -7 16 -2
43 2 60 9 17 7 44 15 60 19 27 7 28 6 16 -9 -25 -30 3 -36 113 -27 25 3 21 37
-7 55 -38 25 -70 30 -130 17 -41 -8 -56 -16 -56 -28 0 -11 -3 -13 -8 -6 -4 6
-34 15 -67 19 -61 7 -165 36 -220 60 -59 27 -85 34 -132 40 -27 3 -60 11 -75
17 -15 5 -53 7 -85 4 -32 -3 -61 -5 -65 -6 -20 -1 -5 -27 22 -37 72 -27 3 -70
-84 -51 -28 6 -60 15 -71 21 -11 6 -40 14 -65 17 -32 4 -44 10 -42 20 10 46
-39 91 -79 70 -20 -11 -26 -39 -9 -41 6 -1 16 -2 23 -3 6 0 12 -8 12 -16 0 -8
-7 -13 -15 -11 -66 16 -98 22 -143 25 -29 2 -72 9 -97 16 -76 21 -91 22 -245
24 -154 2 -255 13 -255 26 0 12 118 48 170 52 25 2 51 7 58 12 21 13 81 -3 92
-24 15 -28 47 -34 87 -15 25 12 47 15 79 10 36 -5 44 -3 44 9 0 32 -58 41
-131 22 -21 -6 -32 -1 -58 24 -17 17 -31 33 -31 35 0 1 24 11 53 21 36 12 87
18 162 20 61 1 135 7 165 13 55 11 89 16 185 26 28 2 79 11 115 19 90 20 194
20 225 0z m998 6 c6 0 0 -11 -13 -25 -21 -22 -26 -24 -39 -11 -12 13 -12 18
-1 31 7 9 20 13 27 10 8 -3 20 -5 26 -5z m491 1 c3 -5 -1 -12 -10 -15 -20 -8
-29 -1 -19 13 8 13 22 14 29 2z m263 -30 c0 -25 -2 -27 -14 -15 -8 8 -33 14
-55 14 -53 0 -44 10 10 12 23 1 42 5 42 10 0 4 4 8 8 8 5 0 9 -13 9 -29z
m-3124 -12 c3 -12 0 -22 -9 -26 -20 -8 -27 2 -19 26 8 27 21 27 28 0z m2784
15 c-3 -3 -12 -4 -19 -1 -8 3 -5 6 6 6 11 1 17 -2 13 -5z m-407 -8 c0 -3 -4
-8 -10 -11 -5 -3 -10 -1 -10 4 0 6 5 11 10 11 6 0 10 -2 10 -4z m526 -21 c4
-9 19 -15 38 -15 l31 -1 -39 -14 c-21 -7 -50 -25 -65 -39 -33 -32 -81 -51 -81
-33 0 18 29 56 30 39 0 -23 45 -9 48 15 3 18 -1 21 -22 19 -18 -2 -26 2 -26
11 0 9 6 13 14 10 8 -3 22 1 33 8 23 18 32 18 39 0z m-142 -14 c3 -4 -6 -6
-19 -3 -14 2 -25 6 -25 8 0 8 39 4 44 -5z m311 -12 c4 -5 -1 -12 -10 -15 -20
-8 -1 -34 26 -34 14 0 19 7 19 25 0 14 4 25 8 25 5 0 8 -19 8 -42 -1 -57 -23
-60 -68 -9 -20 21 -44 43 -54 49 -13 7 -8 10 24 10 23 0 44 -4 47 -9z m-665
-9 c0 -5 8 -6 18 -3 15 6 15 5 4 -10 -12 -14 -16 -14 -28 -2 -16 16 -18 25 -4
25 6 0 10 -4 10 -10z m337 -63 c-8 -18 -17 -39 -20 -47 -3 -8 -6 8 -6 37 -1
41 2 52 17 55 24 5 26 -7 9 -45z m245 15 c-1 -8 1 -11 6 -8 5 3 26 -12 47 -34
32 -33 36 -42 25 -55 -17 -20 -28 -19 -74 6 -27 14 -49 19 -70 15 l-31 -6 22
22 c20 20 24 20 40 6 27 -24 91 -51 102 -43 19 11 12 24 -21 41 -18 9 -43 25
-54 36 -25 22 -63 17 -90 -13 -9 -10 -24 -19 -33 -19 -10 0 -8 5 9 17 14 9 27
19 30 22 26 29 98 39 92 13z m388 -98 c8 -14 23 -30 34 -36 16 -9 23 -6 37 11
17 21 18 21 48 3 40 -24 28 -47 -16 -30 -28 11 -34 10 -50 -11 l-18 -23 -33
31 c-17 17 -38 31 -45 31 -11 0 -15 26 -8 48 1 1 9 2 19 2 10 0 25 -12 32 -26z
m-525 -5 c-46 -21 -95 -25 -95 -6 0 9 12 11 39 9 22 -2 48 1 58 7 10 6 23 10
28 10 6 0 -8 -9 -30 -20z m-2840 -2 c57 -4 35 -21 -31 -24 -50 -2 -64 0 -58 9
6 10 5 10 -7 1 -20 -16 -89 -28 -89 -15 0 39 10 40 185 29z m3110 -6 c3 -5 1
-12 -5 -16 -5 -3 -10 1 -10 9 0 18 6 21 15 7z m-141 -27 c46 -16 46 -17 31
-38 -8 -11 -28 -39 -43 -62 -23 -34 -30 -39 -40 -27 -7 7 -18 11 -23 7 -12 -7
-51 25 -44 37 3 4 0 11 -6 15 -8 5 -9 3 -4 -6 5 -7 -3 -5 -17 5 -13 11 -25 25
-25 32 0 15 32 27 47 18 5 -3 10 0 10 9 0 29 46 33 114 10z m130 -10 c38 -15
6 -25 -42 -15 -2 1 0 6 3 11 7 12 17 12 39 4z m248 -23 c38 -30 79 -37 94 -17
8 12 19 16 33 11 20 -6 20 -8 6 -35 -18 -35 -35 -47 -45 -31 -5 8 -19 10 -44
6 -25 -5 -36 -4 -36 5 0 17 -23 37 -38 32 -7 -2 -12 6 -12 22 0 31 9 32 42 7z
m-608 3 c25 -9 19 -31 -9 -36 -29 -6 -38 3 -29 26 7 17 14 19 38 10z m-236
-137 l-3 -82 -64 -3 c-59 -2 -63 -1 -50 15 10 12 10 15 1 9 -12 -7 -12 6 4 66
3 9 28 42 57 73 51 56 52 57 55 30 2 -14 2 -63 0 -108z m605 62 c0 -19 -1 -60
-2 -92 l-1 -57 -119 2 c-74 2 -117 7 -114 13 2 6 21 24 42 40 21 17 57 58 80
92 l42 62 37 -13 c33 -12 37 -16 35 -47z m231 0 c12 -17 21 -20 46 -15 17 3
40 1 51 -4 16 -9 17 -14 6 -33 -6 -12 -18 -30 -26 -39 -7 -10 -11 -24 -8 -32
4 -11 -6 -15 -41 -18 -26 -3 -52 -3 -58 -1 -6 2 -9 25 -8 56 2 29 3 64 3 80 1
32 14 35 35 6z m-543 -9 c28 -16 23 -30 -6 -17 -14 7 -25 15 -25 20 0 10 8 9
31 -3z m-57 -12 c-3 -4 -14 -8 -25 -8 -11 0 -18 4 -15 8 2 4 14 8 25 8 11 0
17 -4 15 -8z m-14 -82 c0 -8 -7 -19 -15 -26 -13 -11 -15 -9 -11 11 3 13 5 28
5 32 1 13 21 -3 21 -17z m57 -32 c-3 -3 -12 -4 -19 -1 -8 3 -5 6 6 6 11 1 17
-2 13 -5z m-1364 -45 c363 0 665 -3 673 -6 8 -3 14 -14 14 -24 0 -19 -26 -19
-1180 -17 -649 1 -1180 3 -1180 5 0 2 12 15 27 29 l27 25 480 -6 c265 -3 777
-5 1139 -6z M2765 6850 c-11 -17 6 -32 31 -27 13 2 21 0 18 -4 -3 -5 13 -9 36
-9 52 0 45 13 -19 34 -59 19 -58 19 -66 6z M2965 6780 c-3 -6 1 -13 10 -16 19
-8 30 0 20 15 -8 14 -22 14 -30 1z M2443 6633 c-14 -5 -18 -33 -4 -33 19 0 71
23 71 31 0 9 -46 11 -67 2z M2486 6593 c-11 -11 -6 -23 9 -23 8 0 15 4 15 9 0
13 -16 22 -24 14z M2790 6137 c0 -12 27 -34 58 -47 12 -5 22 -16 22 -25 0 -21
-10 -19 -37 7 -44 41 -37 -7 8 -55 15 -17 21 -18 34 -7 8 7 15 18 15 25 0 7
11 23 24 36 20 19 22 27 14 44 -6 11 -16 23 -21 27 -16 10 -117 6 -117 -5z
M3430 5810 c0 -5 5 -10 11 -10 5 0 7 5 4 10 -3 6 -8 10 -11 10 -2 0 -4 -4 -4
-10z M2226 5718 c-2 -7 -9 -29 -16 -48 -19 -52 -24 -127 -10 -161 12 -29 39
-36 31 -8 -13 48 -12 108 3 137 18 35 22 92 6 92 -6 0 -12 -6 -14 -12z M2080
5275 c-17 -20 -6 -45 20 -45 17 0 21 5 18 27 -4 31 -20 40 -38 18z M2310 5176
c0 -8 -6 -16 -12 -19 -7 -3 3 -4 22 -3 24 1 36 6 38 19 3 13 -3 17 -22 17 -16
0 -26 -6 -26 -14z M2027 5163 c-16 -15 -6 -34 15 -31 29 4 38 38 10 38 -10 0
-22 -3 -25 -7z M1983 5024 c-3 -8 -1 -20 4 -25 12 -12 48 14 39 29 -10 17 -36
15 -43 -4z M1347 4453 c-15 -14 -6 -23 23 -23 20 0 30 5 30 15 0 15 -40 21
-53 8z M1358 3233 c-11 -14 -11 -15 0 -9 9 5 25 0 44 -14 16 -12 32 -19 35
-16 4 3 1 6 -6 6 -8 0 -10 8 -7 23 3 12 3 16 0 10 -7 -17 -19 -16 -37 2 -13
13 -17 12 -29 -2z M1330 3201 c0 -8 -6 -11 -17 -7 -24 9 -58 -29 -41 -47 10
-11 17 -7 41 20 16 19 27 37 23 40 -3 3 -6 1 -6 -6z m-20 -17 c0 -3 -7 -12
-15 -20 -16 -17 -18 -14 -9 10 6 15 24 23 24 10z M1364 3163 l-2 -24 19 22
c23 27 23 25 1 25 -11 0 -18 -9 -18 -23z M1510 3169 c-12 -8 -11 -9 6 -4 13 3
26 -1 34 -10 7 -8 17 -15 23 -15 5 0 -2 9 -16 20 -29 23 -27 23 -47 9z M1410
3166 c0 -2 7 -7 16 -10 8 -3 12 -2 9 4 -6 10 -25 14 -25 6z M1385 3139 c-4 -6
-5 -12 -2 -15 2 -3 7 2 10 11 7 17 1 20 -8 4z M1235 3132 c-19 -13 -15 -39 7
-58 23 -19 23 -19 6 2 -22 26 -22 32 -2 30 9 0 18 5 20 12 1 7 0 8 -3 2 -8
-16 -26 -12 -19 5 6 17 5 18 -9 7z M1418 3133 c6 -2 12 -9 12 -15 0 -6 -7 -8
-14 -5 -11 4 -13 1 -9 -10 5 -13 2 -15 -12 -10 -16 7 -16 5 -4 -9 12 -15 11
-16 -11 -10 -18 5 -21 5 -11 -3 12 -8 12 -12 2 -25 -10 -12 -11 -16 -1 -16 7
0 10 -7 7 -14 -4 -10 -1 -13 9 -9 17 6 18 20 2 26 -7 2 -10 8 -6 12 5 5 17 0
28 -10 18 -17 20 -17 14 -2 -3 9 -10 17 -15 17 -16 0 -10 19 15 43 18 18 22
27 13 36 -6 6 -16 11 -21 10 -6 0 -5 -3 2 -6z M1500 3115 c-11 -13 -10 -14 4
-9 9 3 16 10 16 15 0 13 -6 11 -20 -6z M1326 3101 c10 -10 21 -17 23 -15 6 6
-20 34 -32 34 -6 0 -2 -8 9 -19z M1286 3103 c6 -4 10 -22 9 -40 -1 -18 2 -30
5 -28 14 9 5 68 -10 73 -10 2 -11 1 -4 -5z M1492 3073 c8 -10 13 -10 18 -3 4
6 15 8 26 4 10 -4 16 -3 12 1 -5 5 -21 9 -38 10 -24 1 -28 -1 -18 -12z M1475
3050 c3 -5 8 -10 11 -10 2 0 4 5 4 10 0 6 -5 10 -11 10 -5 0 -7 -4 -4 -10z
M1512 3048 c-8 -10 -4 -13 15 -15 15 0 22 2 17 6 -5 3 -12 10 -15 14 -3 4 -11
2 -17 -5z M1602 3046 c7 -8 15 -12 17 -11 5 6 -10 25 -20 25 -5 0 -4 -6 3 -14z
M1229 3048 c-1 -2 -2 -18 -4 -36 -2 -29 -1 -31 10 -15 8 10 9 20 4 21 -11 4
-12 22 -1 22 4 0 26 -18 50 -40 41 -37 42 -41 27 -57 -14 -14 -18 -14 -26 -2
-5 9 -9 10 -9 2 0 -21 21 -26 39 -9 24 22 28 20 26 -14 -1 -18 5 -35 14 -42
13 -10 14 -10 4 2 -10 11 -9 17 4 32 16 18 15 21 -18 49 -19 16 -33 37 -31 47
2 13 1 14 -7 3 -7 -11 -14 -9 -37 13 -25 23 -42 31 -45 24z m141 -118 c0 -5
-4 -10 -10 -10 -5 0 -10 5 -10 10 0 6 5 10 10 10 6 0 10 -4 10 -10z M1330
3036 c0 -2 8 -10 18 -17 15 -13 16 -12 3 4 -13 16 -21 21 -21 13z M1564 2999
c0 -17 2 -17 18 -2 10 9 21 13 25 9 4 -4 1 -11 -7 -16 -8 -6 -10 -10 -5 -10
17 0 40 19 32 26 -4 4 -19 8 -35 9 -21 1 -28 -3 -28 -16z M1416 2995 c4 -8 11
-15 16 -15 6 0 5 6 -2 15 -7 8 -14 15 -16 15 -2 0 -1 -7 2 -15z M1164 2975
c-12 -13 -19 -26 -16 -29 2 -3 14 6 24 20 26 33 19 40 -8 9z M1456 2983 c-6
-14 -5 -15 5 -6 7 7 10 15 7 18 -3 3 -9 -2 -12 -12z M1646 2977 c3 -10 9 -15
12 -12 3 3 0 11 -7 18 -10 9 -11 8 -5 -6z M1240 2976 c0 -2 7 -9 15 -16 9 -7
15 -8 15 -2 0 5 -7 12 -15 16 -8 3 -15 4 -15 2z M1510 2965 c-9 -10 -9 -15 -1
-15 6 0 11 5 11 10 0 6 5 10 11 10 6 0 8 -7 4 -17 -5 -14 -3 -15 6 -6 11 11 5
33 -10 33 -5 0 -14 -7 -21 -15z M1383 2955 c6 -7 16 -10 21 -5 5 5 16 6 25 3
9 -4 13 -3 10 1 -4 4 -21 9 -38 11 -26 3 -29 2 -18 -10z M1592 2954 c10 -10
20 -16 22 -13 3 3 -5 11 -17 18 -21 13 -21 12 -5 -5z M1208 2930 c18 -16 38
-30 44 -32 8 -3 7 -11 -1 -27 -11 -19 -15 -20 -29 -9 -15 12 -16 11 -3 -5 10
-12 17 -14 26 -7 9 7 16 6 25 -5 7 -8 18 -15 24 -15 6 0 4 4 -4 10 -8 5 -11
12 -7 16 3 4 14 1 24 -7 15 -12 16 -12 7 1 -5 8 -9 24 -9 34 0 11 -7 21 -15
23 -13 4 -13 3 0 -6 8 -5 11 -13 8 -16 -10 -10 -58 28 -53 42 2 7 -2 10 -9 7
-7 -3 -20 2 -29 10 -9 9 -19 16 -24 16 -4 0 7 -13 25 -30z m72 -60 c0 -5 -4
-10 -10 -10 -5 0 -10 5 -10 10 0 6 5 10 10 10 6 0 10 -4 10 -10z M1424 2925
c8 -8 18 -15 22 -15 3 0 1 7 -6 15 -7 8 -17 15 -22 15 -5 0 -3 -7 6 -15z
M1106 2903 c-6 -14 -5 -15 5 -6 7 7 10 15 7 18 -3 3 -9 -2 -12 -12z M1391
2917 c2 -1 13 -9 24 -17 19 -14 19 -14 6 3 -7 9 -18 17 -24 17 -6 0 -8 -1 -6
-3z M1487 2909 c7 -7 15 -10 18 -7 3 3 -2 9 -12 12 -14 6 -15 5 -6 -5z M1195
2889 c-11 -16 -1 -19 13 -3 7 8 8 14 3 14 -5 0 -13 -5 -16 -11z M1409 2872
c12 -9 12 -12 -1 -25 -8 -9 -23 -15 -33 -14 -10 1 -20 -5 -22 -13 -3 -10 -2
-11 4 -4 11 15 73 10 84 -7 6 -9 9 -10 9 -2 0 7 -6 16 -14 20 -8 4 -14 17 -13
27 1 10 -5 21 -13 23 -13 4 -13 3 -1 -5z M1107 2842 c4 -10 9 -10 20 -1 11 10
20 6 46 -17 17 -16 33 -29 35 -30 1 -1 0 -8 -3 -17 -5 -10 -17 -14 -40 -13
-36 3 -37 -7 -4 -32 14 -9 17 -22 14 -50 -3 -24 -2 -32 4 -23 5 7 20 14 35 14
14 0 26 3 26 8 0 5 -4 9 -10 9 -5 0 -10 5 -10 11 0 6 9 8 23 4 19 -5 20 -4 5
5 -10 6 -18 16 -18 21 0 6 5 7 12 3 7 -5 8 -3 3 5 -4 8 2 25 15 43 12 16 19
32 16 35 -3 4 -6 1 -6 -5 0 -19 -53 -13 -77 7 -27 23 -30 36 -6 27 10 -4 14
-3 9 1 -4 4 -27 8 -51 8 -31 0 -41 -3 -38 -13z m73 -92 c0 -5 -4 -10 -10 -10
-5 0 -10 5 -10 10 0 6 5 10 10 10 6 0 10 -4 10 -10z M1151 2807 c2 -1 13 -9
24 -17 19 -14 19 -14 6 3 -7 9 -18 17 -24 17 -6 0 -8 -1 -6 -3z M1330 2802 c0
-7 5 -12 12 -12 21 0 -1 -13 -27 -16 -25 -3 -34 10 -15 19 6 3 5 4 -2 3 -7 -2
-12 -13 -11 -25 3 -23 -12 -29 -20 -8 -2 6 -4 0 -3 -15 0 -16 2 -28 4 -28 2 0
14 12 27 28 19 22 26 25 36 15 18 -18 30 -16 23 2 -5 11 -2 14 12 9 11 -4 17
-5 14 -3 -3 2 -15 13 -27 23 -13 11 -23 14 -23 8z M1405 2800 c3 -5 11 -10 16
-10 6 0 7 5 4 10 -3 6 -11 10 -16 10 -6 0 -7 -4 -4 -10z M1310 2746 c0 -2 7
-7 16 -10 8 -3 12 -2 9 4 -6 10 -25 14 -25 6z M1271 2696 c-9 -11 -8 -15 4
-20 10 -4 14 -2 9 5 -4 6 0 15 7 20 8 5 9 9 3 9 -6 0 -17 -6 -23 -14z M1046
2684 c-9 -23 -7 -31 3 -15 7 11 16 8 47 -14 32 -24 35 -24 14 -4 -49 47 -57
51 -64 33z M1217 2659 c9 -9 10 -16 2 -26 -8 -9 -8 -13 0 -13 6 0 11 -5 11
-11 0 -6 -9 -8 -22 -4 -23 7 -23 7 -3 -8 24 -19 27 -17 30 27 2 25 -1 36 -13
41 -14 5 -14 4 -5 -6z M1145 2630 c-4 -6 1 -7 11 -3 13 5 16 3 11 -10 -3 -9 1
-21 11 -29 15 -12 16 -11 4 4 -10 12 -10 18 -1 23 8 6 7 10 -2 16 -18 11 -26
11 -34 -1z M1260 2565 c-9 -11 -10 -15 -1 -15 8 0 10 -8 6 -21 -6 -19 -5 -20
8 -8 10 10 12 18 5 26 -5 7 -7 17 -3 23 9 15 -1 12 -15 -5z M1088 2558 c17
-17 15 -33 -3 -18 -13 11 -14 10 -9 -3 3 -8 12 -18 20 -21 8 -3 12 -2 9 3 -3
5 -1 12 5 16 10 6 -11 35 -26 35 -5 0 -3 -5 4 -12z M1150 2555 c-9 -10 -9 -15
-1 -15 6 0 11 -5 11 -11 0 -6 -9 -8 -20 -4 -13 4 -20 2 -20 -6 0 -7 3 -9 7 -6
3 4 15 0 25 -10 22 -20 32 -11 34 30 1 18 -1 26 -3 20 -3 -7 -9 -13 -15 -13
-6 0 -8 7 -4 15 3 8 4 15 2 15 -2 0 -9 -7 -16 -15z m30 -39 c0 -3 -4 -8 -10
-11 -5 -3 -10 -1 -10 4 0 6 5 11 10 11 6 0 10 -2 10 -4z M1010 2557 c0 -3 17
-17 38 -33 30 -23 33 -24 17 -5 -19 22 -55 46 -55 38z M1200 2536 c0 -2 8 -10
18 -17 15 -13 16 -12 3 4 -13 16 -21 21 -21 13z M978 2512 c7 -5 10 -16 6 -28
-6 -15 -4 -17 6 -7 7 6 20 9 29 6 9 -4 4 4 -11 15 -14 12 -30 22 -35 22 -4 0
-2 -4 5 -8z M1042 2494 c10 -10 20 -16 22 -13 3 3 -5 11 -17 18 -21 13 -21 12
-5 -5z M1240 2499 c0 -6 -10 -8 -22 -5 -13 3 -17 3 -10 0 6 -3 12 -10 12 -16
0 -6 -6 -8 -12 -5 -8 3 -14 -5 -15 -21 0 -16 2 -20 7 -12 6 9 13 8 34 -5 14
-10 26 -13 26 -7 0 6 -9 14 -20 17 -11 3 -20 11 -20 16 0 6 8 8 18 5 21 -7 49
8 33 18 -6 4 -11 2 -11 -3 0 -6 -5 -11 -11 -11 -6 0 -8 9 -4 20 3 11 4 20 1
20 -3 0 -6 -5 -6 -11z M1130 2493 c0 -6 6 -14 13 -16 9 -4 8 -8 -3 -16 -9 -7
-10 -11 -3 -11 21 0 26 21 9 38 -9 9 -16 11 -16 5z M947 2447 c-9 -12 -17 -26
-17 -32 0 -5 5 -2 11 7 5 10 17 21 26 26 8 5 11 12 7 15 -5 3 -17 -4 -27 -16z
M1066 2419 c-15 -17 -26 -33 -23 -35 2 -3 16 9 30 26 29 34 62 32 52 -4 -4
-14 -3 -17 3 -8 5 7 15 11 23 9 8 -2 11 -2 7 0 -15 9 -8 25 8 19 9 -3 12 -2 9
5 -4 5 -15 7 -25 4 -10 -3 -21 -1 -25 5 -11 18 -31 11 -59 -21z M964 2418
l-19 -23 22 18 c17 15 26 17 45 7 22 -11 22 -10 4 4 -26 21 -29 20 -52 -6z
M1210 2423 c1 -12 50 -46 50 -35 0 6 -11 17 -25 26 -14 9 -25 13 -25 9z M957
2376 c-3 -7 0 -19 6 -26 9 -10 7 -11 -13 -5 -17 4 -21 3 -11 -3 7 -5 10 -15 6
-21 -4 -7 -1 -18 5 -26 19 -23 0 -18 -39 11 l-36 27 26 -28 c16 -16 41 -29 59
-31 l33 -4 -21 19 c-27 23 -28 34 -3 26 29 -9 37 15 12 34 -12 9 -19 20 -15
24 4 4 13 2 21 -4 8 -7 13 -8 13 -1 0 5 -7 13 -16 16 -21 8 -21 8 -27 -8z m33
-46 c0 -5 -4 -10 -10 -10 -5 0 -10 5 -10 10 0 6 5 10 10 10 6 0 10 -4 10 -10z
M1135 2377 c-5 -7 -18 -22 -27 -32 -16 -19 -15 -20 10 -21 15 -1 21 1 15 3 -7
3 -13 9 -13 15 0 6 7 8 14 5 11 -4 13 -1 9 10 -5 12 -2 15 10 10 11 -4 14 -2
10 9 -6 17 -15 17 -28 1z M1219 2381 c12 -8 13 -12 1 -26 -7 -9 -19 -14 -27
-11 -21 8 -5 -12 20 -26 20 -10 21 -10 7 7 -14 17 -13 17 10 12 14 -4 19 -4
13 -1 -20 9 -15 27 4 20 15 -6 15 -4 -2 14 -10 11 -23 20 -29 20 -6 0 -5 -4 3
-9z M1090 2365 c-7 -9 -8 -15 -2 -15 5 0 12 7 16 15 3 8 4 15 2 15 -2 0 -9 -7
-16 -15z M900 2335 c7 -8 17 -15 22 -15 5 0 3 7 -6 15 -8 8 -18 15 -22 15 -3
0 -1 -7 6 -15z M1030 2336 c0 -2 8 -10 18 -17 15 -13 16 -12 3 4 -13 16 -21
21 -21 13z M1168 2323 c19 -8 14 -26 -5 -18 -15 5 -16 4 -5 -6 9 -10 15 -10
23 -2 13 13 4 33 -14 32 -9 0 -9 -2 1 -6z M1116 2295 c4 -8 11 -15 16 -15 6 0
5 6 -2 15 -7 8 -14 15 -16 15 -2 0 -1 -7 2 -15z M1046 2274 c-9 -24 -2 -26 12
-4 7 11 8 20 3 20 -5 0 -12 -7 -15 -16z M1130 2251 c0 -17 29 -20 42 -3 12 15
11 16 -4 3 -12 -9 -18 -10 -18 -2 0 6 -4 11 -10 11 -5 0 -10 -4 -10 -9z M1195
2249 c-11 -16 -1 -19 13 -3 7 8 8 14 3 14 -5 0 -13 -5 -16 -11z M977 2237 c-3
-7 3 -13 14 -13 13 0 15 3 7 13 -6 7 -12 13 -13 13 -2 0 -5 -6 -8 -13z M1050
2240 c-8 -5 -12 -12 -9 -15 4 -3 12 1 19 10 14 17 11 19 -10 5z M1080 2232 c0
-5 7 -15 15 -22 8 -7 15 -9 15 -6 0 4 -7 14 -15 22 -8 9 -15 11 -15 6z M1170
2219 c0 -6 -7 -8 -17 -5 -21 8 -36 -14 -21 -31 8 -10 14 -9 29 8 18 21 25 39
14 39 -3 0 -5 -5 -5 -11z m-20 -19 c0 -5 -5 -10 -11 -10 -5 0 -7 5 -4 10 3 6
8 10 11 10 2 0 4 -4 4 -10z M850 2211 c0 -6 4 -11 8 -11 19 0 54 -39 46 -52
-6 -9 -3 -9 10 1 9 8 21 22 27 32 7 15 6 17 -6 13 -8 -3 -12 -10 -9 -15 10
-16 -7 -9 -42 17 -19 15 -34 21 -34 15z M915 2210 c-3 -6 1 -7 9 -4 18 7 21
14 7 14 -6 0 -13 -4 -16 -10z M956 2155 c5 -11 2 -14 -12 -9 -16 5 -16 4 -4
-5 8 -6 18 -11 23 -11 11 0 9 28 -3 35 -6 3 -7 -1 -4 -10z M996 2154 c18 -15
18 -15 0 -10 -16 6 -17 4 -5 -10 7 -9 15 -12 17 -6 2 6 11 8 20 5 11 -4 8 2
-7 15 -13 12 -29 22 -34 22 -6 0 -2 -7 9 -16z M4088 2555 c-12 -14 -28 -23
-34 -21 -17 7 -39 -20 -24 -29 8 -5 8 -11 -1 -21 -6 -8 -7 -14 -2 -14 11 0 43
33 43 44 0 4 7 14 15 22 14 14 19 11 16 -9 -1 -4 9 -2 21 5 13 7 27 11 33 9 5
-1 1 7 -9 18 -24 27 -31 26 -58 -4z M1610 2609 c0 -5 5 -7 10 -4 6 3 10 8 10
11 0 2 -4 4 -10 4 -5 0 -10 -5 -10 -11z M1599 2553 c-13 -16 -12 -17 4 -4 9 7
17 15 17 17 0 8 -8 3 -21 -13z M1450 2545 c-7 -9 -11 -17 -9 -20 3 -2 10 5 17
15 14 24 10 26 -8 5z M1529 2513 c-13 -16 -12 -17 4 -4 9 7 17 15 17 17 0 8
-8 3 -21 -13z M1776 2513 c-6 -14 -5 -15 5 -6 7 7 10 15 7 18 -3 3 -9 -2 -12
-12z M1621 2498 c-14 -23 -14 -23 8 -4 22 20 25 26 13 26 -4 0 -13 -10 -21
-22z M1409 2493 c-13 -16 -12 -17 4 -4 9 7 17 15 17 17 0 8 -8 3 -21 -13z
M1455 2469 c-4 -6 -5 -12 -2 -15 2 -3 7 2 10 11 7 17 1 20 -8 4z M4407 2556
c-3 -8 1 -20 9 -27 13 -10 17 -10 24 1 5 9 5 20 -2 27 -14 17 -25 16 -31 -1z
M2999 2533 c-13 -16 -12 -17 4 -4 16 13 21 21 13 21 -2 0 -10 -8 -17 -17z
M2004 2463 c-15 -20 -23 -33 -16 -29 13 8 56 66 49 66 -3 0 -17 -17 -33 -37z
M2730 2525 c0 -10 -5 -13 -12 -9 -7 4 -4 -2 6 -15 13 -14 23 -18 30 -11 6 6
14 6 23 -1 7 -7 13 -8 12 -3 0 5 -13 19 -30 32 -24 20 -29 21 -29 7z M2600
2500 c0 -5 5 -10 10 -10 6 0 10 5 10 10 0 6 -4 10 -10 10 -5 0 -10 -4 -10 -10z
M2685 2500 c3 -5 8 -10 11 -10 2 0 4 5 4 10 0 6 -5 10 -11 10 -5 0 -7 -4 -4
-10z M2123 2475 c1 -34 18 -48 33 -28 7 10 23 18 35 18 12 0 24 7 27 15 4 13
3 13 -10 2 -13 -10 -17 -10 -21 0 -3 9 -11 5 -25 -12 -11 -14 -23 -22 -27 -18
-4 4 0 14 9 23 20 21 20 21 -3 21 -13 0 -19 -7 -18 -21z M2530 2489 c0 -5 5
-7 10 -4 6 3 10 8 10 11 0 2 -4 4 -10 4 -5 0 -10 -5 -10 -11z M2330 2473 c-14
-7 -19 -13 -12 -13 7 0 10 -5 7 -10 -5 -8 -12 -7 -23 2 -10 7 -6 0 7 -15 16
-18 27 -23 32 -16 4 6 13 8 20 5 8 -4 6 -1 -3 7 -21 17 -23 34 -5 40 6 2 10 6
7 9 -3 3 -16 -1 -30 -9z M2374 2468 l-19 -23 23 19 c12 11 22 21 22 23 0 8 -8
2 -26 -19z M2696 2455 c4 -8 11 -15 16 -15 6 0 5 6 -2 15 -7 8 -14 15 -16 15
-2 0 -1 -7 2 -15z M2250 2451 c0 -7 -7 -10 -19 -6 -10 3 -24 -1 -31 -10 -8
-10 -9 -15 -1 -15 6 0 11 5 11 11 0 5 4 8 10 4 5 -3 6 -13 3 -23 -3 -9 4 -4
17 11 12 15 20 31 16 34 -3 4 -6 1 -6 -6z M2836 2433 c-4 -9 -3 -20 1 -24 4
-4 9 3 9 17 2 28 -1 31 -10 7z M2860 2426 c0 -2 8 -10 18 -17 15 -13 16 -12 3
4 -13 16 -21 21 -21 13z M2285 2385 c21 -19 41 -32 44 -29 3 3 0 8 -6 12 -6 4
-11 16 -10 26 1 10 -5 21 -13 23 -13 4 -13 3 0 -6 8 -5 11 -13 7 -17 -4 -4
-15 0 -25 9 -10 10 -23 17 -28 17 -5 0 9 -16 31 -35z M2180 2406 c0 -2 7 -9
15 -16 9 -7 15 -8 15 -2 0 5 -7 12 -15 16 -8 3 -15 4 -15 2z M2341 2396 c-7
-8 -8 -17 -3 -20 6 -3 12 3 15 14 6 24 4 25 -12 6z M2381 2396 c-9 -11 -6 -13
14 -13 20 0 23 2 14 13 -6 8 -13 14 -14 14 -1 0 -8 -6 -14 -14z M2810 2396 c0
-2 8 -10 18 -17 15 -13 16 -12 3 4 -13 16 -21 21 -21 13z M2580 2386 c0 -2 8
-10 18 -17 15 -13 16 -12 3 4 -13 16 -21 21 -21 13z M2527 2359 c12 -12 24
-21 27 -18 2 2 -8 13 -22 23 l-27 19 22 -24z M2794 2359 c0 -13 3 -15 13 -7 7
6 13 12 13 13 0 2 -6 5 -13 8 -7 3 -13 -3 -13 -14z M2422 2363 c-6 -3 -9 -9
-6 -15 4 -6 10 -5 15 3 5 8 9 10 9 4 0 -5 -4 -16 -9 -24 -7 -11 -13 -10 -32 8
-12 11 -28 21 -33 21 -6 0 3 -11 19 -25 19 -15 37 -22 50 -18 16 4 17 3 8 -7
-9 -10 -8 -16 4 -28 13 -13 16 -13 25 -1 7 11 11 11 15 1 2 -6 9 -9 15 -6 6 4
8 -2 3 -17 l-7 -24 17 23 c9 12 21 19 27 16 6 -4 5 -9 -3 -15 -19 -11 -5 -21
36 -25 21 -1 35 2 35 9 0 8 3 8 12 -1 8 -8 16 -6 30 10 21 25 22 29 6 23 -15
-5 -64 33 -54 42 3 3 15 -2 26 -12 11 -10 23 -15 27 -12 3 4 1 7 -6 7 -8 0
-10 7 -5 22 6 20 5 21 -8 10 -12 -10 -18 -9 -28 3 -7 8 -18 15 -24 15 -6 0 -4
-5 4 -10 12 -7 12 -12 3 -21 -10 -10 -6 -16 17 -31 38 -23 38 -35 0 -35 -20 0
-27 4 -21 11 6 7 0 18 -15 29 -23 17 -23 17 -17 0 6 -15 4 -16 -9 -5 -13 10
-17 10 -21 0 -2 -7 -8 -10 -12 -6 -5 5 0 18 11 30 l19 23 -23 -19 c-26 -22
-41 -16 -17 7 19 20 20 33 0 17 -13 -10 -19 -10 -33 2 -25 21 -35 26 -50 21z
m55 -39 c4 -14 -15 -39 -24 -31 -4 5 -1 12 7 17 10 7 11 10 3 10 -7 0 -13 5
-13 11 0 13 22 7 27 -7z m103 -53 c0 -5 -7 -14 -15 -21 -16 -14 -18 -10 -9 14
6 17 24 22 24 7z M2817 2334 c-3 -5 1 -15 9 -22 16 -14 18 -5 5 17 -5 7 -11 9
-14 5z M2676 2254 c-3 -9 -3 -21 1 -27 4 -6 0 -8 -9 -4 -9 3 -21 0 -27 -6 -8
-8 -11 -8 -11 1 0 17 -17 15 -23 -2 -4 -11 -1 -13 10 -9 13 5 15 2 9 -12 -7
-18 -6 -18 12 -2 25 23 55 12 46 -17 -4 -15 1 -12 18 11 17 24 28 31 43 26 14
-4 11 1 -10 20 -27 23 -31 23 -43 8 -12 -14 -12 -13 -7 7 7 25 0 30 -9 6z m44
-21 c0 -17 -18 -35 -29 -29 -8 5 -7 11 2 21 13 16 27 19 27 8z M2575 2220 c-3
-5 -1 -10 4 -10 6 0 11 5 11 10 0 6 -2 10 -4 10 -3 0 -8 -4 -11 -10z M4647
2134 c-8 -8 1 -24 13 -24 4 0 10 7 14 15 5 15 -14 21 -27 9z M4626 2063 c-9
-9 -7 -33 3 -33 12 0 22 28 12 34 -5 3 -11 3 -15 -1z M4600 1951 c0 -5 6 -11
13 -14 8 -3 14 1 14 9 0 8 -6 14 -14 14 -7 0 -13 -4 -13 -9z M4576 1834 c-4
-9 -4 -19 -2 -21 8 -8 26 8 26 23 0 19 -16 18 -24 -2z M4556 1771 c-4 -7 -5
-15 -2 -18 9 -9 19 4 14 18 -4 11 -6 11 -12 0z M1111 1936 c-10 -12 -8 -18 11
-30 29 -19 69 -25 75 -10 2 5 -14 20 -36 32 -33 19 -40 20 -50 8z M4050 1986
c0 -2 7 -7 16 -10 8 -3 12 -2 9 4 -6 10 -25 14 -25 6z M3479 1923 c-13 -16
-12 -17 4 -4 16 13 21 21 13 21 -2 0 -10 -8 -17 -17z M1840 1706 c0 -26 64
-37 73 -12 8 20 -2 26 -40 26 -21 0 -33 -5 -33 -14z M1200 1601 c-8 -5 -78
-23 -155 -40 -129 -30 -179 -50 -162 -67 4 -4 12 -2 19 3 7 6 45 16 83 22 39
7 90 19 114 27 24 7 47 11 52 8 5 -3 19 1 31 8 25 13 47 20 63 18 52 -5 85 -3
87 5 2 6 -13 10 -33 11 -20 1 -47 4 -60 7 -13 3 -31 2 -39 -2z M1060 1508
c-36 -11 -69 -24 -74 -29 -16 -15 26 -10 59 7 17 9 45 16 63 16 21 0 32 5 32
14 0 17 1 17 -80 -8z M2730 1500 c0 -5 5 -10 11 -10 5 0 7 5 4 10 -3 6 -8 10
-11 10 -2 0 -4 -4 -4 -10z M1305 1480 c-4 -6 -5 -13 -3 -15 2 -2 57 -5 123 -6
66 -2 131 -6 145 -9 28 -8 90 6 90 19 0 20 -343 30 -355 11z M937 1473 c-13
-13 -7 -32 8 -27 8 4 15 12 15 20 0 15 -12 19 -23 7z M3920 1885 c0 -2 10 -10
23 -16 20 -11 21 -11 8 4 -13 16 -31 23 -31 12z M3942 1653 c-14 -14 -5 -43
13 -43 16 0 29 17 30 40 2 19 -27 21 -43 3z M3887 1637 c-3 -7 3 -13 14 -13
13 0 15 3 7 13 -6 7 -12 13 -13 13 -2 0 -5 -6 -8 -13z M3982 1608 c-20 -20
-14 -40 11 -36 14 2 23 11 25 26 4 24 -16 30 -36 10z M4465 1529 c-4 -6 -5
-13 -2 -16 7 -7 27 6 27 18 0 12 -17 12 -25 -2z M4415 1469 c-4 -6 -5 -13 -2
-16 7 -7 27 6 27 18 0 12 -17 12 -25 -2z M2606 3871 c-4 -6 -1 -34 7 -63 7
-29 12 -79 10 -111 -2 -32 1 -66 7 -76 6 -12 5 -22 -2 -29 -5 -5 -7 -16 -3
-22 15 -24 35 51 34 123 -2 103 -34 210 -53 178z M2576 3758 c-3 -7 -7 -37
-11 -67 -10 -89 -59 -252 -109 -365 -27 -60 -32 -86 -18 -86 11 0 65 114 85
180 9 30 28 93 42 139 31 101 43 195 26 205 -6 4 -13 1 -15 -6z M1772 3539 c3
-8 29 -20 59 -27 138 -33 233 -79 286 -141 25 -28 38 -23 29 11 -7 30 -132
110 -211 137 -85 28 -169 38 -163 20z M2626 3541 c-3 -5 -8 -44 -12 -87 -7
-96 -28 -202 -53 -269 -50 -137 -67 -234 -52 -317 5 -35 10 -70 9 -78 -3 -33
3 -50 15 -50 8 0 22 -9 32 -20 20 -22 45 -27 45 -7 0 18 -12 32 -36 45 -15 8
-23 26 -30 64 -10 67 -12 228 -1 228 4 0 7 9 7 20 0 11 11 47 24 80 14 33 27
83 30 111 3 27 10 58 15 67 9 19 26 222 17 222 -2 0 -7 -4 -10 -9z M4004 3519
c-3 -6 -2 -15 4 -21 13 -13 32 -2 32 18 0 16 -26 19 -36 3z M4627 2904 c-8 -8
1 -24 14 -24 5 0 9 7 9 15 0 15 -12 20 -23 9z M4425 2810 c-4 -6 -3 -16 3 -22
6 -6 12 -6 17 2 4 6 3 16 -3 22 -6 6 -12 6 -17 -2z M4473 2808 c2 -7 10 -13
17 -13 7 0 15 6 18 13 2 7 -5 12 -18 12 -13 0 -20 -5 -17 -12z M4640 2804 c0
-9 5 -14 12 -12 18 6 21 28 4 28 -9 0 -16 -7 -16 -16z M4677 2784 c-8 -8 1
-24 14 -24 5 0 9 7 9 15 0 15 -12 20 -23 9z M4575 2770 c3 -5 10 -10 16 -10 5
0 9 5 9 10 0 6 -7 10 -16 10 -8 0 -12 -4 -9 -10z M50 2275 c0 -8 5 -15 10 -15
6 0 10 7 10 15 0 8 -4 15 -10 15 -5 0 -10 -7 -10 -15z M4837 2255 c-4 -8 -2
-17 3 -20 6 -4 10 3 10 14 0 25 -6 27 -13 6z M460 2239 c-58 -6 -106 -12 -205
-24 -16 -2 -38 -4 -47 -4 -19 -1 -25 -26 -8 -36 5 -3 28 -1 51 5 23 6 67 13
98 15 31 3 74 6 96 9 22 2 70 5 108 5 52 1 67 4 67 16 0 8 -8 15 -17 16 -10 1
-31 2 -48 3 -16 1 -59 -1 -95 -5z M50 2165 c0 -9 6 -12 15 -9 8 4 12 10 9 15
-8 14 -24 10 -24 -6z M464 2168 c-10 -16 10 -23 73 -23 45 0 58 3 58 15 0 12
-14 15 -62 17 -35 1 -66 -3 -69 -9z M4800 2114 c0 -9 5 -14 12 -12 18 6 21 28
4 28 -9 0 -16 -7 -16 -16z M50 2046 c0 -9 3 -16 8 -17 4 -1 27 -3 52 -5 25 -2
62 -11 82 -19 25 -9 39 -11 43 -4 4 6 54 10 128 9 172 -2 226 0 231 9 8 13
-37 29 -69 25 -65 -9 -285 -3 -422 12 -44 4 -53 3 -53 -10z M4822 2039 c2 -6
8 -10 13 -10 5 0 11 4 13 10 2 6 -4 11 -13 11 -9 0 -15 -5 -13 -11z M4837
1973 c-11 -10 -8 -61 3 -68 6 -4 10 10 10 34 0 42 -2 46 -13 34z M50 1846 c0
-30 44 -47 111 -45 24 1 78 1 119 1 41 0 84 -1 95 -1 11 0 64 -2 118 -4 84 -4
98 -3 93 10 -3 8 -6 18 -6 23 0 4 -15 5 -32 2 -36 -5 -34 -5 -218 3 -125 5
-140 5 -194 3 -17 0 -35 6 -41 16 -19 25 -45 20 -45 -8z M50 1775 c0 -8 20
-23 44 -34 24 -11 46 -28 50 -37 7 -18 45 -13 97 13 19 9 44 13 67 9 93 -14
234 -26 243 -20 6 3 9 13 7 21 -2 11 -21 15 -83 17 -44 2 -110 7 -147 11 -52
6 -76 4 -107 -8 -34 -14 -41 -14 -51 -2 -7 8 -20 15 -29 15 -9 0 -22 5 -29 12
-17 17 -62 19 -62 3z M777 1713 c-12 -12 -7 -41 8 -47 22 -8 49 23 34 40 -12
15 -31 18 -42 7z M504 1603 c-10 -11 -39 -41 -63 -67 -24 -26 -56 -53 -72 -61
-15 -8 -32 -23 -37 -32 -9 -14 -27 -16 -146 -14 -117 1 -136 0 -136 -14 0 -12
17 -15 105 -15 58 0 105 -4 105 -9 0 -5 -12 -19 -26 -30 -22 -17 -41 -21 -105
-21 -61 0 -79 -3 -79 -14 0 -11 15 -14 64 -13 36 1 67 0 69 -3 11 -12 -7 -69
-29 -95 -41 -48 -57 -135 -24 -135 5 0 10 10 10 23 0 13 7 32 15 43 8 10 15
29 15 41 0 12 5 25 10 28 6 3 20 27 31 53 28 62 74 101 119 102 23 0 42 7 53
20 9 11 28 20 41 20 14 0 37 5 51 12 19 9 24 16 19 32 -4 12 -14 26 -22 32
-26 19 2 24 53 8 57 -17 74 -8 57 30 -8 17 -22 27 -47 32 -39 7 -42 12 -19 29
9 6 15 18 12 25 -3 10 -9 9 -24 -7z m-64 -153 c0 -5 -5 -10 -11 -10 -5 0 -7 5
-4 10 3 6 8 10 11 10 2 0 4 -4 4 -10z M729 1564 c-18 -20 -21 -29 -13 -42 27
-42 81 -13 64 34 -13 34 -25 36 -51 8z M2560 1190 c-24 -15 -7 -19 20 -5 15 8
19 14 10 14 -8 1 -22 -3 -30 -9z M4642 1024 c-18 -12 -23 -24 -20 -50 1 -18 0
-35 -2 -37 -3 -3 -30 -7 -60 -10 -68 -7 -90 -15 -90 -33 0 -19 32 -34 80 -36
49 -2 62 -15 23 -24 -55 -12 -63 -15 -63 -27 0 -19 13 -34 37 -41 19 -6 21 -4
17 19 -4 22 -1 25 26 25 34 0 41 -17 10 -22 -31 -5 -28 -22 6 -29 l29 -6 -28
-11 c-16 -7 -32 -12 -36 -12 -4 0 -16 -9 -25 -19 -16 -17 -16 -22 -3 -48 13
-23 17 -25 22 -11 4 9 8 24 9 34 2 10 15 21 29 25 l27 7 1 -76 c4 -300 5 -312
35 -312 8 0 13 4 10 9 -7 11 -9 371 -2 378 2 2 43 5 90 5 l86 1 0 33 0 34 -95
0 c-52 0 -95 4 -95 9 0 11 26 22 43 16 6 -2 42 -6 80 -9 59 -3 67 -2 67 14 0
13 -8 17 -32 18 -72 0 -82 2 -72 11 5 6 30 11 57 12 31 2 47 7 47 16 0 7 -7
13 -15 13 -8 0 -15 9 -15 20 0 15 -7 20 -27 22 -139 8 -147 10 -75 18 36 4 70
14 79 23 15 14 15 18 1 39 -13 20 -25 24 -74 26 -41 2 -66 -3 -82 -14z m108
-23 c0 -12 -26 -21 -61 -21 -28 0 -37 9 -22 23 10 10 83 8 83 -2z m-136 -112
c-6 -11 -35 -12 -61 -2 -16 6 -15 8 7 13 30 8 62 1 54 -11z m156 0 c-70 -12
-110 -10 -110 4 0 9 20 11 77 8 74 -4 76 -5 33 -12z m-83 -45 c-3 -3 -12 -4
-19 -1 -8 3 -5 6 6 6 11 1 17 -2 13 -5z m143 -86 c0 -5 -26 -8 -57 -8 -32 0
-68 -3 -80 -6 -13 -4 -23 -2 -23 4 0 6 15 12 33 14 58 6 127 3 127 -4z M4750
646 c0 -17 5 -26 16 -26 10 0 14 7 12 22 -5 32 -28 35 -28 4z"/>
</g>
</svg>
