<?xml version="1.0" standalone="no"?>
<!DOCTYPE svg PUBLIC "-//W3C//DTD SVG 20010904//EN"
 "http://www.w3.org/TR/2001/REC-SVG-20010904/DTD/svg10.dtd">
<svg version="1.0" xmlns="http://www.w3.org/2000/svg"
 width="500.000000pt" height="878.000000pt" viewBox="0 0 500.000000 878.000000"
 preserveAspectRatio="xMidYMid meet">
<metadata>
Created by potrace 1.16, written by Peter Selinger 2001-2019
</metadata>
<g transform="translate(0.000000,878.000000) scale(0.100000,-0.100000)"
fill="#000000" stroke="none">
<path d="M2157 8660 c20 -39 34 -72 32 -74 -2 -2 -33 -6 -69 -9 -47 -3 -65 -8
-65 -18 0 -12 57 -14 360 -12 333 1 391 6 357 27 -5 3 -35 6 -66 7 -31 1 -59
6 -62 11 -4 5 -6 38 -5 74 l1 64 -31 0 -30 0 1 -57 c2 -80 2 -80 -19 -86 -25
-6 -28 3 -25 81 l1 62 -29 0 -30 0 7 -67 c6 -69 0 -83 -37 -83 -15 0 -18 9
-18 59 0 74 -6 91 -34 91 -19 0 -21 -5 -21 -72 l0 -72 -34 -3 c-59 -7 -61 -2
-35 74 13 37 24 69 24 71 0 1 -13 2 -29 2 -26 0 -31 -5 -46 -50 -19 -56 -30
-63 -40 -22 -11 48 -33 72 -65 72 l-29 0 36 -70z M1820 6880 c-14 -4 -39 -10
-57 -14 -17 -5 -34 -14 -37 -22 -4 -11 6 -14 44 -14 28 0 50 -4 50 -8 0 -5
-29 -27 -65 -50 -36 -23 -65 -37 -65 -33 0 5 12 16 26 26 18 12 23 20 16 27
-8 8 -18 6 -36 -5 -18 -12 -26 -13 -29 -4 -3 9 -9 9 -27 -1 -15 -9 -26 -10
-33 -3 -7 7 2 15 27 27 40 20 51 51 14 39 -13 -3 -34 -8 -48 -9 -14 -2 -41
-10 -60 -19 -19 -8 -47 -20 -63 -26 -15 -6 -41 -31 -59 -56 -18 -25 -37 -45
-42 -45 -32 -1 -47 -30 -57 -111 -9 -74 -8 -91 9 -139 11 -34 27 -59 41 -66
19 -10 20 -13 6 -24 -21 -17 -19 -33 6 -56 21 -19 21 -25 4 -110 -8 -38 12
-58 46 -46 19 8 29 3 55 -25 23 -24 40 -33 63 -33 35 0 39 -7 14 -25 -12 -9
-25 -10 -42 -4 -18 7 -28 6 -40 -5 -12 -13 -13 -19 -1 -43 9 -18 14 -65 15
-128 l1 -100 60 -117 c47 -90 62 -129 66 -171 5 -64 52 -139 107 -171 31 -18
35 -18 60 -3 27 16 32 32 49 157 6 43 19 81 38 110 65 102 233 306 234 285 0
-6 -12 -23 -27 -40 -16 -16 -41 -48 -58 -71 -16 -23 -49 -67 -73 -98 -24 -31
-51 -76 -62 -101 -22 -52 -50 -179 -50 -229 0 -22 -9 -45 -25 -64 -19 -23 -22
-32 -12 -42 10 -10 8 -12 -6 -7 -12 5 -26 -1 -41 -18 l-23 -25 5 25 c2 14 8
25 13 25 15 0 10 19 -11 40 -38 38 -52 27 -48 -40 3 -56 1 -61 -17 -58 -16 2
-19 9 -17 36 3 30 1 33 -20 30 -16 -2 -24 -11 -26 -28 -5 -34 -19 -47 -34 -32
-8 8 -15 56 -18 130 -5 109 -6 117 -25 117 -19 0 -20 -6 -19 -127 l0 -128 -28
0 c-21 0 -29 6 -34 25 -3 14 -9 25 -13 25 -11 0 -4 192 8 223 14 37 14 37 -10
37 -14 0 -25 -11 -35 -36 -8 -20 -17 -35 -19 -33 -2 2 0 33 5 69 8 68 2 87
-24 77 -15 -6 -23 -58 -18 -128 1 -15 -5 -32 -13 -39 -11 -9 -15 -33 -15 -86
0 -41 -4 -74 -9 -74 -5 0 -14 24 -21 52 -9 44 -8 54 4 63 18 14 33 241 17 264
-16 24 -41 -4 -35 -39 4 -15 1 -31 -5 -34 -6 -4 -12 0 -12 8 -1 9 -3 21 -4 26
-1 6 -3 14 -4 19 -1 9 -35 23 -61 25 -23 2 -23 33 0 46 24 13 16 34 -11 27
-15 -4 -19 0 -19 23 0 20 6 29 21 33 23 6 17 27 -7 27 -8 0 -14 10 -14 25 0
21 5 25 29 25 42 0 49 19 12 33 -38 14 -37 41 2 45 28 3 37 26 15 36 -10 5
-10 7 0 12 6 3 12 12 12 19 0 19 132 49 180 41 32 -5 40 -3 40 9 0 24 -38 38
-89 30 -81 -11 -145 -34 -176 -63 -34 -31 -65 -91 -65 -127 0 -30 -24 -44 -81
-47 l-43 -3 -12 65 c-7 36 -13 95 -13 132 -1 36 -4 73 -7 82 -6 17 -39 22 -48
7 -4 -6 2 -112 17 -266 2 -15 -5 -21 -26 -23 -16 -2 -35 2 -43 9 -8 7 -29 12
-47 11 -26 0 -28 1 -12 8 37 14 45 32 30 65 -7 17 -15 38 -18 47 -3 9 -16 18
-29 21 l-23 4 23 2 c26 1 41 29 22 41 -7 5 -13 26 -13 47 l0 38 74 10 c51 8
73 15 71 24 -1 7 9 22 23 33 20 15 25 28 25 63 0 37 -5 47 -40 79 -22 20 -47
36 -55 37 -114 6 -143 -6 -178 -70 -25 -48 -27 -80 -5 -108 16 -20 17 -131 3
-246 -7 -60 -16 -111 -20 -115 -4 -4 -53 -8 -110 -8 -57 -1 -108 -5 -114 -8
-12 -8 -19 18 -25 98 -3 45 1 66 16 91 12 22 15 36 8 40 -5 3 -7 16 -4 29 8
33 -37 83 -89 97 -50 13 -105 -2 -139 -38 -20 -21 -23 -35 -22 -91 4 -231 3
-442 -2 -469 -6 -33 -58 -79 -133 -117 l-31 -17 0 -94 c0 -60 4 -95 10 -95 6
0 37 17 68 37 86 56 102 64 103 50 8 -157 15 -187 44 -187 19 0 24 -86 30
-481 l6 -335 -41 -2 c-36 -3 -40 -1 -40 21 0 13 -3 27 -7 31 -4 4 -8 22 -9 39
0 18 -6 55 -13 82 -6 28 -13 66 -15 85 -5 53 -17 102 -33 134 -13 26 -13 30 6
50 25 26 38 81 22 90 -16 10 -53 -3 -48 -17 8 -22 -27 -68 -55 -74 -35 -7 -40
-43 -5 -43 17 0 22 -6 24 -26 0 -15 6 -36 11 -48 12 -25 58 -221 68 -288 7
-52 -7 -68 -43 -53 -10 4 -30 7 -46 6 -15 -2 -27 2 -27 8 0 6 5 11 10 11 6 0
10 5 10 10 0 6 -7 10 -15 10 -11 0 -15 -12 -15 -48 l0 -49 97 14 c54 7 105 16
113 19 14 6 100 17 238 31 l52 5 0 -50 c0 -28 -5 -54 -12 -58 -6 -4 -48 -8
-92 -10 -83 -2 -153 -11 -308 -41 -80 -14 -88 -18 -88 -39 0 -21 3 -22 37 -17
26 4 35 2 28 -5 -5 -6 -21 -12 -35 -14 -35 -4 -40 -38 -6 -38 35 0 106 39 115
63 7 18 8 17 18 -9 6 -16 11 -50 12 -75 1 -52 6 -49 -117 -65 -42 -5 -52 -10
-52 -25 0 -11 7 -19 15 -19 11 0 15 -12 15 -45 0 -25 3 -45 8 -45 4 0 7 -55 7
-122 0 -108 5 -233 20 -533 2 -44 7 -132 10 -195 3 -63 8 -167 10 -230 11
-310 16 -441 20 -510 3 -41 7 -165 10 -275 3 -110 7 -279 10 -375 5 -210 18
-1079 16 -1100 -1 -8 -1 -24 -2 -35 0 -16 -2 -17 -9 -5 -12 23 -26 265 -35
642 -3 112 -9 289 -15 393 -5 105 -12 273 -15 375 -4 102 -8 208 -10 235 -5
70 -14 291 -21 480 -3 88 -6 189 -8 225 -2 36 -7 146 -11 245 -4 99 -9 182
-12 185 -2 3 -3 -257 -2 -577 2 -320 7 -580 11 -577 4 3 8 0 8 -5 0 -6 -4 -11
-10 -11 -5 0 -10 -7 -10 -16 0 -8 4 -13 8 -10 5 3 9 -10 10 -29 1 -19 -3 -35
-8 -35 -6 0 -10 -7 -10 -16 0 -8 4 -13 9 -9 6 3 9 -3 9 -12 -1 -10 2 -62 6
-116 7 -84 5 -98 -8 -103 -20 -8 -21 -44 -1 -44 8 0 15 -7 15 -15 0 -8 -7 -15
-15 -15 -23 0 -19 -47 5 -53 18 -5 20 -14 21 -94 1 -48 3 -155 5 -236 2 -112
0 -147 -9 -146 -30 4 -38 -2 -35 -24 2 -14 10 -22 23 -22 17 0 20 -7 21 -45 1
-25 3 -47 4 -50 9 -28 5 -92 -6 -101 -18 -14 -18 -29 -1 -29 15 0 15 4 17
-182 1 -80 -1 -151 -5 -157 -3 -6 -15 -11 -25 -11 -42 0 -36 -51 8 -69 15 -6
50 -11 77 -11 99 1 221 7 262 14 23 4 50 3 60 -2 10 -6 45 -13 78 -17 33 -3
70 -8 81 -11 23 -6 41 10 24 21 -21 13 -8 21 43 24 79 5 157 4 202 -4 22 -4
48 -7 58 -7 9 1 17 -3 17 -7 0 -4 13 -6 30 -3 16 2 30 0 30 -4 0 -5 31 -10 69
-10 38 -1 86 -7 107 -14 63 -21 108 -25 222 -22 38 2 52 6 52 17 0 23 -33 34
-101 35 -120 1 -260 15 -424 41 -38 7 -79 13 -90 14 -11 1 -24 3 -29 4 -4 0
-5 9 -2 18 6 14 3 14 -16 -3 -20 -19 -34 -21 -108 -19 -83 2 -158 23 -143 40
5 4 -2 2 -14 -4 -25 -13 -30 -3 -10 19 6 7 -3 2 -21 -13 -19 -15 -38 -25 -42
-22 -5 3 -12 0 -16 -6 -4 -7 -3 -9 4 -5 5 3 12 1 14 -5 2 -6 21 -11 43 -13 22
-1 50 -7 63 -14 12 -7 27 -10 32 -7 6 3 10 1 10 -5 0 -13 -85 -5 -128 11 -13
5 -38 9 -55 9 -27 1 -30 3 -17 13 8 7 21 24 29 37 13 23 13 24 -3 11 -14 -12
-19 -12 -26 -2 -4 8 -9 9 -11 3 -2 -5 -23 -12 -46 -14 -33 -4 -42 -2 -46 11
-2 9 -5 82 -6 161 -1 80 -4 193 -7 253 l-5 107 28 1 c15 1 44 3 63 4 19 2 58
5 87 6 57 2 79 11 69 27 -4 7 -37 9 -87 7 -61 -3 -78 -2 -72 8 5 9 3 9 -8 1
-8 -6 -29 -14 -46 -17 l-33 -7 -1 53 c-3 79 2 121 14 136 9 12 9 13 -1 7 -9
-5 -11 3 -9 33 2 23 -1 41 -6 41 -6 0 -8 2 -6 5 3 2 15 2 27 -2 19 -5 20 -8
10 -22 -12 -15 -11 -15 7 0 11 9 30 20 43 24 17 5 21 12 17 26 -7 22 -15 21
145 21 129 0 140 -2 165 -18 26 -18 55 -18 55 1 0 17 -51 47 -95 56 -25 5 -22
7 18 8 29 0 47 -3 47 -10 0 -8 12 -10 36 -6 29 5 40 2 58 -16 32 -32 113 -34
169 -3 l42 23 55 -18 c30 -10 67 -19 83 -19 38 0 35 27 -5 46 -32 15 -32 15
27 8 33 -3 98 -7 145 -7 70 -2 85 1 85 13 0 12 -19 17 -80 22 -44 4 -128 13
-186 20 -114 15 -175 8 -165 -18 3 -7 1 -14 -4 -14 -6 0 -10 61 -10 154 l0
154 46 -5 c55 -6 100 11 132 49 l23 27 44 -20 c28 -13 65 -19 102 -19 50 1 83
-3 103 -10 3 -1 9 -2 14 -1 12 3 26 -20 26 -43 0 -15 -5 -17 -27 -11 -16 4
-48 12 -73 17 -25 5 -57 11 -71 14 -16 4 -37 -1 -53 -10 -14 -9 -38 -24 -53
-33 -33 -20 -41 -22 -108 -25 -48 -3 -69 -13 -59 -30 7 -11 123 2 158 19 17 8
47 23 66 33 39 21 60 20 163 -12 77 -24 70 -4 69 -188 -2 -175 -5 -200 -36
-252 -15 -27 -32 -51 -37 -54 -27 -16 -517 -1 -551 17 -30 16 -145 23 -188 12
-19 -5 -52 -8 -73 -5 -30 3 -37 8 -32 20 5 13 1 12 -17 -4 -46 -40 -65 -50
-39 -21 14 15 20 27 15 27 -5 0 -18 -14 -29 -30 -11 -16 -23 -30 -27 -30 -3 0
-4 -9 -1 -20 7 -26 33 -26 66 0 20 16 37 19 91 17 36 -2 70 1 75 6 5 5 32 10
60 10 36 1 56 -4 72 -19 17 -16 37 -19 113 -20 137 -2 440 -15 445 -20 2 -2
-4 -15 -13 -28 -9 -14 -16 -35 -16 -47 0 -13 -5 -37 -12 -56 -11 -29 -10 -35
8 -48 10 -8 28 -12 39 -9 11 3 38 7 60 10 22 2 55 11 73 20 19 9 40 17 46 18
17 3 78 36 105 57 13 10 27 16 31 14 5 -3 11 4 15 15 3 11 12 20 18 20 7 1 42
2 79 3 74 2 92 12 63 33 -16 12 -17 16 -6 23 8 5 20 7 27 4 6 -2 14 -1 17 4 5
8 83 9 204 2 34 -2 60 -5 58 -8 -7 -7 41 -29 100 -46 30 -8 80 -22 110 -31 56
-15 75 -13 75 10 0 12 -54 36 -83 36 -63 0 -177 69 -177 107 0 7 -7 16 -16 21
-27 15 -2 22 100 27 91 5 95 4 102 -17 4 -13 17 -36 29 -53 13 -16 29 -47 36
-69 8 -21 20 -41 27 -44 19 -7 34 18 26 43 -3 11 -7 28 -8 38 -1 10 -7 22 -13
25 -5 4 -17 20 -25 37 -16 29 -16 30 30 70 25 22 55 41 66 41 11 1 29 12 39
25 12 15 21 19 24 12 2 -7 11 -9 19 -6 10 3 12 0 8 -10 -7 -19 26 -31 81 -28
30 1 36 -1 25 -9 -8 -5 -25 -10 -37 -10 -13 0 -23 -6 -23 -14 0 -20 51 -24
120 -10 77 16 110 33 110 58 0 35 12 41 92 42 53 1 85 7 106 19 16 10 37 15
47 12 24 -10 10 -25 -30 -33 -35 -6 -74 -39 -61 -51 10 -11 130 17 142 33 14
17 54 19 54 2 -1 -20 -26 -48 -43 -48 -26 0 -111 -31 -126 -45 -12 -12 -10
-15 13 -21 14 -3 36 -3 49 1 12 3 40 9 62 12 22 2 53 11 68 18 17 9 37 11 50
6 44 -15 175 10 220 43 l27 20 63 -23 c105 -39 200 -62 237 -57 19 3 64 12
100 21 50 12 74 14 105 6 22 -6 51 -10 65 -9 14 0 50 -5 80 -11 30 -7 69 -15
85 -18 17 -2 42 -16 56 -29 15 -14 43 -27 65 -30 67 -9 79 -11 95 -18 9 -4 21
0 30 10 11 14 11 19 -6 33 -23 19 -23 76 0 67 7 -2 19 2 27 11 11 13 9 18 -11
32 -14 8 -29 16 -35 16 -6 1 -28 5 -48 9 -36 8 -38 10 -38 48 0 36 2 39 23 32
29 -10 147 -11 147 -1 0 4 4 7 9 7 4 0 8 -32 7 -71 -1 -64 -4 -73 -23 -80 -11
-4 -24 -12 -27 -17 -10 -17 42 -69 71 -72 33 -3 151 -3 206 -1 l37 1 0 53 0
54 -37 0 c-21 0 -43 -4 -49 -8 -8 -6 -11 8 -12 49 0 31 3 48 6 37 4 -11 14
-19 22 -19 8 1 28 2 43 3 27 1 28 3 25 43 -2 35 -7 44 -24 46 -11 2 -28 -7
-40 -20 -10 -12 -12 -17 -4 -11 12 9 19 8 34 -2 18 -14 18 -14 0 -13 -11 0
-23 0 -29 -2 -25 -6 -33 2 -33 35 0 27 4 36 17 34 56 -5 81 1 81 22 0 19 -5
20 -47 17 l-48 -3 0 35 c-1 44 4 62 17 54 18 -11 78 6 78 22 0 13 -9 15 -45
12 -26 -2 -45 1 -45 7 0 6 19 9 45 7 41 -4 45 -2 45 18 0 21 -4 22 -44 18 -54
-6 -53 -8 -46 122 l5 95 35 2 35 3 -32 -15 c-30 -13 -45 -34 -25 -36 4 0 21
-2 39 -4 l31 -5 0 51 1 51 -42 -4 -42 -3 1 125 c0 165 14 733 19 835 3 44 7
202 10 350 6 311 12 498 25 854 5 139 9 256 8 260 0 3 0 22 1 41 1 27 4 31 11
20 7 -11 10 -6 10 20 0 26 -3 31 -10 20 -8 -13 -10 -12 -10 3 0 9 5 17 10 17
6 0 10 14 10 30 0 17 -4 30 -10 30 -6 0 -7 56 -4 148 2 81 7 273 10 427 l6
280 -48 -1 c-27 0 -54 4 -61 9 -7 5 -17 6 -23 2 -5 -3 -10 -2 -10 4 0 10 -14
9 -42 -3 -9 -4 -21 -5 -26 -2 -5 3 -18 -1 -28 -9 -18 -14 -18 -16 -1 -26 16
-10 18 -37 16 -410 l-1 -400 -59 3 -59 3 5 80 c2 44 7 190 10 325 7 310 14
442 26 455 13 13 11 62 -3 71 -15 9 19 34 47 34 20 0 21 -4 15 -51 -5 -38 -3
-52 7 -56 30 -12 43 6 43 56 l0 50 86 -5 c47 -2 90 -7 95 -10 5 -3 9 6 9 20 0
14 -6 27 -12 28 -50 6 -74 7 -160 8 -90 1 -98 2 -98 20 0 24 25 25 150 6 47
-7 93 -10 103 -8 16 4 17 26 17 288 l0 283 -42 12 c-48 13 -108 -1 -145 -34
-31 -28 -39 -89 -18 -134 13 -28 15 -41 7 -54 -6 -9 -14 -51 -18 -93 -7 -74
-7 -76 -34 -76 l-27 0 -7 113 c-12 198 -13 222 -6 232 4 6 10 31 12 57 6 53
-11 88 -58 119 -54 35 -142 16 -180 -40 -29 -44 -30 -85 -3 -130 17 -28 19
-39 10 -58 -6 -13 -11 -37 -11 -52 0 -36 -3 -37 -162 -40 -147 -3 -133 -15
-143 129 -3 52 -11 112 -16 134 -9 33 -8 41 11 61 40 43 22 133 -36 185 -38
33 -68 37 -117 16 -80 -33 -116 -130 -77 -206 21 -40 21 -44 6 -138 -9 -53
-17 -115 -18 -137 l-3 -40 -145 0 c-80 0 -150 -3 -156 -7 -8 -6 -14 23 -19 98
-6 91 -5 108 10 124 51 56 -17 170 -102 170 -125 0 -199 -91 -146 -181 15 -25
16 -37 5 -99 -15 -86 -15 -133 -2 -125 6 3 10 1 10 -4 0 -6 -4 -11 -10 -11 -5
0 -12 -27 -16 -61 l-7 -61 -86 5 c-145 9 -191 18 -202 39 -6 10 -17 59 -24
107 -8 49 -19 101 -25 116 -8 22 -6 31 10 52 25 32 27 99 4 132 -21 30 -89 60
-135 61 -54 0 -120 -39 -135 -80 -7 -19 -13 -44 -13 -55 0 -29 33 -90 48 -87
7 1 10 -2 7 -7 -4 -5 -2 -12 3 -15 9 -6 5 -352 -5 -367 -3 -5 -34 -9 -70 -9
-60 0 -64 2 -64 23 0 12 -13 57 -28 101 -23 67 -33 83 -70 109 -40 29 -53 32
-155 40 -62 5 -140 9 -174 11 -34 1 -65 5 -69 8 -3 4 -17 3 -30 -3 -31 -11
-71 12 -85 49 -17 45 6 48 44 7 32 -35 37 -37 64 -28 21 8 35 7 49 0 44 -25
94 -13 94 23 0 15 -7 20 -26 20 -22 0 -25 2 -14 15 13 15 70 21 70 7 0 -4 -5
-13 -12 -20 -14 -14 9 -43 54 -65 27 -13 35 -13 69 1 33 12 44 13 63 3 14 -8
36 -10 55 -6 39 8 50 25 16 25 -17 0 -29 8 -37 25 -10 23 -14 24 -69 18 -50
-5 -59 -3 -59 10 0 21 19 32 50 29 30 -3 55 12 46 27 -4 6 -16 11 -27 11 -10
0 -27 4 -37 10 -9 5 -29 14 -44 20 -16 5 -28 16 -28 25 0 17 21 20 37 4 6 -6
23 -9 39 -7 32 3 46 28 16 28 -11 0 -36 19 -56 45 -39 47 -65 56 -86 30 -14
-17 -30 -20 -30 -5 0 6 5 9 11 8 22 -5 20 22 -2 31 -20 7 -24 16 -25 64 -1 38
3 60 12 68 18 15 18 90 0 133 -8 20 -25 37 -45 45 -17 8 -31 17 -31 22 0 13
37 11 60 -3 22 -14 48 1 36 21 -11 17 -77 31 -96 21 -14 -7 -27 2 -66 46 -47
54 -50 55 -90 50 -36 -5 -42 -2 -52 18 -9 20 -18 24 -59 23 -26 0 -59 -3 -73
-7z m80 -111 c0 -6 -4 -7 -10 -4 -5 3 -10 11 -10 16 0 6 5 7 10 4 6 -3 10 -11
10 -16z m-341 -16 c-17 -15 -40 -45 -50 -68 -22 -48 -25 -30 -4 23 16 38 50
71 73 72 8 0 -1 -12 -19 -27z m297 -68 c-6 -19 -14 -35 -18 -35 -11 0 -10 7 7
40 21 40 24 38 11 -5z m-250 -23 c-14 -14 -16 -14 -16 -1 0 20 23 44 29 28 2
-6 -4 -18 -13 -27z m464 8 c0 -16 -4 -30 -10 -30 -5 0 -10 14 -10 30 0 17 5
30 10 30 6 0 10 -13 10 -30z m-150 -12 c0 -5 -4 -8 -10 -8 -5 0 -10 10 -10 23
0 18 2 19 10 7 5 -8 10 -18 10 -22z m-187 -23 c-3 -9 -8 -14 -10 -11 -3 3 -2
9 2 15 9 16 15 13 8 -4z m467 -42 c0 -23 -5 -33 -15 -33 -17 0 -18 12 -9 60 8
39 24 21 24 -27z m-700 -23 c17 -32 100 -92 154 -111 49 -17 57 -17 83 -4 15
8 43 15 61 15 19 0 77 17 130 39 54 21 110 41 127 45 29 7 29 7 11 -13 -10
-11 -39 -30 -65 -42 -25 -12 -55 -30 -66 -41 -11 -10 -31 -26 -44 -36 -13 -11
-21 -23 -18 -29 9 -15 163 64 215 110 21 19 22 19 22 2 0 -10 6 -23 14 -29 24
-18 8 -64 -28 -83 -30 -15 -31 -15 -14 3 9 11 20 32 24 48 6 26 5 27 -14 17
-12 -6 -25 -17 -29 -24 -31 -50 -147 -106 -273 -131 -139 -28 -173 -29 -253
-11 -71 16 -80 21 -75 43 1 9 39 3 53 -8 16 -13 83 -23 97 -14 7 4 24 8 38 8
14 1 24 6 23 13 -2 7 9 15 25 18 59 12 133 39 145 53 14 17 6 16 -93 -13 -90
-26 -200 -4 -200 40 0 7 -8 19 -19 29 -15 13 -24 15 -46 6 -36 -14 -61 -5 -68
23 -3 12 -9 32 -12 45 -9 28 4 28 33 1 23 -20 42 -18 42 5 0 8 -7 19 -15 26
-8 7 -15 16 -15 20 0 14 40 -2 50 -20z m346 -45 c-11 -8 -33 -15 -48 -15 -16
0 -42 -7 -58 -15 -24 -12 -34 -13 -66 -1 -63 21 -55 37 18 32 34 -2 83 0 108
4 65 11 67 11 46 -5z m2205 -28 c25 -19 41 -57 35 -81 -8 -32 -50 -52 -78 -38
-13 6 -33 13 -44 17 -44 12 -33 77 16 102 31 16 51 16 71 0z m-2664 -69 c-3
-8 -6 -5 -6 6 -1 11 2 17 5 13 3 -3 4 -12 1 -19z m123 -21 c0 -18 46 -46 77
-47 17 0 35 -4 38 -10 10 -16 -23 -12 -94 11 -100 32 -117 39 -103 48 17 10
82 9 82 -2z m1969 -42 c38 -19 49 -78 22 -115 -24 -32 -44 -36 -97 -15 -54 21
-67 53 -37 93 19 25 57 52 76 52 4 0 21 -7 36 -15z m-580 -67 c38 -39 46 -61
31 -88 -15 -27 -68 -60 -98 -60 -35 0 -80 30 -87 57 -8 32 12 100 33 112 9 6
33 11 53 11 28 0 44 -7 68 -32z m-799 8 c0 -15 -18 -31 -26 -23 -7 7 7 37 17
37 5 0 9 -6 9 -14z m-1195 -31 c45 -34 50 -67 13 -105 -29 -30 -66 -50 -93
-50 -8 0 -29 13 -47 28 -38 35 -41 75 -9 121 19 26 29 31 63 31 28 0 51 -8 73
-25z m1040 -11 c0 -17 5 -37 12 -45 9 -11 8 -20 -7 -39 -11 -14 -20 -29 -20
-33 0 -4 -16 -21 -35 -38 -19 -17 -35 -37 -35 -44 0 -25 29 -24 48 0 l20 25 7
-23 c4 -12 7 -25 6 -29 0 -4 11 -16 26 -27 l26 -21 -21 -43 c-12 -23 -24 -54
-26 -68 -4 -16 -21 -36 -46 -53 -22 -14 -40 -31 -40 -36 0 -17 48 -11 67 9 10
10 27 21 39 25 15 5 24 21 34 61 9 36 23 64 44 84 30 29 34 30 64 19 20 -8 30
-18 29 -29 -3 -21 -26 -49 -39 -49 -12 0 -63 -54 -94 -100 -13 -19 -53 -73
-89 -120 -95 -123 -103 -144 -119 -287 -6 -50 -46 -62 -81 -23 -10 11 -21 47
-26 82 -5 35 -11 72 -13 83 -2 11 -4 23 -5 28 0 4 -12 12 -25 17 -18 7 -27 19
-32 47 -3 21 -12 45 -18 53 -23 29 -34 88 -25 130 9 39 0 75 -21 90 -4 3 -5
19 -3 36 4 26 8 30 29 26 24 -4 29 6 26 51 -2 26 5 23 54 -21 27 -25 89 -26
139 -3 25 12 45 26 45 31 0 13 -10 13 -64 -2 -38 -10 -49 -9 -90 10 -25 12
-46 27 -46 33 0 5 -14 24 -30 42 -17 18 -33 40 -36 49 -3 9 -13 19 -22 22 -22
7 -56 63 -43 70 5 4 20 2 33 -3 13 -5 48 -7 78 -4 30 2 73 5 95 7 22 2 49 6
60 9 91 28 123 35 145 34 21 -2 25 -7 25 -33z m2122 29 c-5 -10 10 -239 18
-270 5 -21 2 -23 -30 -23 -19 0 -35 5 -35 10 0 6 -8 10 -17 10 -15 0 -14 2 3
15 18 14 18 16 1 29 -12 10 -14 15 -6 18 8 3 10 11 6 22 -6 14 -14 17 -37 12
-17 -3 -30 -1 -30 4 0 6 15 10 34 10 19 0 37 4 40 9 8 12 -21 34 -34 26 -6 -4
-19 -3 -28 1 -13 6 -7 9 21 13 47 7 53 25 10 29 -18 2 -33 7 -33 12 0 5 13 7
29 4 20 -4 30 -1 34 9 8 22 -19 43 -36 28 -8 -6 -17 -8 -20 -5 -12 12 4 24 31
24 15 0 34 5 42 10 18 11 43 13 37 3z m522 -29 c54 -45 39 -98 -29 -104 -58
-5 -60 -3 -60 49 0 40 4 53 22 65 29 21 31 20 67 -10z m-3139 -74 c0 -5 -4
-10 -10 -10 -5 0 -10 5 -10 10 0 6 5 10 10 10 6 0 10 -4 10 -10z m603 -16 c-4
-10 -9 -12 -15 -6 -12 12 -1 35 12 27 5 -3 6 -13 3 -21z m1459 -66 c3 -40 5
-113 4 -163 l-1 -90 -30 3 c-30 3 -61 22 -37 22 7 0 12 6 12 14 0 12 -11 13
-57 9 -41 -5 -54 -3 -49 5 4 7 24 12 45 12 21 0 40 3 44 6 12 13 -6 34 -32 35
l-26 1 25 7 c41 11 32 37 -12 33 -46 -4 -51 15 -5 20 41 4 45 33 5 33 -42 0
-38 20 5 23 37 3 50 23 25 38 -7 5 -4 10 10 15 13 5 20 14 16 23 -5 13 9 21
42 25 7 1 13 -27 16 -71z m1395 54 c21 -13 33 -60 22 -85 -16 -36 -48 -45 -91
-27 -40 16 -47 35 -29 84 12 31 68 47 98 28z m-1988 -63 c8 -18 17 -64 21
-103 4 -39 12 -82 19 -94 7 -13 11 -44 9 -70 l-3 -47 -45 -6 c-25 -4 -51 -2
-57 3 -7 6 -22 8 -33 5 -31 -8 -24 3 10 14 36 13 38 27 8 38 l-23 8 23 7 c26
9 30 36 5 36 -17 1 -17 1 0 11 9 5 17 14 17 19 0 15 -40 22 -55 10 -12 -10
-15 -9 -15 3 0 9 15 20 35 27 19 6 35 16 35 21 0 16 -27 21 -49 9 -22 -11 -27
-4 -12 18 7 12 24 18 54 21 12 1 8 31 -4 31 -8 0 -8 4 0 14 10 11 8 15 -6 18
-15 3 -12 7 12 20 41 21 38 22 54 -13z m471 21 c0 -5 -4 -10 -10 -10 -5 0 -10
5 -10 10 0 6 5 10 10 10 6 0 10 -4 10 -10z m1219 -62 c0 -35 3 -74 6 -88 8
-31 7 -95 -1 -133 -5 -26 -9 -28 -38 -23 -17 4 -52 9 -78 12 -50 7 -68 27 -20
23 51 -4 72 1 72 16 0 11 -13 15 -47 17 l-48 1 45 6 c31 4 45 11 45 21 0 11
-11 15 -42 14 -32 0 -43 3 -43 14 0 11 9 13 39 9 21 -2 44 -1 51 3 22 14 0 30
-43 31 -38 0 -39 1 -18 10 14 5 30 8 37 5 7 -3 18 2 24 9 10 12 9 16 -5 21
-16 6 -16 8 -1 16 28 16 17 28 -24 28 -22 0 -40 4 -40 8 0 6 77 32 122 41 3 0
7 -27 7 -61z m-4215 20 c32 -28 44 -79 23 -100 -8 -8 -29 -27 -47 -41 -38 -33
-35 -61 6 -51 26 7 26 6 20 -33 -6 -34 3 -119 19 -178 6 -23 -23 -48 -70 -59
-30 -7 -30 -7 -7 9 12 9 22 20 22 26 0 13 -44 11 -58 -3 -7 -7 -12 -8 -12 -3
0 5 15 21 33 36 29 26 30 28 10 29 -33 0 -38 18 -8 32 27 12 29 34 2 32 -13
-1 -16 8 -15 53 1 30 6 57 11 60 5 3 -6 17 -23 32 -28 23 -32 33 -35 84 -2 51
0 59 23 77 33 26 75 25 106 -2z m3579 -15 c-7 -2 -21 -2 -30 0 -10 3 -4 5 12
5 17 0 24 -2 18 -5z m540 -30 c-7 -2 -19 -2 -25 0 -7 3 -2 5 12 5 14 0 19 -2
13 -5z m-548 -13 c-3 -5 -12 -10 -18 -10 -7 0 -6 4 3 10 19 12 23 12 15 0z
m-1675 -42 c152 6 198 -2 151 -27 -36 -20 -24 -33 26 -30 26 2 48 -1 50 -6 2
-6 -9 -11 -23 -12 -15 0 -34 -8 -42 -17 -15 -15 -13 -16 18 -18 19 0 45 0 58
1 14 1 22 -4 22 -14 0 -8 -8 -15 -19 -15 -10 0 -24 -6 -30 -14 -10 -12 -8 -17
8 -25 11 -6 26 -8 34 -5 11 4 15 -10 20 -63 3 -37 2 -88 -2 -113 -3 -25 -3
-74 1 -110 3 -36 8 -102 11 -147 l4 -83 -55 -15 c-65 -19 -89 -15 -45 8 58 30
95 97 54 97 -13 0 -21 8 -23 22 -5 39 -36 34 -54 -9 -17 -40 -42 -73 -55 -73
-4 0 -5 16 -2 36 6 36 -7 95 -34 150 -10 21 -13 43 -8 63 12 57 -24 66 -44 10
-10 -30 3 -95 29 -141 14 -25 12 -69 -5 -118 -25 -70 -14 -90 27 -54 14 14 20
14 33 4 25 -21 18 -26 -50 -36 -66 -10 -77 -7 -50 16 8 7 15 16 15 21 0 20
-27 7 -58 -27 -18 -20 -36 -33 -39 -30 -4 3 3 16 15 29 26 28 42 70 49 128 3
30 1 49 -7 54 -18 11 -23 0 -31 -65 -7 -65 -28 -98 -86 -142 -32 -25 -45 -28
-112 -28 l-76 0 3 97 c3 70 8 101 18 109 8 6 21 42 30 80 17 76 51 173 67 189
9 9 8 -6 -8 -145 -9 -77 -17 -100 -35 -110 -24 -13 -39 -61 -42 -135 -3 -64 9
-83 29 -44 12 24 13 24 13 2 0 -28 17 -38 36 -22 9 8 13 21 10 35 -4 13 0 29
9 38 11 11 15 38 15 108 0 115 17 262 36 307 8 18 12 37 9 41 -11 17 -77 -18
-101 -53 -18 -27 -32 -37 -51 -37 -29 0 -32 -6 46 90 24 30 51 62 60 70 28 26
53 71 47 86 -5 14 35 82 57 96 7 5 23 5 37 2 14 -4 32 -7 40 -6z m2624 -17 c8
-15 18 -58 22 -95 l7 -66 -49 1 c-27 0 -43 3 -36 6 26 10 10 23 -30 24 -24 1
-34 3 -23 6 11 2 30 6 43 9 31 6 18 24 -18 24 -21 0 -28 4 -24 14 3 8 11 13
18 10 7 -3 26 0 41 6 23 9 26 13 15 20 -8 6 -25 10 -37 10 -13 0 -23 5 -23 10
0 6 11 10 25 10 31 0 33 20 3 21 -19 1 -17 3 7 9 17 4 33 8 37 9 4 0 14 -12
22 -28z m-916 4 c262 -4 347 -3 358 6 12 10 18 9 32 -4 14 -15 15 -17 1 -17
-12 0 -15 -7 -12 -24 3 -13 -1 -27 -9 -32 -7 -5 -183 -9 -390 -9 l-378 0 0 41
c0 47 4 54 33 49 12 -2 177 -6 365 -10z m-3195 -72 c-7 -2 -19 -2 -25 0 -7 3
-2 5 12 5 14 0 19 -2 13 -5z m2384 -64 c-7 -4 -42 -10 -79 -14 -60 -6 -67 -5
-62 10 5 13 20 15 80 13 40 -2 67 -6 61 -9z m864 5 l44 -6 2 -69 3 -68 -26 9
c-14 6 -30 8 -35 4 -16 -9 -10 -31 9 -37 20 -5 20 -25 13 -547 -1 -58 -2 -280
-2 -494 1 -214 -1 -391 -3 -395 -7 -11 -17 -452 -21 -911 -6 -519 -12 -933
-20 -1230 -3 -113 -8 -312 -10 -444 -3 -131 -8 -243 -11 -247 -13 -21 -25 6
-20 44 17 135 20 527 13 1992 -1 286 1 597 5 690 22 487 22 486 7 497 -12 8
-12 9 1 5 13 -4 15 19 12 172 -1 97 -3 325 -5 506 -2 323 -2 330 -22 330 -19
0 -20 -7 -21 -165 0 -127 -3 -164 -13 -162 -8 1 -10 -2 -5 -10 4 -7 10 -24 13
-38 7 -37 4 -1012 -4 -1105 -4 -44 -8 -352 -10 -685 -3 -571 -14 -1567 -20
-1820 -2 -63 -3 -148 -4 -187 -1 -40 -5 -73 -9 -73 -4 0 -8 348 -8 773 1 424
-3 977 -8 1227 -10 522 -8 693 10 1140 5 124 9 428 8 677 l0 452 25 7 c15 4
35 9 45 11 49 9 20 34 -30 26 -17 -3 -40 -1 -49 5 -15 8 -11 10 19 16 44 8 43
32 -1 28 -29 -3 -29 -2 -27 40 2 24 3 44 3 46 2 4 109 2 152 -4z m327 -3 c8
-5 -8 -6 -40 -4 -73 6 -83 11 -23 12 28 0 56 -3 63 -8z m-847 -27 c52 -3 143
-8 204 -10 60 -3 110 -6 111 -7 1 -1 -1 -18 -3 -39 l-5 -36 -214 1 c-186 2
-214 4 -214 18 0 8 -4 19 -9 25 -5 5 -7 22 -4 37 4 20 10 26 23 22 9 -3 59 -8
111 -11z m884 -19 c88 -3 240 -10 338 -16 196 -13 187 -9 166 -82 -7 -25 -15
-37 -23 -34 -39 15 -172 23 -536 32 l-205 6 -7 46 c-4 26 -4 51 -1 56 3 5 28
6 57 3 28 -4 123 -9 211 -11z m-1060 -44 c0 -22 -3 -42 -7 -46 -4 -4 -33 -7
-65 -7 -31 0 -69 -4 -83 -9 -14 -4 -61 -10 -105 -14 -123 -9 -370 -39 -405
-50 -8 -2 -30 -7 -47 -10 l-33 -5 -1 45 c-1 25 -2 51 -3 58 -1 8 26 14 89 19
141 11 203 17 295 28 131 17 239 27 305 29 l60 1 0 -39z m-2245 -13 l0 -38
-142 1 c-145 1 -411 -15 -428 -26 -6 -4 -10 3 -10 14 0 11 -4 22 -9 26 -15 9
-8 44 9 43 19 -1 374 14 377 16 1 0 47 1 102 1 l101 1 0 -38z m2361 -48 c32 0
41 -4 48 -22 5 -13 5 -27 0 -32 -5 -6 -9 -27 -9 -47 l0 -37 -77 5 c-43 3 -79
7 -81 8 -1 1 -4 17 -7 35 -6 52 -37 62 -55 16 -5 -14 -3 -26 7 -38 11 -12 12
-21 4 -36 -8 -15 -8 -24 2 -34 8 -9 12 -50 13 -123 0 -60 3 -283 7 -495 26
-1484 26 -1462 9 -1455 -20 8 -52 -13 -52 -34 0 -11 -9 -21 -21 -24 -12 -3
-18 -10 -15 -16 4 -5 2 -12 -4 -16 -6 -3 -10 -25 -10 -48 2 -117 0 -123 -33
-148 -29 -22 -75 -49 -82 -49 -2 0 -4 89 -5 198 -1 108 -4 220 -5 247 -2 28
-6 158 -9 290 -3 132 -8 285 -11 340 -3 55 -7 280 -10 500 -3 220 -8 493 -11
608 -5 153 -3 211 5 221 9 11 10 20 1 36 -15 29 -44 22 -48 -12 -4 -37 -51
-49 -173 -46 -97 3 -121 -7 -74 -32 17 -9 25 -22 25 -40 0 -14 5 -31 10 -36
12 -12 24 -313 45 -1094 4 -118 8 -222 11 -231 2 -9 6 -97 8 -195 6 -264 16
-561 22 -628 2 -33 7 -156 10 -273 5 -181 4 -213 -9 -213 -16 0 -47 -32 -51
-52 -4 -26 -21 -44 -57 -61 -20 -9 -42 -23 -49 -32 -7 -8 -18 -15 -25 -15 -7
0 -23 -8 -36 -18 -24 -19 -89 -45 -96 -39 -2 2 -8 55 -13 118 -5 63 -16 186
-24 274 -8 88 -17 196 -20 240 -3 44 -10 134 -16 200 -15 155 -22 596 -10 610
5 6 7 44 6 85 -1 42 3 94 11 119 7 24 13 54 13 67 0 49 -107 169 -167 188 -22
7 -23 12 -23 118 l0 111 24 -36 c20 -30 42 -90 39 -107 -1 -3 -4 -24 -7 -46
-6 -39 -5 -42 21 -47 15 -3 31 -3 35 0 5 2 8 29 8 59 0 44 6 64 28 97 16 23
38 60 49 82 11 22 31 58 43 80 13 22 29 52 37 67 8 15 22 30 32 33 18 5 30 47
34 115 2 22 -2 25 -30 25 -17 0 -29 4 -26 9 4 5 5 30 4 55 -1 37 3 49 24 65
l25 21 -11 90 c-6 50 -13 99 -14 110 -2 11 -4 23 -4 28 -1 4 -7 7 -15 7 -9 0
-15 22 -20 78 -3 42 -7 88 -9 102 -2 24 1 25 71 34 64 7 75 6 86 -9 7 -10 11
-28 8 -40 -5 -30 30 -39 115 -29 52 5 63 10 61 23 -3 13 -14 15 -61 13 -40 -2
-62 1 -72 12 -26 26 10 55 90 71 92 20 92 20 110 -15 13 -25 19 -29 34 -20 12
6 17 17 14 29 -3 13 1 21 14 24 27 8 138 17 221 19 71 1 102 13 102 40 0 5 7
7 16 4 9 -3 33 -6 55 -6z m399 -184 c3 -1050 1 -1193 -16 -1207 -8 -7 -31 -40
-50 -73 -19 -34 -54 -78 -77 -98 -40 -35 -42 -39 -41 -92 1 -43 5 -60 20 -70
18 -13 19 -29 18 -222 l0 -208 -55 -4 c-29 -1 -59 -8 -66 -15 -7 -7 -13 -43
-14 -80 -4 -116 -40 -100 -39 18 0 39 -2 342 -5 675 -11 1401 -11 1385 7 1404
22 22 34 84 19 99 -15 15 -14 23 5 42 14 13 39 15 155 14 l139 -2 0 -181z
m395 139 c1 -52 14 -65 65 -65 40 0 50 -4 55 -20 8 -25 42 -26 49 -2 2 9 7 35
11 57 l6 40 77 -3 c42 -2 82 -5 89 -7 7 -2 10 -22 8 -57 -2 -29 -4 -59 -4 -67
-1 -11 -13 -12 -58 -6 -84 11 -145 14 -165 9 -22 -7 -24 -31 -2 -36 13 -3 15
-36 14 -278 -1 -151 -4 -306 -5 -345 -2 -38 -4 -87 -4 -108 -1 -26 -5 -37 -13
-35 -17 6 -55 103 -62 156 -2 24 -6 46 -9 48 -10 11 -37 -10 -37 -29 0 -11 -8
-30 -19 -41 -35 -39 -103 -177 -93 -189 5 -7 10 -87 11 -180 l2 -167 -26 -10
c-36 -14 -31 -30 9 -30 19 0 38 -5 41 -10 6 -9 -17 -72 -44 -120 -4 -8 -19
-17 -32 -20 -34 -8 -33 -46 1 -43 164 15 190 20 190 44 0 12 -63 11 -96 -1
-15 -6 -29 -8 -31 -6 -7 7 89 186 99 186 4 0 8 -11 8 -25 0 -14 8 -29 20 -35
16 -8 20 -21 20 -60 0 -87 36 -72 39 17 1 43 -2 54 -19 63 -14 7 -20 21 -20
44 0 26 -5 35 -22 40 -37 9 -56 7 -72 -10 -15 -14 -16 -12 -17 23 0 21 -3 50
-5 65 -3 16 2 32 11 42 15 15 15 16 -5 16 -12 0 -18 4 -15 11 4 6 8 40 10 76
2 48 8 69 19 75 17 10 22 48 6 48 -17 0 -10 33 15 74 21 35 25 37 31 20 4 -10
15 -38 24 -61 18 -41 18 -42 -3 -57 -22 -15 -22 -16 -2 -31 11 -9 20 -23 20
-32 0 -16 14 -27 48 -37 16 -5 17 -20 12 -203 -3 -109 -12 -315 -20 -458 -8
-143 -15 -318 -16 -390 -3 -303 -6 -494 -12 -725 -4 -135 -9 -371 -12 -525 -3
-154 -8 -287 -11 -296 -5 -19 -99 -29 -201 -21 l-63 4 5 162 c5 156 7 551 7
1341 -1 209 1 427 3 485 3 58 7 188 10 290 3 102 8 219 10 260 3 41 6 302 6
580 1 278 4 524 7 548 l4 43 77 -3 c68 -3 76 -5 76 -23z m131 4 c9 -15 -16
-30 -46 -27 -14 2 -26 10 -28 21 -3 13 4 17 32 17 19 0 38 -5 42 -11z m-3766
-19 c0 -19 -80 -79 -106 -80 -6 0 -17 -7 -24 -15 -6 -8 -62 -42 -123 -75 -146
-78 -198 -109 -218 -126 -8 -8 -19 -14 -24 -14 -5 0 -19 -10 -32 -22 l-23 -21
0 26 c0 14 -4 29 -10 32 -19 12 -10 41 18 53 15 6 45 24 68 39 22 16 81 54
130 86 49 32 108 72 132 88 33 22 47 27 61 19 10 -5 21 -7 24 -4 5 5 93 29
120 33 4 1 7 -8 7 -19z m317 -11 c-3 -12 -3 -35 0 -50 4 -22 11 -29 29 -29 26
0 31 18 14 50 -7 13 -5 21 7 31 20 17 123 19 123 3 0 -6 7 -25 16 -42 8 -18
13 -40 10 -49 -12 -39 -15 -93 -4 -93 7 0 6 -5 -2 -15 -9 -10 -10 -31 -6 -66
6 -43 4 -55 -13 -73 -12 -13 -21 -41 -24 -73 -3 -29 -8 -57 -11 -62 -4 -6 1
-17 11 -26 16 -14 18 -28 15 -118 -10 -247 -10 -240 21 -255 24 -12 27 -18 27
-67 0 -43 5 -59 24 -80 14 -15 28 -41 32 -58 3 -18 13 -41 20 -51 11 -16 11
-25 -2 -55 -8 -19 -15 -54 -14 -76 1 -77 0 -90 -4 -170 -5 -65 -2 -82 12 -98
16 -18 15 -20 -16 -45 -35 -29 -44 -76 -19 -100 6 -7 14 -43 17 -79 4 -52 9
-68 25 -77 11 -6 22 -12 24 -14 3 -1 -3 -8 -13 -15 -21 -16 -12 -43 16 -51 31
-7 39 1 28 30 -7 18 -6 26 3 29 6 2 35 11 63 20 28 8 57 13 65 10 20 -7 43 10
36 28 -3 9 -16 17 -29 19 -39 5 400 142 635 197 79 18 268 26 277 11 5 -8 15
-10 26 -5 34 14 46 14 71 -2 21 -14 22 -18 9 -25 -19 -11 -269 -30 -315 -24
-19 2 -42 0 -50 -4 -9 -5 -47 -16 -86 -25 -107 -26 -187 -51 -267 -84 -40 -16
-100 -37 -133 -46 -111 -32 -193 -74 -180 -94 4 -7 19 -4 45 9 22 11 47 20 57
19 11 0 13 -3 6 -6 -16 -6 -17 -124 -2 -228 15 -115 38 -432 40 -560 1 -83 7
-137 20 -175 35 -110 42 -146 40 -211 -1 -53 2 -68 15 -73 8 -3 20 -4 25 0 5
3 9 2 10 -3 0 -4 2 -17 5 -28 2 -11 6 -139 9 -285 2 -146 6 -274 9 -285 53
-231 56 -248 56 -354 0 -116 9 -141 51 -141 23 0 23 4 4 33 -8 12 -13 36 -11
52 2 17 5 50 6 75 l2 45 20 -44 c14 -30 20 -68 22 -125 1 -44 5 -87 9 -93 13
-20 37 -15 46 9 8 21 8 21 15 -6 6 -26 13 -37 44 -71 35 -39 54 4 22 48 -14
18 -25 50 -28 79 -5 57 -16 67 -44 42 -15 -15 -19 -16 -17 -4 5 26 -12 114
-27 137 -7 12 -18 72 -24 135 -6 62 -18 160 -26 218 -9 57 -13 118 -9 136 4
23 1 33 -10 38 -23 8 -44 -33 -39 -79 5 -53 21 -199 28 -255 l6 -45 -15 40
c-32 81 -55 297 -57 534 -2 293 -1 358 7 461 7 93 -2 123 -31 104 -14 -8 -17
-24 -16 -85 1 -40 -2 -90 -6 -109 l-9 -35 -12 45 c-7 25 -21 69 -31 97 -16 43
-20 90 -25 264 -3 116 -7 221 -10 232 -20 88 -44 397 -31 397 5 0 6 23 3 50
-4 36 -3 52 6 54 7 2 29 9 50 16 21 6 41 9 44 7 6 -7 31 -246 35 -337 2 -50 6
-65 18 -65 12 0 16 21 20 105 l5 105 13 -90 c7 -49 17 -110 22 -135 12 -53 12
-60 2 -210 -9 -135 -7 -477 3 -502 4 -10 16 -18 27 -18 19 0 20 4 13 72 -11
120 -3 489 11 475 2 -2 8 -52 13 -113 6 -61 19 -135 31 -168 12 -33 22 -87 23
-120 1 -62 -11 -228 -18 -256 -10 -35 -8 -381 2 -391 25 -25 32 5 33 149 1 81
3 165 5 187 35 333 35 353 -3 470 -26 76 -42 335 -31 490 4 61 11 163 15 228
4 66 11 117 17 117 6 0 7 -42 3 -118 -7 -123 1 -172 29 -172 11 0 15 -11 15
-39 0 -37 23 -72 37 -57 4 4 9 81 11 173 5 269 19 316 22 73 1 -113 4 -315 6
-450 8 -429 6 -650 -5 -840 -17 -306 -23 -560 -11 -560 29 0 26 -15 29 180 1
63 6 178 11 255 5 77 12 169 14 205 3 36 5 101 6 145 2 52 5 70 9 50 4 -21 12
-30 26 -30 17 0 20 6 17 46 -2 29 7 76 23 125 28 88 31 152 12 210 -8 24 -11
60 -7 93 5 43 2 57 -11 70 -18 18 -32 112 -33 234 -1 74 9 106 16 50 2 -21 9
-29 27 -31 20 -3 22 -8 17 -33 -3 -16 1 -58 10 -92 8 -34 17 -90 20 -125 6
-81 18 -114 39 -106 13 5 14 21 9 102 -3 53 -8 100 -10 104 -16 26 -21 159 -9
251 8 66 10 108 4 119 -11 21 -14 21 -40 8 -17 -10 -19 -7 -19 26 0 32 2 35
16 23 26 -21 35 7 28 84 -4 46 -3 67 5 67 6 0 11 -13 11 -30 0 -16 3 -30 8
-30 4 0 7 -10 8 -22 0 -13 4 -57 8 -98 5 -41 10 -93 12 -115 10 -107 14 -649
5 -635 -6 8 -11 32 -11 53 0 30 -4 37 -20 37 -11 0 -23 -7 -26 -15 -6 -13 13
-166 34 -276 5 -25 7 -77 5 -115 -9 -134 38 -324 80 -324 13 0 17 -8 16 -37
-1 -21 -3 -30 -6 -20 -3 10 -14 17 -29 17 -24 0 -24 -2 -19 -53 l5 -52 -15 50
c-8 28 -15 80 -15 118 0 70 -12 85 -40 52 -11 -13 -11 -35 0 -118 25 -200 24
-197 1 -197 -12 0 -22 -3 -22 -7 -1 -5 -3 -19 -6 -33 -11 -67 -3 -192 16 -238
10 -26 22 -55 25 -65 7 -23 39 -18 44 6 2 10 -6 38 -17 62 -20 44 -26 94 -21
185 l2 45 8 -35 c4 -19 13 -64 19 -100 7 -36 23 -88 38 -116 l26 -51 -23 -30
c-23 -31 -35 -99 -20 -108 5 -3 17 -22 27 -42 18 -38 26 -49 98 -127 25 -27
44 -54 42 -60 -2 -7 -42 -12 -109 -12 -123 -2 -232 -26 -268 -59 -28 -25 -76
-40 -85 -26 -3 6 -45 10 -93 10 -95 -1 -143 13 -176 50 -11 11 -28 21 -39 21
-11 0 -36 5 -54 12 -25 9 -41 9 -62 1 l-28 -10 -1 54 c0 51 1 54 17 39 29 -26
41 -19 41 24 0 27 5 43 15 46 8 4 15 12 15 19 0 7 7 16 15 19 13 5 15 23 9
128 -4 68 -8 125 -10 127 -2 2 -15 -1 -28 -7 -30 -13 -30 -12 -46 106 -6 46
-15 94 -19 105 -5 12 -14 54 -21 92 -7 39 -18 76 -24 84 -6 7 -11 30 -11 50
-2 68 -48 406 -57 416 -5 6 -14 3 -24 -7 -15 -15 -15 -29 5 -175 26 -194 38
-263 56 -328 22 -79 45 -207 45 -247 0 -20 14 -78 30 -128 17 -50 30 -113 30
-138 0 -52 -14 -83 -28 -67 -11 12 -31 143 -31 200 0 22 -7 60 -16 85 -9 25
-21 74 -26 109 -5 36 -16 78 -24 94 -20 40 -42 137 -51 222 -4 39 -8 77 -10
85 -11 60 -25 246 -25 349 0 96 3 127 15 139 11 11 12 21 4 41 -21 55 -38 134
-39 184 0 29 -4 76 -8 104 -4 29 -4 58 1 65 4 7 8 9 8 3 1 -11 26 -183 39
-265 5 -30 20 -92 35 -137 16 -53 23 -93 20 -113 -5 -23 -3 -30 9 -30 39 0 50
63 24 135 -26 73 -37 110 -42 150 -12 96 -44 283 -54 322 -6 23 -11 63 -12 90
-1 26 -6 71 -11 98 -5 28 -11 67 -12 87 -2 50 -18 65 -41 41 -18 -17 -18 -16
-12 45 6 57 5 62 -12 62 -42 0 -48 -120 -17 -284 23 -114 27 -153 42 -371 4
-49 10 -98 15 -107 5 -10 11 -120 13 -245 3 -153 9 -257 20 -317 9 -49 15 -95
12 -102 -2 -6 -31 -15 -63 -19 -32 -4 -74 -15 -94 -24 -39 -19 -109 -16 -186
10 l-43 14 0 200 c-1 349 -5 420 -25 423 -15 4 -16 -38 -11 -600 3 -331 1
-619 -3 -638 -6 -23 -9 34 -10 166 0 111 -3 208 -5 215 -3 8 -7 205 -11 439
-6 434 -9 586 -21 955 -10 322 -13 529 -20 1323 -6 650 -5 732 9 732 8 0 17
-10 20 -22 3 -13 6 -142 7 -288 1 -583 17 -1867 25 -2075 1 -33 3 -90 4 -126
1 -51 4 -66 16 -66 8 0 15 7 16 16 1 35 1 278 -1 504 -1 172 1 242 10 252 9
11 9 18 -3 30 -14 14 -16 115 -16 894 -1 767 1 880 14 891 33 28 3 61 -32 35
-19 -15 -188 -21 -196 -7 -3 4 15 5 39 3 53 -4 101 6 88 19 -5 5 -38 10 -72
11 -50 2 -62 5 -57 16 3 8 5 18 5 22 0 5 23 6 50 3 41 -4 50 -2 50 12 0 15
-28 21 -87 19 -7 -1 -13 3 -13 8 0 8 46 14 134 17 45 2 48 0 43 -19z m1007
-46 c-25 -44 -26 -47 -9 -59 15 -11 16 -18 7 -38 -5 -13 -13 -44 -17 -69 -5
-34 -13 -47 -31 -56 -22 -9 -24 -8 -24 12 0 80 84 310 98 268 2 -6 -9 -32 -24
-58z m-1269 -32 c0 -40 5 -55 26 -78 29 -31 41 -84 44 -198 1 -38 5 -182 9
-320 3 -137 9 -378 12 -534 3 -157 7 -287 9 -290 3 -7 12 -252 20 -576 3 -121
8 -247 10 -280 3 -33 7 -199 10 -370 3 -170 8 -372 11 -448 3 -75 3 -137 0
-137 -4 0 -17 6 -29 14 -24 16 -49 9 -82 -21 -12 -10 -30 -26 -42 -36 -25 -22
-133 -40 -138 -23 -2 6 -6 175 -9 376 -3 201 -8 444 -11 540 -2 96 -7 303 -10
460 -3 157 -7 338 -9 403 -3 84 -1 119 7 121 62 16 73 23 83 56 16 51 7 108
-20 116 -11 4 -24 11 -27 16 -3 5 -15 11 -25 12 -18 3 -19 16 -21 277 -2 234
-2 582 0 684 0 17 -1 46 -2 65 -4 68 12 114 44 130 17 8 52 32 79 53 27 20 52
37 55 37 3 0 6 -22 6 -49z m1305 -2 c-7 -11 -14 -18 -17 -15 -3 3 0 12 7 21
18 21 23 19 10 -6z m-770 -52 c0 -35 -2 -37 -20 -27 -22 12 -26 41 -9 72 15
28 29 7 29 -45z m2191 -142 c4 -93 8 -197 9 -231 2 -33 0 -66 -4 -72 -4 -7 -5
-15 -3 -19 3 -5 8 -186 11 -403 4 -217 9 -514 12 -660 5 -266 15 -1876 14
-2347 0 -231 1 -252 18 -256 13 -4 11 -5 -5 -6 -21 -1 -23 4 -25 47 0 26 -2
67 -3 92 -4 94 -15 754 -20 1230 -6 508 -9 611 -25 930 -5 102 -12 442 -15
755 -9 924 -13 1078 -30 1088 -24 13 -6 28 28 25 l32 -3 6 -170z m72 168 c19
-32 45 -3213 27 -3323 -5 -29 -8 21 -9 140 -4 396 -22 1355 -26 1414 -2 28 -7
295 -10 595 -11 987 -13 1120 -20 1131 -9 15 4 50 20 50 8 0 16 -3 18 -7z
m1032 -103 c-2 -170 -16 -799 -20 -830 -2 -19 -6 -147 -10 -285 -4 -137 -8
-268 -10 -290 -11 -128 -15 -211 -20 -395 -6 -219 -12 -397 -20 -630 -3 -80
-7 -206 -10 -280 -2 -74 -6 -202 -9 -285 -5 -139 -15 -583 -20 -893 -2 -109
-5 -135 -19 -149 -14 -15 -17 -15 -17 -2 0 8 6 21 13 28 10 11 10 13 0 7 -8
-4 -13 -2 -13 6 0 8 6 20 13 27 10 11 10 13 0 7 -19 -10 -16 14 4 36 16 18 16
18 -1 12 -14 -5 -16 -2 -12 17 3 13 8 251 11 529 13 1004 23 1631 29 1770 3
63 8 194 11 290 3 96 8 209 11 250 7 128 14 370 20 750 3 200 8 368 11 373 3
4 17 7 31 5 26 -3 27 -5 27 -68z m81 -182 c-4 -134 -8 -274 -11 -313 -3 -38
-7 -173 -10 -300 -3 -126 -8 -273 -10 -325 -2 -52 -7 -151 -10 -220 -3 -69 -8
-159 -10 -200 -13 -226 -19 -390 -30 -755 -3 -104 -7 -237 -10 -295 -2 -58 -7
-172 -10 -255 -3 -82 -10 -251 -15 -375 -6 -124 -10 -272 -10 -330 0 -58 -4
-110 -8 -117 -4 -7 -7 40 -6 105 7 361 16 735 19 792 2 36 6 225 9 420 8 440
15 736 21 860 3 52 7 156 10 230 10 248 16 394 24 505 4 61 9 238 11 395 2
157 4 301 5 320 1 19 3 50 4 68 1 25 5 32 22 32 21 0 21 -1 15 -242z m-3762
210 c9 -42 17 -439 22 -1028 2 -322 6 -652 9 -735 2 -82 6 -224 9 -315 3 -91
8 -268 11 -395 16 -692 18 -760 26 -823 1 -4 1 -11 -1 -17 -4 -21 1 -425 6
-519 3 -60 2 -96 -4 -92 -5 3 -10 82 -11 178 -1 95 -3 209 -6 253 -2 44 -7
179 -10 300 -3 121 -10 337 -15 480 -5 143 -12 357 -15 475 -3 118 -8 287 -10
375 -8 268 -24 1065 -30 1507 -3 175 -5 321 -6 325 -4 23 2 53 11 53 5 0 12
-10 14 -22z m2190 -55 c3 -38 6 -120 6 -183 0 -63 2 -149 4 -190 3 -41 5 -160
6 -265 0 -104 5 -361 10 -570 5 -209 12 -483 15 -610 3 -126 7 -336 10 -465 9
-379 10 -798 2 -806 -4 -4 -7 19 -7 52 -1 62 -5 233 -15 599 -6 210 -8 268
-20 575 -20 517 -31 940 -40 1520 -4 195 -8 367 -11 383 -5 22 -2 27 14 27 17
0 20 -9 26 -67z m-1827 42 c0 -8 -4 -12 -9 -9 -4 3 -8 9 -8 15 0 5 4 9 8 9 5
0 9 -7 9 -15z m1736 -22 c3 -21 6 -96 6 -168 1 -71 3 -200 6 -285 8 -256 15
-521 21 -775 5 -232 8 -274 24 -285 4 -3 11 -16 15 -30 4 -14 4 -22 0 -18 -26
25 -30 -18 -23 -244 6 -220 16 -635 23 -978 2 -85 6 -258 9 -385 11 -428 12
-586 4 -591 -8 -5 -18 48 -16 86 1 24 -7 238 -17 450 -5 116 -21 553 -30 835
-3 99 -8 209 -10 245 -3 36 -9 166 -15 290 -6 124 -13 268 -15 320 -3 52 -8
172 -11 265 -3 94 -8 215 -10 270 -5 152 -4 208 7 221 6 7 6 13 0 16 -9 3 -17
133 -26 478 -3 113 -8 228 -10 257 -5 54 -5 55 51 62 6 0 14 -16 17 -36z
m-2493 -30 c0 -13 -12 -35 -26 -48 -30 -28 -25 -51 7 -34 12 6 23 9 25 6 7 -7
-62 -64 -99 -83 l-32 -16 29 30 c33 36 27 57 -15 48 -28 -5 -29 -5 -29 37 0
41 3 45 47 74 39 26 51 29 70 20 15 -6 23 -19 23 -34z m4399 10 c-11 -13 -14
-102 -16 -467 -2 -398 -12 -1029 -18 -1141 -3 -38 -11 -394 -20 -805 -12 -561
-16 -739 -20 -875 -3 -82 -8 -244 -11 -360 -3 -115 -8 -212 -11 -215 -5 -5 5
753 13 958 4 112 3 122 -13 123 -14 1 -15 2 -2 6 14 3 15 71 16 631 0 345 3
769 6 942 8 372 17 961 18 1113 l1 107 35 0 c32 0 34 -2 22 -17z m66 -96 c-2
-56 -7 -309 -10 -562 -3 -253 -8 -505 -10 -560 -2 -55 -7 -194 -11 -310 -3
-115 -7 -241 -9 -280 -1 -38 -6 -198 -9 -355 -9 -406 -23 -879 -31 -1045 -2
-49 -7 -218 -11 -375 -4 -157 -11 -292 -16 -300 -5 -9 -7 63 -3 185 3 110 7
313 10 450 3 138 7 309 10 380 3 72 8 355 11 630 4 275 8 516 9 535 1 19 6
166 10 325 4 160 8 301 10 315 2 14 6 196 10 405 9 521 12 597 21 619 5 13 2
23 -9 31 -20 14 -13 25 13 18 16 -4 18 -14 15 -106z m-3690 82 c4 -6 -1 -16
-11 -23 -10 -7 -14 -18 -10 -25 6 -9 11 -9 21 -1 14 12 25 -6 25 -41 0 -24
-18 -24 -46 0 -21 17 -23 41 -9 89 5 15 21 16 30 1z m847 -12 c2 -12 -4 -40
-14 -62 l-17 -40 -1 31 c0 72 22 123 32 71z m-670 -24 c2 -10 1 -29 -3 -43 -4
-14 -8 -41 -9 -60 -2 -22 -6 -9 -10 35 -4 39 -6 73 -3 78 7 13 21 8 25 -10z
m480 -103 c-8 -61 -30 -75 -43 -28 -6 22 -2 34 19 57 15 16 28 28 29 27 1 0
-2 -26 -5 -56z m61 3 c6 -56 -7 -73 -18 -24 -5 24 3 88 10 79 1 -2 5 -27 8
-55z m690 -36 c5 -50 3 -58 -15 -68 -11 -6 -22 -8 -25 -6 -2 3 -26 -4 -51 -16
-93 -41 -274 -53 -427 -28 -60 10 -328 8 -400 -3 -11 -1 -35 1 -55 5 -50 11
-188 15 -197 5 -4 -4 1 -14 11 -22 24 -17 13 -18 -30 -2 -21 7 -34 19 -36 32
-2 17 -11 22 -52 24 -44 3 -52 0 -82 -31 -41 -41 -36 -48 49 -66 33 -7 57 -18
57 -25 0 -10 -10 -11 -44 -3 -24 5 -52 7 -62 3 -18 -7 -17 -9 5 -27 13 -10 35
-19 50 -19 38 0 62 -20 55 -46 -6 -21 -6 -21 -30 3 -28 28 -70 28 -68 0 2 -21
-13 -22 -59 -2 -28 11 -34 19 -30 35 4 15 0 20 -13 20 -18 1 -18 1 1 16 15 11
17 18 9 32 -9 13 -7 20 5 29 13 10 14 15 3 32 -17 29 -17 30 31 28 30 -1 42 2
42 12 0 16 -56 39 -99 40 -28 1 -29 2 -22 48 3 25 8 48 9 50 4 3 25 -6 153
-70 56 -28 88 -37 152 -42 59 -6 82 -4 82 4 0 15 57 14 62 -1 5 -13 152 -14
253 -3 22 2 94 9 160 15 66 5 140 14 165 19 25 6 79 15 120 21 92 14 282 60
295 71 15 14 22 -2 28 -64z m-2174 -224 c1 -142 4 -345 5 -451 3 -172 -2 -218
-20 -199 -7 7 -17 875 -10 892 17 46 23 -11 25 -242z m-80 -121 c7 -470 7
-533 -1 -539 -5 -2 -9 8 -9 24 -5 108 -6 196 -8 488 -3 378 -3 345 7 345 4 0
9 -143 11 -318z m2211 218 c0 -5 -9 -10 -19 -10 -20 0 -37 -17 -28 -26 3 -3
14 -6 26 -7 11 -1 22 -5 22 -9 1 -4 2 -13 3 -18 0 -6 8 -15 16 -20 23 -14 2
-28 -73 -50 -62 -17 -96 -18 -164 -4 -46 9 -21 24 40 24 34 0 68 4 76 9 25 16
0 31 -52 32 -70 1 -110 17 -45 18 47 1 128 26 128 41 0 8 39 28 58 29 6 1 12
-3 12 -9z m-523 -27 c-3 -3 -88 -6 -189 -8 -166 -3 -173 -3 -78 6 58 5 114 10
125 11 31 4 147 -3 142 -9z m-412 -3 c14 -6 5 -9 -35 -9 -30 0 -64 4 -75 9
-14 6 -5 9 35 9 30 0 64 -4 75 -9z m651 -88 c0 -75 -6 -92 -35 -92 -11 0 -13
15 -9 70 5 62 19 100 37 100 3 0 6 -35 7 -78z m-116 62 c0 -3 -5 -14 -11 -25
-5 -11 -10 -47 -10 -81 -1 -46 -3 -58 -12 -49 -18 18 -15 140 3 151 17 11 30
13 30 4z m-656 -14 c25 -9 26 -13 26 -89 0 -60 3 -80 15 -84 23 -9 30 12 30
87 0 44 4 71 12 73 6 2 13 -6 15 -19 2 -15 11 -24 26 -26 18 -3 22 1 22 22 0
17 6 26 15 26 13 0 15 -15 14 -95 l-2 -95 -66 0 c-68 0 -196 30 -215 51 -8 9
-5 9 11 0 29 -15 35 -2 27 58 -12 92 6 116 70 91z m486 -47 c6 -58 12 -68 34
-60 11 5 14 15 10 36 -7 34 2 81 15 81 5 0 11 -21 14 -47 3 -26 10 -49 16 -51
9 -3 9 -7 1 -17 -8 -10 -8 -19 0 -35 14 -26 6 -40 -23 -39 -12 0 -55 -3 -94
-7 l-73 -7 1 54 c1 95 11 132 39 140 47 13 55 7 60 -48z m-140 11 c0 -13 -4
-24 -10 -24 -5 0 -10 14 -10 31 0 17 4 28 10 24 6 -3 10 -17 10 -31z m-120
-44 l-7 -65 -1 61 c-1 33 1 64 5 67 10 10 10 7 3 -63z m65 -30 c-5 -53 9 -84
36 -77 10 3 19 2 19 -3 0 -12 -27 -20 -65 -20 -50 0 -65 9 -64 39 1 18 3 20 6
8 3 -12 12 -17 26 -15 18 2 22 10 23 43 3 96 4 101 14 84 5 -9 8 -36 5 -59z
m396 15 c-9 -37 -21 -11 -14 29 4 21 8 25 14 14 4 -8 5 -28 0 -43z m405 -30
c-4 -14 -17 -32 -31 -41 -57 -37 -347 -97 -535 -110 -36 -2 -119 -8 -185 -14
-120 -9 -207 -8 -320 4 -100 11 -199 27 -225 37 -14 5 -43 10 -65 10 -22 1
-54 7 -72 15 -29 13 -31 17 -26 52 3 20 7 38 8 39 3 4 98 -29 110 -37 6 -4 66
-22 134 -40 101 -26 150 -32 268 -37 147 -6 343 12 478 42 173 39 296 70 343
86 29 11 64 19 77 19 13 0 27 5 31 12 11 18 17 -7 10 -37z m-746 3 c0 -19 -2
-20 -10 -8 -13 19 -13 30 0 30 6 0 10 -10 10 -22z m630 -117 c0 -11 -25 -21
-53 -21 -22 1 -22 1 -3 15 22 17 56 20 56 6z m-277 -166 c-1 -59 -4 -109 -6
-111 -5 -6 -223 40 -259 54 -25 11 -26 13 -21 74 3 35 10 66 15 69 17 11 107
9 114 -2 4 -7 6 -29 6 -49 -2 -39 18 -67 38 -55 5 3 10 25 11 48 0 23 4 51 8
62 9 20 17 -29 24 -130 2 -33 6 -40 22 -40 18 0 20 7 21 90 1 109 1 108 17
102 9 -3 11 -33 10 -112z m-937 71 c36 -24 73 -38 135 -51 114 -22 293 -63
354 -81 28 -8 136 -32 240 -54 181 -38 322 -79 297 -88 -7 -2 -39 6 -72 17
-33 12 -72 21 -88 21 -34 0 -60 -16 -47 -28 14 -13 104 -42 131 -42 13 0 26
-4 29 -10 3 -5 13 -10 20 -10 22 0 117 -60 141 -89 19 -22 24 -24 38 -12 19
16 20 10 5 -61 -16 -83 -14 -81 -63 -48 -24 17 -48 30 -53 30 -5 0 -30 13 -55
29 -42 27 -262 91 -315 91 -10 0 -45 9 -77 20 -33 11 -70 20 -83 20 -14 0 -23
6 -23 15 0 19 56 12 145 -18 33 -11 69 -21 80 -22 11 -2 27 -6 36 -10 21 -8
34 12 20 29 -6 8 -26 16 -44 20 -17 3 -54 15 -82 25 -27 11 -75 25 -105 31
-30 7 -65 19 -78 27 -12 7 -27 11 -32 8 -5 -3 -18 3 -29 14 -12 12 -40 21 -82
26 -35 4 -90 16 -121 26 -32 10 -63 19 -69 19 -7 0 -28 12 -46 26 -31 24 -37
25 -50 11 -13 -13 -12 -17 8 -36 13 -12 39 -26 58 -32 66 -19 146 -37 201 -44
30 -4 61 -12 69 -18 7 -7 21 -12 29 -12 8 0 17 -6 20 -14 3 -10 -6 -12 -44 -8
-79 7 -169 26 -210 43 -68 29 -146 46 -158 34 -13 -13 -11 -15 69 -45 78 -29
120 -41 183 -49 24 -3 62 -10 84 -16 22 -6 46 -9 54 -6 7 3 23 -3 36 -13 22
-18 18 -19 -187 -25 -246 -7 -279 -3 -283 39 -5 39 17 113 37 125 14 8 13 12
-10 32 -45 39 -48 81 -4 52 20 -13 24 -13 35 1 11 13 10 18 -6 29 -10 8 -22
12 -26 10 -4 -2 -9 0 -13 6 -3 5 -15 10 -25 10 -23 0 -50 36 -50 67 0 31 17
29 76 -11z m1159 14 c16 14 35 5 35 -16 0 -10 -7 -13 -25 -8 -14 4 -32 1 -40
-6 -12 -10 -16 -9 -20 4 -15 49 -16 47 10 30 20 -13 28 -14 40 -4z m-154 -81
c2 -121 0 -139 -11 -139 -6 0 -8 40 -6 108 5 133 5 126 11 120 3 -3 6 -43 6
-89z m-771 66 c0 -10 -10 -15 -30 -15 -20 0 -30 5 -30 15 0 10 10 15 30 15 20
0 30 -5 30 -15z m368 -42 c-3 -62 -13 -71 -61 -59 -19 4 -22 13 -23 55 l-2 50
37 4 c20 2 40 4 44 5 4 1 7 -24 5 -55z m2512 30 c0 -20 -3 -24 -11 -16 -7 7
-9 19 -6 27 10 24 17 19 17 -11z m-2700 -38 c0 -16 -17 -19 -47 -8 -16 6 -15
8 7 14 38 11 40 10 40 -6z m3016 -60 c12 -4 12 -247 0 -1035 -3 -228 -9 -662
-12 -965 -3 -302 -7 -561 -7 -575 -2 -25 -3 -25 -94 -27 l-92 -2 4 72 c2 40 6
187 10 327 3 140 8 271 10 290 2 19 7 123 10 230 13 453 15 532 21 665 3 77 7
163 9 190 1 28 6 127 9 220 12 313 27 608 32 616 3 6 77 2 100 -6z m-2340
-186 c8 -14 -10 -11 -32 6 -18 13 -18 14 4 8 12 -3 25 -9 28 -14z m40 -36 c-7
-7 -26 7 -26 19 0 6 6 6 15 -2 9 -7 13 -15 11 -17z m-782 -62 c2 -3 6 -22 10
-42 l6 -35 -72 -17 c-40 -10 -82 -20 -93 -23 -18 -5 -20 -1 -17 49 l4 54 51 6
c28 4 55 11 60 16 9 9 44 4 51 -8z m155 8 c43 -15 44 -55 1 -61 -17 -3 -32 -2
-35 0 -6 6 -7 72 -1 72 1 0 17 -5 35 -11z m-91 -61 c-5 -10 -13 -18 -19 -18
-6 0 -6 7 1 19 5 11 10 30 11 43 1 23 1 23 8 -2 5 -14 4 -33 -1 -42z m-414 12
c-9 -53 2 -92 24 -88 13 2 18 17 22 57 6 69 30 83 30 17 0 -48 16 -69 34 -44
10 14 13 12 23 -9 9 -18 9 -25 0 -27 -7 -2 -38 -11 -69 -21 -77 -24 -88 -15
-88 75 0 36 3 70 7 73 16 17 23 4 17 -33z m637 30 c10 0 19 -4 19 -9 0 -14
-60 -25 -72 -13 -14 14 0 35 19 28 8 -3 23 -6 34 -6z m1939 -70 c0 -46 -2 -50
-24 -50 -14 0 -27 4 -31 10 -5 9 40 90 50 90 3 0 5 -22 5 -50z m-1713 13 c26
-10 12 -21 -24 -18 -20 2 -71 -3 -113 -11 -78 -14 -216 -35 -260 -39 -37 -3
-100 -25 -100 -35 0 -18 21 -21 57 -9 33 11 88 20 311 51 56 8 103 8 146 2 38
-6 69 -6 78 -1 9 6 27 3 54 -11 l39 -20 -35 -5 c-19 -3 -82 -11 -140 -17 -58
-7 -119 -18 -137 -25 -18 -8 -59 -19 -91 -25 -31 -5 -86 -19 -122 -29 -36 -11
-94 -27 -130 -36 -36 -9 -76 -20 -90 -25 -14 -5 -63 -20 -110 -35 -101 -30
-106 -33 -119 -67 -7 -19 -18 -27 -44 -30 -53 -6 -57 -2 -57 64 0 39 -5 64
-15 74 -27 27 -18 58 23 82 94 52 447 143 637 162 81 8 224 10 242 3z m-1686
-145 c8 -95 18 -364 24 -668 3 -129 7 -284 10 -345 3 -60 7 -247 11 -415 3
-168 8 -318 10 -335 2 -16 4 -67 4 -112 1 -73 3 -83 20 -88 11 -4 20 -11 20
-16 0 -6 5 -7 11 -3 6 3 64 7 129 9 65 1 123 5 129 9 8 5 11 -11 12 -51 1 -32
3 -101 4 -154 l3 -97 -83 -4 c-88 -5 -124 -20 -104 -44 7 -9 18 -10 34 -4 14
5 27 5 30 1 5 -9 -99 -31 -143 -31 -20 0 -22 6 -23 53 -1 28 -3 62 -4 75 -2
22 1 23 39 21 22 -2 59 2 82 9 22 6 65 11 95 9 42 -1 54 1 54 13 0 21 -91 25
-153 8 -26 -7 -64 -12 -84 -10 l-38 3 0 66 c0 51 3 63 13 56 6 -5 30 -8 52 -7
22 1 67 3 101 3 64 1 108 21 89 40 -12 12 -210 16 -240 5 -11 -4 -17 -4 -13 1
9 9 -9 35 -23 35 -5 0 -9 -149 -9 -335 0 -217 -4 -335 -10 -335 -6 0 -10 28
-10 63 0 34 -2 105 -4 157 -3 52 -7 196 -11 320 -3 124 -8 257 -10 295 -3 39
-8 289 -11 558 -3 268 -7 504 -9 525 -2 20 -6 156 -10 302 -3 146 -7 318 -10
383 -3 90 -1 117 8 114 7 -2 14 -34 18 -79z m-76 -34 c4 -54 10 -146 14 -204
4 -58 9 -233 11 -390 1 -157 3 -301 5 -320 2 -19 6 -129 9 -245 4 -115 9 -255
11 -310 4 -91 6 -214 20 -917 3 -137 1 -218 -5 -218 -6 0 -10 61 -11 153 0 83
-2 168 -3 187 -4 34 -11 292 -21 760 -8 356 -19 699 -30 975 -10 235 -17 639
-11 634 3 -3 8 -50 11 -105z m-74 89 c0 -5 2 -33 4 -63 8 -119 16 -304 20
-485 5 -196 13 -393 20 -480 2 -27 7 -151 10 -275 7 -292 15 -514 20 -567 4
-41 4 -42 -30 -49 -18 -3 -38 -3 -43 0 -5 3 -12 126 -16 273 -8 290 -13 466
-21 638 -22 534 -22 992 0 1007 13 10 35 10 36 1z m3539 -30 c5 -5 6 -1712 0
-1950 -2 -89 -6 -167 -9 -172 -4 -6 -12 -6 -20 -2 -13 9 -17 25 -20 84 -1 24
-5 27 -35 27 -21 0 -45 -9 -63 -24 -15 -12 -38 -28 -50 -35 -35 -18 -30 -44 7
-39 17 3 30 1 30 -3 0 -8 -110 -17 -115 -9 -2 4 -18 1178 -18 1310 0 34 4 44
14 41 8 -2 25 -5 39 -5 24 -1 25 1 28 69 4 115 2 112 78 117 86 5 98 19 90
103 -3 33 -9 103 -12 155 -3 52 -8 98 -10 102 -3 4 -5 35 -5 68 -1 46 -6 67
-19 80 -10 10 -21 36 -25 57 l-6 40 58 -5 c32 -2 60 -6 63 -9z m-1460 -101 c0
-4 -4 -12 -10 -18 -9 -9 5 -248 16 -266 3 -5 11 -7 17 -5 16 5 10 269 -7 279
-7 5 -5 8 6 8 10 0 20 -10 22 -22 19 -91 24 -346 7 -376 -9 -16 -10 -14 -25
78 -1 8 -8 14 -14 13 -7 -2 -17 -4 -24 -5 -8 -2 -15 19 -20 57 -22 179 -29
226 -34 239 -4 9 3 16 18 19 39 7 48 7 48 -1z m-211 -49 l-2 -48 -6 40 c-7 38
-5 55 5 55 2 0 3 -21 3 -47z m-50 -170 c9 -191 7 -253 -8 -253 -22 0 -35 389
-15 449 11 32 15 -7 23 -196z m-90 167 c-6 -16 -13 -30 -15 -30 -2 0 -4 14 -4
30 0 20 5 30 14 30 12 0 13 -6 5 -30z m259 -50 c36 -193 51 -453 51 -899 0
-306 -3 -380 -15 -402 -22 -43 -19 -71 8 -67 30 4 38 47 38 216 -1 90 3 132
10 127 5 -3 10 -39 10 -78 1 -96 16 -262 32 -337 9 -47 9 -63 0 -72 -9 -9 -12
-1 -12 38 0 61 -20 95 -44 75 -11 -10 -16 -31 -16 -74 0 -35 -4 -57 -9 -52
-20 23 -34 121 -37 262 -2 84 -8 161 -14 172 -8 16 -6 24 10 39 20 19 20 27
15 348 -4 318 -13 467 -35 604 -17 104 -23 187 -12 170 6 -8 14 -40 20 -70z
m-322 16 c2 -24 -1 -56 -6 -72 l-8 -29 -3 30 c-1 17 -3 46 -5 65 -4 39 3 66
13 56 4 -4 8 -26 9 -50z m-1772 -3 c12 -56 17 -207 21 -593 3 -217 6 -413 9
-435 2 -22 7 -119 10 -215 4 -96 9 -218 11 -270 8 -139 14 -339 20 -645 3
-148 7 -333 10 -410 2 -77 6 -309 7 -515 l3 -375 -27 -3 c-18 -2 -28 2 -32 15
-6 23 -17 448 -31 1228 -3 171 -8 348 -10 395 -3 47 -7 168 -10 270 -3 102 -7
248 -10 325 -3 77 -8 217 -10 310 -3 94 -7 202 -10 240 -2 39 -7 171 -11 295
-3 124 -8 229 -11 233 -7 11 -5 156 2 168 4 5 19 9 35 9 23 0 30 -5 34 -27z
m1700 11 c11 -29 6 -41 -16 -39 -24 2 -33 17 -24 40 7 20 32 19 40 -1z m996
-14 c0 -5 -4 -10 -10 -10 -5 0 -10 5 -10 10 0 6 5 10 10 10 6 0 10 -4 10 -10z
m-1085 -29 c3 -16 15 -37 26 -47 20 -18 29 -101 9 -89 -5 3 -10 21 -10 40 0
44 -18 54 -41 24 l-19 -24 0 27 c0 15 -4 30 -10 33 -14 9 -12 52 3 58 26 11
36 6 42 -22z m275 20 c0 -6 -4 -13 -10 -16 -5 -3 -10 1 -10 9 0 9 5 16 10 16
6 0 10 -4 10 -9z m-354 -111 c-3 -19 -6 -44 -7 -55 -2 -30 -18 54 -18 95 0 33
0 34 15 15 10 -13 14 -32 10 -55z m451 48 c-3 -8 -6 -5 -6 6 -1 11 2 17 5 13
3 -3 4 -12 1 -19z m-218 -85 c-1 -17 -3 -21 -6 -10 -2 9 -10 17 -16 17 -7 0
-6 4 3 10 20 13 20 13 19 -17z m-150 -142 c7 -5 11 -13 7 -19 -3 -6 -2 -13 3
-16 7 -5 8 -52 1 -121 -1 -11 -6 0 -11 25 -24 134 -34 209 -30 245 4 32 6 26
10 -33 4 -46 11 -76 20 -81z m360 -85 c-9 -8 -10 -7 -5 7 3 10 7 28 7 40 2 16
3 14 6 -7 3 -16 -1 -34 -8 -40z m272 17 c0 -10 2 -38 5 -63 2 -25 4 -52 4 -60
1 -8 7 -64 15 -125 8 -60 16 -161 19 -223 3 -62 13 -168 21 -235 8 -67 15
-149 16 -182 1 -33 10 -107 21 -165 10 -58 23 -132 29 -165 20 -122 91 -256
160 -306 29 -20 29 -22 13 -40 -15 -16 -15 -19 -1 -24 22 -9 14 -73 -12 -91
-11 -8 -21 -24 -23 -36 -2 -13 -10 -24 -18 -25 -21 -4 -109 63 -126 95 -9 15
-35 63 -59 106 -58 102 -94 206 -100 284 -3 42 1 41 15 -5 14 -44 55 -154 75
-198 7 -16 16 -40 19 -52 6 -18 78 -123 121 -175 14 -17 45 -15 45 2 0 18 -45
86 -81 125 -20 22 -51 72 -67 110 -35 81 -82 201 -82 209 0 3 14 3 30 0 27 -6
30 -4 30 19 0 21 4 24 22 19 18 -4 20 -2 14 14 -17 41 -55 296 -49 326 6 29 5
31 -21 26 -37 -7 -40 13 -32 206 11 261 10 273 -7 449 -9 92 -17 174 -17 182
0 21 20 19 21 -2z m-1121 -53 c0 -11 -2 -20 -4 -20 -2 0 -6 9 -9 20 -3 11 -1
20 4 20 5 0 9 -9 9 -20z m2020 -91 c0 -11 -4 -17 -10 -14 -5 3 -10 15 -10 26
0 11 5 17 10 14 6 -3 10 -15 10 -26z m-63 -71 c-3 -7 -5 -2 -5 12 0 14 2 19 5
13 2 -7 2 -19 0 -25z m-1181 -138 c-2 -19 0 -69 5 -110 5 -41 10 -98 13 -125
5 -57 -14 -157 -31 -162 -15 -5 -19 112 -14 352 3 175 4 179 17 130 8 -27 13
-66 10 -85z m292 68 c7 -74 4 -317 -5 -342 -5 -12 -10 71 -13 184 -3 113 -3
209 -1 213 7 17 14 -3 19 -55z m953 -135 c1 -82 3 -281 4 -443 1 -162 3 -365
4 -450 1 -85 2 -169 2 -186 l-1 -32 -72 -1 c-77 -1 -127 -11 -128 -23 0 -5 0
-13 0 -19 0 -6 9 -8 20 -4 11 3 20 2 20 -3 0 -5 -13 -12 -30 -14 l-30 -5 0 73
c0 40 -3 80 -7 89 -5 14 -2 16 14 11 27 -9 56 26 81 99 11 33 28 77 36 97 9
21 16 57 17 80 0 24 9 68 19 98 10 31 14 59 9 64 -15 16 -59 -11 -60 -36 l0
-23 -10 23 c-7 19 -2 37 27 90 20 37 40 71 45 76 12 13 12 53 -1 61 -18 11
-46 -13 -65 -57 -11 -24 -30 -61 -43 -82 -22 -35 -23 -46 -17 -112 5 -61 10
-74 24 -74 25 0 19 -53 -20 -158 -51 -136 -57 -135 -58 8 -1 68 -4 126 -6 130
-2 4 0 21 5 38 5 18 5 34 0 37 -5 3 -9 99 -10 213 -1 114 -3 235 -4 270 -2 58
-1 62 20 62 23 0 34 17 34 56 0 16 4 22 14 18 8 -3 20 4 28 14 7 11 25 22 38
24 23 3 25 8 26 58 1 30 2 61 3 68 1 7 15 12 36 12 l35 0 1 -147z m-221 -32
c0 -6 -4 -13 -10 -16 -5 -3 -10 1 -10 9 0 9 5 16 10 16 6 0 10 -4 10 -9z
m-216 -473 c3 -51 9 -201 12 -334 l6 -241 -76 3 c-53 1 -80 7 -92 18 -8 9 -19
16 -24 16 -5 0 -14 9 -20 20 -10 19 -9 20 15 14 24 -6 55 9 55 27 0 14 -69 42
-93 37 -18 -4 -26 2 -35 21 -23 54 -34 88 -46 148 -15 68 -11 76 45 100 25 11
89 95 89 118 0 17 50 60 87 74 20 8 35 23 42 42 18 51 28 32 35 -63z m-1247
-30 c-2 -18 -4 -6 -4 27 0 33 2 48 4 33 2 -15 2 -42 0 -60z m1003 -87 c0 -12
-67 -51 -74 -44 -15 15 -3 30 32 40 20 6 38 11 40 12 1 0 2 -3 2 -8z m420
-243 c0 -23 -3 -38 -6 -35 -11 10 -13 77 -3 77 5 0 9 -19 9 -42z m-2266 26
c12 -5 16 -21 16 -74 0 -59 -3 -69 -17 -69 -87 -2 -167 0 -171 4 -3 3 21 5 54
5 65 0 90 10 81 32 -4 12 -24 14 -94 11 -126 -6 -136 -9 -129 -38 4 -14 2 -25
-3 -25 -13 0 -20 64 -8 72 6 4 15 5 19 2 4 -3 32 7 61 21 30 14 63 25 74 25
11 0 28 9 38 20 18 20 49 25 79 14z m577 -104 c3 -25 9 -66 13 -92 l8 -48 -31
11 c-17 6 -28 15 -25 21 3 5 12 7 20 4 9 -3 14 2 14 15 0 35 -113 65 -278 75
-106 6 -123 9 -120 23 2 10 12 15 28 14 149 -15 165 -15 210 6 31 14 62 19
100 18 l55 -2 6 -45z m1047 -165 c92 -173 118 -204 215 -252 84 -42 101 -62
103 -124 l1 -49 -36 6 c-57 10 -72 21 -65 48 5 19 -8 38 -64 100 -46 51 -82
103 -108 157 -36 76 -40 80 -66 75 -25 -5 -28 -2 -41 47 -9 29 -18 88 -21 132
l-5 80 28 -80 c15 -44 42 -107 59 -140z m644 137 c1 -27 1 -132 -2 -233 -6
-199 -7 -191 -16 94 -4 125 -3 187 4 187 5 0 12 -22 14 -48z m-2704 6 c-5 -13
-67 -30 -80 -22 -4 3 -5 11 -2 18 6 17 87 21 82 4z m3119 -70 c-2 -13 -4 -3
-4 22 0 25 2 35 4 23 2 -13 2 -33 0 -45z m-2275 20 c-7 -7 -16 -7 -28 0 -14 8
-13 10 10 10 18 0 24 -4 18 -10z m-847 -26 c8 -21 1 -24 -27 -13 -18 7 -29 6
-37 -2 -8 -8 -11 -7 -11 4 0 22 6 26 40 26 16 0 32 -7 35 -15z m645 -7 c-7 -9
-15 -13 -17 -11 -7 7 7 26 19 26 6 0 6 -6 -2 -15z m47 9 c-3 -3 -12 -4 -19 -1
-8 3 -5 6 6 6 11 1 17 -2 13 -5z m243 2 c0 -3 -4 -8 -10 -11 -5 -3 -10 -1 -10
4 0 6 5 11 10 11 6 0 10 -2 10 -4z m30 -10 c0 -3 -4 -8 -10 -11 -5 -3 -10 -1
-10 4 0 6 5 11 10 11 6 0 10 -2 10 -4z m-300 -56 c0 -5 -6 -10 -12 -13 -10 -3
-10 -7 1 -20 17 -21 55 -22 72 -1 11 13 32 14 153 9 78 -3 151 -6 162 -7 17 0
23 -8 27 -37 3 -20 7 -43 9 -51 3 -8 3 -12 1 -7 -3 4 -12 7 -20 7 -13 0 -13 3
-2 18 13 16 13 16 -7 0 -11 -10 -24 -18 -28 -18 -5 0 -5 8 -2 18 6 16 5 16 -8
0 -7 -10 -19 -18 -26 -18 -10 0 -9 4 1 18 12 14 10 14 -8 -2 -12 -10 -29 -16
-37 -13 -7 3 -24 -4 -35 -15 -17 -15 -25 -17 -36 -8 -18 15 -70 -8 -111 -49
-28 -27 -35 -30 -59 -21 -15 6 -31 8 -36 4 -5 -3 -9 0 -9 7 0 7 -7 4 -15 -7
-13 -17 -14 -7 -15 103 0 116 1 121 20 116 11 -3 20 -9 20 -13z m230 16 c0 -3
-4 -8 -10 -11 -5 -3 -10 -1 -10 4 0 6 5 11 10 11 6 0 10 -2 10 -4z m-887 -173
c4 -158 4 -162 -15 -152 -10 5 -28 7 -38 4 -18 -6 -20 -1 -21 62 -1 37 -3 80
-4 95 -3 20 1 28 16 30 26 4 25 22 -1 26 -16 3 -20 11 -20 43 0 38 1 39 35 39
20 0 35 5 35 12 0 6 2 9 4 7 2 -2 6 -77 9 -166z m1980 -9 c18 -59 42 -111 65
-137 15 -17 15 -20 -5 -35 -25 -20 -19 -43 22 -84 31 -31 102 -68 131 -68 30
0 64 -11 64 -21 0 -5 -8 -9 -19 -9 -26 0 -71 -38 -71 -61 0 -17 -6 -19 -37
-16 -43 5 -66 25 -129 117 -46 68 -47 70 -35 110 6 22 21 44 31 50 26 14 25
31 -1 64 -28 35 -45 95 -52 181 l-6 70 13 -55 c7 -30 20 -78 29 -106z m557
118 c0 -20 -3 -23 -12 -14 -7 7 -16 12 -22 12 -5 0 2 -9 15 -21 19 -16 23 -30
24 -75 2 -59 4 -58 -76 -54 -25 1 -38 -4 -42 -14 -8 -20 -3 -22 66 -30 69 -9
77 -25 8 -18 -31 3 -51 0 -56 -8 -11 -18 0 -23 58 -28 l54 -4 -2 -81 c-2 -78
-3 -82 -31 -98 -16 -10 -36 -18 -45 -18 -9 -1 -24 -12 -32 -25 -11 -17 -29
-26 -62 -31 -54 -8 -51 -9 -60 28 -6 24 -4 27 16 27 47 0 69 12 75 39 3 14 10
35 15 46 6 11 11 30 11 41 3 28 -28 90 -52 107 -16 11 -19 21 -14 45 6 31 7
31 78 34 65 3 71 5 74 26 3 20 -1 22 -40 23 -24 1 -48 1 -53 0 -6 0 -9 17 -7
42 6 83 6 82 62 79 46 -4 50 -6 50 -30z m437 -107 l3 -125 -110 0 c-107 0
-110 1 -110 23 -1 12 -2 47 -4 78 l-4 56 66 11 c114 19 133 24 138 38 11 38
14 44 16 44 2 0 4 -56 5 -125z m-98 101 c-12 -10 -60 -16 -54 -6 3 5 18 10 32
10 15 0 24 -2 22 -4z m496 -16 c19 -21 71 -27 77 -9 2 6 2 -33 1 -87 -2 -54
-5 -99 -7 -102 -3 -2 -26 -5 -53 -7 -26 -1 -81 -8 -121 -15 -39 -7 -75 -11
-78 -8 -3 4 -7 49 -10 101 l-4 94 62 7 c43 4 67 12 80 26 23 25 30 25 53 0z
m557 -43 c2 -12 2 -45 0 -73 l-4 -51 -51 14 c-59 15 -183 18 -192 4 -3 -6 11
-13 32 -16 60 -10 62 -13 6 -14 l-53 -1 0 83 0 82 129 -3 c125 -3 130 -4 133
-25z m-1863 -49 c22 -40 63 -97 91 -127 39 -42 48 -57 39 -67 -9 -11 -4 -22
20 -49 35 -41 37 -45 16 -45 -8 0 -15 5 -15 11 0 6 -30 44 -68 83 -47 51 -75
92 -93 137 -28 67 -44 129 -35 129 3 0 23 -33 45 -72z m2191 68 c0 -3 -4 -8
-10 -11 -5 -3 -10 -1 -10 4 0 6 5 11 10 11 6 0 10 -2 10 -4z m41 -71 c1 -54
-3 -150 -6 -154 -2 -2 -43 0 -90 4 l-85 7 0 66 c0 112 -2 109 96 108 l84 -1 1
-30z m-3218 -12 c-6 -14 -23 -18 -23 -5 0 4 -30 6 -67 6 -38 -1 -75 2 -83 7
-9 5 24 8 81 6 73 -1 95 -5 92 -14z m-713 -77 c0 -3 -4 -8 -10 -11 -5 -3 -10
-1 -10 4 0 6 5 11 10 11 6 0 10 -2 10 -4z m3453 -3 c-7 -2 -21 -2 -30 0 -10 3
-4 5 12 5 17 0 24 -2 18 -5z m107 -44 l0 -32 -90 6 c-83 6 -109 0 -80 -18 10
-6 73 -12 143 -14 27 -1 28 -3 23 -38 -3 -21 -5 -44 -6 -52 0 -10 -13 -12 -62
-7 -35 4 -93 3 -130 -2 l-68 -8 0 75 c0 42 4 82 9 90 7 11 27 13 101 7 50 -4
100 -12 111 -19 16 -10 21 -9 29 3 5 9 5 19 -2 27 -8 10 -6 13 6 13 11 0 16
-9 16 -31z m-3468 -26 c1 -44 1 -87 -1 -186 l-1 -38 -52 6 c-88 10 -141 14
-189 14 l-46 1 -2 63 -2 64 68 2 c37 1 71 5 76 8 5 3 32 6 61 7 37 2 51 6 51
17 0 16 -78 21 -109 6 -16 -8 -18 -6 -12 9 6 16 5 16 -11 3 -10 -8 -42 -16
-70 -18 -42 -2 -53 0 -53 12 0 19 21 26 77 26 22 0 49 4 60 9 14 8 111 34 146
41 4 0 8 -20 9 -46z m2243 27 c3 -5 1 -10 -4 -10 -6 0 -11 5 -11 10 0 6 2 10
4 10 3 0 8 -4 11 -10z m1366 -55 c3 -82 -12 -303 -22 -334 -5 -16 -7 28 -4
109 4 135 15 293 21 288 1 -2 3 -30 5 -63z m-1091 46 c0 -11 -60 -21 -124 -21
-71 0 -51 10 29 15 37 3 70 7 73 10 8 8 22 6 22 -4z m471 -53 c1 -29 0 -57 -1
-63 -2 -5 -2 -18 -2 -27 1 -14 -8 -18 -41 -18 -78 -1 -167 -9 -177 -15 -6 -4
-9 -14 -8 -23 2 -9 -4 -18 -13 -20 -13 -2 -17 12 -23 89 -4 50 -5 93 -4 95 6
5 191 32 231 33 l37 1 1 -52z m-654 36 c-3 -3 -12 -4 -19 -1 -8 3 -5 6 6 6 11
1 17 -2 13 -5z m-87 -25 c0 -5 -4 -9 -10 -9 -5 0 -10 7 -10 16 0 8 5 12 10 9
6 -3 10 -10 10 -16z m-2704 -12 c-1 -15 -8 -22 -23 -23 -15 -1 -21 2 -16 10 3
6 1 6 -8 -1 -20 -20 -31 -15 -18 8 7 14 17 19 30 16 10 -3 22 -1 25 4 9 15 12
10 10 -14z m4242 10 l52 0 0 -85 c0 -64 -3 -83 -11 -75 -6 6 -18 9 -26 6 -11
-4 -13 0 -7 21 l6 26 -71 0 -71 0 0 61 0 61 38 -8 c20 -4 61 -8 90 -7z m-1267
-94 c2 -111 1 -115 -18 -130 -13 -10 -22 -7 -50 17 -18 17 -38 30 -43 30 -5 0
-16 15 -24 34 -12 28 -22 36 -50 42 -34 6 -36 9 -36 43 l0 37 91 2 c51 1 94 4
97 7 3 3 11 5 19 5 10 0 13 -22 14 -87z m-865 50 c-7 -7 -26 7 -26 19 0 6 6 6
15 -2 9 -7 13 -15 11 -17z m522 -63 c0 -49 -4 -90 -8 -90 -5 0 -9 41 -9 90 -1
50 3 90 8 90 5 0 9 -40 9 -90z m-2063 40 c3 -5 1 -10 -4 -10 -6 0 -11 5 -11
10 0 6 2 10 4 10 3 0 8 -4 11 -10z m-569 -59 c0 -44 -2 -49 -30 -59 -16 -7
-30 -11 -31 -9 -1 1 -5 21 -9 43 -6 46 2 59 44 67 14 2 25 5 26 6 0 0 0 -21 0
-48z m2302 -6 c-3 -3 -9 2 -12 12 -6 14 -5 15 5 6 7 -7 10 -15 7 -18z m1497
-18 c114 0 115 0 115 -24 0 -22 -3 -23 -37 -19 -21 3 -47 8 -58 10 -11 2 -28
5 -38 5 -12 1 -16 6 -11 14 5 9 4 9 -6 0 -7 -6 -27 -9 -44 -6 -22 3 -36 0 -45
-11 -9 -11 -10 -16 -2 -16 6 0 11 -4 11 -10 0 -5 -7 -10 -15 -10 -11 0 -15 12
-15 46 0 40 2 45 15 34 10 -8 54 -12 130 -13z m355 -1 c0 -2 -11 -6 -25 -8
-14 -3 -25 -1 -25 3 0 5 11 9 25 9 14 0 25 -2 25 -4z m-3637 -21 c-3 -9 -8
-14 -10 -11 -3 3 -2 9 2 15 9 16 15 13 8 -4z m2820 -2 c-7 -2 -19 -2 -25 0 -7
3 -2 5 12 5 14 0 19 -2 13 -5z m1067 -54 c0 -33 -3 -58 -7 -56 -8 5 -5 117 3
117 2 0 4 -27 4 -61z m-1950 33 c0 -13 -12 -22 -22 -16 -10 6 -1 24 13 24 5 0
9 -4 9 -8z m960 -27 c0 -8 -9 -15 -19 -15 -24 0 -38 -19 -21 -30 11 -7 67 -11
160 -12 36 0 111 8 120 13 3 1 32 3 64 3 38 1 61 5 63 14 3 6 -2 12 -11 12 -9
0 -16 5 -16 10 0 10 33 9 100 -5 46 -10 58 -20 58 -50 l0 -24 -87 6 c-126 9
-169 7 -240 -12 -61 -17 -66 -17 -120 0 -31 10 -83 30 -116 45 -33 16 -67 31
-75 34 -8 3 5 3 30 0 32 -4 51 -1 65 10 26 20 45 20 45 1z m-3436 -54 c-13
-13 -44 -6 -44 10 0 15 3 15 24 6 14 -7 23 -14 20 -16z m36 -1 c0 -5 -5 -10
-11 -10 -5 0 -7 5 -4 10 3 6 8 10 11 10 2 0 4 -4 4 -10z m2460 -15 c-7 -9 -15
-13 -19 -10 -3 3 1 10 9 15 21 14 24 12 10 -5z m1518 -14 c-1 -20 -5 -28 -14
-24 -17 6 -18 25 -2 41 16 16 17 16 16 -17z m136 -7 c20 -8 11 -24 -14 -24
-13 0 -17 5 -14 15 7 17 7 17 28 9z m-2878 -49 c19 -8 38 -14 42 -12 10 3 101
-56 102 -66 0 -4 -10 -12 -23 -18 -13 -6 -32 -26 -42 -45 -20 -37 -93 -96
-135 -109 -14 -4 -43 -16 -65 -25 -70 -31 -90 -32 -104 -7 -11 20 -9 29 11 63
13 21 39 71 58 109 25 50 40 69 52 67 9 -1 27 11 39 28 27 35 21 34 65 15z
m3154 5 c0 -5 -4 -10 -10 -10 -5 0 -10 5 -10 10 0 6 5 10 10 10 6 0 10 -4 10
-10z m110 -1 c19 2 32 0 28 -4 -4 -4 -25 -9 -48 -10 -29 -2 -40 1 -40 12 0 9
5 11 12 7 7 -5 29 -7 48 -5z m-394 -19 c9 0 12 -5 9 -10 -8 -13 -35 6 -34 24
0 7 2 6 6 -1 2 -7 11 -13 19 -13z m-2656 -110 c0 -5 -5 -10 -11 -10 -5 0 -7 5
-4 10 3 6 8 10 11 10 2 0 4 -4 4 -10z m30 0 c0 -5 -5 -10 -11 -10 -5 0 -7 5
-4 10 3 6 8 10 11 10 2 0 4 -4 4 -10z m-1508 -722 c-11 -11 -32 -3 -32 12 0 4
9 6 21 3 13 -4 17 -9 11 -15z m43 2 c-3 -5 -10 -10 -16 -10 -5 0 -9 5 -9 10 0
6 7 10 16 10 8 0 12 -4 9 -10z M1646 6172 c-2 -4 -1 -14 4 -21 11 -19 41 -6
34 14 -6 16 -29 20 -38 7z M1711 6171 c-7 -5 -11 -13 -7 -19 8 -13 42 -4 57
14 9 11 7 14 -12 14 -13 0 -30 -4 -38 -9z M1814 6130 c-13 -12 -93 -20 -99
-10 -6 10 -56 3 -69 -11 -19 -18 11 -34 39 -21 22 10 25 9 25 -8 0 -22 20 -26
38 -8 6 6 19 13 29 14 41 6 61 15 66 28 7 16 -16 29 -29 16z M1564 5935 c-4
-9 5 -33 20 -55 14 -22 26 -51 26 -65 0 -32 40 -71 81 -80 44 -10 129 4 136
22 9 23 -15 31 -58 22 -46 -11 -99 10 -99 39 0 24 -72 132 -87 132 -8 0 -16
-7 -19 -15z M2206 5954 c-19 -18 -13 -34 14 -34 19 0 34 25 24 41 -8 13 -21
11 -38 -7z M2160 5853 c-31 -50 -36 -68 -21 -77 13 -8 84 93 77 110 -9 25 -25
15 -56 -33z M2490 5735 c-10 -12 -7 -15 15 -21 28 -7 52 7 41 25 -10 16 -41
14 -56 -4z M2504 5655 c-3 -8 -3 -19 0 -24 10 -16 36 -1 36 20 0 22 -28 26
-36 4z M2487 5589 c-9 -6 -17 -18 -17 -27 0 -9 -7 -35 -14 -57 -15 -42 -13
-55 7 -55 18 0 44 48 52 96 7 46 -1 58 -28 43z M2166 5498 c-11 -36 -13 -88
-4 -94 16 -10 27 9 34 59 6 40 4 47 -10 47 -9 0 -18 -6 -20 -12z M3405 5603
c-27 -7 -46 -23 -39 -34 7 -13 81 -11 89 1 7 11 -12 41 -24 39 -3 -1 -15 -4
-26 -6z M4453 5554 c-8 -22 0 -25 56 -22 38 2 48 6 42 16 -12 20 -90 25 -98 6z
M4254 4629 c-14 -15 -16 -24 -7 -37 18 -30 38 -20 41 21 4 42 -6 47 -34 16z
M4207 4064 c-11 -11 -8 -52 3 -59 17 -10 41 16 38 39 -3 21 -28 33 -41 20z
M1328 3739 c-10 -5 -18 -14 -18 -19 0 -16 57 -12 63 4 10 26 -14 34 -45 15z
M1440 3719 c-16 -29 -31 -245 -20 -275 5 -13 13 -61 16 -107 4 -45 12 -85 18
-89 35 -23 47 75 22 182 -14 60 -12 158 5 233 9 36 8 51 -1 62 -17 20 -27 19
-40 -6z M2111 2553 c-22 -43 -15 -93 14 -93 10 0 35 74 35 105 0 13 -41 3 -49
-12z M1875 2131 c-3 -5 -3 -54 1 -108 8 -133 8 -136 0 -155 -5 -11 -1 -18 13
-23 12 -3 24 -4 29 -1 10 6 15 229 6 269 -6 27 -36 38 -49 18z M2009 1778 c-2
-121 -11 -266 -16 -278 -3 -8 -8 -43 -10 -76 -5 -61 -4 -62 30 -88 60 -46 104
-25 47 23 -31 26 -33 30 -28 79 3 34 11 57 23 66 16 12 16 13 -1 31 -17 16
-19 32 -16 122 2 56 5 112 7 123 3 14 -2 20 -16 20 -13 0 -19 -7 -20 -22z
M2260 1495 c0 -39 20 -73 46 -78 32 -6 37 5 20 40 -8 15 -17 36 -20 46 -3 9
-15 17 -26 17 -15 0 -20 -7 -20 -25z M2072 1438 c3 -36 8 -44 43 -64 22 -13
48 -23 58 -24 31 0 18 28 -23 51 -37 21 -45 34 -41 67 1 6 -8 12 -19 12 -19 0
-21 -5 -18 -42z M1464 4066 c-28 -7 -72 -22 -98 -34 -25 -12 -50 -22 -55 -22
-17 0 -35 -30 -23 -42 7 -7 27 -2 69 18 66 31 136 53 174 54 24 0 49 16 49 32
0 11 -56 8 -116 -6z M3801 3936 c-18 -21 -9 -51 14 -51 15 0 20 7 20 29 0 33
-16 44 -34 22z M3594 3246 c-3 -8 -4 -27 -2 -43 2 -20 8 -28 23 -28 16 0 21 8
23 43 3 37 1 42 -18 42 -11 0 -23 -6 -26 -14z M2772 2220 c-28 -37 -28 -60 -2
-60 25 0 70 46 70 71 0 31 -43 24 -68 -11z M1193 1905 c-8 -22 0 -27 49 -30
49 -2 78 9 78 30 0 22 -118 21 -127 0z M1027 1893 c-14 -13 -6 -21 28 -27 35
-7 75 6 75 24 0 11 -93 14 -103 3z M4625 1825 c-5 -2 -22 -6 -37 -9 -47 -11
-31 -26 26 -26 37 0 56 4 59 14 7 19 -20 30 -48 21z M1434 5946 c-9 -37 -1
-61 21 -61 16 0 21 8 23 43 3 37 1 42 -17 42 -13 0 -23 -9 -27 -24z M1431
5776 c-12 -14 -8 -50 9 -91 34 -82 43 -125 33 -159 -8 -26 -8 -39 2 -52 16
-23 33 -10 41 31 9 48 22 53 30 10 6 -32 26 -47 37 -27 2 4 -4 44 -15 90 -19
80 -31 95 -55 71 -9 -9 -13 -5 -18 17 -13 65 -31 118 -41 121 -6 2 -16 -3 -23
-11z M1256 5713 c4 -32 12 -61 18 -65 18 -12 36 13 36 52 0 54 -8 70 -36 70
-23 0 -24 -2 -18 -57z M1390 5651 c-15 -29 -12 -61 5 -61 19 0 40 43 32 64 -9
22 -24 20 -37 -3z M4942 5470 c0 -14 2 -19 5 -12 2 6 2 18 0 25 -3 6 -5 1 -5
-13z M1579 5440 c-13 -8 -14 -18 -4 -76 11 -70 23 -86 44 -60 9 10 10 32 6 70
-8 60 -21 80 -46 66z M1657 5323 c-4 -3 -7 -15 -7 -25 0 -28 34 -19 38 10 3
21 -16 31 -31 15z M50 4951 c0 -12 9 -22 23 -26 12 -4 35 -19 51 -34 16 -14
26 -20 22 -13 -4 7 -1 15 8 18 24 9 20 17 -28 47 -51 32 -76 35 -76 8z M166
4872 c-2 -4 -1 -14 3 -21 6 -9 11 -10 15 -2 4 6 2 11 -4 11 -6 0 -8 5 -5 10 3
6 4 10 1 10 -3 0 -7 -4 -10 -8z M50 4386 c0 -9 5 -16 10 -16 6 0 10 4 10 9 0
6 -4 13 -10 16 -5 3 -10 -1 -10 -9z M98 3992 c-35 -11 -48 -21 -48 -35 0 -17
5 -18 36 -12 49 9 105 37 101 49 -5 17 -37 16 -89 -2z M613 1297 c-16 -26 24
-32 225 -31 606 3 645 5 617 32 -10 10 -836 9 -842 -1z M3610 1297 c-8 -7 -23
-24 -32 -39 -10 -14 -33 -31 -53 -38 -38 -13 -45 -25 -17 -32 37 -10 123 48
152 103 9 16 7 19 -12 19 -13 0 -30 -6 -38 -13z M3671 1271 c-12 -16 -21 -36
-21 -45 0 -21 39 -21 47 1 5 13 8 12 15 -8 l9 -24 30 33 c31 35 31 52 -2 52
-10 0 -19 5 -19 10 0 21 -40 9 -59 -19z M3467 1267 c-24 -12 -56 -19 -92 -18
-30 0 -55 -4 -55 -10 0 -5 -10 -14 -22 -19 -23 -9 -23 -9 2 -9 14 0 44 -1 66
-1 57 -2 152 27 164 50 14 27 -17 31 -63 7z M4106 1253 c-27 -29 -33 -48 -17
-57 17 -11 37 4 49 36 17 45 0 56 -32 21z M4163 1242 c-22 -44 -20 -62 7 -62
23 0 28 7 36 58 9 56 -16 58 -43 4z M3844 1235 c-17 -25 -12 -45 10 -45 12 0
46 40 46 53 0 3 -9 7 -20 10 -14 4 -25 -2 -36 -18z M4036 1251 c-7 -11 3 -41
13 -41 12 0 31 23 31 37 0 15 -36 18 -44 4z M2988 1239 c-17 -11 -2 -37 24
-41 44 -6 151 7 155 19 3 7 -6 15 -19 17 -39 9 -148 12 -160 5z M4278 1239
c-11 -6 -18 -22 -18 -40 0 -26 3 -30 23 -27 16 2 21 9 19 25 -2 12 2 24 8 28
14 9 13 25 -2 25 -7 0 -21 -5 -30 -11z M439 1223 c-13 -16 -12 -17 4 -4 9 7
17 15 17 17 0 8 -8 3 -21 -13z M495 1210 c-16 -16 -26 -32 -23 -35 3 -3 17 10
32 30 33 43 29 45 -9 5z M4353 1214 c-7 -18 11 -39 26 -30 17 11 13 46 -4 46
-9 0 -18 -7 -22 -16z M459 1203 c-13 -16 -12 -17 4 -4 9 7 17 15 17 17 0 8 -8
3 -21 -13z M2605 1202 c-5 -4 -16 -18 -24 -32 -12 -22 -12 -23 0 -14 14 12
144 12 156 1 3 -4 -4 -15 -16 -24 l-23 -18 22 -20 c19 -17 38 -19 210 -19 189
0 223 6 205 35 -6 9 -37 10 -126 5 -137 -8 -200 -1 -192 21 9 23 -26 51 -78
62 -58 13 -120 14 -134 3z M4549 1146 c-15 -31 -7 -29 -144 -31 -60 -1 -138
-5 -171 -9 -43 -6 -63 -5 -68 3 -9 15 -61 14 -86 -1 -16 -10 -22 -10 -32 5
-11 15 -27 18 -98 16 -218 -4 -457 -4 -582 1 -102 4 -140 2 -150 -8 -10 -10
-9 -15 4 -28 14 -14 59 -16 369 -16 195 0 378 4 407 9 41 8 58 7 80 -4 16 -9
42 -13 64 -10 23 3 41 0 47 -7 8 -10 50 -12 168 -8 148 5 161 7 208 32 45 24
61 27 158 28 62 1 107 -3 107 -8 0 -6 -8 -10 -17 -11 -78 -3 -116 -19 -106
-45 4 -11 -9 -14 -68 -14 -179 -1 -266 -17 -255 -45 4 -13 -8 -15 -77 -16
-381 -4 -497 -3 -497 1 0 3 10 10 23 15 12 6 22 19 22 30 0 18 -9 21 -90 26
-66 4 -96 2 -113 -8 -29 -18 -216 -19 -372 -2 -63 6 -140 12 -170 13 -50 1
-55 -1 -58 -22 l-4 -23 -126 6 c-70 4 -197 9 -282 11 -85 3 -207 10 -270 17
-112 12 -115 13 -115 37 0 20 -7 25 -38 32 -21 4 -71 9 -110 11 -58 2 -72 -1
-72 -13 0 -11 13 -16 48 -18 48 -3 62 -16 27 -25 -11 -3 -20 -10 -20 -15 0
-14 86 -42 97 -31 12 12 54 -1 46 -15 -5 -8 -3 -8 8 1 17 13 80 8 90 -8 4 -6
9 -7 12 -2 3 5 21 7 39 5 18 -2 101 -5 183 -7 83 -2 179 -8 215 -14 36 -6 69
-11 73 -11 5 0 5 -5 1 -12 -4 -6 1 -17 12 -25 16 -12 1 -13 -114 -9 -73 3
-174 10 -225 16 -50 6 -114 13 -141 16 -73 8 -141 8 -153 1 -6 -4 -9 -16 -6
-27 5 -20 28 -29 68 -28 11 1 36 -2 55 -5 40 -7 304 -21 395 -20 33 0 176 1
317 2 162 2 264 -1 276 -8 11 -6 22 -8 24 -5 3 3 8 -2 11 -11 5 -11 -3 -16
-33 -21 -30 -5 -40 -11 -40 -25 0 -10 5 -21 10 -24 24 -15 5 -24 -67 -30 -99
-8 -213 -26 -235 -37 -21 -10 -20 -63 2 -65 58 -4 310 -34 330 -39 14 -3 34
-13 45 -23 11 -10 36 -24 55 -31 69 -26 100 -42 94 -51 -3 -5 2 -6 10 -3 21 8
20 -9 -1 -28 -13 -10 -45 -15 -108 -17 -49 0 -148 -4 -220 -7 l-130 -6 23 21
c23 23 30 51 12 51 -6 0 -4 11 5 24 40 60 -28 89 -213 90 -143 1 -307 -8 -341
-19 -26 -8 -36 -37 -17 -51 24 -17 19 -24 -14 -20 -17 2 -49 0 -73 -4 -23 -5
-112 -11 -197 -14 -85 -4 -168 -9 -185 -11 -16 -2 -106 -7 -200 -10 -93 -3
-178 -8 -187 -11 -10 -3 -27 0 -39 6 -15 9 -19 9 -14 1 5 -8 -18 -10 -83 -6
-72 4 -92 2 -102 -10 -7 -8 -10 -22 -6 -30 7 -18 145 -21 302 -6 55 6 162 12
239 16 289 12 561 33 585 45 9 5 24 4 34 -2 9 -5 57 -11 104 -12 98 -2 120
-10 118 -45 -2 -39 34 -51 159 -51 61 0 117 4 125 10 8 5 17 5 20 1 3 -5 73
-6 156 -2 l151 6 -16 -25 c-9 -14 -11 -21 -3 -17 7 5 12 3 12 -5 0 -9 -20 -14
-72 -15 -105 -4 -166 -11 -228 -29 -30 -8 -120 -19 -200 -24 -80 -6 -167 -12
-194 -14 -53 -5 -90 11 -99 43 -3 14 -18 19 -67 24 -35 4 -69 12 -76 18 -7 6
-34 11 -59 11 -25 1 -48 4 -50 8 -6 9 -120 4 -136 -6 -6 -3 -64 -8 -129 -9
-65 -1 -123 -5 -128 -9 -6 -3 -13 -2 -17 4 -9 15 -61 12 -203 -10 -110 -18
-199 -38 -252 -58 -8 -3 -24 -7 -35 -9 -38 -6 -441 -5 -555 2 -170 10 -174 9
-153 -23 7 -11 23 -17 47 -16 20 1 36 -3 36 -9 0 -5 7 -4 15 3 8 7 15 8 15 4
0 -12 39 -14 280 -14 273 1 403 10 416 31 3 5 10 7 15 3 5 -3 16 -1 23 5 11 9
79 23 176 36 14 2 43 6 65 10 22 4 51 6 63 6 13 -1 31 3 40 8 12 7 21 3 34
-11 13 -15 31 -21 69 -22 28 -1 53 2 55 5 2 3 26 7 55 8 28 1 55 3 58 6 4 2
31 6 60 10 41 4 51 3 45 -7 -6 -10 -4 -10 7 -2 8 6 27 11 43 12 26 2 27 0 15
-16 -12 -14 -10 -14 8 2 20 17 23 17 38 2 9 -9 23 -16 32 -16 13 0 13 -3 2
-17 -11 -14 -8 -13 9 2 20 16 25 17 32 5 6 -8 10 -18 10 -22 0 -5 7 -8 15 -8
8 0 15 -4 15 -10 0 -5 7 -6 17 -3 9 4 14 2 10 -3 -6 -10 17 -9 83 2 l35 7 -20
-24 -20 -24 23 20 c28 23 159 35 146 13 -5 -8 -1 -7 10 2 23 18 150 24 139 7
-5 -9 -3 -9 8 0 8 6 39 14 68 18 30 3 58 8 63 11 16 10 125 24 233 30 132 6
137 8 133 36 -2 17 2 22 14 20 9 -1 19 2 23 8 9 14 25 12 25 -3 0 -8 9 -22 21
-33 18 -16 40 -19 138 -22 123 -3 166 -13 173 -40 6 -22 -1 -42 -13 -42 -6 0
-7 6 -3 13 6 9 4 9 -7 1 -15 -12 -127 -4 -246 17 -39 7 -134 -3 -146 -16 -10
-10 -17 -11 -19 -4 -3 8 -19 8 -59 0 -71 -15 -398 -21 -423 -9 -12 7 -22 6
-29 -1 -6 -6 -34 -12 -61 -12 -28 -1 -64 -5 -81 -9 -16 -5 123 -8 310 -8 202
0 348 4 359 10 13 7 16 7 12 -1 -4 -6 -3 -11 3 -11 5 0 13 5 16 10 4 6 21 10
38 9 18 -1 41 2 51 6 15 7 17 5 11 -6 -7 -12 -6 -12 7 -1 14 11 21 11 40 1 30
-16 245 -18 319 -2 121 25 139 32 139 56 0 35 12 42 68 42 30 0 56 3 59 8 2 4
13 3 23 -3 18 -10 64 -18 108 -19 12 -1 22 -7 22 -16 0 -8 12 -22 26 -31 22
-15 63 -18 275 -22 l249 -5 0 24 c0 23 -2 24 -88 26 -285 5 -292 5 -281 24 11
21 29 33 49 34 16 0 17 23 4 109 -5 36 -4 47 4 42 6 -4 79 -9 162 -13 150 -5
150 -5 150 17 0 19 -5 21 -37 20 -69 -3 -85 -1 -77 13 6 9 4 9 -7 1 -17 -13
-99 -15 -99 -3 0 5 5 9 10 9 18 0 10 22 -10 27 -45 12 -14 20 81 21 130 2 139
5 139 47 0 36 -15 45 -78 45 -29 0 -32 2 -22 19 7 14 7 22 0 26 -15 9 -1 27
16 21 7 -3 21 2 30 11 14 14 14 17 0 25 -8 4 -37 9 -64 9 -46 1 -48 3 -44 25
3 16 0 24 -9 25 -8 0 -25 2 -39 5 -14 2 -49 4 -77 4 -40 0 -53 4 -53 15 0 9 9
15 25 15 14 0 25 -5 25 -11 0 -5 4 -8 10 -4 5 3 25 6 45 7 34 1 75 34 75 59 0
34 -77 50 -148 30 -28 -8 -32 -7 -30 7 2 11 -7 18 -27 23 -18 4 5 7 61 8 79 1
93 4 110 22 10 12 19 24 19 28 0 12 118 2 126 -11 7 -10 9 -10 9 0 0 6 9 12
20 12 15 0 20 7 20 25 0 19 -5 25 -21 25 -12 0 -17 4 -14 11 4 6 13 8 21 5 10
-4 14 2 14 20 0 24 -2 25 -67 24 -38 0 -125 3 -195 6 l-127 7 -12 -27z m351
-36 c0 -5 -8 -10 -17 -10 -15 0 -16 2 -3 10 19 12 20 12 20 0z m-1637 -104
c44 -3 81 -7 83 -9 3 -2 -43 -7 -102 -11 -58 -4 -108 -5 -110 -3 -8 8 26 36
39 32 7 -2 47 -6 90 -9z m477 -6 c0 -3 -9 -13 -20 -23 -23 -19 -26 -36 -7 -39
6 0 17 -2 22 -3 6 -2 20 -3 33 -4 16 -1 21 -5 16 -13 -6 -10 -5 -10 7 -1 8 7
35 13 60 13 24 0 181 2 349 3 290 2 393 -2 387 -13 -34 -63 -41 -68 -101 -74
-62 -6 -103 -26 -113 -53 -4 -9 -1 -19 5 -21 7 -2 19 -10 27 -19 8 -8 19 -11
25 -8 5 3 10 3 10 -2 0 -4 25 -7 56 -6 31 1 54 0 51 -4 -7 -6 -28 -10 -117
-18 -30 -3 -63 -7 -74 -8 -10 -1 -30 -18 -45 -37 -17 -24 -20 -30 -7 -20 13
10 20 11 23 4 2 -6 17 -10 33 -8 36 4 37 -2 9 -32 -21 -22 -21 -25 -6 -48 16
-24 16 -25 -13 -24 -18 1 -27 5 -23 12 4 6 0 5 -9 -2 -9 -7 -32 -12 -52 -10
-36 2 -45 11 -26 23 34 21 -22 58 -89 58 -20 0 -39 5 -43 11 -5 8 -8 7 -8 -1
0 -7 -8 -13 -17 -13 -13 0 -14 3 -5 12 16 16 74 20 65 4 -3 -6 3 -3 14 7 11 9
26 17 33 17 7 0 21 7 30 15 10 9 28 18 41 20 13 3 32 14 43 25 l21 20 -31 31
-31 31 -267 0 c-265 0 -267 0 -250 20 16 16 16 21 4 28 -8 6 -24 10 -36 10
-11 0 -24 3 -28 7 -4 4 -13 8 -19 9 -54 5 -53 4 -24 20 41 22 33 52 -18 70
-22 7 -53 14 -68 14 -52 0 -20 15 39 18 32 2 60 5 62 7 5 5 82 0 82 -5z m-323
-6 c-3 -3 -12 -4 -19 -1 -8 3 -5 6 6 6 11 1 17 -2 13 -5z m169 -62 c34 -6 30
-22 -5 -22 -17 0 -32 -4 -36 -10 -3 -5 -12 -7 -20 -4 -19 8 -31 -24 -16 -39 6
-6 31 -13 54 -14 23 -1 57 -3 75 -4 l33 -2 -21 -22 c-11 -12 -20 -24 -20 -27
0 -18 79 -24 283 -22 155 2 227 -1 227 -8 0 -7 4 -7 13 0 13 11 29 10 60 -3
25 -11 21 -24 -10 -31 -16 -4 -33 -11 -40 -16 -7 -6 -50 -12 -95 -14 -46 -3
-101 -10 -123 -16 -22 -6 -45 -11 -51 -10 -6 1 -19 -7 -29 -18 -25 -27 -7 -46
53 -56 26 -4 56 -9 67 -11 11 -2 55 -4 99 -4 43 0 76 -2 73 -6 -4 -3 -16 -6
-28 -7 -44 -2 -29 -48 15 -48 14 0 26 -3 26 -7 0 -3 17 -7 38 -8 43 -1 319 -3
330 -2 35 5 42 -2 41 -48 -1 -27 4 -61 10 -77 11 -26 9 -32 -16 -58 -26 -27
-51 -39 -37 -17 4 8 -1 9 -17 4 -22 -7 -23 -7 -9 11 14 18 13 18 -8 -1 -19
-16 -25 -17 -32 -5 -5 8 -5 21 1 31 7 15 5 17 -16 15 -22 -2 -133 11 -200 24
-6 1 -12 1 -15 0 -3 -1 -30 -3 -60 -4 -82 -4 -150 -17 -151 -30 -1 -6 -1 -19
0 -28 2 -12 -9 -20 -31 -26 -28 -8 -34 -6 -43 12 -14 30 -28 43 -41 39 -7 -2
-18 3 -26 10 -10 10 -20 12 -31 5 -11 -5 -17 -5 -17 0 0 13 17 18 68 21 34 1
42 -1 36 -11 -4 -7 1 -6 12 3 10 9 33 17 49 17 17 0 32 1 35 2 3 1 20 3 38 6
24 3 31 1 27 -9 -4 -6 1 -3 9 7 9 11 16 23 16 28 0 10 -37 29 -53 27 -6 -1
-30 -1 -51 0 -36 1 -38 2 -24 19 22 25 3 65 -32 68 -8 1 -28 4 -45 7 -16 3
-52 8 -80 11 -46 6 -95 12 -153 20 -32 5 -53 26 -26 26 22 0 100 35 108 49 3
4 -3 16 -14 26 -16 15 -34 16 -147 11 -70 -3 -185 -10 -255 -16 -83 -6 -137
-6 -154 0 -14 6 -49 10 -79 10 -30 0 -57 5 -60 10 -3 6 2 11 12 11 10 1 27 3
38 4 11 2 65 6 120 10 115 8 165 24 165 54 0 12 -4 21 -10 21 -25 0 -6 15 21
17 17 1 37 8 45 14 16 13 19 64 3 54 -6 -4 -16 1 -23 10 -9 13 -39 21 -107 30
-54 7 -83 14 -69 17 32 6 294 6 326 0z m-669 -8 c-3 -3 -12 -4 -19 -1 -8 3 -5
6 6 6 11 1 17 -2 13 -5z m1753 -126 c0 -5 -8 -8 -17 -6 -10 1 -24 -1 -30 -5
-13 -8 -18 4 -8 15 10 9 55 6 55 -4z m-137 -5 c-7 -2 -19 -2 -25 0 -7 3 -2 5
12 5 14 0 19 -2 13 -5z m297 -55 c0 -7 -19 -10 -70 -10 -46 0 -61 2 -57 10 7
10 127 10 127 0z m-140 -2 c0 -2 -7 -6 -15 -10 -8 -3 -15 -1 -15 4 0 6 7 10
15 10 8 0 15 -2 15 -4z m-1000 -85 c-8 -5 -39 -14 -68 -21 -30 -7 -56 -19 -59
-26 -7 -20 15 -44 41 -44 12 0 27 -5 33 -11 5 -5 23 -12 39 -14 38 -4 175 -18
192 -18 6 0 12 -3 12 -7 0 -3 14 -5 30 -4 17 1 33 -2 36 -7 3 -5 2 -9 -3 -10
-4 0 -21 -2 -38 -5 -16 -2 -52 -6 -79 -8 -55 -4 -84 -28 -63 -51 7 -7 18 -10
24 -8 7 3 13 1 13 -5 0 -5 -15 -10 -32 -10 -18 -1 -67 -3 -108 -6 -72 -4 -74
-4 -42 10 41 18 61 56 42 79 -15 18 -92 60 -157 86 -24 9 -57 29 -74 43 -29
25 -30 26 -7 26 40 1 213 12 216 15 1 1 17 2 35 3 21 0 27 -2 17 -7z m379 -17
c-6 -7 -22 -11 -37 -9 -15 1 -35 3 -45 4 -41 2 -4 18 43 18 40 0 48 -2 39 -13z
m461 4 c0 -5 -10 -9 -22 -9 -38 -2 -82 -8 -107 -14 -21 -5 -23 -4 -12 9 7 8
25 16 39 18 50 6 102 3 102 -4z m30 2 c0 -5 -5 -10 -11 -10 -5 0 -7 5 -4 10 3
6 8 10 11 10 2 0 4 -4 4 -10z m220 0 c0 -5 -7 -10 -16 -10 -8 0 -12 5 -9 10 3
6 10 10 16 10 5 0 9 -4 9 -10z m30 0 c0 -5 -5 -10 -11 -10 -5 0 -7 5 -4 10 3
6 8 10 11 10 2 0 4 -4 4 -10z m-92 -7 c-15 -2 -42 -2 -60 0 -18 2 -6 4 27 4
33 0 48 -2 33 -4z m129 1 c-3 -3 -12 -4 -19 -1 -8 3 -5 6 6 6 11 1 17 -2 13
-5z m-1989 -53 c20 4 60 6 87 2 28 -3 58 -5 68 -5 9 1 17 -4 17 -9 0 -6 5 -7
10 -4 6 4 10 -5 10 -19 0 -26 -1 -26 -72 -26 -45 1 -80 6 -91 14 -11 9 -51 14
-114 15 -54 1 -99 4 -102 7 -10 10 10 15 70 20 35 2 65 7 68 10 3 3 7 1 9 -4
2 -6 18 -6 40 -1z m1692 -2 c0 -5 6 -6 13 -3 7 2 13 -3 13 -14 0 -16 -10 -18
-96 -19 -52 -1 -85 1 -72 5 13 4 22 12 20 17 -2 6 12 10 29 11 18 0 35 3 38 6
9 9 55 6 55 -3z m138 0 c-20 -11 -25 -39 -7 -39 5 0 8 -4 5 -9 -3 -5 -16 -8
-30 -8 -20 0 -23 4 -20 31 1 17 3 32 3 34 1 1 16 2 34 2 26 -1 29 -2 15 -11z
m-1093 -93 c8 -7 11 -16 8 -20 -4 -3 -1 -6 7 -6 10 0 10 -3 0 -15 -7 -9 -15
-13 -18 -10 -3 3 -14 -2 -24 -12 -21 -19 -37 -10 -19 11 9 11 9 15 -1 19 -10
3 -8 10 6 26 23 25 23 25 41 7z m235 -76 c0 -5 -4 -10 -10 -10 -5 0 -10 5 -10
10 0 6 5 10 10 10 6 0 10 -4 10 -10z m0 -40 c0 -5 -5 -10 -11 -10 -5 0 -7 5
-4 10 3 6 8 10 11 10 2 0 4 -4 4 -10z m-74 -9 c-5 -8 -56 -3 -56 5 0 2 14 4
31 4 16 0 28 -4 25 -9z m39 -1 c-3 -5 -10 -10 -16 -10 -5 0 -9 5 -9 10 0 6 7
10 16 10 8 0 12 -4 9 -10z M4279 673 c-13 -16 -12 -17 4 -4 9 7 17 15 17 17 0
8 -8 3 -21 -13z M4559 343 c-13 -16 -12 -17 4 -4 16 13 21 21 13 21 -2 0 -10
-8 -17 -17z M4479 333 c-13 -16 -12 -17 4 -4 9 7 17 15 17 17 0 8 -8 3 -21
-13z M802 1149 c2 -7 10 -15 17 -17 8 -3 12 1 9 9 -2 7 -10 15 -17 17 -8 3
-12 -1 -9 -9z M350 1085 c-7 -9 -8 -15 -2 -15 5 0 12 7 16 15 3 8 4 15 2 15
-2 0 -9 -7 -16 -15z M955 1040 c-60 -3 -150 -5 -200 -5 -94 0 -123 -11 -111
-41 4 -10 12 -14 23 -10 39 15 546 30 604 18 67 -15 145 15 89 33 -28 9 -264
12 -405 5z M50 985 c0 -14 5 -25 10 -25 6 0 10 2 10 4 0 2 3 11 6 19 3 8 -2
17 -10 20 -12 5 -16 0 -16 -18z M4841 996 c-8 -10 -8 -16 2 -25 8 -6 17 -8 20
-4 4 3 7 -2 7 -12 0 -17 1 -17 19 -1 10 9 22 16 27 15 23 -4 34 3 34 21 0 17
-7 20 -49 20 -29 0 -53 -6 -60 -14z M1104 982 c-45 -3 -52 -6 -56 -25 -4 -22
-2 -22 51 -16 58 6 207 3 221 -6 4 -2 15 2 25 9 18 13 18 14 -1 23 -10 5 -55
11 -99 12 -44 2 -82 4 -85 4 -3 1 -28 1 -56 -1z M1643 973 c-13 -2 -23 -11
-23 -19 0 -11 28 -14 158 -15 86 0 171 -2 187 -4 64 -6 207 -7 213 -1 11 12
-21 26 -58 26 -19 0 -73 2 -120 4 -241 11 -337 14 -357 9z M4895 940 c-10 -17
7 -37 31 -37 18 0 24 5 24 22 0 17 -6 23 -25 23 -14 0 -28 -4 -30 -8z M57 924
c-15 -15 -7 -45 11 -42 9 2 17 12 17 22 0 20 -16 31 -28 20z M1023 890 c-32
-13 -28 -29 7 -28 16 1 36 -4 43 -11 10 -8 33 -9 78 -2 64 8 705 5 789 -4 25
-3 70 -4 100 -3 156 4 268 -6 341 -31 30 -10 49 2 49 31 0 11 -10 20 -27 24
-16 3 -41 10 -58 15 -31 9 -219 4 -236 -6 -5 -4 -9 -1 -9 6 0 8 -4 8 -15 -1
-19 -15 -73 -17 -215 -6 -58 4 -260 9 -450 11 -190 2 -352 6 -360 8 -8 3 -25
2 -37 -3z M50 846 c0 -14 5 -26 10 -26 6 0 10 9 10 19 0 11 -4 23 -10 26 -6 4
-10 -5 -10 -19z M795 842 c-30 -12 -78 -16 -199 -16 -159 -1 -186 -7 -152 -35
10 -8 16 -9 21 -1 4 7 12 7 25 0 41 -22 319 1 355 30 6 4 29 10 53 12 41 3 54
-4 31 -18 -18 -11 18 -26 42 -19 16 5 19 4 14 -5 -6 -9 -4 -11 5 -5 17 10 666
8 765 -3 39 -4 78 -6 88 -4 16 3 15 6 -5 21 -30 23 -153 31 -512 32 -149 0
-278 5 -287 10 -34 18 -200 19 -244 1z M2120 800 l-25 -30 -77 8 c-78 8 -123
2 -99 -12 12 -8 25 -10 121 -22 51 -6 85 -8 119 -5 7 1 11 7 8 15 -5 12 2 14
31 11 20 -1 45 -3 55 -4 26 -2 20 -20 -10 -33 -63 -25 -168 -33 -415 -32 -211
1 -260 -1 -270 -13 -15 -18 4 -38 54 -55 32 -11 2 -13 -235 -17 -515 -6 -515
-6 -535 -24 -20 -18 -66 -12 -55 7 5 8 3 8 -8 -1 -8 -7 -40 -10 -77 -9 -54 3
-62 1 -62 -15 0 -22 18 -27 115 -33 39 -2 72 -5 75 -6 17 -7 58 5 73 21 13 14
23 16 40 10 12 -5 72 -7 132 -4 61 2 228 4 372 4 255 0 263 1 277 21 11 15 12
26 5 40 -7 13 -6 20 3 23 7 3 103 4 213 3 110 -2 211 1 225 5 26 9 52 13 82
16 28 2 88 61 88 86 0 32 -21 45 -93 61 -88 19 -99 18 -127 -16z m20 -20 c0
-5 -7 -10 -16 -10 -8 0 -12 5 -9 10 3 6 10 10 16 10 5 0 9 -4 9 -10z M388 727
c-40 -33 -36 -49 10 -44 20 1 43 6 50 11 6 4 16 5 21 1 14 -8 104 -9 130 0 18
5 22 4 16 -5 -6 -10 -4 -11 6 -4 15 10 59 13 59 4 0 -7 125 -4 185 5 28 5 75
9 106 10 30 1 60 5 66 8 7 4 14 4 17 -1 2 -4 42 -7 87 -5 84 3 118 15 89 33
-15 9 -331 6 -385 -4 -16 -3 -52 -5 -80 -5 -27 1 -118 2 -202 2 -83 1 -149 5
-146 10 7 12 0 8 -29 -16z M2327 594 c-4 -3 -177 -15 -296 -19 -113 -5 -146
-14 -124 -36 14 -14 75 -14 223 -1 69 6 177 13 241 15 123 4 142 9 133 32 -5
12 -24 14 -90 13 -47 -1 -85 -3 -87 -4z M638 519 c-28 -16 -10 -36 39 -42 53
-6 73 -1 73 19 0 29 -75 45 -112 23z M935 511 c-50 -8 -65 -17 -65 -40 0 -16
5 -17 43 -10 32 7 338 4 437 -3 34 -3 50 3 50 16 0 8 -7 17 -16 20 -31 12
-394 25 -449 17z M52 355 c3 -30 4 -30 61 -30 73 0 78 17 7 28 -30 4 -58 13
-62 20 -6 7 -8 0 -6 -18z M537 289 c-33 -19 -19 -36 36 -43 28 -3 71 -9 93
-12 28 -4 44 -2 49 7 10 15 -21 40 -40 33 -7 -3 -22 -1 -34 5 -29 16 -84 21
-104 10z M62 261 c-8 -5 -12 -16 -10 -24 2 -14 7 -15 27 -4 14 6 26 18 29 25
4 14 -26 16 -46 3z M1820 247 c-18 -4 -30 -13 -27 -20 3 -9 101 -12 403 -13
219 0 382 1 361 3 -20 2 -35 8 -33 12 3 4 -11 5 -31 3 -28 -4 -34 -2 -28 9 6
11 5 11 -5 2 -8 -8 -22 -8 -44 -1 -17 5 -71 8 -121 7 -88 -2 -228 -1 -372 4
-40 1 -86 -1 -103 -6z M140 225 c-24 -14 -22 -14 38 -15 49 0 62 3 62 15 0 20
-66 20 -100 0z M387 233 c-16 -15 -4 -23 34 -23 36 0 40 2 29 15 -13 15 -51
20 -63 8z"/>
</g>
</svg>
