<?xml version="1.0" standalone="no"?>
<!DOCTYPE svg PUBLIC "-//W3C//DTD SVG 20010904//EN"
 "http://www.w3.org/TR/2001/REC-SVG-20010904/DTD/svg10.dtd">
<svg version="1.0" xmlns="http://www.w3.org/2000/svg"
 width="500.000000pt" height="878.000000pt" viewBox="0 0 500.000000 878.000000"
 preserveAspectRatio="xMidYMid meet">
<metadata>
Created by potrace 1.16, written by Peter Selinger 2001-2019
</metadata>
<g transform="translate(0.000000,878.000000) scale(0.100000,-0.100000)"
fill="#000000" stroke="none">
<path d="M2468 8725 c-2 -3 -104 -6 -226 -8 -121 -1 -224 -5 -227 -9 -13 -13
7 -29 33 -28 42 3 52 1 52 -12 0 -6 6 -19 14 -27 8 -9 32 -50 55 -92 46 -88
46 -89 -45 -89 -39 0 -54 -4 -54 -13 0 -12 63 -14 350 -13 255 1 350 4 350 12
0 17 -25 24 -81 24 -32 0 -51 5 -55 13 -3 8 -1 54 3 103 l8 89 31 1 c48 2 68
12 56 27 -8 9 -48 14 -128 15 -65 2 -121 5 -124 7 -4 3 -9 2 -12 0z m-173 -66
c-4 -11 -17 -51 -29 -87 l-23 -67 -21 47 c-11 26 -32 63 -46 81 -14 19 -26 37
-26 40 0 4 34 7 76 7 72 0 75 -1 69 -21z m178 14 c3 -5 7 -51 9 -103 l3 -95
-27 -3 c-28 -3 -28 -3 -29 60 0 35 -3 82 -5 106 -5 39 -3 42 20 42 14 0 27 -3
29 -7z m105 -94 c3 -85 2 -97 -14 -103 -30 -11 -31 -5 -26 157 2 40 5 48 19
45 15 -3 18 -18 21 -99z m-203 71 c8 -12 14 -151 8 -167 -3 -8 -23 -13 -50
-13 -39 0 -44 2 -38 18 4 9 11 33 17 52 5 19 16 49 24 67 8 17 14 36 14 42 0
14 17 14 25 1z M1811 6781 c-71 -21 -79 -41 -17 -41 51 0 60 -14 21 -32 -14
-6 -25 -15 -25 -20 0 -4 -5 -8 -12 -8 -6 0 -22 -10 -35 -22 -13 -12 -23 -16
-23 -10 0 7 9 17 20 24 23 15 27 38 6 38 -7 0 -19 -7 -26 -15 -11 -13 -15 -13
-21 -3 -7 11 -12 11 -30 0 -13 -9 -25 -10 -31 -4 -6 6 4 17 26 30 41 24 49 48
14 37 -13 -3 -34 -8 -48 -9 -14 -2 -39 -10 -57 -19 -18 -10 -38 -17 -46 -17
-15 0 -87 -73 -87 -88 0 -5 -16 -16 -35 -25 -20 -9 -35 -24 -36 -34 -1 -24 -4
-50 -13 -100 -9 -52 15 -144 46 -172 18 -17 19 -23 8 -36 -11 -13 -9 -19 10
-40 17 -18 21 -31 17 -52 -4 -15 -9 -42 -12 -59 -9 -39 13 -61 45 -44 12 6 23
10 24 8 1 -2 10 -15 19 -30 12 -20 29 -30 57 -34 22 -4 40 -10 40 -15 0 -11
-41 -22 -65 -17 -26 5 -43 -27 -28 -51 8 -12 12 -57 12 -116 l0 -95 56 -113
c40 -78 60 -131 66 -175 10 -71 42 -128 92 -166 42 -32 58 -32 84 -3 16 16 24
45 32 110 6 49 17 101 24 115 33 63 45 81 99 152 67 87 141 170 136 153 -2 -6
-15 -26 -31 -45 -61 -73 -120 -156 -152 -213 -37 -65 -75 -204 -75 -271 0 -28
-6 -47 -20 -59 -11 -10 -20 -24 -20 -32 0 -24 28 -14 54 19 l25 33 -4 -54 c-4
-61 -22 -90 -32 -53 -6 26 -44 45 -69 35 -9 -3 -20 -15 -24 -27 -9 -21 -9 -21
-9 2 -1 12 6 25 14 28 21 8 19 23 -7 45 -39 32 -48 25 -48 -42 0 -52 -2 -60
-17 -57 -14 2 -17 11 -15 35 2 17 -1 34 -7 37 -13 8 -41 -21 -41 -44 0 -24
-12 -31 -30 -20 -11 7 -15 37 -17 122 -3 117 -11 141 -38 118 -13 -11 -15 -31
-12 -109 2 -53 7 -104 11 -113 7 -15 3 -18 -25 -18 -28 0 -36 5 -46 28 -13 29
-12 184 2 241 7 29 6 33 -11 29 -10 -2 -27 -19 -36 -38 -16 -32 -17 -33 -17
-10 0 14 4 44 8 67 9 48 2 67 -22 57 -16 -6 -22 -49 -17 -125 0 -14 -6 -31
-14 -39 -12 -9 -16 -32 -16 -88 0 -56 -3 -73 -11 -65 -17 17 -24 104 -10 112
7 5 14 52 18 127 5 101 3 121 -10 132 -21 18 -31 -1 -28 -53 2 -46 -15 -38
-21 10 -2 25 -9 31 -40 39 -41 10 -49 31 -21 51 19 14 8 39 -13 31 -10 -4 -14
2 -14 19 0 16 6 25 15 25 8 0 15 7 15 15 0 9 -7 18 -15 21 -8 4 -15 17 -15 29
0 19 5 23 26 22 35 -3 41 17 9 31 -32 15 -32 30 0 42 26 10 32 24 15 35 -18
11 26 45 81 61 34 10 71 14 101 11 38 -5 48 -3 48 9 0 37 -66 41 -189 11 -61
-16 -121 -89 -135 -168 -7 -40 -23 -49 -87 -49 l-36 0 -7 78 c-4 42 -10 102
-12 132 -6 71 -9 80 -33 80 -24 0 -30 -16 -20 -55 4 -16 10 -76 13 -132 l6
-103 -34 0 c-19 0 -38 5 -41 10 -3 6 -23 10 -43 11 l-37 1 33 9 c25 7 32 15
32 34 0 13 -6 28 -13 32 -6 4 -12 17 -12 28 0 12 -9 22 -25 26 -24 7 -24 7 -2
8 26 1 41 29 22 41 -7 5 -13 26 -13 47 l0 38 68 10 c56 8 69 14 76 33 5 12 13
22 18 22 14 0 29 54 24 83 -3 15 -23 43 -44 62 -34 31 -45 35 -92 35 -67 0
-96 -16 -124 -65 -26 -47 -29 -82 -8 -112 8 -12 12 -28 9 -36 -3 -8 -1 -17 3
-20 8 -5 -10 -228 -22 -284 -5 -22 -10 -23 -108 -23 -60 0 -107 -4 -114 -11
-25 -25 -34 154 -10 192 10 14 13 30 8 37 -4 7 -6 24 -3 37 11 59 -98 111
-170 81 -59 -25 -73 -50 -72 -125 4 -332 3 -440 -4 -466 -6 -22 -30 -45 -94
-90 -48 -33 -97 -70 -111 -83 -23 -22 -24 -24 -10 -70 21 -68 27 -77 54 -74
13 2 57 26 98 53 40 28 75 49 77 47 2 -2 6 -42 10 -88 7 -96 8 -100 34 -100
22 0 24 -27 29 -360 2 -124 4 -275 6 -337 3 -107 3 -111 -18 -117 -46 -12 -57
-7 -57 23 0 17 -4 32 -10 36 -5 3 -7 11 -4 18 2 7 -3 42 -12 78 -9 35 -16 73
-16 84 -1 36 -29 155 -39 160 -5 4 2 23 16 43 33 49 33 82 0 82 -18 0 -25 -5
-25 -19 0 -29 -36 -68 -70 -75 -18 -3 -45 0 -66 9 l-34 14 0 -270 c0 -209 3
-269 13 -269 6 0 30 5 52 10 56 13 93 19 150 26 28 3 64 10 82 15 60 19 257
37 266 25 4 -6 6 -31 5 -56 l-3 -45 -110 -6 c-60 -3 -123 -9 -140 -12 -16 -4
-95 -19 -174 -34 l-144 -27 7 -168 c4 -92 9 -198 11 -235 10 -179 16 -298 25
-528 6 -137 13 -257 15 -265 2 -8 7 -78 10 -155 3 -77 8 -156 10 -175 4 -30
14 -228 19 -340 1 -34 0 -35 -46 -43 -39 -7 -48 -13 -48 -29 0 -18 5 -20 35
-15 23 4 35 2 35 -6 0 -7 4 -6 10 3 8 12 10 11 10 -7 0 -16 -6 -22 -17 -21
-10 1 -30 0 -45 0 -26 -2 -27 -4 -25 -54 2 -52 3 -53 32 -53 17 0 38 6 48 14
15 13 17 12 19 -7 0 -12 1 -27 2 -34 1 -8 -15 -11 -51 -9 -52 2 -53 2 -53 -26
0 -16 4 -23 8 -17 10 16 94 13 88 -3 -3 -6 -1 -13 4 -15 9 -3 17 -185 8 -193
-2 -3 -28 -5 -57 -6 -47 -2 -52 -4 -49 -23 3 -19 9 -21 55 -19 37 2 53 -2 57
-12 3 -8 2 -14 -2 -13 -4 0 -31 -2 -60 -7 -47 -7 -52 -10 -52 -33 0 -24 1 -24
59 -18 l59 7 6 -43 c3 -24 6 -110 6 -193 2 -209 1 -239 -6 -232 -4 3 -15 2
-25 -3 -12 -7 -19 -6 -22 3 -4 9 -6 9 -6 0 -1 -7 -8 -13 -17 -13 -11 0 -14 4
-8 13 5 7 1 4 -8 -6 -10 -11 -15 -23 -12 -28 3 -5 -2 -9 -10 -9 -9 0 -16 -4
-16 -10 0 -12 16 -13 55 -2 17 5 41 6 54 2 23 -5 25 -10 28 -85 2 -50 -1 -89
-9 -103 -10 -19 -9 -25 1 -32 10 -6 15 -48 18 -167 4 -174 3 -179 -53 -187
-16 -2 -37 -6 -46 -10 -10 -3 -25 -8 -33 -11 -8 -2 -15 -11 -15 -20 0 -17 25
-20 35 -4 4 6 13 8 21 5 7 -3 16 -1 19 5 4 5 20 -2 38 -17 29 -25 36 -26 102
-20 124 10 298 9 383 -4 45 -7 86 -10 89 -6 12 11 -15 29 -49 33 -18 1 -61 10
-96 18 -34 9 -68 13 -75 10 -6 -4 -5 0 3 7 8 7 21 25 29 38 12 22 12 24 0 14
-21 -16 -72 -17 -63 -1 6 8 3 8 -9 -1 -9 -8 -21 -11 -27 -7 -5 3 -10 1 -10 -6
0 -9 -3 -10 -10 -3 -6 6 -12 120 -16 273 -4 214 -3 262 8 260 37 -7 209 15
219 27 14 17 15 17 -105 14 -86 -2 -89 -1 -76 17 8 10 2 7 -13 -6 -15 -14 -30
-22 -33 -18 -3 3 -7 67 -9 142 -1 75 1 132 4 127 8 -14 31 -17 63 -8 20 6 27
14 25 29 -2 20 3 21 123 24 109 2 131 0 167 -18 42 -20 63 -19 63 4 0 14 -54
44 -90 50 -15 3 -8 5 18 6 23 0 42 -3 42 -8 0 -4 16 -7 36 -5 26 2 41 -3 57
-19 35 -35 130 -31 177 9 12 10 29 9 89 -7 86 -23 114 -20 86 11 -9 10 -27 21
-39 24 -11 2 20 2 69 -1 165 -11 200 -10 200 7 0 11 -13 16 -45 18 -25 2 -105
12 -178 22 -145 20 -207 15 -195 -17 4 -11 3 -14 -5 -9 -8 5 -12 53 -12 154
l0 147 64 0 c60 0 68 3 98 32 36 35 56 41 76 21 6 -6 51 -15 99 -19 131 -11
150 -19 137 -53 -5 -13 -13 -16 -33 -10 -14 4 -41 8 -59 9 -18 1 -38 7 -44 13
-20 20 -51 13 -105 -22 -40 -26 -67 -36 -118 -41 -69 -8 -83 -16 -61 -34 8 -7
17 -8 20 -3 3 5 26 10 51 10 31 2 68 14 112 37 36 19 69 32 74 29 5 -3 22 -7
38 -9 39 -5 68 -13 109 -31 l33 -15 -2 -137 c-1 -108 -4 -141 -17 -161 -10
-14 -12 -22 -4 -18 25 16 12 -48 -20 -100 l-33 -53 -185 5 c-300 8 -324 10
-340 20 -8 6 -75 10 -148 10 -102 0 -135 3 -141 14 -7 11 -11 10 -20 -6 -5
-11 -24 -26 -41 -33 -18 -7 -30 -20 -30 -31 0 -29 20 -33 52 -9 24 18 44 22
94 22 35 0 67 4 70 9 3 5 29 9 59 9 41 0 59 -5 73 -20 15 -17 31 -19 109 -19
50 1 96 -2 102 -5 6 -4 81 -7 167 -7 l156 0 -7 -27 c-3 -15 -8 -40 -11 -57 -3
-16 -10 -40 -17 -53 -34 -70 79 -75 223 -9 62 29 150 86 150 97 0 5 32 9 71 9
78 -1 105 12 74 34 -32 24 2 32 145 32 129 0 137 -1 180 -27 42 -26 130 -53
208 -65 29 -5 33 -3 30 13 -2 12 -21 23 -61 35 -31 9 -57 16 -57 14 0 -6 -66
21 -86 35 -19 13 -64 81 -64 95 0 3 12 5 28 5 15 0 41 4 59 9 42 12 113 3 113
-16 0 -7 11 -30 24 -51 13 -20 30 -54 37 -75 13 -38 42 -51 52 -23 7 17 -12
73 -35 106 -10 13 -18 30 -18 37 0 19 77 93 97 93 9 0 26 9 38 20 25 23 50 18
58 -11 4 -15 15 -19 54 -20 47 -1 47 -1 16 -10 -18 -5 -33 -14 -33 -19 0 -25
109 -22 180 6 31 12 39 22 44 49 l7 33 73 0 c53 -1 81 4 103 17 29 17 63 16
63 -2 0 -4 -21 -15 -48 -23 -29 -9 -48 -22 -50 -32 -4 -23 34 -24 83 -4 18 8
35 12 38 10 2 -3 10 2 17 11 15 18 50 20 50 3 -1 -27 -27 -44 -81 -56 -31 -7
-65 -19 -75 -27 -17 -13 -17 -16 -4 -25 8 -6 26 -8 40 -6 14 3 52 10 85 16 32
6 64 15 70 20 9 7 74 4 83 -5 2 -2 64 12 127 29 6 1 25 12 44 23 30 19 36 20
55 8 12 -8 46 -21 76 -29 30 -8 68 -19 83 -25 42 -16 104 -15 184 4 56 13 80
14 105 6 18 -6 47 -10 63 -9 31 1 74 -5 137 -21 20 -5 39 -6 42 -4 3 3 13 -2
22 -11 32 -33 63 -47 111 -53 26 -2 53 -9 59 -14 12 -10 34 8 34 28 0 8 -6 16
-13 19 -20 7 -18 64 3 64 9 0 21 5 27 11 16 16 -8 39 -45 44 -15 2 -39 8 -54
14 -23 9 -28 16 -28 46 0 33 2 36 23 29 27 -10 105 -10 133 0 20 6 22 3 23
-64 1 -67 0 -71 -24 -80 -73 -28 40 -103 140 -94 123 12 145 12 145 1 0 -9 3
-8 8 1 5 7 16 10 26 6 15 -6 17 0 14 47 l-3 54 -58 5 c-46 4 -62 2 -76 -12
-18 -16 -18 -15 -16 15 2 18 4 46 5 62 1 19 4 23 7 12 4 -14 14 -17 61 -15 32
1 63 -1 69 -5 8 -5 11 7 11 38 0 48 3 46 -68 49 -27 1 -34 -3 -32 -15 1 -9 -5
-23 -15 -30 -15 -12 -16 -12 -10 5 6 15 5 17 -7 7 -11 -10 -14 -4 -14 30 -1
24 3 38 8 33 5 -5 38 -7 74 -6 57 3 66 6 66 23 0 24 -14 26 -107 15 l-43 -5 0
43 0 43 46 7 c26 3 60 6 75 6 27 0 29 3 29 39 l0 39 -70 -1 c-85 -2 -84 -3
-74 123 l7 90 41 -1 41 -2 -35 -6 c-22 -4 -35 -12 -35 -21 0 -15 36 -27 93
-29 26 -1 32 3 32 19 0 14 -7 20 -21 20 -18 0 -19 3 -9 15 24 29 4 45 -56 45
l-57 0 7 312 c4 172 9 351 11 398 2 47 7 202 10 345 10 479 24 977 30 1105 2
30 4 108 5 173 1 64 5 117 8 117 4 0 12 -10 17 -22 6 -11 21 -28 34 -37 l24
-16 -6 40 c-4 22 -7 59 -7 83 0 38 -4 45 -31 60 l-31 17 6 255 c15 526 16 544
31 553 8 4 15 14 15 22 0 10 -17 13 -67 13 -81 -1 -103 2 -103 14 0 5 -9 4
-19 -2 -11 -5 -31 -10 -45 -10 -29 0 -43 -17 -27 -33 8 -8 11 -129 11 -405 l0
-393 -56 2 -56 3 6 195 c3 108 9 286 12 396 6 215 8 233 22 281 7 22 7 35 -1
44 -9 8 -7 15 7 26 40 29 53 19 48 -40 -4 -47 -2 -54 16 -58 24 -7 32 8 32 62
0 36 2 38 34 42 19 2 58 1 87 -2 l54 -5 -2 -48 c-1 -47 0 -48 25 -45 25 3 27
6 26 51 0 26 3 47 8 47 13 0 9 40 -4 41 -25 1 -244 8 -275 9 -26 0 -33 4 -33
20 0 24 9 25 141 5 107 -16 139 -11 139 25 0 29 11 50 27 50 11 0 13 12 8 63
-9 86 -24 174 -36 204 -7 20 -5 35 11 65 26 51 25 74 -5 114 -47 61 -140 66
-202 11 -30 -27 -39 -87 -18 -127 11 -21 14 -41 9 -59 -12 -42 -14 -53 -20
-114 -7 -55 -8 -58 -33 -55 -25 3 -26 5 -27 73 -3 110 -12 236 -18 242 -3 3 1
17 8 32 20 38 18 106 -4 133 -10 13 -34 32 -53 43 -31 16 -39 17 -81 5 -53
-15 -106 -69 -106 -109 0 -14 9 -44 21 -67 16 -33 18 -47 10 -63 -6 -11 -11
-33 -11 -49 0 -17 -6 -32 -12 -34 -32 -10 -256 -9 -263 1 -3 7 -8 33 -10 59
-12 149 -16 182 -24 203 -6 19 -3 30 15 52 13 16 24 41 24 55 -1 43 -35 107
-72 136 -34 26 -35 26 -86 11 -92 -28 -132 -123 -89 -209 17 -36 18 -46 7
-110 -6 -39 -14 -100 -18 -136 l-7 -65 -150 0 -150 0 -2 55 c-2 30 -5 74 -8
96 -4 29 -1 45 9 53 46 38 14 135 -54 166 -62 28 -156 0 -185 -55 -20 -38 -19
-75 2 -111 15 -25 16 -38 5 -112 -15 -101 -15 -120 -2 -112 6 3 10 1 10 -4 0
-6 -4 -11 -9 -11 -4 0 -11 -27 -15 -60 -4 -36 -12 -60 -19 -60 -7 0 -57 5
-112 11 -55 6 -111 12 -124 13 -29 1 -49 47 -50 114 -1 24 -8 66 -18 94 -15
47 -15 52 1 79 23 39 24 107 3 139 -10 16 -37 33 -71 44 -48 17 -61 17 -100 6
-52 -14 -69 -30 -91 -84 -15 -36 -15 -42 0 -81 8 -24 24 -50 35 -60 17 -16 18
-30 14 -193 l-4 -177 -28 -6 c-15 -3 -43 -4 -62 -1 -34 4 -36 6 -58 80 -13 43
-27 86 -32 98 -9 23 -94 84 -119 85 -94 4 -198 10 -251 14 -92 7 -94 7 -105 4
-31 -7 -74 32 -75 69 0 30 8 28 50 -13 31 -30 40 -34 60 -27 17 6 35 5 58 -5
30 -12 37 -12 58 2 32 21 31 45 -2 45 -22 0 -25 2 -14 15 7 8 25 15 41 15 27
0 28 -2 17 -21 -12 -18 -9 -24 22 -50 38 -32 57 -35 107 -17 27 10 38 10 54 0
12 -8 33 -11 50 -7 38 8 47 25 14 25 -17 0 -29 8 -37 25 -10 23 -14 24 -69 18
-33 -3 -59 -2 -59 3 1 22 27 42 50 38 29 -5 55 9 46 25 -4 6 -18 11 -31 11
-13 0 -27 5 -30 10 -3 6 -14 10 -24 10 -28 0 -58 27 -45 40 9 9 18 8 37 -5 29
-18 67 -12 67 11 0 8 -9 14 -20 14 -13 0 -32 17 -52 46 -27 37 -37 44 -55 39
-13 -3 -23 -2 -23 3 0 5 -11 14 -24 20 -21 9 -23 16 -21 66 1 30 6 61 13 68
17 21 8 125 -13 148 -10 11 -24 20 -30 20 -7 0 -19 7 -26 16 -13 15 -11 16 16
11 62 -12 68 -12 72 1 6 16 -63 45 -93 38 -17 -5 -29 2 -51 26 -71 79 -70 79
-98 68 -38 -14 -45 -13 -54 12 -7 19 -16 23 -57 24 -27 1 -73 -6 -103 -15z
m109 -91 c0 -5 -2 -10 -4 -10 -3 0 -8 5 -11 10 -3 6 -1 10 4 10 6 0 11 -4 11
-10z m-334 -30 c-20 -18 -38 -46 -44 -68 l-10 -37 -1 34 c-1 25 7 41 33 67 19
19 39 34 45 34 7 0 -4 -14 -23 -30z m291 -65 c-6 -19 -14 -35 -19 -35 -11 0
-10 2 8 38 20 42 25 40 11 -3z m-227 13 c0 -19 -18 -44 -25 -36 -4 3 0 15 7
27 15 24 18 26 18 9z m433 -39 c-8 -29 -13 -23 -13 14 0 22 3 28 9 18 5 -7 6
-22 4 -32z m-143 -2 c0 -5 -4 -5 -10 -2 -5 3 -10 14 -10 23 0 15 2 15 10 2 5
-8 10 -19 10 -23z m270 -58 c0 -28 -4 -39 -12 -36 -7 2 -13 9 -12 15 1 7 2 26
3 43 2 45 21 25 21 -22z m-667 -33 c53 -68 173 -128 215 -107 9 5 44 14 77 20
33 6 96 27 140 46 44 19 89 35 100 34 17 0 14 -5 -15 -29 -19 -17 -40 -30 -46
-30 -7 0 -31 -16 -54 -35 -23 -19 -50 -39 -59 -44 -11 -7 -13 -13 -5 -21 8 -8
34 2 95 36 46 25 94 55 107 67 19 18 22 18 22 3 0 -9 7 -19 16 -23 33 -12 -6
-92 -46 -93 -12 0 -12 2 -2 9 12 7 42 56 42 67 0 14 -28 -2 -62 -36 -44 -44
-148 -97 -206 -106 -20 -3 -50 -9 -67 -14 -90 -27 -246 -19 -292 15 -31 23 -5
29 50 12 64 -20 141 -16 145 7 2 9 13 16 26 16 30 0 139 45 144 59 5 16 -14
14 -58 -8 -28 -13 -59 -18 -113 -17 -79 1 -98 10 -120 55 -12 26 -22 28 -76
20 -19 -3 -28 4 -47 39 -19 36 -21 44 -8 49 8 3 24 -3 35 -13 15 -13 22 -15
31 -6 9 9 6 18 -12 37 -23 24 -23 25 -3 25 12 0 32 -15 46 -34z m327 -36 c-8
-5 -33 -12 -54 -16 -22 -3 -48 -11 -57 -17 -19 -12 -99 7 -99 23 0 5 37 11 83
13 45 1 96 4 112 5 22 1 26 -1 15 -8z m2154 -55 c16 -44 -8 -95 -44 -95 -29 0
-87 28 -94 45 -10 26 13 65 46 80 28 11 37 11 59 -1 15 -7 29 -21 33 -29z
m-2496 -53 c8 8 13 6 19 -8 10 -27 34 -43 63 -44 14 0 32 -5 40 -10 12 -8 11
-10 -7 -10 -21 0 -173 47 -183 57 -10 10 25 21 40 13 11 -6 21 -5 28 2z m1930
-58 c28 -19 30 -82 4 -114 -16 -19 -24 -21 -61 -15 -46 8 -81 34 -81 62 0 9
11 31 26 50 28 37 73 45 112 17z m-1191 -20 c-3 -3 -12 -4 -19 -1 -8 3 -5 6 6
6 11 1 17 -2 13 -5z m619 -40 c41 -43 43 -76 7 -110 -44 -41 -92 -44 -138 -8
-29 22 -26 96 5 129 36 38 84 34 126 -11z m-774 -6 c-15 -15 -26 -4 -18 18 5
13 9 15 18 6 9 -9 9 -15 0 -24z m-1148 -22 c45 -41 45 -63 3 -104 -47 -46 -85
-51 -126 -17 -18 16 -30 34 -27 41 3 8 1 14 -5 14 -14 0 -2 37 23 73 29 41 85
38 132 -7z m998 17 c0 -10 1 -25 0 -35 -1 -9 5 -21 13 -28 13 -11 12 -16 -5
-40 -11 -16 -20 -30 -20 -33 0 -3 -16 -21 -35 -40 -38 -38 -43 -52 -20 -60 8
-4 22 4 34 19 l19 25 7 -31 c4 -16 18 -39 31 -49 l25 -20 -19 -38 c-11 -21
-22 -51 -26 -67 -7 -29 -41 -65 -62 -66 -7 0 -15 -7 -18 -15 -9 -25 23 -30 52
-8 15 11 35 22 45 26 19 7 20 10 37 75 6 23 24 57 39 74 27 30 29 31 59 17 18
-8 32 -21 32 -30 0 -8 -25 -37 -55 -63 -30 -26 -63 -62 -72 -79 -9 -18 -22
-36 -28 -42 -21 -17 -135 -183 -150 -218 -7 -17 -16 -62 -20 -99 -9 -86 -21
-104 -57 -87 -31 13 -44 43 -52 114 -10 86 -13 99 -23 102 -26 9 -43 31 -48
62 -3 18 -12 39 -19 47 -20 19 -29 85 -21 144 6 42 4 50 -13 61 -15 9 -18 18
-12 33 4 12 5 27 3 34 -4 9 2 11 21 6 27 -6 32 2 28 49 -1 9 3 17 8 17 6 0 10
-3 10 -8 0 -12 61 -41 98 -46 49 -7 128 31 108 51 -3 3 -26 0 -50 -7 -41 -11
-49 -10 -90 10 -26 12 -46 28 -46 36 0 8 -4 14 -9 14 -5 0 -12 8 -15 18 -3 9
-28 40 -56 69 -54 57 -66 90 -27 76 33 -12 179 -7 237 7 19 5 40 10 45 12 6 1
26 8 45 15 49 17 70 16 72 -4z m358 13 c0 -3 -4 -8 -10 -11 -5 -3 -10 -1 -10
4 0 6 5 11 10 11 6 0 10 -2 10 -4z m1694 -68 c18 -240 18 -228 -9 -228 -14 0
-34 5 -44 12 -18 11 -18 13 -4 23 27 20 6 36 -40 29 -29 -5 -39 -3 -32 4 6 6
24 12 40 14 43 4 41 33 -2 32 -18 -1 -33 2 -33 7 0 5 15 9 34 9 37 0 54 14 34
26 -7 4 -25 7 -40 6 -15 -1 -28 2 -28 8 0 5 16 10 35 10 47 0 49 29 3 31 -32
2 -32 2 -5 6 16 3 31 11 34 20 7 18 -17 35 -33 23 -6 -6 -14 -7 -17 -4 -12 12
4 24 31 24 15 0 34 5 42 10 26 17 28 12 34 -62z m507 31 c45 -48 37 -85 -22
-98 -59 -12 -69 -5 -69 49 0 39 4 52 22 64 31 22 36 21 69 -15z m-2451 -73 c0
-8 -4 -18 -10 -21 -5 -3 -10 3 -10 14 0 12 5 21 10 21 6 0 10 -6 10 -14z
m1400 -13 c1 -5 5 -65 9 -134 11 -159 8 -179 -30 -179 -29 0 -46 14 -29 25 26
16 7 27 -40 23 -28 -3 -53 -2 -56 3 -2 4 15 9 38 11 31 2 44 8 46 21 3 14 -5
17 -45 18 l-48 2 40 6 c28 4 41 12 43 24 3 16 -1 17 -32 11 -23 -4 -36 -2 -36
4 0 6 15 12 33 14 41 4 45 33 5 33 -36 0 -37 19 -1 23 37 5 49 17 34 35 -9 12
-7 16 10 20 13 4 18 10 14 17 -4 7 -1 16 6 21 17 11 39 12 39 2z m-95 -21 c-3
-3 -11 0 -18 7 -9 10 -8 11 6 5 10 -3 15 -9 12 -12z m1463 -15 c18 -37 8 -75
-24 -89 -19 -9 -30 -9 -45 0 -10 7 -26 12 -34 12 -31 0 -11 94 22 103 40 11
68 2 81 -26z m-2724 -12 c3 -8 1 -15 -4 -15 -6 0 -10 7 -10 15 0 8 2 15 4 15
2 0 6 -7 10 -15z m794 -38 c6 -17 13 -58 17 -91 4 -32 13 -76 21 -98 8 -22 14
-54 14 -70 0 -38 -36 -52 -110 -43 l-54 7 34 15 c34 14 34 15 15 29 -19 14
-19 16 -2 25 24 14 21 29 -5 29 -21 0 -21 1 -3 13 25 19 10 40 -22 32 -18 -4
-24 -2 -21 7 3 7 14 14 26 16 11 2 26 10 32 17 17 20 -16 33 -41 16 -16 -9
-19 -8 -19 4 0 9 16 23 35 31 32 13 48 34 25 34 -5 0 -7 7 -4 15 4 8 1 15 -5
15 -6 0 -11 5 -11 10 0 6 9 10 19 10 11 0 23 5 26 10 10 16 22 3 33 -33z m452
33 c0 -5 -4 -10 -10 -10 -5 0 -10 5 -10 10 0 6 5 10 10 10 6 0 10 -4 10 -10z
m1176 -53 c-3 -11 0 -55 6 -97 7 -50 7 -91 1 -116 -8 -37 -11 -39 -43 -36 -19
2 -39 7 -44 12 -4 5 -24 6 -42 3 -21 -4 -34 -1 -34 5 0 6 21 12 47 14 65 4 70
28 6 29 l-48 1 44 9 c24 5 46 11 48 13 13 12 -12 26 -48 26 -21 0 -39 5 -39
10 0 6 20 10 44 10 72 0 73 29 1 32 -42 1 -26 18 18 18 27 0 41 30 15 30 -7 0
-5 5 5 11 29 17 19 29 -23 29 -57 0 -49 13 18 31 63 16 79 8 68 -34z m-4070
15 c29 -24 44 -64 32 -85 -15 -27 -51 -63 -71 -70 -26 -10 -16 -31 16 -35 26
-3 27 -5 27 -75 0 -40 5 -89 11 -111 9 -34 8 -41 -11 -61 -12 -13 -33 -25 -46
-28 -24 -4 -24 -4 -8 15 23 25 6 45 -24 29 -36 -19 -38 -12 -4 15 37 29 41 44
12 44 -27 0 -25 14 5 30 27 15 24 30 -7 30 -17 0 -19 4 -13 28 16 63 12 96
-13 118 -21 17 -26 31 -27 78 -2 50 1 59 23 76 30 24 70 25 98 2z m3977 -49
c-7 -2 -19 -2 -25 0 -7 3 -2 5 12 5 14 0 19 -2 13 -5z m-523 -13 c-20 -13 -33
-13 -25 0 3 6 14 10 23 10 15 0 15 -2 2 -10z m-1577 -37 c39 2 83 1 96 -5 l24
-9 -21 -15 c-31 -21 -18 -36 29 -31 22 2 42 0 45 -4 3 -5 -6 -9 -19 -9 -13 0
-32 -9 -42 -20 -18 -20 -17 -20 39 -20 42 0 57 -3 54 -12 -3 -7 -13 -15 -24
-16 -10 -2 -23 -8 -29 -13 -14 -14 15 -30 43 -24 21 5 22 2 24 -47 1 -53 1
-63 -2 -168 -1 -30 2 -107 7 -170 5 -63 8 -118 6 -122 -6 -11 -104 -40 -111
-33 -4 4 0 10 8 13 21 7 80 68 80 82 0 7 -9 14 -20 17 -11 3 -20 14 -20 24 0
40 -44 33 -55 -9 -6 -27 -42 -72 -56 -72 -4 0 -3 16 1 37 7 29 3 52 -20 116
-22 60 -27 84 -19 98 5 11 7 24 4 29 -12 19 -33 10 -45 -21 -13 -31 -10 -46
27 -149 9 -24 6 -86 -6 -108 -13 -24 -15 -72 -3 -72 4 0 18 7 30 16 18 13 26
13 38 3 21 -17 7 -26 -59 -33 -55 -6 -57 -5 -45 13 23 37 -2 35 -42 -4 -22
-22 -40 -34 -40 -29 0 6 8 19 19 28 29 27 61 169 40 182 -16 10 -29 -15 -29
-58 0 -53 -14 -82 -61 -128 -32 -31 -49 -40 -76 -40 -32 0 -34 2 -22 16 7 9
12 29 11 45 -2 16 1 29 7 29 7 0 11 35 11 98 0 100 22 266 42 315 13 35 9 39
-31 31 -23 -5 -40 -18 -58 -45 -23 -35 -63 -54 -63 -29 0 10 81 115 109 140
26 24 51 68 51 90 0 45 64 117 87 98 8 -7 41 -9 86 -5z m2491 -27 c8 -18 15
-60 17 -92 l4 -58 -44 -4 c-39 -3 -43 -2 -33 11 10 12 9 16 -5 21 -15 6 -15 8
-3 16 17 11 6 25 -21 25 -31 0 -22 20 11 25 37 6 40 24 5 28 -31 4 -33 19 -2
24 12 2 23 9 23 16 2 21 4 22 19 22 8 0 21 -15 29 -34z m-867 11 c185 -2 317
1 322 6 12 12 41 2 41 -13 0 -6 -4 -8 -10 -5 -6 4 -10 -8 -10 -29 l0 -36 -112
-1 c-62 -1 -133 -1 -158 -1 -145 4 -420 1 -448 -4 l-33 -6 5 38 c2 22 5 45 5
51 1 9 14 11 44 8 23 -3 183 -7 354 -8z m-1147 -121 c0 -2 -7 -7 -16 -10 -8
-3 -12 -2 -9 4 6 10 25 14 25 6z m1485 -6 c15 -6 6 -9 -32 -9 -28 -1 -55 4
-58 9 -8 12 61 12 90 0z m-1127 -5 c-3 -3 -23 -7 -44 -9 -21 -2 -56 -7 -77
-11 -32 -6 -36 -5 -31 9 5 13 21 16 82 16 41 0 73 -2 70 -5z m861 -55 c0 -33
3 -64 6 -70 3 -5 -9 -7 -28 -3 -39 6 -62 -21 -25 -30 20 -6 20 -6 14 -789 -4
-431 -8 -805 -10 -833 -6 -116 -16 -635 -21 -1110 -5 -492 -11 -833 -20 -1075
-2 -63 -4 -181 -5 -262 0 -127 -2 -148 -16 -148 -13 0 -14 11 -10 68 17 207
22 968 11 1532 -7 387 -8 900 -1 980 3 41 8 140 11 220 3 80 8 197 11 260 4
63 6 120 6 125 0 6 -1 231 -2 502 -1 429 -3 492 -17 497 -8 3 -19 4 -24 0 -5
-3 -9 -77 -9 -165 0 -105 -4 -159 -11 -159 -5 0 -7 -5 -3 -12 4 -7 10 -24 12
-38 7 -38 4 -941 -3 -1055 -3 -55 -8 -365 -10 -690 -3 -593 -14 -1572 -20
-1805 -1 -69 -3 -155 -4 -192 0 -38 -4 -68 -8 -68 -5 0 -8 341 -8 757 0 417
-4 967 -9 1223 -4 256 -7 510 -5 565 1 55 3 143 4 195 1 52 6 201 11 330 5
129 9 438 9 687 l-1 452 36 7 c19 4 41 6 49 5 7 -1 11 4 9 11 -3 8 -28 15 -64
18 -54 5 -58 14 -10 22 35 6 30 28 -6 28 -33 0 -33 1 -30 40 l4 40 93 0 93 0
1 -60z m698 54 c-3 -3 -12 -4 -19 -1 -8 3 -5 6 6 6 11 1 17 -2 13 -5z m-1147
-31 c41 -4 106 -7 143 -7 l68 -1 -6 -35 c-9 -48 -10 -49 -58 -45 -23 2 -112 4
-197 4 l-155 1 -12 28 c-7 15 -10 37 -7 49 6 24 13 24 224 6z m850 -18 c155
-6 402 -24 409 -31 2 -2 -1 -15 -7 -29 -7 -14 -12 -35 -12 -47 0 -18 -4 -20
-32 -13 -66 14 -505 35 -620 30 l-88 -5 0 56 0 56 103 -6 c56 -3 167 -8 247
-11z m-1114 -30 c3 -43 -6 -67 -21 -61 -16 6 -340 -29 -454 -49 -45 -8 -86
-13 -90 -11 -3 2 -31 -2 -61 -10 -92 -24 -95 -23 -95 42 l0 57 65 2 c36 1 166
14 290 28 377 44 362 44 366 2z m-2166 -21 l0 -34 -102 0 c-161 0 -371 -12
-390 -21 -32 -17 -65 -10 -73 14 -21 59 -18 61 90 65 55 2 105 5 110 6 6 2 90
4 188 4 l177 0 0 -34z m2311 -54 c20 -11 27 -50 9 -50 -5 0 -10 -18 -10 -40
l0 -40 -72 6 c-40 4 -75 8 -77 10 -2 2 -3 15 -3 28 0 30 -21 51 -43 42 -17 -6
-20 -51 -5 -61 6 -4 8 -21 4 -41 -3 -19 -2 -34 2 -34 5 0 9 -48 10 -108 0 -59
4 -242 7 -407 4 -165 10 -496 13 -735 12 -861 13 -801 -3 -789 -10 9 -18 8
-33 -6 -11 -10 -17 -22 -14 -26 3 -5 -2 -12 -11 -15 -26 -10 -38 -52 -40 -138
-1 -54 -6 -81 -15 -84 -7 -3 -20 -13 -28 -23 -9 -11 -21 -19 -26 -19 -5 0 -17
-7 -26 -15 -16 -14 -17 8 -24 331 -4 191 -9 363 -11 383 -4 41 -12 405 -20
866 -3 171 -8 416 -11 547 -3 159 -1 238 6 243 14 9 13 21 -6 40 -19 19 -41 6
-46 -28 -4 -28 -43 -38 -148 -37 -47 1 -91 1 -97 1 -22 -1 -14 -21 12 -33 16
-7 25 -19 25 -34 0 -12 4 -33 9 -47 11 -28 21 -243 36 -767 10 -375 16 -526
20 -560 3 -19 7 -145 10 -280 4 -135 8 -292 10 -350 2 -58 6 -184 9 -280 4
-96 9 -214 12 -261 5 -85 5 -85 -21 -97 -16 -7 -33 -28 -42 -50 -10 -25 -29
-46 -61 -66 -65 -40 -143 -82 -169 -90 -25 -8 -28 3 -38 129 -3 39 -10 113
-15 165 -5 52 -12 136 -15 185 -7 114 -12 179 -26 335 -12 150 -21 590 -11
604 4 6 8 49 9 96 1 47 6 110 11 140 8 47 7 60 -9 85 -25 43 -101 116 -134
129 -27 11 -27 12 -29 119 l-3 108 23 -28 c32 -40 45 -91 38 -150 -6 -48 -5
-50 20 -55 14 -3 28 -3 31 0 3 3 5 30 5 59 0 45 6 62 35 106 19 28 35 55 35
60 0 16 93 173 112 187 19 16 37 73 38 118 0 18 -6 22 -28 22 -28 0 -28 1 -25
57 2 44 7 61 23 73 19 15 20 20 10 120 -12 122 -14 130 -34 130 -11 0 -15 15
-15 63 -1 34 -2 80 -4 102 l-2 40 70 6 c77 7 90 -1 90 -51 0 -24 2 -25 71 -24
85 1 111 8 95 27 -7 10 -27 12 -64 9 -40 -3 -56 0 -66 12 -11 13 -9 19 15 41
16 15 39 25 58 25 17 0 48 4 69 9 35 8 38 7 53 -21 18 -35 50 -35 47 0 -4 33
30 42 179 49 111 5 130 9 139 25 11 20 77 25 110 8z m350 -125 c1 -71 1 -376
0 -677 l-1 -548 -35 -46 c-19 -25 -35 -52 -35 -60 0 -9 -24 -38 -52 -66 -51
-50 -53 -54 -52 -104 0 -34 6 -60 16 -71 18 -20 23 -95 20 -299 l-2 -121 -52
-6 c-67 -8 -78 -24 -78 -104 0 -49 -3 -63 -15 -63 -12 0 -15 17 -17 83 -1 45
-3 98 -4 117 -1 19 -4 455 -8 969 -3 514 -9 937 -11 940 -3 2 4 15 16 27 23
24 37 98 21 108 -6 3 -8 15 -5 25 6 24 26 27 180 26 l113 0 1 -130z m-1722 40
c-19 -133 -29 -180 -39 -183 -20 -7 -39 -59 -45 -130 -6 -60 -5 -72 7 -72 12
0 17 18 22 71 8 81 14 101 27 93 14 -8 11 -48 -7 -83 -12 -25 -14 -38 -5 -63
6 -17 11 -33 11 -34 0 -2 -19 -4 -42 -4 l-43 0 2 97 c1 70 6 100 16 108 8 5
22 46 32 90 17 77 61 193 70 184 2 -3 -1 -36 -6 -74z m2106 42 c-9 -34 15 -56
65 -61 32 -3 46 -8 48 -20 5 -21 46 -18 49 4 1 8 4 32 8 53 l6 37 72 -1 c108
-1 109 -1 101 -62 -7 -58 -21 -90 -34 -82 -19 12 -175 22 -194 12 -19 -9 -19
-10 -2 -23 17 -12 18 -37 17 -341 -1 -323 -6 -423 -21 -423 -14 0 -53 104 -58
153 -4 37 -8 47 -21 45 -9 -2 -17 -12 -20 -23 -2 -11 -14 -33 -26 -50 -36 -48
-96 -173 -85 -180 5 -3 9 -81 9 -174 1 -161 0 -169 -19 -174 -11 -3 -20 -12
-20 -21 0 -12 10 -16 35 -16 19 0 35 -3 35 -6 0 -4 -10 -34 -22 -66 -17 -49
-27 -61 -55 -73 -39 -16 -40 -41 -2 -38 95 6 171 18 179 29 16 19 1 22 -60 14
-30 -4 -56 -7 -56 -6 -1 0 17 40 40 88 40 85 58 102 63 64 2 -10 10 -24 18
-30 8 -6 15 -32 17 -61 3 -58 28 -70 40 -20 6 29 0 -209 -7 -269 -2 -16 -6
-191 -10 -390 -3 -199 -7 -435 -10 -526 -2 -91 -7 -313 -11 -495 -3 -181 -7
-361 -9 -400 -2 -38 -4 -78 -4 -87 -1 -16 -12 -18 -95 -18 -51 0 -106 3 -122
6 l-29 5 2 932 c1 882 8 1429 19 1507 3 19 7 296 10 615 2 319 6 585 8 590 2
6 35 9 80 7 72 -3 76 -5 71 -25z m122 9 c4 -4 0 -13 -8 -22 -12 -11 -22 -13
-42 -5 -41 16 -35 40 8 37 20 -2 39 -6 42 -10z m-3629 -23 c-2 -9 -28 -31 -58
-49 -30 -18 -64 -40 -75 -49 -11 -9 -45 -29 -75 -44 -30 -15 -86 -46 -124 -69
-37 -23 -70 -42 -73 -42 -2 0 -30 -18 -60 -40 -63 -45 -78 -49 -70 -19 3 12 0
22 -9 26 -28 11 -13 31 54 73 37 23 125 81 197 130 95 64 133 85 142 78 9 -7
22 -7 40 0 67 26 116 28 111 5z m302 -17 c0 -47 9 -66 30 -66 24 0 36 18 21
33 -17 17 -13 45 7 55 9 5 37 7 62 4 43 -3 47 -6 63 -46 13 -32 15 -49 8 -68
-5 -14 -9 -69 -9 -122 1 -75 -3 -100 -15 -114 -9 -10 -18 -39 -20 -64 -2 -25
-7 -51 -12 -57 -4 -7 1 -21 11 -32 17 -19 19 -71 8 -274 -3 -66 -2 -71 23 -92
22 -18 27 -31 28 -73 2 -40 8 -57 28 -78 15 -16 27 -38 27 -51 0 -13 7 -36 17
-51 15 -26 15 -30 0 -63 -12 -23 -17 -60 -17 -109 0 -40 0 -102 -1 -136 -1
-37 4 -74 12 -89 12 -23 11 -27 -14 -45 -21 -15 -27 -28 -27 -58 0 -22 6 -43
16 -51 13 -11 15 -25 10 -71 -5 -52 -4 -59 17 -69 32 -17 32 -18 11 -34 -19
-15 -18 -15 5 -35 36 -31 53 -19 40 28 -5 16 106 55 132 47 22 -7 44 19 27 32
-7 6 -20 12 -27 15 -16 5 197 80 334 118 44 13 109 31 145 41 148 43 378 71
405 49 10 -8 23 -9 42 -2 21 6 34 5 51 -6 12 -8 22 -18 22 -22 0 -10 -88 -20
-235 -26 -72 -3 -150 -14 -195 -26 -41 -11 -79 -21 -85 -22 -36 -9 -122 -38
-185 -64 -41 -17 -102 -38 -135 -48 -107 -30 -220 -94 -167 -94 11 0 33 7 48
15 16 8 36 15 44 14 8 0 11 -2 5 -5 -13 -5 -11 -141 3 -259 6 -49 14 -124 16
-165 3 -41 8 -109 11 -150 3 -41 8 -131 10 -200 3 -97 10 -145 31 -215 17 -59
27 -116 28 -165 1 -70 2 -75 23 -74 19 0 23 -6 28 -50 3 -28 7 -161 9 -296 4
-233 6 -251 36 -380 28 -119 31 -144 25 -225 -6 -83 -5 -92 15 -112 26 -28 56
-32 44 -5 -12 25 -17 162 -6 162 18 0 34 -58 39 -148 3 -51 9 -95 14 -97 13
-9 39 7 39 23 0 9 12 -7 27 -36 17 -33 33 -52 44 -52 29 0 33 20 9 53 -14 18
-25 50 -28 79 -5 51 -16 68 -35 49 -18 -18 -23 -13 -26 31 -1 23 -10 62 -21
87 -10 25 -21 79 -25 119 -6 77 -19 193 -30 277 -4 28 -8 68 -8 89 -2 46 -22
58 -38 22 -9 -19 -8 -59 4 -173 9 -82 19 -158 22 -168 6 -19 6 -19 -5 -2 -17
27 -48 190 -54 292 -13 204 -16 601 -5 677 14 96 6 148 -21 148 -22 0 -22 1
-21 -90 1 -68 -13 -146 -21 -120 -2 8 -17 51 -31 95 -24 72 -27 96 -27 220 0
163 -21 443 -35 465 -3 5 -7 79 -9 164 l-3 155 50 16 c27 9 52 14 54 11 7 -6
20 -141 29 -286 4 -58 8 -107 10 -109 2 -2 11 -1 20 3 15 6 16 20 12 119 -6
114 4 111 16 -5 4 -35 14 -92 22 -128 11 -49 12 -81 6 -129 -5 -36 -10 -132
-11 -215 -1 -83 -4 -160 -6 -171 -3 -11 1 -63 8 -115 9 -72 16 -95 27 -95 13
0 15 29 16 190 1 294 3 347 13 341 4 -3 11 -52 14 -108 4 -71 13 -122 28 -163
24 -62 29 -153 15 -260 -4 -27 -9 -148 -12 -269 -5 -175 -4 -220 7 -226 7 -5
16 -7 20 -4 5 2 8 62 8 132 1 71 8 202 17 293 21 222 20 282 -7 344 -36 80
-52 413 -29 613 5 48 10 122 11 165 1 43 6 77 12 77 6 0 7 -38 3 -107 -8 -128
-1 -173 25 -173 14 0 19 -9 21 -47 2 -38 7 -48 21 -48 16 0 18 16 23 188 3
104 10 199 15 210 6 15 7 -27 3 -121 -5 -126 -4 -143 11 -148 13 -5 14 -9 4
-15 -10 -6 -12 -39 -10 -141 7 -240 6 -911 -2 -1018 -4 -58 -10 -195 -13 -305
-3 -110 -7 -202 -10 -206 -5 -9 23 -45 31 -37 3 3 8 73 11 155 5 172 24 592
29 643 6 55 7 57 14 25 3 -17 13 -30 21 -30 12 0 15 14 16 60 1 34 11 88 24
125 19 55 21 76 15 135 -4 39 -9 103 -10 144 -1 40 -7 76 -13 80 -12 7 -18 41
-28 158 -8 88 -4 102 30 96 23 -5 26 -10 25 -52 -1 -25 5 -68 11 -96 7 -27 14
-66 15 -86 6 -86 16 -119 36 -119 18 0 19 6 14 73 -5 66 -21 197 -30 241 -2
10 1 70 8 132 12 125 7 145 -32 125 -20 -11 -21 -9 -21 25 0 30 3 34 14 25 26
-22 39 12 31 84 -12 114 11 71 28 -52 20 -146 25 -222 33 -540 5 -185 3 -253
-5 -253 -6 0 -11 17 -11 41 0 36 -2 40 -22 37 -22 -3 -23 -7 -20 -73 2 -38 10
-101 18 -140 8 -38 14 -118 14 -176 0 -171 33 -313 76 -329 20 -8 24 -16 23
-47 0 -33 -1 -35 -9 -15 -6 13 -18 22 -30 22 -17 0 -21 -6 -20 -27 3 -46 -2
-60 -10 -28 -4 17 -8 62 -9 102 -1 75 -12 96 -39 70 -15 -16 -13 -63 15 -280
4 -30 2 -36 -9 -32 -8 3 -21 -1 -28 -9 -18 -23 -16 -214 3 -258 8 -18 19 -45
25 -60 12 -30 39 -37 48 -13 4 8 -4 36 -15 61 -15 31 -23 70 -25 124 -5 115 8
115 27 -1 11 -63 26 -118 40 -143 l24 -41 -24 -34 c-23 -35 -31 -95 -13 -106
6 -3 10 -15 10 -26 0 -10 5 -19 10 -19 6 0 10 -5 10 -10 0 -16 73 -108 91
-115 24 -8 44 -56 27 -66 -6 -4 -57 -7 -113 -7 -113 1 -203 -20 -248 -58 -25
-21 -34 -23 -115 -18 -147 8 -171 13 -205 43 -38 33 -73 44 -143 44 l-51 0 2
46 c1 25 3 48 4 50 0 2 10 -4 21 -14 25 -23 35 -13 31 31 -2 24 2 36 13 40 9
3 16 12 16 19 0 7 7 16 16 19 14 5 15 18 9 84 -3 42 -7 96 -7 120 0 47 -11 60
-34 41 -23 -19 -30 -1 -44 109 -6 52 -18 112 -26 134 -8 22 -12 43 -9 48 4 7
-9 55 -27 96 -5 11 -8 24 -7 30 2 5 0 25 -4 44 -3 19 -13 96 -22 170 -22 191
-23 198 -30 210 -11 18 -35 -9 -35 -38 0 -15 9 -94 21 -177 19 -138 36 -228
75 -406 8 -37 18 -100 23 -142 5 -41 12 -81 17 -88 5 -8 9 -18 9 -24 0 -5 7
-28 14 -50 15 -47 11 -147 -6 -152 -15 -5 -22 32 -32 154 -4 54 -15 115 -24
137 -10 21 -17 50 -17 65 0 29 -19 101 -43 166 -15 40 -50 272 -62 420 -11
120 -8 319 5 323 15 5 12 29 -10 96 -11 33 -20 87 -21 120 0 34 -4 85 -8 113
-4 29 -4 58 1 65 6 10 8 9 8 -2 0 -8 7 -60 15 -115 9 -55 17 -114 19 -130 5
-41 24 -112 42 -158 7 -20 14 -58 14 -82 0 -52 24 -63 40 -19 10 26 7 50 -15
119 -21 66 -53 235 -60 319 -3 44 -10 87 -15 96 -12 23 -21 72 -25 145 -2 33
-7 78 -11 100 -10 52 -11 55 -12 88 -2 31 -25 36 -42 10 -9 -14 -10 -4 -6 44
4 39 2 65 -5 69 -20 12 -34 -17 -36 -74 -1 -31 -3 -59 -4 -62 -4 -17 4 -93 17
-141 15 -62 32 -204 40 -349 3 -52 10 -111 16 -129 6 -20 11 -108 11 -200 -1
-168 9 -307 27 -393 12 -59 5 -78 -29 -78 -26 0 -126 -26 -146 -38 -17 -10
-98 -1 -144 18 l-46 18 -5 303 c-4 252 -7 304 -19 304 -12 0 -14 -94 -12 -625
1 -343 0 -622 -4 -619 -7 8 -12 159 -19 600 -6 348 -10 535 -22 1014 -10 398
-11 446 -17 840 -4 209 -8 598 -9 865 -3 454 -2 485 15 488 14 3 17 -4 17 -40
0 -24 2 -198 5 -388 2 -190 7 -642 11 -1005 4 -363 8 -703 9 -755 2 -52 4
-155 4 -229 1 -113 3 -132 15 -122 11 9 15 9 19 -1 2 -7 2 157 0 365 -4 297
-2 381 8 393 10 13 10 17 -1 24 -12 8 -15 143 -16 872 -1 756 0 867 14 896 13
28 13 35 2 42 -8 5 -22 3 -34 -6 -15 -10 -46 -14 -111 -12 -87 1 -88 2 -27 7
82 8 85 25 5 29 -35 2 -63 6 -63 10 1 21 20 31 57 29 23 0 45 2 49 5 14 15
-10 28 -52 28 -68 0 -52 17 18 19 34 1 64 3 66 6 3 3 14 5 24 5 14 0 18 -8 18
-34z m974 -32 c-26 -45 -27 -47 -9 -60 15 -11 16 -18 7 -38 -5 -13 -13 -43
-17 -67 -5 -33 -13 -47 -31 -56 -21 -10 -24 -9 -24 10 1 22 18 97 40 170 14
48 53 114 58 99 2 -6 -9 -32 -24 -58z m-1228 -10 c-8 -31 10 -91 30 -102 19
-11 44 -129 41 -195 -1 -29 2 -153 6 -277 4 -124 10 -360 13 -525 3 -165 7
-320 9 -345 2 -25 6 -124 9 -220 4 -96 8 -251 11 -345 8 -231 14 -448 20 -710
3 -121 8 -279 11 -352 3 -81 1 -134 -5 -137 -5 -4 -12 -2 -16 4 -13 21 -58 9
-103 -29 -34 -29 -61 -42 -100 -49 -29 -5 -54 -7 -56 -3 -2 3 -7 173 -11 376
-4 204 -8 433 -10 510 -2 77 -6 282 -10 455 -3 173 -8 364 -10 424 l-3 108 38
15 c42 17 60 46 60 98 0 46 -9 65 -30 65 -10 0 -20 7 -24 15 -3 8 -14 15 -25
15 -19 0 -19 13 -21 513 -1 600 -2 523 7 572 6 31 15 44 39 55 16 9 37 21 45
28 21 18 82 62 87 62 2 0 1 -12 -2 -26z m1256 -36 c-7 -7 -12 -8 -12 -2 0 14
12 26 19 19 2 -3 -1 -11 -7 -17z m-738 -10 c7 -26 8 -68 2 -68 -23 0 -36 17
-36 44 0 49 23 64 34 24z m2110 -7 c3 -4 8 -197 11 -427 2 -230 7 -525 10
-654 12 -490 16 -858 19 -1919 4 -898 7 -1095 18 -1102 7 -5 9 -9 3 -9 -36 0
-37 15 -50 1225 -6 559 -12 796 -25 1045 -5 102 -12 424 -15 715 -9 871 -14
1098 -26 1106 -7 4 -8 12 -5 18 8 13 52 15 60 2z m69 2 c8 -13 17 -240 23
-558 9 -549 13 -2801 4 -2750 -4 28 -8 147 -9 265 -1 315 -10 978 -16 1185 -3
99 -8 333 -10 520 -2 187 -7 545 -10 795 -3 250 -8 472 -11 492 -6 38 0 58 16
58 5 0 11 -3 13 -7z m1001 -103 c-1 -176 -16 -825 -19 -830 -1 -3 -6 -131 -10
-285 -4 -154 -8 -282 -10 -285 -5 -8 -14 -212 -20 -425 -7 -258 -14 -487 -20
-650 -9 -228 -22 -698 -31 -1090 -5 -225 -9 -283 -20 -295 -13 -13 -14 17 -9
240 3 140 8 446 11 680 8 702 22 1456 29 1575 3 44 7 161 11 259 3 99 7 182 8
185 4 6 15 548 17 816 1 88 4 164 6 168 3 5 17 7 31 5 26 -3 27 -5 26 -68z
m80 -35 c-1 -114 -14 -591 -19 -710 -2 -49 -7 -178 -10 -285 -7 -198 -9 -245
-19 -450 -13 -229 -25 -505 -23 -520 1 -16 -11 -387 -18 -550 -2 -52 -7 -183
-10 -290 -3 -107 -8 -211 -10 -230 -2 -19 -7 -156 -12 -305 -5 -160 -10 -242
-13 -200 -5 67 1 395 14 805 3 107 8 319 11 470 11 570 16 787 20 840 3 30 7
125 10 210 5 159 12 313 24 550 4 74 8 257 9 405 3 310 7 358 31 353 13 -3 16
-18 15 -93z m-3630 53 c3 -18 8 -130 11 -248 5 -208 6 -361 6 -785 0 -110 2
-276 4 -370 2 -93 7 -300 11 -460 3 -159 7 -310 9 -335 2 -25 6 -198 9 -385 4
-187 9 -380 11 -430 7 -145 17 -860 12 -855 -2 3 -7 111 -11 240 -4 129 -11
390 -16 580 -5 190 -12 392 -15 450 -3 58 -8 188 -10 290 -2 102 -7 268 -10
370 -8 293 -22 996 -31 1555 -3 197 -6 362 -6 365 -5 53 18 68 26 18z m2112
-8 c2 -51 14 -646 19 -980 3 -190 8 -388 10 -440 3 -52 7 -225 10 -385 3 -159
8 -380 11 -490 8 -302 9 -784 1 -791 -4 -4 -7 19 -7 52 0 32 -2 129 -5 214 -2
85 -6 272 -10 415 -3 143 -8 280 -10 305 -3 25 -7 151 -10 280 -3 129 -8 260
-10 290 -5 59 -10 245 -31 1250 -3 157 -6 287 -6 290 -1 17 4 21 20 18 10 -2
17 -13 18 -28z m-1759 13 c-4 -3 -1 -13 6 -22 11 -14 10 -14 -5 -2 -21 15 -23
31 -6 31 6 0 8 -3 5 -7z m1677 -233 c11 -434 15 -597 21 -865 4 -148 8 -297
10 -330 2 -33 4 -70 5 -82 0 -17 4 -21 17 -16 11 4 14 3 9 -6 -4 -6 -2 -19 5
-27 11 -13 10 -15 -7 -12 -18 3 -19 -4 -19 -152 1 -85 4 -294 9 -465 14 -580
26 -1117 30 -1357 2 -111 0 -198 -5 -198 -5 0 -10 10 -10 23 -2 34 -4 102 -12
337 -4 118 -10 240 -12 270 -3 30 -10 208 -15 395 -6 187 -12 372 -15 410 -2
39 -7 149 -10 245 -3 96 -7 211 -10 255 -12 199 -15 259 -20 400 -2 83 -8 224
-11 315 -9 198 -6 293 8 301 6 4 4 9 -5 12 -12 4 -15 25 -16 94 -1 158 -11
546 -16 615 -5 67 -5 67 22 70 16 2 31 1 35 -2 3 -3 9 -106 12 -230z m-2427
204 c18 -5 20 -10 12 -37 -5 -18 -16 -37 -25 -44 -10 -7 -14 -19 -10 -29 5
-13 9 -15 18 -6 7 7 16 12 21 12 11 0 -35 -59 -46 -59 -5 -1 -22 -10 -39 -22
-37 -27 -48 -18 -12 10 33 26 26 56 -11 49 -23 -5 -25 -3 -25 37 0 37 4 45 37
68 40 29 46 30 80 21z m4257 -21 c-4 -10 -9 -137 -10 -283 -6 -568 -16 -1257
-19 -1300 -3 -43 -11 -362 -20 -790 -16 -823 -34 -1432 -42 -1440 -5 -5 0 293
12 857 4 184 3 203 -13 212 -15 9 -15 10 -1 11 14 0 16 59 17 618 0 339 3 743
6 897 6 324 16 971 17 1128 l1 107 30 0 c25 0 29 -3 22 -17z m62 -455 c-3
-255 -8 -517 -11 -583 -2 -66 -7 -217 -10 -335 -3 -118 -10 -332 -15 -475 -5
-143 -12 -422 -15 -620 -4 -197 -8 -362 -10 -365 -1 -3 -6 -142 -10 -310 -4
-168 -9 -316 -11 -330 -1 -14 -4 -95 -4 -180 -1 -85 -6 -164 -11 -175 -5 -12
-7 62 -4 185 3 113 7 315 10 450 3 135 7 319 10 410 2 91 7 372 10 625 3 253
8 485 10 515 2 30 7 179 10 330 4 151 8 304 10 340 2 36 6 250 9 475 4 226 9
425 12 443 3 19 0 40 -7 48 -9 11 -7 14 11 14 l23 0 -7 -462z m-3566 420 c-18
-7 -20 -11 -10 -23 6 -7 18 -11 26 -8 10 4 14 -3 14 -26 0 -31 0 -31 -28 -17
-23 12 -29 22 -29 48 0 43 14 63 34 46 13 -10 12 -13 -7 -20z m179 -35 c-1
-46 -16 -100 -19 -68 -1 11 -3 34 -6 50 -4 35 1 55 16 55 5 0 10 -17 9 -37z
m523 -127 c-11 -19 -22 38 -15 73 l7 36 7 -50 c3 -27 4 -54 1 -59z m666 2 c-3
-50 -4 -53 -35 -59 -18 -3 -39 -11 -45 -16 -49 -37 -229 -55 -363 -37 -55 8
-152 13 -215 12 -169 -4 -327 -2 -397 5 -65 6 -84 -2 -63 -28 11 -13 8 -13
-20 -4 -18 7 -35 22 -40 35 -8 21 -16 24 -61 24 -42 0 -52 -3 -56 -19 -3 -11
-13 -21 -24 -24 -40 -11 -20 -34 41 -47 58 -12 79 -24 66 -37 -3 -4 -24 -1
-47 6 -29 9 -45 9 -52 2 -17 -17 10 -38 57 -45 47 -7 58 -19 45 -51 -4 -11 -8
-14 -8 -8 -1 21 -54 43 -74 31 -15 -8 -16 -12 -5 -25 11 -14 10 -15 -12 -8
-76 24 -93 32 -82 39 17 10 15 26 -3 26 -20 0 -19 10 2 25 17 12 17 14 -2 35
-14 16 -15 21 -5 18 11 -2 15 6 13 30 -1 31 1 33 22 28 29 -7 55 2 55 19 0 14
-96 49 -110 40 -11 -7 -14 77 -4 88 6 6 56 -15 165 -70 57 -28 77 -33 137 -33
39 0 74 5 77 10 10 16 64 9 57 -8 -4 -13 15 -14 129 -9 260 11 561 51 703 93
27 8 67 17 88 20 21 4 41 11 45 17 12 19 24 -24 21 -75z m-2097 -210 c0 -139
2 -340 4 -445 3 -170 -2 -223 -19 -195 -7 11 -17 873 -10 883 19 32 24 -14 25
-243z m-85 170 c13 -587 14 -818 5 -818 -8 0 -11 60 -12 188 -1 175 -4 332 -9
547 -2 105 -2 105 8 105 4 0 7 -10 8 -22z m2144 -73 c0 -9 -8 -14 -21 -12 -31
3 -35 -21 -5 -29 16 -4 26 -13 26 -25 0 -10 7 -22 17 -27 14 -9 14 -11 -6 -21
-53 -29 -117 -41 -179 -35 -81 8 -77 27 8 34 89 7 88 25 -2 35 l-73 8 62 12
c36 7 80 25 109 43 53 36 64 39 64 17z m-503 -29 c3 -3 -25 -6 -63 -6 -38 -1
-125 -3 -194 -6 -69 -3 -122 -3 -118 1 16 16 359 27 375 11z m-401 -7 c4 -7
-11 -9 -52 -4 -77 10 -81 15 -11 15 31 0 59 -5 63 -11z m622 -41 c-3 -17 -1
-50 4 -71 9 -41 1 -56 -29 -57 -19 0 -17 110 3 138 21 30 27 28 22 -10z m-713
-82 c0 -74 2 -81 20 -81 18 0 20 6 17 55 -3 62 4 100 17 100 6 0 11 -10 13
-22 4 -30 41 -32 46 -3 2 11 8 24 12 29 16 16 23 -44 14 -117 l-9 -72 -60 3
c-33 2 -78 8 -100 14 -22 6 -51 12 -64 15 -31 5 -41 11 -41 25 0 7 5 6 15 -2
25 -21 35 -2 29 55 -4 29 -4 64 0 78 5 23 8 24 48 15 l43 -10 0 -82z m600 87
c-4 -10 -10 -47 -14 -83 l-6 -65 -14 32 c-12 29 -11 59 4 116 2 4 3 9 4 12 0
3 8 5 17 5 12 0 14 -5 9 -17z m-160 -42 c4 -48 16 -67 39 -58 12 5 13 12 5 36
-8 22 -7 36 2 53 12 22 13 22 21 -17 5 -22 11 -47 14 -55 3 -8 7 -31 9 -51 l3
-36 -90 -9 c-73 -8 -91 -7 -96 4 -5 15 6 161 15 174 2 5 21 8 40 6 34 -3 35
-5 38 -47z m-135 8 c0 -17 -4 -28 -10 -24 -5 3 -10 17 -10 31 0 13 5 24 10 24
6 0 10 -14 10 -31z m-110 6 c0 -8 -4 -15 -10 -15 -5 0 -7 7 -4 15 4 8 8 15 10
15 2 0 4 -7 4 -15z m442 -69 c-4 -25 -6 -27 -12 -12 -3 10 -4 33 -2 50 4 25 6
27 12 12 3 -10 4 -33 2 -50z m-380 -21 c3 -55 5 -60 26 -59 12 0 21 -4 19 -10
-2 -6 -28 -11 -58 -11 -50 0 -54 2 -56 25 -1 14 0 19 3 13 3 -7 14 -13 25 -13
17 0 19 8 19 67 0 83 18 74 22 -12z m-62 15 c0 -11 -4 -20 -10 -20 -5 0 -10 9
-10 20 0 11 5 20 10 20 6 0 10 -9 10 -20z m840 4 c0 -51 -51 -81 -190 -114
-341 -79 -802 -97 -1030 -39 -25 6 -65 13 -90 15 -25 1 -60 8 -77 15 -30 12
-33 17 -33 57 0 24 4 42 8 40 88 -37 277 -93 367 -110 66 -12 303 -11 374 1
31 6 83 13 116 16 33 3 76 10 96 16 21 5 57 13 80 18 83 17 214 52 268 72 30
11 60 18 67 15 7 -3 16 -1 19 4 10 15 25 12 25 -6z m-733 -16 c-3 -8 -6 -5 -6
6 -1 11 2 17 5 13 3 -3 4 -12 1 -19z m2363 -129 c20 -56 21 -63 6 -71 -20 -11
-21 -38 -2 -38 9 0 16 -12 18 -27 2 -22 9 -29 31 -31 l28 -3 -5 -181 c-3 -100
-8 -183 -11 -186 -3 -3 -5 8 -5 24 0 19 -7 34 -21 42 -15 10 -19 20 -15 37 5
18 1 27 -13 35 -25 13 -64 13 -78 -1 -16 -16 -28 108 -12 127 9 11 8 14 -4 14
-9 0 -14 7 -12 18 2 9 6 44 9 76 3 40 10 62 20 68 17 10 22 48 6 48 -16 0 -11
30 12 71 12 22 23 39 24 39 1 0 11 -28 24 -61z m-1754 6 c-11 -8 -31 -15 -45
-15 -24 0 -24 1 -5 15 10 8 30 14 44 14 24 0 24 0 6 -14z m-261 -55 c4 -6 3
-58 -1 -116 l-7 -105 -31 6 c-108 22 -231 56 -237 66 -4 6 -5 28 -4 48 2 20 4
46 4 58 1 19 9 23 56 28 31 4 58 5 61 2 4 -3 9 -30 13 -59 5 -44 9 -53 26 -53
16 0 20 7 21 40 3 70 4 75 14 75 5 0 11 -39 12 -87 3 -80 5 -88 23 -88 18 0
20 7 21 90 1 50 2 93 3 98 2 10 19 9 26 -3z m-2052 -32 c3 -18 13 -58 21 -88
23 -77 46 -186 52 -242 5 -38 2 -49 -10 -54 -9 -3 -23 -1 -30 5 -8 7 -25 9
-40 5 -23 -5 -26 -3 -24 17 3 20 -1 24 -24 24 -35 -1 -36 11 -3 19 15 4 23 11
19 17 -4 6 0 15 7 20 10 6 7 10 -11 17 -22 9 -23 11 -7 17 23 10 22 25 -3 25
-25 0 -26 18 -3 35 16 12 16 15 -7 35 -14 12 -20 23 -15 26 41 18 43 44 4 44
-17 0 -29 20 -11 20 4 0 13 4 21 9 10 7 11 13 1 31 -11 20 -10 25 6 37 31 23
51 16 57 -19z m1155 -9 c31 -21 76 -35 165 -54 67 -13 138 -29 157 -35 19 -6
53 -15 75 -19 22 -5 85 -20 140 -34 55 -14 125 -30 155 -36 164 -32 203 -42
249 -62 29 -12 50 -23 48 -25 -2 -2 -33 5 -70 17 -71 22 -132 22 -132 0 0 -8
34 -23 90 -40 92 -27 208 -89 219 -116 6 -18 36 -20 36 -3 0 6 3 9 6 5 6 -5
-16 -147 -22 -147 -1 0 -24 13 -51 28 -26 16 -70 42 -98 58 -30 18 -97 40
-170 57 -66 16 -150 37 -186 48 -36 10 -80 19 -97 19 -23 0 -32 5 -32 16 0 13
7 15 43 9 23 -4 65 -14 92 -22 74 -21 138 -34 143 -28 12 12 -10 33 -40 39
-19 3 -52 15 -73 26 -22 11 -48 20 -60 20 -28 0 -115 27 -131 41 -8 6 -20 9
-27 6 -7 -3 -18 3 -25 13 -8 13 -29 20 -74 25 -35 4 -89 16 -120 26 -32 10
-63 19 -69 19 -7 0 -28 12 -46 26 -30 23 -37 25 -49 12 -13 -12 -11 -17 10
-37 26 -24 159 -65 242 -74 28 -3 60 -10 70 -15 11 -6 27 -13 37 -16 9 -3 17
-11 17 -17 0 -20 -178 13 -302 56 -74 26 -108 28 -108 6 0 -6 22 -17 49 -25
27 -8 62 -21 78 -29 25 -14 68 -22 228 -44 44 -6 75 -19 75 -32 0 -8 -155 -15
-332 -15 -117 0 -138 8 -138 54 0 37 19 93 38 107 13 11 12 16 -11 37 -32 30
-39 73 -8 55 21 -14 54 -5 49 14 -3 6 -27 19 -54 28 -50 17 -82 55 -70 84 6
18 26 11 84 -26z m1062 32 c0 -13 37 -20 48 -9 13 13 32 2 32 -18 0 -11 -6
-13 -20 -9 -12 4 -28 1 -36 -6 -16 -13 -16 -14 -32 24 -7 16 -8 27 -2 27 6 0
10 -4 10 -9z m-100 -96 c3 -109 2 -125 -10 -125 -5 0 -9 45 -9 111 1 125 16
136 19 14z m-742 68 c2 -9 -7 -13 -27 -13 -30 0 -46 11 -34 24 11 11 56 2 61
-11z m348 -98 c-3 -10 -14 -11 -43 -4 -38 10 -38 11 -38 59 l0 49 40 3 40 3 3
-49 c2 -27 1 -54 -2 -61z m2427 90 c4 -8 2 -17 -3 -20 -6 -4 -10 -4 -10 -1 0
2 -3 11 -6 20 -3 9 -2 16 4 16 5 0 12 -7 15 -15z m-2603 -46 c0 -12 -37 -12
-45 0 -3 5 3 11 12 13 21 5 33 0 33 -13z m2914 -57 c5 -3 6 -202 2 -471 -4
-256 -10 -700 -12 -986 -4 -547 -14 -1097 -19 -1105 -3 -4 -30 -5 -146 -1
l-27 1 4 113 c3 103 18 554 29 877 3 74 7 212 10 305 12 374 16 478 19 484 2
3 7 103 11 221 6 194 13 376 20 500 4 88 0 82 53 74 26 -3 51 -9 56 -12z m213
-54 c-3 -7 -5 -2 -5 12 0 14 2 19 5 13 2 -7 2 -19 0 -25z m-2470 -130 c18 -13
33 -26 33 -30 0 -6 -64 33 -79 48 -13 13 17 1 46 -18z m-733 -84 c9 -4 16 -18
16 -33 0 -15 5 -32 11 -38 7 -7 -15 -17 -75 -32 -47 -11 -90 -21 -96 -21 -5 0
-10 20 -10 44 0 47 19 72 46 62 9 -4 22 -2 28 3 9 8 32 15 58 20 3 0 13 -2 22
-5z m161 -4 c20 -7 26 -16 23 -33 -2 -17 -10 -22 -33 -22 -26 0 -30 4 -29 25
3 47 0 45 39 30z m-85 -34 c0 -21 -6 -36 -15 -40 -13 -4 -13 -2 -5 14 5 10 10
28 10 39 0 12 2 21 5 21 3 0 5 -15 5 -34z m-404 -10 c-8 -40 8 -86 29 -86 11
0 15 11 15 44 0 24 3 51 6 60 11 28 24 6 24 -40 0 -37 3 -44 20 -44 12 0 20 7
21 18 0 9 5 4 10 -12 4 -17 7 -31 6 -31 -9 -6 -109 -35 -121 -35 -22 0 -36 32
-36 84 0 50 7 76 22 76 6 0 8 -14 4 -34z m619 28 c13 -5 14 -8 3 -15 -22 -14
-58 -10 -58 6 0 16 26 20 55 9z m-498 -46 c-3 -8 -6 -5 -6 6 -1 11 2 17 5 13
3 -3 4 -12 1 -19z m2355 -70 c-11 -11 -42 0 -42 16 0 6 10 27 23 46 l22 35 3
-44 c2 -24 -1 -48 -6 -53z m-1632 51 c10 -5 -4 -9 -40 -9 -68 0 -402 -55 -430
-70 -11 -6 -20 -15 -20 -20 0 -14 25 -12 84 4 28 8 89 20 136 26 47 6 114 15
150 20 37 5 93 5 130 0 38 -6 69 -5 74 0 5 5 25 0 50 -13 l41 -21 -90 -8
c-103 -9 -232 -35 -240 -49 -4 -5 -18 -9 -33 -9 -15 0 -61 -10 -102 -21 -41
-11 -94 -24 -116 -29 -23 -5 -68 -18 -100 -28 -33 -11 -97 -32 -144 -46 -102
-32 -106 -34 -119 -68 -7 -20 -18 -27 -45 -30 -20 -2 -41 -1 -46 2 -5 3 -8 31
-8 61 1 36 -4 63 -14 78 -34 48 0 78 137 124 131 44 373 96 530 114 79 9 193
5 215 -8z m-1640 -86 c0 -16 5 -107 10 -203 5 -96 11 -308 15 -470 3 -162 7
-333 10 -380 3 -47 7 -224 11 -395 3 -170 8 -323 10 -340 2 -16 4 -66 4 -110
1 -73 3 -81 23 -90 24 -11 257 -12 274 -2 7 5 11 -30 12 -111 1 -64 4 -131 7
-148 l6 -31 -82 -6 c-58 -4 -87 -10 -99 -22 -15 -15 -15 -17 3 -31 11 -8 18
-14 15 -15 -12 -2 -48 -7 -83 -10 l-38 -4 -3 75 -3 75 64 -1 c35 -1 61 2 58 7
-3 5 26 9 65 9 64 0 94 11 76 28 -11 12 -138 6 -162 -6 -13 -8 -38 -10 -62 -6
-35 6 -39 10 -43 38 -2 17 -1 42 2 56 5 25 6 25 117 25 111 0 151 11 127 35
-12 12 -204 19 -226 8 -14 -7 -18 -4 -18 12 0 11 -7 20 -15 20 -16 0 -17 -22
-15 -467 0 -127 -3 -193 -10 -193 -6 0 -10 26 -10 63 0 34 -2 114 -5 177 -13
317 -25 782 -31 1205 -3 259 -8 473 -10 476 -1 3 -6 158 -9 345 -4 186 -8 356
-10 377 -2 26 2 37 11 37 9 0 14 -11 14 -27z m-72 -10 c0 -16 5 -125 11 -243
6 -118 13 -343 16 -500 3 -157 7 -321 10 -365 3 -44 7 -183 10 -310 3 -126 8
-315 10 -420 11 -435 14 -809 6 -790 -5 11 -11 155 -15 320 -4 165 -9 350 -11
410 -2 61 -7 261 -10 445 -3 184 -8 358 -10 385 -2 28 -6 160 -10 295 -4 135
-8 277 -10 315 -15 378 -17 485 -7 485 6 0 10 -12 10 -27z m-67 -45 c0 -35 2
-70 4 -79 4 -25 14 -277 21 -544 3 -132 7 -242 9 -245 2 -3 6 -102 9 -220 6
-220 12 -389 21 -612 l6 -127 -36 -7 c-20 -3 -38 -5 -40 -3 -2 2 -6 90 -9 194
-3 105 -8 269 -11 365 -3 96 -7 225 -10 285 -3 61 -7 198 -10 305 -3 107 -8
281 -11 387 -4 146 -2 197 8 212 10 17 10 25 1 41 -9 13 -9 21 -2 26 7 4 9 22
5 45 -6 37 -5 39 19 39 24 0 25 -3 26 -62z m-94 -35 l3 -52 -52 -10 c-77 -15
-164 -24 -157 -17 3 3 32 11 65 17 62 12 114 34 114 49 0 19 -22 21 -63 6 -68
-24 -107 -28 -100 -11 3 9 -1 15 -11 15 -9 0 -16 3 -16 8 0 4 26 8 58 10 59 3
132 39 132 65 1 34 24 -35 27 -80z m-92 68 c-14 -12 -75 -22 -75 -11 0 8 25
16 65 19 11 0 15 -3 10 -8z m3601 -241 c6 -937 1 -1846 -10 -1857 -15 -16 -35
11 -41 56 -4 28 -10 53 -14 56 -16 9 -77 -17 -115 -49 -42 -36 -42 -62 1 -51
16 4 22 2 18 -5 -4 -6 -29 -9 -58 -8 l-52 3 -1 150 c-1 83 -5 364 -9 625 -8
481 -8 550 1 559 3 3 14 0 25 -7 35 -22 48 0 51 91 l3 82 63 7 c94 10 96 12
89 143 -4 60 -8 124 -10 140 -3 17 -8 72 -12 122 -6 71 -12 96 -26 109 -11 10
-19 31 -19 51 l0 33 58 -3 57 -2 1 -245z m-1418 123 c-13 -16 -13 -35 -3 -140
11 -124 15 -140 34 -129 10 6 6 242 -4 274 -3 6 0 12 5 12 14 0 19 -26 29
-150 9 -110 3 -241 -12 -256 -4 -4 -7 13 -7 37 0 58 -13 78 -39 62 -20 -13
-24 5 -47 207 -2 25 -7 57 -10 73 -5 26 -4 27 32 27 34 0 36 -1 22 -17z m-246
-238 c5 -167 0 -240 -15 -202 -3 9 -4 24 -1 32 4 8 1 21 -5 29 -8 9 -11 68
-10 182 3 287 23 260 31 -41z m50 210 c-2 -19 -5 -35 -7 -35 -2 0 -5 16 -7 35
-2 21 0 35 7 35 7 0 9 -14 7 -35z m-138 -2 c-10 -40 -14 -41 -14 -5 0 18 5 32
10 32 6 0 8 -11 4 -27z m-60 -25 c-1 -18 -3 -51 -4 -73 -2 -39 -3 -39 -10 -10
-10 38 -12 110 -4 118 12 12 19 -1 18 -35z m321 -83 c29 -238 35 -370 36 -775
1 -374 -1 -440 -15 -470 -15 -35 -15 -34 -16 65 0 55 -5 120 -11 144 -9 39 -8
45 11 58 18 13 19 22 15 116 -3 56 -7 226 -10 377 -3 167 -10 318 -20 385 -8
61 -17 137 -20 170 l-5 60 15 -45 c8 -24 17 -63 20 -85z m-2031 68 c11 -54 17
-212 21 -573 2 -201 8 -455 14 -565 14 -262 21 -471 26 -740 2 -121 7 -263 10
-315 2 -52 8 -286 11 -520 3 -234 7 -483 8 -554 2 -99 -1 -131 -11 -142 -20
-19 -41 -18 -47 4 -5 19 -14 296 -21 712 -9 510 -15 764 -20 890 -3 69 -7 199
-10 290 -12 389 -16 517 -31 915 -8 231 -15 439 -15 463 -1 23 -5 42 -10 42
-6 0 -7 6 -2 13 4 6 8 32 9 57 1 25 2 46 3 48 0 1 14 2 30 2 24 0 30 -5 35
-27z m1640 11 c11 -28 6 -40 -14 -40 -15 0 -20 7 -20 28 0 31 24 39 34 12z
m-1762 -49 c-2 -25 -1 -45 4 -45 5 0 9 -28 9 -62 0 -35 3 -126 8 -203 12 -224
21 -439 32 -745 3 -80 7 -194 10 -255 5 -102 8 -163 19 -480 3 -66 7 -271 11
-455 3 -184 7 -429 10 -545 4 -190 6 -535 3 -577 -1 -9 -5 -15 -8 -13 -10 6
-25 307 -35 675 -3 113 -7 246 -10 295 -5 91 -9 204 -21 545 -3 102 -7 198 -9
214 -2 16 -6 126 -10 245 -3 119 -8 236 -10 261 -3 25 -7 110 -10 190 -3 80
-8 186 -10 235 -3 50 -7 140 -10 200 -3 61 -7 144 -10 185 -11 168 -16 360
-10 370 3 5 17 10 29 10 22 0 23 -3 18 -45z m2723 35 c3 -5 1 -10 -4 -10 -6 0
-11 5 -11 10 0 6 2 10 4 10 3 0 8 -4 11 -10z m-1043 -38 c5 -18 15 -35 23 -39
11 -4 15 -21 14 -62 l-1 -56 -12 53 c-6 29 -14 53 -18 53 -5 -1 -12 -1 -17 -1
-5 0 -12 -10 -14 -22 -4 -20 -4 -20 -6 4 0 15 -8 34 -17 43 -14 13 -15 21 -5
41 15 34 43 27 53 -14z m258 28 c0 -5 -4 -10 -10 -10 -5 0 -10 5 -10 10 0 6 5
10 10 10 6 0 10 -4 10 -10z m-340 -75 c4 -33 0 -99 -5 -94 -7 8 -22 118 -17
124 8 8 20 -8 22 -30z m437 13 c-3 -8 -6 -5 -6 6 -1 11 2 17 5 13 3 -3 4 -12
1 -19z m-208 -85 c-1 -17 -3 -21 -6 -10 -2 9 -10 17 -16 17 -7 0 -6 4 3 10 20
13 20 13 19 -17z m-172 -5 c-3 -8 -6 -5 -6 6 -1 11 2 17 5 13 3 -3 4 -12 1
-19z m13 -84 c0 -18 7 -45 15 -60 17 -32 21 -144 5 -144 -5 0 -10 12 -10 28 0
15 -7 63 -15 107 -17 97 -19 137 -5 115 5 -8 10 -29 10 -46z m370 -104 c0 -16
-4 -30 -8 -30 -5 0 -7 14 -4 30 2 17 6 30 8 30 2 0 4 -13 4 -30z m256 -47 c2
-26 4 -66 5 -88 0 -22 5 -58 10 -81 4 -22 13 -115 19 -205 6 -90 17 -220 25
-289 8 -69 15 -148 15 -176 0 -43 35 -282 55 -369 9 -41 45 -134 64 -165 8
-14 36 -46 61 -72 36 -37 44 -50 37 -64 -6 -11 -6 -19 1 -23 6 -4 9 -20 7 -36
-2 -17 -4 -35 -4 -42 -1 -6 -10 -15 -21 -18 -13 -4 -20 -15 -20 -31 0 -34 -25
-31 -83 12 -31 23 -56 52 -71 82 -12 26 -38 76 -58 112 -44 79 -78 188 -77
244 l1 41 13 -51 c7 -28 16 -58 21 -65 5 -8 16 -34 25 -59 9 -25 24 -64 33
-87 19 -50 124 -207 141 -211 7 -2 16 1 19 7 9 15 -37 101 -69 131 -31 28 -61
90 -111 227 l-33 92 27 -2 c21 -2 28 3 30 20 2 15 8 20 19 16 14 -5 15 -1 10
28 -24 137 -45 279 -43 304 1 25 -2 30 -21 28 -17 -2 -24 4 -29 24 -6 22 -1
192 11 373 3 43 -3 120 -26 333 -9 87 -6 128 8 113 3 -3 7 -27 9 -53z m-316
-15 c0 -16 -3 -19 -11 -11 -6 6 -8 16 -5 22 11 17 16 13 16 -11z m-773 -20
c-3 -7 -5 -2 -5 12 0 14 2 19 5 13 2 -7 2 -19 0 -25z m1953 -74 c0 -8 -4 -12
-10 -9 -5 3 -10 13 -10 21 0 8 5 12 10 9 6 -3 10 -13 10 -21z m-50 -58 c0 -3
-4 -8 -10 -11 -5 -3 -10 -1 -10 4 0 6 5 11 10 11 6 0 10 -2 10 -4z m-868 -313
c-2 -243 5 -352 34 -580 5 -37 3 -53 -5 -53 -7 0 -11 20 -11 53 0 29 -5 58
-11 64 -21 21 -39 2 -40 -41 -1 -22 -4 -52 -8 -66 -5 -20 -10 -9 -24 53 -20
93 -21 105 -6 90 18 -18 39 -3 39 27 0 16 3 31 8 34 4 2 7 164 7 359 0 239 3
350 10 339 6 -10 9 -120 7 -279z m-283 154 c1 -43 6 -122 12 -174 9 -75 9
-107 -1 -150 -30 -123 -42 -63 -39 192 2 110 5 211 7 225 9 44 21 -7 21 -93z
m1196 84 c5 -9 18 -1011 15 -1201 l0 -35 -72 -1 c-89 -1 -123 -7 -122 -22 2
-27 5 -30 26 -24 14 3 19 2 14 -6 -4 -7 -18 -12 -32 -12 -23 0 -24 3 -25 63 0
34 -3 75 -5 90 -3 19 -1 26 6 22 5 -3 19 -4 29 0 18 5 26 23 78 160 8 22 19
48 24 57 5 9 6 30 3 47 -4 18 2 53 15 92 13 36 18 66 13 71 -14 14 -42 -2 -55
-31 l-11 -26 -3 26 c-3 17 11 54 36 103 47 89 52 119 19 114 -32 -4 -120 -180
-112 -223 3 -16 6 -43 8 -60 2 -18 10 -31 20 -33 20 -4 20 -43 0 -97 -8 -22
-24 -68 -35 -102 -30 -94 -39 -88 -39 29 -1 57 -3 162 -5 233 -3 72 -7 219 -9
328 -4 190 -3 197 15 197 21 0 26 9 32 50 3 16 10 25 21 25 10 0 23 11 30 24
9 16 16 20 20 12 6 -9 11 -9 22 0 9 8 14 33 14 75 l0 64 29 0 c17 0 32 -4 36
-9z m-210 -170 c3 -5 1 -12 -5 -16 -5 -3 -10 1 -10 9 0 18 6 21 15 7z m-208
-393 c0 -26 11 -352 18 -527 l5 -113 -60 4 c-34 2 -61 0 -63 -6 -5 -16 -96 54
-97 75 0 4 16 6 36 5 44 -1 57 20 21 33 -14 6 -28 14 -31 20 -5 7 -15 7 -32 1
-23 -9 -26 -7 -45 38 -12 26 -27 78 -34 117 -12 62 -12 72 2 87 9 10 22 18 29
18 16 0 60 54 92 115 20 38 38 55 71 71 29 14 48 31 57 53 15 36 32 41 31 9z
m-1200 -100 c-2 -18 -4 -6 -4 27 0 33 2 48 4 33 2 -15 2 -42 0 -60z m968 -97
c-3 -6 -12 -11 -19 -11 -8 0 -19 -7 -26 -15 -17 -20 -30 -19 -30 3 0 13 11 21
38 28 41 11 47 10 37 -5z m-1768 -211 c1 0 2 -32 2 -71 0 -63 -2 -69 -18 -64
-10 3 -29 1 -42 -4 -13 -5 -42 -5 -64 -1 -29 6 -33 8 -15 10 83 6 96 11 87 34
-5 13 -21 14 -89 10 -116 -6 -130 -10 -126 -36 2 -12 -1 -23 -7 -25 -6 -1 -10
14 -10 35 0 32 3 37 25 38 31 1 76 19 85 33 3 6 19 11 34 11 16 0 37 10 50 24
19 21 27 23 54 15 18 -5 33 -9 34 -9z m2173 -22 c0 -49 -11 -44 -17 7 -2 20 1
35 7 35 5 0 10 -19 10 -42z m-1641 -40 c4 -13 11 -45 15 -73 4 -27 9 -63 12
-80 3 -19 1 -25 -4 -17 -5 8 -12 13 -16 13 -23 -3 -36 1 -36 10 0 6 9 9 20 6
14 -4 20 0 20 13 0 25 -16 34 -91 54 -61 16 -128 24 -247 29 -24 1 -43 5 -43
10 -1 24 9 27 60 17 79 -15 126 -12 174 10 23 10 58 21 77 23 19 2 38 5 43 5
4 1 11 -8 16 -20z m967 -65 c15 -53 71 -174 121 -263 23 -40 99 -103 160 -131
59 -27 83 -62 81 -116 l-1 -43 -36 6 c-42 8 -72 30 -65 49 7 17 -13 56 -37 73
-29 20 -107 134 -134 196 -24 54 -31 60 -66 57 -12 -1 -20 15 -31 61 -15 62
-24 168 -14 168 3 0 13 -26 22 -57z m676 -1 c1 -27 1 -129 -2 -228 -6 -201 -8
-191 -17 84 -3 128 -2 192 5 192 5 0 12 -22 14 -48z m-750 3 c3 -13 1 -22 -3
-19 -9 5 -13 44 -5 44 2 0 6 -11 8 -25z m-1864 3 c-5 -13 -63 -29 -73 -20 -17
18 -2 32 36 32 28 0 39 -4 37 -12z m817 -49 c-7 -10 -35 -1 -35 11 0 5 9 6 20
3 11 -3 17 -9 15 -14z m2201 -27 c-11 -10 -15 4 -8 28 l7 25 3 -23 c2 -13 1
-26 -2 -30z m-3019 -7 c2 -11 0 -15 -2 -9 -3 5 -19 9 -35 8 -20 -1 -30 3 -30
12 0 23 64 13 67 -11z m633 16 c0 -5 -6 -14 -14 -20 -12 -10 -13 -8 -9 8 5 21
23 30 23 12z m30 -1 c0 -5 -5 -10 -11 -10 -5 0 -7 5 -4 10 3 6 8 10 11 10 2 0
4 -4 4 -10z m-972 -21 c3 -12 2 -12 -6 0 -6 8 -15 10 -22 6 -9 -5 -11 -4 -6 4
10 15 28 10 34 -10z m1242 11 c0 -5 -5 -10 -11 -10 -5 0 -7 5 -4 10 3 6 8 10
11 10 2 0 4 -4 4 -10z m-70 -40 c0 -5 -5 -10 -11 -10 -5 0 -7 5 -4 10 3 6 8
10 11 10 2 0 4 -4 4 -10z m-851 -165 c1 -158 1 -166 -17 -156 -10 5 -27 9 -37
8 -18 -2 -20 6 -23 92 -2 78 0 92 12 88 8 -3 20 0 26 8 9 11 7 15 -14 21 -22
5 -26 12 -26 45 0 36 2 39 23 34 15 -4 28 -1 36 9 8 9 14 16 16 16 1 0 3 -74
4 -165z m615 159 c12 -5 14 -10 6 -19 -16 -19 16 -48 44 -39 11 4 24 11 28 17
7 12 214 13 250 1 13 -4 35 -7 50 -6 22 0 28 -4 28 -21 0 -22 -36 -67 -54 -67
-6 0 -5 5 2 12 7 7 12 16 12 22 0 5 -6 1 -14 -10 -14 -19 -56 -26 -67 -11 -3
4 -17 -3 -32 -17 -22 -20 -28 -22 -38 -10 -9 11 -17 10 -47 -5 -21 -11 -48
-31 -61 -45 -20 -21 -30 -24 -60 -20 -20 3 -39 8 -43 11 -5 2 -8 -1 -8 -6 0
-6 -5 -11 -10 -11 -7 0 -10 41 -9 115 0 63 3 115 4 115 2 0 11 -3 19 -6z
m1259 -29 c4 -8 2 -17 -3 -20 -6 -4 -10 3 -10 14 0 25 6 27 13 6z m555 -1 c13
-4 22 -14 22 -26 0 -15 -4 -18 -22 -12 l-23 6 23 -19 c15 -14 22 -32 22 -57 0
-20 -4 -36 -10 -36 -5 0 -10 7 -10 16 0 13 -9 15 -48 12 l-49 -3 4 50 c3 28 6
56 8 63 5 13 45 16 83 6z m438 -130 l-1 -127 -98 1 c-54 0 -101 3 -104 6 -3 3
-8 39 -11 79 l-4 73 73 11 c41 6 83 13 94 16 11 3 23 6 26 6 4 1 9 15 13 31 3
17 7 30 9 30 2 0 3 -57 3 -126z m-96 95 c0 -4 -11 -6 -25 -6 -13 0 -22 3 -20
8 6 9 45 8 45 -2z m-875 -66 c20 -78 50 -150 73 -175 14 -16 13 -20 -3 -39
-18 -19 -18 -21 -1 -53 21 -39 105 -91 160 -100 48 -7 73 -26 34 -26 -23 0
-68 -39 -80 -68 -6 -18 -68 0 -89 27 -66 85 -99 137 -99 158 0 29 26 83 40 83
17 0 11 25 -20 86 -25 51 -52 174 -38 174 3 0 13 -30 23 -67z m1354 53 c15
-18 57 -26 70 -13 7 7 9 -20 7 -88 l-4 -99 -53 -4 c-30 -2 -86 -10 -126 -16
l-73 -13 -2 46 c-1 25 -2 70 -2 99 l0 54 54 3 c37 3 60 10 74 25 24 24 39 25
55 6z m541 -93 c0 -60 -3 -74 -14 -70 -36 14 -135 28 -176 25 -52 -3 -56 -20
-8 -29 32 -6 32 -6 -9 -8 l-41 -1 -4 64 c-5 97 -14 91 127 92 l125 2 0 -75z
m-2766 52 c-6 -16 -24 -21 -24 -7 0 11 11 22 21 22 5 0 6 -7 3 -15z m964 -47
c17 -35 55 -90 85 -122 47 -50 53 -62 44 -77 -10 -15 -6 -24 23 -54 24 -25 29
-35 18 -35 -9 0 -19 8 -22 18 -3 9 -30 41 -60 71 -30 29 -67 79 -82 110 -30
62 -56 151 -45 151 4 0 21 -28 39 -62z m2100 55 c-10 -2 -28 -2 -40 0 -13 2
-5 4 17 4 22 1 32 -1 23 -4z m61 -96 c-3 -105 -7 -117 -43 -117 -17 0 -55 3
-84 7 l-54 6 3 81 c1 45 3 83 5 86 1 3 41 4 89 2 l86 -3 -2 -62z m-3109 26 c0
-7 -4 -13 -10 -13 -5 0 -10 3 -10 8 0 4 -30 6 -66 4 -36 -1 -73 2 -81 7 -10 5
19 8 76 7 65 -1 91 -4 91 -13z m1411 -18 c-1 -6 -23 -10 -49 -10 -90 0 -99
-31 -12 -41 33 -4 60 -11 60 -17 0 -6 -18 -8 -45 -5 -46 6 -69 -7 -44 -23 8
-5 33 -9 55 -9 l42 0 1 -84 2 -85 -33 -14 c-18 -8 -41 -17 -50 -20 -9 -3 -22
-15 -28 -26 -9 -18 -8 -20 7 -14 10 3 15 3 11 -2 -4 -4 -35 -9 -68 -11 -53 -2
-60 -1 -60 16 0 10 -2 24 -5 32 -4 9 6 13 35 14 46 1 52 5 55 37 2 14 8 34 14
45 6 11 11 30 11 42 0 27 -35 96 -55 107 -11 6 -12 16 -6 38 7 29 10 30 70 31
34 1 65 4 68 8 9 9 25 3 24 -9z m-2102 -69 c-11 -9 -59 -15 -59 -7 0 5 12 11
28 13 27 3 39 1 31 -6z m3324 7 c-7 -2 -19 -2 -25 0 -7 3 -2 5 12 5 14 0 19
-2 13 -5z m54 -9 c-3 -3 -12 -4 -19 -1 -8 3 -5 6 6 6 11 1 17 -2 13 -5z m53
-34 c0 -16 -3 -30 -7 -30 -5 0 -8 14 -8 30 0 17 3 30 8 30 4 0 7 -13 7 -30z
m-3340 -27 c2 -90 -1 -217 -5 -221 -2 -2 -35 1 -74 7 -38 6 -99 11 -134 11
l-64 0 -2 60 c-1 33 2 61 6 61 4 1 24 3 43 5 19 2 55 6 80 10 25 4 61 7 80 8
24 1 35 6 35 16 0 11 -12 15 -45 16 -25 0 -49 -3 -55 -6 -5 -4 -40 -7 -77 -9
-55 -1 -68 1 -68 14 0 17 -2 16 59 20 24 2 55 8 70 13 14 6 44 14 66 18 65 12
67 12 73 18 10 11 11 6 12 -41z m2165 27 c3 -5 1 -10 -4 -10 -6 0 -11 5 -11
10 0 6 2 10 4 10 3 0 8 -4 11 -10z m1092 -4 c13 -3 31 -10 40 -16 14 -9 3 -10
-49 -6 -63 5 -93 -4 -67 -20 6 -3 43 -8 81 -10 38 -2 73 -6 77 -8 3 -2 5 -24
3 -49 l-4 -44 -101 1 c-56 0 -114 -3 -128 -7 -25 -6 -26 -6 -24 51 1 31 2 72
3 91 l2 34 73 -6 c39 -4 82 -9 94 -11z m227 -48 c-1 -57 -13 -270 -18 -325 -5
-49 -16 -33 -16 22 0 66 19 333 25 353 8 23 10 12 9 -50z m-1054 42 c0 -5 -8
-10 -17 -10 -15 0 -16 2 -3 10 19 12 20 12 20 0z m-40 -12 c0 -5 -21 -8 -46
-8 -25 0 -43 3 -41 8 3 4 24 7 46 7 23 0 41 -3 41 -7z m494 -5 c5 -19 0 -133
-7 -140 -3 -2 -35 -4 -73 -4 -102 0 -132 -7 -136 -32 -2 -12 -11 -23 -20 -25
-15 -3 -18 5 -19 55 0 32 -1 73 -2 92 -1 18 2 35 8 37 15 6 186 32 217 33 17
1 28 -5 32 -16z m1091 1 c-33 -9 -112 -9 -112 0 0 7 22 10 61 7 34 -2 57 -5
51 -7z m-1725 2 c0 -3 -4 -8 -10 -11 -5 -3 -10 -1 -10 4 0 6 5 11 10 11 6 0
10 -2 10 -4z m-80 -27 c0 -5 -4 -9 -10 -9 -5 0 -10 7 -10 16 0 8 5 12 10 9 6
-3 10 -10 10 -16z m-2612 -12 c-2 -19 -8 -23 -35 -24 -21 0 -33 4 -33 12 0 14
27 28 40 20 5 -3 11 -1 15 5 10 16 15 12 13 -13z m4095 8 c43 0 56 -3 52 -13
-3 -8 -5 -45 -5 -84 0 -58 -2 -68 -13 -59 -8 6 -17 7 -22 3 -4 -4 -5 5 -1 21
l6 27 -70 0 -70 0 0 61 0 61 33 -9 c17 -4 58 -8 90 -8z m-1222 -92 c2 -110 1
-115 -18 -130 -12 -9 -21 -6 -45 18 -17 16 -36 29 -42 29 -7 0 -18 16 -25 35
-10 28 -19 36 -47 41 -32 6 -34 9 -34 44 l0 37 43 -2 c23 -1 65 1 92 5 28 4
56 8 63 9 9 1 12 -23 13 -86z m-841 56 c0 -6 -4 -7 -10 -4 -5 3 -10 11 -10 16
0 6 5 7 10 4 6 -3 10 -11 10 -16z m510 -69 c0 -49 -4 -90 -9 -90 -5 0 -10 41
-10 90 -1 54 3 90 9 90 6 0 10 -37 10 -90z m-1993 38 c-3 -8 -6 -5 -6 6 -1 11
2 17 5 13 3 -3 4 -12 1 -19z m-547 -57 c0 -38 -4 -50 -17 -54 -10 -2 -25 -8
-34 -12 -15 -5 -17 1 -15 47 1 50 2 53 31 59 17 4 31 7 33 8 1 0 2 -21 2 -48z
m3658 -23 c88 0 112 -3 116 -15 9 -23 -2 -33 -32 -28 -15 2 -46 7 -69 11 -27
4 -40 11 -36 18 4 7 2 7 -7 -1 -7 -6 -27 -9 -45 -6 -24 4 -34 1 -38 -11 -4 -9
-1 -16 5 -16 9 0 9 -3 0 -12 -19 -19 -32 3 -25 46 3 21 9 33 13 26 5 -8 44
-12 118 -12z m-3161 -30 c-3 -7 -5 -2 -5 12 0 14 2 19 5 13 2 -7 2 -19 0 -25z
m3361 0 c0 -18 -6 -39 -12 -47 -8 -11 -8 -13 2 -7 9 6 11 -4 6 -41 -6 -52 -8
-58 -22 -49 -5 3 -7 29 -5 58 2 29 4 62 4 73 0 16 15 45 25 45 1 0 2 -15 2
-32z m152 28 c0 -2 -11 -6 -25 -8 -14 -3 -25 -1 -25 3 0 5 11 9 25 9 14 0 25
-2 25 -4z m-793 -22 c-3 -3 -12 -4 -19 -1 -8 3 -5 6 6 6 11 1 17 -2 13 -5z
m1033 -55 c0 -33 -3 -58 -7 -56 -8 5 -5 117 3 117 2 0 4 -27 4 -61z m-957 6
c1 -5 -7 -11 -18 -13 -11 -2 -25 -11 -32 -19 -11 -14 -15 -14 -37 1 -14 9 -32
16 -41 16 -8 0 -15 4 -15 10 0 6 9 6 25 0 28 -11 85 -3 85 12 0 12 30 6 33 -7z
m418 -11 c7 -4 21 -7 33 -8 16 -1 22 -8 24 -32 l3 -32 -48 3 c-26 2 -78 7
-114 10 -50 5 -78 3 -115 -10 -62 -22 -121 -22 -180 1 -41 15 -44 19 -25 26
12 4 40 4 64 0 23 -4 53 -6 67 -5 14 2 39 5 55 6 17 2 38 8 48 13 13 7 31 8
56 1 21 -6 45 -7 54 -4 22 8 22 34 0 40 -10 3 1 4 25 2 23 -2 47 -7 53 -11z
m-3733 -40 c2 -1 -8 -1 -22 -1 -17 0 -23 4 -19 14 4 11 8 11 22 1 9 -7 17 -13
19 -14z m32 -4 c0 -5 -5 -10 -11 -10 -5 0 -7 5 -4 10 3 6 8 10 11 10 2 0 4 -4
4 -10z m2385 -9 c-3 -6 -14 -11 -23 -11 -13 0 -13 2 4 14 21 15 30 14 19 -3z
m1593 -30 c10 -6 8 -10 -9 -14 -26 -7 -34 -3 -24 12 7 13 15 14 33 2z m258
-48 c-10 -10 -19 5 -10 18 6 11 8 11 12 0 2 -7 1 -15 -2 -18z m-3034 7 c2 -5
12 -11 23 -13 12 -1 42 -16 67 -32 36 -22 44 -32 36 -42 -6 -7 -16 -13 -22
-13 -6 0 -20 -16 -31 -36 -25 -46 -82 -91 -148 -116 -29 -11 -56 -23 -62 -28
-25 -19 -68 -21 -84 -3 -17 17 -16 21 11 66 15 26 28 51 28 56 0 4 14 33 31
64 21 39 37 57 50 57 10 0 26 11 35 25 16 25 59 35 66 15z m3168 -2 c0 -5 -21
-8 -46 -8 -25 0 -43 3 -41 8 3 4 24 7 46 7 23 0 41 -3 41 -7z m-400 -21 c11
-5 9 -6 -4 -4 -11 1 -21 9 -23 17 -3 10 -2 11 4 4 4 -6 15 -14 23 -17z m-3995
-815 c-7 -8 -35 7 -35 18 0 6 7 6 20 -2 10 -7 17 -14 15 -16z m45 8 c0 -5 -7
-10 -16 -10 -8 0 -12 5 -9 10 3 6 10 10 16 10 5 0 9 -4 9 -10z M1680 6080 c0
-11 7 -20 15 -20 8 0 15 9 15 20 0 11 -7 20 -15 20 -8 0 -15 -9 -15 -20z
M1740 6090 c-22 -14 0 -30 28 -19 12 4 22 13 22 19 0 13 -30 13 -50 0z M1705
6041 c-43 -9 -40 -37 3 -33 23 1 32 -2 32 -13 0 -18 24 -20 38 -2 6 7 23 14
38 15 29 2 54 18 54 34 0 6 -16 7 -40 3 -22 -4 -48 -8 -58 -10 -9 -1 -21 1
-27 4 -5 4 -23 5 -40 2z M1596 5854 c-3 -9 5 -29 19 -48 14 -18 25 -41 25 -52
0 -46 13 -63 61 -83 43 -19 54 -20 96 -10 27 7 52 16 58 21 17 16 -18 29 -61
23 -49 -7 -94 8 -94 31 0 24 -69 134 -85 134 -7 0 -16 -7 -19 -16z M2217 5883
c-15 -15 -7 -43 13 -43 15 0 20 7 20 25 0 24 -18 34 -33 18z M2170 5773 c-30
-47 -33 -64 -13 -70 13 -5 76 95 68 108 -12 18 -26 8 -55 -38z M2495 5663
c-19 -18 -18 -18 18 -27 22 -5 27 -3 27 13 0 25 -26 34 -45 14z M2510 5584
c-9 -10 -10 -18 -2 -26 12 -12 32 -2 32 17 0 21 -16 26 -30 9z M2475 5493 c-4
-16 -12 -45 -20 -66 -12 -33 -12 -39 1 -44 25 -9 64 63 64 120 0 30 -39 21
-45 -10z M2175 5403 c-11 -62 -11 -66 2 -70 15 -5 33 37 33 78 0 44 -28 38
-35 -8z M3345 5516 c-18 -13 -18 -15 -3 -21 28 -11 83 -1 83 15 0 21 -55 25
-80 6z M4380 5476 c0 -8 16 -16 41 -20 44 -7 59 -2 59 20 0 10 -13 14 -50 14
-36 0 -50 -4 -50 -14z M4147 4013 c-11 -10 -8 -51 3 -58 15 -10 39 13 35 33
-2 9 -4 20 -4 25 -1 9 -25 9 -34 0z M1361 3686 c-9 -10 -9 -16 -1 -21 17 -10
62 4 57 18 -5 18 -42 20 -56 3z M1477 3668 c-18 -29 -32 -265 -17 -283 5 -7
11 -49 12 -93 3 -87 18 -112 46 -75 15 20 10 130 -8 178 -6 17 -8 63 -3 119
10 135 9 169 -4 173 -6 2 -18 -6 -26 -19z M2122 2515 c-17 -36 -15 -75 4 -82
23 -8 32 6 36 57 4 53 -21 68 -40 25z M1906 2104 c-14 -13 -16 -28 -11 -83 8
-92 10 -163 5 -181 -4 -11 2 -15 20 -15 l25 0 0 137 c0 145 -8 174 -39 142z
M2022 1642 c-1 -75 -7 -149 -13 -163 -5 -14 -9 -52 -7 -85 3 -54 6 -60 37 -81
39 -27 50 -28 57 -9 3 7 -8 27 -25 43 -27 27 -30 36 -25 74 3 24 12 51 20 61
14 15 14 19 -2 43 -15 22 -16 42 -10 141 6 104 5 114 -11 114 -16 0 -18 -14
-21 -138z M2267 1487 c-10 -27 26 -82 56 -85 29 -4 35 9 13 28 -8 6 -16 24
-18 38 -3 30 -41 44 -51 19z M2084 1446 c-12 -32 2 -61 44 -89 40 -27 72 -30
72 -7 0 5 -18 21 -40 35 -29 18 -40 32 -40 50 0 27 -27 35 -36 11z M4197 4572
c-20 -22 -22 -48 -4 -55 23 -9 38 8 35 41 -3 37 -8 39 -31 14z M1510 4015
c-70 -17 -190 -71 -190 -85 0 -23 30 -20 86 8 54 26 95 40 177 57 31 6 32 29
1 32 -10 1 -44 -4 -74 -12z M3746 3875 c-8 -23 4 -45 24 -45 24 0 33 15 25 40
-7 23 -40 27 -49 5z M3561 3206 c-20 -23 -10 -71 14 -71 16 0 21 8 23 43 3 45
-13 57 -37 28z M2761 2189 c-31 -41 -13 -78 25 -51 16 11 44 55 44 69 0 25
-46 13 -69 -18z M1253 1890 c-47 -19 -20 -40 52 -40 40 0 77 21 57 34 -19 11
-88 15 -109 6z M1080 1871 c-16 -11 -15 -12 22 -29 32 -13 82 0 76 21 -5 15
-77 21 -98 8z M4508 1793 c-10 -2 -18 -9 -18 -14 0 -15 103 -6 108 9 4 12 -51
15 -90 5z M1481 5887 c-14 -14 -14 -74 0 -83 16 -9 26 6 34 47 7 39 -11 59
-34 36z M1465 5698 c-7 -18 0 -69 13 -93 25 -47 39 -119 30 -153 -7 -23 -6
-38 3 -48 19 -23 28 -16 40 32 12 46 29 45 29 -3 0 -16 6 -23 20 -23 22 0 26
20 10 66 -5 16 -14 48 -20 72 -10 37 -13 41 -30 32 -24 -13 -30 -4 -44 69 -8
40 -16 57 -29 59 -9 2 -19 -2 -22 -10z M1297 5687 c-3 -7 0 -37 5 -66 8 -39
15 -51 27 -49 17 3 27 63 17 105 -7 25 -40 32 -49 10z M1426 5574 c-11 -28 -6
-54 9 -54 18 0 38 37 31 56 -7 19 -32 18 -40 -2z M1612 5371 c-10 -6 -11 -25
-6 -75 6 -61 9 -67 28 -64 19 3 21 9 18 63 -3 62 -17 90 -40 76z M1687 5253
c-4 -3 -7 -15 -7 -25 0 -28 34 -19 38 10 3 21 -16 31 -31 15z M78 4887 c-19
-7 -28 -18 -28 -34 l0 -22 35 20 c43 26 76 20 116 -21 25 -25 29 -26 29 -9 0
10 5 19 10 19 21 0 8 16 -30 38 -41 23 -88 27 -132 9z M3576 1285 c-10 -8 -24
-25 -30 -37 -6 -13 -28 -31 -49 -41 -42 -19 -48 -37 -14 -37 50 0 150 91 132
120 -8 13 -16 12 -39 -5z M682 1270 c4 -19 95 -27 283 -23 77 2 227 4 333 6
105 2 195 6 198 10 22 21 -61 26 -425 24 -342 -2 -391 -4 -389 -17z M3643
1278 c-19 -30 -33 -61 -33 -74 0 -26 42 -13 53 16 4 10 6 8 6 -7 1 -29 15 -29
41 -1 28 30 25 59 -6 46 -3 -2 -10 5 -15 15 -12 20 -34 22 -46 5z M3430 1250
c-21 -12 -55 -19 -87 -20 -29 0 -53 -4 -53 -10 0 -5 -9 -10 -21 -10 -39 0 -9
-17 33 -18 96 -4 213 36 194 66 -10 16 -25 14 -66 -8z M4125 1262 c-13 -9 -40
-90 -33 -97 3 -3 13 -3 22 1 20 8 36 44 36 80 0 25 -7 29 -25 16z M4042 1228
c-26 -41 -17 -71 15 -50 12 7 33 54 33 73 0 21 -29 7 -48 -23z M3796 1218
c-12 -16 -13 -25 -4 -35 9 -12 16 -10 36 10 24 25 23 47 -3 47 -8 0 -21 -10
-29 -22z M3986 1231 c-10 -15 5 -40 19 -35 7 3 15 14 18 25 4 14 0 19 -13 19
-11 0 -21 -4 -24 -9z M2967 1216 c-10 -25 15 -34 88 -32 128 3 123 31 -7 41
-61 5 -76 3 -81 -9z M4208 1213 c-11 -13 -13 -25 -7 -41 12 -32 28 -24 44 21
11 33 11 37 -5 37 -9 0 -24 -8 -32 -17z M509 1203 c-13 -16 -12 -17 4 -4 9 7
17 15 17 17 0 8 -8 3 -21 -13z M579 1208 c-8 -7 -21 -22 -29 -33 -8 -11 0 -7
18 9 18 17 32 31 32 33 0 6 -6 3 -21 -9z M604 1198 l-19 -23 23 19 c21 18 27
26 19 26 -2 0 -12 -10 -23 -22z M4285 1200 c-8 -13 3 -30 20 -30 14 0 27 24
18 34 -10 9 -31 7 -38 -4z M2612 1192 c-7 -2 -17 -13 -23 -24 -10 -19 -9 -20
20 -16 17 2 31 2 31 -2 0 -3 15 -5 32 -4 48 3 66 -9 39 -28 -20 -14 -20 -16
-4 -30 20 -17 127 -31 213 -28 30 1 69 2 85 1 65 0 115 10 115 25 0 17 6 17
-170 18 -117 1 -144 4 -142 15 4 20 -26 49 -62 60 -35 11 -116 19 -134 13z
M520 1179 c0 -5 5 -7 10 -4 6 3 10 8 10 11 0 2 -4 4 -10 4 -5 0 -10 -5 -10
-11z M2549 1153 c-13 -16 -12 -17 4 -4 9 7 17 15 17 17 0 8 -8 3 -21 -13z
M4523 1153 c-36 -4 -44 -8 -49 -29 -6 -23 -19 -29 -54 -26 -77 8 -174 6 -215
-4 -62 -15 -86 -14 -103 3 -17 17 -43 17 -76 0 l-26 -14 35 -19 c27 -14 39
-16 53 -8 13 9 23 7 44 -7 23 -17 33 -18 71 -9 24 5 80 9 123 9 124 -1 132 0
148 16 23 23 56 33 136 39 79 7 143 -1 134 -15 -3 -5 -21 -9 -40 -9 -42 0 -74
-15 -74 -35 0 -11 -13 -15 -52 -15 -86 0 -240 -19 -254 -31 -8 -6 -11 -15 -8
-20 3 -5 -25 -10 -63 -11 -117 -3 -493 -3 -493 0 0 1 11 7 25 12 40 15 33 46
-12 54 -63 10 -158 7 -171 -6 -21 -21 -335 -10 -493 18 -41 7 -79 -9 -79 -32
0 -13 -19 -14 -147 -8 -82 4 -204 8 -273 9 -69 1 -176 7 -238 15 -99 12 -112
16 -107 31 8 23 -2 28 -87 42 -91 15 -130 12 -126 -11 2 -12 17 -18 53 -22 37
-4 44 -7 28 -12 -13 -3 -23 -11 -23 -17 0 -23 79 -38 213 -42 9 0 17 -3 17 -7
0 -4 30 -8 68 -8 252 -4 324 -7 379 -17 35 -5 60 -14 57 -19 -3 -5 0 -16 8
-25 12 -15 1 -16 -127 -9 -77 4 -153 9 -170 11 -16 1 -61 6 -100 10 -38 4 -79
9 -90 11 -39 8 -117 6 -125 -2 -4 -5 -4 -18 0 -30 7 -18 20 -22 97 -28 48 -4
115 -10 148 -13 33 -3 231 -7 440 -8 209 -1 388 -3 397 -5 34 -6 28 -29 -8
-36 -38 -7 -54 -28 -35 -47 21 -21 11 -25 -66 -32 -79 -7 -183 -22 -215 -31
-12 -4 -18 -15 -18 -33 0 -25 5 -30 43 -39 23 -6 98 -16 167 -23 109 -10 131
-15 169 -40 24 -15 60 -33 80 -40 20 -6 43 -17 51 -24 8 -6 29 -17 47 -24 36
-15 49 -37 32 -58 -14 -17 -25 -9 -13 10 5 7 0 3 -11 -10 -23 -25 -56 -34 -36
-9 9 10 9 16 1 21 -8 5 -6 14 7 28 18 22 18 22 -3 4 -12 -10 -25 -17 -30 -16
-5 2 -47 0 -94 -4 -47 -4 -138 -9 -203 -11 l-119 -4 23 24 c20 21 21 28 11 44
-7 11 -8 20 -3 20 11 0 20 35 12 47 -3 6 -22 19 -41 29 -31 17 -57 19 -240 18
-250 -2 -323 -20 -275 -67 8 -9 15 -17 15 -19 0 -2 -24 -3 -52 -4 -50 -1 -114
-5 -343 -24 -55 -4 -145 -8 -200 -9 -55 -1 -134 -4 -175 -7 -41 -3 -127 -6
-190 -7 -104 -2 -115 -4 -118 -21 -2 -10 1 -21 6 -25 12 -7 234 -5 312 3 62 7
310 22 505 32 72 3 159 10 195 15 36 5 72 9 80 9 8 -1 56 -3 105 -6 105 -5
139 -18 124 -45 -7 -15 -4 -22 18 -36 22 -14 50 -18 138 -19 60 -1 113 1 117
3 4 2 79 5 166 6 141 2 157 1 144 -12 -10 -10 -11 -16 -3 -19 23 -8 10 -22
-21 -22 l-31 0 19 23 c17 19 16 19 -9 -2 -22 -20 -43 -26 -110 -32 -93 -8
-144 -17 -169 -30 -9 -5 -47 -9 -85 -9 -37 -1 -121 -6 -186 -12 -104 -9 -120
-8 -143 6 -13 9 -22 21 -19 26 8 14 -25 27 -74 29 -24 1 -53 8 -65 16 -24 16
-205 25 -261 13 -16 -4 -79 -6 -140 -6 -185 0 -197 0 -290 -17 -161 -29 -179
-33 -225 -51 -37 -14 -84 -18 -263 -21 -173 -2 -217 0 -211 9 6 10 5 10 -7 1
-8 -6 -30 -9 -49 -7 -19 3 -75 5 -124 7 -81 2 -89 0 -96 -18 -6 -15 -4 -21 9
-22 9 0 50 -4 91 -9 87 -9 490 -9 568 0 62 7 139 25 166 39 11 5 38 11 60 12
23 2 50 5 61 8 58 14 176 29 182 23 3 -3 15 1 25 11 16 14 18 14 18 0 0 -9 9
-19 20 -22 11 -3 20 -11 20 -16 0 -6 4 -8 9 -5 5 3 33 8 63 11 29 3 68 8 87
11 70 11 117 17 136 16 11 -1 33 -2 48 -2 25 -1 27 -3 15 -18 -11 -14 -10 -14
8 1 12 10 28 15 38 11 19 -7 20 -15 4 -34 -7 -8 -4 -7 7 2 26 21 72 14 54 -8
-10 -12 -8 -13 6 -7 15 5 17 3 12 -12 -6 -14 -5 -16 7 -6 18 15 49 3 41 -17
-5 -13 -3 -13 11 -2 13 11 17 11 24 1 6 -10 9 -10 12 -1 2 8 37 13 107 15 95
3 101 2 90 -13 -8 -9 -14 -18 -15 -20 -11 -18 -243 -16 -324 2 -73 16 -149 20
-400 20 -265 1 -275 0 -275 -18 0 -19 11 -19 280 -21 194 -2 314 -7 390 -18
147 -21 214 -26 248 -16 37 10 201 20 397 24 85 2 155 4 155 5 0 1 25 4 55 6
85 6 123 11 144 20 15 6 17 4 11 -7 -7 -12 -6 -12 7 -1 17 13 36 13 243 -7 78
-7 107 -7 130 4 16 7 53 16 82 19 68 7 93 20 93 52 0 13 7 27 15 30 20 8 124
9 160 1 17 -4 43 -9 58 -13 15 -3 39 -17 52 -30 13 -13 38 -25 55 -26 16 -1
42 -3 58 -4 15 -2 121 -4 236 -5 185 -3 211 -1 220 14 6 9 8 18 6 21 -3 2 -69
6 -148 8 -78 1 -142 7 -142 11 0 5 -6 5 -12 0 -17 -12 -58 -14 -58 -3 0 5 -15
4 -32 -1 -18 -5 -34 -9 -36 -9 -2 0 6 14 18 31 13 17 28 28 36 25 7 -3 17 0
21 7 9 14 4 79 -6 90 -5 4 -6 18 -4 31 4 18 10 22 31 20 15 -2 96 -6 180 -8
144 -4 152 -3 152 15 0 15 -7 19 -32 20 -193 3 -238 4 -238 9 0 3 5 11 11 17
12 12 3 37 -11 28 -5 -3 -11 -1 -15 5 -4 6 27 11 87 12 51 0 98 2 103 3 6 2
20 3 32 4 27 1 54 27 47 45 -6 16 -73 37 -122 38 -30 1 -31 2 -17 19 11 11 13
19 5 24 -14 9 -3 25 14 19 7 -3 19 2 26 11 19 23 -2 35 -61 35 -44 0 -46 1
-41 25 3 19 0 25 -14 26 -11 1 -23 2 -29 4 -5 1 -38 3 -72 3 -50 2 -61 5 -57
16 6 15 44 18 44 3 0 -4 4 -6 10 -2 5 3 24 6 43 7 60 2 94 49 61 83 -14 14
-29 16 -76 11 -32 -3 -63 -8 -67 -11 -5 -2 -11 5 -14 16 -3 12 -9 19 -14 16
-4 -2 -17 -1 -28 4 -12 5 15 8 72 7 94 -2 130 10 119 39 -8 20 106 21 132 1 8
-7 12 -7 12 2 0 7 14 10 43 8 39 -2 42 -1 45 23 3 26 3 26 -62 23 -40 -2 -66
1 -66 7 0 6 8 9 18 8 9 -1 19 0 22 1 3 1 21 3 40 5 50 3 50 3 50 20 0 18 -40
36 -55 26 -10 -8 -121 -7 -235 1 -36 2 -84 3 -107 1z m-1235 -163 c55 0 28
-13 -31 -15 -28 -1 -73 -5 -99 -9 -49 -8 -59 -1 -35 23 8 9 29 11 71 7 32 -3
75 -6 94 -6z m412 0 c0 -3 -9 -13 -20 -23 -27 -23 -25 -35 5 -43 15 -4 22 -11
18 -18 -4 -6 1 -5 11 3 15 13 19 13 27 0 5 -9 9 -10 9 -2 0 13 51 15 245 13
61 0 126 0 145 1 129 7 380 0 380 -12 0 -3 -9 -14 -20 -24 -11 -10 -20 -24
-20 -32 0 -7 -8 -13 -17 -14 -98 -3 -153 -24 -153 -59 0 -18 36 -47 53 -42 4
1 7 -1 7 -5 0 -5 26 -6 57 -5 62 4 67 -10 5 -15 -155 -13 -182 -20 -182 -49 0
-16 38 -34 58 -27 17 7 15 -5 -8 -37 -18 -25 -19 -30 -5 -43 8 -9 15 -17 15
-20 0 -3 -110 -2 -133 2 -4 0 -3 10 3 21 15 29 -21 58 -67 54 -23 -2 -31 1
-27 9 5 8 2 8 -7 -1 -17 -16 -32 -16 -23 1 5 8 2 7 -9 -2 -19 -15 -33 -9 -22
9 4 6 21 10 39 9 28 -2 39 1 79 16 6 3 23 13 37 22 15 12 21 13 16 4 -5 -7 5
-3 23 10 38 28 39 46 4 76 -29 25 -18 25 -373 23 -152 -1 -172 1 -156 13 21
15 15 52 -7 44 -6 -2 -29 2 -51 9 -21 8 -43 11 -50 8 -6 -3 -2 2 8 10 11 9 23
16 28 16 4 0 8 11 8 24 0 18 -9 27 -43 40 -23 9 -62 16 -87 16 -70 0 -42 8 55
15 50 4 91 8 92 9 4 4 53 0 53 -4z m-350 -10 c0 -5 -2 -10 -4 -10 -3 0 -8 5
-11 10 -3 6 -1 10 4 10 6 0 11 -4 11 -10z m30 0 c0 -5 -5 -10 -11 -10 -5 0 -7
5 -4 10 3 6 8 10 11 10 2 0 4 -4 4 -10z m162 -62 c26 -6 31 -15 13 -21 -8 -4
-15 -2 -15 4 0 5 -10 3 -23 -6 -13 -8 -26 -13 -29 -10 -3 3 -11 -1 -17 -9 -20
-24 24 -45 97 -47 l63 -2 -21 -22 c-11 -12 -20 -24 -20 -27 0 -18 81 -24 300
-23 228 2 280 -2 280 -25 0 -17 -90 -42 -163 -46 -45 -3 -98 -10 -117 -17 -19
-6 -40 -10 -47 -9 -6 1 -18 -7 -27 -19 -28 -40 10 -53 204 -69 47 -3 73 -7 58
-8 -31 -2 -41 -21 -21 -40 20 -21 89 -27 281 -26 l172 1 -2 -51 c-3 -56 2 -77
17 -88 6 -4 -3 -20 -20 -38 -28 -29 -53 -41 -39 -19 4 8 1 8 -12 1 -11 -6 -28
-6 -42 -1 -19 7 -21 12 -12 28 13 25 13 38 0 25 -7 -7 -26 -8 -53 -3 -91 18
-164 24 -195 18 -17 -3 -32 -4 -32 0 0 4 -12 6 -27 5 -16 -1 -28 -3 -28 -4 0
-2 -9 -4 -20 -6 -61 -10 -78 -20 -70 -44 4 -13 -2 -21 -26 -29 -41 -14 -42
-14 -35 5 3 8 2 13 -2 10 -5 -3 -15 4 -22 15 -8 10 -20 19 -28 19 -7 0 -11 4
-8 8 2 4 -15 7 -40 6 -24 -1 -44 2 -44 7 0 4 8 7 18 7 9 0 39 2 65 5 37 5 46
4 41 -6 -5 -8 -2 -7 9 2 9 7 24 11 32 7 8 -3 15 -2 15 3 0 5 15 8 33 8 46 -1
87 13 87 29 0 8 -7 14 -15 14 -8 0 -15 4 -15 8 0 4 -22 7 -50 6 -27 -1 -50 1
-50 4 0 3 10 17 23 30 12 14 17 22 10 18 -6 -3 -18 3 -25 13 -12 17 -38 23
-147 36 -73 9 -142 18 -154 20 -22 5 -47 25 -31 26 38 3 87 23 103 43 11 13
11 19 0 32 -11 13 -34 15 -163 10 -83 -3 -161 -8 -172 -10 -68 -14 -329 -2
-340 15 -3 5 3 10 13 10 10 1 27 3 38 4 11 2 62 6 114 10 109 8 161 26 161 55
0 11 -4 20 -10 20 -25 0 -6 15 21 17 33 3 59 18 59 36 0 19 -51 56 -84 62 -68
12 -82 14 -116 15 -32 2 -33 3 -10 9 26 7 281 6 312 -1z m-565 -4 c-3 -3 -12
-4 -19 -1 -8 3 -5 6 6 6 11 1 17 -2 13 -5z m1613 -125 c0 -4 -13 -9 -30 -11
-28 -4 -37 1 -24 14 7 8 54 5 54 -3z m-127 -6 c-7 -2 -19 -2 -25 0 -7 3 -2 5
12 5 14 0 19 -2 13 -5z m287 -54 c0 -4 -15 -7 -32 -7 -18 0 -37 -1 -43 -2 -22
-5 -56 0 -52 8 6 9 127 11 127 1z m-1106 -91 c-3 -4 -11 -8 -17 -7 -7 1 -19 0
-27 -4 -8 -3 -28 -10 -45 -15 -43 -13 -37 -34 17 -59 46 -23 61 -26 193 -39
39 -4 79 -8 90 -9 11 -1 27 -3 35 -4 10 -1 11 -4 3 -12 -6 -6 -45 -14 -87 -18
-49 -4 -81 -12 -86 -21 -13 -21 8 -40 43 -40 67 0 14 -10 -79 -15 -54 -3 -107
-8 -118 -11 -12 -4 -16 -2 -12 5 4 6 13 11 20 11 7 0 23 11 36 25 34 36 17 63
-66 104 -101 49 -126 62 -152 82 -22 17 -20 17 55 22 43 3 94 6 112 7 19 0 37
2 38 4 8 8 52 3 47 -6z m370 -12 c-4 -11 -14 -15 -33 -12 -14 2 -35 5 -45 5
-29 1 -9 16 25 17 19 1 27 -2 22 -10 -3 -6 2 -3 12 6 22 20 28 18 19 -6z m446
2 c0 -7 -67 -13 -93 -9 -4 1 -17 -3 -27 -9 -21 -11 -27 -1 -10 16 11 11 130
14 130 2z m30 2 c0 -5 -5 -10 -11 -10 -5 0 -7 5 -4 10 3 6 8 10 11 10 2 0 4
-4 4 -10z m140 -1 c0 -4 -14 -7 -31 -7 -16 1 -26 4 -20 7 14 9 51 8 51 0z m30
1 c0 -5 -5 -10 -11 -10 -5 0 -7 5 -4 10 3 6 8 10 11 10 2 0 4 -4 4 -10z m40 0
c0 -5 -4 -10 -10 -10 -5 0 -10 5 -10 10 0 6 5 10 10 10 6 0 10 -4 10 -10z m30
0 c0 -5 -4 -10 -10 -10 -5 0 -10 5 -10 10 0 6 5 10 10 10 6 0 10 -4 10 -10z
m30 0 c0 -5 -5 -10 -11 -10 -5 0 -7 5 -4 10 3 6 8 10 11 10 2 0 4 -4 4 -10z
m-148 -50 c5 0 2 -7 -7 -16 -11 -12 -13 -20 -5 -29 8 -9 4 -14 -14 -17 -22 -4
-25 -2 -24 26 1 39 6 49 25 42 8 -3 19 -6 25 -6z m-1604 -14 c14 -5 22 -15 22
-30 0 -21 -4 -22 -72 -22 -44 1 -78 6 -86 13 -15 15 -18 15 -129 14 -46 0 -83
4 -83 9 0 6 1 10 3 11 1 0 22 3 47 5 25 3 46 7 47 8 6 6 231 -1 251 -8z m1436
2 c-6 -10 -4 -10 7 -2 23 18 51 14 46 -7 -3 -10 0 -20 6 -22 6 -2 -22 -3 -63
-3 -42 0 -78 5 -82 10 -5 7 -8 7 -8 -1 0 -7 -5 -13 -12 -13 -6 0 -4 8 6 19 11
12 28 18 47 17 16 -1 29 1 29 6 0 4 7 8 16 8 9 0 12 -5 8 -12z m-514 -112 c0
-3 -4 -8 -10 -11 -5 -3 -10 -1 -10 4 0 6 5 11 10 11 6 0 10 -2 10 -4z m-395
-95 c8 -28 53 -42 134 -44 41 -1 71 -5 71 -12 0 -5 4 -4 8 3 12 18 73 7 93
-17 16 -19 16 -66 0 -57 -3 2 -40 7 -81 10 -41 4 -94 11 -117 17 -65 14 -182
4 -200 -18 -8 -10 -11 -12 -7 -4 6 11 -2 13 -42 7 -91 -13 -416 -17 -430 -5
-10 8 -17 7 -27 -3 -13 -12 -31 -14 -87 -9 -13 1 -13 3 0 16 11 10 47 16 120
19 58 3 119 10 135 16 21 8 30 8 35 0 5 -8 9 -7 13 3 7 18 65 26 197 29 107 2
134 10 125 38 -4 14 0 20 17 23 13 2 26 5 30 6 4 0 9 -8 13 -18z m215 -2 c0
-5 -14 -9 -31 -9 -16 0 -28 3 -26 8 7 10 57 12 57 1z M4209 573 c-13 -16 -12
-17 4 -4 9 7 17 15 17 17 0 8 -8 3 -21 -13z M4089 713 c-13 -16 -12 -17 4 -4
16 13 21 21 13 21 -2 0 -10 -8 -17 -17z M865 1140 c-8 -13 -1 -24 14 -19 6 3
7 10 2 18 -6 10 -10 10 -16 1z M3237 1122 c-22 -2 -40 -9 -44 -18 -12 -32 15
-39 155 -40 75 0 205 -1 287 -2 83 -1 175 0 205 4 30 3 73 7 95 9 22 1 43 3
48 4 4 1 7 7 7 14 0 18 -89 35 -126 25 -33 -9 -447 -9 -532 1 -31 3 -74 5 -95
3z M1229 1036 c-2 -2 -116 -7 -254 -11 -185 -5 -254 -10 -264 -20 -20 -20 -4
-38 28 -30 44 12 298 17 619 13 107 -2 72 36 -39 41 -40 1 -76 4 -80 6 -3 3
-8 3 -10 1z M679 1003 c-13 -16 -12 -17 4 -4 9 7 17 15 17 17 0 8 -8 3 -21
-13z M73 992 c-20 -3 -23 -9 -23 -49 0 -48 17 -55 35 -15 5 12 17 22 25 21 37
-3 50 2 50 21 0 11 -6 20 -12 21 -7 0 -22 2 -33 3 -11 1 -30 0 -42 -2z M4773
990 c-28 -12 -30 -30 -3 -37 11 -3 20 -10 20 -17 0 -6 6 -4 13 5 12 16 58 18
95 4 15 -6 28 23 16 35 -14 13 -116 20 -141 10z M1103 954 c-3 -8 -3 -17 0
-20 10 -11 278 -7 289 4 20 20 -18 27 -150 29 -111 2 -134 0 -139 -13z M1658
954 c-5 -4 -8 -10 -8 -14 0 -4 98 -10 218 -14 119 -4 239 -9 265 -10 60 -3 82
18 29 29 -44 8 -497 17 -504 9z M4810 925 c-14 -17 7 -33 45 -35 55 -4 65 -1
65 20 0 15 -7 20 -27 21 -16 0 -38 2 -51 3 -12 2 -27 -3 -32 -9z M115 900
c-10 -16 4 -30 31 -30 17 0 24 5 24 20 0 15 -7 20 -24 20 -14 0 -28 -4 -31
-10z M1081 880 c-39 -9 -38 -30 1 -30 19 0 39 -5 44 -10 7 -7 32 -7 73 -2 73
10 658 7 751 -4 69 -8 143 -7 174 2 13 4 16 2 11 -6 -6 -9 -3 -9 13 -1 26 14
75 14 88 1 6 -6 38 -12 71 -14 34 -3 70 -9 81 -15 13 -7 22 -7 30 1 21 21 14
47 -15 54 -16 3 -43 10 -61 16 -30 9 -80 7 -217 -9 -70 -8 -110 -8 -295 2 -74
4 -252 7 -395 7 -143 0 -276 3 -295 7 -19 4 -46 5 -59 1z M63 853 c-7 -2 -13
-13 -13 -23 0 -15 9 -18 55 -19 42 0 55 3 55 15 0 24 -63 41 -97 27z M855 832
c-30 -12 -76 -16 -185 -17 -152 -1 -180 -6 -159 -31 8 -10 15 -11 24 -4 9 8
15 8 20 1 15 -26 333 2 351 30 3 5 26 9 52 9 31 0 42 -3 33 -9 -25 -16 -1 -31
45 -26 24 2 42 0 39 -5 -3 -4 10 -5 28 -1 17 3 50 6 72 5 93 -4 161 -5 350 -5
110 0 229 -4 265 -8 79 -10 105 -1 67 24 -22 14 -63 18 -274 22 -136 3 -299 5
-361 4 -62 -1 -121 3 -130 8 -9 5 -57 11 -107 14 -70 4 -99 2 -130 -11z M2151
811 c-8 -5 -11 -16 -6 -30 7 -22 6 -22 -82 -15 -48 3 -90 6 -93 6 -28 0 -40
-3 -36 -11 10 -16 166 -37 240 -32 15 1 16 4 6 16 -11 13 -6 14 40 10 30 -3
55 -7 58 -10 2 -2 -10 -13 -28 -23 -45 -28 -123 -34 -402 -34 -203 1 -248 -2
-258 -14 -10 -11 -10 -17 0 -29 7 -8 18 -15 24 -15 6 -1 24 -6 39 -13 23 -10
-13 -12 -205 -14 -486 -6 -541 -8 -546 -21 -2 -6 -17 -12 -33 -12 -17 0 -28 4
-25 8 4 6 -37 8 -54 2 -3 -1 -24 -1 -47 0 -37 1 -41 -1 -36 -19 3 -13 14 -21
27 -22 11 0 35 -2 51 -5 17 -2 57 -6 90 -8 51 -3 64 -1 84 18 13 11 22 16 18
10 -4 -7 20 -9 76 -7 45 2 217 5 382 7 165 1 306 6 314 10 9 6 11 20 8 43 l-6
34 192 -3 c266 -4 380 23 402 93 11 32 -12 56 -62 67 -84 19 -118 22 -132 13z
M1177 743 c-3 -3 -59 -6 -124 -8 -65 -2 -131 -6 -148 -9 -39 -7 -84 -7 -225
-1 -63 3 -139 2 -168 -1 -51 -5 -88 -27 -76 -45 6 -10 62 -7 79 3 6 3 30 3 55
-1 25 -4 58 -4 72 0 15 4 50 5 80 3 29 -3 76 -6 105 -7 31 -1 49 -6 45 -12 -3
-5 3 -3 14 6 21 18 21 18 120 22 39 2 75 7 82 10 6 4 13 4 16 -1 7 -12 156 -4
172 9 22 18 16 26 -18 24 -18 -1 -43 1 -54 6 -12 4 -24 5 -27 2z M54 711 c-2
-2 -4 -14 -4 -27 0 -20 4 -22 43 -17 50 7 66 18 48 36 -11 11 -77 17 -87 8z
M2365 589 c-116 -11 -296 -22 -360 -23 -72 -1 -92 -10 -73 -33 11 -13 28 -15
113 -8 105 8 170 11 322 19 51 2 97 7 102 10 5 3 11 1 13 -5 2 -7 8 -7 15 3 7
8 8 19 4 27 -10 16 -44 18 -136 10z M693 504 c-9 -23 8 -34 60 -36 55 -3 76
12 52 36 -22 22 -103 22 -112 0z M958 498 c-18 -6 -28 -17 -28 -29 0 -18 5
-19 53 -12 60 8 149 9 327 3 105 -4 125 -3 125 10 0 8 -14 17 -35 21 -60 13
-413 18 -442 7z M613 487 c-4 -8 -16 -16 -25 -20 -10 -3 -18 -13 -18 -22 0
-11 10 -14 38 -13 21 0 49 -5 62 -12 30 -16 189 -22 208 -7 8 6 12 6 12 -1 0
-5 8 -8 19 -5 10 2 38 -1 62 -8 24 -7 58 -13 74 -15 17 -2 57 -6 90 -9 33 -3
71 -7 85 -8 14 -1 31 -6 38 -10 6 -5 12 -5 12 -1 0 3 10 0 23 -8 16 -10 53
-14 132 -14 107 1 110 2 111 24 1 21 -2 22 -78 22 -44 0 -88 4 -98 10 -11 6
-28 6 -42 1 -13 -4 -34 -4 -48 0 -14 5 -47 10 -75 12 -27 2 -105 12 -172 22
-100 15 -121 21 -112 32 16 18 4 17 -15 -2 -29 -30 -246 -15 -246 16 0 5 -8 5
-17 2 -16 -6 -16 -5 -4 10 8 10 9 17 3 17 -6 0 -15 -6 -19 -13z M73 383 c-17
-3 -23 -11 -23 -30 0 -24 1 -25 22 -11 20 14 25 13 49 -4 18 -13 44 -20 79
-21 72 -1 76 19 5 28 -39 4 -58 12 -65 26 -10 19 -22 21 -67 12z M1555 370
c-3 -6 1 -7 9 -4 18 7 21 14 7 14 -6 0 -13 -4 -16 -10z M50 273 c0 -21 2 -24
15 -13 8 7 15 16 15 20 0 4 -7 10 -15 14 -11 4 -15 -2 -15 -21z M655 295 c-5
-2 -22 -6 -37 -9 -28 -6 -39 -35 -15 -37 47 -5 79 -8 125 -14 43 -6 52 -5 52
8 0 16 -37 34 -47 23 -3 -3 -20 3 -37 13 -17 10 -35 17 -41 16z M148 259 c-10
-5 -18 -7 -18 -3 0 3 -6 2 -12 -3 -7 -6 -25 -13 -40 -17 -19 -4 -28 -13 -28
-26 0 -20 24 -28 34 -11 5 7 35 16 74 22 14 2 32 22 32 35 0 16 -18 18 -42 3z
M219 221 c-14 -9 -24 -21 -22 -27 5 -16 118 9 118 27 0 20 -64 20 -96 0z M463
233 c-21 -8 -15 -23 13 -33 36 -14 65 7 38 27 -18 13 -30 15 -51 6z M3657 159
c4 -13 8 -18 11 -10 2 7 -1 18 -6 23 -8 8 -9 4 -5 -13z"/>
</g>
</svg>
