<?xml version="1.0" standalone="no"?>
<!DOCTYPE svg PUBLIC "-//W3C//DTD SVG 20010904//EN"
 "http://www.w3.org/TR/2001/REC-SVG-20010904/DTD/svg10.dtd">
<svg version="1.0" xmlns="http://www.w3.org/2000/svg"
 width="500.000000pt" height="878.000000pt" viewBox="0 0 500.000000 878.000000"
 preserveAspectRatio="xMidYMid meet">
<metadata>
Created by potrace 1.16, written by Peter Selinger 2001-2019
</metadata>
<g transform="translate(0.000000,878.000000) scale(0.100000,-0.100000)"
fill="#000000" stroke="none">
<path d="M50 8243 l0 -487 25 -26 25 -26 -25 -36 -25 -37 0 -1559 c0 -1369 2
-1561 15 -1566 11 -4 15 2 15 25 0 28 3 31 25 27 14 -3 28 -2 30 3 3 4 36 10
73 14 37 3 85 8 107 10 71 8 139 17 145 18 3 0 15 -3 28 -7 22 -7 23 -11 17
-84 -3 -41 -7 -78 -10 -80 -3 -3 -53 -6 -112 -6 -103 -1 -247 20 -290 42 -44
23 -43 41 -43 -803 l0 -803 26 -6 c29 -8 28 -31 -2 -31 -25 0 -25 -27 1 -31
11 -2 35 -6 54 -10 26 -5 33 -4 29 7 -2 8 -17 15 -31 17 -26 3 -34 12 -21 25
6 6 67 -26 97 -51 9 -8 17 -12 17 -8 0 4 17 -5 37 -19 21 -14 44 -25 51 -25 8
0 33 -16 56 -35 24 -19 57 -40 75 -46 17 -6 31 -17 31 -25 0 -19 -20 -17 -54
5 -16 11 -35 17 -42 14 -21 -8 -17 -17 14 -30 32 -15 59 -32 84 -55 29 -28 21
-29 -25 -3 -23 14 -50 25 -59 25 -32 0 -19 -27 22 -45 48 -22 56 -30 30 -32
-10 -1 -21 5 -24 13 -3 8 -12 14 -21 14 -20 0 -20 -39 0 -46 8 -4 12 -10 9
-15 -3 -5 -10 -7 -15 -4 -5 4 -9 -12 -9 -34 l0 -40 -35 6 c-41 7 -46 -8 -10
-31 28 -18 29 -24 15 -46 -8 -12 -12 -13 -19 -2 -12 20 -47 10 -43 -12 3 -14
0 -16 -16 -7 -15 8 -23 7 -31 -3 -10 -12 -18 -11 -49 4 -22 11 -43 15 -52 10
-8 -4 -28 -10 -45 -11 -24 -3 -30 0 -36 21 -4 15 -7 -11 -8 -63 -1 -59 3 -92
12 -100 12 -12 30 -14 237 -21 164 -5 162 -5 156 -14 -7 -11 -318 -9 -368 2
-31 7 -38 6 -38 -7 0 -9 13 -17 35 -21 32 -6 35 -10 35 -41 0 -23 5 -35 14
-35 17 0 28 24 20 45 -4 8 -1 15 4 15 6 0 12 -10 14 -22 5 -33 25 -33 33 1 8
36 38 42 55 11 13 -24 30 -26 30 -5 0 8 5 15 10 15 6 0 10 -6 9 -12 -6 -47 25
-53 35 -8 5 28 9 30 50 30 35 0 45 -4 49 -20 7 -26 27 -26 34 0 3 11 9 17 14
14 14 -8 11 -34 -6 -50 -8 -9 -15 -25 -15 -38 0 -30 -18 -46 -52 -46 -24 0
-28 4 -28 29 0 33 -14 48 -27 29 -8 -14 -10 -20 -12 -45 -2 -24 -19 -4 -23 27
-4 35 -22 31 -26 -6 -3 -28 -7 -32 -38 -36 -27 -3 -39 1 -50 16 -14 20 -16 20
-28 4 -19 -25 -66 -24 -73 2 -7 27 -23 25 -23 -2 -1 -26 -24 -61 -33 -51 -4 3
-7 1 -7 -5 0 -19 31 -21 220 -16 102 3 325 6 497 8 181 1 317 7 325 12 11 9
292 9 693 2 44 -1 157 1 250 4 94 3 181 3 195 -1 24 -7 25 -11 25 -81 0 -108
-3 -111 -83 -109 -61 2 -1086 -9 -1462 -16 -85 -1 -269 -3 -407 -4 -218 -1
-253 -3 -253 -16 0 -19 -27 -18 363 -10 87 2 155 0 152 -4 -5 -9 -75 -12 -347
-14 -127 -2 -168 -5 -168 -14 0 -7 10 -13 23 -14 35 -1 303 2 662 6 536 6
1496 6 1506 -1 10 -6 6 -184 -6 -259 -2 -16 -7 -68 -10 -115 -4 -47 -11 -89
-16 -94 -6 -6 -9 -5 -9 5 -1 37 -30 48 -138 52 -24 0 -41 5 -39 12 2 6 29 9
63 8 76 -3 91 2 73 23 -8 10 -27 15 -53 14 -68 -3 -86 -1 -86 11 0 7 26 10 75
8 48 -2 79 1 86 8 17 17 -5 24 -83 28 -89 4 -90 4 -83 15 4 6 32 9 62 8 36 -2
58 1 60 9 4 12 -36 24 -87 25 -43 1 -49 18 -6 18 79 0 122 50 60 70 -66 22
-134 -10 -134 -61 0 -27 -30 -56 -43 -42 -3 3 -18 2 -32 -1 -21 -5 -26 -12
-23 -34 3 -25 7 -27 56 -30 59 -3 70 -22 25 -44 -39 -18 -41 -47 -7 -74 l27
-22 -31 -37 c-35 -39 -39 -57 -19 -74 18 -15 27 -4 27 33 0 20 3 27 10 20 5
-5 12 -91 15 -189 5 -168 15 -225 37 -225 9 0 5 195 -7 345 -6 79 2 89 62 86
26 -1 59 -2 73 -3 14 0 37 3 52 7 l26 7 -4 -89 c-3 -83 -6 -112 -17 -173 -3
-14 -8 -41 -11 -60 -17 -94 -56 -179 -104 -232 l-24 -27 -187 -1 c-102 0 -521
-2 -931 -4 -959 -5 -890 -3 -890 -20 0 -12 129 -13 863 -10 474 2 905 4 957 5
52 0 110 0 129 0 l34 -1 -21 -23 c-27 -29 -27 -39 -2 -62 17 -15 40 -19 128
-21 59 -2 123 -4 142 -5 67 -3 223 11 235 21 9 7 21 7 41 0 44 -17 161 15 204
56 28 26 35 27 535 23 99 -1 324 2 500 5 176 4 485 7 688 8 314 1 367 3 367
16 0 12 -21 14 -122 12 -136 -3 -202 0 -175 7 9 2 17 9 17 14 0 6 15 7 36 3
23 -4 35 -3 31 3 -4 6 9 8 31 6 20 -2 70 -6 110 -9 l72 -6 0 40 c0 39 0 39
-37 38 -30 -1 -38 -5 -37 -19 2 -15 -4 -17 -35 -11 -20 4 -37 7 -38 8 -2 1 -5
232 -4 264 1 14 11 13 119 -5 25 -4 32 -2 32 11 0 10 -8 16 -22 16 -12 0 -48
5 -80 12 l-59 12 6 66 c3 36 7 96 9 133 2 38 6 70 9 73 3 3 35 5 71 5 51 0 66
4 66 15 0 10 -13 14 -49 14 -77 0 -78 2 -70 73 4 34 9 106 10 160 l1 97 32 0
c62 0 77 10 74 44 -3 27 -7 31 -33 31 -21 0 -31 -5 -33 -18 -3 -16 1 -18 27
-12 20 4 31 3 31 -4 0 -14 -77 -14 -85 0 -4 6 -4 35 0 65 l7 55 19 -24 c25
-33 69 -42 69 -15 0 11 -4 17 -9 14 -15 -10 -45 20 -38 38 5 14 11 15 27 6 28
-15 28 16 -1 39 -18 15 -19 20 -8 44 7 15 16 27 21 27 4 0 8 7 8 15 0 33 -48
6 -63 -35 -3 -8 -6 4 -6 28 -1 42 -1 42 34 42 24 0 35 5 35 15 0 9 -9 15 -25
15 -29 0 -41 20 -27 47 5 10 13 52 16 93 8 98 17 144 28 151 5 3 7 50 6 105
l-3 99 -21 -75 -21 -75 -44 4 c-24 2 -47 8 -51 14 -4 7 -14 8 -30 1 -13 -6
-67 -8 -128 -5 -119 7 -109 -6 -92 111 5 36 21 89 36 118 22 44 30 51 49 47
12 -3 86 -7 165 -8 108 -1 142 1 142 11 0 6 -8 12 -17 12 -17 1 -17 1 0 14 20
15 25 72 5 59 -7 -4 -48 -9 -90 -9 -73 -2 -77 -1 -82 23 -4 13 -4 28 -1 33 10
15 35 12 35 -5 0 -8 12 -18 27 -21 22 -6 32 -1 61 30 25 28 32 32 27 16 -6
-18 -3 -21 12 -18 12 2 19 14 21 36 3 33 3 33 -30 27 -18 -4 -58 -10 -89 -14
-70 -8 -89 -23 -89 -70 0 -48 10 -61 48 -64 24 -1 32 -7 32 -21 0 -12 -5 -16
-16 -12 -9 3 -25 6 -35 6 -11 0 -17 5 -14 10 3 6 0 10 -7 10 -7 0 -21 18 -30
40 -10 24 -23 40 -33 40 -12 0 -15 -5 -11 -16 4 -9 2 -22 -4 -29 -8 -9 -4 -17
15 -29 14 -9 25 -20 25 -25 0 -9 -73 9 -86 21 -5 6 46 119 62 137 2 2 10 -2
19 -9 9 -7 17 -11 18 -9 2 2 11 16 20 31 21 33 5 48 -24 22 -25 -23 -37 -10
-14 16 26 28 63 26 75 -5 11 -28 40 -34 40 -9 0 14 9 15 65 9 l65 -7 0 511 0
511 -47 0 c-166 1 -553 -1 -888 -4 -214 -3 -424 -2 -466 1 -68 5 -76 8 -72 24
4 16 15 19 62 19 31 1 360 2 731 4 587 4 675 6 678 19 3 13 -86 15 -727 12
-402 -2 -733 1 -736 5 -3 5 -3 20 0 33 l6 24 166 2 c101 1 169 -2 172 -8 4 -6
21 -7 41 -3 19 5 116 7 215 5 165 -2 670 -4 808 -3 l57 0 0 213 0 212 -572 -2
c-315 -1 -596 1 -624 4 -50 5 -51 6 -49 35 l2 31 104 -3 c57 -1 127 -3 154 -5
28 -1 56 2 63 8 8 6 16 6 25 -1 9 -8 153 -11 446 -11 238 -1 437 -3 442 -7 5
-3 9 4 9 15 0 17 -6 21 -32 21 -209 -3 -1199 8 -1204 13 -4 4 0 15 8 24 8 10
18 26 21 36 5 12 13 16 24 13 10 -3 268 -8 574 -10 306 -3 561 -6 565 -7 45
-8 44 -11 44 209 l0 207 -656 -3 -656 -2 -35 31 -35 30 422 -3 c364 -2 423 -5
432 -18 8 -13 9 -12 4 2 -5 16 11 17 242 13 251 -5 282 -3 282 18 0 9 -133 13
-543 15 -755 3 -906 7 -951 22 -24 8 -62 10 -104 6 -37 -3 -76 -6 -87 -6 -11
-1 -27 -8 -37 -17 -13 -12 -21 -13 -31 -5 -10 8 -219 12 -728 13 -616 1 -931
3 -1145 8 -51 1 -52 1 -59 37 -3 20 -4 39 -1 42 10 10 238 11 501 2 320 -11
792 -20 1410 -26 259 -2 565 -6 680 -9 116 -3 409 -7 653 -10 l442 -5 0 204 0
204 -1002 -5 c-552 -2 -1439 -5 -1973 -6 l-970 -2 0 33 c0 23 5 34 20 39 19 5
1330 5 3105 -1 437 -2 801 -1 808 2 6 2 12 10 12 18 0 16 12 16 -340 14 -905
-6 -1602 -2 -1595 10 3 6 2 10 -4 10 -5 0 -11 -5 -13 -11 -3 -9 -271 -11
-1016 -11 -792 1 -1014 -1 -1017 -11 -2 -6 -6 -34 -8 -61 -2 -30 -9 -52 -17
-54 -10 -4 -11 2 -5 24 4 16 7 50 6 76 l-1 47 33 -6 c29 -4 37 0 60 26 l26 31
398 0 c219 0 542 -3 718 -6 176 -3 327 -6 335 -6 68 2 897 -2 975 -3 55 -1
334 -6 620 -9 286 -4 535 -12 554 -16 20 -6 41 -5 52 0 10 6 62 9 116 9 54 -1
104 -1 111 0 9 1 12 42 12 172 l0 171 -102 -6 c-57 -3 -199 -9 -315 -12 -174
-5 -213 -3 -213 8 0 10 -2 10 -8 1 -8 -12 -117 -16 -872 -28 -168 -3 -398 -8
-512 -11 -175 -6 -208 -5 -208 7 0 10 -2 11 -8 2 -5 -8 -99 -13 -322 -18 -173
-3 -378 -8 -455 -10 -124 -4 -419 -6 -606 -5 l-67 0 2 43 1 42 100 2 c55 1
480 2 945 2 465 0 1176 1 1580 2 404 0 799 0 878 -1 151 -1 182 3 182 24 0 11
-180 13 -942 11 -519 -1 -1348 -3 -1843 -4 l-900 -2 -3 21 c-2 12 -1 32 2 44
l5 21 1035 0 c569 0 1032 -4 1029 -8 -3 -5 4 -4 15 2 23 12 52 5 52 -13 0 -6
5 -4 9 4 8 13 36 15 168 14 171 -2 1313 -6 1351 -5 22 1 22 1 22 186 l0 184
-272 -5 c-150 -3 -556 -7 -903 -9 -346 -3 -666 -7 -710 -10 -142 -8 -1819 -21
-2087 -16 l-68 1 0 34 0 34 1392 -4 c995 -3 1394 -7 1399 -15 5 -8 8 -8 13 0
6 8 147 11 514 10 728 -2 722 -3 722 19 0 16 -79 17 -1523 17 -1473 1 -2499 9
-2518 21 -5 3 -9 21 -9 39 l0 35 533 -5 c565 -5 1356 -15 1421 -18 26 -2 48 5
69 20 44 32 78 28 45 -5 -7 -7 -8 -12 -2 -12 5 -1 167 -3 359 -5 193 -2 517
-7 720 -11 204 -3 490 -7 638 -8 l267 -1 0 223 c0 123 -4 221 -8 218 -17 -10
-1280 -17 -1287 -6 -3 6 -12 7 -18 3 -17 -11 -38 -11 -1325 -18 l-1173 -6 3
42 3 41 240 -2 c132 -1 265 -3 295 -5 30 -1 388 -5 795 -9 1616 -13 2098 -18
2283 -21 183 -3 192 -2 192 16 0 18 -16 19 -457 20 -252 1 -516 2 -588 4 -71
1 -571 6 -1110 10 -539 4 -1029 9 -1090 10 -60 2 -207 4 -325 6 -118 1 -223 4
-232 7 -13 3 -18 14 -18 38 0 18 -5 36 -11 40 -22 13 -29 -22 -23 -103 3 -45
2 -87 -2 -95 -6 -8 -11 10 -14 52 -4 48 -9 65 -20 65 -14 0 -16 -8 -19 -97 -1
-37 -2 -38 -38 -38 -80 0 -78 -2 -79 126 l-1 114 31 2 c70 3 93 3 130 -5 22
-4 44 -14 50 -21 9 -11 115 -15 541 -20 292 -3 613 -8 715 -10 102 -3 329 -6
505 -5 769 0 1941 -7 1972 -12 4 -1 25 -1 46 0 l37 1 0 216 0 216 -27 -7 c-15
-3 -389 -8 -832 -10 -443 -3 -1253 -7 -1800 -10 -757 -4 -997 -2 -1008 7 -11
9 -16 9 -22 0 -5 -9 -52 -12 -176 -10 l-169 3 1 28 c2 57 2 58 26 52 12 -2
218 -7 457 -10 239 -3 440 -6 445 -6 6 -1 134 -1 285 0 623 2 2786 -18 2805
-26 11 -4 15 2 15 20 l0 25 -432 0 c-609 1 -2792 14 -2858 18 -30 1 -209 3
-396 3 l-341 1 -7 47 c-3 25 -4 48 -2 50 4 4 579 2 691 -2 392 -16 807 -21
823 -11 6 4 12 3 12 -2 0 -5 37 -9 83 -10 45 0 141 -3 212 -6 128 -6 248 -9
995 -22 206 -3 409 -8 450 -9 41 -2 231 -7 423 -10 l347 -7 0 221 c0 207 -1
222 -17 217 -13 -4 -763 -20 -838 -18 -137 4 -689 1 -697 -4 -6 -4 -14 -1 -18
7 -6 9 -12 10 -22 3 -13 -11 -456 -16 -1640 -18 l-616 -1 -4 37 c-3 29 0 38
12 38 33 1 476 -1 1068 -4 345 -2 625 1 628 5 6 10 -15 11 -286 14 -96 1 -413
6 -705 10 -648 8 -698 10 -713 19 -7 4 -12 23 -12 42 l0 34 255 -3 c181 -3
255 -1 255 7 0 8 2 8 8 0 9 -14 24 -15 372 -20 157 -2 400 -5 541 -8 141 -2
262 -7 269 -11 9 -6 11 -4 5 5 -6 10 -2 11 21 5 16 -5 124 -9 239 -11 454 -5
1010 -17 1265 -28 74 -3 225 -8 335 -12 130 -4 203 -10 207 -18 5 -7 8 -7 8 3
0 9 8 12 27 8 54 -10 53 -15 53 269 l0 265 -1114 -1 -1114 -1 -20 -22 c-28
-31 -49 -78 -46 -105 1 -13 13 -35 27 -50 13 -15 38 -42 55 -61 26 -29 38 -34
78 -36 27 -1 50 -7 52 -14 5 -14 21 -13 -306 -16 -205 -3 -272 -1 -269 8 2 7
12 12 23 12 35 1 82 16 86 28 2 7 2 64 0 128 l-4 116 -111 6 c-62 4 -568 7
-1124 7 l-1013 0 0 -487z m2950 467 c0 -5 -5 -10 -11 -10 -5 0 -7 5 -4 10 3 6
8 10 11 10 2 0 4 -4 4 -10z m1150 -30 c0 -11 -2 -20 -4 -20 -2 0 -6 9 -9 20
-3 11 -1 20 4 20 5 0 9 -9 9 -20z m-3957 -50 c-3 -11 -9 -20 -14 -20 -11 0
-11 3 -3 24 9 23 23 20 17 -4z m72 0 c3 -5 1 -10 -4 -10 -6 0 -11 5 -11 10 0
6 2 10 4 10 3 0 8 -4 11 -10z m325 -31 c0 -6 -4 -7 -10 -4 -5 3 -10 11 -10 16
0 6 5 7 10 4 6 -3 10 -11 10 -16z m2250 -27 c0 -5 -7 -9 -15 -9 -8 0 -12 4 -9
9 3 4 9 8 15 8 5 0 9 -4 9 -8z m-2089 -11 c25 16 30 10 29 -33 0 -24 4 -115
10 -203 6 -88 11 -167 12 -175 0 -8 0 -88 -2 -177 l-3 -161 -43 -4 c-24 -2
-45 1 -48 7 -2 5 -2 71 -1 145 1 74 -1 189 -6 255 -21 303 -17 366 19 346 11
-6 24 -6 33 0z m1139 -1 c0 -5 -2 -10 -4 -10 -3 0 -8 5 -11 10 -3 6 -1 10 4
10 6 0 11 -4 11 -10z m990 -32 c0 -6 -7 -5 -15 2 -8 7 -15 17 -15 22 0 6 7 5
15 -2 8 -7 15 -17 15 -22z m-2550 2 c0 -5 -4 -10 -10 -10 -5 0 -10 5 -10 10 0
6 5 10 10 10 6 0 10 -4 10 -10z m560 -10 c0 -5 -5 -10 -11 -10 -5 0 -7 5 -4
10 3 6 8 10 11 10 2 0 4 -4 4 -10z m2056 -55 c9 -8 11 -15 6 -15 -5 0 -15 7
-22 15 -7 8 -9 15 -6 15 4 0 14 -7 22 -15z m-2676 -15 c0 -5 -2 -10 -4 -10 -3
0 -8 5 -11 10 -3 6 -1 10 4 10 6 0 11 -4 11 -10z m1895 -20 c3 -5 -3 -10 -15
-10 -12 0 -18 5 -15 10 3 6 10 10 15 10 5 0 12 -4 15 -10z m1395 6 c0 -3 -4
-8 -10 -11 -5 -3 -10 -1 -10 4 0 6 5 11 10 11 6 0 10 -2 10 -4z m-565 -17 c11
-17 -1 -21 -15 -4 -8 9 -8 15 -2 15 6 0 14 -5 17 -11z m1125 -33 c0 -3 -4 -8
-10 -11 -5 -3 -10 -1 -10 4 0 6 5 11 10 11 6 0 10 -2 10 -4z m195 -26 c3 -5 2
-10 -4 -10 -5 0 -13 5 -16 10 -3 6 -2 10 4 10 5 0 13 -4 16 -10z m-1845 -34
c0 -3 -4 -8 -10 -11 -5 -3 -10 -1 -10 4 0 6 5 11 10 11 6 0 10 -2 10 -4z m90
0 c0 -11 -19 -15 -25 -6 -3 5 1 10 9 10 9 0 16 -2 16 -4z m1740 -6 c0 -5 -2
-10 -4 -10 -3 0 -8 5 -11 10 -3 6 -1 10 4 10 6 0 11 -4 11 -10z m277 -22 c-3
-8 -6 -5 -6 6 -1 11 2 17 5 13 3 -3 4 -12 1 -19z m-3625 -2 c4 -6 7 -60 6
-121 0 -68 -3 -95 -7 -70 -8 54 -36 56 -36 2 0 -31 -4 -39 -22 -44 -50 -12
-56 2 -69 165 l-7 83 64 -2 c35 -1 67 -7 71 -13z m-731 -45 c34 -35 36 -58 9
-111 -18 -35 -25 -40 -54 -40 -26 0 -41 8 -65 35 -27 31 -29 38 -19 60 6 14
15 25 20 25 4 0 7 3 7 8 -4 21 3 34 24 42 36 14 47 12 78 -19z m447 -61 l-3
-85 -35 -5 c-19 -3 -57 -2 -85 2 -27 5 -74 11 -103 13 -30 3 -77 14 -105 23
-44 16 -52 23 -58 50 -4 21 -2 35 6 42 22 18 242 47 343 46 l43 -1 -3 -85z
m-66 -252 c2 -46 3 -112 4 -148 5 -142 4 -463 0 -467 -2 -3 -26 -7 -53 -9
l-48 -5 -2 331 c-2 205 1 339 7 350 6 11 24 20 43 23 17 2 35 5 40 5 4 1 8
-35 9 -80z m1648 62 c0 -5 -7 -10 -16 -10 -8 0 -12 5 -9 10 3 6 10 10 16 10 5
0 9 -4 9 -10z m1880 -14 c0 -3 -4 -8 -10 -11 -5 -3 -10 -1 -10 4 0 6 5 11 10
11 6 0 10 -2 10 -4z m-1979 -29 c9 -7 16 -20 16 -29 0 -19 -23 -32 -32 -18 -4
6 -1 10 4 10 17 0 13 21 -6 36 -10 7 -13 13 -8 13 6 0 17 -5 26 -12z m176 -53
c-3 -3 -12 -4 -19 -1 -8 3 -5 6 6 6 11 1 17 -2 13 -5z m2353 -4 c0 -5 -4 -10
-10 -10 -5 0 -10 5 -10 10 0 6 5 10 10 10 6 0 10 -4 10 -10z m-2240 -34 c0 -3
-4 -8 -10 -11 -5 -3 -10 -1 -10 4 0 6 5 11 10 11 6 0 10 -2 10 -4z m1080 -76
c-8 -5 -19 -10 -25 -10 -5 0 -3 5 5 10 8 5 20 10 25 10 6 0 3 -5 -5 -10z
m-2740 -127 c-1 -91 -3 -114 -12 -99 -6 11 -8 41 -5 72 4 38 2 54 -8 57 -24
10 -35 -17 -35 -85 l0 -69 -34 3 -33 2 -7 74 c-3 41 -6 95 -6 119 l0 43 70 0
70 0 0 -117z m1475 107 c4 -6 -5 -10 -19 -10 -14 0 -26 5 -26 10 0 6 9 10 19
10 11 0 23 -4 26 -10z m119 2 c2 -4 -4 -8 -15 -8 -10 0 -19 4 -19 8 0 4 6 8
14 8 8 0 17 -4 20 -8z m-1899 -90 l1 -82 -61 -2 c-102 -3 -208 2 -259 14 -47
10 -48 11 -41 42 4 17 7 40 8 51 2 17 12 21 62 27 33 4 106 8 163 8 84 1 102
4 102 16 0 9 5 14 12 12 8 -3 13 -31 13 -86z m308 -283 c4 -46 7 -198 7 -338
0 -163 4 -258 10 -267 8 -8 8 -14 0 -19 -5 -3 -10 -22 -10 -41 0 -33 -1 -34
-39 -34 -37 0 -39 2 -45 38 -3 20 -6 78 -6 128 0 51 -6 154 -14 230 -7 77 -14
148 -14 159 0 11 -3 64 -6 118 -4 54 -4 102 -2 106 3 4 29 7 58 6 l53 -2 8
-84z m3467 21 c0 -5 -5 -10 -11 -10 -5 0 -7 5 -4 10 3 6 8 10 11 10 2 0 4 -4
4 -10z m-2770 -80 c0 -5 -2 -10 -4 -10 -3 0 -8 5 -11 10 -3 6 -1 10 4 10 6 0
11 -4 11 -10z m760 -100 c0 -5 -4 -10 -10 -10 -5 0 -10 5 -10 10 0 6 5 10 10
10 6 0 10 -4 10 -10z m30 0 c0 -5 -4 -10 -10 -10 -5 0 -10 5 -10 10 0 6 5 10
10 10 6 0 10 -4 10 -10z m45 0 c3 -5 -3 -10 -14 -10 -12 0 -21 5 -21 10 0 6 6
10 14 10 8 0 18 -4 21 -10z m1855 -10 c0 -5 -4 -10 -9 -10 -6 0 -13 5 -16 10
-3 6 1 10 9 10 9 0 16 -4 16 -10z m-3520 -125 l0 -94 -99 -3 c-54 -2 -118 0
-142 4 -24 4 -64 10 -89 14 -55 7 -56 8 -41 38 9 15 11 38 6 65 -5 30 -3 42 7
45 29 10 99 17 212 21 65 2 121 7 124 9 15 16 22 -15 22 -99z m-426 70 c36
-34 34 -69 -8 -111 -29 -29 -39 -34 -63 -28 -39 9 -43 13 -43 34 0 10 -5 22
-11 26 -15 9 -1 75 19 91 28 21 76 15 106 -12z m317 -235 c10 6 19 7 19 3 3
-90 13 -254 21 -348 13 -139 13 -313 0 -329 -5 -6 -5 -20 -1 -31 13 -35 1 -52
-42 -59 -22 -4 -42 -5 -44 -4 -2 2 -5 71 -8 153 -3 83 -8 164 -10 180 -8 52
-19 414 -13 430 5 12 12 13 32 5 18 -7 33 -7 46 0z m1616 -246 c-3 -3 -12 -4
-19 -1 -8 3 -5 6 6 6 11 1 17 -2 13 -5z m-1388 -152 c0 -71 -4 -109 -9 -97 -4
11 -5 33 -2 49 4 24 2 27 -14 24 -17 -3 -19 -12 -17 -65 l3 -62 -53 6 c-28 3
-53 6 -54 7 -1 1 -4 37 -7 82 -3 44 -8 99 -12 122 -6 39 -5 42 17 42 13 0 49
4 79 8 30 4 58 6 63 4 4 -2 7 -56 6 -120z m-327 49 c4 -3 8 -35 9 -70 2 -56 0
-65 -17 -72 -29 -12 -222 -9 -284 4 -54 12 -55 12 -62 56 -9 52 3 72 41 69 14
0 51 4 81 10 30 7 66 14 80 15 33 5 143 -4 152 -12z m451 -384 c7 -190 10
-391 8 -497 -1 -54 -2 -55 -30 -55 -49 0 -46 -9 -55 199 -3 76 -8 141 -10 145
-2 3 -7 80 -11 171 -4 91 -9 168 -11 172 -3 4 -2 18 2 32 6 27 22 33 70 28
l31 -4 6 -191z m1657 -9 c0 -5 -7 -8 -15 -8 -17 0 -18 2 -9 25 5 13 8 14 15 3
5 -7 9 -16 9 -20z m-1500 -58 l78 0 1 -115 c0 -66 -4 -115 -10 -115 -10 0 -12
9 -13 55 -1 23 -6 30 -21 30 -17 0 -20 -7 -20 -50 0 -48 -1 -50 -29 -50 -15
-1 -38 4 -50 10 -12 6 -27 10 -33 8 -12 -4 -30 208 -18 227 4 6 14 9 22 6 8
-3 50 -6 93 -6z m-800 -37 c44 -56 2 -153 -66 -153 -69 0 -103 116 -46 159 40
30 86 27 112 -6z m516 -8 c3 -17 4 -51 1 -75 -4 -43 -5 -45 -43 -52 -54 -10
-287 -7 -337 5 -73 17 -87 25 -85 49 0 13 -2 35 -6 49 l-7 26 83 8 c46 4 124
6 173 6 50 -1 100 1 112 6 12 4 40 8 62 8 38 0 41 -2 47 -30z m-11 -165 c-3
-5 -13 -10 -21 -10 -8 0 -12 5 -9 10 3 6 13 10 21 10 8 0 12 -4 9 -10z m-123
-160 c4 -302 1 -479 -9 -552 -5 -32 -9 -36 -39 -40 -51 -6 -63 26 -59 150 1
53 -1 167 -6 252 -11 189 -11 264 1 293 5 12 9 16 9 10 1 -7 6 -13 12 -13 5 0
8 4 5 9 -8 13 12 20 52 18 l32 -1 2 -126z m3108 40 c0 -5 -5 -10 -11 -10 -5 0
-7 5 -4 10 3 6 8 10 11 10 2 0 4 -4 4 -10z m-830 -34 c0 -3 -4 -8 -10 -11 -5
-3 -10 -1 -10 4 0 6 5 11 10 11 6 0 10 -2 10 -4z m-440 -26 c0 -5 -5 -10 -11
-10 -5 0 -7 5 -4 10 3 6 8 10 11 10 2 0 4 -4 4 -10z m-1694 -43 c3 -3 6 -20 7
-38 1 -19 6 -39 9 -45 9 -14 10 -81 2 -121 -5 -28 -11 -33 -35 -33 -16 0 -38
-6 -49 -12 -29 -18 -42 1 -45 64 -4 72 -8 181 -6 194 1 10 106 2 117 -9z
m-286 -123 c0 -75 -3 -94 -15 -94 -7 0 -18 6 -22 14 -6 10 -26 12 -83 7 -78
-6 -223 3 -260 17 -18 7 -22 17 -24 60 l-3 52 36 9 c20 5 43 9 51 10 8 1 73 4
145 9 72 4 140 8 153 8 21 2 22 -1 22 -92z m335 -153 c19 -1 20 -8 21 -199 1
-108 4 -282 7 -385 4 -162 2 -187 -10 -183 -8 3 -29 6 -47 6 l-33 0 -1 93 c-1
50 -4 137 -7 192 -11 210 -15 418 -10 448 6 28 10 32 33 31 15 -1 36 -3 47 -3z
m-565 -95 c0 -3 -4 -8 -10 -11 -5 -3 -10 -1 -10 4 0 6 5 11 10 11 6 0 10 -2
10 -4z m3940 -145 c0 -17 -34 -22 -49 -6 -14 13 -12 15 17 15 18 0 32 -4 32
-9z m-3056 -20 c4 -5 1 -13 -4 -16 -7 -4 -11 -38 -10 -83 2 -114 1 -124 -11
-117 -6 4 -8 13 -5 20 3 8 -1 18 -8 24 -17 14 -39 -9 -34 -36 2 -14 -5 -19
-36 -21 -24 -2 -42 2 -47 10 -6 8 -9 9 -9 2 0 -7 -14 -14 -30 -16 -47 -7 -61
17 -70 124 -4 51 -6 95 -5 96 4 5 132 17 207 20 31 2 59 -2 62 -7z m-419 -111
l-1 -75 -54 -6 c-74 -8 -253 0 -365 16 -11 2 -23 4 -26 4 -3 1 -6 26 -7 56 -2
61 -7 56 88 74 25 5 117 8 205 8 l160 -2 0 -75z m-493 46 c14 -21 8 -63 -13
-90 -25 -31 -63 -34 -98 -7 -23 17 -24 23 -15 57 6 25 18 43 33 51 27 13 82 6
93 -11z m3166 -91 c39 -20 74 -40 78 -46 14 -23 -8 -20 -58 8 -29 17 -70 33
-90 37 -38 7 -49 20 -25 29 20 9 20 8 95 -28z m-1373 11 c187 -3 499 -5 694
-5 l354 -1 -59 -31 -59 -32 -886 -3 -887 -4 -4 41 c-2 22 -2 41 0 43 1 2 116
2 255 0 139 -2 405 -6 592 -8z m1220 -10 c0 -15 14 -23 64 -37 88 -25 88 -31
-1 -23 -42 4 -84 4 -94 0 -16 -6 -16 -8 1 -26 18 -20 17 -20 -12 -20 -16 0
-58 -11 -93 -25 -35 -14 -65 -23 -67 -21 -2 2 -1 11 3 20 8 22 52 44 103 52
44 7 59 20 43 36 -6 6 -29 4 -66 -6 -72 -18 -61 3 15 30 28 10 55 24 61 32 16
18 43 11 43 -12z m-2575 -103 c12 -11 8 -131 -10 -269 -14 -107 -17 -160 -10
-185 10 -37 9 -389 -1 -389 -4 0 -9 7 -13 15 -4 10 -20 15 -51 15 l-45 0 -1
113 c-1 61 -1 235 -1 385 0 248 2 275 18 286 12 9 14 15 6 20 -28 17 -9 26 46
20 31 -4 59 -9 62 -11z m2340 -8 c0 -19 -9 -31 -31 -43 -17 -9 -40 -25 -51
-34 -24 -21 -62 -24 -56 -5 3 6 18 17 35 22 37 12 70 40 78 66 9 28 25 23 25
-6z m255 15 c-3 -5 -12 -10 -18 -10 -7 0 -6 4 3 10 19 12 23 12 15 0z m118
-20 c50 -24 83 -48 76 -55 -3 -3 -31 4 -62 15 -65 23 -97 25 -97 7 0 -20 22
-37 48 -37 34 0 130 -29 138 -42 7 -11 -43 -7 -78 7 -12 5 -25 -2 -42 -20 -17
-18 -26 -22 -32 -14 -4 7 3 19 16 29 25 19 13 37 -17 26 -8 -4 -22 -1 -29 5
-11 9 -34 5 -96 -14 -94 -29 -168 -43 -153 -28 14 14 130 51 159 51 31 0 56 9
56 21 0 19 -88 7 -185 -25 -11 -3 5 6 35 21 37 18 73 27 113 29 66 2 75 7 57
29 -11 13 -8 15 19 15 17 0 50 -9 74 -20z m101 -1 c15 -12 25 -24 22 -26 -3
-3 -19 6 -36 21 -37 31 -25 35 14 5z m46 -49 c0 -5 -2 -10 -4 -10 -3 0 -8 5
-11 10 -3 6 -1 10 4 10 6 0 11 -4 11 -10z m-510 -33 c-1 -20 -131 -77 -177
-77 -51 0 -61 12 -27 35 24 16 27 16 45 -1 18 -16 21 -16 63 0 24 9 52 28 61
42 16 24 35 25 35 1z m514 -84 c-10 -7 -26 -11 -36 -7 -9 3 -27 0 -38 -6 -15
-8 -25 -8 -34 -1 -6 6 -23 7 -37 4 -22 -6 -23 -5 -9 11 11 15 23 17 60 12 25
-3 54 -7 65 -8 14 -2 20 2 19 15 -2 15 1 16 13 5 13 -10 13 -14 -3 -25z m-526
5 c-4 -12 -58 -31 -66 -24 -4 4 47 33 61 35 5 1 7 -4 5 -11z m1157 -8 c-3 -5
-11 -10 -16 -10 -6 0 -7 5 -4 10 3 6 11 10 16 10 6 0 7 -4 4 -10z m-1035 -24
c0 -2 -7 -6 -15 -10 -8 -3 -15 -1 -15 4 0 6 7 10 15 10 8 0 15 -2 15 -4z m156
-71 c-21 -36 -24 -48 -16 -70 9 -23 13 -25 47 -19 68 11 137 36 170 60 17 13
36 24 42 24 5 0 26 17 45 37 43 45 55 39 25 -13 -30 -56 -45 -70 -103 -100
-28 -14 -57 -32 -65 -40 -23 -21 -3 -30 27 -12 15 9 47 27 70 39 24 13 58 42
75 64 47 61 49 63 41 30 -11 -47 -61 -113 -102 -135 -51 -26 -99 -67 -90 -76
4 -4 13 -2 20 4 28 22 88 51 88 42 0 -18 -72 -79 -101 -85 -43 -10 -35 -25 9
-18 l37 6 -41 -30 c-22 -17 -49 -33 -60 -37 -54 -18 -96 -89 -113 -189 -7 -38
-14 -153 -16 -257 -2 -105 -6 -193 -9 -198 -3 -5 -8 -24 -10 -43 -12 -75 -42
-144 -82 -188 l-41 -45 -30 24 c-39 31 -40 37 -36 195 2 72 3 144 3 160 -1 17
-2 44 -1 60 0 17 0 72 0 124 1 96 9 128 76 276 38 85 46 129 39 212 -6 72 -4
82 20 125 15 25 33 52 41 58 8 7 15 19 15 28 0 9 10 27 23 40 33 36 35 3 3
-53z m-232 46 c9 -8 16 -26 16 -42 0 -33 19 -39 27 -9 4 16 9 18 19 9 18 -15
34 -3 34 26 0 28 16 35 52 21 35 -13 35 -23 -2 -77 -41 -61 -53 -110 -45 -190
8 -79 -2 -92 -46 -55 -37 31 -50 32 -74 6 -10 -11 -23 -20 -28 -20 -6 0 -21
-10 -35 -22 -23 -23 -24 -23 -38 -3 -8 11 -18 31 -21 45 -11 44 -103 189 -133
212 -17 12 -30 27 -30 34 0 16 62 54 88 54 11 0 24 5 27 10 4 6 15 8 25 5 10
-3 21 -2 23 2 8 13 124 8 141 -6z m479 9 c22 -1 -48 -27 -91 -34 -44 -7 -87 7
-77 25 4 5 13 3 22 -6 16 -16 37 -14 83 11 14 7 31 11 38 9 8 -3 19 -5 25 -5z
m-1168 -11 c11 -17 -1 -21 -15 -4 -8 9 -8 15 -2 15 6 0 14 -5 17 -11z m361
-93 c28 -23 62 -57 75 -76 13 -19 26 -37 29 -40 12 -10 51 -112 48 -122 -2 -6
-15 10 -28 36 -15 28 -32 46 -42 46 -10 0 -18 -4 -18 -10 0 -5 -11 -10 -25
-10 -38 0 -101 -28 -89 -40 7 -7 21 -5 42 5 47 24 96 11 121 -31 20 -34 40
-45 42 -21 0 6 5 1 10 -12 11 -28 5 -38 -14 -23 -29 24 -37 -18 -9 -46 20 -21
42 -66 42 -90 0 -9 12 -26 28 -38 l27 -22 -20 -59 c-16 -47 -18 -67 -11 -105
7 -37 4 -74 -17 -180 -30 -152 -36 -358 -10 -358 12 0 18 19 14 49 -2 7 4 30
13 51 9 22 17 86 20 157 3 65 12 146 21 179 8 33 14 83 13 112 -3 57 13 85 34
64 9 -9 12 -113 11 -420 -1 -224 -2 -413 -2 -419 -1 -7 -13 -13 -27 -13 -14 0
-37 -9 -51 -19 -32 -26 -51 -17 -59 25 -11 60 -54 72 -54 14 0 -16 -4 -32 -10
-35 -12 -7 -21 30 -18 70 2 21 -1 29 -11 27 -32 -7 -41 19 -41 113 0 95 26
240 66 374 6 22 5 23 -18 19 l-26 -5 17 40 c23 53 39 58 43 12 4 -47 22 -45
26 3 4 49 -17 70 -56 56 -15 -5 -29 -20 -33 -34 -28 -103 -40 -157 -60 -285
-15 -103 -24 -120 -39 -78 -7 18 -20 35 -31 38 -11 4 -26 20 -34 36 -14 26
-14 36 1 96 9 38 23 88 31 113 24 73 26 90 14 90 -18 0 -49 -59 -62 -116 -11
-50 -12 -51 -46 -49 -55 4 -59 15 -34 90 20 64 21 92 0 79 -5 -3 -15 -20 -23
-37 l-13 -32 -16 30 c-14 28 -14 38 3 121 18 92 43 153 77 189 10 11 29 35 42
53 13 19 34 45 47 59 23 25 33 63 17 63 -12 0 -63 -65 -126 -158 -58 -85 -90
-169 -102 -267 -6 -43 -3 -55 19 -88 18 -26 24 -46 20 -62 -4 -17 2 -31 24
-55 17 -17 36 -30 44 -29 32 4 39 -2 36 -34 -1 -17 3 -40 9 -50 6 -11 8 -59 5
-117 -3 -62 -1 -100 6 -104 7 -4 7 -17 2 -36 -11 -38 15 -317 31 -336 7 -8 17
-13 23 -11 6 3 19 0 28 -4 24 -13 32 7 18 42 -7 16 -9 33 -5 37 4 4 10 1 12
-6 3 -7 14 -21 24 -31 18 -17 17 -19 -46 -70 -36 -29 -74 -65 -85 -79 -11 -14
-22 -23 -24 -21 -11 14 -38 116 -47 179 -9 64 -12 283 -6 400 1 25 -3 35 -14
38 -14 3 -17 -8 -18 -75 -2 -99 -7 -153 -16 -161 -9 -9 5 337 16 364 8 23 3
34 -16 34 -17 0 -25 -47 -30 -185 -3 -66 -7 -159 -10 -207 -9 -137 34 -353 69
-353 13 0 46 -44 46 -61 0 -2 -13 -18 -28 -36 -27 -31 -69 -106 -106 -191
l-17 -37 -22 27 c-24 30 -38 67 -57 151 -7 28 -16 55 -21 58 -18 11 -27 -7
-19 -39 5 -17 14 -57 21 -87 13 -60 54 -130 75 -130 18 0 18 1 -10 -67 -13
-32 -27 -66 -30 -76 -10 -30 -80 36 -116 110 -61 123 -77 188 -79 316 -1 65 3
145 9 178 6 33 11 120 12 192 0 73 4 139 9 148 12 23 -10 42 -29 26 -13 -10
-14 -8 -10 18 6 30 48 189 67 253 5 18 10 34 11 37 0 3 2 10 5 17 7 22 53 241
60 288 4 25 14 60 21 79 8 19 11 38 6 43 -16 16 -43 -29 -57 -98 -16 -78 -77
-331 -99 -414 -75 -273 -82 -307 -96 -450 -28 -294 -21 -493 22 -608 29 -77
86 -155 109 -149 11 3 16 0 12 -8 -2 -8 5 -18 16 -25 34 -18 24 -30 -24 -30
-32 0 -47 5 -52 15 -3 9 -18 29 -34 45 -18 18 -29 39 -29 56 0 15 -5 53 -12
85 -10 48 -16 59 -45 74 -42 23 -84 103 -87 163 -1 24 -9 47 -16 52 -11 7 -8
29 18 122 17 62 38 156 47 208 8 52 26 133 39 180 14 47 32 121 41 165 16 79
35 148 101 355 84 267 124 381 147 416 13 22 32 64 42 94 10 30 31 76 47 103
15 26 28 52 28 57 0 6 20 31 45 57 54 58 45 83 -12 37 -29 -23 -56 -66 -110
-175 -39 -79 -85 -157 -102 -174 -38 -38 -56 -82 -40 -101 12 -15 4 -34 -15
-34 -30 0 -159 -340 -141 -370 12 -20 22 -9 34 43 8 28 21 72 31 97 10 25 28
74 41 109 12 36 24 60 26 54 2 -6 -14 -64 -36 -129 -38 -111 -54 -165 -86
-289 -7 -27 -14 -40 -14 -27 -2 43 -19 21 -36 -45 -10 -38 -24 -87 -31 -111
-8 -23 -14 -52 -14 -63 0 -11 -13 -61 -30 -111 -16 -50 -30 -102 -30 -115 0
-13 -12 -75 -26 -136 -37 -157 -43 -194 -30 -207 8 -8 6 -14 -7 -21 -32 -18
-48 -79 -54 -199 -5 -97 -3 -121 11 -148 26 -51 50 -34 32 23 -3 11 3 0 15
-25 12 -25 37 -62 57 -82 34 -36 35 -38 13 -38 -34 0 -78 30 -108 72 -14 21
-29 38 -34 38 -4 0 -15 20 -24 45 -20 50 -15 134 10 209 8 23 21 95 29 161 8
66 27 153 41 194 14 41 25 84 25 97 0 25 39 157 49 164 4 3 12 32 19 65 7 33
14 65 15 70 2 6 6 16 11 23 4 7 9 32 11 55 2 24 13 71 24 105 12 34 21 69 21
79 0 10 16 83 36 163 29 121 48 171 111 300 42 85 90 184 107 220 64 137 162
260 206 260 11 0 21 4 25 9 3 6 23 9 44 9 31 0 40 -5 45 -20 3 -14 10 -19 21
-14 9 3 23 6 31 6 24 0 15 29 -11 36 -44 11 -27 24 23 17 35 -4 60 -17 98 -47z
m674 25 l35 -7 -48 -13 c-52 -15 -75 -6 -63 24 4 12 12 15 24 10 9 -4 33 -11
52 -14z m-2600 -1 c0 -5 9 -10 20 -10 16 0 20 -7 20 -30 0 -19 5 -30 14 -30 7
0 16 14 20 30 4 24 11 30 32 30 21 0 25 -3 19 -17 -4 -10 -10 -57 -12 -106 -6
-92 -12 -103 -22 -40 -4 24 -12 39 -23 41 -19 4 -27 -22 -17 -59 4 -15 4 -31
0 -36 -3 -5 -38 -10 -77 -11 l-71 -2 -8 73 c-13 118 -11 148 10 163 22 16 95
19 95 4z m900 -24 c267 -3 524 -9 573 -12 l87 -7 -34 -34 -35 -35 -598 2
c-713 3 -733 3 -733 13 0 4 0 22 0 41 0 34 1 35 43 38 23 2 80 2 127 1 47 0
303 -4 570 -7z m-735 -116 c4 -6 13 -7 24 -1 10 6 62 8 117 6 98 -5 790 -14
1037 -15 l127 0 -22 -35 -23 -34 -639 2 -638 2 -3 43 c-3 40 6 54 20 32z
m2495 -197 c-34 -38 -68 -81 -77 -98 -17 -31 -18 -40 -28 -144 -3 -35 -8 -67
-10 -71 -4 -6 -5 -163 -3 -270 1 -34 -10 -127 -21 -172 -11 -47 -47 -97 -79
-109 -36 -14 -37 -6 -8 38 14 20 26 45 26 53 0 9 5 21 11 27 25 25 40 158 40
338 -1 269 22 349 119 415 32 22 62 44 65 50 3 5 11 10 16 10 6 0 -17 -30 -51
-67z m-2600 0 c0 -16 -5 -119 -11 -231 -9 -153 -9 -216 -1 -255 17 -77 27
-257 15 -257 -6 0 -13 -10 -16 -21 -4 -15 -11 -20 -22 -15 -9 3 -29 6 -45 6
l-29 0 0 73 c-4 275 -3 393 0 549 l4 178 53 0 c50 0 52 -1 52 -27z m2100 -69
c0 -2 -7 -4 -15 -4 -8 0 -15 4 -15 10 0 5 7 7 15 4 8 -4 15 -8 15 -10z m-1635
-23 c3 -5 1 -12 -5 -16 -5 -3 -10 1 -10 9 0 18 6 21 15 7z m-235 -164 c19 -1
40 -6 47 -10 7 -4 148 -10 315 -13 299 -5 543 -11 564 -13 8 -1 8 -11 0 -36
l-11 -35 -417 0 -418 1 0 29 c0 31 -16 48 -31 33 -12 -12 -12 -29 -5 -96 4
-38 1 -53 -13 -68 -16 -17 -19 -18 -31 -4 -7 8 -10 26 -8 39 6 32 -6 51 -27
42 -14 -5 -16 -15 -12 -46 6 -46 3 -48 -88 -51 l-60 -3 -7 80 c-6 74 -2 138
10 158 2 4 39 5 81 2 42 -4 92 -8 111 -9z m-835 -38 c28 -25 33 -34 24 -45
-14 -17 -5 -44 16 -44 10 0 15 10 15 30 0 20 7 34 23 44 29 19 148 37 277 42
l105 4 -2 -86 c-1 -47 -5 -89 -8 -93 -4 -3 -68 -6 -143 -5 -140 0 -232 15
-253 40 -16 20 -47 17 -54 -4 -5 -18 -44 -42 -66 -42 -21 0 -80 33 -89 50 -9
16 7 90 22 105 7 7 77 34 90 35 4 0 23 -14 43 -31z m1350 -99 l393 0 -7 -27
-7 -28 -407 -3 -407 -3 2 28 c2 38 7 45 25 39 8 -3 192 -6 408 -6z m2585 -120
c0 -5 -5 -10 -11 -10 -5 0 -7 5 -4 10 3 6 8 10 11 10 2 0 4 -4 4 -10z m-3210
-99 c0 -9 -24 -21 -41 -21 -5 0 -9 5 -9 11 0 5 4 8 9 4 5 -3 12 -1 16 5 8 12
25 13 25 1z m0 -41 c0 -5 -2 -10 -4 -10 -3 0 -8 5 -11 10 -3 6 -1 10 4 10 6 0
11 -4 11 -10z m905 -21 c-4 -5 -12 -9 -18 -8 -9 0 -8 2 1 6 6 2 9 10 6 15 -4
7 -2 8 5 4 6 -4 9 -12 6 -17z m-5 -63 c0 -3 -4 -8 -10 -11 -5 -3 -10 -1 -10 4
0 6 5 11 10 11 6 0 10 -2 10 -4z m-215 -46 c3 -5 2 -10 -4 -10 -5 0 -13 5 -16
10 -3 6 -2 10 4 10 5 0 13 -4 16 -10z m352 -32 c-3 -8 -6 -5 -6 6 -1 11 2 17
5 13 3 -3 4 -12 1 -19z m623 -17 c7 -13 7 -22 0 -26 -5 -3 -10 -20 -10 -37 0
-45 -6 -32 -14 30 -7 54 4 69 24 33z m-645 -78 c-9 -37 -18 -20 -9 19 4 18 9
27 11 20 3 -7 2 -24 -2 -39z m702 -73 c3 -14 11 -28 17 -32 8 -5 7 -11 -2 -20
-6 -6 -13 -30 -13 -52 -1 -23 -4 -54 -8 -71 -8 -36 -21 101 -20 205 1 68 3 65
26 -30z m-1247 66 c0 -3 -4 -8 -10 -11 -5 -3 -10 -1 -10 4 0 6 5 11 10 11 6 0
10 -2 10 -4z m1190 -155 c0 -63 -2 -112 -4 -110 -2 2 -7 60 -9 128 -3 75 -2
119 4 110 5 -8 9 -65 9 -128z m-663 97 c-3 -8 -6 -5 -6 6 -1 11 2 17 5 13 3
-3 4 -12 1 -19z m-127 -2 c0 -3 -4 -8 -10 -11 -5 -3 -10 -1 -10 4 0 6 5 11 10
11 6 0 10 -2 10 -4z m265 -145 c-4 -36 -7 -85 -6 -108 1 -23 -2 -44 -7 -47 -5
-3 -8 -83 -7 -178 1 -133 6 -187 19 -233 20 -66 62 -161 81 -185 7 -8 15 -27
17 -43 5 -24 3 -26 -11 -15 -100 75 -132 198 -132 510 0 70 4 162 10 205 6 43
13 105 17 138 5 47 8 55 16 41 7 -12 8 -44 3 -85z m-169 24 c-10 -26 -15 -33
-15 -19 -1 28 22 93 26 74 2 -9 -3 -33 -11 -55z m538 -205 l5 -65 -14 75 c-7
41 -13 100 -13 130 l1 55 7 -65 c5 -36 11 -94 14 -130z m763 108 c-3 -7 -5 -2
-5 12 0 14 2 19 5 13 2 -7 2 -19 0 -25z m-1337 -88 c-11 -41 -17 -57 -14 -35
9 66 28 141 31 125 2 -8 -6 -49 -17 -90z m739 30 c0 -9 -4 -8 -9 5 -5 11 -9
27 -9 35 0 9 4 8 9 -5 5 -11 9 -27 9 -35z m1546 32 c-3 -3 -11 0 -18 7 -9 10
-8 11 6 5 10 -3 15 -9 12 -12z m-1508 -24 c-3 -8 -6 -5 -6 6 -1 11 2 17 5 13
3 -3 4 -12 1 -19z m542 -47 c32 -9 37 -27 10 -34 -12 -3 -43 4 -73 18 l-51 24
45 0 c25 -1 56 -4 69 -8z m-184 -26 c60 -6 145 -34 145 -47 0 -4 -24 -19 -54
-33 -30 -14 -87 -56 -125 -93 -39 -37 -71 -64 -71 -59 0 14 -67 37 -106 37
-22 0 -41 6 -49 16 -9 13 -16 14 -33 5 -19 -10 -22 -8 -28 16 -10 41 -24 56
-40 42 -15 -12 -9 -59 10 -71 6 -4 -3 -8 -20 -8 -17 0 -45 -3 -62 -6 -29 -6
-28 -4 27 54 39 42 58 56 63 47 5 -7 23 -13 42 -13 44 0 58 -9 51 -31 -6 -21
19 -46 35 -36 7 4 10 16 7 26 -4 14 0 18 17 16 15 -1 21 4 21 18 0 15 -8 20
-38 22 -21 1 -45 7 -52 13 -8 7 -18 9 -24 6 -13 -8 -42 4 -35 15 19 31 194 84
244 73 8 -2 42 -6 75 -9z m-1575 -9 c0 -11 -19 -15 -25 -6 -3 5 1 10 9 10 9 0
16 -2 16 -4z m2003 -6 c37 0 32 -10 -25 -54 l-48 -36 0 29 c0 16 -7 34 -15 41
-26 22 -17 33 23 26 20 -3 50 -6 65 -6z m192 -34 c-3 -11 -8 -33 -11 -48 -5
-21 -3 -28 8 -28 18 0 38 41 38 75 0 24 3 25 62 25 l62 0 -26 -27 c-14 -16
-38 -48 -53 -72 -15 -25 -36 -53 -46 -64 -10 -12 -21 -28 -24 -37 -6 -18 -80
-26 -90 -9 -4 5 5 9 19 9 14 0 31 9 39 20 14 20 12 70 -3 70 -4 0 -7 8 -6 17
0 11 -6 18 -18 18 -23 0 -47 35 -29 42 7 2 10 10 7 18 -4 9 4 15 23 17 41 5
54 -1 48 -26z m-99 7 c0 -10 -8 -23 -16 -30 -12 -9 -13 -14 -2 -24 6 -7 12
-21 12 -30 0 -22 29 -33 36 -14 9 22 21 18 27 -7 10 -38 -20 -61 -70 -53 -48
7 -60 -9 -18 -25 28 -11 35 -24 8 -16 -10 3 -51 6 -91 8 -40 1 -75 5 -78 9 -7
12 84 125 132 162 53 42 62 45 60 20z m-261 -12 c0 -8 -4 -16 -10 -18 -16 -5
-38 14 -30 26 9 16 40 9 40 -8z m818 12 c69 -6 78 -14 52 -43 -9 -10 -31 -53
-49 -96 -33 -78 -33 -79 -72 -82 -21 -1 -104 1 -184 5 -118 7 -145 11 -148 23
-1 9 25 53 58 98 33 46 58 87 55 93 -7 10 183 12 288 2z m237 -34 c30 -5 86
-13 123 -18 38 -5 71 -11 74 -14 3 -4 -3 -28 -13 -56 l-18 -50 -27 20 c-31 21
-63 25 -56 7 2 -7 14 -13 26 -12 14 0 21 -5 21 -18 0 -10 5 -18 11 -18 8 0 8
-4 0 -13 -6 -8 -12 -24 -14 -38 -2 -13 -7 -23 -10 -21 -4 1 -19 2 -33 2 -21 0
-24 4 -19 20 5 17 2 20 -20 20 -22 0 -25 -3 -20 -20 5 -16 2 -20 -14 -20 -13
0 -19 5 -15 14 3 8 1 17 -5 21 -16 10 -51 -4 -51 -21 0 -8 -7 -14 -15 -14 -8
0 -15 9 -15 19 0 21 -17 31 -37 23 -7 -2 -13 -10 -13 -18 0 -10 -12 -14 -38
-14 -21 0 -41 3 -45 6 -6 7 20 87 52 157 15 32 28 47 41 47 10 0 22 5 25 10 7
12 31 12 105 -1z m-1186 -70 c-18 -21 -18 -21 1 -35 25 -18 65 -18 65 0 0 8
-5 16 -12 18 -15 5 -1 28 17 28 15 0 29 -45 19 -62 -4 -7 -35 -8 -93 -2 -47 4
-94 7 -103 8 -27 1 -22 10 19 42 62 49 76 55 92 39 13 -13 12 -17 -5 -36z
m164 35 c-11 -11 -23 -14 -35 -9 -16 7 -15 9 7 15 40 12 45 11 28 -6z m46 -29
c-16 -25 -34 -33 -34 -16 0 7 37 38 48 40 1 1 -5 -10 -14 -24z m-52 -60 c0 -5
-5 -11 -11 -13 -6 -2 -11 4 -11 13 0 9 5 15 11 13 6 -2 11 -8 11 -13z m-192
-30 c30 -4 79 -6 108 -6 37 1 54 -3 58 -13 7 -18 -17 -64 -49 -94 -14 -13 -38
-44 -53 -68 -21 -33 -31 -41 -40 -33 -16 13 -34 4 -34 -17 0 -8 10 -14 22 -14
16 0 19 -3 11 -11 -8 -8 -32 -8 -86 1 -42 6 -91 8 -111 5 -32 -6 -34 -5 -29
14 4 16 1 21 -16 21 -24 0 -27 -10 -9 -28 9 -9 5 -12 -18 -12 -17 0 -33 3 -37
6 -8 8 15 53 59 116 19 26 32 48 28 48 -6 0 31 56 58 86 16 18 25 21 51 14 18
-5 57 -12 87 -15z m-510 -3 c0 -4 -23 -21 -51 -37 -29 -17 -56 -37 -62 -46
-16 -25 0 -68 31 -81 15 -6 41 -17 58 -26 22 -11 36 -12 50 -4 14 7 24 7 36
-2 10 -7 15 -16 11 -19 -13 -13 -128 -7 -147 8 -34 26 -81 19 -110 -16 -44
-52 -30 -69 32 -39 45 22 67 26 57 10 -4 -6 -1 -17 5 -25 10 -12 8 -15 -11
-15 -13 0 -49 -7 -79 -15 -30 -8 -55 -13 -56 -12 -7 7 34 105 80 192 42 77 59
101 77 103 13 2 32 10 43 18 23 16 36 18 36 6z m280 -17 c20 -18 17 -38 -10
-70 -10 -11 -25 -33 -33 -50 -13 -25 -17 -27 -22 -12 -4 9 -14 17 -21 17 -12
0 -12 4 -4 20 19 36 8 81 -25 102 l-30 20 63 -5 c40 -3 71 -12 82 -22z m-154
-20 c3 -13 4 -32 2 -42 -4 -22 -48 -31 -48 -9 0 21 -48 56 -68 49 -13 -5 -14
-3 -6 6 6 7 27 15 45 18 19 3 36 6 37 8 10 9 33 -10 38 -30z m-876 4 c0 -11
11 -45 25 -75 14 -30 25 -57 25 -61 0 -4 23 -32 50 -64 51 -59 58 -77 39 -96
-9 -9 -4 -24 20 -61 17 -27 31 -52 31 -55 0 -13 -71 -7 -98 7 -39 20 -123 112
-117 128 3 8 -6 25 -20 38 -29 27 -33 74 -15 176 15 80 16 84 40 84 14 0 20
-7 20 -21z m1768 -14 c4 -3 1 -14 -5 -23 -35 -50 -92 -154 -103 -186 -9 -29
-16 -36 -33 -34 -12 2 -22 9 -22 16 0 7 -6 16 -13 21 -11 7 -10 11 3 25 9 9
23 16 30 16 8 0 22 11 30 24 15 22 14 27 -13 77 -29 54 -29 54 -74 53 -50 -2
-131 -43 -148 -74 -25 -46 2 -100 52 -105 13 -1 27 -3 33 -4 5 0 4 -6 -3 -13
-9 -9 -6 -15 16 -24 26 -12 25 -12 -23 -14 -27 -1 -63 -4 -78 -6 -19 -2 -27 1
-24 9 2 7 19 11 41 9 27 -2 36 1 36 13 0 13 -18 20 -43 16 -4 -1 -12 11 -17
25 -11 27 -35 28 -35 2 0 -9 -9 -26 -20 -38 -11 -12 -20 -25 -20 -29 1 -5 -26
-3 -33 3 -5 6 65 110 110 163 26 31 50 65 54 76 6 19 12 20 151 14 80 -3 148
-9 151 -12z m271 -9 c77 -4 117 -9 123 -18 14 -20 2 -87 -26 -151 -15 -32 -26
-66 -26 -77 0 -29 -65 -28 -80 0 -13 24 -38 26 -46 5 -4 -8 -10 -15 -14 -15
-10 0 -8 20 3 38 9 13 1 32 -13 32 -5 0 -17 -16 -26 -35 -9 -19 -20 -35 -24
-35 -12 0 -19 37 -8 48 11 11 -17 36 -32 27 -6 -4 -8 -15 -5 -25 3 -10 1 -21
-5 -25 -6 -3 -8 -11 -5 -16 4 -5 -3 -9 -13 -9 -15 0 -19 5 -15 19 6 22 -25 37
-41 21 -8 -8 -6 -15 8 -26 11 -7 18 -16 15 -18 -9 -9 -124 20 -122 31 3 17 52
115 73 148 11 17 27 44 37 62 16 32 18 32 72 28 31 -3 107 -7 170 -9z m-1319
-40 c5 -13 15 -26 22 -29 7 -2 1 -8 -14 -12 -16 -4 -34 -5 -42 -2 -14 5 -27
52 -18 62 14 13 43 3 52 -19z m65 14 c-3 -5 -10 -10 -16 -10 -5 0 -9 5 -9 10
0 6 7 10 16 10 8 0 12 -4 9 -10z m1623 -16 c104 -2 168 -7 177 -14 15 -12 10
-35 -12 -61 -7 -9 -18 -43 -23 -75 -6 -33 -16 -77 -24 -99 l-14 -40 -85 0
c-87 0 -109 7 -90 26 8 8 20 7 44 -5 53 -26 65 -17 29 22 -11 12 -20 23 -20
24 0 2 18 2 40 0 27 -3 40 -9 40 -19 0 -26 35 -10 36 17 1 14 8 39 17 55 24
43 22 82 -4 90 -27 9 -39 -4 -16 -16 9 -6 17 -16 17 -24 0 -17 -48 -75 -63
-75 -6 0 0 11 12 24 19 20 22 31 16 58 -10 49 -31 75 -65 83 -58 13 -160 -58
-160 -111 0 -29 30 -54 65 -54 31 0 52 -20 38 -34 -17 -16 -56 -3 -88 30 -34
34 -35 38 -29 90 6 45 4 54 -9 54 -19 0 -27 -21 -27 -77 0 -32 -5 -50 -17 -59
-24 -17 -7 -46 35 -59 41 -12 35 -31 -8 -27 -76 6 -86 36 -46 143 13 35 27 83
31 107 6 35 10 42 23 36 10 -4 90 -9 180 -10z m-863 -14 c0 -8 -8 -16 -17 -18
-13 -2 -18 3 -18 18 0 15 5 20 18 18 9 -2 17 -10 17 -18z m-668 -25 c-31 -27
-56 -32 -75 -13 -20 20 -14 28 17 22 16 -3 37 -1 48 5 33 19 39 11 10 -14z
m-2157 -7 c0 -4 -13 -8 -30 -8 -16 0 -30 4 -30 8 0 5 14 9 30 9 17 0 30 -4 30
-9z m896 2 l192 0 3 -83 c4 -79 6 -87 46 -148 l43 -64 -61 -3 c-72 -4 -77 -24
-8 -33 35 -5 27 -6 -38 -7 -46 -1 -83 -6 -83 -11 0 -15 23 -19 140 -21 63 -1
129 -3 145 -4 17 -2 44 -4 60 -5 23 -1 27 -3 15 -11 -9 -6 -94 -10 -200 -10
-102 0 -255 -1 -340 -4 -85 -2 -145 -2 -132 1 13 2 21 10 19 16 -2 8 -42 13
-120 14 -98 2 -117 0 -117 -12 0 -15 34 -19 145 -16 36 1 46 -1 35 -9 -9 -6
-140 -8 -355 -6 -187 2 -364 0 -394 -4 -30 -4 -68 -3 -85 1 l-31 7 35 2 c19 2
42 4 50 5 8 1 25 3 38 4 41 2 22 21 -20 20 -24 -1 -67 -1 -96 -1 l-53 2 21 28
c11 15 22 38 25 52 3 14 7 36 10 49 2 13 9 29 15 35 5 5 10 20 10 32 0 37 37
74 75 74 25 0 32 4 31 18 -1 13 6 17 32 15 34 -2 44 13 15 24 -15 6 -15 7 3
14 10 4 38 8 62 8 37 1 43 4 38 19 -6 18 7 18 316 15 178 -1 409 -3 514 -3z
m1863 -4 c18 -16 106 -24 134 -12 29 13 19 -7 -17 -36 -38 -31 -56 -34 -74
-16 -7 7 -24 12 -38 13 -30 0 -50 24 -41 49 8 20 16 20 36 2z m-589 -36 c-12
-12 -25 -19 -28 -15 -4 3 4 15 18 25 32 24 38 18 10 -10z m1550 10 c14 -26 9
-82 -7 -87 -7 -3 -10 3 -7 14 3 11 -4 27 -18 41 -22 20 -26 21 -46 6 -12 -8
-22 -24 -22 -35 0 -23 -27 -36 -43 -20 -7 7 -8 19 -1 38 19 54 122 85 144 43z
m-1502 -52 c-12 -18 -24 -35 -26 -37 -3 -6 -31 31 -32 42 0 4 11 7 24 7 13 0
29 7 36 15 23 28 22 7 -2 -27z m1452 -3 c0 -8 -4 -15 -10 -15 -5 0 -10 7 -10
15 0 8 5 15 10 15 6 0 10 -7 10 -15z m-1521 -34 c24 -18 24 -19 -71 -17 -74 1
-94 4 -86 13 5 7 33 14 61 16 29 2 57 4 62 5 6 1 21 -7 34 -17z m359 -27 c63
-8 66 -20 23 -103 -49 -95 -100 -205 -104 -226 -2 -11 -10 -32 -17 -47 -11
-23 -18 -27 -39 -22 -47 10 -51 13 -51 38 0 23 3 25 28 20 19 -4 32 -1 41 10
20 24 6 46 -29 46 -16 0 -30 4 -30 9 0 5 -3 16 -6 25 -5 13 1 16 33 16 27 0
46 6 58 20 10 11 26 22 36 25 28 9 52 61 44 95 -8 34 -25 50 -74 67 -59 21
-87 16 -128 -20 -21 -18 -53 -43 -70 -56 -59 -41 -37 -123 37 -138 22 -4 30
-11 30 -28 0 -32 -8 -35 -45 -19 -46 19 -71 18 -79 -3 -10 -25 22 -45 59 -39
37 7 50 -1 59 -37 l7 -28 -106 3 -106 3 6 44 c4 24 11 51 15 60 5 9 23 59 41
111 17 52 43 114 56 138 l25 42 116 0 c65 0 141 -3 170 -6z m-364 -33 c5 -8
-19 -78 -46 -137 -5 -11 -11 -31 -13 -45 -2 -13 -9 -42 -15 -64 -6 -22 -14
-50 -17 -61 -4 -19 -13 -22 -69 -23 -35 -1 -75 -6 -89 -11 -37 -14 -50 -13
-36 3 12 15 5 27 -17 27 -10 0 -13 -7 -9 -21 4 -15 3 -18 -7 -10 -7 6 -11 22
-8 36 3 18 0 25 -12 25 -20 0 -32 -28 -18 -42 16 -16 2 -49 -19 -43 -12 4 -22
-1 -29 -15 -26 -49 -34 8 -16 115 3 17 10 62 17 100 6 39 16 78 21 87 8 17 68
54 68 43 0 -4 6 -3 13 2 49 31 286 58 301 34z m748 -25 c-9 -50 -21 -66 -53
-66 -27 0 -30 2 -19 15 7 8 21 15 31 15 23 0 34 19 20 33 -8 8 -23 5 -56 -13
-52 -28 -63 -48 -34 -58 11 -5 21 -12 22 -17 1 -6 15 -9 31 -7 24 2 27 0 21
-15 -4 -10 -14 -45 -22 -77 -8 -33 -20 -70 -27 -83 -12 -24 -12 -24 -30 -4
-21 23 -13 49 9 31 10 -9 16 -6 25 10 6 11 8 25 5 30 -8 13 -35 13 -35 0 0 -6
-6 -10 -12 -9 -30 4 -39 -2 -37 -23 5 -55 2 -58 -55 -58 -45 0 -54 3 -52 17 0
10 -7 19 -16 21 -12 2 -18 -3 -18 -16 0 -16 -9 -21 -55 -27 -30 -3 -57 -11
-61 -16 -3 -5 -9 -7 -14 -4 -10 6 4 48 55 160 20 44 46 101 57 127 l20 47 72
3 c39 2 107 3 151 3 73 0 80 -2 77 -19z m-494 0 c15 -8 35 -17 45 -20 9 -3 17
-15 17 -26 0 -27 -6 -25 -34 7 -23 27 -26 27 -61 14 -46 -16 -68 -1 -34 23 29
20 34 20 67 2z m682 -2 c41 -2 123 -4 183 -4 101 0 107 -1 107 -20 0 -13 -10
-24 -27 -31 -26 -10 -27 -12 -10 -23 16 -13 16 -17 -3 -92 -10 -43 -17 -93
-15 -111 5 -41 -2 -43 -211 -42 -152 0 -246 8 -259 21 -9 9 62 254 86 299 9
18 16 20 42 14 18 -4 66 -9 107 -11z m-1380 -106 c0 -24 -2 -23 -45 16 -31 29
-34 35 -18 38 22 6 63 -29 63 -54z m704 15 c-22 -35 -114 -36 -114 -2 0 26 19
33 39 15 23 -21 31 -20 31 3 0 25 21 32 40 15 11 -11 12 -19 4 -31z m1151 26
c61 -5 138 -9 173 -9 39 0 62 -4 62 -11 0 -11 -21 -80 -47 -152 -22 -63 -13
-190 13 -164 4 4 12 3 18 -2 12 -10 263 -35 334 -33 l44 1 -5 -47 c-6 -53 -38
-257 -41 -257 0 -1 -27 1 -58 3 -58 4 -75 15 -38 25 22 6 28 27 7 27 -7 0 -31
-9 -52 -20 -47 -25 -119 -33 -194 -22 l-55 7 3 55 c3 71 7 103 21 169 12 59 8
81 -15 81 -12 0 -14 -8 -11 -34 2 -19 -1 -54 -9 -78 -10 -34 -22 -131 -25
-200 0 -9 -72 -11 -94 -2 -12 5 -8 13 21 40 29 27 34 37 24 47 -10 9 -17 6
-33 -15 -24 -33 -50 -35 -89 -7 -37 26 -37 35 1 42 41 9 99 65 106 104 5 27 1
37 -24 63 -26 25 -38 30 -74 29 -24 -1 -53 1 -65 6 -15 5 -27 1 -42 -14 -28
-28 -24 -131 8 -164 21 -23 28 -47 14 -47 -5 0 -19 9 -33 20 -31 24 -53 26
-48 3 2 -9 -7 -27 -20 -40 -40 -40 -8 -57 50 -27 28 15 32 15 40 0 11 -20 38
-21 38 -1 0 8 3 15 8 15 10 -1 52 -37 52 -45 0 -4 -45 -6 -100 -3 -75 4 -100
2 -100 -7 0 -14 131 -30 171 -21 13 4 58 0 99 -7 l75 -13 -1 -39 c-2 -85 -13
-221 -19 -247 -9 -35 7 -34 -298 -22 -119 4 -167 9 -164 18 2 6 12 11 23 11
15 0 19 7 17 35 -5 78 -10 120 -15 125 -3 3 1 22 8 43 7 20 13 44 14 53 0 21
39 71 49 64 5 -2 6 18 3 44 -6 64 15 244 35 293 15 38 33 51 33 24 0 -8 4 -18
10 -21 5 -3 78 -8 162 -11 84 -3 162 -6 173 -7 12 -1 20 4 20 13 0 12 -27 16
-155 21 -151 6 -188 12 -202 32 -12 20 0 133 22 202 13 39 24 76 26 84 3 8 11
11 22 6 9 -3 67 -10 127 -16z m-1295 -9 c-8 -15 -7 -26 6 -45 20 -30 14 -41
-15 -25 -24 12 -29 58 -9 78 19 19 30 14 18 -8z m1898 -21 c18 -4 36 -10 40
-13 8 -9 -36 -288 -48 -300 -6 -6 -55 -5 -137 3 -171 16 -188 20 -170 34 23
18 11 87 -15 87 -14 0 -18 -5 -13 -19 3 -10 -1 -24 -10 -31 -8 -7 -15 -21 -15
-32 0 -10 -4 -16 -10 -13 -17 10 -11 89 11 159 17 57 23 66 39 61 10 -3 21 -1
25 5 4 7 -2 14 -14 17 -19 5 -21 14 -12 51 2 6 297 -1 329 -9z m-4576 -21
c-12 -12 -35 -1 -27 12 3 5 13 6 21 3 10 -4 12 -9 6 -15z m1643 -8 c3 -5 -3
-10 -14 -10 -12 0 -21 5 -21 10 0 6 6 10 14 10 8 0 18 -4 21 -10z m-1645 -46
c0 -9 -7 -14 -17 -12 -25 5 -28 28 -4 28 12 0 21 -6 21 -16z m2115 5 c3 -4 -2
-14 -11 -24 -23 -23 -219 -19 -219 5 0 11 16 16 60 20 83 7 162 6 170 -1z
m-2055 -9 c0 -5 -2 -10 -4 -10 -3 0 -8 5 -11 10 -3 6 -1 10 4 10 6 0 11 -4 11
-10z m100 -30 c12 -8 11 -10 -7 -10 -13 0 -23 5 -23 10 0 13 11 13 30 0z
m1360 -21 c0 -5 -30 -9 -67 -10 -38 0 -147 -3 -243 -5 -179 -6 -234 6 -68 14
51 2 94 5 95 5 7 7 283 2 283 -4z m520 -3 c30 -3 57 -5 60 -6 3 0 -3 -5 -12
-11 -25 -14 -209 -19 -293 -7 -38 5 -108 11 -155 13 -124 5 -117 4 -102 13 12
8 397 6 502 -2z m-1361 -5 c30 0 51 -4 47 -8 -4 -4 -99 -8 -211 -9 -112 -1
-209 -6 -216 -10 -7 -4 -10 -2 -7 7 3 10 28 15 89 17 46 2 87 4 92 5 7 2 100
1 206 -2z m81 -5 c0 -3 -4 -8 -10 -11 -5 -3 -10 -1 -10 4 0 6 5 11 10 11 6 0
10 -2 10 -4z m267 -2 c-3 -3 -12 -4 -19 -1 -8 3 -5 6 6 6 11 1 17 -2 13 -5z
m387 -44 c-11 -52 -9 -64 9 -68 16 -3 18 2 16 42 -4 55 6 70 16 24 12 -53 24
-71 40 -58 10 8 11 19 4 43 -5 18 -9 33 -9 34 0 2 36 3 80 3 79 0 91 -5 69
-27 -13 -13 -4 -33 16 -33 16 0 28 27 14 35 -15 10 -1 24 19 19 14 -4 17 -17
17 -76 -1 -40 -5 -73 -10 -75 -6 -2 -10 12 -10 29 0 23 -5 33 -15 33 -19 0
-26 -35 -9 -46 24 -14 2 -21 -73 -21 -176 -1 -186 0 -190 24 -5 34 -38 37 -38
4 0 -14 -4 -26 -9 -26 -5 0 -8 17 -7 38 1 32 -2 37 -21 37 -12 0 -25 4 -29 8
-20 20 -33 5 -31 -35 2 -39 0 -43 -24 -46 -20 -2 -28 2 -32 17 -7 27 -24 27
-32 0 -4 -12 -13 -19 -23 -17 -13 3 -16 13 -15 42 3 39 -11 76 -27 76 -6 0
-10 -16 -10 -35 0 -35 -19 -50 -22 -17 -2 32 -4 37 -12 50 -6 10 -11 11 -19 3
-8 -8 -8 -14 -1 -21 14 -14 -5 -102 -20 -97 -6 2 -11 21 -11 43 0 29 -4 39
-17 42 -15 3 -18 -4 -18 -37 0 -23 -4 -41 -10 -41 -5 0 -10 9 -10 19 0 21 -26
36 -35 21 -4 -6 -15 -10 -25 -10 -10 0 -20 -6 -23 -12 -3 -10 -7 -10 -19 -1
-12 11 -18 10 -32 -6 -13 -14 -24 -17 -49 -12 -18 4 -33 12 -33 19 -1 7 -2 17
-3 22 -2 15 -31 12 -31 -4 0 -7 -6 -19 -14 -26 -13 -10 -15 -4 -18 37 -2 35
-7 48 -18 48 -10 0 -16 -12 -18 -37 -4 -49 -20 -49 -18 -1 1 29 -3 38 -17 41
-17 3 -18 -2 -15 -44 2 -31 -1 -48 -9 -51 -9 -3 -13 10 -13 45 0 34 -5 52 -14
55 -21 8 -26 -2 -26 -55 0 -32 -4 -48 -12 -48 -21 0 -41 17 -34 28 3 5 0 15
-8 21 -10 8 -16 8 -26 -3 -6 -9 -9 -20 -5 -26 3 -5 1 -10 -4 -10 -6 0 -11 12
-11 28 0 34 -14 57 -29 47 -15 -8 -4 -96 13 -107 7 -5 4 -8 -6 -8 -10 0 -18 7
-18 15 0 8 -7 15 -15 15 -8 0 -15 3 -16 8 0 4 -2 23 -5 42 -3 19 -5 43 -5 53
0 20 32 50 41 38 3 -3 17 -6 32 -6 27 1 33 -8 29 -42 -2 -12 9 -16 27 -11 4 1
6 9 4 16 -7 30 17 38 108 37 82 -1 92 -3 106 -24 12 -17 24 -22 45 -19 22 4
29 0 31 -16 5 -38 33 -24 36 18 3 35 1 38 -17 33 -12 -3 -19 -1 -15 4 3 5 16
9 29 9 18 0 24 -6 27 -27 3 -24 7 -28 37 -28 18 0 36 6 38 13 4 10 8 10 20 0
11 -9 16 -9 24 3 5 8 9 20 9 27 0 6 12 12 28 13 15 0 47 2 72 3 55 3 78 -7 82
-36 5 -33 25 -32 31 2 8 36 23 39 31 5 8 -31 24 -32 36 -2 5 12 9 16 9 10 1
-21 41 -15 41 5 0 26 2 27 68 27 59 0 60 -1 56 -25z m490 0 c61 1 130 2 154 4
47 3 47 3 36 -78 -8 -59 -24 -60 -24 -1 0 32 -4 45 -14 45 -14 0 -26 -29 -26
-67 0 -14 -6 -23 -15 -23 -9 0 -15 9 -15 24 0 14 -5 37 -11 53 -8 22 -12 24
-19 13 -6 -8 -10 -31 -10 -51 0 -25 -5 -39 -16 -43 -13 -5 -14 -3 -6 6 6 8 8
27 3 48 -7 35 -17 39 -58 25 -19 -6 -17 -65 2 -65 8 0 15 6 15 13 0 8 4 7 10
-3 17 -27 11 -30 -57 -29 -38 1 -58 4 -47 6 16 3 23 13 27 36 6 42 -1 57 -25
57 -19 0 -48 21 -48 35 0 4 7 4 17 1 9 -4 66 -6 127 -6z m-144 -82 c0 -23 5
-38 12 -38 9 0 9 -3 1 -11 -18 -18 -32 -1 -31 35 1 18 -2 38 -6 44 -4 7 -4 17
0 23 11 18 24 -11 24 -53z m1464 36 c21 -8 20 -46 -3 -169 -10 -55 -22 -126
-26 -157 -5 -44 -11 -58 -26 -63 -34 -11 -58 26 -24 39 8 3 15 15 15 26 0 33
-46 26 -68 -10 l-19 -30 -26 28 c-32 33 -34 42 -7 42 23 0 70 20 70 31 0 4 15
16 34 27 62 37 58 133 -7 148 -18 4 -38 15 -45 25 -16 23 -45 25 -62 4 -7 -8
-18 -15 -25 -15 -7 0 -23 -9 -36 -19 -19 -16 -22 -22 -12 -32 10 -10 17 -9 33
9 24 26 40 28 40 7 0 -8 6 -16 13 -16 6 -1 19 -2 27 -3 10 -1 16 -14 18 -43 3
-34 -1 -44 -18 -53 -24 -13 -70 -6 -70 10 0 5 11 12 25 16 35 9 34 50 -1 66
-20 9 -27 9 -34 -2 -4 -7 -17 -11 -29 -7 -24 6 -61 -37 -61 -70 0 -32 34 -56
69 -48 28 6 30 5 29 -24 -1 -33 -14 -40 -32 -18 -17 21 -99 10 -114 -14 -17
-27 -7 -39 34 -39 27 0 34 -4 34 -20 0 -17 -5 -19 -32 -14 -18 4 -42 12 -54
19 -23 14 -23 54 0 235 13 106 18 112 108 129 51 10 259 14 282 5z m-770 -23
c3 -9 4 -35 4 -57 l-1 -42 -22 25 c-16 20 -36 28 -79 34 -68 9 -92 2 -151 -46
-40 -33 -42 -38 -35 -71 4 -19 13 -40 19 -48 6 -7 8 -16 5 -19 -10 -10 25 -57
41 -57 8 0 15 -5 15 -11 0 -8 -14 -9 -43 -5 -34 5 -49 3 -66 -11 -41 -34 -1
-77 41 -44 21 17 42 23 123 37 17 3 45 -1 64 -9 l34 -15 -54 -6 c-30 -4 -94
-14 -142 -23 -75 -14 -90 -14 -97 -2 -14 21 1 285 17 299 22 21 92 50 142 60
31 6 69 15 85 18 53 13 95 10 100 -7z m1235 -6 c9 -4 11 -15 7 -38 -3 -17 -8
-70 -12 -117 -3 -47 -9 -110 -12 -140 l-7 -54 -82 -3 c-83 -3 -83 -3 -83 22 0
16 -6 25 -15 25 -14 0 -19 -11 -16 -36 2 -14 -122 -25 -190 -17 l-49 6 0 51
c0 28 12 110 26 181 l27 130 196 -3 c108 -1 202 -5 210 -7z m-898 -24 c14 -17
14 -30 3 -118 -7 -54 -13 -119 -14 -144 l0 -47 -143 2 -144 1 3 160 2 160 29
6 c15 4 78 5 138 3 94 -3 112 -6 126 -23z m-2464 -13 c-3 -8 -6 -5 -6 6 -1 11
2 17 5 13 3 -3 4 -12 1 -19z m2004 -28 c29 -16 25 -64 -7 -89 -41 -32 -51 -27
-56 27 -6 62 18 86 63 62z m89 -53 c6 -31 4 -39 -16 -58 -14 -13 -38 -24 -55
-25 l-30 -2 35 34 c28 28 36 43 36 71 0 45 18 33 30 -20z m-2130 39 c0 -3 -4
-8 -10 -11 -5 -3 -10 -1 -10 4 0 6 5 11 10 11 6 0 10 -2 10 -4z m2858 -8 c19
-19 14 -55 -12 -85 -27 -31 -44 -27 -26 7 7 13 10 35 6 50 -7 39 8 52 32 28z
m-3038 -8 c0 -5 -7 -10 -16 -10 -8 0 -12 5 -9 10 3 6 10 10 16 10 5 0 9 -4 9
-10z m3760 -9 c0 -6 -4 -13 -10 -16 -5 -3 -10 1 -10 9 0 9 5 16 10 16 6 0 10
-4 10 -9z m106 1 c29 -19 23 -102 -8 -102 -6 0 -20 -7 -30 -16 -25 -24 -82 -8
-86 25 -3 22 -3 22 22 6 53 -35 102 9 61 55 -9 10 -14 24 -10 29 7 13 35 14
51 3z m-1743 -24 c6 -19 -3 -38 -18 -38 -18 0 -26 15 -19 34 7 19 31 21 37 4z
m739 -58 c2 -19 -2 -26 -19 -28 -20 -3 -23 1 -23 26 0 49 37 51 42 2z m-516
-40 c-4 -29 -3 -40 6 -41 10 0 10 -2 1 -6 -7 -2 -13 -19 -13 -36 0 -45 -13
-61 -28 -37 -8 13 -8 21 -1 25 7 5 7 11 -1 20 -7 9 -6 16 5 25 8 7 15 16 15
20 0 13 -36 18 -54 8 -32 -18 -16 10 22 35 50 35 56 33 48 -13z m-136 -15 c0
-16 -27 -32 -37 -22 -3 4 -3 13 0 22 8 20 37 20 37 0z m750 11 c0 -3 -4 -8
-10 -11 -5 -3 -10 -1 -10 4 0 6 5 11 10 11 6 0 10 -2 10 -4z m-1010 -95 c0 -5
-224 -9 -497 -10 -274 -1 -648 -4 -830 -7 -237 -4 -333 -3 -333 5 0 8 90 11
298 12 340 1 814 8 818 12 7 7 544 -5 544 -12z m975 -1 c4 -6 21 -17 38 -24
31 -14 30 -14 -41 -15 l-73 -1 18 25 c19 25 47 33 58 15z m-636 -74 c5 -17 8
-69 7 -116 -2 -47 -3 -110 -4 -141 l-2 -56 -52 -7 c-29 -3 -98 -10 -152 -16
-54 -6 -103 -13 -109 -17 -7 -4 -8 14 -3 53 4 32 10 95 12 139 4 66 10 87 32
119 24 35 35 41 97 57 39 9 91 17 117 16 44 0 48 -2 57 -31z m396 22 c7 -21
13 -271 7 -307 -5 -33 -5 -33 -46 -28 -22 3 -79 2 -125 -3 -47 -4 -96 -4 -110
0 -24 6 -26 11 -28 71 -1 35 -4 110 -6 166 -3 56 -2 105 1 108 3 3 72 5 154 5
110 0 150 -3 153 -12z m237 -17 c77 0 142 -1 145 -4 3 -4 4 -48 3 -99 -2 -51
-3 -106 -2 -123 1 -16 -1 -44 -4 -62 -4 -30 -7 -31 -49 -31 -25 0 -45 4 -45 9
0 5 -7 9 -16 9 -9 0 -24 10 -34 23 -13 16 -22 19 -30 11 -15 -15 -2 -42 23
-47 12 -2 -15 -6 -60 -7 -46 -2 -91 -4 -100 -4 -12 -1 -18 7 -19 24 -1 14 -4
87 -8 163 -4 75 -4 142 -1 147 4 6 16 5 32 -1 15 -5 89 -9 165 -8z m584 8 c9
-7 9 -21 -3 -57 -9 -30 -13 -81 -12 -139 2 -51 0 -95 -3 -98 -7 -7 -88 6 -88
14 0 3 14 13 32 21 29 14 31 19 35 75 6 89 -2 121 -35 134 -20 8 -36 9 -55 2
-14 -6 -42 -8 -61 -6 -51 7 -79 -20 -81 -78 -1 -26 -7 -53 -14 -60 -22 -28 20
-100 49 -82 4 3 15 -6 24 -20 18 -27 45 -32 64 -13 8 8 15 8 24 1 7 -6 24 -13
38 -15 16 -3 6 -7 -31 -12 -66 -9 -95 -3 -102 23 -3 13 -16 20 -43 23 -22 3
-47 8 -56 12 -12 6 -20 3 -24 -8 -9 -22 1 -31 37 -32 53 -3 59 -4 59 -14 0
-15 -137 -10 -150 5 -5 6 -8 76 -7 165 l2 155 150 3 c82 1 150 4 152 5 7 8 89
5 99 -4z m715 -10 c94 1 149 -2 149 -9 0 -5 11 -10 25 -10 l26 0 -5 -122 c-6
-116 -13 -184 -23 -201 -7 -12 -43 12 -43 29 0 8 9 33 21 55 15 30 17 44 10
53 -6 7 -10 36 -9 64 1 29 -3 56 -11 65 -17 22 -138 47 -180 39 -19 -4 -37
-14 -41 -22 -33 -66 -34 -71 -22 -104 7 -18 12 -35 12 -39 0 -13 -27 -7 -40 8
-18 21 -33 19 -27 -5 4 -16 0 -20 -18 -20 -13 0 -30 -3 -39 -6 -14 -5 -16 5
-16 69 0 41 3 95 6 121 l7 48 35 -7 c19 -3 101 -6 183 -6z m-793 -71 c25 -25
14 -39 -25 -32 -46 8 -47 9 -40 29 7 18 48 20 65 3z m755 -12 c-14 -19 -19
-21 -21 -9 -2 9 2 19 10 24 24 16 29 9 11 -15z m-860 7 c9 -9 -33 -53 -50 -53
-16 0 -17 14 -3 41 10 19 40 26 53 12z m967 -24 c0 -18 -4 -20 -27 -14 -34 8
-37 11 -28 24 3 6 17 11 31 11 18 0 24 -5 24 -21z m67 -5 c3 -9 -3 -24 -15
-36 -21 -22 -44 -17 -37 7 3 8 7 22 10 30 6 20 34 19 42 -1z m-2010 -279 c-2
-241 -4 -265 -19 -265 -18 0 -18 17 1 338 5 84 7 162 4 172 -3 11 -1 20 5 20
7 0 10 -85 9 -265z m999 238 c-10 -10 -19 5 -10 18 6 11 8 11 12 0 2 -7 1 -15
-2 -18z m911 -23 c7 0 16 -7 19 -15 4 -8 12 -15 20 -15 8 0 14 -4 14 -9 0 -14
-41 -41 -61 -41 -25 0 -52 37 -53 73 -2 40 14 53 33 27 7 -11 20 -20 28 -20z
m-102 20 c3 -5 1 -10 -4 -10 -6 0 -11 5 -11 10 0 6 2 10 4 10 3 0 8 -4 11 -10z
m-839 -35 c17 -9 22 -15 13 -15 -9 0 -22 -7 -29 -15 -13 -16 -46 -20 -54 -7
-6 10 21 52 33 52 5 0 22 -7 37 -15z m109 -20 c0 -22 -31 -33 -47 -17 -17 17
-1 44 24 40 15 -2 23 -10 23 -23z m775 -36 c27 -27 35 -30 68 -25 20 4 45 16
55 28 20 24 21 22 6 -20 -13 -38 -55 -57 -111 -49 -47 6 -68 27 -68 69 0 36
11 35 50 -3z m-855 -19 c-5 -8 -11 -8 -17 -2 -6 6 -7 16 -3 22 5 8 11 8 17 2
6 -6 7 -16 3 -22z m745 -8 c0 -3 -8 -10 -17 -17 -14 -10 -15 -16 -5 -28 10
-12 8 -16 -13 -21 -14 -4 -36 -4 -50 0 -20 5 -25 12 -25 38 0 31 0 31 55 32
30 0 55 -2 55 -4z m75 -42 c18 -20 17 -20 -30 -20 l-47 0 23 20 c30 24 32 24
54 0z m-1873 -110 c-2 -36 -5 -99 -8 -140 -2 -41 -5 -82 -5 -90 -1 -8 -5 -30
-11 -48 -9 -29 -14 -33 -33 -28 -14 4 -27 1 -31 -6 -6 -9 -10 -5 -14 11 -3 13
-12 27 -20 31 -8 4 -25 12 -38 19 -18 9 -27 8 -47 -5 -14 -9 -25 -23 -25 -30
0 -15 26 -19 34 -5 3 5 14 11 25 14 15 4 24 -3 36 -29 10 -22 20 -31 30 -28
12 5 15 -2 15 -31 0 -23 -4 -34 -10 -30 -6 4 -18 4 -27 1 -12 -5 -13 -9 -3
-21 9 -11 16 -12 26 -5 10 9 10 4 1 -27 -6 -21 -12 -39 -13 -41 -1 -2 -22 7
-46 20 -35 18 -57 22 -119 21 l-76 -1 4 32 c2 17 5 40 7 51 2 11 4 24 5 29 0
5 7 3 15 -3 10 -9 16 -8 26 3 16 20 3 38 -22 30 -17 -5 -18 -3 -9 14 6 11 9
27 6 34 -8 22 10 39 51 48 32 8 42 6 60 -11 11 -10 23 -16 27 -13 4 4 -1 13
-11 21 -15 12 -7 13 58 10 41 -2 81 -6 89 -8 7 -2 16 2 18 8 9 26 -49 35 -174
29 l-123 -6 -1 63 c-1 34 0 67 1 72 1 6 3 21 5 35 3 38 3 38 28 46 33 11 217
32 262 30 l40 -1 -3 -65z m402 -17 c-1 -48 -3 -116 -3 -149 l-1 -62 -62 -8
c-35 -5 -99 -9 -143 -9 l-79 0 -7 35 c-4 19 -9 87 -11 150 l-3 115 50 5 c28 3
98 6 156 8 l106 3 -3 -88z m339 81 c24 -5 28 -10 23 -27 -4 -12 -9 -51 -12
-87 -10 -124 -10 -125 -46 -126 -18 -1 -42 -3 -52 -5 -10 -2 -21 2 -23 9 -3 7
4 12 19 12 41 0 94 73 84 115 -8 33 -73 79 -110 78 -60 -3 -105 -15 -123 -35
-26 -29 -25 -114 1 -134 11 -7 31 -24 45 -36 14 -13 42 -30 61 -39 l35 -17
-89 -1 c-48 -1 -92 -4 -96 -6 -5 -3 -11 -1 -14 4 -7 11 69 25 84 16 8 -5 11 1
8 15 -5 36 -33 48 -67 28 -16 -9 -32 -14 -35 -11 -3 3 -3 24 0 47 2 22 6 74 7
114 2 41 8 76 14 80 15 10 249 15 286 6z m461 -26 c3 -17 3 -80 0 -140 -6 -87
-10 -106 -20 -97 -7 6 -17 9 -21 6 -10 -6 -192 -19 -303 -22 -47 -1 -104 -5
-127 -10 -35 -6 -43 -5 -43 8 0 18 45 28 60 13 17 -17 27 8 33 92 4 43 8 84
10 92 3 8 8 29 12 47 l7 31 145 0 c79 0 147 2 150 6 4 3 25 6 48 6 40 0 43 -2
49 -32z m165 23 c10 -6 4 -15 -23 -36 -39 -30 -49 -72 -21 -95 23 -19 18 -31
-9 -24 -17 4 -31 -1 -46 -16 -12 -12 -23 -20 -25 -18 -3 3 -8 173 -6 191 1 10
113 9 130 -2z m708 -5 c19 -6 19 -22 0 -236 -4 -44 -15 -63 -30 -53 -12 8 -16
9 -70 12 -20 1 -27 6 -25 18 5 26 -32 30 -39 4 -4 -17 -13 -21 -48 -21 -44 0
-47 4 -34 60 3 9 -5 16 -18 18 -24 3 -31 -12 -13 -23 8 -5 7 -11 0 -20 -7 -8
-9 -19 -5 -25 3 -5 -2 -10 -13 -10 -15 0 -19 5 -15 20 4 15 0 20 -16 20 -12 0
-21 -6 -21 -15 0 -9 -9 -15 -25 -15 -23 0 -24 4 -27 63 -2 34 1 94 6 132 l9
70 91 3 c50 2 92 4 93 6 5 5 182 -2 200 -8z m-510 -2 c-3 -3 -12 -4 -19 -1 -8
3 -5 6 6 6 11 1 17 -2 13 -5z m77 -44 c0 -25 -2 -86 -4 -137 l-4 -92 -54 -7
c-30 -4 -116 -3 -191 0 -139 8 -170 17 -158 50 5 13 12 12 48 -6 35 -16 47
-18 62 -9 13 9 22 9 32 1 7 -6 57 -10 124 -9 91 1 111 4 111 17 0 12 -15 14
-99 10 -55 -3 -105 -1 -112 3 -15 9 9 15 96 24 85 8 109 28 113 94 2 35 -2 61
-12 77 -22 33 -20 36 17 32 31 -3 32 -4 31 -48z m-124 5 c16 -20 18 -77 3 -82
-8 -3 -13 4 -13 16 0 11 -10 27 -21 35 -13 9 -19 21 -16 30 8 20 31 21 47 1z
m-100 -2 c0 -5 -7 -17 -15 -27 -8 -11 -15 -28 -15 -38 0 -21 -20 -24 -38 -6
-18 18 -15 38 11 59 22 18 57 26 57 12z m-768 -20 c27 -24 22 -31 -22 -30 -41
2 -50 13 -28 35 16 16 28 15 50 -5z m-1065 -9 c3 -8 -17 -12 -66 -10 -39 0
-71 4 -71 8 0 18 131 20 137 2z m977 -13 c15 -16 15 -19 1 -31 -13 -11 -14
-10 -9 4 4 11 0 22 -12 31 -11 8 -14 15 -8 15 6 0 18 -8 28 -19z m906 -27 c0
-8 -9 -14 -20 -14 -22 0 -28 26 -7 33 16 6 27 -1 27 -19z m-835 -34 c3 -11 3
-24 0 -30 -9 -15 -41 -12 -54 4 -9 11 -8 14 6 12 12 -1 17 5 15 17 -4 24 25
22 33 -3z m569 -145 c3 -8 1 -27 -4 -41 -6 -14 -10 -66 -10 -115 0 -71 -3 -89
-14 -89 -8 0 -18 5 -22 11 -4 7 -21 9 -43 5 -29 -4 -41 -1 -54 14 -22 26 -22
26 13 33 43 9 66 49 54 95 -11 43 -45 65 -80 52 -15 -6 -26 -5 -30 2 -9 15 15
28 56 28 56 2 101 7 107 14 11 10 21 7 27 -9z m505 -12 c9 -2 81 -5 161 -7 87
-2 156 -9 173 -17 30 -14 29 -6 31 -176 2 -124 -3 -134 -53 -92 -22 18 -23 22
-10 47 7 15 21 37 32 48 15 18 17 31 11 73 -10 79 -67 114 -122 75 -18 -13
-29 -13 -57 -4 -64 21 -115 -32 -111 -115 4 -90 40 -119 119 -98 36 10 43 8
78 -16 21 -14 38 -29 39 -33 0 -15 -46 -18 -155 -10 l-110 7 -6 105 c-6 102
-25 174 -56 211 -18 22 -16 34 3 18 9 -7 23 -15 33 -16z m-1640 -137 c-18 -46
-27 -55 -50 -49 -18 5 -20 11 -16 39 4 23 2 34 -6 35 -9 0 -8 2 1 6 6 2 12 15
12 28 0 15 12 33 33 49 l32 26 3 -52 c2 -28 -2 -65 -9 -82z m873 109 c-17 -14
-32 -25 -36 -25 -3 0 -24 -19 -46 -42 -35 -37 -40 -47 -34 -73 8 -38 6 -37 56
-42 32 -4 47 -1 57 11 16 19 75 22 68 4 -2 -7 -14 -13 -26 -12 -11 0 -21 -3
-21 -7 0 -11 28 -19 45 -13 19 8 20 -10 1 -25 -9 -8 -47 -11 -106 -9 l-92 3
-12 36 c-7 19 -13 76 -15 127 l-2 92 96 0 97 0 -30 -25z m678 15 c0 -5 -4 -10
-10 -10 -5 0 -10 -9 -10 -20 0 -13 7 -20 20 -20 14 0 20 7 20 22 0 29 11 16
32 -40 13 -33 18 -75 18 -139 l0 -93 -35 0 c-28 0 -35 4 -35 19 0 31 -21 37
-41 12 -10 -12 -23 -20 -29 -16 -5 3 -49 6 -97 7 -68 0 -90 4 -99 16 -10 13
-15 14 -27 4 -8 -7 -21 -10 -28 -8 -8 2 -26 7 -40 10 -26 6 -26 6 -27 103 -1
54 1 110 4 125 l5 28 182 3 c100 1 185 3 190 5 4 1 7 -2 7 -8z m-1216 -57 c-5
-32 -7 -71 -7 -88 1 -25 -7 -37 -52 -72 -53 -42 -78 -52 -90 -34 -6 11 18 38
43 45 21 7 52 56 52 84 0 30 -56 86 -78 77 -9 -4 -35 -9 -57 -11 -43 -4 -69
-28 -61 -56 2 -10 0 -21 -5 -24 -29 -17 14 -94 53 -94 23 0 23 -21 0 -50 l-17
-22 -29 27 c-31 29 -79 31 -84 4 -2 -10 10 -20 38 -29 62 -21 58 -30 -14 -30
-55 0 -66 3 -66 16 0 20 39 134 52 150 4 6 11 32 14 57 11 76 17 81 146 93 62
6 126 12 141 13 l28 1 -7 -57z m339 -60 c3 -55 8 -106 11 -112 12 -18 -55 -13
-69 6 -13 18 -35 10 -35 -13 0 -11 -15 -14 -61 -14 -54 0 -60 2 -49 15 7 8 9
15 4 15 -4 0 -1 6 8 13 9 6 19 27 23 45 6 29 4 33 -11 30 -11 -2 -22 -17 -28
-38 -5 -19 -14 -38 -19 -41 -5 -4 -6 -12 -3 -18 4 -6 0 -11 -8 -11 -10 0 -16
9 -16 25 0 14 -7 28 -15 31 -8 4 -12 10 -9 15 3 5 -4 18 -16 27 -20 16 -21 23
-14 72 l9 55 140 5 c77 3 143 3 147 0 4 -3 9 -51 11 -107z m247 76 c0 -11 -4
-17 -10 -14 -5 3 -19 1 -30 -5 -20 -11 -26 -4 -12 16 7 10 28 21 45 23 4 1 7
-8 7 -20z m87 3 c19 -12 27 -66 11 -79 -7 -6 -33 -13 -58 -17 l-44 -7 24 27
c23 24 23 27 9 37 -15 10 -15 12 5 28 23 20 35 23 53 11z m923 -20 c22 -18 22
-19 6 -51 -16 -31 -19 -32 -64 -26 -26 3 -58 8 -71 11 -22 5 -22 6 -5 18 14
10 22 11 36 2 21 -13 55 4 50 25 -4 17 5 39 17 39 5 0 19 -8 31 -18z m-1689
-36 c10 -20 8 -31 -11 -60 -23 -39 -40 -45 -60 -21 -15 18 -3 42 13 26 21 -21
30 -11 23 27 -8 55 15 73 35 28z m663 9 c3 -8 1 -15 -4 -15 -6 0 -10 7 -10 15
0 8 2 15 4 15 2 0 6 -7 10 -15z m884 3 c-9 -7 -18 -22 -20 -33 -4 -25 -38 -33
-38 -9 0 24 29 54 53 54 19 0 19 -1 5 -12z m-1618 -8 c0 -5 -7 -10 -15 -10 -7
0 -19 -8 -24 -17 -9 -16 -10 -16 -11 3 0 11 3 24 7 27 10 11 43 8 43 -3z m690
-12 c0 -19 -2 -20 -10 -8 -13 19 -13 30 0 30 6 0 10 -10 10 -22z m-969 -1 c-1
-4 -1 -14 -1 -22 0 -8 -4 -15 -10 -15 -5 0 -10 12 -10 26 0 14 5 24 11 22 6
-2 10 -7 10 -11z m969 -69 c0 -11 -38 -10 -61 2 -22 12 -25 40 -7 58 10 10 18
6 40 -20 15 -18 28 -36 28 -40z m-721 -12 c17 -21 -4 -30 -23 -10 -9 8 -16 17
-16 20 0 10 29 3 39 -10z m1691 -4 c0 -24 -19 -42 -46 -42 -34 0 -37 16 -8 39
33 26 54 27 54 3z m-1950 4 c0 -3 -4 -8 -10 -11 -5 -3 -10 -1 -10 4 0 6 5 11
10 11 6 0 10 -2 10 -4z m79 -42 c-16 -32 -24 -37 -54 -38 -19 -1 -35 2 -35 6
0 12 53 48 71 48 11 0 19 5 19 10 0 6 4 10 9 10 5 0 0 -16 -10 -36z m-201 -19
c35 -16 52 -30 51 -42 0 -11 -3 -13 -6 -5 -7 17 -33 15 -33 -3 0 -8 7 -15 15
-15 20 0 19 -10 -2 -25 -15 -12 -19 -9 -28 18 -22 69 -130 85 -196 30 -36 -31
-45 -25 -29 21 9 29 17 36 43 39 87 11 133 6 185 -18z m637 -29 c42 -13 90
-15 299 -11 137 3 254 9 260 13 23 18 139 23 170 7 47 -25 155 -46 261 -50 55
-3 154 -12 220 -21 66 -9 152 -19 190 -23 62 -7 52 -8 -80 -11 -381 -7 -882
-6 -898 2 -11 6 -23 6 -30 0 -18 -15 -567 -16 -567 -2 0 13 40 70 79 112 20
22 26 25 35 14 6 -8 34 -21 61 -30z m-727 -18 c14 -14 16 -48 4 -48 -20 0 -45
28 -39 44 8 19 19 20 35 4z m254 -32 c-4 -20 -44 -86 -53 -86 -3 0 -13 6 -23
13 -14 10 -16 21 -11 50 7 36 7 37 25 15 11 -15 23 -19 35 -14 14 5 16 9 7 18
-17 17 -15 30 6 26 10 -2 16 -11 14 -22z m268 14 c0 -5 -9 -10 -20 -10 -11 0
-20 5 -20 10 0 6 9 10 20 10 11 0 20 -4 20 -10z m-590 -8 c0 -13 -12 -22 -22
-16 -10 6 -1 24 13 24 5 0 9 -4 9 -8z m130 -22 c0 -11 -4 -20 -9 -20 -5 0 -7
9 -4 20 3 11 7 20 9 20 2 0 4 -9 4 -20z m-170 -35 c7 -9 10 -18 7 -22 -8 -7
-37 15 -37 28 0 14 16 11 30 -6z m99 1 c9 -10 8 -16 -4 -26 -9 -7 -15 -8 -15
-2 0 6 -3 17 -6 26 -8 20 9 21 25 2z m447 3 c9 -15 -13 -34 -58 -53 -32 -12
-38 -13 -38 -1 0 7 10 15 22 17 31 4 35 28 5 28 -14 0 -27 -6 -29 -12 -3 -9
-9 -8 -21 4 -12 12 -14 18 -4 21 24 10 116 7 123 -4z m-579 -38 c24 -24 31
-37 23 -45 -7 -7 -14 -4 -25 11 -17 25 -69 47 -90 39 -23 -8 -18 -42 8 -53 20
-10 18 -11 -15 -10 -46 1 -48 15 -9 60 37 42 64 42 108 -2z m426 19 c-3 -11 0
-20 6 -20 6 0 11 -4 11 -10 0 -16 -27 -11 -34 6 -4 9 -1 23 5 30 16 19 18 18
12 -6z m-123 -35 c10 -12 10 -15 -3 -15 -23 0 -47 11 -47 21 0 15 37 10 50 -6z
m-150 -24 c0 -11 -31 -24 -39 -16 -3 3 1 10 9 15 19 12 30 12 30 1z M726 8421
c-4 -5 -2 -12 3 -15 5 -4 12 -2 15 3 4 5 2 12 -3 15 -5 4 -12 2 -15 -3z M450
8170 c0 -6 7 -10 15 -10 8 0 15 2 15 4 0 2 -7 6 -15 10 -8 3 -15 1 -15 -4z
M500 8149 c0 -5 9 -9 20 -9 11 0 20 2 20 4 0 2 -9 6 -20 9 -11 3 -20 1 -20 -4z
M290 7670 c0 -5 5 -10 11 -10 5 0 7 5 4 10 -3 6 -8 10 -11 10 -2 0 -4 -4 -4
-10z M500 6860 c0 -5 5 -10 11 -10 5 0 7 5 4 10 -3 6 -8 10 -11 10 -2 0 -4 -4
-4 -10z M530 6760 c0 -5 5 -10 10 -10 6 0 10 5 10 10 0 6 -4 10 -10 10 -5 0
-10 -4 -10 -10z M160 6039 c0 -5 5 -7 10 -4 6 3 10 8 10 11 0 2 -4 4 -10 4 -5
0 -10 -5 -10 -11z M1630 5010 c0 -5 5 -10 10 -10 6 0 10 5 10 10 0 6 -4 10
-10 10 -5 0 -10 -4 -10 -10z M1890 4970 c0 -5 5 -10 10 -10 6 0 10 5 10 10 0
6 -4 10 -10 10 -5 0 -10 -4 -10 -10z M2506 4539 c-26 -21 -34 -39 -16 -39 15
0 80 47 73 54 -11 11 -30 6 -57 -15z M2710 4535 c0 -4 10 -17 23 -29 12 -12
29 -32 38 -45 9 -15 20 -21 27 -17 11 7 3 32 -25 73 -10 13 -63 29 -63 18z
M2538 4474 c-16 -8 -28 -19 -28 -24 0 -5 -22 -35 -48 -67 -60 -72 -71 -92 -82
-151 -11 -60 -37 -164 -55 -222 -25 -78 -55 -250 -55 -311 0 -46 3 -59 15 -59
12 0 15 13 15 55 0 51 35 219 79 385 11 41 28 105 36 141 16 66 33 93 139 215
20 23 36 44 36 48 0 10 -23 6 -52 -10z M2486 4258 c-8 -13 -38 -93 -66 -178
-53 -156 -75 -280 -51 -280 14 0 31 42 31 75 0 57 94 326 127 366 7 8 13 21
13 27 0 21 -39 13 -54 -10z M2292 4141 c-23 -40 -29 -81 -12 -81 5 0 17 14 26
32 9 18 23 38 30 45 15 15 8 43 -10 43 -7 0 -22 -17 -34 -39z M2761 3997 c-6
-8 -8 -17 -5 -20 10 -9 45 13 39 24 -9 13 -21 11 -34 -4z M2694 3933 c-3 -10
-10 -28 -15 -41 -12 -30 2 -60 19 -40 17 21 27 98 13 98 -6 0 -14 -8 -17 -17z
M2691 3817 c-20 -53 -27 -131 -15 -166 8 -24 29 5 30 42 1 18 5 58 9 90 6 41
5 57 -4 57 -6 0 -16 -11 -20 -23z M2339 3688 c-1 -7 -1 -19 0 -25 1 -7 -5 -57
-13 -110 -8 -54 -12 -111 -9 -128 3 -16 7 -100 8 -185 2 -165 27 -317 52 -327
24 -9 24 2 4 83 -16 65 -20 120 -23 314 -2 138 1 261 8 297 10 60 4 93 -16 93
-6 0 -11 -6 -11 -12z M2253 3618 c-4 -7 -8 -51 -9 -98 -1 -100 -11 -247 -25
-380 -15 -142 -12 -468 6 -550 8 -39 48 -112 71 -131 28 -23 28 2 2 50 -16 28
-32 79 -39 122 -13 78 -17 385 -7 479 12 105 30 325 31 360 3 135 -7 183 -30
148z M2806 3508 c-2 -7 -7 -63 -9 -125 -4 -87 -3 -113 8 -117 10 -3 16 12 22
57 13 90 11 189 -4 194 -7 3 -15 -1 -17 -9z M2637 2903 c-12 -11 -8 -23 8 -23
8 0 15 7 15 15 0 16 -12 20 -23 8z M2394 2825 c15 -44 24 -52 32 -31 10 27 -4
66 -25 66 -17 0 -18 -3 -7 -35z M1020 3899 c0 -5 5 -7 10 -4 6 3 10 8 10 11 0
2 -4 4 -10 4 -5 0 -10 -5 -10 -11z M3008 2935 c-8 -8 3 -53 16 -64 7 -6 17 -6
26 -1 11 7 12 15 4 37 -9 26 -33 41 -46 28z M2944 2919 c-3 -6 0 -17 8 -25 13
-13 16 -13 28 1 12 14 11 18 -1 26 -19 12 -26 11 -35 -2z M2861 2907 c-14 -17
-4 -27 26 -27 25 0 29 10 11 28 -15 15 -23 15 -37 -1z M2934 2868 c-3 -4 -14
-8 -25 -8 -12 0 -19 -7 -19 -20 0 -13 7 -20 20 -20 11 0 20 4 20 9 0 15 49 19
54 5 6 -16 32 -19 41 -4 3 5 1 19 -5 29 -8 15 -20 20 -46 19 -19 -1 -37 -5
-40 -10z M2934 2796 c-14 -11 -16 -18 -8 -26 16 -16 65 5 58 25 -8 19 -25 19
-50 1z M3507 2800 c-15 -18 -15 -21 -2 -26 15 -6 45 17 45 35 0 18 -24 12 -43
-9z M3873 2878 c-53 -37 -37 -97 25 -98 25 0 55 -23 45 -34 -4 -3 -22 -6 -40
-6 -57 0 -32 -21 30 -26 57 -4 67 2 45 24 -15 15 13 26 50 19 30 -6 53 7 70
40 17 31 15 37 -14 72 -19 23 -34 31 -59 31 -19 0 -37 -4 -40 -10 -6 -10 6
-14 38 -10 22 2 56 -38 57 -65 0 -30 -19 -45 -57 -45 -34 0 -44 14 -17 24 23
9 13 48 -15 63 -13 6 -28 19 -33 27 -13 23 -48 20 -85 -6z m71 -6 c7 -12 -34
-72 -50 -72 -7 0 -18 9 -24 20 -8 15 -6 23 12 40 22 20 53 27 62 12z m44 -54
c-7 -19 -38 -22 -38 -4 0 10 9 16 21 16 12 0 19 -5 17 -12z M3773 2774 c-15
-32 -8 -48 18 -41 10 3 20 0 22 -7 3 -8 8 -7 18 2 12 11 11 15 -3 23 -10 6
-18 19 -18 29 0 29 -23 24 -37 -6z M4352 2828 c-18 -18 -15 -28 7 -28 26 0 34
15 18 29 -10 8 -17 7 -25 -1z M4415 2830 c-10 -16 16 -43 28 -31 11 11 2 41
-12 41 -5 0 -13 -5 -16 -10z M4474 2829 c-9 -16 18 -30 33 -17 7 6 10 14 7 19
-7 13 -31 11 -40 -2z M4280 2815 c-7 -8 -16 -13 -20 -10 -4 3 -13 -2 -19 -9
-20 -23 6 -30 45 -11 19 9 33 22 31 28 -6 18 -23 19 -37 2z M4294 2765 c-4
-10 -14 -13 -29 -9 -24 6 -38 -5 -27 -22 4 -6 19 -13 34 -16 23 -4 30 0 42 23
8 15 11 30 8 33 -10 10 -23 6 -28 -9z M4404 2746 c-6 -16 11 -46 27 -46 15 0
10 37 -6 50 -12 10 -16 9 -21 -4z M4450 2706 c0 -8 4 -17 9 -20 11 -7 33 18
24 27 -12 12 -33 7 -33 -7z M2995 2699 c-8 -12 14 -31 30 -26 6 2 10 10 10 18
0 17 -31 24 -40 8z M3195 2680 c-4 -7 -3 -16 3 -22 14 -14 45 -2 40 15 -6 16
-34 21 -43 7z M3032 2658 c-16 -16 -15 -25 2 -31 21 -8 40 17 23 31 -10 9 -17
8 -25 0z M3157 2636 c-8 -21 16 -39 31 -24 8 8 9 15 1 25 -15 17 -25 17 -32
-1z M3041 2606 c-6 -7 -8 -16 -4 -19 10 -10 71 -8 77 2 15 23 -55 39 -73 17z
M3132 2578 c4 -43 33 -46 33 -3 0 21 -5 31 -18 33 -15 3 -18 -2 -15 -30z
M3022 2553 c4 -21 33 -25 33 -3 0 8 -8 16 -18 18 -14 3 -18 -1 -15 -15z M2965
2519 c-8 -12 14 -31 30 -26 6 2 10 10 10 18 0 17 -31 24 -40 8z M1843 2613
c-16 -37 -7 -127 14 -162 20 -31 106 -101 125 -101 20 0 4 26 -47 74 -57 54
-57 53 -59 155 -1 46 -20 66 -33 34z M3566 2624 c-21 -21 -11 -37 15 -24 10 6
19 15 19 20 0 17 -19 20 -34 4z M3763 2624 c-8 -20 8 -36 26 -25 15 10 8 41
-9 41 -6 0 -13 -7 -17 -16z M3810 2610 c0 -15 5 -20 18 -18 9 2 17 10 17 18 0
8 -8 16 -17 18 -13 2 -18 -3 -18 -18z M3867 2623 c-11 -18 -1 -78 13 -78 11 0
15 11 15 39 0 36 -16 58 -28 39z M3935 2610 c-8 -14 3 -30 21 -30 8 0 14 9 14
20 0 21 -24 28 -35 10z M3784 2569 c-8 -14 11 -33 25 -25 16 10 13 36 -3 36
-8 0 -18 -5 -22 -11z M3853 2533 c-21 -7 -15 -33 7 -33 11 0 20 6 20 14 0 18
-11 25 -27 19z M3765 2520 c-4 -7 -3 -16 3 -22 14 -14 45 -2 40 15 -6 16 -34
21 -43 7z M3922 2433 c2 -10 10 -18 18 -18 8 0 16 8 18 18 2 12 -3 17 -18 17
-15 0 -20 -5 -18 -17z M740 2560 c-29 -18 5 -28 83 -23 77 6 97 15 55 27 -35
9 -121 7 -138 -4z M929 2550 c-23 -15 29 -31 92 -28 58 2 84 13 57 23 -23 9
-136 12 -149 5z M1648 2323 c-35 -9 -11 -33 33 -33 23 0 25 25 3 34 -9 3 -16
5 -17 5 -1 -1 -10 -3 -19 -6z M449 2234 c-9 -12 -6 -14 17 -15 16 -1 42 -2 58
-3 16 0 31 5 33 12 3 7 -5 12 -19 13 -12 1 -35 3 -50 4 -15 2 -32 -3 -39 -11z
M655 2220 c-32 -13 -3 -19 125 -25 63 -3 122 -6 130 -7 34 -3 54 2 44 12 -5 5
-59 14 -119 20 -127 12 -152 12 -180 0z M2590 2318 c-55 -25 -130 -29 -147 -8
-12 13 -15 13 -27 -2 -7 -10 -20 -18 -28 -18 -18 0 -31 -50 -18 -64 15 -15 40
2 40 29 0 14 4 25 9 25 13 0 20 -37 9 -48 -6 -6 -8 -18 -4 -27 5 -13 10 -14
27 -5 11 6 18 18 15 25 -2 7 5 21 16 32 21 18 21 18 15 -8 -5 -18 -2 -31 8
-39 12 -10 18 -7 32 19 21 36 39 35 35 -2 -3 -31 11 -41 44 -33 31 8 31 23 0
37 -22 10 -23 13 -9 40 19 38 31 37 25 -1 -3 -23 0 -30 12 -30 23 0 30 25 20
62 -12 40 -19 41 -74 16z M2487 2184 c-14 -15 -6 -34 14 -34 14 0 19 5 17 17
-3 18 -20 27 -31 17z M2545 2181 c-3 -6 -3 -11 2 -11 4 0 -3 -7 -15 -16 -27
-18 -19 -37 11 -29 12 2 16 2 10 -1 -27 -12 -7 -44 27 -44 4 0 7 24 6 52 -1
41 -5 53 -18 56 -9 2 -19 -2 -23 -7z M2406 2164 c-9 -23 -8 -24 19 -24 18 0
25 5 25 20 0 24 -35 28 -44 4z M2470 2125 c-10 -11 -10 -19 -2 -27 15 -15 44
-2 40 19 -4 23 -22 27 -38 8z M3172 2265 c-24 -25 -22 -45 4 -45 8 0 23 -5 33
-12 18 -11 18 -13 4 -35 -12 -18 -13 -27 -5 -35 17 -17 44 10 36 35 -5 17 -3
19 22 14 35 -6 54 1 54 22 1 14 2 14 11 -1 5 -10 17 -18 25 -18 26 0 26 28 0
57 -20 21 -28 25 -38 15 -9 -9 -15 -9 -27 2 -9 8 -34 17 -56 20 -34 5 -43 3
-63 -19z m92 -36 c6 -5 -3 -5 -21 0 -18 5 -34 7 -37 3 -3 -3 -6 0 -6 7 0 14
47 7 64 -10z M3390 2235 c0 -15 6 -25 14 -25 19 0 28 14 20 34 -10 25 -34 19
-34 -9z M3134 2195 c-6 -15 2 -35 14 -35 4 0 13 4 21 9 12 8 12 12 2 25 -17
20 -30 20 -37 1z M3271 2136 c-11 -13 -5 -46 8 -46 13 0 31 24 31 42 0 21 -23
24 -39 4z M3795 2340 c-11 -5 -43 -9 -71 -9 -39 -1 -55 -6 -72 -24 -27 -29
-28 -71 -2 -97 24 -24 60 -27 60 -5 0 8 -7 15 -15 15 -9 0 -20 11 -26 24 -10
20 -8 28 9 46 17 18 24 20 41 11 12 -7 21 -16 21 -21 0 -19 28 -10 44 15 9 14
25 25 36 25 26 0 62 -48 58 -79 -4 -36 -24 -37 -36 -1 -13 35 -35 39 -81 13
-41 -24 -62 -90 -35 -110 10 -7 21 -13 26 -13 4 0 8 -7 8 -15 0 -30 -40 -15
-64 24 -14 21 -38 43 -54 49 -21 7 -31 18 -35 42 -6 25 -11 31 -29 28 -28 -4
-34 -30 -12 -52 9 -9 15 -18 13 -20 -2 -1 -16 -10 -31 -19 -32 -20 -38 -57
-10 -57 10 0 27 7 38 15 28 21 37 18 30 -9 -7 -28 15 -51 40 -42 11 4 15 14
12 31 -6 30 8 34 17 5 10 -31 37 -40 123 -41 95 -2 105 2 97 44 -9 43 -24 57
-31 30 -6 -22 -36 -35 -60 -26 -22 8 -16 33 9 33 12 1 40 13 62 28 53 37 57
72 15 130 -31 43 -52 50 -95 32z M4110 2251 c-19 -6 -24 -13 -22 -32 1 -17 -1
-20 -7 -11 -11 18 -46 11 -46 -8 0 -9 9 -15 22 -15 12 0 25 -4 29 -8 16 -15
34 -6 34 17 0 18 6 25 23 28 24 3 31 32 7 34 -8 1 -26 -1 -40 -5z M4185 2250
c-4 -6 -1 -17 5 -26 15 -18 42 0 33 22 -6 16 -29 19 -38 4z M4232 2221 c-13
-8 -6 -41 8 -41 4 0 13 6 19 14 14 17 -8 39 -27 27z M4143 2184 c-3 -9 -1 -19
5 -23 6 -4 13 -23 16 -43 4 -30 1 -38 -15 -43 -33 -11 -23 -43 15 -51 51 -9
103 13 116 49 13 40 13 47 -4 47 -8 0 -21 -12 -28 -27 -7 -16 -16 -26 -19 -23
-3 3 -13 -1 -23 -9 -19 -16 -34 -7 -18 11 11 14 10 58 -3 95 -9 28 -34 38 -42
17z M4252 2167 c-15 -17 1 -42 23 -33 18 6 17 37 -1 43 -6 2 -16 -2 -22 -10z
M4432 1903 c4 -21 33 -25 33 -3 0 8 -8 16 -18 18 -14 3 -18 -1 -15 -15z M4483
1898 c2 -7 10 -13 17 -13 7 0 15 6 18 13 2 7 -5 12 -18 12 -13 0 -20 -5 -17
-12z M4544 1899 c-3 -6 -2 -15 2 -19 12 -12 38 5 30 19 -9 14 -23 14 -32 0z
M4487 1863 c-13 -12 -7 -23 13 -23 11 0 20 7 20 15 0 15 -21 21 -33 8z M4565
1829 c-10 -15 1 -23 20 -15 9 3 13 10 10 16 -8 13 -22 13 -30 -1z M4479 1814
c-13 -16 0 -24 37 -20 41 5 46 35 5 34 -17 -1 -36 -7 -42 -14z M4604 1809 c-7
-12 15 -31 28 -23 4 3 8 12 8 20 0 17 -26 19 -36 3z M4485 1770 c-8 -13 4 -32
16 -25 12 8 12 35 0 35 -6 0 -13 -4 -16 -10z M4627 1764 c-13 -13 -7 -24 14
-24 11 0 19 5 17 12 -5 14 -22 21 -31 12z M4625 1719 c-10 -15 1 -23 20 -15 9
3 13 10 10 16 -8 13 -22 13 -30 -1z M4480 1705 c0 -8 9 -15 20 -15 11 0 20 7
20 15 0 8 -9 15 -20 15 -11 0 -20 -7 -20 -15z M4185 1592 c-3 -3 -5 -13 -5
-21 0 -9 -9 -22 -19 -28 -16 -10 -18 -9 -14 6 7 26 -16 37 -35 18 -14 -15 -14
-17 1 -23 12 -4 15 -13 11 -30 -7 -26 13 -33 33 -13 7 7 20 9 30 5 14 -6 15
-9 4 -16 -17 -10 -6 -43 12 -37 6 2 12 10 13 18 0 8 5 22 9 33 5 11 4 21 -3
25 -15 9 1 33 19 29 8 -2 14 5 14 17 0 15 -7 20 -32 21 -18 1 -35 -1 -38 -4z
M4066 1491 c-3 -5 0 -14 8 -20 10 -8 16 -8 25 2 6 8 8 17 4 20 -9 10 -31 9
-37 -2z M3889 1464 c-14 -17 -2 -36 19 -32 10 1 22 0 27 -4 16 -10 39 8 32 25
-7 19 -64 27 -78 11z M4015 1460 c-8 -14 3 -30 21 -30 8 0 14 9 14 20 0 21
-24 28 -35 10z M3976 1425 c-6 -17 16 -31 33 -21 13 9 2 36 -14 36 -7 0 -16
-7 -19 -15z M3857 1423 c-14 -13 -6 -33 13 -33 13 0 20 7 20 20 0 19 -20 27
-33 13z M3987 1376 c-7 -16 1 -26 20 -26 7 0 13 9 13 20 0 23 -25 27 -33 6z
M3865 1371 c-9 -16 3 -31 26 -31 14 0 19 6 17 17 -4 20 -33 29 -43 14z M3937
1354 c-16 -16 -6 -35 16 -32 12 2 22 10 22 18 0 16 -26 25 -38 14z M4535 2268
c-48 -17 -65 -36 -59 -68 4 -15 1 -31 -5 -34 -17 -11 -13 -51 9 -79 17 -21 18
-26 5 -31 -20 -7 -19 -52 1 -60 11 -4 18 1 21 14 7 25 5 25 50 -6 32 -22 44
-24 78 -18 22 4 50 7 63 7 15 -1 22 4 18 12 -2 7 4 21 15 31 11 10 16 21 11
26 -14 14 -42 -2 -42 -23 0 -22 -11 -24 -28 -7 -18 18 -15 26 17 42 36 19 55
65 48 117 -7 54 -17 63 -73 60 -26 0 -50 3 -53 8 -10 15 -45 19 -76 9z m37
-51 c-11 -18 -17 -38 -15 -44 2 -7 -9 -1 -26 14 -34 30 -32 39 13 58 42 18 50
9 28 -28z m88 -13 c12 -30 -1 -54 -28 -54 -12 0 -13 3 -4 12 15 15 16 48 1 48
-5 0 -7 5 -4 10 11 17 25 11 35 -16z m40 -59 c0 -17 -14 -32 -37 -39 -29 -9
-31 14 -3 32 11 7 20 20 20 30 0 14 2 15 10 2 5 -8 10 -19 10 -25z m-162 6 c9
-5 30 -14 47 -21 l30 -12 -29 -24 c-39 -35 -96 -16 -96 31 0 35 15 43 48 26z
m90 -99 c2 -7 -3 -12 -12 -12 -9 0 -16 7 -16 16 0 17 22 14 28 -4z m-60 -13
c18 -13 37 -19 61 -17 21 2 36 -2 38 -9 8 -23 -91 -17 -112 7 -10 11 -25 20
-34 20 -14 0 -14 2 -1 10 20 13 18 13 48 -11z M1715 2090 c-10 -17 5 -49 20
-44 20 8 28 36 13 46 -17 10 -26 10 -33 -2z M687 2073 c-4 -3 -7 -11 -7 -17 0
-6 5 -5 12 2 6 6 9 14 7 17 -3 3 -9 2 -12 -2z M3055 1950 c-8 -14 3 -30 21
-30 16 0 16 2 8 24 -7 18 -20 21 -29 6z M3537 1899 c-19 -20 -23 -29 -14 -38
15 -15 27 -14 27 3 0 8 16 20 35 26 43 14 48 40 6 37 -15 -1 -40 -14 -54 -28z
M3735 1920 c-3 -5 -11 -7 -18 -4 -17 6 -61 -41 -52 -55 9 -16 35 -13 35 3 0
24 26 39 49 27 32 -17 25 -65 -11 -79 -35 -13 -28 -34 10 -29 61 8 78 113 21
134 -16 6 -31 7 -34 3z M3614 1889 c-8 -14 11 -33 25 -25 6 4 11 14 11 22 0
16 -26 19 -36 3z M3652 1838 c-7 -7 -12 -16 -12 -20 0 -12 28 -10 36 3 10 17
-10 31 -24 17z M3504 1829 c-8 -14 11 -33 25 -25 6 4 11 14 11 22 0 16 -26 19
-36 3z M3555 1821 c-8 -15 3 -31 21 -31 9 0 14 7 12 17 -4 20 -24 28 -33 14z
M3656 1773 c-12 -12 -6 -33 9 -33 8 0 15 6 15 14 0 17 -14 28 -24 19z M2824
1978 c-3 -5 -2 -14 4 -20 6 -6 12 -6 16 1 11 18 26 13 26 -8 0 -24 18 -37 32
-23 8 8 8 15 0 24 -5 7 -10 18 -9 23 3 13 -61 16 -69 3z M2740 1969 c0 -7 -7
-17 -15 -23 -14 -10 -14 -15 0 -44 19 -37 26 -39 50 -12 19 21 50 26 60 10 3
-5 21 -17 41 -26 21 -10 33 -23 32 -32 -2 -9 5 -18 15 -20 12 -2 17 3 17 17 0
12 -5 21 -11 21 -5 0 -8 4 -5 9 7 11 -20 34 -33 27 -5 -3 -11 1 -14 9 -8 20
-64 48 -72 35 -3 -6 -15 -10 -25 -10 -10 0 -21 -6 -23 -12 -4 -8 -6 -7 -6 3
-1 9 6 20 15 23 13 5 14 9 4 21 -15 18 -30 20 -30 4z M2727 1843 c-4 -3 -7
-12 -7 -20 0 -15 26 -18 34 -4 7 11 -18 33 -27 24z M2870 1796 c0 -21 21 -31
30 -15 5 7 6 17 4 21 -9 14 -34 9 -34 -6z M2703 1764 c-8 -21 13 -42 28 -27
13 13 5 43 -11 43 -6 0 -13 -7 -17 -16z M2833 1765 c-3 -9 -3 -18 0 -22 10
-10 37 6 37 22 0 20 -29 20 -37 0z M2522 1614 c2 -11 11 -20 22 -22 13 -3 17
1 14 14 -2 11 -11 20 -22 22 -13 3 -17 -1 -14 -14z M2434 1579 c-3 -6 0 -17 7
-25 18 -17 44 -2 36 20 -7 18 -33 21 -43 5z M2477 1542 c-20 -4 -20 -33 0 -39
13 -5 38 34 26 40 -5 2 -16 2 -26 -1z M2532 1513 c4 -21 33 -25 33 -3 0 8 -8
16 -18 18 -14 3 -18 -1 -15 -15z M2415 1450 c-4 -7 -3 -16 3 -22 14 -14 45 -2
40 15 -6 16 -34 21 -43 7z M2310 1440 c-13 -8 -13 -11 2 -27 21 -20 43 -6 32
20 -7 19 -13 21 -34 7z M2370 1400 c-11 -7 -12 -12 -3 -21 16 -16 44 -4 37 16
-7 17 -13 18 -34 5z M2424 1355 c-4 -8 -1 -22 6 -30 17 -20 40 -2 33 25 -6 24
-31 26 -39 5z M2321 1326 c-9 -10 -8 -16 4 -26 19 -16 41 1 32 24 -8 20 -21
20 -36 2z M2727 1589 c-34 -28 -37 -35 -37 -80 0 -48 3 -52 57 -104 56 -54 58
-64 10 -46 -30 11 -63 -8 -55 -31 5 -12 23 -14 90 -11 45 1 92 3 103 3 22 1
49 35 40 50 -4 7 -13 6 -26 0 -23 -13 -27 4 -4 17 8 5 16 18 18 30 1 11 8 27
14 35 29 37 34 57 20 90 -24 56 -49 71 -125 74 -64 3 -71 1 -105 -27z m111
-11 c-3 -7 -15 -15 -29 -17 -29 -4 -39 -17 -39 -51 0 -33 17 -50 50 -50 39 0
60 28 56 75 -2 22 -2 44 1 48 9 15 53 -38 53 -66 0 -22 -10 -34 -55 -62 -58
-38 -92 -44 -102 -19 -3 8 -16 20 -29 25 -31 11 -33 65 -3 103 16 20 29 26 61
26 27 0 38 -4 36 -12z m41 -179 c-12 -10 -29 -19 -38 -19 -11 0 -6 8 14 24 35
28 57 23 24 -5z M3206 1553 c-12 -12 -6 -33 9 -33 8 0 15 6 15 14 0 17 -14 28
-24 19z M3097 1534 c-14 -14 -7 -35 11 -32 9 2 17 10 17 17 0 16 -18 25 -28
15z M3245 1530 c-8 -12 20 -24 35 -15 6 3 8 11 5 16 -8 12 -32 12 -40 -1z
M3053 1475 c-7 -20 2 -29 21 -22 9 4 13 13 10 22 -8 19 -23 19 -31 0z M3146
1482 c-2 -4 -1 -14 4 -22 7 -11 11 -11 24 -1 9 7 13 17 10 22 -7 11 -31 12
-38 1z M3280 1460 c0 -15 5 -20 18 -18 9 2 17 10 17 18 0 8 -8 16 -17 18 -13
2 -18 -3 -18 -18z M3117 1423 c-13 -12 -7 -23 13 -23 11 0 20 7 20 15 0 15
-21 21 -33 8z M3254 1419 c-8 -14 11 -33 25 -25 6 4 11 14 11 22 0 16 -26 19
-36 3z M3047 1414 c-9 -10 12 -34 30 -34 19 0 12 34 -8 38 -8 1 -18 0 -22 -4z
M3204 1379 c-8 -14 11 -33 25 -25 6 4 11 14 11 22 0 16 -26 19 -36 3z M3273
1345 c-3 -9 -3 -18 0 -22 10 -10 37 6 37 22 0 20 -29 20 -37 0z M3452 1495 c4
-5 3 -14 -2 -20 -14 -16 14 -40 36 -31 14 6 15 9 2 28 -8 12 -21 24 -29 26 -8
3 -11 1 -7 -3z M3446 1411 c-10 -15 5 -41 23 -41 24 0 30 8 24 31 -5 19 -37
26 -47 10z M2426 1212 c-9 -10 -16 -27 -16 -38 0 -23 -18 -44 -37 -44 -7 0
-13 11 -13 24 0 33 -23 50 -49 36 -22 -11 -28 -30 -11 -30 5 0 15 -10 21 -22
10 -19 8 -24 -15 -41 -16 -11 -26 -28 -26 -43 0 -29 13 -31 31 -3 22 32 78 40
112 15 l29 -21 28 32 c16 17 37 36 48 42 16 8 19 20 18 52 -3 47 -12 55 -65
57 -26 1 -44 -4 -55 -16z m51 -52 c3 -12 8 -10 24 9 l19 23 0 -26 c0 -15 -6
-29 -14 -32 -21 -8 -56 14 -56 35 0 22 13 37 18 19 2 -7 6 -20 9 -28z M2340
959 c0 -5 5 -7 10 -4 6 3 10 8 10 11 0 2 -4 4 -10 4 -5 0 -10 -5 -10 -11z
M2310 885 c0 -8 10 -19 22 -24 l22 -8 -22 -19 c-24 -20 -28 -39 -12 -49 21
-13 36 14 35 62 -2 41 -5 48 -23 51 -15 2 -22 -2 -22 -13z M2393 823 c-7 -3
-13 -11 -13 -20 0 -17 41 -14 47 3 4 13 -16 23 -34 17z M2236 804 c-4 -10 -1
-21 5 -25 18 -11 40 1 37 20 -4 22 -34 26 -42 5z M2861 1247 c-6 -8 -9 -22 -5
-31 3 -9 1 -23 -6 -31 -11 -13 -16 -13 -41 1 -24 12 -28 19 -23 40 6 22 4 25
-12 22 -26 -5 -29 -65 -3 -79 15 -8 17 -14 9 -29 -15 -28 -2 -68 23 -72 16 -2
21 -12 24 -48 5 -51 17 -70 34 -53 7 7 8 20 3 34 -4 13 -7 29 -6 36 2 6 -2 15
-9 18 -6 5 1 14 20 26 30 18 41 39 22 39 -9 0 -8 38 1 109 4 28 -14 38 -31 18z
m1 -117 c6 0 6 -6 -2 -15 -17 -20 -50 -19 -50 1 0 9 8 23 18 30 14 10 18 10
20 -2 2 -8 8 -14 14 -14z M2744 1019 c-3 -6 -2 -15 2 -19 12 -12 38 5 30 19
-9 14 -23 14 -32 0z M2880 1015 c0 -10 7 -15 18 -13 21 4 19 22 -2 26 -10 2
-16 -3 -16 -13z M3594 1219 c-10 -17 13 -36 27 -22 12 12 4 33 -11 33 -5 0
-12 -5 -16 -11z M3533 1204 c-8 -21 13 -42 28 -27 13 13 5 43 -11 43 -6 0 -13
-7 -17 -16z M3662 1193 c2 -10 10 -18 18 -18 22 0 18 29 -3 33 -14 3 -18 -1
-15 -15z M3465 1170 c-4 -7 -3 -16 3 -22 14 -14 45 -2 40 15 -6 16 -34 21 -43
7z M3687 1143 c-4 -3 -7 -12 -7 -20 0 -15 26 -18 34 -4 7 11 -18 33 -27 24z
M3563 1114 c-10 -26 14 -41 35 -21 15 16 15 19 2 27 -21 14 -30 12 -37 -6z
M3455 1110 c-8 -14 3 -30 21 -30 8 0 14 9 14 20 0 21 -24 28 -35 10z M3669
1064 c-10 -13 -10 -17 1 -24 18 -11 30 -3 30 21 0 23 -13 25 -31 3z M3486
1051 c-9 -15 23 -36 36 -23 5 5 7 15 4 21 -9 13 -33 14 -40 2z M3584 1029 c-8
-14 11 -33 25 -25 16 10 13 36 -3 36 -8 0 -18 -5 -22 -11z M4440 1230 c-13 -8
-13 -11 2 -26 16 -17 18 -17 24 0 9 23 -7 38 -26 26z M4501 1218 c-11 -29 -3
-50 18 -46 10 2 16 13 16 32 0 36 -22 46 -34 14z M4306 1221 c-9 -15 23 -36
36 -23 5 5 7 15 4 21 -9 13 -33 14 -40 2z M4375 1220 c-4 -7 -3 -16 3 -22 14
-14 45 -2 40 15 -6 16 -34 21 -43 7z M4572 1217 c-14 -16 -6 -27 20 -27 13 0
18 6 16 17 -4 22 -22 27 -36 10z M4384 1169 c-8 -14 11 -33 25 -25 16 10 13
36 -3 36 -8 0 -18 -5 -22 -11z M4492 1123 c2 -10 10 -18 18 -18 22 0 18 29 -3
33 -14 3 -18 -1 -15 -15z M4384 1109 c-10 -17 13 -36 27 -22 12 12 4 33 -11
33 -5 0 -12 -5 -16 -11z M4491 1070 c-14 -8 -8 -40 7 -40 5 0 15 6 21 14 15
17 -8 39 -28 26z M4437 1024 c-14 -15 -6 -34 14 -34 14 0 19 5 17 17 -3 18
-20 27 -31 17z M4550 1010 c0 -23 25 -27 33 -6 7 16 -1 26 -20 26 -7 0 -13 -9
-13 -20z M3725 830 c-8 -13 4 -32 16 -25 12 8 12 35 0 35 -6 0 -13 -4 -16 -10z
M3702 774 c2 -11 11 -20 22 -22 13 -3 17 1 14 14 -2 11 -11 20 -22 22 -13 3
-17 -1 -14 -14z M4457 663 c-15 -14 -6 -23 22 -23 34 0 49 15 25 24 -21 8 -39
8 -47 -1z M2607 853 c-4 -3 -7 -15 -7 -25 0 -28 34 -19 38 10 3 21 -16 31 -31
15z M3852 893 c2 -10 12 -19 23 -22 11 -2 25 -10 31 -19 6 -8 16 -12 22 -8 7
4 12 1 12 -8 0 -8 6 -16 13 -19 9 -3 9 -7 0 -18 -15 -19 0 -44 21 -36 17 7 22
32 7 41 -4 3 -6 17 -3 31 3 20 0 25 -16 25 -12 0 -23 9 -27 20 -5 15 -12 19
-26 15 -11 -4 -19 -2 -19 4 0 6 -9 11 -21 11 -14 0 -19 -5 -17 -17z M4134 889
c-10 -17 23 -46 37 -32 7 7 9 19 6 27 -7 18 -33 21 -43 5z M4094 835 c-7 -18
3 -35 21 -35 18 0 26 15 19 34 -8 20 -33 21 -40 1z M4170 800 c-11 -7 -12 -14
-4 -27 15 -24 33 -28 40 -8 9 23 -16 47 -36 35z M3894 779 c-3 -6 1 -18 10
-27 14 -14 18 -15 25 -3 5 8 7 20 4 28 -6 16 -29 17 -39 2z M4012 777 c-16
-19 11 -58 28 -41 14 14 10 46 -6 51 -6 2 -16 -2 -22 -10z M4084 775 c-4 -9
-2 -21 4 -27 15 -15 44 -1 40 19 -4 23 -36 29 -44 8z M3941 716 c-8 -10 -8
-16 2 -24 17 -14 42 2 34 22 -8 20 -21 20 -36 2z M4104 719 c-10 -17 23 -46
37 -32 7 7 9 19 6 27 -7 18 -33 21 -43 5z M3081 887 c-8 -11 -5 -19 14 -35 28
-24 41 -27 50 -11 4 5 -5 21 -20 35 -31 28 -29 28 -44 11z M3213 844 c-7 -19
2 -28 22 -21 19 8 19 23 0 31 -9 3 -18 -1 -22 -10z M3220 785 c0 -8 5 -15 10
-15 6 0 10 -7 10 -15 0 -8 9 -15 20 -15 11 0 20 4 20 10 0 5 7 7 15 4 10 -4
15 0 15 15 0 12 -6 21 -15 21 -8 0 -15 -4 -15 -10 0 -5 -7 -10 -15 -10 -9 0
-12 6 -9 15 4 10 0 15 -15 15 -12 0 -21 -6 -21 -15z M3189 748 c4 -11 10 -19
14 -19 4 1 12 1 17 1 21 0 9 28 -14 32 -20 4 -23 2 -17 -14z M3144 729 c-3 -6
-2 -15 2 -19 12 -12 38 5 30 19 -9 14 -23 14 -32 0z M3286 731 c-4 -5 -2 -12
3 -15 5 -4 12 -2 15 3 4 5 2 12 -3 15 -5 4 -12 2 -15 -3z M2335 8720 c-12 -19
4 -243 17 -257 21 -20 70 11 122 77 l45 59 -24 30 c-14 16 -25 34 -25 39 0 20
-32 42 -61 42 -17 0 -39 5 -49 10 -13 7 -21 7 -25 0z M2470 8725 c0 -14 25
-55 36 -59 11 -4 54 41 54 58 0 3 -20 6 -45 6 -25 0 -45 -2 -45 -5z M2495
8511 c-29 -43 -26 -66 8 -57 12 3 26 1 33 -5 13 -10 61 -3 69 12 5 8 -63 89
-76 89 -3 0 -19 -18 -34 -39z M1270 8216 c0 -2 7 -7 16 -10 8 -3 12 -2 9 4 -6
10 -25 14 -25 6z M3170 8211 c0 -5 7 -15 17 -22 15 -13 15 -12 4 9 -12 23 -21
28 -21 13z M3030 8182 c0 -10 -14 -13 -47 -12 -80 3 -103 0 -103 -11 0 -6 27
-10 73 -9 141 3 155 1 160 -17 4 -17 5 -17 6 0 1 16 23 22 70 19 8 0 263 -3
566 -7 304 -4 558 -7 566 -7 8 -1 130 0 272 0 218 2 257 4 257 17 0 12 -96 14
-717 15 -395 1 -801 1 -902 0 -143 -1 -186 2 -192 12 -7 11 -9 11 -9 0z M2720
8161 c0 -12 41 -17 103 -13 75 6 55 22 -28 22 -41 0 -75 -4 -75 -9z M1210
8114 c0 -8 5 -12 10 -9 6 4 8 11 5 16 -9 14 -15 11 -15 -7z M2080 8120 c-8 -5
-10 -10 -5 -10 6 0 17 5 25 10 8 5 11 10 5 10 -5 0 -17 -5 -25 -10z M3055
8120 c3 -5 11 -10 16 -10 6 0 7 5 4 10 -3 6 -11 10 -16 10 -6 0 -7 -4 -4 -10z
M1920 7704 c0 -8 5 -12 10 -9 6 3 10 10 10 16 0 5 -4 9 -10 9 -5 0 -10 -7 -10
-16z M1232 7696 c7 -8 15 -12 17 -11 5 6 -10 25 -20 25 -5 0 -4 -6 3 -14z
M2228 7673 c7 -3 16 -2 19 1 4 3 -2 6 -13 5 -11 0 -14 -3 -6 -6z M3660 7676
c0 -2 7 -9 15 -16 13 -11 14 -10 9 4 -5 14 -24 23 -24 12z M1120 7590 c0 -5 5
-10 11 -10 5 0 7 5 4 10 -3 6 -8 10 -11 10 -2 0 -4 -4 -4 -10z M1380 7589 c0
-5 5 -7 10 -4 6 3 10 8 10 11 0 2 -4 4 -10 4 -5 0 -10 -5 -10 -11z M2660 7579
c0 -5 5 -7 10 -4 6 3 10 8 10 11 0 2 -4 4 -10 4 -5 0 -10 -5 -10 -11z M2986
7119 c3 -5 11 -9 19 -9 8 0 16 4 19 9 3 5 -5 9 -19 9 -14 0 -22 -4 -19 -9z
M3040 7120 c0 -5 7 -10 16 -10 8 0 12 5 9 10 -3 6 -10 10 -16 10 -5 0 -9 -4
-9 -10z M3765 7120 c-3 -5 1 -10 10 -10 9 0 13 5 10 10 -3 6 -8 10 -10 10 -2
0 -7 -4 -10 -10z M4156 7115 c4 -8 11 -15 16 -15 6 0 5 6 -2 15 -7 8 -14 15
-16 15 -2 0 -1 -7 2 -15z M4008 7113 c7 -3 16 -2 19 1 4 3 -2 6 -13 5 -11 0
-14 -3 -6 -6z M4060 7110 c0 -5 5 -10 11 -10 5 0 7 5 4 10 -3 6 -8 10 -11 10
-2 0 -4 -4 -4 -10z M1159 7043 c-13 -16 -12 -17 4 -4 16 13 21 21 13 21 -2 0
-10 -8 -17 -17z M1280 7050 c0 -5 12 -10 28 -10 21 0 24 2 12 10 -20 13 -40
13 -40 0z M3505 6570 c-3 -5 -1 -10 4 -10 6 0 11 5 11 10 0 6 -2 10 -4 10 -3
0 -8 -4 -11 -10z M3050 6563 c0 -5 11 -8 25 -8 14 0 25 3 25 8 0 4 -11 7 -25
7 -14 0 -25 -3 -25 -7z M1125 6480 c-3 -5 -1 -10 4 -10 6 0 11 5 11 10 0 6 -2
10 -4 10 -3 0 -8 -4 -11 -10z M2055 6460 c3 -5 8 -10 11 -10 2 0 4 5 4 10 0 6
-5 10 -11 10 -5 0 -7 -4 -4 -10z M2670 6079 c0 -5 5 -7 10 -4 6 3 10 8 10 11
0 2 -4 4 -10 4 -5 0 -10 -5 -10 -11z M2065 6070 c3 -5 8 -10 11 -10 2 0 4 5 4
10 0 6 -5 10 -11 10 -5 0 -7 -4 -4 -10z M2880 6059 c0 -5 5 -7 10 -4 6 3 10 8
10 11 0 2 -4 4 -10 4 -5 0 -10 -5 -10 -11z M4370 6050 c0 -5 5 -10 10 -10 6 0
10 5 10 10 0 6 -4 10 -10 10 -5 0 -10 -4 -10 -10z M2360 5640 c0 -5 5 -10 10
-10 6 0 10 5 10 10 0 6 -4 10 -10 10 -5 0 -10 -4 -10 -10z M3405 5630 c-3 -5
-1 -10 4 -10 6 0 11 5 11 10 0 6 -2 10 -4 10 -3 0 -8 -4 -11 -10z M2210 5529
c0 -5 5 -7 10 -4 6 3 10 8 10 11 0 2 -4 4 -10 4 -5 0 -10 -5 -10 -11z M275
2700 c3 -5 10 -10 16 -10 5 0 9 5 9 10 0 6 -7 10 -16 10 -8 0 -12 -4 -9 -10z
M4617 2514 c-8 -8 1 -24 14 -24 5 0 9 7 9 15 0 15 -12 20 -23 9z M4563 2498
c2 -7 10 -13 17 -13 7 0 15 6 18 13 2 7 -5 12 -18 12 -13 0 -20 -5 -17 -12z
M4717 2503 c-13 -12 -7 -23 13 -23 17 0 19 -5 14 -25 -4 -18 -2 -25 9 -25 8 0
17 11 19 25 4 18 -1 29 -18 40 -26 17 -28 17 -37 8z M4647 2484 c-9 -10 2 -24
19 -24 8 0 14 7 14 15 0 15 -21 21 -33 9z M4515 2471 c-3 -5 -1 -12 5 -16 12
-7 30 2 30 16 0 12 -27 12 -35 0z M4615 2450 c-11 -17 5 -32 21 -19 7 6 11 15
8 20 -7 12 -21 11 -29 -1z M4510 2432 c0 -10 22 -32 32 -32 4 0 8 9 8 20 0 13
-7 20 -20 20 -11 0 -20 -4 -20 -8z M4565 2420 c-11 -17 5 -32 21 -19 8 6 14
15 14 20 0 12 -27 11 -35 -1z M4688 2417 c-7 -7 -21 -16 -30 -20 -10 -3 -18
-11 -18 -17 0 -16 30 -12 36 5 4 8 15 15 25 15 10 0 19 4 19 9 0 17 -18 22
-32 8z M4640 2346 c0 -10 9 -16 21 -16 24 0 21 23 -4 28 -10 2 -17 -3 -17 -12z
M4745 2339 c-10 -15 3 -25 16 -12 7 7 7 13 1 17 -6 3 -14 1 -17 -5z M52 2010
c0 -14 2 -19 5 -12 2 6 2 18 0 25 -3 6 -5 1 -5 -13z M60 1840 c0 -5 7 -10 16
-10 8 0 12 5 9 10 -3 6 -10 10 -16 10 -5 0 -9 -4 -9 -10z M4764 1539 c-8 -14
21 -43 35 -35 19 12 13 46 -8 46 -11 0 -23 -5 -27 -11z M1809 1466 c-8 -7
-1300 -24 -1414 -18 -27 1 -97 1 -155 -1 -58 -2 -124 -5 -147 -6 -32 -1 -43
-5 -43 -17 0 -13 21 -14 176 -10 192 5 212 3 189 -21 -19 -19 -19 -33 0 -33 8
0 19 9 25 21 9 17 20 20 63 18 72 -3 459 11 469 17 17 11 27 -7 16 -26 -16
-25 -3 -37 19 -18 22 19 133 51 159 46 11 -2 -15 -12 -56 -22 -77 -19 -126
-46 -83 -46 11 0 39 7 62 15 29 10 64 12 118 8 123 -8 111 -23 -19 -23 -110 0
-118 -1 -146 -25 -37 -31 -46 -31 -69 -2 -24 29 -78 35 -92 10 -14 -28 2 -47
32 -39 14 3 36 2 49 -3 13 -6 17 -10 8 -11 -24 -1 -74 -46 -61 -54 16 -10 14
-26 -4 -26 -8 0 -15 -7 -15 -15 0 -23 8 -19 62 35 28 28 62 53 77 56 14 4 33
15 42 26 13 17 27 20 105 19 49 -1 97 -3 108 -4 10 -1 27 10 39 26 27 35 15
49 -51 58 l-47 6 62 2 c53 1 64 -2 77 -20 16 -24 49 -20 40 5 -9 24 17 30 111
26 87 -4 133 -4 185 1 61 5 110 -1 110 -14 0 -9 -11 -13 -32 -13 -18 1 -33 -5
-36 -13 -4 -11 2 -13 26 -8 19 4 34 1 41 -7 14 -16 4 -26 -26 -26 -14 0 -21
-4 -18 -10 3 -5 15 -10 25 -10 38 0 36 -25 -5 -44 -5 -3 0 -13 13 -22 12 -9
22 -25 22 -35 0 -15 -7 -19 -37 -18 -22 1 -29 4 -16 6 12 2 27 11 33 19 10 11
8 14 -13 14 -14 0 -29 -4 -32 -10 -3 -5 -18 -10 -33 -10 -15 0 -36 -7 -46 -15
-31 -24 -57 -19 -51 8 4 17 -2 27 -28 45 -18 12 -36 22 -40 22 -4 0 -7 -10 -7
-22 0 -20 -5 -23 -45 -23 -35 0 -45 4 -45 16 0 9 -17 23 -41 32 -36 14 -41 20
-37 42 5 22 2 26 -15 23 -13 -2 -23 -13 -27 -28 -6 -25 -6 -25 -125 -26 -81 0
-120 -4 -123 -12 -4 -14 5 -14 170 -16 79 -1 121 -5 129 -13 10 -11 0 -13 -52
-14 -98 -1 -114 -3 -116 -14 -2 -6 44 -10 122 -11 69 0 130 -5 135 -10 6 -6
-18 -10 -72 -9 -56 0 -83 -4 -85 -12 -4 -10 17 -13 80 -13 63 0 88 -4 97 -15
11 -13 8 -15 -26 -9 -22 3 -41 7 -44 9 -10 6 -35 -14 -27 -21 3 -4 19 -8 34
-9 76 -5 71 0 69 -62 l-1 -58 -107 -3 c-97 -2 -125 -10 -99 -26 4 -3 52 -6
106 -7 85 -1 98 -4 102 -19 6 -22 33 -34 46 -21 6 6 6 20 -1 39 -15 43 -2 55
46 47 26 -4 42 -2 47 5 11 17 -1 23 -50 24 -62 1 -62 26 0 26 25 0 45 4 45 9
0 15 -37 23 -70 16 -23 -5 -30 -3 -30 9 0 11 10 15 40 13 44 -1 55 5 47 28 -4
10 -19 15 -42 15 -22 0 -34 4 -30 10 3 6 22 10 42 10 26 0 43 -7 60 -26 22
-24 23 -28 13 -87 -6 -34 -10 -87 -8 -117 3 -51 5 -55 28 -56 53 -2 56 -4 41
-13 -8 -5 -11 -16 -8 -24 4 -11 0 -13 -14 -10 -13 4 -19 0 -19 -11 0 -9 3 -15
8 -15 4 1 9 1 12 -1 3 -1 22 -3 42 -5 58 -5 68 -16 44 -48 -17 -23 -149 -35
-172 -16 -13 11 -58 13 -116 5 -16 -2 -28 2 -28 8 -1 21 -47 67 -88 89 -22 12
-71 40 -109 62 -149 88 -252 122 -180 59 15 -13 24 -24 18 -24 -5 0 -13 5 -16
11 -4 5 -12 8 -18 6 -7 -2 -22 0 -35 4 -45 17 -72 18 -72 3 0 -7 -16 -20 -35
-28 -41 -18 -43 -27 -11 -69 13 -18 27 -49 31 -69 7 -36 6 -39 -22 -38 -4 0
-6 13 -5 29 2 17 -3 33 -10 38 -8 4 -29 32 -48 61 -34 53 -44 60 -55 42 -4 -7
-52 -10 -127 -9 -76 1 -124 -3 -131 -10 -6 -6 -9 -11 -7 -12 3 0 14 -2 25 -5
11 -2 39 -4 63 -5 23 -1 42 -6 42 -11 0 -5 -8 -8 -17 -7 -34 3 -63 -1 -63 -9
0 -16 49 -36 62 -25 7 6 45 10 83 10 39 1 62 -1 52 -4 -10 -3 -16 -10 -14 -16
2 -7 -3 -20 -11 -30 -22 -25 -2 -43 29 -26 13 6 27 17 31 23 4 6 8 0 8 -14 0
-26 -1 -27 -65 -32 -27 -3 -30 -1 -27 25 2 19 -2 27 -13 27 -8 0 -15 -6 -15
-14 0 -16 -86 -45 -113 -38 -11 3 -26 17 -35 31 -8 14 -34 41 -58 58 -34 26
-51 32 -81 30 -21 -1 -42 -5 -48 -9 -5 -3 -26 -9 -45 -13 -19 -4 -42 -13 -52
-19 -19 -12 -24 -36 -8 -36 7 0 7 -6 2 -17 -12 -23 -5 -43 15 -43 12 0 14 7
10 29 -10 51 60 88 88 48 l15 -22 24 29 23 30 40 -40 c48 -48 63 -83 36 -85
-10 -1 -42 -3 -71 -4 -36 -2 -52 0 -51 8 3 25 -1 38 -11 32 -6 -4 -8 -15 -5
-26 6 -17 1 -19 -47 -20 -29 -1 -66 -3 -83 -5 -16 -2 -40 4 -53 12 -18 12 -27
13 -37 4 -8 -6 -29 -11 -47 -9 -63 4 -88 -1 -88 -16 0 -11 12 -15 48 -16 93
-3 209 -1 327 5 384 20 401 21 780 18 105 -1 296 0 425 1 l235 3 -2 189 c-5
455 -9 546 -24 556 -15 10 -23 11 -30 5z m-259 -266 c0 -5 -10 -10 -22 -10
-19 0 -20 2 -8 10 19 13 30 13 30 0z m220 -35 c13 8 50 -4 50 -16 0 -5 -29 -8
-65 -7 -55 1 -65 4 -65 19 0 29 30 39 52 17 10 -10 23 -16 28 -13z m4 -56 c35
-2 46 -6 46 -18 0 -13 -10 -15 -55 -13 -47 3 -55 7 -55 24 0 10 4 17 9 14 5
-3 29 -7 55 -7z m46 -75 c0 -10 -14 -14 -55 -14 -39 0 -55 4 -55 13 0 10 16
14 55 15 41 0 55 -4 55 -14z m-29 -53 c-18 -12 -81 -12 -81 0 0 5 21 9 48 9
31 0 42 -3 33 -9z m-12 -45 c-12 -10 -79 -16 -79 -6 0 5 19 10 42 10 23 0 39
-2 37 -4z m-769 -16 c0 -5 -12 -10 -27 -9 -25 0 -26 1 -8 9 27 12 35 12 35 0z
m70 0 c0 -5 -5 -10 -11 -10 -5 0 -7 5 -4 10 3 6 8 10 11 10 2 0 4 -4 4 -10z
m120 0 c11 -7 3 -10 -30 -9 -34 0 -40 2 -25 9 27 12 37 12 55 0z m-394 -29
c-18 -7 -66 -3 -66 5 0 2 19 4 43 3 30 0 36 -3 23 -8z m464 -6 c11 -13 8 -15
-21 -16 -113 -3 -203 0 -197 7 3 3 45 6 92 6 48 1 89 5 92 10 8 12 20 10 34
-7z m-260 -9 c0 -3 -4 -8 -10 -11 -5 -3 -10 -1 -10 4 0 6 5 11 10 11 6 0 10
-2 10 -4z m158 -34 c9 -2 10 -7 2 -21 -7 -13 -7 -22 0 -26 16 -10 31 5 25 26
-6 17 -2 19 39 17 45 -1 57 -10 35 -24 -8 -4 -7 -9 2 -15 19 -11 31 0 24 22
-10 29 22 35 55 10 16 -11 32 -21 35 -21 3 0 17 -7 30 -16 27 -18 23 -48 -6
-41 -10 3 -23 -1 -29 -8 -14 -17 -50 -15 -50 2 0 22 -21 25 -27 3 -4 -15 -10
-19 -22 -14 -9 3 -34 8 -56 11 -22 2 -46 12 -53 21 -12 16 -14 16 -26 0 -17
-23 -65 -24 -73 -2 -8 21 17 36 35 22 10 -9 16 -8 22 2 11 18 3 30 -21 30 -10
0 -19 5 -19 10 0 19 -22 10 -28 -12 -5 -21 -6 -21 -12 -2 -10 28 31 37 118 26z
m-268 -63 c0 -10 -4 -19 -10 -19 -5 0 -9 11 -8 24 3 28 18 24 18 -5z m140 -20
c0 -5 -4 -9 -10 -9 -5 0 -10 7 -10 16 0 8 5 12 10 9 6 -3 10 -10 10 -16z
M1222 796 c1 -10 8 -17 13 -17 15 1 12 24 -3 29 -9 3 -13 -2 -10 -12z M1356
793 c-3 -3 -3 -10 0 -14 7 -12 34 -11 34 0 0 11 -26 22 -34 14z M4824 1455
c-7 -17 4 -37 17 -30 12 8 12 45 -1 45 -6 0 -13 -7 -16 -15z M1494 1395 c-3
-8 -3 -19 0 -24 9 -13 36 -2 36 14 0 19 -30 27 -36 10z M1575 1391 c-12 -12
-1 -17 40 -19 25 -1 45 3 45 8 0 6 -6 10 -12 11 -7 0 -26 2 -41 3 -15 1 -30 0
-32 -3z M243 1383 c-22 -8 -14 -23 13 -23 15 0 24 5 22 12 -5 14 -18 18 -35
11z M540 1380 c-93 -5 -110 -12 -110 -40 0 -11 -10 -20 -25 -24 -28 -7 -33
-24 -10 -33 9 -3 81 -1 162 4 l146 10 28 -31 c22 -24 31 -28 38 -17 5 8 16 11
31 6 33 -11 91 -8 103 4 8 8 7 11 -3 13 -8 0 -19 2 -25 3 -5 2 -14 3 -20 4 -5
1 -3 6 5 11 11 7 12 12 3 21 -8 8 -23 6 -57 -9 -25 -12 -46 -17 -46 -12 0 4
25 19 56 31 31 13 50 25 42 28 -7 2 -17 10 -23 18 -12 15 -158 22 -295 13z
m128 -30 c15 -1 15 -2 2 -10 -9 -4 -60 -12 -115 -15 -87 -6 -98 -5 -87 8 9 10
33 15 79 16 36 0 69 3 72 6 3 3 11 3 19 0 7 -3 21 -5 30 -5z m114 -12 c-13
-13 -64 -15 -69 -1 -5 12 31 21 60 14 11 -2 15 -7 9 -13z M4773 1379 c-16 -16
-5 -39 19 -39 14 0 19 6 16 22 -4 25 -19 33 -35 17z M75 1370 c-17 -28 31 -48
56 -23 7 7 1 14 -20 21 -17 6 -33 7 -36 2z M1425 1370 c-9 -15 4 -30 26 -30
23 0 26 25 3 34 -21 8 -22 8 -29 -4z M159 1359 c-12 -8 -12 -10 1 -19 23 -15
50 -12 44 4 -7 19 -28 26 -45 15z M1575 1356 c-18 -13 -18 -14 2 -24 15 -9 25
-8 39 3 17 13 17 16 4 25 -20 13 -23 13 -45 -4z M305 1330 c-11 -13 -14 -20
-6 -20 21 0 52 21 46 31 -9 14 -20 11 -40 -11z M1665 1340 c-8 -13 3 -30 20
-30 20 0 30 21 14 31 -18 11 -26 11 -34 -1z M1452 1298 c3 -26 51 -53 75 -44
12 5 13 9 3 21 -7 8 -18 15 -25 15 -7 0 -18 7 -25 15 -18 22 -32 18 -28 -7z
M4822 1313 c-10 -4 -10 -8 -1 -19 16 -20 29 -17 29 6 0 20 -5 23 -28 13z M78
1298 c17 -17 15 -25 -8 -31 -12 -3 -20 -14 -20 -26 0 -14 5 -19 15 -15 8 4 15
1 15 -5 0 -6 -7 -11 -15 -11 -8 0 -15 -9 -15 -20 0 -11 5 -20 11 -20 8 0 8 -4
2 -12 -6 -7 -11 -32 -12 -55 -1 -41 0 -43 29 -43 17 0 30 -4 30 -10 0 -17 101
-12 114 5 8 12 34 17 94 19 45 2 82 0 82 -4 0 -25 -50 -44 -149 -56 -41 -5
-53 -12 -45 -25 3 -6 19 -7 36 -4 16 4 39 8 51 9 38 4 101 28 120 44 16 14 19
14 27 2 6 -8 10 -25 10 -37 0 -19 -4 -21 -42 -18 -23 3 -46 1 -52 -3 -14 -10
-81 -33 -125 -43 -28 -6 -49 -2 -104 22 -81 34 -77 33 -77 13 0 -15 67 -51
109 -57 13 -2 27 -10 31 -18 14 -22 110 -30 133 -11 7 6 29 13 50 17 40 8 49
24 17 32 -31 8 -13 23 30 23 29 0 43 6 57 25 17 23 24 25 143 30 69 3 166 8
217 11 86 5 91 5 98 -15 9 -31 37 -28 29 3 -4 18 0 28 15 38 12 7 21 20 21 28
-1 21 -58 82 -70 75 -16 -10 -11 -29 10 -43 28 -17 25 -39 -7 -46 -82 -16
-446 -27 -459 -13 -18 17 19 25 127 26 67 1 130 6 141 12 10 6 28 7 39 4 30
-10 101 -15 122 -9 9 3 17 12 17 21 0 11 -8 14 -30 11 -16 -3 -30 -1 -30 3 0
4 10 9 23 11 12 2 21 8 20 13 -3 14 -52 19 -66 7 -7 -6 -28 -13 -47 -17 -33
-6 -36 -4 -55 37 -11 23 -20 53 -20 67 0 20 -6 27 -25 29 -20 2 -22 1 -10 -8
12 -8 9 -9 -11 -4 -34 7 -46 -11 -19 -28 26 -16 63 -85 56 -103 -3 -10 -34
-13 -117 -14 -61 0 -110 1 -108 4 6 5 87 14 147 14 38 1 52 5 52 16 0 7 -6 18
-12 22 -7 4 -13 14 -13 22 0 8 -13 16 -29 18 -16 2 -37 8 -45 12 -9 5 -22 6
-28 4 -25 -9 -13 -31 25 -46 l37 -16 -40 -2 c-22 0 -62 -2 -90 -4 -161 -9
-205 -8 -205 4 0 5 52 12 115 16 63 4 118 12 121 17 9 15 -17 29 -42 23 -44
-10 -214 -16 -214 -7 0 5 21 9 48 10 47 2 189 13 227 18 11 1 34 3 51 3 20 1
34 7 38 18 6 15 -3 15 -96 9 -176 -12 -193 -11 -190 7 2 10 -1 17 -6 17 -17 0
-72 -32 -72 -41 0 -6 -4 -8 -9 -4 -6 3 -13 -1 -18 -9 -4 -8 -17 -14 -28 -13
-17 2 -20 -5 -23 -45 -2 -27 -8 -48 -14 -48 -5 0 -8 7 -5 15 8 18 -11 30 -40
26 -13 -1 -23 2 -23 7 0 5 14 9 31 10 42 1 45 6 20 38 -12 15 -19 35 -16 44 4
11 -3 20 -20 28 -35 16 -53 16 -37 0z m192 -138 c0 -5 -4 -10 -10 -10 -5 0
-10 5 -10 10 0 6 5 10 10 10 6 0 10 -4 10 -10z m-160 -20 c0 -5 -5 -10 -11
-10 -5 0 -7 5 -4 10 3 6 8 10 11 10 2 0 4 -4 4 -10z m327 -26 c-3 -3 -12 -4
-19 -1 -8 3 -5 6 6 6 11 1 17 -2 13 -5z m-154 -11 c-7 -2 -21 -2 -30 0 -10 3
-4 5 12 5 17 0 24 -2 18 -5z m-96 -16 c3 -4 -10 -7 -31 -7 -20 0 -35 4 -32 8
5 9 53 8 63 -1z m118 -167 c-3 -5 -10 -10 -16 -10 -5 0 -9 5 -9 10 0 6 7 10
16 10 8 0 12 -4 9 -10z M1702 1292 c-28 -9 -11 -32 23 -32 23 0 35 5 35 14 0
14 -36 26 -58 18z M1610 1267 c0 -20 50 -41 64 -27 8 8 6 15 -8 26 -25 18 -56
18 -56 1z M155 1261 c-7 -12 31 -25 45 -16 6 4 8 11 5 16 -8 12 -42 12 -50 0z
M1150 1230 c-14 -27 -16 -80 -3 -88 6 -4 20 -29 32 -56 16 -37 24 -46 34 -38
9 8 16 6 24 -7 9 -15 24 -18 83 -16 39 1 92 -1 116 -5 54 -8 62 0 29 28 -14
12 -25 26 -25 30 0 14 -60 40 -134 56 -38 9 -76 21 -84 28 -8 7 -22 13 -31 13
-12 0 -15 8 -14 32 3 39 -12 51 -27 23z m65 -99 c3 -5 1 -12 -5 -16 -5 -3 -10
1 -10 9 0 18 6 21 15 7z m108 -38 c-7 -2 -21 -2 -30 0 -10 3 -4 5 12 5 17 0
24 -2 18 -5z m37 -33 c8 -2 -7 -6 -35 -10 -52 -7 -69 -5 -60 10 5 8 45 7 95 0z
m60 0 c20 -12 9 -21 -18 -13 -12 3 -19 9 -16 14 7 11 15 11 34 -1z M749 1204
c-13 -16 -10 -17 59 -16 49 0 72 7 72 22 0 16 -118 10 -131 -6z M4782 1175
c-54 -29 -64 -93 -23 -155 9 -14 16 -31 16 -39 0 -22 32 -38 46 -24 9 9 9 16
-1 28 -10 13 -9 15 9 15 14 0 21 6 21 18 0 15 -6 18 -29 14 -40 -6 -48 14 -11
27 35 12 47 35 30 57 -10 11 -10 18 -2 26 34 34 -7 58 -56 33z M2050 1075 c0
-28 8 -31 35 -12 21 16 12 37 -16 37 -14 0 -19 -7 -19 -25z M695 993 c-11 -2
-60 -4 -110 -5 -72 -2 -90 -6 -90 -18 0 -17 -1 -17 217 -8 136 6 164 11 152
29 -5 8 -103 9 -169 2z M1577 993 c-30 -8 -13 -28 27 -31 32 -3 37 -1 34 15
-3 18 -28 25 -61 16z M1372 952 c-13 -2 -21 -9 -19 -15 2 -8 30 -12 76 -13 48
-1 70 3 68 10 -4 12 -86 23 -125 18z M1565 930 c-8 -12 17 -23 41 -18 10 1 19
9 22 16 5 15 -54 17 -63 2z M1438 902 c-32 -6 -19 -22 17 -22 39 0 55 -21 36
-44 -8 -10 -9 -16 -1 -21 5 -3 10 1 10 9 0 9 5 16 10 16 6 0 10 -7 10 -15 0
-21 17 -19 23 4 3 12 13 19 30 19 16 0 27 -7 30 -19 6 -21 27 -26 27 -6 0 25
-39 47 -85 47 -35 0 -43 3 -39 15 4 8 2 15 -2 16 -5 0 -18 2 -29 3 -11 1 -28
0 -37 -2z M4750 866 c0 -8 5 -18 10 -21 6 -4 8 -15 5 -24 -7 -24 18 -46 33
-28 7 8 7 18 2 27 -6 8 -10 25 -10 38 0 15 -6 22 -20 22 -11 0 -20 -6 -20 -14z
M50 799 c0 -35 2 -37 46 -48 67 -17 154 8 154 44 0 13 -34 10 -55 -5 -37 -26
-94 -16 -126 23 l-18 22 -1 -36z M346 801 c-4 -6 -3 -19 3 -28 9 -17 10 -17
17 0 8 21 -10 45 -20 28z M1555 800 c4 -6 11 -8 16 -5 14 9 11 15 -7 15 -8 0
-12 -5 -9 -10z M4820 790 c0 -11 7 -20 15 -20 8 0 15 9 15 20 0 11 -7 20 -15
20 -8 0 -15 -9 -15 -20z M464 789 c-10 -17 13 -36 27 -22 12 12 4 33 -11 33
-5 0 -12 -5 -16 -11z M1665 790 c-7 -12 2 -30 16 -30 12 0 12 27 0 35 -5 3
-12 1 -16 -5z M1730 780 c0 -5 5 -10 11 -10 5 0 7 5 4 10 -3 6 -8 10 -11 10
-2 0 -4 -4 -4 -10z M4785 766 c-15 -11 -15 -13 -1 -25 9 -7 22 -11 30 -8 7 3
19 0 25 -6 8 -8 11 -7 11 4 0 7 -11 22 -24 31 -19 14 -27 15 -41 4z M507 763
c-12 -11 -8 -23 8 -23 8 0 15 7 15 15 0 16 -12 20 -23 8z M4746 715 c-3 -8 3
-19 13 -24 21 -12 31 -5 31 21 0 22 -35 25 -44 3z M4100 275 c0 -8 5 -15 10
-15 6 0 10 7 10 15 0 8 -4 15 -10 15 -5 0 -10 -7 -10 -15z"/>
</g>
</svg>
