<?xml version="1.0" standalone="no"?>
<!DOCTYPE svg PUBLIC "-//W3C//DTD SVG 20010904//EN"
 "http://www.w3.org/TR/2001/REC-SVG-20010904/DTD/svg10.dtd">
<svg version="1.0" xmlns="http://www.w3.org/2000/svg"
 width="500.000000pt" height="878.000000pt" viewBox="0 0 500.000000 878.000000"
 preserveAspectRatio="xMidYMid meet">
<metadata>
Created by potrace 1.16, written by Peter Selinger 2001-2019
</metadata>
<g transform="translate(0.000000,878.000000) scale(0.100000,-0.100000)"
fill="#000000" stroke="none">
<path d="M50 8554 c0 -167 1 -175 19 -169 30 9 65 -10 86 -49 19 -35 19 -36
-3 -81 -20 -42 -24 -45 -62 -45 l-40 0 0 -66 c0 -41 4 -63 10 -59 5 3 10 1 10
-4 0 -6 -4 -11 -10 -11 -6 0 -10 -47 -10 -120 l0 -121 47 7 c26 3 100 7 165 8
87 1 118 4 118 13 0 7 4 13 9 13 10 0 20 -150 11 -162 -11 -15 -269 -13 -322
3 l-27 7 -1 -208 0 -208 36 -7 c44 -8 84 -45 84 -79 0 -35 -54 -86 -91 -86
l-29 0 0 -235 0 -234 33 5 c17 3 50 11 72 16 48 13 194 13 207 0 11 -11 17
-141 6 -148 -13 -8 -271 -9 -295 0 l-23 7 0 -176 c0 -171 1 -175 19 -165 36
19 78 12 100 -16 56 -71 -15 -183 -96 -153 l-23 9 0 -157 0 -156 42 7 c24 3
99 9 168 12 69 3 132 6 141 8 15 3 17 -9 18 -90 1 -86 0 -94 -17 -94 -10 0
-21 3 -25 6 -3 3 -78 7 -167 8 l-160 1 2 -200 3 -199 43 1 c32 1 45 -3 52 -17
26 -49 -10 -110 -66 -110 l-34 0 0 -215 c0 -198 1 -215 18 -215 9 0 57 5 107
10 50 5 117 12 150 16 33 3 62 6 65 7 3 1 15 -2 27 -7 22 -7 22 -11 16 -84 -3
-42 -8 -79 -10 -82 -13 -15 -273 -3 -345 15 l-28 7 0 -237 c0 -201 2 -236 14
-232 53 21 83 18 114 -9 24 -21 29 -31 21 -45 -11 -22 -2 -49 17 -49 9 0 14
11 14 28 0 16 8 36 18 45 24 21 115 37 252 43 63 3 123 7 133 9 18 3 19 -3 15
-85 -1 -49 -7 -92 -11 -97 -14 -13 -266 -8 -334 6 -35 8 -68 20 -74 27 -16 20
-50 17 -56 -4 -6 -25 -57 -45 -93 -37 l-30 7 0 -511 c0 -501 0 -510 20 -516
11 -3 20 -10 20 -15 0 -5 20 -16 45 -26 25 -9 45 -20 45 -25 0 -4 13 -10 29
-14 16 -3 39 -14 50 -23 49 -41 67 -52 98 -63 22 -7 33 -17 33 -30 0 -24 -2
-24 -42 1 -33 20 -68 27 -68 13 1 -5 23 -19 50 -32 27 -13 51 -30 54 -37 3 -8
12 -14 21 -14 8 0 15 -4 15 -10 0 -15 -11 -12 -59 15 -23 14 -49 25 -57 25
-18 0 -18 -29 1 -36 11 -5 12 -10 2 -24 -9 -15 -8 -23 7 -39 18 -20 18 -21 1
-21 -14 0 -16 -6 -12 -28 8 -40 -5 -57 -32 -43 -35 19 -46 2 -17 -26 29 -26
30 -31 16 -53 -8 -12 -12 -13 -19 -2 -12 20 -47 10 -43 -12 3 -15 0 -16 -19
-6 -18 10 -24 9 -31 -4 -8 -14 -12 -14 -46 3 -51 25 -62 18 -62 -38 0 -41 3
-47 20 -47 10 1 19 -3 19 -9 0 -5 -9 -10 -19 -9 -15 0 -20 -6 -20 -28 0 -31
-10 -29 145 -33 162 -3 185 -5 185 -14 0 -6 -24 -9 -53 -9 -29 1 -57 -1 -63
-3 -5 -3 -20 -4 -34 -3 -36 3 -121 6 -152 5 -27 -1 -28 -3 -28 -52 0 -31 4
-48 10 -44 5 3 10 19 10 36 0 16 5 29 10 29 6 0 10 -12 10 -26 0 -32 22 -27
30 6 7 29 37 34 53 9 14 -23 37 -25 37 -4 0 8 5 15 11 15 6 0 9 -6 6 -14 -3
-8 1 -22 8 -33 13 -17 15 -16 27 15 7 17 21 35 30 38 31 9 76 -6 81 -28 7 -26
32 -18 31 11 -1 26 13 28 21 2 4 -13 -1 -27 -14 -40 -12 -12 -21 -32 -21 -45
0 -29 -5 -33 -45 -37 -27 -4 -30 -1 -30 26 -1 20 -6 31 -18 33 -12 3 -17 -3
-17 -22 0 -37 -19 -42 -26 -7 -9 41 -32 40 -36 -1 -3 -30 -6 -33 -41 -35 -26
-2 -40 3 -44 12 -7 20 -29 19 -37 0 -3 -9 -14 -15 -23 -13 -26 4 -31 -48 -6
-53 23 -6 133 -4 313 5 80 4 242 7 360 7 282 -2 293 -2 300 9 6 10 492 16 507
7 5 -3 137 -4 293 -1 331 5 391 5 402 -2 10 -6 4 -171 -6 -181 -6 -6 -39 -7
-1001 -18 -330 -3 -681 -8 -780 -10 -99 -3 -231 -4 -292 -5 -91 0 -113 -3
-113 -14 0 -12 35 -14 227 -10 125 3 224 2 220 -3 -11 -10 -22 -11 -222 -13
-172 -1 -225 -7 -225 -22 0 -6 183 -7 503 -4 797 9 1676 11 1683 3 10 -9 3
-162 -11 -262 -12 -83 -16 -134 -15 -172 1 -44 -14 -58 -25 -24 -3 11 -13 22
-23 26 -14 6 -93 13 -149 15 -7 0 -13 5 -13 11 0 6 26 9 72 8 44 -1 73 2 75 8
6 18 -18 27 -82 28 -33 1 -59 5 -57 11 3 13 132 15 132 1 0 -5 9 -2 20 8 28
25 12 33 -71 36 -70 2 -89 7 -89 20 0 5 28 8 61 6 88 -3 91 19 5 28 -69 8 -91
25 -31 25 46 0 85 19 85 42 0 26 -44 40 -97 32 -47 -7 -73 -32 -73 -70 0 -25
-24 -49 -40 -39 -6 4 -22 4 -36 1 -17 -5 -24 -13 -24 -30 0 -30 23 -50 49 -41
10 3 31 3 46 -1 25 -6 25 -7 9 -25 -10 -11 -19 -17 -22 -14 -10 10 -32 -18
-32 -41 0 -17 8 -27 24 -34 36 -13 39 -26 11 -44 -31 -21 -48 -52 -40 -76 10
-33 35 -24 35 12 0 21 3 29 10 22 5 -5 12 -91 15 -189 6 -176 15 -225 41 -225
10 0 12 12 9 43 -2 23 -7 96 -10 162 -3 66 -7 136 -9 155 -2 19 0 45 5 58 8
21 14 22 96 20 49 -1 94 0 102 3 12 3 14 -11 15 -71 0 -41 -3 -95 -7 -120 -4
-25 -9 -56 -11 -70 -17 -123 -81 -273 -131 -306 -21 -13 -137 -16 -977 -19
-524 -2 -970 -4 -990 -4 -27 -1 -38 -5 -38 -16 0 -13 85 -15 703 -15 386 -1
709 -1 717 -1 8 0 134 3 279 7 l264 7 -24 -32 -23 -31 21 -22 c27 -26 76 -35
167 -27 39 3 77 1 83 -4 8 -5 41 -6 80 -2 38 4 91 7 120 6 28 -1 60 3 70 9 12
8 30 9 53 3 45 -12 172 25 209 61 l26 24 400 0 c220 0 670 3 1000 6 330 4 635
7 678 6 59 0 77 3 77 14 0 11 -24 13 -137 10 -76 -3 -148 -2 -161 1 -21 5 -22
7 -7 22 12 11 19 13 24 5 4 -6 17 -9 29 -5 12 3 20 9 17 13 -7 11 75 2 89 -9
6 -6 42 -9 79 -8 l67 2 -1 60 c0 33 -3 53 -6 45 -4 -8 -13 -20 -21 -26 -8 -6
-12 -16 -8 -22 4 -7 2 -12 -3 -12 -6 0 -11 9 -11 21 0 15 -5 20 -22 17 -15 -2
-22 -9 -22 -21 2 -15 -4 -17 -35 -11 -20 4 -37 7 -38 8 -2 1 -6 243 -4 264 1
10 16 12 64 7 34 -3 72 -8 84 -11 15 -3 23 0 23 9 0 11 -113 38 -163 38 -17 0
-18 7 -12 72 6 72 14 181 15 205 0 15 79 17 128 3 28 -8 32 -7 32 9 0 23 -19
30 -86 30 l-54 0 6 133 c7 190 9 197 43 197 51 0 91 20 91 45 0 25 -17 35 -62
35 -23 0 -29 -4 -26 -17 3 -13 12 -17 31 -15 15 1 27 -2 27 -8 0 -13 -77 -13
-85 -1 -3 5 -2 35 1 65 l7 56 23 -25 c13 -14 31 -25 42 -25 10 0 23 -5 30 -12
9 -9 12 -6 12 15 0 23 -4 27 -29 27 -17 0 -31 6 -35 16 -10 25 2 34 30 24 14
-6 27 -10 30 -10 2 0 4 21 4 47 0 25 -3 43 -7 39 -5 -4 -8 -13 -8 -19 0 -18
-25 -20 -31 -2 -9 22 12 65 31 65 8 0 15 5 15 10 0 6 -13 10 -30 10 -16 0 -30
-4 -30 -8 0 -5 -6 -17 -14 -28 -13 -17 -14 -15 -13 23 l2 41 43 -5 c36 -4 42
-2 42 14 0 13 -9 19 -31 20 -18 1 -34 5 -36 7 -3 3 2 54 11 115 9 60 16 123
16 140 0 24 4 31 20 31 22 0 26 20 8 38 -9 9 -9 26 0 75 7 36 12 80 11 98 0
30 -3 26 -23 -31 -12 -36 -27 -78 -32 -95 -9 -28 -12 -30 -54 -26 -25 2 -48 8
-51 13 -4 6 -16 7 -30 2 -25 -8 -201 -7 -232 3 -14 3 -17 11 -13 26 4 12 11
49 17 82 5 33 21 83 34 110 l24 50 143 -2 c79 -1 160 -4 181 -6 31 -4 37 -1
37 14 0 12 -7 19 -20 19 -20 0 -20 0 0 20 11 11 20 31 20 45 l0 26 -30 -23
c-25 -18 -34 -20 -49 -11 -14 9 -29 9 -55 2 -20 -6 -46 -7 -56 -4 -21 7 -26
39 -10 65 7 12 13 10 34 -13 29 -31 47 -28 89 15 15 16 27 22 25 14 -3 -14 0
-16 20 -16 14 0 34 52 24 62 -6 6 -33 3 -68 -6 -33 -8 -70 -12 -84 -10 -18 4
-34 -2 -54 -21 -23 -22 -27 -32 -22 -57 8 -42 23 -58 56 -58 15 0 30 -7 34
-15 4 -12 -3 -15 -34 -13 -26 1 -40 6 -40 15 0 7 -4 13 -10 13 -5 0 -16 15
-24 34 -13 31 -33 53 -40 45 -2 -2 -6 -19 -9 -36 -5 -23 -3 -33 6 -33 7 0 18
-9 25 -20 9 -15 9 -20 0 -20 -26 0 -78 25 -78 37 0 8 14 41 31 75 23 45 33 58
42 49 18 -18 31 -13 49 19 20 36 8 47 -27 24 -15 -9 -25 -12 -25 -5 0 18 44
41 68 34 13 -3 22 -13 22 -24 0 -12 7 -19 20 -19 12 0 20 7 20 16 0 13 8 15
38 10 20 -3 53 -7 72 -8 l35 -3 3 518 2 517 -57 0 c-188 1 -601 -1 -948 -4
-468 -5 -535 -2 -535 25 0 13 8 19 23 20 19 1 469 4 1285 8 195 1 232 3 232
15 0 13 -105 15 -764 13 -420 -1 -767 1 -771 4 -3 4 -3 18 1 33 l6 26 179 0
c110 0 179 -4 179 -10 0 -6 9 -6 23 -1 13 5 276 7 585 5 l562 -5 -2 216 -3
216 -650 2 c-623 2 -650 3 -647 20 2 10 -2 25 -9 33 -13 16 -11 17 66 14 179
-7 262 -6 280 3 13 7 20 7 23 -1 2 -8 112 -12 385 -12 210 0 385 0 390 -1 52
-6 162 0 165 9 2 7 -2 14 -10 16 -7 3 -297 6 -645 8 -348 2 -636 7 -640 11 -4
5 -2 11 4 15 7 4 17 20 22 35 8 20 16 27 29 23 9 -3 286 -8 615 -10 329 -3
602 -8 606 -11 15 -9 21 56 21 241 l0 184 -62 0 c-35 1 -155 0 -268 -1 -231
-3 -890 -1 -991 2 -55 2 -71 7 -98 30 l-33 27 726 -5 c704 -5 726 -5 726 13 0
18 -19 19 -528 19 -771 1 -976 5 -1027 21 -67 20 -225 6 -256 -22 -12 -11 -18
-12 -21 -3 -3 9 -147 13 -634 15 -346 1 -792 3 -992 4 l-362 2 -6 26 c-3 15
-7 35 -9 45 -4 19 -13 18 225 20 80 0 242 -3 360 -7 415 -14 1099 -24 1640
-25 107 0 204 0 215 0 11 0 97 -3 190 -6 94 -3 403 -8 688 -12 l517 -6 0 206
c0 204 0 205 -22 210 -13 3 -102 4 -198 1 -300 -7 -3567 -19 -3840 -15 l-46 1
4 34 4 34 77 4 c42 2 618 3 1281 2 663 -2 1531 -3 1930 -2 399 0 744 -1 768
-1 34 -2 42 1 42 16 0 17 -39 18 -912 16 -502 -2 -1436 -3 -2075 -3 l-1162 0
-3 -62 c-2 -38 -7 -61 -13 -58 -5 3 -8 14 -6 25 2 11 3 41 3 68 l-1 47 39 0
c32 0 44 6 61 29 l21 29 482 -4 c264 -2 803 -5 1196 -8 749 -5 1500 -14 1830
-23 107 -3 207 -5 223 -5 15 -1 27 -5 27 -11 0 -5 7 -4 15 3 10 8 55 12 145
11 l130 -2 0 176 0 177 -97 -6 c-54 -3 -205 -8 -335 -12 -199 -5 -238 -4 -238
7 0 10 -2 11 -8 2 -8 -12 -171 -17 -852 -28 -162 -3 -406 -8 -542 -11 -208 -6
-248 -4 -248 7 0 10 -3 11 -8 2 -9 -14 -188 -20 -832 -29 -261 -3 -518 -7
-572 -7 l-96 -2 -6 38 c-4 21 -4 42 -1 46 2 5 91 9 197 9 106 1 195 2 198 3 3
1 9 1 14 0 5 -1 261 -2 568 -2 420 -1 556 -4 551 -12 -5 -8 -2 -8 8 0 12 10
216 13 905 13 1319 0 1344 0 1370 6 13 3 24 13 24 21 0 12 -38 13 -254 10
-227 -3 -253 -2 -249 12 4 14 4 14 -6 1 -9 -13 -102 -15 -728 -16 -395 -1
-1139 -2 -1653 -3 l-935 -2 -7 32 c-3 18 -4 37 -2 44 7 18 2202 15 2213 -4 7
-10 9 -10 14 1 4 12 43 14 224 12 173 -2 1206 -5 1351 -4 l32 0 0 188 0 187
-77 -1 c-43 -1 -137 -3 -210 -5 -73 -2 -135 0 -138 3 -4 3 -19 3 -33 -1 -29
-8 -361 -11 -907 -9 -426 2 -397 2 -490 -5 -183 -13 -439 -17 -1367 -23 l-978
-5 0 40 0 40 208 -4 c114 -2 693 -4 1287 -4 1442 -1 1390 -1 1393 -12 2 -5 8
-9 13 -9 6 0 8 3 5 8 -2 4 288 6 645 4 l649 -4 0 23 0 24 -592 -2 c-995 -4
-2287 -4 -2583 1 -154 2 -445 5 -647 7 -201 1 -372 5 -378 9 -13 8 -17 56 -6
68 8 7 584 6 1326 -3 267 -3 542 -7 612 -7 82 -1 131 2 140 9 7 7 26 17 41 22
26 10 28 9 25 -12 l-3 -22 170 -1 c94 0 395 -4 670 -9 275 -4 663 -9 863 -10
l362 -2 0 222 0 222 -162 -3 c-136 -4 -1138 -6 -1203 -3 -11 1 -155 -2 -320
-5 -482 -11 -1706 -13 -1711 -4 -3 5 -11 5 -17 0 -11 -9 -533 -16 -547 -7 -3
2 -4 22 -2 44 l4 40 151 -4 c289 -8 986 -15 1892 -21 501 -2 962 -7 1025 -9
88 -3 808 -7 878 -5 6 0 12 8 12 18 0 17 -25 18 -467 18 -500 0 -1878 11
-2593 19 -260 3 -438 9 -444 15 -13 13 -29 13 -21 -1 5 -7 -61 -8 -217 -4
-122 4 -224 8 -226 10 -2 1 -4 15 -5 31 l-2 29 325 -2 c179 -1 494 -5 700 -9
206 -5 616 -7 910 -6 967 3 1933 -7 1941 -20 4 -7 9 -6 13 1 4 6 25 11 47 11
l39 0 -2 213 -3 212 -25 -2 c-26 -2 -1059 -9 -2777 -18 -697 -4 -1004 -2
-1008 5 -5 8 -11 8 -20 0 -8 -7 -73 -10 -186 -8 l-172 3 -1 39 -1 39 175 -2
c96 -1 310 -4 475 -6 165 -2 388 -4 495 -3 226 0 208 0 1045 -6 1109 -9 1959
-17 1980 -19 14 -1 21 5 23 20 l3 22 -623 1 c-1264 1 -3555 17 -3565 24 -1 1
-3 24 -5 51 l-3 50 325 -3 c179 -2 384 -5 455 -8 72 -2 265 -7 430 -9 165 -3
310 -7 322 -10 12 -3 25 0 28 5 4 6 11 7 17 4 6 -4 52 -8 102 -10 50 -1 163
-5 251 -8 88 -3 304 -8 480 -11 945 -15 1447 -29 1467 -41 6 -4 8 -3 5 2 -3 6
56 8 154 6 l159 -3 0 219 c0 154 -3 221 -11 224 -6 2 -37 1 -68 -2 -31 -4
-182 -8 -336 -9 -906 -5 -1233 -5 -1228 2 2 4 -1 7 -6 7 -6 0 -11 -5 -11 -11
0 -6 -24 -10 -62 -9 -35 1 -561 -1 -1169 -4 l-1107 -7 -6 23 c-3 13 -6 31 -6
41 0 17 37 18 885 13 577 -4 885 -2 885 4 0 11 -7 11 -445 16 -864 9 -1310 16
-1317 20 -4 3 -8 23 -8 45 l0 39 260 -4 c186 -2 260 0 260 8 0 7 3 7 8 -1 4
-7 16 -13 27 -13 21 -1 463 -8 927 -15 147 -2 273 -7 279 -11 8 -5 9 -3 4 6
-6 10 -3 11 16 5 13 -4 121 -9 239 -11 563 -8 897 -14 1030 -19 149 -5 270 -9
633 -21 114 -4 210 -11 213 -15 3 -5 10 -9 15 -9 6 0 7 5 3 11 -5 9 1 10 20 5
14 -3 37 -4 51 0 l25 6 0 209 0 209 -1195 0 c-1099 0 -1195 -1 -1195 -16 0 -9
24 -45 53 -80 47 -57 56 -63 92 -65 64 -2 68 -3 72 -16 5 -15 27 -14 -320 -18
-201 -2 -277 0 -274 8 2 6 17 12 33 13 16 1 41 7 56 13 26 10 27 13 23 68 -2
32 -4 66 -4 75 -1 17 -53 18 -891 18 -842 0 -889 -1 -884 -18 5 -16 5 -16 -9
1 -13 15 -37 17 -236 17 l-221 0 0 -176z m2810 131 c0 -1 -9 -5 -19 -8 -13 -3
-18 -1 -14 9 4 10 33 10 33 -1z m-2144 -48 c1 -23 5 -98 8 -167 3 -69 9 -143
12 -165 3 -22 4 -105 3 -185 -1 -80 -3 -159 -3 -176 0 -30 -1 -31 -47 -33 -42
-1 -47 1 -53 24 -4 14 -4 30 -1 36 7 10 7 247 0 339 -12 163 -17 322 -11 344
5 22 10 24 41 19 25 -4 35 -2 35 7 0 33 14 -5 16 -43z m2168 17 c5 -14 4 -15
-9 -4 -17 14 -19 20 -6 20 5 0 12 -7 15 -16z m-2634 -14 c0 -5 -2 -10 -4 -10
-3 0 -8 5 -11 10 -3 6 -1 10 4 10 6 0 11 -4 11 -10z m1355 -30 c3 -5 1 -10 -4
-10 -6 0 -11 5 -11 10 0 6 2 10 4 10 3 0 8 -4 11 -10z m1365 -41 c0 -4 -7 -6
-15 -3 -8 4 -15 10 -15 15 0 4 7 6 15 3 8 -4 15 -10 15 -15z m-2785 1 c3 -5 1
-10 -4 -10 -6 0 -11 5 -11 10 0 6 2 10 4 10 3 0 8 -4 11 -10z m1975 -30 c0 -5
-9 -10 -20 -10 -11 0 -20 5 -20 10 0 6 9 10 20 10 11 0 20 -4 20 -10z m855
-11 c11 -17 -1 -21 -15 -4 -8 9 -8 15 -2 15 6 0 14 -5 17 -11z m1665 -39 c0
-5 -2 -10 -4 -10 -3 0 -8 5 -11 10 -3 6 -1 10 4 10 6 0 11 -4 11 -10z m-2120
-60 c0 -5 -4 -10 -9 -10 -6 0 -13 5 -16 10 -3 6 1 10 9 10 9 0 16 -4 16 -10z
m-1665 -20 c2 -3 7 -57 10 -118 4 -79 3 -112 -5 -112 -7 0 -10 13 -8 33 3 27
-1 33 -20 35 -22 3 -23 0 -20 -34 2 -34 0 -38 -24 -45 -19 -5 -31 -2 -42 10
-9 10 -14 20 -12 22 3 2 -1 49 -8 104 -8 55 -11 104 -9 108 5 9 132 7 138 -3z
m-291 -40 c3 -8 3 -46 1 -85 l-3 -70 -38 -6 c-21 -4 -64 -3 -94 1 -30 4 -58 6
-62 4 -4 -3 -9 0 -13 6 -4 6 -11 8 -16 4 -12 -7 -115 15 -150 32 -29 14 -44
61 -27 81 12 15 87 29 213 40 147 12 185 11 189 -7z m-73 -302 c1 -29 3 -93 5
-143 9 -176 10 -480 3 -496 -5 -9 -23 -16 -50 -18 -23 -1 -45 -4 -49 -6 -3 -2
-7 153 -8 345 -4 388 -7 369 66 370 32 0 32 0 33 -52z m1709 43 c0 -5 -7 -12
-16 -15 -14 -5 -15 -4 -4 9 14 17 20 19 20 6z m2140 -11 c0 -5 -2 -10 -4 -10
-3 0 -8 5 -11 10 -3 6 -1 10 4 10 6 0 11 -4 11 -10z m-2225 -70 c-1 -8 -10
-17 -21 -19 -16 -3 -17 -1 -4 14 12 15 12 19 -3 30 -9 7 -17 15 -17 19 0 4 11
-1 24 -11 13 -10 23 -25 21 -33z m1085 -20 c0 -5 -5 -10 -11 -10 -5 0 -7 5 -4
10 3 6 8 10 11 10 2 0 4 -4 4 -10z m-923 -6 c-3 -3 -12 -4 -19 -1 -8 3 -5 6 6
6 11 1 17 -2 13 -5z m1243 -108 c0 -2 -7 -7 -16 -10 -8 -3 -12 -2 -9 4 6 10
25 14 25 6z m-2877 -15 l37 -1 -1 -92 c-1 -51 -5 -104 -9 -118 -6 -18 -9 -6
-8 43 1 71 -12 101 -34 79 -7 -7 -11 -40 -10 -82 l1 -71 -39 3 -40 2 -1 55 c0
31 -2 82 -5 114 -3 32 -2 62 1 66 2 5 19 7 37 5 18 -1 50 -3 71 -3z m1562 -11
c4 -6 -5 -10 -19 -10 -14 0 -26 5 -26 10 0 6 9 10 19 10 11 0 23 -4 26 -10z
m125 0 c0 -5 -7 -7 -15 -4 -8 4 -15 8 -15 10 0 2 7 4 15 4 8 0 15 -4 15 -10z
m-1654 -310 c0 -14 4 -72 7 -130 8 -115 8 -130 9 -370 0 -290 4 -270 -48 -270
-37 0 -42 3 -42 23 -4 125 -13 291 -22 377 -19 192 -31 386 -23 393 2 3 30 4
61 3 53 -2 57 -3 58 -26z m729 -120 c3 -5 2 -10 -4 -10 -5 0 -13 5 -16 10 -3
6 -2 10 4 10 5 0 13 -4 16 -10z m1835 -30 c0 -5 -4 -10 -10 -10 -5 0 -10 5
-10 10 0 6 5 10 10 10 6 0 10 -4 10 -10z m-1020 -70 c0 -5 -12 -10 -27 -9
l-28 1 25 8 c14 4 26 8 28 9 1 1 2 -3 2 -9z m50 -9 c0 -5 -9 -7 -20 -4 -11 3
-20 7 -20 9 0 2 9 4 20 4 11 0 20 -4 20 -9z m1920 -13 c0 -6 -6 -5 -15 2 -8 7
-15 14 -15 16 0 2 7 1 15 -2 8 -4 15 -11 15 -16z m-3272 -9 c17 -3 15 -16 -3
-23 -12 -4 -15 -26 -16 -108 0 -57 -4 -94 -8 -84 -4 11 -6 38 -4 61 3 28 -1
46 -11 54 -20 17 -27 2 -30 -70 -3 -60 -4 -62 -32 -66 -16 -2 -43 -1 -60 2
l-32 5 0 101 c0 55 -3 103 -6 106 -3 4 0 13 6 21 9 11 30 13 98 8 47 -3 91 -6
98 -7z m-378 -56 c0 -27 3 -72 6 -100 l7 -53 -131 0 c-73 0 -151 4 -174 10
-24 5 -56 12 -71 15 -23 5 -27 9 -21 23 5 9 8 40 7 68 l-1 50 57 11 c31 5 94
11 141 12 46 1 86 4 89 7 2 2 24 4 48 4 l43 0 0 -47z m-155 -222 c11 -5 28 -4
38 1 10 5 21 8 23 5 2 -2 7 -55 9 -118 3 -63 11 -168 18 -234 13 -133 12 -307
-2 -333 -5 -9 -6 -23 -1 -33 18 -32 1 -56 -43 -62 -23 -3 -43 -4 -45 -3 -2 2
-5 72 -7 156 -3 83 -7 155 -9 159 -3 4 -8 91 -11 192 -4 101 -8 196 -10 211
-4 31 4 68 14 67 3 0 15 -4 26 -8z m2630 -121 c3 -5 1 -10 -4 -10 -6 0 -11 5
-11 10 0 6 2 10 4 10 3 0 8 -4 11 -10z m-260 -20 c3 -5 1 -10 -4 -10 -6 0 -11
5 -11 10 0 6 2 10 4 10 3 0 8 -4 11 -10z m-662 -107 c-7 -2 -19 -2 -25 0 -7 3
-2 5 12 5 14 0 19 -2 13 -5z m-1425 -155 c2 -91 -1 -118 -9 -105 -6 10 -8 31
-4 46 7 32 -3 44 -25 31 -9 -5 -12 -27 -11 -69 1 -47 -1 -59 -12 -55 -7 2 -31
6 -53 7 l-39 2 -6 75 c-4 41 -10 98 -14 127 l-7 52 29 0 c33 -1 126 11 132 17
12 12 16 -17 19 -128z m123 -252 c0 -61 2 -136 5 -166 3 -30 6 -149 7 -265 l2
-210 -28 -3 c-42 -5 -52 10 -55 80 -1 35 -7 119 -12 188 -5 69 -12 168 -15
220 -3 52 -8 128 -10 169 -6 89 1 102 61 99 l44 -1 1 -111z m1722 -98 c-4 -8
-33 -11 -33 -4 0 2 3 11 6 20 5 12 9 13 19 3 7 -7 11 -15 8 -19z m-1492 -57
c14 -1 17 -18 17 -116 1 -67 -3 -115 -8 -115 -11 0 -13 9 -14 55 -1 23 -6 31
-24 33 -22 3 -23 1 -21 -50 3 -53 3 -53 -26 -52 -17 0 -47 4 -67 8 -36 8 -37
9 -34 49 2 22 -1 68 -7 102 -15 89 -14 90 84 89 46 -1 91 -2 100 -3z m-358
-51 c2 -19 2 -54 -1 -76 -4 -42 -5 -42 -54 -48 -72 -10 -288 -6 -339 6 -75 18
-89 26 -87 50 0 13 -3 35 -7 51 -5 20 -4 27 6 27 8 0 46 3 84 7 39 3 113 5
165 4 52 -1 105 2 118 6 12 5 42 9 67 9 42 0 43 -1 48 -36z m-8 -160 c-3 -5
-14 -10 -23 -10 -15 0 -15 2 -2 10 20 13 33 13 25 0z m-132 -138 c5 -124 -1
-558 -9 -598 -5 -28 -8 -30 -47 -29 -33 1 -41 5 -39 18 2 9 -1 17 -7 17 -5 0
-9 84 -10 208 -1 114 -5 234 -10 266 -6 46 -3 132 9 216 0 3 5 -2 10 -10 6 -9
10 -10 10 -3 0 12 43 21 72 15 14 -3 17 -20 21 -100z m3224 12 c-3 -3 -12 -4
-19 -1 -8 3 -5 6 6 6 11 1 17 -2 13 -5z m-3070 -99 c2 -1 4 -19 5 -41 2 -21 6
-41 10 -44 9 -7 14 -88 5 -96 -4 -4 -7 -21 -7 -37 0 -25 -3 -28 -23 -23 -12 3
-35 -1 -51 -9 -16 -8 -30 -15 -32 -15 -13 0 -25 66 -29 166 l-4 115 62 -7 c34
-4 63 -7 64 -9z m69 -427 c-1 -84 2 -262 5 -396 6 -211 5 -243 -8 -238 -8 3
-30 6 -49 6 -35 0 -35 0 -33 43 0 23 -2 98 -5 167 -3 69 -9 179 -12 245 -7
144 -7 303 0 314 3 4 27 9 54 10 l49 1 -1 -152z m3479 -98 c3 -5 0 -10 -9 -10
-8 0 -16 -4 -18 -9 -1 -5 -14 -1 -27 10 l-23 19 35 0 c20 0 39 -4 42 -10z
m-3167 -27 c2 -7 -2 -13 -8 -13 -8 0 -11 -25 -10 -82 1 -46 2 -92 1 -102 -1
-23 -16 -12 -16 12 0 10 -8 17 -20 17 -14 0 -21 -8 -23 -27 -4 -33 -23 -41
-79 -32 -30 4 -41 10 -36 18 5 7 1 4 -9 -6 -19 -21 -43 -23 -55 -5 -13 20 -30
208 -19 214 10 7 155 18 225 18 27 0 46 -5 49 -12z m-436 -71 c1 -26 2 -61 0
-78 -3 -29 -7 -32 -49 -39 -62 -9 -270 -3 -351 10 l-67 11 -2 52 c-2 32 2 54
10 59 30 19 135 30 289 31 l166 1 4 -47z m973 -66 c66 -2 422 -5 790 -5 l670
-1 -54 -30 c-45 -25 -68 -30 -145 -34 -86 -5 -890 -8 -1488 -7 l-278 1 0 40 0
39 98 3 c103 3 211 2 407 -6z m1637 -5 c-4 -19 17 -41 33 -35 7 3 16 1 20 -5
3 -6 16 -11 29 -11 12 0 31 -7 42 -16 18 -15 17 -15 -11 -8 -47 11 -129 14
-144 5 -22 -14 -3 -31 33 -31 63 0 141 -20 179 -47 46 -32 33 -42 -24 -19 -51
21 -99 21 -99 1 0 -9 6 -17 13 -19 70 -19 115 -29 127 -28 9 0 27 -9 40 -20
l25 -20 -30 6 c-16 4 -47 9 -67 13 -21 3 -38 10 -38 14 0 5 -15 9 -33 9 -18 0
-37 4 -42 9 -6 6 -44 -2 -95 -19 -47 -16 -103 -29 -125 -29 l-40 0 40 16 c22
9 74 23 114 32 41 9 73 21 70 26 -6 15 -85 6 -149 -15 -39 -14 -50 -15 -36 -5
28 21 117 45 168 45 50 0 63 7 47 27 -23 27 -136 9 -253 -42 -19 -8 -19 -7 2
22 21 30 91 63 133 63 10 0 21 5 25 11 11 19 -16 27 -55 17 -20 -5 -47 -12
-61 -15 -25 -5 -25 -5 -4 10 11 9 41 24 65 33 24 9 51 23 59 31 18 16 46 12
42 -6z m168 -16 c37 -19 71 -39 75 -45 11 -18 -24 -10 -72 17 -26 15 -63 29
-82 32 -42 7 -54 31 -17 31 15 0 58 -16 96 -35z m-2862 -91 l34 -5 -5 -122
c-3 -67 -10 -142 -15 -166 -6 -25 -8 -108 -5 -185 6 -170 6 -144 -2 -242 -3
-47 -2 -91 4 -107 12 -31 -3 -47 -18 -18 -8 15 -19 18 -56 16 l-45 -3 -2 111
c-5 385 -1 667 12 681 9 12 10 19 1 29 -20 25 -3 26 97 11z m2450 -20 c-5 -26
-113 -98 -135 -89 -17 6 -17 7 1 21 11 8 28 14 38 14 21 0 56 35 69 69 11 28
33 15 27 -15z m505 -15 l42 -41 -45 33 c-62 45 -66 49 -52 49 7 0 32 -19 55
-41z m-493 -70 c0 -5 -8 -12 -17 -16 -10 -3 -25 -12 -33 -19 -8 -7 -35 -19
-60 -28 -86 -30 -149 -13 -100 26 23 18 23 18 45 -2 22 -21 22 -21 66 -1 24
10 52 29 62 40 17 21 37 21 37 0z m360 -26 c0 -5 -5 -15 -10 -23 -7 -12 -12
-12 -22 -2 -10 10 -10 15 2 22 18 12 30 13 30 3z m-373 -59 c-11 -11 -67 -22
-67 -13 0 5 8 9 19 9 10 0 25 7 32 16 9 11 15 12 17 4 2 -6 2 -13 -1 -16z
m556 19 c12 -11 -27 -32 -50 -27 -11 3 -30 1 -41 -5 -15 -8 -23 -8 -27 0 -4 6
-18 8 -32 4 -18 -4 -24 -2 -20 7 3 9 24 12 76 10 42 -1 71 2 71 8 0 11 13 13
23 3z m644 -19 c-3 -3 -12 -4 -19 -1 -8 3 -5 6 6 6 11 1 17 -2 13 -5z m-913
-97 c-21 -33 -25 -45 -17 -66 8 -23 14 -26 48 -23 53 4 149 36 184 62 16 11
33 20 37 20 5 0 25 17 46 37 21 20 40 34 44 31 3 -4 -10 -31 -30 -61 -28 -43
-50 -61 -103 -89 -63 -33 -90 -58 -63 -58 6 0 44 19 83 42 71 40 126 91 127
116 0 6 5 12 10 12 35 0 -45 -132 -97 -160 -54 -28 -104 -71 -97 -81 4 -7 15
-3 28 9 26 23 86 53 86 43 0 -17 -74 -80 -101 -86 -38 -9 -37 -25 1 -20 42 5
30 -8 -49 -55 -118 -69 -141 -138 -147 -445 -5 -253 -38 -388 -114 -460 l-30
-28 -35 19 c-34 18 -35 21 -37 79 -2 74 -1 186 2 240 1 22 2 69 2 105 -2 181
0 236 7 245 4 5 15 28 23 50 9 22 27 65 41 95 14 30 28 66 32 80 3 14 10 39
14 56 5 17 4 59 -1 93 -9 59 -8 66 19 117 15 30 31 54 35 54 4 0 15 17 23 37
9 21 23 46 33 56 17 19 17 19 20 -3 2 -12 -9 -40 -24 -63z m-2129 63 c3 -5 1
-10 -4 -10 -6 0 -11 5 -11 10 0 6 2 10 4 10 3 0 8 -4 11 -10z m1965 6 c0 -2
-7 -6 -15 -10 -8 -3 -15 -1 -15 4 0 6 7 10 15 10 8 0 15 -2 15 -4z m-77 -20
c11 -6 17 -19 17 -42 0 -38 14 -44 30 -13 9 16 14 18 26 8 11 -9 17 -5 29 25
15 36 28 45 40 25 4 -6 13 -8 21 -5 7 3 16 1 19 -3 6 -11 -22 -81 -34 -81 -4
0 -16 -19 -27 -42 -14 -32 -18 -61 -16 -126 1 -46 -1 -88 -4 -94 -4 -5 -18 2
-34 17 -38 36 -57 35 -118 -9 -52 -36 -82 -41 -82 -13 0 31 -86 181 -131 229
-27 29 -49 55 -49 59 0 14 68 49 94 49 14 0 26 4 26 9 0 17 158 22 193 7z
m507 5 c0 -7 -66 -27 -120 -36 -23 -4 -42 -1 -55 9 -25 18 -14 32 13 15 17
-11 29 -10 69 2 51 17 93 21 93 10z m-1216 -22 c-6 -11 -24 -2 -24 11 0 5 7 7
15 4 8 -4 12 -10 9 -15z m372 -83 c69 -55 136 -151 159 -226 8 -25 7 -25 -13
-7 -11 10 -26 32 -32 48 -12 28 -33 38 -44 20 -3 -5 -25 -12 -50 -15 -46 -7
-86 -30 -73 -42 4 -4 22 -1 40 7 51 23 103 11 127 -29 16 -25 25 -32 40 -27
17 5 20 2 20 -21 0 -22 -3 -25 -12 -16 -16 16 -38 15 -38 -2 0 -7 14 -30 30
-51 17 -21 30 -48 30 -61 0 -13 11 -34 25 -46 28 -25 32 -61 11 -111 -9 -22
-12 -58 -9 -107 3 -53 -1 -101 -16 -166 -27 -120 -36 -221 -20 -240 6 -7 8
-22 4 -31 -4 -10 -9 -33 -12 -51 -3 -28 -1 -33 14 -30 12 2 18 13 18 33 0 17
7 41 14 55 9 16 17 78 22 168 4 79 15 168 24 198 10 36 14 71 10 98 -5 32 -3
45 10 56 37 30 39 6 38 -422 -1 -227 -2 -419 -2 -425 -1 -8 -15 -13 -35 -13
-18 0 -39 -7 -46 -15 -23 -27 -55 -14 -58 22 -2 20 -11 37 -23 43 -24 14 -42
3 -36 -20 6 -23 -8 -45 -22 -35 -7 4 -11 24 -9 48 2 34 0 42 -13 39 -31 -5
-42 25 -41 116 1 48 6 107 11 132 24 122 43 204 52 227 14 37 11 46 -15 41
l-24 -5 18 41 c21 51 45 55 45 7 0 -42 22 -53 31 -15 16 64 -30 103 -82 70
-18 -12 -24 -25 -24 -51 0 -19 -7 -52 -15 -72 -8 -21 -19 -69 -25 -108 -16
-109 -31 -189 -35 -194 -3 -2 -12 12 -20 32 -8 21 -22 37 -30 37 -9 0 -23 16
-32 35 -15 32 -15 40 1 117 10 46 27 103 37 127 14 30 17 47 10 54 -21 21 -44
-18 -70 -119 -11 -40 -12 -41 -51 -39 -22 1 -43 5 -47 8 -3 4 2 33 11 64 29
95 31 106 15 101 -8 -2 -21 -20 -30 -38 l-16 -34 -17 32 c-14 26 -15 40 -6 70
5 20 10 48 10 62 1 46 45 134 110 218 92 118 93 120 84 133 -8 14 -50 -32
-131 -146 -61 -85 -98 -178 -109 -268 -6 -49 -3 -61 19 -99 16 -27 23 -53 20
-68 -6 -31 48 -84 87 -84 22 -1 25 -5 22 -33 -2 -18 0 -38 4 -45 8 -13 14
-154 14 -303 -1 -102 17 -270 31 -296 5 -11 18 -19 27 -17 9 1 23 -1 30 -6 21
-13 36 8 23 32 -6 11 -11 36 -10 54 l1 33 8 -29 c5 -15 17 -37 26 -47 9 -11
15 -20 13 -22 -2 -1 -17 -13 -32 -27 -24 -20 -30 -22 -37 -10 -7 12 -12 12
-22 2 -10 -10 -10 -14 0 -20 8 -6 -1 -21 -32 -50 -24 -23 -46 -42 -48 -42 -8
0 -36 111 -49 190 -11 71 -14 306 -4 382 3 24 0 40 -10 48 -9 7 -17 11 -20 9
-2 -3 -5 -50 -6 -104 -1 -55 -5 -109 -10 -120 -11 -26 1 323 12 353 7 17 5 24
-7 29 -8 3 -17 3 -20 0 -11 -11 -23 -142 -29 -332 -5 -159 -3 -214 9 -270 23
-108 40 -150 61 -150 10 0 20 -7 23 -15 3 -8 11 -22 18 -31 12 -13 9 -21 -20
-53 -18 -21 -42 -55 -53 -75 -11 -20 -24 -45 -30 -56 -6 -11 -20 -39 -31 -62
-19 -41 -19 -41 -37 -21 -20 25 -48 93 -64 163 -13 51 -26 74 -37 62 -6 -5 10
-102 27 -167 8 -29 60 -100 74 -100 19 0 19 -3 -5 -42 -11 -18 -25 -50 -31
-70 -11 -43 -17 -45 -45 -20 -10 10 -26 21 -34 24 -9 3 -28 32 -44 64 -15 33
-32 67 -37 76 -36 71 -48 134 -49 262 0 72 2 140 4 151 13 76 16 127 19 258 2
138 1 148 -15 144 -20 -6 -24 17 -9 55 5 13 14 48 21 78 7 30 19 73 26 96 7
22 15 49 17 60 2 10 6 26 10 34 10 27 27 104 52 233 14 71 29 137 35 147 14
25 13 40 -3 40 -19 0 -36 -34 -53 -108 -8 -37 -21 -95 -30 -129 -8 -35 -21
-91 -28 -125 -8 -35 -22 -90 -32 -123 -10 -33 -19 -64 -20 -70 -1 -5 -9 -30
-17 -55 -9 -25 -19 -63 -22 -85 -4 -22 -14 -60 -22 -85 -8 -24 -18 -91 -24
-150 -5 -58 -12 -134 -16 -170 -13 -125 -7 -351 11 -420 25 -96 35 -120 78
-178 31 -41 44 -52 59 -47 14 5 17 2 13 -9 -3 -8 3 -19 15 -26 35 -18 24 -30
-29 -30 -32 0 -50 4 -50 12 0 7 -14 26 -31 44 -19 20 -32 45 -34 65 -12 120
-16 130 -61 158 -24 14 -44 30 -44 34 0 5 -12 33 -26 63 -16 33 -24 65 -21 80
3 17 -1 28 -10 31 -18 7 -11 65 18 149 19 53 42 162 54 254 3 19 16 73 30 120
14 47 34 123 45 170 34 141 162 567 189 625 5 11 17 43 25 70 9 28 30 70 46
95 16 25 30 53 30 62 0 32 100 211 141 252 49 50 37 72 -16 32 -44 -34 -75
-81 -138 -216 -30 -63 -65 -120 -87 -143 -39 -38 -60 -89 -41 -95 18 -6 12
-29 -8 -35 -48 -12 -186 -387 -142 -387 5 0 20 35 34 78 14 42 37 109 51 147
15 39 29 76 31 84 3 8 8 12 10 9 3 -3 -11 -52 -30 -109 -20 -57 -49 -153 -66
-214 -17 -60 -34 -119 -39 -130 -8 -19 -9 -19 -9 3 -1 12 -5 22 -9 22 -8 0
-46 -126 -66 -225 -7 -33 -24 -98 -38 -145 -14 -47 -33 -123 -43 -170 -9 -47
-23 -112 -31 -145 -24 -96 -27 -124 -15 -139 10 -11 8 -16 -7 -20 -31 -10 -54
-95 -58 -215 -2 -94 0 -112 17 -141 15 -24 23 -30 31 -22 8 8 8 18 0 37 -6 14
-8 25 -3 25 5 0 13 -14 16 -32 4 -17 28 -53 53 -80 39 -42 42 -48 23 -48 -37
0 -76 26 -124 85 -62 75 -72 112 -58 204 6 39 15 79 20 89 14 26 29 109 36
192 3 41 16 107 29 145 13 39 31 105 41 147 9 42 24 92 34 111 10 20 24 64 30
99 7 35 19 77 27 95 8 18 14 45 12 60 -1 15 8 54 20 86 12 32 22 67 22 79 0
12 4 35 10 52 5 17 23 87 40 156 31 125 43 154 118 287 22 40 48 94 58 120 22
58 120 234 140 249 8 6 14 14 14 17 0 16 77 76 97 77 12 0 25 5 28 10 3 6 23
10 44 10 31 0 40 -4 44 -20 4 -17 10 -20 34 -14 15 4 32 9 36 11 13 8 -14 33
-34 33 -11 0 -19 5 -19 10 0 7 19 8 53 4 40 -5 63 -16 103 -48z m678 30 l49
-13 -46 -11 c-57 -15 -81 -8 -66 19 5 10 11 19 12 19 1 -1 24 -7 51 -14z
m-2674 -6 c0 -5 9 -10 20 -10 16 0 20 -7 20 -30 0 -19 5 -30 14 -30 7 0 16 14
20 30 4 24 11 30 31 30 24 0 25 -2 19 -37 -4 -21 -9 -69 -13 -108 -5 -54 -8
-65 -15 -47 -4 13 -5 26 -2 29 9 9 -13 43 -28 43 -19 0 -27 -37 -15 -67 5 -14
7 -28 4 -33 -3 -5 -34 -8 -69 -9 -35 0 -69 -2 -76 -3 -8 -2 -13 13 -16 42 -2
25 -6 76 -10 114 -6 60 -4 71 12 83 21 15 104 18 104 3z m1115 -25 c317 -5
485 -12 491 -18 2 -2 -12 -18 -31 -37 l-34 -33 -623 2 c-797 3 -764 3 -760 21
2 8 4 26 5 39 2 17 10 27 25 31 25 5 405 3 927 -5z m-345 -119 c140 -3 367 -5
503 -6 l248 0 -22 -32 c-12 -18 -24 -35 -25 -37 -2 -2 -522 -3 -1276 -1 l-48
0 0 44 0 44 183 -4 c100 -2 297 -6 437 -8z m1996 -183 c-114 -113 -125 -154
-132 -478 -3 -99 -6 -193 -8 -210 -6 -54 -18 -110 -29 -130 -18 -37 -61 -75
-84 -75 l-24 0 25 33 c15 19 26 37 26 41 0 4 9 26 19 49 30 65 44 187 43 367
-2 167 11 256 44 322 14 26 148 136 169 137 5 1 -16 -25 -49 -56z m-2708 3 c2
-3 -1 -108 -8 -234 -10 -171 -10 -241 -2 -274 18 -69 28 -273 14 -264 -8 5
-12 0 -12 -12 0 -17 -7 -20 -50 -19 l-50 1 -1 65 c0 36 -4 100 -8 141 -4 41
-6 79 -3 84 3 5 6 93 8 195 1 102 5 200 8 217 3 17 1 45 -4 64 -5 18 -7 37 -4
42 6 9 102 3 112 -6z m2172 -86 c13 -8 13 -10 -2 -10 -9 0 -20 5 -23 10 -8 13
5 13 25 0z m-1693 -32 c-3 -8 -6 -5 -6 6 -1 11 2 17 5 13 3 -3 4 -12 1 -19z
m-272 -158 c7 -6 25 -8 39 -4 15 3 32 2 39 -4 10 -8 429 -20 812 -23 55 -1
103 -3 106 -5 3 -2 1 -19 -5 -38 l-11 -35 -430 2 -430 2 -5 29 c-3 16 -11 31
-18 34 -17 5 -31 -38 -21 -66 14 -37 11 -80 -8 -102 -24 -27 -43 -8 -43 42 0
32 -3 39 -17 36 -14 -2 -18 -13 -18 -43 0 -22 -5 -43 -10 -47 -6 -3 -42 -8
-80 -9 l-70 -3 -7 86 c-8 110 0 150 32 160 33 10 128 2 145 -12z m972 -144 c2
-2 -1 -15 -6 -29 l-10 -25 -421 -1 -420 -1 6 27 c4 16 8 30 9 33 3 5 837 1
842 -4z m2278 -116 c-3 -5 -11 -10 -16 -10 -6 0 -7 5 -4 10 3 6 11 10 16 10 6
0 7 -4 4 -10z m-3327 -114 c2 -10 -2 -23 -8 -30 -9 -8 -11 -6 -5 12 6 21 4 22
-19 16 -16 -4 -26 -2 -26 5 0 6 7 8 15 5 8 -4 15 -1 15 6 0 18 25 6 28 -14z
m936 -35 c3 -5 -2 -15 -12 -22 -15 -12 -16 -12 -5 2 7 9 10 19 6 22 -3 4 -4 7
0 7 3 0 8 -4 11 -9z m-226 -130 c3 -8 -1 -12 -9 -9 -7 2 -15 10 -17 17 -3 8 1
12 9 9 7 -2 15 -10 17 -17z m359 -33 c-3 -7 -5 -2 -5 12 0 14 2 19 5 13 2 -7
2 -19 0 -25z m2473 22 c0 -5 -4 -10 -10 -10 -5 0 -10 5 -10 10 0 6 5 10 10 10
6 0 10 -4 10 -10z m-1826 -28 c7 -11 -5 -92 -14 -92 -4 0 -7 6 -7 13 0 6 -3
29 -7 50 -5 29 -4 37 8 37 8 0 17 -4 20 -8z m-660 -59 c-7 -30 -24 -55 -24
-36 0 17 18 63 25 63 3 0 2 -12 -1 -27z m709 -35 c10 -64 18 -93 30 -100 9 -6
9 -10 -1 -16 -14 -9 -19 -37 -23 -112 -2 -50 -27 143 -28 218 -1 49 15 57 22
10z m-1291 -10 c-7 -7 -12 -8 -12 -2 0 14 12 26 19 19 2 -3 -1 -11 -7 -17z
m1240 -43 c3 -29 2 -33 -9 -23 -7 7 -10 23 -7 36 8 30 11 28 16 -13z m-679 5
c-3 -11 -7 -20 -9 -20 -2 0 -4 9 -4 20 0 11 4 20 9 20 5 0 7 -9 4 -20z m-143
-10 c0 -5 -5 -10 -11 -10 -5 0 -7 5 -4 10 3 6 8 10 11 10 2 0 4 -4 4 -10z
m280 -111 c1 -66 -5 -153 -15 -224 -8 -54 -7 -261 0 -310 14 -88 69 -230 102
-263 7 -7 13 -24 13 -36 0 -28 22 -49 42 -41 8 3 23 -7 36 -25 28 -37 20 -59
-11 -31 -179 165 -188 183 -208 436 -10 128 -7 354 5 374 2 3 7 41 10 83 10
124 26 145 26 37z m548 -15 c0 -54 -3 -82 -9 -73 -11 18 -12 159 0 159 5 0 9
-39 9 -86z m-723 1 l-15 -40 5 36 c6 47 18 80 22 59 2 -9 -3 -33 -12 -55z
m547 -93 c3 -34 1 -59 -3 -55 -8 9 -12 51 -9 103 2 48 8 27 12 -48z m-565 26
c-3 -8 -6 -5 -6 6 -1 11 2 17 5 13 3 -3 4 -12 1 -19z m1373 -18 c0 -11 -2 -20
-4 -20 -2 0 -6 9 -9 20 -3 11 -1 20 4 20 5 0 9 -9 9 -20z m-1375 -37 c-9 -51
-27 -114 -32 -109 -3 3 4 44 22 124 9 37 18 24 10 -15z m742 -30 c-3 -10 -5
-2 -5 17 0 19 2 27 5 18 2 -10 2 -26 0 -35z m-158 -82 c1 -48 -5 -36 -13 24
-4 34 -3 43 3 30 5 -11 10 -35 10 -54z m770 40 c34 -9 37 -27 7 -35 -22 -5
-116 27 -116 40 0 6 83 3 109 -5z m-189 -28 c56 -5 158 -38 148 -48 -2 -2 -30
-17 -63 -33 -33 -17 -91 -60 -130 -96 -54 -51 -71 -62 -78 -51 -9 16 -68 35
-111 35 -16 0 -34 7 -41 16 -9 13 -16 14 -33 5 -18 -9 -23 -8 -32 8 -5 11 -10
27 -10 35 0 20 -36 21 -43 2 -3 -7 0 -25 8 -39 13 -25 12 -25 -32 -32 -25 -4
-53 -9 -62 -13 -9 -3 12 22 47 57 47 48 65 61 75 53 7 -6 22 -11 32 -11 47 1
60 -8 60 -37 0 -22 5 -29 20 -29 14 0 20 6 19 22 0 19 3 22 24 16 21 -5 23 -2
20 18 -2 19 -10 24 -41 26 -21 1 -45 7 -53 14 -11 9 -17 9 -29 -1 -12 -10 -15
-10 -15 0 0 7 -7 10 -16 6 -33 -12 8 24 50 46 41 22 178 49 206 41 8 -2 44 -7
80 -10z m295 -3 c3 -5 1 -10 -4 -10 -6 0 -11 5 -11 10 0 6 2 10 4 10 3 0 8 -4
11 -10z m-1935 -4 c0 -11 -19 -15 -25 -6 -3 5 1 10 9 10 9 0 16 -2 16 -4z
m2110 -13 c3 -3 -4 -9 -15 -15 -11 -6 -46 -38 -78 -70 -32 -33 -60 -58 -63
-55 -3 2 9 19 26 36 33 32 34 57 4 92 -8 9 -11 18 -8 21 6 6 126 -2 134 -9z
m68 -10 c-2 -5 -10 -21 -18 -37 -12 -23 -12 -30 -2 -33 6 -3 12 -13 12 -23 0
-24 18 -36 33 -21 19 19 34 12 31 -15 -1 -15 -7 -31 -12 -36 -13 -13 -61 -17
-68 -7 -8 14 -34 11 -34 -4 0 -7 12 -18 28 -24 21 -9 6 -10 -73 -6 -55 3 -101
7 -103 8 -10 9 92 129 138 164 51 39 76 51 68 34z m102 -12 c0 -11 -5 -32 -12
-46 -8 -18 -8 -29 -1 -36 17 -17 55 44 47 76 l-6 26 61 -3 c55 -2 76 -10 53
-20 -8 -3 -59 -72 -120 -163 -25 -37 -30 -40 -70 -37 -23 2 -40 7 -37 12 3 5
11 7 18 4 7 -2 23 6 35 18 20 22 20 27 8 67 -10 35 -18 45 -35 46 -29 2 -46
27 -26 38 8 4 12 13 9 20 -3 9 8 14 36 15 34 2 40 0 40 -17z m-380 -1 c11 -7
12 -12 3 -21 -13 -13 -57 6 -48 22 8 12 26 11 45 -1z m912 -8 c9 -9 7 -16 -5
-29 -9 -10 -30 -52 -48 -93 -37 -88 -47 -103 -67 -95 -8 3 -76 6 -151 6 -152
0 -211 6 -211 23 0 6 30 51 65 99 36 48 63 93 59 99 -10 15 343 5 358 -10z
m233 -32 c17 -5 57 -11 90 -14 33 -3 61 -5 63 -6 8 -1 0 -44 -14 -74 -18 -36
-37 -38 -60 -7 -6 8 -18 12 -28 8 -25 -10 -19 -27 9 -27 15 0 25 -6 25 -14 0
-8 6 -16 13 -19 10 -4 10 -7 0 -18 -7 -7 -13 -24 -13 -37 0 -20 -4 -23 -22
-18 -13 3 -31 6 -42 6 -15 0 -16 3 -7 14 9 10 9 16 1 21 -17 10 -43 -3 -37
-19 4 -9 -3 -16 -19 -19 -19 -3 -22 -2 -13 9 9 11 8 15 -4 20 -24 9 -52 1 -52
-15 0 -26 -25 -23 -35 3 -11 31 -40 34 -47 6 -4 -15 -14 -20 -37 -20 -51 0
-56 13 -31 83 37 105 54 133 89 144 33 11 120 7 171 -7z m-2624 -17 c-12 -20
-14 -14 -5 12 4 9 9 14 11 11 3 -2 0 -13 -6 -23z m1409 7 c0 -5 -2 -10 -4 -10
-3 0 -8 5 -11 10 -3 6 -1 10 4 10 6 0 11 -4 11 -10z m120 -15 c-14 -17 -60
-21 -60 -5 0 6 11 10 24 10 14 0 28 5 31 11 4 6 9 8 12 5 3 -3 0 -12 -7 -21z
m-167 -7 c2 -7 -2 -21 -11 -30 -22 -26 -8 -48 33 -48 37 0 43 8 23 28 -9 9 -9
15 1 25 10 10 15 8 27 -7 27 -37 18 -56 -24 -56 -70 0 -192 13 -192 20 0 12
103 80 121 80 10 0 19 -6 22 -12z m149 -83 c0 -5 -5 -11 -11 -13 -6 -2 -11 4
-11 13 0 9 5 15 11 13 6 -2 11 -8 11 -13z m-232 -31 c25 -3 78 -6 118 -8 87
-4 100 -12 81 -55 -8 -17 -17 -31 -21 -31 -7 0 -93 -112 -101 -132 -4 -10 -8
-10 -15 1 -11 15 -42 8 -42 -9 0 -6 10 -14 22 -19 35 -13 7 -19 -47 -11 -27 4
-77 7 -111 6 -53 -2 -60 0 -57 15 6 22 -26 34 -34 13 -3 -9 0 -20 8 -25 9 -6
0 -7 -26 -3 -22 4 -41 7 -42 8 -1 1 19 33 44 71 24 39 49 80 54 93 5 13 24 41
42 63 26 32 36 38 57 33 14 -3 45 -8 70 -10z m-207 -21 c22 -21 22 -46 -2 -67
-11 -10 -27 -34 -37 -54 -17 -36 -17 -36 -27 -14 -6 13 -16 21 -24 18 -10 -4
-11 -1 -3 14 5 10 10 35 10 55 0 32 -4 38 -30 48 -16 6 -30 15 -30 20 0 15
123 -3 143 -20z m-306 -3 c-14 -11 -33 -20 -42 -20 -23 0 -65 -49 -65 -76 0
-23 42 -64 65 -64 7 0 25 -6 41 -14 20 -11 33 -12 47 -4 15 7 23 6 35 -6 14
-14 14 -16 -2 -22 -25 -10 -125 3 -143 18 -23 19 -75 10 -105 -20 -54 -50 -31
-73 36 -37 55 29 60 30 52 9 -4 -9 -1 -23 5 -30 9 -11 6 -14 -18 -14 -16 0
-52 -7 -79 -15 -27 -8 -50 -15 -51 -15 -18 -1 69 196 119 268 20 30 36 42 53
42 13 0 27 5 30 10 3 6 16 10 27 10 19 0 19 -1 -5 -20z m-756 -25 c8 -36 53
-138 71 -161 7 -9 28 -31 46 -49 33 -33 40 -63 21 -82 -7 -7 -1 -24 20 -56 17
-24 31 -50 31 -55 0 -17 -52 -19 -85 -4 -46 22 -135 113 -135 139 0 12 -10 29
-22 37 -13 9 -22 28 -24 48 -3 39 14 162 27 196 12 32 42 25 50 -13z m899 16
c16 -31 12 -59 -10 -71 -24 -13 -41 -5 -34 14 7 18 -43 49 -68 43 -15 -4 -17
-3 -8 8 11 13 37 20 87 24 13 0 27 -7 33 -18z m924 -21 c5 -5 -11 -40 -37 -83
-25 -40 -55 -94 -66 -120 -15 -34 -26 -47 -41 -47 -13 0 -20 7 -20 19 0 11 -6
21 -12 24 -10 3 -10 7 1 20 7 10 19 17 25 17 7 0 23 11 35 24 l22 24 -31 56
-32 56 -51 -3 c-40 -2 -63 -11 -101 -38 -61 -43 -71 -66 -45 -108 15 -25 25
-31 52 -31 42 0 52 -9 29 -26 -16 -12 -15 -13 5 -14 12 0 25 -4 28 -10 4 -6
-22 -10 -70 -10 -48 0 -74 4 -70 10 3 5 20 9 37 7 40 -3 48 19 10 28 -18 3
-32 14 -35 26 -7 25 -37 25 -37 0 0 -10 -7 -24 -15 -31 -8 -7 -15 -19 -15 -26
0 -8 -9 -14 -20 -14 -11 0 -20 4 -20 9 0 15 65 112 107 160 21 24 47 57 57 73
l19 30 141 -7 c78 -4 145 -11 150 -15z m237 -4 c184 -6 192 -9 182 -74 -5 -35
-13 -56 -49 -140 -8 -18 -14 -39 -14 -47 0 -23 -67 -11 -88 16 l-19 23 -14
-22 c-24 -39 -34 -24 -14 22 5 12 3 21 -6 26 -17 11 -29 3 -29 -21 0 -10 -4
-19 -10 -19 -5 0 -10 -7 -10 -15 0 -8 -7 -15 -15 -15 -9 0 -12 6 -9 15 4 8 1
15 -6 15 -10 0 -10 3 0 15 14 17 5 35 -17 35 -10 0 -14 -6 -10 -20 3 -11 1
-23 -5 -26 -5 -3 -7 -12 -4 -20 4 -11 -8 -14 -58 -14 -80 0 -130 16 -121 39
13 34 96 181 106 187 6 3 14 17 20 31 5 13 13 22 18 19 5 -3 82 -8 172 -10z
m-1324 -33 c3 -10 12 -25 20 -34 12 -15 11 -17 -12 -23 -16 -4 -33 -2 -41 5
-17 14 -18 56 -1 62 22 9 27 7 34 -10z m73 7 c0 -5 -4 -10 -10 -10 -5 0 -10 5
-10 10 0 6 5 10 10 10 6 0 10 -4 10 -10z m1686 -22 c201 -1 207 -4 170 -74
-14 -27 -26 -60 -26 -74 0 -14 -7 -47 -16 -75 -9 -27 -19 -56 -21 -64 -3 -11
-21 -13 -94 -8 -97 6 -110 10 -91 29 9 9 20 8 48 -6 43 -20 64 -8 34 19 -29
26 -25 30 23 30 37 0 43 -3 39 -17 -3 -12 1 -18 11 -18 21 0 32 19 18 33 -8 8
-5 17 10 33 13 14 21 37 22 65 2 40 0 44 -23 48 -24 3 -25 3 -7 -17 16 -17 17
-24 7 -44 -19 -35 -41 -58 -58 -58 -10 0 -7 7 10 24 23 20 25 28 18 66 -11 59
-30 75 -90 74 -54 -1 -112 -36 -133 -81 -16 -36 9 -77 48 -80 17 0 36 -2 43
-2 6 -1 12 -10 12 -21 0 -38 -62 -22 -107 29 -20 22 -22 33 -17 73 7 55 -1 75
-22 57 -9 -7 -14 -31 -14 -64 0 -43 -4 -55 -22 -67 l-22 -15 28 -27 c18 -19
34 -26 47 -23 15 4 19 1 17 -11 -8 -36 -118 -3 -118 36 0 9 13 51 29 92 16 41
32 94 36 117 6 39 9 42 26 32 12 -6 91 -11 185 -11z m-899 -4 c7 -18 -17 -38
-31 -24 -11 11 -1 40 14 40 6 0 13 -7 17 -16z m-682 -34 c-22 -24 -83 -28 -92
-5 -7 20 2 29 19 19 16 -10 59 -6 72 7 18 17 19 -1 1 -21z m-1615 -5 c155 -6
299 -6 418 1 92 5 85 11 82 -77 -2 -67 15 -117 55 -168 19 -24 35 -48 35 -52
0 -5 -27 -9 -61 -9 -73 0 -78 -21 -8 -31 35 -5 27 -6 -38 -7 -47 -1 -83 -6
-83 -12 0 -15 34 -19 205 -24 88 -3 164 -5 170 -5 5 -1 5 -5 -1 -11 -8 -8
-241 -13 -394 -9 -15 0 -196 -9 -282 -14 -27 -2 -48 0 -48 5 0 4 12 8 26 8 16
0 24 5 22 12 -3 9 -40 13 -126 15 -100 1 -122 -1 -122 -13 0 -16 -3 -15 107
-16 45 -1 80 -5 77 -9 -2 -5 -177 -8 -387 -8 -210 1 -394 -1 -409 -4 -14 -2
-44 -1 -65 3 l-38 8 35 2 c19 1 51 3 70 4 19 1 37 6 40 11 3 6 -30 11 -84 13
-49 1 -92 4 -94 7 -2 2 5 15 16 29 11 14 23 45 26 70 4 24 13 52 21 62 8 11
15 28 15 39 0 38 28 65 66 65 28 0 34 4 32 18 -2 14 4 17 35 16 20 -1 37 0 37
2 0 14 -14 33 -21 28 -5 -3 -9 0 -9 5 0 11 7 12 80 15 26 1 35 5 34 18 -1 15
13 17 134 17 74 0 136 2 137 3 4 4 111 1 295 -7z m2301 -20 c30 1 60 4 68 6
25 8 21 -16 -7 -33 -15 -10 -35 -23 -44 -30 -14 -10 -20 -9 -37 6 -13 12 -27
15 -41 11 -38 -12 -67 34 -39 62 8 8 16 6 29 -7 13 -13 31 -17 71 -15z m-2931
21 c0 -8 -61 -12 -66 -4 -3 4 11 8 30 8 20 0 36 -2 36 -4z m2258 -35 c-13 -15
-27 -26 -31 -24 -10 6 32 53 46 53 4 0 -2 -13 -15 -29z m1592 9 c22 -22 27
-69 8 -88 -18 -18 -27 -14 -21 8 6 22 -21 60 -42 60 -16 0 -42 -31 -47 -55 -4
-25 -36 -32 -44 -10 -11 26 12 63 53 84 48 26 68 26 93 1z m-3990 -46 c0 -11
-49 -2 -53 10 -5 12 -1 13 24 4 16 -5 29 -12 29 -14z m2439 -9 c-23 -38 -29
-41 -47 -23 -18 18 -14 28 12 28 13 0 29 7 36 15 21 25 20 17 -1 -20z m1511
-11 c0 -9 -5 -14 -12 -12 -18 6 -21 28 -4 28 9 0 16 -7 16 -16z m-1581 -32
l30 -18 -104 1 c-79 0 -101 3 -93 12 5 7 33 14 61 16 29 2 58 4 64 5 7 1 26
-6 42 -16z m359 -28 c54 -5 62 -8 62 -26 0 -11 -29 -80 -65 -152 -35 -72 -66
-140 -68 -151 -2 -11 -10 -32 -17 -47 -11 -24 -18 -27 -48 -23 -37 4 -54 20
-49 45 2 11 12 14 38 12 27 -2 38 1 43 14 9 24 -12 44 -45 44 -24 0 -29 4 -29
24 0 21 5 24 36 24 21 0 44 8 57 20 12 10 30 22 39 25 49 17 60 123 15 145
-86 43 -151 43 -181 1 -7 -11 -34 -33 -60 -49 -40 -26 -46 -34 -46 -64 0 -41
28 -72 75 -84 31 -8 41 -27 27 -50 -7 -10 -18 -9 -55 5 -45 16 -48 16 -64 0
-17 -17 -17 -19 2 -33 12 -9 31 -13 50 -10 37 7 52 -2 60 -37 l7 -27 -111 1
c-100 0 -111 2 -107 17 2 9 7 28 11 42 3 14 10 34 14 45 4 11 18 52 31 90 32
98 80 196 101 204 19 7 178 4 277 -5z m-372 -29 c11 -3 -18 -105 -44 -153 -7
-12 -12 -28 -10 -35 1 -6 -8 -44 -20 -82 l-21 -71 -38 4 c-21 2 -69 -3 -108
-11 -77 -17 -90 -12 -90 31 0 17 -5 27 -15 27 -19 0 -26 -35 -8 -46 11 -7 11
-9 -1 -9 -8 0 -11 -6 -7 -15 4 -12 0 -14 -20 -9 -20 5 -26 2 -31 -15 -7 -26
-28 -22 -27 5 3 60 27 217 40 262 12 40 23 56 44 67 16 8 33 14 37 14 4 -1 15
0 23 4 93 36 232 51 296 32z m784 -24 c0 -18 -3 -19 -18 -10 -21 13 -78 -9
-108 -42 -17 -19 -17 -20 4 -26 12 -3 22 -12 22 -20 0 -11 8 -12 36 -7 l36 7
-15 -29 c-8 -16 -20 -53 -26 -82 -12 -60 -27 -92 -41 -92 -6 0 -10 7 -10 15 0
8 -7 15 -16 15 -14 0 -14 3 -4 15 10 12 15 13 21 4 6 -10 11 -10 23 0 23 19
20 51 -4 51 -11 0 -20 -7 -20 -15 0 -12 -7 -14 -26 -9 -23 6 -26 4 -24 -17 5
-57 3 -59 -55 -59 -49 0 -55 2 -55 21 0 14 -5 19 -17 17 -10 -2 -18 -10 -18
-18 0 -10 -17 -19 -50 -26 -27 -6 -60 -14 -72 -18 -20 -6 -21 -5 -14 21 5 16
21 56 36 88 15 33 43 94 62 135 20 41 39 80 43 85 5 6 75 12 159 13 148 4 151
3 151 -17z m-496 -11 c33 -14 46 -25 46 -40 0 -27 -8 -25 -33 6 -20 26 -35 28
-94 9 -28 -9 -32 19 -5 34 24 15 34 14 86 -9z m711 5 c39 -2 116 -3 173 -4 96
-1 102 -2 102 -22 0 -12 -8 -23 -20 -26 -21 -6 -27 -29 -10 -35 7 -2 5 -27 -6
-73 -10 -39 -16 -89 -15 -111 1 -32 -3 -43 -16 -49 -22 -8 -334 -7 -415 1 -53
6 -81 25 -58 39 6 4 10 17 10 31 0 23 46 172 73 237 12 28 14 28 62 21 28 -4
82 -8 120 -9z m-232 -43 c-3 -13 -15 -19 -39 -20 -42 -2 -36 14 9 27 18 5 33
10 34 10 0 1 -1 -7 -4 -17z m-495 -14 c20 -20 13 -38 -21 -53 -35 -14 -91 -8
-94 12 -1 6 5 17 13 24 14 11 18 10 29 -4 16 -22 35 -22 35 1 0 32 17 41 38
20z m1262 -10 c96 -6 177 -13 179 -15 5 -3 -25 -102 -45 -151 -21 -48 -20
-150 0 -170 13 -14 16 -14 16 -2 0 10 3 11 8 3 4 -6 59 -16 127 -23 66 -6 134
-13 150 -15 17 -2 50 -4 73 -4 l44 -1 -5 -47 c-5 -52 -38 -257 -41 -260 -1 -1
-19 2 -39 8 -21 5 -47 7 -57 4 -11 -4 -20 -2 -20 4 0 5 9 13 21 16 11 4 18 13
15 20 -2 7 2 16 10 19 19 7 18 26 -1 26 -8 0 -15 -7 -15 -15 0 -20 -99 -65
-154 -69 -25 -2 -72 -1 -104 3 l-57 6 -1 80 c0 50 5 88 13 101 15 23 20 105 8
123 -14 24 -27 4 -30 -44 -3 -54 -22 -216 -30 -252 -4 -18 -12 -23 -38 -23
-17 0 -42 3 -54 6 -21 6 -21 7 12 39 19 18 35 37 35 44 0 20 -27 12 -44 -14
-9 -14 -24 -25 -34 -25 -20 0 -82 36 -82 48 0 4 16 14 35 21 57 20 105 72 105
113 0 49 -28 71 -103 80 -91 12 -100 11 -119 -12 -24 -30 -14 -126 18 -161 13
-14 24 -28 24 -32 0 -13 -27 -7 -52 12 -24 20 -57 14 -44 -7 3 -6 -6 -23 -20
-38 -25 -24 -26 -27 -10 -36 12 -7 28 -5 52 7 33 16 37 16 54 0 20 -18 40 -13
40 11 0 12 7 10 29 -8 17 -13 30 -27 30 -32 1 -5 -44 -6 -105 -2 -84 5 -105 4
-102 -6 6 -16 101 -28 183 -23 33 2 85 -2 115 -8 l55 -13 -2 -84 c-4 -140 -14
-209 -30 -226 -12 -12 -30 -14 -77 -10 -33 3 -137 8 -229 12 -142 5 -166 8
-156 20 6 8 19 13 28 12 18 -3 18 6 6 105 -5 31 -12 57 -17 57 -5 0 -2 7 6 16
9 8 16 23 16 32 0 39 22 89 43 101 19 10 22 18 19 53 -6 61 18 258 36 301 19
41 27 46 35 18 3 -14 17 -20 58 -24 77 -9 317 -12 324 -5 17 17 -43 26 -162
27 -134 0 -212 12 -214 34 -7 72 1 130 31 217 5 14 11 38 15 54 5 23 10 27 28
21 12 -3 101 -11 197 -17z m-1400 6 c0 -3 -4 -13 -10 -23 -7 -14 -4 -24 11
-40 23 -25 17 -41 -8 -25 -30 19 -38 40 -25 68 10 23 32 36 32 20z m1790 -25
c74 -1 154 -6 177 -11 36 -9 42 -14 38 -32 -2 -11 -7 -43 -10 -71 -10 -71 -13
-93 -28 -160 -12 -58 -14 -60 -42 -58 -150 11 -305 28 -305 35 0 4 7 8 15 8
13 0 15 7 9 38 -8 46 -12 52 -30 52 -11 0 -13 -6 -9 -21 5 -15 1 -25 -14 -35
-11 -8 -18 -21 -15 -29 4 -8 1 -15 -5 -15 -18 0 -13 98 8 165 16 50 22 59 39
57 28 -4 39 18 13 25 -22 5 -26 19 -15 47 4 10 13 14 23 12 9 -3 77 -6 151 -7z
m-4570 -30 c0 -5 -7 -9 -15 -9 -8 0 -15 7 -15 15 0 9 6 12 15 9 8 -4 15 -10
15 -15z m1700 -9 c0 -5 -17 -10 -37 -9 -34 1 -35 2 -13 9 36 11 50 11 50 0z
m480 -40 c13 -9 12 -12 -5 -26 -15 -11 -44 -14 -123 -13 -56 1 -105 5 -107 9
-12 20 19 29 105 33 52 1 100 4 105 5 6 1 17 -3 25 -8z m-2120 -10 c0 -5 -4
-10 -10 -10 -5 0 -10 5 -10 10 0 6 5 10 10 10 6 0 10 -4 10 -10z m120 -36 c0
-2 -12 -4 -26 -4 -14 0 -23 4 -20 9 6 8 46 4 46 -5z m1894 -19 c80 -6 96 -9
80 -18 -23 -13 -285 -14 -364 -2 -30 5 -203 8 -384 7 -329 -2 -418 5 -204 15
62 3 114 6 115 7 7 5 679 -3 757 -9z m-1398 -8 c4 -4 5 -9 3 -11 -8 -8 -389
-11 -389 -3 0 9 -3 8 104 12 48 2 89 5 91 7 7 7 184 2 191 -5z m39 -7 c-3 -5
-10 -10 -16 -10 -5 0 -9 5 -9 10 0 6 7 10 16 10 8 0 12 -4 9 -10z m35 0 c0 -5
-4 -10 -10 -10 -5 0 -10 5 -10 10 0 6 5 10 10 10 6 0 10 -4 10 -10z m30 0 c0
-5 -4 -10 -10 -10 -5 0 -10 5 -10 10 0 6 5 10 10 10 6 0 10 -4 10 -10z m180 6
c0 -3 -4 -8 -10 -11 -5 -3 -10 -1 -10 4 0 6 5 11 10 11 6 0 10 -2 10 -4z m100
0 c0 -3 -4 -8 -10 -11 -5 -3 -10 -1 -10 4 0 6 5 11 10 11 6 0 10 -2 10 -4z
m450 -73 c13 -53 40 -59 40 -10 0 18 -6 39 -12 45 -10 10 6 13 80 11 75 -1 90
-4 81 -15 -13 -16 -2 -57 14 -51 7 2 11 16 10 31 -2 22 2 27 19 24 18 -3 20
-10 20 -71 0 -42 -5 -73 -12 -80 -10 -9 -12 -8 -7 6 8 21 -8 67 -24 67 -8 0
-10 -13 -5 -39 l6 -39 -135 1 c-105 1 -136 4 -140 15 -3 8 -3 17 0 22 6 10
-23 22 -35 15 -4 -3 -6 -14 -3 -24 3 -10 0 -22 -6 -25 -7 -5 -11 7 -11 33 0
42 -14 61 -32 43 -8 -8 -15 -6 -25 4 -21 21 -31 10 -27 -33 1 -21 -2 -41 -8
-44 -16 -10 -48 2 -48 17 0 21 -23 17 -43 -6 -25 -29 -37 -16 -37 38 0 26 -4
53 -9 61 -13 20 -34 2 -27 -23 3 -12 2 -35 -3 -51 -7 -28 -8 -26 -16 23 -4 32
-13 56 -21 59 -21 8 -29 -4 -15 -20 15 -19 0 -92 -19 -92 -9 0 -14 13 -14 40
-1 53 -29 57 -34 5 -4 -39 -22 -67 -22 -33 0 11 -7 26 -15 33 -12 10 -16 9
-21 -4 -4 -10 -13 -14 -24 -11 -10 3 -21 1 -25 -5 -3 -5 -17 -7 -29 -4 -16 4
-25 0 -29 -10 -7 -17 -44 -21 -63 -8 -6 4 -14 17 -18 30 -10 29 -24 28 -36 -3
-14 -38 -28 -30 -32 17 -2 31 -8 44 -20 46 -15 3 -18 -4 -18 -37 0 -23 -4 -41
-8 -41 -5 0 -8 19 -8 42 1 33 -3 43 -17 46 -16 3 -18 -3 -16 -42 2 -26 -3 -52
-9 -58 -9 -9 -12 -9 -13 3 -5 66 -10 94 -18 102 -13 13 -21 -6 -24 -59 -2 -32
-6 -40 -24 -42 -18 -3 -23 2 -23 18 0 24 -28 39 -40 20 -5 -7 -6 -20 -2 -28 4
-11 1 -13 -7 -7 -7 4 -11 18 -8 32 5 26 -18 57 -35 47 -10 -7 -2 -78 13 -106
7 -14 6 -16 -6 -12 -8 4 -15 12 -15 20 0 8 -7 14 -15 14 -8 0 -16 3 -16 8 -20
117 -14 132 55 128 36 -2 42 -6 46 -31 3 -16 11 -30 18 -33 9 -3 11 3 7 21 -8
31 1 37 57 38 124 3 157 -1 163 -20 7 -22 59 -33 76 -17 8 8 10 7 9 -4 -6 -45
23 -58 34 -16 9 35 -3 59 -25 53 -11 -3 -17 -1 -13 4 3 5 18 9 35 9 25 0 29
-4 29 -29 0 -28 2 -30 36 -28 19 2 39 9 43 16 7 11 11 10 19 -5 9 -16 11 -14
26 13 15 30 19 32 85 35 91 4 99 2 106 -33 9 -38 31 -37 39 1 7 35 23 40 28 8
2 -13 11 -24 22 -26 16 -3 18 1 13 24 -4 23 -3 26 6 13 27 -35 53 -31 48 8 -1
8 24 13 81 15 46 2 84 1 85 -2 1 -3 7 -24 13 -47z m656 -31 c-9 -73 -26 -93
-26 -30 0 75 -27 73 -40 -2 -8 -54 -34 -46 -38 13 -4 65 -30 65 -34 0 -4 -59
-23 -68 -23 -10 -1 39 -3 42 -29 45 -32 4 -46 -10 -46 -47 0 -18 4 -22 20 -18
10 3 24 -1 31 -9 10 -12 2 -14 -44 -14 -30 0 -62 -3 -71 -6 -9 -3 -16 -1 -16
5 0 6 8 11 19 11 13 0 20 10 25 31 6 34 -9 63 -28 56 -7 -3 -21 3 -33 13 -21
16 -14 17 159 18 l181 1 -7 -57z m-352 12 c3 -9 6 -28 6 -43 0 -15 5 -32 12
-39 9 -9 7 -12 -10 -12 -18 0 -22 6 -22 33 0 17 -3 42 -6 55 -7 25 11 31 20 6z
m1510 0 l29 -6 -6 -72 c-4 -39 -14 -103 -22 -143 -8 -40 -16 -95 -18 -123 -1
-30 -7 -50 -14 -50 -6 0 -18 -3 -27 -6 -26 -10 -31 24 -7 50 18 20 20 25 7 35
-18 15 -63 -4 -71 -31 -8 -24 -17 -23 -45 8 -21 21 -22 27 -10 34 8 5 25 10
37 10 12 0 28 9 35 19 8 11 26 25 41 32 37 17 57 80 36 117 -8 14 -27 30 -44
35 -16 6 -37 19 -45 30 -17 20 -17 20 -66 -4 -63 -30 -84 -47 -77 -65 3 -8 -1
-14 -10 -14 -17 0 -47 -52 -47 -81 0 -23 29 -39 69 -39 28 0 31 -3 31 -30 0
-32 -13 -40 -27 -16 -12 21 -111 9 -124 -16 -14 -27 -1 -41 32 -34 22 4 31 1
40 -16 11 -20 10 -21 -35 -16 -70 8 -78 19 -72 102 3 39 8 82 11 96 3 14 8 53
12 88 7 73 14 79 108 98 65 12 232 17 279 8z m-784 -76 l0 -46 -29 29 c-27 26
-36 29 -97 29 -63 0 -70 -2 -121 -41 -57 -45 -68 -76 -38 -115 8 -10 15 -28
15 -38 0 -23 28 -56 47 -56 8 0 12 -4 9 -9 -3 -5 -23 -7 -45 -4 -49 7 -83 -11
-79 -40 4 -26 33 -34 56 -15 18 15 107 38 147 38 12 0 36 -7 51 -15 l29 -15
-25 0 c-14 0 -79 -9 -145 -20 -66 -11 -123 -20 -127 -20 -9 0 -8 242 1 284 5
23 18 35 61 57 80 41 266 76 282 54 4 -5 8 -31 8 -57z m1278 44 c9 -3 12 -15
8 -36 -3 -17 -8 -69 -12 -116 -3 -47 -9 -112 -12 -144 l-7 -59 -86 -2 c-85 -2
-86 -1 -81 22 3 18 0 23 -17 23 -16 0 -21 -6 -21 -25 0 -22 -4 -24 -44 -23
-24 0 -49 -2 -54 -6 -6 -3 -43 -3 -82 0 l-72 7 5 66 c3 36 10 89 16 116 6 28
16 81 22 118 l12 69 206 -3 c113 -1 212 -5 219 -7z m-934 -17 c19 -14 19 -42
1 -180 -3 -16 -5 -53 -6 -81 l-2 -51 -74 -7 c-41 -3 -79 -4 -83 -1 -4 2 -39 5
-77 6 l-69 1 7 57 c4 31 5 100 3 155 -2 54 -1 102 2 107 3 5 67 9 142 9 103
-1 142 -4 156 -15z m-2548 -22 c-10 -10 -19 5 -10 18 6 11 8 11 12 0 2 -7 1
-15 -2 -18z m2093 -42 c14 -26 -12 -77 -44 -85 -15 -4 -28 -6 -30 -4 -1 2 -5
25 -8 51 -4 43 -2 49 16 56 28 10 55 3 66 -18z m73 -37 c6 -34 3 -42 -18 -61
-15 -14 -38 -23 -57 -23 l-32 1 26 16 c36 22 59 64 52 93 -4 17 -2 21 8 18 8
-3 17 -22 21 -44z m633 36 c-3 -5 0 -11 7 -12 7 0 18 -2 23 -2 24 -3 35 -19
35 -51 0 -40 -36 -71 -70 -60 -27 9 -26 33 2 37 26 3 35 32 18 53 -15 18 -51
19 -69 3 -8 -7 -6 -1 4 15 9 15 26 27 37 27 10 0 16 -4 13 -10z m-2838 -6 c-3
-3 -12 -4 -19 -1 -8 3 -5 6 6 6 11 1 17 -2 13 -5z m2970 -10 c9 -25 -10 -75
-36 -92 -23 -16 -23 -16 -15 8 5 14 8 42 7 63 -1 30 2 37 18 37 11 0 22 -7 26
-16z m-3127 2 c0 -8 -51 -13 -56 -5 -3 5 9 9 25 9 17 0 31 -2 31 -4z m3861
-19 c-13 -13 -26 -3 -16 12 3 6 11 8 17 5 6 -4 6 -10 -1 -17z m127 1 c13 -13
16 -57 4 -74 -4 -6 -17 -14 -29 -18 -13 -4 -23 -12 -23 -17 0 -5 -18 -9 -40
-9 -30 0 -42 5 -50 21 -16 28 -7 34 23 15 49 -33 103 17 62 58 -8 8 -15 19
-15 25 0 15 53 14 68 -1z m-1820 -22 c2 -10 -1 -23 -7 -29 -16 -16 -34 6 -26
33 8 24 28 22 33 -4z m770 -40 c8 -19 8 -27 -3 -36 -21 -17 -45 -5 -45 23 0
43 30 51 48 13z m-536 -68 c2 -20 0 -34 -4 -32 -4 3 -8 -15 -8 -40 0 -50 -4
-54 -26 -31 -9 8 -11 15 -5 15 6 0 11 7 11 15 0 8 -5 15 -12 15 -6 0 -4 7 5
18 26 29 20 39 -19 36 -40 -3 -38 2 16 38 19 14 36 19 37 14 1 -6 3 -28 5 -48z
m-212 32 c0 -5 -5 -10 -11 -10 -5 0 -7 5 -4 10 3 6 8 10 11 10 2 0 4 -4 4 -10z
m66 -21 c7 -12 -22 -46 -32 -37 -8 9 5 48 16 48 5 0 12 -5 16 -11z m781 -5
c-3 -3 -12 -4 -19 -1 -8 3 -5 6 6 6 11 1 17 -2 13 -5z m-1063 -83 c11 0 16 -4
12 -8 -3 -4 -194 -8 -424 -9 -229 -2 -612 -5 -849 -8 -268 -3 -435 -1 -438 5
-4 5 31 9 87 9 167 1 1063 12 1065 13 2 2 517 0 547 -2z m1056 -27 c8 -3 22
-9 30 -12 8 -4 -16 -8 -54 -10 -37 -2 -70 -1 -73 2 -2 2 6 16 18 30 21 24 24
25 43 11 12 -8 28 -18 36 -21z m-739 -43 c-18 -11 -7 -41 15 -41 13 0 15 6 11
30 -8 38 7 39 23 1 8 -19 10 -76 8 -172 l-4 -144 -39 -7 c-22 -5 -85 -12 -140
-17 -55 -5 -113 -13 -128 -16 l-27 -7 5 48 c2 27 7 81 11 119 7 92 19 134 47
166 21 25 30 28 177 58 38 8 64 -4 41 -18z m457 7 c9 -12 17 -189 13 -296 l-1
-43 -57 1 c-32 1 -98 -1 -148 -5 -49 -3 -95 -2 -101 2 -12 9 -28 336 -17 347
4 3 73 6 153 6 106 0 150 -4 158 -12z m242 -13 l165 -1 -2 -34 c-1 -19 -2 -84
-3 -145 -2 -148 -1 -145 -61 -145 -27 0 -49 5 -49 10 0 14 -30 12 -35 -3 -4
-9 -33 -12 -99 -12 -52 0 -96 2 -99 5 -3 3 -8 73 -12 155 -4 83 -7 152 -7 155
-2 25 3 31 20 24 9 -5 91 -9 182 -9z m616 1 c3 -8 0 -33 -6 -56 -6 -23 -11
-86 -12 -141 l0 -99 -44 3 c-59 5 -64 13 -20 31 31 13 36 20 37 48 1 18 3 55
5 81 4 41 1 51 -22 73 -21 22 -31 25 -57 19 -18 -5 -53 -8 -78 -9 -63 -1 -91
-27 -87 -78 1 -21 -3 -43 -10 -50 -28 -28 1 -98 41 -98 12 0 28 -9 35 -20 14
-22 42 -26 60 -8 9 9 15 9 24 0 7 -7 23 -12 37 -13 27 -1 28 -1 -44 -19 -5 -1
-25 -2 -43 -1 -25 1 -35 6 -39 21 -3 11 -9 21 -14 21 -5 1 -21 3 -36 5 -16 1
-43 6 -60 10 -20 4 -33 2 -33 -4 0 -18 30 -34 53 -28 14 3 32 -1 43 -9 17 -13
11 -14 -58 -15 -42 0 -80 5 -83 10 -9 15 -15 215 -9 276 l6 50 151 2 c83 1
153 5 156 7 11 12 102 4 107 -9z m892 -16 c2 -6 15 -10 28 -10 l25 0 -6 -122
c-8 -152 -16 -203 -34 -203 -30 0 -36 32 -14 78 14 29 18 49 12 58 -5 8 -8 38
-7 66 3 69 -9 80 -108 100 -69 14 -83 15 -108 2 -41 -20 -63 -80 -47 -125 17
-46 5 -61 -24 -34 -25 23 -48 20 -38 -5 3 -8 1 -15 -5 -15 -5 0 -24 -3 -42 -7
l-33 -6 7 99 c12 156 -13 139 204 136 109 -1 188 -7 190 -12z m-2101 -72 c-3
-8 -6 -5 -6 6 -1 11 2 17 5 13 3 -3 4 -12 1 -19z m1117 16 c9 -3 16 -17 16
-30 0 -20 -3 -22 -22 -15 -13 5 -31 12 -42 15 -15 5 -16 9 -6 21 13 16 29 19
54 9z m789 -18 c-14 -19 -19 -21 -21 -9 -2 9 2 19 10 24 24 16 29 9 11 -15z
m-890 7 c9 -9 -33 -53 -50 -53 -16 0 -17 32 -1 48 13 13 41 16 51 5z m1003
-14 c10 -17 -11 -31 -39 -24 -17 5 -24 12 -20 21 6 16 49 19 59 3z m71 -14 c6
-18 -23 -55 -44 -55 -16 0 -16 10 -3 44 11 29 37 35 47 11z m-2086 -286 c0
-248 -1 -264 -18 -264 -13 0 -18 7 -17 25 1 14 4 95 8 180 8 196 17 332 23
327 2 -3 4 -123 4 -268z m1035 244 c-10 -10 -19 5 -10 18 6 11 8 11 12 0 2 -7
1 -15 -2 -18z m834 2 c7 -9 8 -15 2 -15 -5 0 -12 7 -16 15 -3 8 -4 15 -2 15 2
0 9 -7 16 -15z m86 -10 c4 -8 12 -15 20 -15 16 0 54 -35 54 -50 0 -12 -34 -30
-58 -30 -27 0 -56 35 -49 60 3 11 1 23 -4 26 -16 10 -10 24 11 24 11 0 23 -7
26 -15z m-950 -30 c16 -8 23 -15 15 -15 -8 0 -25 -10 -38 -22 -21 -20 -25 -20
-39 -6 -13 13 -14 19 -2 37 15 25 26 26 64 6z m111 -6 c17 -17 4 -39 -22 -39
-28 0 -38 12 -29 34 7 19 35 21 51 5z m804 -50 c29 -27 39 -30 73 -26 22 3 47
14 54 24 13 16 14 15 8 -11 -11 -46 -33 -57 -100 -53 -65 4 -86 20 -86 69 0
36 10 35 51 -3z m-881 -7 c0 -13 -12 -22 -22 -16 -10 6 -1 24 13 24 5 0 9 -4
9 -8z m730 -21 c36 13 53 3 27 -16 -15 -11 -16 -17 -7 -34 10 -20 8 -21 -40
-21 l-50 0 0 40 c0 37 2 40 19 31 13 -7 29 -7 51 0z m113 -39 c22 -24 13 -32
-36 -32 l-40 0 24 24 c30 30 32 30 52 8z m-1940 -49 c8 -16 -13 -328 -24 -355
-9 -22 -17 -28 -38 -26 -24 3 -26 0 -31 -47 -3 -29 -8 -45 -13 -38 -4 7 -14
10 -22 6 -17 -6 -18 -12 -6 -32 8 -13 12 -13 27 0 16 13 16 12 6 -8 -7 -12
-12 -31 -12 -42 0 -26 -1 -26 -53 1 -34 18 -58 22 -125 21 -61 0 -80 3 -72 11
6 6 18 11 28 11 10 0 18 9 20 23 3 16 -2 22 -16 22 -10 0 -24 -10 -31 -22 -9
-18 -10 -18 -5 -3 3 11 7 29 9 40 1 11 3 23 4 27 0 4 8 5 16 2 18 -7 47 14 39
28 -3 5 -17 7 -31 3 -21 -5 -23 -4 -14 14 6 11 9 26 6 33 -8 22 10 39 55 49
46 11 75 -2 65 -29 -4 -12 -3 -13 10 -2 14 11 13 14 -2 27 -16 12 -6 14 80 10
53 -2 97 0 97 4 0 30 -100 40 -244 24 l-68 -7 4 105 c2 58 6 108 9 112 7 7 98
21 189 30 36 4 67 9 69 11 7 7 70 4 74 -3z m423 -9 c-3 -8 -6 -78 -7 -154 -1
-126 -3 -140 -19 -140 -9 0 -39 -3 -65 -7 -36 -4 -46 -3 -41 6 12 18 -4 91
-19 91 -17 0 -30 -20 -19 -29 5 -3 9 -20 9 -38 0 -31 -1 -32 -51 -39 -68 -8
-94 1 -94 32 0 13 -4 24 -9 24 -5 0 -9 58 -10 130 l-1 129 107 3 c60 2 134 4
166 5 48 1 57 -1 53 -13z m371 2 c3 -2 0 -28 -6 -56 -6 -28 -11 -72 -11 -98 0
-26 -3 -57 -6 -69 -5 -19 -9 -20 -25 -10 -15 9 -24 8 -46 -4 -16 -9 -34 -14
-40 -12 -23 8 -13 21 22 27 36 7 69 42 80 88 11 45 -12 71 -95 108 -17 8 -31
8 -48 1 -12 -6 -34 -11 -47 -11 -34 0 -75 -53 -75 -97 0 -29 8 -43 53 -84 28
-27 57 -49 63 -49 5 0 18 -6 27 -12 14 -11 -1 -13 -85 -15 -81 -2 -98 0 -78 8
14 6 39 11 57 10 31 0 32 1 21 25 -10 21 -17 25 -42 21 -17 -2 -39 -7 -48 -12
-17 -7 -17 0 -12 86 3 52 7 108 8 124 l1 30 90 6 c94 7 233 4 242 -5z m449 2
c8 -13 7 -114 -1 -196 l-7 -67 -36 -1 c-125 -5 -422 -24 -449 -30 -26 -5 -33
-3 -33 9 0 18 42 28 64 15 18 -10 23 5 30 87 2 28 6 61 9 75 16 84 20 100 26
101 3 0 77 2 164 3 87 2 160 6 163 9 9 9 64 5 70 -5z m172 4 c20 -7 14 -19
-23 -42 -28 -17 -35 -28 -35 -53 0 -17 7 -39 17 -49 15 -17 15 -18 -12 -18
-16 0 -37 -7 -47 -17 -10 -9 -20 -14 -23 -12 -6 7 -12 189 -6 195 6 6 109 3
129 -4z m731 -8 c24 -5 24 -5 18 -109 -4 -57 -9 -122 -13 -145 -6 -36 -10 -41
-28 -36 -12 3 -40 6 -63 6 -36 0 -41 2 -36 20 4 15 0 20 -15 20 -12 0 -26 -9
-32 -20 -8 -15 -21 -20 -50 -20 -35 0 -38 2 -36 25 1 14 5 28 9 31 9 10 -4 34
-18 34 -21 0 -28 -19 -15 -35 10 -12 10 -15 0 -15 -7 0 -10 -8 -7 -20 4 -15 0
-20 -15 -20 -13 0 -18 5 -15 13 3 8 1 20 -3 27 -7 11 -11 11 -24 1 -9 -7 -13
-17 -11 -22 3 -4 -8 -7 -25 -6 l-30 2 4 128 c2 70 6 130 9 133 7 7 304 21 342
16 17 -2 41 -6 54 -8z m-522 0 c-3 -3 -12 -4 -19 -1 -8 3 -5 6 6 6 11 1 17 -2
13 -5z m70 -2 c9 -6 11 -42 6 -144 l-6 -136 -51 -6 c-65 -8 -326 4 -348 16
-10 5 -18 18 -18 28 0 23 3 24 30 10 11 -5 29 -15 40 -20 14 -7 27 -7 41 1 15
8 28 8 48 0 36 -15 231 -10 231 5 0 20 -27 24 -125 17 -69 -4 -95 -3 -95 5 0
7 16 12 40 12 46 0 147 25 166 41 19 16 19 119 -1 145 -8 10 -15 22 -15 27 0
9 42 9 57 -1z m-111 -58 c15 -37 13 -64 -6 -64 -5 0 -10 6 -10 13 0 8 -9 22
-20 32 -23 21 -26 41 -7 48 23 10 28 7 43 -29z m-116 12 c0 -8 -4 -18 -10 -21
-5 -3 -10 -16 -10 -29 0 -31 -8 -36 -36 -24 -31 15 -30 41 2 67 31 24 54 27
54 7z m-1898 -24 c9 -9 8 -12 -7 -14 -11 0 -27 -1 -35 0 -8 1 -34 2 -57 3 -51
2 -57 16 -10 21 56 6 96 3 109 -10z m1118 -3 c15 -26 7 -34 -18 -20 -11 6 -28
8 -36 5 -16 -6 -23 16 -9 29 14 15 53 6 63 -14z m-115 1 c3 -5 1 -10 -4 -10
-6 0 -11 5 -11 10 0 6 2 10 4 10 3 0 8 -4 11 -10z m25 -29 c0 -6 -4 -13 -10
-16 -5 -3 -10 1 -10 9 0 9 5 16 10 16 6 0 10 -4 10 -9z m930 -6 c0 -9 -7 -18
-16 -22 -18 -7 -39 11 -30 26 11 17 46 13 46 -4z m-870 -34 c14 -27 13 -38 -6
-45 -22 -8 -51 1 -57 18 -4 10 0 12 14 9 14 -4 19 0 19 16 0 26 16 27 30 2z
m584 -199 c-4 -20 -8 -71 -8 -114 -1 -42 -5 -80 -9 -84 -4 -5 -17 -3 -28 4
-13 8 -33 11 -51 7 -23 -5 -34 -2 -49 14 -25 26 -24 27 10 34 48 10 64 34 57
86 -8 57 -17 66 -69 66 -78 0 -55 20 33 28 47 5 89 13 95 18 16 16 28 -20 19
-59z m496 49 c0 -14 63 -21 220 -25 153 -4 190 -15 191 -55 5 -261 5 -251 -17
-251 -12 0 -24 7 -28 15 -3 8 -12 15 -21 15 -19 0 -19 14 0 30 8 7 15 17 15
22 0 5 9 21 20 35 15 20 18 34 13 71 -7 55 -17 71 -58 88 -30 12 -61 5 -77
-20 -5 -7 -17 -7 -41 2 -49 18 -61 15 -95 -19 -27 -27 -30 -37 -30 -91 0 -51
4 -65 24 -84 24 -25 63 -30 114 -15 32 9 121 -46 99 -60 -20 -12 -112 -11
-104 1 3 6 15 10 26 10 27 0 24 18 -5 26 -30 7 -49 -3 -42 -22 4 -11 -9 -14
-68 -14 -50 0 -75 4 -79 13 -2 6 -3 45 -1 85 3 58 -1 86 -21 144 -14 39 -32
80 -42 90 -9 11 -11 18 -5 18 7 0 12 -4 12 -9z m-760 -41 c-85 -66 -122 -108
-122 -136 0 -15 8 -33 18 -41 24 -18 89 -17 104 2 15 19 74 21 67 3 -2 -7 -16
-12 -31 -11 -24 2 -26 0 -15 -13 8 -10 21 -13 36 -9 26 6 30 -6 9 -24 -9 -8
-48 -11 -112 -9 l-98 3 -9 35 c-12 50 -17 214 -7 220 5 3 50 5 101 5 l91 0
-32 -25z m-899 -56 c-5 -32 -15 -75 -23 -94 -12 -33 -14 -34 -29 -19 -18 18
-31 89 -16 89 4 0 5 9 2 20 -5 15 3 28 26 50 18 16 37 26 41 22 5 -5 4 -35 -1
-68z m1585 54 c-8 -13 -7 -21 1 -29 16 -16 47 -3 39 16 -3 8 -2 15 2 15 9 0
42 -94 44 -125 1 -11 0 -53 0 -92 l-2 -73 -35 0 c-28 0 -35 4 -35 19 0 28 -17
34 -37 14 -15 -15 -32 -18 -120 -15 -71 3 -106 8 -114 18 -7 9 -16 11 -28 4
-16 -8 -85 1 -97 13 -7 7 -7 203 1 226 7 22 46 26 281 26 103 0 110 -1 100
-17z m-1243 -20 c-2 -18 -5 -57 -7 -86 -3 -50 -6 -56 -53 -98 -47 -40 -80 -54
-96 -38 -10 10 4 34 20 34 8 0 28 13 44 29 38 39 40 91 3 127 -18 18 -32 24
-47 20 -12 -3 -37 -6 -54 -6 -44 0 -69 -27 -77 -85 -7 -41 -5 -50 15 -71 12
-13 31 -24 41 -24 24 0 23 -22 -2 -51 l-20 -24 -20 24 c-14 16 -32 24 -57 25
-56 2 -52 -21 9 -49 29 -13 50 -24 46 -25 -35 -5 -133 0 -135 7 -2 5 8 40 23
79 23 63 44 127 63 194 6 24 12 26 111 36 58 6 126 12 151 13 l46 1 -4 -32z
m341 21 c2 -2 6 -50 9 -106 3 -55 8 -106 11 -112 11 -17 -53 -13 -71 4 -16 17
-33 12 -33 -11 0 -11 -15 -14 -67 -14 -46 0 -63 3 -53 10 8 5 11 12 7 16 -4 4
0 12 8 18 8 6 18 26 21 45 6 29 4 33 -12 29 -10 -2 -19 -10 -20 -18 0 -8 -7
-28 -14 -45 -7 -16 -13 -33 -12 -37 1 -5 -5 -8 -13 -8 -9 0 -15 9 -15 25 0 14
-7 28 -15 31 -8 4 -12 10 -9 15 3 5 -5 18 -17 28 -21 16 -22 22 -13 72 l9 54
65 5 c75 6 228 5 234 -1z m266 -23 c0 -24 -27 -68 -35 -56 -4 6 1 18 11 25 16
12 16 14 4 15 -9 0 -21 -5 -28 -12 -9 -9 -12 -8 -12 5 0 16 25 36 48 37 6 0
12 -6 12 -14z m98 -8 c16 -16 15 -63 -1 -76 -7 -6 -22 -11 -32 -11 -11 0 -33
-3 -50 -7 l-30 -7 30 25 c26 22 28 28 16 42 -12 14 -11 19 5 31 23 18 46 19
62 3z m943 -8 c23 -13 24 -38 4 -68 -14 -18 -22 -21 -63 -16 -71 8 -95 14 -87
22 4 4 28 7 53 7 43 0 47 2 48 25 2 45 8 49 45 30z m-1753 -32 c19 -19 14 -50
-12 -83 -21 -25 -28 -28 -43 -19 -23 14 -29 44 -9 44 9 0 16 -4 16 -10 0 -5 7
-10 15 -10 18 0 19 14 4 41 -19 36 3 63 29 37z m1603 -5 c-5 -10 -12 -26 -15
-35 -8 -26 -36 -23 -36 3 0 22 25 48 48 49 8 0 9 -5 3 -17z m-1958 -35 c-10
-21 -12 -21 -18 -5 -10 25 2 54 17 39 8 -8 8 -18 1 -34z m297 32 c0 -5 -9 -10
-20 -10 -11 0 -23 -7 -27 -16 -4 -12 -8 -13 -14 -3 -4 7 -3 19 3 26 12 15 58
18 58 3z m710 -11 c0 -18 -2 -19 -15 -9 -8 7 -15 16 -15 21 0 5 7 9 15 9 9 0
15 -9 15 -21z m-6 -71 c-9 -14 -46 -9 -66 9 -21 19 -23 34 -6 51 9 9 19 5 45
-20 18 -17 30 -35 27 -40z m-745 -11 c6 -8 8 -17 5 -20 -9 -8 -44 11 -44 23 0
15 26 12 39 -3z m1749 -14 c-3 -29 -32 -41 -65 -29 -14 6 -13 10 7 31 33 35
62 34 58 -2z m-2018 13 c0 -3 -4 -8 -10 -11 -5 -3 -10 -1 -10 4 0 6 5 11 10
11 6 0 10 -2 10 -4z m76 -53 c-10 -19 -22 -26 -49 -28 -21 -1 -37 2 -37 6 0
15 50 47 74 47 24 0 25 -2 12 -25z m-206 -4 c37 -21 60 -41 60 -52 0 -5 -7 -4
-15 3 -12 10 -19 10 -28 1 -9 -9 -7 -13 11 -17 27 -8 27 -9 2 -34 -19 -19 -20
-19 -20 -1 0 28 -37 68 -74 81 -43 14 -109 0 -142 -31 -30 -28 -38 -21 -26 22
7 28 14 35 43 41 52 10 161 3 189 -13z m660 -32 c38 -14 83 -16 306 -13 169 2
268 7 282 15 31 16 165 19 184 3 24 -20 126 -43 203 -47 148 -7 263 -17 345
-31 47 -8 112 -14 144 -14 33 0 56 -3 52 -7 -11 -12 -1054 -15 -1076 -3 -12 7
-21 7 -25 0 -4 -6 -115 -10 -301 -10 -303 0 -314 1 -280 39 8 9 34 37 57 64
33 38 44 44 53 34 6 -8 31 -21 56 -30z m-756 -13 c16 -6 23 -54 8 -54 -20 0
-43 27 -36 43 7 19 7 19 28 11z m270 -41 c-9 -35 -44 -83 -60 -83 -24 0 -35
28 -28 67 7 35 8 36 17 15 6 -12 18 -22 28 -22 21 0 34 16 19 25 -17 10 -11
25 10 25 17 0 19 -4 14 -27z m276 17 c0 -5 -9 -10 -20 -10 -11 0 -20 5 -20 10
0 6 9 10 20 10 11 0 20 -4 20 -10z m-610 -8 c0 -13 -12 -22 -22 -16 -10 6 -1
24 13 24 5 0 9 -4 9 -8z m131 -39 c-9 -15 -10 -12 -10 17 0 29 1 32 10 18 7
-12 7 -24 0 -35z m-171 -23 c6 -11 7 -20 2 -20 -10 0 -32 21 -32 32 0 16 19 8
30 -12z m100 5 c10 -11 9 -18 -4 -30 -14 -14 -16 -14 -16 -2 0 9 -3 22 -6 31
-8 20 10 21 26 1z m465 -5 c0 -8 -18 -25 -40 -37 -49 -26 -55 -27 -55 -7 0 8
4 13 9 10 4 -3 17 1 27 9 19 13 19 14 0 21 -10 4 -27 2 -39 -5 -16 -10 -21
-10 -28 0 -12 21 11 29 71 27 41 -2 55 -7 55 -18z m-625 1 c0 -5 14 -22 30
-38 27 -26 29 -32 15 -43 -10 -8 -15 -9 -15 -1 0 17 -78 64 -95 57 -24 -9 -19
-54 8 -59 12 -2 2 -5 -22 -6 -36 -1 -42 2 -37 15 13 33 52 72 76 77 14 2 28 5
33 6 4 0 7 -3 7 -8z m464 -12 c-3 -6 -1 -15 6 -19 7 -4 9 -13 5 -20 -5 -8 -11
-5 -22 9 -14 21 -10 41 8 41 6 0 7 -5 3 -11z m-128 -33 c10 -8 16 -17 13 -21
-9 -8 -59 16 -53 26 7 13 17 11 40 -5z m-156 -31 c0 -9 -9 -15 -22 -15 -22 1
-23 1 -4 15 25 19 26 19 26 0z M660 8531 c0 -6 5 -13 10 -16 6 -3 10 1 10 9 0
9 -4 16 -10 16 -5 0 -10 -4 -10 -9z M815 8250 c-3 -5 -1 -10 4 -10 6 0 11 5
11 10 0 6 -2 10 -4 10 -3 0 -8 -4 -11 -10z M375 8280 c-4 -6 -4 -10 -1 -10 2
0 11 -3 20 -6 9 -3 16 -2 16 4 0 14 -28 23 -35 12z M510 8285 c0 -5 5 -17 10
-25 5 -8 10 -10 10 -5 0 6 -5 17 -10 25 -5 8 -10 11 -10 5z M430 8261 c0 -5 7
-11 15 -15 8 -3 15 -1 15 3 0 5 -7 11 -15 15 -8 3 -15 1 -15 -3z M475 7520 c3
-5 8 -10 11 -10 2 0 4 5 4 10 0 6 -5 10 -11 10 -5 0 -7 -4 -4 -10z M680 6941
c0 -6 4 -13 10 -16 6 -3 7 1 4 9 -7 18 -14 21 -14 7z M235 7170 c3 -5 8 -10
11 -10 2 0 4 5 4 10 0 6 -5 10 -11 10 -5 0 -7 -4 -4 -10z M460 6850 c0 -5 5
-10 10 -10 6 0 10 5 10 10 0 6 -4 10 -10 10 -5 0 -10 -4 -10 -10z M914 5131
c4 -5 1 -12 -4 -14 -6 -3 -5 -4 2 -3 15 3 23 26 8 26 -6 0 -9 -4 -6 -9z M910
5079 c0 -5 5 -7 10 -4 6 3 10 8 10 11 0 2 -4 4 -10 4 -5 0 -10 -5 -10 -11z
M1605 5070 c3 -5 8 -10 11 -10 2 0 4 5 4 10 0 6 -5 10 -11 10 -5 0 -7 -4 -4
-10z M2506 4599 c-26 -21 -34 -39 -17 -39 14 0 80 44 81 53 0 15 -38 6 -64
-14z M2720 4595 c0 -4 10 -17 23 -29 12 -12 29 -32 38 -45 9 -15 20 -21 27
-17 11 7 3 32 -25 73 -10 13 -63 29 -63 18z M2538 4534 c-16 -8 -28 -19 -28
-24 0 -5 -26 -41 -58 -79 -58 -69 -59 -71 -92 -208 -17 -76 -37 -149 -42 -163
-17 -41 -58 -262 -58 -311 0 -29 6 -51 15 -59 8 -7 15 -11 16 -9 0 2 2 33 4
69 5 68 40 245 74 365 10 39 29 105 40 148 22 81 70 155 154 239 20 20 37 40
37 43 0 10 -35 4 -62 -11z M2493 4328 c-14 -19 -67 -160 -101 -268 -33 -106
-45 -179 -33 -199 14 -23 28 -4 34 46 8 66 50 210 87 292 16 38 30 74 30 80 0
5 7 14 17 19 10 6 14 16 10 26 -8 19 -31 21 -44 4z M2278 4186 c-20 -42 -19
-84 2 -71 6 4 17 22 25 41 8 19 19 34 24 34 6 0 11 9 11 20 0 13 -7 20 -20 20
-14 0 -27 -14 -42 -44z M2773 4053 c-7 -2 -13 -9 -13 -15 0 -14 43 -6 48 10 4
12 -12 15 -35 5z M2692 3961 c-16 -50 -15 -61 3 -61 13 0 35 55 35 88 0 28
-28 9 -38 -27z M2705 3880 c-16 -26 -35 -126 -29 -156 10 -56 37 -38 40 26 1
19 5 59 9 88 5 35 4 52 -3 52 -6 0 -14 -4 -17 -10z M2336 3738 c-14 -43 -20
-171 -18 -373 2 -193 5 -245 23 -323 17 -75 24 -92 37 -89 10 2 15 10 13 18
-2 8 -10 41 -18 74 -9 33 -17 114 -18 180 -1 66 -6 164 -10 217 -6 69 -4 110
5 143 17 61 19 157 3 162 -7 3 -15 -1 -17 -9z M2244 3663 c-4 -10 -9 -63 -10
-118 -2 -114 -9 -212 -25 -370 -17 -165 -14 -465 5 -549 12 -50 54 -127 76
-141 7 -4 16 -3 22 3 6 6 1 23 -16 49 -47 71 -60 161 -60 408 0 136 4 203 19
320 2 22 7 71 11 110 3 38 8 73 11 77 7 13 -8 228 -17 228 -4 0 -11 -8 -16
-17z M2822 3557 c-5 -6 -12 -65 -15 -129 -4 -94 -3 -118 8 -118 21 0 27 29 30
143 3 105 -3 129 -23 104z M2380 2895 c0 -3 7 -22 15 -42 12 -28 18 -34 27
-25 16 16 -2 66 -25 70 -9 2 -17 1 -17 -3z M760 3640 c0 -5 5 -10 10 -10 6 0
10 5 10 10 0 6 -4 10 -10 10 -5 0 -10 -4 -10 -10z M1550 3890 c0 -5 5 -10 10
-10 6 0 10 5 10 10 0 6 -4 10 -10 10 -5 0 -10 -4 -10 -10z M3026 2972 c-10
-16 10 -67 27 -70 23 -5 32 24 19 54 -11 24 -36 32 -46 16z M2957 2956 c-9
-23 19 -41 38 -26 12 10 13 16 4 26 -15 18 -35 18 -42 0z M2873 2944 c-5 -15
11 -33 30 -34 15 0 20 32 6 41 -20 13 -29 11 -36 -7z M2946 2904 c-6 -6 -16
-9 -23 -7 -18 6 -26 -16 -12 -33 12 -14 14 -14 25 1 7 9 17 14 23 11 5 -4 13
-1 16 5 5 7 14 3 26 -10 20 -21 49 -19 49 4 0 35 -77 57 -104 29z M2951 2834
c-29 -20 -14 -39 24 -30 17 4 25 12 23 23 -4 23 -20 26 -47 7z M3547 2840
c-21 -25 -21 -30 -1 -30 18 0 44 23 44 39 0 18 -24 12 -43 -9z M3917 2909
c-20 -17 -37 -36 -37 -43 0 -20 34 -46 61 -46 27 -1 66 -26 55 -37 -4 -4 -23
-6 -42 -5 -25 2 -35 -1 -32 -10 3 -7 20 -13 39 -14 19 -1 43 -3 54 -5 16 -3
19 1 18 19 -3 20 2 22 40 22 30 0 50 6 65 20 34 32 32 62 -6 103 -26 27 -64
35 -91 18 -19 -12 3 -23 32 -16 19 5 29 0 46 -21 35 -45 25 -75 -31 -89 -39
-10 -53 3 -26 25 27 22 18 47 -25 68 -15 7 -27 20 -27 28 0 25 -53 16 -93 -17z
m79 -4 c2 -5 -7 -23 -20 -39 -26 -32 -56 -30 -56 3 0 35 67 67 76 36z m52 -47
c-5 -15 -48 -24 -48 -10 0 14 12 22 33 22 10 0 17 -5 15 -12z M3821 2809 c-16
-36 -12 -41 34 -45 25 -2 35 1 35 11 0 8 -7 15 -15 15 -8 0 -16 5 -16 10 -1 6
-2 15 -3 22 -2 24 -22 17 -35 -13z M4546 2865 c-3 -9 1 -18 10 -22 19 -7 39
11 30 26 -10 16 -33 13 -40 -4z M4346 2855 c-8 -8 -22 -15 -30 -15 -17 0 -22
-25 -7 -35 5 -3 16 1 23 9 8 8 23 15 33 17 10 2 20 9 22 15 6 18 -25 25 -41 9z
M4414 2859 c-3 -6 -1 -16 4 -21 13 -13 45 8 36 23 -7 12 -31 11 -40 -2z M4480
2856 c0 -15 27 -29 40 -21 5 3 7 12 3 20 -7 19 -43 20 -43 1z M4364 2807 c-4
-11 -17 -17 -35 -17 -19 0 -29 -5 -29 -15 0 -8 6 -15 13 -15 6 0 22 -3 34 -6
18 -5 25 -1 33 22 7 18 7 31 1 37 -7 7 -12 5 -17 -6z M4472 2768 c2 -12 11
-24 21 -26 14 -3 18 1 15 20 -2 12 -11 24 -21 26 -14 3 -18 -1 -15 -20z M4527
2754 c-14 -14 -7 -35 11 -32 9 2 17 10 17 17 0 16 -18 25 -28 15z M3020 2740
c-11 -7 -12 -12 -3 -21 14 -14 46 -4 41 13 -6 16 -20 19 -38 8z M3221 2717
c-8 -8 -8 -14 0 -24 17 -19 39 -16 39 6 0 23 -23 34 -39 18z M3045 2690 c-4
-7 -3 -16 3 -22 14 -14 45 -2 40 15 -6 16 -34 21 -43 7z M3182 2664 c2 -11 11
-20 22 -22 13 -3 17 1 14 14 -2 11 -11 20 -22 22 -13 3 -17 -1 -14 -14z M3055
2639 c-10 -16 11 -27 49 -25 20 1 31 7 31 16 0 19 -70 27 -80 9z M3150 2616
c0 -27 14 -40 34 -33 21 8 8 57 -15 57 -13 0 -19 -7 -19 -24z M3040 2585 c0
-8 9 -15 20 -15 11 0 20 7 20 15 0 8 -9 15 -20 15 -11 0 -20 -7 -20 -15z
M2981 2556 c-13 -15 -4 -26 21 -26 21 0 24 25 4 33 -8 3 -19 0 -25 -7z M1819
2644 c-23 -59 -5 -147 40 -191 37 -37 108 -76 115 -64 4 5 1 14 -6 20 -101 80
-126 124 -113 200 4 28 2 41 -9 50 -13 11 -17 9 -27 -15z M3600 2655 c-7 -8
-10 -19 -6 -22 9 -9 38 8 38 22 -1 16 -18 16 -32 0z M3805 2660 c-10 -17 6
-32 28 -26 12 3 27 0 34 -5 14 -12 33 -4 33 16 0 17 -32 29 -40 14 -6 -8 -9
-8 -14 0 -9 14 -33 14 -41 1z M3915 2650 c-4 -6 -1 -17 5 -25 9 -11 9 -15 1
-15 -6 0 -11 -7 -11 -15 0 -8 9 -15 21 -15 14 0 19 6 17 18 -1 9 1 23 5 30 5
6 5 17 2 22 -8 13 -32 13 -40 0z M3991 2647 c-9 -11 -8 -17 4 -27 12 -10 16
-9 21 5 9 23 -10 40 -25 22z M3831 2607 c-7 -7 -7 -14 0 -23 12 -15 39 -7 39
11 0 18 -25 26 -39 12z M3894 2559 c-10 -17 13 -36 27 -22 12 12 4 33 -11 33
-5 0 -12 -5 -16 -11z M3806 2551 c-8 -12 21 -34 34 -26 17 11 11 35 -9 35 -11
0 -22 -4 -25 -9z M3708 2484 c-12 -11 4 -34 24 -34 13 0 18 6 16 17 -3 18 -29
29 -40 17z M3970 2465 c0 -8 9 -15 20 -15 11 0 20 7 20 15 0 8 -9 15 -20 15
-11 0 -20 -7 -20 -15z M671 2591 c-27 -17 22 -27 104 -21 74 5 78 7 52 18 -33
14 -135 16 -156 3z M870 2576 c0 -9 8 -16 18 -17 43 -2 146 2 150 6 11 11 -8
16 -87 22 -71 5 -81 4 -81 -11z M1604 2349 c-3 -6 0 -15 7 -20 22 -14 59 -11
59 5 0 24 -53 36 -66 15z M374 2269 c-9 -15 -3 -18 55 -21 37 -2 56 1 58 10 3
7 -6 12 -24 13 -15 0 -40 2 -55 4 -15 2 -30 -1 -34 -6z M597 2253 c-46 -13 -2
-25 103 -28 63 -2 126 -6 139 -9 33 -7 79 4 60 14 -23 13 -271 32 -302 23z
M2590 2348 c-51 -24 -137 -30 -145 -11 -6 17 -20 16 -37 0 -7 -7 -21 -16 -31
-20 -10 -4 -16 -11 -12 -16 3 -5 1 -13 -5 -16 -8 -5 -7 -11 1 -21 19 -23 36
-16 43 16 3 17 10 30 15 30 12 0 21 -39 10 -46 -5 -3 -9 -14 -9 -26 0 -14 5
-18 16 -14 9 3 18 6 20 6 2 0 4 8 4 18 0 11 10 27 21 38 22 19 22 19 16 -7 -5
-18 -2 -31 7 -39 12 -9 18 -6 32 17 10 15 19 30 21 32 1 2 8 -1 16 -7 16 -14
32 -4 41 26 11 34 30 27 22 -9 -5 -27 -3 -30 17 -27 16 2 23 11 25 31 2 15 -1
27 -6 27 -5 0 -9 8 -8 17 2 25 -22 25 -74 1z M2581 2261 c-21 -13 -5 -41 23
-41 33 0 44 20 21 37 -22 15 -25 16 -44 4z M2487 2214 c-14 -15 -6 -34 14 -34
14 0 19 5 17 17 -3 18 -20 27 -31 17z M2550 2208 c-1 -16 -47 -51 -59 -44 -12
8 -34 -21 -26 -34 9 -14 33 -13 42 4 4 7 19 17 33 21 22 7 23 6 12 -8 -18 -21
-7 -37 24 -37 26 0 31 9 12 28 -8 8 -8 15 -1 24 14 17 -2 58 -22 58 -8 0 -15
-6 -15 -12z M2403 2194 c-3 -8 -1 -20 6 -27 14 -14 47 15 37 32 -10 16 -36 13
-43 -5z M2430 2100 c0 -11 4 -20 9 -20 13 0 32 26 24 33 -13 14 -33 6 -33 -13z
M3218 2312 c-7 -10 -21 -21 -31 -25 -23 -9 -18 -30 9 -37 10 -3 28 -10 39 -17
16 -9 18 -14 8 -24 -17 -17 -16 -49 1 -49 7 0 19 7 26 15 10 12 10 18 0 30
-11 13 -10 14 4 9 9 -4 16 -1 16 6 0 9 3 10 14 1 17 -14 46 -4 46 17 0 12 4
11 16 -6 13 -18 19 -21 30 -11 20 17 17 32 -11 59 -19 18 -27 20 -38 11 -11
-9 -17 -8 -27 4 -7 8 -21 15 -32 15 -11 0 -28 5 -38 10 -14 8 -22 6 -32 -8z
m76 -52 c5 -5 -8 -5 -29 0 -20 4 -40 11 -43 15 -10 10 61 -5 72 -15z M3422
2268 c2 -12 11 -24 21 -26 14 -3 18 1 15 20 -2 12 -11 24 -21 26 -14 3 -18 -1
-15 -20z M3154 2225 c-7 -18 3 -35 22 -35 20 0 30 30 13 41 -20 12 -29 11 -35
-6z M3300 2165 c-13 -15 -7 -45 8 -45 16 0 34 29 28 45 -7 19 -20 19 -36 0z
M3835 2370 c-11 -5 -43 -9 -71 -9 -39 -1 -55 -6 -72 -24 -28 -29 -28 -67 -2
-95 24 -25 60 -29 60 -7 0 8 -7 15 -15 15 -8 0 -19 9 -25 20 -8 16 -7 25 7 44
21 28 50 30 64 4 13 -25 28 -23 51 7 11 14 28 25 38 25 26 0 62 -49 58 -79 -4
-33 -30 -34 -38 -1 -4 15 -14 26 -27 28 -29 4 -99 -41 -99 -64 -1 -11 -4 -27
-9 -36 -5 -13 0 -21 18 -29 38 -17 44 -41 10 -37 -17 2 -32 13 -43 33 -9 17
-33 38 -53 48 -22 11 -37 26 -37 37 0 23 -26 44 -45 36 -19 -7 -19 -40 0 -56
13 -10 10 -15 -17 -34 -36 -24 -41 -35 -29 -55 8 -12 15 -10 46 7 20 12 38 22
41 22 2 0 3 -15 2 -32 -3 -27 1 -34 18 -36 29 -4 51 23 34 43 -7 8 -9 15 -4
15 5 0 17 -14 26 -30 9 -17 25 -30 35 -31 112 -6 175 -4 183 6 14 16 1 75 -16
75 -8 0 -14 -7 -14 -15 0 -20 -46 -30 -65 -15 -23 19 -18 30 13 30 16 0 47 13
70 30 45 32 53 60 31 103 -31 60 -72 79 -124 57z M4170 2281 c-19 -6 -24 -13
-22 -32 1 -17 -1 -20 -7 -11 -11 18 -46 11 -46 -8 0 -9 9 -15 22 -15 12 0 25
-4 29 -8 16 -15 34 -6 34 17 0 18 6 25 23 28 24 3 31 32 7 34 -8 1 -26 -1 -40
-5z M4244 2279 c-10 -17 23 -46 37 -32 7 7 9 19 6 27 -7 18 -33 21 -43 5z
M4292 2247 c-14 -17 2 -42 22 -34 20 8 20 21 2 36 -10 8 -16 8 -24 -2z M4201
2217 c-8 -8 -7 -15 4 -27 9 -10 17 -32 20 -49 3 -27 0 -34 -21 -41 -32 -13
-30 -25 6 -44 27 -13 36 -13 80 0 35 10 50 20 50 32 0 10 5 23 12 30 8 8 9 15
2 22 -15 15 -44 1 -44 -21 0 -11 -8 -22 -17 -25 -10 -3 -26 -10 -35 -15 -13
-7 -18 -5 -18 5 0 8 5 18 10 21 23 14 2 108 -26 119 -6 2 -17 -1 -23 -7z
M4320 2195 c-13 -16 -6 -35 15 -35 15 0 24 19 17 38 -6 16 -17 15 -32 -3z
M4500 1925 c0 -8 9 -15 20 -15 11 0 20 7 20 15 0 8 -9 15 -20 15 -11 0 -20 -7
-20 -15z M4557 1934 c-9 -10 2 -24 19 -24 8 0 14 7 14 15 0 15 -21 21 -33 9z
M4617 1924 c-9 -10 2 -24 19 -24 8 0 14 7 14 15 0 15 -21 21 -33 9z M4556
1884 c-9 -23 -8 -24 13 -24 19 0 35 23 24 34 -12 11 -31 6 -37 -10z M4637
1853 c-4 -4 -24 -7 -45 -7 -26 -1 -37 -5 -37 -16 0 -15 33 -17 65 -3 8 3 21 7
29 7 19 1 27 26 9 26 -8 0 -18 -3 -21 -7z M4680 1825 c0 -8 9 -15 20 -15 11 0
20 7 20 15 0 8 -9 15 -20 15 -11 0 -20 -7 -20 -15z M4550 1785 c0 -10 7 -15
18 -13 21 4 19 22 -2 26 -10 2 -16 -3 -16 -13z M4700 1775 c0 -10 7 -15 18
-13 21 4 19 22 -2 26 -10 2 -16 -3 -16 -13z M4561 1741 c-8 -5 -10 -14 -7 -20
9 -13 33 -15 40 -2 9 14 -18 31 -33 22z M4246 1613 c-3 -3 -6 -14 -6 -23 0 -9
-16 -25 -35 -36 -19 -10 -35 -22 -35 -27 0 -14 30 -19 45 -7 21 17 51 5 35
-15 -13 -16 -6 -35 14 -35 16 0 30 72 15 80 -10 7 18 37 30 33 3 -2 6 5 6 14
0 12 -9 18 -31 20 -17 1 -34 0 -38 -4z M4167 1586 c-7 -18 1 -26 25 -26 13 0
18 6 16 17 -4 22 -34 29 -41 9z M4124 1509 c-8 -14 11 -33 25 -25 16 10 13 36
-3 36 -8 0 -18 -5 -22 -11z M3940 1485 c-16 -19 -5 -35 23 -33 12 0 29 -1 37
-3 10 -3 15 3 15 16 0 13 -7 20 -21 21 -12 1 -26 4 -32 7 -5 4 -15 0 -22 -8z
M4066 1475 c-3 -9 1 -18 10 -22 19 -7 39 11 30 26 -10 16 -33 13 -40 -4z
M4037 1454 c-14 -15 -6 -34 14 -34 14 0 19 5 17 17 -3 18 -20 27 -31 17z
M3903 1434 c-3 -8 -1 -20 5 -26 6 -6 8 -16 5 -23 -2 -8 5 -19 16 -25 17 -9 22
-8 28 6 4 10 0 22 -10 29 -10 7 -13 16 -7 25 5 8 6 18 4 22 -9 14 -34 9 -41
-8z M4043 1394 c-8 -21 19 -38 30 -18 9 16 1 34 -14 34 -5 0 -12 -7 -16 -16z
M3991 1371 c-14 -9 -9 -41 6 -41 19 1 35 19 30 34 -7 18 -16 20 -36 7z M4619
2300 c-54 -15 -69 -29 -69 -65 0 -18 -4 -37 -10 -40 -17 -10 -11 -51 10 -78
24 -30 25 -37 4 -37 -22 0 -15 -54 9 -58 10 -2 17 3 17 12 0 9 8 16 20 16 11
0 20 -6 20 -14 0 -19 67 -30 130 -21 39 5 50 11 50 25 0 10 7 23 15 30 19 16
5 33 -18 24 -9 -3 -17 -17 -17 -30 0 -27 -12 -31 -30 -9 -15 18 -6 45 14 45
26 0 56 55 56 102 0 64 -17 82 -75 80 -26 -1 -53 2 -59 6 -20 16 -40 19 -67
12z m26 -56 c-9 -14 -14 -32 -11 -40 8 -20 1 -18 -34 14 -27 25 -29 30 -16 41
20 17 70 30 74 19 2 -5 -4 -20 -13 -34z m90 -25 c0 -26 -5 -35 -20 -38 -17 -3
-18 -1 -5 14 11 13 11 21 2 35 -11 19 -5 33 12 27 6 -2 11 -19 11 -38z m40
-59 c-7 -22 -43 -36 -57 -22 -6 6 0 15 16 26 15 9 26 24 26 34 1 16 1 16 11
-1 6 -9 7 -26 4 -37z m-171 21 c3 -5 22 -12 42 -15 43 -9 43 -34 0 -55 -21
-10 -34 -10 -52 -2 -24 11 -41 52 -29 70 8 13 32 14 39 2z m36 -111 c15 -13
37 -20 67 -20 45 0 58 -14 23 -25 -44 -14 -158 37 -128 57 7 4 13 8 14 8 1 0
11 -9 24 -20z m70 10 c0 -5 -9 -10 -20 -10 -11 0 -20 5 -20 10 0 6 9 10 20 10
11 0 20 -4 20 -10z M1557 2101 c-7 -36 1 -63 17 -58 14 5 14 79 0 84 -6 2 -14
-10 -17 -26z M1691 2117 c-11 -15 -6 -47 9 -47 4 0 13 7 20 16 11 12 11 18 -2
30 -13 13 -16 13 -27 1z M616 2095 c-3 -8 -1 -15 4 -15 6 0 10 7 10 15 0 8 -2
15 -4 15 -2 0 -6 -7 -10 -15z M3075 1971 c-8 -15 3 -31 21 -31 9 0 14 7 12 17
-4 20 -24 28 -33 14z M3615 1953 c-27 -7 -68 -50 -60 -63 9 -15 35 -12 35 5 0
8 14 18 33 23 17 4 32 14 32 22 0 16 -12 20 -40 13z M3759 1943 c-28 -4 -56
-44 -45 -62 11 -18 26 -13 26 8 0 24 32 36 59 22 29 -16 22 -64 -10 -71 -13
-3 -25 -14 -27 -24 -3 -16 1 -17 30 -11 18 4 33 8 34 9 16 22 30 71 26 91 -4
23 -38 48 -60 44 -4 -1 -19 -4 -33 -6z M3654 1909 c-7 -12 15 -31 28 -23 4 3
8 12 8 20 0 17 -26 19 -36 3z M3684 1859 c-10 -17 13 -36 27 -22 12 12 4 33
-11 33 -5 0 -12 -5 -16 -11z M3540 1845 c0 -8 9 -15 20 -15 11 0 20 7 20 15 0
8 -9 15 -20 15 -11 0 -20 -7 -20 -15z M3592 1833 c2 -10 10 -18 18 -18 8 0 16
8 18 18 2 12 -3 17 -18 17 -15 0 -20 -5 -18 -17z M3697 1794 c-14 -14 -7 -35
11 -32 9 2 17 10 17 17 0 16 -18 25 -28 15z M2834 2008 c-8 -13 4 -23 29 -23
13 0 22 -6 22 -15 0 -8 8 -16 18 -18 10 -2 17 3 17 12 0 9 -4 16 -9 16 -5 0
-8 8 -7 17 1 12 -8 17 -32 19 -18 1 -35 -3 -38 -8z M2750 1990 c0 -11 -7 -20
-15 -20 -19 0 -19 -9 1 -49 l16 -31 29 24 c30 25 48 25 79 1 8 -6 27 -16 42
-23 18 -7 26 -17 22 -26 -7 -18 14 -32 29 -17 13 13 -9 61 -33 69 -8 3 -24 13
-35 23 -25 22 -75 36 -75 20 0 -6 -7 -8 -16 -4 -9 3 -20 0 -25 -8 -7 -11 -9
-11 -9 2 0 9 7 20 16 23 13 5 14 9 4 21 -17 21 -30 19 -30 -5z M2726 1862 c-8
-13 11 -35 23 -28 16 10 14 36 -3 36 -8 0 -17 -4 -20 -8z M2886 1821 c-7 -11
18 -33 27 -24 4 3 7 12 7 20 0 15 -26 18 -34 4z M2710 1781 c0 -11 4 -22 8
-25 14 -9 35 12 29 28 -9 23 -37 20 -37 -3z M2844 1789 c-3 -6 -1 -16 4 -21
13 -13 45 8 36 23 -7 12 -31 11 -40 -2z M2435 1601 c-9 -16 3 -31 26 -31 14 0
19 6 17 17 -4 20 -33 29 -43 14z M2471 1561 c-15 -10 -8 -41 8 -41 13 0 32 35
24 44 -8 8 -15 7 -32 -3z M2532 1533 c2 -10 10 -18 18 -18 8 0 16 8 18 18 2
12 -3 17 -18 17 -15 0 -20 -5 -18 -17z M2414 1469 c-3 -6 0 -17 8 -25 13 -13
16 -13 27 0 7 8 10 20 6 26 -8 13 -32 13 -41 -1z M2302 1458 c-8 -8 -9 -15 -1
-25 18 -21 41 -16 37 9 -4 26 -19 33 -36 16z M2363 1414 c-8 -21 13 -42 28
-27 13 13 5 43 -11 43 -6 0 -13 -7 -17 -16z M2425 1380 c-9 -15 5 -52 18 -47
15 5 16 49 0 54 -6 2 -14 -1 -18 -7z M2314 1339 c-9 -15 11 -33 30 -26 9 4 13
13 10 22 -7 17 -30 20 -40 4z M2743 1619 c-61 -39 -66 -123 -11 -175 18 -17
41 -40 52 -52 l18 -21 -36 6 c-39 6 -68 -9 -59 -32 4 -11 27 -14 108 -11 110
3 119 6 136 38 11 20 9 21 -22 14 l-33 -6 22 23 c12 13 22 31 22 41 0 10 9 29
20 43 30 38 25 73 -14 114 -32 32 -38 35 -102 37 -54 1 -76 -3 -101 -19z m85
-5 c12 -4 22 -13 22 -21 0 -10 -7 -14 -20 -10 -11 3 -27 -1 -35 -10 -18 -17
-20 -64 -3 -81 18 -18 59 -14 84 9 18 17 21 28 17 67 l-5 47 32 -31 c42 -41
35 -65 -35 -110 -60 -38 -89 -43 -104 -17 -5 10 -18 18 -28 18 -13 0 -19 9
-21 34 -5 51 5 79 36 95 32 18 30 18 60 10z m32 -88 c0 -3 -4 -8 -10 -11 -5
-3 -10 -1 -10 4 0 6 5 11 10 11 6 0 10 -2 10 -4z m34 -111 c-10 -8 -27 -15
-37 -15 -15 0 -13 5 10 24 17 15 32 21 37 15 6 -5 3 -14 -10 -24z M3224 1569
c-10 -17 13 -36 27 -22 12 12 4 33 -11 33 -5 0 -12 -5 -16 -11z M3117 1554
c-14 -14 -7 -35 11 -32 9 2 17 10 17 17 0 16 -18 25 -28 15z M3272 1548 c7
-19 38 -22 38 -4 0 10 -9 16 -21 16 -12 0 -19 -5 -17 -12z M3073 1495 c-7 -20
2 -29 21 -22 9 4 13 13 10 22 -8 19 -23 19 -31 0z M3170 1490 c0 -15 5 -20 18
-18 9 2 17 10 17 18 0 8 -8 16 -17 18 -13 2 -18 -3 -18 -18z M3305 1490 c-8
-13 3 -30 20 -30 14 0 27 24 18 34 -10 9 -31 7 -38 -4z M3135 1440 c-4 -7 -3
-16 2 -21 12 -12 45 0 40 15 -5 15 -34 19 -42 6z M3280 1429 c0 -25 33 -22 38
4 2 12 -3 17 -17 17 -15 0 -21 -6 -21 -21z M3067 1434 c-9 -10 12 -34 30 -34
19 0 12 34 -8 38 -8 1 -18 0 -22 -4z M3230 1400 c-11 -7 -12 -12 -3 -21 14
-14 46 -4 41 13 -6 16 -20 19 -38 8z M3300 1365 c-10 -12 -9 -16 5 -21 19 -8
40 9 31 25 -10 15 -21 14 -36 -4z M3202 1354 c2 -11 11 -20 22 -22 13 -3 17 1
14 14 -2 11 -11 20 -22 22 -13 3 -17 -1 -14 -14z M3488 1523 c-3 -4 -4 -19 -4
-33 1 -32 46 -44 46 -12 0 21 -35 58 -42 45z M3482 1418 c2 -15 11 -24 26 -26
20 -3 23 0 20 20 -2 15 -11 24 -26 26 -20 3 -23 0 -20 -20z M2427 1232 c-9
-10 -17 -26 -17 -34 0 -9 -9 -26 -19 -39 l-19 -24 -15 38 c-16 37 -37 46 -67
27 -12 -7 -9 -14 15 -36 l29 -26 -32 -27 c-32 -26 -43 -61 -19 -61 7 0 17 8
24 19 17 26 77 36 105 16 34 -23 46 -19 94 29 32 33 44 52 44 74 0 36 -13 48
-65 56 -33 6 -44 3 -58 -12z m43 -42 c0 -25 18 -26 36 -2 12 16 13 16 14 -4 0
-35 -24 -48 -54 -29 -29 19 -28 18 -20 39 9 23 24 20 24 -4z M2361 951 c-13
-10 -21 -23 -17 -30 8 -13 36 -15 36 -2 0 5 9 11 21 14 23 6 21 30 -2 34 -8 2
-25 -5 -38 -16z M2430 942 c0 -20 32 -72 41 -67 13 9 11 49 -3 63 -14 14 -38
16 -38 4z M2300 903 c0 -13 14 -29 30 -35 11 -4 16 1 18 18 1 19 -3 24 -23 24
-14 0 -25 -3 -25 -7z M2317 839 c-20 -12 -22 -35 -3 -42 15 -6 36 11 36 29 0
19 -13 24 -33 13z M2387 833 c-14 -13 -7 -33 11 -33 26 0 34 11 21 27 -13 14
-22 16 -32 6z M2773 1258 c-18 -25 -14 -70 6 -75 16 -4 18 -9 9 -33 -20 -60
27 -88 92 -55 27 14 42 45 23 45 -14 0 -12 59 2 86 16 32 12 44 -17 44 -17 0
-20 -5 -16 -30 7 -44 -13 -55 -57 -34 -25 12 -33 20 -26 27 13 13 14 37 2 37
-5 0 -13 -6 -18 -12z m94 -135 c-14 -19 -47 -16 -47 4 0 9 7 25 17 35 16 17
17 17 28 -4 8 -15 8 -27 2 -35z M2897 1044 c-14 -14 -7 -35 11 -32 9 2 17 10
17 17 0 16 -18 25 -28 15z M2747 1034 c-11 -11 3 -24 24 -24 12 0 19 5 17 13
-5 14 -31 21 -41 11z M3630 1227 c0 -19 10 -27 26 -20 21 8 17 33 -6 33 -11 0
-20 -6 -20 -13z M3565 1220 c-4 -7 -3 -16 3 -22 14 -14 45 -2 40 15 -6 16 -34
21 -43 7z M3705 1220 c-4 -6 -3 -14 0 -20 9 -15 35 -12 35 4 0 17 -27 29 -35
16z M3503 1184 c-7 -18 11 -39 26 -30 17 11 13 46 -4 46 -9 0 -18 -7 -22 -16z
M3722 1143 c2 -10 10 -18 18 -18 8 0 16 8 18 18 2 12 -3 17 -18 17 -15 0 -20
-5 -18 -17z M3493 1124 c-8 -21 13 -42 28 -27 13 13 5 43 -11 43 -6 0 -13 -7
-17 -16z M3600 1126 c0 -24 26 -38 40 -22 6 9 9 20 5 26 -9 15 -45 12 -45 -4z
M3717 1084 c-14 -14 -7 -35 11 -32 9 2 17 10 17 17 0 16 -18 25 -28 15z M3530
1070 c-19 -12 0 -34 24 -28 14 2 15 6 4 20 -9 13 -17 15 -28 8z M3620 1037 c0
-19 10 -27 26 -20 21 8 17 33 -6 33 -11 0 -20 -6 -20 -13z M4583 1252 c-11 -7
-16 -26 -14 -49 2 -22 38 -14 45 9 6 26 -13 51 -31 40z M4375 1240 c-4 -7 -3
-16 3 -22 14 -14 45 -2 40 15 -6 16 -34 21 -43 7z M4447 1243 c-14 -13 -7 -33
11 -33 26 0 34 11 21 27 -13 14 -22 16 -32 6z M4502 1233 c5 -26 38 -29 38 -4
0 15 -6 21 -21 21 -14 0 -19 -5 -17 -17z M4645 1230 c-4 -7 -3 -16 3 -22 14
-14 45 -2 40 15 -6 16 -34 21 -43 7z M4454 1189 c-10 -17 13 -36 27 -22 12 12
4 33 -11 33 -5 0 -12 -5 -16 -11z M4564 1149 c-9 -16 12 -33 31 -25 14 5 15 9
5 21 -15 18 -26 19 -36 4z M4451 1126 c-8 -10 -8 -16 2 -24 17 -14 42 2 34 22
-8 20 -21 20 -36 2z M4555 1080 c-4 -7 -3 -16 3 -22 14 -14 45 -2 40 15 -6 16
-34 21 -43 7z M4623 1034 c-8 -20 8 -36 26 -25 15 10 8 41 -9 41 -6 0 -13 -7
-17 -16z M4494 1029 c-7 -12 15 -31 31 -26 6 2 11 11 13 20 4 19 -32 24 -44 6z
M3767 836 c-3 -8 -3 -17 0 -20 7 -7 33 13 33 25 0 15 -27 10 -33 -5z M3746
791 c-9 -15 23 -36 36 -23 5 5 7 15 4 21 -9 13 -33 14 -40 2z M2612 858 c-16
-16 -15 -38 2 -38 18 0 39 27 31 40 -8 13 -18 13 -33 -2z M3904 915 c-8 -19 3
-35 26 -35 10 0 21 -7 24 -16 3 -9 12 -14 19 -11 18 7 37 -26 30 -51 -6 -24
14 -39 30 -23 9 9 8 16 0 31 -10 14 -10 20 0 23 17 6 -6 43 -26 39 -8 -1 -17
7 -20 19 -4 15 -11 19 -25 15 -13 -4 -22 -1 -26 9 -7 19 -25 19 -32 0z M4201
906 c-8 -9 -7 -18 3 -31 15 -21 36 -12 36 15 0 22 -25 33 -39 16z M4152 838
c5 -34 38 -37 38 -4 0 20 -5 26 -21 26 -15 0 -20 -5 -17 -22z M4230 810 c-11
-7 -12 -14 -4 -27 15 -24 33 -28 40 -8 9 23 -16 47 -36 35z M3944 789 c-10
-17 23 -46 37 -32 7 7 9 19 6 27 -7 18 -33 21 -43 5z M4067 793 c-12 -12 -7
-41 7 -46 19 -8 38 16 30 37 -6 16 -25 21 -37 9z M4142 778 c2 -15 10 -23 23
-23 30 0 27 39 -3 43 -20 3 -23 0 -20 -20z M3993 724 c-8 -21 13 -42 28 -27
13 13 5 43 -11 43 -6 0 -13 -7 -17 -16z M4166 731 c-10 -16 5 -42 23 -39 21 4
21 42 -1 46 -9 2 -19 -1 -22 -7z M3101 897 c-15 -19 33 -60 60 -52 25 8 25 25
0 32 -11 3 -22 11 -25 19 -7 18 -20 18 -35 1z M3241 861 c-8 -5 -10 -14 -7
-20 9 -13 33 -15 40 -2 9 14 -18 31 -33 22z M3250 798 c1 -22 36 -62 44 -49 4
6 16 11 27 11 12 0 19 7 19 20 0 21 -24 28 -35 10 -9 -14 -26 -13 -22 2 1 6
-6 14 -15 16 -10 2 -18 -2 -18 -10z M3210 765 c0 -23 26 -37 39 -21 9 11 9 16
-1 22 -21 14 -38 13 -38 -1z M3164 739 c-8 -14 11 -33 25 -25 16 10 13 36 -3
36 -8 0 -18 -5 -22 -11z M3316 741 c-4 -5 -2 -12 3 -15 5 -4 12 -2 15 3 4 5 2
12 -3 15 -5 4 -12 2 -15 -3z M2330 8673 c0 -86 7 -103 41 -103 16 0 29 5 29
10 0 6 6 10 14 10 7 0 26 19 42 43 15 23 36 50 46 60 10 10 16 22 13 28 -4 5
-46 9 -96 9 l-89 0 0 -57z M2493 8619 c-21 -32 -24 -42 -13 -49 7 -4 19 -6 26
-3 7 2 22 0 33 -7 19 -10 48 -3 70 17 6 4 -71 83 -81 83 -4 0 -20 -18 -35 -41z
M2135 8320 c-3 -5 -1 -10 4 -10 6 0 11 5 11 10 0 6 -2 10 -4 10 -3 0 -8 -4
-11 -10z M3196 8316 c3 -8 13 -17 22 -21 13 -5 13 -2 -3 15 -21 24 -26 25 -19
6z M3050 8280 c0 -3 -32 -3 -71 -2 -43 2 -76 -1 -82 -7 -13 -13 -15 -13 125
-12 93 1 107 -1 111 -17 4 -16 5 -16 6 1 1 16 28 23 71 19 8 -1 274 -5 590 -8
368 -4 580 -10 588 -16 8 -7 12 -7 12 0 0 7 76 10 223 11 337 0 327 0 327 14
0 10 -149 13 -757 15 -417 1 -845 3 -950 4 -106 2 -193 1 -193 -2z M2733 8267
c2 -6 14 -11 28 -10 100 2 119 4 119 12 0 6 -34 10 -76 10 -52 0 -74 -4 -71
-12z M1160 8224 c0 -8 5 -12 10 -9 6 4 8 11 5 16 -9 14 -15 11 -15 -7z M1795
8230 c-3 -6 1 -7 9 -4 18 7 21 14 7 14 -6 0 -13 -4 -16 -10z M3075 8230 c3 -5
11 -10 16 -10 6 0 7 5 4 10 -3 6 -11 10 -16 10 -6 0 -7 -4 -4 -10z M1435 8220
c3 -5 8 -10 11 -10 2 0 4 5 4 10 0 6 -5 10 -11 10 -5 0 -7 -4 -4 -10z M1900
7808 c0 -19 2 -20 10 -8 13 19 13 30 0 30 -5 0 -10 -10 -10 -22z M1130 7810
c0 -5 5 -10 10 -10 6 0 10 5 10 10 0 6 -4 10 -10 10 -5 0 -10 -4 -10 -10z
M210 7770 c0 -5 5 -10 10 -10 6 0 10 5 10 10 0 6 -4 10 -10 10 -5 0 -10 -4
-10 -10z M2218 7773 c7 -3 16 -2 19 1 4 3 -2 6 -13 5 -11 0 -14 -3 -6 -6z
M3712 7766 c7 -8 15 -12 17 -11 5 6 -10 25 -20 25 -5 0 -4 -6 3 -14z M1445
7700 c-3 -5 -1 -10 4 -10 6 0 11 5 11 10 0 6 -2 10 -4 10 -3 0 -8 -4 -11 -10z
M1070 7690 c0 -5 5 -10 11 -10 5 0 7 5 4 10 -3 6 -8 10 -11 10 -2 0 -4 -4 -4
-10z M1340 7689 c0 -5 5 -7 10 -4 6 3 10 8 10 11 0 2 -4 4 -10 4 -5 0 -10 -5
-10 -11z M2665 7680 c-3 -5 -1 -10 4 -10 6 0 11 5 11 10 0 6 -2 10 -4 10 -3 0
-8 -4 -11 -10z M2955 7230 c3 -5 8 -10 11 -10 2 0 4 5 4 10 0 6 -5 10 -11 10
-5 0 -7 -4 -4 -10z M3000 7219 c0 -5 11 -9 25 -9 14 0 25 2 25 4 0 2 -11 6
-25 8 -14 3 -25 1 -25 -3z M3070 7220 c-13 -8 -12 -10 3 -10 9 0 17 5 17 10 0
12 -1 12 -20 0z M3810 7210 c0 -5 5 -10 10 -10 6 0 10 5 10 10 0 6 -4 10 -10
10 -5 0 -10 -4 -10 -10z M4050 7210 c0 -5 4 -10 9 -10 6 0 13 5 16 10 3 6 -1
10 -9 10 -9 0 -16 -4 -16 -10z M4210 7216 c0 -2 8 -10 18 -17 15 -13 16 -12 3
4 -13 16 -21 21 -21 13z M3680 7199 c0 -5 5 -7 10 -4 6 3 10 8 10 11 0 2 -4 4
-10 4 -5 0 -10 -5 -10 -11z M4110 7200 c0 -5 5 -10 10 -10 6 0 10 5 10 10 0 6
-4 10 -10 10 -5 0 -10 -4 -10 -10z M1194 7138 c3 -15 26 -23 26 -8 0 6 -4 9
-9 6 -5 -4 -12 -1 -14 4 -3 6 -4 5 -3 -2z M1240 7139 c0 -6 7 -9 14 -6 11 4
13 1 9 -11 -6 -14 -5 -15 9 -2 9 8 14 18 11 23 -7 11 -43 8 -43 -4z M1170
6660 c-9 -6 -10 -10 -3 -10 6 0 15 5 18 10 8 12 4 12 -15 0z M3475 6660 c-3
-5 -1 -10 4 -10 6 0 11 5 11 10 0 6 -2 10 -4 10 -3 0 -8 -4 -11 -10z M3076
6651 c-3 -5 5 -8 19 -8 14 0 22 3 19 8 -3 5 -11 9 -19 9 -8 0 -16 -4 -19 -9z
M2340 6560 c0 -5 5 -10 10 -10 6 0 10 5 10 10 0 6 -4 10 -10 10 -5 0 -10 -4
-10 -10z M2890 6140 c0 -5 5 -10 10 -10 6 0 10 5 10 10 0 6 -4 10 -10 10 -5 0
-10 -4 -10 -10z M4510 6140 c0 -5 5 -10 11 -10 5 0 7 5 4 10 -3 6 -8 10 -11
10 -2 0 -4 -4 -4 -10z M70 6120 c0 -5 5 -10 10 -10 6 0 10 5 10 10 0 6 -4 10
-10 10 -5 0 -10 -4 -10 -10z M2350 5710 c0 -5 5 -10 10 -10 6 0 10 5 10 10 0
6 -4 10 -10 10 -5 0 -10 -4 -10 -10z M3430 5700 c0 -5 4 -10 9 -10 6 0 13 5
16 10 3 6 -1 10 -9 10 -9 0 -16 -4 -16 -10z M2200 5599 c0 -5 5 -7 10 -4 6 3
10 8 10 11 0 2 -4 4 -10 4 -5 0 -10 -5 -10 -11z M2325 5180 c3 -5 8 -10 11
-10 2 0 4 5 4 10 0 6 -5 10 -11 10 -5 0 -7 -4 -4 -10z M4845 3910 c-3 -5 -1
-10 4 -10 6 0 11 5 11 10 0 6 -2 10 -4 10 -3 0 -8 -4 -11 -10z M55 2840 c-8
-13 -1 -24 14 -19 6 3 7 10 2 18 -6 10 -10 10 -16 1z M196 2735 c4 -8 10 -12
15 -9 14 8 10 24 -6 24 -9 0 -12 -6 -9 -15z M4695 2550 c-4 -6 -3 -16 3 -22 6
-6 12 -6 17 2 4 6 3 16 -3 22 -6 6 -12 6 -17 -2z M4637 2544 c-9 -10 2 -24 19
-24 8 0 14 7 14 15 0 15 -21 21 -33 9z M4795 2529 c-10 -15 1 -23 20 -15 9 3
13 10 10 16 -8 13 -22 13 -30 -1z M4830 2505 c-6 -14 -10 -31 -10 -36 0 -11
30 -12 31 -1 0 4 2 17 5 29 6 32 -14 39 -26 8z M4725 2511 c-3 -5 -1 -12 5
-16 12 -7 30 2 30 16 0 12 -27 12 -35 0z M4592 2480 c1 -33 22 -58 33 -40 4 6
2 17 -4 24 -6 7 -9 21 -5 30 4 10 1 16 -9 16 -11 0 -15 -9 -15 -30z M4685
2481 c-3 -5 -1 -12 5 -16 12 -7 30 2 30 16 0 12 -27 12 -35 0z M4640 2447 c0
-21 12 -28 27 -16 19 16 16 29 -7 29 -11 0 -20 -6 -20 -13z M4764 2445 c-4 -8
-15 -15 -25 -15 -10 0 -19 -7 -19 -15 0 -8 7 -15 15 -15 9 0 18 7 21 15 4 8
15 15 25 15 10 0 19 7 19 15 0 8 -7 15 -15 15 -9 0 -18 -7 -21 -15z M4716
2375 c4 -9 13 -15 21 -13 23 5 20 23 -4 26 -18 3 -21 0 -17 -13z M4827 2373
c-12 -11 -8 -23 8 -23 8 0 15 7 15 15 0 16 -12 20 -23 8z M4935 2211 c-3 -5
-1 -12 5 -16 5 -3 10 1 10 9 0 18 -6 21 -15 7z M4856 1567 c-14 -11 -15 -15
-3 -31 16 -22 37 -14 37 14 0 25 -13 32 -34 17z M1789 1486 c-7 -7 -1343 -24
-1469 -19 -109 4 -235 3 -252 -3 -26 -8 -22 -34 5 -35 12 -1 26 -1 32 1 5 1
60 3 122 5 104 3 140 -4 113 -20 -14 -9 -12 -35 3 -35 7 0 18 9 25 20 10 16
22 19 64 18 49 -2 465 9 485 13 29 5 36 -1 20 -19 -10 -10 -17 -22 -17 -25 0
-12 29 -7 37 6 8 13 123 47 159 47 41 0 3 -13 -130 -45 -29 -7 -33 -15 -12
-31 16 -11 17 -16 6 -29 -7 -8 -19 -15 -26 -15 -17 0 -55 31 -49 40 2 4 -14 7
-36 8 -33 2 -42 -2 -46 -17 -3 -14 -17 -21 -49 -26 -24 -3 -46 -10 -49 -16 -4
-5 -13 -9 -21 -9 -27 0 -5 18 44 36 26 9 52 22 57 27 7 7 4 8 -7 4 -10 -4 -18
1 -21 14 -5 17 -15 19 -94 20 -48 1 -91 1 -95 0 -3 0 -48 -1 -100 -2 -103 -1
-125 -8 -130 -41 -2 -12 -11 -22 -22 -24 -20 -3 -43 -21 -35 -28 8 -8 109 -7
224 3 l110 8 33 -35 c34 -38 38 -47 22 -57 -33 -20 40 -32 108 -18 40 9 18 27
-29 24 -48 -2 -74 14 -60 38 6 9 14 10 27 4 11 -5 37 -10 59 -12 26 -1 46 -8
57 -22 19 -22 34 -18 56 13 16 22 69 51 81 44 4 -3 17 5 29 19 20 22 26 24
133 22 107 -2 112 -1 130 22 11 13 19 27 19 31 0 12 -58 33 -69 25 -6 -3 -11
-1 -11 4 0 6 20 11 44 11 34 0 48 -5 60 -21 17 -25 41 -21 41 7 0 18 9 19 145
21 269 3 272 3 278 -15 3 -10 -5 -13 -29 -10 -19 2 -34 -2 -36 -9 -3 -9 7 -13
31 -13 25 0 36 -4 36 -15 0 -10 -10 -15 -31 -15 -17 0 -28 -4 -24 -10 3 -5 15
-10 25 -10 26 0 36 -21 17 -35 -21 -15 -22 -35 -2 -35 8 0 15 -6 15 -14 0 -8
3 -21 6 -30 4 -12 -4 -15 -40 -18 -59 -4 -65 -22 -8 -26 30 -2 42 -8 42 -19 0
-10 -6 -13 -16 -9 -9 3 -38 6 -66 6 -45 0 -49 2 -46 22 2 17 15 26 57 38 30 8
57 22 59 29 4 11 -1 12 -19 7 -13 -4 -42 -12 -64 -17 -22 -6 -44 -14 -49 -20
-6 -5 -21 -9 -34 -9 -18 0 -23 4 -18 15 3 10 -7 27 -27 45 -29 26 -33 27 -44
13 -7 -9 -11 -19 -8 -23 2 -3 -18 -6 -46 -7 -40 0 -49 3 -49 17 0 11 -15 23
-40 33 -33 13 -40 20 -40 42 0 35 -32 31 -40 -5 -6 -25 -7 -25 -134 -28 -95
-2 -126 -6 -123 -15 3 -11 57 -14 278 -17 15 0 29 -6 32 -14 4 -11 -12 -13
-83 -12 -80 1 -112 -5 -99 -19 3 -2 36 -6 73 -7 37 -1 70 -6 72 -10 3 -4 -4
-8 -16 -8 -13 0 -20 -5 -17 -12 2 -9 30 -13 86 -14 46 -1 88 -7 94 -13 17 -17
3 -23 -27 -11 -40 15 -76 13 -76 -5 0 -10 15 -15 56 -17 l57 -3 -1 -47 c0 -27
-1 -55 -1 -63 -1 -12 -20 -14 -106 -13 -58 0 -108 -2 -111 -5 -19 -18 17 -27
109 -26 65 0 103 -3 105 -10 2 -6 11 -19 20 -27 14 -15 17 -15 28 1 10 13 10
23 3 37 -19 35 -4 50 48 47 37 -3 48 0 48 11 0 11 -13 15 -52 15 -37 -1 -53 3
-53 12 0 14 4 15 57 17 51 2 43 21 -9 24 -32 2 -48 8 -48 17 0 10 10 12 40 8
31 -4 41 -2 46 11 9 23 3 27 -45 29 -47 1 -54 13 -13 20 51 9 73 6 79 -11 4
-9 13 -22 21 -28 11 -8 12 -20 2 -70 -6 -32 -10 -86 -8 -119 l3 -60 32 0 c18
-1 35 -4 39 -8 4 -4 2 -7 -4 -7 -7 0 -12 -7 -12 -15 0 -8 -7 -15 -15 -15 -8 0
-15 -7 -15 -15 0 -8 3 -14 8 -14 4 1 9 1 12 0 3 -1 25 -4 48 -6 53 -4 56 -7
48 -38 -4 -19 -15 -26 -43 -31 -62 -10 -131 -7 -145 7 -13 13 -22 13 -95 4
-39 -5 -43 -3 -69 34 -15 22 -43 47 -63 56 -20 9 -38 20 -41 23 -3 4 -30 20
-60 36 -30 16 -57 32 -60 36 -3 3 -30 16 -60 28 -30 12 -65 28 -77 36 -35 23
-42 -5 -7 -33 16 -12 24 -23 17 -23 -6 0 -14 4 -17 9 -3 4 -22 11 -43 14 -21
3 -48 9 -60 13 -17 4 -23 2 -23 -8 0 -8 -18 -22 -40 -31 -22 -8 -40 -20 -40
-25 0 -6 12 -24 26 -41 29 -35 43 -104 24 -116 -6 -4 -17 -2 -23 4 -8 8 -8 11
1 11 20 0 3 48 -30 83 -15 18 -34 45 -41 60 -9 22 -16 26 -32 21 -11 -4 -74
-8 -140 -8 -121 -1 -176 -13 -125 -27 14 -4 47 -7 73 -8 31 -1 46 -5 42 -11
-4 -6 -15 -8 -26 -5 -21 7 -59 -2 -59 -14 0 -15 52 -33 64 -21 5 5 44 9 86 9
41 -1 67 -3 57 -6 -10 -3 -16 -10 -14 -16 2 -7 -3 -20 -11 -30 -11 -12 -12
-21 -5 -28 13 -13 63 9 63 28 0 7 4 13 8 13 5 0 7 -13 4 -30 -2 -16 -8 -27
-14 -24 -5 3 -19 0 -31 -8 -36 -23 -52 -17 -51 20 2 26 -2 32 -18 32 -13 0
-18 -5 -15 -14 4 -9 -7 -17 -32 -25 -55 -16 -95 -14 -109 7 -7 9 -16 22 -20
27 -13 19 -86 72 -109 79 -12 4 -24 2 -28 -4 -4 -6 -13 -9 -20 -7 -12 5 -141
-35 -153 -48 -3 -3 0 -11 6 -17 10 -10 20 -9 45 4 57 29 74 31 90 8 l15 -21
20 25 c11 14 22 26 25 26 12 0 85 -78 91 -98 6 -18 3 -22 -16 -23 -13 0 -48
-2 -78 -4 -201 -14 -238 -14 -250 0 -14 17 -40 20 -40 5 0 -5 -12 -10 -26 -10
-19 0 -25 -4 -22 -17 3 -16 17 -18 151 -16 82 2 152 5 157 8 5 3 24 5 42 4 18
0 114 2 213 6 99 5 214 8 255 8 72 -1 373 -1 775 -1 106 0 193 5 196 10 6 9 4
152 -8 541 -5 174 -7 199 -23 207 -9 5 -19 8 -21 6z m-579 -60 c0 -3 -4 -8
-10 -11 -5 -3 -10 -1 -10 4 0 6 5 11 10 11 6 0 10 -2 10 -4z m-7 -37 c26 1 47
-4 47 -9 0 -6 -3 -10 -7 -11 -58 -3 -241 -3 -237 1 12 11 91 27 119 23 17 -2
51 -4 78 -4z m-601 -31 c-10 -10 -202 -31 -211 -22 -2 2 1 9 7 16 7 9 45 14
113 16 79 1 100 -1 91 -10z m128 4 c0 -10 -61 -33 -71 -26 -5 3 -9 12 -9 20 0
10 12 14 40 14 22 0 40 -4 40 -8z m132 -54 c8 6 24 9 36 5 22 -5 21 -6 -10
-29 -37 -28 -50 -30 -42 -9 5 11 -1 15 -20 15 -14 0 -26 4 -26 8 0 17 12 21
30 10 14 -9 22 -9 32 0z m574 -83 c14 -13 9 -15 -46 -15 -39 0 -59 4 -55 10 4
6 10 8 14 6 4 -3 21 -1 37 4 16 4 30 9 32 9 2 1 10 -6 18 -14z m84 -5 c0 -5
-10 -10 -22 -10 -19 0 -20 2 -8 10 19 13 30 13 30 0z m270 -115 c0 -19 -5 -20
-52 -15 -40 4 -54 9 -56 23 -3 16 3 18 52 15 49 -3 56 -6 56 -23z m6 -64 c-9
-15 -116 -9 -116 6 0 7 20 13 53 15 55 3 74 -3 63 -21z m-19 -45 c4 -3 -2 -6
-13 -7 -10 -1 -32 -2 -48 -3 -17 0 -31 5 -34 12 -3 11 7 12 43 9 25 -3 49 -8
52 -11z m-9 -45 c8 -5 -5 -8 -34 -9 -25 -1 -50 -5 -55 -8 -5 -3 -9 -1 -9 5 0
5 17 12 38 14 20 2 39 4 42 5 3 1 11 -2 18 -7z m-813 -21 c-3 -5 -17 -10 -31
-10 -14 0 -22 4 -19 10 3 6 17 10 31 10 14 0 22 -4 19 -10z m100 0 c7 -12 -2
-12 -30 0 -19 8 -19 9 2 9 12 1 25 -3 28 -9z m85 0 c0 -5 -7 -10 -15 -10 -8 0
-15 5 -15 10 0 6 7 10 15 10 8 0 15 -4 15 -10z m-397 -27 c-13 -2 -35 -2 -50
0 -16 2 -5 4 22 4 28 0 40 -2 28 -4z m487 -8 c11 -13 -3 -15 -116 -14 -116 2
-122 3 -64 10 36 4 79 5 96 2 18 -2 35 0 38 6 10 16 31 14 46 -4z m523 8 c-7
-2 -19 -2 -25 0 -7 3 -2 5 12 5 14 0 19 -2 13 -5z m-798 -23 c-3 -5 -11 -10
-16 -10 -6 0 -7 5 -4 10 3 6 11 10 16 10 6 0 7 -4 4 -10z m5 -30 c0 -5 -4 -10
-10 -10 -5 0 -10 5 -10 10 0 6 5 10 10 10 6 0 10 -4 10 -10z m62 -2 c-7 -7
-12 -21 -12 -32 0 -17 -2 -18 -10 -6 -15 23 -12 38 8 43 9 3 19 5 22 6 2 0 -1
-4 -8 -11z m133 3 c33 -4 75 -4 93 1 28 8 40 4 91 -27 41 -26 58 -42 54 -52
-3 -8 -14 -13 -24 -10 -10 3 -23 -1 -29 -8 -16 -19 -48 -14 -53 7 -7 24 -23
23 -30 -3 -3 -12 -10 -18 -16 -15 -5 3 -31 9 -58 12 -26 3 -53 12 -59 20 -14
18 -24 18 -24 -1 0 -21 -68 -21 -77 1 -8 21 17 36 35 22 10 -9 16 -8 23 3 14
23 11 29 -16 29 -24 0 -32 10 -18 23 8 8 28 8 108 -2z m-315 -62 c0 -10 -4
-19 -9 -19 -5 0 -8 11 -7 24 1 28 16 24 16 -5z m148 -17 c6 -18 -15 -14 -22 4
-4 10 -1 14 6 12 6 -2 14 -10 16 -16z M1120 826 c0 -8 4 -17 9 -20 11 -7 33
18 24 27 -12 12 -33 7 -33 -7z M1224 829 c-8 -14 11 -33 25 -25 11 7 4 36 -9
36 -5 0 -12 -5 -16 -11z M1176 813 c-11 -11 -6 -23 9 -23 8 0 15 4 15 9 0 13
-16 22 -24 14z M1317 803 c-3 -5 -2 -15 2 -22 7 -10 10 -10 16 -1 4 6 3 16 -3
22 -5 5 -12 6 -15 1z M4906 1481 c-7 -11 3 -41 14 -41 13 0 32 29 25 40 -8 12
-32 13 -39 1z M1454 1415 c-3 -8 -3 -19 0 -24 9 -13 36 -2 36 14 0 19 -30 27
-36 10z M1568 1412 c-16 -2 -28 -8 -28 -14 0 -5 7 -7 16 -4 8 3 12 2 9 -4 -3
-6 -13 -10 -21 -10 -19 0 -18 -26 2 -34 17 -7 54 9 54 24 0 4 -6 11 -12 14 -7
2 -2 4 11 3 13 -1 26 3 28 9 5 14 -22 21 -59 16z M157 1403 c-24 -6 -11 -23
18 -23 29 0 41 16 19 24 -9 3 -16 5 -17 5 -1 -1 -10 -3 -20 -6z M4857 1399
c-18 -10 -18 -12 -1 -30 20 -23 30 -24 37 -5 9 24 -15 47 -36 35z M1387 1386
c-7 -19 18 -40 38 -32 21 8 19 23 -4 36 -25 13 -28 13 -34 -4z M75 1376 c-19
-14 -19 -15 8 -21 34 -9 46 0 26 20 -13 13 -17 13 -34 1z M4941 1374 c0 -11 3
-14 6 -6 3 7 2 16 -1 19 -3 4 -6 -2 -5 -13z M229 1351 l-24 -20 27 -1 c29 0
46 16 31 31 -6 6 -19 2 -34 -10z M1640 1360 c-7 -4 -9 -13 -6 -19 10 -16 46
-14 46 3 0 17 -23 27 -40 16z M1410 1321 c0 -24 36 -51 67 -51 31 0 30 28 -2
36 -13 3 -29 12 -36 20 -16 20 -29 17 -29 -5z M4905 1330 c-4 -7 0 -19 9 -28
15 -15 18 -15 26 -2 5 8 8 20 7 25 -5 15 -34 18 -42 5z M213 1293 c-18 -9 -33
-20 -33 -25 0 -4 -7 -8 -15 -8 -8 0 -15 -5 -15 -11 0 -6 -9 -9 -20 -6 -27 7
-39 -12 -34 -55 2 -20 -1 -40 -7 -43 -16 -10 -23 3 -10 19 9 11 8 15 -5 20
-25 9 -25 9 -22 -36 3 -39 5 -43 27 -40 16 3 21 0 16 -8 -4 -6 -16 -10 -26 -7
-14 4 -19 0 -19 -16 0 -19 5 -22 41 -21 23 1 45 7 49 14 6 9 39 15 102 17 l93
3 -27 -23 c-16 -12 -36 -23 -45 -24 -10 0 -27 -3 -38 -6 -11 -2 -39 -8 -63
-12 -26 -4 -41 -12 -39 -18 2 -7 13 -11 23 -9 10 1 33 4 49 6 34 4 49 9 119
36 27 11 50 19 51 17 1 -1 5 -14 8 -28 6 -22 3 -28 -14 -32 -12 -3 -32 -2 -45
3 -13 5 -26 6 -29 0 -3 -4 -35 -18 -71 -30 -49 -17 -80 -21 -115 -17 -39 5
-49 3 -49 -8 0 -13 19 -20 43 -16 4 0 7 -6 7 -14 0 -14 12 -20 33 -16 4 1 17
-3 28 -9 15 -8 35 -5 89 14 39 14 72 25 74 23 2 -1 8 2 12 6 5 4 -2 10 -14 14
-35 9 -25 23 16 23 21 0 43 5 50 12 9 9 16 8 29 -3 10 -8 29 -14 43 -13 14 1
94 5 179 8 85 4 158 9 163 12 39 24 -49 29 -280 16 -81 -5 -112 -4 -112 4 0
18 16 21 160 23 74 1 172 5 217 9 80 7 82 7 88 -15 3 -15 13 -23 26 -23 16 0
18 3 10 18 -11 21 3 52 24 52 24 0 17 34 -10 58 -14 12 -25 26 -25 32 0 14
-27 13 -36 -1 -3 -6 5 -22 20 -35 14 -14 26 -29 26 -33 0 -13 -81 -21 -302
-28 -189 -5 -208 -4 -208 11 0 17 34 20 187 16 34 -1 70 3 81 9 12 6 46 7 90
3 72 -8 118 0 107 18 -3 5 -23 11 -43 11 -35 1 -36 2 -8 8 32 6 45 25 24 33
-11 5 -51 -4 -123 -26 -16 -5 -25 3 -47 42 -17 32 -23 53 -17 59 14 14 0 43
-22 43 -13 0 -17 -5 -12 -17 6 -16 5 -16 -10 -5 -9 8 -21 11 -27 7 -6 -4 -17
-1 -25 5 -10 9 -37 10 -87 5 -184 -17 -209 -17 -206 1 4 23 -11 25 -49 7z
m385 -63 c12 0 42 -56 42 -79 0 -13 -7 -21 -17 -22 -10 0 -55 -1 -100 -3 -46
-2 -83 1 -83 6 0 7 25 9 127 10 43 1 64 24 32 36 -15 6 -18 11 -11 16 19 12 4
26 -28 26 -16 0 -32 5 -35 10 -8 13 -42 13 -50 -1 -9 -13 23 -38 50 -39 18 -1
18 -2 -3 -10 -34 -14 -324 -20 -319 -6 2 6 32 12 68 13 150 5 187 13 173 34
-3 6 -55 7 -135 3 -75 -4 -129 -3 -129 2 0 5 24 9 53 10 88 2 269 16 296 24
19 5 31 2 44 -11 10 -11 21 -19 25 -19z m-408 -50 c0 -5 -5 -10 -11 -10 -5 0
-7 5 -4 10 3 6 8 10 11 10 2 0 4 -4 4 -10z m170 -50 c0 -5 -4 -10 -10 -10 -5
0 -10 5 -10 10 0 6 5 10 10 10 6 0 10 -4 10 -10z m35 0 c-3 -5 -11 -10 -16
-10 -6 0 -7 5 -4 10 3 6 11 10 16 10 6 0 7 -4 4 -10z m-189 -7 c-10 -10 -46
-11 -46 -1 0 4 12 8 27 8 14 0 23 -3 19 -7z m44 3 c0 -3 -4 -8 -10 -11 -5 -3
-10 -1 -10 4 0 6 5 11 10 11 6 0 10 -2 10 -4z m37 -2 c-3 -3 -12 -4 -19 -1 -8
3 -5 6 6 6 11 1 17 -2 13 -5z m-62 -194 c-3 -5 -10 -10 -16 -10 -5 0 -9 5 -9
10 0 6 7 10 16 10 8 0 12 -4 9 -10z M1665 1299 c-9 -14 -2 -20 28 -23 31 -4
52 8 43 23 -9 14 -63 14 -71 0z M1575 1291 c-7 -12 34 -41 57 -41 27 0 21 29
-8 40 -32 12 -41 12 -49 1z M72 1278 c3 -7 15 -15 27 -16 16 -3 22 1 19 10 -3
7 -15 15 -27 16 -16 3 -22 -1 -19 -10z M51 1238 c-1 -28 3 -38 14 -38 8 0 15
9 15 20 0 11 -4 20 -9 20 -5 0 -12 8 -14 18 -3 9 -5 0 -6 -20z M1101 1241
c-16 -29 -13 -62 7 -101 29 -58 50 -83 62 -75 6 4 17 -1 24 -10 10 -14 32 -17
134 -19 67 -1 122 2 122 7 0 5 -9 11 -19 14 -11 3 -21 13 -24 23 -7 27 -47 49
-109 60 -75 14 -173 55 -172 72 1 7 3 19 5 27 6 22 -19 24 -30 2z m69 -101 c0
-5 -4 -10 -10 -10 -5 0 -10 5 -10 10 0 6 5 10 10 10 6 0 10 -4 10 -10z m120
-36 c0 -2 -11 -4 -25 -4 -14 0 -25 4 -25 9 0 4 11 6 25 3 14 -2 25 -6 25 -8z
m100 -34 c0 -5 -9 -8 -20 -7 -20 1 -25 8 -14 20 8 7 34 -3 34 -13z m-64 3
c-12 -12 -104 -15 -111 -4 -4 7 15 11 56 11 34 0 59 -3 55 -7z M835 1209 c-10
-15 3 -25 16 -12 7 7 7 13 1 17 -6 3 -14 1 -17 -5z M4925 1205 c-5 -1 -29 -8
-51 -15 -26 -8 -46 -21 -52 -35 -14 -31 -3 -101 19 -121 11 -9 19 -27 19 -39
0 -24 29 -38 51 -25 10 7 10 11 -1 24 -17 21 -5 33 15 16 9 -7 13 -21 10 -31
-4 -11 -2 -19 4 -19 6 0 11 21 11 50 0 49 0 49 -24 38 -26 -11 -56 -5 -56 12
0 5 8 10 18 10 20 1 62 33 62 49 0 6 -9 11 -20 11 -11 0 -20 4 -20 10 0 5 9
15 20 22 11 7 20 21 20 30 0 17 -4 20 -25 13z M2043 1113 c-7 -2 -13 -14 -13
-25 0 -29 44 -21 48 10 3 22 -8 27 -35 15z M1535 1000 c-10 -16 1 -23 41 -26
29 -3 35 0 32 14 -4 20 -62 29 -73 12z M1317 963 c-12 -19 12 -28 81 -29 64
-2 88 6 65 19 -16 10 -141 18 -146 10z M1541 947 c-14 -17 -5 -27 25 -27 25 0
36 11 26 25 -11 16 -38 16 -51 2z M1398 913 c-31 -8 -20 -23 16 -23 28 0 38
-6 56 -35 24 -39 40 -45 40 -15 0 15 7 20 29 20 20 0 30 -6 34 -20 6 -22 27
-28 27 -7 0 27 -39 47 -91 47 -43 0 -49 2 -40 14 18 22 -22 32 -71 19z M4840
890 c-12 -8 -13 -13 -3 -29 7 -11 10 -26 7 -34 -7 -19 18 -38 36 -27 13 8 13
13 2 30 -7 11 -10 24 -8 29 10 16 -18 41 -34 31z M1445 840 c-3 -5 1 -10 9
-10 9 0 16 5 16 10 0 6 -4 10 -9 10 -6 0 -13 -4 -16 -10z M1530 820 c-8 -5
-11 -12 -7 -16 4 -4 13 -2 19 4 15 15 7 24 -12 12z M128 806 c-15 -8 -38 -16
-50 -18 -13 -2 -24 -11 -26 -22 -4 -16 0 -18 33 -12 45 9 85 33 85 52 0 18 -8
17 -42 0z M265 810 c-10 -17 12 -37 25 -24 8 8 6 15 -4 23 -10 9 -16 9 -21 1z
M4904 809 c-9 -15 12 -33 30 -26 9 4 16 13 16 22 0 17 -35 21 -46 4z M390 796
c0 -21 21 -31 30 -15 5 7 6 17 4 21 -9 14 -34 9 -34 -6z M1635 800 c-3 -6 -2
-17 3 -27 9 -15 11 -14 21 4 8 17 8 22 -4 27 -8 3 -17 1 -20 -4z M210 776 c0
-17 5 -26 16 -26 10 0 14 7 12 22 -5 32 -28 35 -28 4z M4870 780 c-18 -11 -4
-42 17 -38 10 2 19 10 21 19 4 19 -19 31 -38 19z M327 766 c-6 -15 1 -26 15
-26 4 0 8 9 8 20 0 23 -15 27 -23 6z M437 773 c-12 -11 -8 -23 8 -23 8 0 15 7
15 15 0 16 -12 20 -23 8z M4924 755 c-3 -8 -3 -19 1 -25 11 -18 25 -11 25 15
0 27 -17 34 -26 10z M4833 724 c-7 -20 17 -37 34 -23 15 13 6 39 -13 39 -8 0
-17 -7 -21 -16z M4160 281 c0 -12 5 -21 10 -21 6 0 10 6 10 14 0 8 -4 18 -10
21 -5 3 -10 -3 -10 -14z M3270 249 c-63 -5 -924 -14 -1075 -11 -109 2 -1395 1
-1680 -2 -508 -4 -465 -2 -465 -28 l0 -23 618 1 c339 0 930 5 1312 9 749 10
1677 11 2473 4 l497 -4 0 23 c0 20 -16 28 -45 22 -19 -4 -660 3 -715 8 -71 6
-84 6 -465 1 -176 -2 -331 -1 -345 2 -14 3 -63 2 -110 -2z"/>
</g>
</svg>
