<?xml version="1.0" standalone="no"?>
<!DOCTYPE svg PUBLIC "-//W3C//DTD SVG 20010904//EN"
 "http://www.w3.org/TR/2001/REC-SVG-20010904/DTD/svg10.dtd">
<svg version="1.0" xmlns="http://www.w3.org/2000/svg"
 width="500.000000pt" height="878.000000pt" viewBox="0 0 500.000000 878.000000"
 preserveAspectRatio="xMidYMid meet">
<metadata>
Created by potrace 1.16, written by Peter Selinger 2001-2019
</metadata>
<g transform="translate(0.000000,878.000000) scale(0.100000,-0.100000)"
fill="#000000" stroke="none">
<path d="M50 7230 l0 -1499 83 -4 82 -3 -82 -2 c-80 -2 -83 -3 -83 -26 0 -19
4 -23 20 -19 11 3 20 0 20 -6 0 -6 -9 -11 -20 -11 -13 0 -20 -7 -20 -20 0 -18
7 -20 81 -20 53 0 78 -4 74 -10 -4 -7 -35 -9 -81 -6 -68 4 -74 3 -74 -15 0
-14 7 -19 30 -19 17 0 30 -4 30 -10 0 -5 -13 -10 -30 -10 -30 0 -30 0 -30 -57
l0 -56 23 19 c114 102 298 234 386 279 39 19 71 39 71 44 0 5 23 23 51 41 l52
31 -7 -26 -7 -27 63 6 c35 4 74 9 88 12 l25 4 2 -142 c2 -79 9 -237 17 -353 8
-115 18 -271 21 -345 4 -74 8 -153 10 -175 2 -22 6 -89 10 -150 4 -60 8 -132
11 -160 2 -27 8 -147 14 -265 5 -118 14 -291 20 -385 5 -93 12 -240 15 -325 3
-85 8 -171 10 -190 2 -19 7 -120 11 -225 3 -104 7 -192 9 -195 2 -3 6 -77 9
-165 4 -88 9 -191 11 -230 3 -38 7 -124 10 -190 3 -66 8 -151 10 -188 4 -60 2
-68 -12 -65 -13 2 -17 15 -19 53 -3 83 -15 258 -19 285 -3 14 -7 84 -10 155
-3 72 -9 193 -15 270 -5 77 -12 201 -15 275 -9 224 -35 634 -60 930 -2 30 -11
161 -20 290 -9 129 -25 357 -36 505 -11 149 -22 313 -25 365 -3 52 -12 193
-20 312 -9 120 -13 222 -9 228 3 6 4 19 0 30 -5 15 -13 18 -38 15 -17 -2 -37
-11 -43 -20 -14 -18 -58 -50 -249 -174 -41 -27 -178 -133 -292 -226 -24 -19
-34 -23 -37 -13 -3 7 -7 20 -9 28 -3 8 -6 -9 -6 -38 -1 -29 3 -51 7 -48 4 2
14 1 22 -5 12 -7 10 -9 -7 -9 -18 0 -23 -6 -23 -26 0 -25 2 -26 38 -20 20 3
64 6 98 6 51 0 65 4 88 25 15 13 36 29 47 35 50 27 129 94 120 103 -12 12 -43
-5 -103 -54 -27 -23 -49 -35 -53 -29 -3 6 -8 39 -11 74 l-5 64 68 48 c72 53
121 84 128 84 3 0 5 -4 5 -10 0 -5 -6 -10 -14 -10 -25 0 -26 -16 -5 -65 17
-39 19 -52 10 -73 -9 -19 -9 -27 0 -32 16 -10 7 -22 -43 -56 -24 -16 -67 -50
-96 -76 -42 -38 -61 -48 -90 -49 -56 -2 -166 -7 -174 -8 -5 -1 -8 -21 -8 -46
l0 -45 114 0 c92 0 115 -3 120 -15 5 -13 -12 -15 -114 -15 -113 0 -120 -1
-120 -20 0 -19 7 -20 120 -20 73 0 120 -4 120 -10 0 -6 -33 -10 -79 -10 -77 0
-79 -1 -84 -26 l-5 -26 84 4 c65 3 84 1 84 -9 0 -10 -27 -13 -120 -13 -115 0
-120 -1 -120 -21 0 -20 5 -21 93 -19 139 3 157 1 157 -12 0 -10 -32 -13 -125
-13 -124 0 -125 0 -125 -23 0 -13 6 -22 12 -21 48 6 238 -3 238 -11 0 -6 -48
-10 -125 -10 -118 0 -125 -1 -125 -20 0 -19 7 -20 130 -20 80 0 130 -4 130
-10 0 -10 -52 -13 -182 -10 -76 2 -78 1 -78 -22 0 -24 1 -24 106 -24 58 1 111
-2 117 -6 7 -4 -41 -8 -105 -8 -107 0 -118 -2 -118 -18 0 -10 5 -23 12 -30 9
-9 9 -12 0 -12 -7 0 -12 -9 -12 -21 0 -19 5 -21 62 -17 44 2 63 -1 66 -10 2
-7 -2 -13 -9 -11 -8 1 -38 1 -66 0 -46 -1 -53 -4 -53 -21 0 -19 5 -20 60 -15
60 6 61 6 42 -13 -11 -11 -38 -23 -61 -27 -31 -5 -41 -11 -41 -26 0 -15 7 -18
45 -17 25 0 49 -2 52 -6 4 -3 -17 -6 -45 -6 -40 0 -52 -4 -52 -15 0 -11 11
-15 38 -15 27 0 33 -3 22 -10 -8 -5 -25 -10 -37 -10 -13 0 -23 -6 -23 -14 0
-19 51 -23 185 -16 55 3 102 4 104 3 18 -12 -58 -20 -201 -22 -81 -1 -88 -3
-88 -21 0 -20 5 -20 150 -18 97 2 149 -1 147 -7 -4 -11 -17 -12 -184 -14
l-112 -1 1 -45 c0 -34 4 -45 17 -46 9 0 77 0 152 1 l136 2 6 -34 c3 -18 1 -37
-3 -41 -4 -5 -36 -5 -71 0 -59 7 -61 8 -26 13 72 10 43 25 -58 30 -120 6 -155
2 -155 -16 0 -11 16 -14 67 -14 36 0 63 -3 59 -7 -4 -4 -33 -8 -64 -8 -47 0
-57 -3 -60 -18 -3 -17 3 -19 75 -17 43 1 115 2 160 1 l81 -1 6 -37 c3 -21 9
-72 12 -113 2 -41 9 -127 14 -190 5 -63 10 -128 10 -145 l0 -30 -81 -2 c-55
-1 -88 -7 -106 -18 -13 -9 -41 -16 -61 -15 -20 1 -54 2 -74 1 -35 -1 -38 -3
-38 -31 0 -26 4 -30 27 -30 14 0 36 8 47 18 20 16 20 16 7 -1 -19 -24 -9 -31
46 -31 53 -1 68 17 26 32 -37 14 -2 16 47 3 19 -5 64 -12 100 -16 35 -3 65 -7
66 -8 2 -1 6 -39 9 -85 7 -75 6 -82 -11 -82 -11 -1 -97 0 -192 0 -162 1 -173
0 -170 -17 2 -14 12 -18 42 -16 l38 1 -19 -21 c-11 -12 -29 -33 -41 -46 -12
-14 -22 -28 -22 -33 0 -5 21 16 48 46 l47 53 78 1 c42 1 77 -2 77 -6 0 -11
-79 -87 -84 -81 -3 3 8 19 24 36 17 18 30 36 30 40 0 4 -32 -26 -71 -67 -39
-41 -68 -66 -64 -56 6 19 5 19 -15 1 -23 -21 -24 -24 -10 -45 9 -13 12 -13 23
1 6 8 27 33 46 55 29 34 33 36 28 14 -7 -28 -7 -28 79 72 21 24 40 36 58 36
14 0 26 -3 26 -5 0 -3 -22 -28 -49 -57 -64 -66 -105 -116 -96 -116 4 0 27 23
52 50 25 28 48 48 51 45 3 -3 -12 -23 -33 -45 -21 -22 -35 -43 -31 -47 4 -4
10 -3 14 3 14 23 147 174 152 174 14 0 3 -50 -14 -69 -26 -28 -35 -17 -10 12
10 13 -5 -1 -34 -31 -29 -30 -51 -57 -48 -59 3 -3 17 9 32 26 14 17 30 28 36
25 5 -3 18 2 29 12 10 9 19 13 19 7 0 -5 -9 -18 -20 -28 -11 -10 -20 -23 -20
-29 1 -6 10 0 21 13 11 13 22 21 26 17 4 -3 -3 -16 -15 -29 -28 -30 -29 -46
-1 -21 l21 19 -2 -45 c-2 -25 0 -52 3 -60 3 -8 8 -53 12 -100 3 -47 8 -101 10
-120 2 -19 7 -73 10 -120 18 -236 26 -303 36 -323 11 -20 -1 -23 -21 -4 -8 6
-6 2 4 -10 10 -12 15 -27 10 -34 -4 -7 -3 -10 4 -5 15 9 30 -21 25 -48 -4 -19
-12 -23 -47 -24 -24 -1 -64 -6 -90 -11 -29 -5 -49 -5 -52 1 -4 6 -27 7 -58 3
-70 -9 -163 -11 -208 -4 l-38 6 0 -44 0 -44 31 16 c50 26 55 12 11 -30 -29
-27 -42 -46 -41 -64 0 -26 0 -26 11 -3 8 15 20 22 38 22 15 0 33 7 40 16 8 8
22 20 34 26 18 10 17 7 -5 -21 -13 -17 -41 -48 -61 -68 -42 -40 -46 -54 -23
-73 13 -11 18 -10 30 6 9 10 18 31 21 46 4 15 9 26 13 25 3 -1 25 19 49 45 53
57 121 93 140 74 11 -11 21 -11 54 1 23 8 64 13 92 11 l51 -3 3 -52 c2 -43 0
-53 -13 -53 -9 0 -76 -60 -149 -132 -104 -103 -139 -146 -159 -189 -24 -55
-95 -145 -105 -134 -3 2 6 22 20 42 14 21 39 61 56 89 18 27 43 61 57 74 27
26 33 50 11 50 -27 0 -96 -67 -150 -146 l-55 -82 0 -91 c1 -101 14 -118 45
-58 9 17 38 59 63 92 66 86 101 138 101 152 0 7 21 35 47 62 27 27 57 62 68
78 36 51 161 161 171 150 3 -3 -11 -31 -31 -61 -20 -30 -34 -60 -30 -66 11
-18 39 -11 75 18 19 16 60 37 90 47 71 23 82 32 70 55 -11 21 -24 311 -15 339
3 11 12 18 20 15 7 -3 16 -1 19 4 3 5 -6 8 -19 7 -30 -4 -33 5 -39 115 -3 47
-8 132 -11 190 -4 58 -8 139 -10 180 -3 41 -7 109 -9 151 l-5 76 35 34 c20 19
40 43 45 54 6 11 -10 -2 -34 -28 l-45 -49 2 30 c1 17 5 34 10 39 5 5 6 0 3
-12 -4 -11 15 3 41 32 40 43 53 52 77 49 17 -1 36 2 43 7 8 6 12 6 12 -1 0 -6
-4 -14 -10 -17 -5 -3 -15 -16 -21 -28 -12 -22 -12 -22 10 -3 41 37 29 10 -20
-47 -48 -54 -57 -77 -17 -40 13 12 18 13 18 3 0 -9 9 -5 25 10 l25 23 0 -31
c0 -19 -5 -32 -12 -32 -10 0 -10 -2 0 -8 8 -6 15 -53 20 -143 8 -127 8 -135
-12 -159 -13 -14 -14 -19 -4 -12 9 7 18 9 21 5 2 -4 7 -57 11 -118 7 -122 15
-225 22 -299 3 -42 2 -47 -11 -36 -12 10 -18 9 -31 -4 -9 -9 -42 -30 -74 -46
-56 -28 -79 -57 -65 -80 10 -16 30 -12 49 9 10 11 31 23 47 26 16 4 42 19 59
35 29 27 30 28 35 7 2 -12 6 -65 8 -119 5 -96 4 -96 -24 -120 -15 -12 -28 -29
-29 -36 0 -7 -12 -18 -26 -24 -32 -15 -59 -75 -43 -94 19 -23 38 -16 63 25 17
26 34 40 55 44 26 6 31 11 31 35 0 28 4 30 83 52 45 13 88 28 95 33 20 15 15
58 -8 64 -17 5 -20 15 -22 72 -1 36 -2 80 -3 98 -1 31 1 32 50 39 27 4 69 8
93 9 41 2 42 1 43 -29 0 -17 3 -82 5 -144 4 -106 3 -114 -15 -119 -24 -6 -35
-42 -15 -50 8 -3 25 -2 39 1 14 4 43 1 64 -5 33 -10 43 -8 80 11 40 20 43 24
37 53 -9 42 -19 247 -13 247 3 0 17 -6 32 -14 16 -8 57 -18 92 -22 l63 -6 1
-102 c2 -142 1 -144 -29 -125 -15 10 -29 9 -66 -2 -44 -13 -60 -32 -33 -42 6
-2 23 0 37 5 l25 9 -22 -20 c-12 -11 -34 -37 -49 -56 -24 -32 -26 -38 -12 -51
14 -14 19 -14 49 2 18 9 61 23 94 31 62 14 153 60 193 96 23 21 28 46 13 63
-5 5 -10 34 -11 64 -4 99 -6 95 54 97 48 2 55 -1 60 -20 11 -41 6 -102 -10
-125 -8 -12 -12 -27 -9 -33 4 -5 0 -18 -9 -28 -19 -20 -12 -51 11 -51 9 0 33
16 54 35 27 24 49 35 70 35 16 0 43 6 58 14 28 15 28 15 23 97 l-5 82 29 -8
c39 -11 78 -9 82 4 2 6 12 11 23 11 29 0 23 -36 -11 -67 -17 -14 -30 -34 -30
-44 0 -10 -10 -19 -25 -23 -29 -7 -32 -21 -10 -43 14 -13 19 -11 46 18 28 30
37 33 96 36 36 1 71 7 76 12 6 6 19 11 29 11 15 0 18 8 18 48 0 66 24 110 69
129 34 14 235 25 269 15 16 -5 16 -81 0 -86 -113 -34 -173 -54 -218 -73 -93
-41 -112 -49 -202 -83 -48 -18 -85 -37 -82 -42 4 -5 13 -6 23 -2 9 3 32 10 51
15 84 19 111 29 212 77 59 28 126 56 148 62 23 6 48 14 56 17 9 3 14 -2 14
-16 0 -22 -44 -49 -115 -69 -197 -56 -217 -65 -323 -152 -66 -55 -164 -164
-182 -206 -16 -36 -145 -204 -156 -204 -8 0 -27 -19 -44 -41 -56 -78 -165
-186 -210 -209 -116 -59 -178 -79 -427 -136 -70 -16 -159 -19 -167 -5 -6 9 47
37 116 62 21 7 50 24 65 38 15 14 41 33 58 42 18 10 36 31 44 54 8 21 25 49
38 63 13 14 23 28 23 33 0 4 18 35 40 68 22 33 40 64 40 68 0 13 72 56 105 63
32 6 49 40 20 40 -39 0 -158 -74 -196 -123 -22 -27 -37 -53 -33 -58 3 -5 -1
-9 -9 -9 -8 0 -35 -41 -62 -92 -70 -138 -78 -145 -232 -184 -123 -31 -132 -31
-125 1 6 35 -29 46 -110 34 -113 -17 -416 -43 -407 -35 9 10 193 55 201 50 4
-3 14 -2 21 3 15 9 139 53 151 53 5 0 3 -7 -5 -16 -32 -39 57 -43 110 -5 23
17 31 31 36 74 5 35 17 64 36 88 48 61 33 79 -28 33 -36 -28 -63 -80 -63 -125
0 -22 -7 -32 -25 -41 -36 -16 -38 -7 -10 43 13 24 31 58 39 74 20 43 76 96
132 125 60 31 161 97 169 109 18 29 -27 15 -116 -36 -155 -90 -188 -118 -228
-198 -33 -65 -40 -71 -86 -89 -72 -27 -271 -75 -335 -82 -53 -5 -54 -4 -25 9
17 8 51 17 76 20 45 6 184 72 223 106 10 9 42 52 71 96 90 137 202 238 321
290 87 38 103 50 87 66 -14 14 -117 -29 -192 -81 -71 -47 -185 -164 -234 -238
-20 -31 -50 -70 -65 -86 -33 -35 -160 -94 -227 -106 -27 -5 -99 -21 -160 -36
-175 -42 -196 -45 -265 -43 -108 2 -100 8 -100 -71 l0 -70 26 16 c20 14 25 24
21 47 -3 26 -1 28 21 24 29 -6 155 9 192 22 50 17 129 33 139 26 7 -4 6 -13
-2 -25 -27 -45 53 -86 148 -75 57 7 106 11 220 21 76 7 79 6 62 -10 -23 -23
-22 -33 6 -39 29 -7 142 1 187 13 44 12 80 13 80 1 0 -5 -24 -12 -52 -16 -80
-11 -101 -21 -93 -45 7 -23 3 -24 -90 -20 -66 2 -84 8 -64 21 10 6 8 9 -7 9
-32 0 -37 -34 -8 -61 19 -18 37 -23 96 -25 88 -4 145 18 140 53 -3 19 3 22 62
28 35 4 69 4 75 1 9 -6 46 1 114 20 9 3 17 2 17 -3 0 -9 -8 -14 -106 -62 -38
-19 -78 -38 -88 -43 -10 -6 -44 -14 -75 -19 -31 -4 -87 -13 -125 -20 -69 -11
-127 -9 -261 11 -286 41 -520 39 -607 -6 -25 -13 -28 -20 -28 -69 0 -55 7 -63
45 -55 23 5 155 -12 150 -20 -2 -4 -48 -11 -100 -15 -90 -6 -95 -8 -95 -29 0
-22 3 -22 47 -15 27 4 71 8 99 8 61 1 105 29 97 61 -11 40 -36 49 -155 57
-101 7 -88 28 32 56 135 32 273 29 480 -11 91 -18 270 -22 360 -9 l55 8 -60
-32 c-68 -37 -187 -58 -340 -59 -49 -1 -112 -5 -140 -11 -27 -5 -77 -13 -109
-18 -95 -16 -104 -42 -15 -47 61 -3 69 -9 43 -34 -27 -27 -277 -100 -341 -100
-40 0 -53 -4 -53 -15 0 -31 115 -15 310 42 74 22 91 31 130 73 43 46 49 48
125 61 44 7 99 13 122 15 23 1 88 10 145 19 120 20 212 59 276 117 35 32 48
39 70 34 16 -4 22 -3 14 2 -9 6 3 17 40 37 29 16 71 46 95 67 43 41 83 51 130
35 18 -6 23 -5 23 7 0 9 12 18 28 21 15 3 41 12 57 20 42 19 93 41 138 59 21
9 56 29 77 46 43 34 96 40 142 16 20 -10 29 -11 38 -2 13 13 172 15 350 4 71
-4 137 -3 173 4 39 7 61 8 68 1 11 -11 2 -19 -93 -89 -27 -19 -48 -41 -48 -48
0 -15 -35 -48 -75 -69 -67 -36 -143 -67 -164 -67 -12 0 -33 -7 -47 -16 -19
-13 -37 -15 -87 -10 -56 7 -66 12 -102 49 l-40 42 -142 0 c-78 1 -145 4 -149
8 -13 13 -60 7 -80 -10 -10 -10 -30 -19 -44 -21 -33 -3 -68 -21 -75 -40 -7
-18 29 -59 59 -68 40 -12 57 -35 50 -68 -4 -17 -12 -39 -18 -49 -9 -16 -5 -24
29 -54 l40 -35 125 6 c145 6 251 -6 286 -33 20 -15 31 -18 55 -11 17 5 36 14
43 19 7 6 17 7 22 2 23 -20 90 -30 133 -20 39 9 46 7 68 -13 22 -21 26 -22 37
-6 7 10 26 16 48 16 19 0 46 5 58 12 12 6 24 9 27 6 3 -3 13 -1 23 4 13 7 31
2 67 -15 29 -15 73 -27 109 -29 61 -5 150 9 172 26 8 7 16 7 25 0 24 -19 91
-19 137 1 39 17 149 97 192 140 8 8 32 24 54 35 33 17 50 19 114 12 41 -4 85
-3 98 1 12 5 22 7 22 4 0 -2 18 2 40 10 22 8 43 14 47 14 4 0 11 14 17 31 11
31 31 42 31 18 0 -22 18 -28 82 -28 69 0 96 17 106 70 4 15 27 49 52 74 53 54
61 90 18 80 -16 -4 -44 -15 -63 -26 -35 -18 -108 -23 -145 -9 -15 6 -2 12 50
24 39 9 81 18 95 19 19 2 26 10 28 31 4 35 38 58 91 60 39 1 68 -12 44 -20 -7
-3 -23 -13 -35 -23 -20 -16 -21 -19 -6 -25 10 -4 29 2 47 16 22 16 49 24 91
27 61 4 84 17 59 33 -21 13 -5 21 46 21 30 1 49 6 54 16 6 10 27 16 62 18 135
7 181 14 207 32 62 44 110 60 167 56 30 -2 66 -9 80 -14 41 -16 55 -12 55 14
0 26 -31 41 -48 24 -6 -6 -12 -6 -16 0 -4 6 -22 8 -43 5 -41 -7 -41 -11 -2 94
21 54 22 66 11 95 -6 19 -12 53 -12 76 0 33 -5 45 -23 57 -31 20 -47 56 -47
104 0 80 -94 181 -168 181 -22 0 -44 5 -47 10 -21 33 -152 55 -224 36 -24 -6
-32 -5 -27 3 4 6 20 11 36 11 33 0 52 19 21 21 -40 3 -44 4 -48 15 -5 14 114
9 131 -5 13 -11 56 -4 56 10 0 12 -35 29 -59 29 -12 0 -21 5 -21 10 0 6 11 8
28 4 15 -4 29 -7 32 -7 3 0 31 7 63 17 32 10 61 15 64 12 3 -3 -3 -8 -13 -12
-10 -3 -30 -10 -44 -16 -24 -10 -24 -11 -5 -18 11 -4 35 -3 54 2 25 7 44 6 75
-6 53 -20 162 -31 170 -18 9 14 -5 21 -52 27 -21 3 -56 12 -75 20 -20 8 -51
15 -69 15 -25 0 -29 3 -18 10 23 15 77 12 111 -5 16 -9 35 -15 42 -13 6 1 24
-1 38 -5 16 -4 44 -1 69 8 23 8 46 12 51 9 5 -3 9 15 9 40 0 56 -8 58 -117 20
-69 -24 -79 -25 -106 -12 -26 12 -38 12 -81 1 -28 -8 -63 -12 -78 -10 -16 2
-28 0 -28 -4 0 -9 -58 -21 -95 -19 -16 1 -49 3 -72 4 -41 1 -58 18 -30 29 6 3
7 6 1 6 -15 1 1 124 37 286 5 22 11 65 14 95 3 30 7 71 10 90 3 19 8 62 11 95
3 33 10 78 15 100 5 22 11 58 13 80 8 79 17 110 39 135 12 14 15 19 7 13 -20
-19 -30 -16 -30 8 0 18 6 20 43 19 23 -1 44 -1 47 0 19 8 60 7 60 -2 0 -7 4
-7 12 -1 19 15 170 14 161 0 -5 -9 -3 -9 8 -1 8 7 27 12 42 12 27 0 27 -1 11
-19 -9 -11 -14 -19 -9 -19 4 0 16 10 26 21 15 17 25 20 54 15 33 -6 35 -5 35
19 0 29 15 28 -244 27 -99 -1 -193 -4 -209 -8 -25 -5 -28 -3 -24 12 8 27 21
133 21 174 l1 35 100 -2 c120 -3 126 -4 119 -15 -3 -5 -10 -6 -15 -2 -5 3 -21
-1 -34 -10 -13 -9 -41 -16 -62 -16 -46 0 -68 -13 -60 -33 7 -19 90 -12 126 10
21 14 30 13 90 -6 62 -19 142 -23 157 -8 3 3 12 3 20 0 10 -3 14 2 14 19 0 22
-4 24 -32 21 -83 -11 -168 0 -168 23 0 23 18 25 57 5 21 -10 52 -17 68 -16 17
1 40 3 53 4 15 1 22 7 22 21 0 17 -7 20 -51 20 -28 0 -60 5 -72 12 -20 10
-179 22 -285 21 -33 0 -42 3 -38 14 3 7 10 64 16 126 6 62 21 182 35 267 13
85 31 207 40 270 8 63 19 118 23 122 4 4 57 10 117 13 61 3 134 8 163 11 l52
5 0 55 c0 48 -2 55 -17 51 -47 -13 -92 -17 -97 -8 -7 10 93 43 106 35 4 -3 8
12 8 32 0 29 -3 35 -12 26 -7 -7 -17 -8 -28 -2 -9 5 -22 5 -31 -1 -7 -5 -33
-9 -56 -9 -51 0 -73 -8 -73 -26 0 -9 13 -14 38 -15 32 -1 34 -2 12 -8 -32 -9
-60 -2 -60 14 0 17 -31 28 -54 19 -9 -3 -16 -15 -16 -25 0 -10 -4 -19 -10 -19
-14 0 -12 -37 3 -43 6 -3 1 -6 -12 -6 -22 -1 -23 2 -18 37 4 20 8 46 11 57 2
11 5 24 5 28 1 4 45 7 99 5 118 -3 202 9 202 29 0 12 -25 14 -145 11 -80 -2
-145 0 -145 3 0 12 63 19 176 19 108 0 114 1 114 21 0 19 -4 20 -140 17 -109
-2 -141 0 -145 10 -8 22 -6 23 15 12 11 -6 26 -8 32 -4 6 4 63 7 125 5 l113
-2 0 27 0 26 -122 -7 c-68 -4 -131 -9 -140 -11 -19 -6 -23 17 -12 72 l5 29
135 -3 c128 -3 134 -3 134 16 0 26 -35 31 -162 25 -61 -3 -98 -1 -98 5 0 5 10
10 23 10 12 0 70 1 130 2 l107 2 0 178 c0 177 0 179 -22 183 l-23 4 23 2 c36
2 27 31 -10 31 -35 0 -31 12 5 15 14 1 23 9 25 23 3 21 0 22 -92 22 -57 0 -96
4 -96 10 0 13 35 15 140 8 l45 -3 3 133 c2 121 1 132 -15 132 -10 1 -36 8 -58
16 -22 8 -56 18 -75 20 -52 8 -154 35 -165 44 -5 4 -32 10 -60 13 -78 8 -227
37 -246 48 -15 8 -16 14 -7 39 9 26 15 30 46 30 21 0 55 -5 77 -10 22 -6 96
-21 165 -34 69 -14 172 -36 229 -50 57 -14 106 -26 107 -26 2 0 4 670 4 1490
l0 1490 -2400 0 -2400 0 0 -1500z m2558 1445 c12 -11 -14 -25 -48 -25 -31 0
-44 -6 -69 -35 -17 -20 -31 -39 -31 -43 0 -5 17 -24 38 -44 28 -28 47 -38 77
-40 22 -2 38 -7 35 -13 -3 -6 -63 -11 -145 -11 -77 -1 -144 -3 -150 -4 -22 -5
-35 1 -35 15 0 10 10 15 34 15 19 0 42 3 52 7 13 5 15 3 10 -8 -4 -8 -1 -6 7
4 10 12 17 14 22 8 3 -6 24 -11 46 -11 45 0 53 19 17 44 -20 14 -24 14 -40 -1
-13 -11 -22 -13 -29 -6 -7 7 -5 14 6 23 22 18 19 31 -21 73 -30 32 -41 37 -80
37 -42 0 -53 7 -37 24 7 7 334 -1 341 -9z m532 -35 c0 -5 -4 -10 -10 -10 -5 0
-10 5 -10 10 0 6 5 10 10 10 6 0 10 -4 10 -10z m1120 -116 c0 -8 -4 -12 -10
-9 -5 3 -10 10 -10 16 0 5 5 9 10 9 6 0 10 -7 10 -16z m-770 -214 c0 -5 -4
-10 -10 -10 -5 0 -10 5 -10 10 0 6 5 10 10 10 6 0 10 -4 10 -10z m-2830 -480
c0 -5 -4 -10 -10 -10 -5 0 -10 5 -10 10 0 6 5 10 10 10 6 0 10 -4 10 -10z
m-445 -410 c-3 -5 -15 -10 -26 -10 -11 0 -17 5 -14 10 3 6 15 10 26 10 11 0
17 -4 14 -10z m4495 -10 c0 -5 -4 -10 -10 -10 -5 0 -10 5 -10 10 0 6 5 10 10
10 6 0 10 -4 10 -10z m-90 -70 c0 -5 -2 -10 -4 -10 -3 0 -8 5 -11 10 -3 6 -1
10 4 10 6 0 11 -4 11 -10z m-1554 -255 c4 -8 10 -15 16 -15 5 0 7 4 4 9 -9 14
32 1 44 -14 18 -22 20 -75 6 -110 -8 -18 -13 -35 -11 -37 7 -6 16 -93 22 -203
l5 -111 -76 -10 c-49 -6 -80 -6 -86 0 -13 13 -12 95 1 176 6 36 12 77 12 92 0
22 6 27 33 32 44 9 77 37 65 55 -8 12 -16 13 -52 2 -42 -13 -44 -12 -65 13
-20 22 -21 30 -12 63 5 21 17 46 26 56 19 21 61 22 68 2z m-551 -83 c0 -7 15
-21 33 -32 33 -21 38 -30 23 -45 -5 -6 -14 -26 -19 -45 -6 -26 -14 -34 -28
-33 -10 2 -29 -3 -41 -9 -16 -8 -29 -8 -45 -1 -26 12 -68 84 -68 117 0 25 35
46 75 46 13 0 27 5 30 11 9 14 40 7 40 -9z m1556 -48 c40 -20 49 -57 27 -107
-22 -47 -137 -67 -158 -28 -17 33 -12 92 12 127 20 30 27 33 58 28 19 -4 47
-12 61 -20z m-2751 -36 c0 -4 -4 -9 -10 -13 -5 -3 -7 -12 -4 -20 4 -8 10 -13
14 -10 5 3 11 1 15 -5 4 -6 11 -8 16 -5 5 4 9 -7 9 -23 0 -32 -23 -61 -35 -42
-10 16 -23 12 -35 -11 -9 -15 -8 -25 3 -42 24 -38 29 -85 9 -96 -15 -9 -15
-13 2 -60 27 -75 22 -83 -52 -85 l-63 -1 7 52 c3 28 6 79 7 112 l1 60 35 3
c49 4 46 28 -6 45 -49 17 -81 56 -62 79 9 10 9 14 0 14 -16 0 19 48 39 54 23
6 110 2 110 -6z m34 -24 c5 -14 4 -15 -9 -4 -17 14 -19 20 -6 20 5 0 12 -7 15
-16z m326 -44 c0 -5 9 -10 19 -10 11 0 23 -5 27 -12 12 -19 6 -76 -12 -102
-14 -22 -14 -28 -1 -46 8 -12 13 -30 10 -41 -3 -10 -1 -19 5 -19 10 0 38 -106
44 -169 3 -32 1 -35 -27 -38 -30 -4 -30 -3 -29 42 1 25 -3 48 -10 52 -6 4 -35
9 -65 10 -29 1 -56 4 -58 7 -3 2 -2 34 2 70 l7 66 37 6 c60 10 65 12 51 29 -8
9 -21 13 -36 9 -28 -7 -74 19 -74 41 0 8 5 15 10 15 6 0 10 5 10 10 0 6 -6 10
-14 10 -10 0 -14 11 -13 35 1 19 5 35 10 35 4 0 5 -5 1 -12 -4 -6 3 -4 17 5
25 18 89 23 89 7z m397 -32 c13 -12 23 -29 23 -38 0 -9 5 -21 12 -28 10 -10 7
-18 -13 -38 -20 -20 -37 -26 -75 -27 -48 -2 -49 -1 -52 28 -2 17 -8 34 -13 40
-12 12 -11 27 1 59 8 22 16 26 52 26 29 0 49 -7 65 -22z m323 -23 c7 -8 25
-15 41 -15 15 0 31 -5 34 -10 11 -17 15 -92 9 -142 l-6 -47 -68 2 c-38 1 -71
5 -74 8 -8 8 11 145 26 187 13 36 20 39 38 17z m2370 5 c0 -5 -2 -10 -4 -10
-3 0 -8 5 -11 10 -3 6 -1 10 4 10 6 0 11 -4 11 -10z m-656 -97 c4 -38 9 -81
11 -98 6 -44 8 -145 4 -150 -3 -2 -44 -13 -93 -23 -76 -17 -88 -17 -93 -5 -18
47 24 365 42 321 10 -24 27 -22 71 7 20 14 40 23 44 20 4 -2 11 -35 14 -72z
m-469 57 c3 -6 -1 -7 -9 -4 -18 7 -21 14 -7 14 6 0 13 -4 16 -10z m-1535 -152
c0 -16 -5 -19 -22 -15 -30 8 -81 -29 -75 -54 7 -28 -14 -89 -35 -100 -15 -8
-18 -5 -20 18 -3 50 4 127 13 151 8 21 14 23 43 18 18 -4 44 -2 57 3 30 11 39
6 39 -21z m-1291 -6 c30 -14 35 -23 38 -58 3 -33 -2 -47 -27 -79 -36 -46 -41
-96 -9 -118 15 -11 21 -29 25 -73 3 -33 6 -73 9 -90 l3 -32 -76 -4 c-42 -3
-84 -7 -92 -9 -12 -3 -15 5 -14 36 1 22 2 76 3 120 l1 80 40 0 c50 0 80 26 60
50 -9 11 -22 14 -38 10 -66 -16 -105 43 -80 121 11 32 19 40 53 50 55 17 65
17 104 -4z m2629 -47 c1 -14 -4 -25 -11 -26 -6 0 -37 -2 -67 -4 -133 -9 -215
-17 -355 -36 -82 -11 -179 -22 -215 -25 -36 -2 -77 -7 -92 -9 -33 -5 -47 11
-41 51 l5 31 121 2 c67 1 199 10 292 20 94 10 213 18 265 19 95 2 96 2 98 -23z
m-2378 5 c0 -5 -4 -10 -10 -10 -5 0 -10 5 -10 10 0 6 5 10 10 10 6 0 10 -4 10
-10z m1275 -19 c99 -11 203 -18 230 -17 l50 3 2 -47 1 -47 -86 3 c-173 5 -319
15 -400 26 l-83 11 3 36 c5 57 24 59 283 32z m-712 -57 c34 -6 37 -9 37 -40 0
-33 -2 -34 -37 -34 -21 -1 -86 -2 -146 -3 l-107 -2 0 28 c0 30 5 31 111 27 43
-1 58 2 62 14 7 17 22 19 80 10z m-653 -13 c36 5 86 6 111 3 l46 -5 -6 -37 -6
-37 -85 -8 c-163 -14 -145 -20 -148 42 -3 44 -1 52 10 44 9 -7 35 -8 78 -2z
m3502 -42 c3 -33 0 -43 -16 -51 -19 -10 -31 -12 -146 -22 -30 -2 -84 -12 -120
-21 -36 -10 -74 -19 -85 -20 -24 -3 -390 -92 -426 -104 -41 -13 -86 -2 -93 23
-14 52 -8 63 37 70 56 9 187 38 387 86 253 60 410 84 395 60 -10 -17 4 -11 25
10 27 27 37 19 42 -31z m-3199 35 c34 -6 37 -9 37 -40 l0 -34 -70 3 -70 2 0
38 c0 35 2 37 33 37 17 0 49 -3 70 -6z m1897 -68 c0 -30 5 -58 10 -61 20 -13
9 -22 -33 -28 -24 -3 -52 -9 -62 -13 -20 -7 -20 -7 0 9 16 13 17 17 6 31 -7 9
-26 16 -41 16 -15 0 -47 3 -72 6 l-45 6 9 38 10 37 61 2 c34 1 63 4 66 6 2 3
24 5 48 5 l43 0 0 -54z m-373 28 c-3 -3 -12 -4 -19 -1 -8 3 -5 6 6 6 11 1 17
-2 13 -5z m-697 -23 c0 -6 -5 -13 -10 -16 -6 -4 -8 -11 -5 -16 4 -5 -1 -12 -9
-15 -9 -3 -16 -12 -16 -19 0 -9 -20 -16 -57 -20 -32 -3 -86 -9 -119 -13 -34
-5 -71 -5 -82 -1 -21 8 -247 -13 -258 -24 -3 -3 -3 -11 1 -17 5 -9 40 -11 116
-8 94 4 109 2 109 -11 0 -9 3 -26 6 -38 5 -18 2 -23 -14 -23 -11 0 -23 -7 -26
-15 -4 -12 -10 -13 -25 -6 -10 6 -38 12 -62 13 -41 3 -44 1 -44 -22 0 -25 0
-25 83 -22 45 1 82 -2 82 -6 0 -5 -26 -9 -57 -10 -32 -2 -71 -5 -86 -8 -16 -3
-44 -3 -64 1 -28 5 -32 9 -23 20 16 19 15 108 -2 134 -11 17 -21 20 -73 18
-40 -1 -59 2 -58 9 1 7 -2 26 -7 43 -10 36 -20 34 124 32 63 0 115 4 122 10 7
5 81 13 166 15 125 5 219 12 281 23 4 0 7 -3 7 -8z m300 -12 c35 -5 66 -12 68
-13 2 -2 4 -17 6 -32 2 -17 10 -30 19 -32 14 -3 14 -7 4 -23 -15 -24 -37 -25
-30 0 4 16 -5 20 -71 30 -42 6 -80 10 -84 10 -33 -5 -42 2 -39 36 2 32 5 35
32 35 17 0 59 -5 95 -11z m-1140 -44 c46 -2 85 -7 88 -9 2 -3 -1 -19 -7 -35
-11 -24 -10 -33 4 -54 l16 -25 -41 -7 c-23 -4 -44 -4 -47 -1 -4 3 -1 6 5 6 7
0 12 9 12 21 0 19 -4 20 -65 14 l-65 -7 0 56 c0 32 4 55 9 52 5 -3 46 -8 91
-11z m2040 5 c0 -5 -4 -10 -10 -10 -5 0 -10 5 -10 10 0 6 5 10 10 10 6 0 10
-4 10 -10z m1417 -26 c48 -31 83 -127 50 -140 -9 -3 -13 -12 -11 -19 3 -7 -5
-20 -18 -29 -21 -14 -30 -14 -78 -1 -91 24 -126 89 -80 148 11 14 20 30 20 36
0 31 70 35 117 5z m-2509 -26 c-20 -22 -37 -26 -143 -37 -179 -19 -250 -22
-239 -12 5 6 50 12 99 16 95 6 190 29 215 51 16 13 83 23 88 13 2 -4 -7 -18
-20 -31z m832 -8 c-38 -12 -139 -12 -120 0 8 5 44 9 80 9 48 -1 58 -3 40 -9z
m-668 -10 c38 0 57 -4 53 -10 -10 -15 -168 -6 -173 10 -4 10 4 11 28 7 18 -4
59 -7 92 -7z m1770 -37 c1 -46 -1 -75 -7 -81 -2 -3 -50 -15 -105 -29 l-102
-23 -18 22 c-11 14 -15 27 -10 33 5 6 10 24 13 40 3 27 8 31 63 42 52 12 135
29 157 32 4 0 8 -16 9 -36z m-999 -140 c-2 -87 -8 -264 -13 -393 -6 -129 -13
-314 -15 -410 -3 -96 -7 -193 -10 -215 -5 -45 -12 -163 -20 -370 -3 -77 -8
-183 -11 -235 -3 -52 -7 -144 -10 -205 -2 -60 -6 -123 -9 -140 -5 -37 -12
-144 -21 -300 -3 -66 -8 -128 -9 -137 -2 -10 -7 -79 -10 -155 -10 -213 -12
-232 -24 -247 -9 -11 -9 -15 1 -19 10 -3 8 -10 -7 -28 -15 -18 -16 -20 -2 -10
14 11 17 11 17 -1 0 -8 -6 -20 -12 -27 -11 -11 -10 -13 0 -7 15 9 9 -61 -7
-77 -14 -14 -14 -30 -1 -22 10 6 7 -116 -10 -380 -5 -82 -12 -208 -15 -280 -7
-160 -24 -376 -31 -387 -11 -18 -24 5 -20 35 3 18 8 104 11 192 3 88 7 189 10
225 3 36 7 124 10 195 3 72 8 173 11 225 3 52 6 125 8 161 1 41 8 74 16 85 10
12 11 15 2 10 -13 -8 -12 81 3 459 2 72 7 193 10 270 3 77 8 163 10 190 2 28
7 124 10 215 3 91 7 194 10 230 5 69 12 295 20 635 5 192 9 297 20 460 2 33 7
142 11 243 6 172 5 182 -12 182 -17 0 -17 1 -1 13 13 9 18 31 21 87 4 81 -2
74 66 89 3 0 5 -70 3 -156z m73 142 c4 -10 21 -15 54 -15 27 0 52 -4 55 -10 4
-6 -13 -10 -42 -10 -27 0 -54 -5 -59 -10 -7 -7 -14 1 -21 25 -11 34 1 52 13
20z m-190 -132 c-3 -71 -8 -231 -11 -358 -3 -126 -7 -270 -10 -320 -2 -49 -7
-162 -10 -250 -3 -88 -8 -203 -10 -255 -2 -52 -7 -183 -10 -290 -3 -107 -7
-222 -10 -255 -2 -33 -7 -134 -10 -225 -3 -91 -8 -176 -10 -190 -3 -14 -7
-108 -10 -210 -7 -254 -15 -445 -20 -510 -2 -30 -7 -122 -10 -205 -4 -82 -8
-172 -10 -200 -5 -69 -13 -236 -26 -535 -6 -140 -15 -259 -19 -264 -5 -4 -14
-5 -20 -1 -13 8 -12 56 15 690 17 393 23 597 30 960 2 138 9 324 14 415 5 91
12 284 16 430 3 146 8 285 10 310 3 25 7 128 10 230 2 102 8 257 11 345 10
260 19 582 19 697 0 99 1 108 20 111 59 12 57 18 51 -120z m-662 95 c-4 -6 -9
-592 -10 -1302 -2 -710 -5 -1345 -8 -1411 -2 -66 -7 -381 -11 -700 -4 -339
-10 -581 -16 -583 -9 -4 -10 58 -10 528 0 2458 -3 3388 -11 3443 l-6 37 39 0
c28 0 38 -4 33 -12z m86 -773 c-1 -429 -3 -827 -5 -885 -1 -58 -6 -262 -10
-455 -4 -192 -9 -352 -10 -355 -2 -3 -5 -118 -6 -254 -2 -222 -4 -250 -20
-270 -14 -16 -18 -17 -19 -5 0 8 6 21 13 28 10 11 9 13 -1 7 -13 -8 -12 409 3
2362 3 463 2 592 -8 593 -6 0 -3 4 8 9 11 5 28 8 39 7 18 -2 19 -25 16 -782z
m-1197 768 c-7 -2 -19 -2 -25 0 -7 3 -2 5 12 5 14 0 19 -2 13 -5z m863 -20
c-4 -16 -7 -41 -6 -58 l0 -30 -90 -3 c-58 -2 -90 1 -90 7 0 6 13 11 29 11 17
0 32 4 35 9 7 11 -18 21 -55 21 -31 0 -37 15 -16 43 8 11 31 17 77 20 36 2 78
4 94 5 26 2 28 0 22 -25z m-1788 5 c7 -7 12 -9 12 -5 0 4 6 3 13 -3 6 -5 22
-18 34 -28 35 -27 34 -55 -2 -62 -28 -5 -30 -9 -35 -54 -4 -44 -8 -51 -32 -57
-15 -4 -36 -5 -45 -3 -18 5 -43 47 -43 72 0 8 -6 12 -14 9 -35 -14 -42 39 -12
86 28 42 100 69 124 45z m2883 -43 c-5 -5 -5 -19 -1 -30 8 -22 -22 -20 443
-24 81 0 147 -4 147 -8 0 -5 -129 -7 -287 -5 -256 2 -333 -3 -313 -21 3 -3
157 -7 342 -9 321 -5 338 -4 350 14 8 11 31 20 61 24 l48 7 -5 -179 c-3 -98
-8 -228 -11 -289 -2 -60 -7 -180 -10 -265 -5 -149 -9 -231 -20 -445 -3 -55
-12 -228 -20 -385 -8 -157 -17 -316 -20 -355 -2 -38 -9 -158 -15 -265 -6 -107
-12 -231 -15 -275 -2 -44 -7 -141 -10 -215 -3 -74 -14 -259 -25 -410 -10 -151
-22 -329 -25 -395 -3 -66 -8 -138 -10 -160 -2 -22 -6 -92 -10 -155 -9 -165
-15 -243 -20 -248 -9 -9 -25 11 -21 26 3 10 8 107 11 217 3 110 7 214 10 230
2 17 7 129 10 250 3 121 10 288 15 370 5 83 9 206 10 275 1 69 3 152 5 185 2
33 6 116 9 184 4 69 8 166 11 215 2 50 9 186 15 301 11 238 16 321 29 555 6
91 13 253 16 360 3 107 10 276 15 375 16 297 17 467 3 472 -7 3 -17 -7 -23
-21 l-10 -26 -132 -2 c-73 0 -140 0 -148 1 -8 2 -95 3 -192 3 -168 -1 -211 -7
-228 -33 -7 -9 -1 137 6 170 4 19 7 22 14 11 5 -8 5 -19 1 -25z m-1877 -170
c3 -105 8 -305 11 -445 12 -630 17 -862 20 -960 4 -95 8 -296 19 -1098 2 -143
0 -254 -5 -258 -5 -3 -9 -10 -9 -15 0 -6 4 -8 8 -5 4 2 8 -35 8 -82 0 -48 3
-293 6 -545 3 -252 1 -460 -3 -463 -5 -3 -9 5 -9 18 1 13 -1 84 -4 158 -3 74
-7 324 -10 554 -5 326 -3 423 7 434 9 13 9 14 0 8 -9 -5 -13 1 -14 21 0 15 -2
143 -4 283 -4 234 -7 360 -20 785 -2 83 -7 254 -10 380 -4 127 -8 262 -10 300
-8 152 -17 594 -19 847 -1 232 1 268 14 271 8 2 16 3 17 2 1 0 4 -86 7 -190z
m-181 173 c-5 -7 -9 -30 -8 -50 1 -32 -2 -38 -19 -39 -69 -2 -168 -11 -216
-20 -51 -9 -142 -19 -297 -34 -35 -3 -96 -12 -135 -19 -40 -8 -75 -13 -76 -11
-9 9 -6 77 3 84 22 18 268 51 415 57 85 4 165 10 178 15 13 5 44 9 70 9 26 0
54 5 62 10 21 14 34 12 23 -2z m87 -45 c1 -32 2 -83 5 -113 6 -93 16 -393 20
-635 4 -242 12 -496 20 -705 3 -69 10 -370 15 -670 6 -300 12 -653 15 -785 15
-825 17 -1115 6 -1115 -7 0 -11 28 -11 83 -1 45 -3 120 -6 167 -11 176 -21
519 -27 940 -4 239 -9 460 -11 490 -3 30 -7 150 -11 265 -3 116 -8 235 -10
265 -2 30 -7 150 -10 265 -4 116 -8 253 -10 305 -2 52 -6 178 -10 280 -3 102
-7 237 -10 300 -3 63 -7 243 -11 400 -3 157 -10 290 -16 297 -7 8 -1 13 19 16
15 2 31 5 36 6 4 0 7 -25 7 -56z m2058 40 c-10 -2 -28 -2 -40 0 -13 2 -5 4 17
4 22 1 32 -1 23 -4z m1366 -43 c32 0 36 -3 37 -27 5 -130 4 -173 -5 -206 -8
-32 -13 -37 -30 -33 -12 4 -49 9 -83 13 -59 5 -63 8 -63 31 0 37 29 142 57
210 11 28 16 31 33 22 10 -5 35 -10 54 -10z m-559 -67 c-3 -43 -7 -163 -10
-268 -2 -104 -8 -262 -14 -350 -6 -88 -13 -207 -16 -265 -3 -58 -8 -132 -10
-165 -3 -33 -7 -98 -10 -145 -26 -458 -34 -586 -40 -655 -2 -27 -7 -84 -10
-125 -3 -41 -10 -131 -15 -200 -5 -69 -12 -169 -15 -223 -5 -117 -14 -169 -29
-179 -8 -5 -7 -8 2 -8 16 0 6 -177 -12 -199 -9 -12 -8 -13 3 -6 11 6 13 3 8
-16 -4 -14 -9 -79 -12 -144 -3 -66 -7 -138 -9 -160 -4 -43 -13 -163 -21 -285
-3 -41 -7 -104 -10 -140 -25 -326 -35 -433 -41 -438 -3 -4 -4 36 0 88 3 52 9
142 12 200 3 58 7 121 9 140 3 19 7 107 10 195 6 156 19 297 30 315 3 5 1 11
-5 15 -5 3 -8 16 -5 28 5 25 13 202 20 452 3 94 7 188 10 210 3 22 8 105 10
185 3 80 7 159 9 175 6 46 15 204 21 375 7 167 11 246 19 355 3 39 8 153 11
255 3 102 10 235 15 295 5 61 12 169 15 240 13 298 25 496 30 513 3 6 16 12
30 12 l25 0 -5 -77z m433 57 c2 0 0 -5 -3 -11 -5 -6 -71 -9 -191 -8 -158 1
-184 4 -184 17 0 13 23 14 188 9 103 -4 188 -7 190 -7z m-678 -10 c0 -5 -4
-10 -10 -10 -5 0 -10 5 -10 10 0 6 5 10 10 10 6 0 10 -4 10 -10z m-2116 -62
c3 -24 7 -230 10 -458 2 -228 7 -620 11 -870 13 -854 9 -1427 -8 -1449 -9 -12
-9 -13 1 -7 18 11 15 -14 -5 -38 -16 -18 -16 -19 -1 -8 15 12 17 10 16 -20 0
-18 -6 -39 -12 -47 -8 -11 -8 -13 2 -7 12 7 15 -103 12 -614 -1 -113 -2 -251
-2 -308 0 -56 -4 -105 -9 -108 -5 -3 -8 40 -6 96 1 55 0 100 -3 100 -6 0 -6
-1 -10 481 -2 195 0 361 4 367 4 7 4 12 -1 12 -10 0 -10 91 0 108 5 7 4 12 -2
12 -5 0 -9 8 -9 18 2 40 -14 1203 -17 1267 -2 39 -7 306 -10 595 -4 289 -8
603 -9 698 -2 142 -5 175 -18 189 -34 33 -39 8 -33 -180 3 -100 7 -303 10
-452 6 -320 13 -593 20 -800 4 -137 9 -399 20 -1185 7 -505 6 -1340 -1 -1352
-15 -24 -21 30 -23 196 -1 94 -4 172 -6 175 -4 8 -14 363 -20 726 -6 318 -22
902 -30 1060 -3 55 -7 199 -10 320 -3 121 -10 321 -15 445 -6 124 -12 315 -15
425 -2 110 -7 300 -10 422 l-6 222 83 4 c46 1 86 4 90 5 4 1 9 -17 12 -40z
m342 15 c4 -14 7 -531 8 -1151 1 -1076 -6 -1651 -19 -1672 -3 -6 -1 -10 5 -10
7 0 10 -7 6 -15 -3 -8 -6 -224 -7 -479 -1 -389 -3 -465 -15 -470 -8 -3 -14
-11 -14 -17 0 -8 5 -7 17 2 15 13 16 11 10 -11 -4 -14 -7 -37 -7 -52 0 -18 -5
-28 -15 -28 -18 0 -20 21 -2 39 8 10 8 12 0 7 -9 -5 -12 57 -13 261 0 148 -3
364 -6 482 -6 211 -6 213 17 245 22 30 22 30 1 12 -24 -21 -28 -16 -12 15 6
10 7 19 3 19 -4 0 -8 341 -9 757 0 417 -1 1001 -2 1298 0 297 0 592 1 655 1
115 1 115 -24 118 l-24 3 2 -153 c1 -84 5 -337 8 -563 4 -225 7 -880 7 -1455
0 -1487 -4 -1762 -23 -1743 -9 9 -16 527 -24 1748 -3 402 -7 825 -10 940 -2
116 -6 432 -7 702 -2 271 -6 493 -10 493 -5 0 -8 9 -8 19 0 21 16 25 108 27
47 1 53 -2 58 -23z m2084 -13 c0 -5 -2 -10 -4 -10 -3 0 -8 5 -11 10 -3 6 -1
10 4 10 6 0 11 -4 11 -10z m335 0 c-6 -10 -304 -5 -314 6 -2 2 69 4 158 4 110
0 160 -3 156 -10z m-937 -29 c67 -1 82 -4 82 -17 0 -12 -6 -13 -22 -8 -13 4
-61 9 -108 9 -208 4 -234 6 -223 13 7 4 52 7 100 6 49 -1 125 -2 171 -3z
m-2689 -23 c-9 -16 -9 -23 0 -26 19 -6 12 -20 -11 -24 -28 -4 -30 -33 -3 -34
49 -3 56 -5 50 -15 -4 -6 -22 -8 -45 -4 -32 5 -93 -5 -182 -31 -12 -4 -18 5
-23 38 -4 24 -12 49 -18 57 -17 20 18 41 72 42 68 1 144 9 150 14 13 14 20 2
10 -17z m2384 15 c-7 -2 -19 -2 -25 0 -7 3 -2 5 12 5 14 0 19 -2 13 -5z m561
-26 c27 -22 28 -27 22 -70 -6 -38 -13 -50 -36 -62 -57 -30 -150 12 -150 68 0
11 11 35 26 54 21 28 31 33 67 33 29 0 51 -7 71 -23z m631 12 c18 -4 -29 -6
-118 -5 -81 2 -151 6 -154 10 -9 9 237 5 272 -5z m-4070 -49 c-3 -4 1 -25 9
-46 7 -22 16 -55 20 -74 6 -34 4 -36 -47 -64 -28 -16 -63 -40 -76 -53 -13 -12
-27 -23 -31 -23 -7 0 -15 98 -19 227 l-2 51 39 -5 c27 -4 42 -1 51 11 12 14
15 14 37 0 13 -9 22 -20 19 -24z m2900 15 c6 -2 -14 -4 -43 -4 -29 -1 -51 3
-48 7 4 7 67 5 91 -3z m1150 -5 c4 -6 -25 -9 -82 -8 -77 1 -82 2 -38 8 79 11
113 11 120 0z m-830 -11 c26 -10 -169 -8 -209 2 -20 5 10 7 79 7 61 -1 120 -5
130 -9z m565 7 c0 -3 -4 -8 -10 -11 -5 -3 -10 -1 -10 4 0 6 5 11 10 11 6 0 10
-2 10 -4z m68 -3 c-10 -2 -28 -2 -40 0 -13 2 -5 4 17 4 22 1 32 -1 23 -4z
m-3094 -55 c-7 -11 -186 -10 -204 2 -10 7 21 10 97 8 62 0 110 -5 107 -10z
m-296 -50 c-6 -18 -28 -21 -28 -4 0 9 7 16 16 16 9 0 14 -5 12 -12z m302 -8
c0 -5 -58 -9 -130 -9 -114 -1 -142 4 -126 20 8 8 256 -2 256 -11z m-955 -35
c6 -2 -21 -4 -60 -4 -42 0 -65 3 -57 8 12 7 91 5 117 -4z m649 -107 c3 -62 8
-156 11 -208 11 -219 46 -753 55 -855 6 -60 13 -173 15 -250 3 -77 7 -151 10
-165 2 -14 7 -90 10 -170 3 -80 12 -280 20 -445 7 -165 13 -321 12 -347 -1
-27 0 -48 3 -48 4 0 7 -62 9 -137 1 -76 4 -140 6 -143 1 -3 5 -72 9 -155 6
-144 11 -228 21 -418 3 -48 1 -87 -3 -87 -4 0 -8 26 -9 58 -1 31 -5 82 -9 112
-3 30 -8 65 -9 78 -2 12 -6 91 -9 175 -4 83 -9 202 -11 262 -3 61 -8 166 -10
235 -2 69 -7 157 -10 195 -2 39 -7 108 -10 155 -3 47 -10 155 -15 240 -5 85
-12 196 -15 245 -14 243 -42 687 -50 805 -3 41 -7 113 -10 160 -3 47 -7 103
-10 125 -4 35 -8 146 -20 593 -2 61 0 110 4 107 5 -2 11 -55 15 -117z m2947
42 c3 -92 3 -119 1 -173 l-2 -47 -72 6 c-40 4 -79 11 -86 17 -18 14 -5 96 29
187 l29 75 50 0 50 0 1 -65z m-2635 42 c-7 -12 -223 -14 -231 -2 -4 7 35 10
115 10 67 0 119 -4 116 -8z m-13 -61 c-4 -4 -44 -4 -88 -2 l-80 6 80 5 c82 5
103 3 88 -9z m-173 5 c0 -9 -30 -14 -35 -6 -4 6 3 10 14 10 12 0 21 -2 21 -4z
m3595 -16 c39 -11 82 -23 98 -26 25 -6 27 -9 21 -43 -10 -56 -23 -74 -47 -67
-12 3 -56 13 -97 22 -80 17 -90 21 -90 34 0 4 27 -1 61 -11 64 -20 109 -24
109 -11 0 19 -28 32 -97 44 -74 12 -78 15 -67 56 8 27 19 27 109 2z m-4395
-10 c0 -13 -30 -13 -50 0 -11 7 -7 10 18 10 17 0 32 -4 32 -10z m1360 -15 c0
-12 -11 -16 -47 -15 -27 1 -61 5 -78 8 -23 5 -12 8 45 13 41 3 76 6 78 7 1 1
2 -5 2 -13z m344 -4 c11 -1 16 -4 12 -8 -9 -9 -96 -11 -96 -2 0 13 15 19 39
15 14 -2 35 -5 45 -5z m-739 -10 c26 -2 27 -3 10 -10 -23 -9 -105 -3 -105 8 0
6 32 7 95 2z m1552 -28 c-5 -4 -34 -10 -65 -13 -41 -4 -58 -9 -60 -21 -2 -13
15 -15 130 -14 150 1 208 -3 208 -17 0 -5 -72 -6 -182 -2 -101 4 -193 7 -205
7 -19 -1 -23 5 -23 26 0 15 2 30 4 32 3 2 49 6 103 7 54 2 94 0 90 -5z m-792
-13 c3 -6 -4 -10 -17 -10 -18 0 -20 2 -8 10 19 12 18 12 25 0z m328 -1 c20 1
37 -3 37 -9 0 -11 -52 -13 -87 -4 -13 4 -23 11 -23 16 0 6 8 7 18 3 9 -4 34
-7 55 -6z m-693 -8 c0 -15 -28 -21 -91 -21 -46 0 -59 3 -59 15 0 12 15 15 75
15 41 0 75 -4 75 -9z m320 5 c0 -2 -13 -6 -30 -8 -16 -3 -30 -1 -30 4 0 4 14
8 30 8 17 0 30 -2 30 -4z m-690 -16 c0 -5 -7 -10 -15 -10 -8 0 -15 5 -15 10 0
6 7 10 15 10 8 0 15 -4 15 -10z m740 -38 c0 -4 -25 -8 -55 -8 -30 1 -55 4 -55
9 0 4 25 7 55 7 30 0 55 -4 55 -8z m370 -13 c0 -12 -117 -11 -125 1 -3 5 20 9
60 8 36 0 65 -5 65 -9z m1187 1 c53 0 94 -3 90 -6 -8 -9 -387 -10 -387 -2 0 7
162 16 188 11 8 -2 57 -3 109 -3z m1057 -10 c8 -8 -10 -183 -44 -445 -5 -33
-18 -136 -29 -230 -12 -93 -24 -176 -26 -183 -3 -7 -7 -39 -10 -70 -3 -31 -7
-66 -10 -77 -2 -11 -7 -47 -10 -80 -4 -33 -11 -78 -16 -100 -5 -22 -9 -60 -9
-84 0 -24 -4 -60 -9 -80 -6 -20 -19 -112 -31 -206 -11 -93 -25 -201 -31 -240
-6 -38 -14 -106 -19 -150 -5 -44 -29 -219 -54 -390 -56 -374 -54 -363 -62
-450 -4 -38 -12 -80 -20 -91 -7 -13 -9 -25 -4 -30 6 -6 -5 -108 -25 -254 -43
-301 -41 -290 -65 -290 -23 0 -24 7 -10 110 18 136 50 392 70 565 11 94 27
220 35 280 23 165 94 732 111 878 8 71 19 159 24 195 12 84 12 112 1 112 -12
0 -18 -27 -36 -175 -8 -72 -17 -148 -20 -170 -14 -101 -35 -282 -35 -297 0
-12 -8 -18 -23 -18 -12 0 -31 -6 -42 -13 -11 -7 -38 -19 -60 -26 -22 -7 -46
-15 -54 -18 -13 -5 -13 35 4 217 3 25 9 122 15 215 6 94 13 177 15 185 2 8 7
85 10 170 4 85 9 158 11 162 3 5 14 8 25 8 17 0 18 -3 9 -20 -6 -11 -9 -20 -8
-21 2 0 45 -2 96 -3 51 -2 95 -5 98 -8 3 -3 0 -41 -5 -84 -6 -46 -6 -83 -1
-88 13 -13 24 49 50 294 6 58 16 125 21 150 5 25 11 70 13 100 3 30 10 98 16
150 7 52 13 104 13 115 0 11 6 65 13 119 8 54 19 140 24 191 5 50 15 115 21
144 10 50 12 52 38 46 14 -3 30 -10 35 -15z m-2980 -1 c-7 -12 -154 -12 -154
0 0 5 36 9 80 9 44 0 77 -4 74 -9z m1066 -15 c0 -2 -15 -4 -32 -4 -23 0 -29 3
-19 9 12 8 51 4 51 -5z m-80 2 c0 -2 -7 -6 -15 -10 -8 -3 -15 -1 -15 4 0 6 7
10 15 10 8 0 15 -2 15 -4z m133 -3 c-7 -2 -19 -2 -25 0 -7 3 -2 5 12 5 14 0
19 -2 13 -5z m137 -3 c-14 -9 -108 -5 -118 5 -3 3 26 5 64 5 48 0 64 -3 54
-10z m90 1 c0 -10 -24 -21 -46 -21 -8 0 -14 7 -14 15 0 10 10 15 30 15 17 0
30 -4 30 -9z m1714 3 c11 -4 16 -19 16 -43 0 -41 -25 -258 -40 -341 -5 -30
-12 -80 -15 -110 -3 -30 -11 -86 -16 -125 -6 -38 -12 -95 -15 -125 -4 -46 -17
-141 -29 -210 -1 -8 -8 -55 -14 -105 -7 -49 -18 -124 -26 -165 -7 -41 -21
-131 -30 -200 -8 -69 -20 -152 -25 -185 -5 -33 -17 -109 -25 -170 -9 -60 -41
-283 -71 -495 -31 -212 -66 -464 -79 -560 -28 -207 -64 -430 -70 -440 -3 -4
-6 -29 -7 -54 -1 -44 -20 -88 -32 -76 -3 3 1 53 9 110 7 58 21 170 30 249 9
80 21 154 25 165 5 12 16 79 25 150 8 71 18 133 22 139 4 6 6 31 4 56 -1 26 2
66 8 91 12 56 47 310 66 490 8 74 24 200 35 280 11 80 25 190 31 245 8 87 14
133 34 255 2 14 9 61 15 105 30 210 41 297 50 385 6 52 12 102 15 110 2 8 16
105 29 215 37 294 48 365 57 365 4 0 14 -3 23 -6z m-2699 -14 c4 -6 -15 -9
-52 -8 l-58 1 50 7 c28 4 51 8 52 8 1 1 5 -2 8 -8z m1345 -10 c0 -5 -18 -10
-41 -10 -24 0 -38 4 -34 10 3 6 22 10 41 10 19 0 34 -4 34 -10z m175 0 c39 -5
125 -11 193 -14 68 -4 142 -11 165 -16 23 -5 56 -10 73 -10 28 0 31 -3 30 -32
l-1 -33 -117 2 c-65 1 -175 9 -245 17 -70 9 -149 19 -175 22 -47 6 -48 7 -48
40 0 39 3 40 125 24z m-1177 -6 c56 -9 35 -19 -33 -16 -36 2 -65 7 -65 10 0 9
57 13 98 6z m-698 -15 c0 -13 -35 -19 -98 -17 -42 2 -62 7 -62 16 0 9 22 12
80 10 44 0 80 -5 80 -9z m1146 -8 c-7 -11 -131 -9 -142 2 -4 4 27 7 70 7 43 0
75 -4 72 -9z m78 1 c2 -4 -11 -6 -30 -4 -19 2 -34 6 -34 8 0 8 59 4 64 -4z
m-854 -12 c0 -5 -21 -9 -47 -9 -43 1 -45 2 -18 9 44 11 65 11 65 0z m603 -2
c-6 -7 -13 -20 -16 -28 -3 -9 -6 -3 -6 13 -1 19 4 27 15 27 12 0 14 -4 7 -12z
m367 4 c0 -4 -16 -6 -35 -4 -19 2 -35 6 -35 8 0 2 16 4 35 4 19 0 35 -4 35 -8z
m360 -2 c0 -13 -30 -13 -50 0 -11 7 -7 10 18 10 17 0 32 -4 32 -10z m-1005
-20 c-35 -7 -92 0 -77 9 6 3 32 4 59 2 42 -4 44 -5 18 -11z m2163 -9 c1 -1 2
-6 2 -12 0 -9 -27 -10 -97 -4 -149 11 -158 11 -158 -2 0 -22 -13 -25 -24 -5
-6 11 -7 22 -4 26 5 5 262 2 281 -3z m-2858 -20 c0 -10 -87 -18 -132 -13 -16
2 -28 8 -28 13 0 5 36 9 80 9 44 0 80 -4 80 -9z m1158 2 c-15 -2 -42 -2 -60 0
-18 2 -6 4 27 4 33 0 48 -2 33 -4z m187 -3 c6 -10 -142 -6 -153 5 -3 3 29 5
71 5 42 0 79 -5 82 -10z m-981 -11 c-4 -7 -24 -9 -51 -5 -66 8 -65 16 1 16 39
0 55 -4 50 -11z m1476 -5 c52 -4 102 -11 110 -16 9 -5 -29 -6 -98 -2 -82 4
-116 3 -127 -6 -8 -7 -12 -16 -9 -21 8 -13 -34 -11 -73 3 -25 9 -33 18 -33 36
0 23 1 24 68 18 37 -3 110 -8 162 -12z m-1200 -14 c0 -5 -10 -10 -22 -9 -22 0
-22 1 -3 9 11 5 21 9 23 9 1 1 2 -3 2 -9z m65 0 c4 -6 -7 -10 -27 -9 -27 0
-30 2 -13 9 27 12 33 12 40 0z m375 -10 c0 -5 -11 -10 -24 -10 -14 0 -28 5
-31 10 -4 6 7 10 24 10 17 0 31 -4 31 -10z m68 -2 c9 -9 12 -9 12 0 0 7 5 12
12 12 8 0 6 -7 -5 -17 -15 -15 -19 -16 -26 -4 -5 7 -14 10 -20 7 -6 -4 -11 -2
-11 3 0 15 23 14 38 -1z m1660 2 c29 0 51 -4 48 -9 -7 -11 -206 -2 -226 11
-10 6 9 7 55 4 39 -3 94 -6 123 -6z m-645 -6 c43 -4 77 -11 77 -16 0 -6 -20
-7 -47 -3 -27 3 -76 7 -110 7 -34 0 -60 5 -57 9 6 11 36 11 137 3z m-3218
-459 c4 -82 8 -152 10 -155 1 -3 6 -70 10 -150 4 -80 9 -148 10 -151 2 -3 6
-43 10 -90 3 -46 7 -106 10 -134 2 -27 7 -106 11 -175 4 -69 8 -143 9 -165 4
-59 15 -228 26 -408 8 -134 7 -160 -5 -173 -20 -20 -23 -18 -24 14 0 15 -6 83
-12 152 -6 69 -13 154 -16 190 -2 36 -9 112 -14 170 -19 211 -22 280 -10 280
7 0 7 5 -2 14 -10 9 -19 85 -32 257 -10 134 -19 260 -21 279 -2 19 -6 58 -9
85 -3 28 -8 93 -11 145 -3 52 -7 118 -10 145 -2 28 -7 100 -11 162 l-6 112 28
25 29 24 11 -151 c7 -84 15 -219 19 -302z m1424 441 c-6 -6 -49 -9 -89 -5 -26
2 -19 4 25 8 59 6 73 5 64 -3z m-369 -6 c0 -5 -7 -7 -15 -4 -8 4 -15 8 -15 10
0 2 7 4 15 4 8 0 15 -4 15 -10z m2643 -5 c23 -1 60 -3 81 -4 72 -2 29 -12 -63
-14 -80 -2 -91 0 -91 15 0 12 5 15 15 11 9 -3 35 -7 58 -8z m-876 -1 c-3 -3
-12 -4 -19 -1 -8 3 -5 6 6 6 11 1 17 -2 13 -5z m191 -4 c-15 -4 -60 -5 -100 0
l-73 7 100 1 c66 0 91 -2 73 -8z m-2558 -4 c0 -2 -7 -9 -15 -16 -12 -10 -15
-10 -15 4 0 9 7 16 15 16 8 0 15 -2 15 -4z m37 -2 c-3 -3 -12 -4 -19 -1 -8 3
-5 6 6 6 11 1 17 -2 13 -5z m3393 -4 c11 -7 5 -10 -23 -10 -23 0 -36 4 -32 10
8 13 35 13 55 0z m-4130 -10 c0 -6 -30 -9 -72 -9 -63 2 -67 3 -33 9 62 11 105
11 105 0z m3532 -11 c14 -8 18 -44 7 -69 -1 -3 -2 -14 -3 -24 -1 -18 -10 -20
-97 -22 -53 -1 -102 2 -110 6 -14 9 -17 58 -6 103 l8 28 92 -7 c50 -4 100 -11
109 -15z m-3083 -2 c-2 -3 -47 -7 -99 -10 -53 -4 -86 -3 -75 2 20 8 183 15
174 8z m-304 -312 c13 -148 27 -306 30 -350 3 -44 12 -156 20 -250 8 -93 17
-199 20 -235 7 -92 15 -188 20 -235 5 -45 9 -108 30 -420 8 -121 17 -242 20
-270 2 -27 6 -104 10 -170 3 -66 10 -178 15 -250 11 -136 35 -480 45 -625 4
-47 8 -92 10 -100 3 -8 0 -22 -5 -30 -17 -27 -19 -18 -34 140 -3 30 -10 100
-15 155 -5 55 -13 141 -16 190 -3 50 -10 140 -16 200 -6 61 -12 133 -14 160
-2 28 -7 75 -10 105 -7 73 -14 162 -20 236 -2 33 -9 103 -15 155 -6 52 -10
114 -9 140 2 25 0 49 -3 55 -3 5 -9 52 -12 104 -7 95 -17 221 -36 433 -10 111
-36 402 -45 507 -2 30 -14 172 -25 315 -12 143 -25 268 -30 277 -7 13 -2 23
23 44 29 25 32 25 35 8 1 -10 13 -140 27 -289z m640 295 c4 -6 -5 -10 -19 -10
-14 0 -26 5 -26 10 0 6 9 10 19 10 11 0 23 -4 26 -10z m35 0 c0 -5 -5 -10 -11
-10 -5 0 -7 5 -4 10 3 6 8 10 11 10 2 0 4 -4 4 -10z m-100 -4 c0 -9 -40 -13
-46 -5 -3 5 6 9 20 9 14 0 26 -2 26 -4z m3364 -2 c25 -4 46 -11 46 -16 0 -5
-22 -6 -49 -2 -33 4 -51 2 -56 -6 -6 -9 -9 -9 -15 0 -4 6 -31 11 -63 11 -31 0
-59 5 -62 10 -7 10 128 12 199 3z m-2764 -24 c0 -5 -4 -10 -10 -10 -5 0 -10 5
-10 10 0 6 5 10 10 10 6 0 10 -4 10 -10z m-863 -14 c4 -3 -14 -7 -38 -8 -108
-3 -137 -6 -148 -12 -6 -4 -11 -1 -11 8 0 9 12 16 33 19 43 5 157 0 164 -7z
m461 -12 c-8 -7 -238 -8 -245 0 -4 3 51 6 122 6 71 0 126 -3 123 -6z m-888
-33 c0 -13 -49 -17 -145 -12 -65 4 -72 6 -40 11 70 10 185 10 185 1z m430 -13
c0 -9 -23 -14 -81 -15 -45 -2 -88 -8 -95 -14 -8 -6 -14 -9 -14 -6 0 3 -3 12
-6 21 -5 12 5 16 53 18 32 2 77 4 101 6 29 2 42 -1 42 -10z m465 -7 c3 -6 -41
-10 -111 -10 -63 -1 -120 -3 -125 -6 -5 -4 -9 1 -9 9 0 14 18 16 119 16 66 0
122 -4 126 -9z m2456 -30 c0 -3 2 -13 4 -23 2 -9 -1 -52 -6 -95 -5 -43 -13
-136 -19 -208 -6 -71 -13 -159 -15 -195 -11 -138 -64 -679 -74 -760 -12 -96
-16 -138 -31 -295 -6 -60 -12 -126 -14 -145 -6 -47 -24 -221 -36 -345 -5 -55
-16 -158 -25 -230 -8 -71 -18 -159 -21 -195 -3 -36 -14 -145 -25 -242 -10 -97
-19 -193 -19 -213 0 -39 1 -39 -35 -25 -20 8 -24 13 -17 27 11 21 19 82 27
203 6 84 62 703 70 769 2 19 10 38 17 42 10 7 10 9 1 9 -13 0 -12 59 2 194 3
28 9 105 15 171 19 225 22 260 30 350 4 50 15 154 24 233 9 79 20 200 26 270
11 142 14 182 36 397 8 83 17 179 20 215 6 66 10 104 13 106 4 4 51 -9 52 -15z
m104 -95 c-4 -56 -8 -114 -10 -131 -5 -39 -15 -138 -20 -195 -9 -104 -26 -271
-35 -350 -6 -47 -15 -132 -21 -189 -5 -57 -11 -107 -13 -110 -2 -3 -7 -43 -11
-89 -9 -110 -11 -117 -24 -115 -6 2 -11 -2 -11 -7 0 -6 4 -10 10 -10 6 0 8
-16 5 -37 -3 -21 -10 -83 -15 -138 -29 -330 -33 -360 -49 -379 -9 -11 -10 -16
-3 -12 18 11 15 -14 -5 -36 -16 -18 -16 -18 0 -12 26 10 20 -7 -18 -50 l-34
-38 6 38 c3 22 13 47 21 57 15 16 14 17 -1 11 -15 -5 -16 0 -13 37 10 99 17
177 21 234 6 84 14 160 30 300 8 66 17 152 20 190 4 39 10 108 15 155 5 47 12
128 15 180 4 52 10 111 15 130 4 19 9 62 10 95 3 70 5 92 13 160 4 28 9 79 12
115 13 169 25 282 29 289 3 4 19 8 37 8 l31 0 -7 -101z m-2186 78 c2 -2 -29
-4 -70 -3 -44 0 -66 3 -55 8 18 7 116 3 125 -5z m-831 -12 c-2 -7 -6 -13 -10
-13 -5 1 -48 1 -98 1 -65 0 -90 3 -90 13 0 9 27 12 100 12 77 0 100 -3 98 -13z
m460 3 c3 -3 -33 -5 -79 -5 -46 -1 -103 -5 -126 -9 -36 -7 -43 -6 -43 8 0 14
15 16 122 13 67 -1 124 -4 126 -7z m1464 0 c-12 -9 -20 -20 -17 -25 5 -8 57
-20 105 -25 41 -4 94 -16 100 -22 3 -3 -31 -2 -75 2 -70 7 -179 8 -239 2 -10
-1 -21 3 -23 8 -2 6 17 12 44 13 26 1 51 6 56 11 16 16 -2 31 -36 31 -54 0
-12 15 50 18 56 2 57 2 35 -13z m-404 -16 c-2 -6 -7 -10 -11 -10 -4 1 -14 1
-23 1 -8 0 -12 5 -9 10 8 13 48 13 43 -1z m-798 -25 c0 -2 -9 -4 -20 -4 -11 0
-20 4 -20 9 0 5 9 7 20 4 11 -3 20 -7 20 -9z m93 -1 c-13 -2 -33 -2 -45 0 -13
2 -3 4 22 4 25 0 35 -2 23 -4z m-343 -11 c0 -5 -48 -12 -107 -15 -60 -4 -119
-10 -133 -13 -18 -5 -22 -4 -15 4 6 6 28 16 50 21 51 12 205 14 205 3z m-491
-12 c17 -6 -8 -9 -71 -9 -61 -1 -98 3 -98 9 0 12 130 12 169 0z m2191 0 c0 -5
-9 -10 -20 -10 -11 0 -20 5 -20 10 0 6 9 10 20 10 11 0 20 -4 20 -10z m-625
-10 c10 16 27 11 23 -7 -3 -14 -12 -17 -48 -14 -25 1 -49 6 -55 9 -16 10 38
20 57 10 10 -5 19 -4 23 2z m949 -5 c-7 -17 -24 -20 -24 -4 0 5 -5 7 -12 3 -7
-4 -8 -3 -4 4 11 18 47 15 40 -3z m46 11 c0 -3 -4 -8 -10 -11 -5 -3 -10 -1
-10 4 0 6 5 11 10 11 6 0 10 -2 10 -4z m198 -5 c12 0 22 -5 22 -10 0 -5 -30
-9 -66 -10 -36 0 -73 -3 -82 -5 -10 -3 -28 3 -41 13 -24 19 -24 19 60 16 46
-1 94 -3 107 -4z m-1900 -16 c3 -3 -20 -5 -51 -5 -31 0 -59 4 -62 10 -6 10
103 6 113 -5z m1962 5 c0 -5 -7 -10 -16 -10 -8 0 -12 5 -9 10 3 6 10 10 16 10
5 0 9 -4 9 -10z m-1665 -18 c-11 -2 -26 -9 -32 -14 -10 -8 -13 -5 -13 9 0 16
5 19 33 14 23 -3 26 -6 12 -9z m62 2 c-3 -3 -12 -4 -19 -1 -8 3 -5 6 6 6 11 1
17 -2 13 -5z m-802 -14 c11 -2 -18 -6 -65 -10 -47 -4 -94 -11 -105 -15 -16 -6
-18 -5 -8 5 19 21 98 30 178 20z m65 2 c0 -4 -9 -8 -20 -9 -11 -1 -18 2 -15 8
7 11 35 12 35 1z m1658 -3 c24 -2 46 -7 48 -11 3 -4 -86 -8 -197 -8 -125 0
-199 4 -193 9 5 5 25 11 44 13 36 3 222 1 298 -3z m-2108 -8 c0 -7 -35 -11
-102 -11 -124 0 -116 14 11 18 61 3 91 0 91 -7z m2771 -26 c31 -10 22 -25 -16
-25 -26 0 -35 4 -35 17 0 16 -1 16 -12 0 -10 -13 -20 -14 -48 -8 l-35 9 32 1
c17 1 35 6 39 12 3 6 15 9 25 6 13 -4 19 0 20 11 1 15 2 15 6 0 2 -9 13 -20
24 -23z m284 15 c-5 -15 0 -21 22 -26 48 -10 49 -12 6 -13 -41 -1 -43 0 -43
29 0 17 5 30 11 30 6 0 8 -8 4 -20z m830 11 c3 -5 1 -12 -5 -16 -5 -3 -10 1
-10 9 0 18 6 21 15 7z m-3058 -15 c4 -3 -28 -6 -70 -6 -42 0 -79 4 -82 10 -7
11 141 7 152 -4z m703 4 c19 -6 12 -8 -32 -9 -31 -1 -60 4 -63 9 -7 12 58 12
95 0z m-340 -21 c0 -4 -25 -9 -55 -11 -40 -2 -55 1 -55 10 0 9 16 12 55 10 30
-1 55 -5 55 -9z m1353 0 c47 -1 55 -3 32 -8 -41 -9 -137 -2 -129 11 3 5 13 7
21 4 8 -3 42 -6 76 -7z m-2548 -19 c-3 -6 -42 -9 -88 -8 l-82 2 80 6 c44 3 84
7 88 8 5 1 5 -2 2 -8z m465 0 c0 -6 -38 -10 -92 -11 -107 -1 -126 -3 -142 -19
-20 -20 16 -31 86 -27 37 2 65 0 62 -4 -3 -5 -41 -9 -85 -9 l-79 0 0 33 c0 31
2 33 37 35 21 2 39 5 42 7 9 10 171 5 171 -5z m336 -13 c4 -4 -20 -7 -54 -7
-34 0 -62 4 -62 8 0 10 106 9 116 -1z m754 1 c0 -10 -44 -9 -95 2 -36 8 -33 8
28 7 37 -1 67 -5 67 -9z m317 6 c-3 -3 -12 -4 -19 -1 -8 3 -5 6 6 6 11 1 17
-2 13 -5z m287 -6 c-6 -10 -147 -9 -224 1 -40 6 -17 8 87 8 78 0 140 -4 137
-9z m1236 -7 c0 -6 -4 -13 -10 -16 -5 -3 -10 1 -10 9 0 9 5 16 10 16 6 0 10
-4 10 -9z m199 3 c64 -13 27 -23 -79 -22 -101 2 -130 8 -97 21 18 8 139 8 176
1z m-2395 -24 c4 -4 -19 -10 -53 -12 -49 -2 -61 0 -61 12 0 12 11 14 52 12 29
-2 57 -8 62 -12z m1576 -1 c10 -7 -17 -8 -85 -5 -55 3 -140 6 -188 6 -49 0
-86 3 -84 8 7 11 339 2 357 -9z m-2776 -11 c-3 -4 -49 -7 -102 -6 l-97 2 90 5
c50 3 95 6 102 7 7 0 10 -3 7 -8z m1829 5 c-7 -2 -19 -2 -25 0 -7 3 -2 5 12 5
14 0 19 -2 13 -5z m57 -3 c0 -5 -7 -10 -15 -10 -8 0 -15 5 -15 10 0 6 7 10 15
10 8 0 15 -4 15 -10z m1208 4 c12 -4 22 -10 22 -15 0 -14 -43 -10 -64 6 -20
15 -20 15 0 15 10 0 29 -3 42 -6z m-2637 -13 c-12 -8 -51 -4 -51 5 0 2 15 4
33 4 22 0 28 -3 18 -9z m1043 -1 c-7 -7 -19 -7 -35 -1 -23 9 -22 10 11 10 23
1 31 -2 24 -9z m43 4 c-3 -3 -12 -4 -19 -1 -8 3 -5 6 6 6 11 1 17 -2 13 -5z
m511 -1 c-10 -2 -28 -2 -40 0 -13 2 -5 4 17 4 22 1 32 -1 23 -4z m112 -25 l0
-33 -80 1 c-44 0 -83 3 -87 7 -3 4 30 7 75 7 66 0 82 3 82 15 0 9 -10 15 -26
15 -14 0 -23 4 -19 10 3 6 17 10 31 10 20 0 24 -5 24 -32z m-1312 0 c-3 -20
-9 -23 -48 -24 -25 -1 -60 -2 -77 -3 -47 -2 -45 -31 1 -31 19 0 38 -5 42 -12
5 -8 -5 -9 -36 -5 -46 6 -58 16 -56 50 1 20 9 23 75 29 41 4 76 10 79 13 13
12 23 3 20 -17z m1672 2 c0 -6 -16 -8 -42 -4 -59 9 -60 14 -5 14 26 0 47 -5
47 -10z m1008 3 c126 -9 98 -23 -43 -20 -69 1 -125 5 -125 8 0 21 31 23 168
12z m-2333 -25 c7 -6 -7 -9 -40 -6 -45 3 -50 1 -53 -18 -3 -24 27 -37 64 -28
12 3 25 1 28 -5 8 -13 -15 -16 -91 -12 -20 1 -23 6 -23 45 l0 44 53 -5 c28 -3
57 -9 62 -15z m658 5 c-7 -3 -13 -11 -13 -18 0 -12 -29 -25 -57 -25 -8 0 -13
12 -13 28 0 26 1 27 48 23 26 -2 41 -6 35 -8z m109 -3 c-19 -15 -26 -17 -37
-7 -16 15 -1 27 35 27 l25 -1 -23 -19z m666 13 c-16 -2 -40 -2 -55 0 -16 2 -3
4 27 4 30 0 43 -2 28 -4z m147 -3 c7 -12 -58 -12 -95 0 -19 6 -12 8 32 9 31 1
60 -3 63 -9z m-2765 -10 c0 -6 -35 -9 -87 -8 l-88 2 70 6 c39 4 78 7 88 8 9 1
17 -2 17 -8z m3119 -6 c2 -2 -19 -4 -48 -4 -32 0 -50 4 -46 10 5 9 83 4 94 -6z
m-2669 -3 c0 -5 -12 -8 -26 -8 -18 0 -22 2 -13 8 18 11 39 11 39 0z m1018 2
c-10 -2 -26 -2 -35 0 -10 3 -2 5 17 5 19 0 27 -2 18 -5z m65 0 c-7 -2 -19 -2
-25 0 -7 3 -2 5 12 5 14 0 19 -2 13 -5z m-1713 -7 c0 -3 -4 -8 -10 -11 -5 -3
-10 -1 -10 4 0 6 5 11 10 11 6 0 10 -2 10 -4z m557 -2 c-7 -8 -87 -7 -95 0 -3
3 19 6 48 6 29 0 51 -3 47 -6z m-145 -16 c-16 -16 -15 -28 3 -28 8 0 15 -4 15
-10 0 -5 -9 -10 -20 -10 -16 0 -20 7 -20 30 0 22 5 30 17 30 13 0 14 -3 5 -12z
m2338 -8 c0 -5 -19 -9 -42 -9 -40 1 -41 2 -13 9 44 11 55 11 55 0z m106 -1
c-46 -6 -73 -6 -80 1 -7 7 16 10 70 9 l79 -2 -69 -8z m912 1 c7 0 11 -3 9 -7
-3 -5 -47 -7 -99 -7 -135 2 -148 3 -148 12 0 5 96 7 238 2z m-3769 -26 c-17
-20 -4 -42 28 -47 22 -4 20 -5 -7 -3 -33 1 -35 3 -38 38 -3 31 0 37 13 32 12
-5 13 -10 4 -20z m1001 16 c12 -8 9 -10 -12 -10 -15 0 -30 5 -33 10 -8 13 25
13 45 0z m-826 -8 c3 -5 -21 -8 -54 -8 -32 1 -56 4 -53 9 6 10 101 9 107 -1z
m1556 -20 l0 -29 -58 2 c-66 2 -82 9 -82 33 0 15 12 18 70 20 l70 3 0 -29z
m1484 14 c-7 -19 32 -39 62 -32 14 4 24 2 24 -4 0 -14 -43 -29 -77 -27 -24 2
-28 -2 -26 -20 2 -13 -2 -23 -8 -23 -10 0 -5 92 7 111 9 15 24 10 18 -5z m61
4 c3 -5 -1 -10 -9 -10 -8 0 -18 5 -21 10 -3 6 1 10 9 10 8 0 18 -4 21 -10z
m-1205 -10 c12 -8 11 -10 -7 -10 -13 0 -23 5 -23 10 0 13 11 13 30 0z m260 -2
c0 -8 -47 -12 -140 -11 -78 1 -104 5 -91 12 15 10 231 9 231 -1z m-1813 -4
c-3 -3 -12 -4 -19 -1 -8 3 -5 6 6 6 11 1 17 -2 13 -5z m1503 -4 c0 -5 -9 -10
-21 -10 -11 0 -17 5 -14 10 3 6 13 10 21 10 8 0 14 -4 14 -10z m920 -18 c0
-11 -26 -13 -122 -10 -125 3 -154 -3 -144 -28 4 -11 -7 -14 -50 -14 -54 0 -55
0 -52 27 l3 28 125 3 c69 2 126 5 127 6 1 1 27 2 58 2 39 -1 55 -5 55 -14z
m-1920 -14 c0 -6 -10 -8 -22 -4 -13 3 -39 6 -58 6 -19 0 -30 4 -23 8 16 10
103 2 103 -10z m2738 7 c11 -11 -8 -12 -115 -7 -62 2 -113 9 -113 14 0 9 219
2 228 -7z m-3578 -13 c0 -4 -18 -6 -40 -4 -22 2 -40 6 -40 8 0 2 18 4 40 4 22
0 40 -3 40 -8z m464 -24 c3 -17 6 -66 6 -109 l0 -79 -124 0 -123 0 -7 53 c-9
78 -7 155 4 159 6 2 61 4 124 5 l114 2 6 -31z m726 22 c0 -6 -26 -9 -62 -8
l-63 1 55 7 c30 4 58 7 63 8 4 1 7 -2 7 -8z m950 -7 c0 -5 -24 -8 -53 -9 -28
0 -92 -2 -142 -3 -114 -4 -139 1 -55 9 95 10 250 11 250 3z m-335 -13 c-3 -5
-13 -10 -21 -10 -8 0 -14 5 -14 10 0 6 9 10 21 10 11 0 17 -4 14 -10z m752 4
c-3 -3 -12 -4 -19 -1 -8 3 -5 6 6 6 11 1 17 -2 13 -5z m156 -1 c-13 -2 -35 -2
-50 0 -16 2 -5 4 22 4 28 0 40 -2 28 -4z m852 -24 c12 -5 -27 -7 -100 -5 -135
5 -136 5 -113 14 23 9 187 2 213 -9z m-4015 1 c-18 -12 -213 -13 -206 -1 3 4
54 9 113 10 74 1 103 -2 93 -9z m433 0 c35 0 37 -2 31 -25 -5 -20 -2 -25 12
-25 15 0 16 -2 5 -9 -11 -7 -13 -27 -7 -95 l6 -86 -99 0 c-70 0 -101 -4 -104
-12 -6 -17 -15 57 -20 164 l-5 87 52 4 c28 2 60 2 71 0 11 -1 37 -3 58 -3z
m862 -62 c4 -38 5 -71 3 -73 -5 -5 -67 -9 -125 -7 l-51 2 -4 71 c-2 39 -1 73
2 75 2 3 41 4 86 3 l82 -2 7 -69z m2271 53 c-3 -4 -20 -5 -38 -2 l-33 5 30 6
c32 7 48 3 41 -9z m-1586 -1 c0 -7 -19 -8 -52 -4 -71 9 -73 14 -5 14 33 0 57
-4 57 -10z m-377 -7 c37 -6 38 -7 35 -42 l-3 -36 -54 0 c-35 0 -56 5 -58 13
-3 8 8 12 35 12 44 0 77 25 48 36 -9 3 -32 4 -51 2 -24 -3 -35 0 -35 9 0 14
25 16 83 6z m987 -3 c0 -10 -10 -12 -50 -12 -51 0 -61 6 -20 12 69 11 70 11
70 0z m610 -5 c0 -11 -32 -13 -160 -11 -175 2 -223 12 -78 15 51 1 94 3 95 5
2 2 35 3 73 4 52 0 70 -3 70 -13z m-730 -7 c0 -8 -46 -10 -190 -10 -78 0 -82
1 -77 10 3 4 64 7 136 7 72 0 131 -3 131 -7z m1498 -17 c28 -1 52 -5 52 -10 0
-4 -17 -7 -37 -6 -21 1 -73 3 -115 4 -43 0 -78 5 -78 11 0 5 27 8 63 6 34 -2
86 -4 115 -5z m-3937 -8 c9 -49 7 -53 -28 -53 -27 0 -33 4 -31 18 2 13 -5 18
-29 20 -18 2 -33 7 -33 13 0 11 119 13 121 2z m3519 -3 c0 -6 -19 -7 -47 -3
-65 8 -67 13 -5 13 29 0 52 -4 52 -10z m-1562 -9 c6 -1 12 -5 12 -11 0 -14
-47 -12 -100 5 l-45 14 60 -4 c33 -2 66 -4 73 -4z m602 -14 c0 -8 -22 -12 -71
-13 -73 -1 -84 12 -14 18 22 2 50 4 63 5 12 2 22 -3 22 -10z m610 3 c0 -5 -15
-10 -32 -12 -59 -5 -339 3 -334 10 6 10 366 12 366 2z m-843 -15 c2 -5 -12
-10 -30 -10 -39 0 -60 -12 -53 -31 4 -11 -4 -14 -34 -14 -37 0 -40 2 -40 28 0
16 2 31 4 33 9 9 151 3 153 -6z m68 5 c17 -7 14 -9 -13 -9 -20 -1 -31 3 -27 9
7 12 13 12 40 0z m1110 -10 c14 -6 3 -9 -40 -9 -42 -1 -56 2 -45 9 18 12 58
12 85 0z m355 -11 c0 -11 -11 -11 -62 -3 -21 4 -36 9 -34 13 6 10 96 0 96 -10z
m120 1 c0 -13 -80 -13 -100 0 -11 7 2 10 43 10 31 0 57 -4 57 -10z m-1105 -17
c39 -7 39 -7 10 -13 -18 -3 -31 -12 -33 -23 -4 -18 6 -18 152 -15 l156 3 0
-46 c0 -53 -31 -395 -44 -484 -2 -16 -7 -64 -10 -105 -21 -252 -29 -302 -51
-312 -28 -12 -138 15 -179 45 -17 12 -50 29 -75 38 -54 19 -54 14 -40 219 5
74 12 185 15 245 2 61 6 128 9 150 2 22 7 96 11 165 3 69 8 128 11 133 5 9 17
9 68 0z m270 -4 c17 -2 -22 -5 -85 -8 -125 -6 -186 1 -80 9 66 5 110 5 165 -1z
m-1602 -6 c-7 -2 -19 -2 -25 0 -7 3 -2 5 12 5 14 0 19 -2 13 -5z m57 -3 c0
-13 -11 -13 -30 0 -12 8 -11 10 8 10 12 0 22 -4 22 -10z m368 -27 l3 -33 -70
0 c-40 0 -71 4 -71 10 0 5 21 8 49 5 32 -2 56 1 67 10 32 23 4 37 -64 33 -33
-1 -58 1 -55 5 3 4 35 7 71 5 l67 -3 3 -32z m592 10 c0 -10 -6 -12 -21 -8 -12
4 -46 8 -78 9 -31 2 -76 4 -101 6 -42 3 -40 4 20 9 100 9 180 2 180 -16z m940
2 l25 -15 -30 6 c-16 4 -37 10 -45 15 -12 7 -11 8 5 8 11 0 31 -6 45 -14z
m-3483 -29 c-5 -13 -23 -16 -82 -16 -72 0 -75 1 -65 20 8 15 23 20 73 22 67 3
83 -2 74 -26z m3413 25 c0 -5 -6 -11 -12 -14 -20 -7 39 -27 78 -27 28 0 35 -4
32 -17 -2 -14 -14 -18 -46 -19 -40 0 -73 -17 -59 -30 3 -3 28 -6 56 -6 l50 0
-4 -97 c-3 -53 -7 -141 -10 -196 -2 -55 -7 -183 -10 -285 -4 -102 -8 -198 -10
-215 -2 -16 -7 -85 -11 -152 l-7 -123 -36 0 c-20 0 -65 -3 -101 -6 l-66 -6 8
113 c5 63 15 170 24 239 8 69 19 166 25 215 6 50 12 106 15 125 2 19 8 85 13
145 5 61 14 148 20 195 7 47 14 104 17 128 3 27 10 42 20 42 8 0 14 -4 14 -9z
m550 -12 c0 -7 -37 -8 -102 -5 -57 3 -109 5 -115 5 -7 1 -13 4 -13 9 0 4 52 6
115 4 68 -2 115 -7 115 -13z m-2730 -11 c0 -10 -147 -11 -153 0 -3 4 30 7 74
8 43 0 79 -3 79 -8z m1305 -145 c-3 -82 -10 -200 -15 -263 -5 -63 -10 -158
-10 -210 -1 -52 -5 -124 -8 -160 -6 -60 -9 -65 -32 -68 -44 -5 -114 -25 -169
-49 -62 -27 -86 -28 -132 -9 l-34 14 4 404 c2 221 5 406 8 410 2 4 66 7 142 6
77 0 144 3 151 7 26 16 -13 29 -98 32 -48 1 -93 2 -99 3 -7 0 -13 3 -13 8 0 4
65 6 145 5 80 0 147 3 151 8 12 21 14 2 9 -138z m-962 130 c-7 -2 -19 -2 -25
0 -7 3 -2 5 12 5 14 0 19 -2 13 -5z m647 -9 c0 -2 -17 -4 -37 -3 -29 0 -33 2
-18 8 18 7 55 4 55 -5z m2205 5 c-166 -16 -185 -17 -185 -9 0 10 67 16 185 17
l80 0 -80 -8z m-3772 -6 c-7 -2 -13 -11 -13 -19 0 -11 17 -14 73 -14 50 0 67
-3 57 -10 -23 -15 -137 -13 -143 3 -7 21 5 47 22 46 10 0 11 -2 4 -6z m104 1
c-3 -3 -12 -4 -19 -1 -8 3 -5 6 6 6 11 1 17 -2 13 -5z m71 -1 c-10 -2 -26 -2
-35 0 -10 3 -2 5 17 5 19 0 27 -2 18 -5z m2995 0 c-7 -2 -19 -2 -25 0 -7 3 -2
5 12 5 14 0 19 -2 13 -5z m54 1 c-3 -3 -12 -4 -19 -1 -8 3 -5 6 6 6 11 1 17
-2 13 -5z m53 -4 c0 -5 -4 -10 -10 -10 -5 0 -10 5 -10 10 0 6 5 10 10 10 6 0
10 -4 10 -10z m-2753 -6 c-3 -3 -12 -4 -19 -1 -8 3 -5 6 6 6 11 1 17 -2 13 -5z
m50 0 c-3 -3 -12 -4 -19 -1 -8 3 -5 6 6 6 11 1 17 -2 13 -5z m-110 -10 c-3 -3
-12 -4 -19 -1 -8 3 -5 6 6 6 11 1 17 -2 13 -5z m-252 -23 c-8 -14 -55 -14 -55
0 0 5 4 7 10 4 5 -3 18 -2 27 4 20 11 28 7 18 -8z m727 -38 c2 -27 4 -127 3
-223 l0 -175 -57 -1 c-45 -1 -59 3 -61 15 -3 9 -5 108 -7 221 l-2 205 60 3 60
2 4 -47z m354 -280 c-3 -181 -5 -369 -5 -419 l-1 -91 -39 -6 c-22 -3 -53 -12
-70 -20 -26 -13 -30 -13 -35 0 -4 8 -4 18 -1 22 3 6 16 704 15 829 0 8 21 12
70 12 l71 0 -5 -327z m-702 308 c4 -5 9 -97 12 -205 l6 -196 -26 0 c-30 0 -32
5 -9 28 16 16 12 17 -58 23 -41 3 -77 4 -81 2 -5 -2 -8 6 -8 19 -1 13 -3 80
-6 149 l-6 126 32 7 c18 3 48 6 67 6 59 0 33 24 -33 31 l-59 5 55 5 c97 9 109
9 114 0z m-829 -30 c-2 -5 -37 -7 -77 -6 -40 1 -83 -1 -95 -6 -18 -7 -23 -5
-23 9 0 15 11 17 100 14 55 -2 98 -7 95 -11z m330 -10 c-49 -4 -96 -10 -102
-14 -9 -5 -13 -3 -13 7 0 14 16 16 103 14 l102 -1 -90 -6z m120 -1 c-3 -5 -11
-10 -16 -10 -6 0 -7 5 -4 10 3 6 11 10 16 10 6 0 7 -4 4 -10z m-45 -40 c0 -5
-2 -10 -4 -10 -3 0 -8 5 -11 10 -3 6 -1 10 4 10 6 0 11 -4 11 -10z m-398 -11
c-4 -4 -49 -9 -99 -13 -82 -6 -93 -5 -93 10 0 14 13 15 99 12 55 -1 97 -6 93
-9z m458 -33 c0 -7 -35 -10 -102 -8 -99 2 -145 -7 -123 -26 6 -4 57 -5 115 -2
58 3 106 5 106 5 1 0 4 -54 5 -120 l4 -120 -50 -2 c-51 -2 -49 0 23 23 8 2 10
9 5 16 -4 7 -8 18 -8 23 0 6 -43 11 -104 12 -57 2 -105 4 -106 5 -1 2 -5 49
-8 105 l-5 102 124 -1 c80 -1 124 -6 124 -12z m-1080 -16 c0 -5 -17 -10 -37
-9 -34 1 -35 2 -13 9 36 11 50 11 50 0z m110 0 c-47 -4 -89 -3 -94 1 -6 5 32
8 85 7 l94 -1 -85 -7z m433 -17 c-13 -2 -33 -2 -45 0 -13 2 -3 4 22 4 25 0 35
-2 23 -4z m97 -27 c0 -18 3 -48 7 -66 5 -29 4 -32 -11 -23 -16 9 -84 4 -168
-11 -28 -5 -28 -5 -28 45 l0 51 82 -3 c71 -4 83 -2 86 13 2 11 -5 18 -20 21
-15 3 -10 5 15 6 36 1 37 0 37 -33z m-60 -132 c0 -2 -12 -4 -27 -4 -21 0 -24
3 -14 9 13 8 41 5 41 -5z m60 6 c0 -5 -2 -10 -4 -10 -3 0 -8 5 -11 10 -3 6 -1
10 4 10 6 0 11 -4 11 -10z m-160 -14 c0 -2 -7 -6 -15 -10 -8 -3 -15 -1 -15 4
0 6 7 10 15 10 8 0 15 -2 15 -4z m400 -41 c-30 -16 -10 -23 53 -19 53 3 59 -2
20 -17 -40 -15 -15 -24 66 -23 l71 0 1 -55 c0 -31 2 -131 4 -223 3 -121 1
-170 -8 -175 -17 -11 -180 -15 -194 -6 -17 12 -54 491 -40 526 4 10 13 13 28
10 l21 -6 -22 -12z m-325 6 l40 -9 -47 -1 c-53 -1 -78 -9 -78 -23 0 -6 36 -9
94 -6 l93 3 7 -80 c4 -44 9 -150 13 -236 l6 -156 -31 -6 c-17 -4 -52 0 -78 8
-26 8 -51 12 -56 9 -16 -10 -7 -36 15 -42 l22 -6 -23 -5 c-20 -5 -31 -19 -17
-22 2 0 25 -7 50 -15 51 -15 95 -5 95 21 0 16 15 21 23 8 3 -5 6 -46 8 -93 l4
-85 -95 3 c-52 2 -96 5 -97 6 -2 1 -7 58 -13 127 -5 68 -16 203 -24 299 -21
242 -21 297 2 303 26 7 43 7 87 -2z m80 -1 c-28 -12 -37 -12 -30 0 3 6 16 10
28 9 21 0 21 -1 2 -9z m690 -30 c-28 -12 -37 -12 -30 0 3 6 16 10 28 9 21 0
21 -1 2 -9z m-18 -36 c-3 -3 -12 -4 -19 -1 -8 3 -5 6 6 6 11 1 17 -2 13 -5z
m480 -32 c9 -5 11 -60 10 -202 l-2 -194 -57 -4 -58 -4 0 80 c0 45 -2 131 -5
192 -4 110 -4 111 18 110 39 -4 67 0 66 8 -4 22 6 28 28 14z m-328 -16 c3 -2
8 -92 9 -199 l4 -196 -37 -7 c-33 -6 -123 1 -132 10 -2 2 -6 70 -8 152 -3 82
-8 173 -11 202 l-6 53 88 -6 c48 -3 90 -7 93 -9z m1228 -466 l-1 -150 -85 -1
c-47 -1 -97 -3 -111 -5 -14 -1 -55 0 -93 3 l-67 6 1 108 1 109 61 0 c46 0 77
7 117 26 30 14 82 32 115 39 33 7 61 14 62 14 1 1 1 -66 0 -149z m334 100 c44
-32 169 -73 202 -66 24 5 27 3 23 -12 -3 -9 -6 -46 -7 -82 -1 -36 -4 -70 -6
-75 -2 -7 -63 -11 -158 -12 l-155 -2 4 62 c2 34 4 97 5 141 l1 79 31 -7 c17
-3 44 -15 60 -26z m-884 -122 l-2 -133 -65 2 -65 1 -3 104 -3 103 45 14 c25 7
50 19 57 27 6 8 17 14 24 14 11 0 13 -30 12 -132z m-77 112 c0 -5 -5 -10 -11
-10 -5 0 -7 5 -4 10 3 6 8 10 11 10 2 0 4 -4 4 -10z m-1795 -10 c4 -7 -18 -8
-67 -4 -95 9 -99 14 -10 14 39 0 74 -5 77 -10z m3769 -52 c-3 -18 -7 -60 -11
-93 -9 -91 -11 -94 -88 -87 -62 4 -65 4 -65 -17 0 -23 34 -42 59 -33 9 3 12 1
8 -5 -4 -6 -1 -13 5 -16 10 -3 8 -10 -6 -26 -33 -37 -8 -23 29 17 l34 37 1
-28 c0 -16 -12 -44 -26 -63 -15 -19 -22 -34 -16 -34 5 0 13 7 16 16 4 9 9 14
13 11 3 -4 -2 -18 -12 -33 -9 -15 -12 -23 -6 -20 14 9 14 -26 2 -91 -5 -26
-15 -91 -21 -143 -6 -52 -17 -138 -25 -190 -7 -52 -16 -119 -20 -149 -3 -30
-9 -59 -11 -63 -3 -5 -7 -36 -10 -70 -2 -35 -9 -65 -16 -70 -10 -6 -10 -8 2
-9 10 0 8 -3 -5 -8 -11 -5 -30 -5 -41 0 -12 4 -25 5 -28 1 -4 -3 -4 37 -2 88
8 136 18 308 21 355 2 22 6 81 9 130 3 50 8 117 12 150 3 33 7 77 8 99 2 21
10 42 17 47 8 5 9 9 3 9 -7 0 -10 24 -9 68 4 134 2 125 32 119 47 -9 109 41
71 56 -7 3 -2 6 12 6 37 2 58 17 43 32 -10 10 -9 15 5 25 9 8 18 14 19 14 1 0
0 -15 -3 -32z m-2243 -10 c1 -18 1 -64 2 -103 l1 -70 -48 0 c-26 0 -50 4 -53
8 -3 5 -7 49 -9 97 l-4 89 32 4 c78 9 78 9 79 -25z m-691 -80 l0 -93 -97 2
c-54 1 -100 2 -103 3 -3 0 -6 37 -8 83 l-3 82 58 -3 c33 -2 75 1 94 6 60 18
59 20 59 -80z m370 0 l0 -87 -83 -3 -84 -3 -1 91 -1 90 84 0 85 -1 0 -87z
m2465 52 c4 -6 -9 -10 -32 -9 -34 1 -35 2 -13 9 35 11 38 11 45 0z m-3696
-197 c-18 -21 -35 -40 -36 -42 -2 -2 -6 -1 -9 2 -9 9 48 75 65 76 9 1 1 -14
-20 -36z m285 21 c9 -9 21 -12 28 -8 15 10 48 13 48 5 -1 -12 -62 -73 -67 -67
-4 3 4 17 17 31 13 14 19 25 13 25 -6 0 -18 -12 -28 -26 -9 -14 -19 -23 -23
-20 -3 4 0 12 6 18 17 17 15 33 -2 19 -11 -9 -13 -6 -13 14 0 29 1 30 21 9z
m-66 -21 c0 -16 -5 -34 -11 -41 -7 -9 -6 -11 4 -7 11 4 14 -9 16 -57 4 -100
23 -476 28 -558 22 -323 28 -420 23 -420 -6 0 -26 153 -34 260 -53 729 -52
704 -35 730 15 23 15 24 -2 11 -15 -12 -17 -10 -13 28 3 27 1 39 -6 34 -11 -6
-4 10 15 35 13 17 14 16 15 -15z m532 18 c0 -4 -20 -27 -45 -51 -50 -49 -59
-45 -18 9 l26 36 -25 -23 -25 -23 0 26 c0 18 4 25 13 21 7 -3 15 -2 18 2 5 9
56 12 56 3z m108 -11 c9 -4 -10 -32 -63 -93 -42 -48 -72 -87 -68 -87 5 0 27
21 50 48 22 26 52 61 66 77 15 17 27 24 27 18 0 -7 -16 -31 -36 -53 -20 -22
-32 -40 -27 -40 5 0 14 5 21 12 9 9 12 9 12 1 0 -7 -4 -15 -10 -18 -5 -3 -10
-12 -10 -18 0 -7 9 -1 20 13 12 16 15 27 8 31 -6 4 -7 12 -4 18 13 21 21 11
22 -26 9 -417 16 -668 20 -674 2 -5 2 -19 -2 -33 -5 -23 -8 -24 -67 -18 -34 3
-68 11 -75 19 -18 17 -28 17 -13 -1 8 -10 8 -16 -3 -25 -17 -14 -23 14 -31
149 -3 52 -8 138 -11 190 -3 52 -7 151 -9 219 l-2 124 41 46 c23 25 47 52 54
59 6 7 12 16 12 20 0 4 -27 -22 -60 -58 -32 -36 -59 -60 -60 -53 0 7 28 42 61
78 34 36 59 68 57 71 -3 3 -29 -22 -58 -56 -29 -33 -55 -58 -58 -55 -3 2 20
33 49 68 52 62 55 64 94 59 22 -2 46 -8 53 -12z m244 6 c5 -8 8 -7 8 2 0 6 8
12 17 12 13 0 9 -8 -15 -33 -18 -18 -32 -37 -32 -42 0 -6 16 8 36 30 20 23 45
41 60 42 13 1 24 -1 24 -5 -1 -4 -30 -38 -65 -77 l-65 -70 3 38 c2 20 -1 37
-6 37 -5 0 -2 11 7 25 13 20 13 23 2 19 -10 -4 -14 1 -13 13 1 21 27 27 39 9z
m114 -56 c-11 -14 -36 -42 -55 -62 -19 -21 -32 -40 -29 -43 3 -3 24 17 48 45
23 27 46 50 52 50 5 0 -10 -23 -34 -51 -67 -79 -77 -101 -14 -34 30 33 56 55
56 50 0 -6 -5 -16 -12 -23 -8 -8 -8 -12 -1 -12 6 0 11 -53 11 -152 1 -84 4
-225 8 -313 4 -88 6 -198 7 -245 l0 -85 -44 0 c-24 1 -65 10 -91 20 l-46 20
-3 270 c-1 148 -3 310 -3 359 -1 100 -4 95 99 209 55 61 61 65 66 45 4 -15 -1
-31 -15 -48z m254 45 c-7 -9 -15 -13 -18 -10 -3 2 1 11 8 20 7 9 15 13 18 10
3 -2 -1 -11 -8 -20z m650 -10 c-13 -14 -26 -23 -28 -20 -3 3 5 16 18 30 13 14
26 23 28 20 3 -3 -5 -16 -18 -30z m163 -19 c-21 -22 -45 -50 -53 -62 -8 -11
13 9 47 45 33 37 64 64 67 61 3 -3 -27 -41 -66 -83 -39 -43 -68 -80 -66 -83 3
-2 38 34 79 81 71 82 75 85 117 85 51 0 51 1 -26 -87 -30 -35 -49 -63 -43 -63
6 0 11 3 11 8 1 13 88 107 95 101 3 -4 0 -13 -7 -20 -29 -30 -98 -117 -98
-123 0 -3 17 13 38 36 20 24 42 49 49 56 9 10 11 -5 8 -68 -2 -44 1 -82 6 -86
6 -3 8 -13 5 -22 -3 -10 -8 -84 -11 -167 -8 -242 -17 -410 -22 -415 -2 -2 -57
-7 -121 -10 -80 -4 -128 -12 -151 -23 -62 -31 -63 -31 -58 111 3 70 5 134 6
142 1 8 1 92 0 185 0 94 0 215 1 271 2 98 3 102 35 140 18 21 37 36 41 31 4
-4 -9 -24 -29 -45 -20 -21 -37 -42 -37 -47 0 -5 20 14 45 42 44 50 46 51 96
49 28 -1 53 2 55 6 3 5 10 5 16 2 6 -4 -7 -24 -29 -48z m501 42 c7 12 56 13
56 0 0 -5 6 -6 13 -1 15 10 57 11 57 2 0 -4 -7 -12 -15 -19 -9 -7 -13 -15 -11
-18 3 -2 15 8 28 23 20 23 27 25 51 16 15 -6 27 -15 27 -20 0 -5 -20 -31 -44
-58 -24 -26 -43 -49 -41 -51 2 -2 19 14 39 35 23 24 36 32 36 22 0 -8 -13 -28
-30 -44 -16 -16 -28 -31 -25 -33 2 -2 15 9 29 24 34 39 33 14 -1 -28 -21 -25
-22 -28 -5 -14 18 15 22 16 22 4 0 -8 -9 -23 -20 -33 -11 -10 -18 -21 -15 -23
3 -3 12 3 20 14 14 18 15 17 10 -16 -2 -19 -7 -64 -10 -100 -3 -36 -7 -87 -10
-115 -7 -56 -11 -100 -21 -225 -4 -47 -8 -94 -9 -105 -1 -11 -3 -30 -4 -43 -1
-22 -3 -23 -73 -17 -40 4 -103 6 -139 6 l-66 0 4 112 c2 61 8 171 14 242 10
118 17 240 18 337 1 27 10 48 33 75 27 32 28 34 5 14 l-27 -24 0 31 c0 18 5
32 11 32 5 0 7 -6 3 -12 -6 -10 -5 -10 7 -1 18 15 62 21 70 10 4 -5 9 -5 13 1z
m-1274 -8 c0 -5 -4 -10 -9 -10 -5 0 -17 -12 -26 -27 -14 -23 -9 -20 24 11 57
56 58 41 1 -22 -46 -52 -48 -52 -46 -25 1 16 9 41 19 56 17 27 37 36 37 17z
m380 -1 c0 -3 -11 -16 -25 -29 -14 -13 -25 -28 -25 -33 0 -5 10 3 22 18 20 26
22 26 29 9 3 -10 2 -27 -3 -38 -6 -10 -6 -21 -2 -25 13 -9 16 -58 5 -66 -6 -3
-8 -12 -4 -21 3 -8 -3 -25 -13 -37 -10 -12 -12 -16 -4 -9 8 6 17 12 21 12 5 0
6 -44 4 -97 -4 -95 -5 -298 -2 -356 1 -16 11 -35 22 -44 l20 -15 -20 4 c-18 3
-20 -3 -20 -52 0 -30 4 -61 9 -67 5 -8 4 -13 -4 -13 -8 0 -10 -15 -6 -48 l5
-48 -73 -2 -73 -2 3 112 c2 62 4 241 4 397 l1 284 35 42 c44 55 44 70 -1 19
-19 -21 -34 -34 -35 -28 0 5 23 35 50 66 28 31 50 60 50 64 0 5 -21 -15 -46
-44 -57 -65 -71 -61 -19 5 l39 48 -37 -34 c-20 -19 -37 -30 -37 -24 0 6 7 16
15 23 20 17 19 31 -2 23 -10 -4 -14 -2 -10 4 7 11 127 13 127 2z m1525 -19
c-1 -16 -9 -38 -17 -48 -27 -31 -33 -48 -10 -28 12 11 22 14 22 9 0 -6 -7 -16
-15 -23 -8 -7 -15 -17 -15 -22 0 -6 7 -5 15 2 22 18 20 -8 -2 -32 -16 -18 -16
-18 1 -12 18 7 18 6 0 -22 -11 -16 -13 -25 -6 -20 11 7 13 -16 8 -125 -3 -74
-8 -199 -11 -279 -5 -164 -14 -281 -22 -293 -3 -5 -15 0 -27 11 -11 11 -34 22
-51 26 -83 19 -132 26 -151 21 -21 -5 -21 -4 -8 88 12 92 17 138 34 322 5 55
16 145 25 200 8 55 15 117 15 137 0 22 7 44 18 55 10 10 24 26 31 36 12 15 12
17 -2 11 -8 -3 -18 -12 -21 -20 -3 -8 -10 -14 -16 -14 -7 0 -8 6 -1 19 6 10 9
20 6 22 -2 2 43 5 100 7 l103 3 -3 -31z m320 11 c-3 -6 -11 -11 -17 -11 -6 0
-6 6 2 15 14 17 26 13 15 -4z m-2190 -66 c-1 -30 1 -55 4 -55 5 0 6 -265 2
-565 -1 -38 0 -113 2 -165 2 -85 0 -95 -15 -94 -10 1 -15 -2 -12 -7 6 -11 -3
-11 -45 -3 -24 5 -31 12 -31 30 0 27 9 30 30 12 8 -7 5 -2 -7 12 -21 25 -22
31 -22 365 l-1 340 46 53 c26 29 44 55 41 58 -2 3 -22 -15 -42 -40 -21 -26
-42 -46 -47 -46 -6 0 10 24 34 53 61 71 71 94 14 32 -25 -27 -45 -46 -46 -42
0 15 75 107 96 117 0 0 0 -25 -1 -55z m-1087 1 c-10 -23 -38 -44 -38 -29 0 7
41 53 47 53 1 0 -2 -11 -9 -24z m1583 -30 c-6 -7 -8 -21 -5 -32 3 -12 -1 -26
-10 -33 -13 -11 -16 -11 -16 1 0 8 6 20 13 27 10 11 10 13 0 7 -8 -4 -13 -2
-13 6 0 8 6 20 13 27 10 10 8 11 -7 5 -15 -6 -17 -4 -11 7 22 38 29 41 37 19
5 -13 4 -28 -1 -34z m1115 -28 c-3 -29 -9 -78 -11 -108 -3 -30 -10 -84 -15
-120 -10 -73 -29 -229 -37 -305 -2 -27 -8 -79 -12 -115 -5 -36 -8 -82 -7 -103
1 -20 -2 -37 -5 -37 -3 0 -12 -45 -19 -100 -12 -97 -24 -128 -36 -95 -4 8 -1
66 5 128 6 61 22 234 36 382 42 446 43 454 73 492 15 18 29 33 31 33 2 0 0
-24 -3 -52z m-3406 2 c0 -5 -5 -10 -11 -10 -5 0 -7 5 -4 10 3 6 8 10 11 10 2
0 4 -4 4 -10z m2285 -417 c-9 -470 -9 -491 -18 -499 -8 -8 -8 42 -7 496 1 228
4 318 13 329 9 12 9 13 0 7 -17 -9 -17 16 -1 32 7 7 14 12 16 12 3 0 1 -170
-3 -377z m757 -314 c53 0 77 -4 90 -16 24 -22 23 -42 -4 -52 -29 -11 -35 -6
-18 14 11 13 7 15 -28 15 -23 0 -51 -4 -64 -9 -13 -5 -41 -14 -63 -20 -22 -5
-50 -13 -63 -17 -22 -5 -23 -3 -20 38 3 42 4 43 43 48 22 3 43 4 48 2 4 -2 40
-3 79 -3z m28 -79 c-8 -5 -24 -10 -35 -10 -17 0 -17 2 -5 10 8 5 24 10 35 10
17 0 17 -2 5 -10z m316 -21 c4 -8 9 -8 17 0 15 15 23 14 42 -5 11 -12 37 -17
86 -18 83 -2 89 -8 83 -85 -3 -31 -6 -71 -8 -90 -2 -25 -9 -37 -24 -42 -24 -9
-25 -10 -16 -33 3 -9 17 -16 31 -16 15 0 33 -10 45 -25 25 -32 55 -33 60 -3 2
13 11 24 20 26 15 3 12 -8 -16 -60 -29 -53 -34 -71 -31 -118 2 -40 -1 -57 -13
-66 -18 -13 -7 -36 16 -32 12 2 18 -5 20 -27 2 -20 0 -26 -6 -17 -7 11 -12 10
-26 -4 -12 -12 -14 -20 -7 -27 6 -6 11 -20 11 -30 0 -11 8 -25 17 -32 15 -11
15 -16 3 -45 -15 -36 -15 -36 -40 32 -13 38 -45 28 -34 -11 11 -45 13 -75 4
-90 -6 -11 -10 -2 -15 31 -5 33 -12 48 -26 51 -28 7 -45 -18 -25 -38 16 -16
16 -58 0 -142 -7 -35 -66 -103 -89 -103 -20 0 -26 40 -7 41 26 1 53 7 59 12
12 13 15 88 4 101 -21 26 -40 8 -38 -36 2 -37 -1 -42 -25 -49 -24 -6 -30 -3
-46 25 -36 60 -212 176 -268 176 -12 0 -28 9 -35 20 -20 29 -105 43 -183 30
-33 -5 -69 -10 -80 -10 -32 0 1 29 48 41 72 19 106 40 106 66 0 14 -6 23 -15
23 -21 0 -19 23 5 50 23 26 25 36 9 45 -23 15 -69 -46 -79 -105 -3 -19 -10
-34 -15 -34 -23 4 -83 -38 -131 -90 -52 -54 -64 -59 -64 -24 0 11 -7 18 -20
18 -22 0 -28 -28 -9 -47 7 -7 1 -14 -22 -22 -17 -6 -33 -11 -35 -11 -2 0 -1
14 3 30 3 17 1 30 -4 30 -17 0 -44 -37 -41 -55 2 -10 -3 -20 -9 -22 -8 -3 -13
5 -13 22 0 22 -4 26 -22 23 -15 -2 -22 -9 -20 -19 1 -9 -5 -22 -14 -30 -22
-18 -36 6 -23 39 6 16 6 29 0 35 -14 14 -41 -10 -41 -37 0 -30 -15 -50 -33
-43 -10 4 -13 16 -10 41 4 38 -15 51 -24 17 -5 -21 -33 -37 -33 -20 0 7 -10 5
-24 -5 -14 -8 -26 -11 -28 -6 -5 16 -76 -11 -81 -31 -7 -24 -39 -25 -35 -1 2
14 -5 17 -42 17 -42 0 -46 -2 -55 -33 -10 -35 -31 -38 -28 -4 3 23 -21 47 -37
37 -5 -3 -10 -20 -10 -36 0 -41 -24 -33 -28 8 -4 39 -29 51 -41 20 -9 -22 -9
-21 -16 6 -8 31 -34 36 -42 7 -3 -11 -9 -20 -14 -20 -17 0 -9 32 16 64 14 17
29 36 33 41 5 6 17 24 28 40 10 17 35 50 55 75 20 25 44 60 53 77 9 18 49 66
89 105 99 98 195 165 262 182 14 4 25 13 25 21 0 20 13 25 88 36 37 5 84 18
105 29 20 11 38 19 38 17 1 -1 3 -15 5 -32 3 -25 -4 -37 -41 -71 -25 -22 -45
-46 -45 -52 0 -7 -7 -12 -16 -12 -9 0 -14 -7 -12 -17 2 -10 -3 -23 -11 -29
-16 -12 -7 -34 15 -34 8 0 14 9 14 20 0 11 5 20 10 20 6 0 20 11 31 24 12 14
27 22 34 20 7 -3 16 -1 19 4 3 6 31 8 65 5 33 -3 73 0 94 6 32 11 36 16 42 59
3 27 5 52 4 58 -1 5 -1 32 0 60 1 47 3 52 24 52 12 0 47 8 77 17 30 8 75 20
100 25 25 5 53 12 63 15 15 6 17 -1 17 -73 0 -62 -3 -81 -15 -86 -9 -3 -15
-19 -15 -41 0 -24 4 -35 15 -35 23 0 30 4 27 17 -3 14 32 26 56 19 34 -11 88
-14 101 -6 9 5 23 -3 43 -26 17 -19 34 -31 40 -28 5 3 23 -7 39 -22 25 -24 31
-26 39 -14 15 23 12 30 -20 48 -17 9 -33 27 -36 39 -4 14 -19 26 -40 33 l-35
12 7 81 c3 45 8 85 11 90 6 10 21 9 29 -4z m484 -19 c0 -5 -5 -10 -11 -10 -5
0 -7 5 -4 10 3 6 8 10 11 10 2 0 4 -4 4 -10z m270 -10 c0 -5 -5 -10 -11 -10
-5 0 -7 5 -4 10 3 6 8 10 11 10 2 0 4 -4 4 -10z m40 0 c0 -5 -7 -10 -15 -10
-8 0 -15 5 -15 10 0 6 7 10 15 10 8 0 15 -4 15 -10z m-300 -33 c0 -8 -17 -12
-45 -12 -31 0 -45 4 -45 14 0 9 8 12 24 9 14 -3 30 -1 37 3 15 9 29 3 29 -14z
m-2966 -54 c3 -24 1 -45 -5 -48 -5 -4 -9 16 -9 46 0 61 7 62 14 2z m2796 27
c0 -5 -4 -10 -10 -10 -5 0 -10 5 -10 10 0 6 5 10 10 10 6 0 10 -4 10 -10z
m156 -52 c-3 -29 -5 -64 -6 -77 0 -33 -12 -19 -17 19 -1 17 -9 46 -17 65 -15
36 -16 35 37 44 5 0 6 -23 3 -51z m363 -12 c-2 -3 -28 -7 -56 -10 -51 -4 -81
-19 -136 -63 -16 -13 -33 -23 -39 -23 -11 0 31 36 87 73 31 21 52 27 94 27 30
0 52 -2 50 -4z m-430 -84 c1 -20 -3 -31 -9 -27 -6 4 -8 10 -5 15 3 5 1 19 -3
32 -5 12 -7 30 -4 38 7 21 20 -15 21 -58z m-2879 48 c0 -5 -5 -10 -11 -10 -5
0 -7 5 -4 10 3 6 8 10 11 10 2 0 4 -4 4 -10z m3380 -30 c12 -7 21 -7 25 0 10
17 33 11 40 -10 7 -24 23 -26 39 -5 10 12 14 12 31 -3 55 -46 90 -138 67 -178
-9 -16 -11 -11 -10 23 0 51 -8 68 -27 53 -9 -7 -12 -23 -8 -46 5 -27 2 -34
-11 -34 -9 0 -19 -8 -23 -17 -3 -10 -13 -26 -21 -35 -8 -10 -12 -24 -9 -33 4
-9 1 -15 -7 -15 -8 0 -17 -6 -19 -12 -3 -8 -6 -5 -6 5 -1 13 -7 17 -23 15 -16
-2 -22 -9 -20 -21 3 -14 -1 -17 -15 -13 -10 3 -36 -3 -58 -14 -46 -23 -57 -20
-20 7 14 10 46 32 69 49 30 22 48 29 57 23 22 -14 26 -11 34 19 3 15 13 35 22
44 9 10 16 38 17 70 1 45 -2 53 -16 52 -10 -1 -18 5 -18 12 0 20 -30 30 -40
14 -7 -11 -12 -11 -26 1 -9 8 -26 12 -37 11 -14 -3 -18 0 -14 11 10 26 -19 39
-77 35 -52 -3 -65 5 -21 14 25 5 99 -8 125 -22z m-146 -35 c-9 -23 24 -37 81
-33 30 1 55 2 55 1 0 -1 3 -9 6 -17 4 -12 2 -15 -9 -10 -10 3 -20 -2 -27 -15
-17 -34 -88 -63 -159 -66 -42 -2 -60 0 -50 6 8 5 37 9 65 9 37 0 54 4 58 15 3
8 2 15 -2 16 -4 0 -17 2 -29 3 -49 6 -161 -16 -208 -41 l-50 -25 24 26 c14 14
32 26 42 26 10 0 20 4 23 9 8 13 84 51 102 51 8 0 17 7 19 15 3 8 7 21 9 28 2
6 15 13 29 13 16 1 24 -3 21 -11z m-142 -26 c-4 -4 -18 -10 -31 -14 -21 -6
-22 -5 -10 8 8 8 22 15 31 14 10 -1 14 -4 10 -8z m336 -39 c-1 -31 -34 -72
-73 -92 -12 -6 -6 5 16 28 20 22 39 51 43 67 8 36 15 34 14 -3z m-503 -49
c-35 -49 -49 -90 -39 -115 3 -8 12 -12 19 -10 21 8 27 -14 14 -51 -11 -30 -10
-37 5 -54 29 -32 8 -58 -48 -56 -25 0 -47 3 -50 6 -3 3 -8 28 -11 55 -3 27 -8
63 -12 79 -11 51 -5 96 16 119 12 12 21 30 21 39 0 22 21 32 73 33 l45 1 -33
-46z m549 22 c-8 -31 -45 -86 -52 -78 -3 3 2 13 11 23 9 10 20 33 23 50 4 18
11 32 15 32 5 0 6 -12 3 -27z m-300 -94 c-3 -5 -15 -7 -27 -5 -12 2 -34 -3
-49 -10 -37 -19 -44 -17 -24 5 18 20 56 30 88 23 10 -3 15 -8 12 -13z m206 -4
c-7 -8 -17 -15 -23 -15 -5 0 -2 9 8 20 21 23 35 19 15 -5z m200 -4 c0 -6 -4
-12 -9 -15 -5 -3 -18 -22 -30 -41 -19 -32 -19 -36 -4 -42 10 -4 22 1 30 13 14
18 15 18 8 -6 -4 -14 -8 -25 -9 -26 0 0 -15 -8 -32 -16 l-32 -15 5 40 c2 23
15 53 29 70 13 16 24 33 24 38 0 5 5 9 10 9 6 0 10 -4 10 -9z m-297 -8 c-7 -2
-19 -2 -25 0 -7 3 -2 5 12 5 14 0 19 -2 13 -5z m-123 -37 c0 -3 -4 -8 -10 -11
-5 -3 -10 -1 -10 4 0 6 5 11 10 11 6 0 10 -2 10 -4z m-160 -13 c-1 -13 -40
-56 -45 -51 -3 3 4 17 16 31 21 27 29 33 29 20z m98 -15 c-29 -29 -89 -70 -95
-65 -8 9 50 67 67 67 10 0 22 5 25 10 3 6 10 10 16 10 5 0 -1 -10 -13 -22z
m287 -78 c-9 -10 -22 -16 -29 -14 -7 3 -19 -2 -26 -11 -13 -16 -30 -20 -30 -7
0 4 20 18 45 30 25 12 45 27 46 34 0 10 2 10 6 0 3 -7 -3 -22 -12 -32z m-121
5 c-7 -17 -35 -35 -55 -35 -6 0 0 11 15 25 30 28 48 33 40 10z m368 -65 c-12
-34 -65 -95 -97 -112 -11 -6 -1 8 23 32 23 23 42 49 42 57 0 17 31 66 38 59 2
-3 -1 -19 -6 -36z m-65 -4 c-7 -15 -16 -21 -21 -16 -6 6 -4 15 4 25 19 23 29
18 17 -9z m-497 0 c0 -2 -8 -10 -17 -17 -16 -13 -17 -12 -4 4 13 16 21 21 21
13z m261 -40 c-18 -21 -191 -50 -178 -29 3 5 25 10 49 11 46 3 107 19 122 33
15 13 20 1 7 -15z m-452 -21 c2 -11 8 -23 15 -27 7 -5 5 -8 -5 -8 -9 0 -27 -9
-40 -20 -22 -20 -24 -20 -30 -3 -3 10 -4 32 -2 50 4 27 9 31 31 30 18 -2 28
-9 31 -22z m631 -10 c-13 -14 -27 -25 -32 -25 -15 0 26 49 41 50 10 0 7 -8 -9
-25z m-544 -20 c-3 -9 -11 -13 -16 -10 -8 5 -7 11 1 21 14 18 24 11 15 -11z
m-917 1 c9 -8 53 -19 99 -25 45 -6 94 -17 109 -25 l28 -14 -36 -17 c-20 -9
-46 -34 -58 -54 -13 -20 -50 -54 -82 -75 -38 -24 -59 -45 -59 -57 0 -26 32
-25 56 2 10 12 35 30 55 40 21 10 47 34 59 54 12 19 35 42 51 50 16 9 29 22
29 30 0 23 23 18 60 -15 26 -21 30 -29 18 -30 -10 0 -22 -10 -29 -22 -6 -13
-25 -38 -42 -56 -24 -24 -28 -35 -19 -44 19 -19 61 11 91 64 14 26 31 46 36
45 11 -4 65 -80 61 -85 -8 -7 -36 12 -36 24 0 26 -29 14 -54 -22 -13 -20 -33
-42 -45 -50 -25 -18 -28 -44 -5 -44 9 0 34 14 55 31 48 38 74 35 74 -6 0 -20
-6 -31 -17 -33 -13 -2 -18 3 -18 17 0 31 -15 26 -66 -21 -42 -38 -51 -43 -102
-44 -51 -2 -60 -6 -82 -35 -75 -97 -98 -114 -195 -154 -103 -41 -135 -63 -135
-89 0 -10 -16 -23 -40 -32 -32 -13 -40 -21 -41 -43 -1 -24 -1 -24 -10 7 -8 28
-13 32 -32 26 -12 -4 -39 -7 -60 -7 -33 0 -38 -3 -34 -18 3 -12 0 -19 -10 -19
-8 0 -17 9 -20 20 -4 15 -11 18 -29 14 -12 -3 -29 -2 -36 3 -9 5 2 10 32 15
105 17 120 21 126 30 3 5 -2 16 -12 24 -17 13 -17 15 -3 27 11 8 14 23 11 50
-3 28 0 41 13 51 13 9 18 29 19 79 1 64 0 67 -34 97 -19 17 -46 35 -59 40 -23
10 -23 10 15 41 22 17 44 34 49 37 6 4 27 28 48 55 21 26 45 47 52 47 8 0 12
6 9 14 -10 25 -51 1 -118 -68 -51 -53 -130 -105 -142 -93 -2 2 19 20 46 40 27
20 56 51 65 69 17 37 107 98 142 98 12 0 29 10 37 22 11 16 33 24 88 33 100
17 109 17 127 1z m1316 -25 c-15 -14 -108 -30 -123 -22 -9 5 -1 8 20 9 19 1
45 6 59 11 31 13 56 14 44 2z m-150 -21 c3 -6 -1 -7 -9 -4 -18 7 -21 14 -7 14
6 0 13 -4 16 -10z m-1875 -20 c0 -5 -2 -10 -4 -10 -3 0 -8 5 -11 10 -3 6 -1
10 4 10 6 0 11 -4 11 -10z m1549 -33 c26 4 38 1 47 -12 11 -14 16 -16 28 -6
10 8 15 9 18 1 2 -8 12 -8 33 1 36 14 47 15 100 4 l40 -8 -35 -12 c-64 -22
-152 -27 -204 -11 -43 13 -53 13 -77 0 -15 -7 -35 -14 -43 -14 -8 0 -23 -10
-33 -23 -17 -21 -63 -47 -84 -47 -6 0 10 24 37 53 26 28 53 67 61 85 l14 33
32 -25 c24 -18 40 -23 66 -19z m-1679 3 c0 -5 -5 -10 -11 -10 -5 0 -7 5 -4 10
3 6 8 10 11 10 2 0 4 -4 4 -10z m1483 -35 c-7 -21 -13 -19 -13 6 0 11 4 18 10
14 5 -3 7 -12 3 -20z m96 -118 c-8 -7 -73 -17 -66 -11 17 17 53 30 61 23 5 -5
8 -10 5 -12z m-84 -17 c-3 -5 -18 -9 -33 -9 l-27 1 30 8 c17 4 31 8 33 9 2 0
0 -3 -3 -9z m-2755 -21 c0 -5 -15 -9 -32 -9 -31 1 -32 2 -15 15 19 14 47 10
47 -6z m2670 11 c0 -5 -5 -10 -11 -10 -5 0 -7 5 -4 10 3 6 8 10 11 10 2 0 4
-4 4 -10z m-1081 -43 c-11 -8 -14 -18 -8 -32 12 -31 11 -35 -15 -35 -27 0 -45
-18 -24 -24 52 -14 96 -22 106 -18 20 6 14 50 -8 57 -23 7 -27 25 -6 25 8 0
20 2 28 5 14 6 78 -47 78 -64 0 -6 -7 -11 -15 -11 -21 0 -19 -19 3 -28 12 -5
6 -8 -23 -12 -37 -5 -40 -7 -40 -37 0 -18 -3 -33 -7 -33 -5 0 -8 -11 -8 -25 0
-19 5 -25 21 -25 19 0 21 -4 15 -32 -8 -42 -12 -45 -70 -54 -45 -6 -49 -5 -42
11 10 27 -3 55 -25 55 -20 0 -20 -7 -2 -57 3 -8 -3 -13 -16 -13 -16 0 -21 6
-21 28 0 15 -4 33 -9 41 -14 21 -31 3 -31 -32 l0 -32 -25 32 c-18 22 -31 30
-45 26 -14 -4 -20 0 -20 11 0 18 -35 22 -45 6 -4 -6 -1 -18 6 -26 6 -8 9 -17
6 -21 -4 -3 -3 -11 3 -18 5 -7 6 -23 1 -41 l-9 -29 -22 48 c-17 39 -20 58 -15
98 6 41 4 49 -9 49 -10 0 -16 9 -16 23 0 20 11 29 66 52 38 16 84 46 108 69
23 23 57 48 76 55 19 7 42 16 50 21 21 11 28 1 9 -13z m1035 -13 c11 -28 6
-34 -21 -28 -42 10 -46 15 -26 30 24 18 40 17 47 -2z m-144 -43 c0 -22 -25
-45 -40 -36 -5 3 -10 14 -9 23 0 11 3 12 6 5 8 -22 23 -14 23 13 0 14 4 23 10
19 6 -3 10 -14 10 -24z m186 -14 c50 1 110 4 132 7 23 2 42 1 42 -4 0 -4 -11
-28 -25 -53 -31 -55 -67 -65 -134 -36 -75 33 -144 22 -122 -19 8 -16 8 -23 -1
-28 -14 -9 -168 -19 -168 -11 0 3 15 15 33 26 49 30 70 52 91 94 17 32 23 37
40 30 12 -4 62 -7 112 -6z m-1988 -50 c9 -7 9 -13 1 -23 -13 -16 -39 -19 -39
-4 0 5 -11 12 -25 16 -14 3 -25 13 -25 21 0 11 8 12 38 7 20 -4 43 -11 50 -17z
m127 12 c17 1 47 4 68 7 34 5 40 2 84 -42 25 -26 55 -49 66 -49 35 -3 72 -64
48 -79 -4 -3 -6 -17 -4 -30 4 -20 0 -25 -18 -28 -18 -2 -23 -9 -22 -26 2 -16
-1 -21 -9 -16 -7 5 -99 9 -205 10 -138 1 -197 5 -208 14 -18 15 -19 65 -1 105
11 25 15 27 21 13 4 -10 2 -31 -3 -47 -19 -53 18 -64 118 -35 121 34 132 35
172 7 38 -26 68 -25 68 1 0 8 -5 16 -12 18 -7 3 -12 17 -13 33 0 23 -6 30 -33
39 -21 7 -38 23 -50 45 -14 29 -23 35 -57 38 -60 5 -85 12 -85 24 0 7 9 9 23
4 12 -4 36 -6 52 -6z m1596 -42 c-20 -18 -23 -19 -17 -4 3 10 6 28 6 40 0 20
1 20 17 4 16 -16 16 -18 -6 -40z m-67 37 c25 -10 19 -22 -9 -16 -30 5 -31 -1
-4 -40 12 -16 18 -32 14 -36 -4 -4 -10 -1 -13 7 -6 18 -36 47 -53 53 -12 4
-12 7 0 21 14 18 38 21 65 11z m-1776 -34 c17 -11 32 -27 32 -35 0 -12 -7 -11
-37 8 -35 22 -54 47 -36 47 4 0 23 -9 41 -20z m163 -51 c-13 -11 -27 -17 -30
-13 -3 3 5 14 18 25 13 11 27 17 30 13 3 -3 -5 -14 -18 -25z m105 -51 c-12 -3
-36 -6 -54 -7 -18 -1 -43 -6 -55 -12 -36 -18 -7 8 49 45 l49 32 16 -26 c15
-24 15 -25 -5 -32z m1415 30 c9 -19 9 -21 -2 -10 -24 22 -39 14 -39 -23 0 -40
-3 -42 -29 -16 -18 18 -18 19 7 45 32 32 48 33 63 4z m-1096 -70 c5 -35 15
-57 37 -78 19 -20 24 -30 15 -30 -8 0 -17 7 -21 15 -8 22 -43 18 -68 -7 -19
-19 -21 -19 -14 -2 19 47 26 81 20 106 -3 15 -2 37 1 49 10 30 22 8 30 -53z
m70 62 c-3 -5 -11 -10 -16 -10 -6 0 -7 5 -4 10 3 6 11 10 16 10 6 0 7 -4 4
-10z m48 -50 c-4 -24 1 -54 11 -80 17 -44 7 -55 -14 -15 -8 14 -25 31 -39 38
-14 7 -27 21 -29 32 -3 19 -2 19 11 3 22 -28 37 -21 37 15 0 19 3 37 7 40 15
16 21 5 16 -33z m880 -14 c19 -29 2 -57 -18 -29 -16 22 -47 10 -38 -14 6 -16
5 -16 -10 -5 -23 19 -37 6 -30 -28 4 -23 2 -30 -10 -30 -10 0 -14 6 -11 15 4
8 1 15 -5 15 -6 0 -11 16 -11 35 0 41 31 65 56 44 12 -10 18 -9 32 4 22 22 27
21 45 -7z m-699 -66 c18 0 26 -23 15 -41 -11 -19 -43 0 -45 27 -1 10 -5 28 -9
39 -6 17 -5 17 9 -2 10 -13 23 -23 30 -23z m526 9 c-13 -24 -43 -22 -48 4 -3
13 3 17 28 17 28 0 30 -2 20 -21z m14 -60 c-3 -5 -10 -7 -15 -3 -5 3 -7 10 -3
15 3 5 10 7 15 3 5 -3 7 -10 3 -15z M2410 8628 l30 -32 24 23 c33 31 25 41
-34 41 l-49 0 29 -32z M2395 6950 c3 -5 8 -10 11 -10 2 0 4 5 4 10 0 6 -5 10
-11 10 -5 0 -7 -4 -4 -10z M4025 6650 c-3 -5 -1 -10 4 -10 6 0 11 5 11 10 0 6
-2 10 -4 10 -3 0 -8 -4 -11 -10z M4030 6181 c0 -6 -15 -11 -34 -11 -40 0 -66
-8 -66 -21 0 -13 91 -11 119 4 31 16 32 31 4 35 -13 2 -23 -1 -23 -7z M665
6040 c3 -5 8 -10 11 -10 2 0 4 5 4 10 0 6 -5 10 -11 10 -5 0 -7 -4 -4 -10z
M4060 5910 c0 -5 5 -10 10 -10 6 0 10 5 10 10 0 6 -4 10 -10 10 -5 0 -10 -4
-10 -10z M2059 3253 c-13 -16 -12 -17 4 -4 9 7 17 15 17 17 0 8 -8 3 -21 -13z
M3622 3474 c4 -24 68 -46 123 -42 55 4 55 30 0 40 -135 22 -127 22 -123 2z
M4014 3238 c1 -25 2 -25 19 -11 21 19 22 27 3 20 -8 -3 -17 -1 -19 6 -2 7 -4
0 -3 -15z M4030 3198 l-23 -33 28 27 c16 15 26 30 23 33 -3 4 -16 -9 -28 -27z
M4100 3198 l-23 -33 28 27 c16 15 26 30 23 33 -3 4 -16 -9 -28 -27z M4028
3156 c-10 -7 -18 -16 -18 -19 0 -12 28 4 34 19 6 17 6 17 -16 0z M1180 3250
c-8 -5 -12 -12 -9 -15 4 -3 12 1 19 10 14 17 11 19 -10 5z M1142 3168 c-50
-58 -76 -95 -69 -100 8 -5 8 -10 0 -20 -8 -9 -7 -16 2 -25 8 -7 16 -9 20 -4 3
5 -1 11 -7 14 -10 3 -10 7 0 19 10 13 10 17 0 20 -8 3 17 38 66 92 43 48 76
89 74 92 -3 2 -42 -37 -86 -88z M1219 3093 c-13 -16 -12 -17 4 -4 9 7 17 15
17 17 0 8 -8 3 -21 -13z M1140 3081 c0 -6 4 -13 10 -16 6 -3 7 1 4 9 -7 18
-14 21 -14 7z M1155 2990 c3 -5 8 -10 11 -10 2 0 4 5 4 10 0 6 -5 10 -11 10
-5 0 -7 -4 -4 -10z M1080 2950 c0 -5 5 -10 11 -10 5 0 7 5 4 10 -3 6 -8 10
-11 10 -2 0 -4 -4 -4 -10z M1144 2750 c0 -13 4 -16 10 -10 7 7 7 13 0 20 -6 6
-10 3 -10 -10z M1209 2693 c-13 -16 -12 -17 4 -4 9 7 17 15 17 17 0 8 -8 3
-21 -13z M1090 2559 c0 -5 5 -7 10 -4 6 3 10 8 10 11 0 2 -4 4 -10 4 -5 0 -10
-5 -10 -11z M1500 3215 c-24 -25 -40 -45 -35 -44 10 1 92 89 83 89 -2 0 -24
-20 -48 -45z M1541 3184 c-28 -30 -51 -60 -51 -65 0 -5 14 7 32 28 17 21 43
50 57 66 14 15 22 27 19 27 -3 0 -29 -25 -57 -56z M1460 3089 c0 -5 5 -7 10
-4 6 3 10 8 10 11 0 2 -4 4 -10 4 -5 0 -10 -5 -10 -11z M1527 3053 c-4 -3 -7
-11 -7 -17 0 -6 5 -5 12 2 6 6 9 14 7 17 -3 3 -9 2 -12 -2z M1525 2929 c-4 -6
-5 -12 -2 -15 2 -3 7 2 10 11 7 17 1 20 -8 4z M1545 2909 c-4 -6 -5 -12 -2
-15 2 -3 7 2 10 11 7 17 1 20 -8 4z M1494 2819 c0 -13 3 -15 13 -7 7 6 13 12
13 13 0 2 -6 5 -13 8 -7 3 -13 -3 -13 -14z M1580 2826 c0 -2 7 -7 16 -10 8 -3
12 -2 9 4 -6 10 -25 14 -25 6z M1576 2783 c-6 -14 -5 -15 5 -6 7 7 10 15 7 18
-3 3 -9 -2 -12 -12z M1470 2746 c0 -2 7 -7 16 -10 8 -3 12 -2 9 4 -6 10 -25
14 -25 6z M1590 2599 c0 -5 5 -7 10 -4 6 3 10 8 10 11 0 2 -4 4 -10 4 -5 0
-10 -5 -10 -11z M1590 2570 c0 -5 5 -10 11 -10 5 0 7 5 4 10 -3 6 -8 10 -11
10 -2 0 -4 -4 -4 -10z M1556 2536 c3 -8 13 -17 22 -21 13 -5 13 -2 -3 15 -21
24 -26 25 -19 6z M2536 3205 c-26 -30 -44 -55 -39 -54 12 2 97 98 91 104 -3 3
-26 -19 -52 -50z M2589 3223 c-81 -89 -103 -115 -88 -107 15 8 134 144 127
144 -2 0 -20 -17 -39 -37z M2625 3228 c-55 -64 -58 -72 -10 -26 27 26 47 50
44 53 -3 3 -18 -10 -34 -27z M2720 3218 c-36 -42 -54 -68 -47 -68 3 0 26 25
52 55 25 30 43 55 38 54 -4 0 -24 -19 -43 -41z M2751 3210 c-23 -27 -39 -50
-34 -49 12 1 87 89 81 94 -3 3 -24 -17 -47 -45z M2620 3105 c-7 -8 -8 -15 -2
-15 5 0 15 7 22 15 7 8 8 15 2 15 -5 0 -15 -7 -22 -15z M2729 3063 c-13 -16
-12 -17 4 -4 16 13 21 21 13 21 -2 0 -10 -8 -17 -17z M2600 3039 c0 -5 5 -7
10 -4 6 3 10 8 10 11 0 2 -4 4 -10 4 -5 0 -10 -5 -10 -11z M2535 3027 c-23
-27 -23 -33 3 -31 14 0 27 6 28 13 1 6 0 7 -3 1 -7 -15 -23 -1 -16 15 6 18 2
19 -12 2z M3235 3250 c-10 -11 -13 -20 -8 -20 13 0 38 29 31 35 -3 3 -13 -4
-23 -15z M3170 3250 c-8 -5 -12 -12 -9 -15 4 -3 12 1 19 10 14 17 11 19 -10 5z
M3320 3225 c-19 -19 -29 -35 -23 -35 6 0 23 16 37 35 15 19 25 35 23 35 -1 0
-18 -16 -37 -35z M3113 3228 c-31 -35 -40 -56 -14 -33 21 18 46 55 38 55 -2 0
-13 -10 -24 -22z M3267 3204 c-16 -19 -25 -34 -20 -33 4 0 21 16 36 35 16 19
25 34 20 33 -4 0 -21 -16 -36 -35z M3235 3210 c-3 -5 -1 -10 4 -10 6 0 11 5
11 10 0 6 -2 10 -4 10 -3 0 -8 -4 -11 -10z M3112 3187 c-12 -13 -22 -27 -22
-33 0 -5 12 4 26 19 14 16 24 30 22 33 -3 2 -14 -6 -26 -19z M3262 3160 c-7
-11 -9 -20 -4 -20 4 0 13 9 20 20 7 11 9 20 4 20 -4 0 -13 -9 -20 -20z M3200
3160 c0 -5 5 -10 10 -10 6 0 10 5 10 10 0 6 -4 10 -10 10 -5 0 -10 -4 -10 -10z
M3105 3140 c-3 -5 -1 -10 4 -10 6 0 11 5 11 10 0 6 -2 10 -4 10 -3 0 -8 -4
-11 -10z M3115 2799 c-4 -6 -5 -12 -2 -15 2 -3 7 2 10 11 7 17 1 20 -8 4z
M3151 2763 c-7 -8 -11 -16 -8 -19 2 -2 10 2 17 11 17 20 9 27 -9 8z M2226
3170 c-20 -22 -33 -40 -28 -40 8 0 33 25 61 63 24 31 5 18 -33 -23z M2230
3135 c-13 -14 -20 -25 -15 -25 7 0 45 39 45 47 0 7 -8 2 -30 -22z M2245 3110
c-10 -11 -13 -20 -7 -20 6 0 16 9 22 20 6 11 9 20 7 20 -2 0 -12 -9 -22 -20z
M2240 3065 c-7 -9 -8 -15 -2 -15 5 0 12 7 16 15 3 8 4 15 2 15 -2 0 -9 -7 -16
-15z M3645 3240 c-10 -11 -16 -22 -13 -25 3 -3 13 4 23 15 10 11 16 22 13 25
-3 3 -13 -4 -23 -15z M3672 3227 c-18 -18 -32 -36 -32 -41 0 -7 3 -4 49 47 34
38 21 34 -17 -6z M3696 3212 l-39 -47 43 42 c24 23 42 44 40 47 -3 2 -23 -17
-44 -42z M3710 3190 c-34 -38 -59 -70 -56 -70 6 0 50 47 101 108 50 60 18 33
-45 -38z M3761 3207 c-13 -21 -12 -21 5 -5 10 10 16 20 13 22 -3 3 -11 -5 -18
-17z M3695 3133 l-18 -28 27 24 c28 26 31 31 17 31 -5 0 -17 -12 -26 -27z
M3650 3085 c-11 -13 -10 -14 4 -9 9 3 16 10 16 15 0 13 -6 11 -20 -6z M3595
3020 c-3 -5 -1 -10 4 -10 6 0 11 5 11 10 0 6 -2 10 -4 10 -3 0 -8 -4 -11 -10z
M3720 2970 c0 -5 5 -10 11 -10 5 0 7 5 4 10 -3 6 -8 10 -11 10 -2 0 -4 -4 -4
-10z M1907 3123 c-4 -3 -7 -11 -7 -17 0 -6 5 -5 12 2 6 6 9 14 7 17 -3 3 -9 2
-12 -2z M1860 2930 c8 -5 20 -10 25 -10 6 0 3 5 -5 10 -8 5 -19 10 -25 10 -5
0 -3 -5 5 -10z M1880 2810 c0 -5 5 -10 11 -10 5 0 7 5 4 10 -3 6 -8 10 -11 10
-2 0 -4 -4 -4 -10z M1864 2640 c0 -13 4 -16 10 -10 7 7 7 13 0 20 -6 6 -10 3
-10 -10z M3596 1956 c3 -8 12 -12 20 -9 21 8 17 23 -6 23 -13 0 -18 -5 -14
-14z M3586 1433 c-6 -14 -5 -15 5 -6 7 7 10 15 7 18 -3 3 -9 -2 -12 -12z
M3193 1477 c-35 -23 -40 -36 -22 -54 18 -18 106 48 93 69 -9 14 -38 8 -71 -15z
M3343 1424 c-3 -8 -1 -20 5 -26 16 -16 42 -2 42 22 0 24 -38 28 -47 4z M3183
1188 c-97 -102 -156 -154 -161 -140 -2 7 -11 12 -19 12 -12 0 -13 -3 -4 -14 9
-11 8 -15 -5 -20 -22 -8 -22 -8 -26 16 -2 12 -9 24 -17 26 -11 4 -13 -3 -8
-32 5 -33 3 -38 -20 -49 -21 -9 -26 -8 -34 6 -16 28 -32 20 -26 -12 8 -41 -4
-47 -20 -10 -7 17 -18 29 -25 26 -17 -6 -12 -59 6 -73 11 -7 12 -14 5 -21 -7
-7 -7 -13 -1 -17 6 -3 28 9 51 28 22 19 75 54 118 79 51 29 106 73 158 127 44
45 92 88 108 96 33 18 35 34 3 34 -15 0 -43 -21 -83 -62z M2596 1051 c-6 -10
10 -93 24 -121 6 -13 50 -28 50 -18 0 2 -9 21 -20 43 -11 22 -20 49 -20 61 0
25 -25 50 -34 35z M50 5004 c0 -20 5 -24 32 -24 24 0 29 3 21 11 -6 6 -9 17
-7 24 3 8 -4 13 -20 13 -21 0 -26 -5 -26 -24z M4620 4831 c-22 -4 -35 -12 -35
-21 0 -14 44 -16 253 -10 6 0 12 9 12 20 0 19 -6 20 -97 19 -54 -1 -114 -4
-133 -8z M133 4084 c-35 -15 -3 -24 83 -24 72 0 95 3 92 13 -5 12 -150 21
-175 11z M70 3255 c-13 -14 -22 -27 -19 -29 2 -2 14 10 27 25 29 36 24 38 -8
4z M106 3219 c-50 -54 -73 -91 -46 -74 14 9 13 -8 -2 -23 -6 -6 -10 -13 -7
-16 5 -5 152 164 147 170 -3 2 -31 -26 -62 -62 -32 -36 -61 -63 -64 -59 -3 3
10 22 29 43 49 53 73 82 67 82 -3 0 -31 -27 -62 -61z M190 3235 c-24 -24 -41
-47 -38 -50 3 -3 24 17 48 45 23 27 40 50 38 50 -2 0 -24 -20 -48 -45z M264
3205 c-33 -36 -55 -65 -49 -65 12 1 119 119 113 125 -2 2 -31 -25 -64 -60z
M4524 3247 c-47 -53 -54 -69 -15 -29 24 24 41 45 39 47 -3 3 -13 -5 -24 -18z
M4545 3230 c-21 -22 -36 -42 -34 -45 3 -2 22 16 43 40 46 56 42 58 -9 5z
M4586 3239 c-36 -40 -28 -48 9 -9 16 16 26 32 23 35 -2 3 -17 -9 -32 -26z
M4611 3229 c-18 -21 -30 -39 -26 -39 3 0 12 6 18 13 49 54 59 67 51 66 -5 0
-24 -18 -43 -40z M4690 3235 c-19 -19 -30 -35 -24 -34 9 0 70 69 62 69 -2 0
-19 -16 -38 -35z M750 3245 c-7 -8 -8 -15 -2 -15 5 0 15 7 22 15 7 8 8 15 2
15 -5 0 -15 -7 -22 -15z M771 3225 c-17 -20 -31 -39 -31 -43 0 -7 30 25 59 61
25 31 4 18 -28 -18z M4410 3235 c-13 -14 -19 -25 -13 -25 6 0 18 11 27 25 9
14 15 25 13 25 -2 0 -14 -11 -27 -25z M4423 3213 c-24 -27 -49 -57 -55 -68 -6
-11 -6 -15 -1 -10 71 75 114 125 108 125 -4 0 -27 -21 -52 -47z M4808 3253 c7
-3 16 -2 19 1 4 3 -2 6 -13 5 -11 0 -14 -3 -6 -6z M4465 3220 c-16 -16 -25
-30 -21 -30 9 0 56 47 56 56 0 8 -7 4 -35 -26z M4646 3225 c-11 -8 -17 -17
-14 -20 2 -3 13 4 23 15 21 23 18 25 -9 5z M4705 3219 c-11 -17 1 -21 15 -4 8
9 8 15 2 15 -6 0 -14 -5 -17 -11z M4836 3203 c-6 -14 -5 -15 5 -6 7 7 10 15 7
18 -3 3 -9 -2 -12 -12z M4760 3200 c0 -5 5 -10 10 -10 6 0 10 5 10 10 0 6 -4
10 -10 10 -5 0 -10 -4 -10 -10z M4529 3173 c-13 -16 -12 -17 4 -4 16 13 21 21
13 21 -2 0 -10 -8 -17 -17z M4672 3174 c-7 -8 -8 -14 -3 -14 10 0 25 19 20 25
-2 1 -10 -3 -17 -11z M755 3169 c-11 -17 1 -21 15 -4 8 9 8 15 2 15 -6 0 -14
-5 -17 -11z M4410 3155 c-13 -14 -21 -27 -18 -30 2 -3 14 9 27 25 26 37 23 39
-9 5z M4426 3136 c-12 -19 -13 -27 -3 -32 6 -4 9 -3 4 1 -4 5 3 19 15 32 12
13 17 23 11 23 -6 0 -18 -11 -27 -24z M350 3140 c0 -4 7 -11 16 -14 8 -3 13
-10 10 -15 -3 -5 3 -11 14 -14 18 -4 18 -3 5 17 -9 13 -13 25 -10 27 2 3 -5 5
-15 6 -11 1 -20 -2 -20 -7z M680 3118 c-12 -22 -12 -22 6 -6 10 10 15 20 12
24 -4 3 -12 -5 -18 -18z M770 3105 c-7 -9 -8 -15 -2 -15 5 0 12 7 16 15 3 8 4
15 2 15 -2 0 -9 -7 -16 -15z M160 3100 c0 -6 7 -13 16 -17 9 -3 13 -12 9 -22
-4 -10 2 -8 15 7 12 12 18 27 15 32 -8 13 -55 13 -55 0z M299 3093 c-1 -5 -1
-12 0 -17 1 -5 -5 -3 -14 4 -8 7 -19 10 -22 6 -4 -4 -1 -11 7 -16 12 -8 11
-10 -5 -11 -16 -1 -15 -2 5 -8 17 -5 29 -2 37 8 6 9 8 17 2 19 -5 2 -7 8 -3
13 3 5 3 9 0 9 -3 0 -7 -3 -7 -7z M4456 3073 c-6 -14 -5 -15 5 -6 7 7 10 15 7
18 -3 3 -9 -2 -12 -12z M70 3076 c0 -2 8 -10 18 -17 15 -13 16 -12 3 4 -13 16
-21 21 -21 13z M100 3076 c0 -2 7 -7 16 -10 8 -3 12 -2 9 4 -6 10 -25 14 -25
6z M389 3071 c8 -5 10 -14 6 -22 -6 -11 -5 -11 5 -2 14 12 6 33 -13 33 -8 0
-7 -3 2 -9z M700 3076 c0 -2 7 -7 16 -10 8 -3 12 -2 9 4 -6 10 -25 14 -25 6z
M220 3060 c-9 -6 -10 -10 -3 -10 6 0 15 5 18 10 8 12 4 12 -15 0z M4364 3059
c-3 -6 -1 -16 4 -21 8 -8 11 -5 9 11 -1 24 -3 25 -13 10z M113 3019 c-2 -23 3
-25 10 -4 4 8 3 16 -1 19 -4 3 -9 -4 -9 -15z M673 3012 c0 -14 2 -20 6 -13 4
6 15 9 24 5 24 -9 21 1 -5 18 -22 14 -23 14 -25 -10z M291 3017 c2 -1 13 -9
24 -17 19 -14 19 -14 6 3 -7 9 -18 17 -24 17 -6 0 -8 -1 -6 -3z M130 2995 c-7
-9 -8 -15 -2 -15 5 0 12 7 16 15 3 8 4 15 2 15 -2 0 -9 -7 -16 -15z M4680
3006 c0 -2 7 -9 15 -16 13 -11 14 -10 9 4 -5 14 -24 23 -24 12z M246 2985 c4
-8 11 -15 16 -15 6 0 5 6 -2 15 -7 8 -14 15 -16 15 -2 0 -1 -7 2 -15z M800
2990 c0 -5 8 -7 18 -4 11 4 8 -1 -8 -15 -17 -14 -20 -21 -10 -20 8 0 23 11 33
24 18 25 18 25 -8 25 -14 0 -25 -4 -25 -10z M56 2975 c4 -8 11 -15 16 -15 6 0
5 6 -2 15 -7 8 -14 15 -16 15 -2 0 -1 -7 2 -15z M715 2979 c-4 -6 -5 -12 -2
-15 2 -3 7 2 10 11 7 17 1 20 -8 4z M180 2970 c0 -5 5 -10 11 -10 5 0 7 5 4
10 -3 6 -8 10 -11 10 -2 0 -4 -4 -4 -10z M755 2930 c0 -22 1 -40 3 -40 2 0 12
10 22 22 17 22 17 23 -3 40 -11 10 -21 18 -21 18 -1 0 -1 -18 -1 -40z m25 6
c0 -3 -4 -8 -10 -11 -5 -3 -10 -1 -10 4 0 6 5 11 10 11 6 0 10 -2 10 -4z M134
2937 c1 -20 4 -23 14 -15 7 6 9 14 5 17 -4 4 -11 10 -14 14 -4 5 -6 -3 -5 -16z
M287 2949 c7 -7 15 -10 18 -7 3 3 -2 9 -12 12 -14 6 -15 5 -6 -5z M246 2921
c-3 -5 1 -12 10 -15 22 -8 25 -4 9 11 -8 7 -16 9 -19 4z M366 2903 c-6 -14 -5
-15 5 -6 7 7 10 15 7 18 -3 3 -9 -2 -12 -12z M727 2913 c-4 -3 -7 -11 -7 -17
0 -6 5 -5 12 2 6 6 9 14 7 17 -3 3 -9 2 -12 -2z M310 2878 l-23 -33 31 29 c34
31 37 36 24 36 -5 0 -19 -15 -32 -32z M237 2889 c7 -7 15 -10 18 -7 3 3 -2 9
-12 12 -14 6 -15 5 -6 -5z M409 2879 c22 -18 23 -21 7 -37 -9 -10 -16 -22 -16
-26 0 -8 9 1 44 42 19 22 19 23 1 16 -15 -6 -17 -4 -12 11 6 15 5 16 -8 5 -10
-8 -15 -9 -15 -1 0 6 -6 11 -12 11 -7 -1 -2 -10 11 -21z M684 2876 c0 -14 6
-22 14 -19 15 6 15 11 -2 28 -12 12 -14 11 -12 -9z M815 2889 c-11 -16 -1 -19
13 -3 7 8 8 14 3 14 -5 0 -13 -5 -16 -11z M205 2880 c3 -5 8 -10 11 -10 2 0 4
5 4 10 0 6 -5 10 -11 10 -5 0 -7 -4 -4 -10z M738 2873 c6 -3 12 -12 12 -20 0
-12 -3 -13 -13 -4 -11 8 -19 4 -38 -17 l-24 -27 26 22 c17 15 28 20 35 13 7
-7 17 -2 31 13 l20 24 -31 0 c-17 0 -25 -2 -18 -4z M313 2846 c-9 -11 -6 -19
13 -37 19 -17 23 -19 18 -6 -3 9 -10 17 -16 17 -5 0 -6 9 -3 20 7 23 5 25 -12
6z M386 2844 c-5 -14 -4 -15 9 -4 17 14 19 20 6 20 -5 0 -12 -7 -15 -16z M250
2846 c0 -2 7 -9 15 -16 9 -7 15 -8 15 -2 0 5 -7 12 -15 16 -8 3 -15 4 -15 2z
M780 2830 c8 -5 20 -10 25 -10 6 0 3 5 -5 10 -8 5 -19 10 -25 10 -5 0 -3 -5 5
-10z M127 2809 c7 -7 15 -10 18 -7 3 3 -2 9 -12 12 -14 6 -15 5 -6 -5z M250
2811 c0 -10 19 -25 25 -20 1 2 -3 10 -11 17 -8 7 -14 8 -14 3z M371 2788 c-10
-16 -10 -19 1 -12 7 5 22 9 32 9 11 0 21 7 23 15 4 13 3 13 -5 1 -8 -11 -14
-12 -24 -3 -11 8 -17 6 -27 -10z M70 2790 c13 -9 13 -11 0 -21 -12 -8 -10 -9
8 -4 13 4 22 2 22 -4 0 -6 -5 -11 -11 -11 -5 0 -7 -5 -3 -11 5 -8 10 -6 16 5
10 18 -14 56 -36 56 -6 0 -4 -5 4 -10z M230 2791 c0 -5 7 -12 16 -15 14 -5 15
-4 4 9 -14 17 -20 19 -20 6z M135 2760 c-24 -25 -27 -32 -15 -43 10 -10 11 -9
6 1 -11 19 13 45 29 32 9 -7 16 -6 24 4 10 12 8 13 -11 8 -21 -5 -22 -4 -9 11
22 28 7 19 -24 -13z M750 2775 c-7 -9 -8 -15 -2 -15 5 0 12 7 16 15 3 8 4 15
2 15 -2 0 -9 -7 -16 -15z M4400 2775 c-7 -9 -8 -15 -2 -15 5 0 12 7 16 15 3 8
4 15 2 15 -2 0 -9 -7 -16 -15z M696 2767 c3 -10 9 -15 12 -12 3 3 0 11 -7 18
-10 9 -11 8 -5 -6z M334 2748 c-4 -7 -3 -8 4 -4 6 4 24 -1 39 -10 l28 -16 -24
21 c-26 24 -37 26 -47 9z M271 2723 c-19 -20 -21 -27 -10 -34 22 -14 33 -5 35
29 1 18 1 32 0 31 0 0 -12 -12 -25 -26z m19 -23 c0 -5 -4 -10 -10 -10 -5 0
-10 5 -10 10 0 6 5 10 10 10 6 0 10 -4 10 -10z M338 2712 c-12 -15 -11 -16 4
-4 11 9 18 10 23 2 3 -5 2 -10 -2 -10 -5 0 -14 -10 -22 -22 -13 -21 -13 -22 3
-9 14 12 19 12 26 2 5 -8 10 -9 14 -3 3 6 0 13 -6 15 -10 4 -10 7 -1 14 9 6 7
12 -7 20 -15 10 -21 9 -32 -5z M150 2705 c-7 -9 -8 -15 -2 -15 5 0 12 7 16 15
3 8 4 15 2 15 -2 0 -9 -7 -16 -15z M440 2716 c0 -2 8 -10 18 -17 15 -13 16
-12 3 4 -13 16 -21 21 -21 13z M4555 2710 c-3 -5 -1 -10 4 -10 6 0 11 5 11 10
0 6 -2 10 -4 10 -3 0 -8 -4 -11 -10z M90 2706 c0 -2 7 -9 15 -16 9 -7 15 -8
15 -2 0 5 -7 12 -15 16 -8 3 -15 4 -15 2z M702 2692 c6 -7 14 -9 17 -5 4 4 10
11 14 14 5 4 -3 6 -16 5 -20 -1 -23 -4 -15 -14z M417 2685 c-4 -8 -1 -17 5
-21 7 -4 8 -3 4 4 -10 16 0 15 32 -5 l27 -16 -27 26 c-31 31 -34 32 -41 12z
M750 2693 c0 -15 19 -37 26 -31 3 4 -1 14 -10 23 -9 9 -16 13 -16 8z M4370
2691 c0 -6 4 -13 10 -16 6 -3 7 1 4 9 -7 18 -14 21 -14 7z M85 2667 c-21 -24
-24 -33 -13 -47 8 -12 9 -11 4 3 -5 14 -2 17 13 12 12 -4 21 0 25 11 6 15 4
15 -10 3 -15 -12 -16 -11 -10 9 8 25 6 27 -9 9z M247 2669 c7 -7 15 -10 18 -7
3 3 -2 9 -12 12 -14 6 -15 5 -6 -5z M4515 2660 c-3 -5 -1 -10 4 -10 6 0 11 5
11 10 0 6 -2 10 -4 10 -3 0 -8 -4 -11 -10z M390 2649 c0 -6 -7 -8 -17 -5 -15
6 -15 4 2 -14 22 -24 29 -26 21 -4 -4 12 -1 14 14 9 12 -4 20 -2 20 5 0 6 -4
8 -10 5 -5 -3 -10 -1 -10 4 0 6 -4 11 -10 11 -5 0 -10 -5 -10 -11z M462 2626
c7 -8 15 -12 17 -11 5 6 -10 25 -20 25 -5 0 -4 -6 3 -14z M200 2595 c-7 -9
-10 -18 -7 -21 3 -3 10 4 17 15 13 25 8 27 -10 6z M99 2591 c7 -5 9 -16 5 -27
-4 -10 -5 -17 -3 -14 40 48 39 45 12 47 -15 0 -21 -2 -14 -6z M340 2596 c0 -2
8 -10 18 -17 15 -13 16 -12 3 4 -13 16 -21 21 -21 13z M418 2593 c6 -3 12 -9
12 -15 0 -6 -8 -7 -17 -3 -15 5 -16 4 -5 -7 10 -10 16 -8 32 7 19 20 19 20 -8
21 -15 1 -21 -1 -14 -3z M230 2586 c0 -2 8 -10 18 -17 15 -13 16 -12 3 4 -13
16 -21 21 -21 13z M460 2575 c-7 -9 -8 -15 -2 -15 5 0 12 7 16 15 3 8 4 15 2
15 -2 0 -9 -7 -16 -15z M294 2566 c4 -10 1 -26 -6 -35 -11 -14 -10 -14 6 0 15
14 16 20 6 35 -11 18 -11 18 -6 0z M127 2557 c-3 -7 3 -13 13 -13 10 0 16 6
13 13 -3 7 -9 13 -13 13 -4 0 -10 -6 -13 -13z M60 2556 c0 -2 7 -9 15 -16 9
-7 15 -8 15 -2 0 5 -7 12 -15 16 -8 3 -15 4 -15 2z M395 2539 c-4 -6 -14 -8
-24 -4 -13 5 -13 4 -4 -6 9 -9 10 -16 2 -26 -7 -7 -8 -13 -3 -13 5 0 17 14 26
30 16 28 18 44 3 19z M435 2540 c3 -5 8 -10 11 -10 2 0 4 5 4 10 0 6 -5 10
-11 10 -5 0 -7 -4 -4 -10z M466 2533 c-6 -14 -5 -15 5 -6 7 7 10 15 7 18 -3 3
-9 -2 -12 -12z M140 2521 c0 -10 19 -25 25 -20 1 2 -3 10 -11 17 -8 7 -14 8
-14 3z M330 2505 c-7 -9 -8 -15 -2 -15 5 0 12 7 16 15 3 8 4 15 2 15 -2 0 -9
-7 -16 -15z M466 2494 c-5 -14 -4 -15 9 -4 17 14 19 20 6 20 -5 0 -12 -7 -15
-16z M96 2473 c-6 -14 -5 -15 5 -6 7 7 10 15 7 18 -3 3 -9 -2 -12 -12z M205
2479 c-4 -6 -5 -12 -2 -15 2 -3 7 2 10 11 7 17 1 20 -8 4z M415 2450 c3 -5 8
-10 11 -10 2 0 4 5 4 10 0 6 -5 10 -11 10 -5 0 -7 -4 -4 -10z M171 2423 c7
-12 15 -20 18 -17 3 2 -3 12 -13 22 -17 16 -18 16 -5 -5z M390 2405 c13 -14
26 -25 28 -25 3 0 -5 11 -18 25 -13 14 -26 25 -28 25 -3 0 5 -11 18 -25z M140
2411 c0 -7 -6 -11 -13 -8 -8 3 -13 -3 -13 -14 0 -19 1 -18 20 1 11 11 17 23
13 26 -4 4 -7 2 -7 -5z M460 2410 c0 -5 5 -10 10 -10 6 0 10 5 10 10 0 6 -4
10 -10 10 -5 0 -10 -4 -10 -10z M350 2406 c0 -2 8 -10 18 -17 15 -13 16 -12 3
4 -13 16 -21 21 -21 13z M780 2376 c7 -7 13 -7 20 0 6 6 3 10 -10 10 -13 0
-16 -4 -10 -10z M150 2376 c0 -2 8 -10 18 -17 15 -13 16 -12 3 4 -13 16 -21
21 -21 13z M350 2330 c0 -5 5 -10 10 -10 6 0 10 5 10 10 0 6 -4 10 -10 10 -5
0 -10 -4 -10 -10z M515 2309 c-4 -6 -5 -12 -2 -15 2 -3 7 2 10 11 7 17 1 20
-8 4z M170 2281 c0 -5 7 -12 16 -15 14 -5 15 -4 4 9 -14 17 -20 19 -20 6z
M104 2268 c10 -6 22 -6 26 -2 5 5 -3 10 -18 11 -22 1 -24 0 -8 -9z M4830 2251
c0 -6 5 -13 10 -16 6 -3 10 1 10 9 0 9 -4 16 -10 16 -5 0 -10 -4 -10 -9z
M4823 2212 c-12 -2 -27 -10 -33 -18 -7 -8 -30 -14 -51 -14 -29 0 -39 -4 -39
-16 0 -14 10 -16 60 -12 62 4 95 23 88 49 -1 8 -13 13 -25 11z M4566 2181 c-7
-11 17 -21 49 -21 29 0 41 16 19 24 -23 9 -62 7 -68 -3z M1172 2017 c-12 -13
-19 -27 -15 -30 12 -13 51 -7 68 10 16 16 16 17 -1 30 -24 17 -27 17 -52 -10z
M2100 1995 c-25 -13 -73 -36 -107 -51 -35 -15 -63 -31 -63 -35 0 -5 -9 -9 -19
-9 -21 0 -140 -86 -148 -107 -12 -30 9 -25 54 14 27 22 91 60 143 84 154 72
213 103 218 117 6 19 -28 13 -78 -13z M1429 1980 c-13 -10 -21 -19 -18 -20 16
-1 69 23 69 31 0 15 -27 10 -51 -11z M2173 1957 c-25 -14 -202 -176 -281 -256
-29 -29 -80 -91 -113 -136 -66 -92 -121 -135 -174 -137 -43 -2 -49 4 -41 37 5
20 35 44 115 96 109 70 147 112 133 147 -4 12 -9 11 -24 -8 -10 -12 -18 -28
-18 -34 0 -7 -25 -28 -56 -47 -116 -72 -160 -106 -178 -140 -25 -46 -16 -83
25 -105 29 -15 34 -15 71 2 45 20 148 127 177 182 11 20 44 62 73 92 79 83
277 264 299 274 10 5 19 17 19 28 0 21 1 21 -27 5z M63 1943 c-8 -3 -13 -22
-13 -46 l0 -42 25 30 c33 41 26 74 -12 58z M1033 1912 c-62 -50 -77 -68 -69
-88 9 -24 48 -12 66 21 9 17 33 41 53 54 20 13 37 30 37 38 0 24 -38 13 -87
-25z M4826 1924 c-11 -8 -36 -14 -56 -14 -40 0 -77 -21 -66 -38 5 -8 15 -8 33
-1 15 5 38 7 52 4 34 -7 64 14 59 42 -3 20 -5 20 -22 7z M1377 1853 c-62 -43
-85 -74 -54 -72 21 0 132 85 135 102 5 26 -8 21 -81 -30z M387 1831 c-37 -41
-73 -97 -113 -176 -62 -126 -92 -159 -157 -175 -23 -6 -48 -13 -54 -15 -20 -7
-15 -32 9 -49 l22 -16 -22 0 c-17 0 -22 -6 -22 -27 0 -25 4 -28 33 -28 17 0
35 3 38 8 3 4 34 14 70 23 35 8 92 22 127 31 35 8 65 13 68 10 9 -8 84 79 84
97 0 18 48 94 73 114 22 18 -19 -96 -49 -135 -13 -17 -24 -36 -24 -41 0 -32
72 -10 101 31 9 12 25 54 37 92 15 50 35 87 70 129 27 32 49 64 49 71 0 13
-25 13 -50 0 -6 -4 8 11 33 34 35 31 42 42 33 52 -15 15 -98 -44 -138 -98 -16
-21 -45 -56 -66 -78 -20 -22 -59 -76 -86 -120 -53 -87 -71 -100 -160 -116 -32
-5 -80 -15 -106 -20 -64 -15 -70 -5 -13 22 26 12 53 30 60 41 12 17 17 18 36
8 36 -19 67 1 84 57 24 81 86 196 123 230 19 17 32 37 28 43 -8 13 -42 4 -70
-18 -11 -9 -5 0 14 20 32 35 35 58 6 58 -7 0 -38 -27 -68 -59z m-56 -180 c-17
-33 -31 -67 -31 -74 0 -8 -7 -20 -16 -28 -13 -11 -14 -9 -9 17 7 30 50 119 68
142 23 29 17 -1 -12 -57z M4805 1777 c-10 -8 -15 -19 -12 -24 4 -6 0 -14 -9
-17 -25 -10 -6 -26 32 -26 39 0 48 26 12 33 l-23 4 23 8 c24 8 31 35 9 35 -7
0 -21 -6 -32 -13z M1742 1729 c2 -6 8 -10 13 -10 5 0 11 4 13 10 2 6 -4 11
-13 11 -9 0 -15 -5 -13 -11z M4822 1648 c6 -18 28 -21 28 -4 0 9 -7 16 -16 16
-9 0 -14 -5 -12 -12z M4825 1610 c-11 -5 -29 -11 -39 -15 -17 -5 -18 -8 -5
-19 8 -7 26 -16 42 -20 26 -6 27 -4 27 29 0 19 -1 35 -2 34 -2 0 -12 -4 -23
-9z M4335 1270 c-27 -5 -78 -9 -112 -9 -64 -1 -78 -7 -63 -31 6 -10 23 -11 72
-6 172 19 154 21 166 -13 8 -22 18 -31 34 -32 13 -1 56 -3 96 -5 76 -4 102 3
135 38 14 14 27 17 46 13 15 -3 53 -8 84 -10 54 -4 57 -3 57 18 0 20 -5 22
-68 25 -166 8 -167 8 -168 -8 -1 -8 -2 -21 -3 -29 -1 -19 -163 -10 -169 9 -6
16 -40 50 -49 49 -5 -1 -30 -5 -58 -9z M4202 1140 c-45 -11 -56 -23 -48 -55
l7 -27 24 26 c19 21 33 26 70 26 26 0 56 -5 68 -12 12 -6 36 -14 52 -18 25 -5
29 -10 27 -31 -2 -13 -6 -26 -8 -28 -3 -3 -68 -8 -147 -13 -232 -13 -336 -33
-337 -62 -1 -23 -78 -96 -101 -96 -12 0 -33 -10 -46 -22 -19 -18 -23 -19 -23
-5 0 15 -22 16 -232 11 -314 -6 -322 -7 -326 -26 -4 -22 39 -28 112 -15 34 6
160 11 281 11 l220 1 53 30 c30 16 65 43 78 60 13 16 28 35 33 41 13 16 148
32 307 38 73 2 141 9 152 15 22 12 37 45 27 60 -12 21 36 32 108 26 41 -4 110
-1 157 6 47 6 96 12 110 13 18 1 26 7 28 23 4 25 -6 25 -108 1 -65 -15 -204
-11 -248 8 -30 12 -41 13 -60 3 -18 -10 -31 -10 -65 0 -55 17 -124 22 -165 11z
M4725 990 c-11 -5 -34 -9 -51 -9 -16 -1 -42 -7 -56 -13 -22 -11 -25 -17 -21
-45 6 -33 5 -33 -33 -33 -51 0 -111 -35 -94 -55 6 -7 30 -17 53 -21 l42 -7
-49 -16 c-27 -9 -51 -22 -54 -29 -6 -20 62 -43 108 -36 38 6 40 5 40 -20 0
-22 -4 -26 -27 -26 -55 0 -104 -20 -113 -46 -14 -36 -12 -44 8 -44 11 0 25 14
34 34 16 33 54 51 85 39 12 -5 18 -91 14 -210 -2 -49 11 -61 37 -35 16 16 18
31 15 103 -2 46 -5 90 -8 97 -15 41 34 52 148 33 26 -4 47 -4 47 0 0 9 -34 16
-122 24 -58 6 -68 9 -68 25 0 24 44 33 129 28 38 -2 60 1 58 7 -2 6 -45 11
-96 13 -81 2 -92 5 -89 20 3 15 16 17 96 15 97 -3 117 6 55 24 l-38 10 38 2
c20 0 37 6 37 11 0 6 -38 10 -94 10 -52 0 -97 4 -101 9 -7 12 47 23 95 19 19
-2 36 2 38 7 1 6 -27 12 -65 15 -62 5 -68 7 -71 29 -2 13 2 28 10 32 22 14 30
10 23 -11 -6 -19 -2 -20 60 -20 36 0 75 5 86 10 19 11 26 44 12 53 -17 11 -99
16 -118 7z m75 -29 c0 -12 -63 -23 -86 -14 -17 6 -16 8 6 14 37 10 80 10 80 0z
m-192 -108 c2 -9 -10 -13 -42 -13 -43 0 -55 7 -39 24 12 11 76 2 81 -11z m-5
-88 c-4 -15 -86 -12 -91 3 -3 10 8 12 44 10 27 -2 48 -7 47 -13z M4725 620
c-9 -15 43 -36 56 -23 6 6 8 16 5 22 -9 14 -53 14 -61 1z"/>
</g>
</svg>
