<?xml version="1.0" standalone="no"?>
<!DOCTYPE svg PUBLIC "-//W3C//DTD SVG 20010904//EN"
 "http://www.w3.org/TR/2001/REC-SVG-20010904/DTD/svg10.dtd">
<svg version="1.0" xmlns="http://www.w3.org/2000/svg"
 width="500.000000pt" height="878.000000pt" viewBox="0 0 500.000000 878.000000"
 preserveAspectRatio="xMidYMid meet">
<metadata>
Created by potrace 1.16, written by Peter Selinger 2001-2019
</metadata>
<g transform="translate(0.000000,878.000000) scale(0.100000,-0.100000)"
fill="#000000" stroke="none">
<path d="M1205 8571 c-10 -17 33 -33 55 -21 11 6 20 15 20 20 0 13 -67 13 -75
1z M1974 8565 c30 -16 56 -14 56 5 0 5 -19 10 -42 10 l-43 0 29 -15z M2200
8565 c7 -8 18 -15 25 -15 7 0 18 7 25 15 11 13 7 15 -25 15 -32 0 -36 -2 -25
-15z M4017 8553 c-3 -16 -15 -71 -27 -123 -43 -187 -81 -367 -85 -400 -1 -14
-4 -32 -7 -40 -5 -13 -13 -45 -47 -185 -29 -116 -51 -228 -51 -253 0 -15 -5
-33 -11 -39 -6 -6 -14 -35 -19 -64 -10 -65 -48 -226 -61 -254 -23 -53 -40
-121 -37 -147 3 -19 0 -28 -9 -28 -7 0 -18 -8 -24 -19 -12 -19 -19 -19 -89 -1
-173 44 -225 35 -253 -43 -1 -5 -16 -1 -32 7 -17 9 -36 16 -42 16 -7 0 -13 4
-13 10 0 14 -67 41 -114 46 -21 2 -45 9 -52 15 -8 6 -20 9 -29 6 -8 -4 -17 -2
-21 4 -3 5 -13 9 -22 7 -10 -1 -30 3 -47 9 -42 17 -118 37 -131 35 -12 -2 -34
40 -34 64 0 8 -7 29 -16 46 -9 17 -17 42 -19 55 -2 21 1 23 43 23 67 0 152 30
165 57 6 13 13 23 17 23 11 0 30 49 30 76 0 14 -5 35 -11 46 -10 18 -9 20 5
15 8 -3 18 -2 21 3 4 6 15 10 26 10 15 0 18 -5 14 -22 -7 -30 12 -52 57 -67
37 -12 56 -6 143 47 6 4 24 7 41 8 33 1 91 38 99 63 6 18 76 54 120 61 37 6
49 40 13 40 -45 -1 -162 -54 -175 -80 -11 -22 -18 -25 -77 -25 -62 0 -64 1
-48 18 12 14 14 22 5 36 -10 16 -8 17 15 13 15 -3 32 -9 39 -14 7 -6 20 0 38
16 15 14 36 28 46 31 11 4 19 13 19 21 0 8 16 30 35 50 19 19 35 38 35 43 0 5
9 11 19 14 11 2 27 19 36 37 15 30 15 33 -1 51 -19 21 -19 20 39 63 74 54 32
59 -48 5 -24 -16 -48 -29 -54 -29 -22 0 -61 -32 -61 -51 0 -10 -5 -21 -11 -25
-11 -7 -9 7 14 73 14 41 -12 102 -54 127 -54 32 -191 -4 -241 -63 -14 -16 -30
-21 -69 -21 -46 0 -50 2 -38 16 7 9 33 25 57 36 46 22 61 43 45 59 -16 16
-140 -40 -174 -78 -35 -41 -36 -47 -4 -78 27 -28 68 -35 59 -10 -4 9 0 15 10
15 9 0 16 -7 16 -15 0 -14 13 -20 35 -15 6 1 26 3 47 3 l36 2 -16 -28 c-10
-16 -30 -38 -45 -49 -26 -19 -29 -19 -46 -4 -24 21 -54 20 -93 -4 -45 -27 -76
-26 -90 5 -10 23 -20 29 -40 26 -4 0 -14 12 -23 28 -18 36 -52 61 -71 54 -10
-4 -13 2 -12 18 3 27 4 27 -71 15 -39 -6 -55 -13 -58 -27 -5 -17 -7 -17 -34
-4 -28 15 -56 15 -254 0 -78 -6 -195 -51 -195 -75 0 -7 -79 -50 -92 -50 -3 0
-8 8 -11 19 -10 41 -191 130 -239 118 -9 -3 -34 -1 -55 4 -23 5 -42 4 -47 -1
-6 -6 -20 -10 -32 -10 -62 0 -199 -99 -191 -140 5 -29 37 -23 48 9 6 18 29 42
57 61 40 26 54 30 116 30 138 -1 250 -40 298 -102 l26 -34 -19 -56 c-18 -53
-18 -60 -3 -110 24 -83 37 -102 69 -108 18 -3 30 -11 30 -20 0 -29 25 -59 43
-54 14 5 14 4 2 -4 -12 -9 -12 -13 2 -29 8 -10 22 -35 29 -57 8 -21 30 -51 51
-67 20 -17 49 -54 63 -84 29 -58 56 -81 100 -87 20 -2 35 -13 48 -36 25 -43
17 -62 -27 -62 -25 0 -40 -7 -55 -26 -11 -14 -24 -23 -29 -20 -5 3 -19 -6 -30
-19 -12 -14 -31 -25 -41 -25 -30 0 -127 -95 -152 -148 -12 -26 -30 -56 -41
-68 -10 -12 -20 -37 -22 -56 -2 -19 -8 -43 -13 -53 -7 -13 -8 -26 -1 -40 7
-15 6 -39 -4 -77 -14 -55 -15 -90 -4 -231 5 -61 12 -87 31 -115 14 -20 25 -42
25 -47 0 -6 9 -30 20 -53 11 -22 20 -45 20 -50 0 -5 6 -15 14 -21 8 -7 18 -27
22 -44 4 -18 17 -48 30 -67 13 -19 24 -42 24 -51 0 -21 20 -38 82 -69 43 -21
53 -32 69 -75 11 -29 19 -75 19 -110 0 -33 5 -77 11 -98 8 -30 7 -43 -4 -60
-7 -12 -17 -35 -21 -50 -5 -22 -19 -34 -62 -54 -30 -13 -61 -35 -68 -46 -49
-81 -126 -216 -126 -221 0 -6 -133 -209 -180 -274 -18 -24 -41 -65 -51 -90
-11 -26 -24 -55 -30 -65 -5 -10 -7 -26 -4 -35 6 -20 55 -52 78 -52 16 0 14
-27 -5 -67 -8 -17 -6 -29 11 -56 21 -34 21 -35 2 -83 -26 -69 -41 -112 -58
-169 -75 -240 -105 -331 -138 -410 -7 -16 -16 -58 -20 -92 -4 -34 -13 -67 -21
-74 -8 -6 -14 -17 -14 -24 0 -25 -41 -66 -60 -60 -10 3 -21 2 -23 -2 -3 -4
-20 -8 -38 -7 -45 1 -60 42 -34 90 21 38 16 49 -25 58 -25 4 -37 0 -58 -20
-57 -55 -130 -69 -169 -32 -23 22 -24 22 -56 3 -26 -16 -51 -19 -132 -19 -115
1 -211 28 -258 72 -29 27 -73 113 -77 148 -6 57 0 75 30 85 37 13 37 20 1 61
-20 23 -31 51 -38 93 -14 82 -7 120 33 162 30 31 38 35 69 30 l35 -6 0 40 c0
49 25 79 104 125 75 45 146 54 146 19 0 -6 7 -26 16 -43 15 -32 27 -37 71 -33
18 1 23 -4 23 -21 0 -13 4 -29 9 -37 13 -20 38 1 46 39 14 62 124 89 207 51
81 -36 129 -127 107 -200 -10 -34 -9 -44 5 -66 10 -15 16 -40 14 -58 -2 -26 1
-33 18 -35 28 -4 36 33 18 85 -18 50 -18 51 10 46 13 -3 27 0 30 6 4 6 22 11
41 11 27 0 37 -6 47 -27 19 -39 48 -43 48 -6 -1 55 -49 89 -114 79 -22 -4 -48
-13 -56 -21 -15 -13 -16 -10 -16 33 -1 92 -70 178 -166 207 -73 21 -164 4
-199 -39 -14 -16 -20 -17 -51 -7 -20 6 -41 10 -48 9 -7 -2 -17 11 -21 28 -11
41 -30 55 -75 59 -76 7 -254 -119 -254 -180 0 -11 -5 -15 -15 -11 -24 9 -81
-49 -111 -112 -22 -47 -26 -65 -21 -114 3 -32 14 -74 26 -93 20 -35 20 -35 1
-68 -25 -41 -26 -106 -1 -157 l19 -39 -33 -20 c-41 -24 -52 -65 -32 -114 15
-34 14 -35 -15 -61 -20 -18 -35 -23 -46 -18 -10 4 -53 7 -97 6 -62 -1 -94 -7
-145 -29 -85 -36 -111 -55 -170 -127 l-50 -59 0 -199 0 -200 56 -55 c31 -30
67 -58 80 -61 29 -7 22 -24 -11 -24 -13 0 -36 -13 -51 -30 l-28 -29 -23 21
-23 21 0 -36 c0 -25 6 -40 21 -50 28 -20 73 -8 77 20 2 12 9 26 16 32 16 13
82 17 122 7 36 -8 51 12 34 45 -11 20 -60 49 -83 49 -23 0 -96 60 -126 104
-53 78 -64 181 -32 299 48 174 192 280 358 262 48 -5 66 -11 73 -26 17 -30 39
-22 55 19 17 40 44 58 110 67 56 8 68 -4 69 -66 1 -54 22 -81 33 -40 3 11 21
29 40 41 46 27 49 25 20 -10 -36 -42 -50 -90 -37 -125 8 -22 13 -25 25 -15 7
6 17 26 21 43 19 90 111 132 270 124 110 -7 113 -7 107 -24 -3 -7 5 -17 20
-22 24 -9 87 -80 87 -98 0 -6 -13 -34 -30 -64 -16 -30 -30 -64 -30 -77 0 -15
-12 -29 -36 -44 -26 -15 -34 -26 -31 -40 3 -11 -4 -29 -19 -45 -13 -14 -24
-32 -24 -40 0 -8 -11 -38 -25 -67 -27 -57 -39 -153 -22 -174 7 -9 5 -16 -5
-25 -9 -7 -26 -43 -38 -82 -28 -87 -29 -88 -45 -75 -10 8 -21 7 -44 -4 -16 -9
-49 -16 -73 -16 -78 0 -130 52 -122 123 4 35 -16 44 -50 22 -19 -13 -37 -16
-68 -11 -24 3 -50 7 -58 8 -22 2 -38 21 -42 49 -4 28 -17 30 -76 11 -40 -13
-59 -42 -27 -42 8 0 15 -4 15 -10 0 -13 -38 -32 -51 -25 -18 12 -40 -15 -29
-35 13 -24 47 -35 65 -20 8 6 16 7 19 2 3 -5 30 -21 60 -36 92 -45 111 -121
52 -218 -20 -34 -30 -61 -26 -69 5 -7 6 -18 3 -24 -2 -7 3 -19 11 -28 14 -14
19 -13 53 4 41 21 84 24 112 9 33 -17 33 -40 1 -76 -16 -19 -33 -46 -36 -60
-4 -14 -15 -35 -25 -47 -55 -64 -119 -162 -114 -175 3 -7 5 -18 5 -23 0 -19
28 -8 34 14 3 12 18 36 34 52 16 17 36 44 45 60 8 17 24 39 36 49 12 11 21 29
21 42 0 25 49 79 100 109 19 11 46 37 60 58 14 20 40 46 58 57 17 11 32 25 32
31 0 6 13 39 29 73 16 33 46 100 67 149 27 61 43 87 55 87 10 0 23 2 31 3 7 2
10 2 6 0 -5 -3 -8 -13 -8 -24 0 -11 -7 -19 -17 -19 -23 0 -58 -54 -67 -103 -9
-47 17 -105 53 -121 14 -6 36 -18 48 -26 l22 -14 -25 -23 c-17 -15 -23 -30
-19 -42 8 -25 -13 -67 -42 -86 -13 -9 -23 -25 -23 -39 0 -41 -11 -56 -39 -56
-16 0 -37 -10 -50 -24 -19 -20 -21 -28 -12 -44 21 -39 12 -60 -40 -99 -27 -21
-76 -58 -107 -83 -72 -58 -137 -84 -189 -74 -47 8 -73 21 -73 36 0 13 -30 37
-48 38 -7 0 -34 -10 -60 -22 -26 -12 -57 -21 -69 -20 -13 2 -37 -3 -54 -12
-16 -8 -37 -12 -45 -9 -9 3 -28 -6 -46 -23 l-31 -29 6 42 c4 38 28 86 69 145
17 23 5 32 -24 18 -17 -8 -15 -4 10 18 35 31 44 58 15 48 -62 -24 -105 -78
-116 -146 -2 -14 -5 -1 -6 29 -1 51 10 103 30 143 5 10 6 23 4 30 -3 8 10 29
29 47 28 27 37 31 53 22 11 -5 47 -9 80 -8 36 1 67 -4 76 -11 18 -15 47 -5 47
15 0 13 10 15 54 10 41 -4 56 -2 60 9 9 22 -31 42 -73 37 -23 -3 -41 -1 -45 6
-4 6 -3 11 2 11 9 0 23 31 26 55 1 6 -24 10 -55 11 -41 0 -64 6 -88 23 -29 21
-36 22 -95 13 -35 -6 -83 -8 -106 -5 l-41 6 73 43 c54 32 99 49 172 66 54 12
100 28 103 35 3 7 11 13 19 13 15 0 19 26 5 34 -5 3 -34 1 -65 -5 -31 -5 -61
-7 -66 -4 -14 9 7 45 25 45 15 0 22 29 8 31 -5 0 -21 3 -37 5 -16 3 -42 1 -57
-5 -18 -6 -29 -6 -29 0 0 15 -35 11 -90 -11 -61 -24 -60 -24 -60 -5 0 23 -22
18 -68 -16 l-41 -30 2 -437 c2 -396 4 -437 18 -434 9 1 22 -5 29 -13 18 -21
100 -16 100 6 0 5 18 28 41 53 27 29 47 42 58 39 10 -2 35 7 56 21 45 31 55
27 26 -10 -21 -27 -63 -54 -85 -54 -6 0 -31 -23 -55 -51 -25 -29 -49 -48 -57
-45 -8 3 -11 0 -7 -9 3 -9 -3 -18 -13 -22 -11 -4 -25 -13 -33 -21 -9 -9 -25
-12 -48 -7 -29 5 -33 3 -33 -15 0 -63 70 -63 134 1 23 22 52 46 66 53 14 7 24
18 22 24 -1 7 3 12 9 12 6 0 19 10 29 22 13 16 27 22 51 20 31 -1 36 2 56 46
16 34 34 55 62 70 42 24 65 23 144 -2 26 -8 54 -13 62 -9 9 3 21 0 29 -6 10
-8 16 -8 25 3 7 8 35 17 63 21 41 6 53 12 67 36 9 16 19 29 22 29 4 0 32 21
62 46 56 46 56 46 147 50 60 4 96 1 105 -6 26 -22 95 -14 335 37 137 29 185
32 204 13 7 -7 -3 -9 -34 -5 -57 7 -105 -6 -104 -28 1 -10 -6 -17 -17 -17 -10
0 -21 -5 -24 -10 -3 -6 -44 -10 -91 -10 -47 0 -94 -5 -106 -11 -11 -6 -43 -13
-71 -15 -58 -4 -147 -24 -162 -35 -6 -4 -17 -4 -25 1 -24 15 -70 12 -147 -11
-68 -20 -89 -38 -63 -54 19 -12 10 -23 -26 -30 -128 -24 -374 -195 -374 -260
0 -13 -10 -31 -22 -39 -20 -14 -24 -14 -43 3 -11 10 -37 25 -57 35 -35 16 -40
16 -70 0 -18 -9 -53 -34 -78 -55 -25 -20 -62 -44 -83 -53 -42 -17 -38 -16 -72
-16 -21 0 -25 -5 -25 -30 0 -30 1 -31 38 -24 57 10 112 36 181 88 35 25 66 46
70 46 4 0 16 -8 27 -18 11 -10 31 -26 46 -36 25 -16 28 -16 79 7 61 28 93 59
103 101 9 37 100 124 160 151 11 5 23 12 26 16 3 4 32 16 66 27 81 26 145 60
143 75 -3 27 2 35 27 40 19 3 32 -3 54 -26 30 -32 58 -32 67 2 3 13 11 17 24
14 10 -3 27 -2 36 3 10 4 21 8 25 8 3 1 10 4 14 8 3 4 33 5 66 1 52 -5 61 -3
83 17 14 13 28 20 32 16 4 -4 1 -11 -6 -15 -19 -12 -4 -31 24 -31 30 0 55 -10
55 -22 0 -5 -7 -8 -16 -6 -10 2 -19 -3 -22 -11 -3 -11 1 -12 19 -8 13 4 30 7
38 7 10 0 12 8 8 30 -7 32 6 40 21 14 7 -13 11 -14 17 -4 5 9 0 20 -15 32 -12
10 -19 18 -15 18 13 0 50 -23 61 -39 10 -12 15 -13 27 -3 11 9 17 10 22 2 4
-7 36 -9 95 -5 72 4 91 2 104 -11 9 -8 16 -11 16 -6 0 6 9 8 21 5 38 -10 -53
-41 -158 -53 -54 -7 -102 -14 -106 -17 -5 -3 -7 -16 -4 -30 7 -35 -22 -46 -96
-38 -34 4 -102 7 -150 7 -68 0 -86 2 -78 12 5 6 7 17 3 23 -6 9 -31 10 -101 3
-107 -12 -138 -18 -166 -34 -11 -7 -49 -23 -85 -36 -36 -13 -72 -28 -80 -35
-8 -6 -36 -24 -62 -38 -25 -15 -61 -44 -80 -66 -43 -51 -198 -144 -290 -175
-68 -23 -75 -24 -97 -9 -19 12 -31 13 -60 4 -54 -16 -152 -42 -184 -48 -23 -5
-27 -10 -27 -39 0 -36 14 -43 48 -25 9 5 31 11 48 14 37 6 74 27 74 44 0 24
36 18 75 -11 45 -36 47 -36 100 -19 95 29 135 48 210 99 68 45 103 76 190 165
38 39 212 135 223 124 3 -3 15 4 27 15 12 12 40 23 61 27 36 5 37 4 20 -9 -24
-18 -13 -38 20 -38 16 0 28 8 34 23 7 17 9 18 9 5 1 -11 9 -18 24 -19 318 -14
429 0 455 54 11 23 19 27 57 27 24 0 72 9 107 21 64 21 302 40 285 23 -4 -4
-36 -7 -72 -6 -73 3 -198 -22 -216 -44 -6 -8 -23 -14 -38 -14 -45 0 -71 -11
-71 -31 0 -22 28 -39 64 -39 14 0 27 -4 31 -10 7 -11 -40 -44 -52 -37 -7 4
-135 18 -178 20 -18 0 -105 -13 -120 -19 -41 -16 3 -64 58 -64 13 0 32 -7 44
-15 12 -8 32 -15 45 -16 12 0 86 -2 163 -4 144 -2 331 -27 349 -45 5 -5 20
-10 33 -10 26 0 116 -77 107 -91 -13 -21 -60 -8 -93 26 -18 19 -36 33 -40 33
-3 -1 -15 3 -26 9 -35 19 -143 26 -191 13 -56 -16 -57 -29 -1 -28 52 1 117
-11 117 -23 0 -4 17 -9 38 -11 27 -2 40 -9 47 -25 8 -19 53 -38 82 -34 6 1 14
-3 18 -9 4 -7 11 -8 18 -1 13 10 124 -7 187 -29 19 -7 42 -13 51 -14 8 -1 28
-7 45 -13 16 -6 49 -16 72 -23 24 -6 41 -14 38 -17 -6 -7 5 -13 94 -60 43 -22
55 -33 54 -50 -1 -12 3 -20 8 -17 4 3 28 -12 53 -33 47 -42 80 -55 190 -73 90
-14 114 -17 204 -24 80 -6 104 -18 99 -50 -3 -19 -9 -21 -68 -19 -97 3 -160
13 -160 27 0 34 -156 75 -291 77 -52 0 -114 5 -139 10 -25 5 -57 11 -72 14
-15 2 -37 9 -49 15 -54 30 -175 64 -264 76 -40 5 -64 9 -239 38 -52 9 -98 23
-110 33 -44 38 -116 68 -196 83 -25 4 -76 20 -115 34 -56 20 -64 25 -40 25 17
1 36 -4 41 -9 17 -17 187 -31 200 -17 3 3 28 -4 57 -14 81 -30 138 -34 181
-14 63 30 65 63 6 95 -33 18 -157 31 -186 20 -22 -9 -25 -8 -21 5 7 17 -21 35
-56 35 -13 0 -57 11 -98 25 -41 14 -83 25 -94 24 -43 -3 -55 1 -55 20 0 10 -8
22 -17 26 -42 16 -169 34 -202 29 -20 -3 -43 -6 -51 -8 -21 -3 -113 -38 -123
-46 -5 -4 -10 -16 -11 -26 -3 -18 -31 -31 -71 -33 -15 -1 -12 4 13 19 39 24
41 41 5 57 -100 41 -234 -8 -358 -130 -65 -65 -92 -85 -121 -92 -57 -14 -196
-46 -239 -56 -27 -6 -85 -22 -127 -37 -69 -23 -81 -24 -115 -13 -22 7 -50 11
-64 9 -20 -2 -24 -9 -27 -45 -3 -39 -2 -42 30 -49 47 -10 116 -5 166 12 24 8
48 11 54 8 6 -4 8 -2 5 3 -9 14 176 87 295 117 47 12 92 27 100 32 7 6 27 16
45 23 18 7 56 39 85 71 49 53 90 79 160 100 27 8 27 8 -8 -25 -39 -37 -40 -56
-3 -66 23 -5 22 -6 -8 -13 -18 -4 -48 -18 -68 -32 -20 -13 -40 -24 -45 -24 -6
0 -10 -4 -10 -8 0 -17 -63 -54 -98 -56 -45 -4 -152 -47 -189 -75 -14 -12 -43
-24 -65 -27 -21 -4 -41 -11 -44 -16 -3 -5 -12 -4 -20 3 -10 8 -14 8 -14 0 0
-6 -10 -10 -22 -9 -25 1 -106 -22 -160 -45 -53 -23 -133 -39 -162 -31 l-26 6
0 -95 0 -95 65 -7 c36 -4 65 -11 65 -15 0 -5 57 -9 128 -9 70 -1 141 -4 158
-7 18 -3 35 -1 38 4 4 6 18 7 34 3 15 -4 41 -6 57 -5 17 1 97 4 178 8 82 3
151 7 155 9 4 2 39 2 77 1 39 -2 81 -3 95 -3 14 -1 178 -2 365 -3 187 -1 376
-1 420 -1 44 1 237 4 429 8 246 4 372 2 425 -6 140 -21 354 -27 375 -9 11 8
56 10 168 6 84 -3 434 -8 778 -11 344 -3 685 -8 758 -11 l132 -6 0 36 c0 33
-2 36 -30 36 -16 0 -30 5 -30 10 0 6 -5 10 -11 10 -6 0 -8 -7 -5 -16 5 -14 1
-15 -26 -9 -18 3 -63 8 -99 10 -37 1 -72 5 -77 9 -6 3 -13 3 -16 -2 -7 -12
-86 -2 -86 12 0 6 -4 5 -10 -4 -8 -12 -11 -12 -28 3 -10 9 -23 17 -28 17 -5 0
-2 -5 6 -10 12 -8 11 -10 -5 -10 -12 0 -26 5 -33 12 -7 7 -12 9 -12 5 0 -4
-15 -1 -34 7 -19 8 -37 12 -40 9 -4 -4 -92 24 -105 34 -2 1 2 11 10 20 11 14
9 14 -9 -2 -14 -11 -26 -15 -30 -10 -4 6 -18 11 -32 12 -185 17 -172 14 -150
35 24 22 27 36 3 17 -20 -17 -246 -22 -236 -6 3 6 1 7 -5 3 -19 -11 -94 -13
-132 -3 -19 4 -43 8 -53 8 -9 0 -15 4 -12 9 3 6 -1 7 -10 4 -9 -4 -26 2 -38
12 -21 19 -21 19 -7 0 14 -17 13 -18 -5 -13 -11 3 -42 9 -70 13 -27 4 -54 12
-60 18 -8 8 14 11 82 12 51 1 93 -1 93 -5 0 -9 303 -5 350 4 19 4 59 9 88 10
29 2 60 6 69 9 8 4 21 1 29 -4 7 -6 33 -14 58 -16 37 -4 46 -2 46 10 0 10 -9
16 -22 16 -13 0 -34 6 -48 13 -36 18 -201 11 -280 -13 -42 -12 -40 -12 -40 0
0 6 10 10 23 10 13 0 27 4 32 9 6 5 42 12 80 14 39 3 86 8 105 11 19 4 61 2
92 -5 44 -9 64 -19 90 -47 28 -31 29 -34 7 -20 -24 15 -26 15 -37 -2 -9 -15
-8 -17 10 -12 14 3 19 1 14 -6 -5 -8 -2 -10 8 -6 9 4 16 1 16 -6 0 -10 3 -10
15 0 17 14 35 5 35 -17 0 -12 3 -13 14 -4 11 9 23 8 51 -4 21 -8 55 -15 76
-15 36 0 39 -2 40 -27 1 -16 1 -33 0 -39 -1 -7 6 -15 15 -18 14 -5 15 -4 4 9
-11 13 -9 15 11 16 13 1 27 1 31 0 4 0 21 -2 38 -3 37 -3 61 -25 41 -38 -9 -5
-10 -10 -2 -14 6 -4 11 -2 11 4 0 7 8 9 19 5 16 -5 18 -2 14 15 -5 17 -1 20
26 20 18 0 30 -4 27 -9 -6 -10 24 -25 32 -16 3 3 0 5 -6 5 -7 0 -12 4 -12 8 0
13 62 5 72 -10 7 -9 11 -10 14 -1 3 7 18 9 40 6 29 -5 34 -3 34 14 0 18 -9 21
-82 26 -46 3 -98 9 -117 13 l-33 7 6 51 c4 28 8 69 10 91 3 35 6 40 34 46 18
4 32 3 32 -2 0 -5 34 -9 75 -9 91 0 102 19 13 22 -35 0 -67 2 -73 3 -5 2 -21
3 -35 4 -30 2 -57 17 -47 27 4 4 54 7 112 6 83 -1 105 1 105 12 0 19 -32 26
-132 26 -49 0 -88 3 -88 8 0 6 48 7 155 2 59 -3 65 -1 65 15 0 11 -12 15 -45
15 -29 0 -45 4 -45 13 0 9 -2 9 -8 0 -7 -12 -107 -12 -119 0 -6 7 2 8 97 13
116 5 120 6 120 25 0 16 -9 17 -93 14 -73 -4 -94 -2 -94 9 0 10 20 12 94 8 87
-4 93 -3 93 15 0 17 -9 19 -93 21 -51 2 -106 7 -122 11 -20 6 6 8 75 5 58 -3
111 -1 117 4 14 9 26 75 13 67 -14 -9 -41 7 -36 21 8 22 -7 49 -29 51 -19 1
-19 0 3 -17 32 -26 16 -32 -100 -34 -72 -1 -103 -5 -106 -14 -2 -6 -8 -10 -13
-6 -5 3 -9 0 -9 -6 0 -7 -8 -9 -21 -5 -19 6 -20 5 -8 -8 11 -11 17 -12 28 -4
10 9 13 7 10 -8 -4 -18 -14 -20 -94 -22 -81 -2 -94 0 -127 22 -21 14 -47 25
-58 25 -22 0 -27 16 -8 22 8 3 4 9 -9 17 -19 9 -22 9 -17 -3 7 -19 -30 -56
-59 -58 -30 -2 -39 -4 -62 -14 -30 -13 -150 -10 -167 4 -8 6 -18 9 -21 6 -4
-4 -19 -2 -34 4 -15 5 -59 15 -98 22 -38 7 -75 16 -80 21 -9 7 -76 17 -166 24
-19 2 -37 3 -40 4 -3 1 -11 12 -17 25 -11 24 -9 25 31 31 83 11 158 12 147 1
-5 -5 -10 -15 -10 -20 0 -7 3 -8 8 -1 4 6 16 17 27 25 18 14 19 14 7 -2 -20
-25 1 -33 98 -35 196 -5 258 -8 255 -13 -2 -3 7 -5 20 -5 13 0 21 3 18 8 -2 4
2 7 9 7 35 2 125 12 136 15 7 3 23 0 34 -6 15 -8 19 -8 14 0 -4 6 0 11 11 12
10 0 31 2 48 4 18 3 36 -2 47 -12 11 -10 18 -12 18 -5 0 7 -6 12 -12 12 -7 0
1 7 17 16 44 24 86 24 120 1 22 -16 27 -17 16 -4 -12 16 -9 17 47 17 34 0 64
-5 67 -10 5 -8 11 -8 19 -1 8 7 25 7 47 1 19 -5 51 -11 72 -13 34 -4 37 -3 37
19 0 21 -5 24 -37 25 -21 1 -49 3 -63 5 -14 1 -75 5 -137 7 -61 3 -115 7 -121
11 -5 3 -34 -3 -63 -13 -30 -10 -85 -22 -124 -26 -66 -7 -69 -6 -55 11 10 14
8 13 -10 -3 -21 -18 -42 -22 -130 -27 -58 -4 -127 -2 -155 3 l-50 9 75 0 c41
1 90 5 109 11 18 6 36 9 40 9 3 -1 16 3 28 10 12 7 26 12 30 11 24 -4 45 4 71
26 17 14 34 25 39 23 11 -2 95 24 110 34 6 5 28 11 49 14 37 5 129 44 214 93
25 14 52 25 60 25 8 -1 23 -2 33 -3 14 -1 17 -6 12 -23 -4 -16 -3 -19 3 -9 10
14 52 7 52 -10 0 -6 4 -7 10 -4 5 3 10 17 10 30 0 19 -10 30 -40 45 -21 11
-51 20 -64 20 -32 0 -105 -28 -129 -49 -17 -14 -19 -14 -28 2 -6 9 -17 17 -26
17 -8 0 -30 13 -49 29 -28 25 -38 29 -63 21 -17 -4 -47 -22 -68 -38 -21 -17
-75 -49 -121 -72 -79 -41 -84 -42 -102 -25 -15 14 -29 16 -65 11 -87 -14 -205
-7 -242 12 -12 7 -47 19 -78 27 -57 14 -58 14 -119 -15 -87 -42 -229 -71 -366
-74 -63 -2 -120 1 -127 6 -11 9 -83 12 -127 6 -15 -2 -22 5 -28 33 -11 41 -42
57 -129 63 -47 4 -68 13 -145 64 -49 32 -104 66 -121 75 -24 13 -30 21 -26 38
5 19 11 20 49 14 49 -7 52 -3 30 48 -10 26 -11 41 -2 67 20 62 121 91 173 50
33 -25 47 -16 37 24 -4 17 -7 63 -7 101 0 63 3 76 37 130 49 80 89 121 145
149 49 25 133 46 182 46 42 0 120 -52 152 -103 22 -33 45 -35 53 -3 3 14 14
32 25 42 18 16 20 15 57 -25 41 -45 53 -49 72 -26 17 21 37 19 43 -5 7 -27 70
-24 75 4 6 27 -30 86 -55 93 -13 3 -23 11 -23 18 0 8 -5 17 -11 21 -11 7 -11
-9 2 -55 2 -9 -6 -17 -21 -21 -19 -5 -33 0 -58 22 -34 29 -94 39 -107 17 -5
-7 -12 -6 -23 3 -10 7 -34 22 -54 32 -41 21 -47 31 -22 40 12 5 15 16 12 42
l-4 35 60 -6 c51 -5 75 -1 144 23 45 15 82 27 82 25 0 -1 -7 -23 -16 -48 -12
-37 -13 -49 -3 -61 22 -27 41 -11 56 45 14 58 88 171 128 197 35 23 97 35 112
23 13 -12 41 0 62 25 22 26 116 14 150 -18 27 -26 28 -26 60 -10 42 21 38 47
-9 55 -19 4 -53 13 -75 21 l-40 15 45 28 c25 15 60 45 78 66 36 42 79 52 102
24 10 -12 7 -17 -16 -27 -65 -27 -95 -83 -62 -116 21 -21 36 -13 42 23 8 43
42 63 75 46 11 -6 33 -8 48 -5 21 6 31 2 48 -20 21 -27 24 -27 66 -15 24 6 59
11 78 11 55 -2 135 -29 151 -52 8 -11 23 -20 34 -20 11 0 39 -11 63 -25 43
-26 43 -26 43 -5 0 26 -37 59 -67 60 -21 0 -53 33 -53 55 0 13 72 45 101 45
17 0 20 5 17 37 -3 35 -6 38 -35 39 -37 2 -78 25 -108 60 -18 21 -24 22 -62
14 -28 -7 -51 -6 -70 1 -15 6 -29 9 -30 7 -2 -2 -16 8 -33 22 -33 27 -39 54
-14 64 25 10 12 38 -19 42 -98 10 -146 117 -91 202 23 35 79 54 158 54 65 0
70 -2 93 -31 26 -32 43 -33 43 -1 0 10 6 20 14 23 12 5 13 12 3 36 -8 22 -8
39 2 71 15 50 56 79 112 76 34 -1 39 2 37 19 -4 28 -47 31 -100 6 -68 -30
-108 -85 -108 -145 0 -23 -2 -23 -69 -18 -117 8 -206 -33 -242 -112 -24 -53
-24 -97 1 -129 11 -14 20 -28 20 -32 0 -10 30 -34 58 -45 12 -5 22 -17 22 -25
0 -44 66 -124 103 -125 9 0 17 -4 17 -8 0 -9 72 -8 87 1 11 7 53 -28 53 -44 0
-6 3 -8 8 -6 4 2 23 -1 42 -9 19 -7 28 -13 19 -13 -19 -1 -76 -29 -84 -41 -3
-4 -45 -8 -95 -8 -56 1 -95 -3 -104 -11 -12 -10 -16 -8 -21 8 -7 22 -39 35
-76 29 -18 -2 -24 3 -31 28 -6 23 -20 37 -52 55 -43 23 -46 23 -80 6 -38 -17
-49 -8 -18 15 25 18 46 98 40 156 -9 96 -93 227 -172 270 -139 75 -432 42
-494 -56 -12 -19 -26 -27 -47 -27 -16 -1 -41 -5 -54 -9 -16 -6 -21 -5 -17 3 4
6 4 21 1 32 -22 68 -213 47 -277 -30 -21 -24 -37 -31 -97 -40 -85 -13 -121
-30 -162 -74 -74 -81 -100 -203 -60 -278 l20 -36 -42 -13 c-23 -6 -46 -15 -52
-20 -5 -4 -21 -10 -35 -13 -32 -8 -79 -51 -109 -100 -18 -30 -22 -47 -17 -76
4 -28 2 -42 -9 -51 -8 -7 -15 -19 -15 -27 0 -8 -5 -11 -11 -8 -5 4 -9 17 -7
28 1 12 -4 37 -11 55 -11 26 -11 45 -2 92 6 33 16 88 22 123 7 34 20 71 29 82
25 28 39 59 57 118 8 29 20 66 27 82 20 48 37 95 58 165 46 153 120 386 127
400 4 8 16 43 27 77 l19 61 61 0 c36 0 73 6 90 15 24 13 29 21 29 54 0 34 3
38 28 41 16 2 43 -3 60 -11 26 -13 42 -13 87 -4 61 12 86 34 96 85 3 17 12 32
18 32 7 0 18 10 25 23 15 29 -3 101 -50 197 -16 34 -41 109 -55 167 -26 111
-46 167 -68 193 -25 28 -55 88 -62 125 -6 35 -4 44 41 135 7 14 15 52 18 85 7
70 24 172 31 184 3 5 6 31 7 59 2 43 4 48 16 36 8 -8 11 -19 7 -25 -4 -7 -3
-9 3 -6 6 4 24 1 40 -5 41 -15 93 5 93 36 0 16 10 25 36 35 20 7 48 30 66 54
17 23 28 33 24 22 -34 -92 -29 -268 8 -350 25 -54 162 -215 183 -215 32 0 8
-33 -51 -70 -75 -48 -114 -99 -132 -177 -31 -131 -9 -247 61 -318 85 -88 173
-135 251 -135 40 0 56 -19 48 -58 -9 -44 20 -121 63 -166 44 -47 123 -84 197
-92 47 -6 59 -3 82 15 l28 22 36 -36 c20 -19 41 -35 47 -35 6 0 16 -6 22 -13
6 -8 30 -20 53 -27 24 -8 48 -17 54 -22 20 -14 208 8 250 31 64 34 74 45 74
84 l0 36 -37 -40 c-49 -52 -122 -77 -220 -74 -105 3 -209 59 -248 135 l-17 32
-29 -28 c-23 -22 -40 -29 -88 -32 -36 -3 -61 0 -65 7 -4 6 -16 11 -26 11 -10
0 -42 21 -71 48 -46 43 -52 53 -56 98 -6 60 9 80 65 89 58 10 127 51 126 74 0
16 2 18 13 10 10 -9 13 -8 13 3 0 27 -11 26 -62 -7 -44 -29 -163 -64 -176 -51
-2 2 2 13 9 25 19 29 5 36 -38 22 -91 -30 -247 50 -306 157 -24 42 -24 174 -1
252 15 54 65 120 90 120 7 0 14 3 16 8 2 4 20 15 42 25 21 10 40 25 43 35 3
15 19 17 106 18 109 1 177 20 177 48 0 20 -8 20 -53 1 -36 -15 -179 -21 -210
-9 -9 3 -13 13 -10 24 4 15 -2 20 -34 26 -69 13 -126 62 -167 141 -14 29 -26
55 -26 58 0 3 -3 12 -7 20 -3 9 -3 68 -1 131 5 103 8 121 35 174 22 42 28 61
20 69 -8 8 -8 11 0 11 6 0 13 -5 15 -12 3 -7 19 2 42 23 60 55 117 89 147 89
18 0 40 11 59 30 32 31 67 38 102 19 32 -17 48 6 22 31 -35 35 -82 33 -139 -6
l-50 -34 -9 25 c-10 26 -43 34 -62 15 -14 -14 -44 -2 -46 19 -3 37 5 71 21 81
8 4 10 13 6 20 -4 7 2 18 14 26 12 9 21 26 21 40 0 13 4 24 8 24 4 0 16 14 26
30 15 26 16 36 6 66 -9 27 -9 38 0 49 18 21 57 18 88 -6 l27 -21 5 24 c4 15 8
19 14 10 11 -18 33 -14 39 7 6 24 52 54 125 81 45 17 67 19 133 14 67 -6 85
-11 118 -37 55 -42 92 -115 98 -191 5 -52 2 -66 -18 -97 -13 -20 -38 -41 -54
-48 -17 -6 -48 -29 -69 -50 -32 -33 -37 -43 -27 -55 15 -18 48 -10 54 15 3 10
29 30 63 45 101 46 246 36 293 -19 8 -10 24 -13 50 -10 23 3 41 1 45 -6 12
-18 26 -12 26 10 0 29 -27 48 -67 49 -17 0 -48 9 -67 21 -25 14 -60 23 -116
26 -75 5 -94 13 -70 28 15 9 12 85 -6 145 -18 62 -49 113 -95 159 -41 41 -67
51 -154 58 -110 8 -244 -39 -295 -104 l-20 -25 -17 21 c-18 21 -78 32 -101 17
-19 -12 -15 19 12 83 24 55 37 153 23 167 -17 17 -34 -7 -34 -49 -1 -27 -13
-69 -31 -108 -16 -35 -37 -85 -47 -111 -24 -69 -47 -65 -39 7 5 38 3 55 -5 55
-22 0 -10 18 23 34 38 18 39 39 2 89 -15 21 -17 30 -8 39 7 7 12 23 12 36 0
13 7 30 15 39 8 8 12 19 9 25 -8 13 -101 3 -120 -13 -8 -7 -17 -9 -21 -5 -9 9
57 76 75 76 22 0 92 42 92 55 0 21 -13 25 -39 11 -14 -8 -42 -21 -61 -30 -19
-9 -54 -30 -77 -48 -24 -17 -45 -29 -48 -26 -9 9 139 135 168 142 15 3 27 13
27 21 0 43 -53 23 -149 -57 -82 -69 -101 -79 -101 -55 0 34 119 144 183 169
22 9 18 33 -6 33 -8 0 -19 4 -23 8 -4 4 14 7 39 7 43 0 49 -3 73 -40 16 -23
27 -54 26 -71 0 -17 6 -49 14 -72 8 -23 17 -58 20 -77 8 -62 14 -73 31 -58 11
9 14 26 11 64 l-4 52 35 -5 c20 -2 56 -8 81 -13 70 -13 88 -11 95 11 4 11 11
17 16 14 11 -7 18 8 22 50 4 35 27 75 43 75 12 0 7 39 -5 41 -3 0 -33 2 -67 3
-33 2 -70 8 -82 15 -11 6 -44 14 -73 18 -48 7 -52 11 -63 43 -9 29 -8 41 6 71
10 21 20 70 23 110 2 41 16 128 31 194 14 66 30 145 34 175 7 50 19 110 65
325 8 39 17 89 20 111 2 23 8 52 13 65 5 13 13 47 17 74 4 28 10 57 11 65 2 8
6 35 9 59 3 25 10 63 16 84 13 49 28 136 35 199 2 27 9 59 14 74 6 14 10 30
10 35 0 14 -46 11 -48 -3 -1 -7 -6 -35 -11 -61 -11 -49 -15 -72 -27 -157 -3
-25 -10 -52 -14 -60 -4 -8 -11 -35 -14 -60 -20 -137 -29 -170 -49 -170 -13 0
-17 5 -13 18 3 9 2 23 -3 30 -6 10 -10 6 -15 -14 -5 -18 -3 -30 3 -32 6 -2 8
-9 5 -14 -4 -6 -3 -8 2 -5 22 13 35 -10 29 -46 -4 -20 -10 -35 -14 -32 -4 2
-6 -9 -3 -24 2 -15 -8 -83 -21 -152 -14 -68 -28 -135 -31 -149 -2 -14 -9 -43
-15 -65 -6 -22 -13 -62 -16 -90 -7 -64 -25 -141 -41 -181 -7 -17 -10 -34 -7
-38 3 -3 0 -24 -7 -46 -10 -30 -17 -39 -29 -35 -9 4 -29 9 -44 12 -18 4 -26
11 -23 19 4 11 27 114 42 189 2 11 8 40 13 65 5 25 13 63 17 85 7 38 9 47 13
85 1 16 32 51 66 75 19 14 19 14 -3 8 -12 -3 -30 -15 -38 -27 -16 -21 -16 -21
-11 4 3 14 9 48 12 75 4 28 11 64 16 81 5 17 11 40 14 50 2 10 11 39 19 63 9
24 14 46 11 49 -3 3 -1 10 4 16 5 6 16 45 25 86 28 126 56 242 73 300 9 30 16
64 15 75 -1 11 3 35 8 53 8 29 7 32 -15 32 -24 0 -30 -13 -39 -85 -5 -36 -5
-37 -51 -235 -20 -85 -49 -204 -65 -265 -16 -60 -48 -202 -70 -315 -48 -238
-46 -233 -59 -285 -5 -22 -17 -74 -26 -116 -16 -75 -17 -77 -46 -75 -41 2 -49
19 -34 74 23 85 73 316 90 412 10 52 25 120 35 150 10 30 18 62 18 70 1 31 64
319 102 470 10 39 26 117 35 168 5 27 3 32 -13 32 -14 0 -21 -9 -25 -27z
m-717 -556 c0 -1 -22 -2 -50 -2 -27 0 -50 1 -50 3 0 11 50 18 72 10 16 -6 28
-11 28 -11z m-63 -58 c-16 -4 -35 -13 -43 -20 -8 -6 -18 -8 -22 -4 -4 4 -2 10
4 12 6 2 19 10 29 17 10 7 28 11 39 8 19 -5 18 -6 -7 -13z m-627 -13 c0 -3 -4
-8 -10 -11 -5 -3 -10 -1 -10 4 0 6 5 11 10 11 6 0 10 -2 10 -4z m-120 -52 c5
-5 -11 -10 -42 -11 -59 -3 -119 -29 -173 -76 -39 -34 -41 -57 -6 -57 10 0 28
-11 41 -25 26 -28 50 -33 50 -10 0 18 39 35 78 35 31 0 18 -17 -17 -22 -34 -4
-38 -26 -7 -34 24 -6 54 3 166 48 35 14 91 81 93 113 3 33 15 36 32 6 11 -21
9 -31 -12 -78 -29 -64 -22 -85 23 -64 15 6 24 14 21 17 -3 3 -1 19 5 36 9 26
12 28 20 14 12 -21 2 -65 -19 -88 -18 -20 -10 -38 17 -38 12 0 25 13 36 37 10
20 20 31 22 25 4 -13 -22 -64 -42 -81 -8 -7 -12 -19 -9 -27 10 -26 38 -13 66
31 16 25 33 43 38 39 5 -3 -1 -14 -13 -25 -17 -15 -19 -22 -10 -26 10 -4 9 -9
-4 -24 -14 -15 -15 -22 -6 -31 10 -10 17 -10 32 0 37 23 52 16 45 -20 -8 -40
-51 -78 -85 -77 -45 1 -139 -9 -150 -16 -20 -13 11 -35 49 -35 27 0 32 -3 21
-10 -8 -5 -29 -10 -45 -10 -18 0 -38 -8 -48 -20 -22 -26 -21 -32 3 -53 11 -9
20 -29 20 -45 0 -15 9 -45 20 -67 11 -22 20 -45 20 -52 0 -8 11 -35 24 -62 21
-40 34 -52 75 -70 61 -26 91 -27 91 -4 0 14 3 13 16 -5 12 -17 14 -35 10 -66
-6 -37 -13 -47 -58 -77 -28 -19 -53 -40 -56 -47 -7 -23 28 -25 52 -3 13 12 36
25 51 29 39 11 74 99 58 143 -11 29 -6 37 13 20 5 -5 20 -11 34 -13 20 -2 26
-10 28 -34 4 -37 -31 -129 -61 -164 -47 -54 -48 -62 -21 -145 18 -55 24 -91
20 -124 -2 -25 -5 -50 -5 -54 -1 -5 -6 -5 -12 -2 -6 4 -8 13 -5 21 10 25 -34
143 -66 180 -28 31 -36 35 -62 29 -17 -4 -38 -7 -46 -6 -8 0 -67 0 -131 1
-101 0 -120 3 -142 20 -14 11 -35 20 -46 20 -12 0 -21 6 -21 14 0 14 -81 87
-132 119 -35 22 -35 33 1 52 29 15 30 14 95 -45 37 -33 72 -60 79 -60 6 0 26
-7 42 -16 23 -13 55 -16 134 -15 107 1 121 4 121 24 0 9 -31 13 -107 13 -95 1
-115 5 -166 29 -108 50 -141 142 -81 230 14 21 23 44 20 51 -3 8 8 29 24 47
41 47 25 63 -28 27 -24 -16 -61 -45 -83 -64 -28 -26 -48 -36 -72 -36 -33 0
-77 30 -77 51 0 13 -46 74 -87 117 -18 18 -33 41 -33 51 0 10 -3 21 -7 25 -5
4 -8 18 -8 29 0 12 -6 21 -12 19 -22 -4 -14 30 13 55 21 19 24 26 14 38 -14
17 -46 20 -55 5 -14 -23 -23 -12 -61 76 -12 30 -12 34 12 59 14 15 23 33 20
40 -3 10 4 13 23 13 41 -1 53 10 51 51 -3 53 -2 55 23 70 21 13 22 13 5 -6
-22 -24 -23 -42 -3 -49 8 -4 15 -14 15 -24 0 -24 17 -35 33 -21 8 6 18 6 27 1
21 -13 30 -3 30 34 0 40 50 96 87 96 17 0 24 5 22 18 -1 9 -1 19 0 22 2 9 141
4 151 -6z m670 -14 c0 -11 -7 -20 -15 -20 -18 0 -19 12 -3 28 16 16 18 15 18
-8z m-890 5 c0 -2 -10 -10 -22 -16 -21 -11 -22 -11 -9 4 13 16 31 23 31 12z
m-140 -15 c0 -5 -8 -10 -17 -10 -15 0 -16 2 -3 10 19 12 20 12 20 0z m454 -5
c3 -8 13 -15 22 -15 8 0 14 -5 12 -12 -8 -23 -24 -18 -41 12 -10 16 -14 30 -9
30 6 0 12 -7 16 -15z m716 -19 c0 -8 -7 -17 -16 -20 -28 -11 -35 -7 -24 14 12
23 40 27 40 6z m-756 -33 c38 -4 43 -10 25 -28 -12 -12 -20 -13 -47 -3 -18 7
-32 18 -32 25 0 18 -44 27 -69 13 -12 -6 -21 -18 -21 -27 0 -13 -3 -14 -12 -5
-9 9 -7 16 6 31 23 26 64 31 96 12 13 -8 37 -16 54 -18z m-348 -5 c-11 -15
-16 -18 -16 -7 0 16 21 42 28 34 2 -2 -3 -14 -12 -27z m-136 -14 c0 -8 -4 -12
-10 -9 -5 3 -10 10 -10 16 0 5 5 9 10 9 6 0 10 -7 10 -16z m1080 -5 c-7 -11
-14 -18 -17 -15 -8 8 5 36 17 36 7 0 7 -6 0 -21z m-192 -6 c-2 -10 -11 -19
-20 -21 -12 -2 -15 2 -11 17 7 25 36 28 31 4z m112 -3 c0 -5 -5 -10 -11 -10
-5 0 -7 5 -4 10 3 6 8 10 11 10 2 0 4 -4 4 -10z m145 0 c3 -5 1 -10 -4 -10 -6
0 -11 5 -11 10 0 6 2 10 4 10 3 0 8 -4 11 -10z m-1195 -21 c0 -18 -2 -19 -15
-9 -15 12 -12 30 6 30 5 0 9 -10 9 -21z m1240 -11 c0 -6 -6 -5 -15 2 -8 7 -15
14 -15 16 0 2 7 1 15 -2 8 -4 15 -11 15 -16z m-236 -23 c-10 -8 -28 -14 -39
-14 -16 1 -13 4 10 14 40 19 53 19 29 0z m-1059 -39 c-4 -20 -11 -36 -16 -36
-13 0 -11 54 3 68 17 17 20 9 13 -32z m1125 -6 c-14 -10 -26 -17 -28 -16 -7 8
12 35 26 39 28 6 28 -3 2 -23z m185 10 c-3 -5 -13 -10 -21 -10 -8 0 -12 5 -9
10 3 6 13 10 21 10 8 0 12 -4 9 -10z m-270 -51 c-4 -5 -15 -14 -26 -19 -23
-13 -26 2 -3 24 16 16 39 12 29 -5z m175 -74 c0 -2 -10 -9 -22 -15 -22 -11
-22 -10 -4 4 21 17 26 19 26 11z m-240 -94 c0 -22 -44 -83 -69 -95 -29 -14
-145 -21 -137 -8 3 4 26 9 53 11 26 1 52 6 58 12 13 13 -9 32 -39 32 -14 0
-26 4 -26 10 0 6 16 7 39 4 29 -4 44 0 58 13 29 26 63 38 63 21z m-220 -95 c0
-11 -19 -15 -25 -6 -3 5 1 10 9 10 9 0 16 -2 16 -4z m1205 -208 c51 -12 73
-23 63 -33 -3 -3 -21 1 -40 9 -32 14 -97 24 -174 29 -18 1 -30 7 -27 13 4 12
90 3 178 -18z m-63 -46 c4 -4 3 -25 -2 -47 -6 -26 -5 -42 2 -46 6 -4 6 -9 1
-12 -10 -6 -38 -4 -98 9 -22 4 -47 7 -55 5 -8 -2 -11 1 -7 5 4 5 22 8 40 9 21
0 32 5 33 15 0 8 4 23 9 33 4 9 4 24 1 33 -5 14 -1 15 31 9 21 -3 41 -10 45
-13z m38 -17 c-7 -8 -17 -15 -22 -15 -6 0 -5 7 2 15 7 8 17 15 22 15 6 0 5 -7
-2 -15z m-143 -11 c-3 -3 -12 -4 -19 -1 -8 3 -5 6 6 6 11 1 17 -2 13 -5z m143
-29 c-7 -9 -15 -13 -17 -11 -7 7 7 26 19 26 6 0 6 -6 -2 -15z m20 -40 c0 -1
-7 -8 -15 -15 -13 -10 -15 -9 -15 8 0 15 5 20 15 16 8 -4 15 -7 15 -9z m-752
-31 c16 -11 21 -22 17 -35 -10 -32 4 -42 32 -23 21 13 27 14 34 3 6 -10 3 -15
-11 -17 -12 -2 -20 -11 -20 -23 0 -22 4 -23 30 -9 13 7 21 6 30 -5 10 -12 9
-15 -8 -15 -21 0 -46 -23 -35 -33 3 -4 15 -7 27 -7 15 0 17 -3 8 -12 -18 -18
-14 -28 12 -28 32 0 55 27 35 42 -11 7 -9 8 6 3 19 -7 46 -12 73 -14 21 -2 13
-19 -10 -23 -30 -4 -34 -26 -7 -36 19 -7 20 -10 6 -15 -10 -4 -17 -2 -17 3 0
15 -45 -6 -46 -21 0 -8 5 -34 12 -59 7 -25 12 -52 12 -60 1 -8 4 -54 8 -102 7
-95 1 -129 -18 -110 -9 9 -9 15 0 24 7 7 8 17 2 29 -5 9 -12 43 -16 76 -3 32
-8 67 -9 78 -2 11 -4 35 -4 53 -1 39 -27 54 -47 28 -9 -12 -10 -26 -4 -41 5
-13 9 -32 9 -42 -1 -10 2 -34 5 -53 6 -38 15 -157 19 -258 2 -42 -2 -67 -10
-74 -10 -8 -13 7 -12 73 1 76 -6 191 -16 244 -14 76 -38 168 -55 215 -11 30
-20 67 -20 82 0 33 -13 36 -33 7 -14 -19 -12 -29 13 -105 32 -94 45 -158 31
-149 -6 3 -15 -3 -21 -14 -11 -22 2 -37 21 -25 6 3 15 0 20 -7 15 -24 10 -39
-13 -36 -17 1 -24 -4 -26 -20 -4 -26 1 -28 28 -13 13 7 19 6 24 -6 8 -21 -1
-34 -24 -34 -23 0 -32 -13 -24 -34 5 -12 10 -13 26 -5 24 13 24 13 33 -28 4
-21 3 -33 -4 -33 -6 0 -11 5 -11 11 0 18 -45 5 -48 -13 -3 -14 3 -18 27 -18
21 0 31 -5 31 -15 0 -10 -10 -15 -30 -15 -24 0 -30 -4 -30 -21 0 -17 5 -20 25
-17 16 4 25 1 25 -8 0 -7 -12 -14 -27 -16 -20 -2 -28 -9 -28 -23 0 -14 6 -19
18 -17 31 5 18 -14 -20 -30 -128 -55 -161 -61 -187 -35 -13 13 -34 17 -82 17
-35 0 -64 3 -64 8 0 14 -100 75 -125 75 -17 0 -25 5 -25 17 0 9 -13 31 -29 47
-16 17 -37 44 -48 59 -53 84 -126 152 -170 162 -22 5 -63 25 -92 46 -29 20
-59 36 -66 36 -8 0 -28 -12 -45 -26 l-31 -27 -15 22 c-8 11 -19 21 -24 21 -14
0 -70 -89 -70 -112 0 -12 7 -29 15 -39 15 -15 14 -20 -6 -55 -11 -22 -25 -43
-29 -49 -4 -5 -10 -22 -13 -36 -5 -20 -13 -26 -36 -26 -26 0 -30 5 -40 41 -17
69 -21 105 -12 111 12 7 22 74 25 158 2 51 8 74 22 90 10 12 26 41 34 64 17
49 79 132 98 133 7 0 21 7 29 16 13 13 28 14 72 9 63 -8 84 -17 118 -51 13
-13 30 -24 38 -24 8 0 15 -7 15 -16 0 -8 15 -21 33 -29 17 -7 42 -23 55 -35
34 -32 100 -52 147 -44 41 7 223 9 229 3 20 -22 56 -117 56 -147 0 -44 30 -80
70 -84 18 -2 25 3 31 22 14 51 9 160 -10 216 -20 55 -17 93 7 108 23 14 74
121 79 167 6 52 15 58 51 33z m652 -8 c84 -16 130 -32 130 -43 0 -5 -4 -14 -9
-22 -8 -12 -15 -10 -44 12 -28 21 -47 27 -94 28 -40 1 -67 8 -81 20 -28 22
-28 31 1 25 12 -3 56 -12 97 -20z m-365 -1 c33 -9 67 -18 75 -22 8 -3 18 -5
23 -5 7 2 55 -8 122 -24 l30 -8 -40 -5 c-31 -5 -43 -12 -55 -36 -8 -16 -15
-31 -16 -32 -2 -8 -166 28 -198 43 -29 15 -36 23 -32 39 3 11 6 30 6 43 0 26
7 27 85 7z m300 -115 c-3 -5 -24 -10 -46 -10 -34 0 -39 -3 -39 -23 0 -13 -9
-32 -20 -42 -20 -18 -20 -18 -14 16 12 62 20 69 75 69 31 0 48 -4 44 -10z
m275 -10 c14 -4 54 -14 90 -21 83 -15 84 -16 66 -45 -9 -13 -16 -37 -16 -55 0
-26 -3 -30 -17 -24 -10 3 -40 13 -68 20 -102 28 -110 32 -113 48 -2 9 2 17 8
17 6 0 0 15 -14 33 -15 19 -26 37 -26 41 0 8 48 1 90 -14z m-490 -63 c0 3 7 0
15 -7 8 -6 18 -9 23 -6 13 8 24 -54 13 -68 -6 -7 -9 -27 -9 -46 2 -75 -9 -125
-28 -128 -15 -2 -23 11 -41 70 -13 40 -27 96 -32 124 -6 28 -11 55 -12 60 -4
22 3 23 36 10 19 -8 35 -12 35 -9z m-108 -84 c2 -11 -6 -23 -20 -30 -32 -17
-32 -17 -32 11 0 22 9 29 42 35 3 0 8 -7 10 -16z m-10 -61 c15 -6 14 -9 -7
-19 -22 -10 -25 -9 -25 8 0 20 5 22 32 11z m38 -64 c0 -5 -5 -6 -11 -3 -5 4
-18 0 -28 -9 -17 -16 -19 -15 -23 6 -4 21 -1 23 29 20 18 -2 33 -8 33 -14z
m214 -8 c28 0 17 -17 -16 -24 -39 -8 -42 -4 -33 31 6 26 8 26 19 10 7 -9 21
-17 30 -17z m126 -25 c-11 -13 -10 -14 6 -9 16 6 17 5 7 -7 -7 -7 -13 -22 -14
-33 -1 -12 -5 -6 -9 14 -9 36 -6 50 12 50 6 0 6 -6 -2 -15z m-291 -19 c9 -11
9 -16 0 -22 -7 -4 -15 -2 -17 4 -5 16 -37 15 -51 -2 -8 -10 -9 -16 -1 -21 15
-10 12 -34 -9 -61 l-18 -23 -2 68 -1 68 44 1 c27 1 48 -3 55 -12z m234 -36
c-4 -4 -45 -15 -90 -25 -67 -15 -88 -24 -114 -51 -27 -28 -30 -34 -16 -40 10
-3 24 -3 33 0 10 4 21 0 28 -9 10 -14 20 -13 94 5 54 14 88 18 99 12 14 -8 13
-11 -8 -22 -13 -8 -25 -13 -26 -12 -3 2 -26 -5 -77 -25 -22 -8 -42 -10 -45 -5
-11 16 -40 21 -50 8 -15 -18 9 -39 29 -26 10 6 21 4 32 -7 13 -11 21 -13 30
-5 7 5 29 14 48 20 19 5 43 13 53 17 15 6 18 4 15 -15 -2 -18 -15 -27 -58 -41
-30 -10 -57 -16 -61 -13 -16 9 -37 -9 -43 -38 -3 -16 -16 -43 -28 -58 -13 -16
-32 -41 -42 -56 -11 -15 -50 -41 -90 -60 -58 -27 -72 -30 -79 -18 -4 8 -16 14
-26 14 -14 0 -17 8 -15 43 4 67 11 95 32 125 24 33 72 128 72 141 0 22 66 106
82 103 11 -2 18 5 20 20 3 20 12 24 71 34 37 6 70 14 73 17 3 2 19 -2 35 -10
17 -9 27 -19 22 -23z m-1409 -5 c27 -19 59 -35 71 -35 28 0 62 -27 116 -91 35
-42 43 -60 44 -95 2 -33 11 -54 41 -93 41 -55 62 -63 82 -31 15 25 33 25 63 1
22 -18 22 -19 6 -54 -22 -45 -23 -145 -1 -175 24 -35 41 -27 48 23 6 36 11 45
27 45 21 0 44 44 35 67 -5 11 -11 11 -35 -2 -39 -20 -41 -19 -41 10 0 28 25
44 41 28 7 -7 24 -7 47 -2 34 7 72 -3 72 -19 0 -4 -14 -20 -30 -36 -17 -16
-30 -34 -30 -41 0 -17 22 -35 42 -35 13 0 18 -8 18 -27 0 -29 25 -63 47 -63
16 0 16 4 3 52 -8 28 -8 44 1 60 15 27 35 48 46 48 5 0 17 14 26 30 10 17 26
30 35 30 9 0 45 16 80 34 34 19 62 30 62 26 0 -5 -4 -12 -10 -15 -16 -10 -11
-77 10 -123 15 -33 26 -44 50 -48 16 -4 30 -10 30 -14 0 -4 9 -10 20 -13 11
-3 20 -10 20 -16 0 -16 -15 -14 -30 4 -18 22 -39 18 -50 -7 -5 -13 -9 -17 -9
-10 -1 18 -18 15 -43 -10 -13 -13 -31 -21 -41 -20 -35 6 -65 -46 -36 -63 17
-11 56 4 61 23 4 15 12 18 37 14 22 -3 38 1 51 13 11 10 23 16 26 13 14 -15
-164 -98 -210 -98 -8 0 -11 12 -8 35 5 39 -4 43 -48 20 -36 -19 -41 -54 -8
-63 18 -4 14 -8 -23 -23 -54 -22 -79 -25 -61 -7 7 7 12 20 12 30 0 23 -33 24
-51 2 -12 -14 -14 -13 -21 6 -5 14 -4 28 3 37 8 9 9 17 2 24 -12 12 -63 -44
-63 -69 0 -10 14 -34 31 -55 l30 -37 -31 0 c-23 0 -33 -5 -37 -19 -7 -26 -25
-32 -78 -24 -41 5 -44 7 -33 27 6 11 16 24 22 28 7 4 2 16 -13 32 -37 39 -57
41 -103 10 -39 -27 -41 -28 -69 -12 -32 19 -36 13 -13 -20 20 -29 49 -28 91 4
27 21 37 23 48 14 12 -10 7 -20 -32 -61 l-48 -50 -57 5 c-32 3 -75 14 -96 25
-60 30 -135 120 -167 198 -34 82 -53 106 -78 99 -23 -6 -26 2 -31 99 -4 77
-20 135 -38 135 -16 0 -19 -26 -10 -83 9 -60 -1 -102 -13 -54 -12 47 -1 148
18 162 25 18 12 48 -15 34 -48 -26 -69 -185 -31 -238 10 -14 25 -41 32 -58 15
-37 15 -37 44 -21 20 10 21 10 9 -5 -11 -13 -11 -23 -2 -51 13 -40 46 -86 62
-86 11 0 7 46 -7 85 l-8 20 16 -20 c9 -11 17 -29 17 -40 0 -11 7 -33 15 -48 8
-15 12 -34 9 -42 -5 -12 -11 -12 -34 5 -15 11 -32 20 -37 20 -17 0 -51 44 -68
88 -10 23 -21 42 -26 42 -9 0 -37 60 -71 149 -28 72 -20 158 17 195 14 14 25
34 25 45 0 11 7 24 16 29 9 5 18 21 19 36 2 15 11 36 20 46 14 16 15 24 6 51
-21 61 -6 92 25 52 13 -17 16 -16 41 14 16 18 35 33 43 33 8 0 37 -16 64 -35z
m1436 -44 c0 -15 -14 -21 -82 -36 -35 -8 -74 -17 -87 -21 -19 -6 -22 -4 -19
12 2 13 21 23 68 35 76 19 120 23 120 10z m-370 -85 c0 -21 -16 -35 -38 -33
-25 1 -29 15 -7 23 8 4 15 12 15 20 0 8 6 11 15 8 8 -4 15 -11 15 -18z m-36
-90 c-3 -9 -10 -16 -15 -16 -6 0 -5 9 1 21 13 24 24 20 14 -5z m-721 -57 c5
-20 5 -20 -14 -3 -23 20 -28 54 -5 35 8 -6 16 -21 19 -32z m1067 -11 c-11 -24
-20 -53 -20 -66 0 -16 -5 -23 -17 -21 -10 1 -23 1 -29 0 -16 -1 -10 -64 7 -69
42 -11 43 -13 21 -28 -12 -8 -22 -22 -22 -30 0 -17 -23 -18 -50 -1 -17 10 -22
9 -30 -3 -11 -18 -4 -29 28 -42 18 -7 22 -12 13 -15 -7 -3 -25 4 -40 15 -20
15 -25 27 -23 53 1 19 3 44 3 56 1 14 14 31 35 44 19 11 34 27 34 36 0 26 69
99 107 112 1 1 -7 -18 -17 -41z m187 -56 c-7 -9 -13 -9 -23 -1 -11 9 -11 13 1
26 8 8 15 20 16 26 1 7 4 1 8 -13 4 -14 3 -31 -2 -38z m-62 38 c3 -6 -1 -7 -9
-4 -18 7 -21 14 -7 14 6 0 13 -4 16 -10z m33 -104 c2 -11 0 -16 -6 -12 -29 17
-77 -47 -66 -88 3 -14 -2 -28 -15 -40 -12 -11 -21 -25 -21 -32 0 -7 -5 -14
-11 -16 -5 -2 -13 -24 -16 -48 -3 -25 -17 -67 -30 -93 -20 -41 -22 -51 -11
-65 11 -13 11 -15 -4 -9 -12 4 -23 -5 -42 -37 -31 -53 -49 -68 -95 -81 -29 -9
-35 -15 -33 -33 2 -15 -2 -22 -12 -22 -9 0 -16 7 -16 16 0 9 -9 18 -19 21 -11
3 -22 11 -25 19 -4 11 0 13 18 8 41 -10 38 14 -4 38 -28 16 -40 30 -40 46 l0
23 29 -22 c16 -11 37 -19 47 -17 16 3 12 10 -23 46 -24 24 -43 50 -43 60 1 13
5 11 23 -10 21 -25 85 -58 113 -58 28 0 13 26 -21 39 -36 13 -111 78 -101 88
3 3 24 -9 48 -25 48 -34 144 -56 136 -31 -3 8 -22 19 -43 25 -48 13 -125 78
-125 106 0 18 3 17 29 -11 40 -43 86 -61 117 -47 34 16 30 26 -10 26 -41 0
-84 32 -103 77 -7 19 -20 36 -28 39 -15 6 -9 34 9 46 18 12 21 9 23 -23 2 -33
33 -72 73 -93 32 -18 103 -13 136 9 29 19 55 73 55 113 -1 15 -1 46 -1 70 -1
24 2 52 5 63 6 19 9 18 53 -14 26 -18 49 -41 50 -51z m-179 -137 c-24 -15 -29
-10 -11 11 10 12 18 16 21 9 2 -6 -3 -15 -10 -20z m127 -80 c3 -6 18 -18 33
-27 l28 -17 -80 -75 -79 -74 36 72 c20 39 36 85 36 102 0 30 13 40 26 19z
m-481 -39 c-3 -5 -11 -10 -16 -10 -6 0 -7 5 -4 10 3 6 11 10 16 10 6 0 7 -4 4
-10z m65 0 c0 -5 -5 -10 -11 -10 -5 0 -7 5 -4 10 3 6 8 10 11 10 2 0 4 -4 4
-10z m-131 -56 c5 3 12 -1 15 -10 10 -27 7 -37 -8 -24 -18 14 -58 10 -64 -8
-5 -16 38 -32 59 -21 13 7 17 3 17 -16 0 -22 -5 -25 -34 -25 -18 0 -36 -5 -39
-10 -4 -6 -11 -8 -16 -4 -6 3 -18 2 -27 -2 -9 -4 -28 -8 -42 -8 -36 -1 -35
-39 2 -46 20 -4 25 -9 19 -19 -5 -8 -16 -11 -24 -8 -8 3 -20 0 -26 -6 -8 -8
-11 5 -11 52 0 60 1 62 23 55 37 -13 61 -10 65 7 3 19 -53 44 -63 28 -4 -5
-11 -9 -16 -9 -6 0 -7 5 -4 10 3 6 -3 10 -14 10 -11 0 -23 -5 -27 -11 -7 -12
-13 -80 -14 -165 0 -48 -1 -51 -24 -47 -22 5 -23 6 -10 41 16 46 17 69 3 78
-14 8 -42 -19 -44 -43 -1 -10 -5 -29 -9 -42 -5 -12 -9 -84 -11 -160 -6 -252
-6 -250 -75 -272 -31 -9 -41 -8 -80 15 -25 13 -70 38 -100 54 -30 17 -64 38
-76 49 -23 20 -49 38 -81 54 -12 7 -25 25 -29 41 -5 27 -9 29 -34 24 -25 -4
-30 -1 -39 26 -14 39 -14 39 6 31 12 -5 15 -2 11 8 -21 50 -21 52 -10 45 8 -5
12 0 12 14 0 13 -12 28 -30 38 -16 9 -30 23 -30 30 0 16 11 15 36 -2 24 -17
50 -5 41 18 -4 9 -20 19 -37 22 -34 7 -57 29 -40 39 5 3 10 1 10 -5 0 -6 4 -9
9 -5 5 3 12 1 16 -5 4 -6 10 -8 14 -6 4 3 32 -4 62 -16 90 -35 230 -30 200 6
-14 17 4 43 21 30 35 -27 178 -6 178 26 0 6 9 10 20 10 11 0 30 11 42 25 12
14 27 25 33 25 7 0 20 9 30 20 23 26 93 46 108 31 17 -17 48 -13 54 8 6 24 44
42 60 29 7 -5 16 -7 22 -4z m131 -15 c0 -5 -4 -9 -10 -9 -5 0 -10 7 -10 16 0
8 5 12 10 9 6 -3 10 -10 10 -16z m-1053 -24 c8 -9 13 -18 11 -21 -3 -2 -13 5
-23 16 -21 23 -11 27 12 5z m1034 -66 l-9 -34 -1 31 c-1 17 2 34 6 37 12 13
14 -1 4 -34z m-1041 -14 c-7 -8 -8 -15 -2 -15 9 0 10 -56 0 -65 -2 -3 -9 10
-15 29 -9 28 -8 39 4 56 8 12 17 19 20 16 3 -3 0 -12 -7 -21z m1370 -5 c-6
-11 -13 -20 -16 -20 -2 0 0 9 6 20 6 11 13 20 16 20 2 0 0 -9 -6 -20z m-389
-2 c5 -57 -19 -218 -34 -233 -6 -7 -8 -1 -4 15 9 39 21 161 20 198 0 30 16 48
18 20z m-61 -39 c0 -12 -7 -19 -19 -19 -21 0 -45 -23 -34 -33 3 -4 17 -7 30
-7 16 0 23 -6 23 -18 0 -14 -8 -19 -35 -20 -32 -1 -35 1 -35 26 0 15 5 43 10
63 9 31 13 36 35 31 16 -3 25 -11 25 -23z m107 -61 c-3 -8 -6 -5 -6 6 -1 11 2
17 5 13 3 -3 4 -12 1 -19z m-1008 -107 c1 -19 -1 -32 -4 -29 -9 8 -23 133 -16
143 6 11 19 -60 20 -114z m772 89 c10 0 19 -7 19 -15 0 -11 -7 -14 -24 -9 -17
4 -25 1 -30 -12 -7 -18 8 -34 34 -34 9 0 16 -9 17 -21 2 -16 -2 -19 -15 -13
-9 4 -27 8 -39 8 -17 1 -21 6 -17 22 4 14 0 23 -10 27 -20 8 -21 27 -1 27 8 0
15 7 15 16 0 11 5 14 16 10 9 -3 24 -6 35 -6z m232 -20 c-3 -12 -8 -19 -11
-16 -5 6 5 36 12 36 2 0 2 -9 -1 -20z m-6 -52 c-3 -8 -6 -5 -6 6 -1 11 2 17 5
13 3 -3 4 -12 1 -19z m-323 -2 c-8 -38 -14 -46 -28 -40 -9 3 -16 17 -16 30 0
19 4 23 23 20 12 -1 21 -6 21 -10z m216 -5 c0 -15 -7 -19 -35 -18 -19 1 -35 2
-35 3 0 20 18 34 41 34 22 0 29 -5 29 -19z m-830 5 c0 -3 -4 -8 -10 -11 -5 -3
-10 -1 -10 4 0 6 5 11 10 11 6 0 10 -2 10 -4z m932 -48 c-9 -9 -12 -7 -12 12
0 19 3 21 12 12 9 -9 9 -15 0 -24z m-208 -31 c-9 -29 -10 -30 -26 -21 -7 5
-21 7 -30 6 -12 -2 -18 3 -18 15 0 15 8 19 41 20 37 2 40 0 33 -20z m101 -12
c-12 -58 -16 -67 -32 -61 -8 3 -22 6 -30 6 -13 0 -13 3 -3 15 7 8 19 15 26 15
22 0 16 27 -6 33 -33 9 -23 25 15 24 34 -1 35 -2 30 -32z m42 13 c-3 -8 -6 -5
-6 6 -1 11 2 17 5 13 3 -3 4 -12 1 -19z m48 -69 c-9 -41 -16 -90 -17 -109 0
-21 -9 -43 -21 -55 -21 -19 -21 -19 -13 0 4 11 9 29 11 40 2 11 10 52 19 90 9
39 19 81 22 94 3 13 7 21 10 19 2 -3 -3 -38 -11 -79z m-315 45 c0 -17 -4 -22
-15 -18 -8 4 -15 14 -15 23 0 10 7 18 15 18 9 0 15 -10 15 -23z m110 -43 c0
-5 -9 -11 -20 -14 -23 -6 -27 -27 -5 -27 8 0 15 -7 15 -16 0 -13 -3 -14 -15
-4 -8 7 -21 10 -29 7 -9 -4 -14 3 -14 21 0 15 2 30 5 35 6 10 63 9 63 -2z
m141 -24 c-10 -9 -11 -8 -5 6 3 10 9 15 12 12 3 -3 0 -11 -7 -18z m-251 -4 c0
-8 -5 -13 -12 -11 -18 6 -21 25 -3 25 8 0 15 -7 15 -14z m195 -42 c-5 -26 -15
-41 -15 -23 0 7 -9 12 -20 12 -16 0 -20 -7 -22 -32 l-1 -33 -4 32 c-6 43 9 68
41 68 21 0 25 -4 21 -24z m-878 7 c15 -7 40 -25 55 -40 66 -68 123 -112 208
-157 145 -76 242 -121 276 -127 16 -2 35 -7 43 -10 25 -9 142 -14 154 -7 6 4
23 8 37 9 14 2 49 6 78 9 36 5 52 3 52 -5 0 -6 -6 -10 -12 -7 -16 5 -48 -10
-48 -23 0 -6 16 -10 35 -10 40 0 47 -15 10 -24 -14 -4 -25 -13 -25 -21 0 -15
16 -19 53 -16 11 2 17 -5 17 -18 0 -12 -4 -21 -10 -21 -5 0 -10 -7 -10 -15 0
-14 11 -19 36 -16 9 1 39 -86 37 -109 0 -3 6 -14 13 -25 8 -11 14 -29 14 -40
0 -20 38 -105 52 -115 11 -9 48 -119 53 -159 5 -42 -9 -71 -35 -71 -10 0 -22
-4 -25 -10 -8 -14 -62 -13 -67 1 -2 7 -23 12 -46 12 -23 0 -42 4 -42 9 0 5 30
7 68 5 64 -4 112 7 112 25 0 9 -8 10 -122 11 -70 0 -78 2 -78 19 0 17 6 19 50
14 51 -6 100 6 100 24 0 5 -15 10 -34 10 -18 0 -54 3 -79 6 -44 6 -46 8 -61
55 -9 26 -16 58 -16 71 0 21 4 23 57 23 47 0 58 3 61 18 3 14 -5 17 -52 17
-36 0 -56 -4 -56 -12 0 -16 -13 -1 -17 20 -1 9 -5 37 -8 62 -3 25 -8 56 -11
70 -3 14 -7 50 -9 80 -4 48 -3 51 5 20 5 -19 12 -53 15 -75 13 -92 39 -135 82
-135 25 0 31 17 9 26 -8 3 -12 12 -10 19 3 7 -4 19 -16 25 -11 6 -18 15 -15
20 3 4 1 20 -5 35 -5 14 -12 42 -14 60 -3 19 -12 59 -20 90 -16 52 -28 66 -40
46 -3 -5 -15 -7 -26 -4 -25 7 -26 -13 -4 -152 8 -55 17 -118 18 -140 2 -22 7
-52 11 -66 4 -17 1 -30 -9 -38 -17 -14 -10 -45 9 -37 8 3 15 -5 18 -20 3 -15
0 -24 -9 -24 -7 0 -18 -2 -26 -5 -8 -3 -13 3 -14 17 -4 103 -9 157 -16 183 -5
17 -11 64 -14 105 -6 113 -35 180 -63 147 -8 -11 -7 -25 4 -58 10 -27 14 -63
11 -96 -2 -30 0 -53 6 -55 17 -6 26 -88 27 -265 1 -95 5 -183 11 -197 5 -13 6
-27 3 -30 -3 -3 0 -12 7 -21 9 -11 9 -15 1 -15 -6 0 -14 6 -17 14 -4 10 -15
13 -40 9 -29 -5 -33 -3 -28 11 3 9 14 15 23 14 21 -4 22 36 3 76 -11 22 -15
87 -16 290 -1 144 -6 268 -11 276 -5 8 -9 28 -10 45 0 23 -5 30 -20 30 -28 0
-44 -68 -21 -90 22 -22 20 -30 -8 -31 -23 -2 -24 1 -23 57 0 65 -15 93 -41 79
-10 -5 -25 -11 -34 -14 -12 -4 -18 -16 -18 -38 -1 -18 -6 -62 -13 -98 -10 -54
-16 -65 -32 -65 -26 0 -47 -14 -40 -26 4 -5 17 -9 31 -9 14 0 24 -6 24 -15 0
-11 -6 -12 -22 -6 -31 11 -48 4 -48 -20 0 -17 6 -20 32 -17 32 3 43 -8 30 -30
-7 -10 -15 -10 -36 -2 -30 11 -46 6 -46 -15 0 -17 54 -37 67 -24 6 6 10 -2 10
-21 0 -24 -4 -29 -16 -24 -27 12 -74 10 -78 -4 -3 -6 6 -16 19 -21 22 -9 22
-10 2 -10 -27 -1 -33 -8 -27 -32 5 -18 11 -19 44 -14 35 6 39 4 39 -14 0 -21
-13 -35 -24 -24 -11 11 -57 9 -67 -3 -13 -16 9 -32 51 -36 24 -2 36 -9 38 -21
3 -16 0 -18 -20 -11 -35 13 -91 10 -95 -3 -5 -14 -5 -14 71 -35 27 -7 51 -19
53 -25 3 -7 12 -13 21 -13 15 0 15 -1 0 -16 -15 -15 -19 -15 -50 3 -39 24
-113 26 -113 3 0 -8 15 -17 40 -22 22 -5 44 -14 50 -20 7 -8 0 -8 -25 -3 -32
8 -80 13 -137 14 -18 1 -23 7 -23 26 0 28 -9 31 -29 13 -11 -11 -12 -7 -6 22
4 19 7 51 7 70 l0 35 9 -42 c9 -37 33 -62 47 -48 9 8 3 77 -8 90 -29 36 -45
252 -20 290 13 20 10 65 -5 65 -20 0 -28 -16 -47 -100 l-17 -75 6 100 c3 55 9
108 14 118 6 9 7 17 4 17 -3 0 2 16 10 36 8 20 15 45 15 55 0 22 -18 35 -32
21 -14 -14 -37 -115 -43 -197 -4 -38 -10 -103 -15 -144 -9 -75 -8 -84 15 -136
15 -35 14 -161 -2 -158 -6 1 -23 5 -39 8 -16 3 -53 9 -82 12 -37 4 -58 12 -70
27 -9 12 -26 22 -37 24 -43 6 -46 10 -39 49 9 49 13 56 27 45 19 -14 72 -9 72
7 0 21 -63 35 -83 19 -9 -7 -13 -8 -10 -3 3 6 9 41 13 80 7 75 17 105 29 86 4
-6 18 -11 32 -11 19 0 25 5 22 18 -2 12 -13 17 -36 17 -25 0 -31 3 -26 15 3 8
9 23 12 33 4 15 11 18 38 12 30 -5 34 -3 34 15 0 18 -9 24 -26 18 -4 -2 -11 8
-16 21 -10 29 2 45 34 46 31 0 34 23 4 31 -36 9 -34 36 2 32 21 -2 27 1 27 17
0 13 -6 20 -17 19 -10 -1 -18 5 -18 12 0 10 9 14 26 12 33 -4 45 21 15 29 -12
3 -21 12 -21 20 0 11 7 13 30 8 36 -8 42 15 9 38 -11 8 -22 23 -23 33 -7 44
-42 15 -52 -42 -3 -14 -11 -44 -18 -67 -7 -23 -18 -60 -24 -82 -6 -22 -18 -67
-27 -100 -9 -33 -20 -69 -25 -81 -5 -12 -14 -57 -20 -100 -19 -128 -17 -121
-52 -127 -38 -5 -48 5 -48 48 0 17 4 26 8 20 10 -14 52 -19 52 -6 0 12 -25 37
-42 44 -7 2 -10 7 -6 11 3 4 16 3 27 -4 19 -9 21 -8 21 14 0 13 -7 26 -15 30
-19 7 -20 26 -1 26 23 0 28 17 14 41 -10 17 -10 23 0 26 6 3 12 14 12 25 0 11
8 22 19 25 16 4 20 13 18 42 -1 24 13 65 41 124 23 49 42 92 42 98 0 5 4 17 9
27 5 9 20 39 32 65 13 26 31 55 41 63 12 12 14 23 8 44 -4 16 -6 30 -4 33 3 2
-3 10 -11 17 -13 11 -19 10 -33 -5 -13 -13 -14 -19 -4 -22 6 -3 12 -9 12 -15
0 -7 -5 -6 -14 1 -10 9 -17 7 -27 -6 -8 -9 -10 -18 -4 -20 32 -11 39 -21 25
-38 -12 -15 -14 -15 -22 -1 -13 22 -38 20 -38 -3 0 -12 8 -21 20 -23 20 -3 19
-5 -9 -63 -17 -33 -31 -63 -31 -67 0 -3 -21 -50 -46 -105 -26 -54 -50 -109
-54 -123 -5 -14 -18 -50 -30 -80 -46 -120 -61 -175 -56 -210 12 -77 12 -75
-16 -78 -21 -3 -27 1 -30 19 -2 12 -13 26 -25 30 -20 7 -23 5 -23 -15 0 -14 6
-27 13 -29 6 -3 0 -6 -15 -6 -15 -1 -30 4 -33 9 -3 6 -1 10 4 10 6 0 11 18 11
40 l0 41 22 -21 c26 -24 41 -25 57 -6 11 13 2 27 -19 32 -3 0 -13 4 -22 8 -31
14 -20 27 17 20 33 -6 35 -5 35 20 0 21 -5 26 -25 26 -14 0 -25 5 -25 10 0 6
12 9 27 8 37 -4 45 29 9 38 -16 4 -23 11 -19 20 4 11 10 11 34 -2 27 -13 30
-13 36 2 4 11 -2 23 -17 34 -19 14 -21 20 -12 36 6 10 12 13 12 7 0 -18 29
-16 36 2 3 8 -1 22 -10 30 -9 9 -16 24 -16 32 0 14 2 14 18 0 10 -10 22 -17
25 -17 11 0 8 48 -4 52 -6 2 -3 12 8 24 21 24 25 95 6 101 -20 7 -57 -88 -44
-109 7 -11 7 -19 1 -23 -6 -3 -10 0 -10 8 0 19 -27 30 -37 14 -4 -6 -6 -27 -4
-45 1 -19 -4 -41 -12 -50 -25 -29 -74 -126 -70 -140 3 -7 -1 -10 -9 -7 -8 3
-23 -3 -33 -15 -10 -11 -22 -20 -26 -20 -18 0 36 125 71 165 9 11 37 54 60 95
24 41 57 93 75 115 18 22 51 76 74 119 23 44 55 99 71 123 17 24 30 48 30 52
0 11 72 46 102 50 4 1 20 -4 35 -11z m687 -13 c-4 -8 -12 -15 -20 -15 -17 0
-18 17 -1 23 22 9 27 7 21 -8z m82 -34 c0 -9 -10 -18 -20 -21 -28 -8 -31 -27
-6 -35 26 -8 21 -29 -8 -33 -25 -4 -27 -14 -10 -41 14 -23 4 -53 -16 -45 -19
7 -29 50 -17 73 17 31 40 104 36 112 -3 3 6 7 19 7 15 0 23 -6 22 -17z m-96
-37 c0 -9 -8 -29 -17 -45 -14 -24 -15 -33 -5 -49 14 -23 13 -24 -22 -10 -24 9
-25 11 -11 37 8 15 17 40 20 56 6 29 35 38 35 11z m232 -6 c-7 -7 -12 -8 -12
-2 0 14 12 26 19 19 2 -3 -1 -11 -7 -17z m-67 -21 c24 -18 12 -36 -20 -29 -28
5 -27 4 -19 26 7 20 15 20 39 3z m92 -27 c8 0 13 -7 11 -17 -2 -13 -13 -18
-34 -18 -26 0 -30 3 -26 23 3 15 10 21 19 18 8 -3 21 -6 30 -6z m-141 -47
c-10 -10 -19 5 -10 18 6 11 8 11 12 0 2 -7 1 -15 -2 -18z m184 -176 c0 -7 11
-24 24 -39 16 -19 31 -64 50 -145 39 -170 38 -165 26 -158 -5 3 -10 13 -10 21
0 20 -54 175 -81 233 -26 55 -37 117 -21 107 7 -4 12 -13 12 -19z m-420 -36
c0 -3 -7 -15 -15 -25 -14 -18 -14 -17 -12 11 1 20 6 29 15 26 6 -3 12 -8 12
-12z m-22 -264 c2 -116 4 -250 5 -297 3 -144 -16 -220 -43 -171 -6 12 -10 32
-8 45 1 13 -3 31 -11 40 -11 13 -13 39 -7 124 4 59 9 121 12 137 15 101 20
156 18 203 -1 28 2 55 7 58 5 3 9 18 9 33 0 22 7 41 14 41 1 0 3 -96 4 -213z
m76 137 c25 -9 19 -24 -9 -24 -16 0 -25 6 -25 15 0 16 9 19 34 9z m16 -69 c16
-10 2 -24 -23 -22 -21 1 -37 13 -37 30 0 8 43 2 60 -8z m-10 -71 c0 -7 -8 -10
-20 -7 -11 3 -20 8 -20 12 0 4 9 7 20 7 11 0 20 -6 20 -12z m-6 -50 c25 -10
19 -22 -9 -16 -14 2 -22 8 -19 13 6 11 8 11 28 3z m507 -49 c8 -16 6 -15 -10
4 -12 13 -21 28 -21 35 0 12 14 -5 31 -39z m-984 3 c-3 -8 -6 -5 -6 6 -1 11 2
17 5 13 3 -3 4 -12 1 -19z m478 -18 c13 -6 15 -9 5 -9 -8 0 -22 4 -30 9 -18
12 -2 12 25 0z m-461 -59 c7 -28 10 -51 7 -51 -7 0 -31 73 -31 97 0 27 10 9
24 -46z m286 19 c0 -19 -1 -19 -20 -3 -11 10 -20 19 -20 20 0 2 9 3 20 3 13 0
20 -7 20 -20z m719 -33 c0 -21 -1 -21 -9 -2 -12 28 -12 37 0 30 6 -3 10 -16 9
-28z m-542 8 c19 -20 14 -26 -15 -18 -12 3 -22 12 -22 19 0 19 18 18 37 -1z
m-835 -69 c-13 -29 7 -55 59 -76 19 -7 43 -21 54 -30 11 -10 36 -20 55 -23 78
-13 97 -18 140 -34 25 -10 50 -16 56 -15 6 1 17 -4 24 -13 10 -12 2 -26 -46
-84 -33 -38 -85 -103 -117 -144 -31 -41 -81 -102 -110 -136 -82 -95 -143 -175
-160 -207 -9 -16 -29 -44 -46 -62 -17 -18 -31 -35 -31 -38 0 -14 -65 -73 -87
-79 -39 -9 -73 -35 -73 -56 0 -19 -72 -99 -89 -99 -14 0 -21 -43 -9 -57 6 -8
17 -12 25 -9 9 4 8 -5 -6 -32 -10 -20 -30 -63 -44 -94 -47 -102 -159 -230
-213 -244 -56 -14 -147 34 -187 98 -33 52 2 218 71 327 45 72 120 129 204 155
33 10 66 87 78 177 5 48 20 113 31 145 11 33 22 64 23 69 1 6 10 24 19 42 9
18 17 41 17 51 0 19 71 237 91 277 5 11 13 34 19 50 28 92 38 110 71 127 23
12 35 14 40 7 4 -6 25 -15 48 -19 46 -8 71 6 71 39 0 23 11 34 24 21 6 -6 6
-18 -2 -34z m1056 12 c2 -11 -7 -17 -27 -20 -28 -4 -31 -2 -31 23 0 25 2 27
28 20 15 -4 28 -14 30 -23z m-1153 -18 c-3 -5 -11 -10 -16 -10 -6 0 -7 5 -4
10 3 6 11 10 16 10 6 0 7 -4 4 -10z m953 -1 c-2 -6 -7 -10 -11 -10 -4 1 -14 1
-22 1 -8 0 -15 5 -15 10 0 6 12 10 26 10 14 0 24 -5 22 -11z m212 -50 c0 -17
-3 -19 -13 -10 -8 6 -17 8 -20 5 -3 -4 -14 -3 -24 1 -15 7 -13 9 12 15 17 4
33 8 38 9 4 0 7 -9 7 -20z m-208 -9 c22 0 -1 -25 -25 -27 -30 -2 -30 -2 -21
22 4 9 13 14 21 11 8 -3 19 -6 25 -6z m218 -50 c0 -21 -16 -25 -57 -14 -33 9
-28 22 10 27 17 2 35 5 40 5 4 1 7 -7 7 -18z m-210 -20 c20 -12 9 -21 -18 -13
-12 3 -19 9 -16 14 7 11 15 11 34 -1z m198 -59 c-2 -10 -15 -17 -34 -19 -28
-3 -31 -1 -27 21 4 19 9 23 34 19 21 -3 29 -9 27 -21z m-394 3 c3 -9 6 -22 6
-31 0 -8 9 -28 21 -44 17 -24 25 -28 47 -23 39 10 51 22 45 45 -5 19 -4 20 15
8 16 -10 24 -11 33 -2 14 14 49 5 49 -14 0 -8 -13 -48 -30 -90 -16 -41 -30
-85 -30 -98 0 -13 -4 -26 -9 -30 -5 -3 -13 -20 -16 -38 -4 -17 -20 -70 -35
-117 -16 -47 -36 -112 -45 -144 -9 -33 -25 -78 -35 -100 -35 -76 -48 -113 -55
-155 -4 -23 -18 -61 -30 -84 -13 -22 -21 -45 -18 -50 3 -6 1 -7 -5 -3 -15 9
-30 -29 -47 -119 -7 -38 -20 -106 -29 -149 -15 -74 -15 -81 1 -98 16 -18 15
-20 -4 -39 -29 -29 -143 -37 -212 -14 -91 30 -135 97 -135 210 -1 68 32 145
87 205 18 19 41 53 51 75 11 22 25 52 33 67 11 21 11 33 3 48 -21 39 -29 573
-10 611 7 13 42 54 79 92 58 59 70 67 103 67 20 0 40 -4 43 -10 8 -13 92 -13
100 0 4 6 1 17 -5 25 -10 12 -9 15 8 15 11 0 23 -7 26 -16z m146 -3 c0 -6 -4
-13 -10 -16 -5 -3 -10 1 -10 9 0 9 5 16 10 16 6 0 10 -4 10 -9z m-553 -394 c1
-78 2 -182 3 -232 1 -49 -1 -99 -3 -110 -3 -11 -8 -48 -12 -81 -6 -52 -14 -72
-55 -128 -67 -92 -91 -146 -97 -219 -4 -54 -9 -65 -37 -89 -31 -27 -31 -27
-33 -134 -1 -60 1 -113 5 -119 4 -5 8 -21 10 -33 4 -29 48 -102 62 -102 6 0
10 -9 10 -20 0 -11 -3 -19 -7 -19 -22 4 -43 -3 -57 -17 -15 -14 -16 -13 -16
14 0 39 -52 110 -87 118 -16 4 -46 15 -69 25 -23 11 -53 16 -70 13 -160 -26
-243 -62 -303 -131 -23 -25 -41 -52 -41 -59 0 -21 -21 -16 -54 11 -25 20 -29
30 -28 70 3 63 17 88 42 75 15 -8 23 -5 39 16 12 15 22 42 22 60 1 19 2 37 3
42 1 4 6 23 10 42 4 19 23 62 41 95 18 33 31 65 28 71 -2 7 9 31 25 55 15 24
36 64 46 89 41 102 129 249 160 267 16 10 116 127 133 155 15 27 58 87 108
151 22 29 49 66 59 82 11 17 29 38 41 47 12 10 42 44 66 77 24 34 46 61 49 61
3 0 6 -64 7 -143z m1688 -141 c18 -8 36 -12 39 -9 7 8 53 -23 103 -70 64 -60
86 -109 87 -193 0 -61 -3 -77 -26 -111 -15 -22 -28 -58 -30 -79 -3 -35 -8 -42
-50 -64 -27 -14 -48 -30 -48 -37 0 -16 -34 -20 -97 -12 -40 6 -58 14 -80 38
-19 21 -32 28 -41 22 -11 -7 -11 -15 2 -45 12 -28 26 -42 61 -57 25 -11 45
-22 45 -23 0 -2 -15 -4 -33 -3 -34 1 -120 -34 -132 -53 -9 -15 -25 -12 -25 5
0 32 -26 12 -50 -37 -29 -59 -69 -86 -169 -110 -56 -15 -70 -15 -120 -2 -89
23 -134 43 -169 77 -46 43 -61 76 -68 144 -9 82 9 139 59 190 32 34 38 46 29
55 -28 28 -125 -83 -136 -155 -10 -65 3 -145 30 -196 13 -24 24 -45 24 -46 0
-1 -27 -5 -61 -9 -45 -4 -73 -14 -109 -38 -62 -42 -120 -117 -120 -156 0 -32
-21 -47 -39 -29 -6 6 -25 12 -40 13 -57 3 -108 66 -80 100 14 18 3 48 -15 41
-8 -3 -21 2 -30 12 -20 22 -20 31 -1 31 22 0 30 27 15 55 -14 27 -6 90 13 102
7 5 17 17 23 27 6 11 19 24 30 30 10 6 22 15 26 21 4 5 10 6 14 2 4 -4 13 -2
21 4 22 19 79 21 93 4 7 -8 19 -15 26 -15 16 0 19 36 4 45 -5 3 -10 17 -10 29
0 13 -7 40 -15 59 -20 49 -19 75 6 141 30 78 75 125 135 141 27 7 60 11 74 10
22 -1 25 -7 25 -38 1 -41 8 -52 30 -44 10 5 15 20 15 50 0 84 85 153 173 141
32 -5 45 -12 54 -30 10 -21 9 -24 -9 -24 -26 0 -90 -64 -83 -83 4 -10 -3 -16
-26 -21 -59 -12 -91 -66 -56 -95 17 -14 27 -4 27 25 0 26 27 37 76 32 26 -3
29 0 27 24 -4 60 105 105 188 78 22 -7 44 -19 50 -27 6 -7 15 -10 20 -7 14 8
10 50 -6 64 -21 17 -19 33 8 58 58 54 241 82 322 48z m-3370 -46 c35 -29 74
-50 93 -50 10 0 22 -4 28 -9 25 -26 288 -43 311 -20 8 8 23 6 54 -4 50 -17
112 -10 153 17 32 21 36 20 36 -4 0 -33 28 -79 60 -99 l30 -18 -39 -35 c-37
-33 -39 -34 -60 -17 -11 9 -21 21 -21 26 0 19 -103 86 -143 94 -72 13 -193 1
-258 -26 -11 -4 -18 0 -22 15 -5 19 -10 20 -44 14 -21 -4 -46 -11 -56 -16 -10
-5 -20 -8 -21 -6 -1 2 -10 15 -19 31 -16 25 -23 27 -77 27 -47 0 -60 3 -60 15
0 8 -4 15 -10 15 -13 0 -13 21 0 54 10 28 28 27 65 -4z m549 -641 c9 -51 90
-129 159 -153 51 -17 54 -17 110 2 45 15 57 16 57 5 0 -7 -9 -21 -20 -30 -58
-52 -76 -77 -85 -126 l-10 -52 -44 -3 c-34 -3 -51 3 -82 24 -21 15 -39 30 -39
35 0 4 -10 11 -22 14 -11 4 -38 24 -58 45 l-37 37 9 74 c7 64 49 196 54 172 1
-4 5 -24 8 -44z m1021 -133 c33 -32 68 -56 87 -61 18 -4 40 -10 48 -13 8 -3
68 -5 132 -5 l117 1 6 -28 c4 -16 5 -61 3 -99 l-3 -70 -43 -7 c-54 -8 -133 2
-144 19 -4 6 -8 28 -8 47 0 98 -105 112 -112 15 -2 -33 -8 -42 -32 -54 -69
-33 -116 46 -124 207 -3 73 -1 102 7 102 6 0 36 -24 66 -54z m495 -94 c0 -9 9
-32 20 -49 19 -31 19 -33 1 -33 -10 0 -28 -9 -41 -20 -13 -11 -24 -20 -24 -20
-1 0 -3 48 -4 107 l-3 107 25 -37 c14 -21 26 -46 26 -55z m583 64 c34 -23 53
-53 59 -96 l6 -35 -87 -1 c-77 0 -93 -4 -151 -33 -81 -42 -156 -105 -177 -148
-8 -18 -26 -43 -38 -55 -13 -12 -21 -28 -18 -35 3 -7 0 -20 -7 -29 -7 -8 -13
-37 -14 -63 l-1 -49 -47 -4 c-63 -7 -121 -53 -145 -117 -19 -51 -80 -113 -87
-89 -2 7 -7 47 -11 88 -3 41 -9 101 -12 133 -4 45 -2 57 8 55 8 -2 17 13 24
38 11 44 32 77 45 69 5 -3 12 0 15 5 4 7 19 8 36 5 34 -8 38 8 15 54 -27 52 9
110 69 111 17 0 47 -9 66 -19 38 -21 59 -14 59 19 1 11 3 11 12 -4 9 -17 12
-17 22 -5 6 9 19 18 30 22 15 6 17 14 12 40 -5 27 -1 41 24 75 31 44 64 67 80
57 6 -4 23 3 38 15 23 19 36 21 88 17 33 -2 72 -12 87 -21z m-1793 -93 c0 -14
-19 -38 -25 -32 -8 8 5 39 16 39 5 0 9 -3 9 -7z m-930 -80 c35 -15 51 -18 75
-10 17 6 33 14 36 19 3 5 14 -9 23 -32 31 -78 69 -101 171 -103 48 -1 77 3 88
12 21 17 21 16 -1 -39 -31 -80 -60 -125 -86 -140 -15 -7 -40 -33 -56 -58 l-29
-43 -15 30 c-19 36 -79 56 -142 47 l-42 -5 26 52 c30 59 32 114 7 174 -21 50
-41 71 -98 99 -26 14 -45 29 -41 35 4 7 12 5 22 -4 10 -8 37 -23 62 -34z
m1393 -39 c64 -32 79 -53 87 -118 6 -61 29 -79 62 -51 13 11 33 26 45 32 30
17 36 5 40 -81 1 -38 5 -78 8 -87 3 -10 0 -27 -7 -38 -10 -17 -10 -25 0 -41
15 -24 16 -57 2 -65 -6 -4 -10 -37 -10 -73 2 -116 -5 -222 -15 -221 -6 1 -14
3 -20 5 -5 2 -37 11 -70 20 -33 8 -76 20 -95 25 -19 5 -51 12 -70 15 -19 2
-46 11 -60 18 -14 8 -55 30 -91 49 -60 32 -73 35 -130 32 -35 -2 -111 -14
-169 -26 -236 -48 -220 -46 -277 -28 -34 12 -72 16 -108 14 -30 -3 -55 -2 -55
2 0 23 26 72 40 76 10 3 28 34 44 78 15 41 37 82 49 91 16 12 21 26 20 57 -2
35 1 41 18 41 10 0 19 7 19 15 0 15 123 192 148 212 18 15 33 8 26 -11 -6 -17
23 -76 45 -92 13 -10 14 -15 2 -37 -8 -15 -11 -36 -7 -51 5 -21 3 -26 -13 -26
-10 0 -24 -7 -31 -15 -7 -8 -23 -15 -37 -15 -55 0 -181 -81 -183 -118 -1 -4
-5 -27 -9 -52 -8 -38 -5 -51 15 -91 29 -55 69 -95 79 -80 8 14 -3 71 -14 71
-14 0 -31 51 -31 94 0 55 49 125 88 127 46 2 77 -3 90 -14 15 -12 28 -1 34 28
2 14 13 21 38 25 l35 5 -3 56 c-3 51 -2 56 22 67 14 6 26 16 26 22 0 5 5 10
10 10 6 0 36 27 68 60 98 104 236 137 345 84z m-783 -29 c0 -2 -10 -9 -22 -15
-22 -11 -22 -10 -4 4 21 17 26 19 26 11z m1460 -26 c0 -22 -25 -48 -47 -49 -7
0 -13 7 -13 15 0 8 6 15 14 15 8 0 18 9 21 20 8 27 25 26 25 -1z m-342 -41
c-5 -49 14 -103 41 -120 19 -11 18 -13 -10 -30 -31 -19 -38 -48 -14 -68 13
-10 13 -16 0 -40 -30 -58 -35 -110 -15 -153 12 -24 17 -50 14 -67 -7 -31 26
-70 58 -70 38 0 54 84 17 95 -17 6 -19 12 -14 33 4 15 9 63 11 106 2 44 8 84
14 90 13 13 13 42 -1 69 -7 12 -12 59 -13 105 -1 78 0 83 19 78 11 -3 44 -9
72 -12 48 -6 52 -9 47 -29 -8 -32 -8 -253 0 -358 6 -83 9 -91 44 -133 20 -25
48 -48 61 -51 26 -6 161 -93 201 -128 19 -18 41 -24 97 -27 40 -3 80 -11 89
-18 14 -12 13 -15 -10 -27 -33 -17 -245 -10 -336 12 -129 31 -224 39 -277 24
-62 -17 -100 -15 -132 9 -29 22 -30 39 -17 272 7 137 13 184 28 227 9 25 9 35
-2 48 -7 9 -14 28 -15 43 -1 15 -5 57 -9 95 l-8 67 32 0 c32 0 32 0 28 -42z
m-1057 -41 c-6 -6 -25 -3 -51 7 -47 18 -53 20 -45 7 3 -5 1 -12 -5 -16 -11 -7
-13 9 -4 42 l6 22 54 -27 c33 -16 50 -30 45 -35z m-81 -37 c0 -5 -4 -10 -10
-10 -5 0 -10 5 -10 10 0 6 5 10 10 10 6 0 10 -4 10 -10z m-960 -18 c0 -8 -101
-62 -115 -62 -14 0 2 20 35 44 34 24 80 34 80 18z m-104 -139 c-10 -10 -19 5
-10 18 6 11 8 11 12 0 2 -7 1 -15 -2 -18z m119 -103 c-20 -22 -31 -20 -22 5 4
8 14 15 23 15 16 0 16 -2 -1 -20z m-81 -27 c-10 -40 -14 -41 -14 -5 0 18 5 32
10 32 6 0 8 -11 4 -27z m-50 -140 c-4 -12 -3 -31 1 -40 4 -10 8 -46 10 -81 2
-59 1 -63 -19 -60 -20 3 -21 8 -19 103 3 157 1 143 18 121 8 -11 12 -29 9 -43z
m156 -67 c0 -3 -4 -8 -10 -11 -5 -3 -10 -1 -10 4 0 6 5 11 10 11 6 0 10 -2 10
-4z m1666 -52 c27 -4 73 -15 102 -25 28 -10 52 -16 52 -13 0 2 16 -3 36 -11
44 -18 74 -19 75 -2 0 6 5 -4 12 -23 18 -52 68 -81 137 -79 30 1 70 9 88 16
37 16 90 12 169 -12 29 -9 79 -17 110 -19 32 -2 65 -6 73 -9 8 -3 22 -5 30 -5
8 0 36 -2 61 -5 25 -3 51 -2 58 2 7 5 27 5 44 1 22 -5 41 -2 60 9 26 15 30 15
40 0 7 -9 28 -19 47 -22 163 -30 250 -59 293 -101 6 -6 32 -20 57 -30 48 -21
70 -41 70 -64 0 -21 -155 -12 -191 11 -21 14 -30 15 -52 4 -30 -14 -31 -16
-18 -51 10 -23 8 -25 -37 -35 -52 -11 -258 -4 -284 10 -9 5 -28 9 -42 9 -14 0
-51 14 -83 30 -31 17 -67 30 -78 30 -12 0 -30 7 -41 14 -17 14 -12 15 56 13
70 -2 75 -1 78 20 3 18 -8 27 -60 53 -85 42 -123 48 -360 56 -210 6 -218 8
-218 50 0 13 -11 26 -27 34 -27 13 -27 14 -5 18 23 4 29 17 12 27 -6 4 -38 10
-71 15 -34 5 -68 15 -78 23 -24 22 -117 47 -174 47 -41 0 -48 3 -43 16 3 9 6
20 6 26 0 6 10 3 23 -5 13 -8 46 -19 73 -23z m-161 -14 c3 -5 1 -10 -4 -10 -6
0 -11 5 -11 10 0 6 2 10 4 10 3 0 8 -4 11 -10z m2772 -4 c-4 -10 1 -13 16 -10
12 2 16 2 10 -2 -21 -10 -15 -24 9 -21 12 1 23 -3 23 -10 0 -6 4 -15 9 -20 5
-5 6 -3 2 5 -4 7 -1 12 8 12 47 0 -18 -39 -99 -59 -96 -24 -210 -62 -214 -72
-4 -12 -34 -25 -111 -46 -60 -17 -444 -27 -434 -11 3 4 49 8 103 8 94 0 264
20 326 39 53 16 160 67 173 84 8 9 20 13 28 10 8 -3 14 -1 14 4 0 5 20 19 44
32 25 12 55 33 68 46 26 28 32 31 25 11z m-3094 -13 c-7 -2 -19 -2 -25 0 -7 3
-2 5 12 5 14 0 19 -2 13 -5z m2442 -93 c38 -27 159 -37 249 -21 63 11 83 7 66
-13 -12 -15 -152 -41 -173 -33 -8 3 -19 1 -24 -4 -9 -9 -25 -10 -138 -9 -27 0
-151 -1 -275 -3 -124 -2 -232 -1 -240 2 -8 3 32 11 90 17 155 18 326 64 345
94 5 9 73 -12 100 -30z m-3765 -10 c0 -5 -9 -10 -19 -10 -11 0 -23 5 -26 10
-4 6 5 10 19 10 14 0 26 -4 26 -10z m10 -60 c0 -5 -2 -10 -4 -10 -3 0 -8 5
-11 10 -3 6 -1 10 4 10 6 0 11 -4 11 -10z m1865 0 c3 -5 18 -10 32 -10 14 0
36 -11 48 -24 26 -28 75 -35 315 -41 91 -2 197 -8 235 -11 l70 -7 -45 -11
c-42 -10 -45 -13 -42 -41 5 -42 17 -53 81 -71 56 -16 70 -22 166 -73 l50 -26
-45 -5 c-36 -4 -44 -9 -42 -22 4 -24 -19 -23 -104 2 -120 36 -137 39 -219 46
-128 11 -157 11 -170 -2 -10 -11 -16 -10 -28 4 -15 16 -15 19 4 30 24 15 40
53 32 80 -4 17 -23 25 -96 42 -50 11 -110 31 -132 44 -31 18 -62 25 -137 31
-54 4 -98 9 -98 10 0 2 12 17 27 34 20 23 36 31 60 31 17 0 35 -4 38 -10z
m1665 -60 c0 -5 -21 -9 -47 -9 -43 1 -45 2 -18 9 44 11 65 11 65 0z m70 -6 c0
-2 -14 -4 -31 -4 -16 0 -28 4 -25 9 5 8 56 3 56 -5z m-200 -4 c13 -8 12 -10
-2 -10 -10 0 -18 -4 -18 -9 0 -12 -38 -2 -47 12 -3 5 -1 7 5 3 6 -3 13 -2 17
4 8 13 25 13 45 0z m347 -36 c-3 -3 -12 -4 -19 -1 -8 3 -5 6 6 6 11 1 17 -2
13 -5z m-1919 -50 l47 -26 -49 6 c-27 3 -71 6 -99 6 -49 0 -50 0 -32 20 25 28
76 26 133 -6z m-231 -8 c17 0 29 -5 26 -10 -7 -11 -124 1 -137 14 -8 8 3 9 34
4 25 -3 59 -7 77 -8z m63 -6 c0 -5 -5 -10 -11 -10 -5 0 -7 5 -4 10 3 6 8 10
11 10 2 0 4 -4 4 -10z m409 -39 c24 -9 46 -22 48 -28 3 -9 -6 -8 -32 3 -21 8
-76 24 -124 34 l-86 19 75 -6 c41 -3 95 -13 119 -22z m1557 -30 c-21 -8 -76
-2 -76 8 0 3 21 4 48 2 31 -2 41 -6 28 -10z m1102 -5 c3 -4 -34 -6 -82 -5 -57
1 -84 5 -75 11 15 9 146 4 157 -6z m-3383 -17 c5 -5 -2 -9 -18 -9 -19 0 -27
-5 -27 -17 0 -16 -13 -18 -116 -19 -73 0 -110 3 -100 8 9 5 16 17 16 28 0 11
9 21 23 23 34 8 211 -4 222 -14z m2069 -1 c3 -7 10 -34 17 -61 9 -31 18 -46
26 -42 13 4 29 -1 102 -33 18 -8 59 -16 90 -18 31 -2 79 -6 108 -9 28 -3 54
-2 57 3 3 5 45 10 93 11 49 1 113 4 143 7 34 3 84 -1 128 -10 41 -9 77 -14 81
-11 5 2 25 -5 47 -15 21 -11 48 -20 60 -20 12 0 24 -5 26 -12 2 -6 35 -14 74
-17 52 -5 69 -10 69 -21 0 -8 -9 -15 -20 -16 -11 -1 -33 -2 -50 -3 -16 -1 -36
-5 -42 -9 -21 -13 -26 -65 -9 -87 19 -26 34 -12 39 35 3 27 10 36 28 40 28 7
59 1 60 -11 3 -26 1 -50 -11 -108 l-13 -63 -33 5 c-18 3 -41 14 -52 25 -12 12
-52 27 -95 37 -57 13 -95 29 -158 70 -57 38 -96 56 -128 60 -25 4 -55 10 -66
15 -49 21 -179 27 -353 17 -51 -2 -94 -1 -97 3 -4 7 -68 21 -110 25 -76 6 -89
15 -120 76 -26 55 -28 62 -12 70 9 5 14 16 11 24 -4 9 0 15 10 15 8 0 20 9 26
20 12 23 68 28 74 8z m848 -13 c16 -14 36 -25 44 -25 8 0 14 -4 14 -9 0 -6 12
-6 32 0 18 5 44 9 58 8 18 0 12 -4 -22 -16 -41 -14 -46 -18 -39 -37 10 -27 62
-45 129 -43 30 1 51 -2 49 -8 -2 -5 -28 -10 -58 -11 -30 -1 -58 -3 -64 -5 -5
-2 -20 2 -31 9 -12 6 -24 9 -27 6 -3 -3 -22 3 -44 14 -21 11 -53 23 -70 27
-18 3 -33 10 -33 14 0 5 -17 11 -37 14 -21 4 -60 13 -87 20 -43 12 -46 15 -24
19 14 3 34 1 43 -4 12 -7 22 -5 35 7 11 10 24 14 31 9 8 -5 10 -3 4 6 -5 8 -3
11 6 8 8 -3 20 1 27 9 19 18 30 16 64 -12z m-612 -38 c138 -6 296 -24 318 -36
9 -5 22 -5 31 1 11 6 41 3 91 -11 l75 -19 -170 0 c-93 0 -181 -4 -195 -9 -14
-6 -36 -6 -50 -2 -14 4 -51 7 -83 8 -36 1 -72 8 -97 21 -22 11 -46 20 -53 20
-18 0 -32 17 -42 49 l-7 24 33 -21 c28 -17 55 -21 149 -25z m465 23 c3 -5 1
-10 -4 -10 -6 0 -11 5 -11 10 0 6 2 10 4 10 3 0 8 -4 11 -10z m-910 -55 c14
-22 32 -57 41 -77 10 -21 23 -38 31 -38 7 0 13 -7 13 -15 0 -8 3 -15 8 -16 4
0 16 -2 27 -4 11 -2 38 -6 60 -9 60 -9 139 -28 150 -36 11 -8 90 -6 243 6 55
4 92 3 92 -2 0 -5 -21 -10 -48 -11 -26 0 -68 -8 -93 -16 -83 -28 -186 -20
-369 29 -36 9 -72 23 -81 30 -8 8 -42 19 -75 25 -71 14 -98 36 -114 94 -15 53
-9 72 22 77 56 8 69 3 93 -37z m-1694 24 c11 -5 17 -14 14 -18 -2 -5 1 -9 8
-8 48 1 87 -18 87 -43 0 -10 -71 -3 -80 8 -7 10 -37 15 -98 16 -32 1 -52 5
-52 12 0 7 -12 15 -27 20 l-28 7 30 7 c47 12 124 11 146 -1z m1529 -24 c0 -8
-2 -15 -4 -15 -2 0 -6 7 -10 15 -3 8 -1 15 4 15 6 0 10 -7 10 -15z m1477 -1
c3 -10 -9 -11 -77 -5 -23 2 -23 3 -5 10 28 11 78 8 82 -5z m88 7 c3 -5 1 -13
-5 -16 -15 -9 -43 3 -35 15 8 13 32 13 40 1z m-3339 -33 c-9 -5 -16 -15 -16
-22 0 -17 34 -31 125 -51 39 -9 93 -24 120 -34 28 -10 68 -21 90 -25 51 -9
146 -46 141 -55 -11 -18 16 -32 70 -37 32 -3 102 -14 154 -24 52 -11 116 -22
141 -25 51 -6 137 -30 245 -68 79 -28 193 -47 284 -47 110 0 306 -48 297 -73
-4 -12 -258 -15 -317 -4 -19 4 -110 7 -201 7 l-167 0 -68 37 c-68 36 -86 40
-194 47 -30 2 -75 11 -100 20 -25 9 -53 16 -62 16 -10 0 -39 16 -65 37 -74 56
-200 111 -322 138 -60 14 -124 25 -141 25 -17 0 -39 4 -49 9 -10 6 -58 10
-107 11 -121 2 -132 1 -139 -10 -3 -6 -17 -7 -31 -4 -13 3 -30 2 -37 -3 -6 -5
-37 -15 -67 -22 -30 -7 -71 -23 -90 -36 -19 -12 -78 -38 -130 -59 -125 -48
-190 -78 -190 -86 0 -11 -165 -27 -338 -34 -40 -2 -75 -5 -77 -8 -6 -6 -56 -2
-94 8 -44 10 -4 21 65 19 35 -2 66 1 69 5 3 5 14 6 24 3 10 -3 45 1 78 8 32 7
74 13 93 14 19 0 42 5 50 10 8 5 40 22 72 36 31 15 60 33 65 41 10 17 84 44
138 51 22 3 49 8 59 13 11 4 17 4 14 -2 -4 -5 -30 -18 -58 -29 -52 -20 -108
-75 -77 -75 8 0 17 7 21 15 5 15 107 65 131 65 21 0 139 62 160 84 49 54 221
120 302 118 18 -1 35 3 38 8 3 5 12 7 19 4 8 -3 17 -1 20 5 4 6 17 6 37 -1 26
-9 29 -12 15 -20z m1010 -15 c-6 -7 -76 20 -76 28 0 4 18 0 40 -8 22 -9 38
-18 36 -20z m534 27 c37 0 38 -1 55 -55 10 -31 24 -55 31 -55 8 0 14 -4 14 -9
0 -6 14 -23 32 -39 l31 -30 -44 8 c-59 11 -99 27 -99 40 0 5 -6 10 -14 10 -32
0 -66 44 -73 94 -5 44 -4 49 11 43 10 -4 35 -7 56 -7z m185 -60 c0 -37 5 -47
36 -72 24 -19 50 -30 80 -33 89 -8 253 -45 268 -60 14 -14 10 -15 -49 -10 -56
6 -103 14 -160 30 -8 2 -42 9 -75 15 -58 11 -125 38 -125 50 0 3 5 11 12 18 8
8 8 15 1 24 -14 18 -13 90 1 85 6 -2 11 -23 11 -47z m-1116 10 c10 -5 10 -9 2
-14 -17 -11 -142 4 -135 16 4 5 15 8 25 5 11 -3 16 -1 13 5 -7 11 70 2 95 -12z
m631 -33 c25 -16 36 -26 25 -23 -11 4 -33 10 -50 13 -42 8 -65 21 -65 37 0 20
35 9 90 -27z m2016 -9 c3 -4 -11 -8 -30 -8 -20 0 -36 4 -36 9 0 12 59 11 66
-1z m-1451 -8 c3 -5 1 -10 -4 -10 -6 0 -11 5 -11 10 0 6 2 10 4 10 3 0 8 -4
11 -10z m-2300 -20 c-9 -15 -95 -63 -101 -57 -3 3 19 18 48 35 63 36 61 34 53
22z m1852 -19 c12 -9 20 -23 17 -32 -3 -12 2 -15 25 -11 35 5 109 -46 88 -60
-7 -5 1 -6 17 -2 16 4 31 2 35 -4 7 -12 170 -56 246 -67 28 -4 58 -11 68 -16
9 -6 66 -12 125 -15 133 -6 135 -7 202 -26 30 -9 91 -24 135 -33 44 -9 87 -20
95 -23 23 -8 134 -2 145 9 14 14 133 10 203 -6 71 -17 169 -49 179 -58 10 -11
-795 2 -815 12 -33 18 -102 41 -122 41 -11 0 -20 4 -20 10 0 18 -73 41 -160
51 -133 15 -143 17 -170 27 -14 5 -51 12 -82 16 -32 4 -58 12 -58 17 0 13 -31
41 -71 63 -18 11 -51 37 -72 58 -21 21 -44 38 -52 38 -7 0 -15 9 -18 20 -5 18
-2 20 16 14 12 -4 32 -14 44 -23z m110 -7 c-7 -7 -37 7 -37 17 0 6 9 5 21 -1
11 -7 19 -14 16 -16z m103 -53 c25 -11 40 -21 33 -21 -16 0 -123 47 -123 54 0
6 25 -3 90 -33z m-1623 10 c76 -24 182 -78 189 -95 3 -7 30 -26 60 -41 30 -15
53 -30 50 -32 -2 -2 -33 7 -68 20 -147 58 -249 79 -398 83 -69 2 -143 -2 -165
-7 -42 -12 -131 -92 -120 -109 6 -9 -11 -14 -42 -13 -7 1 -13 -3 -13 -7 0 -5
-21 -12 -47 -15 -27 -3 -75 -15 -107 -27 -45 -15 -81 -20 -153 -19 -83 1 -95
-1 -99 -16 -4 -14 -14 -18 -52 -16 -26 1 -75 3 -110 4 -40 1 -61 6 -59 13 5
15 105 25 111 11 3 -6 8 -5 14 3 5 8 13 13 18 12 5 -1 50 1 99 5 95 7 138 22
195 66 19 14 75 43 123 63 48 20 110 48 137 62 28 14 65 30 83 34 17 5 55 15
82 23 75 22 201 21 272 -2z m1776 -48 c18 -9 48 -20 67 -25 42 -11 49 -12 75
-20 11 -3 33 -9 49 -13 15 -3 26 -8 24 -10 -5 -5 -154 25 -242 49 -28 7 -52
18 -54 24 -6 18 44 15 81 -5z m-1313 -101 c19 -15 43 -35 53 -45 11 -11 36
-20 62 -22 24 -1 48 -6 54 -10 6 -3 49 -8 94 -10 46 -2 96 -10 112 -17 28 -12
25 -13 -50 -16 -67 -3 -158 6 -341 34 -30 4 -54 35 -54 69 0 15 -96 85 -117
85 -13 0 -17 12 -7 22 8 8 152 -59 194 -90z m1560 78 c12 -8 11 -10 -7 -10
-13 0 -23 5 -23 10 0 13 11 13 30 0z m-2060 -55 c30 -9 82 -22 115 -31 33 -8
71 -23 85 -32 34 -23 110 -52 136 -52 12 0 27 -7 34 -15 16 -19 57 -17 -483
-19 -247 0 -429 2 -405 7 23 4 51 9 60 10 10 2 20 6 24 10 3 3 19 3 35 0 35
-7 71 23 98 83 17 37 22 41 56 42 21 1 40 3 42 5 11 11 155 5 203 -8z m2620
-65 c-8 -5 -49 -9 -90 -8 l-75 2 80 6 c44 3 85 7 90 8 6 1 3 -3 -5 -8z M2635
7695 c-89 -30 -160 -46 -185 -40 -16 4 -34 4 -39 0 -14 -8 -2 -35 15 -35 8 0
14 -6 14 -13 0 -16 41 -37 70 -37 12 0 20 -7 20 -16 0 -9 8 -18 19 -21 11 -3
17 -11 15 -21 -2 -10 0 -23 5 -31 8 -12 12 -12 25 -2 14 12 16 9 16 -18 0 -24
-6 -34 -25 -41 -28 -11 -31 -22 -11 -39 29 -24 76 21 76 72 0 31 8 38 30 25
14 -9 29 -9 62 1 83 25 91 30 77 47 -7 8 -18 13 -25 10 -6 -2 -14 4 -17 15 -5
17 -11 19 -49 14 l-43 -6 28 18 c32 21 38 58 7 50 -15 -4 -20 0 -20 14 0 22
-16 24 -50 4 -29 -17 -40 -18 -40 -7 0 5 11 14 25 20 14 6 25 18 25 27 0 15
-5 17 -25 10z m-41 -65 c-5 -5 -29 -11 -54 -15 l-45 -5 50 18 c51 18 66 19 49
2z m72 -35 c-19 -15 -46 -20 -46 -10 0 6 40 24 55 24 6 0 1 -6 -9 -14z M2258
7576 c-16 -8 -28 -13 -28 -10 0 2 -13 -2 -30 -11 -39 -20 -38 -42 3 -53 41
-11 64 -5 70 19 4 15 11 18 36 13 34 -7 35 -6 21 30 -11 29 -32 33 -72 12z
M2260 7480 c0 -5 9 -10 20 -10 11 0 20 5 20 10 0 6 -9 10 -20 10 -11 0 -20 -4
-20 -10z M2212 7343 c-23 -5 -46 -35 -35 -47 14 -14 51 -5 72 18 19 21 20 24
6 30 -9 3 -17 5 -18 5 -1 -1 -12 -4 -25 -6z M2256 7277 c-22 -13 -41 -28 -43
-34 -7 -20 29 -23 55 -4 15 10 37 21 49 25 11 4 27 13 33 21 20 24 -48 18 -94
-8z M2267 7213 c-13 -12 -7 -23 12 -23 10 0 21 7 25 15 5 15 -24 22 -37 8z
M3079 6594 c-14 -17 -13 -70 3 -148 14 -70 19 -204 7 -211 -5 -4 -9 11 -9 32
0 48 -13 71 -32 56 -9 -8 -13 -39 -12 -110 1 -89 3 -98 20 -98 14 0 21 10 25
35 4 19 7 27 8 18 2 -28 30 -21 42 10 11 27 6 231 -5 262 -3 8 -8 47 -10 85
-2 39 -4 73 -5 78 -2 12 -18 8 -32 -9z m8 -396 c-3 -8 -6 -5 -6 6 -1 11 2 17
5 13 3 -3 4 -12 1 -19z M4005 6770 c-3 -5 -1 -10 4 -10 6 0 11 5 11 10 0 6 -2
10 -4 10 -3 0 -8 -4 -11 -10z M3012 5948 c-18 -18 -15 -38 6 -38 25 0 31 7 25
31 -6 22 -14 24 -31 7z M2865 5420 c-3 -5 -1 -10 4 -10 6 0 11 5 11 10 0 6 -2
10 -4 10 -3 0 -8 -4 -11 -10z M2870 5365 c0 -8 9 -15 20 -15 11 0 20 7 20 15
0 8 -9 15 -20 15 -11 0 -20 -7 -20 -15z M2862 5283 c2 -10 10 -18 18 -18 8 0
16 8 18 18 2 12 -3 17 -18 17 -15 0 -20 -5 -18 -17z M2837 5233 c-13 -13 -7
-21 24 -32 50 -17 70 6 24 27 -30 14 -39 15 -48 5z M2799 5178 c-1 -7 -1 -16
0 -20 0 -3 -13 -5 -29 -3 -22 3 -30 0 -30 -11 0 -15 40 -36 93 -49 36 -10 37
17 1 34 -15 6 -24 14 -22 17 3 2 18 -2 34 -11 16 -8 37 -15 47 -15 29 0 19 29
-16 44 -62 25 -77 28 -78 14z M2340 5070 c0 -5 5 -10 10 -10 6 0 10 5 10 10 0
6 -4 10 -10 10 -5 0 -10 -4 -10 -10z M2106 4974 c-5 -14 -4 -15 9 -4 17 14 19
20 6 20 -5 0 -12 -7 -15 -16z M2072 4914 c4 -21 22 -23 26 -1 2 10 -3 17 -13
17 -10 0 -15 -6 -13 -16z M2197 4506 c-3 -8 2 -16 14 -19 21 -6 34 7 24 23 -9
15 -32 12 -38 -4z M2201 4456 c-9 -10 -8 -16 3 -25 10 -9 16 -8 25 3 9 10 8
16 -3 25 -10 9 -16 8 -25 -3z M3202 4402 c2 -12 15 -17 43 -19 22 -2 49 -5 59
-7 23 -6 56 10 56 27 0 8 -25 13 -81 14 -71 2 -80 0 -77 -15z M2193 4343 c-7
-3 -13 -11 -13 -18 0 -15 64 -40 80 -30 12 7 13 32 3 38 -16 9 -58 15 -70 10z
M1673 3373 c-3 -10 -17 -45 -29 -77 -18 -45 -21 -62 -13 -73 9 -10 15 -10 25
-2 8 6 14 15 14 20 0 5 11 32 25 61 14 28 25 60 25 70 0 24 -38 24 -47 1z
M1974 3345 c-9 -24 15 -48 33 -33 19 15 78 -5 116 -40 50 -47 32 -162 -37
-233 -44 -44 -120 -74 -166 -64 -23 5 -32 3 -36 -10 -4 -10 -1 -21 6 -25 17
-10 24 -56 11 -65 -6 -3 -8 -11 -5 -18 3 -9 -15 -12 -65 -12 -76 0 -97 -11
-86 -44 7 -24 35 -29 35 -6 0 23 65 19 111 -7 44 -24 52 -42 53 -112 1 -61 17
-68 45 -22 35 56 18 111 -51 161 -16 12 -19 19 -10 22 27 10 44 37 40 64 -4
25 -2 27 42 33 38 5 55 15 97 57 73 72 88 107 88 202 0 78 0 79 -37 112 -54
50 -171 75 -184 40z M4520 1736 c0 -2 8 -10 18 -17 15 -13 16 -12 3 4 -13 16
-21 21 -21 13z M3790 1626 c0 -2 7 -7 16 -10 8 -3 12 -2 9 4 -6 10 -25 14 -25
6z M1140 8529 c0 -5 -13 -15 -29 -20 -45 -16 -48 -39 -6 -39 28 0 37 6 49 29
15 27 12 41 -6 41 -4 0 -8 -5 -8 -11z M2480 8516 c-7 -10 -21 -14 -35 -10 -30
7 -42 -13 -19 -31 24 -18 24 -19 59 10 21 17 26 28 19 35 -8 8 -15 6 -24 -4z
M2297 8508 c-2 -8 -21 -13 -47 -13 -27 0 -45 -5 -48 -13 -3 -9 3 -12 16 -10
11 2 29 -5 39 -15 22 -19 53 -14 53 9 0 8 7 17 15 20 8 4 15 12 15 20 0 17
-37 19 -43 2z M1695 8414 c-11 -12 -19 -13 -29 -5 -7 6 -16 8 -19 4 -12 -11
-8 -40 7 -52 16 -13 46 -4 46 13 0 7 12 18 26 24 14 7 22 17 19 22 -9 15 -31
12 -50 -6z M4165 8329 c-4 -6 -5 -12 -2 -15 2 -3 7 2 10 11 7 17 1 20 -8 4z
M1224 8296 c-3 -8 -21 -17 -40 -20 -23 -5 -34 -12 -34 -24 0 -13 9 -17 42 -17
35 0 43 4 46 20 2 11 8 24 13 30 14 14 11 25 -6 25 -9 0 -18 -6 -21 -14z
M1426 8275 c-9 -9 -16 -21 -16 -26 0 -5 -11 -7 -25 -3 -16 4 -30 1 -40 -9 -24
-25 -18 -32 31 -34 34 -1 47 2 51 15 3 9 13 25 21 35 22 24 1 45 -22 22z
M1350 8179 c0 -5 5 -7 10 -4 6 3 10 8 10 11 0 2 -4 4 -10 4 -5 0 -10 -5 -10
-11z M4114 8134 c3 -9 6 -18 6 -20 0 -2 4 -4 9 -4 5 0 7 9 4 20 -3 11 -10 20
-15 20 -6 0 -7 -7 -4 -16z M4070 8015 c0 -8 4 -15 10 -15 5 0 7 7 4 15 -4 8
-8 15 -10 15 -2 0 -4 -7 -4 -15z M4070 7966 c0 -4 7 -14 15 -22 8 -9 15 -11
15 -6 0 5 -7 15 -15 22 -8 7 -15 9 -15 6z M4050 7925 c0 -8 2 -15 4 -15 2 0 6
7 10 15 3 8 1 15 -4 15 -6 0 -10 -7 -10 -15z M4066 7903 c-6 -14 -5 -15 5 -6
7 7 10 15 7 18 -3 3 -9 -2 -12 -12z M4090 7899 c0 -5 5 -7 10 -4 6 3 10 8 10
11 0 2 -4 4 -10 4 -5 0 -10 -5 -10 -11z M4085 7869 c-4 -6 -5 -12 -2 -15 2 -3
7 2 10 11 7 17 1 20 -8 4z M4080 7801 c0 -7 -3 -10 -7 -8 -5 3 -14 -1 -21 -9
-10 -11 -10 -14 1 -14 17 0 42 28 33 37 -3 3 -6 1 -6 -6z M4013 7775 c0 -8 4
-15 9 -15 4 0 8 4 8 9 0 6 -4 12 -8 15 -5 3 -9 -1 -9 -9z M1293 7765 c-22 -15
-46 -69 -36 -79 13 -13 30 -5 41 19 9 20 19 25 47 25 28 0 35 4 35 19 0 11 -9
21 -22 25 -34 9 -41 8 -65 -9z M3450 7750 c0 -5 5 -10 10 -10 6 0 10 5 10 10
0 6 -4 10 -10 10 -5 0 -10 -4 -10 -10z M1040 7714 c-166 -38 -217 -69 -341
-207 -56 -63 -84 -105 -99 -145 -11 -32 -24 -66 -29 -77 -43 -98 -28 -304 29
-414 42 -81 142 -192 202 -222 48 -25 101 -26 96 -2 -2 11 -17 20 -41 25 -20
4 -48 15 -62 24 -29 19 -132 144 -152 186 -49 97 -69 310 -37 385 53 126 75
164 99 173 14 5 25 16 25 24 0 19 79 106 97 106 7 0 13 4 13 9 0 5 21 19 48
31 26 12 55 26 66 32 66 35 149 47 239 33 56 -9 65 9 15 29 -50 20 -108 24
-168 10z M3405 7710 c-3 -5 -1 -10 4 -10 6 0 11 5 11 10 0 6 -2 10 -4 10 -3 0
-8 -4 -11 -10z M4000 7636 c7 -7 14 -6 21 1 9 9 7 12 -9 10 -14 -1 -18 -5 -12
-11z M3325 7610 c3 -5 8 -10 11 -10 2 0 4 5 4 10 0 6 -5 10 -11 10 -5 0 -7 -4
-4 -10z M3975 7570 c3 -5 14 -10 23 -10 15 0 15 2 2 10 -20 13 -33 13 -25 0z
M3963 7535 c0 -8 7 -15 15 -15 12 0 12 3 2 15 -7 8 -13 15 -15 15 -1 0 -2 -7
-2 -15z M4006 7535 c-3 -8 -1 -15 3 -15 5 0 11 7 15 15 3 8 1 15 -3 15 -5 0
-11 -7 -15 -15z M3979 7483 c-13 -16 -12 -17 4 -4 9 7 17 15 17 17 0 8 -8 3
-21 -13z M3955 7429 c7 -11 35 -12 35 -1 0 4 -9 8 -20 9 -11 1 -18 -2 -15 -8z
M3983 7383 c0 -22 0 -22 13 -6 17 23 17 30 0 30 -8 0 -13 -11 -13 -24z M3938
7373 c6 -2 18 -2 25 0 6 3 1 5 -13 5 -14 0 -19 -2 -12 -5z M3976 7324 c-5 -14
-4 -15 9 -4 17 14 19 20 6 20 -5 0 -12 -7 -15 -16z M3925 7320 c-3 -5 -1 -10
4 -10 6 0 11 5 11 10 0 6 -2 10 -4 10 -3 0 -8 -4 -11 -10z M3954 7265 c0 -13
6 -21 11 -18 15 5 13 40 -1 40 -6 0 -11 -10 -10 -22z M3920 7250 c0 -5 5 -10
11 -10 5 0 7 5 4 10 -3 6 -8 10 -11 10 -2 0 -4 -4 -4 -10z M3920 7219 c0 -6 7
-9 15 -5 10 3 15 -1 15 -12 0 -14 2 -15 9 -2 6 8 7 18 5 22 -8 12 -44 10 -44
-3z M4545 6900 c3 -5 8 -10 11 -10 2 0 4 5 4 10 0 6 -5 10 -11 10 -5 0 -7 -4
-4 -10z M933 6633 c-20 -7 -15 -37 7 -51 20 -12 40 -9 40 6 -1 16 -36 49 -47
45z M964 6526 c-14 -57 74 -144 178 -178 69 -22 220 -27 243 -8 18 15 27 -13
15 -46 -19 -50 -12 -75 38 -124 53 -54 110 -76 231 -89 60 -6 78 -4 120 14 62
26 91 52 91 81 0 37 -19 38 -53 2 -58 -61 -119 -72 -231 -43 -114 30 -191 114
-141 155 20 16 19 49 -1 71 -13 15 -21 16 -37 8 -14 -8 -21 -8 -26 0 -5 8 -22
8 -53 3 -43 -9 -116 -3 -183 13 -62 15 -144 93 -145 138 0 36 -37 39 -46 3z
M1138 5623 c7 -3 16 -2 19 1 4 3 -2 6 -13 5 -11 0 -14 -3 -6 -6z M4901 5416
c-13 -7 -32 -11 -42 -9 -11 3 -24 -5 -34 -21 -17 -25 -17 -28 0 -46 20 -22 35
-18 35 10 0 13 13 23 43 32 23 8 43 22 45 31 4 20 -14 21 -47 3z M2170 5301
c0 -5 7 -12 16 -15 14 -5 15 -4 4 9 -14 17 -20 19 -20 6z M4769 5266 c-43 -31
-20 -133 39 -174 60 -44 72 -17 15 33 -30 26 -37 39 -37 68 0 25 6 41 19 51
20 14 16 28 -8 32 -7 1 -20 -3 -28 -10z M4873 5030 c-72 -17 -152 -93 -137
-129 3 -9 7 -27 8 -41 2 -37 21 -30 24 10 6 64 67 121 145 135 21 4 37 13 37
21 0 15 -26 17 -77 4z M4683 4805 c-44 -31 -51 -109 -13 -169 22 -36 82 -71
145 -83 16 -4 45 -21 64 -40 38 -37 71 -44 71 -14 0 12 -9 21 -25 25 -35 9
-43 34 -16 52 11 8 21 22 21 30 0 19 -34 18 -50 -1 -16 -19 -77 -19 -124 0
-35 15 -76 74 -76 110 0 26 29 75 45 75 8 0 15 7 15 15 0 19 -29 19 -57 0z
M4612 4473 c-10 -4 -10 -8 -1 -19 17 -20 39 -17 39 6 0 20 -12 24 -38 13z
M4555 4456 c-35 -15 -122 -108 -137 -146 -13 -33 -13 -159 0 -172 20 -20 29 3
29 75 1 41 6 85 13 98 17 33 101 119 117 119 7 0 13 9 13 20 0 11 -1 20 -2 20
-2 -1 -17 -7 -33 -14z M4870 4441 c0 -5 18 -18 40 -29 36 -18 40 -18 40 -3 0
9 -5 22 -12 29 -14 14 -68 16 -68 3z M389 1857 c-37 -25 -42 -40 -16 -45 20
-4 76 37 76 56 1 19 -22 14 -60 -11z M4800 1686 c0 -2 8 -10 18 -17 15 -13 16
-12 3 4 -13 16 -21 21 -21 13z M4885 1669 c-4 -6 -4 -13 -1 -16 3 -4 6 -1 6 6
0 8 8 10 23 6 17 -5 19 -4 7 4 -19 14 -27 14 -35 0z M4696 1653 c-6 -14 -5
-15 5 -6 7 7 10 15 7 18 -3 3 -9 -2 -12 -12z M571 1635 c-61 -22 -151 -93
-151 -120 0 -7 -19 -12 -42 -13 -86 -4 -142 -28 -202 -88 -28 -28 -47 -38 -81
-42 -42 -4 -45 -7 -45 -34 0 -26 2 -28 21 -18 11 7 27 9 35 6 23 -9 79 19 117
57 59 58 98 77 148 71 24 -2 49 -7 56 -9 7 -2 24 10 38 28 64 81 120 120 178
126 4 1 7 12 7 25 0 14 -3 27 -7 29 -5 2 -37 -6 -72 -18z M4850 1625 c-7 -9
-8 -15 -2 -15 5 0 12 7 16 15 3 8 4 15 2 15 -2 0 -9 -7 -16 -15z M4480 1595
c7 -8 17 -15 22 -15 5 0 3 7 -6 15 -8 8 -18 15 -22 15 -3 0 -1 -7 6 -15z
M4575 1484 c9 -9 19 -13 23 -10 3 4 0 11 -8 16 -24 15 -33 11 -15 -6z M3660
1480 c-9 -6 -10 -10 -3 -10 6 0 15 5 18 10 8 12 4 12 -15 0z M3719 1463 c-13
-16 -12 -17 4 -4 9 7 17 15 17 17 0 8 -8 3 -21 -13z M4832 1451 c7 -11 16 -17
20 -15 5 3 2 12 -6 20 -21 20 -28 17 -14 -5z M4309 1443 c-13 -16 -12 -17 4
-4 16 13 21 21 13 21 -2 0 -10 -8 -17 -17z M4490 1456 c0 -2 8 -10 18 -17 15
-13 16 -12 3 4 -13 16 -21 21 -21 13z M3835 1440 c-3 -6 1 -7 9 -4 18 7 21 14
7 14 -6 0 -13 -4 -16 -10z M4760 1440 c0 -5 5 -10 10 -10 6 0 10 5 10 10 0 6
-4 10 -10 10 -5 0 -10 -4 -10 -10z M4570 1419 c0 -5 5 -7 10 -4 6 3 10 8 10
11 0 2 -4 4 -10 4 -5 0 -10 -5 -10 -11z M4100 1416 c0 -2 7 -7 16 -10 8 -3 12
-2 9 4 -6 10 -25 14 -25 6z M4455 1410 c-3 -5 -1 -10 4 -10 6 0 11 5 11 10 0
6 -2 10 -4 10 -3 0 -8 -4 -11 -10z M4447 1379 c7 -7 15 -10 18 -7 3 3 -2 9
-12 12 -14 6 -15 5 -6 -5z M1710 1365 c0 -8 7 -15 15 -15 8 0 15 7 15 15 0 8
-7 15 -15 15 -8 0 -15 -7 -15 -15z M2710 990 c0 -5 5 -10 10 -10 6 0 10 5 10
10 0 6 -4 10 -10 10 -5 0 -10 -4 -10 -10z M4831 976 c-9 -10 -9 -20 0 -40 15
-31 32 -33 59 -6 16 16 18 25 10 40 -12 23 -52 27 -69 6z M3660 942 c0 -10 48
-14 54 -4 2 4 -9 8 -25 9 -16 1 -29 -1 -29 -5z M3765 930 c-3 -5 -1 -10 4 -10
6 0 11 5 11 10 0 6 -2 10 -4 10 -3 0 -8 -4 -11 -10z M4146 924 c-9 -24 -7 -27
9 -10 17 17 19 26 6 26 -5 0 -12 -7 -15 -16z M4335 930 c3 -5 8 -10 11 -10 2
0 4 5 4 10 0 6 -5 10 -11 10 -5 0 -7 -4 -4 -10z M4485 870 c3 -5 8 -10 11 -10
2 0 4 5 4 10 0 6 -5 10 -11 10 -5 0 -7 -4 -4 -10z M973 544 c-24 -6 -31 -20
-12 -26 12 -4 26 -155 20 -223 -2 -16 -3 -45 -2 -62 l1 -33 123 0 122 0 0 45
c-1 25 -5 49 -11 55 -17 17 -43 -11 -47 -50 -3 -28 -9 -36 -29 -38 -13 -2 -36
1 -50 7 -23 9 -25 14 -24 68 1 52 3 58 24 61 14 2 22 -2 22 -11 0 -16 37 -30
45 -17 2 4 6 28 8 54 4 42 2 47 -20 52 -24 6 -36 -2 -46 -30 -2 -5 -11 -7 -20
-3 -17 7 -24 67 -11 101 8 21 94 23 94 2 0 -7 6 -19 14 -25 12 -10 18 -8 31
12 18 27 11 57 -14 57 -9 0 -56 2 -106 5 -49 2 -100 1 -112 -1z M50 525 c0 -8
9 -15 20 -15 13 0 20 -7 20 -19 0 -11 6 -21 12 -23 17 -6 -21 -78 -39 -78 -7
0 -13 -7 -13 -15 0 -18 12 -19 60 -5 100 29 122 127 36 160 -42 16 -96 13 -96
-5z M261 531 c-12 -8 -9 -11 12 -16 29 -8 33 -24 17 -71 -5 -16 -12 -45 -14
-64 -3 -19 -10 -53 -16 -75 -31 -110 -31 -105 0 -105 27 0 29 3 45 75 10 41
20 77 24 79 3 2 20 2 36 -1 26 -4 34 -13 53 -59 12 -30 22 -63 22 -74 0 -18 7
-20 86 -20 47 0 83 4 80 8 -3 5 -19 7 -35 4 -24 -3 -32 0 -37 14 -3 11 -14 37
-24 59 -9 22 -32 83 -50 135 -18 52 -37 101 -43 108 -11 14 -134 17 -156 3z
m107 -153 c-21 -12 -29 7 -22 53 l8 44 13 -44 c10 -36 10 -47 1 -53z M674 522
c-79 -38 -112 -121 -80 -202 19 -48 38 -70 86 -99 28 -17 51 -21 120 -21 l85
0 -5 62 -5 63 -60 8 c-76 9 -90 5 -75 -24 16 -30 2 -38 -20 -11 -58 71 -12
214 62 194 11 -2 18 -14 18 -27 0 -16 8 -25 26 -29 32 -8 30 -10 37 36 7 48
-7 59 -85 65 -48 3 -73 -1 -104 -15z M2668 535 c-3 -3 -32 -7 -64 -9 -33 -2
-66 -6 -74 -9 -8 -4 -27 -11 -42 -16 -40 -15 -61 -52 -49 -85 6 -14 16 -26 22
-26 6 0 22 -9 36 -20 14 -11 38 -20 54 -20 33 0 49 -23 49 -73 0 -43 -17 -58
-60 -52 -40 5 -60 23 -74 67 -11 33 -31 45 -52 30 -6 -4 -13 -33 -16 -64 l-5
-58 159 0 158 0 0 55 c0 51 -3 59 -38 97 -35 37 -45 42 -95 46 l-55 4 5 37 c3
20 8 39 12 42 11 12 81 -3 81 -16 0 -8 13 -20 29 -28 l29 -14 6 51 c5 46 -2
75 -16 61z M2757 532 c-29 -6 -14 -25 27 -36 38 -11 39 -12 72 -116 52 -161
62 -180 96 -180 35 0 53 20 88 99 l27 62 46 -72 c26 -39 47 -75 47 -80 0 -5
15 -9 34 -9 29 0 36 4 45 33 6 17 30 81 54 141 35 92 46 111 70 120 24 9 38
35 20 37 -5 0 -24 2 -43 4 -19 2 -48 2 -63 -1 -26 -5 -27 -7 -14 -27 10 -16
11 -30 4 -52 -17 -52 -56 -135 -64 -135 -5 1 -25 31 -47 67 -32 55 -37 71 -30
92 7 18 19 28 38 31 16 3 31 10 33 15 2 6 -44 10 -125 9 -157 -1 -154 0 -112
-23 19 -10 45 -35 56 -56 l22 -38 -24 -47 c-13 -26 -24 -53 -24 -59 0 -6 -4
-11 -9 -11 -9 0 -21 35 -26 76 -2 11 -12 39 -24 62 -12 23 -21 50 -21 61 0 11
-9 25 -19 31 -18 9 -89 10 -134 2z M3550 533 c-14 -2 -40 -6 -58 -9 -66 -10
-119 -105 -109 -195 11 -89 72 -129 198 -129 69 0 78 2 84 20 4 11 11 18 16
14 11 -6 48 32 50 50 6 72 -2 118 -32 178 -10 20 -16 44 -13 52 7 18 -7 21
-23 5 -7 -7 -21 -6 -48 5 -21 9 -38 15 -39 15 0 -1 -12 -3 -26 -6z m57 -59
c32 -20 43 -131 16 -179 -5 -11 -9 -25 -6 -31 7 -19 -24 -35 -63 -32 -53 4
-75 38 -76 114 0 40 7 74 22 107 21 46 23 48 53 42 18 -4 42 -13 54 -21z
M3753 527 c-3 -5 1 -15 9 -21 22 -16 31 -261 11 -281 -7 -8 -13 -16 -13 -19 0
-11 86 -6 98 6 7 7 12 43 12 91 0 68 2 78 17 75 10 -2 24 -26 37 -65 29 -84
57 -113 113 -113 42 0 57 12 28 23 -22 9 -63 81 -75 129 -9 39 -8 45 14 64 53
47 55 84 4 110 -34 18 -244 19 -255 1z m172 -23 c9 -9 14 -23 11 -31 -3 -8 -6
-26 -6 -39 0 -20 -5 -24 -30 -24 -29 0 -30 1 -30 48 0 27 3 52 7 55 11 12 31
8 48 -9z M4105 530 c-3 -5 3 -11 14 -15 17 -5 19 -17 20 -147 1 -123 -1 -142
-16 -154 -16 -13 -2 -14 102 -12 102 3 124 6 147 23 45 33 61 78 56 157 -6 84
-27 110 -102 132 -59 17 -213 28 -221 16z m182 -72 c51 -25 55 -130 8 -198
-29 -42 -53 -55 -83 -46 -16 6 -19 20 -20 137 l-1 130 37 -6 c20 -4 47 -11 59
-17z M4506 519 c-20 -16 -26 -29 -26 -59 0 -31 6 -42 34 -64 19 -14 45 -26 57
-26 37 0 89 -39 89 -66 0 -50 -16 -64 -75 -64 l-55 0 0 34 c0 39 -11 50 -40
41 -14 -5 -20 -15 -20 -38 0 -18 -9 -40 -22 -54 l-21 -23 145 0 c123 0 148 3
159 17 18 21 18 113 -1 147 -19 37 -86 68 -132 62 -44 -6 -62 11 -52 49 6 26
9 27 52 21 25 -3 50 -12 56 -20 6 -8 20 -16 31 -18 17 -2 20 3 23 37 l3 40
-90 2 c-77 2 -93 -1 -115 -18z M1820 499 c-34 -16 -35 -19 -35 -73 0 -37 4
-56 12 -56 24 0 30 -104 8 -152 -6 -15 -2 -18 29 -18 45 0 60 25 54 90 l-5 48
39 6 c24 4 38 12 38 21 0 20 -30 33 -65 28 -27 -4 -33 0 -47 31 -16 33 -16 35
0 29 9 -3 22 -10 27 -14 6 -4 17 -4 25 2 13 8 13 11 -2 23 -10 7 -18 20 -18
29 0 23 -21 25 -60 6z M1589 341 c-31 -32 -35 -50 -18 -84 22 -43 50 -57 116
-57 67 0 69 1 78 49 4 23 0 42 -14 65 -39 62 -114 75 -162 27z m116 -51 c8
-34 -27 -70 -53 -53 -22 14 -18 73 5 91 21 15 38 1 48 -38z M4903 240 c-32
-13 -19 -40 19 -40 24 0 29 4 26 22 -4 25 -15 30 -45 18z"/>
</g>
</svg>
