<?xml version="1.0" standalone="no"?>
<!DOCTYPE svg PUBLIC "-//W3C//DTD SVG 20010904//EN"
 "http://www.w3.org/TR/2001/REC-SVG-20010904/DTD/svg10.dtd">
<svg version="1.0" xmlns="http://www.w3.org/2000/svg"
 width="500.000000pt" height="878.000000pt" viewBox="0 0 500.000000 878.000000"
 preserveAspectRatio="xMidYMid meet">
<metadata>
Created by potrace 1.16, written by Peter Selinger 2001-2019
</metadata>
<g transform="translate(0.000000,878.000000) scale(0.100000,-0.100000)"
fill="#000000" stroke="none">
<path d="M4035 8718 c-2 -7 -6 -24 -9 -38 -6 -31 -38 -158 -66 -265 -11 -44
-29 -123 -40 -175 -30 -148 -60 -283 -66 -302 -2 -9 0 -20 7 -23 8 -6 8 -9 -1
-15 -7 -4 -18 -34 -25 -66 -13 -60 -39 -171 -55 -234 -5 -19 -16 -71 -24 -115
-9 -44 -25 -120 -37 -170 -12 -49 -26 -115 -33 -146 -6 -31 -16 -62 -22 -70
-11 -14 -20 -48 -31 -122 -7 -51 -40 -83 -78 -79 -17 2 -34 8 -40 13 -5 5 -24
9 -41 9 -18 0 -45 5 -61 11 -15 6 -47 8 -71 4 -36 -5 -45 -12 -59 -41 -9 -19
-19 -34 -22 -33 -3 0 -24 11 -46 24 -22 13 -53 31 -69 40 -15 9 -46 18 -68 21
-22 2 -46 9 -54 15 -7 6 -18 8 -24 4 -6 -4 -17 -1 -25 5 -8 6 -19 9 -24 5 -6
-3 -23 1 -38 8 -15 8 -54 20 -85 27 -47 11 -58 18 -66 39 -5 14 -15 42 -22 61
-7 19 -15 50 -17 68 -5 31 -4 33 23 29 31 -4 118 13 146 29 23 13 70 84 71
109 1 11 -2 31 -5 45 -6 20 -2 27 17 36 27 13 48 4 41 -17 -7 -19 23 -53 59
-66 31 -10 36 -8 120 40 11 6 34 12 51 12 34 2 94 41 94 62 0 7 12 18 27 24
15 6 31 15 34 21 4 6 24 14 45 17 26 4 40 12 42 24 5 24 -30 22 -101 -7 -32
-13 -67 -21 -79 -18 -15 3 -19 2 -14 -7 4 -6 11 -9 16 -6 5 3 2 -8 -7 -25 -11
-23 -18 -28 -27 -21 -9 7 -16 7 -23 0 -6 -6 -25 -8 -48 -3 -23 4 -32 9 -25 14
7 4 11 19 8 33 -4 21 -2 23 16 19 12 -3 27 -9 34 -15 9 -7 19 -2 36 16 12 13
32 28 43 31 12 4 23 18 26 34 3 17 16 33 31 39 13 7 27 21 31 32 3 11 14 22
23 25 9 3 25 20 35 37 16 29 16 33 2 49 -21 23 -20 24 25 54 22 14 40 33 40
41 0 22 -7 19 -68 -22 -29 -21 -68 -42 -85 -48 -24 -8 -33 -17 -35 -37 -2 -16
-8 -28 -13 -28 -10 0 -8 15 14 77 23 67 -40 139 -120 137 -45 -1 -132 -41
-166 -76 -10 -10 -25 -18 -35 -19 -9 0 -29 -2 -44 -4 -43 -6 -41 9 3 36 80 48
92 60 76 76 -12 12 -24 9 -88 -22 -41 -19 -82 -47 -92 -61 -25 -33 -15 -69 23
-89 38 -20 43 -19 35 5 -5 14 -2 20 9 20 9 0 16 -6 16 -14 0 -20 19 -24 72
-16 l47 7 -17 -30 c-9 -16 -30 -38 -45 -49 -26 -19 -29 -19 -46 -4 -23 21 -43
20 -86 -4 -45 -26 -71 -25 -85 1 -6 11 -20 23 -30 27 -10 4 -29 23 -42 42 -13
19 -34 36 -46 38 -14 2 -22 10 -22 24 0 19 -4 20 -57 13 -66 -8 -73 -11 -73
-29 0 -11 -8 -11 -42 1 -30 10 -48 12 -64 4 -13 -5 -24 -6 -26 -1 -2 5 -25 4
-53 -1 -27 -5 -65 -7 -83 -4 -19 3 -39 2 -45 -3 -7 -5 -37 -17 -67 -25 -37
-11 -67 -28 -90 -52 -18 -19 -41 -35 -50 -35 -9 0 -21 -5 -28 -12 -9 -9 -12
-8 -12 7 -1 22 -73 81 -131 108 -20 9 -65 19 -100 21 -35 2 -68 5 -74 7 -14 3
-62 -10 -120 -33 -53 -21 -127 -93 -123 -118 6 -28 35 -23 46 8 6 17 29 42 58
60 55 37 113 42 224 18 85 -17 140 -46 173 -89 l26 -35 -19 -55 c-18 -50 -18
-60 -6 -99 8 -24 18 -56 23 -73 6 -22 17 -33 41 -40 18 -5 32 -16 32 -25 0 -8
6 -23 14 -32 16 -21 56 -13 56 12 0 10 10 24 22 32 14 10 19 20 15 31 -10 26
-35 32 -56 13 -17 -16 -20 -14 -45 40 -24 50 -26 61 -15 81 7 13 16 23 21 23
4 0 8 9 8 21 0 13 6 20 18 18 48 -4 52 -1 52 49 0 47 20 82 45 82 5 0 -1 -9
-14 -21 -20 -19 -21 -22 -7 -38 9 -10 16 -25 16 -34 0 -21 18 -31 33 -18 8 6
18 6 27 1 21 -13 30 -3 30 32 0 41 34 86 73 96 21 6 32 14 30 26 -1 14 6 17
41 15 23 -2 47 0 53 4 12 8 58 -6 66 -20 3 -4 -17 -6 -44 -5 -56 4 -114 -19
-174 -71 -38 -33 -41 -57 -7 -57 9 0 28 -12 43 -26 27 -26 49 -26 49 0 0 14
30 26 68 26 32 0 27 -18 -6 -22 -39 -4 -36 -33 3 -32 94 3 221 89 232 156 7
46 17 48 32 8 8 -24 6 -37 -6 -63 -32 -63 -32 -65 -18 -77 20 -16 55 5 55 33
0 12 4 29 9 36 8 12 11 9 17 -14 5 -21 1 -39 -14 -66 -12 -20 -18 -39 -15 -43
15 -14 34 -4 58 31 14 21 25 31 25 22 0 -9 -13 -34 -29 -56 -29 -40 -28 -69 1
-58 9 4 28 25 43 47 15 22 29 37 32 34 3 -3 -2 -12 -11 -22 -10 -9 -14 -24
-11 -35 4 -11 2 -19 -4 -19 -6 0 -11 -6 -11 -14 0 -17 27 -29 35 -16 6 10 55
14 55 5 0 -3 -6 -21 -14 -40 -16 -38 -47 -59 -91 -62 -16 -1 -52 -4 -80 -6
-35 -2 -50 -7 -50 -18 0 -11 18 -14 84 -16 70 -2 88 1 109 18 23 18 52 26 52
14 0 -14 -52 -85 -69 -95 -11 -5 -48 -10 -83 -9 -47 1 -57 3 -38 9 14 4 42 8
63 9 35 1 37 3 27 22 -11 19 -17 20 -78 14 -52 -6 -72 -13 -90 -31 l-22 -24
20 -20 c11 -11 20 -28 20 -38 0 -20 53 -169 75 -213 14 -26 64 -57 107 -65 10
-2 23 -5 30 -6 7 -2 12 5 12 15 -3 28 13 19 25 -14 16 -47 -2 -104 -37 -118
-40 -15 -75 -49 -68 -66 8 -21 20 -19 54 10 17 14 38 25 49 25 27 0 58 87 48
137 -5 30 -4 35 7 26 7 -6 24 -13 38 -15 23 -3 25 -7 24 -50 0 -47 -39 -148
-56 -148 -5 0 -16 -15 -25 -34 -15 -33 -15 -38 6 -103 25 -77 26 -173 2 -181
-9 -3 -11 1 -7 15 3 10 -3 50 -14 88 -22 76 -72 141 -100 129 -23 -10 -251
-12 -283 -3 -15 4 -34 15 -43 24 -9 9 -24 13 -35 10 -13 -4 -19 -2 -19 9 0 19
-60 78 -112 112 -44 28 -48 46 -12 62 23 11 29 8 82 -42 31 -29 68 -57 82 -61
14 -4 35 -13 46 -21 12 -7 30 -13 40 -13 71 -1 152 0 169 4 11 2 23 4 28 4 4
1 7 7 7 14 0 11 -24 14 -102 15 -89 0 -111 4 -158 26 -71 33 -104 75 -108 140
-2 39 2 57 23 87 14 21 25 49 25 62 0 13 11 34 25 47 14 14 22 27 17 32 -10
10 -89 -38 -138 -84 -26 -24 -39 -29 -70 -26 -32 2 -42 8 -55 35 -20 41 -68
104 -90 121 -10 6 -23 28 -29 47 -6 19 -16 35 -21 35 -5 0 -7 11 -3 25 7 27
-3 32 -29 13 -15 -12 -15 -17 10 -68 14 -30 45 -74 69 -97 23 -24 50 -63 59
-87 17 -45 46 -66 90 -66 26 0 55 -42 55 -80 0 -16 -6 -20 -33 -20 -23 0 -41
-8 -57 -25 -12 -13 -26 -22 -30 -20 -4 2 -17 -7 -28 -20 -12 -14 -31 -25 -41
-25 -30 0 -119 -93 -147 -154 -13 -30 -31 -59 -39 -66 -8 -7 -17 -28 -20 -49
-3 -20 -11 -44 -16 -54 -7 -13 -7 -23 1 -32 8 -10 7 -34 -4 -92 -8 -43 -13
-94 -10 -113 2 -19 6 -68 9 -108 4 -56 11 -82 30 -110 14 -20 25 -42 25 -48 0
-6 7 -26 16 -45 9 -19 25 -54 36 -79 69 -156 93 -195 136 -215 23 -12 49 -27
57 -35 20 -21 45 -124 45 -188 0 -29 5 -62 11 -73 8 -16 6 -28 -10 -55 -12
-19 -21 -43 -21 -52 0 -10 -22 -29 -57 -47 -43 -23 -62 -40 -79 -72 -12 -23
-30 -54 -41 -70 -11 -15 -34 -57 -52 -93 -19 -36 -57 -101 -86 -145 -137 -208
-155 -239 -172 -291 l-17 -55 30 -24 c16 -13 37 -24 47 -25 14 0 16 -5 11 -27
-4 -16 -10 -33 -15 -39 -5 -6 0 -27 11 -50 l20 -39 -41 -115 c-22 -63 -42
-126 -45 -140 -7 -40 -54 -190 -80 -257 -13 -34 -24 -66 -24 -71 0 -5 -6 -22
-14 -38 -8 -16 -17 -55 -21 -88 -4 -32 -11 -64 -16 -70 -6 -6 -18 -27 -27 -46
-15 -32 -22 -36 -75 -44 -47 -8 -60 -7 -68 5 -14 22 -11 62 7 87 12 18 13 26
4 37 -22 26 -54 22 -92 -12 -20 -17 -56 -37 -79 -43 -37 -10 -45 -9 -70 9 -34
25 -38 25 -75 6 -48 -25 -195 -20 -276 9 -82 30 -107 53 -141 132 -34 78 -32
124 6 142 32 15 34 34 7 60 -46 43 -64 149 -36 216 20 47 63 78 98 71 27 -6
28 -5 28 32 1 49 28 81 107 127 72 42 117 47 134 14 7 -13 12 -25 12 -28 -2
-16 18 -50 26 -45 5 3 13 1 16 -5 5 -8 11 -8 20 0 19 16 35 4 35 -25 0 -50 46
-38 52 13 7 59 142 86 212 43 46 -29 64 -52 85 -107 15 -43 16 -53 4 -83 -12
-29 -12 -36 3 -59 10 -15 16 -43 16 -65 -2 -34 1 -38 20 -35 27 4 33 38 13 85
-19 45 -19 59 -1 44 10 -8 21 -7 45 5 41 20 63 15 79 -19 12 -26 35 -36 45
-19 11 16 -7 64 -29 79 -31 20 -101 19 -123 -1 -24 -22 -34 -20 -26 5 4 11 1
43 -6 72 -15 65 -83 136 -147 155 -68 20 -167 0 -201 -42 -7 -9 -18 -13 -24
-9 -6 4 -27 9 -46 12 -29 5 -36 12 -43 39 -15 57 -86 69 -161 26 -63 -35 -146
-111 -153 -140 -4 -14 -13 -24 -24 -24 -28 0 -96 -84 -110 -135 -15 -55 -7
-145 17 -186 16 -27 16 -31 0 -58 -21 -36 -22 -125 -2 -165 19 -36 20 -33 -15
-51 -37 -19 -48 -67 -27 -116 14 -33 13 -35 -12 -54 -22 -17 -39 -19 -116 -17
-80 3 -98 1 -159 -24 -73 -29 -143 -83 -187 -144 -40 -55 -73 -171 -73 -260 0
-64 4 -85 31 -140 34 -69 92 -132 139 -151 l29 -12 -39 -12 c-21 -6 -47 -22
-58 -35 l-19 -23 -22 20 c-12 12 -41 30 -65 42 l-42 21 0 -24 c0 -17 11 -32
32 -47 18 -12 45 -33 59 -46 20 -18 32 -22 57 -17 21 4 32 12 32 24 0 29 33
50 81 50 25 0 50 -5 56 -11 16 -16 33 -2 33 26 0 27 -60 75 -93 75 -11 0 -44
26 -76 58 -41 42 -60 71 -70 107 -33 114 -3 273 70 364 72 92 139 123 263 121
61 -1 71 -4 88 -26 23 -28 42 -20 52 21 9 35 59 66 110 68 25 1 48 -1 52 -6 4
-4 8 -30 8 -59 1 -53 22 -79 33 -39 3 11 19 27 36 36 39 19 44 19 24 -3 -28
-31 -47 -89 -41 -122 8 -40 26 -34 42 15 20 61 45 86 109 110 48 19 75 22 144
19 109 -4 118 -6 112 -21 -3 -7 6 -17 20 -22 24 -9 87 -80 87 -98 0 -5 -14
-37 -30 -71 -16 -34 -30 -71 -30 -83 0 -14 -11 -25 -36 -35 -28 -12 -34 -19
-29 -35 4 -12 1 -27 -8 -37 -26 -29 -78 -169 -82 -218 -2 -26 0 -55 5 -65 7
-12 5 -21 -5 -29 -9 -7 -25 -45 -37 -84 -11 -39 -22 -72 -24 -74 -1 -2 -11 1
-21 6 -13 7 -24 6 -38 -4 -22 -16 -92 -19 -129 -4 -35 13 -59 53 -61 103 -1
23 -3 43 -4 45 0 1 -13 -4 -28 -11 -16 -8 -42 -17 -60 -20 -52 -10 -136 34
-118 63 11 18 -24 23 -70 9 -46 -14 -58 -32 -29 -43 13 -5 14 -9 4 -21 -7 -9
-20 -15 -29 -14 -32 3 -41 -1 -41 -20 0 -26 26 -44 53 -37 30 7 128 -44 151
-79 28 -43 23 -113 -12 -169 -21 -33 -29 -54 -23 -64 5 -8 6 -23 4 -33 -7 -27
21 -34 61 -15 52 25 102 21 122 -9 16 -24 15 -26 -15 -60 -17 -20 -34 -48 -37
-62 -4 -15 -18 -39 -30 -52 -13 -14 -28 -38 -35 -53 -6 -15 -15 -28 -19 -28
-10 0 -50 -63 -50 -77 0 -5 6 -17 13 -28 13 -16 16 -14 36 29 13 25 27 46 31
46 5 0 21 22 36 49 14 28 33 52 40 55 8 3 14 16 14 30 0 31 42 81 85 102 19 9
41 28 51 42 9 15 35 45 58 67 40 38 53 63 133 250 45 106 45 105 70 103 27 -3
31 -28 5 -35 -10 -2 -30 -24 -46 -49 -23 -37 -28 -52 -23 -86 6 -46 36 -93 59
-93 8 0 23 -8 32 -18 10 -9 22 -17 28 -17 6 0 -1 -9 -16 -21 -19 -15 -26 -30
-26 -54 0 -23 -9 -45 -29 -67 -15 -18 -31 -50 -35 -71 -6 -34 -10 -38 -29 -34
-15 4 -32 -3 -51 -20 -25 -21 -28 -28 -18 -44 28 -44 16 -59 -137 -181 -35
-28 -84 -58 -110 -68 -41 -15 -51 -15 -88 -2 -25 8 -52 26 -64 43 -24 35 -32
35 -90 7 -24 -11 -51 -21 -59 -21 -8 1 -33 -4 -55 -10 -22 -6 -46 -9 -54 -8
-7 1 -26 -10 -42 -25 l-29 -28 0 38 c0 28 11 55 40 98 38 57 45 93 14 67 -8
-6 -17 -9 -20 -6 -3 3 8 15 25 28 36 26 39 39 12 39 -43 0 -92 -59 -111 -135
-7 -26 -8 -24 -9 19 -1 48 15 121 31 142 5 6 6 18 3 27 -4 9 8 28 30 50 34 33
39 35 53 21 12 -12 28 -14 72 -9 38 4 60 3 64 -4 11 -16 46 -13 53 5 4 11 18
15 47 14 61 -3 66 -1 66 15 0 20 -37 38 -65 31 -13 -3 -30 -3 -39 0 -13 5 -12
10 4 39 11 19 16 36 12 38 -4 2 -31 5 -61 5 -40 1 -59 6 -77 23 -22 20 -27 21
-95 11 -40 -6 -79 -7 -87 -3 -8 5 -24 6 -36 4 -12 -3 -1 7 24 23 25 15 52 32
60 39 17 14 87 37 174 56 32 7 60 19 63 26 3 7 11 13 19 13 15 0 19 26 5 34
-5 3 -34 1 -65 -6 -31 -6 -58 -9 -61 -6 -9 9 8 48 21 48 8 0 14 6 14 14 0 17
-64 28 -95 16 -15 -6 -27 -6 -30 0 -10 16 -39 12 -88 -14 -45 -22 -47 -22 -53
-4 -7 24 -35 16 -87 -26 -65 -52 -76 -91 -63 -212 5 -50 5 -51 -19 -46 -25 4
-25 3 -24 -59 0 -47 3 -58 9 -42 6 15 15 20 29 16 17 -4 21 -14 22 -57 5 -105
4 -265 -1 -269 -3 -2 -15 -8 -27 -11 -16 -5 -23 -2 -26 11 -3 10 -5 -10 -6
-45 -1 -40 3 -61 9 -57 5 3 10 1 10 -4 0 -6 -4 -11 -10 -11 -5 0 -10 -9 -10
-20 0 -23 15 -27 24 -5 6 16 36 21 36 7 0 -12 -34 -42 -48 -42 -7 0 -12 -13
-12 -30 0 -34 11 -37 52 -16 34 18 68 17 87 -2 17 -17 81 -9 92 10 4 7 17 24
29 38 12 14 28 33 35 43 10 14 17 16 32 9 14 -8 25 -4 52 19 41 33 47 32 27
-5 -13 -27 -55 -56 -80 -56 -6 0 -38 -30 -70 -65 -33 -36 -65 -65 -72 -65 -7
0 -14 -6 -16 -12 -3 -9 -30 -13 -84 -13 -79 0 -79 0 -82 -27 -2 -20 1 -28 12
-28 9 0 16 -5 16 -11 0 -6 7 -3 16 5 16 17 50 21 58 8 3 -4 20 -6 39 -4 25 3
47 17 78 48 24 24 49 44 56 44 8 0 17 8 20 17 14 35 65 72 92 67 21 -4 28 0
38 23 7 16 25 43 40 62 35 41 103 58 139 34 13 -8 44 -15 69 -15 25 -1 48 -5
51 -10 3 -4 15 -2 27 4 12 7 42 17 67 23 31 7 48 17 57 34 6 14 20 29 30 35
11 6 38 26 61 45 24 19 53 36 65 38 86 11 136 10 173 -3 46 -15 82 -11 289 36
118 26 190 34 211 22 13 -7 5 -10 -32 -9 -61 0 -97 -11 -90 -28 7 -20 -71 -42
-139 -40 -33 2 -68 -2 -78 -7 -10 -5 -40 -12 -65 -14 -79 -7 -164 -28 -169
-41 -4 -10 -10 -9 -26 2 -34 24 -60 20 -206 -31 -11 -3 -10 -9 2 -28 16 -23
15 -24 -18 -30 -19 -4 -79 -29 -132 -56 -117 -58 -233 -160 -233 -204 0 -36
-42 -56 -67 -34 -10 9 -32 23 -50 32 -41 20 -67 11 -137 -49 -62 -52 -84 -62
-168 -71 -79 -8 -98 -18 -98 -51 0 -23 3 -25 28 -19 15 4 41 9 57 12 82 13
126 32 197 81 42 29 80 53 85 53 5 0 22 -14 38 -30 33 -34 61 -38 108 -13 59
30 87 57 97 92 6 20 16 43 23 51 20 25 132 110 145 110 7 0 12 4 12 8 0 4 24
16 53 26 111 39 146 59 149 86 2 20 9 26 35 28 24 2 33 -1 38 -17 9 -29 45
-38 62 -15 8 11 25 20 39 21 14 1 37 9 50 18 19 12 35 14 79 7 49 -8 56 -7 75
13 12 13 32 22 45 21 27 -1 23 -16 -6 -16 -10 0 -19 -7 -19 -15 0 -9 9 -15 24
-15 13 0 31 -3 40 -6 18 -7 22 -25 5 -22 -6 2 -14 -3 -16 -10 -4 -10 2 -11 24
-6 34 9 46 24 31 41 -18 22 0 28 22 8 16 -14 20 -15 20 -4 0 8 -5 20 -12 27
-9 9 -9 12 0 12 6 0 19 -8 29 -19 15 -16 34 -19 128 -19 61 -1 125 -5 144 -9
l34 -8 -39 -17 c-21 -9 -57 -19 -79 -23 -22 -3 -56 -7 -75 -10 -19 -3 -44 -7
-55 -9 -11 -3 -24 -5 -29 -5 -4 -1 -5 -12 -2 -26 9 -36 -21 -48 -97 -39 -34 4
-96 7 -138 6 -71 0 -76 1 -72 19 6 20 -18 36 -36 24 -6 -3 -43 -7 -83 -9 -125
-7 -376 -123 -433 -202 -11 -15 -56 -50 -100 -79 -147 -95 -257 -134 -283
-102 -11 13 -20 13 -72 -4 -33 -10 -70 -20 -82 -21 -13 -2 -29 -7 -36 -12 -13
-8 -86 -10 -127 -4 -17 3 -20 -3 -23 -43 l-3 -45 40 -2 c22 -2 42 2 46 8 3 5
17 10 30 10 13 0 27 4 30 10 3 5 19 10 34 10 16 0 41 12 61 30 18 17 36 30 40
30 3 0 22 -15 42 -33 l35 -32 49 13 c27 8 61 20 76 28 14 8 32 14 40 14 32 1
263 180 280 218 4 10 96 72 107 72 4 0 16 8 25 19 14 16 44 27 84 31 4 1 16 9
27 19 11 10 38 21 60 25 31 5 36 4 22 -4 -30 -19 -21 -42 16 -38 24 2 31 7 29
21 -2 9 2 17 8 17 5 0 10 -7 10 -15 0 -17 -12 -16 195 -20 189 -3 249 12 267
67 2 6 24 12 48 15 25 2 74 13 110 23 37 11 93 22 125 25 68 5 43 -5 -58 -25
-31 -6 -63 -17 -70 -24 -7 -7 -32 -15 -56 -19 -59 -8 -73 -23 -42 -48 13 -10
31 -19 41 -19 10 0 26 -3 35 -6 14 -6 12 -10 -11 -25 -15 -10 -30 -16 -33 -14
-6 3 -143 18 -171 18 -23 0 -108 -13 -125 -19 -38 -15 14 -64 67 -64 13 0 33
-7 44 -14 24 -17 22 -17 159 -16 127 0 312 -25 390 -53 65 -23 131 -80 111
-96 -20 -16 -54 -5 -84 27 -17 18 -37 32 -45 32 -8 0 -19 6 -25 13 -16 18
-161 21 -196 3 -34 -17 -23 -25 29 -20 43 4 105 -12 105 -27 0 -5 3 -8 8 -8
27 5 54 -4 72 -23 23 -25 91 -49 118 -42 14 4 66 -5 172 -30 8 -2 14 -8 13
-13 -1 -5 13 -8 30 -7 17 1 39 -2 48 -6 9 -5 31 -12 49 -15 46 -8 72 -24 64
-38 -4 -7 -4 -9 1 -5 4 4 19 -2 33 -12 13 -11 30 -20 37 -20 21 0 77 -58 69
-71 -4 -8 -3 -9 4 -5 7 4 27 -8 48 -28 44 -43 92 -66 136 -66 19 0 58 -6 88
-14 30 -8 89 -16 130 -20 41 -3 84 -7 94 -9 26 -5 41 -30 33 -52 -6 -14 -16
-16 -65 -11 -116 11 -152 18 -152 30 0 33 -143 71 -279 75 -121 3 -197 18
-305 61 -44 17 -91 33 -105 35 -14 3 -51 9 -81 14 -30 5 -84 14 -120 20 -153
25 -225 41 -228 51 -6 17 -114 66 -174 80 -29 6 -75 20 -103 30 -27 10 -59 21
-70 23 -17 4 -17 5 3 6 13 0 33 -4 44 -10 12 -6 67 -13 122 -15 56 -2 120 -10
143 -18 23 -8 43 -12 46 -9 3 2 14 0 25 -6 23 -12 76 1 111 28 48 37 -1 79
-114 97 -28 4 -52 8 -55 7 -3 0 -17 -3 -31 -7 -21 -4 -26 -2 -25 11 1 12 -18
20 -81 34 -45 10 -91 23 -102 28 -11 6 -38 11 -60 11 -28 0 -41 4 -41 14 0 23
-24 35 -104 51 -104 19 -176 10 -263 -33 -23 -12 -33 -24 -33 -39 0 -17 -6
-23 -22 -23 -13 0 -34 -3 -48 -5 -15 -3 -19 -2 -10 2 34 18 60 38 60 48 0 13
-58 39 -90 41 -81 2 -181 -48 -275 -140 -77 -75 -113 -95 -225 -121 -79 -19
-223 -57 -301 -79 -39 -11 -48 -11 -65 1 -23 18 -88 11 -113 -11 -10 -9 -27
-16 -39 -16 -17 0 -22 -6 -22 -27 0 -26 3 -28 48 -29 26 -1 79 -3 117 -4 57
-2 83 2 136 24 36 14 69 26 73 26 4 0 35 14 68 30 34 17 63 28 66 26 2 -3 21
3 42 14 21 11 40 16 44 13 3 -3 11 -1 18 5 7 6 27 12 43 14 51 7 138 57 170
99 32 42 99 88 154 107 42 15 54 8 17 -9 -49 -23 -43 -88 7 -73 9 3 17 3 17 1
0 -2 -26 -14 -58 -25 -31 -12 -79 -40 -106 -62 -52 -43 -82 -55 -121 -48 -13
3 -22 1 -19 -3 3 -5 0 -9 -6 -9 -17 0 -103 -42 -125 -60 -22 -19 -113 -52
-125 -45 -9 6 -147 -28 -190 -47 -89 -39 -202 -43 -244 -9 -21 17 -26 -6 -26
-115 l0 -94 63 1 c74 0 139 -8 147 -19 3 -5 63 -10 135 -11 72 -1 140 -5 151
-7 12 -3 25 -1 28 4 4 6 18 7 34 3 15 -4 38 -6 52 -5 14 2 92 5 173 8 82 3
151 7 155 10 4 2 39 2 77 0 39 -2 79 -3 90 -3 60 1 447 0 620 -1 110 -1 353 1
541 5 227 4 361 2 405 -5 102 -17 358 -24 375 -9 11 9 60 10 192 5 97 -3 449
-8 782 -11 333 -3 644 -8 693 -11 l87 -7 0 37 c0 37 0 37 -37 35 -75 -5 -125
0 -117 13 5 7 3 8 -6 3 -17 -10 -60 -15 -60 -7 0 4 -11 7 -25 7 -14 0 -25 -4
-25 -8 0 -5 -8 -6 -17 -3 -10 3 -47 8 -82 11 -35 4 -73 10 -85 15 -12 4 -24 7
-28 6 -4 0 -16 7 -27 16 -11 9 -21 13 -23 7 -2 -5 -28 0 -58 11 -70 26 -174
50 -220 52 -19 1 -38 5 -41 10 -3 5 -67 9 -142 10 -135 1 -137 1 -132 22 4 18
4 18 -7 -2 -8 -17 -17 -22 -32 -18 -12 3 -29 6 -38 6 -10 0 -18 7 -18 16 0 13
3 14 14 5 10 -8 16 -9 21 -1 3 5 2 10 -4 10 -6 0 -8 7 -4 16 4 11 13 13 34 9
49 -11 175 -8 198 4 18 10 26 10 39 -1 10 -8 13 -9 9 -1 -9 14 50 28 85 20 13
-3 32 -2 43 2 12 5 28 3 42 -6 12 -8 27 -13 35 -12 7 2 24 -3 37 -10 13 -7 21
-8 17 -2 -5 7 -1 9 8 5 9 -3 16 -14 16 -23 0 -11 3 -12 8 -4 5 8 11 8 24 -1
10 -7 16 -15 13 -17 -2 -3 6 -5 18 -5 12 0 25 4 28 8 3 5 19 3 35 -3 16 -7 49
-15 74 -18 37 -5 45 -10 50 -31 5 -22 12 -25 53 -28 26 -2 45 -7 43 -11 -3 -4
5 -7 17 -7 14 1 22 -5 21 -14 -1 -9 8 -15 21 -15 13 0 22 6 21 15 -1 9 10 16
28 18 16 2 26 -1 22 -6 -6 -10 23 -26 32 -17 3 3 0 5 -6 5 -7 0 -12 4 -12 8 0
13 62 5 70 -8 5 -7 10 -8 14 -2 3 5 17 7 31 4 20 -3 25 0 25 15 0 18 -9 21
-82 26 -127 10 -131 12 -124 61 3 22 9 64 12 93 7 56 2 53 84 42 8 -1 36 -1
63 -1 50 2 65 16 19 19 -109 6 -173 16 -169 26 2 8 36 12 100 12 86 0 97 2 97
18 0 18 -1 19 -117 21 -39 1 -75 5 -79 9 -5 4 38 6 94 4 78 -2 102 0 102 10 0
7 -3 14 -7 14 -5 1 -17 3 -28 4 -11 2 -29 6 -39 11 -13 5 -17 4 -13 -3 4 -7
-5 -10 -26 -7 -17 1 -44 3 -59 3 -16 1 -28 5 -28 10 0 5 25 8 55 7 30 0 55 1
55 4 0 3 15 5 33 4 43 0 57 5 57 23 0 12 -14 14 -80 11 -44 -2 -80 0 -80 4 0
5 -8 4 -19 -1 -10 -6 -21 -7 -25 -4 -9 9 -8 35 2 30 4 -3 51 -8 105 -12 91 -6
97 -5 97 13 0 16 -8 19 -52 20 -75 2 -158 13 -162 21 -3 4 32 3 78 -2 99 -10
136 0 136 37 0 15 -8 30 -21 36 -16 9 -18 14 -8 26 9 11 9 14 -1 14 -7 0 -10
6 -7 13 3 7 -2 13 -12 13 -9 0 -17 -8 -17 -17 0 -10 6 -15 15 -11 8 3 12 0 9
-8 -3 -9 -33 -13 -108 -14 -74 -1 -105 -5 -108 -14 -3 -10 -7 -10 -20 0 -14
10 -14 9 1 -8 34 -41 14 -53 -81 -51 -70 2 -94 6 -123 25 -20 12 -46 22 -58
22 -11 0 -21 5 -21 10 0 6 4 10 9 10 5 0 11 7 14 14 4 10 1 13 -8 10 -8 -3
-17 -14 -20 -23 -6 -20 -39 -39 -75 -44 -14 -1 -30 -6 -36 -10 -18 -11 -149
-11 -170 0 -10 6 -50 16 -89 23 -97 16 -106 20 -99 33 5 9 3 9 -6 0 -10 -9
-18 -9 -34 -1 -12 7 -34 13 -51 14 -16 2 -55 5 -85 8 -30 3 -58 5 -61 6 -3 0
-11 11 -17 24 -11 24 -9 25 31 31 68 9 192 14 181 7 -6 -4 -13 -15 -17 -24 -5
-14 1 -16 45 -12 36 4 48 2 43 -7 -5 -8 -2 -8 11 -1 11 5 37 8 59 6 89 -6 223
-6 270 0 77 10 144 17 208 21 31 3 67 11 80 19 13 9 35 13 52 10 17 -3 60 -4
97 -4 39 1 69 -3 73 -10 5 -8 10 -8 20 0 8 7 19 9 24 6 6 -4 33 -9 61 -12 45
-4 50 -3 50 16 0 16 -7 20 -32 21 -18 1 -44 3 -58 5 -14 2 -73 5 -133 7 -59 2
-110 6 -113 10 -3 3 -29 -3 -57 -12 -29 -10 -81 -21 -117 -25 -36 -4 -78 -9
-95 -12 -80 -10 -205 -13 -245 -5 -43 8 -42 9 35 11 94 4 97 4 110 11 11 7 63
22 80 24 25 3 60 19 77 35 11 10 32 17 48 16 16 -1 27 1 24 5 -5 9 35 23 43
15 4 -3 1 -6 -7 -6 -10 0 -10 -3 0 -15 7 -8 18 -15 24 -15 7 0 6 3 -2 8 -22
15 -1 41 42 53 58 16 132 48 196 86 52 31 130 46 130 25 0 -5 11 -14 25 -20
23 -11 25 -10 25 16 0 22 -7 32 -35 45 -49 23 -63 22 -139 -16 -46 -23 -66
-30 -66 -20 0 7 -12 18 -27 24 -16 6 -38 20 -50 31 -26 24 -62 19 -104 -16
-31 -26 -162 -100 -197 -111 -17 -5 -27 -2 -36 10 -11 15 -20 16 -82 6 -85
-13 -148 -6 -237 25 -85 30 -113 30 -168 0 -68 -37 -218 -68 -348 -72 -71 -2
-120 1 -128 7 -7 6 -40 9 -74 7 l-62 -3 -11 34 c-14 41 -57 61 -130 61 -41 0
-55 5 -75 25 -13 14 -27 25 -32 25 -5 0 -31 15 -57 34 -27 19 -65 42 -84 52
-30 16 -34 22 -27 41 7 19 13 21 50 16 41 -6 42 -5 35 18 -25 82 -19 111 32
142 41 26 102 26 123 1 6 -8 18 -14 26 -14 12 0 14 8 9 38 -21 117 -20 130 19
205 66 128 144 187 275 208 l68 12 56 -38 c31 -21 63 -50 72 -66 18 -36 41
-37 55 -2 23 61 54 62 84 3 17 -33 45 -39 65 -15 17 20 27 19 35 -5 8 -26 68
-22 74 6 4 24 -27 82 -49 89 -10 3 -20 16 -24 28 -4 16 -8 19 -17 10 -8 -8 -7
-19 5 -41 16 -30 16 -31 -12 -34 -17 -2 -37 5 -55 19 -37 30 -75 39 -100 24
-11 -8 -22 -9 -26 -4 -3 5 -28 20 -55 33 -46 22 -48 24 -26 32 20 7 22 13 17
49 -5 40 -5 40 23 34 69 -15 191 9 238 47 13 11 15 10 10 -3 -4 -10 -12 -36
-19 -59 -12 -38 -11 -44 6 -56 23 -17 27 -13 49 56 27 89 96 181 153 205 17 7
49 11 71 9 30 -3 43 0 57 16 30 33 133 21 162 -20 13 -18 16 -18 36 -5 12 8
27 14 32 15 23 1 9 35 -15 38 -35 4 -110 33 -110 42 0 5 20 20 45 34 25 15 45
30 45 34 0 4 11 20 25 35 28 29 66 35 84 13 10 -12 8 -17 -11 -27 -39 -20 -68
-52 -68 -75 0 -57 34 -75 45 -24 9 41 48 67 79 52 13 -6 34 -8 47 -5 16 5 28
-1 43 -20 21 -26 22 -26 74 -13 42 12 63 12 111 2 59 -12 111 -38 111 -56 0
-6 10 -10 23 -10 12 0 37 -9 55 -20 l33 -21 -3 28 c-2 22 -11 30 -37 39 -19 6
-43 23 -53 37 l-19 26 45 21 c25 11 50 20 55 20 6 0 11 17 11 38 0 32 -3 37
-24 38 -36 2 -95 34 -101 54 -5 16 -16 18 -82 17 l-75 -1 -36 38 c-31 35 -33
40 -19 51 26 19 20 42 -10 48 -16 3 -44 16 -63 29 -64 44 -57 151 13 202 23
17 43 21 102 21 67 0 76 -3 102 -27 35 -33 43 -35 43 -8 0 11 5 20 11 20 7 0
8 14 4 39 -14 84 33 151 106 151 23 0 29 4 29 21 0 20 -4 21 -41 16 -70 -9
-147 -89 -149 -154 0 -22 -4 -23 -82 -23 -96 0 -149 -20 -191 -69 -46 -55 -56
-142 -21 -172 8 -6 14 -15 14 -20 0 -11 30 -40 55 -55 11 -6 22 -22 26 -37 22
-82 129 -146 192 -115 14 7 23 4 38 -13 10 -12 19 -26 19 -31 0 -4 3 -7 8 -7
4 1 22 -2 41 -6 l34 -8 -40 -16 c-22 -9 -47 -22 -56 -29 -10 -9 -35 -12 -78
-9 -34 3 -76 1 -92 -4 -25 -7 -34 -5 -50 12 -14 15 -29 20 -55 17 -33 -3 -36
0 -44 28 -14 55 -88 88 -132 59 -31 -21 -33 -14 -6 23 11 15 24 50 29 77 27
145 -81 318 -224 360 -149 43 -346 7 -407 -75 -15 -21 -30 -30 -51 -30 -15 0
-37 -5 -48 -10 -16 -9 -19 -7 -19 12 -1 53 -45 73 -130 59 -70 -11 -106 -29
-141 -69 -23 -25 -38 -31 -104 -41 -88 -13 -121 -32 -163 -94 -66 -96 -77
-194 -31 -258 l19 -27 -30 -6 c-50 -9 -143 -56 -168 -83 -40 -44 -65 -100 -58
-134 3 -18 0 -39 -8 -52 -12 -19 -12 -27 1 -59 8 -21 19 -38 24 -38 5 0 9 -11
9 -25 0 -26 17 -65 34 -77 6 -4 -2 -10 -17 -13 -14 -4 -31 -13 -38 -21 -15
-18 -30 -18 -23 1 8 21 -15 258 -27 270 -24 24 10 261 45 310 30 43 43 71 62
143 9 34 21 65 25 68 5 3 9 14 9 25 0 11 7 33 15 49 8 16 25 68 39 117 41 151
77 268 87 278 5 5 9 19 9 32 0 12 4 32 9 45 5 13 19 48 31 79 l21 56 58 0 c72
1 126 25 112 51 -15 29 2 54 37 57 18 2 32 -1 32 -5 0 -16 58 -21 106 -9 55
14 83 41 84 82 0 17 5 27 15 27 23 0 38 39 31 84 -4 22 -24 79 -46 126 -21 47
-46 119 -54 160 -22 109 -45 176 -72 210 -51 64 -73 149 -48 184 7 11 14 29
14 40 0 11 6 27 14 35 8 9 16 43 19 76 6 67 26 185 32 196 3 4 6 27 6 53 2 39
4 43 15 28 7 -9 10 -21 7 -26 -4 -5 -1 -6 5 -2 6 3 22 1 37 -6 21 -9 32 -8 60
5 22 11 33 22 29 31 -3 9 10 22 37 37 24 13 54 40 68 59 13 19 21 26 17 15
-18 -47 -27 -146 -22 -218 9 -120 40 -179 158 -298 l68 -68 -68 -45 c-37 -25
-77 -61 -90 -80 -50 -74 -66 -214 -36 -317 28 -97 177 -214 279 -220 56 -4 74
-21 68 -67 -7 -53 12 -111 51 -154 40 -45 131 -88 204 -95 46 -5 56 -3 77 17
l25 23 21 -27 c27 -35 85 -71 152 -96 44 -16 64 -18 137 -11 126 12 190 45
190 98 l0 25 -35 -31 c-75 -65 -227 -78 -321 -27 -58 32 -110 78 -119 106 -9
27 -27 25 -53 -5 -61 -70 -252 8 -282 114 -20 71 -7 93 63 111 87 23 133 54
118 79 -7 10 -18 8 -54 -14 -51 -29 -173 -50 -149 -24 14 15 16 49 3 49 -6 0
-13 -4 -16 -10 -8 -13 -89 -13 -135 0 -19 5 -61 30 -92 55 -92 72 -117 143
-98 273 19 126 47 166 148 216 28 15 52 33 52 40 0 10 15 14 58 14 111 1 198
17 206 39 10 26 -3 32 -34 16 -34 -17 -137 -26 -192 -17 -31 5 -37 10 -35 27
1 16 -5 22 -28 27 -71 16 -126 62 -166 140 -44 86 -37 311 12 395 11 18 17 40
13 49 -6 16 -8 16 -26 -1 -19 -17 -19 -17 -7 12 8 17 21 44 30 60 9 17 19 47
23 68 8 42 15 45 41 17 10 -11 24 -20 32 -20 22 0 16 -9 -41 -61 -35 -31 -53
-55 -49 -65 8 -22 20 -17 64 24 48 45 114 82 145 82 13 0 29 8 36 18 26 38 82
48 114 21 18 -14 27 6 14 30 -16 31 -70 36 -118 12 -22 -11 -43 -25 -47 -31
-11 -17 -25 -11 -35 16 -8 20 -15 24 -28 19 -9 -4 -29 -10 -43 -12 -22 -4 -27
-1 -31 21 -3 15 -1 29 3 32 5 3 9 14 9 25 0 10 5 19 11 19 6 0 9 8 7 18 -2 9
6 25 18 34 15 12 20 25 17 38 -3 11 -1 20 4 20 5 0 17 14 27 30 15 26 16 36 6
66 -9 27 -9 38 0 49 18 21 53 18 84 -6 22 -17 27 -18 32 -5 3 8 12 12 20 9 8
-3 25 8 40 26 50 60 136 91 232 84 97 -8 142 -36 187 -116 15 -28 28 -70 32
-107 5 -55 3 -63 -22 -100 -15 -22 -33 -40 -40 -40 -7 0 -34 -19 -60 -43 -38
-34 -46 -47 -41 -64 8 -26 38 -21 51 10 6 12 33 33 60 46 89 43 260 35 278
-13 4 -9 24 -15 57 -17 49 -4 51 -3 48 21 -3 21 -10 26 -43 31 -22 4 -56 15
-76 26 -25 13 -60 21 -105 22 -38 1 -70 4 -72 6 -2 2 2 13 8 26 20 37 4 117
-45 224 -22 47 -95 112 -135 119 -95 16 -140 17 -191 1 -79 -24 -116 -44 -153
-85 -31 -35 -33 -36 -42 -16 -7 17 -18 21 -62 21 -60 0 -62 4 -30 73 12 26 24
75 26 110 4 57 3 62 -16 62 -17 0 -20 -6 -20 -45 0 -29 -10 -64 -26 -97 -14
-29 -26 -56 -26 -61 0 -4 -10 -31 -21 -58 -30 -68 -49 -65 -42 6 4 42 3 55 -8
55 -10 0 -9 5 4 17 10 10 25 18 35 18 23 0 24 50 0 72 -10 8 -15 20 -12 24 3
5 0 9 -6 9 -6 0 -4 10 6 25 8 13 13 29 9 35 -4 6 1 20 10 30 9 10 14 23 11 28
-7 12 -96 3 -114 -11 -7 -5 -15 -7 -19 -3 -12 12 32 48 99 82 49 25 66 38 62
49 -4 8 -9 15 -12 15 -16 0 -123 -58 -161 -87 -24 -18 -47 -31 -49 -28 -10 10
133 134 161 140 19 5 27 12 25 23 -5 26 -57 16 -93 -17 -16 -15 -54 -47 -82
-70 -43 -35 -54 -40 -59 -27 -4 9 4 28 19 45 30 36 125 114 150 124 24 9 21
26 -5 37 -13 5 -18 9 -13 10 6 1 21 3 35 5 14 2 35 -4 46 -13 22 -18 58 -98
50 -111 -3 -4 2 -30 11 -57 8 -27 17 -67 20 -89 9 -84 47 -66 40 19 l-4 48 53
-6 c29 -3 64 -11 76 -17 26 -11 78 2 78 21 0 5 7 10 15 10 14 0 20 23 18 68
-1 8 7 22 18 33 12 12 19 14 19 7 0 -10 3 -9 9 1 12 19 1 53 -15 47 -8 -3 -14
-2 -14 2 0 4 -12 7 -27 8 -53 2 -88 8 -99 16 -6 4 -34 11 -64 15 -49 7 -53 11
-64 43 -9 27 -9 41 2 62 14 28 25 96 23 143 0 17 10 75 23 130 13 55 29 132
36 170 7 39 23 126 36 195 13 69 31 163 40 210 8 47 19 103 25 125 12 53 29
151 33 195 2 19 9 53 14 75 13 48 32 154 38 214 2 24 7 47 10 52 3 5 9 35 15
66 5 32 16 94 23 138 8 44 17 88 21 98 6 14 2 17 -23 17 -27 0 -31 -3 -30 -28
1 -15 -4 -43 -10 -62 -6 -19 -14 -62 -18 -95 -8 -70 -10 -84 -24 -150 -6 -27
-13 -63 -15 -80 -12 -79 -24 -145 -28 -152 -5 -8 -10 -39 -22 -128 -9 -67 -15
-86 -25 -80 -5 3 -11 1 -15 -5 -3 -5 1 -10 9 -10 8 0 13 -6 11 -12 -7 -21 -17
-70 -25 -128 -12 -91 -63 -329 -69 -326 -3 2 -7 -30 -9 -71 -2 -41 -13 -105
-24 -141 -11 -37 -22 -77 -23 -89 -5 -40 -17 -83 -22 -83 -3 0 -22 5 -43 11
l-37 11 13 57 c38 171 47 214 60 291 29 183 37 210 57 204 14 -4 18 -2 14 7
-2 8 -10 13 -16 12 -20 -5 -14 33 24 167 9 31 26 96 30 116 3 12 16 64 29 115
22 86 38 158 41 184 1 6 7 30 14 55 7 25 14 59 16 75 3 33 11 73 49 220 14 55
26 103 26 108 0 4 -11 7 -24 7 -21 0 -25 -6 -32 -47 -4 -27 -8 -52 -9 -58 0
-5 -3 -14 -6 -20 -6 -9 -16 -55 -70 -315 -11 -52 -44 -198 -74 -325 -30 -126
-73 -322 -95 -435 -22 -113 -47 -234 -56 -270 -8 -36 -18 -83 -22 -105 -6 -34
-11 -40 -36 -43 -46 -6 -50 8 -28 99 25 109 57 257 81 389 11 58 27 125 35
148 9 24 16 60 17 80 1 20 6 44 10 52 4 8 10 35 13 60 3 25 10 63 15 85 16 59
72 306 77 335 3 14 25 98 49 188 25 89 45 167 45 172 0 15 -40 12 -45 -2z
m-781 -814 c9 -3 16 -10 16 -15 0 -6 -9 -5 -20 1 -11 6 -32 8 -47 4 -22 -4
-25 -3 -13 5 17 12 41 14 64 5z m-29 -64 c-3 -5 -13 -10 -21 -10 -8 0 -26 -7
-40 -16 -21 -14 -23 -14 -19 -2 7 18 41 36 68 37 10 1 15 -3 12 -9z m-85 -79
c0 -16 -27 -37 -36 -28 -4 4 25 47 32 47 2 0 4 -9 4 -19z m-860 4 c0 -2 -10
-10 -22 -16 -21 -11 -22 -11 -9 4 13 16 31 23 31 12z m-140 -19 c0 -2 -7 -7
-16 -10 -8 -3 -12 -2 -9 4 6 10 25 14 25 6z m465 -18 c4 4 6 1 3 -7 -2 -8 -10
-17 -18 -19 -7 -3 -10 0 -6 7 4 6 2 11 -3 11 -6 0 -11 5 -11 11 0 8 4 9 13 0
8 -6 17 -7 22 -3z m665 -2 c0 -14 -29 -31 -38 -21 -6 6 18 35 29 35 5 0 9 -6
9 -14z m-1064 -38 c-11 -15 -16 -18 -16 -7 0 16 21 42 28 34 2 -2 -3 -14 -12
-27z m298 17 c11 -8 32 -15 48 -15 30 0 36 -11 15 -29 -17 -13 -77 7 -77 26 0
22 -49 27 -70 8 -11 -10 -17 -22 -14 -26 3 -5 1 -9 -5 -9 -19 0 -17 25 3 42
26 21 74 23 100 3z m-429 -24 c3 -5 1 -12 -5 -16 -5 -3 -10 1 -10 9 0 18 6 21
15 7z m1045 -12 c-7 -11 -14 -18 -17 -15 -8 8 5 36 17 36 7 0 7 -6 0 -21z m60
1 c0 -11 -4 -20 -9 -20 -5 0 -7 9 -4 20 3 11 7 20 9 20 2 0 4 -9 4 -20z m-246
1 c7 -10 -22 -37 -30 -28 -9 8 3 37 15 37 5 0 12 -4 15 -9z m106 -11 c0 -5 -5
-10 -11 -10 -5 0 -7 5 -4 10 3 6 8 10 11 10 2 0 4 -4 4 -10z m-1010 -33 c0
-20 0 -20 -14 -2 -8 11 -12 23 -9 28 8 13 23 -3 23 -26z m964 -22 c-10 -8 -28
-14 -39 -14 -15 0 -13 3 10 14 40 18 53 18 29 0z m-1019 -39 c-4 -20 -11 -36
-16 -36 -13 0 -11 54 3 68 17 17 20 9 13 -32z m1085 -6 c-14 -10 -26 -17 -28
-16 -7 8 12 35 26 39 28 6 28 -3 2 -23z m175 10 c-3 -5 -11 -10 -16 -10 -6 0
-7 5 -4 10 3 6 11 10 16 10 6 0 7 -4 4 -10z m-272 -62 c-10 -11 -19 -15 -21
-8 -5 15 18 41 30 34 5 -3 1 -15 -9 -26z m186 -61 c-2 -1 -13 -9 -24 -17 -19
-14 -19 -14 -6 3 7 9 18 17 24 17 6 0 8 -1 6 -3z m680 -382 c43 -8 106 -34 98
-41 -3 -3 -14 -1 -24 4 -16 9 -149 33 -195 35 -18 1 -23 9 -13 19 5 5 45 0
134 -17z m-24 -59 c6 -6 19 -10 30 -8 16 4 17 2 6 -11 -7 -9 -19 -13 -27 -10
-8 3 -14 0 -14 -7 0 -7 8 -10 20 -7 11 3 22 2 25 -3 3 -4 -7 -11 -21 -14 -20
-5 -25 -12 -21 -27 5 -17 1 -19 -26 -14 -18 2 -54 7 -80 11 -32 4 -44 10 -35
15 7 4 23 6 35 2 19 -4 23 -1 23 20 0 14 4 28 9 31 5 3 7 16 4 27 -5 19 -3 21
28 14 19 -4 39 -12 44 -19z m53 -92 c1 -1 -4 -6 -12 -13 -11 -9 -15 -7 -18 14
-5 22 -3 24 11 13 9 -7 17 -13 19 -14z m-708 -40 c11 -11 11 -17 2 -26 -15
-15 3 -39 24 -31 10 4 13 -1 12 -18 -3 -21 1 -24 24 -21 14 1 29 -2 33 -8 3
-5 -2 -10 -13 -10 -22 0 -46 -23 -35 -33 3 -4 14 -7 24 -7 12 0 16 -5 13 -15
-9 -22 25 -31 44 -11 15 15 15 18 2 27 -12 8 -11 9 5 5 11 -2 35 -7 53 -11 38
-8 43 -25 6 -25 -33 0 -29 -32 5 -40 16 -3 30 -18 38 -38 12 -29 11 -32 -5
-32 -10 0 -23 -5 -30 -12 -9 -9 -12 -5 -12 21 0 25 4 32 15 27 9 -3 15 0 15
10 0 11 -6 15 -20 11 -10 -3 -20 -1 -22 5 -2 5 -12 6 -22 2 -18 -7 -18 -33 1
-134 11 -64 15 -220 5 -220 -17 0 -25 21 -14 32 7 7 7 19 1 36 -5 13 -11 45
-14 71 -14 151 -27 189 -54 157 -9 -11 -10 -29 -2 -73 11 -62 20 -168 25 -300
3 -60 0 -85 -9 -93 -11 -9 -13 4 -12 72 2 98 -8 230 -22 276 -5 17 -7 32 -5
32 3 0 2 6 -3 13 -4 6 -9 21 -10 32 -2 11 -12 46 -24 79 -11 32 -22 72 -22 89
-2 36 -17 45 -33 19 -9 -14 -7 -34 12 -93 13 -41 26 -87 28 -104 3 -16 7 -37
11 -47 5 -11 1 -16 -12 -15 -10 1 -18 -5 -18 -13 0 -9 9 -15 23 -14 17 0 22
-5 22 -23 0 -16 -6 -23 -19 -23 -24 0 -36 -29 -16 -36 9 -4 21 -1 28 4 10 9
13 4 15 -18 2 -26 -1 -29 -20 -27 -17 1 -23 -3 -23 -18 0 -16 6 -19 28 -17 25
3 27 0 27 -33 0 -33 -1 -35 -16 -21 -19 20 -28 20 -43 2 -15 -18 4 -32 37 -27
18 2 23 -1 20 -16 -2 -13 -11 -17 -29 -15 -20 2 -28 -2 -32 -18 -5 -20 -2 -22
24 -18 18 3 28 1 26 -6 -2 -6 -13 -12 -25 -14 -24 -4 -46 -27 -38 -41 3 -5 15
-7 26 -4 35 9 22 -12 -17 -29 -119 -51 -152 -57 -188 -32 -11 8 -44 14 -76 14
-32 0 -59 4 -61 8 -7 18 -92 72 -114 72 -15 0 -25 8 -29 23 -4 12 -22 38 -40
57 -18 19 -34 40 -36 47 -2 6 -30 41 -61 77 -39 43 -70 68 -95 76 -21 7 -64
30 -96 51 -61 40 -75 41 -115 5 -22 -19 -24 -20 -33 -3 -16 28 -36 20 -68 -29
-36 -52 -37 -61 -15 -93 18 -24 13 -41 -27 -101 -9 -14 -18 -34 -20 -44 -3
-12 -14 -20 -31 -22 -23 -2 -29 3 -39 34 -17 51 -14 128 6 186 11 33 15 65 11
101 -4 46 -2 55 18 74 13 12 26 38 29 57 7 41 68 121 103 134 13 5 24 15 24
21 0 8 18 10 60 6 68 -7 85 -14 119 -51 14 -14 29 -26 34 -26 5 0 18 -11 29
-25 11 -14 24 -25 29 -25 6 0 25 -11 42 -24 52 -39 96 -52 152 -45 28 3 79 5
114 3 36 -2 69 1 77 7 9 8 16 4 28 -13 26 -40 57 -130 51 -148 -8 -25 42 -82
68 -78 26 4 35 33 36 120 1 45 -6 85 -19 119 -21 57 -24 49 42 154 17 28 36
76 42 107 9 51 13 57 31 52 11 -3 27 -12 35 -20z m610 2 c84 -16 130 -32 130
-43 0 -5 -4 -14 -9 -22 -7 -11 -15 -9 -42 12 -25 19 -48 26 -91 29 -41 2 -64
9 -85 26 l-28 23 25 -5 c14 -3 59 -12 100 -20z m-330 -6 c8 -4 53 -15 100 -25
122 -24 133 -28 85 -35 -37 -5 -52 -19 -67 -62 -4 -11 -149 18 -192 39 -29 14
-36 22 -32 38 3 11 6 31 6 43 0 22 3 23 43 17 23 -4 49 -11 57 -15z m-212 -49
c3 -8 -1 -12 -9 -9 -7 2 -15 10 -17 17 -3 8 1 12 9 9 7 -2 15 -10 17 -17z
m477 -61 c-3 -6 -12 -10 -18 -9 -39 5 -53 -3 -62 -33 -15 -47 -35 -49 -25 -2
11 47 17 52 65 56 47 4 49 3 40 -12z m273 -12 c7 -6 15 -9 18 -6 7 8 134 -25
134 -34 0 -24 -26 -98 -34 -98 -5 0 -48 12 -94 27 -73 23 -83 29 -78 46 3 12
-4 32 -15 48 -10 15 -19 30 -19 34 0 10 72 -4 88 -17z m-513 -48 c3 -5 17 -10
30 -10 13 0 27 -5 30 -10 4 -6 10 -8 15 -5 12 7 23 -52 13 -67 -7 -11 -12 -58
-14 -145 -1 -15 -7 -23 -19 -23 -24 0 -64 112 -84 238 -4 23 -2 32 9 32 7 0
17 -4 20 -10z m-55 -161 c0 -5 -9 -9 -20 -9 -13 0 -20 -7 -20 -20 0 -16 5 -19
24 -14 13 3 27 1 30 -5 4 -7 -1 -11 -13 -11 -11 0 -23 -5 -27 -12 -9 -15 -22
15 -23 53 -1 22 4 27 24 27 14 0 25 -4 25 -9z m204 -54 c3 -8 12 -15 21 -15
31 0 14 -15 -20 -17 -35 -3 -40 2 -29 31 8 20 20 20 28 1z m147 -75 l-8 -35
-10 35 c-7 24 -7 39 0 48 17 21 27 -7 18 -48z m-291 25 c18 -21 6 -29 -20 -15
-18 10 -25 9 -39 -4 -10 -11 -12 -19 -6 -24 15 -10 12 -34 -7 -60 -16 -23 -16
-22 -20 43 -1 37 -2 67 -1 68 1 1 19 3 41 5 26 1 44 -3 52 -13z m-1136 -40
c27 -19 64 -38 83 -41 26 -5 48 -23 94 -77 59 -70 68 -90 49 -102 -20 -12 69
-145 96 -145 7 0 18 9 24 20 13 25 31 25 61 1 22 -18 23 -22 10 -43 -8 -12
-16 -52 -19 -88 -3 -56 -1 -69 18 -93 27 -34 36 -29 44 28 6 38 10 44 29 42
19 -2 22 4 25 36 3 40 -3 44 -32 22 -26 -20 -36 -19 -36 4 0 39 10 52 32 40
12 -6 37 -9 56 -5 19 3 43 1 54 -5 18 -10 17 -12 -12 -45 -37 -42 -38 -61 -5
-76 16 -7 25 -19 25 -34 0 -13 10 -32 22 -44 24 -22 46 -21 39 1 -20 64 -2
139 32 139 7 0 20 12 29 28 11 18 36 35 76 50 33 13 66 30 72 38 20 23 33 16
16 -8 -21 -30 -20 -57 4 -113 14 -33 29 -50 51 -59 32 -13 32 -14 10 -25 -12
-7 -19 -16 -16 -21 3 -5 1 -11 -5 -15 -5 -3 -10 -1 -10 4 0 19 -28 12 -44 -10
-10 -14 -21 -19 -32 -15 -22 8 -44 -11 -44 -39 0 -38 54 -41 65 -4 5 14 13 18
33 14 15 -2 37 2 50 11 13 9 26 14 28 11 9 -8 -105 -67 -149 -77 -24 -5 -52
-12 -61 -16 -16 -6 -17 -4 -7 14 26 48 0 69 -47 36 -28 -19 -28 -44 -1 -51 19
-5 17 -8 -17 -24 -50 -25 -68 -25 -54 0 13 26 13 28 -6 35 -10 4 -25 -1 -35
-10 -17 -16 -19 -16 -25 1 -4 10 -2 26 4 36 21 32 -9 35 -35 3 -30 -37 -29
-64 2 -98 32 -34 32 -48 0 -40 -20 5 -27 1 -36 -20 -13 -27 -45 -34 -96 -20
l-23 6 22 31 21 30 -34 28 c-19 16 -37 29 -41 29 -3 0 -20 -11 -36 -25 -32
-27 -61 -32 -80 -13 -17 17 -25 3 -12 -21 14 -28 49 -27 93 3 29 20 38 22 47
11 8 -10 0 -25 -36 -64 -26 -28 -50 -48 -54 -46 -4 3 -30 7 -58 9 -93 8 -194
99 -242 220 -33 83 -56 112 -75 96 -17 -14 -22 2 -29 112 -5 86 -18 120 -42
111 -12 -4 -14 -14 -9 -37 13 -65 16 -106 6 -106 -30 0 -26 154 4 176 20 15
13 47 -9 38 -8 -3 -24 -26 -36 -50 -25 -55 -26 -153 0 -187 9 -12 24 -39 34
-61 13 -28 21 -35 29 -27 16 16 32 14 18 -3 -8 -10 -7 -24 4 -56 18 -51 32
-70 52 -70 16 0 15 26 -3 75 l-7 20 16 -20 c9 -11 17 -28 17 -38 0 -10 6 -30
14 -46 24 -45 6 -57 -40 -27 -57 37 -73 56 -86 98 -6 21 -17 38 -24 38 -17 0
-86 178 -86 225 -1 75 2 85 27 107 14 12 25 32 25 45 0 13 9 31 20 40 11 10
20 26 20 37 0 11 7 28 16 37 14 16 15 25 5 64 -14 55 -7 73 20 49 19 -17 21
-17 52 14 17 18 34 32 37 32 3 0 27 -16 54 -35z m1345 24 c17 -6 31 -14 31
-18 0 -3 -38 -15 -85 -25 -68 -15 -91 -25 -115 -49 -34 -35 -36 -42 -14 -51 9
-4 26 5 42 23 30 31 152 67 179 53 23 -13 -2 -27 -90 -47 -42 -9 -80 -21 -82
-26 -12 -19 21 -19 96 1 76 19 99 20 99 1 0 -13 -154 -62 -158 -51 -2 6 -15
10 -29 10 -18 0 -24 -5 -21 -17 2 -12 11 -17 26 -15 13 2 29 -1 36 -7 9 -8 21
-7 42 3 16 8 44 17 62 21 29 6 33 4 30 -11 -3 -18 -93 -58 -109 -49 -15 10
-39 -8 -39 -29 0 -32 -68 -125 -115 -158 -95 -66 -163 -52 -157 32 3 50 12 82
30 107 26 37 72 129 72 144 0 7 11 27 25 45 14 18 25 39 25 47 0 9 7 13 18 11
11 -3 21 3 27 18 7 16 20 24 45 25 27 3 90 17 96 22 1 1 15 -4 33 -10z m-309
-151 c0 -23 -15 -37 -38 -35 -27 2 -27 5 -4 28 20 21 42 24 42 7z m-36 -92
c-3 -9 -10 -16 -15 -16 -6 0 -5 9 1 21 13 24 24 20 14 -5z m-704 -46 c12 -16
17 -30 11 -30 -6 0 -17 14 -26 30 -9 17 -13 30 -11 30 3 0 14 -13 26 -30z
m1035 -26 c-8 -20 -15 -47 -15 -61 0 -19 -4 -23 -17 -19 -30 9 -43 -6 -34 -39
4 -17 12 -30 18 -30 23 0 24 -15 2 -44 -22 -30 -49 -41 -49 -21 0 15 -26 12
-39 -4 -10 -12 -7 -18 18 -31 35 -18 40 -25 12 -18 -26 7 -52 37 -52 59 2 59
14 92 42 108 16 9 29 24 29 32 0 20 58 92 79 97 9 3 17 5 19 6 1 0 -5 -15 -13
-35z m189 -49 c-8 -19 -18 -19 -33 -1 -9 10 -8 15 4 20 8 3 15 13 16 23 0 14
2 13 9 -5 5 -12 7 -29 4 -37z m-64 35 c0 -5 -2 -10 -4 -10 -3 0 -8 5 -11 10
-3 6 -1 10 4 10 6 0 11 -4 11 -10z m-27 -42 c18 -13 39 -32 48 -43 16 -19 16
-20 -15 -30 -20 -7 -30 -16 -28 -27 1 -8 -5 -18 -13 -22 -11 -4 -14 -13 -9
-31 4 -16 1 -32 -7 -43 -27 -33 -49 -80 -49 -105 0 -13 -12 -50 -26 -82 -22
-47 -24 -59 -13 -67 11 -8 10 -9 -3 -5 -12 4 -25 -8 -47 -48 -25 -44 -38 -56
-73 -68 -34 -11 -43 -19 -41 -36 2 -13 -3 -21 -12 -21 -8 0 -15 6 -15 13 0 8
-11 19 -25 25 -14 6 -25 16 -25 22 0 7 6 8 19 0 33 -17 37 10 5 36 -16 13 -32
23 -36 24 -5 0 -8 9 -8 20 0 19 0 19 34 -1 50 -29 57 -6 12 40 -20 20 -36 46
-36 56 0 16 4 15 20 -10 19 -28 64 -53 103 -54 32 -2 17 20 -29 40 -26 12 -50
31 -56 45 -6 13 -15 24 -20 24 -4 0 -8 5 -8 11 0 6 16 -1 35 -15 34 -26 62
-38 118 -50 48 -11 31 18 -22 37 -47 16 -121 79 -121 103 0 24 14 22 30 -4 9
-15 33 -36 53 -47 32 -17 39 -17 63 -5 l26 15 -40 10 c-48 12 -79 38 -97 82
-8 18 -19 33 -24 33 -17 0 -13 16 10 41 14 17 19 19 15 7 -3 -10 -1 -20 4 -23
6 -4 10 -14 10 -24 0 -27 53 -72 96 -81 30 -7 47 -5 73 8 56 28 76 63 77 140
1 104 4 132 10 132 3 0 20 -10 37 -22z m-113 -193 c-21 -25 -32 -17 -13 9 10
13 20 20 21 15 2 -5 -2 -16 -8 -24z m-310 -32 c0 -20 -24 -11 -28 10 -2 12 1
15 12 11 9 -3 16 -13 16 -21z m-30 -83 c0 -5 -5 -10 -11 -10 -5 0 -7 5 -4 10
3 6 8 10 11 10 2 0 4 -4 4 -10z m60 -10 c0 -5 -4 -10 -10 -10 -5 0 -10 5 -10
10 0 6 5 10 10 10 6 0 10 -4 10 -10z m-108 -64 c12 -18 -2 -26 -29 -15 -31 11
-49 -1 -39 -27 5 -12 14 -15 36 -10 25 5 30 2 30 -14 0 -15 -7 -20 -29 -20
-17 0 -33 -5 -36 -11 -4 -6 -14 -8 -22 -5 -9 4 -21 2 -28 -4 -7 -6 -17 -10
-21 -9 -28 5 -44 -3 -44 -21 0 -16 7 -20 30 -20 22 0 28 -4 23 -15 -3 -9 -13
-15 -22 -13 -9 1 -22 -1 -28 -5 -10 -6 -13 5 -13 46 0 63 5 71 33 52 14 -10
25 -11 39 -4 26 14 23 25 -12 39 -25 10 -33 10 -47 -1 -15 -12 -16 -12 -10 4
5 13 1 17 -14 17 -29 0 -34 -20 -38 -181 -1 -44 -2 -46 -26 -41 -17 3 -23 8
-17 16 20 25 32 79 21 92 -21 25 -58 -15 -50 -54 1 -8 -2 -19 -7 -25 -5 -7 -9
-60 -9 -118 0 -59 -4 -137 -8 -175 -5 -38 -9 -77 -10 -87 -2 -19 -21 -37 -40
-37 -5 0 -15 11 -22 25 -13 28 -10 30 19 14 22 -12 42 -1 30 16 -10 15 -93 46
-104 39 -5 -3 -7 -11 -5 -18 3 -8 -4 -11 -25 -8 -25 4 -29 1 -26 -14 2 -12 22
-26 58 -39 42 -15 49 -21 32 -23 -12 -2 -43 9 -68 25 -26 15 -63 37 -83 48
-36 19 -100 63 -111 75 -3 3 -17 13 -32 23 -15 9 -31 29 -34 43 -5 21 -11 25
-31 21 -18 -3 -27 2 -38 24 -19 35 -19 40 0 33 18 -7 20 17 3 35 -10 11 -10
14 0 18 21 8 13 31 -18 53 -35 25 -31 49 4 26 26 -16 52 -6 43 18 -3 8 -21 19
-38 24 -18 4 -35 14 -37 22 -3 9 0 11 14 5 11 -4 28 -9 39 -10 11 -2 46 -12
77 -23 60 -22 146 -31 166 -18 7 4 10 16 7 27 -10 29 2 39 30 25 40 -21 117
-9 155 24 13 11 29 20 36 20 8 0 21 11 30 25 9 14 19 23 22 20 3 -3 15 4 27
15 27 25 108 55 113 40 2 -5 17 -10 33 -10 22 0 29 5 29 19 0 11 8 21 18 24
23 6 65 -4 74 -17z m-892 -52 c0 -4 -9 1 -20 11 -11 10 -20 23 -20 28 0 6 9 1
20 -11 11 -12 20 -24 20 -28z m981 -27 c-8 -8 -11 -7 -11 4 0 20 13 34 18 19
3 -7 -1 -17 -7 -23z m-1006 -17 c-4 -6 -2 -17 4 -24 8 -10 8 -16 -3 -25 -11
-9 -15 -7 -19 11 -4 12 -1 28 5 35 13 16 22 17 13 3z m1325 -10 c-6 -11 -13
-20 -16 -20 -2 0 0 9 6 20 6 11 13 20 16 20 2 0 0 -9 -6 -20z m-378 -46 c-5
-74 -26 -194 -34 -194 -4 0 -5 12 -2 28 11 61 21 159 20 185 -1 15 2 26 8 24
6 -2 10 -21 8 -43z m-62 22 c0 -2 3 -11 6 -20 5 -12 0 -16 -20 -16 -14 0 -26
-2 -26 -4 0 -2 -3 -11 -6 -20 -5 -12 1 -16 23 -16 22 0 29 -5 29 -19 0 -15 -7
-19 -36 -17 -20 0 -34 6 -33 12 2 10 10 78 12 97 1 7 51 10 51 3z m-874 -93
c1 -10 4 -43 8 -73 6 -43 5 -52 -5 -43 -14 14 -25 133 -12 133 5 0 9 -8 9 -17z
m755 -3 c10 0 19 -6 19 -14 0 -10 -9 -14 -27 -13 -37 3 -45 -30 -9 -39 13 -3
27 -13 31 -21 8 -22 0 -26 -25 -13 -12 6 -28 9 -36 6 -11 -4 -14 -1 -9 13 3
10 -1 24 -10 31 -19 16 -19 30 0 30 8 0 15 7 15 16 0 11 5 14 16 10 9 -3 24
-6 35 -6z m119 -65 c0 -21 -16 -33 -43 -32 -20 2 -27 7 -27 22 0 16 7 20 35
20 19 0 35 -4 35 -10z m97 -7 c-3 -8 -6 -5 -6 6 -1 11 2 17 5 13 3 -3 4 -12 1
-19z m-318 2 c5 0 6 -11 4 -24 -7 -33 -43 -24 -43 11 0 19 4 24 16 19 9 -3 19
-6 23 -6z m-589 -10 c0 -5 -2 -10 -4 -10 -3 0 -8 5 -11 10 -3 6 -1 10 4 10 6
0 11 -4 11 -10z m902 -42 c-9 -9 -12 -7 -12 12 0 19 3 21 12 12 9 -9 9 -15 0
-24z m-196 -24 c-3 -9 -6 -20 -6 -25 0 -6 -6 -7 -16 -1 -9 5 -25 7 -35 5 -14
-4 -19 0 -19 14 0 16 8 20 41 21 34 2 40 -1 35 -14z m94 -17 c0 -45 -15 -65
-45 -60 -32 7 -32 17 3 32 l27 13 -22 15 c-32 21 -29 34 7 31 26 -2 30 -6 30
-31z m50 23 c0 -5 -5 -10 -11 -10 -5 0 -7 5 -4 10 3 6 8 10 11 10 2 0 4 -4 4
-10z m-264 -32 c3 -25 -23 -22 -29 3 -4 15 -1 19 10 17 9 -2 17 -11 19 -20z
m299 -48 c-8 -36 -14 -84 -15 -107 0 -24 -6 -45 -14 -50 -7 -4 -16 -15 -20
-23 -3 -8 -4 -4 -1 10 3 14 8 34 10 45 32 157 43 200 49 194 3 -2 -2 -33 -9
-69z m-195 -2 c0 -6 -3 -8 -7 -5 -7 8 -33 -11 -33 -24 0 -5 7 -9 15 -9 8 0 15
-7 15 -17 0 -14 -2 -15 -17 -1 -10 9 -23 14 -28 12 -9 -3 -13 40 -6 54 4 8 61
0 61 -10z m137 -20 c-3 -8 -6 -5 -6 6 -1 11 2 17 5 13 3 -3 4 -12 1 -19z
m-241 -31 c-1 -37 -4 -43 -18 -39 -23 6 -23 11 -1 27 17 12 17 14 -1 34 -19
21 -19 21 1 21 18 0 21 -6 19 -43z m186 -19 c-3 -22 -7 -26 -18 -17 -7 6 -22
8 -34 4 -18 -6 -19 -4 -9 18 7 16 19 24 38 24 24 0 27 -3 23 -29z m-781 -40
c30 -29 67 -62 81 -74 37 -31 222 -134 240 -134 9 0 23 -7 31 -15 8 -8 39 -24
69 -36 62 -25 180 -30 293 -12 48 7 73 7 80 0 7 -7 6 -8 -1 -4 -6 4 -20 0 -30
-8 -16 -13 -17 -16 -4 -25 8 -5 23 -7 33 -4 9 3 17 1 17 -5 0 -5 -9 -13 -20
-16 -11 -3 -20 -13 -20 -21 0 -14 10 -18 41 -15 23 2 34 -30 14 -41 -24 -14
-18 -37 8 -34 21 3 26 -6 51 -83 15 -48 28 -93 29 -102 2 -8 16 -39 33 -69 56
-101 83 -227 52 -247 -41 -26 -108 -34 -108 -12 0 5 -21 9 -47 9 -25 0 -43 3
-39 7 4 4 36 6 71 5 62 -3 105 9 105 28 0 6 -41 10 -95 10 -57 0 -95 4 -95 10
0 6 0 13 0 18 0 4 23 5 50 4 56 -4 90 4 90 21 0 8 -22 13 -58 15 -102 5 -102
5 -125 120 l-7 33 41 -5 c43 -5 89 7 89 24 0 13 -103 13 -117 -1 -7 -7 -14 19
-23 93 -7 57 -16 112 -20 124 -5 11 -4 27 0 34 6 9 10 1 15 -26 17 -108 39
-173 59 -178 38 -10 56 -7 50 9 -4 8 -13 15 -21 15 -8 0 -11 5 -8 11 4 5 0 18
-9 28 -8 9 -24 62 -35 117 -26 133 -26 132 -68 132 l-36 0 7 -71 c9 -90 13
-119 25 -182 5 -27 7 -53 5 -56 -2 -4 1 -20 6 -35 8 -20 7 -32 -3 -48 -16 -25
-12 -47 9 -39 10 4 14 -3 14 -23 0 -15 -3 -24 -6 -21 -4 3 -14 2 -23 -3 -15
-7 -17 -1 -19 58 -3 75 -11 142 -19 156 -3 5 -7 44 -10 88 -4 86 -23 148 -47
148 -24 0 -28 -18 -12 -52 9 -17 16 -56 16 -87 0 -31 7 -75 15 -98 11 -32 15
-89 14 -221 0 -101 5 -191 11 -206 5 -15 8 -31 5 -36 -3 -5 -1 -11 5 -15 5 -3
10 -12 10 -18 -1 -7 -9 -3 -18 9 -13 15 -23 19 -37 13 -30 -11 -38 -10 -32 5
6 16 -24 44 -41 38 -7 -2 -12 1 -12 7 0 17 25 13 50 -9 13 -11 27 -20 32 -20
12 0 10 54 -3 67 -15 15 -20 91 -22 345 -1 161 -5 230 -14 239 -8 8 -9 18 -3
29 14 26 -15 49 -34 29 -21 -22 -29 -79 -11 -79 8 0 15 -8 15 -19 0 -12 -7
-18 -17 -17 -24 1 -36 22 -25 42 6 10 5 32 -1 56 -9 37 -11 39 -41 32 -44 -9
-46 -11 -46 -47 -1 -18 -6 -61 -13 -97 -11 -59 -14 -65 -37 -65 -15 0 -26 -6
-28 -17 -3 -14 3 -18 22 -18 15 0 26 -6 26 -13 0 -9 -11 -12 -36 -9 -31 4 -35
2 -32 -14 3 -13 12 -18 30 -17 28 2 41 -15 29 -36 -6 -9 -15 -9 -36 -1 -19 7
-32 7 -38 1 -16 -16 10 -39 42 -37 24 2 28 -2 29 -26 0 -20 -3 -26 -11 -21
-16 10 -57 15 -73 9 -17 -7 -7 -34 14 -39 12 -3 10 -5 -5 -6 -16 -1 -23 -7
-23 -22 0 -19 4 -21 40 -16 37 5 40 3 40 -19 0 -23 -3 -24 -39 -18 -25 4 -41
2 -46 -6 -11 -17 9 -32 47 -35 21 -1 34 -8 36 -19 3 -13 -2 -16 -20 -12 -26 6
-57 9 -75 7 -24 -2 -13 -31 15 -37 15 -3 34 -8 42 -11 8 -3 22 -7 30 -9 8 -2
16 -8 18 -13 2 -6 10 -11 18 -11 11 0 12 -4 2 -19 -11 -18 -12 -18 -42 0 -17
9 -48 21 -68 24 -30 6 -39 4 -44 -10 -7 -17 13 -38 28 -29 4 3 20 -2 35 -11
l28 -16 -35 6 c-19 3 -52 6 -74 5 -54 -1 -76 8 -76 32 0 16 -5 19 -21 15 -19
-5 -21 -3 -15 25 3 17 6 45 7 62 1 30 1 30 11 -9 11 -41 25 -58 40 -49 10 6 6
94 -4 94 -6 0 -24 79 -35 150 -2 20 0 60 6 90 6 30 14 67 17 83 6 29 -14 38
-34 15 -8 -11 -20 -65 -22 -100 0 -5 -4 -8 -9 -8 -13 0 -1 119 20 195 21 79
22 95 5 95 -8 0 -19 -8 -25 -17 -13 -26 -30 -118 -36 -198 -3 -38 -8 -102 -11
-141 -4 -52 -2 -80 10 -108 15 -36 23 -176 10 -176 -3 0 -13 4 -22 9 -9 5 -30
11 -47 14 -16 3 -48 9 -70 13 -22 4 -47 15 -56 26 -9 10 -25 18 -35 18 -36 0
-45 14 -36 56 9 40 11 41 63 28 41 -9 46 22 8 42 -25 12 -33 13 -46 3 -13 -12
-14 -5 -8 56 9 99 12 107 34 93 20 -12 51 -5 51 12 0 17 -43 29 -59 16 -12 -9
-13 -7 -7 9 5 11 11 28 14 38 4 15 11 18 38 12 30 -5 34 -3 34 15 0 18 -10 25
-32 21 -7 -1 -9 5 -12 41 -1 7 12 15 28 18 38 7 44 26 11 34 -29 7 -29 33 0
28 19 -4 37 16 29 30 -3 4 -14 8 -24 8 -13 0 -17 5 -14 14 3 8 17 14 31 13 32
-2 42 19 14 28 -31 9 -26 34 5 32 33 -2 43 19 14 28 -13 4 -23 18 -27 36 -11
55 -35 26 -60 -70 -8 -31 -18 -69 -22 -86 -33 -112 -63 -222 -65 -235 -1 -8
-5 -24 -9 -35 -3 -11 -9 -44 -11 -74 -7 -73 -15 -92 -34 -89 -9 1 -23 -1 -30
-5 -13 -9 -16 -3 -26 45 -6 26 -5 27 20 18 33 -13 34 -13 34 5 0 8 -9 20 -20
27 -11 7 -20 16 -20 19 0 4 9 5 20 2 15 -4 20 0 20 15 0 11 -7 25 -15 32 -8 7
-12 17 -9 22 4 6 10 5 15 -3 6 -10 10 -9 15 5 4 10 3 26 -2 34 -12 18 13 82
32 82 15 0 26 28 14 35 -12 7 3 49 52 155 14 30 34 77 44 103 9 26 30 69 46
94 24 37 28 53 23 80 -7 36 -29 53 -47 35 -8 -8 -7 -16 3 -28 12 -15 12 -16
-8 -10 -31 10 -41 -13 -15 -34 19 -16 19 -20 7 -36 -12 -16 -14 -17 -15 -3 0
22 -26 31 -39 15 -12 -14 -1 -29 27 -37 9 -3 6 -17 -12 -54 -29 -59 -54 -117
-91 -205 -15 -36 -31 -69 -36 -74 -5 -6 -9 -20 -9 -31 0 -12 -3 -25 -7 -29 -8
-7 -24 -50 -55 -146 -21 -64 -24 -127 -8 -144 14 -15 -1 -36 -26 -36 -19 0
-24 5 -24 25 0 14 -4 25 -9 25 -5 0 -16 3 -25 6 -12 5 -16 0 -16 -19 0 -25
-16 -45 -27 -33 -3 3 -2 13 2 23 4 10 7 32 6 48 -1 18 1 25 6 18 11 -15 59
-34 67 -26 15 15 4 35 -24 44 -40 14 -38 30 3 27 27 -3 33 1 35 20 3 18 -1 22
-22 22 -14 0 -26 5 -26 10 0 6 12 9 27 8 37 -4 45 29 9 38 -15 3 -23 11 -20
19 4 11 10 11 32 -1 15 -7 30 -10 35 -5 12 12 -2 39 -23 46 -29 9 -13 36 16
29 19 -5 24 -2 24 14 0 12 -4 24 -10 27 -5 3 -9 16 -9 28 1 17 2 18 6 5 6 -24
43 -24 43 0 0 10 -5 23 -11 29 -7 7 -6 14 4 24 18 18 28 81 16 100 -7 11 -13
9 -29 -11 -11 -14 -20 -33 -20 -42 0 -9 -5 -20 -11 -23 -7 -5 -5 -13 6 -25 9
-10 12 -21 7 -24 -6 -3 -13 1 -16 10 -3 8 -14 14 -23 12 -14 -3 -17 -11 -15
-41 2 -23 -2 -45 -11 -55 -25 -31 -67 -114 -67 -136 0 -15 -3 -17 -9 -8 -6 11
-13 8 -29 -12 -67 -86 -18 64 51 156 14 18 39 60 57 93 18 33 45 76 60 95 15
19 39 58 54 85 16 28 32 54 37 60 5 5 9 15 9 22 0 7 16 36 35 63 19 27 35 55
35 60 0 18 82 51 115 46 20 -3 50 -23 86 -58z m675 3 c0 -11 -5 -17 -12 -14
-6 2 -16 -3 -23 -11 -10 -11 -8 -17 8 -28 21 -15 13 -47 -8 -34 -19 12 -23
-21 -6 -48 16 -24 16 -26 0 -33 -21 -7 -49 24 -41 47 43 128 52 147 66 143 9
-2 16 -12 16 -22z m-91 -21 c4 -6 -3 -26 -14 -45 -20 -34 -19 -65 1 -65 5 0 6
-4 3 -10 -8 -13 -18 -13 -39 3 -16 12 -16 15 -2 42 9 17 16 39 16 51 0 32 21
46 35 24z m151 -40 c8 0 14 -7 14 -15 0 -16 -35 -21 -44 -6 -4 5 -3 17 1 27 4
11 8 13 11 6 2 -7 10 -12 18 -12z m85 -30 c10 0 19 -6 19 -14 0 -19 -17 -29
-25 -15 -4 5 -13 8 -21 5 -15 -6 -18 3 -7 30 4 11 8 13 11 6 2 -7 12 -12 23
-12z m-127 -35 c-4 -8 -8 -15 -10 -15 -2 0 -4 7 -4 15 0 8 4 15 10 15 5 0 7
-7 4 -15z m203 -221 c21 -31 49 -127 58 -196 2 -15 6 -37 9 -48 3 -11 9 -29
12 -40 3 -11 1 -20 -5 -20 -6 0 -11 9 -11 21 0 17 -45 157 -67 209 -3 8 -7 17
-8 20 -1 3 -7 19 -14 35 -7 17 -14 44 -16 60 -3 26 -2 28 8 11 7 -10 22 -34
34 -52z m-434 5 c4 -3 1 -12 -8 -19 -13 -11 -15 -9 -15 15 0 16 3 24 8 19 4
-5 11 -11 15 -15z m-17 -217 c1 -86 3 -222 4 -302 4 -157 -11 -254 -33 -215
-29 53 -40 194 -25 320 20 157 26 232 21 256 -3 15 0 30 6 33 6 4 11 20 11 37
0 16 3 29 8 29 4 0 8 -71 8 -158z m71 92 c29 -8 20 -24 -13 -24 -15 0 -24 6
-24 15 0 17 4 18 37 9z m11 -63 c6 -1 12 -8 12 -16 0 -21 -54 -14 -58 8 -2 10
3 14 15 12 10 -2 24 -4 31 -4z m2 -73 c0 -11 -38 -10 -44 1 -3 5 5 8 19 7 14
0 25 -4 25 -8z m-467 -48 c-3 -12 -8 -19 -11 -16 -5 6 5 36 12 36 2 0 2 -9 -1
-20z m463 -18 c1 -7 0 -8 -2 -3 -3 6 -12 7 -20 4 -8 -3 -14 0 -14 7 0 15 33 9
36 -8z m474 -27 c0 -5 -5 -3 -10 5 -5 8 -10 20 -10 25 0 6 5 3 10 -5 5 -8 10
-19 10 -25z m-936 -35 c4 -31 3 -40 -4 -30 -5 8 -10 30 -10 49 0 45 6 37 14
-19z m466 10 c0 -5 -5 -10 -11 -10 -5 0 -7 5 -4 10 3 6 8 10 11 10 2 0 4 -4 4
-10z m-180 -37 c0 -11 -3 -14 -8 -7 -4 6 -14 14 -22 17 -10 4 -8 6 8 6 15 1
22 -5 22 -16z m165 -22 c-3 -5 3 -12 12 -14 11 -3 8 -5 -9 -6 -19 -1 -28 4
-28 14 0 8 7 15 16 15 8 0 13 -4 9 -9z m-426 -44 c1 -5 -3 -5 -9 -2 -5 3 -10
16 -9 28 0 21 1 21 9 2 5 -11 9 -24 9 -28z m-373 -21 c-5 -28 -2 -39 15 -55
13 -12 32 -24 43 -27 12 -4 33 -17 48 -29 18 -15 46 -25 89 -29 34 -4 80 -16
102 -27 21 -11 45 -18 53 -15 7 3 19 -4 24 -15 10 -17 4 -27 -34 -70 -25 -28
-66 -78 -91 -112 -61 -82 -102 -132 -147 -182 -21 -22 -38 -43 -38 -47 0 -4
-20 -31 -44 -61 -24 -29 -49 -64 -56 -77 -13 -23 -102 -142 -127 -168 -7 -7
-27 -18 -45 -24 -42 -14 -68 -36 -68 -58 0 -18 -34 -58 -78 -92 -34 -28 -28
-65 11 -59 10 1 10 -1 -14 -55 -57 -133 -92 -188 -174 -270 -48 -48 -85 -58
-140 -36 -104 42 -138 114 -110 232 10 44 45 128 72 175 35 61 108 123 163
140 61 18 94 77 110 196 11 81 39 187 64 239 7 14 23 61 36 105 23 80 93 284
125 361 18 46 57 64 85 39 8 -7 33 -13 55 -12 35 2 40 5 49 35 12 43 30 42 22
-2z m1016 16 c14 -14 8 -22 -25 -27 -18 -4 -26 0 -30 14 -3 11 -3 22 -1 24 8
7 45 0 56 -11z m-192 -27 c0 -8 -9 -15 -20 -15 -11 0 -20 7 -20 15 0 8 9 15
20 15 11 0 20 -7 20 -15z m-913 -1 c-3 -3 -12 -4 -19 -1 -8 3 -5 6 6 6 11 1
17 -2 13 -5z m1120 -50 c2 -7 -8 -11 -28 -10 -18 1 -34 7 -36 13 -3 7 8 11 28
10 18 -1 34 -7 36 -13z m-213 -10 c25 -9 19 -24 -9 -24 -16 0 -25 6 -25 15 0
16 9 19 34 9z m226 -50 c0 -16 -65 -20 -74 -5 -8 13 0 17 39 18 24 1 35 -3 35
-13z m-390 -103 c14 -52 38 -72 75 -62 22 5 31 15 35 36 4 25 6 26 18 12 11
-13 18 -14 32 -5 9 6 24 8 33 5 14 -5 14 -11 2 -50 -7 -25 -18 -53 -23 -63 -6
-11 -22 -57 -36 -104 -13 -47 -36 -121 -50 -165 -13 -44 -30 -102 -37 -130 -6
-27 -18 -61 -25 -75 -18 -33 -74 -203 -74 -225 0 -9 -11 -32 -25 -52 -13 -20
-21 -41 -18 -46 3 -6 1 -7 -4 -4 -15 10 -22 -11 -48 -148 -31 -161 -34 -199
-20 -215 43 -48 -80 -80 -197 -51 -91 21 -136 80 -145 188 -6 67 17 129 74
205 24 31 43 61 43 67 0 6 4 11 9 11 5 0 13 10 16 23 4 12 14 37 22 56 12 27
13 38 4 54 -8 12 -14 108 -17 298 -7 317 -13 286 83 388 63 67 54 64 183 58
43 -1 55 1 56 13 3 29 4 31 14 25 5 -3 14 -23 20 -44z m361 39 c11 0 12 -29 2
-31 -42 -7 -54 -5 -49 8 3 8 6 19 6 25 0 6 7 7 16 4 9 -3 20 -6 25 -6z m-234
-22 c-3 -8 -6 -5 -6 6 -1 11 2 17 5 13 3 -3 4 -12 1 -19z m-525 -483 c3 -297
-6 -362 -63 -438 -60 -79 -90 -148 -96 -219 -5 -53 -10 -67 -34 -86 -23 -20
-29 -35 -34 -86 -9 -83 11 -210 42 -258 13 -21 28 -38 33 -38 6 0 10 -9 10
-20 0 -12 -7 -20 -18 -20 -10 0 -28 -7 -40 -16 -21 -15 -22 -14 -22 14 0 41
-52 109 -92 121 -18 5 -47 15 -65 22 -44 18 -167 -3 -250 -42 -65 -31 -148
-112 -139 -136 9 -22 -27 -15 -56 12 -24 22 -27 32 -24 74 4 61 12 74 41 67
30 -8 51 24 59 89 11 76 16 95 49 160 17 33 30 66 29 73 -2 6 10 31 26 55 15
23 40 74 56 114 34 89 84 167 179 280 41 49 86 106 100 128 15 22 47 67 71
100 25 33 61 84 81 113 19 29 41 55 49 58 7 3 33 32 56 65 24 32 45 58 46 56
2 -1 4 -111 6 -242z m1630 -36 c9 -5 26 -9 36 -9 30 0 137 -95 155 -138 43
-100 42 -178 -4 -244 -11 -14 -19 -42 -19 -62 0 -30 -6 -39 -37 -61 -21 -14
-43 -25 -50 -25 -7 0 -13 -6 -13 -14 0 -19 -24 -23 -87 -15 -40 6 -58 14 -80
38 -19 21 -32 28 -41 22 -11 -7 -11 -15 2 -45 11 -28 26 -42 56 -54 37 -16 59
-42 23 -28 -22 9 -81 -11 -119 -40 -31 -23 -32 -23 -37 -4 -8 31 -31 15 -48
-33 -31 -84 -181 -146 -287 -116 -154 42 -208 93 -223 209 -11 90 5 148 53
197 31 31 39 46 31 54 -26 26 -109 -63 -129 -140 -15 -58 -2 -161 26 -208 25
-42 25 -52 3 -51 -30 2 -96 -13 -128 -29 -61 -31 -143 -137 -131 -169 3 -7 -2
-18 -11 -26 -13 -10 -17 -10 -20 0 -3 6 -17 12 -31 12 -60 0 -125 71 -93 103
19 19 12 37 -14 37 -14 0 -29 8 -35 21 -10 17 -8 21 10 26 18 5 21 10 15 32
-31 112 37 198 173 218 23 3 34 0 38 -11 3 -9 12 -16 20 -16 16 0 19 36 4 45
-5 3 -10 17 -10 31 0 14 -5 34 -10 45 -22 41 -19 102 10 164 43 95 99 134 193
135 25 0 27 -3 27 -39 0 -46 12 -58 34 -35 11 10 14 24 10 41 -11 43 30 105
82 127 52 21 119 14 134 -14 14 -27 13 -30 -14 -30 -28 0 -80 -55 -72 -76 3
-9 -1 -14 -12 -14 -9 0 -32 -9 -49 -20 -33 -20 -42 -50 -24 -79 12 -19 31 -5
31 24 0 26 34 39 75 29 23 -6 25 -3 25 27 1 53 37 74 126 74 56 0 76 -4 92
-18 39 -36 50 -2 20 60 -14 29 -1 44 58 72 74 35 216 46 266 20z m-3242 -52
c21 -17 62 -40 91 -50 99 -33 303 -43 319 -16 6 9 16 9 43 -4 48 -23 85 -21
140 7 45 22 47 22 47 4 0 -40 29 -90 60 -101 l30 -11 -36 -37 c-35 -36 -38
-37 -60 -22 -13 8 -24 20 -24 25 0 12 -54 58 -94 80 -48 27 -196 23 -292 -7
-16 -5 -23 -2 -26 13 -6 21 -16 21 -95 -3 -18 -6 -25 -2 -32 18 -11 28 -47 40
-94 32 -29 -6 -33 -3 -45 25 -16 36 -8 80 14 80 9 0 33 -15 54 -33z m518 -602
c2 -47 24 -86 72 -127 64 -56 137 -71 204 -43 34 15 36 14 36 -5 0 -12 -10
-25 -24 -31 -36 -17 -63 -60 -71 -113 -8 -54 -16 -61 -68 -57 -28 2 -56 16
-105 53 -114 86 -115 87 -102 176 8 62 44 182 55 182 1 0 2 -16 3 -35z m982
-153 c63 -66 123 -84 264 -80 87 2 107 0 112 -12 11 -30 5 -173 -8 -182 -7 -4
-43 -8 -80 -8 -79 0 -98 13 -98 71 0 38 -26 79 -51 79 -31 0 -49 -22 -49 -59
0 -42 -11 -56 -53 -66 -58 -15 -97 62 -105 208 -6 116 0 120 68 49z m1030 -25
c41 -20 61 -48 70 -99 7 -36 7 -37 -21 -31 -43 8 -157 -17 -219 -49 -66 -34
-134 -96 -160 -147 -10 -21 -26 -43 -34 -50 -9 -8 -16 -24 -16 -37 0 -12 -4
-26 -10 -29 -5 -3 -10 -28 -10 -56 0 -48 -1 -49 -31 -49 -68 0 -139 -57 -159
-128 -10 -33 -64 -91 -75 -80 -5 5 -12 69 -21 191 -6 71 -4 87 6 85 9 -2 16
12 21 41 10 50 25 72 45 64 8 -3 14 0 14 7 0 8 10 9 31 5 31 -7 32 -6 25 21
-20 78 -19 95 5 121 21 21 30 24 68 20 26 -3 50 -12 57 -22 17 -23 44 -12 44
17 1 22 1 22 15 4 12 -16 15 -17 20 -4 4 9 15 18 27 21 14 4 19 13 18 34 -3
46 -1 51 37 93 24 28 43 40 58 38 11 -1 31 7 44 19 29 27 95 26 151 0z m-1729
-120 c-8 -8 -11 -7 -11 4 0 20 13 34 18 19 3 -7 -1 -17 -7 -23z m-898 -50 c55
-25 61 -26 93 -12 l35 14 15 -34 c22 -54 52 -82 100 -95 49 -14 128 -7 152 12
13 11 14 9 8 -12 -18 -62 -69 -150 -101 -174 -19 -15 -42 -40 -50 -57 -19 -35
-28 -37 -43 -5 -14 32 -72 50 -133 43 l-49 -6 26 41 c32 50 40 100 24 156 -11
43 -72 122 -94 122 -6 0 -22 10 -36 21 -29 24 -25 23 53 -14z m1738 -30 c-10
-9 -11 -8 -5 6 3 10 9 15 12 12 3 -3 0 -11 -7 -18z m-386 -12 c63 -30 82 -55
89 -121 4 -27 12 -55 20 -62 11 -12 17 -10 34 8 29 31 70 51 78 38 3 -5 8 -38
9 -71 2 -34 6 -74 10 -88 4 -16 2 -30 -4 -33 -14 -9 -14 -49 0 -63 8 -8 8 -20
0 -45 -6 -19 -11 -61 -10 -94 2 -101 -7 -209 -17 -205 -5 2 -13 5 -19 6 -5 1
-32 8 -60 15 -27 7 -65 15 -82 18 -18 2 -33 8 -33 13 0 5 -17 9 -38 9 -26 0
-57 11 -96 35 -32 19 -63 35 -68 35 -5 0 -20 7 -33 16 -34 22 -144 14 -295
-20 -156 -37 -171 -38 -227 -21 -26 8 -72 15 -102 15 -44 0 -52 3 -47 16 3 9
9 27 12 40 3 13 10 22 14 19 12 -8 27 15 54 89 15 38 36 76 47 84 15 11 20 23
17 50 -2 29 1 37 17 41 11 3 20 13 20 21 0 8 2 17 5 20 4 3 34 46 69 97 67 99
91 119 91 77 0 -32 16 -64 43 -86 18 -13 19 -19 8 -32 -7 -8 -11 -30 -9 -48 3
-28 0 -33 -20 -36 -13 -2 -26 -10 -29 -18 -3 -8 -18 -14 -33 -14 -35 0 -118
-41 -148 -73 -25 -26 -42 -76 -42 -122 0 -34 67 -145 87 -145 18 0 17 69 -1
76 -22 8 -38 57 -33 101 8 84 89 144 153 114 39 -17 54 -14 54 14 0 22 4 25
36 25 l37 0 -7 46 c-6 49 6 84 29 84 8 0 15 7 15 15 0 8 5 15 11 15 6 0 39 29
73 64 51 53 70 66 121 81 33 9 65 19 70 20 31 10 83 2 130 -20z m643 -87 c-19
-17 -48 -24 -48 -12 0 3 12 18 28 33 23 24 28 26 34 12 4 -10 -1 -23 -14 -33z
m-312 -12 c-8 -49 12 -112 38 -122 12 -5 9 -11 -14 -31 -29 -24 -29 -26 -15
-54 14 -25 14 -33 1 -56 -26 -53 -29 -107 -8 -150 15 -29 18 -43 10 -57 -8
-14 -5 -23 13 -42 30 -32 60 -27 78 10 13 28 12 31 -12 50 -23 19 -25 25 -17
66 5 25 9 71 10 102 0 31 5 60 10 63 15 9 12 48 -5 72 -11 16 -13 28 -5 47 5
14 6 48 3 77 l-6 51 69 -7 c38 -4 70 -8 70 -9 1 0 -3 -35 -8 -76 -5 -41 -6
-144 -2 -228 l6 -152 41 -50 c22 -28 47 -50 55 -50 20 0 105 -54 167 -105 45
-38 57 -43 117 -48 37 -3 77 -11 89 -18 22 -11 22 -12 3 -26 -33 -25 -296 -7
-408 27 -56 17 -163 17 -217 1 -42 -13 -49 -13 -85 5 l-39 19 1 75 c1 180 14
344 30 392 14 44 14 51 1 66 -16 18 -34 173 -22 191 3 6 18 11 32 11 24 0 25
-2 19 -44z m-1016 -38 c0 -12 -24 -9 -64 7 -32 14 -36 14 -36 0 0 -8 -4 -15
-9 -15 -10 0 -9 12 2 46 l8 22 49 -27 c27 -14 50 -29 50 -33z m-85 -38 c3 -5
1 -10 -4 -10 -6 0 -11 5 -11 10 0 6 2 10 4 10 3 0 8 -4 11 -10z m-925 -18 c0
-8 -99 -62 -113 -62 -32 0 56 68 91 69 12 1 22 -3 22 -7z m-100 -128 c0 -8 -5
-12 -10 -9 -6 4 -8 11 -5 16 9 14 15 11 15 -7z m120 -98 c0 -7 -7 -19 -15 -26
-16 -13 -20 -3 -9 24 8 20 24 21 24 2z m-84 -37 c-6 -42 -16 -49 -16 -12 0 27
6 43 17 43 2 0 2 -14 -1 -31z m-54 -101 c3 -30 7 -78 12 -145 4 -67 3 -73 -15
-73 -18 0 -19 8 -19 115 0 70 4 115 10 115 6 0 11 -6 12 -12z m58 2 c0 -5 -2
-10 -4 -10 -3 0 -8 5 -11 10 -3 6 -1 10 4 10 6 0 11 -4 11 -10z m1701 -157
c20 -1 61 -11 91 -22 29 -10 77 -25 106 -32 46 -11 55 -11 62 1 7 11 10 8 10
-12 0 -18 11 -36 37 -57 31 -25 47 -31 86 -31 27 0 70 7 96 16 44 16 50 16
131 -6 47 -12 110 -23 140 -24 31 -1 62 -6 69 -10 24 -15 213 -13 245 2 25 12
31 12 40 0 6 -7 65 -26 131 -41 90 -20 130 -34 160 -57 22 -16 66 -42 98 -57
46 -22 57 -32 57 -51 0 -24 -1 -25 -78 -20 -51 3 -86 10 -105 22 -22 15 -30
16 -42 6 -8 -7 -15 -9 -15 -4 0 4 -4 4 -10 -2 -6 -6 -6 -21 -1 -41 9 -30 9
-30 -43 -41 -34 -7 -83 -8 -151 -2 -142 13 -184 23 -232 53 -24 15 -53 27 -65
27 -13 1 -34 7 -48 15 -23 14 -21 14 40 10 64 -4 90 5 90 30 0 18 -137 82
-190 89 -25 3 -128 8 -230 12 -102 3 -188 8 -192 11 -5 2 -8 15 -8 28 0 14
-11 32 -27 44 -28 20 -28 20 -5 21 30 0 24 22 -9 31 -13 4 -42 7 -63 8 -24 1
-48 9 -60 20 -26 24 -121 51 -177 51 -32 0 -40 3 -32 11 6 6 9 18 6 26 -5 12
0 12 22 -3 16 -10 45 -20 66 -21z m2538 -22 c7 -5 10 -14 6 -21 -4 -7 -2 -10
6 -9 19 3 69 -12 69 -20 0 -10 -85 -45 -135 -57 -61 -15 -181 -57 -184 -65 -4
-12 -35 -25 -111 -46 -58 -16 -420 -27 -420 -13 0 4 60 10 133 14 143 6 178 9
247 25 48 11 169 66 235 106 22 14 49 29 60 34 11 5 31 20 45 34 29 29 31 30
49 18z m-656 -96 c50 -24 144 -44 183 -39 10 1 37 5 59 9 67 11 78 10 82 -2 5
-15 -66 -36 -134 -39 -28 -1 -56 -5 -61 -8 -9 -6 -34 -7 -157 -7 -261 0 -431
-4 -435 -10 -3 -4 -16 -2 -29 5 -21 12 -16 14 55 20 89 7 101 9 201 32 39 9
88 27 110 39 50 30 64 30 126 0z m-3613 -15 c0 -5 -11 -10 -25 -10 -14 0 -25
5 -25 10 0 6 11 10 25 10 14 0 25 -4 25 -10z m1904 -2 c-6 -10 -42 -9 -69 2
-14 5 -7 8 27 7 26 0 45 -4 42 -9z m-94 -62 c8 -7 22 -12 30 -11 8 1 26 -9 40
-21 31 -27 75 -33 315 -39 105 -3 199 -7 210 -10 11 -2 31 -4 45 -5 18 -2 12
-5 -19 -12 -42 -9 -43 -11 -37 -41 8 -40 36 -64 89 -77 23 -5 56 -17 72 -26
17 -9 51 -27 78 -41 26 -14 47 -27 47 -30 0 -2 -5 -1 -11 2 -6 4 -26 4 -46 0
-28 -5 -34 -10 -30 -26 4 -13 0 -19 -12 -19 -21 0 -112 30 -127 41 -11 9 -148
27 -266 36 -60 4 -68 3 -68 -13 0 -16 -1 -16 -20 1 l-20 18 25 27 c30 32 33
75 5 90 -11 6 -46 15 -77 21 -32 6 -64 15 -70 21 -7 6 -13 7 -13 3 0 -4 -19 4
-43 18 -33 20 -63 27 -136 32 -78 7 -91 10 -78 20 10 7 17 16 17 22 0 29 71
43 100 19z m1596 -59 c4 -4 -15 -6 -42 -6 -42 1 -45 2 -19 8 35 8 52 8 61 -2z
m74 -3 c0 -2 -14 -4 -31 -4 -16 0 -28 4 -25 9 5 8 56 3 56 -5z m-206 0 c13 -5
13 -8 1 -20 -13 -13 -45 -10 -45 5 0 19 18 25 44 15z m343 -40 c-3 -3 -12 -4
-19 -1 -8 3 -5 6 6 6 11 1 17 -2 13 -5z m-1890 -26 c15 -7 39 -20 52 -30 l24
-18 -39 6 c-21 3 -62 7 -90 7 -42 1 -49 3 -38 14 10 10 38 25 61 32 1 1 15 -4
30 -11z m-187 -27 c37 -1 42 -3 27 -12 -21 -12 -123 -3 -132 12 -4 5 8 7 27 5
18 -2 53 -4 78 -5z m70 -5 c0 -3 -4 -8 -10 -11 -5 -3 -10 -1 -10 4 0 6 5 11
10 11 6 0 10 -2 10 -4z m325 -27 c66 -12 115 -34 115 -50 0 -8 -4 -8 -12 -2
-15 11 -114 40 -178 52 -37 7 -39 9 -14 10 17 1 57 -4 89 -10z m1584 -45 c2
-2 -17 -4 -42 -4 -26 0 -47 4 -47 9 0 8 79 3 89 -5z m1051 -5 c0 -5 -36 -8
-80 -6 -44 1 -80 6 -80 10 0 4 36 7 80 6 44 -1 80 -5 80 -10z m-3305 -8 l50
-6 -33 -12 c-18 -7 -31 -17 -30 -23 2 -6 -35 -11 -103 -13 l-106 -2 15 23 c8
12 10 22 6 23 -5 0 0 4 11 9 24 10 120 11 190 1z m2035 -18 c0 -32 29 -98 41
-95 6 2 42 -9 80 -23 73 -28 83 -29 444 -24 83 1 168 -1 190 -5 22 -4 49 -7
59 -7 10 0 28 -7 40 -15 11 -7 30 -14 41 -14 11 0 38 -9 60 -20 22 -11 59 -20
82 -20 64 0 58 -26 -7 -32 -27 -3 -56 -11 -65 -18 -19 -16 -19 -64 0 -80 20
-16 27 -9 34 37 6 35 9 38 43 41 33 3 38 0 44 -23 4 -15 2 -44 -5 -65 -6 -20
-11 -49 -11 -64 0 -22 -4 -26 -30 -26 -17 0 -39 9 -51 21 -12 12 -57 31 -103
43 -58 15 -104 37 -161 74 -63 41 -87 52 -120 52 -23 0 -45 4 -51 9 -28 26
-202 38 -326 22 -40 -5 -80 -2 -135 10 -43 10 -99 20 -125 24 -28 4 -48 11
-48 19 0 6 -14 34 -31 61 -27 42 -29 49 -15 57 9 5 16 13 16 18 0 5 10 20 23
34 27 30 87 36 87 9z m796 0 c-4 -10 -4 -14 0 -11 8 8 65 -19 76 -36 6 -8 8
-8 8 0 0 6 22 11 53 11 l52 1 -42 -10 c-36 -8 -43 -13 -43 -34 0 -31 33 -45
112 -46 32 -1 58 -5 58 -8 0 -4 -30 -10 -67 -13 -61 -6 -73 -4 -164 33 -54 22
-111 42 -126 45 -16 3 -50 12 -78 19 l-50 14 40 8 c22 4 43 7 47 6 4 -1 26 7
50 17 56 25 82 27 74 4z m-717 -17 c11 -10 53 -16 135 -20 65 -4 121 -8 125
-10 3 -2 35 -7 71 -11 36 -3 82 -11 103 -16 25 -7 43 -7 50 0 11 8 67 -2 117
-22 8 -3 22 -7 30 -10 8 -2 -59 -4 -150 -5 -91 0 -185 -2 -210 -3 -71 -4 -169
7 -203 24 -18 8 -44 20 -59 27 -14 7 -28 23 -31 36 -5 28 0 30 22 10z m-1926
-31 c15 -4 27 -11 27 -16 0 -5 7 -9 15 -9 25 0 65 -23 65 -37 0 -19 -44 -16
-95 7 -30 14 -56 18 -84 15 -23 -3 -41 -1 -41 4 0 5 -10 13 -22 17 -21 6 -19
8 17 19 41 12 69 12 118 0z m1636 -17 c13 -28 31 -58 72 -118 5 -8 13 -20 17
-26 4 -6 52 -18 107 -28 55 -10 110 -22 121 -28 21 -10 86 -8 250 8 49 5 73 3
78 -5 5 -8 -9 -11 -47 -11 -29 0 -57 -3 -61 -7 -35 -35 -244 -34 -315 1 -14 7
-52 18 -83 25 -32 7 -58 16 -58 21 0 5 -33 16 -74 25 -73 16 -75 18 -95 61
-12 24 -21 57 -21 73 0 31 10 38 65 40 25 1 33 -5 44 -31z m1272 -13 c-2 -5
-11 -10 -20 -9 -9 1 -28 2 -43 2 -48 3 -30 19 20 18 27 -1 45 -5 43 -11z
m-3142 -9 c23 -13 23 -13 2 -19 -14 -3 -19 -10 -15 -20 8 -21 42 -33 149 -53
17 -3 25 -4 30 -4 3 0 18 -6 33 -14 15 -7 54 -19 87 -25 85 -17 165 -52 165
-73 0 -21 17 -26 103 -33 38 -2 73 -7 78 -10 4 -3 50 -12 101 -20 121 -19 228
-45 253 -61 48 -30 161 -54 298 -64 184 -13 323 -46 314 -74 -4 -11 -227 -13
-342 -2 -38 4 -128 8 -200 9 -102 2 -137 6 -162 20 -18 9 -48 25 -65 34 -18
10 -51 19 -73 20 -119 8 -181 19 -191 34 -3 5 -16 9 -30 9 -14 0 -48 17 -77
38 -101 74 -265 135 -422 158 -16 2 -58 9 -93 15 -70 11 -201 9 -208 -3 -3 -4
-18 -8 -33 -8 -37 0 -159 -42 -213 -74 -24 -13 -77 -37 -118 -52 -82 -29 -152
-62 -160 -75 -3 -5 -33 -11 -65 -14 -33 -3 -78 -8 -100 -10 -51 -5 -245 -19
-265 -19 -8 0 -33 4 -55 8 -33 7 -36 10 -20 16 11 4 34 5 50 3 46 -7 69 -4 92
10 6 4 14 3 17 -2 3 -5 38 -1 80 9 40 9 84 16 97 15 28 -2 147 58 169 86 8 10
38 23 65 29 28 7 65 16 83 20 47 12 39 -6 -12 -25 -26 -10 -48 -26 -55 -41
-13 -30 -6 -30 30 0 15 13 52 32 81 41 71 24 140 59 180 92 54 46 145 93 177
93 11 0 22 4 25 9 3 5 34 12 68 16 35 4 72 11 83 16 28 11 36 10 64 -5z m715
-2 c3 -8 2 -12 -4 -9 -6 3 -10 10 -10 16 0 14 7 11 14 -7z m216 -4 c8 -5 11
-10 5 -10 -5 0 -17 5 -25 10 -8 5 -10 10 -5 10 6 0 17 -5 25 -10z m592 1 c3
-1 14 -22 24 -48 10 -25 37 -66 60 -90 40 -40 41 -43 16 -37 -79 18 -99 25
-114 44 -10 11 -24 20 -33 20 -20 0 -42 38 -48 83 l-5 37 47 -4 c25 -2 49 -4
53 -5z m-547 -21 c3 -6 -1 -7 -9 -4 -18 7 -21 14 -7 14 6 0 13 -4 16 -10z
m701 -14 c3 -14 3 -34 -1 -44 -10 -34 50 -72 132 -83 100 -13 215 -40 238 -56
18 -12 14 -14 -40 -12 -66 3 -183 26 -201 40 -6 5 -32 11 -57 13 -73 6 -90 24
-94 101 -4 65 10 90 23 41z m-1077 -6 c11 0 11 -3 1 -15 -8 -10 -23 -13 -49
-9 -20 3 -46 5 -58 5 -27 -1 -31 26 -5 31 9 2 35 0 57 -4 22 -4 46 -7 54 -8z
m581 -24 c19 -12 51 -28 71 -35 43 -14 94 -55 86 -68 -4 -6 4 -8 18 -5 27 5
59 -14 49 -29 -3 -5 -2 -9 3 -8 13 3 43 -12 39 -20 -2 -3 6 -7 17 -7 12 -1 52
-13 89 -27 36 -13 88 -28 115 -31 26 -4 80 -16 118 -25 39 -10 106 -19 149
-20 54 -2 124 -14 215 -38 75 -19 146 -35 158 -34 12 0 24 -3 27 -8 7 -11 127
-2 142 10 23 19 177 2 277 -30 53 -18 97 -34 97 -36 0 -3 -175 -3 -388 0 -367
5 -391 6 -431 26 -24 11 -59 23 -77 26 -19 3 -34 9 -34 14 0 17 -76 40 -145
45 -38 3 -72 7 -76 10 -4 2 -27 6 -50 9 -24 3 -57 10 -74 14 -16 5 -46 12 -66
15 -22 4 -44 16 -55 31 -11 14 -36 34 -56 45 -21 11 -54 38 -74 60 -20 22 -43
40 -50 40 -8 0 -14 6 -14 14 0 8 -24 21 -59 32 -33 11 -57 23 -53 28 3 5 0 6
-6 2 -15 -9 -34 2 -27 15 10 15 28 11 65 -15z m-1620 -20 c0 -3 -4 -8 -10 -11
-5 -3 -10 -1 -10 4 0 6 5 11 10 11 6 0 10 -2 10 -4z m3583 -3 c-13 -2 -33 -2
-45 0 -13 2 -3 4 22 4 25 0 35 -2 23 -4z m-1388 -13 c3 -5 1 -10 -4 -10 -6 0
-11 5 -11 10 0 6 2 10 4 10 3 0 8 -4 11 -10z m-2234 -24 c-14 -16 -112 -68
-118 -62 -3 2 24 20 59 39 75 41 73 41 59 23z m1903 -15 c12 -10 48 -31 81
-45 33 -14 52 -25 42 -26 -10 0 -39 11 -65 25 -52 27 -102 64 -88 65 6 0 19
-9 30 -19z m-1531 -32 c77 -12 233 -77 243 -102 3 -8 30 -27 61 -43 69 -35 55
-43 -18 -11 -124 53 -239 76 -399 78 -94 2 -143 -1 -160 -10 -33 -17 -110 -92
-105 -102 6 -9 -24 -21 -36 -13 -5 3 -9 1 -9 -5 0 -5 -21 -13 -47 -16 -27 -4
-73 -16 -103 -27 -42 -16 -76 -20 -148 -19 -82 2 -94 0 -98 -16 -4 -14 -15
-18 -52 -17 -137 5 -162 8 -159 18 4 12 107 26 107 14 0 -4 10 -4 23 1 12 5
59 12 102 16 90 7 146 26 190 65 17 14 66 41 110 59 44 18 105 46 135 61 62
31 135 56 201 69 62 12 81 12 162 0z m2869 -65 c40 -28 53 -42 46 -50 -3 -2
-14 5 -25 16 -12 10 -24 16 -27 13 -3 -4 -6 -1 -6 5 0 6 -6 9 -14 6 -8 -3 -29
2 -47 12 -28 14 -49 15 -133 10 -54 -4 -113 -9 -130 -12 -27 -5 -28 -4 -12 6
10 7 49 14 87 17 37 2 81 8 96 12 43 11 122 -5 165 -35z m-1094 7 c20 -10 75
-28 122 -41 88 -23 121 -37 60 -27 -114 21 -260 62 -260 74 0 19 35 16 78 -6z
m722 -11 c0 -5 -5 -10 -11 -10 -5 0 -7 5 -4 10 3 6 8 10 11 10 2 0 4 -4 4 -10z
m-2077 -39 c46 -22 100 -56 122 -76 28 -27 49 -38 75 -39 20 -1 41 -6 48 -10
7 -4 48 -9 92 -11 43 -3 93 -11 112 -19 32 -14 30 -14 -62 -15 -52 0 -113 4
-135 9 -22 5 -71 12 -110 15 -81 8 -115 25 -115 59 0 26 -34 59 -93 91 -36 19
-48 35 -26 35 5 0 47 -18 92 -39z m1607 20 c0 -5 -9 -7 -20 -4 -11 3 -20 7
-20 9 0 2 9 4 20 4 11 0 20 -4 20 -9z m206 -18 c-3 -8 4 -9 27 -2 40 11 47 11
47 -1 0 -5 -6 -10 -14 -10 -8 0 -16 -7 -20 -15 -3 -8 -10 -15 -16 -15 -6 0 -9
3 -7 8 3 4 -14 7 -36 7 -65 1 -124 12 -145 27 -17 11 -7 13 74 13 68 0 93 -3
90 -12z m-2205 -30 c29 -8 77 -21 104 -28 28 -7 78 -28 112 -45 34 -18 79 -36
99 -39 42 -7 55 -26 24 -34 -12 -3 -18 -1 -13 5 4 7 1 8 -8 2 -8 -5 -202 -9
-437 -9 -233 0 -404 3 -380 8 50 9 81 15 88 17 3 1 16 1 30 1 31 -2 79 45 95
91 9 29 14 33 47 33 21 1 40 4 43 6 11 12 144 6 196 -8z m2920 0 c13 -16 12
-17 -3 -4 -10 7 -18 15 -18 17 0 8 8 3 21 -13z m-386 -63 c-3 -6 -41 -9 -83
-8 l-77 2 75 6 c41 4 79 7 83 8 5 1 5 -2 2 -8z M3057 6514 c-10 -11 -8 -80 4
-149 14 -80 19 -204 8 -211 -5 -3 -9 8 -9 25 0 39 -9 61 -26 61 -16 0 -15 4
-15 -115 0 -80 2 -90 18 -90 12 0 19 9 21 29 2 18 7 25 11 17 14 -22 39 0 46
39 6 38 0 166 -12 245 -3 22 -7 65 -8 95 -1 39 -6 56 -16 58 -8 1 -18 0 -22
-4z m10 -396 c-3 -8 -6 -5 -6 6 -1 11 2 17 5 13 3 -3 4 -12 1 -19z M2986 5863
c-8 -20 8 -38 28 -30 9 4 12 13 9 26 -6 25 -28 28 -37 4z M2850 5349 c0 -5 5
-7 10 -4 6 3 10 8 10 11 0 2 -4 4 -10 4 -5 0 -10 -5 -10 -11z M2860 5294 c0
-9 7 -14 17 -12 25 5 28 28 4 28 -12 0 -21 -6 -21 -16z M2847 5223 c-11 -11
-8 -21 10 -27 15 -6 32 8 33 27 0 9 -34 9 -43 0z M2827 5163 c-13 -12 -7 -21
22 -31 23 -8 32 -7 41 3 8 10 4 15 -21 24 -38 13 -34 13 -42 4z M2117 4909
c-4 -16 -3 -18 9 -8 7 6 11 15 8 20 -8 13 -11 11 -17 -12z M2086 4862 c-2 -4
0 -14 5 -22 8 -13 10 -13 18 0 10 15 6 30 -9 30 -5 0 -11 -4 -14 -8z M2223
4463 c-21 -7 -15 -33 7 -33 11 0 20 3 20 8 0 15 -15 29 -27 25z M2216 4403
c-12 -12 -6 -33 9 -33 8 0 15 6 15 14 0 17 -14 28 -24 19z M3180 4355 c-15
-18 2 -28 58 -31 24 -1 46 -5 49 -8 9 -8 43 13 43 27 0 8 -15 12 -42 12 -24 0
-55 3 -70 6 -18 5 -31 3 -38 -6z M2193 4275 c-7 -20 -5 -22 39 -30 30 -6 39
-4 44 9 8 22 3 26 -40 32 -27 3 -38 0 -43 -11z M1706 3328 c-9 -12 -16 -28
-16 -36 0 -7 -9 -31 -21 -53 -16 -32 -18 -44 -8 -55 9 -11 15 -12 25 -3 8 6
14 15 14 20 0 5 12 33 26 64 25 52 27 85 5 85 -5 0 -17 -10 -25 -22z M2002
3310 c-19 -8 -21 -13 -12 -30 12 -23 14 -24 38 -9 12 8 26 6 52 -5 60 -27 90
-61 90 -105 0 -38 -32 -116 -65 -156 -38 -47 -117 -81 -164 -70 -33 7 -53 -12
-30 -29 17 -13 23 -62 9 -71 -6 -4 -8 -11 -4 -16 4 -7 -5 -9 -22 -8 -45 5
-122 -10 -127 -26 -3 -7 1 -21 9 -32 13 -17 15 -17 28 0 20 25 75 22 119 -8
20 -14 37 -33 38 -43 1 -9 2 -39 3 -66 0 -27 6 -51 11 -52 6 -2 20 14 32 35
30 52 22 91 -27 140 l-37 36 24 19 c19 14 24 25 21 47 -4 25 -1 29 18 29 38 0
67 16 117 63 56 55 87 120 88 190 1 67 -12 99 -53 130 -57 42 -111 55 -156 37z
M4441 1717 c2 -1 13 -9 24 -17 19 -14 19 -14 6 3 -7 9 -18 17 -24 17 -6 0 -8
-1 -6 -3z M4290 1315 c-7 -9 -8 -15 -2 -15 5 0 12 7 16 15 3 8 4 15 2 15 -2 0
-9 -7 -16 -15z M4264 1277 c-4 -7 -4 -9 1 -5 4 4 14 3 22 -3 8 -7 13 -8 13 -1
0 15 -28 23 -36 9z M3010 929 c0 -5 5 -7 10 -4 6 3 10 8 10 11 0 2 -4 4 -10 4
-5 0 -10 -5 -10 -11z M3535 940 c3 -5 8 -10 11 -10 2 0 4 5 4 10 0 6 -5 10
-11 10 -5 0 -7 -4 -4 -10z M1605 8560 c-8 -14 11 -37 37 -46 20 -6 47 18 48
44 0 9 -5 10 -19 2 -13 -7 -22 -7 -26 0 -8 13 -32 13 -40 0z M3350 8515 c0 -8
7 -15 15 -15 8 0 15 4 15 9 0 5 -7 11 -15 15 -9 3 -15 0 -15 -9z M1315 8490
c-10 -11 -29 -20 -42 -20 -29 0 -31 -26 -2 -35 16 -5 30 1 55 26 18 18 31 36
28 41 -8 13 -19 10 -39 -12z M2040 8495 c-7 -9 -22 -12 -40 -9 -33 7 -53 -15
-21 -23 12 -3 21 -9 21 -14 0 -5 9 -9 20 -9 11 0 20 6 20 14 0 8 7 16 15 20
16 6 21 36 6 36 -5 0 -14 -7 -21 -15z M2180 8492 c0 -12 44 -52 56 -52 16 0
58 49 50 57 -4 4 -16 1 -28 -6 -14 -9 -23 -10 -31 -2 -13 13 -47 15 -47 3z
M1190 8419 c0 -5 -13 -15 -29 -20 -16 -6 -32 -17 -35 -25 -8 -21 53 -18 70 4
16 20 18 52 4 52 -5 0 -10 -5 -10 -11z M2480 8405 c-7 -8 -21 -13 -30 -10 -9
3 -22 -1 -29 -8 -8 -11 -6 -16 12 -24 18 -9 28 -6 52 13 21 17 26 27 19 34 -8
8 -15 6 -24 -5z M2304 8396 c-4 -10 -19 -14 -46 -13 -27 1 -43 -3 -46 -11 -3
-9 3 -12 16 -10 11 2 29 -5 41 -16 17 -15 23 -16 36 -6 8 7 15 18 15 25 0 7 7
15 15 19 8 3 15 10 15 16 0 15 -40 12 -46 -4z M1723 8305 c-14 -10 -24 -12
-28 -5 -4 6 -11 8 -16 5 -14 -9 -11 -41 6 -55 12 -10 19 -7 38 14 13 14 29 26
36 26 6 0 11 7 11 15 0 19 -20 19 -47 0z M1267 8186 c-3 -7 -19 -16 -36 -19
-46 -10 -40 -35 9 -35 33 -1 40 3 40 18 0 10 5 22 10 25 15 9 12 25 -4 25 -8
0 -16 -6 -19 -14z M1458 8160 c-8 -12 -24 -20 -38 -20 -25 0 -50 -16 -50 -32
0 -4 10 -8 23 -7 12 0 31 -1 41 -3 18 -3 54 41 55 70 1 19 -17 14 -31 -8z
M4050 8043 c0 -5 5 -15 10 -23 8 -12 10 -11 10 8 0 12 -4 22 -10 22 -5 0 -10
-3 -10 -7z M4018 7903 c7 -3 16 -2 19 1 4 3 -2 6 -13 5 -11 0 -14 -3 -6 -6z
M4035 7840 c-3 -5 -12 -7 -20 -3 -8 3 -15 3 -15 0 0 -13 30 -14 40 -1 7 8 10
14 7 14 -3 0 -8 -4 -12 -10z M4020 7800 c8 -5 20 -10 25 -10 6 0 3 5 -5 10 -8
5 -19 10 -25 10 -5 0 -3 -5 5 -10z M3970 7730 c0 -5 5 -10 11 -10 5 0 7 5 4
10 -3 6 -8 10 -11 10 -2 0 -4 -4 -4 -10z M3996 7681 c-4 -5 3 -7 14 -4 23 6
26 13 6 13 -8 0 -17 -4 -20 -9z M1325 7654 c-27 -29 -34 -74 -12 -74 8 0 19
11 25 25 9 20 19 25 47 25 28 0 35 4 35 19 0 17 -25 31 -58 31 -7 0 -24 -12
-37 -26z M3415 7650 c-3 -5 -1 -10 4 -10 6 0 11 5 11 10 0 6 -2 10 -4 10 -3 0
-8 -4 -11 -10z M1080 7610 c-157 -41 -200 -68 -310 -192 -76 -85 -125 -178
-146 -273 -22 -105 -13 -217 27 -326 20 -57 96 -165 148 -212 43 -38 122 -73
146 -63 27 10 11 30 -32 41 -44 11 -113 61 -113 82 0 7 -4 13 -8 13 -8 0 -63
76 -88 120 -23 41 -52 188 -49 255 4 106 73 285 111 285 7 0 20 15 28 33 13
31 121 137 140 137 5 0 38 14 73 31 71 35 159 50 212 38 54 -13 71 -11 65 6
-13 34 -120 47 -204 25z M3978 7623 c-10 -2 -18 -9 -18 -14 0 -14 16 -11 30 6
7 8 11 14 9 14 -2 -1 -12 -3 -21 -6z M2560 7575 c-41 -14 -92 -24 -112 -22
-42 2 -54 -13 -20 -28 12 -5 22 -15 22 -21 0 -12 42 -34 66 -34 8 0 12 -5 9
-11 -4 -6 2 -13 14 -16 15 -4 21 -13 21 -33 0 -33 25 -47 39 -22 8 14 10 14
11 2 0 -32 -13 -60 -31 -65 -33 -11 -17 -45 22 -45 13 0 37 41 43 74 6 36 15
44 26 27 7 -12 18 -11 71 5 65 21 84 39 52 51 -10 4 -23 13 -29 21 -8 11 -21
13 -42 9 -35 -7 -44 8 -12 18 27 9 28 49 1 42 -14 -3 -18 -1 -14 9 8 22 -22
27 -56 9 -37 -19 -40 -10 -6 17 27 21 33 38 13 38 -7 -1 -47 -12 -88 -25z m40
-34 c0 -11 -56 -31 -84 -30 -14 1 -9 5 16 13 20 6 40 14 44 19 10 10 24 9 24
-2z m56 -46 c-11 -8 -27 -15 -35 -15 -10 1 -7 6 9 15 33 19 50 18 26 0z M3960
7540 c0 -5 5 -10 10 -10 6 0 10 5 10 10 0 6 -4 10 -10 10 -5 0 -10 -4 -10 -10z
M2258 7476 c-21 -6 -47 -19 -58 -29 -20 -17 -27 -37 -12 -37 4 -1 24 -3 45 -6
33 -5 39 -3 44 16 5 18 11 21 33 16 35 -7 40 -1 26 29 -12 27 -23 29 -78 11z
M3925 7470 c3 -5 14 -10 23 -10 15 0 15 2 2 10 -20 13 -33 13 -25 0z M3918
7423 c7 -3 16 -2 19 1 4 3 -2 6 -13 5 -11 0 -14 -3 -6 -6z M3930 7389 c0 -5 5
-7 10 -4 6 3 10 8 10 11 0 2 -4 4 -10 4 -5 0 -10 -5 -10 -11z M3951 7378 c-8
-13 -9 -24 -3 -30 6 -6 12 -5 17 3 5 8 4 10 -3 5 -16 -9 -15 7 0 22 6 6 10 14
7 16 -3 3 -11 -4 -18 -16z M2270 7380 c0 -5 6 -10 14 -10 8 0 18 5 21 10 3 6
-3 10 -14 10 -12 0 -21 -4 -21 -10z M3905 7330 c3 -5 8 -10 11 -10 2 0 4 5 4
10 0 6 -5 10 -11 10 -5 0 -7 -4 -4 -10z M3932 7308 c2 -5 8 -9 13 -9 5 0 11 4
13 9 1 5 -4 9 -13 9 -9 0 -14 -4 -13 -9z M3898 7283 c7 -3 16 -2 19 1 4 3 -2
6 -13 5 -11 0 -14 -3 -6 -6z M2214 7240 c-33 -13 -38 -29 -12 -39 16 -6 29 -4
45 8 43 31 20 53 -33 31z M2275 7189 c-4 -5 -18 -14 -31 -19 -27 -11 -32 -28
-10 -36 12 -5 126 51 126 62 0 9 -79 3 -85 -7z M3906 7165 c4 -8 8 -15 10 -15
2 0 4 7 4 15 0 8 -4 15 -10 15 -5 0 -7 -7 -4 -15z M3878 7153 c7 -3 16 -2 19
1 4 3 -2 6 -13 5 -11 0 -14 -3 -6 -6z M3870 7131 c0 -5 9 -11 21 -14 16 -4 18
-3 8 9 -13 16 -29 19 -29 5z M2288 7122 c-10 -2 -18 -10 -18 -18 0 -16 9 -18
29 -5 18 12 10 28 -11 23z M4475 6810 c3 -5 8 -10 11 -10 2 0 4 5 4 10 0 6 -5
10 -11 10 -5 0 -7 -4 -4 -10z M980 6535 c-10 -12 -8 -18 11 -34 30 -24 44 -13
28 22 -14 31 -22 33 -39 12z M1024 6456 c-12 -32 6 -82 44 -118 65 -64 180
-100 287 -91 65 5 81 13 72 37 -5 12 -14 14 -39 8 -46 -10 -93 -8 -164 7 -52
11 -70 21 -112 62 -31 30 -52 59 -54 76 -3 30 -25 42 -34 19z M1446 6282 c-2
-4 -7 -39 -11 -77 l-7 -70 45 -45 c54 -53 120 -78 230 -87 64 -5 84 -3 115 13
54 28 82 54 82 80 0 36 -15 36 -51 0 -49 -47 -88 -60 -160 -52 -81 8 -153 41
-188 85 -29 36 -29 69 -2 86 17 10 13 40 -7 58 -20 18 -38 22 -46 9z M1180
5550 c0 -5 7 -10 15 -10 8 0 15 5 15 10 0 6 -7 10 -15 10 -8 0 -15 -4 -15 -10z
M4830 5350 c-8 -5 -27 -10 -41 -10 -24 0 -59 -26 -59 -45 0 -5 8 -17 17 -27
16 -18 17 -18 29 10 8 20 21 31 43 35 22 5 31 12 31 27 0 23 0 23 -20 10z
M2190 5225 c7 -9 15 -13 17 -11 7 7 -7 26 -19 26 -6 0 -6 -6 2 -15z M4686
5197 c-43 -31 -11 -142 53 -180 46 -27 52 0 8 37 -47 40 -58 85 -27 114 35 32
6 58 -34 29z M4755 4951 c-58 -26 -103 -82 -95 -116 1 -5 3 -21 4 -34 2 -37
26 -39 26 -2 0 46 36 97 84 120 23 12 50 21 59 21 9 0 17 7 17 15 0 21 -45 19
-95 -4z M4599 4731 c-27 -27 -35 -56 -29 -101 4 -38 53 -92 103 -116 29 -13
60 -24 70 -24 10 0 34 -16 54 -35 20 -19 40 -35 45 -35 19 0 6 39 -18 55 l-27
17 29 23 c23 19 27 26 16 36 -10 11 -18 10 -41 -4 -82 -48 -191 11 -191 104 0
40 17 79 35 79 8 0 15 7 15 15 0 24 -29 17 -61 -14z M4535 4409 c-8 -12 14
-31 30 -26 6 2 10 10 10 18 0 17 -31 24 -40 8z M4484 4400 c-34 -13 -123 -118
-134 -158 -5 -20 -10 -65 -10 -99 0 -56 2 -63 20 -63 18 0 20 7 20 76 0 41 5
85 12 97 23 44 92 117 110 117 11 0 18 7 18 20 0 22 -4 23 -36 10z M4794 4389
c-8 -13 3 -24 34 -34 28 -8 31 20 3 35 -25 13 -28 13 -37 -1z M4222 4349 c2
-7 10 -15 17 -17 8 -3 12 1 9 9 -2 7 -10 15 -17 17 -8 3 -12 -1 -9 -9z M470
1838 c-39 -27 -48 -46 -26 -54 18 -7 88 54 80 68 -8 13 -19 10 -54 -14z M4756
1714 c-5 -14 -4 -15 9 -4 17 14 19 20 6 20 -5 0 -12 -7 -15 -16z M4800 1645
c-7 -9 -8 -15 -2 -15 5 0 12 7 16 15 3 8 4 15 2 15 -2 0 -9 -7 -16 -15z M4620
1640 c0 -5 5 -10 11 -10 5 0 7 5 4 10 -3 6 -8 10 -11 10 -2 0 -4 -4 -4 -10z
M4725 1639 c-11 -16 -1 -19 13 -3 7 8 8 14 3 14 -5 0 -13 -5 -16 -11z M641
1615 c-62 -23 -151 -94 -151 -120 0 -7 -21 -13 -52 -14 -65 -2 -126 -31 -177
-82 -28 -29 -49 -41 -77 -45 -59 -8 -87 -8 -112 0 -20 7 -22 4 -22 -29 l0 -37
48 5 c116 13 155 25 196 65 77 74 97 83 164 76 57 -5 60 -4 80 23 36 47 74 81
112 99 19 9 42 20 50 24 18 8 26 39 13 50 -4 5 -37 -2 -72 -15z M4280 1509 c0
-5 5 -7 10 -4 6 3 10 8 10 11 0 2 -4 4 -10 4 -5 0 -10 -5 -10 -11z M105 1490
c-3 -5 -1 -10 4 -10 6 0 11 5 11 10 0 6 -2 10 -4 10 -3 0 -8 -4 -11 -10z
M3731 1471 c-8 -5 -9 -11 -3 -15 5 -3 12 1 16 9 6 17 6 18 -13 6z M4510 1460
c0 -5 5 -10 11 -10 5 0 7 5 4 10 -3 6 -8 10 -11 10 -2 0 -4 -4 -4 -10z M4435
1450 c3 -5 8 -10 11 -10 2 0 4 5 4 10 0 6 -5 10 -11 10 -5 0 -7 -4 -4 -10z
M3800 1431 c0 -8 -7 -11 -17 -6 -15 5 -16 4 -5 -6 9 -10 15 -10 24 -1 6 6 9
15 5 19 -4 3 -7 1 -7 -6z M4380 1431 c0 -5 7 -12 16 -15 14 -5 15 -4 4 9 -14
17 -20 19 -20 6z M4675 1424 c9 -9 19 -13 23 -10 3 4 0 11 -8 16 -24 15 -33
11 -15 -6z M4453 1389 c-9 -9 -8 -15 2 -25 18 -19 31 -18 15 1 -6 8 -9 19 -5
25 8 13 2 13 -12 -1z M4529 1353 c-13 -16 -12 -17 4 -4 9 7 17 15 17 17 0 8
-8 3 -21 -13z M1735 1351 c-3 -5 -1 -12 5 -16 12 -7 30 2 30 16 0 12 -27 12
-35 0z M2597 1029 c7 -7 15 -10 18 -7 3 3 -2 9 -12 12 -14 6 -15 5 -6 -5z
M4751 966 c-15 -17 2 -66 23 -66 20 0 46 28 46 50 0 29 -49 41 -69 16z M4090
920 c0 -5 5 -10 10 -10 6 0 10 5 10 10 0 6 -4 10 -10 10 -5 0 -10 -4 -10 -10z
M4480 810 c14 -11 29 -20 34 -20 5 0 -3 9 -17 20 -14 11 -29 20 -34 20 -4 0 3
-9 17 -20z M77 532 l-27 -3 2 -172 3 -172 40 3 c47 4 51 7 37 25 -13 15 -19
123 -8 134 4 4 23 8 42 10 48 3 114 56 114 92 0 38 -26 69 -63 76 -44 8 -106
11 -140 7z m103 -62 c9 -23 8 -32 -7 -57 -12 -18 -24 -27 -36 -25 -15 3 -18
12 -16 55 1 29 4 55 6 59 7 14 42 -6 53 -32z M1017 533 c-17 -4 -17 -6 -2 -17
14 -10 17 -35 17 -174 1 -186 -8 -172 109 -172 131 0 124 -4 124 65 0 53 -2
60 -20 60 -15 0 -22 -10 -29 -43 -9 -40 -11 -42 -47 -42 -46 0 -54 12 -54 80
0 45 3 55 18 58 12 2 20 -4 24 -17 3 -14 13 -21 29 -21 22 0 24 4 24 54 0 67
-21 82 -56 39 -30 -38 -46 -21 -42 43 l3 49 48 3 c42 3 47 1 47 -17 0 -25 35
-29 44 -5 12 31 6 52 -16 58 -26 7 -194 6 -221 -1z M3755 532 c-53 -5 -63 -11
-41 -27 16 -12 19 -32 22 -146 4 -117 2 -133 -13 -145 -19 -14 -19 -15 40 -18
47 -3 56 11 59 99 4 102 23 108 51 17 24 -74 71 -126 117 -128 37 -2 46 20 16
40 -26 17 -65 93 -71 138 -3 23 3 37 26 59 35 34 38 71 6 92 -22 14 -146 26
-212 19z m122 -37 c16 -27 3 -83 -20 -89 -11 -3 -24 -3 -29 0 -10 6 -11 88 -1
97 12 12 42 7 50 -8z M336 521 c-3 -5 5 -12 19 -15 27 -7 30 -20 16 -60 -6
-13 -12 -42 -15 -63 -3 -21 -10 -54 -15 -73 -5 -19 -14 -53 -20 -75 -5 -22
-15 -41 -20 -43 -28 -9 -6 -17 41 -14 52 4 94 22 50 22 -24 0 -26 8 -13 60 5
19 12 47 15 63 5 23 11 27 40 27 33 0 35 -2 60 -71 14 -39 24 -75 20 -80 -6
-11 -7 -11 84 -15 57 -2 72 0 72 12 0 9 -11 14 -30 14 -24 0 -33 6 -40 28 -6
15 -15 36 -20 47 -5 11 -25 64 -45 119 -19 54 -40 105 -46 112 -13 16 -144 20
-153 5z m113 -128 c1 -14 -5 -23 -13 -23 -23 0 -26 14 -14 56 11 37 12 38 19
14 4 -14 7 -35 8 -47z M720 506 c-20 -13 -41 -31 -49 -40 -18 -21 -27 -141
-12 -150 6 -4 11 -14 11 -23 0 -38 108 -107 163 -104 18 1 48 2 68 3 l37 1 -2
61 -1 61 -35 6 c-19 4 -50 10 -69 14 l-34 8 7 -39 7 -39 -20 20 c-31 31 -41
94 -24 146 9 24 16 45 17 46 0 0 18 4 39 8 35 7 37 6 37 -20 0 -25 15 -37 45
-36 13 1 15 73 3 89 -7 8 -36 12 -82 11 -57 0 -78 -5 -106 -23z M2637 524 c-3
-3 -23 -6 -44 -6 -101 1 -177 -54 -150 -107 15 -29 95 -73 119 -65 13 4 19 -4
27 -33 20 -71 9 -93 -44 -93 -36 0 -65 27 -85 78 -21 54 -42 39 -57 -43 -13
-71 -3 -93 30 -70 18 13 23 13 39 -2 39 -35 203 -17 224 25 17 35 1 108 -31
142 -28 29 -104 54 -132 43 -12 -5 -13 2 -8 33 10 60 10 61 50 56 27 -3 39
-10 45 -28 5 -13 14 -24 19 -24 5 0 16 -3 25 -6 13 -5 16 3 16 50 0 48 -3 56
-18 56 -10 0 -21 -3 -25 -6z M2740 520 c-20 -13 -4 -27 40 -34 26 -4 40 -11
40 -21 0 -9 19 -72 42 -141 35 -102 46 -126 64 -130 36 -9 57 11 89 85 27 64
45 88 45 60 0 -6 11 -25 25 -43 14 -18 25 -37 25 -43 0 -5 16 -27 37 -48 44
-45 40 -51 127 190 27 76 32 84 63 96 39 15 22 34 -33 36 -60 3 -84 -8 -65
-31 7 -8 10 -20 6 -26 -3 -6 -8 -21 -11 -34 -2 -13 -11 -37 -19 -52 -8 -16
-15 -34 -15 -40 0 -6 -6 -17 -14 -23 -11 -9 -16 -5 -26 18 -6 16 -23 44 -36
62 -37 50 -29 101 17 104 13 1 25 7 27 13 2 7 -35 11 -122 11 -69 0 -126 -3
-126 -7 0 -4 13 -13 28 -20 16 -6 38 -29 50 -51 l22 -38 -29 -58 c-30 -60 -34
-61 -46 -5 -4 19 -16 53 -27 75 -11 22 -23 54 -27 70 -7 29 -8 30 -72 31 -37
1 -72 -2 -79 -6z M3471 520 c-79 -12 -130 -101 -117 -199 10 -73 75 -127 167
-138 50 -6 109 17 109 42 0 8 6 12 14 9 9 -3 22 5 32 21 23 35 15 135 -15 194
-12 24 -20 49 -17 57 6 16 -10 19 -19 4 -4 -6 -19 -4 -42 5 -38 16 -44 16
-112 5z m77 -41 c37 -13 54 -54 48 -119 -9 -105 -23 -131 -75 -132 -39 -1 -58
15 -71 61 -15 54 -12 90 12 148 23 56 32 61 86 42z M4050 519 c0 -5 7 -12 15
-15 12 -5 15 -31 15 -145 0 -118 -2 -139 -17 -147 -14 -9 -14 -11 7 -22 31
-17 158 -6 206 17 70 34 99 106 82 203 -9 51 -37 82 -89 99 -44 14 -219 22
-219 10z m149 -59 c37 0 58 -28 64 -84 9 -80 -47 -170 -101 -164 l-27 3 -2
133 c-3 128 -2 132 16 122 11 -5 33 -10 50 -10z M4450 523 c-34 -14 -53 -78
-32 -109 10 -14 61 -41 92 -48 14 -3 37 -16 52 -28 22 -19 25 -29 21 -56 -6
-39 -34 -54 -87 -45 -33 5 -36 8 -36 40 0 32 -2 34 -27 31 -24 -3 -28 -8 -31
-40 -2 -25 -11 -44 -28 -57 -13 -10 -24 -21 -24 -24 0 -3 24 -6 53 -6 28 0 90
-2 136 -3 82 -3 84 -2 105 25 42 56 18 197 -34 197 -10 0 -23 7 -30 15 -9 10
-24 13 -55 8 -27 -3 -45 -1 -50 6 -11 19 3 59 23 63 23 6 75 -12 85 -29 4 -7
17 -13 27 -13 17 0 20 7 20 39 l0 39 -82 0 c-46 0 -90 -2 -98 -5z M1858 503
c-10 -2 -18 -8 -18 -13 0 -4 -10 -10 -21 -13 -18 -5 -20 -10 -14 -34 5 -15 9
-39 9 -53 0 -14 7 -30 15 -36 31 -24 11 -143 -31 -190 -19 -22 -19 -22 17 -26
30 -3 40 0 55 20 28 35 43 89 37 139 -4 37 -2 43 12 42 25 -4 61 11 61 26 0
18 -27 26 -65 19 -26 -5 -33 -2 -37 13 -3 10 -9 26 -13 35 -6 16 -4 17 25 7
39 -14 49 -5 25 21 -10 11 -15 20 -10 20 4 0 2 7 -5 15 -7 8 -15 14 -19 14 -3
-1 -14 -3 -23 -6z M1655 359 c-73 -20 -76 -109 -5 -154 22 -14 40 -30 40 -35
0 -28 73 2 89 37 39 86 -34 176 -124 152z m61 -37 c12 -7 17 -32 15 -62 0 -8
-10 -21 -21 -27 -29 -19 -53 9 -44 51 10 48 22 57 50 38z M4805 231 c-8 -14
16 -62 29 -58 6 2 12 18 14 35 3 26 0 32 -17 32 -11 0 -22 -4 -26 -9z M1745
140 c-3 -5 -2 -10 4 -10 5 0 13 5 16 10 3 6 2 10 -4 10 -5 0 -13 -4 -16 -10z"/>
</g>
</svg>
