<?xml version="1.0" standalone="no"?>
<!DOCTYPE svg PUBLIC "-//W3C//DTD SVG 20010904//EN"
 "http://www.w3.org/TR/2001/REC-SVG-20010904/DTD/svg10.dtd">
<svg version="1.0" xmlns="http://www.w3.org/2000/svg"
 width="500.000000pt" height="878.000000pt" viewBox="0 0 500.000000 878.000000"
 preserveAspectRatio="xMidYMid meet">
<metadata>
Created by potrace 1.16, written by Peter Selinger 2001-2019
</metadata>
<g transform="translate(0.000000,878.000000) scale(0.100000,-0.100000)"
fill="#000000" stroke="none">
<path d="M830 8721 c0 -17 40 -210 49 -233 7 -20 1 -25 -82 -65 -69 -32 -93
-49 -102 -70 -19 -45 -64 -83 -107 -89 -21 -4 -50 -16 -64 -27 -22 -17 -25
-26 -21 -54 5 -30 3 -35 -20 -44 -14 -5 -42 -22 -62 -38 -70 -54 -99 -47 -35
8 23 20 34 38 30 47 -4 10 5 25 24 41 17 13 30 33 30 42 0 27 -34 52 -79 58
-33 5 -49 1 -81 -21 -22 -14 -43 -26 -48 -26 -4 0 -32 -23 -61 -51 -49 -49
-54 -51 -77 -39 -33 18 -74 -3 -74 -39 0 -19 3 -22 12 -13 16 16 28 15 28 -2
0 -8 4 -18 10 -21 12 -7 84 41 125 84 43 46 108 81 149 81 44 0 49 -23 9 -42
-21 -10 -29 -22 -31 -46 -2 -19 -11 -36 -22 -42 -21 -11 -45 -74 -36 -97 9
-24 70 -8 147 38 36 21 70 39 75 39 6 0 20 9 32 20 16 15 20 27 15 53 -5 34
-4 34 48 51 59 19 111 62 130 108 9 22 28 37 77 59 75 34 82 35 82 12 0 -9 4
-30 9 -47 11 -35 47 -236 56 -308 3 -26 10 -69 15 -95 6 -26 15 -75 21 -107 5
-33 12 -63 15 -67 6 -10 0 -13 -78 -43 l-67 -25 16 34 c9 19 14 37 11 41 -3 3
-53 -17 -109 -45 -57 -28 -129 -57 -159 -65 -112 -29 -173 -68 -196 -123 -27
-64 -18 -66 87 -23 126 52 204 52 99 1 -66 -32 -87 -55 -70 -76 11 -14 8 -20
-23 -46 -20 -17 -36 -34 -34 -39 1 -5 -14 -18 -33 -28 -27 -15 -35 -26 -35
-48 0 -23 -6 -31 -30 -39 -35 -12 -207 -114 -259 -153 -19 -15 -47 -35 -61
-45 -19 -14 -25 -27 -25 -57 l0 -39 65 31 c51 23 73 29 100 24 21 -4 35 -13
35 -22 0 -15 -86 -75 -158 -109 -31 -15 -42 -26 -42 -43 0 -26 4 -24 97 35 28
18 56 33 60 33 4 0 28 18 53 39 44 39 45 40 30 67 -20 38 -63 47 -131 30 l-54
-14 35 30 c53 46 191 134 281 179 81 41 91 51 63 67 -19 11 -14 15 39 32 34
11 38 15 33 36 -4 13 -3 24 1 24 5 1 24 14 43 31 33 28 34 31 17 44 -17 12
-13 16 45 47 145 76 37 124 -120 52 -30 -14 -57 -23 -60 -20 -3 3 8 17 24 32
28 25 91 52 179 76 22 6 42 14 45 17 6 8 87 51 95 51 3 0 3 -11 -1 -25 -5 -22
-3 -25 22 -25 16 0 63 13 105 29 l77 28 11 -51 c6 -28 20 -91 31 -141 11 -49
24 -106 30 -125 6 -19 13 -81 15 -137 l3 -102 -32 -6 c-17 -3 -62 -13 -99 -22
-93 -21 -96 -30 -59 -158 27 -97 29 -100 59 -103 19 -2 51 7 82 22 28 14 53
26 57 26 4 0 4 -13 1 -30 -4 -16 -2 -32 3 -35 6 -4 7 -17 4 -30 -4 -15 3 -39
18 -67 14 -23 28 -55 31 -70 9 -34 83 -78 131 -78 29 0 38 -5 51 -30 14 -28
14 -33 0 -52 -20 -30 -19 -71 4 -116 22 -43 54 -61 121 -69 57 -6 96 9 117 46
18 30 63 41 63 15 0 -8 15 -20 33 -29 17 -8 62 -41 98 -73 57 -49 197 -142
214 -142 15 0 75 -57 75 -70 0 -18 59 -60 83 -60 9 0 17 -7 17 -15 0 -8 11
-22 26 -31 16 -11 24 -25 22 -38 -3 -25 10 -49 23 -41 5 4 9 -1 9 -9 0 -9 -6
-13 -14 -10 -7 3 -41 -6 -75 -20 -78 -33 -84 -33 -38 5 20 17 37 39 37 49 0
42 -73 40 -226 -5 -127 -38 -130 -38 -273 -91 -88 -31 -171 -44 -171 -26 0 4
12 17 28 29 80 65 78 62 62 73 -13 9 -11 13 10 30 14 11 27 20 30 20 3 0 14
13 23 30 17 29 17 29 -8 46 -25 16 -30 16 -83 -1 -31 -9 -78 -33 -103 -51 -61
-44 -82 -44 -39 1 25 26 31 38 23 46 -18 18 -84 15 -122 -4 -19 -9 -35 -17
-36 -17 -1 0 -1 10 -1 22 1 35 -24 32 -125 -12 -52 -23 -116 -51 -144 -63 -27
-12 -71 -34 -96 -48 -25 -15 -57 -30 -70 -34 -13 -4 -54 -29 -91 -56 -94 -67
-210 -129 -243 -129 -23 0 -26 2 -15 15 7 8 10 21 7 29 -3 7 8 26 24 42 38 36
38 61 -2 71 l-30 8 44 28 c24 15 61 45 82 67 32 33 36 42 25 55 -17 20 -59 19
-123 -3 -56 -20 -87 -39 -188 -115 -52 -40 -69 -48 -92 -43 -22 4 -50 -5 -118
-40 -77 -40 -89 -49 -89 -72 l0 -25 23 20 c12 12 50 35 85 53 48 24 66 29 76
21 16 -14 111 37 186 99 59 49 122 80 160 80 40 0 38 -14 -7 -41 -21 -13 -40
-26 -43 -30 -3 -3 -19 -13 -36 -22 -66 -34 -76 -95 -13 -77 42 12 38 -11 -9
-49 -30 -25 -34 -32 -23 -40 12 -8 12 -12 2 -25 -7 -9 -10 -23 -7 -32 16 -43
189 23 331 127 60 44 244 138 336 172 37 14 80 32 98 41 l31 17 0 -31 c0 -37
14 -38 71 -5 66 37 104 31 59 -10 -27 -25 -25 -51 5 -59 18 -5 46 6 112 44 79
46 133 63 133 42 0 -4 -21 -25 -46 -46 -29 -25 -43 -43 -40 -53 4 -10 -10 -29
-39 -55 -25 -22 -45 -46 -45 -54 0 -37 115 -42 196 -8 108 46 406 134 451 134
12 0 6 -11 -21 -39 -29 -30 -36 -44 -31 -60 8 -28 32 -27 135 4 46 14 84 25
86 25 1 0 7 -13 14 -30 7 -16 30 -45 51 -64 38 -35 150 -96 175 -96 20 0 17
41 -6 70 -27 35 -25 41 11 23 17 -9 59 -18 93 -20 50 -4 66 -2 79 12 13 12 26
15 50 10 70 -15 152 -46 174 -67 13 -12 36 -21 52 -21 22 0 31 -6 35 -21 3
-12 13 -30 23 -41 10 -11 28 -36 40 -55 28 -45 84 -89 122 -96 17 -4 33 -15
36 -25 9 -26 63 -69 88 -69 12 0 29 -5 37 -10 12 -7 9 -14 -18 -41 -33 -32
-41 -63 -19 -72 8 -4 2 -15 -18 -32 -16 -14 -41 -36 -55 -48 -14 -13 -56 -42
-95 -64 -64 -37 -75 -40 -122 -36 -50 5 -53 7 -53 34 0 35 -14 37 -87 9 -29
-11 -53 -16 -53 -11 0 11 54 51 68 51 6 0 24 11 41 25 21 19 29 34 29 55 -1
17 7 39 17 50 16 18 16 20 1 26 -9 3 -22 1 -30 -5 -12 -10 -132 -40 -175 -43
-7 -1 -18 -14 -23 -29 -10 -30 -38 -44 -75 -40 -29 3 -59 -13 -110 -60 -24
-22 -48 -39 -54 -39 -6 0 7 17 30 38 39 34 43 42 48 97 8 81 15 92 76 110 89
26 157 106 157 187 0 10 11 25 25 34 14 9 25 23 25 31 0 25 -61 7 -88 -24 -40
-50 -52 -57 -90 -60 -91 -6 -150 -19 -174 -40 -9 -8 -21 -12 -27 -9 -33 21
-181 -116 -181 -166 0 -17 -27 -44 -36 -35 -9 9 56 164 77 183 10 9 19 21 19
26 0 17 -87 -6 -150 -40 -36 -19 -81 -44 -100 -54 -19 -10 -46 -27 -60 -38
-17 -14 -52 -23 -112 -29 -48 -6 -98 -16 -110 -23 -13 -7 -26 -11 -30 -10 -4
1 -19 -10 -33 -24 -37 -36 -43 -22 -11 24 32 47 33 59 2 73 -20 10 -29 8 -52
-10 -36 -28 -67 -29 -37 -1 26 24 40 99 23 129 -10 19 -5 27 42 70 66 61 61
70 -32 58 -19 -3 -66 -8 -105 -12 -38 -4 -74 -11 -79 -16 -8 -7 -14 -47 -15
-107 -1 -15 -12 -29 -31 -40 -16 -9 -35 -27 -41 -39 -9 -18 -15 -20 -29 -10
-15 9 -23 5 -44 -20 -17 -21 -38 -32 -65 -37 -72 -11 -101 -88 -66 -173 19
-44 14 -51 -21 -28 -35 22 -93 15 -142 -18 -21 -13 -48 -28 -62 -32 -14 -4
-31 -13 -39 -19 -21 -17 -115 -55 -121 -49 -3 3 6 12 19 22 48 33 121 104 121
117 0 8 -11 21 -25 30 -44 29 -178 4 -295 -56 -19 -9 -76 -31 -126 -49 -79
-27 -165 -63 -300 -127 -41 -19 -36 -35 9 -28 29 4 30 4 12 -8 -33 -22 -85
-75 -85 -88 0 -8 9 -11 25 -8 56 11 31 -14 -60 -59 -70 -34 -95 -52 -95 -66 0
-10 3 -17 7 -15 79 36 213 111 228 128 19 21 19 22 1 36 -10 7 -23 11 -27 8
-5 -3 -9 -1 -9 5 0 6 21 21 47 33 41 20 48 27 46 49 -1 24 6 30 70 59 40 18
101 43 137 55 36 13 103 37 150 55 109 42 230 58 230 30 0 -4 -28 -29 -61 -54
-34 -25 -68 -54 -75 -65 -22 -31 -7 -51 36 -51 41 0 173 51 205 80 30 27 88
60 105 60 8 0 -13 -16 -47 -35 -34 -20 -72 -48 -85 -64 -28 -35 -197 -117
-258 -125 -48 -7 -75 -24 -153 -98 -27 -27 -53 -48 -57 -48 -11 0 -199 -116
-222 -138 -11 -9 -18 -29 -18 -52 0 -21 -7 -43 -15 -50 -20 -16 -19 -54 1 -86
9 -13 18 -39 20 -57 6 -47 11 -57 31 -57 42 0 92 -21 98 -41 6 -19 13 -21 64
-17 l58 4 -7 -30 c-7 -33 10 -80 33 -89 7 -3 24 1 37 8 21 11 28 10 47 -5 31
-24 106 -18 186 15 14 6 20 2 24 -13 3 -12 16 -28 29 -37 l24 -15 -27 -41
c-15 -22 -32 -68 -39 -102 -11 -53 -11 -65 2 -84 18 -28 30 -29 69 -3 33 22
76 21 169 -6 91 -26 215 -14 526 51 126 27 143 31 216 57 l71 25 9 -21 c5 -12
24 -29 43 -38 42 -21 109 -118 146 -213 15 -38 32 -75 37 -82 6 -7 5 -14 -2
-18 -7 -4 -9 -19 -5 -36 7 -32 -11 -125 -28 -147 -15 -19 -10 -107 9 -158 14
-38 15 -54 5 -117 -18 -117 -21 -161 -9 -175 8 -9 9 -16 1 -20 -6 -4 -19 -23
-30 -42 -60 -110 -144 -222 -216 -290 -101 -95 -124 -112 -222 -162 -129 -65
-246 -140 -263 -168 -9 -14 -49 -58 -90 -97 -40 -40 -78 -86 -85 -102 -27 -63
-405 -430 -428 -415 -5 3 -6 -3 -2 -12 5 -13 3 -16 -10 -11 -11 4 -14 2 -11
-8 4 -10 -4 -16 -23 -20 -15 -3 -44 -10 -64 -15 -20 -6 -63 -10 -95 -10 -75 0
-118 -12 -177 -50 -26 -16 -47 -25 -47 -20 0 21 32 178 46 227 8 29 21 83 29
120 15 74 78 271 101 316 8 16 14 44 14 62 0 19 4 36 9 39 14 9 22 69 10 76
-6 4 9 12 34 18 33 9 46 18 51 34 10 39 7 48 -19 60 -31 14 -33 49 -5 98 10
19 22 43 26 52 6 17 26 23 66 19 9 -1 22 7 27 18 6 11 21 21 33 23 33 4 28 32
-6 38 -17 3 -29 8 -28 13 5 20 0 27 -20 27 -22 1 -22 1 -5 14 21 16 63 1 70
-25 3 -10 20 -19 42 -23 l38 -7 -31 -22 c-35 -24 -41 -51 -14 -62 9 -4 58 -13
107 -20 79 -11 94 -10 120 4 17 9 45 18 64 21 39 6 62 33 44 51 -8 8 -17 8
-29 1 -13 -7 -26 -6 -46 4 -33 17 -34 21 -11 46 15 16 15 20 2 33 -8 9 -33 19
-55 23 -60 12 -134 62 -91 62 8 0 50 18 95 40 91 45 121 49 140 19 7 -11 18
-19 25 -16 6 2 17 -6 22 -17 8 -16 19 -20 40 -18 58 6 110 3 148 -10 28 -8 44
-9 55 -1 27 16 26 42 -1 52 -13 5 -27 19 -30 31 -3 12 -14 24 -25 27 -25 6
-35 40 -15 51 17 10 21 43 10 85 -6 21 -4 27 9 27 10 0 14 6 11 14 -7 18 51
27 76 12 15 -9 21 -7 33 8 25 35 18 46 -32 46 -25 0 -54 4 -64 10 -10 5 -61
12 -113 15 -75 4 -111 1 -165 -13 -43 -12 -77 -16 -90 -11 -31 12 -27 21 5 13
19 -5 30 -2 40 12 11 14 17 16 31 8 21 -13 62 -1 62 19 0 7 -6 19 -12 26 -11
12 -9 13 7 6 43 -17 82 -17 89 0 3 9 4 20 1 25 -7 12 -91 32 -139 34 -49 1
-69 12 -42 22 9 3 16 15 16 25 0 15 7 19 34 19 40 0 55 25 31 49 -13 13 -37
16 -120 14 l-105 -2 6 42 c8 52 12 57 28 34 14 -18 46 -24 46 -8 0 6 18 0 40
-11 36 -20 43 -20 81 -8 33 11 57 33 74 67 1 1 17 -2 37 -7 22 -7 38 -18 41
-30 4 -14 14 -20 34 -20 81 1 75 78 -8 100 -28 8 -39 16 -35 25 11 31 -21 38
-147 32 -139 -6 -222 -28 -214 -56 4 -15 -3 -17 -49 -13 -53 4 -75 -9 -37 -23
10 -3 29 -15 42 -26 23 -19 23 -20 6 -33 -11 -8 -18 -26 -18 -45 0 -26 -5 -32
-26 -37 -24 -4 -79 -20 -109 -32 -8 -2 -10 1 -6 11 3 8 0 18 -6 22 -17 10
-113 8 -159 -5 -43 -11 -55 -36 -23 -46 9 -3 25 -10 35 -15 10 -6 26 -8 35 -5
9 2 27 7 40 11 19 5 23 3 20 -12 -2 -12 4 -19 20 -21 12 -2 22 -10 22 -18 0
-8 7 -14 16 -14 10 0 14 -6 11 -15 -4 -8 -2 -17 3 -20 16 -10 11 -28 -5 -21
-8 3 -20 0 -27 -7 -7 -7 -26 -18 -43 -25 -16 -7 -38 -24 -48 -37 l-18 -25 48
0 c35 0 44 -3 33 -10 -12 -8 -13 -12 -1 -19 21 -13 -4 -51 -40 -58 -35 -7 -37
-22 -5 -52 21 -20 23 -27 14 -54 -6 -18 -19 -41 -28 -52 -19 -22 -95 -243 -87
-251 3 -3 -3 -31 -14 -61 -10 -31 -19 -69 -19 -85 0 -20 -5 -28 -18 -28 -10 0
-23 -5 -29 -11 -14 -14 -6 -39 13 -39 18 0 28 -25 18 -42 -11 -18 -16 -36 -19
-83 -2 -22 -15 -74 -30 -115 -14 -41 -25 -91 -23 -110 2 -25 -1 -35 -12 -36
-8 0 -25 -2 -38 -2 -20 -2 -23 -7 -20 -34 2 -25 8 -34 26 -36 18 -3 21 -8 16
-30 -3 -15 -12 -41 -20 -58 -7 -17 -20 -55 -28 -85 -8 -30 -24 -78 -36 -107
-11 -29 -28 -90 -36 -135 -9 -45 -23 -89 -31 -98 -16 -19 -107 -35 -165 -31
-37 3 -38 3 -38 -32 0 -30 3 -34 23 -32 12 1 39 9 59 18 20 9 49 14 65 12 34
-6 43 -6 113 -1 71 5 85 12 111 53 11 19 33 40 47 48 31 15 144 26 185 17 l29
-6 -45 -42 c-24 -23 -58 -57 -73 -76 -27 -32 -35 -35 -96 -40 -46 -4 -77 -12
-97 -26 -16 -12 -32 -21 -36 -21 -4 0 -23 -13 -42 -30 -18 -16 -41 -30 -49
-30 -9 0 -29 -10 -46 -21 -16 -12 -47 -25 -69 -30 -56 -13 -79 -40 -79 -92 0
-40 4 -46 43 -74 83 -58 183 -212 170 -261 -8 -31 -19 -27 -26 8 -4 18 -13 30
-22 30 -20 0 -20 -59 0 -66 12 -5 13 -10 4 -20 -13 -16 -33 -19 -24 -4 4 6 -5
26 -19 45 -14 18 -26 40 -26 47 0 22 -26 52 -38 44 -8 -5 -2 -24 19 -61 32
-56 24 -79 -8 -25 -9 16 -21 30 -25 30 -4 0 -8 6 -8 13 0 7 -7 22 -16 33 -8
10 -13 14 -10 7 4 -6 1 -13 -5 -15 -16 -5 -3 -40 26 -72 26 -28 42 -100 25
-111 -6 -3 -10 0 -10 7 -1 8 -6 6 -15 -6 -8 -11 -18 -16 -22 -12 -4 4 0 12 10
17 19 11 23 44 6 54 -6 4 -14 17 -19 29 -7 18 -9 16 -9 -15 -1 -19 4 -40 10
-46 8 -8 8 -13 0 -17 -13 -8 -15 -106 -2 -106 8 0 59 36 71 50 12 14 67 48 90
55 14 4 41 19 61 32 30 19 38 32 42 65 10 72 83 116 134 81 35 -25 59 -33 68
-25 3 4 25 11 48 17 30 7 45 18 55 37 7 15 21 30 32 33 11 4 20 11 20 17 0 5
5 8 12 6 15 -5 66 53 108 126 21 35 55 74 83 95 27 20 68 53 91 73 24 21 46
38 50 38 6 0 92 52 191 115 28 18 66 36 85 40 19 4 40 11 45 15 13 11 161 -6
211 -24 22 -7 71 -34 109 -58 39 -24 90 -50 114 -57 46 -13 101 -61 101 -88 0
-12 -11 -14 -62 -8 -35 3 -75 11 -90 16 -27 11 -68 -2 -68 -21 0 -4 -16 -14
-35 -20 -40 -13 -43 -22 -15 -50 19 -19 66 -27 130 -21 36 4 139 -19 180 -39
19 -10 44 -27 54 -39 11 -12 24 -21 30 -21 6 0 22 -9 36 -20 l25 -20 -65 6
c-50 4 -70 2 -85 -10 -19 -14 -19 -16 -3 -32 9 -10 54 -32 100 -50 l83 -33 33
36 c17 20 32 43 32 51 0 11 7 13 28 8 72 -17 102 -18 118 -5 25 20 89 11 182
-26 47 -19 96 -35 109 -35 13 0 23 -4 23 -9 0 -5 16 -15 35 -21 24 -8 35 -18
35 -31 0 -30 1 -32 18 -62 13 -21 31 -32 72 -43 30 -8 78 -23 105 -34 74 -29
162 -49 235 -54 36 -2 92 -11 125 -20 32 -9 67 -16 77 -16 10 0 18 -4 18 -9 0
-5 28 -12 63 -16 34 -4 71 -9 82 -11 53 -9 287 0 420 17 90 11 93 11 248 -21
27 -5 76 -12 110 -15 34 -3 78 -8 97 -11 36 -6 110 -12 168 -13 17 -1 32 -5
32 -9 0 -13 -111 -15 -1005 -14 -308 0 -587 -1 -620 -2 -111 -6 -408 -6 -780
-1 -203 3 -464 5 -580 5 -386 -2 -437 -2 -936 2 -541 5 -589 2 -589 -40 0 -24
1 -24 63 -18 80 9 1927 10 2062 1 55 -3 134 -8 175 -10 87 -5 371 -5 480 1 70
3 782 6 1400 4 151 0 286 2 298 4 13 3 116 6 228 8 l204 3 0 52 c0 57 -8 65
-54 52 -30 -9 -221 -4 -271 7 -16 3 -37 6 -45 6 -13 0 -130 9 -295 23 -33 3
-75 10 -93 16 -18 6 -36 9 -39 6 -2 -3 -24 1 -46 9 -54 20 -177 24 -247 9 -50
-11 -312 -12 -425 -1 -37 3 -152 39 -164 51 -3 3 49 5 114 4 162 -3 295 3 301
13 3 5 10 5 16 2 5 -4 22 2 36 13 52 37 112 52 192 48 41 -2 75 -4 75 -5 0 -2
22 -6 65 -13 19 -4 58 -11 86 -17 66 -14 139 -9 139 9 0 8 -13 15 -30 17 -92
9 -132 17 -153 30 -12 8 -27 12 -33 8 -6 -3 -21 4 -33 15 -29 27 -66 31 -131
13 -27 -7 -59 -15 -70 -17 -11 -2 -35 -8 -53 -13 -19 -6 -30 -7 -27 -1 4 5 10
9 15 9 4 0 23 14 41 31 30 28 37 30 80 25 32 -4 48 -3 51 5 3 8 19 4 52 -10
26 -13 54 -20 62 -17 17 6 18 28 3 43 -7 7 4 9 39 5 33 -3 59 1 79 11 34 18
73 18 88 1 16 -19 143 -26 153 -9 6 11 16 13 42 6 19 -5 93 -12 164 -15 71 -3
131 -8 134 -11 3 -3 -3 -5 -13 -5 -10 0 -35 -5 -56 -12 -31 -9 -39 -16 -39
-35 0 -16 8 -27 26 -33 34 -13 34 -14 45 19 10 27 13 29 40 19 29 -10 40 -28
17 -28 -9 0 -10 -2 -2 -8 8 -5 9 -23 4 -57 -8 -55 2 -95 24 -95 23 0 40 29 40
70 1 24 5 35 11 30 6 -4 25 -10 43 -12 24 -3 32 -1 28 8 -3 8 -1 16 5 20 18
11 -22 44 -53 44 -19 0 -28 4 -25 13 2 7 20 12 43 12 39 0 39 0 42 43 l3 42
-50 0 c-51 0 -75 15 -50 31 8 5 33 9 57 9 31 0 42 4 42 15 0 11 -12 15 -50 15
-27 0 -50 5 -50 10 0 6 18 9 41 8 27 -2 43 2 46 10 3 8 -9 12 -41 12 -61 0
-59 16 4 25 32 4 50 12 50 21 0 10 -13 13 -50 10 -36 -2 -50 1 -50 11 0 9 15
13 50 13 28 0 50 5 50 10 0 11 -2 12 -53 15 -20 1 -40 5 -43 8 -12 12 8 27 36
27 49 0 60 9 60 50 0 34 -3 38 -31 44 -17 3 -49 6 -71 6 -45 0 -57 -19 -52
-87 3 -43 2 -43 -31 -43 -35 0 -83 -21 -96 -42 -13 -20 10 -38 50 -39 45 -1
83 -14 61 -22 -8 -3 -36 -8 -62 -12 -92 -12 -82 -62 15 -72 31 -3 57 -10 57
-15 0 -14 -201 -1 -360 23 -83 12 -257 15 -307 4 -24 -5 -39 -2 -62 14 -16 12
-40 21 -53 21 -14 0 -49 8 -79 18 -72 24 -125 15 -216 -37 -96 -54 -165 -81
-211 -81 -20 0 -70 -6 -110 -14 -40 -7 -100 -12 -135 -10 -34 2 -98 3 -142 2
-307 -4 -282 -8 -522 90 -232 95 -304 112 -333 77 -11 -13 -16 -13 -44 5 -18
11 -41 17 -53 14 -15 -4 -30 4 -55 28 -18 19 -48 41 -66 49 -24 10 -34 22 -38
48 -6 31 -24 63 -68 127 -8 12 -50 36 -93 53 -43 17 -109 52 -147 76 -37 25
-74 45 -81 45 -8 0 -16 4 -19 9 -3 4 -20 11 -38 15 -32 6 -30 8 50 41 46 18
98 46 116 62 19 15 43 35 54 43 11 8 47 40 79 70 72 66 101 90 109 90 4 0 37
20 74 45 37 25 73 45 80 45 6 0 24 7 38 14 41 23 187 66 222 66 17 0 38 4 48
9 32 17 143 61 154 61 5 0 24 6 41 14 103 44 105 44 89 -4 -7 -17 -8 -40 -3
-52 7 -19 -1 -28 -58 -69 -37 -25 -84 -68 -106 -95 -22 -27 -52 -61 -68 -75
-15 -14 -46 -57 -68 -94 -37 -65 -39 -70 -23 -82 21 -16 31 -16 39 -3 4 6 11
7 17 4 6 -4 20 5 32 18 24 28 152 103 209 123 32 11 38 11 33 0 -8 -22 21 -38
58 -31 21 4 63 -1 108 -12 72 -18 137 -21 171 -7 9 4 26 27 36 51 26 58 31 57
99 -5 41 -38 167 -56 200 -29 22 18 44 76 37 98 -4 13 5 26 32 47 60 46 104
62 194 70 75 7 84 10 87 29 3 19 -3 22 -85 29 -101 9 -154 9 -187 1 -21 -5
-24 -2 -28 25 -10 65 31 170 90 231 28 30 44 38 71 38 19 0 43 7 52 16 12 11
43 18 86 21 38 2 80 9 95 15 57 22 247 13 305 -15 13 -6 26 -8 29 -4 3 3 27
-1 53 -9 158 -47 431 -48 636 -3 90 20 95 27 95 124 0 82 -1 85 -25 91 -38 9
-55 -11 -55 -66 0 -38 -6 -55 -26 -79 -14 -17 -31 -28 -37 -24 -6 4 -2 10 11
14 19 7 22 16 22 64 0 48 -3 55 -19 55 -11 0 -22 -4 -25 -9 -3 -5 -15 -7 -25
-4 -13 3 -25 -3 -36 -21 -15 -23 -19 -24 -32 -10 -12 11 -18 12 -29 3 -18 -14
-17 -13 2 58 29 105 66 266 101 443 l5 25 9 -22 c9 -25 28 -30 47 -11 15 15
16 55 2 63 -8 5 -7 12 1 22 11 13 14 12 21 -6 10 -28 44 -27 51 1 7 27 -1 41
-19 34 -23 -9 -16 8 21 50 l35 39 -1 217 c0 162 -3 217 -12 215 -7 -1 -12 6
-12 15 0 20 -81 105 -107 114 -22 7 -24 33 -2 41 12 4 14 14 10 34 -11 55 23
28 68 -54 14 -26 26 -58 26 -71 0 -13 7 -29 15 -36 13 -11 15 6 15 141 0 91
-4 149 -9 144 -5 -6 -11 -19 -13 -29 -5 -33 -27 -30 -26 3 1 37 -26 97 -61
135 l-26 28 25 -7 c14 -4 41 -21 61 -36 20 -16 40 -29 43 -29 12 0 6 48 -6 53
-10 4 -10 6 0 6 7 1 12 16 12 42 0 32 -6 47 -29 70 -25 24 -29 36 -27 72 1 24
10 54 19 67 l17 24 1 -24 c1 -42 10 -115 15 -119 2 -2 4 168 4 378 l0 382 -39
68 -39 68 31 14 c19 8 34 24 38 39 4 14 7 119 8 233 1 195 0 211 -19 234 -25
33 -25 43 1 36 18 -5 20 -2 17 37 -3 45 0 43 -123 85 l-40 14 60 0 c92 2 105
7 105 47 0 38 -4 39 -77 25 -30 -6 -46 -5 -53 4 -6 7 -33 15 -62 18 -60 7 -90
27 -40 27 40 0 112 17 180 43 50 19 52 20 52 58 0 44 -3 45 -74 24 -27 -8 -82
-15 -122 -15 -61 0 -81 5 -129 30 -31 16 -68 39 -82 50 -14 11 -30 20 -35 20
-5 0 -26 14 -47 30 -20 17 -66 43 -102 58 -61 26 -71 27 -170 21 -113 -7 -152
-21 -200 -73 -26 -29 -27 -29 -33 -8 -9 29 -15 28 -66 -9 -55 -40 -48 -26 15
32 42 39 55 46 81 42 26 -4 38 1 68 30 41 40 46 72 16 110 l-21 26 23 -2 c13
-1 58 2 101 7 60 6 85 5 103 -5 21 -11 27 -11 35 1 20 32 5 53 -50 70 -29 10
-61 26 -70 35 -15 16 -14 17 19 12 195 -32 268 -50 305 -76 57 -39 71 -42 91
-20 22 24 40 19 124 -36 36 -23 76 -46 90 -49 101 -27 131 -46 71 -46 -31 0
-60 -25 -45 -39 5 -5 30 -12 57 -15 l47 -7 0 69 c0 76 -5 82 -61 82 -32 0
-129 45 -129 59 0 5 19 3 43 -4 23 -6 66 -15 95 -18 l52 -6 0 121 c0 120 0
120 -22 114 -13 -3 -29 -6 -35 -6 -21 0 -15 -38 7 -50 24 -13 26 -33 5 -50
-12 -10 -26 -9 -73 3 -62 16 -110 32 -157 52 -41 17 -106 34 -130 33 -11 0
-58 5 -105 11 -47 7 -115 15 -152 18 -68 5 -222 -10 -268 -26 -14 -5 -37 -12
-51 -15 -14 -3 -43 -19 -64 -36 -47 -37 -61 -28 -45 29 8 32 16 41 33 41 12 1
33 7 47 15 14 8 37 14 52 15 15 0 49 7 75 17 54 18 203 20 280 2 69 -15 328
-12 390 5 29 8 88 29 132 47 l80 34 1 68 c0 37 -2 67 -4 67 -2 0 -35 -18 -74
-40 -38 -22 -72 -40 -76 -40 -4 0 -26 -9 -50 -20 -68 -30 -191 -40 -440 -35
-178 4 -233 9 -249 20 -12 9 -44 15 -74 15 -49 0 -64 -4 -140 -36 -17 -8 -35
-14 -40 -13 -4 1 -39 35 -77 76 l-68 74 21 22 c18 20 19 27 9 60 -14 44 -3 59
80 115 30 19 59 43 65 54 7 10 18 18 25 18 15 0 61 31 113 76 26 23 50 33 90
38 59 8 78 13 189 52 41 15 89 29 105 31 39 6 135 52 135 65 0 5 17 16 38 24
57 23 105 48 120 62 7 6 20 12 27 12 27 0 120 50 133 71 20 32 8 33 -37 5 -22
-14 -45 -26 -51 -26 -14 0 -171 -79 -190 -96 -16 -14 -95 -22 -106 -12 -13 13
7 25 63 38 49 11 55 14 36 21 -29 11 -29 25 -1 40 19 10 24 9 35 -8 14 -20 15
-20 99 23 47 24 94 44 104 44 36 0 125 47 153 79 16 20 27 44 27 62 0 27 -3
30 -22 24 -76 -22 -95 -29 -113 -38 -11 -6 -45 -12 -76 -13 -31 -2 -68 -6 -83
-10 -20 -5 -26 -3 -26 10 0 9 7 19 15 22 16 7 50 88 47 118 0 11 9 36 20 55
25 40 31 132 10 153 -11 11 -22 3 -65 -42 -29 -30 -84 -85 -122 -121 -39 -36
-81 -78 -94 -93 -22 -25 -136 -86 -161 -86 -16 0 -59 -29 -121 -82 -30 -26
-61 -48 -68 -48 -13 0 -172 -99 -182 -113 -4 -5 -28 -22 -54 -37 -103 -60
-246 -234 -276 -335 -11 -37 -18 -44 -44 -49 -34 -7 -62 -44 -52 -70 4 -9 1
-17 -6 -17 -25 -3 -53 -7 -75 -10 -20 -4 -27 5 -55 71 l-32 75 -85 0 c-51 1
-96 6 -113 15 -25 12 -29 11 -50 -8 -13 -12 -26 -19 -30 -16 -4 4 -41 1 -84
-6 -43 -7 -85 -14 -93 -15 -65 -8 -102 -19 -110 -34 -5 -10 -7 -48 -5 -85 l5
-67 -58 2 c-49 1 -85 -6 -197 -37 -11 -3 1 8 27 23 55 34 98 69 98 82 0 4 -9
20 -21 35 -27 34 -75 34 -146 1 -29 -13 -53 -21 -53 -16 0 19 125 121 201 163
46 25 99 62 118 82 29 30 32 38 21 51 -7 8 -11 17 -9 18 2 2 18 13 35 25 40
27 48 55 23 78 -21 19 -58 15 -177 -18 -51 -15 -52 -15 -36 3 20 22 127 74
234 114 143 54 263 124 365 214 46 41 215 124 352 174 100 37 203 94 203 113
0 7 -9 16 -20 19 -27 8 -25 21 3 29 26 6 97 63 97 77 0 5 -11 14 -24 20 -19 9
-36 7 -76 -6 -39 -13 -55 -14 -63 -6 -32 32 48 79 188 110 55 13 118 29 140
36 39 14 138 28 285 41 41 3 79 8 83 11 4 3 22 6 40 8 56 5 118 25 124 41 8
21 24 18 101 -21 88 -45 141 -54 212 -37 110 26 140 37 140 49 0 17 -7 17 -98
-8 -93 -25 -148 -21 -218 16 -105 56 -194 63 -179 14 4 -11 3 -19 -2 -20 -17
-2 -70 -9 -128 -19 -33 -5 -96 -12 -140 -15 -170 -13 -361 -55 -493 -108 -67
-27 -123 -88 -105 -115 9 -14 24 -17 84 -15 l74 2 -60 -32 c-42 -23 -61 -39
-63 -54 -3 -19 1 -23 24 -23 52 0 5 -28 -133 -79 -168 -63 -334 -148 -403
-207 -103 -88 -235 -159 -375 -202 -95 -29 -214 -99 -242 -141 -42 -63 -22
-68 94 -27 158 56 204 41 77 -25 -39 -21 -71 -44 -73 -54 -3 -16 2 -17 45 -11
45 6 47 5 30 -12 -9 -11 -42 -32 -74 -48 -80 -40 -169 -104 -230 -165 -90 -90
-59 -130 58 -73 66 32 115 41 125 24 10 -15 -34 -52 -53 -45 -7 3 -11 1 -8 -4
3 -5 -7 -14 -23 -21 -54 -22 -89 -76 -68 -104 11 -15 19 -14 92 10 63 22 98
27 168 27 49 -1 91 -3 94 -6 5 -5 12 -59 29 -207 4 -30 11 -60 15 -66 5 -6 12
-33 15 -60 6 -44 5 -47 -8 -30 -19 24 -59 16 -93 -18 -20 -20 -31 -23 -77 -19
-77 6 -98 19 -91 54 5 27 3 29 -25 29 -16 0 -35 -7 -42 -15 -19 -22 -39 -18
-65 13 -13 16 -43 34 -67 41 -24 7 -74 28 -113 46 -38 17 -83 35 -100 39 -16
4 -49 17 -74 28 -46 21 -73 17 -79 -13 -2 -15 98 -59 134 -59 11 0 33 -8 49
-18 17 -10 62 -31 100 -47 39 -15 83 -38 98 -51 16 -13 33 -22 38 -18 18 11 9
-16 -21 -59 -17 -25 -30 -52 -30 -60 0 -9 -6 -20 -14 -24 -8 -4 -21 -25 -29
-45 -11 -25 -24 -39 -41 -44 -32 -8 -35 -38 -6 -56 43 -27 15 -36 -50 -17 -30
9 -39 18 -44 41 -3 15 -14 31 -23 35 -10 3 -25 12 -33 18 -8 7 -55 34 -105 60
-49 26 -99 56 -110 66 -11 11 -29 25 -40 33 -19 14 -19 15 -2 33 19 22 22 39
7 48 -5 3 -15 -6 -23 -21 -9 -17 -17 -23 -21 -16 -4 7 -2 21 4 33 8 14 9 24 2
31 -13 13 -32 2 -32 -18 0 -8 -4 -14 -10 -14 -15 0 -12 9 10 37 24 31 25 43 5
43 -8 0 -23 -17 -34 -37 -11 -21 -20 -31 -20 -23 0 8 8 26 19 40 26 34 26 53
-1 45 -14 -5 -19 -3 -15 3 3 6 2 13 -3 17 -6 3 -2 19 9 38 11 18 20 35 20 40
0 16 -23 6 -42 -18 -11 -14 -23 -25 -28 -25 -4 0 -22 -14 -40 -30 -18 -17 -35
-29 -37 -26 -3 2 13 21 36 41 22 20 43 45 46 56 13 40 49 41 129 3 77 -37 119
-41 124 -12 2 12 -18 27 -72 54 -42 20 -81 43 -87 51 -6 7 -21 13 -33 13 -29
0 -87 69 -102 120 -22 75 -80 130 -136 130 -13 0 -28 8 -35 19 -11 17 -6 19
60 30 40 6 91 13 115 16 59 7 82 21 82 50 0 50 -25 128 -50 155 -24 25 -29 27
-70 20 -25 -5 -64 -14 -87 -20 -39 -11 -44 -10 -71 11 -16 13 -34 35 -41 49
-6 14 -18 38 -27 53 -9 16 -24 68 -34 115 -10 48 -32 137 -48 197 -47 168 -71
265 -78 315 -3 25 -10 50 -14 55 -4 6 -20 51 -34 100 -15 50 -33 110 -41 135
-14 44 -45 175 -42 175 1 0 43 21 93 48 51 26 94 47 97 47 3 0 7 -12 9 -27 3
-26 6 -28 49 -27 54 2 122 34 144 68 10 15 39 31 80 45 35 11 76 31 90 43 15
13 54 33 88 45 l62 23 -60 -3 c-49 -2 -72 -10 -121 -40 -33 -21 -73 -39 -90
-41 -39 -6 -77 -21 -91 -37 -11 -14 -13 -19 -13 -39 0 -5 -9 -10 -19 -10 -11
0 -23 -4 -26 -10 -12 -19 -38 -11 -32 10 3 11 -1 27 -9 34 -17 17 -60 4 -194
-57 -14 -6 -33 -18 -42 -25 -21 -18 -20 -19 -44 93 -9 44 -19 90 -21 103 -4
17 -12 22 -38 22 l-32 0 17 -57 c10 -32 30 -110 45 -173 32 -132 40 -156 59
-176 8 -7 17 -33 21 -56 4 -24 16 -67 27 -95 11 -29 21 -76 24 -105 2 -29 8
-64 13 -78 6 -14 15 -52 21 -85 6 -33 15 -69 19 -80 5 -11 13 -42 20 -70 6
-27 22 -93 36 -145 56 -220 64 -253 59 -262 -3 -4 -16 -8 -30 -8 -30 0 -33 6
-79 190 -21 80 -46 175 -56 212 -10 36 -19 76 -19 88 0 12 -4 29 -9 39 -5 9
-15 55 -21 101 -13 97 -43 213 -63 244 -16 24 -28 67 -33 115 -2 18 -16 77
-33 130 -30 98 -46 167 -56 234 -5 32 -10 37 -32 37 -23 0 -25 -3 -20 -32 9
-55 37 -159 63 -235 13 -39 24 -78 24 -85 0 -8 9 -32 20 -53 11 -22 23 -65 27
-95 3 -30 9 -59 13 -65 4 -5 11 -32 15 -60 5 -27 10 -54 11 -60 2 -5 10 -46
19 -90 43 -221 104 -476 116 -491 5 -6 7 -13 4 -15 -2 -3 2 -29 10 -59 11 -42
12 -56 2 -62 -28 -18 -46 -8 -56 30 -5 20 -23 89 -39 152 -17 63 -33 131 -36
150 -4 19 -13 64 -22 100 -8 36 -19 94 -24 129 -5 35 -13 73 -16 85 -4 12 -15
66 -25 121 -10 55 -21 109 -23 120 -3 11 -10 47 -16 80 -6 33 -20 87 -31 120
-11 33 -29 112 -40 175 -10 63 -21 121 -24 128 -5 14 -45 17 -45 3z m3861
-792 c-30 -67 -78 -129 -100 -129 -25 0 -38 -20 -21 -30 7 -5 10 -15 6 -25 -5
-13 -14 -16 -40 -11 -24 5 -37 2 -46 -9 -11 -13 -8 -15 19 -15 34 0 37 -6 18
-32 -11 -14 -20 -15 -60 -6 -47 10 -56 7 -116 -38 -2 -2 4 -10 13 -19 21 -22
20 -32 -4 -40 -12 -4 -31 0 -45 9 -31 20 -32 20 -38 -5 -5 -17 -11 -19 -40
-14 -28 6 -37 3 -45 -12 -10 -17 -2 -18 159 -17 153 2 176 4 256 29 97 31 205
78 242 107 13 10 34 18 46 18 34 0 21 -36 -24 -65 -85 -57 -362 -124 -521
-127 -105 -2 -152 -10 -242 -45 -56 -21 -67 -49 -15 -39 42 9 50 9 127 6 57
-3 70 0 105 24 29 20 49 26 77 24 79 -6 48 -30 -96 -75 -75 -23 -89 -25 -110
-13 -20 10 -37 10 -84 1 -33 -6 -66 -9 -73 -6 -8 3 -30 -6 -49 -20 -29 -21
-36 -23 -38 -10 -9 42 -80 -5 -174 -115 -67 -78 -108 -141 -108 -166 0 -26 19
-14 40 25 20 40 40 61 40 42 0 -13 33 -14 58 -2 73 35 93 44 97 39 3 -2 -7
-11 -23 -19 -92 -47 -180 -105 -210 -139 -41 -48 -67 -53 -58 -12 8 32 63 140
82 163 8 8 14 19 14 24 0 22 79 100 160 156 50 35 117 85 148 111 36 30 75 52
104 60 37 9 47 16 43 28 -5 16 46 80 64 80 6 0 54 21 108 46 92 44 106 55 223
175 69 70 130 128 137 128 8 1 6 -12 -6 -40z m-221 -304 c0 -16 -35 -21 -44
-6 -8 12 4 21 26 21 10 0 18 -7 18 -15z m125 -15 c-3 -5 -16 -10 -28 -10 -18
0 -19 2 -7 10 20 13 43 13 35 0z m-155 -253 c0 -12 -64 -41 -170 -77 -74 -25
-151 -32 -160 -15 -3 5 42 23 100 40 58 17 123 38 145 47 49 21 85 23 85 5z
m-273 -14 c5 -13 -46 -43 -74 -43 -10 0 -38 -14 -62 -30 -49 -33 -61 -36 -61
-17 0 51 183 134 197 90z m-2793 -55 c8 -30 7 -38 -1 -38 -11 0 -32 48 -25 55
11 10 20 5 26 -17z m2543 -14 c-25 -21 -57 -32 -57 -19 0 8 75 53 80 48 3 -3
-8 -16 -23 -29z m-2594 -4 c-8 -31 -23 -34 -23 -6 0 16 6 26 14 26 9 0 12 -7
9 -20z m2757 -30 c0 -5 -12 -10 -26 -10 -14 0 -23 4 -19 10 3 6 15 10 26 10
10 0 19 -4 19 -10z m-2682 -22 c-4 -11 -118 -42 -126 -34 -3 3 106 43 121 45
5 1 7 -5 5 -11z m2437 -17 c6 -11 -33 -36 -42 -27 -7 7 16 36 28 36 4 0 10 -4
14 -9z m-2186 -32 c15 -43 14 -57 -2 -34 -16 21 -39 12 -30 -13 6 -15 4 -15
-9 -4 -14 11 -18 10 -28 -8 -9 -16 -15 -19 -23 -11 -17 17 -34 13 -40 -9 -3
-12 -14 -20 -27 -20 -12 0 -48 -6 -79 -14 -31 -7 -83 -19 -116 -26 -33 -7 -87
-21 -119 -31 -75 -24 -73 -24 -81 10 -7 35 -31 47 -44 23 -7 -12 -10 -13 -11
-3 0 8 -7 11 -20 8 -15 -4 -20 0 -20 14 0 16 7 19 44 19 24 0 72 9 107 21 76
24 244 62 349 79 41 7 84 16 95 21 34 13 43 10 54 -22z m-563 -38 c-3 -4 -28
-11 -56 -15 -28 -4 -58 -10 -68 -13 -10 -4 -14 -2 -9 3 5 5 32 14 60 20 67 15
79 16 73 5z m358 -127 c3 -9 6 -19 6 -24 0 -14 -42 -19 -55 -7 -11 10 -10 15
2 30 20 21 39 22 47 1z m1802 2 c0 0 25 -46 55 -101 30 -55 73 -119 97 -142
23 -22 42 -48 42 -55 0 -8 11 -25 25 -38 14 -13 25 -29 25 -36 0 -7 -13 1 -29
17 -34 34 -54 36 -80 10 -19 -19 -19 -19 -24 0 -6 23 -37 25 -79 3 -29 -15
-32 -15 -43 0 -7 9 -17 16 -24 16 -6 0 -17 14 -23 31 -8 17 -37 48 -68 70 -85
61 -243 164 -262 172 -34 12 -17 25 50 37 37 6 79 13 93 16 21 4 35 -6 88 -66
34 -38 70 -70 78 -70 9 0 24 -7 34 -16 21 -19 57 -11 42 9 -5 6 -16 32 -23 57
-8 25 -22 58 -33 73 l-19 28 38 -7 c22 -4 39 -7 40 -8z m-1926 -60 c0 -11 -44
-28 -132 -53 -21 -5 -25 20 -5 34 10 8 66 27 112 38 15 3 25 -4 25 -19z m237
-3 c18 -10 36 -33 47 -62 27 -72 45 -105 73 -135 l26 -28 -26 -23 c-24 -23
-25 -23 -42 -6 -9 11 -24 17 -34 14 -9 -2 -23 3 -30 11 -17 20 -31 20 -31 1 0
-8 12 -21 28 -29 l27 -15 -29 -1 c-25 0 -28 -3 -23 -27 3 -15 2 -34 -2 -42 -3
-9 -8 47 -11 124 -5 139 -5 140 -31 152 -22 11 -33 10 -63 -2 -44 -19 -43 -19
-56 5 -9 17 -6 21 24 34 18 8 37 19 40 25 4 5 13 8 20 5 8 -3 17 -1 21 5 9 16
39 13 72 -6z m2018 -31 c-21 -3 -24 -6 -14 -18 14 -17 -5 -46 -29 -42 -31 6
-23 -23 11 -37 20 -8 38 -19 42 -25 4 -6 -3 -6 -19 1 -27 12 -56 6 -56 -11 0
-6 13 -16 29 -21 16 -6 32 -17 35 -25 3 -8 16 -14 30 -14 17 0 34 -13 57 -42
25 -33 27 -38 8 -20 -14 12 -30 22 -37 22 -21 0 -24 -22 -4 -43 10 -12 28 -35
38 -52 l18 -30 -22 19 c-18 16 -24 17 -38 5 -13 -11 -14 -15 -2 -23 19 -14 34
-56 53 -142 9 -39 27 -86 41 -105 28 -38 28 -39 11 -39 -14 0 -67 107 -67 136
0 11 -6 28 -13 38 -11 15 -15 15 -24 4 -13 -15 4 -96 32 -150 8 -17 15 -32 15
-34 0 -1 -36 -6 -80 -10 -71 -6 -80 -9 -80 -26 0 -19 5 -20 83 -14 l82 6 -68
-20 c-88 -26 -201 -38 -254 -26 -36 7 -44 14 -57 48 -19 46 -20 61 -4 56 7 -3
13 -15 13 -28 0 -35 57 -67 91 -51 17 8 31 8 44 1 28 -15 50 -2 50 31 0 19 5
29 14 29 34 0 43 67 12 82 -17 7 -21 16 -18 38 3 21 -1 31 -17 39 -23 13 -61
0 -61 -21 0 -6 -8 -4 -19 6 -23 21 -71 6 -71 -23 0 -10 -6 -23 -13 -29 -9 -8
-20 9 -46 74 -30 78 -52 102 -64 72 -3 -7 -6 -1 -6 14 -1 23 -10 32 -49 52
-51 26 -164 51 -188 42 -10 -4 -9 2 3 21 15 23 18 24 21 9 3 -13 10 -16 28
-12 14 4 24 2 24 -4 0 -5 8 -10 18 -10 11 0 23 13 31 35 7 19 17 35 22 35 6 0
5 -8 -1 -20 -6 -11 -8 -25 -5 -30 10 -15 35 -12 35 5 0 24 13 17 35 -18 16
-25 28 -33 58 -35 33 -3 37 -6 37 -31 0 -29 39 -80 62 -82 7 0 22 -2 33 -5 23
-5 85 11 134 35 78 37 89 135 25 212 -19 23 -34 46 -34 53 0 7 -16 27 -35 46
-43 41 -44 52 -6 48 35 -3 68 23 88 71 l14 33 26 -23 25 -24 -27 -3z m-2257
-54 c-2 -17 -10 -23 -28 -23 -14 0 -39 -8 -56 -17 -29 -16 -33 -16 -45 -2 -17
20 0 36 54 51 67 18 79 16 75 -9z m40 -61 c3 -13 -3 -17 -27 -17 -16 0 -33 -4
-36 -10 -6 -10 -85 -9 -85 1 0 8 112 47 130 45 8 -1 16 -9 18 -19z m101 1 c-2
-13 3 -33 10 -46 6 -12 15 -45 18 -72 5 -43 3 -50 -11 -50 -10 0 -14 5 -11 11
9 14 -25 51 -41 45 -7 -3 -15 2 -18 10 -4 10 4 18 21 25 l26 10 -22 22 c-30
33 -28 67 5 67 21 0 25 -4 23 -22z m-168 -77 c-27 -21 -14 -36 22 -26 20 7 21
6 6 -10 -15 -16 -19 -16 -48 -1 -49 26 -38 52 24 55 18 0 18 -1 -4 -18z m2719
-51 c11 -7 9 -11 -13 -19 -16 -6 -32 -11 -37 -11 -5 0 -26 -8 -45 -17 -25 -12
-38 -26 -42 -44 -7 -36 -33 -27 -33 11 0 30 25 52 88 75 45 16 62 18 82 5z
m-580 -66 c0 -8 -5 -12 -10 -9 -6 4 -8 11 -5 16 9 14 15 11 15 -7z m-503 -43
c-13 -14 -29 -44 -35 -66 -26 -93 -52 -242 -52 -294 1 -52 3 -58 37 -83 25
-20 48 -28 75 -28 26 0 41 -5 45 -16 5 -12 16 -15 60 -10 33 3 51 1 48 -4 -4
-6 -17 -10 -29 -10 -33 0 -50 -24 -41 -57 4 -16 7 -42 6 -60 -4 -53 53 -68
136 -37 40 16 44 16 78 -5 20 -11 42 -21 50 -21 8 0 16 -4 19 -9 6 -10 -64 -8
-130 4 -76 13 -115 -33 -51 -60 l32 -14 -41 -1 c-25 0 -49 7 -62 18 -11 9 -53
42 -93 72 -68 51 -87 68 -139 128 -12 13 -27 21 -34 19 -18 -7 -56 83 -56 130
0 19 7 48 16 65 14 26 14 32 2 45 -22 21 -41 8 -62 -42 -18 -44 -17 -67 1
-144 4 -15 2 -22 -4 -18 -14 9 -26 118 -18 159 7 38 59 78 99 78 17 0 27 7 32
22 4 13 12 27 19 33 6 5 17 39 23 75 15 78 60 170 80 163 10 -4 7 -12 -11 -32z
m463 -11 c10 0 22 -5 25 -11 5 -7 -5 -9 -26 -7 -28 2 -35 8 -37 28 -2 22 -1
23 8 8 6 -10 20 -18 30 -18z m-1831 -41 c11 -22 11 -31 0 -55 -8 -16 -23 -30
-34 -33 -11 -2 -22 -7 -25 -12 -10 -15 -68 41 -75 72 -5 24 -2 36 15 54 27 29
92 38 100 15 3 -8 12 -27 19 -41z m134 5 c-15 -20 -29 -31 -31 -25 -3 8 44 59
56 61 2 0 -9 -16 -25 -36z m2007 8 c0 -15 -2 -15 -10 -2 -13 20 -13 33 0 25 6
-3 10 -14 10 -23z m-736 -24 c-4 -7 -13 -20 -20 -28 -7 -8 -14 -26 -17 -40 -4
-21 -5 -20 -6 8 -1 21 4 35 14 38 8 4 15 12 15 20 0 8 5 14 11 14 5 0 7 -6 3
-12z m792 -138 c10 -21 28 -44 41 -51 25 -13 31 -29 11 -29 -33 0 -88 100
-101 185 -6 37 -5 36 13 -14 11 -29 27 -70 36 -91z m14 112 c0 -15 -2 -15 -10
-2 -13 20 -13 33 0 25 6 -3 10 -14 10 -23z m725 -3 c82 -27 188 -69 199 -80
13 -12 -6 -12 -40 1 -21 8 -31 7 -45 -6 -18 -16 -20 -16 -37 -1 -28 25 -81 44
-162 56 -41 7 -97 17 -125 23 -68 14 -156 -10 -258 -69 -64 -38 -80 -43 -93
-32 -13 11 -11 16 18 46 18 19 46 42 62 50 84 44 361 51 481 12z m-2775 1 c0
-5 -4 -10 -10 -10 -5 0 -10 5 -10 10 0 6 5 10 10 10 6 0 10 -4 10 -10z m1355
-12 c-6 -19 -5 -21 6 -10 7 6 21 12 31 12 10 0 18 -6 19 -12 4 -68 51 -253 75
-300 14 -27 30 -33 81 -28 13 1 30 -6 39 -15 11 -11 26 -14 43 -10 15 3 45 -1
66 -8 22 -8 62 -14 89 -15 64 0 74 -12 47 -55 -11 -19 -19 -37 -16 -40 3 -4 2
-5 -1 -2 -4 2 -20 -7 -36 -20 -16 -14 -38 -25 -49 -25 -10 0 -29 -10 -41 -22
-14 -14 -23 -18 -26 -10 -2 7 -19 12 -38 12 -28 0 -37 5 -47 28 -6 15 -15 30
-20 33 -16 12 -89 -3 -132 -27 -60 -33 -71 -31 -83 18 -10 39 -9 43 19 69 16
15 29 34 29 43 0 22 -38 39 -76 33 -36 -6 -53 13 -28 33 8 7 14 16 14 21 0 15
-32 10 -52 -7 -16 -16 -18 -15 -24 1 -4 10 -2 49 4 88 9 58 8 76 -4 98 -16 32
-19 89 -4 89 5 0 7 -6 4 -14 -10 -26 25 -26 42 -1 9 14 24 24 33 23 9 -2 17 4
17 12 3 28 4 30 15 30 6 0 8 -9 4 -22z m169 -67 c18 -60 21 -101 7 -85 -7 8
-41 131 -41 151 0 20 20 -18 34 -66z m592 -40 c15 -12 25 -23 22 -26 -14 -15
-89 78 -88 109 1 6 10 -5 20 -26 11 -20 32 -46 46 -57z m-1336 10 c0 -4 -12
-18 -26 -32 -31 -29 -57 -76 -49 -89 13 -21 41 -8 90 45 51 55 81 67 114 46
13 -8 12 -16 -5 -52 -28 -63 -27 -191 3 -241 20 -35 21 -38 5 -47 -13 -8 -15
-14 -6 -28 61 -102 66 -113 47 -106 -10 3 -29 15 -42 25 -13 10 -32 18 -41 18
-10 0 -23 7 -30 15 -7 8 -20 15 -29 15 -9 0 -22 9 -29 20 -17 27 -32 25 -70
-9 -36 -33 -42 -73 -16 -102 12 -13 14 -25 7 -45 l-9 -27 -23 24 c-46 47 -59
78 -53 122 3 23 11 46 18 50 8 4 14 17 14 27 0 16 -7 20 -30 20 -16 0 -30 4
-30 9 0 5 -2 15 -5 23 -10 26 61 14 87 -15 47 -53 112 -40 74 15 -20 28 -20
55 -1 101 13 32 13 36 -4 51 -10 9 -22 16 -28 16 -14 0 -53 -74 -53 -100 0
-11 -4 -20 -10 -20 -9 0 -6 75 6 128 3 13 -1 31 -8 40 -11 13 -10 15 3 10 18
-7 55 27 84 79 11 18 24 29 32 26 7 -3 13 -8 13 -12z m1590 -9 c0 -5 -9 -17
-20 -27 -16 -14 -25 -16 -42 -8 -23 10 -23 10 7 26 33 18 55 21 55 9z m-745
-32 c3 -5 1 -10 -4 -10 -6 0 -11 5 -11 10 0 6 2 10 4 10 3 0 8 -4 11 -10z
m640 -70 c3 -6 -3 -10 -14 -10 -12 0 -21 2 -21 4 0 2 -3 12 -7 21 -5 15 -3 16
15 6 11 -6 24 -16 27 -21z m-595 -6 c0 -2 -7 -4 -15 -4 -8 0 -15 4 -15 10 0 5
7 7 15 4 8 -4 15 -8 15 -10z m475 -3 c-23 -9 -160 -23 -153 -16 6 6 111 22
148 23 22 1 23 0 5 -7z m-100 -81 c-16 -17 -39 -33 -52 -36 -15 -4 -27 -20
-37 -51 -9 -25 -13 -49 -10 -54 7 -12 -41 -59 -61 -59 -19 0 -19 2 6 49 11 22
26 39 32 37 7 -1 9 -1 5 1 -26 14 37 107 85 128 53 23 64 18 32 -15z m155 21
c0 -5 -7 -14 -15 -21 -8 -7 -15 -19 -15 -26 0 -8 -4 -14 -10 -14 -5 0 -10 5
-10 10 0 18 -23 10 -53 -17 -26 -25 -28 -25 -18 -6 6 13 20 27 31 33 10 5 22
19 25 30 4 14 15 20 36 20 16 0 29 -4 29 -9z m-335 -71 c3 -5 -3 -10 -14 -10
-12 0 -21 5 -21 10 0 6 6 10 14 10 8 0 18 -4 21 -10z m742 -40 c14 -11 32 -20
39 -20 21 0 84 -60 84 -80 0 -10 -7 -23 -15 -30 -18 -15 -19 -63 -2 -110 19
-54 25 -60 65 -60 54 0 84 -24 80 -63 -6 -64 -101 -49 -114 19 -6 32 -9 35
-33 29 -44 -11 -56 -29 -42 -63 30 -71 108 -100 185 -68 l39 16 50 -49 50 -49
-39 -20 c-22 -11 -62 -23 -89 -27 -28 -4 -60 -12 -72 -16 -25 -9 -30 0 -11 19
18 18 -19 27 -48 12 -40 -22 -37 -4 6 32 41 36 49 48 28 48 -6 0 -31 9 -55 21
-52 25 -75 68 -60 112 5 15 6 34 3 42 -4 10 1 15 14 15 27 0 26 26 -4 120 -47
145 -50 149 -87 130 -24 -13 -24 -36 1 -100 28 -71 25 -82 -8 -29 -16 24 -50
61 -75 82 -41 33 -51 37 -74 30 -37 -13 -39 -28 -6 -57 97 -84 109 -97 83 -91
-14 4 -37 15 -52 26 -21 15 -33 17 -53 9 -14 -5 -25 -16 -25 -23 0 -23 53 -64
104 -81 28 -9 64 -26 80 -37 27 -18 31 -27 32 -70 0 -27 6 -55 12 -61 7 -7 12
-19 12 -27 0 -11 -3 -12 -11 -4 -6 6 -17 9 -24 6 -9 -3 -12 2 -8 15 7 27 -13
37 -41 19 -13 -9 -49 -22 -81 -31 -32 -8 -62 -19 -67 -24 -6 -6 -33 6 -73 34
-50 35 -67 54 -84 95 -25 57 -23 67 8 47 17 -11 23 -10 37 4 15 15 15 18 0 39
-20 30 -20 58 0 80 21 23 9 42 -22 35 -13 -4 -24 -2 -24 3 0 17 114 111 160
134 68 32 80 35 143 36 45 1 65 -4 84 -19z m-579 -8 c18 5 19 3 10 -12 -15
-23 -48 -14 -48 14 0 16 2 18 9 7 5 -8 18 -12 29 -9z m102 -36 c0 -2 -8 -10
-17 -17 -16 -13 -17 -12 -4 4 13 16 21 21 21 13z m96 -15 c-9 -10 -37 -26 -61
-36 -25 -9 -45 -23 -45 -31 0 -12 -98 -84 -116 -84 -3 0 -21 -7 -40 -16 -18
-9 -39 -14 -45 -12 -17 6 53 48 78 48 12 0 26 7 33 15 7 8 18 15 25 15 7 0 27
16 44 35 16 19 52 46 78 59 59 30 71 31 49 7z m-1196 -17 c0 -8 -4 -12 -10 -9
-5 3 -10 13 -10 21 0 8 5 12 10 9 6 -3 10 -13 10 -21z m1009 23 c-2 -1 -12 -9
-22 -16 -15 -12 -17 -12 -11 3 3 9 13 16 22 16 8 0 13 -1 11 -3z m-1048 -59
c7 -23 31 -62 52 -86 28 -33 35 -48 27 -56 -7 -7 -13 -8 -18 0 -66 97 -83 126
-88 152 -9 47 10 39 27 -10z m1874 -4 c28 -18 24 -40 -4 -24 -17 9 -37 40 -25
40 2 0 16 -7 29 -16z m-1640 -141 c87 -73 108 -81 223 -87 91 -5 172 -24 172
-41 0 -3 -66 -4 -147 -2 -168 4 -170 5 -282 110 -90 84 -134 139 -119 149 9 5
26 -7 53 -36 22 -24 67 -66 100 -93z m740 127 c-3 -5 -11 -10 -16 -10 -6 0 -7
5 -4 10 3 6 11 10 16 10 6 0 7 -4 4 -10z m-140 -50 c4 -6 -11 -10 -37 -10 -31
0 -39 3 -28 10 20 13 57 13 65 0z m379 -54 c-4 -31 -9 -54 -11 -52 -7 7 -6 71
2 96 12 37 16 16 9 -44z m866 55 c0 -4 -24 -11 -52 -14 -29 -3 -57 -7 -63 -9
-5 -1 -11 2 -13 7 -1 6 26 13 60 16 35 3 64 6 66 7 1 1 2 -2 2 -7z m43 2 c-7
-2 -19 -2 -25 0 -7 3 -2 5 12 5 14 0 19 -2 13 -5z m-2274 -70 c37 -45 32 -57
-9 -18 -20 19 -30 24 -30 14 -1 -10 -5 -9 -15 5 -38 50 13 49 54 -1z m1260 20
c-8 -10 -20 -24 -26 -31 -7 -7 -13 -17 -13 -22 0 -13 -60 -30 -104 -29 l-41 1
49 15 c27 8 70 30 95 49 53 38 59 41 40 17z m-331 -14 c-18 -12 -65 -11 -72 0
-4 5 14 9 39 9 28 -1 41 -4 33 -9z m107 -9 c-3 -5 -11 -10 -16 -10 -6 0 -7 5
-4 10 3 6 11 10 16 10 6 0 7 -4 4 -10z m265 -60 c0 -16 -5 -30 -10 -30 -14 0
-24 26 -16 45 10 26 26 16 26 -15z m-367 -18 c15 -6 13 -10 -13 -26 -17 -9
-44 -21 -60 -26 -27 -8 -30 -6 -30 15 0 38 53 56 103 37z m297 -2 c0 -5 -4
-10 -10 -10 -5 0 -10 5 -10 10 0 6 5 10 10 10 6 0 10 -4 10 -10z m-130 -36 c0
-4 -13 -21 -29 -39 -16 -18 -31 -39 -34 -47 -3 -10 -7 -10 -17 -1 -16 15 4 80
28 86 27 7 52 8 52 1z m118 -42 c32 -44 32 -66 0 -68 -32 -3 -57 21 -40 38 32
32 -6 62 -40 32 -21 -19 -21 -19 -9 4 17 33 64 30 89 -6z m-289 -63 c5 -16 6
-29 1 -29 -15 0 -50 51 -50 73 0 19 1 19 19 3 11 -10 24 -31 30 -47z m407 33
c9 -16 41 -43 70 -61 30 -18 54 -34 54 -36 0 -13 -14 -35 -22 -35 -5 0 -21 14
-35 31 -14 17 -44 37 -65 46 -35 14 -58 43 -58 74 0 21 40 7 56 -19z m-223 -7
c-3 -9 -8 -14 -10 -11 -3 3 -2 9 2 15 9 16 15 13 8 -4z m-255 -46 c29 -28 52
-52 50 -54 -33 -29 -114 13 -133 69 -12 34 -12 36 9 36 12 0 44 -22 74 -51z
m-194 15 c20 -3 36 -10 36 -15 0 -15 -33 -9 -70 12 -19 11 -27 18 -18 15 9 -3
33 -8 52 -12z m509 -18 c9 5 9 4 0 -7 -29 -30 5 -63 37 -34 34 31 122 11 158
-35 18 -24 53 -103 52 -118 -1 -4 -17 23 -36 61 -25 49 -40 67 -54 67 -25 0
-37 -25 -21 -44 6 -7 24 -38 39 -69 l29 -56 -46 0 c-49 1 -91 16 -104 36 -4 7
-17 13 -27 13 -13 0 -17 5 -14 15 3 8 -1 24 -10 37 -9 12 -16 34 -16 49 0 15
-7 29 -16 33 -26 10 -69 7 -82 -6 -6 -6 -14 -9 -18 -6 -3 4 13 17 35 30 22 13
41 29 41 36 0 10 5 10 20 2 11 -6 26 -8 33 -4z m527 -6 c0 -15 -7 -20 -25 -20
-29 0 -33 15 -7 29 25 15 32 13 32 -9z m110 2 c0 -4 -10 -13 -22 -21 -23 -14
-23 -14 -4 8 20 22 26 25 26 13z m-820 -72 c-25 -16 -33 -11 -26 15 4 14 2 25
-4 25 -5 0 -10 6 -10 12 0 7 12 0 28 -15 23 -23 25 -29 12 -37z m-1885 22
c-34 -24 -37 -40 -20 -92 20 -62 14 -73 -61 -106 -53 -23 -83 -66 -70 -99 13
-34 26 -31 160 33 4 3 4 -4 -2 -14 -13 -23 2 -54 26 -55 9 -1 -20 -7 -65 -14
-46 -7 -94 -20 -108 -29 -17 -11 -31 -14 -43 -7 -22 12 -98 3 -133 -15 -26
-13 -29 -12 -48 12 -12 15 -21 35 -21 45 0 25 19 72 33 81 21 14 27 8 15 -12
-24 -37 24 -83 64 -62 95 51 100 57 93 113 -6 45 -5 48 25 71 40 29 60 67 60
112 0 19 6 37 13 39 19 8 93 7 82 -1z m3173 -26 c41 -37 50 -73 25 -91 -15
-11 -15 -17 -2 -60 9 -28 16 -92 17 -160 l2 -113 -40 -7 c-22 -4 -40 -11 -40
-16 0 -5 -6 -9 -13 -9 -7 0 -22 -7 -34 -15 l-21 -15 21 -43 c32 -61 33 -77 5
-77 -19 0 -20 2 -8 10 11 7 5 10 -23 10 -49 0 -67 18 -67 68 0 21 -3 42 -7 46
-5 4 -8 26 -9 49 0 23 -4 52 -8 65 -5 13 -3 22 3 22 6 0 11 -3 11 -7 0 -5 4
-14 9 -22 17 -26 48 18 55 80 7 55 6 57 -29 87 -28 25 -41 30 -65 25 -23 -4
-30 -2 -30 10 0 9 8 15 18 15 9 -1 29 1 44 5 28 7 38 1 78 -50 17 -22 24 -25
38 -16 37 24 -6 113 -54 113 -8 0 -14 5 -14 10 0 6 4 10 9 10 13 0 81 92 75
101 -13 21 19 6 54 -25z m-1518 9 c7 -8 19 -15 26 -15 15 0 17 -10 8 -34 -10
-26 -44 -18 -76 16 l-30 33 23 6 c35 10 36 10 49 -6z m771 -60 c12 -26 27 -45
41 -48 12 -4 19 -9 15 -13 -17 -18 -97 59 -97 93 0 34 18 19 41 -32z m97 41
c15 -8 39 -19 55 -25 31 -12 40 -56 10 -47 -10 2 -37 7 -60 11 -44 7 -56 16
-67 53 -6 18 -4 22 14 22 12 0 34 -6 48 -14z m-1458 -35 c0 -23 -49 -59 -101
-74 -30 -9 -65 -27 -76 -39 -23 -25 -43 -86 -43 -133 0 -20 -11 -41 -37 -67
-20 -21 -42 -38 -48 -38 -6 0 -22 -11 -34 -24 -20 -21 -21 -27 -10 -48 17 -32
28 -38 78 -38 41 0 48 4 114 71 67 68 71 71 108 66 41 -5 58 6 116 76 25 32
63 36 63 8 0 -11 -23 -36 -55 -60 -38 -29 -55 -49 -55 -64 0 -28 17 -47 42
-47 10 0 17 -3 17 -7 -7 -43 27 -58 74 -34 20 10 48 21 63 24 21 4 24 2 12 -9
-25 -25 -159 -95 -169 -88 -6 3 -26 6 -45 6 -19 0 -34 4 -34 9 0 5 -24 9 -53
9 -30 0 -57 3 -61 8 -12 11 -399 30 -413 20 -13 -10 -49 4 -55 22 -2 7 -58 11
-152 11 -142 0 -148 1 -125 16 13 9 27 21 31 27 13 20 39 139 31 147 -4 4 -28
-1 -52 -12 -33 -15 -41 -22 -33 -32 8 -10 7 -21 -4 -43 -18 -35 -64 -84 -78
-84 -6 0 -36 -13 -67 -29 -49 -24 -59 -26 -75 -14 -11 8 -29 11 -43 8 -16 -4
-27 0 -37 12 -21 29 -17 40 30 72 40 28 54 31 143 36 67 4 102 10 113 20 10
11 11 15 2 15 -7 0 -11 4 -8 9 4 5 0 12 -6 15 -20 8 20 35 77 51 28 8 75 15
105 16 65 2 138 27 200 69 25 16 48 30 51 30 3 0 -5 -22 -18 -50 -19 -40 -29
-50 -49 -50 -59 0 -91 -50 -63 -102 9 -17 17 -19 50 -14 22 4 57 17 77 30 20
13 47 26 59 30 38 12 71 45 79 78 13 64 77 142 106 132 11 -3 35 4 56 16 52
31 202 61 202 41z m1937 -6 c3 -9 3 -19 -1 -22 -8 -9 -37 18 -30 28 8 14 24
11 31 -6z m-1222 -4 c7 -12 -31 -25 -46 -15 -8 4 -7 9 2 15 18 11 36 11 44 0z
m955 -1 c0 -5 -4 -10 -10 -10 -5 0 -10 5 -10 10 0 6 5 10 10 10 6 0 10 -4 10
-10z m223 -19 c5 -21 0 -31 -17 -31 -22 0 -37 17 -30 33 9 23 41 21 47 -2z
m-110 -13 c-13 -6 -23 -17 -23 -25 0 -8 -6 -21 -14 -28 -12 -12 -16 -11 -30 4
-25 27 -19 37 27 48 56 14 67 14 40 1z m-793 -19 c0 -4 -17 -11 -37 -14 -21
-4 -52 -10 -70 -15 -48 -12 -61 9 -17 28 18 9 23 9 18 1 -7 -11 25 -5 55 11
16 9 51 1 51 -11z m600 1 c0 -5 -7 -7 -15 -4 -8 4 -12 10 -9 15 6 11 24 2 24
-11z m-800 -10 c0 -5 -9 -14 -19 -20 -25 -13 -38 5 -14 19 23 13 33 14 33 1z
m784 -52 c-3 -5 2 -18 12 -29 14 -16 26 -19 52 -14 40 7 61 -10 80 -65 7 -19
21 -43 31 -55 31 -35 32 -51 3 -65 -15 -8 -34 -12 -44 -11 -9 1 -19 -3 -23 -9
-10 -16 -21 -12 -22 11 -1 12 -4 23 -7 26 -10 10 -45 -18 -49 -39 -2 -13 -3
-2 0 25 4 53 -14 64 -41 26 -13 -20 -14 -20 -19 -2 -3 15 -6 13 -15 -10 -7
-16 -12 -42 -12 -58 0 -19 -4 -28 -11 -24 -6 5 -8 31 -3 74 5 57 3 70 -12 85
-9 10 -18 30 -19 44 -1 15 -6 39 -10 54 -5 21 -3 27 14 33 11 3 25 4 30 0 5
-3 12 -1 15 4 3 4 17 9 31 9 13 0 22 -5 19 -10z m-571 -8 c20 0 30 -7 37 -25
13 -33 36 -42 59 -21 13 11 28 15 47 11 16 -3 53 -6 83 -6 30 1 71 -4 93 -11
33 -10 41 -9 55 5 15 15 18 14 34 -12 17 -29 40 -158 35 -196 -2 -11 -7 -52
-11 -92 -6 -62 -11 -75 -33 -89 -33 -21 -42 -6 -37 61 5 63 7 124 6 153 -2 35
-37 29 -50 -10 -10 -29 -12 -30 -24 -14 -11 15 -17 16 -35 7 -11 -6 -23 -21
-25 -33 -2 -13 -4 0 -3 27 1 38 -3 50 -14 50 -9 0 -16 -11 -18 -30 -2 -16 -8
-34 -13 -40 -6 -6 -7 11 -3 49 6 47 4 58 -7 54 -7 -2 -15 -22 -17 -44 -2 -21
-10 -46 -19 -54 -14 -13 -15 -12 -8 15 11 50 16 107 10 122 -8 23 -35 -4 -35
-36 0 -33 -14 -56 -29 -47 -6 4 -8 24 -4 51 3 24 3 51 -1 60 -10 26 -54 -10
-62 -51 -7 -38 -19 -44 -27 -15 -7 29 -43 16 -56 -20 -5 -16 -15 -29 -21 -29
-6 0 -16 -11 -22 -25 -6 -14 -17 -25 -24 -25 -7 0 -29 -14 -48 -31 -26 -23
-39 -28 -52 -21 -14 8 -10 14 24 42 32 25 39 36 33 52 -4 11 -9 20 -12 21 -3
1 -36 -18 -73 -41 -42 -28 -73 -41 -83 -37 -14 5 -9 13 27 44 42 36 44 40 32
65 -17 38 -35 32 -83 -24 -47 -56 -79 -66 -79 -24 0 17 12 36 35 57 38 33 45
61 19 75 -23 13 48 44 99 44 22 -1 57 6 76 15 20 9 52 18 71 20 19 2 40 6 45
8 6 2 26 2 45 0 19 -3 47 -5 63 -5z m-2303 -51 c0 -10 -7 -19 -15 -19 -16 0
-19 9 -9 34 8 20 24 11 24 -15z m3165 -37 c23 -57 24 -71 2 -78 -12 -4 -23 -2
-25 4 -2 6 -14 26 -26 45 -13 18 -25 45 -28 59 l-5 26 38 -20 c20 -10 40 -27
44 -36z m-1395 -137 c0 -2 -24 -16 -52 -31 -29 -14 -48 -21 -41 -14 6 7 29 21
50 31 46 21 43 20 43 14z m1420 -10 c0 -8 -4 -15 -10 -15 -5 0 -10 7 -10 15 0
8 5 15 10 15 6 0 10 -7 10 -15z m-89 -32 c-9 -16 -10 -14 -11 12 0 21 3 26 11
18 8 -8 8 -16 0 -30z m-3088 -42 c15 -27 15 -31 2 -31 -8 0 -15 4 -15 9 0 5
-13 23 -29 40 -25 27 -27 32 -13 40 17 9 17 10 55 -58z m2589 2 c-2 -21 -8
-48 -14 -59 -8 -18 -13 -20 -34 -10 -31 14 -30 22 4 38 18 9 28 22 30 41 5 42
18 32 14 -10z m-952 17 c-8 -5 -19 -10 -25 -10 -5 0 -3 5 5 10 8 5 20 10 25
10 6 0 3 -5 -5 -10z m-1793 -12 c54 -23 82 -49 93 -86 7 -20 23 -48 36 -62 19
-20 23 -35 21 -75 -2 -48 -3 -50 -54 -80 -29 -16 -83 -49 -120 -71 -37 -23
-97 -56 -131 -74 -54 -27 -68 -31 -88 -21 -13 6 -24 18 -24 26 0 14 -29 74
-66 136 -18 32 -48 60 -76 75 -16 8 -28 18 -28 23 0 13 106 71 129 71 11 0 23
5 26 10 3 6 10 10 16 10 12 0 12 -47 -1 -55 -37 -23 18 -45 129 -51 46 -2 87
-7 92 -10 5 -3 19 0 31 7 l22 12 -25 21 c-13 12 -31 35 -39 51 -24 49 -49 65
-98 65 -29 0 -53 -6 -65 -17 -17 -15 -16 -12 3 15 25 34 92 72 150 83 19 4 36
7 37 8 1 0 15 -4 30 -11z m1901 -49 c-25 -25 -63 -79 -82 -118 -20 -39 -41
-71 -48 -71 -6 0 -21 -8 -32 -17 -20 -17 -20 -17 -6 2 8 10 30 34 48 53 18 19
31 40 29 46 -9 26 -41 16 -81 -26 -23 -23 -50 -50 -61 -58 -44 -34 21 48 80
101 32 30 72 69 88 87 16 17 37 32 47 32 11 0 21 4 25 9 3 6 13 9 23 8 13 -1
5 -13 -30 -48z m1416 16 c-7 -18 -8 -18 -14 1 -9 23 -1 39 11 27 6 -6 6 -18 3
-28z m-1579 15 c-3 -5 -12 -10 -18 -10 -7 0 -6 4 3 10 19 12 23 12 15 0z m595
0 c0 -5 -5 -10 -11 -10 -5 0 -7 5 -4 10 3 6 8 10 11 10 2 0 4 -4 4 -10z m-630
-14 c0 -9 -61 -48 -67 -43 -3 3 10 15 28 26 36 22 39 23 39 17z m381 -22 c8
-8 27 -14 42 -14 14 0 37 -5 51 -12 21 -9 24 -14 14 -25 -7 -8 -14 -33 -17
-56 l-6 -41 -50 3 c-27 1 -54 7 -60 12 -5 5 -17 9 -27 9 -35 0 -119 22 -116
31 2 4 23 33 48 63 40 48 48 53 75 49 17 -3 37 -12 46 -19z m-1608 -64 c-76
-70 -79 -71 -79 -52 -1 9 -3 22 -5 28 -2 6 19 29 46 52 45 36 51 38 63 24 11
-14 7 -22 -25 -52z m2119 16 c54 -25 107 -55 119 -67 11 -11 35 -27 52 -34 72
-30 137 -102 137 -151 0 -7 -12 -28 -28 -46 -15 -18 -34 -45 -41 -60 -17 -34
-27 -35 -34 -6 -7 26 7 54 33 68 11 6 20 18 20 27 0 17 -28 53 -41 53 -4 0
-21 12 -37 28 -65 60 -238 172 -267 172 -6 0 -19 9 -28 21 -14 16 -26 19 -53
16 -19 -3 -40 -9 -47 -15 -6 -5 -38 -17 -69 -26 -31 -9 -62 -24 -67 -34 -6 -9
-11 -12 -11 -6 0 16 27 36 93 68 31 16 60 33 64 38 13 22 109 0 205 -46z
m-2227 24 c-10 -11 -20 -18 -23 -15 -7 6 18 35 31 35 5 0 2 -9 -8 -20z m3208
-27 c-9 -24 -23 -13 -23 19 0 30 1 30 14 13 8 -11 12 -25 9 -32z m-2806 22
c48 -20 108 -26 298 -29 88 -2 176 -8 195 -13 19 -5 62 -7 95 -3 81 10 101 -2
49 -27 -21 -11 -61 -33 -89 -49 -27 -17 -66 -36 -85 -44 -19 -7 -79 -35 -134
-62 -54 -26 -102 -48 -107 -48 -4 0 -45 -17 -91 -38 -46 -22 -123 -53 -173
-71 -49 -17 -112 -40 -140 -51 -66 -25 -144 -50 -154 -50 -5 0 -11 10 -14 23
-3 12 -16 61 -30 109 -13 48 -21 92 -16 99 4 7 3 22 -1 34 -9 24 4 45 26 45 7
0 19 8 26 18 23 31 116 104 176 138 64 37 113 42 169 19z m973 0 c-18 -22 -80
-58 -87 -51 -8 7 -8 7 47 39 52 31 57 32 40 12z m-1533 -21 c-3 -3 -12 -4 -19
-1 -8 3 -5 6 6 6 11 1 17 -2 13 -5z m1372 -12 c-37 -28 -251 -149 -279 -157
-14 -5 -41 -18 -60 -30 -19 -12 -51 -27 -70 -34 -19 -6 -44 -21 -57 -33 -13
-12 -26 -18 -30 -15 -3 4 -40 -11 -80 -33 -41 -22 -85 -40 -97 -40 -22 0 -80
-21 -151 -55 -65 -31 -368 -148 -415 -160 -8 -3 -50 -14 -93 -25 -43 -11 -82
-18 -87 -15 -5 3 -26 -1 -47 -9 -21 -8 -81 -20 -133 -26 -52 -6 -112 -13 -133
-16 -31 -5 -36 -3 -31 10 4 10 13 14 23 12 9 -3 43 1 76 8 33 8 63 12 66 10 4
-2 45 5 91 17 128 32 169 39 181 32 5 -3 7 -1 4 4 -4 6 5 14 21 17 44 11 135
37 157 46 11 5 34 11 50 15 47 10 285 102 390 150 39 18 81 36 95 40 14 4 99
44 190 87 91 44 176 84 190 91 14 6 41 21 60 32 19 12 51 27 70 35 19 8 51 24
70 37 41 27 63 31 29 5z m-1729 -1 c0 -6 -5 -13 -10 -16 -8 -5 -8 -11 0 -20
14 -17 0 -26 -28 -18 -27 7 -27 10 1 39 23 25 37 30 37 15z m3176 -1 c26 0 32
-18 12 -38 -9 -9 -15 -8 -27 2 -9 8 -30 22 -46 31 l-30 17 34 -6 c18 -3 44 -6
57 -6z m259 -60 c35 -13 31 -20 -10 -20 -28 0 -37 5 -45 24 -5 13 -14 27 -21
32 -9 5 -7 11 7 21 17 13 20 11 32 -17 7 -17 23 -35 37 -40z m-2959 4 c7 -26
-22 -104 -38 -104 -20 0 -78 56 -78 76 0 28 21 46 40 34 22 -14 40 -12 40 5 0
25 29 17 36 -11z m2600 3 c40 -24 74 -55 74 -70 0 -8 9 -26 21 -41 17 -21 18
-26 5 -26 -9 0 -16 -4 -16 -10 0 -5 5 -10 10 -10 6 0 10 -6 9 -12 -3 -26 1
-38 15 -38 14 0 32 -48 22 -58 -8 -7 -37 19 -31 28 7 11 -65 4 -76 -7 -6 -6
-1 -21 12 -39 19 -26 18 -25 -11 5 -28 28 -31 35 -17 42 42 24 26 144 -24 181
-16 12 -26 25 -23 30 3 5 2 8 -3 7 -20 -3 -25 2 -13 16 15 18 19 18 46 2z
m669 3 c4 -6 -5 -20 -19 -31 -14 -11 -26 -27 -26 -35 0 -8 -4 -14 -10 -14 -13
0 -13 46 0 71 11 20 45 26 55 9z m-503 -30 c-2 -16 -1 -42 2 -56 6 -23 11 -26
36 -20 39 7 38 3 -6 -23 -41 -24 -62 -28 -46 -8 13 16 4 59 -11 50 -6 -4 -7 7
-2 33 5 31 17 51 31 54 0 0 -1 -13 -4 -30z m88 5 c0 -8 -2 -15 -4 -15 -2 0 -6
7 -10 15 -3 8 -1 15 4 15 6 0 10 -7 10 -15z m310 7 c0 -13 -12 -22 -22 -16
-10 6 -1 24 13 24 5 0 9 -4 9 -8z m-1887 -12 c12 0 -2 -13 -83 -80 -30 -25
-67 -58 -84 -74 -16 -16 -66 -55 -110 -88 -45 -32 -88 -65 -96 -71 -25 -20
-120 -77 -128 -77 -5 0 -30 -14 -58 -31 -89 -57 -159 -88 -321 -143 -87 -29
-169 -58 -181 -65 -18 -10 -22 -8 -34 16 -11 23 -21 29 -56 31 -39 3 -42 5
-42 31 0 25 7 31 55 51 30 12 59 28 66 36 6 8 22 14 34 14 12 0 42 11 66 24
24 13 55 27 69 31 41 11 256 103 377 161 62 30 116 54 119 54 8 0 205 100 304
154 36 19 71 33 78 31 8 -3 19 -5 25 -5z m-2121 -17 c10 -9 18 -22 18 -30 0
-7 11 -19 25 -25 36 -16 102 -108 134 -186 27 -68 29 -92 8 -92 -10 1 -92 151
-92 168 0 13 -83 92 -100 95 -11 2 -27 7 -35 10 -8 4 -34 5 -58 4 -37 -2 -41
-1 -26 10 10 7 25 13 34 13 9 0 27 11 40 25 28 30 28 30 52 8z m3923 -9 c19
-30 15 -42 -8 -19 -9 8 -20 15 -25 15 -5 0 -15 7 -22 15 -11 13 -9 15 13 15
16 0 31 -9 42 -26z m-265 -5 c0 -6 -4 -7 -10 -4 -5 3 -10 11 -10 16 0 6 5 7
10 4 6 -3 10 -11 10 -16z m-1095 -13 c60 -8 112 -14 115 -14 19 2 73 -17 83
-31 7 -9 25 -23 41 -31 28 -14 28 -15 21 -85 -10 -106 -22 -154 -69 -275 -51
-134 -113 -235 -193 -317 -32 -32 -83 -86 -114 -119 -115 -121 -237 -218 -409
-329 -41 -26 -86 -55 -100 -64 -22 -15 -59 -33 -155 -76 -40 -18 -127 -44
-167 -50 -56 -9 -161 -15 -169 -10 -4 3 -1 33 8 68 8 34 12 82 9 107 -9 79
-64 227 -111 300 -57 88 -81 110 -119 111 l-31 1 34 14 c18 8 56 19 84 24 27
6 55 14 61 19 6 5 22 12 36 16 14 4 90 39 170 78 146 70 273 151 321 203 14
16 67 63 117 104 51 41 121 102 155 135 70 68 167 188 167 208 0 27 24 39 65
33 22 -4 89 -13 150 -20z m1145 9 c0 -8 -4 -15 -10 -15 -5 0 -7 7 -4 15 4 8 8
15 10 15 2 0 4 -7 4 -15z m128 -24 c52 -27 112 -85 112 -109 0 -11 7 -25 15
-32 8 -7 15 -19 15 -26 0 -18 58 -54 76 -47 19 7 74 -28 74 -48 0 -9 7 -20 16
-23 34 -13 4 -17 -33 -5 -68 23 -183 114 -229 181 -27 39 -51 47 -72 26 -17
-17 -15 -58 2 -58 8 0 29 -17 46 -37 29 -36 30 -38 9 -41 -11 -2 -41 2 -66 10
-35 10 -51 22 -74 57 -33 50 -37 86 -13 119 12 18 53 43 82 51 1 1 19 -8 40
-18z m279 -3 c-3 -8 -6 -5 -6 6 -1 11 2 17 5 13 3 -3 4 -12 1 -19z m-1997 -37
c-43 -43 -50 -72 -25 -108 10 -15 22 -20 33 -16 13 5 11 -1 -7 -20 -29 -32
-41 -34 -41 -7 0 11 -7 23 -15 26 -14 6 -79 -6 -120 -21 -11 -4 -5 5 15 21 19
16 51 44 70 63 41 41 112 99 122 100 4 1 -11 -17 -32 -38z m1897 -7 c-2 -2
-12 -1 -22 3 -18 6 -18 7 1 13 17 7 33 -5 21 -16z m-3307 -1 c0 -5 -4 -13 -8
-18 -10 -14 -121 -97 -150 -112 -13 -7 -59 -40 -103 -73 -44 -33 -83 -60 -87
-60 -4 -1 -23 -14 -42 -30 -19 -17 -43 -30 -53 -30 -10 0 -27 -4 -37 -10 -13
-7 -21 -6 -29 4 -10 11 -5 17 26 27 57 18 153 90 153 113 0 10 39 35 183 120
17 11 52 32 76 48 43 27 71 36 71 21z m3405 -2 c19 -8 19 -8 -1 -19 -12 -6
-26 -7 -34 -2 -8 5 -18 6 -22 4 -4 -3 -8 -1 -8 4 0 22 27 28 65 13z m-1915
-24 c0 -7 -13 -28 -30 -47 l-29 -35 -1 29 c0 16 9 38 22 51 23 24 38 24 38 2z
m-2176 -95 c20 -33 36 -64 36 -69 0 -6 11 -22 25 -37 14 -15 23 -31 20 -36 -3
-5 2 -16 12 -25 16 -16 16 -18 0 -30 -25 -18 -21 -42 13 -61 16 -10 25 -21 19
-24 -5 -4 -35 17 -65 47 -31 29 -59 53 -63 53 -27 0 -135 -36 -180 -60 -94
-51 -161 -49 -145 4 6 20 5 20 -12 5 -11 -8 -31 -20 -46 -27 -24 -10 -28 -9
-28 4 0 8 -6 27 -14 43 -15 28 -7 59 12 47 6 -3 22 -1 36 5 23 11 31 9 62 -14
20 -14 43 -23 50 -20 13 5 19 42 14 88 -2 26 -39 65 -60 65 -9 0 -25 6 -36 14
-19 14 -19 15 1 22 54 18 163 70 189 89 l30 21 47 -22 c36 -18 55 -36 83 -82z
m2881 99 c3 -5 1 -12 -5 -16 -5 -3 -10 1 -10 9 0 18 6 21 15 7z m-2077 -21
c-7 -11 -16 -20 -20 -20 -5 0 -8 9 -8 20 0 13 7 20 20 20 18 0 19 -2 8 -20z
m3347 -46 c7 -40 4 -47 -16 -39 -12 5 -17 36 -11 68 5 20 21 3 27 -29z m-3434
-9 c5 -16 10 -59 13 -95 2 -36 5 -70 6 -75 2 -6 2 -20 1 -32 -1 -23 -18 -28
-226 -62 -220 -36 -205 -36 -205 -4 0 24 14 38 95 96 52 37 98 67 103 67 5 0
17 9 28 21 10 12 32 28 49 36 16 9 45 31 65 49 41 40 61 40 71 -1z m2154 15
c3 -5 1 -10 -4 -10 -6 0 -11 5 -11 10 0 6 2 10 4 10 3 0 8 -4 11 -10z m-2043
-145 c2 -41 -2 -65 -11 -65 -4 0 -8 12 -7 28 0 15 -3 59 -7 97 l-6 70 15 -55
c8 -30 16 -64 16 -75z m2907 30 c24 -12 50 -16 88 -13 50 4 53 3 53 -18 0 -14
-12 -31 -30 -44 -40 -29 -55 -57 -39 -76 13 -16 75 -19 84 -4 4 6 15 8 26 5
12 -4 36 2 59 14 l39 20 -25 -36 c-27 -41 -28 -44 -13 -97 8 -28 7 -46 -1 -67
-15 -36 -28 -37 -40 -4 -11 30 -37 42 -53 26 -9 -9 -8 -17 1 -32 8 -12 11 -23
8 -26 -2 -3 4 -25 15 -50 24 -57 24 -71 -1 -48 -11 10 -18 20 -16 24 2 3 -5
24 -15 46 -11 22 -23 60 -26 85 -4 27 -26 81 -56 133 -41 72 -55 89 -78 94
-24 5 -28 9 -23 29 5 19 1 24 -19 30 -14 3 -30 4 -34 1 -5 -3 -9 20 -11 51
l-2 57 37 -42 c21 -23 53 -49 72 -58z m-825 69 c18 -18 21 -34 6 -34 -5 0 -10
7 -10 15 0 8 -4 15 -10 15 -5 0 -10 5 -10 10 0 14 6 13 24 -6z m-1041 -55
c-24 -41 -38 -51 -65 -47 -20 3 -17 7 27 40 28 20 51 37 53 37 2 1 -5 -13 -15
-30z m1057 -27 c11 -13 20 -28 20 -32 0 -5 -18 -27 -40 -49 -34 -33 -40 -46
-40 -81 0 -32 -6 -46 -26 -64 l-27 -22 22 -21 23 -21 -34 1 c-30 2 -35 -2 -55
-43 -29 -55 -29 -84 -2 -111 15 -15 29 -20 49 -16 15 3 36 4 47 1 20 -5 20 -8
7 -52 -8 -25 -25 -58 -38 -72 -19 -20 -22 -31 -16 -58 4 -18 15 -41 25 -52 20
-22 11 -43 -15 -35 -10 3 -21 1 -25 -5 -3 -5 -10 -10 -15 -10 -9 0 -1 40 12
57 5 7 5 14 -2 18 -15 9 -12 48 4 71 13 17 12 22 -12 47 -39 41 -84 37 -129
-10 -19 -21 -46 -49 -59 -63 -13 -14 -24 -33 -24 -43 0 -13 -9 -17 -39 -17
-31 0 -44 -6 -60 -26 -25 -31 -26 -93 -2 -102 9 -3 20 -12 25 -20 6 -10 18
-12 42 -7 23 4 34 2 34 -6 0 -17 60 -3 80 19 9 9 21 26 27 36 6 11 22 20 37
22 23 2 25 0 16 -17 -6 -10 -8 -19 -4 -19 3 0 1 -7 -6 -15 -15 -18 -6 -45 16
-45 11 0 14 -5 9 -17 -4 -10 -13 -37 -21 -59 -8 -23 -20 -54 -28 -68 l-13 -27
-7 32 c-12 61 -8 89 13 89 11 0 22 4 25 9 10 15 -5 41 -23 41 -9 0 -22 5 -28
11 -15 15 -38 0 -121 -79 -35 -33 -76 -65 -92 -72 -28 -12 -30 -16 -30 -71 0
-43 -4 -59 -13 -59 -21 0 -50 -37 -44 -55 4 -8 1 -15 -6 -15 -7 0 -28 -14 -47
-31 -19 -18 -36 -27 -38 -20 -5 14 -49 15 -57 0 -5 -6 -11 -4 -19 7 -10 13
-17 14 -34 5 -12 -6 -22 -15 -22 -20 0 -4 -15 -8 -33 -9 -29 -1 -102 -30 -175
-71 -19 -10 -21 -15 -11 -27 9 -11 8 -14 -2 -14 -8 0 -22 -7 -32 -14 -15 -12
-17 -18 -7 -36 7 -12 18 -19 26 -16 16 6 17 4 8 -17 -4 -11 -15 -14 -38 -10
-29 5 -37 1 -61 -31 -15 -20 -25 -42 -22 -50 5 -13 -20 -46 -26 -35 -1 2 -12
15 -23 29 -12 14 -25 36 -29 49 l-7 24 27 -21 c30 -24 55 -16 55 17 -1 23 -27
54 -42 49 -7 -3 -19 2 -26 9 -17 17 -94 13 -100 -5 -2 -6 4 -12 13 -12 13 0
15 -7 9 -35 -4 -23 -2 -41 6 -50 16 -19 9 -27 -30 -31 -42 -5 -70 -21 -71 -42
-1 -29 -28 40 -29 75 0 41 19 83 35 77 7 -3 15 2 19 11 4 10 2 14 -5 9 -6 -4
-14 -3 -18 2 -3 5 -16 15 -29 22 -26 14 -52 2 -52 -24 0 -8 -4 -14 -10 -14 -5
0 -10 13 -10 28 0 15 -4 32 -9 38 -5 5 -11 47 -13 94 -2 47 -8 94 -13 105 -8
17 -7 18 7 7 17 -13 121 -15 148 -2 26 13 84 29 127 36 24 4 48 13 54 20 6 8
21 14 34 14 12 0 33 10 47 23 13 12 33 23 44 23 27 0 224 125 224 142 0 9 7
11 20 7 14 -4 22 -1 26 10 4 9 17 21 30 26 13 5 23 12 22 16 -2 5 2 10 7 12
38 14 205 152 205 169 0 6 7 12 15 12 8 0 15 7 15 15 0 8 8 15 19 15 18 0 60
49 44 51 -5 0 2 4 15 9 12 5 22 17 22 27 0 10 10 23 23 28 12 6 22 17 22 25 0
8 12 23 28 32 15 10 27 21 27 26 0 4 18 29 40 56 22 26 38 52 35 56 -3 4 2 13
10 20 17 14 45 67 45 86 0 7 4 14 8 16 16 6 41 73 31 83 -14 14 -11 25 7 25
12 0 15 6 10 25 -4 16 -2 24 4 23 12 -3 39 64 40 97 l1 20 14 -20 c8 -11 24
-31 35 -43z m-903 20 c9 -6 0 -18 -30 -40 -23 -18 -82 -66 -132 -107 -49 -41
-94 -75 -99 -75 -5 0 -17 -6 -25 -13 -9 -8 -42 -28 -74 -46 -55 -30 -57 -31
-42 -8 22 34 6 44 -84 53 l-74 7 37 15 c21 8 49 24 61 36 13 12 40 30 62 41
21 10 49 27 62 37 36 27 37 14 3 -23 -35 -37 -51 -97 -30 -110 34 -22 58 -4
58 45 0 22 33 66 49 66 5 0 14 -7 21 -15 21 -26 54 -14 65 23 5 17 14 32 20
32 5 0 23 16 38 35 15 19 36 35 47 35 10 0 22 5 25 10 7 12 25 13 42 2z m818
-2 c3 -5 1 -10 -4 -10 -6 0 -11 5 -11 10 0 6 2 10 4 10 3 0 8 -4 11 -10z m451
-57 c-6 -50 -43 -143 -66 -167 -15 -15 10 78 31 112 10 18 22 51 25 73 10 60
18 46 10 -18z m123 13 c-2 -2 -14 -9 -26 -15 -19 -10 -23 -9 -23 4 0 10 9 15
27 15 14 0 24 -2 22 -4z m46 -6 c19 -8 19 -9 -2 -9 -12 -1 -25 4 -28 9 -7 12
2 12 30 0z m479 -19 c-17 -10 -43 -34 -57 -52 -14 -18 -30 -30 -34 -25 -10 10
86 96 107 96 8 0 1 -9 -16 -19z m-304 -26 c0 -20 7 -50 16 -67 21 -41 53 -158
44 -158 -13 0 -48 66 -65 122 -17 58 -20 138 -5 138 6 0 10 -16 10 -35z m390
18 c0 -12 -71 -55 -78 -48 -4 4 7 18 23 31 29 23 55 31 55 17z m81 -13 c10 0
19 -4 19 -8 0 -4 -18 -8 -40 -7 -22 0 -40 3 -40 6 0 12 14 19 28 14 7 -3 22
-5 33 -5z m-648 -22 c18 -9 27 -21 27 -37 0 -16 4 -21 14 -18 10 4 15 -4 18
-24 4 -25 1 -29 -19 -29 -14 0 -34 -5 -45 -11 -13 -7 -24 -7 -30 -1 -13 13 12
52 30 45 10 -4 13 2 10 23 -3 32 -38 45 -64 24 -11 -10 -14 -9 -14 7 0 36 25
43 73 21z m-513 -13 c0 -3 -9 -15 -20 -27 -22 -24 -26 -18 -10 13 10 17 30 27
30 14z m1167 -36 c2 -31 2 -31 -17 -14 -20 18 -21 17 -45 -5 -14 -13 -25 -18
-25 -11 0 17 50 61 69 61 11 0 17 -10 18 -31z m-1135 -81 c-2 -9 -15 -24 -28
-33 -25 -16 -29 -12 -26 34 0 8 -4 25 -9 39 -8 20 -7 23 6 18 8 -3 20 1 27 8
11 11 15 8 23 -18 6 -17 9 -39 7 -48z m-3032 62 c0 -5 -4 -10 -10 -10 -5 0
-10 5 -10 10 0 6 5 10 10 10 6 0 10 -4 10 -10z m3075 -10 c3 -5 1 -10 -4 -10
-6 0 -11 5 -11 10 0 6 2 10 4 10 3 0 8 -4 11 -10z m-3135 -10 c0 -12 -28 -25
-36 -17 -9 9 6 27 22 27 8 0 14 -5 14 -10z m370 -19 c0 -12 -11 -23 -31 -30
-17 -6 -40 -21 -50 -32 -15 -17 -19 -18 -19 -6 0 22 61 87 82 87 11 0 18 -7
18 -19z m-339 -27 c-61 -27 -65 -28 -55 -13 9 15 64 38 89 38 11 0 -4 -11 -34
-25z m3381 -6 c-8 -8 -9 -4 -5 13 4 13 8 18 11 10 2 -7 -1 -18 -6 -23z m488
-14 c11 -25 20 -58 19 -72 0 -19 -7 -9 -24 38 -26 68 -29 80 -20 80 3 0 15
-21 25 -46z m-3995 9 c-11 -7 -22 -13 -27 -13 -14 0 -8 19 9 29 25 13 40 1 18
-16z m1621 -6 c-38 -28 -94 -49 -101 -37 -3 5 11 14 32 20 21 6 49 17 63 25
37 21 39 18 6 -8z m2698 15 c-6 -4 -13 -15 -17 -24 -3 -9 -24 -26 -47 -38 -40
-20 -54 -14 -24 11 8 7 13 21 10 31 -4 17 0 18 24 13 16 -3 31 -2 35 4 3 6 12
11 18 11 8 0 9 -3 1 -8z m-4056 -15 l23 -13 -26 -14 c-26 -14 -64 -70 -48 -70
5 0 0 -6 -9 -14 -18 -13 -74 -10 -84 6 -3 5 0 15 6 23 6 8 9 19 5 25 -11 17
-35 11 -61 -15 -30 -30 -34 -31 -34 -4 0 21 50 49 88 49 10 0 36 9 58 20 46
23 52 23 82 7z m782 0 c0 -20 -39 -57 -60 -57 -39 0 13 69 53 70 4 0 7 -6 7
-13z m2540 9 c0 -3 -4 -8 -10 -11 -5 -3 -10 -1 -10 4 0 6 5 11 10 11 6 0 10
-2 10 -4z m-3660 -16 c0 -5 -4 -10 -9 -10 -6 0 -13 5 -16 10 -3 6 1 10 9 10 9
0 16 -4 16 -10z m3820 -67 c12 -78 30 -126 63 -175 21 -32 20 -33 -19 -13 -44
23 -68 45 -105 100 -54 80 -40 164 27 165 19 0 23 -9 34 -77z m-2867 48 c10
-1 15 -5 12 -11 -7 -12 -95 -14 -95 -2 0 16 14 22 39 18 14 -2 34 -5 44 -5z
m2347 -11 c0 -13 -7 -20 -18 -20 -28 0 -34 11 -14 26 24 19 32 17 32 -6z
m-1741 -13 c-2 -2 -23 -15 -45 -29 -23 -15 -55 -45 -70 -66 -27 -37 -31 -39
-69 -34 -22 2 -45 9 -52 14 -6 5 -29 7 -50 3 l-38 -6 35 14 c19 8 51 20 70 27
19 7 40 16 45 20 6 4 39 17 75 29 36 12 72 25 80 31 12 8 31 5 19 -3z m1911
-27 c-7 -17 -15 -28 -18 -26 -2 3 1 19 8 36 7 17 15 28 18 26 2 -3 -1 -19 -8
-36z m-1630 20 c8 -5 12 -11 10 -13 -16 -13 -183 -78 -188 -73 -14 14 38 62
84 78 57 20 73 21 94 8z m2159 -93 c17 11 23 9 40 -13 l20 -26 -32 -38 c-30
-37 -33 -38 -50 -22 -10 9 -25 30 -33 47 -8 16 -27 50 -43 75 -50 77 -38 90
23 24 49 -53 57 -58 75 -47z m-3299 60 c35 -15 167 -40 205 -39 11 1 30 4 43
7 12 3 22 1 22 -4 0 -14 -89 -21 -185 -14 -49 4 -112 7 -140 7 -49 -1 -50 0
-52 30 -4 49 19 51 107 13z m2490 14 c0 -5 14 -12 30 -16 17 -4 30 -10 30 -14
0 -10 -19 -32 -49 -56 l-24 -20 12 22 c6 12 11 24 11 27 0 14 -32 4 -50 -14
-11 -11 -28 -20 -37 -19 -14 0 -13 3 5 11 31 15 29 42 -3 36 -17 -4 -25 -1
-25 9 0 7 14 16 30 20 17 3 33 10 36 14 7 12 34 11 34 0z m465 -1 c3 -5 -1
-10 -9 -10 -9 0 -16 5 -16 10 0 6 4 10 9 10 6 0 13 -4 16 -10z m-3145 -72 c0
-16 -22 -7 -51 21 -43 43 -35 57 11 20 22 -18 40 -36 40 -41z m517 25 c2 -6
-8 -10 -22 -10 -26 0 -34 12 -12 20 16 7 30 3 34 -10z m3325 -34 c18 -36 21
-49 11 -45 -8 3 -21 6 -30 6 -18 0 -73 57 -73 76 0 9 12 14 34 14 30 0 36 -5
58 -51z m-908 3 c-5 -35 -3 -41 26 -65 17 -15 44 -28 58 -28 27 -1 26 -1 -3
-8 -17 -3 -34 -15 -40 -28 -5 -12 -24 -30 -42 -40 -30 -16 -33 -16 -51 0 -10
9 -29 17 -41 17 -21 0 -17 6 28 56 31 34 51 65 51 79 0 24 9 55 16 55 2 0 1
-17 -2 -38z m149 26 c19 -15 37 -75 18 -64 -6 4 -11 17 -11 30 0 14 -9 27 -22
34 -13 6 -18 11 -12 11 5 1 18 -5 27 -11z m-2002 -24 l31 -16 -39 -18 c-54
-26 -105 -41 -112 -34 -5 5 75 84 86 84 2 0 18 -7 34 -16z m2094 -24 c3 -5 1
-10 -4 -10 -6 0 -11 5 -11 10 0 6 2 10 4 10 3 0 8 -4 11 -10z m-2514 -18 c-20
-11 -45 -16 -60 -13 -23 4 -22 6 12 11 20 4 40 10 44 13 3 4 13 7 22 7 9 0 0
-8 -18 -18z m2063 -47 c-13 -27 -22 -39 -18 -25 10 38 37 95 41 84 1 -5 -9
-31 -23 -59z m-2559 21 c66 -3 133 -8 148 -10 16 -2 45 0 65 4 21 5 62 10 92
13 54 5 54 5 30 -11 -40 -27 -101 -96 -98 -112 2 -8 17 -17 33 -20 42 -8 -129
-33 -213 -32 -73 1 -84 6 -56 27 10 8 15 15 10 15 -16 0 37 40 54 40 9 0 30
-16 48 -36 27 -30 34 -34 52 -24 11 6 20 19 20 28 0 10 5 23 12 30 10 10 7 17
-12 36 -23 22 -36 25 -148 30 -67 3 -127 8 -132 11 -27 17 -122 -78 -105 -105
5 -8 -32 -30 -50 -30 -4 0 10 58 20 85 9 22 57 70 77 78 7 2 18 1 23 -3 6 -4
64 -10 130 -14z m3425 -7 c0 -7 -11 -22 -25 -35 -28 -25 -35 -10 -13 26 14 22
38 27 38 9z m-2645 -8 c-24 -22 -275 -95 -275 -80 0 5 -7 9 -15 9 -8 0 -14 -5
-12 -11 1 -6 -3 -13 -10 -16 -28 -10 2 36 36 55 31 18 48 20 107 15 62 -5 71
-3 88 16 13 14 31 21 55 21 21 0 31 -4 26 -9z m2243 -29 c15 -23 15 -23 -14
-15 -16 4 -41 8 -56 8 -32 0 -36 9 -10 24 26 16 63 8 80 -17z m-2634 -35 c1
-8 7 -22 14 -30 10 -12 6 -15 -25 -21 -78 -12 -81 -9 -38 32 43 40 45 41 49
19z m3061 13 c3 -5 1 -10 -4 -10 -6 0 -11 5 -11 10 0 6 2 10 4 10 3 0 8 -4 11
-10z m-310 -16 c13 -9 33 -31 43 -49 15 -25 33 -37 73 -50 30 -10 59 -22 65
-27 7 -5 22 -4 37 3 19 9 34 9 58 0 17 -6 46 -11 62 -11 29 0 29 -1 13 -19
-10 -11 -20 -38 -23 -60 -6 -43 -10 -44 -70 -25 -15 4 -17 34 -3 34 6 0 10 5
10 11 0 5 -4 7 -10 4 -6 -3 -7 1 -4 9 11 28 -20 18 -47 -15 -23 -28 -30 -31
-60 -25 -42 7 -159 113 -159 142 0 11 -7 29 -15 40 -17 22 -20 54 -5 54 6 0
22 -7 35 -16z m476 3 c21 -17 70 -102 63 -110 -4 -3 -23 1 -43 9 -20 9 -62 15
-94 15 -50 -1 -57 1 -55 16 2 15 -4 18 -35 19 -20 0 -43 6 -50 13 -10 11 -4
13 32 8 35 -4 48 -2 57 11 12 16 14 16 26 -1 19 -25 72 -13 65 14 -6 22 10 24
34 6z m-3681 -14 c0 -9 10 -27 21 -40 l22 -22 -29 9 c-16 5 -47 12 -69 16 -35
5 -37 7 -20 16 11 6 24 17 28 25 12 19 47 16 47 -4z m2591 -10 c-12 -20 -14
-14 -5 12 4 9 9 14 11 11 3 -2 0 -13 -6 -23z m-187 -5 c26 -36 20 -71 -14 -92
-32 -18 -31 -41 0 -33 21 5 36 -21 21 -36 -5 -5 -24 -10 -42 -12 -19 -1 -39
-11 -51 -26 l-19 -24 6 25 c4 14 13 30 21 36 18 14 18 28 -1 44 -14 12 -14 15
1 31 10 11 13 25 9 39 -5 15 0 29 16 46 28 30 34 30 53 2z m941 -16 c-6 -7
-35 18 -35 31 0 5 9 2 20 -8 11 -10 18 -20 15 -23z m-323 -1 c14 -3 37 -19 49
-35 l23 -29 -26 17 c-28 18 -69 14 -88 -10 -9 -10 -5 -16 21 -27 l34 -13 -34
-12 c-47 -17 -34 -34 40 -53 80 -21 99 -28 99 -41 0 -6 -8 -7 -17 -3 -64 27
-124 38 -149 26 -39 -17 -25 -33 52 -56 38 -12 89 -33 114 -46 25 -13 62 -30
83 -38 20 -8 37 -19 37 -24 0 -5 -6 -6 -12 -3 -7 3 -32 11 -55 18 -24 7 -43
16 -43 20 0 20 -88 51 -145 52 -77 1 -82 -20 -11 -41 48 -14 100 -42 93 -50
-2 -2 -25 6 -51 17 -55 23 -93 25 -120 5 -25 -19 -14 -31 34 -39 22 -3 59 -18
82 -31 86 -51 131 -67 155 -56 13 6 23 15 23 20 0 14 -41 41 -61 41 -9 0 -24
9 -34 20 -18 19 -9 29 11 11 5 -5 26 -14 46 -20 85 -28 70 -66 -40 -101 -50
-15 -88 -35 -114 -58 -36 -33 -40 -34 -70 -21 -24 10 -33 10 -36 1 -2 -7 -9
-12 -17 -12 -7 0 -18 -6 -24 -14 -14 -16 5 -40 41 -52 19 -6 19 -7 5 -16 -32
-18 -80 27 -72 68 2 10 4 23 4 27 1 5 11 5 22 2 19 -6 21 -4 17 19 -6 30 4 32
46 11 15 -8 39 -15 52 -15 35 0 34 47 -2 60 -33 13 -81 13 -89 0 -11 -18 -23
-11 -30 17 -15 60 -45 68 -94 27 -26 -21 -34 -24 -46 -14 -8 7 -21 10 -29 7
-11 -4 -14 1 -12 21 3 24 8 27 41 28 20 1 41 7 46 15 15 23 6 53 -18 59 -17 4
-20 9 -13 20 5 8 10 25 10 36 0 12 25 70 55 129 30 60 55 115 55 123 0 8 6 12
14 9 8 -3 27 -2 43 3 33 10 67 10 105 1z m116 -124 c14 -15 11 -15 -34 -1 -63
19 -78 34 -24 24 23 -4 49 -15 58 -23z m-858 -6 c0 -17 -10 -42 -24 -58 -20
-23 -28 -26 -42 -17 -21 13 -31 36 -14 32 7 -2 15 3 17 11 4 9 0 11 -16 6 -15
-4 -21 -2 -21 9 0 25 30 46 66 46 31 0 34 -3 34 -29z m1415 9 c2 -4 -6 -5 -19
-3 -15 3 -34 -5 -55 -23 l-33 -27 4 24 c2 18 10 25 31 27 15 2 27 7 27 12 0 9
38 1 45 -10z m-25 -60 c0 -5 -4 -10 -10 -10 -5 0 -10 5 -10 10 0 6 5 10 10 10
6 0 10 -4 10 -10z m-460 -63 c14 -12 21 -19 16 -14 -6 4 -20 7 -32 7 -12 0
-24 7 -28 15 -8 22 15 18 44 -8z m80 -37 c0 -5 -7 -7 -15 -4 -8 4 -15 8 -15
10 0 2 7 4 15 4 8 0 15 -4 15 -10z m190 -20 c0 -5 -6 -10 -14 -10 -22 0 -72
-46 -86 -80 -7 -16 -16 -30 -21 -30 -10 0 -1 22 26 67 24 39 95 79 95 53z
m270 -70 c11 -11 29 -20 40 -20 23 0 24 -4 9 -32 -8 -15 -8 -26 1 -43 7 -12
10 -31 8 -41 -4 -16 -7 -14 -18 11 -7 17 -26 56 -42 88 -31 60 -30 69 2 37z
m-1460 -47 c7 -21 23 -58 37 -82 21 -36 23 -47 14 -67 -6 -13 -8 -37 -5 -54 4
-17 1 -36 -5 -44 -10 -11 -9 -21 4 -46 15 -30 15 -33 -4 -66 -12 -19 -21 -44
-21 -55 0 -75 -98 89 -114 191 -4 24 -11 49 -16 55 -6 7 -11 36 -13 66 -3 53
-2 54 45 97 27 23 53 42 58 42 4 0 14 -17 20 -37z m349 5 c-2 -2 -17 -14 -34
-28 l-30 -25 29 32 c16 18 32 31 34 28 3 -3 3 -6 1 -7z m936 -18 c3 -5 1 -10
-4 -10 -6 0 -11 5 -11 10 0 6 2 10 4 10 3 0 8 -4 11 -10z m-185 -20 c0 -5 -7
-7 -15 -4 -8 4 -12 10 -9 15 6 11 24 2 24 -11z m-621 -103 c19 -39 47 -86 63
-103 l29 -31 -28 -18 c-15 -10 -22 -12 -15 -4 6 7 12 22 12 32 0 16 -5 19 -30
14 -28 -6 -29 -5 -23 23 5 27 3 30 -20 30 -29 0 -56 -35 -64 -86 -3 -18 -13
-39 -21 -46 -13 -11 -15 -10 -9 4 3 9 11 36 17 60 7 23 25 58 41 76 16 18 29
37 29 42 0 20 -42 9 -65 -16 -35 -37 -31 -24 6 22 25 32 28 40 14 42 -21 5
-41 -13 -81 -72 -22 -32 -30 -54 -24 -60 6 -6 -3 -18 -25 -33 -44 -30 -45 -56
-2 -119 32 -49 32 -49 82 -46 28 2 55 8 60 12 6 5 19 2 29 -6 11 -8 34 -14 52
-14 18 0 36 -4 39 -10 3 -5 0 -10 -8 -10 -8 0 -27 -10 -43 -22 -33 -27 -52
-26 -156 9 -69 23 -75 28 -65 44 10 16 5 25 -28 59 -38 39 -40 44 -40 105 0
61 6 78 20 55 17 -27 85 13 121 71 13 21 74 69 87 69 7 0 27 -33 46 -73z m579
44 c12 -8 -3 -10 -60 -11 -81 0 -140 -17 -190 -54 -27 -19 -39 -56 -19 -56 6
0 9 -12 8 -27 -3 -38 34 -44 63 -10 13 15 37 27 63 31 22 4 47 12 54 18 10 8
17 8 25 0 17 -17 -9 -42 -43 -42 -37 0 -82 -18 -74 -29 8 -13 -22 -21 -78 -19
-33 0 -54 -5 -65 -16 -15 -14 -15 -18 -2 -26 8 -5 19 -6 25 -2 5 3 4 -2 -3
-10 -15 -18 -42 -13 -42 7 0 23 -28 24 -62 2 -18 -13 -33 -29 -33 -37 0 -9 -9
-15 -22 -14 -71 2 -83 5 -94 25 -15 29 2 45 31 29 20 -11 26 -8 56 24 38 41
36 41 73 22 32 -17 66 -11 77 12 4 10 9 36 10 59 3 54 45 113 83 114 14 0 42
6 61 13 40 14 131 12 158 -3z m65 -71 c-38 -63 -58 -78 -24 -18 32 58 45 78
53 78 3 0 -10 -27 -29 -60z m-3620 33 c-7 -2 -19 -2 -25 0 -7 3 -2 5 12 5 14
0 19 -2 13 -5z m-46 -9 c-3 -3 -12 -4 -19 -1 -8 3 -5 6 6 6 11 1 17 -2 13 -5z
m3568 -13 c-16 -13 -98 -32 -132 -29 -45 4 -25 19 38 28 77 11 105 11 94 1z
m-3430 -21 c17 -7 14 -9 -13 -9 -20 -1 -31 3 -27 9 7 12 13 12 40 0z m-90 -10
c-11 -5 -33 -9 -50 -9 -26 0 -27 2 -10 9 11 5 34 9 50 9 26 0 27 -2 10 -9z
m2340 -55 c4 -22 18 -60 31 -84 31 -57 30 -60 -8 -20 -24 26 -31 42 -29 66 2
21 -4 38 -19 53 -17 17 -19 24 -9 36 16 19 26 5 34 -51z m1365 55 c0 -5 -5
-10 -11 -10 -5 0 -7 5 -4 10 3 6 8 10 11 10 2 0 4 -4 4 -10z m-849 -37 c-12
-20 -14 -14 -5 12 4 9 9 14 11 11 3 -2 0 -13 -6 -23z m-2648 10 c-7 -2 -19 -2
-25 0 -7 3 -2 5 12 5 14 0 19 -2 13 -5z m3735 -18 c11 -10 9 -14 -13 -19 -31
-8 -57 8 -48 30 6 16 39 10 61 -11z m-3915 8 c9 -8 -48 -43 -69 -43 -14 0 -14
2 -3 16 20 24 60 39 72 27z m3547 -32 c0 -5 -7 -12 -16 -15 -14 -5 -15 -4 -4
9 14 17 20 19 20 6z m436 -55 c-9 -30 -27 -68 -41 -84 -14 -17 -25 -34 -25
-40 0 -5 -27 -34 -60 -64 -57 -54 -113 -88 -142 -88 -8 0 -19 -5 -25 -11 -14
-14 -120 -19 -191 -10 -54 8 -112 48 -112 79 0 14 9 13 77 -11 73 -25 251 26
352 101 90 67 132 108 152 149 28 58 35 48 15 -21z m-1731 35 c3 -10 3 -26 -1
-35 -7 -18 21 -56 41 -56 11 0 75 -107 75 -124 0 -14 -24 -4 -61 26 -30 24
-42 29 -51 20 -9 -9 -6 -17 11 -36 17 -18 19 -26 10 -32 -16 -10 -59 40 -59
69 0 12 7 30 15 40 17 23 9 47 -16 47 -23 0 -25 18 -4 26 23 9 19 44 -5 44
-22 0 -27 15 -7 23 26 11 46 6 52 -12z m1500 -1 c3 -5 1 -10 -4 -10 -6 0 -11
5 -11 10 0 6 2 10 4 10 3 0 8 -4 11 -10z m-3672 -7 c-7 -2 -19 -2 -25 0 -7 3
-2 5 12 5 14 0 19 -2 13 -5z m3422 -3 c-3 -5 -12 -10 -18 -10 -7 0 -6 4 3 10
19 12 23 12 15 0z m172 -12 c-3 -8 -6 -5 -6 6 -1 11 2 17 5 13 3 -3 4 -12 1
-19z m154 9 c-1 -12 -15 -9 -19 4 -3 6 1 10 8 8 6 -3 11 -8 11 -12z m89 4 c0
-5 -7 -11 -14 -14 -10 -4 -13 -1 -9 9 6 15 23 19 23 5z m-1918 -39 c-6 -43 62
-238 99 -287 26 -32 114 -71 180 -80 30 -4 57 -9 61 -12 9 -5 -58 -141 -84
-170 -11 -12 -17 -26 -13 -32 10 -17 -5 -34 -19 -22 -9 8 -18 7 -31 -3 -18
-13 -18 -15 -1 -41 13 -19 15 -30 7 -38 -7 -7 -13 -2 -20 16 -12 31 -19 33
-46 13 -19 -14 -19 -15 -2 -33 9 -11 17 -25 17 -31 0 -6 8 -15 18 -21 13 -7
14 -13 5 -22 -9 -9 -16 -1 -32 35 -21 45 -46 60 -57 33 -6 -16 29 -102 45
-111 6 -4 11 -14 11 -22 0 -29 -18 -12 -49 46 -18 33 -36 60 -40 60 -4 0 -15
-6 -25 -13 -17 -13 -16 -17 23 -74 22 -33 41 -63 41 -67 0 -17 -46 -3 -56 17
-38 78 -51 97 -67 97 -29 0 -31 -27 -5 -73 l25 -44 -46 -20 c-40 -18 -48 -19
-62 -6 -14 12 -21 10 -52 -18 -30 -27 -34 -35 -26 -51 6 -11 8 -22 5 -25 -2
-3 -12 11 -20 31 -16 38 -22 41 -46 26 -12 -8 -12 -14 -1 -45 7 -20 10 -39 7
-42 -10 -11 -34 6 -48 33 -15 32 -27 38 -48 24 -12 -8 -12 -14 3 -45 12 -25
14 -36 5 -33 -7 3 -16 18 -20 36 -10 39 -25 49 -45 29 -12 -11 -13 -22 -5 -51
12 -40 -3 -41 -18 0 -10 25 -38 32 -58 12 -8 -8 -6 -17 8 -36 11 -13 17 -29
14 -34 -8 -12 -34 10 -34 29 0 19 -27 28 -45 13 -10 -8 -11 -18 -4 -36 14 -37
10 -43 -7 -11 -17 31 -26 33 -45 11 -10 -12 -10 -20 -1 -35 9 -13 9 -19 1 -19
-6 0 -13 9 -16 21 -8 28 -47 22 -51 -8 -4 -26 -12 -29 -30 -11 -15 15 -42 -7
-42 -33 0 -21 -11 -24 -26 -9 -15 15 -44 1 -44 -21 0 -15 -6 -19 -27 -17 -20
2 -30 -3 -39 -20 -12 -24 -43 -51 -58 -52 -5 0 -3 7 4 15 14 17 7 45 -13 45
-21 0 -93 -81 -120 -135 -24 -49 -133 -158 -195 -195 -71 -43 -277 -103 -362
-104 -28 -1 -45 -6 -46 -13 -3 -25 -4 -27 -16 -15 -7 7 -21 12 -31 12 -15 0
-18 -5 -13 -25 6 -25 -7 -35 -19 -15 -4 7 -13 7 -26 0 -11 -6 -17 -16 -13 -22
4 -6 -1 -8 -15 -3 -29 9 -45 -3 -30 -21 18 -21 -4 -42 -25 -24 -22 17 -49 5
-41 -19 8 -25 -9 -35 -33 -20 -12 8 -27 9 -38 4 -18 -8 -17 -9 4 -12 12 -3 22
-8 22 -13 0 -17 -19 -21 -40 -8 -18 12 -23 10 -45 -17 -13 -17 -22 -37 -19
-47 5 -18 -18 -38 -24 -20 -2 7 -13 12 -24 12 -17 0 -19 -4 -14 -26 8 -31 -24
-65 -53 -57 -24 6 -36 -14 -20 -33 11 -13 9 -14 -14 -9 -41 11 -52 -3 -26 -31
12 -13 18 -24 12 -24 -6 0 -13 7 -17 15 -5 15 -37 21 -49 8 -4 -4 4 -19 18
-33 l25 -27 -40 -45 c-48 -55 -114 -90 -150 -81 -14 4 -40 15 -57 26 -23 13
-33 15 -33 6 0 -8 -5 -7 -18 4 -10 10 -27 14 -39 11 -15 -4 -26 0 -35 15 -7
12 -18 21 -25 21 -15 0 -17 -26 -3 -35 5 -3 10 -12 10 -18 0 -7 -10 0 -21 16
-21 27 -55 38 -46 14 2 -6 8 -11 13 -10 5 1 10 -15 11 -35 2 -33 1 -35 -9 -14
-6 12 -15 22 -20 22 -4 0 -8 6 -8 13 0 7 -29 42 -65 77 -36 35 -65 68 -65 72
0 4 42 7 92 6 85 -2 97 0 141 26 26 15 47 31 47 35 0 11 98 61 120 61 10 0 23
7 30 15 6 8 22 17 33 21 12 4 56 32 97 62 107 79 294 221 348 264 26 21 75 59
110 84 34 25 62 52 62 59 0 16 67 83 128 128 24 17 71 54 104 81 33 26 74 52
91 57 24 7 37 20 52 51 16 33 33 48 84 76 35 19 74 43 85 54 12 11 34 22 49
25 15 3 33 15 39 26 5 11 35 43 66 71 81 74 124 117 152 151 14 17 61 61 105
99 44 37 92 79 107 92 15 13 37 24 48 24 31 0 62 40 55 72 -5 22 -1 33 20 52
15 14 32 46 39 73 7 26 16 48 22 48 5 0 18 -24 30 -53 25 -64 62 -103 131
-143 57 -33 79 -30 115 14 l16 21 39 -26 c52 -37 89 -49 150 -51 29 -1 48 -6
43 -11 -9 -9 -42 -6 -152 14 -84 14 -143 10 -143 -10 0 -11 18 -17 70 -23 39
-5 87 -13 108 -19 42 -13 47 -13 102 -3 22 5 63 8 90 9 49 1 50 2 48 31 -2 29
-14 42 -87 100 -14 11 -40 39 -58 63 -17 23 -39 42 -47 42 -9 0 -29 21 -45 46
-30 48 -32 68 -24 222 3 45 7 56 28 68 14 7 41 13 60 11 30 -2 35 -5 32 -25z
m143 -7 c0 -13 -6 -30 -12 -37 -21 -20 -16 -58 6 -58 11 0 23 5 26 10 14 23
22 7 14 -27 -5 -23 -4 -39 1 -41 6 -2 10 -10 10 -17 0 -8 14 -25 32 -39 32
-24 32 -25 14 -45 -40 -45 -94 -13 -117 69 -7 25 -16 50 -20 55 -9 12 -32 92
-35 123 -2 19 1 21 21 16 12 -3 26 -1 29 5 13 20 32 11 31 -14z m1614 1 c-16
-16 -58 -25 -59 -13 -1 27 0 29 13 18 10 -8 19 -7 33 3 23 17 33 11 13 -8z
m101 -6 c0 -5 -5 -10 -11 -10 -5 0 -7 5 -4 10 3 6 8 10 11 10 2 0 4 -4 4 -10z
m-60 -5 c0 -2 -10 -10 -22 -16 -21 -11 -22 -11 -9 4 13 16 31 23 31 12z
m-3348 -17 c-9 -9 -15 -9 -24 0 -9 9 -7 12 12 12 19 0 21 -3 12 -12z m3144
-36 c-22 -23 -29 -10 -9 18 11 16 18 19 21 11 2 -7 -3 -20 -12 -29z m-3744
-59 c-16 -32 -37 -74 -46 -93 -11 -22 -15 -26 -11 -10 8 30 25 106 31 137 3
18 38 36 52 27 2 -1 -10 -28 -26 -61z m2558 23 c10 -24 23 -47 29 -50 12 -8
15 -36 4 -36 -8 0 -64 109 -63 123 0 18 12 4 30 -37z m1250 -22 c0 -2 -4 -4
-8 -4 -11 0 -32 46 -25 54 5 5 33 -38 33 -50z m-997 35 c12 -7 24 -13 26 -15
2 -2 -11 -17 -28 -34 -17 -18 -29 -36 -26 -40 3 -5 -12 -37 -33 -72 -22 -35
-56 -97 -76 -138 -21 -41 -44 -86 -52 -100 -8 -14 -31 -61 -51 -105 -20 -44
-44 -92 -54 -107 -11 -14 -19 -32 -19 -40 0 -25 -96 -153 -119 -156 -27 -4
-28 14 -1 28 11 6 23 22 26 35 3 14 10 25 15 25 5 0 9 7 9 15 0 14 24 64 50
105 5 8 19 38 30 65 29 69 41 93 72 148 16 26 28 52 28 57 0 5 15 33 34 62 18
29 50 88 71 131 21 43 41 80 46 82 4 3 10 19 14 35 7 34 8 34 38 19z m600 -58
c-5 -6 -63 51 -63 61 0 5 15 -6 34 -24 18 -18 31 -35 29 -37z m-3296 8 c15
-39 5 -56 -74 -121 -58 -48 -84 -57 -46 -15 11 12 33 49 48 82 44 96 54 103
72 54z m3638 12 c3 -5 1 -12 -5 -16 -5 -3 -10 1 -10 9 0 18 6 21 15 7z m-2355
-33 c0 -5 -4 -8 -10 -8 -5 0 -10 10 -10 23 0 18 2 19 10 7 5 -8 10 -18 10 -22z
m-1167 -42 c4 -9 -7 -22 -29 -35 -36 -22 -36 -12 0 26 12 12 22 22 22 22 1 1
4 -5 7 -13z m3121 8 c26 -10 19 -43 -11 -54 -16 -6 -35 -14 -44 -19 -15 -9
-16 -6 -5 22 6 18 18 37 26 44 18 15 15 14 34 7z m-1462 -19 c0 -5 -5 -11 -11
-13 -6 -2 -11 4 -11 13 0 9 5 15 11 13 6 -2 11 -8 11 -13z m1546 -10 c-3 -3
-9 2 -12 12 -6 14 -5 15 5 6 7 -7 10 -15 7 -18z m-1988 -29 c0 -33 37 -86 60
-86 5 0 10 -7 10 -15 0 -22 -9 -19 -32 10 -23 30 -72 57 -83 47 -5 -4 -5 2 -1
13 5 11 13 32 18 47 13 36 28 27 28 -16z m-1020 30 c0 -2 -9 -6 -20 -9 -11 -3
-18 -1 -14 4 5 9 34 13 34 5z m2125 -16 c9 -15 -27 -100 -42 -100 -23 0 -113
22 -113 27 0 3 15 23 33 43 27 33 38 38 74 39 23 1 45 -4 48 -9z m327 -20 c37
-27 43 -29 62 -16 12 8 27 10 36 5 8 -4 27 -10 43 -14 15 -3 27 -10 27 -16 0
-7 -7 -8 -17 -4 -24 10 -65 7 -77 -5 -6 -6 -2 -18 12 -33 18 -19 19 -26 9 -43
-7 -12 -20 -37 -31 -55 -10 -19 -36 -55 -57 -80 -22 -26 -39 -52 -39 -58 0
-14 -13 -14 -27 0 -9 9 -20 9 -42 -1 -37 -15 -38 -22 -10 -62 13 -18 18 -33
12 -37 -5 -3 -29 -35 -53 -71 -24 -36 -46 -67 -50 -70 -3 -3 -17 -23 -30 -45
-39 -64 -82 -115 -99 -115 -9 0 -23 -5 -31 -10 -12 -8 -13 -13 -3 -29 10 -16
9 -23 -5 -40 l-17 -21 -42 21 c-49 24 -51 31 -23 59 11 11 20 33 20 51 0 17
11 45 25 63 14 18 25 36 25 40 0 4 11 22 24 39 23 32 136 247 136 261 0 3 12
25 27 49 15 23 42 74 61 112 38 78 82 155 88 155 2 0 23 -14 46 -30z m-902 -1
c0 -5 -7 -9 -15 -9 -9 0 -12 6 -9 15 6 15 24 11 24 -6z m1500 6 c0 -8 -4 -15
-8 -15 -5 0 -9 7 -9 15 0 8 4 15 9 15 4 0 8 -7 8 -15z m-326 -47 c-3 -18 -8
-40 -11 -48 -12 -30 -13 -51 -3 -45 11 7 14 -28 4 -38 -4 -3 -15 4 -25 17 -20
25 -16 54 8 69 8 5 11 17 7 32 -6 25 1 45 16 45 5 0 7 -15 4 -32z m-1355 -19
c-10 -19 -4 -58 10 -72 6 -6 24 -10 41 -10 16 0 30 -1 30 -3 0 -1 -3 -9 -6
-18 -9 -24 -100 37 -124 85 -22 42 -25 53 -11 44 5 -3 12 -1 15 4 4 5 16 4 30
-2 18 -9 22 -16 15 -28z m1646 21 c8 -25 -2 -42 -23 -38 -10 1 -23 -1 -30 -5
-6 -5 -3 8 9 27 24 41 35 45 44 16z m-1475 -20 c18 -16 37 -30 42 -30 20 0 5
-28 -18 -33 -19 -3 -29 2 -41 19 -8 13 -21 24 -29 24 -17 0 -27 17 -20 35 8
23 29 18 66 -15z m1887 -12 c-7 -18 -14 -51 -16 -73 -2 -22 -12 -78 -22 -125
-11 -47 -22 -98 -24 -115 -3 -16 -10 -34 -15 -39 -6 -6 -10 -17 -10 -26 0 -8
-6 -27 -14 -41 -7 -14 -16 -37 -20 -52 -3 -15 -13 -27 -22 -27 -18 0 -18 4 18
100 14 36 25 67 26 70 0 3 3 12 6 20 13 35 37 131 56 223 20 103 25 117 41
117 5 0 3 -14 -4 -32z m-268 0 c15 -40 -7 -190 -64 -435 -3 -13 -10 -23 -16
-23 -8 0 -9 13 -4 43 17 96 25 135 35 182 6 28 13 61 16 75 4 23 11 103 13
158 1 12 3 22 6 22 3 0 9 -10 14 -22z m201 2 c0 -47 -39 -216 -71 -310 -22
-63 -44 -128 -47 -145 -5 -21 -15 -31 -30 -33 -22 -3 -23 -1 -17 55 4 32 10
63 15 68 9 13 25 87 40 190 25 171 26 173 63 178 18 2 35 5 40 5 4 1 7 -2 7
-8z m120 -20 c0 -11 -4 -20 -9 -20 -5 0 -7 9 -4 20 3 11 7 20 9 20 2 0 4 -9 4
-20z m-2533 -8 c-24 -26 -22 -37 19 -82 20 -22 34 -44 30 -47 -4 -4 -20 7 -37
25 -33 35 -31 34 -53 26 -23 -9 -20 -20 15 -64 17 -21 28 -44 24 -50 -9 -14
-31 4 -51 42 -8 15 -21 28 -29 28 -9 0 1 24 32 70 26 39 51 70 56 70 6 0 3 -8
-6 -18z m2026 -17 c-3 -9 -8 -14 -10 -11 -3 3 -2 9 2 15 9 16 15 13 8 -4z
m-1921 -11 c16 4 18 2 9 -7 -6 -6 -11 -19 -11 -29 0 -26 -15 -22 -39 8 -27 34
-27 48 0 33 12 -6 30 -8 41 -5z m652 -41 c20 -18 36 -35 36 -38 0 -10 -31 -5
-83 12 -35 12 -46 19 -32 21 31 6 40 19 24 38 -12 15 -12 16 2 8 9 -5 33 -23
53 -41z m1519 34 c3 -8 1 -20 -4 -28 -6 -10 -9 -7 -9 14 0 29 5 35 13 14z
m-616 -9 c-2 -7 7 -25 21 -40 14 -16 21 -28 14 -28 -6 0 -14 5 -17 10 -10 17
-39 11 -53 -10 -11 -17 -7 -23 33 -52 53 -40 60 -58 9 -23 -39 26 -70 33 -58
13 5 -8 2 -9 -9 -5 -18 7 -60 -30 -54 -47 2 -6 -6 -15 -17 -21 -11 -6 -25 -20
-31 -31 -11 -22 -45 -59 -45 -50 0 9 64 98 120 168 27 33 56 76 65 94 15 32
32 48 22 22z m473 -48 c0 -11 -4 -20 -9 -20 -5 0 -7 9 -4 20 3 11 7 20 9 20 2
0 4 -9 4 -20z m-275 -13 c-4 -15 3 -35 19 -60 33 -49 33 -75 1 -83 -23 -6 -33
-24 -34 -64 -1 -42 -9 -82 -19 -92 -20 -20 -24 -1 -13 52 6 28 11 58 11 65 0
18 -34 20 -48 3 -8 -11 -25 -85 -27 -122 0 -5 -6 -11 -14 -14 -10 -3 -12 1 -9
14 25 87 31 114 26 119 -3 3 -18 1 -33 -5 -20 -8 -25 -15 -20 -28 5 -13 3 -14
-6 -5 -18 18 -55 -4 -67 -41 l-10 -31 -1 31 c-1 26 7 39 46 70 82 69 173 164
179 190 3 13 10 24 15 24 5 0 7 -10 4 -23z m205 -34 l-1 -38 -15 29 c-13 24
-14 30 -2 37 7 5 14 9 16 9 1 0 2 -17 2 -37z m197 15 c-3 -8 -6 -5 -6 6 -1 11
2 17 5 13 3 -3 4 -12 1 -19z m-152 -131 c-22 -109 -36 -157 -48 -157 -5 0 -6
8 -2 18 15 33 45 158 52 217 5 39 9 50 11 32 2 -16 -4 -65 -13 -110z m-2198
70 c34 -50 38 -67 16 -67 -10 0 -27 13 -36 30 -10 17 -22 30 -28 30 -5 0 -4 9
3 20 17 26 19 26 45 -13z m2342 -14 c-5 -21 -16 -71 -24 -112 -8 -41 -18 -77
-21 -80 -4 -3 -4 8 -1 24 3 17 14 71 24 122 9 50 20 90 24 87 4 -2 3 -21 -2
-41z m-2394 -63 c16 -16 25 -33 22 -37 -4 -3 -16 3 -27 15 -12 12 -27 22 -35
22 -16 0 -20 12 -8 23 11 12 18 8 48 -23z m1755 -12 c0 -17 -17 -14 -32 7 -17
23 -17 23 7 11 14 -6 25 -14 25 -18z m375 -34 c-4 -28 -10 -42 -14 -35 -8 12
9 94 17 86 3 -2 1 -25 -3 -51z m-59 18 c-2 -10 -7 -38 -11 -64 -3 -27 -11 -48
-17 -48 -10 0 -3 94 9 127 7 18 25 5 19 -15z m535 -28 c-13 -67 -42 -144 -52
-144 -14 0 -11 17 10 58 10 20 24 61 32 89 16 65 24 62 10 -3z m-2637 -16 c7
-5 7 -11 -2 -20 -11 -11 -15 -10 -23 5 -10 18 -44 23 -53 8 -3 -5 4 -21 15
-36 20 -25 21 -28 5 -43 -16 -16 -18 -15 -34 6 -12 15 -24 21 -35 16 -24 -9
-22 -45 3 -51 25 -7 25 -15 0 -31 -18 -11 -22 -9 -38 18 -20 35 -25 36 -47 13
-16 -16 -16 -18 2 -32 18 -16 38 -51 27 -51 -3 0 -15 12 -28 27 -20 23 -26 25
-39 14 -15 -12 -15 -15 -1 -36 13 -20 13 -27 2 -44 -16 -26 -25 -26 -33 0 -8
23 -24 21 -39 -5 -8 -14 -8 -20 2 -23 12 -5 17 -33 6 -33 -4 0 -12 8 -19 17
-18 25 -47 0 -39 -33 7 -27 -2 -31 -25 -10 -24 22 -50 4 -34 -23 11 -17 10
-21 -7 -26 -10 -3 -33 -22 -50 -42 -17 -19 -52 -51 -76 -69 l-45 -35 -41 30
-41 30 27 11 c24 9 30 7 46 -12 17 -21 20 -22 35 -7 16 16 15 19 -9 55 -14 21
-26 42 -26 46 0 18 16 6 38 -28 22 -34 25 -35 40 -20 15 14 14 19 -6 55 -25
44 -30 77 -6 43 29 -42 63 -23 40 23 -18 34 -10 67 10 40 8 -11 19 -15 33 -10
27 8 27 31 1 38 -11 3 -20 10 -20 15 0 6 8 8 18 5 10 -2 34 5 53 16 19 11 48
28 64 37 17 9 46 28 65 43 19 14 46 26 60 26 20 0 25 5 23 22 -3 23 12 30 67
32 16 0 38 14 60 38 34 37 35 38 49 18 8 -11 20 -23 25 -27z m1710 17 c11 -8
17 -17 14 -21 -4 -3 -16 4 -27 15 -24 24 -15 28 13 6z m-44 -64 c3 -2 -4 -1
-16 3 -24 7 -63 -27 -45 -39 22 -13 10 -25 -11 -13 -13 7 -25 14 -27 15 -1 1
9 18 24 38 27 35 28 35 49 18 12 -10 23 -20 26 -22z m483 -1 c3 -11 1 -20 -4
-20 -5 0 -9 9 -9 20 0 11 2 20 4 20 2 0 6 -9 9 -20z m-413 -20 c0 -5 -4 -10
-10 -10 -5 0 -10 5 -10 10 0 6 5 10 10 10 6 0 10 -4 10 -10z m632 -32 c-8 -8
-9 -4 -5 13 4 13 8 18 11 10 2 -7 -1 -18 -6 -23z m-821 -50 c11 -21 11 -22 -4
-9 -10 7 -17 17 -17 22 0 15 9 10 21 -13z m1039 2 c0 -5 -2 -10 -4 -10 -3 0
-8 5 -11 10 -3 6 -1 10 4 10 6 0 11 -4 11 -10z m-1096 -66 c24 -9 19 -24 -9
-24 -18 0 -23 4 -19 15 7 17 7 17 28 9z m-379 -14 c-12 -19 17 -42 44 -35 24
6 25 6 8 -13 -19 -21 -22 -43 -6 -59 7 -7 7 -17 1 -29 -6 -11 -17 -60 -26
-110 -15 -86 -57 -235 -74 -261 -6 -10 -17 -9 -50 0 -37 11 -40 15 -28 27 8 8
31 64 50 124 35 105 44 188 29 248 -4 17 -70 48 -101 48 -25 0 -101 -66 -114
-99 -6 -14 -14 -41 -17 -60 -3 -19 -12 -36 -20 -39 -27 -9 -5 75 35 136 21 31
42 59 47 61 5 2 3 7 -4 12 -11 7 -10 11 6 23 11 8 24 12 29 9 5 -3 25 -7 45
-8 20 -1 45 -5 56 -8 11 -3 30 -8 43 -12 18 -5 22 -2 22 18 0 25 7 37 22 37 5
0 6 -5 3 -10z m322 -79 c-7 -2 -20 -10 -29 -19 -13 -11 -15 -19 -7 -34 8 -16
5 -28 -15 -59 -14 -21 -26 -44 -26 -51 0 -7 -5 -20 -11 -28 -8 -11 -9 -7 -5
19 5 27 1 40 -16 58 l-21 23 21 0 c15 0 30 14 48 43 40 64 56 80 65 65 5 -8 3
-15 -4 -17z m-460 -52 c20 -8 24 -13 13 -17 -8 -3 -30 -18 -49 -34 -41 -36
-57 -22 -33 28 19 37 27 39 69 23z m278 -91 c29 -26 35 -38 35 -72 0 -44 22
-86 45 -86 11 0 13 -11 9 -49 -2 -28 0 -52 6 -56 17 -11 11 -24 -19 -39 -29
-15 -29 -15 -45 19 -9 19 -21 37 -27 41 -8 4 -7 10 2 16 11 7 10 8 -4 4 -10
-3 -29 1 -43 10 -13 9 -33 14 -45 11 -16 -4 -19 -2 -14 11 12 29 47 155 52
190 3 17 7 32 9 32 3 0 20 -14 39 -32z m-250 -25 c-3 -21 -16 -70 -28 -109
l-21 -72 -81 -8 c-99 -10 -96 -9 -120 -18 -65 -24 -128 -56 -182 -93 -35 -23
-63 -39 -63 -35 0 4 29 37 64 74 35 36 71 76 79 89 16 23 65 56 127 85 19 9
62 29 95 45 33 16 74 40 90 54 41 33 48 31 40 -12z m-1676 -60 c23 -24 27 -43
10 -43 -12 0 -49 38 -49 50 0 17 -29 17 -44 1 -16 -17 -15 -21 9 -49 42 -50
25 -75 -19 -27 -28 30 -43 32 -51 4 -5 -14 0 -27 14 -40 26 -24 26 -31 1 -47
-15 -9 -20 -9 -20 -1 0 7 -11 27 -26 46 -14 18 -21 33 -17 33 5 0 19 10 33 23
110 99 124 109 131 90 4 -10 16 -28 28 -40z m2307 -3 c13 0 24 -4 24 -10 0 -5
-18 -10 -39 -10 -22 0 -42 -4 -45 -8 -2 -4 -19 -9 -37 -10 -18 -1 -48 -12 -66
-23 l-33 -21 0 31 c0 27 4 31 35 37 20 3 38 4 41 1 3 -3 20 1 37 8 18 8 38 12
45 10 8 -3 25 -5 38 -5z m-2505 -156 c22 -20 24 -35 8 -51 -9 -9 -19 -3 -40
24 -28 34 -28 42 -5 72 9 12 12 11 14 -6 2 -12 12 -29 23 -39z m1829 -30 c0
-2 -16 -4 -35 -4 -19 0 -35 4 -35 8 0 4 16 6 35 4 19 -2 35 -6 35 -8z m-1849
-49 c23 6 22 5 -5 -20 l-29 -26 -36 35 -37 36 -34 -29 -35 -28 29 -41 28 -41
-28 -25 c-16 -13 -31 -22 -33 -20 -3 2 5 11 17 20 l22 15 -27 41 -27 40 53 50
52 51 34 -33 c25 -25 38 -30 56 -25z m-81 -66 c0 -6 -4 -7 -10 -4 -5 3 -10 11
-10 16 0 6 5 7 10 4 6 -3 10 -11 10 -16z m-158 -84 c11 -14 26 -25 34 -25 8 0
12 -4 9 -10 -3 -5 -10 -10 -15 -10 -12 0 -60 48 -60 60 0 17 11 11 32 -15z
m-22 -77 c1 -18 -19 -15 -40 7 -15 15 -20 30 -16 42 6 15 10 13 31 -12 13 -17
24 -33 25 -37z m-60 -43 c0 -3 -6 -5 -13 -5 -20 0 -50 37 -42 50 5 8 15 4 31
-14 13 -14 24 -28 24 -31z m-100 -84 c-1 -13 -30 34 -30 48 0 9 7 3 15 -13 8
-15 15 -31 15 -35z m-87 -31 c3 -13 0 -20 -8 -20 -17 0 -28 17 -20 30 10 16
22 12 28 -10z m-73 -25 c0 -8 -4 -15 -10 -15 -5 0 -10 7 -10 15 0 8 5 15 10
15 6 0 10 -7 10 -15z m-62 -33 c2 -7 -3 -12 -12 -12 -9 0 -16 7 -16 16 0 17
22 14 28 -4z m-239 -73 c-25 -19 -41 -23 -52 -13 -8 9 55 42 67 36 5 -3 -2
-13 -15 -23z m4701 0 c0 -13 -7 -19 -24 -19 -27 0 -40 14 -33 34 8 21 57 8 57
-15z m-4635 1 c-3 -5 -11 -10 -16 -10 -6 0 -7 5 -4 10 3 6 11 10 16 10 6 0 7
-4 4 -10z m-45 -60 c0 -5 -4 -10 -10 -10 -5 0 -10 5 -10 10 0 6 5 10 10 10 6
0 10 -4 10 -10z m4570 -65 c0 -17 -2 -18 -24 -9 -23 9 -20 24 4 24 11 0 20 -7
20 -15z m-15 -96 c11 -17 -1 -21 -37 -13 -32 7 -32 8 -8 15 36 10 38 10 45 -2z
m-738 -85 c-3 -3 -12 -4 -19 -1 -8 3 -5 6 6 6 11 1 17 -2 13 -5z m-277 -39
c-7 -9 -15 -13 -19 -10 -3 3 1 10 9 15 21 14 24 12 10 -5z m1120 -1 c0 -2 -9
-4 -20 -4 -11 0 -20 4 -20 9 0 5 9 7 20 4 11 -3 20 -7 20 -9z m-1182 -36 c-6
-17 -69 -48 -98 -47 -15 0 -19 3 -10 6 8 4 21 12 28 20 7 7 22 13 32 13 10 0
22 5 25 10 9 14 28 13 23 -2z m-138 -48 c0 -5 -5 -10 -11 -10 -5 0 -7 5 -4 10
3 6 8 10 11 10 2 0 4 -4 4 -10z m-45 -10 c-3 -5 -14 -10 -23 -10 -15 0 -15 2
-2 10 20 13 33 13 25 0z m-92 -7 c-7 -2 -19 -2 -25 0 -7 3 -2 5 12 5 14 0 19
-2 13 -5z m-110 -14 c-8 -8 -16 -8 -30 0 -16 9 -14 10 12 11 21 0 26 -3 18
-11z m-3163 -9 c0 -5 -4 -10 -10 -10 -5 0 -10 5 -10 10 0 6 5 10 10 10 6 0 10
-4 10 -10z m4430 -214 c0 -2 -7 -6 -15 -10 -8 -3 -15 -1 -15 4 0 6 7 10 15 10
8 0 15 -2 15 -4z M1123 7044 c-8 -21 18 -46 36 -35 10 7 11 13 2 30 -14 25
-29 27 -38 5z M3593 6304 c-3 -9 0 -20 8 -25 23 -14 29 -11 29 16 0 28 -27 35
-37 9z M3009 6392 c-31 -27 -31 -30 -20 -65 7 -20 16 -37 21 -37 4 0 10 -8 12
-18 4 -13 13 -17 34 -16 16 1 35 3 42 3 6 1 12 8 12 16 0 11 -7 14 -24 9 -28
-7 -39 6 -25 26 8 12 12 12 16 3 5 -14 43 -18 43 -5 0 15 -17 31 -43 41 -35
14 -36 41 -1 41 34 0 27 24 -8 28 -18 2 -37 -6 -59 -26z M4036 5787 c-25 -19
-10 -45 33 -56 20 -5 68 -17 107 -26 73 -19 104 -16 104 8 0 15 -61 42 -120
53 -19 4 -47 13 -62 20 -33 17 -40 17 -62 1z M4001 5681 c-8 -5 -11 -16 -8
-25 6 -14 19 -16 69 -14 55 3 63 5 63 23 0 17 -8 20 -55 23 -30 1 -61 -2 -69
-7z M3799 5463 c-13 -15 -12 -15 9 -4 23 12 28 21 13 21 -5 0 -15 -7 -22 -17z
M3780 5421 c0 -5 9 -11 20 -14 24 -6 27 8 4 17 -21 8 -24 8 -24 -3z M4530
4710 c0 -5 5 -10 10 -10 6 0 10 5 10 10 0 6 -4 10 -10 10 -5 0 -10 -4 -10 -10z
M4500 4690 c-8 -5 -12 -12 -9 -15 4 -3 12 1 19 10 14 17 11 19 -10 5z M4545
4580 c-3 -5 -1 -10 4 -10 6 0 11 5 11 10 0 6 -2 10 -4 10 -3 0 -8 -4 -11 -10z
M3710 4470 c0 -5 5 -10 10 -10 6 0 10 5 10 10 0 6 -4 10 -10 10 -5 0 -10 -4
-10 -10z M3550 4021 c0 -6 5 -13 10 -16 6 -3 10 1 10 9 0 9 -4 16 -10 16 -5 0
-10 -4 -10 -9z M3113 3610 c-17 -4 -43 -17 -58 -29 -15 -11 -38 -21 -51 -21
-17 0 -24 -6 -24 -20 0 -16 -7 -20 -32 -20 -36 -1 -78 -29 -78 -54 0 -8 -5
-18 -11 -21 -18 -12 1 -69 34 -97 35 -31 68 -35 110 -14 15 8 27 11 27 5 0 -5
7 -9 15 -9 15 0 28 11 78 69 15 17 33 29 39 25 17 -11 39 25 28 46 -5 9 -5 33
0 55 6 26 5 44 -2 52 -6 7 -7 13 -2 13 5 0 0 7 -10 15 -11 8 -22 15 -25 14 -3
-1 -20 -4 -38 -9z m40 -88 c-6 -26 -59 -50 -75 -34 -16 16 -2 41 20 36 20 -6
47 19 38 35 -4 6 -13 8 -21 4 -18 -6 -19 3 -3 21 11 11 16 8 30 -14 9 -16 14
-37 11 -48z m-178 -51 c11 -5 28 -4 38 1 13 6 19 5 24 -8 3 -9 1 -19 -4 -23
-16 -10 -34 -51 -28 -61 10 -16 -48 -11 -73 6 -27 18 -29 61 -4 80 20 15 20
15 47 5z m135 -31 c12 -8 11 -10 -7 -10 -13 0 -23 5 -23 10 0 13 11 13 30 0z
M2932 3453 c-6 -2 -10 -8 -7 -13 6 -10 45 -1 45 11 0 10 -17 11 -38 2z M3270
3580 c0 -5 7 -10 16 -10 8 0 12 5 9 10 -3 6 -10 10 -16 10 -5 0 -9 -4 -9 -10z
M2642 3382 c-12 -2 -27 -12 -33 -23 -5 -11 -15 -19 -22 -18 -7 1 -25 -4 -42
-11 -16 -7 -43 -12 -60 -11 -35 2 -87 -18 -79 -30 3 -5 14 -9 25 -9 16 0 19
-5 14 -20 -5 -16 -2 -20 15 -20 11 0 23 7 26 15 4 8 12 15 19 15 7 0 15 6 18
13 8 21 19 0 12 -23 -4 -12 -23 -29 -43 -37 -36 -15 -36 -15 -63 18 -23 28
-29 31 -43 20 -14 -12 -14 -16 0 -43 8 -16 30 -36 48 -43 19 -8 36 -23 38 -33
7 -26 76 -36 100 -14 10 8 15 19 12 24 -3 5 5 6 20 2 21 -5 34 3 80 50 31 31
56 64 56 74 0 9 3 26 6 37 10 40 -46 76 -104 67z m8 -57 c-14 -17 -5 -35 16
-35 8 0 13 -4 10 -8 -3 -5 -24 -8 -48 -8 -32 1 -44 5 -46 19 -2 11 3 17 16 17
11 0 25 7 32 15 7 8 17 15 22 15 6 0 5 -6 -2 -15z m-15 -95 c10 -17 -5 -33
-19 -21 -7 6 -16 8 -19 4 -4 -3 -7 -2 -7 4 0 22 33 32 45 13z m-70 -31 c7 -20
-7 -38 -27 -39 -13 0 -19 20 -13 40 8 26 32 26 40 -1z M2826 3253 c-11 -11 -6
-23 8 -23 8 0 17 4 20 9 7 10 -19 23 -28 14z M2605 3122 c-11 -2 -24 -9 -30
-16 -5 -7 -17 -16 -25 -19 -8 -4 3 -5 26 -3 43 3 104 26 104 38 0 7 -34 7 -75
0z M4296 4173 c-11 -11 -6 -23 9 -23 8 0 15 4 15 9 0 13 -16 22 -24 14z M3483
3903 c-20 -8 -15 -33 6 -33 16 0 31 18 31 36 0 5 -21 4 -37 -3z M3937 3623
c-4 -3 -7 -11 -7 -17 0 -6 5 -5 12 2 6 6 9 14 7 17 -3 3 -9 2 -12 -2z M4020
3511 c-8 -5 -12 -11 -10 -13 25 -16 52 -28 63 -28 8 0 31 -11 52 -26 43 -29
79 -29 83 1 5 32 -48 64 -115 71 -32 3 -65 1 -73 -5z M3172 2749 c-19 -7 -21
-12 -12 -29 13 -24 48 -27 57 -4 9 24 -18 44 -45 33z m18 -13 c0 -11 -19 -15
-25 -6 -3 5 1 10 9 10 9 0 16 -2 16 -4z M3126 2681 c-4 -5 -3 -17 0 -26 10
-24 48 -15 52 13 3 18 -1 22 -22 22 -14 0 -27 -4 -30 -9z M2823 2363 c-18 -7
-16 -34 6 -62 12 -16 24 -22 35 -18 20 8 20 31 0 62 -17 26 -20 27 -41 18z
M3277 1770 c6 -22 21 -35 30 -27 2 3 2 15 -2 26 -8 28 -35 28 -28 1z M3700
8718 c-14 -6 -85 -28 -159 -49 -73 -22 -150 -46 -170 -55 -20 -9 -51 -22 -69
-30 -18 -8 -39 -14 -48 -14 -8 0 -47 -16 -87 -35 -39 -19 -84 -35 -99 -35 -35
0 -72 -38 -57 -57 6 -7 18 -13 25 -13 58 0 -107 -67 -221 -90 -33 -7 -86 -23
-118 -36 -32 -13 -65 -24 -72 -24 -25 0 -27 21 -5 45 24 26 21 55 -5 55 -34 0
-174 -52 -191 -71 -10 -11 -38 -29 -62 -40 -50 -23 -63 -46 -37 -65 10 -8 17
-15 14 -17 -2 -2 -54 -13 -115 -25 -140 -27 -200 -52 -215 -89 -6 -15 -14 -35
-19 -43 -7 -14 -48 -28 -103 -35 -16 -2 -44 -6 -62 -9 -42 -8 -54 9 -19 26 38
18 54 46 34 58 -34 22 -152 -4 -240 -51 -19 -10 -93 -45 -164 -77 -129 -58
-161 -82 -113 -82 31 0 83 22 252 106 72 35 138 64 149 64 17 0 17 -1 2 -25
-21 -32 -20 -48 2 -68 25 -23 48 -21 107 8 28 14 56 25 63 25 25 0 137 42 152
56 8 8 15 22 15 31 0 18 139 72 190 73 42 1 214 45 227 58 18 18 -10 42 -51
42 l-36 1 25 20 c14 12 51 34 82 50 44 22 58 26 58 15 0 -8 -4 -18 -10 -21
-15 -9 -12 -41 6 -55 12 -11 29 -10 92 4 42 10 91 24 107 31 17 7 91 33 165
59 152 53 204 78 208 100 2 9 -6 20 -20 25 -23 9 -23 9 7 21 17 7 35 13 40 14
6 2 17 6 25 9 8 3 35 12 60 20 25 9 104 38 175 66 120 46 313 97 410 107 22 2
96 6 165 8 69 3 136 9 150 15 18 7 -36 10 -195 10 -131 0 -230 -5 -245 -11z
M4318 8624 c-29 -15 -58 -61 -58 -90 0 -9 -11 -30 -26 -46 -31 -38 -30 -81 3
-86 19 -3 22 2 25 40 2 25 8 44 16 44 6 1 17 2 22 3 6 0 10 23 10 50 0 42 4
52 27 69 32 23 18 35 -19 16z M4936 8604 c-9 -8 -16 -19 -16 -23 0 -3 -13 -15
-30 -24 -32 -19 -39 -51 -20 -88 9 -15 15 -17 30 -9 15 8 18 17 13 44 -5 32
-4 33 21 29 25 -5 26 -4 26 41 0 51 -2 53 -24 30z M4520 8540 c-21 -13 -5 -24
36 -26 43 -3 74 -28 74 -61 0 -16 5 -23 13 -20 21 8 46 -12 64 -52 16 -33 21
-37 40 -30 21 8 22 10 9 41 -8 18 -29 43 -47 56 -18 12 -42 36 -53 52 -12 17
-30 32 -41 34 -57 12 -82 14 -95 6z M4342 8110 c2 -7 24 -19 48 -26 47 -14 60
-27 60 -61 0 -13 6 -23 14 -23 38 0 62 -70 34 -98 -20 -20 16 -15 42 6 31 25
20 77 -21 101 -16 9 -31 28 -34 43 -8 34 -40 54 -100 63 -37 6 -47 5 -43 -5z
M4110 7810 c-9 -17 -8 -20 9 -20 19 0 35 23 24 34 -11 11 -22 6 -33 -14z
M4058 7773 c-9 -10 -14 -31 -12 -46 2 -18 -4 -35 -17 -48 -35 -35 -20 -66 27
-55 21 6 23 9 11 26 -12 20 -6 30 25 42 8 4 -3 98 -12 98 -4 0 -14 -8 -22 -17z
M4183 6229 c-23 -23 -14 -29 45 -29 55 0 165 -33 197 -60 19 -16 125 -67 172
-84 28 -10 45 -11 49 -5 4 7 14 3 28 -8 26 -24 99 -48 120 -40 28 11 17 38
-21 53 -21 8 -45 18 -53 23 -8 4 -24 5 -35 1 -13 -5 -28 -1 -44 11 -13 11 -28
19 -34 19 -12 0 -130 59 -137 69 -3 4 -30 18 -60 31 -66 28 -207 40 -227 19z
M805 3970 c-3 -5 -1 -10 4 -10 6 0 11 5 11 10 0 6 -2 10 -4 10 -3 0 -8 -4 -11
-10z M289 3064 c-74 -11 -145 -39 -167 -67 -16 -18 6 -67 31 -67 9 0 17 -7 17
-15 0 -8 6 -15 13 -16 6 0 2 -5 -11 -11 -28 -14 -23 -34 6 -30 44 6 21 -7 -30
-18 -57 -12 -98 -39 -98 -64 0 -22 20 -20 20 2 1 9 7 0 14 -21 8 -21 12 -48 9
-60 -5 -21 -7 -29 -32 -90 -8 -19 -11 -150 -10 -420 l0 -392 24 47 c13 26 27
64 31 85 4 21 8 47 10 58 10 58 17 75 29 75 8 0 17 -4 20 -10 3 -5 -1 -10 -9
-10 -21 0 -31 -21 -15 -31 19 -12 75 0 114 22 42 25 82 79 65 89 -9 5 -5 10
11 15 39 12 79 45 79 64 0 10 7 24 15 31 21 18 19 40 -5 40 -12 0 -20 7 -20
16 0 18 -4 17 -90 -15 -65 -25 -86 -26 -94 -6 -3 8 -12 12 -21 9 -9 -4 -24 1
-35 11 -12 11 -29 16 -45 13 -25 -5 -26 -5 -19 41 8 55 7 54 32 47 11 -4 18
-15 18 -29 -1 -18 5 -23 30 -25 34 -3 60 18 50 43 -3 8 -14 15 -24 15 -15 0
-18 6 -15 24 4 19 -1 25 -27 35 -18 6 -37 8 -44 4 -8 -5 -8 -3 1 8 6 8 13 30
15 49 2 26 8 36 23 38 62 10 98 45 72 71 -8 8 -7 11 5 11 18 0 31 26 22 42 -4
5 -21 7 -40 3 -29 -5 -34 -3 -34 13 0 20 48 42 93 42 19 0 26 -6 29 -22 4 -32
62 -36 124 -9 26 12 56 21 68 21 32 0 59 23 54 46 -3 14 -11 18 -32 16 -24 -3
-28 0 -23 17 3 11 2 20 -2 19 -6 -1 -27 6 -71 24 l-25 10 23 9 c59 22 -34 40
-105 20 -24 -7 -33 -6 -37 5 -3 8 -16 14 -28 15 -47 1 15 18 70 18 37 1 54 5
58 16 4 8 15 15 25 15 11 0 22 7 25 15 4 8 15 15 25 15 11 0 22 6 25 14 7 19
-13 56 -31 56 -8 0 -15 4 -15 9 0 15 -63 17 -141 5z m-195 -593 c3 -5 -1 -14
-9 -21 -13 -10 -15 -9 -15 9 0 21 14 28 24 12z m116 -265 c-14 -14 -24 0 -16
21 6 15 8 15 16 3 6 -9 5 -19 0 -24z m-115 -73 c-6 -44 -23 -89 -29 -81 -2 1
-1 31 2 66 3 46 8 62 19 62 12 0 14 -9 8 -47z m92 21 c-3 -3 -12 -4 -19 -1 -8
3 -5 6 6 6 11 1 17 -2 13 -5z m-28 -65 c-16 -10 -23 -4 -14 10 3 6 11 8 17 5
6 -4 5 -9 -3 -15z M57 1703 c-4 -3 -7 -13 -7 -21 0 -12 3 -12 15 -2 8 7 15 16
15 21 0 11 -14 12 -23 2z M110 954 c0 -12 81 -124 90 -124 18 0 10 32 -9 37
-12 3 -17 11 -14 22 5 20 -32 71 -53 71 -8 0 -14 -2 -14 -6z M4942 660 c0 -14
2 -19 5 -12 2 6 2 18 0 25 -3 6 -5 1 -5 -13z M2950 310 l-45 -7 58 -1 c37 -1
56 2 52 8 -3 6 -9 9 -13 8 -4 0 -27 -4 -52 -8z M3395 310 c-56 -5 -42 -7 70
-7 83 -1 130 2 115 7 -29 9 -85 9 -185 0z M3670 310 c-10 -7 24 -10 105 -9 76
0 113 4 100 9 -28 12 -187 12 -205 0z M4115 310 c-16 -7 -11 -9 20 -9 29 -1
36 2 25 9 -17 11 -19 11 -45 0z M2558 303 c7 -3 16 -2 19 1 4 3 -2 6 -13 5
-11 0 -14 -3 -6 -6z M2693 303 c9 -2 25 -2 35 0 9 3 1 5 -18 5 -19 0 -27 -2
-17 -5z M3133 303 c9 -2 23 -2 30 0 6 3 -1 5 -18 5 -16 0 -22 -2 -12 -5z"/>
</g>
</svg>
