<?xml version="1.0" standalone="no"?>
<!DOCTYPE svg PUBLIC "-//W3C//DTD SVG 20010904//EN"
 "http://www.w3.org/TR/2001/REC-SVG-20010904/DTD/svg10.dtd">
<svg version="1.0" xmlns="http://www.w3.org/2000/svg"
 width="500.000000pt" height="878.000000pt" viewBox="0 0 500.000000 878.000000"
 preserveAspectRatio="xMidYMid meet">
<metadata>
Created by potrace 1.16, written by Peter Selinger 2001-2019
</metadata>
<g transform="translate(0.000000,878.000000) scale(0.100000,-0.100000)"
fill="#000000" stroke="none">
<path d="M830 8722 c0 -22 43 -219 52 -235 8 -15 -4 -23 -84 -61 -78 -36 -96
-49 -112 -80 -25 -46 -60 -72 -117 -85 -53 -12 -72 -35 -64 -78 5 -29 3 -33
-22 -39 -15 -4 -50 -25 -78 -46 -32 -26 -51 -35 -54 -27 -2 7 13 26 33 42 27
22 35 34 31 50 -4 17 2 26 25 39 62 35 21 98 -65 98 -21 0 -56 -12 -85 -28
-53 -30 -120 -87 -120 -101 0 -17 -31 -21 -46 -7 -23 23 -74 2 -74 -31 0 -22
2 -24 16 -13 13 11 16 10 21 -8 3 -12 11 -22 19 -22 19 0 72 38 120 86 47 47
123 87 156 82 31 -4 29 -30 -4 -46 -20 -9 -28 -21 -28 -39 0 -15 -11 -39 -26
-54 -16 -17 -26 -40 -27 -61 -3 -58 34 -50 208 44 58 32 60 35 60 72 0 39 1
40 50 58 67 24 96 47 120 96 16 31 30 44 65 58 25 9 55 23 67 31 11 8 23 10
26 6 7 -14 26 -96 37 -168 7 -38 15 -83 20 -100 5 -16 11 -57 15 -90 3 -33 10
-80 15 -105 6 -25 15 -71 20 -104 6 -32 12 -63 13 -69 2 -9 -133 -69 -141 -62
-1 1 5 16 15 33 10 17 15 34 11 37 -3 3 -53 -16 -109 -44 -57 -28 -133 -58
-169 -67 -74 -19 -115 -37 -148 -68 -27 -24 -52 -68 -52 -91 0 -16 30 -21 46
-6 17 16 163 63 186 59 20 -3 16 -7 -24 -27 -26 -14 -58 -35 -70 -49 -22 -22
-22 -24 -5 -36 16 -12 13 -16 -24 -40 -25 -17 -39 -33 -35 -41 3 -8 -4 -17
-17 -21 -35 -10 -58 -35 -51 -56 4 -13 -2 -22 -23 -31 -43 -19 -163 -87 -213
-122 -140 -97 -140 -96 -140 -137 0 -41 2 -41 76 -4 48 25 87 29 109 13 16
-12 17 -17 7 -30 -15 -17 -110 -76 -159 -98 -23 -10 -33 -21 -33 -36 0 -13 2
-23 4 -23 8 0 189 112 218 134 33 25 35 49 7 75 -28 26 -57 30 -115 15 -27 -7
-50 -11 -51 -10 -2 2 14 16 35 32 82 66 193 135 289 179 60 28 70 40 46 54
-21 11 -20 13 32 32 31 12 39 20 38 36 -2 14 10 29 37 48 45 31 48 39 23 55
-14 8 -15 13 -5 17 7 3 36 17 65 33 40 21 52 33 52 51 0 23 -3 24 -66 23 -39
-1 -79 -9 -97 -18 -18 -9 -43 -21 -57 -26 -23 -9 -25 -8 -15 9 13 26 64 55
130 76 30 9 62 19 70 22 8 4 19 5 24 4 5 -1 12 2 15 6 6 8 86 53 94 53 2 0 2
-11 -1 -25 -4 -22 -1 -25 24 -25 16 0 48 9 72 20 23 10 42 17 42 14 0 -2 15 2
34 10 l33 14 12 -52 c11 -50 40 -176 65 -287 8 -30 13 -91 12 -135 l-1 -79
-65 -11 c-142 -23 -160 -40 -136 -123 8 -25 20 -68 28 -96 13 -45 17 -50 45
-53 18 -2 52 7 80 20 26 12 51 24 56 26 4 2 7 -14 7 -35 -2 -75 0 -85 23 -126
13 -23 27 -54 30 -69 9 -34 83 -78 131 -78 29 0 38 -5 51 -30 14 -28 14 -33 0
-52 -27 -40 -12 -111 32 -150 27 -24 84 -36 134 -29 55 9 65 15 84 51 17 32
50 32 58 -1 3 -10 14 -19 25 -19 10 0 27 -9 38 -21 50 -55 246 -189 277 -189
7 0 23 -12 36 -25 13 -14 27 -25 32 -25 5 0 9 -7 9 -15 0 -22 50 -64 76 -65
15 0 24 -8 28 -24 3 -14 15 -28 27 -31 15 -5 19 -14 17 -33 -2 -20 3 -29 22
-39 14 -7 23 -13 20 -14 -3 0 -20 -2 -38 -5 -18 -2 -50 -13 -72 -24 -57 -29
-65 -25 -22 14 31 29 35 38 26 53 -16 26 -111 23 -193 -6 -35 -12 -87 -28
-115 -36 -28 -7 -89 -28 -136 -45 -47 -18 -98 -36 -115 -41 -36 -11 -105 -12
-105 -1 1 4 23 25 50 46 48 38 61 56 40 56 -19 0 -10 16 20 34 44 25 66 62 50
81 -29 34 -131 10 -209 -49 -49 -36 -75 -33 -32 4 22 18 32 34 28 44 -10 25
-86 25 -124 0 -30 -19 -42 -18 -36 5 7 29 -26 34 -73 12 -75 -36 -133 -61
-141 -61 -18 0 -283 -137 -328 -170 -77 -57 -199 -120 -230 -120 -23 0 -26 2
-15 15 7 8 10 21 7 29 -3 7 8 26 24 42 38 37 38 63 -1 71 l-31 6 48 32 c53 36
113 91 113 103 0 53 -158 21 -247 -50 -92 -73 -137 -99 -163 -94 -16 3 -57
-11 -117 -40 -83 -39 -93 -47 -93 -71 l0 -26 23 20 c12 12 50 35 85 52 47 24
67 29 77 21 17 -14 85 22 181 95 39 30 87 62 107 70 39 16 87 20 87 7 0 -10
-115 -92 -129 -92 -16 0 -50 -55 -42 -68 5 -8 16 -9 39 -3 47 14 47 -3 0 -43
-33 -27 -40 -38 -30 -45 12 -7 12 -12 1 -29 -10 -17 -11 -24 -2 -33 31 -31
204 39 328 132 61 45 218 124 345 174 52 20 101 39 108 42 8 3 12 -4 12 -21 0
-33 15 -33 84 1 61 30 81 25 48 -10 -54 -57 -1 -86 75 -41 90 52 136 74 155
74 21 0 24 -15 6 -29 -7 -6 -28 -23 -46 -37 -22 -18 -32 -33 -29 -45 3 -11
-10 -30 -39 -54 -50 -43 -55 -61 -18 -75 48 -19 100 -10 234 39 144 52 386
118 397 108 3 -4 -6 -16 -21 -28 -85 -67 -39 -113 74 -73 76 28 110 33 110 19
0 -29 82 -104 154 -140 101 -52 127 -39 74 37 -25 36 -23 39 13 21 47 -24 151
-29 171 -9 12 11 26 14 50 10 65 -12 152 -45 174 -65 12 -11 35 -21 52 -21 22
-1 32 -7 36 -22 3 -12 14 -31 25 -43 11 -12 28 -35 38 -50 27 -44 87 -92 123
-99 19 -4 35 -15 40 -28 11 -31 34 -47 92 -66 l51 -16 -36 -28 c-24 -19 -37
-37 -37 -52 0 -30 18 -31 70 -4 23 12 59 20 87 20 29 0 58 7 72 16 15 11 49
17 104 19 106 4 136 -2 147 -30 12 -33 28 -39 54 -22 25 17 179 15 242 -2 29
-8 37 -7 46 9 11 17 13 15 29 -14 28 -53 38 -149 27 -256 -10 -93 -26 -130
-53 -130 -7 0 -15 6 -18 13 -6 15 1 153 8 175 3 7 0 24 -5 37 -8 21 -13 24
-29 16 -19 -10 -41 -78 -41 -126 0 -38 -19 -55 -48 -42 -28 13 -24 29 9 37 19
5 25 15 30 45 4 22 3 44 -1 49 -13 13 -39 -1 -50 -26 -8 -18 -9 -14 -4 19 6
48 0 65 -21 56 -9 -3 -15 -18 -15 -38 0 -19 -5 -37 -11 -40 -7 -5 -8 12 -3 55
6 51 4 62 -7 58 -8 -3 -15 -22 -17 -45 -2 -23 -10 -47 -19 -55 -15 -12 -16
-10 -9 16 11 44 18 126 11 126 -21 0 -43 -22 -38 -39 5 -21 -14 -64 -26 -57
-4 3 -6 30 -3 59 5 67 -11 83 -45 43 -12 -15 -23 -36 -23 -47 0 -10 -4 -19
-10 -19 -5 0 -10 7 -10 15 0 18 -31 20 -48 3 -7 -7 -12 -20 -12 -29 0 -10 -9
-20 -19 -24 -11 -3 -23 -14 -26 -23 -9 -26 -104 -83 -122 -73 -12 6 -10 12 12
29 15 12 32 22 36 22 5 0 9 14 9 30 0 17 -5 30 -11 30 -6 0 -36 -18 -68 -40
-53 -37 -101 -52 -101 -31 0 5 16 19 34 31 19 11 38 30 41 40 7 21 -10 60 -25
60 -5 0 -34 -25 -64 -56 -31 -30 -60 -53 -66 -49 -23 14 -2 85 25 85 16 0 35
30 35 54 0 9 -7 16 -16 16 -23 0 -102 -52 -109 -71 -3 -8 -24 -25 -48 -37 -23
-12 -60 -33 -82 -46 -28 -17 -43 -21 -52 -14 -7 6 -29 8 -48 6 -34 -4 -35 -3
-35 29 0 18 -4 33 -8 33 -4 0 -34 -9 -66 -20 -32 -12 -60 -20 -62 -18 -10 11
55 58 80 58 21 0 57 50 51 70 -3 9 3 28 14 42 31 39 13 54 -35 30 -22 -11 -62
-23 -89 -27 -67 -10 -95 -22 -95 -39 0 -22 -40 -46 -78 -46 -40 0 -78 -19
-112 -55 -28 -30 -60 -50 -60 -38 0 5 14 17 31 27 37 22 59 70 59 129 0 55 13
69 80 90 81 25 130 75 144 147 13 61 16 68 36 73 22 6 28 37 6 37 -32 0 -73
-23 -91 -53 -17 -26 -29 -33 -70 -40 -28 -4 -59 -7 -70 -7 -29 -1 -88 -20
-106 -37 -9 -7 -24 -11 -33 -7 -34 13 -176 -117 -176 -162 0 -11 -9 -25 -20
-32 -24 -14 -25 -5 -6 40 8 18 20 48 27 67 7 18 24 47 37 63 13 16 22 31 19
34 -13 14 -102 -12 -154 -43 -32 -20 -77 -44 -100 -54 -24 -10 -43 -23 -43
-28 0 -13 -58 -29 -125 -35 -66 -6 -145 -33 -168 -57 -18 -19 -37 -25 -37 -11
0 4 11 20 25 36 28 33 29 53 3 70 -13 8 -23 8 -35 -2 -25 -17 -65 -33 -70 -28
-3 2 4 13 16 25 26 26 37 85 22 117 -10 23 -7 29 41 74 75 68 66 72 -112 50
-107 -14 -123 -24 -120 -73 5 -60 0 -77 -30 -92 -17 -9 -36 -27 -42 -40 -9
-20 -13 -22 -30 -12 -16 10 -22 8 -36 -10 -9 -12 -37 -29 -62 -39 -89 -34
-110 -82 -76 -176 15 -42 6 -49 -28 -23 -27 21 -55 19 -101 -6 -83 -45 -201
-102 -227 -110 -36 -10 -36 6 0 25 32 17 112 92 112 105 0 5 -7 17 -16 25 -27
27 -127 21 -224 -15 -47 -17 -89 -34 -95 -38 -5 -4 -53 -23 -105 -41 -91 -32
-128 -47 -267 -111 -69 -31 -84 -55 -30 -45 l32 6 -25 -17 c-34 -25 -80 -72
-80 -83 0 -5 15 -10 33 -12 30 -3 25 -7 -66 -52 -74 -37 -97 -53 -97 -68 0
-11 3 -18 8 -16 78 35 212 111 227 127 16 19 17 24 5 31 -8 6 -21 10 -28 10
-25 0 -7 19 38 42 38 19 45 27 43 50 -1 24 5 30 75 59 42 18 124 49 182 69
122 44 132 47 183 66 40 15 147 19 147 6 0 -12 -37 -44 -86 -76 -42 -27 -65
-61 -57 -83 12 -35 176 9 253 68 47 35 100 62 100 50 0 -5 -10 -13 -22 -17
-24 -7 -75 -45 -128 -94 -18 -17 -39 -30 -48 -30 -8 0 -43 -15 -76 -34 -34
-18 -83 -37 -111 -41 -52 -7 -81 -25 -150 -91 -24 -23 -63 -51 -87 -63 -24
-12 -81 -47 -128 -79 -82 -55 -85 -59 -88 -99 -2 -23 -10 -47 -18 -53 -15 -13
-20 -70 -6 -70 10 0 32 -60 32 -88 0 -24 25 -40 69 -45 17 -2 42 -16 56 -31
22 -23 32 -27 63 -24 20 3 46 9 57 13 16 7 18 6 9 -6 -18 -23 -23 -60 -12 -84
14 -30 31 -37 64 -25 18 7 31 7 40 -1 25 -21 85 -28 118 -15 82 35 96 36 105
12 5 -12 16 -28 25 -35 21 -18 20 -24 -9 -71 -13 -21 -29 -65 -34 -97 -8 -51
-7 -60 10 -78 20 -20 20 -20 59 3 43 24 77 24 174 -4 27 -8 79 -14 114 -14 53
0 233 25 327 45 11 3 52 11 90 20 39 8 86 19 105 24 80 22 116 33 142 43 25 9
30 7 54 -21 14 -17 34 -31 44 -31 23 0 100 -116 135 -205 15 -38 32 -75 37
-82 6 -7 5 -14 -2 -18 -7 -4 -9 -19 -5 -36 7 -32 -9 -116 -31 -157 -15 -29
-10 -90 12 -147 13 -33 14 -52 5 -115 -19 -130 -20 -154 -8 -168 7 -10 8 -16
0 -20 -6 -4 -19 -23 -30 -42 -60 -109 -144 -222 -214 -288 -91 -86 -117 -104
-229 -161 -47 -24 -92 -49 -100 -55 -8 -6 -33 -20 -55 -31 -22 -11 -59 -40
-82 -65 -59 -63 -73 -76 -132 -132 -28 -27 -57 -64 -65 -81 -26 -63 -404 -426
-428 -411 -4 3 -5 -3 -1 -12 5 -13 3 -16 -10 -11 -11 4 -14 2 -11 -8 4 -9 -3
-16 -18 -19 -12 -3 -36 -8 -53 -12 -16 -3 -59 -7 -95 -9 -84 -3 -134 -17 -194
-55 l-49 -31 7 43 c8 58 24 128 46 213 11 39 22 88 25 110 4 22 13 58 22 80
39 101 63 176 63 196 0 9 7 22 15 29 9 7 15 29 15 54 0 23 4 46 10 52 5 5 11
25 13 44 4 31 9 36 40 44 29 8 37 15 43 40 5 25 2 34 -21 52 -24 19 -27 27
-21 57 4 19 15 46 26 60 11 14 20 32 20 39 0 11 11 14 40 11 31 -2 42 1 50 16
5 11 20 21 32 23 33 4 28 32 -6 38 -17 3 -28 10 -27 15 2 6 -6 15 -19 21 -20
11 -20 13 -5 21 21 12 62 -5 68 -28 3 -10 20 -19 43 -23 l38 -8 -33 -20 c-64
-41 -24 -73 107 -84 69 -5 92 -4 116 9 17 9 44 17 60 19 34 4 57 31 39 49 -8
8 -17 8 -29 1 -13 -7 -26 -6 -46 4 -33 17 -34 21 -11 46 15 17 15 20 2 34 -9
8 -33 18 -54 21 -21 3 -54 17 -73 30 l-35 23 39 16 c22 9 65 29 97 45 63 32
107 38 107 14 0 -8 11 -17 25 -21 14 -3 25 -12 25 -20 0 -16 0 -16 100 -19 41
-1 90 -6 108 -10 55 -13 86 31 37 53 -14 6 -25 19 -25 27 0 8 -11 20 -24 26
-23 11 -43 49 -25 49 18 0 30 40 21 72 -12 47 17 74 79 71 41 -2 48 1 53 20 7
27 9 25 -44 30 -25 3 -52 7 -60 11 -61 24 -224 21 -317 -5 -33 -9 -47 -9 -56
0 -8 8 -3 11 20 11 18 0 33 6 37 15 4 13 9 13 24 4 11 -7 27 -9 36 -6 23 9 32
37 15 47 -25 16 -4 19 25 5 38 -20 53 -19 65 4 8 13 7 22 -2 29 -17 14 -132
36 -157 29 -25 -7 -38 13 -16 25 9 5 16 16 16 23 0 10 10 15 29 15 40 0 60 25
37 48 -14 14 -36 17 -122 17 -101 -1 -105 0 -100 20 3 11 6 30 6 43 0 26 18
29 36 5 9 -13 16 -15 24 -7 9 9 22 6 51 -8 39 -18 42 -18 86 -2 27 11 49 27
56 41 6 14 16 22 25 18 7 -3 23 -5 34 -5 11 0 22 -8 25 -20 6 -21 43 -36 67
-27 8 3 19 14 25 25 15 28 -11 59 -60 72 -28 8 -39 16 -35 25 11 31 -21 38
-147 32 -139 -6 -222 -28 -214 -56 4 -15 -3 -17 -49 -13 -30 2 -54 1 -54 -4 1
-11 67 -54 83 -54 7 0 1 -9 -12 -19 -17 -13 -24 -29 -24 -50 0 -28 -4 -31 -36
-37 -20 -3 -52 -12 -72 -19 -33 -12 -36 -12 -35 2 3 41 -194 31 -202 -10 -2
-10 4 -19 15 -23 10 -3 25 -9 33 -13 8 -4 26 -4 40 0 43 12 58 10 56 -8 0 -10
7 -19 17 -21 18 -4 64 -42 50 -42 -4 0 -2 -5 5 -12 17 -17 15 -28 -7 -28 -10
0 -24 -7 -31 -15 -7 -8 -18 -15 -26 -15 -7 0 -27 -13 -44 -29 -37 -34 -27 -46
28 -37 25 5 32 4 23 -3 -11 -7 -12 -13 -3 -23 16 -20 -12 -58 -44 -58 -31 0
-31 -20 0 -49 21 -20 23 -27 14 -54 -6 -18 -19 -41 -28 -52 -19 -22 -95 -243
-87 -251 3 -3 -3 -31 -14 -61 -10 -31 -19 -69 -19 -85 0 -21 -5 -28 -20 -28
-31 0 -37 -30 -10 -50 13 -10 20 -22 16 -29 -11 -17 -19 -53 -20 -91 -1 -19
-6 -44 -12 -55 -20 -36 -45 -136 -42 -168 3 -30 0 -32 -30 -35 -37 -4 -47 -20
-38 -58 5 -20 11 -24 27 -19 17 6 19 3 13 -22 -3 -15 -12 -42 -20 -59 -7 -17
-20 -55 -28 -85 -8 -30 -24 -78 -35 -107 -12 -30 -29 -91 -38 -135 -8 -45 -22
-89 -30 -98 -15 -17 -89 -31 -160 -29 -41 1 -43 0 -43 -30 0 -27 3 -30 29 -30
17 0 33 5 36 10 4 6 10 8 15 5 5 -3 11 -1 15 5 8 13 72 13 80 -1 4 -6 14 -7
24 -3 9 4 36 8 61 9 62 3 85 14 112 55 13 19 35 40 48 47 28 13 173 25 196 16
11 -4 -7 -27 -63 -83 -75 -74 -80 -77 -128 -78 -66 -3 -78 -7 -151 -57 -34
-24 -73 -47 -86 -50 -13 -4 -33 -16 -45 -25 -13 -10 -40 -21 -60 -25 -58 -10
-83 -39 -83 -97 0 -32 4 -48 13 -48 38 0 202 -198 196 -237 -1 -4 0 -10 1 -13
1 -3 3 -17 4 -31 2 -36 -20 -26 -28 12 -3 17 -12 29 -21 29 -22 0 -20 -56 3
-69 15 -9 15 -12 2 -21 -19 -13 -33 -13 -25 0 3 5 -5 25 -19 43 -15 19 -26 41
-26 49 0 18 -34 51 -43 42 -3 -3 7 -30 24 -58 16 -29 26 -55 23 -59 -8 -7 -47
45 -68 90 -8 18 -18 33 -21 33 -3 0 -3 -4 0 -10 3 -5 1 -10 -5 -10 -19 0 -2
-51 25 -76 26 -24 43 -98 25 -109 -6 -3 -10 0 -10 7 -1 8 -6 6 -15 -6 -8 -11
-18 -16 -22 -12 -4 4 0 12 10 17 22 13 22 35 -3 66 l-20 26 0 -30 c0 -16 5
-34 11 -40 8 -8 8 -13 0 -17 -13 -8 -15 -106 -2 -106 9 0 60 38 76 56 11 13
85 54 98 54 4 0 25 12 47 26 28 18 40 34 40 50 0 39 20 71 61 93 l39 22 43
-25 c38 -23 47 -24 78 -14 69 22 81 29 86 47 3 10 21 27 41 37 40 21 86 68
119 123 12 20 28 44 35 55 20 29 82 86 94 86 6 0 19 10 30 21 23 26 110 86
184 126 30 16 73 41 95 55 43 26 141 62 153 54 4 -2 32 -6 62 -7 76 -4 149
-28 212 -71 29 -20 81 -46 116 -58 61 -22 112 -65 112 -95 0 -17 -101 -10
-143 11 -32 15 -77 2 -77 -23 0 -7 -7 -13 -16 -13 -29 0 -52 -19 -47 -39 7
-28 26 -33 128 -36 102 -4 204 -32 245 -69 14 -12 37 -30 53 -39 41 -26 33
-35 -20 -25 -48 10 -103 -1 -103 -20 0 -16 34 -38 100 -65 101 -40 107 -40
140 13 30 48 36 51 88 37 31 -8 50 -8 79 2 61 20 90 13 331 -82 38 -15 52 -26
53 -41 2 -40 4 -44 25 -68 12 -14 42 -30 70 -37 27 -7 72 -21 99 -31 76 -29
162 -49 240 -54 39 -3 79 -7 90 -10 60 -13 121 -31 125 -37 6 -8 184 -32 225
-30 108 4 245 13 343 22 107 11 129 11 175 -3 61 -19 107 -27 197 -33 36 -3
79 -8 95 -12 31 -7 78 -10 174 -12 30 0 52 -3 49 -6 -10 -10 -157 -15 -458
-14 -327 1 -948 -1 -1485 -4 -192 -1 -552 -1 -800 1 -247 2 -538 3 -645 3
-107 1 -397 1 -645 2 -247 1 -465 -1 -482 -3 -28 -4 -33 -8 -33 -32 0 -28 0
-28 53 -21 74 9 1853 7 2082 -2 105 -5 300 -8 435 -7 135 1 648 4 1140 6 492
2 936 6 985 8 50 3 116 6 148 6 l58 2 -3 53 c-3 52 -3 52 -33 48 -44 -7 -141
-6 -220 2 -38 3 -110 9 -160 12 -49 4 -142 13 -205 21 -63 8 -131 16 -152 18
-20 2 -53 9 -73 16 -51 17 -167 19 -239 5 -56 -11 -310 -12 -421 -1 -37 3
-152 39 -164 51 -3 3 49 5 114 4 162 -3 295 3 301 13 3 5 10 5 16 2 5 -4 22 2
36 13 45 33 121 52 192 48 36 -2 72 -6 80 -9 8 -3 33 -7 55 -10 22 -3 63 -10
91 -16 66 -14 139 -9 139 9 0 8 -13 15 -30 17 -87 8 -131 16 -155 29 -15 8
-30 11 -34 8 -3 -4 -17 4 -30 16 -28 26 -64 29 -136 11 -25 -6 -52 -12 -60
-14 -8 -2 -23 -7 -33 -11 -31 -13 -29 1 5 34 30 30 37 32 79 26 29 -4 49 -3
53 4 5 7 20 4 46 -9 22 -11 46 -20 55 -20 20 0 30 26 17 43 -8 9 1 11 38 9 29
-2 61 2 78 11 33 16 64 16 84 0 7 -6 45 -14 84 -18 59 -6 72 -4 77 8 5 12 13
14 39 7 31 -8 189 -20 268 -21 33 0 32 -1 -15 -14 -27 -8 -53 -14 -57 -15 -17
-1 -7 -50 11 -60 30 -15 40 -12 53 15 12 27 42 33 55 12 11 -18 11 -27 3 -82
-8 -55 2 -95 24 -95 23 0 41 31 40 71 -1 28 2 37 10 30 6 -4 25 -10 42 -13 28
-4 31 -1 32 23 1 28 -31 53 -59 47 -7 -2 -14 4 -14 12 0 11 10 14 38 12 l38
-3 -3 43 c-3 43 -3 43 -47 48 -74 8 -57 39 22 40 15 0 27 6 27 13 0 8 -15 12
-42 12 -24 0 -44 4 -45 10 -2 5 18 8 43 6 35 -2 45 1 42 11 -3 7 -23 14 -46
16 -47 4 -57 21 -14 24 15 0 33 2 41 2 8 1 16 7 19 14 2 8 -10 12 -42 12 -35
0 -46 4 -46 15 0 13 9 15 45 10 36 -4 45 -2 45 10 0 11 -11 15 -38 15 -43 0
-53 6 -45 26 3 9 20 14 44 14 l39 0 0 45 0 45 -64 0 c-41 0 -68 -5 -73 -12 -4
-7 -8 -35 -8 -63 l0 -50 -49 -7 c-78 -11 -117 -68 -47 -68 40 0 91 -11 91 -20
0 -4 -22 -10 -50 -13 -27 -3 -59 -11 -70 -17 -19 -10 -20 -14 -7 -33 11 -17
26 -23 63 -25 27 -2 54 -8 59 -14 13 -13 -198 -2 -345 18 -126 17 -271 19
-300 4 -24 -13 -55 -5 -89 21 -13 11 -36 19 -51 19 -14 0 -48 7 -74 16 -69 24
-121 14 -213 -38 -103 -59 -154 -77 -233 -82 -36 -3 -85 -8 -110 -13 -25 -5
-153 -9 -285 -8 -244 1 -287 6 -380 45 -122 51 -153 64 -180 76 -75 31 -181
64 -210 64 -17 0 -40 -6 -50 -14 -17 -12 -24 -12 -48 1 -16 8 -38 13 -50 11
-14 -2 -34 8 -54 28 -18 17 -48 39 -67 49 -24 13 -37 29 -42 50 -4 16 -17 46
-30 65 -13 19 -24 40 -24 47 0 15 -49 44 -125 73 -33 13 -90 43 -126 66 -36
23 -89 50 -119 60 l-53 17 65 26 c90 36 149 75 233 152 69 64 105 94 141 115
17 11 56 36 87 57 31 20 61 37 67 37 7 0 24 6 38 14 39 20 160 55 233 67 35 6
69 15 75 20 7 5 43 20 80 33 38 13 91 31 117 40 27 10 51 15 54 12 3 -3 0 -19
-6 -35 -9 -21 -10 -35 -2 -49 9 -17 3 -24 -53 -61 -36 -23 -84 -65 -108 -93
-23 -29 -57 -66 -74 -83 -25 -25 -104 -146 -104 -160 0 -2 9 -9 21 -15 15 -8
24 -8 34 0 7 6 17 9 23 8 5 -2 18 6 28 18 23 25 154 101 207 119 32 11 38 11
33 0 -8 -22 21 -38 57 -31 20 4 64 -1 108 -12 74 -17 139 -20 172 -7 9 4 26
27 36 51 26 58 31 57 99 -5 41 -38 167 -56 200 -29 22 19 44 76 37 98 -4 13 4
26 27 43 66 50 111 67 192 71 80 4 103 14 93 39 -6 17 -187 32 -253 21 -41 -6
-42 -5 -46 26 -5 35 12 112 35 156 8 16 33 49 56 73 30 33 45 42 62 38 12 -3
38 3 59 14 22 12 65 22 101 24 35 2 84 9 109 15 63 16 190 6 325 -25 150 -34
200 -39 385 -39 161 0 188 3 318 41 l52 15 0 86 c0 106 -8 122 -44 98 -20 -13
-26 -25 -26 -54 0 -20 -3 -47 -6 -59 -11 -41 -24 -24 -24 32 0 41 -4 55 -14
55 -8 0 -18 -4 -21 -10 -3 -5 -17 -10 -30 -10 -15 0 -31 -10 -41 -25 -15 -23
-18 -24 -29 -9 -8 11 -19 15 -30 10 -14 -5 -16 -2 -11 16 33 108 67 240 77
293 16 96 33 180 35 183 1 2 11 -2 22 -9 31 -19 56 5 49 48 -3 18 -1 35 4 38
5 4 9 -1 9 -9 0 -21 49 -22 52 -1 0 8 1 21 2 28 1 6 -7 11 -16 9 -26 -4 -22
11 12 44 l29 29 1 222 c0 138 -4 224 -10 228 -7 4 -7 12 0 25 5 10 10 79 9
152 0 90 -3 126 -9 110 -11 -26 -33 -30 -28 -4 6 26 -30 113 -60 145 -35 37
-14 34 47 -7 l51 -35 0 74 c0 51 -4 77 -13 82 -33 19 -42 82 -21 130 l17 38 7
-30 c4 -16 8 55 9 158 1 173 0 189 -17 194 -12 3 -18 14 -17 35 0 37 22 49 28
16 2 -13 5 41 6 119 1 134 0 144 -23 177 -13 19 -26 33 -29 30 -3 -3 -3 3 0
14 2 11 0 23 -7 27 -7 4 1 13 22 23 l33 17 3 233 c2 227 2 234 -20 264 l-22
31 22 -5 c20 -6 22 -2 22 36 l0 42 -77 27 -78 26 62 1 c83 0 93 5 93 46 0 37
-2 38 -67 25 -32 -6 -46 -5 -54 5 -6 8 -26 14 -43 14 -41 0 -76 10 -76 21 0 5
12 9 26 9 28 0 75 11 162 38 l52 16 0 44 c0 37 -3 43 -17 38 -38 -15 -103 -25
-168 -27 -61 -1 -78 3 -131 30 -34 17 -67 38 -74 46 -7 8 -19 15 -27 15 -8 0
-32 14 -53 30 -22 17 -68 44 -103 60 -60 27 -71 29 -171 26 -94 -4 -111 -7
-153 -32 -27 -15 -54 -36 -62 -47 -12 -17 -15 -18 -23 -3 -13 23 -34 20 -76
-11 -29 -21 -25 -15 18 29 38 38 60 53 70 48 37 -17 107 29 116 77 5 27 2 39
-15 57 l-22 23 73 8 c73 8 106 9 163 3 25 -2 31 1 33 19 3 23 -13 35 -68 47
-14 3 -36 15 -50 26 l-25 21 45 -5 c25 -2 93 -13 152 -25 83 -15 118 -27 152
-50 50 -35 68 -38 86 -16 15 18 53 11 95 -19 51 -37 105 -66 124 -66 26 0 91
-28 91 -40 0 -5 -13 -7 -28 -4 -19 4 -32 1 -41 -10 -20 -24 3 -46 50 -46 l39
0 0 70 0 70 -29 0 c-39 0 -138 39 -145 56 -7 17 -1 17 49 -1 22 -8 59 -14 83
-15 l42 0 0 116 c0 116 0 116 -23 110 -12 -3 -25 -6 -29 -6 -17 0 -7 -40 12
-50 24 -13 25 -23 5 -43 -12 -12 -23 -13 -72 -3 -32 7 -67 17 -78 23 -29 15
-86 35 -118 40 -15 3 -30 9 -33 14 -3 5 -26 9 -52 9 -26 0 -76 5 -112 10 -36
6 -90 13 -120 16 -30 2 -60 6 -67 9 -17 6 -200 -23 -263 -41 -30 -9 -71 -29
-92 -45 -31 -24 -37 -26 -42 -12 -4 9 -2 31 5 50 8 24 16 33 33 33 12 0 30 6
41 14 11 7 38 16 60 19 22 3 68 13 101 22 53 13 77 14 165 4 57 -7 174 -14
259 -16 174 -5 223 4 347 60 l73 32 0 67 0 67 -60 -35 c-33 -19 -75 -40 -93
-46 -17 -6 -36 -14 -42 -18 -37 -27 -131 -35 -387 -33 -218 2 -273 5 -297 18
-42 21 -116 19 -181 -6 -30 -11 -62 -22 -70 -24 -8 -2 -46 30 -84 71 l-70 74
23 21 c13 12 20 28 17 36 -21 52 -18 63 19 98 20 19 42 35 50 35 7 0 29 18 49
41 21 22 42 39 48 37 7 -3 19 2 27 9 82 72 118 90 236 118 66 15 138 36 160
45 22 9 55 20 74 23 38 8 124 48 130 60 2 5 32 22 68 38 36 16 77 37 91 47 15
10 45 24 67 31 65 22 133 81 93 81 -6 0 -19 -6 -27 -14 -9 -8 -63 -35 -121
-61 -58 -26 -113 -54 -122 -62 -25 -22 -118 -31 -118 -11 0 10 19 19 55 28 54
13 83 29 48 26 -26 -2 -28 31 -2 39 16 5 26 2 36 -11 13 -17 17 -16 96 24 45
23 93 42 107 42 15 0 30 4 35 8 6 5 26 15 45 22 51 19 100 73 100 111 0 35 9
35 -124 -8 -43 -13 -90 -23 -104 -20 -14 3 -37 1 -51 -4 -37 -14 -50 5 -23 34
24 25 51 95 45 114 -3 7 6 30 18 50 16 26 23 53 24 89 0 81 -14 85 -76 22 -30
-29 -86 -83 -124 -119 -39 -37 -81 -78 -94 -93 -24 -27 -122 -77 -173 -90 -16
-3 -59 -33 -98 -67 -38 -33 -70 -57 -70 -54 0 8 -66 -28 -131 -72 -31 -21 -88
-60 -127 -86 -109 -74 -230 -224 -265 -328 -11 -31 -21 -43 -38 -46 -37 -6
-61 -34 -55 -63 4 -24 2 -26 -32 -28 -20 -2 -45 -5 -54 -8 -13 -4 -21 2 -28
21 -5 14 -21 50 -35 79 l-25 53 -89 -4 c-55 -2 -92 0 -96 7 -10 16 -53 12 -63
-7 -6 -10 -16 -14 -26 -10 -9 4 -69 -2 -132 -13 -64 -11 -120 -20 -124 -20 -5
0 -15 -7 -24 -15 -11 -12 -14 -32 -10 -85 l4 -70 -59 0 c-52 0 -110 -11 -196
-36 -11 -3 9 12 45 34 82 50 91 63 64 99 -29 38 -82 42 -149 9 -27 -14 -51
-23 -53 -21 -2 2 17 24 41 49 45 47 103 88 180 127 44 23 106 72 120 96 5 8 4
20 -2 27 -9 10 -5 17 14 30 13 9 32 28 42 42 16 25 16 27 -2 40 -10 8 -34 14
-54 14 -34 0 -130 -24 -163 -41 -33 -17 -18 8 20 33 38 26 114 60 217 99 143
53 316 155 365 214 20 24 219 122 319 156 103 36 122 44 184 84 52 33 58 47
26 61 -19 9 -16 13 37 44 41 24 59 41 59 55 0 17 -7 20 -45 20 -25 -1 -62 -5
-82 -9 -47 -10 -51 8 -10 45 32 30 55 38 237 83 158 39 194 45 282 51 76 5
270 34 300 46 13 5 23 15 23 23 0 19 33 10 115 -31 71 -36 133 -48 177 -35 18
5 59 15 91 22 35 8 57 18 57 27 0 18 -17 17 -110 -8 -88 -22 -101 -21 -208 28
-58 26 -150 48 -159 39 -3 -3 -6 -15 -7 -28 -1 -19 -10 -23 -76 -35 -41 -7
-146 -20 -234 -28 -87 -8 -162 -18 -167 -21 -5 -3 -22 -7 -37 -10 -32 -5 -120
-28 -217 -57 -54 -16 -79 -30 -107 -61 -42 -43 -46 -57 -23 -76 11 -9 34 -11
82 -6 76 8 76 4 1 -33 -37 -19 -54 -33 -56 -49 -3 -16 2 -22 17 -22 11 0 22
-4 25 -9 6 -9 -47 -33 -229 -102 -121 -46 -271 -128 -335 -183 -35 -30 -80
-64 -100 -75 -82 -47 -187 -92 -263 -116 -106 -32 -231 -105 -253 -146 -26
-51 -7 -56 86 -25 89 29 170 44 170 30 0 -11 -31 -32 -91 -60 -26 -12 -50 -27
-54 -34 -13 -21 9 -30 45 -20 18 5 36 8 38 5 8 -8 -40 -42 -98 -71 -66 -34
-181 -118 -233 -172 -27 -28 -38 -47 -35 -63 4 -31 36 -28 125 12 70 31 98 36
109 17 7 -12 -42 -58 -62 -58 -20 0 -91 -58 -97 -79 -2 -11 0 -27 7 -36 10
-13 20 -12 91 11 63 22 98 27 168 27 49 -1 91 -3 94 -6 5 -5 8 -30 29 -192 3
-27 12 -69 20 -93 8 -23 14 -53 14 -65 -1 -19 -2 -20 -13 -7 -16 21 -44 14
-88 -20 -32 -25 -40 -27 -80 -20 -24 5 -48 6 -52 3 -16 -10 -44 27 -39 52 4
22 1 25 -26 25 -16 0 -35 -7 -42 -15 -13 -16 -50 -21 -50 -7 0 21 -45 52 -107
72 -37 13 -86 32 -108 44 -22 12 -60 28 -85 35 -25 7 -60 19 -79 28 -24 11
-39 13 -50 6 -35 -22 -22 -38 51 -62 40 -13 107 -38 148 -57 41 -18 86 -36
100 -39 14 -4 38 -18 53 -31 16 -13 35 -24 43 -24 19 0 18 -3 -17 -60 -33 -53
-33 -80 1 -80 13 0 32 19 56 55 20 30 40 55 45 55 20 0 18 -22 -4 -42 -30 -28
-60 -85 -52 -98 12 -19 33 -10 67 28 57 63 83 79 118 74 27 -4 31 -8 25 -26
-31 -97 -36 -126 -31 -184 3 -34 13 -76 22 -92 15 -24 15 -31 4 -44 -10 -14
-9 -22 12 -54 14 -20 30 -47 36 -59 12 -21 11 -22 -17 -12 -17 6 -35 17 -42
25 -6 8 -19 14 -29 14 -10 0 -23 7 -30 15 -7 8 -20 15 -29 15 -9 0 -22 9 -29
20 -17 27 -32 25 -70 -9 -36 -33 -42 -73 -16 -102 12 -14 14 -25 7 -45 l-9
-28 -35 38 c-19 21 -37 45 -40 54 -9 25 1 84 19 104 21 24 8 51 -22 46 -19 -4
-25 0 -29 19 -4 20 -1 24 17 21 11 -1 26 1 33 5 7 5 18 -4 29 -22 19 -33 68
-51 87 -32 7 7 5 21 -9 46 -18 34 -18 37 -2 82 18 51 11 73 -22 73 -20 0 -60
-60 -60 -91 0 -10 -5 -19 -10 -19 -10 0 -6 83 6 123 7 21 -12 47 -33 47 -8 0
-23 -20 -34 -44 -13 -31 -26 -46 -42 -48 -30 -4 -37 -47 -8 -55 28 -7 27 -23
-1 -23 -44 0 -86 22 -91 49 -5 21 -28 38 -123 90 -65 35 -137 80 -161 99 -40
33 -41 37 -27 54 16 17 13 48 -5 48 -5 0 -12 -12 -15 -26 -5 -20 -10 -24 -18
-16 -9 9 -8 18 1 36 16 30 6 53 -15 35 -8 -6 -14 -18 -14 -25 0 -8 -4 -14 -10
-14 -15 0 -12 7 12 40 16 22 19 33 11 41 -8 8 -18 0 -37 -27 -31 -46 -35 -36
-5 12 22 36 18 64 -6 44 -22 -18 -23 21 -2 58 25 43 8 68 -18 28 -10 -14 -22
-26 -27 -26 -5 0 -25 -16 -45 -35 -20 -19 -38 -33 -40 -31 -3 3 13 21 36 41
22 20 43 45 46 56 4 11 18 25 33 30 21 8 36 4 83 -21 68 -36 131 -44 137 -18
2 13 -17 28 -77 57 -44 22 -82 45 -86 51 -3 5 -16 10 -28 10 -29 0 -94 74
-101 116 -7 36 -56 103 -89 121 -12 7 -34 12 -48 13 -23 0 -47 25 -36 37 3 2
55 10 117 18 143 17 148 21 131 111 -7 37 -21 80 -32 95 -17 24 -26 28 -57 25
-53 -5 -115 -17 -127 -25 -17 -12 -32 -7 -58 19 -37 37 -83 136 -96 205 -10
53 -37 156 -96 370 -10 33 -21 86 -26 118 -5 32 -13 66 -19 77 -15 28 -94 291
-103 345 -3 17 -8 37 -12 46 -4 11 5 20 32 32 21 9 63 30 93 47 30 16 58 29
62 30 4 0 8 -12 10 -27 3 -26 6 -28 44 -26 54 2 136 41 149 71 9 20 56 42 91
42 5 0 32 15 60 32 27 18 76 43 109 55 l60 21 -50 1 c-32 1 -65 -6 -89 -19
-22 -10 -43 -17 -49 -13 -6 3 -7 1 -3 -5 8 -14 -44 -42 -79 -42 -40 0 -85 -28
-96 -60 -6 -16 -19 -30 -32 -33 -12 -2 -31 -8 -41 -12 -16 -7 -18 -5 -13 13 3
13 -1 28 -9 36 -18 19 -61 7 -171 -45 -45 -21 -84 -39 -87 -39 -3 0 -6 9 -6
20 0 11 -10 61 -22 110 l-21 90 -32 0 -32 0 18 -57 c11 -31 19 -63 19 -72 0
-15 17 -80 56 -218 8 -29 19 -53 24 -53 5 0 14 -19 20 -42 6 -24 20 -71 31
-104 11 -34 22 -81 24 -105 3 -43 40 -205 55 -244 7 -20 50 -186 76 -295 7
-30 20 -82 28 -115 16 -65 11 -79 -25 -73 -26 3 -22 -8 -100 288 -43 162 -51
196 -69 295 -24 129 -52 242 -70 277 -10 20 -24 65 -30 100 -9 53 -38 157 -81
292 -5 16 -9 44 -9 62 0 48 -9 64 -37 64 -23 0 -25 -3 -20 -32 7 -43 40 -167
68 -248 12 -36 22 -69 24 -75 9 -41 18 -65 25 -65 5 0 11 -26 15 -57 3 -32 10
-67 15 -78 5 -11 11 -36 14 -55 3 -19 8 -44 11 -55 2 -11 11 -56 20 -100 33
-169 99 -453 112 -485 3 -8 6 -18 5 -21 0 -3 6 -28 14 -55 13 -45 13 -50 -3
-61 -28 -21 -42 -15 -52 25 -5 20 -23 89 -39 152 -17 63 -33 131 -36 150 -4
19 -13 64 -22 100 -8 36 -19 94 -24 129 -5 35 -13 73 -16 85 -4 12 -15 66 -26
121 -10 55 -20 109 -23 120 -2 11 -9 47 -15 80 -6 33 -15 67 -20 76 -10 20
-45 168 -62 269 -11 65 -16 75 -35 78 -13 2 -23 -1 -23 -6z m3872 -748 c7 -6
-35 -87 -68 -131 -14 -18 -34 -33 -44 -33 -24 0 -37 -20 -20 -30 7 -5 10 -15
6 -25 -5 -13 -14 -16 -40 -11 -24 5 -37 2 -46 -9 -11 -13 -8 -15 19 -15 34 0
37 -6 18 -32 -11 -14 -20 -15 -60 -6 -46 9 -64 3 -117 -40 -3 -2 3 -8 13 -13
9 -6 17 -16 17 -24 0 -22 -38 -28 -65 -11 -30 20 -35 20 -35 2 0 -19 -21 -26
-42 -14 -13 6 -23 3 -38 -12 -21 -21 -40 -26 -40 -11 0 13 53 71 64 71 6 0 60
25 121 55 106 52 117 61 226 174 115 120 121 126 131 115z m207 -297 c-22 -49
-123 -90 -344 -141 -78 -18 -130 -25 -180 -22 -38 2 -97 -1 -130 -6 -79 -12
-195 -57 -195 -76 0 -11 7 -13 33 -6 17 4 66 7 108 6 67 -3 81 0 113 21 48 33
104 43 124 23 14 -14 11 -17 -32 -36 -26 -11 -51 -20 -55 -20 -4 0 -36 -9 -72
-21 -50 -17 -67 -19 -82 -9 -32 20 -176 2 -213 -27 -30 -23 -32 -23 -37 -4 -7
30 -40 16 -100 -43 -109 -107 -177 -195 -177 -232 0 -23 18 -16 34 14 30 54
31 55 54 41 17 -11 23 -10 37 1 10 8 31 20 49 26 17 6 40 15 51 19 39 15 1
-12 -70 -50 -82 -44 -131 -79 -163 -117 -32 -37 -55 -37 -46 0 9 35 19 58 49
107 13 22 33 56 44 75 31 56 178 182 263 226 15 8 28 18 28 23 0 4 22 22 49
39 70 46 152 62 318 62 132 0 247 16 278 40 6 4 22 10 38 14 36 8 123 49 162
76 17 11 40 20 52 20 20 0 21 -3 12 -23z m-439 -42 c0 -16 -35 -21 -44 -6 -8
12 4 21 26 21 10 0 18 -7 18 -15z m120 -15 c-8 -5 -22 -10 -30 -10 -13 0 -13
1 0 10 8 5 22 10 30 10 13 0 13 -1 0 -10z m-152 -252 c-5 -15 -130 -64 -233
-90 -68 -18 -88 -19 -97 -10 -17 17 -3 25 70 43 31 7 91 25 132 40 81 29 134
37 128 17z m-271 -14 c4 -12 -37 -33 -77 -41 -14 -2 -34 -13 -45 -23 -26 -24
-75 -37 -75 -20 0 49 183 127 197 84z m-2793 -56 c8 -32 7 -38 -4 -38 -5 0
-10 9 -10 20 0 11 -5 20 -11 20 -5 0 -7 5 -4 10 10 17 22 11 29 -12z m2566 16
c0 -12 -46 -43 -64 -44 -23 0 -12 14 26 35 26 15 38 18 38 9z m-2618 -29 c-2
-14 -8 -25 -13 -25 -10 0 -12 34 -2 43 13 14 20 6 15 -18z m2758 -25 c0 -15
-26 -23 -41 -14 -9 5 -7 10 7 15 27 11 34 10 34 -1z m-2674 -29 c-5 -8 -35
-15 -111 -26 -16 -2 -5 4 25 14 61 21 94 26 86 12z m242 -50 c14 -45 15 -66 1
-33 -11 30 -35 23 -31 -9 2 -19 0 -21 -10 -11 -16 16 -28 15 -28 -3 0 -17 -16
-20 -25 -5 -11 18 -35 11 -35 -10 0 -14 -7 -20 -21 -20 -12 0 -47 -7 -78 -15
-31 -8 -72 -17 -91 -20 -41 -7 -82 -17 -163 -39 -70 -19 -67 -19 -67 -3 0 7
-7 22 -15 33 -15 19 -15 19 -30 0 -14 -18 -15 -19 -15 -2 0 13 -5 17 -20 13
-15 -4 -20 0 -20 13 0 15 10 19 58 22 31 2 120 21 197 41 77 21 184 44 238 52
54 8 106 19 115 25 26 14 28 13 40 -29z m2173 19 c-30 -26 -45 -26 -29 0 7 11
22 20 33 20 19 -1 19 -2 -4 -20z m-2736 -48 c-13 -12 -124 -37 -131 -30 -3 3
23 13 58 21 79 19 84 19 73 9z m359 -128 c3 -9 6 -19 6 -24 0 -14 -42 -19 -55
-7 -11 10 -10 15 2 30 20 21 39 22 47 1z m1819 -32 c48 -96 115 -197 145 -219
17 -14 32 -33 32 -42 0 -10 11 -28 25 -41 14 -13 25 -30 25 -39 0 -11 -4 -9
-16 7 -8 12 -24 26 -34 32 -26 14 -70 2 -71 -19 0 -11 -3 -9 -9 7 -11 26 -39
28 -82 6 -28 -15 -32 -15 -40 0 -5 9 -15 16 -23 16 -8 0 -21 15 -29 34 -8 19
-25 40 -38 47 -12 7 -54 36 -93 64 -38 29 -103 71 -142 95 -40 23 -73 46 -73
50 0 4 33 12 73 19 39 7 80 15 90 18 14 4 37 -14 85 -66 36 -39 73 -71 82 -71
10 0 23 -7 30 -15 7 -8 19 -15 27 -15 11 0 13 7 8 32 -4 18 -11 39 -15 48 -5
8 -14 30 -20 48 -7 17 -16 32 -21 32 -5 0 -9 3 -9 8 0 4 17 6 38 4 31 -3 40
-10 55 -40z m-1952 -45 c-6 -6 -11 -8 -11 -4 0 4 -9 3 -21 -3 -11 -6 -30 -14
-42 -17 -12 -2 -32 -7 -44 -10 -26 -6 -32 17 -10 34 10 8 70 28 112 38 16 3
28 -26 16 -38z m246 16 c18 -10 36 -33 47 -62 10 -25 21 -56 26 -67 5 -12 23
-38 40 -58 l32 -36 -25 -24 c-24 -22 -25 -22 -38 -5 -8 12 -20 16 -35 13 -15
-4 -26 1 -36 15 -15 21 -28 18 -28 -6 0 -7 11 -18 25 -23 26 -10 34 -22 13
-19 -34 4 -40 -1 -35 -29 3 -15 2 -34 -4 -42 -5 -10 -9 35 -9 123 l0 138 -32
13 c-26 11 -37 11 -64 0 -42 -18 -41 -18 -54 6 -9 17 -6 21 24 34 18 8 37 19
40 25 4 6 12 9 17 6 5 -4 17 -1 26 4 25 14 37 13 70 -6z m2028 -13 c18 -20 17
-20 -10 -20 -23 0 -26 -2 -15 -15 16 -19 -3 -45 -31 -45 -11 0 -19 -4 -19 -8
0 -14 23 -32 41 -32 9 0 22 -7 29 -15 11 -14 10 -14 -13 -6 -28 11 -57 5 -57
-11 0 -5 13 -14 29 -19 16 -6 32 -17 35 -25 3 -8 16 -14 29 -14 17 0 36 -14
61 -44 20 -24 36 -47 36 -51 0 -4 -12 7 -26 24 -14 17 -32 31 -39 31 -24 0
-28 -21 -7 -43 10 -12 28 -35 38 -52 l18 -30 -22 19 c-30 26 -50 9 -29 -25 18
-29 32 -73 47 -152 7 -33 22 -70 37 -87 18 -22 21 -30 10 -30 -17 0 -67 96
-67 127 0 11 -6 27 -13 37 -11 15 -15 16 -25 3 -10 -11 -7 -28 11 -83 13 -38
27 -76 30 -84 5 -11 1 -15 -16 -16 -20 -1 -23 2 -19 27 4 24 1 29 -17 29 -23
0 -28 -19 -9 -38 16 -16 8 -22 -41 -26 -48 -4 -56 -9 -47 -32 6 -17 21 -17
114 2 19 4 32 2 32 -3 0 -9 -25 -16 -142 -38 -124 -24 -201 -10 -220 41 -8 22
-16 31 -27 27 -13 -4 -13 -3 -2 5 8 6 11 17 8 26 -5 13 -3 14 12 4 12 -7 19
-22 18 -37 -3 -35 31 -49 112 -48 64 2 66 3 69 29 2 16 11 30 23 33 12 4 19
15 19 31 0 13 1 27 1 32 1 4 -7 12 -17 17 -14 7 -18 19 -16 41 3 27 -1 32 -32
41 -19 6 -35 8 -34 4 1 -3 -2 -14 -7 -24 -7 -17 -8 -17 -20 0 -11 14 -18 16
-41 8 -16 -6 -30 -19 -32 -30 -10 -50 -25 -46 -48 12 -13 32 -24 63 -24 68 0
6 -7 21 -16 33 -12 18 -19 20 -29 12 -10 -9 -14 -6 -17 12 -4 30 -71 63 -160
79 l-67 12 -35 -38 c-19 -21 -38 -52 -42 -69 -3 -17 -9 -35 -12 -41 -3 -5 -7
-18 -8 -30 -1 -11 -9 -55 -18 -97 -9 -42 -16 -102 -16 -131 0 -51 2 -57 36
-82 29 -22 38 -25 45 -14 6 10 9 11 9 2 0 -8 13 -13 29 -13 17 0 31 -6 35 -16
4 -11 17 -15 44 -13 20 1 46 1 56 0 29 -2 7 -19 -29 -23 l-30 -3 3 -65 c2 -45
8 -69 20 -77 19 -16 94 -17 109 -2 16 16 69 14 97 -4 14 -10 32 -17 40 -17 8
0 17 -4 20 -9 7 -10 -81 -8 -135 3 -71 15 -108 -33 -46 -59 l32 -14 -42 -1
c-36 0 -51 8 -120 63 -43 34 -93 73 -111 85 -18 13 -39 37 -47 53 -11 20 -23
29 -39 29 -19 0 -28 10 -45 49 -25 59 -27 113 -5 146 13 20 14 28 4 40 -21 25
-39 17 -61 -27 -21 -41 -21 -55 -4 -148 5 -25 4 -31 -3 -21 -14 20 -25 123
-17 160 7 32 43 61 89 70 16 4 34 15 40 26 6 11 16 24 22 30 6 5 16 39 22 75
13 69 59 170 79 170 6 0 21 12 32 28 17 22 20 24 21 8 0 -14 5 -17 25 -12 14
4 25 2 25 -4 0 -24 32 -7 47 25 9 19 21 35 25 35 5 0 4 -9 -2 -20 -6 -11 -8
-25 -5 -30 10 -15 35 -12 35 5 0 8 5 15 10 15 6 0 10 -5 10 -10 0 -23 50 -60
80 -60 26 0 30 -3 30 -28 0 -62 92 -103 169 -76 74 25 98 42 115 79 24 50 13
104 -30 156 -19 23 -34 46 -34 53 0 7 -16 27 -35 46 -43 41 -44 52 -5 48 33
-3 90 43 90 74 0 24 22 23 45 -2z m-2267 -72 c-2 -17 -9 -22 -25 -21 -13 2
-37 -6 -54 -16 -33 -20 -59 -18 -59 5 0 16 26 31 77 43 60 14 65 13 61 -11z
m40 -61 c3 -13 -4 -17 -27 -17 -16 0 -33 -4 -36 -10 -6 -10 -85 -9 -85 1 0 7
122 48 135 45 6 -2 11 -10 13 -19z m101 1 c-2 -13 3 -33 10 -46 6 -12 15 -45
18 -72 5 -43 3 -50 -11 -50 -10 0 -14 5 -11 11 8 12 -23 49 -41 49 -26 0 -25
20 2 30 l27 11 -22 22 c-30 33 -28 67 5 67 21 0 25 -4 23 -22z m-168 -77 c-27
-21 -14 -36 22 -26 20 7 21 6 6 -10 -15 -16 -19 -16 -48 -1 -49 26 -38 52 24
55 18 0 18 -1 -4 -18z m2720 -56 c0 -5 -13 -13 -28 -16 -53 -11 -113 -48 -113
-70 0 -32 -25 -16 -28 18 -2 22 2 32 15 37 10 4 38 15 63 26 47 20 90 22 91 5z
m-577 -66 c-3 -5 -10 -7 -15 -3 -5 3 -7 10 -3 15 3 5 10 7 15 3 5 -3 7 -10 3
-15z m-41 -49 c9 0 19 -4 22 -10 7 -11 -24 -13 -49 -4 -9 3 -16 16 -16 28 1
20 2 20 14 4 7 -10 20 -18 29 -18z m-1840 -22 c23 -50 14 -82 -29 -103 -33
-15 -36 -15 -63 5 -17 11 -32 34 -36 51 -9 42 30 84 77 84 28 0 36 -5 51 -37z
m140 -13 c-15 -19 -30 -30 -32 -24 -2 6 9 22 25 35 39 31 40 30 7 -11z m1414
29 c-3 -3 -12 -4 -19 -1 -8 3 -5 6 6 6 11 1 17 -2 13 -5z m608 -66 c23 -83 60
-154 86 -169 17 -9 19 -13 8 -20 -14 -8 -27 3 -65 57 -15 22 -18 32 -35 112
-4 23 -13 51 -19 61 -12 24 -13 34 -1 27 4 -3 16 -34 26 -68z m-763 5 c-11
-16 -22 -39 -25 -53 -4 -24 -4 -24 -6 3 0 15 9 41 21 57 27 38 37 31 10 -7z
m818 -3 c0 -11 -2 -20 -4 -20 -2 0 -6 9 -9 20 -3 11 -1 20 4 20 5 0 9 -9 9
-20z m699 -1 c81 -26 207 -74 226 -86 24 -16 14 -16 -38 -1 -35 10 -41 10 -53
-6 -12 -17 -14 -17 -34 2 -27 25 -104 49 -200 62 -41 6 -93 13 -115 17 -55 7
-154 -25 -238 -76 -57 -34 -67 -38 -78 -25 -10 12 -6 21 21 49 44 46 92 67
170 76 84 10 293 2 339 -12z m-2753 -16 c-10 -10 -19 5 -10 18 6 11 8 11 12 0
2 -7 1 -15 -2 -18z m1361 2 c-5 -11 0 -13 23 -8 21 4 30 1 32 -8 2 -25 8 -58
22 -124 9 -43 53 -186 59 -192 4 -3 27 -7 51 -8 25 -1 52 -7 60 -14 9 -8 25
-11 37 -8 11 3 39 -1 60 -8 22 -8 64 -15 94 -16 69 -3 79 -8 66 -41 -5 -14
-15 -29 -21 -33 -5 -3 -8 -11 -5 -16 4 -5 0 -9 -8 -9 -8 0 -22 -9 -32 -20 -10
-11 -28 -20 -40 -20 -12 0 -31 -9 -44 -21 -17 -16 -25 -18 -36 -9 -8 7 -22 10
-30 6 -18 -6 -55 27 -55 49 0 26 -93 20 -140 -10 -58 -36 -75 -33 -88 16 -9
35 -8 43 9 60 10 10 24 19 29 19 6 0 10 10 10 23 0 31 -38 51 -78 42 -37 -8
-50 9 -28 34 16 17 16 19 0 25 -9 4 -24 0 -34 -9 -9 -8 -20 -15 -23 -15 -10 0
-8 63 4 119 8 40 7 55 -5 80 -18 34 -22 96 -6 86 6 -4 8 -10 5 -15 -3 -4 1
-13 9 -19 15 -12 27 -2 40 33 5 15 9 16 21 6 8 -7 16 -9 17 -4 0 5 2 14 3 19
2 6 3 13 4 18 0 4 6 7 12 7 6 0 9 -7 6 -15z m167 -72 c10 -29 16 -63 14 -75
-2 -17 -8 -7 -20 32 -10 30 -20 69 -24 85 -10 47 11 18 30 -42z m603 -52 c10
-6 14 -10 8 -10 -17 0 -59 42 -72 72 -21 46 -15 44 16 -5 16 -25 38 -51 48
-57z m-372 49 c3 -5 1 -10 -4 -10 -6 0 -11 5 -11 10 0 6 2 10 4 10 3 0 8 -4
11 -10z m600 -59 c-16 -15 -25 -17 -45 -9 l-25 10 35 18 c42 22 65 10 35 -19z
m-725 -11 c0 -5 -4 -10 -10 -10 -5 0 -10 5 -10 10 0 6 5 10 10 10 6 0 10 -4
10 -10z m70 0 c0 -5 -4 -10 -10 -10 -5 0 -10 5 -10 10 0 6 5 10 10 10 6 0 10
-4 10 -10z m555 -56 c9 -9 14 -18 12 -20 -7 -8 -35 7 -41 22 -7 19 9 18 29 -2z
m-590 -14 c3 -5 2 -10 -4 -10 -5 0 -13 5 -16 10 -3 6 -2 10 4 10 5 0 13 -4 16
-10z m445 -10 c-51 -12 -156 -23 -149 -16 10 10 89 24 139 24 l45 0 -35 -8z
m85 -49 c3 -5 1 -12 -5 -16 -5 -3 -17 -21 -26 -40 -9 -19 -21 -35 -27 -35 -7
0 -7 4 1 12 15 15 16 38 2 38 -6 0 -22 -12 -37 -26 -14 -14 -27 -23 -30 -20
-3 3 11 20 31 38 20 17 36 38 36 45 0 15 46 18 55 4z m-169 -36 c-21 -19 -42
-32 -47 -30 -8 5 -25 -40 -33 -89 -6 -35 -33 -66 -58 -66 -23 0 -23 1 3 49 15
29 25 38 37 34 12 -3 14 -2 4 4 -34 25 57 132 113 132 16 0 13 -6 -19 -34z
m-276 -35 c0 -5 -2 -10 -4 -10 -3 0 -8 5 -11 10 -3 6 -1 10 4 10 6 0 11 -4 11
-10z m114 -6 c5 -12 2 -15 -10 -10 -8 3 -18 6 -20 6 -3 0 -2 5 1 10 9 15 22
12 29 -6z m764 -45 c87 -43 121 -90 87 -119 -18 -15 -19 -63 -2 -110 19 -53
25 -60 60 -60 55 0 82 -21 82 -60 0 -32 -3 -35 -32 -38 -46 -5 -71 13 -79 54
-6 32 -9 35 -33 29 -14 -3 -32 -13 -40 -20 -13 -12 -12 -19 5 -50 10 -20 27
-43 36 -51 26 -25 91 -29 139 -10 l43 17 49 -49 50 -50 -39 -20 c-21 -11 -66
-24 -99 -30 -33 -6 -68 -14 -79 -18 -18 -7 -18 -6 -1 19 17 26 17 27 -4 27
-12 0 -30 -5 -41 -12 -10 -7 -22 -9 -26 -5 -8 8 35 51 60 60 27 11 18 26 -22
37 -48 15 -65 28 -84 65 -11 21 -13 37 -7 54 5 13 7 32 4 42 -5 14 -1 19 14
19 28 0 27 25 -4 123 -37 117 -50 138 -78 128 -30 -11 -32 -38 -7 -100 28 -72
25 -83 -9 -30 -15 25 -51 62 -79 82 -45 34 -53 36 -76 26 -14 -7 -26 -16 -26
-20 0 -11 46 -56 94 -92 50 -38 38 -46 -22 -15 -49 26 -92 24 -92 -4 1 -25 39
-58 82 -73 112 -40 133 -58 134 -118 1 -27 7 -54 13 -60 17 -17 13 -25 -12
-23 -17 1 -23 6 -20 17 8 28 -14 31 -56 9 -22 -11 -48 -20 -58 -20 -11 0 -35
-8 -55 -18 -33 -17 -37 -18 -51 -3 -8 9 -34 27 -57 41 -32 19 -49 39 -67 78
-27 58 -26 70 6 50 17 -11 23 -10 37 4 15 15 15 18 0 39 -20 29 -21 63 -2 79
22 18 8 43 -20 36 -13 -4 -24 -4 -24 -1 0 10 73 85 83 85 6 0 18 6 26 14 22
19 91 57 121 67 56 17 116 10 178 -22z m-600 3 c18 5 19 3 10 -12 -15 -23 -48
-14 -48 14 0 16 2 18 9 7 5 -8 18 -12 29 -9z m205 -47 c-10 -14 -35 -30 -56
-37 -20 -6 -48 -25 -61 -42 -13 -17 -44 -41 -67 -53 -87 -42 -112 -53 -127
-53 -24 0 33 39 67 46 17 4 36 13 42 20 6 8 16 14 22 14 6 0 28 17 49 37 31
30 60 48 146 92 2 0 -5 -10 -15 -24z m-1203 -21 c0 -8 -4 -12 -10 -9 -5 3 -10
13 -10 21 0 8 5 12 10 9 6 -3 10 -13 10 -21z m1010 22 c0 -2 -7 -7 -16 -10 -8
-3 -12 -2 -9 4 6 10 25 14 25 6z m-1050 -58 c8 -24 31 -63 53 -86 28 -32 36
-47 28 -55 -6 -6 -12 -9 -14 -6 -2 2 -18 23 -35 46 -48 61 -78 143 -54 143 5
0 15 -19 22 -42z m1890 -25 c0 -20 -20 -12 -38 16 -15 22 -15 22 11 10 15 -7
27 -19 27 -26z m-915 7 c-3 -5 -11 -10 -16 -10 -6 0 -7 5 -4 10 3 6 11 10 16
10 6 0 7 -4 4 -10z m-826 -48 c117 -121 185 -163 264 -163 83 0 191 -18 207
-35 13 -13 -1 -14 -135 -12 l-150 4 -55 41 c-60 45 -118 99 -165 153 -44 50
-49 60 -30 60 10 0 38 -22 64 -48z m681 -2 c11 -7 3 -10 -30 -9 -34 0 -40 2
-25 9 27 12 37 12 55 0z m1303 3 c-7 -2 -19 -2 -25 0 -7 3 -2 5 12 5 14 0 19
-2 13 -5z m-920 -63 c-4 -39 -8 -49 -14 -35 -4 11 -5 31 -2 45 14 72 25 65 16
-10z m830 50 c-29 -4 -60 -11 -69 -14 -19 -7 -37 2 -29 15 4 5 39 8 78 8 l72
-1 -52 -8z m-2196 -56 c40 -45 35 -59 -7 -19 -20 19 -30 24 -30 14 -1 -10 -5
-9 -15 5 -38 50 7 49 52 0z m1252 3 c-13 -13 -28 -32 -34 -41 -7 -13 -28 -19
-75 -22 l-65 -4 48 15 c27 9 70 31 95 50 52 38 66 39 31 2z m-321 2 c-16 -11
-65 -12 -71 -1 -3 4 15 7 40 8 27 1 39 -2 31 -7z m107 -9 c-3 -5 -12 -10 -18
-10 -7 0 -6 4 3 10 19 12 23 12 15 0z m265 -60 c0 -16 -5 -30 -10 -30 -14 0
-24 26 -16 45 10 26 26 16 26 -15z m-371 -17 c23 -6 22 -7 -15 -29 -49 -30
-84 -32 -84 -4 0 33 44 48 99 33z m301 -3 c0 -5 -4 -10 -10 -10 -5 0 -10 5
-10 10 0 6 5 10 10 10 6 0 10 -4 10 -10z m-130 -36 c0 -4 -13 -22 -30 -41 -16
-18 -30 -38 -30 -43 0 -16 -20 -12 -26 5 -9 21 15 73 34 78 27 7 52 8 52 1z
m111 -35 c16 -17 29 -37 29 -45 0 -8 0 -17 0 -21 1 -14 -48 -12 -60 2 -8 10
-8 19 0 35 20 38 -8 53 -43 23 -19 -17 -20 -17 -9 4 11 20 26 30 45 32 5 1 22
-13 38 -30z m119 -24 c0 -16 43 -53 93 -80 39 -21 46 -35 24 -54 -11 -8 -20
-3 -43 20 -16 18 -48 40 -71 51 -24 10 -43 22 -43 26 0 4 -3 17 -6 29 -4 15
-1 22 13 25 23 6 33 0 33 -17z m-401 -46 c5 -16 6 -29 1 -29 -15 0 -50 51 -50
73 0 19 1 19 19 3 11 -10 24 -31 30 -47z m-52 -37 c20 -18 33 -36 30 -39 -13
-12 -55 -4 -88 17 -41 27 -67 87 -40 93 16 3 29 -6 98 -71z m-204 32 c15 -4
27 -10 27 -15 0 -15 -33 -9 -70 12 -28 16 -30 19 -10 14 14 -3 37 -8 53 -11z
m497 -16 c13 5 13 3 1 -12 -12 -15 -12 -19 2 -33 15 -15 18 -15 35 0 36 33
123 14 161 -34 22 -29 56 -107 49 -114 -3 -3 -17 22 -32 54 -35 76 -51 90 -74
67 -14 -13 -14 -20 -4 -34 7 -9 22 -37 35 -62 12 -25 25 -46 30 -48 21 -10 1
-17 -47 -17 -41 0 -62 6 -85 23 -17 12 -37 22 -45 22 -10 0 -13 6 -10 15 4 8
0 22 -7 31 -7 8 -15 32 -18 52 -6 34 -9 37 -44 40 -21 2 -45 -2 -53 -9 -8 -6
-17 -9 -20 -6 -3 3 13 16 35 29 22 13 41 29 41 36 0 9 5 10 18 4 9 -5 24 -7
32 -4z m530 -8 c0 -15 -7 -20 -25 -20 -27 0 -32 9 -13 28 18 18 38 14 38 -8z
m110 7 c0 -2 -10 -12 -22 -23 l-23 -19 19 23 c18 21 26 27 26 19z m-810 -68
c0 -3 -9 -9 -21 -12 -17 -5 -20 -2 -15 16 3 11 0 28 -7 36 -6 9 1 5 16 -8 15
-14 27 -28 27 -32z m-1890 21 c0 -5 -4 -10 -10 -10 -5 0 -14 -9 -20 -21 -9
-16 -8 -30 5 -62 21 -53 8 -80 -52 -103 -69 -27 -100 -77 -70 -118 12 -16 15
-16 52 0 22 9 52 25 68 36 28 20 30 19 27 -23 -1 -19 5 -28 22 -34 17 -6 3
-10 -52 -15 -42 -4 -90 -14 -107 -23 -19 -10 -43 -14 -64 -11 -30 5 -72 -2
-134 -21 -46 -14 -71 101 -29 135 18 16 31 5 16 -13 -13 -16 0 -38 33 -55 15
-8 29 -5 65 16 68 40 72 46 65 94 -6 41 -4 45 39 90 39 39 46 52 46 87 0 37 3
41 33 50 44 13 67 13 67 1z m1678 -40 c16 0 15 -12 -1 -34 -16 -22 -56 -9 -80
28 -21 31 -21 37 -3 30 8 -3 17 0 21 6 5 8 14 5 29 -9 12 -12 28 -21 34 -21z
m1489 8 c40 -43 47 -67 28 -89 -15 -15 -15 -22 -2 -61 9 -27 15 -88 16 -162 2
-102 0 -118 -13 -113 -9 4 -28 0 -43 -8 -15 -8 -33 -15 -38 -15 -6 0 -20 -7
-32 -15 l-21 -15 21 -43 c26 -50 32 -77 17 -77 -5 0 -10 5 -10 10 0 6 -17 10
-39 10 -21 0 -43 6 -49 13 -10 12 -20 67 -25 142 -5 68 -15 88 -43 81 -19 -5
-26 0 -40 26 -9 18 -22 40 -29 48 -12 15 -27 60 -19 60 2 0 18 -7 36 -16 29
-14 58 -52 58 -77 0 -5 13 -22 30 -38 26 -26 32 -28 50 -17 12 8 20 23 20 39
0 15 3 40 6 56 8 42 -45 96 -89 91 -51 -5 -42 19 9 26 46 6 48 5 81 -34 30
-34 37 -38 55 -29 15 8 18 17 13 37 -8 32 -40 69 -67 78 -18 5 -18 6 1 27 60
64 71 79 66 88 -15 23 24 6 52 -23z m-743 -58 l16 -45 -30 33 c-18 19 -30 43
-30 59 0 24 2 25 14 13 7 -8 21 -35 30 -60z m116 38 c40 -16 58 -28 57 -40 -1
-16 -5 -16 -99 -9 -15 1 -48 47 -48 66 0 11 34 4 90 -17z m-1489 -40 c-12 -32
-27 -42 -86 -56 -75 -19 -111 -62 -120 -144 -7 -68 -24 -91 -103 -138 -41 -25
-48 -44 -29 -74 19 -29 70 -39 112 -21 28 11 88 66 119 109 10 15 26 20 66 21
50 1 56 4 94 47 46 52 79 65 84 32 2 -15 -11 -30 -53 -57 -66 -44 -74 -77 -26
-105 17 -9 32 -25 35 -34 7 -28 31 -31 79 -9 84 38 83 21 -2 -29 -73 -44 -89
-50 -130 -48 -25 2 -51 9 -57 17 -8 10 -23 12 -52 9 -22 -3 -44 -2 -49 3 -12
12 -47 16 -238 26 -159 8 -158 8 -191 -2 -15 -5 -28 0 -42 15 -19 21 -29 22
-129 20 -59 -2 -124 -2 -143 -1 l-35 2 26 14 c27 14 40 39 58 110 19 72 12 78
-56 50 -25 -11 -33 -19 -26 -26 18 -18 1 -61 -40 -100 -22 -22 -46 -39 -53
-39 -8 0 -37 -11 -66 -25 -37 -18 -54 -22 -59 -13 -4 6 -22 11 -40 10 -73 -2
-79 43 -11 86 43 28 55 31 137 33 94 2 115 9 115 40 0 11 -6 19 -12 19 -22 1
32 39 70 50 20 6 71 14 112 17 76 5 154 34 229 84 19 13 32 19 29 13 -2 -5
-13 -28 -24 -51 -16 -36 -24 -43 -49 -43 -41 -1 -75 -31 -75 -67 0 -61 53 -70
137 -23 29 17 58 30 65 30 25 1 65 46 76 85 17 60 76 125 113 125 16 0 42 8
56 17 22 15 182 54 191 48 1 -1 -2 -13 -7 -27z m1671 0 c-7 -7 -12 -8 -12 -2
0 14 12 26 19 19 2 -3 -1 -11 -7 -17z m276 5 c-4 -22 -22 -20 -26 1 -2 10 3
16 13 16 10 0 15 -7 13 -17z m-1223 -3 c4 -6 -7 -10 -25 -10 -18 0 -29 4 -25
10 3 6 15 10 25 10 10 0 22 -4 25 -10z m1178 -20 c4 -14 0 -20 -11 -19 -24 1
-70 17 -54 18 7 1 20 8 29 16 17 18 29 13 36 -15z m-303 -26 c0 -14 -3 -15
-17 -3 -10 7 -20 15 -22 16 -2 2 5 3 17 3 14 0 22 -6 22 -16z m173 -8 c-6 -29
-30 -41 -49 -25 -21 17 -17 37 9 42 42 8 44 7 40 -17z m-777 3 c-10 -6 -32
-13 -50 -15 -17 -3 -46 -7 -63 -10 -22 -4 -33 -2 -33 5 0 17 32 26 102 29 50
1 59 0 44 -9z m429 1 c3 -5 2 -10 -4 -10 -5 0 -13 5 -16 10 -3 6 -2 10 4 10 5
0 13 -4 16 -10z m-625 -9 c0 -9 -24 -21 -41 -21 -16 0 -10 18 9 23 28 8 32 7
32 -2z m780 -52 c0 -14 39 -49 55 -49 6 0 15 4 21 10 15 15 54 -16 70 -56 8
-18 25 -50 39 -70 l25 -37 -27 -18 c-15 -10 -31 -15 -35 -13 -5 3 -21 -2 -35
-11 -22 -15 -25 -15 -20 -2 3 8 0 22 -6 31 -10 12 -15 13 -29 3 -9 -7 -18 -22
-21 -32 -2 -11 -3 -1 -1 21 4 51 -2 57 -32 37 -16 -10 -24 -11 -24 -4 0 7 -4
9 -10 6 -5 -3 -12 -28 -16 -55 -10 -76 -25 -59 -20 22 4 57 1 77 -11 90 -9 10
-18 30 -19 46 -10 81 -11 77 26 83 56 10 70 10 70 -2z m-2874 -65 c-3 -8 -12
-14 -20 -14 -12 0 -12 5 -3 30 9 24 13 27 20 14 5 -8 6 -22 3 -30z m764 -68
c0 -3 -4 -8 -10 -11 -5 -3 -10 -1 -10 4 0 6 5 11 10 11 6 0 10 -2 10 -4z
m2430 -101 c0 -8 -4 -15 -10 -15 -5 0 -10 7 -10 15 0 8 5 15 10 15 6 0 10 -7
10 -15z m-1421 1 c-9 -9 -99 -45 -99 -40 0 6 81 43 94 44 5 0 7 -2 5 -4z
m-1755 -78 c19 -26 20 -38 6 -38 -6 0 -20 16 -31 35 -12 19 -28 35 -37 35 -13
0 -12 3 3 20 18 20 18 20 31 -5 7 -14 20 -35 28 -47z m3089 47 c-7 -21 -13
-19 -13 6 0 11 4 18 10 14 5 -3 7 -12 3 -20z m-1448 -25 c-3 -5 -12 -10 -18
-10 -7 0 -6 4 3 10 19 12 23 12 15 0z m-1767 -29 c2 -6 10 -11 17 -11 16 0 38
-34 54 -83 7 -20 21 -42 31 -47 15 -8 19 -21 18 -62 -1 -45 -5 -53 -31 -67
-15 -9 -59 -35 -95 -59 -37 -23 -107 -63 -156 -88 -79 -41 -91 -45 -112 -33
-13 7 -24 19 -24 26 0 12 -16 44 -68 140 -8 14 -34 39 -58 56 -24 17 -44 34
-44 38 0 6 31 22 152 81 10 4 20 8 23 8 9 0 5 -49 -5 -55 -5 -3 -10 -10 -10
-15 0 -20 49 -33 133 -36 48 -2 92 -6 97 -9 5 -3 20 -1 32 6 l22 12 -26 21
c-14 12 -33 35 -42 53 -8 17 -23 38 -31 47 -23 22 -102 21 -129 -1 -20 -18
-20 -18 0 10 10 16 46 42 79 58 50 24 69 28 115 25 30 -3 56 -10 58 -15z
m1880 -23 c-25 -24 -64 -78 -88 -120 -23 -43 -47 -78 -53 -78 -6 0 -20 -8 -31
-17 -20 -17 -20 -17 0 7 12 14 33 38 48 54 15 16 25 34 23 40 -9 26 -40 14
-90 -36 -30 -29 -75 -71 -101 -92 -25 -22 -49 -50 -52 -63 -9 -33 10 -71 36
-75 22 -3 21 -3 -4 -27 l-25 -24 -11 27 c-10 27 -12 28 -63 21 -28 -4 -61 -12
-72 -17 -11 -5 -4 3 15 18 19 15 51 44 70 63 20 20 61 56 93 80 32 25 65 57
73 72 8 15 21 32 29 37 9 4 45 37 81 73 56 54 111 88 163 98 2 1 -17 -18 -41
-41z m-158 28 c0 -2 -7 -7 -16 -10 -8 -3 -12 -2 -9 4 6 10 25 14 25 6z m580
-6 c0 -5 -5 -10 -11 -10 -5 0 -7 5 -4 10 3 6 8 10 11 10 2 0 4 -4 4 -10z m984
2 c2 -4 1 -14 -3 -21 -6 -9 -10 -7 -14 8 -5 20 7 29 17 13z m-1629 -32 c-3 -6
-21 -17 -38 -26 -32 -16 -32 -16 -12 3 17 17 36 28 53 32 2 1 0 -4 -3 -9z
m391 -5 c10 -8 31 -15 46 -15 15 0 39 -5 53 -12 23 -10 24 -13 11 -33 -8 -12
-16 -37 -18 -56 l-3 -34 -50 3 c-27 2 -56 7 -65 12 -8 4 -37 11 -65 14 -92 13
-91 11 -34 77 54 63 85 74 125 44z m449 -20 c28 -10 57 -23 65 -30 8 -7 31
-18 51 -24 20 -7 45 -21 55 -33 11 -11 37 -29 60 -39 81 -37 144 -104 144
-155 0 -7 -13 -29 -30 -47 -16 -19 -30 -39 -30 -44 0 -6 -8 -18 -19 -27 -17
-16 -19 -16 -24 6 -6 23 15 68 33 68 5 0 12 9 15 21 7 22 -18 59 -42 59 -7 0
-13 4 -13 9 0 5 -37 35 -82 67 -46 31 -92 64 -103 74 -11 9 -40 25 -65 35 -25
10 -53 27 -63 37 -14 14 -27 17 -55 12 -20 -4 -44 -13 -53 -20 -8 -8 -20 -14
-25 -14 -25 0 -85 -23 -100 -38 -13 -13 -16 -13 -13 -2 3 8 20 23 39 32 18 9
38 22 43 27 6 6 18 11 27 11 9 0 25 9 36 21 22 24 67 22 149 -6z m-2026 2 c8
-10 1 -23 -32 -53 -66 -62 -73 -66 -73 -46 -1 9 -3 22 -5 28 -4 10 76 81 92
83 4 1 11 -5 18 -12z m3070 -39 c-14 -27 -19 -22 -19 19 0 34 1 35 14 18 10
-14 11 -25 5 -37z m-3204 26 c-9 -9 -18 -14 -21 -11 -9 9 6 27 22 27 13 0 13
-2 -1 -16z m425 -7 c76 -21 103 -23 250 -21 128 2 172 0 197 -12 25 -11 47
-13 105 -5 41 5 77 5 82 0 5 -5 8 -10 5 -12 -15 -13 -172 -96 -214 -113 -27
-11 -73 -33 -102 -47 -28 -15 -85 -40 -125 -56 -40 -16 -99 -41 -132 -56 -84
-38 -426 -160 -431 -153 -13 20 -49 166 -51 210 -2 31 -5 62 -6 68 -2 7 6 17
17 23 11 7 49 38 85 71 36 32 89 70 118 83 29 14 55 29 58 34 9 15 54 10 144
-14z m935 -6 c-30 -29 -75 -50 -75 -34 0 7 86 61 100 62 2 1 -9 -12 -25 -28z
m-1515 -5 c0 -11 -19 -15 -25 -6 -3 5 1 10 9 10 9 0 16 -2 16 -4z m1365 -21
c-16 -13 -34 -24 -39 -25 -5 0 -47 -23 -94 -51 -46 -28 -101 -58 -121 -66 -87
-36 -207 -98 -214 -110 -5 -7 -12 -11 -17 -8 -5 3 -46 -13 -92 -35 -46 -22
-90 -40 -99 -40 -15 0 -142 -49 -234 -90 -42 -19 -152 -61 -195 -76 -25 -8
-52 -18 -60 -23 -9 -5 -31 -12 -50 -16 -19 -4 -39 -10 -45 -14 -19 -12 -101
-30 -137 -31 -20 0 -49 -5 -65 -11 -29 -11 -46 -14 -178 -29 -44 -5 -90 -12
-103 -16 -17 -5 -21 -3 -16 9 4 11 34 18 107 27 104 13 251 47 412 95 50 15
104 31 120 35 49 11 249 82 260 92 5 4 15 8 23 8 8 0 55 20 106 43 50 24 103
47 118 51 15 3 103 43 195 87 92 44 192 92 220 105 29 14 55 29 58 34 3 5 18
11 33 15 15 3 48 19 72 35 54 36 77 39 35 5z m-1725 6 c0 -6 -5 -13 -10 -16
-8 -5 -8 -11 0 -20 14 -17 0 -26 -28 -18 -27 7 -27 6 1 37 23 27 37 33 37 17z
m3195 -12 c6 -6 3 -16 -8 -26 -16 -16 -18 -15 -44 9 -16 14 -35 28 -43 31 -8
3 8 3 35 0 28 -3 54 -10 60 -14z m205 -14 c5 -14 21 -30 35 -35 35 -13 31 -20
-10 -20 -28 0 -37 5 -45 24 -5 13 -14 27 -20 31 -13 8 -3 25 16 25 8 0 19 -11
24 -25z m-2920 -46 c0 -24 -31 -89 -43 -89 -22 0 -77 54 -77 77 0 28 25 41 51
25 15 -10 20 -8 29 9 9 16 14 18 26 8 8 -6 14 -20 14 -30z m2648 -18 c12 -11
22 -26 22 -34 0 -8 9 -26 21 -41 16 -20 17 -26 6 -26 -15 0 -32 -29 -22 -38 3
-3 5 0 5 6 0 7 5 12 10 12 6 0 10 -6 9 -12 -3 -26 1 -38 14 -38 8 0 19 -16 25
-36 l11 -35 -34 25 c-37 29 -47 31 -76 15 -19 -10 -19 -12 -4 -37 15 -26 15
-26 -9 2 -20 24 -22 31 -11 42 38 38 22 141 -27 177 -15 11 -24 25 -21 30 3 6
1 7 -5 3 -6 -3 -13 -2 -17 3 -3 5 2 14 12 20 19 10 49 -3 91 -38z m614 37 c3
-7 -6 -21 -19 -31 -13 -10 -23 -25 -23 -33 0 -8 -4 -14 -10 -14 -13 0 -13 46
0 71 12 21 46 26 52 7z m-496 -87 c4 -20 9 -22 34 -17 39 7 38 3 -6 -23 -41
-24 -62 -28 -46 -8 13 15 4 60 -9 51 -13 -7 -11 20 3 53 l12 28 3 -30 c2 -16
6 -41 9 -54z m84 64 c0 -8 -2 -15 -4 -15 -2 0 -6 7 -10 15 -3 8 -1 15 4 15 6
0 10 -7 10 -15z m305 -4 c-3 -6 -11 -8 -17 -5 -6 4 -5 9 3 15 16 10 23 4 14
-10z m-1875 -6 c0 -2 -30 -27 -67 -56 -38 -30 -82 -68 -99 -85 -40 -40 -293
-224 -308 -224 -3 0 -51 -26 -108 -58 -139 -78 -131 -74 -320 -137 -91 -30
-173 -58 -182 -61 -11 -4 -16 0 -16 14 0 27 -9 32 -60 34 -40 1 -41 2 -38 32
3 26 10 33 48 47 25 10 44 22 43 28 -2 6 3 8 11 5 8 -3 17 -1 21 5 3 6 12 11
20 11 7 0 43 14 78 30 36 17 74 30 86 30 11 0 22 4 26 9 3 5 31 19 62 31 31
12 81 32 110 46 30 13 55 24 57 24 2 0 65 29 139 65 75 36 140 65 145 65 5 0
45 19 88 42 198 104 224 116 244 111 11 -3 20 -7 20 -8z m-2110 -40 c5 -13 18
-26 29 -30 23 -7 95 -100 117 -152 9 -21 22 -50 30 -66 14 -29 10 -57 -10 -57
-8 0 -92 157 -88 167 0 1 -18 22 -41 47 -25 29 -49 46 -63 46 -13 0 -26 5 -29
10 -3 6 -29 9 -56 7 -43 -2 -48 -1 -33 10 10 7 25 13 34 13 9 0 27 11 40 25
18 19 27 22 42 14 10 -6 23 -21 28 -34z m3905 19 c19 -30 15 -42 -8 -19 -9 8
-20 15 -25 15 -5 0 -15 7 -22 15 -11 13 -9 15 13 15 16 0 31 -9 42 -26z m-265
-5 c0 -6 -4 -7 -10 -4 -5 3 -10 11 -10 16 0 6 5 7 10 4 6 -3 10 -11 10 -16z
m-1140 -8 c41 -6 98 -13 125 -15 67 -7 92 -16 143 -51 l43 -30 -6 -70 c-12
-134 -48 -245 -131 -405 -50 -96 -84 -136 -279 -332 -106 -107 -281 -239 -450
-340 -60 -36 -217 -108 -258 -119 -118 -30 -252 -45 -261 -31 -3 5 2 39 11 76
14 58 15 75 3 134 -7 37 -17 74 -21 82 -5 8 -15 37 -24 63 -16 50 -97 178
-133 210 -11 10 -29 18 -39 17 -36 -4 -37 1 -4 15 18 8 44 15 56 15 27 0 155
49 235 90 30 16 93 46 140 68 87 41 144 81 267 187 38 33 91 78 119 100 47 38
124 107 168 150 39 38 126 154 126 168 0 25 24 39 60 34 19 -3 69 -10 110 -16z
m1190 4 c0 -8 -4 -15 -10 -15 -5 0 -7 7 -4 15 4 8 8 15 10 15 2 0 4 -7 4 -15z
m128 -24 c53 -27 112 -85 112 -109 0 -12 5 -24 11 -27 5 -4 14 -18 19 -31 10
-25 45 -44 83 -44 25 -1 67 -32 67 -51 0 -6 8 -18 18 -25 14 -11 11 -12 -23
-3 -22 6 -49 16 -60 21 -41 22 -143 111 -175 154 -34 45 -56 54 -78 32 -16
-16 -15 -58 1 -58 16 -1 49 -30 65 -58 11 -20 10 -22 -10 -22 -59 1 -110 26
-139 70 -33 48 -37 85 -13 118 12 18 53 43 82 51 1 1 19 -8 40 -18z m279 -3
c-3 -8 -6 -5 -6 6 -1 11 2 17 5 13 3 -3 4 -12 1 -19z m-100 -44 c-2 -2 -12 -1
-22 3 -18 6 -18 7 1 13 17 7 33 -5 21 -16z m-3307 -1 c0 -5 -4 -13 -8 -18 -8
-12 -103 -82 -147 -109 -43 -27 -226 -156 -250 -177 -22 -19 -99 -30 -103 -14
-1 6 10 13 25 18 39 10 136 79 148 105 5 11 41 39 80 62 119 71 139 82 184
112 43 27 71 36 71 21z m3405 -3 c16 -6 17 -9 5 -13 -18 -7 -70 -4 -70 4 0 19
30 24 65 9z m-1915 -23 c0 -7 -13 -28 -30 -47 l-29 -35 -1 29 c0 16 9 38 22
51 23 24 38 24 38 2z m-2166 -114 c25 -43 51 -84 58 -92 6 -8 13 -23 13 -34 1
-10 8 -23 16 -28 12 -8 11 -12 -5 -24 -12 -9 -17 -22 -13 -35 3 -11 1 -20 -4
-20 -5 0 -9 4 -9 10 0 5 -12 21 -27 35 -24 22 -34 25 -68 20 -44 -7 -123 -32
-140 -44 -25 -19 -123 -51 -137 -46 -19 7 -31 32 -22 46 3 5 0 9 -5 9 -6 0
-11 -4 -11 -9 0 -8 -61 -35 -65 -29 -12 24 -25 63 -25 77 0 30 76 38 112 11
50 -37 69 -26 70 41 0 47 -29 85 -76 97 -32 9 -48 32 -21 32 20 0 200 84 209
98 4 6 24 1 56 -14 43 -20 55 -34 94 -101z m2871 118 c3 -5 1 -12 -5 -16 -5
-3 -10 1 -10 9 0 18 6 21 15 7z m-2077 -21 c-7 -11 -16 -20 -20 -20 -5 0 -8 9
-8 20 0 13 7 20 20 20 18 0 19 -2 8 -20z m-87 -54 c8 -30 22 -155 21 -190 -1
-10 -5 -22 -9 -26 -21 -17 -396 -83 -415 -73 -5 2 -8 15 -8 28 0 18 19 37 83
81 45 32 84 62 85 66 2 4 10 8 17 8 8 0 20 6 27 13 7 7 40 32 73 54 34 22 67
48 74 57 20 24 43 16 52 -18z m2154 14 c3 -5 1 -10 -4 -10 -6 0 -11 5 -11 10
0 6 2 10 4 10 3 0 8 -4 11 -10z m-2045 -115 c5 -11 8 -29 6 -40 -3 -11 -5 -28
-5 -37 -2 -30 -18 -20 -17 10 0 15 -3 59 -6 97 -6 55 -5 62 3 30 5 -22 14 -49
19 -60z m2914 -1 c28 -11 53 -14 87 -9 46 6 49 6 49 -16 0 -13 -15 -35 -40
-56 -45 -39 -50 -57 -19 -74 17 -8 31 -8 61 0 21 7 43 9 49 6 5 -4 26 3 45 14
46 28 53 26 24 -4 -25 -26 -29 -61 -16 -125 5 -25 3 -41 -8 -55 -15 -20 -16
-19 -42 13 -21 27 -29 31 -40 21 -8 -7 -12 -19 -9 -28 4 -9 13 -36 20 -61 6
-25 16 -53 20 -63 7 -17 6 -18 -13 -6 -11 7 -19 16 -16 20 2 4 -7 31 -21 61
-14 29 -25 67 -25 83 0 19 -20 66 -53 120 -43 74 -57 91 -79 93 -22 3 -26 8
-25 30 2 24 -2 27 -28 27 -30 0 -30 1 -33 55 l-2 55 37 -42 c21 -24 56 -50 77
-59z m-830 70 c9 -8 16 -20 16 -27 0 -6 -9 -1 -20 11 -30 32 -26 46 4 16z
m-1030 -36 c-29 -51 -45 -65 -75 -66 -35 -1 -34 0 41 52 42 29 43 30 34 14z
m1020 -42 c-4 -17 -3 -18 6 -6 9 13 12 12 25 -4 17 -23 20 -46 4 -46 -5 0 -23
-15 -40 -32 -22 -25 -29 -42 -29 -73 0 -32 -6 -47 -26 -66 l-25 -24 23 -19
c17 -14 18 -18 5 -13 -27 10 -54 -9 -77 -53 -25 -50 -25 -75 1 -101 15 -15 29
-20 52 -16 18 2 39 1 48 -4 15 -8 15 -13 2 -53 -8 -24 -25 -54 -38 -66 -20
-19 -22 -26 -13 -62 5 -23 16 -47 25 -53 20 -15 7 -38 -17 -30 -10 3 -21 1
-25 -5 -16 -25 -24 -7 -11 25 9 20 11 37 5 40 -13 9 -11 36 5 67 14 26 13 29
-17 54 -25 21 -38 25 -65 20 -35 -5 -82 -40 -82 -61 0 -6 -13 -21 -30 -33 -16
-13 -30 -31 -30 -42 0 -17 -7 -20 -39 -20 -31 0 -44 -6 -60 -26 -25 -31 -26
-93 -2 -102 9 -3 20 -12 25 -20 6 -10 18 -12 42 -7 23 4 34 2 34 -6 0 -17 60
-3 80 19 9 9 21 26 27 36 6 11 22 20 37 22 28 3 33 -5 14 -24 -7 -7 -8 -12 -4
-12 5 0 3 -7 -4 -15 -15 -18 -6 -45 15 -45 8 0 15 -1 15 -2 0 -7 -42 -116 -52
-136 -11 -22 -13 -22 -19 -5 -4 10 -8 35 -8 56 -1 30 3 37 18 37 11 0 22 4 25
9 10 15 -5 41 -23 41 -9 0 -22 5 -28 11 -16 16 -48 -6 -121 -78 -30 -30 -70
-61 -88 -69 -33 -14 -34 -16 -34 -72 0 -55 -1 -58 -31 -69 -22 -9 -30 -17 -27
-31 2 -13 -11 -30 -43 -54 -40 -31 -47 -33 -56 -19 -8 13 -14 14 -36 4 -16 -8
-27 -9 -27 -3 0 17 -39 11 -51 -8 -8 -12 -20 -17 -39 -14 -18 2 -54 -10 -108
-37 -76 -38 -107 -61 -83 -61 6 0 11 -4 11 -10 0 -5 -8 -10 -18 -10 -10 0 -23
-5 -30 -12 -14 -14 2 -48 24 -48 9 0 14 -6 11 -12 -2 -8 -17 -12 -39 -10 -31
3 -40 -2 -63 -32 -17 -23 -25 -42 -21 -54 9 -29 -20 -36 -45 -11 -21 21 -43
69 -32 69 4 0 14 -7 24 -16 40 -37 66 13 30 57 -17 21 -21 22 -37 9 -10 -8
-15 -10 -11 -4 4 7 1 17 -7 23 -19 16 -96 3 -96 -15 0 -8 7 -14 15 -14 11 0
13 -8 9 -30 -4 -18 -1 -36 6 -45 16 -19 9 -27 -30 -31 -42 -5 -70 -21 -70 -42
-1 -35 -29 33 -30 70 0 43 18 88 34 84 6 -2 8 -1 4 1 -5 3 -8 11 -8 19 0 7 -6
11 -14 8 -8 -3 -17 -1 -21 5 -11 19 -31 12 -45 -16 l-13 -28 -10 40 c-5 22
-12 81 -16 130 -3 50 -10 96 -14 102 -6 10 -2 11 15 4 23 -8 101 -7 128 2 8 3
38 11 65 18 28 6 54 14 60 17 5 3 19 7 32 8 13 2 30 10 39 18 9 9 20 14 25 11
11 -7 69 22 69 35 0 6 10 10 23 10 12 1 58 23 102 50 44 28 90 54 103 60 12 5
22 17 22 25 0 12 6 15 21 10 15 -5 22 -2 26 14 3 11 15 21 27 23 13 2 20 9 18
19 -1 11 7 18 25 22 39 8 223 163 223 187 0 6 8 10 19 10 10 0 27 12 36 28 10
15 24 31 32 35 7 4 13 16 13 25 0 10 10 22 23 27 13 6 21 17 19 28 -2 10 3 17
12 17 14 0 108 110 132 155 6 11 18 34 27 50 8 17 21 45 29 63 7 17 16 32 19
32 13 0 18 44 7 57 -8 10 -6 13 7 13 13 0 16 6 13 25 -3 15 -1 25 6 25 11 0
36 65 36 97 1 16 2 16 15 -1 8 -11 13 -29 9 -40z m-871 18 c3 -4 -11 -21 -32
-38 -131 -105 -229 -180 -246 -187 -11 -5 -45 -25 -75 -43 -56 -35 -73 -39
-50 -11 21 26 -7 43 -80 49 -36 3 -67 6 -70 6 -3 0 11 8 30 17 19 10 38 22 42
28 5 6 8 6 8 -2 0 -7 5 -13 11 -13 6 0 8 7 5 15 -4 11 3 19 20 25 14 6 46 24
70 41 25 17 47 29 49 27 3 -2 -9 -18 -24 -36 -38 -41 -47 -98 -18 -113 16 -9
23 -8 34 7 7 10 13 26 13 36 0 28 30 68 51 68 11 0 19 -4 19 -9 0 -5 9 -11 20
-14 24 -6 50 17 50 44 0 10 5 19 11 19 6 0 22 14 37 31 36 43 105 72 125 53z
m812 -4 c3 -5 1 -10 -4 -10 -6 0 -11 5 -11 10 0 6 2 10 4 10 3 0 8 -4 11 -10z
m451 -57 c-6 -50 -43 -143 -66 -167 -16 -16 17 104 33 122 9 10 19 37 23 60
10 62 18 51 10 -15z m112 19 c9 -6 6 -12 -13 -20 -22 -10 -25 -9 -25 8 0 21
16 26 38 12z m67 -12 c8 -13 -15 -13 -35 0 -12 8 -11 10 7 10 12 0 25 -4 28
-10z m480 -12 c-11 -6 -39 -29 -62 -51 -24 -23 -43 -36 -43 -30 0 15 92 92
110 92 10 0 9 -3 -5 -11z m-315 -33 c0 -20 7 -49 15 -66 17 -32 56 -151 51
-156 -9 -9 -41 44 -62 102 -24 67 -32 155 -14 155 6 0 10 -16 10 -35z m390 17
c0 -10 -69 -47 -76 -40 -3 3 7 15 22 27 27 21 54 28 54 13z m80 -12 c10 0 21
-8 25 -17 5 -15 4 -16 -6 -5 -7 6 -28 12 -47 12 -21 0 -31 4 -27 11 4 6 14 8
22 5 8 -3 23 -6 33 -6z m-645 -22 c14 -6 25 -19 25 -30 0 -10 7 -18 15 -18 8
0 15 -9 15 -20 0 -27 -3 -36 -13 -32 -4 1 -23 -4 -42 -12 -19 -8 -37 -11 -40
-6 -9 14 17 49 32 43 19 -7 17 41 -3 58 -12 10 -20 10 -35 1 -25 -16 -29 -15
-29 8 0 23 34 27 75 8z m-532 -32 c-10 -13 -19 -23 -21 -21 -7 6 19 45 29 45
5 0 2 -11 -8 -24z m1183 -11 c2 -29 1 -29 -25 -13 -15 9 -22 8 -36 -6 -10 -9
-19 -15 -21 -13 -9 9 8 35 29 45 37 18 52 14 53 -13z m-1136 -85 c-11 -21 -39
-44 -46 -38 -2 3 -7 22 -9 43 -3 20 -8 41 -11 46 -3 5 6 9 20 9 18 0 26 6 26
18 1 9 7 -1 15 -22 9 -25 11 -46 5 -56z m-3038 58 c-7 -7 -12 -8 -12 -2 0 14
12 26 19 19 2 -3 -1 -11 -7 -17z m194 -25 c-8 -8 -36 5 -36 17 0 7 6 7 21 0
11 -7 18 -14 15 -17z m2894 17 c0 -5 -4 -10 -10 -10 -5 0 -10 5 -10 10 0 6 5
10 10 10 6 0 10 -4 10 -10z m-3140 -9 c0 -10 -30 -24 -37 -17 -3 3 -2 9 2 15
8 13 35 15 35 2z m364 -29 c-6 -9 -20 -19 -30 -20 -10 -2 -29 -13 -41 -25 -17
-15 -23 -17 -23 -6 1 16 51 74 71 81 22 8 35 -10 23 -30z m3836 18 c0 -5 -4
-10 -10 -10 -5 0 -10 5 -10 10 0 6 5 10 10 10 6 0 10 -4 10 -10z m-4159 -26
c-29 -13 -58 -24 -65 -24 -15 0 24 25 59 38 56 20 60 11 6 -14z m3868 -41 c7
-17 11 -42 9 -55 -3 -18 -7 -13 -21 27 -10 28 -21 61 -24 75 -5 24 -5 24 9 5
8 -11 20 -34 27 -52z m-489 42 c0 -8 -4 -15 -10 -15 -5 0 -7 7 -4 15 4 8 8 15
10 15 2 0 4 -7 4 -15z m-3505 -4 c3 -5 -4 -13 -16 -16 -23 -8 -34 -1 -24 14 8
13 32 14 40 2z m4294 -25 c-11 -19 -27 -36 -37 -39 -9 -3 -25 -8 -36 -12 -18
-8 -18 -7 -1 18 9 14 14 31 10 37 -4 6 5 10 22 10 15 0 35 5 43 10 8 5 16 10
17 10 1 0 -7 -15 -18 -34z m-4045 9 c20 -15 20 -15 0 -30 -10 -8 -22 -15 -26
-15 -6 0 -17 -25 -19 -45 -3 -32 -43 -44 -80 -25 -15 9 -17 15 -9 29 7 14 6
22 -3 30 -14 11 -50 -7 -74 -39 -11 -13 -12 -11 -13 11 0 28 31 49 73 49 12 0
45 11 72 24 60 29 56 29 79 11z m789 -2 c-10 -26 -35 -50 -60 -57 -19 -6 -21
-4 -14 20 4 16 19 31 36 39 41 18 45 18 38 -2z m562 -9 c-21 -14 -55 -28 -74
-30 -34 -4 -35 -4 -11 7 121 56 142 62 85 23z m-1688 -10 c-9 -9 -28 6 -21 18
4 6 10 6 17 -1 6 -6 8 -13 4 -17z m3823 -57 c11 -71 28 -117 63 -169 10 -16
16 -28 12 -28 -21 0 -87 45 -106 72 -13 18 -31 41 -40 51 -35 38 -33 109 4
138 37 30 54 14 67 -64z m-2873 47 c32 -9 18 -24 -22 -24 -46 0 -71 10 -53 21
15 10 44 11 75 3z m2353 -9 c0 -10 -10 -15 -27 -15 -27 1 -27 1 -9 15 25 19
36 19 36 0z m-1777 -34 c-21 -15 -55 -47 -75 -70 -34 -40 -38 -42 -75 -35 -21
4 -46 11 -55 16 -11 5 -26 5 -38 -2 -11 -6 -20 -7 -20 -2 0 4 17 14 38 21 20
8 48 18 62 24 78 33 186 75 194 76 5 1 -9 -12 -31 -28z m1943 -8 c-8 -15 -15
-22 -16 -15 0 14 22 53 28 47 2 -2 -3 -16 -12 -32z m-1628 19 c13 -9 -20 -28
-120 -68 -58 -23 -67 -20 -47 18 21 39 131 72 167 50z m2162 -87 c21 5 30 1
43 -19 16 -23 15 -26 -16 -61 l-33 -36 -18 20 c-11 12 -24 30 -30 40 -59 103
-76 136 -76 145 0 6 23 -13 52 -42 43 -45 55 -52 78 -47z m-3295 55 c18 -10
46 -18 62 -18 15 0 48 -5 71 -11 33 -9 61 -10 113 -1 42 6 77 7 86 2 25 -14
-172 -25 -316 -17 l-127 7 2 27 c0 14 2 30 2 35 3 12 68 -2 107 -24z m2952 4
c-9 -9 -28 6 -21 18 4 6 10 6 17 -1 6 -6 8 -13 4 -17z m-459 7 c9 -5 25 -12
35 -15 23 -7 9 -36 -30 -61 -25 -17 -26 -17 -14 -1 11 13 11 20 3 28 -9 9 -18
6 -35 -10 -13 -12 -34 -22 -48 -21 l-24 1 25 7 c14 4 26 15 28 25 3 15 -1 18
-22 14 -38 -7 -27 12 14 27 46 16 47 17 68 6z m-2697 -69 c-13 -4 -71 45 -71
61 0 5 19 -6 41 -24 24 -19 37 -35 30 -37z m3835 26 c3 -13 16 -36 26 -51 26
-36 19 -42 -27 -23 -56 24 -94 77 -62 89 30 13 56 6 63 -15z m-892 -24 c-5
-30 -2 -40 22 -65 18 -19 38 -29 56 -29 17 0 27 -4 23 -10 -3 -5 -17 -10 -31
-10 -16 0 -27 -8 -33 -23 -5 -13 -23 -30 -40 -37 -27 -11 -34 -10 -50 4 -9 9
-28 16 -41 16 -23 0 -22 2 15 37 43 41 65 75 65 103 0 21 10 50 17 50 2 0 1
-16 -3 -36z m149 24 c19 -15 37 -86 19 -74 -7 4 -12 18 -12 31 0 13 -10 31
-22 39 -12 9 -18 16 -12 16 6 0 18 -6 27 -12z m-2030 -70 c-32 -16 -65 -28
-73 -28 -9 0 -20 -4 -25 -9 -26 -24 -278 -96 -283 -81 -5 14 -33 12 -30 -1 2
-6 -2 -13 -9 -16 -7 -2 -10 3 -7 14 3 10 24 28 47 40 35 19 53 21 108 16 60
-5 69 -3 85 16 13 14 30 21 56 21 27 0 40 5 48 20 6 11 27 31 48 43 34 22 38
23 64 8 l28 -16 -57 -27z m-387 2 c-22 -11 -58 -20 -80 -19 -38 1 -36 2 23 14
35 8 66 17 69 20 3 3 10 5 16 5 6 -1 -7 -10 -28 -20z m2070 -22 c-9 -12 -16
-17 -16 -10 0 18 24 54 28 42 2 -5 -4 -20 -12 -32z m-2601 -2 c178 -12 256
-13 261 -5 3 5 31 9 62 9 53 -1 56 -2 37 -16 -50 -37 -90 -84 -90 -107 0 -6
14 -13 30 -15 22 -2 40 5 65 27 36 30 49 37 51 24 0 -5 7 -15 15 -24 13 -14 5
-18 -83 -33 -140 -26 -240 -34 -298 -26 -27 4 -42 8 -32 9 9 0 17 6 17 11 0 6
1 13 1 18 2 10 37 33 57 37 20 3 52 -22 52 -40 0 -17 41 -27 57 -13 7 6 13 18
13 27 0 9 5 22 12 29 16 16 -4 38 -45 51 -47 14 -276 22 -297 11 -26 -14 -61
-75 -54 -94 4 -10 1 -16 -9 -16 -9 0 -22 -3 -30 -6 -13 -4 -14 0 -7 28 4 18
13 44 19 58 16 32 83 81 96 70 6 -5 51 -11 100 -14z m3432 -42 c-30 -28 -37
-13 -11 25 12 16 19 20 27 12 8 -8 4 -18 -16 -37z m173 26 c0 -5 -2 -10 -4
-10 -3 0 -8 5 -11 10 -3 6 -1 10 4 10 6 0 11 -4 11 -10z m-551 -30 c15 -23 15
-24 -2 -17 -10 4 -36 7 -58 7 -44 0 -50 11 -16 28 32 16 58 10 76 -18z m-478
-7 c-12 -20 -14 -14 -5 12 4 9 9 14 11 11 3 -2 0 -13 -6 -23z m904 -12 c3 -5
1 -12 -5 -16 -5 -3 -10 1 -10 9 0 18 6 21 15 7z m-285 -50 c55 -59 169 -112
194 -91 11 8 25 9 53 1 21 -6 50 -11 66 -11 31 0 34 -8 11 -24 -8 -7 -18 -31
-21 -54 -6 -44 -10 -45 -70 -26 -15 4 -17 34 -3 34 6 0 10 5 10 11 0 5 -4 7
-10 4 -6 -3 -7 1 -4 9 11 29 -24 17 -47 -15 -19 -27 -26 -30 -55 -26 -43 7
-139 83 -154 122 -6 17 -18 43 -26 58 -36 71 -7 75 56 8z m449 30 c28 -20 74
-94 65 -104 -4 -3 -22 0 -41 8 -20 8 -61 15 -93 15 -49 0 -58 3 -56 18 1 14
-7 17 -41 15 -26 -1 -43 3 -46 11 -4 10 5 12 37 9 31 -4 45 -1 55 11 12 15 15
15 25 0 17 -23 69 -9 61 17 -8 24 0 24 34 0z m-3679 -10 c0 -10 7 -24 15 -31
28 -23 15 -27 -39 -15 -30 7 -58 10 -62 6 -5 -3 5 8 22 26 33 36 64 43 64 14z
m2404 -13 c26 -37 20 -75 -14 -93 -32 -16 -31 -40 0 -32 21 5 36 -21 21 -36
-5 -5 -24 -10 -42 -12 -19 -1 -39 -11 -51 -26 l-19 -24 6 25 c4 14 13 30 21
36 18 14 18 28 -1 44 -13 11 -13 14 0 27 10 9 13 24 9 39 -5 18 0 32 17 50 28
30 34 30 53 2z m937 -5 l24 -27 -24 15 c-14 9 -27 21 -29 27 -6 19 3 14 29
-15z m-320 -13 c17 0 33 -10 49 -32 12 -18 17 -27 9 -20 -18 16 -71 15 -94 -2
-19 -13 -18 -15 15 -28 l35 -14 -34 -12 c-47 -17 -34 -34 40 -53 80 -21 99
-28 99 -41 0 -6 -8 -7 -17 -3 -64 27 -124 38 -149 26 -39 -17 -25 -33 54 -57
40 -12 82 -28 94 -36 13 -8 49 -25 80 -37 32 -13 55 -27 52 -33 -4 -5 -10 -5
-17 0 -7 5 -27 13 -45 17 -18 4 -44 17 -58 30 -44 41 -189 61 -189 26 0 -7 24
-21 55 -31 30 -10 80 -32 110 -49 30 -17 61 -31 69 -31 8 0 22 -7 32 -16 27
-24 6 -60 -40 -69 -53 -10 -119 -41 -157 -75 -40 -34 -38 -34 -63 -19 -14 9
-25 9 -49 -2 -45 -20 -47 -37 -7 -60 41 -25 43 -29 12 -29 -36 0 -59 22 -60
61 -2 30 1 34 21 33 20 -1 23 3 19 23 -3 18 0 23 18 23 12 0 28 -7 35 -15 7
-8 25 -15 41 -15 24 0 29 4 29 24 0 37 -23 49 -84 43 -52 -5 -53 -5 -67 26
-19 43 -52 47 -91 10 -21 -19 -32 -24 -35 -15 -3 6 -14 12 -26 12 -16 0 -22 6
-23 25 -2 23 2 25 36 25 21 0 43 7 50 15 17 20 8 48 -17 55 -17 4 -20 9 -13
20 5 8 10 24 10 36 0 22 65 159 79 168 4 3 14 26 21 51 10 34 17 44 29 40 9
-2 30 -1 46 5 17 5 39 7 50 5 11 -3 32 -5 46 -5z m-741 -129 c0 -31 -34 -81
-55 -81 -7 0 -18 6 -24 14 -9 10 -8 15 4 20 23 8 18 28 -5 21 -13 -4 -20 -2
-20 7 1 30 25 46 73 47 23 1 27 -3 27 -28z m856 8 c23 -19 12 -19 -46 2 l-55
19 43 -4 c23 -2 49 -10 58 -17z m559 1 c4 -7 -2 -9 -18 -5 -17 5 -33 -1 -56
-21 l-33 -27 4 24 c2 17 11 26 33 30 47 10 63 10 70 -1z m47 -37 c40 -46 92
-174 70 -173 -4 1 -25 19 -47 40 -22 22 -48 43 -57 46 -22 7 -23 33 -2 41 12
4 14 14 10 34 -6 33 4 37 26 12z m-72 -23 c0 -5 -4 -10 -10 -10 -5 0 -10 5
-10 10 0 6 5 10 10 10 6 0 10 -4 10 -10z m-460 -63 c14 -12 21 -19 16 -14 -6
4 -20 7 -32 7 -12 0 -24 7 -28 15 -8 22 15 18 44 -8z m77 -33 c-3 -3 -12 -4
-19 -1 -8 3 -5 6 6 6 11 1 17 -2 13 -5z m193 -18 c0 -3 -18 -15 -39 -27 -25
-14 -45 -36 -57 -60 -9 -22 -21 -39 -25 -39 -10 0 -1 29 16 50 7 8 15 23 18
33 8 21 87 60 87 43z m270 -76 c11 -11 29 -20 40 -20 23 0 24 -1 8 -35 -9 -19
-9 -28 0 -37 14 -14 16 -48 2 -48 -5 0 -12 12 -15 28 -4 15 -10 34 -15 42 -24
38 -50 90 -45 90 3 0 14 -9 25 -20z m-1460 -42 c6 -24 23 -61 37 -82 22 -34
24 -44 15 -68 -6 -16 -8 -44 -5 -62 3 -19 1 -36 -6 -40 -8 -5 -6 -16 4 -37 14
-27 14 -32 -5 -69 -11 -21 -20 -46 -20 -54 0 -75 -98 87 -115 189 -4 22 -11
45 -16 52 -6 6 -11 37 -11 67 -1 44 3 60 18 74 21 19 88 72 91 72 1 0 7 -19
13 -42z m355 4 c-6 -4 -23 -18 -40 -32 l-30 -25 29 33 c17 17 34 32 40 32 6 0
6 -3 1 -8z m930 -22 c3 -5 1 -10 -4 -10 -6 0 -11 5 -11 10 0 6 2 10 4 10 3 0
8 -4 11 -10z m-185 -10 c0 -5 -4 -10 -10 -10 -5 0 -10 5 -10 10 0 6 5 10 10
10 6 0 10 -4 10 -10z m-810 -50 c0 -5 -5 -10 -11 -10 -5 0 -7 5 -4 10 3 6 8
10 11 10 2 0 4 -4 4 -10z m166 -7 c15 -46 69 -144 90 -164 18 -17 21 -25 12
-31 -9 -5 -15 0 -19 15 -4 16 -12 21 -30 19 -23 -2 -25 1 -21 28 3 24 1 30
-14 30 -29 0 -54 -30 -70 -87 -8 -29 -20 -56 -26 -59 -8 -5 -9 -1 -4 12 4 10
12 40 17 65 6 29 21 57 40 75 16 15 29 34 29 41 0 22 -30 14 -61 -16 -38 -39
-37 -25 2 22 17 21 28 41 25 44 -18 19 -131 -113 -120 -140 2 -7 -9 -20 -26
-30 -41 -25 -40 -61 5 -120 33 -43 38 -46 78 -44 54 4 66 11 61 40 -2 12 -1
15 2 7 14 -33 38 -49 83 -56 25 -4 39 -9 31 -12 -8 -3 -28 -15 -45 -28 -31
-23 -76 -25 -115 -4 -10 6 -30 11 -44 12 -15 1 -26 5 -26 9 0 4 -12 10 -26 13
-21 6 -24 9 -13 22 6 8 10 16 8 19 -2 2 -20 22 -38 44 -31 37 -35 47 -35 106
-1 63 6 81 18 50 7 -20 38 -19 58 3 10 9 26 26 38 36 11 11 20 24 20 30 1 16
70 66 92 66 10 0 21 -8 24 -17z m577 1 c62 -9 42 -19 -45 -22 -67 -3 -95 -9
-145 -33 -52 -25 -63 -34 -63 -55 0 -13 5 -24 10 -24 6 0 8 -11 4 -25 -6 -23
-3 -25 25 -25 19 0 34 7 40 19 6 11 26 21 51 25 23 4 52 13 65 22 14 9 26 11
29 5 7 -11 -3 -41 -15 -42 -5 -1 -17 -2 -26 -3 -42 -5 -83 -18 -78 -26 9 -15
-36 -32 -66 -26 -31 6 -89 -10 -89 -25 0 -5 10 -14 23 -18 21 -8 21 -9 3 -17
-13 -5 -23 -1 -37 17 -17 23 -18 23 -53 6 -32 -15 -41 -26 -37 -49 0 -5 -19
-8 -43 -8 -52 0 -93 27 -83 55 6 14 10 15 22 5 22 -19 59 -8 73 23 10 20 20
27 42 27 16 0 32 -4 35 -10 10 -16 49 -11 66 8 9 10 16 38 16 66 1 65 32 95
116 117 68 18 103 21 160 13z m108 -46 c-11 -18 -27 -48 -37 -66 -20 -40 -29
-37 -12 4 13 29 58 94 66 94 2 0 -5 -15 -17 -32z m-3554 6 c-3 -3 -12 -4 -19
-1 -8 3 -5 6 6 6 11 1 17 -2 13 -5z m-78 -8 c-2 -2 -24 -6 -49 -9 -30 -4 -38
-3 -25 3 19 8 83 14 74 6z m3473 -36 c-33 -12 -65 -17 -83 -13 -57 11 -13 27
86 30 l50 2 -53 -19z m-3467 -9 c-15 -13 -75 -22 -75 -11 0 5 17 11 38 13 20
2 39 4 42 5 2 1 0 -2 -5 -7z m90 -1 c4 -6 -6 -7 -27 -3 -44 8 -48 13 -10 13
17 0 34 -4 37 -10z m2241 -67 c9 -32 24 -74 35 -93 l20 -35 -25 28 c-14 15
-29 27 -33 27 -4 0 -8 21 -8 46 0 34 -5 49 -20 60 -17 13 -18 16 -5 24 19 12
19 12 36 -57z m1364 57 c0 -5 -4 -10 -10 -10 -5 0 -10 5 -10 10 0 6 5 10 10
10 6 0 10 -4 10 -10z m80 -10 c0 -5 -2 -10 -4 -10 -3 0 -8 5 -11 10 -3 6 -1
10 4 10 6 0 11 -4 11 -10z m147 -20 c28 -15 32 -20 17 -20 -11 0 -25 -5 -32
-12 -16 -16 -45 12 -36 35 8 21 6 21 51 -3z m-3921 -24 c-17 -13 -38 -21 -49
-18 -16 4 -15 7 10 23 15 11 37 19 48 19 17 0 16 -3 -9 -24z m3556 -18 c-7 -7
-12 -8 -12 -2 0 6 3 14 7 17 3 4 9 5 12 2 2 -3 -1 -11 -7 -17z m-1292 -8 c6
-12 9 -28 6 -38 -6 -19 11 -45 36 -55 15 -5 78 -101 78 -119 0 -18 -32 -6 -65
23 -27 24 -39 29 -47 21 -9 -9 -6 -18 10 -35 26 -27 28 -37 7 -37 -22 0 -55
41 -55 69 0 13 8 33 17 44 17 18 17 19 -2 33 -10 8 -26 14 -34 14 -12 0 -9 6
8 19 26 20 23 58 -4 47 -21 -8 -19 11 3 23 24 15 30 14 42 -9z m1735 -39 c-19
-59 -100 -176 -147 -212 -74 -58 -150 -82 -258 -85 -94 -2 -132 9 -169 49 -33
36 -24 48 24 31 75 -26 182 -14 281 32 109 51 217 135 244 189 35 72 50 70 25
-4z m-3908 33 c-3 -3 -12 -4 -19 -1 -8 3 -5 6 6 6 11 1 17 -2 13 -5z m3757
-25 c-8 -13 -24 -1 -24 18 0 13 3 13 15 3 8 -7 12 -16 9 -21z m81 12 c-3 -6
-11 -11 -17 -11 -6 0 -6 6 2 15 14 17 26 13 15 -4z m-405 5 c0 -2 -7 -6 -15
-10 -8 -3 -15 -1 -15 4 0 6 7 10 15 10 8 0 15 -2 15 -4z m-1509 -20 c1 -6 0
-19 -1 -29 -3 -30 60 -210 88 -252 35 -50 112 -91 192 -100 33 -4 62 -11 65
-16 3 -4 -5 -25 -18 -46 -13 -21 -29 -52 -36 -70 -7 -17 -21 -39 -32 -49 -12
-11 -17 -24 -13 -37 5 -15 2 -18 -13 -13 -10 3 -28 0 -38 -8 -18 -13 -18 -15
-1 -41 13 -19 15 -30 7 -38 -7 -7 -13 -2 -20 16 -11 29 -32 35 -50 13 -8 -10
-4 -23 19 -55 17 -23 28 -47 24 -53 -4 -6 -17 8 -31 35 -22 45 -45 59 -58 36
-8 -12 11 -62 37 -101 10 -14 18 -31 18 -37 0 -25 -17 -7 -48 49 -33 60 -48
70 -69 49 -9 -9 -8 -19 3 -40 8 -16 18 -29 22 -29 4 0 14 -15 22 -32 7 -18 15
-36 18 -40 2 -5 -6 -8 -17 -8 -12 0 -25 8 -28 18 -4 9 -10 19 -13 22 -4 3 -17
24 -28 47 -17 33 -26 40 -42 36 -25 -7 -25 -29 0 -71 11 -18 20 -36 20 -40 0
-4 -21 -16 -47 -26 -33 -14 -48 -16 -51 -8 -6 19 -31 14 -44 -8 -7 -11 -18
-20 -25 -20 -19 0 -26 -19 -13 -35 7 -8 10 -20 7 -27 -2 -7 -11 4 -20 25 -16
38 -43 49 -54 21 -3 -8 0 -27 6 -41 18 -39 -2 -50 -28 -16 -42 56 -42 56 -58
40 -14 -13 -14 -19 1 -48 19 -37 19 -39 8 -39 -5 0 -16 18 -25 40 -25 65 -66
50 -48 -17 14 -49 5 -55 -14 -10 -16 39 -25 43 -56 27 -18 -10 -18 -13 -4 -33
17 -24 20 -47 6 -47 -5 0 -14 14 -20 30 -5 17 -16 30 -24 30 -22 0 -35 -23
-26 -45 13 -34 9 -42 -7 -12 -12 23 -18 26 -34 17 -22 -12 -26 -30 -9 -47 8
-8 8 -13 0 -17 -6 -4 -11 -3 -11 1 0 5 -6 17 -13 27 -17 23 -47 11 -47 -20 0
-21 -2 -23 -19 -12 -22 14 -51 -3 -51 -29 0 -10 -6 -13 -17 -8 -10 3 -20 7
-23 7 -21 2 -30 -5 -30 -21 0 -23 -16 -36 -25 -21 -8 13 -45 -6 -45 -23 0 -7
-13 -23 -30 -35 -16 -13 -30 -18 -30 -13 0 5 5 13 10 16 19 12 10 35 -13 35
-30 0 -88 -60 -120 -125 -24 -49 -133 -158 -196 -196 -46 -28 -202 -79 -241
-79 -20 0 -41 -5 -47 -11 -7 -7 -36 -12 -65 -13 -38 -1 -52 -5 -50 -14 2 -10
-7 -11 -34 -6 -36 7 -37 6 -30 -21 6 -25 5 -27 -8 -16 -19 16 -46 8 -46 -13 0
-10 -6 -13 -15 -10 -8 4 -22 3 -31 0 -12 -5 -14 -9 -5 -20 8 -10 8 -16 -3 -25
-10 -8 -16 -9 -21 -1 -3 5 -15 10 -27 10 -16 0 -19 -4 -14 -24 8 -32 -10 -43
-34 -21 -11 10 -26 15 -35 12 -22 -9 -19 -30 4 -22 24 7 33 -6 15 -22 -8 -8
-15 -9 -19 -3 -19 31 -92 -23 -80 -59 7 -22 -20 -37 -29 -16 -9 24 -38 6 -32
-20 6 -22 -27 -65 -40 -52 -4 3 -16 2 -26 -4 -15 -8 -17 -14 -9 -22 18 -18 12
-27 -12 -18 -14 6 -29 5 -38 0 -11 -8 -10 -13 9 -28 12 -11 22 -23 22 -27 0
-4 -11 2 -23 15 -15 13 -30 19 -40 15 -23 -8 -21 -16 8 -44 l25 -24 -52 -53
c-29 -29 -60 -53 -70 -53 -9 0 -20 -5 -23 -10 -10 -16 -37 -12 -79 11 -21 11
-44 18 -52 15 -7 -3 -16 -1 -19 4 -4 6 -19 10 -34 10 -15 0 -36 9 -46 20 -23
26 -42 11 -25 -20 6 -12 9 -24 7 -27 -3 -2 -8 5 -12 17 -10 33 -30 17 -27 -21
l3 -34 -23 34 c-13 18 -51 63 -86 99 -34 36 -60 67 -57 71 3 3 44 4 91 3 75
-2 89 1 124 23 22 14 43 25 47 25 5 0 13 8 19 18 12 19 95 65 110 60 12 -3
124 62 189 111 28 21 97 73 155 115 58 43 130 97 160 122 30 24 83 65 118 90
34 25 62 51 62 58 0 18 67 83 155 149 44 33 95 72 112 86 18 14 37 27 43 27 5
1 17 2 26 3 8 0 24 20 34 44 18 41 33 53 122 100 13 6 37 21 53 33 17 12 42
24 58 28 15 3 27 11 27 18 0 14 261 270 372 364 48 41 96 74 107 74 32 0 63
40 56 72 -5 22 -1 33 20 52 15 14 32 46 39 73 7 26 16 48 22 48 5 0 18 -24 30
-53 25 -64 62 -103 131 -143 57 -33 79 -30 115 14 l16 21 39 -26 c53 -37 89
-49 150 -51 28 -1 50 -4 47 -8 -5 -9 -72 -5 -156 10 -84 15 -143 12 -143 -9 0
-11 18 -17 70 -23 39 -5 90 -14 114 -21 36 -10 54 -10 100 0 31 8 76 14 100
14 42 0 43 1 37 28 -6 26 -20 40 -101 107 -20 16 -45 44 -57 63 -11 19 -26 31
-34 28 -7 -3 -26 16 -46 47 -31 48 -33 56 -29 122 2 38 4 88 4 111 0 36 3 42
33 55 41 18 84 20 85 5z m144 -26 c-1 -17 -7 -36 -13 -42 -7 -7 -12 -21 -12
-31 0 -16 5 -18 34 -13 35 7 35 7 26 -24 -8 -29 11 -89 28 -90 4 0 16 -7 26
-15 19 -15 19 -15 -4 -40 -13 -14 -29 -25 -35 -25 -20 0 -62 54 -75 95 -7 22
-17 49 -21 60 -20 47 -31 82 -35 112 -3 26 -1 30 14 26 13 -3 54 7 68 16 0 1
0 -13 -1 -29z m1612 11 c16 13 17 12 5 -3 -12 -15 -60 -33 -68 -25 -3 2 -2 11
2 20 5 13 9 14 24 5 14 -9 22 -9 37 3z m108 -21 c-3 -5 -10 -10 -16 -10 -5 0
-9 5 -9 10 0 6 7 10 16 10 8 0 12 -4 9 -10z m-3405 -10 c0 -5 -9 -10 -20 -10
-11 0 -20 5 -20 10 0 6 9 10 20 10 11 0 20 -4 20 -10z m3330 0 c-8 -5 -19 -10
-25 -10 -5 0 -3 5 5 10 8 5 20 10 25 10 6 0 3 -5 -5 -10z m-180 -18 c0 -5 -9
-17 -20 -27 -22 -20 -26 -14 -10 16 11 19 30 26 30 11z m140 -16 c0 -3 -4 -8
-10 -11 -5 -3 -10 -1 -10 4 0 6 5 11 10 11 6 0 10 -2 10 -4z m-3877 -23 c-3
-10 -15 -30 -25 -45 -10 -14 -18 -32 -18 -40 -1 -7 -10 -29 -21 -48 -15 -27
-19 -29 -14 -10 8 31 25 108 31 138 3 16 11 22 29 22 19 0 23 -4 18 -17z
m2532 -12 c3 -16 15 -37 26 -47 20 -18 26 -44 10 -44 -5 0 -13 10 -17 23 -3
12 -12 29 -19 37 -18 21 -28 60 -16 60 5 0 12 -13 16 -29z m261 -40 c-14 -15
-26 -32 -26 -38 0 -7 -15 -38 -34 -70 -45 -76 -117 -212 -156 -293 -33 -71
-34 -73 -73 -143 -15 -26 -27 -52 -27 -58 0 -9 -48 -87 -60 -99 -3 -3 -13 -17
-22 -32 -13 -20 -23 -25 -39 -21 l-22 6 20 17 c19 15 73 118 73 139 0 4 9 16
20 26 11 10 20 22 20 27 0 8 26 70 53 128 6 14 24 47 39 73 16 26 28 52 28 57
0 4 22 44 48 87 26 43 56 98 67 123 10 25 27 56 37 69 10 13 18 32 18 43 0 18
2 18 31 2 l31 -16 -26 -27z m602 -17 c-7 -6 -68 51 -68 65 0 6 16 -5 36 -24
20 -20 34 -38 32 -41z m207 66 c3 -6 -1 -7 -9 -4 -18 7 -21 14 -7 14 6 0 13
-4 16 -10z m173 -15 c6 -14 8 -25 3 -25 -4 0 -13 11 -19 25 -6 14 -8 25 -3 25
4 0 13 -11 19 -25z m-3679 -42 l14 -37 -69 -63 c-38 -34 -75 -63 -81 -63 -8 0
-4 9 8 21 11 11 35 51 53 87 52 109 55 111 75 55z m-82 -5 c-3 -8 -6 -5 -6 6
-1 11 2 17 5 13 3 -3 4 -12 1 -19z m3723 18 c0 -3 -4 -8 -10 -11 -5 -3 -10 -1
-10 4 0 6 5 11 10 11 6 0 10 -2 10 -4z m-2360 -27 c0 -5 -4 -9 -10 -9 -5 0
-10 7 -10 16 0 8 5 12 10 9 6 -3 10 -10 10 -16z m-1165 -60 c-4 -5 -21 -17
-38 -26 -31 -16 -32 -16 -17 3 22 27 44 43 53 37 4 -2 5 -9 2 -14z m1657 6 c0
-5 -5 -11 -11 -13 -6 -2 -11 4 -11 13 0 9 5 15 11 13 6 -2 11 -8 11 -13z
m1474 0 c9 -21 -14 -45 -42 -45 -13 0 -24 -4 -24 -10 0 -5 -4 -10 -9 -10 -11
0 10 62 24 72 17 13 45 9 51 -7z m72 -10 c-3 -3 -9 2 -12 12 -6 14 -5 15 5 6
7 -7 10 -15 7 -18z m-1988 -32 c0 -28 8 -42 37 -69 l37 -34 -22 -23 c-12 -13
-22 -31 -22 -40 0 -25 -16 -21 -39 9 -28 35 -26 46 3 32 29 -13 56 -5 56 16 0
18 -60 66 -83 66 -14 0 -14 4 0 45 17 51 33 51 33 -2z m1108 12 c2 -2 -4 -25
-14 -50 -18 -45 -20 -46 -54 -41 -19 3 -42 6 -50 6 -8 0 -21 4 -29 9 -12 8 -8
17 20 50 32 38 36 40 78 36 25 -3 46 -7 49 -10z m344 -33 c15 -13 21 -13 42 2
15 9 27 12 31 6 3 -6 16 -10 28 -10 26 0 54 -16 45 -25 -4 -4 -14 -2 -24 3
-18 10 -74 -3 -74 -17 0 -5 9 -16 19 -25 27 -24 14 -51 -81 -178 -36 -46 -47
-55 -66 -51 -26 6 -72 -14 -72 -31 0 -6 9 -22 19 -35 19 -24 19 -24 -33 -98
-28 -41 -63 -92 -77 -113 -54 -81 -81 -111 -115 -125 -34 -14 -45 -40 -22 -47
9 -3 8 -12 -5 -32 l-18 -27 -26 21 c-14 11 -32 20 -39 20 -21 0 -27 20 -10 33
9 7 19 30 23 52 5 35 34 91 92 175 10 14 37 63 60 110 24 47 47 89 52 95 5 5
9 15 9 22 0 7 12 32 27 56 15 23 42 74 61 112 19 39 45 89 59 112 25 42 25 42
51 26 15 -9 35 -23 44 -31z m578 23 c0 -8 -4 -15 -8 -15 -5 0 -9 7 -9 15 0 8
4 15 9 15 4 0 8 -7 8 -15z m-1500 -4 c0 -5 -7 -11 -15 -15 -15 -5 -20 5 -8 17
9 10 23 9 23 -2z m1174 -43 c-3 -18 -8 -40 -11 -48 -12 -30 -13 -51 -3 -45 5
3 10 -3 10 -14 0 -29 -14 -33 -33 -10 -19 22 -14 64 9 73 10 4 12 14 8 32 -6
22 5 43 23 44 1 0 0 -15 -3 -32z m103 10 c-3 -8 -6 -5 -6 6 -1 11 2 17 5 13 3
-3 4 -12 1 -19z m-1458 -29 c-10 -19 -4 -58 10 -72 5 -5 24 -10 40 -11 17 -1
31 -2 31 -3 0 -1 -3 -8 -6 -17 -9 -24 -100 37 -124 85 -22 42 -25 53 -11 44 5
-3 12 -1 15 4 4 5 16 4 30 -2 18 -9 22 -16 15 -28z m1646 21 c9 -27 1 -37 -33
-42 l-28 -4 20 33 c25 38 32 40 41 13z m-1478 -20 c18 -16 38 -30 43 -30 20 0
9 -28 -12 -34 -17 -4 -30 2 -46 19 -12 14 -29 25 -37 25 -15 0 -21 31 -8 43
12 12 25 7 60 -23z m1890 -12 c-7 -18 -14 -51 -16 -73 -2 -22 -12 -78 -23
-125 -10 -47 -21 -98 -24 -114 -2 -16 -8 -34 -13 -40 -4 -6 -19 -41 -32 -78
-13 -38 -29 -68 -36 -68 -18 0 -16 25 6 68 10 20 22 53 26 72 4 19 11 40 15
45 11 14 36 111 60 228 20 103 25 117 41 117 5 0 3 -14 -4 -32z m-264 -6 c4
-19 -6 -131 -17 -187 -4 -16 -9 -41 -11 -55 -14 -86 -42 -191 -52 -202 -17
-15 -17 11 -3 64 6 21 13 52 15 70 2 18 9 56 15 83 6 28 13 61 16 75 4 22 11
95 13 153 1 23 17 22 24 -1z m197 8 c0 -48 -39 -217 -72 -310 -22 -63 -42
-127 -45 -142 -3 -15 -14 -30 -24 -33 -21 -7 -42 2 -34 15 2 4 7 25 11 46 3
22 14 63 25 92 10 29 19 69 19 90 0 20 5 55 10 77 5 22 12 60 15 85 9 60 20
78 52 83 16 2 31 5 36 6 4 0 7 -3 7 -9z m120 -20 c0 -11 -4 -20 -9 -20 -5 0
-7 9 -4 20 3 11 7 20 9 20 2 0 4 -9 4 -20z m-2538 -12 c-19 -19 -14 -36 24
-78 20 -22 34 -44 30 -47 -4 -4 -21 7 -38 26 -18 19 -36 30 -45 27 -8 -3 -17
-6 -19 -6 -12 0 0 -26 27 -60 17 -21 28 -44 24 -50 -9 -14 -31 4 -51 42 -8 15
-21 28 -30 28 -12 0 -11 6 8 31 24 33 36 50 57 87 7 13 15 21 19 18 3 -4 0
-12 -6 -18z m2031 -13 c-3 -9 -8 -14 -10 -11 -3 3 -2 9 2 15 9 16 15 13 8 -4z
m-1269 -52 c20 -18 36 -35 36 -38 0 -9 -31 -5 -83 12 -45 15 -49 18 -28 23 25
6 42 30 22 30 -6 0 -11 5 -11 10 0 14 18 3 64 -37z m1519 34 c3 -8 1 -20 -4
-28 -6 -10 -9 -7 -9 14 0 29 5 35 13 14z m-616 -9 c-2 -7 7 -25 21 -40 14 -16
21 -28 14 -28 -6 0 -14 5 -17 10 -10 17 -39 11 -52 -9 -11 -17 -8 -23 20 -45
33 -27 27 -37 -7 -11 -21 16 -41 11 -30 -7 5 -7 1 -9 -9 -5 -19 7 -58 -28 -51
-47 4 -10 -45 -40 -53 -33 -1 2 18 27 43 57 50 59 97 126 107 153 4 9 9 17 13
17 3 0 4 -6 1 -12z m473 -48 c0 -11 -4 -20 -9 -20 -5 0 -7 9 -4 20 3 11 7 20
9 20 2 0 4 -9 4 -20z m-275 -13 c-4 -15 3 -35 19 -60 29 -42 34 -77 12 -77
-23 0 -46 -29 -46 -58 1 -47 -7 -93 -18 -104 -20 -20 -26 1 -14 53 7 28 12 57
12 65 0 17 -34 19 -48 2 -10 -12 -28 -105 -24 -120 1 -5 -5 -8 -13 -8 -12 0
-14 7 -9 28 4 15 11 35 15 44 11 21 12 58 2 58 -25 -1 -53 -14 -53 -26 0 -8
-3 -13 -7 -13 -29 5 -46 -5 -58 -33 -14 -33 -14 -33 -15 -6 0 21 13 38 57 75
87 72 163 153 169 179 3 13 10 24 15 24 5 0 7 -10 4 -23z m205 -34 l-1 -38
-15 29 c-13 24 -14 30 -2 37 7 5 14 9 16 9 1 0 2 -17 2 -37z m197 15 c-3 -8
-6 -5 -6 6 -1 11 2 17 5 13 3 -3 4 -12 1 -19z m-152 -131 c-22 -110 -36 -157
-46 -151 -5 3 -2 22 6 42 16 41 44 175 46 219 l2 28 4 -28 c3 -16 -3 -65 -12
-110z m-2191 62 c21 -30 25 -44 17 -52 -17 -17 -80 55 -66 77 14 22 16 21 49
-25z m2335 -6 c-5 -21 -16 -71 -24 -112 -8 -41 -18 -77 -21 -80 -4 -3 -4 8 -1
24 4 17 14 71 23 122 9 51 20 90 25 88 4 -3 3 -22 -2 -42z m-2389 -64 c12 -16
19 -33 15 -37 -4 -4 -14 3 -22 16 -9 12 -24 22 -34 22 -19 0 -25 11 -12 23 14
14 32 6 53 -24z m1750 -11 c0 -14 -17 -8 -35 12 -17 19 -17 19 9 7 14 -7 26
-15 26 -19z m371 -48 c-7 -33 -9 -65 -6 -70 3 -6 1 -10 -4 -10 -6 0 -11 5 -11
12 0 28 23 139 27 134 3 -3 0 -33 -6 -66z m-62 -9 c-12 -79 -33 -93 -24 -17 8
70 15 90 25 79 5 -4 4 -32 -1 -62z m542 13 c-13 -66 -36 -127 -50 -132 -15 -5
-14 3 8 48 11 22 25 62 32 90 16 63 24 58 10 -6z m-974 17 c-7 -2 -18 -10 -24
-19 -11 -13 -9 -20 10 -40 19 -22 20 -24 3 -18 -28 10 -60 -22 -44 -42 11 -13
9 -14 -12 -7 -14 4 -26 9 -28 10 -1 1 19 34 45 73 30 45 50 66 55 59 4 -7 2
-14 -5 -16z m-1668 -45 c-5 -6 -17 -2 -29 9 -18 17 -22 17 -36 4 -13 -14 -12
-18 6 -42 20 -25 20 -28 5 -43 -15 -15 -17 -15 -31 5 -16 22 -39 28 -49 11
-10 -16 4 -48 22 -52 13 -2 12 -6 -5 -21 -20 -18 -21 -18 -37 12 -17 34 -36
39 -55 16 -9 -11 -7 -19 15 -41 14 -14 23 -29 20 -33 -4 -3 -14 4 -22 17 -16
23 -47 30 -58 12 -3 -5 1 -20 10 -33 13 -21 13 -25 0 -43 -14 -18 -16 -18 -29
-1 -7 9 -18 17 -24 17 -17 0 -23 -29 -10 -50 18 -28 1 -38 -18 -11 -22 31 -48
10 -39 -31 7 -32 3 -35 -20 -12 -8 9 -22 13 -30 10 -17 -6 -21 -36 -5 -36 20
0 9 -18 -15 -24 -13 -3 -36 -22 -51 -41 -14 -19 -47 -50 -73 -68 l-47 -34 -36
33 -36 32 25 7 c17 4 29 1 37 -11 9 -11 19 -14 34 -10 28 9 28 20 -3 60 -14
18 -25 38 -25 44 0 23 17 12 36 -23 10 -19 24 -35 32 -35 23 0 24 29 3 63 -24
40 -29 73 -5 39 16 -24 39 -29 50 -11 3 6 1 16 -5 22 -12 12 -16 67 -5 67 4 0
13 -8 20 -17 12 -17 14 -17 30 -1 18 17 12 38 -12 38 -8 0 -14 4 -14 10 0 5 6
7 13 4 15 -5 83 21 92 36 3 6 23 19 43 29 20 11 47 29 60 41 13 12 30 19 40
16 23 -7 46 8 39 27 -6 16 39 42 48 27 8 -13 61 17 87 49 l23 29 22 -27 c13
-15 18 -30 12 -35z m1727 16 c-4 -3 -14 2 -24 12 -16 18 -16 18 6 6 13 -6 21
-14 18 -18z m5 -89 c-9 -16 -10 -14 -11 12 0 21 3 26 11 18 8 -8 8 -16 0 -30z
m645 -9 c-4 -9 -9 -15 -11 -12 -3 3 -3 13 1 22 4 9 9 15 11 12 3 -3 3 -13 -1
-22z m-829 -20 c-3 -4 -2 -15 4 -25 10 -20 -4 -28 -16 -9 -8 12 1 40 11 40 4
0 4 -3 1 -6z m1043 -24 c0 -5 -4 -10 -10 -10 -5 0 -10 5 -10 10 0 6 5 10 10
10 6 0 10 -4 10 -10z m265 -10 c-3 -5 -14 -10 -23 -9 -14 0 -13 2 3 9 27 11
27 11 20 0z m-1736 -72 c-4 -30 2 -39 24 -38 36 3 39 1 23 -16 -18 -17 -21
-50 -7 -58 5 -4 6 -17 1 -34 -5 -15 -17 -65 -26 -112 -9 -47 -30 -126 -46
-177 l-30 -92 -29 14 c-15 8 -35 15 -44 15 -13 0 -13 4 4 28 34 47 80 219 80
295 -1 66 -2 69 -32 88 -51 30 -98 25 -140 -16 -38 -37 -64 -83 -69 -124 -4
-33 -28 -40 -28 -8 0 35 23 84 67 142 21 27 32 46 26 42 -20 -12 -15 8 6 27
10 10 22 13 25 8 3 -5 31 -12 63 -15 32 -4 68 -10 81 -13 18 -5 22 -2 22 18 0
14 3 28 7 31 11 11 24 8 22 -5z m391 0 c0 -5 -8 -11 -17 -14 -10 -3 -26 -10
-37 -15 -18 -10 -18 -10 0 14 18 23 54 33 54 15z m-60 -82 c0 -5 -3 -6 -7 -3
-3 4 -18 0 -31 -9 l-25 -17 23 33 c17 24 25 29 31 18 5 -7 9 -17 9 -22z m-475
-50 c28 -12 28 -14 10 -21 -11 -4 -33 -20 -48 -34 -36 -33 -51 -15 -28 34 18
38 23 40 66 21z m426 -38 c-7 -13 -24 -43 -37 -68 -22 -41 -24 -42 -19 -13 5
24 1 36 -16 52 l-22 20 26 10 c14 6 31 20 37 32 11 19 13 20 28 6 13 -14 13
-20 3 -39z m-145 -54 c30 -23 34 -32 34 -71 0 -36 5 -50 28 -71 23 -22 28 -35
26 -67 -1 -22 3 -46 9 -53 8 -11 5 -19 -13 -33 -33 -25 -35 -24 -54 16 -9 19
-21 37 -27 41 -8 4 -7 10 2 16 10 7 9 8 -5 4 -10 -4 -29 0 -41 8 -13 8 -32 12
-45 9 -20 -5 -22 -3 -15 13 10 23 45 148 52 187 3 15 7 27 10 27 2 0 20 -12
39 -26z m-246 -6 c0 -12 -12 -61 -27 -109 l-27 -87 -80 -8 c-45 -4 -87 -8 -93
-7 -7 0 -13 -3 -13 -8 0 -5 -9 -9 -20 -9 -27 0 -104 -37 -177 -87 -35 -23 -63
-39 -63 -35 0 4 40 48 88 99 107 113 144 139 252 178 25 9 68 33 95 55 59 46
65 47 65 18z m-1674 -86 c11 -6 15 -15 10 -28 -6 -17 -11 -14 -45 21 -34 36
-36 42 -22 58 14 16 15 16 27 -12 7 -16 20 -33 30 -39z m-91 5 c-4 -16 0 -29
14 -41 12 -11 21 -25 21 -33 0 -22 -27 -14 -48 14 -17 23 -22 25 -36 14 -21
-18 -20 -30 6 -58 21 -23 21 -24 3 -37 -17 -12 -21 -11 -33 13 -7 14 -21 34
-29 43 -9 10 -12 18 -7 18 5 0 32 20 59 45 28 24 51 45 53 45 1 0 0 -10 -3
-23z m2415 -7 c0 -5 -18 -10 -39 -10 -22 0 -43 -4 -46 -10 -3 -5 -21 -10 -39
-10 -18 0 -45 -9 -59 -20 -33 -26 -37 -25 -37 10 0 27 3 30 33 31 17 1 38 1
45 0 6 -1 20 3 30 8 22 13 112 14 112 1z m-2550 -113 c0 -8 9 -22 20 -32 23
-21 25 -36 9 -52 -9 -9 -19 -3 -40 23 -24 30 -26 39 -16 55 14 22 27 25 27 6z
m1850 -63 c0 -2 -16 -4 -35 -4 -19 0 -35 4 -35 8 0 4 16 6 35 4 19 -2 35 -6
35 -8z m-1848 -51 c21 6 21 4 -6 -19 l-29 -25 -36 35 -36 35 -33 -25 c-17 -14
-32 -29 -32 -34 0 -5 11 -22 25 -38 31 -37 31 -42 -6 -70 -21 -18 -29 -20 -29
-9 0 8 9 17 21 20 20 5 20 6 -7 47 l-28 42 53 50 52 51 34 -33 c25 -24 40 -31
57 -27z m-82 -64 c0 -6 -4 -7 -10 -4 -5 3 -10 11 -10 16 0 6 5 7 10 4 6 -3 10
-11 10 -16z m-158 -84 c11 -14 27 -25 36 -25 15 0 15 -2 2 -10 -16 -10 -44 10
-61 42 -14 26 0 22 23 -7z m-22 -77 c0 -18 -31 -6 -46 17 -24 37 -6 53 22 19
13 -16 23 -32 24 -36z m-60 -40 c0 -4 -6 -8 -14 -8 -18 0 -47 40 -40 52 6 10
54 -29 54 -44z m-100 -72 c0 -5 -7 -3 -15 4 -8 7 -15 20 -15 28 0 13 3 12 15
-4 8 -10 15 -23 15 -28z m-90 -46 c0 -11 -4 -20 -9 -20 -14 0 -23 18 -16 30
10 17 25 11 25 -10z m-70 -26 c0 -8 -4 -12 -10 -9 -5 3 -10 10 -10 16 0 5 5 9
10 9 6 0 10 -7 10 -16z m-69 -27 c-1 -12 -15 -9 -19 4 -3 6 1 10 8 8 6 -3 11
-8 11 -12z m-234 -72 c-15 -13 -34 -22 -42 -19 -23 9 -18 19 18 31 50 16 54
14 24 -12z m4698 0 c0 -15 -6 -19 -24 -17 -31 3 -35 7 -27 27 9 24 51 15 51
-10z m-4630 5 c3 -5 -1 -10 -10 -10 -9 0 -13 5 -10 10 3 6 8 10 10 10 2 0 7
-4 10 -10z m-32 -67 c-7 -2 -19 -2 -25 0 -7 3 -2 5 12 5 14 0 19 -2 13 -5z
m4557 -64 c0 -12 -37 -12 -45 0 -3 5 3 11 12 13 21 5 33 0 33 -13z m-15 -99
c4 -6 -8 -10 -29 -10 -20 0 -36 5 -36 10 0 6 13 10 29 10 17 0 33 -4 36 -10z
m-738 -76 c-3 -3 -12 -4 -19 -1 -8 3 -5 6 6 6 11 1 17 -2 13 -5z m-267 -28 c0
-2 -8 -10 -17 -17 -16 -13 -17 -12 -4 4 13 16 21 21 21 13z m1110 -10 c0 -9
-30 -14 -35 -6 -4 6 3 10 14 10 12 0 21 -2 21 -4z m-1182 -38 c-6 -17 -70 -48
-98 -47 -17 1 -19 3 -7 6 9 2 17 8 17 13 0 5 16 12 35 16 19 3 35 10 35 15 0
5 5 9 11 9 6 0 9 -5 7 -12z m-183 -58 c-3 -5 -14 -10 -23 -10 -15 0 -15 2 -2
10 20 13 33 13 25 0z m-92 -7 c-7 -2 -19 -2 -25 0 -7 3 -2 5 12 5 14 0 19 -2
13 -5z m-108 -13 c-3 -5 -12 -10 -20 -10 -8 0 -17 5 -20 10 -4 6 5 10 20 10
15 0 24 -4 20 -10z m-3170 -10 c3 -5 1 -10 -4 -10 -6 0 -11 5 -11 10 0 6 2 10
4 10 3 0 8 -4 11 -10z M1125 7069 c-10 -14 5 -49 20 -49 18 0 26 14 19 33 -7
19 -31 29 -39 16z M3007 6412 c-22 -23 -27 -35 -21 -56 4 -15 12 -30 19 -32 7
-3 15 -14 18 -25 4 -15 14 -19 46 -19 30 0 41 4 41 15 0 10 -10 15 -30 15 -32
0 -33 1 -24 24 5 14 8 14 29 0 13 -8 26 -11 29 -6 7 12 -25 47 -44 47 -8 0
-15 9 -15 20 0 15 6 19 23 17 15 -1 22 2 20 10 -3 7 -18 14 -34 16 -22 2 -37
-5 -57 -26z M4036 5817 c-25 -19 -10 -45 33 -56 20 -5 68 -17 107 -26 74 -19
104 -16 104 9 0 10 -25 22 -72 37 -40 12 -88 28 -106 35 -40 17 -44 17 -66 1z
M3994 5705 c-11 -27 10 -36 72 -33 51 3 59 6 59 23 0 18 -8 20 -63 23 -50 2
-63 0 -68 -13z M3801 5503 c-18 -19 -9 -26 14 -9 10 7 14 15 9 18 -5 3 -15 -1
-23 -9z M3790 5450 c18 -12 30 -13 30 -2 0 4 -10 9 -22 9 -18 2 -20 0 -8 -7z
M4530 4750 c0 -5 5 -10 10 -10 6 0 10 5 10 10 0 6 -4 10 -10 10 -5 0 -10 -4
-10 -10z M4500 4730 c-9 -6 -10 -10 -3 -10 6 0 15 5 18 10 8 12 4 12 -15 0z
M4540 4650 c0 -5 5 -10 11 -10 5 0 7 5 4 10 -3 6 -8 10 -11 10 -2 0 -4 -4 -4
-10z M4545 4620 c-3 -5 -1 -10 4 -10 6 0 11 5 11 10 0 6 -2 10 -4 10 -3 0 -8
-4 -11 -10z M3710 4510 c0 -5 5 -10 10 -10 6 0 10 5 10 10 0 6 -4 10 -10 10
-5 0 -10 -4 -10 -10z M3550 4065 c0 -8 5 -15 10 -15 6 0 10 7 10 15 0 8 -4 15
-10 15 -5 0 -10 -7 -10 -15z M3110 3663 c-13 -3 -37 -16 -53 -29 -16 -13 -39
-24 -53 -24 -16 0 -24 -6 -24 -17 0 -13 -9 -19 -30 -20 -38 -3 -80 -30 -80
-53 0 -10 -5 -20 -11 -22 -15 -5 -4 -56 19 -86 24 -31 80 -43 120 -26 17 7 33
10 36 7 3 -3 17 -2 31 1 18 5 25 12 21 21 -3 8 -1 15 4 15 6 0 19 9 31 21 11
11 30 22 41 24 28 6 38 23 29 49 -5 11 -4 38 1 60 6 26 6 42 -1 44 -5 2 -8 9
-5 16 4 11 -29 29 -46 25 -3 -1 -16 -4 -30 -6z m42 -54 c15 -10 -8 -53 -35
-68 -29 -16 -47 -8 -47 20 0 15 5 18 23 14 15 -4 28 -1 36 9 15 18 5 40 -15
32 -17 -7 -18 1 -1 18 10 12 13 11 21 -3 5 -9 13 -19 18 -22z m-126 -124 c-9
-9 -17 -21 -17 -26 -1 -5 -2 -15 -3 -21 -2 -20 -44 -17 -71 4 -29 22 -33 63
-8 76 9 5 34 7 55 5 28 -4 38 -2 39 8 0 8 5 4 11 -8 8 -17 7 -25 -6 -38z m89
5 c3 -5 -1 -10 -9 -10 -8 0 -18 5 -21 10 -3 6 1 10 9 10 8 0 18 -4 21 -10z
M2934 3505 c-18 -14 -18 -14 3 -15 23 0 39 15 25 24 -5 3 -18 -1 -28 -9z
M3270 3630 c0 -5 7 -10 16 -10 8 0 12 5 9 10 -3 6 -10 10 -16 10 -5 0 -9 -4
-9 -10z M2612 3415 c-11 -13 -22 -22 -25 -18 -4 3 -23 -2 -43 -12 -20 -9 -45
-14 -57 -11 -25 6 -91 -20 -82 -34 3 -5 14 -10 24 -10 12 0 18 -7 17 -17 -2
-26 34 -29 41 -4 3 11 9 19 13 16 5 -3 11 -1 15 5 8 13 25 13 25 0 0 -21 -49
-60 -75 -60 -17 0 -29 8 -37 25 -12 27 -27 32 -45 14 -18 -18 13 -66 52 -79
23 -8 35 -18 35 -29 0 -14 10 -20 39 -25 48 -7 71 0 71 23 0 14 7 17 28 13 24
-3 37 5 78 48 76 80 83 151 16 169 -55 16 -68 14 -90 -14z m41 -32 c-21 -7
-15 -33 7 -33 11 0 20 -4 20 -9 0 -13 -78 -19 -90 -7 -14 14 -12 26 3 26 6 0
23 9 37 20 14 10 27 16 30 13 3 -3 -1 -8 -7 -10z m-16 -98 c8 -21 -1 -28 -27
-20 -17 5 -19 10 -9 21 15 18 28 18 36 -1z m-69 -38 c4 -20 -25 -34 -39 -20
-14 14 1 45 20 41 9 -2 17 -11 19 -21z M2820 3295 c0 -17 2 -18 24 -9 18 7 12
24 -10 24 -8 0 -14 -7 -14 -15z M2621 3180 c-25 -4 -47 -12 -49 -18 -2 -7 -10
-12 -18 -12 -9 0 -12 -5 -9 -11 8 -13 59 -4 103 19 29 15 44 34 25 31 -5 -1
-28 -5 -52 -9z M4295 4280 c3 -5 8 -10 11 -10 2 0 4 5 4 10 0 6 -5 10 -11 10
-5 0 -7 -4 -4 -10z M4295 4210 c-3 -5 1 -10 9 -10 9 0 16 5 16 10 0 6 -4 10
-9 10 -6 0 -13 -4 -16 -10z M3482 3948 c-17 -17 -15 -28 7 -28 16 0 31 18 31
36 0 9 -27 3 -38 -8z M3937 3673 c-4 -3 -7 -11 -7 -17 0 -6 5 -5 12 2 6 6 9
14 7 17 -3 3 -9 2 -12 -2z M4038 3639 c-28 -16 -21 -27 25 -39 54 -14 96 -31
102 -40 3 -5 -19 -2 -47 6 -41 11 -59 11 -80 3 -38 -16 -35 -24 15 -39 23 -8
59 -25 79 -38 20 -13 45 -22 55 -20 25 5 28 35 6 61 l-18 21 29 -18 c32 -20
117 -27 123 -10 6 17 -25 44 -49 44 -11 0 -26 6 -32 14 -15 19 -133 66 -165
66 -14 0 -34 -5 -43 -11z M3172 2809 c-19 -7 -21 -12 -12 -29 13 -24 48 -27
57 -4 9 24 -18 44 -45 33z m18 -13 c0 -11 -19 -15 -25 -6 -3 5 1 10 9 10 9 0
16 -2 16 -4z M3124 2739 c-9 -16 21 -43 40 -36 9 4 16 16 16 27 0 15 -7 20
-24 20 -14 0 -28 -5 -32 -11z M2817 2423 c-22 -21 11 -73 46 -73 20 0 22 19 5
55 -11 24 -37 33 -51 18z M250 1034 c0 -9 5 -14 12 -12 18 6 21 28 4 28 -9 0
-16 -7 -16 -16z M3279 1838 c9 -25 31 -36 31 -16 0 15 -19 38 -32 38 -4 0 -4
-10 1 -22z M3700 8719 c-14 -6 -83 -28 -155 -49 -157 -47 -259 -82 -263 -92
-2 -5 -13 -8 -24 -8 -12 0 -54 -16 -95 -35 -41 -19 -86 -35 -100 -35 -38 0
-65 -27 -52 -51 5 -11 17 -19 26 -19 52 0 -103 -61 -217 -85 -41 -9 -103 -28
-138 -42 -47 -20 -66 -23 -74 -15 -9 9 -7 19 10 42 27 35 28 47 5 52 -28 6
-164 -42 -203 -71 -19 -14 -48 -33 -64 -41 -42 -22 -56 -48 -33 -64 15 -12 9
-15 -45 -25 -122 -24 -257 -62 -258 -74 0 -1 -6 -20 -14 -41 -12 -35 -19 -41
-62 -52 -71 -18 -141 -27 -154 -19 -7 5 4 17 29 31 48 29 46 50 -6 60 -52 10
-76 1 -363 -128 -129 -58 -150 -69 -150 -78 0 -22 42 -13 160 34 8 3 31 16 50
28 41 25 206 98 222 98 6 0 3 -11 -6 -25 -21 -32 -20 -48 2 -68 26 -23 53 -21
108 8 26 14 53 25 61 25 28 0 148 43 160 57 6 8 9 21 7 28 -6 14 87 53 146 62
83 11 260 56 270 68 14 17 -9 35 -49 38 -17 1 -31 4 -31 7 0 12 149 95 157 87
2 -3 -2 -15 -9 -26 -22 -35 0 -56 59 -55 49 1 361 101 471 150 57 26 70 56 30
68 -20 5 -15 10 32 27 30 12 73 27 95 34 22 7 72 25 110 40 167 65 207 77 335
104 74 15 144 29 155 29 11 1 79 3 152 6 72 2 140 9 150 15 24 14 -402 14
-437 0z M4319 8625 c-33 -17 -59 -57 -59 -88 0 -13 -11 -34 -25 -47 -32 -30
-32 -85 0 -85 16 0 21 8 25 40 4 32 9 41 28 43 19 3 22 9 22 52 0 41 4 51 27
68 32 23 18 36 -18 17z M4928 8595 c-6 -14 -17 -25 -23 -25 -19 0 -45 -35 -45
-61 0 -36 14 -52 38 -45 17 6 20 13 15 41 -5 31 -3 33 16 28 19 -5 21 -1 21
41 0 52 -5 57 -22 21z M115 8560 c-3 -5 -1 -10 4 -10 6 0 11 5 11 10 0 6 -2
10 -4 10 -3 0 -8 -4 -11 -10z M4517 8544 c-15 -15 -6 -21 39 -28 50 -6 73 -27
74 -64 0 -14 4 -21 11 -16 15 9 59 -16 59 -35 1 -35 41 -64 55 -41 8 13 -14
80 -26 80 -5 0 -32 23 -60 50 -28 28 -59 50 -69 50 -10 0 -30 3 -46 6 -16 3
-32 2 -37 -2z M4336 8121 c-6 -9 18 -21 52 -27 29 -5 62 -36 62 -57 0 -14 11
-28 30 -39 22 -13 30 -24 30 -46 0 -15 -5 -33 -12 -40 -20 -20 16 -15 42 6 31
25 20 77 -21 101 -16 9 -31 27 -34 41 -6 27 -33 49 -69 56 -11 2 -33 6 -48 9
-14 4 -29 2 -32 -4z M4110 7821 c-6 -12 -6 -22 -1 -25 12 -8 43 23 36 35 -10
15 -24 10 -35 -10z M4058 7783 c-9 -10 -14 -31 -12 -46 2 -18 -4 -35 -17 -48
-35 -35 -21 -65 26 -53 20 5 23 9 14 20 -14 18 -4 44 17 44 12 0 15 6 10 23
-3 12 -6 34 -6 50 0 31 -10 34 -32 10z M4895 6980 c3 -5 8 -10 11 -10 2 0 4 5
4 10 0 6 -5 10 -11 10 -5 0 -7 -4 -4 -10z M4204 6260 c-41 -16 -37 -30 8 -30
55 0 132 -21 183 -49 22 -12 65 -35 95 -52 69 -37 145 -60 157 -48 6 6 16 2
28 -11 10 -11 23 -20 30 -20 7 0 26 -7 42 -15 35 -17 66 -10 61 13 -2 9 -14
22 -28 28 -67 32 -80 36 -95 30 -10 -3 -29 3 -45 14 -15 11 -33 20 -39 20 -7
0 -39 15 -73 33 -33 17 -77 41 -97 51 -70 37 -181 55 -227 36z M805 4020 c-3
-5 -1 -10 4 -10 6 0 11 5 11 10 0 6 -2 10 -4 10 -3 0 -8 -4 -11 -10z M262
3118 c-81 -14 -183 -81 -144 -95 6 -3 12 -11 12 -19 0 -8 7 -14 15 -14 23 0
37 -36 20 -50 -18 -15 -9 -34 12 -26 8 3 11 1 8 -4 -3 -6 -18 -10 -32 -10 -36
0 -103 -40 -103 -62 0 -23 20 -24 20 0 1 9 7 1 14 -19 13 -37 10 -99 -4 -99
-18 0 -23 -88 -26 -460 l-3 -395 23 46 c24 46 31 70 42 143 9 61 17 77 34 66
13 -8 12 -11 -4 -23 -44 -33 40 -33 108 -1 41 20 79 73 64 91 -8 10 -6 13 10
13 27 0 82 47 82 70 0 10 7 23 15 30 23 19 19 43 -5 35 -14 -5 -20 -2 -20 9 0
18 -45 23 -55 6 -3 -5 -33 -17 -67 -26 -41 -12 -62 -23 -66 -36 -5 -19 -14
-23 -26 -11 -4 4 3 15 15 24 24 18 18 42 -9 37 -9 -2 -25 5 -35 15 -12 12 -25
15 -44 11 -24 -6 -26 -5 -20 17 4 13 7 34 7 47 0 19 5 23 23 20 12 -2 22 -10
23 -18 3 -41 4 -42 32 -35 56 13 68 55 15 55 -21 0 -23 2 -13 15 18 21 6 41
-27 48 -27 5 -28 8 -25 47 2 23 9 43 16 45 6 2 23 6 38 9 36 8 68 54 47 67
-12 7 -11 9 2 9 19 0 33 26 23 42 -4 5 -21 7 -40 3 -29 -5 -34 -3 -34 13 0 20
48 42 93 42 19 0 26 -6 29 -22 4 -32 62 -36 124 -9 26 12 55 21 66 21 30 0 58
19 58 40 0 26 -15 33 -41 19 -20 -10 -21 -9 -17 15 3 14 2 23 -3 21 -4 -3 -10
-1 -13 4 -3 4 -20 11 -38 15 -24 5 -29 9 -20 18 7 7 12 18 12 25 0 16 -76 18
-116 3 -22 -9 -29 -8 -36 5 -5 8 -16 15 -25 15 -9 0 -13 3 -9 7 4 4 34 6 67 5
53 -2 61 0 66 17 3 11 10 18 17 15 7 -3 21 4 31 16 10 11 24 20 31 20 37 0 23
51 -19 73 -33 17 -94 19 -175 5z m-169 -582 c3 -8 -1 -20 -9 -26 -12 -10 -14
-8 -14 14 0 28 14 35 23 12z m2 -343 c-3 -27 -14 -55 -22 -63 -14 -13 -15 -13
-9 3 3 10 6 39 6 63 0 34 4 44 16 44 14 0 15 -8 9 -47z m90 27 c-3 -5 -10 -10
-16 -10 -5 0 -9 5 -9 10 0 6 7 10 16 10 8 0 12 -4 9 -10z m-25 -60 c0 -5 -4
-10 -10 -10 -5 0 -10 5 -10 10 0 6 5 10 10 10 6 0 10 -4 10 -10z M57 1773 c-4
-3 -7 -13 -7 -21 0 -12 3 -12 15 -2 8 7 15 16 15 21 0 11 -14 12 -23 2z M110
1033 c1 -14 76 -117 88 -121 18 -6 15 28 -3 34 -8 4 -15 14 -15 24 0 23 -37
70 -56 70 -8 0 -14 -3 -14 -7z M3865 910 c-3 -5 -1 -10 4 -10 6 0 11 5 11 10
0 6 -2 10 -4 10 -3 0 -8 -4 -11 -10z M4942 740 c0 -14 2 -19 5 -12 2 6 2 18 0
25 -3 6 -5 1 -5 -13z M3735 399 c-67 -5 -66 -6 33 -7 101 -2 133 2 70 9 -18 2
-64 1 -103 -2z M3467 393 c18 -2 50 -2 70 0 21 2 7 4 -32 4 -38 0 -55 -2 -38
-4z M4128 393 c6 -2 18 -2 25 0 6 3 1 5 -13 5 -14 0 -19 -2 -12 -5z"/>
</g>
</svg>
