<?xml version="1.0" standalone="no"?>
<!DOCTYPE svg PUBLIC "-//W3C//DTD SVG 20010904//EN"
 "http://www.w3.org/TR/2001/REC-SVG-20010904/DTD/svg10.dtd">
<svg version="1.0" xmlns="http://www.w3.org/2000/svg"
 width="500.000000pt" height="878.000000pt" viewBox="0 0 500.000000 878.000000"
 preserveAspectRatio="xMidYMid meet">
<metadata>
Created by potrace 1.16, written by Peter Selinger 2001-2019
</metadata>
<g transform="translate(0.000000,878.000000) scale(0.100000,-0.100000)"
fill="#000000" stroke="none">
<path d="M790 8723 c0 -5 9 -38 19 -75 l18 -66 -94 -43 c-72 -32 -95 -48 -99
-66 -9 -33 -81 -92 -123 -99 -20 -3 -47 -13 -60 -21 -20 -13 -23 -21 -18 -54
5 -36 3 -40 -21 -45 -15 -4 -43 -19 -62 -34 -77 -59 -112 -60 -44 0 24 20 34
37 31 49 -3 12 5 24 24 35 42 25 47 55 15 83 -42 36 -93 34 -168 -7 -67 -37
-158 -123 -158 -150 0 -20 1 -20 27 -3 15 10 45 36 68 58 61 61 149 98 182 77
15 -9 6 -22 -30 -46 -20 -12 -27 -23 -24 -37 4 -13 -4 -29 -23 -47 -32 -30
-52 -101 -29 -103 45 -3 78 7 135 42 35 21 75 41 88 45 35 8 51 31 51 73 0 35
2 36 54 53 61 20 102 54 126 104 11 24 27 37 63 50 26 10 56 24 67 31 27 18
32 17 38 -14 3 -16 10 -48 16 -73 5 -25 19 -99 31 -165 11 -66 28 -156 36
-200 30 -150 35 -188 27 -196 -11 -11 -143 -59 -143 -53 0 3 9 19 21 35 32 45
3 47 -80 4 -79 -39 -145 -65 -236 -90 -73 -21 -127 -58 -155 -107 -33 -59 -17
-70 53 -39 66 30 138 51 171 51 28 -1 24 -4 -36 -36 -71 -38 -89 -61 -63 -81
15 -10 12 -15 -24 -37 -23 -15 -41 -33 -41 -41 0 -8 -16 -22 -35 -31 -43 -20
-50 -31 -35 -49 8 -10 6 -17 -12 -29 -12 -9 -28 -16 -34 -16 -12 0 -144 -74
-216 -121 -21 -13 -38 -32 -38 -41 0 -21 13 -23 29 -4 17 20 163 108 259 155
47 24 82 48 82 56 0 8 -4 15 -10 15 -24 0 -6 17 33 31 33 11 42 19 40 36 -2
14 10 29 37 48 44 31 48 39 23 54 -21 11 -22 10 44 41 62 28 88 53 79 76 -6
14 -17 16 -82 11 -41 -3 -81 -10 -87 -15 -7 -6 -28 -17 -48 -25 -35 -14 -36
-14 -32 4 3 11 22 28 42 38 38 19 169 66 186 66 6 0 35 14 65 32 56 32 72 35
51 10 -9 -11 -8 -17 4 -27 17 -14 32 -11 134 24 41 15 75 25 76 24 2 -2 12
-48 24 -103 11 -55 30 -136 42 -180 13 -49 22 -117 24 -176 l3 -96 -67 -12
c-158 -29 -170 -41 -141 -137 10 -32 23 -78 29 -101 11 -39 15 -43 44 -43 18
0 56 11 85 25 30 14 56 25 58 25 2 0 4 -12 4 -27 0 -68 6 -115 16 -121 15 -10
44 -72 44 -93 0 -25 88 -69 135 -69 31 0 38 -4 50 -32 11 -27 11 -35 -1 -52
-35 -51 1 -144 66 -170 79 -31 178 -10 195 43 7 24 43 24 56 -1 5 -10 16 -18
23 -18 7 0 49 -29 92 -65 67 -56 220 -155 239 -155 13 0 75 -56 75 -67 0 -18
60 -63 85 -63 16 0 25 -7 29 -24 3 -14 15 -28 27 -31 15 -5 19 -14 17 -33 -2
-20 3 -29 22 -39 14 -7 23 -13 20 -14 -3 0 -20 -2 -38 -5 -18 -2 -45 -10 -60
-18 -15 -7 -38 -17 -52 -21 -22 -6 -20 -2 13 25 20 17 37 38 37 45 0 20 -32
35 -72 35 -40 0 -240 -57 -405 -116 -85 -31 -139 -44 -175 -44 l-52 0 30 28
c16 15 42 36 57 46 24 15 26 20 15 33 -11 13 -10 18 7 27 30 17 76 68 72 80
-2 6 -15 17 -29 23 -34 17 -114 -6 -184 -53 -62 -41 -91 -45 -44 -6 39 33 36
56 -9 65 -29 6 -87 -7 -106 -24 -14 -14 -23 -11 -21 7 2 29 -28 39 -65 22 -67
-31 -177 -78 -184 -78 -18 0 -268 -130 -313 -162 -62 -46 -195 -115 -234 -122
-28 -5 -38 7 -17 20 6 3 9 14 6 24 -3 12 5 26 24 41 16 12 29 30 29 40 0 22
-32 41 -54 33 -32 -12 -14 5 47 45 35 22 75 54 91 70 24 25 26 30 12 44 -36
36 -182 -7 -276 -82 -88 -70 -123 -90 -142 -80 -23 12 -128 -34 -128 -56 0
-19 4 -19 42 1 18 9 40 13 55 9 30 -7 133 46 204 106 26 21 66 48 90 59 46 20
99 26 99 11 0 -10 -103 -83 -132 -94 -22 -8 -52 -53 -44 -66 4 -5 22 -7 41 -4
45 7 44 -3 -2 -44 -30 -25 -35 -35 -26 -44 10 -10 9 -16 -3 -30 -26 -29 -7
-42 51 -37 62 5 161 52 284 133 97 64 184 107 364 180 l127 52 0 -28 c0 -36
14 -37 71 -4 43 24 79 32 79 18 0 -4 -12 -20 -27 -36 -27 -28 -28 -29 -9 -43
30 -21 46 -18 117 25 69 42 144 69 157 57 4 -4 -14 -26 -40 -48 -29 -24 -48
-49 -48 -62 -1 -13 -17 -33 -45 -54 -25 -18 -45 -39 -45 -48 0 -44 133 -42
250 5 77 30 334 104 405 116 l40 7 -42 -44 c-34 -36 -40 -47 -32 -65 7 -19 14
-22 41 -17 18 3 44 10 58 14 14 5 48 16 77 24 l51 14 12 -27 c17 -42 66 -85
143 -125 107 -57 143 -45 89 31 -30 42 -28 46 11 23 42 -26 171 -29 185 -4 8
15 18 14 102 -11 53 -15 107 -37 123 -51 16 -13 41 -24 58 -24 16 0 29 -5 29
-10 0 -17 61 -100 112 -151 31 -32 58 -50 82 -55 20 -3 36 -12 36 -18 0 -23
46 -56 98 -71 l52 -16 -40 -38 c-22 -21 -40 -43 -40 -50 0 -23 33 -24 76 -2
26 12 64 21 90 21 25 0 59 8 77 17 24 12 59 17 141 17 l109 1 17 -29 c21 -38
34 -42 57 -17 17 18 24 19 58 10 21 -6 54 -9 74 -7 20 3 62 -1 93 -7 48 -10
60 -10 69 2 10 12 15 10 30 -14 19 -31 40 -151 34 -198 -2 -16 -7 -58 -11 -93
-5 -45 -12 -69 -27 -83 -37 -34 -42 -19 -39 102 1 62 0 119 -2 126 -14 35 -66
-34 -66 -87 0 -31 -19 -90 -28 -90 -4 1 -17 6 -29 13 -15 8 -19 17 -14 26 5 7
13 11 18 8 18 -11 33 10 39 56 7 50 0 57 -37 37 -17 -10 -19 -7 -19 25 0 54
-30 42 -38 -15 -2 -14 -7 -29 -13 -35 -6 -6 -7 14 -2 54 5 52 4 63 -8 59 -8
-3 -16 -24 -19 -53 -3 -29 -11 -50 -19 -53 -11 -4 -12 2 -7 23 11 43 18 125
11 125 -21 0 -43 -22 -38 -39 5 -21 -15 -67 -25 -56 -4 4 -7 32 -7 62 0 32 -5
58 -11 60 -20 7 -54 -32 -59 -66 -5 -43 -11 -48 -19 -16 -4 14 -13 25 -20 25
-17 0 -46 -27 -46 -41 0 -12 -64 -79 -76 -79 -5 -1 -24 -14 -43 -30 -27 -23
-38 -27 -48 -18 -11 9 -11 14 3 29 9 10 25 21 35 24 21 7 26 49 8 61 -6 3 -42
-15 -79 -41 -52 -35 -73 -44 -85 -37 -14 7 -11 14 24 41 43 35 53 68 26 91
-17 14 -41 -2 -94 -62 -39 -45 -61 -49 -61 -12 0 33 17 64 35 64 18 0 45 39
38 56 -12 32 -64 9 -131 -57 -15 -15 -62 -45 -105 -68 -62 -34 -81 -40 -93
-30 -7 6 -27 9 -44 7 -27 -4 -30 -2 -30 23 0 40 -13 43 -76 20 -30 -12 -60
-21 -66 -21 -19 0 22 38 55 51 48 19 77 49 77 80 0 15 7 34 15 43 16 16 20 46
7 46 -5 0 -26 -9 -48 -19 -21 -10 -61 -22 -89 -26 -67 -10 -95 -22 -95 -39 0
-24 -41 -46 -87 -46 -36 0 -50 -7 -99 -50 -31 -28 -62 -50 -68 -50 -6 0 8 17
32 38 39 34 44 43 52 102 5 36 10 70 10 77 0 7 29 21 65 32 100 31 146 84 169
192 3 14 17 31 31 37 34 16 23 46 -14 37 -37 -9 -71 -33 -71 -50 0 -24 -43
-46 -77 -39 -18 3 -33 1 -37 -5 -4 -6 -22 -11 -39 -11 -32 0 -101 -20 -113
-33 -4 -4 -19 -7 -34 -7 -47 0 -145 -92 -175 -163 -8 -20 -20 -39 -26 -42 -22
-14 -23 7 -2 48 12 23 24 54 27 69 3 14 17 40 31 56 14 17 25 34 25 40 0 18
-118 -18 -186 -58 -38 -22 -74 -40 -81 -40 -7 0 -23 -11 -34 -24 -16 -19 -36
-26 -78 -31 -31 -3 -69 -8 -84 -10 -45 -6 -130 -38 -149 -57 -19 -19 -38 -24
-38 -10 0 5 11 19 25 32 57 54 14 98 -59 60 -22 -11 -42 -17 -45 -13 -3 3 0 8
7 10 33 12 55 108 32 143 -7 11 4 26 46 64 31 27 51 53 47 57 -12 12 -260 -14
-274 -28 -6 -6 -11 -34 -11 -63 1 -39 -4 -55 -19 -68 -11 -9 -32 -29 -48 -43
-20 -20 -31 -25 -43 -18 -12 7 -22 3 -36 -16 -11 -14 -43 -33 -72 -42 -29 -9
-58 -26 -67 -39 -19 -30 -19 -118 1 -149 15 -23 15 -25 -1 -25 -10 0 -27 7
-38 15 -26 20 -77 10 -136 -27 -25 -15 -49 -28 -53 -28 -4 0 -35 -13 -69 -29
-34 -16 -73 -32 -87 -35 -24 -6 -24 -6 4 16 147 113 152 158 18 158 -44 0 -84
-9 -153 -36 -52 -20 -143 -54 -204 -76 -111 -40 -126 -46 -270 -114 l-80 -38
40 -6 c33 -5 36 -7 19 -13 -30 -11 -86 -66 -81 -80 2 -7 14 -11 25 -9 38 6 24
-17 -28 -43 -27 -14 -50 -32 -50 -40 0 -20 1 -20 71 15 77 39 105 66 88 86 -6
8 -18 14 -26 14 -24 0 -3 20 38 37 44 17 64 44 47 61 -15 15 36 39 242 111 96
34 191 68 210 75 19 7 61 14 93 15 75 2 75 -15 -2 -65 -95 -63 -115 -124 -41
-124 38 0 177 57 220 90 45 35 74 50 96 50 10 0 -5 -11 -33 -25 -28 -14 -71
-46 -97 -70 -25 -25 -52 -45 -59 -45 -7 0 -50 -18 -95 -40 -44 -22 -93 -40
-108 -40 -30 0 -94 -28 -94 -41 0 -5 -6 -9 -13 -9 -7 0 -32 -20 -55 -44 -24
-25 -52 -48 -63 -51 -24 -8 -170 -96 -217 -131 -26 -21 -32 -32 -32 -63 0 -25
-5 -41 -15 -45 -21 -8 -19 -59 5 -98 11 -18 20 -45 20 -59 0 -34 16 -46 69
-55 29 -5 47 -14 59 -32 15 -22 20 -24 73 -19 l57 5 -9 -34 c-17 -59 33 -105
80 -75 9 6 23 4 38 -6 37 -25 119 -19 195 12 13 5 20 1 25 -11 4 -11 17 -27
30 -37 l22 -18 -29 -47 c-17 -27 -33 -72 -38 -105 -8 -50 -7 -61 9 -80 l18
-22 43 23 c37 19 53 22 103 16 33 -4 66 -11 73 -17 24 -19 165 -20 268 -3 138
23 312 55 354 66 81 20 157 43 193 56 32 12 37 12 37 0 0 -17 49 -58 60 -51
14 9 130 -150 130 -179 0 -7 10 -35 22 -62 12 -27 23 -67 24 -89 3 -50 -15
-143 -33 -171 -13 -21 -10 -114 4 -137 17 -27 19 -84 7 -159 -16 -100 -18
-148 -4 -148 6 0 -3 -19 -20 -42 -16 -22 -30 -47 -30 -54 0 -7 -4 -14 -9 -16
-4 -1 -30 -37 -56 -78 -47 -76 -164 -196 -244 -252 -24 -17 -85 -52 -135 -78
-183 -94 -202 -106 -249 -155 -55 -58 -47 -50 -130 -131 -36 -35 -69 -74 -73
-86 -7 -24 -339 -358 -356 -358 -5 0 -36 -25 -69 -57 -32 -31 -62 -54 -65 -51
-3 3 -26 0 -52 -6 -26 -7 -68 -11 -94 -9 -53 5 -146 -19 -181 -48 -14 -10 -30
-19 -36 -19 -6 0 -11 -4 -11 -10 0 -5 -5 -10 -11 -10 -7 0 -9 10 -4 27 6 24
14 67 29 148 13 72 53 218 88 320 22 66 43 131 45 145 3 14 10 31 16 38 6 8
12 32 15 55 2 23 8 47 14 54 5 7 10 28 11 47 1 31 4 35 36 41 41 8 51 19 51
58 0 20 -7 31 -26 39 -24 11 -25 16 -19 52 3 23 15 50 25 62 11 11 20 28 20
37 0 13 9 17 44 17 30 0 46 5 50 15 3 8 14 15 24 15 18 0 42 18 42 31 0 3 -13
9 -30 12 -18 4 -30 13 -30 22 0 9 -10 20 -23 24 -20 8 -20 10 -4 16 21 9 67
-12 67 -31 0 -7 18 -15 40 -19 48 -8 50 -16 10 -33 -34 -16 -40 -46 -11 -62
11 -5 41 -12 68 -14 26 -3 67 -8 89 -11 31 -5 53 -1 87 14 26 12 50 20 54 19
4 -1 18 2 31 6 16 5 22 14 20 29 -2 14 -9 21 -18 18 -8 -2 -22 -5 -30 -7 -8
-2 -26 5 -40 15 -23 19 -24 20 -7 39 9 10 17 22 17 25 0 10 -70 37 -96 37 -13
0 -24 4 -24 9 0 5 -13 14 -30 21 -30 12 -32 30 -4 30 8 0 47 16 87 36 90 45
125 51 144 24 8 -11 24 -20 35 -20 12 0 18 -3 15 -7 -4 -3 -2 -12 4 -20 9 -10
28 -12 76 -7 42 5 77 2 103 -6 71 -23 130 14 70 45 -17 9 -30 22 -30 30 0 9
-11 20 -25 27 -28 13 -37 39 -17 54 16 12 19 47 9 86 -6 22 -4 28 8 28 8 0 15
7 15 16 0 8 4 12 10 9 5 -3 18 -1 29 5 13 7 22 7 26 0 11 -18 42 -10 53 14 14
31 8 36 -44 36 -23 0 -55 5 -71 11 -53 21 -276 10 -343 -16 -9 -3 -24 1 -35 9
-18 13 -18 14 9 9 20 -4 33 -1 41 11 11 14 17 15 39 5 23 -11 29 -10 44 4 14
15 15 21 4 38 -12 19 -11 20 10 14 13 -4 28 -11 33 -15 6 -4 20 -4 33 1 60 23
-16 70 -116 71 -53 1 -77 13 -48 24 9 3 16 15 16 25 0 15 7 19 35 19 42 0 56
23 31 48 -14 14 -35 17 -123 14 l-106 -2 6 41 c7 51 15 59 33 34 12 -16 18
-18 34 -7 11 7 20 8 20 4 0 -5 18 -15 40 -22 34 -11 45 -11 83 4 26 10 48 26
55 40 8 18 16 22 41 18 17 -2 37 -14 46 -28 20 -31 79 -34 95 -4 19 35 -20 80
-69 80 -12 0 -25 11 -33 28 l-14 27 -129 -1 c-102 -1 -141 -6 -180 -21 -33
-13 -49 -24 -47 -34 2 -13 -8 -15 -53 -11 -61 5 -73 -8 -25 -28 17 -7 30 -16
30 -21 0 -5 7 -9 15 -9 8 0 15 -4 15 -10 0 -5 -7 -10 -15 -10 -21 0 -39 -48
-25 -65 9 -10 0 -16 -40 -24 -28 -6 -65 -17 -83 -25 -32 -13 -33 -12 -33 8 1
20 -4 21 -74 21 -41 0 -87 -4 -102 -8 -31 -8 -37 -35 -10 -43 9 -3 26 -10 37
-15 13 -6 33 -6 55 1 47 14 49 13 43 -10 -5 -18 5 -25 30 -21 4 1 10 -6 13
-14 4 -8 12 -15 20 -15 7 0 11 -6 8 -14 -3 -8 -1 -17 5 -21 17 -10 13 -25 -8
-25 -24 0 -102 -40 -118 -60 -24 -29 -15 -38 30 -33 32 3 38 2 27 -6 -12 -9
-12 -13 -2 -19 8 -5 10 -16 6 -28 -10 -24 -23 -34 -51 -34 -31 0 -29 -24 3
-49 24 -19 25 -22 13 -58 -7 -21 -18 -42 -26 -48 -17 -13 -95 -234 -89 -251 3
-8 -2 -30 -11 -51 -8 -21 -18 -58 -22 -83 -5 -34 -11 -46 -26 -48 -38 -7 -41
-22 -11 -47 26 -20 28 -26 16 -40 -7 -9 -14 -37 -15 -63 -1 -26 -6 -56 -12
-67 -21 -39 -51 -163 -46 -189 5 -23 2 -26 -20 -26 -40 0 -57 -10 -57 -34 0
-31 15 -50 35 -42 15 5 16 2 10 -31 -4 -21 -10 -42 -15 -48 -4 -5 -15 -37 -25
-70 -10 -33 -28 -88 -42 -123 -13 -34 -31 -99 -40 -143 -18 -92 -39 -119 -89
-119 -44 0 -64 -9 -64 -29 0 -16 4 -17 105 -20 111 -4 176 16 192 60 8 20 24
35 49 45 41 17 214 31 214 17 0 -4 -35 -43 -79 -85 -78 -78 -78 -78 -132 -78
-59 0 -124 -28 -189 -81 -19 -16 -42 -29 -51 -29 -9 0 -27 -8 -40 -19 -13 -10
-33 -20 -44 -22 -17 -4 -20 -13 -23 -67 l-3 -62 38 -2 c112 -6 171 13 247 78
21 18 42 31 47 29 4 -3 10 -1 14 5 3 5 14 10 25 10 10 0 46 16 80 35 63 35
367 249 429 302 18 15 71 55 117 89 47 33 95 76 107 96 21 34 87 95 137 128
13 8 52 37 88 64 35 26 79 52 98 57 26 8 38 19 52 52 20 44 47 63 214 148 28
15 55 34 60 43 5 10 31 36 56 59 26 22 81 75 124 117 42 42 116 110 165 151
48 40 97 82 107 91 11 10 29 18 40 18 40 0 72 42 55 73 -8 13 -4 23 18 44 15
16 35 51 44 78 9 28 20 49 24 48 5 -1 18 -26 29 -56 22 -57 59 -96 137 -140
58 -34 75 -34 109 3 l28 30 53 -32 c36 -23 74 -36 128 -45 75 -12 75 -12 16
-9 -33 2 -95 9 -138 16 -83 13 -127 8 -127 -14 0 -15 43 -26 105 -26 23 0 60
-7 80 -16 32 -13 47 -14 94 -4 31 7 79 13 106 14 49 1 50 2 48 31 -2 20 -12
37 -30 50 -52 37 -125 110 -134 133 -6 16 -14 22 -27 18 -12 -4 -26 8 -51 44
-30 43 -34 58 -33 108 2 159 22 201 95 202 35 0 37 -2 37 -33 0 -46 35 -161
71 -233 28 -57 36 -65 92 -93 34 -17 70 -31 79 -31 9 0 39 -5 67 -11 l50 -10
-40 -79 c-22 -43 -48 -85 -58 -94 -12 -11 -17 -25 -13 -38 4 -17 2 -19 -17
-13 -13 4 -28 2 -36 -5 -13 -11 -13 -16 2 -41 13 -22 14 -32 6 -40 -9 -9 -14
-5 -19 15 -4 16 -13 26 -24 26 -20 0 -43 -24 -33 -34 4 -4 1 -5 -7 -2 -8 3
-21 2 -29 -3 -13 -8 -13 -15 -1 -50 7 -22 22 -50 32 -61 11 -11 18 -28 16 -37
-3 -16 -21 7 -72 90 -14 23 -20 26 -36 17 -27 -15 -26 -22 20 -89 22 -32 40
-61 40 -63 0 -3 -11 -3 -25 0 -14 2 -25 11 -25 18 0 8 -4 14 -8 14 -5 0 -19
20 -31 45 -23 46 -40 55 -60 32 -8 -11 -5 -26 14 -62 13 -27 23 -50 22 -50 -1
-1 -24 -10 -51 -20 -36 -13 -51 -15 -54 -7 -6 20 -40 13 -47 -8 -3 -11 -13
-20 -20 -20 -20 0 -28 -19 -15 -35 7 -8 10 -20 7 -27 -2 -7 -11 4 -20 25 -16
37 -30 44 -56 28 -11 -7 -11 -14 3 -41 15 -32 14 -50 -4 -50 -6 0 -21 18 -35
40 -22 35 -28 39 -46 30 -22 -12 -19 -46 7 -66 18 -14 18 -24 1 -24 -8 0 -19
18 -26 40 -8 28 -17 40 -31 40 -27 0 -32 -15 -21 -57 14 -49 5 -55 -14 -10
-16 40 -30 45 -60 23 -19 -14 -19 -15 -2 -33 22 -25 24 -61 2 -43 -8 7 -15 18
-15 25 0 7 -7 18 -16 25 -12 11 -18 10 -31 -3 -14 -14 -15 -21 -4 -44 l12 -28
-23 27 c-20 24 -25 26 -41 14 -15 -12 -16 -18 -8 -35 14 -24 14 -31 1 -31 -5
0 -12 11 -16 25 -10 40 -54 25 -54 -18 0 -16 -3 -17 -15 -7 -20 17 -43 6 -56
-26 -7 -21 -13 -24 -21 -16 -20 20 -46 14 -50 -10 -2 -18 -9 -22 -29 -20 -15
1 -32 -4 -39 -13 -7 -8 -9 -15 -4 -15 4 0 -7 -11 -26 -25 -36 -26 -52 -33 -32
-13 7 7 12 20 12 30 0 53 -100 -22 -144 -108 -27 -51 -102 -128 -180 -184 -51
-37 -225 -99 -276 -100 -20 0 -41 -5 -48 -12 -7 -7 -36 -12 -67 -11 -40 1 -55
-2 -55 -12 0 -10 -9 -12 -35 -8 -34 5 -48 -8 -25 -22 6 -4 8 -11 4 -16 -4 -6
-10 -6 -19 1 -15 13 -45 3 -45 -16 0 -8 -6 -11 -15 -8 -8 4 -22 3 -31 0 -14
-5 -14 -9 -3 -22 17 -21 -6 -37 -31 -22 -10 6 -25 8 -35 4 -14 -5 -15 -9 -5
-21 24 -29 -9 -47 -37 -20 -17 18 -34 16 -41 -5 -3 -9 1 -11 11 -7 21 8 28 -5
11 -20 -8 -8 -15 -9 -19 -3 -18 29 -83 -24 -77 -61 4 -24 -19 -36 -30 -16 -13
23 -41 9 -34 -17 7 -26 -28 -66 -54 -59 -23 6 -35 -14 -20 -32 11 -13 8 -14
-18 -9 -39 8 -50 -11 -20 -36 13 -11 19 -19 14 -20 -5 0 -17 7 -27 16 -11 10
-25 13 -39 9 -22 -7 -22 -7 6 -36 l28 -29 -45 -46 c-50 -52 -117 -85 -151 -76
-13 3 -36 14 -53 23 -21 13 -31 15 -36 7 -5 -8 -12 -6 -24 5 -10 11 -25 15
-40 11 -17 -4 -27 0 -37 15 -7 12 -18 21 -25 21 -15 0 -17 -26 -3 -35 6 -3 10
-12 10 -18 0 -7 -12 3 -26 20 -27 35 -44 42 -44 18 0 -8 6 -15 13 -15 7 0 13
-15 14 -38 2 -32 1 -34 -9 -17 -23 39 -117 145 -129 145 -20 0 -6 -29 39 -85
61 -76 68 -89 77 -148 5 -32 4 -47 -4 -47 -6 0 -11 9 -11 19 0 11 -7 26 -15
35 -8 8 -15 22 -15 31 0 8 -6 18 -14 21 -8 3 -18 18 -21 34 -3 15 -15 36 -26
46 -18 16 -19 16 -19 -5 0 -27 15 -57 47 -90 13 -14 23 -33 22 -41 -4 -40 2
-60 17 -60 14 0 14 -3 4 -15 -17 -20 -30 -19 -30 3 0 10 -4 22 -10 28 -5 5
-19 27 -30 49 l-21 40 5 -35 c3 -19 8 -46 12 -59 5 -17 4 -22 -4 -17 -9 5 -12
-10 -12 -54 l0 -61 28 19 c15 10 40 22 55 26 41 10 107 56 108 75 4 52 16 74
54 98 44 29 47 29 100 -3 34 -19 48 -23 62 -15 10 6 34 14 53 19 21 5 40 17
46 31 7 13 27 32 45 43 53 31 87 67 140 145 27 39 67 84 90 100 23 15 60 44
83 64 22 20 49 39 58 42 10 4 43 22 73 42 31 19 58 35 62 35 3 0 29 16 58 35
64 42 121 58 200 56 112 -4 183 -24 260 -76 28 -18 78 -43 112 -55 62 -22 123
-70 123 -96 0 -12 -13 -13 -67 -8 -38 4 -76 11 -85 15 -26 14 -46 11 -68 -11
-11 -11 -31 -22 -46 -26 -14 -4 -28 -13 -31 -21 -11 -28 21 -44 98 -49 157
-10 250 -35 296 -80 7 -7 29 -22 50 -35 42 -26 33 -34 -24 -21 -29 7 -49 5
-72 -4 -53 -22 -36 -44 63 -83 101 -39 118 -38 149 2 15 20 27 40 27 46 0 14
57 14 65 1 9 -14 67 -12 87 4 24 18 97 6 198 -33 44 -17 84 -31 91 -31 21 0
109 -45 108 -55 -6 -54 28 -99 83 -110 18 -4 78 -22 133 -40 100 -33 148 -44
236 -49 47 -4 118 -18 199 -42 56 -16 172 -34 225 -34 76 -1 320 9 341 15 63
15 176 16 226 2 55 -16 98 -23 183 -32 28 -3 66 -8 85 -11 44 -6 117 -12 197
-15 34 -1 60 -5 58 -9 -5 -8 -154 -13 -415 -12 -561 1 -1233 0 -1290 -2 -128
-6 -481 -7 -840 -1 -201 3 -455 5 -565 4 -257 -2 -591 0 -1025 5 -190 3 -375
2 -412 -1 -63 -5 -68 -7 -68 -30 l0 -24 363 1 c199 0 522 1 717 2 635 2 1150
-5 1215 -18 25 -5 407 -4 500 1 61 3 1169 6 1465 3 87 0 522 11 610 16 22 1
25 6 28 49 l3 47 -48 1 c-110 2 -197 10 -203 18 -3 5 -17 7 -32 5 -16 -1 -28
2 -28 7 0 6 -5 7 -12 3 -14 -9 -53 -9 -143 0 -38 3 -95 9 -125 12 -30 2 -72 9
-94 15 -21 6 -40 8 -43 5 -3 -2 -24 2 -46 10 -48 18 -208 21 -277 6 -42 -9
-319 -8 -420 2 -43 4 -143 36 -157 50 -4 4 47 5 113 4 104 -2 240 4 327 16 15
2 35 10 45 18 35 30 105 47 183 45 43 -1 75 -6 72 -11 -3 -4 3 -5 14 -2 11 4
56 -2 99 -13 44 -10 98 -17 119 -16 22 1 51 3 64 4 20 1 21 3 11 16 -7 8 -15
13 -19 11 -5 -4 -63 5 -135 19 -16 3 -37 10 -46 15 -10 5 -20 6 -24 3 -3 -4
-16 3 -29 14 -29 27 -84 34 -127 16 -19 -7 -50 -14 -70 -15 -19 0 -39 -4 -45
-8 -17 -12 -55 -19 -55 -9 0 5 5 9 11 9 5 0 28 14 49 31 35 28 43 31 84 25 26
-4 47 -3 50 3 7 11 21 8 73 -15 17 -8 38 -11 47 -8 19 7 19 10 7 32 -8 15 -4
17 33 14 24 -2 59 3 80 12 48 20 70 20 99 1 32 -21 145 -27 156 -8 6 12 15 13
42 6 19 -5 77 -11 129 -12 52 -2 99 -5 104 -9 6 -3 28 -5 51 -5 22 1 31 -1 20
-3 -80 -18 -104 -28 -108 -45 -5 -20 6 -33 40 -43 19 -6 25 -2 35 21 7 15 13
29 14 31 1 1 13 -3 28 -9 26 -12 27 -14 21 -81 -3 -38 -3 -78 0 -89 7 -21 37
-25 53 -7 6 8 10 121 10 310 l1 298 -24 0 c-28 0 -37 -21 -37 -86 0 -43 0 -44
-32 -44 -33 0 -91 -23 -102 -41 -11 -18 18 -39 55 -40 45 -1 83 -14 61 -22 -8
-3 -36 -8 -62 -12 -110 -15 -69 -72 55 -75 9 0 17 -5 17 -10 0 -13 -140 -6
-324 16 -142 17 -312 21 -363 9 -24 -5 -40 -2 -65 13 -18 11 -53 23 -78 27
-25 4 -54 12 -64 17 -11 6 -45 10 -76 9 -49 -1 -71 -9 -146 -50 -104 -57 -170
-81 -222 -81 -20 0 -69 -6 -108 -14 -42 -8 -106 -11 -160 -8 -118 6 -103 6
-233 -2 -133 -9 -216 5 -346 60 -284 117 -396 147 -431 112 -15 -15 -19 -14
-50 4 -20 12 -41 17 -53 13 -14 -4 -30 3 -53 26 -18 17 -50 40 -70 50 -26 13
-38 26 -38 40 0 24 -42 96 -80 139 -15 17 -55 39 -100 56 -41 15 -104 47 -140
70 -36 23 -90 50 -120 60 -51 17 -52 18 -29 28 79 33 157 72 181 90 14 12 39
31 55 43 15 12 44 37 63 55 38 37 115 98 123 98 3 0 36 20 73 45 36 25 74 45
84 45 10 0 29 9 43 20 14 11 34 20 46 20 11 0 30 4 43 9 53 21 132 41 162 41
17 0 43 6 58 14 37 20 269 98 274 93 3 -2 0 -17 -6 -32 -6 -16 -8 -40 -5 -54
4 -22 -1 -30 -30 -49 -19 -12 -38 -22 -42 -22 -7 0 -60 -54 -159 -161 -43 -46
-114 -151 -114 -168 0 -16 38 -33 45 -21 3 5 16 10 28 10 12 0 28 9 34 19 7
11 23 26 37 33 100 54 134 71 156 78 14 4 32 11 42 15 11 5 16 1 15 -12 -2
-15 9 -19 68 -25 84 -8 108 -12 157 -26 20 -5 39 -7 43 -4 3 4 20 5 38 4 40
-3 57 11 80 64 18 40 41 53 51 27 3 -7 11 -13 18 -13 8 0 25 -13 39 -28 21
-25 35 -30 96 -36 48 -5 79 -3 93 4 25 13 50 67 50 107 0 24 10 34 64 66 55
32 75 38 153 46 50 4 95 11 102 15 22 14 10 33 -23 39 -40 6 -78 -1 -70 -14 3
-5 -5 -10 -18 -10 -13 -1 -30 -2 -38 -3 -8 -1 -19 -4 -25 -8 -5 -3 -31 -9 -57
-13 -26 -4 -53 -13 -59 -21 -19 -23 -36 -16 -35 14 1 25 4 27 61 35 33 4 83
11 110 15 l50 8 -57 8 c-53 8 -78 5 -132 -11 -18 -5 -19 -1 -13 64 8 81 33
139 89 199 36 39 45 44 80 42 22 -1 43 4 47 10 9 15 117 36 144 28 12 -3 26
-1 32 4 37 31 221 24 390 -14 39 -9 81 -18 95 -21 123 -23 395 -26 513 -5 l77
14 0 40 c0 37 -1 38 -18 23 -10 -10 -22 -17 -27 -17 -5 0 -1 6 8 13 10 7 19
34 23 70 6 53 5 57 -14 57 -11 0 -24 -4 -27 -10 -3 -6 -17 -10 -30 -10 -15 0
-31 -10 -41 -25 -15 -23 -18 -24 -29 -9 -7 11 -19 15 -29 11 -15 -6 -17 -3
-11 26 4 17 18 65 31 105 14 41 29 106 35 145 7 40 18 89 25 110 8 20 14 55
14 77 0 29 4 40 15 40 8 0 15 -5 15 -11 0 -6 10 -9 23 -7 19 3 22 9 22 45 0
23 3 45 8 49 4 4 7 22 7 40 l0 32 -56 -54 c-91 -89 -190 -126 -324 -123 -77 2
-105 12 -152 51 -40 34 -24 50 32 31 74 -25 185 -11 284 36 83 39 132 69 186
114 22 19 30 34 30 57 0 25 -4 31 -15 26 -8 -3 -15 -1 -15 5 0 5 7 12 15 15 8
4 15 13 15 21 0 11 -7 13 -28 8 -35 -7 -61 15 -39 33 10 8 20 7 40 -3 l27 -14
0 125 c0 69 -5 134 -10 145 -7 13 -7 19 0 19 5 0 10 20 10 44 0 38 -4 48 -31
66 -29 21 -29 23 -13 41 10 11 15 28 11 44 -4 22 -1 26 14 22 16 -4 19 1 19
34 0 35 -3 40 -37 55 -24 10 -62 16 -102 15 -52 -1 -62 2 -57 14 3 8 -2 18
-10 23 -13 7 -12 11 6 27 19 17 21 17 33 1 19 -26 65 -12 69 21 l3 25 38 -37
c21 -21 42 -47 47 -59 7 -16 9 -9 9 28 1 34 -5 56 -16 69 -17 19 -17 20 0 14
14 -5 17 -1 17 27 0 29 -4 34 -29 39 -25 5 -71 57 -71 81 0 3 17 6 38 6 32 0
40 -4 49 -27 10 -25 11 -21 12 35 1 34 -2 62 -7 62 -4 0 -18 -7 -30 -16 -19
-13 -22 -13 -22 0 0 8 4 18 10 21 6 3 10 15 10 27 0 15 5 19 20 15 18 -5 20 0
20 46 l0 50 -25 -23 c-14 -13 -25 -18 -25 -11 0 6 11 22 25 35 27 25 32 51 12
60 -9 5 -9 7 1 12 23 11 12 39 -22 58 -19 10 -54 36 -78 57 -23 21 -46 39 -50
39 -3 0 -23 23 -43 50 -39 53 -62 61 -88 32 -24 -26 -21 -39 9 -54 15 -7 38
-28 52 -45 l25 -33 -24 0 c-13 0 -44 6 -69 14 -53 15 -110 80 -110 125 0 28
42 96 53 85 3 -3 15 1 27 9 19 14 25 13 68 -11 68 -38 91 -61 118 -118 29 -62
56 -87 94 -90 16 -1 33 -5 39 -9 8 -4 11 18 11 69 0 70 -1 75 -24 83 -22 7
-23 10 -10 27 8 11 14 14 14 8 0 -7 5 -12 10 -12 6 0 10 23 10 51 0 44 -2 50
-14 39 -8 -6 -17 -24 -19 -38 -2 -16 -5 -7 -6 21 -1 36 4 51 19 64 19 17 29
60 11 49 -11 -7 -21 18 -20 52 l0 27 12 -25 c10 -23 12 -19 15 39 2 35 1 65
-2 68 -8 8 -91 -20 -110 -38 -19 -18 -19 -19 3 -63 25 -48 23 -76 -6 -76 -15
0 -15 2 3 15 18 15 16 16 -21 10 -64 -9 -80 19 -90 163 -4 58 -19 84 -45 80
-19 -3 -50 19 -50 35 0 6 -6 18 -14 26 -8 9 -18 29 -22 44 l-7 29 40 -21 c41
-20 53 -37 53 -72 0 -10 4 -19 9 -19 4 0 20 -12 34 -26 22 -22 28 -24 46 -12
13 8 21 23 21 39 0 15 3 40 6 57 5 26 1 36 -24 62 -24 24 -39 30 -71 30 -51 0
-53 15 -3 24 65 10 76 7 100 -30 29 -44 65 -45 70 -2 3 21 -5 35 -30 58 -18
16 -39 30 -46 30 -14 0 -8 7 51 72 10 10 21 28 26 40 7 20 9 19 43 -11 l36
-32 -1 107 -2 107 -35 14 -35 13 38 -5 37 -6 0 41 c0 26 -4 39 -10 35 -6 -4
-16 -2 -23 3 -7 6 -30 13 -52 17 -62 10 -76 16 -70 26 4 5 17 9 30 9 13 0 47
5 75 11 l50 11 0 49 c0 28 -4 48 -9 45 -5 -3 -46 -6 -92 -6 -75 -1 -91 2 -143
30 -33 16 -65 35 -73 41 -7 7 -26 19 -42 28 -16 9 -55 32 -87 51 -96 57 -132
66 -244 59 -79 -5 -109 -11 -154 -33 -31 -15 -56 -33 -56 -39 -1 -23 -67 -87
-101 -99 -19 -6 -49 -26 -68 -45 -36 -37 -162 -103 -195 -103 -16 1 -12 6 19
25 22 14 48 25 57 25 20 0 83 41 109 71 10 11 46 35 81 52 62 32 82 57 59 80
-8 8 -24 1 -56 -22 -25 -18 -45 -27 -45 -22 0 6 3 11 8 11 4 0 27 20 52 44 39
37 50 43 77 39 24 -4 40 1 66 21 46 35 55 71 28 107 -27 36 -26 36 7 36 15 0
63 3 108 8 57 5 83 4 88 -4 11 -18 34 -13 47 11 10 18 8 24 -11 40 -12 10 -32
18 -44 18 -11 0 -39 12 -61 26 l-40 25 35 -4 c132 -15 288 -51 323 -73 62 -41
83 -45 102 -24 20 22 57 14 107 -23 42 -31 112 -67 133 -67 9 0 15 9 15 25 0
20 -10 30 -50 50 -28 14 -50 28 -50 31 0 6 60 -3 86 -13 11 -4 14 7 14 55 l0
60 -36 7 c-20 3 -50 12 -68 19 -81 34 -159 57 -206 61 -19 1 -75 8 -125 14
-49 6 -118 14 -152 18 -61 6 -237 -10 -283 -27 -14 -4 -37 -11 -51 -14 -14 -3
-43 -19 -64 -36 -48 -38 -64 -28 -46 30 9 29 17 40 32 40 11 0 32 6 47 13 15
8 44 15 64 16 20 1 56 9 80 17 49 18 211 20 285 4 61 -14 331 -14 385 0 23 6
64 18 91 26 l47 16 0 63 0 64 -47 -20 c-27 -12 -62 -27 -78 -34 -57 -26 -195
-35 -439 -29 -186 4 -243 8 -260 19 -23 17 -122 20 -158 6 -13 -5 -42 -17 -65
-26 l-42 -17 -75 78 c-75 77 -75 78 -56 96 23 21 24 27 10 63 -14 37 -2 55 79
109 39 27 73 57 77 68 3 11 12 17 20 14 14 -5 75 32 127 77 17 16 46 27 79 31
65 9 133 27 227 60 41 14 82 26 91 26 23 0 140 58 140 69 0 5 17 15 38 22 20
6 55 22 78 34 72 40 78 43 126 60 25 9 58 28 73 43 24 24 25 27 8 33 -15 6
-13 9 15 20 18 8 32 21 32 30 0 14 -11 12 -82 -13 -46 -16 -103 -33 -128 -38
-25 -4 -81 -17 -125 -28 -55 -14 -104 -19 -155 -17 -101 4 -198 -11 -276 -43
-65 -27 -82 -49 -34 -45 14 2 64 3 111 2 76 0 91 3 123 24 48 33 104 43 124
23 14 -14 11 -17 -29 -34 -24 -10 -69 -25 -99 -32 -30 -8 -59 -17 -65 -22 -13
-12 -53 -10 -61 3 -5 8 -26 9 -68 4 -33 -4 -75 -8 -93 -9 -18 -1 -43 -12 -56
-24 -27 -26 -37 -28 -37 -7 0 8 -7 15 -16 15 -30 0 -78 -38 -150 -117 -83 -92
-132 -169 -116 -185 7 -7 18 4 37 36 25 43 45 59 45 36 0 -12 24 -13 48 -1 9
4 38 18 65 30 82 36 51 8 -49 -44 -59 -31 -114 -69 -145 -100 -33 -33 -52 -46
-59 -39 -12 12 4 69 26 95 8 8 14 19 14 24 0 17 65 112 109 158 25 26 89 77
141 113 52 36 114 81 138 99 68 55 123 67 337 75 181 7 256 19 312 48 11 6 23
9 25 6 3 -2 39 11 79 30 123 59 150 92 44 55 -35 -12 -71 -18 -87 -15 -15 3
-39 2 -51 -3 -32 -12 -54 1 -32 19 26 22 55 86 55 123 0 19 6 40 14 46 33 28
46 171 15 171 -12 0 -190 -160 -259 -232 -49 -52 -91 -77 -187 -113 -56 -20
-155 -90 -176 -123 -5 -7 -13 -10 -18 -6 -8 5 -169 -88 -203 -117 -6 -6 -38
-28 -71 -49 -51 -33 -141 -119 -180 -171 -42 -58 -82 -131 -99 -181 -3 -11
-15 -18 -30 -18 -30 0 -69 -45 -61 -72 4 -11 1 -18 -7 -19 -33 -1 -82 -10 -87
-14 -3 -3 -22 30 -43 75 l-37 80 -91 -3 c-66 -2 -94 0 -102 10 -14 17 -37 17
-57 0 -9 -8 -77 -22 -151 -31 -74 -9 -146 -23 -160 -29 -24 -12 -25 -16 -23
-91 l2 -78 -51 4 c-31 3 -78 -2 -122 -14 -67 -17 -113 -19 -71 -2 50 19 105
66 105 88 0 57 -80 76 -160 37 -64 -31 -69 -26 -25 20 42 43 143 113 208 143
20 9 56 35 79 56 35 34 39 42 28 55 -11 13 -10 18 6 30 10 8 22 15 26 15 4 0
15 11 24 25 16 24 16 27 -1 45 -24 26 -63 25 -163 -4 -45 -13 -82 -21 -82 -17
0 18 145 91 235 118 122 37 309 139 389 213 48 44 241 140 371 184 44 15 91
32 105 38 38 17 120 72 120 81 0 4 -12 12 -27 18 l-27 10 54 30 c76 41 87 53
70 74 -10 13 -24 15 -52 11 -119 -18 -118 -18 -118 -4 0 19 38 54 72 67 97 37
462 112 528 109 27 -1 253 34 277 43 13 5 23 15 23 24 0 20 1 20 99 -24 108
-48 148 -55 217 -40 43 10 54 16 54 32 0 14 -4 17 -17 12 -73 -30 -123 -25
-232 26 -52 24 -147 46 -157 36 -4 -3 -7 -17 -8 -29 -1 -21 -7 -24 -62 -29
-33 -3 -65 -8 -70 -12 -10 -6 -49 -10 -194 -22 -96 -8 -165 -17 -175 -24 -5
-4 -23 -8 -39 -9 -30 -2 -77 -15 -223 -59 -69 -22 -87 -32 -113 -64 -51 -64
-24 -99 61 -80 55 13 69 13 69 2 0 -4 -20 -16 -44 -25 -74 -28 -100 -79 -44
-88 20 -3 18 -6 -17 -22 -55 -25 -68 -30 -165 -66 -161 -60 -321 -143 -390
-203 -76 -67 -239 -150 -381 -195 -148 -47 -269 -129 -269 -182 0 -16 30 -19
58 -4 33 16 175 54 204 54 41 0 12 -26 -77 -68 -80 -38 -84 -67 -6 -58 l46 6
-25 -19 c-14 -11 -50 -33 -80 -48 -129 -65 -295 -203 -288 -239 5 -30 43 -28
123 5 81 34 125 40 125 16 0 -14 -34 -39 -55 -40 -23 -2 -104 -70 -110 -93
-11 -46 12 -55 80 -33 100 32 164 42 231 35 62 -7 64 -8 68 -38 11 -69 18
-124 23 -176 3 -30 9 -60 14 -66 5 -6 12 -33 15 -60 4 -38 3 -45 -6 -31 -6 9
-17 17 -24 17 -21 0 -77 -31 -83 -46 -4 -10 -20 -12 -66 -8 -86 8 -107 19
-100 55 5 26 3 29 -19 29 -13 0 -33 -7 -44 -15 -28 -21 -50 -18 -67 9 -9 13
-38 32 -64 41 -26 9 -75 28 -108 42 -142 60 -248 92 -267 82 -10 -5 -18 -15
-18 -22 0 -12 105 -57 134 -57 9 0 30 -7 46 -15 16 -8 69 -31 117 -50 48 -20
90 -39 93 -44 3 -4 17 -14 32 -22 l26 -14 -34 -50 c-40 -59 -40 -61 -13 -76
17 -9 25 -7 46 13 13 12 34 40 45 60 17 30 24 35 35 26 11 -9 9 -17 -15 -42
-53 -56 -66 -96 -30 -96 13 0 43 22 76 56 51 52 58 56 90 50 44 -7 46 -9 32
-37 -23 -42 -40 -137 -34 -186 4 -27 16 -63 27 -82 15 -24 17 -36 9 -39 -14
-4 -16 -34 -3 -47 10 -11 51 -83 51 -90 0 -8 -34 8 -59 27 -13 10 -32 18 -41
18 -10 0 -23 7 -30 15 -7 8 -21 15 -31 15 -10 0 -23 9 -29 20 -14 25 -28 25
-61 -3 -46 -38 -53 -63 -30 -102 11 -19 17 -43 14 -54 -9 -33 -24 -26 -66 31
-34 44 -36 110 -4 145 24 27 13 46 -25 41 -21 -3 -27 -1 -24 8 3 8 1 16 -4 19
-20 12 -9 20 27 20 30 0 41 -6 55 -27 19 -29 73 -47 91 -29 8 8 7 19 -6 40
-21 35 -21 61 -3 106 13 30 13 35 -3 49 -10 9 -25 14 -33 11 -13 -5 -45 -60
-61 -105 -9 -25 -7 62 2 103 8 32 6 39 -12 52 -26 18 -42 7 -57 -41 -9 -27
-19 -36 -41 -41 -37 -7 -38 -35 -1 -62 l27 -20 -29 -1 c-53 0 -92 20 -105 56
-6 18 -17 34 -24 36 -34 9 -237 124 -270 153 -37 32 -38 34 -23 58 15 21 15
26 2 36 -13 11 -16 8 -22 -13 -6 -26 -15 -32 -27 -19 -4 3 -1 16 7 28 19 29 5
55 -18 36 -9 -8 -16 -20 -16 -28 0 -8 -5 -11 -10 -8 -6 4 -3 16 10 32 11 14
20 32 20 39 0 25 -20 15 -42 -21 -11 -20 -23 -34 -25 -31 -3 3 4 20 16 39 24
39 27 61 9 54 -7 -2 -18 3 -25 12 -9 13 -7 22 13 48 48 63 22 59 -63 -12 -73
-60 -98 -68 -34 -10 22 20 43 45 46 55 3 10 19 23 36 29 26 9 37 6 83 -19 29
-17 73 -33 99 -36 43 -6 47 -5 47 14 0 17 -18 30 -84 62 -47 22 -88 45 -91 50
-3 6 -15 10 -26 10 -28 0 -89 70 -108 124 -27 74 -82 126 -135 126 -15 0 -30
8 -35 19 -10 17 -5 20 57 31 37 6 89 13 115 16 90 7 97 20 76 127 -16 78 -46
107 -102 101 -23 -2 -65 -12 -94 -20 -51 -16 -52 -16 -82 7 -16 13 -30 29 -30
35 -1 6 -9 22 -19 35 -22 30 -39 79 -57 166 -7 37 -27 118 -44 178 -70 246
-81 291 -81 318 0 15 -9 44 -20 64 -11 21 -20 44 -20 52 0 8 -8 40 -19 70 -36
108 -83 273 -78 277 10 9 187 94 196 94 6 0 8 -7 5 -15 -4 -8 -1 -22 6 -30 27
-32 182 22 200 70 5 13 17 25 27 28 10 3 -2 5 -25 6 -36 1 -45 -3 -49 -19 -5
-18 -60 -53 -88 -54 -5 -1 -9 13 -10 29 0 29 -2 30 -40 27 -39 -3 -77 -18
-178 -68 -35 -18 -48 -21 -51 -12 -2 7 -9 32 -15 56 -10 35 -16 42 -36 42 -31
0 -31 -6 0 -127 34 -130 45 -163 55 -163 5 0 14 -19 21 -42 6 -24 19 -68 30
-98 10 -30 21 -75 24 -100 7 -44 82 -353 149 -605 19 -71 32 -133 30 -137 -8
-13 -52 -9 -61 5 -8 12 -13 28 -81 282 -50 187 -61 234 -74 310 -17 98 -58
258 -71 273 -15 19 -37 84 -31 93 5 8 -19 100 -56 214 -12 39 -24 76 -26 83
-5 17 -44 15 -44 -3 0 -20 68 -231 92 -284 10 -24 22 -67 25 -95 3 -28 9 -55
13 -61 4 -5 10 -34 14 -64 4 -30 11 -62 16 -72 5 -9 14 -50 20 -90 6 -41 15
-90 20 -109 5 -19 25 -105 45 -190 21 -85 40 -159 44 -165 10 -12 35 -134 30
-139 -2 -3 -16 -7 -31 -11 -23 -6 -27 -3 -33 27 -4 18 -20 79 -36 136 -35 120
-79 320 -114 512 -8 47 -19 105 -24 130 -5 25 -7 48 -5 52 2 3 0 8 -4 10 -5 1
-19 48 -31 103 -34 152 -45 199 -52 210 -4 6 -10 34 -14 63 -6 46 -9 52 -31
52 -13 0 -24 -3 -24 -7z m3989 -666 c-45 -87 -83 -137 -104 -137 -12 0 -28 -7
-35 -15 -9 -10 -9 -15 -1 -15 16 0 14 -40 -3 -46 -8 -3 -23 -1 -34 5 -13 7
-22 7 -30 -1 -18 -18 -14 -31 8 -25 24 6 33 -5 24 -28 -6 -15 -16 -16 -69 -10
-43 4 -65 3 -70 -5 -4 -6 -19 -16 -33 -22 l-27 -10 23 -15 c26 -18 29 -42 5
-45 -36 -3 -58 3 -66 17 -12 22 -27 18 -27 -6 0 -19 -4 -20 -35 -15 -28 6 -37
3 -47 -14 -13 -20 -38 -28 -38 -11 0 25 59 68 140 102 124 52 178 91 304 218
101 103 142 130 115 78z m-235 -306 c9 -14 -20 -32 -39 -25 -17 7 -17 8 1 21
21 15 31 16 38 4z m122 -26 c-11 -8 -27 -15 -35 -14 -9 0 -2 7 14 14 39 18 45
18 21 0z m204 -79 c-6 -8 -33 -23 -58 -32 -26 -10 -89 -40 -141 -66 -65 -33
-106 -48 -133 -48 -25 0 -38 4 -36 11 4 12 73 39 101 39 9 0 17 5 17 11 0 5
-4 8 -8 5 -4 -2 -14 -1 -22 4 -11 7 -11 11 -1 24 19 22 48 20 56 -4 6 -18 11
-17 91 25 84 45 160 62 134 31z m-360 -179 c0 -27 -289 -115 -337 -102 -34 8
-21 18 52 38 33 10 98 30 145 46 94 32 140 38 140 18z m-280 -13 c0 -16 -56
-44 -88 -44 -11 0 -25 -7 -32 -16 -14 -16 -80 -47 -87 -40 -7 6 13 39 35 59
22 20 117 56 150 57 13 0 22 -6 22 -16z m-2896 -56 c8 -31 7 -38 -3 -38 -5 0
-13 9 -16 20 -8 26 -35 26 -35 1 0 -24 -16 -36 -23 -17 -10 25 15 46 64 55 4
0 9 -9 13 -21z m2656 14 c0 -14 -33 -39 -60 -45 -23 -5 -22 -3 10 24 35 29 50
36 50 21z m145 -62 c-3 -5 -17 -10 -31 -10 -14 0 -22 4 -19 10 3 6 17 10 31
10 14 0 22 -4 19 -10z m-2775 -20 c0 -11 -7 -14 -52 -24 -39 -9 -35 9 5 22 43
14 47 14 47 2z m2524 -18 c6 -10 -41 -38 -49 -30 -7 7 23 38 35 38 5 0 11 -4
14 -8z m-2614 -6 c0 -2 -9 -6 -20 -9 -11 -3 -18 -1 -14 4 5 9 34 13 34 5z
m348 -29 c15 -40 15 -58 1 -34 -14 24 -43 23 -36 -3 3 -11 1 -20 -4 -20 -5 0
-9 5 -9 10 0 18 -22 10 -27 -10 -5 -20 -23 -28 -23 -10 0 6 -9 10 -20 10 -11
0 -20 -6 -20 -14 0 -16 -10 -20 -90 -35 -107 -21 -202 -43 -280 -65 -57 -16
-70 -12 -70 25 0 24 -28 31 -39 11 -9 -16 -10 -16 -16 1 -5 13 -11 15 -20 7
-9 -8 -14 -5 -18 10 -4 17 0 20 31 21 52 1 90 8 141 25 69 23 206 54 314 70
54 8 108 19 120 24 39 16 53 11 65 -23z m-578 -31 c0 -2 -9 -6 -20 -9 -11 -3
-20 -1 -20 4 0 5 9 9 20 9 11 0 20 -2 20 -4z m-60 -15 c-22 -12 -95 -22 -84
-11 9 8 43 16 79 18 16 1 17 0 5 -7z m430 -137 c0 -17 -40 -25 -55 -11 -11 10
-9 16 8 35 20 22 22 22 34 6 7 -10 13 -23 13 -30z m1865 22 c0 -3 42 -78 83
-148 28 -47 60 -88 83 -104 24 -17 35 -31 32 -42 -2 -11 8 -28 26 -45 17 -15
31 -32 31 -39 0 -6 -14 3 -31 20 -36 37 -61 40 -87 12 l-19 -21 -6 21 c-6 25
-36 26 -79 4 -28 -15 -33 -15 -43 -1 -6 8 -19 16 -30 18 -10 2 -22 15 -25 28
-3 14 -26 40 -50 58 -60 44 -206 141 -266 177 l-49 29 45 12 c25 6 70 15 102
18 l56 7 63 -70 c41 -45 71 -70 85 -70 12 0 27 -7 34 -15 22 -27 42 -19 35 15
-8 37 -42 109 -64 134 -15 18 -14 18 29 11 25 -4 45 -8 45 -9z m-2001 -52 c6
-15 -5 -20 -92 -50 -78 -27 -79 16 -1 45 55 21 86 22 93 5z m241 -8 c31 -16
63 -64 77 -114 5 -18 25 -51 45 -73 l36 -39 -26 -24 c-25 -23 -26 -23 -42 -6
-9 10 -24 16 -34 13 -12 -3 -28 8 -50 35 -24 31 -31 50 -31 85 0 39 -3 46 -28
56 -22 9 -35 9 -65 -4 -46 -19 -44 -19 -57 5 -9 17 -7 22 17 31 15 6 36 17 45
26 9 8 21 13 25 10 5 -3 15 -2 23 4 21 12 33 11 65 -5z m2097 -3 c24 -21 23
-33 -3 -33 -16 0 -19 -3 -11 -13 13 -16 1 -37 -23 -41 -33 -5 -28 -26 8 -41
43 -18 62 -40 21 -25 -30 12 -54 7 -54 -10 0 -6 10 -14 23 -19 13 -5 29 -16
36 -25 7 -9 23 -16 35 -16 26 -1 44 -15 75 -60 l24 -35 -30 28 c-57 53 -80 25
-29 -35 36 -41 51 -74 20 -44 -8 9 -20 16 -25 16 -17 0 -21 -29 -6 -44 8 -8
22 -46 31 -83 30 -118 39 -142 58 -159 21 -20 23 -34 5 -34 -13 0 -41 57 -63
132 -16 53 -27 64 -42 45 -13 -15 21 -141 45 -169 13 -15 7 -17 -72 -23 -60
-5 -88 -12 -92 -22 -3 -7 -4 -16 -1 -18 6 -6 55 -6 118 0 l55 5 -68 -20 c-91
-27 -211 -39 -262 -27 -22 6 -41 11 -43 12 -2 2 -12 26 -23 54 -18 48 -18 51
-2 43 9 -6 17 -22 18 -37 0 -22 7 -30 39 -43 30 -12 43 -13 58 -3 13 8 24 8
38 1 28 -15 60 4 60 34 0 15 7 26 20 29 29 8 29 73 -1 82 -13 4 -20 14 -18 28
2 38 0 45 -21 50 -11 3 -30 -3 -45 -15 -14 -11 -25 -15 -25 -10 0 16 -28 22
-55 12 -15 -6 -25 -17 -25 -29 0 -10 -6 -24 -14 -30 -12 -10 -16 -8 -21 11 -4
13 -18 47 -31 76 -13 29 -24 57 -24 62 0 15 -37 12 -44 -2 -3 -7 -4 -4 -1 7 2
11 1 25 -3 30 -14 20 -102 54 -167 66 -66 11 -67 11 -97 -17 -44 -43 -52 -65
-99 -289 -10 -50 -11 -155 -1 -155 4 0 20 -11 36 -25 29 -25 53 -34 41 -15 -3
6 -1 10 4 10 6 0 11 -4 11 -10 0 -5 13 -10 29 -10 17 0 31 -6 35 -16 5 -13 17
-15 61 -10 32 3 55 1 55 -5 0 -5 -3 -9 -7 -10 -69 -7 -73 -12 -67 -81 4 -35
11 -68 16 -74 12 -17 69 -23 98 -12 66 26 75 26 136 -2 l59 -28 -55 -1 c-30 0
-71 5 -90 10 -41 12 -90 -2 -90 -26 0 -14 16 -24 64 -39 34 -11 11 -16 -41 -7
-41 6 -67 20 -138 75 -48 37 -93 70 -100 72 -7 3 -25 23 -39 45 -18 27 -34 39
-49 39 -23 0 -30 9 -56 73 -16 41 -14 95 6 128 16 26 16 31 2 44 -22 22 -44
10 -65 -36 -16 -36 -16 -49 -6 -107 12 -71 9 -91 -8 -48 -11 29 -13 127 -4
161 7 28 70 68 95 60 14 -5 22 1 31 22 7 15 18 33 25 38 12 10 32 77 37 125 3
32 55 122 66 115 5 -3 20 9 35 27 14 18 24 26 23 18 -2 -10 5 -15 19 -15 12 0
25 -4 29 -8 18 -18 43 -5 54 28 6 19 16 35 21 35 6 0 5 -8 -1 -20 -6 -11 -8
-25 -5 -30 10 -15 35 -12 35 5 0 8 7 15 15 15 8 0 15 -7 15 -15 0 -27 38 -55
75 -55 25 0 33 -4 29 -14 -7 -19 21 -73 45 -86 51 -27 108 -22 198 17 73 31
89 144 30 210 -18 21 -38 50 -45 66 -6 15 -16 27 -21 27 -5 0 -20 14 -32 31
l-22 32 35 -5 c30 -3 41 1 67 29 17 18 31 42 31 53 0 24 8 25 32 3z m-2332
-75 c0 -22 -14 -34 -40 -34 -14 -1 -40 -7 -57 -15 -26 -10 -35 -11 -45 -1 -17
17 0 31 58 47 64 17 84 18 84 3z m38 -72 c3 -16 -1 -18 -27 -14 -17 2 -32 0
-34 -6 -4 -11 -97 -17 -97 -6 0 8 123 49 140 47 8 -1 16 -11 18 -21z m105 6
c-2 -10 5 -48 17 -85 22 -68 21 -87 -6 -87 -8 0 -12 5 -9 10 9 14 -13 40 -43
51 -13 5 -20 14 -17 20 4 6 13 8 21 5 24 -9 26 13 3 43 -26 35 -19 61 15 61
18 0 23 -4 19 -18z m84 -71 c-6 -23 1 -33 33 -48 l25 -12 -27 0 c-26 -1 -28
-4 -28 -41 0 -22 -3 -40 -7 -40 -5 0 -7 33 -7 73 2 85 2 87 10 87 4 0 4 -9 1
-19z m-256 -10 c-27 -21 -14 -36 22 -26 21 7 21 6 5 -10 -14 -16 -21 -16 -47
-6 -39 17 -47 39 -18 51 12 5 31 9 42 9 19 1 18 -1 -4 -18z m2812 -56 c1 -5
-11 -14 -28 -19 -80 -23 -106 -40 -112 -68 -5 -23 -8 -26 -24 -17 -11 5 -19
20 -19 32 0 27 60 64 123 76 48 10 58 9 60 -4z m-593 -66 c0 -5 -4 -9 -10 -9
-5 0 -10 7 -10 16 0 8 5 12 10 9 6 -3 10 -10 10 -16z m-70 -33 c0 -7 14 -16
31 -20 17 -3 28 -10 25 -15 -3 -5 -20 -6 -38 -2 -24 5 -34 13 -36 29 -2 12 1
22 7 22 6 0 11 -6 11 -14z m-1896 -9 c-3 -8 2 -20 11 -27 16 -13 20 -66 7 -88
-5 -7 -24 -17 -43 -22 -42 -12 -79 11 -93 59 -12 43 20 78 78 84 22 2 42 4 43
5 1 1 0 -4 -3 -11z m2016 -7 c0 -5 -5 -10 -11 -10 -5 0 -7 5 -4 10 3 6 8 10
11 10 2 0 4 -4 4 -10z m-1857 -36 c-15 -20 -29 -31 -31 -25 -3 8 44 59 56 61
2 0 -9 -16 -25 -36z m2098 -46 c27 -94 45 -127 83 -160 27 -23 28 -27 11 -27
-31 0 -80 75 -98 149 -8 36 -18 75 -22 88 -4 12 -5 22 -2 22 4 0 16 -33 28
-72z m-771 39 c0 -2 -11 -17 -25 -33 -14 -16 -25 -23 -25 -16 0 13 30 50 43
51 4 1 7 -1 7 -2z m830 -47 c0 -13 -1 -13 -10 0 -5 8 -10 22 -10 30 0 13 1 13
10 0 5 -8 10 -22 10 -30z m705 20 c6 -4 24 -10 40 -13 39 -6 197 -65 209 -77
13 -13 -15 -13 -47 -1 -18 7 -30 6 -45 -5 -17 -12 -23 -11 -45 6 -32 25 -110
45 -234 60 -54 7 -101 14 -105 16 -12 8 -142 -28 -168 -46 -14 -9 -47 -29 -74
-44 -105 -58 -99 10 7 77 46 30 186 47 327 41 69 -4 130 -10 135 -14z m-2835
-10 c0 -5 -5 -10 -11 -10 -5 0 -7 5 -4 10 3 6 8 10 11 10 2 0 4 -4 4 -10z
m1410 -5 c-18 -21 -6 -29 19 -13 18 11 23 11 31 -2 5 -8 10 -26 10 -40 0 -14
7 -50 16 -80 9 -30 22 -82 31 -115 20 -82 32 -96 84 -97 24 0 54 -7 66 -15 13
-8 30 -12 39 -9 9 3 40 -1 71 -10 30 -9 63 -14 74 -11 11 3 35 1 55 -4 30 -9
34 -13 28 -32 -4 -11 -13 -27 -20 -35 -8 -7 -12 -18 -9 -23 4 -5 0 -9 -8 -9
-8 0 -20 -7 -27 -15 -7 -8 -30 -20 -51 -25 -21 -6 -45 -18 -54 -26 -12 -13
-19 -13 -30 -4 -8 7 -22 10 -30 6 -18 -6 -55 27 -55 49 0 26 -97 19 -145 -10
-22 -14 -50 -25 -62 -25 -19 0 -23 6 -23 29 0 17 -5 33 -10 36 -15 9 4 38 34
55 33 17 33 35 1 56 -17 11 -35 14 -59 10 -41 -8 -55 7 -32 33 9 10 16 21 16
24 0 13 -38 7 -50 -8 -7 -8 -16 -15 -21 -15 -12 0 -11 87 1 132 9 30 8 44 -6
70 -18 34 -25 76 -13 84 4 2 9 -6 12 -17 7 -26 28 -21 42 9 10 22 35 31 35 13
0 -5 -16 -25 -35 -44 -34 -34 -34 -35 -19 -66 8 -17 19 -31 24 -31 4 0 10 -9
13 -19 4 -17 23 -20 80 -12 19 3 4 21 -17 21 -30 0 -38 11 -25 30 8 12 12 12
16 3 5 -14 43 -18 43 -5 0 15 -17 31 -43 41 -35 14 -36 41 -1 41 31 0 28 23
-4 28 -33 5 -22 61 12 62 5 0 3 -7 -4 -15z m184 -129 c4 -21 3 -36 -3 -36 -9
0 -42 123 -41 152 1 19 36 -74 44 -116z m-334 85 c0 -6 -4 -13 -10 -16 -5 -3
-10 1 -10 9 0 9 5 16 10 16 6 0 10 -4 10 -9z m942 -77 c10 -3 18 -10 18 -15 0
-6 -7 -6 -17 0 -38 22 -62 50 -69 77 -6 26 -3 24 22 -14 16 -23 37 -45 46 -48z
m258 8 c0 -21 -39 -44 -61 -37 l-23 8 23 18 c24 19 61 26 61 11z m-775 -32 c3
-5 1 -10 -4 -10 -6 0 -11 5 -11 10 0 6 2 10 4 10 3 0 8 -4 11 -10z m655 -65
c10 -12 9 -15 -8 -15 -11 0 -22 7 -26 15 -3 9 0 15 8 15 7 0 19 -7 26 -15z
m-610 -16 c0 -4 -7 -6 -15 -3 -8 4 -15 10 -15 15 0 4 7 6 15 3 8 -4 15 -10 15
-15z m-116 -5 c3 -8 2 -12 -4 -9 -6 3 -10 10 -10 16 0 14 7 11 14 -7z m606 7
c-8 -5 -43 -11 -78 -15 -34 -3 -75 -8 -90 -11 -26 -5 -26 -5 -3 5 20 9 118 25
171 28 13 1 13 0 0 -7z m-80 -61 c0 -11 -90 -74 -91 -63 -1 17 -28 -63 -28
-88 -1 -26 -32 -61 -63 -72 -10 -4 -18 -2 -18 3 0 12 76 149 98 178 14 17 69
46 100 52 1 0 2 -4 2 -10z m150 2 c0 -4 -9 -13 -20 -20 -11 -7 -20 -18 -20
-26 0 -7 -10 -21 -22 -32 -13 -10 -17 -12 -10 -4 15 18 16 40 0 40 -7 0 -27
-14 -44 -31 -29 -28 -32 -29 -27 -10 3 12 18 28 34 36 15 8 30 24 34 35 5 15
15 20 41 20 19 0 34 -3 34 -8z m-470 -72 c0 -5 -2 -10 -4 -10 -3 0 -8 5 -11
10 -3 6 -1 10 4 10 6 0 11 -4 11 -10z m114 1 c3 -4 3 -11 0 -14 -8 -8 -34 3
-34 14 0 11 27 12 34 0z m792 -51 c58 -28 104 -69 104 -92 0 -6 -9 -21 -19
-34 -19 -24 -19 -31 5 -114 10 -36 32 -59 53 -53 10 2 34 -2 54 -11 31 -12 37
-20 37 -44 0 -38 -22 -56 -57 -47 -39 10 -52 22 -59 61 -3 19 -8 34 -10 34
-17 0 -74 -31 -74 -40 0 -15 38 -87 50 -95 33 -20 119 -21 156 -2 l31 16 52
-53 52 -53 -43 -19 c-23 -10 -45 -19 -48 -20 -61 -7 -118 -18 -127 -26 -16
-13 -17 4 -2 19 17 17 1 35 -24 27 -12 -4 -25 -11 -28 -17 -4 -5 -12 -6 -19
-2 -9 6 -3 16 20 36 18 16 37 29 41 29 5 0 9 6 9 13 0 7 -20 18 -44 26 -71 21
-108 75 -85 125 9 20 9 29 -1 41 -11 13 -10 15 1 10 8 -2 20 -1 28 4 18 12 5
77 -35 179 -32 81 -34 83 -61 76 -33 -9 -35 -29 -8 -105 13 -38 22 -69 20 -69
-2 0 -13 16 -25 35 -12 19 -46 56 -76 81 -51 44 -55 46 -84 34 -49 -20 -41
-33 71 -120 43 -33 19 -38 -34 -7 -31 18 -48 22 -64 16 -41 -15 -18 -67 39
-89 132 -49 172 -74 158 -100 -10 -19 4 -85 20 -95 19 -12 10 -22 -18 -21 -22
1 -27 6 -27 26 0 28 -2 28 -70 1 -27 -11 -62 -23 -77 -26 -15 -3 -33 -11 -40
-19 -11 -12 -15 -12 -28 0 -8 8 -37 29 -63 46 -49 31 -87 88 -87 130 0 17 3
19 12 10 29 -29 74 1 48 33 -18 22 -20 68 -2 81 25 18 7 48 -24 40 l-26 -7 21
30 c32 44 160 127 221 142 62 16 122 9 186 -21z m-607 -7 c-14 -17 -59 -17
-59 0 0 7 14 12 35 13 28 0 32 -2 24 -13z m91 -27 c0 -2 -8 -10 -17 -17 -16
-13 -17 -12 -4 4 13 16 21 21 21 13z m-1140 -32 c0 -8 -4 -12 -10 -9 -5 3 -10
13 -10 21 0 8 5 12 10 9 6 -3 10 -13 10 -21z m1049 23 c-2 -1 -15 -11 -28 -22
l-24 -20 14 23 c8 12 20 22 28 22 8 0 12 -1 10 -3z m-1089 -67 c8 -19 31 -55
52 -79 37 -42 43 -60 24 -64 -23 -5 -124 171 -108 187 8 9 16 -3 32 -44z
m1938 4 c24 -16 29 -34 10 -34 -14 0 -48 30 -48 42 0 12 13 10 38 -8z m-933
-14 c-3 -5 -12 -10 -18 -10 -7 0 -6 4 3 10 19 12 23 12 15 0z m-859 -42 c66
-68 138 -126 190 -152 41 -20 64 -25 138 -25 91 -1 191 -24 180 -42 -7 -11
-96 -11 -144 0 -20 4 -47 4 -60 -1 -57 -21 -168 34 -270 134 -50 49 -110 115
-110 122 0 19 40 0 76 -36z m714 -8 c11 -7 1 -9 -35 -9 -40 1 -45 3 -25 9 35
11 43 11 60 0z m1343 3 c-7 -2 -19 -2 -25 0 -7 3 -2 5 12 5 14 0 19 -2 13 -5z
m-947 -54 c-5 -67 -16 -75 -16 -12 0 44 5 63 17 63 2 0 1 -23 -1 -51z m903 47
c-2 -2 -22 -6 -44 -9 -22 -3 -55 -8 -72 -12 -20 -5 -33 -4 -33 2 0 19 14 23
83 23 39 0 68 -2 66 -4z m-2322 -62 c41 -45 35 -59 -9 -18 -17 16 -28 23 -24
17 4 -7 3 -13 -3 -13 -9 0 -31 31 -31 44 0 18 38 1 67 -30z m1312 19 c-7 -10
-21 -26 -30 -35 -9 -9 -19 -22 -21 -29 -3 -8 -29 -14 -69 -16 l-64 -3 40 13
c22 8 65 30 95 50 64 42 67 43 49 20z m-345 -15 c-7 -10 -74 -11 -74 0 0 4 18
7 39 7 22 1 37 -3 35 -7z m106 -18 c-20 -13 -33 -13 -25 0 3 6 14 10 23 10 15
0 15 -2 2 -10z m280 -32 c0 -27 -13 -58 -21 -52 -10 6 -12 48 -2 57 10 11 23
8 23 -5z m-370 -38 c22 0 20 -3 -18 -25 -23 -13 -58 -27 -77 -31 l-35 -6 11
30 c11 31 35 43 74 36 11 -2 31 -4 45 -4z m300 -4 c0 -3 -4 -8 -10 -11 -5 -3
-10 -1 -10 4 0 6 5 11 10 11 6 0 10 -2 10 -4z m-140 -47 c-6 -11 -17 -22 -25
-25 -7 -3 -19 -19 -25 -35 -22 -53 -48 -27 -32 32 6 26 15 35 38 40 53 12 56
11 44 -12z m124 -30 c35 -41 34 -66 -3 -71 -32 -5 -64 28 -41 42 15 9 10 42
-7 47 -11 4 -20 -4 -59 -52 -19 -25 -7 1 18 38 26 36 59 35 92 -4z m124 -31
c12 -19 45 -46 75 -62 51 -28 54 -32 44 -53 l-11 -24 -35 35 c-20 18 -55 43
-77 55 -40 19 -54 37 -54 67 0 26 38 14 58 -18z m-432 -19 c14 -22 23 -43 20
-46 -8 -8 -66 56 -66 73 0 26 20 14 46 -27z m-67 -30 c40 -39 50 -54 40 -60
-8 -5 -20 -9 -27 -9 -23 0 -92 52 -92 71 0 10 -4 21 -10 24 -18 11 -11 25 13
25 15 0 43 -19 76 -51z m-190 11 c24 -6 42 -30 23 -30 -13 0 -102 40 -102 46
0 4 17 1 79 -16z m1071 -31 c0 -10 -50 -17 -55 -8 -3 4 5 15 17 23 21 15 37 8
38 -15z m-562 11 c12 0 13 -3 5 -11 -15 -15 -5 -39 15 -39 8 0 24 7 34 16 14
13 21 14 32 5 11 -9 15 -9 18 1 3 9 12 9 39 -2 45 -18 58 -28 84 -70 22 -35
48 -100 40 -100 -3 0 -18 26 -34 58 -34 67 -52 85 -75 76 -22 -8 -21 -12 24
-94 22 -40 40 -73 40 -74 0 0 -24 0 -54 0 -40 1 -64 8 -88 25 -18 13 -39 22
-47 21 -8 -2 -12 2 -8 11 3 8 -2 25 -11 38 -9 13 -16 37 -17 54 0 26 -5 31
-37 39 -29 7 -42 6 -62 -8 -14 -9 -26 -13 -26 -8 0 5 18 18 40 31 22 12 40 27
40 33 0 5 7 7 16 4 9 -3 23 -6 32 -6z m671 -3 c-2 -1 -15 -11 -29 -22 l-25
-20 19 23 c11 12 24 22 29 22 6 0 8 -1 6 -3z m-845 -68 c-3 -5 -13 -9 -22 -9
-12 0 -17 8 -17 29 l0 30 22 -21 c12 -12 20 -25 17 -29z m-1975 1 c-22 -29
-22 -30 -4 -75 17 -46 17 -47 -6 -71 -12 -13 -40 -29 -60 -34 -43 -12 -69 -42
-69 -81 0 -42 20 -52 66 -33 21 9 51 25 66 35 15 11 29 15 32 10 4 -5 2 -12
-3 -15 -15 -10 -1 -44 22 -51 15 -5 -2 -10 -54 -15 -41 -4 -86 -13 -100 -20
-13 -8 -58 -14 -99 -15 -41 -1 -87 -8 -102 -15 -22 -11 -30 -11 -43 0 -9 7
-14 19 -11 27 3 8 2 12 -3 8 -27 -16 -14 64 15 96 20 22 33 17 14 -6 -16 -19
-8 -39 24 -60 24 -16 27 -15 83 18 58 34 58 34 59 83 1 68 1 68 34 87 38 23
59 63 53 103 -4 24 0 32 19 41 12 7 38 12 56 12 l33 1 -22 -30z m1736 0 c10
-11 24 -20 32 -20 11 0 10 -5 -3 -24 -13 -21 -19 -23 -41 -15 -24 9 -62 46
-63 61 0 4 10 9 23 11 12 2 25 5 28 6 3 0 14 -8 24 -19z m773 -12 c5 -7 15
-30 23 -51 9 -25 21 -40 36 -43 22 -6 33 -24 14 -24 -18 0 -90 76 -95 103 -7
28 4 36 22 15z m149 -20 c36 -15 53 -27 53 -39 0 -15 -7 -18 -37 -15 -66 7
-90 17 -102 42 -6 14 -11 27 -11 29 0 12 49 3 97 -17z m-1537 -17 c0 -21 -53
-71 -75 -71 -37 0 -91 -27 -118 -59 -18 -22 -27 -47 -32 -93 -8 -68 -20 -85
-97 -134 -45 -29 -51 -39 -44 -68 11 -43 91 -60 136 -29 14 9 49 41 78 72 50
51 56 54 104 55 47 1 53 4 92 48 46 52 79 65 84 32 2 -15 -12 -30 -53 -58 -36
-26 -55 -45 -55 -59 0 -22 27 -57 44 -57 6 0 16 -10 21 -22 14 -31 35 -33 89
-9 87 40 80 20 -12 -34 -80 -47 -95 -53 -118 -44 -15 5 -35 7 -44 4 -11 -3
-20 1 -23 10 -5 11 -16 13 -51 9 -26 -4 -51 -2 -58 3 -17 14 -110 23 -233 24
-55 0 -116 4 -135 8 -19 4 -49 3 -67 -2 -26 -8 -36 -6 -57 11 -24 18 -38 20
-154 17 -132 -4 -171 3 -130 22 22 10 47 64 62 136 8 36 -10 43 -59 23 -30
-13 -35 -19 -30 -37 9 -27 -21 -83 -52 -100 -13 -7 -23 -16 -23 -20 0 -4 -14
-11 -32 -14 -31 -7 -41 -11 -89 -36 -15 -8 -24 -8 -32 0 -6 6 -27 11 -47 11
-25 0 -39 6 -48 20 -16 26 -10 35 46 71 42 27 53 29 142 29 58 0 100 4 107 11
12 12 6 39 -9 50 -11 7 25 32 72 48 19 7 69 14 110 17 94 7 126 17 209 65 36
21 67 37 68 36 1 -2 -8 -24 -20 -49 -19 -40 -26 -47 -52 -48 -16 0 -43 -11
-59 -24 -24 -20 -27 -28 -21 -55 8 -37 36 -52 75 -41 40 12 194 90 202 103 4
7 8 22 8 35 0 22 24 63 64 110 12 13 31 22 49 22 16 0 46 9 66 20 30 17 68 27
194 49 4 0 7 -3 7 -8z m1730 -11 c0 -5 -4 -10 -10 -10 -5 0 -10 5 -10 10 0 6
5 10 10 10 6 0 10 -4 10 -10z m280 -5 c0 -17 -2 -18 -24 -9 -23 9 -20 24 4 24
11 0 20 -7 20 -15z m-1265 -5 c-3 -5 -17 -10 -31 -10 -13 0 -24 5 -24 10 0 6
14 10 31 10 17 0 28 -4 24 -10z m1213 -15 c13 -27 7 -30 -36 -19 -22 6 -22 8
-6 25 22 25 29 24 42 -6z m-945 -26 c21 0 21 -1 -3 -10 -13 -5 -36 -12 -50
-14 -14 -3 -40 -8 -59 -11 -26 -5 -33 -4 -29 7 3 8 13 16 24 18 10 2 22 8 26
15 6 8 8 7 8 -1 0 -18 25 -16 41 3 8 10 15 12 17 5 2 -6 13 -11 25 -12z m633
-6 c-2 -2 -11 0 -20 3 -14 5 -15 9 -5 15 12 7 34 -10 25 -18z m180 0 c0 -10
-9 -24 -19 -32 -16 -11 -21 -11 -34 2 -23 22 -9 47 26 47 21 0 28 -5 27 -17z
m-1006 -12 c0 -12 -39 -25 -48 -16 -7 7 17 25 36 25 6 0 12 -4 12 -9z m807
-49 c-1 -8 10 -24 25 -35 22 -17 30 -18 42 -7 22 18 63 -11 83 -58 8 -20 23
-46 32 -57 31 -35 31 -51 1 -68 -15 -9 -30 -14 -33 -10 -4 3 -18 -2 -32 -11
-24 -16 -25 -16 -25 9 0 29 -21 33 -46 8 -17 -17 -17 -16 -11 14 7 38 -3 48
-29 29 -13 -10 -23 -11 -31 -4 -13 11 -22 -12 -26 -66 -1 -16 -7 -31 -12 -33
-7 -2 -9 22 -7 67 4 57 1 75 -13 90 -9 10 -19 31 -21 47 -10 80 -11 78 21 81
17 2 33 7 37 11 14 13 48 7 45 -7z m-2979 -58 c-2 -10 -11 -20 -20 -22 -15 -3
-15 1 -5 27 12 32 32 28 25 -5z m792 -78 c0 -3 -4 -8 -10 -11 -5 -3 -10 -1
-10 4 0 6 5 11 10 11 6 0 10 -2 10 -4z m2515 -116 c-5 -8 -11 -8 -17 -2 -6 6
-7 16 -3 22 5 8 11 8 17 2 6 -6 7 -16 3 -22z m-1480 11 c-13 -12 -85 -42 -85
-35 0 5 79 43 90 44 2 0 0 -4 -5 -9z m1395 -21 c0 -11 -4 -20 -10 -20 -5 0
-10 9 -10 20 0 11 5 20 10 20 6 0 10 -9 10 -20z m-3233 4 c-3 -4 5 -23 18 -43
27 -39 31 -51 15 -51 -6 0 -20 16 -31 35 -12 19 -28 35 -36 35 -13 0 -13 3 -3
15 7 8 19 15 28 15 8 0 13 -3 9 -6z m1733 -29 c0 -2 -10 -9 -22 -15 -22 -11
-22 -10 -4 4 21 17 26 19 26 11z m-1842 -34 c47 -24 66 -46 82 -94 6 -21 20
-43 31 -50 15 -9 19 -23 19 -62 l0 -50 -138 -81 c-210 -124 -240 -138 -269
-123 -12 7 -23 17 -23 23 -1 15 -30 74 -61 121 -27 41 -66 80 -106 107 -21 14
-20 15 40 45 34 17 79 38 100 47 37 16 37 16 37 -8 0 -13 -7 -29 -15 -36 -36
-30 19 -50 157 -56 114 -5 140 4 101 36 -11 9 -33 36 -48 60 -15 25 -33 48
-39 53 -14 10 -107 -2 -126 -16 -8 -6 -4 1 10 16 36 41 84 68 138 77 70 12 70
12 110 -9z m1950 -33 c-30 -30 -70 -84 -91 -125 -25 -48 -44 -73 -56 -73 -9 0
-24 -6 -31 -12 -8 -7 6 10 33 37 49 53 56 69 33 78 -15 6 -39 -12 -125 -89
-125 -110 -136 -128 -111 -175 21 -39 65 -16 54 28 -4 12 5 26 25 41 38 28 49
13 22 -31 -26 -42 -101 -114 -102 -99 -1 7 -2 18 -3 25 -1 14 -87 17 -126 3
-16 -6 -2 11 37 43 34 28 63 55 65 59 2 4 33 31 70 60 37 29 70 61 73 72 3 10
18 26 33 36 15 10 55 45 90 78 51 50 117 90 160 96 2 0 -21 -24 -50 -52z
m-160 37 c-14 -14 -121 -75 -125 -71 -3 2 24 20 59 40 60 34 78 42 66 31z
m602 -5 c0 -5 -5 -10 -11 -10 -5 0 -7 5 -4 10 3 6 8 10 11 10 2 0 4 -4 4 -10z
m1020 -4 c0 -8 -4 -18 -10 -21 -5 -3 -10 3 -10 14 0 12 5 21 10 21 6 0 10 -6
10 -14z m-1275 -36 c6 -4 28 -11 50 -14 63 -11 68 -17 50 -59 -8 -20 -15 -46
-15 -57 0 -14 -7 -20 -24 -20 -31 0 -229 40 -238 48 -4 4 16 32 44 64 48 53
53 56 87 51 20 -3 41 -9 46 -13z m505 -42 c30 -15 59 -28 66 -28 6 0 35 -17
65 -39 30 -21 65 -42 79 -46 76 -24 150 -131 119 -173 -8 -10 -30 -40 -49 -66
l-35 -47 -8 26 c-8 23 -4 32 23 60 37 38 35 71 -6 81 -13 4 -29 15 -34 25 -6
10 -32 31 -58 46 -26 15 -72 45 -102 68 -30 23 -75 49 -99 59 -25 10 -50 25
-56 33 -15 20 -81 19 -104 -1 -9 -8 -36 -18 -60 -22 -23 -4 -57 -18 -73 -32
-28 -24 -30 -24 -17 -4 8 13 31 30 52 39 20 9 37 20 37 25 0 4 11 8 24 8 13 0
29 6 36 14 26 32 108 22 200 -26z m-2145 25 c5 -13 -8 -30 -47 -65 l-53 -46
-14 25 c-11 22 -11 27 0 34 8 4 32 21 54 37 48 36 51 37 60 15z m-138 -10 c-9
-9 -19 -14 -23 -11 -10 10 6 28 24 28 15 0 15 -1 -1 -17z m426 -10 c28 -16 61
-18 243 -18 156 0 215 -4 227 -13 11 -9 41 -12 108 -8 51 3 97 2 102 -1 17
-10 -251 -143 -458 -228 -44 -18 -118 -48 -165 -68 -47 -19 -114 -45 -150 -57
-36 -12 -101 -35 -145 -50 -125 -44 -135 -45 -135 -16 0 14 -4 27 -8 30 -5 3
-14 31 -21 63 -7 32 -17 70 -21 85 -5 16 -5 30 0 33 6 3 6 15 0 29 -9 25 3 46
26 46 7 0 19 8 26 18 25 34 121 107 187 143 74 40 126 43 184 12z m970 -13
c-30 -28 -72 -42 -58 -20 6 9 73 49 85 50 3 0 -9 -14 -27 -30z m-1563 0 c0 -5
-4 -10 -9 -10 -6 0 -13 5 -16 10 -3 6 1 10 9 10 9 0 16 -4 16 -10z m1450 6 c0
-8 -264 -158 -310 -176 -19 -7 -54 -24 -78 -37 -23 -13 -49 -23 -56 -23 -7 0
-30 -11 -50 -25 -20 -14 -41 -25 -46 -25 -5 0 -46 -18 -92 -40 -46 -22 -92
-40 -103 -40 -17 0 -165 -56 -240 -90 -37 -17 -229 -88 -285 -106 -30 -9 -64
-20 -75 -24 -47 -18 -107 -31 -158 -35 -31 -2 -64 -8 -74 -13 -16 -9 -284 -44
-290 -39 -1 2 1 8 5 14 6 10 47 17 167 28 45 5 224 48 395 95 173 48 402 128
520 183 36 16 88 38 115 47 47 17 130 55 380 174 61 29 126 59 145 66 19 8 53
26 75 41 37 26 55 34 55 25z m-1829 -34 c-8 -15 -8 -21 1 -24 6 -2 8 -9 5 -15
-5 -8 -14 -8 -31 0 l-25 12 26 27 c29 31 40 30 24 0z m3283 13 c51 -8 55 -14
28 -38 -17 -16 -20 -15 -42 8 -13 14 -29 25 -36 25 -7 0 -16 5 -20 12 -5 7 -2
9 8 6 9 -4 36 -10 62 -13z m256 -28 c9 -18 25 -34 40 -38 14 -4 18 -8 10 -9
-8 -1 -27 -3 -42 -5 -19 -2 -28 1 -28 11 0 8 -9 23 -19 33 -14 14 -16 22 -8
30 18 18 31 12 47 -22z m-3035 -28 c9 -26 -23 -99 -42 -99 -23 0 -83 51 -83
70 0 10 7 23 16 31 13 11 19 10 37 -1 18 -11 23 -10 32 4 14 22 32 20 40 -5z
m2733 -25 c13 -13 27 -22 33 -19 5 4 9 -4 9 -17 0 -13 7 -34 16 -47 15 -21 15
-23 -5 -37 -11 -8 -21 -20 -21 -26 0 -7 7 -3 15 8 14 18 14 17 15 -14 0 -18 4
-31 8 -28 14 8 30 -8 38 -39 l7 -30 -24 18 c-37 27 -47 30 -75 23 -20 -5 -25
-12 -21 -28 5 -19 5 -19 -12 -2 -16 17 -16 19 2 37 29 29 19 134 -15 160 -66
52 -71 59 -57 68 21 14 61 1 87 -27z m221 2 c-3 -3 -11 5 -18 17 -13 21 -12
21 5 5 10 -10 16 -20 13 -22z m-87 -6 c-2 -16 -1 -41 2 -56 6 -22 11 -25 31
-20 35 9 31 2 -11 -23 -44 -26 -47 -26 -32 0 11 17 10 22 -4 30 -20 11 -23 35
-8 73 13 35 28 33 22 -4z m406 9 c-2 -6 -8 -10 -13 -10 -5 0 -11 4 -13 10 -2
6 4 11 13 11 9 0 15 -5 13 -11z m-1960 -7 c9 -7 6 -14 -13 -28 -41 -29 -95
-75 -146 -121 -68 -63 -245 -184 -359 -246 -36 -19 -95 -51 -131 -71 -56 -30
-458 -173 -463 -164 -17 37 -26 43 -70 46 -43 3 -46 5 -46 30 0 24 9 31 78 63
140 64 224 99 241 99 9 0 21 4 26 8 6 5 53 26 105 47 100 40 127 52 305 133
61 27 135 61 165 74 47 20 112 53 170 87 31 18 105 51 115 51 6 0 16 -4 23 -8z
m1888 -49 c-2 -2 -22 7 -46 21 -39 22 -41 25 -19 28 17 3 31 -3 46 -21 12 -14
21 -27 19 -28z m-4074 30 c10 -9 18 -21 18 -28 0 -7 15 -20 33 -30 48 -26 137
-157 137 -202 0 -7 6 -22 12 -33 17 -27 -3 -50 -27 -30 -8 7 -15 18 -15 25 0
16 -29 74 -51 103 -10 13 -15 30 -12 38 3 9 0 14 -8 12 -10 -2 -13 5 -11 22 1
17 -1 21 -7 11 -7 -10 -12 -8 -25 10 -16 24 -81 49 -128 49 -15 0 -30 5 -33
10 -3 6 1 10 10 10 10 0 30 11 47 25 35 30 36 30 60 8z m3788 -9 c0 -8 -4 -12
-10 -9 -5 3 -10 10 -10 16 0 5 5 9 10 9 6 0 10 -7 10 -16z m42 -16 c-8 -8 -9
-4 -5 13 4 13 8 18 11 10 2 -7 -1 -18 -6 -23z m-1177 3 c126 -15 205 -32 205
-43 0 -5 16 -18 36 -30 l36 -21 -7 -75 c-4 -41 -13 -91 -20 -111 -6 -20 -10
-41 -8 -48 2 -6 -1 -14 -6 -18 -6 -3 -11 -13 -11 -22 0 -35 -111 -254 -159
-313 -72 -90 -318 -327 -400 -385 -168 -120 -337 -222 -431 -262 -126 -53
-213 -75 -308 -77 -98 -1 -92 -9 -71 91 11 52 11 72 0 115 -32 130 -64 205
-119 281 -59 82 -76 97 -112 97 -41 0 -9 19 58 34 89 21 276 99 447 188 51 27
150 97 196 140 37 34 60 53 156 128 113 88 274 261 300 323 14 33 9 32 218 8z
m1508 -57 c-6 -16 -6 -16 -27 -8 -24 9 -19 22 8 22 17 0 23 -5 19 -14z m-3428
-16 c-3 -7 -22 -24 -43 -38 -20 -14 -39 -27 -42 -30 -5 -5 -136 -93 -172 -115
-17 -11 -71 -49 -142 -101 -46 -34 -142 -57 -134 -33 2 7 18 17 34 21 40 11
137 80 149 106 5 11 41 39 80 62 38 23 106 63 150 90 78 47 129 63 120 38z
m-798 -32 c28 -14 53 -31 57 -38 3 -7 15 -26 26 -43 11 -16 29 -48 41 -70 12
-22 29 -45 38 -52 9 -6 13 -15 8 -19 -4 -4 0 -15 9 -25 14 -16 14 -20 -1 -43
-9 -14 -14 -30 -10 -36 12 -20 -3 -10 -39 26 -33 33 -39 35 -78 29 -24 -4 -70
-18 -103 -32 -33 -14 -86 -35 -117 -46 -55 -21 -57 -21 -77 -3 -16 15 -18 22
-10 33 9 9 9 13 0 13 -6 0 -11 -4 -11 -9 0 -9 -69 -37 -74 -29 -5 9 -26 76
-26 85 0 6 21 14 46 18 39 5 52 3 76 -15 45 -33 62 -24 66 34 4 58 -20 90 -80
107 -41 11 -43 23 -4 33 38 9 193 83 200 95 9 14 4 15 63 -13z m923 16 c0 -5
-7 -17 -15 -28 -14 -19 -14 -19 -15 2 0 11 3 24 7 27 9 10 23 9 23 -1z m2150
-2 c0 -5 -4 -10 -10 -10 -5 0 -10 5 -10 10 0 6 5 10 10 10 6 0 10 -4 10 -10z
m-2253 -52 c4 -7 9 -22 11 -33 12 -77 19 -143 18 -173 l-1 -35 -85 -19 c-105
-23 -342 -57 -352 -51 -5 2 -8 15 -8 27 0 16 13 32 43 52 23 16 44 31 47 34
10 10 98 70 103 70 10 0 164 109 177 125 15 18 36 20 47 3z m2243 -8 c0 -5 -4
-10 -10 -10 -5 0 -10 5 -10 10 0 6 5 10 10 10 6 0 10 -4 10 -10z m-2140 -45
c1 -11 7 -36 14 -56 10 -28 10 -43 0 -75 l-12 -39 -2 40 c-3 69 -9 129 -15
155 -4 19 -3 21 5 10 5 -8 10 -24 10 -35z m3048 -74 c24 -10 45 -11 82 -4 50
10 50 10 50 -16 0 -18 -11 -34 -35 -51 -65 -46 -56 -96 15 -85 19 3 49 6 65 8
17 2 45 11 62 20 l33 17 -26 -37 c-18 -27 -24 -45 -19 -63 15 -60 16 -77 5
-105 l-11 -30 -28 34 c-19 23 -33 32 -45 28 -18 -7 -22 -32 -5 -42 5 -4 8 -12
6 -18 -2 -7 4 -31 15 -55 23 -56 23 -70 -2 -47 -11 10 -18 21 -15 24 2 4 -7
25 -19 47 -13 23 -26 64 -30 93 -4 34 -21 75 -48 119 -53 87 -66 102 -95 102
-26 0 -29 10 -11 28 17 17 -8 34 -44 29 -15 -2 -25 -1 -23 2 2 4 0 25 -5 48
-4 23 -5 45 -2 48 3 2 26 -14 51 -38 25 -23 61 -49 79 -56z m-864 70 c10 -10
13 -21 8 -24 -8 -5 -42 26 -42 38 0 11 18 4 34 -14z m-1096 -63 c-17 -22 -35
-34 -54 -36 -18 -1 -25 1 -19 7 20 20 90 68 94 65 2 -2 -8 -18 -21 -36z m1079
25 c3 -10 15 -27 27 -38 18 -18 19 -20 3 -23 -9 -2 -17 -8 -17 -13 0 -6 9 -7
23 -3 15 5 8 -7 -26 -39 -44 -41 -48 -49 -46 -86 3 -34 -1 -43 -25 -62 l-29
-23 22 -17 c28 -23 27 -26 -8 -21 -23 3 -33 -2 -51 -28 -12 -17 -24 -48 -27
-70 -7 -50 19 -75 82 -75 24 0 46 -3 49 -6 9 -9 -25 -93 -48 -119 -19 -20 -22
-31 -16 -58 4 -18 15 -41 25 -52 20 -23 11 -43 -16 -35 -11 4 -26 2 -33 -4
-11 -9 -12 -6 -8 14 2 14 9 28 14 31 5 3 3 13 -6 23 -14 16 -14 21 3 54 l18
36 -26 25 c-40 39 -94 36 -132 -6 -16 -18 -43 -47 -59 -63 -17 -17 -30 -38
-30 -47 0 -13 -8 -17 -35 -16 -52 2 -84 -32 -83 -88 0 -35 4 -44 18 -44 10 0
21 -7 24 -16 5 -13 14 -15 41 -10 22 4 35 3 35 -4 0 -5 12 -10 26 -10 45 0
116 86 86 104 -11 6 -26 -5 -40 -29 -11 -19 -11 -19 -12 -1 0 11 9 30 21 42
l20 22 -21 20 c-18 16 -19 20 -6 25 11 4 16 19 16 45 0 69 58 95 80 37 16 -42
12 -59 -20 -77 -36 -21 -40 -43 -6 -34 17 4 26 1 30 -10 8 -21 -1 -34 -25 -34
-12 0 -19 -5 -16 -12 2 -7 13 -12 25 -11 20 2 20 1 4 -39 -16 -40 -16 -41 5
-55 16 -11 20 -19 13 -31 -5 -10 -19 -43 -31 -74 -22 -57 -39 -74 -39 -40 0 9
-3 34 -6 55 -6 35 -5 37 19 37 27 0 43 23 24 37 -49 37 -89 32 -128 -14 -32
-37 -110 -99 -143 -114 -26 -12 -31 -28 -27 -94 1 -25 -4 -33 -31 -45 -22 -10
-32 -21 -30 -33 3 -17 -33 -56 -52 -57 -5 0 -14 -7 -21 -16 -10 -14 -14 -15
-33 -3 -17 11 -26 11 -41 2 -15 -10 -20 -9 -25 2 -7 20 -22 19 -44 -3 -9 -9
-33 -19 -51 -20 -41 -3 -201 -76 -201 -91 0 -6 5 -11 10 -11 6 0 10 -5 10 -11
0 -6 -6 -9 -13 -6 -7 3 -21 -1 -31 -9 -22 -16 -15 -44 13 -51 37 -9 12 -31
-29 -26 -36 5 -40 3 -64 -35 -14 -23 -23 -47 -20 -55 8 -22 -19 -27 -44 -7
-23 19 -47 70 -33 70 5 0 14 -7 21 -15 32 -38 67 2 43 48 -10 21 -20 28 -34
24 -10 -3 -19 -2 -19 3 0 15 -33 21 -77 14 -26 -4 -42 -11 -40 -18 2 -6 10
-11 18 -11 10 0 13 -11 11 -38 -2 -21 2 -44 8 -52 7 -8 9 -16 4 -16 -5 -1 -22
-3 -37 -5 -39 -4 -80 -32 -70 -47 4 -7 0 -7 -10 2 -13 10 -17 29 -17 77 0 34
5 66 10 69 6 3 10 16 10 27 0 12 -3 18 -7 15 -3 -4 -14 0 -24 9 -15 14 -19 12
-41 -16 l-25 -32 -1 32 c0 18 -6 38 -11 43 -6 6 -11 47 -11 92 0 57 -5 87 -16
103 -8 12 -11 22 -5 22 5 0 13 -5 16 -11 8 -13 122 -6 180 11 47 13 67 18 115
26 19 4 39 13 43 20 4 8 17 14 28 14 29 0 81 29 73 41 -3 6 4 8 18 5 15 -4 41
5 78 29 30 19 69 41 85 48 17 8 44 27 61 43 17 16 36 29 42 30 28 2 32 5 32
19 0 8 3 14 8 13 18 -4 40 15 35 29 -4 11 -2 14 5 9 7 -4 27 3 45 16 57 40
161 128 170 143 4 8 15 15 22 15 8 0 15 7 15 15 0 8 8 15 18 15 16 0 48 37 44
52 -1 4 7 10 18 13 11 4 20 14 20 23 0 10 10 22 23 27 12 6 22 17 22 25 0 8
11 22 25 31 32 20 110 121 110 142 0 10 5 17 10 17 6 0 15 10 20 23 6 12 14
29 19 37 5 8 16 30 23 48 7 17 16 32 19 32 13 0 18 44 7 57 -8 10 -7 13 5 13
19 0 30 27 15 36 -7 5 -4 10 10 15 11 4 21 16 21 26 1 36 13 83 22 83 5 0 12
-8 16 -17z m-897 -22 c0 -5 -15 -19 -33 -30 -19 -11 -46 -32 -62 -47 -36 -33
-181 -144 -189 -144 -3 0 -35 -18 -71 -40 -36 -22 -68 -40 -70 -40 -3 0 -3 11
1 24 3 13 1 27 -4 30 -15 9 -72 18 -109 17 -18 -1 -33 3 -33 8 0 9 38 24 53
22 4 -1 10 6 14 15 5 13 7 13 14 2 7 -10 9 -9 9 5 0 10 12 22 26 27 14 6 46
24 70 41 25 17 47 29 49 27 3 -2 -8 -18 -24 -36 -17 -18 -32 -48 -36 -71 -6
-34 -4 -40 15 -46 27 -9 50 11 50 42 0 29 27 73 45 73 7 0 25 -7 41 -15 31
-16 49 -8 59 26 9 26 89 102 117 111 35 9 68 9 68 -1z m840 -1 c0 -5 -4 -10
-10 -10 -5 0 -10 5 -10 10 0 6 5 10 10 10 6 0 10 -4 10 -10z m466 -45 c-11
-60 -37 -133 -62 -170 -14 -22 -23 -31 -19 -20 4 11 8 33 11 49 2 15 12 43 22
60 11 18 25 49 31 69 14 43 24 49 17 12z m252 -6 c-3 -8 -7 -3 -11 10 -4 17
-3 21 5 13 5 -5 8 -16 6 -23z m-3389 18 c-2 -1 -13 -9 -24 -17 -19 -14 -19
-14 -6 3 7 9 18 17 24 17 6 0 8 -1 6 -3z m3316 -19 c7 -6 -3 -7 -26 -3 -22 4
-46 2 -58 -4 -17 -9 -21 -9 -21 2 0 8 2 16 4 18 8 8 91 -3 101 -13z m490 -17
c-16 -10 -43 -33 -59 -50 -28 -29 -52 -41 -44 -22 6 16 102 90 118 90 8 1 2
-7 -15 -18z m-315 -26 c0 -20 7 -49 15 -66 18 -34 58 -159 53 -164 -8 -8 -50
65 -68 118 -21 60 -27 147 -10 147 6 0 10 -16 10 -35z m410 20 c0 -9 -64 -45
-80 -45 -23 1 37 50 61 50 10 0 19 -2 19 -5z m-595 -35 c15 -6 29 -19 32 -30
3 -11 12 -20 19 -20 9 0 14 -11 14 -30 0 -26 -4 -30 -27 -30 -16 0 -43 -9 -61
-20 -19 -12 -30 -15 -26 -8 5 7 9 18 9 23 2 23 18 43 30 39 17 -7 28 11 20 35
-7 23 -44 34 -62 19 -17 -13 -28 -4 -20 17 7 17 34 19 72 5z m-535 -18 c0 -5
-10 -17 -22 -28 -12 -10 -19 -14 -16 -9 3 6 8 18 11 28 6 17 27 24 27 9z
m-3105 -41 c3 -5 1 -12 -5 -16 -5 -3 -10 1 -10 9 0 18 6 21 15 7z m3125 -93
c-23 -19 -41 -23 -39 -10 1 4 1 9 0 12 -1 3 -3 22 -5 43 -2 30 0 37 15 37 10
0 21 6 26 13 4 7 11 -5 16 -33 8 -39 7 -46 -13 -62z m818 67 c-3 -3 -9 2 -12
12 -6 14 -5 15 5 6 7 -7 10 -15 7 -18z m-3752 -12 c-8 -8 -36 5 -36 17 0 7 6
7 21 0 11 -7 18 -14 15 -17z m3311 5 c-3 -8 -6 -5 -6 6 -1 11 2 17 5 13 3 -3
4 -12 1 -19z m-3569 0 c-3 -7 -12 -14 -21 -16 -12 -2 -15 1 -11 12 7 19 38 22
32 4z m392 -21 c0 -4 -12 -13 -27 -19 -16 -7 -40 -23 -55 -37 -43 -38 -31 4
15 52 34 37 66 39 67 4z m-303 7 c-16 -16 -108 -53 -105 -41 3 6 27 20 54 29
56 19 60 20 51 12z m3952 -36 c23 -51 37 -108 23 -93 -8 9 -52 118 -52 130 0
16 12 -1 29 -37z m-498 9 c-10 -9 -11 -8 -5 6 3 10 9 15 12 12 3 -3 0 -11 -7
-18z m-3626 4 c3 -6 -3 -15 -14 -20 -26 -14 -31 -14 -31 3 0 21 34 34 45 17z
m1654 -31 c-25 -17 -57 -30 -74 -30 -25 0 -21 4 28 24 33 14 61 27 65 30 3 3
10 6 15 6 6 0 -10 -13 -34 -30z m-1380 5 c2 -3 -12 -20 -32 -39 -20 -19 -37
-43 -37 -54 0 -24 -15 -30 -55 -22 -25 4 -30 10 -30 35 0 39 -27 44 -60 11
-31 -31 -35 -32 -35 -5 0 21 50 49 92 49 13 1 39 9 58 20 31 17 84 19 99 5z
m797 3 c-3 -7 -9 -20 -12 -30 -5 -15 -33 -28 -61 -28 -17 0 12 53 34 62 29 11
45 9 39 -4z m-1156 -8 c0 -5 -4 -10 -9 -10 -6 0 -13 5 -16 10 -3 6 1 10 9 10
9 0 16 -4 16 -10z m3957 -68 c12 -74 42 -150 70 -178 24 -24 10 -26 -35 -4
-22 11 -54 37 -69 57 -15 21 -36 47 -45 57 -10 11 -18 29 -19 40 -4 71 18 109
60 104 23 -3 27 -9 38 -76z m-2980 52 c13 -4 20 -10 17 -15 -7 -12 -91 -12
-98 0 -11 17 39 26 81 15z m2436 -25 c-7 -7 -20 -8 -30 -5 -17 7 -17 8 1 22
23 17 48 2 29 -17z m186 -13 c-7 -14 -16 -26 -20 -26 -5 0 0 13 9 29 20 36 27
34 11 -3z m-2024 -10 c-28 -18 -64 -51 -82 -73 l-32 -40 -48 10 c-26 5 -66 9
-88 9 -31 0 -35 2 -20 9 60 25 301 117 310 118 5 0 -13 -14 -40 -33z m330 15
c17 -7 12 -11 -30 -30 -87 -39 -147 -62 -152 -57 -11 11 10 43 39 60 51 31
107 41 143 27z m2161 -47 c47 -51 53 -55 74 -44 20 11 25 9 41 -11 25 -32 24
-34 -13 -75 l-33 -36 -22 27 c-13 14 -23 32 -23 39 0 8 -7 19 -15 26 -13 11
-75 114 -75 125 0 14 18 0 66 -51z m-3341 16 c63 -29 202 -45 271 -31 32 6 62
7 66 3 10 -10 -92 -25 -167 -25 -123 0 -280 13 -277 23 1 6 -2 19 -8 30 -8 15
-6 19 8 22 26 6 63 -2 107 -22z m2597 3 c46 -20 48 -35 9 -62 -29 -21 -29 -21
-24 -1 7 27 -20 27 -47 0 -11 -11 -28 -20 -37 -19 -14 0 -13 3 5 11 30 15 28
38 -4 38 -33 0 -27 24 7 28 13 2 28 8 34 13 12 12 12 12 57 -8z m463 7 c3 -5
2 -10 -4 -10 -5 0 -13 5 -16 10 -3 6 -2 10 4 10 5 0 13 -4 16 -10z m-3286 -40
c10 0 24 -30 17 -37 -7 -7 -66 49 -66 63 0 10 6 8 20 -6 11 -11 24 -20 29 -20z
m3068 -22 c-3 -8 -6 -5 -6 6 -1 11 2 17 5 13 3 -3 4 -12 1 -19z m156 10 c20
-16 34 -68 18 -68 -6 0 -11 13 -11 29 0 23 -6 32 -27 39 -16 6 -21 11 -12 11
8 1 23 -5 32 -11z m-2088 -18 c3 -5 15 -10 26 -10 10 0 19 -4 19 -10 0 -5 -8
-10 -18 -10 -10 0 -26 -6 -37 -14 -11 -7 -33 -16 -50 -20 -16 -4 -48 -16 -71
-26 -87 -40 -284 -94 -284 -79 0 5 -7 9 -15 9 -8 0 -14 -5 -13 -11 2 -6 -2
-13 -9 -16 -28 -10 -3 32 33 53 35 22 46 24 107 18 60 -6 72 -4 97 15 16 11
41 21 55 21 17 0 45 16 78 45 52 45 71 53 82 35z m1721 -77 c-20 -37 -24 -41
-19 -18 7 32 33 78 40 71 2 -2 -7 -26 -21 -53z m248 -1 c18 -12 41 -23 52 -23
11 -1 6 -4 -11 -8 -18 -4 -35 -16 -42 -32 -7 -15 -27 -32 -44 -40 -28 -11 -33
-10 -44 4 -7 9 -24 17 -39 17 -14 0 -26 2 -26 5 0 2 23 27 50 55 28 28 50 58
51 68 0 14 2 14 10 -3 6 -11 25 -30 43 -43z m211 48 c3 -5 1 -10 -4 -10 -6 0
-11 5 -11 10 0 6 2 10 4 10 3 0 8 -4 11 -10z m-2599 -15 c-15 -8 -45 -14 -65
-14 l-36 2 42 6 c24 4 46 10 49 14 4 4 14 7 23 7 9 0 3 -7 -13 -15z m-526 -26
c168 -13 207 -13 285 0 98 15 105 14 63 -12 -42 -26 -100 -95 -95 -111 2 -6
17 -13 33 -16 21 -4 3 -10 -63 -19 -87 -12 -221 -17 -230 -8 -9 9 62 77 81 77
23 0 56 -27 56 -47 0 -8 12 -13 30 -13 24 0 31 5 36 28 4 15 12 30 18 34 7 5
2 16 -14 32 -23 22 -35 25 -151 30 -69 3 -133 8 -141 11 -9 4 -30 0 -46 -9
-16 -8 -33 -12 -37 -8 -5 4 -5 2 -1 -5 4 -7 -1 -24 -10 -38 -9 -14 -14 -31
-11 -39 4 -10 -4 -18 -24 -25 -26 -9 -29 -8 -29 9 0 61 82 160 119 144 9 -4
68 -10 131 -15z m3556 -15 c2 -5 -10 -19 -26 -31 l-28 -23 5 23 c10 41 41 61
49 31z m149 6 c3 -5 1 -10 -4 -10 -6 0 -11 5 -11 10 0 6 2 10 4 10 3 0 8 -4
11 -10z m-569 -36 c14 -20 14 -21 -42 -10 -51 9 -54 11 -38 23 26 19 64 12 80
-13z m-2713 -62 c14 -17 9 -20 -53 -28 l-55 -7 45 41 c36 34 46 38 49 24 2 -9
8 -23 14 -30z m3157 38 c0 -5 -2 -10 -4 -10 -3 0 -8 5 -11 10 -3 6 -1 10 4 10
6 0 11 -4 11 -10z m-313 -22 c18 -13 33 -28 33 -34 0 -6 8 -18 18 -26 21 -19
131 -61 155 -59 46 4 66 3 115 -4 28 -4 52 -12 52 -16 0 -5 -5 -9 -11 -9 -15
0 -40 -66 -32 -86 5 -14 1 -15 -28 -9 -36 8 -59 22 -59 36 0 5 7 9 15 9 18 0
20 16 3 23 -8 3 -6 6 5 6 9 1 17 5 17 9 0 20 -62 -2 -81 -29 -33 -46 -70 -36
-177 51 -35 29 -90 160 -66 160 4 0 23 -10 41 -22z m-3327 -5 c0 -9 10 -28 23
-41 l22 -24 -25 11 c-14 5 -47 13 -75 17 -39 5 -45 8 -30 14 12 4 27 15 34 24
18 21 51 21 51 -1z m3475 -31 c-6 -7 -45 19 -45 29 0 5 11 2 24 -8 13 -10 23
-19 21 -21z m169 9 c6 -10 -33 -23 -46 -15 -4 3 -8 9 -8 15 0 12 47 12 54 0z
m-522 -7 c24 -4 43 -15 53 -30 15 -23 15 -23 -9 -12 -19 8 -32 8 -56 -2 -53
-22 -41 -35 56 -55 37 -8 74 -21 83 -30 12 -12 3 -11 -47 6 -46 15 -69 18 -89
12 -48 -16 -34 -37 37 -54 65 -15 116 -37 107 -45 -2 -2 -30 5 -62 16 -67 23
-104 25 -128 8 -24 -19 -9 -33 48 -47 28 -7 77 -25 110 -41 33 -15 79 -36 103
-45 23 -10 42 -21 42 -26 0 -12 -3 -11 -36 6 -16 8 -37 15 -46 15 -9 0 -29 11
-43 24 -36 34 -146 57 -189 40 -27 -10 -18 -23 27 -34 23 -6 77 -29 119 -51
42 -21 83 -39 90 -39 28 -1 51 -28 44 -53 -5 -20 -16 -27 -58 -37 -66 -16
-125 -44 -161 -78 -25 -24 -30 -25 -59 -14 -23 8 -35 9 -45 1 -7 -6 -13 -8
-13 -4 0 4 -7 2 -15 -5 -24 -20 -18 -46 16 -60 20 -9 27 -16 20 -23 -7 -7 -18
-7 -35 1 -42 19 -50 97 -11 97 15 0 19 6 17 23 -2 20 1 22 20 17 13 -4 27 -11
33 -16 5 -5 24 -9 42 -9 34 0 43 18 24 48 -11 19 -83 27 -110 13 -19 -11 -22
-8 -37 29 -20 50 -49 53 -98 10 -29 -25 -35 -28 -40 -14 -4 10 -14 14 -25 11
-16 -4 -19 0 -17 21 3 23 8 26 41 28 45 1 70 26 54 55 -5 11 -18 19 -28 19
-17 0 -17 4 -7 43 6 23 28 74 48 112 21 39 47 91 58 116 18 39 26 46 52 47 16
0 33 3 36 6 7 8 37 7 84 0z m-761 -121 c2 -34 -3 -48 -27 -73 -19 -19 -28 -23
-41 -14 -20 13 -30 36 -13 32 7 -2 15 3 18 11 3 10 -1 13 -17 8 -25 -6 -28 14
-5 37 22 23 84 21 85 -1z m1454 3 c19 -13 18 -14 -6 -9 -18 3 -35 -3 -57 -22
-31 -26 -32 -26 -32 -6 0 12 8 24 18 27 9 3 24 9 32 14 21 12 24 12 45 -4z
m-491 -127 c20 -12 36 -22 36 -24 0 -6 -72 23 -82 33 -20 20 7 14 46 -9z m86
-39 c0 -5 -7 -7 -15 -4 -8 4 -15 8 -15 10 0 2 7 4 15 4 8 0 15 -4 15 -10z
m190 -20 c0 -5 -6 -10 -14 -10 -20 0 -66 -40 -76 -66 -5 -13 -14 -24 -20 -24
-12 0 -8 8 23 53 15 22 49 45 85 56 1 1 2 -3 2 -9z m-1223 -130 c9 -25 24 -57
34 -72 17 -24 18 -35 10 -109 -6 -56 -6 -90 2 -106 8 -19 6 -32 -11 -67 -12
-24 -22 -51 -22 -61 0 -17 -1 -17 -20 0 -27 24 -90 151 -90 181 0 14 -7 41
-16 62 -8 20 -17 60 -19 87 -3 49 -3 50 48 93 28 23 55 41 60 39 5 -1 16 -23
24 -47z m362 18 c-2 -2 -17 -14 -34 -28 l-30 -25 20 25 c24 29 38 41 44 34 2
-2 2 -5 0 -6z m771 -34 c0 -8 -4 -12 -10 -9 -5 3 -10 10 -10 16 0 5 5 9 10 9
6 0 10 -7 10 -16z m-638 -112 c20 -42 48 -88 62 -101 29 -28 33 -41 11 -41 -9
0 -15 9 -15 21 0 18 -4 21 -30 16 -28 -6 -29 -5 -20 19 11 27 -3 39 -37 32
-19 -3 -65 -85 -58 -105 2 -6 -3 -17 -11 -23 -11 -10 -14 -9 -14 8 0 12 5 24
10 27 6 4 10 12 9 18 -3 19 12 50 43 85 15 18 28 37 28 42 0 19 -41 10 -65
-15 -35 -34 -31 -17 6 28 26 32 28 37 12 37 -33 0 -120 -108 -109 -135 3 -9
-9 -23 -30 -35 -39 -25 -43 -50 -15 -95 38 -62 57 -74 106 -70 56 5 64 10 59
38 -2 12 -1 15 2 7 14 -33 38 -49 83 -56 25 -4 39 -9 31 -12 -8 -3 -28 -14
-45 -26 -38 -26 -62 -25 -162 9 -72 25 -80 29 -67 43 14 13 11 20 -28 59 -42
42 -43 46 -43 108 0 67 4 75 25 50 16 -19 22 -19 51 5 43 35 69 64 69 77 0 7
7 13 15 13 8 0 15 4 15 10 0 10 48 39 65 39 6 1 27 -34 47 -77z m588 52 c30
-7 21 -10 -60 -14 -76 -5 -106 -11 -153 -34 -62 -30 -74 -45 -61 -73 4 -10 8
-27 8 -38 1 -27 40 -31 64 -7 18 18 56 33 92 37 9 1 26 7 37 14 15 7 24 8 28
1 12 -19 -15 -37 -62 -43 -33 -3 -52 -11 -62 -26 -11 -17 -24 -21 -70 -21 -63
0 -108 -22 -81 -39 8 -5 18 -7 22 -5 4 3 5 -2 2 -10 -9 -22 -31 -20 -44 4 -6
11 -17 20 -25 20 -29 0 -66 -24 -71 -47 -7 -24 -16 -27 -77 -17 -41 7 -67 38
-48 57 8 8 14 8 23 -1 21 -21 48 -13 66 17 21 37 40 42 81 25 49 -21 92 6 90
56 -2 53 2 66 32 98 19 20 40 32 57 33 15 0 43 6 62 12 39 14 97 14 150 1z
m103 -31 c-3 -10 -13 -27 -22 -38 -10 -11 -23 -32 -31 -47 -18 -36 -24 -30 -8
8 12 27 58 94 65 94 1 0 0 -8 -4 -17z m-3776 -9 c-3 -3 -12 -4 -19 -1 -8 3 -5
6 6 6 11 1 17 -2 13 -5z m-50 -10 c-3 -3 -12 -4 -19 -1 -8 3 -5 6 6 6 11 1 17
-2 13 -5z m3703 -12 c0 -11 -108 -33 -142 -30 -48 4 -13 20 63 28 41 4 75 8
77 9 1 0 2 -3 2 -7z m-3650 -32 c-14 -4 -38 -8 -55 -8 -29 0 -29 0 -5 8 14 4
39 8 55 8 29 0 29 0 5 -8z m88 3 c-10 -2 -26 -2 -35 0 -10 3 -2 5 17 5 19 0
27 -2 18 -5z m2342 -81 c25 -77 25 -78 4 -68 -17 8 -21 19 -20 54 0 35 -4 47
-23 61 -22 17 -19 26 9 30 3 1 16 -34 30 -77z m1410 74 c0 -3 -4 -8 -10 -11
-5 -3 -10 -1 -10 4 0 6 5 11 10 11 6 0 10 -2 10 -4z m80 -6 c0 -5 -5 -10 -11
-10 -5 0 -7 5 -4 10 3 6 8 10 11 10 2 0 4 -4 4 -10z m-3707 -17 c-7 -2 -19 -2
-25 0 -7 3 -2 5 12 5 14 0 19 -2 13 -5z m-206 -33 c-14 -11 -36 -20 -49 -20
l-23 1 24 19 c13 11 35 20 48 20 l26 0 -26 -20z m3693 -10 c0 -5 -5 -10 -11
-10 -5 0 -7 5 -4 10 3 6 8 10 11 10 2 0 4 -4 4 -10z m-1340 -20 c6 -11 8 -25
5 -30 -11 -18 5 -49 32 -62 22 -11 81 -98 83 -120 0 -17 -27 -6 -63 23 -28 23
-41 29 -50 20 -8 -8 -5 -17 13 -36 21 -23 22 -25 5 -31 -13 -5 -25 1 -42 22
-27 34 -29 51 -7 82 19 28 12 52 -16 52 -26 0 -25 7 2 29 24 20 17 41 -15 41
-22 1 -22 1 -3 15 27 20 43 19 56 -5z m-2253 -6 c-3 -3 -12 -4 -19 -1 -8 3 -5
6 6 6 11 1 17 -2 13 -5z m3733 -10 c0 -8 -4 -12 -10 -9 -5 3 -10 10 -10 16 0
5 5 9 10 9 6 0 10 -7 10 -16z m158 -3 c3 -8 -1 -12 -9 -9 -7 2 -15 10 -17 17
-3 8 1 12 9 9 7 -2 15 -10 17 -17z m-1753 -41 c-1 -17 -7 -36 -13 -42 -7 -7
-12 -20 -12 -30 0 -21 30 -24 48 -6 18 18 23 5 12 -30 -7 -25 -5 -40 8 -62 9
-17 22 -30 27 -30 6 0 19 -8 30 -16 20 -15 20 -16 -10 -40 -16 -13 -35 -24
-41 -24 -20 0 -62 56 -75 100 -7 25 -15 50 -19 55 -12 18 -37 100 -38 121 0
16 4 20 16 17 13 -3 55 7 68 16 0 1 0 -13 -1 -29z m1674 6 c-22 -21 -69 -29
-69 -13 0 20 12 28 25 17 14 -12 45 -3 45 13 0 6 3 7 7 3 4 -3 0 -13 -8 -20z
m41 -15 c0 -5 -9 -11 -21 -14 -16 -4 -18 -3 -8 9 13 16 29 19 29 5z m70 5 c0
-11 -19 -15 -25 -6 -3 5 1 10 9 10 9 0 16 -2 16 -4z m-3530 -16 c0 -5 -9 -10
-20 -10 -11 0 -20 5 -20 10 0 6 9 10 20 10 11 0 20 -4 20 -10z m3257 -30 c-6
-11 -18 -20 -25 -20 -13 0 -10 11 11 37 15 20 28 4 14 -17z m-3891 -77 c-19
-38 -40 -81 -47 -98 -6 -16 -13 -25 -16 -18 -2 6 3 25 12 42 8 17 17 51 19 76
6 56 11 65 42 65 l24 0 -34 -67z m2648 43 c3 -14 17 -38 31 -54 23 -28 25 -54
1 -29 -13 14 -56 92 -56 101 0 17 19 3 24 -18z m1290 -6 c16 -32 3 -42 -14
-11 -10 20 -13 41 -6 41 3 0 11 -13 20 -30z m-1018 -35 c-14 -13 -26 -29 -26
-35 0 -19 -3 -25 -37 -79 -36 -55 -75 -129 -208 -389 -89 -174 -102 -197 -126
-223 -9 -9 -21 -24 -26 -33 -7 -12 -15 -15 -31 -9 -22 8 -22 9 -3 25 11 9 22
14 25 12 3 -2 4 -1 2 2 -2 3 9 31 25 62 16 31 29 63 29 70 0 6 4 12 9 12 4 0
19 24 32 53 46 100 137 276 166 319 16 24 46 78 67 121 21 42 42 80 47 82 4 3
10 19 14 35 6 30 7 30 37 14 l30 -15 -26 -24z m614 -5 c17 -15 19 -18 5 -11
-31 17 -65 48 -65 61 0 7 8 3 18 -8 9 -12 28 -31 42 -42z m225 50 c3 -6 -1 -7
-9 -4 -18 7 -21 14 -7 14 6 0 13 -4 16 -10z m-3636 -57 l14 -37 -69 -63 c-38
-34 -75 -63 -81 -63 -8 0 -4 9 8 21 11 11 35 51 53 87 52 109 55 111 75 55z
m3771 7 c0 -5 -4 -10 -10 -10 -5 0 -10 5 -10 10 0 6 5 10 10 10 6 0 10 -4 10
-10z m-2440 -21 c0 -5 -4 -9 -10 -9 -5 0 -10 7 -10 16 0 8 5 12 10 9 6 -3 10
-10 10 -16z m-1206 -48 c5 -8 -55 -51 -71 -51 -4 0 6 14 22 30 30 32 40 36 49
21z m1714 -8 c-4 -22 -22 -20 -26 1 -2 10 3 16 13 16 10 0 15 -7 13 -17z
m1528 2 c8 -21 -14 -45 -40 -45 -12 0 -27 -5 -34 -12 -7 -7 -12 -9 -12 -5 0
12 25 62 35 69 17 13 45 9 51 -7z m81 -7 c-3 -8 -6 -5 -6 6 -1 11 2 17 5 13 3
-3 4 -12 1 -19z m-2067 -35 c0 -28 8 -42 35 -67 49 -46 44 -55 -7 -12 -23 20
-50 36 -61 36 -14 0 -17 4 -12 18 4 9 12 29 17 44 13 36 28 26 28 -19z m-1060
27 c-8 -5 -19 -10 -25 -10 -5 0 -3 5 5 10 8 5 20 10 25 10 6 0 3 -5 -5 -10z
m2202 -10 c15 0 15 -5 -5 -50 l-22 -51 -54 6 c-84 10 -85 12 -43 61 34 40 40
44 72 39 19 -2 43 -5 52 -5z m310 2 c7 -17 77 -52 92 -46 9 3 16 9 16 13 0 4
23 1 50 -8 59 -18 66 -34 13 -25 -25 3 -44 1 -57 -9 -19 -14 -19 -15 2 -26 26
-14 29 -53 6 -72 -8 -7 -24 -29 -34 -48 -10 -20 -34 -52 -54 -71 -19 -19 -36
-41 -36 -47 0 -16 -6 -16 -30 -3 -14 8 -27 6 -49 -8 l-31 -19 24 -32 24 -33
-44 -58 c-24 -32 -44 -63 -44 -69 0 -6 -4 -11 -8 -11 -5 0 -34 -38 -66 -85
-34 -50 -65 -85 -75 -85 -9 0 -27 -7 -39 -16 -21 -15 -22 -17 -7 -34 14 -16
14 -19 -5 -41 -14 -17 -22 -21 -28 -12 -4 7 -24 19 -45 28 -37 15 -50 35 -23
35 20 0 27 14 32 59 2 25 21 65 56 117 29 43 73 117 97 164 69 133 170 322
213 398 28 49 42 62 50 44z m645 -24 c-3 -8 -6 -5 -6 6 -1 11 2 17 5 13 3 -3
4 -12 1 -19z m-1547 3 c0 -5 -7 -11 -15 -15 -15 -5 -20 5 -8 17 9 10 23 9 23
-2z m1222 -23 c-7 -7 -12 -24 -12 -39 0 -15 -4 -39 -10 -53 -6 -17 -6 -26 0
-26 6 0 10 -12 10 -27 l0 -28 -24 25 c-18 19 -23 32 -19 53 3 15 12 27 20 27
11 0 13 7 8 31 -5 22 -3 34 6 40 21 13 35 11 21 -3z m95 -10 c-3 -8 -6 -5 -6
6 -1 11 2 17 5 13 3 -3 4 -12 1 -19z m-1505 -54 c-4 -36 -1 -44 18 -54 12 -7
33 -10 46 -7 20 3 22 1 13 -14 -9 -17 -13 -17 -60 12 -53 33 -105 109 -74 109
8 0 15 4 15 9 0 5 11 4 24 -2 20 -10 22 -16 18 -53z m1698 11 c-7 -8 -16 -12
-22 -9 -5 3 -15 0 -23 -6 -23 -19 -18 -2 12 37 26 34 28 34 37 14 6 -14 5 -25
-4 -36z m-1530 15 c19 -16 41 -29 48 -30 21 0 13 -27 -10 -34 -33 -9 -36 -8
-42 12 -3 10 -20 23 -37 29 -27 10 -29 14 -19 32 14 27 19 27 60 -9z m1962
-27 c-6 -21 -14 -56 -16 -78 -3 -22 -10 -62 -17 -90 -6 -27 -12 -57 -14 -65
-7 -42 -29 -111 -36 -116 -5 -3 -9 -13 -9 -22 -1 -9 -9 -35 -20 -57 -11 -22
-19 -46 -20 -52 0 -19 -30 -16 -30 3 0 9 8 33 19 53 10 20 24 54 30 76 7 22
19 54 26 70 7 17 15 44 18 60 3 17 10 43 16 58 6 15 13 47 16 70 6 43 23 116
32 130 12 20 15 -6 5 -40z m-271 5 c3 -51 -3 -121 -17 -185 -3 -16 -7 -37 -8
-49 -1 -11 -5 -24 -8 -30 -5 -8 -18 -68 -23 -99 -6 -50 -19 -85 -31 -85 -15 0
-11 49 7 97 5 14 9 37 9 53 0 16 5 32 10 35 6 4 8 10 6 14 -3 4 1 34 9 67 8
32 15 82 15 109 0 58 9 95 21 95 5 0 10 -10 10 -22z m205 0 c-3 -13 -12 -62
-21 -109 -8 -47 -27 -119 -41 -160 -14 -41 -27 -78 -28 -84 -2 -5 -10 -27 -19
-49 -9 -21 -17 -44 -17 -51 0 -19 -25 -36 -44 -29 -9 3 -14 10 -11 14 3 4 7
25 10 46 3 22 14 64 25 94 11 30 20 71 20 90 0 19 5 53 10 76 5 22 12 59 14
81 9 71 22 91 58 96 18 2 36 5 41 5 4 1 5 -8 3 -20z m124 -8 c0 -11 -4 -20 -9
-20 -5 0 -7 9 -4 20 3 11 7 20 9 20 2 0 4 -9 4 -20z m-2628 -12 c-19 -19 -14
-36 25 -78 25 -28 33 -44 26 -51 -7 -7 -17 -1 -32 20 -14 20 -31 31 -46 31
-38 0 -37 -14 2 -59 28 -33 33 -45 23 -54 -9 -9 -16 -6 -28 13 -10 14 -27 34
-39 46 l-22 20 46 68 c25 37 48 65 51 61 3 -3 0 -11 -6 -17z m2099 -25 c-12
-20 -14 -14 -5 12 4 9 9 14 11 11 3 -2 0 -13 -6 -23z m-1984 -7 c1 -1 -1 -14
-4 -29 l-6 -28 -28 27 c-16 15 -29 31 -29 36 0 6 56 1 67 -6z m2246 -27 c-8
-29 -13 -23 -13 14 0 22 3 28 9 18 5 -7 6 -22 4 -32z m-1574 -9 l44 -40 -29 0
c-30 0 -98 21 -110 33 -4 4 4 7 19 7 32 0 43 15 20 29 -14 8 -15 10 -3 10 8 0
35 -18 59 -39z m937 23 c-5 -11 2 -24 21 -39 19 -16 23 -23 13 -24 -9 0 -21 5
-26 10 -12 12 -44 3 -44 -11 0 -5 -5 -9 -11 -9 -7 0 -5 9 5 23 9 12 21 32 26
45 11 25 25 31 16 5z m482 -101 c-7 -39 -16 -72 -21 -72 -5 0 -7 6 -4 14 3 7
8 35 12 62 7 56 14 79 20 73 2 -3 -1 -37 -7 -77z m-279 51 c-3 -35 1 -48 24
-75 28 -32 29 -71 1 -77 -27 -5 -32 -17 -40 -88 -5 -47 -11 -66 -25 -74 -11
-5 -19 -6 -19 -2 1 10 19 91 26 114 6 22 -24 33 -44 17 -8 -7 -31 -13 -51 -13
-29 0 -36 -4 -34 -18 1 -13 -4 -17 -14 -12 -22 8 -61 -20 -66 -47 -3 -18 -5
-16 -6 8 -1 33 24 60 111 122 21 15 38 31 38 35 0 5 14 20 31 35 18 14 38 41
45 59 15 36 26 43 23 16z m418 -35 c-3 -7 -5 -2 -5 12 0 14 2 19 5 13 2 -7 2
-19 0 -25z m-205 10 c3 -7 2 -23 0 -36 l-4 -23 -14 27 c-14 26 -11 44 6 44 4
0 10 -5 12 -12z m-437 -33 c32 -27 29 -33 -6 -12 -17 10 -23 10 -26 0 -3 -7
-13 -13 -22 -13 -21 0 -46 -43 -36 -61 5 -8 4 -10 -3 -5 -14 8 -61 -23 -62
-41 0 -6 6 -14 13 -16 6 -3 3 -6 -8 -6 -12 -1 -27 -7 -35 -13 -7 -7 -5 1 5 17
36 59 132 175 144 175 3 -1 20 -12 36 -25z m-1785 -41 c26 -37 30 -48 19 -55
-9 -5 -25 3 -50 29 -33 34 -35 39 -21 55 8 9 16 17 17 17 1 0 16 -21 35 -46z
m2415 -23 c-7 -25 -17 -64 -21 -86 -4 -22 -8 -42 -9 -45 -1 -3 -5 -22 -9 -43
-5 -20 -12 -39 -16 -42 -4 -2 -1 23 7 58 8 34 22 99 31 144 9 45 19 77 23 71
4 -6 1 -32 -6 -57z m-565 19 c0 -5 -4 -10 -10 -10 -5 0 -10 5 -10 10 0 6 5 10
10 10 6 0 10 -4 10 -10z m-1890 -103 c0 -6 -12 1 -26 16 -14 16 -32 26 -40 23
-17 -7 -18 6 -1 23 10 10 17 6 40 -19 15 -16 27 -36 27 -43z m2320 65 c0 -5
-7 -17 -16 -28 -14 -17 -15 -17 -10 -1 3 10 6 23 6 28 0 5 5 9 10 9 6 0 10 -4
10 -8z m-135 -68 c-4 -32 -9 -43 -15 -34 -5 8 -4 22 1 31 5 10 9 28 9 40 0 12
3 20 6 16 4 -3 3 -27 -1 -53z m501 14 c-13 -67 -48 -168 -58 -168 -6 0 -8 8
-5 18 31 92 63 182 66 182 2 0 1 -15 -3 -32z m-891 12 c-3 -5 -10 -10 -16 -10
-5 0 -9 5 -9 10 0 6 7 10 16 10 8 0 12 -4 9 -10z m331 -7 c-3 -10 -8 -38 -11
-62 -7 -53 -14 -66 -27 -53 -15 15 11 132 29 132 9 0 12 -6 9 -17z m-2187 -68
c-7 -7 -15 -4 -24 9 -8 11 -21 16 -30 13 -13 -6 -13 -3 2 20 l17 25 23 -28
c15 -20 19 -32 12 -39z m2345 -15 c-10 -27 -21 -47 -26 -44 -4 3 -1 18 7 34 8
16 15 40 15 53 0 29 14 45 18 22 2 -9 -4 -38 -14 -65z m-548 32 c-4 -3 -14 2
-24 12 -16 18 -16 18 6 6 13 -6 21 -14 18 -18z m214 2 c-6 -14 -10 -39 -10
-55 0 -19 -5 -29 -15 -29 -8 0 -15 3 -15 8 0 17 35 102 42 102 4 0 3 -12 -2
-26z m-2062 -83 c-7 -9 -14 -18 -15 -20 -2 -3 -10 5 -19 17 -17 24 -49 29 -57
9 -6 -16 16 -47 34 -47 10 -1 8 -5 -5 -15 -27 -21 -35 -19 -48 10 -13 28 -45
33 -55 8 -4 -10 2 -23 15 -34 12 -9 22 -23 22 -30 0 -7 -13 -1 -28 14 -25 24
-30 26 -47 13 -19 -14 -19 -15 -2 -33 21 -24 22 -37 1 -54 -13 -11 -17 -10
-25 4 -6 9 -16 17 -23 17 -20 0 -28 -28 -14 -50 18 -28 1 -38 -18 -11 -22 31
-48 10 -39 -31 7 -31 -8 -39 -23 -11 -15 26 -46 9 -38 -22 4 -17 2 -25 -6 -25
-7 0 -25 -12 -40 -28 -48 -49 -62 -62 -101 -93 -41 -35 -37 -36 -98 23 -16 15
-15 16 9 21 17 3 30 0 35 -9 10 -18 46 -18 53 1 3 7 -6 29 -20 48 -14 19 -26
39 -26 45 0 23 17 12 36 -23 20 -37 35 -43 52 -22 9 10 5 22 -13 50 -29 42
-34 74 -6 38 12 -16 24 -22 35 -18 18 7 22 32 6 42 -10 6 -14 55 -4 55 3 0 12
-7 20 -15 16 -16 44 -10 44 10 0 7 -10 20 -22 29 -16 12 -18 16 -6 12 20 -6
83 18 93 35 4 6 26 19 49 29 22 10 54 30 70 44 19 17 33 23 39 17 7 -7 17 -6
29 0 15 8 17 14 8 24 -15 17 -1 25 52 30 22 2 46 9 51 14 7 7 18 0 33 -21 19
-25 21 -34 12 -47z m1222 13 c0 -25 -18 -15 -31 19 -7 17 -15 37 -17 42 -3 6
7 -3 22 -18 14 -15 26 -35 26 -43z m539 42 l22 -23 -24 4 c-31 6 -55 -21 -37
-42 15 -18 1 -19 -22 -1 -16 12 -15 15 9 49 14 20 27 37 28 37 1 0 12 -11 24
-24z m523 -21 c3 -13 1 -22 -3 -19 -9 5 -13 44 -5 44 2 0 6 -11 8 -25z m-435
-27 c-3 -8 -6 -5 -6 6 -1 11 2 17 5 13 3 -3 4 -12 1 -19z m-187 -82 c0 -5 -7
-3 -15 4 -8 7 -12 17 -9 22 7 10 24 -9 24 -26z m1070 14 c0 -5 -2 -10 -4 -10
-3 0 -8 5 -11 10 -3 6 -1 10 4 10 6 0 11 -4 11 -10z m-1518 -92 c2 -18 9 -23
31 -23 32 1 33 -2 10 -27 -15 -16 -15 -22 -4 -40 9 -14 10 -27 3 -42 -5 -11
-19 -72 -31 -134 -12 -62 -25 -121 -30 -130 -5 -9 -14 -35 -20 -57 -16 -60
-25 -69 -49 -56 -11 6 -30 11 -41 11 -25 0 -26 6 -7 25 7 8 30 65 50 127 27
86 35 129 35 181 -1 66 -2 69 -32 88 -51 31 -100 25 -147 -17 -46 -41 -70 -85
-70 -126 0 -18 -5 -28 -15 -28 -34 0 3 107 60 170 9 10 15 25 13 32 -5 15 29
51 36 39 3 -5 34 -11 68 -14 35 -3 73 -9 86 -13 19 -5 22 -3 22 18 0 41 26 54
32 16z m406 10 c-3 -7 -14 -13 -25 -14 -11 -1 -27 -5 -34 -9 -8 -5 -5 1 5 13
20 24 60 30 54 10z m-75 -65 c4 -3 -1 -12 -11 -19 -25 -20 -34 -17 -20 6 13
21 21 24 31 13z m-49 -121 c-10 -15 -26 -43 -36 -62 -18 -33 -19 -33 -13 -6 5
21 0 35 -16 52 -12 13 -21 24 -18 25 30 5 41 8 43 11 1 2 10 16 21 33 l18 30
10 -28 c7 -21 5 -34 -9 -55z m-434 53 c31 -11 33 -14 15 -21 -11 -4 -33 -18
-49 -31 -40 -33 -56 -16 -30 32 10 19 21 35 24 34 3 0 21 -6 40 -14z m306
-107 c13 -14 22 -37 22 -61 2 -45 16 -74 41 -82 16 -5 18 -14 15 -55 -2 -28 1
-50 6 -50 21 0 9 -26 -20 -42 l-29 -17 -18 40 c-9 21 -21 39 -26 39 -4 0 -5 6
-1 13 4 6 4 9 -1 5 -4 -4 -17 -2 -29 4 -11 7 -35 14 -52 17 l-31 6 15 35 c8
19 16 46 18 60 2 14 8 43 15 65 6 22 13 46 15 53 5 16 30 4 60 -30z m-273 -9
c-3 -23 -16 -74 -29 -113 l-22 -71 -39 -1 c-138 -6 -244 -41 -357 -118 -36
-25 -66 -42 -66 -38 0 5 24 33 53 63 29 29 66 70 82 89 37 43 129 99 210 129
33 12 83 39 110 61 28 21 53 39 57 39 3 1 4 -18 1 -40z m-1769 -10 c-3 -6 9
-26 27 -45 24 -25 30 -37 22 -45 -8 -8 -21 0 -46 27 -30 33 -37 36 -51 25 -22
-19 -20 -31 11 -63 22 -23 24 -31 14 -41 -10 -10 -19 -5 -42 23 -29 34 -31 34
-45 16 -18 -26 -18 -29 6 -51 24 -21 26 -41 5 -49 -8 -3 -15 -2 -15 2 0 4 -13
21 -30 39 l-29 31 87 71 c91 73 97 78 86 60z m-162 -231 c10 -14 10 -20 1 -29
-10 -10 -17 -8 -34 7 -36 33 -43 53 -23 75 17 19 18 19 31 -8 7 -16 18 -36 25
-45z m1886 -13 c3 -3 -11 -5 -31 -5 -20 0 -39 5 -42 10 -6 10 63 6 73 -5z
m-1973 -25 c23 -24 35 -30 54 -25 21 5 23 4 12 -9 -26 -31 -51 -30 -86 4 l-33
32 -31 -21 c-36 -26 -39 -43 -11 -78 27 -35 25 -48 -10 -73 -25 -18 -30 -19
-30 -6 0 9 6 16 14 16 25 0 28 19 7 46 -12 15 -21 35 -21 44 0 17 81 100 98
100 4 0 21 -14 37 -30z m-30 -81 c11 -17 -1 -21 -15 -4 -8 9 -8 15 -2 15 6 0
14 -5 17 -11z m-135 -13 c0 -3 -4 -8 -10 -11 -5 -3 -10 -1 -10 4 0 6 5 11 10
11 6 0 10 -2 10 -4z m25 -26 c3 -5 1 -10 -4 -10 -6 0 -11 5 -11 10 0 6 2 10 4
10 3 0 8 -4 11 -10z m-53 -55 c11 -14 27 -25 36 -25 12 0 13 -3 4 -12 -9 -9
-16 -7 -33 8 -23 21 -43 54 -33 54 3 0 15 -11 26 -25z m-44 -45 c26 -34 27
-40 8 -40 -16 0 -46 37 -46 57 0 21 15 15 38 -17z m-62 -42 c26 -25 30 -38 12
-38 -16 0 -48 31 -48 47 0 19 9 16 36 -9z m-90 -83 c7 -13 9 -26 6 -29 -7 -7
-31 25 -32 42 0 20 14 13 26 -13z m-83 -65 c3 -13 0 -20 -8 -20 -17 0 -28 17
-20 30 10 16 22 12 28 -10z m-73 -25 c0 -8 -4 -15 -10 -15 -5 0 -10 7 -10 15
0 8 5 15 10 15 6 0 10 -7 10 -15z m-70 -31 c0 -9 -5 -14 -12 -12 -18 6 -21 28
-4 28 9 0 16 -7 16 -16z m-75 -14 c3 -5 1 -10 -4 -10 -6 0 -11 5 -11 10 0 6 2
10 4 10 3 0 8 -4 11 -10z m-172 -61 c-15 -15 -27 -19 -43 -14 -21 7 -20 8 16
25 47 21 55 17 27 -11z m68 -2 c-13 -13 -26 -3 -16 12 3 6 11 8 17 5 6 -4 6
-10 -1 -17z m-46 -57 c-3 -5 -11 -10 -16 -10 -6 0 -7 5 -4 10 3 6 11 10 16 10
6 0 7 -4 4 -10z m4735 -65 c0 -17 -2 -18 -24 -9 -23 9 -20 24 4 24 11 0 20 -7
20 -15z m-15 -96 c11 -17 -1 -21 -37 -14 -29 7 -30 9 -13 16 29 11 43 11 50
-2z m-902 -66 c-7 -2 -19 -2 -25 0 -7 3 -2 5 12 5 14 0 19 -2 13 -5z m-143
-58 c-7 -8 -17 -15 -22 -15 -6 0 -5 7 2 15 7 8 17 15 22 15 6 0 5 -7 -2 -15z
m-60 -33 c0 -15 -83 -50 -135 -57 -28 -4 -46 -4 -42 1 5 5 22 9 39 10 17 1 33
6 37 11 5 8 76 40 94 42 4 1 7 -3 7 -7z m-205 -62 c-3 -5 -18 -9 -33 -9 l-27
1 30 8 c17 4 31 8 33 9 2 0 0 -3 -3 -9z m-455 -10 c0 -5 -5 -10 -11 -10 -5 0
-7 5 -4 10 3 6 8 10 11 10 2 0 4 -4 4 -10z m305 0 c3 -6 -4 -10 -17 -10 -18 0
-20 2 -8 10 19 12 18 12 25 0z m68 3 c-7 -2 -21 -2 -30 0 -10 3 -4 5 12 5 17
0 24 -2 18 -5z m-118 -13 c-3 -5 -12 -10 -20 -10 -8 0 -17 5 -20 10 -4 6 5 10
20 10 15 0 24 -4 20 -10z m-3285 -10 c0 -5 -2 -10 -4 -10 -3 0 -8 5 -11 10 -3
6 -1 10 4 10 6 0 11 -4 11 -10z M1074 7155 c-9 -23 16 -47 36 -35 11 7 12 14
4 27 -15 24 -33 28 -40 8z M3633 6414 c-6 -17 12 -34 36 -34 8 0 11 6 7 16 -3
9 -6 20 -6 25 0 16 -30 10 -37 -7z M4094 5896 c-15 -12 -17 -18 -8 -33 12 -19
15 -20 129 -48 83 -21 115 -22 126 -3 12 19 -10 32 -88 52 -38 9 -81 23 -96
31 -35 18 -39 18 -63 1z M4055 5786 c-16 -11 -17 -17 -8 -27 15 -15 102 -20
125 -8 29 15 22 39 -11 39 -16 0 -41 3 -57 6 -18 3 -37 0 -49 -10z M3850 5575
c-8 -9 -8 -15 -2 -15 12 0 26 19 19 26 -2 2 -10 -2 -17 -11z M3830 5531 c0
-11 31 -24 39 -16 3 3 -1 10 -9 15 -19 12 -30 12 -30 1z M3730 4600 c0 -5 5
-10 11 -10 5 0 7 5 4 10 -3 6 -8 10 -11 10 -2 0 -4 -4 -4 -10z M3585 4120 c-3
-5 1 -10 9 -10 9 0 16 5 16 10 0 6 -4 10 -9 10 -6 0 -13 -4 -16 -10z M3523
4003 c-18 -7 -16 -33 2 -33 8 0 19 9 25 20 11 21 2 25 -27 13z M3138 3710
c-21 -4 -47 -15 -58 -25 -10 -9 -34 -20 -52 -24 -22 -5 -33 -13 -32 -24 1 -13
-6 -17 -30 -17 -65 0 -115 -67 -95 -127 21 -64 103 -95 156 -58 15 10 23 11
25 4 7 -20 43 0 74 41 18 24 37 40 50 40 31 0 40 18 38 75 0 28 3 53 7 56 12
7 -13 57 -31 62 -8 1 -32 0 -52 -3z m41 -76 c-5 -6 -6 -14 -3 -17 4 -3 -10
-14 -30 -23 -27 -13 -39 -15 -47 -7 -17 17 -4 42 19 37 20 -6 47 19 38 35 -4
6 -13 8 -21 4 -18 -6 -19 3 -2 22 10 11 16 9 34 -13 13 -17 18 -31 12 -38z
m-148 -64 c26 14 37 -13 15 -35 -9 -9 -19 -27 -22 -41 -12 -46 -92 -20 -101
34 -4 26 36 52 65 41 15 -6 31 -5 43 1z m99 -30 c12 -8 11 -10 -7 -10 -13 0
-23 5 -23 10 0 13 11 13 30 0z M2945 3549 c-4 -6 -5 -12 -3 -14 7 -7 48 7 48
16 0 13 -37 11 -45 -2z M3300 3680 c0 -5 5 -10 10 -10 6 0 10 5 10 10 0 6 -4
10 -10 10 -5 0 -10 -4 -10 -10z M2615 3460 c-10 -11 -23 -19 -29 -17 -6 3 -19
-2 -28 -11 -10 -8 -36 -14 -60 -14 -70 1 -132 -32 -75 -40 15 -2 21 -9 19 -21
-3 -14 2 -18 20 -15 13 2 22 9 21 16 -2 6 6 12 16 12 11 0 21 6 24 13 7 21 19
0 12 -22 -7 -22 -52 -51 -80 -51 -8 0 -20 11 -25 24 -12 33 -29 41 -47 23 -23
-22 2 -69 43 -80 18 -5 36 -19 42 -32 18 -39 122 -41 122 -1 0 9 8 12 24 9 19
-4 36 7 81 52 40 40 55 63 52 76 -3 11 -1 22 4 25 15 9 10 33 -11 54 -28 28
-100 28 -125 0z m41 -36 c-20 -19 -12 -34 16 -34 41 0 6 -15 -37 -16 -58 -2
-66 19 -17 44 47 24 58 26 38 6z m-16 -105 c0 -15 -4 -19 -16 -15 -9 3 -20 6
-26 6 -6 0 -6 6 2 15 18 22 40 18 40 -6z m-72 -26 c3 -22 -25 -40 -41 -24 -12
12 10 54 26 48 7 -2 13 -13 15 -24z M2836 3353 c-12 -12 -5 -23 14 -23 11 0
20 4 20 9 0 11 -26 22 -34 14z M2624 3221 c-42 -7 -82 -35 -65 -46 5 -3 29 2
53 10 24 9 51 19 61 22 19 6 23 24 5 22 -7 -1 -32 -5 -54 -8z M2350 3150 c0
-5 5 -10 11 -10 5 0 7 5 4 10 -3 6 -8 10 -11 10 -2 0 -4 -4 -4 -10z M4355
4340 c3 -5 8 -10 11 -10 2 0 4 5 4 10 0 6 -5 10 -11 10 -5 0 -7 -4 -4 -10z
M4367 4273 c-4 -3 -7 -11 -7 -17 0 -6 5 -5 12 2 6 6 9 14 7 17 -3 3 -9 2 -12
-2z M1380 4100 c0 -5 5 -10 11 -10 5 0 7 5 4 10 -3 6 -8 10 -11 10 -2 0 -4 -4
-4 -10z M1190 4016 c0 -2 7 -7 16 -10 8 -3 12 -2 9 4 -6 10 -25 14 -25 6z
M3987 3723 c-4 -3 -7 -11 -7 -17 0 -6 5 -5 12 2 6 6 9 14 7 17 -3 3 -9 2 -12
-2z M4093 3686 c-39 -19 -31 -26 46 -41 32 -7 91 -35 116 -55 21 -17 103 -40
120 -34 26 10 14 46 -20 57 -16 5 -41 18 -55 27 -32 22 -140 60 -166 59 -10
-1 -29 -6 -41 -13z M4083 3614 c-21 -9 -15 -21 20 -34 61 -24 96 -41 102 -50
3 -6 19 -10 36 -10 24 0 29 4 29 23 0 36 -50 66 -117 72 -32 3 -64 2 -70 -1z
M3300 1886 c0 -16 21 -56 30 -56 14 0 13 33 -2 48 -12 12 -28 16 -28 8z M3375
8720 c-11 -4 -33 -14 -50 -21 -16 -7 -33 -11 -38 -11 -4 1 -49 -16 -101 -38
-51 -22 -102 -40 -113 -40 -11 0 -28 -9 -39 -21 -18 -20 -18 -21 1 -35 10 -8
24 -14 29 -14 40 -1 -134 -63 -239 -85 -44 -9 -98 -24 -120 -34 -69 -31 -84
-34 -91 -16 -4 9 2 25 15 39 26 28 26 33 2 46 -27 14 -164 -31 -213 -70 -20
-17 -44 -30 -52 -30 -8 0 -27 -11 -43 -24 -27 -23 -27 -25 -10 -44 18 -20 18
-20 -40 -32 -112 -21 -198 -43 -208 -51 -5 -5 -16 -9 -25 -9 -22 0 -49 -31
-59 -66 -8 -33 -52 -49 -158 -60 -71 -8 -80 2 -28 30 66 36 34 68 -55 56 -71
-10 -90 -18 -355 -140 -33 -15 -71 -31 -85 -35 -29 -9 -50 -24 -50 -36 0 -12
57 -12 65 0 3 5 20 13 37 17 18 3 39 10 48 14 31 16 125 64 140 71 45 25 163
69 168 64 2 -2 -4 -14 -12 -28 -18 -26 -13 -54 13 -74 18 -14 37 -10 98 18 23
10 59 23 80 28 21 6 55 14 76 19 51 13 87 39 87 61 0 14 13 24 48 36 26 9 57
21 70 26 13 5 35 9 50 9 31 0 197 35 235 49 53 20 36 51 -28 53 l-38 1 24 20
c27 22 133 77 148 77 6 0 3 -13 -7 -29 -14 -25 -14 -31 -2 -46 23 -28 97 -14
321 63 262 90 279 97 279 122 0 12 -9 24 -21 28 -16 6 12 19 120 56 78 26 167
58 198 71 l58 24 -55 0 c-30 0 -64 -4 -75 -9z M4341 8699 c-11 -18 -17 -38
-14 -46 3 -8 -8 -29 -26 -47 -20 -21 -30 -40 -28 -54 8 -56 55 -52 53 5 -1 31
3 38 24 43 22 6 25 11 22 50 -2 29 3 49 14 61 16 18 16 19 -5 19 -13 0 -28
-12 -40 -31z M4588 8654 c-17 -17 -6 -24 35 -24 49 0 77 -22 77 -58 0 -16 6
-22 23 -22 27 -1 57 -22 57 -41 1 -17 24 -49 36 -49 5 0 15 4 22 8 20 13 -12
78 -47 96 -15 8 -42 32 -58 52 -26 33 -36 38 -84 42 -30 2 -57 0 -61 -4z
M4411 8231 c-16 -10 4 -23 54 -35 40 -10 55 -24 55 -52 0 -15 9 -27 28 -36 24
-12 27 -19 26 -59 0 -39 3 -45 17 -42 55 15 54 90 -1 118 -17 9 -30 24 -30 34
0 30 -39 57 -110 74 -14 3 -31 2 -39 -2z M4176 7935 c-20 -20 -21 -35 -2 -35
21 0 41 29 29 41 -7 7 -16 5 -27 -6z M4121 7894 c-18 -13 -22 -23 -18 -48 4
-25 0 -37 -19 -55 -19 -18 -22 -27 -14 -42 12 -21 27 -24 49 -10 12 8 12 12 2
25 -10 12 -8 18 14 32 18 11 24 22 19 33 -4 9 -6 31 -5 49 2 37 2 37 -28 16z
M83 7159 c-19 -6 -33 -16 -33 -25 0 -12 8 -14 45 -8 43 6 75 -5 75 -27 0 -4
-27 -24 -60 -44 -39 -24 -60 -43 -60 -55 0 -17 4 -16 48 7 71 40 122 82 122
103 0 25 -47 60 -79 59 -14 0 -41 -5 -58 -10z M4248 6340 c-32 -20 -19 -28 55
-32 68 -3 86 -9 208 -70 74 -37 145 -70 159 -74 14 -3 30 -11 36 -15 8 -6 14
-4 18 7 6 15 9 15 27 -4 11 -12 27 -22 35 -22 8 0 28 -7 44 -15 35 -18 62 -10
58 17 -4 24 -91 61 -124 53 -13 -3 -27 2 -34 10 -7 8 -31 20 -54 26 -22 6 -63
24 -90 41 -92 56 -154 78 -240 83 -51 4 -88 2 -98 -5z M4936 6281 c-4 -7 -5
-15 -2 -18 9 -9 19 4 14 18 -4 11 -6 11 -12 0z M4942 5480 c0 -19 2 -27 5 -17
2 9 2 25 0 35 -3 9 -5 1 -5 -18z M4605 4810 c3 -5 8 -10 11 -10 2 0 4 5 4 10
0 6 -5 10 -11 10 -5 0 -7 -4 -4 -10z M4573 4803 c-15 -5 -17 -23 -4 -23 5 0
11 7 15 15 3 8 4 15 3 14 -1 0 -8 -3 -14 -6z M4580 4740 c0 -5 5 -10 10 -10 6
0 10 5 10 10 0 6 -4 10 -10 10 -5 0 -10 -4 -10 -10z M4615 4710 c3 -5 8 -10
11 -10 2 0 4 5 4 10 0 6 -5 10 -11 10 -5 0 -7 -4 -4 -10z M110 4679 c0 -5 5
-7 10 -4 6 3 10 8 10 11 0 2 -4 4 -10 4 -5 0 -10 -5 -10 -11z M745 4070 c-3
-5 -1 -10 4 -10 6 0 11 5 11 10 0 6 -2 10 -4 10 -3 0 -8 -4 -11 -10z M190
3162 c-31 -4 -111 -32 -127 -45 -19 -14 -17 -87 2 -87 8 0 15 -7 15 -15 0 -8
6 -15 13 -15 7 -1 5 -6 -5 -14 -26 -19 -22 -34 10 -39 22 -3 20 -4 -10 -6
l-38 -1 0 -149 0 -149 33 8 c63 15 71 22 66 58 -1 4 -5 6 -11 4 -5 -1 -7 2 -3
8 3 5 12 10 20 10 15 0 24 19 18 37 -3 9 -17 11 -43 7 -36 -6 -38 -5 -33 14 3
12 8 21 12 20 3 -1 19 4 34 10 43 18 77 15 77 -6 0 -26 47 -65 57 -49 8 13
136 57 164 57 20 0 39 20 39 43 0 15 -6 18 -32 15 -28 -3 -33 0 -32 19 0 12
-3 20 -7 17 -4 -2 -10 0 -13 5 -3 4 -20 11 -38 15 -29 6 -30 7 -13 20 42 30
-28 48 -105 26 -27 -8 -36 -7 -43 5 -4 8 -15 15 -24 15 -9 0 -13 3 -10 6 3 4
34 6 68 5 53 -1 61 1 66 19 4 15 11 19 24 15 12 -4 23 1 31 14 7 12 20 21 30
21 9 0 19 4 22 8 11 18 -7 52 -30 58 -13 3 -24 10 -24 15 0 8 -101 9 -160 1z
M3180 2837 c0 -8 9 -22 20 -32 19 -17 22 -17 37 -2 13 13 14 19 3 31 -15 20
-60 21 -60 3z m30 -7 c0 -5 -4 -10 -10 -10 -5 0 -10 5 -10 10 0 6 5 10 10 10
6 0 10 -4 10 -10z M3154 2775 c-8 -19 3 -35 26 -35 19 0 34 25 24 41 -8 14
-44 10 -50 -6z M208 2553 c6 -2 18 -2 25 0 6 3 1 5 -13 5 -14 0 -19 -2 -12 -5z
M54 2493 c3 -32 5 -59 5 -60 3 -11 71 0 81 12 16 20 -5 49 -31 42 -15 -4 -16
-2 -6 15 10 16 9 22 -7 34 -39 28 -48 19 -42 -43z M2837 2459 c-22 -13 -22
-33 0 -59 18 -21 48 -26 58 -10 6 10 -18 65 -33 74 -4 2 -15 0 -25 -5z M51
2275 c1 -100 4 -125 15 -125 8 0 14 -4 14 -10 0 -5 -7 -10 -15 -10 -8 0 -15
-7 -15 -16 0 -12 9 -14 43 -11 23 2 57 11 75 19 35 15 89 81 72 86 -16 6 -11
22 7 22 24 0 83 42 83 59 0 8 9 25 21 37 24 25 17 48 -12 39 -14 -5 -17 -3
-13 9 8 21 -43 22 -71 3 -11 -8 -40 -19 -64 -25 -38 -9 -46 -8 -56 5 -7 10
-19 14 -29 10 -10 -4 -19 -1 -22 7 -3 8 -12 17 -20 20 -13 5 -15 -13 -13 -119z
m76 28 c-3 -3 -11 -2 -17 2 -8 5 -7 11 2 22 12 15 13 14 16 -1 2 -10 1 -20 -1
-23z m-27 -53 c0 -5 -8 -10 -17 -10 -15 0 -16 2 -3 10 19 12 20 12 20 0z m-20
-60 c0 -5 -4 -10 -10 -10 -5 0 -10 5 -10 10 0 6 5 10 10 10 6 0 10 -4 10 -10z
M3915 920 c-3 -5 -1 -10 4 -10 6 0 11 5 11 10 0 6 -2 10 -4 10 -3 0 -8 -4 -11
-10z M3000 400 c-8 -5 -23 -7 -32 -4 -22 7 -58 -4 -58 -17 0 -5 9 -9 20 -9 22
0 25 -12 9 -41 -5 -11 -18 -57 -28 -102 -10 -45 -21 -82 -26 -82 -13 0 -86
177 -80 196 3 9 15 19 26 22 44 12 12 28 -61 31 -90 4 -106 0 -88 -21 35 -42
41 -107 15 -157 -8 -17 -14 -8 -37 57 -16 42 -26 85 -23 95 4 16 -2 20 -38 25
-43 6 -79 -5 -79 -23 0 -6 8 -10 19 -10 14 0 23 -16 40 -72 11 -40 21 -77 21
-83 0 -27 22 -85 31 -80 5 4 9 1 9 -4 0 -6 -4 -11 -10 -11 -18 0 -10 -19 15
-36 15 -9 32 -13 46 -9 17 6 20 12 15 36 -4 21 1 39 19 65 14 20 25 44 25 53
1 9 12 -4 25 -29 13 -25 42 -65 64 -89 34 -39 43 -43 62 -35 23 11 31 30 75
194 16 60 33 101 45 112 30 26 12 49 -21 28z M3489 406 c-3 -4 -34 -7 -69 -9
-64 -2 -91 -19 -51 -32 20 -6 21 -14 21 -139 0 -106 -3 -136 -15 -146 -8 -7
-12 -16 -9 -21 7 -12 81 -12 89 0 3 5 6 44 6 85 1 42 5 76 10 76 5 0 9 -6 9
-14 0 -15 122 -138 148 -148 30 -12 62 -9 62 6 0 16 -50 83 -98 132 -30 30
-31 34 -13 34 34 0 80 50 83 90 2 34 -15 80 -30 80 -4 0 -36 3 -72 6 -36 3
-68 3 -71 0z m74 -69 c7 -23 5 -33 -12 -51 -18 -19 -28 -22 -54 -17 -27 6 -32
12 -35 40 -5 51 2 59 49 58 37 -2 44 -6 52 -30z M3718 403 c-18 -4 -25 -23
-10 -23 5 0 8 -26 8 -57 0 -32 3 -105 6 -163 l6 -105 91 -3 91 -3 43 43 c55
55 73 112 57 182 -25 111 -58 135 -192 134 -46 0 -91 -3 -100 -5z m142 -38
c77 -40 102 -200 39 -251 -8 -7 -33 -14 -56 -18 l-42 -5 -1 57 c-1 31 -2 93
-4 137 -1 44 0 83 2 88 5 11 30 8 62 -8z M4155 396 c-56 -16 -83 -33 -90 -57
-12 -35 13 -73 66 -103 36 -20 55 -39 66 -63 22 -53 14 -77 -25 -81 -42 -4
-60 11 -64 51 -2 23 -9 33 -24 35 -29 4 -53 -27 -59 -81 l-6 -47 106 0 c59 0
115 4 125 10 10 5 23 24 29 41 27 77 4 127 -78 178 -49 30 -71 65 -53 83 6 6
14 3 24 -10 19 -27 88 -34 88 -9 0 13 -51 68 -61 66 -2 -1 -22 -7 -44 -13z
M2400 391 c-87 -10 -120 -36 -127 -99 -8 -66 56 -123 113 -102 30 12 51 0 64
-35 15 -38 -6 -55 -66 -55 -47 0 -59 4 -79 26 -14 15 -25 31 -25 36 0 5 -10 8
-22 6 -19 -2 -24 -11 -29 -48 -4 -25 -2 -51 3 -58 13 -15 207 -17 240 -1 33
14 60 79 49 116 -25 84 -51 102 -122 83 -44 -12 -59 -7 -59 19 0 20 30 51 49
51 6 0 22 -11 34 -25 15 -17 26 -22 35 -16 21 13 24 114 3 110 -3 -1 -31 -5
-61 -8z M3145 393 c-35 -7 -69 -27 -95 -57 -41 -48 -49 -68 -50 -129 0 -97 41
-135 152 -139 158 -6 233 104 164 240 -15 30 -38 58 -54 66 -30 15 -86 24
-117 19z m53 -50 c16 -14 24 -38 32 -102 14 -101 8 -128 -26 -137 -59 -15
-105 40 -106 126 0 78 25 130 62 130 10 0 27 -8 38 -17z M57 373 c-4 -3 -7
-78 -7 -165 l0 -158 30 0 30 0 0 70 c0 39 4 70 8 70 5 0 23 -20 42 -45 19 -25
37 -45 42 -45 14 0 9 -22 -9 -36 -15 -12 0 -13 107 -11 l125 2 -3 103 c-2 57
1 101 5 99 5 -3 26 -40 48 -82 50 -97 78 -125 121 -125 18 0 35 4 38 9 4 5 2
58 -3 117 -9 105 -6 127 21 167 17 23 -2 36 -46 32 -17 -2 -41 -3 -53 -4 -25
-1 -31 -26 -9 -34 16 -6 33 -145 21 -174 -5 -15 -10 -11 -26 21 -10 22 -25 46
-33 55 -7 9 -24 36 -36 61 -12 25 -29 53 -38 63 -24 27 -102 21 -102 -9 0 -8
10 -14 23 -14 22 0 22 -2 23 -129 1 -123 0 -130 -20 -136 -40 -13 -69 -3 -107
36 -22 22 -39 43 -39 47 0 4 -16 25 -35 45 -19 20 -35 44 -35 53 0 19 41 58
86 79 45 21 39 37 -14 39 -30 1 -44 -3 -47 -15 -3 -8 -19 -28 -35 -44 l-30
-29 0 25 c0 14 -5 30 -12 37 -9 9 -9 12 0 12 7 0 12 5 12 10 0 11 -33 14 -43
3z M1108 373 c-22 -6 -23 -19 -2 -31 13 -7 16 -33 17 -150 l2 -142 41 0 42 0
-3 75 c-2 41 0 77 4 80 4 2 24 2 43 -1 l35 -6 0 -63 c0 -75 5 -85 44 -85 l30
0 -5 142 c-3 96 -1 147 7 156 15 18 -9 33 -48 30 l-30 -3 2 -67 1 -66 -44 1
-45 2 6 61 7 61 -32 7 c-35 6 -45 6 -72 -1z M1440 373 c-35 -7 -50 -22 -50
-49 0 -28 23 -32 66 -9 l29 15 8 -108 c8 -118 4 -152 -18 -152 -8 0 -15 -4
-15 -10 0 -6 32 -10 75 -10 78 0 95 11 50 32 -25 11 -25 13 -25 130 0 112 1
118 20 118 12 0 20 -6 19 -12 -4 -30 3 -38 30 -38 37 0 53 20 49 62 l-3 33
-105 1 c-58 1 -116 -1 -130 -3z M700 360 c-11 -7 -12 -12 -3 -17 9 -7 17 -101
23 -269 0 -15 50 -28 62 -16 5 5 9 76 10 158 l1 149 -39 3 c-21 1 -46 -2 -54
-8z M949 360 c-53 -6 -70 -18 -111 -74 -35 -49 -39 -123 -8 -174 18 -29 34
-43 27 -24 -6 19 17 11 27 -10 10 -20 20 -23 73 -26 58 -3 64 -1 92 28 23 25
29 39 27 68 l-2 37 -62 5 c-72 6 -82 4 -82 -16 0 -8 13 -17 31 -21 25 -5 30
-10 25 -27 -3 -12 -6 -27 -6 -33 0 -22 -24 -13 -47 16 -14 18 -24 49 -28 85
-6 51 -4 61 20 92 30 39 47 43 66 13 18 -26 45 -17 52 17 7 39 -23 53 -94 44z
M1953 349 c-25 -12 -46 -31 -53 -49 -11 -26 -8 -37 21 -97 22 -44 34 -83 34
-110 0 -41 1 -43 31 -43 36 0 43 14 45 95 1 28 3 42 6 32 3 -11 10 -16 20 -13
8 3 19 6 25 6 13 0 0 78 -18 107 -14 22 -44 22 -44 -1 0 -6 -4 -18 -10 -26 -7
-12 -13 -9 -34 13 -30 33 -33 55 -8 63 29 9 44 19 44 29 -1 17 -16 15 -59 -6z
M1820 182 c-41 -20 -58 -59 -44 -99 9 -26 14 -28 73 -31 65 -3 102 11 81 32
-5 5 -10 23 -10 38 0 27 -38 78 -57 78 -4 0 -24 -8 -43 -18z m55 -62 c0 -43
-24 -47 -43 -7 -16 33 -8 49 21 45 18 -2 22 -10 22 -38z M4478 119 c-21 -12
-23 -42 -5 -57 28 -23 103 19 91 51 -7 19 -58 23 -86 6z"/>
</g>
</svg>
