<?xml version="1.0" standalone="no"?>
<!DOCTYPE svg PUBLIC "-//W3C//DTD SVG 20010904//EN"
 "http://www.w3.org/TR/2001/REC-SVG-20010904/DTD/svg10.dtd">
<svg version="1.0" xmlns="http://www.w3.org/2000/svg"
 width="500.000000pt" height="878.000000pt" viewBox="0 0 500.000000 878.000000"
 preserveAspectRatio="xMidYMid meet">
<metadata>
Created by potrace 1.16, written by Peter Selinger 2001-2019
</metadata>
<g transform="translate(0.000000,878.000000) scale(0.100000,-0.100000)"
fill="#000000" stroke="none">
<path d="M3010 8480 c0 -5 5 -10 10 -10 6 0 10 5 10 10 0 6 -4 10 -10 10 -5 0
-10 -4 -10 -10z M2998 8383 c-7 -16 -23 -43 -36 -60 l-24 -33 -4 -457 c-2
-252 -6 -514 -9 -583 -2 -69 -7 -271 -10 -450 -3 -179 -7 -399 -10 -490 -3
-91 -7 -295 -10 -455 -8 -415 -16 -599 -27 -606 -6 -4 -19 2 -29 12 -15 15
-34 19 -90 19 -39 0 -80 5 -92 12 -64 36 -122 41 -238 23 -43 -7 -49 -5 -85
27 -22 19 -51 38 -65 41 -14 4 -36 23 -50 44 -26 40 -74 59 -174 69 -79 7
-218 45 -239 65 -25 23 -9 45 44 59 54 14 75 41 62 79 -6 16 -8 39 -5 51 4 13
0 25 -8 31 -11 6 -11 11 -2 20 6 6 10 17 7 23 -2 6 11 18 29 26 39 18 43 48
15 134 -11 33 -17 71 -15 84 3 14 1 57 -4 95 -7 54 -6 75 4 91 8 12 12 37 9
58 -2 22 3 55 12 78 9 22 16 51 16 65 0 14 8 29 20 35 11 6 20 21 20 35 0 13
5 27 10 30 15 9 12 56 -2 54 -31 -4 -47 2 -52 19 -4 10 -26 27 -50 38 -43 20
-45 20 -80 2 -21 -11 -38 -28 -42 -42 l-6 -24 -31 18 c-65 37 -121 26 -181
-37 l-36 -38 2 30 c1 17 -1 36 -6 43 -14 23 -26 12 -26 -22 0 -19 -4 -37 -9
-41 -11 -6 -25 30 -17 44 3 5 -1 14 -9 21 -12 10 -17 7 -26 -14 -10 -22 -9
-29 7 -48 16 -20 15 -20 -9 2 -40 35 -151 42 -200 11 -30 -19 -36 -19 -47 -6
-19 23 -111 20 -159 -6 -32 -16 -42 -28 -47 -55 -7 -38 -19 -44 -29 -14 -3 11
-13 20 -21 20 -16 0 -19 -16 -4 -25 6 -3 10 -11 10 -17 0 -6 -6 -6 -15 2 -9 7
-19 10 -22 6 -4 -4 4 -17 19 -29 14 -12 28 -30 32 -40 3 -11 15 -21 25 -24 21
-5 54 -51 94 -130 20 -39 25 -59 20 -88 -5 -28 -2 -40 10 -46 14 -8 14 -12 1
-37 -7 -15 -14 -37 -14 -49 0 -31 52 -88 73 -80 18 7 12 46 -9 54 -17 6 -18
43 -2 77 7 17 21 27 42 30 17 3 65 10 106 16 41 6 87 13 103 15 15 2 31 7 36
10 16 9 61 -14 61 -31 0 -10 -18 -34 -40 -54 -36 -33 -38 -39 -25 -50 11 -9
13 -16 5 -24 -5 -5 -10 -23 -10 -40 0 -28 -1 -29 -14 -11 -12 16 -16 17 -30 6
-9 -7 -16 -16 -16 -20 0 -10 68 -33 79 -27 10 7 25 -43 16 -53 -4 -3 -15 4
-24 16 -13 15 -28 21 -54 20 -38 -1 -49 -13 -22 -23 23 -9 18 -33 -10 -46 -25
-11 -29 -19 -39 -78 -3 -19 -17 -48 -31 -65 l-24 -30 8 31 c5 17 14 41 20 52
14 26 14 62 1 62 -6 0 -40 -60 -76 -134 -52 -105 -78 -146 -121 -190 -47 -47
-53 -58 -43 -71 17 -20 37 -19 44 3 4 11 17 18 33 19 l28 2 -23 -16 c-21 -15
-31 -43 -14 -43 4 0 6 -20 4 -45 -4 -50 26 -105 58 -105 10 0 22 -4 25 -10 10
-16 40 -11 69 11 14 11 26 18 26 14 0 -3 9 -1 21 5 12 7 18 18 15 26 -10 26
33 32 87 12 45 -17 51 -18 74 -3 13 9 28 27 33 40 6 16 15 23 25 19 21 -9 19
-44 -3 -44 -9 0 -34 -13 -53 -30 -30 -24 -42 -28 -72 -23 -28 4 -46 0 -80 -20
-61 -36 -71 -50 -55 -77 11 -19 11 -24 -7 -34 -39 -22 -77 -66 -71 -82 3 -8
-4 -28 -15 -44 -14 -18 -24 -51 -28 -92 -4 -34 -10 -69 -14 -75 -5 -8 -4 -13
2 -13 6 0 11 -6 11 -14 0 -20 67 -76 93 -78 34 -2 40 -1 65 6 19 6 22 4 22
-18 0 -22 6 -28 45 -38 47 -13 57 -35 14 -30 -15 2 -37 -8 -57 -25 -32 -27
-32 -29 -16 -51 9 -13 27 -27 41 -33 13 -5 22 -13 19 -18 -18 -29 -83 45 -112
127 -18 50 -41 70 -87 74 -66 7 -116 -30 -117 -87 l-1 -30 -27 33 c-15 18 -33
32 -40 32 -17 0 7 45 55 104 67 81 83 104 83 120 0 9 -5 16 -11 16 -13 0 -75
-63 -103 -104 l-18 -28 -27 25 c-14 13 -32 26 -40 29 -10 3 -4 14 23 38 32 30
42 33 85 31 42 -2 52 1 80 29 17 17 32 35 32 38 3 16 9 59 11 82 2 14 13 36
25 50 31 32 29 46 -11 86 -31 31 -35 33 -71 23 -32 -9 -40 -8 -56 10 -14 15
-32 21 -61 21 -37 0 -39 2 -27 17 8 9 38 32 67 50 36 23 52 40 50 51 -2 10
-11 16 -21 14 -12 -2 -15 2 -10 14 4 11 1 15 -11 13 -9 -2 -17 -8 -17 -14 -1
-15 -28 -42 -49 -48 -18 -5 -19 -3 -5 24 9 16 17 50 20 76 4 48 45 195 63 230
6 10 9 34 8 53 -2 22 8 55 26 92 17 33 32 81 35 113 6 52 4 57 -13 53 -14 -2
-21 -16 -26 -55 -4 -29 -19 -76 -33 -104 -13 -29 -22 -55 -19 -60 5 -10 -23
-130 -42 -174 -7 -16 -16 -48 -19 -70 -8 -40 -24 -80 -25 -59 0 7 -21 32 -47
57 -74 72 -152 81 -363 42 -41 -8 -100 -17 -130 -20 -140 -17 -261 -66 -336
-138 l-44 -42 0 -119 c0 -142 11 -168 92 -210 73 -38 125 -43 176 -17 22 11
43 25 47 31 12 20 24 9 30 -27 4 -21 10 -47 14 -58 5 -11 13 -32 19 -47 6 -15
14 -79 18 -143 7 -118 1 -138 -29 -95 -7 11 -35 29 -60 40 -42 19 -54 20 -128
10 -107 -13 -172 -50 -177 -100 l-4 -33 36 31 c20 17 50 39 67 47 53 28 151
35 192 14 38 -19 76 -61 70 -76 -3 -8 2 -20 12 -27 16 -11 17 -28 14 -157 -5
-218 -5 -339 2 -339 3 0 14 19 25 43 18 39 19 66 18 407 0 306 -3 372 -16 410
-9 25 -19 63 -23 85 -4 22 -11 45 -17 52 -6 8 -6 19 1 32 6 11 11 44 11 73 0
103 -77 146 -174 97 -49 -24 -50 -28 -30 -101 8 -28 43 -32 75 -9 29 22 42 14
14 -9 -8 -7 -15 -20 -15 -30 0 -37 -88 -42 -120 -8 -76 81 -24 212 93 236 108
21 195 -18 250 -112 55 -94 68 -187 69 -488 0 -135 -2 -251 -5 -256 -4 -5 -2
-51 3 -103 5 -52 11 -175 15 -274 3 -99 7 -196 9 -215 13 -140 30 -248 42
-267 8 -12 14 -38 14 -58 0 -19 4 -54 10 -77 5 -24 19 -88 31 -143 12 -55 41
-161 66 -235 39 -116 52 -143 96 -195 28 -33 64 -72 81 -87 l31 -26 -23 -24
c-12 -14 -22 -32 -22 -41 0 -9 -4 -19 -10 -22 -5 -3 -10 -21 -10 -38 0 -32 48
-98 80 -110 10 -4 8 -6 -7 -6 -33 -1 -39 -21 -12 -43 19 -14 34 -17 68 -12 40
5 95 34 113 59 10 14 -1 25 -18 18 -12 -4 -11 2 5 28 26 43 27 83 1 109 -27
27 -73 25 -107 -4 -27 -24 -27 -24 -9 -45 14 -16 23 -18 37 -10 11 5 19 17 19
25 0 19 24 13 28 -8 2 -8 -2 -27 -8 -42 -9 -25 -14 -27 -56 -24 -37 2 -51 9
-67 30 -22 29 -18 77 8 111 19 26 78 37 121 24 73 -22 107 -140 68 -237 -14
-34 -20 -39 -39 -34 -15 4 -24 0 -29 -11 -4 -12 -13 -15 -34 -10 -22 4 -33 0
-51 -19 -42 -45 -7 -60 59 -26 22 11 40 17 40 12 0 -10 -138 -147 -143 -141
-3 2 -9 39 -16 82 -14 100 -61 199 -140 297 -106 131 -193 326 -230 515 -26
135 -26 136 -55 250 -14 55 -26 112 -26 127 0 15 -5 39 -10 53 -6 15 -13 71
-16 124 -2 53 -7 116 -9 139 -3 24 -5 68 -6 98 -2 53 -19 90 -19 41 0 -14 -7
-28 -16 -31 -9 -4 -14 -13 -10 -21 3 -8 8 -79 11 -158 4 -78 11 -158 16 -177
5 -19 9 -46 9 -59 0 -23 0 -23 -35 8 -53 46 -93 63 -160 68 -63 5 -119 -11
-145 -41 -7 -9 -21 -16 -32 -16 -37 0 -58 -19 -58 -52 0 -30 1 -30 19 -14 16
14 19 15 24 2 9 -22 46 -8 63 25 28 56 105 70 189 35 37 -16 135 -102 135
-119 0 -5 6 -15 14 -21 22 -17 98 -326 81 -326 -3 0 -22 8 -43 19 -76 38 -198
57 -233 36 -5 -4 -19 6 -32 21 -54 62 -217 87 -217 33 0 -17 5 -18 39 -13 54
9 135 -19 149 -51 10 -23 9 -25 -11 -25 -35 -1 -99 -34 -140 -74 -35 -35 -37
-40 -37 -101 0 -51 3 -65 15 -65 10 0 15 10 15 30 0 50 50 140 78 140 5 0 16
7 23 16 10 12 23 14 51 10 30 -5 39 -3 48 13 17 33 71 44 137 30 75 -16 110
-33 156 -77 25 -24 37 -45 37 -63 0 -15 6 -32 13 -38 8 -6 26 -42 42 -81 15
-38 31 -70 36 -70 4 0 10 -12 13 -26 4 -14 23 -47 44 -74 123 -162 157 -226
177 -335 17 -97 13 -160 -16 -240 -19 -49 -22 -79 -21 -169 2 -163 38 -253
127 -317 49 -36 52 -41 30 -59 -20 -17 -19 -33 5 -55 11 -10 16 -23 12 -29 -4
-6 -11 -33 -17 -60 -9 -46 -12 -49 -55 -63 -25 -8 -88 -36 -140 -61 -52 -26
-98 -48 -102 -50 -5 -2 -8 10 -8 27 0 16 -4 33 -10 36 -20 12 -10 41 20 59 32
18 31 41 0 33 -18 -5 -35 17 -25 33 7 12 89 30 137 30 55 0 78 13 52 29 -18
10 -18 12 -1 21 36 22 14 28 -92 26 -83 -1 -114 -6 -135 -19 -25 -17 -26 -17
-26 2 0 11 -3 28 -7 38 -6 16 -5 16 10 5 17 -15 37 -9 37 11 0 17 31 35 76 42
84 14 94 17 94 31 0 9 -12 14 -32 15 -25 1 -27 3 -10 6 19 4 21 7 11 19 -6 8
-20 14 -30 14 -11 0 -19 7 -19 15 0 18 4 18 -62 4 -29 -6 -67 -20 -84 -30 -17
-10 -42 -19 -55 -19 -52 0 -66 -10 -61 -41 4 -27 8 -29 31 -24 24 5 26 2 28
-26 2 -19 -4 -37 -12 -43 -8 -6 -16 -22 -17 -36 -3 -26 8 -30 46 -14 18 7 19
3 14 -74 -4 -45 -2 -98 2 -119 5 -21 6 -41 2 -44 -4 -4 -33 -9 -64 -13 l-58
-6 0 28 c0 15 -5 33 -10 38 -14 14 -3 42 20 49 9 3 25 14 35 25 15 17 16 24 6
49 -7 16 -23 39 -37 52 -27 25 -33 62 -9 53 8 -3 17 0 20 8 8 21 -12 68 -30
68 -16 0 -19 19 -16 135 1 48 7 74 16 81 13 9 12 14 -5 29 -50 46 -6 75 108
71 72 -3 84 -1 93 15 5 11 17 19 25 19 9 0 14 6 12 13 -3 7 -29 14 -64 17 -58
5 -58 5 -22 13 21 4 44 14 52 22 10 11 22 12 45 5 26 -7 36 -5 52 11 22 22 25
44 7 55 -18 12 -119 13 -160 3 -56 -14 -158 -20 -158 -9 0 5 10 12 23 14 48
10 114 19 166 22 59 3 70 9 52 27 -7 7 -37 12 -71 12 -47 -1 -60 3 -63 16 -3
11 -17 19 -38 22 -29 3 44 7 223 11 54 1 66 9 48 31 -11 13 -8 14 20 9 42 -9
55 11 26 40 -19 19 -32 21 -126 20 -62 0 -114 -5 -128 -13 -27 -15 -29 0 -2
24 34 31 24 37 -49 33 -38 -2 -67 0 -65 4 3 4 13 8 22 8 10 0 27 7 39 15 15
10 48 15 107 16 64 1 86 4 90 15 5 13 -28 34 -54 34 -4 0 -11 7 -14 16 -5 13
-15 15 -49 11 -38 -5 -40 -4 -23 9 11 8 39 14 63 14 63 0 58 27 -6 32 -52 4
-35 17 27 20 55 3 57 4 57 32 1 33 -32 51 -76 41 -15 -4 -30 -1 -34 5 -9 14
-101 10 -149 -7 -21 -7 -53 -13 -71 -13 -30 0 -84 -21 -113 -43 -9 -7 -9 -13
-1 -23 6 -8 15 -11 20 -8 16 10 47 -15 42 -34 -2 -10 3 -25 13 -33 15 -12 8
-16 -67 -34 l-84 -20 2 -31 c3 -29 0 -33 -40 -43 -23 -7 -47 -14 -54 -17 -6
-3 -14 7 -17 24 -9 38 -80 112 -84 88 -2 -9 12 -35 32 -56 39 -43 43 -59 24
-90 -10 -15 -9 -23 6 -39 11 -12 26 -21 33 -21 21 0 10 -24 -13 -28 -10 -2
-34 -11 -51 -20 -27 -14 -33 -22 -33 -50 0 -27 3 -32 18 -28 9 3 35 8 57 12
l40 7 -31 -26 c-18 -15 -44 -27 -58 -27 -24 0 -26 -3 -26 -45 0 -31 4 -43 12
-41 41 13 68 15 68 6 0 -5 -7 -10 -15 -10 -28 0 -65 -23 -65 -41 0 -24 9 -28
68 -33 27 -2 54 -6 60 -10 5 -3 15 -27 22 -53 7 -27 19 -59 25 -73 7 -14 16
-36 20 -49 6 -19 4 -23 -9 -18 -8 3 -19 1 -23 -6 -7 -12 -9 -17 -12 -36 0 -5
-12 -12 -26 -15 -25 -6 -33 -20 -16 -30 5 -4 28 -7 50 -8 44 -1 55 -19 24 -37
-17 -10 -17 -10 0 -11 9 0 17 -4 17 -10 0 -5 -4 -10 -10 -10 -5 0 -10 -11 -10
-25 0 -14 -6 -25 -12 -25 -24 0 -43 19 -43 41 0 32 -21 34 -48 5 -14 -14 -34
-26 -46 -26 -12 0 -24 -7 -27 -15 -11 -27 0 -34 37 -21 32 11 39 10 59 -6 13
-10 21 -20 19 -21 -2 -2 -24 -12 -48 -22 -52 -23 -73 -52 -69 -97 4 -47 32
-45 36 3 4 48 31 72 81 72 70 0 87 -20 94 -109 4 -42 5 -79 3 -82 -3 -2 -30
-6 -60 -7 -56 -3 -80 -8 -128 -27 -21 -8 -28 -17 -28 -37 0 -14 4 -21 8 -15 4
6 31 19 61 29 43 14 57 15 76 5 25 -13 65 -5 65 14 0 14 -2 13 155 20 194 9
252 13 263 20 6 3 13 2 16 -3 8 -12 -24 -22 -66 -22 -65 -1 -231 -19 -242 -28
-6 -4 -26 -7 -43 -6 -18 2 -33 0 -33 -4 0 -4 -23 -17 -51 -30 -30 -13 -53 -30
-56 -41 -3 -11 -14 -22 -25 -26 -20 -6 -21 -24 -3 -80 5 -16 -8 -38 -59 -98
-64 -75 -66 -80 -66 -133 l0 -54 52 2 c74 3 1143 -11 1308 -16 116 -4 837 -19
910 -18 14 0 268 3 565 8 297 4 861 9 1253 9 l712 1 0 22 0 23 -202 0 c-112 1
-297 1 -413 1 -179 0 -205 2 -176 13 50 18 60 39 34 68 -11 13 -26 40 -33 61
-6 20 -16 37 -21 37 -5 0 -9 5 -9 12 0 6 3 8 7 5 11 -12 53 35 53 59 0 13 -4
34 -10 48 -5 14 -5 28 -1 31 5 3 103 7 217 9 186 3 209 6 221 22 16 22 18 58
2 49 -6 -4 -16 1 -24 11 -7 11 -40 33 -73 49 -34 17 -61 32 -62 35 0 3 10 10
23 15 37 17 30 114 -14 169 l-20 26 20 0 c11 0 29 -10 40 -22 18 -19 31 -21
128 -22 82 -1 115 -5 138 -18 17 -9 56 -29 88 -44 31 -15 57 -30 57 -35 0 -13
-74 0 -86 15 -12 18 -102 66 -120 66 -31 0 -10 -26 38 -49 l50 -24 -31 -24
c-24 -19 -31 -32 -31 -59 0 -28 -4 -34 -22 -36 -13 0 -29 -2 -35 -2 -21 -2
-44 -32 -38 -48 7 -16 56 -41 81 -41 8 0 14 -4 14 -9 0 -4 -12 -8 -27 -8 -44
0 -104 -20 -110 -36 -9 -24 7 -32 77 -42 l65 -10 -67 -1 c-70 -1 -113 -14
-122 -37 -7 -19 13 -74 27 -74 7 0 18 4 25 9 12 7 12 12 0 30 -19 31 3 42 77
39 l60 -3 -3 -92 c-2 -85 -1 -93 17 -93 22 0 31 35 31 121 l0 59 80 0 c64 0
80 3 80 15 0 11 -12 15 -47 16 -27 1 -61 5 -78 9 -23 6 -12 8 43 9 57 1 74 5
79 17 3 9 0 20 -8 25 -10 6 -10 9 -1 9 6 0 12 7 12 15 0 17 -4 18 -74 15 -33
-1 -46 2 -41 9 3 7 12 11 18 10 7 -1 31 -1 55 0 37 1 42 4 42 25 0 20 -4 23
-22 19 -20 -4 -21 -3 -5 7 20 13 23 40 5 41 -7 0 -41 0 -75 0 -44 1 -63 5 -67
15 -7 19 2 41 20 48 17 7 18 -6 2 -22 -16 -16 -7 -23 43 -28 48 -6 71 11 62
46 -3 11 0 20 6 20 6 0 11 -4 11 -10 0 -5 4 -10 9 -10 6 0 9 18 9 40 l0 40
-91 45 c-51 25 -105 45 -122 45 -17 0 -47 9 -67 20 -26 14 -63 21 -124 24 -47
2 -91 9 -97 15 -6 6 -21 11 -33 11 -12 0 -36 14 -53 31 -27 26 -31 38 -31 83
0 44 4 56 28 79 15 15 41 29 58 33 25 5 36 1 60 -25 43 -46 52 -41 48 32 -1
34 -3 64 -3 66 -1 2 -12 -4 -26 -13 -13 -9 -42 -16 -63 -16 -46 0 -97 -31
-128 -78 l-22 -32 -27 77 c-15 43 -34 98 -43 121 -12 35 -12 46 -2 52 7 4 9
16 6 28 -15 45 53 102 139 116 51 9 112 -15 125 -48 11 -29 35 -39 50 -20 13
15 38 18 64 8 23 -9 20 -20 -16 -65 -27 -34 -33 -50 -36 -104 -4 -54 -1 -69
19 -97 27 -39 38 -48 62 -48 25 0 20 20 -13 60 -39 45 -41 99 -4 152 25 35 64
52 64 27 0 -24 23 -1 35 35 15 44 48 81 88 102 29 16 110 17 140 2 15 -8 17
-3 17 37 0 44 -15 61 -26 30 -5 -11 -21 -15 -60 -15 -81 0 -143 -38 -194 -118
-9 -14 -12 -14 -17 -3 -15 37 -45 53 -87 48 -34 -5 -45 -2 -66 17 -50 47 -124
57 -204 30 -50 -17 -116 -74 -116 -99 0 -8 -3 -15 -7 -15 -12 0 -131 374 -144
450 -6 36 -18 94 -26 130 -8 36 -19 88 -23 115 -5 28 -15 77 -21 109 -11 48
-11 60 0 64 7 2 16 14 21 27 15 40 137 65 209 44 21 -6 25 25 7 44 -11 11 -27
14 -56 10 -51 -7 -53 11 -5 34 33 16 36 16 49 -2 17 -23 36 -12 36 22 0 33 42
88 83 109 46 24 159 25 185 1 26 -24 53 -19 69 12 35 72 183 70 295 -2 38 -24
56 -45 74 -82 l23 -50 0 52 c1 49 -1 53 -41 86 -56 45 -124 68 -224 74 -83 6
-118 -5 -150 -46 -9 -12 -19 -12 -63 -1 -33 8 -71 10 -99 5 -26 -4 -62 -7 -79
-8 -19 0 -33 -6 -33 -13 0 -6 -7 -18 -16 -25 -9 -8 -27 -30 -40 -50 -15 -25
-32 -38 -54 -43 -43 -8 -88 -42 -92 -68 -2 -15 -13 -24 -38 -31 -19 -5 -46
-19 -61 -33 l-25 -24 -17 48 c-22 59 -21 60 5 64 15 2 24 13 30 36 7 25 14 32
32 32 37 0 51 24 31 54 -10 14 -13 26 -9 27 5 1 18 2 29 3 16 1 21 10 25 46 9
80 60 125 154 136 83 10 119 -1 172 -52 42 -42 74 -52 74 -24 0 6 -22 32 -48
59 -50 50 -81 61 -172 60 -47 0 -122 -24 -156 -49 -25 -19 -59 -68 -69 -100
-4 -13 -18 -33 -31 -43 -15 -12 -24 -29 -24 -47 0 -18 -11 -39 -31 -59 -36
-36 -44 -39 -29 -10 8 15 8 29 1 51 -6 17 -11 45 -11 62 0 17 -13 56 -29 87
-34 67 -41 81 -71 142 -19 39 -21 50 -10 57 10 6 10 15 3 37 -20 56 30 153 97
188 59 31 147 18 184 -26 25 -30 51 -38 58 -18 3 9 10 9 26 0 19 -10 23 -9 29
5 4 10 0 21 -9 28 -20 15 -35 47 -33 71 1 11 2 33 3 48 3 43 54 89 94 85 29
-3 33 0 36 22 2 14 7 29 12 33 4 5 3 22 -3 38 -10 25 -8 32 18 59 16 16 37 30
47 30 10 0 18 6 18 14 0 19 65 74 98 83 15 4 74 7 132 8 100 0 107 -1 160 -32
68 -39 124 -96 145 -146 20 -48 48 -48 53 1 3 24 0 31 -11 26 -8 -3 -21 6 -31
21 -23 35 -99 104 -138 125 -94 49 -269 53 -357 8 -28 -15 -51 -23 -51 -18 0
10 -49 60 -108 112 -57 49 -192 113 -270 128 -58 12 -137 9 -219 -6 -30 -6
-32 -4 -38 30 -5 24 -3 42 6 52 7 9 14 33 15 52 1 29 9 43 45 75 24 21 58 44
74 51 45 19 126 27 164 16 28 -8 39 -6 62 11 15 10 31 19 36 18 4 -1 16 1 27
6 11 5 26 3 39 -4 25 -16 40 -2 30 30 -10 28 -9 42 2 84 25 93 84 149 191 181
66 20 117 19 176 -2 39 -14 58 -12 58 6 0 5 -29 18 -63 28 -131 39 -290 -14
-363 -122 -12 -17 -28 -58 -36 -90 -14 -57 -16 -60 -57 -72 -23 -6 -48 -17
-55 -24 -8 -6 -58 -12 -115 -14 -99 -2 -101 -3 -158 -42 -32 -21 -66 -48 -75
-59 -23 -28 -50 -144 -46 -202 3 -46 2 -48 -30 -58 -18 -6 -40 -18 -49 -27
-12 -13 -22 -14 -41 -7 -53 20 -183 -52 -228 -126 l-18 -29 -15 46 c-20 57
-26 64 -46 48 -12 -10 -15 -10 -15 4 0 9 4 16 10 16 5 0 17 12 27 26 14 22 14
29 4 46 -13 20 -12 20 111 13 148 -8 157 -3 164 93 7 81 1 85 -133 83 l-108
-2 -17 83 -17 83 38 36 c32 30 40 46 49 96 6 34 20 79 31 102 12 22 21 53 21
70 0 22 6 30 24 35 13 3 26 15 29 26 5 20 6 20 31 -2 23 -22 24 -24 10 -47
-11 -16 -13 -26 -5 -34 7 -7 7 -16 0 -28 -5 -10 -7 -30 -3 -43 3 -13 1 -33 -5
-44 -11 -21 -5 -52 9 -52 5 0 12 9 15 21 5 16 10 18 18 10 9 -9 8 -14 -3 -21
-11 -7 -12 -12 -3 -21 9 -9 19 -6 41 10 22 15 38 19 61 15 24 -5 31 -3 31 10
0 9 -8 16 -20 16 -11 0 -23 8 -26 18 -3 9 -10 25 -15 34 -5 10 -9 31 -9 47 0
17 -4 32 -10 36 -5 3 -7 12 -3 20 3 9 -1 15 -11 15 -18 0 -22 25 -5 35 6 5 8
27 3 61 -4 35 -3 54 4 54 6 0 19 15 30 33 16 26 20 49 20 122 -1 110 17 161
59 170 68 15 224 104 276 158 24 25 28 36 23 63 -6 29 -3 33 24 46 34 15 47
42 30 63 -13 16 -6 32 27 58 28 23 29 38 3 62 -16 14 -24 15 -50 6 -23 -7 -36
-7 -49 1 -20 12 -85 -18 -173 -80 -26 -19 -53 -35 -60 -36 -7 -1 -19 -5 -25
-9 -19 -12 -15 7 7 35 34 44 41 74 21 92 -10 9 -20 16 -23 16 -3 0 -30 -22
-59 -50 -30 -27 -57 -50 -61 -50 -5 0 -26 -16 -47 -36 -43 -38 -73 -109 -70
-160 3 -34 -37 -118 -51 -109 -17 10 -87 -55 -106 -98 -10 -23 -27 -48 -36
-55 -10 -7 -18 -19 -18 -26 0 -8 -7 -16 -15 -20 -13 -4 -15 10 -16 92 -1 298
3 1503 6 1652 2 96 6 396 8 665 l3 490 -31 40 c-17 22 -36 52 -43 68 -9 21
-18 27 -42 27 -24 0 -33 -6 -42 -27z m34 -580 c-2 -617 -9 -1107 -26 -1743 -6
-225 -15 -587 -21 -910 -6 -316 -13 -407 -32 -414 -31 -12 1 -26 61 -26 35 0
78 -6 97 -12 33 -13 33 -13 -41 -18 -58 -4 -75 -8 -75 -20 0 -12 12 -14 60
-12 97 5 107 0 103 -56 -2 -26 -7 -46 -13 -45 -5 1 -66 4 -135 7 -135 6 -152
13 -142 61 3 18 8 23 16 16 8 -7 20 -6 36 2 29 15 37 34 15 39 -15 3 -17 27
-15 253 1 138 4 275 6 305 8 122 14 368 19 800 3 250 7 520 10 600 2 80 8 303
12 495 3 193 7 373 9 400 1 28 2 148 3 268 1 210 2 219 21 224 11 3 17 9 14
15 -3 5 -12 4 -20 -3 -13 -10 -14 6 -11 119 4 107 8 134 23 155 11 14 21 23
23 21 2 -2 4 -237 3 -521z m68 472 c11 -20 12 -242 7 -1237 -4 -667 -8 -1238
-11 -1268 -2 -30 -5 -172 -6 -316 0 -143 -4 -351 -7 -463 -6 -189 -7 -203 -28
-227 -13 -15 -25 -22 -28 -17 -6 10 -1 334 7 493 3 52 8 352 12 665 3 314 7
638 9 720 5 232 19 1278 19 1487 1 104 4 188 7 188 3 0 12 -11 19 -25z m-1158
-1648 c23 -29 22 -74 -1 -128 -11 -24 -27 -77 -36 -117 -16 -71 -18 -73 -36
-56 -41 37 -33 114 12 114 31 0 22 13 -27 43 l-47 28 6 66 c6 81 20 96 75 81
20 -5 45 -19 54 -31z m-247 -7 c4 -6 15 -10 24 -8 56 9 69 -72 21 -133 -29
-35 -35 -38 -88 -41 -52 -3 -57 -5 -60 -28 -2 -14 -1 -22 3 -18 12 11 59 -12
78 -38 23 -31 14 -62 -20 -75 -50 -19 -106 23 -96 71 3 16 0 45 -7 65 -8 25
-9 40 -2 47 7 7 7 16 -1 28 -9 15 -4 25 29 60 36 40 90 80 106 80 4 0 10 -5
13 -10z m-305 -56 c14 -3 26 -5 27 -5 8 1 73 -74 78 -89 3 -11 -1 -30 -10 -44
-15 -23 -15 -25 3 -35 11 -6 25 -24 32 -41 11 -28 11 -34 -7 -58 -12 -17 -31
-28 -49 -30 -32 -2 -75 16 -81 35 -6 17 34 54 52 47 16 -6 20 13 7 31 -10 15
-88 39 -101 31 -11 -7 -16 -2 -71 68 -37 47 -37 59 -3 85 26 21 41 22 123 5z
m-202 -24 c47 -44 35 -125 -23 -152 -23 -10 -42 -37 -27 -39 4 -1 20 -3 37 -5
71 -8 74 -94 3 -94 -23 0 -34 10 -63 55 -19 30 -35 58 -35 64 0 5 -10 22 -23
38 -13 15 -29 43 -37 62 -13 33 -13 35 18 62 41 37 115 41 150 9z m632 -101
c0 -20 -16 -24 -39 -10 -12 8 -12 12 -2 25 16 19 41 10 41 -15z m-556 -38 c6
-9 -42 -46 -50 -39 -5 6 26 48 36 48 5 0 11 -4 14 -9z m511 -11 c23 -9 43 -35
33 -45 -2 -2 -22 -7 -44 -11 -36 -5 -42 -3 -58 20 -9 15 -14 31 -11 36 8 13
47 13 80 0z m-410 -40 c11 -18 -24 -68 -56 -79 -45 -16 -49 -14 -49 18 0 20 9
36 26 50 28 22 69 28 79 11z m539 -60 c17 -17 -1 -24 -116 -43 -57 -10 -143
-27 -193 -37 -49 -10 -130 -24 -180 -30 -110 -14 -234 -36 -255 -44 -13 -5
-16 1 -16 29 0 28 4 37 21 40 11 2 59 14 106 25 l87 21 71 -20 c59 -16 71 -17
71 -5 0 8 7 14 15 14 8 0 14 6 13 13 -2 9 15 11 69 9 61 -3 75 0 92 17 11 11
35 22 53 24 52 8 149 0 162 -13z m-11 -80 c3 -10 4 -52 3 -92 -2 -40 1 -86 6
-103 5 -16 11 -41 14 -54 3 -13 11 -33 19 -45 22 -31 19 -36 -25 -36 -36 0
-40 -3 -40 -24 0 -26 -33 -56 -62 -56 -19 0 -34 -18 -24 -28 4 -3 16 -1 26 6
11 7 26 12 34 12 20 0 36 -23 26 -40 -5 -7 -4 -24 1 -38 6 -16 6 -29 -1 -37
-16 -19 -135 -8 -188 17 -63 30 -76 10 -21 -31 24 -17 46 -31 49 -31 11 0 45
-113 45 -150 0 -41 16 -52 30 -21 13 27 16 27 49 -8 20 -21 27 -37 24 -57 -4
-37 -41 -45 -60 -15 -7 12 -21 21 -31 21 -10 0 -28 6 -40 14 -33 22 -180 61
-270 73 -39 5 -47 9 -41 22 10 22 12 121 2 121 -4 0 -8 5 -8 10 0 6 18 10 40
10 27 0 40 4 40 13 0 21 -12 28 -27 15 -11 -9 -12 -7 -4 15 8 20 6 28 -9 42
-21 19 -18 35 6 35 8 0 13 -4 10 -8 -3 -5 5 -19 18 -33 12 -13 25 -32 29 -43
6 -16 10 -16 24 -5 13 11 17 11 20 2 8 -24 33 -13 47 21 8 18 19 37 25 40 6 4
8 12 5 18 -16 25 -12 77 7 97 10 11 19 29 19 39 0 10 6 32 14 48 12 23 12 37
4 70 -10 37 -9 44 13 75 13 19 23 39 21 46 -1 7 13 19 33 27 19 8 38 22 41 30
4 11 14 13 36 9 22 -4 33 -2 40 10 12 23 25 21 31 -3z m-193 -24 c0 -17 -22
-26 -61 -26 -38 0 -39 27 -1 33 53 8 62 7 62 -7z m50 4 c0 -5 -4 -10 -10 -10
-5 0 -10 5 -10 10 0 6 5 10 10 10 6 0 10 -4 10 -10z m-163 -71 c3 -10 12 -19
19 -19 18 0 36 -44 27 -67 -7 -19 -32 -42 -45 -43 -5 0 -8 7 -8 16 0 10 6 14
15 10 17 -6 22 29 5 39 -5 3 -10 15 -10 26 0 10 -4 19 -10 19 -19 0 -25 2 -37
12 -20 16 -16 23 13 25 18 1 28 -5 31 -18z m90 -11 c-3 -7 -5 -2 -5 12 0 14 2
19 5 13 2 -7 2 -19 0 -25z m-158 -87 c7 -5 10 -14 6 -20 -5 -9 -10 -9 -21 0
-26 22 -14 38 15 20z m128 -75 c-6 -15 -53 -27 -74 -19 -23 9 -14 22 14 20 20
-2 28 3 31 18 6 29 26 39 30 14 2 -11 1 -26 -1 -33z m-113 8 c4 -11 1 -14 -11
-12 -9 2 -18 9 -21 16 -6 18 25 15 32 -4z m2086 -18 c0 -2 -25 -35 -56 -73
-49 -60 -55 -72 -50 -101 3 -23 -1 -46 -14 -70 -11 -20 -20 -45 -20 -54 0 -34
25 -17 48 33 28 59 47 54 58 -17 3 -24 10 -44 14 -44 12 0 2 80 -16 127 -17
46 -13 63 15 63 19 0 157 76 203 112 15 12 30 20 32 17 8 -7 -104 -92 -156
-119 -27 -14 -48 -28 -48 -31 0 -3 16 -5 35 -2 34 3 106 46 155 90 26 24 108
68 115 62 6 -7 -194 -169 -209 -169 -13 0 -46 -31 -46 -42 0 -17 42 4 119 58
42 30 82 54 88 54 24 0 13 -20 -19 -39 -18 -11 -40 -26 -48 -34 -8 -7 -41 -32
-72 -55 -60 -44 -74 -59 -64 -70 7 -6 78 28 129 62 16 10 31 15 34 12 8 -8
-55 -63 -82 -72 -11 -3 -30 -15 -42 -27 -24 -21 -202 -88 -243 -91 -20 -1 -24
-6 -22 -26 1 -13 7 -27 12 -30 9 -5 -25 -101 -59 -169 -12 -23 -29 -24 -36 -2
-3 11 -21 28 -39 36 -25 12 -36 26 -46 58 -6 23 -16 50 -21 59 -13 25 -12 27
11 21 15 -4 20 0 20 15 0 12 9 26 20 32 11 6 20 15 20 20 0 5 14 30 31 55 22
32 34 65 40 108 13 96 17 104 88 156 37 28 75 59 85 70 17 19 36 28 36 17z
m-2066 -24 c3 -5 -4 -16 -15 -26 -22 -18 -18 -52 8 -71 13 -10 13 -13 -1 -24
-20 -17 -20 -37 0 -45 24 -9 27 -8 20 10 -4 11 -1 14 11 12 28 -5 25 -22 -7
-37 -40 -17 -58 -9 -76 34 -8 19 -20 35 -28 35 -7 0 -19 7 -26 15 -10 12 -9
15 4 15 9 0 27 -7 40 -16 15 -9 27 -11 30 -5 4 5 2 12 -3 16 -7 4 -7 15 0 32
6 17 6 30 -1 38 -5 6 -7 15 -3 18 9 10 41 9 47 -1z m71 -22 c3 -5 1 -10 -4
-10 -6 0 -11 5 -11 10 0 6 2 10 4 10 3 0 8 -4 11 -10z m-29 -31 c3 -6 2 -15
-2 -19 -12 -12 -38 5 -30 19 9 14 23 14 32 0z m-1 -59 c-3 -5 -10 -10 -16 -10
-5 0 -9 5 -9 10 0 6 7 10 16 10 8 0 12 -4 9 -10z m-185 -6 c0 -4 -17 -29 -37
-56 -32 -45 -34 -51 -20 -60 9 -5 17 -20 17 -33 0 -28 -17 -34 -26 -10 -10 25
-34 -2 -34 -37 0 -25 -2 -28 -14 -19 -10 8 -16 9 -21 1 -3 -5 -1 -10 4 -10 6
0 11 -4 11 -10 0 -5 -7 -10 -15 -10 -18 0 -75 -40 -75 -52 0 -11 -52 -57 -64
-58 -5 0 10 20 33 45 22 24 51 65 63 90 13 27 27 44 35 41 13 -5 65 55 62 70
-4 16 14 68 30 91 14 20 51 32 51 17z m30 -105 c0 -5 -7 -9 -15 -9 -9 0 -12 6
-9 15 6 15 24 11 24 -6z m-56 -106 c6 -14 -22 -53 -37 -53 -4 0 -2 52 2 68 3
10 30 -1 35 -15z m-104 -73 c0 -5 -4 -10 -10 -10 -5 0 -10 5 -10 10 0 6 5 10
10 10 6 0 10 -4 10 -10z m-532 -14 c-9 -10 -18 -11 -30 -5 -26 14 -22 19 12
19 26 0 29 -2 18 -14z m102 4 c13 -8 12 -10 -2 -10 -20 0 -24 -20 -7 -37 5 -5
18 -25 27 -43 19 -38 30 -44 52 -30 12 7 9 17 -19 57 l-33 48 45 -50 c24 -27
43 -55 40 -61 -2 -6 3 -16 11 -23 13 -11 12 -17 -10 -51 -14 -21 -32 -41 -40
-44 -8 -3 -14 -13 -14 -23 0 -10 -7 -27 -15 -37 -17 -23 -20 -87 -5 -102 8 -8
7 -19 0 -36 -9 -20 -8 -39 4 -87 9 -35 14 -66 12 -70 -3 -4 -6 -29 -7 -57 -2
-32 -11 -61 -27 -84 -19 -28 -22 -42 -16 -75 8 -49 31 -142 39 -154 3 -5 -2
-22 -10 -38 -8 -15 -26 -53 -40 -83 -44 -93 -47 -87 -40 85 11 256 -7 464 -56
658 -34 135 -138 275 -221 298 -20 5 -40 13 -42 18 -3 5 40 14 95 21 l101 12
64 -65 c35 -37 64 -75 64 -86 0 -10 7 -22 16 -25 14 -5 16 -1 11 28 -4 26 -2
34 8 30 31 -12 24 21 -14 66 -23 27 -41 51 -41 54 0 10 54 6 70 -4z m568 -28
c11 -11 39 -22 63 -26 61 -10 164 -42 226 -72 50 -23 52 -25 41 -49 -10 -22
-16 -25 -47 -19 -20 4 -38 11 -41 15 -9 14 -100 58 -160 79 -64 21 -224 45
-240 35 -15 -9 7 -35 31 -35 22 0 34 -16 17 -23 -9 -3 -7 -9 6 -19 23 -18 15
-48 -11 -48 -13 0 -15 -2 -5 -9 10 -6 4 -16 -23 -39 -20 -18 -42 -32 -50 -32
-24 0 -44 42 -42 90 2 41 4 45 27 44 23 -1 39 11 40 29 0 4 -11 7 -24 7 -32 0
-42 18 -22 38 47 48 180 68 214 34z m529 -18 c15 -20 17 -34 6 -34 -5 0 -18
-3 -29 -6 -17 -5 -24 0 -32 25 -6 17 -16 31 -21 31 -6 0 -11 4 -11 9 0 15 73
-6 87 -25z m-1159 -20 c-4 -3 -12 5 -18 18 -12 22 -12 22 6 6 10 -10 15 -20
12 -24z m1245 12 c-7 -27 -11 -29 -21 -9 -10 18 -9 21 6 19 9 -2 16 -6 15 -10z
m-1542 -21 c28 -10 64 -34 92 -63 61 -62 91 -142 148 -391 13 -57 19 -217 23
-616 3 -282 7 -348 25 -455 27 -157 41 -212 56 -225 6 -5 14 -19 18 -29 6 -15
11 -16 19 -8 9 9 15 9 26 0 12 -10 19 -7 37 16 l22 28 23 -23 22 -24 15 23
c21 31 61 29 73 -3 10 -26 34 -26 44 1 7 19 26 18 26 -1 0 -8 9 -15 20 -15 11
0 23 7 26 15 7 18 31 20 36 4 3 -8 14 -7 35 5 40 20 69 21 81 1 8 -16 42 -11
42 6 0 5 9 4 19 -3 16 -10 25 -9 44 1 14 7 30 11 35 7 6 -3 31 -1 56 6 39 10
48 10 64 -5 24 -22 39 -21 52 3 13 25 29 26 45 3 11 -15 17 -15 39 -5 21 9 31
9 46 0 15 -10 22 -9 39 6 26 24 53 17 70 -18 l14 -30 21 27 c24 30 36 34 36
12 0 -23 36 -18 48 8 l11 22 0 -22 c1 -32 61 -28 61 3 0 19 29 18 36 -1 8 -20
44 -19 60 3 12 16 13 16 19 0 9 -24 28 -23 51 3 l19 21 23 -29 c22 -27 23 -27
37 -9 8 10 16 24 18 30 2 6 14 0 26 -14 l21 -25 19 23 c26 30 105 32 121 2 6
-11 18 -20 26 -20 9 0 18 9 21 20 7 25 15 25 38 0 l18 -20 24 22 24 23 18 -24
c20 -26 51 -24 51 4 0 21 17 19 30 -5 13 -25 36 -26 49 -1 17 31 51 34 61 5
11 -29 31 -31 48 -4 12 19 74 30 71 13 -6 -39 35 -47 45 -9 5 20 12 23 48 23
33 0 38 -2 26 -11 -8 -6 -15 -22 -14 -35 1 -21 -5 -26 -34 -32 -21 -5 -40 -3
-48 3 -8 7 -41 8 -100 2 -48 -4 -269 -9 -492 -10 -698 -3 -1421 -15 -1519 -24
-105 -10 -124 -19 -97 -49 11 -12 19 -43 23 -90 3 -39 10 -74 14 -77 5 -3 9
-17 9 -32 0 -32 19 -99 55 -202 32 -88 80 -156 188 -264 72 -72 78 -81 62 -92
-15 -11 -23 -10 -48 2 -29 16 -63 15 -101 -1 -16 -7 -18 -5 -14 13 4 12 0 26
-8 33 -8 6 -14 18 -14 27 0 12 -9 13 -42 9 -39 -5 -41 -4 -24 9 11 8 23 14 28
14 13 0 9 28 -5 37 -8 4 -17 16 -20 27 -5 13 -13 17 -30 11 -36 -11 -50 -11
-54 1 -2 6 8 16 22 24 14 7 25 20 25 27 0 20 -25 26 -49 13 -16 -8 -21 -8 -21
1 0 6 9 13 20 16 12 3 20 14 20 25 0 17 -5 20 -30 16 -17 -3 -33 -1 -36 4 -3
4 4 8 15 8 46 0 34 49 -13 51 -21 1 -24 3 -11 6 11 3 24 9 29 14 14 13 -14 40
-37 37 -11 -2 -22 3 -24 10 -3 7 4 12 16 12 11 0 22 4 25 8 8 14 -13 37 -33
37 -29 0 -31 19 -3 23 33 5 24 36 -11 40 -31 4 -37 22 -6 22 28 0 21 34 -9 38
-30 5 -28 22 3 22 18 0 25 5 25 20 0 16 -7 20 -30 20 -20 0 -30 5 -30 15 0 8
3 14 8 14 4 -1 17 -1 30 0 38 2 24 35 -17 41 -45 6 -48 21 -11 42 21 12 28 22
24 33 -4 9 -14 15 -23 12 -44 -12 -46 -12 -49 16 -3 21 1 27 17 27 11 0 23 5
26 10 9 15 -14 41 -33 38 -27 -5 -24 19 3 26 34 9 30 41 -5 41 -20 0 -26 6
-28 28 -3 22 1 30 17 34 29 7 26 31 -4 43 -34 13 -32 38 3 42 16 2 27 9 27 18
0 9 -11 16 -27 18 -16 2 -28 8 -28 13 0 5 0 12 0 17 0 4 9 8 20 8 27 2 34 9
27 29 -4 8 -18 15 -32 15 -36 0 -32 27 6 35 38 9 36 39 -4 43 -36 4 -34 25 3
39 36 13 32 43 -6 43 -15 0 -24 6 -24 15 0 9 10 15 26 15 21 0 25 4 22 22 -2
17 -10 23 -28 23 -35 0 -33 29 3 33 35 4 33 33 -3 42 -14 3 -26 14 -28 24 -3
15 1 17 26 11 18 -4 33 -2 37 5 10 17 -14 40 -42 40 -31 0 -26 23 5 25 48 4
54 45 6 45 -13 0 -24 5 -24 10 0 6 14 10 30 10 21 0 30 5 30 16 0 9 -13 21
-30 27 -32 12 -41 30 -13 25 10 -2 19 4 21 15 2 12 -3 17 -17 17 -28 0 -29 40
-1 47 11 3 20 9 20 13 0 4 -9 10 -20 13 -27 7 -25 36 2 46 l22 8 -22 12 c-27
15 -29 41 -2 41 11 0 20 4 20 10 0 5 -9 14 -20 20 -11 6 -20 15 -20 20 0 6 9
10 20 10 11 0 20 7 20 15 0 8 -9 15 -20 15 -28 0 -28 47 0 52 22 3 24 24 2 22
-16 -2 -29 49 -14 54 7 2 12 11 12 19 0 9 -6 13 -14 10 -14 -6 -26 12 -26 38
0 7 10 15 22 19 25 6 16 22 -16 28 -28 5 -32 28 -6 28 13 0 20 5 17 13 -2 6
-13 12 -25 12 -31 1 -50 21 -34 37 18 18 14 28 -12 28 -13 0 -30 7 -37 16 -11
14 -11 18 4 29 21 15 22 25 2 25 -9 0 -18 -7 -21 -15 -11 -27 -45 1 -38 30 4
15 2 25 -5 25 -6 0 -11 -7 -11 -15 0 -8 -4 -15 -9 -15 -25 0 -41 14 -41 36 0
13 -4 24 -10 24 -5 0 -10 -11 -10 -25 0 -28 -3 -29 -31 -15 -13 8 -36 6 -81
-6 -82 -21 -109 -38 -142 -88 -22 -33 -26 -50 -23 -86 2 -25 7 -53 11 -62 6
-13 4 -18 -7 -18 -17 0 -37 55 -37 104 0 41 37 114 69 134 14 9 38 29 53 44
14 16 37 28 50 28 12 0 30 5 38 10 23 15 151 12 201 -5z m1710 -46 c30 -36 48
-49 61 -46 30 8 20 -7 -18 -26 l-35 -17 -13 32 c-7 18 -16 41 -19 51 -7 19
-28 22 -44 6 -15 -15 -33 -3 -33 21 0 17 14 26 47 29 6 0 30 -22 54 -50z
m-836 1 c3 -5 2 -10 -4 -10 -5 0 -13 5 -16 10 -3 6 -2 10 4 10 5 0 13 -4 16
-10z m592 -8 c-1 -21 -37 -28 -37 -7 0 12 13 22 32 24 4 1 6 -7 5 -17z m-492
-6 c41 -18 46 -48 11 -64 -18 -8 -28 -8 -39 1 -24 19 -31 77 -10 77 2 0 19 -7
38 -14z m602 -11 c8 -9 28 -19 44 -22 35 -7 39 -23 6 -23 -13 0 -28 -5 -34
-11 -16 -16 -50 5 -55 35 -4 21 1 30 20 35 2 1 10 -6 19 -14z m1131 -19 c-22
-16 -23 -39 -4 -55 12 -10 18 -7 31 18 20 39 38 39 67 1 12 -16 26 -30 31 -30
5 0 18 -11 29 -25 11 -14 29 -25 40 -25 17 0 18 -2 8 -15 -18 -22 -25 -19 -63
21 -32 35 -57 39 -57 10 0 -6 16 -27 35 -46 29 -28 32 -36 23 -53 -10 -20 -11
-20 -24 6 -9 17 -20 24 -29 21 -31 -12 -10 -67 30 -78 11 -3 3 -3 -19 -1 -21
2 -46 11 -56 20 -19 17 -50 11 -50 -10 0 -16 47 -55 66 -55 27 0 14 -28 -15
-35 -16 -3 -35 -13 -42 -21 -10 -12 -7 -20 16 -44 29 -30 29 -32 9 -132 -6
-30 -65 -81 -86 -73 -10 4 -12 44 -10 193 2 103 8 191 13 197 13 13 11 69 -3
84 -11 10 -10 14 3 21 10 6 15 22 14 52 -2 50 9 68 39 68 20 -1 20 -2 4 -14z
m-1370 -12 c29 -8 28 -18 -4 -33 -30 -13 -44 -7 -44 20 0 20 10 23 48 13z
m115 -28 c3 -7 1 -18 -6 -25 -7 -7 -7 -17 1 -36 10 -21 9 -26 -8 -35 -24 -13
-33 0 -24 34 8 31 -17 45 -44 25 -15 -13 -16 -12 -3 4 7 9 19 17 26 17 7 0 18
7 25 15 16 19 26 19 33 1z m-313 -6 c13 -7 21 -7 25 1 5 7 13 5 26 -7 11 -10
28 -15 43 -12 21 4 24 2 16 -11 -37 -62 -74 -77 -90 -36 -5 13 -18 30 -30 37
-11 7 -20 18 -20 25 0 16 6 16 30 3z m-650 -4 c0 -3 -4 -8 -10 -11 -5 -3 -10
-1 -10 4 0 6 5 11 10 11 6 0 10 -2 10 -4z m1028 -8 c18 -18 15 -28 -8 -28 -11
0 -20 2 -20 4 0 2 -3 11 -6 20 -7 19 16 22 34 4z m316 -13 c-4 -8 -10 -12 -15
-9 -11 6 -2 24 11 24 5 0 7 -7 4 -15z m244 -8 l32 -24 -43 -13 c-94 -30 -159
-21 -171 23 -3 11 -3 23 -1 27 2 4 37 7 77 8 64 2 78 -1 106 -21z m-348 -4
c13 2 44 -22 37 -29 -13 -13 -82 10 -85 29 -3 14 0 16 20 8 13 -5 25 -8 28 -8z
m-88 -30 c28 -25 154 -53 241 -53 45 0 99 0 120 0 38 -1 153 36 163 51 3 5 24
9 47 8 39 0 40 -1 17 -11 -14 -6 -65 -30 -115 -54 -149 -71 -173 -73 -330 -37
-38 9 -85 25 -103 35 -18 10 -37 18 -43 18 -10 0 -77 28 -88 37 -2 1 2 10 9
18 15 19 55 13 82 -12z m-534 -8 c6 -28 31 -55 48 -48 29 11 25 -28 -8 -79
-45 -68 -65 -108 -93 -188 -69 -190 -80 -215 -102 -218 -17 -3 -24 3 -29 24
-4 15 -15 35 -26 46 -18 18 -21 18 -50 3 -68 -33 -101 -13 -101 63 0 128 6
151 45 165 10 3 10 9 0 26 -19 32 0 54 34 41 27 -11 28 -9 39 52 3 21 1 39 -5
43 -15 9 -2 25 34 40 26 11 36 11 65 -1 44 -18 71 -18 71 2 0 8 5 24 10 34 14
26 63 22 68 -5z m1882 16 c0 -10 -24 -21 -48 -21 -13 0 -12 3 4 15 21 16 44
19 44 6z m-3126 -7 c9 -3 16 -13 16 -20 0 -8 7 -17 15 -20 35 -14 5 -127 -37
-139 -12 -4 -30 -14 -39 -21 -44 -39 -202 11 -184 59 10 24 18 21 38 -13 10
-16 29 -33 43 -36 72 -18 164 39 164 102 0 51 -48 76 -80 42 l-20 -22 0 22 c0
13 11 27 28 36 31 18 35 18 56 10z m1510 -40 c4 -10 -7 -31 -28 -56 -19 -22
-46 -64 -61 -94 -14 -29 -30 -56 -35 -59 -7 -4 -42 -93 -45 -115 0 -3 -6 -15
-13 -28 -7 -12 -15 -35 -17 -50 -9 -54 -43 -198 -53 -223 -6 -14 -13 -52 -17
-85 -4 -32 -11 -63 -15 -69 -4 -5 -11 -30 -15 -55 -7 -42 -27 -92 -61 -150 -9
-16 -12 -37 -8 -60 8 -40 8 -38 -5 -109 -12 -63 2 -193 25 -228 14 -22 13 -22
-50 -22 l-64 0 -4 57 c-6 76 -2 391 5 418 3 12 8 37 11 55 3 19 10 50 16 69 5
19 10 47 10 62 0 33 92 340 127 423 54 129 134 264 194 327 36 37 37 37 67 23
16 -9 33 -23 36 -31z m471 26 c3 -5 1 -10 -4 -10 -6 0 -11 5 -11 10 0 6 2 10
4 10 3 0 8 -4 11 -10z m545 -26 c0 -14 -4 -23 -10 -19 -5 3 -10 15 -10 26 0
10 5 19 10 19 6 0 10 -12 10 -26z m-791 -106 c11 -32 5 -35 -22 -11 -18 17
-20 17 -37 -5 -10 -12 -24 -22 -31 -22 -17 0 -59 -40 -59 -56 0 -6 33 -34 73
-60 39 -27 77 -54 82 -59 30 -31 42 -36 71 -23 16 6 36 12 44 13 10 0 14 9 12
30 -4 55 -5 60 -1 93 2 17 7 32 11 32 14 0 56 -98 67 -156 7 -33 18 -86 26
-119 17 -71 26 -140 19 -132 -6 6 -36 111 -58 202 -8 32 -18 51 -29 53 -26 5
-22 -39 14 -164 37 -128 46 -147 65 -140 17 6 27 -13 43 -79 17 -68 71 -165
93 -165 28 0 30 18 7 50 -13 16 -20 32 -17 36 10 9 57 -70 48 -80 -27 -28
-207 -29 -196 -1 3 8 -6 49 -20 92 -30 93 -28 83 -49 214 -29 188 -42 226 -66
202 -5 -5 -3 -39 6 -83 9 -41 22 -118 30 -170 8 -52 28 -133 44 -179 31 -83
31 -83 8 -78 -12 3 -60 13 -107 22 -118 24 -115 22 -100 40 10 12 9 22 -3 48
-21 44 -47 66 -120 102 -54 26 -66 37 -92 87 -36 67 -92 147 -118 168 -18 15
-18 19 -4 60 23 67 38 99 75 158 l33 53 27 -19 c39 -28 79 -35 86 -17 6 16
-39 45 -69 45 -21 0 -19 40 5 68 18 22 20 22 50 7 17 -9 36 -27 42 -40 13 -28
36 -33 45 -9 3 9 -5 26 -21 43 -14 15 -26 37 -26 50 0 20 5 17 55 -26 30 -26
59 -60 64 -75z m-1034 65 c9 -22 10 -22 100 -11 31 4 32 -36 1 -63 -21 -18
-23 -25 -15 -41 26 -48 -15 -118 -68 -118 -19 0 -21 4 -16 36 6 33 4 36 -18
32 -15 -2 -30 -15 -41 -37 -26 -53 -38 -60 -38 -23 0 21 -5 32 -14 32 -32 0
-26 147 7 192 25 32 88 33 102 1z m1733 3 c-14 -14 -28 -29 -29 -35 -2 -5 -26
-18 -54 -29 -55 -22 -67 -37 -35 -47 25 -8 91 31 131 78 16 19 36 31 53 32
l27 1 -6 -114 c-3 -63 -5 -158 -6 -212 -1 -98 -1 -98 -27 -103 -25 -6 -52 -43
-52 -73 0 -17 -68 -26 -108 -15 -28 8 -71 45 -72 61 0 3 38 5 85 5 69 0 88 3
102 19 18 18 16 18 -45 12 -46 -4 -73 -1 -104 11 -31 12 -43 13 -46 5 -2 -7
-13 -10 -28 -6 -33 8 -55 -12 -48 -42 5 -20 2 -24 -18 -24 -27 0 -59 31 -98
95 -13 22 -26 42 -29 45 -13 11 -41 69 -40 82 0 7 5 3 12 -10 13 -28 109 -79
157 -84 29 -2 35 0 35 17 0 15 -9 21 -35 26 -53 10 -118 46 -125 70 -5 15 -13
20 -29 17 -16 -3 -25 2 -33 19 -6 13 -8 23 -5 24 4 0 39 2 78 2 39 1 77 7 85
14 8 6 34 19 59 29 43 17 111 61 118 76 8 17 114 73 147 77 5 0 -2 -10 -17
-23z m626 -1 c-7 -16 -24 -21 -24 -6 0 8 7 13 27 20 1 1 0 -6 -3 -14z m-784
-23 c0 -4 -17 -16 -37 -27 -21 -11 -40 -22 -43 -25 -24 -25 -128 -53 -188 -51
-24 1 -50 -3 -57 -9 -13 -11 -33 11 -48 54 -7 16 -4 18 30 11 21 -4 54 -9 73
-11 19 -3 40 -11 46 -20 10 -12 13 -12 17 -1 3 8 27 20 54 27 26 7 53 16 58
20 6 4 25 11 42 15 18 3 35 11 38 16 7 11 15 12 15 1z m-468 -33 c26 -27 29
-36 23 -67 -4 -21 -14 -49 -23 -64 -14 -24 -14 -29 2 -52 16 -26 16 -26 -10
-26 -19 0 -25 4 -20 15 11 29 -5 45 -43 45 -50 0 -91 40 -70 67 7 10 14 20 16
22 1 2 21 -13 43 -33 23 -21 47 -35 53 -33 17 5 18 61 2 113 -7 24 -11 44 -8
44 3 0 19 -14 35 -31z m1106 -120 c-2 -6 -8 -10 -13 -10 -5 0 -11 4 -13 10 -2
6 4 11 13 11 9 0 15 -5 13 -11z m-2298 -237 c0 -15 4 -32 10 -38 6 -6 1 -22
-15 -46 -14 -20 -25 -41 -25 -46 0 -5 -6 -15 -14 -21 -16 -14 -21 -4 -31 61
-10 64 17 114 63 117 7 1 12 -11 12 -27z m806 -52 c6 0 14 -17 18 -38 8 -50
70 -122 128 -147 51 -22 108 -72 108 -96 0 -9 -12 -24 -26 -34 -14 -9 -22 -21
-18 -25 5 -5 59 -18 119 -30 123 -24 170 -34 234 -50 24 -6 57 -8 72 -5 15 3
30 1 34 -4 9 -16 18 -14 60 15 21 14 47 23 59 21 21 -3 21 -4 1 -12 -11 -4
-41 -28 -67 -54 -51 -49 -61 -84 -31 -106 16 -12 15 -13 -10 -12 -18 2 -27 7
-27 20 0 24 -23 21 -35 -5 -6 -13 -19 -23 -30 -23 -17 0 -20 -6 -18 -37 2 -31
-1 -38 -17 -38 -14 0 -20 8 -22 33 -4 40 -21 38 -28 -3 -7 -42 -24 -39 -28 5
-3 30 -6 34 -18 24 -8 -6 -14 -25 -14 -41 0 -41 -24 -31 -28 11 -4 41 -26 36
-30 -7 -5 -47 -27 -39 -29 10 -3 46 -7 53 -22 43 -6 -3 -11 -24 -11 -46 0 -21
-4 -39 -10 -39 -5 0 -10 15 -10 34 0 18 -6 39 -14 45 -19 16 -28 0 -24 -41 2
-23 -1 -32 -14 -34 -19 -2 -24 19 -19 85 1 23 -2 32 -11 29 -8 -3 -14 -25 -16
-56 -2 -29 -7 -52 -12 -52 -19 0 -27 33 -18 78 4 26 6 53 3 61 -9 23 -34 -7
-38 -47 -2 -20 -4 -8 -3 28 1 51 -2 65 -14 65 -17 0 -28 -34 -29 -99 -1 -32
-4 -47 -11 -40 -12 12 -14 58 -5 112 8 43 0 53 -23 30 -9 -9 -12 -8 -12 4 0 9
15 28 33 42 23 18 27 26 15 26 -28 0 -67 -22 -73 -42 -4 -10 -11 -18 -17 -18
-7 0 -9 25 -4 79 5 69 4 81 -13 102 -26 32 -47 15 -31 -25 7 -18 7 -33 0 -46
-28 -52 11 -171 58 -178 20 -3 22 -9 22 -63 0 -81 -33 -79 -75 6 -32 66 -59
105 -72 105 -20 0 -16 -15 27 -105 42 -89 58 -103 117 -111 42 -5 48 -8 38
-23 -15 -25 -118 -3 -145 31 -13 16 -18 17 -33 5 -11 -7 -16 -19 -12 -28 8
-22 77 -59 109 -59 16 0 25 -4 21 -10 -10 -16 -116 -11 -164 8 -30 11 -50 28
-62 49 -17 30 -17 39 -4 143 9 61 19 119 24 128 14 26 51 179 61 252 5 36 14
83 19 105 6 22 15 65 22 95 6 30 14 59 17 64 3 5 19 -7 36 -27 17 -20 36 -37
42 -37z m826 -50 c12 -9 22 -70 11 -70 -13 0 -53 78 -53 103 0 21 1 20 17 -3
9 -14 20 -27 25 -30z m258 41 c0 -12 -20 -25 -27 -18 -7 7 6 27 18 27 5 0 9
-4 9 -9z m-1634 -37 c14 -32 14 -38 0 -53 -21 -23 -20 -31 2 -29 50 4 55 0 49
-42 -6 -47 5 -58 52 -54 26 2 34 -2 38 -17 3 -10 11 -19 18 -19 9 0 11 -9 5
-34 -4 -18 -10 -38 -13 -44 -4 -5 -10 -52 -13 -103 -7 -101 -12 -112 -57 -135
-26 -14 -31 -14 -47 1 -10 9 -21 28 -25 42 -5 20 -10 24 -28 18 -73 -24 -110
-11 -118 40 -8 49 50 129 80 111 13 -8 1 31 -13 43 -6 5 -22 11 -35 13 -35 4
-47 55 -31 130 12 56 17 62 56 61 7 0 9 17 6 49 -5 49 -4 50 17 39 17 -10 22
-9 27 4 9 22 13 19 30 -21z m1234 -24 c5 0 10 -10 12 -22 2 -13 8 -22 13 -21
6 1 10 -12 11 -28 1 -16 9 -37 18 -47 16 -18 23 -92 8 -92 -4 0 -13 15 -20 33
-7 17 -19 46 -27 62 -19 41 -43 143 -36 151 3 3 7 -4 9 -15 2 -12 7 -21 12
-21z m91 -27 c10 -27 6 -53 -8 -53 -9 0 -35 55 -38 82 -3 27 34 3 46 -29z
m-1537 11 c9 -23 -3 -56 -17 -51 -7 2 -12 9 -11 15 1 7 2 21 3 32 1 24 16 26
25 4z m1704 -24 c13 -21 10 -23 -25 -14 -13 4 -23 13 -23 20 0 21 33 17 48 -6z
m62 5 c0 -8 -4 -15 -9 -15 -13 0 -22 16 -14 24 11 11 23 6 23 -9z m300 -60
c85 -4 193 -7 240 -8 l85 -2 0 -50 0 -50 -155 4 c-85 2 -160 8 -167 13 -7 5
-22 11 -35 12 -13 2 -42 8 -65 15 -39 11 -46 9 -110 -23 -46 -23 -72 -31 -80
-25 -6 6 -55 8 -112 6 -70 -3 -101 -1 -102 7 0 6 -2 28 -5 48 -3 22 0 39 7 44
7 4 63 8 126 9 62 1 116 5 119 7 2 3 26 4 52 2 26 -2 117 -6 202 -9z m-2082
-17 c34 -9 45 -41 17 -51 -7 -3 -24 -29 -36 -56 -24 -56 -39 -58 -39 -6 0 22
-7 39 -20 48 -19 13 -19 15 -2 50 12 25 22 35 32 31 8 -4 30 -10 48 -16z
m1439 -30 c-3 -8 -6 -5 -6 6 -1 11 2 17 5 13 3 -3 4 -12 1 -19z m23 -44 c0 -8
-4 -12 -10 -9 -5 3 -10 13 -10 21 0 8 5 12 10 9 6 -3 10 -13 10 -21z m525 -24
c3 -5 -3 -10 -14 -10 -20 0 -38 -17 -28 -27 3 -2 24 -9 47 -14 42 -10 89 -37
90 -52 0 -5 -5 -5 -12 -1 -6 4 -35 8 -65 10 -41 2 -55 -1 -60 -12 -9 -24 6
-30 106 -37 22 -1 39 -10 49 -25 12 -18 12 -22 1 -18 -8 2 -43 7 -77 11 -57 6
-63 4 -60 -11 3 -20 35 -32 89 -33 20 -1 42 -8 49 -16 11 -13 5 -15 -46 -17
-88 -2 -90 -3 -107 -17 -25 -20 -106 -41 -160 -41 -57 0 -179 28 -188 42 -4 6
-2 23 4 39 14 37 8 42 -43 30 l-42 -9 23 24 c12 13 30 24 40 24 9 0 22 7 29
15 7 9 19 14 27 11 7 -3 51 17 97 44 47 28 91 50 98 50 7 0 36 11 63 25 54 26
80 31 90 15z m-2104 -43 c-17 -17 -13 -27 14 -37 14 -5 24 -13 23 -17 0 -5 2
-16 7 -26 9 -20 -21 -87 -42 -94 -7 -3 -15 7 -19 21 -3 14 -15 42 -25 62 -17
34 -17 39 -2 68 8 17 23 39 32 50 15 17 16 17 19 1 2 -9 -1 -22 -7 -28z m159
28 c0 -9 13 -23 29 -32 l28 -17 -28 -24 c-30 -25 -48 -72 -41 -108 7 -38 56
-82 98 -89 22 -3 46 -10 54 -16 40 -26 89 -42 128 -42 41 0 42 -1 42 -34 0
-19 -5 -43 -10 -54 -14 -25 -40 -25 -33 0 7 27 -22 33 -43 9 -18 -19 -18 -21
-2 -32 16 -12 16 -15 -7 -36 -33 -31 -33 -73 1 -107 14 -14 23 -27 21 -30 -3
-2 -31 -1 -63 2 l-59 7 3 42 c3 35 9 46 32 60 51 29 52 99 3 162 -32 43 -72
58 -130 50 -37 -5 -48 -3 -58 11 -8 11 -25 17 -49 16 -20 -1 -36 1 -36 3 0 5
28 79 45 119 7 17 23 58 36 93 23 60 39 79 39 47z m2073 -27 c22 -27 13 -37
-12 -14 -11 10 -37 24 -58 32 l-38 15 45 -6 c29 -3 52 -13 63 -27z m812 5 c81
-25 170 -80 240 -147 36 -35 65 -68 65 -74 0 -6 -7 -17 -16 -24 -55 -44 -84
-85 -84 -116 0 -39 -15 -72 -33 -72 -7 0 -29 -14 -49 -30 -30 -25 -39 -41 -48
-87 -9 -40 -9 -62 -1 -79 l11 -24 -41 21 c-57 29 -139 36 -181 16 -75 -36
-148 -138 -148 -207 0 -16 -3 -30 -7 -30 -8 1 -70 54 -135 116 -35 35 -53 61
-149 224 -46 78 -53 90 -81 120 -9 10 -14 20 -12 23 2 2 -2 10 -10 16 -13 11
-13 16 -2 34 8 12 17 44 21 70 8 58 51 112 119 148 l45 23 40 -22 c36 -20 41
-21 55 -6 9 8 16 20 16 25 0 6 8 9 18 8 32 -3 39 1 50 27 29 63 189 87 317 47z
m-1344 -3 c26 -15 24 -30 -5 -30 -15 0 -26 7 -29 20 -6 22 5 25 34 10z m99
-10 c0 -5 -6 -10 -14 -10 -8 0 -18 5 -21 10 -3 6 3 10 14 10 12 0 21 -4 21
-10z m-1857 -145 c3 -11 8 -32 11 -47 4 -19 13 -28 26 -28 24 0 24 -3 4 -60
-21 -60 -21 -145 0 -169 9 -10 29 -44 45 -77 31 -64 53 -89 73 -81 7 2 29 -2
48 -10 31 -12 36 -12 46 2 9 13 17 13 40 4 21 -8 93 -9 254 -3 238 8 304 10
765 18 160 3 306 8 325 10 88 11 410 17 410 8 0 -6 3 -18 6 -26 6 -15 -23 -16
-297 -17 -167 0 -360 -2 -429 -4 -69 -1 -387 -6 -707 -10 l-582 -7 -11 42
c-27 101 -59 366 -60 495 0 19 0 19 14 0 7 -11 16 -29 19 -40z m234 3 c-3 -7
-5 -2 -5 12 0 14 2 19 5 13 2 -7 2 -19 0 -25z m2108 -90 c9 -78 29 -128 54
-135 13 -3 21 -17 25 -44 3 -21 10 -39 15 -39 8 0 61 -74 61 -85 0 -3 -16 -5
-36 -5 -21 0 -33 4 -29 10 3 6 -3 23 -14 39 -12 16 -21 32 -21 36 0 6 -72 131
-100 175 -22 33 -21 42 4 65 15 14 24 30 21 35 -3 6 -2 10 3 10 6 0 13 -28 17
-62z m-599 -57 c-9 -10 -16 -23 -16 -29 0 -8 -9 -10 -27 -6 -38 9 -41 14 -21
28 9 6 21 31 28 55 l11 43 20 -37 c18 -34 19 -39 5 -54z m486 -3 c0 -24 0 -56
-1 -73 -3 -32 -36 -75 -58 -75 -22 0 -11 -34 12 -38 11 -2 25 -8 32 -14 17
-13 9 -87 -12 -106 -10 -9 -15 -11 -11 -4 4 6 3 12 -2 12 -6 0 -13 -7 -16 -16
-3 -8 -11 -12 -17 -9 -7 5 -4 14 8 28 17 21 16 21 -8 0 -29 -26 -48 -31 -29
-8 7 9 10 18 6 22 -3 3 -6 1 -6 -5 0 -13 -26 -16 -33 -4 -3 4 -8 22 -12 40 -5
27 -2 36 18 54 l25 22 -20 27 c-17 22 -18 29 -7 47 7 11 22 23 33 26 15 4 18
8 10 16 -8 8 -19 8 -38 0 -37 -14 -24 4 14 20 29 12 41 30 20 30 -11 0 -14 33
-3 43 3 4 26 7 50 7 l43 0 2 -42z m-600 -3 c-4 -31 -8 -35 -33 -35 -15 0 -31
5 -34 10 -3 6 3 10 15 10 13 0 24 9 30 25 14 36 27 31 22 -10z m-1481 13 c1
-7 2 -19 3 -27 1 -16 26 -28 26 -13 0 13 47 28 89 27 46 0 83 -50 74 -98 -8
-45 -22 -60 -40 -46 -20 17 -83 13 -104 -7 -25 -22 -42 -84 -28 -100 7 -8 7
-14 -1 -19 -13 -8 -30 2 -30 18 0 7 -16 38 -35 69 -21 35 -37 78 -41 108 -6
47 -5 52 15 57 12 3 21 13 21 24 0 14 7 19 25 19 14 0 26 -6 26 -12z m1857
-53 c34 -53 26 -62 -13 -15 -19 23 -35 46 -35 51 0 17 25 -2 48 -36z m-108 25
c0 -5 -2 -10 -4 -10 -3 0 -8 5 -11 10 -3 6 -1 10 4 10 6 0 11 -4 11 -10z
m-840 -20 c0 -5 -2 -10 -4 -10 -3 0 -8 5 -11 10 -3 6 -1 10 4 10 6 0 11 -4 11
-10z m740 -40 c-9 -17 -5 -27 22 -61 18 -22 50 -53 71 -69 48 -35 42 -37 -111
-39 -110 -2 -113 -2 -103 17 8 15 7 23 -4 32 -16 13 -20 40 -7 40 4 0 13 -5
19 -11 14 -14 78 46 93 86 5 14 14 25 20 25 8 0 7 -6 0 -20z m61 -2 c6 -12 32
-44 58 -72 40 -43 41 -46 13 -25 -36 26 -108 119 -92 119 5 0 15 -10 21 -22z
m174 -78 c31 0 41 -16 18 -29 -15 -7 -27 -1 -58 28 -22 21 -48 53 -59 72 -15
28 -10 25 29 -18 31 -36 54 -53 70 -53z m-416 81 c10 -7 11 -13 2 -30 -7 -11
-9 -21 -6 -21 4 0 4 -4 0 -9 -3 -6 -17 -6 -35 0 -23 8 -34 7 -52 -5 -28 -20
-38 -20 -38 -2 0 23 -22 31 -32 12 -7 -13 -13 -14 -23 -6 -9 8 -17 7 -29 -5
-9 -9 -16 -21 -16 -27 0 -6 -7 -16 -16 -22 -13 -10 -24 -3 -65 37 -27 26 -49
52 -49 57 0 5 26 8 58 7 66 -2 264 11 271 18 6 7 14 6 30 -4z m681 -15 c0 -6
13 -33 30 -59 16 -26 25 -47 20 -47 -6 0 -10 4 -10 8 0 5 -15 26 -33 48 -18
21 -31 47 -29 57 4 19 22 14 22 -7z m-1086 -19 c7 -28 97 -107 123 -107 18 -1
53 -22 53 -33 0 -4 -15 -4 -32 0 -33 6 -93 44 -114 73 -7 8 -21 26 -33 39 -22
25 -28 51 -12 51 5 0 11 -10 15 -23z m-49 -37 c4 -11 18 -34 32 -50 25 -30 21
-40 -7 -17 -21 16 -60 68 -60 78 0 18 29 8 35 -11z m-80 -17 c9 -16 35 -45 58
-65 l41 -38 -36 0 c-29 0 -43 8 -77 45 -39 43 -49 64 -34 78 13 14 31 6 48
-20z m-569 5 c14 -23 22 -98 10 -98 -24 0 -56 32 -56 55 0 48 27 74 46 43z
m-255 -29 c26 -26 21 -48 -16 -70 -40 -23 -45 -23 -45 5 0 31 20 86 31 86 5 0
18 -9 30 -21z m2054 -39 c18 -19 17 -20 -3 -20 -15 0 -22 6 -22 20 0 11 2 20
3 20 2 0 12 -9 22 -20z m-1402 -14 c20 -30 12 -33 -63 -26 -36 3 -49 8 -37 12
9 4 17 14 17 23 0 26 65 20 83 -9z m1477 3 c0 -5 -4 -9 -10 -9 -5 0 -10 7 -10
16 0 8 5 12 10 9 6 -3 10 -10 10 -16z m0 -64 c-14 -8 -49 -14 -79 -15 -46 0
-52 2 -41 15 9 11 32 15 79 15 62 -1 65 -2 41 -15z m151 -17 c10 -13 18 -29
19 -35 0 -7 5 -13 10 -13 6 0 10 -6 10 -14 0 -16 59 -78 153 -161 64 -57 92
-95 45 -62 -13 9 -42 26 -65 38 -24 13 -43 26 -43 30 0 4 -18 25 -41 46 -63
58 -135 166 -123 184 8 14 14 11 35 -13z m-61 -69 c0 -6 -4 -7 -10 -4 -5 3
-10 11 -10 16 0 6 5 7 10 4 6 -3 10 -11 10 -16z m-30 -64 c0 -8 -4 -15 -10
-15 -5 0 -10 7 -10 15 0 8 5 15 10 15 6 0 10 -7 10 -15z m93 -15 c16 -16 25
-30 20 -30 -13 0 -53 39 -53 50 0 14 2 13 33 -20z m-278 8 c4 -3 -3 -12 -15
-18 -18 -9 -28 -9 -46 1 -18 9 -27 10 -35 2 -14 -14 -3 -33 17 -33 17 0 17
-10 0 -33 -12 -15 -17 -16 -34 -6 -11 7 -28 9 -38 5 -17 -7 -16 -10 14 -34 33
-28 35 -50 2 -30 -9 6 -26 8 -36 4 -19 -7 -19 -8 0 -21 10 -8 24 -16 29 -18 6
-2 7 -11 4 -21 -6 -15 -10 -16 -22 -6 -8 6 -19 9 -25 5 -17 -11 -11 -33 11
-40 13 -4 18 -12 15 -22 -3 -8 -6 -21 -6 -29 0 -12 -4 -12 -21 -4 -15 9 -24 8
-35 -1 -20 -17 -17 -27 8 -31 13 -2 24 -11 26 -21 3 -15 0 -18 -18 -12 -20 6
-50 -9 -50 -25 0 -5 13 -13 30 -18 20 -8 28 -16 24 -26 -5 -12 -11 -13 -30 -4
-17 8 -27 8 -39 -2 -22 -18 -19 -26 15 -40 17 -7 30 -16 30 -21 0 -16 -20 -19
-40 -7 -18 11 -23 10 -35 -6 -8 -10 -12 -23 -9 -28 3 -5 -2 -15 -12 -23 -18
-13 -18 -14 4 -38 21 -22 21 -24 5 -40 -14 -12 -23 -13 -37 -5 -14 8 -22 6
-35 -7 -15 -15 -15 -17 3 -30 16 -12 17 -17 6 -30 -12 -14 -15 -14 -30 0 -21
19 -34 19 -50 0 -10 -12 -8 -18 11 -34 27 -22 21 -38 -9 -22 -15 8 -23 6 -36
-8 -10 -11 -13 -21 -7 -25 5 -4 2 -15 -10 -29 -67 -80 -89 -111 -89 -128 0
-10 -7 -19 -15 -19 -24 0 -55 -60 -55 -107 0 -47 -11 -54 -34 -22 -24 35 -119
27 -163 -13 -33 -31 -92 -29 -131 4 -17 14 -29 28 -26 31 3 2 -17 7 -45 11
-58 8 -97 -5 -106 -35 l-7 -22 -17 20 c-9 11 -26 26 -39 32 -30 16 -96 -2
-129 -35 -28 -28 -35 -30 -31 -8 4 23 -16 28 -36 9 -15 -15 -16 -15 -16 0 0
13 -6 16 -26 12 -14 -2 -31 1 -37 8 -7 6 -29 17 -49 24 -30 10 -43 9 -73 -4
-21 -8 -39 -15 -40 -15 -2 0 -8 23 -14 52 -13 59 -26 78 -52 78 -12 0 -21 10
-25 26 -4 15 -27 52 -53 83 -36 44 -40 52 -18 39 14 -10 35 -18 47 -18 11 0
20 -7 20 -15 0 -26 61 -84 102 -97 21 -6 43 -19 48 -29 21 -38 101 -44 172
-13 32 14 44 15 83 4 34 -9 48 -10 59 -1 10 8 21 9 42 0 19 -7 51 -8 94 -2 36
4 81 6 100 5 19 -2 51 2 71 8 33 11 40 10 66 -9 30 -23 62 -26 127 -15 29 5
53 20 88 55 27 27 59 54 72 61 37 20 96 76 96 91 0 7 23 35 51 62 114 112 177
223 223 390 52 187 58 206 76 223 9 9 20 32 24 51 10 55 26 66 99 66 36 0 68
-3 72 -7z m-845 -13 c0 -16 -9 -19 -34 -9 -25 9 -19 24 9 24 16 0 25 -6 25
-15z m190 5 c0 -5 -4 -10 -9 -10 -6 0 -13 5 -16 10 -3 6 1 10 9 10 9 0 16 -4
16 -10z m149 -4 c14 -17 -1 -30 -34 -31 -22 0 -45 -38 -45 -75 0 -14 -16 -53
-36 -86 -28 -48 -45 -64 -85 -83 -27 -13 -49 -28 -49 -33 0 -16 31 -21 56 -8
43 23 33 6 -22 -38 -44 -35 -52 -38 -43 -20 11 26 -2 78 -21 78 -5 0 -10 7
-10 15 0 8 7 15 16 15 10 0 41 16 70 35 63 42 89 88 89 159 0 31 5 51 13 54 6
2 12 10 12 18 0 19 73 19 89 0z m-1179 -11 c0 -9 7 -18 15 -21 8 -4 15 -14 15
-24 0 -11 5 -22 10 -25 6 -3 7 -17 4 -29 -4 -19 6 -36 55 -85 67 -68 74 -91
43 -147 -21 -39 -93 -117 -128 -141 -25 -16 -27 -16 -40 1 -19 27 3 64 60 100
44 28 76 64 76 86 0 6 -17 27 -37 48 -21 20 -50 59 -65 85 -25 42 -30 47 -48
37 -20 -11 -20 -12 6 -58 l27 -47 -37 -37 c-20 -20 -36 -43 -36 -51 0 -8 -22
-24 -49 -36 -58 -24 -68 -26 -74 -8 -11 31 50 99 98 109 13 2 19 11 18 23 -1
11 5 24 13 28 16 9 19 33 5 41 -5 3 -27 -4 -49 -17 -22 -12 -44 -18 -49 -14
-10 11 34 45 68 52 25 6 49 40 49 69 0 7 -9 25 -20 39 l-20 26 22 3 c58 8 68
7 68 -7z m147 -6 c-26 -15 -10 -31 24 -24 18 4 29 3 29 -4 0 -6 -9 -11 -20
-11 -12 0 -32 -7 -45 -16 -20 -13 -28 -14 -40 -4 -23 19 -19 43 5 35 11 -3 20
-2 20 4 0 14 31 43 39 36 3 -4 -2 -11 -12 -16z m332 -18 c-36 -45 -50 -53 -97
-56 -22 -1 -44 -12 -60 -29 -36 -36 -118 -96 -131 -96 -6 0 -11 9 -11 21 0 11
-7 27 -16 36 -19 20 -14 57 8 61 10 2 30 -6 44 -17 32 -25 62 -27 71 -4 4 11
-3 24 -22 39 -24 19 -27 25 -16 38 21 26 51 20 51 -9 0 -30 14 -32 37 -5 21
25 49 26 62 3 9 -17 11 -17 27 -1 17 17 17 18 -1 38 -18 20 -18 20 34 20 l52
0 -32 -39z m221 33 c0 -4 -11 -17 -25 -30 -28 -26 -33 -19 -9 14 14 21 34 30
34 16z m260 -12 c16 -13 21 -26 18 -52 l-4 -35 -17 41 c-10 23 -28 46 -40 52
l-22 11 21 0 c12 1 32 -7 44 -17z m-1100 -2 c-8 -5 -24 -9 -35 -9 l-20 0 20 9
c11 5 27 9 35 9 13 1 13 0 0 -9z m1370 -5 c0 -14 79 -55 107 -55 17 0 93 -42
93 -52 0 -20 -25 -17 -56 7 -35 27 -64 30 -71 8 -3 -7 6 -17 19 -22 13 -5 36
-21 51 -37 25 -25 28 -34 22 -68 -8 -52 -35 -135 -46 -142 -5 -3 -9 -15 -9
-27 0 -15 -11 -2 -31 38 -17 33 -40 72 -51 88 -24 33 -19 34 28 2 40 -27 74
-33 74 -12 0 20 -14 35 -43 46 -15 6 -27 17 -27 26 0 19 5 19 40 -1 28 -17 67
-13 55 6 -4 6 -24 19 -45 30 -32 16 -40 27 -45 57 -10 60 -13 63 -48 63 -31 0
-34 3 -34 30 0 17 4 30 9 30 4 0 8 -7 8 -15z m124 -3 c27 -9 51 -23 54 -30 4
-12 -84 21 -102 39 -14 12 -8 12 48 -9z m116 8 c0 -5 -2 -10 -4 -10 -3 0 -8 5
-11 10 -3 6 -1 10 4 10 6 0 11 -4 11 -10z m360 -96 c0 -57 -9 -66 -56 -58 -39
7 -44 12 -43 42 0 15 3 21 6 15 2 -7 18 -13 34 -13 22 0 29 5 29 18 0 30 -35
55 -68 49 -22 -4 -29 -2 -29 10 0 9 9 18 19 21 10 2 18 8 18 13 0 4 20 -4 45
-19 43 -26 44 -28 45 -78z m-2138 75 c-25 -16 -36 -19 -45 -10 -6 6 -22 11
-36 12 -46 1 6 15 63 17 l51 2 -33 -21z m-113 7 c-2 -2 -14 -9 -26 -15 -19
-10 -23 -9 -23 4 0 10 9 15 27 15 14 0 24 -2 22 -4z m1031 -25 c5 -11 10 -22
10 -24 0 -8 -38 -15 -45 -9 -3 3 -15 7 -27 9 -30 5 -33 10 -18 28 18 22 67 19
80 -4z m165 11 c6 -4 15 -25 20 -47 10 -40 28 -52 54 -36 12 8 12 12 2 25 -21
25 -10 61 20 64 33 4 47 -13 51 -63 3 -36 6 -40 31 -43 17 -2 37 4 48 14 15
13 19 14 19 3 -1 -25 -44 -67 -90 -88 -41 -18 -46 -18 -62 -4 -9 8 -23 13 -31
10 -10 -4 -13 1 -9 19 5 28 -13 54 -37 54 -20 0 -101 42 -101 52 0 5 9 17 20
28 20 20 47 25 65 12z m-1061 -57 c-53 -52 -74 -65 -74 -47 0 18 104 101 127
102 2 0 -23 -25 -53 -55z m2271 23 c97 -39 138 -60 208 -105 40 -25 77 -53 84
-62 33 -46 61 -122 67 -181 5 -62 5 -64 -9 -32 -15 35 -26 40 -44 18 -9 -10
-9 -20 -3 -33 11 -20 32 -201 29 -243 -4 -51 15 -359 28 -465 8 -60 17 -139
20 -175 9 -106 26 -233 31 -242 3 -5 8 -24 11 -41 11 -78 65 -205 115 -268 15
-20 28 -42 28 -48 0 -13 35 -33 43 -24 8 8 -20 63 -49 93 -30 33 -84 143 -96
195 -31 144 -37 191 -64 495 -3 36 -9 97 -13 135 -4 39 -9 151 -9 250 -2 195
7 213 33 65 8 -44 16 -84 19 -89 6 -9 32 -129 52 -241 8 -47 22 -110 30 -140
8 -30 20 -73 26 -95 11 -44 22 -75 39 -120 13 -32 36 -98 117 -325 74 -206
112 -280 174 -332 99 -82 134 -163 91 -210 -22 -24 -58 -25 -48 0 22 57 17
115 -11 126 -9 4 -22 2 -29 -4 -11 -9 -10 -16 1 -40 17 -32 12 -64 -15 -99
-14 -19 -27 -24 -62 -23 -50 0 -84 -18 -94 -48 -4 -12 -18 -25 -31 -30 -16 -6
-24 -16 -22 -27 3 -15 -6 -18 -62 -20 -57 -1 -87 2 -187 23 -13 2 -23 11 -23
19 0 20 -42 31 -53 13 -8 -12 -17 -10 -61 10 -80 38 -96 57 -94 113 0 35 -6
56 -23 81 -36 50 -87 99 -94 88 -6 -10 15 -50 27 -50 4 0 18 -19 32 -42 20
-35 23 -52 19 -89 -5 -45 -4 -47 38 -82 57 -47 118 -79 141 -71 10 3 29 -3 44
-15 15 -12 37 -21 50 -21 13 0 24 -5 24 -11 0 -17 -118 -6 -160 15 -19 9 -46
23 -60 31 -34 19 -120 114 -120 131 0 8 -8 22 -18 32 -24 24 -57 82 -65 113
-7 28 -22 264 -20 314 7 194 11 264 16 272 13 20 19 126 19 293 0 150 -4 192
-26 294 -14 65 -26 132 -26 149 0 40 -64 243 -89 284 -11 18 -40 44 -63 59
-24 15 -50 33 -58 41 -8 8 -23 20 -34 27 -18 12 -18 15 -2 62 8 27 18 66 20
86 8 59 20 72 85 91 53 16 61 22 69 50 5 18 7 49 4 70 -4 37 -4 38 24 32 16
-4 52 -16 79 -27z m-2085 -7 c0 -14 -88 -58 -128 -65 -41 -6 -42 -5 -32 14 6
11 22 28 36 37 40 26 124 36 124 14z m760 9 c0 -5 -7 -10 -16 -10 -8 0 -12 5
-9 10 3 6 10 10 16 10 5 0 9 -4 9 -10z m790 0 c0 -5 -4 -10 -9 -10 -6 0 -13 5
-16 10 -3 6 1 10 9 10 9 0 16 -4 16 -10z m-1837 -15 c1 -5 -11 -16 -26 -23
-16 -8 -31 -20 -34 -28 -8 -21 -23 -17 -23 5 0 36 77 79 83 46z m1587 -13 c33
-6 60 -31 53 -48 -3 -8 0 -21 7 -29 11 -13 8 -15 -16 -15 -32 0 -74 35 -74 63
0 13 -5 17 -15 13 -10 -4 -15 1 -15 15 0 16 4 19 18 14 9 -4 28 -10 42 -13z
m-630 -27 c10 -12 9 -15 -8 -15 -25 0 -44 -23 -36 -44 3 -9 1 -16 -5 -16 -24
0 -10 -50 24 -86 33 -34 38 -36 83 -32 38 4 54 0 72 -14 16 -13 32 -17 54 -12
23 4 36 1 45 -10 20 -24 3 -41 -21 -20 -16 16 -21 16 -28 4 -16 -25 -11 -48
16 -75 25 -25 27 -25 51 -10 27 18 53 7 53 -25 0 -28 -13 -32 -31 -9 l-17 22
-25 -27 c-28 -30 -39 -79 -25 -115 6 -17 3 -34 -9 -60 -18 -36 -45 -50 -125
-66 -16 -3 -28 -12 -28 -19 0 -16 -21 -26 -53 -26 -12 0 -49 14 -81 30 -32 17
-67 30 -77 30 -10 0 -36 17 -59 38 -39 38 -40 41 -40 105 0 71 -9 87 -34 61
-18 -17 -72 -11 -61 7 4 5 16 7 27 4 21 -7 58 19 58 42 0 7 -7 24 -16 37 -17
28 -3 46 21 26 12 -10 18 -10 30 0 18 15 19 40 3 75 -13 29 -21 31 -42 9 -9
-8 -16 -12 -16 -7 0 16 24 33 47 33 12 0 38 -11 58 -25 30 -20 41 -22 63 -14
41 16 62 39 62 70 0 41 -23 60 -60 49 -17 -5 -30 -7 -30 -5 0 19 17 35 37 35
31 0 63 17 63 33 0 16 20 37 36 37 6 0 17 -7 24 -15z m1035 -78 c-15 -229
-111 -439 -241 -526 -45 -31 -106 -46 -73 -18 25 20 133 149 161 192 38 57 61
114 97 245 31 113 50 170 57 170 2 0 2 -28 -1 -63z m-871 1 c17 -28 44 -40 81
-35 15 1 21 -5 23 -24 3 -25 0 -27 -37 -31 -37 -3 -41 -1 -41 19 0 15 -9 28
-26 35 -22 10 -32 9 -68 -10 -48 -26 -82 -22 -64 8 19 30 3 53 -32 45 -17 -4
-30 -2 -30 3 0 12 66 25 81 16 7 -4 9 -21 6 -40 -4 -24 -2 -34 7 -34 24 0 39
29 33 64 -5 33 -5 34 23 23 15 -6 35 -23 44 -39z m-1124 32 c0 -5 -7 -10 -15
-10 -8 0 -15 5 -15 10 0 6 7 10 15 10 8 0 15 -4 15 -10z m772 -15 c-12 -15
-18 -34 -15 -45 6 -22 -7 -26 -24 -9 -11 11 -40 -1 -90 -37 -22 -16 -23 -16
-23 9 0 20 8 30 35 43 20 9 40 25 46 35 7 14 16 17 33 13 13 -3 27 -1 30 5 4
6 12 11 17 11 6 0 2 -11 -9 -25z m-682 -4 c0 -5 -9 -12 -19 -16 -11 -3 -26
-17 -35 -30 -9 -14 -21 -25 -26 -25 -19 0 -10 31 16 55 27 25 64 34 64 16z
m84 -36 c3 -9 0 -15 -9 -15 -23 0 -82 -89 -101 -152 -18 -60 -38 -70 -27 -15
8 46 36 106 72 155 32 43 55 53 65 27z m1354 3 c17 -17 15 -29 -3 -22 -13 5
-54 -30 -55 -47 0 -4 18 -18 40 -33 22 -14 40 -31 40 -36 0 -18 -74 -10 -100
10 l-25 20 23 0 c26 0 29 15 5 28 -14 9 -13 14 13 51 31 43 42 49 62 29z
m-1568 -18 c0 -5 -2 -10 -4 -10 -3 0 -8 5 -11 10 -3 6 -1 10 4 10 6 0 11 -4
11 -10z m878 -27 c-4 -22 -38 -30 -38 -10 0 14 13 24 33 26 5 1 7 -7 5 -16z
m-404 -22 c17 -19 17 -20 -3 -31 -14 -7 -21 -7 -21 0 0 5 -12 10 -27 10 l-28
1 24 19 c29 25 34 25 55 1z m1172 -8 c28 -44 64 -113 64 -125 0 -6 7 -19 15
-28 13 -14 11 -21 -18 -63 -18 -25 -36 -45 -41 -44 -5 2 -11 18 -13 37 -2 23
-15 46 -38 68 -19 19 -35 38 -35 42 0 8 24 20 39 20 12 0 41 -68 41 -95 0 -30
16 -41 36 -24 11 9 13 23 8 53 -7 44 -65 152 -92 173 -16 11 -16 12 -1 13 9 0
25 -12 35 -27z m-1452 -18 c-10 -16 -14 -36 -11 -54 3 -15 1 -33 -4 -38 -6 -6
-21 -41 -35 -79 l-24 -69 6 75 c7 87 51 188 82 190 1 0 -5 -11 -14 -25z m-131
3 c-4 -7 -13 -29 -19 -48 -9 -32 -11 -34 -21 -15 -6 11 -9 33 -6 48 4 21 11
27 30 27 17 0 22 -4 16 -12z m587 -14 c0 -8 -5 -12 -10 -9 -6 4 -8 11 -5 16 9
14 15 11 15 -7z m-270 -70 c-31 -36 -34 -50 -19 -104 3 -9 -4 -16 -18 -18 -19
-3 -23 1 -23 23 0 34 23 82 56 118 38 42 42 24 4 -19z m920 1 c0 -8 -2 -15 -4
-15 -2 0 -6 7 -10 15 -3 8 -1 15 4 15 6 0 10 -7 10 -15z m147 -28 c17 -23 33
-53 35 -67 3 -22 -1 -25 -33 -28 -39 -3 -44 2 -60 67 -7 33 3 71 19 71 4 0 21
-20 39 -43z m-1157 -9 c-11 -24 -20 -53 -20 -65 0 -22 -37 -56 -50 -48 -12 8
6 80 26 108 15 20 40 39 61 46 1 1 -7 -18 -17 -41z m384 33 c3 -4 -6 -19 -19
-31 -24 -22 -25 -22 -25 -4 0 31 31 56 44 35z m-88 -38 c-11 -11 -17 4 -9 23
7 18 8 18 11 1 2 -10 1 -21 -2 -24z m967 2 c7 0 11 -8 9 -18 -2 -9 3 -17 11
-17 25 0 28 -27 4 -34 -23 -6 -37 8 -37 37 0 10 -7 30 -16 45 -15 25 -15 26 0
7 9 -11 22 -20 29 -20z m-1010 -35 c7 -6 20 -16 29 -23 16 -11 15 -14 -7 -41
-18 -22 -27 -27 -37 -19 -7 6 -21 12 -31 14 -15 4 -14 7 8 33 13 16 22 33 19
37 -7 12 4 11 19 -1z m1587 -15 c17 -9 30 -19 30 -23 0 -4 20 -20 45 -35 35
-22 47 -37 56 -69 6 -22 15 -48 19 -57 15 -26 40 -110 40 -132 0 -11 3 -18 8
-16 4 3 8 -41 9 -96 1 -56 11 -156 22 -222 15 -95 19 -156 16 -293 -1 -95 -5
-176 -8 -179 -3 -3 -20 11 -37 31 -25 28 -40 36 -65 36 -60 0 -64 19 -30 165
13 55 29 233 26 290 -1 6 -3 55 -5 110 -8 174 -40 332 -76 370 -12 13 -37 45
-54 72 -18 26 -38 47 -45 45 -7 -1 -10 2 -6 8 9 14 21 13 55 -5z m-2040 -2 c0
-5 -4 -14 -9 -21 -7 -11 -9 -11 -14 1 -3 8 -3 18 0 21 9 8 23 7 23 -1z m1288
-68 c23 -49 14 -61 -17 -25 -20 24 -25 37 -17 42 18 12 22 10 34 -17z m467 15
c3 -5 1 -10 -4 -10 -6 0 -11 5 -11 10 0 6 2 10 4 10 3 0 8 -4 11 -10z m221
-35 c-14 -6 -37 -21 -51 -35 -34 -32 -31 -18 7 33 30 40 34 42 51 28 17 -15
17 -16 -7 -26z m-1661 25 c4 -6 10 -8 14 -5 5 2 16 -4 25 -14 15 -16 14 -19
-9 -41 -14 -13 -25 -30 -25 -37 0 -8 -15 -29 -33 -48 -25 -26 -36 -31 -50 -24
-21 12 -21 25 -2 63 8 15 15 30 15 32 0 8 -26 3 -52 -10 -26 -14 -29 -13 -39
5 -14 28 -6 45 31 64 27 14 31 14 36 0 9 -21 31 -19 44 5 11 21 35 26 45 10z
m1204 -21 c9 -16 11 -36 7 -53 -7 -27 -9 -28 -51 -22 -48 8 -70 -8 -42 -29 23
-17 22 -21 -13 -35 -36 -15 -39 -30 -5 -30 33 0 32 -7 -7 -42 -33 -29 -35 -30
-83 -32 -27 -1 -30 -4 -31 -34 -1 -42 -17 -58 -76 -73 -41 -11 -52 -11 -83 4
-20 10 -33 22 -30 28 4 6 -1 19 -10 29 -15 17 -15 21 -1 48 13 25 22 30 48 29
18 0 40 2 48 6 21 10 42 -7 44 -34 1 -28 24 -32 40 -6 15 23 -10 67 -47 85
-15 7 -27 17 -27 23 0 18 22 9 50 -21 32 -34 72 -39 108 -14 23 16 29 48 11
59 -5 4 -18 0 -28 -9 -24 -21 -33 -20 -78 9 -82 53 -80 50 -55 64 20 10 27 9
53 -13 17 -14 35 -26 40 -26 18 0 49 41 49 65 0 33 16 32 24 -1 5 -18 2 -32
-10 -45 -16 -17 -16 -19 1 -25 21 -8 55 27 55 57 0 17 3 17 20 7 22 -14 32 -8
35 24 1 13 3 27 4 31 2 15 26 1 40 -24z m-949 5 c0 -2 -11 -4 -25 -4 -14 0
-25 4 -25 9 0 4 11 6 25 3 14 -2 25 -6 25 -8z m-468 -19 c0 -5 -5 -11 -11 -13
-6 -2 -11 4 -11 13 0 9 5 15 11 13 6 -2 11 -8 11 -13z m1097 12 c-2 -1 -12 -9
-21 -16 -15 -12 -18 -11 -18 3 0 10 8 16 22 16 12 0 19 -1 17 -3z m-725 -31
l49 -13 -32 -6 c-18 -4 -46 -21 -62 -38 -19 -20 -29 -26 -29 -16 0 8 -7 17
-15 21 -24 9 -18 34 13 50 15 8 27 15 27 15 0 0 22 -6 49 -13z m120 -20 c-3
-8 -16 -11 -37 -8 l-32 5 30 13 c33 13 47 10 39 -10z m1446 4 c17 0 63 -170
51 -187 -12 -17 -84 -35 -116 -29 -47 9 -68 46 -68 118 0 32 2 61 6 64 5 5 27
9 80 13 4 1 7 8 7 17 0 11 5 14 16 10 9 -3 19 -6 24 -6z m-1462 -64 c19 -18
25 -36 27 -79 2 -30 8 -64 14 -74 8 -16 5 -22 -19 -36 -16 -10 -30 -27 -32
-40 -2 -17 -11 -23 -37 -25 -62 -6 -80 4 -87 48 -7 43 -18 49 -45 24 -14 -12
-22 -13 -38 -4 -76 40 -68 170 11 170 24 0 28 -4 28 -28 0 -16 -7 -37 -15 -48
-19 -25 -19 -40 1 -48 21 -8 44 11 44 35 0 13 6 18 22 16 29 -3 37 28 8 36
-26 7 -26 35 3 65 18 19 29 23 56 18 19 -3 46 -16 59 -30z m1258 -60 c1 -31
-1 -34 -18 -25 -10 5 -18 13 -18 16 0 5 30 43 34 43 1 0 1 -16 2 -34z m-696
20 c0 -2 -7 -7 -16 -10 -8 -3 -12 -2 -9 4 6 10 25 14 25 6z m-83 -60 c-19 -28
-27 -33 -52 -29 -18 2 -45 -4 -67 -15 -24 -12 -38 -15 -37 -8 0 12 107 66 132
66 9 0 19 5 22 10 3 6 10 10 15 10 5 0 -1 -15 -13 -34z m-267 4 c12 -8 9 -10
-12 -10 -15 0 -30 5 -33 10 -8 13 25 13 45 0z m-105 -8 c16 -11 35 -60 35 -88
0 -21 -4 -24 -27 -21 -15 2 -29 9 -31 17 -3 7 0 10 6 7 5 -4 15 0 22 8 10 13
8 20 -14 40 -32 29 -24 61 9 37z m1089 -18 c10 -25 -1 -29 -14 -5 -6 12 -7 21
-1 21 5 0 12 -7 15 -16z m-74 -14 c43 -43 32 -121 -19 -128 -29 -5 -61 24 -61
55 0 27 18 30 35 6 11 -15 15 -15 29 -3 20 16 17 49 -5 63 -36 22 -109 -21
-109 -65 0 -12 12 -39 27 -61 21 -29 24 -40 14 -46 -16 -10 -3 -38 38 -80 33
-33 85 -163 108 -266 17 -76 19 -213 3 -229 -6 -6 -10 -20 -10 -32 0 -38 -37
-111 -97 -191 -73 -96 -70 -92 -121 -127 -25 -17 -45 -40 -49 -55 -3 -14 -10
-31 -14 -37 -6 -7 -2 -18 10 -28 10 -9 17 -25 14 -34 -5 -19 70 -137 118 -187
16 -17 29 -36 29 -42 0 -7 6 -16 14 -20 8 -4 43 -36 79 -69 74 -70 92 -79 162
-76 59 3 111 -11 107 -27 -1 -6 10 -23 25 -36 17 -14 22 -24 14 -25 -7 0 -24
11 -36 24 -45 49 -281 55 -251 7 4 -6 31 -11 60 -11 69 0 146 -11 146 -20 0
-9 -100 -7 -210 5 -64 6 -78 5 -89 -9 -11 -13 -11 -16 0 -20 33 -10 153 -19
271 -19 110 0 130 2 148 18 11 10 20 24 20 32 0 7 7 13 15 13 9 0 15 9 15 22
0 17 3 19 12 10 8 -8 8 -15 0 -25 -9 -10 -5 -20 17 -44 l28 -31 -40 -6 c-61
-10 -1051 -5 -1036 5 8 5 21 9 29 9 8 0 21 9 28 20 9 16 23 20 62 20 28 0 61
-7 73 -15 26 -17 59 -19 167 -11 41 3 91 1 111 -3 21 -5 43 -5 49 -1 14 9 5
30 -13 30 -7 0 -18 9 -24 19 -14 22 -4 37 40 65 35 21 25 40 -19 33 -28 -5
-35 -1 -50 21 -23 36 -125 132 -139 132 -7 0 -29 16 -49 36 -31 30 -36 41 -31
64 5 22 1 32 -21 49 -15 11 -34 21 -44 21 -9 0 -23 12 -30 26 -8 14 -23 30
-35 36 -36 20 -85 63 -85 76 0 7 13 12 30 12 36 0 50 24 28 47 -13 13 -19 13
-50 0 -22 -9 -52 -13 -80 -10 -38 4 -47 10 -63 39 l-18 34 26 21 c43 33 36 55
-21 63 -28 4 -67 19 -97 39 -41 27 -50 38 -50 62 0 39 -27 77 -48 69 -9 -3
-24 -26 -34 -52 -17 -45 -65 -101 -87 -103 -6 0 -26 -2 -43 -3 -55 -6 -113
-56 -65 -56 32 0 40 -18 30 -63 -10 -46 -24 -60 -48 -47 -9 5 -22 5 -30 0 -8
-5 -18 -6 -23 -3 -4 3 -24 2 -43 -2 -26 -4 -34 -11 -32 -23 2 -12 11 -16 31
-14 19 3 27 -1 27 -12 0 -16 -14 -24 -75 -43 -22 -7 -29 -15 -28 -30 2 -15 -7
-23 -38 -33 -47 -16 -90 -46 -121 -86 -17 -21 -23 -42 -23 -80 -1 -50 -2 -53
-73 -122 -40 -39 -72 -78 -72 -87 0 -13 -6 -15 -30 -10 -23 5 -32 3 -36 -10
-8 -21 11 -35 48 -35 20 0 29 -6 33 -23 4 -13 5 -27 4 -33 -4 -22 2 -35 13
-28 8 5 9 2 5 -9 -7 -20 4 -21 52 -7 24 6 39 6 47 -1 7 -6 19 -7 26 -3 11 7
66 14 108 14 40 0 123 -17 110 -23 -8 -3 -118 -7 -244 -9 -176 -3 -218 -1
-180 7 32 7 49 15 49 25 0 12 -13 14 -73 12 -40 -2 -95 1 -121 8 -31 7 -55 8
-73 1 -19 -7 -29 -6 -42 7 -13 13 -18 14 -28 4 -10 -10 -10 -15 2 -22 12 -8
10 -10 -8 -10 -19 0 -21 4 -16 25 8 31 -13 34 -44 5 -22 -21 -42 -26 -42 -11
0 5 10 15 22 24 18 11 20 18 12 27 -19 19 -46 8 -71 -29 -19 -28 -23 -30 -23
-14 0 48 27 60 170 77 l135 15 39 43 c42 47 156 274 156 310 0 13 9 41 21 63
l21 39 -23 19 c-22 18 -22 20 -6 32 31 22 20 37 -77 105 -75 53 -113 191 -96
352 8 84 22 128 39 128 5 0 11 14 15 31 4 20 33 58 87 112 92 93 156 181 175
241 l13 41 0 -63 c1 -38 -5 -75 -14 -93 -9 -16 -13 -34 -10 -39 14 -22 37 -7
56 35 23 53 31 58 18 13 -12 -45 -12 -48 10 -48 12 0 22 11 29 33 8 26 10 28
11 9 1 -12 -8 -41 -19 -62 -12 -24 -18 -49 -14 -64 4 -15 1 -25 -9 -29 -8 -3
-23 -27 -32 -54 -9 -26 -21 -57 -25 -68 -18 -43 -19 -55 -7 -55 9 0 9 -2 1 -8
-20 -13 -27 -142 -10 -182 38 -90 114 -157 164 -143 19 5 22 1 22 -24 0 -36
22 -68 42 -60 12 4 15 20 13 71 l-3 66 72 0 c60 0 76 4 101 24 27 22 29 28 29
92 0 86 -12 108 -72 135 -40 19 -54 20 -94 12 -27 -5 -48 -7 -48 -3 0 10 57
40 77 40 11 0 22 3 26 6 3 3 32 6 64 7 77 0 143 -31 169 -79 17 -33 22 -35 53
-30 22 3 50 20 77 47 46 45 86 58 182 59 60 0 67 -11 17 -29 -19 -6 -49 -26
-66 -43 -29 -30 -31 -35 -27 -93 6 -91 57 -145 137 -145 l31 0 0 -69 c0 -48 4
-72 15 -81 24 -20 35 -2 35 61 0 65 -3 62 100 100 106 40 189 196 178 334 -6
68 7 62 23 -11 31 -138 -46 -320 -146 -345 -22 -6 -52 -13 -67 -16 -27 -5 -44
-28 -29 -37 5 -3 37 0 72 6 57 9 70 16 113 59 31 31 46 54 42 64 -3 9 0 15 8
15 25 0 59 115 59 198 0 74 -2 82 -56 188 -32 61 -57 116 -57 122 0 6 -9 13
-19 17 -32 10 -43 59 -24 108 20 53 20 52 36 39 18 -15 27 -5 27 31 0 23 4 28
16 23 23 -9 44 12 44 43 0 36 21 63 61 77 50 18 87 16 109 -6z m-896 -25 c4
-11 13 -14 30 -9 24 6 25 4 22 -33 -3 -27 -8 -38 -20 -37 -63 3 -66 4 -66 27
0 54 21 85 34 52z m1027 -22 c6 -16 12 -65 14 -110 l2 -82 -27 29 c-35 38 -82
43 -127 14 -14 -9 -24 -10 -28 -4 -4 6 14 20 39 31 42 18 76 58 76 89 0 10 31
59 38 60 1 0 7 -12 13 -27z m73 12 c39 -26 117 -36 150 -19 42 21 53 18 60
-17 14 -70 3 -149 -20 -149 -19 0 -44 40 -44 72 0 21 5 28 20 28 14 0 20 7 20
24 0 37 -25 38 -65 3 -38 -34 -51 -76 -33 -110 13 -25 66 -56 86 -51 9 2 23 0
30 -4 19 -13 -2 -62 -27 -62 -11 0 -28 -10 -38 -22 -10 -13 -27 -23 -38 -23
-18 0 -20 -6 -19 -55 l2 -55 -24 49 c-27 55 -24 76 12 105 34 26 30 54 -12 91
-26 23 -43 30 -59 26 -22 -6 -22 -4 -18 53 3 32 0 74 -5 94 -12 42 -10 43 22
22z m-910 -1 c20 -8 21 -38 2 -53 -11 -9 -18 -8 -30 4 -19 20 -21 41 -3 48 6
3 13 6 14 6 1 1 8 -2 17 -5z m-787 -96 c-3 -7 -5 -2 -5 12 0 14 2 19 5 13 2
-7 2 -19 0 -25z m-146 -72 c-16 -19 -41 -24 -71 -15 -24 7 -24 7 5 9 17 1 39
5 50 10 28 12 29 12 16 -4z m1713 -38 c22 -31 20 -54 -6 -78 l-22 -21 -8 22
c-5 12 -17 34 -28 49 -25 35 -25 43 -1 35 11 -3 22 -1 26 5 10 16 22 12 39
-12z m154 -36 c8 -23 6 -32 -13 -54 l-23 -27 -4 50 c-4 71 19 90 40 31z
m-1449 -25 c5 -12 23 -32 40 -45 17 -12 31 -28 31 -36 0 -20 -44 -56 -75 -62
-15 -3 -30 -6 -34 -7 -16 -5 -71 27 -76 44 -3 10 -8 28 -11 39 -4 15 -1 18 9
14 8 -3 18 -1 21 5 4 5 22 8 41 6 39 -5 43 3 17 35 -15 18 -21 20 -46 10 -34
-13 -49 -3 -21 13 51 30 89 24 104 -16z m484 31 c29 -15 112 -98 98 -98 -6 0
-13 -10 -16 -23 -8 -31 -63 -48 -102 -32 -32 14 -48 30 -57 61 -6 19 -3 21 19
16 14 -2 25 -11 25 -18 0 -19 7 -18 31 5 41 38 4 85 -51 64 -24 -9 -30 -9 -30
2 0 15 27 34 48 35 7 0 23 -5 35 -12z m-173 -17 c5 -11 11 -46 11 -77 2 -70
-13 -86 -75 -78 -31 5 -45 2 -55 -10 -12 -14 -10 -19 13 -37 37 -29 49 -55 36
-78 -10 -19 -12 -19 -55 -4 -39 13 -43 17 -35 33 23 43 0 180 -30 180 -13 0
-13 1 0 10 8 5 23 7 32 4 11 -3 30 9 55 35 43 46 85 54 103 22z m470 1 c0 -4
-16 -14 -36 -21 -27 -10 -34 -17 -32 -34 4 -30 38 -35 45 -8 4 17 8 19 20 10
11 -10 18 -9 31 5 16 16 16 18 -3 33 l-20 15 20 -4 c16 -2 21 -12 23 -46 3
-36 -1 -47 -27 -72 -37 -38 -113 -45 -136 -13 -9 13 -16 13 -33 4 -12 -6 -22
-9 -22 -6 0 3 0 8 0 13 0 4 5 8 10 8 6 1 15 2 20 3 18 2 11 31 -7 31 -16 1
-15 2 2 12 11 6 38 26 59 45 36 30 86 45 86 25z m600 -12 c0 -11 -4 -20 -9
-20 -14 0 -23 18 -16 30 10 17 25 11 25 -10z m-2406 -9 c4 -5 -3 -7 -14 -4
-23 6 -26 13 -6 13 8 0 17 -4 20 -9z m2366 -46 c7 -8 18 -15 25 -15 10 0 14
-22 17 -76 3 -79 -3 -94 -28 -73 -8 6 -17 9 -21 5 -4 -3 -19 29 -33 71 l-27
78 21 12 c27 16 31 16 46 -2z m289 -39 c-1 -6 -4 -22 -8 -36 l-7 -25 -13 23
c-15 28 -6 63 15 55 7 -3 14 -10 13 -17z m-704 4 c-4 -6 3 -35 14 -66 26 -67
26 -74 3 -74 -10 0 -22 -4 -27 -8 -13 -11 -105 -3 -105 9 0 5 22 9 49 9 58 0
81 7 81 25 0 13 -112 31 -129 21 -5 -3 -14 1 -21 9 -10 12 -7 15 16 21 18 5
29 3 32 -4 7 -23 72 -11 72 13 0 7 -7 15 -15 19 -22 8 -18 24 8 29 12 2 23 5
25 6 2 0 0 -4 -3 -9z m-2035 -11 c0 -15 -18 -19 -23 -6 -3 8 1 14 9 14 8 0 14
-4 14 -8z m975 -49 c3 -5 -1 -10 -10 -10 -9 0 -13 5 -10 10 3 6 8 10 10 10 2
0 7 -4 10 -10z m707 -38 c-3 -30 1 -49 13 -62 17 -19 8 -21 -27 -5 -10 4 -24
5 -32 2 -8 -3 -22 1 -33 9 -13 10 -14 13 -2 9 17 -6 44 19 35 33 -3 5 -17 7
-31 4 -37 -7 -30 13 13 36 55 31 68 25 64 -26z m-499 -35 c-3 -4 3 -17 12 -27
16 -18 16 -18 -4 -13 -12 3 -42 -2 -67 -12 -43 -16 -47 -16 -62 -1 -10 10 -12
16 -7 15 20 -5 55 13 55 28 0 11 -8 14 -30 11 -38 -6 -39 9 -2 23 15 6 43 20
62 30 l35 18 7 -32 c3 -17 4 -35 1 -40z m365 61 c-3 -8 -27 -14 -59 -16 -85
-5 -54 11 54 27 5 0 7 -5 5 -11z m989 -25 c-3 -10 -5 -4 -5 12 0 17 2 24 5 18
2 -7 2 -21 0 -30z m177 -83 c-1 -42 -7 -87 -12 -100 -12 -32 2 -64 34 -79 l25
-11 -33 -29 c-18 -16 -34 -29 -34 -28 -1 1 -4 29 -8 62 -11 116 -26 240 -32
268 l-6 27 35 -17 35 -18 -4 -75z m-856 88 c29 -29 8 -92 -34 -102 -43 -11
-110 24 -72 36 7 3 13 11 14 19 0 8 2 24 2 37 2 19 8 22 40 22 21 0 43 -5 50
-12z m-2023 -18 c-3 -5 -16 -10 -28 -10 -18 0 -19 2 -7 10 20 13 43 13 35 0z
m1152 0 c7 0 10 -7 6 -16 -4 -12 -14 -14 -36 -10 -37 7 -41 11 -32 26 4 7 17
9 29 6 11 -3 26 -6 33 -6z m1631 -22 c1 -18 5 -54 10 -80 l9 -47 -41 5 c-26 4
-54 0 -78 -10 -34 -14 -38 -21 -40 -54 0 -20 -2 -59 -3 -86 -2 -36 2 -53 16
-67 10 -10 19 -25 19 -32 0 -15 33 -48 65 -65 20 -11 20 -11 -1 -12 -11 0 -30
-9 -42 -20 l-21 -20 -3 38 c-3 41 -35 59 -44 25 -4 -15 -12 -18 -37 -15 -27 3
-32 8 -34 32 -1 16 2 32 8 35 5 4 7 11 3 16 -3 5 3 38 14 72 11 34 22 85 25
112 3 28 6 51 6 53 1 1 21 2 45 2 55 0 63 11 39 51 -18 30 -17 31 2 44 11 8
26 20 34 27 8 7 22 16 30 20 9 4 17 7 18 7 0 1 1 -14 1 -31z m-1120 3 c29 -1
42 -5 42 -15 0 -7 7 -19 15 -26 18 -15 19 -30 2 -30 -7 0 -29 -11 -49 -25 -25
-17 -39 -21 -44 -14 -4 7 -21 9 -40 6 -19 -3 -36 -2 -39 3 -3 5 23 10 57 12
66 3 83 19 32 29 -29 7 -22 10 26 12 15 1 25 8 25 17 0 11 -14 16 -57 18 -32
2 -58 7 -58 12 0 6 10 8 23 6 12 -3 41 -5 65 -5z m-1688 -42 c0 -6 -4 -7 -10
-4 -5 3 -10 11 -10 16 0 6 5 7 10 4 6 -3 10 -11 10 -16z m1172 -12 c5 -8 -6
-13 -34 -15 -43 -3 -65 8 -53 28 9 14 76 4 87 -13z m433 3 c3 -5 1 -10 -4 -10
-6 0 -11 5 -11 10 0 6 2 10 4 10 3 0 8 -4 11 -10z m1072 -5 c0 -8 -4 -15 -9
-15 -4 0 -8 4 -8 9 0 5 -8 12 -17 14 -12 3 -9 5 8 6 17 1 26 -4 26 -14z
m-2453 -11 c3 -8 2 -12 -4 -9 -6 3 -10 10 -10 16 0 14 7 11 14 -7z m1926 3
c25 0 60 3 78 7 28 5 32 3 32 -15 0 -20 -3 -20 -102 -14 -57 4 -105 9 -108 12
-9 9 26 23 40 16 8 -4 35 -7 60 -6z m-945 -54 c-14 -17 -23 -19 -53 -12 -20 4
-48 5 -64 2 -17 -3 -28 -1 -28 5 0 18 20 25 76 23 45 -1 54 2 54 16 0 16 1 16
16 1 15 -14 14 -17 -1 -35z m1054 -18 c13 -13 -21 -21 -106 -23 -95 -3 -99 -3
-100 19 -2 21 -1 21 100 14 56 -4 104 -8 106 -10z m-2294 -5 c3 -5 1 -10 -4
-10 -6 0 -11 5 -11 10 0 6 2 10 4 10 3 0 8 -4 11 -10z m1685 1 c0 -5 -6 -14
-14 -20 -11 -9 -16 -9 -21 0 -4 6 -1 15 6 20 18 11 29 11 29 0z m-460 -36 c8
-7 29 -15 45 -18 17 -2 -15 -4 -70 -3 -85 1 -100 4 -103 18 -2 9 5 19 15 21
28 8 96 -2 113 -18z m1613 -1 l34 -16 7 -96 c4 -57 3 -99 -3 -105 -12 -12 -78
0 -87 15 -4 6 1 17 10 24 26 18 16 50 -14 46 -16 -2 -30 5 -41 20 -15 19 -15
26 -3 61 25 71 39 79 97 51z m-2653 -29 c-13 -16 -50 -21 -50 -7 0 15 13 22
38 22 21 0 22 -2 12 -15z m1183 8 c-7 -2 -21 -2 -30 0 -10 3 -4 5 12 5 17 0
24 -2 18 -5z m889 0 c13 -3 15 -9 9 -25 -8 -21 -12 -22 -181 -20 -95 1 -176 5
-182 8 -5 4 -5 10 1 17 6 8 53 13 123 15 62 2 115 5 117 7 5 6 90 4 113 -2z
m-1982 -7 c0 -11 -19 -15 -25 -6 -3 5 1 10 9 10 9 0 16 -2 16 -4z m72 -15
c-12 -7 -62 -4 -62 5 0 2 17 4 38 4 23 0 32 -3 24 -9z m1085 -28 c3 -9 -36
-13 -154 -15 -148 -3 -172 1 -173 25 0 13 323 4 327 -10z m1640 -35 c18 -38
23 -58 13 -58 -5 0 -12 10 -16 23 -3 12 -13 30 -22 40 -13 15 -13 17 0 17 8 0
19 -10 25 -22z m-1653 -4 c20 -8 20 -23 -1 -46 -19 -22 -53 -24 -53 -3 0 11
-21 15 -107 17 -66 2 -107 7 -106 13 4 14 238 30 267 19z m816 -3 c0 -4 -8
-15 -18 -24 -24 -22 -261 -15 -298 9 -13 9 -24 18 -24 20 0 2 77 4 170 3 94 0
170 -3 170 -8z m787 -48 c8 -21 20 -41 25 -44 17 -11 -32 -79 -56 -79 -42 0
-62 45 -31 70 17 14 20 47 4 52 -17 6 2 38 23 38 13 0 24 -12 35 -37z m-2817
-7 c0 -13 -7 -29 -15 -36 -14 -12 -14 -15 0 -30 20 -22 25 -238 5 -250 -7 -4
-10 -12 -6 -18 3 -5 0 -12 -8 -15 -9 -4 -14 2 -13 16 0 12 -3 59 -8 105 -4 46
-4 82 1 82 5 0 15 4 23 9 12 8 11 12 -3 27 -14 14 -16 27 -11 68 4 28 9 54 12
59 9 15 23 6 23 -17z m1110 -6 c0 -5 -2 -10 -4 -10 -3 0 -8 5 -11 10 -3 6 -1
10 4 10 6 0 11 -4 11 -10z m-54 -15 c-28 -15 -46 -13 -46 6 0 5 17 9 38 9 l37
0 -29 -15z m1815 -8 c-10 -9 -11 -8 -5 6 3 10 9 15 12 12 3 -3 0 -11 -7 -18z
m-1883 -24 c12 -11 17 -11 30 -1 13 11 14 10 10 -2 -8 -22 -49 -14 -78 16
l-25 26 25 -12 c13 -7 31 -19 38 -27z m927 28 c-16 -15 -58 -17 -62 -3 -3 8 7
12 33 12 23 0 34 -4 29 -9z m-1875 -22 c0 -5 -4 -9 -10 -9 -5 0 -10 7 -10 16
0 8 5 12 10 9 6 -3 10 -10 10 -16z m2876 -55 c-11 -55 14 -351 35 -419 19 -62
18 -86 -2 -41 -7 14 -18 26 -25 26 -34 0 -93 139 -101 235 -6 81 14 163 50
207 32 40 51 37 43 -8z m-1406 3 l24 -17 -29 -1 c-17 -1 -34 -1 -40 1 -5 1
-31 4 -57 7 -38 5 -45 8 -33 17 23 17 107 13 135 -7z m1188 -33 l4 -29 -29 25
c-15 14 -31 27 -35 30 -4 3 7 5 25 4 28 -1 32 -5 35 -30z m-358 -49 c-12 -25
-26 -45 -30 -45 -20 0 -14 28 14 68 37 52 46 39 16 -23z m-760 36 c0 -10 -6
-21 -14 -24 -34 -13 -109 -19 -129 -9 -12 5 -38 15 -57 20 -28 9 -15 10 60 5
80 -5 98 -3 109 11 18 21 31 20 31 -3z m886 -5 c8 -8 8 -34 1 -93 -10 -76 -12
-82 -36 -86 -40 -8 -61 9 -61 48 0 18 5 37 10 40 6 3 10 16 10 27 0 12 5 37
12 55 10 27 16 32 33 27 11 -3 25 -11 31 -18z m188 -38 c20 -24 36 -37 36 -30
0 7 4 11 9 8 5 -4 3 -19 -5 -36 -11 -21 -25 -31 -49 -36 -40 -7 -88 13 -93 40
-7 33 8 85 26 89 34 9 41 6 76 -35z m122 -17 c-3 -20 -6 -45 -6 -56 -1 -34
-17 3 -25 57 -7 45 -6 46 15 41 19 -5 21 -11 16 -42z m-241 19 c3 -5 -1 -10
-10 -10 -9 0 -13 5 -10 10 3 6 8 10 10 10 2 0 7 -4 10 -10z m-1112 -24 c15 -6
27 -19 27 -28 0 -27 29 -36 98 -32 34 2 62 1 62 -3 0 -5 -28 -9 -61 -10 -34
-1 -64 -5 -67 -7 -3 -3 6 -14 19 -25 21 -17 38 -19 127 -18 77 2 102 -1 102
-11 0 -8 -8 -10 -25 -6 -16 4 -34 0 -50 -10 -21 -14 -33 -15 -63 -6 -20 5 -50
10 -66 10 -16 0 -37 7 -47 16 -24 21 -42 8 -36 -25 5 -23 -11 -61 -26 -61 -9
0 -37 30 -37 40 0 4 9 10 21 13 30 8 18 30 -19 34 -22 3 -34 -1 -41 -15 -7
-14 -18 -18 -40 -14 -16 2 -43 -3 -60 -11 -18 -9 -33 -11 -37 -6 -11 19 -108
4 -151 -24 -8 -5 -8 -1 0 18 8 16 21 25 37 26 102 4 122 8 141 28 14 15 27 19
45 15 25 -7 58 12 48 27 -3 5 -21 9 -41 9 -30 0 -34 2 -23 15 9 10 31 15 72
15 51 0 59 2 56 18 -2 13 -15 18 -51 20 -26 2 -47 8 -47 13 0 13 96 9 133 -5z
m94 -12 c-3 -3 -12 -4 -19 -1 -8 3 -5 6 6 6 11 1 17 -2 13 -5z m763 -35 c0 -5
-4 -9 -10 -9 -5 0 -10 7 -10 16 0 8 5 12 10 9 6 -3 10 -10 10 -16z m475 -55
c22 8 18 -17 -4 -31 -52 -32 -17 -155 53 -188 19 -9 39 -14 45 -11 5 4 25 -13
45 -37 32 -39 34 -46 24 -69 l-12 -25 -45 29 c-30 19 -58 28 -85 28 -30 0 -37
3 -29 11 8 8 9 19 1 38 -6 14 -10 38 -9 54 2 34 -34 106 -57 113 -9 3 -27 10
-38 16 -30 14 -58 3 -93 -38 -35 -39 -33 -44 -35 72 l-1 61 30 -19 c43 -26
103 -23 145 6 34 23 35 23 43 4 4 -12 13 -18 22 -14z m-459 -15 c-6 -37 -11
-43 -30 -36 -18 7 -10 47 10 47 8 0 14 5 14 10 0 6 3 10 6 10 3 0 3 -14 0 -31z
m-88 -1 c7 -7 12 -25 12 -40 0 -15 6 -29 13 -30 6 0 17 -2 22 -2 35 -5 44 -30
21 -61 -13 -18 -15 -17 -50 17 -33 32 -56 80 -56 115 0 16 22 17 38 1z m-2312
-36 c-17 -16 -18 -16 -5 5 7 12 15 20 18 17 3 -2 -3 -12 -13 -22z m2480 -6
c11 -11 21 -12 47 -5 67 21 72 16 46 -49 -16 -38 -6 -60 35 -80 15 -8 25 -16
22 -20 -3 -3 -21 2 -38 11 -18 8 -48 21 -65 27 -27 10 -33 18 -33 43 0 37 -25
68 -48 59 -15 -5 -15 -4 -2 11 18 20 18 20 36 3z m-582 -11 c3 -9 20 -21 37
-27 26 -9 29 -12 15 -20 -21 -12 -20 -24 4 -55 26 -33 25 -71 -2 -124 -27 -50
-59 -71 -133 -89 -44 -11 -66 -11 -106 -2 -51 12 -69 10 -69 -9 0 -16 52 -30
108 -30 28 0 52 -4 52 -9 0 -5 15 -12 32 -16 52 -11 78 -33 78 -65 0 -81 -168
-79 -257 3 -12 11 -29 18 -37 15 -16 -7 -28 16 -20 38 5 11 -1 15 -22 16 -28
0 -28 1 -6 9 27 11 31 45 4 38 -12 -3 -24 2 -31 14 -11 17 -10 19 7 14 23 -8
47 17 38 40 -4 11 -13 14 -31 10 -35 -9 -31 10 6 29 28 15 30 20 28 62 -3 43
-2 46 22 47 14 1 49 19 79 40 45 33 62 39 114 41 53 3 61 7 64 24 4 25 17 27
26 6z m-1816 -11 c15 2 22 2 16 -1 -7 -2 -10 -13 -7 -24 4 -13 0 -19 -11 -19
-9 0 -13 6 -10 14 3 7 -2 16 -10 19 -9 4 -16 12 -15 19 0 10 2 10 5 1 3 -7 17
-11 32 -9z m2833 -39 c9 -30 14 -55 10 -55 -16 0 -52 70 -46 89 10 33 19 25
36 -34z m-2524 -58 c10 -117 10 -110 -3 -114 -14 -5 -30 88 -26 160 4 84 19
61 29 -46z m1062 69 c19 -39 23 -67 12 -80 -9 -10 -7 -25 5 -57 9 -24 16 -56
16 -71 -1 -15 3 -30 8 -33 5 -3 7 -12 3 -21 -3 -8 2 -23 11 -33 13 -15 14 -20
4 -24 -10 -3 -11 -9 -1 -25 14 -24 4 -72 -18 -82 -7 -4 -25 -13 -39 -20 -44
-23 -153 -24 -205 -1 -37 17 -45 24 -45 47 0 15 8 36 17 46 28 31 24 47 -18
73 -21 14 -42 25 -46 25 -4 0 -20 12 -35 27 -34 32 -36 72 -9 132 33 74 124
119 174 86 22 -14 25 -13 45 10 29 33 104 34 121 1z m190 8 c3 -3 -3 -12 -12
-21 -16 -16 -18 -16 -31 2 -8 11 -12 23 -9 28 4 7 41 0 52 -9z m-1706 -11 c-7
-2 -19 -2 -25 0 -7 3 -2 5 12 5 14 0 19 -2 13 -5z m2828 -16 c8 -7 21 -27 27
-44 10 -30 9 -33 -9 -33 -25 0 -60 -18 -75 -38 -6 -9 -16 -12 -23 -8 -9 6 -8
13 5 27 16 18 15 20 -7 38 l-24 19 24 26 c26 28 56 33 82 13z m-2561 -13 c0
-8 -4 -12 -10 -9 -5 3 -10 10 -10 16 0 5 5 9 10 9 6 0 10 -7 10 -16z m2274
-82 c15 -6 36 -12 46 -12 24 0 70 -21 70 -31 0 -4 -12 -2 -26 6 -27 14 -59 9
-104 -15 -21 -11 -26 -9 -56 26 l-32 39 26 28 26 27 11 -28 c7 -15 24 -33 39
-40z m-2363 38 c-6 -24 -5 -73 3 -103 5 -22 3 -27 -12 -27 -31 0 -37 16 -34
85 4 61 5 66 25 63 14 -2 21 -9 18 -18z m1448 6 c9 -10 8 -16 -4 -26 -8 -7
-15 -21 -15 -31 0 -11 -4 -19 -10 -19 -5 0 -10 9 -10 19 0 11 -5 21 -12 23 -8
3 -5 11 8 25 23 26 28 27 43 9z m476 5 c3 -5 1 -12 -5 -16 -6 -4 -7 -11 -4
-17 4 -7 2 -8 -4 -4 -14 9 -16 46 -3 46 6 0 12 -4 16 -9z m-975 -29 c0 -5 -13
-9 -30 -9 -16 0 -27 4 -24 9 7 11 54 11 54 0z m-365 -54 c-14 -48 -81 -162
-106 -180 -29 -22 -48 -26 -173 -35 -105 -7 -149 -28 -165 -76 -8 -23 -23 -38
-53 -52 -25 -13 -44 -29 -46 -40 -2 -11 -8 -30 -14 -42 -6 -12 -9 -49 -6 -82
l4 -61 -172 0 c-105 0 -175 4 -179 10 -3 6 1 13 10 16 11 5 15 14 11 29 -5 18
6 35 49 78 58 58 75 99 56 135 -9 16 -8 23 3 29 7 4 15 17 17 28 3 15 24 27
82 46 94 32 123 38 207 40 114 3 277 39 265 59 -3 5 7 7 22 6 16 -2 34 -1 41
1 18 7 15 30 -5 42 -17 9 -17 10 2 17 11 4 45 17 75 30 71 30 83 30 75 2z
m345 -8 c0 -27 -3 -30 -30 -30 -16 0 -30 4 -30 9 0 5 -3 16 -6 24 -4 12 3 17
28 20 18 2 34 5 36 5 1 1 2 -11 2 -28z m1035 0 c8 -13 -35 -13 -55 0 -11 7 -7
10 17 10 17 0 35 -4 38 -10z m729 -12 c21 -30 12 -38 -42 -37 -42 0 -102 15
-77 19 46 7 61 12 70 25 14 21 31 19 49 -7z m-144 -8 c13 -8 13 -10 -2 -10 -9
0 -20 5 -23 10 -8 13 5 13 25 0z m1790 -20 c0 -5 -7 -10 -15 -10 -8 0 -15 5
-15 10 0 6 7 10 15 10 8 0 15 -4 15 -10z m-2287 -22 c27 -14 17 -17 -28 -9
-22 4 -51 4 -65 0 -28 -8 -90 -11 -90 -5 0 2 3 12 6 20 5 14 18 16 83 10 42
-4 84 -11 94 -16z m407 -8 c19 -17 40 -30 47 -30 8 0 13 -13 13 -34 0 -27 -4
-35 -17 -34 -10 1 -28 -2 -40 -6 -20 -6 -23 -4 -23 19 0 18 -9 31 -30 43 -18
10 -30 25 -30 38 0 44 31 45 80 4z m534 -15 c-3 -6 13 -32 36 -57 22 -25 40
-49 40 -52 0 -16 -52 -3 -80 21 -43 36 -53 64 -29 81 11 7 19 21 19 30 0 14 2
14 9 3 5 -8 7 -19 5 -26z m-2025 -13 c18 -18 40 -32 49 -32 8 0 13 -3 9 -6 -6
-6 -84 18 -119 37 -10 5 -29 9 -43 9 -26 0 -34 15 -12 23 32 13 83 -1 116 -31z
m1611 8 c0 -5 -5 -10 -11 -10 -5 0 -7 5 -4 10 3 6 8 10 11 10 2 0 4 -4 4 -10z
m1332 -10 c24 -7 65 -26 92 -43 l49 -32 -134 -5 c-74 -3 -158 -3 -186 -1 l-53
3 26 31 c18 22 37 32 62 34 21 2 46 10 57 18 11 8 25 12 32 10 6 -2 31 -9 55
-15z m-1077 -19 c31 -21 46 -26 54 -18 8 8 11 8 11 -1 0 -19 61 -82 99 -102
26 -13 42 -15 54 -9 13 8 17 6 17 -9 0 -40 77 -90 95 -62 3 5 13 10 21 10 9 0
22 7 31 16 11 11 25 13 47 8 17 -4 50 -8 74 -10 55 -3 59 -7 27 -28 -17 -11
-30 -14 -38 -8 -29 23 -90 23 -161 2 -39 -12 -81 -27 -93 -32 -27 -13 -53 -4
-60 21 -6 25 -31 35 -49 20 -11 -9 -11 -15 1 -33 14 -20 13 -23 -15 -33 -27
-10 -30 -9 -30 8 0 12 -10 23 -27 30 l-26 10 21 15 c24 17 28 53 11 87 -9 17
-9 20 1 10 7 -6 17 -21 24 -34 13 -25 42 -46 51 -37 19 19 -44 107 -96 134
-36 18 -73 18 -89 -1 -13 -15 -12 -16 30 -27 9 -3 2 -11 -20 -21 -40 -20 -49
-12 -48 44 0 20 -5 46 -11 57 -11 20 -9 22 20 22 18 0 49 -12 74 -29z m-869
11 c16 -10 23 -61 10 -65 -6 -2 4 -7 23 -12 19 -4 47 -21 63 -39 28 -31 28
-31 7 -36 -30 -7 -36 -30 -10 -37 12 -3 21 -10 21 -15 0 -6 -11 -7 -27 -3 -16
5 -37 8 -47 9 -19 0 -76 69 -76 90 0 6 7 24 15 40 20 38 19 46 -5 46 -20 0
-26 11 -13 23 8 9 25 9 39 -1z m-86 -12 c11 -7 3 -10 -30 -10 -33 0 -41 3 -30
10 8 5 22 10 30 10 8 0 22 -5 30 -10z m235 1 c3 -6 -16 -9 -45 -8 -27 1 -50 5
-50 10 0 10 88 9 95 -2z m560 -3 c19 -9 25 -19 25 -45 0 -36 -6 -39 -34 -18
-11 8 -32 15 -48 15 -35 0 -36 13 -2 39 31 25 27 24 59 9z m-1825 -23 c0 -16
-16 -20 -24 -6 -3 4 -17 6 -31 3 -15 -2 -25 0 -25 7 0 6 17 11 40 11 29 0 40
-4 40 -15z m3520 5 c8 -1 4 -5 -10 -9 -22 -7 -45 -7 -85 -1 -5 1 -2 5 8 9 16
6 40 6 87 1z m-3456 -25 c-4 -8 -8 -15 -10 -15 -2 0 -4 7 -4 15 0 8 4 15 10
15 5 0 7 -7 4 -15z m951 -15 c0 -8 5 -15 12 -15 6 0 15 -3 19 -7 4 -5 -5 -8
-21 -8 -25 0 -54 23 -55 43 0 5 10 7 23 5 12 -2 22 -10 22 -18z m286 10 c11 0
19 -4 19 -9 0 -14 -80 -6 -93 9 -10 10 -5 11 22 6 18 -3 42 -6 52 -6z m-1373
-17 c-10 -2 -26 -2 -35 0 -10 3 -2 5 17 5 19 0 27 -2 18 -5z m183 -11 c-5 -10
-17 -25 -26 -32 -11 -9 -14 -22 -9 -47 7 -37 -4 -53 -40 -53 -12 0 -16 5 -13
15 10 24 -11 27 -40 6 -16 -10 -43 -22 -62 -25 -32 -6 -33 -5 -19 11 8 10 27
39 41 64 33 59 50 66 75 31 17 -23 22 -24 36 -13 9 7 16 19 16 25 0 9 17 22
48 35 1 0 -2 -7 -7 -17z m3339 -2 c0 -5 -5 -10 -11 -10 -5 0 -7 5 -4 10 3 6 8
10 11 10 2 0 4 -4 4 -10z m-3253 -22 c-7 -27 15 -83 40 -97 15 -9 11 -10 -21
-11 -31 0 -37 3 -28 12 20 20 14 27 -25 30 -25 2 -39 8 -41 19 -2 12 3 15 21
12 28 -6 44 12 28 31 -12 15 -5 26 17 26 10 0 13 -7 9 -22z m1117 -29 c-4 -6
-11 -6 -20 2 -21 17 -17 31 6 19 11 -6 18 -15 14 -21z m-1422 -5 c-7 -12 -11
-13 -17 -4 -4 7 -2 16 6 21 18 11 23 4 11 -17z m1978 16 c0 -5 -4 -10 -9 -10
-6 0 -13 5 -16 10 -3 6 1 10 9 10 9 0 16 -4 16 -10z m456 -4 c25 -19 6 -41
-29 -32 -19 4 -24 11 -20 26 6 24 22 25 49 6z m-316 -38 c0 -22 -13 -23 -30
-3 -9 11 -9 17 2 28 15 17 28 5 28 -25z m1440 38 c0 -3 -4 -8 -10 -11 -5 -3
-10 -1 -10 4 0 6 5 11 10 11 6 0 10 -2 10 -4z m30 -6 c0 -5 -4 -10 -10 -10 -5
0 -10 5 -10 10 0 6 5 10 10 10 6 0 10 -4 10 -10z m70 6 c0 -2 -7 -6 -15 -10
-8 -3 -15 -1 -15 4 0 6 7 10 15 10 8 0 15 -2 15 -4z m-2500 -16 c0 -12 -8 -12
-35 0 -18 8 -17 9 8 9 15 1 27 -3 27 -9z m1718 -44 c7 -34 -16 -42 -42 -13
-28 30 -26 34 12 33 18 -1 28 -7 30 -20z m-2618 -12 c0 -2 -7 -4 -15 -4 -8 0
-15 4 -15 10 0 5 7 7 15 4 8 -4 15 -8 15 -10z m566 -5 c3 -6 18 -9 33 -7 16 2
33 -3 44 -14 16 -17 12 -18 -105 -19 -68 -1 -190 -3 -271 -4 -126 -3 -147 -1
-137 10 7 8 28 14 48 14 99 -1 353 15 358 22 7 12 21 11 30 -2z m1949 -9 c3
-5 2 -10 -4 -10 -5 0 -13 5 -16 10 -3 6 -2 10 4 10 5 0 13 -4 16 -10z m-63
-20 c8 -13 24 -20 43 -20 21 0 43 -12 74 -40 38 -35 42 -43 30 -54 -20 -20
-190 -30 -226 -14 -49 22 -60 53 -14 43 34 -7 46 6 31 35 -14 26 -5 57 18 63
30 8 32 7 44 -13z m-152 -15 c7 -8 16 -12 21 -9 5 3 9 -2 9 -10 0 -8 -9 -17
-19 -21 -11 -3 -22 -14 -26 -24 -4 -15 -14 -17 -64 -13 -62 4 -101 -9 -101
-33 0 -15 -15 -19 -55 -16 -26 3 -105 43 -105 55 0 11 54 -3 58 -15 7 -18 33
-9 42 15 10 28 47 43 63 27 20 -20 47 -13 47 13 0 17 8 27 28 34 41 15 88 14
102 -3z m-3155 -5 c3 -5 -1 -10 -10 -10 -9 0 -13 5 -10 10 3 6 8 10 10 10 2 0
7 -4 10 -10z m384 -10 c47 -6 38 -8 -56 -9 -63 0 -113 3 -113 8 0 5 12 8 27 6
15 -1 37 1 48 5 11 4 24 5 29 2 5 -3 34 -8 65 -12z m-279 -15 c-19 -23 9 -29
136 -26 77 1 125 -2 129 -9 4 -7 70 -8 198 -5 465 12 596 16 660 21 46 3 67 1
67 -7 0 -8 4 -8 13 -1 11 10 774 29 977 25 41 -1 155 -3 253 -5 l179 -3 -7
-61 c-6 -59 -5 -62 22 -82 l28 -21 -75 -1 c-41 -1 -199 -3 -350 -6 -151 -2
-340 -4 -420 -3 -80 1 -154 1 -165 1 -117 -3 -415 -1 -705 3 -1031 15 -1105
17 -1112 28 -4 6 -6 27 -4 47 2 19 4 45 5 58 1 17 7 22 30 22 48 0 91 12 91
25 0 7 14 12 31 13 24 1 28 -2 19 -13z m2728 -105 c18 -11 53 -23 76 -26 51
-7 116 11 116 32 0 12 9 14 48 8 57 -8 67 -14 24 -14 -21 0 -32 -5 -32 -14 0
-20 25 -26 96 -25 32 1 79 -5 104 -12 41 -13 23 -14 -209 -17 -140 -1 -258 1
-262 5 -3 5 -10 25 -13 46 -8 44 2 47 52 17z m642 -20 c-19 -13 -30 -13 -30 0
0 6 10 10 23 10 18 0 19 -2 7 -10z m-93 -6 c-3 -3 -12 -4 -19 -1 -8 3 -5 6 6
6 11 1 17 -2 13 -5z m-40 -40 c-3 -3 -12 -4 -19 -1 -8 3 -5 6 6 6 11 1 17 -2
13 -5z M1862 6618 c-21 -21 -14 -41 12 -34 15 4 26 1 29 -7 3 -8 7 -6 12 6 8
19 -10 47 -29 47 -7 0 -17 -5 -24 -12z M1671 6569 c-12 -20 -11 -21 10 -16 15
4 30 0 42 -10 16 -15 20 -15 27 -3 12 19 -16 50 -44 50 -12 0 -27 -10 -35 -21z
M1303 6540 c-13 -5 -23 -16 -23 -25 0 -18 26 -20 36 -3 5 7 11 5 21 -7 19 -27
39 -6 24 24 -13 23 -24 25 -58 11z M1107 6523 c-4 -3 -7 -12 -7 -20 0 -17 27
-17 33 0 4 10 7 10 18 0 17 -17 29 -16 29 1 0 21 -56 36 -73 19z M1790 6106
c0 -8 10 -16 23 -18 17 -3 12 -7 -25 -22 -27 -10 -48 -23 -48 -28 0 -5 4 -6
10 -3 12 7 50 -12 67 -34 7 -9 13 -11 13 -5 0 6 -7 17 -15 24 -13 11 -10 15
22 32 50 27 49 25 28 48 -21 23 -75 27 -75 6z M1471 5634 c-15 -11 -19 -20
-13 -26 13 -13 52 8 52 27 0 19 -10 19 -39 -1z M3597 5749 c4 -16 8 -17 14 -7
13 19 11 28 -5 28 -9 0 -12 -7 -9 -21z M640 5480 c0 -5 17 -27 39 -48 21 -21
51 -62 65 -90 15 -29 30 -52 35 -52 20 0 18 16 -7 63 -42 78 -46 83 -79 111
-32 27 -53 33 -53 16z M535 5470 c-6 -10 1 -14 47 -24 32 -7 120 -108 143
-163 12 -28 18 -34 27 -25 17 17 -9 64 -75 138 -60 67 -125 101 -142 74z
M3235 5291 c-9 -16 3 -31 26 -31 14 0 19 6 17 17 -4 20 -33 29 -43 14z M1535
4701 c-3 -5 -1 -12 5 -16 5 -3 10 1 10 9 0 18 -6 21 -15 7z M1883 4984 c-3 -8
2 -33 12 -55 36 -80 68 -72 40 10 -17 51 -41 72 -52 45z M1981 4838 c-7 -20
10 -90 29 -113 4 -5 11 -25 15 -42 4 -19 13 -33 21 -33 18 0 18 2 -11 94 -14
43 -25 87 -25 97 0 26 -19 24 -29 -3z M1915 4831 c-3 -6 3 -36 14 -68 10 -32
21 -78 24 -103 11 -78 24 -131 37 -143 10 -10 11 3 5 57 -10 94 -13 110 -37
194 -21 69 -30 83 -43 63z M2793 4957 c-6 -6 -13 -20 -16 -29 -4 -10 -15 -18
-26 -18 -11 0 -26 -3 -35 -6 -10 -4 -16 -1 -16 9 0 27 -21 30 -46 6 -31 -29
-30 -34 5 -49 63 -26 161 14 161 66 0 27 -14 38 -27 21z M2514 4945 c-4 -9
-13 -13 -24 -10 -19 6 -45 -19 -35 -34 3 -6 24 -16 46 -22 21 -7 44 -18 50
-25 13 -15 39 -7 39 12 0 8 -9 19 -20 26 -30 19 -24 26 20 24 38 -1 71 17 57
30 -4 4 -34 9 -67 11 -48 4 -61 1 -66 -12z M2777 4816 c-4 -10 2 -16 16 -18
17 -2 22 -9 20 -31 -2 -33 2 -34 22 -3 13 19 14 29 5 45 -12 24 -55 28 -63 7z
M2420 4776 c0 -17 18 -25 43 -18 17 4 17 5 0 18 -24 18 -43 18 -43 0z M1683
4614 c-7 -18 50 -73 75 -74 31 0 5 57 -35 78 -28 16 -32 15 -40 -4z M1779
4474 c-11 -14 -10 -19 10 -35 13 -11 27 -19 32 -19 16 0 21 27 9 49 -13 25
-33 27 -51 5z M1842 4394 c-31 -22 -26 -46 14 -71 43 -28 75 -29 98 -4 23 26
2 39 -25 15 -10 -9 -19 -12 -19 -6 0 6 -14 19 -32 28 -29 15 -30 18 -14 29 25
19 4 27 -22 9z M1925 4393 c-8 -8 -13 -19 -10 -24 8 -12 35 -12 35 0 0 5 12
11 26 13 l27 3 -32 12 c-26 9 -34 9 -46 -4z M1770 4070 c0 -5 5 -10 10 -10 6
0 10 5 10 10 0 6 -4 10 -10 10 -5 0 -10 -4 -10 -10z M3080 4459 c0 -5 5 -7 10
-4 6 3 10 8 10 11 0 2 -4 4 -10 4 -5 0 -10 -5 -10 -11z M3494 3305 c-3 -8 4
-28 15 -44 12 -16 21 -38 21 -49 0 -12 5 -24 10 -27 6 -3 10 -52 10 -110 0
-59 4 -107 10 -110 18 -11 25 27 25 130 0 74 -5 112 -18 145 -29 70 -61 98
-73 65z M3529 2893 c-6 -15 -15 -93 -20 -173 -5 -80 -12 -152 -16 -160 -3 -8
-10 -71 -15 -140 -4 -69 -11 -141 -14 -160 -3 -19 -7 -143 -9 -275 -2 -132 -7
-261 -10 -287 -4 -38 -3 -48 9 -48 18 0 37 56 35 106 -4 115 11 534 20 564 6
19 11 60 11 90 0 55 21 268 41 412 6 42 8 81 4 87 -11 19 -25 12 -36 -16z
M3507 2048 c-2 -7 1 -54 8 -104 7 -51 16 -154 19 -230 5 -120 8 -140 26 -158
16 -16 22 -18 32 -8 10 10 10 17 0 33 -9 14 -15 72 -18 167 -4 144 -16 240
-34 288 -10 26 -25 31 -33 12z M3729 1394 c-10 -12 -8 -18 7 -29 10 -8 24 -15
31 -15 18 0 50 -51 56 -89 7 -42 14 -48 32 -30 11 10 12 23 6 52 -13 54 -36
84 -81 106 -34 16 -41 17 -51 5z M1772 3201 c-33 -8 -29 -25 8 -32 46 -10 46
-15 -1 -30 -55 -18 -58 -31 -11 -46 49 -15 97 -4 97 23 0 10 4 22 10 26 13 9
-31 55 -58 60 -12 2 -32 2 -45 -1z M2005 3191 c-33 -20 -46 -51 -20 -51 8 0
18 6 21 14 3 8 25 17 50 21 28 4 44 11 44 21 0 20 -57 17 -95 -5z M2002 3138
c-18 -18 -15 -25 16 -36 33 -11 60 -10 87 5 16 9 17 13 6 27 -16 19 -91 22
-109 4z M1888 3019 c-6 -4 -8 -14 -5 -24 5 -12 17 -15 54 -13 40 2 48 6 48 22
0 17 -7 20 -43 21 -23 1 -47 -2 -54 -6z M1881 2936 c-12 -12 -21 -25 -21 -28
0 -3 39 -5 87 -4 92 1 119 16 66 37 -54 21 -110 19 -132 -5z M1933 2883 c-24
-9 -13 -24 15 -21 15 2 26 8 25 13 -2 12 -23 16 -40 8z M1271 2343 c0 -25 1
-26 9 -8 12 27 12 35 0 35 -5 0 -10 -12 -9 -27z M1317 1683 c-14 -13 -6 -23
28 -37 44 -19 45 -37 2 -34 -51 3 -61 -9 -30 -36 31 -27 26 -56 -10 -56 -33 0
-77 -43 -77 -75 0 -34 32 -31 40 4 4 16 17 28 39 36 43 14 84 54 76 73 -4 10
5 24 22 38 25 19 26 24 15 48 -16 35 -84 60 -105 39z M2303 1641 c-13 -11 -23
-24 -23 -30 0 -23 53 -91 71 -91 23 0 25 26 3 38 -14 8 -14 13 -4 33 7 13 19
28 27 32 11 7 11 12 2 23 -16 19 -50 17 -76 -5z M1772 2448 c-19 -9 -22 -17
-17 -37 11 -45 60 -56 60 -13 0 12 7 27 15 32 13 9 13 11 0 20 -19 12 -29 12
-58 -2z M1728 2232 c-10 -2 -18 -10 -18 -18 0 -16 9 -18 29 -5 18 12 10 28
-11 23z M2242 2238 c-6 -8 -7 -19 -3 -27 7 -11 12 -10 30 1 11 7 20 17 18 23
-6 16 -33 17 -45 3z M1803 1621 c-49 -8 -63 -18 -44 -31 17 -10 80 -2 98 13
13 9 9 28 -5 26 -4 -1 -26 -5 -49 -8z M2122 1442 c-28 -14 -33 -21 -30 -47 2
-22 8 -30 23 -30 11 -1 26 -4 33 -9 18 -11 52 21 52 49 0 19 -28 56 -41 54 -2
0 -19 -8 -37 -17z m38 -46 c0 -3 -4 -8 -10 -11 -5 -3 -10 -1 -10 4 0 6 5 11
10 11 6 0 10 -2 10 -4z M2110 1099 c-23 -42 14 -65 55 -35 19 14 19 15 1 35
-24 27 -42 27 -56 0z M1691 1461 c-19 -12 -6 -41 19 -41 16 0 21 5 18 22 -3
25 -17 32 -37 19z M1498 1401 c-35 -31 -33 -51 5 -75 24 -15 45 7 27 29 -24
29 1 30 26 2 28 -33 54 -30 54 5 0 26 -40 68 -64 68 -9 0 -30 -13 -48 -29z
M1661 1191 c-16 -10 -6 -31 14 -31 11 0 25 20 25 36 0 7 -24 4 -39 -5z M1570
1165 c-17 -21 -5 -33 27 -27 33 6 55 21 47 33 -8 14 -60 10 -74 -6z M1575
1096 c-32 -32 -24 -56 19 -56 42 0 54 10 52 45 -1 40 -36 46 -71 11z M1643
7466 c-17 -6 -40 -19 -51 -29 -10 -9 -24 -17 -32 -17 -7 0 -28 -10 -47 -21
-28 -17 -33 -26 -29 -45 4 -16 1 -26 -11 -33 -10 -5 -14 -13 -10 -17 4 -5 23
0 42 11 25 13 35 25 35 42 0 12 2 23 4 23 2 0 11 3 20 6 11 4 16 1 16 -11 0
-13 6 -16 23 -11 12 3 25 6 28 6 4 0 10 15 13 34 8 39 36 50 93 34 37 -10 66
3 57 26 -6 16 -109 17 -151 2z M1455 6110 c-8 -13 15 -24 27 -12 6 6 4 11 -6
15 -8 3 -18 2 -21 -3z M1366 6078 c-18 -29 -57 -140 -51 -146 10 -10 36 9 46
35 6 15 20 47 30 71 19 42 18 62 -1 62 -5 0 -16 -10 -24 -22z M1262 6081 c-13
-8 -46 -101 -38 -108 9 -9 36 11 41 30 4 12 11 32 17 45 13 25 1 46 -20 33z
M1400 6004 c0 -8 5 -12 10 -9 6 3 10 10 10 16 0 5 -4 9 -10 9 -5 0 -10 -7 -10
-16z M1197 5925 c-9 -22 3 -46 22 -43 10 2 16 13 16 28 0 28 -29 40 -38 15z
M1296 5874 c-3 -9 -6 -27 -6 -40 0 -21 3 -23 19 -15 22 12 33 35 25 56 -8 20
-30 19 -38 -1z M1182 5803 c-19 -36 -24 -83 -11 -99 11 -13 14 -11 26 17 25
59 11 132 -15 82z M860 5672 c0 -17 29 -47 37 -38 4 5 2 11 -4 13 -7 3 -13 11
-13 19 0 8 -4 14 -10 14 -5 0 -10 -4 -10 -8z M1070 5564 c-13 -33 -13 -51 1
-60 16 -9 36 15 44 54 6 28 4 32 -14 32 -14 0 -25 -9 -31 -26z M4560 4999 c0
-12 94 -109 104 -109 19 0 -1 34 -44 74 -52 48 -60 53 -60 35z M4676 4881 c-7
-10 20 -68 37 -78 23 -14 56 -11 73 8 9 10 28 19 41 19 17 0 23 6 23 21 0 20
-4 21 -50 15 -38 -5 -56 -3 -72 9 -25 17 -44 19 -52 6z M50 4091 c0 -36 94
-138 137 -150 21 -6 29 -14 31 -37 4 -36 18 -52 33 -37 7 7 7 22 0 51 -9 31
-18 42 -42 51 -17 6 -39 21 -49 33 -11 13 -19 19 -20 14 0 -16 -30 16 -30 33
0 15 -44 71 -55 71 -3 0 -5 -13 -5 -29z M50 3860 c0 -4 14 -10 32 -14 17 -3
40 -14 50 -23 17 -15 20 -15 41 5 15 14 27 18 37 12 19 -12 34 -1 20 15 -12
14 -180 19 -180 5z M4595 3514 c-39 -20 -73 -52 -81 -76 -3 -11 -15 -18 -30
-18 -57 0 -129 -66 -122 -112 4 -28 38 -38 38 -11 0 46 63 93 100 73 24 -13
53 -2 45 18 -8 21 77 99 116 104 42 6 139 -10 167 -28 21 -14 22 -13 22 11 0
20 -8 29 -35 41 -47 19 -181 19 -220 -2z M4835 2881 c-3 -5 -1 -12 5 -16 5 -3
10 1 10 9 0 18 -6 21 -15 7z M4495 1380 c-3 -5 5 -12 19 -16 13 -3 32 -14 42
-25 27 -30 56 -24 36 8 -11 17 -90 44 -97 33z M107 1063 c-4 -3 -17 -7 -30 -8
-16 -1 -23 -9 -25 -30 -3 -26 -2 -27 12 -16 9 8 19 11 22 8 9 -9 -6 -65 -22
-78 -8 -6 -14 -27 -14 -45 0 -49 25 -34 56 35 14 31 29 64 35 73 13 24 11 37
-5 54 -16 16 -20 17 -29 7z M4729 934 c-10 -13 -10 -17 2 -25 26 -16 69 -6 69
16 0 26 -51 33 -71 9z M115 565 c-58 -21 -65 -36 -65 -141 0 -102 10 -135 49
-161 34 -23 44 -25 118 -24 60 0 64 -1 78 -29 28 -54 140 -92 210 -72 49 14
36 34 -30 49 -96 21 -141 76 -95 118 30 27 49 106 39 161 -10 51 -29 79 -69
99 -34 17 -185 17 -235 0z m182 -72 c33 -41 32 -121 -2 -161 -22 -26 -30 -29
-72 -26 -86 7 -106 28 -105 111 3 108 113 155 179 76z M440 556 c0 -8 11 -17
24 -20 24 -6 25 -9 24 -94 -1 -153 27 -211 105 -213 71 -2 101 2 123 16 18 12
24 11 41 -6 24 -24 68 -31 100 -16 36 16 28 36 -17 43 -47 8 -47 8 -53 151 -4
101 -4 101 22 113 24 11 24 13 9 24 -34 25 -138 15 -138 -14 0 -5 10 -10 22
-12 28 -4 36 -31 37 -130 1 -71 -1 -78 -25 -97 -15 -12 -41 -21 -60 -21 -43 0
-62 28 -80 117 -17 77 -15 129 3 145 26 21 11 28 -62 28 -57 0 -75 -3 -75 -14z
M929 559 c-6 -3 -10 -78 -10 -175 l0 -169 48 1 c26 1 67 2 90 3 48 1 83 30 83
68 0 26 0 26 -34 13 -14 -5 -26 -16 -26 -25 0 -11 -11 -15 -39 -15 -44 0 -51
12 -51 87 0 53 17 64 45 30 11 -15 29 -27 38 -27 15 0 18 7 15 43 l-3 42 -42
-3 -43 -2 0 49 c0 35 4 51 16 55 28 11 44 6 44 -13 0 -35 12 -51 36 -51 21 0
24 5 24 39 0 22 -6 43 -12 48 -15 9 -165 11 -179 2z M1204 549 c-3 -5 -5 -71
-4 -147 1 -75 2 -147 2 -158 0 -20 4 -21 65 -17 38 2 70 0 78 -7 7 -6 19 -8
26 -5 13 5 59 68 59 80 0 13 -46 3 -65 -15 -12 -12 -35 -22 -51 -23 -26 -2
-29 1 -26 26 2 15 -2 34 -8 42 -6 8 -9 23 -5 35 7 23 45 28 45 5 0 -16 18 -19
38 -6 9 6 11 19 7 45 -8 38 -24 46 -49 21 -24 -24 -27 -18 -24 43 3 53 5 57
28 57 20 0 26 -6 28 -27 3 -22 9 -28 28 -28 21 0 24 5 24 34 0 19 -5 38 -11
42 -17 10 -179 13 -185 3z M1430 544 c-9 -9 -6 -15 9 -24 12 -6 29 -10 39 -8
15 3 17 -6 15 -82 -1 -47 -2 -107 -2 -133 -1 -36 -5 -49 -18 -54 -32 -11 -45
-25 -32 -34 11 -6 129 -1 138 7 2 2 -3 12 -12 22 -16 18 -22 76 -18 172 2 39
4 43 14 26 7 -10 46 -64 88 -120 70 -94 78 -101 108 -99 18 0 38 6 44 12 12
12 14 72 3 111 -9 34 -11 144 -2 158 4 7 15 12 26 12 20 0 32 21 22 37 -10 15
-128 13 -149 -2 -17 -13 -16 -14 10 -24 26 -10 27 -13 27 -86 0 -41 -4 -75 -8
-75 -5 0 -17 18 -27 40 -10 22 -26 47 -36 56 -21 19 -25 44 -8 44 5 0 7 5 4
10 -3 6 -13 10 -22 10 -9 0 -24 7 -34 16 -23 20 -164 27 -179 8z M2533 549
c-62 -18 -91 -89 -62 -153 17 -37 57 -49 133 -41 l66 7 0 -55 c0 -55 0 -56
-32 -62 -38 -7 -94 13 -122 44 -34 38 -81 25 -95 -27 -12 -39 6 -56 51 -49 18
3 59 -2 90 -11 56 -15 59 -14 132 12 55 20 75 33 80 49 12 47 5 73 -32 117
l-39 44 -69 1 c-69 0 -69 0 -72 29 -6 48 50 64 89 25 28 -28 43 -19 47 28 3
38 1 41 -29 47 -42 8 -97 6 -136 -5z M2957 554 c-3 -4 8 -16 24 -28 17 -11 38
-33 47 -48 15 -25 15 -30 -8 -77 -13 -28 -27 -51 -30 -51 -15 0 -73 157 -68
181 4 18 -142 25 -172 9 -28 -15 -16 -30 26 -30 27 0 36 -5 44 -24 5 -13 25
-59 45 -102 68 -149 80 -164 123 -164 19 0 23 4 19 20 -5 20 57 150 72 150 4
0 20 -27 35 -59 36 -79 67 -114 97 -109 17 2 26 12 32 38 19 76 97 249 120
269 30 24 18 31 -54 31 -52 0 -70 -3 -67 -12 3 -7 17 -14 31 -16 15 -2 27 -5
27 -7 0 -3 -15 -37 -34 -77 -19 -40 -37 -81 -41 -92 -8 -27 -25 -9 -65 68 -30
56 -32 68 -22 90 7 16 20 26 32 26 12 0 19 4 15 9 -6 11 -218 15 -228 5z
M3472 550 c-67 -10 -98 -37 -117 -104 -21 -71 -19 -117 8 -157 31 -46 68 -62
151 -65 96 -4 149 26 182 104 11 28 11 41 -1 89 -31 120 -88 154 -223 133z
m94 -55 c28 -12 33 -19 39 -64 4 -31 2 -70 -6 -100 -11 -43 -16 -50 -43 -55
-43 -9 -77 19 -97 80 -18 52 -16 79 8 132 16 37 27 37 99 7z M3716 552 c-39
-9 -42 -25 -8 -38 35 -13 42 -41 42 -158 0 -86 -4 -98 -33 -109 -38 -14 -11
-32 46 -32 31 0 58 3 61 5 2 3 6 39 9 80 2 41 9 76 15 78 6 2 26 -28 46 -65
20 -37 46 -80 59 -95 23 -26 31 -27 105 -12 26 5 30 34 5 34 -27 1 -68 40 -97
91 -26 48 -25 59 4 59 23 0 56 39 63 76 4 22 0 38 -17 59 -23 29 -24 29 -147
31 -68 2 -137 0 -153 -4z m212 -84 c-3 -46 -17 -55 -64 -44 -20 5 -24 12 -24
46 l0 40 46 0 45 0 -3 -42z M4080 537 c0 -8 9 -17 20 -20 19 -5 20 -14 20
-134 0 -102 -3 -133 -16 -151 l-16 -23 115 5 c157 7 205 34 224 126 17 85 -9
154 -70 187 -45 24 -277 33 -277 10z m238 -60 c22 -20 24 -28 20 -104 -4 -101
-21 -126 -90 -127 l-43 -1 -3 134 -3 134 48 -7 c28 -4 57 -15 71 -29z M4535
531 c-65 -29 -83 -89 -41 -138 22 -25 31 -28 93 -29 113 -2 105 2 99 -49 -2
-24 -7 -49 -11 -55 -11 -18 -47 -11 -81 15 -36 28 -98 34 -111 12 -4 -8 -20
-22 -35 -32 -42 -26 -37 -48 10 -41 20 3 55 6 77 5 213 -4 230 1 246 70 7 32
6 48 -6 71 -22 42 -50 53 -127 52 l-68 -2 -1 35 c-1 19 -2 41 -3 48 -1 17 82
12 104 -8 29 -27 57 -19 63 18 2 17 3 35 0 40 -6 10 -41 9 -48 -2 -3 -6 -18
-6 -38 0 -45 13 -76 10 -122 -10z M2153 495 c-22 -9 -33 -21 -33 -35 0 -32 35
-94 85 -150 41 -46 45 -55 45 -102 0 -34 -6 -58 -17 -70 -15 -17 -14 -18 20
-18 45 0 57 19 57 88 0 35 -6 57 -21 76 -21 27 -19 29 19 26 41 -3 39 30 -3
65 -42 36 -81 37 -72 3 8 -28 -18 -4 -38 35 -19 38 -21 67 -3 49 16 -16 55
-15 61 1 2 6 0 20 -5 30 -11 21 -50 22 -95 2z M2045 373 c-64 -16 -75 -85 -21
-139 29 -29 39 -33 67 -28 82 15 105 58 67 126 -20 37 -28 43 -58 45 -19 0
-44 -1 -55 -4z m61 -50 c18 -24 17 -62 -1 -70 -21 -8 -55 25 -55 53 0 34 35
45 56 17z M4828 263 c-22 -6 -31 -32 -17 -49 21 -26 39 -16 39 21 0 19 -1 34
-2 34 -2 -1 -10 -3 -20 -6z"/>
</g>
</svg>
