<?xml version="1.0" standalone="no"?>
<!DOCTYPE svg PUBLIC "-//W3C//DTD SVG 20010904//EN"
 "http://www.w3.org/TR/2001/REC-SVG-20010904/DTD/svg10.dtd">
<svg version="1.0" xmlns="http://www.w3.org/2000/svg"
 width="500.000000pt" height="878.000000pt" viewBox="0 0 500.000000 878.000000"
 preserveAspectRatio="xMidYMid meet">
<metadata>
Created by potrace 1.16, written by Peter Selinger 2001-2019
</metadata>
<g transform="translate(0.000000,878.000000) scale(0.100000,-0.100000)"
fill="#000000" stroke="none">
<path d="M3030 8590 c0 -5 5 -10 11 -10 5 0 7 5 4 10 -3 6 -8 10 -11 10 -2 0
-4 -4 -4 -10z M3010 8483 c-12 -21 -32 -54 -46 -72 -14 -20 -22 -41 -18 -50
10 -26 5 -670 -11 -1271 -9 -351 -15 -621 -20 -855 -16 -825 -20 -910 -36
-920 -4 -3 -17 3 -29 15 -16 16 -33 20 -87 20 -48 0 -85 7 -125 23 -60 25
-119 28 -223 13 -48 -7 -52 -6 -87 28 -20 20 -46 36 -57 36 -11 0 -25 6 -30
13 -6 6 -22 26 -36 44 -28 34 -76 50 -195 63 -87 10 -199 41 -230 63 l-25 18
30 25 c17 13 39 24 49 24 11 0 30 9 42 21 19 17 21 26 13 52 -5 17 -6 40 -3
50 3 10 1 23 -4 30 -19 22 -2 64 26 70 47 10 54 37 30 109 -11 35 -24 68 -28
73 -4 6 -5 19 -3 30 7 29 7 53 0 124 -5 43 -3 68 5 78 6 8 11 36 9 62 -1 27 5
60 14 77 8 16 15 41 15 55 0 15 10 35 25 47 13 12 22 28 19 36 -3 8 -1 17 5
21 13 8 14 52 2 59 -5 4 -11 0 -14 -6 -2 -8 -17 1 -37 25 -19 20 -40 37 -47
37 -7 0 -22 5 -33 12 -25 16 -86 -11 -101 -46 -11 -24 -12 -24 -43 -6 -33 18
-106 27 -106 11 0 -5 -11 -12 -25 -15 -14 -4 -39 -21 -55 -39 -28 -31 -29 -31
-30 -9 0 32 -19 64 -32 56 -5 -4 -7 -19 -4 -35 6 -30 -7 -47 -21 -27 -4 7 -8
22 -8 33 0 11 -7 21 -16 23 -24 5 -32 -38 -11 -62 17 -20 17 -20 -8 -3 -14 9
-36 22 -50 28 -34 15 -131 5 -164 -16 -22 -15 -29 -15 -42 -4 -24 19 -114 16
-163 -5 -33 -16 -43 -26 -51 -58 -10 -36 -30 -45 -30 -13 0 17 -17 28 -31 20
-7 -5 -5 -15 6 -31 8 -13 11 -24 6 -24 -5 0 -11 6 -14 13 -2 6 -8 8 -13 4 -5
-5 1 -16 13 -25 11 -9 24 -27 28 -39 3 -13 11 -24 16 -24 5 -1 14 -2 19 -3 12
-1 62 -73 96 -139 19 -36 22 -52 14 -66 -11 -22 -3 -52 17 -64 11 -7 10 -13
-2 -37 -8 -16 -15 -39 -15 -52 0 -27 57 -88 76 -81 20 7 17 30 -6 50 -23 20
-26 50 -9 87 9 20 22 26 58 31 25 3 75 11 111 16 36 5 74 11 85 13 11 2 30 6
41 10 25 8 74 -8 74 -24 0 -6 -20 -30 -44 -54 -42 -41 -44 -44 -28 -61 13 -13
14 -19 5 -22 -7 -3 -13 -19 -13 -36 0 -22 -3 -28 -9 -18 -5 8 -16 11 -30 6
-36 -11 -24 -33 21 -40 38 -7 67 -27 68 -47 0 -15 -29 -8 -38 8 -6 10 -24 17
-51 18 -46 3 -48 0 -25 -25 19 -21 12 -37 -22 -49 -16 -6 -24 -17 -24 -33 0
-29 -18 -84 -38 -115 -25 -38 -26 -16 -2 47 20 55 21 81 1 81 -4 0 -38 -63
-75 -140 -57 -119 -76 -147 -124 -191 -51 -47 -55 -53 -42 -72 9 -15 10 -22 1
-25 -6 -2 -18 -16 -26 -32 -8 -15 -23 -30 -35 -33 -21 -5 -26 3 -10 19 5 5 14
42 20 81 6 40 25 112 41 160 17 49 31 106 31 128 1 24 12 60 30 92 20 36 32
73 35 114 5 56 4 61 -13 57 -14 -2 -21 -16 -27 -58 -4 -30 -18 -77 -31 -105
-13 -27 -24 -64 -25 -82 -1 -18 -10 -60 -22 -95 -28 -86 -48 -168 -49 -196 0
-13 -9 -31 -21 -41 -19 -15 -19 -18 -5 -30 14 -12 13 -17 -7 -52 -12 -21 -30
-42 -39 -45 -10 -3 -18 -13 -18 -22 0 -9 -7 -26 -15 -36 -18 -23 -20 -87 -4
-103 9 -9 9 -19 0 -41 -10 -24 -10 -39 2 -79 21 -71 12 -175 -20 -222 -20 -29
-23 -43 -17 -76 7 -45 28 -131 39 -158 5 -10 2 -25 -7 -35 -8 -9 -21 -33 -28
-52 -8 -19 -24 -52 -35 -72 l-21 -38 -1 278 c0 220 -4 295 -17 362 -10 47 -19
94 -21 105 -11 73 -40 165 -65 208 -41 72 -135 165 -179 177 -63 17 -67 27
-14 33 167 21 166 21 193 -9 l25 -28 -25 17 c-69 48 -76 31 -13 -35 27 -29 58
-72 69 -95 18 -40 36 -53 48 -34 3 4 -13 38 -35 75 -22 37 -39 70 -36 72 7 8
59 -58 74 -93 18 -44 37 -43 30 1 -4 26 -2 33 10 32 30 -2 23 19 -23 72 l-46
52 41 0 c22 0 43 -4 46 -10 3 -5 0 -7 -8 -4 -25 9 -30 -16 -9 -39 11 -12 25
-34 31 -50 12 -31 37 -45 53 -29 11 11 -3 44 -36 80 -13 14 -15 21 -6 17 8 -3
24 -19 35 -36 26 -40 53 -55 61 -34 8 20 -37 79 -86 111 -62 41 -144 42 -395
4 -184 -28 -244 -43 -312 -76 -70 -34 -73 -36 -73 -71 0 -39 2 -39 61 15 53
47 210 66 303 37 73 -23 142 -93 174 -177 25 -68 75 -257 86 -325 6 -38 19
-285 18 -323 -3 -70 -1 -522 3 -545 2 -16 6 -59 10 -95 4 -36 13 -90 21 -121
8 -31 14 -67 14 -80 0 -33 26 -103 39 -107 6 -2 11 -12 11 -21 0 -27 81 -26
87 0 6 23 38 25 47 4 7 -19 32 -19 40 0 3 9 19 15 41 15 28 0 35 -4 35 -20 0
-11 7 -20 15 -20 8 0 19 9 25 20 13 24 30 26 30 5 0 -8 9 -15 20 -15 11 0 23
7 26 15 7 18 31 20 37 3 3 -10 13 -9 41 5 47 22 72 22 85 0 8 -15 13 -16 29
-6 11 6 29 9 41 6 11 -3 29 -2 38 2 10 5 32 9 48 10 17 1 46 5 66 8 26 5 40 2
49 -8 16 -19 39 -19 46 0 7 18 28 19 54 3 16 -10 24 -10 41 0 15 10 24 11 32
3 16 -16 38 -14 58 5 23 21 57 10 65 -22 8 -31 18 -30 42 1 23 29 32 32 32 10
0 -24 40 -18 50 8 l9 22 0 -22 c1 -12 6 -25 11 -28 14 -9 62 23 55 35 -4 6 3
10 14 10 12 0 21 -4 21 -10 0 -5 9 -14 20 -20 15 -8 23 -6 38 10 17 18 20 19
25 6 9 -23 44 -19 58 6 l12 22 23 -27 c29 -34 38 -34 53 1 l13 27 15 -22 c19
-28 39 -29 53 -3 16 29 104 29 120 0 6 -11 20 -20 30 -20 13 0 20 7 20 20 0
26 17 25 41 -2 l19 -23 20 24 c21 25 50 23 50 -4 0 -23 41 -19 47 5 7 25 19
25 33 0 14 -26 47 -26 55 0 4 13 15 20 30 20 15 0 26 -7 30 -20 8 -25 26 -25
48 0 19 23 80 29 71 7 -3 -8 3 -20 12 -28 14 -11 18 -11 30 6 8 10 14 24 14
30 0 6 18 10 40 10 22 0 40 -3 40 -7 0 -5 -4 -8 -10 -8 -5 0 -10 -13 -10 -29
0 -26 -4 -29 -37 -33 -21 -3 -48 0 -61 5 -15 7 -58 6 -136 -2 -75 -9 -228 -12
-452 -10 -187 1 -476 -1 -644 -5 -168 -3 -458 -8 -645 -11 -400 -5 -447 -12
-400 -58 8 -9 19 -47 24 -89 11 -85 37 -214 47 -229 3 -6 19 -46 34 -89 32
-90 82 -159 195 -269 67 -66 74 -76 61 -89 -13 -13 -19 -13 -51 2 -20 10 -45
14 -58 11 -12 -4 -30 -9 -39 -11 -14 -4 -18 1 -18 20 0 14 -4 26 -9 26 -5 0
-11 10 -14 21 -5 19 -11 21 -41 15 -38 -7 -51 8 -16 17 24 6 27 37 4 37 -9 0
-14 6 -11 13 3 8 1 20 -3 27 -7 11 -14 11 -38 1 -49 -20 -74 6 -27 27 27 13
33 39 11 48 -8 3 -24 1 -35 -6 -16 -8 -21 -8 -21 1 0 6 9 13 20 16 12 3 20 14
20 25 0 17 -5 20 -30 16 -17 -3 -33 -1 -36 4 -3 4 1 8 8 8 23 0 39 16 32 33
-4 11 -17 17 -36 17 -16 0 -27 4 -23 10 3 5 12 7 19 4 8 -3 17 0 21 6 10 17
-14 40 -42 40 -30 0 -26 24 5 28 18 3 20 7 12 23 -6 11 -21 19 -35 19 -14 0
-25 5 -25 10 0 6 12 10 26 10 36 0 29 34 -9 38 -28 3 -39 22 -13 22 8 0 18 5
21 10 10 16 -14 40 -38 40 -11 0 -17 3 -13 7 4 4 17 8 29 8 15 0 22 6 22 20 0
15 -8 21 -32 23 -44 4 -42 19 3 28 25 5 34 11 30 21 -3 8 -6 17 -6 19 0 2 -15
4 -34 4 -46 0 -54 16 -16 35 30 15 39 38 20 50 -5 3 -19 1 -31 -5 -24 -14 -25
-13 -34 23 -6 24 -5 27 19 27 19 0 26 5 26 20 0 19 -10 24 -38 21 -6 -1 -12 5
-12 14 0 8 6 15 13 15 23 0 38 16 31 34 -5 12 -14 16 -30 13 -34 -6 -41 32
-10 58 26 22 24 45 -4 45 -18 0 -34 23 -23 34 4 3 17 6 30 6 20 0 24 5 21 23
-2 17 -9 21 -30 19 -22 -2 -28 1 -28 18 0 16 6 20 30 20 48 0 36 44 -12 45
-10 0 -18 3 -18 8 0 4 0 12 0 17 0 6 12 10 26 10 21 0 25 4 22 23 -2 16 -10
22 -28 22 -15 0 -26 6 -28 18 -3 12 3 17 22 17 29 0 39 11 30 34 -4 11 -13 14
-30 10 -18 -5 -24 -2 -24 10 0 9 3 16 8 17 21 2 44 8 49 13 13 12 -8 36 -32
36 -35 0 -31 23 6 37 27 11 30 15 19 28 -7 8 -21 15 -31 15 -11 0 -19 5 -19
10 0 6 0 13 0 17 0 4 14 6 31 5 25 -3 30 0 27 15 -2 10 -17 22 -36 28 -41 12
-41 23 1 27 24 2 32 8 32 23 0 14 -8 21 -27 23 -38 4 -35 20 4 24 44 4 46 24
4 42 -40 17 -47 27 -15 23 32 -3 35 21 5 33 -31 11 -34 40 -6 47 11 3 20 10
20 15 0 5 -9 12 -20 15 -26 7 -26 33 0 40 25 7 25 19 0 33 -25 14 -26 30 -1
30 27 0 36 19 14 27 -37 14 -38 43 -2 43 12 0 19 5 16 13 -2 6 -11 12 -20 12
-8 0 -19 3 -22 7 -12 12 5 46 22 44 9 0 18 5 20 12 3 7 -4 12 -15 12 -28 0
-40 39 -17 56 18 13 12 39 -7 28 -12 -8 -28 14 -28 39 0 11 8 17 21 17 27 0
20 24 -8 28 -28 4 -39 32 -13 32 12 0 20 7 20 16 0 12 -7 15 -25 12 -30 -6
-54 17 -37 34 18 18 14 31 -7 25 -12 -3 -27 3 -38 15 -17 19 -17 20 0 33 23
16 22 25 -3 25 -11 0 -20 -7 -20 -15 0 -13 -4 -14 -21 -5 -12 7 -19 19 -17 32
2 12 -3 23 -9 25 -7 3 -13 -2 -13 -11 0 -17 -18 -21 -35 -8 -5 4 -10 16 -10
26 0 11 -6 21 -14 24 -10 3 -13 -2 -9 -22 6 -30 7 -29 -27 -16 -29 11 -120 -6
-171 -33 -51 -26 -64 -56 -64 -148 0 -67 4 -86 22 -112 30 -44 36 -47 96 -47
48 0 56 3 88 36 19 20 35 42 35 48 1 6 2 18 3 26 4 39 -67 70 -80 35 -9 -22
-24 -18 -24 5 0 24 53 54 80 45 11 -4 20 -13 20 -21 0 -8 7 -17 15 -20 23 -9
20 -86 -6 -118 -11 -14 -26 -26 -33 -26 -7 0 -23 -9 -36 -20 -29 -25 -43 -25
-119 -1 l-61 19 0 -24 c0 -22 28 -44 65 -49 6 -1 17 -5 26 -9 25 -11 94 11
128 40 37 30 47 26 55 -23 4 -21 15 -63 26 -93 10 -30 19 -80 19 -110 1 -30 4
-79 6 -107 4 -58 -2 -64 -31 -32 -36 41 -101 61 -174 54 -111 -11 -120 -14
-120 -41 0 -21 3 -23 19 -15 10 6 38 13 61 16 23 3 45 7 49 9 4 3 28 0 54 -6
57 -12 112 -58 102 -87 -4 -14 0 -21 16 -26 21 -7 21 -9 14 -169 -6 -165 -7
-327 -1 -333 2 -2 13 13 25 33 16 27 22 52 21 93 0 31 1 164 3 296 4 251 -4
379 -28 456 -8 25 -15 62 -17 83 -1 20 -8 42 -15 48 -11 9 -11 14 -1 26 8 9
13 42 13 78 0 55 -3 67 -26 90 -33 32 -102 42 -139 20 -14 -8 -36 -20 -49 -26
-19 -8 -21 -13 -11 -25 7 -8 10 -21 7 -29 -8 -20 21 -56 45 -56 12 0 32 10 45
22 25 24 31 14 8 -16 -8 -10 -12 -22 -10 -26 8 -12 -17 -27 -58 -34 -35 -7
-41 -4 -73 29 -29 31 -34 44 -34 84 0 48 26 98 67 126 35 24 114 34 168 22 73
-18 110 -41 146 -93 31 -46 71 -139 63 -147 -3 -2 0 -26 6 -53 9 -38 14 -402
8 -589 -1 -16 2 -68 5 -115 4 -47 9 -159 12 -250 7 -209 36 -470 55 -495 4 -5
10 -32 14 -60 11 -93 70 -352 91 -401 10 -21 27 -72 40 -112 23 -73 67 -135
158 -222 l37 -36 -25 -24 c-14 -13 -25 -31 -25 -41 0 -10 -4 -21 -10 -24 -14
-8 -6 -60 14 -90 9 -14 31 -35 49 -45 l32 -20 -27 0 c-36 0 -36 -22 -2 -45 17
-11 35 -14 52 -10 15 4 35 8 44 10 10 2 34 16 53 31 57 43 41 62 -21 23 -20
-12 -45 -19 -61 -17 -25 4 -22 6 20 17 81 23 123 102 83 156 -32 44 -151 8
-133 -39 11 -29 39 -31 59 -6 24 30 43 14 33 -28 -16 -75 -149 -42 -147 36 1
38 30 90 54 98 133 42 226 -101 162 -248 -14 -31 -21 -37 -39 -32 -13 3 -26 1
-29 -5 -4 -6 -22 -11 -40 -11 -25 0 -38 -7 -50 -25 -31 -47 -1 -58 64 -25 22
11 40 17 40 12 0 -15 -138 -144 -148 -139 -5 4 -12 36 -16 73 -10 96 -55 193
-142 304 -130 167 -207 343 -254 580 -11 58 -29 139 -41 180 -11 41 -23 86
-25 100 -21 125 -31 215 -39 325 -4 55 -8 112 -9 128 -1 15 -3 38 -4 52 -1 14
-7 25 -13 25 -6 0 -9 -9 -6 -20 3 -10 -2 -25 -10 -32 -11 -9 -13 -24 -8 -64 3
-29 8 -98 10 -154 2 -55 9 -126 15 -156 7 -31 9 -58 6 -61 -3 -3 -24 11 -48
31 -77 66 -195 83 -272 38 -26 -15 -31 -25 -34 -62 l-3 -45 25 36 c29 42 43
49 99 49 81 0 117 -18 192 -94 l71 -71 31 -125 c35 -140 47 -200 38 -200 -3 0
-22 8 -43 19 -42 21 -156 51 -193 51 -13 0 -31 -5 -39 -10 -11 -7 -23 -1 -45
20 -25 24 -100 59 -127 60 -5 0 -8 -8 -8 -18 0 -13 12 -22 39 -31 24 -7 49
-24 61 -41 l21 -30 -26 0 c-46 0 -95 -29 -95 -57 0 -25 8 -24 42 5 12 10 29
13 55 9 32 -6 41 -3 58 19 29 37 84 41 175 14 62 -18 84 -31 123 -70 33 -33
45 -53 41 -64 -4 -9 1 -24 9 -34 9 -10 30 -48 47 -85 17 -37 35 -67 41 -67 5
0 7 -4 4 -10 -3 -5 -1 -20 6 -32 12 -23 108 -149 120 -158 4 -3 27 -43 52 -90
72 -138 85 -277 38 -404 -18 -47 -22 -80 -22 -161 1 -172 33 -244 154 -343 27
-22 28 -24 12 -42 -17 -19 -13 -60 6 -60 10 0 7 -25 -12 -100 -7 -29 -15 -37
-49 -48 -53 -16 -120 -45 -192 -82 -31 -17 -59 -30 -61 -30 -11 0 -30 104 -20
107 6 2 18 10 28 17 22 16 11 39 -16 31 -15 -5 -19 -1 -19 15 0 27 35 40 129
49 46 4 76 11 79 19 2 6 -3 12 -12 12 -20 0 -21 16 -1 24 38 14 6 23 -87 23
-68 0 -112 -4 -130 -13 -38 -20 -48 -17 -48 11 0 18 4 23 16 18 10 -4 17 1 20
14 7 26 37 39 119 54 44 7 65 16 65 25 0 9 -12 14 -32 15 -31 0 -31 1 -10 10
28 11 20 29 -14 29 -15 0 -24 6 -24 15 0 8 -8 15 -17 15 -31 0 -119 -27 -144
-43 -13 -9 -38 -15 -55 -15 -42 1 -54 -8 -54 -43 0 -28 2 -30 28 -24 25 5 28
3 30 -26 2 -19 -4 -36 -13 -43 -8 -6 -16 -22 -17 -36 -2 -19 1 -24 15 -22 9 1
25 3 35 5 9 1 16 -4 14 -11 -3 -15 -2 -163 1 -206 2 -31 6 -29 -87 -37 -38 -3
-39 -2 -43 31 -2 19 -8 36 -13 38 -17 6 8 39 33 46 13 3 29 16 36 29 15 29 0
66 -43 106 -27 26 -35 57 -13 48 8 -3 19 -2 26 2 18 11 2 63 -20 68 -11 3 -20
15 -20 27 -9 133 -7 181 7 197 13 14 13 18 -1 29 -18 15 -20 44 -2 57 18 15
75 24 79 13 2 -7 15 -7 36 -1 21 7 43 6 59 0 21 -8 26 -6 30 11 3 11 14 20 24
20 10 0 20 4 24 9 8 15 -29 31 -72 32 -21 0 -31 3 -23 6 8 3 30 12 48 20 19 9
46 13 66 10 37 -6 46 -2 63 30 10 17 9 24 -2 33 -18 15 -147 15 -195 1 -44
-14 -140 -14 -140 -1 0 5 10 12 23 14 44 9 123 18 174 20 57 2 73 10 54 29 -7
7 -38 12 -76 11 -35 0 -62 3 -60 7 7 11 -18 27 -50 32 -26 3 42 7 237 11 53 1
66 9 49 30 -11 13 -8 14 22 9 47 -7 58 13 23 44 -26 22 -34 23 -135 19 -59 -2
-117 -9 -129 -15 -29 -15 -29 3 -1 23 12 8 19 21 16 29 -5 14 -39 15 -109 2
-40 -7 -34 1 16 24 30 13 75 21 133 24 79 3 88 6 88 23 0 13 -8 20 -25 22 -14
2 -30 10 -37 19 -8 11 -24 14 -52 11 -32 -3 -38 -1 -28 9 6 6 34 13 60 14 27
2 50 6 53 10 7 11 -30 29 -63 30 l-28 1 30 9 c17 5 44 8 62 5 37 -5 48 11 33
49 -8 22 -16 25 -55 25 -26 0 -54 4 -64 9 -20 11 -160 -4 -175 -19 -5 -5 -28
-10 -50 -10 -50 -1 -110 -29 -114 -53 -3 -15 0 -18 17 -12 12 4 21 2 21 -4 0
-6 7 -11 16 -11 9 0 14 -8 13 -17 -3 -33 1 -43 17 -43 37 0 -2 -19 -63 -30
-93 -17 -106 -25 -100 -59 6 -27 3 -29 -54 -45 l-59 -16 0 -44 c0 -33 5 -46
18 -51 16 -6 16 -7 0 -16 -13 -7 -18 -22 -18 -49 0 -31 4 -40 18 -40 16 -1 16
-1 0 -11 -15 -8 -18 -25 -18 -109 0 -92 1 -100 19 -100 25 0 30 -8 62 -100 15
-41 30 -84 34 -94 6 -13 5 -17 -2 -13 -19 12 -43 -4 -43 -28 0 -17 -7 -25 -22
-27 -13 -2 -23 -10 -23 -18 0 -11 13 -16 48 -18 26 -2 47 -6 47 -10 0 -12 -15
-29 -30 -35 -10 -4 -8 -6 8 -6 25 -1 30 -16 7 -25 -8 -3 -12 -12 -9 -20 7 -18
-11 -29 -37 -21 -15 5 -19 14 -17 33 2 21 -1 27 -17 27 -30 0 -33 -60 -5 -90
l21 -22 -20 -6 c-12 -3 -21 -13 -21 -22 0 -13 6 -16 21 -12 23 6 78 -9 95 -27
6 -6 14 -46 18 -89 6 -74 5 -78 -17 -86 -12 -5 -29 -5 -39 0 -23 12 -78 -9
-78 -30 0 -14 7 -17 29 -13 16 2 32 -1 35 -7 11 -17 34 -13 58 11 18 18 35 23
93 24 131 5 300 15 332 21 20 3 33 1 33 -5 0 -11 -56 -18 -209 -28 -52 -3
-102 -11 -112 -17 -15 -9 -24 -9 -41 2 -13 7 -20 10 -16 6 7 -8 -17 -26 -52
-40 -62 -26 -79 -36 -85 -54 -3 -11 -15 -23 -26 -26 -22 -7 -24 -32 -4 -59 15
-20 7 -56 -20 -82 -8 -9 -15 -30 -15 -47 1 -27 2 -30 13 -16 7 8 24 23 38 32
35 23 56 86 39 117 -9 17 -9 24 0 30 6 4 17 18 24 31 8 17 29 30 71 43 33 10
69 23 80 27 11 5 73 11 139 14 65 4 129 10 141 15 13 5 25 7 28 4 10 -11 107
29 107 43 0 11 4 13 13 6 19 -15 62 0 62 22 0 11 -6 19 -12 17 -7 -1 -13 1
-13 5 0 5 31 20 68 35 85 33 112 41 112 32 0 -23 -74 -154 -103 -183 -39 -37
-75 -47 -210 -57 -97 -7 -140 -29 -157 -79 -8 -25 -19 -35 -39 -40 -39 -8 -71
-40 -64 -63 2 -11 0 -23 -6 -26 -6 -4 -11 -37 -11 -77 l0 -69 -160 0 c-133 0
-160 -2 -160 -14 0 -8 4 -17 9 -20 4 -3 239 -8 522 -11 283 -2 627 -7 764 -11
617 -15 1143 -18 1535 -9 124 3 640 6 1148 7 l922 1 0 24 0 23 -217 0 c-665 2
-660 2 -621 14 57 17 66 31 42 63 -11 16 -28 45 -37 65 -10 20 -23 41 -30 45
-8 5 -3 9 13 13 14 3 31 18 40 32 12 23 12 32 1 63 -7 20 -10 39 -7 43 4 3
104 7 224 9 188 3 219 6 230 20 16 23 15 53 -3 53 -7 0 -18 6 -22 13 -10 15
-36 32 -92 58 l-44 21 28 22 c24 19 26 26 21 61 -10 65 -26 104 -48 119 -20
15 -20 15 8 12 16 -2 32 -4 37 -5 4 0 7 -7 7 -15 0 -20 15 -23 124 -19 l100 3
92 -45 c51 -25 98 -45 104 -45 5 0 10 -5 10 -11 0 -17 -82 -4 -96 15 -11 15
-115 66 -134 66 -24 0 -6 -21 34 -38 58 -26 65 -39 31 -66 -21 -17 -28 -31
-27 -54 1 -28 -3 -31 -38 -37 -21 -4 -46 -15 -55 -25 -15 -17 -15 -19 5 -38
12 -11 38 -23 58 -27 32 -6 34 -9 17 -15 -11 -5 -34 -9 -51 -9 -36 -1 -84 -22
-84 -37 0 -23 27 -34 84 -34 72 0 70 -7 -4 -15 -121 -12 -139 -25 -115 -83 15
-34 21 -37 44 -23 10 7 11 13 1 31 -18 33 -1 41 76 38 l69 -3 -2 -92 c-3 -86
-1 -93 16 -93 20 0 26 28 34 145 l2 40 88 -4 c72 -3 87 -1 87 12 0 21 -22 27
-102 27 -84 0 -84 13 0 15 92 2 102 4 102 20 0 11 -12 15 -47 16 l-48 1 40 8
c22 4 43 6 48 3 4 -2 7 5 7 16 0 19 -5 20 -85 18 -47 -2 -85 0 -85 5 0 4 10 9
23 9 47 3 93 6 120 8 20 1 27 6 27 22 0 17 -5 20 -25 17 -28 -6 -34 6 -9 16 9
3 14 12 12 18 -3 9 -30 13 -78 15 -79 2 -101 13 -84 40 6 9 17 19 25 22 12 4
12 2 1 -12 -19 -22 -7 -36 28 -35 17 1 33 -2 37 -5 12 -12 43 25 43 51 l0 25
25 -23 25 -23 0 25 c0 15 -6 29 -12 32 -10 5 -10 7 -1 12 25 11 13 33 -24 44
-21 7 -61 25 -89 40 -28 16 -76 33 -107 39 -31 6 -69 17 -85 25 -16 8 -65 17
-108 19 -43 2 -103 12 -132 22 -68 22 -95 57 -98 124 -2 46 0 53 32 81 46 40
85 40 121 0 40 -46 50 -39 49 35 -1 68 -10 79 -40 50 -8 -9 -26 -15 -38 -14
-70 6 -119 -20 -158 -83 l-17 -28 -25 72 c-14 40 -33 93 -42 117 -14 36 -15
49 -5 67 6 12 8 27 4 34 -13 21 18 61 69 87 84 42 176 29 204 -30 15 -32 20
-32 67 -10 32 15 37 15 51 2 13 -14 11 -21 -21 -68 -30 -45 -35 -61 -35 -111
0 -48 5 -64 30 -98 33 -46 70 -57 70 -22 0 11 -3 20 -7 20 -5 0 -18 15 -30 33
-39 57 -27 129 30 171 27 20 29 20 39 3 7 -14 13 -16 24 -6 8 6 14 21 14 33 0
29 53 92 95 112 33 15 97 15 152 -1 20 -6 21 -3 21 39 -1 50 -14 58 -42 27
-13 -14 -26 -17 -60 -14 -30 4 -56 -1 -88 -16 -43 -19 -100 -73 -110 -103 -3
-9 -15 -2 -37 21 -29 31 -35 33 -75 28 -35 -5 -47 -3 -61 13 -10 11 -40 27
-67 36 -42 14 -59 14 -106 5 -71 -14 -137 -53 -154 -91 -22 -52 -22 -53 -92
165 -66 205 -86 277 -86 310 0 17 -9 63 -20 103 -11 39 -20 85 -20 102 0 17
-4 38 -10 48 -17 31 -29 112 -16 112 6 1 20 15 31 32 15 24 32 35 70 45 62 16
117 17 132 2 13 -13 33 -4 33 15 0 25 -31 40 -77 37 -51 -2 -51 12 1 34 26 11
33 11 48 -2 22 -20 38 -9 38 27 0 95 171 164 270 109 44 -25 66 -20 79 15 6
15 26 30 55 41 41 16 53 16 109 5 73 -15 156 -52 186 -84 48 -51 68 -152 50
-250 -2 -10 2 -21 9 -23 9 -4 12 24 12 118 0 110 -2 126 -22 155 -46 66 -168
116 -293 118 -50 1 -109 -22 -131 -52 -9 -13 -18 -13 -63 -2 -33 8 -74 10
-109 5 -31 -3 -69 -7 -84 -7 -16 -1 -28 -5 -28 -10 0 -6 -18 -30 -40 -55 -22
-25 -40 -49 -40 -53 0 -4 -17 -10 -38 -14 -44 -7 -97 -49 -88 -71 4 -10 -6
-18 -34 -25 -21 -6 -52 -22 -68 -35 l-30 -25 -16 40 c-17 43 -21 71 -8 69 22
-4 32 4 42 36 9 27 17 35 35 35 36 0 50 24 30 53 -17 26 -8 41 18 31 20 -7 32
14 28 49 -7 72 87 140 192 139 79 -1 107 -12 158 -63 30 -30 44 -38 52 -30 17
17 -9 58 -60 97 -114 87 -341 26 -384 -103 -6 -21 -23 -46 -36 -56 -14 -11
-23 -29 -23 -46 0 -18 -12 -38 -37 -62 -26 -25 -34 -29 -29 -14 4 11 8 22 9
25 0 3 -5 37 -12 76 -8 49 -25 93 -52 139 -21 37 -39 72 -39 79 0 6 -9 26 -21
45 -18 31 -19 35 -5 43 13 7 14 13 5 30 -28 52 20 157 89 195 68 39 153 30
202 -20 26 -27 33 -30 50 -19 12 7 21 8 25 2 9 -15 35 -12 41 5 4 9 -5 26 -21
41 -25 23 -27 30 -23 81 4 48 10 61 37 85 22 19 42 28 66 28 30 0 35 3 35 23
0 13 5 28 10 33 8 8 7 19 -1 38 -11 24 -10 29 16 56 16 17 34 30 40 30 6 0 27
19 47 43 45 55 88 68 219 68 89 1 106 -2 152 -26 66 -33 140 -101 167 -154 11
-23 24 -41 29 -41 15 0 31 26 37 61 6 32 6 33 -11 18 -16 -16 -21 -12 -84 51
-94 96 -134 112 -293 118 -123 4 -129 3 -178 -22 l-51 -27 -22 28 c-12 15 -31
36 -42 45 -11 9 -36 31 -56 47 -57 48 -185 109 -267 127 -72 16 -141 15 -239
-2 -30 -6 -32 -4 -39 32 -5 27 -3 40 8 48 8 6 14 27 14 48 0 45 13 61 87 109
65 42 158 60 210 40 24 -9 33 -8 58 10 16 11 33 18 39 14 5 -3 18 0 29 7 15 9
25 9 45 0 30 -13 39 -3 28 30 -18 54 11 148 61 196 76 73 213 106 315 76 25
-8 50 -13 56 -11 15 5 133 -118 155 -161 24 -47 70 -61 98 -30 9 10 30 18 50
18 29 0 33 3 33 25 0 20 -5 25 -25 25 -13 0 -35 -5 -49 -11 -19 -9 -31 -8 -57
5 -17 9 -40 16 -51 16 -10 0 -18 6 -18 13 0 17 -88 100 -120 114 -71 31 -101
38 -170 38 -42 0 -88 -7 -105 -14 -16 -8 -36 -15 -42 -17 -22 -4 -107 -71
-129 -101 -11 -15 -26 -50 -33 -78 -7 -27 -15 -58 -18 -67 -2 -11 -14 -18 -27
-18 -12 0 -39 -9 -59 -19 -27 -14 -60 -20 -115 -20 -42 -1 -93 -5 -114 -10
-38 -9 -120 -62 -150 -96 -25 -30 -52 -148 -44 -197 7 -44 -5 -68 -34 -68 -10
0 -28 -8 -41 -19 -17 -14 -33 -17 -61 -13 -58 7 -120 -22 -191 -89 -34 -32
-62 -59 -63 -59 -1 0 -4 17 -8 38 -9 54 -20 69 -40 52 -29 -23 -30 -1 -2 27
21 21 26 34 22 54 l-5 27 124 -5 c149 -6 161 1 167 89 5 83 -3 88 -133 87 -60
0 -113 2 -118 5 -4 3 -12 34 -15 68 -4 34 -11 69 -16 78 -7 12 2 25 35 53 39
34 44 44 51 93 3 31 17 77 30 102 13 26 24 62 24 79 0 18 3 32 8 32 21 -4 33
3 43 25 l11 23 24 -22 c23 -21 25 -55 3 -55 -13 0 -11 -28 2 -32 9 -3 9 -9 0
-25 -7 -14 -8 -30 -2 -45 6 -16 4 -30 -7 -46 -14 -21 -13 -25 2 -40 16 -16 17
-15 22 6 7 25 24 30 24 7 0 -8 -5 -15 -11 -15 -8 0 -8 -5 1 -15 11 -14 16 -12
44 8 22 17 37 22 51 16 31 -12 45 -10 45 5 0 8 -11 17 -25 20 -18 5 -25 13
-25 30 0 13 -7 29 -16 37 -9 8 -14 22 -11 37 3 17 -1 26 -17 32 -17 7 -18 9
-3 9 21 1 23 21 2 21 -23 0 -30 29 -11 43 13 10 15 18 7 42 -15 44 -10 66 22
95 28 24 29 29 32 138 3 112 16 157 48 166 7 2 30 9 53 15 54 14 201 104 242
147 27 28 32 41 27 63 -5 25 -1 31 29 49 37 22 46 48 24 71 -11 10 -7 18 20
39 37 31 40 51 12 77 -17 15 -24 16 -49 6 -23 -10 -33 -10 -48 0 -17 10 -29 7
-74 -17 -30 -15 -79 -45 -109 -65 -30 -20 -68 -39 -84 -43 l-28 -7 29 38 c45
56 49 79 20 98 -23 15 -26 14 -58 -17 -19 -18 -49 -44 -68 -58 -81 -60 -110
-92 -126 -140 -9 -26 -15 -59 -13 -72 3 -35 -31 -108 -51 -108 -28 0 -97 -66
-115 -110 -9 -22 -23 -43 -32 -47 -8 -3 -20 -16 -25 -29 -4 -13 -14 -24 -20
-24 -12 0 -11 326 7 2388 l5 553 -26 31 c-14 17 -35 48 -46 69 -16 32 -25 39
-49 39 -24 0 -34 -7 -50 -37z m41 -465 c-1 -457 -10 -1234 -16 -1416 -4 -131
-14 -547 -20 -837 -5 -244 -15 -612 -20 -740 -2 -55 -4 -128 -5 -162 0 -51 -3
-63 -16 -63 -9 0 -14 -6 -12 -12 3 -9 34 -15 89 -18 116 -7 137 -23 39 -30
-58 -4 -75 -8 -75 -20 0 -12 13 -14 71 -12 94 5 116 -15 98 -85 -5 -17 -12
-22 -28 -18 -11 3 -74 7 -140 9 -128 5 -136 8 -136 61 0 20 3 26 11 18 13 -13
55 -5 69 12 9 10 7 16 -8 24 -16 9 -19 22 -20 80 0 60 2 69 16 64 15 -4 15 -3
2 6 -12 8 -15 42 -15 193 0 101 3 217 7 258 4 41 9 228 13 415 3 187 8 464 10
615 3 151 7 394 10 540 2 146 7 321 10 390 3 69 8 280 11 470 5 301 8 347 22
364 16 18 16 19 -1 13 -16 -6 -18 2 -16 116 2 105 5 127 23 154 11 17 22 30
24 28 3 -2 4 -190 3 -417z m81 -462 c-1 -722 -9 -1422 -27 -2390 -5 -268 -8
-312 -23 -332 -40 -54 -43 -36 -37 209 3 127 7 266 9 307 3 41 7 320 11 620 3
300 8 644 10 765 4 228 13 809 20 1355 3 173 5 317 5 320 0 2 7 -6 16 -19 15
-21 17 -98 16 -835z m-1215 -841 c28 -32 29 -75 4 -130 -10 -22 -26 -73 -35
-112 -10 -40 -22 -73 -27 -73 -11 0 -49 60 -49 78 0 20 38 52 55 46 32 -13 13
12 -30 39 l-45 29 0 67 c0 40 5 72 13 80 20 21 88 7 114 -24z m-248 -9 c7 -8
20 -12 31 -9 23 6 50 -32 47 -67 -3 -34 -44 -86 -79 -101 -15 -6 -44 -9 -63
-6 -28 5 -37 2 -46 -14 -13 -25 -13 -25 30 -36 19 -5 43 -21 54 -36 17 -22 19
-31 9 -52 -10 -21 -18 -25 -52 -25 -51 0 -96 40 -78 70 8 13 7 29 -4 64 -9 26
-11 49 -7 52 5 3 6 15 3 28 -6 26 48 95 101 127 36 23 39 23 54 5z m-357 -48
c22 5 61 -13 102 -48 38 -34 51 -68 34 -98 -11 -21 -10 -26 10 -41 13 -9 25
-32 28 -52 5 -31 2 -39 -22 -58 -48 -38 -135 -10 -119 38 6 19 19 25 53 24 15
-1 16 29 0 45 -7 7 -22 12 -34 12 -13 0 -26 4 -29 10 -3 5 -19 7 -35 4 -24 -5
-31 -2 -43 22 -8 16 -24 38 -36 48 -33 30 -28 69 12 88 17 9 38 12 46 8 8 -4
22 -5 33 -2z m-170 -38 c20 -21 28 -38 28 -65 0 -36 -3 -40 -73 -101 l-22 -19
37 -6 c46 -7 68 -25 68 -53 0 -30 -18 -46 -51 -46 -32 0 -53 26 -99 119 -17
34 -35 61 -40 61 -5 0 -14 18 -21 39 -10 34 -9 42 7 60 45 47 124 53 166 11z
m658 -95 c0 -21 -17 -27 -40 -15 -17 9 -18 14 -8 30 9 14 16 16 30 9 10 -5 18
-16 18 -24z m-580 -44 c0 -5 -11 -16 -25 -25 -19 -13 -25 -13 -25 -3 0 7 5 18
12 25 14 14 38 16 38 3z m557 -26 c17 -24 8 -31 -43 -40 -40 -6 -42 -5 -63 31
l-22 37 57 -5 c40 -3 61 -10 71 -23z m-447 -19 c0 -2 -7 -20 -15 -39 -11 -28
-23 -38 -51 -46 -46 -13 -57 -6 -49 28 11 42 34 61 77 61 21 0 38 -2 38 -4z
m538 -57 c12 -5 22 -12 22 -16 0 -14 -316 -76 -525 -103 -109 -15 -234 -36
-256 -45 -13 -5 -16 1 -15 32 2 36 4 38 41 44 22 4 74 14 116 24 65 14 83 14
120 4 59 -17 89 -20 89 -8 0 5 7 9 15 9 8 0 15 7 15 15 0 11 16 14 81 12 67
-2 83 1 93 16 7 9 26 17 42 18 16 1 40 4 54 9 26 7 68 3 108 -11z m3 -101 c1
-18 2 -67 4 -108 2 -84 19 -156 43 -183 20 -23 9 -32 -34 -28 -28 2 -34 -1
-34 -17 0 -37 -12 -51 -46 -58 -38 -7 -62 -28 -44 -39 6 -4 17 -1 25 5 8 6 24
10 37 8 18 -2 23 -10 24 -33 0 -16 4 -40 8 -52 8 -26 -2 -34 -46 -34 -76 0
-129 10 -163 31 -50 31 -69 13 -26 -25 17 -16 40 -33 52 -39 26 -14 61 -113
57 -163 -4 -43 18 -56 32 -19 12 34 23 33 55 -5 34 -42 31 -83 -7 -87 -19 -2
-30 3 -38 17 -6 12 -19 21 -28 21 -10 0 -22 4 -28 9 -9 9 -163 55 -272 81 -41
9 -56 10 -65 0 -17 -17 13 -36 70 -44 62 -8 236 -65 261 -85 16 -13 18 -21 11
-39 -8 -20 -13 -22 -46 -16 -21 4 -40 10 -43 14 -11 15 -103 59 -162 78 -52
17 -204 44 -243 43 -24 0 -15 -31 12 -37 40 -10 47 -15 32 -25 -11 -8 -11 -11
4 -20 24 -14 21 -38 -5 -49 -13 -5 -17 -9 -10 -9 7 -1 -3 -17 -22 -36 -57 -57
-95 -43 -100 37 -4 61 1 70 35 63 25 -6 29 -3 29 14 0 16 -6 21 -24 21 -60 0
-28 48 51 76 26 9 69 16 94 15 42 -2 47 1 58 27 12 28 12 112 0 112 -4 0 -9 7
-13 15 -4 12 1 14 32 9 27 -4 41 -2 50 9 17 20 -3 33 -24 16 -13 -11 -14 -9
-3 14 11 24 10 30 -10 51 -21 22 -21 24 -4 28 18 4 30 -10 58 -69 16 -34 35
-44 35 -18 0 19 19 20 26 1 8 -20 44 -8 44 14 0 10 6 25 14 33 10 10 14 30 12
62 -3 37 1 53 15 69 11 11 19 30 19 43 0 13 7 35 16 49 14 20 15 30 5 50 -17
37 -14 65 10 90 12 13 22 33 23 46 1 14 8 24 21 26 11 2 30 14 43 25 15 14 33
21 53 19 19 -2 31 2 35 12 11 29 34 18 35 -16z m-196 -7 c3 -6 -4 -15 -15 -21
-25 -13 -86 -9 -83 5 4 19 87 33 98 16z m45 -1 c0 -5 -4 -10 -10 -10 -5 0 -10
5 -10 10 0 6 5 10 10 10 6 0 10 -4 10 -10z m-165 -73 c7 -9 17 -17 24 -17 16
0 29 -38 23 -67 -5 -25 -36 -48 -52 -38 -18 11 -10 27 10 22 15 -4 20 0 20 14
0 10 -4 19 -9 19 -5 0 -11 10 -13 22 -2 13 -11 24 -23 26 -25 5 -46 22 -40 31
8 13 47 5 60 -12z m92 1 c-3 -8 -6 -5 -6 6 -1 11 2 17 5 13 3 -3 4 -12 1 -19z
m-177 -62 c0 -3 -4 -8 -10 -11 -5 -3 -10 -1 -10 4 0 6 5 11 10 11 6 0 10 -2
10 -4z m15 -44 c0 -18 -20 -15 -23 4 -3 10 1 15 10 12 7 -3 13 -10 13 -16z
m133 -49 c-2 -20 -10 -29 -33 -35 -32 -8 -68 -2 -60 11 2 5 15 6 28 4 20 -4
26 0 31 21 9 36 38 35 34 -1z m-123 -7 c8 -7 11 -16 8 -19 -9 -10 -44 13 -38
24 8 12 14 11 30 -5z m2165 -20 c0 -2 -25 -35 -55 -71 -47 -58 -55 -73 -55
-109 0 -23 -9 -61 -20 -84 -20 -41 -20 -62 1 -62 6 0 17 17 26 38 8 20 20 42
25 49 16 19 39 -11 45 -57 3 -22 9 -40 13 -40 12 0 2 79 -16 131 -20 53 -13
68 28 69 21 0 157 76 181 101 10 11 25 19 34 19 10 0 13 -3 8 -8 -56 -47 -109
-84 -155 -108 -49 -25 -52 -29 -29 -32 37 -4 111 33 170 85 29 26 119 76 119
65 0 -4 -23 -25 -51 -47 -27 -22 -66 -53 -86 -70 -20 -16 -54 -39 -76 -50 -22
-12 -42 -26 -45 -33 -8 -26 37 -10 107 39 72 50 121 75 121 62 0 -10 -32 -43
-42 -43 -24 0 -199 -151 -182 -157 11 -4 96 38 150 74 38 25 28 -2 -13 -33
-65 -50 -166 -105 -218 -119 -27 -7 -63 -19 -80 -25 -16 -7 -40 -13 -53 -14
-12 0 -21 -5 -20 -11 4 -28 11 -45 18 -45 5 0 -5 -27 -21 -60 -16 -33 -29 -68
-29 -78 -1 -20 -23 -52 -37 -52 -5 0 -15 11 -21 25 -7 14 -20 25 -31 25 -24 0
-35 15 -54 70 -9 25 -18 53 -22 63 -5 12 -3 16 7 12 13 -5 47 22 41 32 -8 10
-1 23 12 23 8 0 15 4 15 9 0 6 14 31 31 56 21 32 33 65 40 111 5 36 15 76 22
89 6 13 46 51 89 84 42 33 79 65 83 70 6 11 25 15 25 7z m-2141 -25 c11 -7 9
-11 -8 -20 -26 -14 -28 -59 -4 -76 16 -12 16 -15 2 -32 -9 -10 -14 -24 -12
-30 7 -18 33 -16 33 2 0 18 12 19 28 3 9 -9 4 -16 -19 -30 -29 -17 -33 -18
-55 -3 -13 8 -26 26 -30 39 -3 14 -18 29 -35 36 -16 7 -29 16 -29 21 0 11 1
11 39 -2 17 -6 31 -15 31 -21 0 -5 4 -7 8 -4 5 3 8 29 7 58 -1 29 0 56 2 61 5
9 25 9 42 -2z m81 -32 c0 -5 -4 -9 -10 -9 -5 0 -10 7 -10 16 0 8 5 12 10 9 6
-3 10 -10 10 -16z m-33 -32 c-5 -15 -20 -18 -37 -7 -13 9 -13 11 -1 19 17 11
43 3 38 -12z m-7 -46 c0 -6 -4 -13 -10 -16 -5 -3 -10 1 -10 9 0 9 5 16 10 16
6 0 10 -4 10 -9z m-200 -11 c9 -6 11 -13 5 -17 -5 -5 -25 -27 -44 -51 -32 -42
-32 -44 -12 -49 25 -6 30 -53 6 -53 -8 0 -15 5 -15 11 0 8 -5 8 -15 -1 -8 -7
-15 -23 -15 -37 0 -20 -4 -23 -20 -18 -11 4 -20 2 -20 -4 0 -6 5 -11 10 -11 6
0 10 -4 10 -10 0 -5 -11 -10 -25 -10 -14 0 -28 -7 -31 -15 -4 -8 -12 -15 -20
-15 -8 0 -14 -6 -14 -12 0 -13 -62 -68 -76 -68 -4 0 13 21 38 48 24 26 54 69
67 95 17 34 26 45 32 36 13 -21 65 44 60 74 -2 12 49 117 57 117 4 0 14 -5 22
-10z m40 -99 c0 -6 -4 -13 -10 -16 -5 -3 -10 1 -10 9 0 9 5 16 10 16 6 0 10
-4 10 -9z m-56 -118 c4 -10 -1 -23 -14 -35 -22 -21 -48 -15 -30 7 6 7 8 20 4
29 -4 11 -1 16 14 16 11 0 23 -7 26 -17z m-104 -67 c0 -3 -4 -8 -10 -11 -5 -3
-10 -1 -10 4 0 6 5 11 10 11 6 0 10 -2 10 -4z m-556 -21 c-5 -11 -11 -12 -25
-4 -26 13 -24 19 6 19 17 0 23 -4 19 -15z m1208 -19 c15 -4 32 -16 39 -27 12
-24 12 -24 -23 -33 -21 -5 -28 -2 -33 14 -4 12 -16 30 -28 41 -21 20 -21 21
-2 16 11 -3 32 -8 47 -11z m-1172 -21 c7 -8 8 -15 2 -15 -5 0 -15 7 -22 15 -7
8 -8 15 -2 15 5 0 15 -7 22 -15z m1300 -2 c0 -5 -4 -13 -8 -20 -6 -9 -11 -7
-20 7 -11 17 -10 20 8 20 11 0 20 -3 20 -7z m-925 -35 c19 2 18 1 -2 -14 -22
-16 -32 -44 -15 -44 4 0 6 -20 4 -45 -4 -50 26 -105 58 -105 10 0 22 -4 25
-10 9 -15 61 -12 74 4 7 8 23 17 36 20 15 4 25 14 25 25 0 32 38 39 97 18 54
-20 54 -20 81 0 15 11 28 30 30 42 4 27 22 23 33 -7 7 -17 5 -22 -9 -22 -10 0
-35 -12 -57 -27 -29 -20 -52 -28 -87 -28 -56 0 -135 -49 -130 -81 2 -10 4 -25
5 -33 1 -8 -8 -20 -20 -26 -40 -21 -64 -48 -61 -71 2 -12 -4 -30 -13 -41 -23
-26 -39 -79 -39 -129 0 -24 -4 -44 -10 -44 -5 0 -10 -5 -10 -12 0 -6 3 -8 6
-5 4 4 14 -8 23 -25 27 -55 98 -83 159 -64 19 6 22 4 22 -18 0 -22 6 -28 45
-38 25 -7 45 -18 45 -26 0 -9 -7 -11 -21 -7 -23 8 -85 -21 -94 -43 -7 -20 16
-50 47 -61 16 -6 28 -15 28 -20 0 -14 -3 -14 -35 1 -14 6 -25 15 -25 19 0 5
-13 24 -30 42 -16 19 -27 37 -24 39 9 10 -24 76 -43 86 -41 21 -98 22 -130 2
-30 -18 -36 -30 -45 -82 -2 -13 -11 -10 -41 18 l-39 36 28 41 c16 23 38 52 51
63 13 12 23 25 23 29 0 4 14 23 30 42 31 35 32 53 2 53 -15 1 -15 2 -1 13 26
20 52 66 46 82 -4 8 -1 17 4 21 6 3 9 17 6 30 -3 16 4 31 19 45 31 29 30 50
-3 89 -24 29 -30 32 -72 27 -35 -4 -51 0 -72 15 -19 14 -38 19 -63 16 -34 -4
-35 -3 -18 16 9 10 41 34 70 53 36 23 52 40 50 51 -2 10 -11 16 -21 14 -19 -3
-14 21 10 50 8 9 12 22 7 29 -5 8 -3 9 7 3 8 -5 23 -7 34 -6z m1095 -39 c30
-36 48 -49 61 -46 29 8 23 -7 -11 -26 -36 -22 -45 -18 -61 31 -18 57 -28 65
-54 48 -17 -11 -25 -12 -34 -3 -17 17 -14 27 12 37 37 15 42 12 87 -41z m-865
1 c3 -5 2 -10 -4 -10 -5 0 -13 5 -16 10 -3 6 -2 10 4 10 5 0 13 -4 16 -10z
m612 -8 c-1 -21 -37 -28 -37 -7 0 12 13 22 32 24 4 1 6 -7 5 -17z m-516 -4
c54 -18 62 -39 25 -63 -19 -12 -30 -14 -44 -6 -23 12 -37 81 -17 81 1 0 17 -5
36 -12z m629 -13 c7 -8 27 -17 46 -21 19 -3 31 -11 28 -16 -4 -5 -15 -8 -25
-5 -11 3 -19 2 -19 -3 0 -14 -31 -20 -51 -10 -26 15 -25 70 1 70 4 0 13 -7 20
-15z m1166 -24 c-14 -16 -15 -23 -6 -41 14 -26 34 -22 38 8 2 11 13 24 24 28
16 5 27 -1 45 -25 13 -17 30 -31 37 -31 7 0 18 -11 24 -25 7 -14 20 -25 31
-25 11 0 23 -4 26 -10 3 -5 4 -10 1 -10 -2 0 -11 -3 -19 -6 -9 -3 -29 10 -50
32 -34 36 -57 39 -57 7 0 -9 16 -30 34 -48 32 -30 34 -34 21 -51 -14 -18 -15
-18 -21 4 -9 31 -39 25 -39 -8 0 -16 8 -28 23 -35 23 -10 30 -25 12 -25 -6 0
-30 9 -52 20 -47 23 -64 25 -73 9 -9 -14 32 -57 58 -61 23 -3 36 -28 15 -28
-7 0 -28 -9 -47 -21 l-34 -20 31 -32 32 -33 -13 -64 c-12 -54 -19 -69 -50 -94
-31 -24 -39 -27 -52 -16 -9 7 -14 19 -11 26 3 7 6 89 7 181 1 115 6 174 14
188 15 24 14 58 -4 79 -11 13 -11 17 2 22 12 4 16 18 15 50 -1 46 14 74 40 74
13 0 13 -3 -2 -19z m-1402 -10 c17 -6 16 -9 -8 -25 -22 -14 -30 -15 -42 -5
-35 29 -1 50 50 30z m109 -23 c2 -7 -1 -21 -7 -30 -8 -13 -8 -23 1 -37 9 -14
9 -21 0 -30 -27 -27 -55 -4 -35 28 18 30 -4 51 -33 33 -12 -8 -23 -11 -27 -8
-3 3 11 12 31 21 19 8 38 19 42 25 9 14 22 13 28 -2z m-325 -10 c9 -9 15 -9
23 -1 9 9 16 8 27 -4 9 -8 27 -13 43 -11 31 5 30 -10 -6 -48 -30 -32 -51 -30
-70 6 -8 16 -24 34 -35 40 -11 6 -20 15 -20 20 0 14 24 12 38 -2z m398 -14 c2
-20 -2 -25 -19 -22 -29 4 -33 26 -5 37 12 6 23 10 23 10 0 1 1 -11 1 -25z
m-1076 7 c0 -6 -4 -13 -10 -16 -5 -3 -10 1 -10 9 0 9 5 16 10 16 6 0 10 -4 10
-9z m1392 -23 c-7 -7 -12 -8 -12 -2 0 14 12 26 19 19 2 -3 -1 -11 -7 -17z
m256 -2 l33 -24 -47 -16 c-88 -30 -174 -16 -174 27 0 13 2 26 4 28 2 2 37 5
78 7 64 2 77 0 106 -22z m-315 -23 c5 -3 4 -9 -3 -13 -18 -11 -84 14 -88 33
-3 13 1 14 39 0 24 -8 47 -17 52 -20z m-127 -15 c94 -55 363 -70 474 -26 30
12 59 26 64 30 6 4 28 8 50 7 39 0 40 -1 16 -11 -14 -6 -70 -33 -125 -59 -123
-59 -185 -68 -300 -44 -44 9 -104 27 -134 41 -29 13 -61 24 -71 24 -10 0 -23
7 -30 15 -7 8 -22 15 -33 15 -19 0 -19 1 -3 19 19 21 42 18 92 -11z m-560 -7
c9 -37 23 -51 50 -51 29 0 32 -29 6 -54 -31 -27 -105 -185 -165 -351 -28 -76
-34 -85 -57 -85 -13 0 -22 9 -26 26 -10 41 -40 65 -69 58 -14 -3 -25 -10 -25
-15 0 -15 -53 -10 -72 8 -20 18 -22 50 -11 152 5 53 9 64 30 72 27 10 29 21 8
39 -22 19 0 40 38 37 28 -2 31 1 39 36 5 23 4 46 -2 57 -11 20 -6 26 40 46 20
9 35 7 71 -7 49 -19 69 -12 69 21 0 23 15 35 45 36 20 2 27 -4 31 -25z m1944
14 c0 -10 -10 -15 -26 -15 -22 0 -25 2 -14 15 7 8 19 15 26 15 8 0 14 -7 14
-15z m-1702 -11 c38 -11 39 -48 1 -93 -19 -22 -45 -61 -59 -88 -14 -26 -30
-53 -36 -60 -6 -6 -19 -36 -28 -65 -10 -29 -24 -69 -33 -88 -9 -19 -27 -83
-39 -142 -12 -58 -29 -121 -38 -140 -8 -18 -16 -53 -17 -78 -1 -25 -7 -54 -14
-65 -6 -11 -12 -38 -14 -60 -3 -35 -14 -62 -69 -161 -10 -18 -10 -33 -2 -63 7
-27 7 -48 0 -66 -22 -58 -4 -248 27 -271 16 -12 9 -13 -54 -14 l-73 0 -1 48
c0 26 -2 98 -5 160 -5 100 7 283 21 337 3 11 14 61 24 110 40 186 150 512 187
556 8 8 14 20 14 26 0 6 15 30 33 54 19 24 41 58 50 75 18 35 76 94 91 94 6 0
21 -3 34 -6z m1085 -47 c-9 -16 -26 12 -18 30 7 17 8 17 15 -2 4 -11 5 -24 3
-28z m-823 -83 c0 -7 3 -21 7 -31 6 -17 6 -17 -14 0 -26 23 -50 22 -58 -3 -4
-11 -11 -17 -17 -14 -10 6 -68 -43 -68 -57 0 -11 124 -99 139 -99 6 0 11 -6
11 -13 0 -26 81 -49 95 -27 3 6 17 10 31 10 19 0 24 5 24 24 0 14 -5 28 -10
31 -12 7 -6 67 9 93 12 21 54 -69 76 -163 8 -38 20 -86 25 -105 5 -19 12 -60
14 -90 l6 -55 -16 50 c-25 82 -35 118 -46 167 -17 78 -57 70 -45 -9 8 -50 67
-236 79 -248 6 -7 14 -4 22 7 11 15 15 8 30 -54 17 -71 38 -117 89 -196 6 -9
14 -9 27 -2 19 10 19 11 -2 46 -11 19 -18 37 -16 40 5 4 58 -70 58 -81 0 -12
-55 -25 -114 -26 -83 -2 -104 5 -99 34 2 12 -5 44 -17 71 -11 27 -18 51 -15
54 3 3 1 10 -4 16 -9 11 -26 88 -35 156 -22 163 -36 210 -61 210 -19 0 -28
-17 -18 -32 10 -17 29 -108 47 -228 8 -52 28 -132 45 -177 16 -46 27 -83 23
-83 -11 0 -215 41 -232 46 -12 4 -12 7 -1 13 19 12 7 52 -26 92 -15 17 -55 44
-88 59 -66 30 -103 67 -112 113 -3 16 -12 31 -19 34 -8 3 -23 21 -35 41 -12
21 -35 51 -51 68 l-29 31 30 71 c26 64 87 172 97 172 2 0 21 -9 41 -20 40 -21
68 -25 77 -11 8 12 -24 37 -56 45 -36 8 -37 44 -3 76 l24 23 46 -47 c26 -25
51 -44 56 -41 17 11 9 41 -16 65 -14 13 -25 34 -25 47 0 22 5 20 60 -29 33
-29 60 -58 60 -64z m-1069 56 c16 -21 26 -27 34 -20 7 6 20 8 29 4 9 -3 23 -1
31 6 38 32 48 -34 10 -70 -17 -16 -22 -27 -15 -34 24 -24 3 -96 -35 -116 -34
-18 -50 -8 -50 30 0 18 -6 35 -12 37 -12 4 -64 -43 -61 -56 1 -3 -2 -14 -6
-23 -11 -26 -29 -22 -21 4 6 15 1 26 -15 38 -17 13 -22 27 -22 61 0 96 26 155
70 162 15 2 30 5 34 6 4 0 17 -12 29 -29z m1793 -2 c-44 -48 -56 -57 -92 -64
-36 -7 -49 -21 -34 -36 18 -18 68 2 123 51 30 26 65 50 78 54 l24 6 -6 -162
c-4 -89 -7 -187 -7 -218 0 -54 -1 -57 -27 -62 -26 -6 -53 -42 -53 -73 0 -15
-42 -23 -94 -18 -29 3 -49 13 -68 34 -32 35 -37 57 -10 44 29 -15 164 -7 181
11 13 13 7 15 -59 14 -41 0 -88 4 -103 10 -16 6 -34 8 -40 4 -7 -4 -22 -6 -35
-4 -33 4 -53 -16 -46 -45 16 -65 -95 11 -126 86 -7 16 -16 30 -21 30 -5 0 -18
20 -29 44 -23 52 -26 74 -4 34 25 -47 181 -108 207 -81 10 10 -13 33 -34 33
-30 0 -128 53 -135 72 -5 18 -14 22 -45 19 -8 -1 -21 10 -27 24 l-12 25 68 -2
c99 -3 200 40 306 129 31 26 118 69 145 72 3 1 -8 -13 -25 -31z m651 3 c-3 -6
-11 -11 -17 -11 -6 0 -6 6 2 15 14 17 26 13 15 -4z m-806 -25 c-22 -20 -158
-87 -178 -88 -14 -1 -30 -5 -36 -9 -5 -4 -40 -9 -78 -10 -65 -4 -68 -3 -87 26
-31 47 -34 45 65 30 75 -12 85 -15 86 -33 1 -13 2 -14 5 -2 3 9 46 30 105 50
55 19 103 38 106 43 3 5 8 6 11 3 3 -3 3 -8 1 -10z m-464 -96 c-4 -19 -14 -47
-23 -62 -15 -26 -15 -30 1 -58 14 -22 15 -30 5 -30 -22 0 -36 14 -39 40 -4 21
-9 25 -41 25 -50 1 -92 38 -75 66 16 26 29 24 62 -11 27 -28 59 -39 68 -22 6
9 -8 109 -19 137 -5 14 4 10 30 -15 33 -31 37 -39 31 -70z m1120 -60 c-3 -5
-10 -10 -16 -10 -5 0 -9 5 -9 10 0 6 7 10 16 10 8 0 12 -4 9 -10z m-2272 -152
c-24 -32 -47 -58 -51 -58 -4 1 -22 14 -41 30 l-33 28 32 29 c28 25 41 29 85
29 l52 -1 -44 -57z m-108 -89 c0 -13 3 -29 7 -35 8 -12 -51 -123 -64 -124 -5
0 -8 9 -8 20 0 10 -5 31 -12 44 -16 36 5 104 35 116 31 12 42 7 42 -21z m794
-14 c17 -19 36 -34 43 -33 7 2 13 -11 15 -31 6 -68 63 -130 154 -169 25 -11
57 -34 72 -51 23 -27 25 -35 14 -51 -6 -11 -17 -20 -24 -20 -7 0 -13 -6 -13
-14 0 -12 28 -25 70 -32 8 -1 50 -10 93 -18 43 -9 93 -16 111 -16 18 0 36 -3
40 -7 14 -15 103 -30 125 -21 14 5 29 3 41 -5 14 -8 24 -9 34 -2 60 44 65 46
83 36 12 -7 14 -10 4 -11 -23 0 -102 -71 -116 -104 -14 -34 -10 -56 12 -56 8
0 12 -4 8 -10 -3 -5 -11 -7 -18 -4 -9 3 -12 -6 -9 -35 5 -45 -4 -53 -44 -41
-16 4 -21 9 -12 9 36 2 58 101 23 101 -8 0 -21 -12 -28 -26 -9 -18 -16 -23
-21 -15 -15 24 -35 -8 -29 -45 5 -30 3 -34 -15 -34 -16 0 -21 7 -24 33 -4 40
-21 38 -28 -3 -6 -34 -24 -41 -26 -10 -4 54 -3 53 -19 40 -8 -7 -15 -26 -15
-42 0 -40 -24 -31 -28 10 -5 46 -32 43 -32 -3 0 -24 -5 -35 -15 -35 -11 0 -15
12 -15 44 0 45 -12 66 -26 45 -4 -6 -7 -29 -7 -51 0 -48 -21 -46 -25 3 -2 19
-8 38 -13 44 -15 15 -29 -14 -22 -47 5 -24 2 -28 -16 -28 -22 0 -25 14 -21 90
2 30 0 32 -14 21 -11 -9 -16 -30 -16 -64 0 -48 -1 -49 -18 -33 -17 14 -18 23
-9 72 5 30 7 58 3 61 -9 10 -36 -18 -36 -38 0 -10 -5 -21 -11 -25 -7 -4 -9 0
-6 12 14 48 12 89 -5 92 -12 2 -18 -7 -23 -40 -4 -24 -7 -55 -7 -70 0 -16 -3
-28 -8 -28 -13 0 -18 60 -8 102 10 46 3 64 -18 47 -11 -9 -14 -8 -14 4 0 9 12
25 27 36 14 12 23 24 20 27 -12 12 -68 -19 -82 -45 l-13 -26 -7 28 c-4 15 -4
44 1 65 15 69 -5 122 -41 109 -13 -6 -14 -11 -4 -28 8 -17 8 -31 0 -61 -14
-46 -7 -88 22 -140 13 -25 28 -38 41 -38 19 0 21 -6 22 -60 1 -51 -1 -60 -16
-60 -22 0 -32 12 -74 91 -34 65 -76 107 -76 77 0 -9 18 -53 40 -100 41 -88 63
-108 118 -108 15 0 34 -5 42 -10 13 -9 13 -11 0 -20 -34 -22 -123 -3 -152 34
-16 20 -18 20 -34 4 -17 -16 -17 -18 1 -39 24 -25 78 -49 114 -49 20 0 23 -2
11 -10 -24 -15 -121 -11 -169 8 -31 12 -50 28 -63 51 -18 32 -19 42 -8 134 6
55 16 111 22 126 21 52 59 207 68 274 5 38 13 83 19 100 5 18 15 62 22 100 7
37 16 67 20 67 4 0 21 -16 38 -35z m921 -142 c0 -44 -56 31 -66 88 -5 33 -4
32 30 -21 20 -30 36 -60 36 -67z m240 98 c0 -6 -4 -13 -10 -16 -5 -3 -10 1
-10 9 0 9 5 16 10 16 6 0 10 -4 10 -9z m-1680 -67 c0 -14 -7 -27 -15 -30 -22
-9 -9 -21 21 -21 38 0 51 -17 37 -53 -14 -36 -2 -47 46 -47 20 0 39 -6 46 -16
7 -9 17 -17 22 -17 6 0 3 -31 -8 -76 -10 -42 -19 -102 -20 -133 -3 -77 -6 -85
-39 -104 -44 -26 -66 -22 -85 19 -15 32 -20 35 -43 29 -69 -17 -78 -16 -93 2
-28 32 -30 65 -6 108 18 31 29 40 50 40 31 -1 31 -1 16 28 -15 27 -30 38 -46
32 -24 -8 -45 41 -41 94 2 28 7 53 11 57 4 4 7 16 7 26 0 16 12 22 47 21 8 0
10 14 6 48 -6 49 2 60 25 37 9 -9 13 -7 18 7 7 17 9 17 26 -5 10 -12 18 -33
18 -46z m1260 26 c0 -11 4 -20 9 -20 5 0 11 -10 13 -22 2 -13 8 -22 13 -21 6
1 10 -12 11 -28 1 -16 9 -37 18 -47 16 -19 23 -92 8 -92 -10 0 -56 109 -76
179 -19 64 -19 71 -6 71 6 0 10 -9 10 -20z m87 -22 c25 -32 33 -66 18 -72 -15
-6 -48 44 -51 76 -2 21 17 19 33 -4z m-1579 -36 c2 -23 -1 -32 -11 -32 -11 0
-15 11 -14 35 1 43 21 41 25 -3z m1762 -2 c9 -18 8 -20 -15 -18 -17 2 -25 8
-25 20 0 24 27 23 40 -2z m70 4 c0 -17 -22 -14 -28 4 -2 7 3 12 12 12 9 0 16
-7 16 -16z m88 -53 c107 2 378 -13 385 -20 6 -6 19 -6 32 -1 12 4 48 7 81 6
l59 -3 3 -51 3 -50 -167 4 c-92 2 -172 8 -178 13 -6 5 -22 11 -36 14 -14 3
-42 10 -63 15 -35 9 -47 7 -110 -23 -40 -19 -76 -30 -80 -26 -5 5 -57 6 -117
4 l-108 -5 -4 47 c-2 25 -1 51 3 56 3 5 61 11 130 13 122 3 124 3 128 27 5 23
5 23 9 2 2 -16 10 -22 30 -22z m-1974 -10 c3 -4 19 -11 36 -14 21 -5 30 -12
30 -26 0 -11 -5 -23 -10 -26 -6 -4 -22 -29 -36 -56 -27 -53 -43 -58 -36 -11 3
21 -2 35 -19 51 -22 20 -22 22 -6 56 16 34 31 43 41 26z m1536 -41 c0 -5 -2
-10 -4 -10 -3 0 -8 5 -11 10 -3 6 -1 10 4 10 6 0 11 -4 11 -10z m14 -36 c8
-21 8 -24 -3 -24 -5 0 -11 9 -14 20 -6 24 8 27 17 4z m546 -34 c12 -8 9 -10
-11 -10 -15 0 -29 -6 -32 -14 -4 -11 9 -19 51 -31 31 -9 67 -26 81 -37 l26
-20 -25 6 c-56 14 -112 12 -127 -2 -20 -20 -5 -28 67 -35 73 -8 100 -17 100
-33 0 -10 -12 -12 -52 -7 -82 10 -92 9 -96 -9 -4 -18 23 -29 82 -33 36 -2 68
-14 62 -24 -3 -4 -37 -8 -77 -9 -41 -2 -80 -8 -89 -15 -52 -44 -180 -56 -287
-28 l-68 17 3 48 c2 34 0 46 -8 41 -6 -4 -27 -8 -47 -9 l-35 -1 29 22 c15 13
36 23 45 23 9 0 20 5 23 10 3 6 15 10 25 10 19 0 77 29 151 76 20 13 39 21 42
18 3 -3 33 9 68 25 70 34 77 35 99 21z m-2180 -45 c-13 -16 -5 -35 15 -35 7 0
21 -14 29 -31 15 -30 15 -34 -7 -72 -23 -42 -47 -59 -47 -35 0 8 -9 31 -20 52
-30 60 -28 81 15 138 14 19 21 22 23 12 2 -8 -2 -21 -8 -29z m218 -15 c13 -1
10 -6 -11 -21 -62 -47 -71 -118 -22 -171 22 -24 78 -48 113 -48 7 0 25 -9 40
-20 16 -12 51 -22 90 -26 60 -7 62 -8 62 -35 0 -47 -17 -79 -42 -79 -17 0 -19
3 -10 12 7 7 12 15 12 19 0 13 -33 19 -46 8 -17 -14 -18 -46 -1 -52 8 -3 4
-11 -12 -24 -37 -30 -35 -88 5 -119 l29 -24 -26 0 c-14 0 -47 3 -72 6 -42 6
-45 8 -37 29 5 13 6 32 3 44 -3 12 -1 21 4 21 6 0 22 11 37 25 21 19 26 33 26
69 0 39 -5 50 -46 91 l-45 47 -61 -4 c-51 -4 -65 -1 -80 14 -13 13 -30 18 -51
16 -27 -2 -31 0 -29 17 2 11 7 25 11 30 4 6 15 33 25 60 10 28 29 78 44 113
l26 63 23 -30 c14 -17 32 -31 41 -31z m2090 24 c12 -8 22 -22 22 -31 0 -15 -1
-15 -18 0 -9 9 -38 25 -62 37 l-45 21 40 -6 c22 -4 50 -13 63 -21z m887 -17
c99 -36 228 -131 261 -192 19 -37 19 -37 -1 -49 -11 -6 -34 -25 -52 -42 -27
-26 -33 -40 -33 -72 0 -40 -19 -72 -43 -72 -20 -1 -64 -43 -82 -79 -12 -24
-16 -50 -13 -87 l5 -53 -41 21 c-55 28 -143 35 -184 14 -83 -43 -152 -140
-152 -214 l0 -34 -77 65 c-84 69 -138 133 -175 206 -32 64 -91 156 -128 200
-30 36 -39 58 -28 69 6 6 12 24 13 39 6 81 33 127 102 172 53 35 79 38 121 14
33 -19 61 -12 69 16 3 14 13 19 30 18 19 -2 30 6 43 28 17 31 62 50 145 61 22
4 41 7 43 9 5 5 136 -23 177 -38z m-1414 -3 c9 -11 7 -14 -10 -14 -11 0 -24 0
-28 -1 -4 0 -10 8 -14 19 -6 16 -3 18 17 14 13 -2 29 -10 35 -18z m80 1 c-1
-15 -24 -12 -29 3 -3 9 2 13 12 10 10 -1 17 -7 17 -13z m-1912 -175 c4 -23 14
-38 29 -45 26 -12 26 -15 7 -61 -8 -19 -15 -61 -16 -93 -2 -50 2 -63 30 -101
17 -23 31 -49 31 -56 0 -24 61 -84 86 -84 12 0 35 -5 50 -12 22 -10 28 -10 39
5 11 15 17 16 41 6 28 -11 192 -9 714 9 199 6 260 7 415 4 61 -1 124 0 140 3
17 2 84 7 150 10 66 2 180 7 253 11 122 5 135 4 147 -13 8 -10 15 -21 15 -26
0 -4 -129 -7 -287 -7 -159 0 -346 -2 -418 -5 -323 -11 -1383 -20 -1392 -11
-23 22 -59 258 -67 436 -6 121 -6 124 11 95 9 -16 19 -46 22 -65z m2448 -169
c8 -13 24 -26 35 -29 11 -3 17 -10 14 -19 -6 -14 10 -49 30 -68 22 -21 53 -72
47 -79 -3 -3 -20 -6 -36 -6 -22 0 -28 4 -23 15 3 8 1 15 -4 15 -6 0 -10 5 -10
10 0 6 -11 29 -26 51 -48 77 -124 211 -124 222 0 4 7 7 16 7 9 0 21 14 27 31
12 30 12 28 25 -48 7 -43 20 -89 29 -102z m-661 140 c-4 -5 2 -23 11 -39 17
-29 17 -31 0 -50 -9 -10 -17 -24 -17 -30 0 -8 -8 -8 -30 -1 l-30 11 20 25 c11
14 20 32 20 40 0 16 18 53 26 53 3 0 3 -4 0 -9z m502 -50 c9 -5 14 -30 14 -73
0 -55 -3 -68 -25 -91 -13 -15 -30 -27 -36 -27 -22 0 -6 -35 17 -38 43 -6 53
-93 14 -124 -11 -9 -14 -10 -8 0 4 6 3 12 -3 12 -5 0 -14 -8 -20 -17 -5 -10
-13 -14 -17 -10 -4 4 -2 13 4 19 7 7 12 17 12 23 0 5 -9 -1 -20 -15 -10 -14
-22 -21 -27 -16 -4 5 -2 11 5 13 6 3 12 9 12 15 0 6 -8 4 -18 -5 -16 -15 -19
-15 -30 3 -20 32 -15 88 8 95 23 7 26 30 7 42 -23 14 -27 40 -8 57 10 9 23 16
29 16 7 0 12 7 12 15 0 18 3 17 -38 6 -43 -13 -32 6 16 26 31 13 34 17 21 27
-8 6 -13 19 -11 28 3 15 15 19 67 26 6 1 16 -2 23 -7z m-2138 -52 c0 -33 6
-36 31 -13 10 9 39 19 64 22 38 4 50 1 70 -18 30 -28 41 -80 25 -110 -9 -18
-17 -20 -38 -14 -87 24 -154 -27 -138 -107 5 -25 3 -30 -11 -27 -9 2 -21 17
-26 33 -5 17 -22 48 -37 71 -42 62 -50 154 -14 154 8 0 14 9 14 19 0 13 8 21
23 23 31 6 37 1 37 -33z m1810 -10 c0 -6 -4 -7 -10 -4 -5 3 -10 11 -10 16 0 6
5 7 10 4 6 -3 10 -11 10 -16z m108 -21 c18 -23 32 -45 32 -50 0 -17 -17 -7
-30 17 -7 14 -17 25 -21 25 -3 0 -14 11 -23 25 -29 44 6 30 42 -17z m-88 -112
c43 -47 43 -48 10 -25 -42 29 -69 60 -70 77 0 7 -7 15 -15 18 -8 4 -15 14 -15
23 1 11 7 7 23 -14 12 -16 42 -52 67 -79z m-127 70 c-6 -28 27 -69 96 -122 24
-19 42 -34 40 -35 -2 -1 -64 -3 -137 -5 -131 -4 -133 -4 -122 16 9 17 7 24
-12 40 -27 21 -16 40 12 22 17 -11 25 -7 60 27 22 21 40 45 40 53 0 8 3 18 7
21 13 14 20 6 16 -17z m252 -76 c28 0 32 -12 10 -30 -13 -10 -22 -6 -58 26
-23 22 -51 55 -61 74 -16 32 -14 30 33 -18 35 -36 58 -52 76 -52z m-431 81 c3
-4 0 -20 -7 -35 -10 -23 -17 -26 -41 -21 -18 3 -38 -1 -54 -11 -25 -16 -33
-13 -45 21 -2 6 -13 2 -25 -8 -12 -11 -22 -14 -26 -8 -10 15 -34 2 -42 -22
-15 -48 -34 -47 -90 7 -30 28 -54 54 -54 59 0 4 19 7 43 6 54 -2 291 11 296
17 8 7 40 4 45 -5z m722 -57 c17 -35 28 -64 25 -63 -13 1 -71 91 -71 109 0 35
14 21 46 -46z m-1098 -31 c30 -29 62 -53 72 -53 10 0 28 -9 41 -20 l24 -21
-35 7 c-19 3 -50 15 -68 26 -40 25 -112 113 -111 136 0 14 2 14 12 -3 7 -11
36 -44 65 -72z m-128 -60 l45 -43 -35 0 c-28 0 -44 9 -78 41 -43 43 -51 66
-29 88 10 10 16 7 32 -16 11 -15 40 -47 65 -70z m48 50 c18 -25 31 -47 28 -50
-7 -8 -86 71 -86 86 0 24 27 8 58 -36z m-688 6 c7 -11 9 -23 7 -26 -3 -2 -1
-18 3 -34 7 -23 6 -29 -7 -29 -28 0 -53 31 -53 65 0 49 29 63 50 24z m-270
-19 c22 -22 24 -29 11 -48 -7 -12 -56 -42 -67 -42 -8 0 -4 59 6 84 11 31 23
33 50 6z m674 -55 c21 -31 20 -33 -6 -30 -13 1 -43 3 -68 4 -36 1 -41 4 -27
12 9 5 17 17 17 24 0 10 11 15 34 15 25 0 38 -6 50 -25z m1456 10 c10 -12 10
-15 -4 -15 -9 0 -16 7 -16 15 0 8 2 15 4 15 2 0 9 -7 16 -15z m70 0 c0 -8 -4
-15 -10 -15 -5 0 -10 7 -10 15 0 8 5 15 10 15 6 0 10 -7 10 -15z m-373 -1 c-3
-3 -12 -4 -19 -1 -8 3 -5 6 6 6 11 1 17 -2 13 -5z m370 -73 c-34 -16 -102 -19
-115 -6 -15 14 19 25 81 25 l72 -1 -38 -18z m200 -68 c29 -43 74 -96 100 -118
98 -82 149 -134 126 -128 -13 3 -23 9 -23 13 0 4 -14 13 -31 20 -52 22 -229
206 -229 238 0 6 -5 12 -12 14 -12 4 -4 38 9 38 5 0 32 -35 60 -77z m-103 -9
c3 -8 2 -12 -4 -9 -6 3 -10 10 -10 16 0 14 7 11 14 -7z m-32 -86 c-9 -9 -12
-7 -12 12 0 19 3 21 12 12 9 -9 9 -15 0 -24z m138 -35 c0 -2 -3 -3 -8 -3 -12
0 -62 50 -62 62 0 9 70 -50 70 -59z m-336 26 c-24 -15 -30 -16 -47 -4 -21 15
-47 10 -47 -10 0 -6 9 -16 20 -21 19 -8 19 -11 6 -29 -13 -18 -17 -18 -40 -5
-20 10 -29 11 -38 2 -13 -13 6 -42 28 -42 8 0 14 -7 14 -15 0 -17 -5 -18 -29
-6 -11 6 -22 6 -32 0 -9 -7 -10 -12 -3 -15 48 -20 56 -60 9 -48 -33 8 -43 -15
-15 -36 30 -23 23 -56 -11 -52 -29 3 -61 -25 -38 -32 43 -13 49 -17 49 -30 0
-12 -7 -14 -28 -10 -19 4 -32 1 -41 -10 -12 -14 -9 -18 18 -27 29 -10 39 -27
25 -42 -3 -3 -17 -1 -30 5 -20 9 -28 8 -41 -4 -14 -15 -13 -18 16 -32 17 -9
31 -21 31 -26 0 -17 -19 -21 -40 -8 -18 11 -23 10 -35 -6 -8 -10 -12 -23 -9
-28 3 -5 -2 -15 -12 -23 -18 -13 -18 -14 4 -38 21 -22 21 -24 5 -40 -13 -11
-23 -13 -35 -6 -20 11 -44 3 -52 -18 -4 -9 1 -17 14 -20 24 -6 25 -16 5 -33
-13 -10 -19 -9 -35 5 -20 18 -21 18 -38 1 -16 -17 -16 -19 6 -33 32 -22 27
-33 -15 -30 -33 2 -38 -1 -37 -20 0 -12 -22 -48 -53 -84 -29 -35 -53 -70 -53
-79 0 -9 -13 -26 -30 -38 -32 -24 -53 -81 -44 -119 7 -27 -7 -30 -27 -7 -7 9
-23 20 -36 25 -33 12 -110 -5 -137 -30 -34 -32 -94 -32 -134 -1 -17 14 -29 30
-27 36 2 7 -22 10 -67 10 -65 -1 -72 -3 -94 -31 -18 -23 -24 -26 -24 -12 0 10
-14 24 -35 34 -29 14 -40 15 -76 4 -23 -7 -52 -23 -66 -37 -28 -28 -38 -31
-29 -9 8 23 -24 32 -39 11 -12 -15 -13 -15 -18 5 -5 17 -9 19 -25 10 -15 -8
-24 -6 -41 9 -33 27 -94 35 -132 16 -18 -9 -33 -16 -34 -16 -1 0 -7 24 -14 53
-15 66 -24 80 -52 82 -16 1 -25 10 -31 31 -4 16 -28 53 -54 82 l-47 54 39 -21
c21 -12 44 -21 51 -21 7 0 13 -7 13 -15 0 -24 79 -95 107 -95 14 0 37 -13 55
-30 25 -25 37 -30 79 -30 29 0 65 8 87 19 32 16 43 17 84 6 28 -7 53 -8 62 -3
9 5 33 4 57 -2 25 -7 57 -8 78 -4 69 15 106 18 128 12 4 -1 28 1 52 5 34 6 52
3 88 -14 30 -15 53 -19 76 -15 18 3 43 8 56 11 27 5 90 51 98 71 2 7 25 25 50
39 50 30 113 88 113 105 0 6 30 41 66 78 75 76 115 132 164 232 10 19 34 96
54 170 41 148 60 200 76 200 5 0 10 8 10 18 1 9 9 33 18 52 16 34 20 35 82 40
36 3 73 3 83 1 16 -3 14 -6 -9 -22z m-1204 0 c0 -4 -7 -9 -15 -13 -8 -3 -20
-17 -26 -30 -12 -25 -55 -49 -80 -46 -33 5 -52 -2 -77 -27 -78 -79 -157 -119
-145 -73 3 11 1 20 -4 20 -13 0 -35 49 -28 61 9 14 43 11 70 -7 30 -19 69 -15
73 8 2 12 -6 21 -22 28 -30 11 -32 22 -10 45 21 20 38 15 42 -13 4 -27 23 -28
47 -2 21 24 43 26 51 5 4 -8 13 -15 20 -15 23 0 28 29 8 51 -17 19 -17 19 39
17 31 -1 57 -5 57 -9z m340 1 c0 -5 -9 -10 -19 -10 -11 0 -23 5 -26 10 -4 6 5
10 19 10 14 0 26 -4 26 -10z m137 -31 c15 -28 17 -59 4 -59 -5 0 -14 13 -19
29 -6 15 -20 38 -32 49 l-23 21 29 -8 c16 -4 35 -18 41 -32z m60 35 c-3 -3
-12 -4 -19 -1 -8 3 -5 6 6 6 11 1 17 -2 13 -5z m158 -14 c0 -10 -10 -15 -28
-15 -30 -1 -44 -15 -53 -55 -23 -107 -58 -158 -134 -198 -27 -14 -50 -29 -50
-33 0 -17 42 -20 65 -5 43 28 26 2 -23 -36 l-48 -36 4 33 c3 25 -1 38 -17 51
-26 22 -27 34 -3 34 27 0 124 73 146 109 11 19 20 54 21 80 0 25 7 56 15 69
13 19 22 22 60 20 32 -2 45 -7 45 -18z m-1360 0 c-3 -5 -18 -10 -33 -9 -24 0
-25 1 -7 9 28 12 47 12 40 0z m135 -5 c0 -8 6 -15 14 -15 13 0 26 -39 30 -88
1 -14 26 -47 64 -82 37 -36 62 -68 62 -80 0 -49 -83 -160 -154 -205 -28 -18
-29 -18 -42 0 -8 10 -14 23 -14 28 0 13 82 87 97 87 18 0 53 50 53 76 0 13 -4
24 -9 24 -16 0 -63 55 -87 102 -24 48 -37 55 -63 39 -11 -7 -8 -17 14 -54 l27
-46 -36 -37 c-20 -20 -36 -43 -36 -50 0 -15 -58 -47 -104 -58 -28 -7 -29 -6
-22 26 7 39 59 88 93 88 21 0 27 9 24 36 -1 6 6 17 14 24 38 31 0 55 -39 25
-21 -16 -56 -20 -56 -7 0 11 55 42 74 42 14 0 46 47 46 69 0 5 -12 23 -26 40
l-26 31 51 0 c39 0 51 -4 51 -15z m155 1 c-16 -11 -17 -17 -7 -29 10 -12 8
-17 -12 -31 -24 -15 -26 -15 -41 7 -15 21 -14 22 6 25 12 2 24 12 26 23 3 11
14 19 26 19 20 0 20 0 2 -14z m553 -7 c-16 -11 -28 -29 -28 -39 0 -20 -44 -29
-106 -22 -26 3 -34 9 -32 21 4 23 78 28 90 7 11 -19 38 -21 38 -3 0 21 30 57
48 57 13 -1 10 -6 -10 -21z m-1023 -9 c-28 -17 -34 -18 -70 -5 l-40 13 50 4
c28 3 59 5 70 6 16 1 13 -3 -10 -18z m1650 -27 c28 -11 61 -23 75 -27 34 -9
75 -45 64 -56 -5 -5 -26 2 -52 20 -39 26 -72 31 -72 10 0 -4 15 -17 34 -28 57
-34 70 -62 57 -123 -6 -29 -20 -72 -31 -97 -11 -24 -20 -51 -20 -59 0 -8 -4
-11 -10 -8 -5 3 -10 13 -10 20 0 8 -18 44 -40 80 -22 36 -37 65 -35 65 3 0 23
-11 45 -25 43 -27 56 -30 64 -16 11 17 -7 42 -40 56 -19 8 -34 18 -34 24 0 14
21 25 29 15 11 -17 59 -36 70 -30 19 12 12 22 -33 46 -34 17 -47 30 -52 54 -4
17 -7 35 -5 41 4 15 -30 35 -60 35 -23 0 -26 3 -21 27 4 21 7 24 16 12 6 -8
34 -24 61 -36z m85 31 c22 -9 40 -20 40 -25 0 -13 -9 -11 -65 16 -56 26 -37
34 25 9z m437 -11 c43 -28 44 -29 41 -78 l-3 -50 -38 -3 c-21 -2 -45 2 -53 9
-16 13 -19 49 -4 49 6 0 10 -3 10 -7 0 -5 11 -9 25 -9 19 -2 25 3 25 20 -1 47
-57 75 -89 44 -10 -11 -11 -9 -5 7 7 18 32 44 43 45 2 0 24 -12 48 -27z
m-2312 -3 c-27 -12 -35 -12 -35 0 0 6 12 10 28 9 24 0 25 -1 7 -9z m660 0 c3
-6 -4 -10 -17 -10 -18 0 -20 2 -8 10 19 12 18 12 25 0z m602 -2 c4 -7 13 -29
18 -48 11 -36 38 -51 58 -31 8 8 8 14 -1 23 -19 19 -14 56 8 63 40 13 66 -16
60 -68 -1 -10 3 -24 9 -31 13 -16 72 -11 82 6 5 7 10 10 13 7 10 -10 -38 -70
-67 -83 -56 -25 -73 -27 -87 -11 -7 9 -21 13 -31 10 -14 -5 -16 -2 -12 15 7
26 -23 60 -52 60 -13 0 -28 7 -35 15 -7 8 -21 15 -31 15 -29 0 -23 37 9 54 34
19 48 20 59 4z m1278 -46 c93 -37 242 -121 268 -150 32 -36 68 -122 72 -168 2
-27 6 -58 9 -69 4 -11 -1 -5 -10 13 -17 31 -37 41 -48 23 -3 -5 1 -53 8 -107
8 -55 17 -187 21 -294 4 -107 13 -242 20 -300 8 -58 16 -134 20 -170 30 -339
66 -470 173 -630 37 -55 50 -70 65 -70 19 0 3 40 -33 83 -107 130 -136 245
-180 722 -6 66 -13 134 -15 150 -6 46 -8 396 -2 401 2 3 12 -26 21 -63 38
-165 76 -334 90 -408 19 -93 62 -260 72 -276 3 -6 23 -59 44 -117 20 -59 47
-129 58 -157 12 -27 37 -95 57 -150 58 -163 102 -239 166 -293 98 -81 133
-159 92 -204 -9 -10 -26 -18 -39 -18 -22 0 -22 1 -8 27 26 51 12 113 -26 113
-25 0 -33 -15 -19 -38 16 -25 3 -88 -22 -113 -15 -15 -32 -20 -62 -18 -54 2
-74 -7 -92 -42 -8 -15 -24 -31 -35 -34 -15 -5 -19 -12 -15 -25 5 -17 -1 -19
-62 -22 -119 -5 -233 18 -233 47 0 21 -46 20 -54 -2 -6 -14 -8 -14 -19 -1 -6
9 -28 21 -49 27 -62 20 -88 52 -88 109 0 51 -26 98 -83 151 -48 44 -50 16 -3
-39 43 -50 46 -58 46 -110 0 -52 3 -59 38 -92 44 -44 132 -92 144 -80 5 5 29
-1 55 -15 26 -12 53 -23 60 -23 8 0 11 -5 7 -11 -9 -16 -111 -6 -154 15 -82
40 -102 54 -141 96 -23 25 -48 59 -55 76 -7 17 -20 37 -29 44 -9 8 -26 32 -37
54 -29 57 -52 349 -34 435 8 39 9 63 2 74 -7 11 -4 46 9 114 22 114 27 449 7
543 -6 30 -18 86 -27 125 -8 38 -15 84 -15 101 0 31 -61 227 -85 274 -8 15
-27 35 -42 45 -15 10 -53 36 -83 58 -30 23 -57 42 -59 44 -2 1 3 22 12 45 9
24 19 62 22 86 8 65 19 78 82 98 79 23 85 31 84 102 -1 71 -7 70 134 14z
m-2340 27 c-11 -6 -39 -31 -61 -55 -42 -44 -69 -57 -57 -28 8 20 104 94 123
94 10 -1 9 -4 -5 -11z m1755 -15 c0 -14 -3 -14 -15 -4 -8 7 -15 14 -15 16 0 2
7 4 15 4 8 0 15 -7 15 -16z m-1602 -11 c2 -7 -2 -13 -8 -13 -7 0 -28 -10 -48
-22 -19 -12 -46 -22 -61 -23 -14 -1 -34 -5 -44 -9 -35 -16 -1 38 39 62 42 24
114 27 122 5z m-307 -11 c-13 -9 -34 -27 -46 -38 -25 -23 -35 -21 -35 5 0 21
48 51 80 50 l25 0 -24 -17z m1667 -11 c23 -6 42 -15 43 -19 0 -4 2 -22 4 -41
3 -32 2 -33 -27 -27 -33 7 -67 41 -68 70 0 12 -5 16 -15 12 -9 -3 -15 0 -15 8
0 19 11 27 24 18 6 -5 30 -14 54 -21z m-670 -13 c17 -17 15 -31 -4 -24 -19 7
-44 -10 -44 -31 0 -11 9 -13 37 -8 20 3 39 7 41 10 3 2 13 0 23 -5 14 -8 16
-16 9 -40 -11 -37 5 -49 31 -23 15 15 17 24 10 51 -5 17 -7 32 -3 32 15 0 73
-41 79 -56 8 -22 50 -36 73 -24 19 10 30 -4 30 -40 0 -14 -7 -18 -29 -18 -15
1 -33 -2 -40 -6 -7 -5 -11 1 -11 16 0 13 -5 29 -12 36 -18 18 -67 14 -98 -8
-37 -26 -79 -13 -50 16 23 23 0 43 -51 42 -46 0 -49 -1 -49 -26 1 -65 116
-132 156 -92 7 7 16 4 29 -10 13 -14 31 -20 60 -20 26 0 48 -6 55 -15 18 -22
3 -32 -22 -16 -19 12 -23 11 -35 -5 -18 -25 -17 -29 17 -64 30 -31 32 -31 56
-15 28 18 54 7 54 -25 0 -27 -11 -31 -29 -9 -16 20 -17 20 -39 2 -28 -22 -47
-95 -32 -124 26 -47 -44 -119 -114 -119 -15 0 -39 -13 -57 -31 -36 -35 -69
-35 -118 0 -15 11 -49 25 -75 32 -31 8 -62 25 -87 49 -38 36 -39 39 -39 103 0
70 -9 87 -34 61 -19 -18 -57 -15 -64 5 -4 11 2 12 23 7 19 -5 33 -2 46 10 23
21 24 37 3 68 -18 28 -2 45 23 25 13 -11 18 -10 34 9 15 19 16 28 7 53 -13 38
-37 48 -54 24 -12 -16 -14 -17 -14 -2 0 9 9 21 21 27 16 9 30 7 69 -14 58 -30
71 -31 110 -11 35 18 45 50 30 89 -10 27 -13 28 -52 22 -42 -7 -42 -7 -23 14
10 11 30 20 44 20 18 0 35 11 54 35 30 38 37 41 55 23z m1081 -35 c-5 -14 -8
-32 -5 -39 6 -15 -15 -141 -38 -226 -15 -59 -68 -162 -118 -233 -31 -42 -118
-107 -157 -118 l-23 -6 23 27 c13 15 41 45 62 68 96 102 144 195 194 374 33
116 57 180 68 180 2 0 0 -12 -6 -27z m-2074 -14 c10 -15 -1 -23 -20 -15 -9 3
-13 10 -10 16 8 13 22 13 30 -1z m805 -14 c-14 -15 -21 -31 -17 -45 6 -22 -8
-37 -18 -20 -11 18 -40 11 -83 -21 l-42 -31 0 31 c0 21 5 31 15 31 8 0 30 14
50 31 19 17 41 29 49 26 8 -3 22 1 33 8 30 23 38 17 13 -10z m410 5 c0 -5 -2
-10 -4 -10 -3 0 -8 5 -11 10 -3 6 -1 10 4 10 6 0 11 -4 11 -10z m-1122 -18 c2
-7 -2 -12 -9 -12 -7 0 -27 -14 -45 -31 -25 -24 -32 -27 -37 -15 -4 10 7 26 31
46 37 30 52 34 60 12z m82 -16 c0 -2 3 -11 6 -20 4 -10 1 -16 -9 -16 -32 0
-117 -139 -117 -191 0 -11 -5 -19 -11 -19 -16 0 -4 70 22 124 29 63 109 152
109 122z m1408 -8 c16 -16 15 -28 -3 -28 -16 0 -55 -34 -55 -48 0 -4 15 -16
33 -27 66 -39 68 -55 8 -55 -24 0 -46 9 -66 26 -16 14 -24 22 -17 19 7 -4 20
-4 29 -1 14 6 14 8 -1 25 -15 17 -14 20 14 59 32 45 39 49 58 30z m-708 -47
c0 -14 -28 -33 -40 -26 -15 10 -12 23 8 28 28 8 32 7 32 -2z m830 -106 c12
-27 28 -63 37 -79 13 -28 13 -32 -14 -70 -35 -49 -53 -57 -53 -21 0 33 -26 85
-43 85 -7 0 -18 10 -26 21 -11 18 -11 23 1 30 32 21 54 -1 73 -75 12 -45 29
-56 44 -28 8 15 7 32 -3 64 -16 54 -81 158 -98 158 -9 0 -8 3 2 10 19 12 50
-25 80 -95z m-1256 80 c16 -12 17 -18 8 -27 -10 -10 -17 -10 -32 0 -10 6 -27
9 -37 6 -14 -4 -12 0 6 15 27 25 30 25 55 6z m-422 -17 c-7 -7 -12 -18 -12
-24 0 -7 -5 -25 -11 -41 -8 -22 -12 -24 -19 -13 -18 29 -11 70 13 80 32 13 43
12 29 -2z m132 -13 c-10 -16 -14 -34 -10 -51 4 -16 1 -35 -8 -49 -8 -12 -24
-49 -36 -81 l-20 -59 6 74 c4 54 14 91 35 133 16 32 34 58 39 58 6 0 3 -11 -6
-25z m476 -10 c0 -9 -6 -12 -15 -9 -8 4 -12 10 -9 15 8 14 24 10 24 -6z m-250
-32 c0 -2 -13 -17 -30 -35 -31 -32 -42 -90 -19 -104 8 -4 7 -9 -2 -15 -26 -17
-39 -9 -39 22 0 38 54 136 75 136 8 0 15 -2 15 -4z m920 -40 c0 -10 -4 -14 -8
-8 -4 6 -11 13 -16 18 -5 4 -2 7 7 7 10 0 17 -8 17 -17z m154 -27 c21 -26 36
-55 36 -70 0 -23 -4 -26 -34 -26 -25 0 -38 6 -50 25 -22 34 -20 115 4 115 4 0
24 -20 44 -44z m-1193 8 c-13 -17 -21 -41 -21 -65 0 -33 -5 -41 -30 -54 l-30
-16 0 40 c0 33 7 48 38 81 44 45 76 56 43 14z m392 19 c2 -5 -7 -19 -20 -32
l-23 -24 0 25 c0 13 3 28 7 31 9 9 31 9 36 0z m-87 -23 c0 -11 -4 -20 -8 -20
-10 0 -11 24 -1 33 9 9 9 10 9 -13z m1007 -36 c-3 -8 1 -14 10 -14 21 0 29
-27 10 -34 -20 -8 -43 11 -43 36 0 10 -8 31 -17 45 l-18 27 32 -23 c18 -14 29
-29 26 -37z m-1013 -56 c0 -4 -4 -8 -10 -8 -5 0 -10 -6 -10 -14 0 -23 -13 -26
-53 -12 l-37 12 25 24 c14 13 25 30 25 37 0 10 9 7 30 -9 17 -12 30 -25 30
-30z m1645 -8 c10 -11 24 -20 30 -20 22 0 65 -52 65 -79 0 -15 4 -31 9 -36 13
-13 51 -125 51 -148 0 -10 4 -16 9 -13 4 3 7 -25 5 -62 -1 -37 2 -96 7 -132 5
-36 10 -79 13 -96 2 -17 9 -63 16 -102 7 -43 10 -127 6 -223 -2 -85 -5 -165
-5 -178 -1 -23 -3 -22 -34 14 -28 33 -40 39 -70 38 -55 -2 -70 21 -57 88 6 30
15 65 20 79 27 76 35 388 13 525 -14 93 -25 154 -28 168 -2 4 -3 16 -4 26 0
11 -18 40 -38 65 -21 25 -50 63 -66 86 -17 26 -32 38 -40 34 -8 -6 -8 -3 1 8
12 15 16 15 46 -3 18 -11 41 -28 51 -39z m-2162 19 c-7 -24 -10 -24 -22 -1 -7
14 -6 18 9 19 13 1 16 -4 13 -18z m1335 -42 c14 -17 26 -67 16 -67 -13 0 -54
62 -48 72 7 12 20 10 32 -5z m487 3 c3 -5 1 -10 -4 -10 -6 0 -11 5 -11 10 0 6
2 10 4 10 3 0 8 -4 11 -10z m228 -37 c-16 -6 -37 -21 -47 -32 -36 -40 -36 -21
0 28 35 46 37 48 56 32 18 -16 18 -16 -9 -28z m-1718 27 c4 -6 10 -8 14 -5 5
2 16 -4 25 -14 15 -16 14 -19 -9 -41 -14 -13 -25 -30 -25 -38 0 -8 -16 -30
-35 -49 -29 -29 -37 -33 -55 -23 -24 13 -24 11 -5 46 22 42 19 57 -7 48 -13
-3 -29 -11 -37 -17 -10 -9 -17 -7 -27 8 -22 30 -17 43 26 65 35 18 41 19 46 5
9 -21 31 -19 44 5 11 21 35 26 45 10z m1245 -19 c6 -16 10 -40 8 -53 -3 -21
-8 -23 -52 -23 -49 0 -74 -19 -42 -31 25 -10 19 -23 -20 -39 -39 -16 -37 -35
4 -35 l27 -1 -38 -35 c-29 -27 -45 -34 -70 -32 -42 2 -59 -9 -52 -32 14 -44
-39 -81 -114 -79 -55 1 -72 11 -87 54 -11 33 -11 43 2 67 15 28 39 37 46 17 3
-9 10 -9 27 0 34 19 71 6 71 -24 0 -33 14 -39 35 -15 24 27 8 63 -40 91 -19
12 -35 25 -35 30 0 17 17 9 48 -21 22 -21 42 -30 65 -30 42 0 79 26 75 53 -4
29 -20 31 -48 7 -21 -18 -25 -19 -44 -5 -12 8 -35 22 -53 31 -50 25 -60 42
-32 53 19 6 30 3 52 -15 16 -13 35 -24 43 -24 25 0 56 40 51 66 -3 16 0 24 9
24 16 0 20 -65 4 -75 -17 -10 -11 -25 9 -25 23 0 51 35 51 63 0 16 3 17 15 7
20 -16 49 -5 41 16 -6 16 9 44 24 44 4 0 13 -13 20 -29z m-975 0 c2 -4 -9 -5
-26 -3 -16 2 -29 8 -29 12 0 9 48 1 55 -9z m-493 -16 c0 -5 -5 -11 -11 -13 -6
-2 -11 4 -11 13 0 9 5 15 11 13 6 -2 11 -8 11 -13z m1123 1 c-11 -8 -23 -12
-28 -9 -13 8 3 23 26 23 20 0 20 0 2 -14z m-707 -26 c23 -1 22 -3 -13 -15 -54
-19 -98 -69 -92 -103 3 -17 -2 -37 -15 -54 -21 -31 -17 -48 12 -48 18 0 49 39
33 41 -4 1 5 4 21 8 35 7 46 30 18 38 -68 17 -8 101 62 87 52 -9 76 -41 80
-105 1 -30 8 -64 14 -76 11 -19 8 -24 -18 -43 -17 -12 -30 -30 -30 -40 0 -13
-11 -19 -45 -24 -60 -9 -83 5 -91 55 -4 22 -9 38 -13 37 -72 -38 -84 -35 -114
26 -30 62 1 132 54 124 28 -4 40 30 15 44 -24 13 -20 26 15 47 24 15 38 17 56
10 13 -5 36 -9 51 -9z m92 -8 c0 -15 -6 -18 -32 -14 l-31 5 29 13 c16 7 30 13
32 13 1 1 2 -7 2 -17z m1500 -2 c9 0 43 -76 46 -102 0 -9 4 -34 8 -56 l6 -40
-50 -16 c-92 -30 -142 5 -148 107 -4 59 -3 64 21 74 14 7 35 9 47 6 16 -4 23
0 27 16 4 14 11 20 20 17 8 -3 18 -6 23 -6z m-900 -20 c0 -5 -2 -10 -4 -10 -3
0 -8 5 -11 10 -3 6 -1 10 4 10 6 0 11 -4 11 -10z m-30 -90 c0 -5 -7 -10 -16
-10 -8 0 -12 5 -9 10 3 6 10 10 16 10 5 0 9 -4 9 -10z m720 -20 c0 -28 -2 -30
-21 -20 -20 11 -20 12 -3 31 23 25 24 24 24 -11z m-1215 10 c3 -5 1 -10 -4
-10 -6 0 -11 5 -11 10 0 6 2 10 4 10 3 0 8 -4 11 -10z m407 -50 c-14 -25 -22
-29 -43 -25 -23 5 -58 -5 -111 -33 -5 -2 -8 3 -8 11 0 9 13 18 33 22 17 4 40
14 49 22 14 13 54 27 90 32 4 1 -1 -13 -10 -29z m-287 10 c18 -8 17 -9 -7 -9
-16 -1 -28 4 -28 9 0 12 8 12 35 0z m-81 -19 c4 -5 9 -30 12 -55 l7 -46 -32 0
c-35 0 -42 15 -11 23 11 3 20 12 20 21 0 8 -9 20 -20 26 -11 6 -20 17 -20 25
0 16 35 21 44 6z m1113 -6 c9 -25 -4 -29 -17 -6 -7 15 -7 21 0 21 6 0 13 -7
17 -15z m-68 -31 c27 -34 27 -78 1 -104 -24 -24 -38 -25 -67 -5 -27 19 -35 51
-16 67 12 10 17 9 24 -5 20 -36 57 -7 44 34 -15 45 -108 23 -122 -28 -9 -37
-6 -53 19 -80 15 -16 18 -29 14 -50 -6 -24 -1 -35 27 -64 43 -44 48 -54 90
-170 64 -175 68 -265 18 -417 -22 -67 -119 -211 -166 -247 -14 -11 -35 -28
-46 -37 -10 -10 -23 -18 -27 -18 -5 0 -14 -12 -21 -27 -8 -16 -17 -35 -22 -44
-5 -12 -2 -22 12 -35 11 -10 17 -25 14 -34 -11 -35 138 -218 302 -371 17 -16
39 -22 95 -25 107 -5 141 -13 134 -29 -3 -8 6 -23 21 -35 14 -11 23 -23 20
-26 -4 -4 -22 7 -41 24 -31 27 -43 31 -129 37 -66 5 -101 4 -116 -5 -43 -23
-18 -35 77 -37 51 -1 100 -7 109 -13 13 -8 -23 -10 -142 -8 -137 3 -160 1
-160 -12 0 -19 155 -32 317 -28 l107 3 34 35 c19 19 37 42 41 50 3 8 4 4 2
-10 -4 -16 3 -35 19 -56 l24 -32 -45 -7 c-25 -3 -277 -5 -561 -4 -412 3 -510
6 -487 15 16 7 37 20 46 31 20 22 108 23 134 2 20 -16 134 -26 134 -11 0 6
-19 14 -42 17 -50 8 -67 19 -88 59 -17 33 -15 63 6 87 19 21 18 29 -6 29 -23
0 -27 25 -5 34 18 7 48 -22 41 -40 -3 -8 0 -14 7 -15 9 0 9 -2 0 -6 -22 -8
-14 -23 13 -23 17 0 39 -13 62 -37 l37 -38 -27 -3 c-16 -2 -28 -9 -28 -15 0
-24 65 -45 152 -51 90 -6 120 4 74 25 -14 7 -27 18 -30 26 -8 20 14 51 41 58
32 8 32 45 0 45 -13 0 -28 -5 -34 -11 -7 -7 -15 -2 -27 16 -28 43 -113 121
-163 151 -62 36 -74 52 -68 91 5 26 1 35 -24 52 -16 12 -35 21 -43 21 -8 0
-28 15 -45 33 -17 17 -51 47 -77 66 -50 36 -51 51 -5 51 35 0 49 25 26 47 -14
15 -20 15 -54 2 -21 -9 -57 -13 -80 -11 -36 3 -46 10 -64 38 l-20 34 32 29
c27 25 30 32 19 45 -7 9 -27 16 -45 16 -35 0 -122 42 -143 68 -7 9 -10 27 -7
39 6 27 -29 68 -51 59 -8 -3 -24 -27 -36 -53 -37 -77 -60 -95 -137 -107 -53
-8 -81 -22 -81 -41 0 -7 10 -15 23 -17 17 -2 23 -11 25 -35 5 -48 -13 -73 -51
-73 -18 0 -47 0 -65 0 -35 0 -72 -15 -72 -30 0 -5 15 -10 33 -12 54 -5 32 -31
-48 -55 -22 -7 -29 -15 -28 -29 2 -16 -9 -24 -50 -39 -31 -12 -69 -38 -95 -64
-39 -40 -42 -47 -41 -91 2 -47 -20 -100 -40 -100 -14 0 -90 -83 -103 -112 -10
-21 -17 -26 -35 -22 -13 4 -30 4 -38 0 -26 -10 -4 -35 38 -43 39 -8 42 -11 43
-43 0 -18 5 -35 12 -38 7 -2 12 -11 12 -19 0 -10 6 -13 18 -8 38 14 73 17 86
6 10 -8 16 -9 21 -1 3 5 26 10 50 10 24 0 47 5 50 10 5 7 11 8 19 1 6 -5 35
-13 64 -17 104 -13 34 -23 -200 -26 -130 -2 -234 0 -230 4 4 4 25 8 47 10 27
2 40 8 40 18 0 12 -18 15 -90 17 -169 4 -220 8 -233 17 -8 5 -18 4 -25 -3 -9
-9 -8 -14 3 -21 12 -8 11 -10 -6 -10 -28 0 -36 10 -22 27 8 10 8 17 0 25 -9 9
-19 5 -40 -15 -17 -17 -32 -23 -40 -18 -10 6 -6 12 14 25 24 17 25 19 10 34
-20 21 -41 10 -73 -38 -25 -35 -32 -20 -11 24 7 17 21 27 42 31 77 12 180 24
186 20 18 -11 91 24 124 60 45 49 156 271 156 312 0 17 9 42 20 56 26 32 25
42 -2 62 -22 15 -22 17 -6 29 32 23 21 38 -76 106 -74 51 -107 141 -106 290 0
105 11 163 33 188 8 9 22 33 30 52 8 19 50 69 94 111 92 89 173 203 173 243 0
16 4 25 10 21 16 -10 12 -85 -7 -137 -9 -26 -14 -50 -11 -54 14 -13 44 8 60
43 l17 38 -6 -37 c-4 -31 -2 -38 11 -38 10 0 23 15 31 33 8 17 14 24 15 15 0
-9 -9 -38 -20 -64 -12 -26 -19 -55 -18 -64 2 -8 -7 -28 -19 -44 -13 -15 -25
-44 -29 -65 -4 -20 -11 -41 -16 -47 -14 -19 -18 -54 -5 -54 7 0 4 -5 -6 -11
-12 -7 -16 -17 -12 -30 4 -11 1 -34 -6 -50 -15 -38 0 -93 44 -163 36 -56 78
-86 125 -86 29 0 32 -3 32 -29 0 -29 34 -66 50 -56 4 2 8 32 8 66 1 34 2 63 4
64 2 2 37 6 78 10 100 8 124 30 125 112 0 32 -4 70 -8 85 -14 50 -115 85 -192
65 l-30 -7 24 20 c13 11 35 23 50 26 14 3 33 8 41 11 8 3 40 5 70 5 71 0 148
-35 170 -77 8 -16 19 -33 25 -37 19 -14 61 5 105 48 36 35 56 46 99 54 64 12
138 13 145 2 2 -4 -17 -18 -44 -30 -90 -41 -116 -128 -63 -210 30 -46 78 -74
120 -70 l28 3 3 -72 c2 -48 8 -75 18 -84 23 -19 33 -1 36 66 l3 59 72 31 c110
47 154 93 192 203 13 38 21 88 21 130 1 64 1 66 14 37 13 -28 14 -137 4 -206
-6 -35 -49 -108 -86 -142 -27 -26 -52 -36 -132 -53 -31 -7 -34 -10 -27 -27 4
-12 16 -12 77 1 59 13 79 23 117 58 32 30 44 48 39 59 -4 11 0 18 12 21 28 8
57 115 56 209 -1 77 -3 84 -61 195 -33 64 -72 128 -86 142 -31 31 -33 43 -11
98 14 34 19 39 40 34 20 -5 24 -2 24 17 0 31 10 44 35 44 15 0 21 9 25 35 4
20 10 41 14 48 12 20 68 40 113 41 34 1 46 -4 62 -25z m-938 -10 c8 -10 21
-13 37 -9 22 5 24 3 18 -17 -3 -13 -6 -31 -6 -40 0 -14 -8 -18 -32 -18 -47 0
-55 9 -50 58 4 45 12 51 33 26z m1242 -44 c21 0 52 8 68 17 15 9 32 14 35 10
4 -4 10 -45 12 -92 4 -71 2 -86 -11 -91 -24 -9 -45 17 -49 62 -2 32 0 38 13
36 20 -3 34 39 16 50 -19 12 -25 10 -66 -27 -34 -31 -39 -41 -36 -72 3 -40 30
-70 71 -78 78 -16 74 -14 64 -39 -5 -13 -7 -26 -5 -27 2 -2 -9 -5 -23 -6 -15
0 -36 -12 -47 -25 -11 -12 -29 -23 -40 -23 -17 0 -21 -8 -23 -44 l-3 -45 -25
43 -24 44 35 34 c43 42 44 63 3 103 -24 24 -38 31 -60 28 l-28 -5 0 67 c0 37
-3 81 -6 98 l-6 30 48 -24 c26 -13 65 -24 87 -24z m-174 -4 c6 -25 11 -73 11
-106 l0 -62 -36 32 c-31 27 -42 31 -72 25 -19 -3 -43 -12 -53 -18 -10 -6 -21
-8 -25 -5 -11 12 5 26 40 32 35 7 76 54 76 88 0 15 30 58 41 58 4 0 12 -20 18
-44z m-861 7 c-4 -34 -32 -42 -48 -13 -14 26 -5 40 26 40 22 0 25 -4 22 -27z
m-831 -50 c-3 -10 -5 -2 -5 17 0 19 2 27 5 18 2 -10 2 -26 0 -35z m70 -115
c-3 -8 -6 -5 -6 6 -1 11 2 17 5 13 3 -3 4 -12 1 -19z m1567 -29 c18 -30 18
-31 -5 -55 -27 -29 -35 -30 -42 -6 -3 9 -16 32 -28 51 -19 28 -20 34 -7 28 10
-3 20 -2 23 3 12 20 41 9 59 -21z m146 -8 c15 -29 12 -50 -10 -78 -11 -14 -21
-24 -21 -22 -4 11 -5 105 -2 112 7 13 22 7 33 -12z m-1512 -22 c9 -11 34 -37
56 -58 52 -52 43 -70 -57 -110 -21 -8 -34 -7 -62 6 -19 9 -37 25 -40 35 -3 10
-7 27 -10 37 -4 14 -1 20 12 20 95 3 106 9 80 45 -11 15 -19 16 -50 8 -46 -13
-48 0 -4 22 42 21 54 20 75 -5z m516 11 c33 -12 113 -93 98 -98 -7 -2 -12 -12
-12 -23 0 -41 -94 -52 -134 -16 -31 28 -46 73 -21 64 9 -4 21 -7 26 -7 5 0 9
-7 9 -15 0 -21 13 -19 39 8 38 41 4 76 -59 62 -31 -7 -39 2 -18 23 14 14 38
15 72 2z m-176 -25 c17 -38 15 -115 -4 -136 -13 -14 -26 -17 -63 -12 -37 4
-50 2 -61 -12 -12 -15 -12 -18 3 -27 27 -15 57 -50 57 -67 -1 -36 -14 -42 -63
-25 -41 14 -45 18 -37 34 23 42 2 180 -27 180 -8 0 -11 5 -7 11 3 6 17 8 30 5
19 -5 32 2 61 33 47 50 93 56 111 16z m492 10 c0 -3 -18 -12 -41 -21 -31 -13
-39 -21 -37 -38 4 -29 38 -34 45 -7 6 23 18 27 28 11 5 -8 11 -7 21 1 16 13
19 39 4 39 -5 0 -10 5 -10 12 0 6 9 3 20 -7 38 -34 15 -112 -39 -135 -45 -18
-100 -15 -116 7 -12 15 -17 16 -34 6 -27 -17 -31 -16 -31 2 0 9 6 15 13 14 26
-3 37 2 37 16 0 9 -9 15 -22 15 -20 0 -18 3 12 21 19 12 48 32 63 45 25 21 87
34 87 19z m610 -15 c0 -11 -4 -20 -9 -20 -14 0 -23 18 -16 30 10 17 25 11 25
-10z m-2480 -5 c0 -2 -9 -3 -19 -2 -11 0 -18 5 -15 9 4 6 34 0 34 -7z m2460
-57 c29 -21 30 -25 30 -96 0 -67 -2 -73 -17 -67 -10 4 -25 8 -33 9 -8 0 -25
31 -40 76 l-26 75 26 12 c14 7 26 12 28 13 2 0 16 -10 32 -22z m278 -42 c5
-41 -15 -56 -27 -23 -12 30 -4 60 13 54 6 -2 12 -16 14 -31z m-724 11 c-3 -8
4 -37 16 -66 25 -63 25 -71 2 -71 -10 0 -22 -4 -27 -9 -14 -12 -115 -1 -115
13 0 7 22 10 65 8 53 -3 66 -1 71 13 4 9 5 18 2 20 -2 2 -38 6 -78 9 -53 3
-75 9 -75 18 0 7 12 14 28 16 15 2 27 -1 27 -7 0 -16 46 -13 59 3 9 10 8 16
-4 26 -21 17 -19 28 8 33 12 2 23 5 24 6 1 0 0 -5 -3 -12z m-2104 -2 c0 -1
-10 -10 -22 -21 -14 -12 -18 -13 -10 -3 6 9 10 18 7 21 -3 2 2 5 10 5 8 0 15
-1 15 -2z m1540 -15 c0 -5 -4 -10 -10 -10 -5 0 -10 5 -10 10 0 6 5 10 10 10 6
0 10 -4 10 -10z m-535 -40 c3 -5 -1 -10 -10 -10 -9 0 -13 5 -10 10 3 6 8 10
10 10 2 0 7 -4 10 -10z m732 -44 c1 -33 8 -52 20 -62 17 -13 17 -13 -4 -14
-13 0 -23 5 -23 10 0 6 -16 10 -35 8 -19 -1 -41 4 -47 11 -8 9 -9 12 -1 7 16
-9 43 3 43 20 0 9 -11 14 -30 14 -40 0 -38 14 8 38 55 31 67 25 69 -32z m893
18 c0 -13 -4 -24 -10 -24 -5 0 -10 14 -10 31 0 17 4 28 10 24 6 -3 10 -17 10
-31z m-1411 -1 c0 -16 0 -38 1 -50 0 -12 7 -26 16 -31 11 -6 5 -9 -22 -10 -20
-1 -53 -7 -72 -13 -29 -10 -36 -9 -51 6 -9 10 -11 15 -4 11 16 -9 65 23 57 36
-4 5 -17 8 -30 5 -15 -3 -24 0 -24 8 0 14 22 25 51 25 10 0 19 4 19 8 0 8 36
30 51 31 4 1 7 -11 8 -26z m379 15 c-3 -8 -28 -14 -64 -16 -88 -5 -54 11 59
27 5 0 7 -5 5 -11z m1210 -83 c0 -27 -4 -74 -9 -102 -13 -64 -5 -91 27 -103
l25 -10 -33 -33 -33 -33 -7 80 c-6 76 -22 197 -34 259 l-6 27 34 -17 c32 -16
34 -21 36 -68z m-882 50 c14 -21 14 -26 0 -54 -9 -16 -25 -32 -36 -36 -40 -13
-111 16 -82 34 6 3 13 22 17 42 6 35 9 37 46 37 31 1 43 -4 55 -23z m-2096 -5
c0 -5 -12 -10 -27 -10 -22 0 -25 2 -13 10 20 13 40 13 40 0z m1199 -6 c9 -8
-13 -24 -32 -24 -30 0 -51 15 -42 29 6 11 61 7 74 -5z m1679 -16 c1 -18 5 -55
11 -83 10 -54 7 -65 -11 -47 -17 17 -67 14 -108 -6 -32 -16 -36 -22 -42 -72
-3 -30 -4 -59 0 -65 3 -5 5 -22 3 -37 -2 -18 4 -31 18 -40 12 -7 21 -20 21
-29 0 -17 34 -52 65 -64 19 -8 18 -9 -5 -13 -14 -2 -36 -13 -49 -25 l-23 -22
6 30 c4 20 1 37 -9 50 -15 20 -15 20 -34 -3 -15 -17 -26 -21 -45 -16 -29 7
-43 39 -26 59 6 8 9 18 6 23 -3 5 3 36 13 68 11 33 22 85 26 117 4 31 10 55
14 52 5 -2 28 -1 52 3 36 7 43 11 41 27 -2 11 -8 22 -13 23 -19 7 -8 43 16 54
14 6 25 15 25 20 0 5 10 13 23 18 12 5 23 9 24 9 0 1 1 -14 1 -31z m-1119 -4
c9 -8 -6 -10 -71 -6 -38 2 -68 7 -68 11 0 7 131 2 139 -5z m-1795 -30 c3 -8 2
-12 -4 -9 -6 3 -10 10 -10 16 0 14 7 11 14 -7z m1218 -18 c5 -7 -8 -12 -38
-14 -52 -4 -59 0 -50 23 4 13 14 14 43 9 21 -4 41 -12 45 -18z m602 9 c11 -8
18 -16 15 -18 -24 -16 -106 -50 -114 -47 -5 2 -27 3 -47 2 -20 -2 -39 2 -43 8
-4 6 18 10 60 10 49 0 66 3 63 13 -3 6 -18 15 -34 18 -26 6 -24 7 13 8 23 0
45 6 48 11 8 13 16 12 39 -5z m956 -17 c0 -19 -2 -20 -12 -6 -7 9 -20 18 -28
21 -8 3 -3 6 13 6 21 1 27 -3 27 -21z m-1103 6 c-3 -3 -12 -4 -19 -1 -8 3 -5
6 6 6 11 1 17 -2 13 -5z m566 -14 c24 0 47 3 50 7 4 3 18 8 32 9 19 2 25 -2
25 -17 0 -17 -7 -19 -82 -18 -46 1 -96 4 -113 8 -28 6 -29 7 -10 18 12 7 26 8
37 2 9 -5 36 -9 61 -9z m-976 -26 c1 -5 -3 -16 -10 -24 -17 -21 -147 -15 -147
6 0 11 16 14 65 14 40 0 65 4 65 11 0 13 22 7 27 -7z m1071 -39 c7 -3 10 -9 7
-15 -6 -9 -205 -15 -205 -6 0 2 -3 11 -6 19 -5 13 9 15 93 11 54 -3 104 -7
111 -9z m-628 -20 c-12 -15 -30 -12 -30 5 0 8 31 19 39 13 2 -1 -2 -9 -9 -18z
m-474 -20 c4 -9 19 -15 39 -15 19 0 36 -4 40 -10 3 -6 -31 -7 -92 -4 -115 6
-123 8 -123 29 0 22 128 22 136 0z m1672 -1 c39 -15 39 -16 46 -82 11 -117 8
-140 -15 -147 -23 -8 -79 12 -79 28 0 5 7 15 17 22 25 19 9 49 -23 42 -53 -10
-66 76 -18 128 27 30 23 29 72 9z m-2740 -26 c-3 -7 -17 -15 -33 -16 -25 -3
-27 -2 -16 12 16 19 55 22 49 4z m1227 2 c4 -6 -7 -10 -24 -10 -17 0 -31 5
-31 10 0 6 11 10 24 10 14 0 28 -4 31 -10z m-1145 -12 c0 -4 -7 -8 -15 -8 -8
0 -15 4 -15 8 0 5 7 9 15 9 8 0 15 -4 15 -9z m2068 -10 c-3 -23 -4 -23 -153
-24 -179 -1 -225 3 -225 22 0 14 25 16 258 22 l124 3 -4 -23z m-1993 2 c17 -7
15 -9 -12 -9 -17 -1 -35 4 -38 9 -7 12 22 12 50 0z m1129 -25 c4 -13 -12 -15
-97 -15 -56 -1 -131 -2 -167 -3 -51 -2 -65 1 -68 13 -4 22 323 27 332 5z
m1700 -37 c17 -24 22 -83 7 -92 -4 -3 -6 6 -3 20 3 16 -3 36 -17 54 -11 16
-21 32 -21 35 0 13 20 3 34 -17z m-872 -19 c-9 -37 -49 -42 -219 -24 -23 3
-45 0 -48 -5 -6 -9 -75 27 -75 39 0 4 78 7 173 6 137 -2 171 -5 169 -16z
m-818 3 c7 -12 -33 -48 -61 -54 -15 -4 -20 -2 -16 8 7 20 -38 27 -127 21 -78
-5 -119 4 -92 22 19 11 289 14 296 3z m1630 -24 c9 -12 16 -30 16 -40 0 -9 7
-21 16 -26 14 -8 14 -13 -7 -45 -30 -46 -73 -51 -91 -12 -10 22 -8 29 11 49
19 20 21 27 10 44 -10 17 -10 23 0 36 18 21 27 20 45 -6z m-2914 -23 c0 -14
-6 -34 -12 -45 -11 -17 -10 -22 2 -30 21 -13 25 -250 4 -250 -17 0 -19 -16 -1
-23 6 -3 3 -6 -8 -6 -18 -1 -20 6 -22 52 -1 28 -3 59 -4 67 -6 43 2 90 16 90
18 0 18 0 1 36 -12 23 -12 40 -4 82 11 54 28 71 28 27z m1155 -10 c-5 -2 -23
-6 -38 -9 -17 -4 -31 -16 -37 -31 -13 -33 -49 -33 -90 1 -41 35 -30 44 14 10
19 -14 39 -26 45 -26 16 0 24 22 11 30 -25 15 2 30 53 29 29 0 48 -2 42 -4z
m830 -16 c11 -1 4 -5 -15 -9 -36 -9 -50 -6 -50 12 0 6 10 8 23 4 12 -3 31 -6
42 -7z m-1948 -31 c-3 -8 -6 -5 -6 6 -1 11 2 17 5 13 3 -3 4 -12 1 -19z m2985
-54 c-4 -51 16 -314 30 -384 5 -30 17 -65 25 -77 10 -15 11 -23 4 -23 -6 0
-16 10 -22 23 -6 13 -20 27 -32 32 -29 14 -82 126 -97 207 -10 57 -9 75 6 130
18 66 62 140 79 134 6 -2 9 -20 7 -42z m-1448 5 c20 -19 20 -19 -11 -19 -16 0
-58 3 -93 7 -49 5 -60 9 -48 17 8 6 41 12 73 12 45 1 63 -3 79 -17z m1231 -58
c-4 -3 -17 6 -28 20 -12 15 -29 29 -37 33 -8 3 -5 4 7 2 13 -2 26 1 30 7 4 7
12 -2 20 -22 8 -18 11 -36 8 -40z m-2885 49 c0 -5 -5 -10 -11 -10 -5 0 -7 5
-4 10 3 6 8 10 11 10 2 0 4 -4 4 -10z m2527 -22 c-6 -36 -36 -98 -47 -98 -24
0 -19 31 12 73 18 25 34 46 36 46 1 1 1 -9 -1 -21z m-807 -17 c0 -23 -10 -27
-85 -36 -42 -6 -59 -4 -65 5 -5 8 -28 17 -52 21 -31 5 -15 7 60 6 67 0 106 3
114 11 17 17 28 15 28 -7z m905 9 c25 -10 27 -13 21 -55 -3 -25 -9 -65 -12
-89 -5 -38 -10 -45 -32 -49 -41 -8 -62 9 -62 48 0 18 5 37 10 40 6 3 10 16 10
27 0 27 22 88 31 88 4 0 20 -5 34 -10z m215 -57 c16 -24 25 -30 31 -21 16 26
20 -1 4 -31 -17 -35 -49 -41 -121 -26 -45 10 -32 117 14 127 24 5 44 -9 72
-49z m120 27 c5 0 5 -12 1 -27 -4 -16 -7 -40 -6 -55 1 -19 -2 -24 -11 -18 -6
6 -11 23 -12 40 0 17 -4 40 -7 52 -6 17 -4 20 10 15 9 -4 20 -7 25 -7z m-250
-20 c0 -5 -7 -10 -16 -10 -8 0 -12 5 -9 10 3 6 10 10 16 10 5 0 9 -4 9 -10z
m-1148 -23 c14 -7 23 -17 21 -23 -8 -25 29 -38 97 -36 37 2 70 -1 73 -5 3 -5
-23 -9 -58 -9 -74 1 -88 -8 -54 -32 19 -13 46 -17 127 -18 56 0 102 -5 102
-10 -1 -5 -9 -8 -20 -6 -10 2 -32 -4 -48 -12 -24 -12 -40 -13 -99 -3 -38 7
-77 18 -85 25 -9 7 -23 10 -32 6 -19 -7 -19 -9 -6 -33 7 -14 5 -24 -9 -40 -17
-20 -20 -20 -35 -6 -17 17 -23 50 -7 41 5 -3 14 1 21 9 12 14 7 19 -14 16 -4
-1 -14 3 -21 9 -9 8 -17 6 -29 -5 -9 -9 -16 -19 -16 -23 0 -4 -25 -7 -56 -8
-30 0 -59 -5 -62 -12 -5 -7 -13 -8 -22 -2 -23 15 -65 12 -118 -8 l-49 -19 11
24 c8 16 20 23 41 23 103 2 151 12 140 30 -6 10 42 23 56 15 15 -10 49 5 49
21 0 13 -31 20 -67 15 -7 -1 -13 3 -13 8 0 13 29 20 95 23 37 2 50 7 50 18 0
11 -13 16 -45 18 -25 2 -49 7 -54 13 -15 14 108 11 136 -4z m875 -49 c-3 -8
-6 -5 -6 6 -1 11 2 17 5 13 3 -3 4 -12 1 -19z m-54 -13 c-3 -9 -8 -14 -10 -11
-3 3 -2 9 2 15 9 16 15 13 8 -4z m562 -39 c24 10 17 -16 -10 -38 -49 -38 -23
-135 47 -178 18 -11 41 -19 51 -16 9 2 17 1 17 -2 0 -4 16 -24 35 -45 35 -39
35 -40 8 -86 -2 -2 -11 3 -20 11 -30 26 -80 48 -110 48 -30 0 -30 0 -36 91 -4
55 -43 129 -69 129 -10 0 -27 6 -38 12 -16 11 -26 9 -57 -7 -20 -11 -45 -33
-55 -50 l-18 -30 1 93 c1 52 5 89 9 83 8 -14 66 -31 105 -31 17 0 46 11 65 24
33 22 35 23 48 5 7 -10 19 -16 27 -13z m-484 -22 c-4 -16 -15 -30 -24 -32 -26
-5 -21 33 6 51 27 18 28 18 18 -19z m-83 -19 c5 -39 21 -58 44 -52 24 7 38
-21 27 -50 -11 -31 -22 -29 -63 12 -34 33 -61 98 -50 117 12 19 39 2 42 -27z
m-2402 -13 c-17 -16 -18 -16 -5 5 7 12 15 20 18 17 3 -2 -3 -12 -13 -22z
m2667 -55 c-16 -44 -16 -47 1 -66 9 -10 28 -22 42 -25 13 -4 24 -11 24 -17 0
-6 -3 -9 -7 -7 -41 20 -84 39 -110 48 -27 10 -33 18 -33 43 0 37 -25 68 -48
59 -15 -5 -15 -4 1 12 15 15 19 16 32 2 11 -11 23 -12 47 -5 17 5 36 13 42 19
20 20 26 -18 9 -63z m-654 8 c21 -6 22 -9 8 -17 -22 -12 -21 -23 2 -56 28 -38
28 -70 1 -123 -35 -70 -92 -94 -222 -93 -73 1 -98 -2 -98 -12 0 -18 63 -36
113 -33 25 2 58 -4 82 -15 22 -11 50 -23 63 -29 25 -12 30 -52 8 -82 -11 -15
-28 -19 -90 -20 -42 0 -76 3 -76 7 0 4 -5 8 -10 8 -6 0 -29 12 -53 28 -23 15
-51 29 -62 32 -13 4 -20 14 -20 30 0 15 -6 25 -15 26 -31 2 -34 6 -12 15 27
10 24 35 -4 32 -18 -1 -34 12 -34 31 0 5 7 2 16 -5 14 -11 18 -10 30 6 23 31
13 50 -25 47 -38 -3 -34 11 11 34 28 15 30 19 25 60 -4 41 -3 44 19 44 13 0
50 19 83 41 53 36 68 42 123 44 57 2 63 4 66 25 4 22 4 22 25 2 12 -11 33 -23
46 -27z m-1943 8 c-7 -7 -26 7 -26 19 0 6 6 6 15 -2 9 -7 13 -15 11 -17z
m2947 -15 c3 -18 8 -42 12 -53 5 -16 1 -14 -19 8 -24 26 -34 66 -20 80 12 11
21 -2 27 -35z m-2903 21 c0 -5 -5 -7 -12 -3 -8 5 -9 2 -5 -9 3 -9 2 -19 -4
-23 -15 -9 -22 2 -14 25 6 21 35 30 35 10z m292 -107 c3 -71 2 -102 -6 -99 -6
2 -14 17 -17 33 -9 40 -10 169 -2 178 15 14 21 -13 25 -112z m1094 89 c7 -9
11 -18 11 -21 0 -3 5 -15 11 -27 8 -14 9 -24 2 -28 -15 -10 -12 -63 6 -90 10
-16 14 -34 10 -50 -4 -17 -2 -27 8 -31 8 -3 12 -13 9 -25 -3 -10 1 -26 8 -35
10 -13 10 -17 -1 -24 -12 -7 -11 -12 4 -28 11 -13 14 -22 7 -27 -6 -3 -11 -15
-11 -25 0 -27 -74 -57 -157 -65 -59 -5 -74 -3 -113 17 -53 27 -64 62 -30 93
29 26 26 61 -7 74 -42 17 -96 51 -110 69 -19 23 -16 70 7 120 25 55 53 78 113
93 43 10 50 9 68 -7 20 -18 21 -18 38 2 9 12 23 24 31 27 27 10 85 3 96 -12z
m204 -1 c0 -4 -7 -13 -16 -20 -12 -11 -18 -11 -31 2 -8 9 -13 20 -9 26 6 11
56 4 56 -8z m-1773 -6 c-3 -3 -12 -4 -19 -1 -8 3 -5 6 6 6 11 1 17 -2 13 -5z
m2927 -15 c13 -6 26 -19 29 -28 3 -9 8 -23 11 -32 5 -12 -3 -18 -33 -28 -22
-6 -46 -20 -54 -31 -9 -13 -17 -16 -27 -10 -12 7 -11 12 4 29 17 19 17 20 -3
33 -27 16 -26 26 1 55 24 26 36 28 72 12z m-2847 -21 c-3 -8 -6 -5 -6 6 -1 11
2 17 5 13 3 -3 4 -12 1 -19z m203 7 c0 -8 -4 -15 -10 -15 -5 0 -10 7 -10 15 0
8 5 15 10 15 6 0 10 -7 10 -15z m2351 -82 c13 -7 38 -14 54 -17 41 -6 65 -16
65 -28 0 -6 -6 -5 -15 2 -20 16 -90 7 -114 -14 -15 -14 -20 -14 -29 -3 -7 8
-8 17 -4 21 4 4 3 6 -3 4 -5 -1 -21 8 -33 20 l-24 24 28 29 28 29 11 -27 c7
-16 23 -33 36 -40z m-2441 37 c0 -11 -6 -20 -12 -20 -9 0 -9 -3 1 -9 8 -5 11
-16 8 -24 -3 -9 -2 -30 3 -47 9 -30 8 -31 -18 -28 -26 3 -27 5 -28 68 -1 75 0
80 27 80 12 0 19 -7 19 -20z m1496 5 c13 -12 12 -15 -7 -25 -16 -9 -19 -18
-15 -36 9 -33 1 -30 -18 6 -14 28 -13 33 2 50 20 24 20 24 38 5z m485 2 c-1
-4 -1 -15 -1 -24 0 -15 -2 -16 -10 -3 -13 20 -13 43 1 38 6 -2 10 -7 10 -11z
m-1001 -27 c0 -5 -15 -10 -32 -10 -25 0 -29 3 -18 10 20 13 50 13 50 0z m-20
-65 c0 -22 -4 -25 -35 -25 -31 0 -35 3 -35 25 0 22 4 25 35 25 31 0 35 -3 35
-25z m1070 5 c11 -7 6 -10 -22 -10 -20 0 -40 5 -43 10 -8 13 45 13 65 0z m770
-41 c0 -12 -107 -11 -152 2 -21 5 -38 14 -38 20 0 6 7 6 19 -1 31 -16 81 -12
109 11 l27 20 17 -21 c10 -12 18 -26 18 -31z m-276 -18 c10 -11 33 -27 52 -36
27 -13 34 -22 34 -45 0 -30 -9 -35 -57 -33 -7 1 -13 -3 -13 -8 0 -5 -4 -9 -10
-9 -5 0 -10 13 -10 30 0 23 -7 33 -30 45 -31 16 -39 42 -18 63 17 17 32 15 52
-7z m1963 13 c-3 -3 -12 -4 -19 -1 -8 3 -5 6 6 6 11 1 17 -2 13 -5z m-2367
-19 c23 -14 22 -14 -30 -9 -30 3 -73 2 -95 -4 -47 -10 -66 -6 -58 14 7 20 148
19 183 -1z m980 -20 c0 -16 15 -42 40 -69 62 -67 9 -80 -58 -15 -34 34 -41 63
-17 73 8 3 15 12 15 21 0 8 5 15 10 15 6 0 10 -11 10 -25z m-2102 -15 c17 -16
38 -30 46 -30 9 0 16 -4 16 -10 0 -14 -12 -13 -35 3 -26 17 -95 37 -128 37
-26 0 -42 12 -30 24 3 3 28 6 54 6 39 0 53 -5 77 -30z m2996 11 c3 -4 23 -11
45 -15 33 -5 167 -74 151 -77 -22 -4 -357 -9 -368 -4 -11 4 -8 11 10 34 18 23
31 30 59 30 21 1 47 9 60 21 27 22 35 24 43 11z m-1324 -11 c0 -5 -2 -10 -4
-10 -3 0 -8 5 -11 10 -3 6 -1 10 4 10 6 0 11 -4 11 -10z m242 -11 c14 -11 31
-19 37 -19 6 0 11 -4 11 -10 0 -5 7 -10 15 -10 8 0 15 6 15 13 0 6 7 -1 16
-18 8 -16 23 -38 32 -49 28 -30 92 -58 118 -52 13 4 23 3 22 -1 -6 -22 17 -56
45 -68 34 -14 65 -6 104 28 17 15 25 16 41 8 12 -6 45 -11 75 -11 65 0 76 -8
39 -30 -23 -15 -30 -15 -47 -4 -11 8 -37 14 -58 14 -41 0 -173 -36 -194 -53
-21 -15 -57 0 -75 33 -11 20 -22 28 -32 24 -21 -8 -20 -33 1 -56 15 -17 15
-18 -8 -18 -14 0 -30 -5 -37 -12 -9 -9 -12 -7 -12 10 0 15 -9 26 -27 33 l-26
10 21 20 c24 22 29 68 10 87 -7 7 -9 12 -5 12 4 0 18 -18 32 -40 25 -40 55
-53 55 -25 0 27 -47 92 -82 113 -53 32 -91 36 -113 12 -18 -20 -17 -20 14 -26
l31 -7 -32 -16 c-40 -21 -53 -12 -50 35 2 20 -4 47 -13 60 -8 13 -15 25 -15
27 0 12 69 1 92 -14z m-797 -9 c-3 -5 -10 -10 -16 -10 -5 0 -9 5 -9 10 0 6 7
10 16 10 8 0 12 -4 9 -10z m83 -15 c-2 -2 -19 0 -38 3 -33 5 -33 6 -10 12 20
6 58 -6 48 -15z m-248 5 c0 -5 -14 -7 -32 -3 -46 8 -48 13 -5 13 21 0 37 -4
37 -10z m837 -22 c7 -14 10 -33 7 -42 -5 -14 -8 -14 -27 -1 -12 8 -36 15 -54
15 -39 0 -41 6 -11 37 29 31 68 27 85 -9z m-1907 8 c0 -19 -17 -29 -25 -16 -3
5 -21 11 -38 11 l-32 2 35 7 c54 11 60 11 60 -4z m3656 -5 c-7 -11 -104 -13
-110 -2 -4 5 19 10 54 10 33 0 58 -4 56 -8z m-3591 -10 c3 -5 1 -12 -5 -16 -5
-3 -10 1 -10 9 0 18 6 21 15 7z m1295 -27 c0 -8 -6 -11 -16 -7 -9 3 -30 6 -47
7 -17 1 -32 6 -34 11 -2 6 17 9 47 7 34 -3 50 -8 50 -18z m-310 1 c0 -8 7 -15
15 -15 8 0 15 -4 15 -9 0 -19 -50 -8 -65 15 -15 23 -14 24 10 24 16 0 25 -6
25 -15z m-1132 -12 c-10 -2 -26 -2 -35 0 -10 3 -2 5 17 5 19 0 27 -2 18 -5z
m173 -34 c-18 -15 -21 -24 -16 -52 7 -37 5 -41 -37 -51 -22 -5 -25 -3 -21 14
6 24 -13 27 -37 5 -10 -9 -34 -19 -54 -22 l-37 -6 31 49 c16 27 33 57 36 67 9
23 40 22 58 -4 18 -26 50 -21 54 9 2 12 7 20 12 17 5 -3 12 0 16 7 6 9 9 9 12
-2 3 -7 -5 -22 -17 -31z m109 -15 c0 -26 8 -43 29 -65 l29 -29 -34 0 c-31 0
-35 3 -29 20 5 17 0 21 -34 26 -47 8 -59 37 -13 32 24 -3 27 0 25 25 -1 18 3
27 13 27 9 0 14 -11 14 -36z m1160 1 c0 -8 -4 -15 -9 -15 -5 0 -14 7 -21 15
-10 13 -9 15 9 15 12 0 21 -6 21 -15z m570 0 c7 -8 8 -15 2 -15 -5 0 -15 7
-22 15 -7 8 -8 15 -2 15 5 0 15 -7 22 -15z m465 3 c29 -13 31 -21 11 -37 -22
-18 -56 3 -49 29 6 24 5 23 38 8z m-2505 -6 c0 -13 -12 -22 -22 -16 -10 6 -1
24 13 24 5 0 9 -4 9 -8z m1200 -18 c0 -2 -13 -4 -30 -4 -16 0 -30 4 -30 8 0 5
14 7 30 4 17 -2 30 -6 30 -8z m990 -26 c0 -22 -13 -23 -30 -3 -10 12 -10 18 0
30 11 13 15 13 21 3 5 -7 9 -21 9 -30z m1527 36 c-3 -3 -12 -4 -19 -1 -8 3 -5
6 6 6 11 1 17 -2 13 -5z m-2952 -24 c3 -5 -1 -10 -10 -10 -9 0 -13 5 -10 10 3
6 8 10 10 10 2 0 7 -4 10 -10z m2213 -34 c6 -32 -34 -48 -45 -18 -4 9 -14 23
-22 30 -13 10 -10 12 24 10 30 -2 41 -8 43 -22z m-2733 -6 c3 -5 1 -10 -4 -10
-6 0 -11 5 -11 10 0 6 2 10 4 10 3 0 8 -4 11 -10z m601 -11 c3 -6 18 -9 32 -6
17 3 35 -2 51 -14 23 -19 22 -19 -200 -20 -123 -1 -250 -2 -281 -3 -32 0 -58
2 -58 6 0 10 30 17 77 17 24 0 48 3 54 7 6 3 66 6 134 5 67 -1 133 3 146 8 32
13 37 13 45 0z m1959 -29 c5 -15 15 -20 44 -20 26 0 44 -7 59 -22 11 -13 28
-29 37 -36 25 -21 14 -46 -20 -48 -17 -1 -62 -5 -102 -8 -74 -7 -116 4 -140
34 -17 22 -6 31 23 18 35 -16 49 1 30 37 -14 26 -14 31 1 47 22 24 60 23 68
-2z m-142 -16 c21 -8 23 -34 2 -34 -8 0 -22 -11 -31 -24 -12 -19 -20 -23 -36
-17 -36 13 -120 -4 -136 -27 -20 -31 -74 -29 -131 5 -34 20 -41 28 -28 31 10
2 29 -3 42 -12 28 -18 55 -12 55 14 0 22 43 35 70 20 29 -16 38 -12 42 17 2
22 10 30 43 39 37 10 49 9 108 -12z m-3288 -4 c-3 -5 -14 -10 -23 -10 -15 0
-15 2 -2 10 20 13 33 13 25 0z m405 -10 c46 -6 36 -8 -62 -9 -69 0 -118 3
-118 8 0 11 85 20 110 13 8 -2 40 -8 70 -12z m-297 -20 c-5 -18 3 -19 130 -19
82 0 144 -4 157 -11 14 -7 60 -9 138 -6 64 3 225 8 357 11 132 3 284 8 339 11
77 5 100 4 107 -7 7 -11 11 -11 17 -2 6 10 100 14 378 19 547 8 689 9 897 4
l187 -5 -6 -61 c-6 -56 -5 -62 17 -77 12 -9 20 -19 18 -22 -6 -6 -487 -14
-794 -14 -115 0 -219 0 -230 0 -356 -1 -782 1 -820 4 -43 4 -665 13 -978 15
l-98 0 3 73 c3 70 4 72 28 70 43 -4 100 8 100 21 0 7 13 13 29 14 23 0 28 -3
24 -18z m2905 -126 c50 -8 122 12 122 33 0 11 11 12 53 7 63 -8 73 -14 24 -14
-25 0 -37 -5 -37 -14 0 -18 38 -26 110 -25 50 2 140 -15 140 -26 0 -3 -119 -5
-265 -5 l-264 0 -11 40 c-6 22 -8 45 -5 50 3 5 24 -2 48 -15 23 -14 62 -27 85
-31z m489 0 c-3 -3 -12 -4 -19 -1 -8 3 -5 6 6 6 11 1 17 -2 13 -5z m-40 -40
c-3 -3 -12 -4 -19 -1 -8 3 -5 6 6 6 11 1 17 -2 13 -5z M1834 6696 c-9 -23 1
-32 33 -30 20 0 28 6 28 20 0 24 -52 33 -61 10z M1646 6661 c-20 -22 -4 -40
19 -21 12 10 16 9 21 -4 7 -18 30 -21 39 -5 9 14 -23 49 -45 49 -9 0 -25 -9
-34 -19z M1264 6630 c-24 -10 -38 -36 -23 -46 5 -3 16 0 24 6 12 10 18 10 30
0 24 -20 38 1 19 28 -17 24 -19 25 -50 12z M1061 6606 c-7 -8 -9 -21 -5 -27 5
-9 11 -7 21 6 13 18 13 18 27 -1 17 -23 35 -10 20 14 -15 23 -48 27 -63 8z
M1760 6185 c0 -10 10 -15 28 -16 22 0 18 -4 -25 -21 -50 -20 -74 -42 -34 -31
11 3 28 -5 44 -21 32 -32 44 -34 24 -3 -14 22 -13 24 15 36 35 16 45 36 28 56
-17 20 -80 20 -80 0z M1431 5704 c-17 -12 -20 -19 -10 -24 15 -10 49 10 49 27
0 17 -11 16 -39 -3z M3635 5840 c-3 -5 1 -10 10 -10 9 0 13 5 10 10 -3 6 -8
10 -10 10 -2 0 -7 -4 -10 -10z M3264 5355 c-4 -9 -2 -21 3 -26 14 -14 45 1 41
20 -4 22 -37 26 -44 6z M1506 4761 c-4 -7 -5 -15 -2 -18 9 -9 19 4 14 18 -4
11 -6 11 -12 0z M1856 5052 c-9 -15 42 -112 60 -112 13 0 15 6 10 31 -3 17
-12 43 -19 57 -12 27 -41 40 -51 24z M1962 4879 c3 -24 14 -64 25 -89 11 -25
23 -53 26 -62 6 -18 27 -25 27 -10 0 4 -7 32 -16 62 -9 30 -19 73 -22 95 -5
28 -13 41 -26 43 -17 4 -18 -1 -14 -39z M1895 4900 c-4 -6 2 -41 13 -78 11
-37 26 -101 33 -142 7 -41 16 -83 21 -93 14 -28 31 -9 23 27 -3 17 -11 59 -16
93 -9 62 -45 181 -59 196 -4 5 -11 4 -15 -3z M2523 5023 c-7 -2 -13 -11 -13
-18 0 -9 -10 -13 -27 -12 -18 1 -28 -3 -30 -14 -3 -10 15 -24 57 -43 67 -31
98 -30 80 4 -6 11 -17 20 -25 20 -8 0 -15 5 -15 10 0 6 20 10 44 10 44 0 67
14 50 30 -11 10 -105 20 -121 13z M2794 5005 c-4 -17 -15 -27 -33 -31 -14 -3
-32 -7 -38 -10 -7 -2 -13 2 -13 9 0 7 -5 18 -12 25 -9 9 -17 7 -35 -10 -43
-41 -26 -58 59 -58 65 0 108 28 108 71 0 36 -27 40 -36 4z M2798 4889 c-26
-15 -22 -29 8 -29 23 0 26 -3 22 -25 -6 -27 1 -32 20 -13 17 17 15 42 -6 61
-21 20 -21 20 -44 6z M2420 4835 c0 -10 10 -15 26 -15 22 0 25 2 14 15 -7 8
-19 15 -26 15 -8 0 -14 -7 -14 -15z M1653 4674 c-6 -17 50 -73 74 -74 37 -1
12 58 -33 78 -32 15 -33 15 -41 -4z M1757 4539 c-18 -10 -18 -12 4 -35 12 -13
28 -24 35 -24 20 0 25 32 8 51 -20 22 -22 22 -47 8z M1807 4442 c-23 -25 -21
-39 6 -48 12 -3 29 -12 37 -19 25 -20 57 -24 79 -8 12 8 21 18 21 24 0 13 -38
11 -42 -3 -3 -7 -16 -3 -39 13 -19 13 -36 25 -38 26 -2 1 2 9 9 18 19 23 -12
20 -33 -3z M1899 4444 c-10 -13 -10 -17 2 -25 9 -6 18 -4 26 7 6 9 16 13 22 9
6 -3 16 -3 23 1 8 5 6 10 -8 15 -31 12 -51 10 -65 -7z M1745 4120 c3 -5 8 -10
11 -10 2 0 4 5 4 10 0 6 -5 10 -11 10 -5 0 -7 -4 -4 -10z M3100 4520 c0 -5 5
-10 10 -10 6 0 10 5 10 10 0 6 -4 10 -10 10 -5 0 -10 -4 -10 -10z M3525 3350
c-3 -6 3 -22 14 -36 29 -37 48 -117 50 -219 1 -49 4 -92 7 -94 2 -3 10 1 17 8
20 20 16 216 -6 271 -28 69 -64 99 -82 70z M3574 2948 c-5 -7 -9 -20 -11 -28
-10 -73 -14 -105 -18 -170 -4 -41 -13 -117 -21 -167 -7 -51 -14 -122 -14 -157
0 -36 -5 -98 -10 -138 -6 -40 -12 -185 -14 -323 -3 -137 -8 -260 -11 -272 -6
-17 -3 -23 8 -23 39 0 47 72 46 405 0 72 5 175 10 230 24 233 34 321 37 345 8
51 27 236 27 263 0 34 -17 55 -29 35z M3545 2070 c-4 -12 -2 -51 4 -88 14 -95
20 -173 21 -279 0 -83 2 -95 24 -120 33 -38 52 -21 33 28 -8 19 -14 68 -15
109 -1 186 -26 370 -52 370 -5 0 -12 -9 -15 -20z M3774 1415 c-7 -18 12 -45
31 -45 23 0 65 -60 65 -91 0 -18 6 -32 16 -36 22 -8 33 13 24 51 -14 58 -33
86 -78 111 -52 29 -51 29 -58 10z M1742 3241 c-28 -7 -31 -25 -5 -29 68 -11
70 -13 19 -30 -27 -10 -51 -22 -53 -27 -2 -6 17 -16 43 -23 51 -14 99 0 99 28
0 8 5 18 10 22 14 10 -34 54 -65 61 -14 2 -35 2 -48 -2z M1983 3230 c-18 -11
-33 -27 -33 -35 0 -20 19 -19 42 2 10 9 30 18 45 19 36 4 53 12 53 24 0 17
-73 11 -107 -10z M1982 3178 c-18 -18 -15 -25 16 -36 38 -13 112 -2 112 17 0
29 -102 45 -128 19z M1871 3061 c-8 -5 -11 -16 -8 -25 9 -22 95 -23 104 0 8
22 -12 40 -29 26 -9 -7 -19 -7 -28 -2 -18 12 -22 12 -39 1z M1855 2970 c-26
-27 -26 -37 0 -30 6 2 44 3 85 4 41 1 77 5 79 11 6 16 -52 44 -71 33 -11 -5
-25 -5 -37 2 -26 13 -23 14 -56 -20z M1918 2923 c-29 -7 -21 -25 10 -21 15 2
26 7 25 13 -2 12 -12 14 -35 8z M1227 2386 c-4 -10 -7 -25 -6 -34 0 -11 4 -9
10 7 5 13 8 29 6 35 -2 5 -6 2 -10 -8z M1277 1708 c-27 -15 -20 -26 23 -38 22
-6 40 -15 40 -19 0 -12 -30 -22 -49 -16 -9 2 -23 0 -31 -5 -13 -8 -10 -13 13
-32 33 -27 28 -58 -9 -58 -30 0 -73 -39 -76 -70 -4 -34 27 -40 36 -7 4 17 19
30 45 41 47 18 84 55 76 75 -3 9 5 23 21 36 34 27 28 67 -13 83 -51 19 -59 20
-76 10z M2296 1659 c-32 -25 -32 -28 1 -78 18 -29 34 -41 50 -41 28 0 29 7 2
36 l-21 23 27 26 c14 15 24 33 21 41 -8 21 -49 17 -80 -7z M1742 2479 c-18 -7
-22 -14 -17 -31 8 -26 34 -50 50 -45 5 2 11 16 13 30 2 15 8 27 13 27 5 0 9 7
9 15 0 17 -32 19 -68 4z M1680 2244 c0 -11 5 -14 16 -10 9 3 20 6 25 6 5 0 9
5 9 10 0 6 -11 10 -25 10 -16 0 -25 -6 -25 -16z M2232 2267 c-6 -7 -7 -19 -3
-26 11 -17 51 2 51 24 0 18 -34 20 -48 2z M1781 1641 c-64 -9 -69 -36 -6 -32
43 3 65 12 65 26 0 8 -3 14 -7 13 -5 0 -28 -4 -52 -7z M2113 1464 c-33 -16
-35 -20 -35 -49 0 -30 2 -35 21 -35 10 0 21 9 24 20 3 11 11 20 18 20 10 0 10
-3 1 -12 -16 -16 -15 -38 1 -38 20 0 47 33 47 57 0 17 -28 53 -41 53 -2 0 -19
-8 -36 -16z M2091 1108 c-10 -27 3 -48 29 -48 25 0 43 25 35 50 -9 28 -53 27
-64 -2z M1667 1482 c-23 -5 -18 -36 7 -40 10 -2 23 1 29 7 15 15 -11 39 -36
33z M1473 1430 c-48 -29 -42 -90 9 -90 20 0 24 20 7 37 -8 8 -8 13 1 18 6 4
20 -5 31 -19 19 -24 48 -35 50 -18 0 4 2 17 3 29 2 14 -7 29 -25 42 -34 26
-36 26 -76 1z M1634 1206 c-11 -8 -38 -16 -60 -18 -29 -2 -40 -8 -42 -22 -4
-17 0 -18 35 -11 21 4 44 11 51 17 6 6 12 7 12 4 0 -4 9 -2 20 4 11 6 20 17
20 25 0 19 -10 19 -36 1z M1544 1117 c-44 -38 -12 -81 44 -61 39 14 36 84 -4
84 -7 0 -25 -11 -40 -23z M1613 7566 c-17 -6 -40 -19 -50 -27 -10 -9 -34 -22
-54 -28 -20 -7 -45 -21 -55 -32 -18 -20 -18 -22 -2 -33 16 -12 15 -14 -9 -25
-18 -8 -23 -15 -16 -22 11 -11 53 8 53 23 0 5 7 8 15 8 9 0 14 8 12 21 -1 14
6 24 21 30 17 6 22 5 22 -6 0 -8 6 -15 14 -15 29 0 46 13 46 34 0 43 13 49 85
44 52 -5 68 -3 72 9 3 7 3 16 1 19 -11 11 -125 11 -155 0z M995 6710 c-3 -5
-1 -10 4 -10 6 0 11 5 11 10 0 6 -2 10 -4 10 -3 0 -8 -4 -11 -10z M1421 6191
c-10 -7 -10 -10 -1 -16 6 -4 16 -3 22 3 13 13 -4 23 -21 13z M1321 6154 c-12
-15 -21 -35 -21 -45 0 -10 -8 -34 -17 -54 -9 -19 -14 -38 -10 -41 12 -12 37 5
48 33 6 15 20 47 30 71 28 63 9 85 -30 36z M1197 6128 c-6 -18 -10 -37 -9 -42
2 -5 -2 -12 -9 -16 -6 -4 -8 -13 -5 -19 12 -19 42 5 55 46 7 21 15 44 17 51 4
7 -3 12 -16 12 -15 0 -24 -10 -33 -32z M1366 6091 c-4 -7 -5 -15 -2 -18 9 -9
19 4 14 18 -4 11 -6 11 -12 0z M1157 6014 c-10 -10 -9 -52 1 -58 15 -9 34 11
30 34 -3 24 -19 36 -31 24z M1262 5961 c-16 -9 -28 -71 -14 -71 27 0 42 14 42
40 0 32 -10 43 -28 31z M3670 5939 c0 -5 5 -7 10 -4 6 3 10 8 10 11 0 2 -4 4
-10 4 -5 0 -10 -5 -10 -11z M1124 5866 c-18 -73 1 -128 24 -69 19 49 19 87 0
91 -12 2 -19 -5 -24 -22z M807 5754 c-10 -11 6 -44 22 -44 13 0 13 2 2 9 -7 5
-11 13 -7 19 7 11 -8 25 -17 16z M3235 5740 c3 -5 8 -10 11 -10 2 0 4 5 4 10
0 6 -5 10 -11 10 -5 0 -7 -4 -4 -10z M1030 5650 c-23 -23 -28 -80 -6 -80 19 0
32 19 39 57 8 40 -6 50 -33 23z M465 5540 c-3 -5 12 -14 34 -20 46 -12 130
-99 158 -162 9 -21 20 -38 24 -38 34 0 1 71 -70 151 -54 62 -129 97 -146 69z
M4590 4664 c0 -8 5 -12 10 -9 6 4 8 11 5 16 -9 14 -15 11 -15 -7z M50 4046 c0
-26 33 -56 62 -56 42 0 35 -64 -8 -68 -31 -2 -54 -19 -54 -38 0 -22 17 -25 41
-5 17 14 29 16 41 10 10 -6 19 -5 23 1 3 5 3 10 -1 10 -4 0 0 6 9 13 35 25
-11 117 -59 117 -7 0 -18 9 -24 20 -15 27 -30 25 -30 -4z M4672 3564 c-19 -10
-50 -37 -70 -60 -19 -24 -39 -41 -43 -38 -14 8 -73 -23 -102 -54 -20 -21 -28
-38 -25 -58 4 -40 25 -41 42 0 20 49 60 73 96 59 32 -12 50 -1 50 28 0 10 21
35 47 56 46 38 47 38 126 35 59 -1 89 -7 114 -22 43 -25 43 -25 43 8 0 36 -34
49 -155 57 -74 5 -96 3 -123 -11z M4570 1395 c0 -8 8 -15 17 -15 9 0 27 -10
39 -21 14 -13 30 -19 39 -15 24 9 9 25 -42 47 -54 23 -53 23 -53 4z M52 1045
c0 -16 2 -22 5 -12 2 9 2 23 0 30 -3 6 -5 -1 -5 -18z M4810 950 c-13 -9 -12
-12 4 -25 11 -8 25 -15 30 -15 22 0 39 18 33 34 -7 18 -44 21 -67 6z M63 583
c-8 -3 -13 -22 -13 -45 l0 -39 26 20 c27 21 88 28 109 13 57 -39 73 -144 31
-196 -21 -26 -28 -28 -77 -24 -30 2 -62 8 -72 12 -15 7 -17 3 -17 -32 0 -23 3
-43 8 -45 4 -3 61 -8 127 -11 97 -6 118 -5 108 5 -19 19 -16 38 10 68 71 85
54 229 -32 263 -27 10 -186 19 -208 11z M373 572 c-15 -10 -4 -29 20 -33 16
-4 19 -17 22 -110 3 -84 8 -116 24 -148 12 -22 22 -41 24 -41 1 -1 34 -3 74
-6 55 -4 80 -2 104 10 29 14 34 14 49 1 20 -18 115 -21 126 -4 9 15 -14 29
-48 29 -15 0 -29 4 -32 8 -3 5 -7 63 -10 130 -6 115 -5 121 15 127 52 17 -24
50 -88 39 -38 -7 -43 -25 -10 -39 19 -9 23 -21 31 -98 8 -81 7 -91 -11 -115
-37 -50 -104 -55 -132 -10 -17 27 -41 139 -41 190 0 27 5 40 20 48 11 6 18 15
15 21 -7 11 -135 12 -152 1z M930 571 l-65 -6 -3 -167 -2 -168 103 0 c102 0
104 1 115 25 17 37 15 55 -5 55 -23 0 -38 -11 -46 -32 -5 -13 -17 -18 -47 -18
l-40 0 0 70 c0 63 2 70 19 70 11 0 22 -9 26 -19 6 -21 31 -34 46 -25 12 7 11
65 -1 84 -7 12 -15 13 -40 3 -35 -13 -43 -4 -42 45 0 49 2 52 32 52 24 0 30
-4 30 -22 0 -33 14 -51 36 -46 14 2 20 13 22 46 3 38 0 43 -23 52 -14 6 -32 9
-38 8 -7 -1 -41 -4 -77 -7z M1159 560 c-5 -3 -8 -79 -8 -168 l1 -162 97 0 c97
0 97 0 120 31 14 19 20 34 14 40 -13 13 -58 -5 -66 -25 -4 -10 -19 -16 -42
-16 -32 0 -35 3 -35 28 0 15 -1 43 -3 62 -2 40 26 56 36 20 6 -23 16 -25 40
-7 26 19 13 77 -18 77 -13 0 -26 -7 -29 -16 -11 -30 -24 -3 -23 47 2 44 5 53
25 60 20 8 25 4 38 -27 11 -25 20 -34 30 -30 9 3 18 6 20 6 11 0 2 71 -10 76
-18 7 -176 10 -187 4z M1465 562 c-33 -1 -66 -5 -74 -7 -23 -9 8 -35 41 -35
l29 0 -4 -131 c-3 -72 -7 -132 -9 -133 -1 -2 -12 -8 -23 -14 -16 -9 -7 -11 50
-11 61 0 68 1 52 13 -15 11 -17 28 -16 110 1 53 6 96 10 96 5 0 14 -10 21 -23
7 -13 42 -63 78 -111 l65 -87 50 3 50 3 -2 50 c-1 28 -5 87 -8 133 l-8 82 32
11 c24 9 31 16 29 32 -3 20 -9 21 -77 20 -82 -2 -111 -16 -68 -32 15 -6 27
-18 28 -28 0 -10 2 -40 5 -67 5 -70 -9 -89 -31 -45 -10 19 -29 48 -41 65 -27
34 -31 54 -11 54 8 0 8 3 -2 9 -8 5 -20 7 -27 4 -7 -2 -17 4 -23 15 -12 23
-35 28 -116 24z M2555 561 c-79 -20 -114 -73 -92 -139 18 -55 68 -77 145 -64
31 6 61 7 65 3 5 -5 7 -30 5 -57 l-3 -49 -56 0 c-47 0 -61 5 -96 33 -23 17
-47 32 -55 32 -20 0 -44 -29 -52 -62 l-6 -28 174 0 c169 0 175 1 190 22 29 42
20 83 -28 134 l-45 46 -61 -4 c-66 -5 -84 5 -78 43 2 16 13 25 37 32 30 7 37
5 51 -13 25 -33 54 -23 58 19 2 18 0 37 -5 42 -12 12 -113 19 -148 10z M2983
563 c-20 -8 -15 -20 11 -27 13 -3 34 -23 46 -43 l22 -37 -27 -53 c-14 -29 -28
-53 -30 -53 -9 0 -68 159 -67 183 l1 27 -74 0 c-78 0 -130 -13 -120 -30 3 -5
22 -10 40 -10 32 0 36 -4 57 -52 12 -29 43 -93 68 -143 44 -88 46 -90 83 -93
34 -3 38 -1 33 16 -7 22 62 154 76 146 5 -3 22 -34 38 -68 36 -76 59 -99 96
-94 23 2 30 10 37 38 20 76 101 252 124 267 36 24 19 32 -60 30 -73 -2 -100
-19 -39 -25 18 -2 32 -7 30 -12 -17 -44 -85 -179 -90 -180 -4 0 -26 31 -48 69
-46 77 -46 104 -4 123 13 6 24 14 24 19 0 7 -207 10 -227 2z M3767 561 c-20
-4 -40 -11 -43 -14 -11 -10 5 -24 35 -30 28 -6 29 -9 33 -66 1 -33 1 -90 0
-126 -3 -59 -6 -67 -28 -75 -39 -15 -28 -20 46 -20 l70 0 0 76 c0 64 2 75 16
72 9 -2 28 -25 43 -53 53 -100 47 -95 131 -94 41 1 66 4 55 6 -35 9 -79 49
-102 93 -13 23 -23 46 -23 50 0 5 10 12 23 15 65 20 88 90 44 140 -21 26 -27
27 -142 30 -66 2 -137 0 -158 -4z m213 -86 c0 -51 -13 -62 -57 -48 -20 7 -29
17 -31 37 -5 43 3 53 47 54 l41 2 0 -45z M3467 550 c-37 -11 -64 -45 -82 -104
-21 -69 -19 -103 9 -151 19 -31 34 -44 64 -53 56 -17 167 -15 202 3 46 24 112
126 90 140 -6 4 -10 17 -10 31 0 31 -31 93 -60 119 -18 16 -37 20 -104 21 -44
1 -93 -2 -109 -6z m91 -29 c9 -5 31 -14 48 -21 27 -10 32 -18 41 -65 7 -41 6
-62 -4 -87 -8 -17 -12 -37 -9 -44 6 -15 -15 -24 -58 -24 -72 0 -115 111 -80
205 16 44 31 52 62 36z M4142 551 c-14 -8 -1 -26 18 -26 12 0 16 -21 18 -119
1 -66 -2 -132 -7 -148 l-10 -28 122 0 c114 0 125 2 159 25 62 42 82 160 38
229 -33 54 -76 69 -211 71 -64 1 -122 -1 -127 -4z m243 -67 c8 -10 18 -30 21
-42 10 -34 -2 -135 -17 -161 -15 -23 -59 -39 -100 -37 -24 1 -24 2 -27 125 -1
69 -1 130 2 136 7 19 103 2 121 -21z M4625 544 c-77 -27 -105 -86 -65 -137 23
-29 59 -39 145 -41 l60 -1 1 -35 c2 -84 -34 -103 -96 -50 -46 40 -76 38 -135
-7 l-48 -38 168 -3 c188 -3 199 0 211 65 9 46 -17 100 -53 114 -16 6 -50 9
-77 6 -77 -7 -86 -2 -86 49 l0 44 43 0 c30 0 52 -7 67 -20 36 -31 56 -26 63
17 8 46 -4 60 -37 45 -17 -7 -35 -8 -58 -1 -42 12 -54 11 -103 -7z M2160 508
c-63 -17 -69 -48 -25 -118 13 -19 39 -52 59 -73 20 -21 39 -49 42 -63 5 -19
13 -24 40 -24 32 0 33 1 22 30 -5 17 -14 33 -19 36 -22 13 -8 30 21 26 43 -6
40 28 -5 63 -38 28 -71 30 -69 2 3 -30 -12 -18 -40 33 -15 28 -26 50 -24 50 2
0 18 -4 36 -9 26 -8 34 -7 41 7 12 22 -4 52 -27 51 -9 0 -33 -5 -52 -11z
M2030 379 c-60 -24 -74 -63 -45 -119 15 -29 18 -30 90 -30 87 0 101 12 84 73
-18 68 -72 99 -129 76z m70 -69 c11 -27 11 -34 -4 -48 -15 -15 -18 -15 -42 10
-29 28 -27 64 4 71 24 5 28 2 42 -33z M4908 263 c-31 -8 -21 -33 12 -33 23 0
30 4 30 20 0 20 -8 22 -42 13z"/>
</g>
</svg>
