<?xml version="1.0" standalone="no"?>
<!DOCTYPE svg PUBLIC "-//W3C//DTD SVG 20010904//EN"
 "http://www.w3.org/TR/2001/REC-SVG-20010904/DTD/svg10.dtd">
<svg version="1.0" xmlns="http://www.w3.org/2000/svg"
 width="500.000000pt" height="878.000000pt" viewBox="0 0 500.000000 878.000000"
 preserveAspectRatio="xMidYMid meet">
<metadata>
Created by potrace 1.16, written by Peter Selinger 2001-2019
</metadata>
<g transform="translate(0.000000,878.000000) scale(0.100000,-0.100000)"
fill="#000000" stroke="none">
<path d="M1606 8629 c-51 -68 -55 -79 -26 -79 12 0 24 10 30 24 5 13 18 27 30
31 11 3 18 11 15 16 -3 5 1 6 10 3 20 -8 41 -49 50 -97 8 -40 16 -45 35 -21
23 26 -12 114 -59 152 l-40 32 -45 -61z M2007 8604 c-4 -4 -38 -8 -76 -10 -82
-3 -119 -21 -152 -75 -13 -21 -31 -39 -39 -39 -8 -1 -22 -3 -32 -5 -9 -2 -18
5 -21 16 -7 28 -36 23 -43 -7 -5 -18 -1 -29 12 -39 18 -14 18 -14 -2 -15 -29
0 -42 18 -46 64 -3 45 -21 57 -38 26 -9 -16 -9 -34 0 -71 12 -51 19 -55 76
-50 11 0 30 -10 43 -23 18 -20 21 -30 15 -61 -4 -25 -13 -39 -26 -43 -10 -2
-25 -17 -33 -33 -20 -38 -49 -45 -77 -20 -26 25 -37 26 -82 4 -39 -18 -46 -29
-57 -93 -4 -25 -12 -63 -18 -85 -15 -58 -2 -67 79 -55 92 13 126 33 154 89 23
44 23 49 9 73 -15 24 -15 28 8 59 21 29 24 31 27 14 2 -11 26 -53 53 -92 47
-71 48 -73 36 -110 -20 -63 -9 -145 29 -200 12 -19 25 -53 28 -76 3 -23 10
-89 17 -147 9 -70 12 -225 10 -465 -1 -198 -3 -469 -4 -602 -1 -182 -4 -239
-13 -232 -8 6 -21 5 -39 -3 -30 -13 -45 -1 -45 39 0 20 -23 75 -56 135 -8 14
-31 40 -51 58 -26 23 -37 42 -39 66 -2 24 1 34 11 34 8 0 15 4 15 8 0 4 15 13
34 20 23 9 40 25 57 56 l23 43 -20 69 c-12 43 -25 70 -35 72 -9 1 -39 -20 -69
-48 -29 -27 -56 -50 -59 -50 -4 0 -17 -17 -29 -39 -28 -49 -29 -102 -3 -125
11 -10 17 -24 14 -31 -2 -8 5 -20 16 -27 12 -7 21 -16 21 -20 0 -13 -35 -9
-56 7 -10 8 -33 15 -49 15 -20 0 -36 8 -45 22 -8 11 -28 36 -43 54 -15 18 -27
39 -26 46 7 53 -27 93 -71 83 -16 -3 -44 -7 -62 -7 -41 0 -76 -22 -88 -52 -6
-16 -21 -27 -47 -33 -31 -7 -39 -14 -41 -35 -4 -34 56 -82 122 -96 46 -10 54
-8 107 18 31 16 59 35 62 42 3 9 7 8 12 -5 5 -12 -4 -30 -29 -61 -40 -50 -43
-68 -20 -126 11 -27 22 -40 35 -40 28 0 33 24 15 61 -21 43 -20 72 4 94 18 16
20 16 20 2 0 -10 5 -17 11 -17 5 0 7 -5 3 -12 -5 -8 3 -9 29 -5 41 6 48 -5 36
-59 -8 -37 -80 -108 -92 -91 -9 14 -40 -21 -34 -38 16 -42 148 61 174 135 15
44 21 49 53 53 30 4 39 0 68 -32 52 -56 65 -89 66 -162 1 -51 6 -72 20 -88 10
-11 23 -19 30 -18 6 1 12 -14 14 -33 2 -23 12 -42 30 -56 32 -26 30 -10 36
-444 17 -1170 17 -1262 7 -1256 -5 4 -35 -7 -64 -24 -30 -17 -91 -44 -137 -60
-173 -64 -180 -72 -188 -253 l-7 -131 -55 -28 c-30 -15 -59 -29 -63 -30 -4 -2
-14 -37 -22 -78 -7 -41 -18 -90 -24 -109 -18 -59 -4 -104 50 -157 l48 -47 -39
-39 c-27 -27 -42 -53 -50 -90 -14 -55 -8 -165 10 -198 13 -23 82 -70 105 -70
19 0 19 -10 0 -46 -9 -17 -15 -56 -15 -91 0 -58 3 -66 35 -102 29 -32 53 -44
142 -75 156 -53 164 -55 216 -62 l47 -7 -5 -156 c-3 -86 -7 -168 -9 -184 -2
-15 1 -82 6 -150 5 -67 12 -184 17 -261 7 -129 9 -140 31 -156 29 -22 90 -33
135 -24 38 7 105 66 106 92 0 9 2 44 4 77 2 33 6 114 10 180 4 66 8 140 10
165 1 25 4 114 5 198 1 84 4 161 7 171 4 17 18 19 203 20 154 1 215 5 276 19
76 18 344 31 344 17 0 -3 -13 -23 -29 -43 -16 -20 -32 -47 -36 -59 -4 -16 -14
-23 -31 -23 -14 0 -41 -7 -62 -16 -20 -9 -57 -22 -82 -30 -132 -41 -252 -271
-236 -448 15 -154 64 -263 158 -353 62 -58 105 -82 202 -112 80 -25 157 -27
216 -6 52 18 50 18 50 0 0 -9 11 -21 25 -27 14 -6 25 -15 25 -19 0 -13 55 -26
78 -18 12 5 22 5 22 1 0 -4 18 -7 40 -7 22 0 40 2 40 6 0 3 23 16 51 28 65 30
134 102 151 158 11 37 20 47 63 69 64 33 81 49 112 102 22 37 25 51 20 103
l-5 60 51 24 c118 55 236 199 237 289 0 43 13 48 64 25 64 -28 185 -40 239
-23 14 4 17 -1 17 -35 0 -22 -5 -52 -10 -66 -9 -23 -13 -25 -26 -14 -14 11
-19 9 -36 -14 -49 -67 -147 -107 -264 -108 -74 -1 -90 -13 -42 -33 51 -21 163
2 253 53 64 37 75 28 12 -11 -55 -34 -119 -55 -195 -64 -55 -6 -66 -4 -105 20
-37 21 -47 23 -56 12 -8 -10 -7 -17 7 -28 33 -29 77 -39 147 -34 137 8 250 69
321 171 31 45 39 67 42 115 4 56 6 59 34 65 49 11 197 91 275 150 78 59 118
111 151 198 40 103 57 198 57 312 0 100 -3 117 -30 180 -16 39 -42 92 -57 118
-15 26 -28 51 -28 55 0 12 -92 96 -126 114 -17 10 -49 20 -72 24 l-40 6 0 67
c0 58 -5 75 -39 135 -110 201 -296 293 -470 233 -53 -18 -133 -65 -133 -78 0
-17 32 -23 41 -7 5 8 32 26 61 39 79 34 184 33 260 -4 65 -32 140 -101 168
-156 11 -22 27 -47 37 -57 15 -15 18 -35 18 -123 0 -90 -4 -116 -25 -169 -45
-114 -144 -186 -264 -191 -51 -2 -58 0 -52 14 4 11 -3 26 -21 44 -16 15 -33
35 -39 46 -15 27 -37 10 -30 -24 5 -19 4 -22 -4 -11 -15 22 -12 61 6 81 17 19
12 39 -10 39 -22 0 -59 -49 -59 -79 0 -37 35 -86 85 -118 42 -26 110 -32 183
-17 114 23 261 151 239 209 -4 9 0 15 9 15 16 0 27 20 27 50 0 32 18 32 84 1
71 -34 115 -82 161 -173 27 -53 28 -59 13 -70 -15 -12 -15 -21 -5 -83 13 -76
36 -95 49 -40 6 28 4 -63 -7 -212 -5 -77 -59 -190 -147 -307 -92 -121 -312
-222 -463 -212 -37 2 -69 7 -72 10 -4 3 -13 6 -20 6 -8 0 -29 11 -47 25 -18
14 -38 25 -44 25 -7 0 -12 9 -12 20 0 26 -55 147 -78 174 -30 33 -105 76 -135
76 l-29 0 46 52 c43 49 67 102 80 175 4 24 -1 40 -24 72 -18 24 -38 41 -50 41
-26 0 -25 -6 5 -42 33 -40 32 -87 -4 -164 -31 -66 -62 -96 -118 -115 -105 -34
-285 50 -334 158 -37 82 -47 215 -20 285 29 76 141 218 172 218 19 0 169 157
184 193 21 52 7 110 -39 156 -31 30 -43 36 -80 36 -36 0 -49 -6 -74 -32 -39
-40 -33 -80 18 -105 30 -15 36 -15 62 -2 15 8 28 21 28 29 0 18 -21 20 -37 4
-16 -16 -39 -5 -46 21 -4 17 1 24 25 34 39 17 63 11 88 -22 45 -57 16 -156
-58 -198 -40 -22 -55 -25 -104 -21 -67 6 -118 34 -147 80 -15 25 -19 47 -17
100 2 52 -1 67 -11 63 -55 -22 68 124 135 158 18 9 32 23 32 31 0 11 13 14 53
14 29 -1 70 4 92 10 97 25 195 -20 232 -106 18 -44 50 -43 45 2 -6 46 -46 91
-109 120 l-57 27 30 15 c108 56 167 192 128 295 -45 116 -184 181 -272 128
-95 -58 -114 -114 -61 -175 25 -28 38 -35 68 -35 20 0 47 7 60 16 30 22 14 38
-24 24 -56 -21 -104 44 -74 99 8 14 35 34 61 45 46 19 48 19 88 1 22 -10 40
-22 40 -27 0 -5 -5 -6 -11 -3 -14 9 -59 -3 -59 -15 0 -6 10 -10 23 -10 12 0
39 -11 58 -24 39 -27 58 -66 32 -66 -11 0 -13 -6 -8 -22 28 -91 22 -148 -15
-148 -11 0 -26 -12 -34 -29 -17 -33 -55 -53 -145 -76 -55 -14 -72 -15 -110 -4
-78 21 -136 55 -194 115 -102 104 -135 243 -94 389 32 115 66 169 107 170 17
0 56 43 81 92 6 11 22 23 35 26 29 5 30 2 4 -25 -23 -25 -25 -38 -7 -38 14 0
63 60 60 72 -2 4 5 7 15 7 9 -1 43 7 75 16 47 13 69 14 114 5 31 -5 72 -10 91
-10 51 0 176 -66 230 -122 55 -56 77 -62 67 -18 l-6 29 53 -15 c29 -9 65 -22
79 -30 38 -19 124 -119 149 -171 23 -49 40 -157 19 -115 -17 32 -45 24 -42
-13 6 -79 -47 -203 -110 -257 -38 -32 -28 -50 14 -26 16 9 29 13 29 9 0 -8
-24 -19 -72 -35 -10 -3 -18 -9 -18 -15 0 -20 43 -18 90 6 49 24 94 73 132 143
16 28 21 31 50 25 45 -9 137 -73 159 -110 23 -36 24 -59 2 -28 -16 24 -38 30
-47 14 -4 -5 5 -22 18 -38 13 -15 25 -37 28 -48 2 -13 11 -19 25 -18 17 2 22
-5 27 -35 10 -61 8 -71 -13 -65 -15 4 -19 -3 -25 -46 -9 -71 -33 -131 -62
-162 -17 -18 -22 -29 -14 -34 8 -5 6 -13 -6 -26 -22 -24 -11 -35 23 -23 38 13
111 111 130 175 44 146 5 322 -90 401 -56 47 -119 78 -157 78 -28 0 -30 2 -23
28 3 15 7 47 7 72 -1 118 -36 193 -141 292 -49 46 -72 60 -131 78 -49 15 -76
19 -88 12 -13 -7 -24 -3 -48 20 -50 47 -157 87 -274 103 -59 8 -111 20 -120
28 -9 8 -39 22 -67 31 -58 20 -115 44 -133 59 -10 8 -10 12 -1 17 8 6 4 24
-16 65 -26 53 -28 61 -19 117 6 36 7 61 1 65 -14 9 -26 -17 -33 -70 -9 -65
-24 -41 -24 38 0 43 3 56 10 45 16 -24 30 6 30 63 0 36 7 57 30 88 32 44 31
72 -1 43 -19 -17 -19 -17 -12 3 4 12 25 40 46 63 20 23 34 47 30 53 -4 6 -1 8
8 5 8 -3 32 3 54 13 21 10 54 19 72 19 22 0 33 5 33 15 0 11 14 14 63 13 36 0
72 5 83 12 29 18 98 0 181 -47 112 -62 166 -138 178 -250 6 -45 3 -74 -9 -109
-30 -89 -75 -124 -157 -124 -67 0 -93 21 -92 75 1 34 -10 43 -33 27 -32 -22
-14 -100 29 -124 33 -17 136 -10 181 13 63 33 92 33 186 3 12 -4 9 -10 -10
-24 -17 -13 -20 -20 -10 -20 8 0 44 -14 79 -30 58 -28 62 -32 46 -44 -18 -13
-18 -14 4 -26 54 -28 95 -187 67 -255 -20 -46 -20 -45 3 -45 28 0 54 62 49
120 -1 26 0 46 5 43 4 -2 7 -37 7 -76 0 -80 -21 -137 -63 -176 -15 -13 -24
-28 -21 -32 7 -12 36 1 70 33 l31 29 37 -42 c42 -49 43 -55 16 -62 -20 -5 -20
-5 1 -42 18 -30 21 -46 16 -95 -4 -44 -1 -62 9 -71 13 -11 13 -24 -3 -66 -3
-8 3 -13 15 -13 29 0 64 96 64 177 1 76 -37 156 -99 214 l-42 39 11 56 c13 67
1 141 -37 228 -49 111 -170 207 -284 227 l-60 11 22 42 c17 33 21 56 20 116
-2 86 -18 133 -73 206 -45 59 -155 129 -230 145 l-46 10 9 47 c18 88 -26 188
-100 226 -18 9 -33 23 -33 32 0 8 -5 12 -10 9 -6 -3 -13 2 -16 12 -35 108
-146 183 -269 183 -90 0 -218 -41 -285 -92 -14 -10 -48 -36 -76 -58 -122 -92
-181 -213 -191 -390 -10 -190 29 -337 122 -459 43 -57 126 -131 146 -131 14 0
10 -19 -10 -48 -50 -70 40 -234 133 -244 45 -5 42 19 -6 40 -44 20 -94 82 -65
82 10 0 13 14 11 58 -1 31 -3 59 -4 62 0 3 -10 -6 -20 -19 -23 -27 -28 -6 -7
23 11 15 22 17 53 12 21 -3 56 -9 77 -12 27 -4 52 -20 91 -57 46 -46 78 -64
161 -92 19 -6 19 -7 1 -20 -13 -10 -25 -11 -43 -4 -44 17 -174 -61 -245 -147
-82 -99 -124 -226 -116 -351 9 -135 106 -281 230 -344 l40 -20 -39 -22 c-87
-48 -116 -86 -133 -174 -20 -103 13 -202 90 -267 18 -15 29 -30 26 -34 -4 -3
-67 -8 -140 -10 -98 -3 -148 0 -193 11 -87 23 -159 70 -185 121 -11 22 -51 73
-87 111 -70 73 -117 131 -165 203 -16 23 -32 42 -36 42 -17 0 -18 -30 -1 -52
10 -13 20 -31 24 -40 3 -10 11 -18 17 -18 5 0 10 -4 10 -9 0 -20 61 -98 124
-159 70 -68 101 -122 112 -192 7 -49 21 -73 36 -64 5 3 9 18 8 32 -3 42 -2 43
38 26 20 -8 48 -18 61 -20 14 -3 29 -8 34 -11 5 -3 100 -5 211 -4 143 1 207 6
221 15 11 7 31 10 44 6 23 -5 21 -8 -27 -39 -69 -44 -99 -80 -151 -182 -40
-80 -44 -93 -44 -165 -2 -123 41 -227 119 -289 78 -62 180 -100 242 -90 l37 7
-30 -17 c-60 -33 -95 -81 -95 -129 0 -52 103 -121 157 -107 59 16 83 76 42
105 -24 16 -57 10 -40 -7 6 -6 11 -21 11 -34 0 -30 -27 -30 -71 0 -29 20 -34
29 -33 61 2 53 31 81 69 66 34 -13 55 1 36 24 -11 13 -8 16 14 22 33 8 83 -17
129 -66 33 -34 85 -154 73 -167 -4 -3 -10 3 -13 13 -15 42 -46 74 -70 74 -28
0 -32 -15 -6 -29 10 -5 26 -35 36 -66 15 -48 21 -56 38 -52 18 5 19 2 13 -31
-12 -67 -54 -137 -115 -196 -33 -32 -60 -55 -60 -52 0 4 -10 1 -22 -5 -31 -16
-88 -29 -88 -19 0 4 12 11 27 15 43 10 149 91 188 142 34 45 44 76 26 87 -9 6
-39 -24 -32 -31 2 -3 -10 -24 -27 -48 -34 -49 -137 -120 -195 -136 -24 -6 -41
-18 -44 -29 -3 -11 -11 -16 -23 -13 -12 3 -20 -2 -25 -17 -7 -21 -11 -22 -68
-16 -97 10 -220 61 -281 117 -70 64 -142 209 -104 209 8 0 20 12 27 27 10 21
9 29 -3 41 -18 18 -48 8 -44 -15 3 -17 -42 -48 -52 -35 -3 4 -21 14 -41 24
-45 20 -69 68 -69 137 0 45 5 56 37 91 51 57 81 53 100 -13 19 -67 79 -124
166 -160 77 -31 104 -33 173 -12 92 27 151 127 108 181 -15 18 -15 18 -10 -1
8 -28 -51 -116 -89 -134 -34 -16 -119 -18 -138 -4 -6 6 -25 13 -40 17 -16 4
-51 29 -78 56 -56 56 -64 95 -28 129 30 28 16 40 -39 36 -26 -3 -113 -7 -194
-9 -123 -4 -148 -3 -148 9 0 28 -23 27 -89 -4 -80 -37 -154 -46 -371 -46
l-155 0 -3 31 c-2 23 4 40 23 60 46 49 45 103 -1 149 -14 14 -28 25 -32 25
-13 0 -8 -46 6 -63 16 -19 12 -79 -6 -85 -7 -2 -10 2 -6 12 3 8 1 31 -6 50 -9
27 -17 35 -45 40 -45 9 -119 -11 -143 -37 -23 -26 -38 -92 -22 -102 17 -11 40
15 40 46 0 36 32 59 83 59 40 0 42 -3 50 -60 l5 -36 -81 -23 c-45 -12 -99 -24
-120 -26 -21 -2 -49 -6 -62 -9 -26 -7 -95 8 -200 43 -170 57 -190 73 -200 166
-7 69 2 100 34 110 11 3 28 2 38 -3 80 -42 187 -83 203 -79 11 3 20 2 20 -1 0
-4 14 -13 32 -21 25 -11 50 -12 122 -5 50 5 118 7 150 3 61 -7 75 -2 89 34 4
9 20 20 37 24 58 11 92 92 55 133 -19 21 -11 45 11 36 8 -3 23 3 34 14 16 16
20 34 20 81 0 50 3 60 15 56 27 -11 25 10 -6 67 -38 70 -56 146 -64 262 -15
234 -16 236 -78 359 -33 65 -57 141 -77 239 -8 38 2 188 15 252 4 19 27 52 56
80 44 44 50 47 74 36 33 -15 32 -28 -3 -35 -15 -3 -40 -17 -55 -31 -25 -23
-27 -31 -27 -103 1 -105 11 -119 91 -116 33 1 66 6 73 12 11 9 16 1 25 -36 11
-44 62 -144 94 -185 8 -10 20 -18 28 -18 8 0 22 -19 32 -41 27 -57 84 -116 99
-101 9 9 0 29 -36 82 -51 74 -80 100 -89 77 -3 -6 -6 -2 -6 10 -1 20 -21 58
-79 153 -9 14 -16 39 -17 55 -2 46 -15 127 -25 155 -5 14 -11 42 -15 64 -9 52
-47 86 -97 86 -22 0 -37 4 -34 9 3 5 8 48 10 97 2 49 7 159 11 244 4 85 12
160 17 167 5 6 10 36 12 66 2 40 15 80 44 142 23 48 42 95 42 104 0 31 22 81
35 81 25 0 35 66 13 88 -15 15 13 43 58 59 41 14 55 4 52 -37 -4 -40 15 -52
107 -71 33 -7 64 -16 70 -21 20 -17 33 -6 40 35 19 113 20 104 -23 147 -50 51
-98 55 -140 13 -20 -21 -37 -28 -64 -28 -21 0 -37 2 -35 5 1 3 9 19 17 35 8
17 23 36 32 43 10 7 18 26 18 43 0 19 5 29 15 29 22 0 18 21 -10 53 -28 32
-32 32 -57 10 -17 -15 -18 -14 -18 35 0 40 5 57 26 81 14 17 30 28 36 25 23
-14 50 -96 43 -130 -5 -29 -3 -34 13 -34 20 0 42 37 42 71 0 35 -63 139 -83
139 -23 0 -95 -72 -112 -112 -10 -23 -20 -45 -21 -47 -2 -2 -15 6 -30 18 -30
24 -54 14 -54 -21 0 -11 -9 -33 -21 -49 -32 -45 -2 -105 69 -134 27 -12 32
-19 32 -48 0 -30 -5 -35 -47 -55 -27 -12 -58 -29 -69 -37 -21 -16 -21 -15 -29
67 -10 117 -7 693 5 796 5 48 12 152 15 232 8 229 16 408 21 491 2 42 0 118
-5 168 -8 70 -7 102 4 136 10 36 11 45 0 45 -7 0 -18 -7 -25 -15 -7 -9 -21
-13 -31 -10 -23 7 -59 -3 -59 -16 0 -5 14 -9 31 -9 28 0 30 -2 27 -32 -3 -30
-6 -32 -42 -32 -56 -1 -57 -22 -1 -30 36 -6 45 -11 45 -27 0 -22 0 -22 -34 -9
-28 10 -81 -3 -72 -19 3 -5 31 -12 61 -16 50 -6 55 -9 55 -32 0 -24 -1 -25
-24 -10 -29 19 -81 17 -81 -3 0 -15 69 -34 92 -26 10 4 13 -10 13 -57 l0 -62
-94 3 c-87 2 -97 1 -115 -20 -26 -28 -20 -33 20 -19 18 6 42 11 55 11 24 0 74
-52 74 -77 0 -11 7 -14 25 -11 25 5 25 4 26 -61 1 -90 -2 -164 -7 -173 -2 -3
-17 -3 -34 2 -21 6 -32 4 -41 -7 -17 -20 2 -31 43 -27 l31 4 -6 -130 c-3 -71
-8 -134 -12 -140 -3 -5 -19 -10 -34 -10 -15 0 -31 -3 -34 -7 -11 -11 14 -33
39 -33 l23 0 0 -430 c-1 -409 -1 -430 -19 -430 -21 0 -35 -27 -17 -33 11 -3
-20 -35 -72 -74 -12 -9 -13 -15 -5 -23 9 -9 18 -8 38 5 33 22 34 5 1 -23 -24
-21 -32 -51 -18 -65 8 -9 43 22 43 37 0 11 45 34 79 42 17 3 30 23 31 44 0 8
7 26 14 39 19 34 29 10 12 -30 -7 -19 -11 -40 -9 -47 3 -8 -9 -31 -27 -53 -30
-37 -31 -42 -16 -58 20 -22 21 -35 2 -28 -25 10 -38 -17 -25 -47 11 -22 10
-29 -4 -43 -16 -16 -18 -16 -32 2 -8 11 -15 28 -15 37 0 9 -5 20 -12 24 -13 8
-40 -24 -32 -38 4 -5 -4 -19 -15 -30 -15 -14 -20 -26 -15 -41 10 -34 23 -46
65 -59 43 -12 53 -38 15 -38 -13 0 -32 -3 -40 -6 -23 -9 -1 -34 30 -34 22 0
24 -4 22 -45 l-1 -45 -39 0 c-49 0 -48 -25 0 -26 18 0 32 -3 32 -7 0 -54 0
-54 -42 -63 -52 -11 -63 -34 -16 -34 19 0 39 5 46 12 9 9 12 5 12 -17 0 -22
-3 -26 -9 -16 -7 11 -18 12 -52 5 -67 -14 -64 -36 5 -30 50 4 56 2 56 -14 0
-15 -6 -18 -27 -16 -33 4 -73 -9 -73 -24 0 -5 7 -10 15 -10 9 0 12 -6 9 -15
-6 -16 2 -18 50 -15 l29 2 -5 -56 c-4 -43 -11 -63 -30 -84 -34 -35 -79 -117
-84 -151 -7 -52 -5 -177 4 -206 5 -16 7 -35 5 -42 -2 -7 0 -20 6 -31 5 -10 13
-40 17 -67 5 -42 4 -47 -11 -41 -9 3 -19 6 -21 6 -3 0 -8 11 -13 23 -9 22 -14
23 -65 19 -46 -4 -56 -2 -56 11 0 11 9 15 29 15 15 -1 33 2 40 6 20 13 1 26
-35 26 -24 0 -34 4 -31 13 4 11 9 13 50 16 9 0 17 8 17 16 0 10 -11 15 -35 15
-26 0 -35 4 -35 16 0 13 7 15 35 10 30 -6 35 -4 35 13 0 13 -11 24 -34 32 -41
15 -37 32 5 25 38 -6 48 12 18 34 l-23 18 25 4 c37 5 29 30 -16 44 -42 12 -39
17 8 14 18 -1 27 3 27 14 0 18 -30 36 -59 36 -33 0 -25 27 12 40 30 11 31 12
13 25 -17 13 -17 15 -3 21 26 10 20 34 -8 34 -34 0 -33 28 2 32 38 4 41 27 4
34 -42 9 -44 42 -2 36 31 -4 50 13 32 31 -5 5 -23 10 -39 10 -23 0 -28 4 -25
18 3 9 13 19 24 22 25 7 24 27 -1 34 -27 7 -26 31 2 35 31 4 34 26 4 34 -14 3
-26 11 -26 16 0 6 6 8 13 5 8 -3 20 -1 28 4 11 6 11 11 2 20 -10 10 -9 15 4
25 15 10 15 14 4 28 -7 9 -22 16 -32 16 -18 0 -18 1 1 36 21 36 19 54 -4 54
-8 0 -19 7 -26 15 -11 13 -8 15 19 15 38 0 43 27 6 36 -36 9 -36 48 0 42 14
-3 28 -1 32 5 7 12 -35 49 -48 41 -5 -3 -9 7 -9 23 0 15 4 23 8 17 10 -17 49
-26 57 -15 9 15 -23 71 -40 71 -20 0 -19 6 5 30 27 27 25 38 -5 46 -14 3 -25
11 -26 18 -10 115 -12 107 18 104 35 -4 38 22 5 37 -29 13 -24 40 8 40 39 0
32 29 -8 33 -38 4 -39 28 -1 25 44 -3 54 5 34 27 -11 13 -25 18 -37 14 -10 -3
-18 -1 -18 5 0 6 0 14 0 19 -1 4 14 9 32 12 49 7 45 36 -4 32 -34 -3 -38 0
-38 21 0 19 5 23 33 22 45 0 44 29 -1 33 -42 4 -41 34 3 42 35 6 36 24 1 28
-35 4 -44 38 -17 63 11 11 28 33 36 49 14 27 14 31 1 36 -8 3 -20 2 -27 -2 -9
-5 -10 -1 -6 15 7 27 -16 39 -39 20 -14 -11 -20 -9 -41 15 -21 24 -23 35 -18
70 9 49 12 53 27 38 22 -22 55 -13 82 22 30 40 32 52 11 60 -25 9 -18 36 10
36 36 0 32 29 -5 37 -40 8 -39 31 3 35 40 4 39 20 -2 33 -39 12 -41 35 -3 35
16 0 32 3 35 7 12 11 -14 33 -39 33 -19 0 -24 5 -24 24 0 22 3 24 41 19 33 -5
41 -3 37 8 -2 8 -20 19 -38 25 -19 6 -36 16 -38 22 -4 14 33 25 57 17 27 -8
38 15 15 32 -12 8 -30 11 -47 7 -22 -5 -28 -3 -25 7 3 8 22 15 44 17 76 6 67
42 -11 42 -30 0 -36 3 -27 12 7 7 27 11 46 10 42 -3 52 10 26 33 -15 13 -17
21 -9 31 16 20 1 34 -37 34 -26 0 -34 4 -34 18 0 15 6 17 35 14 27 -3 35 0 35
11 0 9 -15 20 -35 27 -29 10 -35 16 -35 40 0 56 12 88 37 99 27 12 23 31 -8
31 -10 0 -19 7 -19 15 0 10 10 15 31 15 24 0 30 4 27 18 -2 10 -14 18 -31 20
-27 3 -39 31 -14 33 24 1 49 8 55 14 12 11 -22 24 -50 18 -20 -4 -28 -2 -28 9
0 24 22 38 61 38 41 0 52 8 39 29 -5 10 -20 12 -49 8 -23 -3 -41 -2 -41 3 0
11 27 20 61 20 16 0 29 4 29 8 0 14 -47 31 -69 25 -17 -4 -21 -1 -21 16 0 16
8 23 30 28 45 8 40 36 -5 31 -23 -3 -35 0 -35 8 0 13 22 24 51 24 21 0 26 26
7 33 -7 2 -23 0 -35 -4 -19 -7 -23 -5 -23 11 0 16 5 18 35 13 28 -4 35 -2 35
10 0 9 -4 19 -10 22 -20 12 -9 24 40 40 54 18 69 41 20 32 -17 -4 -40 0 -57 8
-28 15 -28 15 24 15 90 0 72 34 -21 38 -36 2 -141 110 -150 154 -10 52 -7 113
8 134 20 26 30 12 36 -49 4 -42 9 -52 24 -52 13 0 22 13 33 45 8 25 22 53 30
62 14 16 12 19 -26 35 -50 22 -50 38 4 74 43 30 82 41 91 28 3 -5 -1 -9 -8 -9
-18 0 -74 -47 -66 -55 4 -4 17 0 30 9 12 9 33 16 45 16 40 0 97 -44 123 -94
21 -42 22 -50 11 -82 -15 -43 -8 -54 18 -29 32 28 37 94 12 150 -12 27 -20 49
-19 50 13 10 49 25 60 24 7 0 2 -5 -11 -10 -20 -8 -23 -14 -17 -41 3 -18 13
-36 21 -41 11 -6 12 -14 5 -33 -6 -14 -8 -30 -5 -35 3 -5 1 -18 -5 -29 -9 -16
-8 -20 5 -20 21 0 46 65 36 93 -4 12 -5 34 -2 49 6 26 6 26 29 7 40 -32 61
-146 46 -241 -5 -30 -17 -45 -59 -77 -29 -22 -69 -47 -90 -56 -29 -11 -36 -18
-27 -27 8 -8 24 -6 63 11 29 11 54 19 57 17 2 -3 -4 -18 -14 -35 -14 -24 -22
-29 -45 -24 -14 3 -37 0 -49 -7 -39 -21 -2 -30 64 -17 55 11 59 14 92 67 46
75 67 165 62 260 -5 86 -22 124 -82 187 -44 46 -69 57 -97 42 -10 -5 -24 -2
-38 7 -14 10 -48 16 -99 17 -67 2 -83 -1 -122 -24 -25 -15 -54 -36 -64 -48
-11 -12 -25 -21 -32 -21 -12 0 -70 79 -62 84 58 38 57 38 87 20 21 -13 40 -15
75 -10 39 6 55 16 99 61 82 85 82 84 64 103 -11 10 -38 16 -84 18 -37 1 -70 3
-72 3 -3 1 7 13 21 29 73 80 105 172 59 172 -10 0 -21 -3 -24 -6z m-5 -67
c-30 -57 -56 -82 -100 -100 -58 -23 -63 -21 -24 12 28 24 31 30 18 40 -19 16
-52 0 -61 -29 -8 -25 -21 -25 -35 0 -23 43 49 103 111 94 19 -2 48 0 64 5 45
14 46 13 27 -22z m-232 -122 c5 -6 2 -19 -6 -29 -13 -19 -14 -19 -34 -1 -26
23 -25 39 3 58 20 13 22 13 26 -2 2 -9 7 -21 11 -26z m80 -44 c0 -6 -4 -13
-10 -16 -5 -3 -10 -19 -10 -36 0 -30 -30 -69 -54 -69 -18 0 -11 74 10 108 14
22 64 32 64 13z m220 -9 c0 -15 -26 -33 -35 -24 -5 4 -5 2 -2 -4 17 -29 -100
-87 -128 -64 -17 14 -9 34 9 27 7 -3 19 -1 26 3 25 15 -9 43 -43 36 -25 -5
-28 -4 -17 8 13 17 30 20 123 24 37 2 67 -1 67 -6z m-539 -190 c-6 -11 -11
-30 -11 -41 0 -28 36 -28 43 -1 3 11 12 20 20 20 44 0 41 -73 -4 -99 -16 -9
-29 -18 -29 -21 0 -3 -20 -4 -45 -2 -39 4 -45 7 -45 26 0 12 5 27 12 34 7 7
11 28 10 48 -2 28 0 35 12 31 9 -4 16 3 21 20 4 18 9 23 16 16 8 -8 7 -17 0
-31z m584 -2 c7 -11 -9 -11 -45 0 -24 8 -24 8 7 9 17 1 35 -3 38 -9z m178
-405 c-3 -9 -8 -14 -10 -11 -3 3 -2 9 2 15 9 16 15 13 8 -4z m-91 -604 c-4 -9
-9 -6 -18 10 -9 18 -9 26 -1 31 14 8 27 -20 19 -41z m-275 -297 c-3 -3 -12 -4
-19 -1 -8 3 -5 6 6 6 11 1 17 -2 13 -5z m-243 -56 c15 -88 8 -110 -37 -126
-50 -18 -66 -15 -73 14 -8 32 15 78 60 116 40 35 44 35 50 -4z m-398 -68 c32
0 41 -25 19 -51 -18 -19 -18 -20 1 -33 19 -14 19 -15 -1 -22 -11 -4 -26 -14
-34 -22 -16 -16 -76 -12 -123 7 -34 13 -41 57 -8 48 11 -3 18 -1 15 3 -3 5 3
11 14 15 10 3 22 16 25 30 6 24 29 36 54 29 8 -2 25 -4 38 -4z m614 -440 c0
-5 -2 -10 -4 -10 -3 0 -8 5 -11 10 -3 6 -1 10 4 10 6 0 11 -4 11 -10z m1557
-120 c10 -11 23 -20 31 -20 7 0 26 -7 43 -15 28 -15 30 -15 37 5 8 21 11 19
58 -23 27 -24 54 -58 60 -75 l11 -30 -49 -6 c-27 -4 -87 -24 -133 -46 -164
-75 -244 -188 -236 -333 l1 -28 29 22 c20 15 36 42 51 88 12 36 32 82 43 101
12 19 20 42 19 51 -2 11 18 27 60 49 35 18 66 38 70 44 11 17 177 14 213 -4
40 -20 85 -109 85 -167 0 -51 -18 -73 -75 -91 -52 -17 -112 1 -134 40 -14 24
-14 28 3 47 18 20 21 20 37 5 20 -18 39 -11 39 15 0 17 -37 41 -65 41 -7 0
-28 -14 -45 -31 -26 -26 -30 -37 -25 -63 4 -17 18 -41 32 -54 14 -13 24 -24
22 -26 -2 -1 -24 -10 -49 -20 -109 -41 -195 -133 -229 -242 -31 -104 -36 -188
-16 -257 9 -32 15 -61 12 -63 -3 -3 -21 -2 -41 1 -26 5 -53 24 -97 68 -63 63
-89 110 -89 158 0 26 -15 47 -26 36 -8 -8 -8 -40 -1 -69 4 -16 4 -28 0 -28
-17 0 -53 137 -53 197 0 62 -14 88 -32 62 -5 -8 -7 -50 -5 -94 l4 -80 -18 40
c-21 48 -23 65 -8 65 8 0 10 21 6 73 -8 87 3 149 32 188 16 21 18 29 8 29 -22
0 -48 -36 -69 -92 -18 -51 -19 -52 -14 -13 19 134 42 200 85 239 21 19 28 46
12 46 -4 0 -20 -11 -35 -25 -14 -13 -26 -20 -26 -14 0 26 35 72 73 95 23 15
61 40 85 56 24 15 53 30 65 32 26 4 29 29 5 34 -10 2 -18 -1 -18 -7 0 -6 -8
-11 -18 -11 -10 0 -23 -5 -30 -12 -6 -6 -14 -9 -18 -6 -9 10 79 65 98 60 9 -2
31 4 49 14 25 13 47 15 96 10 40 -4 63 -3 63 4 0 5 -11 12 -25 16 -29 7 -33
21 -7 27 30 8 32 7 49 -13z m-1100 -222 c25 -23 29 -48 13 -79 -9 -16 -15 -17
-31 -8 -28 14 -50 68 -38 91 13 24 28 23 56 -4z m258 -191 c18 -15 28 -36 32
-66 6 -42 5 -44 -18 -38 -13 3 -43 9 -66 13 -32 5 -43 11 -43 24 0 15 7 18 40
14 32 -4 42 -1 47 12 4 12 0 22 -11 28 -10 6 -25 16 -34 23 -15 11 -15 12 5
13 12 0 34 -10 48 -23z m528 -587 c-6 -6 -33 30 -33 44 0 6 9 0 20 -14 10 -14
16 -27 13 -30z m1313 -167 c-7 -7 -26 7 -26 19 0 6 6 6 15 -2 9 -7 13 -15 11
-17z m-2316 -213 c0 -5 -2 -10 -4 -10 -3 0 -8 5 -11 10 -3 6 -1 10 4 10 6 0
11 -4 11 -10z m141 -234 c1 -6 1 -14 1 -17 -1 -4 3 -33 8 -65 11 -70 3 -84
-51 -84 -29 0 -41 5 -50 22 -13 25 -17 127 -5 146 9 15 96 13 97 -2z m-438
-308 c-2 -78 -6 -144 -8 -147 -3 -2 -16 6 -29 18 -28 27 -52 20 -36 -9 5 -10
18 -21 29 -25 27 -8 38 -48 40 -142 l3 -83 -59 0 c-62 0 -90 -11 -79 -29 4 -6
11 -9 16 -6 19 12 120 16 120 5 0 -6 30 -40 66 -76 102 -102 148 -230 99 -284
-16 -18 -16 -20 -1 -26 9 -3 22 -1 30 5 11 9 29 3 82 -24 38 -19 79 -46 90
-60 12 -13 24 -22 26 -19 3 2 2 -10 0 -27 l-5 -31 -14 29 c-19 41 -88 64 -172
59 -55 -3 -68 -7 -88 -30 -24 -29 -30 -60 -13 -71 16 -10 37 12 44 45 5 29 8
30 60 30 55 0 118 -20 133 -42 4 -7 8 -32 8 -54 l0 -42 -70 -4 c-38 -3 -83 -1
-100 4 -16 4 -68 13 -115 19 -47 6 -95 18 -108 26 -18 11 -27 12 -38 3 -40
-34 60 -63 264 -75 96 -6 135 -15 147 -36 6 -9 -1 -10 -26 -4 -58 12 -93 9
-134 -11 -34 -16 -40 -24 -43 -55 -2 -23 2 -40 12 -48 22 -18 38 -4 34 32 -2
25 2 34 23 46 32 18 94 8 103 -17 3 -9 9 -22 12 -29 9 -20 -63 -43 -180 -59
-59 -8 -112 -16 -116 -19 -5 -3 -21 0 -37 6 -15 6 -44 15 -63 19 -33 7 -88 28
-185 71 -22 9 -65 25 -95 35 -30 10 -73 30 -95 44 -39 25 -40 28 -47 95 -9
104 25 205 70 205 20 0 114 -56 217 -128 68 -48 125 -73 125 -55 0 12 -43 53
-56 53 -6 0 -17 7 -24 16 -11 13 -102 71 -170 110 -10 6 -52 41 -91 79 -71 67
-73 69 -73 119 0 56 20 178 34 213 5 12 22 24 39 28 17 4 33 11 36 16 19 30
31 -12 40 -141 3 -51 7 -58 50 -97 26 -24 53 -43 61 -43 8 0 39 -19 69 -42 30
-24 82 -62 115 -86 72 -50 168 -84 195 -69 15 8 7 13 -41 30 -33 11 -85 38
-116 60 -55 39 -56 40 -41 64 27 41 48 46 96 25 57 -26 92 -66 92 -105 0 -43
26 -42 38 0 9 29 6 37 -31 81 -70 83 -158 94 -218 26 l-30 -35 -45 34 c-24 18
-64 43 -89 55 -57 27 -65 46 -80 198 -17 158 -9 331 15 368 19 28 82 66 110
66 15 0 74 25 170 71 22 10 43 19 46 19 3 0 4 -64 2 -142z m2575 51 c-6 -16
-12 -29 -13 -27 -6 6 8 58 16 58 4 0 3 -14 -3 -31z m-48 -118 c-5 -11 -15 -23
-21 -27 -6 -3 -3 5 6 20 20 30 30 35 15 7z m-2457 -106 c-21 -16 -28 -12 -20
9 4 9 13 13 22 10 14 -6 13 -8 -2 -19z m107 -14 c0 -5 -7 -11 -14 -14 -10 -4
-13 -1 -9 9 6 15 23 19 23 5z m108 -68 c0 -31 -15 -38 -45 -22 -21 11 -29 11
-55 -4 -16 -9 -36 -17 -44 -17 -8 0 -14 -5 -14 -10 0 -17 26 -22 63 -12 28 8
37 7 41 -4 3 -8 16 -14 28 -14 19 -1 17 -3 -11 -15 -28 -13 -31 -17 -21 -30 7
-9 21 -13 31 -10 11 4 19 2 19 -4 0 -5 -12 -11 -27 -13 -36 -4 -37 -32 -1 -36
25 -3 26 -5 25 -65 -1 -34 2 -82 7 -106 5 -28 5 -41 -2 -37 -5 3 -15 0 -21 -8
-9 -10 -8 -15 4 -20 22 -8 19 -43 -5 -56 -18 -10 -20 -8 -20 25 0 19 -9 58
-20 87 -24 63 -25 78 -5 78 8 0 15 7 15 16 0 11 -8 15 -33 13 -41 -4 -67 10
-43 23 17 10 22 33 8 42 -5 3 -20 -1 -35 -9 -15 -7 -29 -10 -32 -5 -3 4 9 13
26 19 60 21 14 47 -48 27 -13 -4 -23 -3 -23 2 0 6 23 15 50 22 49 12 61 22 39
35 -6 4 -8 13 -5 20 3 8 -6 18 -22 24 -17 6 -21 10 -9 10 10 1 17 9 17 22 0
16 4 19 19 14 13 -4 27 1 39 12 10 10 27 23 38 30 10 6 18 16 16 23 -1 7 9 5
27 -6 19 -11 29 -25 29 -41z m-206 7 c20 0 6 -18 -18 -23 -22 -4 -25 -2 -20
17 3 11 6 28 7 36 0 9 4 7 11 -7 6 -13 15 -23 20 -23z m1503 -50 c-3 -5 -16
-15 -28 -21 -21 -10 -21 -9 2 10 25 23 36 27 26 11z m-1518 -26 c-3 -3 -12 -4
-19 -1 -8 3 -5 6 6 6 11 1 17 -2 13 -5z m273 -124 c0 -5 -4 -10 -10 -10 -5 0
-10 5 -10 10 0 6 5 10 10 10 6 0 10 -4 10 -10z m5 -80 c3 -23 0 -50 -5 -59 -7
-13 -10 -10 -11 14 -1 17 -3 41 -4 55 -3 26 3 45 12 37 2 -3 6 -24 8 -47z m19
-237 l14 -62 -23 11 c-22 10 -24 28 -15 117 1 15 11 -14 24 -66z m22 -259 c-4
-9 -9 -15 -11 -12 -3 3 -3 13 1 22 4 9 9 15 11 12 3 -3 3 -13 -1 -22z m-191
-503 c-3 -7 0 -20 7 -28 9 -11 9 -13 -2 -11 -7 2 -15 -3 -17 -9 -3 -9 6 -13
26 -13 17 0 31 -4 31 -10 0 -5 -7 -10 -15 -10 -8 0 -15 -4 -15 -10 0 -5 5 -10
10 -10 6 0 10 -7 10 -15 0 -8 -7 -15 -15 -15 -10 0 -15 -10 -15 -30 0 -26 4
-30 26 -30 24 0 25 -2 22 -47 -3 -46 -4 -48 -37 -53 -33 -5 -57 -30 -29 -30 8
0 7 -4 -4 -11 -22 -12 -23 -29 -3 -29 23 0 18 -17 -7 -24 -21 -5 -21 -7 -7
-21 21 -21 69 -4 69 24 0 11 5 23 10 26 6 3 10 -4 10 -17 0 -38 -12 -68 -26
-68 -19 0 -36 -34 -22 -48 6 -6 17 -8 24 -5 8 3 14 1 14 -5 0 -6 3 -17 6 -26
8 -21 -22 -22 -33 -1 -6 10 -13 11 -23 4 -13 -8 -13 -11 2 -19 19 -12 13 -50
-8 -50 -8 0 -14 -8 -15 -17 -1 -10 -2 -33 -4 -50 -3 -33 2 -37 38 -34 27 3 22
-38 -7 -49 -13 -5 -27 -14 -31 -20 -16 -25 -21 7 -20 122 1 79 6 131 14 147 7
13 9 27 4 32 -13 13 -55 -19 -51 -39 4 -24 -10 -42 -33 -42 -25 0 -24 16 1 30
30 16 24 33 -10 28 -36 -5 -40 7 -5 16 14 4 25 14 25 22 0 12 -7 15 -25 12
-34 -7 -32 4 5 25 36 21 39 37 8 38 l-23 0 23 11 c29 14 30 42 1 35 -16 -4
-18 -3 -9 8 6 7 22 16 35 19 14 4 25 11 25 17 0 20 -31 21 -69 2 -32 -16 -38
-17 -33 -4 8 20 54 60 70 61 6 0 12 7 12 15 0 18 -41 20 -58 3 -9 -9 -12 -6
-12 13 0 27 46 61 84 63 12 1 22 9 24 20 3 16 0 18 -22 12 -14 -3 -38 -9 -52
-12 -19 -5 -25 -4 -20 5 4 6 16 11 27 11 10 0 19 5 19 11 0 6 7 9 15 6 21 -9
31 14 12 28 -13 9 -14 14 -4 25 9 10 9 13 0 17 -21 8 -15 21 15 31 31 10 65
-5 57 -27z m55 2 c0 -10 -4 -14 -8 -8 -4 6 -11 13 -16 18 -5 4 -2 7 7 7 10 0
17 -8 17 -17z m-173 -49 c-3 -3 -12 -4 -19 -1 -8 3 -5 6 6 6 11 1 17 -2 13 -5z
m978 -134 c10 -11 15 -23 12 -26 -11 -11 22 -62 55 -88 18 -13 49 -27 68 -31
31 -6 37 -12 48 -48 17 -54 65 -129 111 -173 50 -49 103 -78 196 -109 82 -27
129 -29 261 -9 37 5 42 4 47 -18 25 -90 -49 -189 -145 -194 -41 -2 -74 -22
-50 -31 6 -3 12 -19 12 -36 0 -62 -62 -124 -156 -155 -32 -11 -71 -18 -87 -15
-15 3 -34 0 -42 -7 -12 -10 -15 -10 -15 1 0 8 -17 25 -37 38 l-37 24 32 27
c46 38 75 126 70 207 -5 75 -27 104 -96 127 -43 14 -50 13 -89 -4 -45 -20 -70
-57 -59 -85 8 -22 51 -16 51 7 0 29 23 42 67 40 60 -3 78 -28 78 -103 0 -89
-20 -127 -88 -171 -46 -30 -68 -38 -105 -38 -312 0 -528 306 -433 613 30 95
78 178 120 203 49 30 149 72 172 73 11 1 29 -8 39 -19z m-1005 -191 c0 -5 -4
-9 -10 -9 -5 0 -10 7 -10 16 0 8 5 12 10 9 6 -3 10 -10 10 -16z m45 -199 c3
-5 -1 -10 -10 -10 -9 0 -13 5 -10 10 3 6 8 10 10 10 2 0 7 -4 10 -10z m-1
-132 c-2 -3 -14 -4 -25 -1 -21 6 -21 7 -3 20 15 11 16 17 7 32 -9 14 -9 21 0
30 9 9 13 2 18 -31 4 -24 5 -46 3 -50z m4 -40 c-5 -16 -48 -24 -48 -10 0 11
17 20 38 21 8 1 12 -5 10 -11z m3 -81 c4 -15 18 -36 31 -47 l23 -20 -40 6
c-22 4 -43 9 -47 13 -6 6 -11 43 -9 69 2 24 34 8 42 -21z M3625 5945 c-5 -2
-22 -6 -36 -9 -14 -3 -43 -19 -65 -36 -21 -16 -52 -40 -67 -52 -32 -24 -51
-54 -39 -62 4 -3 21 8 38 22 55 52 101 82 148 98 25 9 46 22 46 30 0 14 -5 16
-25 9z M3736 5912 c-2 -4 4 -19 14 -32 14 -19 22 -22 30 -14 9 9 9 17 1 33
-12 21 -35 28 -45 13z M1764 3366 c-9 -24 0 -51 19 -54 14 -3 17 4 17 32 0 26
-4 36 -15 36 -9 0 -18 -6 -21 -14z M1766 3153 c-8 -8 -8 -47 0 -67 12 -31 31
-17 31 23 0 37 -16 59 -31 44z M1356 7571 c-9 -9 -16 -23 -16 -29 0 -7 -4 -12
-10 -12 -11 0 -47 -79 -56 -125 -9 -49 26 -118 71 -140 50 -23 92 -12 148 40
39 37 47 50 47 81 0 28 -8 44 -35 71 -23 23 -40 33 -53 29 -26 -8 -77 46 -69
73 7 28 -7 35 -27 12z m21 -94 c4 -12 6 -25 5 -28 0 -3 14 -4 33 -2 27 3 41
-2 63 -24 37 -36 38 -78 2 -77 -14 0 -24 5 -23 10 3 18 -35 13 -52 -6 -16 -18
-16 -20 16 -39 l34 -21 -42 0 c-35 0 -45 5 -64 32 -27 38 -39 148 -19 172 15
19 37 10 47 -17z M2115 7309 c-9 -13 -6 -15 33 -24 33 -7 41 2 20 23 -15 15
-45 16 -53 1z M2730 7164 c-27 -56 -31 -73 -26 -111 10 -76 68 -153 115 -153
15 0 36 9 46 20 10 11 23 20 30 20 33 0 85 101 70 136 -5 11 -8 22 -7 26 2 10
-65 58 -81 58 -33 0 -79 24 -87 46 -5 13 -13 24 -18 24 -5 0 -24 -30 -42 -66z
m112 -36 c31 -11 62 -26 68 -33 14 -17 17 -74 4 -83 -5 -4 -9 -14 -9 -22 0
-27 -28 -16 -44 17 -17 35 -33 45 -55 37 -18 -7 -15 -28 8 -53 10 -11 16 -27
12 -36 -3 -9 -2 -13 4 -10 6 3 10 1 10 -4 0 -6 -7 -11 -15 -11 -14 0 -19 12
-16 33 0 4 -5 7 -12 7 -28 0 -63 102 -53 154 6 30 11 36 24 31 9 -4 43 -16 74
-27z M2008 7143 c-41 -45 -62 -97 -48 -123 18 -34 74 -53 116 -40 34 11 44 32
23 46 -6 3 -16 1 -22 -5 -14 -14 -27 -14 -27 -1 0 6 12 15 27 21 l27 10 -23
22 c-21 21 -23 21 -35 5 -7 -10 -16 -15 -19 -11 -11 10 -7 37 8 57 13 18 14
18 32 0 11 -11 24 -31 31 -46 13 -32 24 -35 42 -13 19 23 4 61 -34 84 -45 28
-67 26 -98 -6z M2112 6987 c-31 -21 -68 -75 -58 -84 10 -10 43 9 79 43 59 58
45 85 -21 41z M2406 6826 c-27 -78 -18 -137 24 -173 44 -37 95 -48 126 -28 13
8 31 15 41 15 63 1 99 113 51 157 -36 32 -63 43 -111 43 -29 0 -53 7 -70 20
-14 11 -29 20 -34 20 -5 0 -17 -24 -27 -54z m201 -51 c15 -18 20 -34 18 -57
-6 -45 -22 -50 -68 -21 -21 13 -45 22 -53 19 -23 -9 -16 -34 14 -50 l27 -15
-26 -1 c-50 0 -98 80 -82 139 3 14 15 16 76 13 61 -3 75 -7 94 -27z M2115
6820 c-14 -22 30 -45 56 -30 10 7 10 11 0 24 -15 18 -47 21 -56 6z M2130 6760
c-11 -6 -12 -12 -4 -20 13 -13 46 -2 41 13 -5 15 -20 18 -37 7z M2659 6517
c-62 -42 -61 -133 2 -195 40 -39 78 -48 118 -28 16 9 41 16 54 16 26 0 71 43
82 78 8 26 -10 85 -31 103 -8 7 -41 11 -78 11 -50 -1 -70 3 -89 18 -25 19 -25
19 -58 -3z m64 -50 c28 -13 42 -15 57 -7 45 24 90 -3 90 -55 0 -41 -32 -74
-55 -55 -8 7 -21 24 -28 38 -16 34 -33 38 -47 12 -9 -16 -8 -28 4 -50 17 -35
4 -40 -30 -12 -36 30 -57 80 -49 119 3 19 9 33 13 31 4 -2 24 -12 45 -21z
M2121 6486 c-9 -11 -8 -15 5 -20 20 -8 39 7 30 23 -10 15 -21 14 -35 -3z
M1931 6267 c-14 -18 -4 -27 30 -27 35 0 46 16 20 29 -26 14 -36 14 -50 -2z
M1185 5838 c9 -28 9 -38 0 -109 -14 -109 52 -192 139 -174 41 9 76 32 76 50 0
8 11 25 25 39 30 30 31 45 5 95 -19 39 -60 66 -119 77 -16 4 -38 15 -47 25
-10 12 -31 19 -52 19 -31 0 -34 -2 -27 -22z m79 -44 c4 -9 13 -14 21 -10 9 3
15 0 15 -10 0 -8 4 -13 9 -9 16 9 57 -16 76 -47 15 -25 15 -34 4 -54 -15 -29
-25 -30 -39 -3 -18 33 -45 20 -45 -22 0 -28 3 -35 16 -32 9 3 20 0 23 -6 9
-14 -29 -15 -53 -1 -42 22 -74 114 -55 158 4 9 6 25 5 35 -3 21 15 23 23 1z
M805 5571 c-3 -5 -1 -12 5 -16 6 -3 9 -40 7 -84 -2 -71 0 -81 25 -113 34 -44
74 -60 110 -44 34 15 83 57 98 85 26 50 -15 130 -68 132 -57 3 -80 8 -113 28
-37 23 -55 26 -64 12z m191 -96 c19 -25 19 -95 0 -95 -7 0 -19 7 -26 15 -14
17 -36 20 -45 5 -10 -16 5 -50 21 -50 8 0 14 -4 14 -10 0 -5 -8 -10 -17 -10
-33 0 -86 102 -78 147 2 10 4 20 4 24 1 3 26 2 57 -1 39 -4 61 -12 70 -25z
M3865 5418 c-63 -15 -87 -30 -118 -74 -73 -104 -7 -259 121 -284 37 -7 60 -6
80 2 26 11 25 11 -33 25 -33 7 -65 15 -72 16 -22 5 -54 41 -69 76 -26 61 -14
140 29 194 9 11 35 19 74 23 57 6 60 6 86 -26 22 -26 25 -35 16 -51 -8 -16
-13 -18 -25 -8 -8 6 -14 18 -14 26 0 11 -4 11 -20 3 -27 -14 -25 -36 5 -56 26
-17 58 -12 88 14 22 20 22 43 -3 85 -28 47 -60 55 -145 35z M2409 5245 c-33
-18 -63 -94 -56 -141 9 -56 40 -90 94 -104 26 -6 53 -16 59 -21 14 -11 60 4
88 29 29 27 37 60 26 103 -8 30 -19 43 -49 59 -21 10 -48 35 -59 55 -24 39
-56 46 -103 20z m59 -45 c7 -12 10 -26 6 -32 -4 -7 -3 -8 4 -4 7 4 12 3 12 -2
0 -5 11 -15 25 -22 13 -7 22 -16 20 -20 -3 -4 3 -7 13 -6 27 2 28 -55 2 -79
-18 -16 -23 -17 -31 -5 -5 8 -7 20 -5 27 3 6 -2 19 -9 30 -11 14 -17 16 -32 7
-10 -7 -18 -21 -17 -33 0 -11 -3 -21 -7 -21 -18 0 -39 47 -39 87 0 36 3 43 19
43 26 0 36 17 21 35 -7 8 -8 15 -4 15 5 0 15 -9 22 -20z M1279 5212 c-25 -26
-41 -117 -29 -161 13 -46 27 -64 68 -85 31 -16 36 -16 67 -1 47 21 105 78 105
101 0 34 -29 64 -68 70 -46 7 -64 20 -86 62 -18 36 -33 39 -57 14z m96 -108
c36 -5 65 -25 65 -46 0 -4 -8 -5 -17 -1 -15 5 -14 3 2 -10 17 -14 18 -16 3
-17 -9 0 -20 5 -23 10 -3 6 -18 10 -32 10 -22 0 -25 -4 -21 -25 6 -30 -11 -34
-19 -5 -3 11 -9 20 -14 20 -12 0 -26 60 -21 87 4 22 4 22 21 3 9 -11 34 -22
56 -26z M2063 5078 c2 -7 14 -13 27 -13 13 0 25 6 28 13 2 8 -7 12 -28 12 -21
0 -30 -4 -27 -12z M3290 4887 c0 -16 38 -40 50 -32 17 10 11 21 -15 33 -32 15
-35 15 -35 -1z M2070 4706 c0 -10 9 -16 21 -16 24 0 21 23 -4 28 -10 2 -17 -3
-17 -12z M4312 4598 c-12 -16 40 -84 57 -74 16 10 14 23 -11 56 -24 33 -31 36
-46 18z M4155 4561 c-8 -14 27 -121 40 -121 5 0 16 4 24 9 12 8 11 16 -3 53
-26 63 -46 83 -61 59z M4188 4313 c-3 -95 -21 -141 -80 -217 -30 -37 -30 -38
-7 -31 37 11 64 41 99 109 26 53 32 77 35 145 3 79 2 81 -20 81 -22 0 -23 -4
-27 -87z M2321 3352 c-8 -15 -7 -23 7 -35 18 -16 69 -20 78 -6 3 5 0 9 -7 9
-7 0 -25 12 -40 26 -26 25 -28 25 -38 6z M2434 3259 c-3 -6 7 -25 25 -42 23
-23 34 -28 42 -20 9 9 6 19 -10 42 -23 32 -45 39 -57 20z M4782 3000 c-6 -11
-12 -26 -12 -35 0 -8 -7 -35 -15 -60 -17 -49 -13 -68 11 -58 17 6 40 57 48
106 3 19 8 41 12 50 9 25 -28 22 -44 -3z M1778 2924 c-3 -3 -4 -22 -1 -43 3
-21 0 -48 -6 -60 -10 -17 -9 -22 4 -27 22 -9 35 6 45 51 11 48 -19 103 -42 79z
M3267 2792 c-21 -2 -40 -9 -43 -17 -3 -8 -12 -11 -20 -8 -8 3 -14 1 -14 -5 0
-9 237 -6 267 3 7 2 10 11 7 20 -6 16 -66 18 -197 7z M4675 2705 c-38 -46
-135 -126 -190 -157 -51 -28 -146 -47 -209 -42 -45 4 -57 3 -54 -8 7 -21 84
-31 152 -19 75 13 177 64 230 114 21 20 42 37 45 37 9 0 45 40 66 73 12 19 15
31 8 38 -7 7 -22 -4 -48 -36z M746 2525 c-23 -29 -26 -42 -22 -84 5 -45 3 -48
-15 -44 -25 7 -45 -11 -53 -47 -3 -18 -12 -30 -21 -30 -22 0 -45 -60 -45 -114
0 -40 -3 -47 -30 -61 -24 -13 -30 -22 -30 -49 0 -20 -8 -40 -20 -51 -13 -12
-20 -31 -20 -54 0 -20 -9 -63 -19 -96 -23 -72 -51 -94 -114 -88 -76 7 -109 5
-132 -7 -18 -10 -28 -9 -53 4 -17 9 -37 16 -45 16 -8 0 -26 9 -40 20 -33 26
-37 25 -37 -10 0 -19 7 -34 19 -42 19 -11 19 -13 2 -37 -24 -36 -26 -118 -3
-124 16 -4 16 -5 0 -6 -15 -1 -18 -11 -18 -54 l0 -53 35 4 c19 2 42 -1 50 -8
8 -6 26 -13 40 -14 14 -2 29 -6 33 -10 3 -4 -30 -5 -76 -2 -81 4 -82 4 -82
-19 0 -34 38 -36 233 -11 32 5 93 32 102 46 3 6 31 22 61 36 31 14 70 42 87
61 67 72 112 113 131 119 12 4 38 18 58 32 45 29 51 55 12 48 -17 -3 -24 -1
-21 7 2 7 8 12 13 12 5 1 30 4 57 9 37 6 47 11 47 27 0 24 -30 25 -90 4 -23
-8 -47 -12 -53 -8 -6 4 -7 1 -2 -7 6 -10 1 -11 -21 -6 -19 4 -24 3 -15 -3 11
-7 10 -11 -6 -20 -12 -6 -24 -22 -27 -35 -8 -32 -115 -139 -132 -132 -8 3 -11
0 -7 -10 4 -10 0 -13 -13 -8 -14 4 -15 3 -6 -4 12 -8 12 -13 0 -31 -7 -12 -22
-24 -33 -28 -11 -3 -34 -16 -50 -29 -28 -21 -85 -39 -85 -27 0 3 8 12 18 19
14 12 15 15 3 23 -9 6 -22 6 -32 0 -10 -5 -33 -9 -52 -9 -27 0 -34 4 -33 18 1
19 -9 20 -89 7 -38 -6 -47 -5 -39 4 6 7 43 13 82 14 38 1 68 5 66 8 -5 9 78
29 90 22 6 -3 8 -3 4 2 -9 9 61 47 74 39 5 -3 7 0 6 8 -2 8 6 12 22 10 19 -2
37 9 69 42 24 25 49 42 54 39 6 -3 7 -1 3 5 -7 12 31 92 43 92 4 0 25 18 49
40 23 22 49 40 56 40 8 0 21 8 28 18 31 45 106 56 186 28 41 -14 58 -27 78
-57 19 -30 30 -39 43 -34 12 3 21 0 25 -10 3 -8 13 -15 23 -15 10 -1 27 -15
38 -32 25 -39 45 -47 52 -19 3 12 8 21 12 21 4 0 23 -22 44 -50 20 -27 65 -68
99 -91 62 -40 118 -93 118 -110 0 -5 6 -6 14 -3 19 7 64 -22 71 -47 4 -11 11
-17 16 -13 6 3 15 1 22 -4 19 -16 88 -42 82 -32 -8 13 -2 12 70 -6 108 -27
120 -30 143 -28 12 1 25 -2 27 -6 2 -4 21 -6 41 -3 27 3 34 1 28 -9 -5 -8 -1
-7 11 2 17 14 18 13 12 -2 -4 -13 -2 -15 10 -11 12 5 15 2 11 -9 -5 -11 1 -14
23 -13 19 1 28 -2 26 -10 -3 -7 6 -10 26 -9 18 1 47 -4 67 -13 19 -8 69 -16
110 -18 244 -12 286 -12 308 -4 18 7 37 5 67 -7 23 -8 73 -17 111 -18 83 -3
118 -18 110 -49 -3 -12 -1 -29 4 -37 5 -9 5 -19 -2 -27 -8 -10 -6 -13 5 -13 9
0 22 -9 31 -21 22 -32 65 -50 122 -50 46 -1 52 -4 51 -21 -1 -18 -9 -19 -152
-17 -82 1 -184 6 -225 11 -61 7 -141 9 -225 6 -5 0 -30 1 -55 1 -75 2 -125
-11 -125 -34 0 -20 25 -29 110 -41 22 -3 41 -7 43 -8 8 -9 -247 -19 -503 -22
-159 -1 -375 -5 -480 -9 -104 -3 -224 -6 -265 -5 -41 1 -88 2 -105 2 -16 0
-102 -3 -190 -7 -88 -4 -167 -6 -175 -5 -8 1 -134 3 -280 4 -146 2 -280 6
-297 10 -45 10 -73 0 -73 -28 0 -21 4 -22 83 -24 194 -3 634 -2 662 2 17 2 38
-1 49 -6 13 -7 16 -7 12 1 -4 6 -1 11 8 11 8 0 18 -5 21 -10 4 -7 11 -7 18 -2
16 13 189 15 221 3 16 -7 27 -7 31 -1 3 6 79 9 180 7 95 -1 171 1 168 6 -4 6
125 11 227 9 76 -2 176 -15 188 -24 6 -6 12 -7 12 -2 0 5 42 9 92 9 51 1 131
4 178 7 168 12 255 20 259 24 2 2 13 -3 24 -11 15 -11 24 -12 34 -3 15 12 18
58 4 58 -5 0 -11 9 -14 19 -3 13 -16 21 -38 24 -75 10 376 -7 511 -19 65 -6
71 -8 45 -16 -16 -5 -50 -10 -75 -12 -96 -7 -131 -18 -142 -42 -8 -17 -8 -27
2 -39 16 -19 11 -21 -120 -35 -187 -20 -205 -22 -215 -29 -16 -10 -745 -7
-745 3 0 4 -6 4 -13 -1 -13 -11 -110 -10 -582 2 -154 4 -358 8 -452 8 -95 1
-173 4 -173 8 0 3 -24 2 -53 -1 -29 -3 -66 -5 -83 -4 -16 0 -46 2 -67 2 -21 1
-36 6 -33 11 3 5 -2 15 -12 22 -14 11 -15 11 -5 -1 21 -24 -11 -36 -78 -30
-33 3 -76 4 -95 2 -29 -4 -34 -8 -34 -31 l0 -26 248 -3 c136 -2 310 -5 387 -7
388 -12 2163 -24 2470 -17 55 1 215 0 355 -3 140 -2 446 -7 680 -10 234 -3
496 -7 583 -10 l157 -5 0 25 0 25 -152 1 c-143 1 -283 5 -301 8 -5 0 -5 11 -2
22 4 12 2 24 -4 28 -7 5 -9 20 -5 39 l6 32 71 0 c67 0 72 -2 97 -32 34 -41 54
-31 45 22 -5 32 -3 40 14 50 20 10 21 8 22 -47 1 -32 1 -65 0 -74 -3 -25 26
-44 44 -29 11 9 13 25 9 69 -5 45 -3 59 10 70 11 9 20 10 29 3 6 -5 36 -12 65
-14 l52 -5 0 48 c0 39 -4 49 -20 54 -11 3 -23 4 -28 1 -12 -7 -73 8 -72 19 0
11 10 12 78 14 46 1 61 26 20 34 l-23 4 23 2 c18 1 22 7 22 32 l0 31 -65 -4
c-41 -2 -64 0 -62 6 2 5 31 9 66 8 54 -1 62 1 59 16 -2 11 -16 19 -38 22 l-35
6 31 6 c36 8 44 22 37 61 -7 34 -61 51 -140 44 -29 -3 -53 -1 -53 3 0 14 142
23 172 11 27 -10 27 -10 26 27 -1 20 -3 31 -6 24 -2 -6 -11 -12 -20 -12 -12 0
-11 4 6 23 12 13 22 26 22 30 0 4 -16 -10 -35 -31 -19 -20 -35 -32 -35 -25 0
7 -7 10 -17 6 -13 -5 -15 -3 -9 12 6 18 6 18 -12 2 -21 -20 -62 -23 -62 -5 0
9 -3 9 -12 0 -16 -16 -31 -15 -22 1 5 8 3 8 -9 -2 -9 -7 -14 -17 -11 -23 3 -5
-15 -8 -45 -7 -38 2 -50 6 -47 16 5 12 -11 18 -41 14 -9 -1 -11 9 -9 29 4 36
26 63 33 43 4 -10 8 -9 19 2 11 10 21 12 38 5 17 -6 30 -4 45 7 12 8 25 13 28
9 3 -3 14 5 24 17 16 19 20 20 29 7 5 -8 8 -20 6 -26 -3 -8 10 -11 39 -10 24
0 41 4 39 7 -2 3 12 15 31 25 24 12 35 26 35 40 0 40 -60 38 -79 -2 -14 -31
-22 -30 -54 6 -34 38 -51 38 -67 1 -7 -17 -22 -32 -37 -36 -45 -11 -116 6
-151 36 -58 51 -121 51 -150 0 -19 -34 -57 -43 -117 -31 -22 5 -62 14 -90 20
-27 6 -68 12 -90 14 -49 4 -86 18 -104 40 -20 24 -43 19 -81 -20 -40 -41 -126
-85 -161 -83 -13 1 -73 -2 -134 -7 -158 -12 -307 -7 -321 11 -15 20 -26 19
-69 -6 -29 -17 -44 -20 -78 -14 -54 10 -93 14 -192 19 -44 3 -96 9 -115 15
-53 15 -142 20 -167 8 -16 -7 -28 -6 -45 5 -13 8 -43 20 -68 28 -25 7 -82 31
-128 52 -64 31 -90 38 -113 33 -17 -4 -33 -13 -36 -21 -3 -8 -15 -14 -27 -14
-12 0 -30 -6 -41 -13 -32 -22 -81 -29 -235 -32 -134 -3 -178 2 -305 30 -16 4
-40 18 -51 32 -20 24 -23 24 -45 10 -26 -17 -136 -17 -148 -1 -3 5 -32 25 -64
44 -33 19 -64 44 -69 55 -23 43 -100 125 -119 125 -17 0 -19 7 -19 58 0 60
-33 142 -57 142 -9 0 -13 18 -13 58 0 31 -4 63 -8 70 -13 20 -70 32 -98 21
-40 -15 -42 -12 -49 59 -8 74 -17 92 -47 92 -18 0 -19 5 -14 34 5 25 1 44 -16
72 -42 74 -72 81 -112 29z m78 -42 c2 -10 4 -58 4 -106 0 -93 11 -122 44 -114
13 4 18 0 18 -16 0 -22 26 -57 43 -57 6 0 18 -7 28 -16 19 -17 39 -11 39 12 0
8 9 14 21 14 20 0 21 -4 15 -41 -7 -46 11 -109 31 -109 18 0 39 -48 42 -92 1
-31 -2 -38 -16 -37 -37 2 -62 15 -83 42 -18 22 -20 30 -10 42 21 25 -6 75 -39
75 -31 0 -66 -22 -66 -42 0 -7 -9 -12 -19 -10 -10 2 -25 0 -35 -3 -9 -4 -35
-9 -58 -11 -43 -3 -83 -22 -158 -70 -22 -15 -34 -20 -27 -13 17 19 15 29 -7
29 -11 0 -34 -17 -52 -37 -18 -22 -28 -29 -24 -18 4 11 9 38 12 60 3 22 12 47
19 56 8 8 17 31 20 50 12 60 43 83 36 25 -4 -37 11 -54 32 -37 14 12 18 59 7
76 -4 6 -6 16 -5 23 1 6 2 22 3 35 1 25 41 48 71 40 13 -3 22 1 26 12 10 25
-10 39 -29 21 -11 -12 -17 -13 -20 -3 -3 9 -9 9 -26 -1 -19 -11 -21 -10 -21 9
0 13 6 20 18 18 33 -3 42 1 42 19 0 13 7 18 23 18 15 -1 21 4 19 16 -1 9 6 22
17 28 16 8 19 17 15 40 -6 25 -4 28 14 23 23 -6 34 7 22 27 -7 11 -11 11 -24
1 -14 -12 -16 -10 -16 7 0 38 10 53 30 42 10 -6 21 -18 24 -27z m-325 -667
c-9 -8 -10 -7 -5 7 3 10 7 28 7 40 2 16 3 14 6 -7 3 -16 -1 -34 -8 -40z m-9
-24 c0 -5 -13 -21 -29 -36 -20 -19 -40 -28 -65 -29 -20 -1 -31 -4 -24 -8 16
-10 -47 -40 -69 -33 -15 5 -15 4 -3 -5 17 -11 21 -9 -72 -34 -34 -9 -60 -12
-63 -6 -4 5 1 9 10 9 20 0 91 35 132 66 17 13 44 24 59 24 15 0 36 7 46 17 34
31 78 50 78 35z m-395 -52 c-16 -16 -31 -28 -33 -25 -7 7 39 55 52 55 5 0 -3
-13 -19 -30z m170 0 c-30 -31 -48 -33 -24 -3 12 16 11 15 -8 -1 -13 -10 -20
-22 -18 -26 3 -4 -13 -12 -35 -18 -22 -5 -40 -6 -40 -2 0 16 54 61 67 56 8 -3
16 1 19 9 4 9 19 15 37 15 l31 0 -29 -30z m-134 3 c-12 -23 -60 -68 -65 -62
-5 5 61 79 70 79 3 0 0 -8 -5 -17z m7 -33 c-18 -21 -34 -35 -36 -30 -4 10 47
70 60 70 5 0 -6 -18 -24 -40z m9 -76 c-3 -3 -12 -4 -19 -1 -8 3 -5 6 6 6 11 1
17 -2 13 -5z m2231 -18 c12 -4 22 -12 22 -17 0 -6 4 -8 9 -5 17 11 42 -6 36
-23 -5 -13 -4 -14 6 -3 19 18 32 15 24 -5 -5 -15 -4 -16 6 -5 16 15 33 16 23
0 -4 -6 -3 -8 3 -5 13 8 103 -22 103 -34 0 -4 8 -6 18 -2 13 5 11 -1 -8 -23
l-25 -29 28 25 c29 26 49 30 127 30 91 0 101 -4 78 -30 -7 -8 -4 -7 8 3 23 19
39 23 28 6 -4 -8 1 -9 17 -4 l24 7 -22 -24 c-36 -38 -27 -40 10 -3 25 25 40
32 56 28 16 -4 19 -9 11 -18 -6 -7 -9 -19 -8 -26 2 -8 -2 -13 -8 -12 -12 2
-61 -43 -87 -81 -20 -29 -43 -35 -33 -9 6 16 6 16 -11 0 -15 -13 -26 -14 -61
-6 -24 5 -47 7 -52 4 -4 -3 -15 -2 -24 1 -14 5 -14 9 -4 23 8 11 5 10 -10 -3
-32 -27 -40 -11 -11 22 l24 27 -31 -27 c-34 -32 -49 -36 -40 -12 5 14 4 15 -9
4 -8 -7 -15 -8 -15 -2 0 13 -32 10 -48 -5 -7 -7 -21 -13 -30 -13 -12 0 -9 7
11 28 15 15 27 31 27 35 0 4 -14 -8 -31 -28 -31 -35 -32 -35 -105 -33 -54 2
-73 6 -69 16 2 6 0 12 -4 12 -5 0 -11 -6 -14 -12 -2 -7 -8 -10 -12 -6 -5 5 0
18 11 30 12 16 9 14 -12 -4 -34 -31 -54 -37 -33 -10 13 16 12 16 -7 -1 -19
-16 -25 -16 -62 -3 -22 8 -43 11 -47 8 -4 -4 -4 4 -1 18 6 23 6 23 -7 8 -18
-23 -31 -23 -23 -2 5 14 4 15 -9 4 -34 -28 -26 3 11 43 l39 42 -46 -43 c-31
-29 -51 -41 -62 -36 -22 8 -21 13 5 43 21 24 20 24 -8 -2 -20 -18 -37 -25 -47
-21 -19 7 -22 20 -7 29 5 3 15 16 21 28 9 18 6 16 -14 -5 -28 -32 -42 -36 -33
-11 6 16 6 16 -12 0 -21 -20 -52 -23 -52 -5 0 6 8 21 17 32 10 12 1 5 -20 -13
-34 -33 -53 -33 -24 -1 6 8 3 7 -9 -3 -28 -23 -37 -21 -23 6 11 22 11 22 -15
-2 -26 -25 -37 -17 -13 9 6 8 0 4 -15 -9 -32 -28 -35 -22 -11 17 l17 27 -25
-22 c-25 -23 -76 -22 -62 1 4 6 -1 5 -10 -3 -20 -16 -22 -3 -3 22 14 19 42 24
30 6 -5 -8 -2 -9 11 -2 9 6 33 7 54 3 40 -7 250 -4 294 5 20 3 26 1 21 -8 -5
-8 -2 -7 9 2 10 8 20 11 24 8 3 -4 14 -2 24 4 22 11 25 0 7 -21 -7 -8 1 -2 19
14 17 15 36 25 41 22 6 -4 13 -2 17 4 13 21 26 10 15 -12 -6 -13 5 -4 26 20
20 24 40 39 43 34 3 -5 16 -12 29 -16z m-808 -4 c0 -5 -6 -16 -13 -26 -12 -16
-14 -15 -36 8 l-24 26 36 0 c20 0 37 -4 37 -8z m2404 -28 c6 -6 16 -9 21 -7 6
1 17 -2 25 -7 12 -8 9 -16 -20 -47 l-35 -38 40 38 c43 39 71 51 40 17 -10 -11
-14 -20 -9 -20 5 0 15 9 22 20 7 11 20 20 29 20 13 0 11 -6 -10 -28 -15 -15
-27 -31 -27 -35 0 -4 14 8 31 28 28 32 59 50 44 25 -3 -6 1 -7 9 -4 23 9 20
-9 -4 -24 -13 -8 -20 -8 -20 -1 0 5 -5 7 -11 3 -8 -5 -8 -9 1 -14 7 -4 9 -13
6 -19 -4 -6 -2 -11 3 -11 6 0 11 -5 11 -11 0 -6 -6 -9 -13 -6 -15 6 -90 -34
-89 -48 1 -29 -20 -45 -58 -45 -45 0 -48 4 -23 34 15 18 14 18 -8 -1 -31 -28
-49 -30 -24 -3 10 11 15 20 10 20 -4 0 -14 -8 -21 -17 -16 -22 -67 -26 -59 -5
5 12 3 13 -10 2 -24 -20 -31 -3 -9 22 l19 23 -21 -18 c-24 -20 -58 -13 -49 11
4 12 3 13 -10 2 -12 -10 -21 -10 -45 0 -16 7 -41 9 -56 6 -19 -5 -24 -4 -18 6
4 7 -6 0 -23 -15 -19 -18 -36 -25 -46 -21 -21 8 -21 12 0 38 16 19 16 19 -7
-1 -21 -19 -34 -21 -69 -14 -2 1 2 8 9 16 7 8 8 15 4 15 -5 0 -15 -9 -22 -21
-7 -11 -19 -18 -26 -16 -8 3 -23 -1 -35 -9 -29 -21 -26 -6 6 28 27 28 50 38
37 16 -6 -9 -3 -9 9 1 9 7 23 11 31 8 7 -3 19 0 25 6 15 15 14 -5 -1 -23 -7
-8 -2 -5 12 6 14 12 32 22 40 22 8 1 27 3 43 5 15 2 27 1 27 -2 0 -9 73 -6 89
3 8 5 16 4 21 -4 6 -9 10 -8 19 6 8 15 12 16 20 5 6 -9 11 -10 15 -2 4 6 17
16 29 23 21 11 21 10 7 -8 -8 -10 2 -4 22 15 23 21 41 30 50 26 7 -5 10 -5 6
0 -4 4 0 22 9 39 11 22 18 27 21 16 3 -8 10 -20 16 -26z m-2365 7 c13 -8 13
-12 1 -28 -8 -10 -2 -7 13 6 33 30 46 23 13 -8 -20 -19 -27 -20 -50 -10 -29
14 -31 20 -14 37 14 14 18 15 37 3z m2889 -18 c21 -21 29 -38 29 -68 1 -22 -4
-46 -9 -52 -6 -7 -7 -21 -3 -30 5 -10 7 -26 6 -36 -1 -10 8 -21 23 -27 28 -10
36 -44 12 -53 -8 -3 -17 -19 -21 -36 -4 -17 -16 -38 -28 -46 -16 -11 -22 -26
-22 -52 0 -21 -5 -38 -13 -41 -9 -3 -13 3 -10 18 3 19 -2 23 -32 24 -20 2 -48
11 -64 21 -26 17 -26 19 -9 26 28 10 40 29 48 76 9 59 -9 109 -46 125 -16 7
-29 19 -29 25 0 7 -4 13 -9 13 -20 0 -23 41 -4 55 16 13 20 12 35 -5 22 -27
50 -26 46 1 -3 20 47 89 65 89 4 0 20 -12 35 -27z m-2801 -1 c18 -12 -8 -37
-40 -39 l-29 -1 23 24 c24 26 28 27 46 16z m2513 -42 c0 -5 7 -6 17 -3 11 4
14 3 9 -5 -4 -7 -2 -12 4 -12 7 0 10 -6 7 -14 -3 -7 0 -19 6 -25 6 -6 8 -11 3
-11 -4 0 14 -19 41 -41 61 -52 68 -68 57 -121 -8 -38 -13 -43 -39 -46 -41 -5
-50 -16 -29 -36 16 -16 16 -19 0 -34 -19 -20 -45 -9 -61 26 -18 40 -75 36 -75
-4 0 -16 -28 -18 -49 -5 -11 7 -11 14 2 40 15 31 15 32 -12 45 -41 22 -49 37
-40 72 9 31 51 60 70 48 6 -3 19 2 29 11 14 13 17 27 14 71 -4 52 -3 54 21 54
14 0 25 -4 25 -10z m-940 -33 c0 -7 -6 -19 -12 -27 -7 -8 -3 -6 10 4 34 29 36
13 2 -29 -41 -52 -38 -60 4 -10 19 22 42 41 52 41 11 1 24 3 29 4 25 6 46 -1
39 -12 -6 -9 -3 -9 9 0 34 28 34 6 0 -33 -32 -37 -39 -40 -87 -41 -29 0 -58
-4 -65 -8 -18 -11 -31 5 -34 42 -1 18 -6 32 -10 32 -5 0 -5 5 -2 10 4 6 11 8
16 4 6 -3 13 3 16 15 6 23 33 29 33 8z m-129 -43 c34 -32 52 -89 33 -105 -11
-9 -11 -15 2 -35 10 -15 14 -33 9 -53 -4 -18 -2 -32 6 -37 18 -10 39 24 39 64
0 37 15 35 30 -4 12 -31 -6 -74 -46 -108 -24 -20 -43 -26 -78 -26 -39 0 -46 3
-46 20 0 26 -15 25 -41 -1 -13 -13 -26 -18 -37 -13 -9 4 -21 6 -26 5 -58 -14
-129 100 -80 127 10 5 18 29 23 63 6 51 8 54 34 54 23 -1 29 5 39 37 9 31 16
38 42 41 44 5 67 -2 97 -29z m539 -54 c0 -5 7 -6 17 -3 11 4 14 3 9 -5 -4 -7
-1 -12 8 -12 8 0 21 -6 28 -12 7 -7 20 -15 28 -16 17 -4 128 -14 180 -16 27
-1 38 -7 46 -26 6 -14 21 -36 33 -49 16 -18 18 -27 10 -37 -6 -8 -9 -21 -5
-29 7 -19 73 -49 104 -47 16 1 22 -4 24 -21 4 -61 -11 -93 -39 -82 -11 4 -166
6 -203 3 -8 0 -62 4 -120 10 -58 7 -199 15 -315 19 -264 9 -251 9 -307 0 -44
-6 -48 -5 -48 13 0 11 3 20 8 21 4 1 24 3 46 5 30 2 47 12 77 45 33 36 57 88
51 112 -1 4 5 7 14 7 9 0 48 11 86 25 38 14 84 25 101 25 22 0 47 12 80 38 45
36 87 51 87 32z m-162 -10 c27 0 10 -18 -22 -23 -19 -3 -50 -12 -68 -20 -18
-8 -53 -20 -76 -26 -39 -11 -45 -10 -57 6 -12 15 -11 19 3 25 26 10 34 9 26
-3 -5 -8 -1 -8 13 0 11 6 22 8 25 6 2 -3 27 6 54 20 27 13 58 22 69 20 11 -3
26 -5 33 -5z m1199 -24 c4 -3 -19 -6 -50 -6 -31 0 -58 4 -61 9 -6 9 101 7 111
-3z m-1847 -16 c0 -5 -5 -10 -11 -10 -5 0 -7 5 -4 10 3 6 8 10 11 10 2 0 4 -4
4 -10z m1881 -34 c-6 -7 -9 -25 -8 -41 2 -28 0 -30 -51 -38 -52 -9 -54 -10
-48 -35 4 -15 7 -33 8 -40 1 -6 6 -12 12 -11 6 1 26 1 44 0 39 -1 43 -21 4
-21 -16 0 -32 -8 -40 -20 -11 -18 -22 -20 -105 -19 -50 1 -83 4 -72 6 30 7 55
33 55 57 0 37 33 115 60 141 17 17 40 26 73 29 27 2 51 7 54 10 11 11 24 -6
14 -18z m107 -7 c12 0 10 -3 -6 -9 -25 -11 -55 -3 -46 12 3 5 13 7 21 4 8 -3
22 -6 31 -7z m-123 -109 c-3 -5 -13 -10 -21 -10 -8 0 -12 5 -9 10 3 6 13 10
21 10 8 0 12 -4 9 -10z m-365 -60 c37 -36 38 -51 3 -49 -44 3 -93 -11 -93 -27
0 -8 -10 -14 -25 -14 -22 0 -25 4 -25 34 0 32 3 35 50 51 28 9 50 21 50 26 0
15 7 11 40 -21z m380 -50 c0 -5 -7 -10 -16 -10 -8 0 -12 5 -9 10 3 6 10 10 16
10 5 0 9 -4 9 -10z m-353 -72 l-2 -33 -75 3 c-41 2 -79 7 -84 12 -10 10 75 24
108 18 17 -3 23 -1 19 8 -2 7 4 14 14 17 10 3 19 5 20 6 1 0 1 -14 0 -31z
m306 22 c4 0 7 -4 7 -10 0 -5 -6 -7 -13 -4 -20 7 -67 -13 -67 -29 0 -11 -18
-14 -80 -13 -80 1 -80 1 -80 28 0 20 6 27 23 30 17 2 127 1 210 -2z m-1428
-11 c46 -1 60 -4 41 -8 -42 -9 -196 -1 -171 10 11 4 29 6 40 4 11 -3 52 -5 90
-6z m1635 -9 c-20 -13 -90 -13 -90 0 0 6 24 10 53 10 37 0 48 -3 37 -10z
m-1457 -7 c-13 -2 -33 -2 -45 0 -13 2 -3 4 22 4 25 0 35 -2 23 -4z m586 -3
c70 -1 119 -5 111 -10 -17 -11 -610 -4 -622 8 -7 7 141 8 511 2z m-324 -36
c49 -7 177 -12 338 -13 109 -1 117 -2 117 -20 0 -11 -9 -23 -21 -26 -39 -13
-13 -30 49 -33 69 -3 88 11 51 39 -36 27 -14 36 74 31 68 -4 77 -6 77 -24 0
-10 -12 -30 -27 -44 -23 -21 -25 -27 -13 -34 8 -6 32 -10 52 -10 20 0 40 -5
44 -12 5 -7 3 -8 -7 -2 -8 5 -306 10 -664 12 -357 1 -693 4 -745 6 -52 2 -135
5 -185 6 l-90 3 78 7 c80 8 107 20 107 50 0 20 -19 30 -58 31 -46 1 4 15 79
23 60 6 67 5 65 -11 -1 -15 8 -18 54 -19 54 -1 85 10 74 27 -3 5 -14 9 -25 9
-10 0 -19 5 -19 11 0 11 507 5 595 -7z M767 2264 c-15 -15 -7 -45 11 -42 9 2
17 12 17 22 0 20 -16 31 -28 20z M181 1717 c-13 -21 -12 -21 5 -5 10 10 16 20
13 22 -3 3 -11 -5 -18 -17z M2311 1577 l-34 -42 38 37 c22 21 37 39 34 42 -2
2 -19 -14 -38 -37z M2220 1555 c-7 -9 -8 -15 -2 -15 5 0 12 7 16 15 3 8 4 15
2 15 -2 0 -9 -7 -16 -15z M2399 1553 c-13 -16 -12 -17 4 -4 9 7 17 15 17 17 0
8 -8 3 -21 -13z M2304 1528 l-29 -33 33 29 c30 28 37 36 29 36 -2 0 -16 -15
-33 -32z M2115 1508 l-40 -43 43 40 c39 36 47 45 39 45 -2 0 -21 -19 -42 -42z
M2235 1530 c-10 -11 -16 -22 -14 -24 2 -2 12 7 22 20 22 29 17 32 -8 4z M2405
1524 c-9 -15 -12 -23 -6 -20 11 7 35 46 28 46 -3 0 -12 -12 -22 -26z M2046
1512 l-19 -27 26 24 c28 26 32 31 20 31 -5 0 -17 -13 -27 -28z M2090 1525 c-7
-9 -8 -15 -2 -15 5 0 12 7 16 15 3 8 4 15 2 15 -2 0 -9 -7 -16 -15z M2504
1518 l-19 -23 23 19 c21 18 27 26 19 26 -2 0 -12 -10 -23 -22z M2511 1487
c-42 -49 -43 -50 -7 -17 32 29 64 71 54 70 -2 -1 -23 -24 -47 -53z M2170 1495
c-18 -19 -32 -37 -29 -39 2 -3 19 13 37 35 41 48 37 51 -8 4z M2359 1513 c-13
-16 -12 -17 4 -4 9 7 17 15 17 17 0 8 -8 3 -21 -13z M2424 1508 l-19 -23 23
19 c21 18 27 26 19 26 -2 0 -12 -10 -23 -22z M2559 1503 l-24 -28 28 24 c25
23 32 31 24 31 -2 0 -14 -12 -28 -27z M2300 1485 c-18 -19 -32 -37 -29 -39 2
-3 19 13 37 35 41 48 37 51 -8 4z M2456 1504 c-5 -14 -4 -15 9 -4 17 14 19 20
6 20 -5 0 -12 -7 -15 -16z M2689 1493 l-24 -28 28 24 c25 23 32 31 24 31 -2 0
-14 -12 -28 -27z M2706 1472 l-30 -37 37 34 c38 36 42 42 30 40 -5 0 -21 -17
-37 -37z M2754 1488 l-19 -23 23 19 c21 18 27 26 19 26 -2 0 -12 -10 -23 -22z
M2229 1483 c-13 -16 -12 -17 4 -4 9 7 17 15 17 17 0 8 -8 3 -21 -13z M2649
1483 c-13 -16 -12 -17 4 -4 16 13 21 21 13 21 -2 0 -10 -8 -17 -17z M2352
1465 c-12 -14 -18 -25 -13 -25 5 0 16 11 25 25 9 14 15 25 13 25 -2 0 -13 -11
-25 -25z M2564 1468 l-19 -23 23 19 c21 18 27 26 19 26 -2 0 -12 -10 -23 -22z
M2249 1463 c-13 -16 -12 -17 4 -4 9 7 17 15 17 17 0 8 -8 3 -21 -13z M2419
1463 c-13 -16 -12 -17 4 -4 9 7 17 15 17 17 0 8 -8 3 -21 -13z M2759 1453
l-24 -28 28 24 c25 23 32 31 24 31 -2 0 -14 -12 -28 -27z M2834 1458 l-19 -23
23 19 c12 11 22 21 22 23 0 8 -8 2 -26 -19z M2299 1443 l-24 -28 28 24 c25 23
32 31 24 31 -2 0 -14 -12 -28 -27z M2369 1443 l-24 -28 28 24 c25 23 32 31 24
31 -2 0 -14 -12 -28 -27z M2428 1435 c-16 -18 -28 -36 -28 -39 0 -4 14 9 31
29 18 20 30 37 28 39 -2 1 -16 -12 -31 -29z M2889 1443 c-35 -39 -58 -74 -28
-43 38 40 63 70 57 70 -2 0 -15 -12 -29 -27z M2186 1432 l-19 -27 26 24 c28
26 32 31 20 31 -5 0 -17 -13 -27 -28z M2639 1433 l-24 -28 28 24 c25 23 32 31
24 31 -2 0 -14 -12 -28 -27z M2704 1428 l-19 -23 23 19 c12 11 22 21 22 23 0
8 -8 2 -26 -19z M2774 1428 l-19 -23 23 19 c12 11 22 21 22 23 0 8 -8 2 -26
-19z M2239 1413 c-13 -16 -12 -17 4 -4 9 7 17 15 17 17 0 8 -8 3 -21 -13z
M2439 1403 l-24 -28 28 24 c25 23 32 31 24 31 -2 0 -14 -12 -28 -27z M2485
1419 c-4 -6 -5 -12 -2 -15 2 -3 7 2 10 11 7 17 1 20 -8 4z M2369 1403 c-13
-16 -12 -17 4 -4 9 7 17 15 17 17 0 8 -8 3 -21 -13z M2704 1388 l-19 -23 23
19 c21 18 27 26 19 26 -2 0 -12 -10 -23 -22z M2764 1378 l-19 -23 23 19 c21
18 27 26 19 26 -2 0 -12 -10 -23 -22z M3934 1528 l-29 -33 33 29 c30 28 37 36
29 36 -2 0 -16 -15 -33 -32z M3959 1513 c-13 -16 -12 -17 4 -4 16 13 21 21 13
21 -2 0 -10 -8 -17 -17z M3999 1483 l-24 -28 28 24 c25 23 32 31 24 31 -2 0
-14 -12 -28 -27z M3879 1463 l-24 -28 28 24 c25 23 32 31 24 31 -2 0 -14 -12
-28 -27z M3599 1463 c-13 -16 -12 -17 4 -4 9 7 17 15 17 17 0 8 -8 3 -21 -13z
M3800 1455 c-13 -14 -19 -25 -14 -25 8 1 50 50 41 50 -2 0 -14 -11 -27 -25z
M3999 1448 c-43 -58 -50 -68 -46 -68 8 0 79 91 75 95 -2 3 -15 -10 -29 -27z
M4050 1465 c-7 -9 -8 -15 -2 -15 5 0 12 7 16 15 3 8 4 15 2 15 -2 0 -9 -7 -16
-15z M3729 1453 c-13 -16 -12 -17 4 -4 16 13 21 21 13 21 -2 0 -10 -8 -17 -17z
M3939 1453 c-13 -16 -12 -17 4 -4 16 13 21 21 13 21 -2 0 -10 -8 -17 -17z
M3570 1429 c0 -5 5 -7 10 -4 6 3 10 8 10 11 0 2 -4 4 -10 4 -5 0 -10 -5 -10
-11z M3874 1418 l-19 -23 23 19 c12 11 22 21 22 23 0 8 -8 2 -26 -19z M1585
1579 c-4 -6 -5 -12 -2 -15 2 -3 7 2 10 11 7 17 1 20 -8 4z M4319 1493 c-13
-16 -12 -17 4 -4 9 7 17 15 17 17 0 8 -8 3 -21 -13z M3343 1448 c-15 -20 -25
-38 -20 -38 3 0 12 11 21 25 17 26 16 35 -1 13z M3354 1418 l-19 -23 23 19
c12 11 22 21 22 23 0 8 -8 2 -26 -19z M4138 2254 c-15 -8 -54 -17 -87 -20 -70
-8 -94 -19 -71 -34 8 -5 24 -10 36 -10 42 0 174 53 174 70 0 14 -20 12 -52 -6z
M910 1858 c-45 -12 -58 -24 -42 -40 9 -9 15 -9 24 0 20 20 77 14 112 -13 25
-19 35 -22 44 -13 48 48 -42 90 -138 66z M1150 1774 c0 -10 7 -14 22 -12 32 5
35 28 4 28 -17 0 -26 -5 -26 -16z M540 1720 c0 -5 5 -10 11 -10 5 0 7 5 4 10
-3 6 -8 10 -11 10 -2 0 -4 -4 -4 -10z M506 1684 c-23 -23 -20 -30 4 -9 11 10
20 20 20 22 0 7 -9 2 -24 -13z M364 1609 c-3 -6 1 -18 11 -27 16 -16 17 -15
10 8 -7 24 -7 24 12 8 11 -10 23 -18 28 -18 4 0 -2 9 -15 20 -26 23 -36 25
-46 9z M309 1583 c-13 -16 -12 -17 4 -4 9 7 17 15 17 17 0 8 -8 3 -21 -13z
M4676 1423 c-6 -14 -5 -15 5 -6 7 7 10 15 7 18 -3 3 -9 -2 -12 -12z M555 1230
c3 -5 8 -10 11 -10 2 0 4 5 4 10 0 6 -5 10 -11 10 -5 0 -7 -4 -4 -10z M4795
930 c-9 -15 13 -40 37 -40 14 0 19 6 16 23 -3 24 -41 36 -53 17z M67 918 c-3
-8 5 -14 19 -14 20 -2 21 0 9 12 -17 17 -22 17 -28 2z M690 900 c-13 -8 -12
-10 3 -10 9 0 17 5 17 10 0 12 -1 12 -20 0z M870 906 c0 -2 7 -7 16 -10 8 -3
12 -2 9 4 -6 10 -25 14 -25 6z M1132 896 c7 -8 15 -12 17 -11 5 6 -10 25 -20
25 -5 0 -4 -6 3 -14z M731 729 c-77 -13 -147 -69 -179 -143 -18 -39 -9 -150
13 -172 8 -9 15 -19 15 -24 0 -5 25 -23 56 -40 71 -41 162 -51 228 -26 42 16
62 38 51 56 -3 4 -26 11 -52 14 -93 14 -107 17 -135 34 -16 9 -43 40 -59 69
-27 47 -29 56 -19 92 5 21 18 49 28 60 22 27 77 34 115 15 26 -14 28 -19 23
-49 -8 -41 4 -50 49 -35 36 12 65 43 65 70 -1 26 -47 69 -82 75 -18 3 -40 7
-48 9 -8 2 -39 -1 -69 -5z M207 719 c-24 -14 -21 -28 7 -35 l23 -6 -23 -49
c-28 -56 -48 -111 -71 -187 -10 -33 -25 -60 -40 -69 -49 -32 -14 -58 62 -45
35 6 40 11 42 37 6 62 27 136 42 144 9 5 30 8 46 6 17 -1 39 -3 50 -3 16 -2
25 -15 38 -57 21 -68 21 -84 3 -104 -26 -29 -4 -43 70 -45 38 -1 75 2 81 7 20
15 15 36 -10 48 -17 8 -27 25 -37 62 -7 29 -13 53 -12 54 0 2 -4 17 -10 35 -5
18 -14 51 -19 73 -5 22 -12 51 -15 65 -4 14 -7 36 -8 50 -1 25 -2 25 -101 26
-56 1 -108 -2 -118 -7z m132 -94 c6 -25 10 -48 9 -52 -3 -7 -25 -8 -75 -4 -31
2 5 101 37 101 13 0 21 -12 29 -45z M1004 703 c-14 -14 -13 -18 4 -37 17 -18
19 -32 16 -101 -8 -157 -12 -186 -28 -204 -34 -37 -22 -41 124 -41 149 0 190
11 190 50 0 9 9 25 20 35 11 10 17 21 15 25 -10 16 -46 -3 -63 -32 -16 -28
-19 -29 -87 -26 l-70 3 -5 45 c-3 25 -2 61 1 80 6 35 10 32 25 -17 4 -15 14
-16 33 -4 18 12 22 107 6 121 -8 7 -18 3 -30 -10 -27 -30 -35 -25 -35 25 l0
45 49 0 48 0 9 -42 c7 -32 14 -44 30 -46 16 -2 23 5 30 30 9 28 4 92 -7 102
-2 2 -62 6 -132 9 -106 4 -130 2 -143 -10z M3397 696 c-29 -11 -29 -11 -9 -30
12 -10 24 -16 29 -13 8 5 7 -199 -2 -269 -4 -30 -12 -45 -30 -54 -14 -7 -25
-17 -25 -20 0 -10 54 -20 111 -20 38 0 49 4 49 16 0 9 -9 18 -20 21 -17 4 -20
14 -21 57 -1 28 -3 79 -5 114 -1 34 1 62 4 62 4 0 16 -15 27 -32 10 -18 55
-79 99 -135 84 -109 96 -116 151 -91 l26 12 -7 169 c-6 143 -5 169 7 165 19
-7 49 10 49 27 0 26 -149 33 -158 7 -2 -7 5 -16 16 -18 17 -5 20 -15 21 -100
1 -94 -7 -115 -29 -73 -6 11 -34 45 -61 75 -27 30 -49 61 -49 69 0 8 -7 15
-15 15 -8 0 -15 7 -15 15 0 18 -44 37 -74 33 -12 -1 -25 0 -31 4 -5 3 -23 1
-38 -6z M2193 687 c-48 -9 -61 -37 -17 -37 22 0 30 -10 56 -67 17 -38 37 -90
45 -118 8 -27 26 -69 40 -93 18 -32 22 -47 14 -56 -17 -21 -2 -26 76 -26 72 0
73 0 73 26 0 18 -4 25 -14 21 -14 -5 -46 21 -46 38 0 4 15 26 34 49 18 23 36
51 40 63 10 32 45 40 65 16 107 -133 122 -167 71 -168 -15 0 -26 -7 -28 -17
-3 -15 4 -18 45 -18 26 0 58 -3 71 -6 25 -7 30 13 11 44 -8 13 -4 33 16 87 15
39 36 99 47 135 26 80 33 90 69 90 21 0 29 5 29 18 0 17 -10 19 -90 21 -75 1
-90 -1 -90 -14 0 -10 10 -15 30 -15 17 0 30 -4 30 -9 0 -13 -61 -174 -70 -184
-4 -5 -30 23 -59 61 -75 101 -101 107 -152 32 -19 -27 -37 -50 -41 -50 -4 0
-14 -13 -23 -30 -9 -16 -20 -30 -26 -30 -12 0 -89 160 -98 205 -8 35 -43 46
-108 32z M2991 682 c-19 -6 -12 -22 14 -32 l25 -9 -25 -57 c-14 -31 -25 -62
-25 -69 0 -30 -74 -175 -91 -180 -11 -4 -19 -13 -19 -20 0 -17 50 -27 110 -23
37 2 45 6 45 23 0 13 -6 19 -17 17 -15 -2 -17 3 -11 30 3 18 14 51 23 74 l18
40 56 -6 c31 -3 60 -10 64 -16 11 -11 32 -113 29 -137 -2 -17 6 -19 73 -19 55
0 76 3 78 13 1 8 -8 19 -20 24 -14 6 -23 19 -24 33 -1 13 -6 40 -12 60 -44
153 -54 213 -40 230 6 7 9 15 6 17 -6 6 -241 12 -257 7z m142 -94 c4 -24 9
-52 13 -64 5 -19 2 -20 -41 -18 -26 1 -49 5 -52 8 -3 3 5 19 17 35 12 17 19
31 15 31 -3 0 2 13 11 29 22 37 30 33 37 -21z M3921 668 c-10 -27 -6 -38 15
-38 14 0 16 -10 18 -90 2 -140 -4 -210 -18 -210 -19 0 -31 -19 -19 -31 23 -23
200 -27 272 -5 76 22 97 39 127 98 23 44 25 60 20 106 -7 55 -31 102 -70 134
-37 31 -108 47 -224 53 -110 5 -113 5 -121 -17z m257 -38 c49 0 60 -254 12
-280 -27 -14 -101 -18 -105 -6 -2 6 -6 73 -10 148 l-6 137 28 4 c15 2 37 3 48
1 11 -2 26 -4 33 -4z M4554 669 c-34 -14 -61 -43 -72 -77 -10 -30 -9 -35 28
-73 l39 -41 66 4 c61 5 67 4 85 -20 23 -28 25 -69 6 -94 -10 -14 -28 -18 -74
-18 -79 0 -92 6 -92 40 0 35 -11 43 -43 31 -31 -12 -101 -108 -85 -117 18 -11
301 -12 323 -1 11 5 32 21 48 35 39 37 39 102 -1 142 -29 28 -128 58 -158 46
-19 -7 -84 51 -84 75 0 23 26 36 67 34 57 -4 78 -14 101 -49 17 -24 28 -32 43
-29 10 3 19 8 20 12 0 3 3 19 5 35 11 67 5 71 -105 72 -54 0 -107 -3 -117 -7z
M1839 600 c-9 -5 -24 -21 -32 -34 -16 -23 -15 -29 9 -93 14 -37 32 -83 40
-101 18 -39 15 -102 -6 -112 -8 -5 -26 -13 -40 -18 -22 -9 -18 -11 27 -11 68
-1 86 23 87 115 1 61 7 77 21 54 12 -20 35 -10 35 14 0 41 -18 76 -39 76 -21
0 -45 -23 -34 -33 3 -4 1 -7 -5 -7 -7 0 -12 7 -12 15 0 8 -4 15 -9 15 -5 0
-11 11 -13 25 -4 20 -1 24 16 22 29 -3 33 36 7 62 -23 23 -29 25 -52 11z
M1667 445 c-20 -14 -38 -31 -38 -38 -3 -33 4 -54 27 -74 33 -30 84 -24 127 14
l32 28 -17 34 c-10 20 -30 40 -49 48 -41 17 -38 17 -82 -12z m61 -53 c3 -16
-2 -22 -17 -22 -24 0 -35 15 -27 36 9 23 40 13 44 -14z M4862 358 c-21 -21
-15 -68 10 -77 43 -16 59 -3 56 43 -3 35 -6 41 -28 44 -14 2 -31 -3 -38 -10z
M80 239 c-30 -5 -26 -7 23 -8 31 0 57 1 57 3 0 8 -47 11 -80 5z M178 233 c6
-2 18 -2 25 0 6 3 1 5 -13 5 -14 0 -19 -2 -12 -5z M367 233 c18 -2 50 -2 70 0
21 2 7 4 -32 4 -38 0 -55 -2 -38 -4z"/>
</g>
</svg>
