<?xml version="1.0" standalone="no"?>
<!DOCTYPE svg PUBLIC "-//W3C//DTD SVG 20010904//EN"
 "http://www.w3.org/TR/2001/REC-SVG-20010904/DTD/svg10.dtd">
<svg version="1.0" xmlns="http://www.w3.org/2000/svg"
 width="500.000000pt" height="878.000000pt" viewBox="0 0 500.000000 878.000000"
 preserveAspectRatio="xMidYMid meet">
<metadata>
Created by potrace 1.16, written by Peter Selinger 2001-2019
</metadata>
<g transform="translate(0.000000,878.000000) scale(0.100000,-0.100000)"
fill="#000000" stroke="none">
<path d="M4828 8693 c7 -3 16 -2 19 1 4 3 -2 6 -13 5 -11 0 -14 -3 -6 -6z
M2330 8553 c-30 -9 -60 -27 -60 -35 0 -4 20 -8 45 -8 l44 0 0 -47 c0 -27 -2
-69 -5 -95 l-6 -47 -56 -3 c-43 -2 -57 -7 -57 -18 0 -13 32 -15 230 -15 198 0
230 2 230 15 0 11 -14 16 -57 18 l-56 3 -6 57 c-14 142 -15 137 26 137 37 0
68 18 54 32 -8 9 -301 14 -326 6z m169 -138 l-1 -95 -34 0 -33 0 0 68 c0 37
-3 79 -6 95 -5 26 -4 27 35 27 l41 0 -2 -95z M841 8153 c-16 -55 -13 -88 8
-114 l18 -23 -38 -19 c-47 -23 -55 -63 -15 -73 32 -8 62 -1 59 14 -2 6 3 9 11
6 21 -8 -3 -49 -36 -62 -35 -13 -46 -39 -25 -59 14 -15 14 -19 0 -46 -11 -22
-12 -36 -5 -52 6 -13 7 -55 3 -105 -4 -46 -6 -93 -4 -104 1 -12 5 -97 7 -191
3 -93 8 -228 12 -300 3 -71 5 -179 3 -240 -1 -60 -1 -141 1 -180 3 -68 4 -295
1 -383 -1 -30 -5 -42 -13 -39 -13 4 -14 28 -2 86 l7 34 -41 -5 c-35 -5 -41 -3
-46 16 -4 11 -27 36 -52 55 -54 39 -68 33 -79 -35 -6 -38 -4 -43 27 -70 25
-22 34 -38 34 -59 -1 -28 2 -30 39 -35 24 -3 55 -17 78 -35 36 -29 37 -32 37
-95 0 -36 2 -78 4 -95 17 -138 27 -298 21 -321 -4 -16 -9 -204 -10 -419 -1
-214 -6 -479 -10 -588 -8 -193 -9 -199 -31 -207 -19 -7 -23 -18 -26 -67 -3
-38 0 -63 9 -74 10 -12 10 -18 0 -28 -9 -10 -8 -15 7 -26 14 -11 17 -22 12
-45 -4 -20 -1 -36 7 -45 20 -20 10 -85 -14 -85 -36 0 -125 22 -149 38 -14 9
-44 15 -72 14 -45 -1 -50 2 -93 50 -43 48 -46 50 -77 39 -18 -6 -41 -20 -53
-30 -11 -11 -53 -36 -93 -57 -57 -28 -89 -38 -143 -42 -65 -4 -69 -6 -69 -28
0 -13 5 -24 11 -24 5 0 7 -4 4 -10 -3 -5 -1 -10 4 -10 6 0 11 4 11 9 0 5 7 12
16 15 15 6 15 3 -1 -21 l-18 -28 29 26 c27 24 81 39 69 18 -4 -5 -1 -9 4 -9 6
0 11 4 11 10 0 5 26 22 57 37 32 15 60 32 61 36 2 4 26 19 52 32 27 14 52 30
55 36 9 14 108 -88 102 -105 -7 -17 38 -9 54 10 9 11 18 10 52 -3 23 -9 44
-19 47 -22 8 -9 51 -16 105 -16 l50 0 3 -40 c8 -97 11 -90 -35 -91 -23 -1 -40
3 -37 8 3 4 10 6 15 3 5 -4 5 3 0 16 -8 22 -12 23 -149 23 -78 0 -142 4 -142
9 0 4 -6 5 -13 0 -6 -4 -38 -8 -69 -8 -32 0 -58 4 -58 8 0 5 -5 5 -12 1 -7 -4
-23 -9 -36 -10 -18 -2 -22 1 -18 13 6 14 4 14 -10 2 -20 -16 -106 -21 -97 -5
4 6 -1 5 -11 -3 -15 -13 -19 -13 -27 0 -6 10 -9 11 -9 1 0 -7 -5 -10 -10 -7
-6 4 -7 12 -3 18 3 7 -3 4 -14 -6 -11 -9 -25 -17 -31 -17 -7 0 -12 -12 -12
-26 0 -14 4 -23 9 -19 5 3 16 -2 24 -10 17 -16 32 -20 23 -6 -8 12 39 20 56
10 7 -4 18 -4 24 2 7 6 21 6 38 -1 17 -6 26 -6 26 0 0 6 7 10 15 10 8 0 15 -5
15 -11 0 -8 5 -7 16 2 13 10 17 10 24 0 5 -9 9 -10 11 -2 5 14 209 3 209 -11
0 -4 -17 -8 -37 -9 -21 0 -50 -2 -66 -4 -19 -3 -25 0 -21 8 3 7 -2 3 -10 -7
-22 -27 -20 -43 8 -61 19 -13 55 -16 183 -16 87 0 165 1 173 2 8 1 28 1 44 1
22 -2 27 -6 22 -18 -4 -9 -7 -112 -7 -229 l0 -212 -52 -2 c-104 -2 -212 -9
-232 -14 -11 -3 -35 -6 -52 -6 -28 -1 -33 -5 -33 -26 0 -22 -4 -25 -42 -27
-24 -1 -61 -3 -83 -4 -22 -2 -94 -5 -160 -6 -112 -3 -120 -4 -120 -23 0 -23
-23 -22 253 -10 209 8 236 13 240 42 3 23 49 31 201 34 l85 2 -3 -59 c-1 -32
-4 -60 -5 -61 -3 -3 -648 -5 -661 -3 -6 2 -34 2 -62 1 -46 -1 -53 -4 -53 -21
0 -18 8 -19 118 -21 177 -2 229 -2 449 0 111 2 207 0 213 -4 6 -4 9 -54 8
-134 l-3 -128 35 -22 35 -21 -275 4 c-334 4 -293 4 -365 1 -33 -1 -95 -3 -137
-4 l-78 -1 0 -142 c0 -78 3 -139 6 -135 4 3 6 56 5 117 -1 67 3 110 9 110 6 0
10 -38 11 -92 2 -134 1 -133 27 -136 21 -3 22 0 23 65 0 37 0 92 -1 122 -1 40
2 52 12 49 18 -6 26 -73 17 -155 -4 -42 -3 -73 3 -80 8 -10 0 -13 -35 -13 -59
0 -77 -8 -77 -32 0 -20 3 -20 393 -14 215 4 439 8 497 9 l105 2 1 -132 c1 -72
5 -152 8 -177 5 -30 4 -46 -3 -46 -6 0 -11 6 -11 14 0 19 -48 56 -72 56 -18 0
-18 1 3 29 11 16 19 37 17 47 -4 19 -8 19 -70 7 -23 -4 -28 -2 -28 14 0 21
-50 103 -63 103 -4 0 -10 -8 -13 -17 -3 -10 -14 -35 -25 -56 -10 -22 -19 -45
-19 -53 0 -8 -10 -14 -23 -14 -49 0 -92 -81 -52 -96 11 -5 14 -17 12 -42 -5
-48 -19 -50 -40 -7 -19 39 -36 44 -60 17 -21 -23 -21 -41 -1 -70 8 -12 12 -22
7 -21 -31 5 -52 -24 -33 -46 6 -7 9 -19 8 -26 -2 -8 3 -13 10 -12 6 2 12 -2
12 -7 0 -6 -6 -10 -13 -10 -7 0 -26 -14 -42 -30 -16 -17 -32 -30 -36 -30 -4 0
-21 19 -39 43 -28 38 -30 47 -25 89 6 42 5 47 -15 50 l-22 3 22 28 c19 24 21
32 11 54 -9 21 -14 23 -26 13 -12 -10 -15 -9 -15 4 0 9 6 16 14 16 8 0 27 11
43 23 15 13 40 27 56 31 22 5 27 12 27 39 0 21 -9 42 -26 60 -14 16 -23 35
-20 43 4 9 -6 21 -25 33 -47 29 -92 34 -135 16 -22 -9 -41 -12 -48 -7 -6 5
-26 14 -45 21 -43 14 -91 -3 -91 -34 0 -11 -14 -31 -31 -46 l-32 -27 19 -26
c11 -14 25 -26 32 -26 49 -1 98 -61 90 -112 -3 -22 -4 -22 -18 6 -20 39 -36
43 -44 11 -6 -24 -9 -25 -54 -21 -64 8 -74 -1 -70 -60 3 -44 6 -51 35 -65 18
-9 30 -19 26 -22 -11 -12 19 -37 43 -37 28 0 29 -7 9 -34 -8 -11 -15 -23 -15
-27 0 -13 33 -19 46 -8 16 13 16 12 18 -50 2 -29 8 -48 20 -57 23 -16 14 -31
-19 -31 -22 0 -25 4 -25 32 0 39 -23 63 -43 46 -11 -8 -19 -5 -37 14 -13 14
-32 25 -42 25 -17 0 -18 -11 -18 -144 0 -86 4 -147 10 -151 13 -8 13 -55 0
-55 -5 0 -10 -18 -10 -39 0 -67 60 -99 124 -66 18 10 33 12 39 6 5 -5 4 -11
-2 -15 -23 -15 -10 -54 34 -100 25 -26 50 -44 55 -41 6 3 10 26 10 50 0 58 8
75 35 75 62 0 73 39 25 85 -35 34 -41 75 -10 75 11 0 23 -8 27 -17 10 -29 35
-53 54 -53 26 0 50 39 39 61 -14 25 -13 33 10 47 18 11 24 10 44 -5 27 -22 23
-41 -11 -54 -33 -12 -24 -33 15 -37 18 -2 32 -7 32 -11 0 -15 -25 -31 -50 -31
l-25 -1 24 -19 c16 -14 31 -18 48 -14 25 7 25 7 9 -24 -15 -29 -18 -30 -48
-20 -81 25 -92 11 -46 -57 41 -60 73 -84 118 -89 19 -2 36 -8 36 -15 1 -6 2
-15 3 -20 2 -19 42 -23 67 -6 17 11 35 14 54 10 16 -4 43 0 64 9 36 15 45 29
26 41 -6 4 0 18 15 37 18 22 25 41 25 74 0 51 -17 64 -55 44 -30 -16 -55 -7
-55 19 0 18 3 19 26 11 36 -14 47 -4 28 26 -22 32 -14 38 35 24 61 -16 161 14
161 48 0 35 -126 132 -151 116 -5 -3 -23 -3 -38 1 -29 6 -29 6 -13 35 16 28
16 30 -1 47 -17 17 -19 17 -32 0 -12 -17 -15 -17 -38 -2 -27 17 -24 19 -67
-35 l-20 -25 -26 30 c-59 69 -60 72 -23 102 44 38 61 43 82 25 13 -12 20 -13
29 -4 16 16 28 15 28 -2 0 -15 62 -66 79 -66 6 0 11 9 11 19 0 11 5 23 10 26
20 12 9 44 -20 62 -16 9 -30 21 -30 25 0 15 54 -22 82 -56 16 -20 36 -36 44
-36 15 0 33 37 36 76 2 16 7 23 16 19 8 -3 26 -5 40 -5 l27 0 0 -355 c0 -233
-3 -355 -10 -356 -53 -4 -148 -8 -360 -14 -137 -4 -272 -9 -300 -11 -27 -2
-114 -4 -192 -3 l-143 0 0 -45 c0 -27 5 -46 11 -46 6 0 9 9 6 20 -3 11 0 20 6
20 9 0 12 -55 10 -203 0 -112 2 -210 7 -217 15 -24 40 -3 39 32 -1 18 -1 115
0 216 1 169 2 183 18 180 14 -3 18 -12 16 -43 -1 -22 -2 -47 -2 -55 -1 -8 2
-32 5 -53 5 -30 3 -37 -10 -37 -20 0 -20 -29 -1 -54 19 -25 19 -36 0 -36 -18
0 -19 -12 -3 -28 14 -14 20 -131 8 -147 -4 -5 -10 -19 -12 -30 l-5 -20 -8 20
c-18 42 -55 48 -55 8 0 -26 -1 -26 -15 -7 -13 18 -14 16 -15 -21 l0 -40 268
-2 c147 -1 321 -2 387 -3 66 -1 143 1 170 4 28 3 88 8 135 10 116 7 166 15
179 29 5 7 11 84 13 177 l3 165 160 -1 c88 -1 292 -3 454 -6 208 -2 298 0 309
8 19 14 8 34 -18 34 -19 0 -26 15 -32 70 -2 14 -9 25 -18 25 -11 0 -15 -12
-14 -47 0 -34 -4 -48 -13 -48 -9 0 -13 14 -11 45 1 50 -4 60 -27 52 -10 -5
-15 -20 -15 -52 0 -25 -4 -45 -10 -45 -5 0 -10 14 -10 30 0 23 -4 30 -20 30
-20 0 -24 -9 -21 -42 2 -15 -6 -18 -42 -18 -43 0 -43 1 -39 30 3 22 0 30 -11
30 -8 0 -17 9 -20 20 -5 21 -31 27 -42 10 -3 -6 -7 -28 -7 -50 0 -22 -4 -40
-9 -40 -10 0 -13 19 -10 72 2 28 -2 40 -14 44 -25 10 -37 -15 -31 -68 l5 -48
-60 0 c-53 0 -62 3 -66 21 -5 18 -11 19 -44 14 l-39 -7 0 59 c0 68 -5 77 -32
62 -15 -8 -24 -7 -37 5 -19 17 -51 22 -51 7 0 -5 7 -14 15 -21 8 -7 15 -24 14
-39 0 -14 -3 -20 -6 -13 -2 6 -14 12 -25 12 -27 0 -20 -34 8 -38 17 -2 20 -8
16 -29 l-5 -26 -17 23 c-19 25 -57 21 -47 -4 5 -11 -7 -14 -53 -15 -33 0 -62
4 -65 8 -2 5 -4 114 -4 242 1 129 1 297 0 374 -2 123 0 138 12 121 19 -25 37
-13 38 27 2 31 2 31 6 4 5 -32 31 -47 44 -26 5 8 9 28 10 44 l1 30 8 -35 c5
-19 4 -42 -1 -52 -14 -27 -11 -84 7 -99 13 -10 17 -10 24 1 11 18 24 146 16
159 -4 5 -2 12 3 15 12 8 21 -18 21 -60 0 -27 4 -34 20 -34 11 0 20 -6 20 -13
0 -8 -10 -13 -21 -13 -28 1 -44 -24 -35 -57 7 -29 34 -36 41 -12 3 8 7 22 10
31 9 28 13 12 20 -66 9 -107 13 -122 33 -118 9 2 18 13 20 26 2 13 10 22 22
22 18 0 30 26 30 69 0 21 -3 23 -29 18 -29 -6 -29 -6 -36 54 -5 38 -14 66 -25
77 -10 9 -20 31 -22 47 -3 26 0 30 25 33 23 3 27 0 27 -23 0 -37 17 -65 35
-59 8 4 15 18 15 33 1 25 1 25 15 7 8 -11 21 -16 30 -12 9 3 18 0 21 -9 4 -8
10 -15 15 -15 16 0 27 43 17 63 -8 16 -5 17 34 11 53 -8 61 -14 20 -14 -25 0
-32 -4 -32 -20 0 -11 9 -29 20 -40 19 -19 20 -34 21 -173 1 -165 3 -187 24
-187 21 0 23 18 24 197 0 94 4 178 7 187 3 9 1 23 -6 31 -10 13 -8 15 13 15
23 0 24 -2 19 -47 -2 -27 -8 -54 -12 -62 -11 -21 0 -51 20 -51 12 0 20 10 24
28 16 82 18 103 7 116 -9 11 -6 12 15 8 21 -4 24 -9 19 -26 -3 -11 -14 -52
-24 -91 -15 -60 -20 -70 -38 -68 -16 2 -22 -5 -27 -35 -10 -64 -7 -90 13 -105
16 -10 21 -27 23 -78 3 -62 4 -64 31 -67 15 -2 27 -7 27 -12 0 -5 14 -16 30
-25 23 -12 35 -13 51 -5 16 9 26 8 46 -5 20 -13 37 -16 79 -10 52 6 54 5 64
-20 5 -14 9 -29 8 -33 -1 -4 1 -23 5 -42 3 -19 8 -54 10 -76 4 -36 2 -41 -13
-37 -12 3 -20 -2 -25 -17 -10 -33 9 -46 33 -22 l20 20 4 -23 c3 -13 0 -31 -6
-42 -5 -10 -17 -40 -26 -68 -13 -38 -24 -54 -49 -67 -18 -9 -40 -23 -49 -31
-9 -8 -36 -20 -59 -26 -22 -6 -72 -27 -109 -46 -40 -19 -73 -30 -79 -26 -6 5
-44 -7 -91 -29 -91 -42 -108 -66 -71 -101 24 -23 38 -23 332 1 72 6 148 9 170
6 22 -3 96 -8 165 -12 69 -3 126 -7 128 -9 2 -2 19 12 38 31 37 38 43 68 17
96 -15 17 -17 40 -11 131 1 12 -1 46 -5 74 -6 42 -5 53 6 53 16 0 29 -57 31
-135 l1 -50 46 -3 c38 -2 48 -7 57 -27 9 -19 19 -25 43 -25 18 0 40 -6 48 -14
14 -11 161 -37 215 -37 11 0 30 11 44 24 23 24 24 25 7 51 -20 30 -19 31 27
11 19 -8 75 -17 124 -21 76 -6 92 -4 103 10 7 9 19 16 26 16 37 0 123 36 148
62 25 26 28 35 22 71 -11 60 -14 299 -4 323 4 12 24 32 44 44 21 13 45 36 55
52 19 31 19 43 5 306 -2 50 -1 92 4 92 19 0 31 -29 26 -61 -8 -44 -9 -99 -1
-106 4 -4 11 -2 17 4 15 15 30 155 18 167 -12 13 -12 66 0 66 6 0 11 -15 13
-32 4 -48 32 -44 36 5 2 20 7 37 13 37 8 0 10 -26 14 -178 2 -58 7 -67 31 -58
14 5 15 20 9 122 -7 110 -7 116 11 112 17 -3 19 -12 17 -73 -2 -75 10 -104 34
-84 25 21 34 -3 24 -57 -5 -27 -12 -86 -15 -131 -4 -67 -3 -83 9 -83 24 0 27
12 41 172 8 91 21 95 23 7 1 -34 4 -66 8 -72 3 -6 6 -66 5 -134 -2 -100 0
-123 12 -123 23 0 25 19 21 204 -3 148 -1 176 11 176 26 0 29 -5 26 -40 -1
-19 2 -42 8 -50 9 -13 12 -13 25 4 8 11 11 26 6 40 -4 11 -6 41 -5 66 2 25 -1
62 -6 83 -4 21 -4 39 1 43 5 3 9 14 9 25 0 10 6 19 13 19 6 0 22 3 35 6 15 5
22 2 22 -8 0 -9 -9 -14 -22 -14 -21 1 -23 -3 -23 -59 0 -49 3 -60 18 -63 14
-3 17 4 17 37 0 36 2 41 23 38 18 -2 23 4 25 31 2 24 8 32 23 32 21 0 23 -6
20 -65 -2 -25 -10 -46 -21 -55 -11 -9 -20 -31 -22 -55 -2 -26 -7 -39 -16 -37
-28 5 -54 -19 -49 -45 3 -14 1 -38 -3 -54 -13 -43 8 -64 63 -60 l45 2 4 -38
c6 -45 1 -63 -18 -63 -21 0 -17 -31 5 -37 17 -4 19 -16 20 -144 2 -126 -6
-168 -23 -124 -7 19 -32 19 -40 0 -8 -21 -84 -20 -108 2 -15 14 -22 14 -42 4
-15 -8 -50 -12 -97 -9 l-74 4 1 49 c1 28 5 89 9 136 8 87 0 125 -22 111 -11
-7 -25 -144 -26 -259 0 -19 -6 -33 -13 -33 -19 0 -22 20 -13 85 7 56 0 85 -21
85 -9 0 -26 -113 -22 -147 3 -21 -1 -23 -46 -23 -27 0 -52 3 -56 7 -3 4 -12 8
-19 9 -7 1 -16 3 -22 4 -37 9 -46 0 -43 -43 3 -36 6 -42 23 -39 11 2 56 2 100
0 84 -3 371 -1 483 3 l66 2 9 -34 c13 -50 36 -72 67 -64 14 4 55 8 93 10 73 3
92 12 101 50 8 29 -12 28 254 25 l212 -2 0 24 c0 23 0 23 -133 23 -72 0 -181
2 -240 5 l-109 5 -1 193 c0 120 3 196 10 203 6 6 28 10 51 11 47 0 59 17 66
93 6 55 -5 75 -40 75 -22 0 -24 4 -22 42 1 37 -3 45 -36 73 -28 24 -37 38 -34
56 2 14 9 23 18 21 51 -11 95 47 70 93 -8 16 -11 46 -6 97 3 40 9 117 12 171
4 53 11 97 16 97 4 0 8 -13 8 -29 0 -29 22 -57 37 -48 5 3 8 49 8 103 -1 103
-13 128 -42 88 -12 -16 -14 4 -12 151 1 94 6 179 10 190 5 12 8 -41 6 -130 -2
-144 -1 -150 18 -150 19 0 20 8 23 125 1 68 6 128 11 133 5 5 6 -12 3 -38 -5
-46 9 -72 30 -59 11 7 10 94 -1 94 -5 0 -9 26 -8 58 0 31 2 49 5 40 2 -10 12
-18 21 -18 16 0 18 9 16 85 -1 47 1 82 4 79 6 -6 19 -212 24 -381 2 -87 13
-123 34 -110 10 6 7 253 -3 307 -4 19 -6 69 -6 110 l0 75 37 3 c21 2 43 -2 49
-8 8 -9 7 -11 -4 -10 -33 5 -41 -1 -38 -22 3 -20 9 -23 51 -22 l47 1 0 -46 c0
-81 11 -121 31 -121 17 0 18 10 16 126 l-2 126 -75 4 c-207 9 -295 16 -300 23
-3 3 -27 13 -55 22 l-50 15 -1 47 -1 47 171 -2 c94 -1 204 -1 244 0 l72 2 0
43 c0 42 -1 43 -45 56 -25 7 -81 12 -127 11 -162 -4 -204 -3 -260 4 l-56 8 1
70 c2 75 -1 73 65 53 18 -6 22 -3 22 13 0 15 -9 22 -30 27 -16 4 -34 4 -39 1
-14 -9 -19 53 -5 65 15 12 37 3 28 -12 -12 -20 29 -49 80 -56 28 -4 57 -6 64
-5 6 2 12 -4 12 -13 0 -8 -8 -15 -19 -15 -21 0 -41 -21 -45 -47 -3 -19 -25
-21 -83 -8 -26 6 -33 4 -33 -8 0 -14 27 -28 60 -32 36 -4 86 -18 98 -28 10 -8
16 -7 21 2 6 10 41 11 149 6 l141 -7 -1 105 c-1 70 -5 104 -12 102 -56 -17
-64 -15 -75 15 -9 28 0 42 14 20 3 -5 15 -15 27 -21 15 -8 19 -8 14 0 -4 6 -1
11 7 11 7 0 14 6 15 13 1 6 5 27 8 45 4 20 2 32 -5 32 -6 0 -11 13 -11 29 0
18 -8 35 -19 43 -13 9 -20 27 -21 53 -3 64 -2 67 18 56 32 -17 42 6 42 102 0
86 -1 88 -22 85 -13 -2 -29 -15 -36 -30 -12 -26 -50 -62 -75 -71 -9 -3 -9 -8
0 -18 19 -19 16 -38 -4 -33 -21 6 -25 65 -5 72 6 2 10 8 7 12 -10 16 7 60 24
61 9 0 30 8 46 18 24 14 31 26 36 61 3 24 11 46 17 48 13 4 17 52 4 52 -4 0
-18 -7 -31 -16 -17 -12 -26 -13 -34 -5 -19 19 -55 12 -89 -17 -36 -32 -98 -65
-106 -57 -4 4 -10 48 -11 96 -1 22 -22 46 -47 53 -14 4 -30 -3 -54 -24 -30
-27 -32 -33 -27 -74 7 -49 2 -56 -50 -74 -36 -12 -37 -10 -35 58 1 14 2 67 3
118 1 56 6 92 12 92 7 0 7 4 -1 12 -8 8 -8 17 -1 31 6 11 7 17 2 14 -6 -4 -9
25 -9 67 1 59 5 79 21 97 15 18 16 20 2 10 -22 -17 -34 -7 -17 13 18 23 80 13
129 -19 22 -15 41 -32 41 -38 0 -5 15 -24 33 -41 18 -17 50 -52 71 -78 21 -27
43 -48 48 -48 5 0 28 -15 51 -34 23 -18 57 -36 75 -38 l33 -5 -2 48 c-2 34 -6
46 -16 42 -18 -7 -17 12 2 27 8 7 15 17 15 23 0 5 -10 -2 -21 -17 -12 -15 -24
-25 -27 -22 -2 3 7 21 22 40 38 50 32 55 -8 7 l-34 -41 -33 41 c-17 22 -26 39
-18 38 8 -2 24 3 37 10 23 12 23 12 12 -11 -9 -18 -6 -17 14 7 14 16 28 26 32
22 4 -3 -7 -22 -25 -42 -17 -20 -31 -39 -31 -43 0 -4 18 13 40 38 22 25 35 46
30 48 -6 2 -6 10 0 21 5 10 9 49 9 87 l0 69 -30 2 c-23 2 -32 -3 -38 -20 -5
-14 -17 -22 -37 -23 -46 -2 -47 -3 -41 -24 6 -23 -31 -70 -55 -70 -23 0 -34
19 -47 78 -6 29 -22 74 -35 100 -13 26 -27 62 -31 79 -13 62 -74 80 -139 42
-20 -12 -36 -17 -37 -12 -4 68 8 419 16 460 3 12 19 29 37 37 39 20 36 20 40
-6 4 -28 74 -66 90 -50 10 10 0 52 -27 115 -6 14 -2 17 21 17 41 0 50 9 64 59
12 45 5 60 -26 61 -7 0 -15 7 -18 16 -5 14 -10 14 -42 -5 -43 -26 -40 -25 -47
-1 -7 28 -32 25 -56 -6 -22 -28 -20 -65 5 -95 8 -8 14 -20 14 -26 0 -13 -39
-48 -45 -41 -3 3 -6 210 -6 460 1 250 -3 468 -8 486 -6 19 -6 34 0 37 5 4 9
64 9 135 0 71 5 160 11 197 10 62 9 73 -10 116 -24 56 -53 71 -93 51 -37 -19
-48 -18 -48 6 0 12 -11 31 -25 44 -34 32 -32 35 16 25 43 -10 51 -6 79 43 16
26 -23 62 -57 53 -23 -5 -25 -4 -18 17 4 13 7 32 6 42 0 25 -55 81 -70 72 -15
-10 -31 -74 -31 -128 l0 -46 -34 3 c-44 4 -53 -8 -52 -70 1 -46 3 -50 28 -53
18 -2 34 5 50 22 22 24 24 24 44 7 12 -9 25 -31 28 -48 6 -26 3 -34 -13 -43
-30 -15 -51 -73 -51 -139 0 -45 4 -60 21 -75 l21 -18 -22 -15 c-18 -13 -21
-22 -16 -52 3 -20 3 -59 0 -88 -6 -47 -9 -51 -37 -57 -24 -5 -36 -1 -57 19
-14 14 -34 25 -44 25 -17 0 -18 -6 -12 -54 8 -72 22 -107 45 -113 17 -4 17 -6
-5 -28 -29 -29 -30 -41 -4 -83 l20 -33 30 23 c16 13 35 38 42 56 6 17 15 32
19 32 4 0 7 -80 6 -177 -1 -98 -1 -317 1 -488 3 -221 0 -311 -8 -313 -8 -3 -8
-8 0 -17 12 -14 16 -168 5 -185 -3 -5 -1 -11 5 -15 6 -4 7 -11 4 -17 -4 -5 -6
-70 -6 -143 l1 -133 -30 -6 c-17 -3 -42 -14 -55 -25 -24 -19 -25 -19 -75 0
-30 12 -60 17 -73 13 -46 -15 -146 -66 -146 -76 0 -22 -159 -180 -173 -171 -5
3 -7 2 -4 -4 4 -5 -6 -16 -21 -23 -15 -7 -39 -19 -54 -26 -33 -18 -34 -18 -35
4 -18 349 -34 598 -48 747 -3 28 -16 83 -30 124 -13 40 -29 101 -35 134 -15
84 -29 109 -110 202 -38 44 -70 88 -70 99 0 10 -5 37 -11 60 -6 22 -15 59 -20
81 -6 22 -21 49 -34 60 -22 19 -23 23 -12 64 11 41 10 44 -14 65 -24 21 -25
25 -13 47 21 38 16 62 -16 88 -37 28 -38 54 -5 69 14 7 29 22 34 35 8 20 48
73 105 139 8 9 18 33 22 53 6 33 3 39 -52 95 -33 33 -71 65 -86 71 -16 6 -28
15 -28 20 0 5 -7 9 -15 9 -8 0 -15 6 -15 13 0 20 -38 51 -95 80 -45 22 -104
42 -282 94 -123 35 -283 3 -283 -57 0 -9 -10 -26 -23 -38 -18 -17 -24 -34 -25
-73 0 -28 -6 -56 -11 -63 -6 -7 -11 -48 -11 -92 1 -173 -4 -206 -38 -267 -43
-76 -42 -102 3 -118 26 -10 34 -17 30 -30 -3 -10 -2 -20 3 -23 5 -3 8 -35 7
-72 -1 -59 1 -68 22 -81 15 -10 35 -14 58 -10 44 7 44 2 3 -19 -18 -9 -44 -27
-58 -40 -14 -14 -34 -31 -45 -38 -17 -13 -19 -18 -9 -44 11 -28 9 -33 -17 -58
-18 -17 -29 -38 -29 -54 0 -17 -8 -31 -22 -39 -13 -7 -51 -55 -86 -107 -35
-52 -67 -94 -72 -94 -5 0 -17 11 -26 25 -16 25 -15 27 23 83 22 31 46 74 53
95 34 106 -20 268 -114 344 -66 53 -120 73 -214 79 -165 11 -288 -78 -343
-246 -14 -45 -19 -78 -15 -107 5 -36 2 -44 -14 -53 -11 -6 -20 -20 -20 -31 0
-23 27 -68 52 -87 10 -7 18 -24 18 -36 0 -13 3 -38 6 -55 6 -28 12 -33 67 -49
38 -11 62 -23 65 -34 6 -25 37 -32 125 -29 52 2 95 -3 133 -15 52 -16 56 -19
50 -44 -5 -26 25 -82 53 -99 5 -3 10 -36 12 -73 3 -52 0 -70 -13 -85 -38 -42
-61 -135 -39 -158 5 -6 12 -27 15 -47 8 -42 -1 -51 -87 -84 -27 -11 -58 -31
-69 -46 -10 -16 -29 -28 -40 -28 -11 0 -37 -9 -57 -19 -56 -29 -150 -71 -161
-71 -5 0 -31 -13 -58 -29 -27 -16 -67 -30 -88 -32 -44 -3 -120 27 -167 67 -17
14 -54 36 -82 49 l-52 23 -7 82 c-13 153 -6 542 10 605 8 31 15 82 15 113 0
137 5 202 16 213 13 13 6 46 -13 53 -10 4 -11 12 -3 36 8 22 8 38 0 58 -13 32
-6 171 9 186 5 5 10 16 10 22 0 17 33 26 65 18 18 -4 32 -1 45 11 21 19 27 61
10 67 -5 2 -6 18 -1 41 9 39 4 77 -10 77 -18 0 -79 -43 -79 -56 0 -8 -4 -14
-9 -14 -5 0 -16 -3 -25 -6 -13 -5 -15 9 -13 113 1 65 -4 180 -12 257 -10 106
-11 155 -2 212 13 91 15 327 2 372 -7 23 -6 42 4 65 15 37 13 215 -4 367 -24
213 -25 281 -2 332 12 26 26 50 31 53 6 3 10 17 10 30 0 13 5 27 10 30 6 3 10
27 10 52 0 38 -5 50 -32 75 -28 26 -38 29 -75 25 -41 -4 -42 -3 -37 19 9 35
-4 67 -24 59 -10 -4 -22 -9 -28 -12 -8 -3 -10 5 -6 23 6 34 -35 114 -60 114
-11 0 -21 -13 -27 -37z m45 -70 c4 -34 2 -36 -10 -20 -7 9 -11 28 -8 42 6 34
14 25 18 -22z m59 -103 c10 -11 14 -20 9 -20 -5 0 -15 9 -22 20 -7 11 -11 20
-9 20 2 0 12 -9 22 -20z m-87 -18 c2 -7 -2 -10 -12 -6 -9 3 -16 11 -16 16 0
13 23 5 28 -10z m182 -12 c0 -6 11 -15 25 -20 22 -8 37 -33 18 -28 -25 6 -51
-16 -57 -47 -5 -25 -12 -35 -25 -35 -22 0 -36 -26 -18 -34 7 -2 -3 -5 -20 -5
-18 -1 -33 -5 -33 -10 0 -12 26 -32 32 -26 3 3 16 1 30 -4 24 -9 25 -12 27
-113 1 -57 4 -117 6 -133 3 -17 7 -44 10 -61 6 -33 -14 -59 -49 -65 -11 -2
-21 -10 -24 -16 -6 -19 27 -28 49 -15 25 16 29 15 29 -8 0 -16 -5 -18 -35 -15
-32 5 -35 3 -37 -23 0 -15 0 -36 1 -46 1 -11 -4 -23 -11 -27 -9 -6 -9 -11 0
-22 10 -12 9 -16 -3 -21 -13 -5 -13 -9 -3 -26 7 -11 20 -21 28 -21 11 -1 10
-3 -2 -6 -20 -5 -25 -43 -7 -43 8 0 9 -13 5 -39 -5 -32 -2 -43 12 -53 10 -7
22 -19 27 -27 6 -11 3 -13 -12 -9 -33 9 -51 -7 -36 -31 10 -15 10 -21 0 -25
-8 -3 -7 -9 5 -19 12 -10 14 -17 7 -24 -15 -15 -3 -33 21 -33 10 0 22 -5 25
-10 4 -7 -2 -9 -18 -5 -14 4 -28 2 -31 -4 -4 -6 -2 -11 3 -11 6 0 11 -7 11
-15 0 -9 9 -15 25 -15 14 0 25 -3 25 -8 0 -4 -15 -7 -32 -7 -31 0 -33 -2 -31
-35 5 -80 7 -85 38 -91 22 -5 24 -7 8 -8 -29 -1 -40 -21 -20 -36 27 -19 20
-26 -18 -19 -29 5 -35 3 -35 -11 0 -9 13 -22 30 -28 37 -14 41 -41 5 -35 -28
6 -40 -5 -29 -24 4 -7 9 -21 10 -32 5 -55 14 -91 22 -94 54 -18 52 -62 -2 -62
-19 0 -37 -4 -40 -9 -8 -12 4 -42 14 -36 5 3 7 -12 5 -32 -4 -47 8 -63 49 -64
28 -2 27 -2 -9 -8 -25 -4 -40 -11 -40 -20 0 -8 18 -20 40 -27 l40 -12 -40 -2
c-22 -1 -47 -1 -55 0 -10 1 -7 -7 10 -25 16 -17 21 -29 14 -33 -13 -8 -15 -44
-2 -36 5 3 19 -2 30 -13 12 -10 18 -12 14 -5 -4 7 -1 12 8 12 28 0 17 -20 -15
-27 -34 -7 -49 -33 -49 -88 0 -38 8 -46 50 -47 17 -1 30 -5 30 -9 0 -4 -14 -7
-30 -7 -38 1 -38 1 -42 -47 -3 -39 -2 -40 30 -43 42 -4 41 -18 -3 -33 -23 -9
-35 -19 -35 -32 0 -14 5 -18 20 -14 11 3 18 1 15 -3 -3 -5 -1 -27 4 -49 8 -37
7 -40 -16 -46 -17 -4 -23 -11 -19 -22 4 -8 1 -22 -6 -30 -9 -11 -9 -16 3 -24
12 -8 12 -10 0 -18 -12 -7 -12 -13 -3 -24 7 -7 9 -17 5 -20 -10 -10 -12 -67
-2 -73 5 -3 6 -16 3 -30 -5 -21 -3 -24 21 -24 24 0 27 3 23 25 -3 14 -2 28 3
31 4 2 7 20 5 40 -1 19 1 37 6 40 4 3 6 25 3 49 -2 25 1 47 6 51 6 3 8 -41 4
-123 -6 -153 -13 -193 -31 -193 -19 0 -26 17 -9 24 23 9 18 28 -7 24 -15 -2
-23 -10 -24 -23 0 -11 -4 -28 -8 -38 -5 -10 -6 -46 -2 -80 16 -145 17 -186 8
-203 -7 -12 -7 -25 -1 -36 14 -27 27 -22 38 15 8 28 9 25 10 -33 l1 -65 -32 0
c-23 0 -33 -5 -33 -15 0 -11 10 -15 38 -14 20 1 37 -1 37 -5 -1 -16 -18 -31
-31 -26 -19 7 -43 -10 -35 -24 4 -6 19 -10 33 -9 14 2 28 -2 29 -7 2 -6 -11
-10 -28 -10 -25 0 -32 -4 -29 -15 9 -31 1 -193 -10 -206 -12 -14 -7 -18 24
-15 9 1 17 -2 17 -8 0 -5 -8 -9 -17 -9 -10 1 -35 -2 -55 -7 -36 -7 -37 -6 -43
27 -4 18 -4 78 -1 133 29 509 27 1108 -3 1423 -7 70 -7 111 0 130 6 16 9 113
8 247 -3 251 -3 278 -1 470 1 77 -2 208 -6 290 -4 83 -5 164 -1 181 3 17 2 57
-3 90 -13 88 -13 386 0 411 8 15 8 25 -3 40 -12 16 -12 23 -2 31 13 11 46 10
64 -1 8 -5 19 8 33 37 19 44 42 65 68 66 6 0 12 -5 12 -10z m2 -714 c-5 -6
-10 -31 -11 -55 -1 -25 -4 -48 -7 -53 -9 -14 -26 -9 -20 7 3 8 -1 21 -9 29
-16 16 -20 30 -6 22 5 -3 14 1 22 10 10 13 9 16 -9 21 -29 7 -28 23 1 20 16
-1 22 3 21 16 -2 14 1 15 12 6 9 -7 11 -16 6 -23z m3152 -321 c-4 -8 -8 -15
-10 -15 -2 0 -4 7 -4 15 0 8 4 15 10 15 5 0 7 -7 4 -15z m76 -75 c0 -5 -7 -10
-16 -10 -8 0 -12 5 -9 10 3 6 10 10 16 10 5 0 9 -4 9 -10z m-150 -44 c0 -7 -7
-19 -15 -26 -13 -11 -15 -8 -15 14 0 16 5 26 15 26 8 0 15 -6 15 -14z m-1492
-127 c201 -49 343 -106 360 -145 6 -13 40 -42 74 -65 35 -23 75 -56 89 -73
l27 -31 -37 0 c-28 0 -38 5 -48 26 -19 40 -43 55 -119 78 -98 29 -122 28 -135
-6 -21 -52 -26 -58 -55 -56 -43 3 -49 17 -25 56 11 19 21 39 21 44 0 12 -63
78 -93 98 -19 12 -79 26 -182 42 -69 10 -78 14 -67 25 7 7 31 15 54 19 24 3
44 7 46 8 2 0 43 -8 90 -20z m1711 -34 c12 -3 21 -10 21 -15 0 -12 -31 -21
-52 -14 -15 5 -19 2 -16 -12 2 -11 12 -20 23 -22 44 -8 39 -24 -5 -17 l-46 7
-1 -37 c-1 -32 3 -38 28 -47 38 -13 37 -23 -3 -23 -44 0 -46 -29 -3 -33 52 -6
53 -22 1 -22 -40 0 -47 -3 -44 -17 2 -13 16 -19 48 -23 57 -6 50 -25 -10 -25
-33 0 -45 -4 -45 -15 0 -10 16 -18 50 -24 57 -10 59 -11 51 -24 -4 -6 -21 -7
-43 -1 -21 4 -42 4 -46 0 -12 -12 21 -41 48 -41 13 0 27 -5 31 -11 7 -12 -23
-9 -58 6 -12 5 -21 -1 -32 -24 -20 -38 -20 -70 -2 -90 12 -14 13 -24 3 -56 -6
-22 -12 -92 -13 -155 -1 -63 -2 -117 -3 -120 -8 -19 -7 -78 0 -98 6 -17 6 -29
-2 -39 -9 -11 -7 -19 11 -38 25 -26 49 -32 66 -15 6 6 18 8 27 4 21 -8 23 -54
3 -54 -21 0 -30 -20 -17 -33 15 -15 14 -48 -1 -45 -20 3 -58 -12 -58 -23 0 -6
4 -8 9 -5 5 3 24 -2 42 -12 l34 -17 -32 -3 c-37 -4 -41 -13 -17 -36 14 -15 13
-16 -15 -16 -32 0 -41 -13 -18 -27 14 -9 18 -10 60 -13 l32 -2 -35 -12 c-44
-16 -46 -39 -3 -46 24 -4 30 -9 24 -18 -4 -8 -17 -12 -27 -10 -13 2 -20 -4
-22 -19 -3 -19 1 -23 22 -23 17 0 26 -5 26 -16 0 -9 -6 -14 -13 -11 -8 3 -20
1 -27 -3 -11 -7 -11 -11 -1 -24 8 -9 20 -16 27 -16 8 0 14 -9 14 -20 0 -22
-12 -25 -40 -10 -30 16 -37 -10 -9 -32 45 -34 49 -39 43 -49 -3 -6 -15 -9 -25
-6 -10 3 -21 1 -24 -3 -6 -9 4 -20 40 -45 l20 -14 -20 -6 c-11 -4 -26 -9 -32
-11 -18 -5 -5 -31 20 -39 20 -7 20 -8 -8 -14 l-30 -7 30 -19 29 -20 -37 -5
c-46 -6 -48 -21 -5 -36 28 -9 54 -37 31 -33 -26 5 -53 -3 -53 -15 0 -16 34
-31 50 -21 5 3 10 2 10 -4 0 -5 -15 -11 -32 -13 -21 -2 -33 -8 -33 -18 0 -8
15 -19 33 -25 40 -12 42 -25 2 -25 -20 0 -30 -5 -30 -15 0 -17 29 -34 48 -28
6 3 12 -2 12 -11 0 -11 -9 -16 -30 -16 -16 0 -30 -3 -30 -7 0 -16 16 -31 35
-34 11 -3 20 -11 20 -19 0 -11 -9 -14 -34 -12 -42 4 -39 -17 7 -37 39 -18 42
-35 4 -28 -37 8 -60 -6 -44 -26 10 -12 9 -16 -3 -21 -11 -4 -14 -13 -10 -25 4
-14 0 -21 -16 -26 -40 -13 -41 -9 -37 280 1 66 1 156 0 200 -1 44 0 325 1 625
3 393 7 551 15 567 7 12 8 23 3 25 -5 2 -12 85 -16 185 -7 176 -7 182 14 204
26 28 26 34 -1 61 -24 24 -26 75 -7 136 10 30 13 32 42 27 28 -5 34 -2 51 27
18 32 19 32 27 11 4 -12 17 -24 28 -28z m-1832 -36 c15 -6 48 -13 73 -16 50
-6 82 -21 123 -57 30 -28 33 -42 12 -70 -18 -24 -19 -60 -2 -73 14 -12 60 -24
104 -28 29 -3 33 0 46 38 12 37 17 42 43 41 43 -2 127 -28 131 -41 2 -6 -6
-13 -18 -16 -19 -5 -20 -8 -9 -21 7 -9 22 -16 34 -16 40 0 112 -57 94 -75 -2
-3 -35 13 -72 35 -72 42 -106 50 -106 25 0 -8 4 -15 9 -15 19 0 141 -76 141
-87 0 -20 -15 -16 -48 12 -44 37 -115 67 -127 53 -7 -7 -6 -12 2 -15 11 -4 63
-38 112 -75 33 -23 18 -40 -19 -22 -16 9 -32 20 -35 25 -8 11 -80 49 -95 49
-25 0 -6 -29 40 -59 75 -49 72 -59 -6 -16 -120 66 -177 92 -259 119 -103 33
-241 66 -276 66 -49 0 -59 9 -59 54 1 22 8 59 16 81 17 44 18 53 13 74 -9 33
80 52 138 30z m-92 -290 c-3 -4 4 -16 15 -27 14 -13 19 -29 17 -57 -2 -44 18
-59 32 -23 15 36 12 -3 -4 -46 -12 -35 -12 -39 4 -43 12 -3 17 -12 14 -27 -8
-38 48 -64 82 -40 28 20 48 18 42 -5 -8 -31 20 -63 53 -59 28 3 64 -18 55 -32
-3 -5 -29 -16 -58 -26 -28 -9 -67 -25 -85 -36 -18 -10 -45 -18 -61 -18 -15 0
-49 -11 -75 -25 -33 -18 -55 -23 -77 -18 -29 6 -30 7 -23 47 10 55 8 78 -8 88
-11 6 -10 10 1 17 9 6 12 19 7 42 -18 88 -12 117 27 132 23 9 21 35 -5 56 -13
11 -23 31 -24 52 -3 49 9 67 45 61 17 -2 28 -8 26 -13z m72 -42 c2 -17 1 -19
-7 -7 -11 17 -14 47 -3 36 4 -3 8 -17 10 -29z m70 -19 c-3 -7 -5 -2 -5 12 0
14 2 19 5 13 2 -7 2 -19 0 -25z m-1517 -22 c0 -10 -7 -12 -22 -8 -21 5 -21 6
-2 13 10 4 20 8 22 8 1 1 2 -5 2 -13z m-310 -6 c0 -5 -5 -10 -11 -10 -5 0 -7
5 -4 10 3 6 8 10 11 10 2 0 4 -4 4 -10z m3400 -55 c-7 -9 -15 -13 -17 -11 -7
7 7 26 19 26 6 0 6 -6 -2 -15z m200 -6 c0 -5 -14 -9 -31 -9 -24 0 -30 -4 -25
-16 3 -8 2 -12 -4 -9 -19 12 -11 44 13 47 27 5 47 -1 47 -13z m-2021 -51 c-6
-11 -8 -34 -5 -50 5 -27 4 -29 -17 -22 -12 3 -23 8 -25 9 -7 6 41 94 49 89 5
-3 4 -14 -2 -26z m257 -8 c8 0 14 -6 14 -14 0 -9 -7 -12 -20 -9 -12 3 -20 13
-19 27 0 11 3 15 6 9 2 -7 11 -13 19 -13z m1763 -65 c6 3 11 1 11 -4 0 -6 -13
-11 -28 -11 -16 0 -32 -3 -35 -7 -12 -11 14 -33 39 -33 13 0 24 -5 24 -11 0
-7 -11 -8 -29 -4 -17 4 -32 2 -36 -5 -10 -16 14 -40 41 -40 13 0 24 -6 24 -13
0 -9 -10 -12 -30 -9 -25 4 -30 1 -30 -16 0 -15 9 -22 30 -27 49 -11 33 -34
-20 -30 -25 2 -25 2 -27 106 -1 86 1 106 15 117 14 11 19 10 29 -4 6 -9 16
-13 22 -9z m-1554 -75 c3 -5 -1 -10 -9 -10 -9 0 -16 5 -16 10 0 6 4 10 9 10 6
0 13 -4 16 -10z m280 -40 c3 -5 2 -10 -4 -10 -5 0 -13 5 -16 10 -3 6 -2 10 4
10 5 0 13 -4 16 -10z m-318 -11 c11 -11 6 -59 -7 -59 -4 0 -10 7 -14 15 -3 8
-12 15 -21 15 -9 0 -18 -7 -21 -15 -4 -8 -17 -15 -30 -15 -13 0 -24 -4 -24 -8
0 -5 -9 -19 -20 -32 l-20 -23 0 21 c0 12 0 25 -1 30 0 6 123 76 142 81 3 0 10
-4 16 -10z m141 -36 c-10 -2 -26 -2 -35 0 -10 3 -2 5 17 5 19 0 27 -2 18 -5z
m-1019 -12 c8 -5 9 -11 3 -15 -5 -3 -15 1 -22 9 -14 16 -3 20 19 6z m-227 -33
c-25 -25 -34 -30 -44 -20 -9 9 -9 12 3 12 7 0 25 9 39 20 38 29 39 24 2 -12z
m343 -33 c25 -24 45 -51 45 -59 0 -7 -12 -21 -26 -31 -22 -14 -25 -22 -20 -50
5 -23 2 -34 -8 -38 -10 -4 -16 8 -21 48 -9 72 -27 87 -101 83 -69 -4 -77 -17
-35 -57 30 -28 31 -41 4 -41 -8 0 -21 16 -29 36 -11 26 -19 34 -31 30 -8 -4
-21 -2 -28 4 -14 12 -58 -1 -70 -20 -6 -9 -9 -9 -15 0 -13 21 -37 4 -43 -29
-9 -45 -37 -41 -37 4 0 27 4 35 18 35 26 1 62 36 62 61 l0 23 16 -22 c15 -22
48 -30 59 -13 3 6 23 9 44 8 24 -1 44 5 55 16 10 9 26 17 36 17 10 0 28 9 41
20 13 10 27 19 32 20 4 0 28 -20 52 -45z m-226 25 c28 15 39 12 16 -3 -38 -26
-54 -27 -66 -6 -10 19 -9 20 10 9 15 -7 27 -8 40 0z m1151 -19 c0 -20 -12 -41
-21 -35 -5 2 -17 0 -28 -6 -17 -9 -18 -14 -9 -41 6 -16 8 -32 6 -35 -12 -11
-40 11 -45 37 -6 32 -29 45 -49 28 -8 -6 -21 -8 -31 -5 -11 5 -24 -2 -38 -21
-14 -17 -33 -28 -51 -29 -16 -1 -38 -2 -49 -3 -11 0 -33 -12 -49 -26 -29 -25
-66 -34 -66 -15 0 6 4 10 10 10 5 0 25 14 43 30 19 17 43 30 53 30 10 0 35 12
56 26 38 27 56 31 133 37 22 2 49 8 60 15 24 14 75 16 75 3z m1395 -11 c25 0
24 -15 -1 -16 -19 -2 -24 3 -23 20 0 11 3 15 6 9 2 -7 11 -13 18 -13z m-1320
0 c3 -5 -1 -10 -9 -10 -9 0 -16 5 -16 10 0 6 4 10 9 10 6 0 13 -4 16 -10z m89
-39 c3 -5 -5 -8 -18 -7 -13 0 -22 4 -19 9 6 10 31 9 37 -2z m-2024 -11 c0 -5
-5 -10 -11 -10 -5 0 -7 5 -4 10 3 6 8 10 11 10 2 0 4 -4 4 -10z m475 -78 c0
-54 1 -57 26 -60 21 -2 28 -10 31 -33 3 -16 1 -29 -4 -29 -4 0 -8 4 -8 10 0 5
-9 14 -21 20 -16 9 -26 8 -44 -4 -23 -15 -24 -15 -20 17 2 17 7 54 10 80 9 89
30 88 30 -1z m365 32 c0 -14 -3 -14 -15 -4 -8 7 -15 14 -15 16 0 2 7 4 15 4 8
0 15 -7 15 -16z m1217 -16 c-3 -7 -5 -2 -5 12 0 14 2 19 5 13 2 -7 2 -19 0
-25z m1243 -9 c0 -4 -18 -2 -39 3 -25 6 -38 15 -35 23 4 9 13 8 39 -4 19 -9
34 -19 35 -22z m-2290 11 c0 -5 -5 -10 -11 -10 -5 0 -7 5 -4 10 3 6 8 10 11
10 2 0 4 -4 4 -10z m930 0 c0 -5 -4 -10 -10 -10 -5 0 -10 5 -10 10 0 6 5 10
10 10 6 0 10 -4 10 -10z m-1235 -32 c-1 -19 -8 -23 -36 -25 -30 -2 -31 -1 -11
7 12 5 25 16 28 25 9 23 21 18 19 -7z m160 -39 c-6 -25 -3 -30 31 -44 22 -9
41 -12 48 -6 6 5 27 16 47 24 l36 15 -2 -32 c-3 -50 -16 -97 -26 -91 -5 4 -7
0 -4 -7 7 -19 -45 -89 -82 -111 -27 -15 -37 -16 -70 -7 -32 10 -46 9 -91 -9
-63 -25 -102 -27 -102 -6 0 11 7 14 23 10 12 -4 36 -1 52 6 17 7 35 11 40 10
6 -2 7 1 3 4 -11 11 11 47 24 39 6 -4 8 -3 5 3 -4 6 0 26 8 44 8 19 14 30 15
25 0 -5 3 -7 6 -4 3 4 -2 18 -11 32 -12 18 -15 36 -11 58 3 17 1 37 -5 44 -9
10 -5 16 15 25 14 7 26 17 26 22 0 5 7 4 15 -3 11 -9 14 -22 10 -41z m1075 31
c0 -5 -4 -10 -10 -10 -5 0 -10 5 -10 10 0 6 5 10 10 10 6 0 10 -4 10 -10z
m-1183 -36 c-3 -3 -12 -4 -19 -1 -8 3 -5 6 6 6 11 1 17 -2 13 -5z m586 -18
c-24 -33 -62 -51 -77 -36 -8 8 -7 14 4 20 8 5 24 16 35 24 11 8 28 16 38 16
17 0 17 -1 0 -24z m541 5 c12 -13 14 -21 6 -26 -13 -8 -53 29 -43 39 10 10 19
7 37 -13z m-1224 -13 c110 -22 100 -15 100 -71 0 -39 -6 -60 -26 -89 -39 -55
-43 -54 -64 29 -12 50 -34 75 -57 66 -10 -4 -14 -2 -9 5 3 6 0 14 -8 19 -13 7
-20 33 -17 57 0 4 9 5 19 1 9 -4 37 -12 62 -17z m908 13 c9 -5 25 -12 35 -15
9 -3 22 -17 27 -31 6 -17 17 -25 33 -25 14 0 38 -17 65 -45 45 -48 48 -56 30
-84 -6 -11 -8 -26 -3 -37 4 -11 7 -27 6 -36 -2 -13 5 -18 24 -18 l27 0 -23
-19 c-20 -16 -21 -21 -10 -34 9 -12 19 -14 36 -7 15 6 27 6 30 0 8 -13 -3 -30
-19 -30 -8 0 -20 -7 -27 -16 -11 -14 -11 -18 4 -29 9 -7 17 -18 17 -26 0 -8 7
-23 15 -33 32 -42 11 -79 -29 -53 -17 12 -22 24 -21 51 0 20 -2 36 -6 36 -12
0 -27 61 -34 135 -9 105 -37 165 -76 165 -28 0 -32 -18 -14 -56 25 -53 29 -84
10 -84 -9 0 -27 -11 -40 -24 -20 -20 -25 -21 -30 -8 -6 15 10 32 31 32 14 0
36 48 29 61 -4 5 -12 9 -19 9 -8 0 -13 8 -12 17 2 30 -36 28 -61 -3 -13 -17
-23 -23 -23 -15 0 8 6 22 14 30 7 9 17 26 20 39 6 19 4 22 -19 22 -18 0 -28 7
-35 26 -10 25 -12 25 -33 11 -21 -14 -25 -13 -44 9 -15 17 -17 24 -8 24 8 0
22 13 31 30 11 17 28 31 43 33 14 2 29 5 34 6 4 0 15 -3 25 -8z m514 -93 c11
-4 11 -8 -1 -21 -11 -14 -11 -22 1 -49 8 -18 21 -48 28 -65 11 -28 18 -33 49
-35 20 0 41 -2 46 -3 6 -2 22 -3 38 -4 15 0 27 -5 27 -11 0 -5 -7 -7 -15 -4
-20 8 -85 -54 -85 -82 0 -11 7 -43 15 -70 9 -32 17 -112 20 -214 5 -173 16
-216 53 -204 12 4 10 0 -6 -13 -22 -18 -23 -21 -7 -36 9 -10 21 -15 26 -12 5
4 6 -1 3 -9 -4 -11 -14 -14 -30 -10 -17 4 -26 1 -30 -10 -9 -23 15 -48 37 -41
13 5 19 1 19 -10 0 -11 -6 -15 -19 -10 -29 9 -37 -26 -11 -47 11 -9 25 -18 30
-20 5 -2 7 -13 4 -25 -5 -18 -9 -20 -24 -11 -14 9 -22 9 -34 -1 -23 -19 -1
-44 30 -37 25 7 28 4 38 -36 5 -21 2 -28 -14 -33 -11 -3 -20 -15 -20 -25 0
-21 55 -33 70 -15 6 7 9 59 7 124 -3 101 4 136 19 96 5 -12 10 -13 19 -5 17
14 23 -8 20 -75 -3 -62 -4 -139 -3 -185 0 -19 0 -60 -1 -90 -1 -30 1 -134 4
-230 12 -429 16 -537 19 -570 14 -136 18 -280 21 -675 2 -247 1 -453 -2 -458
-11 -18 -1 -781 12 -909 3 -26 -2 -41 -15 -53 -41 -37 -45 -21 -46 216 -1 123
-4 325 -8 449 -3 124 -6 233 -6 242 0 10 -14 25 -31 33 -28 15 -33 15 -55 0
-50 -32 -57 -90 -12 -97 l23 -3 2 -298 c0 -164 4 -310 8 -324 3 -14 8 -123 10
-242 5 -230 13 -395 21 -424 3 -10 2 -17 -3 -16 -4 1 -15 -1 -23 -4 -8 -4 -26
-11 -40 -17 -14 -5 -32 -14 -40 -19 -17 -10 -57 -27 -80 -34 -20 -6 -187 21
-212 34 -16 9 -19 20 -17 67 1 31 -2 127 -6 212 -5 85 -9 164 -9 175 1 58 15
515 20 610 6 132 6 246 0 505 -5 190 -6 195 -27 198 l-21 4 8 361 c9 422 8
807 -4 857 -5 19 -7 94 -5 165 4 182 3 335 -2 370 -10 66 -19 204 -17 266 2
76 -15 111 -45 93 -32 -19 -38 -58 -24 -147 7 -45 15 -95 17 -112 18 -113 24
-1406 8 -1825 -9 -256 -9 -262 9 -296 12 -24 16 -117 21 -504 3 -261 9 -520
13 -575 7 -119 8 -260 2 -408 l-4 -108 -40 6 c-22 4 -53 9 -70 11 -16 3 -39
14 -51 25 -11 10 -30 19 -42 19 -28 0 -38 24 -23 54 10 17 10 33 1 65 -15 57
-15 215 -1 331 7 53 11 162 9 245 -3 142 -5 150 -24 153 -41 6 -45 -15 -37
-194 8 -167 3 -257 -19 -364 -12 -57 -12 -75 -7 -177 3 -58 -3 -84 -17 -70 -4
4 -13 89 -20 189 -7 101 -13 184 -13 184 -1 1 -10 4 -21 7 -18 5 -20 14 -21
84 -1 157 3 568 6 617 18 248 22 1285 5 1296 -14 8 -14 29 -1 99 12 63 2 85
-32 72 -36 -13 -57 -146 -36 -223 14 -53 15 -66 23 -303 12 -354 5 -606 -20
-745 -12 -66 -16 -171 -17 -466 -2 -351 -1 -383 15 -401 10 -11 18 -27 18 -35
0 -22 -26 -41 -47 -34 -17 6 -18 48 -16 923 0 505 4 955 8 1001 6 70 11 296
16 662 0 47 5 105 10 130 5 25 11 169 14 320 3 151 9 307 14 345 4 39 7 187 5
330 -2 214 -6 275 -22 343 -12 51 -16 82 -9 79 40 -13 81 -155 53 -186 -12
-13 -12 -18 -1 -28 7 -6 16 -9 19 -6 3 4 6 -1 6 -9 0 -9 -5 -18 -12 -20 -16
-6 -19 -38 -3 -44 9 -4 12 -16 8 -37 -2 -18 3 -86 12 -152 15 -109 18 -340 12
-775 -1 -19 2 -97 4 -172 5 -111 9 -141 23 -157 14 -15 17 -35 15 -102 -1 -46
-2 -223 -1 -394 2 -258 5 -312 17 -324 34 -34 38 -1 37 260 -1 139 1 256 4
260 3 5 7 106 10 226 3 156 1 219 -7 224 -7 4 -8 12 -3 20 5 8 10 115 11 239
2 124 4 257 5 295 1 39 -1 93 -4 120 -15 120 -30 234 -39 285 -5 30 -11 71
-13 90 -5 56 -17 122 -28 162 -15 50 -4 84 27 90 34 7 38 0 15 -29 -15 -20
-17 -29 -8 -53 10 -30 40 -41 53 -20 3 5 12 7 19 4 10 -4 16 -37 21 -117 4
-62 11 -120 16 -129 5 -9 11 -74 14 -145 4 -141 15 -165 54 -129 19 18 21 28
17 140 -2 79 -8 133 -18 156 -16 36 -17 125 -3 138 5 4 5 -1 2 -10 -4 -10 -2
-18 3 -18 6 0 10 -14 10 -31 0 -17 4 -38 9 -48 5 -9 11 -43 13 -75 3 -63 12
-72 54 -62 25 7 26 9 21 69 -2 34 -10 81 -18 104 -13 44 -5 71 12 40 13 -23
50 -21 104 6 54 26 70 66 58 137 -7 36 -13 45 -33 50 -19 4 -27 15 -33 45 -10
47 -36 141 -47 170 -5 11 -15 40 -24 63 l-17 44 33 38 c35 41 77 56 59 21 -13
-24 -5 -31 33 -31 27 0 28 -1 11 -13 -23 -18 -13 -34 27 -42 30 -7 31 -8 13
-21 -15 -12 -17 -18 -9 -32 14 -22 50 -27 57 -8 3 8 -1 20 -9 27 -11 9 -12 15
-2 26 23 28 19 67 -9 90 -23 18 -25 24 -13 38 11 14 15 12 31 -14 9 -16 23
-31 31 -33z m-267 21 c-8 -12 -35 -12 -35 0 0 11 22 20 33 14 4 -2 5 -9 2 -14z
m-1338 -67 c-15 -19 -17 -10 -10 34 7 39 7 39 13 9 4 -16 2 -36 -3 -43z m61
-4 c-21 -38 -22 -47 -11 -78 6 -19 12 -46 12 -60 0 -15 -8 -2 -21 35 l-20 60
28 47 c35 58 45 55 12 -4z m-118 10 l0 -33 -20 25 c-25 32 -25 40 0 40 16 0
20 -7 20 -32z m183 -10 c-16 -18 -18 -19 -21 -3 -4 19 16 37 31 28 4 -3 0 -14
-10 -25z m777 12 c0 -5 -4 -10 -10 -10 -5 0 -10 5 -10 10 0 6 5 10 10 10 6 0
10 -4 10 -10z m-163 -15 c7 -20 -2 -29 -21 -22 -9 4 -13 13 -10 22 8 19 23 19
31 0z m958 -15 c3 -5 1 -10 -4 -10 -6 0 -11 5 -11 10 0 6 2 10 4 10 3 0 8 -4
11 -10z m-1575 -45 c-7 -9 -15 -13 -18 -10 -3 2 1 11 8 20 7 9 15 13 18 10 3
-2 -1 -11 -8 -20z m718 -6 c-2 -6 -8 -10 -13 -10 -5 0 -11 4 -13 10 -2 6 4 11
13 11 9 0 15 -5 13 -11z m151 -24 c7 -8 -21 -26 -33 -22 -5 2 -16 13 -24 25
-14 21 -13 21 18 12 18 -5 35 -12 39 -15z m726 19 c13 -5 14 -8 3 -15 -19 -13
-28 -11 -28 6 0 17 2 18 25 9z m-1548 -10 c-3 -3 -12 -4 -19 -1 -8 3 -5 6 6 6
11 1 17 -2 13 -5z m603 -26 c0 -6 -9 -8 -20 -5 -13 3 -20 0 -20 -8 0 -18 -17
-28 -31 -20 -7 5 -3 14 10 27 12 10 26 16 31 13 6 -3 10 -1 10 5 0 6 5 8 10 5
6 -3 10 -11 10 -17z m2260 7 c0 -9 -6 -12 -15 -9 -8 4 -15 1 -15 -7 0 -7 -2
-10 -5 -7 -3 3 -3 13 1 22 8 20 34 21 34 1z m-3037 -15 c3 -11 1 -23 -4 -26
-5 -3 -9 6 -9 20 0 31 6 34 13 6z m410 -41 c31 -22 51 -17 42 12 -9 27 -2 24
24 -11 l22 -30 -26 -35 c-24 -30 -29 -33 -53 -24 -63 24 -167 37 -225 28 -32
-5 -62 -7 -68 -4 -10 7 -13 65 -3 65 4 0 12 -7 19 -17 11 -15 14 -15 35 0 12
8 27 14 34 11 6 -2 34 5 61 15 56 22 96 19 138 -10z m461 -83 c12 -41 16 -106
18 -258 2 -321 -4 -387 -38 -445 -16 -26 -35 -61 -43 -76 -8 -15 -26 -34 -41
-42 -14 -7 -32 -20 -38 -28 -7 -7 -28 -14 -48 -15 -20 -1 -41 -5 -48 -10 -6
-5 -24 -9 -39 -10 -44 -3 -149 -32 -174 -48 -12 -7 -37 -16 -55 -18 -18 -2
-46 -9 -61 -15 -37 -14 -37 -14 -37 8 0 31 -17 33 -38 6 -11 -14 -27 -25 -35
-25 -9 0 -22 -12 -29 -27 -10 -22 -22 -29 -54 -33 -53 -8 -61 -4 -79 31 -20
37 -36 37 -65 -3 -23 -31 -23 -31 -32 -9 -9 25 -26 24 -42 -2 -7 -11 -7 -29 1
-59 10 -36 9 -46 -3 -58 -13 -13 -16 -13 -24 0 -11 17 -12 27 -12 133 -1 69 2
80 21 93 11 8 21 22 21 31 0 9 3 14 6 11 3 -4 33 10 67 29 48 27 198 90 227
95 29 4 40 -4 34 -26 -4 -16 -1 -25 10 -29 20 -8 32 10 40 58 8 44 31 85 47
85 6 0 5 -8 -3 -19 -20 -28 -11 -109 13 -122 28 -15 39 -3 39 42 0 44 11 72
43 107 25 27 52 21 86 -19 24 -29 61 -39 61 -18 0 6 -13 27 -30 46 -33 37 -34
41 -20 63 9 13 12 13 20 -2 36 -60 78 -56 46 5 -15 28 -16 39 -7 72 7 22 23
92 36 155 39 190 74 278 125 325 11 10 20 26 20 35 0 17 39 37 77 39 18 1 24
-8 37 -53z m946 46 c0 -5 -13 -9 -30 -10 -16 0 -30 4 -30 9 0 5 14 9 30 9 17
0 30 -4 30 -8z m-1297 -42 c-14 -16 -28 -30 -30 -30 -3 0 5 14 17 30 12 17 26
30 31 30 5 0 -3 -13 -18 -30z m692 4 c1 -15 -5 -19 -34 -19 -42 0 -58 31 -19
37 39 7 51 2 53 -18z m-135 8 c0 -5 -13 -18 -30 -30 -33 -25 -42 -10 -12 19
18 19 42 25 42 11z m1910 -18 c0 -8 -4 -14 -10 -14 -5 0 -10 9 -10 21 0 11 5
17 10 14 6 -3 10 -13 10 -21z m-2375 6 c3 -5 1 -10 -4 -10 -6 0 -11 5 -11 10
0 6 2 10 4 10 3 0 8 -4 11 -10z m1205 -35 c0 -12 -7 -28 -15 -35 -12 -10 -16
-8 -25 15 -16 42 -13 53 15 47 18 -3 25 -11 25 -27z m-1237 -25 c3 -12 0 -20
-8 -20 -20 0 -35 -24 -25 -40 6 -9 2 -27 -12 -52 -43 -76 -48 -7 -7 87 21 48
43 58 52 25z m646 -11 c14 -41 2 -60 -16 -25 -7 14 -21 26 -30 26 -14 0 -14 2
3 15 27 20 31 19 43 -16z m-755 -3 c-6 -15 -34 -30 -41 -22 -5 5 26 36 37 36
5 0 7 -6 4 -14z m-977 -83 c1 -46 -1 -61 -7 -48 -11 26 -12 115 -2 115 5 0 9
-30 9 -67z m1972 -19 c1 -30 -32 -56 -66 -52 l-28 3 30 15 c19 10 31 24 33 40
5 45 13 57 22 35 5 -11 9 -29 9 -41z m404 16 c3 -11 1 -20 -4 -20 -5 0 -9 9
-9 20 0 11 2 20 4 20 2 0 6 -9 9 -20z m-610 -14 c5 -14 -10 -36 -25 -36 -4 0
-8 8 -8 18 0 31 23 44 33 18z m620 -76 c1 -27 -3 -44 -10 -47 -10 -3 -13 11
-13 53 0 68 20 63 23 -6z m-79 -66 c3 -8 2 -12 -4 -9 -6 3 -10 10 -10 16 0 14
7 11 14 -7z m-1277 -19 c-4 -8 -11 -15 -17 -15 -6 0 -6 7 2 20 14 22 24 19 15
-5z m1280 -37 c-3 -8 -6 -5 -6 6 -1 11 2 17 5 13 3 -3 4 -12 1 -19z m83 12 c0
-5 -7 -10 -15 -10 -8 0 -15 5 -15 10 0 6 7 10 15 10 8 0 15 -4 15 -10z m-1424
-69 c-13 -14 -13 -20 -3 -30 9 -10 8 -11 -6 -5 -11 4 -16 13 -13 21 3 8 6 21
6 29 0 8 6 11 15 7 14 -5 14 -7 1 -22z m1429 -11 c-3 -5 -13 -10 -21 -10 -8 0
-12 5 -9 10 3 6 13 10 21 10 8 0 12 -4 9 -10z m5 -73 c0 -7 -9 -18 -20 -25
-18 -11 -20 -10 -20 13 0 18 5 25 20 25 11 0 20 -6 20 -13z m1011 -45 c-36
-46 -61 -68 -61 -55 0 14 70 93 82 93 5 0 -4 -17 -21 -38z m59 32 c0 -3 -21
-31 -46 -62 l-46 -57 46 49 c25 27 48 47 51 44 6 -6 -105 -146 -116 -147 -4
-1 -6 11 -6 26 0 17 15 46 41 77 22 28 46 56 51 63 11 13 25 17 25 7z m-95
-34 c-10 -11 -20 -18 -23 -15 -7 6 18 35 31 35 5 0 2 -9 -8 -20z m-982 -20
c21 0 20 -1 -5 -27 -33 -32 -37 -29 -30 17 3 19 7 29 9 23 3 -7 14 -13 26 -13z
m1101 -16 c3 -8 2 -23 -3 -32 -14 -26 -60 -66 -68 -59 -3 4 -12 2 -20 -5 -31
-26 -19 1 25 54 51 62 57 66 66 42z m16 -42 c0 -14 -49 -67 -55 -60 -3 3 6 20
20 37 28 32 35 37 35 23z m20 -21 c0 -6 -4 -13 -10 -16 -5 -3 -15 -16 -21 -28
-12 -21 -11 -21 8 -4 23 20 30 21 30 5 0 -7 3 -24 8 -37 6 -21 5 -22 -8 -10
-8 8 -12 21 -9 29 5 13 3 13 -11 2 -17 -14 -37 -9 -37 9 0 13 33 58 43 59 4 0
7 -4 7 -9z m-591 -30 c9 -6 10 -11 2 -15 -6 -4 -11 -1 -11 6 0 15 -36 -23
-140 -147 -41 -49 -86 -102 -98 -117 -13 -16 -22 -28 -19 -28 5 0 166 186 225
260 11 14 24 22 28 17 4 -4 -3 -18 -16 -32 -13 -14 -21 -25 -17 -25 4 0 22 17
42 38 63 67 36 17 -32 -62 -88 -101 -121 -141 -107 -134 5 4 50 54 99 112 53
62 93 102 99 96 4 -4 16 -6 25 -3 19 7 26 17 -95 -127 -86 -103 -125 -154 -78
-104 34 37 108 123 144 168 43 53 99 102 120 103 16 1 18 -2 11 -15 -4 -9 -6
-22 -4 -29 2 -6 -1 -15 -8 -19 -9 -5 -10 -2 -5 12 4 11 -13 0 -40 -26 -49 -46
-43 -30 10 27 16 18 27 35 25 37 -3 3 -36 -32 -74 -76 -38 -45 -64 -79 -57
-74 7 4 12 2 12 -6 -1 -17 -89 -110 -99 -104 -4 3 -23 -10 -41 -29 -18 -19
-37 -32 -42 -29 -5 3 -21 -8 -37 -25 -44 -47 -48 -37 -6 17 31 40 28 38 -19
-13 -46 -49 -58 -57 -66 -45 -15 23 -13 27 28 73 74 83 146 172 123 152 -13
-11 -65 -69 -116 -130 -92 -110 -125 -145 -125 -129 0 4 8 17 18 29 9 11 5 9
-9 -5 -14 -14 -39 -36 -54 -50 l-29 -25 28 40 c16 22 41 54 55 70 15 17 33 39
41 51 24 33 -67 -67 -103 -113 -30 -40 -47 -53 -47 -35 0 4 14 22 30 41 39 44
39 53 0 16 -32 -30 -42 -25 -13 7 16 18 16 18 0 12 -24 -9 -21 6 8 40 14 16
25 32 25 35 0 3 -12 -7 -25 -22 -15 -17 -25 -22 -25 -14 0 18 36 51 48 43 5
-3 15 1 22 9 7 8 17 15 22 15 5 0 -8 -21 -28 -47 -21 -27 -1 -9 45 39 45 48
88 87 94 85 7 -1 11 6 9 17 -3 13 1 17 12 13 14 -6 42 27 38 43 -2 9 60 81 66
76 3 -3 12 0 20 7 13 10 14 8 8 -11 -6 -17 3 -12 34 22 45 49 48 50 69 37z
m-2913 -46 c2 -21 0 -22 -13 -10 -8 8 -11 19 -8 25 11 17 20 11 21 -15z m3734
-15 c0 -5 -4 -10 -10 -10 -5 0 -10 5 -10 10 0 6 5 10 10 10 6 0 10 -4 10 -10z
m-3675 -20 c3 -5 14 -10 23 -10 9 0 32 -14 49 -30 18 -17 61 -43 95 -59 l63
-28 0 -64 c0 -35 -4 -70 -8 -76 -6 -9 -39 -13 -105 -13 -110 0 -148 -4 -165
-17 -32 -25 -140 -42 -151 -24 -3 4 6 7 21 5 14 -1 33 1 42 5 46 22 88 40 109
46 26 7 30 35 5 35 -17 1 -17 1 0 14 32 25 21 39 -25 31 -24 -4 -59 -9 -78
-11 -19 -3 -41 -7 -49 -9 -7 -3 -20 0 -27 6 -26 22 -15 34 34 35 62 2 142 25
142 42 0 21 -26 24 -74 8 -66 -23 -127 -21 -160 5 -15 12 -25 24 -22 27 3 2
12 -1 21 -8 11 -9 32 -11 73 -5 31 4 71 9 87 11 40 5 105 34 105 47 0 6 -7 19
-17 29 -9 10 -11 18 -5 18 6 0 14 -4 17 -10z m3664 -43 c-2 -2 -16 -8 -31 -15
-23 -9 -28 -9 -28 3 0 7 7 21 16 29 14 14 17 14 31 1 8 -9 14 -17 12 -18z
m-2375 9 c-3 -7 -6 -42 -8 -77 -4 -88 -5 -91 -15 -84 -5 3 -18 -6 -29 -20 -16
-21 -19 -36 -15 -92 2 -38 4 -75 4 -84 0 -12 8 -15 28 -13 25 3 27 1 23 -32
-5 -40 -14 -47 -62 -50 -19 -1 -55 -5 -79 -8 l-43 -6 23 19 c21 17 22 21 11
58 -17 56 -16 119 2 186 9 32 16 69 16 81 0 18 13 33 51 57 28 17 57 43 66 56
16 25 36 32 27 9z m1744 -17 c2 -13 6 -84 9 -156 4 -112 3 -133 -9 -133 -22 0
-29 12 -17 27 15 17 1 16 -31 -2 -32 -19 -90 -18 -114 0 -11 8 -16 15 -12 15
4 0 4 5 1 10 -4 7 -12 7 -18 2 -15 -10 -67 -6 -79 6 -11 11 91 102 113 102 11
0 11 2 -1 10 -12 7 -9 13 13 30 15 12 25 25 23 29 -3 4 9 16 27 26 18 10 41
29 51 42 24 28 40 25 44 -8z m92 -134 c0 -14 19 -21 69 -27 14 -2 26 -9 29
-15 2 -9 -5 -11 -26 -7 -18 4 -32 1 -37 -5 -10 -17 15 -42 39 -39 18 3 21 -3
24 -39 3 -41 3 -42 -30 -40 -24 2 -34 -3 -36 -15 -2 -12 3 -18 15 -18 15 -1
14 -3 -6 -14 l-23 -13 29 -21 c17 -12 33 -19 37 -15 3 3 6 1 6 -5 0 -7 -13
-12 -30 -12 -38 0 -38 -16 0 -38 38 -21 41 -47 5 -38 -18 5 -27 2 -32 -9 -8
-22 10 -37 42 -37 34 0 27 -22 -9 -26 -18 -2 -30 -12 -36 -28 -5 -13 -15 -24
-21 -24 -7 0 -2 -9 11 -20 13 -11 27 -20 32 -20 4 0 8 -5 8 -12 0 -6 -3 -8 -6
-5 -4 3 -15 2 -26 -4 -28 -15 -5 -39 38 -39 35 0 49 -12 40 -36 -4 -12 -10
-13 -26 -4 -30 16 -62 3 -55 -21 4 -11 1 -26 -5 -34 -18 -22 -3 -35 40 -35 21
0 42 -4 45 -10 4 -6 -15 -10 -48 -10 l-55 0 1 -37 c0 -21 4 -43 9 -50 5 -7 5
-14 -1 -17 -14 -9 -2 -36 15 -36 8 0 14 -4 14 -10 0 -5 -6 -7 -12 -5 -7 3 -19
1 -27 -4 -12 -8 -12 -12 -2 -25 9 -11 10 -16 2 -16 -6 0 -11 -9 -11 -20 0 -11
5 -20 11 -20 6 0 9 -12 8 -27 -1 -16 1 -39 6 -53 7 -24 8 -24 15 -5 8 19 8 19
16 1 5 -13 2 -23 -11 -33 -18 -13 -18 -14 -2 -43 10 -17 15 -30 10 -30 -4 0
-19 -10 -33 -21 -14 -11 -20 -18 -13 -15 6 3 13 0 15 -6 3 -7 13 -13 23 -13
10 0 20 -6 22 -12 3 -8 -4 -13 -16 -13 -27 0 -28 -30 -1 -37 30 -8 26 -43 -5
-43 -30 0 -35 -29 -5 -37 20 -5 37 -39 25 -51 -4 -4 -17 -7 -28 -7 -31 0 -30
-37 1 -45 24 -5 27 -23 4 -27 -20 -2 -23 -8 -16 -27 3 -9 13 -16 21 -16 8 0
11 -5 8 -10 -4 -6 -14 -9 -23 -8 -11 2 -17 -4 -17 -17 0 -13 8 -21 23 -23 30
-5 28 -20 -5 -33 l-28 -11 28 -22 c30 -24 27 -36 -10 -36 -35 0 -30 -33 7 -47
32 -12 40 -32 15 -34 -8 -1 -21 -2 -27 -3 -26 -2 -19 -34 9 -41 24 -7 25 -9 8
-13 -34 -7 -46 -22 -34 -43 5 -11 9 -25 8 -32 -5 -27 15 -73 40 -95 l26 -23
-25 3 c-32 4 -42 -31 -11 -39 26 -7 26 -8 -1 -35 l-22 -22 22 -9 c20 -9 20
-11 5 -22 -15 -11 -15 -15 -4 -29 7 -9 24 -16 37 -16 13 0 24 -4 24 -10 0 -5
-16 -10 -35 -10 -51 0 -44 -42 9 -51 11 -2 21 -9 23 -16 3 -8 -4 -10 -19 -8
-31 6 -53 -9 -44 -30 4 -13 14 -16 36 -13 21 3 30 0 30 -9 0 -9 -8 -13 -22
-11 -17 2 -23 -2 -23 -17 0 -13 8 -21 23 -23 12 -2 22 -8 22 -14 0 -6 -11 -8
-25 -6 -18 4 -29 -1 -40 -18 -19 -30 -10 -52 23 -57 20 -3 17 -4 -11 -6 -38
-1 -38 -2 -32 -33 6 -27 5 -30 -10 -24 -10 3 -24 1 -31 -5 -11 -9 -14 -7 -14
7 0 11 -1 102 -2 204 -2 102 1 266 6 365 5 99 8 515 8 925 -1 410 1 794 4 853
6 95 9 109 25 116 19 6 19 8 -3 31 -12 13 -17 25 -12 27 6 2 9 15 6 30 -3 18
-1 24 7 19 6 -4 11 -14 11 -21z m-2177 -30 c18 -13 17 -14 -10 -17 -25 -3 -28
-7 -29 -38 0 -19 -4 -42 -8 -51 -4 -9 -1 -21 9 -29 22 -19 20 -56 -5 -56 -30
0 -42 81 -26 169 6 30 11 37 29 37 12 0 30 -7 40 -15z m-993 -9 c0 -2 -7 -6
-15 -10 -8 -3 -15 -1 -15 4 0 6 7 10 15 10 8 0 15 -2 15 -4z m-97 -17 c7 0 3
-4 -8 -9 -29 -13 -35 -12 -35 6 0 11 5 14 16 10 9 -3 21 -6 27 -7z m936 -56
c-4 -32 -13 -59 -18 -61 -6 -2 -8 -14 -5 -29 6 -23 5 -25 -22 -19 -16 3 -54 8
-84 10 -30 2 -67 7 -81 11 -14 3 -53 -1 -86 -9 -82 -21 -125 -21 -121 0 5 25
65 53 161 75 32 7 60 16 63 21 3 4 13 8 23 8 10 0 24 6 30 14 7 8 19 12 29 10
9 -2 37 2 62 10 25 8 48 15 51 15 3 1 2 -25 -2 -56z m488 5 c-3 -8 -6 -5 -6 6
-1 11 2 17 5 13 3 -3 4 -12 1 -19z m-317 2 c0 -5 -4 -10 -10 -10 -5 0 -10 5
-10 10 0 6 5 10 10 10 6 0 10 -4 10 -10z m-543 -26 c-9 -9 -28 6 -21 18 4 6
10 6 17 -1 6 -6 8 -13 4 -17z m2153 12 c0 -3 -4 -8 -10 -11 -5 -3 -10 -1 -10
4 0 6 5 11 10 11 6 0 10 -2 10 -4z m133 -16 c-7 -27 -29 -43 -66 -47 -17 -2
-33 -7 -36 -11 -11 -14 -61 -43 -61 -34 0 11 -46 8 -62 -5 -32 -24 -41 -24
-18 1 13 14 29 25 36 22 7 -3 20 4 29 15 11 11 26 17 39 14 16 -4 106 37 143
64 0 0 -1 -8 -4 -19z m-2483 -9 c0 -8 12 -34 26 -59 l26 -44 -33 7 c-19 4 -54
16 -78 27 -43 20 -47 20 -118 3 -41 -10 -76 -15 -80 -12 -3 3 -2 22 1 41 6 31
11 36 44 41 20 4 41 7 45 8 4 1 44 2 87 2 62 0 80 -3 80 -14z m2618 -13 c7 -7
12 -20 12 -29 0 -27 19 -33 40 -14 11 10 26 15 36 11 9 -3 23 -1 30 5 11 9 14
8 14 -2 -1 -8 -21 -24 -46 -36 -42 -21 -47 -22 -69 -7 -23 15 -28 15 -65 -5
-22 -11 -48 -18 -57 -15 -10 3 -24 8 -32 10 -10 3 -10 10 4 32 10 15 27 35 39
44 24 20 77 23 94 6z m-3015 -28 c21 0 22 -4 19 -67 -3 -56 -1 -69 15 -81 17
-13 16 -13 -7 -10 -21 2 -25 -1 -25 -22 0 -14 -4 -31 -9 -39 -6 -10 -2 -19 15
-32 23 -17 23 -18 5 -32 -21 -15 -14 -37 11 -37 12 0 14 -7 9 -31 -3 -17 -6
-55 -6 -84 0 -44 -3 -54 -20 -58 -11 -3 -20 -10 -20 -17 0 -7 9 -14 20 -17 29
-8 25 -23 -6 -23 -23 0 -25 -3 -22 -37 3 -33 7 -38 30 -41 25 -3 27 -6 24 -42
-2 -25 1 -41 10 -44 25 -10 4 -45 -30 -48 -26 -3 -32 -8 -34 -32 -3 -22 0 -27
11 -23 10 4 13 -3 12 -28 -1 -18 -5 -38 -10 -44 -4 -7 0 -20 9 -30 9 -10 16
-26 16 -35 0 -10 9 -20 20 -23 26 -7 26 -23 -1 -23 -31 0 -18 -23 19 -35 46
-13 39 -27 -10 -23 -33 2 -43 0 -43 -12 0 -8 10 -16 23 -18 12 -2 22 -7 22
-12 0 -5 -15 -6 -34 -3 -43 7 -48 -3 -25 -51 23 -47 24 -76 4 -76 -34 0 -36
35 -34 473 2 538 0 662 -11 711 -10 45 -5 60 17 52 8 -3 24 -6 36 -6z m2697
-4 c0 -3 -4 -8 -10 -11 -5 -3 -10 -1 -10 4 0 6 5 11 10 11 6 0 10 -2 10 -4z
m495 -26 c10 -11 16 -20 13 -20 -3 0 -13 9 -23 20 -10 11 -16 20 -13 20 3 0
13 -9 23 -20z m-325 -29 c0 -3 -9 -12 -20 -19 -11 -7 -20 -21 -20 -33 0 -13
-4 -18 -12 -13 -16 10 -116 15 -151 8 -29 -6 -63 -55 -54 -78 3 -8 -3 -13 -16
-12 -33 2 -33 33 0 59 15 12 44 37 63 55 34 32 55 37 55 12 0 -23 22 -22 41 2
11 13 30 31 43 40 21 15 26 15 47 1 13 -8 24 -18 24 -22z m-1626 3 c3 -8 2
-12 -4 -9 -6 3 -10 10 -10 16 0 14 7 11 14 -7z m-932 -8 c8 -7 24 -17 36 -20
12 -4 20 -11 18 -15 -6 -8 36 -7 51 2 7 4 14 3 17 -2 4 -6 18 -6 38 0 17 5 34
7 36 4 3 -3 12 1 20 8 12 10 16 9 20 -1 3 -10 7 -10 20 0 14 11 15 10 9 -6 -7
-17 -6 -17 15 -4 13 8 34 14 48 13 14 -2 30 1 35 5 18 15 85 23 98 12 6 -6 23
-12 35 -14 l24 -3 -23 -30 c-21 -28 -21 -28 14 4 38 36 50 34 20 -3 -12 -14
-7 -12 12 5 35 30 80 38 71 12 -5 -13 -4 -14 8 -4 28 23 17 -50 -13 -84 l-26
-30 28 24 c33 30 37 9 5 -28 l-23 -26 23 19 c16 14 22 15 22 6 0 -8 -10 -25
-22 -39 -20 -22 -20 -23 -2 -8 28 23 37 21 22 -5 -7 -13 -11 -28 -10 -35 1 -6
-3 -15 -9 -19 -8 -5 -9 -3 -4 6 5 9 2 10 -11 6 -11 -3 -26 -1 -34 4 -12 8 -12
11 3 28 9 10 17 22 17 26 0 4 -11 -6 -25 -22 -19 -22 -31 -28 -50 -24 -25 4
-25 5 -8 26 17 21 17 21 -7 -1 -22 -19 -31 -20 -70 -13 -25 5 -49 9 -53 10 -5
0 -6 4 -3 9 4 5 -4 7 -16 3 -21 -5 -22 -4 -8 14 14 18 14 18 -6 2 -21 -18 -39
-24 -31 -10 3 4 -6 7 -19 7 -13 0 -24 -4 -24 -9 0 -5 -6 -3 -13 3 -8 6 -17 8
-20 4 -11 -10 -197 -11 -197 -1 0 5 -5 6 -12 2 -6 -4 -36 -7 -67 -6 -31 0 -74
-3 -97 -7 l-41 -8 4 31 c3 17 5 49 5 71 0 22 5 46 12 54 9 12 8 13 -2 7 -10
-6 -13 -3 -10 9 2 13 22 23 73 36 39 9 73 17 77 18 4 0 13 -5 20 -13z m778
-17 c0 -20 -5 -25 -22 -24 -17 1 -24 9 -26 27 -3 22 1 26 22 24 21 -1 26 -6
26 -27z m1510 6 c-7 -9 -15 -13 -17 -11 -7 7 7 26 19 26 6 0 6 -6 -2 -15z
m582 -47 c5 -16 14 -28 19 -28 5 0 9 -13 9 -30 0 -34 -11 -38 -35 -13 -15 15
-88 26 -79 12 2 -4 -3 -9 -11 -13 -8 -3 -15 -13 -15 -22 0 -13 -6 -15 -32 -10
-18 4 -46 6 -63 5 -79 -5 -325 0 -325 7 0 1 7 14 15 30 17 34 38 38 61 13 20
-23 44 -25 44 -4 0 22 34 18 55 -5 29 -32 46 -25 43 15 -1 22 4 41 14 51 15
15 17 14 30 -12 21 -45 45 -43 58 6 9 34 15 41 32 38 12 -2 29 -16 38 -33 20
-35 44 -39 48 -8 2 13 15 32 30 43 25 20 27 21 40 3 8 -10 18 -30 24 -45z
m658 26 c0 -17 -5 -24 -20 -24 -22 0 -27 29 -8 48 16 16 28 6 28 -24z m-230
-24 c0 -39 4 -52 19 -60 16 -8 23 -6 33 7 7 10 19 19 27 21 7 1 20 9 28 17 17
18 29 19 39 4 3 -6 15 -8 26 -6 14 4 18 1 16 -11 -2 -9 -10 -17 -18 -17 -8 0
-28 -16 -43 -35 -41 -51 -77 -75 -77 -51 0 5 9 11 20 14 24 6 26 32 4 41 -9 3
-30 -1 -47 -9 -27 -13 -31 -13 -42 2 -8 10 -20 14 -34 10 -17 -4 -21 -1 -21
19 0 18 5 24 18 22 12 -2 18 5 20 27 7 73 32 77 32 5z m-2564 -35 c-3 -8 -1
-15 5 -15 6 0 7 -4 4 -10 -11 -17 -21 -11 -23 15 -1 14 3 25 9 25 6 0 9 -7 5
-15z m2421 -45 c3 -11 10 -20 15 -20 16 0 -1 -17 -22 -23 -17 -4 -20 0 -20 29
0 37 19 46 27 14z m-323 -35 c3 -9 19 -21 35 -26 22 -8 28 -16 27 -34 l-1 -24
-42 24 c-23 14 -48 22 -57 19 -14 -5 -14 -3 0 25 17 34 29 39 38 16z m447 -28
c-7 -7 -11 -8 -11 0 0 6 -11 8 -26 5 -20 -4 -25 -2 -19 7 4 7 18 11 31 8 13
-2 24 1 25 7 0 6 3 5 6 -2 3 -8 0 -19 -6 -25z m-3731 11 c0 -9 3 -9 10 2 5 8
12 11 16 7 4 -4 2 -13 -4 -19 -9 -9 -17 -10 -30 -1 -10 6 -46 9 -82 7 -37 -2
-57 0 -47 4 33 14 137 14 137 0z m1450 3 c0 -12 -20 -25 -27 -18 -7 7 6 27 18
27 5 0 9 -4 9 -9z m-1643 -8 c-20 -2 -52 -2 -70 0 -17 2 0 4 38 4 39 0 53 -2
32 -4z m3101 -9 c20 -10 45 -24 54 -32 12 -10 22 -11 34 -4 14 8 21 6 30 -6
10 -14 29 -17 98 -16 84 2 86 2 64 -16 -16 -12 -49 -19 -108 -23 -110 -8 -138
-13 -155 -27 -41 -34 12 -69 110 -73 35 -1 65 -4 64 -7 0 -5 -72 -64 -122
-100 -18 -13 -19 -13 -13 8 5 16 3 24 -9 28 -10 4 -12 10 -6 18 7 8 3 22 -11
44 -21 34 -34 36 -98 16 -21 -7 -60 -71 -54 -89 3 -8 -1 -24 -10 -36 -13 -19
-13 -25 0 -50 8 -16 20 -29 27 -30 6 0 -1 -5 -18 -11 -16 -6 -34 -16 -38 -22
-6 -7 -7 -5 -4 6 3 9 2 18 -3 20 -8 3 -13 38 -25 174 l-7 71 34 8 c18 4 36 8
40 9 3 1 10 4 14 9 4 4 26 7 49 7 61 0 104 18 111 45 3 13 3 29 -1 34 -8 14
-184 15 -218 2 -22 -9 -25 -7 -30 17 -3 15 -4 29 -2 32 2 3 40 6 85 8 59 2 91
-2 118 -14z m-1544 -6 c-6 -10 -4 -10 7 0 19 17 34 15 19 -3 -12 -14 -16 -35
-25 -125 -1 -19 -3 -39 -4 -43 -1 -5 -5 -6 -10 -2 -5 3 -7 20 -5 38 3 17 5 58
5 90 0 31 5 57 10 57 6 0 7 -6 3 -12z m200 -17 c17 -15 18 -27 12 -151 -3 -74
-9 -421 -12 -770 -5 -500 -9 -638 -19 -649 -9 -9 -25 -11 -54 -6 -35 6 -41 10
-42 33 -3 47 -1 85 6 157 4 39 9 178 10 310 2 132 8 262 13 290 11 56 9 64
-15 49 -30 -19 -34 -64 -39 -364 -2 -162 -7 -342 -11 -399 -8 -97 -10 -104
-32 -113 l-24 -8 6 159 c4 87 9 165 11 172 3 8 7 48 10 89 3 41 7 89 10 105 3
17 8 86 11 155 6 144 14 238 21 260 3 8 8 47 11 85 2 39 11 99 18 135 10 49
11 66 2 72 -9 6 -9 8 1 8 6 0 12 11 12 25 0 15 -6 25 -15 25 -17 0 -30 -23
-38 -70 -16 -91 -49 -458 -52 -570 -2 -69 -8 -152 -14 -185 -9 -56 -16 -134
-26 -319 -5 -90 -18 -116 -45 -91 -14 13 -16 24 -10 58 5 23 11 76 15 117 4
41 9 86 11 100 27 190 25 176 55 455 27 262 26 258 39 345 6 41 13 129 16 195
4 106 14 204 30 287 4 20 12 28 32 31 38 5 74 -3 96 -22z m2303 -24 c12 -11
19 -25 17 -31 -5 -14 -103 -18 -105 -4 -5 23 -2 31 16 52 21 25 24 24 72 -17z
m-2693 -69 c-3 -10 -10 -18 -15 -18 -18 0 -9 -29 11 -35 26 -8 27 -45 1 -45
-20 0 -31 -18 -31 -50 0 -10 -5 -22 -11 -25 -12 -8 -7 40 19 175 15 79 17 82
24 50 4 -19 5 -43 2 -52z m2540 65 c4 -9 -4 -13 -25 -13 -22 0 -41 -10 -65
-34 -33 -33 -34 -33 -34 -10 0 13 5 24 10 24 6 0 10 9 10 19 0 11 6 21 13 24
24 9 87 2 91 -10z m-3246 -2 c7 -1 11 -5 7 -11 -3 -5 7 -3 22 5 22 12 53 14
133 10 276 -14 368 -31 395 -71 8 -13 21 -21 28 -18 9 3 13 -2 12 -13 -15
-146 -17 -154 -44 -165 -40 -15 -199 -41 -266 -43 -33 -1 -93 -3 -133 -3 -72
-2 -73 -2 -70 -28 3 -23 -1 -27 -27 -30 -16 -2 -41 -6 -55 -9 -14 -4 -43 -9
-65 -11 -22 -2 -63 -6 -92 -10 l-52 -5 -3 98 c-2 54 1 141 6 195 l9 96 46 10
c39 8 73 9 149 3z m3544 -23 c-7 -7 -12 -8 -12 -2 0 6 3 14 7 17 3 4 9 5 12 2
2 -3 -1 -11 -7 -17z m-665 -28 l0 -41 -43 2 c-43 3 -64 19 -24 19 11 0 23 7
26 15 4 8 12 15 20 15 8 0 14 7 14 15 0 8 2 15 4 15 2 0 3 -18 3 -40z m-552
20 c-3 -5 -13 -10 -21 -10 -8 0 -12 5 -9 10 3 6 13 10 21 10 8 0 12 -4 9 -10z
m-50 -10 c-3 -5 -13 -10 -21 -10 -8 0 -12 5 -9 10 3 6 13 10 21 10 8 0 12 -4
9 -10z m792 4 c-3 -3 -12 -4 -19 -1 -8 3 -5 6 6 6 11 1 17 -2 13 -5z m190 -24
c9 0 13 -3 10 -7 -15 -14 15 -32 44 -26 16 3 29 1 29 -4 0 -15 -39 -53 -54
-53 -18 0 -29 -29 -17 -44 7 -9 1 -17 -20 -30 -26 -16 -30 -23 -25 -47 6 -32
4 -33 -40 -20 -18 5 -37 5 -47 -1 -14 -7 -17 -4 -17 17 0 22 3 25 26 19 25 -6
26 -5 22 20 -3 14 -2 29 3 32 5 2 7 32 6 65 -2 50 1 63 18 75 11 8 26 12 33 9
8 -3 21 -5 29 -5z m208 -16 c9 -10 13 -24 10 -36 -4 -10 -2 -25 5 -33 8 -10 7
-16 -5 -23 -10 -5 -15 -17 -13 -28 3 -14 12 -19 34 -18 28 1 29 -1 26 -31 -2
-18 -10 -32 -17 -32 -8 0 -12 4 -9 9 3 4 0 8 -5 8 -6 0 -11 -4 -11 -8 0 -4
-16 -7 -35 -7 -19 1 -33 -1 -30 -3 3 -3 -2 -13 -11 -23 -9 -10 -14 -25 -11
-32 7 -20 -73 -34 -84 -15 -4 6 -6 16 -3 20 3 4 -3 19 -12 33 -23 35 -4 57 25
31 14 -12 26 -16 38 -11 10 5 23 7 30 6 7 -1 17 7 22 18 8 15 7 20 -5 25 -9 3
-20 3 -25 0 -8 -4 -49 30 -49 40 0 1 12 2 27 1 26 0 27 3 25 36 -2 22 2 40 9
45 9 5 10 2 6 -9 -4 -12 0 -15 17 -13 28 3 46 14 46 29 0 7 -4 6 -10 -3 -12
-20 -21 -9 -13 18 6 26 7 26 28 6z m-735 -23 c-24 -13 -40 -16 -52 -10 -9 5
-50 10 -90 10 -100 2 -41 13 82 16 l95 2 -35 -18z m55 -40 c-6 -5 -23 -12 -40
-15 l-30 -6 30 14 c35 18 54 20 40 7z m-1900 -128 c-4 -115 -7 -149 -20 -233
-2 -14 -7 -59 -10 -100 -2 -41 -7 -86 -10 -100 -6 -29 -15 -124 -20 -195 -2
-43 -13 -145 -20 -195 -1 -8 -5 -46 -9 -85 -4 -38 -10 -86 -13 -105 -2 -19 -7
-64 -9 -100 -6 -87 -11 -100 -29 -77 -9 13 -10 27 -3 55 5 20 12 69 14 107 2
39 11 113 19 165 8 52 16 120 19 150 3 30 7 73 10 95 3 22 8 65 11 95 2 30 9
93 15 140 6 47 15 139 20 205 6 66 13 149 16 185 4 36 6 72 6 80 0 19 6 40 12
40 3 0 3 -57 1 -127z m1805 92 c-7 -8 -18 -15 -24 -15 -6 0 -2 7 8 15 25 19
32 19 16 0z m115 -21 c-11 -8 -20 -19 -20 -24 0 -4 -3 -11 -7 -15 -4 -4 -6
-19 -4 -34 2 -14 1 -19 -1 -11 -23 73 -113 60 -113 -17 0 -24 4 -33 17 -33 14
0 15 -2 4 -12 -11 -11 -14 -10 -18 0 -9 25 -36 43 -56 38 -17 -4 -17 -2 4 20
32 34 78 62 141 84 64 23 80 24 53 4z m80 -22 c-8 -8 -25 10 -19 20 4 6 9 5
15 -3 4 -7 6 -15 4 -17z m-285 -15 c0 -2 -10 -12 -22 -23 l-23 -19 19 23 c18
21 26 27 26 19z m-1927 -68 c-5 -24 -1 -30 21 -38 28 -11 27 -35 -2 -44 -9 -3
-25 -8 -34 -12 -15 -6 -16 0 -13 47 2 29 4 61 4 70 1 11 6 15 16 12 10 -4 12
-15 8 -35z m1877 17 c0 -2 -22 -20 -49 -39 -33 -24 -53 -32 -62 -26 -10 6 -10
9 -2 9 7 0 34 14 60 30 48 31 53 33 53 26z m-1985 -118 c-3 -57 -8 -118 -11
-136 -5 -32 -6 -33 -24 -17 -26 23 -66 12 -112 -31 -46 -41 -47 -57 -8 -85
l30 -22 -40 -18 c-22 -10 -40 -22 -40 -27 0 -5 -11 -7 -25 -5 -13 3 -38 0 -55
-6 -28 -9 -32 -8 -39 12 -5 13 -15 28 -23 35 -21 17 -75 -6 -90 -38 -11 -25
-12 -25 -107 -22 -164 6 -171 7 -171 16 0 6 -9 19 -19 30 -15 16 -22 46 -30
131 -6 61 -12 122 -15 138 -5 31 -3 32 28 12 17 -11 30 -13 52 -5 16 5 65 14
109 21 163 23 159 22 165 48 5 22 11 24 75 28 155 7 211 12 225 17 8 3 35 7
58 10 24 2 46 7 50 10 17 18 21 -4 17 -96z m226 51 c-10 -23 -10 -23 -9 6 2
35 11 57 16 34 1 -8 -2 -26 -7 -40z m2099 25 c0 -17 -4 -24 -12 -20 -7 3 -21
9 -30 12 -32 11 -20 28 23 31 14 1 19 -5 19 -23z m-337 -34 c-3 -12 -14 -20
-27 -20 -21 1 -21 1 3 20 29 25 30 25 24 0z m747 10 c0 -13 -11 -13 -30 0 -12
8 -11 10 8 10 12 0 22 -4 22 -10z m-835 -40 c-3 -5 -13 -10 -21 -10 -8 0 -12
5 -9 10 3 6 13 10 21 10 8 0 12 -4 9 -10z m335 -17 l25 -14 -25 7 c-14 4 -38
8 -55 9 -16 2 -36 3 -42 4 -7 0 -13 6 -13 12 0 14 76 2 110 -18z m83 -47 c-3
-22 -7 -43 -9 -45 -8 -9 -94 23 -94 35 0 10 6 11 26 4 14 -6 30 -8 35 -4 13 8
11 32 -3 37 -7 3 -3 6 10 6 14 1 22 7 22 19 0 13 2 14 9 3 5 -7 6 -32 4 -55z
m-553 47 c0 -10 -61 -45 -67 -39 -8 7 36 46 52 46 8 0 15 -3 15 -7z m1113 -25
c12 -14 39 -31 59 -38 63 -23 55 -37 -23 -39 -56 -1 -69 2 -69 14 0 8 -5 15
-11 15 -6 0 -9 -6 -6 -14 4 -11 -2 -13 -26 -9 -18 3 -39 6 -47 8 -22 3 -14 20
11 21 25 2 39 20 39 51 0 30 44 25 73 -9z m-2760 -2 c33 -8 34 -18 5 -31 -19
-8 -23 -19 -25 -63 -2 -30 1 -51 6 -47 22 13 22 -19 0 -36 -21 -16 -23 -21
-11 -39 11 -19 11 -24 -4 -35 -16 -11 -16 -15 -4 -30 12 -15 12 -19 -3 -30
-21 -15 -22 -44 -2 -51 12 -5 10 -10 -10 -26 -21 -16 -23 -23 -14 -34 9 -11 9
-21 0 -41 -12 -26 -4 -41 24 -44 6 0 1 -4 -10 -8 -15 -6 -22 -24 -31 -77 -8
-46 -8 -73 -2 -81 7 -9 5 -18 -7 -29 -9 -9 -14 -25 -12 -35 3 -10 -1 -24 -9
-30 -12 -10 -13 2 -9 77 7 120 32 351 54 509 10 71 16 135 14 142 -7 18 7 69
15 57 4 -6 19 -14 35 -18z m103 -12 c-4 -9 -9 -15 -11 -12 -3 3 -3 13 1 22 4
9 9 15 11 12 3 -3 3 -13 -1 -22z m1730 -11 c-8 -20 8 -23 96 -24 70 -1 98 -7
176 -37 91 -35 92 -36 92 -70 l0 -34 -28 30 c-32 34 -69 47 -110 39 -114 -24
-121 -24 -139 -5 -11 13 -27 18 -47 16 -23 -2 -37 4 -52 21 -20 24 -24 24 -63
13 -23 -7 -46 -22 -52 -35 -15 -28 -36 -40 -76 -44 -22 -2 -33 1 -34 9 0 7 -2
33 -5 58 l-4 46 49 2 c27 1 71 8 98 14 63 17 105 17 99 1z m547 -28 c-3 -9 -8
-14 -10 -11 -3 3 -2 9 2 15 9 16 15 13 8 -4z m-589 -73 c11 -18 -7 -50 -30
-55 -13 -2 -24 0 -24 4 0 5 5 9 10 9 6 0 10 11 10 25 0 24 23 35 34 17z
m-1713 -39 c-8 -15 -10 -15 -11 -2 0 17 10 32 18 25 2 -3 -1 -13 -7 -23z
m1814 -3 c3 -11 14 -20 23 -20 12 -1 8 -6 -10 -16 -37 -19 -53 -51 -37 -70 9
-11 8 -14 -5 -14 -9 0 -30 -9 -45 -21 -16 -11 -39 -19 -51 -17 -21 3 -24 10
-28 56 -4 52 -3 54 20 47 13 -4 30 -14 39 -21 22 -20 39 1 32 39 -5 22 -1 33
12 44 26 18 43 16 50 -7z m242 -17 c17 -22 -1 -31 -24 -11 -10 8 -14 8 -10 1
5 -8 -2 -13 -20 -15 -16 -2 -28 -9 -29 -18 -2 -31 -6 -34 -14 -12 -6 13 -28
31 -50 41 -30 13 -37 20 -26 24 9 4 16 3 16 -2 0 -5 13 -11 29 -13 17 -2 28
-1 25 4 -21 33 79 35 103 1z m373 7 c25 -5 52 -9 60 -8 29 2 50 -2 50 -11 0
-5 -42 -8 -94 -8 -92 0 -94 0 -92 24 1 16 5 21 16 17 8 -3 35 -9 60 -14z m333
-5 c50 -13 28 -25 -50 -26 -43 -1 -97 -3 -120 -4 -45 -2 -51 3 -31 23 15 15
48 16 48 2 0 -5 5 -10 11 -10 5 0 8 4 4 9 -10 17 79 21 138 6z m-2766 -49 c0
-25 -5 -42 -9 -40 -5 3 -6 18 -4 32 2 15 5 33 5 40 1 6 3 12 5 12 3 0 4 -20 3
-44z m2823 34 c0 -5 -4 -10 -10 -10 -5 0 -10 5 -10 10 0 6 5 10 10 10 6 0 10
-4 10 -10z m-1207 -34 c-4 -6 -8 -18 -8 -26 0 -8 -19 -25 -42 -38 l-43 -23 0
35 c0 25 4 36 15 36 8 0 15 -6 16 -12 0 -10 2 -10 6 0 4 10 8 10 19 1 8 -6 14
-8 14 -3 0 5 -12 19 -27 31 l-26 23 33 -6 c27 -6 32 -4 25 7 -8 12 -6 12 8 0
9 -7 14 -18 10 -25z m295 -33 c2 -24 10 -34 33 -42 21 -7 29 -16 29 -34 0 -20
-4 -23 -30 -19 -16 2 -35 10 -41 18 -6 8 -21 14 -33 14 -18 0 -21 6 -21 43 0
37 3 42 22 41 12 0 19 4 16 9 -3 5 0 8 8 5 8 -2 15 -18 17 -35z m207 6 c11
-16 1 -19 -13 -3 -7 8 -8 14 -3 14 5 0 13 -5 16 -11z m-27 -43 c15 -5 23 -3
24 6 1 7 4 -30 8 -82 6 -106 3 -514 -6 -715 -3 -71 -6 -149 -6 -173 -1 -38 -3
-42 -22 -36 -23 7 -70 38 -99 65 -17 16 -18 29 -12 151 3 73 8 151 10 173 10
94 24 301 31 445 6 148 14 186 38 177 6 -2 21 -7 34 -11z m-476 -22 c8 -8 -12
-45 -44 -79 -16 -16 -28 -35 -28 -42 0 -7 -4 -13 -10 -13 -5 0 -10 11 -10 25
0 25 44 77 56 66 4 -3 4 0 0 7 -15 26 16 57 36 36z m-2413 -190 c-8 -10 -37
-14 -96 -14 -76 0 -84 2 -73 16 8 8 15 51 18 96 l5 80 78 -82 c63 -66 77 -85
68 -96z m2600 173 c-2 -1 -15 -11 -28 -22 l-24 -20 12 23 c6 12 19 22 28 22 9
0 14 -1 12 -3z m-85 -39 c21 -9 24 -16 19 -37 -3 -14 -10 -34 -14 -43 -5 -9
-6 -30 -3 -48 6 -30 6 -31 -22 -26 -25 5 -35 -1 -71 -40 -24 -26 -43 -53 -43
-60 0 -8 -8 -14 -17 -15 -11 0 -13 -3 -5 -6 6 -2 12 -14 12 -25 0 -14 -6 -19
-22 -16 -20 3 -23 9 -23 53 0 28 5 61 12 75 7 14 15 37 18 53 4 18 12 27 25
27 15 0 20 7 20 28 0 19 7 30 23 37 12 6 23 20 25 33 4 25 27 29 66 10z m173
-40 c12 -13 21 -15 40 -7 13 5 27 9 30 9 5 0 -6 -233 -12 -239 -2 -2 -18 3
-34 10 -23 10 -31 21 -31 39 0 32 -17 50 -47 50 -18 0 -23 -6 -23 -24 0 -14
-4 -27 -10 -31 -5 -3 -7 -12 -4 -19 3 -8 -9 -22 -28 -35 -18 -11 -46 -35 -63
-52 -16 -17 -42 -37 -56 -44 -34 -18 -56 -69 -39 -90 7 -8 9 -15 4 -15 -5 0
-2 -4 6 -10 10 -6 14 -25 12 -70 -2 -34 -3 -65 -4 -68 -1 -4 2 -22 6 -39 5
-24 13 -33 28 -33 13 0 18 -6 16 -17 -7 -36 -47 -22 -50 19 -2 22 -5 25 -29
18 -14 -4 -38 -6 -52 -3 -22 4 -26 1 -30 -23 -3 -16 -3 39 0 121 4 112 9 152
19 158 8 4 14 21 14 37 0 17 5 30 11 30 5 0 7 -6 3 -12 -6 -10 -5 -10 7 -1 10
8 19 9 27 3 7 -6 10 -7 7 -4 -3 4 3 13 13 20 13 9 21 10 32 1 11 -8 10 -6 -2
8 -13 16 -15 30 -8 72 11 66 14 71 45 71 13 0 22 -4 19 -9 -3 -5 2 -6 11 -2
12 4 16 1 15 -13 -4 -38 0 -54 15 -54 17 0 20 16 5 25 -16 10 -11 22 11 28 12
3 18 10 14 17 -4 6 -1 18 6 26 9 11 9 20 0 40 -13 30 -14 66 -2 80 5 5 11 20
13 34 2 20 9 25 30 25 15 1 31 4 35 9 4 4 9 1 12 -6 2 -7 10 -21 18 -30z m538
11 c5 -6 5 -13 -3 -21 -8 -8 -8 -17 -1 -30 5 -10 7 -23 4 -28 -3 -6 -8 -121
-11 -257 -3 -137 -11 -329 -18 -428 -7 -99 -13 -193 -14 -209 0 -16 -6 -32
-14 -37 -10 -7 -15 3 -22 42 -7 40 -6 53 5 60 10 6 11 11 3 17 -8 5 -10 125
-8 437 3 237 4 440 4 453 0 21 3 23 33 17 17 -4 36 -11 42 -16z m-2939 -21
l29 -31 -32 23 c-18 13 -33 27 -33 32 0 13 5 10 36 -24z m3070 -13 c-1 -22 -2
-23 -13 -9 -12 17 -9 34 7 34 4 0 7 -11 6 -25z m-3214 -25 c43 -36 71 -32 62
9 l-7 26 31 -29 c29 -27 49 -72 38 -84 -3 -2 -16 2 -30 11 -40 26 -108 -1
-127 -50 -11 -29 -49 -32 -49 -3 0 10 5 30 11 44 10 22 8 29 -15 56 -35 42
-33 50 12 50 27 0 48 -8 74 -30z m393 10 c3 -5 1 -10 -4 -10 -6 0 -11 5 -11
10 0 6 2 10 4 10 3 0 8 -4 11 -10z m-757 -58 c2 -7 -8 -12 -25 -12 -36 0 -46
9 -32 26 12 14 50 5 57 -14z m3499 -4 c-3 -8 -6 -5 -6 6 -1 11 2 17 5 13 3 -3
4 -12 1 -19z m-2767 -18 c0 -5 9 -18 21 -28 15 -14 18 -26 13 -46 -8 -32 -13
-32 -50 -3 -20 16 -43 22 -79 23 -55 1 -95 11 -95 24 0 17 32 19 55 4 22 -14
27 -14 67 10 46 26 68 32 68 16z m2800 -18 c0 -4 -9 -13 -20 -20 -18 -11 -20
-10 -20 8 0 13 7 20 20 20 11 0 20 -3 20 -8z m-3826 -123 c-1 -63 -5 -116 -10
-119 -9 -5 -23 228 -15 236 3 2 10 3 15 1 7 -2 11 -45 10 -118z m165 -5 l-3
-114 -69 0 c-44 0 -66 4 -62 10 11 17 13 194 2 208 -7 9 -4 12 12 12 17 0 21
-6 21 -36 0 -31 3 -36 20 -31 16 4 20 0 20 -19 0 -33 28 -31 41 4 6 15 8 42 5
60 -3 20 -1 30 5 26 6 -3 9 -52 8 -120z m51 98 c0 -15 -2 -15 -10 -2 -13 20
-13 33 0 25 6 -3 10 -14 10 -23z m-633 -4 c-3 -8 -6 -5 -6 6 -1 11 2 17 5 13
3 -3 4 -12 1 -19z m188 -104 c-4 -31 -2 -44 11 -55 14 -11 18 -11 30 6 12 17
19 91 14 153 -1 20 3 22 54 22 l56 0 2 -77 c1 -43 2 -96 3 -118 l2 -41 -165
-2 c-147 -2 -164 -1 -152 13 10 12 10 18 0 30 -17 21 -54 1 -47 -26 4 -17 0
-19 -39 -19 -34 0 -42 3 -38 15 3 8 9 47 14 87 6 64 8 69 15 41 8 -36 40 -46
48 -15 3 10 5 7 6 -10 0 -16 9 -32 20 -37 22 -12 31 -5 31 26 0 19 5 24 23 21
20 -3 23 2 28 52 l6 55 2 -55 c2 -30 3 -80 4 -110 2 -52 4 -55 27 -55 25 0 25
1 26 85 0 47 2 99 3 115 3 27 4 25 12 -15 6 -25 7 -63 4 -86z m344 99 c0 -25
-1 -26 -9 -8 -12 27 -12 35 0 35 6 0 10 -12 9 -27z m170 -80 c-10 -12 -10 -16
2 -24 30 -19 48 -3 39 36 -1 6 -2 29 -1 53 1 52 26 58 36 10 11 -57 16 -68 29
-68 19 0 27 -53 15 -89 -10 -29 -12 -29 -65 -24 -37 4 -54 2 -54 -6 0 -6 -18
-11 -43 -11 l-43 0 4 63 c5 82 10 95 11 27 1 -61 12 -86 33 -77 11 4 14 23 12
84 -1 43 0 91 3 108 6 28 7 28 20 -19 11 -38 12 -51 2 -63z m141 83 c0 -13 3
-31 6 -40 4 -11 1 -16 -10 -16 -12 0 -16 10 -16 40 0 22 5 40 10 40 6 0 10
-11 10 -24z m80 15 c0 -5 -6 -14 -14 -20 -11 -9 -15 -7 -19 9 -4 15 0 20 14
20 10 0 19 -4 19 -9z m221 -8 c1 -10 3 -25 4 -33 1 -8 3 -21 4 -27 0 -8 16
-13 40 -13 31 0 41 4 46 20 7 21 20 26 29 12 7 -12 -5 -53 -14 -47 -5 3 -32
-4 -60 -15 -33 -13 -60 -18 -74 -13 -32 10 -48 14 -84 20 -18 3 -31 10 -29 16
4 13 33 14 59 3 17 -8 58 9 58 23 0 5 -7 14 -15 21 -11 9 -12 17 -4 31 12 24
39 25 40 2z m233 -52 c4 -5 26 -19 50 -31 39 -18 44 -25 41 -48 -2 -15 -4 -40
-5 -57 -1 -28 -2 -28 -10 -8 -19 46 -98 58 -143 23 -20 -16 -34 -19 -67 -14
-32 5 -45 3 -61 -12 -17 -16 -22 -16 -31 -4 -8 12 -9 12 -4 -3 3 -11 0 -20 -9
-23 -8 -3 -17 -14 -20 -25 -6 -18 -8 -18 -28 -4 -24 17 -83 20 -92 5 -15 -25
-32 -8 -33 34 -2 38 2 48 28 69 l29 25 58 -24 c66 -27 98 -30 110 -10 13 22
47 35 65 25 18 -10 72 26 65 45 -11 30 41 64 57 37z m2253 -56 c44 -21 53 -30
53 -51 0 -25 -1 -26 -46 -19 -41 6 -45 5 -42 -12 2 -13 14 -19 41 -21 20 -2
37 -7 37 -11 0 -13 -41 -21 -59 -12 -9 5 -22 6 -29 4 -20 -8 5 -32 27 -26 24
6 61 -13 61 -32 0 -11 -8 -13 -31 -8 -25 5 -31 3 -27 -8 3 -8 15 -14 27 -13
16 0 21 -5 21 -24 0 -19 -4 -23 -17 -17 -10 4 -30 12 -45 17 -30 11 -36 23
-15 31 9 3 9 7 0 17 -14 15 -36 3 -29 -16 7 -19 -17 -18 -55 2 -25 13 -28 18
-18 30 20 24 -4 41 -36 26 -15 -7 -33 -9 -41 -4 -12 7 -10 12 10 31 20 18 28
21 44 12 12 -6 25 -11 31 -11 17 0 13 27 -6 34 -15 6 -15 8 0 23 13 13 20 15
29 5 17 -17 48 -15 48 3 0 9 -10 20 -22 25 -20 9 -18 9 9 4 38 -6 55 13 28 33
-29 20 -7 15 52 -12z m-2761 -117 c-1 -39 1 -43 22 -41 21 3 22 0 17 -49 -6
-60 -10 -68 -19 -33 -4 14 -11 25 -16 25 -6 0 -10 -1 -10 -2 -21 -168 -30
-257 -30 -310 0 -38 -4 -68 -9 -68 -12 0 -5 227 9 317 6 34 6 72 2 85 -10 27
-5 58 9 58 5 0 9 11 9 23 0 20 7 37 16 37 1 0 1 -19 0 -42z m551 -28 c6 -17
17 -30 25 -30 10 0 13 -19 12 -77 -2 -85 3 -91 59 -92 25 -1 27 -4 27 -47 0
-27 -4 -43 -10 -39 -5 3 -10 -1 -10 -9 0 -19 -11 -20 -29 -3 -10 9 -15 9 -18
0 -3 -9 -35 -10 -116 -7 -129 6 -149 10 -127 25 12 7 11 9 -5 7 -28 -2 -85 21
-85 35 0 7 15 19 33 28 28 14 32 21 34 59 1 33 -3 43 -17 47 -27 7 -32 43 -12
78 20 34 53 43 72 20 17 -21 43 -19 65 5 10 11 26 20 36 20 10 0 20 4 24 10
10 16 30 1 42 -30z m131 -6 c-20 -43 -35 -27 -22 24 5 17 9 20 20 11 10 -8 10
-16 2 -35z m-479 -68 c-3 -27 2 -37 19 -34 11 2 26 -3 35 -11 15 -12 14 -17
-13 -51 -33 -41 -39 -80 -15 -100 25 -21 17 -25 -43 -24 -120 3 -110 0 -107
42 9 108 18 152 31 152 8 0 14 7 14 15 0 8 9 15 19 15 10 0 22 7 25 16 5 13 9
14 21 4 9 -7 15 -18 14 -24z m481 30 c0 -2 -7 -7 -16 -10 -8 -3 -12 -2 -9 4 6
10 25 14 25 6z m-1581 -47 c17 -6 36 -20 42 -30 13 -26 31 -24 59 6 13 14 34
25 47 25 20 0 23 -4 21 -32 -3 -28 1 -33 22 -37 41 -5 58 -53 18 -48 -17 1
-22 -3 -23 -23 0 -23 -4 -25 -42 -26 -24 0 -45 -2 -47 -5 -3 -3 -6 -31 -8 -64
-3 -59 -12 -72 -37 -56 -10 6 -14 26 -13 60 1 41 -4 56 -29 88 -17 21 -44 44
-60 51 -28 12 -32 39 -4 28 23 -8 41 22 27 45 -21 32 -19 34 27 18z m3540 -48
c-2 -24 4 -46 16 -62 l18 -25 24 24 c13 12 23 26 23 30 0 12 48 8 60 -4 14
-14 9 -120 -5 -117 -31 8 -188 72 -194 80 -3 5 -14 12 -23 16 -11 4 -18 17
-18 32 0 28 3 29 31 14 27 -14 48 4 41 36 -3 21 -1 24 12 19 13 -5 17 -16 15
-43z m-1914 8 c5 -5 0 -9 -12 -9 -28 0 -53 10 -53 21 0 11 50 1 65 -12z m2435
-109 c0 -5 -4 -10 -10 -10 -5 0 -10 5 -10 10 0 6 5 10 10 10 6 0 10 -4 10 -10z
m-3153 -62 c-3 -8 -6 -5 -6 6 -1 11 2 17 5 13 3 -3 4 -12 1 -19z m3143 2 c0
-5 -5 -10 -11 -10 -5 0 -7 5 -4 10 3 6 8 10 11 10 2 0 4 -4 4 -10z m-2005 -19
c21 -1 41 -4 44 -6 5 -6 8 -312 3 -341 -3 -18 -64 -59 -76 -51 -2 1 -13 -7
-25 -17 -12 -11 -24 -16 -27 -13 -4 4 -19 -3 -35 -13 -15 -11 -30 -17 -32 -13
-3 5 -17 58 -32 118 -15 61 -32 118 -37 129 -35 66 -20 237 16 192 14 -17 63
-29 71 -16 3 5 12 7 20 4 8 -4 24 5 37 19 13 14 25 22 28 18 3 -4 23 -8 45
-10z m1529 -7 c4 -10 1 -14 -6 -12 -15 5 -23 28 -10 28 5 0 13 -7 16 -16z
m-2944 -4 c0 -5 -2 -10 -4 -10 -3 0 -8 5 -11 10 -3 6 -1 10 4 10 6 0 11 -4 11
-10z m279 -50 c-1 -34 -7 -64 -12 -67 -6 -4 -8 6 -4 27 4 18 7 48 7 66 0 19 2
34 6 34 3 0 4 -27 3 -60z m743 25 c-12 -22 -27 -2 -18 22 5 12 10 13 17 6 7
-7 8 -17 1 -28z m1742 26 c53 -2 20 -12 -58 -17 -61 -4 -75 -3 -71 8 5 13 23
14 129 9z m-1832 -27 c4 -3 8 -15 8 -27 0 -13 9 -30 20 -40 11 -9 21 -25 22
-34 2 -26 4 -36 12 -53 3 -9 3 -40 -1 -70 l-8 -55 -130 1 c-269 3 -515 11
-521 16 -7 8 -12 223 -6 256 l5 24 296 -6 c162 -4 299 -10 303 -12z m-1024 -6
c-2 -6 -10 -14 -16 -16 -7 -2 -10 2 -6 12 7 18 28 22 22 4z m-585 -25 c72 -26
59 -47 -27 -44 -65 2 -82 8 -90 29 -3 9 -9 23 -12 31 -5 11 2 13 37 7 24 -3
65 -14 92 -23z m735 15 c19 -19 15 -48 -8 -48 -16 0 -20 7 -20 30 0 32 9 37
28 18z m-68 -18 c0 -22 -35 -46 -45 -30 -3 6 -3 19 0 30 8 26 45 27 45 0z
m3090 -31 c25 -23 63 -50 86 -60 65 -29 75 -47 72 -120 l-3 -63 -245 4 c-135
2 -269 3 -297 3 l-53 -1 -1 36 c-1 21 -2 83 -4 138 l-3 101 202 2 202 2 44
-42z m-2960 -23 c0 -22 -11 -46 -21 -46 -10 0 -12 43 -2 53 11 12 23 8 23 -7z
m-85 -19 c10 -8 15 -19 11 -25 -11 -18 -22 -14 -34 13 -13 28 -5 32 23 12z
m239 -12 c-4 -8 -8 -15 -10 -15 -2 0 -4 7 -4 15 0 8 4 15 10 15 5 0 7 -7 4
-15z m-304 -10 c10 -12 9 -16 -5 -21 -19 -8 -40 9 -31 25 10 15 21 14 36 -4z
m204 -27 c11 -41 7 -54 -9 -32 -16 21 -20 54 -6 54 5 0 11 -10 15 -22z m93
-40 c-3 -7 -5 -2 -5 12 0 14 2 19 5 13 2 -7 2 -19 0 -25z m-844 -7 c-2 -16 5
-26 30 -36 31 -13 94 -81 84 -91 -3 -3 -17 2 -31 11 -14 9 -33 14 -43 11 -12
-4 -28 4 -46 24 -16 17 -32 30 -37 30 -18 0 -17 31 2 55 23 30 44 28 41 -4z
m844 -88 c-2 -16 -4 -3 -4 27 0 30 2 43 4 28 2 -16 2 -40 0 -55z m3253 -12 c0
-15 -18 -31 -35 -31 -7 0 -13 43 -8 56 7 20 43 -1 43 -25z m-3253 -53 c-3 -8
-6 -5 -6 6 -1 11 2 17 5 13 3 -3 4 -12 1 -19z m2650 -15 c-3 -42 31 -44 39 -3
l7 31 20 -22 21 -22 -26 -21 c-26 -22 -43 -52 -39 -73 1 -7 -3 -13 -9 -13 -5
0 -10 11 -10 24 0 16 -7 26 -21 29 -15 4 -20 11 -15 22 3 9 6 30 6 46 0 19 5
29 14 29 10 0 14 -9 13 -27z m118 -4 c-10 -15 -25 -10 -19 6 4 8 10 12 15 9 5
-3 7 -10 4 -15z m-1848 -45 c5 -15 -20 -24 -37 -14 -7 4 -9 13 -5 19 8 14 37
11 42 -5z m-1560 -16 c6 -7 13 -23 16 -36 4 -19 2 -22 -11 -16 -9 4 -35 10
-57 13 l-40 7 35 22 c41 26 44 26 57 10z m3401 -5 c-2 -10 3 -23 12 -30 13
-10 11 -13 -12 -22 -16 -6 -28 -16 -29 -23 0 -12 -17 18 -18 34 -1 6 41 57 47
58 2 0 2 -8 0 -17z m-1594 -8 c-10 -8 -23 -14 -29 -14 -5 0 -1 6 9 14 11 8 24
15 30 15 5 0 1 -7 -10 -15z m-1164 1 c0 -3 -4 -8 -10 -11 -5 -3 -10 -1 -10 4
0 6 5 11 10 11 6 0 10 -2 10 -4z m1120 -16 c0 -4 -7 -13 -15 -20 -25 -20 -17
-33 15 -26 17 3 30 1 30 -4 0 -6 -9 -10 -20 -10 -13 0 -20 -7 -20 -20 0 -17 5
-19 25 -14 27 7 55 -10 55 -32 0 -10 -7 -13 -25 -8 -34 8 -68 -21 -61 -52 4
-14 1 -24 -10 -28 -23 -9 -24 -8 -24 13 0 26 -18 36 -60 32 -45 -4 -58 -15
-52 -46 3 -19 0 -25 -14 -25 -15 0 -24 17 -43 81 -13 44 -24 87 -24 95 0 8 -4
14 -9 14 -4 0 -8 4 -8 9 0 6 15 9 33 9 30 -1 173 34 183 45 7 7 44 -4 44 -13z
m2035 -15 c11 -1 26 -3 33 -4 6 0 12 -6 12 -12 0 -6 -8 -8 -19 -4 -14 4 -25
-3 -41 -25 -14 -20 -28 -29 -37 -25 -9 3 -22 0 -30 -6 -7 -7 -16 -9 -20 -6 -3
4 -12 2 -20 -4 -10 -9 -13 -8 -13 4 0 8 7 18 16 21 9 3 14 12 12 18 -9 25 43
61 72 51 8 -3 24 -6 35 -8z m-4182 -10 c-3 -9 -8 -14 -10 -11 -3 3 -2 9 2 15
9 16 15 13 8 -4z m730 -27 c12 -7 37 -17 56 -23 18 -5 34 -14 35 -20 2 -17
-50 -17 -64 -1 -16 20 -27 20 -46 1 -13 -13 -19 -13 -52 1 -45 18 -56 29 -48
43 10 15 92 14 119 -1z m-613 -24 c0 -17 -22 -14 -28 4 -2 7 3 12 12 12 9 0
16 -7 16 -16z m4135 -14 c7 -12 -2 -12 -30 0 -19 8 -19 9 2 9 12 1 25 -3 28
-9z m-4215 -26 c0 -16 -16 -19 -25 -4 -8 13 4 32 16 25 5 -4 9 -13 9 -21z
m545 -41 c9 -20 13 -43 10 -51 -7 -19 16 -83 35 -100 10 -8 30 -10 57 -7 41 6
43 5 34 -17 -5 -14 -18 -24 -32 -26 -48 -6 -56 -12 -35 -28 33 -24 5 -39 -34
-19 -30 16 -32 16 -37 -4 -8 -33 -26 -25 -20 8 4 19 1 33 -8 41 -16 14 -35 5
-35 -16 0 -8 -6 -14 -14 -14 -8 0 -21 -3 -30 -6 -9 -3 -26 5 -41 20 -34 35
-32 48 8 41 53 -9 72 15 83 105 6 53 14 84 26 97 15 18 16 17 33 -24z m410 27
c3 -5 1 -10 -4 -10 -6 0 -11 5 -11 10 0 6 2 10 4 10 3 0 8 -4 11 -10z m-855
-20 c0 -9 -32 -30 -46 -30 -4 0 1 9 11 20 19 21 35 26 35 10z m-119 -10 c38
-21 11 -58 -32 -45 -30 10 -24 46 9 54 2 1 12 -4 23 -9z m1009 -10 c0 -13 -7
-20 -20 -20 -23 0 -25 5 -7 25 17 20 27 18 27 -5z m796 -17 c-10 -10 -19 5
-10 18 6 11 8 11 12 0 2 -7 1 -15 -2 -18z m2114 -13 c0 -11 -4 -20 -10 -20 -5
0 -10 9 -10 20 0 11 5 20 10 20 6 0 10 -9 10 -20z m380 5 c10 -12 10 -15 -3
-15 -8 0 -20 -7 -27 -15 -7 -8 -22 -15 -34 -14 -20 0 -20 1 2 10 13 5 26 18
29 29 6 24 16 25 33 5z m-2125 -15 c3 -5 1 -10 -4 -10 -6 0 -11 5 -11 10 0 6
2 10 4 10 3 0 8 -4 11 -10z m1930 -9 c-56 -19 -60 -19 -52 4 5 11 20 15 54 14
l48 -1 -50 -17z m-2041 -51 c17 0 27 -35 14 -48 -15 -15 0 -33 25 -28 63 13
87 15 87 6 0 -5 -20 -12 -46 -16 -34 -5 -44 -10 -42 -23 2 -9 12 -15 23 -14
11 1 31 4 44 5 13 2 26 -3 28 -9 3 -9 -6 -13 -29 -13 -39 0 -63 -13 -54 -29 5
-7 22 -9 47 -5 37 6 39 5 39 -19 0 -23 -4 -26 -32 -24 -24 1 -33 -2 -33 -13 0
-11 10 -15 33 -14 38 2 42 -13 6 -26 -31 -12 -27 -34 7 -39 26 -3 39 -17 38
-41 0 -8 -4 -5 -9 8 -13 32 -35 27 -59 -12 -27 -44 -27 -105 0 -140 11 -14 18
-34 15 -43 -8 -25 9 -47 28 -40 9 4 16 18 16 34 0 55 10 72 41 71 16 -1 29 -4
29 -9 0 -4 3 -14 6 -23 5 -13 -1 -16 -26 -16 -21 0 -30 -4 -27 -12 2 -7 16
-13 30 -13 42 1 32 -22 -13 -29 -30 -5 -38 -10 -34 -21 4 -9 11 -15 18 -14 42
5 61 -9 19 -15 -10 -2 -20 -11 -21 -20 -3 -14 2 -17 22 -14 14 2 25 0 26 -4 1
-23 -1 -27 -12 -23 -15 6 -45 -11 -36 -20 3 -3 19 -7 34 -8 25 -2 28 -6 26
-27 -2 -14 -7 -28 -11 -32 -8 -9 -56 -11 -101 -4 -66 10 -365 6 -493 -7 -98
-10 -130 -11 -138 -1 -17 20 69 64 128 64 23 0 51 11 80 30 24 17 51 30 60 30
31 0 98 24 119 42 11 10 24 18 28 18 16 0 86 64 86 80 0 8 8 40 19 69 17 48
17 59 6 95 -8 23 -16 67 -20 98 -4 32 -10 60 -14 63 -5 2 -7 16 -6 30 2 17 -2
25 -12 25 -13 0 -13 3 -3 15 10 12 9 20 -4 40 -18 27 -22 75 -6 75 6 0 10 12
10 27 l0 27 16 -22 c8 -12 21 -22 28 -22z m1990 13 c4 -5 15 -8 24 -9 44 -3
52 -5 52 -12 0 -4 -14 -12 -32 -17 -47 -15 -48 -35 -1 -36 21 0 32 -3 26 -6
-18 -7 -16 -30 2 -37 8 -3 15 -13 15 -22 0 -13 -6 -15 -30 -11 -31 7 -46 -5
-33 -25 4 -7 8 -22 8 -33 0 -13 8 -21 23 -23 27 -4 30 -22 3 -22 -22 0 -31
-19 -31 -65 0 -33 24 -56 33 -32 3 7 16 13 31 15 23 1 26 -2 26 -28 0 -28 -2
-29 -31 -23 -27 5 -31 3 -27 -13 2 -10 12 -20 23 -22 43 -8 34 -19 -10 -14
-51 5 -65 -4 -65 -45 0 -33 -27 -28 -31 5 -7 52 2 482 10 482 4 0 11 -3 15 -7z
m-1864 -37 c0 -3 -4 -8 -10 -11 -5 -3 -10 -1 -10 4 0 6 5 11 10 11 6 0 10 -2
10 -4z m-240 -46 c0 -5 -2 -10 -4 -10 -3 0 -8 5 -11 10 -3 6 -1 10 4 10 6 0
11 -4 11 -10z m-957 -116 c-4 -25 -2 -39 8 -45 21 -13 -2 -43 -37 -47 -38 -5
-50 -17 -34 -37 9 -11 9 -15 1 -15 -7 0 -11 -10 -9 -22 4 -30 43 -32 43 -3 1
38 16 49 33 23 14 -20 16 -51 14 -228 -2 -113 -5 -206 -7 -208 -1 -2 -36 -5
-76 -8 -57 -4 -70 -3 -56 6 9 6 17 19 17 29 0 23 -28 35 -46 20 -8 -7 -14 -7
-14 -1 0 5 -3 24 -6 41 -6 29 -4 31 20 31 21 0 27 4 24 18 -4 23 -40 27 -77 7
-24 -12 -31 -22 -31 -44 0 -16 -3 -42 -6 -59 -6 -28 -10 -31 -36 -28 -18 2
-32 -2 -35 -10 -7 -20 -88 -18 -120 3 -24 16 -26 16 -39 -2 -8 -10 -17 -16
-20 -12 -4 4 -5 60 -3 124 4 116 2 319 -3 358 -2 11 4 21 13 23 14 2 15 -19
15 -183 l-1 -185 35 -10 c19 -6 43 -10 53 -10 27 0 17 34 -11 38 -21 3 -22 8
-22 83 0 72 2 79 20 79 29 0 27 38 -2 42 -23 3 -24 7 -19 82 1 20 5 22 27 18
25 -4 26 -3 22 22 -4 22 -2 26 17 26 17 0 22 -5 19 -17 -2 -10 -5 -70 -8 -133
-2 -63 -5 -115 -5 -115 -1 -1 -13 -1 -28 0 -18 0 -29 -6 -31 -17 -4 -21 34
-34 53 -18 12 10 14 5 11 -31 -4 -48 6 -69 35 -69 18 0 19 11 19 200 0 153 3
200 13 200 12 0 12 -11 7 -231 -2 -90 -3 -89 24 -89 20 0 25 6 30 43 3 23 6
91 7 152 2 108 1 110 -22 116 -19 4 -14 7 21 11 25 3 48 3 51 2 4 -2 4 -21 0
-41 -4 -21 -6 -76 -6 -123 0 -84 0 -85 25 -85 l25 0 0 123 c0 135 1 137 65
130 24 -3 25 -1 28 60 2 34 7 60 12 57 5 -3 6 -21 3 -41z m3187 1 c0 -9 -6
-12 -16 -8 -13 5 -13 7 -2 14 17 11 18 11 18 -6z m-5 -45 c3 -5 -1 -10 -9 -10
-9 0 -16 5 -16 10 0 6 4 10 9 10 6 0 13 -4 16 -10z m-3580 -50 c-3 -5 -10 -10
-16 -10 -5 0 -9 5 -9 10 0 6 7 10 16 10 8 0 12 -4 9 -10z m1750 -40 c0 -27 -3
-50 -7 -50 -10 0 -11 84 -1 93 3 4 7 7 7 7 1 0 1 -22 1 -50z m1835 35 c0 -8
-4 -15 -9 -15 -13 0 -22 16 -14 24 11 11 23 6 23 -9z m-4011 -131 c-2 -83 -6
-129 -11 -120 -11 20 -48 21 -48 2 0 -17 24 -38 41 -34 10 2 12 -14 10 -69 -2
-64 -1 -73 18 -83 16 -8 22 -8 25 2 13 39 14 40 15 12 2 -59 51 -71 51 -13 0
16 4 29 8 29 5 0 7 -13 4 -29 -3 -20 1 -30 14 -35 23 -9 35 5 36 43 1 22 4 29
12 21 5 -5 20 -10 32 -10 17 0 24 8 30 33 9 34 7 155 -5 300 -7 85 -6 87 16
87 18 0 23 -7 28 -42 7 -52 0 -447 -9 -455 -3 -4 -6 1 -6 9 0 22 -24 40 -44
32 -9 -3 -16 -15 -16 -25 0 -17 -8 -19 -86 -19 -60 0 -83 3 -78 11 8 13 -13
29 -38 29 -11 0 -18 -8 -18 -20 0 -11 -6 -20 -14 -20 -10 0 -14 9 -13 28 2 24
-1 27 -30 26 -30 -2 -32 0 -22 18 6 11 10 59 9 106 -3 134 -2 140 20 147 28 9
25 32 -6 39 -18 5 -24 12 -20 22 3 9 6 20 6 25 0 6 8 6 19 -1 14 -7 22 -7 26
0 12 20 -4 40 -31 40 -18 0 -25 4 -21 14 3 7 0 19 -6 25 -8 8 4 11 47 11 l57
0 -2 -136z m182 84 c6 -266 4 -333 -11 -329 -8 2 -25 4 -37 4 -17 -1 -23 5
-23 22 0 28 -22 47 -43 39 -15 -5 -16 10 -16 144 1 83 -2 155 -5 161 -5 8 15
11 63 11 l71 0 1 -52z m1899 48 c0 -2 -7 -6 -15 -10 -8 -3 -15 -1 -15 4 0 6 7
10 15 10 8 0 15 -2 15 -4z m35 -46 c-3 -5 -13 -10 -21 -10 -8 0 -14 5 -14 10
0 6 9 10 21 10 11 0 17 -4 14 -10z m-7 -68 c-15 -6 -58 8 -58 19 0 6 3 8 8 6
4 -3 16 -1 27 3 14 5 22 2 26 -9 4 -9 2 -18 -3 -19z m2 -32 c0 -5 -12 -10 -27
-9 l-28 1 25 8 c14 4 26 8 28 9 1 1 2 -3 2 -9z m1840 -40 c0 -5 -2 -10 -4 -10
-3 0 -8 5 -11 10 -3 6 -1 10 4 10 6 0 11 -4 11 -10z M953 7724 c-4 -10 -2 -19
5 -22 8 -2 9 -9 2 -22 -7 -13 -6 -19 4 -23 17 -7 44 21 30 31 -5 4 -9 16 -9
26 0 25 -23 33 -32 10z M964 7616 c4 -15 1 -26 -7 -29 -9 -3 -9 -9 0 -25 9
-15 9 -22 1 -24 -19 -7 2 -28 27 -28 21 0 24 5 23 28 -1 15 -8 34 -15 44 -10
11 -11 18 -4 23 19 11 12 35 -10 35 -17 0 -20 -4 -15 -24z M958 7446 c-1 -14
-2 -33 -2 -43 -1 -19 33 -27 51 -11 7 6 10 15 6 22 -4 6 -7 20 -8 31 0 13 -8
21 -22 23 -19 3 -23 -2 -25 -22z M935 6020 c-3 -5 -1 -10 4 -10 6 0 11 5 11
10 0 6 -2 10 -4 10 -3 0 -8 -4 -11 -10z M930 5945 c0 -44 1 -45 21 -34 12 6
18 14 13 18 -5 3 -9 12 -10 19 -3 36 -5 42 -14 42 -5 0 -10 -20 -10 -45z M950
4800 c-11 -7 -12 -12 -3 -21 15 -15 47 -7 51 14 4 19 -23 23 -48 7z M3348
4152 c-10 -2 -19 -9 -20 -15 0 -7 -2 -23 -3 -37 -2 -14 -6 -41 -9 -60 -23
-134 -16 -190 25 -190 21 0 25 13 34 110 3 36 8 83 10 105 5 50 -13 92 -37 87z
M3329 3788 c-5 -83 -6 -149 -7 -358 -1 -129 1 -248 3 -265 3 -16 7 -214 11
-439 3 -235 9 -417 15 -428 5 -10 16 -18 24 -18 22 0 33 30 30 85 -9 205 -19
872 -17 1112 2 200 0 298 -8 312 -15 29 -50 28 -51 -1z M2564 1766 c-14 -31
-24 -66 -22 -78 4 -27 30 -35 49 -15 8 7 19 12 25 10 26 -9 45 28 42 81 -3 50
-4 51 -36 54 -31 3 -34 0 -58 -52z M2560 1410 c0 -5 5 -10 10 -10 6 0 10 5 10
10 0 6 -4 10 -10 10 -5 0 -10 -4 -10 -10z M4465 4580 c-11 -16 -23 -30 -27
-30 -5 0 -8 -5 -8 -11 0 -8 5 -7 15 1 23 19 58 70 48 70 -4 0 -17 -14 -28 -30z
M3990 4473 c0 -5 -22 -33 -49 -63 -27 -30 -48 -57 -46 -58 4 -4 61 57 96 102
11 14 16 26 10 26 -6 0 -11 -3 -11 -7z M3779 4418 c-19 -24 -26 -37 -16 -29
20 16 61 71 54 71 -3 0 -20 -19 -38 -42z M3765 4365 c-31 -36 -53 -65 -48 -64
8 0 118 129 110 129 -3 0 -30 -29 -62 -65z M3869 4403 l-24 -28 28 24 c25 23
32 31 24 31 -2 0 -14 -12 -28 -27z M3864 4318 c-43 -50 -58 -71 -47 -65 6 4
26 25 43 47 34 43 37 55 4 18z M3921 4305 c-17 -20 -31 -39 -31 -43 0 -7 70
67 70 74 0 10 -10 2 -39 -31z M3650 4268 c-29 -38 -30 -40 -6 -18 25 23 52 60
43 60 -2 0 -19 -19 -37 -42z M3739 4208 c-31 -38 -36 -47 -13 -23 52 54 78 85
72 85 -4 0 -30 -28 -59 -62z M3587 4192 c-15 -15 -27 -32 -27 -36 0 -7 9 1 44
42 27 32 15 27 -17 -6z M3649 4183 l-24 -28 28 24 c25 23 32 31 24 31 -2 0
-14 -12 -28 -27z M4245 4131 c-6 -10 25 -31 44 -31 6 0 11 9 11 20 0 15 -7 20
-24 20 -14 0 -27 -4 -31 -9z M1629 3963 c-13 -16 -12 -17 4 -4 9 7 17 15 17
17 0 8 -8 3 -21 -13z M1700 3965 c-7 -9 -11 -17 -9 -20 3 -2 10 5 17 15 14 24
10 26 -8 5z M1509 3943 l-24 -28 28 24 c25 23 32 31 24 31 -2 0 -14 -12 -28
-27z M1789 3943 c-21 -25 -22 -26 -1 -9 37 32 38 8 1 -32 -57 -61 -83 -92 -78
-92 3 0 31 29 63 65 42 48 55 69 49 80 -8 13 -13 11 -34 -12z M1649 3943 c-13
-16 -12 -17 4 -4 9 7 17 15 17 17 0 8 -8 3 -21 -13z M1539 3933 c-13 -16 -12
-17 4 -4 9 7 17 15 17 17 0 8 -8 3 -21 -13z M1654 3908 l-19 -23 23 19 c21 18
27 26 19 26 -2 0 -12 -10 -23 -22z M1729 3913 c-13 -16 -12 -17 4 -4 9 7 17
15 17 17 0 8 -8 3 -21 -13z M1649 3863 l-24 -28 28 24 c25 23 32 31 24 31 -2
0 -14 -12 -28 -27z M1789 3863 l-24 -28 28 24 c25 23 32 31 24 31 -2 0 -14
-12 -28 -27z M1509 3863 c-13 -16 -12 -17 4 -4 9 7 17 15 17 17 0 8 -8 3 -21
-13z M1686 3863 c-6 -14 -5 -15 5 -6 7 7 10 15 7 18 -3 3 -9 -2 -12 -12z
M1714 3858 l-19 -23 23 19 c21 18 27 26 19 26 -2 0 -12 -10 -23 -22z M1789
3823 l-24 -28 28 24 c25 23 32 31 24 31 -2 0 -14 -12 -28 -27z M4480 3671 c0
-5 7 -12 16 -15 14 -5 15 -4 4 9 -14 17 -20 19 -20 6z M4600 3449 c0 -5 5 -7
10 -4 6 3 10 8 10 11 0 2 -4 4 -10 4 -5 0 -10 -5 -10 -11z M1560 3049 c0 -5 5
-7 10 -4 6 3 10 8 10 11 0 2 -4 4 -10 4 -5 0 -10 -5 -10 -11z M3575 2790 c3
-5 8 -10 11 -10 2 0 4 5 4 10 0 6 -5 10 -11 10 -5 0 -7 -4 -4 -10z M3906 2845
c4 -8 11 -15 16 -15 6 0 5 6 -2 15 -7 8 -14 15 -16 15 -2 0 -1 -7 2 -15z
M3686 2682 c-3 -6 -1 -14 5 -17 15 -10 25 3 12 16 -7 7 -13 7 -17 1z M3545
2479 c-4 -6 -5 -12 -2 -15 2 -3 7 2 10 11 7 17 1 20 -8 4z M3580 2399 c0 -5 5
-7 10 -4 6 3 10 8 10 11 0 2 -4 4 -10 4 -5 0 -10 -5 -10 -11z M793 2603 c-26
-18 -29 -35 -9 -52 30 -25 73 27 45 54 -12 11 -18 10 -36 -2z M561 2670 c0
-27 3 -51 7 -54 18 -11 35 14 34 49 -2 42 -8 55 -26 55 -9 0 -14 -16 -15 -50z
M3891 2601 c-17 -11 -5 -31 19 -31 24 0 36 20 19 31 -8 5 -16 9 -19 9 -3 0
-11 -4 -19 -9z M3797 2504 c-10 -11 3 -24 24 -24 10 0 19 7 19 15 0 15 -31 21
-43 9z M1755 2250 c3 -5 8 -10 11 -10 2 0 4 5 4 10 0 6 -5 10 -11 10 -5 0 -7
-4 -4 -10z M1072 953 c2 -12 12 -18 28 -18 36 0 33 29 -3 33 -23 3 -28 0 -25
-15z M1024 819 c-3 -6 -2 -15 4 -21 15 -15 56 -5 60 15 3 13 -3 17 -27 17 -16
0 -33 -5 -37 -11z M1079 760 c-19 -12 0 -30 32 -30 18 0 29 5 29 14 0 16 -43
27 -61 16z M1050 701 c0 -11 25 -21 56 -21 15 0 24 6 24 15 0 11 -11 15 -40
15 -22 0 -40 -4 -40 -9z M735 680 c-9 -15 43 -36 56 -23 6 6 8 16 5 22 -9 14
-53 14 -61 1z M235 770 c-4 -7 2 -22 14 -34 19 -18 23 -19 31 -6 6 8 9 22 7
30 -3 18 -42 26 -52 10z M402 968 c3 -85 5 -93 23 -93 19 0 20 7 20 90 0 86
-1 90 -23 93 -22 3 -23 2 -20 -90z M437 803 c-12 -11 -8 -22 14 -34 17 -9 23
-8 30 2 14 23 -25 52 -44 32z M1480 5870 c0 -5 7 -10 16 -10 8 0 12 5 9 10 -3
6 -10 10 -16 10 -5 0 -9 -4 -9 -10z M3540 5629 c0 -5 5 -7 10 -4 6 3 10 8 10
11 0 2 -4 4 -10 4 -5 0 -10 -5 -10 -11z M439 4063 c-13 -16 -12 -17 4 -4 9 7
17 15 17 17 0 8 -8 3 -21 -13z M199 3983 c-13 -16 -12 -17 4 -4 9 7 17 15 17
17 0 8 -8 3 -21 -13z M210 3955 c-7 -9 -11 -17 -9 -20 3 -2 10 5 17 15 14 24
10 26 -8 5z M315 3959 c-4 -6 -5 -12 -2 -15 2 -3 7 2 10 11 7 17 1 20 -8 4z
M4735 3860 c3 -5 10 -10 16 -10 5 0 9 5 9 10 0 6 -7 10 -16 10 -8 0 -12 -4 -9
-10z M125 3849 c-4 -6 -5 -12 -2 -15 2 -3 7 2 10 11 7 17 1 20 -8 4z M425
3740 c3 -5 11 -10 16 -10 6 0 7 5 4 10 -3 6 -11 10 -16 10 -6 0 -7 -4 -4 -10z
M749 3683 c-13 -16 -12 -17 4 -4 9 7 17 15 17 17 0 8 -8 3 -21 -13z M180 3676
c0 -2 7 -7 16 -10 8 -3 12 -2 9 4 -6 10 -25 14 -25 6z M415 3669 c-11 -17 1
-21 15 -4 8 9 8 15 2 15 -6 0 -14 -5 -17 -11z M665 3670 c-3 -5 -1 -10 4 -10
6 0 11 5 11 10 0 6 -2 10 -4 10 -3 0 -8 -4 -11 -10z M325 3639 c-4 -6 -5 -12
-2 -15 2 -3 7 2 10 11 7 17 1 20 -8 4z M57 3607 c-3 -7 3 -13 14 -13 13 0 15
3 7 13 -6 7 -12 13 -13 13 -2 0 -5 -6 -8 -13z M100 3499 c0 -5 5 -7 10 -4 6 3
10 8 10 11 0 2 -4 4 -10 4 -5 0 -10 -5 -10 -11z M145 3500 c3 -5 8 -10 11 -10
2 0 4 5 4 10 0 6 -5 10 -11 10 -5 0 -7 -4 -4 -10z M4715 2780 c-8 -13 13 -40
31 -40 17 0 25 15 18 34 -7 18 -39 22 -49 6z M4733 2715 c-6 -18 1 -28 22 -31
18 -3 39 22 30 36 -10 15 -45 12 -52 -5z M4699 2649 c-11 -6 -11 -13 -3 -26
18 -29 44 -29 44 0 0 28 -19 40 -41 26z M4796 2612 c-3 -5 -3 -25 1 -45 4 -26
11 -37 23 -37 21 0 34 57 18 78 -12 14 -34 16 -42 4z M4804 2466 c-9 -24 4
-48 23 -44 12 2 18 12 18 28 0 29 -32 41 -41 16z M4702 2458 c-16 -16 -15 -33
4 -49 14 -11 18 -10 30 6 30 40 1 78 -34 43z M4570 2436 c0 -28 24 -41 40 -21
16 20 5 45 -20 45 -14 0 -20 -7 -20 -24z M4577 2334 c-10 -11 5 -34 22 -34 23
0 31 9 24 26 -5 14 -34 19 -46 8z M4623 2293 c-17 -6 -16 -30 1 -36 19 -7 51
17 42 31 -7 12 -22 14 -43 5z M4780 2286 c0 -26 26 -39 49 -24 12 7 21 16 21
21 0 4 -4 5 -10 2 -5 -3 -10 -1 -10 4 0 6 -11 11 -25 11 -15 0 -25 -6 -25 -14z
M4842 2225 c0 -16 2 -22 5 -12 2 9 2 23 0 30 -3 6 -5 -1 -5 -18z M4713 2214
c-9 -23 25 -48 43 -33 10 8 11 16 3 30 -12 23 -37 25 -46 3z M4841 2164 c0
-11 3 -14 6 -6 3 7 2 16 -1 19 -3 4 -6 -2 -5 -13z M4843 2105 c0 -22 2 -30 4
-17 2 12 2 30 0 40 -3 9 -5 -1 -4 -23z M4754 2115 c-4 -9 -2 -21 4 -27 15 -15
44 -1 40 19 -4 23 -36 29 -44 8z M4790 2056 c0 -9 7 -16 16 -16 17 0 14 22 -4
28 -7 2 -12 -3 -12 -12z M4507 2044 c-12 -12 14 -44 34 -44 15 0 19 5 15 16
-3 9 -6 20 -6 25 0 10 -33 12 -43 3z M4842 2020 c0 -19 2 -27 5 -17 2 9 2 25
0 35 -3 9 -5 1 -5 -18z M515 1990 c3 -5 8 -10 11 -10 2 0 4 5 4 10 0 6 -5 10
-11 10 -5 0 -7 -4 -4 -10z M4471 1986 c-8 -10 -6 -17 8 -30 21 -19 41 -14 41
9 0 22 -36 37 -49 21z M4517 1913 c-9 -9 12 -33 29 -33 8 0 14 9 14 20 0 19
-28 28 -43 13z M4490 1806 c-10 -13 -10 -19 0 -32 12 -14 15 -14 29 0 14 15
14 17 0 32 -14 14 -17 14 -29 0z M4736 1791 c-9 -14 4 -41 19 -41 21 0 28 19
15 35 -14 17 -26 19 -34 6z M4485 1721 c-8 -15 3 -31 21 -31 9 0 14 7 12 17
-4 20 -24 28 -33 14z M4746 1721 c-8 -12 21 -34 34 -26 17 11 11 35 -9 35 -11
0 -22 -4 -25 -9z M1251 1701 c-10 -7 -11 -13 -2 -30 17 -31 43 -27 39 6 -3 29
-16 37 -37 24z M4070 1690 c0 -5 5 -10 10 -10 6 0 10 5 10 10 0 6 -4 10 -10
10 -5 0 -10 -4 -10 -10z M1528 1672 c-7 -25 9 -65 24 -60 7 3 15 15 19 29 4
19 7 14 13 -26 4 -27 9 -76 11 -108 5 -77 13 -98 33 -95 19 3 19 -3 8 -110 -7
-62 -6 -63 16 -60 20 3 24 10 29 63 12 112 10 202 -5 208 -7 3 -19 0 -25 -6
-8 -8 -11 -7 -11 5 0 9 8 18 18 21 31 8 45 123 17 134 -21 7 -27 0 -35 -44
l-8 -38 -1 40 c-1 22 -5 46 -10 54 -8 13 -12 13 -27 0 -13 -11 -18 -11 -21 -1
-7 18 -40 14 -45 -6z M4700 1680 c-13 -8 -13 -11 2 -26 16 -17 18 -17 24 0 9
23 -7 38 -26 26z M4746 1613 c-14 -15 -5 -43 14 -43 13 0 20 7 20 19 0 19 -23
35 -34 24z M3742 1592 c-15 -10 -32 -96 -22 -112 4 -7 5 -21 2 -32 -3 -14 -1
-19 8 -16 15 5 44 148 32 160 -4 4 -13 4 -20 0z M1249 1569 c-19 -12 1 -43 31
-47 18 -3 21 0 16 13 -3 9 -6 20 -6 25 0 13 -26 19 -41 9z M1343 1563 c-7 -2
-13 -13 -13 -24 0 -14 7 -19 25 -19 29 0 45 28 24 41 -15 10 -18 10 -36 2z
M4650 1520 c-13 -8 -13 -11 2 -26 16 -17 18 -17 24 0 9 23 -7 38 -26 26z
M1290 1496 c0 -7 7 -19 15 -26 19 -16 41 1 32 24 -8 20 -47 21 -47 2z M3628
1505 c-3 -3 -3 -15 -1 -26 7 -26 38 -21 38 6 0 19 -25 32 -37 20z M3547 1463
c-13 -12 -7 -23 13 -23 11 0 20 7 20 15 0 15 -21 21 -33 8z M4656 1441 c-9
-15 23 -36 36 -23 5 5 7 15 4 21 -9 13 -33 14 -40 2z M1213 1424 c-4 -11 1
-22 12 -30 23 -17 39 -4 30 25 -8 25 -33 28 -42 5z M3557 1393 c-10 -9 -9 -63
1 -63 15 0 32 24 32 47 0 22 -19 31 -33 16z M3920 1373 c1 -19 19 -35 34 -30
26 10 19 37 -9 37 -14 0 -25 -3 -25 -7z M1294 1356 c-9 -23 0 -51 17 -54 11
-2 18 6 21 22 7 37 -26 64 -38 32z M3630 1345 c0 -18 5 -25 20 -25 15 0 20 7
20 25 0 18 -5 25 -20 25 -15 0 -20 -7 -20 -25z M3786 1321 c-8 -12 21 -34 33
-27 6 4 8 13 4 21 -6 17 -29 20 -37 6z M4715 1320 c3 -5 8 -10 11 -10 2 0 4 5
4 10 0 6 -5 10 -11 10 -5 0 -7 -4 -4 -10z M1514 1305 c-3 -8 -3 -19 1 -25 11
-17 35 -11 35 9 0 23 -29 36 -36 16z M3952 1298 c2 -12 10 -23 18 -23 22 0 19
39 -3 43 -15 3 -18 -1 -15 -20z M1807 1293 c-4 -3 -7 -17 -7 -29 0 -13 -5 -35
-12 -49 -15 -33 4 -58 26 -35 15 17 37 100 30 112 -6 10 -28 11 -37 1z M1285
1280 c-4 -6 -17 -10 -30 -10 -27 0 -39 -24 -25 -51 15 -27 37 -24 44 6 4 16
11 22 21 19 19 -8 35 4 29 21 -7 17 -32 27 -39 15z M1736 1282 c-2 -4 -6 -42
-7 -85 -3 -78 9 -113 31 -91 9 9 15 94 11 162 -1 21 -24 31 -35 14z M3554
1255 c-8 -33 8 -52 25 -31 15 18 11 48 -6 53 -7 3 -15 -7 -19 -22z M1353 1254
c-3 -8 -1 -20 6 -27 14 -14 47 15 37 32 -10 16 -36 13 -43 -5z M3633 1254 c-3
-8 2 -23 11 -32 14 -15 18 -15 26 -3 10 16 -4 51 -21 51 -5 0 -12 -7 -16 -16z
M3961 1237 c-8 -10 -7 -18 2 -31 12 -16 14 -16 26 -2 14 16 9 46 -7 46 -5 0
-15 -6 -21 -13z M2080 1199 c0 -24 4 -30 18 -27 10 2 18 14 20 31 3 22 -1 27
-17 27 -17 0 -21 -6 -21 -31z M1934 1209 c-10 -17 23 -46 37 -32 7 7 9 19 6
27 -7 18 -33 21 -43 5z M3458 1202 c-7 -27 6 -46 27 -39 10 4 15 15 13 29 -4
29 -34 36 -40 10z M3771 1168 c-15 -83 -19 -134 -11 -147 13 -22 29 13 40 85
5 38 13 79 16 92 5 18 2 22 -14 22 -17 0 -22 -10 -31 -52z M4030 1206 c0 -17
24 -38 33 -29 15 15 6 43 -13 43 -11 0 -20 -6 -20 -14z M1498 1198 c-7 -19 2
-38 17 -38 18 0 26 15 19 34 -7 19 -30 21 -36 4z M1574 1194 c3 -9 6 -18 6
-20 0 -2 7 -4 15 -4 8 0 15 9 15 20 0 14 -7 20 -21 20 -15 0 -19 -4 -15 -16z
M2033 1202 c-10 -7 -10 -12 1 -28 12 -15 17 -17 27 -6 11 10 10 15 -1 27 -9 8
-20 11 -27 7z M1860 1170 c0 -23 26 -38 41 -23 14 14 0 43 -22 43 -12 0 -19
-7 -19 -20z M1307 1146 c-10 -25 33 -50 47 -27 10 16 -5 41 -24 41 -10 0 -20
-6 -23 -14z M1232 1142 c-15 -10 -7 -38 13 -46 18 -6 39 20 31 39 -6 16 -24
19 -44 7z M1934 1139 c-3 -6 1 -18 10 -27 15 -15 18 -15 26 -2 5 9 5 19 -2 27
-13 16 -25 17 -34 2z M3576 1133 c-15 -56 -16 -100 -2 -112 20 -17 27 -2 33
70 5 49 3 59 -10 59 -9 0 -18 -8 -21 -17z M1572 1123 c5 -26 38 -29 38 -4 0
15 -6 21 -21 21 -14 0 -19 -5 -17 -17z M2056 1132 c-9 -14 21 -35 40 -28 8 3
14 12 12 19 -6 15 -44 22 -52 9z M3470 1125 c0 -21 30 -31 40 -14 11 17 3 29
-21 29 -10 0 -19 -7 -19 -15z M3865 1110 c-15 -16 -16 -22 -5 -35 12 -14 15
-13 31 4 22 24 25 51 6 51 -8 0 -22 -9 -32 -20z M3424 1105 c-4 -8 -3 -23 0
-32 6 -15 8 -15 23 -1 16 17 12 48 -7 48 -6 0 -13 -7 -16 -15z M4025 1110 c-3
-5 -12 -7 -20 -3 -9 3 -15 -1 -15 -8 0 -26 15 -37 42 -32 27 5 43 27 32 44 -7
12 -31 12 -39 -1z M1532 1078 c-15 -18 1 -41 24 -36 23 4 26 41 3 46 -9 1 -21
-3 -27 -10z M3925 1060 c-4 -6 -3 -14 0 -20 9 -15 35 -12 35 4 0 17 -27 29
-35 16z M1221 1046 c-14 -17 11 -41 34 -32 13 4 14 10 5 26 -13 23 -23 25 -39
6z M51 994 c0 -11 3 -14 6 -6 3 7 2 16 -1 19 -3 4 -6 -2 -5 -13z M52 860 c0
-14 2 -19 5 -12 2 6 2 18 0 25 -3 6 -5 1 -5 -13z M4653 830 c-13 -5 -23 -14
-23 -20 0 -5 -7 -10 -16 -10 -12 0 -15 -9 -12 -37 l3 -38 -74 -7 c-81 -7 -107
-23 -96 -57 8 -25 42 -36 113 -35 43 0 52 -3 52 -17 0 -14 -12 -19 -57 -24
-88 -9 -117 -19 -121 -39 -6 -31 14 -39 95 -40 44 -1 77 -5 76 -11 -1 -5 -30
-15 -64 -22 -80 -16 -93 -28 -77 -71 15 -40 41 -38 48 3 4 25 11 31 49 38 27
5 47 5 53 -1 6 -6 11 -55 13 -110 3 -108 11 -137 29 -106 6 11 11 65 11 124 0
86 3 105 15 106 8 1 52 2 98 3 69 1 82 4 82 17 0 15 -13 16 -105 12 -93 -4
-105 -3 -103 11 4 18 8 18 126 20 67 1 82 4 82 17 0 13 -15 15 -97 13 -68 -1
-98 2 -101 10 -3 9 21 12 97 9 91 -3 101 -1 101 15 0 14 -11 17 -72 18 -40 1
-85 0 -100 -1 -14 -1 -29 4 -33 9 -10 16 39 31 103 31 70 0 102 8 102 26 0 10
-20 12 -100 7 -67 -4 -100 -3 -100 4 0 16 26 23 59 17 32 -7 74 11 68 29 -2 7
-26 12 -63 12 -56 0 -59 1 -62 26 -3 22 2 29 29 38 39 13 86 14 94 2 5 -9 -24
-23 -41 -20 -25 4 -44 -3 -44 -16 0 -11 13 -15 53 -15 57 0 77 12 77 45 0 12
-5 26 -12 33 -14 14 -122 15 -155 2z m-53 -155 c0 -11 -12 -15 -50 -15 -53 0
-63 6 -29 18 39 15 79 13 79 -3z m-40 -135 c-25 -3 -56 -3 -70 0 -16 3 -3 7
35 10 70 6 101 -3 35 -10z M4703 433 c-18 -7 -16 -38 2 -53 20 -17 47 5 43 34
-3 21 -22 29 -45 19z"/>
</g>
</svg>
