<?xml version="1.0" standalone="no"?>
<!DOCTYPE svg PUBLIC "-//W3C//DTD SVG 20010904//EN"
 "http://www.w3.org/TR/2001/REC-SVG-20010904/DTD/svg10.dtd">
<svg version="1.0" xmlns="http://www.w3.org/2000/svg"
 width="500.000000pt" height="878.000000pt" viewBox="0 0 500.000000 878.000000"
 preserveAspectRatio="xMidYMid meet">
<metadata>
Created by potrace 1.16, written by Peter Selinger 2001-2019
</metadata>
<g transform="translate(0.000000,878.000000) scale(0.100000,-0.100000)"
fill="#000000" stroke="none">
<path d="M2649 8536 c-2 -3 -134 -7 -293 -8 -203 -2 -291 -6 -297 -15 -15 -17
2 -23 66 -25 62 -2 67 -6 116 -98 13 -25 29 -52 35 -60 7 -8 15 -27 19 -41 l6
-26 -83 -2 c-87 -2 -103 -7 -89 -30 7 -11 48 -13 217 -10 115 2 256 3 314 4
98 0 105 1 108 20 2 18 -3 21 -49 23 -29 1 -54 4 -56 6 -8 8 -26 183 -21 198
5 11 27 18 77 23 51 5 71 11 71 21 0 10 -12 14 -39 14 -21 0 -51 3 -67 6 -16
3 -32 3 -35 0z m-252 -68 c-3 -13 -16 -49 -30 -81 l-24 -58 -17 25 c-9 14 -16
29 -16 34 0 5 -8 20 -19 33 -10 13 -21 34 -25 47 -7 21 -5 22 64 22 70 0 72
-1 67 -22z m185 -33 c11 -85 9 -155 -4 -160 -7 -2 -52 -5 -101 -8 -102 -4 -99
-15 -34 131 l41 92 45 -2 46 -3 7 -50z M3263 8467 c-13 -18 -23 -47 -23 -63 0
-29 -1 -30 -52 -29 -47 0 -53 -2 -56 -22 -4 -30 31 -79 63 -87 28 -7 25 -26
-4 -26 -10 0 -27 -12 -36 -26 -14 -22 -18 -60 -23 -219 l-5 -192 -35 23 c-39
27 -62 31 -62 10 0 -7 -10 -26 -21 -40 l-22 -28 21 -28 22 -29 -27 -3 c-21 -2
-30 -11 -37 -36 -7 -27 -5 -38 12 -61 l21 -28 -38 -15 c-35 -14 -40 -14 -65 4
-18 14 -35 18 -52 14 -14 -4 -32 -2 -38 4 -21 17 -50 -24 -48 -68 2 -32 -2
-39 -27 -54 -37 -20 -60 -90 -39 -115 10 -12 10 -17 1 -20 -27 -9 -66 -48 -79
-79 -19 -45 -18 -110 1 -118 12 -4 14 -17 9 -64 -6 -53 -4 -62 17 -83 14 -14
22 -33 20 -47 -4 -30 22 -68 59 -87 24 -12 30 -22 30 -48 0 -65 61 -125 96
-96 13 11 18 10 26 -4 24 -44 94 -80 109 -56 3 6 16 6 34 -1 l28 -11 -7 -92
c-4 -51 -9 -195 -11 -322 -4 -213 -12 -390 -20 -475 -2 -19 -7 -132 -10 -250
-7 -214 -11 -267 -39 -495 -8 -66 -16 -175 -18 -242 -2 -68 -6 -123 -9 -123
-3 0 -11 33 -17 73 -7 39 -17 97 -23 127 -6 30 -12 64 -14 75 -2 11 -13 65
-24 120 -21 101 -59 299 -66 345 -5 32 4 47 35 58 19 7 31 5 51 -11 21 -15 36
-18 63 -13 46 9 47 32 4 69 -27 24 -31 34 -30 75 1 64 -11 82 -53 82 -28 0
-37 -6 -50 -30 -16 -32 -20 -80 -6 -80 5 0 8 -15 6 -32 -2 -24 -8 -34 -22 -36
-15 -2 -19 3 -19 25 0 30 -27 188 -34 196 -2 3 -5 17 -19 92 -15 86 -60 281
-76 340 -8 28 -24 88 -35 135 -11 46 -24 86 -28 90 -10 7 -14 29 -14 73 1 21
-6 53 -14 72 -8 19 -14 48 -14 64 0 22 -9 37 -36 59 -20 17 -43 28 -50 25 -8
-3 -14 0 -14 6 0 6 4 11 10 11 18 0 31 39 20 60 -14 25 -35 26 -57 0 -16 -19
-17 -19 -30 0 -7 10 -23 21 -36 23 -16 3 -14 5 10 6 37 1 86 52 81 85 -3 18
-10 21 -55 21 -48 0 -54 3 -88 43 -35 40 -58 52 -69 34 -8 -14 5 -52 18 -52
32 0 70 -72 49 -93 -11 -12 -43 25 -43 49 0 13 -5 26 -10 29 -13 8 -32 -42
-25 -66 7 -21 64 -59 91 -60 11 0 1 -6 -21 -13 -48 -14 -54 -34 -20 -66 l25
-24 30 22 30 23 0 -26 c0 -15 -7 -28 -17 -32 -40 -14 -81 -53 -87 -83 -8 -43
25 -106 67 -126 32 -15 32 -16 85 -242 29 -125 55 -236 58 -248 5 -18 2 -20
-23 -17 -23 4 -30 -1 -41 -26 -18 -41 -33 -39 -57 7 -27 50 -47 48 -58 -7 -16
-80 31 -144 93 -128 11 3 24 -1 29 -7 8 -9 1 -16 -23 -24 -19 -7 -39 -19 -46
-27 -16 -19 -5 -63 24 -98 18 -23 28 -27 49 -22 19 5 27 14 27 29 0 40 12 48
55 33 l39 -14 27 -129 c14 -71 38 -167 52 -213 53 -168 122 -496 157 -746 12
-82 25 -157 29 -165 16 -30 -19 -55 -81 -57 -51 -2 -114 -22 -170 -53 -33 -19
-44 -10 -62 48 -24 83 -148 325 -250 490 -63 104 -112 172 -154 217 -15 17
-45 56 -67 88 -21 32 -58 75 -82 96 -44 40 -51 60 -33 106 13 35 -10 80 -45
89 -48 12 -21 31 52 36 39 3 75 9 79 13 5 4 7 27 7 50 -3 61 15 127 39 146
l21 17 -22 60 c-12 32 -25 66 -28 74 -3 8 -8 57 -9 108 -2 71 0 92 10 92 8 0
19 7 26 15 7 8 23 15 37 15 33 0 85 53 81 82 -2 15 -9 22 -19 20 -11 -1 -19 7
-23 23 -4 14 -11 25 -16 25 -6 0 -10 7 -10 15 0 9 -12 21 -27 27 -16 7 -36 18
-45 26 -15 12 -23 12 -60 0 -29 -9 -43 -19 -42 -30 1 -13 -7 -17 -40 -16 -22
1 -101 -1 -173 -4 -103 -5 -142 -11 -175 -26 -24 -11 -62 -23 -85 -26 -80 -12
-223 -116 -209 -152 4 -9 -21 -28 -70 -55 -83 -46 -114 -73 -114 -100 0 -10
-5 -21 -10 -24 -7 -4 -9 19 -6 72 3 43 8 128 11 188 4 61 9 117 12 125 2 8 7
103 9 210 3 107 7 211 9 230 3 19 7 51 9 70 2 19 9 58 14 86 6 28 9 60 6 71
-4 14 2 25 20 36 36 24 44 76 17 127 -20 39 -20 40 -1 50 24 13 26 38 4 68
-20 29 -30 28 -65 -7 -33 -34 -37 -22 -13 39 18 44 21 46 43 26 9 -8 33 -16
54 -19 46 -6 55 9 37 53 -14 33 -44 46 -88 37 -26 -5 -28 -2 -46 52 -23 72
-46 104 -69 95 -14 -5 -17 -19 -17 -70 0 -63 12 -101 38 -117 6 -4 12 -13 12
-18 0 -6 -12 -1 -26 10 -45 35 -94 25 -94 -19 0 -31 20 -52 47 -50 34 4 43 0
43 -20 0 -11 -12 -26 -29 -34 -15 -8 -42 -31 -60 -51 -28 -32 -31 -42 -31 -99
0 -35 -2 -113 -4 -172 -3 -60 -7 -185 -11 -279 -3 -93 -12 -269 -20 -390 -8
-121 -17 -274 -20 -340 -3 -66 -8 -133 -10 -150 -2 -16 -6 -75 -9 -130 -14
-225 -28 -405 -38 -490 -5 -49 -12 -119 -15 -155 -2 -36 -9 -105 -14 -155 -10
-89 -27 -243 -28 -257 -1 -5 -8 -8 -17 -8 -9 0 -36 -13 -61 -30 -47 -32 -58
-36 -48 -20 4 6 8 163 10 348 6 502 16 945 21 954 3 5 6 244 8 532 1 485 3
525 20 550 15 24 16 32 6 57 -11 25 -10 32 6 50 19 21 21 25 30 77 10 52 -51
192 -83 192 -7 0 -20 16 -29 35 -9 20 -25 42 -36 49 -20 15 -19 18 26 41 11 5
28 22 39 37 19 25 19 28 3 52 -20 31 -45 33 -79 6 -31 -25 -37 -25 -37 -1 0
28 -36 68 -67 74 -50 9 -55 2 -47 -83 l6 -77 -27 0 c-47 0 -60 -48 -23 -83 28
-25 38 -25 45 0 5 19 7 20 23 5 16 -15 17 -20 5 -48 -18 -44 -24 -127 -14
-179 14 -64 21 -315 20 -635 -2 -193 1 -283 8 -283 12 0 15 -63 4 -74 -5 -4
-9 -212 -9 -461 -1 -249 -5 -458 -8 -464 -4 -6 -6 -37 -5 -68 1 -32 -2 -121
-6 -198 -4 -77 -8 -185 -10 -240 -1 -55 -3 -108 -4 -117 -1 -12 -9 -18 -27
-18 -18 0 -25 4 -21 14 7 16 -11 36 -33 36 -8 0 -23 9 -32 20 -15 16 -22 18
-48 9 -16 -6 -40 -25 -52 -42 -20 -27 -22 -28 -29 -11 -19 49 4 122 48 151 31
20 51 5 32 -24 -7 -11 -9 -28 -5 -38 5 -15 15 -17 61 -12 53 5 55 5 44 -15 -8
-16 -8 -22 2 -29 16 -10 35 5 42 32 10 37 -59 80 -78 49 -3 -6 -11 -10 -17
-10 -6 0 -4 8 5 18 24 26 21 39 -12 57 -35 18 -83 11 -107 -16 -9 -11 -22 -19
-29 -19 -20 0 -35 -63 -39 -174 -4 -82 -2 -107 7 -103 7 2 21 1 32 -3 19 -7
18 -8 -7 -18 -33 -14 -45 -32 -21 -32 11 0 23 -4 29 -10 5 -5 24 -11 43 -13
50 -6 110 -47 108 -74 -1 -13 -5 -23 -9 -23 -3 0 -10 -9 -13 -21 -4 -11 -9
-18 -12 -16 -2 3 0 14 6 25 8 15 6 25 -9 42 -11 13 -20 27 -20 32 0 15 -20 9
-37 -12 -17 -20 -39 -28 -29 -11 3 5 -1 14 -8 21 -12 9 -17 7 -27 -12 -6 -13
-18 -27 -25 -31 -17 -9 -19 -63 -3 -72 6 -4 22 3 35 16 l25 23 32 -33 c18 -19
26 -30 19 -26 -7 4 -28 4 -45 1 -24 -4 -36 -14 -44 -35 -9 -25 -7 -35 13 -64
30 -44 54 -55 54 -24 0 22 16 47 31 47 14 0 29 -65 29 -126 0 -62 -12 -85 -23
-44 -8 30 -48 24 -75 -11 -19 -23 -21 -30 -9 -34 17 -7 79 -1 95 9 17 10 16
-48 0 -62 -7 -5 -43 -13 -80 -17 -72 -8 -74 -10 -59 -62 6 -20 6 -35 0 -38
-12 -8 -12 -62 0 -70 5 -3 28 1 50 9 23 7 41 12 41 10 0 -1 -4 -14 -9 -27 -9
-23 -14 -25 -50 -20 -38 5 -41 4 -41 -19 0 -13 6 -30 13 -37 9 -11 9 -14 0
-18 -18 -6 -17 -53 1 -53 15 0 71 61 125 134 19 26 39 45 45 43 23 -8 16 -38
-22 -89 -53 -73 -56 -78 -38 -78 8 0 31 22 51 50 l36 49 40 -40 c28 -28 39
-46 34 -57 -5 -14 -11 -11 -35 18 l-28 34 -20 -24 c-13 -16 -17 -30 -12 -40
12 -23 0 -80 -16 -80 -16 0 -108 -48 -147 -76 -21 -15 -26 -27 -27 -63 l0 -45
47 47 c65 66 130 94 228 103 110 9 209 -20 295 -84 19 -14 63 -36 99 -48 36
-12 67 -26 69 -32 1 -5 -19 -23 -46 -40 -53 -32 -122 -117 -122 -150 0 -12 9
-23 20 -27 30 -9 25 -21 -26 -57 -25 -18 -82 -67 -127 -110 -45 -42 -109 -97
-143 -122 -74 -56 -121 -120 -103 -142 10 -12 6 -22 -23 -52 -79 -83 -92 -109
-92 -180 l-1 -67 32 1 33 2 -19 -27 c-10 -14 -22 -37 -26 -51 -4 -14 -23 -45
-41 -69 -31 -40 -39 -64 -35 -98 1 -7 -3 -13 -10 -13 -8 0 -10 -30 -7 -104 5
-136 21 -158 120 -159 23 0 26 -3 18 -18 -25 -45 10 -106 54 -95 20 5 22 2 18
-22 -8 -60 50 -66 107 -13 18 17 42 33 54 37 42 12 95 74 107 125 7 27 16 49
21 49 5 0 9 7 9 15 0 11 9 13 43 9 26 -4 65 0 102 11 33 9 66 17 73 19 8 1 17
7 20 12 4 5 21 10 37 11 17 0 47 8 67 17 21 9 41 17 45 18 5 0 13 6 18 13 6 7
51 40 100 75 50 35 106 80 125 100 19 19 44 42 56 50 23 17 111 126 134 168
22 38 139 152 175 168 17 8 52 30 79 49 26 19 56 35 66 35 10 0 32 13 49 29
28 26 32 28 44 13 18 -26 96 -85 152 -116 94 -54 305 -244 362 -327 10 -13 23
-30 30 -37 12 -13 8 -42 -7 -42 -15 0 -19 -30 -9 -58 22 -56 19 -72 -22 -99
-43 -28 -49 -54 -23 -91 8 -12 12 -27 8 -34 -7 -11 -6 -103 1 -148 3 -14 9
-49 13 -78 5 -29 15 -60 23 -68 15 -15 49 -10 49 7 0 5 4 9 9 9 6 0 6 -12 1
-30 -5 -18 -5 -32 1 -36 5 -3 7 -9 4 -14 -11 -17 15 -50 39 -50 13 0 26 -7 30
-15 3 -8 15 -14 27 -12 19 2 24 -6 34 -48 7 -27 23 -72 35 -100 13 -27 25 -63
26 -78 2 -16 22 -81 43 -145 22 -64 47 -148 56 -185 19 -86 30 -107 56 -107
20 0 21 4 16 58 -6 63 -22 147 -32 175 -7 17 -6 17 24 0 19 -11 35 -30 39 -48
10 -35 37 -41 36 -7 0 12 3 22 7 22 14 0 18 45 5 74 -7 17 -19 51 -26 76 -13
50 -35 80 -58 80 -11 0 -13 8 -8 31 3 18 2 37 -3 43 -5 6 -11 25 -13 41 -5 36
-41 120 -57 129 -6 4 -11 20 -11 37 0 23 4 29 21 29 16 0 19 4 14 21 -6 19 -4
21 14 16 11 -3 23 -1 26 4 3 4 12 6 19 3 8 -3 17 -1 21 5 3 6 22 11 41 11 30
0 34 -3 35 -27 1 -40 4 -51 42 -176 42 -138 52 -180 67 -282 7 -44 19 -101 27
-127 14 -46 14 -48 -11 -81 -42 -55 -29 -70 37 -42 14 6 17 2 17 -24 0 -23 5
-31 18 -31 10 0 23 5 29 11 8 8 14 -4 22 -42 7 -30 18 -73 27 -97 17 -51 11
-68 -18 -48 -25 18 -44 10 -103 -43 -22 -20 -59 -43 -83 -50 -39 -13 -45 -13
-69 5 -31 23 -36 40 -34 116 2 58 -19 118 -41 118 -6 0 -19 -7 -29 -16 -17
-15 -17 -19 -3 -47 11 -21 14 -43 9 -74 -5 -36 -3 -49 12 -65 10 -12 16 -31
15 -48 -3 -21 2 -32 20 -41 31 -17 97 -28 104 -18 2 4 31 20 64 35 33 15 65
33 71 40 6 8 21 14 33 14 11 0 33 7 49 14 25 14 27 13 27 -5 0 -11 8 -23 18
-26 9 -4 20 -11 23 -16 9 -14 104 35 104 53 0 8 4 21 8 27 4 7 3 22 -3 34 -14
25 -6 49 16 49 9 0 27 9 41 20 14 11 31 20 38 20 45 0 200 108 181 127 -3 4 1
14 10 24 36 40 -3 60 -91 47 -27 -5 -96 -5 -153 -1 l-103 6 6 29 c7 28 0 33
-33 29 -9 -2 -5 9 9 28 20 28 21 34 10 71 -13 43 -49 63 -75 41 -12 -10 -17
-2 -31 41 -10 29 -21 58 -25 63 -4 6 -13 28 -20 50 -7 22 -16 45 -20 50 -11
17 -50 171 -56 227 -2 15 1 39 6 53 7 19 4 41 -14 93 -24 69 -56 221 -56 266
0 14 -6 29 -14 33 -7 4 -17 26 -22 48 -7 31 -15 41 -32 43 -19 3 -21 6 -11 18
15 18 29 18 29 -1 0 -24 33 -35 73 -24 53 14 76 61 76 152 0 39 0 101 0 137 0
36 -2 76 -4 90 -1 14 0 53 4 85 l6 60 35 -3 c38 -4 106 14 131 35 27 22 39 15
39 -23 0 -69 61 -123 165 -145 33 -7 68 -19 77 -27 20 -17 48 -10 48 12 0 15
29 36 49 36 6 0 11 -20 11 -46 0 -39 5 -51 31 -75 29 -27 111 -59 151 -59 10
0 48 6 83 12 51 10 65 16 65 30 0 10 7 18 15 18 8 0 15 5 15 10 0 6 5 10 10
10 6 0 10 -13 10 -28 0 -37 23 -57 85 -74 60 -17 112 -16 131 4 8 8 18 34 23
59 8 43 8 44 19 17 24 -58 135 -93 239 -75 30 5 34 2 49 -28 9 -19 27 -41 41
-51 14 -9 48 -38 75 -65 27 -27 60 -52 73 -55 14 -3 25 -15 27 -27 2 -12 9
-21 16 -19 6 1 12 -3 12 -9 0 -5 4 -8 9 -4 5 3 12 1 16 -5 3 -5 19 -10 36 -10
27 0 29 2 29 40 0 33 -3 40 -19 40 -11 0 -32 5 -46 10 -24 9 -26 12 -14 27 10
12 10 15 1 9 -9 -5 -11 3 -9 33 2 23 1 41 -2 41 -3 0 -7 78 -8 173 -3 158 -9
322 -13 322 -1 0 -3 20 -5 45 -2 25 -6 70 -9 100 -4 30 -9 98 -12 150 -3 52
-7 110 -9 129 -3 19 1 41 8 50 10 12 9 13 -2 6 -12 -7 -13 1 -8 44 4 29 12 59
18 67 8 9 10 34 6 69 -5 54 -5 55 20 55 14 0 38 -11 55 -25 16 -14 34 -25 39
-25 14 0 11 40 -5 56 -8 7 -16 18 -18 23 -1 6 -20 11 -41 13 -29 2 -37 6 -33
18 2 8 11 38 20 65 29 96 63 186 74 197 7 7 12 25 12 41 0 24 -4 28 -22 25
-16 -2 -24 -11 -26 -27 -2 -14 -14 -39 -27 -55 -26 -35 -84 -207 -87 -260 -3
-37 -7 -42 -24 -27 -8 8 -93 35 -149 48 -29 6 -174 4 -204 -4 -14 -3 -36 -13
-48 -21 l-23 -14 -2 93 c-3 110 -3 110 2 388 l4 214 55 24 c49 22 67 24 191
24 109 -1 148 -5 194 -21 68 -23 124 -55 148 -84 18 -21 18 -21 18 7 0 22 -10
33 -53 61 -91 58 -170 76 -328 71 -113 -3 -145 -7 -184 -25 -36 -16 -50 -19
-59 -10 -8 9 -5 16 13 28 43 29 112 42 256 48 132 5 144 4 210 -19 39 -14 87
-39 108 -57 l37 -31 0 34 c0 33 -3 36 -82 75 -69 34 -100 43 -183 52 -90 11
-214 7 -251 -7 -8 -3 -14 1 -14 11 0 9 3 15 8 15 25 -4 44 4 58 26 13 21 15
31 6 50 -7 15 -17 22 -25 19 -11 -4 -14 4 -11 37 2 24 8 57 13 74 6 16 10 48
9 70 0 27 6 44 19 55 30 24 83 107 83 129 0 12 4 21 9 21 6 0 9 -30 8 -67 -2
-56 3 -79 27 -132 24 -55 27 -71 22 -120 -9 -80 4 -95 86 -98 34 -1 77 -4 93
-8 69 -14 123 47 124 140 0 35 -1 38 -13 23 -18 -24 -22 -23 -21 9 0 20 -7 31
-27 41 -16 7 -33 23 -39 35 -13 26 -59 66 -75 67 -6 0 -17 7 -25 16 -7 9 -22
14 -36 11 -22 -4 -32 6 -15 17 5 3 7 17 6 33 -18 203 -51 465 -74 595 -6 32
-13 100 -16 150 -3 51 -10 125 -16 163 -25 164 -31 331 -13 365 14 27 69 55
86 44 16 -9 0 -22 -21 -17 -25 7 -26 -9 -1 -31 15 -14 24 -15 40 -6 27 14 27
55 1 77 -16 14 -19 26 -15 73 3 30 1 62 -5 70 -9 13 -13 11 -31 -10 -26 -32
-49 -83 -49 -110 0 -11 -4 -20 -9 -20 -5 0 -10 33 -10 73 -1 39 -4 86 -7 102
-3 17 -7 64 -9 105 -2 41 -7 103 -10 136 -5 50 -3 62 9 67 20 8 21 51 1 108
-24 71 -36 88 -66 94 -36 8 -37 18 -4 33 21 10 25 18 23 46 -2 19 -5 33 -8 31
-3 -1 -14 1 -25 6 -16 6 -14 8 12 8 42 1 60 28 55 81 -5 51 -24 60 -64 30 -35
-26 -46 -20 -31 19 8 23 7 40 -7 81 -24 71 -36 81 -61 50 -29 -38 -33 -67 -14
-97 10 -14 20 -40 22 -57 l4 -31 -44 3 c-50 4 -77 -14 -77 -52 0 -31 22 -48
57 -46 56 4 66 1 60 -19 -2 -10 -1 -25 4 -33 7 -12 -1 -19 -37 -33 -54 -20
-79 -54 -70 -93 4 -15 9 -45 12 -66 2 -22 9 -46 16 -53 7 -9 13 -63 15 -139 3
-110 1 -124 -14 -124 -9 0 -24 -6 -32 -14 -14 -13 -16 -11 -18 14 -3 37 -29
89 -50 97 -15 6 -36 -15 -27 -28 2 -4 0 -19 -6 -34 -13 -33 0 -59 43 -85 32
-20 32 -20 6 -20 -40 0 -61 -21 -62 -63 -1 -49 34 -89 61 -69 34 24 43 24 67
-2 13 -14 28 -26 34 -26 9 0 15 -53 26 -229 3 -46 9 -89 14 -95 5 -6 9 -53 10
-105 1 -52 4 -97 5 -100 2 -3 7 -71 11 -151 3 -80 8 -181 10 -225 3 -44 7
-151 10 -238 3 -86 6 -163 8 -169 1 -7 -25 -17 -68 -25 -68 -13 -114 -26 -223
-64 -40 -14 -54 -16 -57 -6 -8 21 -25 109 -34 177 -5 36 -15 90 -21 120 -6 30
-13 84 -15 120 -2 36 -4 65 -5 65 -2 0 -9 34 -14 70 -3 17 -8 45 -12 63 -6 28
-4 32 14 32 12 0 34 -16 53 -40 34 -42 58 -50 79 -25 10 13 10 19 -4 33 -9 10
-16 23 -16 29 0 6 -7 13 -15 17 -8 3 -15 10 -15 16 0 7 6 8 19 0 11 -5 26 -10
33 -10 22 1 54 34 62 63 6 24 4 28 -11 26 -10 -2 -28 1 -41 5 -14 5 -28 3 -37
-4 -12 -10 -13 -7 -6 17 17 60 -25 96 -63 54 -14 -16 -16 -30 -11 -74 7 -53 6
-54 -19 -59 -23 -5 -27 -1 -36 36 -6 23 -13 47 -16 55 -2 8 -9 44 -14 80 -5
36 -12 77 -14 91 -13 73 -18 112 -22 185 -7 110 -8 115 -14 115 -3 0 -5 26 -6
57 -1 32 -4 76 -7 98 -4 22 -9 63 -13 90 -3 28 -12 71 -19 96 -7 26 -11 62 -9
80 16 143 16 146 -11 167 -14 12 -38 23 -53 27 -15 3 -33 14 -40 25 -11 18 -9
20 20 20 39 1 64 17 77 53 13 33 -4 48 -58 49 -34 0 -41 4 -41 20 0 11 -14 38
-31 59 -26 34 -33 37 -51 28 -16 -8 -19 -18 -15 -42 3 -18 1 -48 -5 -68 -9
-32 -13 -35 -39 -31 -27 4 -29 2 -29 -30 0 -49 27 -71 74 -63 48 9 45 -5 -7
-31 -51 -25 -65 -57 -50 -111 6 -21 21 -112 34 -203 34 -257 38 -283 49 -314
6 -16 10 -38 9 -50 0 -21 0 -21 -11 1 -10 21 -44 37 -60 27 -4 -3 -8 -13 -8
-22 0 -11 -3 -13 -8 -6 -13 21 -111 73 -117 63 -9 -14 15 -81 38 -106 11 -13
30 -23 42 -23 21 0 45 -17 45 -32 0 -4 -15 -8 -34 -8 -25 0 -36 -5 -41 -19 -7
-23 10 -70 29 -77 17 -7 72 20 78 38 3 8 9 5 17 -10 8 -15 21 -22 40 -22 28 0
29 -2 34 -57 7 -83 46 -353 52 -363 7 -11 35 -228 45 -345 5 -55 13 -116 19
-135 6 -19 11 -61 11 -92 0 -31 5 -60 11 -63 6 -4 8 -13 5 -21 -3 -8 0 -25 6
-39 9 -21 8 -27 -13 -44 -30 -26 -39 -26 -39 -2 0 10 -8 21 -19 24 -14 3 -17
11 -14 31 6 29 -11 56 -35 56 -8 0 -30 -12 -49 -26 -33 -25 -35 -25 -48 -8 -8
11 -15 23 -15 28 0 11 -46 -1 -76 -21 -16 -10 -26 -29 -30 -54 -4 -25 -15 -44
-31 -55 -22 -14 -25 -22 -20 -54 l5 -38 -63 -17 c-35 -9 -78 -28 -96 -41 -18
-13 -37 -24 -41 -24 -15 0 -8 28 8 34 12 5 15 17 12 51 -3 38 0 45 17 47 23 3
26 32 16 126 -5 51 -9 56 -36 64 -16 5 -36 11 -43 14 -7 2 -11 8 -7 13 3 6 8
70 10 143 3 73 7 158 10 188 7 80 15 218 20 355 5 133 15 256 21 266 2 3 4 51
5 105 1 54 4 103 7 108 7 12 10 63 17 241 2 77 7 154 9 170 3 17 8 68 11 115
3 47 11 108 16 137 6 28 12 94 14 145 2 52 6 110 10 130 7 35 9 37 37 31 22
-4 39 1 73 26 24 17 50 31 59 31 8 0 32 20 53 45 21 25 43 43 49 41 17 -7 51
28 65 68 11 30 18 35 48 38 33 3 36 6 39 36 2 19 -5 49 -16 71 -15 28 -17 42
-10 56 6 10 12 41 13 69 2 28 8 64 15 81 6 16 8 40 5 53 -8 34 -49 71 -85 78
-18 4 -30 13 -30 22 0 8 3 12 6 9 11 -11 44 13 44 32 0 11 -23 39 -50 64 l-50
45 52 47 53 47 80 -8 c44 -4 97 -7 119 -6 45 2 102 35 111 63 4 11 9 19 11 16
2 -2 -5 -24 -16 -48 -27 -61 -25 -76 13 -92 17 -8 41 -24 51 -36 25 -28 36
-27 36 4 0 16 -6 25 -16 25 -13 0 -14 3 -5 13 8 11 6 18 -9 32 -15 13 -17 22
-9 36 5 11 14 19 20 19 17 0 58 54 59 76 0 12 -8 32 -18 44 -26 32 -77 19
-158 -41 -75 -56 -99 -60 -189 -29 -93 32 -106 29 -166 -40 -58 -66 -82 -77
-73 -32 6 28 -10 55 -38 64 -8 3 -4 12 11 27 36 36 54 87 39 111 -26 41 -115
53 -149 19 l-20 -20 5 33 c3 18 8 60 11 93 4 47 12 71 41 112 47 68 42 96 -29
158 -36 32 -44 42 -25 34 36 -16 94 -3 113 24 15 21 14 23 -12 44 -15 12 -44
25 -65 28 -37 7 -48 18 -28 30 13 8 13 111 0 136 -17 31 -61 24 -87 -14z m50
-77 c-3 -14 -10 -29 -14 -34 -11 -12 -12 54 -2 80 6 16 7 16 14 -2 4 -10 5
-30 2 -44z m-113 -56 c0 -8 -4 -12 -10 -9 -5 3 -10 10 -10 16 0 5 5 9 10 9 6
0 10 -7 10 -16z m205 -73 c3 -5 0 -13 -5 -16 -13 -8 -52 24 -44 36 6 10 39 -5
49 -20z m-150 -10 c-3 -6 -11 -11 -16 -11 -5 0 -4 6 3 14 14 16 24 13 13 -3z
m20 -65 c33 -13 61 -30 63 -37 4 -11 2 -12 -9 -1 -18 17 -59 15 -59 -3 0 -8 6
-15 14 -15 8 0 24 -9 37 -20 l24 -20 -43 5 c-38 6 -43 4 -40 -12 2 -11 14 -19
31 -21 15 -2 27 -8 27 -13 0 -10 -20 -13 -62 -10 -43 3 -42 -17 2 -39 22 -11
40 -23 40 -25 0 -11 -56 9 -77 27 -26 24 -43 16 -43 -21 0 -39 19 -55 41 -35
11 10 19 12 24 5 3 -6 15 -11 26 -11 10 0 19 -4 19 -10 0 -5 -13 -7 -30 -3
-33 6 -40 -7 -14 -28 14 -12 13 -14 -8 -22 l-23 -8 28 -21 c18 -13 26 -26 22
-38 -3 -9 1 -22 8 -29 9 -6 12 -22 9 -37 -4 -24 -8 -26 -41 -20 -20 3 -46 6
-59 6 -21 0 -23 4 -22 48 1 26 1 83 0 127 0 89 17 248 31 283 11 27 12 27 84
-2z m-210 -396 c-3 -5 -11 -10 -16 -10 -6 0 -7 5 -4 10 3 6 11 10 16 10 6 0 7
-4 4 -10z m404 -4 c9 -11 10 -20 1 -35 -6 -12 -13 -21 -16 -21 -3 0 -3 4 0 9
9 14 -4 41 -19 41 -7 0 -27 -15 -45 -32 l-32 -33 13 30 c7 17 17 36 22 43 13
17 62 15 76 -2z m-44 -86 c-3 -5 -11 -10 -16 -10 -6 0 -7 5 -4 10 3 6 11 10
16 10 6 0 7 -4 4 -10z m-212 -17 c-7 -2 -19 -2 -25 0 -7 3 -2 5 12 5 14 0 19
-2 13 -5z m-169 -36 c12 -19 3 -32 -19 -24 -17 7 -21 51 -3 45 6 -2 16 -12 22
-21z m52 9 c15 -16 18 -26 6 -26 -4 0 -13 9 -20 20 -14 23 -7 26 14 6z m587 0
c23 -18 21 -26 -6 -26 -13 0 -42 -13 -65 -30 l-41 -29 30 44 c26 38 41 52 59
54 3 0 13 -6 23 -13z m-329 -22 c18 -7 12 -24 -10 -24 -8 0 -14 7 -14 15 0 17
2 18 24 9z m86 -41 c0 -33 -13 -43 -34 -27 -16 11 -17 16 -6 29 17 20 40 19
40 -2z m-257 -63 c-7 -28 -13 -25 -13 6 0 14 4 23 9 20 5 -3 7 -15 4 -26z
m-312 10 c10 -6 19 -19 19 -29 0 -15 -8 -19 -45 -19 -41 -1 -45 1 -45 23 0 17
7 25 23 28 12 2 23 5 25 6 2 0 12 -4 23 -9z m202 -46 c-8 -21 -33 -25 -33 -6
0 25 22 46 31 30 4 -6 5 -17 2 -24z m433 21 c-10 -8 -24 -11 -30 -8 -6 4 0 10
14 14 36 10 37 10 16 -6z m-316 -66 c0 -4 -8 -12 -17 -18 -14 -8 -15 -12 -4
-25 7 -9 21 -16 30 -16 14 -1 13 -3 -3 -15 -16 -12 -17 -18 -7 -46 13 -38 13
-39 4 -38 -21 3 -33 -2 -33 -16 0 -14 14 -19 48 -18 28 1 10 -26 -20 -29 -38
-4 -38 -17 0 -38 15 -8 29 -16 31 -18 3 -1 -1 -8 -7 -14 -9 -9 -12 -9 -12 1 0
8 -11 11 -32 9 -40 -4 -48 -32 -24 -83 20 -41 36 -53 36 -27 0 18 26 50 34 41
2 -2 1 -21 -2 -43 -4 -32 -10 -40 -39 -52 -31 -13 -38 -37 -10 -33 26 3 47 -1
47 -10 0 -6 -14 -11 -32 -13 -48 -5 -44 -23 9 -40 76 -24 63 -49 -23 -42 -60
4 -78 33 -70 114 4 36 9 101 12 145 2 44 9 115 15 158 6 43 7 91 4 107 -8 38
7 65 39 66 14 1 26 -2 26 -7z m-353 -21 c-3 -8 -6 -5 -6 6 -1 11 2 17 5 13 3
-3 4 -12 1 -19z m743 2 c14 -10 22 -21 19 -24 -6 -7 -78 26 -79 37 0 14 35 7
60 -13z m-810 -13 c0 -8 -9 -22 -20 -32 -19 -18 -20 -17 -20 1 0 20 17 44 32
44 4 0 8 -6 8 -13z m320 -42 c0 -19 -4 -45 -10 -59 -5 -14 -10 -44 -11 -68 -3
-110 -22 -294 -30 -303 -7 -6 -13 -5 -19 5 -6 10 -26 15 -57 15 -47 0 -48 1
-51 32 -2 18 -16 45 -32 63 -26 27 -28 37 -25 83 2 28 -1 57 -6 64 -20 23 1
34 24 13 30 -29 50 -21 65 25 7 22 20 48 29 57 9 10 16 32 16 48 0 17 4 30 9
30 4 0 8 -5 8 -10 0 -17 43 -29 63 -18 14 7 17 16 12 40 -5 21 -4 28 4 24 6
-4 11 -22 11 -41z m383 23 c9 -31 2 -33 -11 -3 -6 14 -8 25 -3 25 5 0 11 -10
14 -22z m-552 -76 c-11 -17 -21 -40 -21 -51 0 -12 -4 -21 -10 -21 -16 0 -11
33 10 68 11 18 20 42 21 55 l0 22 11 -22 c8 -17 6 -28 -11 -51z m628 42 c3
-16 1 -17 -13 -5 -19 16 -21 34 -3 29 6 -3 14 -13 16 -24z m-675 1 c-4 -8 -10
-15 -14 -15 -4 0 -25 -25 -45 -56 -20 -30 -39 -53 -42 -51 -2 3 1 23 7 46 8
30 21 48 48 66 44 28 53 30 46 10z m506 5 c0 -5 -4 -10 -10 -10 -5 0 -10 5
-10 10 0 6 5 10 10 10 6 0 10 -4 10 -10z m-2959 -60 c11 -47 8 -55 -16 -46
-11 4 -14 13 -10 25 3 10 1 30 -4 44 -10 26 -3 43 12 28 5 -5 13 -28 18 -51z
m2961 5 c12 5 17 -4 22 -36 4 -25 3 -46 -4 -53 -19 -19 -11 -55 20 -78 17 -12
30 -26 30 -31 0 -5 -14 -29 -32 -53 -28 -40 -31 -48 -19 -66 11 -17 9 -24 -11
-47 -13 -14 -23 -27 -23 -27 0 -1 -17 -4 -38 -8 -36 -7 -37 -6 -32 16 2 13 7
84 9 158 3 74 8 161 12 192 7 56 7 57 29 42 12 -8 29 -12 37 -9z m171 -22 c-4
-9 1 -22 12 -29 13 -10 16 -17 9 -24 -14 -14 -32 7 -40 49 -5 26 -4 30 9 25 9
-3 13 -12 10 -21z m97 -3 c10 -6 11 -10 3 -10 -8 0 -13 -13 -13 -32 0 -39 -5
-34 -14 15 -7 38 -2 44 24 27z m-950 -42 c-1 -7 -9 -28 -18 -47 -29 -59 -46
-30 -21 36 9 24 39 32 39 11z m766 -54 c-9 -13 -21 -24 -26 -24 -16 0 -11 42
7 62 15 17 18 17 26 3 6 -11 3 -24 -7 -41z m-2341 25 c12 -19 -5 -23 -22 -6
-16 16 -16 17 -1 17 9 0 20 -5 23 -11z m1680 -38 c3 -5 1 -12 -5 -16 -5 -3
-10 1 -10 9 0 18 6 21 15 7z m855 -11 c0 -5 -11 -10 -25 -10 -14 0 -25 5 -25
10 0 6 11 10 25 10 14 0 25 -4 25 -10z m-3160 -45 c0 -13 -5 -27 -10 -30 -18
-11 10 -36 31 -30 38 12 59 -4 59 -45 0 -24 6 -42 15 -47 21 -12 7 -50 -21
-57 -14 -4 -29 -4 -33 -1 -5 2 -14 -2 -21 -10 -7 -8 -23 -15 -36 -15 -19 0
-24 5 -24 24 0 17 -12 34 -35 52 -32 24 -35 30 -31 66 6 50 31 89 51 82 10 -4
18 3 25 21 12 31 30 25 30 -10z m3038 0 c0 -19 -4 -38 -9 -41 -5 -3 -9 13 -9
35 0 23 4 41 9 41 5 0 9 -16 9 -35z m-678 -92 c0 -18 -14 -16 -32 5 -29 34
-29 42 1 24 17 -9 31 -23 31 -29z m739 -23 c-5 -19 -9 -38 -9 -42 0 -5 -4 -8
-10 -8 -14 0 -13 63 2 95 11 24 13 25 18 9 4 -10 3 -34 -1 -54z m-909 24 c0
-27 -15 -32 -24 -9 -7 19 3 47 15 39 5 -3 9 -16 9 -30z m-1716 0 c6 -23 11
-26 40 -21 28 4 35 1 47 -21 21 -37 14 -64 -21 -84 -18 -10 -30 -25 -30 -38 0
-11 -6 -23 -13 -26 -21 -8 -17 -63 5 -70 10 -3 18 -10 18 -15 0 -6 -9 -8 -19
-4 -29 9 -38 -15 -13 -36 28 -22 30 -53 3 -44 -11 3 -22 2 -25 -4 -10 -16 5
-41 25 -41 21 0 22 -4 13 -37 -4 -13 -12 -23 -19 -23 -7 0 -18 -7 -25 -15 -13
-15 -5 -20 28 -16 6 1 12 -5 12 -14 0 -8 -9 -15 -20 -15 -11 0 -20 -7 -20 -15
0 -8 9 -15 20 -15 11 0 20 -5 20 -11 0 -5 -4 -8 -8 -5 -4 2 -14 0 -22 -5 -12
-7 -11 -10 8 -15 20 -6 22 -12 22 -86 0 -78 -1 -80 -17 -59 -16 18 -21 19 -43
8 -29 -15 -33 -45 -8 -61 13 -8 23 -8 38 2 28 17 32 15 19 -9 -9 -17 -17 -20
-45 -16 -38 6 -51 -4 -29 -23 9 -7 27 -10 45 -6 25 5 30 2 30 -14 0 -16 -5
-19 -30 -13 -40 7 -39 -12 1 -26 17 -6 28 -15 24 -20 -3 -6 -12 -8 -19 -5 -8
3 -17 0 -21 -6 -4 -7 2 -14 14 -17 26 -7 28 -23 2 -23 -25 0 -38 -20 -14 -21
10 -1 21 -1 26 0 4 0 7 -10 7 -24 0 -18 -5 -25 -20 -25 -11 0 -20 -4 -20 -9 0
-5 9 -11 20 -14 27 -7 27 -47 1 -47 -30 0 -33 -16 -6 -28 31 -15 31 -27 0 -58
-29 -29 -31 -34 -9 -34 25 0 15 -64 -11 -68 -43 -8 -56 -50 -16 -53 14 -1 14
-2 -1 -6 -26 -7 -24 -53 2 -53 30 0 24 -17 -11 -29 -40 -14 -37 -47 4 -44 23
1 27 -2 27 -24 0 -17 -4 -24 -14 -20 -19 7 -51 -17 -42 -31 4 -7 18 -12 32
-12 19 0 24 -5 24 -26 0 -20 -4 -24 -19 -19 -22 7 -46 -18 -37 -41 4 -10 13
-14 26 -11 19 5 21 -9 11 -86 -1 -4 -10 -2 -21 5 -15 10 -22 10 -31 1 -16 -16
5 -43 32 -43 14 0 19 -7 19 -26 0 -18 -4 -25 -14 -21 -7 3 -23 -1 -35 -10 -25
-17 -14 -40 22 -45 17 -2 23 -11 25 -35 4 -36 -4 -42 -22 -17 -16 21 -48 7
-44 -20 2 -11 10 -21 18 -22 37 -2 41 -5 38 -21 -2 -11 -13 -17 -28 -18 -28 0
-30 -3 -30 -46 0 -27 3 -31 21 -26 19 5 20 4 5 -12 -9 -10 -16 -24 -16 -32 0
-8 -10 -19 -22 -24 -13 -6 -23 -19 -23 -30 0 -16 6 -19 28 -17 28 3 28 3 11
-23 -13 -20 -19 -23 -31 -14 -10 9 -17 9 -24 2 -14 -14 4 -50 30 -58 18 -6 19
-8 4 -60 -11 -39 -13 -65 -7 -92 15 -62 7 -93 -27 -105 -27 -9 -29 -13 -23
-44 5 -30 3 -35 -21 -44 -40 -15 -54 0 -45 51 4 22 5 49 3 60 -7 25 5 71 17
64 14 -8 20 45 25 205 2 80 6 164 9 188 19 144 24 195 31 312 3 52 7 110 10
128 2 19 7 104 10 190 3 85 8 159 11 164 8 12 26 246 30 368 5 205 12 355 17
370 3 8 9 51 12 95 4 44 9 94 11 110 3 17 6 64 8 106 1 41 6 80 10 87 3 6 2
30 -3 54 -8 34 -7 45 4 54 8 6 19 23 24 37 13 34 27 34 35 1z m1816 -31 c0
-32 -17 -29 -35 7 -20 38 -19 40 10 27 16 -8 25 -20 25 -34z m680 27 c-6 -11
-15 -20 -21 -20 -6 0 -6 7 1 20 6 11 15 20 21 20 6 0 6 -7 -1 -20z m60 -26 c0
-8 -5 -12 -10 -9 -6 4 -8 11 -5 16 9 14 15 11 15 -7z m-660 -44 c11 -21 4 -25
-24 -14 -8 3 -12 12 -9 20 7 20 20 17 33 -6z m790 0 c0 -11 0 -23 1 -27 0 -4
-4 -9 -9 -11 -11 -3 -24 37 -16 50 10 15 24 8 24 -12z m-179 -23 c-8 -8 -11
-7 -11 4 0 20 13 34 18 19 3 -7 -1 -17 -7 -23z m-744 -43 c-11 -11 -27 7 -27
30 0 36 14 40 24 7 5 -17 6 -34 3 -37z m1573 35 c0 -11 -4 -17 -10 -14 -5 3
-10 15 -10 26 0 11 5 17 10 14 6 -3 10 -15 10 -26z m-1313 -5 c-3 -3 -12 -4
-19 -1 -8 3 -5 6 6 6 11 1 17 -2 13 -5z m-120 -62 c18 -24 16 -39 -7 -45 -22
-6 -60 33 -60 60 0 20 49 8 67 -15z m643 3 c-7 -9 -15 -13 -17 -11 -7 7 7 26
19 26 6 0 6 -6 -2 -15z m-470 -5 c0 -12 -8 -12 -35 0 -18 8 -17 9 8 9 15 1 27
-3 27 -9z m330 -9 c0 -9 -24 -21 -42 -21 -6 0 -6 6 2 15 14 16 40 20 40 6z
m207 -16 c-4 -8 -11 -15 -17 -15 -7 0 -7 6 0 21 13 23 26 19 17 -6z m-3068 -4
c16 -10 6 -31 -15 -31 -9 0 -14 -11 -14 -32 -1 -41 -14 -21 -24 35 -6 34 -5
37 16 37 13 0 29 -4 37 -9z m2482 -18 c13 -16 12 -17 -3 -4 -10 7 -18 15 -18
17 0 8 8 3 21 -13z m119 2 c0 -9 -6 -12 -16 -8 -13 5 -13 7 -2 14 17 11 18 11
18 -6z m-748 -17 c-7 -7 -12 -8 -12 -2 0 14 12 26 19 19 2 -3 -1 -11 -7 -17z
m845 16 c-3 -3 -12 -4 -19 -1 -8 3 -5 6 6 6 11 1 17 -2 13 -5z m193 -34 c-27
-21 -62 -28 -43 -9 16 16 57 36 63 32 3 -3 -6 -13 -20 -23z m990 15 c0 -8 -7
-15 -15 -15 -16 0 -20 12 -8 23 11 12 23 8 23 -8z m-1576 -47 c-3 -5 -12 3
-20 17 -19 38 -17 44 6 16 11 -12 17 -27 14 -33z m686 43 c0 -13 -56 -71 -69
-71 -18 0 -13 12 21 47 32 33 48 41 48 24z m-434 -16 c19 -14 19 -14 -2 -15
-12 0 -27 7 -34 15 -17 20 9 21 36 0z m226 3 c-6 -6 -19 -12 -29 -13 -10 -1
-28 -5 -40 -9 -13 -4 -28 -4 -35 0 -8 5 9 13 42 20 75 16 76 16 62 2z m986
-11 c8 -10 2 -12 -29 -9 -21 2 -39 8 -39 13 0 14 56 11 68 -4z m-1255 -39 c34
-25 24 -41 -21 -32 -22 4 -36 16 -47 36 -14 30 -14 30 12 23 15 -3 40 -16 56
-27z m287 -7 c0 -12 -26 -21 -58 -21 -26 1 -26 1 -8 15 22 16 66 20 66 6z
m-2812 -34 c-7 -12 -11 -32 -9 -44 1 -11 -2 -24 -7 -27 -5 -3 -7 -16 -5 -29 3
-14 -2 -29 -11 -36 -14 -12 -16 -7 -16 42 0 30 -3 62 -6 71 -4 12 0 16 16 16
13 0 24 8 27 20 3 11 9 17 14 14 5 -3 4 -15 -3 -27z m2878 18 c-26 -19 -42
-19 -26 0 7 8 20 15 29 15 13 -1 13 -3 -3 -15z m-226 -29 c0 -3 -4 -8 -10 -11
-5 -3 -10 -1 -10 4 0 6 5 11 10 11 6 0 10 -2 10 -4z m-46 -42 c14 -5 14 -8 0
-21 -13 -14 -13 -16 1 -27 18 -13 21 -61 11 -193 -4 -56 -2 -72 9 -77 18 -7
25 5 29 46 3 34 6 38 31 38 11 0 15 -11 15 -41 0 -32 -4 -42 -19 -46 -26 -7
-33 -38 -12 -57 18 -16 18 -26 7 -123 -5 -41 -13 -64 -23 -68 -21 -7 -28 1
-15 18 14 16 14 185 0 193 -21 13 -31 -17 -29 -90 1 -51 -3 -83 -13 -98 -19
-31 -31 -124 -17 -133 6 -3 9 -11 5 -16 -3 -6 4 -13 17 -16 l23 -6 -23 -9
c-33 -12 -15 -31 25 -26 23 3 34 0 34 -9 0 -7 0 -16 0 -20 0 -4 -7 -8 -15 -9
-19 -3 -45 -23 -45 -34 0 -5 16 -14 35 -20 19 -6 35 -15 35 -18 -1 -18 -18
-28 -45 -28 -39 1 -40 -16 -1 -29 46 -15 41 -41 -6 -37 -29 3 -38 0 -38 -12 0
-9 12 -16 32 -18 21 -2 34 -9 36 -20 3 -14 -3 -16 -31 -11 -42 6 -60 -14 -20
-23 15 -3 33 -7 38 -9 6 -1 11 -14 13 -29 2 -23 -1 -25 -28 -19 -23 4 -30 2
-30 -11 0 -9 7 -17 15 -17 32 -3 35 -4 33 -14 -2 -5 -17 -9 -35 -7 -45 4 -50
-15 -8 -32 39 -17 47 -31 12 -23 -26 7 -52 -6 -43 -22 4 -6 19 -11 32 -11 16
0 24 -5 21 -12 -2 -7 -17 -13 -33 -13 -27 0 -30 -4 -46 -65 l-18 -65 6 255 c3
140 7 275 9 300 2 25 6 155 9 290 4 135 12 297 18 360 5 63 10 132 9 153 -2
37 4 42 33 31z m1190 -21 c4 -4 -8 -12 -26 -19 -44 -14 -50 -48 -12 -80 20
-18 30 -21 40 -13 10 8 19 7 35 -5 23 -15 22 -16 -12 -14 -19 0 -44 -2 -56 -6
-18 -6 -25 -2 -33 16 -5 13 -15 31 -22 40 -26 36 54 112 86 81z m-1850 -25
c21 -29 20 -38 -3 -38 -33 0 -33 -18 -1 -25 17 -4 28 -11 25 -15 -3 -5 -11 -7
-18 -5 -21 8 -37 -9 -30 -34 5 -20 10 -22 44 -16 31 5 39 4 39 -8 0 -9 -9 -19
-20 -22 -29 -9 -25 -28 5 -23 33 7 32 -10 -1 -22 -31 -12 -23 -30 14 -30 24 0
25 -1 7 -13 -19 -15 -13 -37 11 -37 22 0 17 -37 -7 -43 -27 -7 -15 -29 13 -25
12 2 23 -3 25 -9 3 -9 -6 -13 -27 -13 -21 0 -30 -4 -27 -12 2 -7 16 -13 32
-13 40 0 44 -24 6 -38 -44 -16 -40 -37 7 -34 26 1 37 -2 37 -12 0 -8 -8 -15
-18 -17 -57 -8 -59 -37 -2 -29 50 6 53 -13 6 -32 -41 -16 -54 -33 -27 -33 8 0
26 4 40 10 21 8 27 6 36 -11 14 -25 5 -39 -24 -39 -13 0 -30 -7 -37 -16 -12
-14 -9 -16 30 -13 54 5 67 -16 16 -25 -20 -4 -35 -13 -35 -21 0 -8 6 -13 13
-11 50 16 65 15 70 -3 3 -14 0 -19 -12 -18 -27 1 -71 -13 -71 -23 0 -6 9 -10
19 -10 11 0 23 -4 26 -10 3 -5 18 -10 33 -11 24 0 24 -1 7 -8 -19 -8 -19 -8 3
-15 12 -4 22 -12 22 -18 0 -7 -5 -6 -14 1 -10 8 -16 9 -21 1 -9 -15 -25 -12
-25 5 0 16 -25 21 -34 6 -3 -5 -17 -11 -30 -13 -23 -5 -26 0 -40 56 -8 34 -20
81 -26 106 -13 51 -20 82 -50 235 -12 61 -28 133 -36 161 -8 28 -14 65 -14 83
0 32 -3 34 -53 45 -40 9 -64 63 -46 102 9 17 26 32 44 37 17 5 41 15 55 23 35
19 47 17 64 -8z m769 6 c13 -13 -3 -21 -32 -16 -17 2 -28 8 -25 13 6 10 48 12
57 3z m350 -78 c-4 -31 -9 -43 -14 -34 -10 17 1 102 12 91 4 -4 5 -30 2 -57z
m-362 24 c5 0 9 -11 9 -25 0 -31 -14 -32 -34 -3 -20 29 -20 42 0 34 9 -3 20
-6 25 -6z m-2737 -19 c3 -5 20 -7 37 -5 31 4 32 4 14 -16 -10 -11 -31 -20 -47
-20 -23 0 -28 4 -28 25 0 24 14 34 24 16z m3194 -34 c-7 -14 -13 -17 -16 -9
-6 19 6 44 18 37 7 -4 6 -14 -2 -28z m-458 -31 c0 -13 -39 -30 -48 -21 -8 7
20 35 34 35 8 0 14 -6 14 -14z m1083 -14 c14 3 32 1 39 -3 10 -7 9 -9 -4 -9
-20 0 -25 -29 -5 -34 41 -13 52 -19 37 -23 -19 -5 -41 -50 -33 -69 3 -8 18
-14 34 -14 21 0 29 -5 29 -17 0 -10 3 -29 7 -42 6 -24 6 -24 -18 -8 -24 17
-59 23 -59 10 1 -18 17 -31 48 -38 25 -5 32 -12 32 -30 0 -18 -4 -23 -15 -19
-8 4 -23 3 -32 -1 -17 -6 -17 -7 2 -21 11 -8 20 -20 21 -27 3 -32 5 -36 19
-31 18 7 20 -7 3 -24 -8 -8 -8 -15 -1 -24 6 -7 13 -25 17 -41 5 -23 3 -29 -16
-36 -33 -13 -40 -4 -33 40 5 31 3 40 -9 45 -9 3 -16 12 -16 20 0 8 -6 14 -13
14 -19 0 -37 -21 -37 -43 0 -15 -2 -16 -13 -5 -13 13 -13 26 -3 203 1 22 -3
78 -10 125 -16 105 -17 130 -5 111 5 -8 19 -12 34 -9z m-3758 -33 c0 -18 -9
-28 -37 -41 -39 -17 -49 -41 -24 -55 22 -13 23 -49 2 -72 -11 -12 -22 -21 -25
-21 -3 0 -5 48 -3 107 l3 108 42 -1 c37 -1 42 -4 42 -25z m3124 -64 c54 -28
36 -65 -32 -67 -26 0 -47 -4 -47 -8 0 -17 32 -32 57 -27 l27 5 -24 -18 c-24
-18 -20 -39 8 -41 10 0 2 -7 -16 -15 -27 -12 -31 -18 -22 -28 8 -11 8 -15 -1
-18 -26 -9 4 -28 42 -28 27 0 39 -4 39 -14 0 -11 -9 -13 -34 -9 -21 3 -36 1
-41 -7 -11 -18 15 -31 52 -26 20 3 33 0 37 -9 8 -21 -3 -25 -49 -18 -49 6 -72
-12 -28 -24 15 -3 36 -6 45 -5 10 0 20 -3 23 -9 4 -5 -10 -9 -30 -9 -25 0 -35
-4 -32 -12 2 -8 20 -12 46 -11 45 2 57 -14 14 -19 -41 -5 -43 -30 -2 -26 26 2
34 -1 37 -15 3 -16 -2 -18 -32 -16 -52 5 -67 -16 -22 -31 20 -6 40 -9 45 -6 5
3 12 -1 15 -9 8 -22 -21 -30 -58 -17 -21 8 -33 9 -40 2 -19 -19 37 -38 92 -31
6 1 12 -3 12 -9 0 -6 -15 -9 -36 -6 -76 8 -103 -18 -30 -29 27 -4 43 -12 40
-19 -2 -6 0 -31 4 -56 6 -33 12 -45 25 -44 13 1 17 -6 17 -29 l0 -32 -25 38
c-20 28 -32 37 -55 37 -16 0 -32 -4 -35 -10 -9 -14 -27 -12 -22 3 4 11 -14 86
-30 127 -3 8 -7 22 -8 30 -1 8 -8 42 -15 75 -6 33 -14 78 -16 100 -3 22 -11
74 -19 115 -8 41 -15 95 -16 120 -1 25 -6 64 -12 88 -7 30 -7 50 1 67 11 23
16 24 66 21 30 -3 68 -12 85 -21z m-1689 -154 c0 -5 -7 -14 -15 -21 -18 -15
-42 1 -31 19 8 13 46 15 46 2z m-1460 -27 c0 -8 -7 -14 -15 -14 -15 0 -21 21
-9 33 10 9 24 -2 24 -19z m3616 -11 c-11 -11 -17 4 -9 23 7 18 8 18 11 1 2
-10 1 -21 -2 -24z m-2216 -21 l35 -10 -50 -2 c-27 -1 -57 -3 -65 -5 -72 -15
-112 -17 -105 -5 21 35 103 44 185 22z m-1420 -32 c0 -4 -9 -10 -20 -13 -15
-4 -20 0 -20 13 0 13 5 17 20 13 11 -3 20 -9 20 -13z m3920 10 c0 -5 -5 -10
-11 -10 -5 0 -7 5 -4 10 3 6 8 10 11 10 2 0 4 -4 4 -10z m-2790 -29 c-14 -4
-38 -11 -55 -14 l-30 -6 30 14 c17 8 41 14 55 14 l25 -1 -25 -7z m330 -5 c-8
-8 -53 -28 -100 -44 -47 -16 -93 -33 -102 -37 -25 -10 -22 7 5 33 30 28 72 44
137 52 30 4 59 8 65 9 5 0 3 -5 -5 -13z m140 2 c0 -22 -33 -48 -61 -48 -33 0
-41 10 -25 31 18 25 86 39 86 17z m2143 -21 c-1 -15 -2 -42 -2 -59 -1 -25 -4
-29 -11 -18 -13 20 -10 112 4 107 5 -2 10 -15 9 -30z m-73 -22 c0 -13 -29 -35
-44 -35 -14 0 -4 40 11 49 20 11 33 6 33 -14z m-3687 8 c3 -5 -1 -14 -9 -21
-12 -11 -14 -9 -14 8 0 20 14 27 23 13z m1456 -17 c-20 -20 -83 -55 -108 -61
-48 -10 -38 12 11 26 23 6 51 17 62 25 19 13 46 20 35 10z m-379 -10 c0 -10
-98 -74 -122 -80 -64 -15 -24 42 47 68 39 14 75 20 75 12z m-1064 -30 c23 6
24 4 24 -47 0 -72 -8 -99 -27 -92 -12 5 -13 -14 -8 -133 3 -77 8 -161 11 -187
2 -26 5 -154 5 -284 0 -193 -3 -238 -15 -252 -8 -9 -17 -36 -20 -60 -11 -93
-18 -131 -25 -131 -4 0 -5 24 -3 53 3 28 6 194 8 367 4 385 11 773 14 780 1 3
4 -1 7 -7 3 -8 14 -11 29 -7z m1212 2 c-11 -33 -128 -79 -128 -50 0 12 48 40
90 53 36 11 42 10 38 -3z m1471 -4 c1 -1 0 -7 -3 -13 -8 -12 -46 7 -46 22 0 7
38 0 49 -9z m1368 -16 c-3 -8 -6 -5 -6 6 -1 11 2 17 5 13 3 -3 4 -12 1 -19z
m-3187 -17 c0 -23 -102 -64 -146 -59 l-29 3 35 20 c45 25 111 54 128 54 6 1
12 -7 12 -18z m592 -11 c-3 -8 -12 -19 -19 -23 -8 -5 -11 -16 -8 -28 5 -15 1
-22 -14 -26 -32 -8 -25 -26 22 -56 18 -12 26 -24 23 -33 -3 -8 1 -31 9 -50 8
-19 11 -34 7 -34 -4 0 -9 -26 -10 -57 -2 -32 -7 -85 -10 -118 l-7 -60 -35 -1
c-19 0 -52 5 -74 13 -80 27 -117 5 -70 -42 14 -14 23 -29 20 -33 -3 -5 -35 -5
-73 -1 -71 8 -193 12 -228 7 -14 -2 -20 3 -20 17 0 12 8 21 20 23 11 2 26 9
34 16 8 6 22 10 31 8 10 -2 20 4 23 12 4 9 13 13 22 10 9 -4 21 1 29 12 12 15
18 16 40 6 22 -10 27 -9 36 8 5 10 10 26 10 35 0 9 12 28 27 43 15 15 33 43
40 62 6 19 12 29 13 22 0 -7 4 -11 10 -7 5 3 7 12 3 20 -3 9 1 23 8 31 8 9 17
55 20 103 7 79 9 87 38 113 34 30 93 36 83 8z m2409 -19 c18 3 49 -11 49 -22
0 -5 -7 -9 -16 -9 -25 0 -14 -63 14 -75 34 -15 27 -32 -13 -27 -22 3 -35 0
-35 -7 0 -16 42 -31 56 -20 8 6 14 2 18 -13 11 -41 7 -49 -20 -46 -15 2 -29
-3 -31 -9 -3 -9 6 -13 26 -13 25 0 31 -4 31 -20 0 -12 -6 -20 -12 -19 -33 4
-41 -1 -28 -16 7 -9 21 -13 31 -10 15 5 19 1 19 -18 0 -21 -4 -24 -21 -20 -18
5 -20 3 -14 -16 5 -15 2 -21 -9 -21 -37 0 -10 -32 28 -34 13 -1 22 -9 23 -21
2 -11 0 -14 -3 -7 -7 16 -34 16 -34 -1 0 -7 7 -23 16 -35 14 -20 14 -22 0 -22
-19 0 -21 -11 -5 -27 11 -11 4 -57 -15 -104 -4 -10 0 -23 9 -33 14 -14 15 -21
4 -50 -10 -27 -10 -46 1 -94 l12 -61 36 2 c32 2 36 -1 43 -28 12 -47 59 -403
59 -445 0 -30 6 -43 26 -59 15 -12 35 -21 45 -21 21 0 99 -88 99 -113 0 -15 3
-15 20 -5 28 18 50 -4 26 -27 -23 -23 -32 -65 -16 -75 7 -4 10 -15 6 -25 -5
-13 -13 -15 -38 -9 -38 9 -55 9 -85 -1 -19 -6 -23 -4 -23 14 0 16 6 21 25 21
37 0 30 18 -10 26 -33 6 -36 9 -32 38 3 28 -23 116 -42 141 -4 6 -16 45 -26
88 -20 89 -49 135 -71 116 -8 -7 -12 -19 -9 -26 3 -8 2 -25 -1 -37 -4 -19 -11
-22 -47 -20 -40 2 -42 3 -48 40 -4 22 -10 109 -14 194 -3 85 -8 178 -9 205 -2
28 -5 97 -6 155 -2 58 -8 123 -15 145 -6 23 -10 50 -8 60 5 25 4 146 -2 154
-11 19 -31 309 -26 385 1 18 2 18 25 -3 13 -12 30 -21 37 -20z m-2838 -23
c-48 -51 -193 -124 -193 -97 0 15 37 48 80 70 25 13 60 36 78 52 27 23 37 26
48 16 13 -10 11 -16 -13 -41z m255 30 c22 -27 -137 -132 -169 -113 -11 7 32
45 76 68 17 8 39 24 49 36 22 24 30 26 44 9z m1402 -8 c0 -5 -5 -10 -11 -10
-5 0 -7 5 -4 10 3 6 8 10 11 10 2 0 4 -4 4 -10z m-1865 -67 c-22 -19 -54 -42
-72 -49 -37 -16 -72 -19 -57 -5 9 10 155 89 164 90 3 0 -13 -16 -35 -36z
m-150 -12 c-13 -12 -85 -24 -85 -14 1 4 15 17 33 29 27 18 34 19 47 8 9 -9 11
-17 5 -23z m415 20 c0 -5 -7 -12 -16 -15 -11 -4 -14 -13 -10 -29 5 -20 -1 -27
-37 -45 -23 -11 -59 -24 -81 -28 -51 -9 -45 10 17 50 125 83 127 84 127 67z
m202 -43 c-8 -8 -17 -8 -34 0 -22 10 -21 11 12 11 26 1 31 -2 22 -11z m556
-10 c7 -7 12 -19 12 -27 0 -11 -4 -10 -20 4 -21 19 -26 35 -12 35 4 0 13 -5
20 -12z m156 -72 c7 -30 11 -58 8 -60 -10 -11 -22 6 -22 33 0 15 -4 31 -10 37
-5 5 -7 20 -3 32 8 31 12 24 27 -42z m-1354 39 c10 -13 7 -17 -23 -30 -20 -8
-46 -15 -57 -15 -34 0 -20 33 20 47 46 15 45 15 60 -2z m150 -3 c0 -4 -22 -15
-50 -25 -27 -10 -63 -29 -80 -43 -17 -15 -34 -24 -37 -20 -11 11 13 28 85 62
73 35 82 38 82 26z m68 -32 c17 -28 11 -35 -55 -54 -32 -10 -67 -21 -79 -26
-31 -12 -53 5 -25 19 11 7 21 9 21 6 0 -3 10 3 21 14 12 11 35 23 51 26 16 4
32 13 35 21 7 19 16 18 31 -6z m369 -22 c-3 -8 -6 -5 -6 6 -1 11 2 17 5 13 3
-3 4 -12 1 -19z m892 -33 c20 4 42 12 50 18 12 10 12 9 3 -9 -10 -19 -9 -23 8
-27 23 -6 27 -37 6 -37 -24 0 -30 -21 -7 -27 14 -4 20 -12 19 -29 -1 -13 -8
-24 -14 -24 -7 0 -11 7 -10 16 0 9 -5 19 -12 21 -8 3 -11 -5 -8 -29 2 -24 9
-33 22 -34 11 -1 26 -3 34 -3 8 -1 0 -8 -17 -16 -45 -19 -43 -39 2 -32 31 5
35 3 35 -17 0 -19 -4 -21 -35 -18 -27 3 -35 1 -35 -12 0 -9 8 -16 20 -16 22 0
27 -16 8 -22 -18 -6 1 -28 25 -28 20 -1 21 -2 5 -14 -27 -20 -22 -28 14 -24
39 4 50 -19 14 -28 -37 -9 -33 -34 4 -34 36 0 39 -17 5 -30 -34 -13 -31 -30 5
-30 36 0 40 -17 7 -29 -32 -13 -30 -53 4 -61 20 -5 21 -8 9 -16 -26 -16 -39
-48 -25 -61 9 -8 16 -8 23 -1 5 5 18 8 28 5 15 -3 12 -7 -13 -17 -42 -15 -43
-34 -3 -28 44 7 47 -9 5 -26 -46 -19 -45 -30 3 -22 l37 6 -27 -15 c-39 -22
-33 -59 10 -63 39 -4 43 -29 5 -34 -36 -4 -41 -26 -8 -34 26 -6 26 -7 5 -21
-18 -13 -19 -16 -4 -30 12 -13 13 -17 2 -24 -9 -6 -4 -9 14 -9 15 0 30 5 34
12 5 8 10 6 14 -8 6 -15 1 -21 -22 -29 -36 -12 -33 -30 5 -30 38 0 35 -27 -5
-45 l-33 -14 38 -3 c42 -5 48 -19 13 -32 -24 -10 -41 -47 -26 -56 16 -10 60 7
60 22 0 8 5 11 10 8 6 -3 10 -14 10 -23 0 -12 -9 -17 -30 -18 -37 -1 -45 -8
-36 -30 4 -11 13 -14 31 -10 14 4 25 2 25 -3 0 -14 -70 -81 -85 -81 -6 0 -16
35 -24 88 -7 48 -15 96 -17 107 -2 11 -6 38 -9 60 -5 40 -16 101 -35 185 -6
25 -14 68 -19 95 -6 28 -19 86 -30 130 -11 44 -22 91 -25 105 -2 14 -12 48
-20 75 -9 28 -23 79 -31 115 -39 173 -46 208 -51 240 -5 33 -18 89 -31 135 -4
15 0 13 17 -8 20 -25 27 -28 59 -22z m-1579 -11 c0 -7 7 -15 16 -18 10 -4 13
-13 9 -27 -9 -27 20 -59 54 -58 14 0 48 11 75 23 l50 24 17 -21 c12 -15 14
-29 9 -48 -6 -19 -3 -31 8 -43 14 -13 14 -21 4 -50 -10 -28 -10 -39 0 -55 18
-29 44 -26 80 9 33 33 43 37 51 17 7 -18 -7 -40 -28 -43 -20 -3 -45 -23 -45
-37 0 -6 8 -20 17 -31 10 -12 11 -15 3 -8 -23 20 -28 15 -28 -30 -1 -26 -8
-51 -21 -67 -57 -71 -81 -114 -111 -196 -39 -105 -72 -238 -61 -245 11 -7 32
-71 26 -80 -5 -9 4 -83 34 -274 30 -183 33 -322 9 -416 -10 -41 -20 -109 -22
-150 -4 -82 -29 -151 -55 -149 -9 0 -32 6 -51 13 l-35 13 27 13 c32 15 41 35
28 61 -6 10 -7 31 -3 46 4 16 6 35 5 43 -1 8 8 20 20 25 19 8 23 17 21 48 -1
20 -9 50 -18 67 -18 35 -41 41 -30 8 20 -66 18 -77 -20 -113 -20 -19 -40 -33
-45 -30 -5 3 -11 1 -14 -4 -6 -9 15 -36 33 -43 6 -1 12 -19 13 -38 l3 -35 -50
2 c-59 3 -98 -4 -90 -17 3 -5 -8 -8 -25 -8 -18 1 -32 7 -35 17 -9 29 -2 101 9
100 25 -3 33 2 44 26 7 14 20 25 31 25 33 0 45 27 44 101 -1 74 6 89 32 62 12
-12 19 -13 24 -4 4 6 15 9 23 6 17 -7 23 11 32 85 2 19 11 49 20 65 22 42 20
79 -8 112 l-24 27 22 11 c38 19 28 95 -13 95 -15 0 -19 6 -17 25 4 31 -16 49
-47 43 -21 -4 -23 -1 -21 28 4 45 -18 62 -51 40 -13 -9 -32 -30 -40 -46 -9
-17 -18 -30 -21 -30 -3 0 -2 4 1 10 5 9 30 345 35 470 3 84 12 182 25 270 9
63 35 355 35 398 0 20 2 21 20 10 11 -7 20 -18 20 -24z m2408 17 c3 -8 -1 -12
-9 -9 -7 2 -15 10 -17 17 -3 8 1 12 9 9 7 -2 15 -10 17 -17z m-1867 -37 l-9
-39 -1 36 c-1 20 2 39 6 42 12 13 13 0 4 -39z m822 5 c-11 -23 -18 -28 -24
-18 -5 8 -2 20 8 31 25 28 33 21 16 -13z m-903 -14 c0 -22 -24 -95 -31 -95 -5
0 -2 44 7 88 5 25 24 30 24 7z m-349 -5 c10 -6 19 -15 19 -19 0 -13 -53 -21
-64 -10 -6 6 -6 9 2 9 6 0 9 7 6 15 -7 17 9 19 37 5z m189 6 c0 -3 -4 -8 -10
-11 -5 -3 -10 -1 -10 4 0 6 5 11 10 11 6 0 10 -2 10 -4z m2251 -51 c4 -22 3
-44 -2 -49 -5 -6 -9 4 -9 26 0 28 -5 38 -20 43 -27 9 -25 27 2 23 18 -2 24
-12 29 -43z m-721 -4 c0 -27 -21 -82 -29 -76 -9 5 11 95 21 95 5 0 8 -8 8 -19z
m840 -1 c8 -5 12 -11 9 -14 -7 -8 -49 5 -49 15 0 12 21 11 40 -1z m-2295 -47
c13 -8 14 -13 3 -34 -7 -14 -18 -24 -24 -22 -5 2 -20 -6 -33 -18 -32 -30 -34
-19 -6 37 14 27 25 58 26 69 0 19 1 19 9 -2 5 -12 16 -25 25 -30z m2255 16 c4
-16 15 -26 35 -30 23 -5 25 -7 8 -8 -26 -1 -39 -19 -25 -33 15 -15 65 4 77 29
9 18 13 12 23 -43 16 -82 16 -83 -8 -77 -17 5 -20 0 -20 -26 0 -26 15 -113 34
-202 2 -12 -2 -15 -15 -12 -11 3 -19 1 -19 -5 0 -5 9 -12 20 -15 14 -3 20 -14
20 -31 0 -30 24 -35 39 -8 8 13 10 5 11 -35 l0 -53 -45 0 c-25 0 -45 -4 -45
-9 0 -13 55 -24 81 -16 15 5 20 3 17 -6 -3 -8 -19 -15 -37 -17 -42 -4 -35 -27
9 -27 19 0 35 -6 38 -14 3 -11 -2 -12 -23 -7 -29 7 -65 0 -65 -14 0 -10 57
-25 81 -21 15 2 26 -29 34 -99 1 -9 5 -37 9 -63 6 -38 4 -47 -7 -47 -8 0 -17
9 -20 20 -3 13 -10 18 -21 14 -20 -8 -21 -33 -1 -40 8 -4 12 -10 9 -15 -5 -9
6 -12 36 -10 8 0 1 -6 -17 -14 -31 -14 -52 -34 -36 -36 90 -7 98 -12 41 -30
-40 -13 -43 -17 -46 -53 -2 -21 1 -43 7 -49 16 -16 14 -23 -15 -42 l-26 -17 7
31 c5 23 3 33 -9 37 -9 4 -16 18 -16 34 0 15 -7 67 -16 116 -8 49 -19 134 -24
189 -8 88 -13 128 -34 270 -18 117 -27 190 -31 250 -2 42 -18 135 -41 243 -7
33 19 24 26 -9z m-186 -3 c-3 -9 -10 -16 -15 -16 -14 0 -11 28 4 33 16 6 19 3
11 -17z m966 -16 c0 -5 -2 -10 -4 -10 -3 0 -8 5 -11 10 -3 6 -1 10 4 10 6 0
11 -4 11 -10z m-1534 -82 l19 -23 -25 20 c-14 11 -27 21 -29 22 -2 2 0 3 6 3
5 0 18 -10 29 -22z m-176 -52 c0 -3 -4 -8 -10 -11 -5 -3 -10 -1 -10 4 0 6 5
11 10 11 6 0 10 -2 10 -4z m-1230 -66 c0 -15 13 -19 83 -25 45 -4 75 -10 67
-12 -43 -13 -43 -13 -30 -28 7 -9 19 -14 28 -13 8 2 17 -3 19 -9 3 -8 -4 -13
-16 -13 -26 0 -35 -15 -17 -29 19 -16 64 5 68 32 2 11 9 22 17 25 9 3 11 -1 7
-16 -6 -16 2 -27 38 -52 67 -46 192 -172 215 -219 21 -40 35 -54 59 -57 8 -2
15 -4 16 -6 1 -2 19 -30 41 -62 37 -55 68 -124 82 -186 4 -14 14 -36 23 -50
55 -80 90 -151 90 -180 0 -9 21 -61 46 -114 l46 -97 -27 -27 c-27 -27 -90 -52
-132 -52 -15 0 -23 7 -25 23 -2 13 -11 23 -23 25 -12 2 -30 20 -44 46 -13 26
-37 51 -57 62 -26 14 -34 25 -34 46 0 39 -27 37 -95 -7 -67 -42 -77 -58 -115
-173 -36 -110 -50 -134 -113 -192 -53 -48 -74 -80 -98 -154 -13 -42 -14 -54
-3 -76 12 -23 11 -34 -5 -81 -11 -30 -16 -58 -11 -62 16 -17 45 -1 62 33 22
46 22 31 -2 -60 -25 -96 -38 -128 -65 -165 -12 -16 -37 -56 -56 -89 -19 -32
-44 -75 -56 -95 -12 -20 -35 -61 -51 -91 -17 -30 -50 -89 -74 -130 -24 -41
-59 -106 -78 -143 -35 -72 -113 -168 -165 -206 -16 -11 -82 -72 -146 -134
-101 -98 -119 -120 -140 -175 -13 -34 -27 -62 -30 -62 -3 0 -26 -14 -50 -30
-24 -17 -68 -37 -98 -46 -131 -39 -265 -144 -295 -230 -19 -57 -10 -73 31 -58
23 8 28 15 28 45 1 68 72 122 249 190 32 12 88 47 125 76 52 43 71 66 87 107
21 53 134 178 220 242 42 32 154 145 154 156 0 3 11 19 24 35 13 16 44 65 68
110 23 45 62 113 86 152 23 39 42 73 42 75 0 9 72 131 111 188 22 31 39 59 39
63 0 3 14 26 31 51 17 25 39 65 50 89 22 50 58 179 59 210 0 11 5 27 10 35 8
12 13 11 37 -11 39 -35 125 -63 168 -55 39 8 41 5 21 -27 -19 -30 -37 -143
-41 -263 -3 -100 -30 -275 -46 -305 -4 -9 -15 -45 -23 -80 -60 -266 -79 -330
-126 -428 -35 -71 -42 -77 -65 -51 -10 11 -24 20 -31 20 -9 0 -5 17 13 57 30
69 93 235 93 246 0 5 12 34 26 65 31 68 50 152 41 177 -13 33 -46 -12 -74
-104 -14 -47 -34 -102 -44 -121 -11 -19 -19 -42 -19 -52 0 -9 -13 -50 -30 -91
-16 -42 -30 -83 -30 -93 0 -9 -14 -39 -31 -66 -16 -28 -28 -52 -25 -55 3 -3
-4 -13 -15 -22 -19 -16 -43 -51 -54 -81 -4 -9 -27 -28 -53 -43 -75 -43 -140
-111 -191 -201 -25 -43 -79 -108 -184 -221 -82 -88 -142 -122 -292 -165 -91
-26 -119 -31 -165 -25 -30 4 -63 8 -72 9 -31 4 -30 12 7 79 19 37 35 76 35 87
0 26 65 126 94 145 12 7 38 17 59 21 42 7 121 58 173 109 46 46 81 106 95 160
7 26 29 69 50 96 37 46 48 69 32 69 -31 -1 -89 -84 -117 -167 -38 -114 -94
-165 -216 -193 -70 -17 -95 -35 -150 -115 -32 -47 -50 -64 -62 -61 -25 6 -63
-27 -94 -80 -19 -32 -30 -42 -37 -35 -27 27 -73 -5 -142 -98 -24 -33 -54 -65
-65 -71 -12 -6 -25 -21 -29 -33 -7 -17 -17 -22 -37 -22 -24 1 -33 9 -50 43
-18 38 -19 52 -11 120 12 110 46 168 175 303 35 36 67 70 70 75 4 6 21 17 37
26 103 52 147 78 191 114 27 23 85 62 129 87 111 64 145 90 228 177 217 226
338 407 405 605 11 33 36 105 56 160 19 55 42 125 50 155 8 30 23 75 32 100 9
25 24 90 34 145 10 55 27 135 39 177 19 69 21 98 17 263 -3 140 -1 185 8 185
14 0 58 89 50 102 -10 15 -25 8 -55 -24 -20 -22 -29 -42 -27 -59 1 -14 -7 -37
-20 -54 -31 -40 -36 -66 -27 -154 15 -138 11 -210 -19 -326 -73 -286 -219
-743 -272 -848 -45 -91 -191 -294 -273 -381 -55 -58 -157 -137 -247 -190 -44
-26 -94 -60 -110 -75 -48 -45 -106 -80 -161 -96 -32 -10 -60 -26 -73 -43 -20
-25 -33 -30 -123 -49 l-28 -5 7 53 c6 47 15 62 68 122 52 59 58 71 48 87 -9
16 -6 24 26 54 64 61 139 126 146 126 3 0 21 15 39 33 17 18 54 49 80 67 97
69 128 101 125 129 -2 19 3 29 23 38 43 21 168 177 224 281 15 28 32 52 37 52
11 0 10 -4 -8 -44 -9 -19 -14 -41 -11 -50 9 -22 40 -20 62 4 10 11 20 18 22
16 2 -2 -25 -35 -60 -72 -135 -145 -187 -204 -187 -212 0 -4 5 -13 11 -19 7
-7 1 -16 -23 -31 -45 -28 -82 -80 -82 -117 0 -31 -34 -65 -108 -107 -59 -33
-83 -67 -59 -83 11 -6 95 49 114 75 7 10 25 24 40 31 15 7 27 16 27 21 0 5 4
7 9 3 6 -3 19 5 31 17 17 18 20 30 15 60 -4 23 -3 38 3 38 26 0 94 56 99 82 3
17 33 52 82 96 67 61 211 244 228 290 4 9 18 35 32 57 71 111 136 291 166 460
7 39 15 81 19 95 11 44 24 235 16 245 -17 23 -18 77 -4 126 10 34 14 70 10
103 -3 28 -7 63 -9 77 -1 14 -15 43 -31 63 -26 35 -28 43 -22 98 3 33 8 63 11
68 3 5 19 3 35 -3 31 -12 40 -43 20 -63 -13 -13 -2 -44 15 -44 6 0 24 11 39
25 25 23 27 30 21 68 -10 58 -22 70 -66 64 -28 -4 -36 -1 -35 11 2 27 -21 24
-57 -8 -27 -23 -36 -27 -40 -16 -4 9 6 25 24 40 25 21 31 36 36 82 5 48 12 61
49 100 24 24 52 44 62 44 24 0 74 38 66 51 -6 10 -68 2 -97 -13 -32 -17 -137
-126 -137 -143 0 -9 -4 -14 -9 -10 -19 11 59 191 87 203 24 10 106 65 114 77
13 17 9 35 -8 42 -36 14 -199 -98 -211 -145 -3 -15 -16 -42 -29 -61 l-22 -33
-4 28 c-8 72 45 214 80 214 9 0 27 11 41 24 17 15 47 28 83 35 34 6 66 19 78
31 25 25 19 56 -8 45 -9 -4 -32 -9 -49 -11 -18 -2 -41 -8 -52 -14 -11 -5 -24
-10 -30 -10 -14 0 -22 51 -13 85 7 24 15 31 43 35 68 10 79 9 79 -10z m1626
-28 c-10 -10 -29 15 -21 28 6 9 10 8 17 -4 6 -10 7 -20 4 -24z m1363 8 c6 -18
6 -30 0 -30 -5 0 -9 5 -9 10 0 6 -9 10 -20 10 -23 0 -26 10 -8 28 18 18 25 15
37 -18z m-675 -60 c4 -31 3 -39 -4 -25 -9 20 -14 82 -6 74 2 -2 7 -24 10 -49z
m-686 8 c-3 -7 -11 -13 -18 -13 -7 0 -15 6 -17 13 -3 7 4 12 17 12 13 0 20 -5
18 -12z m907 -28 c-3 -5 -13 -10 -21 -10 -8 0 -14 5 -14 10 0 6 9 10 21 10 11
0 17 -4 14 -10z m455 -36 c6 -14 10 -48 10 -75 0 -42 -3 -50 -17 -47 -9 2 -26
18 -36 36 -19 32 -19 34 -2 73 21 46 32 49 45 13z m-1410 -16 c11 2 24 -6 30
-19 8 -14 8 -19 1 -15 -23 14 -51 15 -51 1 0 -8 5 -17 10 -20 12 -7 13 -55 2
-55 -5 0 -8 10 -8 22 1 32 -31 36 -43 5 -13 -34 -3 -67 20 -67 11 0 19 -3 19
-8 0 -16 -32 -52 -46 -52 -17 0 -17 0 2 -39 13 -25 20 -30 41 -26 15 2 30 10
35 17 5 9 8 4 8 -13 0 -20 -5 -25 -22 -25 -17 1 -23 -5 -23 -21 0 -11 -3 -24
-7 -28 -12 -13 2 -25 28 -25 30 0 33 -30 3 -37 -11 -3 -18 -11 -15 -18 3 -8
-2 -16 -10 -19 -24 -9 -16 -21 24 -36 l37 -14 -34 -6 c-40 -6 -55 -30 -19 -30
13 0 29 -4 36 -9 18 -11 -4 -28 -43 -33 -18 -2 -30 -9 -30 -18 0 -9 7 -14 19
-12 18 3 18 2 6 -13 -11 -13 -11 -18 -1 -25 9 -5 10 -10 3 -14 -6 -4 -9 -12
-7 -19 3 -7 -7 -18 -22 -24 -46 -22 -50 -3 -46 214 3 107 11 245 19 306 12 96
20 162 23 201 1 5 10 1 22 -10 12 -10 29 -18 39 -16z m748 -19 c-3 -20 -5 -19
-9 9 -3 20 -2 29 4 23 5 -5 7 -19 5 -32z m-1033 -99 c3 -5 -3 -10 -15 -10 -12
0 -18 5 -15 10 3 6 10 10 15 10 5 0 12 -4 15 -10z m313 -36 c0 -17 -3 -22 -8
-13 -5 6 -6 18 -3 26 8 19 11 16 11 -13z m-1861 -176 c-3 -8 -6 -5 -6 6 -1 11
2 17 5 13 3 -3 4 -12 1 -19z m1848 2 c3 -5 -1 -10 -10 -10 -9 0 -13 5 -10 10
3 6 8 10 10 10 2 0 7 -4 10 -10z m-2613 -159 c3 -119 4 -124 26 -132 29 -11
23 -34 -9 -34 -33 0 -34 -39 -1 -43 31 -5 28 -30 -5 -34 -18 -2 -29 -10 -31
-22 -3 -16 1 -18 27 -14 25 4 31 1 31 -14 0 -11 -11 -23 -26 -28 -30 -12 -27
-34 4 -38 18 -3 22 -10 22 -38 0 -24 -5 -34 -15 -34 -8 0 -15 -7 -15 -15 0 -9
7 -18 15 -21 19 -8 19 -33 0 -58 -10 -13 -21 -17 -39 -12 -28 7 -36 29 -10 24
23 -4 27 14 10 37 -14 19 -15 19 -35 1 -17 -16 -20 -26 -15 -55 4 -20 10 -38
13 -41 3 -3 6 -16 6 -30 0 -15 5 -24 13 -22 6 1 12 -2 12 -8 0 -5 -4 -10 -10
-10 -5 0 -10 -7 -10 -15 0 -8 5 -15 10 -15 21 0 9 -20 -21 -35 -24 -13 -28
-19 -19 -30 8 -10 8 -19 0 -34 -6 -12 -12 -21 -14 -21 -5 0 3 427 9 458 2 13
7 109 11 211 3 102 10 193 15 201 7 13 8 12 9 -2 0 -10 4 -18 9 -18 11 0 21
25 21 52 0 12 2 19 5 17 2 -3 5 -60 7 -128z m526 -186 c30 0 32 -2 30 -30 -3
-26 1 -30 25 -33 30 -4 32 -10 15 -47 -11 -25 -28 -34 -28 -14 0 5 -20 19 -45
30 -24 11 -48 27 -53 36 -6 10 -17 14 -31 10 -11 -3 -21 -1 -21 3 0 5 -3 15
-6 23 -3 10 0 15 12 14 12 -2 20 9 27 33 5 19 14 41 20 49 10 12 13 6 17 -30
5 -42 6 -44 38 -44z m3392 28 c0 -3 -16 -24 -35 -48 -29 -35 -34 -47 -27 -66
10 -26 3 -57 -22 -104 -9 -16 -19 -45 -22 -63 -5 -24 -17 -41 -45 -59 -21 -14
-50 -45 -64 -68 -14 -24 -35 -47 -48 -51 -54 -16 -71 -58 -44 -112 10 -19 13
-56 9 -127 -2 -55 -5 -198 -7 -318 -1 -119 -5 -220 -8 -224 -4 -3 -14 11 -22
31 -21 51 -21 242 0 335 5 17 2 22 -8 18 -10 -3 -13 6 -14 37 -3 113 -1 106
-29 106 -23 0 -26 -3 -21 -27 3 -14 1 -56 -3 -92 -26 -199 -19 -290 29 -391
33 -69 50 -92 62 -85 10 7 24 -23 24 -50 -1 -33 -14 -45 -53 -45 -80 0 -112
-44 -73 -99 l20 -28 -47 15 c-94 30 -173 62 -292 119 -96 45 -142 66 -170 77
-8 3 -37 19 -65 36 -27 16 -88 50 -135 75 -47 25 -96 54 -109 64 l-25 19 32
37 c18 20 30 40 27 46 -4 5 0 9 7 10 21 0 98 128 110 183 10 47 52 134 105
218 12 21 23 42 23 47 0 5 3 11 8 13 15 6 63 78 81 121 11 25 30 52 43 61 12
9 59 51 103 94 95 93 240 199 311 230 86 36 224 66 266 58 15 -3 30 -1 33 4 3
5 12 7 19 4 8 -3 17 -1 20 4 5 9 56 5 56 -5z m-470 -23 c0 -5 -2 -10 -4 -10
-3 0 -8 5 -11 10 -3 6 -1 10 4 10 6 0 11 -4 11 -10z m-31 -49 c-27 -22 -32
-21 -23 3 3 9 15 16 26 16 19 0 19 -1 -3 -19z m-842 -34 c22 -12 22 -13 -15
-32 -54 -28 -88 -63 -74 -77 6 -6 21 -8 39 -2 61 17 123 6 123 -23 0 -10 -5
-13 -17 -8 -10 4 -37 10 -61 12 -49 6 -76 -11 -80 -51 -2 -24 1 -25 53 -28 63
-3 74 -20 18 -29 -49 -7 -105 -37 -100 -52 2 -7 24 -13 48 -13 65 -3 69 -3 69
-13 0 -12 -37 -22 -87 -25 -41 -1 -43 0 -45 29 0 16 -1 38 0 48 2 19 -13 23
-24 5 -5 -8 -10 -6 -15 8 -6 16 -8 16 -8 2 -1 -14 -28 -38 -44 -38 -2 0 -7 18
-11 41 -6 38 -9 41 -31 35 -14 -4 -25 -2 -25 3 0 5 -3 17 -7 27 -5 13 -3 16 9
11 11 -4 32 11 65 46 118 125 168 153 220 124z m-2840 -14 c-2 -10 -6 -24 -8
-32 -7 -23 18 -23 40 0 23 25 28 19 9 -11 -17 -27 1 -46 30 -31 36 19 44 12
15 -13 -16 -14 -48 -32 -71 -41 -23 -10 -42 -24 -42 -32 0 -9 -11 -2 -26 17
-25 29 -26 34 -15 69 12 42 46 91 63 91 6 0 8 -8 5 -17z m2941 -43 c7 -21 -20
-6 -37 21 l-16 24 24 -16 c14 -9 27 -22 29 -29z m-2247 -12 c-19 -31 -21 -31
-21 -9 0 13 8 30 17 37 27 19 28 9 4 -28z m2576 19 c-14 -54 40 -61 90 -11 30
30 42 24 19 -10 -24 -37 -20 -49 12 -44 22 3 31 -1 39 -18 9 -19 6 -27 -18
-50 -33 -32 -68 -28 -47 5 18 29 2 38 -25 14 -14 -14 -34 -21 -57 -20 l-35 1
-1 70 c-1 44 2 74 10 78 17 12 19 10 13 -15z m-2477 -6 c0 -5 -9 -7 -20 -4
-11 3 -20 7 -20 9 0 2 9 4 20 4 11 0 20 -4 20 -9z m-340 -5 c0 -2 -8 -10 -17
-17 -16 -13 -17 -12 -4 4 13 16 21 21 21 13z m130 -25 c0 -11 -79 -26 -88 -16
-3 3 -1 9 5 13 18 11 83 13 83 3z m262 -18 c20 -5 34 -46 22 -65 -6 -9 -10 -6
-14 11 -7 31 -56 39 -65 10 -5 -15 -10 -17 -26 -9 -15 9 -21 7 -25 -5 -3 -8
-12 -15 -20 -15 -23 0 -16 39 11 66 25 25 49 26 117 7z m-382 -3 c0 -5 -5 -10
-11 -10 -5 0 -7 5 -4 10 3 6 8 10 11 10 2 0 4 -4 4 -10z m158 -15 c-3 -3 -9 2
-12 12 -6 14 -5 15 5 6 7 -7 10 -15 7 -18z m-488 -22 c-1 -24 -2 -26 -11 -10
-5 9 -7 22 -4 27 10 17 15 11 15 -17z m1656 1 c-4 -9 9 -30 34 -55 42 -43 49
-59 26 -59 -7 0 -42 -27 -76 -60 -50 -49 -61 -64 -58 -87 4 -39 49 -54 79 -27
16 14 23 16 26 6 11 -29 36 -44 67 -38 36 7 46 21 46 62 0 41 12 49 89 62 35
6 69 16 76 22 20 17 22 4 9 -82 -7 -46 -13 -102 -13 -125 -1 -37 -19 -72 -39
-74 -47 -5 -85 -17 -167 -54 -101 -46 -223 -33 -282 30 -28 30 -29 55 -3 88
11 14 20 31 20 39 0 7 12 49 26 93 14 44 28 87 30 95 11 48 39 108 65 142 31
38 56 51 45 22z m-1218 -6 c-6 -16 -84 -47 -120 -47 -18 -1 -28 4 -28 13 0 14
28 24 84 32 16 2 31 6 34 9 11 10 34 5 30 -7z m-174 -75 c-2 -42 -9 -72 -18
-82 -14 -13 -16 -13 -21 0 -3 9 1 29 10 45 14 27 14 29 -3 33 -31 6 -33 25 -4
48 15 13 30 23 33 23 3 0 5 -30 3 -67z m-304 47 c0 -6 -12 -15 -27 -21 l-26
-10 21 -20 c29 -26 28 -38 0 -13 -12 10 -27 23 -34 29 -8 7 -4 14 15 27 30 19
51 22 51 8z m39 -95 c-1 -52 -2 -95 -4 -95 -2 0 -12 17 -22 39 -17 33 -18 41
-6 57 8 11 12 31 9 45 -4 21 8 49 21 49 2 0 3 -43 2 -95z m2351 70 c0 -22 -29
-48 -55 -50 -12 -1 -8 -67 4 -75 5 -3 9 -36 10 -75 1 -38 4 -94 6 -122 2 -33
-1 -53 -7 -53 -21 0 -79 -52 -74 -66 5 -14 -31 -40 -41 -30 -3 3 -8 29 -10 58
-2 29 -6 63 -9 76 -4 22 -5 22 -35 6 l-31 -15 6 -70 c4 -38 9 -76 12 -84 4
-10 0 -15 -15 -15 -20 0 -21 5 -19 110 1 61 -1 113 -5 116 -3 3 -15 1 -26 -6
-19 -10 -27 -38 -22 -77 1 -6 -3 -14 -7 -17 -13 -8 -6 114 12 209 8 44 19 81
25 83 5 2 22 13 38 25 41 33 178 94 213 95 25 1 30 -3 30 -23z m750 5 c0 -5
-7 -10 -15 -10 -8 0 -15 5 -15 10 0 6 7 10 15 10 8 0 15 -4 15 -10z m-2665
-30 c-3 -5 -13 -9 -23 -8 -17 0 -45 -6 -85 -18 -21 -5 -21 -5 2 12 39 28 121
39 106 14z m96 -41 c-9 -23 -10 -22 -10 11 -1 23 2 31 9 24 7 -7 7 -19 1 -35z
m2641 -13 c-15 -17 -34 -44 -41 -60 -6 -16 -15 -26 -18 -22 -3 3 -11 2 -17 -3
-6 -4 -32 -11 -59 -14 -54 -8 -95 -27 -150 -70 -44 -34 -56 -32 -26 6 24 31
19 34 -16 11 -36 -23 -31 1 5 28 17 12 30 26 30 32 0 5 15 22 33 37 56 49 -1
31 -67 -21 -11 -8 -32 -28 -47 -44 -16 -17 -32 -27 -35 -23 -8 7 88 103 132
132 19 12 56 20 115 24 48 3 90 8 92 11 3 3 26 5 52 6 l46 1 -29 -31z m771 10
c5 -12 -73 -106 -88 -106 -16 0 0 37 31 76 39 47 49 52 57 30z m-3248 -15 c6
-10 -24 -45 -32 -37 -7 7 7 46 17 46 5 0 11 -4 15 -9z m1125 -1 c0 -5 -2 -10
-4 -10 -3 0 -8 5 -11 10 -3 6 -1 10 4 10 6 0 11 -4 11 -10z m575 -11 c-10 -15
-25 -10 -19 6 4 8 10 12 15 9 5 -3 7 -10 4 -15z m-2021 2 c6 -9 -16 -21 -40
-21 -8 0 -11 6 -8 15 7 16 39 20 48 6z m-154 -63 c0 -9 6 -18 13 -21 6 -2 9
-8 5 -12 -17 -18 -38 5 -38 42 0 28 3 34 10 23 5 -8 10 -22 10 -32z m-63 10
c-3 -8 -6 -5 -6 6 -1 11 2 17 5 13 3 -3 4 -12 1 -19z m253 3 c0 -6 -4 -13 -10
-16 -5 -3 -10 -17 -10 -31 0 -32 28 -43 46 -19 10 14 17 16 25 8 16 -16 -2
-38 -31 -38 -18 0 -26 -6 -28 -22 -2 -13 1 -23 6 -23 5 0 8 -10 8 -22 -1 -17
4 -22 19 -21 11 1 26 0 34 -2 25 -9 -6 -32 -38 -27 -24 3 -31 -1 -45 -29 -19
-38 -8 -59 29 -51 33 6 56 -4 49 -22 -3 -9 -21 -16 -42 -18 -34 -3 -37 -5 -35
-33 6 -103 4 -127 -11 -138 -8 -7 -17 -27 -18 -46 -3 -37 1 -39 75 -42 56 -3
45 -16 -14 -16 -50 0 -77 -13 -66 -31 4 -5 31 -8 62 -8 38 1 55 -3 55 -11 0
-9 -19 -13 -61 -13 -42 0 -59 -4 -57 -12 2 -6 13 -12 24 -13 86 -7 123 -35 46
-35 -39 0 -71 -14 -59 -26 4 -4 28 -8 54 -8 37 -1 48 -5 51 -18 3 -14 -2 -17
-26 -14 -16 2 -34 6 -39 9 -6 4 -16 0 -23 -8 -10 -12 -8 -16 15 -25 14 -5 32
-10 38 -10 6 0 1 -7 -11 -16 -19 -13 -22 -22 -17 -45 8 -37 -8 -44 -60 -27
l-39 13 2 150 c2 83 5 168 7 190 11 100 17 175 20 242 2 40 7 78 11 84 4 7 6
46 6 87 -1 41 3 81 9 88 7 9 7 19 1 31 -8 13 -5 20 11 29 28 15 37 16 37 5z
m1095 -40 c-3 -6 -11 -11 -17 -11 -6 0 -6 6 2 15 14 17 26 13 15 -4z m1155
-11 c0 -5 -11 -10 -25 -10 -32 0 -32 -17 0 -32 23 -10 24 -13 9 -21 -16 -9
-15 -13 12 -35 16 -13 22 -22 14 -20 -58 19 -60 19 -60 5 0 -8 -8 -21 -17 -30
-17 -15 -18 -12 -15 51 5 84 8 89 75 101 4 0 7 -3 7 -9z m1142 -32 c-8 -18
-17 -27 -19 -21 -5 15 14 53 27 53 4 0 1 -14 -8 -32z m-2875 -80 c-2 -66 -8
-103 -15 -106 -13 -4 -16 19 -13 78 2 35 22 130 28 130 2 0 2 -46 0 -102z
m2131 52 c-11 -16 -138 -69 -180 -74 -9 -1 -24 -8 -33 -16 -23 -19 -44 2 -25
25 12 14 11 18 -1 26 -16 10 -18 10 44 14 26 1 55 9 65 17 22 19 72 32 72 18
0 -5 5 -10 11 -10 6 0 9 6 6 13 -4 10 3 12 23 9 25 -4 27 -7 18 -22z m-3252
-1 c10 -17 -13 -36 -27 -22 -12 12 -4 33 11 33 5 0 12 -5 16 -11z m2677 -10
c18 18 24 13 32 -21 7 -31 13 -248 7 -248 -2 0 -14 12 -27 28 -16 18 -22 34
-18 49 8 34 -15 89 -43 101 -20 10 -23 17 -18 39 14 63 14 64 36 52 14 -8 23
-8 31 0z m-2263 -31 c13 4 13 3 1 -11 -7 -9 -29 -19 -50 -23 -20 -4 -47 -12
-59 -19 -22 -11 -23 -13 -8 -27 14 -15 20 -15 64 2 27 10 54 15 60 11 15 -9 5
-41 -12 -42 -46 -3 -116 -26 -116 -38 0 -22 23 -27 58 -15 49 17 72 17 72 0 0
-18 -12 -26 -48 -32 -73 -12 -77 -14 -58 -32 12 -13 20 -14 34 -6 9 6 26 8 36
4 24 -8 13 -15 -36 -24 -34 -6 -39 -11 -51 -54 -11 -37 -24 -53 -58 -78 -35
-24 -45 -38 -47 -64 -3 -26 0 -32 12 -27 12 5 16 0 16 -20 0 -24 -1 -25 -22
-11 -12 8 -33 35 -46 59 -12 24 -27 46 -32 47 -19 7 -10 50 31 142 22 52 46
106 54 120 31 60 37 79 30 91 -5 8 -4 10 4 5 6 -4 18 -3 26 4 7 6 26 13 42 16
15 2 32 11 37 18 6 9 17 11 30 6 12 -4 28 -5 36 -2z m-224 -35 c-7 -17 -8 -17
-17 0 -12 21 -2 44 13 29 6 -6 8 -19 4 -29z m1434 27 c0 -5 -2 -10 -4 -10 -3
0 -8 5 -11 10 -3 6 -1 10 4 10 6 0 11 -4 11 -10z m2412 -187 c2 -299 -2 -464
-11 -459 -11 7 -21 66 -27 161 -8 113 18 476 33 461 2 -2 5 -75 5 -163z
m-1083 90 c7 -27 14 -70 15 -98 1 -28 10 -62 20 -77 15 -24 46 -117 46 -142 0
-19 -49 57 -55 85 -7 29 -37 40 -50 19 -10 -17 -25 -11 -25 10 0 13 7 20 19
20 10 0 21 7 25 15 5 14 -5 19 -31 16 -7 -1 -13 8 -13 21 0 17 3 19 12 10 16
-16 35 -15 41 2 8 21 -11 84 -30 94 -11 7 -13 17 -8 41 9 43 18 39 34 -16z
m-114 27 c3 -5 -1 -10 -9 -10 -9 0 -16 5 -16 10 0 6 4 10 9 10 6 0 13 -4 16
-10z m-1289 -75 l-15 -40 0 32 c-1 17 4 44 11 60 10 24 12 25 15 8 2 -11 -3
-38 -11 -60z m1054 19 c0 -6 -13 -14 -30 -17 -16 -4 -30 -13 -30 -20 0 -18 46
-57 68 -57 10 0 24 -10 31 -23 7 -13 25 -31 41 -40 26 -16 28 -21 25 -65 -2
-26 -7 -91 -10 -144 -4 -54 -10 -98 -15 -98 -10 0 -50 84 -50 105 0 52 -148
248 -194 257 -11 1 -21 9 -23 15 -4 10 6 9 41 -1 46 -14 118 -80 132 -119 7
-22 38 -18 42 6 2 10 -14 40 -35 68 -28 37 -50 54 -85 67 -52 18 -58 35 -13
39 16 1 42 15 59 32 29 29 45 28 46 -5z m-374 -57 c-5 -37 -15 -62 -17 -41 -4
40 -5 102 -1 113 9 26 23 -29 18 -72z m292 71 c-2 -6 -10 -14 -16 -16 -7 -2
-10 2 -6 12 7 18 28 22 22 4z m605 -61 c-9 -45 -21 -31 -21 25 0 49 1 50 13
27 7 -13 11 -37 8 -52z m-330 19 c3 -8 3 -17 0 -20 -4 -3 -8 -17 -9 -32 -3
-30 16 -40 46 -24 19 10 21 9 18 -6 -2 -12 -12 -19 -27 -19 -36 0 -37 -24 -2
-36 41 -14 39 -25 -4 -33 -44 -9 -48 -36 -5 -36 17 0 30 -2 30 -4 0 -2 3 -12
6 -20 4 -11 2 -15 -7 -11 -8 3 -21 0 -29 -5 -13 -9 -13 -12 3 -21 21 -12 23
-59 2 -59 -8 0 -15 -2 -15 -4 0 -2 -3 -11 -6 -20 -4 -11 1 -19 17 -24 l22 -9
-21 -21 c-27 -27 -27 -32 -1 -32 30 0 22 -44 -9 -48 -13 -2 -21 -9 -19 -15 2
-7 13 -11 25 -9 11 2 23 -2 27 -8 4 -6 -8 -10 -31 -10 -31 0 -35 -2 -24 -15 9
-11 17 -12 30 -5 10 6 21 10 23 10 8 0 -6 -507 -14 -513 -2 -2 -21 -10 -42
-19 -49 -18 -47 -34 3 -31 33 1 40 -1 40 -17 0 -18 -5 -19 -46 -13 -37 5 -46
3 -42 -7 2 -8 20 -19 39 -26 34 -12 30 -19 -16 -26 -36 -6 -21 -23 23 -26 39
-3 42 -5 42 -33 0 -16 -4 -29 -10 -29 -5 0 -10 5 -10 11 0 6 -14 9 -32 7 -42
-4 -39 -21 4 -28 45 -7 52 -40 9 -40 -40 0 -40 -19 -1 -26 33 -7 32 -6 24 -28
-4 -10 -18 -16 -36 -16 -38 0 -33 -24 6 -28 21 -3 27 -8 24 -25 -2 -14 -10
-21 -21 -21 -9 1 -17 -4 -17 -12 0 -8 7 -14 15 -14 23 0 18 -20 -7 -29 -23 -9
-23 -9 5 -20 34 -13 36 -30 2 -23 -14 2 -25 0 -25 -6 0 -5 11 -13 25 -16 41
-10 32 -86 -10 -86 -24 0 -42 -16 -31 -27 3 -3 15 -6 27 -7 32 -1 35 -22 4
-30 -36 -9 -33 -36 4 -36 38 0 48 -16 19 -31 -21 -11 -21 -12 -3 -25 25 -19
14 -27 -20 -14 -15 6 -29 20 -32 31 -4 14 -12 19 -24 16 -23 -6 -22 -20 -25
233 -1 113 -3 212 -4 220 -3 24 10 292 16 322 3 15 7 108 9 205 2 98 8 214 13
258 6 44 14 121 17 170 4 50 8 103 10 120 2 16 5 75 6 130 1 55 4 112 7 128 5
29 26 37 35 13z m-646 -153 c13 -10 14 -17 5 -37 -7 -15 -7 -27 -1 -33 6 -6 6
-20 -1 -37 -18 -47 -12 -107 12 -133 12 -13 30 -23 40 -23 23 0 23 -11 -1 -32
-17 -14 -19 -31 -20 -129 0 -62 -4 -116 -9 -121 -13 -13 -42 36 -58 96 -7 28
-22 83 -33 121 -11 39 -20 91 -20 116 -1 26 -10 75 -20 110 -11 35 -22 79 -26
98 -4 19 -16 50 -27 69 -10 19 -18 36 -16 37 2 2 37 15 78 29 l75 25 3 -72 c2
-53 7 -75 19 -84z m705 105 c-9 -9 -12 -4 -11 23 0 32 1 33 11 11 8 -17 8 -26
0 -34z m-2741 -53 c-32 -75 -45 -88 -54 -54 -7 25 29 113 42 104 5 -2 14 2 21
10 23 28 20 10 -9 -60z m991 63 c-9 -9 -15 -9 -24 0 -9 9 -7 12 12 12 19 0 21
-3 12 -12z m-352 -19 c0 -5 11 -9 25 -9 15 0 25 -6 25 -14 0 -23 -20 -29 -39
-12 -10 9 -24 16 -33 16 -22 0 -29 11 -17 26 11 13 39 8 39 -7z m-104 -8 c-3
-5 -17 -8 -31 -8 -13 0 -22 3 -19 8 3 5 16 9 30 9 14 0 23 -4 20 -9z m1265
-25 c-8 -10 -7 -19 8 -37 21 -28 81 -206 81 -243 0 -36 39 -209 67 -295 20
-63 32 -83 69 -114 19 -16 34 -33 34 -39 0 -6 7 -19 15 -28 14 -16 14 -20 -1
-47 -17 -29 -16 -42 8 -75 17 -23 -6 -46 -56 -58 -31 -7 -41 -4 -65 16 -17 14
-31 38 -35 59 -4 19 -12 37 -18 41 -17 10 -75 -62 -97 -121 -30 -79 -45 -72
-38 19 4 62 3 78 -9 83 -22 8 -53 -26 -59 -66 -20 -133 -69 -197 -123 -163
-10 7 -8 19 8 58 81 188 156 552 193 936 3 34 0 51 -10 60 -13 10 -12 13 4 19
29 12 36 10 24 -5z m456 -114 c1 -70 -4 -210 -12 -312 -10 -129 -11 -206 -5
-255 5 -38 12 -95 14 -125 l5 -55 -10 45 c-6 25 -17 59 -24 75 -28 63 -38 143
-32 252 7 120 0 146 -33 126 -11 -7 -22 -13 -24 -13 -10 0 1 32 14 40 7 4 14
17 15 28 1 11 7 28 15 37 11 13 11 27 2 78 -7 34 -13 71 -13 82 0 11 -7 27
-16 37 -9 10 -13 21 -9 26 7 7 97 59 106 61 3 1 6 -56 7 -127z m-1420 82 c7 3
13 1 13 -3 0 -11 -123 -285 -136 -303 -5 -7 -16 -26 -24 -43 -8 -16 -27 -49
-42 -71 -16 -23 -28 -47 -28 -53 0 -14 -18 -17 -77 -11 -24 2 -25 3 -6 7 46 9
48 22 47 255 -1 122 2 218 7 218 5 0 9 -9 9 -19 0 -11 5 -23 10 -26 6 -3 10 1
10 9 0 12 10 16 38 16 27 0 46 7 63 23 22 22 27 22 64 10 21 -8 45 -11 52 -9z
m-320 0 c-3 -3 -12 -4 -19 -1 -8 3 -5 6 6 6 11 1 17 -2 13 -5z m1857 -26 c2
-7 9 -32 15 -55 6 -23 23 -55 36 -71 22 -26 24 -36 19 -76 -8 -59 -24 -47 -28
20 -2 50 -42 127 -72 138 -8 3 -14 13 -14 23 0 15 2 16 10 3 8 -12 10 -11 10
8 0 23 18 31 24 10z m-2067 -45 c-3 -10 -5 -4 -5 12 0 17 2 24 5 18 2 -7 2
-21 0 -30z m-420 -10 c-17 -18 -22 -8 -11 22 5 12 10 13 17 6 8 -8 6 -16 -6
-28z m653 27 c0 -5 -5 -10 -11 -10 -5 0 -7 5 -4 10 3 6 8 10 11 10 2 0 4 -4 4
-10z m2310 -18 c0 -5 -13 -18 -30 -30 l-30 -23 0 24 c0 13 3 27 7 30 9 10 53
9 53 -1z m-2632 -38 c-36 -19 -38 -48 -4 -42 14 3 30 2 37 -3 19 -11 2 -39
-24 -39 -23 0 -47 -17 -47 -33 0 -6 18 -7 41 -3 31 5 40 3 37 -6 -3 -7 -13
-15 -24 -17 -26 -4 -45 -21 -38 -33 4 -6 19 -7 35 -4 25 5 29 3 29 -18 0 -20
-4 -22 -26 -18 -25 4 -26 3 -20 -25 7 -30 7 -30 -31 -24 -43 7 -40 -8 -35 171
2 64 5 80 17 80 9 0 18 7 21 15 4 8 18 15 33 15 l26 -1 -27 -15z m322 0 c0 -2
-14 -4 -31 -4 -16 0 -28 4 -25 9 5 8 56 3 56 -5z m361 -96 c-6 -20 -26 -50
-45 -65 -18 -15 -41 -41 -51 -56 -31 -49 -28 -20 4 36 17 30 38 74 46 98 9 24
23 52 33 62 17 19 17 19 20 -9 2 -16 -1 -45 -7 -66z m1959 72 c0 -5 -6 -10
-14 -10 -8 0 -21 -3 -30 -6 -9 -3 -16 -1 -16 4 0 10 19 18 48 21 6 0 12 -3 12
-9z m30 -30 c0 -5 -4 -10 -9 -10 -5 0 -17 -7 -26 -16 -23 -23 -32 -8 -10 16
19 21 45 27 45 10z m-512 -111 c-8 -5 -15 -4 -17 4 -2 7 -10 26 -18 42 l-15
30 32 -34 c24 -26 28 -36 18 -42z m427 21 c3 -5 14 -10 23 -10 10 0 33 -13 52
-28 41 -33 85 -57 275 -147 77 -36 165 -79 195 -94 69 -35 266 -118 302 -126
50 -12 82 -73 51 -97 -38 -28 -55 -102 -54 -222 1 -54 -23 -156 -36 -156 -3 0
-27 20 -54 44 -27 25 -64 48 -82 51 -43 9 -157 64 -182 88 -11 11 -33 25 -50
32 -16 8 -57 35 -90 62 -33 27 -118 90 -189 141 -93 66 -134 102 -148 129 -11
21 -26 43 -33 48 -12 10 -14 103 -6 273 1 23 15 30 26 12z m-471 -189 c1 -53
8 -106 14 -117 6 -11 29 -33 52 -49 38 -26 40 -30 22 -36 -25 -9 -72 -77 -72
-102 0 -24 56 -77 81 -77 20 0 26 -24 9 -35 -5 -3 -10 -19 -10 -35 0 -31 48
-80 78 -80 15 0 17 -13 15 -116 -1 -72 -6 -121 -14 -130 -8 -10 -8 -14 0 -14
6 0 11 -6 11 -12 -1 -7 -10 -2 -21 12 -11 14 -30 36 -41 49 -11 13 -21 40 -22
60 -1 20 -6 43 -11 51 -5 8 -10 20 -10 25 -1 27 -31 127 -56 185 -15 36 -30
83 -34 105 -4 22 -9 49 -12 60 -12 62 -15 157 -8 271 9 150 24 142 29 -15z
m46 120 c0 -6 -4 -13 -10 -16 -5 -3 -10 1 -10 9 0 9 5 16 10 16 6 0 10 -4 10
-9z m51 -29 c-13 -24 -6 -48 22 -79 30 -34 55 -29 73 12 8 19 16 35 19 35 6 0
-4 -96 -17 -153 l-10 -47 -44 3 c-95 9 -122 90 -68 203 14 31 28 53 31 50 2
-2 0 -13 -6 -24z m-2333 -9 c-14 -14 -48 -9 -48 7 0 10 40 18 53 12 5 -2 3
-11 -5 -19z m237 -33 c8 0 15 -9 15 -20 0 -23 -4 -24 -31 -10 -14 8 -19 21
-18 53 l1 42 9 -32 c5 -18 16 -33 24 -33z m2165 28 c0 -7 -4 -19 -9 -27 -11
-17 -25 3 -17 24 7 18 26 20 26 3z m-364 -86 c-11 -10 -15 4 -8 28 l7 25 3
-23 c2 -13 1 -26 -2 -30z m2109 34 c47 -3 75 -11 133 -38 46 -22 52 -38 23
-69 -16 -17 -20 -18 -30 -5 -36 43 -200 71 -277 47 -16 -5 -48 -12 -72 -15
-41 -6 -43 -5 -40 16 2 17 15 26 53 39 28 9 64 21 80 27 17 6 44 8 60 6 17 -3
48 -6 70 -8z m-2109 -73 c-3 -10 -6 -48 -7 -85 -1 -37 -6 -65 -10 -62 -5 2 -6
35 -3 72 6 73 10 92 19 92 4 0 4 -8 1 -17z m2189 -73 c64 -37 65 -42 37 -180
-15 -69 -21 -85 -37 -88 -56 -8 -62 -12 -74 -52 -6 -22 -16 -40 -22 -40 -5 0
-28 -9 -50 -19 -48 -23 -96 -15 -91 15 2 14 1 16 -6 6 -8 -12 -15 -11 -40 2
-40 21 -52 20 -52 -1 0 -14 -6 -11 -25 12 -13 17 -22 37 -18 45 3 8 12 43 19
77 12 57 12 66 -6 108 -11 25 -24 45 -29 45 -6 0 -15 10 -22 21 -13 26 7 45
28 27 9 -7 20 -6 38 6 67 44 117 56 208 52 75 -4 95 -9 142 -36z m-560 -41
c-5 -7 -11 -6 -21 2 -11 9 -12 15 -2 26 10 12 13 12 20 -1 5 -9 6 -21 3 -27z
m-859 -123 c49 -33 115 -79 147 -103 31 -24 80 -59 107 -78 57 -40 300 -170
300 -161 0 14 61 -27 82 -54 12 -17 29 -30 38 -30 9 0 21 -5 27 -11 7 -7 19
-8 30 -3 10 4 24 8 32 8 8 1 21 21 29 45 12 37 13 53 2 93 -6 27 -9 61 -5 76
4 15 9 42 11 61 7 52 12 53 54 8 38 -41 39 -42 55 -22 15 20 16 20 32 -5 10
-14 38 -44 63 -68 25 -23 44 -49 42 -57 -2 -8 1 -15 7 -15 5 0 15 -17 21 -37
7 -21 16 -42 21 -47 5 -6 9 -19 9 -30 0 -12 12 -32 26 -45 15 -14 24 -33 22
-45 -2 -17 -11 -22 -48 -24 -24 -2 -51 -8 -58 -15 -11 -9 -6 -15 23 -29 28
-15 40 -17 50 -8 20 16 37 2 29 -23 -3 -12 -3 -19 1 -15 5 4 14 3 21 -2 8 -8
17 -6 29 7 17 16 19 15 51 -19 61 -67 55 -159 -12 -166 -38 -4 -65 25 -79 82
-10 40 -11 41 -55 44 -24 2 -59 1 -77 -3 -32 -6 -33 -7 -30 -56 6 -85 -28
-107 -109 -73 -47 20 -54 29 -54 76 0 57 -58 93 -115 72 -21 -8 -48 -62 -41
-81 24 -63 -144 -55 -204 9 -14 16 -20 35 -20 69 0 41 -4 50 -29 68 -39 28
-64 26 -98 -7 -26 -27 -30 -28 -78 -19 -27 5 -57 15 -66 23 -8 8 -20 14 -26
14 -29 0 -57 90 -33 105 6 3 10 17 10 29 0 35 -53 58 -105 46 -22 -5 -41 -13
-42 -17 -23 -65 -70 -83 -99 -38 -14 22 -17 55 -18 206 -1 162 0 178 14 160
35 -44 227 -214 291 -258 115 -79 177 -109 314 -153 152 -49 201 -68 216 -86
8 -10 15 -10 29 -2 13 8 38 7 101 -5 88 -17 115 -17 162 2 34 13 31 37 -4 33
-75 -9 -97 -9 -146 4 -30 8 -68 14 -84 14 -17 0 -45 7 -62 14 -18 8 -86 33
-152 54 -127 41 -263 105 -311 145 -16 13 -41 30 -56 38 -28 15 -177 147 -237
212 -21 23 -42 37 -54 35 -19 -3 -20 4 -24 85 l-3 89 24 -29 c13 -15 64 -55
112 -87z m-373 51 c13 -1 17 -7 13 -22 -3 -11 -6 -30 -6 -42 0 -15 -5 -21 -14
-17 -8 3 -28 -2 -44 -12 -58 -34 -88 6 -53 72 22 41 24 42 54 32 18 -6 40 -11
50 -11z m1227 13 c0 -5 -2 -10 -4 -10 -3 0 -8 5 -11 10 -3 6 -1 10 4 10 6 0
11 -4 11 -10z m70 -5 c0 -8 -7 -15 -15 -15 -16 0 -20 12 -8 23 11 12 23 8 23
-8z m50 -85 c-6 -11 -17 -20 -24 -20 -7 0 -32 -14 -54 -30 -36 -26 -42 -27
-42 -12 0 42 51 78 113 81 15 1 16 -2 7 -19z m-1345 -126 c-3 -30 -9 -54 -12
-54 -11 0 -43 33 -43 44 0 20 53 91 58 77 2 -7 1 -37 -3 -67z m1271 30 c-4 -9
-9 -15 -11 -12 -3 3 -3 13 1 22 4 9 9 15 11 12 3 -3 3 -13 -1 -22z m587 -51
c3 -19 -1 -31 -16 -43 l-21 -17 27 -18 c30 -20 36 -37 10 -33 -21 4 -31 -31
-12 -43 10 -6 10 -10 0 -23 -16 -19 -6 -36 20 -36 14 0 19 -7 19 -30 0 -16 -4
-29 -9 -27 -5 1 -16 -7 -24 -18 -14 -19 -16 -19 -34 -2 -11 9 -34 17 -51 17
-22 0 -32 5 -32 15 0 14 7 17 55 19 13 1 20 8 20 21 0 16 -8 21 -37 23 -21 2
-38 7 -38 12 0 10 25 20 50 20 25 0 35 17 20 35 -7 8 -9 22 -6 31 9 22 -11 44
-40 44 -36 0 -29 17 7 18 40 1 57 16 40 36 -10 12 -8 15 11 19 13 2 26 5 29 6
4 0 9 -11 12 -26z m-2213 -49 c0 -6 21 -36 48 -66 246 -286 241 -280 267 -388
17 -72 18 -99 15 -375 -1 -64 2 -82 16 -92 9 -7 20 -10 24 -8 20 12 16 -28 -5
-60 -20 -28 -22 -37 -11 -41 8 -3 24 -1 35 5 17 9 22 8 31 -9 18 -33 20 -137
5 -168 -8 -15 -17 -39 -20 -54 -6 -30 -28 -40 -90 -43 -22 -1 -48 -5 -57 -9
-27 -12 -35 0 -42 66 -8 67 -16 78 -56 78 -38 0 -54 -15 -58 -57 -12 -122 2
-173 48 -173 30 0 37 -8 21 -25 -17 -18 -16 -56 5 -147 1 -5 2 -12 3 -17 1
-12 81 -105 81 -95 0 4 2 5 5 3 2 -3 -6 -27 -20 -54 l-23 -49 -16 59 c-26 95
-37 127 -57 171 -11 23 -22 65 -26 94 -3 28 -11 53 -17 55 -46 14 -67 15 -60
3 4 -6 -7 -2 -24 11 -18 12 -32 25 -32 29 1 18 20 35 41 36 12 0 24 6 26 12 6
18 -26 44 -53 44 -13 0 -24 4 -24 10 0 5 20 9 44 8 24 0 49 2 55 6 17 11 1 36
-24 36 -60 0 -110 40 -59 48 44 7 47 12 24 32 -22 19 -19 46 5 36 7 -2 37 2
65 9 45 12 55 12 67 -1 8 -8 20 -11 26 -7 7 5 39 10 71 13 41 3 62 10 70 22
15 24 7 28 -60 32 -32 3 -72 7 -89 9 -16 3 -35 1 -42 -5 -6 -5 -36 -12 -65
-15 l-53 -5 -23 69 c-30 94 -28 144 8 218 26 54 27 61 13 77 -8 9 -28 20 -44
23 -19 4 -53 34 -100 84 -87 96 -242 228 -373 318 -106 73 -124 93 -82 93 38
0 90 24 112 51 14 18 30 24 62 26 47 1 82 25 82 54 0 10 5 30 10 44 l10 27 39
-31 c60 -48 144 -38 200 23 l25 26 23 -27 c12 -16 22 -33 23 -39z m108 24
c-14 -14 -23 -17 -31 -9 -7 7 -3 16 14 30 30 24 45 7 17 -21z m1652 0 c0 -13
-23 -5 -28 10 -2 7 2 10 12 6 9 -3 16 -11 16 -16z m177 -74 c17 -5 24 -16 29
-49 6 -44 44 -93 62 -81 10 6 22 -48 22 -101 l0 -33 -21 21 c-11 11 -33 25
-49 30 -28 10 -45 44 -35 71 3 8 -6 25 -20 38 -25 24 -42 80 -30 99 7 13 12
13 42 5z m103 -44 c0 -51 -6 -60 -28 -38 -15 15 -15 29 -2 62 15 42 30 30 30
-24z m-149 -66 c12 -15 12 -17 0 -12 -29 9 -50 51 -44 88 l6 34 12 -46 c6 -26
18 -55 26 -64z m233 94 c-7 -11 -34 -10 -34 1 0 6 9 9 19 8 11 0 17 -5 15 -9z
m-2954 -167 c0 -5 -7 -11 -14 -14 -10 -4 -13 -1 -9 9 6 15 23 19 23 5z m2974
-27 c4 -10 13 -13 26 -9 13 4 21 2 22 -7 4 -43 7 -91 14 -245 5 -129 10 -173
20 -173 7 0 14 6 17 13 3 6 5 3 4 -8 0 -11 3 -32 6 -47 10 -37 1 -35 -43 10
-21 20 -52 50 -69 66 -22 20 -29 32 -22 39 7 7 15 6 26 -3 19 -16 39 -1 30 22
-4 10 -15 13 -31 10 -14 -2 -24 0 -24 7 0 6 13 11 29 11 17 0 33 5 37 12 9 14
-26 40 -44 33 -8 -3 -18 -2 -23 1 -18 10 12 34 43 34 23 0 29 4 26 18 -3 13
-13 17 -46 15 -36 -2 -43 1 -40 15 2 12 14 17 38 18 24 0 36 5 38 16 4 20 -48
40 -71 27 -19 -11 -28 1 -20 29 4 18 13 22 49 22 36 0 44 3 43 18 0 11 -2 12
-6 4 -4 -10 -10 -9 -25 5 -11 9 -28 18 -39 18 -10 0 -19 5 -18 10 0 6 7 9 15
7 8 -2 14 4 14 13 0 20 16 19 24 -1z m-151 -68 c20 -19 57 -84 57 -102 0 -6
-46 43 -79 84 -36 47 -22 59 22 18z m257 -236 c0 -5 -5 -10 -11 -10 -5 0 -7 5
-4 10 3 6 8 10 11 10 2 0 4 -4 4 -10z m-4210 -351 c-19 -38 -41 -75 -48 -82
-8 -6 -32 -37 -54 -69 -28 -43 -40 -70 -41 -101 -2 -32 -6 -43 -21 -45 -16 -4
-18 0 -12 31 8 42 -3 52 -39 35 -33 -15 -48 3 -39 47 10 46 71 139 104 159 17
9 37 31 46 48 21 40 25 32 11 -20 -9 -32 -8 -45 1 -54 18 -18 82 53 82 91 0
32 19 56 34 41 7 -7 -2 -34 -24 -81z m-10 -155 c-11 -32 -54 -64 -67 -50 -10
9 8 44 39 75 36 37 45 29 28 -25z m1880 -44 c0 -5 -5 -10 -11 -10 -5 0 -7 5
-4 10 3 6 8 10 11 10 2 0 4 -4 4 -10z m-3 -52 c-3 -8 -6 -5 -6 6 -1 11 2 17 5
13 3 -3 4 -12 1 -19z m23 -106 c0 -15 -2 -15 -10 -2 -13 20 -13 33 0 25 6 -3
10 -14 10 -23z m565 -13 c7 -29 -14 -69 -37 -69 -13 0 -9 69 5 85 18 21 25 18
32 -16z m-11 -136 c3 -10 10 -39 15 -64 6 -25 13 -54 17 -65 4 -10 4 -16 0
-12 -13 11 -55 158 -46 158 5 0 11 -8 14 -17z m111 -373 c-3 -5 -2 -10 3 -12
4 -1 17 -28 29 -59 21 -55 21 -57 3 -84 -10 -15 -16 -34 -13 -41 3 -9 -2 -14
-16 -14 -18 0 -20 3 -9 19 9 14 8 27 -5 58 -8 22 -18 60 -22 84 -10 73 -15 97
-30 161 -22 96 -5 90 31 -12 19 -50 32 -96 29 -100z m145 -55 c0 -3 -11 -17
-24 -31 -17 -19 -26 -23 -31 -13 -5 7 0 19 15 31 22 18 40 23 40 13z m-26
-152 c3 -27 7 -55 9 -63 2 -8 7 -35 11 -60 4 -25 16 -82 28 -128 15 -60 17
-87 10 -94 -8 -8 -14 -4 -22 16 -5 15 -10 35 -10 43 0 9 -11 48 -24 87 -25 73
-44 183 -38 224 6 41 30 24 36 -25z m370 -51 c15 -18 14 -20 -33 -45 -27 -15
-57 -27 -67 -27 -10 0 -27 -9 -38 -19 -12 -11 -47 -31 -78 -45 l-56 -25 -16
49 c-9 27 -16 63 -16 80 l0 31 83 -2 c80 -3 153 4 165 15 11 12 39 5 56 -12z
M3227 7783 c-12 -11 -8 -23 8 -23 8 0 15 7 15 15 0 16 -12 20 -23 8z M917
6352 c-16 -18 -23 -42 -12 -42 11 0 65 44 65 52 0 15 -37 8 -53 -10z M774
4885 c-8 -20 3 -48 16 -40 13 8 13 55 0 55 -6 0 -13 -7 -16 -15z M800 4706 c0
-17 14 -29 23 -20 8 8 -3 34 -14 34 -5 0 -9 -6 -9 -14z M4468 4955 c-3 -6 -2
-58 2 -117 6 -91 11 -111 31 -137 13 -16 27 -30 32 -30 10 -1 9 33 -2 45 -20
22 -40 141 -27 162 4 7 5 16 2 19 -3 4 -6 0 -7 -8 -1 -8 -6 6 -13 31 -7 25
-14 40 -18 35z M3740 5460 c0 -6 -9 -14 -20 -18 -26 -10 -11 -33 17 -26 24 7
39 54 17 54 -8 0 -14 -5 -14 -10z M3742 5123 c-18 -7 -4 -23 19 -23 12 0 19 5
17 12 -5 14 -18 18 -36 11z M3770 5051 c0 -12 29 -23 41 -15 18 10 9 24 -16
24 -14 0 -25 -4 -25 -9z M3798 4843 c-29 -7 -21 -22 16 -29 45 -8 66 4 41 23
-19 13 -27 14 -57 6z M3766 4791 c-7 -10 8 -127 22 -176 5 -16 13 -28 18 -25
12 7 9 81 -5 153 -12 54 -23 69 -35 48z M3820 4766 c0 -11 9 -16 26 -16 31 0
28 23 -4 28 -15 2 -22 -2 -22 -12z M1628 4850 c-114 -46 -160 -102 -107 -130
21 -12 22 -12 146 55 33 17 59 25 70 20 17 -6 17 -8 -2 -21 -123 -90 -129 -96
-103 -122 19 -19 57 -14 92 13 21 16 46 25 69 25 44 0 49 -20 11 -40 -28 -16
-54 -58 -47 -77 9 -24 42 -14 58 17 9 17 22 30 30 30 15 0 55 55 55 76 0 6
-16 31 -35 55 -19 24 -35 54 -35 66 0 49 -116 68 -202 33z M1900 4538 c-54
-15 -90 -48 -148 -134 -53 -79 -81 -152 -87 -225 -1 -22 -5 -43 -9 -46 -11
-11 -6 57 8 120 8 34 17 74 20 89 4 15 12 33 19 40 18 17 27 57 16 63 -27 17
-84 -59 -100 -135 -4 -19 -15 -64 -24 -99 -14 -51 -15 -71 -6 -101 6 -20 11
-60 11 -88 0 -28 4 -53 9 -56 20 -13 40 8 46 47 9 60 16 81 24 71 3 -5 16 -15
28 -21 28 -16 33 -8 40 65 7 65 34 133 87 212 20 30 36 58 36 62 0 18 -27 6
-54 -24 -18 -21 -22 -24 -12 -8 9 14 25 41 35 60 11 20 31 42 46 50 26 14 28
13 54 -17 14 -17 33 -42 42 -54 23 -33 49 -19 49 25 0 23 -9 46 -27 68 -44 53
-44 53 -103 36z M1876 3465 c-22 -23 -21 -87 2 -108 25 -23 29 -22 47 14 23
43 16 103 -11 107 -12 2 -29 -4 -38 -13z M1848 3313 c-8 -10 -21 -47 -27 -82
-11 -56 -11 -66 3 -80 35 -34 72 37 75 142 1 30 -3 37 -17 37 -11 0 -26 -8
-34 -17z M4460 5145 c0 -14 4 -25 9 -25 12 0 19 21 13 38 -8 21 -22 13 -22
-13z M2431 4059 c-20 -33 -18 -59 4 -59 15 0 57 75 48 84 -14 14 -35 4 -52
-25z M2912 2138 c3 -7 13 -15 22 -16 12 -3 17 1 14 10 -3 7 -13 15 -22 16 -12
3 -17 -1 -14 -10z M957 3603 c-4 -3 -7 -15 -7 -25 0 -13 8 -18 29 -18 31 0 46
21 28 39 -12 12 -40 15 -50 4z M970 3490 c-9 -16 -8 -21 5 -26 23 -9 47 4 43
23 -5 26 -35 28 -48 3z M927 3397 c-9 -24 8 -39 37 -31 18 4 26 12 24 23 -4
20 -53 27 -61 8z M4299 2963 c-12 -3 -15 -17 -14 -60 0 -33 5 -58 12 -60 16
-6 36 35 30 59 -4 12 -1 18 6 15 7 -2 11 -13 10 -23 -2 -10 -4 -36 -5 -57 -2
-37 -4 -38 -30 -33 -32 6 -34 0 -13 -30 13 -19 22 -21 70 -15 6 0 17 27 24 60
11 50 11 62 -3 88 -12 25 -58 66 -68 62 -2 -1 -10 -3 -19 -6z M340 8369 c0 -5
5 -7 10 -4 6 3 10 8 10 11 0 2 -4 4 -10 4 -5 0 -10 -5 -10 -11z M2390 4559 c0
-5 5 -7 10 -4 6 3 10 8 10 11 0 2 -4 4 -10 4 -5 0 -10 -5 -10 -11z M4340 3921
c0 -24 18 -38 55 -43 22 -2 30 1 30 12 0 9 -11 16 -27 18 -16 2 -28 9 -28 18
0 8 -7 14 -15 14 -8 0 -15 -8 -15 -19z M164 3872 c5 -16 3 -22 -7 -22 -8 0
-21 -7 -28 -17 -13 -15 -11 -16 16 -9 45 11 56 34 29 57 -15 12 -16 11 -10 -9z
M4280 3875 c-7 -8 -9 -22 -5 -32 4 -10 9 -43 12 -73 5 -63 12 -74 65 -100 44
-21 68 -17 68 11 0 10 5 19 11 19 7 0 17 8 24 17 14 19 3 65 -21 94 -18 20
-82 40 -90 28 -9 -15 -27 -10 -21 5 3 8 -2 21 -12 30 -16 15 -20 15 -31 1z
m143 -107 c6 -21 2 -36 -7 -27 -10 11 -16 49 -8 49 5 0 12 -10 15 -22z m-61
-23 c-3 -19 0 -25 14 -25 16 -1 17 -2 3 -10 -23 -13 -59 -1 -59 21 0 11 7 19
15 19 8 0 15 5 15 10 0 6 4 10 9 10 4 0 6 -11 3 -25z M4834 3400 c-7 -7 -8
-29 -3 -62 12 -73 19 -71 19 5 0 37 -1 67 -3 67 -2 0 -8 -5 -13 -10z M135
3340 c-3 -5 -1 -10 4 -10 6 0 11 5 11 10 0 6 -2 10 -4 10 -3 0 -8 -4 -11 -10z
M4841 3254 c0 -11 3 -14 6 -6 3 7 2 16 -1 19 -3 4 -6 -2 -5 -13z M4733 3039
c-15 -15 20 -89 41 -89 24 0 26 13 4 49 -30 50 -32 53 -45 40z M4726 2904
c-10 -27 -6 -67 13 -129 24 -76 49 -125 65 -125 6 0 18 -15 26 -32 l14 -33 4
54 c4 64 -3 90 -20 73 -18 -18 -31 -14 -25 8 3 11 -3 38 -14 60 -10 21 -21 52
-23 67 -10 67 -27 91 -40 57z M4762 2597 c-14 -17 8 -100 52 -190 l34 -72 0
69 c0 41 -4 63 -9 55 -4 -7 -10 -11 -13 -8 -7 7 -36 120 -36 141 0 21 -13 23
-28 5z M1731 2421 c-27 -33 -30 -43 -21 -65 7 -20 5 -33 -9 -58 -24 -41 -54
-145 -46 -158 3 -5 2 -18 -4 -28 -5 -9 -16 -69 -25 -132 -15 -112 -20 -169
-31 -410 -11 -254 -17 -305 -44 -435 -6 -27 -14 -74 -17 -105 -3 -30 -8 -58
-10 -62 -2 -3 -11 -41 -19 -85 -8 -43 -17 -87 -19 -98 -3 -17 -44 -139 -97
-295 -28 -84 -44 -117 -69 -150 -38 -49 -106 -171 -114 -204 -5 -21 -2 -32 11
-42 26 -19 28 -18 30 22 2 38 34 100 95 182 54 73 118 205 161 332 40 120 45
145 57 255 15 134 29 217 46 272 13 40 14 56 5 66 -6 8 -8 16 -5 19 8 8 24
214 29 383 8 249 46 527 81 594 8 14 14 33 14 41 0 9 11 32 25 52 27 40 31 63
13 74 -7 5 -2 15 17 30 15 12 24 27 21 33 -14 22 -45 10 -75 -28z M1533 2308
c-26 -29 -70 -125 -99 -218 -18 -58 -32 -226 -35 -420 -2 -85 -9 -180 -16
-210 -7 -30 -12 -89 -12 -130 0 -41 -4 -100 -10 -130 -14 -69 -65 -242 -101
-340 -15 -41 -35 -102 -45 -135 -20 -68 -29 -90 -95 -230 -26 -55 -57 -109
-68 -119 -31 -27 -29 -4 5 61 28 56 27 69 -6 58 -22 -7 -91 -109 -91 -135 0
-47 76 -55 119 -12 33 34 115 181 113 204 0 10 5 18 11 18 10 0 26 35 41 90 3
8 21 62 41 119 20 58 43 133 51 168 8 34 19 75 25 90 24 60 71 273 80 358 21
197 26 273 22 335 -10 185 2 301 38 369 10 19 19 43 19 53 0 9 5 20 10 23 6 3
10 13 10 22 0 9 11 30 24 48 24 31 30 47 27 73 -2 20 -36 14 -58 -10z M4791
2296 c-17 -20 -4 -82 28 -130 25 -38 26 -39 30 -15 2 20 -10 95 -25 147 -5 16
-19 15 -33 -2z M1937 2253 c-24 -28 -43 -160 -29 -213 7 -27 7 -51 1 -67 -5
-13 -9 -38 -9 -54 0 -16 -7 -58 -14 -92 -35 -147 -44 -217 -34 -250 8 -25 5
-57 -12 -137 -13 -58 -28 -134 -34 -170 -7 -36 -15 -71 -19 -76 -6 -11 -11
-48 -22 -195 -9 -124 -15 -181 -20 -214 -28 -160 -29 -198 -7 -225 16 -20 23
-22 33 -13 10 10 9 17 -5 32 -13 14 -17 30 -13 53 27 169 39 253 42 308 5 86
24 250 32 275 3 11 14 31 25 45 13 18 20 50 24 100 3 41 10 93 16 115 6 22 12
49 14 60 1 11 8 40 15 65 6 25 13 79 14 120 3 77 10 128 20 161 4 11 8 32 10
47 2 15 11 74 19 131 8 58 13 108 10 113 -11 18 -34 -15 -34 -48 0 -39 -15
-53 -24 -21 -10 40 -6 65 18 111 22 41 23 56 6 56 -4 0 -14 -8 -23 -17z m-27
-546 c0 -24 -7 -52 -16 -63 -14 -18 -15 -15 -9 35 9 82 25 100 25 28z M4775
2090 c-5 -14 4 -32 32 -64 l38 -44 3 34 c2 22 -4 43 -19 64 -26 35 -45 38 -54
10z M4245 2074 c-11 -12 -15 -27 -11 -48 14 -76 18 -255 7 -305 -12 -56 -3
-91 23 -91 17 0 26 84 30 274 4 171 -7 211 -49 170z M4433 2009 c-8 -8 -6 -24
8 -62 23 -62 33 -74 52 -58 13 10 12 19 -3 69 -18 57 -35 73 -57 51z M4363
1923 c-7 -3 -13 -21 -13 -41 0 -124 -58 -425 -116 -609 -18 -58 -37 -220 -30
-256 8 -39 72 -117 96 -117 31 0 29 25 -3 52 -64 50 -70 173 -17 338 44 139
118 516 120 611 0 18 -18 29 -37 22z M4489 1792 c-21 -4 -29 -31 -29 -97 0
-28 -7 -78 -16 -110 -43 -158 -49 -204 -36 -264 8 -31 7 -57 -2 -92 -7 -26
-10 -53 -6 -60 29 -47 63 91 47 191 -8 48 -6 69 12 126 11 38 28 112 36 164 9
52 17 102 19 111 5 23 -6 36 -25 31z M4821 1763 c-13 -9 -44 -27 -70 -40 -55
-29 -88 -59 -97 -86 -3 -10 -17 -35 -31 -56 -45 -66 -85 -153 -75 -163 10 -10
48 40 92 125 13 26 32 49 41 52 8 3 25 18 37 34 12 16 46 44 77 63 45 27 55
37 55 60 0 33 1 33 -29 11z M1274 1700 c-16 -6 -23 -20 -27 -47 -2 -21 -14
-69 -27 -108 -12 -38 -23 -77 -24 -85 -10 -60 -91 -268 -123 -315 -7 -11 -13
-27 -13 -36 0 -10 -10 -30 -22 -46 -26 -33 -45 -62 -55 -83 -3 -8 -37 -78 -75
-155 -76 -156 -121 -227 -189 -307 -26 -29 -56 -75 -68 -103 -28 -64 -71 -126
-82 -119 -5 3 -6 -1 -3 -9 3 -9 -17 -31 -57 -61 -62 -45 -89 -56 -89 -35 0 5
4 8 9 5 13 -9 44 31 38 49 -4 8 -14 15 -24 15 -20 -1 -91 -63 -94 -82 -6 -49
24 -63 95 -47 45 10 63 21 114 73 85 85 114 121 157 194 20 35 49 78 64 95 15
18 39 52 52 77 13 25 26 47 29 50 9 8 94 156 110 190 4 8 16 35 28 60 11 25
31 68 45 95 13 28 35 79 47 115 13 36 38 97 57 135 43 87 103 235 103 252 0 7
7 29 16 50 47 107 53 135 40 165 -9 21 -15 24 -32 18z M4798 1604 c-53 -53
-58 -69 -28 -79 25 -8 40 1 40 24 0 9 9 27 21 39 11 13 19 32 17 43 -3 19 -9
15 -50 -27z M4584 1386 c-9 -15 -14 -41 -13 -63 2 -30 -4 -48 -30 -83 -28 -38
-80 -138 -111 -215 -5 -11 -22 -72 -39 -135 -17 -63 -40 -144 -51 -180 -10
-36 -22 -99 -25 -140 -4 -41 -8 -76 -8 -77 -3 -3 -100 18 -117 24 -9 4 1 9 25
12 27 4 41 12 43 24 3 15 -6 17 -82 17 -77 0 -103 8 -77 24 5 3 45 6 90 7 55
1 84 6 92 15 18 22 -11 27 -107 21 -46 -2 -84 -1 -84 4 0 5 15 9 33 10 67 1
87 5 99 17 10 10 8 14 -10 18 -25 7 -29 22 -7 31 9 3 22 18 30 33 13 25 12 29
-4 44 -37 34 -166 32 -178 -2 -4 -9 -10 -19 -14 -22 -5 -3 -10 -24 -11 -45
l-3 -40 -60 -10 c-77 -13 -88 -20 -73 -45 15 -24 58 -40 105 -40 56 0 34 -23
-38 -40 -96 -22 -106 -33 -67 -70 17 -15 35 -20 81 -20 85 0 71 -23 -17 -27
-91 -4 -122 -19 -118 -58 4 -38 29 -65 59 -65 21 0 23 4 18 23 -4 12 -11 26
-16 32 -5 5 -9 15 -9 22 0 11 15 13 63 11 l62 -3 1 -85 c0 -47 4 -122 8 -167
l8 -83 30 0 30 0 -7 49 c-9 64 -10 270 -1 278 3 4 28 6 54 5 26 -2 72 4 102
12 30 8 56 13 57 12 2 -1 -8 -47 -21 -102 -13 -54 -27 -118 -31 -141 -6 -39
-5 -43 13 -43 23 0 27 10 37 85 4 28 15 86 25 130 24 99 30 135 36 205 3 30 7
69 8 85 4 45 35 172 58 235 10 30 21 65 22 77 2 13 8 29 15 37 6 8 11 18 9 22
-3 14 11 54 48 129 37 75 60 108 84 117 9 3 21 17 28 32 6 14 17 37 23 50 13
28 5 48 -16 39 -10 -3 -15 2 -15 16 0 28 -16 27 -36 -3z m-410 -612 c25 -10 8
-24 -29 -24 -19 0 -37 -5 -40 -10 -8 -13 14 -42 26 -34 5 3 9 0 9 -5 0 -6 -11
-11 -24 -11 -30 0 -41 27 -27 64 8 20 17 26 40 26 16 0 36 -3 45 -6z m6 -74
c0 -5 -4 -10 -10 -10 -5 0 -10 5 -10 10 0 6 5 10 10 10 6 0 10 -4 10 -10z
m-150 -59 c3 -1 -1 -5 -9 -10 -14 -9 -51 -3 -51 8 0 6 42 7 60 2z m-2 -129 c2
-6 -5 -13 -15 -13 -58 -4 -67 -3 -70 8 -2 6 4 13 14 16 32 7 66 2 71 -11z
m126 9 c3 -5 -10 -11 -29 -13 -24 -3 -35 0 -35 9 0 15 56 18 64 4z m111 -60
c13 -22 -88 -46 -144 -35 -21 5 -31 12 -31 25 0 17 9 19 84 19 47 0 87 -4 91
-9z M1285 1366 c-8 -18 -21 -67 -30 -107 -21 -95 -71 -228 -133 -354 -48 -99
-76 -157 -134 -285 -67 -149 -105 -218 -149 -273 -26 -31 -62 -83 -80 -113
-19 -31 -56 -83 -82 -115 l-48 -59 43 2 c36 1 49 8 81 40 20 21 37 41 37 46 0
4 12 20 26 35 15 16 23 34 20 43 -7 18 2 36 59 124 23 36 69 115 100 175 32
61 68 126 80 145 30 50 95 196 95 215 0 9 8 32 19 53 10 20 26 62 36 92 10 30
31 84 48 120 16 36 31 83 33 105 2 22 8 60 13 85 5 25 7 48 5 52 -11 17 -26 7
-39 -26z M4821 1360 c-14 -19 -44 -59 -68 -88 -45 -57 -68 -118 -72 -199 -1
-17 -63 -73 -80 -73 -48 0 -94 -94 -121 -248 -19 -106 -20 -122 -20 -261 -1
-148 -11 -217 -42 -274 -13 -25 -17 -42 -11 -48 6 -6 -3 -23 -24 -45 -39 -41
-42 -64 -10 -64 17 0 29 14 54 68 58 122 72 188 72 330 0 155 7 232 27 325 3
16 1 34 -6 42 -12 15 -5 39 9 30 4 -2 14 13 21 35 7 21 20 40 29 43 13 3 16
-5 16 -42 0 -40 3 -46 23 -49 23 -4 33 23 11 30 -22 7 -1 74 26 86 25 11 73
100 73 132 -1 54 42 143 89 185 31 27 34 35 31 75 l-3 45 -24 -35z M2141 1241
c-7 -5 -15 -24 -17 -42 -2 -19 -6 -50 -10 -69 -3 -19 -6 -68 -5 -108 1 -47 -6
-97 -18 -140 -11 -37 -27 -105 -36 -152 -9 -47 -25 -112 -35 -145 -53 -168
-58 -203 -52 -385 3 -82 7 -94 37 -104 20 -6 21 -3 20 171 0 159 2 184 22 239
12 34 27 83 33 110 5 27 14 65 19 84 35 124 44 157 49 170 10 26 13 53 17 130
1 42 8 101 14 132 10 48 10 61 -4 87 -18 35 -15 34 -34 22z M4650 1210 c-17
-10 -13 -17 15 -22 12 -2 20 3 20 11 0 18 -16 23 -35 11z M436 1087 c-11 -8
-20 -31 -23 -63 -3 -27 -9 -51 -12 -54 -16 -12 -40 -60 -59 -117 -29 -84 -81
-202 -105 -236 -10 -15 -20 -34 -21 -41 -2 -16 -32 -56 -108 -145 -34 -39 -58
-76 -58 -89 0 -23 1 -22 36 10 19 18 53 60 74 93 21 33 59 89 84 125 25 36 46
69 46 73 0 5 9 21 19 36 11 15 34 63 51 107 17 43 38 86 46 95 8 8 14 29 14
46 0 17 6 33 14 36 7 3 16 25 19 49 3 23 9 53 13 66 7 25 -4 28 -30 9z M4829
1040 c-50 -137 -79 -268 -79 -353 0 -29 -4 -57 -10 -63 -6 -6 -6 -21 -1 -41 6
-19 5 -35 -1 -41 -11 -11 -12 -46 -5 -177 5 -101 4 -108 -39 -243 -19 -58 -18
-62 11 -62 19 0 25 5 25 23 0 12 7 41 15 64 40 115 53 187 54 306 2 159 10
243 26 274 8 15 11 40 8 60 -3 19 0 51 6 71 7 22 11 77 9 132 l-3 95 -16 -45z
M2135 498 c-13 -33 -12 -255 1 -299 16 -54 59 -93 71 -63 3 9 -3 30 -13 48
-16 27 -19 51 -19 176 0 130 -2 145 -18 148 -9 2 -19 -2 -22 -10z M4559 490
c-10 -6 -21 -36 -29 -77 -19 -104 -68 -292 -85 -325 -14 -29 -14 -29 13 -26
32 4 47 40 82 203 12 55 29 125 38 155 9 30 16 59 17 64 0 14 -18 17 -36 6z
M4150 359 c-9 -16 -9 -28 -1 -45 19 -42 54 -23 49 27 -4 41 -31 51 -48 18z
M4170 270 c0 -5 5 -10 10 -10 6 0 10 5 10 10 0 6 -4 10 -10 10 -5 0 -10 -4
-10 -10z"/>
</g>
</svg>
