<?xml version="1.0" standalone="no"?>
<!DOCTYPE svg PUBLIC "-//W3C//DTD SVG 20010904//EN"
 "http://www.w3.org/TR/2001/REC-SVG-20010904/DTD/svg10.dtd">
<svg version="1.0" xmlns="http://www.w3.org/2000/svg"
 width="500.000000pt" height="878.000000pt" viewBox="0 0 500.000000 878.000000"
 preserveAspectRatio="xMidYMid meet">
<metadata>
Created by potrace 1.16, written by Peter Selinger 2001-2019
</metadata>
<g transform="translate(0.000000,878.000000) scale(0.100000,-0.100000)"
fill="#000000" stroke="none">
<path d="M2660 8651 c0 -7 -76 -11 -232 -12 -395 -2 -382 -2 -386 -21 -3 -16
5 -18 67 -18 48 0 71 -4 71 -12 0 -6 6 -19 14 -27 7 -9 24 -36 37 -61 13 -25
29 -52 35 -60 7 -8 16 -27 19 -42 l7 -28 -85 0 c-87 0 -109 -9 -87 -35 10 -12
30 -14 94 -10 44 3 188 5 319 6 196 1 240 4 244 16 8 20 1 24 -58 28 l-54 3
-7 44 c-3 24 -7 73 -7 109 l-1 66 38 7 c20 3 54 6 75 6 26 0 37 4 37 15 0 8
-8 15 -17 16 -57 2 -90 6 -105 13 -11 5 -18 4 -18 -3z m-267 -78 c-3 -16 -18
-52 -33 -81 l-26 -53 -20 38 c-10 20 -29 53 -41 71 -13 19 -23 39 -23 43 0 5
34 9 75 9 l75 0 -7 -27z m194 -61 c18 -127 16 -132 -67 -132 -37 0 -82 -3 -99
-6 -40 -8 -41 6 -2 89 16 34 36 79 44 100 15 36 18 37 64 37 l49 0 11 -88z
M3292 8580 c-12 -16 -22 -44 -22 -63 l0 -34 -55 5 c-45 4 -56 2 -61 -13 -19
-49 84 -136 122 -104 15 12 17 12 12 -1 -3 -9 -20 -16 -45 -18 -23 -2 -47 -11
-55 -20 -23 -26 -38 -146 -38 -297 l0 -137 -31 26 c-39 33 -67 34 -75 2 -3
-14 -13 -27 -21 -30 -19 -8 -9 -57 15 -71 14 -8 12 -10 -13 -15 -25 -4 -32
-12 -39 -43 -8 -32 -7 -40 14 -61 l23 -25 -29 -7 c-16 -4 -34 -11 -41 -16 -8
-7 -21 -3 -40 12 -18 14 -35 19 -50 15 -13 -3 -32 -1 -42 5 -29 15 -61 -29
-54 -74 4 -28 2 -35 -16 -41 -46 -14 -77 -94 -48 -124 10 -11 9 -14 -1 -18
-32 -12 -82 -67 -92 -101 -16 -58 -12 -88 12 -104 20 -14 21 -18 10 -42 -19
-41 -14 -74 13 -102 16 -16 25 -36 25 -58 0 -36 28 -72 67 -87 18 -7 23 -14
18 -28 -7 -22 11 -67 39 -98 20 -23 60 -31 70 -14 3 5 23 -9 45 -30 37 -38 85
-52 93 -29 6 19 48 -2 55 -28 3 -14 1 -78 -4 -142 -6 -63 -12 -218 -13 -345
-1 -126 -5 -270 -10 -320 -5 -49 -12 -182 -15 -295 -6 -239 -13 -340 -25 -395
-5 -22 -11 -62 -14 -90 -6 -67 -18 -185 -21 -210 -1 -11 -3 -65 -4 -119 -1
-96 -7 -120 -15 -60 -3 24 -39 204 -88 434 -8 40 -40 210 -53 281 -5 32 11 55
46 63 18 4 29 1 32 -8 12 -31 117 -27 117 4 0 6 -14 25 -32 42 -31 30 -33 39
-37 125 -1 20 -31 43 -56 43 -30 0 -65 -48 -65 -89 0 -17 4 -31 8 -31 5 0 9
-13 9 -30 0 -16 -4 -30 -8 -30 -4 0 -15 -3 -24 -6 -11 -5 -16 -2 -14 7 4 22
-12 150 -23 179 -11 29 -27 107 -34 165 -2 22 -9 51 -14 65 -8 23 -16 53 -49
200 -24 106 -44 179 -64 235 -11 33 -24 85 -28 115 -16 112 -34 172 -60 191
-13 11 -29 23 -34 27 -6 5 -16 7 -23 4 -18 -6 -15 5 8 28 24 24 25 34 4 54
-20 21 -30 20 -54 -4 -24 -24 -30 -25 -30 -6 0 8 -12 19 -27 24 l-28 10 32 1
c22 1 39 10 57 32 29 34 32 49 14 67 -15 15 -74 16 -83 2 -4 -6 -27 12 -52 40
-43 48 -66 60 -77 42 -8 -14 5 -52 18 -52 20 0 56 -44 56 -68 0 -47 -29 -33
-47 23 -12 37 -25 36 -37 -4 -8 -26 -5 -35 14 -56 13 -14 38 -28 57 -31 36 -7
35 -24 -1 -24 -13 0 -29 -7 -36 -15 -11 -13 -9 -20 10 -40 29 -31 37 -31 67
-3 13 12 23 17 23 11 0 -6 3 -18 6 -26 3 -10 -12 -24 -49 -45 -45 -26 -56 -37
-61 -65 -8 -44 21 -97 67 -125 26 -15 35 -30 50 -83 17 -62 66 -268 71 -299 2
-13 14 -59 32 -121 3 -12 -2 -15 -25 -11 -25 3 -31 -1 -46 -31 -20 -42 -33
-40 -60 11 -28 52 -48 48 -57 -10 -7 -39 -5 -55 12 -88 21 -40 28 -44 88 -40
40 2 45 -25 5 -33 -66 -14 -76 -65 -25 -127 24 -28 30 -30 55 -21 18 7 27 18
27 33 0 34 13 49 30 38 8 -6 25 -10 37 -10 15 0 24 -7 28 -22 2 -13 16 -72 29
-133 13 -60 44 -180 69 -265 48 -167 64 -235 97 -405 27 -139 42 -231 67 -410
3 -22 10 -45 15 -52 13 -16 -26 -58 -46 -50 -26 10 -120 -12 -185 -44 -34 -16
-66 -27 -70 -24 -5 2 -16 28 -26 57 -27 85 -176 379 -211 419 -8 8 -14 21 -14
27 0 6 -11 23 -24 39 -13 15 -33 46 -44 69 -11 22 -28 47 -38 55 -9 7 -28 32
-42 54 -14 22 -34 46 -44 53 -10 8 -31 32 -45 55 -37 59 -122 155 -143 162
-15 5 -16 12 -9 52 5 25 11 48 14 51 12 12 -27 61 -55 67 -16 4 -30 10 -30 15
0 17 24 23 86 21 57 -2 64 0 79 22 9 15 14 34 10 49 -9 37 13 121 38 140 l21
16 -28 79 c-20 56 -29 102 -31 165 -4 83 -3 87 21 103 14 9 38 19 52 21 15 3
37 12 50 20 40 26 55 102 17 88 -9 -4 -17 1 -22 12 -12 33 -55 84 -71 84 -8 0
-24 8 -34 17 -24 22 -89 8 -102 -22 -7 -16 -19 -21 -50 -21 -206 -2 -313 -12
-355 -33 -25 -11 -58 -21 -74 -21 -68 0 -227 -108 -227 -153 0 -12 -9 -27 -19
-32 -11 -6 -49 -25 -85 -43 -44 -22 -71 -43 -81 -62 -9 -17 -15 -32 -15 -35 0
-3 -3 -4 -7 -2 -5 1 -7 11 -6 22 0 11 4 52 7 90 3 39 8 113 12 165 3 52 7 120
10 150 2 30 6 132 8 225 3 94 8 187 11 208 10 58 14 78 24 132 5 28 5 57 1 65
-6 10 0 19 20 32 41 24 49 75 21 129 l-21 40 21 17 c16 14 19 24 13 46 -3 15
-13 30 -21 33 -21 8 -62 -14 -72 -39 -6 -16 -9 -18 -13 -6 -6 14 25 98 35 98
3 0 18 -7 33 -15 16 -8 44 -15 62 -15 27 0 32 4 32 23 0 45 -27 67 -80 67
l-49 0 -18 58 c-10 31 -21 59 -25 60 -5 2 -8 10 -8 18 0 11 -8 14 -28 12 -25
-3 -27 -7 -30 -52 -4 -64 2 -88 34 -125 30 -36 24 -40 -18 -9 -37 26 -81 16
-86 -21 -5 -30 25 -62 52 -56 51 12 56 -29 7 -58 -16 -9 -42 -32 -58 -50 l-30
-34 -6 -199 c-4 -109 -9 -246 -12 -304 -2 -58 -7 -163 -10 -235 -3 -71 -10
-188 -15 -260 -5 -71 -12 -173 -14 -225 -3 -52 -9 -151 -15 -220 -6 -69 -13
-163 -15 -210 -3 -47 -7 -103 -10 -125 -2 -22 -7 -89 -12 -150 -8 -130 -9
-139 -17 -185 -3 -19 -9 -75 -12 -125 -3 -49 -11 -124 -17 -165 -12 -83 -14
-104 -16 -172 -2 -37 -6 -48 -18 -48 -19 0 -70 -27 -103 -55 -13 -11 -21 -14
-17 -7 4 6 9 166 11 355 6 507 16 961 22 970 3 5 6 248 7 541 3 478 5 536 19
557 19 26 23 69 7 69 -16 0 -11 18 11 39 12 11 18 24 15 30 -4 5 -2 12 4 16
37 23 -31 225 -76 225 -7 0 -22 20 -34 45 -12 25 -28 45 -36 45 -26 0 -14 19
24 39 21 11 44 31 51 45 12 22 12 28 -3 51 -20 31 -45 32 -80 4 -31 -24 -29
-25 -49 21 -10 27 -23 39 -49 47 -59 18 -68 5 -61 -82 6 -74 6 -75 -19 -75
-48 0 -65 -51 -29 -84 25 -23 57 -17 53 9 -3 20 -3 20 17 0 19 -19 20 -22 5
-65 -12 -34 -14 -67 -10 -130 16 -238 20 -352 19 -647 0 -178 4 -323 8 -323
10 0 12 -73 3 -83 -3 -3 -7 -228 -9 -499 -2 -271 -6 -518 -8 -548 -7 -74 -22
-431 -19 -450 1 -8 -1 -31 -4 -51 -5 -32 -8 -35 -30 -31 -13 2 -21 8 -18 14 9
14 -16 38 -40 38 -12 0 -27 9 -34 20 -10 17 -16 18 -39 9 -50 -19 -63 -38 -63
-93 l0 -51 20 40 c25 53 46 78 59 71 7 -5 7 -15 1 -32 -13 -33 -13 -34 9 -34
10 0 26 10 34 23 9 12 16 17 16 10 1 -6 -4 -15 -9 -18 -6 -3 -10 -15 -10 -27
0 -21 15 -21 66 -1 11 4 5 -6 -14 -25 -18 -18 -41 -32 -51 -32 -10 0 -30 -10
-45 -21 l-27 -21 -25 23 -24 22 0 -51 c0 -46 3 -52 20 -52 35 0 98 -48 98 -75
-1 -27 -17 -24 -39 6 -7 12 -19 27 -24 35 -9 13 -14 12 -33 -6 -31 -29 -29
-76 5 -112 15 -15 21 -28 15 -28 -7 0 -12 4 -12 8 0 5 -7 9 -15 9 -21 0 -20
-53 1 -61 16 -6 16 -8 0 -24 -18 -21 -22 -72 -5 -72 5 0 9 8 8 18 -3 24 11 52
26 52 8 0 18 -19 23 -45 11 -50 9 -205 -2 -224 -4 -6 -20 -11 -37 -11 -29 0
-29 0 -28 -57 1 -32 3 -50 6 -40 2 9 9 17 14 17 14 0 11 -26 -4 -39 -9 -6 -14
-37 -15 -82 l-2 -71 46 61 c37 50 49 59 60 50 17 -14 18 -33 2 -51 -32 -34
-78 -98 -78 -107 0 -24 22 -8 61 42 l42 54 38 -42 c22 -23 39 -47 39 -54 0
-20 -26 -11 -40 14 -16 30 -31 32 -54 6 -14 -16 -15 -23 -6 -41 8 -15 9 -25 2
-32 -6 -6 -8 -17 -5 -24 3 -8 -3 -16 -13 -20 -69 -22 -94 -40 -94 -66 0 -16 3
-28 6 -28 3 0 26 12 52 27 44 26 54 28 167 28 115 0 123 -1 189 -33 38 -18 83
-42 99 -54 17 -12 60 -32 96 -44 71 -24 85 -39 49 -53 -33 -12 -126 -98 -143
-132 -21 -40 -19 -54 11 -67 32 -15 27 -22 -48 -74 -34 -22 -93 -71 -131 -107
-38 -36 -85 -77 -105 -91 -97 -66 -154 -138 -132 -165 9 -11 4 -21 -21 -47
-77 -79 -89 -105 -89 -186 l0 -74 30 6 31 6 -26 -34 c-15 -19 -28 -53 -31 -82
l-7 -49 34 39 c121 137 201 209 268 242 78 38 123 67 166 107 16 15 33 27 36
27 15 0 169 97 219 138 65 54 154 142 230 231 144 166 225 297 280 456 15 44
38 105 50 135 23 56 37 101 65 202 8 32 24 77 34 102 11 24 25 79 31 122 7 44
18 99 25 124 40 136 46 178 39 277 -7 97 -8 166 -2 212 2 13 -2 26 -7 28 -22
7 -54 -38 -66 -92 -11 -49 -10 -69 5 -145 10 -49 16 -101 13 -117 -15 -71 -71
-287 -96 -368 -16 -49 -34 -110 -40 -135 -12 -45 -32 -105 -77 -230 -13 -36
-39 -109 -58 -164 -35 -98 -113 -240 -170 -307 -17 -20 -58 -71 -91 -114 -74
-95 -206 -207 -325 -275 -49 -28 -104 -65 -122 -82 -49 -46 -99 -75 -162 -93
-39 -12 -62 -25 -76 -46 -15 -20 -30 -29 -48 -29 -15 0 -40 -7 -56 -15 -38
-20 -46 -12 -46 44 0 45 4 52 65 117 66 71 73 82 54 101 -12 12 30 67 70 88
14 8 45 32 69 55 24 22 46 40 49 40 3 0 30 21 58 48 68 60 76 67 111 85 43 23
78 64 79 95 0 19 8 30 26 39 15 7 46 36 70 64 24 28 51 59 59 68 22 23 90 126
90 136 0 12 51 77 57 72 2 -3 -5 -22 -16 -43 -25 -46 -26 -60 -5 -68 26 -10
34 -7 59 20 14 15 25 23 25 19 0 -5 -30 -41 -67 -80 -198 -210 -199 -211 -184
-229 9 -10 3 -19 -24 -37 -50 -34 -89 -92 -83 -124 4 -21 0 -29 -22 -40 -14
-7 -33 -21 -41 -31 -7 -9 -32 -24 -54 -34 -43 -19 -76 -63 -59 -80 7 -7 19 -4
36 10 15 11 30 20 35 20 6 0 24 15 41 34 17 19 40 37 51 41 12 3 21 10 21 15
0 5 9 10 21 12 30 4 57 53 42 76 -15 24 -8 32 50 62 38 20 49 32 57 61 8 27
25 48 64 77 70 53 213 230 265 327 11 22 32 58 46 80 61 98 123 276 150 430 7
39 15 81 19 95 17 65 23 233 10 276 -11 38 -10 51 7 113 17 61 18 76 7 113 -7
24 -11 51 -10 61 1 11 -11 35 -26 55 -39 51 -42 61 -28 123 13 57 14 58 59 45
31 -9 35 -31 10 -58 -15 -17 -15 -19 2 -38 18 -20 18 -20 46 6 23 22 28 34 27
75 -2 58 -15 73 -63 67 -24 -3 -35 0 -35 9 0 29 -32 25 -65 -7 -44 -43 -59
-21 -16 24 26 27 33 44 38 90 5 46 11 61 34 81 16 13 29 28 29 34 0 6 19 16
43 23 61 17 90 37 77 53 -9 11 -20 10 -61 0 -38 -10 -67 -28 -114 -72 -34 -32
-63 -66 -64 -75 0 -9 -6 -20 -12 -23 -18 -12 1 67 26 105 12 19 25 46 29 60 4
17 28 40 81 73 75 47 96 80 60 93 -38 15 -186 -92 -216 -156 -12 -25 -27 -52
-34 -60 -7 -8 -15 -26 -18 -40 -3 -14 -3 15 -1 64 3 75 8 96 32 140 16 28 38
53 48 55 11 2 31 13 45 26 15 12 54 27 86 34 40 7 68 20 82 35 25 26 20 52 -8
41 -9 -4 -33 -9 -54 -11 -20 -2 -50 -10 -66 -18 -28 -15 -29 -15 -35 16 -3 18
-14 41 -23 52 -10 12 -11 15 -3 9 20 -18 30 -16 30 6 0 27 12 33 83 36 34 2
56 1 50 -2 -7 -2 -13 -10 -13 -17 0 -14 143 -31 161 -20 5 3 9 0 9 -5 0 -6 -9
-11 -19 -11 -11 0 -22 -4 -25 -8 -8 -14 11 -35 27 -29 9 3 21 -1 27 -9 10 -11
8 -14 -13 -14 -29 0 -44 -17 -29 -32 16 -16 66 5 70 30 2 11 10 26 19 34 15
12 16 10 9 -15 -6 -24 -2 -30 46 -61 61 -39 218 -196 218 -218 0 -19 42 -58
63 -58 9 0 17 -4 17 -8 0 -4 19 -35 43 -67 37 -51 71 -128 82 -186 2 -8 17
-35 33 -60 46 -67 82 -140 82 -163 0 -12 22 -66 49 -121 l49 -100 -31 -31
c-20 -20 -47 -34 -72 -38 -22 -3 -50 -9 -62 -12 -18 -5 -23 -2 -23 14 0 21
-18 41 -35 39 -5 0 -20 16 -31 37 -23 40 -70 85 -91 86 -7 0 -11 12 -10 28 2
22 -2 28 -24 30 -14 2 -31 -4 -39 -12 -7 -9 -17 -16 -22 -16 -5 0 -26 -12 -45
-27 -36 -28 -83 -114 -83 -153 0 -10 -4 -21 -9 -24 -5 -3 -12 -22 -15 -41 -5
-25 -30 -60 -91 -125 -46 -49 -86 -100 -90 -112 -4 -13 -14 -38 -22 -57 -12
-27 -13 -39 -4 -53 15 -25 14 -78 -4 -112 -19 -37 -19 -52 1 -60 21 -8 42 9
59 48 18 43 18 16 -1 -52 -25 -94 -46 -145 -78 -194 -29 -43 -78 -121 -133
-213 -57 -93 -126 -216 -173 -307 -55 -107 -97 -154 -317 -351 -91 -82 -129
-123 -152 -167 -17 -32 -31 -65 -31 -74 0 -9 -5 -16 -12 -16 -6 0 -25 -11 -43
-24 -35 -27 -99 -56 -124 -56 -14 0 -37 -11 -143 -67 -52 -27 -137 -121 -148
-164 -18 -67 4 -90 48 -49 16 16 20 28 16 46 -5 21 1 33 32 65 36 37 143 99
170 99 29 0 125 52 186 101 56 44 71 62 84 103 11 32 31 63 58 87 325 300 330
305 411 444 62 106 56 96 125 212 33 56 60 104 60 107 0 2 26 44 58 93 102
155 121 185 142 228 22 46 54 154 65 223 8 48 19 52 47 17 11 -14 28 -25 39
-25 11 0 34 -7 51 -16 21 -11 46 -15 75 -11 46 5 65 -6 37 -21 -22 -12 -43
-133 -49 -282 -2 -63 -9 -131 -15 -150 -5 -19 -10 -48 -10 -65 -1 -16 -8 -48
-16 -70 -9 -22 -21 -67 -29 -100 -7 -33 -20 -87 -30 -120 -9 -33 -26 -94 -37
-135 -28 -100 -94 -250 -110 -250 -4 0 -11 6 -15 14 -4 7 -18 19 -31 25 -16 9
-20 16 -14 24 11 14 104 244 122 302 7 22 16 45 20 50 13 16 50 136 50 161 0
13 -5 26 -11 30 -20 12 -47 -31 -74 -120 -15 -49 -35 -105 -46 -125 -10 -20
-19 -43 -19 -53 0 -9 -9 -38 -21 -65 -12 -26 -28 -70 -36 -96 -8 -26 -27 -70
-43 -97 -18 -30 -25 -50 -17 -50 6 0 1 -6 -12 -13 -13 -6 -34 -32 -47 -56 -16
-30 -38 -53 -71 -71 -61 -36 -126 -100 -171 -170 -50 -77 -194 -247 -253 -297
-85 -72 -126 -91 -312 -143 -71 -20 -83 -21 -150 -9 -39 7 -73 13 -75 15 -2 1
6 19 17 40 12 21 21 42 21 47 0 5 6 15 14 22 7 8 17 31 21 51 7 42 52 112 90
142 14 11 42 23 62 27 55 10 104 38 166 95 60 55 96 109 117 180 8 25 31 67
52 94 40 51 46 66 26 66 -29 0 -87 -81 -115 -160 -37 -108 -88 -161 -180 -190
-36 -11 -72 -20 -79 -20 -27 0 -76 -44 -123 -110 -39 -55 -51 -65 -75 -65 -23
0 -37 -9 -63 -43 -18 -24 -37 -51 -42 -60 -8 -14 -12 -15 -22 -4 -7 6 -18 12
-24 12 -16 0 -78 -61 -119 -118 -21 -29 -51 -59 -67 -67 -16 -9 -31 -26 -35
-39 -4 -18 -11 -22 -30 -18 -20 4 -24 0 -24 -22 0 -27 6 -30 50 -26 20 1 23
-1 13 -11 -37 -37 2 -117 50 -105 21 5 24 3 19 -19 -11 -60 45 -72 104 -21 21
18 50 37 64 41 44 14 100 76 107 118 3 21 12 44 19 52 8 7 14 21 14 30 0 13 5
15 17 10 36 -15 70 -16 114 -4 24 7 49 12 56 10 6 -1 14 3 18 9 3 5 15 10 26
10 10 0 19 4 19 9 0 5 12 9 28 9 15 -1 48 9 74 21 26 11 51 21 57 21 5 0 14 6
18 13 4 7 33 29 63 50 103 69 135 93 170 128 19 20 42 40 50 45 19 11 139 159
148 183 11 27 143 146 179 160 18 8 45 26 60 41 16 16 48 33 72 40 24 6 55 23
69 37 15 15 28 21 30 15 4 -14 122 -101 187 -138 28 -15 73 -46 100 -69 78
-62 295 -283 295 -298 0 -8 -7 -20 -16 -28 -16 -13 -15 -23 2 -106 5 -29 3
-34 -35 -57 -43 -28 -54 -61 -29 -88 9 -8 13 -44 12 -103 0 -49 3 -100 7 -112
5 -13 9 -38 11 -57 3 -49 29 -80 58 -71 20 6 22 12 16 49 -4 29 -3 35 4 20 5
-12 8 -52 8 -90 0 -72 17 -100 55 -90 10 2 17 -2 17 -11 0 -11 7 -14 25 -11
22 5 26 1 35 -36 6 -23 18 -57 26 -76 26 -55 54 -141 54 -163 0 -10 6 -33 14
-50 14 -32 60 -179 90 -288 15 -54 36 -77 58 -63 18 11 -11 201 -36 243 -4 6
-2 11 3 11 6 0 11 -4 11 -10 0 -5 6 -10 14 -10 20 0 48 -30 42 -46 -6 -16 19
-38 34 -29 7 4 10 15 7 24 -2 9 3 23 10 30 17 15 15 24 -22 132 -20 59 -31 79
-51 88 -21 9 -25 16 -20 37 4 14 3 31 -2 37 -5 7 -12 28 -16 48 -3 20 -18 58
-32 85 -14 27 -29 61 -34 76 -7 24 -6 29 15 34 16 4 21 11 18 24 -4 15 1 18
32 18 20 0 42 5 48 11 6 6 25 11 42 11 30 0 31 -1 49 -87 11 -49 29 -116 42
-150 12 -34 25 -74 27 -90 3 -15 10 -48 15 -73 6 -25 18 -81 26 -126 8 -44 20
-93 26 -108 13 -35 15 -27 -20 -71 -17 -21 -30 -42 -30 -48 0 -10 42 -5 73 8
14 6 17 2 17 -23 0 -35 18 -46 41 -25 17 14 16 18 45 -97 26 -106 26 -112 -7
-92 -28 18 -55 7 -110 -42 -83 -74 -154 -76 -182 -5 -10 25 -12 50 -7 78 6 32
3 50 -12 81 -22 44 -37 49 -62 22 -15 -17 -15 -22 -1 -48 11 -21 14 -44 9 -79
-5 -42 -2 -53 14 -68 13 -12 18 -26 14 -42 l-4 -25 102 0 c90 0 108 3 149 25
25 13 65 31 89 39 37 12 42 12 42 -1 0 -8 9 -17 20 -20 11 -3 20 -12 20 -20 0
-10 6 -12 23 -7 38 12 98 54 92 65 -4 5 -1 16 5 24 10 12 10 18 0 30 -7 8 -10
20 -7 27 5 13 110 68 194 103 42 18 93 65 93 87 0 6 7 19 16 29 9 10 14 26 10
35 -5 14 -18 15 -89 10 -45 -3 -126 -3 -180 1 -97 6 -99 7 -94 29 5 26 -16 50
-33 39 -5 -3 -10 -1 -10 4 0 6 4 11 8 11 15 0 31 47 25 71 -12 51 -62 76 -90
48 -9 -9 -15 0 -23 32 -7 24 -18 55 -25 69 -21 39 -71 187 -89 265 -11 48 -14
89 -10 131 4 41 3 64 -5 68 -6 4 -11 16 -11 27 0 10 -4 27 -9 37 -11 21 -28
106 -37 185 -4 33 -14 66 -23 74 -9 9 -21 35 -27 57 -8 31 -15 40 -28 38 -12
-2 -17 2 -14 15 4 21 33 25 33 5 0 -21 36 -44 51 -31 6 5 16 9 20 8 22 -4 34
3 56 34 19 26 23 47 25 117 2 47 3 92 4 100 0 8 -1 67 -2 130 -2 123 5 170 24
151 6 -6 22 -11 36 -11 38 0 114 25 119 38 2 7 12 12 23 12 15 0 19 -7 19 -36
0 -71 62 -124 170 -145 36 -7 73 -19 82 -27 22 -18 48 -9 48 17 0 20 32 37 50
26 5 -3 10 -24 10 -46 0 -31 7 -47 29 -69 38 -39 128 -64 195 -55 28 3 65 8
81 9 22 2 31 9 33 25 2 14 10 21 20 19 9 -2 16 3 15 9 -2 7 2 13 7 13 6 0 10
-9 10 -21 0 -11 5 -29 10 -40 22 -40 160 -73 205 -49 24 13 41 58 36 95 -3 23
7 15 23 -17 27 -53 152 -86 243 -64 29 8 33 5 49 -25 9 -19 26 -41 38 -48 12
-8 48 -41 81 -72 33 -31 70 -59 81 -63 12 -4 24 -15 27 -25 3 -11 23 -25 52
-35 76 -25 85 -23 85 24 0 39 -1 40 -41 46 -58 10 -68 24 -66 94 1 33 0 60 -3
60 -3 0 -6 55 -6 123 -2 187 -8 347 -14 347 -3 0 -6 15 -6 33 0 17 -3 66 -7
107 -26 271 -28 415 -8 453 9 18 12 42 8 77 l-6 50 32 0 c21 0 40 -9 56 -25
13 -14 32 -25 42 -25 18 0 19 9 19 132 0 130 0 131 -20 113 -21 -19 -28 -83
-11 -100 9 -10 20 -95 13 -95 -2 0 -12 10 -21 22 -16 19 -32 24 -80 27 -8 1
-11 7 -6 19 4 9 13 37 21 62 31 104 62 182 82 203 12 13 22 33 22 46 0 19 -5
22 -32 19 -26 -2 -34 -8 -36 -27 -2 -13 -14 -40 -27 -60 -26 -40 -80 -194 -90
-258 -6 -41 -7 -41 -33 -28 -97 49 -312 66 -382 32 -18 -10 -36 -17 -39 -17
-7 0 -8 26 -9 265 0 83 -1 159 -1 170 -1 11 1 75 5 142 l6 121 54 22 c47 19
71 22 204 21 83 0 155 -3 161 -6 5 -4 18 -8 29 -10 41 -8 107 -43 143 -77 32
-31 37 -41 35 -77 -1 -22 2 -44 5 -48 4 -3 7 24 7 62 0 60 -3 70 -26 92 -34
31 -105 67 -176 87 -86 25 -305 22 -378 -5 -69 -25 -82 -27 -87 -13 -13 38
153 77 332 78 85 1 111 -3 175 -27 43 -15 92 -42 114 -62 22 -19 41 -35 43
-35 2 0 3 18 3 40 0 30 -5 42 -17 46 -10 4 -50 22 -90 41 -99 47 -236 63 -395
48 -70 -7 -96 7 -38 20 39 8 68 50 53 74 -6 9 -18 15 -27 15 -21 -2 -22 48 -2
105 8 22 14 59 13 82 -1 30 4 46 18 58 31 25 93 115 88 128 -2 6 0 14 6 17 7
4 9 -16 8 -56 -2 -51 4 -77 30 -138 27 -66 30 -81 23 -120 -5 -25 -9 -48 -10
-51 0 -3 11 -18 24 -32 21 -23 28 -25 57 -17 21 6 37 6 45 -1 8 -7 13 -6 16 2
3 9 12 7 31 -5 25 -17 29 -17 73 0 40 15 49 24 70 72 13 30 24 71 24 91 l-1
36 -22 -30 -22 -29 -5 29 c-3 20 -15 34 -33 43 -15 7 -34 26 -42 42 -8 16 -34
37 -60 50 -25 12 -45 26 -45 32 0 6 -12 8 -31 4 -27 -5 -30 -4 -19 9 12 15 12
24 -5 170 -3 22 -9 87 -14 145 -5 58 -12 116 -15 130 -10 40 -16 82 -20 135
-3 28 -9 62 -14 75 -5 14 -10 52 -11 85 -1 33 -9 116 -17 185 -28 219 -35 363
-20 402 7 18 23 33 48 43 47 19 48 19 48 0 0 -11 -7 -14 -25 -9 -30 7 -32 -6
-6 -30 22 -20 56 -15 65 9 7 19 -10 65 -24 65 -6 0 -10 29 -10 69 0 39 -4 72
-9 75 -15 10 -73 -74 -78 -115 -8 -59 -20 -38 -21 38 -1 37 -4 84 -7 103 -3
19 -8 69 -10 110 -2 41 -7 102 -10 136 -5 48 -3 63 9 73 22 19 20 57 -7 126
-18 46 -30 64 -54 75 l-31 15 23 17 c18 13 23 27 22 52 -1 19 -4 34 -7 34 -25
-2 -50 3 -50 10 0 4 15 6 34 4 44 -5 63 21 58 78 -5 51 -21 58 -67 31 -33 -19
-36 -19 -42 -4 -4 9 -1 19 5 21 18 6 14 51 -10 104 -23 52 -33 57 -55 31 -31
-40 -34 -64 -13 -100 11 -19 20 -46 20 -61 0 -26 -2 -27 -43 -24 -49 4 -77
-15 -77 -50 0 -38 25 -55 75 -51 42 4 45 3 47 -21 0 -14 1 -31 2 -38 1 -6 -14
-16 -32 -22 -19 -7 -45 -23 -59 -36 -20 -19 -23 -30 -18 -54 3 -17 8 -48 10
-68 2 -20 9 -47 16 -60 8 -13 15 -75 17 -147 4 -102 2 -123 -9 -119 -8 3 -25
-4 -38 -16 -13 -11 -21 -16 -18 -10 9 16 -10 78 -34 108 -16 21 -24 24 -34 16
-8 -6 -13 -19 -13 -28 0 -9 -3 -31 -7 -48 -6 -27 -2 -34 25 -58 18 -15 31 -28
29 -29 -2 -2 -17 -8 -32 -15 -34 -15 -41 -32 -33 -78 9 -47 43 -63 80 -39 26
17 27 17 49 -7 13 -14 29 -27 37 -30 9 -3 15 -46 22 -158 5 -85 13 -159 17
-165 11 -13 19 -102 26 -275 3 -74 8 -166 10 -205 3 -38 7 -144 10 -235 3 -91
8 -197 11 -236 l6 -71 -58 -7 c-56 -7 -124 -25 -243 -67 -30 -11 -55 -18 -56
-17 -8 9 -38 141 -41 183 -3 28 -9 64 -14 80 -10 34 -18 85 -25 165 -7 78 -18
151 -30 208 -7 28 -5 32 13 32 12 0 34 -16 53 -40 21 -26 40 -40 56 -40 30 0
40 25 19 49 -9 10 -16 23 -16 29 0 6 -8 16 -17 21 -14 8 -9 10 22 5 33 -5 44
-2 62 18 12 12 23 32 25 43 3 19 -10 24 -79 29 -18 1 -21 6 -16 28 10 52 -37
77 -71 39 -14 -16 -16 -30 -11 -75 6 -47 5 -56 -8 -56 -8 0 -24 -3 -34 -7 -10
-3 -15 -3 -11 1 3 4 -3 38 -14 74 -10 37 -21 88 -23 114 -2 25 -6 56 -10 68
-8 25 -10 40 -19 155 -10 121 -16 165 -25 165 -5 0 -5 15 -2 33 4 17 3 52 -1
77 -5 25 -11 65 -13 90 -3 25 -13 77 -22 117 -13 59 -15 86 -6 150 13 96 4
121 -52 142 -22 8 -44 20 -50 27 -5 6 -17 14 -25 17 -8 3 1 6 21 6 61 2 117
62 89 96 -8 9 -30 15 -56 15 -35 0 -44 3 -44 18 0 9 -12 34 -26 55 -32 48 -68
49 -72 2 -9 -110 -11 -115 -45 -112 -30 2 -32 0 -30 -32 2 -49 30 -73 70 -62
17 5 34 7 37 3 12 -11 5 -22 -14 -22 -54 0 -104 -74 -81 -118 6 -11 15 -57 21
-103 5 -46 17 -127 25 -179 9 -52 22 -138 30 -190 9 -52 18 -104 20 -115 4
-13 0 -10 -10 8 -18 30 -65 39 -65 11 0 -13 -4 -13 -27 3 -47 31 -103 57 -109
50 -7 -7 13 -74 32 -104 8 -13 29 -25 49 -29 19 -3 39 -12 46 -20 9 -11 6 -14
-17 -14 -40 0 -56 -13 -56 -44 0 -25 26 -66 42 -66 4 0 23 11 42 24 34 22 35
23 47 5 6 -11 23 -19 40 -19 27 0 28 -2 34 -62 7 -73 38 -284 60 -408 15 -86
29 -187 47 -340 16 -140 30 -244 36 -260 3 -8 7 -32 9 -53 3 -29 -1 -40 -18
-52 -28 -20 -37 -19 -37 4 0 10 -9 21 -20 24 -13 3 -18 10 -14 21 10 26 -5 66
-24 66 -9 0 -35 -12 -56 -26 l-38 -26 -22 27 c-21 26 -23 27 -58 12 -43 -18
-73 -58 -65 -88 4 -13 0 -22 -11 -26 -28 -11 -42 -36 -39 -73 l2 -34 -70 -19
c-38 -10 -79 -26 -90 -36 -26 -23 -55 -33 -55 -19 0 6 8 17 18 24 12 8 17 26
17 57 0 25 4 43 8 40 17 -10 35 19 32 50 -3 18 -7 58 -10 89 l-6 56 -40 7 -39
7 6 76 c3 43 7 124 9 182 2 58 6 137 9 175 3 39 7 124 10 190 9 213 16 319 21
345 3 14 8 68 11 120 3 52 7 109 10 125 3 17 7 71 9 120 7 157 15 289 21 330
3 22 7 67 9 100 1 33 8 92 15 130 6 39 14 111 16 160 8 143 8 144 19 136 28
-22 56 -18 97 15 25 19 50 31 59 29 11 -4 31 11 59 45 24 28 49 49 56 46 18
-7 62 40 69 75 5 22 12 29 30 29 44 0 55 10 55 51 0 22 -7 51 -16 64 -10 16
-14 33 -10 48 4 12 12 51 17 87 5 36 12 81 15 101 5 30 1 40 -25 66 -16 17
-44 33 -60 36 -37 8 -39 19 -9 32 39 17 33 42 -23 96 -29 28 -48 54 -42 57 5
4 30 24 56 45 l46 39 88 -8 c48 -5 104 -7 123 -5 43 4 97 35 105 61 4 11 11
20 16 20 5 0 0 -17 -11 -37 -11 -21 -20 -52 -20 -70 0 -27 5 -34 28 -39 15 -4
37 -18 50 -31 23 -25 42 -23 42 3 0 8 -6 17 -14 20 -8 3 -12 12 -9 20 3 8 -3
24 -13 35 -18 20 -17 21 29 60 52 45 59 71 27 112 -19 24 -22 25 -63 12 -24
-7 -73 -34 -111 -60 -65 -46 -69 -47 -118 -41 -28 4 -67 14 -86 22 -68 28 -95
20 -154 -46 -55 -63 -98 -83 -76 -35 9 21 8 28 -7 45 -10 11 -25 20 -33 20
-12 0 -11 5 5 23 59 66 67 123 18 145 -39 18 -105 15 -127 -5 -19 -17 -19 -16
-14 7 4 22 15 104 21 163 1 11 6 22 11 25 25 18 54 68 54 93 0 29 -52 99 -74
99 -6 0 -17 10 -25 23 -10 17 -11 19 0 10 28 -27 120 -10 133 24 10 24 -35 60
-86 68 -33 6 -37 9 -28 25 13 24 13 116 0 141 -17 30 -62 25 -88 -11z m39
-113 c-8 -8 -11 2 -11 34 0 59 14 73 18 19 2 -24 -2 -48 -7 -53z m-110 -20
c-1 -12 -15 -9 -19 4 -3 6 1 10 8 8 6 -3 11 -8 11 -12z m214 -76 c3 -5 1 -13
-5 -16 -14 -8 -40 13 -40 32 0 10 4 11 19 3 11 -5 22 -14 26 -19z m-165 -66
c7 -9 19 -14 26 -11 7 3 16 1 19 -4 4 -6 14 -10 24 -10 10 0 24 -7 31 -15 8
-9 9 -15 2 -15 -6 0 -14 5 -17 10 -9 15 -55 12 -55 -4 0 -7 14 -19 30 -26 48
-20 47 -32 0 -28 -58 4 -64 -17 -11 -33 50 -15 45 -23 -16 -24 -61 0 -68 -21
-14 -42 22 -9 38 -19 35 -24 -6 -10 -60 9 -75 27 -6 8 -19 14 -29 14 -13 0
-17 -7 -16 -30 2 -39 20 -58 40 -41 20 17 41 4 25 -15 -9 -11 -8 -19 6 -34 18
-19 17 -20 -3 -20 -29 0 -28 -14 3 -34 18 -12 24 -23 20 -35 -3 -10 1 -24 10
-31 10 -9 12 -17 5 -30 -5 -9 -6 -21 -2 -25 4 -4 -18 -4 -48 0 -30 5 -59 8
-65 8 -13 0 -10 325 4 395 18 88 41 113 71 77z m47 -271 c-3 -3 -12 -4 -19 -1
-8 3 -5 6 6 6 11 1 17 -2 13 -5z m-227 -133 c0 -5 -7 -12 -16 -15 -14 -5 -15
-4 -4 9 14 17 20 19 20 6z m408 -3 c16 -16 15 -39 -4 -63 -13 -18 -14 -17 -8
13 6 28 4 32 -14 32 -11 0 -34 -14 -51 -30 l-30 -30 17 40 c15 35 26 43 68 49
5 0 15 -4 22 -11z m-441 -35 c-4 -3 -1 -13 6 -22 11 -14 10 -14 -5 -2 -16 12
-16 31 -1 31 4 0 3 -3 0 -7z m403 -63 c-20 -13 -33 -13 -25 0 3 6 14 10 23 10
15 0 15 -2 2 -10z m-215 -10 c4 -6 -5 -10 -20 -10 -15 0 -24 4 -20 10 3 6 12
10 20 10 8 0 17 -4 20 -10z m-187 -32 c18 -18 14 -38 -8 -38 -15 0 -20 7 -20
25 0 27 9 32 28 13z m68 -25 c-4 -4 -11 -1 -16 7 -16 25 -11 35 7 17 9 -9 13
-20 9 -24z m598 26 c30 -14 25 -29 -9 -29 -13 0 -44 -16 -69 -35 l-46 -35 36
49 c19 28 40 52 47 55 7 2 13 5 14 5 1 1 13 -4 27 -10z m-340 -25 c18 -7 12
-24 -10 -24 -8 0 -14 7 -14 15 0 17 2 18 24 9z m92 -40 c-3 -9 -6 -22 -6 -30
0 -18 -10 -17 -34 1 -20 15 -20 15 0 30 26 19 48 19 40 -1z m-576 -79 c0 -19
-7 -24 -37 -28 -47 -5 -53 -2 -53 28 0 18 6 24 28 27 44 5 62 -2 62 -27z m306
-2 c-11 -11 -19 6 -11 24 8 17 8 17 12 0 3 -10 2 -21 -1 -24z m129 18 c3 -5 1
-12 -5 -16 -5 -3 -10 1 -10 9 0 18 6 21 15 7z m216 -11 c-24 -21 -41 -26 -41
-12 0 5 12 13 28 19 39 15 40 15 13 -7z m-451 -22 c0 -10 -41 -31 -47 -24 -3
3 2 17 12 32 13 21 19 24 26 13 5 -8 9 -17 9 -21z m47 10 c-3 -8 -6 -5 -6 6
-1 11 2 17 5 13 3 -3 4 -12 1 -19z m54 -74 c-17 -13 -20 -19 -10 -30 6 -8 21
-14 33 -14 21 0 21 -1 -2 -18 -14 -11 -19 -21 -13 -27 5 -6 12 -20 15 -32 6
-17 2 -22 -16 -25 -36 -5 -28 -32 10 -36 30 -3 46 -21 20 -23 -7 -1 -17 -2
-23 -4 -5 -1 -16 -3 -22 -3 -24 -3 -13 -20 23 -37 27 -13 33 -20 25 -28 -9 -9
-14 -8 -20 2 -11 17 -59 7 -67 -14 -8 -20 26 -105 42 -105 7 0 14 10 16 22 5
37 28 34 28 -4 0 -42 -8 -53 -42 -62 -16 -3 -28 -13 -28 -22 0 -10 6 -14 15
-10 17 6 45 -2 45 -14 0 -5 -15 -10 -32 -12 -36 -3 -43 -21 -12 -27 10 -2 22
-8 26 -15 4 -6 15 -11 24 -11 25 0 28 -22 4 -28 -41 -11 -93 1 -112 25 -20 26
-22 61 -8 139 5 30 12 99 15 154 3 55 9 138 13 185 7 84 7 85 37 91 39 7 44 2
16 -17z m-354 -6 c-3 -8 -6 -5 -6 6 -1 11 2 17 5 13 3 -3 4 -12 1 -19z m773
-3 c28 -29 23 -31 -24 -8 -19 9 -33 20 -30 25 9 15 30 8 54 -17z m-840 -9 c0
-8 -8 -22 -17 -32 -17 -17 -18 -17 -21 0 -4 18 14 46 29 46 5 0 9 -6 9 -14z
m331 -18 c2 -20 0 -39 -11 -93 -5 -27 -14 -119 -20 -204 -6 -85 -13 -158 -16
-163 -3 -4 -16 -1 -29 8 -17 11 -36 14 -57 10 -43 -8 -62 5 -55 36 5 20 -1 33
-29 61 -27 27 -34 41 -29 54 8 19 8 36 -1 92 l-5 33 32 -23 c31 -22 32 -22 46
-3 8 10 17 30 20 44 3 14 15 35 26 47 11 13 20 35 19 53 0 16 4 30 9 30 5 0 9
-4 9 -10 0 -16 39 -32 61 -25 17 6 20 13 15 36 -3 16 -1 29 4 29 6 0 11 -6 11
-12z m477 -44 c-10 -10 -28 6 -28 24 0 15 1 15 17 -1 9 -9 14 -19 11 -23z
m-725 -17 c-16 -18 -39 -50 -52 -70 -12 -20 -25 -37 -27 -37 -13 0 11 78 29
98 21 23 68 51 76 46 2 -2 -10 -18 -26 -37z m91 27 c8 -21 9 -18 -19 -48 -14
-15 -25 -38 -25 -52 0 -13 -4 -24 -10 -24 -5 0 -10 4 -10 9 0 16 30 80 40 86
6 4 8 15 5 26 -8 23 10 26 19 3z m456 6 c0 -5 -4 -10 -10 -10 -5 0 -10 5 -10
10 0 6 5 10 10 10 6 0 10 -4 10 -10z m-3070 -36 c15 -38 12 -74 -5 -74 -10 0
-15 10 -15 28 0 15 -3 37 -6 50 -9 31 14 28 26 -4z m3069 -21 c16 4 21 -2 26
-35 5 -25 3 -44 -4 -51 -6 -6 -11 -21 -11 -34 0 -22 11 -35 55 -67 19 -14 19
-15 -14 -56 -27 -34 -32 -48 -28 -74 7 -42 -26 -81 -76 -89 -37 -6 -37 -6 -32
25 3 17 8 96 10 177 2 80 8 160 13 176 5 17 7 37 4 45 -4 11 1 10 16 -4 12
-10 30 -16 41 -13z m178 -17 c-3 -8 3 -22 14 -32 23 -20 25 -34 5 -34 -18 0
-22 6 -31 48 -4 22 -3 32 5 32 7 0 10 -6 7 -14z m118 -16 c3 -5 -1 -10 -11
-10 -12 0 -15 -7 -12 -30 6 -40 -8 -25 -15 18 -6 27 -4 32 13 32 10 0 22 -4
25 -10z m-1005 -37 c0 -30 -24 -83 -37 -83 -17 0 -16 22 1 65 16 37 36 47 36
18z m812 -10 c4 -19 -22 -73 -35 -73 -17 0 -18 31 -1 59 21 35 31 39 36 14z
m-2432 -25 c0 -6 -7 -7 -16 -4 -9 3 -18 6 -20 6 -3 0 -3 4 1 10 7 11 35 2 35
-12z m1740 -38 c0 -5 -4 -10 -10 -10 -5 0 -10 5 -10 10 0 6 5 10 10 10 6 0 10
-4 10 -10z m877 -7 c2 -6 -7 -9 -19 -8 -30 3 -30 3 -24 14 8 12 39 7 43 -6z
m-127 -45 c-1 -30 -3 -38 -9 -28 -8 14 -4 70 5 70 2 0 4 -19 4 -42z m-3145 12
c3 -10 1 -28 -4 -39 -14 -25 -1 -34 48 -35 35 -1 36 -3 39 -41 2 -22 10 -45
18 -52 22 -16 9 -53 -19 -54 -12 -1 -29 -1 -38 0 -9 1 -19 -5 -22 -14 -4 -8
-17 -15 -31 -15 -19 0 -25 6 -28 27 -2 18 -14 35 -35 48 -27 17 -32 26 -32 60
-1 54 19 91 47 88 15 -2 22 3 22 15 0 35 25 44 35 12z m3203 -162 c-13 -22
-13 -22 -16 15 -2 21 3 51 10 68 l13 30 3 -45 c2 -25 -3 -56 -10 -68z m-933
34 c-13 -13 -27 18 -20 45 l8 28 9 -34 c5 -18 7 -36 3 -39z m180 28 c3 -5 2
-11 -3 -14 -7 -4 -62 38 -62 49 0 6 59 -26 65 -35z m-1953 -5 c3 -16 11 -20
38 -20 40 1 59 -18 60 -58 0 -20 -7 -31 -26 -39 -26 -12 -55 -64 -60 -107 -2
-14 5 -31 19 -43 l22 -20 -21 5 c-12 3 -28 1 -35 -4 -11 -7 -8 -14 14 -30 33
-25 36 -52 5 -47 -33 4 -37 -29 -5 -41 32 -13 26 -56 -9 -65 -13 -4 -24 -14
-24 -22 0 -12 6 -15 25 -10 18 5 25 2 25 -8 0 -7 -12 -17 -26 -20 -27 -7 -28
-31 -1 -31 8 0 19 -4 23 -8 4 -4 -2 -7 -14 -7 -13 0 -22 -6 -22 -15 0 -8 8
-15 19 -15 16 0 18 -7 16 -62 -4 -94 -4 -96 -16 -75 -13 22 -31 22 -59 -1 -19
-15 -21 -22 -11 -40 13 -24 56 -26 72 -2 8 12 10 12 7 -4 -5 -29 -34 -43 -58
-29 -24 16 -37 -1 -19 -23 9 -11 23 -14 47 -11 27 5 33 3 30 -11 -2 -13 -12
-16 -36 -14 -41 4 -43 -16 -2 -25 31 -6 37 -31 7 -25 -28 5 -29 -18 0 -29 l28
-12 -32 -9 c-40 -11 -43 -24 -5 -24 35 1 46 -40 12 -46 -20 -3 -29 -17 -12
-19 11 -1 32 -21 32 -30 0 -5 -11 -14 -25 -19 -30 -11 -32 -26 -5 -33 29 -7
25 -42 -7 -66 -26 -19 -26 -20 -7 -21 15 0 20 -6 18 -22 -1 -13 -3 -29 -3 -35
-1 -7 -11 -13 -24 -13 -13 0 -28 -5 -34 -11 -15 -15 -5 -39 15 -39 13 0 13 -2
-1 -18 -24 -26 -21 -42 8 -42 18 0 23 -4 19 -15 -4 -8 -14 -15 -24 -15 -23 0
-44 -26 -36 -46 4 -11 13 -14 31 -10 24 6 25 5 25 -31 0 -4 -10 -8 -23 -8 -31
0 -31 -39 1 -43 31 -5 32 -49 1 -48 -27 1 -48 -29 -32 -45 7 -7 17 -8 29 -1
18 9 19 6 16 -55 -4 -60 -5 -63 -18 -44 -17 23 -22 25 -43 12 -12 -8 -12 -12
-2 -25 8 -9 22 -16 32 -16 13 0 19 -7 19 -24 0 -19 -6 -25 -27 -28 -20 -2 -29
-9 -31 -25 -3 -20 1 -23 27 -23 30 0 31 -2 31 -42 -1 -34 -3 -39 -11 -25 -5 9
-21 17 -35 17 -21 0 -25 -4 -22 -22 2 -17 11 -24 31 -26 19 -2 27 -9 27 -22 0
-16 -5 -18 -30 -13 -29 5 -30 5 -30 -34 0 -21 5 -44 10 -49 16 -16 -4 -60 -29
-67 -12 -3 -21 -13 -21 -24 0 -27 9 -34 30 -23 25 13 33 0 14 -22 -11 -12 -25
-16 -40 -12 -18 5 -24 2 -24 -9 0 -20 27 -47 47 -47 8 0 13 -6 10 -12 -20 -57
-29 -118 -20 -144 6 -16 8 -44 5 -63 -3 -25 -11 -35 -34 -43 -27 -10 -29 -14
-24 -43 7 -37 -6 -52 -44 -51 -17 1 -25 6 -24 19 0 9 1 51 2 92 2 60 5 73 16
69 19 -7 24 32 30 236 3 85 12 209 20 275 8 66 17 161 20 210 3 50 8 108 10
130 3 22 8 110 11 195 4 85 8 158 11 162 7 11 27 248 30 353 7 237 17 383 34
525 22 170 25 223 16 238 -3 5 1 18 8 28 9 12 11 25 5 35 -4 9 -6 19 -2 22 3
4 0 14 -7 22 -11 13 -10 19 8 36 12 11 22 25 22 32 0 18 22 39 31 30 4 -5 9
-17 11 -28z m2588 5 c0 -11 -7 -20 -15 -20 -18 0 -19 12 -3 28 16 16 18 15 18
-8z m-708 -24 c8 -11 -1 -36 -13 -36 -8 0 -39 52 -39 65 0 7 43 -17 52 -29z
m763 -6 c3 -5 1 -10 -4 -10 -6 0 -11 5 -11 10 0 6 2 10 4 10 3 0 8 -4 11 -10z
m-679 -51 c19 -21 19 -21 -6 -18 -14 2 -26 12 -28 22 -5 23 11 22 34 -4z m814
1 c0 -11 0 -23 1 -27 0 -4 -5 -9 -12 -12 -7 -2 -9 1 -4 9 4 7 2 16 -5 20 -7 4
-9 13 -6 19 11 18 26 13 26 -9z m-175 1 c3 -5 1 -12 -5 -16 -5 -3 -10 1 -10 9
0 18 6 21 15 7z m-780 -43 c6 -22 4 -28 -9 -28 -12 0 -16 10 -16 37 0 41 14
36 25 -9z m1634 -1 c1 -5 -3 -5 -9 -2 -5 3 -10 16 -9 28 0 21 1 21 9 2 5 -11
9 -24 9 -28z m-1499 -47 c25 -25 26 -46 1 -53 -22 -5 -45 16 -55 51 -6 18 -3
22 13 22 12 0 30 -9 41 -20z m186 -8 c-3 -6 -16 -7 -29 -4 -22 6 -22 6 3 12
28 8 35 6 26 -8z m494 3 c-7 -9 -15 -13 -17 -11 -7 7 7 26 19 26 6 0 6 -6 -2
-15z m-150 -14 c0 -9 -24 -21 -42 -21 -6 0 -6 6 2 15 14 16 40 20 40 6z m217
-16 c-4 -8 -11 -15 -17 -15 -7 0 -7 6 0 21 13 23 26 19 17 -6z m-3177 -10 c10
-12 8 -16 -14 -25 -23 -8 -25 -14 -20 -37 4 -16 3 -24 -2 -20 -4 4 -13 28 -20
52 l-11 45 27 0 c15 0 33 -7 40 -15z m2695 -15 c-3 -5 -13 -6 -21 -3 -12 4
-13 8 -3 14 15 9 32 2 24 -11z m132 14 c-3 -3 -12 -4 -19 -1 -8 3 -5 6 6 6 11
1 17 -2 13 -5z m-897 -13 c0 -6 -4 -13 -10 -16 -5 -3 -10 1 -10 9 0 9 5 16 10
16 6 0 10 -4 10 -9z m2090 -16 c0 -8 -7 -15 -15 -15 -16 0 -20 12 -8 23 11 12
23 8 23 -8z m-1027 -16 c-11 -12 -29 -19 -39 -17 -16 3 -14 7 11 21 41 23 53
21 28 -4z m92 -9 c-15 -30 -48 -54 -65 -48 -12 4 55 78 70 78 6 0 5 -11 -5
-30z m-695 -22 c0 -4 -4 -8 -10 -8 -5 0 -10 4 -10 9 0 5 -3 18 -6 28 -5 16 -4
16 10 -1 9 -11 16 -23 16 -28z m256 27 c16 -12 17 -14 2 -15 -23 0 -48 11 -48
21 0 14 24 11 46 -6z m230 0 c-19 -15 -46 -20 -46 -10 0 6 40 24 55 24 6 0 1
-6 -9 -14z m1018 -1 c29 -11 16 -20 -24 -16 -22 2 -37 8 -34 13 6 10 35 12 58
3z m-1084 -14 c-20 -13 -40 -13 -40 0 0 6 12 10 28 10 21 0 24 -2 12 -10z
m-212 -32 c44 -27 41 -42 -5 -35 -34 6 -72 37 -73 60 0 11 38 -1 78 -25z m296
-7 c8 -13 -36 -29 -59 -21 -19 7 -19 7 0 18 24 14 52 15 59 3z m-2908 -36 c-9
-13 -13 -31 -10 -40 4 -8 1 -21 -5 -29 -6 -7 -8 -21 -5 -30 4 -10 -1 -25 -11
-36 -22 -25 -10 -43 26 -38 34 5 41 -17 9 -26 -64 -19 -59 -27 -57 89 2 91 4
105 19 105 9 0 20 9 23 20 4 11 11 18 16 14 6 -3 4 -15 -5 -29z m2980 20 c-11
-8 -24 -15 -30 -15 -5 0 -1 7 10 15 10 8 24 14 29 14 6 0 1 -6 -9 -14z m-166
-55 c0 -5 -5 -10 -11 -10 -5 0 -7 5 -4 10 3 6 8 10 11 10 2 0 4 -4 4 -10z
m-116 -16 c12 -5 13 -9 3 -25 -9 -15 -8 -21 6 -31 20 -15 26 -93 9 -124 -5
-11 -9 -46 -8 -79 2 -52 5 -60 22 -60 15 0 20 8 22 43 3 33 7 42 22 42 21 0
27 -20 22 -68 -3 -23 -9 -32 -18 -28 -23 9 -30 -42 -9 -58 16 -11 17 -23 11
-92 -5 -56 -12 -83 -23 -91 -23 -17 -38 -16 -24 1 13 16 18 186 6 206 -5 8
-10 8 -21 -1 -11 -9 -14 -33 -12 -94 2 -68 -1 -85 -16 -100 -11 -11 -16 -27
-13 -42 2 -13 0 -26 -4 -29 -13 -8 -11 -38 6 -70 11 -21 11 -31 3 -42 -17 -20
9 -34 50 -27 27 5 32 3 32 -15 0 -13 -7 -20 -18 -20 -11 0 -27 -9 -36 -19 -17
-19 -17 -20 3 -30 11 -6 27 -11 36 -11 10 0 15 -7 13 -17 -2 -13 -13 -18 -38
-19 -51 -1 -54 -2 -40 -19 7 -8 25 -15 41 -15 23 0 29 -5 29 -20 0 -18 -5 -20
-37 -18 -28 2 -38 -1 -38 -12 0 -10 10 -15 30 -15 21 -1 31 -6 33 -19 4 -17
-1 -18 -33 -13 -30 5 -36 3 -33 -11 2 -9 10 -18 18 -18 8 -1 23 -2 33 -3 12
-1 17 -10 17 -33 0 -23 -3 -29 -11 -21 -12 12 -49 6 -49 -8 0 -12 33 -27 48
-22 14 5 17 -13 3 -21 -5 -4 -21 -2 -34 3 -18 7 -28 6 -36 -3 -13 -15 -5 -26
19 -26 10 0 23 -6 29 -14 10 -12 6 -14 -20 -13 -43 3 -50 -21 -9 -29 39 -8 33
-30 -7 -26 -31 3 -31 3 -44 -67 -7 -39 -14 -69 -16 -67 -5 5 -4 228 2 356 2
58 7 161 10 230 4 69 8 143 10 165 2 22 4 131 6 243 1 112 8 240 15 284 7 44
10 86 7 94 -5 14 2 44 11 44 2 0 11 -3 20 -6z m1226 -34 c-8 -5 -23 -10 -32
-10 -28 0 -27 -51 2 -82 14 -15 22 -17 37 -10 14 8 24 6 41 -6 22 -17 21 -17
-38 -18 -33 0 -60 4 -60 9 0 5 -6 15 -14 21 -8 6 -17 21 -21 33 -9 30 34 73
72 73 22 0 25 -2 13 -10z m-1905 -20 c17 -19 15 -33 -6 -36 -5 -1 -13 -2 -19
-3 -22 -2 -9 -21 15 -21 14 0 25 -4 25 -10 0 -5 -11 -10 -25 -10 -26 0 -28 -3
-19 -36 4 -17 13 -20 44 -20 41 1 56 -17 20 -22 -29 -5 -25 -22 5 -22 14 0 25
-4 25 -10 0 -5 -9 -10 -19 -10 -34 0 -33 -19 1 -34 20 -9 26 -15 16 -15 -24
-1 -23 -32 1 -38 31 -8 34 -32 5 -43 -31 -12 -23 -29 11 -22 17 3 25 0 25 -9
0 -8 -11 -15 -26 -15 -30 -2 -38 -9 -30 -23 4 -6 20 -8 36 -4 42 8 41 -24 0
-40 -47 -18 -39 -39 11 -31 36 6 41 5 38 -11 -2 -10 -12 -19 -22 -21 -56 -8
-60 -36 -4 -29 18 2 39 0 47 -5 11 -7 9 -11 -13 -19 -16 -6 -32 -11 -36 -11
-5 0 -14 -7 -21 -15 -10 -12 -10 -15 3 -15 9 0 28 5 43 10 31 12 30 13 39 -23
6 -24 4 -27 -17 -27 -13 0 -33 -7 -44 -15 -18 -14 -16 -15 25 -13 53 3 65 -15
20 -28 -43 -12 -54 -40 -13 -29 47 12 58 11 62 -7 3 -14 -3 -18 -23 -18 -14 0
-35 -5 -46 -10 -21 -12 -26 -32 -6 -29 24 4 67 -13 67 -27 0 -8 10 -14 22 -14
28 0 15 -13 -17 -16 -16 -2 -25 2 -25 12 0 17 -22 18 -38 2 -6 -6 -22 -12 -35
-14 -21 -2 -26 4 -37 39 -7 23 -14 51 -15 62 -2 12 -10 48 -18 80 -25 99 -39
158 -48 200 -13 58 -40 203 -47 254 -6 40 -10 45 -46 57 -47 17 -65 39 -66 81
0 37 39 74 70 66 12 -3 22 1 26 11 9 23 57 20 79 -4z m790 9 c10 -15 4 -18
-28 -12 -21 4 -25 8 -15 14 18 12 36 11 43 -2z m366 -79 c-4 -30 -9 -39 -13
-28 -9 21 2 92 12 81 4 -4 5 -28 1 -53z m-383 31 c8 -4 12 -19 10 -32 -3 -22
-4 -22 -20 -5 -30 29 -22 58 10 37z m492 -35 c0 -2 -3 -11 -6 -20 -9 -23 -24
-20 -24 4 0 11 7 20 15 20 8 0 15 -2 15 -4z m-482 -54 c2 -7 -5 -12 -16 -12
-11 0 -23 -6 -25 -12 -4 -9 -6 -8 -6 3 -2 32 37 49 47 21z m1129 -16 c18 4 33
1 37 -5 4 -7 -1 -11 -13 -11 -40 0 -23 -29 20 -36 42 -7 42 -7 17 -20 -49 -26
-39 -84 14 -84 10 0 18 -7 18 -17 0 -10 3 -29 7 -43 6 -24 6 -24 -14 -7 -23
20 -63 23 -63 4 0 -8 18 -20 40 -27 32 -10 40 -18 40 -37 0 -21 -2 -22 -21
-12 -16 8 -24 8 -33 -1 -8 -8 -5 -16 13 -29 15 -12 20 -21 12 -25 -15 -9 9
-35 26 -29 18 7 16 -12 -3 -28 -14 -11 -14 -14 -2 -23 8 -6 18 -26 21 -43 5
-28 3 -33 -12 -33 -29 0 -33 -12 -11 -35 20 -21 20 -22 1 -21 -11 1 -20 -2
-21 -6 -2 -48 2 -58 25 -64 40 -10 32 -34 -10 -27 -28 5 -35 2 -35 -11 0 -22
28 -32 50 -18 15 9 19 7 24 -11 10 -37 7 -47 -13 -47 -11 0 -27 -3 -36 -6 -13
-5 -14 -8 -3 -15 7 -5 23 -9 36 -9 13 0 22 -6 22 -15 0 -8 -9 -15 -19 -15 -11
0 -23 -4 -26 -10 -6 -9 0 -12 35 -14 8 -1 16 -11 18 -24 3 -18 -1 -23 -15 -20
-13 2 -17 -3 -16 -19 2 -15 -3 -23 -12 -23 -36 0 -3 -32 35 -34 8 -1 16 -10
17 -21 2 -11 0 -14 -3 -7 -7 16 -34 16 -34 -1 0 -7 8 -23 17 -36 9 -14 11 -21
5 -17 -16 9 -26 -13 -12 -29 12 -15 4 -81 -11 -91 -14 -8 -11 -31 7 -49 14
-13 15 -21 5 -41 -14 -31 -13 -67 2 -124 10 -36 16 -45 33 -44 12 1 26 4 32 7
11 7 34 -16 30 -29 -1 -5 3 -45 10 -89 6 -44 14 -102 17 -130 4 -27 11 -79 17
-115 6 -36 11 -86 12 -111 1 -56 16 -76 67 -89 40 -11 109 -82 109 -114 0 -14
3 -14 20 -4 34 22 45 -3 19 -46 -19 -33 -20 -40 -9 -62 11 -19 11 -27 2 -36
-9 -9 -15 -9 -24 0 -15 15 -72 16 -99 2 -16 -9 -19 -7 -19 15 0 20 5 25 25 25
14 0 25 5 25 10 0 9 -8 12 -54 14 -16 1 -20 9 -20 51 -1 32 -11 68 -26 100
-14 28 -25 55 -26 60 -4 59 -49 171 -72 180 -20 7 -32 -13 -26 -45 2 -14 1
-30 -3 -36 -12 -17 -91 -5 -97 15 -3 9 -8 81 -11 161 -3 80 -8 161 -10 180 -3
19 -7 107 -10 195 -6 173 -8 191 -17 201 -4 3 -4 35 -2 71 3 35 0 97 -7 136
-6 40 -13 97 -14 127 -2 30 -6 103 -10 163 -6 109 -2 123 29 92 28 -28 43 -18
49 32 4 41 2 51 -19 72 -24 23 -25 23 -44 6 -16 -14 -19 -26 -15 -49 l6 -31
-15 32 c-17 38 -20 167 -4 193 7 10 8 25 3 36 -4 11 -7 25 -6 33 2 13 -14 127
-25 180 -4 20 -3 22 9 13 8 -7 27 -10 44 -6z m-3899 -31 c-2 -19 -11 -30 -33
-39 -16 -7 -36 -20 -43 -29 -12 -13 -10 -18 7 -29 29 -18 28 -61 -2 -81 l-23
-15 2 77 c3 151 -2 137 49 140 43 2 45 1 43 -24z m3227 -61 c34 -14 44 -35 27
-60 -8 -14 -62 -21 -77 -12 -6 4 -16 3 -23 -1 -24 -15 23 -44 60 -38 l33 6
-27 -15 c-34 -18 -36 -32 -6 -43 20 -7 20 -9 -11 -19 -27 -10 -31 -15 -22 -26
9 -11 9 -15 0 -18 -22 -7 1 -28 31 -28 15 0 35 -3 44 -6 27 -11 7 -23 -28 -17
-21 3 -36 1 -41 -7 -11 -18 15 -31 55 -28 27 2 35 -1 38 -16 4 -16 -1 -17 -46
-11 -88 12 -70 -17 23 -38 11 -3 3 -5 -18 -6 -26 -1 -37 -5 -34 -13 2 -8 21
-13 46 -12 45 1 57 -13 14 -18 -35 -4 -43 -28 -9 -28 13 0 28 5 32 11 5 8 10
6 16 -6 14 -25 -6 -40 -47 -36 -26 2 -35 -1 -35 -13 0 -10 14 -17 45 -22 27
-4 45 -11 45 -19 0 -19 -41 -23 -66 -8 -18 11 -23 11 -34 -2 -15 -18 -6 -22
66 -35 l49 -8 -63 -1 c-72 -1 -83 -22 -17 -31 29 -4 39 -10 40 -25 1 -11 5
-34 9 -52 7 -32 7 -32 -27 -26 -24 3 -38 0 -50 -12 -9 -9 -17 -15 -18 -13 0 2
-2 14 -5 28 -3 24 -21 89 -32 120 -2 8 -6 22 -7 30 -2 8 -8 40 -14 70 -7 30
-14 71 -17 90 -2 19 -9 60 -15 90 -14 70 -15 79 -24 170 -4 41 -12 86 -16 99
-17 42 11 69 71 69 28 1 66 -6 85 -14z m-1760 -180 c-10 -7 -22 -11 -26 -8
-16 9 -9 24 14 33 28 11 37 -7 12 -25z m-1499 5 c8 -14 -11 -33 -25 -25 -11 7
-4 36 9 36 5 0 12 -5 16 -11z m3754 -9 c0 -11 -4 -20 -10 -20 -5 0 -10 9 -10
20 0 11 5 20 10 20 6 0 10 -9 10 -20z m-2315 -36 l50 -13 -50 -1 c-27 -1 -59
-3 -70 -5 -76 -14 -105 -15 -105 -6 0 15 59 39 95 39 17 0 53 -6 80 -14z
m-1474 -46 c-28 -10 -36 -5 -27 17 5 13 10 14 28 4 l22 -12 -23 -9z m4079 22
c0 -5 -5 -10 -11 -10 -5 0 -7 5 -4 10 3 6 8 10 11 10 2 0 4 -4 4 -10z m-2880
-24 c0 -2 -11 -6 -25 -8 -13 -3 -22 -1 -19 3 5 9 44 13 44 5z m330 -10 c-17
-16 -221 -89 -228 -81 -9 9 29 43 66 61 21 10 64 21 97 24 33 4 64 8 70 9 5 0
3 -5 -5 -13z m150 4 c0 -21 -41 -50 -70 -50 -33 0 -36 6 -17 31 20 26 87 41
87 19z m2216 -50 c-1 -59 -10 -77 -20 -42 -3 13 -1 80 3 100 1 1 5 2 10 2 5 0
8 -27 7 -60z m-3892 12 c2 -4 -4 -13 -15 -20 -15 -10 -19 -10 -19 1 0 24 23
36 34 19z m3816 -7 c0 -12 -28 -35 -44 -35 -8 0 -7 35 1 43 12 13 43 7 43 -8z
m-2725 -41 c-55 -45 -145 -79 -145 -55 0 27 151 101 170 84 3 -3 -8 -16 -25
-29z m380 9 c-54 -38 -105 -55 -105 -37 0 7 19 18 42 25 23 6 51 17 62 25 11
8 25 14 31 14 5 0 -8 -12 -30 -27z m-1460 -18 c17 0 20 -7 21 -45 2 -69 -5
-98 -24 -96 -14 1 -16 -9 -13 -74 2 -41 5 -95 7 -120 3 -25 6 -180 9 -345 4
-253 2 -303 -10 -322 -8 -12 -20 -57 -26 -100 -17 -126 -30 -122 -23 7 5 100
9 402 13 963 1 116 4 146 14 140 6 -4 21 -8 32 -8z m1255 8 c-1 -24 -32 -45
-92 -61 -49 -14 -53 10 -6 34 52 27 98 39 98 27z m1506 -3 c21 -8 25 -13 16
-22 -9 -9 -17 -7 -34 10 -25 25 -22 27 18 12z m1444 -15 c0 -8 -4 -15 -10 -15
-5 0 -10 7 -10 15 0 8 5 15 10 15 6 0 10 -7 10 -15z m-3310 -28 c0 -14 -122
-67 -154 -67 -31 0 -11 24 45 52 58 30 109 36 109 15z m604 4 c18 -7 18 -8 -3
-28 -16 -15 -21 -27 -16 -42 5 -17 2 -21 -14 -21 -36 0 -33 -19 8 -47 26 -18
38 -34 35 -44 -2 -9 3 -32 11 -52 8 -21 11 -37 6 -37 -5 0 -9 -29 -8 -65 1
-36 -1 -65 -5 -65 -5 0 -8 -23 -8 -50 0 -61 -8 -66 -81 -50 -105 22 -129 24
-129 6 0 -9 9 -25 21 -37 19 -19 21 -46 3 -43 -80 14 -261 19 -292 10 -19 -6
-22 -4 -22 18 0 18 5 26 18 26 9 0 25 7 35 14 10 8 27 12 37 9 14 -4 20 0 20
11 0 12 6 15 24 10 16 -4 25 -1 30 11 5 14 14 16 41 11 33 -7 34 -6 45 33 6
22 19 46 29 53 27 20 54 66 45 79 -5 9 -2 10 9 6 13 -5 17 -1 17 14 0 11 5 29
11 41 6 11 12 48 14 84 6 114 53 171 119 145z m-420 -17 c6 -17 -29 -58 -69
-80 -11 -6 -41 -23 -67 -37 -53 -30 -78 -34 -78 -12 0 15 87 77 126 89 11 3
31 18 44 31 27 29 36 31 44 9z m250 -29 c-10 -5 -34 -24 -54 -42 -20 -18 -49
-37 -64 -43 -32 -12 -66 -13 -66 -2 0 8 59 49 102 70 14 8 34 22 43 32 14 16
20 17 37 7 18 -11 18 -13 2 -22z m1456 15 c0 -5 -5 -10 -11 -10 -5 0 -7 5 -4
10 3 6 8 10 11 10 2 0 4 -4 4 -10z m-1919 -54 c-22 -26 -86 -64 -121 -71 -49
-10 -28 10 53 51 71 36 84 40 68 20z m-172 -10 c16 -20 -18 -38 -62 -34 l-32
3 35 22 c42 27 44 27 59 9z m415 -10 c-10 -8 -19 -24 -19 -36 0 -20 -13 -30
-77 -62 -10 -4 -32 -8 -49 -8 -34 0 -36 16 -4 34 10 6 24 15 29 19 27 21 112
66 125 66 10 1 9 -3 -5 -13z m226 -28 c0 -5 -11 -8 -25 -8 -14 0 -25 4 -25 9
0 5 11 8 25 7 14 0 25 -4 25 -8z m574 -20 c9 -12 14 -24 12 -26 -7 -7 -46 23
-46 35 0 20 17 15 34 -9z m166 -95 c6 -26 5 -33 -6 -33 -8 0 -14 9 -14 20 0
30 -1 34 -10 45 -5 6 -6 24 -2 40 l6 30 9 -35 c4 -19 12 -50 17 -67z m-1403
61 c5 -16 -86 -49 -99 -36 -16 16 -3 40 24 45 36 7 71 3 75 -9z m88 -25 c-38
-17 -78 -37 -87 -46 -16 -14 -40 -12 -26 2 14 14 146 74 163 74 11 0 -11 -13
-50 -30z m132 -4 c11 -24 9 -26 -25 -41 -46 -20 -123 -44 -139 -44 -32 0 -7
23 55 52 37 18 71 38 75 45 12 19 21 16 34 -12z m1315 -51 c18 6 40 15 48 20
12 7 13 6 3 -5 -17 -17 -16 -39 1 -39 23 0 27 -28 5 -35 -23 -8 -20 -31 4 -27
12 2 16 -5 14 -28 -2 -24 -6 -30 -25 -30 -28 0 -24 -25 4 -26 44 -2 47 -6 14
-17 -42 -14 -38 -33 8 -30 26 2 32 -1 32 -17 0 -14 -6 -18 -27 -16 -30 4 -56
-11 -47 -25 3 -5 15 -9 26 -9 20 0 21 -1 3 -20 -18 -19 -17 -20 15 -26 29 -6
31 -9 16 -19 -25 -19 -19 -28 14 -23 24 4 30 1 30 -13 0 -10 -9 -19 -20 -21
-33 -5 -28 -23 8 -26 40 -4 41 -20 3 -33 -37 -13 -31 -36 9 -33 36 2 40 -13 7
-25 -17 -7 -23 -17 -22 -37 0 -25 4 -29 25 -27 23 3 23 2 8 -11 -25 -18 -22
-26 7 -26 14 0 25 -4 25 -9 0 -5 -9 -7 -20 -4 -11 3 -27 2 -36 -1 -13 -5 -14
-9 -4 -21 7 -8 16 -12 21 -9 5 3 18 7 29 9 32 6 23 -11 -11 -21 -40 -12 -34
-30 9 -26 41 4 42 -12 0 -24 -17 -5 -33 -14 -35 -20 -4 -12 35 -16 42 -3 4 5
11 9 17 9 7 0 6 -6 -2 -15 -7 -8 -18 -15 -26 -15 -8 0 -11 -10 -9 -27 2 -25 7
-28 34 -25 25 2 31 -2 31 -18 0 -15 -7 -20 -24 -20 -23 0 -44 -16 -33 -26 2
-2 20 -5 40 -6 36 -1 43 -18 7 -18 -23 0 -37 -20 -21 -29 6 -4 9 -15 5 -24 -7
-19 8 -22 36 -7 14 7 20 6 24 -7 4 -9 5 -17 4 -17 -2 -1 -16 -6 -32 -11 -38
-13 -31 -30 12 -29 25 1 32 -3 32 -17 0 -12 -7 -19 -18 -19 -10 0 -27 -7 -38
-16 -18 -14 -17 -15 19 -12 43 5 52 -17 13 -32 -16 -6 -23 -16 -23 -34 0 -27
6 -30 45 -20 15 4 21 12 18 21 -4 9 -1 13 6 11 7 -3 13 -13 13 -23 0 -13 -9
-19 -34 -21 -41 -5 -45 -8 -37 -30 4 -11 14 -15 31 -11 14 2 28 1 30 -4 7 -10
-88 -90 -96 -81 -7 8 -42 223 -43 269 -1 17 -5 35 -9 39 -4 4 -7 20 -7 35 0
15 -4 39 -10 53 -5 15 -12 41 -14 59 -9 53 -34 166 -61 267 -78 300 -101 392
-110 450 -8 49 -32 151 -41 175 -7 17 -4 16 24 -6 28 -24 34 -26 64 -15z
m-1631 -29 c12 -14 14 -24 7 -32 -7 -9 -2 -20 16 -38 14 -14 30 -25 35 -25 18
0 126 43 132 52 11 17 41 -43 34 -69 -4 -16 0 -31 9 -42 13 -14 14 -23 4 -48
-9 -24 -9 -38 0 -57 16 -36 45 -33 86 9 32 32 36 33 45 17 12 -22 5 -32 -34
-52 -27 -14 -32 -24 -45 -91 -12 -58 -23 -85 -51 -120 -57 -69 -92 -150 -133
-308 -21 -78 -21 -87 -7 -115 8 -17 16 -60 18 -96 1 -36 7 -83 12 -105 21 -85
41 -245 46 -362 5 -100 2 -137 -14 -205 -26 -108 -35 -184 -23 -192 5 -3 -2
-28 -16 -57 -25 -50 -26 -50 -61 -43 -20 3 -42 7 -48 7 -21 1 -14 17 11 27 30
11 36 27 23 63 -6 19 -6 36 1 52 7 16 7 26 0 33 -8 8 -4 14 16 21 14 6 29 17
32 25 6 17 -23 126 -34 127 -4 0 -17 2 -29 3 -14 2 -23 -3 -23 -10 0 -8 6 -11
14 -8 14 5 25 -14 32 -57 4 -19 -3 -35 -25 -58 -16 -17 -35 -31 -43 -31 -8 0
-18 -3 -21 -6 -9 -10 12 -44 27 -44 7 0 14 -10 14 -22 0 -13 1 -30 3 -38 3
-12 -8 -15 -56 -16 -83 0 -97 -3 -90 -13 6 -11 -35 -9 -53 3 -16 9 -14 108 2
103 17 -6 46 12 46 28 0 13 21 30 45 35 33 8 35 14 33 86 -1 41 2 77 5 81 4 3
16 -2 27 -12 18 -16 20 -16 26 -1 4 10 13 14 24 11 21 -7 28 9 32 70 1 22 10
55 20 74 25 49 23 87 -6 116 l-24 24 24 16 c39 25 23 95 -21 95 -8 0 -15 13
-17 33 -3 28 -6 32 -34 32 -28 0 -31 3 -32 34 -2 48 -16 59 -50 41 -15 -9 -32
-26 -38 -38 -21 -42 -27 -37 -20 18 3 30 8 96 11 145 3 50 8 119 11 155 4 36
6 74 6 85 -1 10 4 26 11 34 9 12 9 13 0 7 -10 -5 -11 7 -8 51 3 32 7 81 9 108
2 28 6 59 9 70 6 19 21 174 32 325 3 41 8 90 11 108 6 28 8 31 23 20 8 -7 23
-22 32 -33z m553 23 c-4 -13 -7 -31 -6 -40 0 -10 -3 -20 -9 -23 -12 -8 -12 42
1 66 14 26 23 24 14 -3z m1932 -5 c-7 -7 -26 7 -26 19 0 6 6 6 15 -2 9 -7 13
-15 11 -17z m-1083 -5 c-6 -7 -13 -22 -15 -33 -5 -19 -5 -19 -13 -2 -5 12 -1
24 10 37 19 22 35 19 18 -2z m-947 -60 c-10 -63 -25 -82 -26 -31 0 47 8 73 22
73 7 0 8 -16 4 -42z m-343 18 c16 -12 16 -14 1 -20 -8 -3 -27 -6 -41 -6 -20 0
-23 3 -14 13 6 8 8 17 4 20 -12 13 32 6 50 -7z m2514 -21 c1 -15 4 -33 7 -40
2 -6 0 -18 -5 -26 -6 -10 -9 -2 -9 24 0 32 -4 39 -27 48 -26 10 -27 12 -8 19
30 12 39 7 42 -25z m-2277 -5 c0 -5 -4 -10 -10 -10 -5 0 -10 5 -10 10 0 6 5
10 10 10 6 0 10 -4 10 -10z m2470 -37 c1 -27 7 -75 15 -108 18 -75 18 -76 -1
-68 -9 3 -19 0 -24 -6 -9 -15 -1 -103 13 -141 3 -8 8 -32 11 -52 3 -29 1 -38
-10 -38 -21 0 -17 -17 6 -23 13 -3 20 -14 20 -30 0 -30 18 -45 26 -23 12 33
25 14 22 -31 l-3 -48 -42 3 c-24 1 -43 -2 -43 -7 0 -13 26 -21 68 -21 28 0 33
-3 24 -12 -7 -7 -22 -12 -35 -13 -39 0 -29 -20 13 -23 25 -2 40 -8 40 -16 0
-10 -12 -12 -44 -9 -27 4 -46 1 -51 -7 -10 -17 -4 -20 52 -27 l50 -5 11 -52
c6 -28 14 -75 17 -103 6 -45 4 -53 -9 -53 -10 0 -16 8 -16 21 0 24 -33 23 -38
-1 -4 -25 34 -59 60 -54 13 2 4 -3 -19 -12 -50 -18 -55 -33 -13 -35 46 -2 50
-3 53 -14 1 -5 -7 -11 -18 -13 -11 -2 -32 -8 -46 -13 -25 -10 -26 -14 -22 -52
3 -23 10 -47 15 -53 5 -8 -1 -17 -17 -28 -24 -16 -25 -16 -25 9 0 14 -4 33 -9
43 -6 9 -14 49 -20 87 -10 72 -19 119 -26 145 -2 8 -7 60 -10 115 -4 55 -10
114 -15 130 -5 17 -11 55 -15 85 -11 96 -17 134 -21 141 -2 4 -6 51 -10 105
-3 55 -10 113 -15 129 -5 17 -11 44 -13 60 -2 17 -6 41 -9 55 -14 64 -16 91
-6 85 5 -4 16 -1 24 5 12 10 18 10 30 0 8 -7 15 -17 15 -23 0 -7 -4 -7 -12 1
-18 18 -38 14 -38 -7 0 -24 25 -45 45 -37 8 3 15 1 15 -4 0 -6 -9 -10 -20 -10
-11 0 -20 -7 -20 -15 0 -16 20 -19 58 -9 17 5 22 13 22 38 0 17 -7 40 -15 50
-20 27 -19 36 5 36 17 0 20 -7 20 -47z m-950 -33 c-20 -38 -27 -20 -11 28 14
41 16 44 19 20 2 -15 -2 -36 -8 -48z m-1487 -1 c11 -8 -13 -49 -29 -49 -6 0
-23 -9 -38 -21 -34 -26 -34 -8 -1 46 13 22 25 49 25 60 0 17 2 17 17 -5 9 -14
21 -28 26 -31z m2140 21 c-6 -22 -18 -26 -28 -10 -8 13 3 30 20 30 8 0 11 -7
8 -20z m997 -20 c0 -5 -2 -10 -4 -10 -3 0 -8 5 -11 10 -3 6 -1 10 4 10 6 0 11
-4 11 -10z m-1589 -77 c13 -17 13 -17 -6 -3 -11 8 -22 16 -24 17 -2 2 0 3 6 3
6 0 17 -8 24 -17z m-184 -59 c-3 -3 -12 -4 -19 -1 -8 3 -5 6 6 6 11 1 17 -2
13 -5z m-1172 -44 c8 -13 -15 -13 -35 0 -12 8 -11 10 7 10 12 0 25 -4 28 -10z
m1585 -36 c0 -16 -16 -19 -25 -4 -8 13 4 32 16 25 5 -4 9 -13 9 -21z m1409 -4
c6 -18 6 -30 0 -30 -5 0 -9 5 -9 10 0 6 -9 10 -20 10 -23 0 -26 10 -8 28 18
18 25 15 37 -18z m-712 -12 c-3 -7 -5 -2 -5 12 0 14 2 19 5 13 2 -7 2 -19 0
-25z m150 -10 c-3 -8 -6 -5 -6 6 -1 11 2 17 5 13 3 -3 4 -12 1 -19z m-129 -66
c15 -71 15 -85 2 -77 -5 3 -10 21 -10 38 0 18 -4 47 -9 65 -5 17 -6 32 -2 32
4 0 12 -26 19 -58z m-718 32 c0 -9 -7 -14 -17 -12 -25 5 -28 28 -4 28 12 0 21
-6 21 -16z m940 -24 c0 -5 -7 -10 -15 -10 -8 0 -15 5 -15 10 0 6 7 10 15 10 8
0 15 -4 15 -10z m470 -36 c15 -39 13 -124 -3 -124 -16 0 -41 27 -50 53 -7 20
20 97 34 97 5 0 14 -12 19 -26z m-1460 -19 c13 4 22 -1 29 -14 10 -18 9 -19
-19 -11 -26 7 -30 6 -30 -11 0 -10 5 -19 10 -19 6 0 10 -11 10 -25 0 -14 -4
-25 -9 -25 -5 0 -7 9 -4 20 4 16 0 20 -20 20 -20 0 -27 -6 -32 -30 -7 -33 7
-60 31 -60 17 0 17 -5 4 -31 -6 -10 -20 -19 -30 -19 -11 0 -20 -7 -20 -15 0
-8 4 -15 9 -15 5 0 11 -9 14 -20 6 -25 43 -26 70 -2 20 16 20 16 14 -1 -4 -10
-7 -23 -7 -28 0 -5 -12 -9 -26 -9 -21 0 -25 -4 -21 -20 3 -11 1 -23 -4 -26
-17 -10 -3 -29 22 -29 30 0 38 -30 9 -38 -11 -3 -20 -12 -20 -21 0 -9 -4 -16
-10 -16 -22 0 -8 -21 28 -39 l37 -20 -37 -1 c-27 0 -38 -4 -38 -15 0 -13 31
-21 63 -16 11 2 8 -16 -5 -27 -7 -6 -26 -12 -43 -14 -18 -2 -30 -9 -30 -18 0
-9 7 -14 19 -12 18 3 18 2 6 -13 -11 -13 -11 -18 -1 -25 9 -5 10 -10 3 -14 -6
-4 -9 -12 -7 -19 3 -7 -7 -17 -21 -24 -49 -23 -53 -8 -48 212 2 109 6 221 9
249 9 87 15 130 22 171 3 22 7 51 8 65 2 14 3 29 4 34 0 6 10 0 22 -13 13 -14
27 -20 39 -16z m777 -67 c-3 -8 -6 -5 -6 6 -1 11 2 17 5 13 3 -3 4 -12 1 -19z
m-744 -87 c-4 -16 -8 -19 -14 -10 -4 7 -3 19 3 26 14 18 19 12 11 -16z m-308
-131 c-3 -5 -12 -10 -18 -10 -7 0 -6 4 3 10 19 12 23 12 15 0z m295 -50 c0 -5
-4 -10 -9 -10 -6 0 -13 5 -16 10 -3 6 1 10 9 10 9 0 16 -4 16 -10z m-2710 -35
c0 -8 -4 -15 -10 -15 -5 0 -7 7 -4 15 4 8 8 15 10 15 2 0 4 -7 4 -15z m1 -138
c2 -94 4 -109 20 -118 27 -14 24 -39 -3 -36 -17 1 -23 -3 -23 -18 0 -13 8 -21
23 -23 31 -5 28 -30 -5 -34 -18 -2 -29 -10 -31 -22 -3 -16 1 -18 27 -14 25 4
31 1 31 -14 0 -10 -8 -21 -17 -25 -10 -3 -24 -11 -31 -16 -18 -14 3 -36 28
-30 30 8 28 -57 -2 -76 -22 -13 -22 -14 -2 -30 35 -30 13 -82 -32 -73 -31 6
-42 22 -15 22 25 0 29 37 6 46 -36 14 -60 -55 -32 -93 4 -6 7 -17 6 -25 -3
-27 2 -38 18 -38 15 0 15 -1 0 -18 -19 -21 -13 -32 17 -32 14 -1 8 -7 -21 -21
-42 -19 -56 -43 -30 -52 9 -3 7 -10 -6 -25 -26 -29 -13 -48 19 -28 13 9 32 16
42 16 11 0 25 7 32 14 8 10 18 12 33 7 12 -5 29 -6 37 -3 12 4 13 3 3 -10 -7
-8 -37 -20 -68 -27 -30 -7 -58 -17 -61 -23 -10 -17 25 -39 45 -28 36 19 85 30
94 21 16 -16 -1 -41 -27 -41 -39 0 -106 -30 -106 -47 0 -16 12 -16 98 3 25 5
32 3 32 -9 0 -19 -12 -27 -48 -33 -55 -9 -72 -15 -72 -25 0 -15 31 -23 49 -12
9 6 25 7 36 2 11 -4 18 -8 15 -9 -3 -1 -25 -7 -49 -13 -41 -11 -46 -16 -60
-58 -18 -51 -37 -79 -55 -79 -24 0 -56 -41 -56 -71 0 -26 3 -29 20 -24 16 5
20 2 20 -19 0 -14 -4 -26 -10 -26 -5 0 -10 5 -10 10 0 6 -6 10 -13 10 -8 0
-26 25 -42 55 -15 30 -31 52 -36 49 -15 -9 -10 40 7 82 34 82 47 111 85 186
24 48 35 79 28 84 -6 4 -8 30 -5 68 3 33 8 156 11 271 3 116 8 242 11 280 7
96 12 191 13 248 1 26 6 47 11 47 6 0 10 -8 11 -17 0 -15 3 -14 16 5 9 12 17
21 19 19 2 -2 4 -51 5 -110z m506 -127 c-8 -37 24 -65 55 -49 18 10 19 7 12
-25 -6 -34 -5 -36 20 -36 33 0 41 -18 23 -53 -13 -25 -15 -26 -28 -11 -8 10
-33 26 -55 36 -23 10 -45 25 -48 34 -4 11 -14 15 -31 12 -14 -3 -25 -2 -25 3
0 4 -3 14 -6 22 -3 10 0 14 12 14 12 -2 21 11 31 41 17 50 49 61 40 12z m3543
-17 c0 -6 -41 -66 -50 -73 -4 -3 -6 -30 -6 -61 1 -39 -4 -63 -15 -75 -9 -11
-20 -35 -24 -54 -11 -56 -16 -70 -26 -70 -16 0 -78 -44 -84 -60 -14 -37 -37
-70 -49 -70 -7 0 -25 -9 -40 -21 -30 -24 -35 -71 -11 -106 9 -13 13 -34 10
-55 -4 -25 -15 -497 -15 -608 0 -12 -2 -12 -15 1 -26 26 -35 121 -25 253 5 66
10 125 10 129 0 5 -4 6 -10 2 -5 -3 -10 24 -12 67 -3 70 -4 73 -28 73 -22 0
-25 -4 -22 -35 1 -19 -4 -94 -12 -166 -11 -105 -11 -143 -1 -195 16 -84 68
-187 101 -199 22 -9 25 -15 22 -52 l-3 -43 -57 -6 c-32 -4 -65 -12 -73 -19
-22 -19 -18 -52 10 -83 14 -15 21 -27 16 -27 -5 0 -12 4 -15 9 -4 5 -25 12
-48 16 -23 4 -49 11 -58 16 -8 4 -51 22 -95 39 -44 18 -118 50 -165 72 -80 37
-103 47 -140 62 -8 3 -37 20 -65 36 -27 17 -75 42 -105 56 -47 22 -164 88
-180 102 -3 2 7 14 22 27 15 13 30 35 34 49 3 14 10 24 14 23 17 -4 101 137
111 187 6 28 19 63 29 77 10 15 26 42 34 60 25 52 47 88 97 159 26 36 53 81
61 100 8 19 37 55 64 79 27 25 79 72 115 107 37 34 80 70 95 80 16 10 31 21
34 24 17 19 84 63 139 90 89 44 193 72 273 74 38 0 68 4 68 8 0 3 8 4 19 1 10
-3 22 0 25 5 6 10 46 5 46 -5z m-480 -23 c0 -5 -2 -10 -4 -10 -3 0 -8 5 -11
10 -3 6 -1 10 4 10 6 0 11 -4 11 -10z m-30 -50 c-14 -10 -26 -17 -28 -16 -7 8
12 35 26 39 28 6 28 -3 2 -23z m-871 -34 l25 -14 -44 -22 c-60 -31 -87 -57
-73 -71 8 -8 22 -9 40 -3 57 16 123 4 123 -23 0 -12 -6 -13 -27 -7 -72 21
-127 4 -135 -41 -3 -18 4 -21 54 -25 31 -3 59 -8 63 -12 14 -14 -6 -26 -41
-26 -41 0 -104 -30 -104 -49 0 -14 15 -17 71 -14 20 2 40 -2 44 -8 8 -15 -37
-31 -85 -31 -42 0 -50 10 -50 68 -1 35 -2 36 -15 18 -13 -17 -15 -18 -15 -3 0
9 -4 17 -10 17 -5 0 -10 -7 -10 -15 0 -16 -34 -38 -44 -28 -3 3 -6 18 -6 32 0
38 -14 54 -39 46 -12 -4 -22 -2 -22 4 -5 29 -3 34 14 37 10 1 54 39 97 83 46
46 89 81 99 81 11 0 23 5 26 10 8 14 35 12 64 -4z m99 -50 c5 -24 -14 -19 -32
9 -16 24 -15 24 6 16 13 -5 24 -16 26 -25z m-2320 -16 c-19 -33 -24 -36 -26
-19 -2 11 4 29 14 40 29 32 36 21 12 -21z m2672 -34 c12 -12 77 20 93 45 6 10
15 19 19 19 13 0 9 -23 -8 -41 -22 -24 -12 -49 16 -42 14 4 26 -1 35 -13 20
-27 19 -30 -20 -60 -27 -20 -39 -24 -47 -16 -9 9 -9 15 0 24 7 7 12 16 12 20
0 14 -27 9 -40 -7 -7 -9 -29 -15 -52 -15 -34 0 -39 3 -33 19 3 11 1 40 -6 65
-9 37 -9 49 2 63 13 15 14 13 17 -18 2 -19 7 -38 12 -43z m-2575 44 c3 -5 -1
-10 -9 -10 -8 0 -18 5 -21 10 -3 6 1 10 9 10 8 0 18 -4 21 -10z m-355 -15 c-7
-8 -18 -15 -24 -15 -6 0 -2 7 8 15 25 19 32 19 16 0z m128 -14 c14 -8 -28 -21
-71 -21 -27 0 -10 17 23 23 14 2 27 5 30 5 3 1 11 -2 18 -7z m-110 -23 c-2 -6
-10 -14 -16 -16 -7 -2 -10 2 -6 12 7 18 28 22 22 4z m162 -9 c0 -6 -4 -7 -10
-4 -5 3 -10 11 -10 16 0 6 5 7 10 4 6 -3 10 -11 10 -16z m247 -2 c10 -10 13
-23 8 -38 l-8 -24 -8 24 c-6 14 -15 21 -24 17 -8 -3 -17 -1 -20 5 -10 15 -25
0 -25 -24 0 -16 -3 -18 -12 -9 -17 17 -38 15 -38 -3 0 -8 -7 -15 -15 -15 -19
0 -20 42 -2 71 11 18 19 20 71 16 32 -3 65 -12 73 -20z m-757 -24 c-1 -24 -2
-26 -11 -10 -5 9 -7 22 -4 27 10 17 15 11 15 -17z m1715 -2 c-4 -14 4 -28 35
-52 46 -37 50 -53 18 -70 -39 -19 -128 -112 -128 -133 0 -24 28 -56 48 -56 9
0 26 10 39 21 l22 22 10 -26 c5 -14 19 -28 29 -31 20 -7 71 8 73 21 1 5 3 20
5 35 5 49 19 61 70 66 27 2 64 10 83 18 18 8 35 14 36 14 5 0 -4 -80 -15 -139
-6 -30 -10 -72 -10 -92 0 -41 -16 -56 -68 -65 -36 -7 -102 -29 -154 -53 -66
-30 -141 -33 -207 -8 -91 35 -118 79 -77 128 14 17 26 39 26 49 0 24 45 167
77 245 13 33 38 75 56 93 36 37 41 39 32 13z m-1255 0 c0 -15 -23 -29 -79 -45
-70 -20 -83 -20 -79 1 2 13 23 22 73 34 88 21 85 21 85 10z m-184 -35 c-3 -14
-2 -27 2 -30 12 -7 -12 -99 -26 -104 -21 -7 -24 25 -6 53 19 29 12 45 -14 28
-15 -9 -17 -7 -16 16 0 17 11 31 30 43 37 23 37 23 30 -6z m-316 4 c0 -5 -10
-15 -22 -21 -33 -17 -33 -17 -7 -38 13 -11 20 -20 14 -20 -10 0 -70 49 -64 52
2 1 18 10 34 19 34 20 45 22 45 8z m42 -105 c2 -52 2 -95 1 -95 -2 0 -14 18
-28 40 -24 38 -24 42 -10 57 12 11 15 26 11 48 -6 30 -1 45 15 45 4 0 9 -43
11 -95z m2438 71 c0 -18 -9 -27 -40 -40 -37 -15 -40 -18 -34 -43 4 -16 11 -31
16 -34 5 -3 11 -57 14 -120 3 -63 7 -120 9 -126 3 -7 -3 -13 -11 -13 -25 0
-74 -40 -74 -60 0 -19 -37 -47 -47 -36 -3 3 -9 37 -12 75 -4 39 -10 73 -14 77
-3 4 -18 -1 -33 -11 -26 -17 -26 -18 -19 -100 4 -50 3 -85 -3 -89 -14 -8 -30
16 -26 39 6 39 7 186 0 192 -3 4 -17 0 -31 -7 -19 -10 -25 -22 -28 -59 -3 -38
-4 -34 -5 19 -1 56 28 236 39 243 2 1 13 8 24 14 40 26 161 86 185 94 14 4 40
8 58 8 27 1 32 -2 32 -23z m780 15 c0 -14 -18 -23 -30 -16 -6 4 -8 11 -5 16 8
12 35 12 35 0z m-2770 -30 c0 -5 -17 -12 -37 -16 -21 -3 -49 -9 -63 -12 -36
-8 -18 6 27 22 44 16 73 19 73 6z m101 -52 c-10 -23 -10 -23 -10 7 -1 17 2 34
7 38 11 12 14 -18 3 -45z m2735 -9 c-20 -22 -36 -46 -36 -54 0 -20 -56 -46
-98 -46 -42 0 -125 -39 -173 -81 l-34 -30 34 7 c18 3 48 15 67 26 19 11 56 21
88 23 l55 3 -16 -24 c-8 -13 -23 -24 -33 -24 -10 0 -48 -14 -85 -30 -37 -17
-71 -27 -77 -24 -5 3 -18 -2 -28 -11 -25 -22 -47 -10 -26 14 12 13 13 20 5 28
-8 8 -2 20 25 45 46 42 46 56 1 28 -45 -28 -45 -13 0 24 19 16 32 33 29 37 -2
5 8 15 24 23 28 14 51 46 33 46 -13 0 -124 -83 -148 -110 -12 -14 -25 -22 -29
-18 -9 9 107 123 145 143 15 7 83 19 152 25 68 7 126 14 128 16 2 2 11 4 19 4
9 0 1 -15 -22 -40z m800 10 c7 -7 -6 -27 -38 -60 -26 -28 -50 -50 -53 -50 -16
0 0 37 32 76 40 47 44 49 59 34z m-2196 -10 c0 -5 -4 -10 -10 -10 -5 0 -10 5
-10 10 0 6 5 10 10 10 6 0 10 -4 10 -10z m-1505 -31 c-31 -12 -45 -10 -45 5 0
19 21 25 45 13 19 -10 19 -10 0 -18z m335 11 c-11 -21 -22 -25 -33 -13 -9 9
12 33 30 33 11 0 11 -4 3 -20z m1764 5 c-6 -16 -24 -21 -24 -7 0 11 11 22 21
22 5 0 6 -7 3 -15z m-2254 -67 c0 -10 8 -18 18 -18 16 -1 16 -1 -1 -11 -25
-15 -37 -3 -37 39 0 28 3 33 10 22 5 -8 10 -23 10 -32z m-357 12 c-3 -12 -8
-19 -11 -16 -5 6 5 36 12 36 2 0 2 -9 -1 -20z m557 11 c0 -6 -4 -13 -10 -16
-13 -8 -13 -62 1 -70 5 -4 19 1 30 11 14 13 23 14 30 7 15 -15 2 -33 -24 -33
-12 0 -29 -5 -37 -10 -13 -8 -13 -13 -2 -30 7 -11 10 -25 7 -30 -7 -11 14 -24
40 -24 40 -2 30 -21 -12 -24 -33 -2 -43 -7 -43 -21 0 -9 -5 -22 -11 -28 -21
-21 -3 -43 30 -37 39 8 62 -1 55 -21 -4 -9 -19 -15 -39 -15 -41 0 -61 -21 -46
-48 6 -11 8 -22 4 -25 -3 -3 -2 -14 2 -24 11 -26 6 -54 -16 -82 -10 -13 -19
-36 -19 -51 0 -26 3 -28 60 -34 76 -9 78 -21 3 -21 -47 0 -58 -3 -61 -17 -3
-16 5 -18 57 -18 72 0 84 -19 14 -21 -65 -2 -73 -3 -73 -11 0 -5 0 -11 0 -15
0 -5 24 -9 53 -11 28 -2 56 -7 61 -12 11 -11 -38 -25 -59 -16 -21 8 -45 -3
-45 -20 0 -10 15 -14 55 -14 49 0 55 -2 55 -20 0 -17 -4 -19 -27 -13 -47 12
-67 9 -71 -9 -3 -14 3 -18 27 -18 32 0 42 -14 16 -24 -9 -3 -15 -18 -15 -40 0
-41 -14 -48 -64 -31 -47 17 -50 19 -38 42 5 10 10 95 11 188 0 94 3 184 6 200
2 17 9 87 14 157 5 69 14 135 19 144 7 12 7 25 0 37 -6 12 -6 34 1 66 5 26 8
56 5 67 -3 13 2 23 18 30 30 15 38 16 38 5z m1134 -46 c-7 -16 -24 -21 -24 -6
0 8 7 13 27 20 1 1 0 -6 -3 -14z m1191 -15 c-3 -5 -15 -10 -26 -10 -29 0 -23
-27 9 -35 l27 -7 -25 -10 -25 -9 33 -21 c37 -23 35 -38 -3 -18 -14 7 -26 11
-28 9 -2 -2 -13 -17 -25 -32 l-21 -28 5 73 c3 53 9 76 21 86 20 14 67 16 58 2z
m1188 -20 c-5 -19 -23 -39 -23 -25 0 9 20 45 24 45 2 0 2 -9 -1 -20z m-2981
-94 c0 -46 -3 -89 -7 -95 -12 -20 -25 -1 -25 36 0 42 22 155 28 148 3 -2 5
-43 4 -89z m1653 -7 c8 -20 12 -39 9 -41 -2 -3 -5 -46 -5 -96 l-1 -92 -26 32
c-16 19 -25 41 -24 55 5 38 -17 89 -43 101 -21 10 -24 16 -19 44 10 56 11 58
42 52 19 -4 33 -1 38 7 7 11 9 9 12 -6 2 -11 9 -36 17 -56z m-2614 8 c-1 -4
-1 -14 -1 -22 0 -8 -4 -15 -9 -15 -12 0 -23 29 -15 41 6 11 26 8 25 -4z m1479
3 c0 -5 -2 -10 -4 -10 -3 0 -8 5 -11 10 -3 6 -1 10 4 10 6 0 11 -4 11 -10z
m2504 -307 c-1 -164 -3 -311 -3 -326 -1 -43 -21 -21 -21 23 0 21 -5 42 -11 46
-17 10 -2 445 17 489 7 18 11 35 8 38 -6 5 3 27 10 27 2 0 2 -134 0 -297z
m-1129 224 c4 -17 14 -44 21 -59 9 -18 11 -34 5 -50 -8 -21 -10 -20 -20 19 -6
23 -19 46 -27 51 -12 7 -14 17 -9 45 8 43 21 40 30 -6z m-119 5 c-22 -5 -30 3
-21 18 5 8 11 7 22 -2 15 -12 14 -13 -1 -16z m-1316 -39 c-16 -50 -30 -64 -30
-31 0 39 21 91 32 80 7 -7 6 -23 -2 -49z m1640 47 c0 -5 -5 -10 -11 -10 -5 0
-7 5 -4 10 3 6 8 10 11 10 2 0 4 -4 4 -10z m-646 -52 c-10 -16 -22 -7 -17 13
4 15 8 17 14 8 4 -7 5 -17 3 -21z m-302 -64 c-2 -24 -8 -41 -13 -38 -11 6 -12
108 -2 118 11 11 19 -29 15 -80z m386 64 c2 -10 -7 -17 -28 -21 -21 -5 -30
-12 -30 -26 0 -21 40 -51 67 -51 10 0 27 -13 36 -30 10 -16 30 -33 44 -36 25
-7 25 -7 19 -88 -10 -152 -19 -226 -26 -226 -3 0 -17 26 -29 58 -13 31 -33 81
-44 111 -24 59 -147 197 -181 203 -11 1 -21 9 -23 15 -7 22 87 -13 118 -43 16
-15 41 -45 55 -66 21 -30 30 -36 40 -27 24 19 16 42 -34 96 -33 37 -60 56 -89
64 -35 10 -41 15 -31 26 6 7 16 12 22 10 14 -5 58 17 76 38 15 18 34 15 38 -7z
m545 -52 c-9 -44 -21 -29 -21 25 0 47 1 48 13 26 7 -14 10 -37 8 -51z m-3115
-63 c-22 -54 -42 -100 -44 -102 -2 -2 -8 9 -14 25 -9 22 -8 36 6 66 9 21 23
38 30 38 6 0 21 16 33 35 35 60 31 39 -11 -62z m2769 86 c8 -8 6 -19 -4 -41
-19 -37 -5 -51 41 -42 21 5 27 3 24 -7 -3 -8 -13 -14 -24 -15 -37 -2 -44 -4
-44 -13 0 -5 10 -13 23 -17 47 -14 51 -27 11 -39 -45 -12 -58 -35 -19 -35 24
0 55 -19 55 -34 0 -3 -10 -6 -23 -6 -34 0 -39 -10 -14 -30 l22 -18 -22 -31
c-27 -35 -29 -51 -8 -51 23 0 18 -37 -6 -43 -25 -7 -16 -27 12 -27 33 0 24
-39 -11 -46 -41 -9 -38 -24 5 -24 19 0 35 -4 35 -10 0 -5 -16 -10 -36 -10 -23
0 -33 -4 -28 -11 3 -6 17 -9 30 -6 13 2 25 -1 26 -7 5 -16 -9 -497 -14 -501
-2 -1 -21 -9 -43 -17 -56 -22 -58 -41 -4 -36 34 2 44 0 44 -12 0 -11 -11 -15
-43 -13 -36 2 -43 -1 -40 -15 2 -9 20 -22 43 -28 25 -8 32 -13 20 -14 -11 -1
-24 -3 -30 -5 -5 -1 -16 -3 -22 -3 -7 -1 -13 -9 -13 -18 0 -14 8 -16 46 -11
37 4 44 2 40 -10 -3 -8 -6 -24 -6 -36 0 -14 -3 -18 -8 -10 -11 17 -62 28 -62
13 0 -6 -6 -8 -12 -4 -10 5 -10 4 -1 -6 6 -7 26 -15 45 -19 44 -9 45 -36 1
-36 -41 0 -42 -13 -3 -28 39 -15 43 -52 5 -45 -14 3 -30 -1 -36 -8 -8 -10 -4
-15 20 -21 17 -4 31 -11 31 -15 0 -5 0 -15 0 -24 0 -10 -6 -14 -15 -11 -8 4
-17 2 -21 -4 -3 -6 3 -13 15 -16 27 -7 27 -23 1 -30 -27 -7 -25 -20 5 -27 36
-9 31 -27 -5 -19 -17 3 -30 1 -30 -4 0 -6 13 -13 29 -16 22 -5 29 -11 29 -31
0 -22 -3 -24 -19 -15 -21 11 -43 3 -34 -12 4 -5 15 -9 26 -9 10 0 19 -4 19
-10 0 -5 -10 -10 -22 -10 -13 0 -30 -5 -38 -10 -13 -9 -13 -11 0 -20 8 -5 23
-10 33 -10 9 0 17 -7 17 -15 0 -8 -9 -15 -19 -15 -20 0 -37 -17 -28 -26 4 -4
34 -10 69 -13 13 -2 -4 -31 -18 -31 -16 0 -19 -16 -4 -25 18 -11 10 -23 -11
-18 -12 4 -29 19 -38 34 -11 20 -21 27 -33 23 -21 -6 -21 -27 -20 401 1 171 4
326 7 345 4 19 8 109 10 200 2 91 7 194 10 230 11 122 15 165 25 250 5 47 12
154 15 239 7 176 11 191 42 160z m-669 -157 c15 -5 16 -38 2 -47 -7 -4 -8 -11
-1 -18 6 -8 5 -31 -1 -64 -6 -29 -8 -64 -4 -78 6 -25 37 -59 56 -61 6 -1 16
-2 23 -3 7 -1 2 -10 -11 -21 -21 -18 -23 -27 -25 -134 -3 -165 -29 -175 -71
-26 -8 30 -24 86 -36 125 -11 38 -20 87 -20 109 0 39 -41 205 -63 256 -6 14
-18 33 -25 42 -16 20 -7 25 98 57 l55 17 5 -75 c3 -47 10 -76 18 -79z m735
139 c2 -10 1 -25 -4 -32 -6 -10 -9 -4 -9 19 0 36 5 42 13 13z m72 9 c3 -5 1
-10 -4 -10 -6 0 -11 5 -11 10 0 6 2 10 4 10 3 0 8 -4 11 -10z m-1885 -30 c0
-5 -6 -10 -14 -10 -8 0 -18 5 -21 10 -3 6 3 10 14 10 12 0 21 -4 21 -10z
m-360 -21 c0 -5 9 -9 20 -9 13 0 20 -7 20 -20 0 -24 -22 -26 -40 -5 -7 8 -21
15 -31 15 -25 0 -33 17 -12 28 18 11 43 5 43 -9z m-115 -9 c-3 -5 -17 -10 -31
-10 -14 0 -22 4 -19 10 3 6 17 10 31 10 14 0 22 -4 19 -10z m2377 -8 c16 6 59
-62 74 -117 6 -22 14 -48 19 -57 4 -11 3 -18 -3 -18 -6 0 -23 27 -39 60 -28
60 -33 63 -75 45 -14 -5 -18 -2 -18 14 0 14 6 21 19 21 11 0 23 5 27 11 8 14
-14 29 -33 22 -8 -3 -13 3 -13 17 0 19 3 20 15 10 8 -6 20 -10 27 -8z m-1067
-21 c-3 -10 1 -23 9 -31 19 -15 73 -187 87 -272 6 -35 19 -101 30 -148 37
-154 61 -210 101 -238 10 -8 30 -31 43 -52 22 -35 23 -40 10 -76 -12 -36 -12
-41 8 -62 21 -22 21 -23 1 -41 -10 -11 -37 -22 -59 -26 -55 -8 -92 20 -101 76
-5 28 -11 39 -24 39 -25 0 -77 -68 -96 -124 -9 -25 -20 -48 -25 -52 -10 -6
-12 6 -13 95 -1 35 -6 66 -11 68 -24 8 -46 -25 -60 -89 -14 -68 -39 -127 -59
-140 -14 -10 -76 -10 -76 -1 0 5 18 55 39 113 39 104 59 178 87 315 8 39 19
78 24 87 6 10 10 30 10 45 0 16 5 45 10 65 6 20 12 58 14 85 2 26 12 110 22
186 15 114 16 142 5 159 -11 17 -10 22 1 29 21 14 30 10 23 -10z m472 -117 c2
-75 -4 -216 -11 -313 -10 -124 -12 -198 -5 -251 5 -41 11 -100 14 -130 l4 -55
-13 51 c-7 28 -17 57 -21 64 -21 34 -36 144 -34 256 3 139 -2 156 -37 123
l-24 -22 0 25 c0 14 7 28 15 32 8 3 15 15 15 27 0 13 7 31 17 41 14 16 15 25
4 76 -7 31 -15 71 -18 89 -3 18 -12 38 -19 44 -12 10 -4 18 48 45 35 18 63 33
63 33 0 1 1 -60 2 -135z m-1527 100 c22 -9 47 -14 55 -10 8 3 15 2 15 -3 0
-39 -223 -473 -253 -492 -5 -4 -17 -5 -26 -4 -9 2 -32 4 -51 5 l-35 2 37 10
c55 15 61 47 53 284 -5 124 -4 194 3 194 5 0 13 -15 17 -32 6 -29 8 -30 14
-13 5 13 18 20 40 21 39 1 81 23 81 41 0 16 1 16 50 -3z m-250 -20 c0 -12 -4
-14 -12 -7 -7 6 -20 13 -28 16 -9 3 -3 6 13 6 19 1 27 -4 27 -15z m437 -26
c-3 -8 -6 -5 -6 6 -1 11 2 17 5 13 3 -3 4 -12 1 -19z m1467 -14 c8 -39 34 -91
56 -112 18 -17 21 -26 14 -54 -4 -18 -7 -39 -5 -45 1 -7 -3 -13 -9 -13 -11 0
-11 -2 -15 61 -2 49 -49 131 -80 142 -8 4 -15 13 -15 21 0 10 6 13 15 10 10
-4 15 0 15 12 0 23 19 6 24 -22z m-2214 6 c0 -5 -4 -10 -10 -10 -5 0 -10 5
-10 10 0 6 5 10 10 10 6 0 10 -4 10 -10z m72 -32 c-9 -9 -12 -7 -12 12 0 19 3
21 12 12 9 -9 9 -15 0 -24z m238 22 c0 -5 -5 -10 -11 -10 -5 0 -7 5 -4 10 3 6
8 10 11 10 2 0 4 -4 4 -10z m2390 -17 c0 -10 -42 -53 -52 -53 -10 0 -11 44 -1
53 8 9 53 9 53 0z m-2710 -33 c12 -8 11 -10 -5 -10 -21 0 -45 -17 -45 -31 0
-4 17 -9 38 -11 48 -4 50 -29 2 -44 -51 -17 -52 -37 -1 -32 50 4 53 -8 6 -28
-19 -8 -35 -21 -35 -30 0 -13 7 -15 35 -10 31 6 35 4 35 -14 0 -14 -6 -20 -23
-20 -30 0 -40 -10 -26 -26 19 -23 5 -30 -39 -21 l-43 8 6 42 c3 23 7 78 9 121
2 58 7 81 17 85 7 2 20 10 27 18 16 15 22 16 42 3z m298 -7 c-10 -2 -26 -2
-35 0 -10 3 -2 5 17 5 19 0 27 -2 18 -5z m405 -45 c-7 -56 -22 -81 -88 -153
l-56 -60 51 100 c75 149 78 155 89 155 5 0 7 -18 4 -42z m2021 22 c-5 -5 -25
-12 -44 -15 l-35 -6 30 15 c35 17 64 21 49 6z m26 -29 c0 -12 -50 -44 -57 -37
-6 6 37 45 50 46 4 0 7 -4 7 -9z m-530 -98 c13 -16 13 -23 -3 -23 -6 0 -17 17
-24 38 -10 32 -10 35 2 17 8 -11 19 -25 25 -32z m467 -7 c13 -4 46 -23 74 -42
28 -18 81 -48 117 -65 37 -17 114 -54 172 -81 58 -27 141 -66 185 -88 85 -41
263 -115 305 -126 33 -9 50 -23 61 -52 7 -19 4 -30 -16 -54 -14 -16 -27 -39
-30 -51 -10 -52 -16 -116 -15 -171 1 -53 -25 -156 -39 -156 -4 0 -22 18 -43
39 -25 27 -55 45 -100 60 -75 25 -148 61 -194 96 -18 14 -43 29 -56 34 -13 5
-50 31 -83 58 -56 46 -147 111 -266 190 -46 31 -99 95 -99 120 0 7 -7 13 -15
13 -13 0 -15 20 -11 139 4 132 11 175 25 153 3 -5 16 -12 28 -16z m-2603 -100
c4 -22 13 -36 26 -39 13 -3 18 -10 14 -21 -15 -38 -46 -7 -54 53 -7 55 4 61
14 7z m2086 6 c0 -16 3 -32 7 -35 3 -4 5 -35 4 -70 -3 -82 9 -111 65 -150 39
-27 43 -32 25 -35 -12 -2 -33 -21 -46 -43 -42 -65 -31 -107 35 -133 40 -16 49
-29 30 -41 -15 -9 -12 -58 5 -82 8 -12 30 -26 48 -32 l34 -11 -2 -115 c-2 -74
-7 -120 -15 -130 -9 -10 -9 -15 -1 -15 6 0 11 -6 11 -12 -1 -7 -12 0 -25 16
-13 17 -22 33 -20 36 2 4 -7 13 -21 21 -21 11 -25 19 -21 43 4 28 -17 98 -96
321 -34 97 -50 221 -44 340 3 55 6 112 6 128 1 36 21 35 21 -1z m110 9 c-17
-32 -12 -56 19 -85 21 -20 35 -26 50 -21 12 3 21 12 21 19 0 7 7 21 15 32 14
17 15 14 10 -38 -2 -32 -10 -78 -16 -103 l-12 -46 -50 5 c-66 6 -86 31 -87
102 0 48 19 113 42 142 16 18 20 15 8 -7z m-2410 -1 c0 -15 -27 -23 -47 -15
-17 7 -16 8 2 15 28 12 45 12 45 0z m2477 -34 c-4 -9 -11 -16 -17 -16 -11 0
-14 33 -3 44 11 10 26 -11 20 -28z m-374 -103 c-3 -43 -10 -82 -16 -88 -6 -7
-8 1 -3 24 3 18 6 58 6 87 0 30 4 54 9 54 6 0 7 -33 4 -77z m2210 63 c32 -2
69 -11 82 -20 13 -9 31 -16 39 -16 9 0 20 -9 26 -20 8 -16 7 -25 -7 -44 l-18
-23 -30 22 c-37 28 -70 36 -163 42 -46 3 -97 -1 -144 -12 -73 -16 -96 -11 -85
19 3 8 19 18 34 22 15 3 53 15 83 25 31 10 70 16 90 14 19 -3 61 -7 93 -9z
m59 -146 c15 -11 32 -20 37 -20 24 0 24 -107 0 -152 -7 -14 -15 -49 -18 -90
-1 -5 -13 -8 -27 -8 -36 0 -64 -17 -64 -39 0 -30 -31 -57 -88 -77 -52 -18 -54
-18 -85 0 -80 47 -89 50 -102 33 -10 -14 -14 -13 -34 14 -16 21 -19 34 -12 42
5 7 15 42 22 78 11 60 10 68 -10 107 -12 23 -25 42 -29 42 -4 0 -13 10 -21 21
-16 27 3 43 30 26 14 -9 22 -7 36 5 27 24 96 49 156 57 64 8 172 -12 209 -39z
m-579 -20 c6 -23 -3 -32 -22 -20 -15 8 -8 40 8 40 5 0 11 -9 14 -20z m-1703
-32 c-1 -26 -3 -30 -10 -16 -6 9 -7 23 -4 32 9 25 14 19 14 -16z m782 -95 c39
-26 85 -56 102 -67 17 -10 66 -45 109 -77 122 -92 352 -219 397 -219 11 0 38
-18 62 -41 52 -50 103 -75 121 -61 6 5 21 11 31 13 30 6 49 92 31 145 -13 39
-12 54 11 162 4 22 7 20 48 -23 l43 -46 16 23 c16 23 17 23 29 3 6 -11 33 -42
60 -70 26 -27 47 -53 46 -57 -2 -3 6 -17 17 -30 12 -13 29 -48 40 -78 10 -30
29 -66 42 -79 40 -41 26 -72 -33 -69 -70 2 -83 -17 -29 -46 29 -16 37 -17 50
-6 12 10 19 10 28 1 9 -9 9 -14 -3 -21 -13 -8 -13 -10 2 -10 9 0 18 -6 21 -12
3 -9 10 -7 26 6 22 20 22 20 52 -10 16 -17 36 -51 44 -77 13 -43 12 -48 -6
-71 -28 -36 -75 -35 -107 1 -12 15 -20 33 -17 41 3 8 -2 25 -10 38 -13 20 -24
24 -68 24 -91 0 -97 -4 -93 -64 2 -28 -1 -59 -6 -68 -11 -22 -62 -24 -110 -4
-48 20 -62 40 -55 79 4 29 1 36 -27 55 -54 37 -104 26 -126 -28 -7 -17 -10
-33 -7 -37 4 -3 2 -14 -4 -24 -12 -24 -99 -26 -152 -4 -57 24 -77 52 -77 106
0 41 -4 50 -29 68 -39 28 -64 26 -103 -7 -32 -28 -34 -29 -83 -17 -69 17 -107
39 -127 73 -15 25 -15 31 -2 56 19 39 18 55 -8 78 -18 16 -31 18 -67 13 -60
-9 -64 -11 -81 -48 -20 -42 -55 -48 -83 -13 -18 23 -20 40 -21 205 l-1 179 35
-32 c19 -18 57 -52 84 -77 105 -96 123 -111 176 -145 30 -20 66 -45 80 -55 29
-22 183 -99 198 -99 6 0 50 -13 99 -29 48 -16 100 -32 114 -35 14 -3 42 -16
61 -30 26 -17 39 -21 47 -13 8 8 32 7 88 -3 110 -19 141 -20 179 -4 46 19 47
50 2 39 -55 -13 -93 -12 -144 1 -27 7 -66 13 -87 14 -22 0 -53 6 -70 14 -18 8
-82 30 -143 50 -232 74 -367 154 -561 333 -75 69 -128 111 -136 107 -17 -6
-25 30 -26 120 l-2 59 21 -25 c11 -15 52 -48 92 -75z m-385 34 c7 -5 19 -7 26
-4 11 4 14 -6 13 -44 -1 -51 -4 -57 -24 -37 -9 9 -18 7 -41 -10 l-29 -21 -26
20 c-27 21 -25 40 9 93 16 24 44 26 72 3z m1303 13 c0 -5 -2 -10 -4 -10 -3 0
-8 5 -11 10 -3 6 -1 10 4 10 6 0 11 -4 11 -10z m68 -2 c-6 -18 -28 -21 -28 -4
0 9 7 16 16 16 9 0 14 -5 12 -12z m60 -80 c-3 -7 -24 -23 -48 -35 -24 -13 -52
-31 -62 -40 -17 -15 -18 -15 -18 4 0 10 6 28 14 38 23 31 123 60 114 33z
m-1858 -42 c0 -3 -4 -8 -10 -11 -5 -3 -10 -1 -10 4 0 6 5 11 10 11 6 0 10 -2
10 -4z m455 -91 c-7 -65 -7 -66 -28 -52 -12 8 -24 22 -25 31 -4 18 47 100 56
92 2 -3 1 -35 -3 -71z m-265 25 c6 -11 8 -20 6 -20 -3 0 -10 9 -16 20 -6 11
-8 20 -6 20 3 0 10 -9 16 -20z m1584 5 c-4 -8 -8 -15 -10 -15 -2 0 -4 7 -4 15
0 8 4 15 10 15 5 0 7 -7 4 -15z m592 -97 c-17 -14 -18 -19 -7 -32 7 -9 20 -16
27 -16 8 0 14 -4 14 -10 0 -5 -6 -10 -14 -10 -7 0 -19 -6 -25 -14 -9 -10 -8
-16 4 -26 11 -9 12 -16 4 -26 -15 -18 -6 -39 16 -39 12 0 21 -10 26 -27 5 -21
4 -28 -7 -28 -26 0 -42 -42 -39 -100 2 -30 7 -125 10 -210 6 -178 9 -194 32
-165 12 15 14 16 10 3 -3 -9 -2 -31 3 -47 11 -40 -8 -42 -37 -3 -11 15 -37 39
-57 52 -38 26 -50 45 -40 62 4 6 10 6 17 -1 18 -18 37 -13 37 10 0 13 -6 20
-17 18 -30 -3 -43 1 -43 11 0 6 15 10 34 10 19 0 38 5 42 11 10 17 -12 32 -46
31 -24 0 -30 3 -28 16 2 12 15 18 41 20 39 3 43 8 28 31 -7 10 -20 12 -49 7
-37 -5 -40 -4 -35 15 5 18 11 20 39 16 38 -6 52 6 33 29 -9 11 -25 15 -51 12
-36 -3 -38 -2 -38 24 0 27 2 28 50 28 30 0 50 4 50 11 0 6 -6 9 -13 6 -7 -3
-19 4 -26 15 -9 14 -19 18 -37 14 -17 -5 -24 -2 -24 9 0 8 9 15 21 15 11 0 17
5 14 10 -10 16 7 12 27 -7 14 -13 21 -14 30 -5 19 19 -13 44 -56 44 -20 0 -36
4 -36 9 0 14 40 30 60 24 21 -7 33 6 24 29 -4 11 -19 16 -45 16 -28 0 -39 4
-39 15 0 15 3 16 52 19 38 3 44 13 23 36 -13 15 -16 23 -8 31 16 16 4 39 -21
39 -11 0 -28 5 -36 10 -11 7 -4 10 26 10 40 0 66 21 44 35 -6 4 -10 11 -10 16
0 6 4 7 10 4 5 -3 18 -2 27 4 28 16 36 -38 9 -61z m-2286 6 c29 -46 67 -92
195 -239 101 -114 113 -134 136 -222 23 -88 36 -287 20 -307 -13 -15 -4 -155
11 -173 6 -7 19 -13 29 -13 26 0 24 -20 -5 -63 -20 -29 -22 -36 -9 -41 8 -3
24 -1 35 5 11 6 24 7 29 2 14 -14 23 -151 11 -176 -6 -12 -13 -34 -16 -49 -8
-35 -36 -50 -97 -52 -26 -1 -51 -5 -55 -9 -14 -14 -44 -7 -45 11 -10 117 -17
132 -64 132 -44 0 -68 -24 -60 -60 3 -16 2 -31 -4 -34 -11 -7 -5 -73 9 -112
13 -34 13 -36 -10 -30 -11 3 -30 8 -42 12 -22 5 -22 5 -4 -10 26 -21 11 -20
-25 1 -51 30 -50 73 2 73 45 0 34 51 -13 56 -12 1 -26 3 -30 3 -5 1 -8 5 -8 9
0 5 21 9 46 9 48 1 71 13 60 32 -4 6 -17 11 -30 11 -61 0 -111 40 -60 48 45 7
47 12 19 37 l-29 24 25 4 c121 23 134 24 153 11 14 -10 23 -10 32 -3 7 6 39
11 70 12 41 2 60 7 68 19 15 24 6 28 -60 33 -33 3 -74 8 -92 11 -18 4 -38 2
-46 -5 -18 -15 -127 -21 -131 -7 -2 6 -11 38 -21 71 -24 81 -20 135 15 207 27
58 28 61 11 78 -10 10 -32 21 -49 25 -20 4 -52 30 -98 81 -37 42 -99 101 -138
132 -82 68 -107 88 -149 124 -17 15 -35 28 -39 28 -4 0 -13 5 -20 10 -7 6 -41
30 -76 53 -36 23 -66 47 -68 53 -2 7 14 14 40 18 31 5 55 17 83 43 21 21 44
36 49 34 47 -15 98 10 109 54 3 13 11 36 16 50 l10 27 35 -31 c20 -17 41 -31
48 -32 7 0 23 -2 37 -4 33 -3 83 17 117 49 15 14 31 26 36 26 4 0 21 -21 37
-46z m119 10 c-16 -17 -26 -21 -33 -14 -8 8 -4 17 14 30 33 25 47 14 19 -16z
m1707 -1 c-7 -7 -26 7 -26 19 0 6 6 6 15 -2 9 -7 13 -15 11 -17z m220 -127
c15 -58 32 -79 59 -74 19 4 21 -1 23 -66 l3 -70 -23 21 c-13 12 -35 25 -51 28
-28 7 -46 43 -32 65 4 7 -4 24 -18 38 -13 15 -30 43 -36 62 -10 30 -9 37 5 47
29 21 57 1 70 -51z m-87 -49 c23 -23 10 -29 -14 -7 -20 19 -25 33 -24 69 l1
46 13 -49 c8 -27 18 -53 24 -59z m161 53 c0 -39 -3 -48 -14 -44 -20 8 -26 29
-19 64 10 51 33 37 33 -20z m93 33 c-7 -2 -21 -2 -30 0 -10 3 -4 5 12 5 17 0
24 -2 18 -5z m-3073 -178 c-7 -9 -15 -13 -17 -11 -7 7 7 26 19 26 6 0 6 -6 -2
-15z m2922 -78 c27 -23 85 -117 71 -116 -9 0 -113 123 -113 133 0 11 15 5 42
-17z m278 -247 c0 -5 -5 -10 -11 -10 -5 0 -7 5 -4 10 3 6 8 10 11 10 2 0 4 -4
4 -10z m-4337 -280 c6 -23 -41 -119 -82 -165 -59 -68 -93 -133 -89 -172 3 -33
0 -38 -19 -41 -20 -3 -22 1 -20 35 2 33 -1 38 -18 35 -59 -9 -60 -9 -59 29 1
45 66 153 106 177 16 9 38 32 49 51 11 18 23 31 26 28 3 -4 1 -12 -4 -19 -19
-23 -25 -74 -10 -86 19 -16 87 58 87 96 0 16 5 33 12 40 15 15 15 16 21 -8z
m-28 -221 c-9 -34 -26 -55 -53 -63 -34 -11 -29 26 9 69 34 38 55 35 44 -6z
m1938 -86 c4 -19 2 -33 -3 -33 -6 0 -10 17 -10 37 0 43 5 41 13 -4z m606 -151
c8 -25 5 -34 -14 -52 l-24 -22 -7 36 c-5 28 -2 41 11 56 21 23 23 23 34 -18z
m-329 -107 c0 -1 -5 -16 -11 -34 -9 -24 -7 -47 5 -104 15 -66 22 -79 62 -116
41 -38 44 -44 31 -59 -8 -9 -19 -30 -25 -47 l-10 -30 -11 28 c-6 16 -11 34
-11 41 0 14 -36 120 -69 205 -20 50 -27 102 -16 113 6 5 55 8 55 3z m336 -93
c12 -42 21 -78 19 -80 -7 -7 -26 39 -35 85 -5 27 -12 57 -16 68 -4 11 -3 17 1
12 5 -4 19 -42 31 -85z m63 -192 c13 -36 39 -107 58 -158 l34 -93 -20 -24
c-11 -15 -17 -34 -14 -45 4 -16 2 -19 -11 -14 -10 4 -14 13 -11 24 3 10 -3 46
-14 81 -17 57 -43 184 -58 279 -7 50 9 27 36 -50z m169 -200 c-24 -30 -43 -34
-43 -9 0 8 10 18 23 24 12 5 22 13 22 18 0 4 5 5 10 2 6 -4 1 -18 -12 -35z
m-12 -89 c-3 -4 2 -44 11 -87 9 -44 15 -90 15 -104 -1 -14 10 -60 24 -102 14
-43 23 -82 19 -88 -12 -20 -24 -9 -36 33 -6 23 -23 76 -36 117 -15 43 -27 110
-30 158 -6 79 -5 82 16 82 12 0 20 -4 17 -9z m384 -91 c14 -11 20 -20 13 -20
-7 0 -29 -11 -49 -25 -20 -14 -47 -25 -60 -25 -12 0 -35 -10 -51 -23 -15 -12
-41 -29 -58 -36 -16 -7 -38 -17 -47 -22 -36 -18 -42 -6 -55 102 l-5 46 121 -1
c84 -1 124 3 132 12 18 17 30 15 59 -8z M3250 7874 c0 -9 5 -14 12 -12 18 6
21 28 4 28 -9 0 -16 -7 -16 -16z M859 6442 c-14 -12 -20 -25 -16 -36 6 -15 10
-15 39 6 18 13 35 24 38 26 5 3 -21 22 -31 22 -4 0 -17 -8 -30 -18z M710 4936
c0 -30 15 -42 24 -20 10 27 7 44 -9 44 -9 0 -15 -9 -15 -24z M736 4771 c-7
-10 18 -34 27 -25 7 8 -3 34 -13 34 -5 0 -11 -4 -14 -9z M4538 5024 c-8 -15 8
-217 20 -239 5 -11 19 -28 30 -38 26 -23 39 -5 19 26 -15 24 -27 63 -34 117
-9 66 -29 144 -35 134z M2645 5651 c-7 -12 12 -24 25 -16 11 7 4 25 -10 25 -5
0 -11 -4 -15 -9z M3786 5533 c-11 -12 -23 -20 -28 -17 -4 3 -8 -4 -8 -16 0
-17 4 -20 23 -15 32 10 39 20 35 46 l-3 24 -19 -22z M3782 5178 c5 -15 37 -18
41 -3 1 6 -9 12 -22 13 -16 3 -22 -1 -19 -10z M3815 5120 c-8 -13 20 -24 41
-16 20 8 9 26 -16 26 -10 0 -22 -5 -25 -10z M3835 4900 c-10 -16 -4 -19 39
-24 31 -4 37 -2 34 12 -4 20 -62 29 -73 12z M3810 4828 c0 -50 20 -162 31
-172 6 -6 13 -6 21 2 12 12 11 16 -17 152 -2 8 -4 23 -4 33 -1 9 -8 17 -16 17
-10 0 -15 -10 -15 -32z M3862 4828 c3 -7 17 -14 32 -16 20 -3 27 0 24 10 -3 7
-17 14 -32 16 -20 3 -27 0 -24 -10z M4530 5210 c0 -11 4 -20 9 -20 11 0 22 26
14 34 -12 12 -23 5 -23 -14z M2436 4119 c-33 -39 -35 -72 -3 -67 14 2 23 11
25 25 2 12 9 27 17 33 14 11 10 40 -5 40 -5 0 -20 -14 -34 -31z M3380 4040 c0
-5 5 -10 10 -10 6 0 10 5 10 10 0 6 -4 10 -10 10 -5 0 -10 -4 -10 -10z M894
3636 c-9 -24 3 -33 36 -28 22 3 30 9 28 21 -4 21 -56 28 -64 7z M917 3544
c-17 -18 -6 -35 21 -32 16 2 27 9 27 18 0 16 -36 26 -48 14z M877 3444 c-19
-19 -6 -35 26 -32 39 4 45 32 7 36 -14 2 -29 0 -33 -4z M4362 2999 c-20 -7
-21 -11 -10 -34 8 -19 9 -31 2 -43 -13 -20 -7 -42 10 -42 17 0 37 45 30 65 -4
8 -2 15 4 15 16 0 20 -22 9 -53 -5 -15 -7 -37 -4 -48 5 -18 2 -21 -24 -17 -22
3 -29 1 -29 -12 0 -26 21 -40 62 -40 30 0 37 4 36 18 -1 9 4 36 11 59 13 39
12 46 -5 78 -23 43 -61 65 -92 54z M1660 4930 c-83 -13 -200 -78 -200 -111 0
-40 61 -55 100 -24 37 29 111 65 134 65 36 0 40 -16 8 -29 -15 -6 -48 -29 -72
-50 -38 -33 -43 -42 -34 -58 17 -28 59 -28 97 1 24 19 46 26 76 26 47 0 52
-16 12 -36 -45 -23 -67 -78 -36 -90 17 -7 135 106 135 129 0 8 -17 36 -38 63
-21 27 -37 56 -35 65 4 17 -65 60 -90 58 -7 -1 -32 -5 -57 -9z M73 4663 c-17
-3 -23 -11 -23 -30 0 -25 1 -25 18 -10 33 30 44 21 36 -29 l-7 -47 61 5 c57 4
60 3 50 -15 -17 -32 8 -46 34 -20 18 19 20 26 10 47 -13 30 -56 44 -77 26 -9
-7 -19 -10 -23 -6 -4 4 1 12 11 17 26 15 21 37 -13 54 -29 15 -36 16 -77 8z
M1875 4596 c-65 -20 -83 -36 -146 -128 -57 -83 -82 -148 -102 -258 -4 -24 -4
-24 -6 3 -2 47 39 208 59 235 34 43 19 76 -23 49 -31 -20 -63 -89 -84 -178
-18 -78 -19 -108 -8 -226 7 -67 9 -73 30 -73 20 0 24 7 30 48 7 56 19 80 29
63 4 -6 12 -9 17 -6 5 4 9 1 9 -4 0 -18 28 -12 34 7 2 9 8 42 11 72 9 67 32
121 84 198 23 33 41 62 41 66 0 18 -30 1 -64 -36 -21 -24 -34 -36 -29 -28 58
93 85 128 106 139 21 11 27 10 48 -11 14 -12 32 -35 42 -50 20 -32 42 -36 55
-10 13 25 -3 72 -38 110 -34 35 -38 36 -95 18z M1548 4550 c-9 -6 -27 -26 -39
-46 -22 -36 -22 -37 -4 -50 26 -19 30 -18 45 14 7 15 19 39 26 53 18 36 6 48
-28 29z M4400 3977 c0 -21 32 -45 65 -49 38 -4 43 25 5 30 -14 2 -29 10 -33
18 -10 18 -37 18 -37 1z M82 3928 c2 -9 -6 -24 -17 -32 -24 -17 -17 -27 13
-19 23 6 28 28 11 53 -8 13 -9 13 -7 -2z M4346 3932 c-4 -8 -3 -36 8 -144 3
-30 39 -68 66 -68 9 0 21 -5 26 -10 15 -15 44 -1 44 21 0 10 7 19 15 19 36 0
35 80 -2 112 -26 22 -87 41 -91 28 -5 -13 -32 -13 -32 0 0 6 5 10 12 10 6 0 3
9 -7 20 -19 21 -31 25 -39 12z m147 -114 c6 -21 2 -36 -7 -27 -10 11 -16 49
-8 49 5 0 12 -10 15 -22z m-65 -13 c-4 -16 0 -29 10 -34 10 -6 11 -10 3 -15
-19 -12 -51 4 -51 25 0 12 4 17 11 14 6 -4 13 2 16 14 8 30 16 26 11 -4z M50
3820 c0 -36 2 -40 18 -32 9 5 23 7 30 5 10 -4 13 4 10 28 -2 29 -7 35 -30 37
-27 3 -28 1 -28 -38z M1858 3513 c-23 -27 -30 -57 -18 -87 22 -58 67 -39 77
33 8 62 -25 92 -59 54z M50 3380 c0 -5 5 -10 10 -10 6 0 10 5 10 10 0 6 -4 10
-10 10 -5 0 -10 -4 -10 -10z M1825 3355 c-15 -16 -25 -37 -25 -55 0 -16 -5
-41 -10 -56 -9 -23 -7 -31 9 -48 19 -19 21 -19 40 -2 12 11 24 43 32 86 17
100 3 123 -46 75z M4813 3079 c-14 -14 17 -83 42 -93 28 -10 27 21 -1 63 -31
47 -27 44 -41 30z M4812 2948 c-16 -16 -15 -59 4 -126 21 -73 49 -128 69 -136
9 -3 21 -19 26 -36 6 -16 18 -30 26 -30 13 0 15 10 11 55 -5 63 -19 85 -42 66
-18 -15 -34 5 -17 22 8 8 7 15 -4 26 -7 9 -19 39 -26 66 -19 82 -32 108 -47
93z M4843 2635 c-14 -24 9 -104 59 -205 33 -68 42 -80 46 -61 2 13 -8 47 -22
75 -14 28 -33 82 -40 120 -16 76 -29 97 -43 71z M4931 2496 c-12 -14 -12 -21
-1 -44 13 -26 14 -26 18 -4 2 12 2 32 0 44 -3 20 -4 20 -17 4z M1702 2453
c-24 -31 -28 -43 -21 -67 5 -19 3 -35 -6 -50 -17 -27 -55 -145 -54 -171 0 -11
-9 -68 -19 -127 -23 -123 -30 -206 -37 -403 -3 -77 -7 -165 -10 -195 -14 -181
-18 -217 -27 -240 -6 -14 -12 -34 -13 -45 -3 -20 -21 -124 -49 -280 -8 -44
-22 -99 -30 -123 -8 -23 -16 -46 -17 -50 -1 -4 -3 -11 -4 -17 -4 -17 -76 -217
-97 -271 -11 -28 -34 -66 -50 -85 -30 -34 -30 -34 -8 -37 14 -2 32 5 46 20 27
27 135 231 139 262 1 11 16 57 33 101 33 90 41 128 47 231 2 38 9 82 14 97 6
14 11 45 13 69 1 24 9 64 18 89 11 30 14 53 9 68 -5 12 -5 41 0 64 10 47 19
176 26 377 12 327 60 580 127 674 32 46 33 49 13 70 -14 14 -13 17 10 32 32
21 33 44 1 44 -16 0 -34 -13 -54 -37z M1507 2349 c-16 -9 -31 -38 -92 -174
-37 -81 -52 -213 -57 -485 -1 -85 -8 -180 -15 -210 -7 -30 -12 -89 -12 -130 1
-89 -22 -204 -63 -320 -16 -47 -32 -96 -35 -110 -3 -14 -9 -29 -13 -35 -4 -5
-22 -57 -40 -115 -18 -58 -46 -134 -62 -170 -17 -36 -35 -76 -40 -90 -15 -39
-79 -140 -89 -140 -16 0 -9 31 18 80 15 27 24 52 20 57 -17 16 -62 -24 -95
-85 -33 -60 -34 -64 -17 -82 33 -36 108 -11 144 48 71 117 91 157 87 169 -3 7
1 16 9 21 16 8 92 214 130 352 13 47 37 130 53 185 39 132 61 234 68 320 3 39
8 79 11 90 2 11 6 126 8 255 3 248 5 267 34 339 11 25 24 61 31 79 7 18 26 51
42 73 43 59 27 109 -25 78z M4871 2326 c-18 -22 10 -112 49 -155 l30 -34 0 40
c0 21 -5 44 -11 50 -7 7 -17 33 -24 59 -13 52 -25 63 -44 40z M1917 2283 c-8
-10 -18 -39 -22 -66 -4 -26 -11 -49 -15 -52 -9 -5 -3 -66 10 -106 4 -14 4 -44
0 -65 -15 -68 -32 -157 -39 -204 -4 -25 -10 -50 -14 -56 -14 -23 -19 -125 -7
-139 10 -12 6 -40 -14 -132 -14 -65 -28 -131 -31 -148 -8 -55 -16 -90 -26
-110 -8 -19 -15 -86 -24 -245 -4 -70 -20 -200 -31 -245 -16 -66 -16 -116 0
-140 16 -24 46 -35 46 -17 0 5 -7 23 -16 41 -14 27 -14 39 -4 79 18 66 15 49
55 447 9 89 17 120 41 148 15 18 25 43 25 65 4 94 18 190 30 198 5 3 7 9 5 12
-2 4 2 32 11 62 8 30 16 89 18 130 4 88 12 140 25 176 6 14 8 29 5 33 -2 4 0
23 5 42 5 19 12 52 15 74 2 22 7 59 11 82 3 23 3 47 -1 53 -12 19 -35 -9 -35
-44 0 -43 -15 -65 -23 -34 -12 44 -7 79 18 119 33 51 19 83 -18 42z m-27 -547
c0 -39 -15 -86 -28 -86 -5 0 -4 27 1 60 11 65 27 81 27 26z M4860 2120 c-9
-16 -5 -26 23 -57 19 -21 41 -51 50 -68 l16 -30 1 48 c0 40 -6 55 -32 87 -38
45 -43 47 -58 20z M4310 2100 c-15 -15 -19 -27 -13 -43 12 -38 18 -250 7 -312
-12 -73 -2 -104 30 -92 17 7 22 86 21 309 0 151 -8 175 -45 138z M4507 2038
c-16 -12 -16 -16 1 -62 35 -97 85 -89 54 9 -21 64 -29 72 -55 53z M4423 1938
c-4 -7 -8 -29 -9 -48 -3 -124 -54 -403 -99 -535 -27 -79 -41 -150 -51 -246 -5
-55 -3 -72 14 -105 23 -45 70 -91 92 -90 22 1 24 33 2 38 -24 7 -65 90 -67
137 -2 50 20 171 43 239 51 151 113 460 116 582 1 37 -24 54 -41 28z M4558
1813 c-13 -3 -18 -20 -23 -71 -5 -60 -13 -102 -47 -237 -17 -67 -20 -128 -9
-174 7 -34 6 -54 -5 -88 -12 -35 -13 -47 -3 -59 7 -8 17 -13 22 -11 11 3 37
136 33 160 -17 86 -17 109 2 169 26 80 34 117 51 233 11 72 7 84 -21 78z
M4880 1773 c-106 -62 -140 -86 -146 -105 -3 -12 -22 -45 -40 -74 -19 -29 -34
-56 -34 -59 0 -3 -12 -24 -26 -46 -19 -31 -23 -44 -14 -53 14 -14 36 13 86
107 20 38 43 71 51 74 9 3 34 25 57 48 23 22 63 51 89 64 37 18 47 28 47 47 0
30 -14 30 -70 -3z M1223 1718 c-15 -7 -22 -22 -25 -52 -10 -92 -81 -304 -163
-480 -19 -42 -35 -80 -35 -85 0 -5 -6 -16 -12 -23 -24 -25 -66 -93 -73 -118
-4 -14 -13 -32 -19 -40 -7 -8 -23 -40 -36 -70 -13 -30 -30 -62 -37 -71 -7 -8
-13 -20 -13 -26 0 -6 -17 -35 -37 -64 -20 -30 -42 -64 -48 -77 -7 -12 -38 -49
-69 -82 -31 -33 -56 -65 -56 -71 0 -18 -38 -93 -65 -129 l-26 -35 27 -3 c34
-5 66 26 110 104 19 34 47 74 62 90 15 16 40 52 56 79 16 28 48 79 71 115 68
106 165 303 201 408 8 26 35 85 58 132 24 47 60 130 80 185 20 55 50 134 67
175 32 82 35 108 17 132 -10 12 -18 14 -35 6z M4887 1631 c-31 -30 -57 -60
-57 -66 0 -12 48 -30 56 -22 3 2 7 15 9 27 3 13 16 36 31 51 14 15 24 35 22
46 -3 15 -14 8 -61 -36z M4913 1387 c-18 -23 -44 -55 -59 -72 -59 -67 -81
-114 -90 -200 -5 -44 -43 -85 -100 -110 -75 -31 -120 -178 -130 -420 -2 -66
-6 -159 -9 -208 -3 -80 -2 -87 15 -87 20 0 36 49 32 100 -3 52 -2 177 3 220 3
25 10 82 15 128 8 59 7 88 0 103 -10 17 -8 21 7 25 11 3 25 20 31 37 6 18 20
37 31 44 19 12 19 11 9 -18 -8 -22 -7 -38 1 -55 13 -29 44 -29 49 0 3 11 0 16
-7 12 -7 -5 -11 5 -11 28 0 26 6 38 23 47 12 7 28 19 35 28 18 22 50 96 49
112 -1 27 16 79 26 79 6 0 8 3 4 6 -10 11 29 74 72 114 36 35 41 44 41 85 0
25 -1 45 -2 45 -2 0 -17 -20 -35 -43z M1252 1408 c-5 -7 -17 -42 -26 -78 -18
-69 -53 -191 -66 -225 -4 -11 -39 -85 -78 -165 -107 -218 -192 -401 -192 -412
0 -5 -13 -28 -28 -51 -15 -23 -34 -55 -42 -71 -8 -16 -32 -48 -53 -72 l-39
-44 30 0 c39 0 65 31 137 163 31 56 61 109 65 117 67 115 89 155 116 213 17
37 34 70 38 74 3 3 6 18 6 32 0 14 9 40 19 58 11 17 26 53 34 80 8 26 33 90
55 141 23 51 41 105 41 120 -1 15 4 47 9 72 6 25 8 48 6 52 -7 12 -20 10 -32
-4z M4659 1404 c-7 -9 -13 -37 -14 -63 0 -36 -7 -55 -34 -91 -43 -57 -112
-205 -136 -290 -9 -36 -28 -101 -41 -145 -50 -174 -50 -171 -52 -258 l-2 -58
-37 7 c-38 7 -67 12 -90 13 -29 2 -10 21 21 21 39 0 69 26 41 36 -9 4 -50 4
-91 0 -69 -6 -75 -5 -72 11 3 15 16 18 93 21 91 3 113 10 100 33 -6 8 -33 10
-101 6 -55 -3 -94 -2 -94 4 0 5 26 9 59 9 41 0 62 5 71 16 11 13 10 16 -8 21
-22 5 -21 6 8 40 34 38 34 37 20 63 -13 24 -65 34 -135 25 -44 -5 -55 -10 -55
-25 0 -10 -7 -20 -15 -24 -10 -3 -15 -19 -15 -45 l0 -39 -52 -7 c-76 -9 -88
-14 -88 -35 0 -25 31 -41 94 -49 28 -3 51 -10 51 -16 0 -5 -31 -17 -70 -25
-38 -8 -76 -19 -82 -23 -22 -14 -14 -37 20 -57 25 -16 42 -19 80 -14 37 5 47
3 47 -9 0 -11 -18 -16 -80 -19 -115 -7 -149 -43 -95 -102 42 -45 78 -29 50 23
-8 17 -15 32 -15 36 0 3 29 5 65 5 l65 0 0 -55 c0 -54 0 -55 30 -55 25 0 30 4
30 24 0 13 3 38 6 55 l7 32 61 -2 c34 -1 82 5 109 14 l48 15 -5 -31 c-3 -18
-8 -49 -11 -69 -5 -29 -3 -38 9 -38 14 0 25 25 44 110 21 88 24 106 28 180 5
81 34 212 65 300 11 30 22 64 24 75 6 34 44 137 71 194 14 29 47 76 74 103 28
28 50 57 50 65 0 8 7 21 15 29 22 23 19 47 -5 41 -15 -4 -20 0 -20 14 0 23
-23 25 -41 3z m-425 -620 c25 -10 8 -24 -28 -24 -31 0 -56 -15 -56 -33 0 -4 4
-6 9 -2 5 3 12 1 16 -5 4 -6 11 -8 16 -5 5 4 9 1 9 -4 0 -6 -13 -11 -28 -11
-26 0 -29 3 -29 38 0 20 5 40 11 44 13 9 59 10 80 2z m6 -74 c0 -5 -5 -10 -11
-10 -5 0 -7 5 -4 10 3 6 8 10 11 10 2 0 4 -4 4 -10z m-162 -75 c-3 -3 -19 -3
-34 1 l-29 8 25 6 c24 7 50 -4 38 -15z m137 -110 c0 -5 -15 -11 -32 -13 -25
-3 -33 1 -33 13 0 12 8 16 33 13 17 -2 32 -7 32 -13z m-135 -4 c0 -12 -26 -21
-61 -21 -29 0 -39 14 -16 23 21 9 77 7 77 -2z m240 -50 c23 -1 23 -2 7 -18
-12 -13 -37 -18 -97 -20 -79 -3 -80 -2 -80 22 0 24 1 24 73 21 39 -2 83 -5 97
-5z M2110 1399 c0 -5 5 -7 10 -4 6 3 10 8 10 11 0 2 -4 4 -10 4 -5 0 -10 -5
-10 -11z M2131 1261 c-18 -11 -39 -145 -39 -246 0 -44 -4 -92 -10 -107 -6 -15
-25 -87 -42 -160 -17 -73 -42 -169 -55 -213 -23 -74 -45 -186 -45 -227 0 -13
8 -18 30 -18 29 0 30 2 31 48 1 26 1 51 0 56 -1 5 9 45 23 90 14 44 37 126 51
181 36 135 56 207 63 225 12 34 14 48 14 110 0 36 6 96 14 133 13 62 12 71 -4
102 -12 25 -21 32 -31 26z M4730 1230 c-13 -9 -13 -11 0 -20 20 -13 27 -12 36
2 5 7 3 8 -6 3 -10 -6 -12 -4 -7 8 7 19 -1 21 -23 7z M4918 1065 c-53 -140
-77 -238 -85 -344 -3 -42 -9 -82 -13 -90 -4 -8 -4 -27 0 -42 4 -15 4 -31 -1
-36 -10 -10 -12 -47 -6 -168 5 -87 6 -90 30 -93 34 -4 36 11 42 232 3 140 8
184 20 202 11 17 14 38 11 67 -3 28 2 61 15 99 15 44 19 77 17 150 l-3 93 -27
-70z M362 1102 c-12 -12 -24 -42 -28 -68 -4 -26 -17 -63 -30 -82 -13 -19 -24
-39 -24 -44 0 -6 -6 -24 -14 -41 -7 -18 -30 -72 -52 -122 -21 -49 -48 -106
-61 -125 -13 -19 -23 -39 -23 -45 0 -6 -14 -26 -30 -45 -49 -57 -50 -58 -50
-87 l1 -28 22 36 c12 19 48 69 80 110 31 42 57 83 57 92 0 9 5 17 10 17 6 0
10 5 10 12 0 6 6 19 14 27 7 9 28 53 46 99 18 45 36 82 40 82 5 0 11 18 15 40
4 22 11 40 16 40 5 0 9 11 9 25 0 13 7 43 16 65 20 51 7 73 -24 42z M2128 510
c-13 -8 -16 -28 -16 -115 -1 -105 -1 -105 24 -105 23 0 24 3 25 68 1 37 3 81
4 97 3 34 -3 65 -13 65 -4 0 -14 -5 -24 -10z M4633 495 c-15 -10 -23 -31 -28
-67 -4 -29 -13 -72 -20 -95 -13 -42 -13 -43 11 -43 23 0 33 19 38 69 3 28 28
106 37 117 17 20 -14 36 -38 19z M4210 365 c-20 -24 -4 -65 25 -65 22 0 25 4
25 40 0 32 -4 40 -19 40 -10 0 -24 -7 -31 -15z"/>
</g>
</svg>
