<?xml version="1.0" standalone="no"?>
<!DOCTYPE svg PUBLIC "-//W3C//DTD SVG 20010904//EN"
 "http://www.w3.org/TR/2001/REC-SVG-20010904/DTD/svg10.dtd">
<svg version="1.0" xmlns="http://www.w3.org/2000/svg"
 width="500.000000pt" height="878.000000pt" viewBox="0 0 500.000000 878.000000"
 preserveAspectRatio="xMidYMid meet">
<metadata>
Created by potrace 1.16, written by Peter Selinger 2001-2019
</metadata>
<g transform="translate(0.000000,878.000000) scale(0.100000,-0.100000)"
fill="#000000" stroke="none">
<path d="M3683 8723 c59 -2 154 -2 210 0 56 1 8 3 -108 3 -115 0 -161 -2 -102
-3z M4023 8723 c9 -2 23 -2 30 0 6 3 -1 5 -18 5 -16 0 -22 -2 -12 -5z M4103
8723 c9 -2 25 -2 35 0 9 3 1 5 -18 5 -19 0 -27 -2 -17 -5z M4258 8723 c7 -3
16 -2 19 1 4 3 -2 6 -13 5 -11 0 -14 -3 -6 -6z M4360 8710 c0 -5 5 -10 11 -10
5 0 7 5 4 10 -3 6 -8 10 -11 10 -2 0 -4 -4 -4 -10z M2066 8591 c-11 -17 5 -38
41 -57 27 -14 43 -36 69 -88 45 -92 44 -100 -6 -91 -44 8 -70 -5 -70 -35 0
-14 12 -18 58 -22 84 -8 546 2 556 12 18 18 -3 40 -39 40 l-35 0 0 90 c0 99
-4 94 71 90 38 -1 65 20 56 43 -7 19 -176 25 -487 16 -85 -2 -167 -1 -182 4
-15 4 -29 3 -32 -2z m240 -77 c-3 -9 -9 -28 -12 -42 -8 -40 -26 -82 -33 -82
-6 0 -28 49 -27 60 0 3 -7 16 -17 30 -27 39 -28 39 77 48 13 2 16 -3 12 -14z
m139 -6 c6 -30 8 -65 7 -108 l-2 -35 -65 -2 c-36 -2 -65 0 -65 3 0 8 49 144
56 155 3 5 18 9 34 9 23 0 31 -5 35 -22z m130 -12 c4 -18 7 -58 8 -87 l2 -54
-30 3 c-16 2 -31 5 -32 6 -1 1 -4 39 -6 84 l-4 82 28 0 c24 0 29 -5 34 -34z
M1835 8440 c-4 -6 -3 -16 3 -22 6 -6 12 -6 17 2 4 6 3 16 -3 22 -6 6 -12 6
-17 -2z M2555 8140 c-3 -5 -1 -10 4 -10 6 0 11 5 11 10 0 6 -2 10 -4 10 -3 0
-8 -4 -11 -10z M4922 7720 c0 -14 2 -19 5 -12 2 6 2 18 0 25 -3 6 -5 1 -5 -13z
M572 7694 c-14 -25 8 -135 34 -171 13 -17 24 -41 24 -52 0 -11 5 -23 10 -26 6
-4 8 -10 5 -15 -3 -5 -20 5 -37 21 -37 33 -63 36 -96 13 -17 -12 -22 -24 -20
-47 3 -32 18 -44 86 -65 26 -8 32 -8 32 4 0 9 4 13 10 9 5 -3 18 0 28 6 24 15
71 4 79 -18 3 -8 1 -24 -6 -35 -14 -22 -6 -40 17 -37 32 3 42 -1 42 -16 0 -8
-4 -15 -10 -15 -5 0 -10 -13 -10 -30 0 -16 -5 -30 -11 -30 -7 0 -10 14 -7 36
3 27 0 38 -15 46 -46 24 -54 -61 -12 -122 14 -20 25 -39 25 -43 0 -4 24 -30
53 -60 28 -29 102 -114 164 -189 101 -123 109 -137 90 -142 -34 -9 -47 -7 -47
7 -1 36 -74 83 -114 73 -15 -4 -26 -2 -26 4 0 5 -5 10 -11 10 -6 0 -9 -7 -7
-16 2 -10 24 -24 57 -34 64 -21 91 -44 73 -62 -9 -9 -12 -8 -12 5 0 10 -18 24
-47 37 -27 11 -56 25 -66 31 -11 6 -21 8 -23 6 -7 -7 38 -47 75 -66 14 -8 20
-18 17 -28 -5 -12 0 -14 24 -11 34 5 37 1 13 -18 -27 -20 -64 -18 -56 2 4 12
2 15 -8 12 -8 -2 -15 -16 -17 -30 -2 -19 2 -27 20 -32 39 -10 52 -7 87 24 l34
30 11 -22 c17 -34 36 -33 49 1 6 17 16 31 22 31 22 -1 58 -29 91 -69 26 -34
31 -47 24 -61 -6 -10 -10 -45 -10 -77 0 -67 -17 -136 -31 -128 -5 4 -9 1 -9
-5 0 -6 -15 -10 -33 -8 -39 2 -70 -17 -103 -66 -30 -44 -32 -98 -3 -117 20
-14 18 -17 -53 -122 -117 -173 -125 -186 -185 -307 -52 -104 -58 -122 -61
-191 l-4 -77 44 -46 c35 -36 52 -46 76 -46 23 0 36 -7 49 -26 15 -24 21 -26
64 -21 27 3 49 2 51 -4 3 -9 9 -11 86 -24 23 -4 55 -13 70 -21 15 -7 42 -14
60 -16 18 -1 32 -6 32 -10 0 -4 -4 -8 -9 -8 -20 0 -43 -100 -38 -164 6 -73 39
-146 65 -146 10 0 29 -11 42 -25 29 -31 75 -44 113 -34 16 4 39 4 53 -1 21 -8
23 -13 14 -29 -15 -28 -12 -81 5 -115 12 -22 13 -37 6 -60 -5 -17 -13 -69 -16
-116 -4 -47 -16 -125 -26 -175 -22 -107 -24 -161 -5 -196 12 -23 11 -27 -5
-38 -23 -14 -26 -73 -4 -95 16 -15 20 -53 7 -73 -4 -6 -23 -14 -43 -18 -44 -8
-103 -63 -156 -144 -20 -31 -46 -67 -58 -81 -37 -42 -99 -150 -145 -252 -24
-53 -46 -95 -50 -93 -3 2 -6 -7 -6 -18 -1 -12 -6 -50 -12 -84 -6 -34 -8 -90
-6 -125 6 -85 -2 -64 -22 62 -22 136 -26 287 -8 294 20 8 5 75 -25 116 -14 19
-29 37 -33 38 -16 7 -7 24 8 18 24 -9 84 34 84 61 0 16 -11 25 -45 38 -24 10
-54 15 -65 12 -17 -4 -20 -2 -14 11 14 32 5 75 -23 104 -24 25 -34 28 -73 26
-45 -3 -45 -3 -42 -38 1 -19 12 -50 23 -68 l20 -34 -25 6 c-19 5 -29 0 -45
-20 -35 -45 -22 -88 32 -107 27 -10 21 -20 -34 -61 -50 -37 -51 -39 -45 -80 4
-22 14 -52 24 -66 9 -14 15 -33 13 -43 -1 -10 2 -24 7 -30 10 -13 18 -46 32
-142 14 -96 18 -134 25 -234 4 -52 10 -104 15 -116 4 -11 11 -52 15 -89 6 -56
5 -68 -6 -64 -8 3 -15 13 -17 24 -4 26 -78 74 -113 74 -60 0 -60 -63 0 -98 25
-14 29 -21 24 -44 -7 -35 11 -58 47 -58 21 0 30 7 40 30 20 47 35 36 48 -34
17 -90 16 -93 -30 -147 -24 -26 -52 -68 -64 -91 -55 -112 -88 -200 -105 -273
-9 -44 -27 -107 -39 -140 -12 -33 -26 -105 -31 -160 -13 -138 -15 -154 -30
-205 -8 -29 -12 -91 -10 -171 3 -151 -9 -189 -60 -189 -35 0 -75 -35 -85 -76
-6 -22 -2 -32 19 -50 l26 -22 -29 -10 c-16 -6 -36 -24 -44 -40 -16 -31 -55
-46 -89 -33 -11 4 -44 4 -75 0 -43 -6 -60 -14 -78 -36 -31 -37 -28 -68 8 -68
15 -1 25 3 22 7 -3 4 2 21 11 38 13 25 22 30 51 30 l36 0 -36 -40 c-20 -22
-51 -69 -68 -104 -31 -63 -31 -64 -12 -84 51 -54 155 -63 198 -17 12 12 37 26
56 30 80 17 173 65 221 115 32 34 59 52 81 56 25 4 29 3 18 -5 -8 -6 -22 -11
-31 -11 -8 0 -26 -11 -38 -24 -32 -34 -10 -42 43 -17 24 12 49 19 57 16 18 -6
32 4 46 37 11 24 19 27 80 33 37 3 74 7 82 8 24 3 24 27 0 36 -21 7 -20 9 13
15 20 4 38 11 40 15 2 5 15 7 30 4 20 -4 27 -11 26 -27 -1 -11 2 -55 6 -96 6
-70 8 -101 21 -265 10 -132 13 -269 5 -240 -4 17 -8 26 -9 21 0 -5 -8 -3 -16
4 -12 10 -18 9 -31 -5 -10 -9 -23 -13 -33 -10 -88 36 -130 46 -176 41 -48 -5
-52 -3 -93 35 -31 30 -41 46 -37 60 4 10 10 19 15 19 5 0 15 6 22 13 7 7 25
20 39 29 29 18 47 61 23 51 -8 -3 -14 -1 -14 5 0 11 76 42 103 42 25 0 46 48
26 61 -42 29 -208 -35 -236 -91 -6 -13 -31 -34 -55 -47 -23 -13 -46 -32 -50
-42 -12 -35 -131 -38 -238 -7 -36 10 -80 -9 -80 -34 0 -30 -63 -27 -106 5 -18
14 -35 25 -38 25 -11 0 -6 -56 6 -68 7 -7 13 -18 13 -25 0 -7 12 -13 27 -15
25 -3 28 -7 29 -45 2 -56 -1 -71 -14 -79 -6 -3 -10 -19 -10 -35 0 -46 24 -144
33 -138 5 3 14 -10 21 -29 13 -36 36 -53 51 -38 5 5 4 20 -1 35 -6 15 -15 87
-21 159 -6 73 -13 141 -16 151 -3 11 0 17 10 17 16 0 21 -12 32 -72 7 -41 23
-61 41 -50 7 5 8 23 2 57 -4 28 -8 66 -8 85 l-1 35 135 0 c114 0 137 3 152 18
16 16 18 14 40 -50 12 -38 22 -82 23 -99 0 -16 9 -57 20 -90 21 -63 42 -208
33 -230 -10 -26 -497 -22 -499 4 -1 6 -2 16 -3 22 -2 16 -29 0 -34 -21 -4 -14
-14 -19 -36 -19 -20 0 -31 -5 -31 -14 0 -13 324 -15 2440 -15 1550 0 2440 3
2440 9 0 6 -7 10 -15 10 -9 0 -12 6 -8 16 4 10 -9 30 -35 57 -23 23 -51 57
-64 76 -17 26 -39 40 -88 57 -48 18 -66 21 -71 12 -11 -18 7 -35 46 -42 25 -5
45 -20 72 -54 21 -26 56 -64 78 -85 l40 -38 -75 5 c-41 3 -94 6 -117 6 -39 0
-42 2 -48 32 -11 58 -16 68 -27 62 -6 -4 -14 0 -19 7 -7 11 -9 11 -9 1 0 -9
-12 -11 -44 -7 -27 3 -48 1 -52 -6 -10 -17 8 -27 56 -32 38 -3 46 -8 48 -26 3
-21 1 -22 -28 -16 -19 4 -36 2 -45 -5 -22 -18 -40 6 -48 62 -6 44 -5 48 16 53
12 3 46 4 75 1 29 -2 54 -1 56 3 3 5 -1 40 -19 141 -3 14 -7 51 -9 82 -2 31
-6 60 -9 65 -4 7 -10 52 -22 173 -4 35 -15 211 -23 362 -5 84 -4 124 3 118 5
-4 29 -11 53 -15 23 -4 42 -10 42 -14 0 -10 -60 -31 -74 -25 -8 3 -12 -3 -10
-18 1 -13 3 -30 3 -38 2 -24 16 -40 40 -45 22 -4 23 -2 18 30 -5 32 14 68 26
48 5 -10 10 -88 11 -197 1 -63 4 -81 18 -90 35 -22 43 6 43 146 l0 132 60 -4
c131 -9 150 -7 153 15 2 18 -2 20 -38 17 -72 -7 -190 8 -190 24 0 11 20 14 96
14 52 0 104 -5 115 -10 16 -9 19 -7 19 14 0 32 -14 36 -136 36 -87 0 -104 2
-104 16 0 13 13 14 88 11 48 -3 94 -8 102 -11 8 -3 22 -1 30 4 13 8 13 11 -2
26 -17 17 -49 22 -152 23 -33 1 -57 3 -55 5 7 6 109 15 172 16 44 0 57 3 57
15 0 8 -8 15 -17 16 -47 2 -113 0 -160 -6 -34 -4 -53 -3 -53 4 0 13 44 20 134
24 93 3 100 23 12 32 -64 7 -65 8 -44 25 28 22 18 53 -14 46 -13 -3 -45 -8
-71 -11 -43 -6 -50 -10 -63 -40 -11 -28 -20 -34 -54 -40 -43 -7 -74 -30 -64
-47 10 -16 71 -38 88 -32 9 3 16 2 16 -4 0 -8 -79 -32 -104 -32 -1 0 -8 36
-15 79 l-13 79 28 31 c15 17 36 31 46 31 26 0 22 -15 -7 -28 -30 -14 -33 -32
-5 -32 25 0 70 42 70 65 0 9 -13 21 -30 26 -35 13 -40 45 -15 93 21 40 19 49
-11 42 -36 -9 -72 -37 -80 -61 -6 -18 -8 -16 -15 10 -14 50 -39 203 -39 237 0
17 -4 45 -9 62 -5 17 -15 65 -21 106 -6 41 -16 102 -21 135 -5 33 -12 95 -15
138 -6 75 -5 78 13 67 13 -8 19 -24 19 -46 0 -43 33 -89 65 -89 32 0 55 45 39
76 -9 16 -8 24 4 37 10 12 13 29 9 58 -3 25 -1 44 6 48 6 4 11 1 11 -8 0 -36
33 -96 64 -114 59 -35 83 -36 112 -5 14 16 41 44 60 63 27 28 34 43 34 74 0
41 -13 56 -151 176 -28 25 -78 81 -110 124 l-58 79 24 25 c31 30 31 37 3 56
l-22 16 20 15 c18 12 21 23 18 67 -2 29 -3 59 -4 66 0 22 -35 12 -52 -16 -9
-15 -29 -45 -45 -67 -24 -35 -31 -39 -49 -30 -11 5 -19 15 -17 22 4 10 -61 93
-79 101 -5 2 -8 10 -8 17 0 7 -16 32 -35 55 -19 23 -38 53 -41 67 -4 16 -11
22 -21 19 -8 -3 -11 -1 -8 4 3 6 2 10 -2 10 -4 0 -9 28 -10 62 -1 37 -8 67
-15 73 -7 5 -14 17 -16 25 -2 8 -7 17 -11 20 -4 3 -12 21 -17 40 -6 19 -15 34
-20 33 -6 -1 -10 21 -10 48 0 66 -11 75 -93 71 -61 -2 -70 0 -91 23 -20 21
-22 28 -12 50 7 14 12 34 12 44 0 25 -40 60 -77 67 -24 5 -36 16 -51 48 -66
136 -92 199 -92 222 0 21 -8 29 -50 47 -38 16 -50 26 -50 43 0 12 -7 27 -16
35 -30 25 -42 61 -59 170 -2 15 -11 43 -19 64 -21 50 -20 55 9 55 30 0 44 27
38 74 -2 17 -6 63 -8 103 -2 39 -9 82 -16 95 -19 37 -71 88 -91 88 -15 0 -50
49 -47 65 0 3 -2 18 -6 34 -7 32 -85 111 -109 111 -9 0 -21 10 -27 23 -6 12
-35 49 -64 82 -41 47 -63 63 -99 74 -25 7 -57 10 -71 7 -21 -5 -29 -1 -45 27
-24 41 -60 62 -93 53 -21 -5 -27 0 -42 34 -20 45 -14 76 13 65 37 -16 72 -16
103 -1 17 9 35 13 40 10 5 -3 12 2 15 11 4 9 13 13 24 10 34 -11 76 44 94 125
13 56 25 83 51 111 19 21 39 57 46 81 6 24 15 54 19 68 14 49 -4 118 -42 158
-26 27 -36 46 -36 72 -1 28 -9 43 -42 74 -37 34 -46 38 -79 32 -34 -5 -41 -2
-85 40 -57 56 -90 65 -211 60 -108 -5 -154 -22 -192 -73 -15 -21 -42 -52 -59
-68 l-32 -31 -33 18 c-28 15 -36 16 -47 5 -17 -17 -1 -61 28 -79 34 -22 24
-37 -21 -31 -24 4 -50 1 -64 -7 -20 -11 -27 -11 -40 0 -12 10 -16 9 -21 -5 -8
-21 34 -65 64 -68 25 -2 29 -19 7 -37 -18 -15 -20 -49 -2 -51 6 -1 -6 -5 -28
-8 -22 -3 -40 -11 -40 -18 0 -12 52 -71 81 -91 11 -7 14 -10 7 -7 -23 11 -26
-18 -3 -37 17 -14 32 -17 56 -12 36 7 42 -3 28 -41 -6 -14 -10 -13 -31 7 -13
12 -34 23 -47 23 -13 1 -40 9 -60 19 -20 9 -41 14 -46 11 -11 -7 -55 34 -55
52 0 6 -25 35 -55 65 -59 58 -203 225 -198 230 2 2 -7 15 -19 28 -89 97 -217
277 -257 360 -26 54 -26 55 -11 116 17 70 9 112 -25 121 -12 3 -20 14 -20 27
0 21 -47 66 -70 66 -5 0 -19 9 -30 20 -11 11 -29 20 -41 20 -11 0 -27 7 -36
16 -17 17 -58 15 -58 -3 0 -6 -3 -14 -7 -17 -5 -3 -7 -4 -5 -1 2 3 -30 40 -71
82 -68 72 -142 169 -142 188 0 5 -11 23 -25 41 -14 18 -25 37 -25 41 0 5 -27
37 -59 72 -33 34 -65 77 -71 95 -5 17 -28 52 -49 75 -38 41 -42 43 -80 37 -51
-8 -54 8 -6 31 24 11 35 23 35 38 0 26 -29 55 -55 55 -14 0 -15 3 -5 15 17 20
4 82 -20 95 -16 9 -24 3 -49 -34 -17 -25 -31 -49 -31 -55 0 -6 -5 -11 -11 -11
-7 0 -8 6 -3 18 16 34 7 92 -20 126 -52 68 -68 78 -84 50z m73 -98 c10 -22 10
-34 2 -47 -10 -17 -13 -16 -29 9 -10 15 -18 42 -18 61 0 30 2 32 17 20 9 -8
22 -27 28 -43z m96 -89 c-26 -25 -31 -27 -22 -9 7 12 16 22 21 22 6 0 10 10
10 22 0 17 3 19 12 10 10 -10 5 -19 -21 -45z m-54 -39 c-3 -8 -6 -5 -6 6 -1
11 2 17 5 13 3 -3 4 -12 1 -19z m64 -41 c-13 -13 -15 1 -4 30 7 17 8 17 11 -1
2 -10 -1 -23 -7 -29z m69 24 c0 -10 -30 -24 -37 -17 -3 3 -2 9 2 15 8 13 35
15 35 2z m-232 -33 c20 -20 14 -25 -25 -19 -45 7 -57 31 -16 31 16 0 34 -5 41
-12z m277 -102 c54 -57 78 -100 80 -144 1 -39 5 -47 21 -47 10 0 23 -6 27 -12
4 -7 14 -13 22 -13 17 0 37 -33 30 -52 -2 -7 10 -22 27 -33 28 -18 55 -55 87
-120 5 -11 25 -38 45 -60 20 -22 36 -43 36 -47 0 -4 -11 -15 -25 -26 -14 -11
-25 -27 -25 -37 0 -9 -4 -13 -10 -10 -5 3 -10 15 -10 26 0 10 5 19 10 19 6 0
10 11 10 25 0 27 -10 31 -41 15 -16 -9 -19 -7 -19 13 0 12 6 29 13 36 10 10 5
18 -22 42 l-33 31 -24 -23 c-19 -18 -26 -20 -39 -9 -8 7 -15 28 -15 46 0 29
-3 33 -22 31 -20 -2 -23 3 -26 36 -3 32 -6 37 -20 32 -9 -4 -23 -9 -31 -13
-11 -4 -13 2 -8 30 7 47 -5 67 -28 45 -23 -23 -32 -21 -11 2 37 40 24 124 -24
156 -33 22 -48 54 -31 65 17 10 44 8 56 -4z m-40 -116 c10 -11 15 -20 11 -20
-14 0 -46 21 -46 30 0 16 16 11 35 -10z m35 -60 c0 -5 -5 -10 -11 -10 -5 0 -7
5 -4 10 3 6 8 10 11 10 2 0 4 -4 4 -10z m391 -413 c-10 -9 -11 -8 -5 6 3 10 9
15 12 12 3 -3 0 -11 -7 -18z m154 -30 c-2 -7 -6 -24 -9 -39 -7 -32 -36 -38
-36 -8 0 26 29 72 41 65 4 -3 6 -11 4 -18z m-89 -31 c11 -47 -14 -61 -36 -20
-12 22 -12 27 0 34 23 15 29 12 36 -14z m160 10 c3 -7 -2 -31 -11 -52 -12 -28
-18 -35 -27 -26 -9 9 -8 21 2 52 14 41 27 51 36 26z m-416 -6 c0 -5 -5 -10
-11 -10 -5 0 -7 5 -4 10 3 6 8 10 11 10 2 0 4 -4 4 -10z m467 -92 c-5 -29 -18
-62 -28 -73 -24 -24 -25 -10 -4 60 22 72 24 77 34 71 4 -3 4 -29 -2 -58z
m-167 -11 c0 -15 -23 -1 -39 23 l-16 24 27 -19 c15 -11 28 -24 28 -28z m64
-23 c11 -28 6 -61 -9 -74 -21 -18 -30 -6 -10 14 20 19 11 58 -11 49 -8 -3 -14
1 -14 11 0 21 36 21 44 0z m186 -14 c0 -28 -29 -90 -46 -97 -24 -9 -25 1 -9
47 9 24 13 49 11 56 -6 17 2 23 25 17 10 -3 19 -13 19 -23z m-304 -77 c35 -40
41 -53 23 -53 -7 0 -9 -9 -5 -23 3 -14 -1 -32 -9 -43 -8 -10 -15 -27 -15 -36
0 -29 34 -21 53 11 21 35 46 45 90 35 40 -10 60 -6 70 12 10 18 37 18 37 1 0
-7 -15 -30 -34 -50 -33 -36 -68 -48 -81 -27 -3 6 -18 10 -33 10 -20 0 -33 -8
-45 -29 -21 -36 -45 -32 -93 16 -36 36 -43 72 -25 129 5 16 12 41 15 57 4 15
9 27 12 27 3 0 21 -17 40 -37z m144 -28 c-7 -8 -17 -15 -22 -15 -6 0 -5 7 2
15 7 8 17 15 22 15 6 0 5 -7 -2 -15z m166 -120 c11 -28 -1 -37 -24 -17 -16 14
-19 22 -10 25 22 9 28 8 34 -8z m-381 -75 c46 -22 90 -40 98 -40 15 0 57 -36
57 -50 0 -16 -18 -21 -27 -8 -10 16 -126 64 -185 77 -32 8 -46 7 -58 -3 -22
-20 -57 -28 -65 -16 -17 28 30 76 78 79 10 1 56 -17 102 -39z m444 3 c12 -16
24 -32 28 -38 5 -5 21 -29 37 -53 17 -24 39 -51 51 -60 12 -10 48 -55 79 -102
32 -47 75 -102 94 -122 20 -21 33 -38 29 -38 -4 0 -3 -6 3 -12 44 -52 100
-133 100 -145 0 -7 25 -39 55 -69 36 -37 55 -64 55 -80 0 -17 11 -31 40 -49
22 -14 40 -29 40 -33 0 -4 12 -21 28 -38 15 -16 36 -43 46 -59 25 -38 95 -124
122 -150 12 -11 59 -65 105 -120 45 -55 88 -104 94 -110 19 -16 45 -63 45 -80
0 -8 7 -15 15 -15 9 0 20 -11 25 -25 6 -15 17 -25 29 -25 22 0 79 -64 201
-225 46 -60 86 -112 89 -115 4 -3 18 -27 32 -55 25 -48 121 -192 153 -227 22
-25 20 -31 -5 -18 -11 7 -32 9 -45 6 -19 -5 -24 -3 -24 14 0 22 -1 23 -24 14
-9 -3 -16 -13 -16 -21 0 -13 -3 -13 -15 -3 -14 12 -14 15 0 30 23 25 18 33
-15 27 -31 -7 -42 6 -15 17 17 6 21 46 5 46 -7 0 -7 6 0 19 7 13 7 22 0 26 -5
3 -10 17 -10 31 0 13 -8 32 -18 42 -10 10 -21 26 -25 35 -11 29 -44 20 -66
-19 -20 -34 -40 -41 -49 -16 -2 7 10 20 27 29 17 10 31 22 31 26 0 17 -32 18
-56 2 -39 -25 -43 -7 -6 26 17 16 32 33 32 38 0 20 -26 18 -56 -4 l-30 -23
-23 34 c-13 19 -22 35 -20 37 2 1 13 7 24 13 11 6 20 17 20 25 0 18 -42 24
-59 10 -10 -8 -17 -7 -27 5 -11 14 -11 18 4 29 9 7 17 20 17 29 0 13 -8 16
-35 14 -46 -3 -51 5 -24 41 22 29 22 32 6 48 -16 16 -18 15 -40 -5 -25 -24
-37 -28 -37 -12 0 6 12 15 26 20 16 7 24 16 22 28 -4 22 -41 27 -61 8 -21 -22
-22 -21 -48 20 -18 30 -20 40 -11 55 27 43 -1 67 -38 34 -15 -14 -18 -14 -30
0 -10 13 -10 19 4 33 9 10 16 24 16 30 0 15 -36 16 -45 2 -9 -15 -22 -12 -30
7 -4 12 1 24 15 35 25 21 20 48 -8 48 -11 0 -26 -10 -34 -21 -12 -19 -15 -20
-26 -6 -11 13 -9 19 9 36 18 16 20 23 10 35 -10 11 -19 13 -38 5 -34 -13 -43
-3 -10 12 14 6 23 17 20 24 -8 22 -34 26 -59 10 -23 -15 -25 -14 -48 23 -21
34 -57 69 -96 92 -12 8 -11 13 9 33 15 17 19 27 11 32 -19 11 -58 -4 -65 -25
-3 -11 -11 -20 -16 -20 -15 0 -10 19 11 40 11 11 20 27 20 35 0 17 -35 21 -45
5 -3 -5 -11 -10 -17 -10 -6 0 -2 10 10 23 38 40 20 62 -30 36 -16 -8 -24 -8
-35 4 -12 12 -13 18 -2 35 18 29 -1 51 -24 28 -13 -14 -16 -14 -21 0 -3 8 3
22 14 31 11 10 20 21 20 25 0 13 -41 19 -55 8 -12 -10 -15 -9 -15 3 0 9 7 20
16 25 26 15 6 35 -27 28 -30 -6 -37 2 -17 22 8 8 8 15 -2 26 -15 19 -33 10
-26 -13 5 -12 2 -11 -9 3 -13 17 -13 22 0 36 19 21 4 45 -24 37 -12 -3 -21 -1
-21 4 0 5 5 9 10 9 16 0 12 32 -6 45 -14 10 -14 15 -3 33 12 19 10 23 -16 44
-16 13 -36 23 -45 24 -41 3 -43 4 -31 18 14 17 3 102 -15 117 -7 6 -23 9 -36
7 -15 -2 -27 4 -34 17 -5 11 -20 20 -31 19 -14 0 -24 7 -27 22 -7 25 -35 39
-50 24 -15 -15 -26 -12 -20 5 3 8 14 17 25 20 11 4 19 15 19 27 0 18 -4 20
-32 14 l-32 -6 29 30 c36 37 48 38 74 3z m-264 -3 c-3 -5 0 -8 7 -5 7 2 29
-16 48 -42 19 -25 57 -72 83 -105 l48 -58 -39 6 c-32 5 -44 2 -60 -14 -18 -18
-19 -25 -9 -58 12 -40 56 -74 95 -74 19 0 21 -3 12 -19 -15 -30 -12 -52 12
-78 34 -36 78 -25 78 20 0 18 1 18 25 3 13 -9 35 -16 49 -16 16 0 40 -17 75
-56 52 -57 60 -76 22 -52 -16 10 -25 10 -40 1 -13 -8 -21 -9 -30 0 -13 13 -16
10 -25 -25 -5 -21 -3 -28 9 -28 16 0 28 -22 40 -79 5 -22 4 -31 -3 -27 -6 3
-13 2 -17 -4 -3 -5 -14 -10 -23 -10 -16 0 -17 -10 -14 -91 2 -66 -1 -102 -13
-131 -8 -22 -12 -44 -9 -50 5 -8 1 -9 -11 -4 -14 5 -16 4 -6 -7 11 -14 -4 -57
-37 -102 l-14 -20 7 20 c9 23 9 28 30 160 22 138 27 225 15 240 -7 9 -20 10
-38 6 -32 -9 -42 -44 -41 -146 1 -38 -2 -78 -6 -87 -4 -9 -2 -25 3 -35 8 -13
7 -22 -4 -34 -8 -8 -16 -29 -17 -45 -2 -16 -14 -48 -27 -70 -26 -45 -22 -74
10 -74 22 0 27 -15 8 -26 -7 -4 -8 -3 -4 4 5 8 -3 12 -23 12 -16 0 -32 6 -34
13 -3 7 -6 5 -6 -5 -1 -10 -5 -18 -9 -18 -14 0 -45 -77 -39 -94 5 -11 0 -13
-21 -7 -15 5 -33 6 -41 3 -10 -3 -8 3 5 21 10 15 24 25 31 22 7 -2 10 2 6 11
-3 7 0 14 7 14 6 0 9 4 6 9 -7 11 4 42 13 37 3 -2 7 8 8 22 0 15 6 28 12 30 6
2 9 7 6 12 -3 4 2 24 10 44 8 19 17 52 20 73 3 21 10 58 14 83 5 25 9 52 9 60
0 8 3 47 7 85 11 97 7 144 -16 186 -16 31 7 23 51 -17 24 -22 46 -34 55 -30
18 7 20 47 3 65 -11 11 -8 12 17 7 53 -12 59 -11 63 6 2 11 -8 22 -31 33 -28
13 -42 14 -82 5 -39 -9 -51 -8 -65 5 -9 8 -20 15 -25 15 -4 0 -27 10 -50 21
-47 24 -91 20 -97 -7 -2 -13 -8 -11 -31 10 -30 28 -74 34 -109 15 -18 -10 -19
-8 -12 13 4 12 22 57 40 100 18 42 36 97 39 122 7 44 32 86 52 86 6 0 18 9 28
20 22 24 13 85 -15 102 -14 9 -16 16 -8 25 12 15 32 18 23 3z m1475 -70 c0 -5
3 -16 7 -26 6 -16 4 -16 -20 2 -36 26 -41 42 -11 36 13 -2 24 -8 24 -12z
m-1706 -15 c14 -14 32 -25 40 -25 11 0 13 -8 9 -35 -5 -30 -2 -36 21 -46 17
-8 25 -18 21 -27 -3 -9 -10 -35 -16 -60 -8 -37 -32 -96 -45 -111 -2 -2 -19 6
-39 18 -35 20 -55 21 -55 0 0 -5 19 -23 43 -40 l42 -31 -35 7 c-19 4 -41 12
-48 18 -9 7 -16 7 -25 -2 -17 -17 3 -43 43 -54 l33 -8 -20 -21 c-19 -19 -22
-19 -45 -4 -23 15 -26 15 -39 0 -11 -14 -11 -18 5 -30 10 -7 24 -15 30 -17 8
-3 7 -8 -1 -18 -16 -17 -17 -59 -1 -59 7 0 25 12 41 28 23 21 26 22 17 6 -8
-12 -10 -30 -6 -40 6 -17 14 -12 57 34 53 54 67 65 48 33 -7 -10 -9 -27 -5
-37 7 -17 11 -15 40 20 31 36 33 37 39 16 4 -17 10 -20 27 -15 12 4 35 1 51
-5 23 -10 32 -10 44 0 8 6 18 9 24 6 15 -10 33 -103 27 -143 -4 -21 -11 -78
-16 -128 -9 -91 -16 -136 -26 -168 -5 -16 -7 -15 -24 6 -17 22 -18 28 -5 88
12 57 12 65 -2 76 -23 18 -41 0 -48 -46 -4 -20 -11 -45 -16 -56 -8 -17 -9 -17
-4 5 3 14 8 49 11 78 7 52 6 54 -17 50 -20 -2 -26 -12 -38 -60 -18 -78 -33
-74 -25 7 7 65 7 65 -19 65 -23 0 -26 -5 -32 -50 -4 -27 -12 -50 -17 -50 -7 0
-8 18 -4 53 4 28 7 61 9 72 4 34 -36 25 -47 -10 -18 -61 -27 -72 -21 -27 3 24
3 47 0 53 -11 17 -42 -10 -49 -42 -15 -75 -53 -74 -48 1 4 47 3 50 -20 50 -19
0 -29 -10 -46 -45 -26 -53 -61 -61 -88 -21 -8 14 -32 30 -52 37 -20 6 -50 23
-65 38 -26 24 -28 31 -24 81 5 69 70 203 163 334 35 50 91 133 125 184 67 100
82 109 123 67z m1676 -41 c0 -8 -4 -12 -10 -9 -5 3 -10 10 -10 16 0 5 5 9 10
9 6 0 10 -7 10 -16z m-147 -41 c-7 -2 -19 -2 -25 0 -7 3 -2 5 12 5 14 0 19 -2
13 -5z m99 -12 c15 -8 32 -28 37 -45 10 -30 10 -30 -7 -11 -9 11 -30 33 -47
49 -31 29 -30 30 17 7z m287 -30 c-15 -5 -22 6 -14 19 6 9 10 9 16 -1 5 -8 4
-15 -2 -18z m-1337 -46 c-3 -20 -7 -23 -18 -14 -11 9 -11 15 -3 25 18 21 27
17 21 -11z m-183 4 c31 -11 45 -49 17 -49 -16 0 -66 38 -66 51 0 12 10 11 49
-2z m976 1 c3 -5 -1 -10 -10 -10 -9 0 -13 5 -10 10 3 6 8 10 10 10 2 0 7 -4
10 -10z m226 -40 c5 0 9 7 9 15 0 25 17 17 28 -14 11 -32 65 -52 85 -32 17 17
29 13 18 -7 -7 -13 -4 -23 14 -40 12 -12 27 -22 33 -22 5 0 21 -6 34 -13 21
-11 23 -16 16 -42 -8 -28 -16 -90 -17 -126 -1 -9 -11 -19 -22 -22 -14 -4 -20
-11 -16 -21 4 -9 1 -15 -5 -13 -6 1 -11 -8 -13 -20 -2 -27 -30 -60 -65 -78
-14 -7 -41 -34 -59 -59 -19 -26 -46 -53 -59 -62 -22 -14 -25 -14 -43 2 -13 12
-22 14 -31 7 -26 -20 -57 -21 -75 -2 -26 28 -39 41 -72 71 -42 39 -49 56 -45
120 2 31 0 68 -6 83 -7 19 -7 33 2 48 7 12 11 28 9 35 -1 8 4 20 11 29 13 16
19 26 53 83 34 58 78 97 125 113 44 15 45 15 63 -9 10 -13 23 -24 28 -24z
m-247 -45 c3 -9 0 -15 -9 -15 -8 0 -15 7 -15 15 0 8 4 15 9 15 5 0 11 -7 15
-15z m-863 -59 c-12 -29 -26 -34 -34 -12 -3 8 4 21 16 29 28 19 30 16 18 -17z
m1399 -1 c0 -5 -5 -3 -10 5 -5 8 -10 20 -10 25 0 6 5 3 10 -5 5 -8 10 -19 10
-25z m-1189 -312 c5 -137 0 -217 -16 -263 -19 -54 -19 -90 0 -90 18 0 67 48
60 60 -3 4 0 30 5 57 6 27 13 91 15 143 7 163 5 158 31 108 21 -41 47 -76 101
-136 23 -26 49 -66 58 -90 12 -29 25 -44 41 -48 13 -3 21 -11 17 -17 -3 -6 -1
-7 6 -3 6 4 20 4 31 1 17 -5 20 -12 14 -40 -4 -21 0 -43 9 -62 15 -27 14 -35
-15 -124 -51 -159 -56 -182 -64 -256 -6 -69 -6 -73 21 -97 39 -37 61 -40 93
-17 32 22 102 105 106 124 15 69 32 101 49 90 5 -3 7 -2 4 4 -6 10 27 53 40
53 16 0 41 -34 36 -48 -4 -14 -3 -15 5 -3 9 13 14 11 31 -10 12 -13 19 -32 17
-41 -2 -10 1 -15 9 -12 7 3 26 -12 41 -33 16 -21 48 -58 71 -83 27 -27 41 -50
38 -60 -3 -8 -3 -11 1 -8 3 4 21 -11 40 -33 l33 -40 -25 -36 c-13 -20 -24 -41
-24 -48 0 -6 -9 -20 -20 -30 -11 -10 -20 -26 -20 -35 0 -9 -4 -20 -8 -25 -21
-24 -43 -102 -47 -173 -9 -121 -12 -155 -20 -187 -12 -51 -29 -85 -43 -85 -8
0 -13 -10 -12 -22 1 -13 1 -25 0 -28 -1 -3 -3 -13 -5 -23 -2 -10 -22 -42 -44
-72 -23 -30 -41 -61 -41 -70 0 -8 -3 -15 -7 -16 -33 -3 -49 -11 -65 -31 -22
-28 -22 -33 -2 -53 10 -10 24 -13 38 -10 11 4 28 9 37 11 20 5 129 -108 188
-196 24 -36 54 -76 67 -90 33 -37 94 -163 94 -194 0 -15 9 -45 19 -66 20 -43
18 -48 -13 -25 -11 8 -35 15 -53 15 -22 0 -33 5 -33 14 0 43 -150 22 -265 -36
-44 -22 -90 -46 -102 -52 -13 -6 -28 -25 -33 -42 -20 -61 -49 -81 -152 -109
-41 -11 -49 -11 -60 2 -9 12 -24 14 -62 9 l-49 -5 29 31 c16 17 46 47 66 66
43 39 143 228 154 289 6 37 16 65 54 148 10 22 26 61 35 87 10 26 26 55 36 64
25 23 25 64 0 64 -25 0 -91 -68 -98 -103 -3 -15 -10 -30 -14 -33 -5 -3 -9 -11
-9 -19 0 -7 -15 -46 -34 -87 -19 -40 -38 -86 -41 -103 -26 -119 -81 -220 -166
-309 -56 -59 -57 -59 -95 -49 -37 9 -49 7 -142 -17 -30 -8 -102 4 -102 16 0
15 33 65 54 82 32 24 98 108 120 150 9 17 32 48 52 67 19 20 36 46 38 58 1 12
5 29 8 37 4 8 11 30 17 48 10 32 27 57 85 128 34 41 40 40 24 -4 -10 -27 -10
-34 4 -48 15 -15 17 -15 34 4 10 12 22 18 27 15 6 -3 7 -1 3 6 -4 6 0 32 10
57 22 58 7 80 -31 44 -21 -19 -25 -21 -25 -7 0 19 -35 24 -45 6 -4 -6 -13 -8
-21 -5 -8 3 -13 2 -11 -2 2 -8 -21 -42 -70 -103 -32 -40 -56 -97 -51 -121 1
-7 -13 -29 -32 -48 -20 -19 -55 -61 -79 -94 -24 -32 -51 -66 -60 -75 -9 -9
-25 -29 -36 -44 -25 -34 -69 -47 -157 -47 -61 0 -71 3 -101 30 -19 17 -43 30
-52 30 -10 0 -24 8 -32 18 -8 9 -12 11 -8 5 7 -15 -11 -18 -20 -4 -5 10 -96
43 -124 46 -9 0 -41 5 -72 9 -56 8 -92 -1 -112 -28 -11 -14 1 100 19 189 15
74 34 99 68 90 19 -5 19 -5 3 5 -9 6 -22 8 -29 4 -42 -26 82 227 162 331 33
43 60 80 60 84 0 16 118 129 140 135 14 3 35 21 47 39 l21 34 -19 33 c-17 27
-18 37 -8 67 6 19 9 51 7 71 -3 20 -1 51 3 67 4 17 10 52 13 78 3 27 8 53 12
58 3 5 7 46 10 91 2 46 9 85 15 89 7 4 7 9 2 12 -9 6 -6 35 14 130 4 22 2 27
-14 27 -11 0 -22 3 -25 6 -12 11 5 42 28 53 15 7 35 34 54 78 77 170 107 222
128 215 6 -2 12 1 12 7 0 6 -5 11 -12 11 -7 0 -5 7 4 18 34 37 72 164 74 245
1 43 5 85 8 93 3 8 1 14 -4 14 -16 0 -11 32 7 52 12 14 14 24 7 36 -11 19 -7
65 6 57 4 -2 9 -44 11 -92z m1179 93 c0 -11 -19 -15 -25 -6 -3 5 1 10 9 10 9
0 16 -2 16 -4z m-1110 -27 c0 -5 -4 -9 -10 -9 -5 0 -10 7 -10 16 0 8 5 12 10
9 6 -3 10 -10 10 -16z m353 -47 c18 -16 23 -52 7 -52 -5 0 -10 6 -10 14 0 8
-9 18 -20 21 -11 4 -20 15 -20 26 0 21 10 19 43 -9z m217 -104 c93 -106 85
-101 147 -93 31 4 62 9 70 12 18 7 16 -6 -6 -43 -23 -37 -77 -81 -107 -86 -25
-4 -123 42 -124 59 0 12 -72 73 -86 73 -13 0 -50 59 -45 73 2 7 5 21 6 31 1
11 9 20 19 22 9 1 26 14 38 29 l21 27 11 -26 c6 -14 31 -49 56 -78z m513 27
c-7 -21 -13 -19 -13 6 0 11 4 18 10 14 5 -3 7 -12 3 -20z m-152 -261 c12 -15
9 -20 -24 -49 -21 -18 -59 -38 -85 -45 -55 -14 -72 -26 -72 -51 0 -14 7 -19
25 -19 39 0 129 38 154 64 13 14 29 22 37 19 8 -3 20 0 28 6 28 23 166 -21
166 -53 0 -7 9 -21 21 -32 12 -10 27 -31 35 -46 8 -15 28 -35 44 -43 48 -25
86 -68 105 -121 11 -27 22 -51 25 -54 11 -10 30 -62 25 -69 -2 -5 -21 -11 -40
-14 -20 -3 -58 -22 -84 -42 -47 -34 -49 -37 -38 -64 10 -27 8 -33 -29 -73
l-40 -43 -16 33 c-15 32 -15 33 7 48 26 17 79 110 70 124 -11 18 -30 11 -47
-18 -9 -15 -29 -40 -44 -55 -26 -26 -28 -27 -47 -10 -20 19 -89 106 -119 152
-27 40 -100 111 -115 111 -7 0 -12 3 -12 8 4 24 -3 42 -16 42 -8 0 -15 3 -15
8 0 4 -24 32 -52 62 -29 30 -72 80 -95 111 -23 31 -49 63 -58 72 -15 16 -13
17 32 18 191 5 186 4 207 32 20 28 38 25 67 -9z m-486 -162 c46 -49 51 -58 36
-64 -28 -10 -58 -54 -77 -111 -28 -87 -44 -115 -75 -127 -38 -16 -59 0 -59 44
1 50 26 143 49 179 52 80 56 104 35 192 -2 11 5 3 16 -18 12 -21 45 -64 75
-95z m-1041 33 c-4 -8 -8 -15 -10 -15 -2 0 -4 7 -4 15 0 8 4 15 10 15 5 0 7
-7 4 -15z m13 -97 c-3 -7 -5 -2 -5 12 0 14 2 19 5 13 2 -7 2 -19 0 -25z m2068
-318 c-10 -16 -86 -23 -98 -10 -9 10 -8 12 6 7 26 -10 68 10 75 35 l5 22 9
-23 c4 -13 6 -27 3 -31z m42 -110 c3 -67 -2 -71 -64 -45 -59 25 -96 19 -145
-21 -23 -20 -46 -41 -50 -48 -4 -6 -8 -8 -8 -5 0 4 18 34 41 68 30 45 44 59
53 52 8 -7 27 -5 56 5 25 9 57 14 72 12 15 -3 26 -2 26 1 -1 6 13 41 16 41 0
0 2 -27 3 -60z m-615 -84 c9 -20 7 -28 -7 -42 -17 -17 -17 -17 -11 3 4 12 1
25 -9 33 -8 7 -12 16 -9 21 9 16 24 10 36 -15z m188 -48 c0 -7 -5 -20 -10 -28
-8 -12 -10 -9 -10 13 0 15 5 27 10 27 6 0 10 -6 10 -12z m168 -19 c3 -12 2
-12 -6 0 -6 8 -15 10 -22 6 -9 -5 -11 -4 -6 4 10 15 28 10 34 -10z m212 -41
c8 -13 15 -41 16 -63 1 -22 14 -65 28 -95 14 -30 26 -61 26 -68 0 -18 44 -81
69 -98 12 -9 21 -22 21 -30 0 -8 7 -14 15 -14 15 0 85 -127 85 -155 0 -8 4
-23 9 -33 5 -9 12 -24 15 -32 3 -8 13 -26 23 -40 49 -72 -72 75 -217 265 -14
18 -55 67 -92 110 -38 43 -68 84 -68 91 0 6 16 21 35 33 36 21 47 51 19 51
-35 0 -58 62 -32 88 18 18 31 15 48 -10z m-490 -17 c17 -32 13 -50 -10 -44
-11 3 -26 0 -33 -6 -15 -12 -27 -5 -27 14 0 14 37 55 50 55 5 0 14 -9 20 -19z
m-146 -81 c-6 -38 -5 -41 24 -51 26 -9 32 -18 42 -62 7 -29 20 -64 31 -79 10
-15 19 -32 19 -37 0 -31 68 -34 156 -6 17 5 28 -3 56 -42 60 -81 99 -155 124
-231 30 -91 55 -130 137 -216 48 -49 71 -66 83 -62 21 8 54 -20 54 -45 0 -12
11 -21 32 -27 23 -6 34 -16 38 -33 5 -20 12 -24 44 -25 34 0 41 -5 57 -37 19
-36 62 -67 94 -67 8 0 15 -5 15 -11 0 -7 11 -9 30 -5 34 6 32 8 130 -105 36
-41 73 -83 83 -94 49 -56 128 -157 165 -212 23 -34 46 -64 51 -68 11 -6 177
-224 202 -265 25 -40 30 -80 9 -80 -28 0 -84 -43 -91 -70 -6 -20 -7 -15 -8 19
-1 25 -8 52 -16 61 -13 15 -13 22 -1 65 l15 48 -40 40 c-34 34 -43 39 -72 34
l-32 -6 37 19 c45 24 57 54 32 81 -21 23 -42 24 -65 3 -24 -21 -43 -10 -27 16
27 43 -40 119 -81 93 -27 -17 -36 -69 -17 -98 14 -22 14 -25 1 -25 -23 0 -79
-55 -73 -71 3 -8 18 -21 32 -29 22 -11 31 -12 46 -2 29 18 35 15 15 -8 -10
-11 -21 -18 -25 -15 -14 8 7 -186 23 -211 4 -7 9 -43 12 -80 3 -38 7 -89 10
-114 3 -25 10 -88 16 -140 5 -52 17 -122 25 -154 18 -75 3 -93 -35 -40 -13 19
-30 34 -37 34 -20 0 -56 -70 -50 -97 9 -32 49 -56 86 -51 16 3 30 1 30 -4 0
-4 -9 -8 -19 -8 -43 0 -70 -89 -33 -109 14 -7 29 -4 59 14 37 20 42 21 48 7 7
-19 33 -206 41 -297 3 -33 7 -66 10 -74 2 -8 7 -57 9 -110 3 -53 8 -128 10
-167 l6 -71 -56 19 c-63 21 -91 14 -101 -27 l-6 -25 -44 26 c-31 18 -59 26
-98 27 l-55 1 -20 86 c-24 104 -39 177 -45 210 -15 101 -28 183 -46 300 -31
204 -39 247 -67 350 -25 93 -74 263 -94 328 -6 18 -13 53 -15 77 -3 25 -12 58
-20 73 -7 15 -14 35 -14 45 0 15 3 15 20 5 26 -17 71 0 87 32 12 22 10 27 -11
46 -20 18 -23 28 -19 65 6 58 -12 84 -48 70 -28 -10 -39 -35 -39 -93 0 -21 -4
-38 -10 -38 -5 0 -10 11 -10 25 0 14 -4 33 -10 43 -19 35 -60 250 -60 321 0
54 -12 107 -51 227 -16 49 -19 76 -13 133 5 57 2 79 -12 109 -24 51 -51 72
-93 72 -20 0 -45 7 -55 15 -19 15 -19 15 1 53 25 43 16 72 -22 72 -18 0 -22 4
-18 20 8 30 -26 100 -48 100 -24 0 -52 -60 -51 -111 1 -23 3 -43 5 -46 3 -2
-8 -17 -24 -33 -16 -16 -29 -38 -29 -49 0 -24 31 -44 55 -35 13 6 14 3 4 -19
-10 -21 -8 -30 8 -54 11 -15 18 -33 16 -40 -2 -6 6 -33 18 -60 19 -40 39 -134
53 -255 2 -14 13 -46 25 -71 15 -31 21 -64 22 -108 0 -85 17 -215 35 -264 8
-22 18 -76 23 -120 5 -44 18 -111 31 -150 12 -38 26 -97 31 -130 18 -121 40
-214 59 -253 10 -21 28 -81 40 -133 12 -52 34 -148 50 -214 15 -66 36 -160 45
-210 9 -49 23 -105 31 -124 16 -37 12 -55 -5 -22 -11 20 -142 68 -159 57 -19
-12 -48 31 -86 125 -14 36 -26 70 -26 75 0 5 -8 21 -17 34 -20 29 -19 54 4
127 16 49 16 54 -2 92 -10 23 -22 41 -27 41 -4 0 -8 8 -8 18 0 9 -9 32 -20 50
-16 26 -24 31 -34 23 -14 -12 -16 -7 -55 144 -11 44 -32 118 -46 165 -14 46
-32 132 -40 189 -8 58 -18 107 -23 110 -4 3 -7 38 -8 78 -1 41 -6 79 -13 87
-7 8 -10 20 -6 26 3 5 2 10 -4 10 -6 0 -14 15 -19 33 -9 31 -58 157 -89 226
-11 24 -12 39 -5 55 14 32 7 119 -16 179 -11 28 -26 72 -33 97 -7 25 -30 76
-51 113 -21 38 -38 71 -38 74 0 8 -77 110 -100 133 -10 10 -37 44 -61 76 -23
33 -53 70 -66 83 -32 33 -29 65 11 114 36 46 66 98 66 119 0 7 7 27 16 43 9
17 22 82 29 145 12 101 43 210 60 210 3 0 2 -18 -1 -40z m294 15 c-6 -14 -13
-23 -15 -21 -5 5 15 46 22 46 3 0 -1 -11 -7 -25z m252 10 c-6 -8 -9 -19 -5
-24 3 -7 0 -8 -9 -5 -19 7 -20 16 -4 32 17 17 33 15 18 -3z m-342 -65 c-5 -17
-13 -30 -17 -30 -3 0 -18 -11 -33 -24 l-26 -25 2 24 c0 13 4 21 7 19 11 -7 50
30 54 51 2 11 4 21 4 23 1 2 5 1 10 -3 6 -3 6 -17 -1 -35z m202 -69 c0 -18
-18 -21 -30 -6 -10 13 -9 15 9 15 11 0 21 -4 21 -9z m161 -66 c34 -36 67 -65
74 -65 7 0 21 -12 31 -27 10 -16 45 -60 78 -98 70 -81 101 -119 187 -230 35
-44 84 -102 109 -130 25 -27 52 -63 60 -79 8 -16 23 -31 33 -34 9 -2 17 -11
17 -18 0 -10 -7 -13 -24 -8 -14 3 -37 -1 -54 -10 -38 -20 -63 -21 -37 -2 11 8
16 19 12 30 -7 19 -38 21 -55 4 -9 -9 -13 -7 -18 7 -5 13 1 24 21 41 18 14 26
28 22 38 -9 23 -34 20 -62 -8 -21 -21 -26 -22 -37 -9 -10 13 -8 18 15 35 50
37 31 67 -28 42 -46 -19 -52 -14 -20 16 30 28 33 60 6 60 -10 0 -24 -7 -31
-15 -19 -23 -40 -18 -37 8 1 16 -4 22 -18 23 -11 1 -24 2 -28 3 -5 1 1 13 13
28 19 24 19 28 5 36 -11 6 -22 3 -36 -9 -16 -14 -22 -15 -32 -5 -9 10 -7 16
11 31 12 10 22 25 22 34 0 20 -34 21 -50 1 -16 -20 -26 -19 -34 2 -5 11 2 25
19 41 36 33 18 54 -24 29 -24 -14 -31 -15 -40 -3 -9 11 -6 18 15 33 16 12 24
25 20 31 -10 17 -36 15 -58 -5 -13 -12 -22 -13 -29 -6 -14 14 -3 33 17 33 8 0
14 9 14 20 0 22 -20 26 -50 10 -13 -7 -21 -6 -30 5 -9 11 -6 17 14 30 14 10
26 21 26 26 0 13 -54 11 -68 -3 -9 -9 -19 -3 -46 27 -31 37 -32 41 -19 62 22
33 30 28 25 -12 -5 -38 10 -46 42 -22 22 16 14 57 -10 57 -8 0 -12 5 -9 10 10
15 11 14 76 -55z m-2559 -232 c23 -21 23 -33 -2 -33 -16 0 -40 26 -40 44 0 12
24 6 42 -11z m-52 -138 c-13 -16 -40 -21 -40 -7 1 22 42 48 48 30 2 -5 -2 -15
-8 -23z m155 5 c-3 -5 -10 -10 -16 -10 -5 0 -9 5 -9 10 0 6 7 10 16 10 8 0 12
-4 9 -10z m-41 -36 c3 -8 2 -12 -4 -9 -6 3 -10 10 -10 16 0 14 7 11 14 -7z
m-12 -91 c26 -45 26 -69 -2 -91 l-25 -20 23 -24 c27 -30 28 -41 3 -33 -18 5
-51 -17 -51 -35 0 -10 25 -20 51 -20 29 0 27 -56 -3 -64 l-23 -6 23 -19 c13
-12 18 -22 12 -26 -18 -11 -10 -33 15 -39 30 -8 34 -41 5 -49 -30 -8 -24 -34
10 -46 24 -8 30 -16 30 -38 0 -15 3 -45 7 -66 6 -37 5 -38 -21 -31 -30 7 -58
-10 -49 -32 3 -8 19 -14 38 -14 37 0 45 -14 65 -115 6 -33 14 -68 16 -78 5
-14 0 -17 -28 -15 -27 3 -34 -1 -36 -19 -3 -18 3 -22 37 -28 56 -9 54 -33 -1
-37 -47 -3 -61 -26 -35 -56 8 -9 17 -28 20 -43 6 -22 11 -25 42 -21 31 4 35 2
35 -19 0 -12 -7 -30 -16 -40 -18 -20 -11 -59 11 -59 8 0 15 -18 19 -47 4 -27
9 -60 12 -74 4 -21 0 -28 -15 -32 -28 -7 -26 -25 4 -39 14 -6 26 -17 26 -25 1
-7 2 -16 3 -20 9 -39 16 -88 21 -138 3 -33 10 -82 15 -110 15 -77 19 -121 35
-337 4 -55 3 -57 -23 -60 -39 -4 -38 -43 0 -43 37 0 40 -17 5 -26 -43 -11 -60
-29 -46 -46 7 -7 20 -11 30 -8 30 10 24 -30 -7 -44 -36 -16 -25 -35 24 -39 37
-3 42 -6 42 -28 0 -13 -3 -24 -7 -25 -30 -3 -47 -9 -54 -21 -14 -21 -5 -33 31
-38 41 -6 51 -27 16 -36 -45 -11 -40 -59 5 -52 38 5 37 -27 -1 -41 -44 -15
-38 -47 8 -45 25 2 32 -2 32 -17 0 -11 -7 -19 -17 -19 -10 0 -24 -4 -32 -9
-21 -13 5 -44 30 -36 21 7 25 1 34 -48 7 -34 6 -37 -17 -37 -13 0 -33 -6 -43
-14 -30 -22 -4 -46 41 -39 29 5 34 3 34 -13 0 -15 -2 -16 -9 -5 -8 12 -14 13
-36 3 -29 -14 -29 -36 1 -38 10 -1 24 -2 30 -3 17 -2 30 -135 25 -258 -1 -6
-9 -19 -18 -28 -16 -16 -17 -16 -30 1 -7 10 -13 36 -13 57 0 33 2 38 15 27 31
-26 45 17 25 76 -22 64 -86 65 -88 2 -1 -18 4 -51 9 -72 14 -51 20 -126 13
-148 -4 -14 -9 -15 -24 -6 -15 10 -19 30 -25 112 -4 56 -8 121 -10 146 -2 25
-6 101 -10 170 -13 272 -20 362 -30 420 -2 14 -7 61 -10 105 -6 79 -12 136
-40 350 -15 116 -19 141 -35 219 -7 35 -7 52 1 62 6 8 8 21 5 30 -4 9 -2 22 4
28 13 16 -17 59 -36 52 -19 -7 -23 3 -34 91 -24 179 -24 183 -5 197 11 8 16
20 12 29 -4 11 1 17 16 19 25 3 26 31 4 77 -9 19 -20 26 -42 26 -28 0 -30 3
-36 50 -3 28 -16 113 -28 190 -12 77 -21 154 -19 170 1 17 -1 35 -5 42 -4 6
-5 18 -2 26 3 7 1 43 -5 78 -6 35 -15 107 -19 161 -5 53 -12 102 -17 109 -4 8
-7 29 -6 49 2 25 -4 43 -23 64 -14 16 -25 32 -25 36 0 3 21 13 48 21 39 12 49
20 57 47 11 40 35 41 57 5z m2365 -60 c-3 -10 -5 -2 -5 17 0 19 2 27 5 18 2
-10 2 -26 0 -35z m811 -55 c2 -32 -4 -61 -19 -92 -12 -26 -23 -45 -25 -43 -2
2 3 34 12 70 18 73 11 97 -30 97 -17 0 -18 2 -6 10 8 6 26 9 40 8 22 -3 25 -8
28 -50z m-331 -32 c20 -34 97 -115 114 -119 10 -3 35 3 54 13 33 17 36 17 33
2 -2 -9 -23 -27 -48 -40 -56 -30 -83 -19 -111 43 -11 25 -31 57 -44 71 -14 15
-25 31 -25 35 0 14 18 10 27 -5z m-502 -16 c3 -5 -3 -10 -15 -10 -12 0 -18 5
-15 10 3 6 10 10 15 10 5 0 12 -4 15 -10z m866 -71 c-5 -13 -21 -35 -35 -48
-22 -20 -26 -22 -26 -7 0 9 7 19 15 23 9 3 23 19 31 35 18 35 29 32 15 -3z
m-781 -12 c0 -20 50 -41 64 -27 16 16 43 12 49 -9 3 -15 -1 -21 -16 -23 -29
-4 -35 -38 -8 -45 27 -7 27 -19 1 -26 -11 -3 -23 -13 -26 -22 -8 -19 12 -36
33 -28 17 7 16 -7 -1 -30 -20 -25 -9 -57 19 -57 17 0 26 -9 34 -31 14 -41 14
-41 -8 -34 -29 9 -34 -10 -12 -51 18 -32 18 -39 6 -57 -12 -17 -12 -25 4 -56
37 -72 81 -279 81 -382 0 -56 4 -80 15 -89 9 -8 13 -21 9 -36 -4 -15 1 -32 15
-50 12 -15 21 -40 21 -56 0 -16 6 -31 14 -34 14 -5 42 -75 47 -119 2 -11 -3
-31 -10 -44 -12 -21 -11 -26 5 -38 24 -18 41 -16 48 3 4 9 9 14 12 11 11 -11
-16 -46 -38 -49 -14 -2 -24 -11 -26 -24 -2 -17 4 -23 28 -28 39 -7 39 -41 0
-41 -18 0 -26 -6 -28 -22 -3 -22 8 -27 56 -26 20 1 14 -24 -8 -30 -23 -6 -27
-35 -5 -43 8 -4 21 -1 29 5 19 16 26 -6 26 -74 0 -29 4 -55 9 -57 5 -1 11 -17
14 -34 3 -17 12 -42 20 -55 25 -39 28 -95 6 -115 -26 -23 -24 -49 6 -68 23
-15 24 -18 10 -39 -13 -21 -13 -25 11 -50 17 -18 28 -46 34 -85 15 -87 14 -95
-10 -80 -17 11 -23 9 -42 -10 l-22 -22 -19 63 c-23 78 -46 184 -57 262 -26
183 -31 212 -38 230 -5 11 -16 40 -25 65 -8 25 -36 100 -61 167 -25 67 -48
143 -51 170 -3 26 -8 66 -11 88 -7 49 -43 184 -55 207 -5 10 -9 41 -9 69 0 28
-11 97 -25 154 -18 77 -24 129 -24 211 0 77 -4 118 -15 139 -18 37 -45 190
-38 218 3 11 -8 46 -25 81 -45 90 -57 134 -43 151 15 19 30 19 30 2z m798 -75
c-7 -18 -16 -32 -20 -32 -12 0 -2 52 13 60 19 12 20 8 7 -28z m-215 -17 c-3
-9 -8 -14 -10 -11 -3 3 -2 9 2 15 9 16 15 13 8 -4z m135 -10 c2 -2 -11 -7 -27
-13 -31 -11 -48 -2 -36 18 5 8 51 4 63 -5z m132 5 c0 -5 -5 -10 -11 -10 -5 0
-7 5 -4 10 3 6 8 10 11 10 2 0 4 -4 4 -10z m-40 -56 c0 -8 10 -14 24 -14 17 0
31 -10 45 -32 11 -18 28 -42 39 -54 11 -11 32 -40 47 -65 28 -43 82 -111 138
-172 15 -16 27 -34 27 -38 0 -5 44 -66 97 -136 89 -117 167 -202 185 -203 5 0
26 -16 48 -36 31 -28 40 -44 40 -69 0 -24 -5 -34 -20 -38 -16 -4 -23 2 -34 26
-7 18 -20 38 -29 45 -13 11 -17 10 -27 -8 -9 -17 -7 -28 9 -56 12 -19 21 -44
21 -55 0 -18 -2 -19 -37 -4 -43 18 -49 26 -64 80 -6 23 -32 62 -60 93 -51 56
-59 76 -34 86 17 6 21 36 5 36 -6 0 -19 -5 -30 -12 -29 -18 -37 -1 -12 25 40
43 20 63 -28 30 -23 -15 -24 -15 -12 0 17 21 6 40 -20 34 -11 -3 -26 3 -38 16
-25 26 -25 37 -1 37 23 0 34 23 18 39 -16 16 -37 14 -43 -4 -8 -21 -16 -18
-37 10 -15 21 -15 28 -5 45 18 29 -8 46 -34 23 -16 -14 -18 -14 -24 1 -3 9 -1
23 6 31 15 18 3 37 -19 30 -20 -6 -48 36 -36 55 9 14 -12 30 -40 30 -24 0 -50
47 -35 65 13 15 3 25 -26 25 -13 0 -30 10 -38 22 -14 20 -14 23 4 35 11 8 17
20 14 28 -7 17 -45 20 -60 5 -7 -7 -16 -4 -29 10 -17 19 -17 20 25 39 45 20
80 18 80 -5z m-2825 -179 c37 -13 85 -36 106 -50 21 -14 43 -25 49 -25 5 0 10
-4 10 -9 0 -10 80 -29 143 -33 l38 -3 -53 -62 c-29 -34 -75 -80 -103 -101 -62
-48 -107 -95 -184 -192 -32 -41 -86 -104 -120 -140 -53 -56 -61 -62 -60 -40 1
14 -3 36 -8 50 -6 14 -14 48 -17 75 -4 28 -9 57 -11 65 -3 9 -14 76 -24 150
-10 74 -22 142 -26 151 -3 9 0 23 8 31 8 8 18 34 22 58 5 28 18 54 35 72 37
37 101 38 195 3z m1295 -10 c-7 -8 -17 -15 -22 -15 -6 0 -38 -14 -72 -30 -44
-22 -54 -25 -36 -10 14 11 41 27 60 36 19 9 42 20 50 24 24 14 34 11 20 -5z
m251 -31 c7 -9 24 -20 36 -25 13 -5 27 -19 32 -31 5 -13 19 -45 32 -73 12 -27
23 -52 24 -55 0 -3 6 -14 12 -25 6 -11 21 -49 33 -85 13 -36 35 -90 49 -120
22 -46 26 -69 26 -140 0 -65 4 -91 18 -110 9 -13 17 -42 17 -63 0 -46 18 -120
65 -272 19 -60 41 -150 50 -200 9 -49 18 -97 21 -106 6 -22 -27 -30 -71 -18
-27 8 -40 7 -57 -5 -21 -15 -24 -14 -52 12 -20 19 -27 22 -23 10 4 -10 2 -18
-3 -18 -6 0 -10 8 -10 18 0 9 -23 44 -52 77 -126 147 -172 267 -161 422 4 55
2 92 -7 113 -14 34 -12 33 -42 19 -22 -10 -23 -15 -23 -120 0 -60 4 -109 9
-109 4 0 6 -10 3 -22 -14 -55 41 -209 105 -301 11 -15 18 -37 15 -48 -15 -55
50 -197 107 -234 21 -14 66 -90 66 -112 0 -6 7 -16 15 -23 10 -8 15 -31 15
-69 0 -31 4 -61 9 -67 5 -5 4 -35 -2 -71 -11 -62 -11 -62 -41 -58 -46 6 -83
22 -89 39 -4 9 -32 27 -64 41 -32 14 -65 30 -73 35 -49 32 -128 60 -166 60
-39 0 -44 3 -44 22 0 12 -7 47 -15 77 -34 134 -79 381 -70 390 5 4 20 -3 60
-28 39 -25 57 -25 86 -2 21 16 22 22 11 45 -7 16 -20 26 -32 26 -17 0 -19 3
-10 19 14 26 13 74 -2 89 -18 18 -38 15 -79 -14 -34 -23 -37 -29 -32 -60 3
-20 1 -34 -4 -34 -14 0 -36 196 -34 304 1 43 -15 64 -59 76 -43 12 -63 30 -32
30 48 0 95 72 57 86 -13 5 -12 11 6 36 18 24 20 34 11 54 -10 22 -16 23 -59
18 -26 -3 -53 -7 -59 -9 -8 -2 -10 9 -7 34 4 30 1 42 -16 58 -63 59 -111 53
-132 -17 -15 -49 -2 -86 36 -100 39 -15 30 -25 -23 -26 -64 -1 -88 -16 -117
-75 -37 -73 -32 -76 89 -54 16 3 42 13 58 21 19 10 34 12 40 6 6 -6 -2 -12
-22 -15 -76 -16 -105 -98 -53 -153 15 -16 26 -37 25 -46 -2 -10 7 -31 19 -47
19 -26 22 -41 20 -108 -1 -63 6 -109 38 -233 36 -140 71 -310 71 -346 0 -9
-11 -14 -27 -14 -16 0 -39 -9 -53 -20 -14 -11 -34 -20 -45 -20 -11 0 -31 -9
-45 -20 -26 -21 -45 -26 -36 -11 4 5 -2 8 -11 6 -81 -16 -79 -17 -94 28 -7 23
-20 53 -28 66 -11 17 -15 56 -16 148 -1 116 0 125 20 134 19 10 19 9 1 -5 -10
-8 -15 -20 -11 -26 8 -14 46 -3 62 18 10 13 10 19 -4 34 -9 10 -22 18 -30 18
-8 0 -1 11 16 26 34 29 39 58 15 92 -19 27 -34 28 -67 2 -14 -11 -28 -17 -31
-12 -2 4 -4 44 -4 88 0 44 -10 132 -21 195 -19 101 -20 129 -11 234 l9 120
-31 32 c-25 26 -40 33 -71 33 -51 0 -47 27 7 45 82 28 102 85 29 85 -21 -1
-49 -7 -63 -15 -36 -21 -38 -19 -33 28 5 39 2 46 -26 69 -54 46 -98 13 -88
-68 l4 -43 -43 6 c-75 10 -115 -33 -78 -85 20 -29 74 -30 99 -2 22 24 31 25
39 4 4 -12 2 -15 -9 -10 -8 3 -14 2 -13 -2 2 -4 -6 -20 -16 -35 -35 -52 -19
-137 25 -137 15 0 17 7 14 52 -4 57 7 88 31 88 8 0 19 -11 24 -24 13 -35 49
-44 71 -17 21 25 27 26 51 4 19 -17 25 -53 7 -53 -8 0 -35 -49 -44 -80 -7 -23
-21 -47 -33 -56 -21 -15 -11 -48 16 -52 13 -2 26 -10 29 -18 3 -8 9 -11 14 -8
24 14 5 -17 -22 -39 -18 -14 -29 -29 -25 -36 9 -14 36 -15 36 -1 0 6 7 10 15
10 17 0 19 -9 6 -28 -4 -7 -23 -12 -42 -11 -19 2 -45 -3 -57 -10 -13 -7 -25
-11 -27 -9 -3 2 -6 49 -9 103 -4 106 -16 152 -41 161 -8 4 -22 1 -30 -6 -13
-11 -13 -16 -1 -39 8 -14 19 -82 26 -151 14 -155 15 -163 30 -233 6 -31 9 -61
6 -66 -3 -5 -2 -31 3 -58 28 -138 41 -249 41 -340 l0 -101 -35 8 c-20 4 -42
13 -50 20 -26 21 -111 38 -154 30 -23 -4 -41 -6 -41 -3 0 7 -76 -38 -120 -72
-25 -19 -65 -47 -88 -61 -51 -32 -62 -24 -62 43 0 22 -6 94 -14 160 -8 65 -20
186 -26 269 l-12 151 24 25 c25 24 25 24 34 4 5 -11 21 -27 35 -35 24 -13 29
-13 53 2 14 10 26 26 26 36 0 27 -38 56 -68 53 l-27 -2 25 14 c19 11 26 25 31
63 3 26 4 52 1 57 -6 11 -91 -1 -108 -15 -9 -7 -14 -34 -14 -75 0 -34 -4 -66
-10 -69 -10 -6 -16 15 -24 90 -3 28 -12 106 -21 175 -13 92 -14 129 -6 142 6
10 11 27 11 38 0 11 9 25 21 32 23 15 191 204 229 258 32 47 76 91 189 188 80
69 96 79 105 66 21 -27 126 -41 126 -15 0 4 39 6 87 5 67 -2 88 -6 95 -18 10
-18 73 -22 98 -6 10 6 20 4 32 -7 13 -12 43 -16 123 -17 106 -2 133 3 121 22
-3 6 -3 13 2 16 4 2 33 -34 63 -82 29 -48 74 -114 99 -147 61 -82 72 -98 130
-187 27 -43 54 -78 59 -78 22 0 41 13 41 28 0 26 -32 105 -51 127 -9 11 -20
30 -24 43 -4 13 -23 39 -43 60 -20 20 -58 66 -84 102 -26 36 -51 70 -55 75 -5
6 -14 21 -21 35 -7 14 -24 40 -37 59 -14 19 -25 39 -25 46 0 14 89 60 150 76
47 12 140 25 201 28 23 0 42 -5 50 -15z m-2128 -203 c16 -10 24 -21 19 -25 -6
-3 -23 5 -39 19 -33 29 -20 33 20 6z m3477 -32 c0 -11 -4 -17 -10 -14 -5 3
-10 15 -10 26 0 11 5 17 10 14 6 -3 10 -15 10 -26z m-3440 -49 c0 -5 -5 -10
-11 -10 -5 0 -7 5 -4 10 3 6 8 10 11 10 2 0 4 -4 4 -10z m3531 -43 c-13 -13
-26 -3 -16 12 3 6 11 8 17 5 6 -4 6 -10 -1 -17z m-131 -17 c0 -5 -9 -10 -20
-10 -11 0 -20 5 -20 10 0 6 9 10 20 10 11 0 20 -4 20 -10z m-3125 -40 c4 -6
-7 -10 -25 -10 -18 0 -29 4 -25 10 3 6 15 10 25 10 10 0 22 -4 25 -10z m737
-47 c-10 -28 -10 -28 -11 12 -1 28 2 36 10 28 8 -8 8 -19 1 -40z m2511 3 c18
4 32 0 47 -14 19 -18 21 -27 15 -71 -7 -51 -17 -67 -35 -56 -6 4 -4 15 6 30 9
13 13 29 9 35 -9 15 -35 12 -41 -4 -6 -15 -40 -10 -83 13 -20 11 -20 14 -6 40
16 33 34 43 52 29 6 -5 23 -6 36 -2z m-577 -33 c-10 -10 -19 5 -10 18 6 11 8
11 12 0 2 -7 1 -15 -2 -18z m-1806 -18 c-7 -8 -20 -15 -29 -15 -11 1 -8 5 9
15 32 18 35 18 20 0z m-957 -2 c-7 -2 -19 -2 -25 0 -7 3 -2 5 12 5 14 0 19 -2
13 -5z m717 -18 c7 -9 10 -18 7 -21 -10 -11 -37 5 -37 21 0 19 14 19 30 0z
m-782 -103 c7 -42 12 -87 12 -100 0 -12 7 -25 15 -28 12 -5 13 -10 4 -20 -7
-9 -8 -33 0 -86 20 -134 22 -191 9 -199 -9 -6 -9 -11 2 -24 8 -9 13 -42 13
-83 0 -57 -5 -79 -36 -145 -21 -43 -37 -83 -37 -89 0 -5 -17 -44 -37 -86 -30
-62 -38 -93 -42 -157 l-6 -80 -35 -3 c-36 -4 -70 -26 -70 -46 0 -7 -13 -20
-30 -29 -18 -11 -33 -30 -38 -49 -7 -27 -13 -31 -45 -33 -40 -3 -41 -3 -28 23
27 51 43 103 38 122 -3 11 3 44 14 72 10 29 19 73 19 98 0 25 11 135 25 245
33 256 32 251 44 310 6 28 13 75 15 106 4 52 17 86 99 259 27 58 58 100 72
100 6 0 16 -35 23 -78z m1438 45 c9 -28 -25 -56 -39 -31 -13 23 0 65 18 58 8
-3 17 -15 21 -27z m1409 3 c3 -5 1 -10 -4 -10 -6 0 -11 5 -11 10 0 6 2 10 4
10 3 0 8 -4 11 -10z m629 -131 c11 -106 16 -154 22 -178 5 -22 3 -23 -11 -11
-13 11 -18 11 -31 -1 -13 -13 -12 -19 2 -48 19 -38 6 -64 -21 -41 -17 14 -21
75 -5 85 6 3 10 28 10 56 0 43 -2 49 -21 49 -19 0 -19 3 11 36 l32 37 -24 23
c-48 49 -47 48 -19 60 36 15 49 -1 55 -67z m141 51 c-10 -11 -21 -17 -24 -14
-3 3 3 12 13 20 28 20 32 17 11 -6z m-2065 -25 c-14 -17 -46 -20 -55 -6 -5 9
15 16 54 20 11 1 11 -2 1 -14z m2100 -29 c0 -2 -8 -10 -17 -17 -16 -13 -17
-12 -4 4 13 16 21 21 21 13z m-2279 -16 c36 0 19 -19 -28 -33 -27 -8 -50 -13
-52 -11 -2 2 4 15 13 29 11 17 23 24 33 21 8 -3 23 -6 34 -6z m139 -4 c0 -2
-7 -6 -15 -10 -8 -3 -15 -1 -15 4 0 6 7 10 15 10 8 0 15 -2 15 -4z m37 -42
c-3 -3 -12 -4 -19 -1 -8 3 -5 6 6 6 11 1 17 -2 13 -5z m-507 -49 c-7 -9 -15
-13 -17 -11 -7 7 7 26 19 26 6 0 6 -6 -2 -15z m445 -56 c39 -10 47 -17 67 -58
14 -27 24 -68 25 -101 1 -30 5 -68 8 -85 3 -16 9 -59 13 -95 5 -36 14 -85 20
-110 27 -115 44 -207 40 -225 -3 -16 -10 -19 -35 -17 -38 4 -46 -8 -33 -42 6
-16 17 -26 30 -26 17 0 20 -6 20 -44 0 -28 -5 -46 -14 -49 -16 -7 -19 -66 -4
-114 8 -28 14 -33 39 -33 38 0 47 -23 24 -63 -13 -22 -17 -48 -16 -96 4 -113
24 -255 46 -316 8 -22 18 -58 23 -80 5 -25 14 -41 25 -43 28 -6 31 26 9 107
-12 42 -24 95 -26 119 -3 24 -8 47 -11 52 -3 4 -7 45 -10 91 -3 46 -7 100 -10
119 -4 27 -3 31 5 18 12 -20 40 -169 40 -219 0 -44 33 -197 49 -226 15 -30 14
-70 -3 -80 -19 -10 -66 -80 -66 -97 0 -7 11 -23 24 -35 21 -19 27 -21 46 -11
19 10 22 18 17 54 -3 23 -2 48 3 56 8 12 10 11 10 -7 0 -12 5 -25 10 -28 6 -3
10 -23 10 -43 0 -20 7 -59 15 -86 16 -52 20 -157 8 -170 -5 -4 -8 -17 -8 -29
0 -19 -7 -21 -64 -25 l-64 -4 7 27 c4 15 3 32 -2 38 -5 7 -13 35 -17 62 -5 28
-9 55 -11 60 -8 34 -38 168 -46 210 -14 74 -16 85 -23 139 -3 28 -8 53 -11 57
-2 4 -7 29 -10 56 -3 26 -7 63 -9 82 -4 32 -8 88 -20 251 -2 36 -7 76 -10 90
-3 14 -7 43 -10 65 -3 22 -7 49 -10 60 -2 11 -13 67 -25 125 -11 58 -27 128
-34 155 -24 85 -46 188 -51 237 -4 42 -3 47 17 50 30 4 37 38 9 45 -31 8 -25
21 12 25 25 2 33 8 35 26 3 21 0 23 -42 21 -25 -2 -48 0 -52 3 -11 12 7 29 24
24 24 -8 46 9 39 28 -4 9 -18 16 -33 16 -51 0 -114 67 -87 93 10 10 48 8 98
-4z m1345 -79 c0 -5 -2 -10 -4 -10 -3 0 -8 5 -11 10 -3 6 -1 10 4 10 6 0 11
-4 11 -10z m-2418 -76 c-5 -9 -7 -24 -5 -34 5 -19 -21 -45 -37 -35 -12 7 -13
45 -2 61 7 11 28 22 45 23 4 1 4 -6 -1 -15z m3119 -60 c16 -93 18 -106 23
-154 9 -77 17 -123 31 -175 13 -47 17 -78 30 -219 3 -32 7 -62 9 -65 7 -10 25
-218 36 -401 11 -182 15 -235 27 -310 13 -85 12 -90 -17 -88 -17 2 -25 -2 -25
-12 0 -9 11 -16 28 -18 15 -2 27 -9 27 -17 0 -8 -6 -12 -14 -9 -17 6 -56 -12
-56 -26 0 -15 58 -12 67 3 7 12 10 1 31 -115 l9 -48 -31 0 c-17 0 -42 -7 -54
-16 -21 -15 -22 -14 -22 12 0 15 7 35 16 45 19 21 13 46 -13 56 -10 4 -21 11
-26 17 -10 15 -6 207 5 229 7 14 5 24 -9 39 -17 19 -17 20 2 17 11 -2 20 1 20
6 -1 6 -4 44 -9 85 -4 41 -9 102 -11 135 -2 33 -7 83 -11 110 -5 28 -9 76 -9
108 0 50 -2 57 -17 53 -28 -7 -31 12 -8 41 l21 27 -26 13 c-18 10 -25 22 -25
43 0 32 9 37 27 19 14 -14 43 -5 43 14 0 25 -29 42 -50 29 -15 -9 -19 -7 -23
16 -4 20 1 34 20 54 24 26 25 30 15 65 -14 45 -30 208 -33 328 -1 76 -7 95
-29 95 -11 0 -20 -4 -20 -10 0 -5 -4 -10 -9 -10 -13 0 1 41 24 72 11 14 21 25
23 23 1 -1 7 -29 13 -61z m-2482 3 c11 -17 10 -18 -11 -11 -49 16 -86 0 -74
-32 5 -13 15 -15 46 -11 22 3 40 1 40 -4 0 -5 -10 -9 -23 -9 -13 0 -28 -5 -34
-11 -18 -18 -3 -39 28 -39 33 0 36 -7 12 -26 -17 -12 -17 -14 5 -36 27 -30 28
-40 2 -56 -26 -16 -26 -41 1 -50 19 -7 19 -9 5 -21 -22 -19 -20 -30 9 -41 31
-12 32 -36 3 -59 -22 -18 -18 -41 8 -41 16 0 19 -16 4 -25 -6 -4 -8 -15 -5
-26 4 -11 2 -19 -4 -19 -6 0 -11 -4 -11 -10 0 -5 5 -10 12 -10 18 0 48 -31 48
-50 0 -13 -6 -16 -24 -13 -17 4 -27 -1 -35 -16 -10 -18 -8 -21 14 -27 14 -3
32 -4 40 0 8 3 15 1 15 -4 0 -6 -10 -10 -23 -10 -13 0 -32 -6 -43 -14 -18 -14
-18 -15 -1 -21 9 -4 26 -5 37 -2 16 4 20 0 20 -19 0 -13 -4 -24 -9 -24 -5 0
-16 -3 -24 -6 -10 -3 -17 3 -21 20 -3 14 -11 26 -16 26 -17 0 -31 -50 -24 -86
7 -37 26 -44 53 -20 18 16 55 24 59 13 1 -4 1 -17 1 -29 -1 -17 -2 -19 -6 -5
-6 22 -29 22 -37 1 -4 -9 -9 -14 -13 -11 -10 11 -33 -14 -33 -35 0 -29 28 -33
62 -8 16 12 31 20 32 18 10 -16 26 -62 22 -65 -3 -3 -22 -7 -43 -10 -70 -10
-64 -49 8 -45 34 3 40 0 37 -15 -2 -10 -12 -18 -23 -19 -41 -2 -45 -4 -45 -24
0 -18 5 -20 38 -18 33 3 37 0 40 -23 3 -23 0 -26 -22 -22 -21 4 -26 1 -26 -15
0 -16 8 -22 33 -24 l32 -4 -27 -12 c-27 -11 -30 -42 -4 -42 6 0 3 -7 -6 -14
-15 -11 -16 -16 -4 -31 8 -11 20 -16 29 -12 17 6 27 -10 19 -31 -3 -9 -8 -10
-18 -1 -8 6 -21 9 -29 5 -19 -7 -20 -36 0 -37 8 -1 21 -2 28 -3 12 -1 27 -16
27 -27 0 -4 -16 -10 -36 -13 -26 -5 -34 -12 -32 -24 5 -24 39 -28 55 -6 12 16
13 15 13 -12 0 -25 -5 -31 -32 -39 -20 -6 -34 -18 -36 -29 -3 -16 1 -18 32
-14 24 3 37 -1 41 -10 8 -21 -3 -32 -34 -32 -15 0 -31 -3 -34 -7 -13 -12 15
-33 44 -33 16 0 29 -4 29 -10 0 -5 -8 -10 -19 -10 -20 0 -34 -42 -25 -77 4
-14 -2 -22 -20 -31 -14 -6 -26 -20 -26 -30 0 -15 6 -18 30 -14 23 3 30 0 30
-12 0 -9 -7 -19 -15 -22 -10 -4 -13 -14 -9 -29 5 -21 2 -24 -25 -23 -17 1 -35
6 -40 12 -5 6 -14 105 -21 221 -12 215 -13 238 -24 322 -3 26 -8 75 -12 108
-3 33 -10 89 -15 124 -28 184 -32 229 -34 381 -1 91 -5 185 -8 210 -4 25 -9
80 -12 123 -2 42 -17 131 -31 197 -15 65 -24 125 -22 132 4 9 26 13 65 14 49
0 63 -3 72 -19z m686 -105 c-6 -15 -8 -15 -15 3 -4 12 -3 26 4 34 9 12 12 11
14 -3 2 -9 1 -25 -3 -34z m-1285 12 c0 -8 -4 -12 -10 -9 -5 3 -10 10 -10 16 0
5 5 9 10 9 6 0 10 -7 10 -16z m2830 -40 c0 -8 -4 -14 -10 -14 -5 0 -10 9 -10
21 0 11 5 17 10 14 6 -3 10 -13 10 -21z m210 -46 c0 -19 -16 -5 -17 14 -2 18
0 20 7 8 5 -8 10 -18 10 -22z m-3393 -56 c1 -15 13 -121 27 -237 40 -348 39
-333 13 -347 -27 -15 -137 -20 -137 -6 0 6 -7 25 -16 44 -15 31 -15 35 5 63
27 37 19 78 -17 92 -24 9 -24 12 -20 77 3 37 10 76 16 87 17 34 68 147 92 207
25 61 32 65 37 20z m1106 4 c8 -20 -20 -43 -35 -28 -8 8 -8 15 2 27 16 19 26
19 33 1z m2158 -36 c-32 -30 -51 -32 -51 -5 0 18 28 34 60 35 24 0 24 0 -9
-30z m-881 -19 c13 -25 3 -51 -20 -51 -9 0 -25 -8 -34 -19 -16 -17 -16 -20 -1
-35 9 -9 21 -16 27 -16 6 0 8 -13 3 -36 -4 -26 -2 -41 9 -53 8 -9 22 -38 31
-66 38 -111 86 -187 121 -190 10 -1 37 -9 58 -19 22 -9 50 -19 63 -22 12 -3
27 -12 33 -19 6 -8 18 -11 26 -8 7 3 17 -2 20 -11 3 -9 12 -16 19 -16 19 0 25
-12 36 -77 19 -107 19 -104 -2 -93 -10 6 -19 15 -19 20 0 6 -26 10 -57 11 -32
1 -69 4 -82 8 -22 6 -21 8 20 21 24 7 49 18 54 23 16 15 -68 -1 -120 -23 -52
-22 -75 -25 -75 -10 0 6 14 13 30 17 54 10 48 27 -6 18 -59 -9 -93 -9 -102 0
-10 9 18 24 59 31 41 7 66 20 57 29 -8 9 -119 -14 -135 -27 -17 -14 -44 8 -36
28 3 8 25 19 49 25 24 6 44 15 44 20 0 15 -59 10 -91 -7 -33 -17 -46 -14 -33
8 5 7 9 19 9 27 0 8 11 16 24 18 32 5 39 12 21 23 -10 7 -11 10 -2 10 6 0 12
6 12 14 0 11 -8 12 -37 5 -21 -4 -39 -6 -42 -4 -2 3 -10 0 -18 -7 -7 -6 -16
-8 -20 -5 -11 11 18 36 45 39 15 2 26 8 24 13 -3 11 -37 10 -89 0 -24 -5 -37
-3 -50 11 -17 17 -17 18 2 10 36 -14 40 -11 43 27 2 27 -1 37 -11 37 -8 0 -22
9 -32 20 -16 18 -16 20 -2 20 10 0 17 -4 17 -9 0 -5 9 -7 20 -4 11 3 17 10 14
15 -4 5 -1 20 6 33 11 20 9 28 -14 58 -33 43 -33 47 4 47 17 0 30 5 30 10 0 6
-6 10 -14 10 -14 0 -30 55 -20 71 3 5 21 9 40 9 28 0 38 6 52 30 20 35 28 37
42 11z m1020 -11 c0 -5 -2 -10 -4 -10 -3 0 -8 5 -11 10 -3 6 -1 10 4 10 6 0
11 -4 11 -10z m-1305 -56 c17 6 95 -22 95 -34 0 -16 -25 -17 -60 -3 -57 23
-80 36 -80 46 0 5 7 4 15 -3 8 -7 22 -10 30 -6z m1511 -40 c-6 -19 -12 -28
-14 -20 -3 13 14 56 22 56 2 0 -2 -16 -8 -36z m-39 -86 c-3 -8 -6 -5 -6 6 -1
11 2 17 5 13 3 -3 4 -12 1 -19z m-1341 -65 c-7 -7 -26 7 -26 19 0 6 6 6 15 -2
9 -7 13 -15 11 -17z m1587 10 c-7 -2 -19 -2 -25 0 -7 3 -2 5 12 5 14 0 19 -2
13 -5z m-10 -30 c-7 -2 -21 -2 -30 0 -10 3 -4 5 12 5 17 0 24 -2 18 -5z
m-2190 -144 c5 -55 5 -59 -4 -24 -5 22 -14 54 -19 71 -6 17 -10 44 -9 60 l0
29 13 -36 c8 -19 16 -64 19 -100z m2087 92 c0 -5 -9 -7 -20 -4 -11 3 -20 7
-20 9 0 2 9 4 20 4 11 0 20 -4 20 -9z m-2980 -72 c19 -10 51 -21 71 -24 l37
-5 6 -63 c3 -34 10 -91 15 -127 24 -168 41 -301 46 -360 3 -36 8 -87 11 -115
3 -27 8 -85 10 -127 4 -64 2 -77 -9 -72 -8 3 -28 -9 -45 -25 -17 -17 -40 -31
-52 -31 -11 0 -35 -7 -52 -16 -18 -10 -41 -13 -57 -10 -14 4 -37 9 -51 13 -35
8 -101 8 -197 0 l-81 -7 -1 43 c0 23 -5 84 -11 135 -5 51 -8 97 -6 101 3 4 1
23 -4 42 -5 19 -14 86 -20 149 -20 212 -21 225 -25 238 -3 8 7 12 28 12 18 0
45 7 61 15 15 8 39 15 52 15 12 0 26 5 30 11 4 6 19 9 38 5 19 -4 26 -3 17 3
-9 6 -10 11 -2 15 6 4 11 12 11 17 0 20 -132 -6 -167 -33 -20 -16 -73 1 -73
22 0 10 -3 25 -6 33 -5 13 21 27 61 32 17 3 65 28 65 35 0 11 102 84 134 97
39 15 120 7 166 -18z m-914 6 c17 -13 18 -14 1 -15 -10 0 -22 -10 -27 -22 -5
-13 -9 -17 -9 -10 -1 6 -7 12 -15 12 -19 0 -29 17 -22 35 7 19 47 19 72 0z
m49 5 c-3 -5 -11 -10 -16 -10 -6 0 -7 5 -4 10 3 6 11 10 16 10 6 0 7 -4 4 -10z
m1580 -39 c10 -32 28 -180 40 -331 6 -82 20 -182 33 -240 6 -25 12 -63 14 -84
3 -36 0 -40 -27 -48 -17 -5 -69 -11 -116 -12 -124 -4 -185 -41 -144 -86 10
-11 25 -18 32 -16 7 3 13 1 13 -4 0 -4 -22 -16 -50 -25 -29 -10 -50 -23 -50
-31 0 -18 24 -18 75 1 22 8 54 14 71 15 25 0 33 6 47 36 10 19 15 39 12 44 -3
4 -22 6 -44 3 -22 -3 -41 -1 -45 5 -9 15 40 21 153 19 l94 -2 22 -100 c35
-152 45 -217 37 -229 -3 -6 -7 -14 -8 -18 -1 -5 -2 -10 -3 -13 0 -3 -18 2 -38
10 -21 9 -54 20 -73 25 -19 5 -53 13 -75 19 -33 8 -160 23 -202 24 -7 0 -14 6
-17 14 -17 42 31 57 194 57 100 1 130 7 130 26 0 5 -10 12 -22 16 -13 3 -31
13 -40 22 -18 15 -84 14 -236 -4 l-53 -7 2 54 c1 30 -1 74 -4 99 -4 25 -9 97
-12 160 -3 63 -7 129 -10 145 -13 83 -22 194 -18 225 3 19 6 46 8 60 1 14 5
32 8 40 3 8 8 23 11 33 4 12 12 16 28 12 13 -3 37 -7 55 -8 17 -2 38 -9 46
-15 8 -7 29 -15 48 -18 19 -4 49 -15 68 -25 26 -14 38 -16 48 -7 11 9 9 16
-13 39 -24 25 -25 28 -10 51 21 33 7 53 -33 45 -43 -9 -42 17 2 31 45 14 45
14 52 -7z m315 -11 c20 -5 51 -21 70 -35 19 -14 42 -25 51 -25 10 0 39 -17 66
-37 60 -46 104 -62 199 -70 94 -8 108 -23 17 -18 -133 7 -179 16 -238 46 -60
29 -95 31 -95 4 0 -17 126 -72 180 -79 25 -3 74 -8 110 -11 64 -6 116 -12 135
-15 25 -5 35 2 35 26 0 14 -4 23 -10 19 -5 -3 -10 -1 -10 5 0 22 24 4 33 -26
6 -16 17 -35 26 -42 13 -11 -3 -12 -97 -8 -103 5 -113 4 -110 -12 2 -10 15
-18 33 -20 25 -3 17 -8 -47 -28 -92 -29 -97 -41 -38 -98 36 -34 47 -39 109
-46 72 -8 167 2 185 20 11 11 81 13 141 3 38 -6 36 -7 -40 -19 -148 -22 -160
-25 -196 -50 -19 -13 -40 -24 -46 -24 -36 0 -112 -35 -122 -56 -13 -30 -76
-57 -118 -50 -45 7 -101 -11 -114 -36 -10 -18 -8 -25 11 -40 22 -18 22 -18 1
-18 -20 0 -23 -3 -25 -32 -2 -18 141 -48 204 -43 l55 5 -59 -15 c-66 -17 -87
-30 -80 -49 10 -27 108 -36 368 -36 150 1 262 -3 265 -9 3 -5 37 -9 75 -10 39
0 74 -5 80 -11 7 -7 -14 -10 -64 -10 -78 1 -187 -24 -231 -53 -31 -20 -275
-34 -334 -19 -22 6 -66 13 -98 17 -56 6 -58 6 -48 -13 14 -27 47 -33 216 -41
174 -7 230 -1 321 38 83 35 170 47 234 31 25 -6 54 -12 65 -13 11 -1 35 -10
54 -20 26 -13 37 -14 47 -6 11 9 14 8 14 -2 0 -8 7 -26 14 -42 l15 -27 -47 -1
c-26 0 -58 -2 -71 -3 -13 -2 -42 1 -65 6 -40 8 -198 15 -516 22 -134 3 -336
-6 -380 -16 -15 -3 -27 35 -40 132 -5 36 -13 97 -19 135 -5 39 -17 88 -27 110
-17 39 -28 86 -40 170 -3 22 -9 49 -14 60 -18 41 -30 102 -30 155 -1 30 -7 87
-15 125 -8 39 -17 88 -19 110 -2 22 -8 55 -11 73 -7 30 -6 32 21 32 16 0 45
-5 64 -10z m1940 0 c0 -5 -6 -10 -14 -10 -8 0 -18 5 -21 10 -3 6 3 10 14 10
12 0 21 -4 21 -10z m-4196 -15 c-7 -17 -20 -20 -28 -6 -4 5 0 12 6 14 23 9 28
7 22 -8z m1846 1 c0 -2 -7 -7 -16 -10 -8 -3 -12 -2 -9 4 6 10 25 14 25 6z
m-1529 -52 c26 -26 29 -35 20 -51 -11 -22 -35 -33 -121 -57 -45 -12 -66 -26
-113 -76 -32 -33 -65 -60 -73 -60 -8 0 -13 -4 -10 -9 9 -14 -22 -34 -40 -27
-9 4 -22 3 -28 -2 -6 -5 -40 -17 -76 -27 -36 -10 -74 -27 -85 -37 -31 -26 -95
-8 -95 28 0 19 58 104 92 136 51 47 144 67 180 39 28 -23 46 -27 73 -17 11 5
26 10 33 12 23 7 14 61 -15 82 -37 27 -23 42 27 28 46 -12 73 -2 78 30 6 37
10 39 66 39 49 0 60 -4 87 -31z m2528 32 c-12 -10 -69 -24 -69 -16 0 5 8 11
18 13 22 6 57 8 51 3z m-139 -16 c0 -5 -2 -10 -4 -10 -3 0 -8 5 -11 10 -3 6
-1 10 4 10 6 0 11 -4 11 -10z m660 -90 c0 -5 -2 -10 -4 -10 -3 0 -8 5 -11 10
-3 6 -1 10 4 10 6 0 11 -4 11 -10z m45 -18 c3 -15 5 -41 3 -57 -1 -17 5 -41
14 -55 13 -21 24 -68 33 -140 4 -35 30 -126 39 -138 5 -7 13 -32 17 -55 4 -23
12 -61 18 -85 9 -36 9 -46 -4 -58 -8 -9 -15 -25 -15 -36 0 -20 1 -21 20 -3 20
18 20 17 22 -11 2 -47 3 -52 11 -60 4 -4 7 -12 7 -18 0 -5 -6 -1 -14 10 -12
15 -18 17 -33 8 -10 -6 -19 -19 -21 -28 -3 -14 3 -16 39 -10 33 6 41 4 37 -7
-2 -7 -15 -14 -29 -14 -32 0 -38 -30 -7 -38 22 -6 22 -7 4 -20 -31 -23 -13
-51 28 -44 31 5 34 3 44 -31 6 -19 9 -38 7 -42 -2 -4 -28 -8 -56 -9 -54 -2
-85 17 -94 57 -25 102 -45 194 -50 227 -3 22 -12 67 -21 100 -8 33 -18 74 -20
90 -26 159 -34 216 -35 255 -1 25 -7 75 -14 112 -12 63 -11 66 7 65 10 -1 17
-6 14 -13 -2 -6 0 -17 5 -25 15 -22 42 18 28 42 -5 11 -7 19 -3 19 3 0 1 6 -5
13 -6 8 -8 17 -4 20 13 13 22 7 28 -21z m-3392 1 c8 -5 10 -33 2 -33 -2 0 -19
9 -37 19 -17 11 -35 18 -40 15 -4 -3 -8 0 -8 5 0 10 64 6 83 -6z m3947 -23 c0
-5 -4 -10 -10 -10 -5 0 -10 5 -10 10 0 6 5 10 10 10 6 0 10 -4 10 -10z m9
-170 l-2 -65 -7 50 c-12 75 -12 113 0 95 5 -8 9 -44 9 -80z m-316 6 c46 -35
81 -42 98 -19 38 51 128 47 130 -5 4 -91 7 -124 13 -156 8 -40 6 -42 -32 -22
-15 7 -45 17 -68 20 -59 10 -104 40 -101 68 2 20 -3 23 -33 23 -33 0 -35 -2
-33 -30 3 -38 40 -71 96 -85 89 -22 123 -35 143 -57 12 -13 25 -23 31 -23 8 0
35 -181 27 -189 -2 -2 -20 5 -41 16 -31 16 -38 25 -38 50 0 36 -48 86 -110
114 -48 22 -75 42 -75 57 0 14 -16 24 -53 31 -29 6 -30 9 -53 116 -13 61 -23
115 -23 121 -1 19 86 -3 122 -30z m-698 2 c22 0 97 3 167 6 81 4 129 3 133 -4
3 -5 17 -10 31 -10 21 0 24 -5 26 -37 2 -52 2 -56 12 -71 13 -21 -1 -26 -34
-12 -17 7 -61 14 -96 15 -43 2 -71 8 -83 19 -13 12 -49 17 -144 22 -113 6
-130 5 -147 -11 -21 -19 -61 -22 -131 -11 -35 5 -46 11 -45 24 1 12 -8 18 -31
20 -49 5 -41 29 15 46 35 11 79 13 167 9 66 -2 138 -5 160 -5z m1022 -125 c-3
-10 -5 -2 -5 17 0 19 2 27 5 18 2 -10 2 -26 0 -35z m-2392 -13 c3 -5 1 -10 -4
-10 -6 0 -11 5 -11 10 0 6 2 10 4 10 3 0 8 -4 11 -10z m1575 -24 c74 -17 83
-18 90 -6 5 8 16 7 43 -6 34 -16 37 -21 58 -108 36 -154 39 -169 48 -231 5
-33 14 -78 20 -100 5 -22 9 -41 7 -42 -1 -2 -24 4 -50 13 -42 15 -45 17 -29
29 34 25 -2 43 -102 50 -49 4 -93 11 -96 16 -3 5 -130 7 -297 3 -209 -4 -297
-2 -312 6 -26 14 -22 19 16 25 16 3 43 7 60 10 43 7 61 29 43 51 -11 13 -25
15 -79 10 -67 -7 -150 1 -150 14 0 4 19 7 42 8 46 2 96 28 81 43 -5 5 -37 10
-71 12 -76 3 -83 17 -8 17 69 0 163 40 176 74 6 18 19 26 49 31 23 4 57 18 77
31 32 22 106 45 189 57 36 6 159 1 195 -7z m-2950 -40 c0 -2 -7 -7 -16 -10 -8
-3 -12 -2 -9 4 6 10 25 14 25 6z m520 -39 c0 -18 -2 -19 -10 -7 -13 20 -13 43
0 35 6 -3 10 -16 10 -28z m2935 -77 c3 -5 18 -11 34 -15 16 -3 37 -15 47 -27
19 -20 19 -20 -6 -18 -59 5 -72 1 -68 -22 3 -26 76 -68 118 -68 14 0 47 -12
74 -26 45 -24 51 -25 62 -10 10 14 14 4 24 -56 6 -40 15 -95 20 -123 4 -27 11
-57 14 -65 5 -13 -5 -15 -71 -14 -43 2 -106 3 -140 3 -47 1 -63 5 -63 15 0 8
-6 16 -14 19 -7 3 -19 34 -25 69 -13 68 -34 166 -57 265 -8 34 -14 73 -14 87
0 24 1 24 30 10 16 -9 32 -19 35 -24z m-1400 -10 c3 -5 1 -10 -4 -10 -6 0 -11
5 -11 10 0 6 2 10 4 10 3 0 8 -4 11 -10z m-2041 -49 c19 -21 28 -53 52 -181
14 -78 21 -177 12 -184 -1 -2 -14 -7 -28 -11 -21 -7 -23 -6 -12 7 10 13 9 34
-3 109 -9 52 -20 108 -26 124 -5 17 -12 48 -15 70 -3 22 -7 50 -10 63 -5 27 7
28 30 3z m560 -104 c-3 -10 -1 -48 5 -85 6 -37 13 -89 16 -115 3 -27 7 -53 11
-58 4 -6 -15 -9 -48 -7 -50 3 -54 5 -70 38 -9 19 -19 62 -22 95 -3 33 -9 77
-14 97 -11 41 -8 49 16 41 26 -10 32 -25 26 -70 -3 -25 0 -44 7 -49 20 -12 29
19 29 98 0 59 4 80 17 94 17 17 18 16 25 -22 4 -21 4 -47 2 -57z m-380 46 c4
-16 9 -109 7 -158 0 -23 18 -47 30 -39 5 3 7 48 5 100 -4 105 -5 103 64 83 23
-7 42 -21 49 -35 6 -14 22 -29 35 -36 31 -14 35 -24 42 -112 3 -39 7 -80 9
-92 4 -20 1 -20 -150 -19 -85 0 -156 3 -159 6 -3 3 -8 34 -11 69 -4 35 -8 67
-11 72 -5 8 -9 31 -20 132 -6 48 -4 58 7 54 29 -9 50 -74 50 -152 0 -58 3 -76
14 -76 8 0 16 3 18 8 6 8 -8 153 -18 201 -8 31 -7 33 13 22 11 -6 23 -19 26
-28z m3371 17 c3 -5 2 -10 -4 -10 -5 0 -13 5 -16 10 -3 6 -2 10 4 10 5 0 13
-4 16 -10z m-1945 -50 c0 -5 -10 -10 -22 -10 -19 0 -20 2 -8 10 19 13 30 13
30 0z m-405 -123 c9 -57 4 -90 -15 -92 -8 -2 -28 -5 -45 -8 -141 -24 -178 -28
-240 -22 -85 8 -99 15 -100 52 0 25 -4 29 -40 33 -22 3 -35 8 -29 12 18 12
106 11 197 -3 72 -11 93 -11 120 0 18 7 41 13 52 12 40 -2 63 9 69 34 10 38
24 30 31 -18z m198 1 c7 -25 3 -33 -12 -23 -13 8 -15 45 -2 45 5 0 11 -10 14
-22z m102 10 c18 2 26 -1 20 -6 -11 -10 -65 -25 -65 -18 0 2 -3 12 -7 22 -5
13 -3 15 8 9 7 -5 27 -8 44 -7z m152 2 c-16 -5 -38 -5 -50 0 -17 7 -10 9 28 9
43 -1 46 -2 22 -9z m1705 -52 c-7 -7 -12 -8 -12 -2 0 14 12 26 19 19 2 -3 -1
-11 -7 -17z m-2638 -34 c9 -3 16 -10 16 -16 0 -5 -4 -6 -10 -3 -5 3 -10 1 -10
-4 0 -6 5 -11 10 -11 6 0 10 -7 10 -16 0 -8 5 -12 11 -8 6 3 14 2 18 -3 17
-26 142 -29 365 -9 77 7 91 -9 21 -24 -69 -14 -142 -15 -328 -5 -150 9 -148 8
-160 73 -6 29 -4 32 17 32 14 0 31 -3 40 -6z m693 -21 c2 -6 -3 -13 -12 -16
-10 -5 -15 0 -15 14 0 21 21 22 27 2z m-11 -60 c-10 -10 -19 5 -10 18 6 11 8
11 12 0 2 -7 1 -15 -2 -18z m229 6 c6 -6 -19 -9 -73 -8 -63 1 -82 5 -82 16 0
11 14 13 73 8 39 -4 76 -11 82 -16z M2292 5326 c1 -10 8 -17 13 -17 15 1 12
24 -3 29 -9 3 -13 -2 -10 -12z M2650 4871 c0 -21 26 -36 36 -20 9 15 -3 39
-21 39 -8 0 -15 -9 -15 -19z M2885 4580 c-3 -6 -3 -20 0 -31 6 -18 9 -19 21
-7 8 8 12 22 8 31 -7 19 -20 22 -29 7z M1155 6019 c-8 -12 23 -49 41 -49 23 0
25 19 4 40 -22 22 -36 25 -45 9z M1100 5945 c-14 -17 0 -26 55 -35 22 -4 46
-9 54 -11 8 -2 16 3 18 12 7 29 -106 59 -127 34z M2610 5851 c0 -5 14 -14 31
-21 l31 -13 -23 -13 c-18 -9 -24 -20 -24 -46 0 -29 3 -33 30 -36 33 -4 57 20
48 46 -6 15 -4 15 14 0 46 -41 60 -2 17 45 -14 16 -37 32 -51 38 -31 11 -73
12 -73 0z M2848 5748 c-18 -6 -28 -17 -28 -30 0 -11 -9 -31 -20 -45 -11 -14
-20 -34 -20 -44 0 -10 -10 -25 -22 -34 -21 -14 -24 -14 -32 5 -10 22 -15 24
-35 11 -12 -8 -12 -12 -2 -25 8 -9 18 -16 24 -16 6 0 19 -8 29 -17 18 -16 20
-16 43 12 13 17 29 45 36 63 6 18 14 32 17 30 59 -30 62 -31 76 -19 12 10 13
19 5 39 -6 15 -16 30 -22 35 -8 6 -6 7 5 4 15 -5 47 18 37 27 -12 10 -68 12
-91 4z m38 -59 c3 -6 2 -15 -2 -19 -12 -12 -38 5 -30 19 9 14 23 14 32 0z
M2945 5720 c-7 -11 22 -33 35 -25 5 3 10 10 10 14 0 12 -39 21 -45 11z M2613
5553 c-27 -5 -44 -25 -35 -39 10 -16 110 -64 132 -64 11 0 23 8 28 18 12 21
-2 62 -21 62 -8 0 -20 7 -27 15 -12 15 -32 17 -77 8z M1780 5110 c0 -5 5 -10
10 -10 6 0 10 5 10 10 0 6 -4 10 -10 10 -5 0 -10 -4 -10 -10z M1771 4984 c-26
-19 -71 -86 -87 -131 -6 -18 -14 -60 -18 -95 -4 -35 -15 -85 -25 -113 -34 -92
-43 -141 -54 -275 -1 -15 4 -26 14 -28 20 -4 69 102 74 161 9 106 61 290 119
419 20 45 22 59 12 67 -9 7 -19 6 -35 -5z M2340 4630 c-9 -6 -10 -10 -3 -10 6
0 15 5 18 10 8 12 4 12 -15 0z M2631 4442 c-5 -9 -18 -67 -29 -127 -11 -61
-30 -130 -41 -155 -23 -51 -27 -80 -9 -80 9 0 9 -3 0 -12 -7 -7 -12 -19 -12
-29 0 -11 -7 -15 -22 -12 -13 2 -27 0 -33 -4 -5 -5 -35 -57 -65 -117 -30 -60
-72 -127 -92 -149 -36 -38 -39 -39 -57 -23 -34 31 -99 -2 -86 -43 5 -17 -1
-24 -37 -38 -24 -10 -45 -17 -48 -16 -3 1 -6 -10 -5 -24 0 -32 18 -40 48 -20
12 7 39 17 59 21 22 4 45 17 57 31 10 14 24 25 30 25 23 0 134 128 177 205 25
44 42 69 38 55 -11 -40 -51 -114 -78 -148 -32 -37 -32 -48 -5 -55 16 -4 32 4
61 33 22 21 38 40 37 42 -1 2 10 22 24 45 15 24 27 49 27 56 0 7 4 17 9 23 6
5 13 25 16 44 3 19 10 52 14 73 10 40 3 51 -24 41 -14 -6 -15 -4 -7 12 27 49
42 97 62 193 12 57 26 116 31 129 7 18 6 28 -3 34 -19 12 -26 10 -37 -10z
M2323 4102 c-7 -4 -25 -32 -42 -62 -16 -30 -34 -54 -40 -53 -6 2 -8 -4 -5 -12
4 -8 -17 -37 -53 -73 -43 -44 -75 -66 -128 -87 -86 -35 -109 -53 -94 -72 6 -7
19 -13 28 -13 21 0 104 31 154 56 44 23 177 151 177 171 0 17 17 17 23 1 2 -7
8 -9 13 -5 5 5 1 13 -8 18 -10 5 -15 16 -11 25 5 12 7 12 18 -3 11 -15 12 -13
9 14 -3 27 -1 31 14 27 13 -5 14 -4 3 4 -7 5 -11 16 -9 23 12 32 -21 59 -49
41z M2610 3980 c0 -5 5 -10 11 -10 5 0 7 5 4 10 -3 6 -8 10 -11 10 -2 0 -4 -4
-4 -10z M1375 3629 c-4 -6 -5 -12 -2 -15 2 -3 7 2 10 11 7 17 1 20 -8 4z
M1495 3550 c3 -5 8 -10 11 -10 2 0 4 5 4 10 0 6 -5 10 -11 10 -5 0 -7 -4 -4
-10z M1460 3451 c0 -5 5 -13 10 -16 6 -3 10 -2 10 4 0 5 -4 13 -10 16 -5 3
-10 2 -10 -4z M1187 3423 c-3 -5 6 -9 20 -10 19 -1 22 1 12 8 -17 11 -26 11
-32 2z M2245 3420 c-3 -6 1 -7 9 -4 18 7 21 14 7 14 -6 0 -13 -4 -16 -10z
M2067 3292 c-39 -41 -33 -82 11 -68 18 6 52 59 52 82 0 23 -35 16 -63 -14z
M2175 2950 c-3 -5 -1 -10 4 -10 6 0 11 5 11 10 0 6 -2 10 -4 10 -3 0 -8 -4
-11 -10z M3197 4744 c-8 -8 1 -24 14 -24 5 0 9 7 9 15 0 15 -12 20 -23 9z
M3071 4691 c-38 -48 -40 -71 -6 -71 14 0 25 4 25 8 0 5 9 18 20 30 12 12 18
22 14 22 -3 0 -1 7 6 15 6 8 9 19 5 25 -12 19 -33 10 -64 -29z M3790 2980 c0
-5 5 -10 10 -10 6 0 10 5 10 10 0 6 -4 10 -10 10 -5 0 -10 -4 -10 -10z M3330
2101 c0 -5 -11 -12 -25 -15 -14 -4 -25 -13 -25 -22 0 -11 6 -13 20 -9 15 5 20
2 20 -11 0 -13 3 -14 13 -5 16 12 21 71 6 71 -5 0 -9 -4 -9 -9z M874 2919 c-9
-16 21 -43 41 -36 13 5 14 11 5 27 -12 22 -35 26 -46 9z M929 2382 c-30 -27
-32 -32 -21 -56 6 -14 9 -32 6 -39 -6 -17 31 -51 45 -42 6 3 11 15 11 27 0 16
3 18 13 9 24 -19 40 32 24 72 -24 56 -41 62 -78 29z m23 -68 c-3 -18 -7 -22
-13 -13 -4 7 -3 19 3 26 15 18 16 17 10 -13z M966 2192 c-3 -5 4 -37 15 -72
13 -43 18 -83 16 -124 -2 -34 0 -72 4 -86 5 -14 13 -79 18 -145 14 -172 68
-290 87 -189 5 28 2 40 -14 57 -16 17 -22 41 -27 97 -12 163 -16 198 -25 278
-5 45 -13 88 -17 95 -4 7 -10 30 -13 52 -5 38 -30 59 -44 37z M3521 2136 c-26
-28 -25 -73 2 -90 39 -25 82 42 57 89 -17 31 -30 32 -59 1z m39 -31 c0 -8 -7
-15 -15 -15 -8 0 -15 7 -15 15 0 8 7 15 15 15 8 0 15 -7 15 -15z M1770 2257
c0 -7 10 -18 21 -25 25 -16 45 -3 36 22 -7 19 -57 22 -57 3z M2365 1820 c-9
-15 3 -30 24 -30 23 0 31 9 24 26 -6 16 -39 19 -48 4z M2375 1766 c-21 -15
-12 -36 16 -36 12 0 19 7 19 19 0 27 -13 33 -35 17z M2391 1686 c-9 -10 -9
-16 -1 -21 13 -8 42 14 34 26 -8 13 -20 11 -33 -5z M2410 1620 c-8 -5 -11 -12
-7 -16 4 -4 13 -2 19 4 15 15 7 24 -12 12z M2417 1563 c-25 -13 -28 -19 -25
-56 2 -33 8 -44 30 -57 25 -13 29 -13 44 2 15 15 15 16 -5 23 -23 7 -26 16
-10 32 8 8 8 13 0 17 -8 5 -8 13 -1 26 14 26 1 31 -33 13z M2658 313 c-19 -5
-25 -33 -8 -33 6 0 10 -7 10 -15 0 -18 21 -20 38 -3 26 26 -1 60 -40 51z
M2661 192 c-12 -22 -6 -32 20 -32 27 0 31 15 10 34 -18 17 -20 17 -30 -2z
M1937 733 c-10 -18 -8 -123 2 -123 12 0 13 4 16 73 2 43 -7 69 -18 50z M1510
1221 c-62 -19 -128 -69 -156 -117 -7 -12 -25 -20 -50 -22 -42 -4 -59 -19 -42
-39 14 -17 35 -16 89 2 34 12 51 26 74 62 30 47 55 62 128 78 20 4 27 11 25
23 -4 19 -31 24 -68 13z M2397 813 c-4 -3 -7 -11 -7 -17 0 -6 5 -5 12 2 6 6 9
14 7 17 -3 3 -9 2 -12 -2z M2377 763 c-4 -3 -7 -13 -7 -22 1 -13 3 -13 11 2
11 19 8 33 -4 20z M2360 646 c0 -9 5 -16 10 -16 6 0 10 4 10 9 0 6 -4 13 -10
16 -5 3 -10 -1 -10 -9z M3822 888 c-15 -15 -16 -58 -2 -58 6 0 8 -11 4 -26 -7
-27 20 -134 41 -167 10 -15 14 -15 24 -4 8 11 7 25 -5 58 -8 24 -19 77 -24
118 -9 78 -18 99 -38 79z M150 7670 c0 -5 5 -10 10 -10 6 0 10 5 10 10 0 6 -4
10 -10 10 -5 0 -10 -4 -10 -10z M447 7479 c7 -7 15 -10 18 -7 3 3 -2 9 -12 12
-14 6 -15 5 -6 -5z M4825 5850 c-3 -5 -1 -10 4 -10 6 0 11 5 11 10 0 6 -2 10
-4 10 -3 0 -8 -4 -11 -10z M3825 5370 c-3 -5 -1 -10 4 -10 6 0 11 5 11 10 0 6
-2 10 -4 10 -3 0 -8 -4 -11 -10z M515 4660 c-15 -16 -17 -32 -13 -94 l5 -74
-37 39 c-40 42 -77 51 -104 24 -26 -27 6 -105 54 -130 38 -20 41 -50 5 -41
-40 10 -128 -45 -146 -91 -4 -12 -11 -70 -14 -128 -5 -90 -14 -172 -30 -273
-4 -28 -15 -42 -15 -19 0 8 -12 29 -26 46 -30 36 -65 40 -92 11 -12 -13 -25
-18 -35 -14 -14 5 -17 -1 -17 -30 0 -24 5 -36 14 -36 7 0 20 -7 27 -17 13 -15
11 -16 -13 -9 -25 6 -28 4 -28 -19 0 -14 5 -25 10 -25 14 0 13 -33 -2 -48 -9
-9 -7 -18 8 -39 44 -60 104 -63 118 -7 12 47 15 20 6 -56 -5 -41 -11 -98 -14
-126 -3 -28 -9 -71 -15 -95 -13 -59 -61 -435 -59 -469 0 -24 -10 -97 -28 -200
-15 -87 -32 -432 -21 -420 3 3 10 55 16 115 6 61 13 124 16 140 2 17 11 84 20
150 20 150 27 166 20 50 -3 -49 -8 -142 -10 -205 -2 -63 -8 -126 -13 -140 -6
-16 -6 -36 1 -54 7 -20 6 -44 -2 -79 -8 -38 -8 -53 0 -64 9 -10 15 -11 23 -3
5 5 21 10 34 10 19 0 23 -5 20 -22 -2 -13 -9 -22 -16 -20 -13 2 -52 -77 -52
-104 0 -8 -7 -17 -16 -21 -11 -4 -14 -14 -10 -33 3 -15 0 -45 -6 -66 -14 -53
-19 -98 -24 -253 -4 -117 -3 -136 11 -144 13 -7 15 -19 9 -65 -3 -32 -10 -61
-14 -67 -11 -16 -13 -298 -1 -291 5 4 10 14 9 24 0 16 11 96 68 512 49 350 64
454 69 471 10 30 26 132 31 199 3 36 9 103 15 150 25 224 51 436 67 550 l17
125 38 6 c21 3 43 14 50 23 12 16 14 15 27 -9 16 -30 50 -41 79 -25 22 11 29
54 11 65 -18 11 -11 60 10 73 45 28 52 132 9 132 -32 0 -57 -18 -76 -53 -16
-32 -17 -32 -23 -8 -9 37 -36 50 -57 28 -14 -14 -18 -33 -16 -92 1 -67 0 -75
-17 -75 -21 0 -20 19 6 142 7 36 21 110 29 165 21 138 40 242 65 358 12 55 24
120 27 145 3 25 11 52 18 60 12 13 34 67 52 122 9 31 -8 89 -34 116 -21 21
-24 30 -17 50 11 32 31 39 39 13 3 -10 20 -24 37 -30 18 -6 40 -19 50 -28 10
-9 21 -13 25 -10 10 11 -26 121 -44 135 -12 8 -14 15 -7 22 7 7 8 28 3 58 -4
26 -8 52 -8 58 -1 18 -41 54 -60 54 -10 0 -26 -9 -36 -20z m42 -92 c-2 -13 -4
-5 -4 17 -1 22 1 32 4 23 2 -10 2 -28 0 -40z m-109 -60 c16 -16 15 -35 -3 -42
-17 -6 -45 19 -45 40 0 17 31 19 48 2z m162 -68 c0 -5 -7 -7 -15 -4 -8 4 -15
8 -15 10 0 2 7 4 15 4 8 0 15 -4 15 -10z m-185 -141 c17 -1 37 0 45 2 12 3 15
-7 12 -55 -1 -33 -4 -61 -6 -63 -4 -4 -50 -5 -91 -1 -24 2 -30 -1 -30 -17 0
-14 10 -23 35 -31 19 -6 36 -17 38 -24 3 -8 -2 -10 -15 -6 -38 12 -53 -3 -53
-53 0 -35 5 -49 20 -59 26 -16 26 -48 0 -55 -16 -4 -19 -11 -15 -30 4 -14 3
-27 -2 -30 -5 -3 -8 -29 -7 -58 1 -34 -4 -58 -13 -67 -9 -9 -10 -18 -4 -26 13
-15 -3 -41 -19 -31 -6 4 -22 -3 -36 -16 -18 -17 -21 -25 -13 -36 17 -20 38
-16 50 11 7 14 17 22 24 19 10 -3 7 -14 -11 -40 -30 -45 -30 -47 3 -71 28 -20
25 -42 -7 -42 -13 0 -22 9 -26 25 -7 30 -40 34 -60 8 -20 -27 -16 -46 18 -72
24 -20 32 -22 39 -10 6 10 8 8 6 -9 -1 -19 -5 -21 -33 -16 -41 8 -55 -13 -25
-37 20 -16 21 -22 12 -56 -5 -21 -12 -56 -15 -78 -5 -44 -10 -74 -25 -162 -5
-32 -13 -96 -16 -143 -8 -90 -24 -144 -25 -78 0 20 -5 49 -11 65 -8 22 -12 24
-19 13 -13 -19 -12 9 1 115 5 44 10 89 10 100 0 11 10 85 24 165 13 80 31 197
40 260 8 63 26 165 40 225 14 61 27 124 30 140 6 43 25 253 24 262 -5 31 35
76 59 69 9 -3 31 -6 47 -7z m-247 -445 c-10 -10 -28 6 -28 24 0 15 1 15 17 -1
9 -9 14 -19 11 -23z m-44 -126 c-1 -18 -3 -35 -3 -37 -1 -3 -6 0 -11 5 -8 8
-7 19 1 37 16 35 17 34 13 -5z m401 -358 c-10 -11 -20 -18 -23 -15 -7 6 18 35
31 35 5 0 2 -9 -8 -20z m-95 -22 c0 -16 -3 -19 -11 -11 -6 6 -8 16 -5 22 11
17 16 13 16 -11z m-147 -100 c-10 -53 -23 -79 -17 -33 7 48 12 65 18 65 3 0 3
-15 -1 -32z m221 -9 c-7 -12 -31 -11 -39 1 -4 6 -4 18 -1 27 6 14 8 14 26 -2
11 -10 17 -22 14 -26z m-236 -154 c-9 -9 -30 14 -23 25 6 9 10 8 17 -4 6 -10
8 -19 6 -21z m-8 -70 c0 -14 -4 -25 -10 -25 -5 0 -10 11 -10 25 0 14 5 25 10
25 6 0 10 -11 10 -25z m-118 -497 c-7 -7 -12 -8 -12 -2 0 14 12 26 19 19 2 -3
-1 -11 -7 -17z m31 -114 c9 -10 -4 -34 -19 -34 -16 0 -16 2 -8 24 6 17 16 20
27 10z m2 -105 c7 -21 -5 -43 -12 -22 -2 7 -11 9 -19 6 -8 -3 -14 1 -14 9 0
33 35 39 45 7z m-85 -604 c0 -18 -5 -25 -20 -25 -20 0 -28 28 -13 43 15 16 33
6 33 -18z M570 3769 c0 -5 5 -7 10 -4 6 3 10 8 10 11 0 2 -4 4 -10 4 -5 0 -10
-5 -10 -11z M4921 3474 c0 -11 3 -14 6 -6 3 7 2 16 -1 19 -3 4 -6 -2 -5 -13z
M4875 2820 c3 -5 8 -10 11 -10 2 0 4 5 4 10 0 6 -5 10 -11 10 -5 0 -7 -4 -4
-10z M4600 2000 c0 -5 5 -10 10 -10 6 0 10 5 10 10 0 6 -4 10 -10 10 -5 0 -10
-4 -10 -10z M4910 1030 c0 -5 5 -10 11 -10 5 0 7 5 4 10 -3 6 -8 10 -11 10 -2
0 -4 -4 -4 -10z M4786 1017 c-28 -20 -17 -51 20 -55 36 -4 59 18 49 48 -7 23
-42 27 -69 7z M60 875 c-7 -9 -11 -17 -9 -20 3 -2 10 5 17 15 14 24 10 26 -8
5z M4570 790 c0 -14 7 -20 24 -20 14 0 46 -16 72 -36 63 -48 97 -57 143 -38
24 10 50 13 79 9 33 -5 42 -3 42 8 0 35 -104 42 -142 10 -19 -17 -36 -9 -122
52 -55 40 -96 46 -96 15z M4849 689 c-18 -11 -1 -29 27 -29 17 0 27 -8 34 -26
13 -33 13 -33 -9 -27 -26 7 -38 -17 -16 -33 27 -20 45 5 45 64 0 49 0 50 -35
54 -19 2 -40 1 -46 -3z M4729 596 c-1 -6 -1 -14 0 -19 1 -4 -15 0 -35 8 -39
16 -94 20 -94 7 0 -16 34 -40 66 -46 18 -4 40 -16 50 -27 9 -10 23 -19 30 -19
17 0 33 31 26 50 -3 9 9 4 31 -13 42 -32 57 -34 57 -8 0 22 -32 45 -89 65 -29
10 -41 10 -42 2z M4921 544 c0 -11 3 -14 6 -6 3 7 2 16 -1 19 -3 4 -6 -2 -5
-13z M4602 522 c-16 -11 10 -35 56 -50 65 -22 242 -183 242 -221 0 -6 7 -11
15 -11 40 0 -11 129 -57 145 -23 8 -23 21 -2 29 10 4 25 -1 35 -10 10 -9 23
-13 28 -9 20 12 11 34 -18 50 -16 8 -31 19 -33 24 -4 13 -87 31 -93 21 -7 -11
23 -40 41 -40 8 0 14 -4 14 -10 0 -16 -13 -12 -65 23 -45 30 -124 67 -143 67
-4 0 -13 -4 -20 -8z m253 -92 c3 -5 1 -10 -4 -10 -6 0 -11 5 -11 10 0 6 2 10
4 10 3 0 8 -4 11 -10z M235 199 c-8 -25 16 -55 38 -46 21 8 10 67 -13 67 -10
0 -22 -10 -25 -21z"/>
</g>
</svg>
