<?xml version="1.0" standalone="no"?>
<!DOCTYPE svg PUBLIC "-//W3C//DTD SVG 20010904//EN"
 "http://www.w3.org/TR/2001/REC-SVG-20010904/DTD/svg10.dtd">
<svg version="1.0" xmlns="http://www.w3.org/2000/svg"
 width="500.000000pt" height="878.000000pt" viewBox="0 0 500.000000 878.000000"
 preserveAspectRatio="xMidYMid meet">
<metadata>
Created by potrace 1.16, written by Peter Selinger 2001-2019
</metadata>
<g transform="translate(0.000000,878.000000) scale(0.100000,-0.100000)"
fill="#000000" stroke="none">
<path d="M2047 8704 c-12 -13 15 -46 49 -60 27 -12 40 -28 69 -89 19 -42 35
-80 35 -86 0 -6 -16 -8 -45 -3 -51 7 -76 -6 -68 -35 7 -27 66 -31 367 -26 185
3 262 8 267 16 14 23 -3 39 -40 39 l-36 0 3 83 c4 109 4 109 50 101 46 -7 82
8 82 35 0 17 -10 19 -82 24 -46 2 -162 2 -258 -1 -191 -6 -308 -5 -356 3 -17
3 -33 2 -37 -1z m247 -91 c-7 -16 -14 -39 -14 -53 0 -14 -7 -34 -15 -44 -14
-19 -15 -19 -21 0 -4 10 -14 27 -22 37 -8 9 -12 17 -8 17 4 0 0 10 -8 22 -9
12 -16 26 -16 30 0 6 36 13 92 16 26 2 26 1 12 -25z m151 -6 c4 -17 5 -54 3
-81 l-3 -48 -67 -4 c-38 -2 -68 -3 -68 -1 0 3 46 129 55 150 5 11 18 17 41 17
29 0 34 -4 39 -33z m138 -45 c11 -90 8 -100 -32 -94 -31 4 -31 5 -31 66 0 33
-3 71 -6 84 -6 22 -4 23 27 20 l34 -3 8 -73z M1815 8550 c-4 -6 -3 -16 3 -22
6 -6 12 -6 17 2 4 6 3 16 -3 22 -6 6 -12 6 -17 -2z M2561 8244 c0 -11 3 -14 6
-6 3 7 2 16 -1 19 -3 4 -6 -2 -5 -13z M1295 8010 c-3 -5 1 -10 9 -10 9 0 16 5
16 10 0 6 -4 10 -9 10 -6 0 -13 -4 -16 -10z M405 8000 c3 -5 8 -10 11 -10 2 0
4 5 4 10 0 6 -5 10 -11 10 -5 0 -7 -4 -4 -10z M502 7794 c-15 -26 8 -136 37
-174 14 -19 24 -41 23 -48 -2 -8 2 -20 9 -28 6 -8 9 -18 5 -22 -4 -4 -12 1
-17 11 -6 9 -17 17 -24 17 -8 0 -15 4 -15 9 0 17 -41 23 -71 11 -25 -11 -29
-18 -29 -51 0 -32 5 -41 28 -52 38 -20 92 -29 92 -16 0 6 6 9 13 6 6 -2 20 2
29 10 22 20 64 10 79 -18 8 -17 8 -23 -1 -29 -7 -4 -10 -17 -7 -29 3 -14 0
-21 -8 -21 -20 0 -28 -55 -15 -95 6 -19 15 -35 19 -35 4 0 14 -11 21 -25 8
-14 37 -49 64 -78 47 -48 86 -94 201 -232 22 -27 51 -58 64 -71 l23 -22 -31
-7 c-18 -4 -33 -5 -35 -3 -1 1 -10 15 -19 30 -17 27 -68 58 -97 58 -9 0 -21
-5 -28 -12 -9 -9 -12 -8 -12 6 0 9 -4 14 -10 11 -18 -11 -10 -25 23 -40 28
-13 29 -14 7 -12 -14 1 -30 9 -37 17 -6 8 -14 12 -18 9 -8 -9 33 -46 74 -68
13 -8 20 -18 17 -27 -5 -13 8 -18 44 -16 10 0 7 -6 -9 -19 -29 -24 -57 -21
-53 5 2 11 -2 16 -10 14 -7 -3 -13 -18 -13 -34 0 -26 3 -29 38 -32 29 -3 45 3
68 22 37 31 45 32 52 6 8 -33 44 -25 52 10 6 26 10 30 28 24 49 -16 122 -97
111 -123 -3 -9 -9 -56 -13 -104 -9 -103 -29 -133 -81 -122 -25 5 -35 0 -73
-39 -24 -24 -47 -57 -50 -72 -6 -32 7 -74 23 -74 17 0 11 -23 -18 -66 -63 -96
-108 -160 -124 -176 -10 -10 -18 -23 -18 -29 0 -6 -11 -25 -24 -42 -13 -18
-47 -79 -76 -137 -47 -96 -51 -111 -53 -180 -1 -66 2 -80 24 -109 28 -38 67
-61 103 -61 16 0 32 -9 41 -24 18 -27 51 -37 84 -24 15 5 30 3 44 -7 12 -8 34
-15 49 -15 15 0 54 -9 85 -19 32 -11 70 -22 84 -25 l27 -6 -22 -42 c-42 -86
-13 -278 42 -278 10 0 29 -11 42 -25 28 -30 78 -45 142 -42 25 1 49 -1 52 -4
3 -3 1 -22 -5 -43 -8 -30 -7 -49 6 -88 8 -27 13 -53 10 -58 -3 -5 -8 -46 -11
-92 -3 -46 -14 -123 -24 -173 -30 -144 -34 -199 -17 -234 14 -27 13 -31 -4
-47 -25 -22 -24 -65 1 -97 16 -21 18 -30 9 -55 -8 -24 -17 -31 -48 -36 -46 -7
-113 -70 -182 -172 -27 -40 -53 -75 -58 -79 -5 -3 -24 -29 -41 -58 -17 -28
-35 -59 -40 -67 -6 -8 -29 -55 -52 -105 -23 -49 -44 -92 -47 -95 -3 -3 -7 -12
-8 -20 -1 -8 -7 -40 -14 -70 -6 -30 -9 -83 -6 -118 3 -34 1 -65 -4 -68 -5 -3
-9 10 -9 28 0 18 -7 69 -16 113 -18 85 -19 251 -3 271 13 15 5 68 -14 98 -9
14 -34 41 -54 62 -22 21 -27 30 -13 21 34 -23 51 -21 90 11 23 19 31 34 27 45
-8 22 -75 49 -109 44 -23 -3 -26 -1 -17 15 14 25 3 67 -25 99 -26 30 -57 40
-97 32 -36 -7 -39 -40 -9 -98 24 -47 24 -49 4 -41 -24 9 -61 -21 -68 -56 -7
-36 11 -63 50 -72 30 -8 31 -22 2 -37 -13 -7 -25 -15 -28 -18 -3 -4 -17 -14
-32 -24 -16 -10 -28 -26 -28 -35 0 -30 31 -112 42 -112 6 0 8 -9 5 -20 -3 -11
1 -33 9 -49 16 -32 41 -194 50 -316 3 -44 10 -105 15 -135 33 -180 34 -190 15
-190 -9 0 -16 8 -16 20 0 24 -61 67 -108 76 -35 7 -62 -8 -62 -35 0 -21 46
-71 65 -71 11 0 14 -9 11 -32 -8 -66 60 -94 89 -38 24 47 39 37 53 -35 17 -91
16 -96 -28 -140 -40 -38 -82 -104 -96 -147 -4 -13 -21 -54 -39 -93 -18 -38
-38 -97 -45 -130 -7 -33 -25 -100 -41 -150 -15 -49 -30 -121 -33 -160 -5 -92
-22 -191 -40 -241 -10 -28 -11 -46 -4 -58 15 -26 3 -222 -14 -248 -8 -12 -28
-22 -48 -25 -40 -4 -63 -23 -80 -64 -11 -27 -10 -32 10 -54 24 -25 20 -45 -9
-45 -11 0 -23 -12 -30 -28 -13 -31 -68 -59 -85 -42 -11 11 -66 13 -90 4 -31
-12 -18 -34 21 -34 l37 0 -37 -36 c-32 -31 -37 -43 -37 -80 0 -24 2 -44 4 -44
2 0 20 22 40 50 45 62 97 95 161 103 40 4 55 1 78 -15 22 -16 36 -18 65 -13
20 4 40 12 44 18 15 24 8 57 -17 73 -29 19 -35 50 -7 39 36 -14 82 -17 96 -6
8 6 17 26 20 44 6 32 6 32 63 31 47 -1 62 -7 85 -28 54 -50 31 -82 -82 -112
-56 -15 -75 -27 -132 -81 -36 -35 -71 -63 -77 -63 -6 0 -11 -7 -11 -15 0 -16
-1 -16 -40 -20 -41 -4 -192 -54 -209 -69 -16 -14 -31 -14 -63 -1 -26 10 -24
-31 2 -45 33 -18 119 -1 137 26 8 13 24 24 34 24 26 0 209 71 209 81 0 4 14
18 32 30 17 13 28 18 25 12 -14 -23 15 -24 58 -3 25 12 52 20 59 17 18 -7 43
13 48 38 4 23 34 33 105 34 28 1 58 4 67 7 24 9 19 34 -6 34 -29 0 -15 13 19
16 15 2 33 10 39 19 7 10 15 12 18 6 4 -6 13 -8 21 -4 11 3 15 -2 16 -18 1
-13 3 -33 4 -44 6 -49 17 -175 20 -230 2 -33 6 -91 9 -130 10 -121 15 -251 9
-230 -2 11 -14 27 -26 36 -19 16 -22 15 -40 -2 -12 -11 -25 -15 -31 -10 -6 4
-41 18 -78 30 -49 16 -80 20 -115 16 -46 -5 -50 -4 -91 35 -36 35 -41 44 -32
60 6 11 14 20 18 20 8 0 14 5 71 48 22 17 22 19 7 34 -9 9 -16 19 -16 21 0 6
95 37 115 37 8 0 21 12 27 26 14 31 0 44 -47 44 -70 0 -182 -59 -204 -108 -6
-13 -32 -32 -57 -44 -26 -11 -49 -28 -51 -38 -3 -12 -18 -21 -43 -25 -46 -8
-175 2 -200 15 -27 14 -74 -3 -78 -28 -3 -18 -10 -22 -38 -22 l-34 0 0 -180
c0 -103 4 -180 9 -180 5 0 12 -14 16 -30 7 -32 41 -58 56 -43 5 5 3 28 -5 53
-7 25 -14 74 -15 110 -1 36 -7 87 -12 114 -13 67 -11 96 4 96 8 0 19 -24 28
-62 11 -52 18 -63 34 -63 14 0 19 6 17 20 -10 70 -13 153 -6 158 5 3 45 1 89
-3 82 -8 179 2 203 22 7 6 14 9 15 7 11 -14 40 -108 47 -152 5 -28 18 -88 29
-132 33 -129 40 -187 26 -201 -11 -12 -178 -19 -295 -14 -19 1 -75 2 -125 3
-85 2 -90 3 -93 25 -6 37 -22 25 -22 -17 l0 -40 2450 0 c1347 0 2450 4 2450 8
0 10 -84 21 -162 21 -56 0 -56 0 -63 33 -12 59 -17 69 -31 63 -8 -3 -14 0 -14
6 0 7 -4 7 -13 1 -6 -5 -37 -9 -67 -9 -41 1 -56 5 -58 17 -4 20 24 24 123 17
47 -4 46 -25 12 185 -8 52 -10 87 -4 87 5 0 5 5 -1 13 -6 7 -13 33 -16 57 -3
25 -8 63 -11 85 -9 79 -34 432 -35 497 0 35 1 36 28 27 15 -4 39 -11 55 -14
15 -3 27 -9 27 -14 0 -11 -67 -24 -80 -16 -13 8 -13 -61 0 -86 6 -11 21 -19
36 -19 23 0 25 3 22 36 -2 21 2 39 8 41 17 6 25 -41 15 -87 -5 -22 -5 -38 -1
-35 10 6 21 -65 17 -119 -1 -28 3 -41 16 -50 35 -21 44 11 42 154 l-2 130 66
-6 c36 -3 72 -7 79 -10 7 -2 12 5 12 16 0 22 -16 27 -102 33 -32 2 -61 6 -64
10 -17 16 14 25 86 24 69 -2 80 0 80 15 0 13 -13 18 -52 23 -29 3 -69 5 -88 3
-26 -2 -35 1 -35 12 0 18 80 27 99 11 20 -17 76 -2 76 20 0 14 -11 19 -57 24
-85 9 -94 13 -38 14 65 2 95 10 95 27 0 17 -94 20 -134 4 -24 -9 -47 3 -33 17
6 5 70 11 140 12 17 1 27 6 27 16 0 14 -22 20 -62 16 -22 -3 -24 15 -2 23 9 3
14 15 12 28 -3 20 -8 22 -43 20 -87 -7 -107 -16 -128 -55 -15 -30 -25 -37 -49
-37 -37 0 -68 -16 -68 -35 0 -18 51 -45 85 -45 38 0 22 -16 -22 -23 -21 -3
-45 -8 -54 -12 -13 -5 -17 4 -23 47 -3 29 -9 67 -12 83 -4 24 1 37 26 63 17
17 38 32 46 32 21 0 17 -18 -5 -25 -30 -9 -35 -35 -8 -35 38 0 82 46 71 74 -3
9 -15 16 -25 16 -11 0 -24 11 -31 24 -9 21 -7 31 11 62 13 22 18 41 13 46 -16
16 -61 -3 -91 -37 l-29 -33 -11 59 c-11 52 -22 130 -51 329 -4 31 -10 65 -13
75 -10 32 -27 154 -34 243 -5 81 -5 83 13 72 13 -8 20 -24 20 -51 1 -27 9 -48
24 -65 29 -29 51 -31 75 -3 16 17 17 25 8 49 -8 23 -8 33 4 50 9 12 12 31 9
45 -3 13 -2 34 3 47 8 22 8 22 15 -7 11 -52 44 -95 86 -114 22 -10 37 -21 33
-24 -3 -4 8 -2 26 4 18 6 39 22 48 35 8 13 33 41 54 63 43 43 49 71 21 114
-22 33 -82 87 -96 87 -16 0 -125 115 -176 185 -24 33 -48 62 -53 64 -5 2 1 8
14 15 12 6 27 19 33 29 9 15 7 22 -10 36 -21 17 -22 18 -2 30 16 10 18 21 16
79 -3 56 -6 67 -20 67 -19 0 -108 -111 -108 -135 -1 -12 -3 -11 -11 3 -5 9
-17 17 -25 17 -8 0 -12 5 -9 10 4 6 -6 26 -22 44 -48 57 -61 74 -72 94 -6 11
-19 28 -28 38 -20 20 -40 50 -49 77 -4 10 -13 16 -21 13 -8 -3 -11 -1 -8 4 3
6 2 10 -3 10 -5 0 -9 15 -9 33 0 90 -3 107 -19 107 -8 0 -13 4 -9 9 3 5 -2 16
-10 24 -8 9 -15 22 -15 30 0 19 -25 68 -32 62 -3 -3 -5 16 -6 41 -1 67 -17 80
-100 76 -62 -2 -70 0 -92 23 -21 22 -22 29 -12 45 30 48 0 100 -67 117 -24 6
-39 19 -51 43 -46 89 -94 198 -99 225 -5 23 -18 35 -56 55 -38 19 -50 31 -51
49 -1 13 -11 31 -23 40 -20 15 -24 30 -52 166 -6 28 -17 60 -25 72 -19 31 -18
46 5 40 10 -2 26 0 35 5 15 8 16 23 11 121 -3 62 -8 122 -11 134 -7 34 -61 90
-99 103 -19 6 -36 19 -39 28 -25 97 -34 116 -64 143 -18 17 -49 37 -68 45 -18
8 -34 21 -34 28 0 8 -14 27 -30 43 -17 15 -30 32 -30 36 0 31 -140 97 -177 83
-11 -5 -30 8 -60 40 -39 40 -49 46 -76 41 -28 -4 -34 -1 -49 30 -10 18 -18 41
-18 49 0 20 27 29 45 14 16 -13 100 -6 110 10 3 5 12 7 20 4 8 -4 17 1 21 9 3
8 13 13 23 10 34 -9 77 47 94 120 8 37 22 78 31 90 9 12 28 37 41 56 28 39 43
84 52 157 6 57 -8 94 -57 142 -16 17 -28 37 -25 44 8 21 -9 61 -40 93 -21 24
-34 29 -78 30 -48 0 -56 4 -101 47 -57 53 -80 59 -206 54 -113 -4 -165 -21
-199 -65 -14 -19 -43 -51 -64 -72 l-37 -38 -35 20 c-41 24 -54 19 -53 -22 1
-21 10 -36 30 -50 41 -30 35 -39 -23 -32 -42 5 -53 3 -61 -11 -7 -12 -14 -14
-28 -6 -26 14 -40 13 -40 -4 0 -17 56 -66 76 -66 18 0 18 -24 -1 -40 -18 -15
-19 -37 -2 -43 6 -3 -2 -6 -19 -6 -17 -1 -37 -8 -45 -17 -11 -14 -7 -21 29
-55 24 -21 48 -39 55 -39 7 0 4 -5 -6 -11 -18 -10 -18 -12 -1 -31 14 -14 29
-18 58 -16 43 3 54 -9 37 -41 -11 -20 -12 -20 -36 5 -13 13 -35 24 -48 24 -14
0 -38 7 -53 15 -16 8 -37 15 -47 15 -26 0 -79 39 -71 52 4 6 -20 36 -52 68
-65 62 -187 204 -251 290 -23 30 -54 69 -70 85 -15 17 -46 58 -68 90 -22 33
-46 66 -54 74 -7 8 -27 43 -43 78 l-31 64 17 63 c19 68 14 92 -22 118 -11 7
-22 25 -25 39 -4 15 -15 29 -24 33 -10 3 -31 15 -48 26 -37 24 -72 40 -89 40
-8 0 -19 7 -26 15 -15 18 -55 16 -55 -2 0 -23 -16 -27 -22 -5 -3 12 -11 22
-17 22 -20 0 -164 173 -196 235 -13 25 -29 50 -37 56 -7 6 -13 17 -13 23 0 7
-27 41 -60 75 -33 35 -63 74 -66 88 -4 13 -29 49 -56 79 -50 54 -81 67 -105
43 -13 -13 -36 -3 -27 12 3 5 21 16 40 24 25 10 34 20 34 38 0 28 -28 57 -55
57 -15 0 -16 3 -7 12 18 18 14 52 -9 82 -24 30 -37 33 -46 9 -4 -10 -17 -31
-31 -47 -19 -23 -23 -38 -19 -65 l5 -36 -14 34 c-13 30 -13 35 1 51 23 26 4
85 -46 138 -42 46 -53 50 -67 26z m55 -61 c26 -33 34 -63 22 -85 -11 -20 -11
-20 -29 7 -16 25 -26 95 -13 95 3 0 12 -8 20 -17z m128 -123 c-16 -16 -34 -30
-39 -30 -6 0 1 12 17 25 15 13 27 32 27 42 0 13 3 14 12 5 9 -9 5 -19 -17 -42z
m6 -83 c-13 -13 -15 1 -4 30 7 17 8 17 11 -1 2 -10 -1 -23 -7 -29z m55 11
c-10 -6 -20 -7 -24 -3 -9 8 20 25 31 18 5 -3 2 -10 -7 -15z m-218 -33 c16 -17
16 -17 -1 -11 -10 3 -32 6 -48 6 -19 0 -29 5 -29 15 0 20 57 13 78 -10z m304
-125 c45 -59 68 -112 61 -139 -3 -12 0 -22 6 -22 20 -2 26 -5 57 -22 34 -18
47 -38 38 -62 -4 -9 0 -15 10 -15 19 0 53 -35 72 -75 23 -47 36 -67 78 -118
l39 -48 -26 -27 c-15 -16 -27 -35 -28 -43 0 -8 -5 -4 -11 9 -9 18 -8 25 7 36
24 17 13 51 -13 41 -9 -4 -23 -9 -29 -12 -15 -6 -18 43 -3 52 15 9 -9 52 -38
65 -23 10 -29 9 -45 -11 -17 -21 -19 -21 -35 -6 -9 9 -16 29 -17 44 0 21 -5
27 -17 25 -22 -3 -39 28 -31 57 5 21 3 22 -31 15 l-37 -6 6 35 c7 34 -7 59
-20 37 -3 -5 -14 -10 -23 -10 -13 0 -13 2 4 14 31 23 24 109 -12 147 -15 16
-34 29 -41 29 -22 0 -15 40 10 50 31 12 28 14 69 -40z m-117 -11 c4 -5 0 -18
-9 -28 -9 -10 -14 -25 -10 -35 4 -9 1 -16 -6 -16 -8 0 -11 12 -8 35 2 19 0 35
-4 35 -4 0 -8 5 -8 10 0 13 37 13 45 -1z m50 -75 c22 -22 13 -27 -18 -11 -15
8 -24 17 -20 20 10 11 20 8 38 -9z m35 -64 c0 -5 -4 -10 -10 -10 -5 0 -10 5
-10 10 0 6 5 10 10 10 6 0 10 -4 10 -10z m98 -406 c12 -8 22 -23 22 -32 0 -13
-3 -12 -16 6 -8 12 -21 22 -29 22 -8 0 -17 5 -20 10 -10 15 18 12 43 -6z m312
-9 c-7 -9 -15 -13 -18 -10 -3 2 1 11 8 20 7 9 15 13 18 10 3 -2 -1 -11 -8 -20z
m152 -47 c-8 -56 -42 -81 -42 -31 0 24 24 63 40 63 4 0 5 -15 2 -32z m-87 -45
l2 -36 -29 32 c-28 31 -28 34 -11 46 24 18 37 4 38 -42z m165 27 c0 -25 -21
-70 -32 -70 -17 0 -18 27 -3 63 16 38 35 42 35 7z m54 -68 c-4 -20 -13 -53
-21 -72 -11 -26 -16 -31 -23 -20 -5 9 -3 27 5 47 8 18 14 36 14 38 1 3 3 16 7
30 10 38 25 18 18 -23z m-185 -15 c6 -8 8 -17 4 -20 -7 -8 -33 11 -33 24 0 13
16 11 29 -4z m81 -67 c0 -15 -9 -35 -20 -45 -24 -22 -27 -9 -4 16 22 24 11 53
-16 44 -24 -8 -25 -2 -4 20 21 21 44 3 44 -35z m183 10 c-4 -33 -34 -100 -45
-100 -17 0 -19 28 -4 64 8 20 12 44 9 52 -4 12 0 15 18 12 19 -2 23 -8 22 -28z
m-273 -117 c0 -2 -7 -11 -15 -19 -17 -18 -20 -38 -4 -28 6 3 4 -8 -5 -24 -36
-70 -11 -82 45 -21 28 31 43 40 56 34 10 -4 35 -9 55 -12 29 -4 39 -2 44 11 7
17 44 23 44 6 0 -5 -18 -28 -40 -50 -39 -39 -40 -39 -77 -27 -50 17 -70 12
-88 -23 -19 -36 -44 -31 -95 20 -32 32 -37 43 -35 77 1 21 7 49 14 60 6 12 11
32 11 46 0 41 13 40 52 -3 21 -23 38 -44 38 -47z m120 27 c0 -5 -10 -15 -22
-21 -23 -12 -23 -12 -4 10 21 23 26 26 26 11z m167 -135 c8 -24 -1 -27 -31
-11 -18 9 -23 16 -14 19 24 10 39 7 45 -8z m-427 -60 c46 -19 88 -39 94 -45 5
-5 20 -10 31 -10 30 0 70 -39 55 -54 -7 -7 -13 -8 -18 0 -9 13 -156 70 -204
79 -30 6 -39 4 -44 -9 -6 -16 -63 -23 -77 -10 -9 9 23 54 38 54 7 0 18 7 25
15 7 8 13 15 14 15 1 0 40 -16 86 -35z m520 -52 c30 -42 76 -98 103 -124 26
-26 47 -51 47 -56 0 -5 7 -18 15 -28 69 -91 103 -133 122 -153 13 -13 23 -27
23 -31 0 -5 14 -26 30 -47 17 -22 37 -48 45 -59 8 -10 15 -24 15 -31 0 -6 25
-37 56 -69 33 -33 60 -71 66 -91 5 -21 18 -38 31 -43 24 -9 81 -73 164 -185
29 -38 88 -106 130 -150 43 -45 96 -104 118 -131 21 -28 45 -54 52 -58 7 -4
13 -15 13 -22 0 -8 4 -15 9 -15 5 0 11 -12 13 -27 2 -20 9 -29 25 -31 14 -2
23 -11 25 -25 2 -14 11 -23 26 -25 26 -4 52 -27 107 -97 22 -27 48 -59 58 -70
11 -11 36 -45 57 -75 21 -30 49 -66 62 -80 13 -14 36 -49 51 -78 28 -55 55
-95 95 -138 12 -14 22 -28 22 -32 0 -4 14 -24 31 -45 l31 -37 -26 10 c-14 5
-33 7 -42 3 -10 -4 -20 0 -26 10 -12 22 -48 22 -48 0 0 -12 -3 -14 -11 -6 -8
8 -7 17 2 31 17 26 4 40 -21 24 -12 -7 -21 -8 -25 -2 -4 6 0 13 8 16 18 7 29
42 15 50 -5 3 -7 13 -4 21 4 9 1 22 -5 29 -6 8 -9 20 -6 28 3 8 -5 26 -17 39
-13 14 -26 32 -29 41 -11 28 -44 18 -66 -20 -20 -34 -40 -41 -49 -16 -2 7 10
20 27 29 17 10 29 23 28 28 -6 17 -43 17 -57 0 -16 -19 -30 -19 -30 -1 0 8 14
24 30 36 17 12 30 26 30 31 0 16 -41 9 -68 -12 l-27 -20 -9 20 c-5 12 -13 21
-18 21 -17 0 -7 39 12 45 23 7 27 40 5 49 -8 3 -27 0 -40 -6 -20 -9 -28 -9
-38 1 -9 10 -7 16 11 28 36 25 28 44 -18 41 -52 -3 -57 4 -30 42 18 25 19 34
10 45 -17 20 -30 19 -57 -7 -13 -12 -23 -16 -23 -10 0 6 11 19 25 28 30 20 31
30 6 44 -15 7 -25 5 -42 -9 -23 -18 -23 -18 -51 17 -27 33 -27 36 -12 59 28
43 -5 73 -41 37 -15 -15 -18 -16 -32 -1 -15 15 -14 18 8 36 19 15 21 22 12 32
-10 10 -18 10 -38 1 -32 -15 -32 -15 -39 3 -3 9 6 25 22 40 23 22 25 27 12 35
-23 15 -38 12 -57 -9 -16 -20 -43 -18 -43 3 0 6 9 17 20 24 32 20 14 45 -27
37 -24 -4 -33 -3 -28 4 3 6 13 11 21 11 21 0 17 28 -7 40 -16 9 -24 8 -39 -5
-22 -20 -33 -15 -49 22 -11 25 -59 70 -101 93 -12 8 -11 13 9 33 15 17 19 27
11 32 -19 11 -58 -4 -65 -25 -3 -11 -11 -20 -16 -20 -14 0 -11 15 11 43 11 14
20 30 20 36 0 15 -43 14 -58 -1 -7 -7 -12 -8 -12 -2 0 5 9 15 20 22 44 27 8
57 -40 32 -27 -14 -46 11 -28 39 16 26 -4 53 -24 33 -7 -7 -16 -12 -20 -12
-14 0 -9 27 7 40 8 7 15 18 15 25 0 20 -28 26 -44 10 -18 -19 -26 -19 -26 0 0
7 7 18 17 23 10 6 14 16 9 27 -5 13 -13 16 -37 11 -27 -5 -30 -4 -19 9 13 16
7 45 -10 45 -5 0 -10 -10 -10 -22 0 -21 0 -21 -14 -3 -12 16 -12 22 1 41 17
26 4 39 -37 37 -15 -1 -18 0 -7 3 9 3 17 13 17 21 0 9 -8 22 -17 29 -15 11
-16 16 -5 33 16 27 15 41 -3 41 -8 0 -19 9 -25 20 -8 15 -17 19 -31 15 -28 -9
-41 2 -28 27 7 14 8 23 0 31 -5 5 -7 22 -4 38 4 21 0 30 -17 39 -12 6 -33 9
-46 6 -17 -5 -24 -2 -24 7 0 8 -8 21 -18 30 -14 13 -21 14 -30 5 -9 -9 -12 -7
-12 10 0 29 -47 53 -60 32 -5 -8 -12 -11 -16 -7 -9 9 15 37 32 37 8 0 14 10
14 21 0 19 -4 21 -30 16 -16 -4 -30 -2 -30 3 0 8 60 60 70 60 3 0 30 -35 60
-77z m-191 -80 c16 -21 38 -47 50 -57 29 -27 26 -37 -10 -29 -44 9 -79 -13
-79 -50 0 -37 57 -97 93 -97 23 0 24 -3 20 -44 -5 -39 -2 -45 23 -63 35 -25
74 -15 74 17 0 24 9 25 36 5 10 -8 30 -15 44 -15 24 0 79 -48 121 -105 14 -19
13 -19 -13 -2 -34 21 -54 22 -62 0 -6 -14 -8 -14 -21 3 -11 16 -14 16 -18 4
-3 -8 -8 -22 -10 -30 -4 -10 -6 -8 -6 6 -1 33 -52 50 -112 37 -41 -8 -53 -7
-76 9 -16 10 -35 18 -43 18 -8 0 -26 9 -40 20 -32 25 -55 25 -79 1 -19 -19
-20 -19 -52 5 -38 28 -75 31 -107 8 -28 -20 -28 -17 9 64 36 80 55 134 64 184
8 42 27 66 68 87 37 19 38 71 1 107 -23 24 -24 27 -8 39 15 11 23 6 61 -36 25
-26 57 -65 72 -86z m-350 32 c13 -14 32 -25 42 -25 17 0 18 -3 9 -20 -14 -27
-4 -57 21 -65 10 -4 19 -12 19 -20 0 -19 -38 -136 -53 -163 l-13 -23 -36 25
c-33 22 -38 23 -50 9 -11 -13 -10 -18 6 -27 34 -21 67 -48 62 -53 -2 -2 -22 4
-43 14 -22 11 -44 18 -51 15 -16 -5 -15 -41 1 -47 6 -2 25 -9 41 -15 l29 -11
-22 -20 c-21 -20 -23 -20 -35 -4 -14 20 -51 16 -51 -5 0 -8 10 -19 23 -25 26
-12 27 -18 6 -50 -32 -49 10 -62 50 -14 14 17 26 26 26 20 0 -5 -4 -13 -10
-16 -15 -9 -12 -45 4 -45 7 0 34 22 60 50 25 27 46 46 46 42 0 -5 -5 -13 -11
-19 -14 -14 -5 -43 14 -43 7 0 23 17 34 37 l22 38 10 -28 c11 -28 25 -35 36
-17 4 6 20 4 43 -6 33 -13 38 -13 48 1 16 22 22 19 40 -22 13 -30 15 -56 9
-128 -11 -141 -11 -146 -25 -228 l-13 -78 -22 21 c-22 20 -22 23 -10 88 11 56
11 69 0 81 -20 20 -43 -1 -50 -48 -4 -20 -11 -45 -16 -56 -8 -18 -9 -17 -5 5
3 14 8 49 12 78 6 48 5 52 -14 52 -25 0 -39 -23 -48 -79 -11 -67 -26 -48 -19
23 6 54 5 64 -10 70 -24 9 -32 1 -40 -37 -12 -57 -17 -69 -26 -60 -7 7 -1 72
12 123 3 10 -4 15 -21 15 -21 0 -27 -7 -35 -42 -13 -53 -26 -67 -18 -20 12 77
-31 86 -52 10 -7 -26 -17 -39 -31 -41 -20 -3 -21 1 -16 47 4 48 3 51 -19 51
-18 -1 -31 -13 -51 -45 -32 -53 -57 -58 -94 -16 -14 16 -39 32 -57 35 -17 4
-44 18 -59 33 -45 43 -39 99 21 224 28 55 61 116 75 134 14 19 26 36 26 40 0
3 21 34 48 68 26 34 74 101 106 150 65 96 84 105 125 62z m1769 0 c6 -14 8
-25 4 -25 -5 0 -19 11 -32 25 -22 24 -23 25 -3 25 11 0 25 -10 31 -25z m-34
-40 c3 -8 1 -15 -4 -15 -6 0 -10 7 -10 15 0 8 2 15 4 15 2 0 6 -7 10 -15z
m-151 -42 c-7 -2 -21 -2 -30 0 -10 3 -4 5 12 5 17 0 24 -2 18 -5z m113 -21
c12 -9 25 -28 28 -42 7 -25 7 -25 -11 -5 -10 11 -31 32 -47 47 -23 21 -25 26
-10 22 10 -3 29 -13 40 -22z m294 -13 c0 -5 -7 -9 -15 -9 -9 0 -12 6 -9 15 6
15 24 11 24 -6z m-1394 -45 c-3 -9 -6 -23 -6 -32 -1 -16 -1 -16 -10 0 -11 18
-3 48 12 48 6 0 7 -7 4 -16z m-186 -9 c29 -15 39 -38 21 -49 -11 -7 -83 49
-74 58 10 9 21 7 53 -9z m1005 6 c3 -5 1 -12 -5 -16 -5 -3 -10 1 -10 9 0 18 6
21 15 7z m210 -21 c8 -24 35 -27 35 -4 0 22 24 12 28 -12 5 -26 30 -44 62 -44
14 0 32 6 39 13 11 10 13 8 8 -11 -8 -35 59 -90 101 -83 10 2 12 -4 6 -21 -15
-48 -24 -94 -24 -131 0 -21 -4 -36 -9 -32 -15 9 -40 -23 -51 -65 -8 -29 -20
-45 -49 -62 -22 -13 -57 -45 -78 -71 -22 -27 -50 -55 -62 -64 -20 -14 -24 -13
-41 2 -14 13 -23 15 -32 8 -7 -6 -25 -13 -39 -16 -21 -5 -32 0 -55 26 -16 17
-43 44 -60 58 -45 36 -53 58 -49 120 3 30 0 69 -6 87 -9 27 -8 37 6 52 9 10
14 23 11 28 -9 14 54 117 115 189 42 50 132 70 144 33z m-221 -82 c-6 -9 -34
1 -34 11 0 4 3 10 6 14 8 7 33 -16 28 -25z m-902 -43 c-2 -14 -10 -25 -18 -25
-22 0 -27 21 -8 35 27 20 32 18 26 -10z m1448 4 c0 -6 -4 -7 -10 -4 -5 3 -10
11 -10 16 0 6 5 7 10 4 6 -3 10 -11 10 -16z m-1350 -214 c8 -2 18 -4 21 -4 4
-1 12 -20 18 -43 7 -24 15 -49 18 -56 2 -7 1 -12 -4 -10 -4 1 -22 -1 -38 -4
l-31 -7 7 -82 c5 -60 3 -92 -7 -122 -8 -22 -14 -48 -14 -58 0 -22 -13 -25 -27
-6 -7 7 -7 34 -1 72 4 33 9 96 11 140 l2 80 -29 -2 c-16 -1 -34 -7 -40 -13 -6
-6 -12 -55 -13 -109 -1 -54 -5 -106 -9 -116 -4 -10 -2 -25 4 -35 8 -13 7 -21
-4 -32 -8 -8 -16 -26 -18 -40 -1 -14 -12 -42 -25 -63 -28 -48 -25 -90 7 -89
12 0 22 -4 22 -9 0 -5 -13 -7 -30 -3 -39 7 -81 -9 -87 -34 -3 -11 -8 -18 -12
-15 -4 2 -7 -11 -6 -28 1 -31 -1 -33 -36 -32 -42 0 -41 12 5 54 14 13 23 28
20 32 -3 5 -1 9 5 9 6 0 8 6 5 13 -3 8 2 20 10 27 9 7 21 31 28 54 6 22 12 43
13 46 1 3 5 23 9 45 4 22 11 57 17 79 6 21 12 62 14 90 6 79 16 160 20 164 2
2 -5 29 -16 59 -10 31 -17 58 -15 60 7 7 48 -18 72 -44 34 -37 58 -24 51 27
l-5 39 36 -15 c21 -9 44 -17 52 -19z m116 -148 c-2 -26 0 -50 5 -53 5 -3 7 -9
4 -13 -2 -5 -5 -31 -6 -59 -1 -31 -6 -49 -12 -45 -6 3 -7 1 -3 -6 4 -6 0 -37
-10 -67 -13 -42 -14 -58 -5 -67 17 -17 67 13 63 37 -2 12 1 16 9 10 7 -4 10
-3 5 4 -3 6 -1 32 5 59 6 26 11 87 10 135 -1 63 3 91 13 101 11 11 12 17 4 25
-7 7 -9 14 -7 17 5 4 31 -31 84 -112 6 -9 26 -33 46 -53 19 -21 46 -59 60 -86
21 -43 30 -50 72 -63 46 -14 47 -16 41 -47 -4 -20 0 -43 10 -62 14 -28 14 -34
-5 -89 -20 -57 -24 -71 -56 -183 -9 -30 -18 -85 -21 -121 -4 -57 -2 -69 15
-85 41 -39 61 -46 91 -30 35 18 122 112 122 132 0 30 33 95 46 90 7 -3 11 0 8
7 -2 7 7 24 21 37 l25 24 41 -40 c22 -21 42 -49 46 -61 3 -13 9 -23 13 -23 16
0 160 -172 154 -183 -4 -7 -4 -9 1 -5 4 4 23 -11 42 -34 31 -38 33 -42 18 -62
-8 -11 -21 -32 -27 -46 -7 -14 -21 -35 -32 -48 -12 -13 -21 -29 -21 -35 -1 -7
-11 -34 -24 -62 -13 -27 -25 -72 -27 -100 -1 -27 -6 -70 -9 -95 -3 -25 -7 -61
-9 -80 -7 -71 -29 -133 -48 -138 -10 -2 -18 -12 -18 -21 0 -14 2 -14 11 -1 8
11 9 9 3 -10 -4 -14 -9 -27 -13 -30 -3 -3 -6 -9 -6 -15 0 -12 -54 -95 -72
-110 -6 -5 -13 -19 -15 -30 -2 -13 -12 -20 -26 -21 -12 -1 -31 -9 -42 -19 -44
-40 -7 -86 53 -65 31 10 33 9 102 -63 99 -104 250 -311 262 -362 3 -11 8 -36
12 -55 4 -19 13 -45 19 -57 7 -12 9 -24 5 -26 -16 -10 -103 6 -103 19 0 26
-90 29 -176 5 -21 -6 -82 -33 -134 -60 -78 -40 -97 -54 -105 -79 -18 -52 -51
-78 -130 -101 -68 -21 -76 -21 -91 -7 -18 19 -51 20 -90 5 l-28 -10 19 23 c11
13 45 48 76 78 41 40 69 82 106 157 28 56 54 116 58 135 11 52 114 291 136
314 48 52 -1 80 -55 31 -29 -28 -76 -113 -76 -138 0 -5 -15 -42 -34 -81 -43
-92 -49 -107 -51 -139 -5 -59 -77 -183 -149 -257 l-71 -73 -45 6 c-25 3 -67 1
-95 -6 -61 -14 -124 -14 -137 -1 -17 17 -1 44 68 117 36 39 72 83 80 98 8 15
19 25 24 22 6 -3 7 0 4 8 -3 8 14 33 38 58 23 24 43 53 44 64 1 11 6 31 12 45
6 14 13 36 16 50 6 26 36 67 94 129 22 23 31 29 26 16 -4 -11 -8 -33 -8 -50
-1 -23 3 -30 18 -30 14 0 28 17 47 55 16 30 28 63 29 72 0 28 -20 31 -46 7
-13 -12 -24 -17 -24 -10 0 22 -27 22 -63 -1 -20 -13 -39 -30 -42 -38 -3 -8
-23 -35 -45 -60 -43 -48 -65 -100 -57 -131 4 -13 -2 -23 -16 -31 -25 -13 -22
-10 -100 -112 -32 -42 -78 -96 -101 -120 l-43 -43 -93 -2 c-90 -2 -94 -1 -131
28 -21 17 -46 31 -56 31 -10 0 -31 7 -48 16 -29 15 -119 47 -140 49 -5 1 -38
5 -73 9 -54 7 -67 5 -98 -13 -32 -19 -35 -19 -30 -4 3 10 12 63 21 118 21 136
29 154 66 150 16 -2 29 0 29 5 0 10 -21 14 -47 11 -8 -1 -5 16 10 51 26 64
120 232 141 253 8 9 30 36 47 60 18 24 36 42 42 38 6 -3 7 -1 3 6 -10 15 13
43 27 34 6 -3 7 -1 3 5 -4 7 13 31 39 58 36 35 52 45 70 41 14 -2 22 -1 20 4
-3 4 6 21 20 37 30 36 31 49 6 81 -18 24 -19 30 -5 69 4 9 8 46 9 82 1 67 9
126 26 195 5 22 11 69 12 103 3 41 9 67 18 73 9 5 10 9 2 9 -14 0 -10 70 8
112 13 32 -2 61 -27 51 -15 -5 -19 14 -6 33 9 14 54 39 65 36 5 -1 6 2 3 7 -6
9 -2 21 29 96 42 101 98 195 114 193 20 -2 31 4 31 19 0 15 -2 14 -15 -3 -10
-13 -14 -15 -15 -5 0 8 6 22 14 30 8 9 27 50 42 91 23 62 28 90 27 158 -1 50
2 82 8 82 6 0 4 7 -5 15 -15 15 -12 45 4 45 13 0 21 32 11 44 -5 6 -6 25 -3
41 5 27 7 26 14 -20 4 -27 6 -71 4 -98z m1234 127 c0 -2 -9 -4 -21 -4 -11 0
-18 4 -14 10 5 8 35 3 35 -6z m-1160 -26 c0 -5 -4 -8 -10 -8 -5 0 -10 10 -10
23 0 18 2 19 10 7 5 -8 10 -18 10 -22z m355 -34 c17 -11 25 -25 24 -43 l0 -26
-16 23 c-8 12 -22 22 -29 22 -8 0 -14 9 -14 20 0 24 4 25 35 4z m179 -36 c3
-13 25 -43 48 -68 24 -25 51 -57 60 -72 22 -33 64 -42 133 -29 27 5 52 8 54 6
11 -12 -60 -92 -100 -113 l-46 -23 -56 28 c-31 15 -59 36 -62 46 -4 10 -26 30
-50 45 -59 37 -88 76 -79 104 4 13 7 29 5 37 -2 9 3 12 13 8 10 -4 24 5 38 23
28 35 34 36 42 8z m583 -55 c-3 -10 -5 -4 -5 12 0 17 2 24 5 18 2 -7 2 -21 0
-30z m-1366 -292 c-12 -22 -23 -41 -26 -41 -3 0 1 52 6 58 3 4 6 21 8 39 1 16
2 16 17 1 14 -14 14 -19 -5 -57z m1222 25 c8 -21 -66 -75 -124 -90 -28 -8 -58
-21 -67 -30 -15 -15 -15 -17 1 -33 16 -16 20 -16 69 1 29 10 72 32 95 48 24
16 48 26 54 23 5 -4 18 0 28 9 10 9 24 14 32 12 8 -3 39 -12 70 -20 43 -12 58
-22 68 -42 6 -15 23 -35 36 -46 13 -10 27 -27 30 -38 3 -10 26 -30 50 -44 53
-31 78 -62 101 -124 10 -26 21 -49 24 -52 12 -11 30 -62 25 -71 -4 -5 -17 -9
-31 -9 -44 0 -144 -63 -144 -91 0 -5 5 -18 12 -29 11 -16 6 -24 -34 -62 l-46
-43 -15 32 c-13 30 -13 32 13 51 36 27 75 103 66 128 -7 17 -10 16 -38 -16
-16 -19 -42 -48 -56 -64 l-26 -28 -35 39 c-20 22 -56 66 -81 99 -73 96 -130
153 -146 147 -10 -3 -12 0 -8 10 4 13 -46 79 -91 119 -5 4 -19 16 -30 26 -11
9 -40 43 -63 74 -24 31 -55 68 -70 83 l-26 26 25 -9 c13 -5 71 -5 129 -1 94 7
107 10 125 32 18 22 22 23 46 11 15 -7 29 -20 32 -28z m-514 -156 c59 -59 60
-61 37 -70 -33 -12 -58 -52 -91 -144 -24 -66 -33 -80 -59 -91 -50 -21 -70 -4
-63 53 12 91 25 133 61 191 38 63 43 83 32 146 l-7 40 15 -32 c8 -18 42 -60
75 -93z m-1079 35 c0 -8 -4 -15 -10 -15 -5 0 -7 7 -4 15 4 8 8 15 10 15 2 0 4
-7 4 -15z m17 -97 c-3 -8 -6 -5 -6 6 -1 11 2 17 5 13 3 -3 4 -12 1 -19z m224
-15 c-12 -20 -14 -14 -5 12 4 9 9 14 11 11 3 -2 0 -13 -6 -23z m1916 -307 c-6
-16 -71 -28 -95 -18 -12 5 -5 9 23 12 29 4 43 11 50 27 8 19 11 20 18 7 5 -8
6 -21 4 -28z m48 -116 c0 -58 -1 -60 -26 -60 -14 0 -34 7 -45 15 -10 8 -37 14
-59 15 -32 0 -50 -8 -90 -40 -55 -43 -72 -45 -33 -2 14 15 31 37 37 49 7 15
20 22 39 22 46 0 141 26 159 44 10 9 17 17 18 17 0 0 0 -27 0 -60z m-642 -84
c15 -22 15 -25 -3 -41 -18 -16 -18 -16 -13 3 2 11 0 23 -6 26 -13 9 -15 36 -2
36 5 0 16 -11 24 -24z m196 -58 c-17 -34 -19 -34 -19 -5 0 18 5 27 15 27 13 0
14 -4 4 -22z m174 1 c4 -16 3 -19 -5 -11 -6 6 -18 8 -27 5 -11 -4 -10 -1 4 10
11 9 21 17 21 17 1 0 4 -10 7 -21z m218 -51 c10 -14 18 -39 19 -61 0 -21 8
-54 19 -75 10 -20 21 -50 25 -67 10 -42 64 -123 87 -130 10 -4 19 -13 19 -20
0 -8 8 -19 18 -24 23 -12 82 -121 82 -150 0 -12 16 -47 35 -77 19 -30 35 -57
35 -60 0 -4 -35 35 -73 81 -121 148 -155 192 -173 217 -12 16 -41 50 -65 76
-60 64 -99 112 -99 121 0 5 18 20 40 35 27 18 38 31 33 42 -3 8 -11 13 -19 10
-14 -5 -44 34 -44 58 0 14 26 46 37 46 2 0 13 -10 24 -22z m-496 -46 c6 -21 4
-23 -14 -17 -13 4 -28 1 -37 -6 -8 -6 -17 -9 -20 -6 -11 11 6 57 21 57 8 0 15
5 15 12 0 18 26 -12 35 -40z m152 -30 c-10 -10 -17 -25 -18 -33 0 -11 -2 -11
-6 -1 -5 12 23 52 35 52 3 0 -2 -8 -11 -18z m250 -9 c-9 -9 -19 -14 -22 -11
-3 3 2 13 11 22 9 9 19 14 22 11 3 -3 -2 -13 -11 -22z m-564 -16 c-5 -30 -2
-36 30 -55 28 -16 37 -29 42 -59 3 -21 11 -47 16 -58 45 -91 63 -101 141 -79
29 8 58 16 64 17 20 4 143 -176 158 -233 8 -27 12 -37 49 -120 34 -76 162
-210 200 -210 21 0 33 -8 48 -34 13 -22 30 -36 49 -40 24 -4 30 -11 30 -30 0
-28 25 -40 62 -31 20 5 27 0 44 -32 25 -49 116 -100 150 -84 20 9 28 4 61 -33
100 -114 134 -157 128 -166 -3 -5 0 -8 7 -5 13 5 83 -73 191 -215 32 -41 75
-97 98 -125 65 -82 153 -197 166 -219 7 -12 12 -31 13 -43 0 -12 6 -24 13 -26
6 -3 0 -6 -14 -6 -36 -1 -92 -41 -100 -71 -6 -20 -7 -15 -8 19 -1 25 -7 52
-15 60 -11 13 -12 27 -4 71 l10 55 -37 33 c-29 26 -43 33 -66 30 -38 -6 -37 6
1 22 39 16 56 46 39 66 -23 28 -44 34 -73 18 -37 -18 -36 -19 -29 21 7 44 -15
80 -54 88 -52 10 -82 -61 -47 -111 14 -21 14 -22 -6 -22 -12 0 -36 -14 -53
-31 l-31 -32 28 -22 c23 -18 35 -21 58 -15 l28 9 -21 -30 c-16 -23 -20 -38
-15 -67 4 -20 10 -59 13 -87 3 -27 9 -55 14 -61 5 -6 11 -42 14 -80 3 -38 7
-89 10 -114 3 -25 10 -88 16 -140 5 -52 17 -124 26 -159 13 -53 13 -65 2 -72
-9 -5 -17 -2 -23 9 -5 9 -15 23 -22 29 -7 7 -15 18 -17 25 -9 22 -67 -48 -67
-81 0 -41 44 -75 87 -68 18 3 33 2 33 -4 0 -5 -8 -9 -18 -9 -22 0 -47 -25 -56
-57 -5 -15 -1 -28 14 -43 l21 -21 44 25 c25 13 47 21 50 16 6 -9 26 -130 30
-180 5 -57 25 -224 30 -240 2 -8 7 -75 10 -148 3 -73 9 -140 12 -148 7 -18 6
-18 -68 3 -61 17 -62 17 -80 -5 -9 -12 -19 -28 -22 -35 -3 -8 -16 -5 -48 12
-29 17 -61 25 -98 26 -47 2 -56 5 -63 26 -8 22 -58 245 -63 279 -1 8 -7 47
-13 85 -6 39 -21 133 -33 210 -29 193 -43 257 -90 425 -23 80 -50 177 -61 215
-11 39 -24 94 -29 124 -5 29 -16 66 -24 82 -22 42 -20 62 6 49 11 -6 33 -9 48
-5 50 11 67 80 23 91 -14 4 -17 16 -17 67 0 54 -2 62 -20 65 -38 5 -58 -21
-63 -82 -2 -31 -8 -56 -13 -56 -5 0 -9 9 -9 21 0 11 -7 44 -16 72 -40 133 -44
156 -54 287 -4 58 -13 119 -18 135 -6 17 -16 50 -23 75 -7 25 -18 54 -25 65
-7 11 -10 36 -8 55 12 101 11 125 -8 162 -27 51 -66 81 -98 74 -16 -3 -34 2
-49 13 l-23 18 21 41 c19 37 19 42 5 57 -10 10 -24 13 -36 9 -18 -5 -20 -3
-14 20 7 27 -26 106 -43 106 -23 0 -41 -14 -41 -30 0 -11 -5 -22 -11 -26 -8
-4 -10 -27 -6 -65 4 -49 2 -59 -12 -64 -10 -3 -24 -17 -31 -31 -19 -34 -3 -59
38 -59 20 0 28 -3 22 -9 -15 -15 -12 -49 5 -72 8 -10 15 -29 15 -41 0 -12 11
-46 24 -75 14 -29 27 -75 30 -103 12 -122 20 -163 42 -205 18 -36 24 -66 28
-150 6 -130 14 -186 32 -227 8 -17 17 -67 20 -110 4 -43 15 -100 25 -128 11
-27 19 -60 19 -72 0 -12 4 -24 9 -27 9 -6 17 -42 26 -120 11 -90 24 -142 53
-217 16 -41 37 -108 46 -149 10 -41 30 -129 46 -195 49 -209 60 -262 60 -284
0 -12 7 -36 16 -52 8 -17 13 -36 11 -42 -3 -7 -9 0 -15 15 -7 18 -21 30 -39
34 -15 3 -41 10 -57 15 -16 5 -41 9 -56 9 -15 0 -34 8 -43 18 -20 22 -70 130
-87 189 -7 24 -17 43 -22 43 -14 0 -9 76 7 106 22 42 18 86 -10 128 -14 20
-25 39 -25 42 0 3 -7 22 -16 41 -14 29 -21 33 -41 29 -13 -4 -22 -3 -21 1 3
16 -35 160 -77 293 -18 58 -38 143 -45 190 -15 122 -16 124 -28 128 -7 2 -8
11 -2 27 10 26 9 85 -1 85 -6 0 -18 44 -22 83 -1 9 -4 17 -8 17 -4 0 -13 17
-19 38 -7 20 -26 69 -42 107 -17 39 -37 84 -45 102 -10 24 -11 46 -5 89 10 58
2 115 -22 163 -7 14 -19 49 -25 76 -7 28 -26 75 -44 105 -17 30 -39 71 -49 90
-17 32 -61 88 -215 276 -29 35 -53 70 -53 79 0 9 18 38 39 65 59 74 101 193
117 327 8 71 21 127 34 153 25 49 30 50 23 7z m212 -46 c-7 -14 -27 -36 -44
-49 -30 -22 -31 -22 -31 -2 0 13 9 22 25 26 16 4 27 16 31 33 9 37 15 45 25
30 4 -7 2 -24 -6 -38z m205 -67 c0 -17 -22 -14 -28 4 -2 7 3 12 12 12 9 0 16
-7 16 -16z m247 -134 c6 0 22 -13 35 -29 13 -15 64 -75 113 -133 50 -57 101
-120 115 -138 47 -63 98 -125 145 -175 26 -27 60 -69 76 -92 17 -24 34 -43 39
-43 6 0 10 -5 10 -11 0 -6 -6 -9 -12 -6 -7 2 -33 -2 -58 -9 -56 -17 -55 -17
-41 0 26 31 -18 63 -47 34 -10 -10 -15 -10 -22 2 -11 18 -4 29 27 41 15 6 23
15 21 26 -5 26 -37 28 -68 4 -26 -19 -29 -19 -42 -4 -10 13 -10 17 -1 20 30
10 53 38 43 53 -7 12 -14 12 -43 2 -55 -20 -64 -13 -27 18 33 27 34 30 18 46
-16 16 -18 16 -42 1 -32 -22 -34 -21 -38 6 -2 14 -10 22 -23 23 -37 2 -39 4
-16 27 19 21 20 25 6 37 -13 11 -19 10 -35 -5 -19 -17 -40 -14 -40 6 0 6 10
19 22 29 19 15 21 20 9 34 -13 15 -16 15 -38 -6 -22 -21 -24 -21 -41 -4 -16
16 -16 18 11 37 15 12 27 27 27 35 0 19 -29 18 -51 -2 -10 -9 -23 -13 -28 -9
-18 10 -12 33 10 40 24 8 22 38 -4 43 -10 2 -26 -3 -35 -12 -11 -9 -23 -12
-31 -7 -16 10 -6 31 14 31 14 0 27 24 18 34 -10 10 -48 7 -59 -4 -8 -8 -15 -6
-25 6 -9 12 -10 18 -3 21 6 2 20 10 30 18 16 11 17 16 6 27 -11 11 -18 10 -44
-5 -17 -10 -31 -16 -32 -15 0 2 -16 20 -35 40 -31 34 -32 38 -18 58 9 13 26
28 39 35 22 12 27 9 88 -56 36 -38 70 -69 77 -69z m-2723 -172 c5 -9 7 -20 3
-25 -11 -10 -41 11 -45 31 -5 23 26 18 42 -6z m-44 -116 c0 -14 -24 -32 -42
-32 -16 0 -17 3 -8 20 10 19 50 29 50 12z m155 -12 c-3 -5 -13 -10 -21 -10 -8
0 -14 5 -14 10 0 6 9 10 21 10 11 0 17 -4 14 -10z m-65 -130 c10 -14 21 -37
24 -53 5 -23 2 -29 -19 -37 -30 -11 -32 -25 -5 -47 26 -23 25 -33 -3 -33 -25
0 -47 -17 -47 -36 0 -6 16 -15 35 -18 29 -6 35 -11 35 -32 0 -17 -7 -28 -20
-31 -24 -6 -26 -21 -5 -29 10 -4 13 -14 9 -30 -5 -19 -1 -26 20 -35 31 -14 34
-44 6 -52 -30 -8 -24 -34 10 -46 18 -6 30 -17 31 -28 1 -22 4 -46 13 -98 6
-31 5 -36 -4 -22 -12 19 -50 23 -67 6 -19 -19 -3 -39 32 -39 28 0 34 -5 50
-40 10 -22 16 -43 12 -46 -3 -3 1 -27 9 -52 20 -68 19 -72 -22 -72 -31 0 -35
-3 -32 -22 2 -19 11 -24 43 -28 27 -3 40 -10 40 -20 0 -10 -8 -14 -27 -12 -54
5 -93 -43 -54 -65 8 -4 16 -19 18 -33 3 -21 8 -25 38 -24 29 0 36 -4 42 -24 5
-16 1 -29 -13 -43 -15 -15 -17 -24 -9 -39 6 -11 17 -20 25 -20 8 0 16 -10 16
-22 2 -39 6 -64 13 -92 6 -23 3 -29 -14 -33 -29 -8 -26 -41 5 -49 14 -3 25
-11 25 -18 0 -6 5 -40 10 -76 6 -36 13 -83 16 -105 3 -22 12 -75 20 -118 7
-43 13 -81 12 -85 -1 -4 1 -41 5 -82 18 -206 18 -210 -7 -210 -30 0 -53 -25
-34 -37 7 -4 23 -8 35 -8 36 0 27 -18 -14 -30 -28 -8 -38 -16 -38 -30 0 -16 6
-20 28 -18 21 1 27 -3 27 -18 0 -10 -4 -19 -8 -19 -5 0 -17 -6 -27 -14 -29
-21 -4 -46 39 -39 27 4 34 2 39 -16 5 -22 -7 -37 -37 -42 -28 -6 -45 -37 -26
-49 8 -5 21 -8 27 -5 19 7 43 -5 43 -21 0 -8 -8 -14 -19 -14 -10 0 -24 -7 -31
-15 -18 -22 6 -48 37 -40 18 4 23 1 23 -14 0 -14 -8 -21 -27 -23 -20 -2 -28
-9 -28 -23 0 -15 8 -21 34 -25 44 -6 51 -26 12 -35 -17 -4 -33 -11 -37 -16
-10 -17 17 -39 41 -33 19 5 23 1 29 -27 10 -51 7 -59 -17 -59 -13 0 -32 -6
-42 -14 -30 -22 -4 -46 41 -39 20 3 34 1 34 -5 0 -5 -8 -8 -17 -6 -10 3 -27
-2 -38 -9 -17 -13 -17 -17 -6 -31 9 -10 18 -13 23 -8 14 14 47 2 47 -16 0 -10
2 -67 6 -127 6 -104 5 -112 -15 -138 -29 -36 -40 -25 -45 46 -2 31 -6 65 -10
76 -3 12 -2 21 4 21 5 0 11 -15 13 -32 4 -45 38 -53 38 -9 0 64 -33 113 -71
104 -27 -7 -34 -46 -20 -107 20 -81 24 -163 10 -172 -7 -4 -15 -2 -17 4 -2 7
-7 10 -12 7 -4 -3 -11 34 -14 82 -4 49 -9 117 -12 153 -11 143 -14 191 -19
335 -3 83 -11 191 -19 240 -8 50 -14 97 -14 105 1 44 -15 230 -22 260 -5 19
-14 84 -21 144 -6 61 -20 144 -29 185 -17 70 -17 77 -2 94 11 13 13 20 4 29
-8 8 -8 15 1 28 13 22 -4 47 -36 52 -18 3 -23 14 -34 88 -27 179 -27 192 -8
206 10 7 15 20 12 29 -5 11 0 15 19 15 24 0 25 2 19 33 -15 68 -22 77 -60 77
-32 0 -35 2 -35 29 0 16 -9 82 -21 148 -11 65 -22 153 -24 196 -3 43 -7 82
-10 87 -4 6 -4 14 0 19 3 6 1 36 -5 68 -5 32 -15 107 -21 168 -5 60 -14 114
-18 120 -5 5 -7 27 -6 49 3 30 -2 43 -21 61 -32 29 -32 55 0 55 14 0 28 5 31
10 3 6 15 10 25 10 14 0 21 10 26 36 8 41 27 43 54 4z m2460 -46 c0 -13 -4
-24 -10 -24 -5 0 -10 14 -10 31 0 17 4 28 10 24 6 -3 10 -17 10 -31z m830 -33
c5 -11 10 -32 10 -46 0 -31 -39 -125 -51 -125 -12 0 -12 1 7 45 8 20 14 53 12
73 -2 30 -8 38 -25 40 -13 2 -23 7 -23 12 0 5 10 11 23 13 12 2 25 5 29 6 4 0
12 -8 18 -18z m-350 -58 c0 -5 27 -36 59 -71 56 -61 60 -63 95 -57 20 4 39 11
42 16 8 14 24 10 24 -6 0 -18 -93 -67 -114 -59 -19 7 -61 62 -70 92 -4 12 -18
34 -32 47 -25 25 -31 45 -14 45 6 0 10 -3 10 -7z m-510 -34 c0 -5 -7 -9 -15
-9 -15 0 -20 12 -9 23 8 8 24 -1 24 -14z m896 -71 c-8 -19 -27 -43 -41 -52
-32 -21 -33 -3 -2 27 13 12 30 33 36 45 19 35 23 20 7 -20z m-806 -13 c0 -19
48 -31 71 -17 14 9 21 8 34 -4 19 -19 20 -35 2 -28 -18 7 -41 -22 -33 -41 3
-8 13 -15 23 -15 14 0 12 -5 -11 -23 -31 -25 -29 -47 5 -47 22 0 24 -8 4 -34
-18 -23 -3 -56 24 -56 23 0 37 -18 39 -51 1 -23 -2 -26 -23 -21 -30 5 -31 -2
-5 -35 23 -29 25 -46 8 -72 -9 -15 -8 -24 4 -43 8 -12 21 -52 28 -88 7 -36 16
-69 21 -75 12 -16 29 -123 35 -225 5 -65 11 -98 20 -103 10 -6 11 -13 4 -27
-11 -21 -5 -46 15 -54 7 -2 16 -23 20 -45 4 -23 14 -45 22 -49 8 -5 23 -38 33
-74 16 -60 17 -68 3 -88 -14 -20 -14 -24 5 -43 17 -17 24 -18 36 -8 10 9 14
22 10 40 -4 20 -3 23 5 11 16 -23 13 -45 -9 -65 -11 -10 -20 -15 -20 -10 0 4
-7 2 -15 -5 -24 -20 -18 -38 15 -45 21 -5 30 -13 30 -26 0 -14 -6 -19 -17 -17
-50 8 -58 -38 -8 -48 41 -7 42 -10 13 -34 -19 -15 -20 -20 -9 -34 10 -12 18
-13 32 -5 24 12 28 3 32 -66 2 -28 7 -57 12 -65 5 -8 11 -25 13 -38 1 -13 12
-37 22 -55 26 -42 25 -91 -1 -126 -22 -29 -19 -51 6 -51 19 0 26 -28 13 -50
-11 -16 -8 -24 16 -49 16 -17 30 -43 32 -58 1 -15 5 -50 10 -77 l7 -48 -25 16
c-25 16 -27 16 -46 -9 l-21 -26 -11 43 c-6 24 -22 84 -35 133 -14 50 -34 155
-45 234 -12 79 -25 151 -29 160 -5 9 -14 34 -21 56 -7 22 -18 54 -25 70 -53
122 -91 243 -100 315 -10 86 -38 205 -64 273 -6 16 -11 55 -11 87 0 33 -6 79
-14 102 -24 71 -35 157 -34 260 0 61 -4 103 -11 112 -16 19 -50 198 -44 230 3
15 -2 37 -11 51 -9 13 -16 31 -16 40 0 8 -4 15 -9 15 -9 0 -23 31 -26 55 -1 6
-5 23 -9 39 -6 20 -5 31 5 37 20 13 29 11 29 -6z m840 -38 c0 -8 -32 -67 -36
-67 -8 0 1 55 11 62 11 8 25 10 25 5z m-230 -41 c0 -3 -4 -8 -10 -11 -5 -3
-10 -1 -10 4 0 6 5 11 10 11 6 0 10 -2 10 -4z m117 -28 c-16 -10 -57 -10 -57
0 0 20 22 29 45 18 16 -7 20 -13 12 -18z m104 -28 c5 0 9 -7 9 -15 0 -9 9 -15
24 -15 14 0 30 -10 39 -24 9 -13 22 -29 29 -37 8 -8 38 -49 67 -92 29 -42 60
-83 69 -90 19 -13 61 -65 107 -132 69 -98 189 -252 219 -278 17 -16 54 -44 82
-62 76 -50 108 -135 50 -135 -15 0 -26 12 -40 41 -19 41 -32 45 -50 16 -8 -12
-5 -26 12 -55 37 -66 30 -79 -29 -54 -26 10 -59 65 -59 96 0 9 -25 42 -55 72
-60 61 -66 78 -35 94 11 6 20 15 20 20 0 13 -47 13 -55 0 -9 -15 -25 -12 -25
4 0 8 10 22 21 30 14 9 19 21 15 31 -6 16 -8 16 -33 0 -21 -14 -25 -15 -20 -2
7 19 -11 37 -30 30 -17 -7 -57 33 -48 47 3 6 13 10 21 10 19 0 18 36 -1 44 -8
3 -22 -2 -30 -11 -15 -15 -19 -14 -43 10 -26 26 -26 27 -7 41 16 12 18 17 7
28 -10 10 -16 10 -33 0 -28 -18 -40 -7 -29 24 12 30 4 48 -17 40 -20 -8 -44
24 -37 48 7 21 -11 36 -44 36 -28 0 -51 42 -34 63 15 18 5 27 -27 27 -16 0
-31 9 -40 22 -12 19 -11 23 4 34 30 22 11 48 -30 41 -34 -6 -67 14 -51 31 13
12 70 31 84 26 8 -2 18 -4 23 -4z m-1241 -170 c0 -5 -4 -10 -10 -10 -5 0 -10
5 -10 10 0 6 5 10 10 10 6 0 10 -4 10 -10z m-1681 -25 c41 -14 104 -44 140
-67 58 -36 75 -42 138 -46 40 -3 73 -8 73 -13 0 -21 -144 -168 -165 -169 -14
0 -100 -90 -167 -175 -31 -38 -88 -104 -127 -145 -63 -65 -72 -71 -68 -47 2
15 1 27 -3 27 -7 0 -25 71 -36 144 -3 21 -8 48 -10 60 -2 11 -9 61 -14 110 -6
49 -16 109 -22 134 -9 35 -8 46 2 52 7 4 15 22 16 39 13 115 93 147 243 96z
m1349 -7 c-3 -7 -17 -15 -32 -19 -15 -4 -51 -20 -79 -35 -28 -14 -46 -20 -39
-12 6 8 33 25 59 37 27 13 55 27 63 31 22 13 32 12 28 -2z m256 -37 c10 -11
27 -22 39 -25 17 -4 35 -36 76 -133 30 -70 54 -133 54 -140 0 -7 4 -13 8 -13
4 0 10 -12 13 -26 4 -14 16 -46 27 -69 11 -24 22 -50 23 -57 2 -7 6 -21 10
-30 4 -9 5 -46 2 -82 -4 -54 -2 -68 15 -87 12 -14 19 -37 19 -63 0 -23 7 -70
16 -106 9 -36 17 -73 19 -82 2 -9 8 -25 13 -35 14 -28 63 -198 68 -239 5 -44
21 -114 30 -139 7 -16 2 -17 -57 -13 -44 3 -71 1 -85 -9 -20 -13 -24 -11 -49
19 -24 28 -27 29 -23 11 4 -13 3 -23 -2 -23 -4 0 -11 11 -14 24 -3 13 -25 45
-48 71 -131 147 -181 273 -171 437 5 82 3 96 -14 117 -17 20 -22 22 -39 11
-18 -11 -20 -22 -19 -121 1 -60 5 -112 8 -116 4 -3 4 -15 1 -27 -6 -25 18
-132 37 -169 48 -90 73 -133 81 -138 4 -3 10 -36 13 -74 4 -57 10 -77 40 -121
19 -29 48 -63 65 -75 16 -13 30 -28 30 -35 0 -6 7 -17 15 -24 8 -7 15 -20 15
-30 0 -9 9 -29 20 -43 14 -18 20 -40 20 -77 0 -28 4 -59 9 -68 5 -10 4 -41 -2
-75 -11 -53 -13 -57 -38 -57 -39 0 -81 18 -104 44 -11 13 -45 33 -75 46 -30
12 -62 28 -70 34 -30 25 -142 58 -176 53 -31 -5 -32 -5 -36 36 -3 23 -21 116
-40 207 -48 221 -52 250 -34 250 8 0 18 -4 21 -10 3 -5 21 -17 40 -26 29 -13
38 -14 62 -2 21 10 28 20 28 43 0 23 -5 31 -22 33 -26 4 -26 3 -14 54 6 27 5
42 -6 57 -19 28 -32 26 -80 -10 -37 -29 -41 -35 -36 -65 3 -20 1 -34 -4 -34
-11 0 -25 101 -29 200 -3 87 -11 157 -17 168 -4 5 -27 15 -51 21 -52 13 -70
31 -31 31 34 0 77 43 68 67 -4 10 -11 21 -17 25 -7 4 -2 16 12 31 19 20 21 28
13 50 -10 25 -14 26 -58 21 -26 -3 -56 -7 -65 -9 -14 -2 -16 0 -8 15 6 10 10
26 10 35 0 24 -70 85 -97 85 -31 0 -61 -32 -68 -73 -8 -43 7 -74 43 -89 26
-11 25 -12 -23 -18 -28 -4 -60 -10 -70 -14 -23 -7 -75 -88 -75 -115 0 -24 26
-34 50 -21 10 6 29 10 42 10 13 0 43 9 67 21 26 11 48 16 53 11 6 -6 -3 -12
-19 -15 -77 -15 -109 -100 -58 -155 14 -15 25 -35 25 -45 0 -19 30 -77 40 -77
3 0 4 -39 4 -87 -1 -50 4 -101 11 -118 6 -17 15 -53 20 -80 4 -28 11 -57 16
-67 5 -9 20 -76 34 -150 14 -73 28 -143 30 -155 5 -20 1 -23 -23 -23 -16 0
-41 -9 -55 -20 -14 -11 -34 -20 -46 -20 -11 0 -32 -11 -47 -24 -24 -20 -33
-22 -61 -14 -21 6 -40 5 -53 -2 -14 -8 -20 -8 -20 0 0 6 -14 39 -31 73 -30 59
-31 67 -31 186 -1 111 1 125 18 134 18 10 18 10 1 -10 -11 -12 -14 -24 -8 -27
14 -9 61 11 67 29 8 21 -14 45 -40 45 -18 0 -16 3 11 19 38 24 50 55 32 87
-19 36 -55 41 -84 14 -22 -21 -25 -21 -31 -6 -4 9 -4 35 -1 58 3 23 -1 84 -10
137 -8 53 -16 110 -17 126 -2 17 -6 40 -10 51 -4 12 -2 77 3 145 l10 124 -30
31 c-35 36 -80 49 -112 33 -18 -9 -20 -9 -9 2 6 7 12 21 12 32 0 10 5 15 10
12 18 -11 80 16 97 41 22 34 5 49 -57 49 -26 0 -46 -2 -44 -4 7 -7 -18 -31
-33 -31 -11 0 -13 5 -8 18 23 54 -21 130 -68 116 -37 -10 -49 -35 -44 -85 l6
-46 -54 5 c-44 4 -56 1 -74 -17 -22 -22 -20 -42 7 -73 15 -18 82 -26 82 -10 0
4 10 13 21 21 31 18 46 -7 17 -27 -51 -36 -59 -146 -11 -158 30 -8 46 12 32
38 -5 10 -8 30 -5 45 2 16 5 31 5 35 1 4 10 12 21 18 18 10 22 7 31 -19 14
-40 44 -49 73 -22 28 26 37 26 59 1 22 -26 21 -33 -3 -55 -11 -10 -20 -26 -20
-37 0 -22 -13 -23 -30 -3 -17 20 -60 20 -60 0 0 -17 46 -39 61 -29 5 3 9 -2 9
-10 0 -8 -5 -18 -10 -21 -6 -4 -8 -10 -5 -15 3 -5 -4 -14 -15 -20 -29 -15 -25
-36 10 -49 17 -5 30 -15 30 -22 0 -6 7 -9 15 -5 26 9 16 -12 -15 -36 -16 -12
-30 -28 -30 -35 0 -15 36 -18 45 -3 11 18 26 0 16 -18 -7 -12 -24 -17 -61 -18
-32 -1 -55 -7 -61 -15 -5 -8 -9 -9 -10 -4 -1 6 -3 21 -5 35 -2 14 -4 56 -5 93
-1 105 -36 169 -74 137 -13 -11 -14 -16 -2 -34 8 -12 17 -57 21 -101 8 -97 13
-139 27 -230 6 -38 17 -122 24 -185 7 -63 18 -144 24 -180 6 -36 12 -111 13
-168 3 -96 2 -102 -17 -102 -11 0 -42 11 -68 26 -60 31 -126 40 -197 25 -42
-9 -75 -28 -140 -76 -79 -60 -125 -83 -138 -71 -3 3 -7 32 -9 63 -2 32 -10
107 -18 168 -8 60 -15 132 -15 160 0 27 -5 96 -12 152 l-12 102 26 24 26 24
21 -28 c14 -19 31 -29 48 -29 31 0 63 26 63 51 0 27 -42 51 -76 44 l-29 -7 33
21 c30 19 32 24 32 76 l0 56 -47 -7 c-71 -10 -85 -27 -81 -96 2 -36 -1 -59 -8
-62 -11 -4 -25 74 -55 302 -9 70 -9 96 0 105 6 6 11 19 11 29 0 10 30 49 68
86 84 86 184 198 196 220 15 29 47 61 151 151 145 124 132 116 153 98 25 -23
98 -33 117 -17 10 9 44 13 90 13 58 0 81 -5 110 -23 33 -20 41 -21 76 -11 32
10 43 9 63 -4 18 -12 37 -15 68 -10 24 3 65 2 93 -4 57 -11 82 -2 87 31 2 18
16 3 65 -72 73 -111 147 -217 172 -245 10 -11 29 -40 44 -65 45 -79 80 -114
105 -106 23 8 31 49 12 61 -5 3 -10 17 -10 30 0 13 -11 36 -24 52 -13 15 -31
43 -40 62 -10 18 -37 52 -59 75 -46 45 -61 64 -140 182 -87 129 -86 119 -25
150 69 35 139 56 218 64 115 13 136 11 154 -9z m693 -173 c-3 -8 -6 -5 -6 6
-1 11 2 17 5 13 3 -3 4 -12 1 -19z m-2877 -50 c0 -12 -14 -9 -38 8 -33 23 -27
36 8 16 16 -9 30 -20 30 -24z m3580 -23 c0 -17 -2 -17 -10 -5 -5 8 -10 24 -10
35 0 17 2 17 10 5 5 -8 10 -24 10 -35z m100 -74 c0 -5 -7 -11 -15 -15 -15 -5
-20 5 -8 17 9 10 23 9 23 -2z m-142 -29 c3 -9 -2 -13 -14 -10 -9 1 -19 9 -22
16 -3 9 2 13 14 10 9 -1 19 -9 22 -16z m-3254 -28 c26 -10 18 -21 -14 -21 -24
0 -27 3 -19 14 13 15 12 15 33 7z m786 -44 c0 -16 -4 -30 -10 -30 -5 0 -10 14
-10 30 0 17 5 30 10 30 6 0 10 -13 10 -30z m2565 -10 c3 -5 18 -7 33 -5 18 4
35 -1 50 -14 22 -19 23 -22 10 -76 -7 -30 -16 -55 -20 -55 -14 0 -20 22 -9 33
13 13 14 44 2 52 -5 3 -16 -2 -24 -10 -20 -19 -38 -19 -81 1 -31 16 -33 19
-24 45 8 24 20 33 50 38 4 0 10 -3 13 -9z m-568 -32 c-3 -7 -5 -2 -5 12 0 14
2 19 5 13 2 -7 2 -19 0 -25z m-1877 -28 c-8 -6 -22 -10 -30 -9 -9 0 -5 6 10
14 27 14 44 10 20 -5z m-987 3 c-7 -2 -19 -2 -25 0 -7 3 -2 5 12 5 14 0 19 -2
13 -5z m743 -17 c9 -9 10 -17 4 -21 -14 -8 -30 3 -30 21 0 18 8 18 26 0z
m-809 -94 c6 -37 12 -81 12 -99 1 -19 8 -36 19 -42 14 -9 14 -12 4 -20 -11 -7
-12 -22 -3 -78 19 -125 24 -203 12 -203 -15 0 -14 -27 1 -32 9 -3 12 -28 12
-79 -1 -62 -7 -86 -36 -149 -19 -41 -39 -86 -43 -100 -4 -14 -20 -50 -35 -81
-30 -60 -49 -141 -47 -198 2 -33 0 -35 -48 -47 -27 -7 -52 -19 -54 -26 -2 -7
-19 -27 -37 -43 -18 -17 -37 -42 -43 -56 -7 -21 -18 -28 -45 -31 -37 -4 -42 1
-27 30 33 67 40 91 39 122 -1 39 5 69 21 99 6 11 11 41 11 68 0 55 33 325 56
458 23 131 25 147 28 180 8 82 22 124 104 294 25 51 72 114 80 106 4 -4 12
-37 19 -73z m1489 35 c9 -28 -25 -56 -39 -31 -13 23 0 65 18 58 8 -3 17 -15
21 -27z m1464 3 c0 -5 -4 -10 -10 -10 -5 0 -10 5 -10 10 0 6 5 10 10 10 6 0
10 -4 10 -10z m654 -169 c3 -53 10 -111 15 -129 9 -30 8 -32 -14 -26 -31 8
-39 -9 -24 -51 14 -38 10 -49 -14 -40 -22 9 -32 74 -13 88 20 16 11 111 -10
103 -19 -7 -18 9 2 24 35 30 40 80 7 80 -8 0 -12 4 -8 9 3 5 -5 17 -17 25
l-22 16 21 0 c12 0 25 4 28 10 4 6 13 5 24 -2 15 -9 19 -30 25 -107z m141 89
c-10 -11 -21 -17 -24 -14 -3 3 3 12 13 20 28 20 32 17 11 -6z m-2147 -27 c-17
-16 -54 -11 -43 6 3 6 12 8 19 5 8 -3 17 0 21 6 4 6 10 9 13 5 3 -3 -1 -13
-10 -22z m2182 -32 c0 -5 -7 -12 -16 -15 -14 -5 -15 -4 -4 9 14 17 20 19 20 6z
m-2359 -11 c37 0 19 -19 -33 -35 -28 -8 -53 -13 -55 -11 -9 8 41 57 54 52 8
-3 23 -6 34 -6z m134 -10 c-3 -5 -10 -10 -16 -10 -5 0 -9 5 -9 10 0 6 7 10 16
10 8 0 12 -4 9 -10z m-483 -92 c-7 -7 -12 -8 -12 -2 0 6 3 14 7 17 3 4 9 5 12
2 2 -3 -1 -11 -7 -17z m495 -61 c32 -17 74 -101 67 -135 -3 -15 0 -54 6 -87 6
-33 13 -80 16 -105 3 -25 11 -76 19 -115 8 -38 17 -81 20 -95 3 -14 10 -48 17
-76 14 -62 6 -88 -24 -81 -12 3 -30 2 -40 -4 -17 -9 -17 -12 -3 -33 9 -13 25
-26 35 -29 28 -7 29 -82 1 -96 -16 -9 -17 -17 -9 -67 11 -70 11 -71 49 -79 39
-9 45 -25 24 -66 -24 -46 -21 -138 10 -321 9 -51 20 -97 24 -103 5 -5 14 -34
21 -63 14 -59 27 -73 46 -47 15 20 13 35 -16 130 -24 81 -40 175 -45 265 -2
41 -6 87 -10 103 -4 15 -3 27 2 27 5 0 10 -6 10 -12 1 -7 8 -46 17 -86 9 -40
16 -93 16 -118 0 -46 10 -94 43 -209 28 -93 28 -112 0 -130 -13 -9 -23 -21
-23 -29 0 -7 -9 -21 -20 -31 -25 -23 -25 -33 2 -62 46 -49 80 -22 71 56 -8 72
12 60 27 -17 6 -31 16 -75 22 -97 16 -61 20 -165 7 -181 -6 -7 -8 -22 -4 -32
5 -18 -1 -21 -56 -27 -64 -8 -94 4 -72 26 9 9 8 17 -2 33 -7 11 -18 50 -24 86
-6 36 -18 97 -27 135 -9 39 -17 80 -19 92 -2 11 -6 30 -9 41 -4 11 -9 37 -12
58 -3 22 -7 51 -9 66 -2 15 -6 35 -9 45 -9 30 -27 199 -41 383 -6 83 -19 167
-42 280 -28 138 -31 155 -27 159 2 2 15 -4 28 -13 31 -20 50 -20 66 -1 10 12
7 15 -14 21 -29 7 -34 19 -10 28 9 4 12 11 7 18 -4 7 -6 23 -4 36 1 12 -1 22
-6 22 -20 0 -53 -33 -53 -53 0 -12 -4 -28 -9 -36 -6 -9 -15 7 -29 55 -49 166
-67 309 -39 298 8 -3 19 2 26 9 9 12 8 18 -4 31 -9 9 -21 16 -26 16 -5 0 -9 5
-9 10 0 6 16 10 35 10 23 0 38 6 42 15 8 22 2 26 -52 28 -31 1 -50 7 -53 16
-3 10 1 12 19 8 31 -8 64 20 48 40 -6 7 -23 13 -37 13 -53 0 -118 77 -79 94
17 7 98 -4 124 -17z m-1144 -164 c-7 -46 -32 -72 -46 -47 -13 23 -1 57 25 70
13 6 24 12 25 13 1 0 -1 -16 -4 -36z m3237 -49 c6 -33 17 -108 26 -169 8 -60
22 -132 29 -160 8 -27 19 -102 26 -165 6 -63 13 -118 14 -121 8 -12 19 -130
35 -394 10 -167 22 -289 36 -372 6 -40 5 -42 -22 -45 -41 -5 -41 -26 0 -34 35
-6 44 -23 37 -66 0 -4 3 -18 9 -32 5 -13 11 -45 14 -70 l6 -46 -33 0 c-18 0
-43 -7 -55 -16 -21 -15 -22 -14 -22 14 0 16 7 35 15 42 24 20 18 48 -16 65
l-31 16 3 107 c2 59 7 115 13 124 8 13 5 22 -9 38 -20 22 -20 22 0 19 23 -5
24 4 11 115 -5 37 -10 94 -12 125 -1 31 -6 76 -11 101 -4 25 -8 73 -8 108 0
34 -1 62 -3 62 -2 0 -12 -5 -23 -10 -15 -9 -19 -7 -19 7 0 10 9 27 21 36 16
15 18 21 9 33 -7 8 -18 14 -25 14 -7 0 -15 16 -17 35 -5 40 -2 42 24 18 17
-16 20 -16 36 0 13 14 14 21 5 35 -11 17 -25 19 -53 8 -29 -12 -23 44 7 76 25
26 26 31 15 61 -9 27 -16 85 -32 267 0 8 -2 43 -4 76 -2 34 -6 67 -10 73 -10
15 -43 14 -49 -1 -3 -7 -6 -3 -6 8 -1 18 49 87 57 79 1 -1 7 -29 12 -61z
m-2575 9 c3 -9 3 -18 0 -21 -3 -3 -5 0 -5 6 0 18 -65 15 -80 -3 -20 -24 3 -39
52 -36 46 2 44 -15 -2 -21 -40 -5 -34 -42 8 -46 31 -3 46 -22 17 -22 -22 0
-18 -29 8 -50 l22 -18 -28 -30 -29 -30 22 -15 c13 -9 17 -17 11 -22 -19 -11
-12 -35 14 -45 30 -11 34 -46 6 -55 -31 -9 -34 -34 -6 -41 26 -6 32 -18 15
-29 -6 -4 -8 -15 -5 -26 4 -11 2 -19 -4 -19 -6 0 -11 -7 -11 -15 0 -8 9 -15
20 -15 10 0 24 -9 30 -19 16 -31 12 -42 -13 -36 -15 4 -28 1 -36 -9 -19 -23
-3 -38 35 -34 19 2 33 0 31 -5 -2 -6 -16 -11 -31 -13 -34 -4 -51 -18 -41 -34
4 -7 19 -10 36 -6 24 5 29 2 29 -15 0 -11 -9 -23 -22 -28 -19 -7 -24 -4 -31
15 -20 55 -54 12 -42 -52 7 -41 30 -54 50 -28 16 23 79 29 71 7 -3 -8 -6 -20
-6 -26 0 -6 -6 -2 -14 9 -14 18 -15 18 -21 2 -4 -10 -15 -18 -26 -18 -27 0
-45 -38 -27 -57 12 -12 18 -12 43 1 15 8 31 20 36 27 5 8 13 -1 23 -26 9 -21
14 -40 12 -42 -2 -2 -20 -5 -40 -6 -19 -2 -41 -8 -48 -15 -20 -20 6 -36 53
-34 34 3 40 0 37 -15 -2 -10 -12 -18 -23 -19 -41 -2 -45 -4 -45 -24 0 -18 5
-20 38 -18 33 3 37 0 40 -23 3 -24 0 -26 -23 -21 -22 4 -26 1 -23 -14 2 -13
12 -19 31 -19 16 1 27 -5 27 -12 0 -7 -9 -13 -20 -13 -22 0 -29 -40 -7 -40 7
-1 5 -6 -5 -14 -15 -11 -16 -16 -4 -31 8 -11 20 -16 29 -12 19 7 32 -22 17
-37 -7 -7 -10 -6 -10 3 0 19 -44 9 -48 -11 -4 -21 34 -34 53 -18 13 10 15 8
15 -17 0 -27 -3 -30 -31 -31 -37 -1 -43 -6 -35 -28 4 -12 15 -15 37 -12 26 4
30 2 27 -16 -2 -12 -7 -21 -13 -21 -30 -2 -56 -18 -53 -33 3 -13 13 -16 41
-14 32 2 37 0 37 -18 0 -20 -7 -24 -47 -20 -17 1 -23 -4 -23 -18 0 -21 18 -32
51 -32 10 0 19 -4 19 -9 0 -5 -9 -7 -20 -4 -21 6 -26 -13 -21 -77 1 -17 -5
-28 -21 -35 -13 -5 -24 -18 -26 -29 -3 -16 1 -18 27 -14 35 5 43 -16 14 -37
-14 -11 -15 -16 -5 -28 7 -8 9 -17 5 -20 -13 -7 -63 -1 -73 9 -5 5 -12 74 -15
154 -3 80 -8 165 -10 190 -3 25 -7 65 -10 90 -2 25 -11 117 -20 205 -9 88 -18
167 -20 175 -3 8 -7 31 -9 50 -3 19 -9 71 -15 115 -6 44 -13 154 -15 245 -5
201 -14 333 -26 380 -5 19 -14 62 -21 95 -30 146 -30 148 6 155 47 8 103 0
110 -17z m715 -88 c0 -14 -4 -25 -10 -25 -11 0 -14 33 -3 43 11 11 13 8 13
-18z m-1330 -6 c0 -5 -4 -9 -10 -9 -5 0 -10 7 -10 16 0 8 5 12 10 9 6 -3 10
-10 10 -16z m2930 -33 c0 -8 -4 -18 -10 -21 -5 -3 -10 3 -10 14 0 12 5 21 10
21 6 0 10 -6 10 -14z m219 -58 c1 -5 -3 -8 -9 -8 -5 0 -10 12 -9 28 0 24 1 25
9 7 5 -11 9 -23 9 -27z m-3514 -80 c3 -35 9 -85 11 -112 3 -27 7 -52 9 -56 3
-4 7 -39 10 -76 3 -38 8 -79 10 -90 3 -12 7 -59 10 -105 3 -46 8 -91 11 -100
5 -18 -28 -34 -88 -42 -54 -8 -71 0 -90 42 -23 48 -23 54 6 82 20 19 22 26 12
50 -6 17 -22 33 -38 38 -23 8 -28 15 -24 33 3 13 8 49 11 81 4 31 11 57 17 57
6 0 9 3 5 6 -3 3 9 36 27 72 19 37 44 93 57 124 13 32 27 58 30 58 4 0 10 -28
14 -62z m1145 28 c0 -22 -29 -41 -42 -28 -9 9 -7 17 7 32 18 20 35 18 35 -4z
m2260 -11 c0 -8 -5 -15 -11 -15 -6 0 -17 -7 -25 -15 -19 -19 -44 -19 -44 -1 0
18 19 33 50 39 14 2 26 5 28 6 1 0 2 -6 2 -14z m-937 -47 c8 -28 -2 -48 -22
-48 -48 0 -63 -52 -20 -65 16 -5 19 -12 13 -41 -4 -24 -2 -40 8 -52 8 -9 27
-50 42 -91 31 -87 89 -171 117 -171 11 0 27 -4 37 -9 9 -5 36 -14 59 -20 23
-6 49 -19 58 -27 8 -9 21 -14 28 -11 8 3 19 -4 26 -14 6 -11 15 -17 20 -14 14
8 27 -17 30 -58 1 -21 7 -52 12 -69 11 -40 -4 -61 -25 -33 -9 13 -24 18 -52
17 -49 -3 -117 8 -109 16 4 4 10 7 13 8 38 6 74 19 79 27 9 14 -80 1 -116 -17
-37 -20 -91 -29 -91 -16 0 5 14 13 32 18 17 4 33 13 35 19 3 8 -13 8 -54 -2
-41 -10 -63 -10 -77 -3 -19 10 -18 11 8 25 15 8 41 16 58 18 17 2 36 9 42 15
16 17 -88 5 -127 -15 -27 -14 -33 -14 -46 -1 -21 21 0 43 50 51 25 4 39 12 39
22 0 12 -8 13 -42 8 -24 -4 -52 -14 -64 -21 -25 -17 -40 -6 -16 12 15 12 15
15 2 24 -8 5 -10 10 -5 11 6 1 15 3 20 4 6 2 17 3 26 4 11 1 16 11 16 31 0 30
-2 30 -36 25 -20 -3 -49 -8 -66 -11 -27 -6 -28 -5 -16 10 7 9 22 16 31 16 25
0 50 10 50 21 0 11 -53 11 -102 0 -24 -6 -40 -5 -47 2 -17 17 -13 31 4 17 22
-18 37 -8 40 29 2 28 -1 34 -25 43 -31 10 -49 38 -25 38 7 0 17 -4 20 -10 10
-17 36 -11 34 8 -1 9 1 25 6 35 8 19 -1 44 -31 85 -16 22 -16 22 22 22 39 0
39 1 17 18 -12 9 -23 31 -25 47 -3 29 -1 30 42 35 38 4 47 10 60 36 16 34 35
35 43 2z m-423 -8 c0 -5 -4 -10 -10 -10 -5 0 -10 5 -10 10 0 6 5 10 10 10 6 0
10 -4 10 -10z m1480 6 c0 -3 -4 -8 -10 -11 -5 -3 -10 -1 -10 4 0 6 5 11 10 11
6 0 10 -2 10 -4z m-1339 -62 c45 -2 97 -33 77 -45 -7 -5 -22 -6 -33 -2 -41 12
-105 46 -105 55 0 5 6 6 12 1 7 -4 29 -8 49 -9z m1550 -35 c-9 -22 -10 -22
-10 -3 -1 11 2 24 6 27 12 12 14 0 4 -24z m-44 -81 c-3 -8 -6 -5 -6 6 -1 11 2
17 5 13 3 -3 4 -12 1 -19z m-1391 -75 c-7 -7 -26 7 -26 19 0 6 6 6 15 -2 9 -7
13 -15 11 -17z m1647 10 c-7 -2 -19 -2 -25 0 -7 3 -2 5 12 5 14 0 19 -2 13 -5z
m-33 -33 c0 -5 -5 -10 -11 -10 -5 0 -7 5 -4 10 3 6 8 10 11 10 2 0 4 -4 4 -10z
m-2249 -115 c5 -33 12 -68 15 -77 3 -10 2 -18 -3 -18 -5 0 -10 13 -11 29 -1
16 -9 48 -17 71 -8 23 -15 57 -14 74 0 31 0 31 10 6 6 -14 15 -52 20 -85z
m2169 63 c0 -4 -9 -8 -20 -8 -11 0 -20 4 -20 9 0 6 9 9 20 8 11 -1 20 -5 20
-9z m75 -48 c3 -5 1 -10 -4 -10 -6 0 -11 5 -11 10 0 6 2 10 4 10 3 0 8 -4 11
-10z m-4119 -14 c19 -19 18 -22 -8 -31 -52 -16 -58 -16 -58 8 0 13 3 27 7 30
11 12 44 8 59 -7z m49 -5 c-3 -6 -11 -11 -17 -11 -6 0 -6 6 2 15 14 17 26 13
15 -4z m898 -3 c23 -13 58 -25 77 -28 34 -5 35 -6 42 -60 3 -30 14 -100 23
-155 24 -154 46 -323 50 -398 2 -37 6 -71 9 -75 2 -4 7 -49 10 -100 6 -89 6
-92 -15 -92 -11 0 -34 -13 -49 -30 -15 -16 -38 -30 -51 -30 -12 0 -37 -5 -55
-12 -26 -9 -47 -9 -96 1 -74 14 -88 15 -148 7 -25 -4 -69 -8 -97 -10 l-53 -4
-1 46 c0 26 -2 58 -5 72 -2 14 -6 60 -9 103 -2 43 -6 81 -9 85 -4 7 -12 78
-21 187 -3 33 -7 76 -10 95 -3 19 -7 61 -10 93 -5 54 -4 58 14 52 11 -3 36 1
56 10 21 8 47 15 59 15 12 0 31 7 42 15 24 18 51 19 57 3 2 -7 4 2 5 20 l1 34
-41 -7 c-23 -4 -57 -14 -76 -22 -19 -8 -37 -12 -40 -9 -2 3 4 8 14 12 49 15
63 25 80 54 10 17 24 28 30 26 6 -2 11 3 10 12 -1 19 57 51 95 52 25 0 45 21
32 34 -14 14 -72 4 -119 -19 -51 -25 -104 -68 -104 -83 0 -18 -36 -39 -67 -39
-18 0 -36 -3 -40 -7 -10 -10 11 -41 28 -41 8 0 15 -4 16 -10 2 -9 -44 -11 -54
-2 -2 3 -7 21 -10 41 -4 27 -2 36 8 36 41 0 95 26 144 69 31 27 70 56 88 65
48 24 139 21 190 -6z m749 -30 c2 -18 3 -26 13 -78 21 -114 31 -285 16 -294
-6 -4 -11 -12 -11 -18 0 -7 6 -6 15 2 13 11 15 8 16 -21 2 -46 5 -68 14 -115
14 -71 15 -79 23 -130 l8 -51 -57 -12 c-31 -7 -70 -10 -87 -6 -35 7 -139 -17
-160 -38 -20 -20 -6 -56 24 -63 30 -8 22 -17 -28 -33 -20 -7 -42 -18 -48 -26
-20 -24 16 -31 56 -11 19 9 54 16 77 16 36 0 44 4 60 31 9 17 17 37 17 45 0 9
-8 14 -17 13 -10 -1 -34 -1 -53 0 -25 1 -31 4 -23 12 13 13 234 21 250 10 5
-3 19 -53 31 -111 13 -58 29 -131 36 -162 7 -32 9 -58 6 -58 -4 0 -10 -9 -13
-21 -5 -19 -7 -20 -36 -4 -17 8 -50 20 -74 25 -23 5 -71 16 -107 24 -36 8 -87
16 -115 16 -70 0 -95 9 -95 31 0 31 46 43 184 45 100 2 132 6 144 18 14 13 12
16 -11 22 -15 3 -27 10 -27 14 0 16 -71 32 -113 26 -23 -4 -78 -9 -122 -12
l-80 -6 -1 74 c-1 40 -4 114 -8 163 -3 50 -9 127 -12 172 -3 45 -9 97 -15 115
-12 44 -12 195 1 203 6 3 7 17 4 30 -3 12 -1 26 4 29 6 3 8 15 5 26 -5 18 -1
19 63 13 38 -3 75 -12 82 -20 7 -7 25 -13 40 -13 15 0 41 -9 57 -20 60 -40
104 -14 49 29 -25 19 -25 21 -8 46 22 34 7 50 -44 48 l-37 -2 40 19 c47 23 64
25 67 8z m323 -9 c21 -6 53 -21 70 -33 16 -12 50 -31 75 -41 25 -10 56 -29 70
-41 36 -33 99 -53 187 -58 42 -3 80 -9 85 -14 22 -22 -238 7 -297 33 -69 31
-83 35 -100 29 -26 -10 -17 -23 38 -51 65 -34 137 -52 202 -51 28 0 85 -5 129
-12 47 -7 82 -8 87 -3 12 12 0 45 -12 37 -5 -3 -6 2 -3 10 5 13 8 13 20 1 8
-7 14 -23 14 -34 0 -11 10 -27 23 -36 21 -15 14 -16 -95 -10 -103 5 -118 4
-118 -10 0 -9 12 -18 32 -22 30 -6 27 -8 -38 -25 -96 -26 -105 -38 -65 -78 17
-17 31 -35 31 -40 0 -33 221 -46 282 -16 30 14 51 16 115 11 82 -7 110 -15 52
-15 -20 0 -62 -5 -95 -11 -32 -6 -66 -12 -74 -13 -37 -5 -77 -20 -95 -36 -11
-10 -49 -25 -84 -34 -36 -9 -66 -18 -67 -19 -1 -1 -7 -12 -13 -25 -16 -29 -72
-52 -135 -53 -60 -1 -101 -11 -101 -24 0 -6 -4 -15 -8 -22 -4 -7 2 -18 15 -27
17 -12 18 -16 6 -16 -25 0 -43 -27 -29 -44 15 -18 165 -40 225 -34 63 7 49 -8
-16 -16 -91 -12 -116 -43 -55 -67 24 -10 104 -14 322 -14 168 0 296 -4 305
-10 15 -9 25 -11 114 -13 77 -3 43 -17 -43 -18 -75 -1 -152 -21 -226 -58 -47
-23 -249 -28 -378 -9 -110 16 -132 14 -106 -12 21 -21 73 -27 269 -30 l175 -3
95 37 c63 25 114 38 151 40 73 3 185 -17 224 -39 22 -12 37 -15 48 -8 12 6 17
5 17 -4 0 -7 7 -25 14 -40 l15 -28 -72 -1 c-99 -2 -123 1 -173 16 -24 7 -44
10 -44 5 0 -4 -35 -5 -77 -3 -157 7 -640 7 -706 -1 -63 -7 -68 -6 -66 11 1 10
-3 31 -9 46 -7 16 -12 41 -12 57 0 47 -20 170 -38 234 -11 39 -24 61 -37 66
-11 5 -14 9 -7 9 15 1 16 40 1 78 -6 15 -13 44 -15 63 -3 19 -11 57 -20 85 -8
27 -17 79 -20 115 -3 36 -12 102 -21 147 -8 45 -13 88 -10 95 2 7 -2 29 -10
47 -24 60 -3 73 82 50z m-2335 -6 c-1 -18 -18 -35 -24 -24 -4 6 -4 16 -1 21 7
12 25 13 25 3z m4350 -2 c0 -4 -11 -6 -25 -3 -14 2 -25 6 -25 8 0 2 11 4 25 4
14 0 25 -4 25 -9z m-1405 -31 c-11 -5 -27 -9 -35 -9 -9 0 -8 4 5 9 11 5 27 9
35 9 9 0 8 -4 -5 -9z m-135 -15 c0 -12 -19 -12 -23 0 -4 9 -1 12 9 8 7 -3 14
-7 14 -8z m80 5 c0 -5 -5 -10 -11 -10 -5 0 -7 5 -4 10 3 6 8 10 11 10 2 0 4
-4 4 -10z m3 -47 c-7 -2 -19 -2 -25 0 -7 3 -2 5 12 5 14 0 19 -2 13 -5z m642
-77 c4 -25 4 -49 0 -55 -3 -6 2 -26 13 -44 11 -17 23 -57 27 -87 3 -30 14 -80
22 -110 9 -30 15 -61 14 -68 -1 -8 5 -19 14 -26 9 -6 17 -27 19 -46 2 -19 6
-42 9 -50 21 -51 23 -84 5 -102 -19 -19 -24 -48 -8 -48 5 0 13 8 19 17 8 16
10 15 15 -7 9 -44 15 -95 9 -82 -2 6 -13 12 -23 12 -22 0 -44 -25 -35 -40 6
-10 22 -8 63 7 6 3 12 -2 12 -12 0 -10 -7 -15 -17 -13 -10 1 -24 -1 -30 -5
-21 -13 -15 -37 9 -37 20 0 20 -1 3 -20 -28 -30 -12 -54 30 -46 31 6 36 4 44
-17 22 -57 20 -60 -38 -64 -48 -3 -57 -1 -82 23 -16 15 -26 31 -23 36 3 5 1
14 -4 21 -5 7 -12 28 -15 47 -3 19 -20 100 -37 180 -18 80 -37 170 -42 200 -5
30 -11 64 -13 75 -6 32 -15 107 -19 160 -3 28 -9 77 -15 110 -14 77 -14 74 7
68 14 -3 18 -11 14 -29 -3 -17 0 -24 11 -24 22 0 29 29 17 69 -5 19 -7 38 -4
42 12 20 23 6 29 -35z m-3510 -6 c0 -7 -6 -15 -12 -17 -7 -3 -13 0 -13 5 0 6
-16 16 -35 22 -19 6 -33 15 -30 20 8 12 90 -15 90 -30z m4080 -20 c1 -11 -2
-20 -7 -20 -4 0 -8 12 -8 27 0 30 13 24 15 -7z m-3880 -49 c-3 -6 -14 -11 -24
-11 -9 0 -22 -5 -29 -12 -8 -8 -12 -8 -12 -1 0 6 7 16 15 23 8 7 15 9 15 6 0
-4 8 -3 17 3 20 11 28 7 18 -8z m3892 -104 c3 -51 1 -68 -7 -57 -11 17 -14
147 -3 136 4 -3 8 -39 10 -79z m-386 29 c20 -4 44 -15 54 -26 10 -11 33 -25
53 -31 32 -11 37 -10 53 10 9 11 23 21 31 21 8 0 19 5 25 11 14 14 61 1 72
-20 10 -19 25 -211 16 -211 -3 0 -18 6 -33 14 -15 7 -45 17 -68 20 -48 8 -106
41 -103 59 4 32 -2 38 -33 35 -77 -7 -16 -108 74 -123 58 -10 120 -34 138 -54
8 -9 23 -20 32 -24 13 -4 18 -17 17 -44 0 -21 4 -64 9 -95 l8 -57 -46 24 c-42
21 -47 27 -42 50 6 34 -50 87 -126 121 -33 14 -56 31 -59 44 -5 19 -30 32 -67
34 -17 1 -24 17 -42 96 -36 159 -36 162 -16 157 9 -3 33 -8 53 -11z m-345 -27
c3 -5 16 -9 30 -9 20 0 24 -5 25 -32 0 -18 2 -49 4 -69 l4 -37 -30 15 c-17 8
-62 16 -100 18 -47 2 -76 8 -88 19 -13 12 -50 17 -149 22 -115 6 -134 5 -158
-11 -44 -28 -183 -18 -180 13 1 12 -8 18 -31 20 -58 6 -47 29 22 47 53 15 85
17 182 10 149 -9 166 -9 293 1 112 10 167 7 176 -7z m744 -111 c0 -36 -4 -35
-14 5 -4 16 -2 27 4 27 5 0 10 -14 10 -32z m-833 -58 c44 -9 68 -9 75 -2 6 6
22 4 49 -7 30 -12 39 -22 39 -41 1 -23 9 -53 52 -206 8 -27 15 -72 17 -99 1
-27 5 -53 8 -59 4 -5 9 -26 13 -47 l7 -37 -31 10 c-17 5 -42 13 -56 17 l-25 8
23 7 c13 4 21 13 19 19 -7 23 -54 37 -127 38 -40 1 -84 8 -99 15 -18 10 -48
13 -101 9 -132 -9 -454 -14 -494 -7 -52 9 -44 25 20 38 50 10 84 28 84 44 0
16 -55 30 -85 22 -36 -11 -111 -7 -145 7 -22 9 -23 10 -5 12 27 3 34 4 78 13
28 5 37 12 35 24 -2 13 -18 18 -73 23 -82 6 -82 10 0 14 33 2 74 11 90 19 17
9 35 16 42 16 7 0 24 16 39 35 15 21 35 35 48 35 11 0 53 16 93 36 116 57 259
72 410 44z m-3082 -40 c-3 -5 -11 -10 -16 -10 -6 0 -7 5 -4 10 3 6 11 10 16
10 6 0 7 -4 4 -10z m3577 -105 c20 -14 43 -25 50 -25 7 0 24 -9 38 -20 l25
-20 -40 0 c-48 0 -68 -11 -59 -33 9 -25 50 -47 110 -58 30 -6 76 -21 102 -35
43 -23 47 -23 56 -7 10 18 14 3 46 -190 6 -33 12 -62 14 -65 4 -7 -68 -7 -221
-1 -35 1 -63 6 -63 12 0 5 -7 15 -15 21 -8 6 -23 54 -34 106 -11 52 -29 138
-41 190 -35 157 -34 150 -19 150 8 0 31 -11 51 -25z m-3528 -118 c3 -18 13
-66 21 -107 9 -41 18 -105 21 -142 6 -65 5 -68 -17 -77 -29 -11 -36 -6 -20 13
9 10 9 20 3 33 -6 10 -15 52 -21 94 -6 41 -17 102 -26 134 -8 33 -15 75 -15
94 l0 34 24 -22 c13 -12 26 -37 30 -54z m551 11 c3 -13 4 -43 2 -68 -2 -25 0
-58 5 -75 5 -16 10 -55 12 -85 2 -30 7 -67 11 -82 7 -27 6 -28 -33 -28 -74 0
-91 18 -99 104 -2 28 -11 78 -18 111 -15 66 -11 77 23 64 22 -8 23 -13 18 -64
-6 -57 3 -75 24 -50 8 9 12 44 11 91 -1 72 8 104 30 104 5 0 11 -10 14 -22z
m-401 -4 c11 -11 16 -37 17 -87 3 -120 3 -121 22 -125 16 -3 17 5 15 95 -3 93
-2 98 17 96 64 -7 87 -17 96 -40 5 -13 22 -32 39 -41 35 -19 38 -27 48 -140 7
-70 6 -82 -7 -83 -92 -6 -304 -2 -309 6 -8 12 -10 26 -16 90 -5 54 -23 177
-31 213 -4 16 -1 22 13 22 26 0 44 -52 51 -144 5 -72 21 -108 33 -74 5 15 -6
147 -17 196 -8 35 3 42 29 16z m3503 0 c-3 -3 -12 -4 -19 -1 -8 3 -5 6 6 6 11
1 17 -2 13 -5z m-2027 -54 c-19 -13 -30 -13 -30 0 0 6 10 10 23 10 18 0 19 -2
7 -10z m-408 -130 c0 -27 1 -55 2 -62 1 -13 -23 -21 -114 -37 -103 -18 -171
-21 -235 -8 -58 12 -60 13 -63 45 -3 30 -5 32 -43 32 -59 0 -39 16 28 23 37 4
81 1 118 -8 79 -19 119 -18 157 1 17 9 42 14 57 11 33 -7 61 8 61 33 0 11 7
20 15 20 11 0 15 -13 17 -50z m498 24 c0 -2 -26 -3 -57 -3 -49 1 -53 3 -23 8
33 6 80 3 80 -5z m-290 -19 c0 -28 -15 -34 -24 -9 -10 25 -7 34 9 34 9 0 15
-9 15 -25z m113 4 c-16 -16 -57 -15 -60 2 -3 12 4 14 32 11 20 -2 33 -8 28
-13z m1922 -29 c-3 -5 -11 -10 -16 -10 -6 0 -7 5 -4 10 3 6 11 10 16 10 6 0 7
-4 4 -10z m-2741 -46 c9 -3 16 -10 16 -16 0 -5 -4 -6 -10 -3 -5 3 -10 1 -10
-4 0 -6 5 -11 10 -11 6 0 10 -8 11 -17 0 -11 3 -13 6 -5 6 17 23 15 23 -2 0
-28 170 -32 386 -10 84 9 92 -10 10 -26 -74 -14 -139 -15 -333 -4 l-142 7 -16
33 c-22 46 -19 64 9 64 13 0 31 -3 40 -6z m712 -37 c-3 -18 -5 -36 -5 -40 -1
-5 -5 -6 -9 -3 -4 2 -6 23 -4 45 2 23 8 38 13 35 5 -3 7 -19 5 -37z m2570 0
c43 -2 49 -6 52 -26 4 -22 1 -23 -33 -17 -23 5 -42 3 -51 -5 -12 -10 -17 -8
-29 7 -19 25 -21 71 -2 55 8 -6 36 -12 63 -14z m-2431 -23 c17 -1 45 -2 63 -3
17 0 32 -6 32 -11 0 -6 -31 -9 -80 -8 -52 1 -80 6 -80 13 0 17 11 25 24 17 6
-4 25 -7 41 -8z M2282 5394 c4 -21 22 -23 26 -1 2 10 -3 17 -13 17 -10 0 -15
-6 -13 -16z M2657 4954 c-2 -3 -2 -14 0 -25 6 -21 34 -22 40 -2 4 12 -31 36
-40 27z M2895 4640 c-3 -5 -4 -19 0 -30 8 -25 37 -14 33 13 -3 23 -23 33 -33
17z M1112 6098 c-15 -15 12 -48 40 -48 25 0 20 28 -8 46 -15 11 -23 11 -32 2z
M1050 6025 c-18 -22 -2 -35 44 -35 23 0 47 -5 53 -11 13 -13 43 -5 43 10 0 29
-121 59 -140 36z M2620 5929 c0 -6 14 -16 30 -22 36 -13 39 -24 8 -29 -18 -2
-23 -10 -24 -39 -2 -32 0 -38 23 -42 36 -7 70 27 51 51 -11 14 -10 14 12 -1
53 -37 71 -1 23 45 -42 40 -123 65 -123 37z M2841 5817 c-6 -6 -11 -17 -11
-25 0 -7 -9 -30 -20 -50 -10 -20 -21 -45 -24 -55 -8 -26 -37 -33 -51 -14 -12
17 -36 22 -48 10 -8 -8 22 -43 36 -43 6 0 19 -8 29 -17 19 -17 20 -16 39 7 11
14 29 45 40 70 12 27 23 40 27 33 4 -7 19 -16 34 -22 34 -13 58 10 40 39 -9
15 -7 23 8 43 11 14 20 27 20 29 0 9 -110 4 -119 -5z m59 -57 c0 -22 -8 -25
-30 -10 -13 9 -13 11 0 20 22 15 30 12 30 -10z M2962 5797 c-7 -8 -6 -15 2
-22 21 -17 36 -16 36 4 0 23 -25 34 -38 18z M2590 5622 c-5 -2 -10 -12 -10
-23 0 -14 17 -28 64 -49 74 -35 92 -37 104 -12 30 55 -74 111 -158 84z M1497
5109 c7 -7 15 -10 18 -7 3 3 -2 9 -12 12 -14 6 -15 5 -6 -5z M2070 5290 c0 -5
5 -10 10 -10 6 0 10 5 10 10 0 6 -4 10 -10 10 -5 0 -10 -4 -10 -10z M1726
5031 c-27 -29 -48 -59 -62 -91 -3 -8 -10 -24 -14 -35 -5 -11 -12 -51 -15 -90
-4 -38 -12 -79 -18 -90 -6 -11 -18 -47 -28 -80 -9 -33 -21 -59 -27 -58 -6 2
-7 -8 -3 -25 4 -14 3 -51 -1 -81 -10 -62 -5 -84 18 -79 20 4 65 110 69 163 2
22 4 40 5 40 2 0 5 17 13 60 15 88 69 255 96 298 11 18 21 45 23 62 4 41 -20
43 -56 6z M2330 4690 c-8 -5 -12 -12 -9 -15 4 -3 12 1 19 10 14 17 11 19 -10
5z M2405 4570 c-3 -5 -1 -10 4 -10 6 0 11 5 11 10 0 6 -2 10 -4 10 -3 0 -8 -4
-11 -10z M2636 4498 c-8 -13 -19 -55 -25 -93 -13 -93 -26 -145 -53 -200 -18
-37 -20 -49 -10 -65 7 -12 8 -21 2 -25 -6 -3 -10 -15 -10 -27 0 -17 -3 -18
-14 -9 -25 21 -49 -6 -111 -125 -53 -102 -113 -184 -134 -184 -5 0 -14 7 -22
16 -8 10 -21 13 -38 9 -40 -10 -53 -25 -46 -54 5 -23 1 -28 -32 -39 -21 -7
-47 -14 -58 -14 -11 0 -14 -2 -7 -5 9 -4 10 -9 2 -18 -7 -9 -6 -16 5 -25 13
-11 22 -10 51 3 19 10 45 17 57 17 24 0 67 33 67 50 0 6 5 10 10 10 42 0 139
105 195 209 16 29 31 48 33 43 5 -16 -36 -91 -75 -139 -19 -24 -31 -47 -28
-53 12 -20 48 -9 81 24 18 18 36 31 40 27 3 -3 4 1 3 9 -2 8 6 29 18 46 25 35
63 126 68 164 2 14 7 40 11 58 6 28 4 32 -14 32 -21 0 -21 0 3 64 24 63 66
237 69 285 2 33 -19 38 -38 9z M1875 4290 c3 -5 8 -10 11 -10 2 0 4 5 4 10 0
6 -5 10 -11 10 -5 0 -7 -4 -4 -10z M2323 4157 c-13 -5 -25 -19 -29 -29 -9 -30
-55 -93 -65 -91 -4 2 -6 -3 -3 -10 3 -8 -22 -40 -56 -72 -44 -44 -79 -67 -134
-90 -40 -17 -80 -36 -89 -43 -19 -16 -12 -39 11 -44 23 -5 156 45 201 75 53
36 158 142 153 155 -2 7 1 12 7 12 6 0 11 7 11 16 0 8 4 13 9 10 5 -3 12 1 15
10 3 8 2 12 -4 9 -5 -3 -3 7 5 22 28 53 11 90 -32 70z M2615 4030 c-3 -5 -1
-10 4 -10 6 0 11 5 11 10 0 6 -2 10 -4 10 -3 0 -8 -4 -11 -10z M1275 3710 c3
-5 11 -10 16 -10 6 0 7 5 4 10 -3 6 -11 10 -16 10 -6 0 -7 -4 -4 -10z M1335
3679 c-4 -6 -5 -12 -2 -15 2 -3 7 2 10 11 7 17 1 20 -8 4z M1455 3600 c3 -5 8
-10 11 -10 2 0 4 5 4 10 0 6 -5 10 -11 10 -5 0 -7 -4 -4 -10z M1169 3573 c-13
-16 -12 -17 4 -4 9 7 17 15 17 17 0 8 -8 3 -21 -13z M1420 3490 c0 -5 5 -10
10 -10 6 0 10 5 10 10 0 6 -4 10 -10 10 -5 0 -10 -4 -10 -10z M1139 3463 c-13
-16 -12 -17 3 -5 13 10 17 10 21 0 2 -7 7 -10 11 -7 4 3 0 11 -7 18 -11 9 -17
7 -28 -6z M2236 3464 c-5 -14 -4 -15 9 -4 17 14 19 20 6 20 -5 0 -12 -7 -15
-16z M2056 3338 c-39 -36 -44 -49 -22 -67 20 -17 45 -3 66 39 16 32 17 40 6
50 -11 9 -22 4 -50 -22z M2165 2990 c-3 -5 -1 -10 4 -10 6 0 11 5 11 10 0 6
-2 10 -4 10 -3 0 -8 -4 -11 -10z M3222 4799 c2 -6 8 -10 13 -10 5 0 11 4 13
10 2 6 -4 11 -13 11 -9 0 -15 -5 -13 -11z M3115 4782 c-22 -16 -56 -74 -51
-88 8 -22 44 -17 57 9 7 12 15 24 20 27 4 3 11 18 14 33 6 22 4 27 -11 27 -11
0 -23 -4 -29 -8z M3840 3020 c0 -5 5 -10 10 -10 6 0 10 5 10 10 0 6 -4 10 -10
10 -5 0 -10 -4 -10 -10z M3210 2930 c0 -5 5 -10 10 -10 6 0 10 5 10 10 0 6 -4
10 -10 10 -5 0 -10 -4 -10 -10z M3360 2130 c0 -5 -5 -10 -11 -10 -11 0 -39
-25 -39 -35 0 -3 9 -3 20 0 14 5 20 2 20 -10 0 -9 6 -15 13 -12 6 2 11 14 10
25 -2 13 2 20 10 18 6 -1 9 -1 5 1 -5 3 -8 11 -8 19 0 8 -4 14 -10 14 -5 0
-10 -4 -10 -10z M3297 4173 c-13 -12 -7 -63 6 -63 21 0 50 37 44 55 -6 15 -38
21 -50 8z M815 2959 c-10 -14 24 -49 41 -42 20 7 17 31 -5 43 -25 13 -28 13
-36 -1z M870 2414 c-23 -20 -29 -31 -24 -48 4 -11 11 -23 16 -24 5 -2 3 -11
-3 -19 -10 -11 -8 -18 8 -35 25 -25 53 -18 53 13 0 12 3 19 7 16 11 -12 33 15
33 42 0 21 -40 81 -55 81 -2 0 -17 -12 -35 -26z m22 -71 c-3 -16 -7 -22 -10
-15 -4 13 4 42 11 42 2 0 2 -12 -1 -27z M913 2219 c-12 -12 0 -61 19 -86 6 -7
11 -54 13 -105 2 -51 6 -106 9 -123 3 -16 8 -59 10 -95 6 -98 17 -161 37 -207
20 -47 33 -53 49 -24 16 30 12 61 -10 79 -21 18 -26 48 -35 187 -3 50 -10 113
-16 141 -5 28 -9 55 -8 60 4 12 -12 97 -20 109 -3 6 -6 17 -7 25 -3 44 -5 50
-17 50 -7 0 -18 -5 -24 -11z M3562 2167 c-26 -27 -28 -69 -6 -92 14 -14 19
-14 38 -2 33 22 43 61 22 91 -20 32 -27 32 -54 3z m38 -32 c0 -8 -7 -15 -15
-15 -8 0 -15 7 -15 15 0 8 7 15 15 15 8 0 15 -7 15 -15z M1648 2823 c7 -3 16
-2 19 1 4 3 -2 6 -13 5 -11 0 -14 -3 -6 -6z M1875 2720 c-3 -5 -1 -10 4 -10 6
0 11 5 11 10 0 6 -2 10 -4 10 -3 0 -8 -4 -11 -10z M2373 1852 c-28 -4 -30 -28
-3 -37 23 -7 40 1 40 20 0 18 -9 22 -37 17z M2359 1784 c-10 -13 -10 -17 2
-25 30 -19 54 -5 43 25 -8 20 -28 20 -45 0z M2384 1705 c-4 -9 -3 -19 0 -23 9
-8 42 12 39 24 -4 16 -33 16 -39 -1z M2395 1639 c-4 -6 -4 -13 -1 -16 8 -8 36
5 36 17 0 13 -27 13 -35 -1z M2651 307 c-8 -10 -6 -19 10 -35 25 -28 35 -28
50 0 10 18 8 24 -7 35 -23 17 -39 17 -53 0z M2664 195 c-8 -19 3 -35 25 -35
27 0 33 12 14 32 -20 22 -32 23 -39 3z M4573 442 c-23 -3 -38 -28 -23 -37 15
-9 60 6 60 20 0 18 -10 22 -37 17z M1917 743 c-9 -17 -8 -123 1 -123 14 0 22
26 22 75 0 40 -13 66 -23 48z M2367 760 c-3 -11 -1 -20 4 -20 5 0 9 9 9 20 0
11 -2 20 -4 20 -2 0 -6 -9 -9 -20z M2361 714 c0 -11 3 -14 6 -6 3 7 2 16 -1
19 -3 4 -6 -2 -5 -13z M2356 661 c-4 -7 -5 -15 -2 -18 9 -9 19 4 14 18 -4 11
-6 11 -12 0z M3867 890 c-15 -22 -13 -50 4 -50 5 0 6 -14 2 -31 -6 -30 21
-141 40 -167 8 -11 13 -11 24 1 11 11 11 20 -3 58 -9 24 -20 77 -24 117 -9 85
-20 104 -43 72z M4310 269 c0 -5 5 -7 10 -4 6 3 10 8 10 11 0 2 -4 4 -10 4 -5
0 -10 -5 -10 -11z M65 7770 c3 -5 8 -10 11 -10 2 0 4 5 4 10 0 6 -5 10 -11 10
-5 0 -7 -4 -4 -10z M3870 5440 c0 -5 5 -10 10 -10 6 0 10 5 10 10 0 6 -4 10
-10 10 -5 0 -10 -4 -10 -10z M1110 5080 c0 -5 5 -10 11 -10 5 0 7 5 4 10 -3 6
-8 10 -11 10 -2 0 -4 -4 -4 -10z M440 4724 c-14 -16 -18 -124 -5 -159 4 -12
-7 -4 -25 17 -52 62 -130 62 -130 0 0 -35 36 -88 70 -104 43 -19 38 -38 -9
-38 -22 0 -44 -6 -51 -15 -7 -8 -20 -15 -29 -15 -20 0 -56 -36 -64 -65 -6 -20
-10 -66 -22 -240 -4 -49 -12 -115 -19 -145 -11 -46 -14 -51 -20 -32 -9 27 -44
66 -68 75 -17 6 -18 -6 -17 -153 0 -88 2 -160 5 -160 23 0 44 25 44 52 0 17 3
28 7 24 13 -12 -2 -147 -37 -346 -13 -73 -19 -150 -19 -255 l1 -150 18 145 c9
80 23 173 29 208 7 35 14 78 16 95 2 18 7 48 10 67 3 19 7 55 10 80 5 49 15
113 22 145 2 11 11 54 19 95 8 41 19 89 24 105 5 17 12 50 15 75 3 25 8 56 10
70 3 14 7 68 10 120 5 102 24 148 61 142 11 -1 43 -4 72 -5 l54 -1 -7 -31 c-3
-16 -7 -43 -8 -60 -2 -26 -6 -30 -34 -33 -18 -2 -42 2 -54 8 -17 10 -24 9 -37
-4 -14 -14 -14 -17 3 -36 10 -11 28 -20 41 -20 13 0 26 -5 30 -11 4 -7 -3 -10
-17 -8 -43 4 -56 -9 -57 -56 0 -26 5 -48 12 -53 7 -4 18 -17 25 -30 10 -20 9
-23 -13 -32 -18 -7 -23 -14 -19 -30 3 -11 0 -27 -7 -34 -8 -10 -8 -20 -1 -33
6 -12 6 -25 1 -34 -5 -7 -7 -21 -5 -30 3 -9 -1 -22 -10 -29 -11 -9 -12 -16 -4
-26 14 -17 4 -33 -19 -27 -10 2 -27 -6 -39 -19 -19 -20 -20 -25 -8 -42 13 -17
15 -17 40 8 24 24 45 34 45 20 0 -3 -12 -21 -27 -41 l-27 -35 27 -22 c34 -27
35 -46 3 -46 -15 0 -27 7 -31 19 -10 33 -38 35 -64 5 l-23 -28 33 -28 c19 -15
40 -26 47 -23 7 3 12 -4 12 -15 0 -23 -4 -24 -30 -10 -10 5 -26 7 -34 4 -23
-9 -20 -35 4 -41 11 -3 20 -7 20 -8 0 -2 -9 -47 -20 -100 -11 -54 -18 -100
-15 -103 2 -2 0 -13 -5 -22 -5 -10 -14 -71 -20 -136 -18 -205 -29 -240 -40
-131 -4 37 -9 52 -20 52 -13 0 -15 -46 -16 -345 -1 -190 0 -337 3 -327 2 9 13
17 24 17 15 0 19 -7 18 -37 0 -33 -2 -35 -9 -16 -11 27 -40 21 -40 -8 0 -13 7
-19 24 -19 19 0 22 -4 19 -24 -3 -13 -14 -26 -24 -29 -18 -5 -19 -17 -18 -239
1 -128 3 -222 5 -208 2 14 11 70 19 125 9 55 21 132 27 170 6 39 16 95 24 125
14 60 35 228 34 275 0 17 6 80 14 140 9 61 27 202 41 315 15 113 31 229 36
258 10 49 12 52 40 52 16 0 38 9 49 20 20 20 20 20 35 -4 20 -30 39 -38 71
-30 31 8 38 38 20 89 -14 39 -14 40 14 57 34 20 49 76 31 114 -19 42 -71 22
-103 -40 l-15 -29 -6 32 c-6 28 -10 32 -34 29 -17 -2 -33 -13 -41 -28 -12 -23
-13 -21 -6 20 3 25 8 54 10 65 3 11 11 61 19 110 23 145 32 193 59 318 14 65
27 139 28 165 1 31 7 51 18 59 10 7 28 40 40 74 21 55 22 66 11 108 -6 25 -22
54 -34 63 -18 14 -20 21 -12 44 11 30 35 44 35 20 0 -9 17 -24 38 -34 20 -10
47 -25 59 -32 12 -8 25 -12 28 -9 9 10 -33 123 -51 136 -12 9 -15 16 -8 23 7
7 8 28 3 58 -4 26 -8 52 -8 58 -2 20 -42 54 -65 54 -13 0 -29 -7 -36 -16z m47
-96 c-2 -13 -4 -5 -4 17 -1 22 1 32 4 23 2 -10 2 -28 0 -40z m-131 -57 c-3 -5
4 -11 15 -14 12 -3 19 -12 17 -19 -6 -17 -44 -17 -40 0 1 8 -2 11 -7 8 -12 -8
-24 11 -16 24 3 6 13 10 21 10 8 0 13 -4 10 -9z m184 -70 c0 -5 -9 -7 -20 -4
-11 3 -20 7 -20 9 0 2 9 4 20 4 11 0 20 -4 20 -9z m-454 -576 c11 -27 -2 -37
-14 -11 -7 16 -8 26 -1 26 5 0 12 -7 15 -15z m384 -503 c0 -11 -22 -32 -32
-32 -5 0 -4 9 2 20 11 20 30 28 30 12z m-156 -109 c-4 -13 -14 -23 -23 -23
-15 0 -16 6 -7 60 l10 60 12 -38 c7 -20 11 -47 8 -59z m43 65 c-3 -7 -5 -2 -5
12 0 14 2 19 5 13 2 -7 2 -19 0 -25z m-144 -90 c-10 -53 -23 -79 -17 -33 7 48
12 65 18 65 3 0 3 -15 -1 -32z m221 13 c21 -23 6 -37 -24 -21 -21 11 -25 22
-13 33 10 11 19 8 37 -12z m-240 -157 c4 -9 4 -19 2 -21 -8 -8 -26 8 -26 23 0
19 16 18 24 -2z m-4 -89 c0 -14 -4 -25 -10 -25 -5 0 -10 11 -10 25 0 14 5 25
10 25 6 0 10 -11 10 -25z m-90 -635 c0 -11 -7 -20 -15 -20 -8 0 -15 9 -15 20
0 11 7 20 15 20 8 0 15 -9 15 -20z M500 3819 c0 -5 5 -7 10 -4 6 3 10 8 10 11
0 2 -4 4 -10 4 -5 0 -10 -5 -10 -11z M4882 1034 c-36 -15 -40 -39 -10 -57 23
-15 68 6 68 32 0 32 -21 41 -58 25z M4640 800 c0 -15 7 -20 29 -20 17 0 47
-14 75 -36 63 -48 107 -60 148 -40 17 9 37 16 45 16 7 0 13 9 13 19 0 16 -5
18 -35 11 -20 -4 -42 -13 -49 -19 -15 -12 -61 2 -81 26 -23 27 -90 63 -116 63
-22 0 -29 -5 -29 -20z M4922 688 c6 -18 28 -21 28 -4 0 9 -7 16 -16 16 -9 0
-14 -5 -12 -12z M4810 615 c-1 -29 -17 -36 -46 -20 -40 21 -86 20 -82 -1 3
-19 21 -30 61 -39 15 -3 36 -14 47 -25 11 -11 26 -20 34 -20 18 0 39 27 31 40
-10 17 11 11 38 -10 29 -23 57 -26 57 -6 0 17 -70 66 -96 66 -11 0 -25 5 -32
12 -7 7 -12 8 -12 3z M4670 521 c0 -14 41 -41 61 -41 22 0 148 -90 187 -134
l32 -37 0 40 c0 22 -5 41 -10 43 -7 2 -6 14 2 34 16 43 6 62 -37 70 -59 11
-66 -11 -11 -36 25 -12 46 -24 46 -26 0 -8 -38 3 -61 17 -90 60 -209 99 -209
70z M4724 289 c-9 -15 3 -23 54 -39 32 -10 52 -26 78 -62 20 -26 49 -57 65
-69 l29 -20 0 26 c0 16 -13 42 -30 62 -16 18 -30 38 -30 43 0 12 -50 38 -109
56 -25 7 -47 14 -48 14 -1 0 -5 -5 -9 -11z M162 218 c-26 -26 -2 -75 30 -63
11 5 14 15 9 37 -7 35 -21 44 -39 26z"/>
</g>
</svg>
