<?xml version="1.0" standalone="no"?>
<!DOCTYPE svg PUBLIC "-//W3C//DTD SVG 20010904//EN"
 "http://www.w3.org/TR/2001/REC-SVG-20010904/DTD/svg10.dtd">
<svg version="1.0" xmlns="http://www.w3.org/2000/svg"
 width="500.000000pt" height="878.000000pt" viewBox="0 0 500.000000 878.000000"
 preserveAspectRatio="xMidYMid meet">
<metadata>
Created by potrace 1.16, written by Peter Selinger 2001-2019
</metadata>
<g transform="translate(0.000000,878.000000) scale(0.100000,-0.100000)"
fill="#000000" stroke="none">
<path d="M2125 8719 c-11 -16 3 -24 43 -24 37 0 37 -1 84 -95 60 -120 59 -133
-7 -140 -46 -5 -48 -6 -28 -17 23 -14 376 -9 443 6 20 4 46 4 58 0 24 -9 146
-4 163 7 16 9 -10 24 -43 24 -15 0 -29 3 -31 8 -3 4 -7 54 -9 111 l-3 105 50
12 c42 10 -14 12 -332 13 -261 1 -384 -2 -388 -10z m501 -17 c6 -4 10 -51 11
-114 0 -99 -1 -108 -18 -108 -11 0 -19 1 -19 3 -12 208 -12 227 1 227 8 0 19
-4 25 -8z m110 -90 c1 -51 -3 -95 -8 -98 -6 -4 -5 -10 3 -15 11 -6 10 -9 -4
-15 -10 -3 -19 -5 -21 -3 -4 4 -10 203 -7 222 0 5 9 7 19 5 15 -3 17 -16 18
-96z m-331 46 c-15 -49 -52 -138 -58 -138 -2 0 -16 33 -32 73 -15 39 -32 76
-36 82 -19 20 -6 25 65 25 l74 0 -13 -42z m121 10 c0 -18 3 -69 8 -113 l8 -80
-77 -2 c-57 -2 -75 1 -72 10 42 96 77 190 77 202 0 10 10 15 28 15 26 0 28 -3
28 -32z M2600 8110 c0 -5 5 -10 10 -10 6 0 10 5 10 10 0 6 -4 10 -10 10 -5 0
-10 -4 -10 -10z M52 8062 c2 -11 20 -21 48 -28 54 -14 140 -53 140 -64 0 -5
20 -16 44 -25 35 -13 43 -21 39 -36 -6 -22 16 -26 36 -6 10 10 16 7 31 -13 16
-20 22 -22 29 -11 5 8 18 12 32 8 40 -10 251 -84 294 -102 22 -10 87 -35 145
-55 58 -20 113 -40 122 -44 26 -12 23 16 -3 33 -12 7 -42 19 -68 26 -25 7 -84
27 -131 45 -47 18 -123 45 -170 61 -47 16 -93 34 -103 39 -9 6 -39 13 -65 17
-26 3 -51 9 -57 13 -5 4 -27 10 -47 14 -21 4 -38 10 -38 14 0 12 -129 85 -175
100 -88 29 -106 31 -103 14z M52 7910 c0 -14 2 -19 5 -12 2 6 2 18 0 25 -3 6
-5 1 -5 -13z M89 7913 c-1 -5 -1 -11 0 -15 0 -5 -8 -17 -19 -28 -26 -26 -26
-71 0 -88 12 -7 25 -10 31 -6 6 3 33 -3 62 -14 163 -62 216 -82 251 -91 21 -5
47 -17 57 -26 10 -10 32 -18 50 -19 18 -1 35 -8 37 -14 2 -7 12 -12 22 -12 21
0 67 -18 90 -35 8 -6 33 -17 56 -23 22 -7 94 -38 160 -71 65 -32 135 -62 154
-66 64 -13 154 -43 220 -73 36 -16 128 -53 205 -82 77 -29 145 -55 150 -58 6
-4 30 -14 55 -23 110 -39 197 -72 225 -84 29 -13 306 -122 435 -172 83 -31
193 -76 295 -119 44 -19 88 -34 98 -34 10 0 20 -8 24 -17 3 -10 19 -34 35 -54
15 -20 28 -42 28 -48 0 -29 61 -46 183 -51 17 0 5 -19 -15 -22 -30 -4 -32 -20
-8 -51 18 -22 30 -27 66 -27 31 0 44 -4 44 -14 0 -26 50 -104 70 -109 31 -8
49 18 46 66 -3 52 -19 92 -40 100 -23 9 -21 41 2 34 27 -8 253 -97 297 -117
22 -10 72 -30 110 -45 39 -14 88 -33 110 -42 22 -8 65 -26 95 -39 361 -156
595 -248 660 -261 16 -3 38 4 63 21 49 34 58 33 84 -8 51 -79 142 -117 182
-77 11 11 21 27 21 34 0 11 -90 88 -132 113 -17 10 -13 12 28 19 38 5 49 4 56
-9 5 -9 31 -27 58 -41 39 -20 58 -24 90 -19 36 6 40 9 40 36 0 16 -4 27 -9 24
-5 -3 -11 3 -14 13 -3 12 -20 24 -46 32 -23 7 -40 17 -37 23 2 6 7 18 11 27 9
23 -31 59 -65 59 -33 0 -70 -26 -70 -50 0 -20 -47 -63 -64 -57 -5 2 -13 16
-17 31 -14 52 -59 84 -139 99 -37 7 -105 34 -355 137 -187 78 -271 110 -314
120 -18 5 -70 24 -115 43 -44 19 -106 45 -136 57 -30 11 -64 25 -75 30 -11 4
-58 22 -105 40 -47 18 -110 41 -140 53 -30 11 -82 34 -115 50 -33 16 -87 40
-120 52 -146 56 -353 134 -380 146 -16 7 -34 13 -40 14 -5 0 -23 6 -38 13 -16
7 -31 12 -34 12 -4 0 -38 14 -77 31 -39 17 -80 35 -91 39 -11 4 -42 18 -68 29
-26 12 -94 40 -150 62 -56 23 -124 51 -152 64 -27 12 -97 38 -155 58 -58 19
-132 49 -165 66 l-59 30 28 11 c25 9 32 8 48 -10 44 -47 111 -1 74 51 -9 13
-16 34 -16 47 0 38 -29 72 -61 72 -16 0 -32 -7 -37 -17 -9 -15 -12 -14 -33 11
-44 50 -155 46 -141 -6 9 -35 39 -62 70 -63 22 0 28 -5 30 -27 3 -24 0 -28
-23 -28 -14 0 -51 9 -83 21 -31 11 -88 31 -126 45 -67 23 -183 71 -238 99 -18
9 -30 10 -34 4 -8 -14 17 -31 95 -64 36 -15 82 -36 103 -46 20 -10 83 -36 140
-59 117 -47 226 -96 248 -110 39 -26 172 -80 197 -80 7 0 54 -18 105 -39 51
-22 153 -63 227 -91 73 -28 162 -64 196 -81 34 -16 86 -38 116 -48 30 -11 110
-39 179 -63 210 -74 402 -148 464 -180 65 -32 189 -81 341 -134 55 -19 114
-42 130 -49 33 -16 107 -48 115 -49 9 -2 111 -43 170 -69 74 -32 116 -49 130
-52 17 -4 77 -28 135 -54 22 -10 67 -30 100 -44 138 -59 161 -70 182 -89 15
-14 29 -18 50 -14 31 7 85 -5 90 -20 1 -5 -7 -22 -20 -37 -20 -25 -25 -27 -50
-18 -35 14 -46 -6 -22 -43 16 -24 15 -25 -9 -41 -29 -19 -49 -12 -41 16 7 20
-18 28 -30 9 -3 -5 -16 -10 -28 -9 -12 0 -16 3 -10 6 20 8 16 35 -4 31 -10 -2
-17 -10 -16 -16 7 -31 -96 4 -108 36 -7 18 -13 22 -20 15 -15 -15 -51 -4 -45
14 7 17 -23 30 -33 14 -13 -21 -41 -1 -41 30 0 35 -13 37 -34 7 -16 -23 -18
-21 -20 21 -1 33 -24 38 -32 7 -7 -29 -8 -30 -34 -16 -16 9 -17 15 -8 41 6 16
8 33 5 36 -12 11 -37 -7 -37 -27 0 -11 -6 -20 -14 -20 -22 0 -28 17 -15 38 13
20 6 52 -10 52 -5 0 -15 -16 -22 -35 -14 -39 -21 -42 -39 -20 -10 12 -9 20 4
40 21 32 20 45 -3 45 -12 0 -25 -12 -33 -30 -13 -30 -31 -39 -43 -20 -3 5 1
21 10 34 9 14 14 30 10 36 -12 19 -34 10 -50 -20 -9 -16 -20 -30 -25 -30 -17
0 -19 17 -5 36 20 27 19 54 -3 54 -10 0 -23 -5 -29 -11 -8 -8 -11 -6 -10 7 3
25 -33 31 -47 8 -6 -11 -11 -23 -11 -28 0 -5 -6 -11 -14 -14 -10 -3 -12 4 -6
36 4 25 2 42 -5 47 -15 9 -40 -13 -40 -36 0 -11 -7 -19 -16 -19 -14 0 -15 7
-10 39 9 56 -22 67 -38 14 -4 -13 -14 -23 -22 -23 -17 0 -19 31 -2 48 10 9 9
16 -4 29 -16 15 -18 14 -35 -15 -23 -41 -39 -35 -35 12 4 44 -17 49 -47 10
-22 -28 -28 -17 -10 18 8 16 8 22 -2 28 -16 10 -39 2 -39 -15 0 -19 -24 -35
-39 -26 -10 7 -10 14 3 38 8 17 12 33 9 37 -14 13 -34 5 -45 -19 -14 -31 -54
-36 -44 -5 3 11 9 29 12 40 5 15 2 20 -14 20 -13 0 -22 -9 -26 -25 -4 -14 -13
-25 -21 -25 -21 0 -35 32 -23 54 14 25 -5 44 -27 26 -8 -7 -15 -18 -15 -26 0
-18 -17 -26 -40 -19 -24 8 -25 22 -3 47 13 15 14 21 4 31 -10 9 -18 5 -40 -21
-19 -22 -33 -31 -44 -26 -20 7 -20 9 -6 36 8 15 8 23 0 31 -9 9 -18 4 -36 -18
-25 -32 -35 -24 -32 24 3 33 -20 38 -34 7 -16 -35 -28 -33 -27 4 1 42 16 50
68 35 53 -15 168 -54 191 -66 9 -4 34 -11 55 -14 55 -9 85 -21 202 -77 120
-58 173 -62 67 -5 -79 43 -210 97 -240 101 -27 2 -126 33 -202 62 -34 13 -65
24 -70 24 -14 0 -169 65 -194 82 -57 37 -106 56 -119 48 -11 -7 11 -21 77 -51
l92 -42 -24 -19 c-14 -11 -25 -26 -25 -34 0 -8 -7 -14 -16 -14 -12 0 -15 6
-10 20 3 11 9 29 12 40 9 30 -30 26 -50 -5 -25 -38 -37 -31 -30 16 6 36 5 41
-12 37 -10 -2 -24 -13 -30 -26 -21 -42 -26 -37 -19 16 6 49 5 54 -11 50 -16
-3 -34 -26 -47 -63 -3 -5 -7 -7 -11 -4 -3 3 1 22 9 43 14 33 14 37 0 42 -20 8
-41 -10 -49 -41 -7 -27 -13 -30 -36 -15 -12 7 -12 14 -2 43 16 44 15 47 -7 47
-12 0 -25 -12 -33 -30 -13 -30 -46 -38 -40 -10 15 66 15 70 -6 70 -13 0 -24
-10 -31 -30 -5 -16 -14 -30 -20 -30 -19 0 -22 20 -6 43 8 13 12 27 8 30 -14
15 -40 6 -53 -18 -19 -35 -44 -34 -35 3 13 47 11 57 -12 60 -17 2 -23 -3 -28
-27 -5 -22 -12 -31 -26 -31 -27 0 -34 26 -15 55 19 28 14 45 -13 45 -10 0 -24
-15 -34 -36 -22 -44 -41 -35 -32 16 5 29 3 39 -10 43 -11 5 -19 -1 -25 -19 -6
-14 -10 -30 -10 -35 0 -14 -28 -11 -33 4 -2 6 0 20 5 30 5 9 6 22 3 27 -11 18
-35 10 -47 -15 -18 -40 -40 -32 -32 11 6 33 5 36 -17 32 -16 -2 -25 -11 -27
-26 -2 -13 -9 -21 -15 -19 -17 5 -21 55 -7 72 13 16 7 45 -9 45 -6 0 -20 -18
-31 -40 -20 -39 -42 -51 -55 -30 -4 6 3 26 14 44 20 32 20 34 4 41 -12 4 -22
0 -28 -11 -21 -35 -44 -59 -50 -52 -4 4 0 17 9 30 21 30 20 43 -4 45 -13 1
-25 -7 -32 -23 -6 -13 -15 -24 -20 -24 -13 0 -9 16 7 30 19 16 19 29 -1 37
-10 4 -24 -4 -39 -23 -29 -36 -41 -27 -24 20 7 20 10 39 5 43 -11 11 -39 -10
-54 -40 -25 -52 -49 -27 -27 27 14 33 14 37 0 42 -21 8 -42 -12 -50 -47 -4
-17 -12 -28 -18 -26 -12 4 -14 40 -6 87 3 21 0 24 -16 22 -24 -5 -35 -19 -35
-49 0 -16 -6 -23 -20 -23 -19 0 -20 4 -14 50 5 34 3 50 -5 50 -6 0 -14 1 -18
1 -5 1 -13 -16 -19 -37 -12 -43 -22 -50 -48 -31 -18 13 -18 15 -1 61 13 33 15
50 8 57 -14 14 -53 -23 -53 -48 -1 -28 -24 -53 -40 -43 -12 7 -12 14 3 45 22
46 21 55 -4 55 -14 0 -25 -12 -37 -40 -9 -22 -21 -40 -25 -40 -17 0 -19 34 -4
65 17 35 14 45 -14 45 -10 0 -23 -15 -33 -39 -12 -32 -19 -38 -37 -34 -21 6
-22 15 -3 79 4 15 0 23 -11 28 -23 9 -31 1 -39 -34 -6 -33 -31 -49 -49 -31 -8
8 -7 18 6 40 23 39 22 43 -10 39 -19 -2 -29 -10 -33 -28 -5 -19 -12 -24 -30
-22 -37 4 -50 20 -39 48 13 36 11 51 -7 58 -11 4 -19 -4 -30 -29 -15 -37 -30
-43 -57 -22 -15 10 -16 16 -5 44 7 18 9 35 6 39 -13 12 -46 -7 -52 -31 -7 -27
-13 -30 -35 -16 -12 8 -12 14 -1 41 11 27 11 33 -1 40 -15 10 -45 -12 -54 -41
-5 -15 -10 -16 -35 -7 -35 12 -34 9 -15 54 17 40 13 54 -15 54 -11 0 -23 -13
-33 -39 -14 -33 -19 -38 -41 -34 -30 6 -31 13 -11 68 15 41 8 62 -17 52 -8 -3
-20 -23 -28 -46 -13 -42 -27 -50 -47 -30 -9 9 -7 22 8 52 14 26 17 43 10 50
-16 16 -41 0 -57 -38 -8 -19 -18 -35 -24 -35 -20 0 -20 22 1 56 18 29 19 38 8
44 -19 13 -49 -7 -61 -41 -5 -16 -14 -26 -19 -23 -5 3 -5 13 1 24 15 28 12 60
-5 60 -8 0 -16 -3 -16 -7z m1480 -303 c15 -25 15 -25 -5 -7 -11 9 -31 17 -43
17 -13 0 -19 4 -16 11 11 17 47 6 64 -21z m109 -28 c2 -7 -3 -12 -12 -12 -9 0
-16 7 -16 16 0 17 22 14 28 -4z m1066 -701 c9 -13 -17 -71 -32 -71 -21 0 -25
27 -7 54 18 27 30 32 39 17z m107 -176 c30 -14 61 -29 69 -34 8 -5 36 -18 62
-28 27 -10 48 -24 48 -30 0 -15 -16 -17 -25 -3 -3 6 -30 10 -58 11 -71 1 -101
11 -105 34 -2 11 -9 25 -15 30 -17 14 -40 45 -34 45 2 0 29 -11 58 -25z m184
-175 c3 -5 2 -10 -4 -10 -5 0 -13 5 -16 10 -3 6 -2 10 4 10 5 0 13 -4 16 -10z
m113 -76 c2 -42 -10 -31 -22 19 -5 21 -3 28 6 25 7 -3 14 -22 16 -44z m1618
-199 c-21 -16 -32 -13 -21 4 3 6 14 11 23 11 15 -1 15 -2 -2 -15z m-191 -45
c3 -5 1 -10 -4 -10 -6 0 -11 5 -11 10 0 6 2 10 4 10 3 0 8 -4 11 -10z m189
-19 c4 -5 24 -12 45 -16 22 -3 47 -13 58 -20 32 -24 -10 -29 -54 -6 -48 25
-82 50 -66 51 6 0 14 -4 17 -9z m-176 -20 c10 -6 6 -10 -15 -14 -33 -6 -44 0
-23 13 18 12 22 12 38 1z m62 -66 c0 -19 -30 -19 -56 0 -18 13 -17 14 19 15
26 0 37 -4 37 -15z m75 -64 c3 -5 1 -12 -4 -16 -13 -8 -61 5 -61 16 0 12 57
12 65 0z M50 7376 c0 -14 4 -26 10 -26 13 0 191 -80 208 -93 7 -5 47 -22 90
-38 42 -15 117 -48 167 -73 49 -25 96 -46 105 -46 9 0 20 -4 26 -9 5 -5 35
-16 66 -25 31 -9 60 -21 63 -26 3 -6 13 -10 21 -10 8 0 47 -15 87 -33 40 -19
86 -40 103 -47 22 -9 30 -19 27 -31 -7 -25 14 -59 32 -53 9 4 15 0 15 -9 0
-23 28 -29 39 -9 11 21 4 36 -21 45 -29 11 -21 28 10 21 15 -4 32 -10 37 -14
6 -4 73 -30 150 -59 77 -29 201 -77 275 -108 74 -31 167 -69 205 -85 39 -15
79 -33 89 -39 18 -10 138 -57 296 -116 36 -13 74 -28 85 -33 11 -5 52 -21 90
-35 39 -14 79 -29 90 -34 11 -5 43 -15 70 -21 28 -6 64 -18 80 -25 17 -8 59
-26 95 -40 36 -15 70 -31 75 -35 6 -4 28 -13 50 -20 22 -7 58 -21 80 -31 82
-37 163 -68 265 -103 165 -56 302 -105 337 -121 17 -8 36 -15 42 -15 6 0 19
-4 29 -10 29 -16 163 -70 175 -70 6 0 42 -14 81 -31 39 -18 86 -38 104 -46 39
-17 150 -59 207 -78 22 -7 72 -25 110 -40 39 -15 108 -39 155 -55 123 -40 198
-74 236 -104 34 -27 47 -63 19 -53 -8 4 -17 2 -21 -4 -3 -6 -11 -3 -19 8 -10
14 -17 15 -25 7 -17 -17 -8 -49 13 -48 9 1 17 -2 17 -7 0 -5 9 -9 20 -9 11 0
23 -7 26 -15 4 -8 12 -15 18 -15 20 0 34 -20 29 -41 -3 -10 -9 -19 -14 -19 -5
0 -6 7 -3 15 9 24 -24 30 -48 9 -20 -19 -20 -19 -14 13 9 40 -8 52 -38 24 -32
-30 -39 -26 -32 18 4 29 2 40 -9 45 -17 6 -45 -19 -45 -41 0 -8 -6 -13 -12
-10 -7 2 -11 15 -10 28 7 49 7 53 -10 57 -11 2 -22 -6 -29 -22 -7 -14 -18 -26
-26 -26 -20 0 -28 30 -15 51 17 26 15 29 -12 29 -13 0 -30 -10 -39 -22 -11
-17 -18 -20 -27 -12 -9 9 -8 19 4 43 16 29 15 32 0 38 -12 4 -24 -2 -38 -20
-29 -37 -40 -34 -32 8 6 31 4 35 -13 35 -14 0 -23 -9 -27 -25 -4 -16 -13 -25
-25 -25 -22 0 -25 21 -7 50 10 16 10 22 -1 32 -10 11 -18 7 -42 -21 -32 -38
-49 -36 -31 4 17 36 15 45 -7 45 -11 0 -29 -12 -41 -27 -16 -20 -23 -24 -32
-15 -9 9 -9 15 0 24 7 7 12 20 12 30 0 27 -34 22 -50 -7 -13 -25 -40 -35 -40
-15 0 6 7 24 15 40 10 18 11 31 5 35 -17 11 -46 -4 -58 -30 -6 -14 -15 -25
-20 -25 -18 0 -21 14 -7 41 20 38 19 49 -5 49 -12 0 -28 -12 -38 -29 -13 -22
-22 -27 -32 -20 -8 5 -11 9 -6 9 5 0 3 6 -3 13 -6 8 -8 17 -4 20 3 4 3 7 -2 7
-4 0 -13 -7 -20 -16 -18 -26 -56 -9 -51 22 5 28 -1 30 -25 8 -25 -23 -63 -2
-56 32 2 13 -2 29 -9 35 -11 9 -16 5 -24 -16 -15 -39 -36 -27 -55 30 -7 20 -7
19 -22 -2 -28 -42 -67 -21 -53 28 11 38 -16 41 -30 3 -7 -18 -15 -24 -26 -20
-9 3 -18 6 -20 6 -3 0 2 14 11 30 15 28 15 30 -4 30 -11 0 -25 -9 -31 -20 -9
-16 -15 -18 -31 -10 -15 9 -17 15 -9 31 9 15 7 21 -6 26 -10 4 -20 0 -26 -10
-5 -10 -18 -17 -30 -17 -21 0 -21 9 -3 53 10 24 -31 23 -46 -2 -19 -29 -49
-16 -43 19 8 38 -22 50 -38 15 -12 -27 -24 -30 -48 -15 -12 7 -12 12 -2 22 16
16 15 58 -1 58 -17 0 -47 -32 -47 -49 0 -7 -5 -9 -10 -6 -6 4 -8 11 -5 16 4 5
2 16 -3 26 -9 15 -11 14 -23 -5 -21 -33 -43 -28 -36 8 8 38 -11 50 -34 22 -9
-12 -26 -22 -37 -22 -18 0 -20 5 -15 35 7 42 -4 45 -33 8 -28 -36 -56 -26 -48
17 5 24 3 30 -11 30 -9 0 -19 -9 -22 -20 -3 -11 -12 -20 -20 -20 -11 0 -12 8
-7 35 5 31 4 35 -15 35 -11 0 -21 -6 -21 -14 0 -21 -23 -36 -40 -26 -11 7 -12
14 -2 35 10 22 9 27 -5 32 -10 4 -22 -3 -35 -20 -11 -15 -25 -24 -33 -20 -19
7 -19 27 0 43 8 7 12 16 9 21 -10 17 -35 9 -46 -16 -14 -31 -43 -35 -34 -5 3
11 9 29 12 40 5 16 2 20 -15 20 -11 0 -21 -6 -21 -12 -1 -21 -28 -51 -39 -43
-7 4 -6 16 4 36 9 16 13 34 10 39 -9 15 -36 -1 -46 -27 -6 -18 -15 -23 -32
-21 -19 3 -22 8 -19 41 3 29 0 37 -12 37 -9 0 -21 -11 -26 -25 -12 -31 -49
-34 -57 -4 -4 13 -13 20 -27 18 -47 -3 -56 1 -56 26 0 27 -6 30 -29 16 -18
-11 -91 25 -91 45 0 16 -36 19 -45 4 -10 -16 -28 -12 -21 5 3 8 9 22 12 30 9
21 -30 20 -47 -2 -8 -9 -13 -18 -11 -20 4 -6 -3 -7 -26 -1 -23 6 -23 7 -7 37
14 28 14 32 1 37 -18 7 -38 -4 -31 -17 4 -5 1 -9 -4 -9 -6 0 -11 -7 -11 -15 0
-20 -29 -19 -37 1 -3 8 -1 26 5 39 8 18 8 25 -2 28 -20 8 -58 -22 -52 -40 5
-12 1 -14 -21 -8 -16 3 -34 12 -42 20 -11 11 -10 16 7 33 17 17 18 23 7 32
-18 15 -51 -2 -60 -31 -4 -11 -12 -18 -18 -16 -13 4 -13 28 -2 65 6 18 4 22
-15 22 -15 0 -25 -9 -33 -30 -13 -36 -43 -37 -39 -2 1 12 3 32 5 45 4 37 -35
29 -47 -10 -9 -34 -30 -44 -39 -19 -3 8 1 20 9 26 18 16 18 36 -1 43 -8 4 -24
-6 -39 -23 -29 -35 -51 -40 -42 -10 3 11 9 29 12 40 5 15 2 20 -13 20 -24 0
-43 -19 -43 -42 0 -10 -4 -18 -10 -18 -15 0 -12 31 5 50 14 16 14 18 0 24 -10
3 -26 -4 -41 -19 -14 -14 -31 -25 -39 -25 -17 0 -20 26 -5 35 18 11 11 35 -10
35 -12 0 -25 -10 -32 -25 -6 -14 -15 -25 -19 -25 -17 0 -20 22 -5 44 8 13 12
26 9 30 -14 14 -41 4 -51 -19 -12 -26 -36 -33 -47 -14 -4 5 0 18 9 28 9 10 16
23 16 29 0 22 -38 12 -59 -14 -11 -14 -25 -23 -31 -19 -14 9 -12 26 6 46 9 10
13 23 9 28 -12 21 -36 11 -56 -24 -17 -28 -24 -33 -35 -24 -20 17 -17 52 7 83
18 23 20 31 10 52 -14 32 -47 29 -43 -5 1 -12 -5 -29 -13 -37 -8 -9 -15 -24
-15 -34 0 -21 -15 -34 -30 -25 -6 4 -4 19 5 42 19 44 19 43 -5 43 -12 0 -25
-10 -32 -25 -12 -26 -38 -35 -38 -12 0 6 7 21 15 31 17 22 11 36 -15 36 -11 0
-24 -12 -32 -30 -8 -18 -18 -28 -26 -25 -8 3 -18 5 -23 5 -12 0 -12 47 1 55 5
3 10 13 10 21 0 23 -37 16 -55 -12 -9 -14 -19 -23 -22 -20 -3 3 2 17 12 32 13
20 14 29 5 38 -8 8 -19 3 -41 -22 -40 -44 -68 -38 -43 9 12 25 13 33 3 39 -18
12 -35 2 -47 -26 -7 -13 -16 -24 -22 -24 -15 0 -12 26 5 40 8 7 15 19 15 26 0
23 -37 16 -58 -11 -13 -16 -26 -23 -36 -19 -21 8 -20 33 1 56 20 23 12 32 -21
24 -16 -4 -28 -16 -32 -31 -3 -14 -10 -25 -14 -25 -18 0 -17 26 2 57 19 32 12
50 -17 39 -9 -3 -15 1 -15 9 0 36 -69 -6 -70 -42 0 -7 -4 -13 -10 -13 -17 0
-11 36 10 55 32 29 25 45 -20 45 -34 0 -43 -5 -59 -30 -10 -16 -21 -27 -24
-23 -12 11 -8 31 9 48 9 8 14 22 11 29 -8 21 -47 8 -59 -20 -6 -13 -15 -24
-19 -24 -11 0 1 38 17 51 20 16 17 29 -5 29 -11 0 -28 -11 -39 -25 -11 -14
-23 -25 -26 -25 -10 0 -7 29 6 50 16 25 3 38 -22 22 -16 -9 -18 -9 -14 2 3 8
1 17 -4 20 -6 4 -9 -22 -8 -65 1 -53 5 -74 16 -79 8 -4 62 -30 120 -58 58 -28
121 -58 140 -66 19 -8 70 -30 112 -50 42 -20 83 -36 91 -36 7 0 17 -4 23 -9 5
-5 38 -21 74 -36 65 -27 75 -31 183 -79 32 -14 63 -26 70 -26 7 0 17 -4 22 -9
6 -4 60 -27 120 -51 61 -23 118 -46 129 -52 10 -5 27 -11 37 -13 10 -2 63 -20
117 -39 55 -20 103 -36 107 -36 4 0 21 -6 38 -14 106 -45 377 -139 502 -173
91 -24 128 -38 155 -58 27 -20 240 -103 365 -142 28 -8 64 -21 80 -28 33 -13
73 -27 430 -150 290 -99 271 -92 320 -114 22 -10 56 -25 75 -34 110 -48 136
-61 197 -101 38 -24 83 -59 102 -79 34 -36 34 -63 1 -52 -23 7 -50 -28 -50
-65 0 -28 32 -70 54 -70 8 0 19 7 26 15 16 19 30 19 30 1 0 -20 65 -66 94 -66
33 0 42 31 19 70 -9 16 -21 30 -25 30 -4 0 -8 5 -8 10 0 6 11 10 25 10 60 0 5
73 -63 84 -23 3 -42 10 -42 15 0 4 -11 20 -25 35 -24 26 -24 27 -4 21 12 -4
97 -39 188 -77 91 -38 195 -80 231 -92 63 -23 351 -156 420 -195 54 -31 90
-43 113 -39 24 5 25 3 20 -23 -4 -22 1 -33 22 -53 31 -29 63 -34 71 -11 5 12
10 9 27 -11 24 -31 79 -56 101 -48 12 5 16 20 16 58 0 50 -1 53 -39 74 -21 12
-48 22 -59 22 -22 0 -91 40 -92 53 0 5 15 -1 34 -12 37 -23 115 -28 134 -9 34
34 -12 98 -72 98 -30 0 -30 0 -8 16 27 18 28 36 4 56 -30 26 -65 29 -97 8 -36
-24 -55 -25 -55 -5 0 23 -81 70 -189 111 -53 19 -161 60 -241 91 -80 30 -170
65 -200 76 -30 11 -74 28 -97 39 -23 10 -51 18 -62 18 -12 0 -21 4 -21 9 0 5
-48 28 -107 51 -144 54 -215 89 -207 102 4 6 -1 8 -15 3 -14 -4 -31 -1 -47 10
-13 9 -29 13 -34 10 -5 -3 -11 -1 -15 5 -3 5 -16 10 -29 10 -12 0 -31 7 -42
15 -10 8 -27 15 -37 15 -24 0 -150 50 -158 62 -3 5 -10 8 -15 6 -8 -2 -21 1
-89 28 -11 4 -27 8 -35 9 -9 1 -58 20 -110 42 -52 22 -111 46 -130 53 -19 7
-68 28 -108 47 -41 18 -79 33 -85 34 -7 0 -2 4 11 10 16 6 31 5 50 -5 15 -8
36 -15 47 -17 31 -5 75 10 75 25 0 25 -50 56 -90 56 -34 0 -38 3 -43 30 -4 17
-13 30 -21 30 -22 0 -86 -32 -86 -43 0 -5 -9 2 -21 17 -37 47 -81 28 -60 -27
6 -15 8 -27 5 -27 -23 0 -427 154 -574 219 -36 16 -126 55 -200 86 -74 31
-144 61 -154 67 -11 6 -61 25 -110 43 -76 28 -203 78 -291 115 -11 4 -40 16
-65 25 -25 9 -67 27 -95 40 -59 28 -195 83 -280 112 -96 34 -239 94 -256 109
-8 8 -22 14 -31 14 -13 0 -123 44 -223 90 -22 10 -58 26 -80 36 -22 10 -43 20
-47 22 -5 2 -8 -8 -8 -22z m311 -303 c-12 -20 -14 -14 -5 12 4 9 9 14 11 11 3
-2 0 -13 -6 -23z m2147 -639 c-10 -10 -28 6 -28 24 0 15 1 15 17 -1 9 -9 14
-19 11 -23z m99 11 c-12 -25 -35 -40 -46 -29 -5 5 43 54 54 54 2 0 -2 -11 -8
-25z m118 -45 c3 -5 -3 -10 -14 -10 -11 0 -23 5 -26 10 -3 6 3 10 14 10 11 0
23 -4 26 -10z m1040 -810 c3 -5 2 -10 -4 -10 -5 0 -13 5 -16 10 -3 6 -2 10 4
10 5 0 13 -4 16 -10z m-75 -44 c-14 -14 -24 0 -16 21 6 15 8 15 16 3 6 -9 5
-19 0 -24z m109 -25 c13 -10 22 -23 20 -30 -3 -7 -16 0 -34 19 -32 33 -24 40
14 11z m978 -27 c-3 -3 -12 -4 -19 -1 -8 3 -5 6 6 6 11 1 17 -2 13 -5z m-64
-42 c-48 -16 -54 -8 -12 17 25 15 35 17 41 8 5 -8 -5 -16 -29 -25z m125 -48
c12 -2 22 -9 22 -15 0 -16 -69 -4 -88 14 -14 15 -3 15 66 1z m-88 -134 c0 -5
-2 -10 -4 -10 -3 0 -8 5 -11 10 -3 6 -1 10 4 10 6 0 11 -4 11 -10z m37 -12
c-3 -8 -6 -5 -6 6 -1 11 2 17 5 13 3 -3 4 -12 1 -19z m93 -6 c22 -17 21 -42 0
-42 -11 0 -50 41 -50 52 0 14 27 9 50 -10z M4807 7005 c3 -8 9 -12 14 -9 12 7
11 11 -5 17 -10 4 -13 1 -9 -8z M4875 6880 c-3 -5 -1 -10 4 -10 6 0 11 5 11
10 0 6 -2 10 -4 10 -3 0 -8 -4 -11 -10z M1170 6835 c0 -9 10 -20 23 -25 82
-34 160 -65 207 -82 30 -11 75 -29 100 -40 46 -21 122 -45 175 -54 16 -3 47
-15 68 -26 38 -19 61 -18 41 2 -5 5 -63 27 -129 49 -66 21 -146 50 -177 65
-31 14 -60 26 -64 26 -4 0 -26 9 -48 19 -87 41 -179 81 -187 81 -5 0 -9 -7 -9
-15z M50 6792 c0 -14 13 -23 53 -34 63 -19 216 -86 237 -104 8 -7 44 -23 80
-37 36 -13 88 -36 116 -50 27 -14 70 -30 94 -37 25 -6 77 -26 115 -44 39 -18
90 -38 115 -45 48 -14 60 -18 187 -75 45 -20 84 -36 87 -36 2 0 37 -15 78 -34
40 -19 128 -52 194 -75 137 -45 227 -81 294 -116 25 -13 74 -31 109 -40 35 -9
101 -33 145 -54 108 -50 146 -65 246 -97 201 -63 326 -109 545 -201 136 -57
352 -143 360 -143 3 0 51 -21 107 -46 57 -26 123 -56 148 -66 25 -11 59 -26
75 -33 17 -8 80 -34 140 -60 61 -25 126 -57 145 -69 22 -15 56 -26 93 -29 32
-3 72 -14 90 -25 35 -20 242 -92 320 -111 55 -13 99 -42 118 -77 20 -38 0 -50
-45 -29 -42 20 -41 20 -50 -19 -6 -25 -5 -28 13 -23 12 3 21 1 21 -4 0 -5 -5
-9 -11 -9 -7 0 -17 -7 -23 -15 -10 -14 -15 -14 -48 0 -21 8 -46 15 -57 15 -11
0 -41 9 -68 21 l-48 21 32 13 c23 10 31 19 27 29 -9 23 -21 20 -49 -10 -14
-15 -25 -23 -25 -17 0 5 5 14 11 20 7 7 8 20 5 30 -7 16 -10 15 -31 -12 -28
-34 -40 -30 -21 7 22 42 0 52 -33 17 -13 -14 -26 -19 -37 -15 -13 5 -15 9 -6
18 15 15 15 38 0 38 -6 0 -19 -7 -29 -16 -25 -23 -48 -12 -42 20 6 29 -11 35
-36 12 -10 -9 -27 -12 -44 -9 -27 5 -27 6 -11 24 13 15 15 22 6 31 -9 9 -18 6
-37 -12 -24 -23 -37 -16 -13 8 9 9 7 13 -6 18 -12 4 -22 -1 -32 -15 -9 -12
-20 -19 -25 -15 -6 4 -6 10 1 19 17 21 1 45 -31 45 -16 0 -52 11 -79 25 l-50
25 14 29 c9 16 25 31 37 34 24 6 17 27 -9 27 -29 0 -62 -30 -62 -56 0 -28 -3
-29 -36 -8 -35 24 -56 4 -28 -27 l19 -22 -23 14 c-22 13 -23 23 -7 61 13 32
-24 34 -49 3 -21 -26 -23 -26 -36 -9 -8 10 -10 15 -3 11 7 -4 18 2 27 14 31
45 -15 55 -51 12 -17 -21 -22 -24 -23 -11 0 9 5 20 10 23 16 10 12 35 -7 42
-11 4 -24 -3 -39 -23 -17 -21 -26 -26 -35 -17 -8 8 -8 13 0 17 6 4 11 16 11
27 0 26 -37 25 -45 -1 -8 -26 -19 -25 -91 4 -45 19 -59 29 -59 45 0 11 -6 26
-13 33 -11 11 -17 9 -32 -10 -27 -33 -52 -19 -48 27 3 31 0 36 -19 39 -17 3
-26 -4 -33 -23 -7 -19 -15 -25 -26 -21 -9 3 -18 6 -20 6 -3 0 -2 16 2 35 5 30
4 35 -14 35 -11 0 -26 -10 -34 -22 -20 -30 -38 -15 -31 27 5 31 3 35 -16 35
-14 0 -25 -9 -32 -27 -7 -20 -12 -24 -22 -14 -9 9 -9 16 1 32 15 24 8 39 -19
39 -11 0 -23 -10 -29 -24 -7 -19 -14 -23 -30 -19 -21 6 -22 12 -9 63 2 9 -4
16 -17 18 -14 2 -24 -5 -32 -23 -9 -19 -18 -25 -35 -23 -19 3 -22 9 -22 43 0
49 -28 61 -47 20 -19 -41 -43 -28 -44 25 0 25 -6 46 -13 48 -17 6 -41 -17 -41
-40 0 -13 -6 -18 -17 -16 -11 2 -17 11 -15 23 2 11 4 27 5 35 4 26 -32 23 -44
-4 -7 -14 -16 -23 -20 -20 -5 3 -2 19 6 35 22 41 4 66 -27 37 -7 -7 -30 -14
-51 -15 l-38 -2 16 25 c28 43 -3 61 -35 22 -10 -13 -22 -20 -26 -15 -4 4 -2
13 4 19 20 20 13 27 -25 27 -28 -1 -44 -8 -62 -28 -18 -21 -22 -22 -16 -6 13
35 11 49 -8 53 -12 2 -21 -6 -30 -27 -13 -31 -31 -34 -20 -4 9 23 -19 35 -39
17 -15 -15 -16 -14 -11 5 3 12 13 21 25 21 37 0 11 25 -53 51 -80 32 -120 50
-211 94 -40 20 -90 38 -113 42 -22 3 -53 13 -70 21 -16 8 -47 19 -68 22 -34 7
-39 5 -47 -14 -4 -12 -16 -28 -26 -36 -16 -14 -17 -13 -11 11 9 36 -16 46 -43
17 -18 -19 -20 -20 -26 -4 -4 10 -2 28 5 42 9 20 8 26 -6 31 -17 7 -43 -20
-43 -45 0 -9 -6 -12 -16 -8 -9 3 -17 6 -18 6 -8 0 9 58 22 78 13 20 13 22 -8
22 -27 0 -49 -26 -50 -57 0 -13 -6 -23 -14 -23 -26 0 -28 20 -8 61 17 34 18
41 6 46 -19 7 -64 -35 -64 -59 0 -20 -8 -22 -28 -9 -12 7 -11 14 3 41 14 27
14 34 4 41 -17 10 -62 -29 -55 -48 6 -16 1 -16 -25 -2 -20 10 -20 10 0 45 26
44 26 44 -2 44 -25 0 -57 -28 -57 -48 0 -17 -20 -15 -27 4 -3 8 4 25 16 38 19
20 20 25 7 35 -20 17 -54 -2 -62 -34 -3 -14 -13 -25 -21 -25 -11 0 -13 6 -8
23 16 51 17 67 6 67 -24 0 -51 -21 -51 -39 0 -34 -11 -34 -59 -2 -12 7 -10 14
8 36 29 38 27 57 -5 53 -18 -2 -32 -13 -43 -34 -10 -18 -23 -29 -31 -26 -42
11 -42 11 -20 48 16 25 19 39 12 46 -16 16 -43 1 -55 -32 -11 -29 -30 -39 -41
-21 -3 5 1 25 9 45 14 33 14 37 0 42 -20 8 -41 -10 -49 -41 -4 -14 -13 -25
-21 -25 -17 0 -21 35 -5 45 17 10 11 35 -8 35 -10 0 -26 -14 -36 -32 -18 -29
-20 -30 -32 -13 -10 13 -10 21 -1 36 6 10 15 19 19 19 5 0 8 9 8 20 0 34 -37
24 -56 -15 -9 -20 -21 -38 -26 -41 -19 -12 -21 7 -4 36 15 26 15 31 2 36 -19
7 -56 -13 -56 -31 0 -8 -5 -15 -11 -15 -10 0 -10 14 2 60 7 27 -36 23 -51 -5
-14 -25 -30 -34 -30 -15 0 6 6 19 12 30 10 16 10 22 -1 32 -10 11 -18 7 -40
-19 -33 -39 -39 -40 -51 -10 -8 20 -9 19 -9 -9 -1 -31 2 -33 92 -69 50 -20 97
-40 102 -45 6 -4 24 -10 40 -14 29 -7 222 -81 294 -112 61 -27 75 -32 101 -40
14 -4 48 -17 75 -29 88 -40 197 -85 290 -121 50 -19 110 -43 135 -53 25 -10
65 -27 90 -36 25 -9 53 -21 62 -26 10 -5 23 -9 29 -9 12 0 43 -13 155 -66 38
-19 76 -34 82 -34 7 0 30 -9 51 -19 20 -11 69 -29 107 -41 38 -12 79 -29 92
-36 17 -11 22 -12 22 -2 0 9 3 8 10 -2 5 -8 10 -11 10 -6 0 5 6 4 13 -2 6 -6
39 -15 71 -21 33 -6 67 -18 77 -27 10 -9 23 -13 29 -9 7 4 22 3 33 -3 12 -5
48 -21 80 -33 32 -13 63 -33 69 -44 6 -11 18 -24 26 -29 12 -7 9 -12 -19 -25
-40 -19 -47 -40 -23 -75 12 -19 25 -26 48 -26 26 0 35 -6 50 -35 33 -60 106
-56 106 5 0 19 5 30 14 30 7 0 19 7 26 15 10 12 9 20 -3 39 l-16 24 82 -30
c105 -39 152 -58 252 -103 40 -18 126 -47 145 -49 8 -2 29 -9 45 -18 17 -8 80
-37 140 -63 61 -26 151 -66 200 -89 98 -46 157 -71 250 -106 61 -23 104 -40
163 -66 18 -8 38 -14 44 -14 13 0 130 -55 288 -136 14 -7 42 -15 63 -18 21 -4
47 -11 57 -16 10 -6 30 -10 44 -10 21 0 26 -6 32 -37 9 -49 58 -121 88 -129
13 -3 37 -4 52 -2 23 2 30 9 32 31 2 18 -2 29 -12 33 -22 8 -20 21 4 29 28 9
26 51 -2 69 -13 8 -47 16 -75 18 -32 2 -53 8 -53 15 0 6 8 9 18 6 10 -2 26 4
36 15 16 18 20 19 44 6 15 -8 33 -14 40 -14 6 0 12 -4 12 -9 0 -5 12 -23 26
-40 20 -24 32 -30 53 -27 14 2 29 5 34 5 4 1 7 17 7 37 0 19 4 33 9 30 5 -3
19 3 32 13 23 18 23 20 6 39 -14 15 -29 19 -70 17 -29 -1 -66 -8 -84 -15 -25
-11 -37 -11 -58 -2 -14 7 -23 16 -20 22 14 22 -49 95 -109 127 -16 8 -40 13
-53 10 -14 -3 -37 1 -52 9 -14 7 -53 23 -86 35 -77 28 -115 44 -192 80 -43 20
-71 27 -91 23 -21 -4 -40 1 -68 18 -32 20 -191 91 -384 171 -19 8 -64 28 -100
45 -70 33 -155 69 -260 109 -36 13 -78 30 -95 38 -16 7 -46 18 -65 25 -19 7
-57 23 -85 35 -135 62 -162 73 -185 80 -14 4 -59 22 -100 40 -41 18 -91 36
-110 40 -65 14 -274 86 -305 105 -34 21 -126 57 -230 90 -38 13 -90 33 -115
45 -44 22 -63 29 -223 85 -64 23 -75 29 -62 40 12 10 19 8 41 -9 34 -27 47
-26 81 3 25 22 27 27 15 46 -11 17 -10 23 3 36 21 21 19 28 -16 69 -33 37 -67
45 -92 21 -7 -8 -24 -12 -39 -9 -33 6 -42 -9 -42 -77 l-1 -55 -37 2 c-35 2
-90 22 -210 77 -85 38 -177 75 -258 103 -41 14 -79 29 -85 33 -5 4 -48 22 -95
38 -108 39 -296 121 -334 147 -16 10 -49 27 -75 36 -25 9 -73 28 -106 42 -33
14 -75 28 -92 32 -28 6 -33 4 -33 -13z m1475 -402 c3 -5 -3 -10 -14 -10 -13 0
-21 -7 -22 -17 0 -11 -2 -13 -6 -5 -12 30 25 59 42 32z m-10 -90 c-3 -5 -10
-10 -16 -10 -5 0 -9 5 -9 10 0 6 7 10 16 10 8 0 12 -4 9 -10z m117 -259 c54
-25 62 -33 53 -61 -8 -25 -37 -27 -33 -2 2 14 -4 17 -37 17 -32 0 -40 4 -43
20 -8 47 -13 51 -32 27 -22 -27 -37 -22 -51 16 -7 19 -13 22 -21 14 -18 -18
-35 -14 -41 9 -5 17 -11 19 -40 14 -38 -7 -56 7 -38 29 8 10 34 4 123 -25 62
-20 134 -46 160 -58z m128 -69 c0 -5 -9 -17 -20 -27 -16 -14 -20 -15 -20 -4 0
16 19 39 32 39 4 0 8 -4 8 -8z m57 -18 c2 -5 -3 -19 -11 -29 -14 -19 -15 -18
-14 13 1 30 17 40 25 16z m618 -354 c3 -6 1 -10 -4 -10 -6 0 -11 5 -11 10 0 6
-9 10 -21 10 -11 0 -17 5 -14 10 7 11 39 -2 50 -20z m-125 16 c0 -3 -4 -8 -10
-11 -5 -3 -10 -1 -10 4 0 6 5 11 10 11 6 0 10 -2 10 -4z m84 -72 c3 -8 2 -12
-4 -9 -6 3 -10 10 -10 16 0 14 7 11 14 -7z m2146 -619 c7 -9 10 -18 7 -21 -7
-8 -47 14 -47 26 0 15 26 12 40 -5z m-157 -108 c33 -31 30 -43 -7 -33 -27 7
-49 34 -61 76 l-8 25 24 -20 c13 -11 36 -33 52 -48z m37 53 c0 -5 -6 -10 -14
-10 -8 0 -18 5 -21 10 -3 6 3 10 14 10 12 0 21 -4 21 -10z M50 6669 c0 -17 4
-28 10 -24 6 3 10 17 10 31 0 13 -4 24 -10 24 -5 0 -10 -14 -10 -31z M3564
6565 c11 -8 27 -15 35 -15 13 1 12 4 -3 15 -11 8 -27 15 -35 15 -13 -1 -12 -4
3 -15z M2137 6453 c-10 -10 -8 -35 2 -29 5 3 11 -3 14 -14 6 -23 35 -27 43 -5
9 24 24 17 24 -10 0 -27 18 -33 38 -13 9 9 12 9 12 1 0 -7 -5 -15 -10 -18 -21
-13 1 -24 25 -13 17 8 25 19 25 37 0 23 -7 29 -47 41 -27 8 -55 13 -65 12 -9
-2 -19 2 -23 8 -7 11 -28 13 -38 3z M4053 6383 c-15 -5 -18 -59 -4 -67 14 -9
71 14 71 28 0 15 -32 46 -46 45 -5 0 -15 -3 -21 -6z M4135 6310 c-22 -42 -19
-53 11 -47 14 2 31 -2 39 -9 10 -11 16 -11 21 -2 5 8 10 4 15 -10 11 -29 49
-30 49 -2 0 11 5 20 10 20 6 0 10 -10 10 -21 0 -17 5 -20 25 -17 17 4 25 1 25
-8 0 -19 25 -18 45 2 29 30 14 48 -57 68 -65 19 -68 19 -88 1 -20 -18 -20 -18
-20 7 0 20 -7 27 -35 35 -33 11 -36 10 -50 -17z M50 6054 c0 -18 6 -24 23 -24
12 -1 38 -7 57 -14 101 -39 266 -109 275 -116 6 -5 48 -24 95 -43 47 -19 103
-44 125 -55 79 -42 149 -72 165 -72 9 0 20 -4 26 -9 5 -5 36 -18 69 -31 62
-22 81 -30 175 -72 30 -14 89 -37 130 -53 41 -15 103 -38 137 -51 34 -13 68
-24 75 -24 8 0 18 -4 23 -9 6 -5 64 -30 130 -56 157 -61 364 -144 384 -155 27
-14 135 -58 161 -65 14 -4 54 -22 90 -40 36 -18 86 -38 110 -45 24 -7 63 -25
87 -41 47 -32 58 -56 21 -44 -13 4 -35 9 -50 12 -42 8 -37 -24 7 -43 30 -12
34 -18 29 -38 -6 -27 12 -44 29 -27 35 35 28 -6 -10 -56 -28 -38 -48 -41 -83
-12 -22 18 -22 19 -3 10 19 -9 24 -8 33 10 24 45 -15 68 -45 27 l-17 -23 5 25
c2 14 8 33 12 44 7 16 4 18 -23 14 -28 -4 -30 -2 -21 15 6 10 8 25 5 33 -9 24
-37 15 -48 -17 -11 -31 -45 -38 -40 -7 3 21 -24 31 -48 16 -29 -19 -69 3 -63
35 6 33 -21 43 -41 15 -18 -25 -35 -16 -29 16 7 35 -13 41 -42 12 -23 -23 -26
-23 -41 -9 -11 11 -12 19 -5 26 19 19 12 37 -13 37 -16 0 -27 -7 -31 -20 -10
-32 -25 -23 -25 15 0 42 -24 48 -42 10 -8 -19 -14 -22 -24 -14 -10 8 -11 15
-1 30 9 14 9 21 -1 31 -11 11 -17 9 -33 -11 -12 -15 -25 -21 -36 -17 -12 5
-14 9 -5 18 7 7 12 18 12 25 0 18 -35 16 -50 -2 -7 -8 -19 -15 -27 -15 -19 0
-28 29 -14 43 17 17 13 27 -13 27 -13 0 -26 -7 -30 -15 -10 -28 -26 -16 -20
15 6 25 3 30 -14 30 -11 0 -23 -7 -26 -16 -4 -9 -15 -14 -28 -12 -23 4 -25 9
-13 41 6 13 2 17 -18 17 -14 0 -27 -7 -31 -15 -3 -8 -15 -15 -26 -15 -18 0
-20 4 -14 35 5 31 4 35 -15 35 -14 0 -25 -9 -31 -25 -12 -32 -35 -34 -25 -2
18 60 18 67 -4 67 -14 0 -28 -11 -39 -30 -18 -32 -21 -34 -40 -22 -10 7 -10
15 -2 36 18 48 -21 67 -42 21 -13 -28 -34 -35 -23 -7 19 44 18 62 -4 62 -14 0
-25 -9 -31 -25 -14 -36 -34 -32 -26 5 5 25 2 30 -15 30 -11 0 -22 -7 -25 -15
-7 -18 -26 -19 -42 -3 -8 8 -8 17 -1 31 15 26 -3 44 -24 23 -8 -9 -17 -21 -19
-28 -3 -7 -12 -9 -22 -5 -13 5 -16 14 -10 42 8 43 -7 46 -40 8 -15 -17 -28
-24 -40 -20 -15 6 -15 9 -1 36 19 37 19 41 1 41 -8 0 -24 -12 -35 -26 -17 -21
-23 -24 -40 -14 -23 12 -27 40 -9 58 9 9 9 15 0 24 -9 9 -16 7 -32 -7 -11 -10
-20 -25 -20 -32 0 -8 -6 -13 -12 -10 -8 2 -12 17 -10 36 2 25 -2 31 -17 31
-11 0 -24 -7 -29 -16 -14 -24 -55 0 -47 27 8 25 -22 26 -40 2 -11 -14 -16 -15
-28 -5 -8 7 -13 21 -10 32 3 13 0 20 -8 20 -9 1 -8 4 4 11 14 8 16 14 7 24
-18 21 -3 37 21 24 16 -8 19 -17 15 -35 -8 -30 5 -31 30 -3 19 21 18 21 -6 43
-20 16 -38 21 -80 21 -48 0 -55 -3 -58 -21 -2 -12 7 -31 22 -45 13 -13 22 -27
20 -31 -8 -13 -49 -9 -70 6 -15 12 -17 17 -6 27 16 18 15 39 -3 39 -8 0 -21
-12 -29 -27 -12 -24 -15 -26 -21 -11 -4 10 -2 31 3 48 6 17 7 32 2 35 -12 8
-50 -35 -50 -57 0 -15 -3 -16 -25 -6 l-25 11 20 32 c25 40 25 55 1 55 -22 0
-37 -17 -43 -45 -2 -11 -8 -18 -13 -15 -11 6 -11 33 0 68 12 37 -22 27 -41
-13 -16 -35 -34 -47 -34 -22 0 6 7 21 15 31 19 25 19 52 1 59 -10 4 -21 -7
-33 -30 -21 -42 -50 -59 -40 -24 8 30 -13 38 -34 12 -10 -12 -23 -20 -29 -16
-5 3 -10 -3 -10 -14 0 -22 27 -41 59 -41 12 0 21 -4 21 -10 0 -5 7 -10 15 -10
9 0 33 -9 55 -20 22 -11 47 -22 57 -23 10 -2 40 -14 67 -26 26 -12 75 -30 109
-41 33 -11 65 -24 71 -28 6 -5 38 -19 71 -31 33 -13 97 -41 143 -62 46 -21 89
-39 97 -39 8 0 16 -4 19 -9 3 -4 27 -16 53 -26 70 -26 106 -42 228 -100 61
-30 122 -56 136 -60 27 -7 96 -72 86 -81 -3 -3 -15 0 -27 6 -54 29 -91 -23
-49 -69 25 -26 45 -22 42 8 -2 11 1 21 6 21 13 0 22 -28 11 -35 -14 -9 -12
-42 5 -75 27 -52 86 -52 104 2 8 22 15 29 27 24 39 -15 58 40 28 83 -16 23
-16 23 7 16 13 -4 26 -12 27 -16 2 -5 11 -9 20 -9 15 0 58 -17 280 -108 117
-49 156 -64 239 -93 48 -17 101 -42 116 -55 16 -13 36 -24 45 -24 9 0 32 -16
50 -34 19 -19 47 -38 63 -41 17 -4 33 -14 36 -23 12 -39 27 -62 45 -68 26 -8
68 22 68 49 0 21 1 20 19 -6 38 -58 110 -74 121 -27 4 18 17 29 50 40 54 19
61 41 23 75 -20 18 -37 25 -60 22 -37 -3 -37 -3 -22 25 9 17 6 25 -21 53 -38
40 -63 48 -87 29 -27 -20 -45 -18 -38 6 10 32 -23 75 -80 104 -29 14 -58 26
-65 26 -7 0 -47 17 -89 39 -42 21 -94 44 -116 51 -37 11 -93 34 -230 95 -87
38 -261 105 -274 105 -5 0 -48 18 -95 40 -47 22 -89 40 -93 40 -5 0 -20 6 -34
14 -15 7 -58 24 -95 36 -38 12 -107 39 -154 60 -47 21 -122 52 -167 70 -88 34
-131 59 -102 60 9 0 22 -6 28 -14 16 -19 62 -29 74 -17 6 6 29 8 54 4 34 -4
48 -2 63 12 11 10 20 23 20 30 0 33 -79 67 -105 45 -26 -22 -59 -8 -66 29 -4
18 -14 40 -23 49 -14 15 -19 14 -51 -1 -40 -19 -44 -41 -13 -74 12 -13 18 -26
15 -29 -18 -18 -187 7 -187 27 0 5 -6 9 -14 9 -7 0 -33 11 -58 25 -24 13 -64
32 -89 40 -41 15 -190 80 -284 125 -22 11 -73 30 -112 43 l-73 24 0 -23z m856
-205 c10 -17 -13 -36 -27 -22 -12 12 -4 33 11 33 5 0 12 -5 16 -11z m152 -80
c-2 -6 -7 -10 -11 -10 -4 1 -19 1 -34 1 -22 0 -25 2 -13 10 20 13 63 13 58 -1z
m-113 -9 c3 -5 -1 -10 -9 -10 -9 0 -16 5 -16 10 0 6 4 10 9 10 6 0 13 -4 16
-10z m473 -518 c-26 -5 -22 -23 10 -48 35 -28 24 -40 -18 -19 -21 11 -30 21
-26 31 3 9 6 24 6 34 0 14 5 17 23 12 18 -5 19 -7 5 -10z m-38 -135 c0 -5 -4
-5 -10 -2 -5 3 -10 14 -10 23 0 15 2 15 10 2 5 -8 10 -19 10 -23z m1174 -152
c6 -16 -5 -18 -42 -8 -18 4 -20 8 -10 14 21 13 45 10 52 -6z m-14 -76 c0 -6
-4 -7 -10 -4 -5 3 -10 11 -10 16 0 6 5 7 10 4 6 -3 10 -11 10 -16z m105 -29
c4 -6 -6 -10 -22 -9 -25 0 -26 1 -8 9 11 5 21 9 22 9 1 1 5 -3 8 -9z m-84 -47
c13 -16 12 -17 -3 -4 -17 13 -22 21 -14 21 2 0 10 -8 17 -17z M663 5705 c-3
-9 -3 -18 -1 -21 9 -9 38 8 38 22 0 19 -29 18 -37 -1z M3013 5503 c-23 -8 -14
-31 19 -47 17 -9 40 -14 51 -10 18 6 18 7 -3 29 -23 25 -47 34 -67 28z M3516
5322 c-10 -16 5 -44 20 -38 8 3 14 2 14 -3 0 -5 10 -11 23 -15 27 -7 67 28 51
44 -15 15 -100 24 -108 12z M4193 5044 c-3 -8 -1 -20 6 -27 14 -14 47 15 37
32 -10 16 -36 13 -43 -5z M50 4776 c0 -24 23 -36 120 -65 78 -23 227 -75 264
-92 22 -11 44 -19 48 -19 8 0 82 -28 273 -101 44 -17 89 -35 100 -40 11 -4 38
-14 60 -21 22 -7 62 -26 88 -42 26 -16 51 -26 54 -23 3 4 19 -1 35 -9 17 -9
51 -22 77 -29 104 -29 187 -55 206 -64 11 -6 40 -17 65 -25 25 -8 83 -31 130
-51 166 -71 341 -134 416 -149 19 -4 89 -33 149 -61 17 -7 59 -24 95 -36 36
-13 76 -29 90 -36 14 -7 31 -13 38 -13 8 0 28 -6 45 -14 18 -8 57 -22 87 -31
30 -10 59 -21 64 -26 6 -5 18 -9 27 -9 10 0 30 -5 46 -12 15 -6 32 -10 37 -9
4 1 13 -3 20 -8 6 -5 43 -20 81 -34 139 -48 221 -78 255 -93 19 -9 44 -19 55
-24 11 -5 85 -34 165 -65 155 -61 170 -68 270 -110 36 -15 112 -45 169 -66
104 -39 141 -57 88 -44 -41 11 -74 -1 -81 -30 -7 -27 -13 -30 -35 -16 -10 6
-10 13 -2 28 12 23 6 33 -20 33 -23 0 -39 -57 -28 -100 6 -24 -48 -16 -121 17
-36 17 -75 34 -88 37 -26 9 -28 21 -6 34 18 10 11 32 -10 32 -8 0 -19 -7 -26
-15 -7 -8 -17 -15 -23 -15 -5 0 -3 8 7 19 15 17 15 19 0 32 -14 12 -19 10 -35
-10 -21 -25 -25 -21 -9 9 8 15 6 21 -9 30 -17 8 -22 6 -33 -12 -7 -13 -13 -26
-14 -30 -1 -5 -2 -11 -3 -15 -1 -5 -6 0 -12 9 -7 12 -6 24 1 39 9 15 8 24 -1
35 -10 13 -14 12 -30 -2 -11 -10 -19 -26 -19 -36 0 -14 -6 -19 -22 -16 -28 4
-26 32 3 64 20 22 16 34 -11 34 -21 0 -50 -31 -50 -53 0 -9 -4 -17 -9 -17 -6
0 -3 21 6 46 13 39 13 48 2 55 -8 5 -17 9 -22 9 -10 0 -27 -46 -27 -76 0 -28
0 -28 -35 -12 l-26 12 22 17 c23 17 18 45 -7 35 -7 -3 -16 -1 -19 4 -4 6 -15
10 -26 10 -14 0 -19 -7 -19 -25 0 -18 -4 -23 -15 -19 -10 4 -15 20 -15 46 0
32 -3 39 -17 36 -12 -2 -18 -13 -18 -31 1 -16 -5 -27 -12 -27 -20 0 -25 23
-14 54 9 22 8 28 -6 33 -9 4 -21 0 -27 -10 -6 -8 -17 -24 -24 -34 -11 -16 -12
-13 -7 20 4 21 8 44 11 51 8 22 -27 28 -42 9 -13 -16 -14 -15 -8 10 5 22 3 27
-13 27 -27 0 -43 -19 -43 -52 0 -30 -6 -33 -30 -18 -10 6 -11 10 -2 10 15 0
16 36 2 45 -6 4 -17 1 -26 -5 -11 -10 -12 -16 -3 -26 15 -18 10 -18 -45 6 -42
19 -46 24 -46 56 0 28 -4 35 -17 32 -10 -2 -19 -14 -21 -26 -4 -24 -26 -25
-28 -1 -1 8 -2 20 -3 27 -1 17 -22 15 -36 -5 -15 -20 -35 -9 -35 18 0 16 4 19
21 14 13 -4 27 -1 39 10 12 11 20 13 25 6 3 -6 16 -11 29 -11 29 0 60 -34 62
-68 0 -20 6 -27 20 -27 15 0 19 8 21 37 2 31 -3 41 -26 57 -43 31 -74 40 -150
45 -37 2 -77 8 -87 14 -43 22 -96 42 -111 42 -9 0 -24 6 -32 13 -26 22 -160
79 -174 74 -6 -2 8 -14 33 -27 25 -12 70 -37 100 -55 30 -18 67 -35 83 -39 30
-7 34 -18 12 -36 -17 -14 -36 -5 -28 15 6 17 -32 22 -42 5 -10 -17 -36 1 -30
21 5 15 1 19 -19 19 -14 0 -28 -5 -31 -10 -10 -16 -26 0 -20 20 8 26 -13 35
-35 15 -27 -24 -52 -13 -44 20 5 21 3 25 -15 25 -12 0 -24 -7 -27 -15 -10 -25
-23 -17 -21 12 2 33 -28 45 -36 13 -3 -14 -10 -18 -22 -14 -12 5 -13 10 -6 17
16 16 14 47 -3 47 -17 0 -38 -24 -29 -33 3 -4 -1 -7 -10 -7 -9 0 -19 5 -22 10
-3 6 -2 10 4 10 15 0 34 39 27 56 -8 22 -42 1 -50 -31 -4 -15 -12 -25 -19 -22
-19 6 -20 33 -1 52 17 17 17 18 -2 32 -17 12 -21 12 -36 -8 -10 -12 -18 -27
-18 -35 0 -8 -7 -14 -15 -14 -19 0 -19 19 0 44 29 38 -11 50 -45 14 l-21 -23
11 29 c19 51 -26 59 -49 10 -6 -14 -17 -24 -24 -21 -13 5 -13 6 -2 50 6 23 4
27 -14 27 -15 0 -26 -10 -34 -29 -10 -24 -15 -27 -36 -20 -17 7 -21 14 -16 27
4 9 10 27 12 40 8 35 -33 29 -52 -8 -16 -31 -42 -43 -31 -14 3 9 9 27 12 40 6
22 3 24 -30 24 -20 0 -36 5 -36 10 0 18 -28 10 -51 -15 -39 -40 -48 -30 -24
27 5 12 -3 21 -31 34 l-37 18 -21 -27 c-12 -15 -25 -27 -29 -27 -14 0 -7 33
10 45 15 11 15 13 -5 24 -19 10 -26 8 -47 -15 -26 -28 -34 -18 -13 16 9 14 9
23 2 30 -16 16 -45 0 -59 -34 -12 -26 -15 -28 -21 -13 -3 10 -2 23 5 30 6 6
11 19 11 29 0 29 -38 22 -58 -11 -23 -37 -51 -26 -48 19 3 41 -14 44 -47 6
-30 -32 -31 -30 -11 33 4 12 0 21 -11 25 -22 8 -45 -10 -45 -35 0 -11 -7 -19
-15 -19 -18 0 -20 21 -4 37 16 16 3 43 -21 43 -11 0 -20 7 -20 15 0 29 -40 16
-61 -19 -12 -21 -26 -33 -34 -30 -10 4 -4 14 18 35 31 29 32 29 12 45 -19 14
-22 13 -43 -12 -13 -14 -21 -33 -18 -40 7 -18 9 -19 -81 16 -43 17 -95 33
-115 36 -53 9 -70 24 -66 59 l3 30 42 -44 c45 -47 68 -47 58 -1 -3 16 -2 31 4
35 6 3 11 13 11 21 0 12 -7 14 -29 9 -23 -5 -29 -2 -34 16 -7 25 -28 21 -42
-9 -6 -13 -19 -22 -32 -22 -16 0 -23 -6 -23 -19 0 -26 -10 -31 -39 -20 -21 8
-23 13 -16 55 6 41 5 45 -12 42 -10 -1 -25 -18 -32 -36 -11 -24 -21 -32 -35
-30 -18 3 -21 9 -19 42 3 42 -13 62 -34 44 -7 -6 -13 -19 -13 -29 0 -11 -7
-19 -16 -19 -10 0 -14 6 -11 14 3 8 9 31 13 50 5 28 3 36 -9 36 -21 0 -44 -40
-52 -91 l-6 -44 123 -40 c68 -21 142 -49 165 -62 23 -13 46 -22 50 -22 4 1 15
-1 23 -4 8 -3 47 -15 85 -26 39 -11 140 -44 225 -74 192 -68 191 -67 215 -77
11 -4 49 -18 85 -30 36 -12 83 -31 105 -42 64 -31 261 -107 370 -143 55 -18
116 -39 135 -48 19 -8 60 -24 90 -35 111 -42 242 -93 258 -101 23 -12 47 -21
282 -112 74 -29 149 -58 165 -65 17 -7 53 -21 80 -32 28 -11 86 -37 129 -57
44 -20 88 -37 98 -38 10 -1 18 -4 18 -7 0 -7 61 -32 180 -75 41 -15 84 -37 95
-50 11 -12 28 -25 38 -28 31 -12 13 -32 -25 -29 -22 2 -39 -2 -48 -13 -20 -24
18 -71 55 -67 20 2 35 -5 59 -31 37 -41 86 -60 121 -47 31 12 31 25 1 55 -23
23 -23 23 -4 43 16 16 18 24 9 40 -10 19 -9 20 17 12 33 -10 110 -39 217 -80
44 -17 136 -50 204 -72 68 -22 140 -51 159 -64 19 -13 49 -26 67 -30 36 -6
105 11 105 27 0 6 10 8 23 4 62 -18 76 -28 88 -64 25 -75 80 -122 120 -101 11
6 19 21 19 35 0 20 5 25 24 25 37 0 52 25 35 58 -7 15 -15 30 -17 35 -2 4 3 7
12 7 21 0 45 37 39 60 -9 34 -29 43 -65 31 -21 -8 -35 -8 -42 -1 -14 14 -68
12 -88 -4 -10 -7 -18 -23 -18 -35 0 -20 -4 -21 -37 -15 -49 9 -51 11 -25 30
45 31 18 87 -59 123 -101 46 -257 100 -277 94 -14 -3 -24 0 -28 10 -3 8 -42
30 -87 48 -45 18 -86 35 -92 39 -5 4 -37 17 -70 30 -33 13 -64 27 -70 32 -5 4
-15 8 -23 8 -12 0 -108 39 -327 132 -27 11 -68 29 -90 38 -37 16 -164 61 -365
131 -75 26 -175 64 -265 100 -16 7 -34 13 -40 14 -17 4 -149 56 -167 66 -10 5
-23 9 -30 9 -7 0 -19 4 -26 9 -10 6 -3 18 29 50 48 47 52 48 77 23 11 -11 38
-22 62 -26 36 -6 47 -3 64 13 20 20 20 21 0 42 -14 16 -16 23 -6 26 7 3 21 22
32 43 25 48 11 69 -49 77 -35 5 -47 2 -57 -11 -8 -11 -20 -16 -32 -12 -12 4
-25 -1 -37 -14 -16 -18 -17 -26 -8 -51 10 -25 9 -31 -7 -39 -10 -6 -25 -10
-34 -10 -8 0 -17 -9 -21 -19 -10 -33 -48 -51 -86 -41 -19 5 -53 11 -77 14 -23
3 -81 19 -128 37 -48 17 -91 32 -98 34 -6 1 -22 7 -36 12 -14 6 -45 19 -70 28
-25 9 -58 23 -75 30 -16 7 -52 20 -80 29 -27 9 -97 32 -155 52 -58 20 -136 47
-175 60 -38 13 -79 28 -90 33 -27 12 -335 127 -410 153 -113 39 -170 60 -225
83 -30 12 -86 33 -125 45 -85 27 -100 33 -147 53 -38 17 -38 17 -38 -7z m703
-406 c-3 -11 -7 -20 -9 -20 -2 0 -4 9 -4 20 0 11 4 20 9 20 5 0 7 -9 4 -20z
m1527 -99 c0 -3 -14 -22 -31 -41 l-30 -35 7 40 c4 22 8 43 10 47 5 7 44 -2 44
-11z m-100 -30 c0 -6 -4 -13 -10 -16 -5 -3 -10 1 -10 9 0 9 5 16 10 16 6 0 10
-4 10 -9z m-824 -107 c-3 -8 -10 -12 -16 -9 -7 4 -6 14 2 28 12 24 24 8 14
-19z m889 26 c7 -12 -12 -12 -40 0 -18 8 -17 9 7 9 15 1 30 -3 33 -9z m103
-367 c26 -6 27 -11 7 -37 -21 -28 -62 -8 -62 29 0 20 3 25 16 19 9 -3 26 -9
39 -11z m378 -210 c-10 -10 -19 5 -10 18 6 11 8 11 12 0 2 -7 1 -15 -2 -18z
m444 -213 c10 -6 5 -9 -18 -8 -18 1 -35 5 -38 10 -7 11 37 10 56 -2z m716 -49
c5 -5 36 -18 69 -30 58 -21 85 -42 85 -67 0 -16 -50 -24 -70 -11 -25 15 -54 1
-45 -21 4 -9 10 -27 12 -39 8 -36 -42 -30 -107 12 -30 19 -63 35 -74 35 -32 0
-96 34 -93 49 3 22 56 20 63 -2 9 -27 36 -16 48 20 13 39 21 47 36 38 8 -5 7
-10 -4 -18 -8 -7 -18 -24 -21 -38 -9 -39 13 -48 39 -17 12 14 29 28 39 31 9 4
17 15 17 26 0 11 -8 25 -17 30 -15 9 -15 10 -2 11 8 0 19 -4 25 -9z m-714 -79
c11 -13 11 -14 -2 -9 -8 4 -23 10 -32 13 -10 4 -18 10 -18 14 0 13 38 0 52
-18z m1087 -157 c8 -8 12 -17 9 -20 -9 -9 -78 22 -78 36 0 14 49 3 69 -16z
m-57 -60 c4 -5 5 -11 3 -14 -7 -6 -35 20 -47 43 l-11 21 24 -20 c13 -11 27
-24 31 -30z M517 4543 c-3 -5 -7 -26 -8 -48 -4 -38 -2 -40 23 -41 16 -1 36
-11 48 -25 l20 -24 19 25 c11 14 23 38 27 54 8 37 -18 60 -58 52 -15 -3 -30
-1 -33 4 -7 12 -32 13 -38 3z M50 4272 c0 -13 13 -23 43 -32 23 -7 65 -23 92
-35 49 -23 158 -60 245 -85 25 -7 60 -19 78 -27 18 -8 56 -23 85 -32 29 -10
72 -28 97 -39 25 -11 67 -28 94 -37 27 -8 78 -28 115 -44 36 -15 69 -29 74
-29 4 -1 20 -8 36 -16 16 -9 64 -29 107 -46 44 -18 84 -35 89 -39 6 -4 30 -16
55 -25 25 -10 59 -23 75 -31 17 -7 46 -19 65 -28 19 -8 55 -22 80 -31 181 -62
432 -155 444 -165 6 -5 28 -14 49 -21 21 -6 57 -22 80 -34 78 -43 524 -209
537 -201 5 3 10 2 12 -2 1 -5 32 -18 68 -30 36 -12 110 -38 165 -58 55 -20
109 -39 120 -42 11 -3 25 -9 30 -13 6 -4 75 -31 155 -60 80 -28 163 -60 186
-71 22 -10 44 -19 48 -19 8 0 83 -31 181 -76 28 -12 64 -26 80 -30 28 -7 71
-24 150 -59 17 -7 41 -18 55 -23 14 -6 73 -33 131 -61 59 -28 112 -51 118 -51
17 0 313 -148 333 -167 19 -17 25 -63 8 -63 -20 0 -60 24 -60 36 0 7 -14 24
-32 39 -44 37 -100 28 -145 -23 -24 -27 -35 -34 -43 -26 -9 9 -9 14 -1 18 22
14 11 25 -15 16 -34 -13 -34 -13 -34 10 0 22 -19 27 -37 9 -17 -17 -33 -1 -33
32 0 32 -14 38 -29 12 -7 -14 -12 -15 -24 -4 -9 7 -13 19 -10 27 6 17 -18 19
-34 3 -16 -16 -32 -3 -26 21 4 15 0 20 -16 20 -11 0 -21 -4 -21 -10 0 -20 -29
-9 -32 13 -2 13 -9 21 -18 18 -37 -9 -45 -6 -42 17 4 26 -3 28 -24 7 -9 -8
-20 -15 -25 -15 -15 0 -23 30 -10 43 15 15 14 47 -2 47 -7 0 -21 -13 -30 -30
-20 -33 -55 -43 -42 -12 4 9 10 27 12 40 8 34 -23 28 -36 -8 -5 -16 -15 -30
-21 -30 -19 0 -23 30 -5 50 9 10 14 24 10 29 -12 21 -37 11 -48 -19 -6 -16
-18 -30 -25 -30 -10 0 -12 8 -7 30 6 26 4 30 -15 30 -11 0 -23 -7 -26 -15 -12
-30 -27 -15 -21 20 3 19 2 37 -3 40 -9 6 -40 -21 -40 -36 0 -5 -7 -9 -15 -9
-19 0 -19 20 1 48 14 20 14 23 -2 29 -12 4 -25 -3 -41 -21 -29 -34 -41 -26
-25 16 9 25 9 34 0 39 -14 9 -48 -18 -48 -38 0 -19 -39 -16 -47 3 -3 9 -1 26
6 37 10 16 10 21 -1 28 -9 6 -20 1 -35 -16 -30 -34 -36 -31 -28 15 6 33 4 40
-9 40 -9 0 -24 -13 -35 -30 -21 -35 -32 -30 -24 11 5 24 2 29 -15 29 -12 0
-23 -9 -27 -20 -10 -31 -27 -24 -20 9 8 39 -18 49 -43 16 -17 -21 -22 -22 -31
-11 -7 8 -9 25 -6 39 5 17 2 26 -10 31 -12 4 -20 -2 -28 -24 -6 -16 -15 -30
-20 -30 -14 0 -20 31 -8 43 6 6 11 17 11 24 0 22 -33 14 -56 -14 -27 -35 -59
-26 -49 14 4 17 2 29 -7 34 -15 9 -38 -7 -38 -27 0 -8 -5 -14 -11 -14 -7 0 -9
9 -5 24 8 31 -20 43 -45 20 -21 -19 -24 -13 -9 16 7 13 6 19 -5 24 -21 8 -45
-3 -45 -20 0 -19 -15 -18 -34 2 -10 9 -14 24 -10 38 8 35 -21 41 -46 9 -24
-31 -38 -24 -22 11 12 27 7 36 -20 36 -10 0 -23 -11 -28 -25 -6 -16 -14 -23
-25 -19 -8 3 -15 7 -15 8 0 0 4 15 9 33 13 43 -15 55 -45 19 -24 -27 -39 -24
-23 6 11 20 5 38 -14 38 -6 0 -21 -12 -34 -27 l-22 -28 -1 37 c0 20 -5 40 -10
43 -17 10 -42 -16 -36 -37 3 -15 2 -17 -9 -8 -10 8 -11 18 -5 35 16 42 -29 51
-49 9 -9 -21 -14 -24 -26 -14 -8 7 -15 28 -15 46 0 41 -25 47 -41 10 -17 -37
-43 -22 -36 20 5 29 3 34 -14 34 -10 0 -24 -9 -31 -20 -19 -29 -38 -25 -38 9
0 40 -19 49 -42 21 -22 -27 -35 -21 -19 8 15 29 14 32 -14 32 -29 0 -32 -8 -7
-26 9 -7 12 -14 5 -14 -6 0 -14 4 -18 10 -3 5 -12 7 -20 3 -17 -6 -22 32 -5
42 15 9 12 25 -6 32 -12 4 -26 -5 -45 -28 -34 -41 -47 -33 -24 15 19 40 15 50
-25 71 -25 13 -31 13 -43 0 -15 -15 -12 -65 5 -65 5 0 13 10 16 23 6 22 6 22
12 -3 10 -36 -5 -51 -38 -39 -15 5 -33 12 -41 15 -11 4 -11 7 1 22 36 40 -33
93 -81 63 -11 -7 -7 -12 19 -18 42 -11 49 -29 14 -36 -20 -3 -34 2 -51 19 -18
18 -30 22 -52 18 -20 -4 -30 -1 -34 10 -4 9 -16 15 -29 14 -33 -2 -118 38
-118 56 0 21 -18 30 -34 17 -22 -18 -46 -2 -46 30 0 34 -24 39 -40 9 -6 -12
-16 -17 -26 -13 -10 3 -12 9 -6 15 14 14 3 48 -15 48 -8 0 -17 -9 -20 -20 -8
-32 -37 -20 -38 14 0 38 -22 45 -35 11 -8 -22 -13 -24 -30 -15 -11 6 -20 17
-20 24 0 8 -7 20 -16 27 -14 11 -18 11 -29 -5 -17 -23 -52 -7 -57 26 -4 30
-34 35 -43 9 -10 -32 -47 -9 -39 23 8 34 -15 44 -37 17 -25 -30 -62 -21 -53
14 8 33 -15 43 -37 17 -9 -12 -27 -22 -39 -22 -19 0 -21 4 -17 26 6 33 -17 43
-43 19 -20 -18 -24 -15 -21 17 3 25 -18 32 -40 12 -17 -16 -19 -16 -19 -1 0
10 -5 17 -11 17 -6 0 -9 6 -6 14 8 21 -20 28 -38 10 -23 -24 -55 -9 -55 27 0
33 -25 40 -45 13 -8 -12 -20 -15 -39 -10 -23 6 -25 9 -16 26 17 31 -18 40 -41
11 -26 -31 -42 -17 -35 30 5 34 3 39 -15 39 -14 0 -25 -10 -32 -30 -6 -16 -15
-30 -20 -30 -10 0 -5 43 8 73 6 16 4 18 -16 15 -16 -2 -29 -15 -40 -37 -20
-43 -30 -29 -19 27 6 33 4 45 -6 49 -19 7 -34 -5 -34 -27 0 -26 -10 -50 -22
-50 -5 0 -8 19 -6 42 2 35 0 43 -15 46 -16 3 -18 -4 -15 -69 l3 -72 55 -18
c30 -10 61 -18 69 -18 8 -1 53 -15 100 -33 47 -17 94 -31 104 -30 9 0 17 -3
17 -7 0 -14 117 -61 240 -97 63 -19 158 -50 210 -70 52 -19 129 -48 170 -64
41 -15 170 -64 285 -109 116 -45 275 -107 355 -137 80 -31 163 -64 185 -74 22
-11 52 -22 68 -26 15 -3 27 -10 27 -14 0 -5 26 -17 58 -28 31 -12 77 -28 102
-37 25 -8 54 -20 65 -25 11 -5 67 -28 125 -50 58 -23 148 -59 200 -79 76 -30
107 -49 155 -94 l60 -57 -37 0 c-35 0 -38 -2 -38 -28 0 -33 27 -62 58 -62 17
0 22 -6 22 -26 0 -41 36 -82 82 -95 34 -9 43 -8 57 6 15 14 15 18 -2 46 -22
40 -22 48 3 42 22 -6 50 12 50 32 0 31 -105 110 -132 100 -8 -3 -25 6 -38 21
-30 32 -32 33 115 -21 55 -21 123 -45 150 -55 28 -10 75 -29 105 -43 30 -13
84 -37 120 -52 36 -15 103 -46 150 -68 86 -40 238 -102 340 -138 84 -30 106
-39 225 -101 372 -192 430 -214 473 -175 13 12 22 13 36 5 12 -7 25 -7 40 0
33 15 40 10 37 -27 -4 -52 25 -109 62 -117 51 -11 72 46 28 79 -9 7 -22 22
-29 35 -19 34 4 27 42 -13 24 -25 38 -33 54 -28 23 6 38 42 29 67 -8 21 3 27
26 15 25 -14 67 6 67 32 0 41 -92 79 -144 59 -20 -7 -32 -6 -49 5 -20 13 -26
13 -45 -1 -16 -11 -21 -22 -17 -35 5 -14 1 -19 -14 -19 -11 0 -23 -4 -26 -10
-13 -22 -25 -8 -25 29 0 57 -35 94 -120 126 -39 15 -73 31 -76 37 -3 5 -27 19
-53 30 -83 35 -314 139 -396 178 -44 21 -100 45 -125 53 -25 8 -117 45 -205
82 -88 37 -189 77 -225 90 -36 12 -105 38 -155 58 -118 46 -436 163 -605 223
-74 26 -139 50 -145 54 -5 4 -31 13 -58 20 -26 7 -50 17 -53 21 -3 5 -12 9
-20 9 -9 0 -63 23 -121 51 -58 28 -124 58 -147 66 -54 21 -53 20 -23 44 15 11
27 27 27 35 0 23 18 16 32 -13 17 -37 71 -45 88 -13 18 34 -16 78 -54 71 -43
-9 -72 29 -44 57 22 22 41 14 34 -13 -5 -18 -2 -25 8 -25 48 0 60 32 25 68
-17 19 -27 22 -61 17 -29 -5 -45 -2 -58 10 -27 24 -63 15 -74 -17 -8 -23 -6
-34 13 -58 13 -19 20 -38 16 -50 -4 -12 0 -22 11 -28 15 -8 14 -11 -7 -26 -13
-9 -27 -16 -32 -16 -18 0 -516 189 -533 202 -7 5 -47 22 -90 37 -112 42 -264
106 -305 129 -19 11 -77 35 -129 52 -52 18 -113 40 -135 50 -103 46 -169 71
-275 105 -63 20 -135 45 -160 55 -67 27 -184 70 -193 70 -4 0 -7 -8 -7 -18z
m1896 -548 c-6 -16 -8 -16 -22 -3 -9 9 -12 23 -8 33 6 16 8 16 22 3 9 -9 12
-23 8 -33z m899 -812 c-6 -6 -45 28 -45 39 0 5 11 -1 25 -13 14 -12 23 -24 20
-26z m-60 -52 c20 -38 19 -43 -5 -30 -12 6 -20 21 -20 35 0 33 6 31 25 -5z
m1545 -374 c5 -13 14 -27 19 -31 6 -3 11 -16 11 -28 -1 -19 -2 -20 -11 -5 -5
10 -16 15 -24 12 -8 -4 -15 -1 -15 5 0 15 -27 14 -33 -1 -2 -7 -8 -10 -12 -6
-4 4 0 14 8 23 9 8 14 22 11 30 -7 18 -16 19 -32 3 -9 -9 -12 -8 -12 5 0 13 9
17 40 17 34 0 42 -4 50 -24z m270 -36 c0 -5 -4 -10 -10 -10 -5 0 -10 5 -10 10
0 6 5 10 10 10 6 0 10 -4 10 -10z m141 0 c10 -6 19 -17 19 -25 0 -12 -9 -14
-42 -9 -48 7 -64 17 -54 33 9 14 51 14 77 1z m-67 -69 c7 -11 -3 -41 -14 -41
-4 0 -15 11 -24 25 -16 24 -16 25 8 25 14 0 27 -4 30 -9z m-74 -107 c0 -24
-30 -16 -40 12 -18 47 -12 59 15 30 14 -15 25 -34 25 -42z M1376 3681 c-8 -13
56 -51 86 -51 14 0 33 -9 42 -19 10 -11 30 -23 45 -26 34 -7 89 11 74 26 -6 6
-19 6 -37 -1 -24 -9 -32 -7 -58 15 -61 51 -138 79 -152 56z M972 3623 c30 -30
46 -26 28 6 -6 12 -21 21 -33 21 -21 0 -21 -1 5 -27z M3456 3383 c-12 -31 -6
-61 13 -66 21 -5 31 10 31 48 0 27 -35 41 -44 18z M3529 3353 c-5 -14 -8 -32
-5 -40 8 -19 36 -16 42 5 3 9 9 24 14 33 10 20 3 29 -22 29 -11 0 -23 -11 -29
-27z M50 2907 c0 -20 10 -28 68 -52 143 -59 198 -82 237 -100 62 -27 141 -55
155 -55 9 0 24 -6 35 -14 11 -7 74 -34 140 -61 66 -26 145 -58 176 -71 31 -13
60 -24 65 -24 4 0 26 -8 48 -19 105 -49 153 -69 176 -76 14 -3 59 -19 100 -35
41 -15 116 -42 165 -60 50 -18 104 -39 120 -45 51 -22 187 -73 245 -94 30 -10
87 -31 125 -45 39 -15 89 -34 113 -42 24 -8 71 -28 106 -44 61 -28 179 -75
281 -110 53 -19 242 -98 310 -131 38 -18 183 -71 285 -106 25 -8 56 -19 70
-25 14 -6 34 -14 45 -18 11 -4 56 -21 100 -38 44 -17 132 -49 195 -72 63 -23
124 -45 135 -50 11 -5 33 -11 49 -15 15 -3 47 -14 70 -24 72 -31 228 -93 311
-123 122 -44 223 -95 235 -118 15 -28 11 -30 -42 -34 -24 -1 -49 -6 -56 -10
-17 -10 -15 -26 3 -26 8 0 15 -4 15 -10 0 -5 -1 -10 -3 -10 -1 0 -17 -4 -34
-9 -26 -8 -37 -6 -58 11 -22 17 -26 27 -23 61 4 48 -12 57 -42 27 -26 -26 -44
-15 -45 27 0 36 -23 41 -35 7 -8 -20 -14 -24 -22 -16 -8 8 -8 15 1 26 7 8 10
20 6 26 -12 19 -42 10 -55 -17 -7 -16 -15 -23 -17 -16 -2 7 0 21 6 31 12 22 5
32 -21 32 -11 0 -23 -11 -28 -25 -14 -37 -23 -31 -16 10 6 31 4 35 -13 35 -11
0 -25 -9 -31 -20 -6 -11 -18 -20 -26 -20 -13 0 -12 5 5 29 25 35 25 37 5 45
-21 8 -44 -11 -44 -35 0 -11 -5 -19 -10 -19 -6 0 -9 14 -8 32 4 42 -27 52 -42
14 -11 -29 -22 -33 -39 -12 -9 10 -8 15 4 20 8 3 15 12 15 21 0 20 -39 20 -46
0 -11 -28 -31 -17 -26 15 4 26 1 30 -18 30 -14 0 -24 -8 -27 -20 -8 -30 -28
-19 -31 18 -2 24 -8 32 -22 32 -11 0 -23 -7 -28 -16 -14 -24 -55 0 -47 27 5
15 2 19 -19 19 -14 0 -28 -4 -31 -10 -14 -22 -35 -10 -35 20 0 35 -23 41 -40
10 -6 -11 -15 -18 -21 -15 -5 4 -5 14 1 26 6 11 8 24 5 29 -11 17 -43 11 -50
-10 -3 -11 -11 -20 -17 -20 -6 0 -7 7 -3 18 13 32 10 47 -11 50 -16 2 -23 -4
-28 -23 -5 -19 -11 -25 -22 -21 -9 3 -20 6 -25 6 -5 0 -9 8 -9 18 0 19 -18 42
-32 42 -4 0 -8 -9 -8 -20 0 -23 -1 -24 -35 -8 -23 10 -29 20 -26 41 3 18 -33
19 -46 1 -11 -15 -17 -16 -31 -7 -9 6 -16 18 -14 27 4 20 -27 33 -38 16 -12
-20 -40 -3 -40 24 0 32 -20 44 -27 17 -3 -12 -9 -21 -13 -21 -10 0 -36 31 -43
53 -9 23 -28 22 -34 -3 -8 -30 -37 -21 -41 13 -3 25 -30 40 -33 17 -1 -5 -2
-14 -3 -20 -2 -21 -21 -8 -21 15 0 13 -3 25 -7 25 -5 0 -12 0 -18 0 -5 0 -10
-9 -10 -21 0 -12 -5 -19 -12 -16 -7 2 -13 18 -13 35 -1 17 -4 34 -7 38 -12 11
-28 -7 -28 -33 0 -19 -4 -24 -16 -19 -9 3 -19 6 -24 6 -5 0 -4 14 1 32 6 23 5
34 -3 39 -18 11 -28 1 -28 -27 0 -14 -6 -24 -14 -24 -21 0 -36 24 -29 48 8 31
-32 31 -42 0 -7 -22 -7 -22 -14 6 -7 36 -30 46 -38 17 -7 -29 -23 -26 -23 4 0
29 -34 36 -44 8 -5 -13 -9 -14 -19 -4 -9 10 -8 15 6 26 12 8 14 15 8 20 -6 3
-11 15 -11 26 0 13 7 19 23 19 21 -1 21 -1 3 -15 -20 -16 -16 -30 13 -38 33
-8 54 14 42 45 -10 27 -48 43 -77 31 -13 -5 -16 -3 -11 10 9 25 -11 31 -39 12
-32 -21 -49 -62 -33 -82 7 -8 19 -11 28 -8 12 5 13 3 5 -5 -22 -22 -49 -7 -54
29 -6 43 -26 51 -41 17 -14 -30 -17 -31 -47 -10 -25 17 -29 52 -8 60 17 7 10
34 -9 34 -8 0 -25 -14 -39 -32 -29 -38 -45 -30 -28 14 6 17 9 35 6 39 -12 20
-33 7 -45 -26 -7 -19 -17 -35 -21 -35 -14 0 -9 39 8 65 9 13 13 29 9 35 -9 14
-42 -5 -50 -30 -8 -26 -25 -26 -25 0 0 21 -24 28 -35 10 -3 -5 -17 -10 -31
-10 -21 0 -23 4 -19 23 4 15 1 28 -9 36 -19 16 -36 6 -36 -20 0 -10 -4 -19
-10 -19 -10 0 -12 6 -14 49 -1 34 -23 38 -37 7 -19 -40 -43 -34 -36 8 8 48
-19 58 -37 15 -15 -36 -29 -24 -24 19 2 21 -1 27 -17 27 -13 0 -21 -8 -23 -22
-2 -13 -10 -23 -19 -23 -11 0 -14 7 -11 25 6 31 -19 57 -33 34 -5 -8 -9 -20
-9 -27 0 -7 -4 -10 -10 -7 -5 3 -7 25 -3 50 3 25 2 45 -3 46 -5 0 -22 2 -38 4
-33 4 -71 -28 -61 -53 3 -8 0 -12 -7 -9 -13 4 -13 12 -2 58 4 19 1 28 -11 33
-12 4 -20 -2 -28 -24 -15 -38 -27 -38 -27 0 0 40 -35 43 -44 4 -9 -33 -20 -23
-21 18 0 40 -21 47 -36 14 -7 -14 -16 -26 -21 -26 -5 0 -4 9 2 19 16 31 12 51
-10 51 -11 0 -20 -4 -20 -8 0 -5 -7 -17 -15 -28 -14 -17 -14 -16 -9 25 7 41 6
43 -15 36 -15 -4 -21 -3 -19 6 6 26 -32 21 -43 -5 -17 -37 -29 -32 -22 9 4 27
2 35 -10 35 -8 0 -17 7 -21 15 -9 24 -34 18 -50 -12 l-16 -28 3 34 c3 42 -18
52 -34 17 -14 -30 -40 -36 -32 -7 9 33 -19 36 -44 5 -17 -22 -23 -25 -23 -11
0 18 -25 24 -35 7 -12 -19 -37 -11 -30 9 8 26 -13 37 -29 16 -10 -14 -16 -15
-34 -6 -12 6 -22 20 -22 30 0 10 -7 24 -16 31 -13 11 -16 10 -21 -9 -4 -14
-11 -20 -20 -17 -8 3 -17 6 -19 6 -2 0 -2 11 2 24 8 34 -15 44 -36 16 -24 -32
-42 -18 -34 26 5 27 3 34 -10 34 -10 0 -19 -11 -23 -30 -4 -22 -11 -30 -22
-28 -17 4 -18 15 -6 61 7 25 5 28 -10 25 -10 -1 -23 -17 -29 -35 -8 -23 -15
-30 -24 -24 -10 6 -12 21 -7 56 7 42 6 47 -11 43 -11 -2 -22 -17 -28 -38 -5
-19 -10 -36 -11 -38 -1 -1 -18 4 -38 13 -34 14 -35 16 -30 57 l6 43 -22 -19
c-11 -11 -21 -25 -21 -33 0 -7 -5 -13 -11 -13 -7 0 -9 16 -4 50 5 34 3 50 -4
50 -16 0 -14 -127 2 -137 15 -10 73 -31 262 -97 83 -29 188 -71 235 -93 47
-23 99 -44 115 -47 17 -4 44 -13 60 -21 77 -35 126 -55 138 -55 8 0 54 -16
103 -35 178 -71 361 -135 387 -135 9 0 17 -4 17 -9 0 -4 28 -18 63 -30 34 -13
80 -31 103 -41 22 -10 57 -21 77 -25 20 -4 41 -13 48 -21 6 -7 26 -16 45 -20
19 -3 40 -14 47 -23 6 -9 28 -23 47 -30 19 -7 44 -17 55 -21 141 -55 262 -100
364 -134 103 -35 126 -46 133 -66 5 -14 16 -29 24 -33 8 -5 12 -12 9 -16 -2
-5 2 -14 10 -21 8 -7 15 -17 15 -23 0 -6 10 -21 22 -34 19 -21 20 -23 3 -23
-37 0 -61 -70 -33 -98 17 -17 22 -15 56 13 l30 25 22 -30 c17 -23 29 -30 55
-30 51 0 63 29 29 69 -14 17 -33 31 -42 31 -12 0 -10 6 9 26 l24 26 -24 19
c-14 11 -37 23 -52 26 -15 3 -40 18 -55 34 -31 32 -28 35 19 16 18 -8 57 -19
87 -26 56 -13 177 -57 195 -71 6 -4 33 -15 60 -23 45 -14 160 -56 360 -132 39
-14 90 -33 115 -42 25 -8 77 -30 115 -48 106 -49 135 -62 195 -85 30 -11 69
-27 85 -34 79 -36 108 -46 130 -46 13 0 27 -4 30 -10 3 -5 16 -10 28 -10 12 0
28 -9 35 -20 7 -11 19 -20 28 -20 9 0 34 -16 55 -35 43 -39 93 -46 139 -20 38
22 49 18 56 -20 4 -24 19 -46 47 -71 62 -52 117 -59 117 -14 0 14 10 24 30 31
32 12 39 36 17 58 -10 10 -7 12 13 10 47 -4 60 1 70 25 5 14 19 26 31 28 35 5
45 30 23 63 -17 27 -20 27 -85 22 -72 -6 -143 -35 -170 -69 -13 -16 -22 -19
-45 -14 -25 7 -26 9 -11 17 35 20 39 45 11 79 -26 31 -52 44 -179 95 -38 15
-117 47 -175 70 -58 24 -127 51 -155 60 -27 9 -58 21 -69 27 -22 11 -163 64
-329 122 -117 41 -118 41 -83 51 19 6 41 16 48 23 15 15 44 16 53 2 10 -16 74
-40 105 -40 36 0 65 32 52 57 -9 17 -7 19 24 19 54 0 68 33 34 77 -23 28 -76
42 -113 28 -21 -8 -26 -7 -30 10 -11 40 -103 7 -113 -41 -18 -84 -62 -102
-214 -88 -33 4 -158 44 -227 74 -17 8 -38 14 -46 14 -9 0 -18 4 -21 9 -3 4
-34 18 -68 31 -35 12 -90 36 -123 52 -33 16 -100 45 -150 63 -130 48 -226 84
-260 100 -32 14 -158 66 -265 108 -36 14 -110 42 -165 60 -55 19 -185 69 -290
111 -104 42 -224 87 -265 101 -70 22 -98 33 -210 82 -25 11 -94 39 -155 62
-206 80 -240 94 -258 109 -13 12 -20 13 -29 4 -15 -15 -38 -16 -38 -2 0 6 8
10 18 11 9 0 -12 11 -48 23 -36 13 -102 40 -147 60 -45 20 -84 36 -88 36 -3 0
-43 17 -88 39 -118 56 -127 58 -127 28z m760 -489 c0 -6 -6 -5 -15 2 -8 7 -15
14 -15 16 0 2 7 1 15 -2 8 -4 15 -11 15 -16z m134 -23 c-4 -8 -8 -15 -10 -15
-2 0 -4 7 -4 15 0 8 4 15 10 15 5 0 7 -7 4 -15z m350 -129 c-3 -14 -12 -26
-20 -26 -18 0 -18 5 2 36 20 30 27 26 18 -10z m2230 -452 c18 -7 22 -34 5 -34
-6 0 -20 5 -31 11 -17 9 -24 8 -34 -6 -7 -9 -19 -15 -26 -13 -8 3 1 13 22 26
38 24 41 25 64 16z m-61 -95 c-8 -8 -16 -8 -30 0 -16 9 -14 10 12 11 21 0 26
-3 18 -11z m-923 -69 c8 -5 11 -12 8 -16 -10 -9 -58 4 -58 16 0 13 30 13 50 0z
m-70 -65 c0 -12 -24 -55 -32 -55 -12 0 -10 34 4 48 12 12 28 16 28 7z m100
-40 c7 -9 10 -18 7 -22 -8 -7 -37 15 -37 28 0 14 16 11 30 -6z m1938 -337 c-6
-18 -57 -28 -97 -19 l-36 8 40 7 c22 4 47 9 55 11 32 6 42 5 38 -7z m-150 -71
c9 -10 4 -12 -23 -9 -19 2 -32 8 -29 13 8 13 40 11 52 -4z m77 4 c-18 -7 -55
-4 -55 5 0 2 17 4 38 3 28 0 32 -2 17 -8z m-96 -46 c9 -2 19 -4 24 -4 4 -1 7
-5 7 -11 0 -17 -44 -10 -70 11 l-25 20 24 -6 c13 -4 31 -9 40 -10z m-59 -31
c40 -36 50 -54 29 -54 -14 0 -79 65 -79 79 0 17 7 14 50 -25z M4164 2586 c23
-18 36 -20 36 -6 0 6 -4 10 -9 10 -5 0 -18 3 -28 6 -16 5 -16 4 1 -10z M50
2123 c0 -24 25 -37 107 -57 34 -9 95 -31 135 -50 40 -19 114 -48 163 -64 143
-48 205 -73 205 -83 0 -12 148 -81 247 -115 32 -11 53 -24 56 -36 4 -12 14
-18 33 -18 23 0 71 -19 156 -61 10 -5 27 -9 39 -9 19 0 66 -17 110 -40 8 -4
71 -26 140 -48 155 -50 370 -133 754 -292 17 -7 39 -16 50 -20 11 -5 41 -17
66 -28 25 -11 70 -28 100 -37 30 -9 62 -21 72 -26 10 -6 49 -21 85 -33 37 -13
75 -27 85 -31 12 -5 17 -2 17 10 0 23 24 13 28 -11 3 -22 27 -34 160 -79 127
-43 175 -61 247 -95 71 -33 126 -56 255 -105 87 -33 140 -55 181 -75 8 -4 49
-21 90 -38 221 -89 449 -206 449 -232 0 -6 -11 -16 -25 -22 -14 -6 -25 -18
-25 -27 0 -9 -12 -24 -26 -35 -33 -24 -50 -10 -33 28 7 14 9 29 6 32 -11 11
-39 -5 -44 -26 -3 -13 -13 -20 -27 -19 -11 0 -15 3 -8 6 7 3 19 18 27 34 14
26 14 29 -5 39 -10 6 -23 9 -27 9 -4 -1 -17 2 -27 6 -20 9 -46 -15 -46 -42 0
-19 37 -16 49 4 5 10 12 15 16 11 4 -3 -1 -18 -10 -32 l-17 -25 -44 22 c-41
20 -57 37 -34 37 6 0 10 11 10 25 0 33 -27 33 -42 -1 -9 -19 -17 -24 -32 -20
-12 3 -24 6 -27 6 -4 0 2 17 12 37 28 54 8 66 -33 21 -18 -20 -39 -33 -45 -31
-19 7 -16 21 12 51 31 33 31 42 4 42 -21 0 -59 -34 -59 -52 0 -4 -7 -8 -15 -8
-20 0 -19 8 5 48 21 34 18 57 -6 48 -8 -3 -14 -1 -14 3 0 5 -7 11 -15 15 -21
8 -57 -34 -52 -61 3 -19 1 -21 -15 -12 -13 7 -17 16 -12 34 5 20 2 25 -11 25
-10 0 -24 -8 -31 -18 -10 -13 -15 -14 -25 -5 -10 10 -9 15 1 27 7 9 9 24 5 33
-6 16 -9 15 -31 -11 -18 -21 -28 -26 -36 -18 -8 8 -6 18 6 36 20 32 20 36 -2
36 -10 0 -25 -11 -32 -25 -19 -35 -42 -33 -34 3 4 15 11 31 15 37 13 14 11 25
-6 25 -8 0 -19 -8 -24 -18 -22 -37 -28 -42 -43 -37 -14 6 -13 11 4 46 18 38
17 59 -3 59 -14 0 -50 -63 -44 -77 5 -16 0 -16 -25 -3 -19 10 -19 11 1 45 20
33 19 55 -1 55 -5 0 -19 -18 -30 -41 -17 -33 -24 -38 -35 -29 -8 7 -12 17 -8
24 23 36 -4 51 -28 16 -10 -14 -20 -18 -37 -14 -21 6 -23 11 -18 40 8 41 -7
51 -28 19 -17 -26 -32 -30 -55 -16 -10 7 -11 13 -1 31 6 12 9 29 5 38 -6 14
-11 12 -34 -16 -18 -21 -33 -30 -44 -26 -14 5 -14 9 3 40 19 33 19 34 1 34
-11 0 -28 -11 -39 -25 -13 -16 -26 -23 -36 -19 -19 7 -19 6 -6 39 17 44 0 51
-31 14 -31 -38 -50 -35 -24 5 9 14 14 30 10 36 -9 15 -35 12 -40 -5 -3 -8 -7
-22 -10 -31 -3 -8 -9 -12 -15 -9 -6 4 -5 18 4 40 8 18 12 36 8 39 -13 13 -33
4 -44 -19 -6 -14 -17 -25 -24 -25 -11 0 -10 8 3 35 14 28 14 38 4 48 -10 9
-16 7 -32 -12 -10 -13 -19 -30 -19 -38 0 -8 -6 -13 -13 -10 -13 4 -13 17 -1
55 9 32 -28 30 -46 -4 -14 -24 -14 -25 -22 -5 -8 22 -23 27 -33 11 -11 -18
-26 -10 -25 13 5 53 -16 65 -42 25 -8 -12 -19 -18 -26 -14 -9 5 -8 13 4 31 15
23 15 25 -2 32 -12 4 -24 -2 -39 -21 -25 -31 -38 -25 -24 12 21 55 -22 74 -46
20 l-14 -33 -1 32 c0 35 -18 54 -31 32 -21 -35 -27 -41 -37 -35 -7 4 -7 16 1
36 8 22 8 33 0 41 -11 11 -19 6 -48 -36 -19 -28 -31 -11 -15 20 10 19 11 28 2
37 -15 15 -41 3 -52 -27 -14 -38 -23 -30 -17 15 3 23 1 43 -6 47 -10 6 -41
-25 -49 -49 -3 -7 -12 -9 -21 -5 -16 6 -16 9 -2 36 20 40 19 51 -5 51 -13 0
-28 -12 -38 -30 -18 -32 -39 -42 -27 -12 27 61 -9 97 -38 37 -9 -19 -21 -35
-26 -35 -21 0 -21 21 0 49 23 32 20 46 -11 54 -15 4 -22 -1 -26 -18 -8 -32
-41 -62 -54 -49 -7 7 -5 21 6 42 8 17 13 36 9 42 -9 15 -45 12 -45 -4 0 -14
-39 -67 -40 -53 0 4 7 24 15 43 26 62 -9 77 -44 19 -11 -19 -27 -35 -36 -35
-19 0 -19 2 6 44 22 38 19 56 -10 56 -23 0 -38 -18 -43 -50 -2 -19 -8 -24 -23
-22 -29 5 -29 8 -5 47 24 40 21 65 -9 65 -15 0 -23 -10 -31 -40 -7 -25 -17
-40 -26 -40 -13 0 -14 8 -9 41 5 30 3 44 -6 50 -18 11 -39 -9 -39 -37 0 -15
-6 -24 -16 -24 -11 0 -14 6 -8 23 22 66 -8 87 -39 27 l-18 -35 6 33 c6 28 4
32 -14 32 -12 0 -26 -9 -33 -20 -12 -19 -38 -26 -51 -14 -3 4 0 16 8 28 21 29
19 46 -5 46 -12 0 -25 -10 -32 -25 -13 -28 -34 -35 -23 -7 16 38 16 49 0 56
-11 4 -21 -3 -33 -24 -17 -30 -42 -41 -42 -17 0 6 7 21 15 31 21 28 19 46 -5
46 -13 0 -26 -12 -37 -35 -22 -45 -38 -46 -19 -1 12 30 12 37 1 46 -18 15 -29
7 -45 -30 -13 -32 -18 -34 -38 -22 -9 7 -8 13 8 27 25 23 26 35 0 35 -10 0
-24 -9 -30 -20 -20 -37 -29 -21 -10 18 12 24 15 40 9 47 -13 13 -49 -29 -49
-56 0 -22 -28 -26 -36 -4 -3 8 4 32 17 54 12 23 19 44 15 48 -11 12 -40 -11
-56 -45 -8 -17 -18 -32 -22 -32 -15 0 -8 32 13 61 17 25 18 30 5 35 -21 8 -31
0 -50 -41 -17 -36 -30 -43 -41 -24 -4 6 3 21 15 34 12 13 17 25 12 29 -17 10
-38 -3 -53 -32 l-13 -27 -4 24 c-2 14 5 36 17 52 13 18 17 30 10 34 -13 9 -48
-23 -60 -52 -5 -15 -14 -21 -24 -17 -13 5 -12 12 10 49 20 35 22 44 10 49 -18
7 -65 -52 -58 -73 5 -14 3 -14 -12 1 -18 17 -18 19 0 58 10 22 15 43 12 46
-13 13 -37 -6 -51 -41 -15 -35 -25 -40 -59 -26 -17 6 -16 9 7 44 31 45 32 57
7 57 -21 0 -40 -20 -58 -59 l-11 -26 -1 30 c-1 17 7 41 16 54 l16 24 -32 -6
c-27 -6 -32 -4 -27 8 9 23 -22 18 -48 -8 -13 -13 -25 -29 -28 -37 -2 -7 -9
-10 -16 -6 -9 5 -8 14 3 36 8 16 15 34 15 40 0 21 -29 9 -50 -22 l-21 -33 4
30 c3 17 8 40 12 53 5 16 3 22 -7 22 -17 0 -58 -41 -58 -58 0 -7 -4 -12 -10
-12 -17 0 -11 26 10 45 26 24 25 35 -3 35 -15 0 -29 -11 -42 -32 -15 -25 -20
-29 -23 -16 -2 9 4 28 13 42 9 14 14 30 10 36 -9 15 -38 -3 -55 -34 -15 -29
-35 -35 -27 -8 20 62 20 62 -2 62 -19 0 -21 -5 -21 -64 0 -73 4 -78 75 -95 28
-7 64 -20 81 -31 17 -10 60 -28 95 -40 35 -13 75 -31 88 -41 13 -11 30 -19 38
-19 7 0 16 -6 18 -12 3 -7 22 -14 43 -14 24 -1 92 -29 192 -77 86 -42 173 -82
195 -90 22 -7 96 -34 165 -59 69 -25 166 -58 215 -73 50 -15 124 -43 165 -62
41 -19 95 -42 120 -50 25 -8 107 -39 183 -69 77 -30 181 -68 232 -84 51 -17
125 -44 165 -60 40 -17 83 -30 96 -30 13 0 24 -5 24 -10 0 -6 12 -15 28 -20
15 -6 36 -14 47 -19 11 -5 45 -18 75 -29 30 -11 107 -44 170 -74 63 -30 137
-63 164 -73 113 -41 112 -47 -14 -42 -138 6 -281 21 -450 49 -69 11 -141 21
-160 23 -19 2 -73 12 -120 23 -126 30 -176 40 -270 53 -47 6 -93 16 -103 21
-11 5 -53 15 -95 22 l-77 11 3 37 c2 21 0 43 -4 50 -5 7 -7 24 -6 38 3 30 -3
38 -49 73 -38 29 -71 33 -115 17 -27 -11 -29 -30 -9 -82 7 -16 5 -16 -26 -1
-42 21 -180 22 -206 2 -16 -12 -17 -12 -6 2 10 12 9 20 -3 37 -16 23 -48 29
-59 12 -9 -15 -18 -13 -65 19 -37 24 -43 34 -45 64 -2 49 -30 79 -72 75 -17
-1 -35 1 -39 5 -4 4 -17 7 -30 7 -16 0 -28 11 -41 38 -17 35 -21 37 -70 40
-49 3 -53 1 -68 -28 -13 -26 -19 -29 -35 -20 -14 7 -25 7 -38 -1 -24 -15 -62
-71 -62 -91 0 -11 -7 -14 -26 -10 -16 3 -35 -3 -53 -16 -18 -13 -36 -18 -55
-15 -22 5 -35 -2 -67 -33 -21 -21 -39 -46 -39 -56 0 -20 -32 -43 -72 -53 -23
-6 -28 -13 -28 -37 0 -28 2 -29 37 -25 50 5 81 19 118 51 17 14 40 26 52 26
12 0 41 8 65 18 24 11 66 19 93 19 l50 1 -42 -19 c-25 -10 -52 -32 -65 -53
-13 -20 -42 -44 -68 -56 -47 -22 -166 -50 -212 -50 -21 0 -28 -5 -28 -20 0
-26 21 -26 146 5 94 22 174 57 174 75 0 4 9 19 21 34 17 21 24 24 35 15 15
-12 25 -7 70 36 30 28 120 75 143 75 11 0 23 5 26 10 12 19 164 -30 215 -69
19 -14 49 -32 65 -40 17 -7 37 -17 47 -22 9 -4 31 -4 48 1 45 13 159 4 197
-15 25 -13 59 -48 78 -82 2 -5 126 -36 193 -49 40 -7 78 -16 84 -20 14 -9 77
-21 153 -30 28 -3 104 -17 170 -30 66 -14 161 -31 210 -39 194 -29 233 -35
310 -45 143 -19 447 -33 466 -22 17 11 83 -10 195 -64 28 -13 54 -24 58 -24 4
0 40 -15 79 -34 40 -18 81 -37 92 -41 18 -7 17 -9 -12 -21 -44 -19 -42 -44 2
-34 6 1 21 2 35 2 14 0 28 5 32 11 5 8 13 8 30 -1 54 -27 287 -124 331 -138
47 -15 68 -42 24 -30 -13 3 -57 8 -98 11 -64 5 -125 13 -299 40 -85 13 -122
16 -230 19 -124 4 -326 28 -430 52 -76 18 -260 49 -343 59 -53 6 -102 15 -312
59 -44 10 -111 33 -148 52 -38 19 -77 34 -87 34 -14 0 -18 7 -17 27 2 20 -4
28 -24 33 -15 4 -35 2 -49 -5 -20 -11 -28 -9 -57 7 -18 11 -33 22 -33 25 0 7
90 -3 213 -24 53 -9 100 -14 102 -11 3 3 3 12 0 20 -4 11 -38 20 -113 31 -91
14 -244 29 -304 31 -10 0 -18 5 -18 12 0 17 -34 44 -58 44 -26 0 -55 -28 -48
-46 3 -8 -1 -14 -10 -14 -10 0 -14 6 -11 14 3 7 0 19 -6 25 -16 16 -57 14 -63
-4 -5 -12 -17 -14 -56 -9 -45 6 -50 5 -47 -11 4 -20 57 -38 146 -50 32 -5 63
-9 68 -10 6 0 21 -4 35 -7 14 -4 59 -14 100 -23 61 -14 84 -25 127 -62 47 -40
57 -45 87 -39 25 5 50 -1 102 -25 38 -17 111 -39 162 -50 51 -10 117 -25 145
-33 29 -8 63 -14 77 -14 29 0 295 -39 360 -53 87 -20 396 -58 510 -64 63 -3
142 -10 175 -15 33 -5 85 -11 115 -14 30 -3 82 -10 115 -15 33 -6 79 -11 102
-11 23 0 44 -4 47 -9 6 -9 -123 -20 -204 -16 -91 4 -251 17 -320 25 -36 4
-261 8 -500 9 -239 1 -448 4 -463 6 -53 7 -292 15 -467 17 -96 1 -178 3 -182
5 -4 2 -90 4 -192 4 -101 0 -257 5 -346 9 -181 10 -200 8 -174 -21 9 -11 24
-19 33 -19 12 0 13 -2 3 -9 -13 -8 -655 -5 -775 3 -55 4 -58 3 -55 -17 l3 -22
390 -3 c215 -1 408 0 431 3 23 3 51 15 63 27 19 17 31 19 69 14 26 -3 163 -6
305 -7 221 0 257 -3 257 -15 0 -13 3 -13 17 1 11 12 26 15 47 11 47 -9 704
-25 1221 -31 190 -2 413 -13 579 -27 71 -6 161 -8 200 -4 39 4 111 9 159 11
48 3 96 9 106 15 14 7 28 5 51 -6 28 -15 44 -15 90 -3 8 2 15 -2 16 -8 1 -7 2
-17 3 -22 2 -17 120 -71 151 -69 47 4 57 23 36 63 -21 39 -52 55 -107 55 -22
0 -38 4 -35 9 3 4 67 11 143 14 151 6 201 18 232 58 18 23 19 28 6 39 -32 26
-22 28 168 34 26 0 47 -2 47 -6 0 -5 -6 -8 -14 -8 -44 0 -35 -66 11 -75 69
-15 67 -24 -4 -24 -42 -1 -73 -5 -73 -11 0 -17 5 -25 12 -23 5 2 8 -1 8 -6 0
-5 -8 -11 -17 -14 -42 -13 -175 -76 -192 -92 -23 -20 -128 -43 -231 -50 -158
-11 -206 -15 -235 -20 -59 -9 -524 -26 -765 -28 -216 -1 -464 8 -480 18 -3 2
-110 6 -238 10 -193 5 -232 3 -232 -8 0 -11 42 -15 213 -21 228 -7 345 -13
446 -25 128 -15 880 1 1086 24 22 2 105 9 184 15 79 6 154 16 168 21 13 5 34
9 46 9 12 0 38 9 57 20 19 11 69 36 110 55 41 20 84 47 96 61 20 25 84 43 84
24 0 -6 -6 -10 -14 -10 -7 0 -19 -6 -25 -13 -15 -19 13 -43 61 -52 39 -7 43
-27 5 -24 -40 3 -53 -1 -76 -22 -17 -16 -20 -24 -10 -35 8 -10 8 -14 1 -14 -6
0 -9 -7 -6 -15 4 -8 15 -15 26 -15 16 0 19 5 13 28 -8 37 12 54 57 50 36 -3
37 -8 25 -86 -6 -34 -4 -44 9 -49 32 -12 49 23 53 114 1 8 12 11 31 9 18 -2
30 1 30 8 0 6 -12 13 -26 14 -53 4 -56 32 -3 32 19 0 29 5 29 15 0 10 -10 15
-29 15 -34 0 -44 10 -31 29 4 8 17 12 29 8 12 -3 23 -2 26 3 2 4 -10 10 -27
14 -33 7 -29 21 7 28 11 2 21 13 23 25 3 17 -3 22 -25 25 -16 2 -29 10 -31 19
-2 12 4 15 28 11 22 -3 30 0 30 11 0 9 -10 18 -22 20 l-23 4 23 2 c15 1 22 7
22 21 0 16 -7 20 -30 20 -20 0 -30 5 -30 15 0 13 26 21 53 16 5 -1 7 16 5 36
l-3 38 -234 -3 c-129 -1 -238 -5 -243 -8 -5 -3 -7 -11 -5 -17 4 -12 219 -13
347 -1 l75 6 -23 -24 c-13 -14 -21 -35 -20 -49 l3 -24 -182 0 c-162 0 -184 -2
-200 -18 -17 -17 -17 -19 7 -37 44 -33 18 -43 -142 -55 l-93 -7 22 21 c28 26
29 43 5 64 -23 21 -45 21 -81 2 -24 -12 -31 -12 -40 -1 -6 7 -33 21 -59 31
-26 10 -51 21 -57 26 -16 12 -214 110 -295 146 l-75 34 80 -6 c44 -3 123 -8
175 -10 52 -3 111 -8 131 -11 31 -4 37 -2 42 15 4 17 13 20 53 19 27 0 56 -6
66 -12 22 -13 54 4 52 28 -2 18 11 22 21 6 4 -6 15 -8 24 -5 20 6 37 -10 43
-40 5 -28 42 -27 46 1 4 25 46 38 73 23 12 -6 28 -1 55 17 52 36 88 25 92 -28
3 -36 4 -37 55 -46 46 -8 57 -6 96 15 45 24 81 30 81 14 0 -18 59 -31 86 -19
23 11 25 16 22 67 l-3 56 -35 -3 c-19 -1 -62 -3 -95 -3 -90 0 -100 -4 -121
-49 -21 -44 -44 -53 -44 -17 0 28 -23 50 -66 65 -26 8 -37 7 -60 -9 -16 -10
-40 -19 -54 -19 -23 0 -26 4 -26 33 l0 33 72 -2 c40 -1 78 -5 84 -9 24 -15 68
-13 150 7 173 42 200 52 200 69 0 15 -5 16 -37 7 -21 -6 -45 -14 -53 -18 -27
-14 -210 -42 -228 -35 -9 4 -55 11 -102 16 -140 14 -170 20 -183 38 -6 10 -18
21 -24 25 -13 7 -71 -23 -148 -75 -63 -43 -124 -50 -430 -50 -154 0 -288 0
-297 0 -15 0 -120 44 -173 74 -11 6 -30 16 -42 22 -23 12 -23 12 -3 30 11 10
17 22 14 27 -7 11 -73 1 -91 -14 -8 -6 -19 -4 -35 6 -13 8 -77 33 -143 55
-170 57 -198 67 -236 90 -20 11 -96 41 -170 66 -73 25 -143 50 -154 55 -27 13
-398 164 -505 205 -47 19 -130 53 -185 78 -55 24 -134 54 -175 66 -41 12 -100
34 -130 48 -30 14 -118 45 -195 68 -77 23 -171 57 -210 74 -38 18 -106 46
-150 63 -44 17 -91 41 -105 54 -14 12 -37 26 -53 29 -15 4 -29 11 -32 15 -3 5
-31 16 -63 25 -31 10 -70 23 -87 30 -16 7 -41 16 -55 20 -14 4 -65 27 -115 51
-49 23 -109 47 -132 53 -59 15 -116 31 -130 37 -8 4 -13 -2 -13 -13z m332
-268 c-2 -14 -8 -25 -12 -25 -4 0 -5 11 -2 25 2 14 8 25 12 25 4 0 5 -11 2
-25z m242 -473 c11 -13 15 -34 14 -71 -2 -51 -3 -52 -46 -71 -24 -11 -48 -17
-53 -14 -5 3 -30 -2 -55 -11 -26 -9 -47 -14 -48 -13 -8 13 9 108 22 126 21 26
62 20 62 -9 0 -23 28 -25 36 -4 5 12 10 13 20 4 24 -20 47 -3 39 28 -9 36 -27
47 -42 26 -12 -15 -13 -15 -13 -1 0 30 40 36 64 10z m776 -252 c0 -5 -2 -10
-4 -10 -3 0 -8 5 -11 10 -3 6 -1 10 4 10 6 0 11 -4 11 -10z m2895 -256 c28
-18 33 -34 10 -34 -8 0 -19 -9 -25 -20 -8 -14 -17 -19 -33 -15 -15 4 -33 -2
-51 -16 -24 -18 -40 -22 -109 -22 -45 0 -89 -3 -98 -8 -8 -4 -22 -3 -30 2 -7
5 -12 9 -9 10 26 4 53 8 101 14 30 3 67 14 80 23 141 95 128 89 164 66z m-493
-106 c135 4 141 3 128 -13 -13 -16 -28 -17 -142 -11 -146 7 -164 11 -146 34
11 13 13 13 16 0 2 -12 26 -13 144 -10z m-257 -8 c3 -5 2 -10 -4 -10 -5 0 -13
5 -16 10 -3 6 -2 10 4 10 5 0 13 -4 16 -10z m-25 -210 c0 -5 -5 -10 -11 -10
-5 0 -7 5 -4 10 3 6 8 10 11 10 2 0 4 -4 4 -10z m1300 -106 c0 -21 -26 -28
-72 -18 -46 10 -61 31 -26 36 45 6 98 -4 98 -18z m-640 -4 c-24 -15 -37 -11
-16 5 11 8 22 12 25 9 3 -3 -1 -9 -9 -14z m-54 -37 c-10 -10 -19 5 -10 18 6
11 8 11 12 0 2 -7 1 -15 -2 -18z m679 -98 c0 -16 -6 -19 -30 -17 -39 5 -55 20
-35 33 25 16 65 7 65 -16z m-617 -18 c15 -12 16 -27 2 -27 -18 0 -60 32 -55
41 6 9 32 2 53 -14z M3253 1112 c-20 -13 -34 -61 -23 -82 8 -15 6 -21 -7 -29
-10 -5 -16 -11 -13 -13 22 -17 62 -38 72 -38 7 0 24 -9 38 -20 32 -25 81 -25
130 0 43 22 53 52 23 65 -15 7 -14 9 7 14 29 8 40 48 16 57 -9 3 -16 12 -16
20 0 31 -87 29 -122 -3 -16 -15 -18 -15 -18 0 0 28 -58 48 -87 29z m214 -55
c-2 -6 -17 -14 -33 -19 -16 -4 -35 -16 -43 -25 -13 -17 -13 -17 -7 0 3 10 6
23 6 27 0 14 52 39 68 33 7 -3 11 -10 9 -16z m-167 -1 c0 -17 -14 -29 -23 -20
-8 8 3 34 14 34 5 0 9 -6 9 -14z m45 -68 c-7 -20 -5 -21 44 -15 30 4 51 2 51
-3 0 -10 -16 -13 -82 -14 -39 -1 -57 21 -35 43 18 18 29 12 22 -11z M2040
1100 c0 -5 18 -21 40 -35 43 -27 51 -45 22 -45 -32 0 -62 -29 -62 -60 0 -37
28 -54 65 -40 21 8 31 6 53 -10 38 -28 85 -36 101 -17 10 13 9 21 -4 46 -8 17
-20 31 -25 31 -6 0 -5 9 2 21 11 18 10 23 -11 40 -14 11 -31 17 -42 14 -12 -4
-22 1 -29 15 -18 33 -110 66 -110 40z m70 -129 c0 -12 -20 -25 -27 -18 -7 7 6
27 18 27 5 0 9 -4 9 -9z m100 -32 c12 -22 10 -23 -25 -7 -30 14 -32 23 -5 25
11 1 25 -7 30 -18z M3165 1010 c4 -6 11 -8 16 -5 14 9 11 15 -7 15 -8 0 -12
-5 -9 -10z M430 946 c-75 -13 -146 -26 -158 -30 -31 -10 -28 2 4 14 32 12 22
31 -14 26 -15 -2 -53 -7 -84 -11 -32 -4 -66 -14 -75 -21 -17 -12 -17 -14 3
-34 19 -19 22 -20 63 -5 34 12 42 12 38 2 -6 -15 29 -41 43 -32 10 6 31 11
210 43 119 22 366 36 375 21 4 -5 -9 -9 -27 -9 -18 0 -100 -12 -183 -26 -153
-26 -273 -39 -450 -50 -55 -3 -106 -7 -112 -9 -7 -3 -13 -20 -13 -39 0 -33 1
-34 34 -31 19 2 42 8 53 13 15 8 42 14 133 28 8 1 47 5 85 8 218 17 256 23
404 59 24 5 100 11 170 11 108 2 130 -1 154 -17 19 -13 27 -27 27 -48 0 -19 5
-29 15 -29 17 0 49 56 42 74 -3 6 1 20 9 31 19 26 18 49 -4 68 -24 22 -47 21
-80 -3 -26 -18 -30 -19 -107 -4 -45 9 -155 17 -250 19 -143 3 -192 0 -305 -19z
M1976 805 c-18 -19 -5 -50 23 -52 9 -1 36 -6 61 -12 25 -6 79 -18 120 -26 90
-17 125 -27 165 -49 17 -9 39 -16 51 -16 11 0 24 -3 28 -7 3 -4 14 -8 24 -9 9
-2 37 -6 62 -9 77 -12 113 -16 160 -21 25 -2 70 -8 100 -13 141 -24 209 -33
255 -32 28 1 85 -8 127 -19 72 -19 108 -19 108 0 0 5 -9 11 -20 14 -11 3 -29
9 -40 12 -15 4 -20 0 -21 -13 0 -15 -2 -14 -9 4 -10 25 -30 29 -164 38 -50 3
-109 10 -132 15 -44 10 -188 29 -264 35 -91 7 -222 35 -253 53 -37 23 -168 58
-248 67 -43 5 -57 11 -65 28 -11 27 -46 33 -68 12z M1336 727 c-31 -23 -17
-59 34 -84 25 -13 52 -21 61 -19 9 2 21 -5 28 -15 14 -24 33 -24 54 -1 13 14
14 21 5 30 -7 7 -18 12 -25 12 -7 0 -13 6 -13 13 0 20 -76 77 -103 77 -13 0
-31 -6 -41 -13z M685 688 c-19 -18 -35 -38 -35 -45 0 -17 46 -46 60 -38 5 3
15 -6 20 -20 13 -33 44 -30 48 5 2 14 8 37 14 52 8 22 7 33 -6 53 -23 35 -58
32 -101 -7z M843 670 c-18 -11 -33 -26 -33 -33 0 -16 27 -41 53 -50 9 -4 17
-11 17 -17 0 -5 7 -10 15 -10 23 0 55 60 48 90 -11 45 -47 53 -100 20z M1198
683 c-25 -4 -58 -35 -58 -56 0 -13 66 -37 100 -37 38 0 90 26 90 45 0 7 -12
23 -26 34 -26 20 -47 23 -106 14z M73 630 c-29 -12 -33 -77 -5 -87 9 -4 22
-13 28 -22 15 -19 44 -7 44 18 0 11 5 23 10 26 6 3 10 -3 10 -14 0 -11 7 -26
16 -33 8 -7 29 -25 46 -40 17 -16 33 -28 35 -28 2 0 14 11 27 25 l23 25 15
-22 c14 -21 14 -21 57 20 36 35 42 46 37 67 -5 20 -11 25 -25 20 -11 -3 -21 0
-24 8 -6 17 -47 30 -47 15 0 -5 -10 -2 -22 6 -33 23 -72 19 -107 -10 -29 -24
-31 -24 -31 -6 0 13 -10 24 -31 31 -18 6 -32 11 -33 10 -1 0 -11 -4 -23 -9z
M4023 625 c-8 -21 0 -27 41 -31 40 -3 54 9 36 31 -17 20 -69 19 -77 0z M4184
629 c-9 -15 12 -33 30 -26 9 4 16 13 16 22 0 17 -35 21 -46 4z M4297 623 c-17
-16 -5 -33 23 -33 23 0 30 4 30 20 0 14 -7 20 -23 20 -13 0 -27 -3 -30 -7z
M1360 563 c-23 -30 -14 -43 31 -43 43 0 70 50 33 64 -28 11 -42 6 -64 -21z
M1508 559 c-29 -16 -22 -41 10 -37 19 2 28 9 30 26 4 24 -11 28 -40 11z M448
543 c-22 -5 -24 -46 -3 -63 9 -7 23 -9 37 -4 13 5 37 8 53 9 25 0 30 4 30 25
0 21 -5 25 -32 26 -18 0 -36 3 -39 7 -8 7 -18 7 -46 0z M1496 249 c-14 -11
-26 -30 -26 -42 0 -20 -6 -22 -62 -25 -34 -2 -70 -8 -79 -13 -27 -14 -293 -13
-319 1 -17 9 -32 8 -70 -4 -41 -13 -83 -15 -257 -10 -114 3 -259 7 -320 8 -99
2 -114 4 -127 21 -14 20 -15 20 -45 -3 -17 -12 -33 -22 -36 -22 -2 0 -4 17 -3
38 0 22 -2 44 -6 50 -10 16 -65 -18 -72 -45 -4 -13 -10 -23 -15 -23 -5 0 -9
-14 -9 -31 0 -29 2 -31 29 -27 22 3 31 0 34 -14 5 -19 51 -26 61 -9 8 13 148
23 276 19 63 -2 188 -3 278 -3 148 0 188 -6 147 -21 -41 -16 -2 -24 120 -24
111 0 135 3 135 14 0 8 -9 18 -20 21 -43 14 -6 23 76 19 67 -2 99 1 143 16 62
22 170 27 189 8 7 -7 12 -20 12 -31 0 -28 33 -17 40 13 5 21 12 25 49 28 61 5
75 -2 59 -28 -10 -16 -10 -22 4 -36 32 -33 84 11 54 45 -14 16 -11 17 34 15
27 -2 58 -8 69 -14 12 -6 28 -10 36 -8 7 2 21 -6 29 -17 13 -17 18 -18 35 -8
17 11 27 10 60 -8 32 -16 44 -18 61 -9 17 9 24 9 33 -4 8 -10 20 -14 34 -10
28 8 36 29 17 44 -24 21 -16 28 34 26 26 0 49 4 52 9 3 6 -24 11 -70 13 -52 2
-77 7 -83 17 -10 18 -31 19 -60 3 -12 -7 -37 -12 -54 -13 -29 0 -33 3 -33 26
0 33 -17 49 -55 49 -37 0 -55 -16 -55 -47 0 -26 -8 -29 -24 -9 -9 11 -17 12
-36 3 -14 -5 -53 -11 -87 -13 -63 -2 -63 -2 -63 25 0 57 -64 79 -114 40z m594
-109 c0 -5 -2 -10 -4 -10 -3 0 -8 5 -11 10 -3 6 -1 10 4 10 6 0 11 -4 11 -10z
m-1020 -30 c-19 -13 -30 -13 -30 0 0 6 10 10 23 10 18 0 19 -2 7 -10z M4891
167 c-12 -15 -5 -27 16 -27 7 0 13 9 13 20 0 23 -13 26 -29 7z M1418 139 c-23
-13 -23 -46 0 -58 14 -7 25 -6 40 5 27 19 28 40 3 54 -23 12 -22 12 -43 -1z"/>
</g>
</svg>
