<?xml version="1.0" standalone="no"?>
<!DOCTYPE svg PUBLIC "-//W3C//DTD SVG 20010904//EN"
 "http://www.w3.org/TR/2001/REC-SVG-20010904/DTD/svg10.dtd">
<svg version="1.0" xmlns="http://www.w3.org/2000/svg"
 width="500.000000pt" height="878.000000pt" viewBox="0 0 500.000000 878.000000"
 preserveAspectRatio="xMidYMid meet">
<metadata>
Created by potrace 1.16, written by Peter Selinger 2001-2019
</metadata>
<g transform="translate(0.000000,878.000000) scale(0.100000,-0.100000)"
fill="#000000" stroke="none">
<path d="M2247 8713 c3 -10 17 -42 30 -72 13 -29 22 -55 21 -57 -4 -4 -57 -12
-88 -13 -23 -2 -24 -3 -8 -15 14 -10 59 -12 195 -9 98 2 196 6 218 9 45 8 115
10 130 5 6 -2 43 -3 83 -2 54 1 73 4 70 14 -3 6 -22 14 -44 17 l-39 5 -3 68
c-3 66 -3 67 -31 67 -32 0 -45 -27 -34 -69 4 -14 1 -26 -8 -32 -12 -8 -12 -10
1 -18 12 -9 12 -11 -2 -16 -29 -11 -37 4 -35 68 l2 62 -33 3 c-32 3 -34 2 -32
-30 5 -85 1 -108 -20 -108 -17 0 -20 7 -22 53 0 28 -1 60 0 70 1 13 -6 17 -27
17 -37 0 -43 -18 -32 -87 4 -29 8 -53 7 -53 -1 -1 -38 -3 -83 -5 -91 -4 -89
-8 -48 69 38 74 38 76 0 76 -22 0 -35 -5 -35 -13 0 -7 -9 -31 -19 -53 l-20
-39 -22 53 c-19 45 -25 52 -50 52 -23 0 -27 -4 -22 -17z M2600 8220 c0 -5 5
-10 10 -10 6 0 10 5 10 10 0 6 -4 10 -10 10 -5 0 -10 -4 -10 -10z M50 8148 c0
-7 14 -22 30 -31 17 -10 30 -16 30 -12 0 3 23 -10 51 -30 28 -19 59 -35 69
-35 13 0 17 -6 13 -19 -6 -24 13 -36 33 -20 12 10 19 9 36 -9 16 -16 25 -18
38 -10 14 9 47 2 151 -32 74 -23 150 -49 169 -57 19 -8 44 -19 55 -23 21 -9
224 -79 239 -83 5 -1 10 3 13 9 4 13 -41 35 -117 59 -30 9 -64 21 -75 25 -34
14 -198 72 -230 80 -16 4 -63 20 -103 35 -40 15 -78 25 -85 22 -7 -3 -21 1
-31 9 -11 7 -23 11 -28 8 -5 -3 -15 0 -23 6 -8 7 -15 9 -15 4 0 -5 -6 -2 -13
6 -12 15 -36 31 -92 60 -16 8 -37 20 -45 25 -8 5 -19 10 -25 11 -5 1 -18 5
-27 9 -12 5 -18 2 -18 -7z M62 7998 c-7 -7 -12 -37 -12 -68 0 -56 0 -56 38
-70 20 -8 39 -14 42 -15 3 0 37 -13 75 -27 39 -15 95 -34 127 -43 31 -9 62
-22 68 -30 7 -8 25 -15 41 -15 15 0 34 -7 43 -15 8 -8 21 -15 29 -15 20 0 84
-27 91 -39 3 -5 22 -12 41 -15 19 -4 90 -33 158 -65 111 -54 169 -75 282 -103
22 -5 54 -15 70 -22 17 -7 41 -18 55 -24 14 -5 43 -17 65 -27 72 -30 79 -32
165 -64 47 -17 99 -36 115 -42 83 -33 135 -52 185 -70 30 -11 82 -30 115 -43
33 -14 89 -36 125 -49 36 -14 119 -46 185 -72 66 -25 179 -68 250 -96 72 -28
153 -59 180 -71 28 -11 76 -29 108 -40 31 -12 57 -25 57 -31 0 -6 12 -26 28
-46 15 -20 32 -45 37 -56 13 -26 66 -44 132 -44 53 -1 82 -17 41 -23 -32 -4
-34 -33 -3 -64 22 -22 31 -25 65 -19 34 6 40 4 40 -11 0 -32 49 -103 76 -110
34 -9 42 2 45 56 3 49 -12 86 -45 112 -16 13 -18 20 -10 28 9 9 20 7 45 -5 18
-10 70 -30 116 -46 46 -16 103 -38 126 -48 23 -11 83 -35 132 -54 249 -96 281
-108 480 -192 228 -96 404 -158 447 -159 25 0 45 7 61 22 13 12 30 22 38 22 8
0 34 -23 58 -51 51 -59 99 -83 148 -74 25 4 34 12 39 32 6 21 2 30 -22 47 -16
12 -45 36 -65 53 -20 18 -42 33 -48 33 -7 0 -10 4 -7 8 7 12 96 14 96 3 0 -14
79 -59 113 -65 21 -4 27 -1 27 14 0 12 -14 23 -42 35 -42 16 -99 55 -81 55 5
0 13 -3 17 -7 4 -5 30 -13 57 -19 45 -10 49 -10 49 8 0 13 -9 20 -30 25 -30 6
-38 17 -20 28 23 14 10 52 -23 70 -30 16 -37 16 -63 4 -16 -8 -36 -29 -45 -47
-18 -38 -35 -52 -66 -52 -17 0 -23 6 -23 23 0 51 -30 71 -180 118 -41 13 -145
52 -230 87 -212 86 -391 154 -415 157 -11 2 -49 15 -85 30 -36 15 -101 40
-144 57 -44 16 -96 36 -116 45 -64 28 -168 67 -210 79 -22 6 -110 44 -267 115
-23 10 -46 19 -51 19 -5 0 -49 16 -98 36 -49 19 -120 46 -159 59 -117 39 -257
91 -305 112 -25 11 -65 28 -90 38 -25 10 -69 28 -98 41 -29 13 -57 24 -62 24
-6 0 -18 4 -28 10 -9 5 -53 23 -97 40 -44 17 -93 38 -110 45 -25 12 -199 74
-259 92 -10 3 -41 18 -69 34 l-51 28 28 11 c25 9 32 8 48 -10 23 -25 66 -23
82 3 8 13 7 24 -6 48 -10 17 -18 41 -18 53 0 33 -43 76 -69 69 -11 -3 -25 -11
-32 -19 -9 -11 -15 -9 -32 12 -24 27 -79 41 -121 30 -54 -13 -13 -101 48 -101
27 0 31 -4 34 -29 4 -29 3 -29 -41 -24 -24 3 -78 18 -118 33 -160 59 -334 129
-344 137 -14 12 -25 10 -25 -6 0 -11 116 -76 136 -76 3 0 33 -13 67 -29 34
-17 87 -40 117 -51 30 -12 59 -25 65 -30 5 -4 26 -11 45 -15 19 -4 94 -36 165
-71 72 -34 164 -72 205 -84 41 -12 89 -28 105 -36 17 -7 90 -36 163 -64 73
-28 141 -54 150 -59 16 -9 89 -38 242 -98 36 -14 128 -47 205 -73 195 -66 406
-146 500 -190 33 -15 78 -34 100 -42 22 -9 76 -29 120 -46 44 -17 114 -42 155
-55 41 -14 98 -35 125 -47 85 -38 108 -47 159 -64 27 -9 73 -28 103 -41 30
-14 77 -34 106 -44 217 -80 440 -175 463 -198 25 -24 44 -29 59 -14 11 11 85
-9 85 -22 0 -5 -9 -22 -20 -38 -18 -24 -24 -27 -46 -19 -43 17 -59 -7 -27 -42
14 -16 15 -20 2 -33 -8 -7 -23 -15 -34 -17 -16 -2 -19 2 -18 20 3 23 -20 31
-32 12 -12 -19 -33 -11 -28 10 4 15 0 20 -16 20 -12 0 -21 -6 -21 -15 0 -19
-6 -19 -63 1 -34 11 -47 21 -47 35 0 10 -7 19 -15 19 -8 0 -15 -4 -15 -9 0 -5
-9 -7 -21 -4 -12 4 -18 11 -15 20 7 17 -22 29 -36 15 -19 -19 -46 4 -41 33 7
32 -18 34 -41 3 -17 -23 -17 -23 -12 9 7 42 -20 68 -30 29 -8 -35 -54 -38 -54
-3 0 13 5 28 12 35 9 9 9 15 1 23 -15 15 -32 3 -44 -28 -10 -28 -36 -26 -31 3
8 44 6 57 -6 61 -8 3 -18 -8 -25 -26 -6 -17 -17 -31 -25 -31 -21 0 -25 29 -7
56 12 18 14 29 6 37 -13 13 -39 -7 -52 -40 -7 -20 -12 -22 -29 -13 -19 10 -19
13 -5 33 21 30 19 47 -5 47 -12 0 -25 -10 -32 -25 -6 -14 -17 -25 -25 -25 -16
0 -16 3 2 46 12 30 12 36 0 40 -8 3 -20 4 -27 2 -7 -3 -19 1 -26 9 -20 20 -31
16 -50 -17 -25 -43 -42 -39 -31 7 13 60 -30 67 -45 7 -9 -35 -29 -18 -23 20 2
17 2 37 0 43 -7 19 -43 -4 -43 -27 0 -23 -12 -31 -30 -20 -11 7 -12 14 -2 35
16 36 15 45 -6 45 -11 0 -24 -11 -30 -25 -6 -14 -19 -25 -28 -25 -16 0 -16 11
1 52 13 33 -24 34 -52 2 -19 -23 -24 -25 -20 -9 3 11 8 28 12 38 12 28 -26 21
-51 -10 -17 -21 -25 -25 -34 -17 -9 9 -8 19 4 43 16 29 15 32 0 38 -16 6 -47
-20 -56 -48 -2 -5 -11 -7 -21 -3 -12 4 -16 12 -11 23 3 9 9 26 11 39 8 33 -23
28 -42 -8 -22 -43 -47 -30 -43 24 4 51 -19 57 -42 10 -14 -27 -19 -29 -38 -21
-23 11 -29 31 -12 42 13 8 13 45 1 45 -5 0 -21 -14 -35 -31 -28 -33 -63 -34
-53 -1 2 9 6 23 8 31 7 27 -30 24 -43 -4 -15 -34 -33 -26 -33 15 0 41 -21 50
-36 16 -16 -34 -29 -33 -29 3 0 41 18 53 66 40 56 -15 127 -41 138 -51 6 -4
22 -8 37 -8 15 0 30 -4 33 -9 4 -5 25 -12 49 -16 59 -9 137 -39 241 -91 58
-30 92 -42 99 -35 6 6 -16 22 -64 48 -41 21 -78 39 -84 41 -5 2 -31 12 -58 23
-26 11 -66 24 -90 28 -112 24 -435 137 -487 172 -36 24 -107 59 -120 59 -5 0
-10 -5 -10 -11 0 -5 41 -29 91 -52 75 -34 87 -42 70 -49 -12 -4 -26 -19 -33
-33 -6 -14 -17 -25 -25 -25 -18 0 -16 15 4 46 13 21 14 27 3 34 -19 11 -35 3
-50 -26 -8 -13 -18 -23 -24 -21 -12 4 -12 18 0 55 5 19 3 22 -20 22 -19 0 -27
-6 -32 -25 -3 -14 -10 -25 -14 -25 -15 0 -17 24 -4 49 27 52 -17 57 -47 6 -12
-19 -25 -32 -30 -29 -5 3 -2 15 6 27 21 31 19 57 -5 57 -13 0 -25 -12 -35 -36
-13 -31 -17 -34 -35 -24 -13 7 -19 17 -16 27 16 41 17 61 2 66 -14 6 -46 -30
-46 -53 0 -11 -23 -14 -33 -4 -3 4 0 21 8 39 14 36 11 45 -16 45 -11 0 -21
-10 -25 -24 -6 -26 -30 -41 -39 -26 -3 5 -1 18 5 29 25 47 -11 58 -45 14 -30
-37 -48 -23 -29 22 13 31 13 36 -1 41 -23 9 -45 -3 -45 -26 0 -26 -27 -37 -45
-19 -12 12 -12 19 2 47 14 29 14 35 2 43 -23 14 -28 11 -46 -26 -24 -50 -44
-46 -41 7 2 33 -1 43 -14 46 -11 2 -18 -6 -23 -28 -5 -22 -12 -30 -23 -28 -17
4 -20 20 -7 51 13 30 -39 22 -54 -9 -16 -37 -37 -25 -33 19 3 29 0 37 -12 37
-9 0 -21 -11 -26 -25 -5 -14 -17 -25 -26 -25 -13 0 -15 7 -9 38 3 20 11 41 16
47 16 16 10 27 -13 23 -14 -2 -29 -15 -38 -35 -10 -22 -22 -33 -37 -33 -28 0
-28 6 -3 48 25 41 25 42 -2 42 -15 0 -29 -11 -40 -30 -9 -17 -22 -30 -28 -30
-14 0 -12 11 5 34 21 27 19 36 -8 36 -14 0 -29 -11 -39 -27 -10 -16 -18 -22
-18 -15 0 7 7 24 16 37 15 23 15 25 -1 32 -13 4 -25 -2 -41 -20 -29 -33 -48
-35 -38 -4 3 12 11 27 16 34 5 7 7 17 3 23 -12 20 -36 10 -56 -25 -12 -19 -27
-35 -35 -35 -18 0 -17 2 1 47 11 26 12 40 5 47 -16 16 -43 -6 -54 -43 -10 -33
-13 -36 -35 -22 -11 7 -11 15 -2 41 18 53 15 71 -11 61 -15 -5 -26 -21 -31
-45 -9 -37 -14 -41 -34 -28 -10 6 -10 17 -3 42 14 50 13 60 -10 60 -21 0 -24
-4 -35 -53 -5 -26 -9 -28 -33 -22 -15 4 -28 8 -30 10 -2 2 4 25 13 51 29 87
-10 98 -46 13 -12 -27 -26 -49 -31 -49 -17 0 -19 29 -4 59 22 41 20 53 -6 49
-15 -2 -29 -16 -41 -40 -30 -65 -56 -45 -30 21 14 36 15 44 3 51 -19 12 -37
-4 -52 -46 -8 -22 -17 -33 -26 -29 -7 3 -18 5 -23 5 -13 0 -11 31 5 62 13 25
13 29 -3 37 -22 12 -36 3 -45 -32 -7 -31 -32 -45 -49 -28 -8 8 -7 19 7 42 15
25 16 33 5 39 -18 12 -49 -7 -49 -29 0 -25 -24 -33 -55 -19 -25 11 -34 41 -15
53 15 9 12 42 -4 48 -17 7 -46 -23 -46 -47 0 -15 -5 -17 -27 -11 -40 9 -44 17
-28 49 17 32 12 46 -16 46 -12 0 -23 -10 -29 -25 -12 -31 -50 -35 -50 -6 0 11
4 23 10 26 15 10 12 45 -5 45 -15 0 -55 -38 -55 -52 0 -11 -28 -10 -51 2 -19
11 -19 11 1 50 20 39 20 39 1 50 -28 15 -30 14 -47 -30 -12 -31 -22 -40 -39
-40 -33 0 -37 13 -20 62 19 55 19 58 -5 58 -13 0 -25 -14 -39 -46 -18 -40 -22
-44 -41 -34 -24 13 -24 12 0 57 21 40 19 53 -11 53 -15 0 -25 -12 -36 -40 -9
-22 -20 -40 -25 -40 -17 0 -20 31 -4 55 9 13 16 31 16 40 0 18 -31 20 -48 3z
m1472 -283 c21 -31 21 -47 0 -17 -10 14 -25 22 -45 22 -18 0 -28 4 -24 10 12
19 52 10 69 -15z m114 -33 c2 -7 -3 -12 -12 -12 -9 0 -16 7 -16 16 0 17 22 14
28 -4z m1106 -711 c3 -5 -1 -25 -9 -45 -10 -24 -20 -34 -30 -30 -18 7 -19 24
-3 59 11 25 32 33 42 16z m121 -181 c6 0 22 -8 35 -17 14 -10 50 -27 80 -39
35 -14 56 -28 59 -40 3 -16 2 -17 -14 -4 -11 9 -41 16 -74 16 -69 2 -111 17
-111 42 0 9 -9 25 -20 35 -29 25 -24 38 8 21 15 -7 32 -14 37 -14z m245 -124
c0 -3 -4 -8 -10 -11 -5 -3 -10 -1 -10 4 0 6 5 11 10 11 6 0 10 -2 10 -4z m-63
-52 c-3 -3 -12 -4 -19 -1 -8 3 -5 6 6 6 11 1 17 -2 13 -5z m117 -79 c6 -37 5
-39 -9 -21 -8 11 -15 33 -15 50 0 41 16 21 24 -29z m506 -15 c0 -5 -4 -10 -10
-10 -5 0 -10 5 -10 10 0 6 5 10 10 10 6 0 10 -4 10 -10z m1180 -170 c0 -5 -9
-14 -20 -20 -22 -12 -27 -1 -8 18 14 14 28 16 28 2z m-210 -60 c0 -5 -2 -10
-4 -10 -3 0 -8 5 -11 10 -3 6 -1 10 4 10 6 0 11 -4 11 -10z m15 -40 c3 -5 0
-10 -9 -10 -8 0 -21 -3 -30 -6 -9 -3 -16 -1 -16 4 0 9 15 16 42 21 4 0 10 -3
13 -9z m65 -60 c0 -19 -28 -22 -57 -6 l-28 15 43 1 c23 0 42 -5 42 -10z m75
-69 c3 -5 0 -13 -5 -16 -15 -9 -60 3 -60 15 0 13 57 13 65 1z M50 7439 c0 -14
21 -30 83 -60 45 -22 108 -49 139 -59 31 -10 92 -37 135 -59 84 -43 193 -87
258 -102 21 -6 44 -14 50 -18 5 -4 37 -18 70 -31 33 -13 76 -31 95 -40 19 -10
47 -23 63 -30 15 -8 27 -21 27 -31 0 -27 11 -49 24 -49 6 0 20 -10 30 -22 18
-20 19 -20 32 -4 16 22 9 42 -17 49 -20 5 -27 27 -8 27 5 0 29 -9 52 -19 23
-11 74 -30 112 -44 214 -76 298 -108 328 -121 37 -18 114 -49 357 -147 96 -39
184 -74 195 -79 11 -4 36 -13 55 -20 19 -7 44 -16 55 -21 11 -4 40 -15 65 -23
42 -13 78 -27 125 -47 11 -5 45 -15 75 -23 87 -23 108 -31 220 -81 58 -26 119
-50 135 -55 17 -4 57 -20 90 -35 33 -16 141 -56 240 -91 266 -92 327 -113 363
-130 18 -8 40 -17 50 -19 18 -3 57 -18 107 -39 16 -7 48 -20 70 -28 22 -9 99
-39 170 -67 72 -28 144 -55 160 -60 17 -6 62 -22 100 -36 114 -43 206 -75 280
-99 96 -31 118 -40 197 -76 44 -20 88 -61 88 -81 0 -9 -36 -5 -64 6 -12 5 -21
3 -27 -6 -13 -21 -5 -34 20 -33 11 0 21 -5 21 -13 0 -7 9 -13 20 -13 11 0 23
-6 26 -14 3 -8 14 -16 25 -19 19 -5 27 -41 10 -51 -5 -3 -8 2 -7 11 2 24 -35
29 -51 7 -17 -23 -31 -9 -15 17 7 11 10 24 7 29 -10 16 -34 11 -47 -10 -7 -11
-18 -20 -25 -20 -16 0 -17 46 -3 55 8 5 7 11 -1 21 -18 22 -36 17 -49 -16 -21
-51 -47 -33 -29 20 9 26 9 34 -2 41 -10 6 -22 0 -40 -23 -15 -18 -31 -28 -37
-24 -15 9 -16 43 -2 51 16 10 12 22 -10 28 -14 4 -28 -3 -44 -20 -29 -31 -43
-15 -26 28 10 24 10 33 1 42 -10 9 -19 5 -40 -20 -15 -18 -31 -33 -34 -33 -11
0 -8 35 3 46 8 8 6 14 -4 23 -11 9 -17 8 -30 -4 -9 -9 -16 -23 -16 -31 0 -22
-34 -13 -38 9 -2 10 4 27 13 37 15 17 15 19 -6 25 -18 6 -28 1 -45 -21 -27
-33 -43 -26 -26 11 16 36 15 45 -6 45 -21 0 -52 -30 -52 -49 0 -7 -6 -11 -12
-8 -14 4 -15 31 -4 58 5 11 1 19 -11 23 -17 7 -30 -4 -53 -44 -7 -12 -11 -13
-21 -2 -11 10 -10 18 4 41 23 39 22 43 -10 39 -17 -2 -32 -12 -38 -25 -5 -13
-18 -23 -27 -23 -22 0 -22 -1 -2 40 14 27 14 34 3 41 -22 14 -29 11 -47 -21
-22 -39 -38 -38 -47 3 -6 31 -7 31 -17 10 -18 -38 -56 -25 -60 20 -3 32 -13
35 -28 7 -9 -17 -14 -18 -36 -8 -20 9 -25 18 -22 42 4 36 -26 50 -35 16 -8
-32 -34 -24 -48 17 l-12 36 -17 -23 c-10 -13 -25 -21 -36 -18 -22 4 -31 43
-14 64 10 11 9 14 -9 14 -14 0 -23 -8 -27 -26 -4 -16 -12 -24 -23 -22 -17 4
-19 20 -6 51 6 13 2 17 -15 17 -14 0 -24 -8 -27 -20 -4 -16 -11 -19 -27 -14
-29 9 -31 11 -17 28 7 8 10 20 6 26 -10 17 -33 12 -45 -10 -9 -17 -14 -18 -31
-9 -19 10 -19 12 -5 34 21 32 20 35 -7 35 -12 0 -28 -9 -35 -20 -18 -29 -51
-11 -45 25 4 20 1 25 -15 25 -12 0 -23 -9 -27 -20 -7 -23 -33 -27 -41 -6 -3 8
0 24 6 36 9 16 9 25 1 33 -15 15 -41 -1 -58 -34 -7 -13 -13 -19 -14 -14 -1 6
-2 15 -4 20 -1 6 -3 16 -3 24 -2 11 -9 8 -26 -8 -29 -27 -49 -20 -40 14 8 32
-16 44 -34 17 -8 -12 -25 -22 -38 -22 -27 0 -29 3 -12 30 10 15 10 22 0 32
-10 10 -17 7 -35 -15 -29 -37 -59 -29 -50 14 7 36 -17 40 -39 7 -18 -27 -43
-16 -28 13 6 11 8 24 5 29 -11 17 -37 11 -42 -10 -4 -13 -14 -20 -30 -20 -20
0 -24 4 -18 18 18 43 17 52 -3 52 -11 0 -27 -12 -37 -26 -13 -21 -19 -23 -31
-13 -13 10 -13 15 1 35 20 30 19 34 -5 34 -12 0 -25 -10 -32 -25 -15 -32 -43
-35 -33 -2 21 67 -1 87 -34 31 -28 -47 -52 -33 -27 15 16 29 15 32 0 38 -16 6
-24 -1 -49 -42 -13 -22 -60 -11 -51 11 3 8 9 21 12 29 4 9 -1 18 -12 22 -10 4
-19 2 -21 -4 -2 -5 -10 -18 -17 -28 -15 -21 -53 -13 -58 13 -2 12 -13 17 -38
17 -29 0 -36 4 -38 23 -3 21 -7 23 -36 18 -23 -5 -37 -2 -46 9 -7 8 -21 15
-31 15 -12 0 -19 7 -19 20 0 24 -17 26 -42 3 -23 -20 -33 -11 -18 16 11 21 6
41 -10 41 -14 0 -41 -31 -35 -41 8 -11 -25 -12 -43 0 -12 7 -11 14 2 40 15 27
15 32 2 37 -18 7 -38 -4 -31 -17 4 -5 1 -9 -4 -9 -6 0 -11 -7 -11 -15 0 -20
-39 -19 -47 1 -3 8 -1 20 6 27 17 17 13 37 -7 37 -23 0 -42 -19 -42 -42 0 -15
-3 -16 -32 -4 -39 17 -45 31 -24 55 19 21 12 31 -21 31 -15 0 -27 -9 -35 -25
-6 -14 -18 -25 -26 -25 -14 0 -14 12 3 68 11 35 -30 29 -52 -8 -9 -17 -22 -29
-28 -27 -12 4 -12 43 0 70 7 16 4 18 -21 15 -21 -2 -30 -10 -34 -28 -7 -28
-40 -41 -40 -15 0 9 7 23 15 31 22 22 18 34 -9 34 -16 0 -30 -10 -43 -30 -24
-38 -49 -27 -33 15 8 20 8 31 0 39 -15 15 -44 -5 -48 -33 -2 -11 -8 -21 -13
-21 -12 0 -12 27 1 35 5 3 10 13 10 21 0 21 -38 17 -52 -6 -14 -22 -48 -27
-48 -7 0 7 5 18 11 24 13 13 4 33 -16 33 -7 0 -22 -12 -33 -27 -25 -34 -51
-23 -28 13 22 33 20 44 -8 44 -17 0 -26 -7 -30 -25 -4 -16 -13 -25 -26 -25
-28 0 -32 15 -10 40 11 12 17 27 14 31 -10 17 -43 9 -62 -16 -11 -14 -25 -25
-31 -25 -16 0 -13 32 5 58 14 20 14 23 -1 28 -19 8 -44 -12 -56 -43 -11 -29
-25 -29 -39 -2 -13 24 2 74 27 87 22 13 0 62 -28 62 -19 0 -21 -4 -15 -30 4
-22 2 -30 -9 -30 -8 0 -15 -4 -15 -9 0 -5 -5 -22 -10 -37 -8 -20 -14 -24 -22
-16 -8 8 -8 19 2 41 6 16 9 35 5 40 -9 15 -42 -4 -50 -29 -7 -22 -35 -28 -35
-7 0 7 7 23 16 35 14 20 14 23 0 28 -24 9 -45 -3 -56 -30 -7 -19 -14 -23 -30
-19 -30 8 -35 28 -16 58 21 32 20 35 -7 35 -15 0 -29 -9 -37 -25 -7 -14 -17
-25 -22 -25 -14 0 -9 13 13 36 21 23 19 44 -6 44 -7 0 -25 -13 -38 -30 -14
-16 -30 -30 -36 -30 -14 0 -14 37 -1 45 14 9 12 45 -2 45 -19 0 -34 -12 -47
-37 -6 -13 -16 -23 -21 -23 -15 0 -12 27 5 44 22 22 18 36 -9 36 -15 0 -32
-10 -43 -25 -16 -23 -20 -24 -37 -12 -19 14 -19 15 3 43 24 31 17 40 -23 30
-15 -3 -26 -16 -30 -31 -4 -14 -11 -23 -16 -20 -15 9 -12 41 5 55 21 17 19 40
-4 40 -10 0 -21 6 -24 14 -8 21 -40 9 -62 -25 -11 -16 -23 -29 -27 -29 -15 0
-8 30 12 50 28 28 25 37 -16 44 -38 8 -59 -3 -69 -35 -4 -10 -11 -19 -16 -19
-15 0 -10 32 7 51 9 10 13 23 9 28 -12 21 -41 11 -60 -21 -11 -20 -20 -27 -23
-19 -2 7 5 26 16 41 22 30 20 40 -10 40 -16 0 -18 -9 -18 -63 0 -75 3 -79 105
-126 39 -18 78 -36 87 -42 10 -5 22 -9 27 -9 6 0 49 -18 96 -40 47 -22 92 -40
100 -40 8 0 16 -4 19 -9 3 -4 27 -16 53 -26 53 -19 164 -66 230 -96 24 -10 49
-19 56 -19 7 0 17 -4 23 -8 15 -13 281 -118 321 -127 26 -6 237 -78 313 -108
73 -28 402 -136 495 -162 33 -9 89 -31 125 -49 56 -28 108 -48 310 -120 63
-23 164 -57 210 -71 52 -15 325 -112 355 -125 11 -5 38 -14 60 -19 75 -20 221
-69 277 -95 31 -14 63 -26 70 -26 8 0 18 -4 23 -9 6 -5 39 -21 75 -36 119 -49
270 -157 270 -192 0 -7 -11 -13 -23 -13 -50 0 -73 -62 -41 -108 16 -24 53 -29
71 -11 9 9 20 3 45 -24 39 -40 81 -56 103 -37 21 17 19 30 -10 73 -25 36 -25
37 -5 37 60 0 14 76 -53 87 -22 3 -47 15 -56 26 -9 10 -22 25 -28 32 -7 8 -13
16 -13 19 0 4 176 -64 258 -101 18 -8 81 -32 140 -54 59 -22 116 -44 127 -49
119 -54 385 -179 421 -197 17 -9 43 -14 57 -11 24 5 25 3 20 -23 -10 -49 76
-109 93 -64 5 11 14 6 39 -20 18 -19 37 -35 44 -35 18 0 12 46 -9 65 -25 23
-25 35 0 35 32 0 26 38 -7 46 -42 8 -113 44 -113 56 0 12 6 10 42 -12 18 -11
48 -20 66 -20 27 0 32 4 32 24 0 19 -4 22 -24 19 -20 -4 -86 20 -86 32 0 5 44
0 83 -10 24 -6 27 -5 27 19 0 22 -4 26 -30 26 -32 0 -40 14 -15 24 22 8 18 43
-7 60 -30 21 -51 20 -98 -4 -47 -24 -50 -24 -50 -6 0 34 -113 94 -263 141 -45
14 -91 30 -102 35 -17 9 -321 123 -425 160 -19 7 -51 21 -70 30 -19 10 -79 34
-133 54 -119 44 -179 75 -171 87 3 6 -5 7 -19 4 -14 -4 -36 -1 -49 6 -12 7
-28 12 -35 11 -6 -1 -14 2 -18 8 -3 5 -16 10 -29 10 -12 0 -31 7 -42 15 -10 8
-27 15 -37 15 -21 0 -149 49 -157 60 -3 4 -12 7 -20 7 -46 2 -579 208 -580
226 0 12 46 8 76 -8 32 -16 82 -19 103 -6 38 24 -32 85 -92 79 -22 -2 -32 1
-33 12 -2 33 -5 38 -20 44 -19 7 -94 -30 -94 -47 0 -6 -6 -1 -13 12 -18 35
-43 49 -64 34 -10 -6 -16 -17 -14 -25 13 -45 13 -61 1 -53 -7 4 -26 11 -44 16
-36 9 -158 54 -201 74 -38 17 -152 60 -230 86 -33 11 -69 25 -80 33 -11 7 -45
22 -75 34 -30 12 -125 51 -210 87 -85 37 -189 78 -230 92 -41 14 -88 31 -105
38 -57 26 -209 85 -218 85 -6 0 -47 18 -93 40 -46 22 -89 40 -97 40 -7 0 -21
6 -32 13 -23 15 -147 62 -189 72 -35 7 -227 87 -278 115 -20 11 -42 20 -48 20
-7 0 -26 6 -43 14 -18 8 -59 24 -92 37 -33 13 -62 26 -65 30 -3 3 -20 11 -37
17 -30 10 -33 9 -33 -9z m238 -265 c-7 -15 -14 -21 -16 -15 -2 7 2 18 8 26 18
22 21 18 8 -11z m2220 -650 c-10 -10 -28 6 -28 24 0 15 1 15 17 -1 9 -9 14
-19 11 -23z m96 1 c-9 -14 -23 -25 -32 -25 -12 0 -10 6 8 25 13 14 27 25 32
25 5 0 1 -11 -8 -25z m115 -34 c9 -6 10 -11 2 -15 -13 -8 -31 1 -31 15 0 11
11 11 29 0z m1091 -832 c0 -6 -4 -7 -10 -4 -5 3 -10 11 -10 16 0 6 5 7 10 4 6
-3 10 -11 10 -16z m-74 -36 c-5 -12 -10 -13 -18 -5 -8 8 -8 15 3 28 15 18 25
4 15 -23z m114 -33 c25 -19 24 -35 -1 -25 -16 6 -43 45 -32 45 5 0 19 -9 33
-20z m981 -29 c-7 -5 -11 -13 -7 -19 3 -5 -4 -12 -17 -15 -12 -2 -30 -8 -39
-12 -35 -14 -18 14 20 33 38 20 68 29 43 13z m4 -221 c3 -5 2 -10 -4 -10 -5 0
-13 5 -16 10 -3 6 -2 10 4 10 5 0 13 -4 16 -10z m32 -12 c-3 -8 -6 -5 -6 6 -1
11 2 17 5 13 3 -3 4 -12 1 -19z M4880 7106 c0 -2 7 -7 16 -10 8 -3 12 -2 9 4
-6 10 -25 14 -25 6z M1124 6929 c-8 -13 12 -26 76 -51 25 -9 104 -40 175 -68
72 -28 150 -57 175 -64 50 -15 176 -54 203 -63 9 -3 17 -1 17 5 0 6 -17 16
-37 22 -21 6 -47 15 -58 20 -11 5 -54 19 -95 31 -41 11 -80 25 -86 30 -6 5
-49 23 -95 39 -46 17 -88 35 -93 40 -6 6 -16 10 -22 10 -7 0 -42 14 -77 30
-74 34 -73 34 -83 19z M50 6861 c0 -19 11 -25 180 -104 25 -12 47 -24 50 -27
3 -3 37 -16 75 -29 39 -13 77 -30 85 -37 8 -7 43 -22 78 -33 76 -26 136 -48
179 -67 18 -8 67 -26 110 -40 43 -14 82 -29 88 -35 5 -5 15 -9 22 -9 7 0 36
-11 65 -24 29 -13 82 -36 118 -51 36 -15 79 -33 95 -40 68 -28 114 -45 195
-70 92 -28 198 -70 298 -116 34 -16 68 -29 75 -29 8 0 17 -3 20 -7 4 -3 20 -8
36 -9 16 -2 64 -20 107 -40 119 -55 166 -72 319 -119 138 -42 393 -135 490
-179 79 -36 153 -65 241 -96 45 -15 97 -35 115 -43 19 -8 50 -20 69 -27 19 -7
62 -25 95 -40 103 -47 217 -96 290 -124 141 -55 222 -93 227 -108 2 -6 35 -15
74 -19 39 -4 86 -16 105 -27 46 -25 276 -104 316 -107 42 -4 111 -43 136 -77
17 -23 18 -30 7 -43 -10 -12 -16 -13 -26 -4 -8 6 -14 8 -14 4 0 -5 -9 0 -20
10 -23 21 -37 13 -42 -25 -2 -19 1 -25 15 -23 17 1 16 -1 -4 -23 -20 -21 -24
-22 -48 -10 -14 7 -44 17 -65 20 -22 4 -57 15 -78 23 l-39 16 31 19 c26 15 30
21 20 33 -18 22 -28 19 -49 -15 -10 -16 -21 -27 -24 -23 -4 3 -1 14 7 22 10
11 12 21 6 31 -7 12 -13 10 -34 -10 -28 -25 -33 -21 -15 12 18 34 -6 45 -34
15 -21 -23 -26 -25 -42 -13 -13 9 -15 15 -7 20 7 4 12 11 12 17 0 13 -34 11
-47 -2 -19 -19 -41 -4 -36 25 6 30 -11 35 -37 11 -12 -11 -27 -13 -49 -9 -27
6 -30 9 -17 16 9 5 16 15 16 23 0 24 -19 27 -37 5 -22 -25 -37 -26 -23 -1 15
30 -7 37 -34 12 -24 -22 -44 -18 -25 5 18 22 3 44 -29 44 -16 0 -55 12 -86 26
-56 25 -56 25 -39 50 9 14 24 29 34 35 27 14 23 29 -6 29 -32 0 -68 -36 -62
-61 6 -23 4 -23 -35 -3 -36 19 -60 6 -38 -21 11 -13 10 -14 -4 -9 -17 7 -17
17 -1 56 13 32 -25 35 -47 5 -11 -15 -24 -25 -29 -21 -5 3 0 17 11 31 19 24
19 28 5 42 -14 15 -18 13 -44 -16 -16 -18 -31 -33 -35 -33 -12 0 -6 23 10 41
9 10 13 23 9 28 -12 20 -45 12 -57 -14 -6 -14 -17 -25 -25 -25 -15 0 -18 26
-3 35 6 3 10 13 10 21 0 22 -48 18 -55 -6 -8 -25 -18 -25 -85 3 -74 30 -79 34
-73 57 7 27 -25 39 -42 17 -27 -37 -65 -4 -50 43 5 16 2 20 -20 20 -18 0 -28
-7 -35 -25 -8 -22 -13 -24 -30 -15 -23 12 -25 23 -10 51 10 17 7 19 -19 19
-21 0 -32 -6 -36 -19 -11 -35 -36 -13 -33 27 4 46 -25 57 -44 17 -12 -26 -36
-29 -29 -4 2 8 4 23 5 34 1 28 -36 26 -49 -2 -11 -26 -43 -31 -51 -9 -3 8 0
24 6 36 10 18 9 24 -1 31 -16 10 -49 -7 -49 -26 0 -16 -18 -23 -44 -17 -15 4
-17 12 -13 43 4 29 1 39 -11 44 -16 6 -23 -1 -48 -42 -10 -16 -13 -16 -29 -3
-13 11 -15 23 -11 51 8 50 -18 62 -42 19 -19 -33 -60 -44 -47 -12 14 31 11 56
-7 60 -12 2 -21 -6 -28 -23 -5 -14 -15 -23 -21 -20 -7 5 -5 15 6 32 21 31 13
53 -14 46 -12 -3 -21 -9 -21 -13 0 -4 -18 -7 -40 -7 -45 0 -47 3 -23 29 15 17
15 20 3 28 -22 14 -28 12 -40 -10 -6 -11 -17 -20 -25 -20 -17 0 -20 16 -5 25
22 13 8 24 -31 23 -31 0 -44 -6 -56 -24 -19 -30 -30 -25 -11 5 11 18 11 23 -1
30 -20 13 -40 2 -47 -25 -8 -30 -25 -31 -21 -1 2 18 -3 22 -25 20 -20 -1 -25
2 -21 13 3 7 8 12 12 10 12 -8 34 11 27 22 -3 6 -29 18 -57 27 -29 10 -108 43
-178 75 -69 31 -151 63 -181 70 -30 7 -73 21 -95 31 -48 22 -85 24 -85 5 0 -8
-9 -24 -21 -37 l-20 -24 5 26 c7 34 -19 47 -46 22 -25 -23 -45 -5 -28 27 6 12
9 28 6 36 -8 21 -44 0 -52 -31 -8 -32 -34 -21 -34 14 0 14 7 35 15 45 14 19
12 36 -5 36 -18 0 -50 -44 -50 -68 0 -17 -5 -23 -17 -20 -26 5 -28 37 -4 68
18 25 19 30 5 41 -13 10 -19 8 -40 -14 -13 -14 -24 -35 -24 -47 0 -23 -4 -24
-30 -10 -19 10 -19 11 1 44 18 31 18 34 3 40 -19 7 -51 -18 -56 -44 -2 -14 -8
-16 -26 -9 l-24 9 21 36 c21 36 20 54 -3 54 -20 0 -58 -41 -52 -56 3 -8 -1
-14 -10 -14 -24 0 -27 28 -5 58 11 16 18 32 14 36 -21 21 -73 -13 -73 -47 0
-19 -8 -21 -29 -8 -12 8 -12 13 2 35 24 36 21 48 -10 44 -19 -2 -29 -10 -33
-28 -6 -27 -10 -28 -52 -16 -33 10 -34 10 -7 47 23 33 22 51 -4 55 -11 1 -27
-11 -40 -32 -23 -36 -47 -43 -66 -20 -8 10 -6 19 10 39 23 30 18 47 -12 47
-13 0 -25 -12 -35 -35 -24 -58 -54 -40 -33 20 11 28 11 37 0 47 -10 11 -16 8
-32 -11 -10 -13 -19 -32 -19 -42 0 -23 -28 -25 -37 -4 -3 9 2 24 11 34 22 24
20 41 -4 41 -13 0 -28 -12 -38 -30 -18 -32 -42 -40 -42 -14 0 9 8 29 17 45 15
26 16 31 3 39 -18 11 -34 -1 -55 -46 -12 -27 -20 -33 -28 -25 -8 8 -6 19 7 41
15 26 15 31 2 36 -19 7 -56 -13 -56 -31 0 -8 -5 -15 -11 -15 -7 0 -9 12 -5 34
9 46 -10 57 -40 23 -13 -15 -28 -27 -34 -27 -5 0 -10 -8 -10 -17 1 -20 94 -64
215 -103 39 -12 113 -39 165 -61 154 -62 446 -178 570 -226 199 -78 244 -95
268 -100 12 -3 25 -9 28 -14 3 -5 12 -9 21 -9 16 0 41 -11 159 -66 38 -19 76
-34 83 -34 6 0 31 -9 54 -21 23 -11 76 -31 117 -45 41 -13 83 -29 92 -34 9 -5
26 -7 37 -5 12 2 21 0 21 -5 0 -5 21 -11 48 -15 26 -3 65 -14 87 -24 22 -11
56 -22 75 -25 51 -9 160 -58 160 -73 0 -6 10 -19 22 -27 25 -18 24 -18 -17
-32 -61 -20 -28 -113 36 -100 26 5 31 2 43 -29 20 -47 56 -64 91 -41 14 9 25
26 25 37 0 11 12 31 27 44 27 23 28 23 9 44 -11 12 -16 21 -13 21 7 0 144 -48
172 -60 144 -63 294 -120 327 -124 15 -2 33 -8 40 -13 7 -6 63 -31 123 -57
121 -51 135 -57 245 -108 99 -46 159 -70 250 -103 89 -32 103 -37 153 -59 21
-9 43 -16 50 -16 7 0 54 -20 105 -45 51 -25 97 -45 103 -45 5 0 26 -10 47 -23
53 -33 89 -47 118 -47 14 0 39 -7 55 -16 17 -8 40 -14 52 -12 12 2 22 -1 23
-7 2 -35 28 -95 51 -122 21 -24 39 -34 75 -39 40 -5 48 -3 57 14 8 16 6 25 -9
45 -25 31 -25 37 -1 37 29 0 33 27 8 55 -19 22 -32 26 -82 28 -50 2 -61 5 -62
20 -1 13 2 15 15 8 12 -7 23 -4 37 9 30 29 85 9 130 -46 25 -31 42 -42 58 -40
37 4 47 15 41 45 -5 25 -3 29 25 34 31 7 40 27 23 55 -12 18 -112 18 -148 0
-17 -8 -42 -12 -59 -9 -24 5 -30 11 -32 36 -4 58 -141 156 -183 130 -6 -4 -16
-2 -23 3 -7 5 -48 22 -92 37 -82 28 -98 34 -200 81 -33 15 -76 27 -95 26 -22
0 -66 14 -115 39 -78 38 -281 124 -555 236 -74 30 -139 59 -145 63 -5 4 -26
11 -45 15 -19 4 -56 18 -82 31 -26 13 -53 24 -59 24 -7 0 -41 14 -76 30 -34
17 -65 30 -68 30 -2 0 -28 11 -57 24 -29 13 -71 30 -93 37 -22 6 -56 20 -75
29 -37 19 -101 40 -270 90 -105 31 -181 59 -190 70 -9 10 -101 46 -205 80 -55
18 -122 42 -150 55 -64 29 -175 70 -245 91 -69 20 -76 25 -57 36 11 5 26 2 48
-11 34 -21 52 -19 86 12 18 16 20 24 12 39 -8 14 -8 23 0 31 21 21 11 55 -24
86 -42 36 -58 38 -86 10 -15 -15 -24 -18 -33 -9 -13 10 -45 4 -47 -9 0 -3 -1
-31 -2 -61 -1 -30 -6 -58 -10 -61 -13 -10 -85 11 -187 54 -199 84 -237 99
-300 119 -36 12 -87 31 -115 44 -27 12 -88 36 -135 52 -47 16 -111 41 -142 56
-31 14 -61 26 -65 26 -10 0 -64 28 -113 58 -19 12 -48 24 -65 28 -16 3 -47 15
-68 26 -73 37 -87 40 -87 19z m1424 -377 c23 -9 20 -24 -4 -24 -12 0 -20 -7
-20 -17 0 -9 -3 -14 -6 -10 -6 6 3 57 10 57 3 0 11 -3 20 -6z m6 -94 c0 -5 -7
-10 -16 -10 -8 0 -12 5 -9 10 3 6 10 10 16 10 5 0 9 -4 9 -10z m-57 -206 c78
-23 215 -79 230 -94 13 -12 -2 -50 -19 -50 -8 0 -14 9 -14 20 0 18 -6 20 -42
18 -40 -3 -42 -2 -42 26 -1 35 -25 47 -33 17 -6 -24 -8 -25 -33 -11 -11 6 -17
17 -14 24 7 18 -15 31 -29 17 -18 -18 -37 -13 -37 10 0 18 -4 20 -45 13 -46
-6 -51 -2 -39 31 4 10 12 14 23 9 9 -4 51 -17 94 -30z m301 -149 c-18 -27 -34
-33 -34 -12 0 17 20 37 37 37 10 0 10 -6 -3 -25z m76 -4 c-1 -12 -30 -44 -35
-39 -12 12 7 57 21 51 8 -3 14 -8 14 -12z m626 -353 c10 -13 12 -17 4 -10 -8
6 -22 12 -32 12 -10 0 -18 5 -18 10 0 18 26 11 46 -12z m2194 -703 c0 -9 -6
-12 -17 -8 -21 8 -34 24 -27 35 8 12 44 -10 44 -27z m-138 -47 c-11 -11 -32
-3 -32 12 0 4 9 6 21 3 13 -4 17 -9 11 -15z m-34 -45 c17 -18 32 -34 32 -36 0
-2 -13 -2 -29 1 -36 5 -57 26 -67 67 -7 28 -6 29 12 15 10 -8 34 -29 52 -47z
M50 6703 c0 -28 3 -34 10 -23 13 20 13 47 0 55 -6 4 -10 -9 -10 -32z M3590
6662 c0 -5 11 -14 25 -20 29 -14 44 2 16 17 -24 13 -41 14 -41 3z M1280 6590
c0 -5 5 -10 10 -10 6 0 10 5 10 10 0 6 -4 10 -10 10 -5 0 -10 -4 -10 -10z
M2123 6534 c-3 -9 -2 -19 4 -23 5 -3 12 -14 16 -23 9 -24 24 -23 37 2 13 25
34 16 27 -12 -7 -27 20 -35 39 -12 14 18 15 17 9 -8 -10 -50 34 -32 49 20 6
18 4 22 -16 22 -13 0 -29 5 -35 11 -6 6 -28 12 -49 14 -21 2 -40 9 -42 14 -6
17 -32 13 -39 -5z M4097 6462 c-3 -4 -3 -19 0 -35 4 -18 12 -27 25 -27 28 0
58 18 58 35 0 25 -70 49 -83 27z M4194 6395 c-20 -31 -14 -49 17 -52 13 -1 33
-3 44 -5 16 -2 21 3 23 28 3 28 -1 33 -29 43 -40 14 -36 15 -55 -14z M4317
6379 c-27 -16 -40 -48 -26 -65 17 -20 39 -17 39 6 0 11 5 20 10 20 6 0 10 -7
10 -15 0 -21 27 -30 45 -15 13 11 14 10 9 -4 -10 -26 24 -32 48 -8 28 28 18
46 -33 61 -24 7 -53 17 -65 21 -11 4 -28 4 -37 -1z M50 6115 c0 -19 33 -38
140 -78 52 -21 109 -44 125 -53 17 -9 58 -27 93 -40 54 -20 224 -97 274 -125
10 -5 26 -9 35 -9 10 0 27 -7 37 -15 10 -8 42 -22 70 -31 28 -9 116 -44 196
-76 80 -33 206 -80 280 -105 74 -25 144 -52 156 -59 11 -8 45 -22 75 -33 80
-27 268 -101 374 -146 107 -46 310 -127 370 -149 121 -42 217 -123 109 -90
-26 7 -50 11 -55 8 -19 -11 -7 -31 26 -43 29 -10 35 -17 35 -42 0 -30 17 -38
38 -17 9 9 12 7 12 -11 0 -13 -15 -38 -33 -56 -38 -38 -63 -38 -94 -2 -9 12
-11 16 -3 10 8 -7 20 -13 27 -13 19 0 33 42 21 58 -15 17 -24 15 -48 -10 -22
-23 -27 -10 -9 24 15 28 -4 47 -31 31 -18 -12 -18 -11 -8 18 8 25 8 33 -3 40
-23 14 -28 11 -44 -27 -13 -31 -17 -34 -30 -24 -8 7 -12 16 -9 21 8 14 -27 23
-45 12 -9 -5 -27 -7 -41 -3 -20 5 -25 12 -25 35 0 37 -27 45 -49 14 -13 -19
-16 -20 -21 -7 -4 9 -5 24 -3 34 5 29 -32 30 -53 3 -17 -23 -19 -23 -35 -7
-14 14 -15 20 -5 32 7 8 10 20 6 26 -12 19 -44 10 -59 -17 -15 -28 -16 -26
-19 27 -3 34 -31 37 -46 4 -16 -36 -36 -19 -22 19 17 44 -16 48 -47 5 -19 -26
-34 -12 -27 23 6 25 4 29 -15 29 -11 0 -23 -7 -26 -15 -8 -19 -43 -19 -50 0
-4 8 -1 21 5 29 6 7 8 16 4 19 -12 13 -44 7 -49 -8 -10 -25 -27 -17 -20 10 9
35 -18 44 -48 16 -19 -18 -25 -19 -41 -8 -12 10 -14 16 -7 21 7 4 12 14 12 22
0 19 -46 18 -54 -1 -3 -8 -15 -15 -26 -15 -19 0 -21 4 -15 30 4 16 4 34 1 39
-8 12 -46 2 -46 -13 0 -20 -18 -39 -29 -31 -9 5 -8 13 3 31 38 57 -5 77 -47
22 -21 -27 -28 -30 -41 -19 -12 10 -13 18 -4 36 15 34 4 59 -21 45 -11 -5 -23
-19 -26 -30 -3 -11 -11 -20 -17 -20 -6 0 -7 7 -3 18 18 42 17 59 -4 65 -15 4
-22 -2 -30 -24 -13 -39 -35 -38 -29 1 6 37 -16 47 -37 17 -12 -18 -18 -20 -33
-10 -18 11 -19 25 -7 56 11 27 -22 21 -41 -8 -18 -27 -22 -29 -43 -16 -12 8
-13 15 -3 35 17 37 -4 44 -37 12 -18 -17 -34 -24 -45 -20 -15 6 -15 9 3 40 11
18 16 36 11 39 -10 6 -40 -4 -40 -14 0 -3 -7 -14 -14 -24 -11 -15 -19 -16 -34
-8 -25 13 -34 47 -16 62 21 17 17 31 -8 27 -13 -2 -27 -13 -33 -26 -18 -41
-46 -19 -34 27 6 22 -19 24 -37 3 -14 -17 -21 -18 -41 -9 -16 7 -22 16 -18 28
8 25 -15 36 -31 15 -18 -25 -50 -17 -46 12 2 16 -2 22 -17 22 -10 0 -21 -5
-23 -11 -3 -9 -14 -9 -41 0 -36 12 -37 14 -31 47 8 42 -6 44 -36 7 l-21 -28 5
48 c5 42 4 48 -12 45 -9 -2 -24 -18 -32 -35 -16 -36 -18 -37 -39 -24 -12 8
-12 14 2 44 22 45 21 57 -2 57 -23 0 -36 -16 -45 -54 -6 -26 -9 -28 -22 -14
-14 14 -14 19 0 46 20 39 20 52 1 52 -9 0 -23 -16 -32 -35 -9 -19 -20 -35 -25
-35 -13 0 -10 16 9 49 17 28 17 32 2 46 -15 15 -18 13 -43 -31 -24 -43 -33
-103 -13 -96 4 1 29 -9 57 -23 27 -14 58 -25 68 -25 10 0 22 -4 28 -10 5 -5
48 -23 94 -39 108 -37 242 -92 348 -142 46 -21 89 -39 96 -39 6 0 16 -4 22 -9
5 -5 43 -21 84 -36 41 -14 136 -55 211 -91 75 -35 142 -64 148 -64 16 0 85
-70 77 -78 -4 -3 -16 -1 -27 6 -12 8 -33 11 -48 7 -23 -5 -28 -11 -25 -31 3
-28 30 -64 48 -64 6 0 20 -19 31 -42 34 -73 99 -82 115 -17 4 16 13 23 25 22
11 -1 28 3 38 9 22 11 16 51 -11 82 -16 18 -16 18 8 11 14 -4 29 -11 35 -16 5
-5 15 -9 23 -9 8 0 28 -6 45 -14 46 -21 232 -95 302 -121 33 -12 78 -30 100
-39 22 -9 74 -29 115 -43 41 -14 84 -34 96 -44 11 -11 27 -19 35 -19 8 0 34
-17 58 -39 23 -21 56 -42 73 -47 23 -7 33 -18 42 -44 10 -32 14 -35 51 -35 36
0 41 3 50 32 l11 31 17 -29 c17 -31 79 -64 103 -55 8 3 14 16 14 29 0 19 8 26
47 38 68 20 76 41 33 79 -28 25 -42 29 -69 26 -26 -4 -31 -2 -23 6 20 20 14
43 -21 76 -32 32 -70 42 -82 22 -3 -5 -15 -10 -26 -10 -15 0 -18 5 -14 23 3
14 -3 31 -19 49 -25 28 -111 78 -134 78 -8 0 -47 16 -88 35 -41 19 -100 44
-132 56 -52 18 -108 41 -217 89 -22 10 -67 28 -100 40 -33 12 -69 26 -80 30
-11 5 -42 16 -70 25 -27 10 -70 26 -95 38 -72 32 -238 97 -330 129 -47 16
-107 40 -135 53 -27 14 -86 37 -130 54 -105 38 -135 52 -130 61 3 4 26 -3 51
-16 36 -18 50 -21 61 -13 8 7 29 9 52 5 30 -4 44 -1 65 15 34 27 33 45 -4 64
-23 12 -45 14 -90 9 l-60 -7 0 31 c0 16 -8 40 -19 53 l-18 23 -34 -20 c-41
-24 -46 -43 -19 -74 19 -22 19 -25 4 -33 -29 -16 -134 9 -234 55 -52 25 -106
49 -120 53 -22 6 -150 62 -290 127 -69 32 -100 39 -100 23z m797 -209 c-4 -9
-13 -13 -22 -10 -18 7 -20 31 -2 37 17 6 31 -9 24 -27z m163 -61 c0 -16 -26
-20 -56 -8 -16 6 -16 7 2 14 31 12 54 10 54 -6z m-122 -14 c3 -8 -1 -12 -9 -9
-7 2 -15 10 -17 17 -3 8 1 12 9 9 7 -2 15 -10 17 -17z m490 -519 c-26 -5 -22
-23 10 -48 34 -27 26 -38 -16 -22 -21 8 -30 18 -27 26 3 8 5 24 5 37 0 19 4
22 23 17 18 -5 19 -7 5 -10z m-98 -68 c0 -8 -4 -12 -10 -9 -5 3 -10 13 -10 21
0 8 5 12 10 9 6 -3 10 -13 10 -21z m53 -54 c3 -11 1 -18 -4 -14 -5 3 -9 12 -9
20 0 20 7 17 13 -6z m1215 -162 c19 -19 14 -28 -10 -19 -13 4 -29 6 -35 4 -7
-3 -13 0 -13 5 0 21 41 27 58 10z m-8 -78 c0 -5 -2 -10 -4 -10 -3 0 -8 5 -11
10 -3 6 -1 10 4 10 6 0 11 -4 11 -10z m105 -40 c-28 -12 -47 -12 -40 0 3 6 18
10 33 9 24 0 25 -1 7 -9z m-80 -40 c3 -5 1 -10 -4 -10 -6 0 -11 5 -11 10 0 6
2 10 4 10 3 0 8 -4 11 -10z M407 5874 c-14 -14 -7 -51 13 -69 13 -12 27 -15
45 -11 22 6 23 9 13 26 -15 24 -6 34 22 25 17 -5 21 -13 17 -31 -5 -30 19 -30
37 -1 9 15 7 22 -13 38 -13 10 -35 19 -50 19 -14 -1 -37 2 -51 5 -14 4 -29 3
-33 -1z M602 5788 c-17 -17 -15 -28 7 -28 19 0 35 23 24 34 -9 9 -18 7 -31 -6z
M3027 5573 c-16 -15 -5 -34 30 -48 31 -13 39 -14 51 -2 12 12 9 17 -21 36 -36
22 -49 25 -60 14z M3554 5387 c-8 -21 5 -40 23 -33 8 3 12 2 9 -3 -3 -5 7 -11
22 -14 19 -4 33 0 47 14 25 25 12 37 -48 45 -37 5 -48 4 -53 -9z M4256 5113
c-11 -26 11 -40 32 -20 15 16 15 19 2 27 -21 14 -27 12 -34 -7z M52 4806 c2
-17 19 -26 93 -49 50 -15 128 -44 175 -63 47 -18 89 -34 94 -34 4 0 22 -6 39
-14 18 -8 86 -33 152 -56 66 -24 124 -47 129 -51 6 -5 20 -9 32 -9 13 0 25 -4
28 -9 3 -4 27 -14 53 -21 27 -8 64 -23 83 -35 19 -12 89 -38 155 -59 288 -91
374 -121 515 -182 73 -31 337 -123 373 -129 15 -3 36 -9 45 -14 9 -5 43 -19
75 -30 126 -46 174 -64 213 -82 22 -11 46 -19 53 -19 7 0 27 -6 44 -14 18 -8
55 -22 82 -30 77 -23 138 -45 158 -56 10 -6 22 -8 27 -5 6 3 20 -1 32 -9 12
-9 29 -16 36 -16 7 0 41 -11 75 -24 34 -13 103 -38 152 -56 87 -32 138 -52
180 -71 11 -5 63 -25 115 -43 52 -19 165 -64 250 -99 85 -35 193 -77 240 -93
l85 -29 -47 -3 c-41 -3 -48 -6 -57 -33 -9 -26 -13 -29 -31 -19 -22 12 -26 25
-10 35 15 9 12 22 -6 29 -30 12 -47 -14 -42 -66 4 -34 1 -48 -9 -52 -14 -6
-112 27 -148 49 -11 7 -38 18 -60 25 -37 12 -38 14 -17 23 26 12 29 32 5 41
-10 4 -26 -2 -41 -16 l-25 -23 17 26 c9 14 13 29 9 32 -14 14 -40 6 -52 -15
-10 -20 -11 -20 -7 -3 2 11 5 27 7 35 3 9 -4 16 -17 18 -16 2 -25 -5 -35 -27
-8 -17 -18 -31 -23 -31 -8 0 -4 31 8 61 5 11 1 19 -10 23 -20 8 -44 -12 -48
-40 -3 -17 -8 -20 -36 -15 -17 2 -11 34 11 57 23 25 18 44 -10 44 -20 0 -51
-40 -51 -65 0 -8 -5 -15 -11 -15 -7 0 -8 7 -4 18 22 53 26 85 13 93 -7 5 -16
9 -21 9 -10 0 -27 -46 -27 -76 0 -26 -11 -30 -42 -13 -20 11 -20 11 2 26 16
12 18 18 9 29 -6 7 -15 11 -21 8 -5 -3 -15 0 -23 6 -22 18 -48 5 -40 -20 7
-21 -1 -25 -24 -11 -9 6 -12 19 -8 39 4 21 2 32 -8 36 -18 7 -39 -19 -31 -40
4 -11 1 -14 -12 -12 -16 4 -20 20 -11 63 7 35 -30 31 -44 -4 -21 -56 -35 -35
-18 26 7 24 6 35 -5 44 -12 10 -18 8 -30 -7 -14 -18 -15 -18 -9 4 9 33 -23 42
-47 12 -10 -13 -17 -29 -14 -36 7 -18 -10 -27 -30 -16 -15 8 -15 10 0 15 21 8
21 33 -1 41 -19 8 -34 -10 -26 -31 7 -17 4 -17 -51 8 -44 19 -47 23 -44 52 2
26 -1 32 -17 32 -13 0 -21 -8 -23 -23 -4 -26 -27 -25 -27 1 0 9 -6 22 -12 28
-10 10 -17 9 -33 -6 -18 -16 -20 -16 -25 -1 -15 47 -15 46 12 33 21 -9 27 -8
39 8 11 15 17 16 26 7 7 -7 22 -12 33 -12 32 0 65 -36 65 -70 0 -23 5 -30 19
-30 14 0 20 9 23 36 3 29 -1 39 -24 59 -37 31 -113 55 -168 52 -47 -1 -142 29
-255 83 -68 32 -155 70 -161 70 -2 0 -4 -4 -4 -8 0 -5 21 -19 48 -32 26 -12
72 -37 102 -55 30 -18 70 -36 88 -40 32 -7 33 -8 16 -26 -22 -24 -34 -24 -34
1 0 15 -7 20 -24 20 -14 0 -27 -4 -31 -10 -10 -16 -33 0 -28 20 7 25 -15 35
-36 16 -24 -22 -31 -20 -31 8 0 32 -16 41 -36 21 -24 -24 -50 -15 -46 17 3 35
-13 43 -38 18 -26 -26 -29 -25 -27 7 2 33 -28 45 -38 14 -3 -12 -12 -18 -20
-14 -11 4 -12 10 -5 23 15 28 12 40 -11 40 -12 0 -23 -8 -26 -19 -3 -12 -11
-17 -20 -14 -11 4 -10 10 8 29 13 14 19 30 15 39 -9 25 -40 13 -51 -20 -7 -21
-15 -29 -28 -27 -13 3 -16 9 -11 25 4 12 11 24 15 25 15 6 10 30 -8 37 -19 7
-53 -26 -53 -51 0 -8 -4 -14 -9 -14 -19 0 -22 20 -6 43 26 41 -20 54 -49 15
-15 -20 -16 -21 -10 -3 12 37 9 50 -11 50 -11 0 -25 -11 -32 -25 -7 -14 -18
-25 -25 -25 -14 0 -14 14 -2 53 6 21 4 23 -22 20 -22 -2 -30 -9 -32 -26 -3
-20 -8 -23 -30 -17 -36 9 -37 11 -18 40 20 31 14 45 -20 45 -19 0 -26 -6 -30
-30 -4 -17 -13 -30 -21 -30 -11 0 -13 6 -8 23 14 45 11 62 -13 65 -18 3 -25
-3 -33 -27 -6 -17 -15 -31 -20 -31 -13 0 -11 7 7 35 14 22 14 24 -4 34 -15 8
-24 5 -42 -14 -32 -34 -53 -33 -40 1 15 37 13 41 -22 59 -33 16 -33 16 -60
-16 -24 -29 -28 -30 -34 -14 -5 12 -1 22 10 31 10 7 15 17 11 23 -10 17 -37
13 -62 -11 -19 -18 -23 -19 -23 -5 0 9 5 19 10 22 20 13 10 35 -16 35 -19 0
-28 -7 -37 -30 -6 -16 -15 -30 -19 -30 -12 0 -10 38 2 45 16 10 12 32 -6 39
-19 7 -54 -20 -54 -41 0 -15 -9 -16 -28 -4 -8 5 -12 21 -10 37 2 24 -1 30 -19
32 -17 3 -26 -3 -33 -22 -5 -14 -14 -26 -20 -26 -12 0 -12 0 1 40 9 25 9 34
-2 40 -18 12 -49 -7 -49 -30 0 -13 -7 -20 -20 -20 -24 0 -25 8 -4 31 20 23 12
49 -15 44 -12 -2 -21 3 -24 16 -3 10 -12 19 -20 19 -15 0 -52 -39 -59 -62 -3
-8 -9 -8 -24 0 -10 6 -13 12 -6 12 17 0 52 37 52 56 0 11 -8 14 -27 12 -21 -2
-30 -11 -37 -33 -6 -16 -11 -31 -12 -33 -1 -1 -32 8 -70 22 -38 13 -94 31
-124 40 -73 22 -83 29 -76 54 8 23 46 19 46 -4 0 -7 11 -21 26 -30 31 -21 52
-7 35 24 -9 16 -7 24 5 37 24 23 5 39 -30 25 -25 -9 -27 -8 -24 12 4 32 -25
34 -42 3 -8 -15 -22 -25 -36 -25 -16 0 -24 -7 -26 -22 -2 -17 -9 -22 -23 -20
-34 6 -49 27 -36 50 18 34 14 54 -11 50 -15 -2 -25 -13 -32 -36 -7 -25 -14
-32 -30 -30 -18 3 -21 10 -20 45 0 28 -4 44 -14 48 -24 9 -32 -5 -32 -59 l0
-53 73 -27 c39 -15 97 -38 127 -52 30 -13 91 -32 135 -43 44 -10 103 -27 130
-38 28 -11 68 -26 90 -32 22 -7 49 -16 60 -21 11 -4 45 -16 75 -24 30 -9 64
-21 75 -26 11 -6 76 -30 145 -54 69 -24 148 -54 175 -66 107 -48 134 -59 245
-95 109 -35 199 -68 335 -120 33 -13 139 -53 235 -90 96 -37 189 -73 205 -80
17 -8 75 -30 130 -50 55 -20 115 -43 132 -51 18 -8 52 -22 75 -30 24 -8 75
-29 113 -46 39 -17 85 -37 103 -45 18 -8 36 -12 41 -9 5 3 11 0 14 -8 3 -7 32
-22 64 -31 32 -10 63 -21 68 -25 6 -4 40 -17 77 -29 40 -14 69 -29 72 -39 3
-10 16 -22 28 -27 13 -6 23 -17 23 -25 0 -11 -10 -14 -43 -12 -50 4 -63 -14
-38 -53 12 -18 25 -25 49 -25 31 0 77 -29 77 -49 0 -15 56 -33 91 -29 43 4 51
33 18 59 -23 17 -23 18 -5 32 14 10 17 21 12 40 -3 15 -4 27 -1 27 2 0 103
-36 222 -79 120 -44 238 -85 263 -91 65 -16 130 -41 130 -50 0 -11 76 -40 103
-40 13 0 40 9 60 19 37 19 55 18 109 -4 9 -3 19 -18 23 -33 10 -42 54 -99 86
-112 25 -11 32 -10 49 5 12 11 18 25 15 36 -5 14 1 18 27 21 28 3 34 7 36 31
2 16 -2 35 -9 43 -9 11 -7 18 15 35 28 22 35 62 14 76 -7 4 -49 8 -93 10 -84
2 -114 -9 -119 -44 -2 -14 -10 -17 -37 -15 -49 5 -53 11 -24 34 14 10 25 27
25 36 -1 31 -44 69 -105 92 -33 13 -73 29 -90 36 -90 38 -165 60 -173 52 -7
-7 -17 -3 -29 9 -22 22 -123 65 -523 223 -85 33 -168 67 -185 75 -16 7 -88 35
-160 61 -71 25 -139 50 -150 55 -11 5 -82 29 -158 54 -134 44 -244 85 -279
105 -10 6 -23 10 -29 10 -10 0 -35 9 -195 71 l-51 20 40 39 c43 43 63 49 82
24 14 -20 95 -30 124 -15 25 14 27 28 5 52 -15 17 -14 20 10 41 14 13 28 35
32 50 5 22 1 29 -25 42 -44 23 -92 21 -98 -4 -4 -15 -11 -18 -29 -14 -37 9
-55 -12 -52 -60 3 -38 1 -41 -25 -44 -18 -2 -31 -11 -36 -25 -12 -31 -53 -51
-88 -43 -15 4 -53 11 -83 15 -30 4 -66 12 -80 18 -14 6 -56 21 -95 33 -38 12
-83 28 -100 35 -16 7 -48 18 -70 25 -22 7 -49 18 -60 24 -11 7 -54 23 -95 35
-103 32 -195 63 -330 111 -63 23 -126 45 -140 50 -14 4 -63 22 -110 40 -108
40 -181 66 -350 125 -74 25 -148 53 -165 60 -16 8 -76 29 -133 48 -100 34
-103 34 -100 13z m629 -389 c-8 -8 -11 -7 -11 4 0 20 13 34 18 19 3 -7 -1 -17
-7 -23z m1589 -90 c0 -6 -14 -26 -32 -42 -22 -21 -30 -24 -25 -12 4 10 7 30 7
43 0 19 5 24 25 24 14 0 25 -6 25 -13z m-113 -39 c-3 -8 -6 -5 -6 6 -1 11 2
17 5 13 3 -3 4 -12 1 -19z m78 -78 c-3 -5 -12 -7 -20 -3 -21 7 -19 13 6 13 11
0 18 -4 14 -10z m83 -359 c9 -5 25 -12 35 -15 17 -5 17 -7 -2 -28 -17 -18 -24
-20 -45 -10 -17 7 -24 18 -22 36 1 28 7 31 34 17z m418 -218 c-10 -10 -19 5
-10 18 6 11 8 11 12 0 2 -7 1 -15 -2 -18z m466 -222 c5 -4 -8 -5 -27 -3 -19 2
-38 8 -41 13 -6 10 57 0 68 -10z m795 -72 c77 -31 107 -53 100 -74 -2 -5 -10
-10 -18 -10 -8 0 -19 -4 -26 -8 -6 -4 -14 -3 -18 3 -6 9 -65 15 -65 6 0 -2 7
-20 15 -39 10 -24 11 -38 4 -42 -18 -12 -77 5 -107 30 -16 14 -53 30 -81 36
-28 6 -53 15 -57 20 -3 5 -14 9 -25 9 -35 0 -19 35 17 38 25 2 33 -1 37 -17 9
-37 36 -24 49 23 11 41 14 44 32 34 20 -11 20 -11 -2 -19 -16 -6 -22 -17 -22
-37 0 -16 3 -32 6 -35 10 -10 44 12 44 27 0 8 11 17 25 20 32 8 33 38 3 60
-29 21 -14 17 89 -25z m-823 -39 c14 -5 26 -14 26 -20 0 -6 -12 -4 -30 5 -44
23 -42 33 4 15z m1133 -165 c25 -11 33 -19 26 -26 -11 -11 -83 17 -83 33 0 12
16 10 57 -7z m-45 -70 c4 -5 5 -11 3 -14 -7 -6 -35 20 -47 43 l-11 21 24 -20
c13 -11 27 -24 31 -30z M439 4575 c-1 -19 -2 -41 -3 -47 -1 -7 8 -14 19 -14
11 -1 26 -2 33 -3 6 -1 12 -7 12 -15 0 -25 34 -29 53 -5 44 54 32 104 -26 104
-19 0 -39 3 -43 8 -4 4 -16 7 -26 7 -14 0 -18 -8 -19 -35z M50 4301 c0 -23 84
-60 236 -104 65 -19 137 -42 159 -52 22 -10 67 -28 100 -40 162 -59 264 -98
303 -117 24 -11 48 -21 55 -22 7 -2 23 -8 37 -14 14 -5 81 -34 150 -62 69 -28
143 -60 165 -70 72 -33 195 -80 209 -80 7 0 28 -7 46 -16 18 -9 46 -20 64 -24
17 -5 56 -18 86 -30 30 -12 82 -31 115 -41 32 -11 86 -31 120 -46 33 -14 74
-31 90 -38 17 -7 59 -27 95 -43 36 -17 99 -43 140 -57 41 -15 125 -45 185 -68
61 -22 137 -49 170 -58 80 -23 236 -77 257 -89 10 -6 26 -10 36 -10 10 0 22
-4 28 -8 5 -5 29 -15 54 -22 25 -8 50 -17 55 -20 6 -4 39 -18 75 -30 180 -64
260 -93 455 -172 28 -11 84 -32 125 -48 115 -43 322 -129 334 -138 11 -9 163
-73 181 -76 5 -2 80 -37 165 -78 123 -60 159 -82 168 -104 19 -40 2 -52 -43
-31 -19 9 -35 23 -35 31 0 27 -50 56 -94 54 -34 -1 -48 -8 -79 -41 -28 -27
-42 -36 -50 -28 -7 7 -6 15 4 27 13 15 11 16 -11 9 -14 -4 -31 -10 -38 -13
-10 -3 -11 3 -6 24 7 28 7 28 -17 13 -32 -21 -49 -14 -49 22 0 31 -26 41 -36
15 -9 -23 -36 -6 -32 19 4 21 2 22 -26 14 -44 -13 -48 -11 -41 10 7 24 -14 39
-29 19 -15 -20 -36 -11 -36 14 0 18 -4 19 -35 14 -34 -7 -35 -6 -29 18 4 19 2
26 -9 26 -8 0 -17 -7 -21 -15 -6 -17 -32 -20 -41 -5 -4 6 -1 17 5 25 6 8 10
24 8 37 l-3 23 -20 -22 c-11 -12 -26 -29 -33 -38 -22 -26 -32 -7 -16 30 10 25
11 36 2 41 -12 8 -38 -22 -38 -43 0 -13 -31 -18 -43 -7 -3 4 2 18 13 31 19 25
17 53 -4 53 -7 0 -20 -16 -29 -36 -19 -38 -42 -37 -33 2 9 36 -21 44 -45 13
-17 -22 -18 -23 -25 -5 -4 10 -2 28 5 39 10 16 10 21 -1 28 -13 9 -40 -15 -51
-44 -3 -9 -8 -9 -17 -1 -9 9 -8 18 4 42 8 16 13 32 10 35 -10 9 -38 -4 -56
-27 -24 -29 -36 -11 -16 25 16 27 16 29 -2 39 -15 8 -23 5 -40 -20 -12 -17
-28 -30 -36 -30 -21 0 -29 29 -15 53 10 16 10 21 0 28 -16 9 -44 -5 -53 -26
-3 -8 -10 -15 -17 -15 -6 0 -8 7 -5 16 3 9 9 27 12 40 9 36 -19 31 -51 -8
l-26 -33 3 35 c3 29 0 35 -19 38 -14 2 -23 -3 -28 -17 -10 -32 -28 -25 -20 8
8 37 -18 49 -42 21 -28 -32 -46 -26 -39 14 9 47 -18 57 -42 16 -13 -21 -22
-26 -32 -20 -12 7 -12 12 -2 22 6 6 12 20 12 30 0 27 -34 22 -50 -7 -15 -27
-47 -34 -56 -11 -3 8 -1 23 5 34 8 16 7 21 -7 27 -11 4 -24 -3 -40 -22 l-23
-28 3 30 c4 35 -20 45 -45 20 -9 -8 -19 -15 -23 -15 -5 0 -3 5 4 12 7 7 12 20
12 30 0 25 -35 23 -53 -2 -21 -30 -47 -16 -47 25 0 46 -18 54 -46 22 -14 -17
-25 -23 -30 -16 -3 6 -1 16 5 22 19 19 12 37 -14 37 -18 0 -28 -7 -35 -25 -6
-16 -15 -23 -25 -19 -11 5 -13 15 -9 46 6 38 6 40 -17 36 -13 -1 -28 -13 -34
-25 -15 -35 -27 -27 -19 12 5 31 4 35 -15 35 -11 0 -25 -9 -31 -20 -18 -33
-33 -24 -26 15 6 32 5 35 -17 35 -27 0 -40 -20 -30 -47 4 -11 3 -14 -6 -9 -7
5 -11 22 -9 39 2 26 -1 33 -19 35 -14 2 -23 -3 -28 -17 -13 -43 -57 -15 -48
30 5 25 2 29 -17 29 -13 0 -24 -8 -27 -20 -5 -21 -27 -27 -37 -11 -4 5 -2 20
3 34 8 21 7 26 -12 31 -12 3 -25 0 -29 -7 -21 -34 -27 -39 -38 -32 -7 4 -10
19 -6 36 5 26 3 29 -20 29 -17 0 -28 -7 -31 -20 -7 -25 -8 -25 -34 1 -11 11
-27 18 -34 15 -20 -7 -26 19 -10 42 8 10 11 22 8 26 -14 14 -44 5 -59 -19 -9
-14 -23 -25 -32 -25 -12 0 -13 3 -5 11 6 6 9 18 6 25 -3 8 0 14 6 14 21 0 11
39 -14 56 -32 21 -59 15 -63 -14 -5 -37 5 -57 22 -43 18 15 34 -5 17 -22 -7
-7 -22 -7 -51 3 -44 15 -47 18 -25 34 36 27 -11 75 -67 68 -37 -4 -36 -22 1
-22 17 0 33 -5 36 -11 9 -13 6 -16 -27 -24 -21 -6 -32 -2 -51 18 -16 18 -27
23 -38 16 -20 -13 -26 -11 -47 11 -10 11 -26 18 -34 15 -20 -8 -108 33 -115
53 -9 24 -25 32 -40 20 -20 -16 -41 -2 -45 29 -4 34 -33 43 -43 13 -9 -30 -29
-19 -30 16 0 35 -30 46 -40 14 -10 -32 -39 -21 -40 14 0 38 -22 45 -35 12 -8
-21 -13 -24 -32 -17 -13 5 -22 15 -20 24 1 8 -5 20 -14 28 -14 11 -18 11 -28
-3 -18 -25 -56 -12 -56 18 0 31 -29 43 -46 20 -20 -28 -49 -16 -49 19 0 36
-30 47 -40 16 -7 -22 -21 -26 -44 -12 -8 5 -11 16 -6 30 10 32 -23 40 -45 12
-23 -32 -56 -24 -53 12 1 20 -3 27 -16 27 -10 0 -24 -7 -31 -15 -7 -8 -16 -12
-22 -9 -5 3 -4 11 2 19 13 15 5 35 -12 35 -6 0 -20 -7 -30 -17 -17 -15 -18
-15 -18 0 0 10 -5 17 -11 17 -6 0 -8 7 -5 15 9 23 -22 30 -44 10 -27 -24 -63
-4 -54 30 5 21 2 25 -14 25 -12 0 -25 -6 -29 -14 -5 -9 -18 -12 -36 -9 -22 4
-27 10 -25 31 4 33 -15 38 -41 11 -11 -12 -26 -19 -35 -16 -12 5 -13 11 -3 36
9 24 8 33 -2 43 -10 11 -16 8 -32 -11 -10 -13 -19 -29 -19 -37 0 -14 -12 -19
-23 -8 -3 3 1 24 8 45 13 36 13 41 -2 46 -17 7 -53 -29 -53 -53 0 -8 -5 -14
-11 -14 -8 0 -10 16 -6 50 3 27 2 52 -4 55 -5 4 -9 -26 -9 -73 0 -78 1 -80 28
-90 60 -24 210 -72 222 -72 8 0 21 -6 29 -14 20 -17 125 -55 261 -96 129 -39
411 -139 505 -180 11 -5 45 -16 75 -26 30 -9 60 -20 65 -24 6 -3 55 -23 110
-44 55 -21 168 -64 250 -96 83 -32 161 -61 175 -65 14 -3 43 -15 65 -25 22
-10 61 -28 86 -39 25 -12 53 -21 61 -21 8 0 18 -4 24 -9 5 -5 32 -17 59 -26
140 -49 188 -67 280 -105 55 -23 132 -53 170 -67 39 -13 77 -32 85 -41 8 -9
34 -32 58 -50 23 -19 42 -38 42 -42 0 -5 -15 -10 -32 -12 -26 -2 -34 -8 -36
-26 -5 -32 25 -62 61 -62 22 0 28 -4 23 -16 -16 -41 55 -114 111 -114 40 0 51
20 32 58 -7 15 -15 30 -17 35 -2 4 10 7 26 7 37 0 57 22 43 47 -20 38 -105 96
-129 89 -12 -4 -27 3 -43 20 -29 32 -34 33 131 -26 63 -23 133 -47 155 -55 22
-7 65 -24 95 -38 30 -14 100 -44 155 -67 55 -24 137 -60 183 -81 45 -22 86
-39 90 -39 4 0 54 -18 112 -41 58 -22 130 -50 160 -62 70 -26 240 -108 305
-146 28 -17 66 -35 85 -42 19 -6 46 -19 60 -29 34 -23 117 -50 155 -50 17 0
40 7 52 15 16 11 28 13 46 6 18 -7 30 -6 43 4 30 22 34 18 28 -27 -9 -73 48
-145 100 -125 22 9 20 53 -3 76 -22 22 -45 61 -39 66 6 6 23 -9 41 -38 14 -21
25 -27 52 -27 29 0 36 4 41 25 3 14 4 31 1 39 -8 21 3 27 26 15 24 -14 67 6
67 31 0 46 -101 87 -155 62 -18 -8 -26 -8 -35 4 -25 29 -70 10 -70 -31 0 -14
-10 -23 -35 -31 l-35 -11 0 41 c-1 25 -8 50 -19 64 -19 21 -114 72 -137 72 -6
0 -22 8 -35 18 -22 18 -160 81 -354 165 -44 19 -105 46 -135 59 -58 27 -76 34
-230 93 -52 20 -108 42 -123 50 -16 8 -33 15 -38 15 -4 0 -32 11 -61 24 -29
13 -75 30 -103 39 -27 8 -102 35 -165 60 -63 24 -126 48 -140 52 -14 4 -38 13
-55 20 -16 7 -46 18 -65 25 -95 32 -438 153 -540 190 -116 42 -176 67 -305
125 -38 18 -85 38 -102 45 -39 15 -41 22 -9 40 13 7 27 22 30 33 4 17 7 18 20
8 9 -8 14 -17 11 -21 -8 -13 23 -32 51 -32 15 0 30 6 35 13 24 38 -4 79 -54
79 -18 0 -38 4 -46 9 -16 11 -7 47 15 55 24 9 35 -3 24 -24 -14 -27 5 -35 35
-16 30 20 31 26 4 59 -18 24 -25 26 -68 21 -36 -4 -51 -1 -61 11 -15 18 -51
20 -68 3 -19 -19 -14 -63 8 -83 16 -14 19 -26 15 -47 -5 -23 -3 -28 12 -28 16
-1 15 -3 -6 -20 -27 -23 -48 -25 -88 -9 -85 34 -155 61 -305 114 -70 25 -160
60 -200 78 -40 19 -93 40 -118 47 -25 8 -54 20 -65 27 -11 7 -25 13 -32 13
-13 0 -93 34 -178 75 -27 13 -95 41 -150 60 -137 50 -159 58 -245 94 -41 17
-120 44 -175 61 -55 17 -122 40 -150 51 -27 11 -69 26 -92 34 -39 12 -43 12
-43 -4z m1877 -525 c-4 -9 -11 -16 -17 -16 -15 0 -24 26 -16 47 6 15 8 15 23
1 9 -9 13 -24 10 -32z m503 -496 c0 -5 -4 -10 -10 -10 -5 0 -10 5 -10 10 0 6
5 10 10 10 6 0 10 -4 10 -10z m270 -300 c0 -5 -2 -10 -4 -10 -3 0 -8 5 -11 10
-3 6 -1 10 4 10 6 0 11 -4 11 -10z m155 -28 c-3 -3 -16 5 -28 17 l-22 23 28
-17 c15 -10 25 -20 22 -23z m-49 -89 c-11 -11 -36 20 -36 46 l0 26 21 -33 c12
-18 19 -36 15 -39z m1603 -364 c23 -44 26 -59 11 -59 -5 0 -9 6 -7 13 1 6 -5
12 -13 12 -8 0 -20 7 -27 15 -10 13 -14 12 -27 -5 -8 -11 -16 -15 -16 -8 0 6
5 15 10 18 15 9 12 45 -3 45 -7 0 -18 -5 -25 -12 -9 -9 -12 -8 -12 4 0 11 10
18 33 20 46 5 54 1 76 -43z m271 -7 c0 -13 -12 -22 -22 -16 -10 6 -1 24 13 24
5 0 9 -4 9 -8z m144 -8 c9 -3 16 -15 16 -25 0 -16 -5 -18 -32 -12 -52 10 -80
22 -73 33 7 11 64 14 89 4z m-84 -64 c18 -9 18 -50 0 -50 -8 0 -40 44 -40 55
0 8 20 6 40 -5z m-71 -96 c7 -17 6 -25 -4 -34 -10 -8 -17 -4 -29 21 -9 18 -16
38 -16 46 0 19 36 -5 49 -33z M1336 3732 c-9 -14 51 -52 82 -52 16 0 36 -7 43
-16 30 -36 129 -43 129 -9 0 18 1 18 -38 4 -29 -10 -35 -8 -64 17 -56 47 -139
77 -152 56z M906 3693 c-9 -9 35 -54 45 -47 5 3 5 13 -1 23 -10 20 -35 33 -44
24z M1890 3501 c0 -5 7 -14 16 -22 13 -10 17 -10 24 1 5 8 6 18 4 22 -7 11
-44 10 -44 -1z M3492 3428 c-19 -19 -14 -56 9 -63 25 -8 28 -5 35 30 7 38 -20
57 -44 33z M3583 3422 c-18 -11 -28 -68 -14 -77 16 -9 41 13 41 35 0 10 6 21
13 23 9 4 8 8 -3 16 -18 13 -21 13 -37 3z M50 2907 c0 -29 16 -37 305 -142 55
-21 141 -54 190 -75 50 -21 117 -49 150 -61 33 -12 69 -26 80 -30 11 -5 50
-20 87 -34 38 -14 76 -29 85 -34 39 -19 71 -33 153 -62 47 -17 135 -48 195
-71 61 -22 130 -46 155 -54 25 -8 54 -18 65 -23 66 -30 100 -43 190 -74 189
-66 220 -77 237 -87 10 -6 25 -10 33 -10 8 0 23 -4 33 -9 43 -22 180 -77 302
-121 63 -23 147 -55 185 -71 39 -16 73 -29 76 -29 4 0 42 -16 85 -37 44 -20
84 -38 89 -39 19 -6 200 -71 228 -82 16 -7 33 -12 38 -12 5 0 19 -5 32 -12 47
-24 57 -28 72 -28 8 0 23 -4 33 -9 21 -12 140 -56 297 -110 66 -23 129 -46
140 -51 11 -5 36 -13 55 -18 19 -6 100 -36 180 -67 80 -32 181 -70 225 -85 97
-34 224 -96 227 -110 0 -5 1 -15 2 -22 1 -7 -19 -13 -49 -15 -59 -5 -78 -19
-52 -38 22 -16 9 -26 -39 -32 -45 -5 -77 35 -68 84 5 29 4 33 -14 33 -12 0
-27 -9 -35 -20 -12 -18 -16 -18 -26 -6 -7 8 -10 24 -7 34 7 21 -17 48 -34 37
-5 -3 -10 -15 -10 -26 0 -10 -7 -19 -15 -19 -17 0 -21 25 -5 35 13 8 1 35 -15
35 -8 0 -23 -12 -34 -27 -26 -33 -39 -24 -16 11 16 24 16 26 1 32 -23 9 -47
-3 -53 -26 -3 -11 -10 -20 -15 -20 -8 0 -5 18 9 57 9 24 -36 13 -53 -13 -11
-16 -20 -22 -26 -16 -6 6 -3 20 8 37 15 23 15 28 3 36 -22 14 -27 11 -44 -21
-20 -38 -28 -38 -20 0 5 23 3 32 -11 37 -10 4 -19 2 -21 -4 -2 -5 -10 -18 -17
-28 -12 -17 -15 -17 -35 -3 -22 15 -22 16 -1 21 25 7 27 37 1 37 -10 0 -24 -7
-31 -15 -20 -24 -32 -17 -25 14 5 23 2 29 -14 34 -24 6 -31 0 -31 -25 0 -20
-8 -22 -28 -9 -8 4 -12 19 -10 32 4 29 -30 39 -48 14 -19 -26 -58 -10 -50 21
5 20 3 24 -18 24 -14 0 -28 -5 -31 -10 -12 -20 -35 -10 -35 15 0 35 -26 42
-51 14 l-20 -24 6 38 c5 33 3 37 -14 37 -12 0 -26 -9 -33 -20 -18 -29 -29 -25
-18 6 6 14 8 30 4 35 -8 14 -44 11 -44 -3 -1 -29 -16 -39 -44 -28 -15 5 -24
15 -21 20 7 12 -12 40 -26 40 -5 0 -9 -9 -9 -21 0 -16 -4 -19 -17 -14 -10 4
-26 9 -35 12 -9 3 -18 17 -20 31 -4 32 -27 41 -35 13 -6 -23 -15 -26 -43 -11
-12 6 -16 17 -13 30 4 15 0 20 -14 20 -10 0 -24 -5 -30 -11 -17 -17 -33 -1
-33 32 0 34 -29 41 -37 9 -4 -17 -8 -18 -20 -8 -8 7 -19 22 -24 35 -11 28 -35
30 -44 3 -3 -11 -13 -20 -21 -20 -13 0 -16 5 -18 40 -1 8 -9 16 -19 18 -12 2
-17 -3 -17 -18 0 -13 -5 -20 -12 -17 -7 2 -13 15 -13 28 0 31 -29 32 -33 1 -5
-34 -27 -21 -28 16 -1 18 -4 35 -8 39 -8 8 -27 -10 -29 -28 -3 -15 -9 -19 -31
-19 -11 0 -13 10 -9 41 5 36 4 41 -13 37 -12 -2 -20 -13 -22 -30 -2 -20 -7
-25 -23 -21 -14 4 -19 14 -19 39 0 38 -28 49 -37 14 -7 -28 -23 -25 -23 4 0
42 -33 42 -42 1 -5 -21 -8 -17 -23 30 -2 8 -11 15 -20 15 -8 0 -15 -7 -15 -15
0 -8 -7 -15 -15 -15 -8 0 -15 6 -15 13 0 17 36 38 55 31 23 -9 47 15 39 40 -9
28 -22 36 -66 36 -29 0 -36 3 -32 15 9 24 -32 19 -56 -7 -24 -26 -26 -55 -3
-80 13 -14 13 -18 2 -18 -29 0 -41 17 -35 47 5 22 3 32 -8 36 -15 6 -29 -6
-40 -37 -6 -16 -8 -17 -28 -4 -37 25 -44 44 -25 66 9 10 14 22 10 25 -16 16
-45 5 -63 -25 -16 -27 -20 -29 -26 -14 -4 9 -1 29 5 43 10 21 9 28 -1 34 -21
14 -27 11 -48 -28 -20 -37 -21 -38 -16 -8 2 17 7 40 11 53 11 34 -15 28 -47
-10 l-27 -33 -1 28 c0 27 -22 38 -35 17 -3 -5 -17 -10 -31 -10 -20 0 -24 4
-20 18 7 22 -17 58 -32 48 -7 -4 -12 -19 -12 -32 0 -16 -5 -24 -12 -21 -8 2
-13 21 -13 43 0 50 -28 60 -43 15 -15 -43 -40 -32 -35 15 3 30 1 35 -14 32
-10 -2 -23 -14 -29 -26 -10 -20 -12 -21 -18 -7 -3 9 -3 28 0 42 6 22 4 24 -17
21 -16 -2 -25 -11 -27 -25 -2 -13 -10 -23 -19 -23 -12 0 -14 7 -10 29 5 21 2
31 -10 35 -17 7 -33 -9 -33 -31 0 -7 -5 -13 -11 -13 -7 0 -9 16 -4 50 4 28 3
50 -2 51 -4 0 -21 2 -38 4 -33 5 -65 -18 -65 -47 0 -10 -4 -18 -9 -18 -17 0
-18 25 -3 48 13 21 13 25 0 38 -14 14 -17 14 -32 -1 -9 -9 -16 -23 -16 -31 0
-8 -5 -14 -11 -14 -7 0 -9 11 -6 29 4 21 2 31 -9 35 -23 9 -24 8 -36 -25 -13
-38 -30 -19 -21 24 5 25 3 28 -13 25 -10 -2 -23 -13 -29 -26 -11 -26 -31 -30
-20 -4 18 44 18 52 -4 52 -13 0 -26 -10 -33 -25 -6 -14 -15 -25 -20 -25 -12 0
-10 24 3 37 16 16 3 47 -16 39 -9 -3 -15 0 -15 9 0 25 -39 17 -52 -10 -6 -14
-15 -25 -20 -25 -8 0 -5 19 9 58 3 7 -3 12 -15 12 -11 0 -22 7 -26 15 -8 23
-41 18 -54 -7 -11 -21 -11 -20 -6 10 5 28 3 32 -15 32 -14 0 -25 -9 -31 -25
-12 -31 -31 -33 -27 -3 3 33 -30 36 -44 4 -12 -25 -12 -25 -28 -4 -15 18 -18
19 -30 4 -20 -23 -44 -21 -36 4 10 33 -6 46 -25 20 -15 -20 -19 -21 -38 -9
-12 7 -22 25 -24 39 -3 28 -38 42 -38 15 0 -11 -7 -15 -22 -13 -19 2 -22 8
-20 31 3 19 -1 27 -13 27 -8 0 -18 -7 -21 -15 -9 -22 -48 -20 -41 3 2 9 6 23
8 31 2 8 -3 16 -12 18 -11 3 -19 -5 -23 -22 -8 -32 -43 -31 -37 0 8 41 6 60
-9 60 -8 0 -18 -15 -24 -33 -14 -49 -31 -33 -30 27 1 37 -2 51 -12 51 -16 0
-34 -31 -34 -59 0 -24 -28 -29 -49 -8 -10 10 -12 7 -9 -13 3 -21 14 -29 78
-51 41 -14 82 -29 90 -32 8 -3 53 -17 100 -32 47 -15 121 -46 165 -69 44 -22
87 -41 95 -42 20 -1 58 -12 95 -29 65 -28 133 -54 190 -70 33 -10 78 -26 100
-36 69 -31 237 -91 300 -106 33 -9 65 -19 70 -24 6 -4 37 -17 70 -29 33 -12
80 -31 105 -42 25 -11 58 -23 74 -25 15 -2 42 -13 60 -24 17 -10 43 -19 58
-19 17 0 29 -7 33 -19 6 -19 35 -32 215 -92 52 -17 104 -37 115 -43 21 -13 88
-37 213 -77 39 -13 72 -29 72 -36 0 -7 8 -21 17 -31 22 -23 40 -50 52 -79 6
-11 15 -24 20 -28 16 -9 13 -28 -3 -22 -9 4 -20 -7 -31 -29 -15 -32 -15 -37
-1 -60 20 -30 22 -30 62 1 l33 25 20 -29 c11 -16 32 -31 46 -33 28 -6 65 16
65 38 0 15 -27 46 -56 62 -18 10 -18 11 0 31 18 20 18 22 2 40 -10 11 -32 23
-50 26 -29 7 -86 50 -86 67 0 4 19 -1 43 -11 24 -10 70 -25 103 -32 32 -7 95
-28 139 -47 44 -19 100 -40 125 -47 25 -8 81 -27 125 -44 102 -38 297 -108
355 -128 25 -8 77 -30 115 -48 114 -53 134 -61 283 -119 78 -31 160 -59 182
-62 21 -4 47 -15 56 -25 9 -11 24 -19 32 -19 8 0 32 -16 53 -35 22 -19 47 -35
57 -36 9 0 26 -2 37 -4 11 -2 34 5 51 16 44 27 52 24 60 -17 16 -88 176 -170
167 -85 -2 16 3 21 21 21 33 0 53 26 38 50 -10 17 -8 19 31 22 34 2 43 7 45
24 2 13 14 24 34 30 18 5 35 19 39 32 5 13 5 21 0 18 -5 -3 -11 3 -14 13 -7
29 -63 36 -137 17 -65 -17 -130 -50 -130 -67 0 -5 -17 -9 -37 -9 l-38 1 28 20
c33 26 34 39 2 77 -24 29 -110 70 -230 112 -27 9 -95 35 -150 57 -216 87 -559
214 -629 233 -46 13 -48 14 -25 23 13 5 39 17 57 26 26 13 36 13 50 4 55 -39
116 -52 153 -33 21 12 26 56 7 63 -7 2 -10 8 -6 12 4 4 14 2 22 -4 19 -16 47
-7 64 19 11 17 10 26 -5 51 -20 34 -48 44 -104 36 -29 -4 -42 -1 -46 9 -8 21
-66 17 -97 -7 -16 -12 -26 -30 -26 -46 0 -29 -39 -70 -73 -77 -57 -12 -94 -12
-122 -1 -16 7 -35 10 -42 8 -6 -2 -72 16 -145 41 -128 43 -178 63 -389 154
-53 23 -101 42 -107 42 -6 0 -37 12 -69 26 -32 14 -89 37 -128 50 -38 14 -79
29 -90 34 -69 30 -197 81 -235 93 -25 9 -61 22 -80 30 -19 8 -66 24 -105 37
-38 12 -83 28 -100 36 -16 7 -61 24 -100 39 -38 15 -79 31 -90 35 -31 15 -252
95 -330 120 -63 21 -108 39 -212 86 -17 8 -35 14 -40 14 -11 0 -173 66 -180
74 -4 3 -13 6 -21 6 -14 0 -114 40 -155 62 -13 6 -23 5 -32 -2 -15 -12 -35 -6
-35 11 0 5 8 9 18 10 9 0 -3 6 -28 13 -47 13 -235 89 -328 132 -65 30 -72 30
-72 1z m700 -457 c0 -5 -2 -10 -4 -10 -3 0 -8 5 -11 10 -3 6 -1 10 4 10 6 0
11 -4 11 -10z m131 -27 c-8 -15 -10 -15 -11 -2 0 17 10 32 18 25 2 -3 -1 -13
-7 -23z m375 -109 c-3 -9 -6 -22 -6 -30 0 -8 -7 -14 -15 -14 -18 0 -18 2 -3
35 12 27 34 36 24 9z m909 -304 c3 -5 -1 -10 -9 -10 -9 0 -16 -8 -16 -17 0
-13 -3 -14 -11 -6 -7 7 -9 19 -6 27 7 18 33 21 42 6z m1411 -181 c12 -20 -11
-31 -40 -18 -20 10 -29 10 -38 1 -7 -7 -17 -12 -22 -12 -6 1 0 10 13 20 25 22
76 27 87 9z m-76 -85 c0 -2 -11 -4 -25 -4 -14 0 -25 4 -25 9 0 4 11 6 25 3 14
-2 25 -6 25 -8z m-955 -75 c4 -6 5 -13 1 -16 -8 -8 -56 6 -56 17 0 13 47 13
55 -1z m-90 -90 c-19 -35 -30 -32 -21 6 4 14 13 25 21 25 14 0 14 -4 0 -31z
m123 -22 c5 -24 -15 -21 -28 4 -10 18 -9 20 7 17 10 -2 19 -11 21 -21z m2002
-336 c0 -14 -27 -21 -81 -21 -52 0 -67 16 -21 23 52 8 102 7 102 -2z m-160
-66 c11 -13 9 -15 -19 -13 -31 2 -37 8 -24 21 11 12 30 8 43 -8z m99 0 c2 -3
-12 -5 -32 -5 -20 0 -38 4 -42 10 -6 9 64 5 74 -5z m-103 -45 c15 0 24 -6 24
-15 0 -21 -27 -19 -66 6 -40 25 -44 32 -8 19 14 -6 36 -10 50 -10z m-64 -40
c34 -31 39 -40 23 -40 -18 0 -85 56 -85 72 0 17 20 7 62 -32z M4210 2631 c0
-10 25 -21 48 -21 12 1 10 5 -8 15 -29 17 -40 18 -40 6z M4290 2600 c0 -5 5
-10 11 -10 5 0 7 5 4 10 -3 6 -8 10 -11 10 -2 0 -4 -4 -4 -10z M50 2123 c0
-18 41 -43 68 -43 8 0 44 -14 80 -31 37 -17 130 -51 207 -76 79 -26 155 -57
175 -72 19 -15 53 -35 75 -44 22 -10 48 -22 58 -28 10 -5 56 -23 102 -40 52
-19 85 -36 85 -45 0 -15 2 -16 41 -19 15 -1 47 -12 72 -24 25 -12 74 -30 109
-40 34 -11 83 -27 108 -38 25 -11 92 -34 150 -52 111 -35 232 -77 265 -91 47
-21 142 -58 165 -65 14 -4 43 -16 65 -26 22 -10 111 -46 198 -79 88 -34 166
-65 175 -70 10 -5 87 -34 172 -65 85 -31 175 -63 200 -72 44 -16 58 -16 52 0
-1 4 7 7 18 7 14 0 20 -7 20 -23 0 -20 12 -27 88 -54 48 -17 98 -34 112 -38
43 -11 162 -57 227 -86 95 -43 132 -58 208 -86 39 -14 84 -31 100 -38 17 -7
93 -39 170 -70 77 -31 172 -72 211 -91 39 -19 75 -34 78 -34 15 0 169 -81 202
-106 27 -21 32 -30 23 -40 -6 -8 -20 -14 -30 -14 -14 0 -19 -7 -19 -25 0 -16
-6 -25 -15 -25 -8 0 -15 -4 -15 -10 0 -5 -9 -10 -20 -10 -24 0 -25 4 -5 34 13
19 13 25 2 34 -15 13 -30 5 -46 -25 -6 -13 -19 -23 -29 -23 -15 1 -15 2 -1 13
22 17 41 55 33 68 -3 6 -17 9 -30 6 -14 -2 -25 1 -28 9 -8 21 -32 17 -49 -9
-23 -35 -6 -56 27 -34 34 23 39 21 24 -6 -7 -12 -14 -24 -15 -26 -2 -4 -93 30
-93 35 0 3 5 13 12 23 13 22 4 54 -15 49 -6 -3 -18 -17 -25 -31 -12 -24 -16
-26 -35 -16 -12 7 -23 13 -25 14 -1 1 4 15 13 31 17 33 19 54 6 54 -12 0 -38
-26 -51 -51 -12 -21 -18 -23 -39 -10 -12 8 -10 16 12 45 32 41 33 46 8 46 -11
0 -33 -16 -49 -36 -35 -43 -56 -28 -23 17 30 40 26 56 -11 50 -5 0 -8 4 -8 9
0 6 -11 10 -25 10 -26 0 -45 -25 -45 -60 0 -17 -3 -19 -19 -11 -13 7 -17 18
-14 36 6 29 -20 36 -35 8 -6 -10 -16 -14 -26 -10 -14 6 -15 11 -6 28 6 11 9
28 5 37 -6 15 -10 13 -30 -11 -38 -43 -64 -28 -30 17 20 27 19 36 -5 36 -12 0
-25 -10 -32 -25 -16 -35 -40 -33 -32 2 4 16 11 32 15 37 14 16 10 26 -10 26
-11 0 -23 -12 -31 -30 -12 -28 -29 -38 -43 -24 -3 4 1 23 9 42 8 20 12 42 9
50 -8 22 -55 -25 -55 -55 0 -25 -7 -28 -29 -14 -12 8 -11 16 7 49 11 22 18 43
15 46 -15 15 -34 3 -53 -35 -18 -34 -24 -38 -36 -28 -10 8 -12 15 -4 23 15 15
12 36 -5 36 -8 0 -19 -9 -25 -20 -8 -16 -17 -19 -33 -14 -29 9 -39 25 -25 41
11 14 4 43 -10 43 -5 0 -15 -11 -22 -25 -14 -27 -39 -32 -57 -14 -9 9 -8 17 2
33 10 15 11 26 4 36 -8 13 -12 12 -28 -8 -11 -12 -21 -27 -23 -32 -2 -5 -13
-7 -25 -4 l-22 6 20 34 c23 41 23 44 5 44 -8 0 -26 -13 -39 -30 -30 -35 -63
-32 -52 4 17 57 -4 76 -30 27 -8 -17 -20 -31 -25 -31 -13 0 -13 27 -1 32 5 2
11 12 13 23 4 29 -34 27 -47 -2 -5 -13 -16 -23 -23 -23 -9 0 -9 7 3 31 29 55
-2 83 -33 29 -20 -35 -37 -40 -27 -7 17 55 17 67 3 67 -18 0 -45 -28 -49 -52
-3 -12 -8 -15 -18 -9 -10 7 -11 13 -1 31 6 12 9 28 6 36 -8 20 -42 2 -51 -26
-8 -25 -27 -27 -23 -2 2 14 -3 16 -30 14 -33 -2 -33 -1 -27 28 6 26 4 30 -15
30 -13 0 -24 -8 -27 -20 -3 -11 -9 -20 -14 -20 -15 0 -21 22 -10 33 16 16 14
47 -3 47 -8 0 -23 -11 -34 -25 -28 -35 -35 -31 -27 14 9 53 -17 64 -45 18
l-20 -32 0 33 c0 37 -23 44 -40 12 -14 -25 -45 -28 -35 -2 4 9 10 27 12 40 8
34 -28 28 -49 -9 -19 -33 -46 -32 -28 1 16 30 12 50 -10 50 -12 0 -25 -10 -32
-25 -17 -38 -30 -30 -26 18 4 52 -20 58 -42 10 -16 -35 -19 -37 -38 -24 -12 7
-11 14 2 39 21 41 20 52 -4 52 -13 0 -29 -14 -42 -37 -24 -40 -37 -28 -18 17
7 16 9 34 5 39 -13 22 -36 10 -51 -24 -13 -32 -32 -44 -47 -29 -3 4 3 19 15
34 11 16 18 36 15 44 -10 27 -41 18 -58 -17 -9 -19 -25 -33 -37 -35 -26 -4
-27 0 -6 39 32 63 -10 82 -46 22 -26 -43 -39 -30 -16 15 14 26 14 31 1 42 -12
10 -18 10 -30 0 -8 -7 -15 -18 -15 -25 0 -6 -9 -20 -19 -29 -27 -24 -36 -3
-15 33 21 35 12 64 -18 59 -16 -2 -24 -12 -29 -36 -9 -42 -13 -46 -38 -32
l-22 11 21 26 c29 37 27 73 -5 73 -16 0 -25 -6 -25 -15 0 -26 -30 -76 -41 -69
-11 6 -8 40 6 75 4 11 0 18 -14 22 -24 6 -41 -10 -41 -40 0 -14 -6 -23 -15
-23 -18 0 -19 23 -3 50 10 16 10 22 0 32 -11 11 -17 9 -33 -11 -10 -13 -19
-29 -19 -37 0 -8 -5 -14 -11 -14 -7 0 -8 7 -4 18 4 9 9 23 12 30 9 21 -38 14
-56 -10 -22 -26 -57 -19 -46 10 18 43 17 52 -2 52 -11 0 -25 -11 -31 -25 -13
-28 -38 -35 -27 -7 16 38 16 49 0 56 -11 4 -21 -3 -33 -24 -17 -30 -42 -41
-42 -17 1 6 7 23 15 37 19 34 18 40 -5 40 -13 0 -29 -13 -42 -35 -23 -40 -35
-41 -17 -2 6 14 9 33 6 41 -11 27 -35 17 -48 -19 -13 -35 -32 -45 -45 -24 -4
7 1 16 10 21 9 5 16 16 16 23 0 22 -33 18 -48 -6 -21 -33 -25 -15 -6 25 10 19
14 39 10 43 -12 13 -41 -13 -51 -45 -5 -18 -15 -32 -22 -32 -24 0 -26 29 -4
65 26 44 26 55 3 55 -11 0 -28 -17 -43 -42 -21 -39 -24 -41 -27 -20 -2 14 5
33 18 46 17 19 18 25 7 34 -16 14 -28 6 -56 -40 -14 -25 -27 -35 -37 -31 -13
5 -12 9 5 27 24 26 27 46 7 46 -16 0 -42 -22 -49 -42 -2 -7 -7 -10 -11 -7 -6
6 8 46 32 92 2 4 -3 7 -10 7 -17 0 -58 -41 -58 -58 0 -7 -9 -12 -20 -12 -19 0
-20 2 -5 29 8 17 19 33 25 36 17 11 11 35 -10 35 -18 0 -57 -54 -52 -72 1 -5
-3 -8 -8 -8 -19 0 -21 26 -5 64 11 25 13 42 7 48 -15 15 -31 1 -49 -44 -13
-33 -20 -39 -37 -34 -12 3 -24 6 -28 6 -14 0 -9 16 18 55 20 29 22 40 12 46
-15 10 -55 -25 -71 -61 -10 -24 -11 -24 -14 -3 -2 12 3 35 11 52 21 40 20 44
-9 37 -18 -5 -25 -2 -25 9 0 8 -6 15 -13 15 -16 0 -57 -42 -57 -58 0 -7 -9
-12 -20 -12 -24 0 -25 9 -5 36 16 21 20 54 6 54 -5 0 -22 -15 -37 -32 l-27
-33 6 30 c3 17 8 40 12 53 5 13 3 22 -3 22 -15 0 -62 -45 -62 -58 0 -15 -17
-24 -24 -13 -4 5 5 23 19 39 30 36 31 42 6 42 -26 0 -71 -59 -71 -93 0 -20 7
-28 33 -36 19 -6 51 -20 72 -31 22 -11 45 -20 52 -20 12 0 84 -31 93 -40 9 -9
85 -44 92 -42 14 3 132 -45 261 -107 160 -77 265 -115 567 -209 52 -16 129
-46 170 -65 41 -19 102 -43 135 -52 33 -10 67 -21 75 -25 47 -23 166 -68 323
-121 70 -24 123 -45 117 -47 -22 -8 -9 -39 22 -53 37 -16 51 -49 21 -49 -29 0
-63 -29 -63 -54 0 -33 24 -49 62 -43 24 4 48 -2 85 -21 42 -21 56 -25 70 -16
27 17 27 39 0 70 -20 23 -22 32 -14 46 15 23 -18 50 -53 44 -19 -4 -28 1 -35
17 -6 12 -26 30 -45 39 -54 26 -27 21 41 -8 34 -14 67 -23 74 -20 7 2 21 -4
31 -15 9 -10 25 -19 35 -19 10 0 20 -4 23 -9 3 -4 36 -18 73 -31 69 -23 119
-44 208 -87 28 -13 85 -38 129 -55 147 -57 147 -59 9 -54 -143 6 -277 20 -458
48 -71 11 -148 22 -170 25 -22 2 -85 15 -140 28 -55 13 -151 31 -214 41 -63 9
-132 22 -154 30 -22 8 -65 16 -96 20 -86 8 -91 11 -84 44 3 16 2 37 -2 47 -4
10 -7 32 -6 49 2 27 -5 36 -48 68 -54 38 -73 42 -115 26 -21 -8 -26 -16 -26
-44 0 -19 5 -38 10 -41 6 -3 10 -11 10 -17 0 -6 -8 -4 -18 5 -22 20 -133 31
-194 19 -38 -7 -45 -7 -41 5 10 26 -18 45 -58 39 -36 -6 -99 17 -99 37 0 4 -6
7 -13 7 -8 0 -13 15 -13 40 -2 52 -28 82 -69 79 -17 -2 -36 0 -43 5 -7 4 -21
4 -32 1 -16 -5 -22 0 -31 22 -19 49 -38 63 -90 63 -44 0 -50 -3 -64 -30 -14
-26 -18 -28 -41 -20 -22 9 -30 6 -60 -24 -30 -30 -40 -52 -35 -79 1 -5 -12 -6
-29 -2 -22 5 -37 1 -58 -13 -17 -12 -37 -18 -52 -15 -17 3 -36 -4 -61 -24 -45
-34 -56 -50 -64 -97 -7 -32 -5 -36 11 -30 18 5 18 5 2 -6 -22 -13 -24 -40 -3
-40 8 0 30 13 48 30 19 16 44 30 55 30 11 0 39 9 63 20 28 12 64 19 99 19 51
-1 53 -1 23 -10 -21 -6 -45 -26 -65 -53 -35 -47 -90 -76 -186 -97 -40 -10 -52
-17 -52 -31 0 -14 5 -18 18 -14 9 3 37 10 62 16 86 21 170 63 170 86 0 20 35
43 56 38 14 -4 34 6 64 31 58 48 125 82 181 90 36 5 62 1 119 -19 40 -13 82
-34 94 -45 43 -40 116 -65 199 -66 42 0 77 2 77 6 0 10 115 -24 134 -40 10 -8
23 -26 31 -41 11 -21 26 -29 72 -40 32 -7 65 -17 73 -21 8 -4 38 -9 65 -12 28
-3 64 -11 79 -17 33 -12 40 -14 186 -34 58 -8 157 -26 220 -40 147 -31 301
-56 415 -66 50 -4 119 -13 155 -18 109 -17 379 -25 395 -12 10 9 48 -3 172
-54 87 -35 187 -78 222 -94 l64 -29 -37 -13 c-29 -9 -34 -15 -26 -25 12 -14
86 -9 108 8 8 6 16 6 25 0 6 -5 32 -18 57 -27 25 -10 59 -24 75 -31 92 -40
204 -85 228 -90 15 -4 30 -12 34 -18 4 -7 -16 -8 -63 -2 -38 4 -76 7 -84 7 -8
0 -62 6 -120 15 -58 8 -127 17 -155 19 -27 3 -66 9 -85 14 -19 6 -80 10 -135
10 -89 0 -192 9 -305 25 -19 3 -68 10 -108 16 -40 5 -84 14 -98 19 -22 9 -120
25 -279 46 -83 11 -240 40 -370 68 -38 8 -71 13 -74 11 -2 -2 -10 2 -18 10 -8
8 -23 15 -33 15 -10 0 -22 5 -25 10 -10 16 -78 42 -97 36 -21 -5 -22 -2 -8 24
17 32 -43 59 -79 34 -17 -12 -24 -12 -55 7 -20 11 -36 23 -36 26 0 7 106 -4
223 -24 53 -9 100 -13 103 -10 17 17 -9 35 -58 42 -29 3 -75 10 -103 15 -55
10 -200 23 -256 23 -30 0 -38 5 -47 29 -8 22 -17 28 -40 28 -34 0 -66 -25 -58
-46 3 -8 -1 -14 -10 -14 -10 0 -14 6 -10 15 14 38 -54 52 -80 17 -8 -12 -18
-13 -40 -5 -38 12 -66 6 -62 -15 3 -18 29 -25 158 -47 81 -13 191 -35 255 -51
16 -4 56 -29 87 -55 54 -45 60 -47 89 -37 25 9 38 8 63 -4 74 -37 124 -56 166
-63 25 -3 90 -17 145 -30 86 -20 155 -31 310 -50 86 -10 186 -27 230 -39 28
-8 86 -17 130 -21 44 -3 107 -11 140 -16 33 -6 130 -15 215 -20 192 -10 346
-26 384 -39 16 -6 52 -10 80 -11 28 0 69 -4 91 -8 l40 -8 -49 -8 c-54 -9 -287
-1 -441 14 -55 5 -329 12 -608 15 -280 3 -511 7 -515 10 -4 2 -128 7 -277 10
-148 4 -337 9 -420 11 -407 12 -656 16 -665 10 -16 -10 8 -35 31 -35 11 0 19
-5 19 -10 0 -8 -122 -10 -387 -8 -360 3 -388 2 -388 -14 0 -16 30 -18 373 -22
208 -3 386 -1 404 4 17 5 41 19 54 31 21 19 27 20 71 10 27 -6 136 -10 248
-10 293 2 337 0 330 -11 -3 -5 -1 -10 4 -10 6 0 11 5 11 11 0 8 28 10 98 5 96
-6 274 -10 942 -21 292 -4 506 -10 705 -20 22 -1 115 -8 207 -15 91 -7 179 -9
195 -5 39 11 57 13 148 15 44 2 90 7 102 13 17 8 32 6 61 -7 30 -13 44 -15 66
-7 35 14 33 15 40 -14 5 -21 12 -25 46 -25 31 0 38 3 34 15 -8 19 13 19 50 0
32 -17 66 -20 66 -6 0 22 -54 51 -96 51 -23 0 -46 5 -49 10 -4 6 24 10 77 11
179 1 252 15 301 59 30 27 31 29 14 47 -9 11 -17 22 -17 25 0 2 55 5 123 6
115 2 120 1 94 -14 -22 -12 -27 -20 -21 -37 9 -30 20 -35 84 -42 83 -10 82
-11 -12 -19 -48 -4 -91 -5 -97 -2 -5 3 -12 -1 -15 -10 -9 -22 -8 -24 12 -25 9
0 -14 -16 -53 -35 l-70 -34 48 0 c53 0 107 23 107 45 0 16 38 29 67 22 15 -3
13 -6 -9 -15 -61 -25 -24 -52 72 -52 l76 0 2 180 1 180 -25 6 c-14 4 -43 4
-65 0 -21 -3 -105 -6 -185 -7 -151 0 -174 -3 -174 -23 0 -14 227 -14 360 -1
38 4 70 4 70 1 0 -4 -8 -16 -19 -27 -11 -12 -16 -29 -13 -45 l5 -25 -154 5
c-107 4 -169 1 -203 -7 -55 -14 -68 -30 -37 -47 12 -6 21 -17 21 -24 0 -17
-32 -25 -123 -32 -40 -2 -84 -7 -98 -9 -35 -5 -44 5 -19 22 25 18 26 45 2 66
-23 21 -35 21 -79 0 -25 -11 -37 -13 -42 -5 -4 6 -25 19 -46 28 -22 8 -112 51
-200 94 -88 44 -182 88 -210 100 l-50 20 85 -5 c47 -3 119 -8 160 -11 198 -13
189 -14 200 6 8 15 21 19 58 18 26 0 53 -5 59 -10 7 -6 25 -7 39 -4 20 5 25
12 21 27 -4 16 -2 19 11 14 9 -4 27 -9 39 -10 33 -5 43 -14 43 -41 0 -32 37
-34 42 -2 4 25 51 42 78 28 13 -7 28 -3 55 16 54 36 93 27 101 -26 6 -36 8
-38 58 -48 46 -9 55 -8 95 14 49 27 76 30 84 10 3 -7 17 -16 31 -18 26 -5 26
-5 26 64 0 53 -3 67 -12 61 -7 -4 -49 -8 -92 -8 l-80 0 -20 -42 c-23 -47 -51
-54 -51 -13 0 20 -10 30 -47 48 l-48 24 -33 -21 c-19 -12 -45 -21 -59 -21 -21
0 -24 5 -24 33 l0 33 71 -2 c38 -1 81 -6 95 -11 32 -12 56 -10 155 12 44 10
94 21 110 24 21 5 31 14 33 30 3 22 3 22 -26 7 -17 -9 -50 -18 -74 -21 -23 -3
-66 -10 -95 -16 -37 -7 -63 -7 -93 1 -23 6 -70 13 -103 15 -106 5 -150 16
-180 44 l-28 26 -47 -25 c-26 -14 -67 -39 -92 -56 -71 -48 -134 -56 -448 -52
-153 1 -282 -1 -289 -5 -10 -7 -126 36 -148 55 -5 4 -16 8 -25 8 -8 0 -26 9
-40 20 -14 11 -34 20 -45 20 -19 1 -19 2 3 17 50 35 0 60 -59 30 -22 -12 -30
-11 -58 4 -19 10 -86 34 -150 54 -137 43 -137 44 -221 84 -36 17 -130 53 -210
81 -202 69 -270 94 -321 118 -54 25 -231 96 -320 128 -37 13 -123 48 -192 78
-69 30 -167 66 -218 81 -50 15 -106 35 -123 45 -29 17 -67 29 -241 81 -70 21
-121 40 -270 100 -110 44 -164 69 -170 80 -3 4 -23 16 -43 25 -20 9 -48 21
-62 28 -14 7 -65 25 -115 40 -49 15 -128 46 -175 68 -74 35 -190 78 -212 78
-5 0 -8 -8 -8 -17z m251 -260 c-9 -16 -10 -16 -11 -1 0 9 3 25 7 35 7 16 8 17
11 1 2 -10 -1 -25 -7 -35z m254 -466 c8 -13 15 -35 15 -50 0 -15 0 -38 0 -52
0 -15 -6 -25 -15 -25 -7 0 -29 -9 -49 -20 -21 -13 -37 -17 -40 -11 -4 6 -16 7
-29 2 -12 -4 -33 -11 -47 -14 -24 -6 -25 -4 -25 36 1 52 25 109 43 102 8 -3
20 -5 29 -5 10 0 13 -6 9 -15 -8 -22 24 -32 38 -13 8 12 15 13 28 4 24 -15 41
4 32 38 -6 27 -38 36 -47 14 -4 -8 -6 -7 -6 4 -1 16 12 26 36 27 7 1 19 -9 28
-22z m1531 -425 c-8 -9 -19 -13 -22 -9 -10 9 16 38 28 31 6 -4 4 -13 -6 -22z
m115 -18 c19 -23 4 -27 -30 -9 -17 8 -31 17 -31 19 0 10 51 1 61 -10z m2169
-74 l25 -20 -22 -6 c-12 -3 -25 -15 -28 -25 -5 -15 -12 -18 -31 -13 -18 5 -35
0 -56 -16 -25 -19 -45 -23 -122 -24 -50 -2 -97 -4 -105 -7 -7 -2 -15 1 -17 6
-2 6 8 11 23 12 82 6 132 16 154 31 141 94 139 94 179 62z m-522 -102 c139 4
146 3 132 -13 -13 -16 -28 -17 -147 -11 -153 8 -169 11 -151 34 12 13 13 13
16 0 2 -13 24 -14 150 -10z m-268 -8 c0 -5 -2 -10 -4 -10 -3 0 -8 5 -11 10 -3
6 -1 10 4 10 6 0 11 -4 11 -10z m-20 -210 c0 -5 -8 -10 -17 -10 -15 0 -16 2
-3 10 19 12 20 12 20 0z m1340 -110 c0 -21 -10 -24 -65 -20 -29 2 -69 23 -60
31 2 3 31 6 65 7 54 2 60 1 60 -18z m-655 0 c-3 -5 -11 -10 -16 -10 -6 0 -7 5
-4 10 3 6 11 10 16 10 6 0 7 -4 4 -10z m-63 -42 c-7 -7 -12 -8 -12 -2 0 14 12
26 19 19 2 -3 -1 -11 -7 -17z m-282 -38 c0 -5 -5 -10 -11 -10 -5 0 -7 5 -4 10
3 6 8 10 11 10 2 0 4 -4 4 -10z m990 -60 c0 -22 -16 -25 -55 -10 -34 13 -23
30 21 30 27 0 34 -4 34 -20z M50 2023 c0 -22 2 -25 10 -13 13 20 13 40 0 40
-5 0 -10 -12 -10 -27z M3269 1111 c-15 -19 -19 -35 -16 -58 3 -18 1 -35 -4
-38 -19 -12 -7 -22 70 -58 85 -40 105 -43 148 -25 63 27 79 57 41 76 -23 11
-23 11 -2 11 12 1 27 7 33 15 12 14 5 46 -10 46 -5 0 -9 7 -9 15 0 36 -84 40
-123 7 -16 -14 -19 -14 -32 5 -8 11 -28 23 -45 25 -25 4 -35 -1 -51 -21z m47
-58 c-11 -11 -17 4 -9 23 7 18 8 18 11 1 2 -10 1 -21 -2 -24z m179 17 c0 -8
-11 -16 -25 -18 -14 -2 -33 -13 -43 -25 l-18 -22 6 25 c13 47 80 81 80 40z
m-119 -67 c-1 -15 7 -18 52 -16 28 1 52 0 52 -2 0 -10 -75 -24 -100 -18 -41 8
-47 47 -9 52 4 1 6 -7 5 -16z M3190 1030 c0 -5 5 -10 10 -10 6 0 10 5 10 10 0
6 -4 10 -10 10 -5 0 -10 -4 -10 -10z M597 984 c-1 -1 -42 -4 -92 -8 -49 -3
-145 -17 -212 -29 -122 -24 -146 -25 -98 -7 47 18 29 32 -32 27 -98 -9 -113
-15 -113 -48 0 -30 8 -32 67 -14 7 2 10 -2 7 -10 -5 -13 28 -39 38 -30 2 2 28
9 58 14 30 6 105 20 165 31 117 22 401 38 391 22 -3 -5 -36 -12 -73 -16 -38
-3 -90 -10 -118 -15 -186 -32 -309 -47 -460 -56 -16 -1 -40 -3 -52 -3 -18 -2
-23 -8 -23 -31 l0 -28 48 9 c59 12 98 17 187 23 123 9 259 25 305 35 25 5 74
16 110 24 41 9 109 14 186 13 140 -3 174 -16 174 -67 0 -54 50 -29 54 27 2 16
8 39 15 51 32 60 -24 102 -87 65 -33 -19 -37 -19 -131 -2 -53 9 -130 17 -171
18 -41 1 -90 3 -108 4 -18 2 -34 2 -35 1z M1963 823 c-7 -2 -13 -13 -13 -24 0
-21 45 -44 107 -54 99 -15 239 -48 262 -60 49 -26 206 -64 261 -63 22 0 255
-31 325 -43 33 -6 92 -12 130 -14 80 -4 127 -12 171 -27 17 -6 43 -8 58 -4 23
6 26 9 16 21 -15 18 -61 20 -78 3 -9 -9 -12 -7 -12 9 0 23 -37 33 -130 33 -30
0 -93 7 -140 15 -98 18 -244 36 -279 35 -52 -1 -268 42 -296 60 -35 21 -173
57 -257 66 -46 5 -58 10 -58 24 0 25 -34 37 -67 23z M1285 730 c-29 -32 -5
-65 64 -86 31 -10 63 -23 72 -31 19 -16 41 -17 57 -1 19 19 14 36 -10 40 -15
2 -24 11 -26 25 -2 12 -11 25 -21 28 -10 3 -26 14 -36 25 -24 26 -76 26 -100
0z M650 723 c-24 -9 -60 -52 -60 -71 0 -21 34 -44 54 -36 10 4 17 -2 22 -20 7
-31 44 -37 44 -7 0 10 7 35 16 56 14 33 14 39 -1 61 -15 23 -42 29 -75 17z
M792 685 c-42 -23 -47 -32 -33 -59 8 -13 24 -27 37 -30 13 -4 24 -11 24 -16 0
-6 9 -10 20 -10 42 0 63 99 27 122 -17 11 -48 8 -75 -7z M1155 693 c-41 -6
-57 -22 -53 -51 5 -39 70 -55 134 -33 61 20 68 43 22 71 -33 20 -44 21 -103
13z M4080 635 c-17 -21 -7 -29 40 -32 45 -3 57 8 34 31 -20 20 -58 21 -74 1z
M4250 635 c-6 -8 -9 -18 -6 -24 10 -16 46 0 46 20 0 23 -23 25 -40 4z M50 600
c0 -25 4 -39 10 -35 6 3 10 19 10 35 0 16 -4 32 -10 35 -6 4 -10 -10 -10 -35z
M116 619 c-43 -34 -51 -67 -25 -96 13 -12 28 -23 35 -23 7 0 18 -9 24 -20 6
-11 16 -20 23 -20 7 0 20 9 30 20 20 24 33 25 41 5 8 -21 37 -19 43 4 2 10 16
24 29 30 18 8 24 19 24 41 0 25 -4 30 -24 30 -13 0 -27 7 -30 16 -3 9 -15 14
-28 13 -13 -2 -27 -1 -33 2 -5 4 -26 9 -46 13 -28 5 -42 2 -63 -15z M4363 629
c-18 -18 2 -37 33 -31 16 3 24 10 22 21 -4 20 -39 26 -55 10z M1320 573 c-20
-26 -21 -28 -3 -41 20 -14 63 -8 75 11 13 20 9 45 -8 51 -28 11 -42 6 -64 -21z
M1478 573 c-31 -7 -34 -53 -3 -53 15 0 45 26 45 40 0 11 -21 17 -42 13z M373
548 c-27 -13 -30 -40 -7 -59 12 -10 22 -10 47 -1 22 8 34 9 44 1 18 -16 45 8
41 35 -3 18 -9 21 -40 18 -20 -1 -39 2 -43 8 -7 12 -13 12 -42 -2z"/>
</g>
</svg>
