<?xml version="1.0" standalone="no"?>
<!DOCTYPE svg PUBLIC "-//W3C//DTD SVG 20010904//EN"
 "http://www.w3.org/TR/2001/REC-SVG-20010904/DTD/svg10.dtd">
<svg version="1.0" xmlns="http://www.w3.org/2000/svg"
 width="500.000000pt" height="878.000000pt" viewBox="0 0 500.000000 878.000000"
 preserveAspectRatio="xMidYMid meet">
<metadata>
Created by potrace 1.16, written by Peter Selinger 2001-2019
</metadata>
<g transform="translate(0.000000,878.000000) scale(0.100000,-0.100000)"
fill="#000000" stroke="none">
<path d="M3317 8119 c-14 -8 -16 -14 -7 -25 9 -10 7 -27 -8 -72 -11 -32 -16
-65 -12 -73 18 -33 21 -59 8 -59 -8 0 -27 -13 -42 -29 -23 -24 -27 -35 -21
-59 10 -47 28 -57 62 -34 32 23 93 34 114 22 11 -7 4 -17 -29 -45 -23 -20 -42
-43 -42 -50 0 -37 92 -48 121 -14 14 17 21 18 38 9 25 -13 27 -22 41 -185 10
-130 11 -159 6 -270 -1 -33 2 -66 7 -72 9 -12 7 -32 -9 -96 -5 -22 -2 -33 16
-49 18 -17 21 -28 16 -57 -3 -20 -6 -48 -6 -63 0 -15 -8 -35 -19 -45 -10 -10
-29 -38 -42 -62 -13 -24 -30 -54 -37 -67 -7 -13 -19 -24 -26 -24 -8 0 -28 -14
-46 -30 -18 -17 -46 -40 -61 -51 -16 -11 -42 -39 -58 -62 -16 -23 -39 -52 -51
-65 -12 -12 -28 -38 -36 -57 -16 -39 -15 -39 -68 -24 -35 10 -40 8 -66 -16
-26 -25 -33 -27 -77 -20 -68 10 -100 29 -108 65 -7 32 -47 70 -74 70 -9 0 -27
7 -40 16 -15 11 -52 18 -104 22 -90 5 -95 9 -148 100 -21 36 -35 48 -68 58
-22 6 -41 8 -41 3 0 -5 5 -9 11 -9 17 0 69 -63 69 -85 0 -11 7 -30 15 -42 13
-19 13 -22 0 -27 -8 -3 -29 -3 -45 1 -28 5 -60 -9 -60 -27 0 -20 57 -31 129
-24 133 14 190 8 251 -23 48 -24 56 -33 60 -63 4 -25 12 -38 33 -48 15 -7 27
-18 27 -23 0 -20 109 -121 126 -117 10 2 23 21 32 48 25 77 31 90 43 90 6 0 9
-6 6 -14 -3 -8 1 -20 10 -27 12 -11 18 -9 33 11 24 31 34 21 23 -22 -5 -18 -8
-51 -7 -73 1 -22 5 -139 8 -260 4 -121 10 -231 12 -245 11 -56 24 -234 19
-250 -7 -22 16 -42 35 -30 16 10 21 162 7 240 -4 25 -10 83 -12 130 -2 47 -6
110 -9 140 -3 30 -6 118 -7 196 -1 112 2 146 15 172 13 26 42 52 58 52 2 0 1
-37 -2 -82 -4 -51 -1 -106 7 -143 7 -33 16 -162 20 -286 5 -201 4 -228 -11
-251 -14 -21 -16 -40 -10 -107 8 -92 22 -115 55 -85 15 13 18 25 14 46 -4 17
-2 28 4 28 8 0 10 62 7 200 -2 110 0 203 5 206 5 3 9 16 9 29 0 15 13 35 37
54 20 17 38 29 40 27 2 -1 -4 -25 -12 -52 -19 -61 -19 -100 -1 -107 18 -7 36
12 36 37 0 12 7 44 16 71 8 28 14 68 13 90 -2 22 2 49 8 60 9 16 12 10 18 -38
4 -31 5 -71 2 -89 -20 -129 -29 -174 -51 -261 -14 -54 -42 -132 -62 -174 -28
-58 -34 -81 -26 -92 5 -9 15 -15 21 -13 6 1 11 -2 11 -8 0 -17 -64 -38 -155
-50 -49 -6 -117 -20 -150 -30 -54 -16 -62 -17 -77 -3 -9 8 -45 17 -80 20 -43
4 -70 12 -85 25 -20 19 -103 38 -103 24 0 -13 28 -36 44 -36 8 0 31 -13 49
-30 19 -16 43 -30 54 -30 24 0 43 -18 36 -36 -8 -20 -29 -17 -44 7 -16 23 -92
38 -103 21 -3 -6 -2 -22 4 -36 7 -19 17 -26 37 -26 16 0 37 -7 47 -15 19 -14
18 -15 -15 -15 -39 1 -55 11 -88 58 -25 36 -42 40 -62 16 -11 -14 -6 -23 43
-70 54 -51 59 -54 110 -54 l53 -1 -55 -19 c-30 -11 -56 -20 -58 -20 -4 0 5
-61 10 -66 2 -2 20 -5 39 -6 32 -3 34 -1 34 29 0 28 4 32 35 38 42 8 70 31 70
57 0 11 9 27 20 36 11 10 21 27 23 40 3 22 22 41 39 42 4 0 0 -12 -8 -27 -7
-16 -14 -33 -14 -39 0 -6 -7 -17 -16 -25 -9 -7 -23 -29 -32 -48 -11 -23 -30
-42 -54 -53 -53 -25 -73 -68 -58 -125 15 -62 5 -67 -13 -7 -14 46 -16 49 -45
46 -28 -3 -32 0 -42 36 -12 46 -23 57 -69 67 -39 8 -121 -12 -121 -30 0 -17
26 -26 56 -19 35 9 74 -3 74 -23 0 -15 -1 -15 -13 1 -13 18 -15 18 -41 1 -27
-18 -29 -18 -60 -1 -32 17 -34 17 -69 -4 -39 -23 -40 -37 -5 -76 17 -19 17
-22 2 -34 -11 -10 -20 -11 -32 -3 -13 8 -16 23 -14 67 3 61 0 64 -54 44 -35
-12 -50 -44 -38 -81 6 -19 5 -20 -10 -8 -9 7 -16 28 -16 45 0 46 -14 56 -56
41 -19 -6 -42 -19 -51 -28 -21 -20 -6 -41 46 -64 20 -8 30 -17 24 -20 -7 -2
-27 3 -44 11 -18 9 -38 16 -44 16 -7 0 -19 7 -26 17 -8 9 -29 22 -46 30 -43
17 -42 33 4 58 39 22 48 34 58 80 l6 29 16 -32 c9 -18 22 -32 29 -32 7 0 18
-9 24 -20 13 -23 40 -27 40 -5 0 8 4 15 8 15 5 0 18 9 30 21 12 11 26 18 31
15 5 -3 28 1 51 9 47 17 60 14 41 -9 -10 -12 -9 -17 7 -25 16 -9 25 -5 51 20
37 35 37 60 1 70 -25 6 -25 7 10 22 19 8 54 33 78 55 46 42 51 67 28 132 -11
30 -19 36 -54 43 -23 4 -42 12 -42 17 0 5 -12 23 -26 40 -31 36 -22 60 16 40
23 -12 253 -80 273 -80 7 0 32 -10 57 -22 25 -12 50 -22 55 -23 6 0 21 -7 34
-14 37 -21 52 3 20 34 -20 21 -122 66 -164 74 -24 4 -96 24 -175 48 -173 52
-280 115 -280 164 0 35 -11 42 -108 73 -107 34 -199 42 -292 26 -87 -14 -103
-21 -147 -63 -18 -17 -33 -28 -33 -24 0 4 14 37 30 74 l30 66 23 -21 c13 -12
32 -22 44 -22 32 0 83 21 83 34 0 6 8 12 18 13 133 8 310 16 358 16 84 0 281
-33 329 -54 22 -10 59 -23 83 -30 28 -8 57 -28 85 -57 23 -24 61 -65 85 -90
24 -24 49 -59 56 -76 17 -40 51 -70 71 -62 20 7 10 56 -16 75 -11 7 -19 18
-19 23 0 5 -29 39 -65 76 -36 36 -65 72 -65 79 0 18 -77 60 -168 92 -86 31
-117 38 -207 47 -33 3 -76 9 -97 13 -20 5 -51 7 -70 5 -18 -2 -108 -5 -200 -7
-128 -2 -169 1 -173 10 -5 15 -41 17 -50 3 -3 -5 -11 -10 -17 -10 -16 0 13 31
37 40 13 5 23 2 30 -7 10 -13 49 -6 191 38 17 5 43 9 59 9 15 0 33 8 40 17 18
24 73 24 184 2 51 -11 122 -20 157 -21 l64 -2 46 -63 c52 -71 81 -93 95 -72
14 22 10 73 -7 98 -16 22 -15 23 7 19 17 -2 23 -9 22 -23 -4 -36 16 -80 52
-114 23 -21 35 -42 35 -60 0 -31 25 -71 45 -71 8 0 22 -13 32 -30 20 -34 43
-40 43 -10 0 22 -20 70 -30 70 -3 0 -15 6 -25 14 -16 12 -17 16 -6 30 10 12
12 31 6 74 -13 97 -12 185 2 231 7 25 12 49 10 55 -4 12 -89 35 -155 41 -66 6
-79 13 -55 30 15 11 15 15 3 30 -8 9 -22 14 -33 11 -11 -2 -27 -1 -36 3 -33
17 -89 30 -221 51 -74 12 -149 25 -166 31 -51 15 -126 10 -225 -15 -145 -36
-211 -72 -330 -173 -27 -24 -59 -43 -70 -43 -19 0 -19 1 -2 24 10 13 35 35 56
47 20 13 37 29 37 36 0 17 79 88 98 88 18 0 26 19 18 41 -8 20 -39 3 -86 -47
-29 -30 -41 -36 -64 -32 -24 5 -36 -3 -97 -66 -45 -47 -69 -65 -69 -54 0 38
210 213 333 278 26 14 47 29 47 34 0 8 46 26 166 65 29 9 65 16 82 16 17 0 34
5 37 10 3 6 14 10 24 10 16 0 41 37 41 60 0 10 -54 41 -67 39 -21 -4 -43 2
-43 11 0 6 14 10 30 10 17 0 30 5 30 10 0 6 -11 10 -25 10 -14 0 -25 4 -25 9
0 6 8 9 18 8 27 -2 111 43 128 68 17 25 5 71 -20 81 -8 3 -12 12 -10 19 3 7
-4 23 -15 34 -12 12 -21 30 -21 40 0 11 -6 21 -12 23 -9 3 -8 9 5 22 9 10 17
25 17 34 -1 22 -48 73 -85 92 -71 34 -97 82 -52 95 31 10 66 44 88 87 26 50
24 69 -10 102 -24 23 -37 27 -90 29 -58 1 -64 4 -77 30 -8 15 -12 36 -9 46 8
27 -4 51 -27 51 -15 0 -18 4 -13 18 41 108 -17 269 -112 308 -18 8 -56 14 -85
14 -29 0 -66 7 -82 15 -29 16 -46 12 -46 -9 0 -7 24 -34 53 -60 l52 -49 -3
-77 c-2 -64 1 -81 18 -102 11 -15 20 -30 20 -35 0 -4 -33 -8 -74 -9 -57 0 -81
-6 -108 -22 -20 -12 -46 -22 -60 -22 -13 0 -33 -6 -43 -14 -11 -8 -25 -12 -32
-9 -28 11 -99 -30 -150 -85 -81 -88 -116 -179 -96 -252 5 -22 6 -40 2 -40 -5
0 -9 6 -9 14 0 24 -17 28 -47 12 -87 -45 -135 -136 -103 -197 6 -11 29 -31 52
-45 33 -21 55 -27 110 -28 65 -1 68 -2 68 -26 1 -14 6 -35 13 -48 13 -23 13
-23 31 -3 10 11 16 27 13 36 -4 9 -1 15 8 15 8 0 15 7 15 16 0 8 4 13 9 10 5
-3 7 -14 5 -24 -6 -22 31 -82 51 -82 8 0 15 -5 15 -11 0 -14 -40 -1 -66 22
-24 23 -34 24 -34 5 0 -7 -7 -19 -15 -26 -13 -11 -14 -15 -2 -29 8 -9 17 -29
21 -44 4 -16 19 -35 36 -45 24 -14 28 -21 23 -45 -8 -40 27 -73 91 -88 l51
-11 -2 -44 c-2 -64 -24 -102 -94 -164 -74 -65 -109 -101 -110 -115 -1 -5 -2
-36 -4 -67 -1 -32 -8 -65 -16 -74 -11 -13 -14 -53 -12 -178 1 -131 -1 -164
-13 -177 -27 -30 -51 -202 -42 -302 4 -48 12 -97 18 -107 8 -14 8 -37 0 -78
-5 -32 -13 -150 -16 -263 -7 -237 -8 -251 -19 -344 -5 -38 -8 -73 -7 -78 1 -4
-3 -71 -9 -150 -6 -78 -12 -160 -14 -182 -1 -22 -6 -164 -10 -315 -4 -151 -9
-304 -11 -340 -3 -59 -9 -269 -18 -635 -2 -77 -7 -195 -11 -262 -9 -143 -7
-149 80 -213 31 -23 55 -46 54 -53 -1 -7 -1 -31 0 -55 1 -41 2 -43 52 -65 l51
-22 -6 -64 c-3 -35 -7 -66 -10 -68 -4 -4 -55 -9 -191 -19 -44 -3 -213 -5 -375
-4 -162 1 -441 2 -620 2 l-325 -1 -3 -35 c-3 -33 -1 -36 25 -37 15 -1 33 0 38
2 25 8 361 5 373 -4 6 -5 12 -5 12 -1 0 5 141 10 320 10 176 1 320 -3 320 -8
0 -9 -24 -11 -125 -7 -78 2 -78 2 -260 -7 -71 -3 -251 -7 -400 -9 -333 -3
-305 -1 -305 -25 0 -19 7 -19 262 -15 145 3 322 7 393 11 72 3 150 5 175 4 25
-1 135 -3 245 -5 329 -6 365 -7 365 -15 0 -27 -579 -47 -750 -26 -117 15 -208
11 -297 -12 -97 -26 -131 -27 -180 -7 -22 10 -68 15 -124 15 -87 0 -89 0 -89
-24 0 -24 2 -24 92 -25 50 0 96 -5 102 -11 17 -17 122 -11 209 11 89 24 222
28 312 10 57 -11 304 -12 478 -3 110 7 152 1 90 -11 -16 -3 -68 -17 -118 -31
-49 -15 -139 -33 -200 -40 -102 -14 -310 -31 -345 -29 -49 3 -121 13 -128 17
-5 3 -64 -8 -132 -25 -68 -16 -149 -32 -179 -35 -31 -3 -63 -8 -71 -11 -8 -3
-31 -7 -50 -9 -52 -6 -60 -11 -60 -34 0 -16 5 -20 18 -16 22 6 75 15 133 21
62 6 132 22 207 46 54 18 77 20 145 14 84 -7 192 -7 262 0 73 7 180 18 205 20
111 8 302 46 344 67 10 6 89 12 176 14 151 4 159 4 211 -21 30 -14 62 -25 71
-25 14 0 17 -7 12 -38 -4 -31 0 -42 26 -69 17 -18 38 -33 46 -33 7 0 14 -3 14
-7 8 -121 15 -163 37 -220 9 -24 13 -55 10 -72 -4 -19 -1 -33 8 -41 8 -7 12
-17 9 -22 -4 -6 0 -14 7 -19 11 -6 11 -11 2 -20 -10 -10 -31 -6 -95 14 -46 14
-105 29 -133 32 -27 4 -61 9 -75 11 -64 10 -328 2 -348 -10 -5 -3 -15 1 -21 8
-7 8 -41 18 -77 21 -92 10 -72 18 38 14 51 -1 125 -2 163 -1 156 3 301 3 325
-1 14 -2 33 1 43 5 9 5 17 5 17 1 0 -8 27 -13 85 -16 26 -2 30 2 30 23 l0 25
-155 8 c-85 4 -189 4 -230 1 -41 -4 -100 -5 -130 -4 -30 2 -86 3 -125 2 -279
-4 -475 -2 -502 7 -18 5 -60 8 -93 6 -43 -3 -60 -1 -60 8 0 11 97 33 222 52
35 5 78 36 75 54 -3 23 -64 38 -121 30 -28 -4 -122 -5 -209 -3 -105 3 -163 1
-172 -6 -7 -6 -39 -17 -71 -26 -59 -16 -146 -15 -271 2 l-53 7 0 -36 c0 -31 4
-38 25 -43 13 -3 38 -2 53 4 16 5 35 6 43 2 7 -5 16 -7 20 -4 5 2 27 6 51 9
24 2 101 14 173 26 123 21 365 33 365 18 0 -7 -134 -29 -175 -29 -29 0 -75
-20 -75 -32 0 -5 7 -19 16 -32 14 -23 14 -25 -8 -30 -91 -25 -127 -41 -132
-60 -7 -26 -2 -33 46 -56 65 -31 107 -35 423 -32 169 2 296 -1 290 -6 -6 -4
-35 -14 -65 -21 -30 -7 -75 -23 -100 -36 -55 -28 -98 -36 -215 -41 -49 -2 -90
-4 -90 -5 0 -2 -51 -6 -150 -13 -227 -15 -341 -35 -447 -79 -35 -14 -48 -25
-48 -39 0 -15 5 -19 18 -15 33 11 117 40 137 48 56 23 142 32 369 35 137 2
263 8 280 13 17 6 50 12 73 15 24 3 54 11 67 18 13 7 41 23 62 34 22 12 69 25
107 29 56 5 70 11 83 31 9 13 14 35 11 50 -4 22 -1 25 22 22 14 -1 32 1 39 6
7 4 27 3 45 -3 17 -6 79 -10 137 -9 103 1 320 -20 330 -32 11 -14 101 -41 117
-36 10 3 23 2 28 -2 16 -11 35 -60 35 -92 0 -16 5 -41 10 -56 8 -21 7 -35 -5
-61 -9 -18 -14 -37 -10 -42 3 -5 3 -15 0 -23 -6 -15 -59 -12 -205 15 -70 13
-126 19 -290 29 -3 0 -33 0 -67 -1 -60 -1 -63 -2 -63 -26 0 -14 9 -30 20 -37
35 -22 22 -31 -32 -23 -29 3 -73 9 -98 12 -25 2 -64 8 -88 13 -23 4 -84 9
-135 10 -99 3 -125 4 -262 14 -165 13 -459 15 -493 4 -18 -5 -37 -20 -42 -32
-6 -14 -9 -16 -9 -5 -1 22 -62 13 -68 -10 -3 -12 -23 -21 -64 -30 -47 -9 -59
-16 -59 -31 0 -15 5 -18 26 -14 14 3 32 -1 40 -7 11 -9 24 -9 57 1 23 6 48 17
55 22 7 6 33 15 59 19 25 5 54 16 64 25 14 13 48 15 210 14 106 0 209 -2 228
-5 20 -2 83 -7 141 -10 224 -13 297 -19 370 -35 73 -15 186 -12 200 5 7 8 19
15 26 15 7 0 11 6 8 13 -11 29 23 40 109 34 45 -4 96 -9 112 -12 77 -15 164
-28 207 -29 38 -2 53 -9 87 -39 36 -32 48 -37 90 -37 30 0 53 -5 61 -14 16
-20 87 -54 130 -63 l35 -7 -45 -8 c-25 -4 -223 -4 -440 -1 -908 12 -1254 15
-1475 11 -55 -1 -128 0 -162 1 -35 1 -92 -1 -128 -4 l-65 -7 0 -34 0 -34 48 4
c26 2 49 5 52 7 3 1 93 4 200 5 107 2 224 4 260 5 61 2 308 -2 1035 -17 270
-5 625 -7 900 -3 55 1 267 0 470 -1 300 -1 1366 6 1465 10 14 0 121 -1 238 -4
l212 -5 0 35 c0 19 -3 35 -7 35 -5 1 -46 3 -93 4 -48 1 -106 9 -133 18 -26 10
-58 17 -71 17 -22 0 -24 5 -28 58 -2 31 0 62 4 67 5 6 48 10 96 10 48 0 92 3
98 7 5 4 28 7 51 6 52 0 83 10 83 27 0 12 -29 14 -165 12 -185 -2 -189 -1
-180 63 2 19 4 53 5 75 0 25 3 35 8 27 5 -7 25 -15 45 -19 34 -5 37 -4 37 19
0 37 -52 58 -80 33 -17 -15 -20 -16 -20 -3 0 9 8 19 18 23 26 10 207 6 237 -5
14 -5 42 -10 61 -10 27 0 34 4 34 20 0 29 -64 42 -222 44 -87 1 -137 5 -135
11 2 6 57 10 138 10 143 0 189 11 189 47 0 24 -56 58 -97 58 -28 0 -32 3 -30
23 2 22 0 22 -90 18 -64 -2 -93 0 -93 8 0 7 26 11 73 12 75 0 159 8 166 14 2
2 1 11 -3 20 -5 13 -16 15 -68 9 -54 -6 -61 -5 -51 7 20 24 -1 41 -56 47 -28
2 -51 10 -51 16 0 23 17 33 59 34 57 2 95 33 80 66 -9 19 -19 22 -80 24 -54 2
-69 0 -69 -11 0 -8 -9 -17 -20 -20 -18 -5 -25 -23 -22 -67 2 -35 -17 -48 -85
-55 -83 -9 -103 -18 -103 -49 0 -30 35 -43 103 -40 26 2 47 -1 47 -5 0 -10
-59 -21 -111 -21 -53 0 -99 -19 -99 -40 0 -22 59 -45 108 -41 50 3 38 -6 -25
-19 -32 -7 -71 -21 -86 -32 -24 -17 -39 -19 -100 -15 -86 7 -93 8 -134 30 -36
19 -138 23 -149 6 -17 -28 -34 61 -40 204 -6 137 -5 150 9 138 22 -18 125 4
150 32 25 28 65 33 186 24 124 -10 200 -5 211 13 5 8 32 14 65 16 32 1 62 7
68 13 19 19 -2 58 -40 75 l-38 16 70 -2 c39 -1 75 -6 82 -10 6 -5 14 -4 18 3
6 8 9 8 15 -1 7 -12 55 -23 95 -21 11 0 25 7 32 17 9 12 19 14 45 8 18 -4 38
-6 43 -4 6 1 18 2 28 2 9 0 17 5 17 13 0 15 -30 23 -100 27 -36 2 -45 -1 -48
-15 -3 -15 -7 -15 -37 -3 -40 17 -274 30 -325 18 -42 -9 -50 -45 -11 -50 21
-3 93 -41 81 -43 -3 0 -16 -3 -30 -6 -14 -3 -111 -6 -217 -8 -206 -3 -231 -6
-272 -34 -14 -11 -45 -21 -67 -24 l-41 -5 -7 92 c-21 310 -26 610 -10 626 7 7
28 -6 65 -43 30 -29 72 -64 94 -77 22 -14 46 -30 53 -37 7 -7 18 -13 23 -13
19 0 95 -58 151 -116 39 -39 62 -55 73 -50 9 3 13 11 9 17 -8 13 75 2 90 -12
6 -5 18 -9 27 -9 17 0 79 -31 109 -55 8 -7 43 -22 78 -34 49 -16 76 -20 126
-15 44 3 75 1 99 -9 41 -18 87 -11 87 12 0 30 -183 64 -225 41 -17 -9 -28 -9
-43 -1 -11 6 -32 11 -45 11 -14 0 -27 7 -31 15 -5 14 -140 84 -175 91 -93 19
-123 32 -191 83 -41 30 -84 64 -95 74 -11 11 -33 26 -50 34 -61 29 -93 48
-110 66 -20 21 -22 19 88 126 43 42 105 110 137 152 32 42 73 88 90 103 l32
26 42 -37 c22 -20 47 -42 54 -48 8 -5 26 -21 40 -35 15 -13 54 -47 87 -75 33
-27 71 -63 84 -80 49 -61 150 -154 182 -170 48 -22 76 -39 97 -58 26 -24 32
-21 32 11 0 34 -15 48 -91 91 -50 28 -135 102 -164 142 -5 8 -16 22 -24 31
-12 16 -7 24 41 70 30 29 59 60 64 69 5 9 19 19 30 23 21 6 28 2 117 -82 l27
-26 0 36 c0 28 -9 44 -40 77 -74 76 -117 69 -217 -36 l-72 -75 -33 23 c-18 12
-51 39 -73 59 -140 131 -152 140 -181 140 -42 0 -65 -20 -136 -113 -71 -94
-236 -262 -269 -272 -42 -14 -52 13 -56 152 -2 70 -6 176 -9 235 l-7 107 39
-19 c46 -24 63 -25 92 -4 30 20 28 42 -6 61 l-27 16 28 31 c26 27 28 35 23 76
-4 31 -1 54 9 74 19 36 19 36 -5 36 -11 0 -27 -11 -36 -26 -9 -14 -30 -32 -45
-39 -22 -12 -29 -24 -35 -62 -5 -27 -8 -52 -9 -57 0 -5 -6 -11 -13 -14 -10 -3
-11 46 -9 235 4 224 -2 438 -18 668 -12 174 -10 332 6 352 8 9 9 14 3 10 -7
-4 -9 99 -7 356 5 449 11 583 29 622 8 17 12 40 9 53 -3 19 -1 21 19 16 33 -8
37 13 14 77 -11 30 -23 65 -26 79 -3 14 -12 36 -20 48 -9 13 -17 49 -19 80 -2
32 -6 82 -8 112 -7 89 -12 439 -8 517 l5 71 34 -5 c30 -5 36 -3 41 16 7 26 5
26 52 -3 47 -30 68 -20 78 36 5 31 2 39 -13 43 -11 3 -36 15 -57 26 -22 12
-46 17 -57 14 -29 -9 -24 10 5 23 14 6 25 19 25 27 0 11 6 14 25 9 32 -8 65
19 65 52 0 26 -17 40 -44 35 -10 -1 -15 2 -12 7 3 6 2 22 -4 37 -7 18 -7 33 0
46 16 29 3 41 -25 23 -40 -26 -78 -84 -79 -121 -1 -29 -17 -52 -37 -53 -10 0
-21 48 -24 110 -18 289 -18 276 9 293 29 19 64 120 61 175 -10 168 -33 299
-56 313 -6 3 -12 29 -14 57 -2 29 -7 61 -10 73 -4 13 -1 27 10 39 12 13 15 28
11 44 -7 27 1 56 16 56 5 0 6 -9 3 -21 -4 -11 -1 -34 5 -50 10 -24 18 -29 46
-29 23 0 37 6 44 19 13 25 13 78 0 86 -5 3 -10 30 -10 58 0 44 5 59 30 87 50
60 37 71 -46 40 -23 -9 -26 -15 -20 -41 4 -20 2 -29 -7 -28 -40 5 -63 -18 -58
-58 1 -7 -2 -13 -7 -13 -16 0 -28 169 -15 202 8 19 10 55 6 110 -8 101 -28
128 -95 128 -50 0 -80 -18 -142 -83 -53 -55 -68 -106 -43 -149 11 -20 13 -36
7 -57 -4 -16 -7 -31 -5 -33 1 -2 5 -16 9 -33 l8 -30 -27 25 c-41 38 -47 54
-30 87 8 15 15 33 15 39 0 21 -35 43 -58 37 -20 -5 -22 -2 -22 33 0 23 -11 59
-25 86 -14 26 -25 56 -25 68 0 22 -15 25 -43 9z m423 -59 c5 -10 10 -27 10
-37 -1 -17 -1 -17 -11 0 -14 23 -23 22 -54 -9 -20 -19 -26 -34 -23 -54 3 -19
-2 -31 -14 -39 -10 -6 -16 -17 -12 -23 5 -7 -1 -9 -20 -4 -20 5 -28 2 -33 -10
-6 -15 -7 -15 -20 2 -18 24 -17 75 3 102 l15 22 19 -22 c18 -22 20 -22 36 -6
14 14 16 21 6 30 -15 15 -15 41 -1 55 19 19 88 14 99 -7z m-380 -80 c0 -40
-13 -53 -24 -24 -7 19 3 64 15 64 5 0 9 -18 9 -40z m367 -83 c-8 -7 -19 -21
-25 -32 -11 -20 -11 -20 -12 2 0 12 -3 29 -7 39 -5 14 -2 16 15 12 12 -4 25
-1 29 5 5 8 8 7 11 -2 2 -7 -3 -18 -11 -24z m-340 -19 c-3 -8 -6 -5 -6 6 -1
11 2 17 5 13 3 -3 4 -12 1 -19z m-1341 -13 c32 -32 64 -107 64 -151 0 -18 -6
-55 -12 -80 -12 -44 -12 -47 10 -62 14 -9 22 -25 22 -42 0 -15 7 -33 15 -40 8
-7 15 -19 15 -26 0 -8 -7 -14 -15 -14 -9 0 -15 9 -15 21 0 20 -29 52 -88 96
-23 18 -30 31 -30 58 0 24 -7 41 -22 53 -23 18 -24 26 -16 139 2 43 18 4 21
-54 2 -32 3 -61 4 -65 2 -16 54 -68 62 -62 14 8 11 36 -7 56 -11 11 -18 40
-20 80 -2 43 -9 70 -24 90 -17 23 -18 28 -5 28 9 0 27 -11 41 -25z m-76 -10
c-7 -8 -18 -15 -24 -15 -6 0 -2 7 8 15 25 19 32 19 16 0z m1373 -9 c3 -8 -2
-16 -11 -19 -9 -3 -25 -8 -34 -12 -13 -5 -18 -2 -18 8 0 29 53 49 63 23z m242
-8 c-8 -32 8 -111 22 -115 7 -3 24 8 38 23 28 30 30 25 14 -26 -6 -19 -10 -56
-9 -82 0 -25 -4 -49 -10 -53 -14 -9 -2 -75 18 -97 9 -12 11 -18 4 -18 -7 0
-12 -11 -12 -25 0 -18 5 -25 20 -25 30 0 24 -12 -25 -48 l-45 -33 0 43 c0 24
-5 75 -11 113 -5 39 -12 120 -14 180 -3 61 -6 117 -7 125 -3 32 2 60 12 60 6
0 8 -10 5 -22z m-1628 -33 c0 -8 -4 -12 -9 -9 -4 3 -8 9 -8 15 0 5 4 9 8 9 5
0 9 -7 9 -15z m1770 -11 c-3 -3 -12 -4 -19 -1 -8 3 -5 6 6 6 11 1 17 -2 13 -5z
m-5 -66 c-7 -7 -12 -8 -12 -2 0 14 12 26 19 19 2 -3 -1 -11 -7 -17z m-272 4
c0 -15 -24 -32 -44 -32 -20 0 -19 2 4 20 27 21 40 25 40 12z m280 -68 c-7 -7
-9 -22 -5 -33 3 -10 2 -22 -4 -25 -5 -3 -12 5 -15 18 -3 13 -8 30 -11 38 -3 8
3 13 20 14 21 2 23 -1 15 -12z m160 -69 c0 -14 -4 -25 -10 -25 -5 0 -10 11
-10 25 0 14 5 25 10 25 6 0 10 -11 10 -25z m-1898 -50 c26 -23 30 -54 9 -79
-9 -11 -10 -20 -2 -35 6 -11 11 -31 11 -44 0 -20 -4 -24 -20 -20 -25 7 -38
-22 -22 -48 10 -15 5 -21 -33 -43 -92 -51 -306 -123 -327 -109 -17 10 -6 20
17 15 22 -4 25 -1 25 26 0 41 -19 51 -42 22 -16 -20 -18 -21 -20 -4 -2 33 3
68 13 80 5 6 6 14 2 17 -15 16 -35 5 -48 -25 -16 -36 -20 -24 -6 15 11 27 -1
53 -19 42 -7 -4 -18 -21 -26 -39 -11 -25 -13 -27 -14 -10 0 12 20 44 45 72 51
56 55 69 23 74 -21 3 -19 6 19 32 30 20 54 28 83 28 22 0 40 2 40 6 0 4 11 9
25 10 14 1 42 11 63 22 52 28 169 25 204 -5z m1749 -8 c-8 -8 -11 -7 -11 4 0
20 13 34 18 19 3 -7 -1 -17 -7 -23z m-6 -75 c-3 -3 -11 0 -18 7 -9 10 -8 11 6
5 10 -3 15 -9 12 -12z m-2235 -59 c0 -5 -10 -19 -21 -33 l-20 -25 16 33 c15
30 25 41 25 25z m567 -62 c-15 -6 -18 6 -10 35 l7 29 6 -30 c3 -16 2 -32 -3
-34z m97 53 c9 -3 16 -13 16 -21 0 -10 -6 -13 -16 -9 -9 3 -18 6 -20 6 -2 0
-4 7 -4 15 0 17 2 18 24 9z m173 -16 c-3 -8 -6 -5 -6 6 -1 11 2 17 5 13 3 -3
4 -12 1 -19z m-87 3 c0 -6 -4 -13 -10 -16 -5 -3 -10 1 -10 9 0 9 5 16 10 16 6
0 10 -4 10 -9z m1515 -27 c24 -31 32 -62 47 -169 13 -100 13 -224 -1 -238 -11
-11 -12 -4 -14 61 0 9 3 30 8 45 11 40 -1 45 -33 14 -31 -29 -103 -70 -110
-62 -3 3 25 35 61 72 62 62 81 93 57 93 -8 0 -75 -52 -90 -71 -10 -12 -50 -29
-50 -22 0 5 32 40 70 78 69 69 80 87 59 101 -10 6 -99 -72 -99 -87 0 -10 -81
-89 -91 -89 -26 0 11 57 98 150 66 71 80 100 46 100 -8 0 -21 -6 -28 -12 -8
-7 -32 -26 -54 -42 -23 -16 -43 -38 -47 -48 -7 -24 -30 -17 -26 8 4 29 128
144 155 144 12 0 31 -12 42 -26z m-1741 -13 c3 -5 -1 -11 -9 -15 -9 -3 -15 0
-15 9 0 16 16 20 24 6z m286 1 c0 -14 -34 -41 -86 -67 l-49 -25 55 50 c52 46
80 61 80 42z m-120 -27 c0 -3 -24 -16 -54 -29 -58 -26 -74 -42 -58 -58 7 -7
21 -5 43 6 18 9 34 14 36 12 4 -4 -64 -46 -73 -46 -3 0 -47 -25 -98 -55 -50
-30 -97 -55 -103 -55 -6 0 -16 -7 -23 -15 -7 -8 -33 -21 -59 -29 -25 -8 -66
-22 -90 -31 -68 -25 -136 -36 -248 -42 -93 -4 -106 -3 -143 18 -22 12 -40 26
-40 30 0 4 -3 14 -6 23 -3 9 -1 16 5 16 6 0 11 -7 11 -15 0 -13 28 -35 46 -35
3 0 4 9 1 20 -6 23 -3 24 24 10 25 -14 37 12 18 37 -9 11 -3 9 15 -5 37 -28
76 -30 76 -3 0 12 7 20 18 19 76 -2 289 59 379 110 12 7 29 12 37 12 8 0 19 6
23 13 4 8 34 24 66 37 31 13 57 28 57 33 0 5 7 7 15 4 8 -4 17 -2 20 4 4 5 22
8 40 7 19 -1 37 1 41 5 8 8 24 9 24 2z m-637 -134 c-6 -9 -13 6 -18 40 l-6 34
14 -35 c7 -19 12 -37 10 -39z m677 -1 c5 0 15 -6 22 -12 7 -7 24 -19 39 -26
14 -7 40 -27 57 -43 l32 -30 -20 -26 c-11 -14 -17 -29 -14 -34 3 -5 -4 -23
-16 -39 -18 -25 -20 -33 -9 -46 8 -10 15 -12 23 -4 17 17 56 12 56 -8 0 -10
12 -28 26 -41 20 -18 23 -25 14 -37 -7 -8 -20 -14 -30 -14 -66 0 -151 -78
-150 -138 2 -74 -4 -86 -46 -98 -21 -6 -43 -9 -48 -6 -5 3 -25 6 -44 8 -50 5
-133 34 -126 45 3 5 10 9 15 9 13 0 44 35 65 73 16 30 15 57 -6 99 -10 22 -10
30 4 49 28 40 12 142 -26 165 -7 5 -21 21 -30 35 -16 25 -16 26 28 52 25 15
49 27 53 27 5 0 20 10 35 21 37 29 44 17 12 -21 -49 -59 -23 -94 47 -65 48 20
49 38 2 29 -39 -7 -47 2 -13 15 13 5 23 14 24 22 4 60 7 72 11 57 2 -10 8 -18
13 -18z m-715 -20 c-3 -5 -11 -10 -16 -10 -6 0 -7 5 -4 10 3 6 11 10 16 10 6
0 7 -4 4 -10z m-69 -67 c-7 -7 -26 7 -26 19 0 6 6 6 15 -2 9 -7 13 -15 11 -17z
m498 -56 c-3 -9 11 -20 41 -31 25 -10 50 -26 55 -37 14 -25 5 -24 -28 1 -18
15 -34 19 -53 15 -35 -8 -69 10 -69 35 0 19 13 28 42 29 11 1 15 -4 12 -12z
m-85 -58 l23 -31 -23 7 c-26 8 -39 22 -39 43 0 21 15 13 39 -19z m1902 9 c-1
-5 -1 -17 -1 -27 0 -14 -5 -18 -20 -14 -13 3 -22 -1 -26 -12 -10 -25 10 -39
30 -20 20 20 20 17 2 -26 l-14 -33 -16 32 c-19 38 -39 41 -60 10 -30 -42 -17
-92 29 -122 21 -14 29 -15 41 -5 11 9 14 8 14 -6 0 -9 -9 -19 -21 -22 -19 -5
-20 -10 -14 -77 4 -43 3 -88 -4 -111 -8 -31 -8 -42 4 -55 8 -9 15 -22 15 -29
0 -9 8 -11 25 -7 21 5 26 2 33 -26 5 -18 7 -36 5 -40 -8 -15 -35 -8 -40 11 -6
23 -52 46 -66 32 -13 -13 1 -49 24 -61 27 -15 25 -48 -3 -52 -17 -2 -22 -9
-20 -23 5 -31 16 -37 46 -25 21 8 27 15 23 30 -4 17 19 37 31 26 2 -3 1 -37
-3 -75 -6 -61 -10 -71 -26 -71 -12 0 -19 -7 -19 -19 0 -10 -6 -21 -14 -24 -11
-4 -13 -17 -9 -49 6 -45 26 -70 49 -61 11 4 14 -6 15 -43 1 -27 2 -65 3 -84 1
-27 -4 -37 -21 -45 -32 -14 -30 -45 2 -45 23 0 25 -4 25 -40 0 -32 -4 -40 -19
-40 -10 0 -24 -6 -30 -14 -10 -12 -8 -17 9 -26 11 -6 25 -8 30 -5 6 3 10 -1
10 -9 0 -11 -9 -16 -28 -16 -21 0 -32 -7 -40 -25 -16 -34 -5 -55 27 -55 20 0
23 -2 11 -10 -13 -9 -13 -11 0 -20 8 -5 21 -10 28 -10 6 0 12 -4 12 -10 0 -13
-16 -13 -43 2 -12 6 -35 14 -51 17 -16 4 -30 13 -31 21 -5 31 -15 230 -20 370
-3 80 -8 183 -11 230 -4 47 -8 128 -10 180 -1 52 -6 149 -10 215 -9 161 -9
248 1 321 7 59 8 61 37 61 16 0 41 9 56 21 26 20 54 25 53 10z m-1981 -12 c0
-17 44 -50 95 -71 32 -14 36 -14 41 0 4 9 -1 21 -10 28 -14 10 -8 12 32 11 26
0 53 -4 60 -8 16 -9 16 -58 0 -74 -21 -21 -30 -13 -23 18 6 26 4 30 -14 30
-21 0 -46 -32 -34 -44 3 -3 1 -6 -5 -6 -7 0 -12 4 -12 9 0 5 -21 17 -47 26
-103 36 -111 41 -106 69 6 27 23 36 23 12z m-120 -120 c0 -15 -32 17 -41 42
-7 17 -6 29 3 39 10 12 14 7 25 -29 7 -24 13 -47 13 -52z m108 34 c67 -20 118
-51 135 -79 15 -26 15 -31 1 -60 -9 -19 -23 -31 -35 -31 -17 0 -18 3 -7 21 11
17 10 22 -3 32 -9 7 -19 22 -23 33 -4 15 -26 29 -66 44 -62 23 -96 59 -85 88
5 15 9 13 26 -10 11 -15 36 -32 57 -38z m1972 -81 c0 -23 -8 -24 -32 -2 -25
22 -23 31 7 25 16 -3 25 -11 25 -23z m-1711 -16 c18 -39 13 -79 -15 -112 -26
-32 -64 -42 -64 -18 0 8 9 22 20 32 11 10 20 30 20 45 0 15 -9 35 -20 45 -28
25 -25 30 14 31 27 0 37 -5 45 -23z m-280 -63 c9 -42 8 -53 -12 -89 -25 -46
-48 -52 -86 -22 -26 20 -21 41 8 41 10 0 24 6 30 14 19 23 -3 56 -37 56 -16 0
-37 7 -48 15 -18 15 -15 16 41 13 l60 -3 -4 30 c-3 30 -3 30 17 12 12 -11 25
-41 31 -67z m46 56 c9 -13 12 -31 9 -41 -5 -13 -10 -8 -20 22 -16 44 -16 43
-9 43 2 0 11 -11 20 -24z m1769 -91 c10 -139 16 -352 10 -332 -10 33 -39 15
-44 -28 -6 -51 -32 -59 -55 -16 l-16 31 -29 -22 c-23 -17 -30 -30 -30 -55 0
-20 -8 -43 -20 -55 -24 -26 -25 -46 -5 -75 13 -19 13 -22 -2 -27 -9 -4 -17 -5
-18 -4 -11 17 -24 186 -21 267 5 100 7 107 40 155 20 28 55 72 79 98 24 26 56
73 72 103 15 31 29 54 30 53 1 -2 5 -43 9 -93z m-1620 21 c-3 -9 -10 -16 -15
-16 -5 0 -4 9 3 20 14 22 21 20 12 -4z m-134 -85 c-10 -21 -30 -37 -30 -26 0
14 21 45 31 45 6 0 6 -7 -1 -19z m93 4 c10 -7 17 -22 15 -32 -4 -23 -50 -29
-68 -8 -11 13 -10 19 5 35 21 23 24 24 48 5z m2015 -122 l-3 -28 -11 25 c-8
18 -8 32 -1 50 10 25 11 25 14 3 3 -13 3 -35 1 -50z m-1872 41 c33 -14 36 -17
20 -26 -13 -7 -21 -7 -26 2 -5 8 -17 10 -32 7 -30 -8 -42 1 -27 20 14 17 18
16 65 -3z m-165 -11 c20 -3 46 0 58 6 13 8 21 8 21 2 0 -6 -12 -13 -27 -16
-71 -14 -108 -32 -114 -56 l-7 -24 -1 23 c-1 13 -8 30 -16 39 -21 21 0 47 29
38 12 -4 37 -9 57 -12z m1403 -97 c-3 -14 -10 -26 -15 -26 -12 0 -11 4 3 35
14 31 21 26 12 -9z m-1376 -1 c-2 -5 -7 -10 -13 -11 -5 -1 -19 -5 -30 -9 -16
-6 -15 -3 5 14 25 21 44 24 38 6z m1952 -22 c0 -5 -30 -36 -31 -31 -9 40 -8
46 11 41 11 -3 20 -7 20 -10z m-2074 -81 c-13 -12 -17 8 -10 40 l9 33 3 -33
c2 -19 1 -36 -2 -40z m2154 -8 c0 -2 -7 -4 -15 -4 -8 0 -15 4 -15 10 0 5 7 7
15 4 8 -4 15 -8 15 -10z m-1447 -23 c37 -5 70 -11 73 -14 3 -3 -30 -5 -73 -6
-115 -1 -278 -41 -342 -85 -55 -37 -231 -211 -231 -229 0 -17 -14 -45 -52
-102 -14 -22 -32 -60 -39 -85 -7 -25 -16 -49 -20 -55 -4 -5 -12 -37 -18 -70
-11 -56 -10 -61 10 -78 32 -26 50 -6 43 46 -3 23 -1 56 4 72 8 25 10 16 17
-60 4 -49 12 -98 17 -108 8 -15 5 -18 -19 -15 -25 3 -31 -3 -52 -47 -44 -92
-67 -252 -45 -319 7 -22 10 -44 7 -48 -9 -16 18 -66 38 -71 24 -7 25 -39 0
-61 -10 -9 -22 -36 -25 -59 -8 -49 -33 -140 -51 -182 -7 -16 -21 -49 -31 -73
-9 -23 -23 -47 -30 -53 -25 -20 -57 -94 -57 -132 0 -45 12 -60 44 -55 21 3 24
8 24 48 1 46 16 93 34 104 10 6 25 36 47 94 6 15 9 -16 10 -95 0 -65 2 -149 3
-188 1 -38 0 -90 -3 -115 -3 -25 -8 -106 -11 -180 -4 -74 -8 -137 -10 -140 -1
-3 -6 -68 -9 -145 -7 -147 -15 -296 -22 -380 -2 -27 -7 -90 -11 -140 -15 -195
-4 -272 43 -294 14 -6 49 -11 79 -11 62 0 75 -11 40 -34 -14 -9 -25 -13 -25
-9 0 5 -10 14 -22 22 -19 12 -23 11 -39 -10 -22 -28 -26 -114 -8 -153 10 -20
9 -34 -4 -68 -9 -24 -17 -52 -17 -63 -5 -113 -6 -636 -1 -643 3 -5 12 -11 20
-14 10 -3 15 -20 15 -54 1 -48 0 -49 -21 -39 -19 8 -23 18 -23 61 0 59 -8 69
-69 79 l-44 7 5 129 c4 105 8 132 23 149 13 14 16 28 11 52 -16 84 -18 128 -6
143 10 11 10 18 1 29 -9 10 -9 15 -1 18 6 2 13 29 15 61 3 54 1 59 -27 80 -28
21 -29 25 -27 92 1 38 6 83 11 100 4 16 10 68 13 115 3 47 7 105 10 130 24
229 33 421 40 841 5 370 3 392 -35 369 -18 -11 -29 -110 -17 -164 12 -60 -4
-629 -24 -831 -6 -60 -13 -148 -15 -195 -3 -47 -12 -141 -20 -210 -23 -201
-26 -258 -13 -283 7 -12 13 -70 15 -129 1 -59 5 -120 8 -136 4 -16 2 -41 -4
-57 l-11 -29 -20 21 c-19 18 -20 31 -19 159 1 76 1 241 0 366 -1 202 1 227 15
236 13 7 18 26 20 78 1 38 6 106 10 151 4 56 3 95 -6 120 -13 41 -15 319 -4
583 4 85 10 234 14 330 8 189 6 335 -6 445 -5 44 -4 101 4 152 11 79 10 222
-2 266 -6 21 -5 21 14 -3 11 -13 19 -27 18 -30 -1 -3 6 -16 16 -30 14 -20 20
-23 35 -13 20 13 19 60 -2 102 -13 23 -13 31 -1 52 43 76 47 93 38 151 -8 54
-9 239 -1 282 4 22 -32 48 -39 29 -9 -25 -19 -12 -15 18 3 20 12 33 23 36 10
3 30 30 44 60 40 83 108 183 157 229 114 107 173 141 313 181 84 24 141 25
298 4z m1492 1 c0 -18 -20 -15 -23 4 -3 10 1 15 10 12 7 -3 13 -10 13 -16z
m-975 -7 c0 -8 -4 -15 -9 -15 -5 0 -14 7 -21 15 -10 13 -9 15 9 15 12 0 21 -6
21 -15z m-1130 -29 c0 -3 -4 -8 -10 -11 -5 -3 -10 -1 -10 4 0 6 5 11 10 11 6
0 10 -2 10 -4z m1663 -33 c-9 -24 -43 -83 -63 -110 l-16 -21 -28 34 c-28 36
-27 41 5 24 15 -9 21 -7 25 5 3 8 12 15 20 15 14 0 18 11 15 42 -2 12 3 16 12
12 8 -3 18 -1 22 5 10 17 15 13 8 -6z m-927 -3 c88 -9 184 -37 184 -51 0 -11
-43 -1 -79 17 -27 14 -93 19 -104 8 -4 -4 -50 -8 -104 -9 -169 -5 -217 -10
-248 -27 -16 -10 -45 -24 -63 -33 -18 -9 -35 -22 -39 -30 -8 -21 -28 -18 -30
4 -2 24 61 69 114 82 21 6 54 15 73 20 79 23 98 26 155 27 33 1 97 -3 141 -8z
m49 -70 c3 -5 2 -10 -4 -10 -5 0 -13 5 -16 10 -3 6 -2 10 4 10 5 0 13 -4 16
-10z m342 -12 c38 -9 41 -12 33 -33 -13 -33 -16 -141 -6 -204 l8 -54 -33 37
c-30 34 -32 40 -21 69 6 18 12 55 14 82 3 46 1 50 -21 53 -13 2 -40 14 -60 26
-20 13 -49 27 -66 33 -24 9 -17 10 40 6 39 -2 89 -9 112 -15z m-467 2 c-32
-10 -103 -12 -97 -2 3 4 31 8 64 9 42 1 51 -1 33 -7z m-185 -6 c28 -11 -4 -24
-55 -23 l-45 1 30 13 c34 16 47 18 70 9z m-778 -26 c-3 -8 -6 -5 -6 6 -1 11 2
17 5 13 3 -3 4 -12 1 -19z m2027 -290 c3 -147 8 -273 11 -280 3 -8 -20 -27
-61 -50 -55 -32 -64 -34 -59 -18 3 11 8 39 11 62 2 24 11 68 20 98 9 30 18 74
19 97 1 23 6 48 12 55 6 7 11 40 12 72 1 32 4 62 6 67 3 4 6 52 6 106 2 188
16 57 23 -209z m-822 273 c38 -5 66 -15 81 -29 27 -26 43 -28 54 -7 8 13 12
13 27 2 28 -20 11 -37 -29 -30 -23 4 -43 0 -60 -11 -25 -16 -26 -16 -49 11
-21 25 -31 29 -87 30 -80 3 -209 23 -209 34 0 9 160 18 195 12 11 -2 46 -8 77
-12z m-688 -39 c-16 -15 -45 -39 -64 -52 -19 -13 -45 -35 -57 -49 -27 -31 -30
-17 -5 20 20 31 65 70 107 92 45 24 52 20 19 -11z m180 3 c4 -11 -2 -15 -21
-15 -21 0 -24 2 -13 15 7 8 16 15 20 15 4 0 10 -7 14 -15z m1160 -10 c-13 -20
-19 -23 -31 -14 -16 14 -8 25 22 32 11 3 21 5 23 6 1 0 -5 -10 -14 -24z
m-1259 -17 c3 -3 -10 -8 -29 -10 -27 -3 -33 -1 -24 9 10 12 41 13 53 1z m-451
-63 c-4 -8 -8 -15 -10 -15 -2 0 -4 7 -4 15 0 8 4 15 10 15 5 0 7 -7 4 -15z
m296 -75 c0 -5 -5 -12 -11 -16 -14 -8 -33 11 -25 25 7 11 36 4 36 -9z m238
-128 c6 -9 12 -35 12 -59 0 -41 -2 -44 -50 -68 l-50 -25 0 30 c0 28 2 30 39
30 42 0 60 20 35 40 -8 7 -14 18 -14 26 0 20 -19 27 -37 13 -13 -11 -18 -10
-30 6 -14 20 -15 20 -34 -4 -12 -15 -17 -31 -13 -40 4 -9 9 -33 12 -55 l4 -38
-31 23 c-30 22 -39 39 -42 84 -3 49 0 54 44 57 76 5 141 -3 155 -20z m-271
-120 c3 -110 11 -233 19 -276 2 -11 6 -56 9 -100 3 -45 8 -88 10 -96 16 -58
23 -341 18 -750 -1 -91 0 -275 2 -410 2 -135 0 -288 -5 -340 -13 -141 -20
-579 -11 -705 4 -60 3 -115 -1 -122 -20 -26 -56 -24 -86 7 -17 17 -26 30 -21
30 14 0 59 77 59 103 0 13 -5 28 -11 34 -7 7 -11 44 -10 95 1 46 -3 99 -9 118
-17 57 -12 669 6 786 3 21 -1 36 -11 44 -11 9 -15 27 -13 59 1 25 -2 143 -7
261 -4 118 -10 307 -12 420 -2 113 -5 313 -7 445 -3 139 0 245 5 251 6 7 5 48
-1 108 -6 53 -8 105 -5 116 5 16 42 37 70 39 6 1 11 -46 12 -117z m389 34 c11
-3 36 -17 54 -31 l34 -25 -70 0 c-75 0 -107 -11 -87 -31 7 -7 44 -11 100 -10
64 1 94 -2 108 -13 19 -14 18 -15 -15 -14 -19 1 -38 5 -41 11 -15 22 -79 -15
-126 -73 -27 -32 -51 -59 -55 -59 -4 -1 -8 13 -10 31 -2 25 -9 33 -33 40 -16
5 -45 7 -62 4 -18 -3 -33 -1 -33 3 0 14 34 38 73 52 44 16 107 90 107 127 0
23 1 24 18 10 9 -9 26 -18 38 -22z m114 -161 c7 -8 29 -19 49 -25 24 -6 43
-21 58 -44 13 -19 32 -36 45 -38 20 -3 23 -8 20 -43 -4 -47 -50 -98 -85 -93
-28 4 -33 25 -8 33 33 10 45 41 30 76 -15 38 -45 35 -42 -4 1 -24 -1 -26 -26
-21 -18 4 -35 -1 -51 -14 -22 -18 -23 -22 -10 -38 8 -10 10 -15 3 -11 -7 4
-25 27 -40 50 -48 70 -47 67 -15 61 35 -7 102 31 102 59 0 22 -8 21 -48 -3
-27 -17 -36 -18 -52 -8 -26 17 -25 22 5 36 14 7 28 19 31 27 8 19 18 19 34 0z
m1249 -35 c55 -21 103 -58 95 -72 -3 -5 -20 2 -37 15 -46 34 -92 48 -123 37
-26 -10 -28 -34 -3 -37 67 -8 95 -19 148 -55 65 -43 84 -76 34 -57 -16 5 -32
16 -38 23 -20 26 -124 42 -149 23 -27 -20 -11 -38 30 -35 19 1 39 -3 46 -10 7
-7 19 -12 28 -12 8 0 24 -7 35 -16 19 -14 19 -15 -10 -10 -77 15 -133 17 -140
6 -12 -19 10 -31 66 -37 95 -9 90 -23 -6 -20 -72 2 -105 -3 -165 -22 -85 -27
-157 -32 -171 -10 -16 27 14 169 36 169 7 0 18 7 25 15 7 8 24 21 39 28 86 46
147 80 156 88 15 14 50 11 104 -11z m-1595 -42 c-38 -33 -64 -32 -64 4 0 21 5
23 50 25 l49 2 -35 -31z m139 -67 c-5 -20 83 -136 114 -150 33 -15 59 -56 42
-67 -5 -3 -21 1 -34 10 -24 16 -55 12 -55 -6 0 -5 -4 -6 -10 -3 -5 3 -10 17
-10 31 0 17 -20 45 -65 91 -36 36 -65 67 -65 69 0 1 10 4 23 6 16 2 21 9 20
25 -2 19 0 21 20 14 12 -5 21 -14 20 -20z m-183 -1 c0 -5 -4 -10 -10 -10 -5 0
-10 5 -10 10 0 6 5 10 10 10 6 0 10 -4 10 -10z m-480 -21 c0 -6 -4 -7 -10 -4
-5 3 -10 11 -10 16 0 6 5 7 10 4 6 -3 10 -11 10 -16z m1715 -20 c11 -17 -6
-130 -19 -126 -13 4 -20 78 -11 114 6 24 19 30 30 12z m-90 -27 c-3 -7 -5 -17
-5 -20 0 -4 -14 -8 -32 -9 -41 -3 -56 -18 -42 -41 16 -24 45 -27 61 -6 7 10
13 13 13 7 0 -6 16 -35 35 -64 24 -35 33 -55 26 -62 -7 -7 -7 -15 0 -23 7 -9
5 -15 -9 -23 -18 -10 -20 -7 -18 22 1 28 -2 32 -27 35 -41 5 -82 -29 -85 -70
-2 -18 -10 -40 -18 -48 -14 -13 -15 -9 -12 40 2 30 6 62 9 70 2 10 -2 14 -13
14 -21 -2 -21 0 -7 65 6 27 17 55 25 62 8 6 14 22 14 34 0 26 11 33 58 32 23
-1 31 -5 27 -15z m-1418 -99 c-2 -21 -4 -4 -4 37 0 41 2 58 4 38 2 -21 2 -55
0 -75z m1950 -39 c2 -6 -7 -10 -19 -10 -14 1 -24 -6 -26 -16 -3 -14 3 -18 22
-18 30 0 35 -20 7 -27 -34 -9 -38 -53 -5 -53 8 0 14 -4 14 -10 0 -5 -9 -10
-19 -10 -11 0 -23 -5 -26 -10 -9 -15 15 -42 32 -36 7 3 13 -1 13 -10 0 -10 -6
-14 -14 -11 -15 6 -36 -11 -36 -29 0 -7 9 -16 21 -19 11 -4 18 -10 14 -13 -4
-4 -8 -5 -9 -2 -4 7 -36 -21 -36 -31 0 -5 13 -15 30 -21 29 -13 30 -14 15 -42
-19 -36 -19 -52 0 -60 22 -8 18 -31 -7 -50 l-23 -15 23 -20 c26 -23 27 -29 5
-53 -15 -17 -15 -19 2 -38 18 -19 17 -20 -7 -20 -13 0 -28 -3 -31 -6 -10 -10
12 -44 28 -44 8 0 15 -7 15 -15 0 -9 -9 -15 -24 -15 -33 0 -51 -23 -31 -40 8
-7 24 -10 35 -7 16 4 20 0 20 -23 0 -24 -3 -27 -25 -22 -13 2 -32 1 -42 -2
-14 -6 -15 -9 -2 -21 8 -8 25 -16 39 -18 14 -2 26 -11 28 -20 3 -13 -4 -17
-27 -17 -33 0 -44 -10 -35 -34 4 -9 18 -16 35 -16 l28 0 -1 -155 c0 -85 -5
-155 -9 -155 -16 0 -9 -43 9 -56 16 -13 15 -15 -7 -33 -25 -19 -24 -51 3 -51
7 0 16 -9 19 -21 4 -15 -1 -23 -20 -30 -31 -12 -27 -41 7 -50 15 -4 18 -7 8
-8 -37 -2 -34 -55 4 -65 31 -7 14 -20 -34 -25 -4 -1 -2 -12 4 -26 6 -14 17
-24 24 -21 8 3 16 1 19 -4 9 -15 -7 -40 -31 -46 -37 -9 -31 -43 9 -51 l32 -7
-32 -8 c-34 -9 -46 -41 -19 -51 9 -3 12 -15 9 -31 -4 -18 -1 -26 8 -26 8 0 20
-4 27 -8 17 -11 -1 -62 -22 -62 -22 0 -30 -19 -15 -36 6 -8 14 -12 17 -9 7 6
32 -14 32 -26 0 -5 -11 -9 -25 -9 -32 0 -36 -39 -5 -47 33 -9 24 -41 -16 -58
-19 -8 -43 -24 -53 -36 -17 -21 -18 -21 -20 -3 -1 10 -1 80 1 154 2 148 2 260
0 450 -1 69 2 211 6 315 8 189 7 203 -27 360 -5 22 -7 43 -5 46 5 9 18 607 15
699 -1 41 0 89 4 105 5 30 6 31 52 25 25 -3 48 -10 50 -16z m-173 -41 c-1 -32
2 -76 6 -98 5 -23 5 -57 0 -80 -10 -44 -10 -44 -6 -435 2 -205 6 -283 16 -305
10 -22 13 -71 11 -180 -4 -241 -4 -571 0 -1003 2 -221 1 -402 -3 -402 -4 0
-11 12 -14 28 -9 36 -59 109 -85 123 -25 13 -49 -4 -49 -34 0 -19 -1 -19 -24
4 -13 13 -36 35 -52 47 -54 46 -118 13 -219 -112 -27 -34 -62 -72 -78 -85
l-28 -23 7 163 c3 90 8 167 10 170 2 3 6 46 10 95 3 49 8 92 10 96 3 4 7 47
10 95 3 48 10 101 15 117 5 16 9 42 9 57 0 32 0 32 87 33 54 1 65 5 93 31 29
28 31 34 26 78 -6 42 -5 47 13 47 49 0 46 42 -17 269 -29 102 -38 149 -32 165
22 53 43 188 43 265 -1 68 3 91 21 126 37 69 41 107 51 470 3 94 7 193 9 221
4 49 4 52 -17 47 -22 -4 -22 -4 -3 11 11 9 29 16 40 16 12 0 46 9 76 20 30 10
58 19 61 19 3 1 5 -25 3 -56z m-1504 37 c0 -5 -4 -10 -10 -10 -5 0 -10 5 -10
10 0 6 5 10 10 10 6 0 10 -4 10 -10z m64 -27 c7 -16 -11 -36 -25 -27 -9 5 1
44 11 44 4 0 11 -8 14 -17z m1221 -80 c-3 -32 -7 -131 -7 -220 -1 -89 -5 -160
-10 -157 -4 3 -8 27 -8 53 0 58 -27 230 -40 253 -7 13 -5 18 9 23 19 6 41 52
41 86 0 11 5 19 11 19 7 0 9 -18 4 -57z m-305 -14 c0 -33 -4 -48 -11 -44 -18
12 -27 49 -17 77 14 41 28 24 28 -33z m-109 -6 c-12 -20 -14 -14 -5 12 4 9 9
14 11 11 3 -2 0 -13 -6 -23z m-823 -80 c-15 -14 -16 -14 -15 3 2 14 -4 19 -20
18 -20 0 -23 4 -23 38 l0 38 37 -40 c33 -37 35 -42 21 -57z m537 27 c21 -23
11 -41 -25 -47 -21 -3 -24 7 -14 45 8 27 16 28 39 2z m424 -19 c11 -7 9 -11
-8 -20 -18 -10 -21 -9 -21 9 0 22 7 25 29 11z m86 -21 c3 -6 -5 -14 -19 -20
-18 -7 -25 -18 -28 -42 -3 -31 -4 -32 -15 -12 -10 18 -8 25 15 52 29 34 37 38
47 22z m-915 -35 c9 0 14 -7 12 -20 -5 -26 -4 -25 -30 -18 -15 4 -22 13 -22
30 0 17 4 22 13 16 6 -4 19 -8 27 -8z m-96 -57 c34 -18 44 -27 33 -31 -8 -3
-21 1 -27 9 -7 8 -30 14 -51 14 -37 0 -39 2 -39 32 0 29 1 30 18 16 9 -9 39
-27 66 -40z m300 17 c18 -14 39 -25 46 -25 7 0 11 -3 7 -6 -3 -3 -31 -7 -62
-7 -52 -2 -56 0 -51 18 3 11 6 26 6 33 0 19 18 15 54 -13z m536 -6 c0 -4 10
-10 23 -14 13 -4 17 -8 9 -12 -6 -2 -9 -9 -6 -15 4 -6 -2 -5 -15 1 -18 10 -21
9 -21 -6 0 -10 6 -27 13 -38 20 -31 39 -94 32 -105 -16 -26 -25 -5 -72 163 -5
21 -31 22 -53 2 -15 -13 -24 -14 -64 -3 l-47 12 38 12 c39 12 163 14 163 3z
m226 -14 c14 -92 15 -117 5 -111 -6 4 -11 14 -11 22 0 8 -6 27 -14 42 -7 15
-17 37 -21 50 -6 20 -4 23 16 20 13 -2 23 -11 25 -23z m-1406 -45 c0 -39 -3
-50 -16 -50 -12 0 -15 6 -10 23 4 12 9 34 12 50 9 41 14 33 14 -23z m894 16
c14 -57 130 -96 182 -62 14 10 28 15 31 13 9 -10 41 -122 36 -129 -2 -5 -11
-8 -20 -8 -20 0 -71 -29 -105 -59 -31 -27 -49 -21 -30 9 7 11 12 37 12 59 0
36 -3 40 -30 46 -25 6 -36 2 -56 -19 l-26 -25 21 -30 c12 -16 18 -36 15 -45
-8 -21 23 -56 48 -56 11 0 17 -4 13 -10 -20 -32 9 -150 37 -150 20 0 48 -32
48 -55 0 -30 19 -45 57 -45 40 0 44 -21 8 -40 -26 -14 -42 -47 -28 -59 4 -4
28 -14 52 -21 40 -13 44 -13 57 5 18 25 18 55 0 55 -12 0 -13 6 -4 31 8 22 7
34 -1 42 -15 15 -14 37 2 37 10 0 18 -24 25 -72 26 -173 41 -279 52 -361 l11
-88 -31 -25 c-16 -14 -30 -33 -30 -41 0 -8 -6 -13 -12 -10 -7 2 -11 11 -9 18
8 23 1 110 -10 130 -11 22 -60 49 -87 49 -11 0 -29 -8 -41 -17 l-22 -18 21
-40 c21 -41 23 -75 5 -77 -5 0 -20 -4 -32 -9 -14 -5 -23 -5 -23 1 0 6 4 10 9
10 13 0 22 30 15 52 -5 18 -12 19 -52 13 -26 -4 -53 -12 -59 -17 -10 -8 -13
-5 -13 11 0 11 5 21 10 21 22 0 92 52 110 83 27 43 26 77 0 77 -11 0 -24 -8
-27 -17 -8 -22 -19 -33 -58 -57 -62 -40 -136 -128 -128 -153 2 -6 -5 -17 -17
-23 -13 -7 -19 -18 -16 -26 3 -8 1 -14 -4 -14 -16 0 -11 -42 7 -62 14 -15 15
-23 6 -37 -7 -10 -9 -28 -6 -39 2 -11 0 -23 -6 -26 -7 -5 -11 2 -12 16 0 25
-3 55 -24 238 -20 167 -20 163 6 149 28 -15 82 -4 130 27 21 13 43 24 47 24 5
0 17 18 27 40 37 81 5 200 -71 263 -19 16 -34 34 -34 40 0 6 19 -8 43 -31 38
-38 47 -42 69 -33 34 13 41 35 18 56 -11 10 -17 21 -15 25 3 4 -4 18 -14 31
-16 20 -21 21 -34 11 -11 -10 -25 -11 -49 -4 -21 6 -41 5 -56 -1 -23 -10 -30
-41 -12 -52 20 -12 9 -21 -40 -31 -57 -12 -55 -14 -65 76 -6 55 -6 55 27 70
41 19 67 63 73 125 4 41 0 57 -26 104 -34 60 -45 70 -99 88 -23 7 -28 12 -15
12 12 1 38 10 58 20 23 12 51 18 71 15 22 -2 38 1 46 11 18 22 37 18 44 -9z
m-365 -23 c21 -9 51 -13 75 -10 l41 6 -32 -15 c-18 -8 -33 -19 -33 -24 0 -6
-10 -8 -23 -5 -15 4 -28 1 -36 -9 -10 -12 -8 -17 10 -26 11 -7 34 -10 50 -8
25 4 29 1 29 -19 0 -13 -4 -23 -10 -23 -5 0 -10 5 -10 10 0 18 -36 10 -57 -12
-36 -39 -38 -82 -8 -134 25 -42 25 -47 11 -63 -20 -22 -20 -30 3 -61 16 -21
21 -22 35 -11 15 13 16 3 15 -110 -1 -68 1 -158 5 -199 9 -100 17 -230 17
-257 -1 -13 -17 -38 -38 -57 -37 -34 -38 -34 -19 -55 25 -27 44 -27 56 2 5 12
9 18 10 12 1 -5 3 -19 5 -30 1 -11 6 -50 9 -87 6 -58 5 -67 -11 -72 -10 -3
-24 -15 -30 -25 -16 -26 6 -81 40 -104 15 -10 25 -25 25 -41 0 -27 -5 -29
-102 -42 -60 -8 -66 -1 -66 84 0 53 4 66 24 85 17 16 25 38 30 80 9 69 -5 118
-41 147 -24 19 -25 22 -19 107 3 49 5 129 6 179 0 81 3 96 25 128 36 54 47
112 31 166 -12 40 -17 45 -41 43 l-27 -2 6 142 c3 78 9 177 12 220 5 63 3 77
-9 77 -8 0 -19 -6 -25 -12 -8 -11 -21 -159 -26 -303 -1 -26 -5 -30 -38 -36
l-38 -6 0 42 c0 54 16 100 51 149 33 46 37 81 12 116 -10 14 -18 40 -19 58
l-1 33 46 -7 c25 -4 61 -13 80 -21z m741 -1 c0 -15 -2 -15 -10 -2 -13 20 -13
33 0 25 6 -3 10 -14 10 -23z m17 -84 c-3 -8 -6 -5 -6 6 -1 11 2 17 5 13 3 -3
4 -12 1 -19z m-955 -10 c-7 -7 -12 -8 -12 -2 0 14 12 26 19 19 2 -3 -1 -11 -7
-17z m1070 -54 c9 -2 20 -19 23 -36 6 -26 3 -34 -21 -53 l-29 -23 -7 26 c-3
15 -8 53 -10 85 -5 57 -4 58 11 33 9 -14 23 -29 33 -32z m-1069 11 c-7 -21
-13 -19 -13 6 0 11 4 18 10 14 5 -3 7 -12 3 -20z m395 13 c14 -17 3 -105 -14
-119 -11 -9 -14 -5 -14 23 0 19 5 39 11 45 8 8 8 17 0 31 -6 11 -11 23 -11 26
0 11 17 6 28 -6z m808 -25 c-3 -10 -8 -56 -11 -103 -4 -59 -13 -100 -30 -135
l-23 -50 -1 47 c-1 26 -6 58 -12 72 -9 19 -8 29 5 47 9 13 16 36 16 52 0 16 7
30 16 34 8 3 20 16 25 29 10 28 23 33 15 7z m-1214 -56 c-3 -26 -10 -36 -32
-44 -35 -13 -48 -2 -42 37 4 25 8 29 27 24 13 -3 26 -1 29 5 14 21 22 11 18
-22z m858 -67 c0 -11 -6 -20 -14 -20 -21 0 -31 21 -15 31 22 14 29 11 29 -11z
m224 -87 c4 -21 6 -57 5 -81 -3 -68 -21 -33 -24 47 -3 75 9 96 19 34z m-226 6
c-16 -11 -28 -29 -28 -40 0 -26 -15 -24 -39 7 -35 44 -28 54 37 54 l57 -1 -27
-20z m-1481 -11 c-3 -8 -6 -5 -6 6 -1 11 2 17 5 13 3 -3 4 -12 1 -19z m903 12
c0 -5 -4 -10 -10 -10 -5 0 -10 5 -10 10 0 6 5 10 10 10 6 0 10 -4 10 -10z m69
-57 c5 -21 12 -60 15 -86 5 -44 4 -48 -20 -57 -14 -6 -28 -10 -31 -10 -4 0 2
161 7 188 0 1 4 2 10 2 5 0 13 -17 19 -37z m-399 8 c0 -6 -4 -13 -10 -16 -5
-3 -10 1 -10 9 0 9 5 16 10 16 6 0 10 -4 10 -9z m950 -11 c0 -5 -2 -10 -4 -10
-3 0 -8 5 -11 10 -3 6 -1 10 4 10 6 0 11 -4 11 -10z m120 -35 c14 -16 6 -35
-16 -35 -8 0 -14 10 -14 25 0 28 12 32 30 10z m-898 -36 c-4 -39 -18 -42 -18
-4 0 20 4 34 11 32 5 -3 9 -15 7 -28z m916 -46 c1 -20 9 -59 17 -87 16 -52 19
-84 9 -73 -8 7 -43 154 -44 180 0 34 15 16 18 -20z m-60 -48 c2 -30 8 -58 13
-61 9 -5 1 -34 -10 -34 -4 0 -8 17 -9 38 -1 20 -6 59 -11 85 -6 34 -6 46 2 38
6 -6 12 -35 15 -66z m-984 33 c4 -17 2 -28 -4 -28 -5 0 -10 14 -10 32 0 36 4
35 14 -4z m1153 -5 c-3 -10 -5 -4 -5 12 0 17 2 24 5 18 2 -7 2 -21 0 -30z
m-722 17 c3 -5 1 -10 -4 -10 -6 0 -11 5 -11 10 0 6 2 10 4 10 3 0 8 -4 11 -10z
m-243 -35 c-5 -39 -22 -48 -22 -12 0 17 16 47 25 47 1 0 -1 -16 -3 -35z m-63
-4 c7 -5 9 -11 4 -14 -6 -4 -19 0 -29 8 -15 11 -16 14 -4 15 8 0 21 -4 29 -9z
m368 -14 l-29 -22 21 -19 c29 -26 26 -36 -9 -36 -27 0 -30 3 -30 30 0 23 7 35
33 50 43 26 49 25 14 -3z m-476 -37 c6 0 7 -5 4 -10 -10 -16 -25 -1 -24 23 1
17 2 18 6 5 2 -10 9 -18 14 -18z m338 -36 c1 -29 -24 -51 -33 -28 -10 25 -7
59 6 72 10 10 14 9 20 -5 3 -10 7 -28 7 -39z m231 30 c0 -12 -4 -12 -20 -2
-11 7 -20 16 -20 19 0 4 9 5 20 2 11 -3 20 -12 20 -19z m549 -38 c-9 -8 -10
-7 -5 7 3 10 7 26 7 35 1 9 4 6 6 -7 3 -13 -1 -28 -8 -35z m-1010 25 c10 -7 8
-12 -10 -25 -37 -25 -53 -21 -32 9 20 27 22 28 42 16z m471 -38 c0 -17 -14
-44 -34 -68 l-34 -40 -7 27 c-8 32 0 49 20 42 16 -6 50 40 40 56 -3 5 -1 10 4
10 6 0 11 -12 11 -27z m-150 -63 c-7 -17 -11 -32 -9 -34 2 -1 15 -10 29 -20
l25 -17 -25 3 c-14 2 -28 10 -32 18 -11 26 -9 78 5 83 19 7 21 0 7 -33z m637
8 c-3 -7 -5 -2 -5 12 0 14 2 19 5 13 2 -7 2 -19 0 -25z m-993 -4 l47 -7 -5
-41 c-2 -23 -5 -67 -5 -98 l-1 -58 -70 0 c-43 0 -70 4 -70 11 0 6 8 8 19 4 14
-4 28 6 55 36 20 24 36 46 36 51 0 4 -13 8 -29 8 -16 0 -36 3 -45 6 -13 5 -12
9 4 27 18 19 19 23 5 44 -18 26 -16 27 59 17z m-383 -206 c2 -62 2 -192 1
-288 -2 -96 0 -209 3 -250 7 -95 25 -232 31 -242 3 -4 -15 -8 -41 -8 -40 0
-47 3 -56 27 -14 38 -12 222 5 387 6 53 26 371 24 385 0 4 0 44 2 91 1 84 2
84 15 48 7 -20 15 -87 16 -150z m1386 160 c-3 -8 -6 -5 -6 6 -1 11 2 17 5 13
3 -3 4 -12 1 -19z m-1135 -35 c5 -6 16 -9 24 -6 13 5 13 1 2 -23 -13 -29 -26
-44 -40 -44 -5 0 -7 28 -7 63 1 34 4 53 6 42 3 -11 9 -25 15 -32z m778 -3 c0
-5 -2 -10 -4 -10 -3 0 -8 5 -11 10 -3 6 -1 10 4 10 6 0 11 -4 11 -10z m-368
-23 c24 -20 27 -30 33 -122 6 -98 6 -99 -11 -75 -20 28 -35 40 -44 35 -3 -2
-7 26 -8 63 -1 37 -5 79 -8 95 -7 33 2 34 38 4z m762 -82 c5 -22 4 -26 -4 -15
-5 8 -10 24 -10 34 0 26 6 18 14 -19z m-1777 -47 c-3 -8 -6 -5 -6 6 -1 11 2
17 5 13 3 -3 4 -12 1 -19z m1790 -30 c-3 -8 -6 -5 -6 6 -1 11 2 17 5 13 3 -3
4 -12 1 -19z m-303 -4 c3 -8 2 -12 -4 -9 -6 3 -10 10 -10 16 0 14 7 11 14 -7z
m-1492 -217 c1 -114 6 -207 11 -207 4 0 5 -6 1 -12 -5 -7 -10 -26 -11 -43 -16
-139 -21 -288 -19 -510 1 -143 -1 -271 -5 -285 -4 -14 -7 -20 -8 -13 -1 7 -15
26 -31 43 -23 24 -29 37 -24 53 4 12 7 61 6 109 -1 48 5 138 12 200 8 62 14
156 14 208 -1 53 2 105 5 115 3 11 8 83 11 160 6 123 17 290 21 320 1 6 3 25
3 44 1 19 4 32 7 29 3 -2 6 -98 7 -211z m1726 207 c19 -5 22 -12 18 -30 -4
-13 0 -39 8 -58 7 -18 24 -73 36 -122 l22 -89 -27 -23 c-29 -24 -51 -21 -36 5
8 15 4 42 -20 123 -14 49 -37 200 -30 200 3 0 16 -3 29 -6z m-991 -31 c49 5
47 9 37 -92 -6 -52 -9 -58 -19 -44 -11 15 -15 15 -29 4 -9 -7 -26 -11 -38 -8
-11 3 -29 2 -39 -4 -14 -7 -19 -4 -24 12 -4 11 -4 23 -1 27 6 5 60 6 100 0 30
-4 46 46 23 69 -22 23 -53 6 -49 -26 3 -17 -2 -21 -25 -21 -15 1 -41 7 -58 15
l-30 15 32 -6 c25 -4 34 -1 42 15 16 28 14 39 -9 46 -11 3 -20 11 -20 16 0 5
14 2 32 -7 21 -11 46 -15 75 -11z m1097 -72 c18 -61 19 -71 8 -71 -13 0 -36
79 -38 130 -2 48 -3 49 30 -59z m-511 68 c-11 -39 64 -68 95 -37 16 16 29 1
16 -19 -22 -36 -40 -37 -88 -9 -53 31 -64 48 -44 70 19 22 27 19 21 -5z m-59
-138 c57 -39 126 -49 192 -26 62 21 94 41 94 60 0 18 14 19 41 5 16 -9 21 -7
29 14 5 15 16 23 27 22 13 -2 21 -22 35 -87 9 -46 17 -86 18 -89 0 -3 -20 -11
-44 -18 -27 -7 -59 -26 -80 -47 -20 -19 -44 -35 -54 -35 -11 0 -37 -7 -58 -16
-43 -18 -134 -14 -190 7 -41 16 -100 4 -107 -21 -11 -44 -22 -16 -24 60 -1 48
2 78 8 74 5 -3 28 -7 50 -9 40 -4 41 -4 33 23 -4 15 -7 41 -6 58 1 21 -6 40
-23 58 -14 15 -25 32 -25 38 0 6 9 -1 21 -16 11 -14 40 -39 63 -55z m-437 -3
c-2 -13 -4 -5 -4 17 -1 22 1 32 4 23 2 -10 2 -28 0 -40z m-52 -68 c-8 -13 -32
-13 -40 1 -4 6 1 16 11 24 16 11 20 11 27 -1 4 -8 5 -19 2 -24z m315 4 c0 -8
-5 -12 -10 -9 -6 4 -8 11 -5 16 9 14 15 11 15 -7z m-50 -44 c0 -5 -2 -10 -4
-10 -3 0 -8 5 -11 10 -3 6 -1 10 4 10 6 0 11 -4 11 -10z m-10 -34 c0 -3 -4 -8
-10 -11 -5 -3 -10 -1 -10 4 0 6 5 11 10 11 6 0 10 -2 10 -4z m-250 -60 c0 -30
-4 -57 -8 -60 -20 -12 -112 -18 -112 -7 0 6 13 11 29 11 34 0 48 15 32 34 -23
27 6 68 52 75 4 0 7 -23 7 -53z m295 22 c18 -8 25 -18 23 -37 -1 -15 1 -31 5
-37 9 -16 -25 -14 -44 2 -14 12 -26 84 -14 84 2 0 16 -5 30 -12z m-471 -9 l25
-12 -24 -18 c-31 -25 -35 -24 -35 11 0 34 0 34 34 19z m987 -110 c-6 -30 -13
-90 -17 -134 -3 -44 -8 -83 -10 -87 -3 -4 0 -17 7 -29 6 -13 7 -19 1 -15 -15
9 -21 -18 -26 -129 -14 -277 -20 -342 -32 -367 -8 -15 -14 -40 -14 -56 0 -16
-6 -48 -14 -73 -8 -24 -17 -62 -20 -84 -8 -61 -51 -247 -63 -270 -6 -11 -9
-34 -6 -50 4 -27 0 -32 -34 -49 -21 -10 -54 -20 -73 -22 -19 -2 -48 -6 -65 -9
-34 -6 -144 10 -157 23 -5 5 -11 26 -13 47 -5 37 -15 62 -15 37 0 -7 -4 -12
-10 -12 -15 0 -12 31 5 44 8 6 19 36 25 65 6 30 28 91 50 135 45 94 69 158 76
204 2 19 11 47 19 62 14 27 12 60 -4 60 -12 0 -28 -15 -35 -35 -9 -22 -14 -7
-56 180 -12 55 -26 114 -30 130 -5 17 -11 62 -14 100 -5 57 -3 80 15 125 12
30 27 79 35 108 18 67 41 112 57 112 7 0 30 9 52 20 22 11 43 16 49 11 6 -4
38 -9 71 -9 34 0 65 -2 70 -3 13 -3 67 12 80 22 6 4 22 6 37 5 15 -2 32 1 40
5 23 15 30 -8 19 -62z m-504 -13 c4 -3 0 -18 -7 -33 -7 -16 -23 -64 -35 -108
-13 -44 -33 -111 -45 -150 -12 -38 -23 -77 -24 -85 -1 -8 -5 -22 -8 -30 -19
-49 -52 -265 -58 -380 -8 -138 -23 -194 -62 -233 -9 -9 -14 -25 -12 -34 3 -10
-9 -69 -25 -130 -16 -62 -26 -113 -23 -113 4 0 0 -4 -8 -9 -43 -28 -220 42
-287 113 -54 56 -58 98 -14 120 l28 15 8 143 c4 79 9 203 10 277 l3 134 32 14
c31 12 32 15 26 55 -3 24 -9 132 -12 242 l-7 199 59 -9 c33 -4 75 -7 94 -7 19
1 85 2 145 3 61 1 117 6 125 11 15 10 87 6 97 -5z m1203 -256 c0 -5 -4 -10 -9
-10 -5 0 -16 -7 -25 -15 -8 -8 -17 -11 -20 -6 -8 12 21 41 40 41 8 0 14 -4 14
-10z m148 -32 c-3 -35 -28 -52 -28 -20 0 28 10 52 22 52 5 0 8 -14 6 -32z
m-190 -56 l38 6 2 -43 c1 -38 -1 -42 -18 -38 -13 3 -22 -1 -26 -11 -8 -21 -3
-27 25 -29 29 -2 28 -35 -1 -33 -35 2 -31 -38 3 -42 25 -3 26 -6 31 -80 3 -42
4 -140 2 -217 -9 -429 -6 -649 11 -790 4 -33 9 -73 11 -90 2 -16 6 -100 9
-185 3 -85 10 -173 16 -195 6 -23 9 -59 7 -80 -2 -34 -6 -39 -23 -36 -11 2
-41 4 -67 5 -25 1 -49 4 -53 8 -4 4 -13 4 -21 1 -16 -6 -19 13 -4 22 6 3 10
13 10 22 0 9 10 27 21 39 27 29 19 60 -11 44 -18 -9 -20 -8 -20 15 0 21 4 25
18 21 9 -3 24 -1 32 4 19 12 1 46 -24 44 -11 -1 -16 6 -16 22 0 26 10 30 26
14 12 -12 44 -3 44 13 0 17 -41 56 -54 51 -7 -3 -12 6 -14 21 -2 25 11 34 23
15 9 -14 55 -12 55 3 0 20 -14 34 -44 44 -17 5 -32 15 -34 22 -3 10 0 10 16 2
26 -14 52 -4 52 20 0 12 -10 21 -32 27 -41 10 -44 37 -5 38 35 1 40 7 32 33
-4 15 -15 21 -36 21 -20 0 -29 5 -29 16 0 10 6 14 14 11 8 -3 22 1 33 9 17 13
17 15 -6 34 -13 11 -31 20 -40 20 -9 1 -1 7 17 15 17 8 32 16 32 19 0 20 -16
36 -36 36 -21 0 -24 5 -25 38 -1 20 -2 64 -4 97 -11 257 -6 687 8 701 1 2 11
-4 21 -12 19 -13 19 -14 1 -34 -16 -18 -17 -23 -5 -30 8 -6 20 -10 27 -10 12
0 43 54 43 76 0 19 -36 36 -68 32 l-27 -3 -3 149 c-2 133 -1 148 13 136 9 -8
30 -11 53 -8z m-1204 -111 c3 -27 20 -102 37 -167 17 -66 33 -130 36 -144 2
-14 9 -34 14 -45 15 -30 -26 -132 -67 -170 -18 -16 -64 -47 -103 -68 -67 -36
-70 -37 -67 -15 1 13 10 37 19 55 29 55 47 144 47 233 1 47 7 114 16 150 8 36
22 102 31 147 9 45 20 80 24 78 3 -3 9 -27 13 -54z m1391 49 c3 -5 -1 -10 -10
-10 -9 0 -13 5 -10 10 3 6 8 10 10 10 2 0 7 -4 10 -10z m-2063 -90 c18 -11 42
-20 52 -20 18 0 19 -8 13 -192 -4 -106 -7 -220 -7 -253 0 -59 -1 -61 -37 -80
-20 -11 -45 -33 -55 -50 l-18 -30 -2 25 c0 14 -1 32 0 40 1 8 2 79 2 158 1
128 4 145 21 160 15 13 19 30 19 83 0 45 -4 69 -12 72 -10 3 -10 7 -1 17 9 10
9 21 -2 48 -22 51 -21 52 27 22z m1548 -85 c30 -29 59 -67 66 -84 12 -29 55
-49 109 -52 16 0 13 -4 -10 -14 -54 -24 -77 -57 -73 -106 4 -54 24 -61 71 -25
38 29 52 33 44 11 -4 -8 -2 -54 3 -102 5 -48 12 -171 15 -273 5 -170 12 -359
19 -470 l2 -45 -156 -1 c-165 -1 -196 -8 -202 -46 -2 -18 -12 -24 -43 -30 -59
-10 -177 -19 -290 -22 l-100 -2 3 48 c2 26 8 48 13 48 5 0 9 -4 9 -10 0 -5 9
-10 20 -10 19 0 47 36 42 54 -2 5 7 28 19 52 20 36 21 46 11 69 -15 32 -9 45
18 38 12 -3 21 0 21 8 5 43 2 56 -15 76 -15 18 -16 23 -5 27 54 16 52 14 45
66 -6 46 -34 120 -75 200 -12 25 -15 42 -9 60 14 42 68 276 68 293 0 10 7 17
14 17 17 0 276 254 276 270 0 26 42 5 90 -45z m125 -46 c19 -35 10 -54 -11
-25 -13 19 -20 56 -9 56 2 0 12 -14 20 -31z m75 -159 c0 -11 -13 -25 -32 -34
-39 -20 -38 -20 -38 3 0 22 47 64 61 55 5 -3 9 -14 9 -24z m-1180 -80 c0 -5
-2 -10 -4 -10 -3 0 -8 5 -11 10 -3 6 -1 10 4 10 6 0 11 -4 11 -10z m87 -217
c-3 -10 -8 -29 -11 -43 -6 -27 -96 -133 -96 -113 0 7 -11 23 -25 37 -15 15
-21 27 -14 31 7 5 7 11 -1 20 -13 15 -7 20 36 29 17 4 46 18 65 32 39 28 52
30 46 7z m-529 -187 c31 -28 141 -73 206 -85 78 -14 116 -6 146 34 14 18 27
31 29 29 12 -12 10 -78 -2 -93 -8 -9 -20 -50 -27 -91 -15 -95 -27 -135 -46
-151 -22 -18 -35 6 -28 49 4 18 1 38 -5 46 -8 9 -8 22 0 44 8 24 7 37 -6 61
-13 27 -19 30 -35 21 -24 -13 -39 -40 -37 -65 1 -11 -5 -21 -13 -21 -8 -1 -20
-2 -27 -3 -21 -2 -25 -41 -7 -86 16 -43 12 -75 -5 -46 -6 9 -18 11 -33 8 -21
-6 -27 -1 -42 29 -16 35 -16 38 3 75 11 21 18 46 14 55 -5 15 -13 15 -58 -1
-17 -6 -18 -5 -5 7 20 16 60 82 60 96 0 7 -11 19 -24 27 -22 14 -28 15 -60 1
-32 -13 -36 -18 -30 -41 4 -15 2 -25 -5 -25 -6 0 -11 9 -11 20 0 28 -27 36
-51 15 -22 -21 -18 -48 14 -82 16 -18 18 -27 10 -45 -5 -13 -9 -42 -8 -65 1
-41 0 -42 -18 -25 -14 13 -17 25 -13 53 4 27 1 41 -13 56 -14 14 -21 43 -26
102 l-7 81 32 30 c33 30 35 45 15 95 -5 11 14 -5 41 -35 27 -30 59 -63 72 -74z
m-158 56 c-7 -13 -9 -8 -9 23 0 35 1 37 10 17 6 -15 5 -30 -1 -40z m-563 -49
c-9 -8 -127 -11 -127 -3 0 5 4 10 10 12 14 5 122 -3 117 -9z m43 7 c0 -5 -7
-10 -16 -10 -8 0 -12 5 -9 10 3 6 10 10 16 10 5 0 9 -4 9 -10z m70 -2 c0 -4
-13 -8 -30 -8 -16 0 -30 4 -30 8 0 5 14 9 30 9 17 0 30 -4 30 -9z m143 -1 c-4
-7 2 -5 12 3 16 13 18 13 13 0 -5 -17 -58 -27 -58 -12 0 6 -14 7 -35 2 -22 -5
-35 -4 -35 2 0 6 -6 5 -15 -2 -8 -7 -15 -8 -15 -3 0 16 6 18 75 20 49 2 64 -1
58 -10z m925 -61 c12 -19 40 -45 64 -58 39 -21 55 -23 173 -21 144 1 172 9
248 67 l45 35 17 -42 17 -41 -34 -27 -33 -27 17 -35 c16 -34 16 -35 -10 -54
-26 -19 -26 -22 -14 -57 12 -32 12 -40 -2 -62 -12 -18 -14 -29 -6 -43 7 -14 6
-20 -5 -25 -17 -6 -18 -1 -19 69 -1 37 -5 49 -15 47 -36 -8 -40 5 -24 62 13
45 13 59 3 71 -20 24 -62 18 -100 -14 -33 -27 -34 -29 -20 -57 8 -16 16 -32
18 -36 2 -5 -4 -8 -14 -8 -10 0 -26 -7 -35 -16 -18 -16 -18 -18 1 -42 25 -32
25 -41 -4 -77 -23 -29 -23 -29 -30 -7 -4 13 -16 22 -27 22 -29 0 -34 26 -14
70 11 24 15 49 11 65 -6 22 -9 24 -26 15 -31 -17 -44 -2 -25 27 9 13 15 36 13
51 -2 22 -9 28 -36 30 -19 2 -44 -4 -59 -13 -23 -15 -25 -21 -19 -59 13 -79
13 -101 -2 -136 l-15 -35 -9 28 c-5 15 -14 25 -19 21 -12 -7 -11 -1 1 31 8 20
6 35 -7 62 -13 28 -14 39 -5 54 15 23 15 56 2 64 -5 3 -10 21 -10 40 0 19 -4
37 -10 40 -9 6 -15 55 -6 55 2 0 13 -16 24 -34z m-928 -16 c0 -5 -7 -10 -16
-10 -8 0 -12 5 -9 10 3 6 10 10 16 10 5 0 9 -4 9 -10z m142 1 c-18 -11 -87
-12 -114 -2 -17 7 -4 10 52 10 43 0 69 -3 62 -8z m358 -40 c0 -6 -4 -13 -10
-16 -5 -3 -10 1 -10 9 0 9 5 16 10 16 6 0 10 -4 10 -9z m-385 -21 c3 -5 -1
-10 -10 -10 -9 0 -13 5 -10 10 3 6 8 10 10 10 2 0 7 -4 10 -10z m-38 -6 c-3
-3 -12 -4 -19 -1 -8 3 -5 6 6 6 11 1 17 -2 13 -5z m384 -46 c-10 -27 1 -48 26
-48 15 0 18 -16 4 -24 -4 -3 -11 -20 -15 -37 -4 -23 -1 -38 14 -56 11 -14 20
-34 20 -45 0 -24 56 -82 70 -73 5 3 10 15 10 27 0 15 4 18 17 14 24 -10 63 31
63 66 0 16 -5 39 -11 50 -9 17 -8 24 6 34 28 20 36 7 29 -45 -6 -46 -4 -51 31
-90 38 -41 38 -42 32 -109 -8 -84 15 -251 42 -316 27 -62 26 -80 -3 -94 -14
-6 -30 -20 -36 -31 -14 -28 18 -45 71 -36 32 6 39 4 39 -9 0 -9 12 -21 27 -27
67 -25 102 -46 158 -96 33 -29 65 -53 71 -53 16 0 134 -78 134 -89 0 -9 -15
-13 -100 -32 -57 -12 -44 -12 -190 6 -138 17 -227 42 -283 80 -27 19 -46 24
-72 22 -25 -3 -43 2 -60 15 -27 21 -35 61 -11 52 8 -3 17 -1 20 4 9 15 -4 42
-21 42 -12 0 -14 7 -9 28 4 15 7 34 8 42 0 33 -21 139 -32 160 -10 19 -8 27
10 53 18 23 20 34 12 47 -8 13 -6 19 9 28 28 18 24 30 -25 82 -52 56 -68 104
-70 208 0 39 -4 72 -7 72 -12 0 -1 168 13 189 16 26 21 20 9 -11z m599 -37 c0
-12 -29 -35 -36 -28 -11 10 5 37 21 37 8 0 15 -4 15 -9z m246 -44 l-12 -37
-10 28 c-8 23 -6 29 11 38 11 6 21 10 22 9 1 0 -4 -17 -11 -38z m-415 -49 c1
-18 2 -37 4 -43 1 -5 3 -17 3 -26 1 -9 20 -34 42 -55 38 -37 40 -42 40 -101 0
-62 -1 -63 -27 -64 -86 -4 -133 -15 -133 -33 0 -26 25 -34 93 -30 l67 3 0 -32
0 -32 -66 -1 c-51 0 -69 -4 -79 -18 -12 -15 -14 -12 -20 25 -16 93 -17 114
-11 284 0 22 9 51 19 65 9 13 17 30 17 37 0 14 30 51 43 52 4 1 8 -14 8 -31z
m199 -29 c0 -4 -4 -11 -10 -14 -28 -17 2 -115 34 -115 15 0 26 -21 26 -48 0
-19 29 -52 46 -52 13 0 22 19 30 67 3 16 15 38 26 50 21 22 21 53 3 97 -6 14
-5 17 4 12 7 -5 21 0 32 10 17 15 19 15 19 1 0 -9 9 -22 20 -30 25 -17 24 -65
-1 -87 -13 -11 -20 -41 -27 -120 -5 -57 -8 -123 -5 -146 4 -36 1 -43 -16 -49
-24 -7 -26 -14 -8 -46 25 -49 25 -49 61 -34 35 15 28 17 114 -30 15 -8 32 -15
38 -15 7 0 25 -7 40 -15 16 -8 37 -12 47 -9 11 4 28 -2 40 -13 29 -26 95 -63
111 -63 8 0 19 -7 26 -15 7 -9 21 -13 31 -10 11 4 19 2 19 -3 0 -9 -32 -19
-90 -28 -33 -6 -254 -7 -305 -2 -22 2 -56 9 -75 15 -66 21 -157 25 -189 8 -19
-9 -32 -11 -36 -5 -3 6 -14 10 -24 10 -38 0 -80 75 -61 110 13 25 22 342 12
422 -7 56 -5 73 10 105 11 21 17 46 15 55 -4 14 -1 15 19 6 13 -6 24 -15 24
-19z m2035 -119 c-3 -5 -11 -10 -16 -10 -6 0 -7 5 -4 10 3 6 11 10 16 10 6 0
7 -4 4 -10z m-990 -132 c-1 -51 -3 -113 -4 -138 l-1 -45 -92 1 c-175 4 -278
18 -278 38 0 24 -84 34 -257 29 -164 -5 -173 -4 -173 13 0 50 9 60 51 56 22
-2 45 1 52 6 7 6 39 10 72 10 68 -1 242 19 297 33 25 6 41 18 50 37 l13 27
122 0 c83 0 126 4 135 13 6 6 13 12 14 12 1 0 0 -42 -1 -92z m-2840 72 c-3 -5
-14 -10 -23 -9 -14 0 -13 2 3 9 27 11 27 11 20 0z m3685 -100 c0 -5 -4 -10
-10 -10 -5 0 -10 5 -10 10 0 6 5 10 10 10 6 0 10 -4 10 -10z m117 4 c-3 -3
-12 -4 -19 -1 -8 3 -5 6 6 6 11 1 17 -2 13 -5z m56 -1 c-7 -2 -21 -2 -30 0
-10 3 -4 5 12 5 17 0 24 -2 18 -5z m-3879 -68 c139 -6 194 -14 100 -16 -95 -1
-168 -10 -197 -25 -51 -27 -217 -21 -217 7 0 12 143 49 165 43 6 -1 73 -5 149
-9z m253 -11 c-3 -3 -12 -4 -19 -1 -8 3 -5 6 6 6 11 1 17 -2 13 -5z m3610 -20
c-3 -3 -12 -4 -19 -1 -8 3 -5 6 6 6 11 1 17 -2 13 -5z m-148 -8 c-10 -10 -86
-14 -100 -5 -9 6 6 9 45 9 33 0 57 -2 55 -4z m-1302 -44 c25 -31 135 -48 341
-53 102 -3 99 -1 83 -73 -12 -48 -8 -58 29 -80 24 -13 48 -17 112 -15 74 3 85
6 106 29 18 20 22 34 19 73 -2 26 -1 48 2 48 31 7 74 2 116 -12 64 -22 184
-33 358 -33 l138 -1 8 -35 c6 -29 8 -138 2 -188 -1 -11 -13 -12 -53 -7 -29 4
-69 9 -88 10 -19 1 -64 6 -100 10 -36 5 -123 9 -195 9 -80 1 -138 6 -151 13
-12 7 -57 15 -100 19 -115 9 -125 10 -169 22 -95 26 -232 19 -222 -11 3 -11
56 -15 82 -7 17 5 105 -12 105 -20 0 -15 35 -21 133 -26 54 -2 108 -10 120
-16 20 -11 16 -13 -37 -19 -33 -4 -98 -5 -145 -3 -214 10 -322 6 -341 -11 -20
-18 -18 -18 -211 -1 -123 11 -235 45 -154 46 22 1 51 1 65 2 14 0 48 -2 75 -5
70 -7 195 27 195 53 0 6 6 9 12 8 17 -4 22 40 8 58 -7 7 -20 14 -30 14 -17 0
-140 56 -150 69 -13 16 -53 31 -80 31 -17 0 -38 4 -48 9 -96 49 -146 71 -163
71 -26 0 -20 24 7 27 10 1 55 5 99 10 143 14 201 10 222 -15z m1605 2 c36 -22
-67 -30 -197 -15 -47 6 -54 9 -35 14 55 15 208 16 232 1z m-2407 -16 c4 4 25
8 48 9 l42 1 -3 -43 -4 -43 -51 15 c-72 21 -82 27 -83 51 -1 17 2 19 21 12 13
-5 26 -6 30 -2z m2086 -38 c5 0 9 -7 9 -16 0 -13 -11 -15 -60 -11 -34 2 -63 0
-66 -4 -7 -12 -44 -6 -44 8 0 7 20 14 48 18 26 3 54 8 62 9 8 2 21 2 28 0 8
-2 18 -4 23 -4z m-2028 -90 c4 0 7 -12 7 -27 0 -14 11 -41 26 -60 14 -18 21
-33 17 -33 -15 0 -73 40 -73 50 0 5 -4 10 -10 10 -17 0 -50 39 -50 59 0 17 4
18 38 10 20 -5 40 -9 45 -9z m253 -157 c82 -3 126 -16 118 -36 -3 -8 2 -20 11
-27 8 -7 15 -10 15 -7 0 3 15 1 33 -4 132 -41 201 -50 393 -53 68 -1 106 3
116 11 11 10 43 11 119 7 57 -3 163 -6 234 -5 162 0 447 -1 625 -2 l135 -2 6
-45 c3 -25 5 -46 3 -48 -6 -8 -40 -9 -50 -1 -10 8 -496 5 -619 -4 -33 -2 -63
2 -90 14 -53 24 -155 33 -355 31 -169 -1 -349 20 -430 52 -95 37 -262 85 -315
91 -73 8 -82 13 -58 30 10 7 22 11 28 7 5 -3 41 -7 81 -9z m1429 -53 c-3 -5
-11 -10 -16 -10 -6 0 -7 5 -4 10 3 6 11 10 16 10 6 0 7 -4 4 -10z m35 6 c0 -3
-4 -8 -10 -11 -5 -3 -10 -1 -10 4 0 6 5 11 10 11 6 0 10 -2 10 -4z m-1400 -60
c30 -10 82 -27 115 -38 33 -11 76 -24 95 -29 47 -11 250 -41 275 -40 11 0 92
2 180 4 88 3 166 2 173 0 6 -3 12 -14 12 -24 0 -10 5 -19 12 -19 6 0 8 -3 4
-7 -4 -5 -110 -9 -234 -11 -125 -1 -315 -4 -423 -5 -107 -1 -206 0 -220 4
l-24 6 25 7 c18 5 29 18 37 43 10 32 9 38 -16 63 -14 15 -42 37 -61 50 -19 12
-28 20 -20 18 8 -3 40 -13 70 -22z m1650 -136 c24 -2 24 -2 -5 -11 -35 -12
-412 -18 -500 -8 -72 7 -60 8 210 15 110 3 201 7 203 9 2 1 17 1 35 0 18 -2
43 -4 57 -5z m-755 -20 c3 -5 1 -10 -4 -10 -6 0 -11 5 -11 10 0 6 2 10 4 10 3
0 8 -4 11 -10z m112 4 c-3 -3 -12 -4 -19 -1 -8 3 -5 6 6 6 11 1 17 -2 13 -5z
M3640 6694 c-9 -22 -8 -31 5 -43 20 -20 38 -3 33 35 -4 37 -25 42 -38 8z
M3722 5963 c4 -21 33 -25 33 -3 0 8 -8 16 -18 18 -14 3 -18 -1 -15 -15z M1648
5078 c-12 -23 -32 -98 -44 -170 -13 -76 55 -115 123 -71 47 31 76 153 37 153
-19 0 -43 -28 -44 -50 0 -8 -7 -24 -15 -34 -11 -15 -17 -16 -29 -7 -14 12 -11
41 14 108 24 66 -11 127 -42 71z M3194 5210 c-32 -12 -40 -31 -19 -46 23 -17
55 -1 55 26 0 24 -10 30 -36 20z M3694 2539 c-3 -6 -2 -15 3 -20 13 -13 43 -1
43 17 0 16 -36 19 -46 3z M3725 2483 c-4 -10 -9 -44 -10 -76 -3 -46 0 -59 14
-67 30 -15 41 8 41 87 0 65 -2 73 -19 73 -10 0 -22 -8 -26 -17z M3708 2193
c-16 -19 -16 -68 -4 -232 6 -77 18 -104 42 -94 11 4 13 15 9 47 -4 23 -8 97
-9 166 -2 126 -9 146 -38 113z M3802 7788 c3 -24 25 -33 46 -20 20 13 3 42
-25 42 -20 0 -24 -4 -21 -22z M1846 7777 c3 -10 9 -15 12 -12 3 3 0 11 -7 18
-10 9 -11 8 -5 -6z M2392 5852 c-18 -6 -15 -30 6 -41 9 -5 41 -12 70 -15 67
-7 185 -42 237 -70 22 -11 69 -42 105 -67 36 -26 83 -52 105 -58 113 -34 219
-112 213 -156 -3 -23 36 -60 53 -49 7 4 9 22 6 47 -9 67 -79 124 -221 181 -47
19 -109 52 -138 73 -65 48 -233 121 -308 135 -30 5 -69 13 -85 17 -17 4 -36 6
-43 3z M3600 540 c-8 -6 -33 -7 -56 -4 -30 4 -44 2 -54 -11 -16 -19 -5 -32 30
-37 28 -3 26 8 29 -180 2 -75 -1 -102 -14 -121 -19 -29 -14 -34 40 -38 37 -4
40 -2 37 21 -1 14 -2 43 -1 65 1 22 1 47 1 55 1 8 -2 45 -5 83 -3 37 -3 67 1
67 4 0 18 -21 30 -47 30 -63 66 -127 73 -133 3 -3 12 -19 19 -35 18 -42 55
-68 86 -61 21 6 24 12 25 54 1 52 6 111 13 157 3 17 5 49 5 73 1 29 5 42 15
42 22 0 29 33 10 47 -17 12 -52 11 -107 -2 -31 -8 -36 -32 -9 -43 15 -6 18
-19 18 -90 0 -87 -9 -98 -36 -46 -26 51 -98 159 -117 176 -13 12 -23 14 -33 8z
M4025 541 c-6 -5 -30 -11 -55 -13 -33 -2 -46 -8 -48 -20 -2 -11 3 -18 12 -18
19 0 20 -26 3 -61 -8 -14 -14 -56 -14 -95 -1 -82 -9 -128 -23 -132 -18 -6 -11
-32 9 -32 11 0 23 -5 26 -10 4 -6 12 -7 18 -3 7 4 42 6 78 4 39 -1 69 2 73 8
4 5 13 8 21 5 8 -3 20 -2 27 2 7 5 15 9 18 10 39 7 60 19 56 30 -3 7 0 11 7 8
22 -8 49 54 50 115 2 64 -24 136 -58 161 -44 33 -180 61 -200 41z m120 -59
c58 -36 74 -173 26 -222 -38 -39 -92 -64 -103 -48 -4 7 -8 9 -8 3 0 -5 -5 -3
-10 5 -5 8 -8 44 -5 80 2 36 5 90 6 120 1 30 6 61 12 68 14 17 47 15 82 -6z
M4372 538 c-36 -10 -72 -58 -72 -95 0 -62 53 -100 122 -89 57 10 89 -34 63
-85 -12 -22 -23 -29 -45 -29 -16 0 -32 5 -35 10 -4 6 -23 17 -43 26 -30 12
-41 13 -59 3 -13 -7 -23 -17 -23 -22 0 -5 -9 -22 -21 -39 -12 -16 -20 -30 -18
-32 24 -16 60 -21 98 -14 25 4 53 6 63 2 33 -10 108 -13 108 -3 0 5 11 9 25 9
14 0 25 4 25 9 0 5 9 11 19 14 28 7 45 75 29 113 -29 65 -48 83 -96 90 -50 8
-107 28 -116 42 -8 14 17 40 39 42 44 5 65 -1 65 -15 0 -23 46 -38 70 -22 23
14 28 75 8 81 -31 10 -176 13 -206 4z M461 523 c-31 -13 -32 -16 -19 -30 14
-13 14 -20 -1 -62 -10 -25 -21 -62 -24 -81 -15 -78 -42 -152 -59 -161 -10 -5
-18 -16 -18 -23 0 -18 108 -27 132 -12 27 17 21 36 -12 43 -35 7 -34 1 -14 69
l15 54 54 0 c29 0 60 2 67 5 14 6 18 1 56 -85 l20 -45 -21 -17 c-26 -20 -18
-24 60 -31 38 -3 56 0 65 10 8 10 8 17 1 21 -13 8 -46 81 -63 137 -7 22 -17
46 -23 53 -5 6 -6 12 -3 12 4 0 0 10 -8 22 -9 12 -16 30 -16 39 0 9 -6 22 -14
29 -8 6 -16 21 -18 33 -2 17 -10 22 -38 24 -19 1 -46 3 -60 6 -14 2 -40 -2
-59 -10z m91 -97 l26 -54 -50 -4 c-48 -3 -49 -2 -44 22 4 14 8 34 10 46 9 59
25 56 58 -10z M1224 530 c-3 -2 -20 -3 -39 -2 -42 3 -55 -15 -27 -37 20 -15
21 -24 18 -131 -2 -63 -7 -131 -10 -150 -11 -58 1 -65 85 -51 50 8 75 9 83 1
32 -32 82 7 91 72 l7 47 -28 -8 c-16 -4 -35 -19 -41 -33 -11 -22 -17 -25 -45
-19 -33 7 -33 8 -34 65 0 31 3 59 7 62 4 2 17 -5 28 -17 32 -35 52 -19 50 41
-2 44 -5 50 -24 50 -13 0 -30 -10 -39 -22 -16 -22 -16 -22 -14 22 2 62 6 70
37 70 17 0 30 -7 36 -22 6 -12 15 -23 21 -25 13 -4 33 33 36 67 l3 25 -98 0
c-54 0 -100 -2 -103 -5z M2971 529 c-19 -8 -21 -12 -11 -24 7 -8 23 -15 36
-15 13 0 24 -2 24 -4 0 -7 -72 -140 -81 -150 -5 -6 -9 -17 -9 -26 0 -9 -6 -24
-13 -34 -12 -16 -16 -12 -46 36 -19 29 -44 68 -57 87 -17 26 -21 39 -13 53 5
10 16 18 23 18 18 0 49 37 42 49 -4 6 -51 9 -114 8 -91 -2 -107 -4 -110 -19
-2 -9 5 -19 16 -22 11 -4 27 -24 37 -45 17 -38 16 -40 -2 -58 -11 -11 -31 -43
-44 -71 -13 -28 -27 -51 -30 -52 -8 0 -55 132 -65 180 -3 19 -12 47 -20 61
-12 25 -17 26 -83 25 -38 -1 -73 -5 -77 -9 -14 -13 11 -42 41 -47 25 -4 31
-14 52 -75 13 -38 26 -79 29 -90 18 -68 67 -135 98 -135 26 0 39 13 76 75 45
75 65 105 71 105 4 0 12 -13 19 -29 6 -16 21 -38 31 -47 11 -10 29 -35 41 -55
11 -20 32 -42 46 -49 23 -10 29 -8 53 17 15 15 48 70 74 121 25 51 62 117 81
148 27 41 33 59 25 68 -13 15 -104 18 -140 5z M3178 533 c-22 -5 -23 -22 -3
-29 12 -5 14 -15 9 -43 -4 -20 -11 -42 -17 -48 -5 -7 -7 -13 -4 -13 3 0 -3
-24 -13 -54 -11 -30 -22 -73 -26 -96 -5 -30 -13 -45 -30 -52 -60 -28 -4 -56
77 -39 3 0 9 27 12 58 3 32 10 71 16 86 10 26 15 28 57 25 47 -3 51 -6 72 -58
5 -14 15 -38 21 -54 9 -22 9 -32 -1 -43 -18 -22 4 -31 65 -26 89 7 99 11 87
33 -6 11 -21 20 -34 20 -19 0 -28 10 -45 52 -11 29 -22 65 -25 79 -2 15 -9 35
-15 45 -5 11 -17 43 -26 72 -10 30 -26 58 -38 66 -23 14 -110 26 -139 19z
m100 -120 c17 -31 16 -33 -23 -33 -31 0 -34 2 -27 18 5 9 13 35 17 57 l8 40 7
-30 c3 -16 12 -40 18 -52z M78 523 c-21 -5 -24 -33 -4 -33 8 0 17 -9 21 -19 7
-23 -1 -236 -10 -274 -6 -22 -3 -27 17 -32 48 -12 139 -11 149 2 13 14 4 33
-16 33 -14 0 -31 72 -21 88 3 6 22 13 43 17 103 19 138 56 134 143 -2 69 -9
73 -125 73 -56 0 -117 1 -136 3 -19 2 -43 1 -52 -1z m222 -84 c17 -39 0 -59
-51 -59 -39 0 -39 0 -39 38 0 47 3 50 45 50 27 0 36 -5 45 -29z M884 517 c-92
-36 -153 -156 -124 -241 12 -35 47 -79 77 -94 18 -10 116 -27 138 -25 6 1 32
4 58 8 l48 6 -3 67 -3 67 -75 -3 c-41 -2 -76 -5 -78 -7 -3 -2 -2 -11 1 -20 4
-9 19 -15 42 -15 40 0 47 -17 10 -26 -32 -8 -69 1 -91 23 -26 26 -14 161 17
186 24 20 86 18 99 -2 5 -9 10 -10 14 -2 4 6 16 11 27 11 29 0 27 55 -3 64
-45 14 -124 15 -154 3z M1879 421 c-16 -16 -29 -35 -29 -43 0 -7 18 -36 39
-64 51 -67 57 -86 52 -159 -1 -9 -12 -27 -26 -40 l-24 -25 33 0 c51 0 88 45
94 115 3 43 8 55 21 55 38 0 50 35 29 83 -11 22 -19 27 -43 25 -25 -3 -30 -7
-28 -28 1 -24 0 -24 -39 13 -42 40 -47 74 -8 62 25 -8 41 1 33 20 -10 27 -71
18 -104 -14z M1741 286 c-28 -30 -22 -72 14 -106 64 -60 160 35 109 108 -22
32 -92 31 -123 -2z m68 -38 c5 -13 7 -27 4 -31 -8 -13 -33 14 -33 34 0 26 19
24 29 -3z M4693 233 c-37 -7 -49 -30 -28 -53 28 -31 125 -23 125 10 0 32 -48
53 -97 43z"/>
</g>
</svg>
