<?xml version="1.0" standalone="no"?>
<!DOCTYPE svg PUBLIC "-//W3C//DTD SVG 20010904//EN"
 "http://www.w3.org/TR/2001/REC-SVG-20010904/DTD/svg10.dtd">
<svg version="1.0" xmlns="http://www.w3.org/2000/svg"
 width="500.000000pt" height="878.000000pt" viewBox="0 0 500.000000 878.000000"
 preserveAspectRatio="xMidYMid meet">
<metadata>
Created by potrace 1.16, written by Peter Selinger 2001-2019
</metadata>
<g transform="translate(0.000000,878.000000) scale(0.100000,-0.100000)"
fill="#000000" stroke="none">
<path d="M3355 8228 c-29 -16 -29 -16 -16 -31 8 -11 6 -28 -9 -72 -20 -58 -20
-58 0 -92 13 -22 15 -33 7 -33 -7 0 -27 -13 -45 -29 -36 -33 -43 -79 -16 -105
16 -16 25 -14 54 10 14 11 69 19 113 15 20 -1 24 -21 4 -21 -16 0 -77 -61 -77
-77 0 -14 25 -25 69 -30 24 -3 39 1 55 17 37 34 66 10 71 -60 1 -14 7 -74 14
-133 6 -59 9 -157 7 -217 -3 -61 -2 -112 4 -115 11 -7 10 -64 -2 -71 -15 -9
-8 -56 10 -70 28 -20 18 -174 -12 -174 -6 0 -25 -25 -41 -57 -17 -31 -34 -65
-40 -75 -5 -10 -15 -18 -22 -18 -7 0 -35 -20 -63 -45 -28 -25 -55 -45 -60 -45
-5 0 -32 -31 -60 -69 -28 -38 -54 -71 -58 -73 -4 -2 -15 -19 -24 -39 -14 -32
-20 -36 -45 -31 -15 2 -34 9 -40 15 -14 10 -37 -3 -61 -35 -10 -14 -22 -16
-50 -12 -20 3 -46 6 -57 7 -32 3 -63 31 -80 71 -10 23 -26 41 -43 47 -15 6
-45 19 -67 30 -24 11 -70 21 -118 23 -76 5 -79 6 -108 42 -16 21 -37 53 -46
71 -11 24 -25 35 -52 43 -51 14 -71 12 -41 -4 27 -15 70 -68 70 -86 0 -6 7
-25 16 -42 l16 -31 -49 7 c-41 5 -53 3 -66 -12 -15 -16 -15 -19 3 -29 22 -14
56 -15 205 -7 100 6 113 4 155 -16 25 -13 52 -26 60 -30 8 -4 16 -22 18 -41 4
-40 18 -59 43 -59 10 0 20 -8 24 -19 8 -26 110 -121 130 -121 8 0 18 8 21 18
3 9 10 25 15 34 5 10 9 28 9 41 0 13 10 32 22 43 21 19 21 19 15 -4 -8 -33 28
-50 45 -22 7 11 15 20 18 20 3 0 5 -73 6 -163 0 -179 12 -485 18 -495 6 -10
17 -134 18 -193 0 -50 17 -74 38 -53 10 10 14 161 6 209 -9 55 -24 292 -32
511 -4 130 0 148 39 192 19 20 54 32 44 15 -15 -25 -16 -159 -2 -221 11 -45
18 -143 22 -295 5 -205 4 -229 -11 -246 -15 -16 -16 -32 -10 -105 8 -98 22
-120 55 -90 15 13 19 26 15 46 -3 15 -1 30 5 33 6 4 9 81 8 205 -1 108 0 201
3 206 3 5 8 21 11 35 4 15 23 39 43 54 l37 28 -6 -24 c-29 -115 -31 -130 -17
-139 29 -19 34 -9 71 135 5 21 7 55 4 75 -4 26 -2 40 8 48 37 31 21 -213 -24
-365 -11 -37 -23 -79 -26 -93 -7 -36 -46 -124 -73 -166 -17 -27 -7 -54 21 -54
17 0 19 -3 10 -13 -16 -20 -72 -35 -195 -52 -59 -9 -124 -22 -144 -30 -31 -14
-37 -14 -52 0 -10 9 -46 18 -85 22 -47 4 -74 12 -87 25 -22 22 -102 36 -112
19 -4 -6 -1 -11 8 -11 9 0 16 -4 16 -10 0 -5 9 -10 20 -10 10 0 34 -13 52 -29
19 -16 47 -31 63 -33 22 -2 31 -9 33 -25 5 -31 -33 -32 -41 -2 -4 14 -11 20
-21 16 -8 -3 -18 -2 -21 3 -7 11 -58 14 -68 4 -3 -3 -1 -19 5 -35 9 -27 19
-34 42 -30 12 3 56 -20 56 -29 0 -3 -16 -4 -35 -2 -27 3 -45 15 -75 51 -33 38
-43 44 -57 35 -28 -18 -25 -29 19 -73 52 -52 95 -73 140 -66 37 6 26 -1 -46
-30 -28 -11 -37 -19 -32 -31 3 -8 6 -22 6 -30 0 -8 9 -14 19 -14 11 0 23 -5
26 -10 4 -6 13 -7 23 -1 15 8 17 3 17 -32 0 -23 4 -52 8 -64 5 -14 4 -23 -1
-23 -5 0 -15 21 -21 46 -12 45 -13 46 -45 41 -31 -5 -33 -4 -44 38 -7 28 -20
49 -34 56 -29 16 -105 16 -142 1 -24 -10 -26 -15 -15 -28 9 -11 24 -14 56 -10
23 2 43 2 43 -2 0 -12 -63 -43 -69 -35 -3 4 -16 14 -28 20 -19 11 -28 9 -58
-8 -40 -24 -44 -43 -14 -75 25 -26 18 -44 -17 -44 -31 0 -40 23 -27 71 14 52
-2 66 -51 45 -38 -16 -53 -48 -40 -88 6 -20 5 -21 -10 -9 -9 7 -16 28 -16 45
0 52 -12 62 -58 48 -76 -23 -80 -65 -9 -96 23 -10 37 -20 30 -23 -6 -2 -25 3
-42 11 -16 9 -36 16 -44 16 -8 0 -22 9 -32 20 -10 11 -33 25 -51 32 -35 12
-48 48 -18 48 31 0 72 39 78 75 4 19 11 35 16 35 6 0 9 -3 8 -7 -3 -16 15 -43
28 -43 7 0 18 -9 24 -20 12 -22 50 -27 50 -7 0 8 11 20 25 27 14 7 25 16 25
20 0 4 11 5 24 3 13 -3 37 2 54 11 43 22 55 21 40 -4 -11 -17 -10 -22 2 -30
24 -16 33 -12 63 25 23 29 26 39 17 50 -7 8 -22 15 -34 15 -15 1 -9 7 24 25
25 13 62 39 84 59 36 33 38 39 32 75 -12 75 -22 90 -66 97 -31 5 -44 13 -55
35 -8 15 -23 32 -32 38 -14 8 -15 12 -6 22 10 10 18 10 39 0 29 -13 237 -71
269 -75 11 -2 43 -13 70 -26 28 -13 55 -24 60 -25 6 0 21 -7 34 -14 30 -17 48
-2 30 26 -21 34 -101 67 -254 103 -238 56 -395 134 -395 196 0 30 -22 51 -62
59 -18 4 -55 15 -83 25 -134 48 -364 24 -421 -43 -38 -45 -40 -25 -5 48 l31
66 22 -21 c19 -18 32 -21 67 -17 25 3 50 12 57 21 7 10 31 19 60 21 70 7 268
15 344 14 90 0 306 -37 349 -58 20 -10 52 -21 72 -25 20 -3 50 -20 70 -39 88
-85 158 -165 164 -189 7 -28 60 -72 75 -63 6 3 10 20 10 37 0 21 -6 31 -20 35
-10 3 -22 13 -25 22 -3 9 -34 47 -70 84 -36 37 -65 73 -65 80 0 13 -95 65
-160 87 -19 7 -51 18 -71 25 -77 29 -278 46 -499 42 -184 -3 -217 -1 -226 12
-10 12 -17 13 -37 4 -21 -10 -25 -10 -21 1 3 7 17 19 31 25 21 9 27 9 37 -4
10 -13 24 -11 124 15 62 17 123 30 136 30 12 0 30 8 39 18 20 22 86 22 203 -2
44 -8 110 -17 148 -19 37 -3 71 -9 75 -14 38 -56 105 -133 117 -133 31 0 38
73 11 108 -13 17 -3 25 22 17 16 -5 19 -12 14 -35 -6 -33 5 -55 56 -109 19
-20 31 -44 31 -60 0 -28 36 -71 58 -71 7 0 12 -3 12 -7 1 -17 38 -55 48 -49
19 12 -8 87 -37 99 -36 15 -35 15 -21 32 12 15 11 59 -5 168 -5 34 2 95 20
182 l6 30 -73 18 c-41 9 -93 17 -115 17 -45 0 -65 14 -32 23 18 5 19 9 9 27
-9 17 -18 21 -39 17 -16 -3 -32 -2 -38 4 -11 11 -17 13 -203 45 -80 13 -164
29 -188 34 -71 16 -162 11 -257 -14 -149 -40 -211 -73 -326 -171 -29 -25 -61
-45 -71 -45 -17 0 -17 2 -2 24 8 14 31 34 51 46 19 11 37 29 40 39 6 22 86 91
106 91 17 0 26 19 20 38 -9 24 -33 11 -100 -50 -37 -35 -62 -55 -54 -45 12 15
11 17 -13 17 -17 0 -42 -14 -70 -40 -23 -22 -46 -37 -50 -33 -4 4 -4 1 -1 -8
3 -9 -5 -24 -21 -38 l-26 -22 7 23 c13 47 202 202 337 276 24 13 46 29 50 37
4 7 40 22 80 35 40 12 95 29 121 37 26 8 55 12 63 9 8 -3 33 6 54 19 32 20 40
31 40 54 0 30 -20 41 -87 49 -27 4 -11 22 18 22 17 0 28 4 24 10 -3 6 -15 10
-26 10 -10 0 -19 5 -19 11 0 5 4 7 10 4 17 -11 120 45 134 73 15 31 6 69 -19
79 -9 3 -14 12 -11 20 3 7 -3 22 -14 33 -11 11 -20 26 -20 33 0 7 -5 18 -12
25 -9 9 -8 16 5 30 9 10 17 26 17 36 0 21 -58 73 -119 106 -61 33 -66 61 -14
86 21 11 50 37 65 59 35 51 36 98 3 130 -24 24 -44 29 -126 27 -31 0 -37 3
-47 31 -6 18 -9 41 -6 53 6 24 -21 58 -39 47 -6 -4 -8 0 -4 10 38 101 -6 249
-91 305 -15 10 -57 20 -97 23 -71 7 -86 10 -118 24 -11 4 -23 3 -29 -3 -9 -9
4 -27 48 -68 l59 -57 -3 -77 c-2 -64 1 -81 18 -102 11 -15 20 -30 20 -35 0 -4
-33 -8 -73 -8 -57 0 -80 -5 -110 -23 -21 -12 -50 -22 -65 -22 -15 0 -36 -7
-46 -15 -11 -8 -27 -13 -37 -10 -28 9 -102 -31 -151 -81 -79 -83 -121 -191
-101 -264 5 -22 7 -40 3 -40 -4 0 -10 10 -13 21 -5 18 -11 20 -34 15 -32 -8
-98 -68 -120 -110 -44 -84 44 -168 179 -170 68 -1 68 -1 68 -29 0 -16 5 -37
11 -48 10 -20 11 -20 24 -2 8 10 15 24 15 31 0 6 9 21 19 31 18 18 19 18 25
-19 4 -27 16 -47 39 -65 29 -24 30 -26 7 -20 -14 4 -32 13 -40 20 -32 26 -39
25 -56 -6 -15 -30 -15 -33 0 -44 9 -7 16 -22 16 -33 0 -12 15 -33 34 -49 28
-22 33 -30 25 -46 -21 -39 51 -97 120 -97 25 0 26 -2 25 -52 -1 -69 -19 -97
-126 -192 l-88 -78 0 -71 c0 -50 -5 -75 -16 -88 -13 -14 -15 -43 -15 -159 1
-78 4 -147 7 -152 3 -5 -5 -26 -18 -46 -46 -69 -64 -335 -28 -402 8 -15 8 -43
0 -101 -9 -67 -13 -147 -10 -239 2 -60 -12 -294 -20 -335 -5 -27 -10 -63 -11
-80 0 -16 -5 -95 -11 -175 -15 -223 -15 -218 -22 -500 -4 -146 -9 -299 -12
-340 -4 -72 -9 -239 -18 -630 -3 -102 -10 -226 -16 -277 -17 -139 -4 -172 97
-238 40 -26 42 -29 45 -84 l3 -56 53 -29 54 -28 -7 -52 c-4 -28 -7 -56 -8 -63
-1 -17 -137 -33 -296 -34 -52 0 -105 -5 -119 -10 -14 -6 -32 -7 -40 -4 -23 8
-364 16 -672 14 -157 -1 -302 -1 -323 0 -35 1 -37 -1 -37 -32 l0 -33 148 -1
c81 0 181 -2 223 -3 41 -2 81 0 87 4 7 4 12 2 12 -5 0 -8 4 -8 15 1 11 9 15 9
15 1 0 -7 5 -9 12 -5 16 10 278 12 278 2 0 -10 12 -8 -100 -13 -52 -3 -138 -8
-190 -11 -52 -3 -131 -5 -175 -4 -82 2 -101 2 -170 1 -22 -1 -53 0 -70 1 -69
3 -85 -1 -85 -23 0 -20 2 -20 247 -16 645 11 776 10 765 -8 -3 -5 1 -4 10 3
13 10 57 13 180 11 137 -3 241 -12 203 -19 -130 -24 -618 -44 -699 -29 -151
28 -307 25 -398 -7 -47 -16 -151 -19 -178 -4 -10 5 -43 12 -74 14 -53 4 -56 3
-56 -20 0 -21 5 -24 35 -24 20 0 51 -6 69 -14 44 -18 161 -11 244 14 71 22
180 26 278 10 74 -12 377 -15 539 -6 66 4 117 5 114 2 -7 -7 -73 -27 -187 -56
-61 -16 -228 -38 -382 -51 -45 -3 -184 -3 -275 1 -49 3 -97 -3 -159 -19 -91
-23 -118 -28 -216 -39 -47 -6 -55 -10 -58 -30 -3 -22 -1 -23 40 -18 24 3 63 8
88 11 25 3 83 17 129 31 79 25 91 26 225 19 121 -6 243 1 376 19 14 2 63 7
110 12 106 10 97 9 145 18 22 5 59 14 83 22 23 8 73 18 110 24 88 13 322 21
322 11 0 -12 110 -52 122 -44 8 4 9 -7 5 -34 -6 -35 -3 -43 28 -76 19 -20 42
-37 50 -37 8 0 15 -3 15 -7 7 -107 14 -155 31 -204 11 -32 19 -72 17 -88 -1
-16 2 -35 8 -42 6 -8 14 -24 17 -37 8 -34 -16 -38 -87 -14 -33 11 -92 25 -131
31 -71 11 -206 26 -215 24 -3 0 -56 -4 -119 -7 -63 -4 -118 -9 -123 -12 -5 -3
-14 -2 -21 4 -13 9 -85 29 -127 35 -19 2 433 8 540 7 77 -1 160 -10 184 -19
21 -9 32 -9 42 0 16 13 19 45 5 53 -7 5 -332 9 -481 6 -56 -1 -129 -2 -455 -2
-99 0 -214 5 -256 11 -47 7 -85 8 -100 3 -28 -11 -49 -6 -49 12 0 11 167 47
221 46 27 0 90 37 96 56 7 22 -77 40 -142 32 -33 -4 -121 -4 -195 -1 -162 7
-182 6 -191 -8 -12 -20 -102 -34 -212 -33 l-107 2 0 -29 c0 -29 13 -35 60 -31
50 5 110 13 164 21 33 6 81 13 106 16 25 3 54 9 65 12 28 9 275 9 267 1 -4 -4
-43 -12 -87 -18 -176 -24 -184 -28 -150 -77 15 -21 14 -22 -27 -34 -89 -24
-118 -40 -118 -65 0 -17 8 -28 27 -37 16 -6 34 -17 41 -24 7 -7 28 -13 45 -14
18 0 41 -2 52 -4 31 -6 159 -6 404 0 240 5 264 -1 135 -34 -38 -10 -87 -27
-110 -39 -39 -20 -66 -24 -274 -38 -52 -3 -108 -8 -125 -9 -16 -2 -70 -6 -120
-9 -121 -8 -164 -14 -267 -38 -74 -18 -88 -24 -88 -41 0 -22 17 -21 120 8 57
17 166 24 435 29 182 3 310 24 366 61 44 29 100 45 157 45 34 0 48 6 67 26 28
30 31 53 12 73 -10 11 -6 12 21 6 21 -4 38 -2 47 5 11 9 22 10 42 1 16 -6 100
-13 188 -15 184 -6 274 -18 341 -47 27 -11 60 -19 74 -18 39 2 50 0 50 -10 0
-5 5 -22 12 -38 6 -15 12 -37 14 -48 13 -77 13 -98 3 -117 -7 -12 -12 -36 -13
-53 -1 -29 -3 -30 -41 -27 -22 2 -60 8 -85 14 -55 13 -57 13 -150 22 -41 4
-93 10 -115 12 -86 9 -162 11 -210 5 -43 -5 -49 -9 -47 -26 2 -10 12 -27 23
-36 28 -24 24 -29 -18 -23 -21 2 -87 11 -148 19 -60 7 -189 17 -285 20 -96 4
-178 9 -182 11 -3 2 -115 7 -249 10 -257 6 -293 1 -309 -40 -7 -16 -9 -17 -9
-4 -1 12 -8 16 -28 13 -16 -2 -31 -4 -35 -4 -5 -1 -8 -8 -8 -17 0 -9 -9 -18
-20 -21 -15 -4 -20 -14 -20 -39 0 -32 2 -34 28 -28 15 3 43 14 62 23 19 10 52
21 74 24 21 3 47 14 58 24 17 15 40 17 195 15 96 -1 252 -7 347 -12 322 -19
374 -24 446 -39 73 -16 185 -14 200 4 7 8 18 15 26 15 7 0 14 10 16 23 3 20 9
22 67 25 35 2 94 -2 130 -8 140 -25 198 -33 246 -33 28 -1 52 -4 55 -8 3 -4
23 -21 44 -38 31 -25 48 -31 86 -31 30 0 52 -6 60 -15 15 -18 116 -65 141 -65
11 0 19 -5 19 -10 0 -7 -155 -8 -467 -4 -742 9 -1105 13 -1288 13 -93 -1 -254
-1 -357 0 l-188 0 0 -33 0 -33 218 3 c119 2 249 3 287 4 121 1 609 -7 880 -15
143 -4 420 -7 615 -7 195 0 445 -1 555 -1 110 0 335 0 500 1 165 0 505 1 755
0 487 0 530 1 541 7 14 9 262 5 479 -7 3 0 20 0 38 1 30 1 32 3 32 39 l0 38
-57 -2 c-32 -1 -74 5 -93 12 -19 8 -55 18 -79 22 l-43 7 -5 62 -4 61 48 6 c26
3 72 4 100 2 29 -3 55 0 58 5 4 5 22 9 41 9 29 0 34 3 34 23 0 21 -3 22 -52
17 -29 -3 -95 -4 -145 -2 l-93 3 0 109 0 108 28 7 c30 6 215 -2 245 -11 13 -4
17 0 17 20 0 33 -17 37 -170 39 -101 1 -130 4 -130 14 0 11 22 12 114 7 62 -4
130 -4 150 0 34 7 36 9 36 47 0 33 -4 41 -26 49 -14 6 -37 10 -50 10 -21 0
-24 4 -19 20 6 19 2 20 -96 20 -137 0 -117 17 27 22 122 5 142 11 123 34 -9
11 -26 13 -73 8 -52 -6 -59 -5 -49 7 19 23 2 37 -52 44 -28 4 -52 9 -53 10
-10 9 12 46 26 44 45 -4 73 3 98 24 24 21 25 25 13 44 -11 18 -24 22 -83 25
-59 3 -70 0 -74 -15 -2 -9 -10 -17 -18 -17 -7 0 -16 -16 -19 -38 -13 -82 -11
-79 -62 -85 -96 -11 -118 -17 -130 -33 -27 -36 21 -65 100 -60 26 1 50 -1 52
-5 7 -11 -14 -15 -88 -18 -66 -2 -137 -23 -137 -40 0 -4 9 -16 20 -26 15 -14
36 -18 83 -18 60 1 56 -15 -5 -16 -15 -1 -30 -6 -33 -12 -4 -6 -13 -8 -21 -5
-7 3 -16 1 -19 -3 -2 -5 -19 -16 -37 -24 -27 -13 -48 -14 -117 -6 -49 6 -97
17 -115 28 -23 14 -46 18 -86 15 -30 -2 -59 -5 -66 -8 -24 -9 -36 51 -41 198
-4 137 -3 148 12 142 32 -12 138 16 161 42 20 24 24 25 125 22 217 -7 251 -5
273 10 19 14 34 16 108 19 17 1 32 9 39 23 10 19 8 25 -19 49 -17 16 -28 30
-24 32 4 2 34 1 67 -3 33 -4 64 -5 68 -3 4 3 14 0 22 -7 7 -6 39 -14 69 -17
49 -5 56 -4 56 12 0 15 6 17 35 12 32 -5 35 -4 35 19 0 21 -4 24 -40 24 -30 0
-40 -4 -40 -16 0 -13 -7 -15 -32 -10 -117 24 -311 34 -365 20 -40 -11 -27 -37
28 -59 101 -39 72 -45 -227 -48 -199 -2 -201 -2 -240 -28 -21 -15 -57 -29 -80
-32 l-41 -5 -7 97 c-21 296 -28 623 -13 637 4 4 29 -12 55 -37 50 -49 116 -99
128 -99 4 0 15 -7 25 -16 10 -9 35 -25 58 -37 44 -24 104 -72 162 -129 41 -42
64 -49 56 -19 -4 17 -1 19 32 14 56 -9 186 -61 206 -83 10 -11 27 -20 37 -20
11 0 27 -4 37 -10 30 -16 134 -28 158 -19 14 5 37 3 63 -6 38 -13 40 -13 40 6
0 11 -6 27 -14 35 -19 19 -117 25 -147 10 -19 -9 -30 -9 -52 2 -16 8 -37 12
-48 9 -12 -3 -23 2 -29 14 -14 25 -172 96 -232 104 -49 6 -71 17 -147 73 -42
31 -78 58 -81 62 -6 7 -94 60 -135 80 -16 8 -38 24 -49 34 -18 18 -17 20 80
115 55 53 115 116 133 141 54 70 134 150 151 150 9 0 26 -10 37 -23 19 -21
154 -141 182 -162 38 -28 131 -120 136 -134 8 -22 99 -96 163 -132 l52 -29 0
32 c0 29 -7 37 -49 62 -50 29 -119 92 -159 145 -26 34 -20 54 27 85 14 10 39
35 54 57 33 46 62 50 101 14 l26 -24 0 38 c0 47 -19 65 -69 65 -41 0 -85 -28
-114 -72 -11 -15 -37 -40 -58 -55 -51 -37 -33 -48 -264 157 -69 61 -113 45
-200 -72 -116 -155 -281 -306 -314 -285 -21 13 -30 67 -31 183 0 52 -3 144 -6
204 -4 62 -3 107 2 104 5 -2 21 -10 36 -17 16 -8 40 -11 61 -7 61 11 72 51 20
75 l-25 12 26 26 c22 22 26 34 26 85 0 37 6 68 16 83 15 24 15 25 -4 25 -11 0
-30 -11 -43 -25 -13 -14 -36 -32 -51 -40 -24 -14 -39 -54 -43 -119 0 -5 -6
-11 -12 -13 -10 -4 -12 59 -11 279 1 268 -5 470 -20 638 -4 41 -6 154 -4 250
1 96 4 326 6 510 6 406 13 555 32 595 8 17 12 40 9 53 -3 19 -1 21 19 16 35
-9 39 9 15 73 -11 32 -24 69 -27 83 -3 14 -13 36 -23 50 -14 19 -19 54 -24
150 -4 69 -8 145 -10 170 -4 49 -5 258 -2 385 l2 80 39 0 c34 0 41 4 46 23 l5
24 26 -21 c57 -45 93 -36 105 27 6 28 3 33 -22 43 -16 6 -38 16 -49 22 -11 6
-36 14 -55 17 l-35 7 28 13 c15 7 27 20 27 28 0 10 7 12 26 8 30 -8 74 25 74
55 0 22 -26 43 -44 36 -17 -7 -30 51 -21 94 10 43 -13 37 -65 -16 -36 -37 -44
-51 -44 -82 0 -34 -17 -62 -38 -63 -14 0 -28 102 -33 243 l-6 148 26 28 c33
35 61 114 59 166 -8 174 -30 297 -58 320 -7 6 -16 44 -19 86 -5 62 -4 79 8 89
10 8 14 27 13 53 -2 24 2 42 9 44 8 3 10 -6 7 -29 -3 -20 0 -40 9 -52 18 -24
66 -24 84 0 15 21 18 90 3 99 -5 3 -10 26 -10 51 0 43 21 90 47 107 7 4 13 16
13 26 0 18 -3 18 -42 4 -58 -20 -70 -31 -58 -53 14 -26 13 -29 -9 -23 -22 6
-53 -24 -62 -60 -3 -13 -10 16 -17 71 -11 79 -10 96 3 122 16 31 19 62 8 73
-3 4 -7 31 -7 61 -1 82 -51 120 -133 102 -29 -7 -134 -100 -153 -136 -15 -28
-12 -96 4 -109 11 -9 12 -20 4 -48 -7 -25 -6 -43 1 -60 16 -34 -2 -28 -38 13
-29 33 -30 37 -16 57 32 46 8 95 -40 83 -24 -6 -25 -4 -25 36 0 27 -10 61 -25
90 -14 26 -25 51 -24 55 6 33 -4 39 -36 21z m417 -50 c15 -13 32 -58 21 -58
-3 0 -11 8 -18 17 -11 15 -16 14 -46 -16 -30 -30 -32 -36 -22 -62 10 -26 9
-29 -8 -29 -12 0 -19 -7 -19 -19 0 -14 -6 -17 -24 -14 -13 3 -27 0 -31 -7 -5
-8 -10 -8 -21 1 -18 15 -17 79 2 104 14 19 16 19 25 3 11 -20 44 -24 55 -7 3
6 1 22 -6 35 -16 29 -1 51 38 57 15 2 30 5 33 6 3 0 12 -5 21 -11z m-382 -93
c0 -33 -12 -46 -25 -25 -8 12 5 60 16 60 5 0 9 -16 9 -35z m400 -66 c0 -5 -9
-13 -20 -19 -11 -6 -20 -17 -20 -25 0 -8 -4 -15 -10 -15 -5 0 -10 15 -10 33 0
29 3 32 30 33 17 1 30 -3 30 -7z m-373 -41 c-3 -8 -6 -5 -6 6 -1 11 2 17 5 13
3 -3 4 -12 1 -19z m-1386 -9 c27 -27 69 -117 69 -149 0 -14 -7 -46 -15 -72
-13 -46 -13 -49 10 -76 14 -16 22 -32 18 -35 -3 -3 4 -22 16 -42 25 -42 25
-45 9 -45 -7 0 -21 19 -32 41 -11 24 -29 45 -45 52 -46 20 -61 38 -61 78 0 28
-6 42 -24 56 -29 21 -32 39 -21 112 10 66 25 48 21 -25 -2 -27 1 -58 7 -69 17
-35 49 -64 63 -58 19 7 18 20 -6 50 -14 19 -20 41 -20 80 0 55 -19 107 -42
116 -7 3 -3 6 10 6 12 1 31 -8 43 -20z m-81 -14 c-7 -8 -17 -15 -22 -15 -6 0
-5 7 2 15 7 8 17 15 22 15 6 0 5 -7 -2 -15z m1667 -17 c-3 -7 -5 -2 -5 12 0
14 2 19 5 13 2 -7 2 -19 0 -25z m-239 4 c2 -7 0 -12 -5 -11 -4 1 -21 -3 -36
-9 -34 -14 -37 -15 -37 -3 0 33 68 53 78 23z m-1438 -22 c0 -5 -5 -10 -11 -10
-5 0 -7 5 -4 10 3 6 8 10 11 10 2 0 4 -4 4 -10z m1685 -37 c13 -74 19 -78 61
-35 l26 27 -7 -35 c-4 -19 -8 -58 -9 -86 0 -28 -7 -58 -14 -66 -15 -18 -6 -75
16 -100 10 -12 11 -18 4 -18 -21 0 -13 -46 8 -56 19 -8 18 -11 -21 -42 -24
-17 -46 -32 -49 -32 -4 0 -5 14 -2 30 2 17 -1 67 -8 113 -7 45 -14 127 -15
182 -2 55 -6 112 -10 128 -5 17 -3 27 3 27 6 0 14 -17 17 -37z m148 10 c-7 -2
-19 -2 -25 0 -7 3 -2 5 12 5 14 0 19 -2 13 -5z m-3 -59 c0 -8 -5 -12 -10 -9
-6 4 -8 11 -5 16 9 14 15 11 15 -7z m-290 -8 c0 -16 -37 -32 -48 -21 -7 7 25
35 40 35 4 0 8 -6 8 -14z m289 -68 c-7 -13 -7 -23 0 -32 6 -7 8 -16 4 -19 -14
-14 -23 -6 -23 21 0 15 -5 33 -11 39 -7 7 -3 11 15 11 22 0 24 -3 15 -20z
m171 -63 c0 -14 -4 -25 -10 -25 -5 0 -10 11 -10 25 0 14 5 25 10 25 6 0 10
-11 10 -25z m-1968 -50 c27 -23 32 -51 13 -78 -11 -15 -10 -23 0 -43 14 -27 9
-68 -7 -58 -5 3 -15 0 -23 -6 -18 -15 -20 -50 -4 -50 18 0 -9 -28 -34 -36 -12
-3 -29 -12 -37 -19 -8 -6 -31 -17 -50 -24 -19 -7 -44 -17 -55 -22 -82 -34
-205 -59 -205 -40 0 6 10 10 23 8 19 -2 22 3 22 32 0 43 -19 51 -38 15 l-15
-28 -6 30 c-4 17 -2 43 4 58 14 37 13 46 -5 46 -8 0 -23 -17 -34 -37 -21 -40
-29 -31 -10 11 7 14 9 32 5 42 -6 16 -8 16 -26 -1 -11 -10 -23 -36 -29 -59
l-9 -41 -1 34 c-1 34 22 73 75 126 25 25 24 51 -2 41 -29 -11 -13 15 25 40 26
17 51 25 73 23 18 -1 46 3 61 10 16 6 32 11 36 11 4 0 25 9 47 20 55 28 171
25 206 -5z m1821 5 c-3 -11 -9 -20 -13 -20 -5 0 -6 9 -3 20 3 11 9 20 13 20 5
0 6 -9 3 -20z m-6 -86 c-3 -3 -12 -4 -19 -1 -8 3 -5 6 6 6 11 1 17 -2 13 -5z
m-2337 -89 c-7 -9 -15 -13 -18 -10 -3 2 1 11 8 20 7 9 15 13 18 10 3 -2 -1
-11 -8 -20z m607 -15 c2 -21 -1 -28 -10 -24 -9 3 -12 16 -9 35 5 36 14 31 19
-11z m113 10 c0 -6 -6 -10 -14 -10 -16 0 -38 24 -30 33 9 8 44 -11 44 -23z
m164 15 c-4 -8 -8 -15 -10 -15 -2 0 -4 7 -4 15 0 8 4 15 10 15 5 0 7 -7 4 -15z
m-94 -2 c0 -5 -5 -15 -10 -23 -8 -12 -10 -11 -10 8 0 12 5 22 10 22 6 0 10 -3
10 -7z m1574 -40 c43 -68 76 -348 47 -400 -13 -24 -25 71 -12 96 6 11 8 27 5
35 -5 13 -13 10 -45 -19 -22 -19 -44 -35 -51 -35 -6 0 -20 -7 -30 -17 -10 -9
-21 -14 -24 -10 -3 3 26 37 65 76 39 39 71 76 71 81 0 23 -38 7 -83 -35 -26
-25 -55 -45 -65 -45 -10 0 12 29 62 79 73 73 87 101 51 101 -7 0 -28 -17 -47
-37 -18 -20 -52 -57 -75 -82 -24 -25 -43 -49 -43 -53 0 -4 -7 -8 -15 -8 -8 0
-15 5 -15 10 0 21 50 87 114 150 67 66 78 86 52 96 -16 6 -122 -69 -137 -98
-14 -25 -42 -24 -34 2 12 39 135 150 166 150 11 0 29 -16 43 -37z m-1809 -2
c3 -5 1 -12 -5 -16 -5 -3 -10 1 -10 9 0 18 6 21 15 7z m295 -11 c-6 -11 -34
-32 -63 -47 -71 -38 -77 -39 -43 -13 16 13 42 36 60 52 37 34 62 38 46 8z
m-120 -19 c0 -5 -23 -17 -50 -27 -28 -10 -58 -26 -67 -36 -14 -16 -14 -18 2
-24 9 -4 33 1 53 10 65 31 14 -8 -68 -51 -111 -59 -193 -105 -210 -118 -50
-41 -335 -104 -457 -101 -96 1 -153 30 -152 74 0 26 1 26 9 5 18 -44 69 -51
54 -6 -6 15 -4 16 7 6 18 -18 49 -16 49 1 0 8 -4 18 -10 21 -5 3 -10 11 -10
17 0 7 9 2 20 -10 35 -37 100 -41 86 -6 -4 10 2 14 19 14 14 0 27 1 30 2 2 1
31 5 62 8 51 6 301 95 343 121 8 5 43 23 77 40 35 17 65 35 68 40 3 4 12 6 19
3 8 -3 17 -1 21 5 3 6 16 9 28 6 13 -4 34 -2 47 4 14 5 26 10 28 10 1 1 2 -3
2 -8z m-667 -106 c4 -27 3 -35 -3 -25 -5 8 -10 28 -10 44 0 39 6 30 13 -19z
m700 -19 c3 -7 27 -26 54 -41 87 -50 123 -95 87 -109 -8 -3 -14 -14 -13 -23 2
-10 -7 -33 -19 -52 -11 -19 -19 -38 -16 -43 3 -5 26 -6 51 -2 39 6 45 4 40 -9
-3 -9 4 -24 19 -38 13 -12 24 -28 24 -35 0 -7 -26 -20 -57 -30 -83 -25 -131
-78 -131 -142 -1 -75 -2 -77 -41 -89 -40 -13 -84 -8 -188 18 -57 15 -65 24
-32 34 30 10 79 83 79 119 0 17 -7 41 -15 53 -14 20 -13 25 6 62 15 30 19 49
14 73 -8 36 -35 88 -46 88 -8 0 -41 61 -37 66 6 5 161 84 165 84 3 0 -7 -14
-21 -31 -29 -34 -34 -74 -12 -82 18 -7 96 22 96 36 0 5 -15 6 -35 3 -22 -4
-35 -3 -35 4 0 5 7 10 15 10 18 0 38 46 32 72 -6 21 8 25 16 4z m-733 -25 c0
-6 -4 -13 -10 -16 -5 -3 -10 1 -10 9 0 9 5 16 10 16 6 0 10 -4 10 -9z m-74
-68 c-7 -7 -26 7 -26 19 0 6 6 6 15 -2 9 -7 13 -15 11 -17z m518 -64 c-3 -5
16 -19 43 -31 26 -11 51 -26 55 -32 16 -24 7 -26 -23 -5 -23 16 -39 20 -65 16
-27 -5 -40 -1 -55 14 -22 22 -18 36 15 49 24 9 39 3 30 -11z m-85 -61 c25 -29
36 -33 78 -33 26 0 54 -4 61 -8 24 -15 12 -87 -15 -87 -11 0 -13 7 -8 30 6 26
4 30 -14 30 -13 0 -26 -10 -33 -25 -6 -14 -14 -22 -17 -18 -10 14 -47 31 -87
42 -57 15 -75 31 -67 60 6 23 7 24 14 4 8 -22 97 -73 129 -73 37 0 21 27 -29
49 -53 22 -66 35 -56 51 9 15 13 13 44 -22z m1971 -7 c0 -23 -4 -28 -18 -24
-10 2 -24 -3 -31 -11 -8 -9 -22 -16 -32 -16 -24 0 -49 -37 -49 -73 0 -19 10
-39 31 -58 33 -31 44 -35 54 -19 10 15 25 12 25 -6 0 -9 -9 -18 -20 -21 -11
-3 -20 -8 -20 -12 -7 -169 -5 -237 6 -248 7 -7 14 -18 17 -25 4 -10 7 -11 18
0 18 16 32 15 26 -2 -3 -8 -1 -16 4 -18 6 -2 9 -19 7 -38 l-3 -34 -35 37 c-47
50 -87 50 -73 -1 3 -12 13 -24 23 -27 28 -9 32 -43 6 -47 -31 -4 -30 -52 2
-56 30 -5 54 16 47 39 -5 15 -1 19 16 19 19 0 21 -4 15 -31 -3 -17 -6 -48 -6
-69 0 -32 -4 -39 -26 -44 -19 -5 -24 -11 -19 -25 3 -11 0 -21 -8 -24 -9 -3
-14 -22 -15 -52 0 -47 5 -53 45 -59 16 -3 18 -15 21 -89 3 -81 2 -87 -17 -87
-11 0 -23 -5 -26 -10 -10 -16 16 -41 35 -35 15 5 18 -1 16 -37 -1 -39 -3 -43
-29 -46 -38 -5 -33 -36 6 -40 36 -4 30 -26 -9 -30 -37 -4 -60 -44 -37 -67 8
-8 22 -15 31 -15 15 0 15 -2 2 -10 -12 -7 -8 -12 19 -23 19 -8 29 -17 23 -21
-6 -4 -26 1 -44 10 -18 10 -41 18 -51 19 -11 1 -22 7 -26 14 -9 14 -19 179
-26 431 -3 91 -7 179 -10 195 -3 17 -7 91 -10 165 -3 74 -8 182 -11 240 -9
144 -9 234 1 308 6 52 11 62 25 57 9 -3 36 6 61 19 58 32 69 32 69 -3z m-2041
-90 c55 -20 82 -36 103 -62 28 -34 28 -36 13 -67 -20 -38 -27 -43 -45 -31 -13
8 -13 10 0 19 13 9 13 12 -2 24 -10 7 -18 20 -18 28 0 21 -29 44 -75 58 -62
19 -101 62 -89 95 5 13 9 11 23 -11 11 -19 37 -34 90 -53z m-156 42 c3 -16 9
-39 13 -53 7 -23 6 -24 -10 -10 -23 18 -37 55 -30 75 9 23 21 18 27 -12z
m2184 -23 c-13 -34 -19 -36 -36 -16 -10 12 -7 17 16 29 15 8 29 15 30 16 1 1
-4 -12 -10 -29z m-32 -74 c7 3 15 -4 18 -15 3 -12 2 -21 -2 -21 -13 0 -51 31
-51 43 0 8 3 8 11 0 6 -6 17 -9 24 -7z m-1748 -37 c24 -49 -20 -139 -67 -139
-25 0 -25 8 0 40 25 32 25 72 0 95 -28 25 -25 30 17 30 31 0 40 -5 50 -26z
m-237 -40 c0 -10 -5 -19 -11 -19 -5 0 -7 5 -4 10 4 6 0 22 -9 35 -22 34 -19
45 4 16 11 -13 20 -32 20 -42z m-76 29 c23 -37 30 -113 11 -128 -8 -7 -15 -18
-15 -25 0 -28 -25 -35 -61 -17 -36 18 -46 47 -17 47 10 0 25 8 34 16 25 26 3
59 -40 59 -19 0 -39 6 -45 14 -10 12 -2 14 46 12 55 -1 58 0 55 22 -2 12 1 22
7 22 6 0 17 -10 25 -22z m1895 -55 c1 -38 4 -81 6 -98 7 -52 15 -291 9 -272
-9 30 -39 16 -42 -20 -6 -58 -50 -66 -67 -12 -8 25 -15 24 -49 -7 -22 -21 -27
-33 -24 -60 2 -19 0 -34 -5 -34 -13 0 -36 -32 -37 -51 0 -8 9 -25 20 -37 12
-12 16 -22 11 -22 -5 0 -16 -2 -23 -5 -18 -7 -39 140 -34 240 2 39 4 86 5 106
0 20 9 45 19 57 9 11 27 34 39 49 12 15 39 47 61 71 22 23 54 70 71 102 18 33
34 60 35 60 2 0 4 -30 5 -67z m-1672 -8 c-4 -8 -11 -15 -17 -15 -6 0 -6 7 2
20 14 22 24 19 15 -5z m-151 -101 c-10 -14 -20 -23 -23 -20 -3 3 2 17 11 32
10 14 20 23 23 20 3 -3 -2 -17 -11 -32z m106 17 c28 -26 17 -51 -22 -51 -38 0
-49 23 -25 50 22 24 21 24 47 1z m2090 -97 c5 -40 -3 -51 -19 -26 -6 10 -7 26
-2 40 12 31 16 28 21 -14z m-2156 15 c4 -7 28 -10 65 -7 72 5 68 -7 -9 -22
-31 -7 -65 -19 -74 -28 -16 -14 -18 -14 -18 1 0 10 -4 17 -10 17 -14 0 -13 23
2 38 15 15 35 15 44 1z m213 -2 c28 -12 30 -15 17 -26 -13 -11 -17 -11 -21 1
-4 10 -16 13 -35 10 -28 -4 -39 6 -23 21 10 10 27 8 62 -6z m-79 -61 c0 -3 -4
-8 -10 -11 -5 -3 -10 -1 -10 4 0 6 5 11 10 11 6 0 10 -2 10 -4z m-158 -38 c-7
-7 -12 -8 -12 -2 0 14 12 26 19 19 2 -3 -1 -11 -7 -17z m1528 10 c0 -19 -18
-43 -25 -36 -4 3 -2 16 5 27 12 24 20 27 20 9z m-1430 -16 c0 -4 -13 -13 -30
-19 -35 -13 -41 -1 -7 15 27 13 37 14 37 4z m-123 -44 c-3 -7 -5 -2 -5 12 0
14 2 19 5 13 2 -7 2 -19 0 -25z m2125 1 c-21 -24 -22 -24 -22 5 0 19 4 23 19
19 18 -5 18 -6 3 -24z m-2136 -67 c-12 -11 -18 7 -10 30 l8 23 4 -23 c2 -13 1
-26 -2 -30z m2229 -2 c3 -5 2 -10 -4 -10 -5 0 -13 5 -16 10 -3 6 -2 10 4 10 5
0 13 -4 16 -10z m-1555 -20 c36 -6 79 -12 95 -14 17 -1 2 -4 -32 -5 -79 -1
-252 -43 -321 -77 -86 -42 -259 -209 -281 -270 -7 -20 -26 -55 -42 -78 -33
-47 -78 -169 -86 -236 -6 -52 11 -76 47 -65 21 7 27 29 10 40 -6 4 -7 24 -4
48 12 77 21 70 27 -23 4 -50 12 -100 17 -111 8 -15 7 -19 -4 -19 -8 0 -18 5
-21 10 -27 43 -99 -157 -106 -293 -1 -23 3 -64 9 -92 6 -27 14 -63 17 -79 4
-16 14 -30 25 -33 25 -7 25 -41 1 -70 -23 -28 -31 -29 -31 -4 0 11 -4 22 -9
26 -12 7 -51 -34 -51 -54 -1 -23 -23 -48 -37 -44 -17 6 -16 49 2 98 20 56 19
101 -2 110 -24 9 -44 -23 -61 -94 -32 -137 -26 -176 32 -186 58 -11 126 39
126 92 0 13 5 23 11 23 7 0 8 -7 4 -17 -4 -10 -15 -49 -25 -88 -21 -80 -61
-175 -93 -220 -61 -85 -78 -149 -50 -184 31 -38 88 5 62 48 -10 15 -9 26 5 54
9 20 21 39 26 42 5 3 21 29 35 58 l24 52 -3 -113 c-2 -61 0 -112 5 -112 10 0
0 -274 -16 -445 -8 -83 -14 -174 -20 -300 -3 -66 -7 -147 -10 -180 -3 -33 -8
-103 -11 -155 -3 -52 -8 -98 -10 -102 -2 -3 -5 -58 -5 -120 -2 -167 19 -198
134 -198 60 0 68 -7 39 -34 -18 -15 -20 -15 -37 4 -26 28 -40 25 -57 -12 -16
-34 -17 -89 -4 -145 4 -17 2 -49 -4 -71 -21 -81 -26 -213 -21 -614 1 -97 3
-107 21 -113 17 -5 20 -15 20 -57 0 -50 0 -50 -23 -35 -17 11 -22 24 -22 60 0
56 -12 69 -67 76 l-43 6 -5 90 c-5 94 6 171 28 198 7 8 13 24 12 34 -2 52 -6
71 -12 66 -5 -2 -8 18 -8 46 0 30 5 51 13 54 9 3 9 8 -2 21 -12 14 -12 19 -2
26 8 4 15 32 16 64 3 51 1 58 -22 73 -36 24 -43 51 -32 129 22 165 58 558 64
709 2 50 7 255 10 456 5 299 4 368 -7 377 -25 20 -42 -4 -48 -70 -4 -35 -3
-77 2 -95 9 -32 4 -398 -7 -555 -3 -46 -7 -126 -10 -178 -2 -52 -9 -144 -16
-205 -6 -60 -11 -114 -11 -120 0 -5 1 -21 1 -35 1 -14 -5 -79 -14 -145 -25
-210 -29 -272 -16 -302 16 -40 20 -345 4 -350 -33 -11 -37 37 -35 411 2 301 4
371 16 380 24 20 37 294 18 384 -12 52 -10 374 3 602 3 58 8 173 10 255 3 83
8 201 10 263 3 67 1 120 -5 132 -11 21 -15 201 -5 240 9 34 9 232 0 259 -3 12
-2 21 4 21 5 0 15 -15 21 -34 14 -44 33 -60 60 -51 19 6 21 12 15 43 -4 20
-13 48 -20 62 -11 22 -11 30 0 51 45 81 48 89 41 142 -10 70 -11 244 -2 283 6
22 3 34 -8 43 -14 12 -20 11 -37 -5 -20 -18 -20 -18 -13 11 8 36 23 57 35 49
5 -3 12 3 15 13 24 75 130 236 186 285 128 111 188 144 332 178 43 11 81 21
83 24 6 6 54 1 153 -14z m1610 -6 c0 -9 -5 -14 -12 -12 -18 6 -21 28 -4 28 9
0 16 -7 16 -16z m-1010 -3 c0 -18 -18 -21 -30 -6 -10 13 -9 15 9 15 11 0 21
-4 21 -9z m546 -76 c-22 -52 -80 -137 -85 -123 -2 7 -12 25 -22 40 -25 34 -24
43 2 25 18 -13 23 -13 46 9 17 16 24 30 20 44 -4 15 0 20 13 20 11 0 22 5 25
10 14 22 14 8 1 -25z m-833 -14 c37 -12 65 -26 62 -31 -6 -9 -44 -2 -61 11
-23 18 -103 27 -121 14 -12 -8 -32 -10 -58 -6 -22 4 -62 3 -90 0 -27 -4 -75
-8 -106 -8 -56 -1 -149 -26 -149 -41 0 -4 -14 -13 -30 -19 -17 -5 -33 -17 -36
-26 -9 -24 -34 -18 -34 8 0 33 71 70 196 101 86 22 117 24 229 21 98 -2 147
-8 198 -24z m-66 -47 c-3 -3 -12 -4 -19 -1 -8 3 -5 6 6 6 11 1 17 -2 13 -5z
m370 -19 c18 -6 20 -11 13 -31 -13 -34 -16 -140 -6 -204 l8 -55 -35 39 c-34
36 -35 40 -22 65 7 15 15 51 16 81 3 50 1 55 -18 58 -32 5 -127 59 -113 64 14
4 125 -8 157 -17z m-502 5 c-40 -10 -107 -12 -101 -2 2 4 33 8 68 9 48 1 56
-1 33 -7z m-191 -9 c8 -13 -19 -21 -67 -20 l-42 1 30 13 c35 16 71 19 79 6z
m-808 -28 c-10 -10 -19 5 -10 18 6 11 8 11 12 0 2 -7 1 -15 -2 -18z m2092
-143 c3 -167 14 -424 18 -432 5 -8 -115 -82 -122 -75 -8 8 15 125 37 195 12
34 18 70 15 78 -3 9 -1 25 6 37 6 12 13 49 14 82 2 33 6 70 9 83 3 12 6 64 7
115 2 126 14 64 16 -83z m-840 131 c29 -4 66 -17 82 -29 34 -26 50 -28 50 -7
0 17 2 18 24 9 9 -3 16 -14 16 -24 0 -15 -6 -17 -39 -13 -26 4 -46 0 -64 -12
-26 -17 -27 -16 -51 12 -22 26 -31 29 -93 31 -85 2 -213 22 -213 33 0 9 169
18 210 11 14 -2 49 -7 78 -11z m-732 -51 c-24 -22 -47 -40 -52 -40 -4 0 -25
-17 -46 -37 -21 -20 -38 -31 -38 -25 0 17 89 105 126 124 51 27 55 19 10 -22z
m202 12 c2 -7 -7 -12 -23 -12 -24 0 -26 2 -15 15 14 17 31 16 38 -3z m1196 -7
c-13 -20 -19 -23 -31 -14 -16 14 -8 25 22 32 11 3 21 5 23 6 1 0 -5 -10 -14
-24z m-1286 -19 c3 -3 -9 -6 -26 -6 -16 0 -39 -3 -49 -7 -16 -6 -16 -5 -4 10
13 17 63 18 79 3z m-486 -68 c-7 -7 -12 -8 -12 -2 0 14 12 26 19 19 2 -3 -1
-11 -7 -17z m302 -79 c-8 -14 -34 -11 -34 4 0 8 3 17 7 20 9 9 34 -13 27 -24z
m232 -105 c27 -7 40 -38 36 -85 -3 -31 -9 -38 -48 -57 -55 -27 -54 -27 -54 3
0 22 4 25 34 25 43 0 68 26 43 45 -9 7 -17 20 -17 29 0 18 -13 20 -40 6 -15
-8 -21 -6 -29 7 -8 14 -14 16 -28 7 -18 -11 -19 -20 -9 -96 6 -45 -2 -47 -42
-10 -24 22 -30 36 -30 72 -1 24 1 47 4 52 6 9 148 11 180 2z m-254 -131 c0
-65 0 -125 0 -133 -1 -8 5 -69 13 -135 30 -243 46 -464 46 -633 0 -95 -3 -177
-5 -181 -9 -14 -6 -367 3 -391 7 -18 1 -426 -7 -525 -16 -184 -21 -503 -11
-745 l4 -104 -32 -9 c-29 -9 -36 -6 -64 21 -28 27 -29 31 -12 36 20 7 53 71
53 102 0 11 -5 25 -11 31 -7 7 -11 44 -10 95 1 46 -3 99 -9 118 -17 57 -13
679 6 796 3 20 -1 36 -9 43 -11 8 -15 45 -16 144 -1 73 -3 144 -6 157 -3 14
-7 179 -9 368 -3 188 -8 347 -11 352 -6 10 -7 356 -1 405 1 11 5 26 9 32 4 6
2 55 -4 109 -6 53 -8 107 -5 118 4 18 37 37 79 45 4 0 8 -52 9 -116z m407 26
c97 -50 98 -59 3 -59 -82 0 -97 -5 -82 -30 6 -10 27 -12 94 -7 79 7 136 -3
136 -23 0 -12 -69 -6 -74 6 -10 27 -85 -17 -134 -78 -51 -63 -64 -71 -62 -35
1 12 2 27 1 33 -1 14 -51 26 -103 24 l-38 0 23 23 c12 13 25 22 29 20 4 -2 25
5 46 16 43 22 92 85 92 119 0 12 2 22 4 22 2 0 31 -14 65 -31z m1456 -109 c3
-5 1 -10 -4 -10 -6 0 -11 5 -11 10 0 6 2 10 4 10 3 0 8 -4 11 -10z m-1345 -55
c7 -8 28 -17 47 -21 24 -5 41 -16 56 -40 13 -20 34 -38 52 -42 17 -5 29 -11
29 -15 -1 -4 -4 -25 -8 -47 -5 -31 -14 -45 -39 -60 -17 -11 -39 -20 -49 -20
-28 0 -26 24 4 42 31 19 37 52 14 83 -20 27 -50 13 -42 -21 6 -23 4 -25 -14
-19 -12 4 -35 1 -51 -5 -29 -12 -36 -27 -21 -46 4 -5 -4 2 -18 17 -33 35 -60
71 -60 80 0 4 10 5 21 2 29 -8 109 36 109 59 0 23 -17 23 -55 0 -25 -15 -34
-16 -54 -6 l-25 13 37 21 c20 12 37 26 37 31 0 14 16 11 30 -6z m1310 -38 c57
-28 80 -46 80 -65 0 -11 -9 -8 -32 10 -47 36 -99 51 -132 39 -27 -11 -35 -29
-13 -36 6 -2 33 -6 59 -10 49 -6 168 -77 168 -100 0 -18 -48 -6 -63 15 -21 30
-132 49 -161 27 -27 -20 -11 -37 32 -35 21 0 46 -4 57 -9 11 -6 37 -19 57 -29
21 -10 36 -19 35 -21 -2 -1 -27 4 -58 11 -68 15 -131 15 -136 -1 -6 -16 37
-33 85 -34 20 0 46 -5 57 -10 14 -6 -4 -8 -55 -5 -41 3 -91 1 -110 -4 -19 -5
-76 -19 -127 -32 -85 -20 -93 -21 -116 -5 -22 14 -24 21 -20 64 10 104 20 113
227 223 77 40 95 41 166 7z m-1634 -10 c-10 -7 -28 -22 -39 -34 -34 -37 -76
-26 -62 16 3 12 12 17 23 15 9 -2 31 0 47 5 42 13 54 12 31 -2z m111 -96 c10
-31 38 -81 45 -81 4 0 14 -13 23 -30 9 -16 31 -36 49 -44 31 -13 56 -50 43
-63 -3 -3 -19 2 -36 10 -26 13 -32 13 -50 1 -19 -13 -21 -12 -30 22 -7 24 -31
57 -71 95 -33 32 -60 60 -60 63 0 3 10 6 23 8 16 2 21 9 20 25 -2 17 2 20 18
16 11 -3 23 -13 26 -22z m-197 -1 c0 -5 -4 -10 -10 -10 -5 0 -10 5 -10 10 0 6
5 10 10 10 6 0 10 -4 10 -10z m70 0 c0 -5 -2 -10 -4 -10 -3 0 -8 5 -11 10 -3
6 -1 10 4 10 6 0 11 -4 11 -10z m-560 -21 c0 -5 -4 -9 -10 -9 -5 0 -10 7 -10
16 0 8 5 12 10 9 6 -3 10 -10 10 -16z m1780 -33 c0 -52 -13 -117 -24 -113 -16
5 -25 65 -14 103 10 39 38 47 38 10z m-1562 -66 c-1 -43 -5 -77 -10 -74 -4 3
-6 29 -4 57 2 29 4 62 5 75 1 12 3 22 6 22 3 0 4 -36 3 -80z m1467 52 c-3 -7
-5 -17 -5 -21 0 -12 -74 -10 -82 2 -16 26 -4 32 60 33 24 0 31 -4 27 -14z
m-161 -39 c-7 -16 -14 -35 -14 -44 0 -9 -7 -19 -15 -23 -8 -3 -24 -26 -36 -51
-13 -28 -28 -45 -39 -45 -9 0 -29 -9 -43 -20 l-25 -20 -5 22 c-8 27 -8 27 31
31 38 4 72 33 72 59 0 11 9 27 20 36 11 10 21 27 23 40 3 22 22 41 39 42 4 0
0 -12 -8 -27z m82 -40 c17 -17 39 -16 57 2 13 13 16 12 21 -9 3 -12 19 -40 36
-61 22 -27 27 -41 20 -50 -6 -7 -8 -19 -5 -27 4 -9 -1 -18 -11 -22 -12 -5 -15
-2 -10 10 19 49 -23 68 -82 38 -25 -12 -32 -22 -32 -45 0 -35 -16 -69 -31 -69
-10 0 -9 39 3 115 2 14 -2 19 -14 17 -14 -2 -16 3 -11 35 8 53 34 112 41 93 3
-8 11 -20 18 -27z m-1116 17 c0 -5 -4 -10 -10 -10 -5 0 -10 5 -10 10 0 6 5 10
10 10 6 0 10 -4 10 -10z m1743 -74 c3 -8 -3 -12 -16 -12 -13 1 -23 -6 -25 -16
-3 -14 3 -18 22 -18 30 0 26 -25 -5 -33 -26 -7 -26 -47 1 -47 27 0 25 -18 -2
-22 -15 -2 -24 -11 -26 -25 -3 -19 1 -23 22 -23 35 0 33 -18 -1 -22 -36 -4
-40 -41 -5 -46 30 -5 28 -22 -3 -22 -18 0 -25 -5 -25 -20 0 -13 9 -22 25 -26
18 -4 25 -13 25 -30 0 -14 -7 -27 -15 -30 -8 -4 -15 -15 -15 -25 0 -10 7 -19
15 -19 20 0 19 -30 -2 -45 -16 -12 -14 -24 9 -57 10 -14 9 -21 -7 -38 -19 -21
-19 -23 -2 -35 24 -17 21 -25 -8 -25 -18 0 -25 -5 -25 -18 0 -11 11 -24 25
-30 34 -16 31 -30 -7 -34 -25 -2 -33 -8 -33 -23 0 -15 8 -21 33 -23 28 -3 33
-7 30 -25 -2 -18 -9 -21 -35 -19 -17 2 -34 -2 -38 -8 -11 -18 15 -40 46 -40
45 0 36 -26 -11 -34 -22 -3 -40 -10 -40 -14 1 -20 21 -35 47 -34 l29 1 -3
-157 c-2 -86 -8 -161 -13 -166 -15 -15 -12 -46 5 -46 22 0 18 -27 -5 -40 -27
-15 -25 -39 5 -50 32 -12 34 -47 3 -52 -13 -2 -23 -10 -23 -18 0 -8 10 -19 23
-25 12 -5 22 -13 22 -18 0 -4 -4 -6 -8 -3 -16 9 -31 -10 -25 -32 3 -13 13 -22
24 -22 11 0 19 -7 19 -15 0 -9 -9 -15 -25 -15 -14 0 -25 -4 -25 -9 0 -23 14
-41 31 -41 13 0 19 -7 19 -24 0 -19 -6 -25 -27 -28 -14 -2 -28 -8 -30 -14 -5
-17 27 -46 43 -40 8 3 14 1 14 -4 0 -6 -8 -10 -17 -10 -10 0 -24 -4 -31 -8
-16 -10 -5 -42 14 -42 17 0 17 -5 3 -31 -9 -17 -6 -21 19 -30 26 -9 29 -14 23
-37 -4 -15 -9 -25 -12 -23 -2 2 -14 -1 -27 -8 -26 -14 -21 -28 14 -41 32 -13
32 -40 -1 -40 -14 0 -25 -6 -25 -12 0 -23 18 -41 34 -35 11 4 16 1 16 -11 0
-25 -12 -38 -40 -47 -14 -4 -35 -16 -46 -27 -12 -11 -24 -16 -27 -11 -3 5 -3
227 0 493 3 267 5 528 6 580 0 53 -7 133 -17 180 -14 73 -16 121 -10 340 4
140 8 325 9 410 1 85 3 162 4 170 1 12 12 14 50 12 27 -2 52 -9 54 -16z m-179
-33 c-1 -27 -3 -52 -4 -58 -2 -5 -1 -17 3 -25 13 -36 14 -63 2 -151 -6 -52 -8
-103 -5 -114 4 -11 6 -112 4 -225 -5 -226 11 -413 37 -446 5 -6 6 -14 2 -17
-13 -14 -19 -437 -13 -1044 2 -254 1 -465 -2 -469 -4 -3 -12 13 -18 37 -8 28
-27 59 -56 88 -43 43 -45 43 -64 26 -11 -10 -20 -25 -20 -34 0 -13 -4 -12 -18
5 -26 30 -89 74 -107 74 -33 0 -62 -24 -172 -138 l-111 -117 0 85 c0 47 2 88
5 92 2 4 6 51 8 105 4 100 7 141 25 273 6 41 12 100 15 130 14 164 20 172 110
164 57 -5 62 -4 93 25 30 28 33 36 30 79 -3 42 -1 47 19 50 12 2 25 11 28 21
7 24 -2 92 -19 133 -18 41 -69 237 -68 258 0 8 10 56 22 105 14 57 23 125 24
185 1 77 5 103 23 137 35 65 42 114 48 359 4 126 9 264 12 307 4 66 2 77 -11
77 -32 0 -15 19 22 25 20 4 62 15 92 25 30 9 57 18 60 19 3 0 5 -20 4 -46z
m-1559 27 c3 -5 1 -10 -4 -10 -6 0 -11 5 -11 10 0 6 2 10 4 10 3 0 8 -4 11
-10z m71 -49 c-11 -18 -36 -13 -36 7 0 10 3 22 7 26 10 10 37 -20 29 -33z
m1267 -17 c-8 -44 -14 -152 -13 -261 1 -141 -13 -179 -23 -65 -11 111 -30 212
-41 212 -6 0 2 10 17 23 20 16 30 34 34 65 3 25 10 41 17 39 6 -3 10 -9 9 -13z
m-323 -55 c0 -54 -13 -64 -28 -21 -10 30 4 86 19 76 5 -3 9 -27 9 -55z m-330
1 c0 -11 -2 -20 -4 -20 -2 0 -6 9 -9 20 -3 11 -1 20 4 20 5 0 9 -9 9 -20z
m224 -5 c-4 -8 -8 -15 -10 -15 -2 0 -4 7 -4 15 0 8 4 15 10 15 5 0 7 -7 4 -15z
m-880 -31 c30 -30 34 -39 24 -51 -10 -13 -13 -12 -20 6 -4 13 -13 19 -23 15
-9 -4 -15 -1 -15 7 0 8 -3 24 -6 37 -9 30 -2 28 40 -14z m582 -62 c-7 -7 -22
-12 -33 -10 -17 3 -18 7 -11 37 l9 33 25 -23 c21 -20 22 -25 10 -37z m444 8
c0 -10 -31 -22 -38 -16 -2 3 -2 12 1 20 6 15 37 12 37 -4z m59 -38 c-23 -10
-29 -18 -29 -45 0 -24 -3 -28 -10 -17 -15 24 -12 38 17 69 20 21 30 26 39 17
10 -8 6 -14 -17 -24z m-911 -31 c-5 -25 -52 -21 -56 5 -3 18 1 20 28 16 22 -3
30 -9 28 -21z m-113 -41 c36 -18 45 -25 31 -28 -10 -2 -21 1 -25 6 -3 6 -27
12 -51 14 -43 3 -45 4 -48 38 l-4 35 24 -20 c13 -12 46 -32 73 -45z m316 15
l54 -35 -68 0 c-64 0 -67 1 -57 20 6 10 10 23 9 27 -5 30 -1 30 62 -12z m550
-7 c3 -5 10 -9 15 -9 5 1 9 -5 9 -11 0 -7 5 -16 10 -20 6 -5 6 -8 -1 -8 -6 0
-17 7 -24 15 -20 24 -33 -4 -15 -32 21 -32 47 -112 40 -123 -17 -28 -27 -7
-65 138 -13 51 -33 62 -63 34 -20 -19 -26 -20 -64 -9 -54 16 -61 24 -22 25 18
0 36 5 40 9 12 12 132 3 140 -9z m239 -59 c12 -72 9 -119 -5 -59 -4 19 -16 52
-27 73 -21 42 -18 70 6 61 9 -3 19 -32 26 -75z m-1460 1 c0 -43 -3 -50 -20
-50 -17 0 -18 3 -10 26 6 14 10 36 10 50 0 13 5 24 10 24 6 0 10 -22 10 -50z
m947 -14 c24 -25 78 -46 116 -46 10 0 32 7 48 16 17 8 32 14 34 12 1 -2 12
-30 23 -63 l21 -60 -22 -9 c-40 -15 -82 -39 -110 -63 -34 -27 -52 -30 -42 -5
11 25 24 106 18 115 -2 4 -9 5 -14 1 -5 -3 -17 0 -25 7 -13 10 -19 8 -40 -14
-14 -15 -29 -27 -35 -27 -5 0 2 -15 16 -34 15 -20 23 -40 19 -50 -8 -20 22
-56 45 -56 13 0 15 -9 13 -45 -5 -61 19 -110 64 -131 27 -13 33 -21 28 -36 -8
-27 11 -45 57 -53 44 -8 50 -20 16 -36 -28 -13 -52 -48 -40 -59 4 -5 28 -15
53 -24 40 -14 46 -14 62 1 10 9 18 22 18 30 0 17 20 17 21 1 0 -7 3 -22 5 -33
3 -11 11 -76 19 -145 7 -69 16 -146 20 -171 7 -44 6 -47 -24 -68 -17 -12 -31
-29 -31 -37 0 -8 -7 -14 -16 -14 -12 0 -14 5 -8 18 10 22 6 110 -7 133 -16 30
-67 52 -106 44 -42 -8 -50 -25 -30 -68 8 -17 17 -43 19 -56 2 -21 -2 -26 -29
-32 -34 -7 -41 -1 -22 18 6 6 9 21 7 34 -3 22 -7 24 -53 21 -27 -1 -54 -7 -59
-12 -16 -16 -25 -12 -19 10 3 11 9 20 14 20 21 0 107 62 117 85 24 52 8 104
-20 70 -28 -34 -59 -61 -107 -95 -27 -19 -57 -47 -65 -62 -9 -15 -24 -34 -32
-43 -9 -8 -11 -15 -5 -15 21 0 11 -21 -14 -30 -14 -5 -25 -16 -24 -22 1 -7 -1
-21 -6 -31 -5 -13 -1 -28 15 -49 17 -23 19 -32 10 -38 -8 -5 -10 -17 -6 -33 3
-14 2 -29 -4 -32 -5 -3 -10 -3 -11 2 0 4 -2 17 -4 28 -2 11 -11 81 -19 155 -9
74 -19 156 -22 182 l-6 47 35 -10 c40 -11 90 4 156 46 48 29 61 57 61 123 0
79 -18 123 -72 176 -27 26 -47 51 -43 54 3 3 20 -11 38 -31 35 -40 66 -47 91
-21 20 19 20 31 1 42 -9 4 -17 18 -20 30 -2 12 -7 27 -10 32 -8 13 -42 13 -51
-1 -4 -8 -9 -8 -17 0 -15 15 -69 14 -91 -2 -16 -11 -17 -17 -6 -36 6 -13 10
-24 8 -25 -7 -7 -93 -25 -97 -21 -2 2 -5 21 -7 42 -2 21 -6 50 -9 65 -4 24 1
30 33 47 72 37 96 152 47 225 -14 20 -25 41 -25 47 0 13 -61 49 -85 49 -12 0
0 10 30 25 28 13 66 25 86 25 20 0 50 7 65 15 27 14 29 14 32 -4 2 -11 15 -31
29 -45z m363 11 c0 -5 -4 -5 -10 -2 -5 3 -10 14 -10 23 0 15 2 15 10 2 5 -8
10 -19 10 -23z m-763 -2 c15 -8 39 -15 52 -15 23 0 23 -1 7 -19 -9 -10 -25
-17 -34 -15 -9 2 -23 0 -31 -5 -13 -8 -13 -12 -1 -26 10 -13 24 -16 52 -12 32
4 38 2 38 -13 0 -24 -16 -34 -24 -15 -5 14 -9 14 -36 0 -35 -18 -50 -43 -50
-84 0 -32 18 -81 31 -81 17 0 17 -33 0 -51 -18 -20 -18 -22 -3 -50 16 -28 42
-40 42 -19 0 6 4 10 9 10 4 0 8 -60 8 -132 -1 -73 2 -176 6 -228 4 -52 9 -131
12 -175 l5 -80 -32 -20 c-38 -24 -46 -46 -22 -69 18 -18 49 -18 49 1 0 14 15
30 16 17 3 -38 7 -78 13 -131 5 -47 4 -63 -5 -63 -19 0 -49 -31 -49 -50 0 -10
18 -37 39 -62 64 -72 46 -94 -76 -97 l-53 -1 0 54 c0 30 -3 61 -6 70 -4 10 5
27 25 45 29 27 32 35 33 98 1 74 -18 127 -49 137 -15 5 -18 17 -16 83 1 43 3
125 3 182 2 107 14 152 49 177 15 12 21 116 9 159 -4 11 -7 24 -7 28 -1 5 -14
6 -31 2 l-29 -6 4 133 c2 73 9 169 15 212 7 55 7 83 0 90 -18 18 -45 -8 -50
-50 -4 -31 -7 -35 -13 -19 -4 11 -13 30 -21 43 -7 12 -11 34 -8 48 5 25 7 26
53 20 26 -4 60 -13 76 -21z m116 -12 c-7 -2 -19 -2 -25 0 -7 3 -2 5 12 5 14 0
19 -2 13 -5z m675 -98 c0 -16 -2 -15 -8 5 -11 34 -11 60 0 35 5 -11 8 -29 8
-40z m-998 -10 l-8 -40 -1 36 c0 20 2 39 6 42 11 11 11 4 3 -38z m1089 -16 c8
-11 21 -19 27 -19 14 0 24 -33 17 -57 -2 -10 -15 -26 -28 -36 -24 -17 -25 -17
-29 5 -7 35 -14 155 -9 139 3 -8 13 -22 22 -32z m161 25 c0 -8 -4 -12 -10 -9
-5 3 -10 10 -10 16 0 5 5 9 10 9 6 0 10 -7 10 -16z m-1131 -45 c-5 -10 -9 -33
-8 -51 1 -18 0 -61 -1 -95 -1 -59 -3 -63 -25 -63 -13 0 -30 -3 -39 -6 -13 -5
-16 2 -16 38 0 57 15 103 51 152 16 22 29 47 29 55 0 14 2 14 9 2 6 -9 6 -22
0 -32z m296 -9 c1 -47 -12 -90 -27 -90 -12 0 -10 58 4 80 10 15 10 22 0 32
-17 17 -15 30 6 26 13 -3 17 -14 17 -48z m830 -2 c-2 -18 -7 -64 -10 -102 -9
-108 -55 -211 -55 -123 0 26 -6 56 -12 67 -10 16 -9 25 5 49 9 16 17 41 17 55
0 15 7 29 16 33 8 3 20 16 25 29 12 34 19 30 14 -8z m-1255 -43 c0 -27 -4 -35
-18 -35 -10 0 -23 -5 -29 -11 -18 -18 -33 -1 -33 36 0 33 2 34 29 29 16 -4 32
-1 35 5 12 19 16 12 16 -24z m890 -66 c0 -12 -7 -19 -18 -19 -28 0 -34 12 -14
30 20 20 32 16 32 -11z m236 -147 c-6 -70 -7 -71 -20 -24 -6 24 -9 64 -7 90
l4 47 14 -33 c8 -19 12 -53 9 -80z m-238 67 c-16 -11 -28 -29 -28 -40 0 -26
-25 -24 -44 3 -32 45 -22 58 42 58 l57 -1 -27 -20z m-1541 -11 c-3 -8 -6 -5
-6 6 -1 11 2 17 5 13 3 -3 4 -12 1 -19z m930 0 c-3 -8 -6 -5 -6 6 -1 11 2 17
5 13 3 -3 4 -12 1 -19z m82 -45 c27 -103 20 -153 -21 -153 -17 0 -19 7 -17 78
1 68 11 112 24 112 2 0 9 -17 14 -37z m-414 8 c3 -5 1 -12 -4 -15 -5 -3 -11 1
-15 9 -6 16 9 21 19 6z m985 -11 c0 -5 -5 -10 -11 -10 -5 0 -7 5 -4 10 3 6 8
10 11 10 2 0 4 -4 4 -10z m113 -44 c0 -11 4 -15 14 -12 8 3 11 1 8 -4 -13 -21
-40 -10 -40 15 0 14 5 23 10 21 6 -2 9 -11 8 -20z m-919 -40 c-9 -36 -19 -33
-17 6 2 44 2 43 14 31 5 -5 7 -22 3 -37z m824 -65 c4 -46 3 -49 -16 -44 -18 4
-19 9 -10 34 7 21 7 33 -2 44 -6 8 -9 19 -5 25 13 21 28 -6 33 -59z m123 52
c3 -35 7 -59 23 -123 20 -81 19 -112 -1 -45 -37 126 -48 185 -34 185 6 0 12
-8 12 -17z m-1081 -35 c0 -21 -3 -29 -10 -22 -5 5 -7 19 -4 32 9 31 14 27 14
-10z m1023 -43 c8 -39 11 -76 7 -84 -8 -14 -11 1 -26 114 -9 70 2 53 19 -30z
m174 28 c-3 -10 -5 -2 -5 17 0 19 2 27 5 18 2 -10 2 -26 0 -35z m-747 17 c0
-5 -4 -10 -10 -10 -5 0 -10 5 -10 10 0 6 5 10 10 10 6 0 10 -4 10 -10z m-258
-35 c-2 -19 -6 -35 -8 -35 -2 0 -4 16 -4 35 0 19 4 35 8 35 4 0 6 -16 4 -35z
m-52 -5 c0 -12 -8 -12 -35 0 -18 8 -17 9 8 9 15 1 27 -3 27 -9z m382 0 c-30
-12 -40 -40 -19 -52 17 -9 24 -38 10 -38 -62 1 -74 57 -18 88 11 6 27 11 35
11 8 0 5 -4 -8 -9z m673 -32 c-10 -51 -16 -70 -21 -65 -6 5 16 97 23 97 3 0 2
-15 -2 -32z m-1180 -26 c-11 -11 -27 17 -20 35 6 16 8 16 16 -6 5 -13 7 -26 4
-29z m354 -23 c1 -33 -24 -58 -33 -33 -10 26 -7 69 6 82 15 15 26 -6 27 -49z
m236 40 c12 -19 -3 -22 -27 -5 l-22 16 21 0 c12 0 25 -5 28 -11z m-465 -29 c0
-11 -59 -44 -67 -37 -2 3 4 14 14 25 19 21 53 29 53 12z m480 -34 c0 -24 -64
-106 -74 -95 -3 3 -7 16 -8 29 -2 20 2 25 26 30 30 5 48 33 38 59 -3 9 -1 12
6 7 7 -4 12 -18 12 -30z m-140 -35 c0 -6 -4 -13 -10 -16 -21 -13 -10 -54 18
-69 l27 -15 -32 2 c-21 1 -33 7 -34 17 -9 90 -9 90 11 90 11 0 20 -4 20 -9z
m-345 -127 l0 -101 -72 0 c-59 -1 -73 2 -73 14 0 12 3 13 14 4 10 -9 22 -2 55
29 23 23 40 47 38 53 -2 7 -24 12 -52 12 -43 0 -50 -3 -65 -29 -29 -53 -40
-44 -38 31 0 37 3 53 5 36 3 -26 9 -33 26 -33 50 0 84 49 55 79 -11 10 -1 11
47 9 l60 -3 0 -101z m-438 -54 c5 -71 4 -220 -1 -412 -3 -105 10 -289 28 -375
l13 -63 -48 0 c-45 0 -48 2 -59 34 -10 32 -8 269 4 336 6 36 15 159 21 270 15
314 18 355 27 320 5 -19 12 -69 15 -110z m717 -39 c4 -42 8 -92 11 -111 3 -30
2 -32 -8 -16 -19 31 -47 57 -55 52 -4 -3 -9 23 -10 57 -1 34 -5 79 -8 100 l-6
39 35 -23 c33 -22 35 -26 41 -98z m733 87 c-3 -8 -6 -5 -6 6 -1 11 2 17 5 13
3 -3 4 -12 1 -19z m25 -73 c3 -14 2 -25 -2 -25 -4 0 -10 13 -12 29 -5 36 8 32
14 -4z m-1845 -67 c-3 -8 -6 -5 -6 6 -1 11 2 17 5 13 3 -3 4 -12 1 -19z m1860
-20 c-3 -8 -6 -5 -6 6 -1 11 2 17 5 13 3 -3 4 -12 1 -19z m-1860 -223 c1 -114
3 -208 5 -211 5 -4 -4 -66 -17 -124 -8 -37 -13 -474 -6 -560 8 -96 3 -200 -9
-200 -6 0 -10 6 -10 14 0 7 -14 27 -30 45 -17 17 -28 36 -25 41 4 6 8 72 10
148 2 75 7 155 10 177 11 75 20 243 14 266 -3 13 -3 31 1 39 4 8 10 76 14 150
10 218 28 430 36 425 4 -2 7 -97 7 -210z m1557 199 c3 -8 2 -12 -4 -9 -6 3
-10 10 -10 16 0 14 7 11 14 -7z m233 10 c18 -5 21 -11 17 -33 -3 -14 0 -39 7
-56 7 -16 13 -34 15 -40 43 -160 44 -166 28 -191 -9 -13 -25 -24 -35 -24 -15
0 -17 5 -13 29 3 16 -2 55 -11 87 -9 32 -21 83 -26 113 -23 131 -23 126 18
115z m-1112 -20 c17 -11 41 -15 75 -12 l50 3 -2 -82 c-3 -79 -3 -81 -21 -62
-12 13 -23 17 -30 11 -7 -5 -33 -12 -59 -14 -46 -5 -48 -4 -48 19 0 23 2 24
58 20 63 -6 82 3 82 39 0 26 -30 47 -55 38 -12 -5 -15 -14 -10 -32 6 -24 5
-25 -40 -19 -26 2 -52 10 -58 17 -9 9 -5 11 21 5 28 -6 33 -3 41 17 8 19 5 27
-17 45 -31 26 -23 31 13 7z m1204 -26 c5 -24 14 -61 20 -82 15 -59 1 -66 -19
-10 -15 44 -26 134 -16 134 3 0 9 -19 15 -42z m-514 5 c0 -35 41 -53 85 -36
36 13 45 4 24 -25 -20 -29 -40 -27 -96 8 -52 32 -58 45 -30 66 9 7 17 14 17
14 1 0 1 -12 0 -27z m-268 -45 c-3 -8 -6 -5 -6 6 -1 11 2 17 5 13 3 -3 4 -12
1 -19z m143 -41 c0 -5 -4 -5 -10 -2 -5 3 -10 14 -10 23 0 15 2 15 10 2 5 -8
10 -19 10 -23z m486 -8 c1 -13 5 -37 9 -54 4 -16 10 -47 12 -67 5 -36 3 -38
-21 -38 -35 0 -74 -21 -110 -59 -16 -17 -33 -28 -38 -25 -5 3 -28 -2 -52 -11
-43 -17 -126 -17 -234 0 -46 8 -96 -1 -88 -14 3 -5 -1 -14 -9 -21 -13 -11 -15
-5 -15 41 0 30 -3 72 -7 94 -6 39 -5 39 13 24 10 -9 36 -17 57 -17 35 -1 38 0
31 21 -5 12 -8 36 -9 52 0 17 -4 36 -9 43 -15 24 0 22 46 -7 58 -37 150 -54
187 -35 14 8 34 14 43 14 10 0 32 15 51 33 27 27 38 32 55 26 19 -7 24 -4 32
16 8 20 13 23 32 16 14 -5 24 -17 24 -32z m-879 -41 c-2 -13 -4 -5 -4 17 -1
22 1 32 4 23 2 -10 2 -28 0 -40z m-47 -52 c0 -15 -7 -26 -19 -29 -28 -7 -34
19 -8 37 28 19 27 20 27 -8z m330 -5 c0 -6 -4 -13 -10 -16 -5 -3 -10 1 -10 9
0 9 5 16 10 16 6 0 10 -4 10 -9z m-60 -51 c0 -5 -2 -10 -4 -10 -3 0 -8 5 -11
10 -3 6 -1 10 4 10 6 0 11 -4 11 -10z m-272 -107 l-3 -58 -58 -3 c-40 -2 -57
0 -52 8 3 5 17 7 31 4 27 -7 43 18 26 39 -15 17 -4 55 17 60 40 11 42 9 39
-50z m338 -19 c-1 -23 -6 -34 -16 -34 -28 0 -41 17 -45 58 l-4 41 33 -15 c27
-14 32 -21 32 -50z m-497 30 c2 -2 -7 -12 -20 -23 -22 -18 -25 -18 -31 -3 -14
35 -9 44 19 37 16 -4 30 -8 32 -11z m1011 -51 c0 -10 -5 -36 -9 -58 -5 -22
-12 -78 -16 -125 -8 -112 -11 -135 -18 -147 -3 -5 -8 -56 -11 -114 -14 -282
-19 -337 -33 -374 -9 -22 -17 -53 -18 -70 -3 -39 -40 -206 -73 -325 -14 -52
-25 -114 -25 -136 0 -40 -2 -43 -46 -62 -25 -12 -74 -24 -108 -28 -64 -6 -170
2 -190 14 -7 4 -14 27 -17 51 -5 40 -16 70 -16 43 0 -7 -4 -12 -10 -12 -15 0
-12 21 5 34 8 6 20 38 26 70 6 32 28 91 48 130 39 73 74 165 86 226 4 19 13
46 20 60 23 46 -9 71 -39 29 -14 -21 -15 -20 -24 17 -43 177 -66 279 -77 349
-14 88 -14 94 30 230 9 28 21 66 27 85 15 47 39 79 61 80 10 0 28 6 40 14 17
11 42 12 117 6 92 -9 134 -6 155 11 6 4 28 9 50 12 22 2 46 4 53 5 6 1 12 -6
12 -15z m-537 -62 c5 -5 0 -34 -11 -67 -11 -33 -34 -104 -50 -159 -17 -55 -34
-111 -38 -125 -4 -14 -8 -29 -9 -35 -1 -5 -4 -17 -7 -25 -20 -51 -60 -297 -64
-400 -6 -125 -19 -176 -56 -217 -11 -12 -18 -28 -15 -36 3 -8 -6 -54 -19 -103
-14 -49 -27 -104 -31 -122 -7 -42 -18 -46 -86 -33 -131 24 -267 122 -265 189
1 28 7 37 34 49 32 16 33 17 32 87 0 39 3 166 7 281 l6 210 29 8 c36 9 41 24
30 94 -11 71 -23 369 -15 393 5 15 11 16 43 9 20 -5 64 -9 97 -8 186 0 282 6
300 17 21 13 73 8 88 -7z m1247 -258 c0 -5 -12 -16 -25 -26 -19 -13 -25 -15
-25 -4 0 7 5 18 12 25 13 13 38 16 38 5z m156 -59 c-3 -8 -10 -14 -16 -14 -14
0 -13 37 2 63 13 22 13 22 16 -6 2 -16 1 -35 -2 -43z m-246 -25 c0 -8 16 -10
48 -7 l47 5 1 -48 c0 -36 -3 -46 -12 -38 -14 12 -44 1 -44 -16 0 -16 35 -29
50 -20 5 3 10 -3 10 -14 0 -17 -6 -21 -30 -21 -16 0 -30 -2 -30 -4 0 -20 16
-36 35 -36 20 0 25 -6 30 -44 10 -65 12 -306 3 -306 -5 0 -3 -9 4 -19 9 -15 9
-31 -2 -75 -14 -61 -8 -431 10 -616 12 -119 20 -232 25 -380 2 -64 9 -128 14
-143 6 -16 11 -48 11 -73 0 -48 -9 -53 -54 -33 -18 8 -33 9 -55 1 -19 -7 -33
-7 -36 -1 -4 5 -15 9 -26 9 -10 0 -19 5 -19 10 0 6 5 10 10 10 6 0 10 12 10
26 0 17 6 28 20 31 11 3 20 9 20 13 0 5 3 16 7 26 5 15 2 16 -24 11 -25 -5
-30 -3 -29 11 0 10 12 19 26 22 16 3 26 13 28 28 3 21 -6 27 -35 23 -8 -1 -13
9 -13 24 0 27 9 32 27 14 17 -17 53 -2 46 19 -9 24 -36 49 -49 45 -13 -4 -27
24 -19 38 4 5 16 2 29 -6 19 -13 25 -13 41 -1 17 12 17 14 -3 34 -12 12 -31
22 -41 22 -20 0 -37 17 -28 26 3 3 14 1 25 -5 14 -7 24 -7 38 4 17 12 17 15 4
29 -8 8 -26 17 -40 19 -37 6 -31 31 8 37 18 3 33 8 32 13 0 4 0 14 0 22 0 10
-11 15 -35 15 -43 0 -49 27 -8 32 41 4 43 36 4 51 -35 13 -41 27 -11 27 11 0
23 7 26 15 8 19 -15 48 -32 41 -7 -3 -15 -2 -18 2 -9 15 -15 345 -6 336 4 -5
11 -70 15 -144 6 -140 16 -170 50 -156 13 5 15 12 10 29 -4 12 -9 87 -11 167
-3 112 -7 146 -17 148 -8 2 -20 -4 -27 -13 -22 -26 -28 -17 -27 48 0 34 -1
109 -3 167 -2 94 7 250 15 258 2 2 14 -2 26 -9 l23 -12 -24 -19 c-23 -19 -24
-21 -6 -33 22 -16 43 -10 51 16 4 10 11 19 16 19 6 0 9 10 7 22 -4 30 -54 55
-79 40 -15 -10 -19 -7 -24 19 -9 40 -2 279 8 279 4 0 7 -5 7 -11z m-1200 -91
c0 -25 29 -156 41 -183 4 -11 13 -42 18 -70 6 -27 18 -77 27 -110 16 -58 16
-62 -5 -118 -29 -74 -40 -85 -154 -146 -91 -49 -95 -43 -46 65 29 63 33 82 39
209 5 87 15 168 28 215 11 41 24 96 27 122 7 46 25 58 25 16z m1447 16 c-3 -3
-12 -4 -19 -1 -8 3 -5 6 6 6 11 1 17 -2 13 -5z m-2071 -298 c-3 -99 -6 -211
-6 -250 l0 -71 -36 -20 c-20 -10 -44 -29 -54 -42 -25 -32 -28 -18 -24 117 2
63 3 143 3 178 1 35 5 61 10 58 19 -12 29 22 25 84 -2 36 -4 82 -4 102 0 20
-4 39 -10 43 -5 3 -10 12 -10 20 0 10 15 7 56 -13 l55 -27 -5 -179z m1534 130
c29 -30 59 -67 67 -84 17 -35 45 -51 95 -55 37 -2 55 -17 21 -17 -10 0 -35
-16 -57 -35 -35 -33 -37 -39 -31 -73 12 -62 22 -66 75 -27 39 28 55 32 46 10
-3 -8 -1 -52 5 -96 5 -45 12 -149 14 -233 5 -182 13 -382 20 -491 l4 -80 -153
1 c-169 1 -212 -8 -218 -47 -2 -17 -12 -25 -38 -30 -47 -10 -183 -20 -308 -23
l-103 -3 3 41 c4 47 6 50 31 40 21 -8 59 22 55 45 -1 9 6 29 16 44 21 30 25
69 12 105 -7 21 -5 23 12 18 37 -12 50 47 18 82 -22 25 -14 42 20 42 20 0 24
5 24 30 0 31 -34 129 -74 215 l-24 50 39 150 c21 83 38 160 39 173 0 14 6 22
17 22 19 0 76 52 213 192 47 49 90 88 96 88 6 0 35 -24 64 -54z m141 -63 c5
-14 7 -28 4 -31 -8 -8 -34 30 -35 51 0 24 19 12 31 -20z m69 -142 c0 -22 -55
-66 -70 -56 -20 12 28 74 58 75 6 0 12 -9 12 -19z m-1220 -92 c0 -6 -4 -7 -10
-4 -5 3 -10 11 -10 16 0 6 5 7 10 4 6 -3 10 -11 10 -16z m86 -221 c-3 -13 -6
-30 -6 -38 0 -15 -91 -120 -104 -120 -3 0 -6 6 -6 13 0 8 -8 21 -18 30 -10 9
-18 28 -17 43 0 23 6 29 42 39 23 7 54 22 69 34 34 27 48 27 40 -1z m-707
-115 c1 -13 -3 -23 -9 -23 -5 0 -10 19 -9 43 0 32 2 37 9 22 5 -11 9 -30 9
-42z m140 -51 c68 -65 231 -120 315 -108 35 6 52 15 74 42 l29 35 6 -43 c5
-31 2 -46 -8 -54 -8 -6 -15 -23 -15 -37 0 -14 -4 -29 -10 -32 -5 -3 -10 -28
-10 -54 0 -64 -46 -158 -67 -137 -4 3 -5 28 -4 55 1 27 -3 52 -8 56 -6 3 -6
17 1 36 11 33 -5 89 -26 89 -24 0 -50 -28 -52 -56 -1 -16 -3 -32 -3 -36 -1 -3
-9 -4 -19 -1 -10 2 -25 -3 -32 -12 -12 -14 -11 -26 2 -76 9 -32 12 -59 7 -59
-5 0 -9 5 -9 11 0 7 -11 9 -28 6 -24 -5 -31 -1 -45 23 -21 35 -21 43 -1 86 9
19 14 41 10 49 -7 18 -37 20 -54 3 -9 -9 -12 -9 -12 0 0 7 5 12 10 12 6 0 15
10 20 23 5 12 17 31 25 42 13 19 13 23 -1 43 -31 45 -120 16 -108 -35 5 -18 3
-24 -5 -19 -6 4 -11 13 -11 19 0 7 -4 18 -9 26 -8 12 -13 12 -36 -3 -22 -14
-26 -23 -20 -44 4 -15 15 -36 26 -48 16 -17 18 -26 10 -46 -5 -14 -8 -45 -7
-68 l3 -42 -24 25 c-21 21 -23 28 -14 46 9 17 9 27 -3 49 -29 52 -33 67 -39
131 -5 64 -5 65 30 97 28 26 34 37 28 56 -4 12 -9 32 -12 42 -3 12 8 3 28 -20
18 -21 49 -54 68 -72z m-613 -4 c3 -4 -17 -8 -45 -9 -45 -4 -68 4 -41 13 15 5
80 2 86 -4z m167 3 c10 0 16 -5 12 -10 -3 -6 -41 -9 -85 -8 -72 2 -88 5 -76
18 4 3 99 4 149 0z m-318 -12 c-3 -4 -22 -7 -42 -8 -21 0 -86 -2 -144 -5 -59
-2 -118 -1 -133 1 -60 12 -8 18 153 19 93 0 168 -3 166 -7z m40 1 c-3 -5 -10
-10 -16 -10 -5 0 -9 5 -9 10 0 6 7 10 16 10 8 0 12 -4 9 -10z m1272 -106 c40
-23 163 -48 191 -40 9 3 48 8 87 11 73 6 136 30 186 73 36 30 48 22 56 -37 4
-30 2 -41 -7 -41 -8 0 -21 -7 -31 -16 -19 -17 -16 -37 10 -68 12 -14 13 -20 4
-23 -7 -3 -23 -13 -35 -23 -20 -16 -21 -22 -10 -39 15 -25 16 -67 1 -76 -5 -4
-9 -20 -7 -35 2 -16 -1 -29 -7 -29 -6 0 -10 25 -10 57 0 56 0 57 -27 54 -24
-2 -28 1 -28 22 0 14 8 41 17 60 16 34 16 37 -2 56 -23 25 -49 25 -91 0 -40
-26 -52 -55 -30 -79 19 -21 20 -31 4 -31 -7 0 -23 -9 -36 -18 l-24 -18 22 -37
21 -36 -22 -31 -23 -30 -12 22 c-7 13 -21 23 -31 23 -24 0 -28 36 -8 74 9 18
13 41 9 55 -5 22 -10 24 -35 19 -32 -6 -35 0 -14 37 19 33 18 45 -1 65 -19 19
-68 12 -97 -13 -15 -13 -17 -24 -12 -52 13 -65 12 -105 -3 -140 l-15 -35 -11
28 c-5 15 -17 27 -25 27 -12 0 -13 2 -4 8 18 11 19 52 4 91 -11 24 -11 35 -2
44 14 14 15 54 1 62 -5 3 -10 21 -10 40 0 19 -4 37 -10 40 -5 3 -10 21 -10 38
l1 32 18 -35 c11 -19 36 -45 58 -56z m-864 34 c-6 -10 -120 -10 -126 0 -3 4
26 7 63 7 38 0 66 -3 63 -7z m-146 -4 c-3 -3 -12 -4 -19 -1 -8 3 -5 6 6 6 11
1 17 -2 13 -5z m504 -57 c-8 -8 -11 -7 -11 4 0 9 3 19 7 23 4 4 9 2 11 -4 3
-7 -1 -17 -7 -23z m-421 -1 c0 -3 -4 -8 -10 -11 -5 -3 -10 -1 -10 4 0 6 5 11
10 11 6 0 10 -2 10 -4z m40 0 c0 -11 -19 -15 -25 -6 -3 5 1 10 9 10 9 0 16 -2
16 -4z m354 -61 c-6 -35 -1 -40 34 -36 6 1 12 -3 12 -9 0 -5 -4 -10 -10 -10
-5 0 -14 -16 -19 -36 -8 -31 -7 -41 8 -60 10 -13 22 -40 25 -59 5 -26 16 -42
38 -55 35 -21 48 -18 48 11 0 12 5 19 13 16 6 -2 24 5 40 15 31 22 37 70 13
103 -12 17 -12 21 5 33 30 21 40 6 33 -48 -6 -46 -5 -50 35 -92 22 -25 38 -48
35 -51 -11 -10 -7 -171 6 -252 8 -44 24 -104 36 -132 26 -58 24 -74 -8 -88
-12 -6 -26 -18 -32 -28 -17 -28 14 -46 72 -39 26 2 44 1 40 -3 -11 -11 11 -35
31 -35 21 0 110 -46 136 -71 45 -42 93 -79 102 -79 14 0 133 -78 133 -87 0
-10 -71 -33 -100 -33 -12 0 -30 -4 -40 -10 -11 -6 -29 -6 -47 0 -15 5 -59 11
-98 14 -143 11 -256 42 -313 86 -16 13 -40 20 -70 20 -33 0 -52 6 -69 22 -27
25 -30 50 -6 46 26 -5 30 32 4 39 -23 6 -27 24 -11 52 9 17 -1 93 -26 194 -5
21 -1 34 15 50 19 21 19 25 6 44 -13 18 -12 21 10 31 33 15 32 26 -11 64 -64
58 -90 132 -87 246 1 28 -2 52 -6 52 -7 0 -7 64 -1 150 2 16 21 60 27 60 2 0
1 -16 -3 -35z m605 -51 c-10 -12 -14 -12 -20 -2 -6 8 -2 18 9 26 21 16 30 -2
11 -24z m266 -29 c-10 -27 -14 -33 -15 -18 0 12 -4 25 -10 28 -5 3 -10 11 -10
16 0 6 4 8 8 5 4 -2 14 -1 22 4 20 13 21 9 5 -35z m-425 -71 c0 -43 22 -81 67
-117 20 -16 23 -28 23 -82 l0 -63 -62 -7 c-90 -9 -100 -13 -96 -38 3 -21 8
-22 81 -20 l77 2 0 -32 0 -32 -65 -1 c-47 0 -70 -5 -84 -18 -19 -17 -20 -17
-19 0 0 11 -5 52 -11 93 -14 93 -5 249 18 293 9 18 25 45 36 59 24 32 35 21
35 -37z m200 0 c0 -7 -4 -16 -10 -19 -27 -17 5 -109 42 -118 11 -3 18 -14 18
-29 0 -28 26 -68 44 -68 24 0 42 35 45 87 1 7 11 21 22 32 21 20 23 50 4 94
-5 13 -2 17 12 17 10 0 24 5 31 12 9 9 12 8 12 -5 0 -10 10 -22 23 -28 19 -9
23 -17 19 -42 -2 -18 -11 -37 -19 -44 -9 -7 -17 -25 -19 -40 -11 -83 -16 -145
-15 -203 1 -56 -2 -67 -22 -82 -18 -14 -20 -19 -9 -29 6 -7 12 -21 12 -30 0
-27 14 -30 63 -17 43 11 47 10 80 -15 20 -15 45 -27 57 -27 11 0 32 -7 45 -16
13 -8 34 -14 47 -13 13 2 37 -6 53 -18 34 -24 150 -79 180 -86 71 -15 -200
-46 -330 -38 -72 5 -105 9 -136 19 -84 27 -183 31 -208 8 -12 -11 -21 -14 -26
-7 -3 6 -14 11 -24 11 -25 0 -71 52 -71 80 0 14 4 66 9 115 11 110 12 292 2
362 -6 41 -3 60 11 89 10 21 18 45 18 55 0 12 6 16 20 12 11 -3 20 -11 20 -19z
m2114 -125 c-6 -11 -31 -12 -37 -1 -3 4 6 8 19 8 13 1 21 -2 18 -7z m-1029
-58 c-3 -11 -2 -22 3 -25 5 -3 8 -18 6 -33 -2 -16 -6 -65 -9 -111 -5 -88 -10
-106 -26 -96 -6 3 -70 8 -142 10 -159 4 -192 9 -215 34 -26 28 -99 36 -280 30
-90 -3 -166 -1 -169 3 -3 5 -2 23 1 40 6 31 8 32 58 33 79 1 294 21 418 38 33
5 62 28 55 44 -3 9 -3 13 1 10 3 -4 13 -1 20 7 11 10 43 13 134 11 90 -2 123
1 132 11 15 18 20 16 13 -6z m-2940 -1 c-3 -5 -14 -10 -23 -9 -14 0 -13 2 3 9
27 11 27 11 20 0z m3978 -97 c-13 -2 -35 -2 -50 0 -16 2 -5 4 22 4 28 0 40 -2
28 -4z m-3841 -82 c16 -6 -6 -8 -67 -8 -105 0 -171 -9 -203 -30 -15 -9 -34
-12 -52 -8 -16 3 -37 2 -47 -3 -20 -11 -113 12 -113 28 0 8 14 13 95 34 31 7
361 -3 387 -13z m108 5 c0 -11 -19 -15 -25 -6 -3 5 1 10 9 10 9 0 16 -2 16 -4z
m3555 -36 c-7 -12 -85 -14 -85 -2 0 5 21 10 46 10 28 2 43 -2 39 -8z m-1352
-22 c12 -6 27 -18 33 -26 16 -22 148 -40 332 -44 l113 -3 -7 -45 c-12 -74 -10
-81 18 -103 22 -16 44 -21 117 -22 86 -2 91 -1 116 25 23 24 26 35 24 76 l-3
49 34 3 c18 2 59 -3 90 -12 76 -21 239 -38 390 -40 l124 -1 7 -35 c4 -19 7
-71 6 -115 l-2 -80 -30 2 c-16 2 -73 6 -125 9 -52 4 -102 10 -110 14 -8 4 -83
7 -165 7 -97 0 -158 4 -172 11 -12 7 -48 15 -80 17 -32 3 -83 8 -113 10 -30 3
-75 11 -100 19 -59 17 -139 20 -190 6 -71 -19 -43 -45 31 -29 44 10 129 -4
129 -22 0 -11 45 -19 140 -23 94 -5 140 -13 140 -27 0 -8 -54 -13 -130 -11
-405 6 -405 6 -430 -10 -28 -17 -73 -17 -240 1 -106 11 -174 27 -166 39 4 6
137 6 196 -1 56 -6 180 30 180 53 0 6 7 10 16 10 11 0 14 8 12 27 -3 28 -13
35 -98 69 -25 10 -71 33 -102 51 -31 18 -69 33 -85 33 -15 1 -39 7 -53 15 -14
8 -33 14 -42 15 -9 0 -34 11 -54 25 -20 14 -47 25 -60 25 -13 0 -24 4 -24 9 0
11 127 31 225 34 44 2 81 4 83 5 2 1 13 -3 25 -10z m1692 -20 c18 -16 -18 -28
-70 -23 -27 3 -80 6 -117 8 -64 2 -84 9 -55 19 6 3 43 6 82 7 38 2 71 4 73 6
7 6 77 -7 87 -17z m-2499 -13 c11 4 37 8 59 9 l40 1 -3 -41 c-4 -47 -8 -48
-92 -21 -33 10 -46 20 -51 40 -6 23 -5 25 11 15 10 -6 25 -8 36 -3z m2174 -52
c0 -16 -11 -18 -90 -19 -71 0 -87 2 -79 12 11 13 46 19 127 22 34 2 42 -1 42
-15z m-2100 -113 c0 -15 11 -39 25 -54 34 -37 32 -39 -15 -15 -22 12 -40 28
-40 36 0 8 -5 13 -12 11 -18 -6 -57 40 -51 61 4 17 8 17 49 3 38 -12 44 -18
44 -42z m178 -122 c10 -10 17 -10 32 0 15 9 26 10 40 2 11 -6 24 -9 28 -6 4 2
29 0 56 -6 40 -8 47 -13 43 -29 -4 -16 4 -22 46 -34 29 -8 55 -15 59 -15 4 -1
26 -7 47 -15 36 -12 166 -24 326 -30 33 -1 75 4 93 11 40 16 151 19 213 7 26
-6 114 -8 195 -5 82 3 226 4 319 2 94 -1 232 -3 307 -4 84 -1 138 -5 139 -11
7 -64 6 -85 -2 -86 -5 -1 -15 -2 -21 -3 -7 -1 -18 1 -24 6 -11 8 -527 3 -651
-6 -35 -2 -63 -1 -63 3 0 27 -168 46 -385 43 -230 -2 -372 22 -595 101 -47 16
-121 34 -165 40 -44 6 -82 12 -84 13 -5 5 20 34 28 34 4 0 13 -6 19 -12z
m1575 -55 c-13 -2 -35 -2 -50 0 -16 2 -5 4 22 4 28 0 40 -2 28 -4z m-1451 -47
c73 -30 268 -85 343 -97 44 -6 181 -13 305 -14 124 -1 231 -3 238 -3 6 -1 12
-11 12 -22 0 -11 5 -20 10 -20 6 0 10 -4 10 -8 0 -5 -109 -10 -242 -11 -134
-1 -343 -3 -465 -4 -205 -3 -262 3 -198 19 16 4 25 13 25 25 0 10 5 19 10 19
39 0 -34 90 -94 116 -26 11 -27 13 -9 14 12 0 37 -6 55 -14z m1728 -146 c24
-2 24 -2 -5 -11 -37 -12 -429 -19 -516 -9 -75 9 -84 8 226 16 110 3 201 7 203
9 2 1 17 1 35 0 18 -2 43 -4 57 -5z M3691 6796 c-17 -20 -10 -71 9 -71 10 0
16 12 18 34 4 40 -9 58 -27 37z M3767 6054 c-9 -10 4 -34 19 -34 8 0 14 9 14
20 0 19 -19 27 -33 14z M3196 5267 c-17 -13 -17 -14 -1 -30 20 -21 29 -21 49
-1 36 36 -5 62 -48 31z M3742 2578 c-8 -8 -9 -15 -1 -25 15 -17 51 1 43 22 -7
18 -26 19 -42 3z M3773 2518 c-6 -7 -13 -42 -15 -77 -3 -59 -1 -64 20 -72 29
-11 35 2 36 89 1 54 -2 67 -15 70 -9 1 -21 -3 -26 -10z M3847 7904 c-9 -9 11
-44 26 -44 22 0 38 17 31 33 -6 17 -44 23 -57 11z M1816 7891 c-3 -5 1 -11 9
-14 9 -4 12 -1 8 9 -6 16 -10 17 -17 5z M2375 5920 c-13 -21 17 -38 78 -45 67
-7 192 -43 266 -77 40 -19 71 -39 120 -79 7 -7 36 -20 65 -31 160 -61 265
-134 251 -178 -7 -23 38 -56 52 -37 10 13 10 40 -1 73 -15 48 -155 137 -266
169 -14 4 -50 24 -80 44 -119 81 -249 135 -368 156 -101 18 -109 18 -117 5z
M4675 1140 c-12 -20 6 -50 31 -51 13 -1 30 -2 36 -3 19 -1 22 32 4 49 -17 17
-62 20 -71 5z M3875 552 c-60 -5 -75 -12 -75 -32 0 -11 6 -20 14 -20 17 0 24
-78 15 -155 -3 -27 -7 -42 -8 -32 0 9 -5 17 -10 17 -4 0 -16 20 -25 44 -9 25
-39 73 -65 108 l-48 64 -65 -2 c-36 -1 -70 -4 -77 -8 -19 -12 -12 -36 12 -36
39 0 43 -12 44 -110 1 -52 2 -103 2 -112 1 -24 56 -25 65 -2 3 9 4 19 2 23 -8
12 -16 138 -9 144 5 6 40 -54 82 -140 l20 -43 70 0 c39 0 71 3 72 8 0 4 2 21
3 37 2 17 7 64 11 105 5 58 11 79 28 91 38 30 7 58 -58 51z M4085 545 c-17 -7
-44 -10 -60 -8 -21 3 -35 0 -45 -11 -11 -15 -10 -19 8 -32 21 -15 21 -34 -2
-63 -6 -8 -11 -49 -11 -93 l0 -78 63 0 c42 0 62 4 63 13 1 6 3 56 4 110 2 56
9 105 16 113 12 14 45 11 86 -8 42 -20 67 -139 43 -202 -9 -26 -9 -26 35 -26
52 0 60 12 64 94 2 58 -28 127 -68 155 -53 37 -151 55 -196 36z M4463 553
c-18 -2 -46 -17 -63 -33 -25 -23 -30 -36 -30 -72 0 -23 4 -48 8 -54 14 -22 52
-34 106 -34 48 0 58 -3 72 -25 14 -21 15 -31 6 -50 l-12 -25 69 0 c77 0 84 6
67 60 -14 46 -60 88 -105 95 -79 13 -90 17 -105 34 -16 17 -16 20 -1 35 23 23
95 22 101 -2 3 -9 16 -22 29 -28 20 -10 27 -8 44 8 43 39 21 82 -43 84 -25 1
-60 4 -78 6 -18 3 -47 3 -65 1z M395 533 c-40 -21 -40 -20 -26 -37 8 -10 9
-21 3 -33 -8 -16 -52 -182 -52 -197 0 -3 10 -6 23 -6 16 0 26 9 34 30 10 27
15 30 56 30 25 0 57 4 70 9 25 10 34 0 51 -51 4 -14 16 -18 52 -18 46 0 46 0
41 29 -4 16 -20 60 -38 98 -17 37 -38 84 -46 103 -19 42 -33 53 -50 38 -9 -7
-13 -7 -13 0 0 6 -13 10 -29 10 -15 -1 -32 2 -37 5 -5 3 -23 -2 -39 -10z m84
-98 c17 -30 31 -57 31 -60 0 -2 -23 -4 -51 -3 l-50 1 7 41 c6 39 20 76 28 76
2 0 18 -25 35 -55z M1318 545 c-2 -2 -49 -5 -106 -8 -111 -5 -137 -15 -103
-40 20 -13 21 -22 19 -126 l-3 -111 57 0 58 0 0 45 c0 51 18 60 42 23 13 -20
17 -21 32 -9 26 22 17 105 -11 109 -13 2 -27 -5 -36 -18 -19 -27 -25 -11 -17
44 5 37 8 41 38 43 26 2 32 -1 32 -17 0 -26 27 -37 45 -19 16 17 30 78 18 81
-17 3 -63 5 -65 3z M3005 542 c-11 -2 -24 -8 -30 -14 -14 -13 21 -37 45 -31
11 3 20 3 20 -1 0 -3 -25 -53 -55 -110 -30 -57 -55 -108 -55 -115 0 -6 15 -11
33 -11 31 0 35 5 73 77 21 42 54 99 72 127 35 55 38 65 20 71 -22 6 -102 11
-123 7z M50 401 l0 -141 40 0 c33 0 40 3 40 20 0 11 6 20 13 20 41 0 122 35
149 63 27 30 28 36 22 87 -4 30 -11 61 -17 68 -7 9 -40 12 -116 10 -58 -1
-112 1 -118 5 -10 6 -13 -22 -13 -132z m170 50 c5 -11 10 -24 10 -30 0 -19
-44 -40 -72 -34 -25 5 -28 10 -28 44 0 39 0 39 40 39 29 0 42 -5 50 -19z M825
524 c-91 -31 -154 -149 -129 -241 6 -20 13 -23 63 -23 l56 0 1 81 c0 65 4 84
20 99 25 25 100 34 108 14 5 -12 10 -13 28 -3 13 7 25 10 28 8 3 -2 6 8 8 23
3 22 -2 30 -22 38 -42 15 -122 18 -161 4z M2648 523 c-7 -8 -3 -16 12 -25 12
-7 31 -30 42 -52 19 -38 19 -38 0 -60 -29 -33 -59 -79 -66 -103 -6 -20 -4 -23
21 -23 23 0 34 10 59 50 l31 50 31 -50 c31 -50 32 -50 83 -50 60 0 60 -3 -6
99 -49 77 -52 97 -20 115 33 19 47 36 41 51 -7 18 -212 17 -228 -2z M3185 530
c-3 -5 3 -15 14 -21 18 -12 18 -15 4 -63 -8 -28 -23 -77 -34 -109 -25 -74 -24
-77 10 -77 25 0 31 6 41 34 11 36 31 45 84 41 24 -1 32 -8 41 -36 11 -32 15
-34 59 -37 46 -3 47 -2 40 20 -4 13 -11 38 -15 57 -4 18 -12 38 -18 44 -6 6
-11 17 -11 25 0 33 -42 108 -67 120 -32 14 -139 16 -148 2z m105 -61 c0 -11 7
-33 15 -49 9 -17 12 -31 8 -31 -5 -1 -21 -2 -36 -3 -24 -2 -27 1 -22 19 3 11
9 37 12 57 6 38 23 43 23 7z M2365 520 c-10 -16 14 -40 40 -40 25 0 44 -18 49
-46 2 -11 12 -39 21 -64 9 -25 20 -58 24 -75 6 -28 10 -30 63 -33 l57 -3 -16
48 c-9 26 -19 53 -23 58 -4 6 -12 33 -19 60 -25 107 -23 105 -112 105 -43 0
-81 -5 -84 -10z M1898 453 c-29 -4 -68 -45 -68 -70 0 -16 29 -60 65 -99 20
-21 31 -24 79 -23 77 3 93 16 81 65 -9 36 -13 39 -49 42 -37 3 -38 2 -32 -23
6 -25 5 -24 -35 13 -40 39 -45 66 -11 60 28 -4 45 11 31 28 -6 8 -17 13 -23
13 -6 -1 -23 -4 -38 -6z M1714 293 l-26 -28 28 -3 c16 -2 30 1 32 7 3 8 9 8
23 0 11 -5 36 -9 56 -7 35 3 35 3 17 25 -11 12 -37 24 -61 28 -38 6 -45 4 -69
-22z M873 304 c-14 -6 -18 -34 -5 -34 4 -1 42 -3 85 -7 78 -5 79 -5 75 18 -3
22 -8 24 -73 26 -38 1 -76 -1 -82 -3z M4360 275 c-11 -13 -5 -15 46 -15 56 1
58 1 34 15 -33 19 -64 19 -80 0z M1340 270 c-11 -7 -5 -10 23 -10 23 0 36 4
32 10 -8 13 -35 13 -55 0z"/>
</g>
</svg>
