<?xml version="1.0" standalone="no"?>
<!DOCTYPE svg PUBLIC "-//W3C//DTD SVG 20010904//EN"
 "http://www.w3.org/TR/2001/REC-SVG-20010904/DTD/svg10.dtd">
<svg version="1.0" xmlns="http://www.w3.org/2000/svg"
 width="500.000000pt" height="878.000000pt" viewBox="0 0 500.000000 878.000000"
 preserveAspectRatio="xMidYMid meet">
<metadata>
Created by potrace 1.16, written by Peter Selinger 2001-2019
</metadata>
<g transform="translate(0.000000,878.000000) scale(0.100000,-0.100000)"
fill="#000000" stroke="none">
<path d="M2220 8680 c-24 -30 -30 -45 -24 -62 6 -20 3 -19 -30 10 -40 35 -67
40 -86 17 -17 -21 4 -79 38 -104 l27 -20 -32 -11 c-40 -14 -53 -48 -27 -68 14
-10 33 -12 69 -7 109 15 110 14 84 -52 -10 -24 -11 -45 -3 -82 7 -32 7 -54 1
-60 -6 -6 -4 -25 7 -51 9 -22 16 -52 16 -66 0 -21 -3 -25 -17 -19 -10 4 -28
10 -41 13 -13 2 -30 15 -39 29 -13 20 -14 28 -3 48 14 27 8 87 -14 129 l-14
27 -28 -25 c-24 -20 -29 -32 -29 -70 0 -41 -3 -47 -28 -57 -15 -7 -32 -20 -38
-31 -17 -31 6 -48 65 -48 43 -1 54 -5 69 -25 18 -24 17 -25 -4 -25 -15 0 -19
5 -15 15 7 20 -8 19 -28 -1 -20 -20 -20 -43 -1 -50 18 -7 75 14 75 27 0 14 44
10 67 -6 16 -11 21 -23 18 -43 -2 -15 -9 -67 -15 -117 -7 -49 -16 -112 -20
-140 -4 -27 -5 -70 -1 -95 5 -38 0 -81 -24 -190 -2 -8 -4 -35 -4 -60 l-1 -45
-20 25 c-19 24 -21 24 -34 7 -12 -16 -12 -24 4 -61 32 -71 27 -159 -31 -581
-20 -146 -27 -173 -36 -147 -6 17 -16 15 -69 -10 -75 -35 -81 -52 -77 -230 2
-103 9 -171 20 -208 10 -34 16 -88 16 -140 -1 -47 3 -91 9 -98 6 -6 12 -38 14
-70 3 -55 2 -60 -30 -91 -34 -33 -34 -33 -45 -12 -7 12 -20 21 -31 21 -13 0
-25 12 -34 34 -17 41 -28 48 -72 48 -29 0 -33 2 -23 14 6 8 17 13 23 12 26 -6
86 66 86 102 0 6 -19 7 -43 4 -44 -6 -180 27 -192 46 -10 17 -35 11 -60 -14
-15 -15 -28 -20 -37 -15 -7 5 -25 9 -39 9 -26 0 -45 23 -34 40 3 4 22 6 44 3
32 -4 43 -1 69 23 38 36 51 74 25 74 -10 0 -26 -7 -36 -14 -13 -11 -28 -11
-60 -4 -66 15 -172 2 -231 -30 -57 -30 -66 -39 -59 -58 5 -14 -13 -54 -25 -54
-4 0 -13 14 -19 30 -15 40 -48 40 -92 -1 -24 -21 -37 -27 -44 -20 -6 6 -20 11
-31 11 -41 0 -141 -46 -180 -83 -38 -35 -40 -40 -23 -51 25 -19 22 -23 -33
-30 -27 -4 -52 -11 -55 -16 -3 -6 -13 -10 -20 -10 -27 0 -121 -68 -158 -113
-39 -48 -44 -70 -25 -112 10 -22 8 -28 -11 -49 -24 -25 -29 -41 -31 -96 l-1
-35 -27 31 c-15 17 -32 39 -37 49 -9 14 -15 16 -30 7 -11 -6 -28 -13 -38 -16
-15 -5 -17 -13 -11 -58 8 -61 8 -62 -1 -106 -7 -28 -5 -34 13 -39 20 -5 20 -5
1 -24 -23 -23 -25 -88 -4 -129 18 -35 69 -75 108 -84 16 -4 27 -13 27 -24 0
-9 14 -35 30 -56 17 -22 30 -47 30 -57 0 -9 7 -16 16 -15 10 0 18 -7 19 -19
12 -92 21 -124 44 -152 24 -31 30 -33 89 -33 l62 0 43 -56 c23 -31 57 -70 74
-87 18 -17 33 -36 33 -43 0 -9 31 -78 47 -103 1 -2 9 2 17 9 12 10 21 8 45 -9
16 -12 33 -30 36 -41 5 -16 2 -28 -24 -76 -3 -6 -24 -38 -45 -70 -22 -33 -49
-81 -62 -109 -13 -27 -23 -45 -23 -39 -1 7 -19 39 -41 72 -40 60 -77 86 -145
103 -16 4 -57 15 -90 24 -70 19 -162 9 -226 -24 -22 -12 -48 -21 -58 -21 -28
0 -111 -72 -111 -96 0 -18 -17 -34 -34 -34 -2 0 -21 14 -42 31 -22 17 -51 37
-67 45 l-27 15 1 -121 c0 -79 4 -118 11 -114 6 4 6 -1 -1 -14 -6 -11 -11 -35
-11 -52 l0 -32 25 30 c14 17 25 33 25 37 0 7 24 38 68 90 9 11 34 33 54 49 23
17 38 37 40 54 2 15 7 27 13 27 5 0 19 10 32 23 12 12 30 22 41 22 10 0 38 10
63 22 52 26 163 29 232 5 23 -8 61 -20 84 -26 43 -12 113 -72 113 -98 0 -18
42 -93 53 -93 8 0 27 -19 178 -176 47 -50 121 -115 165 -146 67 -47 85 -56
121 -55 36 1 44 6 69 43 40 59 84 86 151 93 38 4 59 12 67 24 16 25 -6 36 -58
29 -81 -10 -153 -56 -185 -117 -22 -42 -41 -58 -41 -34 0 5 -4 8 -9 4 -19 -11
-171 88 -219 143 -13 15 -51 56 -86 92 -58 62 -62 69 -65 117 -2 61 37 166 75
201 28 25 56 23 111 -9 33 -18 100 -36 118 -30 18 5 40 9 56 10 9 1 31 14 49
30 29 25 37 27 57 18 17 -8 27 -7 35 1 7 7 19 12 28 12 9 0 32 14 50 30 18 17
37 30 41 30 10 0 22 -58 24 -122 2 -31 5 -60 9 -66 12 -19 131 3 149 28 7 10
33 26 57 35 25 9 52 20 60 24 9 5 63 27 120 51 58 23 146 62 196 86 51 24 98
44 107 44 8 0 20 7 27 15 10 13 158 103 185 114 30 12 33 22 18 67 -8 25 -13
55 -10 67 3 12 7 31 10 43 3 11 14 36 26 54 11 18 18 37 15 41 -2 4 0 10 6 14
6 4 10 -6 10 -23 0 -28 26 -62 46 -62 6 0 16 -16 23 -35 7 -20 18 -34 24 -33
7 1 24 -1 40 -5 22 -6 26 -11 19 -25 -5 -9 -8 -33 -6 -52 2 -24 -5 -46 -22
-70 -27 -40 -48 -137 -39 -178 3 -15 14 -33 25 -40 25 -15 97 -13 111 5 6 7
15 13 20 13 4 0 -14 -30 -42 -66 -46 -61 -50 -70 -45 -108 7 -57 16 -88 32
-107 23 -26 12 -67 -51 -189 -7 -14 -20 -49 -29 -77 -10 -29 -22 -55 -27 -58
-5 -4 -9 -15 -9 -26 0 -16 -46 -115 -79 -169 -41 -66 -93 -195 -107 -263 -15
-75 -15 -102 0 -202 2 -11 4 -26 5 -33 0 -6 23 -35 49 -62 34 -35 54 -49 65
-44 14 5 17 -2 18 -42 2 -70 6 -100 18 -123 9 -16 6 -27 -14 -57 -25 -37 -50
-108 -46 -131 2 -13 -33 -15 -64 -3 -11 4 -47 13 -80 20 -33 6 -87 21 -120 32
-87 30 -341 150 -385 182 -8 6 -37 22 -63 35 -26 13 -62 42 -80 64 -18 21 -42
50 -55 63 -12 14 -22 26 -22 28 0 2 15 4 33 4 65 -1 152 14 168 28 8 8 19 14
24 14 4 0 27 16 51 35 23 19 46 35 50 35 13 0 128 114 146 145 26 47 58 115
64 140 8 33 -25 43 -48 15 -10 -12 -18 -30 -18 -40 0 -9 -8 -28 -19 -41 -10
-13 -21 -33 -25 -44 -9 -30 -43 -65 -119 -125 l-68 -53 -20 21 c-23 26 -49 18
-49 -14 0 -16 6 -24 17 -24 30 0 0 -19 -37 -24 -19 -2 -56 -7 -81 -11 -44 -7
-47 -6 -53 19 -4 17 -13 26 -26 26 -16 0 -20 -7 -20 -32 0 -33 -15 -29 -22 5
-7 38 -31 18 -43 -35 -5 -27 -28 -41 -24 -15 5 43 -2 67 -21 67 -25 0 -44 -43
-37 -86 6 -35 -7 -54 -36 -54 -15 0 -18 5 -13 25 7 29 -17 46 -37 26 -6 -6
-19 -11 -29 -11 -9 0 -22 -9 -28 -20 -6 -11 -15 -20 -21 -20 -6 0 -6 6 0 19 8
14 7 22 -3 30 -18 15 -43 5 -49 -21 -7 -27 -27 -14 -27 18 0 30 -29 45 -44 22
-15 -24 -57 84 -49 125 6 28 4 30 -21 25 -33 -7 -40 3 -24 37 14 31 -3 58 -24
37 -17 -17 -31 -15 -24 3 4 11 -3 19 -19 25 -30 11 -31 21 -5 38 22 14 27 42
7 42 -7 0 -22 -7 -34 -15 -19 -13 -22 -13 -27 1 -8 21 -8 21 13 27 21 5 46 43
33 51 -5 3 -21 -2 -36 -9 -16 -8 -32 -12 -37 -9 -17 10 -9 32 16 38 13 3 29
15 35 26 16 30 -15 38 -44 11 -46 -43 -69 -18 -26 29 34 36 37 48 14 57 -10 4
-25 -4 -41 -23 -20 -23 -26 -26 -33 -14 -14 22 -12 30 8 37 26 9 52 34 46 44
-9 15 -29 10 -53 -12 l-23 -22 -20 21 -20 20 28 13 c15 8 29 20 32 26 6 21
-27 27 -48 8 -21 -19 -53 -9 -64 21 -9 23 -8 24 22 24 16 0 31 3 35 6 6 7 -12
45 -28 56 -6 5 -5 12 3 20 33 33 -10 39 -45 6 -31 -29 -41 -15 -18 28 15 27
16 37 6 47 -10 9 -18 6 -37 -18 -29 -36 -32 -25 -4 20 23 37 18 65 -11 65 -10
0 -19 7 -19 15 0 17 -45 21 -55 5 -3 -5 -28 -10 -56 -10 -27 0 -58 -5 -68 -11
-25 -16 -59 -6 -121 36 -38 25 -58 33 -76 29 -33 -9 -63 -49 -56 -76 4 -16 2
-20 -10 -15 -9 3 -24 0 -33 -6 -13 -10 -14 -18 -6 -40 15 -39 14 -43 -6 -18
-16 20 -20 20 -38 7 -18 -13 -19 -17 -7 -48 25 -62 26 -76 2 -45 -47 59 -94 8
-50 -53 21 -29 21 -33 6 -48 -14 -15 -18 -14 -39 6 -15 14 -30 20 -40 16 -22
-8 -21 -20 3 -44 24 -24 25 -34 6 -49 -11 -9 -15 -9 -19 1 -3 7 -5 -36 -6 -97
l0 -110 19 57 c15 46 32 81 56 117 3 3 68 -62 114 -115 25 -29 159 -155 195
-185 11 -8 47 -46 79 -82 33 -37 65 -67 72 -67 6 0 46 -18 88 -41 42 -22 83
-38 91 -35 7 2 15 0 18 -7 2 -8 19 -7 63 3 60 15 76 24 128 75 20 19 42 30 64
30 17 1 32 -1 32 -5 0 -10 101 -110 111 -110 5 0 9 -9 9 -20 0 -28 37 -62 59
-55 11 3 25 -3 36 -15 10 -11 26 -20 35 -20 9 0 21 -5 27 -11 20 -20 174 -6
215 19 20 13 39 19 42 14 3 -5 16 -7 28 -5 17 3 42 -13 98 -62 41 -36 80 -65
87 -65 6 0 35 -19 64 -42 58 -46 119 -79 131 -72 5 3 8 1 8 -5 0 -21 248 -118
350 -137 21 -4 83 -17 93 -19 4 -2 22 -3 40 -4 67 -2 69 -10 37 -161 -15 -74
-36 -155 -45 -180 -9 -25 -20 -61 -25 -80 -18 -75 -21 -80 -49 -80 -18 0 -38
-12 -58 -33 -51 -53 -56 -166 -5 -115 9 9 12 6 12 -16 0 -23 4 -27 23 -24 16
2 23 11 25 31 2 15 9 27 17 27 7 0 39 -24 70 -53 l55 -54 -25 -11 c-14 -7 -33
-12 -41 -12 -21 0 -72 27 -114 60 -32 26 -46 29 -145 36 -61 4 -126 7 -145 8
-48 2 -131 -18 -163 -39 -28 -18 -35 -35 -16 -35 5 0 7 -5 3 -11 -8 -14 14
-29 44 -29 12 0 30 -8 40 -18 23 -23 119 -82 134 -82 7 0 32 -21 55 -47 40
-43 43 -49 33 -77 -7 -19 -7 -33 -1 -39 15 -15 43 13 38 35 -7 27 8 22 21 -7
12 -25 58 -50 117 -61 18 -3 49 -17 66 -30 29 -21 35 -22 48 -9 18 17 39 87
50 165 5 30 18 83 30 117 11 34 21 71 21 81 0 25 23 44 43 36 26 -10 38 27 17
54 -10 12 -23 22 -28 22 -25 0 -28 57 -7 138 8 31 24 94 35 140 11 46 26 97
34 115 7 18 23 77 35 132 21 94 21 100 5 112 -15 11 -21 11 -38 0 -21 -14 -21
-16 -31 -114 -3 -37 -11 -75 -16 -85 -6 -11 -12 -27 -14 -36 -2 -9 -15 -62
-29 -118 -15 -56 -28 -115 -29 -133 -3 -39 -12 -40 -26 -1 -5 16 -14 30 -19
30 -6 0 -13 7 -16 15 -7 19 28 87 39 77 5 -4 5 -2 2 4 -12 20 39 273 72 357 6
16 11 42 11 58 0 16 4 37 9 47 6 9 12 29 16 44 l5 27 46 -25 c41 -23 53 -25
107 -19 34 4 86 13 116 20 30 8 58 12 61 10 4 -3 21 -1 37 4 22 6 40 4 68 -9
l38 -17 -64 -21 c-115 -38 -193 -56 -263 -61 -42 -4 -71 -11 -74 -18 -6 -19
59 -16 163 6 80 18 90 18 100 4 10 -14 15 -14 44 2 18 9 30 12 26 6 -10 -18
-55 -37 -117 -50 -53 -11 -77 -25 -65 -37 9 -9 130 17 169 37 21 11 38 15 38
10 0 -18 -38 -36 -132 -62 -35 -10 -48 -18 -48 -31 0 -20 16 -18 94 9 55 19
66 16 28 -7 -18 -11 -38 -17 -44 -14 -6 4 -8 3 -5 -3 7 -11 -25 -27 -76 -39
-30 -7 -41 -19 -32 -34 4 -7 11 -8 18 -2 7 5 32 14 57 20 25 5 52 11 60 13 8
2 15 -3 15 -11 0 -10 -10 -15 -30 -15 -18 0 -29 -5 -28 -12 2 -7 -8 -15 -22
-19 -14 -3 -25 -12 -25 -19 0 -18 17 -28 25 -15 8 13 72 13 80 0 3 -5 -16 -12
-45 -16 -56 -7 -65 -24 -23 -43 l28 -13 -39 -19 c-53 -25 -53 -26 -26 -54 16
-17 34 -25 57 -25 34 0 39 -5 25 -28 -7 -10 -18 -9 -54 7 -45 19 -78 15 -63
-9 4 -7 27 -21 51 -31 l43 -20 -35 -62 c-19 -34 -40 -73 -47 -87 -6 -14 -14
-27 -17 -30 -3 -3 -16 -27 -28 -55 -20 -42 -26 -47 -35 -34 -23 31 -87 52 -87
29 0 -18 55 -61 73 -56 14 3 17 0 11 -17 -3 -12 -10 -26 -15 -31 -5 -6 -9 -18
-9 -27 0 -9 -7 -30 -15 -45 l-15 -29 0 28 c0 34 -53 89 -76 80 -19 -7 -18 -15
6 -46 11 -14 20 -29 19 -34 -1 -4 3 -21 10 -37 6 -16 9 -32 5 -35 -4 -3 -9 0
-12 8 -2 8 -20 31 -39 52 -30 33 -34 43 -28 71 4 18 14 46 22 61 19 38 12 53
-15 30 -14 -11 -31 -48 -47 -103 -13 -47 -41 -135 -62 -196 l-38 -111 -65 19
c-36 11 -94 28 -129 39 -34 10 -72 21 -82 24 -11 4 -19 2 -19 -5 0 -11 115
-70 136 -70 6 0 20 -8 32 -18 12 -9 39 -30 62 -46 22 -16 42 -38 45 -47 8 -23
80 -50 124 -47 21 2 46 14 64 31 28 26 36 28 125 30 72 2 104 -2 133 -15 l39
-17 35 34 c28 26 42 32 63 28 76 -14 166 -13 188 2 21 14 28 13 72 -4 44 -17
102 -27 127 -21 6 2 60 4 120 5 61 1 141 5 178 8 38 3 79 2 91 -3 28 -10 137
-22 242 -24 44 -2 85 -5 90 -8 5 -3 23 -4 39 -2 64 10 114 11 110 4 -3 -4 -20
-11 -40 -14 -19 -4 -62 -22 -96 -41 -33 -19 -64 -35 -69 -35 -4 0 -34 -32 -65
-70 -31 -39 -64 -70 -72 -70 -32 0 -93 -44 -168 -122 -71 -73 -135 -155 -135
-174 0 -3 -9 -18 -21 -32 l-20 -26 -427 3 c-235 2 -625 4 -867 5 -242 1 -447
5 -455 9 -24 10 -800 26 -1295 26 -373 -1 -536 2 -551 8 -10 4 -14 -4 -14 -30
l0 -35 103 0 c56 0 155 -1 220 -1 64 0 141 -1 170 -1 28 -1 165 -3 302 -5 316
-5 547 -14 650 -26 81 -9 501 -12 675 -4 127 6 380 5 884 0 303 -4 423 -2 432
6 10 8 14 8 14 1 0 -20 901 -18 1275 2 44 3 104 5 133 5 51 1 52 1 52 32 l0
31 -80 -4 c-44 -2 -80 1 -80 5 0 5 5 17 11 28 9 17 17 19 60 13 55 -7 67 8 19
25 -59 20 -25 43 45 30 12 -3 21 2 23 14 3 13 -3 17 -27 17 -17 0 -31 3 -31 6
0 3 14 23 30 44 28 35 30 43 30 124 0 72 -3 86 -16 86 -13 0 -15 -7 -10 -34 6
-31 5 -33 -19 -28 -27 5 -35 -14 -14 -35 7 -7 9 -19 5 -29 -5 -13 -9 -15 -18
-6 -15 15 -45 15 -53 1 -4 -5 0 -18 9 -28 21 -23 22 -49 1 -31 -17 14 -64 20
-70 9 -3 -4 6 -18 20 -31 22 -21 24 -26 11 -43 -13 -18 -15 -18 -39 -2 -28 18
-77 23 -77 8 0 -5 12 -19 28 -30 l27 -22 -52 4 c-61 4 -68 -8 -18 -29 20 -8
33 -19 30 -25 -4 -5 -1 -16 5 -24 16 -20 12 -19 -39 6 -49 24 -72 19 -68 -13
2 -23 2 -23 -145 -26 -139 -2 -148 -1 -148 17 0 42 46 100 81 101 9 0 24 9 34
20 10 11 27 23 39 26 11 4 35 17 52 30 17 13 36 24 42 24 6 0 19 11 30 24 12
16 31 26 53 28 24 2 34 8 34 21 0 9 34 52 75 95 112 117 139 149 132 156 -3 4
3 9 14 12 22 6 43 72 51 157 5 46 3 49 -39 87 -32 30 -63 46 -124 65 -45 14
-93 25 -107 25 -13 0 -44 7 -67 15 -24 8 -45 13 -47 11 -3 -3 -22 2 -44 9 -22
8 -42 14 -44 14 -14 -2 -81 14 -90 21 -6 5 -37 18 -70 31 -33 12 -67 27 -75
34 -8 7 -28 19 -45 27 -85 43 -166 99 -218 150 -32 32 -63 58 -69 58 -11 0
-185 181 -203 210 -68 114 -91 181 -100 280 -5 63 -2 85 17 140 39 111 88 160
238 239 83 43 124 80 118 107 -5 29 -36 29 -49 0 -11 -23 -94 -82 -164 -116
-44 -22 -152 -133 -169 -175 -9 -20 -19 -34 -24 -31 -4 2 -27 -6 -51 -20 -44
-25 -81 -31 -81 -14 0 5 -11 12 -25 16 -20 5 -23 10 -18 35 3 19 0 33 -11 44
-9 9 -16 26 -16 38 0 12 -3 32 -6 44 -5 17 1 25 24 37 18 9 36 30 45 53 8 21
29 51 46 67 39 38 39 49 -3 68 -38 18 -69 14 -105 -14 -33 -25 -55 -24 -41 1
22 43 -1 58 -54 36 -20 -8 -38 -15 -41 -15 -9 0 33 101 49 119 9 10 16 23 16
29 0 13 65 118 78 126 5 3 27 -4 50 -16 56 -27 92 -19 92 22 0 16 5 32 10 35
6 4 10 -13 10 -45 0 -116 60 -176 231 -229 19 -6 68 -11 107 -11 65 0 75 3
103 28 33 30 33 52 0 52 -10 0 -25 7 -32 17 -12 14 -12 17 0 21 8 3 25 16 38
28 13 13 27 24 31 24 4 0 24 -16 45 -36 20 -20 37 -31 37 -25 0 7 18 11 50 10
28 -1 53 0 56 4 13 12 -7 24 -49 30 -65 9 -133 51 -140 87 -6 30 -38 55 -127
101 -25 13 -40 28 -40 39 0 10 -11 27 -25 38 -14 11 -25 22 -25 24 0 2 22 4
49 5 29 0 58 7 72 17 13 9 42 29 64 45 56 39 85 101 85 184 0 57 -4 70 -33
113 -41 60 -105 96 -161 92 -46 -4 -63 -28 -19 -28 38 -1 121 -63 139 -105 18
-45 18 -109 -1 -146 -14 -25 -18 -28 -36 -18 -11 6 -27 8 -35 5 -8 -3 -17 1
-21 10 -8 21 2 27 25 15 22 -12 19 -17 38 78 5 27 2 29 -33 36 -24 4 -39 3
-41 -4 -2 -6 -11 -11 -19 -11 -8 0 -13 -6 -10 -12 3 -7 8 -21 12 -30 5 -12 -3
-26 -26 -47 l-33 -31 22 -23 c27 -29 27 -33 0 -40 -24 -7 -71 14 -106 47 -42
37 -69 109 -30 79 25 -20 78 -23 103 -7 25 16 39 50 24 60 -5 3 -9 14 -9 25 0
18 -4 20 -32 14 -39 -9 -58 -22 -58 -41 0 -18 -15 -18 -34 1 -24 24 -2 75 32
75 35 1 97 52 89 73 -11 30 -53 49 -91 41 -43 -8 -86 -39 -86 -63 0 -9 -14
-25 -30 -35 -22 -12 -30 -24 -28 -39 2 -14 -2 -22 -12 -22 -11 0 -14 9 -12 34
3 24 0 32 -10 28 -7 -2 -21 0 -30 4 -11 6 -21 4 -31 -5 -12 -13 -16 -12 -25 8
-6 13 -25 40 -42 59 l-31 36 40 -1 c39 0 40 -2 43 -37 2 -25 8 -37 21 -39 11
-2 17 3 17 15 1 17 1 17 11 1 5 -10 22 -18 36 -18 21 0 24 3 15 12 -18 18 -16
62 3 55 8 -4 17 -2 20 4 11 16 -5 47 -26 52 -12 3 -18 10 -14 16 3 6 10 9 15
6 14 -8 69 44 90 86 38 73 22 171 -43 266 -36 54 -40 57 -100 55 -28 0 -59 4
-70 9 -14 8 -22 8 -31 -1 -8 -8 -5 -16 14 -31 19 -15 35 -19 67 -15 34 4 41 3
37 -9 -4 -9 3 -16 20 -21 34 -8 44 -27 52 -106 8 -79 -9 -122 -62 -156 l-36
-23 3 23 c2 13 -1 29 -5 37 -11 17 21 44 46 38 24 -7 45 22 45 59 0 26 -6 34
-33 44 -20 8 -30 18 -27 27 7 18 -18 16 -46 -3 -19 -13 -22 -22 -17 -49 6 -31
5 -33 -29 -39 -42 -8 -54 -29 -31 -55 20 -22 21 -60 1 -68 -27 -10 -103 27
-134 64 -31 38 -45 82 -30 98 6 5 9 5 9 -2 0 -20 51 -73 70 -73 23 0 50 36 50
67 0 19 6 23 28 23 26 0 28 3 24 30 -2 17 -10 30 -18 30 -8 0 -14 9 -14 20 0
13 -7 20 -19 20 -18 0 -37 -18 -68 -66 -12 -18 -13 -18 -33 5 -28 32 -26 36
20 55 23 9 43 23 46 31 10 26 -6 65 -30 76 -50 23 -176 -43 -160 -84 3 -10 1
-17 -4 -17 -6 0 -18 -7 -27 -16 -9 -9 -18 -14 -21 -11 -12 12 11 82 32 102 31
29 30 45 -1 45 -14 0 -25 5 -25 10 0 6 -6 10 -13 10 -33 0 -47 35 -47 114 l0
77 29 -20 c16 -12 34 -21 40 -21 7 0 14 -6 17 -14 3 -8 29 -24 57 -36 29 -13
74 -41 102 -64 77 -64 82 -67 119 -76 25 -6 39 -4 47 6 8 10 3 16 -25 28 -20
8 -36 18 -36 22 0 4 15 25 33 48 33 41 50 76 61 128 8 34 -17 98 -38 98 -13 0
-15 -10 -9 -60 5 -55 4 -60 -14 -60 -16 0 -19 5 -15 25 7 40 -25 31 -48 -14
-25 -50 -61 -89 -77 -84 -14 5 -18 29 -5 35 18 8 70 86 75 113 8 43 -6 64 -32
48 -25 -16 -30 -7 -26 42 1 22 -3 55 -11 74 -12 28 -18 32 -37 27 -23 -5 -30
3 -65 77 -2 4 9 7 25 6 15 0 73 5 127 12 80 11 100 11 104 0 4 -13 11 -19 53
-51 l26 -19 -3 -143 c-1 -79 -4 -156 -7 -171 -3 -15 -24 -48 -46 -72 -48 -52
-50 -59 -16 -53 21 5 25 1 25 -19 0 -19 4 -24 16 -19 9 3 18 6 20 6 2 0 4 10
4 23 0 28 23 94 38 109 8 8 31 8 86 -1 41 -6 82 -8 90 -5 7 3 17 1 21 -5 3 -6
17 -11 31 -11 13 0 24 -5 24 -12 0 -6 6 -19 14 -27 25 -30 38 -115 43 -276 3
-125 1 -156 -8 -141 -6 10 -9 37 -6 62 2 25 0 47 -5 50 -15 10 -47 -26 -54
-61 -11 -59 81 -212 153 -255 29 -17 63 -18 63 -2 0 3 -26 33 -57 67 -89 95
-104 115 -87 115 8 0 14 -4 14 -9 0 -5 9 -12 19 -16 10 -3 22 -17 25 -30 5
-18 21 -31 54 -46 72 -32 75 -34 92 -62 25 -44 79 -77 124 -77 81 0 146 68
125 130 -9 25 -8 34 5 49 9 10 16 23 16 29 0 26 108 60 150 47 21 -7 21 -8
-14 -37 -47 -38 -47 -75 0 -98 l31 -15 -26 -50 c-26 -49 -27 -50 -81 -55 -50
-5 -55 -7 -56 -30 0 -17 -5 -24 -15 -21 -42 11 -56 11 -74 -3 -20 -16 -20 -16
-1 -31 11 -8 26 -15 33 -15 7 0 31 -11 53 -25 22 -14 44 -25 50 -25 5 0 10 -4
10 -10 0 -5 -12 -10 -27 -10 -16 0 -38 -3 -51 -6 -18 -5 -22 -2 -22 19 0 40
-21 50 -69 34 -22 -8 -52 -12 -66 -10 -18 4 -25 1 -25 -10 0 -9 -8 -21 -17
-26 -16 -10 -16 -11 5 -17 18 -5 23 -12 19 -30 -7 -36 17 -50 37 -22 25 36 19
11 -16 -59 l-31 -64 17 -54 c11 -37 26 -61 46 -75 36 -25 39 -47 8 -52 -18 -2
-24 -11 -26 -36 -4 -40 10 -60 46 -64 36 -4 41 -36 11 -59 -26 -19 -25 -23 8
-33 17 -6 29 -1 48 20 27 29 26 58 -1 80 -18 15 -18 28 1 20 8 -3 21 1 29 9
24 24 45 17 68 -20 19 -34 22 -35 64 -31 70 9 105 -39 68 -92 -8 -12 -21 -22
-28 -22 -6 0 -33 -13 -58 -29 -95 -60 -129 -174 -73 -246 39 -52 75 -45 90 18
8 31 11 32 31 13 11 -11 12 -21 4 -41 -18 -48 -12 -98 19 -147 16 -26 38 -51
48 -56 10 -6 63 -12 118 -13 l100 -4 -2 39 c-4 54 -24 81 -77 101 -34 13 -47
25 -56 48 -12 37 4 64 21 35 21 -37 104 -8 98 34 -6 43 -1 47 59 46 31 -1 67
2 80 6 18 7 21 5 16 -8 -5 -12 0 -16 20 -16 25 0 26 3 26 50 0 28 -4 50 -9 50
-4 0 -20 -11 -35 -25 -15 -14 -38 -25 -52 -25 -20 0 -23 4 -19 23 4 15 -1 32
-16 51 -22 28 -22 28 -1 22 12 -4 39 -2 62 5 36 11 42 10 55 -7 13 -18 14 -17
15 14 0 39 -17 48 -60 34 -28 -10 -30 -9 -30 14 0 19 5 24 24 24 41 0 74 49
64 97 -3 18 -30 21 -123 11 -26 -3 -30 0 -30 22 0 17 5 24 15 22 22 -5 103 19
123 36 10 9 17 29 17 49 0 30 -5 36 -36 49 -19 8 -59 39 -89 68 -48 49 -52 55
-37 70 14 13 14 19 2 42 -8 14 -31 33 -52 41 -21 8 -38 19 -38 24 0 12 27 11
35 -1 9 -15 72 -12 104 4 48 25 54 40 26 66 l-25 23 26 13 c14 8 28 13 32 12
4 -1 17 3 30 10 15 9 22 22 22 43 0 27 -3 30 -22 23 -13 -4 -27 -7 -33 -7 -36
0 -56 5 -69 19 -10 9 -34 15 -64 16 -43 0 -48 2 -48 21 1 18 -6 23 -33 25 -59
6 -95 -7 -144 -51 -43 -38 -54 -60 -56 -109 -1 -22 -23 -23 -64 -2 -42 22 -40
19 -26 42 10 17 10 23 0 36 -12 14 -10 16 18 16 55 0 88 27 126 106 24 48 22
64 -10 64 -12 0 -28 7 -36 16 -17 20 -3 44 37 63 33 16 64 41 64 51 0 8 -103
25 -135 21 -43 -4 -111 -26 -140 -44 -17 -11 -43 -42 -58 -68 -29 -53 -36 -56
-131 -43 -40 6 -46 10 -46 31 0 13 6 25 13 27 6 2 31 9 54 15 22 6 68 29 101
51 70 47 159 76 257 84 66 5 105 1 213 -22 49 -11 137 -67 193 -122 l39 -38 0
42 c0 35 -5 46 -27 62 -45 33 -144 86 -167 89 -11 2 -52 10 -91 18 -142 31
-325 -1 -441 -78 -59 -40 -105 -58 -128 -53 -23 5 21 93 68 137 20 19 36 40
36 46 0 24 -98 101 -184 145 -26 14 -51 32 -54 40 -9 25 -36 40 -59 35 -18 -4
-23 1 -29 28 -4 17 -7 37 -6 44 2 6 -3 15 -9 19 -13 7 109 42 152 43 14 1 30
-4 35 -9 6 -6 38 -12 72 -13 56 -2 61 -4 56 -22 -9 -28 -9 -26 0 -62 10 -42
47 -77 113 -108 63 -29 114 -32 137 -9 20 19 20 28 1 44 -19 16 -10 31 13 23
23 -9 45 -41 48 -71 4 -31 20 -49 66 -73 37 -19 58 -18 58 2 0 5 10 23 22 39
12 16 19 32 16 36 -13 12 -48 -8 -54 -32 l-6 -24 -28 20 c-17 12 -32 36 -40
65 -7 25 -21 50 -31 55 -23 13 -95 13 -120 0 -18 -10 -18 -12 -3 -36 9 -13 14
-27 11 -30 -9 -9 -89 31 -126 63 -32 28 -35 33 -33 87 2 74 6 79 53 72 53 -8
81 8 151 87 67 76 104 159 114 255 3 37 11 73 16 79 16 20 42 15 67 -11 l23
-25 -21 -27 c-25 -31 -20 -42 34 -82 47 -34 109 -56 131 -48 9 3 12 1 9 -4 -3
-6 -24 -10 -45 -10 -51 0 -60 -17 -24 -45 16 -13 26 -27 22 -31 -14 -13 -92
17 -125 48 -31 30 -32 30 -70 15 -46 -18 -52 -38 -21 -67 22 -20 22 -22 6 -34
-21 -16 -23 -49 -5 -65 8 -6 38 -15 67 -21 83 -16 170 -97 170 -160 0 -23 -28
-39 -39 -22 -3 6 -18 15 -33 21 -34 13 -54 -3 -60 -46 -5 -38 13 -44 43 -17
17 16 21 15 56 -12 21 -15 44 -34 51 -41 17 -17 27 -16 41 1 9 11 10 20 1 35
-6 12 -10 38 -9 58 1 21 2 48 1 61 -3 33 -105 129 -153 143 -23 7 -36 16 -32
23 4 7 1 6 -8 -1 -8 -7 -25 -10 -37 -6 -28 7 -30 43 -2 43 10 0 23 7 28 16 8
14 14 14 65 -1 71 -21 115 -13 123 21 4 13 1 31 -6 39 -10 12 -8 16 12 24 48
18 63 62 22 67 -95 12 -114 17 -145 43 -33 28 -33 30 -16 48 25 28 21 44 -17
86 -31 34 -52 42 -97 38 -9 -1 -26 14 -37 33 -16 27 -32 38 -76 52 -54 17 -66
27 -47 38 5 3 11 0 14 -8 11 -27 54 -24 82 5 30 33 32 76 3 71 -32 -5 -19 25
15 34 25 8 33 16 35 37 3 25 5 26 24 13 42 -30 81 25 56 78 -14 33 -6 41 24
25 25 -14 45 -18 94 -20 17 0 37 -5 44 -9 17 -11 70 15 70 34 0 16 -55 66 -73
66 -7 0 -39 26 -72 57 -81 76 -109 87 -158 63 -25 -12 -49 -17 -68 -13 -27 5
-29 8 -23 38 8 43 -17 98 -53 120 -16 9 -38 33 -48 53 -13 25 -35 44 -65 59
-45 21 -45 21 -46 75 0 41 -8 66 -34 111 -18 32 -43 65 -56 74 -13 8 -24 20
-24 26 0 17 -31 46 -43 41 -7 -2 -19 9 -28 24 -11 19 -43 41 -97 68 -81 39
-82 39 -76 72 5 25 2 38 -14 55 -11 12 -31 42 -44 67 -13 25 -31 56 -40 70
-35 52 -55 127 -62 221 -6 86 -4 97 14 117 11 11 20 25 20 29 0 4 -24 29 -52
54 l-53 47 0 63 c0 75 -2 78 -65 128 -47 37 -48 39 -30 56 18 16 20 14 54 -38
22 -36 51 -65 81 -83 57 -33 128 -43 153 -21 9 8 34 22 55 30 26 11 37 22 37
36 0 24 10 27 28 9 23 -23 12 -49 -47 -109 -61 -63 -78 -101 -85 -187 -5 -63
48 -157 105 -187 24 -13 28 -12 43 4 9 10 16 24 16 32 0 8 9 2 21 -13 14 -19
30 -28 48 -28 27 0 28 -1 23 -48 -4 -43 0 -53 39 -111 24 -36 53 -69 64 -75
11 -6 31 -19 44 -28 36 -27 51 -23 51 15 0 21 7 38 20 47 28 20 25 43 -15 114
-19 35 -35 76 -34 92 0 28 1 28 19 -12 24 -56 71 -88 113 -80 18 4 49 8 69 10
20 2 41 7 47 11 15 9 14 2 -6 -39 -15 -32 -15 -37 0 -60 29 -44 139 -57 192
-22 36 23 31 36 -14 36 -21 0 -44 6 -50 14 -12 14 -5 46 10 46 16 0 49 64 49
95 0 29 -25 90 -52 128 -11 15 -10 20 5 28 21 12 23 63 3 110 -17 40 -87 115
-116 124 -33 10 -23 28 12 23 40 -6 85 12 126 50 29 28 41 60 26 74 -3 4 -20
0 -38 -7 -37 -16 -68 -11 -108 17 -43 30 -33 38 23 22 62 -19 119 -11 126 15
3 10 15 23 28 29 15 7 29 28 40 61 19 57 15 71 -20 71 -17 0 -25 -6 -27 -22
-2 -12 -13 -27 -24 -33 -12 -6 -29 -16 -37 -23 -10 -9 -17 -10 -22 -2 -3 5
-21 10 -38 10 -26 0 -46 13 -100 63 -37 34 -67 65 -67 68 0 4 -18 34 -40 67
-35 52 -60 78 -128 133 -42 35 -213 44 -287 17 -49 -19 -141 -87 -154 -115
-10 -21 -16 -24 -44 -20 -100 18 -167 18 -219 3 -107 -31 -184 -130 -173 -223
l5 -44 -31 18 c-17 10 -56 39 -87 66 -74 62 -131 90 -169 81 -40 -9 -56 -27
-104 -108 -53 -90 -94 -151 -136 -201 -19 -22 -36 -51 -40 -65 -3 -14 -14 -37
-24 -52 -23 -31 -25 -96 -5 -104 12 -5 11 -14 -6 -52 -17 -38 -21 -65 -19
-147 1 -55 6 -116 12 -135 12 -36 77 -113 90 -105 9 6 19 -20 19 -53 0 -15 14
-55 31 -90 18 -34 30 -64 28 -67 -3 -2 -27 -6 -54 -10 -56 -6 -99 -30 -205
-112 -59 -46 -78 -68 -91 -103 -9 -25 -36 -65 -61 -90 -24 -25 -52 -56 -60
-70 -34 -56 -34 -144 1 -155 14 -4 17 -16 16 -58 -1 -49 -9 -92 -22 -127 -4
-8 -7 -19 -7 -24 -1 -5 -7 -11 -13 -13 -15 -5 -63 69 -88 134 -10 26 -23 55
-30 63 -7 8 -19 30 -29 48 -9 17 -23 45 -32 62 -8 16 -19 52 -23 80 -5 29 -17
60 -29 73 -18 19 -19 26 -9 43 46 81 67 127 67 151 0 15 12 44 26 64 29 43 29
70 -2 83 -18 8 -21 16 -17 48 4 26 0 46 -12 65 -19 29 -28 120 -13 129 4 3 6
9 3 14 -3 5 -1 28 5 52 6 24 14 70 17 103 3 33 11 67 18 75 7 8 15 28 17 44 6
57 64 79 163 61 27 -4 45 -2 57 7 24 19 31 59 13 82 -13 17 -17 18 -42 6 -16
-8 -31 -16 -36 -18 -4 -2 -2 8 5 22 10 22 9 29 -5 43 -14 15 -18 13 -46 -15
-17 -17 -31 -40 -31 -51 0 -14 -11 -25 -37 -36 -20 -8 -37 -14 -39 -13 -1 2 2
30 7 63 39 256 42 275 55 400 7 75 20 162 36 244 11 56 15 62 27 48 16 -20 85
-14 112 10 14 12 17 12 23 -2 6 -16 79 -54 104 -55 24 0 11 15 -31 35 -40 18
-41 19 -17 26 46 13 58 10 68 -18 l9 -28 14 28 c16 35 2 62 -30 61 -20 -1 -20
2 9 31 59 61 20 107 -42 48 l-27 -26 11 31 c9 24 9 34 -1 46 -19 22 -28 20
-63 -14 -23 -24 -29 -37 -27 -64 5 -49 -20 -72 -77 -74 -45 -2 -46 -2 -40 25
14 65 17 80 21 120 3 23 13 75 24 115 33 122 12 248 -42 248 -19 0 -22 6 -24
45 -3 65 -46 101 -107 90 -25 -5 -35 -3 -39 9 -4 10 -1 16 7 16 28 0 58 36 63
75 7 64 -1 69 -49 38 -52 -34 -67 -52 -68 -77 0 -15 -3 -17 -11 -9 -9 9 -1 27
30 73 45 68 49 85 25 118 -22 31 -38 28 -74 -18z m40 -37 c-1 -27 -20 -63 -34
-63 -4 0 -2 9 4 20 6 11 10 26 9 33 -3 23 1 37 11 37 6 0 10 -12 10 -27z
m-112 -59 c-10 -10 -28 6 -28 24 0 15 1 15 17 -1 9 -9 14 -19 11 -23z m182
-33 c0 -21 -13 -41 -26 -41 -17 0 -18 22 -2 38 14 14 28 16 28 3z m-134 -70
c-9 -14 -76 -15 -76 -1 0 6 11 10 24 10 14 0 28 5 32 11 4 7 10 7 16 1 6 -6 7
-15 4 -21z m164 -79 c0 -4 -5 -13 -12 -20 -9 -9 -9 -12 3 -12 7 0 20 -4 28 -9
12 -8 12 -13 -3 -36 -15 -23 -16 -31 -6 -56 20 -48 37 -55 66 -28 21 20 27 21
34 9 13 -20 12 -113 -1 -170 -6 -25 -14 -69 -19 -98 -9 -60 -17 -73 -29 -53
-10 16 -31 6 -31 -15 0 -11 6 -13 20 -9 16 5 20 2 20 -16 0 -18 -2 -19 -15 -9
-12 10 -18 10 -30 0 -18 -15 -20 -31 -2 -29 30 4 36 -2 31 -28 -3 -16 -7 -41
-8 -58 -2 -16 -4 -33 -5 -38 0 -4 -12 -5 -25 -1 -14 3 -27 1 -31 -6 -9 -15 14
-31 36 -25 12 4 15 -1 11 -24 -4 -27 -7 -29 -37 -24 -23 4 -34 1 -38 -10 -4
-11 4 -19 29 -27 18 -6 34 -18 34 -26 0 -16 -6 -16 -35 -5 -20 9 -55 -3 -55
-18 0 -4 17 -12 37 -17 24 -6 39 -16 41 -27 3 -16 1 -17 -16 -8 -26 14 -59 14
-68 0 -9 -16 9 -30 41 -32 33 -3 45 -22 14 -24 -25 -2 -51 -22 -44 -34 3 -4
19 -6 36 -4 24 3 29 1 25 -11 -3 -9 -6 -20 -6 -26 0 -6 -9 -8 -20 -5 -22 6
-43 -13 -32 -29 4 -6 16 -14 27 -19 20 -8 19 -9 -2 -12 -24 -5 -40 -33 -19
-33 19 0 36 -23 28 -37 -4 -6 -16 -11 -26 -10 -29 3 -30 -21 -1 -35 34 -15 28
-41 -10 -48 -29 -5 -50 -39 -23 -37 31 1 48 -4 48 -13 0 -5 -11 -10 -25 -10
-16 0 -25 -6 -25 -15 0 -8 7 -15 15 -15 8 0 15 -5 15 -11 0 -6 -9 -8 -20 -4
-11 4 -20 2 -20 -4 0 -6 6 -11 13 -12 6 0 3 -4 -8 -9 -19 -8 -19 -9 3 -9 15
-1 22 -7 22 -22 0 -16 -4 -19 -20 -14 -11 3 -20 3 -21 -2 0 -4 -3 -19 -5 -33
-2 -14 -5 -32 -6 -40 0 -8 -6 -18 -12 -22 -8 -5 -7 -8 2 -8 10 0 10 -5 2 -20
-6 -11 -8 -25 -5 -30 3 -6 2 -10 -3 -10 -5 0 -12 -13 -14 -29 -3 -24 0 -30 25
-39 17 -7 26 -15 22 -22 -5 -9 -10 -9 -18 -1 -6 6 -17 11 -24 11 -20 0 -15
-26 7 -41 19 -12 20 -19 11 -54 l-10 -40 2 38 c2 29 0 37 -14 37 -25 0 -32
-16 -15 -33 8 -8 11 -19 6 -27 -7 -11 -14 -11 -40 0 -31 13 -32 15 -26 59 4
25 9 66 12 91 9 89 58 467 69 527 6 37 8 53 20 177 3 32 10 66 14 75 10 19 26
120 22 141 -2 8 -7 18 -13 21 -6 4 -4 38 7 95 9 49 19 107 22 129 16 132 20
185 16 230 -2 28 -4 66 -4 85 0 19 -4 39 -8 45 -13 16 -21 59 -13 70 10 16 63
55 73 55 5 0 9 -4 9 -8z m-275 -232 c3 -5 -3 -10 -15 -10 -12 0 -18 5 -15 10
3 6 10 10 15 10 5 0 12 -4 15 -10z m553 -265 c-1 -19 -6 -35 -10 -35 -4 0 -8
16 -8 35 0 19 5 35 10 35 6 0 10 -16 8 -35z m92 -18 c0 -12 -49 -47 -64 -47
-4 0 5 15 21 34 26 33 43 38 43 13z m1497 -148 c65 -21 78 -33 154 -139 60
-83 157 -178 196 -191 20 -6 62 -9 94 -7 79 6 73 -15 -6 -22 -32 -3 -60 -11
-62 -17 -6 -18 -92 22 -129 60 -94 95 -164 137 -164 98 0 -11 77 -81 90 -81 5
0 21 -18 34 -39 28 -44 158 -155 184 -157 9 -1 21 -2 26 -3 5 -1 1 -10 -9 -21
-34 -38 -162 -13 -220 41 -32 30 -59 37 -71 18 -7 -12 31 -47 89 -81 44 -26
51 -58 12 -58 -15 0 -39 -7 -56 -15 -29 -15 -31 -15 -61 10 -16 14 -38 23 -47
21 -9 -3 -32 9 -52 27 -29 25 -38 42 -43 77 -6 48 -2 59 29 76 12 7 21 24 23
42 8 80 -173 202 -233 158 -18 -13 -16 -15 29 -21 58 -9 109 -50 126 -100 14
-41 6 -58 -25 -53 -20 4 -22 0 -24 -39 -3 -82 79 -196 157 -218 30 -9 38 -16
42 -40 4 -22 15 -35 43 -48 44 -22 47 -39 8 -53 -22 -9 -38 -31 -75 -108 -25
-53 -46 -108 -46 -122 0 -14 14 -51 30 -81 30 -54 38 -79 22 -69 -5 3 -20 -1
-35 -9 -22 -11 -28 -11 -40 3 -23 26 -57 95 -57 114 0 57 24 118 62 159 22 24
46 58 54 76 8 17 18 34 24 38 16 10 11 68 -9 92 -24 29 -63 44 -82 32 -11 -7
-7 -15 20 -39 31 -29 32 -32 17 -49 -9 -10 -16 -25 -16 -35 0 -24 -24 -67 -50
-91 -12 -11 -31 -37 -41 -57 -21 -42 -43 -48 -59 -19 -16 30 -12 66 10 94 36
45 21 66 -33 43 -43 -17 -77 -65 -77 -106 0 -46 -20 -34 -53 32 -26 49 -28 62
-22 112 10 80 74 149 157 170 32 7 49 34 50 77 1 38 -44 87 -89 95 -18 3 -33
8 -33 9 0 2 9 24 20 50 11 26 18 50 15 54 -2 5 -27 6 -55 3 -51 -5 -63 5 -35
28 21 17 9 31 -21 24 -29 -7 -32 6 -4 24 24 14 70 85 70 107 0 11 -12 15 -50
15 -58 0 -66 17 -26 53 75 69 213 93 323 56z m-442 -124 c37 -9 79 -15 94 -13
21 2 27 -2 29 -22 5 -47 -19 -65 -90 -65 -52 0 -63 -3 -66 -18 -2 -9 2 -19 10
-21 49 -15 50 -16 38 -31 -13 -16 -4 -39 12 -29 6 4 17 -1 24 -11 14 -18 75
-25 107 -11 14 7 17 3 17 -19 0 -36 -52 -84 -94 -87 -83 -4 -115 12 -145 71
-29 56 -107 84 -160 57 -33 -17 -45 -41 -32 -63 4 -9 6 -24 4 -34 -5 -18 -6
-18 -34 1 -16 12 -26 27 -23 35 3 7 -2 25 -11 39 -24 36 -16 112 16 155 40 54
91 78 169 80 37 1 98 -6 135 -14z m-557 -159 c51 -45 116 -89 230 -156 40 -24
78 -50 85 -59 7 -9 26 -27 44 -39 27 -19 31 -28 27 -51 -10 -46 15 -112 57
-154 33 -33 37 -42 28 -59 -6 -11 -12 -37 -14 -58 -3 -50 -12 -61 -38 -55 -15
4 -26 0 -34 -14 -11 -17 -10 -22 8 -35 24 -17 46 -12 52 12 3 12 5 10 6 -5 2
-41 -70 -51 -94 -13 -12 19 4 57 26 63 27 7 19 32 -10 32 -17 0 -31 15 -54 56
-41 71 -119 170 -158 198 -27 20 -28 24 -15 43 16 23 11 48 -10 48 -7 0 -20
-10 -28 -22 -15 -21 -17 -21 -33 -6 -13 14 -14 20 -3 32 10 13 10 19 0 31 -16
19 -30 19 -45 -2 -8 -11 -19 -14 -31 -9 -15 6 -16 9 -5 16 16 10 8 38 -14 46
-8 4 -22 1 -30 -6 -12 -10 -13 -16 -3 -29 10 -13 10 -14 -2 -3 -8 6 -23 13
-34 13 -17 1 -18 2 -3 6 19 5 22 24 6 40 -15 15 -39 5 -39 -17 0 -13 -13 -21
-46 -29 -64 -16 -72 -5 -28 40 46 47 74 50 145 14 28 -14 85 -39 127 -54 42
-15 84 -31 92 -34 8 -4 22 -2 30 3 24 15 2 39 -81 92 -85 55 -73 49 -167 78
l-73 23 -30 -29 c-45 -43 -39 -28 37 93 12 19 18 21 44 12 16 -6 51 -30 78
-53z m407 -82 c14 -9 25 -21 25 -27 0 -5 -8 -3 -18 6 -10 10 -28 17 -40 17
-12 0 -22 5 -22 10 0 15 28 12 55 -6z m143 -123 c32 -11 51 -12 76 -4 49 15
62 1 24 -27 -65 -48 -169 -6 -201 84 -6 14 1 11 26 -10 18 -16 51 -36 75 -43z
m162 39 c0 -5 -5 -10 -11 -10 -5 0 -7 5 -4 10 3 6 8 10 11 10 2 0 4 -4 4 -10z
m-1015 -79 l-27 -26 12 25 c20 40 34 54 38 40 3 -7 -8 -24 -23 -39z m1135 21
c0 -15 -2 -15 -10 -2 -13 20 -13 33 0 25 6 -3 10 -14 10 -23z m-1043 -34 c-3
-8 -6 -5 -6 6 -1 11 2 17 5 13 3 -3 4 -12 1 -19z m186 -13 c29 -3 213 -142
202 -153 -3 -3 -14 3 -24 12 -19 17 -41 15 -41 -5 0 -5 12 -19 26 -32 25 -20
97 -121 107 -150 3 -8 10 -7 22 5 16 15 16 19 4 34 -9 12 -10 15 -1 10 19 -11
44 -65 36 -78 -21 -33 -13 -67 22 -97 38 -34 67 -38 118 -17 l33 14 13 -41 c6
-23 32 -79 56 -125 25 -47 43 -87 40 -90 -3 -2 -21 7 -41 22 -19 15 -52 33
-73 40 -63 23 -137 65 -164 94 -14 15 -40 63 -57 107 -66 164 -70 172 -117
220 -23 22 -66 54 -95 69 -50 27 -61 29 -157 27 -112 -2 -156 -14 -197 -55
-57 -57 -64 -49 -26 28 22 44 41 71 48 69 7 -3 21 9 30 27 33 58 39 64 38 38
0 -31 18 -38 30 -11 7 16 15 21 27 17 11 -3 20 1 24 11 5 11 9 13 14 5 9 -14
40 -2 40 16 0 12 4 13 23 2 12 -6 30 -12 40 -13z m849 3 c-7 -7 -12 -8 -12 -2
0 14 12 26 19 19 2 -3 -1 -11 -7 -17z m508 -105 c49 -44 70 -81 70 -121 0 -25
-5 -30 -30 -35 -39 -8 -38 -23 6 -64 l37 -33 -5 -71 c-4 -55 -10 -75 -28 -94
-20 -21 -22 -28 -12 -50 7 -14 22 -30 34 -36 22 -9 22 -9 -2 -4 -14 2 -31 5
-37 5 -7 0 -20 11 -29 25 -15 23 -15 26 5 54 38 53 17 89 -33 56 -25 -16 -26
-16 -26 1 0 9 7 26 17 36 25 28 4 64 -46 79 -32 10 -43 9 -56 -1 -14 -11 -14
-15 0 -30 21 -24 30 -77 15 -95 -33 -39 -83 3 -101 84 -15 71 5 118 62 144 32
15 39 24 39 47 0 30 -33 70 -57 70 -7 0 -13 4 -13 9 0 11 55 31 85 31 13 0 25
7 29 15 9 24 32 18 76 -22z m-2080 8 c0 -6 -4 -13 -10 -16 -5 -3 -10 1 -10 9
0 9 5 16 10 16 6 0 10 -4 10 -9z m80 -67 c0 -16 -55 -20 -65 -5 -3 5 5 17 17
25 23 17 48 6 48 -20z m560 -35 c0 -6 -9 -8 -21 -4 -12 4 -27 1 -37 -8 -19
-16 -92 -20 -92 -5 0 6 7 8 15 4 8 -3 15 -1 15 4 0 5 12 11 28 13 55 8 92 7
92 -4z m109 2 c8 -5 11 -16 7 -28 -7 -22 8 -39 39 -45 11 -2 25 -14 31 -26 6
-13 17 -29 23 -35 16 -16 14 -44 -5 -72 -10 -16 -14 -34 -10 -50 8 -30 59 -59
93 -52 20 4 24 1 21 -16 -4 -28 -166 -126 -177 -108 -7 11 -62 23 -101 21 -8
0 -31 0 -51 0 -21 0 -41 -6 -49 -15 -18 -21 -4 -32 21 -17 16 10 24 10 35 1 8
-6 22 -9 33 -6 10 2 25 0 34 -4 10 -6 18 -5 22 1 3 5 14 10 23 10 12 0 13 -3
4 -12 -15 -15 -109 -27 -121 -15 -5 5 -17 5 -29 -2 -15 -8 -23 -6 -36 8 -9 10
-18 27 -21 37 -2 11 -12 37 -23 59 -40 82 -34 121 16 108 19 -5 22 -12 22 -53
0 -46 17 -80 40 -80 13 0 22 18 12 24 -5 3 -10 26 -10 51 -1 25 -9 64 -18 88
-9 23 -18 52 -21 65 -6 26 -46 46 -80 39 -16 -3 -24 2 -29 15 -8 28 -2 30 39
13 52 -22 75 -19 106 14 21 23 31 27 49 20 16 -6 33 -4 54 7 24 12 29 21 25
40 -4 25 7 30 32 15z m-69 -21 c0 -5 -10 -10 -22 -9 -22 0 -22 1 -3 9 11 5 21
9 23 9 1 1 2 -3 2 -9z m185 -63 c17 -28 17 -29 -1 -18 -42 23 -77 58 -70 69 9
16 48 -12 71 -51z m-352 29 c24 -18 21 -26 -8 -26 -18 0 -25 5 -25 20 0 23 8
25 33 6z m-88 -33 c-5 -10 -9 -36 -10 -58 -2 -67 -27 -87 -46 -39 -7 20 -6 31
4 43 7 9 18 28 25 44 6 15 17 27 23 27 7 0 8 -7 4 -17z m-629 -48 c-5 -24 -11
-32 -21 -28 -17 6 -21 33 -5 33 6 0 10 8 10 18 0 22 13 38 18 22 2 -6 1 -26
-2 -45z m719 -24 c6 -1 -5 -8 -24 -17 -34 -14 -60 -7 -47 15 6 8 24 9 71 2z
m389 -62 c-14 -16 -15 -23 -6 -26 6 -3 12 -11 12 -19 0 -12 -4 -12 -20 -4 -24
13 -25 22 -3 72 16 36 18 38 27 19 7 -16 4 -26 -10 -42z m-355 4 c1 -1 0 -7
-4 -13 -9 -14 -35 6 -35 27 0 13 3 13 18 2 9 -7 19 -14 21 -16z m-149 -24 c0
-5 -7 -9 -15 -9 -15 0 -20 12 -9 23 8 8 24 -1 24 -14z m46 -24 c4 -8 3 -23 0
-32 -6 -15 -8 -15 -23 -1 -16 17 -12 48 7 48 6 0 13 -7 16 -15z m560 -110 c13
-20 14 -28 4 -40 -10 -12 -9 -16 4 -21 9 -3 22 -1 30 5 7 6 16 8 19 5 8 -8
-10 -40 -47 -83 -23 -28 -27 -41 -23 -73 3 -21 1 -41 -5 -44 -5 -3 -7 -12 -4
-20 3 -7 1 -16 -3 -19 -5 -2 -11 5 -14 16 -8 28 -27 15 -28 -19 l-1 -27 -10
28 c-8 22 -13 26 -24 16 -8 -6 -11 -21 -8 -34 5 -20 -1 -24 -48 -37 -29 -8
-56 -14 -59 -12 -4 2 -10 20 -13 40 -9 43 -31 40 -31 -4 0 -37 -10 -42 -19 -9
-10 36 -7 43 20 56 31 14 28 15 41 -24 12 -37 38 -40 37 -5 -1 14 -4 33 -9 43
-5 12 -3 17 9 17 9 0 16 5 16 10 0 12 -63 4 -92 -11 -28 -15 -88 -11 -88 5 0
8 -3 21 -6 30 -5 12 0 16 20 16 20 0 26 -4 24 -17 -2 -12 5 -19 21 -21 20 -3
23 0 19 20 -5 25 1 30 76 58 43 16 160 104 143 108 -8 2 -46 -17 -83 -41 -57
-36 -86 -47 -165 -62 -80 -15 -103 -16 -143 -6 -26 6 -51 9 -57 6 -5 -4 -9 0
-9 8 0 11 9 13 40 7 47 -9 94 -6 164 10 54 13 61 17 195 99 46 28 86 51 87 51
2 0 11 -11 20 -25z m-1378 -35 c28 0 102 -39 102 -53 0 -5 -19 -7 -44 -5 -24
3 -51 1 -60 -4 -13 -7 -21 -5 -29 7 -15 20 -47 10 -47 -15 0 -22 21 -31 80
-34 41 -3 120 -40 120 -57 0 -11 -65 4 -73 17 -11 19 -34 17 -46 -3 -8 -14
-13 -15 -19 -5 -9 14 -42 6 -42 -10 0 -11 62 -38 72 -32 5 3 8 2 8 -2 0 -13
-35 -33 -56 -34 -25 0 -50 -25 -35 -34 5 -3 16 -3 25 0 22 9 20 -2 -8 -39 -21
-28 -25 -43 -25 -116 -1 -123 -15 -127 -38 -9 -9 48 -10 74 -3 76 15 5 12 38
-5 52 -10 8 -12 17 -6 24 11 14 5 150 -9 175 -8 16 -7 22 6 29 9 5 17 20 18
33 1 28 63 66 80 49 6 -6 21 -10 34 -10z m132 -92 c0 -13 -32 -6 -37 9 -3 7 3
9 16 6 12 -3 21 -10 21 -15z m1293 -97 c2 -35 5 -41 25 -41 12 0 22 5 22 11 0
14 80 5 112 -12 19 -10 18 -12 -23 -36 -24 -13 -46 -28 -49 -32 -10 -14 -209
-129 -241 -140 -106 -34 -261 -55 -308 -41 -40 11 -81 47 -81 69 0 11 4 9 16
-7 16 -23 39 -29 49 -12 3 6 -3 22 -14 36 -32 40 -25 59 7 22 20 -22 34 -29
46 -25 16 6 14 11 -14 43 -17 20 -29 38 -26 41 6 7 56 -28 56 -39 0 -6 8 -7
18 -3 9 4 46 6 80 6 61 -2 194 29 217 50 5 5 15 9 21 9 20 0 67 48 59 60 -4 6
-1 17 5 25 7 9 9 27 5 47 -6 26 -4 30 5 22 6 -7 13 -30 13 -53z m67 39 c0 -5
-2 -10 -4 -10 -3 0 -8 5 -11 10 -3 6 -1 10 4 10 6 0 11 -4 11 -10z m-500 -35
c0 -37 -39 -31 -53 8 -5 14 -1 17 23 17 25 0 30 -4 30 -25z m757 -7 c-3 -7 -5
-2 -5 12 0 14 2 19 5 13 2 -7 2 -19 0 -25z m-1629 -23 c15 -15 -12 -15 -45 -1
l-38 17 39 -5 c21 -3 41 -8 44 -11z m1650 -30 c3 -2 0 -10 -5 -17 -22 -28 -22
-59 0 -83 18 -20 32 -25 75 -27 61 -1 67 2 58 37 -5 18 -13 25 -29 25 -23 0
-47 17 -47 32 0 9 46 -10 82 -34 15 -11 25 -25 22 -32 -3 -8 4 -21 16 -29 32
-23 16 -40 -30 -32 -34 6 -43 3 -70 -24 -18 -16 -37 -32 -43 -34 -14 -4 -11
-55 4 -73 6 -8 19 -14 29 -14 10 0 20 -9 23 -20 3 -13 14 -20 29 -20 13 0 31
9 41 20 10 12 29 20 47 20 32 0 37 -9 19 -27 -9 -9 -8 -18 4 -37 23 -34 15
-48 -38 -70 -63 -25 -113 -16 -117 22 -2 20 -9 28 -27 30 -13 2 -32 14 -42 25
l-17 22 -31 -23 c-17 -13 -36 -20 -41 -17 -14 9 -12 37 5 59 67 89 -111 196
-214 129 -29 -19 -14 -39 20 -27 31 10 78 6 107 -8 32 -17 49 -79 29 -108
l-15 -22 -7 21 c-8 26 -17 26 -39 2 -15 -16 -15 -19 -1 -31 22 -18 18 -30 -10
-30 -18 0 -28 -7 -35 -24 -8 -22 -13 -24 -47 -19 -54 8 -61 19 -16 26 55 9 85
33 81 65 -2 19 -9 27 -20 26 -11 -1 -18 5 -18 17 0 25 -22 24 -45 -1 -12 -13
-15 -27 -11 -45 6 -23 4 -25 -24 -25 -37 0 -40 26 -9 76 23 38 22 72 -2 87
-12 8 -25 4 -52 -17 -34 -26 -40 -37 -68 -125 -18 -56 -37 -65 -36 -16 1 48
-22 70 -60 58 -18 -6 -28 -17 -28 -29 0 -10 -3 -24 -7 -30 -11 -16 83 -74 109
-68 14 4 35 -9 77 -50 31 -31 68 -59 81 -62 26 -6 32 -18 15 -29 -20 -13 -9
-34 25 -46 l35 -13 -25 -26 c-25 -26 -34 -60 -16 -60 5 0 11 -12 13 -27 2 -19
8 -27 19 -25 13 2 18 -10 23 -60 4 -35 6 -87 5 -116 -2 -46 -6 -55 -26 -63
-35 -13 -38 -35 -9 -73 14 -19 26 -39 26 -45 0 -10 -6 -13 -39 -15 -25 -2 -37
-33 -23 -57 17 -26 3 -39 -41 -39 -20 0 -30 -6 -34 -20 -4 -14 -14 -20 -32
-20 -42 0 -91 62 -91 114 0 35 11 33 65 -14 70 -60 93 -52 91 30 -1 32 -3 35
-31 34 -16 0 -37 -4 -45 -8 -9 -3 -24 0 -35 8 -33 24 -5 40 72 40 l68 1 3 32
c2 24 -3 39 -22 57 -32 33 -69 41 -119 26 -41 -12 -67 -34 -145 -124 -33 -39
-42 -45 -42 -28 0 11 11 34 25 50 14 17 25 37 25 46 0 25 -30 31 -61 14 -19
-11 -30 -13 -38 -5 -5 5 -43 9 -83 8 -66 -1 -71 0 -54 14 10 8 39 17 65 21 78
11 156 70 198 149 59 110 -22 303 -134 321 -31 5 -43 12 -47 28 l-5 21 -23
-23 c-28 -27 -17 -52 31 -68 40 -13 110 -79 127 -121 19 -44 17 -83 -5 -136
-15 -35 -29 -49 -63 -66 -59 -28 -78 -27 -78 3 0 21 6 25 46 31 55 8 79 28 87
73 6 27 4 32 -13 32 -10 0 -22 5 -25 10 -12 19 -36 -11 -33 -39 3 -25 1 -26
-41 -23 -50 3 -81 -17 -81 -55 0 -50 -52 -17 -90 56 -26 52 -25 61 4 61 13 0
29 7 36 15 7 8 23 15 37 15 13 0 33 5 44 10 23 13 26 42 3 33 -11 -4 -15 -1
-12 12 2 13 -5 21 -20 24 -13 3 -23 10 -22 16 1 5 -3 11 -8 13 -14 4 -42 -38
-42 -64 0 -21 -32 -39 -44 -26 -13 12 -5 52 13 61 10 6 26 25 35 43 9 18 22
40 28 50 17 24 -6 48 -46 48 -35 0 -106 -51 -106 -77 0 -19 -38 -73 -52 -73
-7 0 -8 19 -3 55 6 51 -3 72 -20 45 -4 -6 -10 -8 -15 -5 -4 3 -20 -9 -34 -26
l-26 -31 0 29 c0 71 90 330 121 349 13 8 11 -4 -6 -29 -29 -45 13 -100 55 -70
31 22 60 94 55 140 l-5 38 13 -41 c6 -23 18 -49 25 -57 8 -9 11 -25 8 -35 -13
-39 65 -102 125 -102 42 0 70 14 109 54 19 19 49 38 65 42 87 17 158 47 233
98 46 31 90 56 97 56 8 0 16 4 20 9 10 18 120 80 149 85 16 3 34 10 40 16 10
10 63 7 74 -5z m-1718 -25 c0 -5 -7 -10 -15 -10 -8 0 -15 5 -15 10 0 6 7 10
15 10 8 0 15 -4 15 -10z m64 -16 c5 -14 4 -15 -9 -4 -17 14 -19 20 -6 20 5 0
12 -7 15 -16z m706 -24 c0 -22 -2 -40 -4 -40 -2 0 -6 18 -8 40 -2 22 0 40 4
40 5 0 8 -18 8 -40z m-776 -6 c24 -9 19 -26 -6 -22 -30 4 -38 -31 -9 -39 12
-3 21 -12 21 -20 0 -11 -4 -11 -21 -2 -17 8 -23 8 -29 -2 -11 -18 -2 -36 22
-42 26 -7 20 -42 -7 -42 -13 0 -20 -7 -20 -20 0 -11 5 -19 11 -18 7 1 12 -17
13 -47 0 -37 -4 -52 -17 -59 -14 -8 -15 -13 -4 -30 19 -32 15 -61 -8 -61 -24
0 -27 -28 -4 -45 15 -10 14 -12 -7 -11 -17 1 -24 -4 -23 -16 1 -11 -5 -18 -17
-18 -16 0 -19 8 -19 53 0 85 54 412 72 435 11 13 28 15 52 6z m676 -73 c0 -12
-20 -25 -27 -18 -7 7 6 27 18 27 5 0 9 -4 9 -9z m-61 -30 c12 -8 11 -16 -7
-53 -35 -72 -52 -115 -52 -132 0 -22 -4 -20 -37 12 -15 16 -34 31 -41 33 -9 3
-11 13 -7 31 6 25 11 27 46 24 29 -3 39 0 39 10 0 21 28 84 37 84 4 0 14 -4
22 -9z m1411 -75 c33 -49 39 -67 14 -42 -15 16 -64 22 -136 18 -29 -2 -38 1
-38 13 0 10 -5 13 -12 9 -10 -5 -10 -3 0 7 11 12 14 12 22 -1 6 -9 10 -10 10
-3 0 6 20 15 45 19 25 3 45 10 45 15 0 21 21 6 50 -35z m-2710 14 c14 -4 19
-8 11 -9 -8 -1 -34 -10 -57 -22 -30 -14 -41 -25 -37 -35 3 -9 -6 -27 -22 -44
-23 -25 -26 -32 -15 -45 18 -22 48 -19 82 10 33 28 56 32 64 11 10 -26 32 -25
70 1 33 22 42 24 73 15 88 -25 115 -31 123 -26 4 3 8 -2 8 -10 0 -9 -12 -19
-27 -22 -31 -7 -63 -32 -63 -47 0 -5 -8 -16 -17 -23 -17 -13 -17 -15 1 -29 13
-10 35 -13 67 -10 41 3 51 1 59 -16 6 -11 9 -23 6 -27 -3 -5 4 -15 16 -23 43
-29 48 -39 36 -59 -19 -30 6 -52 56 -47 35 3 42 8 50 33 14 50 22 59 51 61 34
3 62 -12 95 -48 14 -15 51 -38 83 -49 40 -15 57 -27 57 -39 0 -10 -2 -20 -5
-23 -8 -7 -97 12 -112 24 -15 12 -33 2 -33 -18 0 -25 50 -94 75 -104 13 -5 31
-23 40 -40 15 -28 41 -45 84 -54 9 -2 24 -6 34 -11 9 -4 31 -2 48 5 40 17 49
5 10 -15 -17 -8 -31 -20 -31 -24 0 -27 16 -42 50 -47 36 -6 38 -8 28 -28 -6
-11 -14 -28 -18 -36 -12 -24 -57 -14 -111 26 -47 34 -59 37 -100 20 -20 -9
-33 19 -20 42 11 19 -6 72 -28 89 -9 7 -25 13 -36 13 -23 1 -55 22 -55 38 0
17 -27 21 -48 6 -26 -18 -35 -4 -22 32 6 15 7 31 3 35 -7 6 -92 18 -138 19
-12 0 -27 13 -37 30 -9 17 -25 30 -35 30 -26 1 -69 35 -54 44 20 13 11 53 -20
85 -39 42 -72 54 -104 39 -35 -16 -31 -28 10 -28 28 0 39 -6 60 -37 l25 -38
-31 -26 c-34 -27 -36 -54 -7 -73 13 -8 23 -8 36 1 15 9 24 7 45 -10 24 -20 27
-30 29 -97 3 -74 3 -75 -24 -78 -30 -4 -31 -3 -99 93 -49 68 -50 71 -44 123 5
43 3 57 -11 73 -25 28 -61 24 -96 -11 -17 -17 -32 -30 -33 -28 -6 7 -25 47
-25 52 0 3 6 6 14 6 8 0 21 9 29 20 9 13 23 19 43 17 21 -1 30 3 32 17 3 15
-1 18 -22 14 -23 -5 -26 -2 -26 21 0 15 -11 42 -25 61 -14 19 -25 40 -25 47 0
12 -35 11 -77 -3 -22 -6 -14 -23 12 -30 33 -8 65 -50 65 -83 0 -19 -9 -30 -33
-41 -53 -25 -46 -99 14 -134 37 -22 68 -13 81 25 5 16 14 29 18 29 15 0 22
-41 10 -56 -18 -20 -5 -70 27 -109 16 -18 42 -50 58 -70 68 -84 110 -103 149
-66 12 12 28 21 34 21 10 0 15 14 14 40 0 3 -3 24 -7 48 -8 48 1 53 45 22 l29
-20 21 22 22 23 -7 -33 c-9 -46 15 -72 60 -67 21 3 37 -1 45 -10 7 -8 25 -15
40 -15 22 0 30 -6 39 -32 6 -17 9 -46 5 -63 -5 -28 -2 -33 23 -44 16 -6 44
-10 63 -9 28 2 35 -1 38 -17 7 -37 82 -77 82 -44 0 8 5 8 15 -1 8 -7 15 -17
15 -23 0 -13 40 -47 57 -47 7 0 13 -4 13 -10 0 -5 -13 -10 -30 -10 -19 0 -30
5 -30 14 0 16 -26 46 -40 46 -34 0 -25 -94 10 -105 11 -4 20 -14 20 -23 0 -9
13 -31 30 -49 l29 -31 -107 -27 c-59 -14 -114 -27 -122 -28 -9 -2 -21 -6 -27
-10 -7 -5 -30 -10 -50 -12 -21 -2 -38 -4 -38 -5 0 -1 -13 -4 -30 -6 -16 -3
-41 -9 -55 -13 -14 -5 -45 -12 -70 -16 -24 -3 -49 -9 -55 -14 -11 -8 -111 -32
-163 -38 -25 -3 -42 4 -73 29 -37 30 -42 31 -71 20 -18 -6 -33 -10 -35 -9 -1
2 1 35 6 73 12 101 6 183 -20 261 -6 19 -8 37 -5 40 3 4 0 13 -8 22 -8 9 -26
40 -41 69 -26 52 -51 74 -64 56 -10 -15 -31 -15 -31 0 0 8 -6 21 -13 28 -8 7
-22 30 -32 51 -14 31 -21 36 -39 31 -30 -9 -31 -11 -17 -36 38 -72 46 -84 58
-96 7 -7 13 -19 13 -26 0 -8 7 -19 15 -26 9 -7 14 -18 12 -24 -2 -6 6 -42 17
-81 12 -38 21 -90 20 -115 -3 -93 -7 -165 -12 -177 -2 -7 -23 42 -47 110 -23
67 -64 181 -90 252 -26 72 -51 147 -56 169 -5 21 -16 51 -24 67 -20 37 -19 42
10 77 27 33 19 50 -14 32 -26 -14 -64 -13 -79 2 -20 20 -14 26 38 33 35 5 55
14 65 28 20 28 19 54 -2 66 -16 8 -12 25 5 27 4 0 28 4 53 8 28 5 62 3 88 -4
47 -12 70 -3 69 28 0 9 0 22 2 27 5 21 -1 35 -15 35 -8 0 -15 4 -15 10 0 5
-14 3 -32 -4 -29 -13 -33 -12 -57 10 -26 25 -60 31 -77 15 -13 -13 -74 -24
-74 -14 0 5 -6 18 -14 28 -11 15 -17 17 -28 7 -8 -6 -48 -23 -89 -36 -77 -25
-92 -23 -104 15 -5 16 -12 19 -40 13 -31 -5 -33 -4 -28 15 12 47 132 103 172
81 55 -29 120 -15 105 24 -3 9 -1 16 5 16 6 0 11 -4 11 -9 0 -17 31 -41 52
-41 12 0 36 12 55 26 28 21 34 32 31 57 -3 27 2 34 27 46 59 29 135 37 185 21z
m2510 -15 c-14 -17 -30 -20 -30 -6 0 5 8 12 18 14 9 3 19 5 21 6 2 0 -2 -6 -9
-14z m-1770 -54 c0 -5 -9 -19 -20 -32 l-21 -24 16 33 c15 31 25 41 25 23z
m1981 -45 c1 -12 1 -28 0 -36 0 -10 1 -11 5 -2 10 22 21 13 16 -13 -3 -17 1
-27 12 -31 10 -4 27 -27 38 -51 20 -42 20 -46 5 -55 -10 -5 -17 -17 -17 -26 0
-14 -2 -15 -9 -3 -8 12 -14 13 -36 3 -14 -7 -39 -12 -55 -12 -16 0 -33 -7 -38
-16 -7 -13 -16 -8 -49 30 -32 36 -47 46 -71 46 -40 0 -50 -17 -18 -30 14 -5
26 -14 26 -18 0 -13 90 -104 117 -118 22 -13 70 -18 135 -15 51 2 88 54 88
124 0 28 4 46 10 42 5 -3 7 -12 4 -20 -4 -9 5 -21 25 -32 27 -15 32 -23 30
-53 -3 -57 0 -66 27 -94 31 -30 67 -33 121 -11 19 8 43 15 52 15 17 0 131 -99
131 -114 0 -9 -26 -5 -98 13 -33 9 -49 8 -77 -3 -19 -8 -35 -19 -35 -24 0 -5
14 -21 30 -35 29 -26 39 -47 22 -47 -5 0 -22 16 -39 35 -36 41 -85 48 -103 16
-14 -28 -14 -30 27 -67 50 -46 37 -57 -60 -48 -42 4 -74 11 -71 15 5 9 -15 85
-44 169 -9 25 -15 53 -14 63 1 16 -5 17 -45 11 -31 -4 -63 -1 -102 11 -64 19
-79 29 -104 68 -23 36 -74 67 -112 68 -28 1 -28 1 -6 8 51 14 27 40 -37 41
-14 0 -21 4 -17 11 4 5 17 9 28 8 38 -2 47 1 47 16 0 17 -42 30 -66 21 -12 -4
-14 -1 -9 14 5 17 2 20 -21 20 -38 0 -26 9 20 15 32 4 42 0 58 -20 25 -32 72
-40 127 -20 24 8 52 13 62 10 25 -8 89 21 89 40 0 9 -5 26 -11 37 -17 31 -18
65 -2 65 7 0 14 -10 14 -21z m29 3 c0 -11 -4 -17 -10 -14 -5 3 -10 13 -10 21
0 8 5 14 10 14 6 0 10 -9 10 -21z m-1645 -68 c3 -5 -5 -17 -17 -25 -24 -17
-35 -8 -24 19 6 17 32 20 41 6z m1173 -8 c-4 -20 -56 -49 -66 -38 -4 4 -1 10
7 13 7 2 21 13 30 22 21 24 33 25 29 3z m-1462 -76 c20 -40 46 -92 59 -117 39
-76 55 -112 55 -126 0 -18 30 -45 41 -38 13 8 52 -35 69 -76 11 -26 11 -36 1
-52 -11 -17 -9 -24 10 -44 25 -27 26 -26 -18 -48 -54 -27 -90 -19 -60 14 6 8
2 6 -11 -4 -37 -31 -34 -12 4 23 58 55 32 81 -50 49 -25 -10 -30 -9 -46 12
-10 13 -15 30 -13 38 3 8 0 18 -8 23 -11 7 -10 11 6 23 15 11 17 18 9 26 -9 9
-19 8 -42 -4 -17 -9 -35 -16 -39 -16 -12 1 40 40 53 40 21 0 34 23 21 38 -6 8
-12 22 -12 30 0 11 -20 20 -63 30 l-62 15 37 17 c61 28 80 46 66 61 -10 10
-20 9 -48 -4 -50 -24 -65 -20 -31 7 32 26 31 60 -1 50 -17 -5 -17 -5 0 9 27
22 11 50 -25 45 -16 -3 -27 -1 -26 3 5 13 72 56 81 52 4 -3 24 -37 43 -76z
m318 -22 c-10 -16 -20 -23 -22 -16 -4 12 28 55 35 47 3 -2 -3 -17 -13 -31z
m1219 10 c-22 -16 -38 -8 -23 10 6 8 18 11 26 8 12 -4 12 -8 -3 -18z m-2743
-26 c7 -11 10 -22 8 -23 -2 -1 -20 -16 -41 -34 -26 -22 -45 -31 -57 -27 -31
10 -87 -5 -114 -30 l-26 -24 -10 41 c-6 22 -23 51 -37 64 -14 13 -24 26 -22
28 2 2 21 6 43 9 31 5 39 3 43 -12 3 -10 16 -24 29 -30 20 -9 35 -5 91 23 83
41 80 40 93 15z m155 -9 c-27 -12 -35 -12 -35 0 0 6 12 10 28 9 24 0 25 -1 7
-9z m-508 -28 c-10 -10 -17 -26 -17 -35 0 -9 -4 -19 -10 -22 -5 -3 -10 -15
-10 -25 0 -28 -43 -130 -55 -130 -20 0 -88 -64 -100 -94 -11 -26 -15 -28 -20
-13 -11 28 4 86 25 97 22 12 26 41 9 72 -8 14 -8 27 1 48 11 27 80 101 80 86
0 -5 7 -2 16 5 9 7 29 12 45 11 19 -2 32 3 35 13 4 9 9 13 12 10 3 -2 -2 -13
-11 -23z m1928 -21 c-3 -17 -11 -34 -17 -38 -8 -4 -9 0 -5 11 4 10 7 32 7 49
0 23 3 28 11 20 7 -7 8 -24 4 -42z m1086 12 c45 -21 54 -49 44 -128 -6 -48 -9
-53 -36 -59 -38 -7 -39 -44 -3 -83 22 -24 25 -34 19 -68 -12 -70 -8 -84 33
-125 27 -27 38 -47 35 -59 -7 -29 15 -64 38 -58 12 3 19 0 19 -9 0 -9 -11 -14
-32 -14 -46 0 -98 -34 -98 -64 0 -17 9 -28 33 -40 l32 -16 -30 0 c-16 0 -54
-3 -84 -7 l-53 -6 13 24 c7 13 12 26 11 29 -1 3 8 5 20 5 16 0 25 11 39 53 15
45 16 52 3 52 -8 0 -24 -19 -34 -42 -17 -38 -20 -40 -20 -16 0 14 -9 48 -20
74 -11 26 -18 55 -15 65 3 10 6 87 7 172 0 143 2 156 19 160 25 7 24 34 -1 47
-18 10 -19 13 -5 26 8 9 15 22 15 29 0 23 -31 47 -54 41 -12 -3 -28 -1 -36 4
-16 11 -10 13 35 11 17 -1 37 3 45 9 19 13 17 13 61 -7z m114 -13 c3 -5 1 -10
-4 -10 -6 0 -11 5 -11 10 0 6 2 10 4 10 3 0 8 -4 11 -10z m392 -12 c-3 -8 -6
-5 -6 6 -1 11 2 17 5 13 3 -3 4 -12 1 -19z m-3087 -19 c0 -5 -12 -14 -27 -20
-32 -12 -53 2 -35 24 13 15 62 11 62 -4z m1560 12 c0 -6 -4 -13 -10 -16 -5 -3
-10 1 -10 9 0 9 5 16 10 16 6 0 10 -4 10 -9z m-1935 -60 c-4 -20 -11 -41 -16
-47 -12 -14 -1 -24 27 -24 35 0 38 -17 4 -24 -36 -7 -39 -23 -7 -35 22 -9 22
-9 -6 -20 -40 -16 -24 -35 24 -28 22 3 39 1 39 -3 0 -5 -10 -10 -22 -12 -13
-2 -23 -10 -23 -18 0 -8 6 -14 13 -12 16 3 16 -10 0 -26 -10 -10 -10 -15 2
-22 13 -8 11 -14 -12 -37 l-27 -27 2 30 c2 23 -2 30 -21 32 -47 7 -68 133 -37
222 8 23 15 52 15 64 0 31 20 49 38 34 9 -8 12 -22 7 -47z m1790 11 c-5 -41
-3 -53 19 -85 15 -22 26 -52 26 -72 0 -19 4 -56 9 -82 5 -26 12 -74 15 -106 4
-50 3 -57 -10 -46 -8 6 -14 18 -14 25 0 15 -12 19 -23 7 -4 -3 -2 -12 4 -20 6
-7 7 -13 3 -13 -5 0 -15 9 -21 19 -11 17 -8 21 19 30 26 9 29 13 17 27 -7 8
-21 13 -31 11 -17 -5 -18 0 -15 46 5 58 -5 92 -35 124 l-21 22 21 48 c11 26
23 63 27 81 10 49 18 38 10 -16z m-650 29 c3 -5 1 -12 -5 -16 -5 -3 -10 1 -10
9 0 18 6 21 15 7z m2265 -6 c0 -8 -4 -15 -10 -15 -5 0 -7 7 -4 15 4 8 8 15 10
15 2 0 4 -7 4 -15z m-3213 -36 c7 -7 17 -8 30 -1 25 14 96 -14 73 -28 -8 -5
-38 -10 -66 -10 -56 0 -88 -20 -66 -42 8 -8 9 -15 1 -25 -12 -14 -58 -18 -60
-5 -1 4 -3 16 -4 27 -2 11 -4 25 -6 30 -2 6 8 22 21 37 26 29 58 36 77 17z
m1676 -19 c-3 -11 -9 -17 -15 -14 -5 3 -4 12 3 20 16 19 18 18 12 -6z m1207
-4 c0 -3 -4 -8 -10 -11 -5 -3 -10 -1 -10 4 0 6 5 11 10 11 6 0 10 -2 10 -4z
m-1086 -21 c3 -8 1 -15 -4 -15 -6 0 -10 7 -10 15 0 8 2 15 4 15 2 0 6 -7 10
-15z m1248 -11 c9 -5 16 -18 15 -29 -2 -17 4 -20 43 -21 25 0 56 -1 69 -2 24
-2 24 -3 6 -16 -16 -11 -17 -17 -7 -29 7 -8 10 -22 6 -31 -12 -31 16 -49 67
-42 36 5 48 3 52 -8 4 -10 -4 -17 -26 -21 -56 -12 -97 -29 -97 -41 0 -17 31
-27 44 -14 13 13 103 13 111 0 3 -5 1 -11 -4 -11 -6 -1 -14 -2 -18 -3 -55 -14
-76 -18 -100 -21 -16 -2 -67 -13 -114 -25 -46 -12 -96 -23 -111 -25 -14 -2
-36 -9 -48 -15 -12 -6 -24 -10 -26 -7 -8 8 32 44 69 62 27 12 35 21 28 28 -8
8 -22 6 -46 -6 -42 -20 -45 -20 -45 -7 0 6 17 18 38 28 42 19 55 33 43 45 -5
5 -27 0 -50 -11 -30 -15 -41 -17 -41 -7 0 7 15 20 34 29 18 8 38 22 45 30 21
25 -13 26 -58 1 -42 -24 -54 -16 -24 17 9 10 26 18 38 18 12 0 30 9 40 20 18
19 17 20 -6 20 -14 0 -42 -9 -64 -20 -45 -23 -49 -24 -39 -9 3 6 26 20 50 31
40 17 58 38 34 38 -5 0 -10 10 -10 21 0 22 -17 23 -65 3 -18 -7 -19 -6 -5 10
8 10 23 22 35 26 25 11 115 7 137 -6z m-2988 -40 c5 -14 4 -15 -9 -4 -17 14
-19 20 -6 20 5 0 12 -7 15 -16z m1728 -5 c24 15 22 17 38 -41 10 -37 24 -57
65 -93 29 -24 64 -49 79 -55 21 -8 25 -14 20 -38 -5 -23 -1 -30 21 -40 14 -7
44 -12 65 -12 27 0 39 -4 38 -12 -4 -16 51 -23 65 -9 17 17 37 -19 26 -48 -14
-35 -4 -54 26 -49 22 5 25 2 25 -24 0 -34 29 -95 59 -122 26 -24 13 -36 -40
-36 -35 0 -39 3 -69 63 -42 81 -65 105 -113 118 -83 22 -84 -7 -2 -64 42 -29
55 -44 55 -63 0 -22 -4 -25 -27 -22 -16 2 -29 9 -29 16 -1 6 -2 17 -3 22 0 6
-12 8 -26 4 -15 -4 -25 -2 -25 5 0 6 -10 11 -21 11 -18 0 -20 -5 -16 -27 9
-49 -2 -56 -40 -23 -28 25 -41 30 -66 25 -49 -8 -113 -14 -99 -8 6 2 12 10 12
16 1 13 67 47 91 47 18 0 39 19 39 35 0 48 -80 69 -136 36 -19 -12 -39 -21
-43 -21 -17 0 -39 76 -45 155 -4 55 -3 73 4 58 9 -23 34 -31 44 -14 4 5 1 22
-5 38 -6 15 -13 63 -15 107 -4 71 -3 77 12 65 13 -10 19 -10 36 0z m-85 -21
c-3 -8 -6 -5 -6 6 -1 11 2 17 5 13 3 -3 4 -12 1 -19z m-2027 -37 c0 -5 2 -16
5 -23 6 -15 -32 -38 -60 -38 -24 0 -17 27 11 49 29 23 44 27 44 12z m427 -9
c-20 -21 -22 -49 -5 -54 6 -2 -14 -17 -45 -33 -40 -20 -57 -34 -57 -48 0 -17
5 -18 35 -13 35 7 35 7 28 -25 -5 -26 -3 -31 8 -24 8 5 12 6 9 2 -3 -3 -8 -6
-12 -7 -4 -1 -23 -17 -43 -35 -19 -19 -51 -37 -70 -41 -19 -3 -39 -12 -46 -20
-9 -11 -6 -14 20 -14 43 0 109 35 149 78 37 41 44 38 62 -29 6 -20 24 -70 41
-110 17 -41 33 -85 35 -98 3 -13 11 -33 19 -45 8 -11 15 -28 15 -37 0 -25 32
-122 45 -139 15 -19 28 -70 18 -71 -35 -4 -56 -9 -112 -28 -35 -12 -93 -38
-127 -56 -40 -22 -66 -30 -70 -24 -4 6 -15 2 -30 -12 l-24 -22 0 24 c0 14 5
30 12 37 6 6 8 15 4 19 -4 5 -16 -3 -27 -16 -26 -32 -34 -21 -15 22 16 40 11
54 -12 30 -20 -19 -28 -3 -13 26 8 14 8 22 0 27 -14 8 -39 -22 -39 -48 0 -10
-5 -18 -11 -18 -7 0 -8 7 -4 18 15 36 26 84 21 89 -3 3 -13 0 -21 -7 -14 -12
-15 -10 -9 16 7 28 7 29 -17 13 -13 -9 -27 -27 -30 -40 -6 -20 -7 -17 -8 14
-1 20 -5 37 -11 37 -13 0 -30 -34 -30 -59 0 -15 -6 -21 -22 -21 -19 0 -20 2
-6 13 22 17 30 57 12 57 -18 0 -18 12 1 57 8 19 15 46 15 59 0 12 5 26 10 29
13 8 13 -25 -2 -80 -7 -24 -10 -47 -7 -50 9 -8 79 24 79 36 0 7 -9 9 -21 6
-18 -5 -20 -2 -13 26 3 18 19 65 35 105 16 40 29 77 29 82 0 6 -25 10 -55 10
l-55 0 3 32 c2 31 4 32 47 34 25 1 50 2 56 3 20 2 114 82 114 97 0 23 -20 16
-64 -20 -57 -47 -142 -56 -206 -23 -24 12 -48 30 -54 39 -15 24 4 70 34 85 14
7 31 20 38 30 13 17 13 16 7 -6 -10 -32 55 -95 88 -85 29 9 84 51 91 69 4 10
14 13 34 9 34 -7 62 16 62 50 0 46 55 94 109 95 23 1 23 0 8 -17z m1793 8 c0
-5 -4 -10 -10 -10 -5 0 -10 5 -10 10 0 6 5 10 10 10 6 0 10 -4 10 -10z m1380
-4 c0 -19 -33 -29 -62 -20 -21 6 -21 7 -3 20 25 18 65 18 65 0z m-3770 -192
c0 -6 -7 -28 -16 -49 -14 -34 -14 -39 1 -55 10 -11 14 -26 10 -41 -5 -20 -13
-24 -48 -26 -44 -1 -44 -1 10 34 15 10 16 14 4 21 -7 6 -11 14 -7 20 10 17
-12 24 -34 12 -12 -6 -26 -9 -33 -7 -7 3 3 10 21 17 36 13 38 35 3 34 -31 -1
-26 12 9 25 38 13 38 18 -2 35 -22 10 -27 15 -14 15 14 1 17 6 12 25 -3 12 -2
26 2 30 8 9 82 -73 82 -90z m-100 76 c0 -5 -2 -10 -4 -10 -3 0 -8 5 -11 10 -3
6 -1 10 4 10 6 0 11 -4 11 -10z m197 -33 c-6 -12 -13 -24 -14 -26 -4 -6 -33
21 -33 31 0 10 42 28 52 21 4 -2 2 -14 -5 -26z m553 12 c0 -6 -4 -7 -10 -4 -5
3 -10 11 -10 16 0 6 5 7 10 4 6 -3 10 -11 10 -16z m3279 -67 c0 -10 -3 -12 -5
-5 -4 8 -17 10 -37 6 -48 -9 -59 -22 -55 -65 3 -29 0 -37 -10 -33 -8 3 -22 5
-33 5 -10 0 -19 4 -19 9 0 4 11 6 25 3 22 -4 25 -1 25 26 0 35 -9 45 -30 32
-7 -5 -21 -3 -31 3 -29 18 -46 -5 -32 -43 10 -26 9 -30 -7 -30 -12 0 -17 6
-14 18 7 24 -19 57 -37 47 -7 -5 -25 -9 -39 -9 -21 -1 -25 -5 -22 -28 3 -21
-1 -28 -14 -28 -14 0 -14 2 -3 16 11 14 10 18 -5 30 -22 16 -27 14 134 39 58
10 106 18 107 19 1 1 25 3 53 3 41 1 50 -1 49 -15z m-1923 -44 c-11 -15 -16
-18 -16 -7 0 16 21 42 28 34 2 -2 -3 -14 -12 -27z m-1064 -20 c-7 -7 -12 -8
-12 -2 0 14 12 26 19 19 2 -3 -1 -11 -7 -17z m2614 6 c-3 -9 -6 -19 -6 -24 0
-4 -11 -7 -25 -7 -32 0 -59 -22 -46 -37 6 -8 2 -15 -15 -23 -27 -12 -30 -7
-10 20 8 10 12 26 10 35 -4 12 6 22 33 34 50 21 67 22 59 2z m-3444 -31 c16
-26 23 -53 23 -87 0 -40 4 -52 26 -68 24 -18 28 -19 64 -4 46 19 55 20 55 3 0
-45 -142 -43 -200 2 -30 24 -35 35 -38 74 -3 45 21 117 38 117 5 0 19 -17 32
-37z m1942 -4 c-27 -30 -38 -22 -12 9 13 16 25 25 27 20 1 -5 -5 -18 -15 -29z
m106 -40 c0 -9 -7 -22 -15 -29 -12 -10 -13 -16 -5 -24 8 -8 18 -3 34 17 l22
28 12 -23 c6 -13 12 -43 14 -67 l3 -44 -97 -22 c-54 -12 -101 -18 -105 -14 -4
4 -19 9 -32 11 -22 3 -20 5 19 30 37 25 44 26 61 14 23 -16 55 -11 63 11 4 9
-4 17 -22 24 -30 10 -36 37 -15 74 6 11 15 38 19 59 l7 39 18 -34 c10 -19 18
-41 19 -50z m1497 49 c-3 -7 -5 -2 -5 12 0 14 2 19 5 13 2 -7 2 -19 0 -25z
m223 -8 c0 -5 -5 -10 -11 -10 -5 0 -7 5 -4 10 3 6 8 10 11 10 2 0 4 -4 4 -10z
m-2887 -50 c3 -11 1 -23 -4 -26 -5 -3 -9 6 -9 20 0 31 6 34 13 6z m2742 11
c22 -2 34 -5 28 -8 -21 -8 -15 -33 7 -33 14 0 20 7 21 23 1 15 4 10 11 -15 10
-40 31 -49 46 -22 8 14 10 12 16 -10 4 -18 13 -26 27 -26 19 0 20 4 14 43 -9
58 11 29 26 -40 13 -56 19 -62 39 -38 10 12 11 24 2 50 -5 19 -6 35 -2 35 4 0
14 -24 20 -52 7 -29 17 -56 23 -59 16 -11 9 -114 -12 -166 -13 -33 -24 -48
-37 -48 -10 0 -24 -11 -31 -25 -12 -25 -13 -24 -13 13 0 20 -4 37 -9 37 -15 0
-41 -30 -41 -46 0 -8 -4 -13 -9 -9 -6 3 -4 17 5 33 15 29 18 55 8 65 -11 11
-44 -13 -44 -32 0 -10 -9 -26 -20 -36 -20 -18 -20 -18 -5 19 21 49 15 65 -22
58 -27 -5 -28 -4 -10 15 35 40 10 68 -30 32 l-26 -24 12 23 c15 27 7 56 -13
49 -9 -4 -12 2 -8 18 2 12 -1 26 -7 29 -13 8 -51 -51 -51 -78 0 -14 -3 -17
-10 -10 -7 7 -6 20 4 40 22 46 26 68 16 84 -8 12 -11 12 -27 -2 -10 -10 -19
-27 -20 -39 -1 -12 -4 -24 -7 -27 -13 -12 -13 6 0 57 10 36 11 58 5 64 -15 15
-40 -10 -47 -49 -6 -34 -17 -43 -29 -24 -3 6 -3 10 2 10 15 0 46 91 35 102 -6
6 -15 7 -21 4 -17 -11 -44 -74 -38 -90 3 -8 -2 -16 -14 -19 -25 -7 -24 -28 2
-56 12 -12 18 -25 15 -29 -4 -3 -13 3 -20 14 -8 10 -23 30 -35 43 -23 27 -27
46 -9 57 6 4 8 3 4 -4 -3 -6 -1 -14 5 -17 19 -12 38 18 43 65 l4 45 53 6 c52
5 87 5 174 0z m125 -15 c0 -3 -4 -8 -10 -11 -5 -3 -10 -1 -10 4 0 6 5 11 10
11 6 0 10 -2 10 -4z m-3670 -26 c0 -5 -5 -10 -11 -10 -5 0 -7 5 -4 10 3 6 8
10 11 10 2 0 4 -4 4 -10z m-205 -10 c-3 -5 -10 -10 -16 -10 -5 0 -9 5 -9 10 0
6 7 10 16 10 8 0 12 -4 9 -10z m1021 -19 c0 -11 -4 -17 -8 -15 -4 3 -8 12 -8
20 0 8 4 14 8 14 4 0 8 -9 8 -19z m2402 -3 c-6 -18 -28 -21 -28 -4 0 9 7 16
16 16 9 0 14 -5 12 -12z m-2639 -32 c-3 -3 -11 5 -18 17 -13 21 -12 21 5 5 10
-10 16 -20 13 -22z m2341 -1 c0 -9 -9 -15 -25 -15 -31 0 -33 17 -2 23 12 2 23
5 25 6 1 0 2 -6 2 -14z m-2091 -65 c0 -10 -3 -8 -9 5 -12 27 -12 43 0 25 5 -8
9 -22 9 -30z m1410 -4 c22 -19 46 -37 53 -40 9 -3 8 -8 -4 -16 -18 -11 -24
-50 -11 -64 4 -4 21 9 38 29 30 35 30 35 60 19 17 -9 46 -16 66 -15 56 3 72
-19 64 -88 -13 -116 -12 -126 12 -129 18 -3 24 3 28 25 3 15 10 40 14 55 5 15
7 37 4 48 -3 12 0 20 7 20 9 0 11 -20 8 -72 -6 -113 -52 -148 -124 -93 -40 30
-77 32 -129 4 -42 -22 -149 -28 -183 -10 -9 4 -34 11 -54 15 -53 10 -47 24 7
20 38 -3 45 -1 45 15 0 19 -21 43 -36 40 -5 -1 -31 -1 -57 0 -33 1 -49 6 -54
16 -8 22 2 28 24 17 10 -6 34 -12 53 -13 27 -3 35 0 38 14 4 20 -50 47 -95 47
-15 0 -35 5 -43 10 -23 15 7 30 50 24 80 -10 83 -10 86 14 2 12 -1 22 -9 23
-6 0 -21 2 -32 5 -11 2 -30 5 -42 6 -13 1 -23 5 -23 8 0 12 25 30 42 30 10 0
18 7 18 15 0 19 24 19 40 1 6 -8 27 -20 46 -26 19 -6 34 -16 34 -21 0 -5 6 -9
14 -9 10 0 13 12 12 43 -2 41 -3 42 -34 39 -36 -4 -44 14 -9 21 12 2 25 5 29
6 3 0 24 -14 47 -33z m1039 -69 c39 -59 49 -81 77 -171 29 -91 30 -106 10
-106 -18 0 -32 25 -45 86 -12 53 -25 74 -46 74 -16 0 -19 -32 -5 -58 4 -9 11
-36 15 -59 5 -32 3 -43 -7 -43 -8 0 -13 13 -14 33 -2 57 -26 112 -48 112 -12
0 -19 -6 -17 -14 2 -8 6 -43 9 -79 6 -58 4 -64 -12 -61 -14 3 -22 20 -31 68
-14 70 -25 87 -47 78 -11 -4 -12 -16 -6 -54 12 -70 11 -93 -4 -93 -7 0 -13 12
-14 28 -2 70 -4 81 -20 101 -28 33 -41 14 -33 -49 4 -30 5 -61 3 -67 -11 -28
-21 -10 -26 48 -6 66 -16 85 -42 76 -13 -6 -15 -17 -9 -72 5 -44 3 -65 -4 -65
-7 0 -12 27 -14 68 -3 64 -4 67 -27 64 -24 -2 -24 -2 -18 65 5 45 3 71 -5 81
-24 28 23 49 149 67 65 9 125 18 133 19 23 4 67 -31 98 -77z m-3348 54 c0 -6
-4 -13 -10 -16 -5 -3 -10 1 -10 9 0 9 5 16 10 16 6 0 10 -4 10 -9z m675 -1
c-3 -5 -2 -10 3 -10 16 0 33 -60 22 -79 -8 -13 -10 -12 -11 9 -1 14 -1 31 0
39 2 7 -2 10 -8 6 -6 -3 -11 -2 -11 4 0 5 -3 16 -6 25 -3 9 -1 16 6 16 6 0 8
-4 5 -10z m-602 -52 c-9 -29 -18 -60 -21 -68 -12 -35 -12 -63 0 -77 10 -13 9
-15 -7 -12 -26 5 -31 42 -11 84 9 18 16 42 16 53 0 28 18 72 29 72 5 0 2 -24
-6 -52z m2892 22 c-3 -5 -11 -10 -16 -10 -6 0 -7 5 -4 10 3 6 11 10 16 10 6 0
7 -4 4 -10z m503 -31 c10 -13 7 -15 -20 -11 -29 4 -30 6 -13 18 10 8 19 13 20
11 0 -1 6 -9 13 -18z m-1648 -9 c0 -5 -5 -10 -11 -10 -5 0 -7 5 -4 10 3 6 8
10 11 10 2 0 4 -4 4 -10z m125 -20 c-10 -11 -30 -26 -44 -33 -35 -18 -73 -40
-91 -53 -8 -6 -46 -23 -85 -38 -38 -15 -79 -32 -90 -37 -24 -10 -95 -27 -115
-27 -8 0 -26 -3 -40 -7 -14 -3 -36 -8 -50 -11 -14 -2 -45 -9 -70 -14 -25 -6
-94 -12 -155 -14 -109 -4 -110 -4 -60 10 28 8 62 17 78 19 15 2 31 7 36 10 5
2 28 7 52 10 23 3 48 10 54 15 7 6 25 11 41 13 16 2 39 9 52 16 12 6 22 8 22
4 0 -4 5 -2 12 5 7 7 20 12 30 12 23 0 325 98 361 117 15 8 31 12 36 8 5 -3
12 -1 16 5 3 5 11 10 17 10 6 0 3 -9 -7 -20z m1615 4 c0 -8 -5 -12 -10 -9 -6
4 -8 11 -5 16 9 14 15 11 15 -7z m-1875 -24 c-3 -5 -11 -10 -16 -10 -6 0 -7 5
-4 10 3 6 11 10 16 10 6 0 7 -4 4 -10z m-45 -9 c0 -5 -7 -12 -16 -15 -14 -5
-15 -4 -4 9 14 17 20 19 20 6z m1870 -1 c0 -6 -4 -8 -10 -5 -19 12 -31 -5 -19
-27 7 -13 17 -18 30 -15 15 4 25 -3 40 -26 25 -41 24 -55 -3 -59 -32 -5 -35
-28 -4 -28 14 0 26 5 26 11 0 23 28 -12 34 -43 8 -39 -8 -58 -49 -58 -30 0
-32 2 -44 53 -6 28 -14 63 -18 76 -5 21 -3 23 14 19 12 -3 26 -2 33 2 21 13 1
30 -36 30 -28 0 -34 4 -34 21 0 11 -4 28 -9 38 -8 14 -5 17 20 19 16 1 29 -3
29 -8z m-2788 -22 c-7 -7 -12 -8 -12 -2 0 14 12 26 19 19 2 -3 -1 -11 -7 -17z
m878 12 c0 -5 -26 -17 -57 -25 -32 -9 -81 -25 -108 -36 -28 -11 -65 -20 -83
-22 -17 -1 -32 -4 -32 -7 0 -3 -14 -7 -31 -8 -18 -1 -50 -7 -73 -13 -95 -24
-92 -24 -77 -5 8 9 20 15 26 12 7 -2 17 0 22 5 6 6 31 11 56 12 25 1 43 5 41
8 -7 12 91 37 113 28 17 -6 21 -5 16 6 -4 11 2 14 26 11 16 -2 32 1 33 5 2 5
23 11 47 14 24 3 51 10 60 15 20 12 21 12 21 0z m2026 -38 c-18 -16 -18 -16
-6 6 6 13 14 21 18 18 3 -4 -2 -14 -12 -24z m-2894 -4 c-7 -7 -12 -8 -12 -2 0
14 12 26 19 19 2 -3 -1 -11 -7 -17z m22 -12 c-3 -9 -10 -16 -15 -16 -5 0 -4 9
3 20 14 22 21 20 12 -4z m245 -10 c9 -11 7 -19 -13 -39 -24 -24 -24 -24 -30
-3 -11 39 -7 56 13 56 10 0 24 -6 30 -14z m892 -17 c10 -10 13 -22 9 -29 -6
-9 -10 -7 -14 8 -10 32 -31 33 -67 2 -38 -31 -72 -31 -43 1 9 10 21 15 28 13
7 -3 18 2 25 10 16 19 41 17 62 -5z m1759 6 c-7 -8 -17 -15 -23 -15 -6 0 -2 7
9 15 25 19 30 19 14 0z m35 -25 c-16 -16 -31 -27 -34 -24 -6 6 45 54 56 54 4
0 -6 -13 -22 -30z m-2925 16 c0 -3 -4 -8 -10 -11 -5 -3 -10 -1 -10 4 0 6 5 11
10 11 6 0 10 -2 10 -4z m2990 -10 c0 -2 -17 -16 -37 -31 l-38 -26 35 30 c34
31 40 35 40 27z m50 -19 c0 -7 -7 -22 -15 -33 -13 -17 -14 -16 -4 14 11 33 19
41 19 19z m-2690 -12 c-7 -9 -15 -13 -19 -10 -3 3 1 10 9 15 21 14 24 12 10
-5z m614 -16 l-29 -31 28 -24 c15 -13 35 -24 43 -24 8 0 14 -5 14 -10 0 -7 -7
-7 -21 0 -16 9 -25 8 -40 -6 -30 -27 -24 -51 16 -64 33 -11 34 -12 19 -35 -12
-18 -12 -24 -2 -28 9 -4 3 -15 -20 -37 -18 -17 -37 -28 -42 -25 -5 3 -11 1
-15 -5 -3 -5 -15 -15 -26 -20 -16 -9 -19 -7 -19 10 0 13 7 20 19 20 10 0 24 7
31 15 7 9 19 14 26 11 8 -3 15 7 19 25 9 41 -18 83 -50 77 -14 -3 -26 2 -34
14 -7 11 -7 18 -1 18 5 0 10 7 10 15 0 8 -5 15 -11 15 -6 0 -22 9 -36 20 -14
11 -36 20 -48 20 -27 0 -51 -26 -47 -51 2 -10 -2 -28 -9 -40 -10 -19 -9 -25 7
-36 14 -10 15 -13 3 -13 -20 0 -57 -40 -56 -62 0 -18 72 -34 107 -23 16 5 20
2 20 -15 0 -12 9 -24 22 -29 18 -6 9 -12 -51 -34 -54 -20 -77 -25 -91 -17 -13
7 -21 7 -26 -2 -4 -6 -3 -8 4 -4 6 3 13 2 17 -4 3 -5 -7 -12 -22 -16 -15 -4
-36 -14 -45 -22 -10 -8 -18 -12 -18 -7 0 4 -7 2 -15 -5 -9 -7 -23 -14 -33 -15
-9 -1 -35 -10 -57 -19 -22 -10 -44 -19 -50 -20 -5 -1 -36 -12 -68 -24 -32 -12
-59 -22 -60 -22 -9 0 1 110 12 123 7 10 10 17 7 17 -4 0 5 11 21 24 l28 24 38
-20 c21 -10 46 -18 56 -16 11 2 28 -8 38 -21 22 -27 60 -23 49 4 -3 8 -9 22
-13 31 -5 14 -1 15 24 10 32 -7 83 23 83 50 0 8 6 14 13 15 10 0 10 2 0 6 -7
2 -13 15 -13 29 0 28 -39 58 -64 48 -9 -3 -16 -15 -16 -26 0 -20 -25 -47 -44
-48 -4 0 -5 12 -1 28 18 70 17 89 -9 115 -27 27 -33 46 -16 48 6 1 31 2 58 3
26 1 53 5 60 10 7 4 16 5 19 2 3 -3 12 -1 19 4 6 6 16 10 20 9 5 -1 16 0 24 4
37 14 162 39 167 33 4 -3 -1 -6 -9 -6 -11 0 -14 -6 -11 -20 7 -26 53 -28 53
-2 0 10 -5 23 -10 28 -8 8 -6 15 5 24 8 7 15 9 15 6 0 -4 10 0 22 8 37 26 44
18 12 -15z m126 -14 c0 -14 -4 -25 -10 -25 -5 0 -10 11 -10 25 0 14 5 25 10
25 6 0 10 -11 10 -25z m-990 4 c0 8 3 12 6 9 7 -8 -18 -48 -30 -48 -4 0 -3 7
4 15 9 11 9 15 1 15 -7 0 -9 5 -5 11 4 8 9 7 15 -2 7 -12 9 -12 9 0z m1860 -3
c0 -25 -12 -46 -25 -46 -11 0 -11 6 -2 30 12 31 27 40 27 16z m999 -15 c-13
-11 -30 -20 -38 -21 -8 0 1 11 20 23 40 28 52 26 18 -2z m-2946 4 c4 -8 2 -17
-3 -20 -6 -4 -10 -4 -10 -1 0 2 -3 11 -6 20 -3 9 -2 16 4 16 5 0 12 -7 15 -15z
m255 -29 c2 -9 -34 -15 -89 -16 -19 0 -29 -9 -42 -35 -15 -32 -19 -34 -37 -23
-26 16 -25 22 4 38 13 7 27 22 30 33 3 12 10 17 19 14 8 -3 23 0 32 7 14 10
25 10 49 2 18 -6 33 -15 34 -20z m-388 9 c0 -2 -13 -19 -30 -38 -22 -25 -37
-33 -59 -32 -18 1 -27 -3 -25 -10 3 -6 -13 -20 -34 -31 l-38 -21 -12 25 c-13
27 -8 42 13 42 7 0 15 7 19 15 3 8 11 15 17 15 9 0 9 -4 0 -14 -7 -8 -8 -17
-3 -19 4 -3 21 10 36 29 15 20 30 33 33 30 3 -3 0 -12 -7 -21 -7 -8 -8 -15 -2
-15 5 0 15 7 22 15 15 19 36 20 24 2 -5 -7 0 -3 10 10 18 21 36 30 36 18z m60
-11 c0 -7 -7 -14 -14 -17 -11 -4 -13 -1 -9 11 4 12 -1 10 -17 -6 -26 -28 -41
-21 -16 7 19 21 56 24 56 5z m3042 -6 c-7 -7 -12 -8 -12 -2 0 6 3 14 7 17 3 4
9 5 12 2 2 -3 -1 -11 -7 -17z m-1342 -105 c0 -63 4 -81 20 -98 10 -11 20 -34
21 -50 5 -66 -11 -94 -99 -180 -87 -83 -87 -84 -87 -134 0 -28 -3 -51 -7 -51
-5 0 -8 6 -8 13 0 6 -7 26 -16 42 -8 17 -16 41 -16 55 -1 34 48 123 78 141 37
23 95 118 84 139 -11 21 9 212 21 204 5 -3 9 -39 9 -81z m250 72 c0 -8 -4 -15
-9 -15 -13 0 -22 16 -14 24 11 11 23 6 23 -9z m-1460 -1 c0 -4 -5 -24 -12 -46
-8 -28 -8 -42 0 -50 8 -8 8 -17 1 -31 -8 -13 -8 -17 -1 -13 6 4 26 0 44 -9
l33 -15 -34 5 c-23 3 -40 0 -51 -10 -16 -15 -18 -14 -23 7 -4 13 -17 34 -29
48 -13 14 -29 38 -36 53 -16 37 2 56 47 53 18 -1 34 1 37 6 6 9 24 11 24 2z
m700 -33 c0 -21 -6 -43 -12 -49 -10 -8 -13 -4 -13 16 0 15 4 33 9 41 6 10 5
12 -2 7 -13 -8 -17 6 -5 17 15 16 23 5 23 -32z m-1078 -15 c9 -17 7 -18 -16
-12 -36 9 -84 -18 -92 -52 -4 -15 -13 -35 -20 -46 -7 -10 -10 -25 -7 -33 3 -7
-3 -23 -13 -34 -18 -20 -18 -21 1 -32 40 -23 64 -20 71 10 11 44 16 47 34 23
15 -21 18 -21 33 -5 9 9 17 25 17 35 0 30 19 34 30 6 5 -14 14 -26 20 -26 6 0
2 -10 -10 -22 -19 -21 -24 -37 -21 -65 1 -7 -16 -23 -38 -37 -21 -14 -41 -30
-43 -37 -4 -11 -115 -15 -126 -5 -5 6 -2 7 63 25 45 12 85 43 85 66 0 20 -15
19 -39 -1 -18 -16 -76 -41 -111 -48 -8 -2 -21 1 -28 7 -8 7 -20 7 -35 0 -35
-16 -60 1 -52 37 6 29 -9 59 -57 116 -17 20 -17 21 4 40 72 64 186 114 269
118 27 2 52 6 56 10 4 4 9 1 12 -6 2 -7 8 -21 13 -32z m768 8 c0 -14 -5 -24
-11 -22 -6 2 -10 7 -10 11 1 4 1 16 1 28 0 11 5 17 10 14 6 -3 10 -18 10 -31z
m1030 32 c0 -2 -7 -6 -15 -10 -8 -3 -15 -1 -15 4 0 6 7 10 15 10 8 0 15 -2 15
-4z m-400 -98 c-7 -35 -19 -76 -27 -91 -31 -62 17 -90 69 -40 32 31 39 14 7
-18 -25 -25 -86 -52 -99 -44 -22 13 -10 109 20 170 17 33 30 68 30 79 0 11 3
16 6 13 4 -4 1 -35 -6 -69z m563 24 c-24 -22 -25 -27 -10 -30 9 -2 17 -8 17
-13 0 -14 -26 -11 -39 5 -9 11 -4 22 21 50 18 21 34 32 36 26 2 -6 -9 -23 -25
-38z m-2360 20 c4 10 8 10 16 -2 8 -11 4 -20 -17 -37 -15 -12 -31 -22 -35 -23
-15 0 -20 32 -6 41 8 5 10 9 6 9 -5 0 -5 5 -2 10 5 8 11 8 20 0 10 -8 14 -7
18 2z m623 -14 c4 -13 20 -42 35 -65 32 -46 39 -103 14 -103 -9 0 -15 9 -15
25 0 14 -11 42 -24 63 -27 42 -43 102 -27 102 5 0 13 -10 17 -22z m216 5 c21
-19 24 -43 5 -43 -19 0 -37 21 -37 42 0 22 8 23 32 1z m568 -9 c11 -13 10 -19
-10 -37 l-24 -22 19 23 c18 22 18 23 -1 37 -10 8 -14 15 -8 15 6 0 17 -7 24
-16z m454 -9 c-4 -8 -8 -15 -10 -15 -2 0 -4 7 -4 15 0 8 4 15 10 15 5 0 7 -7
4 -15z m-662 -17 c-7 -7 -12 -8 -12 -2 0 14 12 26 19 19 2 -3 -1 -11 -7 -17z
m65 -22 c-4 -9 -13 -16 -22 -16 -18 0 -19 5 -4 32 13 24 35 9 26 -16z m640 2
c-3 -7 -5 -2 -5 12 0 14 2 19 5 13 2 -7 2 -19 0 -25z m-1363 -44 c31 -67 32
-93 7 -125 -20 -26 -88 -56 -99 -44 -4 4 0 10 8 13 25 9 80 72 80 93 0 11 -11
37 -24 58 -18 29 -22 41 -13 50 6 6 12 11 13 11 2 0 14 -25 28 -56z m1288 -16
c-7 -7 -12 -8 -12 -2 0 6 3 14 7 17 3 4 9 5 12 2 2 -3 -1 -11 -7 -17z m-859
-8 c-3 -11 -14 -20 -24 -20 -34 0 -21 18 28 39 0 1 -1 -8 -4 -19z m-158 -21
c11 -17 0 -20 -21 -4 -17 13 -17 14 -2 15 9 0 20 -5 23 -11z m2127 -42 c48
-32 86 -67 104 -94 14 -23 13 -26 -15 -59 -37 -42 -42 -29 -6 14 17 20 22 33
14 37 -12 8 -66 -40 -75 -67 -3 -10 -10 -18 -15 -18 -11 0 -5 29 17 74 17 36
17 36 0 36 -8 0 -24 -12 -35 -26 -24 -30 -29 -19 -6 12 19 25 19 42 -1 46 -11
2 -18 15 -19 36 -2 17 -1 32 1 32 2 0 18 -10 36 -23z m-902 -98 c-14 -26 3
-49 36 -49 22 0 24 -3 18 -39 -6 -40 13 -80 78 -162 16 -20 28 -42 26 -49 -2
-7 25 -29 59 -49 34 -20 73 -47 87 -60 27 -26 99 -142 110 -179 13 -40 66 -53
66 -17 0 9 9 14 22 12 23 -2 48 -49 48 -90 0 -10 25 -42 55 -71 42 -40 52 -55
43 -64 -9 -9 -7 -16 7 -32 10 -11 24 -20 32 -20 22 0 15 -18 -9 -22 -13 -2
-23 -10 -23 -18 0 -8 6 -14 13 -12 12 2 92 -43 92 -53 0 -6 -32 6 -55 22 -28
19 -115 17 -144 -4 -22 -15 -25 -15 -37 2 -18 25 -64 46 -84 40 -15 -5 -17
-15 -13 -60 4 -47 2 -55 -12 -55 -28 0 -73 39 -101 86 -27 46 -33 64 -64 204
-10 47 -33 113 -51 148 -23 46 -29 66 -21 74 17 17 -9 58 -70 113 -52 47 -53
47 -114 43 -65 -4 -108 -25 -81 -39 8 -5 30 -4 50 2 43 11 65 3 115 -44 38
-37 39 -43 10 -51 l-23 -6 27 -24 c14 -13 35 -41 46 -62 10 -22 27 -52 36 -69
23 -44 21 -58 -8 -51 -47 12 -42 -18 7 -43 29 -16 38 -38 10 -26 -79 33 -85 0
-8 -39 30 -15 55 -32 55 -38 0 -5 -15 -1 -34 10 -42 25 -78 31 -83 15 -3 -7
16 -22 41 -35 52 -25 63 -44 14 -24 -64 26 -78 28 -78 12 0 -9 17 -23 38 -31
45 -19 102 -57 102 -68 0 -5 -12 0 -27 11 -35 24 -121 57 -129 49 -13 -13 6
-35 35 -42 17 -4 49 -21 71 -38 21 -18 49 -39 62 -48 13 -10 20 -20 17 -23 -3
-3 -21 6 -40 20 -38 29 -147 84 -166 84 -27 0 -12 -32 21 -45 48 -20 126 -74
126 -87 0 -6 7 -16 16 -23 13 -9 14 -16 6 -31 -9 -15 -11 -16 -12 -3 0 23 -46
61 -123 104 -64 35 -102 41 -92 13 3 -7 32 -26 65 -42 32 -16 61 -35 64 -43 7
-18 2 -17 -40 12 -20 14 -45 25 -55 25 -30 0 -22 -28 14 -45 35 -17 116 -85
101 -85 -5 0 -22 9 -39 21 -48 32 -76 41 -91 28 -8 -7 -14 -7 -14 -2 0 35
-160 100 -205 83 -25 -10 -36 -5 -30 13 3 7 7 30 10 52 3 22 8 55 11 73 6 28
4 32 -12 26 -17 -5 -16 -3 2 13 20 18 28 45 39 137 3 21 12 62 20 90 8 28 16
63 19 77 2 14 15 48 28 75 23 49 23 49 72 49 53 0 67 13 41 39 -20 19 -47 20
-100 2 -70 -24 -102 -28 -107 -14 -3 7 3 39 14 71 16 49 17 62 6 74 -11 14
-10 15 10 9 29 -10 59 10 95 61 24 35 27 48 24 96 -3 30 -8 60 -12 67 -5 9 6
27 33 52 46 43 58 48 42 17z m1090 -24 c0 -8 -4 -15 -10 -15 -5 0 -10 7 -10
15 0 8 5 15 10 15 6 0 10 -7 10 -15z m-995 -25 c3 -5 -1 -10 -10 -10 -9 0 -13
5 -10 10 3 6 8 10 10 10 2 0 7 -4 10 -10z m939 -39 c3 -4 -3 -16 -14 -26 -20
-18 -25 -11 -14 19 7 18 20 21 28 7z m-93 -64 c-10 -9 -11 -8 -5 6 3 10 9 15
12 12 3 -3 0 -11 -7 -18z m-1052 -30 c8 -10 7 -19 -4 -33 -14 -19 -14 -19 -29
1 -8 11 -16 26 -16 33 0 16 35 16 49 -1z m706 3 c3 -6 -4 -10 -17 -10 -18 0
-20 2 -8 10 19 12 18 12 25 0z m395 -17 c0 -5 -5 -15 -10 -23 -8 -12 -10 -11
-10 8 0 12 5 22 10 22 6 0 10 -3 10 -7z m-3912 -27 c-7 -8 -15 -12 -17 -11 -5
6 10 25 20 25 5 0 4 -6 -3 -14z m566 -181 c-4 -8 -10 -12 -15 -9 -14 8 -10 24
6 24 9 0 12 -6 9 -15z m-189 -31 c39 -2 73 -4 78 -4 4 0 7 -7 7 -15 0 -8 4
-15 8 -15 5 0 29 -18 53 -41 24 -22 52 -48 62 -57 19 -18 24 -47 5 -36 -7 5
-25 7 -40 6 -56 -4 -202 86 -268 164 -13 16 -13 17 5 10 11 -5 52 -10 90 -12z
m4165 -1 c0 -4 -12 -19 -26 -34 -28 -29 -25 -49 7 -49 10 0 19 -4 19 -8 0 -14
-23 -32 -41 -32 -21 0 -44 -26 -30 -34 6 -4 8 -13 5 -21 -8 -19 34 -29 69 -16
15 6 27 7 27 1 0 -5 -9 -12 -20 -15 -35 -11 -24 -45 20 -63 46 -20 51 -32 13
-32 -34 0 -58 -14 -49 -28 4 -6 31 -25 61 -42 49 -28 88 -65 97 -91 2 -5 19
-15 38 -22 19 -7 44 -18 55 -24 20 -12 20 -12 -5 -36 -44 -43 -69 -42 -136 8
-67 51 -115 59 -155 26 -20 -16 -22 -21 -9 -36 7 -9 26 -23 42 -31 28 -14 38
-47 18 -59 -5 -3 -10 -18 -10 -31 0 -19 8 -29 30 -37 17 -6 30 -14 30 -18 0
-10 -42 -35 -71 -42 -22 -6 -27 -2 -41 31 -9 20 -19 47 -23 60 -8 28 -54 52
-101 54 -25 1 -41 9 -55 27 l-21 26 32 6 c35 8 84 50 106 91 17 33 19 151 2
181 -6 12 -31 42 -54 67 -41 42 -42 45 -21 48 34 6 77 52 77 84 0 40 54 98 91
98 16 0 29 -3 29 -7z m-4335 -103 c-6 -33 -4 -40 10 -40 13 0 15 -6 10 -30 -5
-23 -3 -30 9 -30 20 0 56 35 56 55 0 8 5 15 10 15 6 0 4 -15 -5 -36 -20 -49
-19 -54 10 -54 22 0 25 -3 19 -26 -6 -23 -4 -25 17 -22 15 2 30 17 43 41 29
56 32 28 3 -32 -16 -33 -20 -54 -14 -60 17 -17 44 5 69 56 17 35 24 41 26 26
2 -11 -3 -39 -11 -62 -23 -64 20 -72 49 -9 l15 33 -6 -38 c-3 -20 -3 -42 1
-48 10 -17 43 21 55 65 10 34 13 38 19 21 8 -21 5 -36 -13 -72 -13 -29 -5 -38
22 -24 28 15 50 60 46 94 -4 32 10 36 25 7 8 -15 6 -24 -10 -40 -24 -24 -26
-46 -4 -54 25 -9 34 -7 34 8 0 38 22 19 67 -54 55 -91 78 -135 88 -169 7 -21
6 -22 -9 -10 -9 8 -25 22 -35 32 -22 21 -35 10 -46 -41 -5 -25 -2 -38 10 -52
10 -11 14 -26 11 -37 -7 -22 -61 -79 -88 -94 -16 -8 -17 -6 -11 22 5 29 4 31
-16 24 -12 -4 -21 -2 -21 4 0 15 -23 14 -56 -4 -15 -8 -31 -12 -34 -8 -3 3 1
8 8 10 23 9 41 33 35 49 -5 13 -8 13 -27 -1 -64 -47 -98 -44 -51 5 25 26 26
30 11 36 -11 4 -26 -2 -41 -16 l-24 -23 -6 26 c-4 14 -4 31 0 36 11 19 -4 32
-25 21 -25 -13 -35 3 -18 29 16 26 3 39 -24 22 -17 -11 -23 -10 -35 2 -14 13
-14 19 1 48 9 17 16 36 16 41 0 18 -29 7 -44 -17 -9 -14 -21 -23 -26 -20 -15
9 -12 41 5 55 17 14 20 50 4 50 -5 0 -7 5 -4 10 3 6 15 10 25 10 17 0 40 26
40 44 0 15 -18 3 -23 -15 -5 -18 -12 -20 -51 -18 -25 2 -48 0 -52 -4 -4 -4 5
-7 19 -7 31 0 34 -11 11 -45 -18 -28 -38 -24 -29 6 4 10 3 24 -2 31 -4 7 -14
29 -20 48 -12 33 -12 34 -9 5 4 -28 0 -26 -60 39 -35 37 -64 72 -64 77 0 18
98 140 118 148 2 0 1 -17 -3 -39z m2515 -10 c-13 -31 -30 -32 -30 0 0 17 30
44 39 35 2 -3 -2 -18 -9 -35z m2038 31 c19 -12 -8 -21 -64 -21 -41 0 -53 8
-37 23 9 10 85 8 101 -2z m-2149 -105 c-12 -20 -24 -35 -27 -32 -2 3 4 18 14
33 10 15 17 35 15 43 -2 11 0 12 9 4 8 -8 5 -21 -11 -48z m90 -11 c-6 -22 -13
-52 -16 -68 -3 -15 -9 -30 -15 -33 -14 -9 2 97 19 124 20 32 24 24 12 -23z
m1987 18 c-6 -6 -36 9 -36 18 0 5 9 4 20 -3 10 -7 18 -14 16 -15z m-576 -13
c0 -11 -2 -20 -4 -20 -2 0 -6 9 -9 20 -3 11 -1 20 4 20 5 0 9 -9 9 -20z m234
-49 c21 -23 41 -118 33 -152 -7 -27 -55 -85 -63 -76 -3 3 2 17 12 32 11 17 14
29 7 36 -16 16 -88 -37 -88 -64 0 -20 -6 -22 -49 -22 -48 0 -49 1 -77 54 -16
29 -26 58 -22 63 3 6 10 3 16 -8 6 -11 23 -32 39 -48 25 -27 29 -28 41 -14 6
9 21 18 31 20 24 4 34 28 12 28 -9 0 -16 7 -16 15 0 8 7 15 15 15 22 0 18 23
-5 38 -29 18 -25 42 6 42 15 0 36 12 52 29 33 35 35 36 56 12z m-1754 -24 c0
-39 29 -119 50 -137 25 -21 25 -51 2 -121 -10 -30 -18 -71 -17 -92 2 -35 -2
-40 -32 -55 -18 -9 -33 -23 -33 -32 0 -8 -9 -23 -19 -32 -25 -21 -38 -83 -21
-103 15 -18 50 -3 50 21 0 22 30 86 49 105 35 34 78 48 121 38 54 -12 110 -41
136 -71 22 -24 57 -94 94 -188 21 -52 64 -110 82 -110 20 0 17 30 -6 65 -14
21 -23 42 -20 47 3 5 14 -6 24 -24 9 -18 27 -34 38 -36 17 -3 21 3 24 35 2 27
8 39 21 41 14 3 17 -1 12 -21 -4 -15 -2 -28 5 -32 14 -9 88 13 111 32 20 17
59 17 59 -1 0 -7 -7 -19 -16 -27 -8 -7 -24 -30 -35 -51 -18 -35 -23 -38 -62
-38 -24 0 -48 -5 -54 -11 -8 -8 -17 -7 -33 4 -21 15 -54 13 -77 -5 -21 -17
-80 60 -113 145 -16 43 -30 83 -30 88 0 5 -4 9 -8 9 -5 0 -14 11 -20 25 -11
24 -45 34 -56 17 -3 -5 6 -25 19 -45 14 -20 25 -40 25 -44 0 -29 64 -151 95
-184 43 -44 43 -56 0 -33 -16 8 -37 13 -47 11 -11 -3 -18 0 -18 10 0 9 -8 13
-22 11 -24 -3 -28 -26 -12 -77 5 -16 4 -22 -3 -18 -6 4 -24 0 -41 -9 -21 -10
-53 -14 -99 -12 -60 3 -68 5 -65 21 2 14 -26 101 -44 135 0 1 -9 -1 -18 -4
-14 -5 -16 -14 -11 -43 4 -20 12 -42 17 -49 6 -7 8 -15 5 -18 -10 -10 -34 49
-42 101 -11 68 -11 86 -2 114 7 22 5 23 -20 18 -26 -5 -31 0 -58 51 -27 52
-30 67 -32 172 -3 118 19 261 40 257 6 -1 17 16 26 38 8 22 22 46 31 53 8 8 9
11 3 7 -19 -9 -16 9 7 38 11 14 20 30 20 37 0 6 5 8 10 5 6 -3 10 -16 10 -28z
m1570 -46 c0 -5 -7 -12 -16 -15 -24 -9 -28 -7 -14 9 14 17 30 20 30 6z m394
-227 c5 -12 2 -15 -10 -10 -8 3 -18 6 -20 6 -3 0 -2 5 1 10 9 15 22 12 29 -6z
m-719 -74 c0 -10 -12 -15 -42 -15 -34 0 -45 5 -54 22 -9 18 -9 26 1 38 11 13
17 13 54 -8 22 -12 41 -29 41 -37z m-335 23 c-1 -5 -9 -26 -20 -48 l-19 -40
-1 36 c0 19 5 40 12 47 13 13 28 16 28 5z m95 -24 c-5 -22 -2 -36 11 -50 24
-26 49 -24 73 7 21 26 21 26 61 10 22 -9 50 -16 61 -16 14 0 19 -5 17 -17 -4
-25 -51 -28 -83 -7 -22 15 -29 15 -51 4 -13 -8 -27 -24 -30 -36 -3 -13 -11
-27 -17 -32 -15 -12 -97 -24 -97 -14 0 4 -14 15 -30 24 -44 25 -38 39 15 33
50 -5 53 0 29 47 -20 38 -6 78 27 78 18 0 20 -4 14 -31z m1017 -39 c4 -24 1
-30 -14 -30 -18 0 -23 16 -12 44 10 25 21 19 26 -14z m168 -29 c0 -6 -5 -13
-11 -16 -5 -4 -14 -18 -19 -31 -11 -28 -22 -30 -40 -9 -7 8 -18 15 -25 15 -7
0 -19 7 -26 16 -12 14 -9 16 21 13 19 -2 44 2 55 9 24 14 45 15 45 3z m-1660
-61 c0 -5 -5 -10 -11 -10 -5 0 -7 5 -4 10 3 6 8 10 11 10 2 0 4 -4 4 -10z
m643 -27 c20 -16 36 -31 37 -35 0 -5 -34 -8 -75 -8 -42 0 -75 4 -75 10 0 15
44 58 61 59 9 1 32 -11 52 -26z m-731 -31 c26 -18 52 -31 58 -27 6 3 10 -3 10
-15 0 -20 -4 -19 -67 16 -65 36 -83 50 -83 66 0 12 32 -4 82 -40z m1647 12 c1
-1 0 -7 -3 -12 -7 -11 -56 7 -56 21 0 6 49 -1 59 -9z m-265 -49 c-13 -34 -29
-54 -58 -73 -53 -33 -65 -50 -66 -89 0 -45 -17 -41 -31 7 -10 33 -9 47 5 85
19 49 19 49 46 35 13 -7 21 -7 26 1 5 8 9 8 14 -1 13 -21 40 -3 40 26 0 26 28
69 38 60 2 -3 -4 -26 -14 -51z m-1374 -52 c0 -17 -28 -5 -40 18 -16 28 -12 31
15 12 13 -10 25 -23 25 -30z m1478 20 c-15 -18 -18 -67 -5 -80 4 -3 7 -10 7
-15 0 -15 -15 -7 -33 18 -19 25 -18 26 8 66 14 22 29 37 32 34 4 -3 -1 -14 -9
-23z m90 -38 c10 -21 9 -26 -8 -35 -10 -5 -21 -20 -23 -32 -2 -13 -3 -8 -1 11
2 19 -1 40 -7 47 -6 7 -8 18 -4 24 11 18 31 11 43 -15z m-254 -50 c-4 -8 -10
-15 -15 -15 -4 0 -6 7 -3 15 4 8 10 15 15 15 4 0 6 -7 3 -15z m56 -21 c0 -21
-17 -17 -23 5 -3 14 -1 18 9 14 8 -3 14 -11 14 -19z m40 -34 c15 -8 17 -14 8
-38 -15 -40 7 -79 59 -107 58 -30 73 -44 73 -66 0 -16 -8 -19 -59 -19 -67 0
-99 19 -125 74 -21 44 -20 79 1 119 9 18 16 35 15 40 -3 10 6 9 28 -3z m-1357
-74 c3 -8 0 -19 -7 -26 -10 -8 -15 -6 -20 6 -7 17 0 34 14 34 4 0 10 -6 13
-14z m107 -68 c0 -5 -13 -29 -29 -54 -33 -54 -47 -40 -31 32 6 24 8 57 4 72
-5 27 -5 27 25 -8 17 -19 31 -38 31 -42z m-290 21 c0 -5 -4 -9 -10 -9 -5 0
-10 7 -10 16 0 8 5 12 10 9 6 -3 10 -10 10 -16z m110 1 c0 -5 -4 -10 -10 -10
-5 0 -10 5 -10 10 0 6 5 10 10 10 6 0 10 -4 10 -10z m60 -15 c10 -12 9 -16 -5
-21 -19 -8 -40 9 -31 25 10 15 21 14 36 -4z m145 -104 c-3 -12 -11 -21 -16
-21 -10 0 -12 43 -2 54 12 12 25 -11 18 -33z m-134 4 c1 -14 3 -29 4 -35 1 -5
3 -21 4 -35 1 -29 39 -55 51 -35 4 7 5 21 2 33 -4 16 -2 19 12 14 10 -4 38 -7
62 -7 32 0 44 -4 44 -15 0 -18 -41 -20 -58 -3 -8 8 -15 8 -27 -2 -20 -17 -19
-39 3 -47 34 -13 43 -43 13 -43 -11 0 -23 -4 -26 -10 -11 -18 -73 -12 -85 9
-5 11 -19 23 -30 26 -17 5 -20 15 -20 68 0 34 -4 69 -9 77 -14 20 -4 30 30 30
24 0 29 -4 30 -25z m349 -195 c10 -7 11 -10 3 -10 -7 0 -13 -10 -13 -22 1 -32
48 -162 60 -166 5 -2 10 -9 10 -15 0 -27 66 -107 208 -251 143 -145 225 -208
236 -182 2 6 5 4 5 -5 1 -20 31 -48 57 -52 12 -1 54 -27 94 -57 80 -59 151
-87 292 -115 46 -9 90 -20 98 -25 9 -4 40 -11 70 -15 30 -4 64 -9 75 -11 20
-4 65 -48 65 -64 0 -13 -44 -34 -115 -54 -33 -9 -85 -24 -115 -33 -30 -9 -67
-16 -82 -15 -70 5 -88 4 -168 -4 -87 -8 -239 -12 -253 -5 -5 1 -41 4 -80 5
-40 1 -79 6 -87 11 -9 6 -130 11 -280 11 -184 1 -281 6 -318 15 -48 12 -56 11
-86 -5 -29 -15 -47 -17 -117 -11 l-84 7 -23 -31 c-23 -32 -55 -40 -69 -18 -6
9 -32 11 -100 7 -62 -3 -94 -1 -97 6 -9 23 12 29 96 30 70 2 93 6 116 23 16
11 32 18 36 14 3 -3 6 -1 6 6 0 14 -41 9 -129 -15 -29 -9 -55 -13 -58 -10 -11
11 -12 153 -1 186 40 126 84 234 117 290 54 94 157 308 169 355 6 22 14 67 17
100 10 87 23 125 45 125 10 0 20 -5 22 -11 6 -18 70 -26 104 -13 17 7 40 11
51 8 27 -7 53 20 53 56 0 22 6 30 30 39 17 5 37 8 44 5 8 -3 27 1 43 9 l28 15
5 -49 c3 -28 12 -54 20 -59z m-470 -6 c0 -8 -5 -12 -10 -9 -6 4 -8 11 -5 16 9
14 15 11 15 -7z m-33 -171 c-3 -3 -11 -2 -17 2 -9 6 -9 10 1 16 14 8 27 -7 16
-18z m-19 -64 c-2 -6 -7 -10 -11 -10 -4 1 -16 1 -27 1 -33 0 -23 17 11 18 16
0 29 -4 27 -9z m-528 -203 c0 -36 5 -47 25 -60 14 -9 25 -22 25 -28 0 -6 7
-19 16 -29 8 -9 11 -20 6 -23 -5 -3 -33 18 -62 47 -29 28 -55 52 -59 52 -3 1
-15 6 -27 12 -17 10 -25 9 -42 -3 -27 -19 -29 -3 -3 20 11 10 36 18 56 19 28
1 37 6 41 24 9 36 24 16 24 -31z m131 -139 c-13 -13 -26 -3 -16 12 3 6 11 8
17 5 6 -4 6 -10 -1 -17z m-555 -22 c-2 -5 6 -21 18 -34 l21 -24 -25 6 c-14 3
-55 11 -92 18 -72 13 -89 28 -35 30 17 1 43 4 57 9 34 10 61 8 56 -5z m92 -7
c5 -7 12 -28 14 -46 4 -25 1 -32 -9 -27 -8 3 -19 5 -24 5 -5 0 -9 14 -9 30 0
17 -4 30 -10 30 -5 0 -10 5 -10 10 0 14 36 12 48 -2z m148 -25 c-8 -8 -36 5
-36 17 0 7 6 7 21 0 11 -7 18 -14 15 -17z m-58 -10 c11 -10 23 -37 26 -62 l7
-44 -28 18 c-60 39 -65 43 -54 50 6 3 11 17 11 31 0 28 10 30 38 7z m170 -55
c25 -31 26 -158 1 -158 -6 0 -7 5 -4 11 14 22 12 66 -6 111 -18 46 -13 63 9
36z m-78 -26 c0 -15 -2 -15 -10 -2 -13 20 -13 33 0 25 6 -3 10 -14 10 -23z
m180 7 c0 -11 -27 -12 -34 -1 -2 4 4 9 15 9 10 1 19 -2 19 -8z m-190 -49 c0
-5 -5 -10 -11 -10 -5 0 -7 5 -4 10 3 6 8 10 11 10 2 0 4 -4 4 -10z m310 -90
c24 -47 26 -63 4 -31 -12 16 -22 21 -39 17 -22 -6 -23 -4 -12 24 6 17 15 30
19 30 4 0 17 -18 28 -40z m-153 3 c-3 -10 -8 -31 -11 -46 -7 -28 -26 -29 -26
-1 0 13 30 63 38 64 2 0 1 -8 -1 -17z m240 -70 c-3 -10 -5 -4 -5 12 0 17 2 24
5 18 2 -7 2 -21 0 -30z m-132 -38 c7 -6 16 -25 20 -43 3 -18 12 -32 18 -31 7
1 24 1 39 0 l27 -1 -20 -35 c-12 -19 -26 -38 -32 -42 -6 -4 -7 -1 -3 6 5 8 3
11 -6 9 -8 -2 -32 16 -55 40 -39 41 -41 45 -31 80 15 61 20 70 25 47 3 -11 10
-25 18 -30z m132 -27 c-3 -7 -5 -2 -5 12 0 14 2 19 5 13 2 -7 2 -19 0 -25z
m2089 -102 c-4 -38 -54 -129 -94 -170 -79 -81 -178 -147 -239 -161 -28 -6 -34
-3 -43 17 -6 13 -24 31 -40 40 -20 11 -28 22 -24 32 8 21 -25 34 -40 15 -6 -8
-22 -13 -35 -11 -22 3 -23 1 -18 -27 6 -30 -6 -51 -18 -31 -7 12 -45 14 -45 3
0 -5 4 -15 9 -23 15 -22 3 -30 -25 -18 -35 16 -55 -4 -31 -30 32 -35 1 -66
-61 -62 -45 3 -62 1 -62 -10 0 -5 8 -11 18 -11 9 -1 -14 -5 -53 -9 -84 -10
-147 -34 -139 -54 7 -19 34 -29 48 -17 6 5 47 11 91 15 60 4 74 3 55 -5 -37
-15 -9 -27 51 -21 32 3 49 1 49 -7 0 -14 -43 -24 -80 -19 -18 3 -35 -1 -41 -9
-9 -11 4 -13 72 -13 l84 -1 -24 -20 c-18 -15 -32 -18 -57 -13 -27 5 -34 3 -34
-9 0 -13 -19 -15 -127 -12 -71 2 -154 4 -186 4 -56 1 -58 2 -51 23 10 33 57
88 74 88 9 0 24 15 35 33 38 65 88 122 115 134 16 7 31 17 35 23 3 5 16 10 29
10 20 0 80 56 138 131 23 29 150 88 199 93 19 2 52 12 74 22 22 10 44 17 49
15 4 -1 23 3 41 9 19 6 46 13 62 16 32 6 118 31 148 44 34 14 49 18 72 19 17
1 21 -4 19 -23z m-433 -348 c4 -12 5 -23 4 -24 -1 -1 -27 -4 -57 -6 -30 -2
-54 -8 -52 -13 3 -13 102 -11 110 2 7 11 47 11 58 1 3 -4 -25 -24 -63 -46 -37
-22 -77 -49 -87 -61 -27 -30 -46 -27 -46 9 0 17 3 30 8 31 4 0 17 2 29 3 35 4
37 13 6 28 -39 18 -42 45 -6 59 15 7 36 11 45 11 9 0 19 6 22 14 8 21 23 17
29 -8z m-243 -152 c0 -3 -4 -8 -10 -11 -5 -3 -10 -1 -10 4 0 6 5 11 10 11 6 0
10 -2 10 -4z M2348 8349 c-21 -12 -24 -29 -4 -29 7 0 16 9 19 20 3 11 4 20 4
20 -1 0 -10 -5 -19 -11z M2440 8171 c0 -10 -7 -21 -15 -25 -21 -8 -19 -24 6
-31 26 -8 26 -8 34 38 6 30 4 37 -9 37 -9 0 -16 -8 -16 -19z M2368 8073 c-19
-5 -31 -30 -22 -45 3 -5 12 -7 18 -5 9 4 11 -3 8 -19 -7 -36 23 -31 38 7 19
45 0 73 -42 62z M2355 7810 c-9 -14 -6 -17 20 -22 13 -2 20 3 20 12 0 18 -30
26 -40 10z M4250 7550 c0 -5 7 -10 16 -10 8 0 12 5 9 10 -3 6 -10 10 -16 10
-5 0 -9 -4 -9 -10z M3422 7137 c-9 -10 -8 -18 2 -32 18 -25 48 -13 44 17 -4
27 -30 35 -46 15z M3480 7065 c-11 -13 -11 -19 3 -32 21 -21 49 -9 45 19 -4
28 -30 35 -48 13z M3537 7002 c-13 -14 -14 -21 -5 -30 29 -29 73 3 47 34 -15
18 -23 18 -42 -4z M3585 6934 c-15 -15 -15 -18 0 -35 28 -30 70 6 44 37 -15
18 -24 18 -44 -2z M3144 6885 c-37 -17 -51 -43 -27 -52 11 -4 22 1 31 15 20
30 77 30 109 1 21 -21 23 -21 29 -4 17 43 -75 69 -142 40z M3163 6828 c-26
-13 -31 -38 -7 -38 10 0 14 -6 11 -15 -9 -21 54 -31 93 -14 16 8 30 16 30 19
-1 14 -19 29 -54 44 -44 18 -43 18 -73 4z m80 -32 c7 -18 -1 -26 -25 -26 -18
0 -25 20 -11 33 11 12 31 8 36 -7z M3115 6630 c-14 -15 -15 -20 -4 -20 25 0
45 18 33 30 -7 7 -16 5 -29 -10z M3437 6524 c-13 -13 -7 -24 14 -24 11 0 19 5
17 12 -5 14 -22 21 -31 12z M3350 6465 c0 -8 9 -15 20 -15 11 0 20 7 20 15 0
8 -9 15 -20 15 -11 0 -20 -7 -20 -15z M3275 6440 c-4 -6 -1 -17 5 -26 15 -18
42 0 33 22 -6 16 -29 19 -38 4z M1250 5970 c0 -5 5 -10 10 -10 6 0 10 5 10 10
0 6 -4 10 -10 10 -5 0 -10 -4 -10 -10z M1030 5110 c0 -5 -3 -9 -7 -8 -10 3
-73 -25 -73 -33 0 -3 -10 -16 -22 -29 -27 -29 -31 -51 -16 -87 6 -15 12 -33
13 -39 11 -49 17 -55 47 -49 17 4 50 21 74 38 51 36 62 77 43 162 -11 47 -15
55 -36 55 -12 0 -23 -4 -23 -10z m22 -70 c4 -26 3 -28 -16 -18 -38 20 -43 30
-27 48 20 21 37 9 43 -30z m-65 -50 c-1 -12 -5 -16 -10 -11 -5 5 -6 14 -3 20
11 16 15 13 13 -9z M2965 4802 c-18 -13 -74 -106 -69 -114 11 -18 36 -6 45 22
11 32 24 38 32 18 7 -17 56 40 57 65 0 24 -16 21 -35 -5 l-17 -23 7 23 c6 22
-1 28 -20 14z M2030 4605 c-16 -19 -4 -35 26 -35 26 0 32 18 12 38 -16 16 -23
15 -38 -3z M1945 4580 c-12 -13 -14 -20 -5 -20 6 0 10 -6 7 -14 -8 -20 42 -11
58 11 12 15 12 20 -2 31 -23 17 -37 15 -58 -8z M2070 4391 c-16 -4 -25 -14
-25 -26 0 -15 7 -20 25 -20 18 0 25 5 25 20 0 11 5 23 10 27 12 9 0 9 -35 -1z
M1724 4273 c-3 -10 -10 -27 -16 -38 -10 -17 -9 -18 4 -7 9 7 22 10 30 7 8 -3
24 -2 35 2 16 6 19 13 12 31 -10 27 -57 31 -65 5z M1711 4571 c-20 -13 -7 -37
22 -43 22 -4 24 -2 18 20 -8 29 -20 36 -40 23z M3020 4003 c-56 -29 -68 -48
-39 -66 12 -8 25 -3 53 18 21 16 54 31 74 34 49 8 50 35 2 39 -23 2 -54 -7
-90 -25z M3437 3613 c-4 -3 8 -25 26 -47 18 -23 44 -59 57 -81 32 -55 100
-125 122 -125 28 0 21 26 -17 63 -19 18 -41 49 -49 68 -31 74 -114 147 -139
122z M361 3587 c-7 -9 -11 -24 -9 -34 3 -16 5 -15 17 5 15 29 10 50 -8 29z
M2710 3406 c0 -8 9 -16 19 -19 13 -3 18 -1 14 8 -7 19 -33 27 -33 11z M2620
3209 c0 -5 5 -7 10 -4 6 3 10 8 10 11 0 2 -4 4 -10 4 -5 0 -10 -5 -10 -11z
M2823 3123 c-27 -10 -13 -33 20 -33 18 0 43 -7 55 -16 12 -8 27 -12 32 -9 43
27 -55 80 -107 58z M2770 2756 c0 -29 40 -106 55 -106 19 0 19 29 -1 80 -11
27 -22 40 -35 40 -10 0 -19 -6 -19 -14z M2851 2741 c-14 -9 -10 -42 8 -71 15
-23 33 2 29 40 -3 36 -15 45 -37 31z M2900 2711 c0 -10 7 -24 15 -31 21 -17
39 1 30 29 -8 27 -45 28 -45 2z M4090 878 c0 -4 11 -8 25 -9 14 -1 37 -1 52
-2 15 -1 29 5 31 11 3 9 -12 12 -52 11 -31 -1 -56 -6 -56 -11z M2100 7516 c-8
-17 -10 -39 -6 -68 6 -39 6 -41 -8 -23 -8 11 -18 17 -22 13 -4 -4 -13 -3 -20
2 -9 8 -18 3 -33 -16 -25 -32 -27 -50 -5 -58 35 -14 89 6 127 47 34 36 38 45
33 76 -8 54 -43 68 -66 27z m-40 -100 c0 -3 -4 -8 -10 -11 -5 -3 -10 -1 -10 4
0 6 5 11 10 11 6 0 10 -2 10 -4z M911 4374 c0 -11 3 -14 6 -6 3 7 2 16 -1 19
-3 4 -6 -2 -5 -13z M3686 4021 c-3 -4 6 -18 19 -31 13 -12 36 -40 51 -61 18
-27 34 -39 50 -39 40 0 26 38 -39 108 -29 30 -70 42 -81 23z M1440 3648 c-36
-38 -43 -57 -24 -65 12 -4 26 4 45 28 16 19 27 38 26 43 -6 19 -26 17 -47 -6z
M120 3435 c0 -2 9 -12 19 -22 10 -10 20 -27 22 -38 4 -26 -20 -70 -32 -58 -5
5 -25 7 -44 5 l-34 -4 -1 -282 c0 -325 -14 -280 118 -375 69 -49 76 -52 103
-41 16 7 29 16 29 20 0 4 9 10 19 13 28 7 62 80 61 130 -1 23 1 67 3 97 3 30
8 91 12 135 3 44 11 99 17 122 12 50 -2 79 -31 64 -9 -5 -30 -6 -48 -4 -32 5
-32 5 -18 34 8 15 15 34 15 42 0 23 -103 89 -127 80 -6 -2 -14 5 -18 17 -9 28
-65 84 -65 65z m123 -157 c7 -11 4 -28 -11 -59 -12 -24 -23 -56 -26 -70 -17
-102 -28 -232 -23 -291 3 -39 3 -68 0 -65 -3 4 -13 2 -23 -3 -16 -8 -17 -5
-13 34 6 50 -9 86 -36 86 -16 0 -19 -7 -19 -45 1 -41 -6 -65 -15 -54 -2 2 -1
29 2 59 5 42 3 58 -9 66 -11 10 -12 17 -2 38 6 14 14 54 18 88 3 35 10 70 14
78 4 8 11 34 15 57 7 44 22 62 70 87 34 18 44 17 58 -6z m82 -255 c-9 -128
-27 -242 -41 -254 -17 -14 -23 36 -19 161 4 135 11 168 39 173 11 2 22 5 24 6
2 0 0 -38 -3 -86z m-102 -283 c7 -6 23 -19 36 -30 l24 -20 -26 0 c-28 0 -57
23 -57 46 0 17 6 18 23 4z m112 -20 c-10 -11 -23 -20 -28 -20 -6 0 0 11 13 25
27 29 42 25 15 -5z M1793 3083 c-18 -7 -16 -42 3 -50 21 -8 34 8 28 35 -6 23
-10 24 -31 15z M2692 2598 c-17 -17 -15 -64 4 -83 26 -26 39 -12 39 41 0 51
-17 68 -43 42z M2873 2003 c-22 -8 -14 -23 21 -40 34 -16 66 -13 66 7 0 7 -67
43 -74 39 0 0 -7 -3 -13 -6z M2826 1942 c-8 -14 69 -51 85 -41 12 8 10 13 -10
29 -23 20 -66 27 -75 12z M667 1758 c-98 -98 -165 -174 -193 -216 -1 -2 -16
10 -33 27 -17 17 -46 38 -64 47 -17 8 -50 36 -73 61 -56 63 -78 61 -157 -13
-85 -81 -99 -100 -95 -131 l3 -27 30 33 c17 19 39 42 50 53 11 11 37 36 57 56
l37 36 37 -38 c20 -21 53 -46 74 -57 20 -11 48 -31 61 -46 13 -14 36 -33 50
-42 27 -17 73 -52 142 -109 54 -44 70 -52 87 -42 19 12 -10 43 -97 107 -35 25
-63 52 -63 59 0 35 202 247 229 241 9 -2 30 11 47 30 l31 32 33 -45 c45 -64
429 -445 485 -483 26 -17 51 -29 56 -26 18 12 8 35 -28 62 -21 15 -46 37 -56
48 -10 11 -43 46 -74 77 -45 48 -52 59 -38 64 9 4 30 19 47 34 16 15 41 34 54
41 24 12 28 10 77 -39 54 -54 178 -149 282 -217 33 -21 69 -46 80 -56 35 -31
67 -38 108 -24 26 9 48 10 79 3 24 -6 131 -11 238 -12 146 -1 200 -5 216 -15
22 -15 54 -9 54 8 0 25 -48 32 -213 32 -95 0 -198 5 -230 10 -99 17 -118 18
-144 8 -27 -10 -18 -15 -216 121 -48 33 -89 60 -91 60 -13 0 -115 106 -120
124 -7 30 -49 48 -94 40 -20 -4 -65 -29 -101 -55 l-66 -49 -44 43 c-105 100
-201 204 -223 239 -13 20 -31 38 -40 38 -10 0 -18 7 -18 15 0 9 -10 15 -26 15
-19 0 -55 -30 -147 -122z M2800 1872 c0 -10 56 -52 69 -52 6 0 15 9 21 19 8
16 5 21 -22 30 -37 13 -68 14 -68 3z M2787 1823 c-10 -10 42 -53 64 -53 27 0
24 25 -6 44 -26 17 -47 20 -58 9z M2724 1719 c-9 -16 30 -64 52 -64 26 0 28
27 4 53 -23 24 -45 28 -56 11z M721 1707 c-25 -31 -82 -159 -77 -173 3 -9 -1
-22 -9 -30 -20 -21 -19 -34 4 -34 23 0 45 25 36 40 -4 6 0 19 8 28 23 25 87
164 81 174 -8 12 -30 10 -43 -5z M1280 1548 c-11 -18 -23 -43 -26 -56 -7 -26
5 -45 22 -34 17 11 64 90 64 107 0 28 -39 16 -60 -17z M713 1343 c-48 -19 47
-64 149 -70 75 -6 78 -5 78 16 0 11 1 21 3 21 2 0 50 -18 107 -40 57 -23 116
-42 130 -44 15 -2 32 -6 39 -10 20 -13 2 -25 -32 -21 -17 2 -80 5 -140 6 -59
1 -125 5 -145 9 -63 14 -182 19 -188 8 -12 -19 13 -27 96 -30 87 -3 130 -20
99 -38 -21 -13 -5 -22 26 -14 15 4 30 15 32 25 4 14 16 17 66 18 244 0 288 2
282 11 -3 6 -16 11 -28 11 -17 1 -15 3 7 8 46 10 45 31 -1 29 -21 0 -49 3 -63
7 -14 5 -29 9 -35 10 -5 1 -30 11 -55 23 -25 12 -54 22 -65 22 -11 0 -34 8
-51 19 -16 10 -41 17 -55 16 -13 -1 -34 -3 -46 -4 -12 0 -24 -10 -28 -20 -5
-17 -10 -18 -43 -9 -20 5 -56 18 -79 29 -24 10 -44 19 -45 18 -2 0 -9 -3 -15
-6z M343 1253 c-13 -2 -23 -9 -23 -14 0 -15 30 -23 41 -12 12 12 75 -4 139
-37 80 -41 162 -61 271 -67 74 -4 108 -2 113 6 5 8 -17 11 -77 11 -92 0 -174
23 -282 78 -58 30 -136 45 -182 35z M83 1233 c-50 -6 -43 -31 7 -26 22 2 48
-1 57 -6 17 -10 16 -10 -2 -12 -11 0 -37 0 -57 1 l-38 2 0 -222 c0 -168 3
-221 12 -218 7 3 12 18 13 34 1 16 2 59 3 96 l2 67 48 -6 c26 -3 67 -9 91 -13
49 -9 140 12 142 33 4 39 -11 57 -47 57 -12 0 -27 7 -34 15 -10 12 -9 15 4 15
32 0 5 20 -35 26 -32 5 -38 10 -34 25 5 14 -1 19 -32 25 -21 4 -55 7 -76 7
-34 -1 -66 16 -35 18 53 4 85 7 100 8 40 2 56 51 24 73 -11 8 -55 8 -113 1z
m37 -137 c0 -8 -51 -13 -56 -5 -3 5 9 9 25 9 17 0 31 -2 31 -4z m37 -2 c-3 -3
-12 -4 -19 -1 -8 3 -5 6 6 6 11 1 17 -2 13 -5z m-52 -64 c3 -5 -1 -10 -9 -10
-9 0 -16 5 -16 10 0 6 4 10 9 10 6 0 13 -4 16 -10z m208 -39 c8 -8 7 -15 -4
-26 -12 -12 -33 -14 -111 -8 -135 8 -160 28 -56 43 69 9 157 5 171 -9z M1346
1232 c-7 -11 9 -25 39 -36 11 -4 76 -7 145 -7 118 1 226 -11 262 -30 9 -4 48
-5 88 -2 55 5 74 3 80 -8 7 -10 75 -13 352 -15 189 -1 368 -5 398 -9 59 -8
101 -8 218 -1 54 4 77 9 86 22 11 15 43 17 292 21 153 2 320 4 369 5 50 1 117
-1 150 -4 55 -6 240 -12 275 -9 12 1 12 3 -2 12 -30 17 -390 27 -688 19 -47
-2 -146 -2 -220 -1 -102 1 -148 -2 -190 -15 -70 -22 -195 -31 -285 -22 -105
11 -532 17 -595 8 -41 -6 -59 -4 -71 6 -20 18 -184 30 -219 16 -18 -7 -37 -5
-65 5 -23 9 -92 17 -165 19 -109 4 -154 10 -232 30 -9 3 -19 1 -22 -4z M1235
1099 c-85 -16 -95 -19 -95 -34 0 -23 41 -30 56 -10 11 15 27 17 91 16 43 -2
92 -4 108 -6 161 -21 1562 -36 1941 -20 71 2 130 -1 167 -9 31 -7 59 -11 61
-8 3 2 47 5 97 6 56 1 94 6 96 13 4 12 -212 26 -377 23 -187 -4 -834 -2 -1270
3 -443 6 -624 12 -725 28 -69 10 -82 10 -150 -2z M417 1083 c-3 -5 5 -19 18
-31 14 -14 26 -19 30 -12 7 11 45 13 70 4 15 -6 15 -8 0 -24 -16 -17 -14 -19
37 -27 81 -14 318 -16 318 -4 0 7 -44 11 -122 12 -68 1 -127 2 -133 4 -5 1
-18 3 -27 3 -9 1 -18 12 -20 24 -2 19 -13 25 -63 35 -33 6 -70 14 -81 18 -12
4 -24 3 -27 -2z M3800 1032 c0 -13 121 -23 156 -12 36 10 37 10 -68 16 -52 3
-88 2 -88 -4z M1158 1015 c-7 -5 -158 -17 -205 -15 -35 1 -53 -3 -53 -11 0
-17 327 5 346 24 6 6 -81 8 -88 2z M1780 971 c0 -7 32 -11 93 -12 50 -1 119
-3 152 -5 148 -8 918 -12 900 -4 -11 4 -211 10 -445 14 -234 3 -487 9 -562 12
-99 5 -138 3 -138 -5z M3137 949 c31 -5 61 -5 75 1 17 6 3 9 -52 8 l-75 0 52
-9z M3314 948 c-6 -9 125 -14 221 -8 44 3 99 2 123 -1 23 -3 45 -2 47 2 3 4
-18 10 -47 14 -66 7 -338 2 -344 -7z M3820 940 c0 -5 12 -10 28 -9 24 0 25 1
7 9 -27 12 -35 12 -35 0z M155 896 c-19 -14 -13 -36 9 -36 8 0 19 6 25 14 18
21 -10 40 -34 22z M1760 875 c-12 -14 -41 -16 -217 -14 -111 2 -205 0 -209 -3
-5 -6 123 -9 359 -11 62 0 102 4 109 11 7 7 21 12 32 12 28 0 17 6 -25 14 -27
5 -40 2 -49 -9z M1878 873 c12 -2 30 -2 40 0 9 3 -1 5 -23 4 -22 0 -30 -2 -17
-4z M1987 869 c7 -7 15 -10 18 -7 3 3 -2 9 -12 12 -14 6 -15 5 -6 -5z M517
863 c18 -2 50 -2 70 0 21 2 7 4 -32 4 -38 0 -55 -2 -38 -4z M638 863 c6 -2 18
-2 25 0 6 3 1 5 -13 5 -14 0 -19 -2 -12 -5z M748 863 c7 -3 16 -2 19 1 4 3 -2
6 -13 5 -11 0 -14 -3 -6 -6z M793 863 c9 -2 25 -2 35 0 9 3 1 5 -18 5 -19 0
-27 -2 -17 -5z M1176 859 c3 -5 11 -9 19 -9 8 0 16 4 19 9 3 5 -5 9 -19 9 -14
0 -22 -4 -19 -9z M1255 860 l-30 -8 27 -1 c15 0 30 4 33 9 3 6 5 9 3 9 -2 -1
-16 -5 -33 -9z M2130 856 c309 -40 364 -44 358 -26 -2 6 -44 13 -93 15 -50 3
-103 7 -120 10 -16 3 -79 7 -140 10 l-110 4 105 -13z M311 856 c9 -8 128 -13
140 -5 7 4 -22 8 -65 8 -43 0 -77 -1 -75 -3z M1043 853 c20 -2 54 -2 75 0 20
2 3 4 -38 4 -41 0 -58 -2 -37 -4z M2538 843 c-26 -7 -22 -24 5 -19 12 3 59 5
105 5 45 1 82 5 82 10 0 10 -158 13 -192 4z M2760 840 c-15 -5 34 -7 118 -5
79 1 146 5 149 9 9 9 -238 5 -267 -4z M3043 843 c4 -3 26 -7 49 -7 26 -1 43
-6 43 -13 0 -6 3 -14 6 -17 22 -23 481 -47 494 -26 5 8 -26 11 -112 10 -65 -1
-145 1 -178 5 -33 4 -69 9 -80 10 -11 1 -35 3 -53 4 -29 1 -32 4 -27 21 6 19
2 20 -71 20 -43 0 -74 -3 -71 -7z M839 469 c-12 -8 -10 -13 9 -28 22 -19 22
-23 18 -166 -5 -161 -4 -163 54 -148 l33 9 -2 135 c-2 113 0 138 13 148 9 8
16 19 16 27 0 14 -35 28 -49 19 -5 -3 -12 -1 -15 3 -7 12 -59 13 -77 1z M50
449 c0 -10 6 -19 13 -19 9 0 12 -30 13 -114 1 -63 4 -126 8 -141 6 -22 3 -28
-14 -32 -25 -7 -27 -33 -1 -33 53 0 111 14 111 26 0 8 -4 14 -10 14 -6 0 -10
28 -10 63 0 49 4 68 18 80 20 18 14 25 101 -112 14 -21 13 -25 -4 -37 -10 -8
-16 -16 -13 -20 6 -5 108 -5 208 1 30 2 63 4 73 4 24 1 22 31 -3 31 -19 0 -20
7 -20 123 1 111 2 119 14 92 8 -16 26 -45 40 -64 14 -19 26 -39 26 -44 0 -4
14 -28 30 -52 17 -24 30 -48 30 -54 0 -13 11 -19 48 -26 56 -9 63 9 61 163 0
90 3 138 10 140 29 10 5 22 -44 22 -57 0 -66 -5 -40 -24 13 -9 15 -29 13 -101
l-3 -90 -33 55 c-19 30 -43 69 -55 86 -12 18 -26 39 -32 48 -12 21 -140 36
-166 20 -14 -8 9 -34 24 -28 14 5 17 -252 4 -273 -5 -7 -19 -13 -32 -13 -18 0
-42 24 -104 105 l-80 104 42 36 c23 20 47 33 53 31 7 -3 18 2 24 9 16 20 -4
27 -61 23 -33 -2 -44 -7 -44 -20 0 -16 -63 -88 -77 -88 -5 0 -8 18 -8 40 0 29
5 42 21 50 36 20 15 33 -59 36 -65 2 -72 1 -72 -17z m285 -299 c-3 -5 -10 -10
-16 -10 -5 0 -9 5 -9 10 0 6 7 10 16 10 8 0 12 -4 9 -10z M1110 457 c-50 -13
-97 -56 -121 -111 -52 -120 20 -218 160 -217 84 0 97 9 104 73 2 29 3 56 1 59
-6 10 -138 10 -152 0 -21 -13 15 -44 44 -37 17 5 26 1 34 -15 14 -25 9 -31
-30 -36 -28 -3 -33 1 -50 43 -20 45 -26 116 -14 149 4 8 20 23 36 31 27 14 31
14 60 -11 39 -33 60 -19 56 34 -3 35 -5 36 -49 41 -26 3 -61 2 -79 -3z M1305
450 c-3 -6 0 -13 8 -16 11 -4 14 -34 16 -134 1 -114 -1 -130 -16 -139 -29 -16
-2 -32 58 -34 l54 -2 1 60 c3 125 -2 115 50 115 l46 0 -5 -80 c-4 -66 -2 -82
13 -95 9 -8 20 -12 24 -8 4 5 15 8 24 9 10 1 27 2 40 3 27 1 29 17 2 24 -18 5
-19 12 -15 137 2 74 9 138 15 145 14 17 -14 27 -70 23 -42 -2 -58 -12 -40 -23
5 -3 10 -26 10 -51 l0 -44 -45 0 c-36 0 -45 4 -47 18 -1 9 -2 24 -4 32 -1 8
-2 27 -3 43 -1 26 -3 27 -55 27 -30 0 -58 -5 -61 -10z M1681 441 c-7 -5 -11
-22 -9 -42 2 -26 8 -35 25 -37 14 -2 26 4 33 17 6 12 21 21 35 21 24 0 24 0
27 -125 2 -100 0 -129 -12 -140 -16 -16 -16 -16 52 -20 63 -3 72 4 53 42 -13
26 -14 52 -9 137 7 101 8 106 29 106 15 0 25 -8 28 -21 7 -28 37 -21 56 12 29
53 17 58 -146 58 -82 0 -154 -4 -162 -8z M2798 442 c-22 -4 -24 -32 -3 -32 8
0 24 -18 35 -40 l20 -39 -23 -61 c-12 -34 -27 -61 -32 -61 -12 0 -56 145 -58
190 l-2 34 -69 1 c-44 1 -71 -3 -73 -11 -2 -6 4 -14 15 -17 13 -4 32 -42 62
-124 35 -96 74 -187 85 -200 6 -7 65 31 65 43 0 7 6 18 14 24 8 7 17 23 20 36
3 13 11 36 17 51 l10 28 39 -60 c56 -85 82 -107 118 -99 35 7 39 15 87 165 26
82 44 121 62 136 33 28 18 37 -49 30 -60 -7 -85 -23 -50 -33 17 -4 21 -10 16
-22 -4 -9 -20 -51 -35 -95 -15 -43 -30 -80 -32 -83 -5 -4 -60 81 -93 144 -14
26 -15 35 -4 48 7 8 23 15 35 15 19 0 56 27 44 31 -9 4 -206 4 -221 1z M3259
428 c-23 -9 -23 -10 -5 -24 19 -14 19 -15 2 -51 -10 -21 -29 -76 -43 -123 -13
-47 -34 -95 -45 -107 -16 -18 -18 -23 -7 -27 26 -8 84 -13 97 -9 14 6 16 33 2
33 -15 0 -12 44 5 88 l16 39 66 -11 c66 -11 66 -11 82 -54 15 -41 15 -45 -3
-58 -15 -11 -17 -16 -7 -28 7 -8 25 -15 39 -16 145 -3 226 0 241 9 19 12 5 31
-24 31 -13 0 -25 6 -28 13 -5 14 2 165 9 186 5 17 35 -23 82 -112 17 -32 32
-58 34 -58 26 1 48 -15 48 -33 0 -18 6 -22 38 -21 l37 0 2 65 c2 102 11 223
19 248 6 22 5 22 -53 19 -68 -5 -94 -15 -71 -28 8 -5 16 -25 17 -46 1 -21 3
-59 5 -86 3 -40 1 -46 -10 -36 -8 6 -14 16 -14 21 0 6 -24 47 -54 92 l-53 82
-74 0 c-59 -1 -74 -4 -74 -16 0 -8 6 -15 14 -15 22 0 28 -38 26 -165 l-2 -115
-26 -3 c-23 -3 -27 2 -42 55 -22 81 -86 241 -99 252 -16 13 -119 19 -147 9z
m106 -90 c13 -29 23 -54 21 -55 -2 -2 -22 -1 -45 3 -41 7 -42 8 -35 38 6 28
24 66 32 66 2 0 14 -23 27 -52z M3946 422 c-3 -6 3 -17 15 -26 20 -14 22 -24
24 -146 2 -110 -1 -132 -14 -140 -26 -14 -9 -20 82 -25 72 -5 93 -3 129 14 73
33 108 83 108 153 0 63 -16 111 -48 141 -26 25 -35 27 -158 33 -89 5 -133 3
-138 -4z m234 -64 c32 -26 35 -33 38 -96 2 -42 -2 -76 -10 -92 -18 -33 -82
-64 -107 -51 -23 13 -28 41 -30 168 l-1 103 38 -2 c26 -1 49 -10 72 -30z
M4381 418 c-49 -18 -83 -119 -48 -145 6 -5 43 -8 82 -7 66 2 95 -6 95 -28 0
-5 -4 -6 -10 -3 -16 10 -12 -5 10 -32 11 -14 16 -30 13 -37 -4 -6 -8 -20 -8
-31 0 -39 -111 -32 -117 8 -5 39 -37 32 -84 -17 -45 -47 -45 -63 1 -46 15 6
31 7 37 4 6 -4 46 -6 90 -5 126 3 158 22 158 96 0 53 -21 99 -51 116 -13 7
-42 8 -79 4 l-57 -7 -7 42 c-8 50 -3 60 32 60 21 0 30 -7 39 -29 9 -24 15 -28
38 -24 32 7 38 18 27 58 -8 29 -10 29 -76 30 -37 0 -75 -3 -85 -7z M2275 378
c-37 -21 -45 -55 -22 -94 41 -71 54 -104 56 -147 2 -45 1 -48 -31 -62 l-33
-14 30 -1 c17 0 45 9 62 20 43 26 51 60 32 129 -2 8 6 15 21 17 39 7 44 20 22
52 -26 36 -51 37 -64 3 l-9 -26 -19 25 c-23 29 -28 89 -7 72 17 -14 42 2 34
22 -7 18 -43 21 -72 4z M2110 232 c-31 -16 -35 -22 -34 -55 1 -24 8 -43 19
-51 24 -17 104 -10 127 11 40 36 5 113 -50 113 -15 -1 -43 -9 -62 -18z m56
-47 c21 -32 9 -53 -17 -29 -20 18 -26 54 -9 54 5 0 17 -11 26 -25z M4668 143
c-28 -7 -20 -73 9 -73 27 0 73 31 73 49 0 27 -33 37 -82 24z M1378 63 c6 -2
18 -2 25 0 6 3 1 5 -13 5 -14 0 -19 -2 -12 -5z"/>
</g>
</svg>
