<?xml version="1.0" standalone="no"?>
<!DOCTYPE svg PUBLIC "-//W3C//DTD SVG 20010904//EN"
 "http://www.w3.org/TR/2001/REC-SVG-20010904/DTD/svg10.dtd">
<svg version="1.0" xmlns="http://www.w3.org/2000/svg"
 width="500.000000pt" height="878.000000pt" viewBox="0 0 500.000000 878.000000"
 preserveAspectRatio="xMidYMid meet">
<metadata>
Created by potrace 1.16, written by Peter Selinger 2001-2019
</metadata>
<g transform="translate(0.000000,878.000000) scale(0.100000,-0.100000)"
fill="#000000" stroke="none">
<path d="M2060 8714 c0 -9 16 -31 35 -49 l35 -33 -29 -10 c-16 -6 -34 -20 -40
-31 -10 -17 -7 -23 13 -36 24 -16 56 -16 133 1 40 8 53 -14 29 -48 -17 -23
-19 -74 -7 -118 4 -14 3 -33 -3 -42 -8 -13 -6 -25 7 -47 9 -16 17 -43 17 -60
0 -29 -2 -30 -32 -25 -18 4 -44 17 -58 30 -23 22 -23 26 -11 59 15 41 7 108
-15 126 -7 6 -11 15 -8 20 11 19 -16 8 -41 -16 -25 -26 -29 -38 -25 -88 1 -18
-4 -29 -17 -34 -10 -3 -28 -15 -40 -26 -17 -15 -20 -24 -12 -38 8 -15 21 -19
69 -19 46 0 60 -3 60 -15 0 -7 7 -18 16 -23 14 -8 13 -10 -5 -15 -16 -4 -21
-1 -21 14 0 16 -3 18 -19 10 -25 -14 -34 -40 -20 -57 9 -11 17 -11 47 2 20 8
39 20 43 26 7 11 74 -6 84 -22 3 -4 0 -43 -6 -86 -6 -44 -13 -96 -15 -116 -1
-21 -7 -61 -12 -90 -5 -29 -7 -73 -3 -98 3 -25 1 -71 -7 -105 -14 -67 -32
-166 -32 -179 0 -4 -8 2 -18 14 -16 20 -19 20 -31 6 -11 -13 -10 -23 5 -62 19
-51 24 -168 11 -259 -4 -27 -12 -93 -18 -145 -6 -52 -13 -108 -15 -125 -3 -16
-10 -70 -17 -119 l-12 -88 -49 -2 c-42 -2 -53 -7 -86 -42 l-37 -40 4 -163 c3
-116 8 -176 20 -209 11 -31 16 -78 16 -137 -1 -49 3 -95 9 -102 5 -7 12 -39
15 -71 5 -57 4 -61 -27 -91 -36 -34 -50 -39 -50 -16 0 9 -12 18 -30 22 -16 3
-30 11 -30 19 0 27 -44 65 -77 66 -18 1 -33 5 -33 10 0 8 16 12 34 9 23 -4 93
90 81 109 -3 4 -25 5 -51 2 -48 -5 -104 8 -169 39 -52 25 -59 24 -85 -8 -16
-20 -23 -24 -32 -15 -7 7 -26 12 -44 12 -20 0 -34 6 -38 16 -10 26 1 32 47 27
38 -5 48 -1 75 23 58 55 50 93 -13 60 -19 -10 -35 -12 -54 -5 -71 24 -172 11
-264 -33 -41 -20 -47 -26 -43 -48 2 -14 -2 -32 -11 -43 -15 -16 -17 -15 -34
13 -24 39 -55 39 -98 -1 -24 -21 -37 -27 -44 -20 -6 6 -24 11 -40 11 -39 0
-172 -65 -197 -97 -19 -24 -19 -27 -4 -44 14 -15 14 -19 3 -23 -8 -3 -21 -5
-29 -4 -53 7 -189 -66 -252 -136 -43 -47 -51 -76 -31 -113 12 -24 11 -28 -7
-48 -24 -25 -42 -82 -35 -106 3 -10 1 -20 -5 -24 -5 -3 -10 -3 -10 2 -1 4 -16
25 -34 47 -27 32 -36 36 -52 28 -10 -6 -27 -13 -37 -16 -14 -5 -17 -13 -13
-33 8 -41 9 -94 2 -130 -5 -26 -2 -33 13 -38 20 -6 20 -6 0 -26 -13 -13 -19
-33 -19 -62 0 -61 38 -113 106 -143 37 -16 54 -30 54 -42 0 -10 13 -33 30 -52
16 -19 29 -43 30 -53 0 -10 4 -16 9 -12 11 6 24 -11 27 -35 13 -97 19 -116 50
-148 30 -31 36 -33 85 -29 58 5 75 -6 135 -88 16 -22 39 -48 51 -58 21 -17 78
-124 75 -139 -3 -12 26 -10 33 2 7 12 70 -33 79 -57 4 -9 0 -23 -9 -33 -8 -9
-15 -23 -15 -30 0 -8 -8 -23 -19 -34 -30 -34 -101 -158 -101 -178 0 -30 -16
-20 -40 26 -34 68 -76 101 -165 132 -67 24 -96 29 -180 29 -84 0 -107 -4 -146
-22 -25 -13 -53 -23 -61 -23 -16 0 -106 -63 -120 -84 -4 -5 -4 -14 -1 -20 3
-5 -2 -15 -12 -22 -15 -11 -22 -10 -46 7 l-29 20 0 -80 0 -81 42 46 c24 26 53
50 66 55 19 7 23 15 19 35 -3 18 0 27 12 31 9 3 28 17 43 31 14 13 31 21 38
17 6 -4 22 1 35 9 14 9 25 14 25 10 0 -4 6 -2 13 3 41 33 162 31 257 -5 8 -3
25 -7 37 -8 56 -7 143 -74 143 -110 0 -18 44 -82 73 -104 13 -10 59 -56 103
-101 143 -148 160 -164 233 -214 61 -41 81 -50 123 -52 49 -2 50 -1 76 41 37
59 82 87 153 93 64 6 89 23 70 47 -17 20 -84 9 -156 -26 -48 -23 -66 -38 -90
-78 -28 -48 -45 -62 -45 -39 0 5 -4 8 -9 5 -21 -13 -152 66 -215 130 -115 117
-166 176 -167 196 -3 66 5 113 22 142 10 17 19 38 19 47 0 9 9 24 21 35 29 26
91 22 157 -11 46 -23 60 -26 100 -19 26 4 52 8 58 9 6 0 25 12 43 27 24 21 37
25 54 19 20 -8 32 -4 93 28 7 3 26 16 43 29 l31 23 11 -28 c6 -15 12 -59 13
-98 l3 -70 45 0 c54 -1 108 12 108 25 0 12 56 38 225 105 66 27 154 64 195 83
41 19 98 43 125 54 28 11 57 25 65 32 13 12 132 83 184 111 23 12 23 10 7 68
-12 40 -12 55 -1 90 8 23 19 49 26 57 7 8 16 28 20 44 6 24 8 26 16 12 5 -9 7
-20 4 -25 -7 -11 31 -51 50 -51 8 0 12 -5 9 -10 -7 -11 29 -63 37 -55 3 3 19
0 37 -6 22 -8 29 -15 22 -23 -5 -6 -8 -27 -7 -46 1 -22 -10 -58 -31 -100 -18
-36 -30 -72 -27 -82 2 -9 1 -19 -4 -22 -18 -11 0 -76 27 -94 31 -22 96 -19
123 5 31 28 19 -2 -13 -33 -49 -47 -69 -87 -67 -133 1 -23 5 -44 10 -47 4 -3
8 -16 8 -28 0 -13 7 -29 15 -36 18 -15 14 -67 -8 -102 -9 -12 -30 -59 -47
-103 -18 -44 -41 -96 -51 -116 -10 -20 -19 -41 -19 -47 0 -13 -37 -90 -60
-127 -11 -16 -22 -37 -26 -45 -17 -42 -59 -127 -70 -140 -20 -24 -47 -196 -40
-248 4 -26 9 -60 11 -76 5 -36 66 -110 105 -128 21 -9 30 -20 31 -38 2 -52 9
-92 19 -110 15 -29 12 -47 -15 -89 -24 -36 -31 -54 -42 -112 -4 -21 -10 -25
-31 -23 -48 6 -163 34 -199 49 -20 8 -46 15 -59 15 -13 0 -24 4 -24 8 0 5 -6
9 -13 9 -6 0 -41 13 -77 30 -36 17 -87 41 -115 53 -27 13 -81 40 -118 61 -38
22 -74 39 -80 39 -16 0 -62 37 -101 79 -17 19 -43 48 -58 64 -16 15 -28 30
-28 32 0 1 17 2 38 2 67 -1 156 14 173 29 8 8 20 14 25 14 6 0 29 16 51 35 23
19 45 35 50 35 17 0 134 116 162 162 16 26 38 70 48 98 15 43 16 52 4 59 -22
14 -50 -10 -62 -51 -5 -20 -15 -43 -22 -50 -7 -7 -19 -28 -26 -46 -12 -28 -77
-88 -179 -165 -9 -7 -19 -4 -33 11 -23 26 -32 27 -48 8 -14 -17 -4 -46 17 -46
32 0 -4 -20 -44 -25 -21 -2 -60 -7 -86 -11 -43 -6 -46 -5 -50 17 -2 18 -9 24
-28 24 -22 0 -25 -4 -22 -29 3 -18 0 -26 -7 -22 -6 4 -11 16 -11 27 0 34 -33
18 -43 -21 -13 -54 -27 -60 -27 -12 0 30 -5 44 -16 49 -25 9 -44 -24 -44 -78
0 -47 -9 -59 -46 -59 -10 0 -13 7 -8 24 3 13 2 26 -3 29 -14 9 -85 -19 -95
-37 -13 -23 -31 -21 -19 3 8 14 7 22 -3 30 -18 15 -43 4 -50 -22 -7 -26 -23
-13 -28 23 -4 29 -48 43 -48 16 0 -9 -4 -16 -10 -16 -5 0 -10 10 -10 23 0 12
-9 36 -20 52 -14 22 -18 39 -14 63 6 32 5 34 -22 30 -31 -3 -33 2 -19 55 8 30
-2 34 -37 16 -18 -9 -19 -8 -13 10 5 16 2 21 -13 21 -11 0 -25 6 -31 13 -8 11
-5 16 14 25 14 6 25 18 25 27 0 17 -35 21 -45 5 -8 -14 -35 -13 -35 1 0 6 11
20 25 31 46 36 25 66 -23 32 -20 -14 -23 -14 -29 2 -4 11 -1 20 7 22 8 3 25
17 39 31 24 23 24 26 7 29 -10 2 -32 -6 -48 -18 -23 -17 -32 -19 -43 -10 -12
10 -8 18 20 47 40 41 42 48 18 58 -13 4 -26 -3 -45 -24 -26 -29 -28 -30 -38
-12 -13 26 -13 31 4 31 8 0 24 9 37 19 19 15 21 22 12 32 -9 9 -18 7 -41 -10
-37 -26 -44 -26 -58 -3 -10 15 -7 20 17 31 28 12 38 34 20 45 -5 4 -23 -2 -39
-11 -30 -17 -31 -17 -56 6 -30 29 -27 38 15 39 17 0 33 3 36 6 6 6 -17 49 -31
58 -8 5 -7 11 2 20 33 33 -10 39 -45 6 -31 -29 -40 -16 -19 29 23 48 7 67 -29
33 -27 -26 -34 -16 -10 16 8 10 15 29 15 42 0 17 -6 22 -25 22 -15 0 -25 6
-25 14 0 21 -26 27 -47 11 -10 -8 -41 -15 -70 -15 -28 0 -55 -5 -59 -11 -11
-19 -69 -2 -123 35 -28 20 -62 36 -75 36 -36 0 -77 -47 -69 -78 5 -20 3 -23
-13 -18 -34 10 -47 -7 -36 -48 6 -21 7 -36 1 -36 -5 0 -9 6 -9 14 0 25 -18 28
-40 6 -18 -18 -19 -23 -6 -43 19 -29 29 -67 19 -67 -4 0 -16 14 -25 30 -11 20
-22 28 -32 24 -21 -8 -22 -87 -1 -104 14 -12 14 -15 0 -30 -9 -10 -15 -35 -15
-63 0 -46 1 -47 119 -164 220 -217 342 -333 352 -333 9 0 33 -11 69 -32 56
-32 111 -50 150 -50 55 0 110 11 110 23 0 5 4 9 10 9 9 0 43 26 78 60 8 8 29
15 46 16 24 2 36 -5 55 -29 13 -18 41 -45 62 -62 21 -16 38 -37 39 -45 1 -25
38 -63 56 -56 9 3 28 -2 42 -12 50 -34 83 -42 165 -42 62 0 89 5 112 19 17 10
49 18 72 18 35 0 49 -7 90 -44 26 -24 77 -61 113 -83 36 -21 74 -47 85 -57 28
-26 93 -63 111 -63 8 0 14 -4 14 -10 0 -5 6 -10 13 -10 6 0 35 -12 62 -26 95
-47 310 -109 417 -121 31 -3 61 -9 68 -13 13 -8 -27 -220 -60 -315 -12 -33
-25 -76 -29 -95 -17 -72 -29 -91 -53 -85 -35 9 -88 -50 -99 -111 -10 -54 -6
-63 20 -47 16 10 20 8 24 -13 3 -18 1 -22 -8 -14 -6 5 -45 12 -86 14 -41 2
-105 7 -142 11 -114 13 -288 -38 -237 -70 5 -3 7 -12 4 -20 -4 -10 3 -16 23
-20 40 -9 61 -20 117 -60 27 -19 60 -38 75 -41 14 -4 45 -27 69 -52 39 -42 42
-49 32 -75 -11 -33 -6 -47 16 -47 8 0 17 13 21 31 l6 31 18 -30 c15 -23 34
-33 97 -51 42 -13 85 -31 95 -42 34 -37 48 -24 80 71 8 25 18 67 21 93 7 61
56 219 70 230 6 4 19 5 29 3 10 -3 21 2 24 10 7 20 -16 64 -34 64 -7 0 -18 10
-24 23 -8 18 -3 56 25 174 19 83 42 168 51 189 9 22 19 48 21 59 3 11 9 38 14
60 5 22 14 60 20 84 9 37 8 47 -4 59 -13 13 -18 13 -39 -1 -21 -13 -26 -28
-34 -99 -10 -78 -23 -127 -45 -171 -5 -11 -7 -21 -4 -24 2 -3 0 -17 -5 -31
-13 -34 -40 -160 -40 -187 0 -20 0 -20 -15 -1 -8 11 -14 25 -14 31 0 6 -9 18
-20 28 -18 15 -19 20 -8 40 22 39 38 91 44 141 3 26 11 69 18 95 7 25 25 93
40 151 31 123 48 182 54 193 2 4 20 -2 40 -14 29 -18 51 -22 105 -21 37 1 76
6 85 11 9 5 58 14 107 21 78 11 94 10 119 -3 26 -14 27 -16 10 -25 -18 -9 -73
-26 -194 -59 -30 -9 -86 -18 -124 -22 -42 -4 -71 -11 -74 -18 -5 -18 40 -16
160 7 90 17 103 18 111 5 7 -13 12 -13 38 1 17 8 33 13 36 10 9 -8 -52 -35
-121 -52 -43 -11 -66 -21 -66 -31 0 -9 7 -13 18 -10 16 5 86 19 107 23 6 0 27
9 49 18 39 17 57 17 34 -1 -18 -13 -84 -38 -136 -53 -38 -10 -63 -32 -50 -45
2 -2 28 3 58 11 99 28 108 27 55 -4 -28 -16 -71 -36 -95 -43 -91 -25 -81 -46
11 -24 87 22 94 22 94 5 0 -10 -8 -14 -28 -12 -18 2 -29 -3 -34 -13 -3 -9 -17
-21 -30 -26 -25 -9 -27 -37 -2 -30 35 11 87 12 93 2 4 -7 -1 -11 -13 -11 -11
0 -22 -4 -25 -9 -3 -4 -16 -6 -30 -4 -37 7 -41 -15 -5 -36 31 -19 31 -19 8
-26 -13 -5 -34 -15 -47 -23 l-23 -15 27 -27 c20 -19 37 -26 61 -25 35 1 38 -2
24 -24 -8 -12 -15 -11 -50 3 -89 35 -109 9 -25 -33 l51 -25 -45 -80 c-122
-224 -113 -210 -128 -188 -16 23 -71 45 -79 32 -3 -4 -2 -15 1 -24 4 -11 0
-16 -14 -16 -32 0 -33 -14 -4 -49 19 -23 32 -30 45 -26 22 9 22 33 0 57 -16
18 -16 18 0 12 9 -3 17 -11 17 -16 0 -6 9 -8 20 -5 24 6 26 -11 5 -39 -8 -10
-15 -26 -15 -35 0 -9 -7 -30 -15 -45 l-15 -29 0 28 c0 28 -49 87 -71 87 -21 0
-20 -32 0 -54 12 -12 19 -25 15 -28 -3 -4 2 -20 11 -38 9 -18 13 -35 9 -38 -4
-4 -9 0 -12 8 -3 8 -22 32 -43 53 l-37 37 13 45 c8 24 19 54 25 65 6 12 9 24
6 27 -11 12 -54 -27 -60 -54 -3 -15 -32 -106 -63 -201 -56 -173 -62 -183 -101
-163 -19 10 -123 43 -190 61 -24 6 -50 14 -58 17 -8 3 -14 -1 -14 -8 1 -13
111 -69 134 -69 16 0 110 -67 142 -102 39 -41 55 -53 74 -54 8 -1 22 -3 30 -4
43 -7 74 2 101 30 26 25 38 30 77 29 26 -1 75 0 110 1 46 2 67 -2 81 -14 26
-23 46 -20 79 14 l30 30 97 -8 c72 -6 104 -5 122 5 24 13 73 14 73 2 0 -22
275 -33 380 -15 72 12 146 12 183 -1 21 -7 41 -12 45 -11 4 1 39 -2 77 -5 167
-17 176 -17 170 -7 -8 13 1 13 23 -1 13 -8 39 -8 90 -2 40 5 72 6 72 1 0 -4
-8 -8 -18 -8 -10 0 -41 -11 -68 -25 -27 -14 -52 -25 -57 -25 -22 0 -101 -62
-142 -112 -34 -41 -58 -61 -84 -68 -41 -11 -130 -80 -149 -116 -7 -13 -19 -24
-26 -24 -13 0 -116 -128 -116 -144 0 -3 -10 -22 -22 -40 l-23 -34 -405 4
c-692 8 -1212 10 -1264 4 -28 -3 -71 -1 -96 3 -80 15 -459 25 -1182 32 l-708
6 0 -30 0 -30 102 0 c280 0 1111 -18 1173 -26 143 -18 531 -23 905 -11 135 4
250 7 255 6 6 0 163 -2 350 -4 872 -11 1645 -11 1870 -1 88 4 178 8 200 9 37
1 40 3 43 33 3 31 2 32 -32 27 -40 -5 -43 1 -21 33 9 13 23 20 35 18 19 -4 20
2 20 76 0 46 -4 78 -9 75 -5 -4 -11 -2 -13 4 -1 5 -18 12 -35 16 -29 6 -33 4
-33 -14 0 -11 8 -22 20 -25 22 -6 25 -23 10 -47 -8 -13 -13 -13 -41 3 -38 21
-79 23 -79 2 0 -8 4 -15 8 -15 5 0 17 -7 28 -15 18 -15 15 -15 -33 -11 -59 4
-70 -9 -23 -27 17 -6 30 -18 30 -27 0 -9 5 -21 12 -28 17 -17 8 -15 -40 8 -58
28 -73 26 -70 -7 l3 -28 -75 -1 c-41 -1 -102 -3 -135 -4 -106 -5 -105 -6 -93
37 13 49 24 62 73 85 80 39 172 94 205 124 14 12 41 24 60 26 26 2 35 7 34 20
-1 10 43 63 97 120 l99 102 0 167 0 167 -27 10 c-56 20 -139 41 -187 47 -27 3
-53 8 -57 11 -7 4 -34 10 -159 35 -30 6 -59 15 -65 19 -5 5 -41 20 -80 34 -38
15 -76 32 -85 39 -8 7 -35 23 -60 36 -25 13 -52 30 -61 37 -8 8 -19 14 -23 14
-23 0 -156 111 -156 130 0 6 -8 10 -17 10 -24 0 -178 154 -228 230 -61 91 -85
152 -97 249 -10 78 -9 89 13 158 24 74 94 173 123 173 7 0 23 11 36 25 13 14
30 25 37 25 7 0 31 11 53 25 22 14 43 25 46 25 21 0 74 54 74 75 0 40 -20 40
-59 -1 -20 -22 -61 -52 -90 -69 -137 -78 -206 -138 -238 -207 -9 -21 -24 -38
-32 -38 -9 0 -34 -11 -56 -25 -49 -30 -56 -30 -84 -6 -13 11 -29 17 -37 14
-11 -4 -13 2 -8 26 5 22 2 37 -9 49 -9 10 -16 26 -15 37 0 11 -3 32 -7 48 -6
24 -4 28 23 38 19 6 35 22 43 41 7 17 30 51 51 75 21 25 36 48 33 53 -2 4 -20
15 -39 24 -36 17 -50 14 -126 -29 -30 -17 -35 -13 -21 13 6 12 11 25 11 30 0
14 -31 24 -44 14 -18 -15 -68 -21 -63 -8 3 6 13 31 23 56 10 25 24 49 31 53 7
4 13 14 13 22 0 16 64 120 80 130 5 3 27 -3 49 -15 67 -33 101 -22 101 33 0
16 4 26 10 22 6 -3 10 -30 10 -59 0 -39 6 -62 27 -93 26 -40 86 -83 116 -83 8
0 17 -4 19 -10 5 -17 120 -42 187 -41 46 1 75 8 98 22 40 25 45 59 9 59 -28 0
-59 31 -38 38 7 2 26 15 41 28 16 13 32 24 35 24 3 0 24 -16 46 -36 27 -25 40
-31 40 -21 0 13 10 15 56 10 46 -5 56 -3 52 8 -3 8 -27 19 -54 24 -88 19 -123
41 -144 89 -12 28 -27 47 -42 52 -13 4 -37 18 -55 31 -18 14 -40 26 -50 27
-10 2 -19 11 -21 22 -2 10 -17 31 -35 47 l-31 27 61 0 c42 0 64 5 73 15 7 8
29 25 50 36 21 12 53 45 74 76 31 48 36 64 36 115 0 66 -21 117 -67 160 -51
49 -143 73 -183 48 -10 -6 -21 -3 -37 12 -18 17 -30 20 -64 14 -50 -8 -99 -40
-99 -66 0 -10 -15 -27 -34 -38 -27 -16 -33 -25 -29 -43 4 -16 2 -20 -8 -17 -9
3 -13 16 -11 38 3 27 1 32 -13 26 -10 -3 -24 -1 -32 6 -12 10 -18 9 -28 -5
-12 -16 -15 -15 -36 20 -12 21 -31 48 -42 61 l-20 22 43 0 c42 0 42 -1 37 -29
-7 -36 15 -60 37 -42 10 8 16 9 21 1 3 -5 17 -10 30 -10 23 0 23 1 9 30 -17
34 -10 58 11 40 9 -8 15 -8 20 0 10 17 -4 47 -25 53 -28 7 -25 27 3 27 45 0
117 107 117 173 0 40 -35 133 -62 163 -10 11 -18 25 -18 32 0 23 -45 42 -98
42 -29 0 -61 4 -71 9 -10 6 -23 6 -32 0 -11 -8 -10 -13 11 -30 20 -16 35 -19
73 -15 30 3 45 2 41 -5 -8 -14 15 -39 30 -33 19 7 37 -42 42 -116 6 -75 -13
-118 -66 -145 -29 -15 -30 -15 -30 8 0 13 -11 36 -25 51 -13 14 -20 26 -15 26
5 0 12 -5 15 -10 9 -14 88 0 101 18 14 20 10 77 -5 77 -6 0 -16 6 -20 14 -5 7
-14 10 -21 6 -7 -4 -10 -1 -8 10 5 28 -17 28 -47 2 -24 -20 -26 -26 -16 -45
15 -29 7 -42 -28 -42 -44 0 -58 -24 -33 -55 29 -37 19 -65 -25 -65 -65 0 -133
59 -148 128 -7 34 10 47 22 15 11 -31 35 -53 58 -53 27 0 44 18 54 57 6 21 14
28 32 28 19 0 24 5 23 25 -2 38 -3 40 -18 40 -8 0 -13 8 -12 17 2 30 -39 28
-63 -3 -11 -15 -21 -33 -21 -40 0 -20 -24 -17 -45 6 -21 23 -16 32 36 58 42
21 49 57 19 90 -25 26 -34 27 -91 7 -50 -18 -89 -51 -89 -76 0 -14 -38 -49
-53 -49 -3 0 -1 19 4 43 4 23 8 45 9 49 0 4 9 10 20 13 23 7 27 45 5 45 -17 0
-50 17 -77 39 -14 11 -18 30 -18 92 l0 77 41 -21 c23 -12 52 -32 64 -44 12
-12 39 -26 59 -31 20 -6 60 -31 88 -56 82 -72 164 -105 175 -70 2 5 -12 18
-32 27 -19 9 -35 20 -35 24 0 5 18 27 39 51 58 65 79 162 46 209 -27 39 -42
19 -37 -50 2 -34 1 -59 -3 -55 -5 4 -15 2 -23 -5 -16 -13 -16 -13 4 38 4 10 0
15 -14 15 -13 0 -27 -13 -40 -38 -32 -61 -64 -92 -85 -80 -16 8 -13 15 27 58
45 51 62 100 44 133 -9 18 -11 18 -29 1 -23 -20 -21 -23 -24 46 -5 91 -30 131
-63 98 -8 -8 -14 -4 -22 18 -6 16 -18 36 -26 45 -16 18 -3 36 16 24 6 -4 34
-2 63 4 28 6 80 13 114 15 55 4 63 2 68 -15 4 -10 11 -19 16 -19 5 0 22 -11
36 -24 25 -23 26 -30 29 -138 4 -160 -9 -223 -57 -273 -37 -38 -49 -65 -31
-65 4 0 13 5 20 12 9 9 12 6 12 -15 0 -17 5 -27 14 -27 20 0 28 15 46 85 l16
60 54 -2 c80 -2 150 -10 157 -17 4 -3 16 -6 29 -6 27 0 52 -37 71 -104 18 -64
30 -388 14 -366 -6 8 -10 37 -9 65 2 39 -1 51 -14 53 -22 4 -48 -36 -48 -73 1
-61 89 -197 157 -242 28 -19 38 -21 55 -12 20 11 18 14 -36 61 -31 28 -64 64
-73 82 -9 17 -21 34 -27 38 -8 6 -8 8 0 8 6 0 17 -7 24 -15 7 -8 19 -15 26
-15 7 0 11 -6 8 -14 -7 -18 39 -53 89 -68 27 -8 46 -22 58 -43 43 -72 129
-102 202 -71 48 21 76 73 61 114 -8 21 -6 34 10 62 25 43 29 46 94 65 38 12
57 13 72 5 19 -10 18 -12 -15 -41 -46 -41 -47 -73 -1 -96 l35 -18 -27 -50 -27
-50 -60 -5 c-58 -5 -60 -6 -57 -32 3 -26 1 -27 -22 -17 -19 9 -32 9 -56 -1
-29 -12 -30 -14 -14 -31 10 -11 23 -19 31 -19 7 0 39 -15 71 -32 l57 -33 -42
-6 c-24 -3 -46 -8 -50 -12 -4 -4 -12 7 -17 25 -11 31 -13 33 -56 31 -25 -2
-60 -3 -77 -3 -26 0 -33 -4 -33 -19 0 -11 -8 -22 -17 -24 -15 -4 -14 -6 5 -12
20 -7 23 -13 18 -37 -7 -36 18 -50 39 -22 23 30 18 -4 -5 -37 -53 -74 -46
-157 17 -207 38 -31 43 -59 11 -64 -33 -4 -39 -72 -8 -88 12 -6 24 -9 27 -6 9
9 43 -14 43 -29 0 -7 -12 -22 -27 -33 -16 -11 -25 -24 -20 -28 14 -15 67 -7
82 12 19 25 19 73 0 80 -20 8 -19 24 2 24 9 0 24 7 33 15 14 13 19 13 38 -1
12 -8 22 -22 22 -30 0 -20 38 -33 78 -27 40 6 72 -19 72 -56 0 -36 -7 -43 -70
-75 -71 -37 -87 -51 -116 -108 -26 -51 -30 -82 -14 -122 31 -82 120 -88 120
-8 0 18 3 19 24 9 23 -11 23 -13 10 -39 -31 -59 -14 -132 45 -189 37 -36 39
-37 120 -38 45 0 86 -3 91 -6 4 -3 16 -2 25 1 12 5 16 16 12 43 -6 54 -27 80
-79 99 -39 13 -50 23 -59 49 -10 33 -6 53 12 53 5 0 9 -7 9 -15 0 -8 3 -15 8
-16 4 0 18 -2 31 -3 34 -4 61 27 61 69 l0 35 55 -6 c52 -6 55 -5 55 15 0 11
-6 20 -12 18 -8 -1 -12 8 -10 26 2 15 -4 39 -13 53 -16 24 -15 24 10 18 24 -6
25 -4 25 40 0 49 -22 86 -51 86 -9 0 -22 7 -29 15 -11 13 -6 15 34 15 38 0 46
3 46 19 0 14 -6 17 -26 13 -28 -5 -44 10 -44 42 0 14 5 17 21 13 28 -7 49 1
49 20 0 9 -6 13 -15 9 -8 -3 -27 5 -42 17 -92 73 -134 87 -182 62 -46 -23 -38
-50 23 -80 22 -11 36 -55 17 -55 -6 0 -11 -14 -11 -31 0 -25 6 -33 30 -42 17
-6 30 -15 30 -20 0 -9 -78 -46 -97 -47 -7 0 -13 8 -13 18 0 10 -7 27 -15 38
-8 10 -15 27 -15 36 0 25 -56 60 -106 66 -68 7 -99 62 -35 62 18 0 39 13 66
40 39 40 40 43 45 127 6 98 -1 114 -68 175 -40 36 -43 48 -13 48 29 1 68 44
75 81 8 48 64 102 100 97 l26 -3 -25 -27 c-30 -32 -32 -58 -6 -58 46 0 30 -32
-22 -44 -25 -6 -28 -10 -22 -34 10 -42 20 -47 65 -35 40 10 58 0 20 -12 -12
-4 -20 -15 -20 -30 0 -17 10 -27 43 -40 l42 -18 -31 -7 c-72 -16 -71 -31 5
-70 33 -16 68 -41 78 -56 48 -69 73 -81 73 -35 0 22 -10 38 -41 64 -38 31 -40
35 -28 55 19 31 -5 71 -50 87 -19 6 -37 17 -39 23 -5 16 9 15 44 -3 23 -11 38
-12 72 -3 40 10 42 12 42 47 0 20 -5 42 -12 49 -9 9 -9 12 0 12 7 0 12 7 12
15 0 11 -12 15 -46 15 -40 0 -45 2 -34 15 7 8 28 15 46 15 22 0 34 5 34 14 0
24 -50 48 -100 48 -41 0 -46 3 -46 22 1 17 -6 22 -39 24 -22 2 -56 -1 -75 -7
-38 -11 -119 -81 -121 -103 -1 -7 -2 -24 -2 -38 -3 -41 -35 -39 -105 6 -2 1 3
12 10 24 10 18 10 24 1 27 -24 9 -13 23 18 23 56 0 82 22 125 103 28 54 26 63
-15 72 -16 3 -32 13 -35 22 -7 18 20 53 40 53 15 0 77 50 70 57 -16 17 -204
19 -220 2 -6 -5 -16 -9 -23 -9 -22 0 -83 -44 -89 -65 -4 -11 -15 -32 -26 -47
-17 -25 -24 -27 -71 -24 -29 2 -62 4 -74 5 -18 1 -23 7 -23 30 0 26 4 29 44
35 26 4 70 24 108 48 93 61 176 88 288 95 116 6 229 -15 308 -58 l52 -29 0 28
c0 25 -7 32 -47 49 -55 24 -170 51 -228 55 -125 7 -293 -36 -390 -99 -48 -32
-122 -60 -132 -49 -12 12 41 102 84 141 l47 44 -24 27 c-31 33 -119 93 -187
128 -29 14 -53 33 -53 41 0 19 -36 38 -59 30 -15 -5 -21 1 -27 27 -4 18 -7 41
-5 51 1 9 -4 17 -11 18 -7 0 23 9 66 21 77 20 82 20 153 3 40 -10 82 -15 93
-12 18 4 20 2 14 -16 -9 -30 -9 -28 -1 -62 14 -58 77 -105 180 -133 24 -7 43
-6 65 4 36 15 40 29 15 56 -15 17 -15 18 8 18 28 0 51 -31 56 -74 3 -28 21
-47 72 -74 32 -17 50 -15 58 6 4 9 15 29 26 44 11 14 16 31 13 37 -4 6 -2 11
5 11 7 0 21 7 30 16 17 16 21 15 56 -12 21 -15 44 -34 52 -42 7 -7 21 -12 30
-10 14 3 15 16 12 83 -2 51 -10 93 -21 115 -19 38 -107 104 -152 115 -17 5
-25 12 -21 19 5 7 2 7 -8 -1 -18 -15 -55 -7 -63 13 -3 9 3 18 17 24 12 6 29
15 38 21 12 9 29 8 74 -6 52 -17 60 -17 84 -4 21 12 26 22 25 52 -1 24 3 37
12 37 19 0 44 29 44 51 0 15 -7 19 -37 19 -59 0 -107 17 -137 49 -25 26 -26
30 -12 44 26 25 19 52 -24 91 -31 28 -48 36 -78 36 -31 0 -41 5 -56 31 -19 32
-36 42 -104 59 -36 9 -42 14 -31 26 10 12 13 12 23 0 6 -7 23 -16 38 -20 21
-5 28 -2 33 14 3 11 12 20 20 20 15 0 26 59 11 61 -6 1 -17 1 -23 0 -27 -4
-11 20 25 37 28 13 36 23 35 40 -3 26 4 28 29 5 17 -15 19 -15 38 2 29 26 33
50 15 85 -15 29 -15 30 4 30 11 0 22 -4 25 -9 3 -5 34 -12 68 -16 35 -4 68
-11 73 -16 15 -11 59 13 63 34 4 20 -10 35 -64 70 -23 14 -67 48 -99 76 -32
29 -68 54 -80 57 -11 3 -42 -4 -68 -15 -70 -30 -92 -19 -92 49 0 49 -3 55 -44
91 -24 21 -51 53 -60 70 -16 30 -38 46 -93 68 -26 10 -27 13 -21 60 5 44 2 55
-31 110 -21 33 -47 67 -58 75 -11 8 -26 25 -32 38 -6 12 -21 28 -33 34 -13 6
-33 22 -46 36 -14 14 -59 43 -101 64 -73 35 -77 38 -71 65 5 23 -2 40 -34 85
-23 32 -41 61 -41 67 0 5 -9 22 -21 38 -36 50 -65 140 -64 194 1 28 -3 60 -8
72 -12 28 -2 67 25 92 l21 20 -59 55 -59 55 0 68 0 67 -57 46 c-54 43 -56 46
-40 63 16 18 17 18 32 -4 86 -132 198 -186 277 -133 15 10 42 23 58 29 19 7
29 17 29 28 -2 23 23 22 36 -2 5 -11 10 -22 10 -24 0 -2 -27 -33 -61 -68 -68
-72 -84 -100 -94 -177 -6 -45 -3 -59 19 -102 33 -63 54 -88 88 -106 36 -19 35
-19 57 17 18 29 19 30 26 10 6 -19 46 -38 70 -33 6 1 9 -18 7 -46 -3 -39 3
-57 30 -102 36 -60 120 -130 156 -130 18 0 22 5 22 33 0 21 8 39 21 50 23 20
20 58 -7 88 -8 8 -14 20 -14 26 0 6 -7 16 -15 23 -10 8 -15 28 -14 59 1 39 3
41 8 16 8 -38 27 -65 68 -93 27 -19 35 -21 60 -11 15 7 44 13 63 14 19 1 42 5
52 9 14 6 14 2 -4 -33 -19 -38 -19 -43 -4 -65 31 -48 161 -61 206 -21 30 27
25 35 -24 35 -59 0 -75 20 -41 51 34 31 55 72 55 104 0 33 -25 94 -51 121 -19
21 -19 21 1 39 23 21 26 59 8 102 -21 47 -71 103 -111 124 -37 20 -43 45 -7
34 37 -12 91 7 131 45 45 43 55 87 17 75 -61 -19 -88 -17 -129 10 -49 32 -44
42 13 27 84 -22 126 -19 137 11 5 13 20 31 34 40 15 10 28 32 36 61 15 62 14
66 -14 66 -18 0 -28 -7 -35 -25 -5 -14 -18 -28 -27 -32 -10 -3 -26 -13 -36
-22 -15 -12 -20 -13 -26 -2 -5 7 -14 12 -22 11 -8 -1 -22 -2 -31 -1 -29 2
-129 98 -184 177 -30 43 -61 86 -71 96 -35 39 -103 77 -158 88 -65 14 -180 5
-232 -16 -54 -23 -134 -85 -144 -112 -8 -22 -13 -24 -42 -17 -17 5 -77 9 -132
9 -113 0 -149 -12 -209 -70 -50 -49 -67 -87 -67 -150 l0 -54 -39 23 c-22 13
-58 40 -81 61 -23 20 -65 49 -92 63 -44 22 -55 24 -87 14 -44 -13 -54 -23
-115 -126 -26 -44 -76 -118 -111 -164 -35 -47 -64 -91 -64 -99 0 -7 -9 -25
-20 -39 -25 -31 -28 -103 -5 -103 19 0 19 -2 -6 -58 -18 -39 -22 -63 -20 -142
2 -126 15 -172 59 -215 20 -19 42 -35 48 -35 15 0 24 -23 19 -50 -2 -11 12
-51 31 -90 19 -38 34 -72 34 -75 0 -3 -15 -5 -32 -5 -52 0 -103 -18 -155 -54
-26 -19 -72 -51 -102 -71 -41 -29 -59 -50 -77 -92 -14 -30 -43 -71 -64 -91
-63 -56 -93 -115 -87 -170 3 -28 12 -51 23 -59 21 -16 27 -81 11 -133 -32
-109 -46 -113 -91 -25 -17 33 -57 109 -90 169 -51 95 -62 127 -65 183 -1 6
-12 24 -25 40 -26 31 -24 37 17 101 15 23 32 66 37 94 6 29 19 61 29 72 33 35
31 73 -3 86 -22 8 -24 13 -19 50 4 31 1 48 -13 68 -14 19 -19 42 -18 77 2 62
14 137 24 150 8 11 10 32 10 89 -1 27 5 45 20 58 11 11 20 31 20 48 0 51 73
82 140 60 50 -16 86 -7 104 28 13 25 12 30 -3 51 -17 22 -21 23 -51 12 -42
-14 -47 -14 -32 1 17 17 15 45 -4 52 -32 12 -74 -29 -74 -73 0 -12 -6 -21 -12
-21 -7 0 -25 -7 -40 -14 -26 -14 -28 -14 -28 7 0 12 6 56 14 97 8 41 17 98 21
125 4 28 8 64 11 80 2 17 6 55 9 85 3 30 8 75 10 100 11 100 49 270 59 260 15
-15 77 -12 108 4 23 12 29 12 35 2 17 -29 103 -60 113 -41 3 6 -4 11 -15 13
-11 2 -30 11 -42 20 -23 17 -23 17 21 20 37 2 45 -1 51 -18 8 -26 22 -26 30 0
11 34 -4 60 -33 60 l-26 0 33 34 c57 59 23 102 -40 49 -28 -23 -32 -25 -25 -8
9 23 9 24 7 48 -2 27 -39 20 -73 -13 -25 -26 -30 -36 -25 -65 7 -44 -16 -65
-78 -69 l-47 -4 7 32 c9 45 14 75 19 126 3 25 14 73 26 107 16 50 19 76 14
135 -7 84 -24 118 -58 118 -20 0 -24 6 -29 46 -3 28 -13 55 -28 71 -21 21 -30
24 -66 19 -29 -4 -45 -1 -53 9 -10 12 -9 15 4 15 9 0 28 11 41 25 19 18 25 35
25 70 0 25 -2 45 -4 45 -2 0 -25 -12 -51 -27 -30 -16 -52 -37 -59 -55 -6 -15
-14 -28 -18 -28 -15 0 -8 16 22 56 16 21 30 42 30 47 0 16 -30 6 -44 -15 -9
-12 -19 -19 -22 -15 -4 4 -2 13 5 20 9 12 2 14 -44 15 -48 0 -54 -2 -44 -14 6
-8 8 -18 4 -22 -4 -4 -14 3 -22 16 -18 26 -53 30 -53 6z m256 -80 c-6 -17 -36
-19 -36 -2 0 6 8 20 18 31 15 17 17 17 20 3 2 -10 1 -24 -2 -32z m-130 -25 c3
-6 0 -15 -7 -20 -19 -12 -69 -11 -69 1 0 6 9 10 19 10 11 0 23 5 26 10 8 13
22 13 31 -1z m178 -95 c9 -3 16 -11 16 -16 0 -7 -5 -6 -14 1 -10 9 -17 7 -27
-6 -12 -15 -12 -16 4 -10 9 4 17 2 17 -4 0 -6 7 -9 15 -5 19 7 19 1 -1 -34
-18 -29 -15 -62 9 -94 14 -19 25 -18 60 6 14 11 19 10 28 -2 12 -18 5 -171
-10 -199 -6 -11 -11 -37 -11 -58 0 -22 -4 -43 -9 -49 -5 -5 -16 -52 -25 -104
-22 -121 -23 -125 -39 -111 -10 8 -19 7 -32 -3 -18 -13 -18 -14 3 -25 13 -7
27 -9 33 -5 7 4 9 -4 7 -22 -3 -27 -6 -29 -40 -26 -50 5 -52 -22 -4 -38 43
-14 40 -43 -2 -31 -15 5 -33 6 -39 4 -24 -8 -13 -29 20 -38 23 -7 33 -17 35
-34 4 -23 3 -23 -13 -8 -21 21 -61 22 -69 2 -6 -16 32 -38 56 -32 6 1 12 -3
15 -10 2 -7 -7 -13 -24 -15 -18 -2 -29 -10 -31 -22 -3 -15 0 -18 16 -14 11 3
25 2 31 -2 19 -11 1 -40 -25 -40 -34 0 -33 -37 1 -46 31 -8 33 -21 3 -20 -29
1 -36 -30 -8 -37 29 -8 25 -35 -7 -39 -36 -4 -41 -26 -8 -38 32 -12 31 -44 -1
-46 -49 -3 -61 -34 -13 -34 20 0 29 -4 26 -12 -2 -7 -12 -13 -22 -13 -24 0
-32 -23 -11 -31 24 -9 19 -23 -6 -17 -23 5 -23 5 -3 -11 20 -17 20 -17 -2 -13
-13 3 -23 1 -23 -4 0 -5 9 -9 19 -9 10 0 22 -7 25 -16 9 -23 1 -28 -22 -15
-16 8 -21 7 -26 -4 -3 -8 -3 -22 0 -30 4 -8 1 -22 -6 -30 -6 -8 -9 -19 -5 -25
3 -5 0 -10 -7 -11 -10 0 -10 -2 -1 -6 10 -3 10 -10 2 -24 -5 -11 -7 -24 -4
-29 3 -6 2 -10 -3 -10 -5 0 -12 -13 -14 -30 -4 -25 0 -31 24 -39 15 -6 28 -15
28 -20 0 -14 -17 -14 -25 -1 -9 15 -35 12 -35 -4 0 -7 10 -20 22 -28 18 -12
20 -19 13 -44 l-9 -29 -4 28 c-2 15 -10 27 -17 27 -22 0 -30 -22 -12 -35 25
-18 5 -38 -32 -30 -38 8 -38 -18 -2 280 5 44 12 105 16 135 3 30 10 82 15 115
5 33 12 80 15 105 3 25 7 52 10 60 4 16 11 73 20 174 3 32 10 66 14 75 8 15
22 87 26 136 1 11 -4 25 -12 30 -10 8 -11 18 -3 45 6 19 12 53 15 75 2 22 9
74 15 115 17 127 24 267 12 274 -6 3 -8 21 -5 40 3 19 1 36 -6 40 -6 4 -11 22
-11 41 0 25 8 40 31 59 32 28 38 29 63 20z m-301 -241 c-7 -2 -19 -2 -25 0 -7
3 -2 5 12 5 14 0 19 -2 13 -5z m582 -273 c-5 -21 -10 -29 -17 -22 -6 6 -7 24
-3 42 5 21 10 29 17 22 6 -6 7 -24 3 -42z m95 -5 c0 -8 -10 -20 -22 -26 -13
-7 -26 -17 -30 -23 -4 -6 -10 -7 -14 -4 -8 9 37 67 54 67 6 1 12 -6 12 -14z
m1565 -158 c55 -20 65 -29 123 -107 84 -113 177 -207 219 -221 19 -6 64 -9 99
-7 82 5 82 -15 0 -22 -31 -3 -61 -11 -65 -18 -10 -17 -115 27 -129 55 -6 10
-35 36 -65 56 -31 21 -58 45 -61 53 -7 19 -35 18 -43 -2 -7 -19 30 -60 75 -81
18 -9 39 -27 47 -42 29 -56 160 -161 201 -161 l27 0 -22 -24 c-17 -18 -32 -23
-54 -21 -61 5 -149 37 -182 66 -20 18 -39 27 -49 23 -29 -11 -17 -29 49 -72
44 -29 65 -50 65 -63 0 -14 -6 -19 -17 -18 -10 1 -37 -4 -61 -11 -39 -12 -44
-12 -65 8 -13 12 -35 22 -49 22 -15 0 -41 13 -61 33 -31 27 -37 39 -39 82 -3
45 -1 50 23 62 33 16 45 57 25 88 -50 77 -166 145 -223 130 -37 -9 -27 -21 31
-34 56 -12 82 -34 110 -88 22 -43 20 -50 -11 -65 -37 -17 -41 -55 -13 -124 25
-60 85 -116 147 -138 30 -10 39 -19 43 -42 4 -21 15 -34 43 -47 44 -22 48 -42
8 -50 -25 -5 -35 -20 -81 -112 -54 -111 -59 -145 -27 -184 7 -9 20 -33 30 -53
17 -38 17 -38 -6 -38 -13 0 -28 -5 -35 -12 -15 -15 -33 1 -67 57 -28 49 -30
63 -14 132 7 35 23 62 60 102 27 30 49 60 49 66 0 7 9 24 20 38 11 14 20 34
20 45 0 31 -64 94 -91 90 -32 -4 -35 -26 -5 -39 32 -15 39 -35 22 -62 -7 -12
-17 -35 -20 -50 -4 -16 -24 -47 -46 -71 -21 -23 -44 -54 -49 -69 -17 -44 -51
-32 -64 23 -5 18 1 36 20 63 34 49 21 67 -33 46 -45 -17 -78 -59 -79 -101 0
-48 -19 -44 -51 9 -22 38 -28 60 -28 105 1 83 18 115 87 159 33 22 67 39 75
39 29 0 52 32 52 70 0 47 -33 85 -88 100 l-41 11 19 45 c27 62 26 77 -2 68
-23 -8 -78 -7 -86 1 -2 2 3 11 12 20 25 25 20 37 -14 30 -31 -7 -43 8 -15 18
23 9 75 88 75 113 0 22 -3 23 -50 17 -41 -5 -50 -3 -50 10 0 21 37 59 75 77
91 43 210 50 300 17z m-472 -121 c34 -8 74 -13 89 -11 38 4 49 -13 33 -52 -15
-36 -16 -37 -95 -37 -44 -1 -55 -4 -58 -19 -3 -12 6 -21 29 -29 29 -10 30 -12
15 -24 -21 -15 -11 -38 12 -29 8 3 23 -3 34 -15 21 -22 52 -25 93 -10 54 20
37 -48 -21 -87 -17 -10 -46 -16 -84 -16 -54 0 -61 2 -87 33 -15 18 -31 41 -35
51 -13 32 -74 54 -140 50 -10 -1 -27 -10 -38 -21 -16 -16 -19 -28 -14 -60 4
-22 4 -40 0 -40 -16 0 -56 34 -56 47 0 9 -8 37 -17 63 -15 42 -15 53 -4 88 15
44 58 90 105 115 39 19 160 21 239 3z m-596 -151 c67 -53 180 -128 205 -138
34 -12 123 -74 169 -116 37 -33 45 -46 41 -67 -8 -44 19 -115 60 -155 33 -32
38 -41 29 -58 -6 -11 -11 -38 -11 -60 0 -41 -13 -57 -41 -53 -8 1 -23 -6 -33
-17 -17 -18 -16 -20 5 -34 26 -19 46 -13 52 16 4 19 4 18 6 -4 0 -15 -5 -32
-13 -38 -16 -14 -60 -5 -77 15 -16 20 -3 61 22 67 27 7 19 31 -12 35 -18 2
-33 19 -59 64 -19 34 -70 97 -112 141 -67 69 -75 81 -63 94 19 19 19 27 -1 44
-14 11 -19 10 -34 -9 -11 -13 -24 -20 -34 -16 -19 7 -19 9 -5 36 9 16 8 24 -5
36 -14 14 -17 14 -34 -1 -27 -25 -55 -22 -47 3 4 12 1 28 -7 37 -11 14 -10 15
12 8 14 -4 54 -19 90 -32 96 -36 109 -38 117 -17 7 20 -24 48 -98 87 -31 17
-43 29 -41 43 2 12 0 15 -5 7 -6 -9 -31 -4 -97 17 -92 30 -96 30 -133 -3 -32
-29 -29 -16 14 53 47 74 61 76 140 15z m438 -91 c13 -8 26 -23 30 -32 4 -12 0
-10 -18 6 -13 12 -33 22 -45 22 -12 0 -22 5 -22 10 0 15 28 12 55 -6z m-494
-44 l39 -21 -26 -24 c-29 -27 -40 -30 -49 -15 -3 6 1 10 10 10 25 0 14 34 -13
38 -18 3 -22 -1 -22 -21 0 -23 -5 -26 -51 -32 -27 -4 -53 -4 -57 -1 -3 4 13
25 36 46 48 46 74 50 133 20z m642 -83 c34 -12 55 -13 73 -7 30 12 64 13 64 3
-1 -5 -17 -18 -37 -31 -29 -18 -45 -22 -72 -17 -49 9 -99 41 -116 75 -22 42
-18 47 13 18 15 -14 49 -32 75 -41z m167 33 c0 -5 -5 -10 -11 -10 -5 0 -7 5
-4 10 3 6 8 10 11 10 2 0 4 -4 4 -10z m-1000 -10 c0 -5 -4 -10 -10 -10 -5 0
-10 5 -10 10 0 6 5 10 10 10 6 0 10 -4 10 -10z m-20 -28 c0 -5 -14 -21 -32
-38 -30 -27 -31 -27 -17 -4 9 14 19 31 23 38 8 13 26 16 26 4z m1150 -27 c0
-13 -4 -26 -8 -29 -4 -2 -8 10 -8 29 0 19 4 31 8 29 4 -3 8 -16 8 -29z m-925
-25 c3 -5 16 -10 29 -10 32 0 227 -142 213 -156 -2 -2 -10 2 -17 11 -15 18
-36 20 -46 3 -4 -6 4 -20 18 -32 14 -12 47 -52 73 -91 26 -38 49 -72 51 -74 2
-2 10 2 19 9 12 10 13 16 4 27 -7 7 -9 16 -6 19 3 3 15 -12 25 -35 11 -23 16
-43 11 -47 -5 -3 -9 -16 -9 -30 0 -75 72 -109 168 -79 19 6 24 3 29 -16 4 -13
30 -70 59 -126 29 -57 48 -103 43 -103 -6 0 -25 11 -42 23 -18 13 -58 33 -90
45 -32 12 -82 38 -111 57 -56 37 -57 39 -142 239 -35 83 -98 152 -175 192 -51
27 -60 29 -167 26 -127 -2 -159 -12 -217 -66 -43 -41 -59 -34 -27 11 11 16 27
45 36 66 8 21 19 36 24 33 13 -8 28 6 48 44 17 32 19 33 22 13 4 -29 28 -30
37 -3 5 15 12 19 26 15 12 -4 21 -1 25 8 3 9 13 13 25 10 11 -3 21 1 25 11 7
18 29 21 39 6z m1454 -128 c69 -66 83 -142 26 -142 -39 0 -40 -20 -2 -55 20
-18 39 -45 43 -59 10 -43 -5 -132 -27 -152 -26 -23 -24 -49 6 -72 34 -27 19
-34 -25 -13 -43 20 -49 50 -20 91 35 50 10 78 -38 44 -37 -26 -42 -7 -10 39
20 27 -8 69 -55 80 -54 13 -74 -5 -46 -42 37 -50 7 -123 -38 -95 -35 22 -63
75 -63 121 0 46 23 103 41 103 6 0 25 11 43 25 42 32 39 68 -10 97 -19 11 -32
24 -29 29 3 4 28 11 55 15 27 4 51 13 54 20 10 26 45 14 95 -34z m-2169 23 c0
-8 -4 -15 -10 -15 -5 0 -10 7 -10 15 0 8 5 15 10 15 6 0 10 -7 10 -15z m80
-71 c0 -8 -6 -14 -12 -14 -23 0 -58 12 -58 20 0 4 10 12 23 17 24 12 47 0 47
-23z m578 -32 c3 -9 -3 -11 -20 -7 -16 4 -29 1 -37 -9 -16 -19 -37 -21 -45 -3
-5 10 -7 10 -12 0 -6 -14 -34 -18 -34 -5 0 5 17 14 38 20 77 24 103 25 110 4z
m126 -28 c-5 -19 1 -26 33 -42 21 -10 37 -23 36 -29 -1 -6 7 -19 17 -28 24
-22 25 -48 4 -80 -10 -16 -14 -34 -10 -50 7 -28 56 -58 89 -53 12 1 23 -1 25
-5 8 -24 -6 -38 -79 -82 -70 -41 -85 -46 -101 -36 -11 7 -60 14 -108 16 -69 3
-91 1 -101 -11 -17 -21 -2 -31 23 -15 15 9 23 10 27 2 4 -6 35 -12 70 -13 88
-2 51 -19 -50 -23 -72 -3 -81 -1 -92 19 -6 11 -12 26 -13 31 -1 6 -12 33 -24
60 -13 28 -25 60 -27 71 -4 27 17 45 45 37 19 -4 22 -12 21 -42 -3 -46 7 -77
27 -85 22 -8 39 3 25 17 -6 6 -11 31 -11 57 -1 25 -8 63 -16 85 -9 22 -18 50
-21 63 -6 26 -38 42 -84 42 -22 0 -29 5 -29 20 0 18 2 18 41 5 58 -21 74 -19
106 14 22 21 34 26 50 20 13 -5 33 -2 54 9 28 14 33 22 31 44 -3 26 -1 27 22
16 20 -8 24 -16 20 -34z m-79 7 c-3 -6 -16 -11 -28 -11 -21 1 -21 1 3 15 27
14 36 13 25 -4z m160 -26 c18 -13 35 -33 38 -44 4 -18 0 -17 -39 10 -24 16
-44 36 -44 44 0 21 8 19 45 -10z m169 -1 c3 -8 2 -12 -4 -9 -6 3 -10 10 -10
16 0 14 7 11 14 -7z m-498 -9 c23 -12 25 -15 11 -21 -23 -8 -47 2 -47 21 0 18
1 18 36 0z m-101 -42 c-4 -16 -7 -46 -8 -68 -2 -49 -27 -59 -46 -18 -10 22
-10 29 1 38 8 5 20 25 27 43 16 39 36 43 26 5z m-653 -65 c-6 -6 -15 -7 -21
-4 -14 9 -14 36 -1 36 6 0 10 8 10 18 0 36 15 33 18 -3 2 -21 -1 -42 -6 -47z
m748 2 c12 -8 11 -10 -6 -10 -12 0 -27 -7 -34 -15 -11 -13 -15 -13 -21 -3 -16
24 -9 38 19 38 15 0 34 -5 42 -10z m420 -29 c0 -9 -6 -23 -12 -29 -10 -10 -10
-17 -1 -31 15 -24 6 -33 -18 -20 -23 12 -24 23 -1 70 17 37 32 42 32 10z
m-381 -28 c1 -1 0 -6 -3 -12 -10 -16 -36 -1 -36 21 0 18 2 19 18 7 9 -7 19
-14 21 -16z m-159 -18 c0 -8 -4 -15 -10 -15 -5 0 -10 7 -10 15 0 8 5 15 10 15
6 0 10 -7 10 -15z m50 -46 c0 -38 -24 -35 -28 4 -2 19 1 27 12 27 11 0 16 -10
16 -31z m585 -95 c13 -20 14 -28 4 -40 -19 -23 10 -38 32 -18 37 34 26 -7 -17
-65 -32 -43 -44 -66 -39 -80 8 -25 -4 -91 -16 -91 -5 0 -9 7 -9 15 0 25 -19
17 -26 -12 -7 -27 -7 -27 -16 -4 -11 30 -33 21 -33 -14 0 -23 -6 -30 -35 -41
-60 -22 -78 -18 -85 19 -10 44 -15 50 -30 37 -9 -8 -12 -23 -9 -43 6 -34 -8
-21 -20 19 -5 17 -1 24 24 34 35 14 34 15 47 -24 5 -17 14 -31 20 -33 18 -6
24 28 9 58 -13 26 -12 29 5 34 10 4 19 11 19 16 0 9 -33 4 -78 -12 -13 -5 -43
-9 -66 -9 -39 0 -44 3 -48 25 -4 21 -1 25 17 25 15 0 25 -8 28 -21 9 -33 43
-20 39 14 -2 21 1 27 17 27 11 0 22 4 25 9 3 5 18 12 33 15 29 8 163 96 163
109 0 15 -26 5 -86 -34 -71 -46 -185 -79 -274 -79 -89 0 -91 16 -3 23 102 8
146 25 273 101 58 36 108 65 111 65 4 1 14 -11 24 -25z m-1410 -40 c35 -5 81
-37 77 -54 -1 -6 7 -14 18 -17 20 -5 25 -14 14 -26 -10 -9 -34 4 -34 19 0 18
-42 28 -89 20 -30 -4 -40 -2 -45 9 -4 13 -10 14 -26 5 -11 -6 -20 -17 -20 -25
0 -19 37 -38 62 -32 27 7 113 -21 134 -44 16 -18 16 -19 -13 -19 -17 0 -36 7
-43 15 -13 16 -42 20 -54 8 -4 -4 -19 -7 -33 -8 -66 -1 -15 -44 55 -46 21 -1
28 -3 17 -6 -11 -3 -24 -9 -29 -14 -6 -5 -22 -9 -36 -9 -28 0 -50 -16 -50 -38
0 -9 7 -11 20 -7 26 8 25 1 -2 -36 -17 -23 -23 -45 -24 -92 -3 -134 -4 -143
-14 -126 -16 28 -41 164 -30 167 12 4 13 49 2 56 -5 3 -7 36 -5 74 2 42 -3 86
-11 109 -13 37 -12 40 6 52 11 7 17 18 15 25 -11 29 35 59 78 50 17 -3 44 -8
60 -10z m899 -105 c-3 -5 -10 -7 -15 -3 -5 3 -7 10 -3 15 3 5 10 7 15 3 5 -3
7 -10 3 -15z m561 -111 c-5 -14 -1 -18 19 -18 14 0 26 5 26 10 0 13 59 13 99
-1 31 -11 42 -29 18 -29 -8 0 -38 -17 -68 -38 -30 -21 -80 -54 -113 -73 -32
-19 -70 -41 -85 -50 -15 -9 -52 -23 -82 -32 -197 -56 -314 -54 -364 5 -14 16
-25 35 -25 41 0 7 10 0 21 -15 11 -16 27 -28 34 -28 24 0 27 20 6 46 -31 40
-25 57 8 23 16 -16 34 -29 40 -29 23 0 19 20 -9 51 -35 39 -32 49 7 21 24 -17
42 -20 118 -18 50 2 99 5 111 8 87 25 110 32 119 40 5 4 15 8 21 8 22 0 69 51
66 70 -2 10 2 21 7 25 6 3 8 20 5 38 l-5 32 16 -34 c8 -19 13 -42 10 -53z
m-548 50 c-3 -8 -6 -5 -6 6 -1 11 2 17 5 13 3 -3 4 -12 1 -19z m95 -24 c-3
-17 -9 -23 -19 -20 -8 3 -18 6 -23 6 -4 0 -10 9 -13 20 -4 17 0 20 28 20 29 0
32 -2 27 -26z m785 4 c-3 -8 -6 -5 -6 6 -1 11 2 17 5 13 3 -3 4 -12 1 -19z
m-1687 -30 c0 -11 -47 -10 -55 1 -3 5 8 9 25 9 16 -1 30 -5 30 -10z m1704 -27
c3 -5 -1 -22 -10 -39 -28 -56 9 -92 96 -92 36 0 52 4 57 15 7 19 -26 58 -43
51 -15 -6 -52 20 -42 29 3 4 28 -4 55 -17 35 -18 48 -30 48 -46 0 -12 11 -29
24 -38 30 -22 10 -36 -40 -28 -31 5 -42 2 -68 -22 -17 -16 -38 -35 -46 -41
-20 -18 0 -71 30 -79 13 -3 25 -14 28 -25 7 -25 42 -25 74 1 14 11 39 20 54
20 33 0 34 -2 17 -30 -10 -15 -9 -22 5 -38 24 -26 14 -44 -36 -64 -75 -31
-120 -22 -129 27 -2 12 -13 21 -28 23 -13 2 -30 13 -38 23 -17 25 -25 24 -60
-6 -16 -13 -32 -22 -36 -18 -11 11 -6 47 9 67 22 29 18 61 -10 94 -47 56 -130
72 -208 40 -44 -17 -21 -41 28 -28 6 1 27 2 48 1 65 -2 109 -70 77 -121 -8
-13 -11 -12 -24 5 -12 16 -16 17 -30 6 -21 -17 -20 -35 1 -52 15 -13 13 -15
-18 -19 -26 -4 -35 -10 -37 -28 -3 -22 -7 -23 -45 -17 -51 8 -73 25 -34 25 15
0 43 7 62 14 31 13 35 19 35 52 0 31 -3 36 -20 31 -15 -4 -20 0 -20 14 0 24
-28 25 -46 2 -7 -10 -14 -30 -14 -45 0 -23 -4 -28 -25 -28 -21 0 -25 5 -25 29
0 16 6 34 14 40 30 25 25 101 -7 101 -21 0 -84 -57 -95 -87 -6 -15 -16 -47
-22 -70 -13 -53 -38 -58 -37 -8 1 48 -22 70 -60 58 -18 -6 -28 -17 -28 -29 0
-10 -4 -24 -8 -31 -5 -8 2 -17 21 -27 16 -8 34 -22 42 -31 9 -11 22 -14 40
-10 23 5 36 -3 90 -55 34 -33 70 -60 79 -60 27 0 33 -12 15 -31 -21 -23 -11
-37 31 -45 19 -3 35 -8 35 -9 0 -2 -14 -17 -31 -35 -29 -29 -30 -32 -15 -49 9
-10 16 -27 16 -39 0 -15 6 -22 19 -22 16 0 20 -10 25 -62 4 -35 6 -87 5 -116
-2 -45 -6 -55 -24 -62 -11 -4 -27 -15 -34 -24 -12 -15 -10 -21 19 -51 38 -40
35 -65 -9 -65 -34 0 -46 -25 -23 -52 20 -23 7 -38 -34 -38 -28 0 -36 -5 -44
-25 -8 -22 -14 -24 -37 -19 -34 8 -61 30 -79 66 -14 27 -19 78 -8 78 9 0 67
-42 79 -57 13 -16 63 -34 69 -24 3 4 8 28 11 53 6 41 4 47 -15 53 -12 4 -34 2
-50 -5 -29 -12 -70 0 -70 21 0 15 25 21 98 23 56 1 67 4 70 19 6 30 -19 77
-49 92 -68 36 -135 8 -223 -91 -55 -63 -66 -71 -66 -51 0 13 11 34 25 47 47
45 19 89 -36 58 -22 -13 -31 -14 -45 -4 -11 8 -41 11 -88 9 -65 -3 -69 -2 -52
12 11 8 41 18 68 21 60 8 123 47 171 106 69 84 70 190 4 296 -27 41 -94 82
-135 82 -13 0 -22 6 -22 15 0 22 -23 18 -38 -6 -11 -18 -11 -24 4 -40 9 -10
27 -19 38 -19 45 0 146 -124 146 -179 0 -11 -9 -44 -20 -73 -17 -45 -26 -56
-60 -71 -61 -26 -84 -26 -88 0 -3 19 3 23 43 28 55 9 98 39 90 65 -3 10 -1 21
5 25 6 3 8 11 4 16 -3 5 -10 7 -15 3 -5 -3 -16 0 -24 6 -21 18 -47 -5 -39 -35
7 -27 -18 -40 -46 -25 -34 18 -79 -14 -80 -57 0 -53 -53 -16 -95 66 -24 49
-21 69 10 57 7 -2 19 2 25 10 7 8 27 14 44 14 19 0 42 9 56 22 23 21 23 23 4
28 -10 3 -19 12 -19 20 0 8 -10 16 -22 18 -12 2 -23 10 -25 19 -5 27 -48 -17
-51 -52 -2 -25 -7 -30 -27 -30 -37 0 -36 28 5 70 19 21 35 43 35 50 0 7 7 18
15 25 8 7 15 16 15 21 0 16 -32 39 -57 39 -35 0 -110 -56 -117 -88 -7 -33 -42
-79 -52 -70 -4 4 -2 30 3 58 6 28 7 53 3 55 -12 7 -68 -24 -84 -46 -28 -40
-24 15 8 127 34 117 83 225 105 232 8 3 5 -7 -8 -24 -25 -34 -19 -67 14 -82
19 -9 27 -6 48 16 34 36 50 80 42 119 -3 17 -1 34 5 38 6 4 10 -5 10 -20 0
-14 8 -40 17 -58 9 -18 16 -40 14 -51 -5 -32 64 -88 119 -97 40 -7 90 13 123
50 31 34 47 42 124 61 56 14 107 34 140 56 28 19 54 34 58 34 3 0 21 11 39 25
18 14 37 25 41 25 5 0 39 20 75 44 36 24 82 47 103 51 20 4 40 11 43 16 7 12
71 12 78 0z m-1779 -21 c3 -6 -4 -10 -17 -10 -18 0 -20 2 -8 10 19 12 18 12
25 0z m70 -21 c11 -16 1 -19 -13 -3 -7 8 -8 14 -3 14 5 0 13 -5 16 -11z m735
-24 c0 -19 -2 -35 -4 -35 -2 0 -6 16 -8 35 -2 19 0 35 4 35 4 0 8 -16 8 -35z
m-806 -11 c25 -10 19 -27 -8 -20 -16 4 -26 1 -29 -8 -6 -16 11 -36 30 -36 7 0
13 -7 13 -15 0 -13 -4 -14 -20 -5 -11 6 -25 8 -30 5 -18 -11 -10 -35 15 -45
14 -5 25 -13 25 -17 -1 -19 -19 -35 -33 -30 -9 3 -18 0 -20 -7 -6 -15 7 -39
18 -34 4 1 9 -17 10 -42 3 -36 -1 -48 -18 -61 -20 -16 -20 -18 -3 -34 9 -10
15 -24 12 -32 -3 -8 -6 -19 -6 -24 0 -6 -4 -7 -10 -4 -21 13 -31 -7 -16 -30
14 -21 14 -23 -4 -18 -16 4 -20 0 -20 -21 0 -27 -6 -31 -28 -17 -9 6 -12 26
-8 77 3 38 7 76 9 84 13 57 17 83 22 149 3 40 8 78 11 83 3 5 8 24 11 41 10
62 31 79 77 61z m695 -80 c-6 -7 -15 -11 -21 -8 -5 3 -4 12 3 20 6 7 15 11 21
8 5 -3 4 -12 -3 -20z m-54 -24 c3 -5 -10 -43 -29 -85 -20 -41 -36 -84 -36 -95
0 -23 -15 -27 -24 -5 -3 8 -21 23 -41 32 -36 17 -43 27 -24 38 6 4 8 13 5 21
-4 10 4 13 35 10 31 -3 41 0 45 12 22 70 51 101 69 72z m1458 -78 c25 -34 28
-45 18 -55 -10 -9 -11 -9 -6 5 8 21 -17 29 -105 31 -39 1 -70 3 -70 5 0 14 37
33 74 38 27 4 43 11 39 17 -3 5 0 8 7 5 7 -2 26 -23 43 -46z m-2813 18 c14 -4
19 -8 11 -9 -8 -1 -34 -10 -57 -21 -32 -16 -41 -25 -37 -40 3 -13 -4 -27 -22
-42 -57 -50 7 -80 69 -33 36 28 66 33 66 11 0 -33 59 -25 86 12 11 15 53 9
148 -19 15 -5 33 -6 38 -3 6 4 8 -1 6 -11 -1 -10 -18 -23 -37 -29 -19 -6 -39
-20 -45 -31 -6 -11 -17 -25 -25 -31 -8 -6 -11 -18 -8 -29 6 -14 16 -16 55 -12
62 6 88 -5 95 -40 4 -19 16 -34 32 -41 27 -12 28 -21 11 -63 -16 -37 96 -45
115 -8 4 7 10 26 13 40 8 39 59 45 109 13 20 -13 37 -29 37 -35 0 -10 60 -40
93 -46 37 -6 55 -22 50 -43 -6 -24 -22 -25 -87 -5 -53 16 -80 7 -69 -23 11
-30 64 -92 79 -92 7 0 25 -18 39 -40 19 -31 32 -40 62 -45 21 -4 48 -11 59
-17 15 -7 28 -7 42 1 11 6 29 11 39 11 13 0 9 -6 -13 -19 -18 -11 -35 -25 -39
-32 -11 -17 31 -49 65 -49 l28 0 -19 -40 c-11 -22 -26 -40 -35 -40 -19 0 -70
26 -112 58 -29 22 -37 24 -67 15 -19 -6 -36 -8 -39 -5 -3 3 -3 22 0 43 8 47
-24 99 -61 99 -13 0 -27 5 -30 10 -14 23 -59 2 -49 -23 4 -11 18 -17 39 -17
28 0 35 -5 44 -32 6 -17 9 -46 5 -63 -5 -28 -2 -33 25 -45 17 -7 42 -10 55 -6
33 8 55 -2 49 -23 -6 -25 40 -54 75 -47 22 5 30 1 44 -24 9 -16 28 -32 42 -36
30 -7 35 -24 7 -24 -11 0 -26 -3 -35 -6 -12 -5 -16 1 -16 24 0 21 -6 31 -20
35 -27 7 -42 -15 -35 -54 8 -42 12 -49 36 -49 13 0 19 -7 19 -23 0 -13 11 -34
25 -47 28 -26 22 -36 -28 -46 -70 -15 -110 -24 -177 -42 -41 -11 -133 -33
-205 -48 -71 -15 -155 -35 -185 -44 -31 -10 -77 -21 -104 -24 -44 -6 -50 -4
-79 24 -32 32 -58 37 -103 20 -25 -10 -26 -9 -19 12 15 46 15 234 1 282 -17
55 -16 51 -16 75 0 11 -6 26 -13 33 -7 7 -26 39 -42 70 -19 37 -36 58 -47 58
-10 0 -18 -4 -18 -10 0 -5 -7 -10 -15 -10 -8 0 -15 6 -15 13 0 8 -10 25 -21
38 -12 13 -26 36 -31 52 -11 30 -38 36 -58 12 -9 -11 -7 -21 14 -48 14 -19 26
-39 26 -44 0 -6 7 -16 16 -23 16 -14 45 -72 51 -105 2 -11 12 -44 21 -74 18
-54 21 -153 7 -251 l-7 -45 -15 45 c-18 57 -78 219 -105 284 -33 82 -78 210
-78 226 -1 8 -9 33 -20 55 -25 52 -25 54 7 87 34 35 24 45 -28 28 -28 -10 -46
-11 -57 -4 -29 19 -24 33 15 39 63 10 88 27 91 63 2 22 -2 34 -12 38 -30 11
-16 21 49 33 45 8 71 8 84 1 44 -23 88 -10 82 24 -1 4 4 14 10 22 24 29 -33
64 -71 44 -17 -9 -26 -6 -55 16 l-35 26 -58 -20 -59 -20 -11 30 c-9 26 -13 28
-32 18 -11 -6 -54 -22 -96 -36 -59 -20 -78 -23 -90 -14 -8 7 -14 19 -14 26 0
15 -10 17 -47 14 -17 -1 -23 4 -23 19 0 41 133 103 174 82 52 -27 131 -16 106
14 -8 10 -7 15 1 21 7 4 15 2 17 -4 14 -44 64 -54 105 -22 27 21 42 26 32 11
-3 -5 -1 -12 4 -15 4 -3 8 18 7 47 -1 48 1 53 29 66 59 29 135 37 185 21z
m2646 -4 c16 5 16 4 4 -5 -8 -6 -22 -8 -32 -5 -9 2 -19 0 -23 -6 -8 -13 -25
-13 -25 0 0 6 7 10 15 10 8 0 15 5 15 11 0 8 4 8 14 0 7 -6 22 -9 32 -5z
m-1882 -80 c-3 -9 -10 -16 -15 -16 -6 0 -5 9 1 21 13 24 24 20 14 -5z m2066
-57 c0 -14 -18 -20 -26 -8 -4 7 -8 24 -10 38 l-3 26 20 -24 c10 -13 19 -27 19
-32z m16 25 c-4 -9 -9 -15 -11 -12 -3 3 -3 13 1 22 4 9 9 15 11 12 3 -3 3 -13
-1 -22z m-4 -49 c-3 -17 1 -27 12 -31 8 -3 27 -26 41 -52 20 -35 23 -47 13
-54 -7 -4 -16 -8 -20 -8 -5 0 -8 -8 -8 -17 0 -14 -2 -15 -9 -4 -7 11 -13 11
-32 1 -13 -7 -37 -13 -53 -12 -17 0 -38 -6 -47 -14 -15 -14 -21 -11 -55 31
-32 38 -44 45 -68 43 -35 -4 -47 -27 -17 -35 12 -3 21 -10 21 -15 0 -11 102
-107 134 -125 24 -14 130 -15 161 -1 36 16 66 71 64 117 -2 22 0 44 4 47 4 4
7 -4 7 -19 0 -18 8 -30 28 -39 24 -12 27 -19 27 -65 1 -93 71 -136 153 -94 23
12 47 21 55 21 17 0 131 -98 135 -116 4 -18 1 -17 -69 2 -105 29 -177 -10
-114 -61 16 -12 26 -27 24 -34 -3 -7 -21 4 -46 29 -47 44 -58 47 -91 24 -31
-21 -28 -41 13 -77 52 -46 47 -61 -17 -53 -29 3 -71 6 -93 6 -22 0 -35 4 -28
8 8 5 5 30 -14 92 -14 47 -30 103 -36 125 -6 22 -12 41 -12 42 -1 1 -18 -2
-38 -8 -29 -8 -51 -6 -99 7 -52 15 -72 27 -120 76 -53 54 -61 58 -105 59 -26
1 -38 4 -26 6 24 5 49 30 40 40 -4 3 -25 6 -47 6 -22 0 -40 4 -40 8 0 9 7 11
50 13 34 1 39 32 6 40 -13 3 -31 3 -39 0 -10 -3 -15 0 -14 12 1 11 -7 20 -23
24 -21 5 -18 7 19 12 39 6 46 4 68 -23 20 -23 33 -29 63 -29 21 0 51 5 67 11
15 6 49 12 76 14 54 3 77 18 77 49 0 12 5 27 12 34 16 16 16 16 10 -13z
m-1698 -14 c3 -4 -4 -17 -15 -27 -17 -15 -22 -16 -29 -4 -5 9 -5 19 2 27 12
15 34 17 42 4z m1209 -31 c-4 -4 -21 -11 -38 -14 l-30 -7 35 29 c27 23 36 27
38 15 2 -8 0 -19 -5 -23z m-1503 -57 c22 -43 59 -116 81 -163 53 -115 53 -115
78 -118 26 -4 81 -76 81 -107 0 -11 -5 -26 -11 -32 -8 -8 -6 -16 10 -29 29
-26 26 -38 -14 -57 -39 -19 -90 -23 -80 -7 3 6 -1 7 -9 4 -9 -3 -16 -1 -16 5
0 11 15 15 35 11 6 -1 7 2 2 6 -4 4 2 18 14 30 30 32 19 55 -23 47 -18 -3 -41
-10 -51 -15 -14 -7 -24 -4 -41 15 -12 13 -20 29 -18 36 2 6 -1 18 -7 25 -9 10
-8 15 4 20 18 7 20 36 3 36 -7 -1 -24 -7 -38 -15 -36 -21 -49 -18 -20 5 14 11
30 20 36 20 21 0 36 27 25 47 -5 10 -12 26 -15 36 -3 10 -16 17 -33 18 -39 1
-116 27 -84 28 31 1 101 41 101 57 0 22 -17 24 -54 9 -19 -8 -43 -15 -53 -14
-11 0 -6 6 15 15 21 9 32 21 32 35 0 19 -4 21 -32 16 l-33 -6 28 15 c29 16 31
21 18 43 -5 8 -19 12 -35 9 -14 -3 -26 -2 -26 2 0 8 67 48 82 49 4 1 25 -34
48 -76z m335 -9 c-8 -9 -15 -20 -15 -25 0 -5 -4 -9 -10 -9 -5 0 -10 5 -10 12
0 17 31 48 41 42 5 -3 2 -12 -6 -20z m1162 -6 c-3 -8 -6 -5 -6 6 -1 11 2 17 5
13 3 -3 4 -12 1 -19z m95 6 c-24 -17 -39 -14 -27 5 3 6 16 11 28 11 l21 0 -22
-16z m-2839 -33 c3 -13 -7 -28 -36 -50 -32 -25 -50 -31 -87 -31 -33 0 -58 -7
-83 -24 l-35 -24 -17 44 c-9 25 -28 52 -42 61 -24 16 -24 17 -7 24 38 15 81
10 87 -10 8 -34 56 -34 122 -1 70 35 91 37 98 11z m167 -1 c0 -5 -12 -10 -26
-10 -14 0 -23 4 -19 10 3 6 15 10 26 10 10 0 19 -4 19 -10z m-526 -18 c-14 -9
-44 -78 -69 -158 -15 -48 -25 -63 -48 -74 -36 -16 -75 -56 -92 -95 -11 -25
-15 -27 -20 -12 -11 27 3 78 27 104 19 21 21 27 10 56 -17 48 -16 53 24 97 39
43 85 70 120 70 13 0 26 5 29 10 3 6 12 10 18 10 9 0 9 -2 1 -8z m1985 -14 c0
-13 -4 -32 -8 -43 -6 -14 -8 -8 -7 23 0 23 4 42 8 42 5 0 8 -10 7 -22z m1110
-2 c7 -8 23 -17 36 -20 25 -6 28 -16 26 -66 0 -14 -1 -44 -2 -68 -2 -35 -5
-43 -19 -39 -9 2 -25 -2 -34 -9 -21 -15 -14 -47 16 -81 22 -23 24 -47 13 -104
-7 -34 -4 -41 36 -84 33 -35 43 -54 41 -74 -4 -31 20 -56 43 -47 9 3 15 0 15
-9 0 -10 -11 -15 -32 -15 -18 0 -48 -9 -66 -20 -27 -16 -33 -26 -30 -48 2 -16
12 -31 26 -38 21 -10 14 -13 -55 -21 -43 -6 -78 -10 -79 -9 -1 0 5 16 13 35
10 25 17 31 23 22 12 -21 26 -6 44 48 19 60 19 61 3 61 -14 0 -37 -40 -37 -65
0 -8 -4 -15 -10 -15 -5 0 -10 11 -10 25 0 14 -6 41 -14 60 -11 25 -14 80 -13
224 1 170 3 191 17 191 9 0 20 3 23 6 10 10 -12 44 -28 44 -8 0 -15 5 -15 10
0 6 7 10 15 10 18 0 20 41 3 58 -7 7 -27 12 -44 12 -18 0 -36 5 -40 11 -4 8 3
9 22 5 17 -3 39 0 54 8 33 18 45 19 59 2z m542 -33 c-8 -15 -10 -15 -11 -2 0
17 10 32 18 25 2 -3 -1 -13 -7 -23z m-3204 -20 c5 -14 -41 -33 -57 -23 -23 14
-3 41 27 37 15 -2 28 -8 30 -14z m1623 13 c0 -3 -4 -8 -10 -11 -5 -3 -10 -1
-10 4 0 6 5 11 10 11 6 0 10 -2 10 -4z m-2006 -22 c7 -18 -2 -63 -17 -82 -10
-13 -3 -26 16 -28 7 0 20 -2 30 -2 10 -1 15 -7 12 -12 -4 -6 -10 -8 -14 -5 -5
2 -16 -2 -26 -9 -20 -15 -11 -41 11 -32 8 3 14 2 14 -3 0 -5 -12 -12 -26 -15
-41 -11 -22 -31 27 -29 l44 2 -28 -15 c-27 -14 -33 -42 -8 -36 15 3 14 -15 -1
-22 -10 -5 -10 -7 0 -12 18 -8 15 -20 -14 -51 l-25 -27 3 29 c2 25 -1 31 -20
33 -52 8 -75 122 -43 221 12 35 21 71 21 81 0 32 33 43 44 14z m1176 1 c0 -8
-4 -15 -10 -15 -5 0 -7 7 -4 15 4 8 8 15 10 15 2 0 4 -7 4 -15z m677 -29 c-9
-42 -8 -48 17 -81 18 -24 30 -53 33 -83 2 -26 10 -91 17 -144 11 -88 8 -116
-9 -88 -3 5 -12 7 -19 4 -7 -3 -19 3 -27 12 -9 12 -10 18 -3 21 48 16 55 59 8
50 -22 -4 -23 -2 -21 63 2 59 -1 70 -27 104 l-29 38 22 42 c11 24 24 57 27 74
4 18 10 32 14 32 4 0 3 -20 -3 -44z m1673 24 c0 -5 -5 -10 -11 -10 -5 0 -7 5
-4 10 3 6 8 10 11 10 2 0 4 -4 4 -10z m-3308 -36 c25 6 98 -13 98 -26 0 -4
-21 -8 -47 -9 -62 -1 -81 -5 -99 -20 -11 -9 -12 -15 -2 -26 10 -12 9 -18 -7
-29 -35 -25 -63 -10 -56 30 1 10 -3 23 -11 28 -11 8 -11 10 0 15 7 3 21 13 30
23 23 23 44 30 59 17 7 -5 23 -7 35 -3z m1709 -31 c-8 -15 -10 -15 -11 -2 0
17 10 32 18 25 2 -3 -1 -13 -7 -23z m133 -18 c3 -8 1 -15 -4 -15 -6 0 -10 7
-10 15 0 8 2 15 4 15 2 0 6 -7 10 -15z m1241 3 c45 0 92 -24 67 -35 -26 -10 8
-34 42 -28 17 3 49 2 71 -3 25 -7 32 -10 17 -11 -17 -1 -22 -6 -20 -18 3 -15
14 -18 57 -18 34 0 56 -5 58 -12 4 -11 -5 -15 -37 -15 -3 -1 -20 2 -37 5 -28
6 -33 4 -33 -13 0 -26 31 -41 81 -38 51 4 64 -17 17 -27 -57 -12 -98 -29 -98
-41 0 -17 30 -26 45 -14 17 14 87 15 111 2 14 -9 15 -12 4 -13 -8 -1 -18 -1
-22 0 -4 0 -18 -3 -32 -9 -14 -5 -42 -11 -63 -14 -62 -8 -270 -57 -305 -71
-44 -18 4 33 55 59 63 33 42 50 -27 21 -54 -23 -45 2 9 26 25 11 45 26 45 34
0 20 -18 19 -63 -4 -54 -28 -47 -2 10 32 35 22 43 31 32 37 -9 6 -28 1 -56
-15 -47 -26 -66 -18 -31 14 19 19 40 26 52 19 8 -6 45 35 40 44 -7 11 -35 3
-86 -23 -21 -10 -38 -14 -38 -9 0 6 26 22 58 36 51 23 55 27 40 38 -10 7 -18
19 -18 26 0 9 -12 11 -41 7 -23 -3 -38 -2 -33 3 17 17 68 39 76 34 5 -3 29 -6
53 -6z m-3045 -56 c0 -15 -2 -15 -10 -2 -13 20 -13 33 0 25 6 -3 10 -14 10
-23z m1789 -2 c27 14 24 16 41 -39 16 -51 45 -91 66 -91 8 0 17 -7 20 -15 3
-8 26 -24 50 -35 44 -22 53 -33 34 -45 -31 -19 27 -55 90 -55 27 0 39 -4 38
-12 -4 -16 49 -23 66 -9 20 17 42 -30 27 -58 -16 -28 -6 -41 30 -41 26 0 29
-3 29 -33 0 -32 42 -104 69 -122 25 -15 8 -25 -42 -25 l-53 0 -34 66 c-40 76
-79 113 -121 116 -16 0 -34 1 -41 2 -31 3 -13 -25 41 -62 39 -28 60 -50 64
-67 4 -24 2 -26 -27 -23 -17 2 -30 8 -29 13 2 15 -18 36 -29 29 -5 -4 -21 -1
-34 7 -30 16 -39 7 -36 -36 2 -19 0 -35 -4 -35 -3 0 -21 13 -39 29 l-33 28
-71 -12 c-39 -7 -71 -8 -71 -4 0 5 5 9 10 9 6 0 10 7 10 15 0 8 6 15 13 15 6
0 24 6 38 14 14 7 37 16 52 20 20 5 27 13 27 30 0 51 -61 66 -135 32 l-53 -24
-15 42 c-8 22 -18 64 -21 91 -3 28 -8 68 -11 90 l-6 40 15 -32 c14 -31 39 -43
50 -25 3 5 -1 26 -9 48 -8 21 -14 72 -15 113 0 65 2 72 13 57 11 -16 17 -17
36 -6z m-2189 -59 c0 -5 2 -16 5 -23 4 -9 -4 -19 -20 -26 -54 -25 -73 -5 -35
36 21 22 50 30 50 13z m450 2 c0 -3 -7 -14 -15 -24 -14 -15 -14 -18 -1 -32 13
-13 8 -18 -42 -44 -66 -33 -75 -58 -22 -58 29 0 34 -3 32 -19 -11 -60 -52 -99
-119 -112 -35 -7 -66 -33 -42 -35 42 -5 56 -3 81 13 14 10 29 18 33 18 14 0
75 53 75 66 0 33 28 9 45 -38 10 -29 31 -80 46 -114 15 -33 32 -76 37 -95 6
-18 18 -54 28 -79 9 -25 18 -54 19 -66 2 -11 15 -46 29 -76 39 -83 38 -85 -54
-102 -13 -3 -138 -52 -159 -63 -14 -6 -29 -9 -34 -6 -6 3 -7 2 -4 -4 4 -6 -4
-15 -18 -21 -18 -8 -25 -8 -29 1 -3 8 -11 4 -24 -10 -11 -13 -23 -23 -26 -23
-12 0 -6 36 10 58 13 19 13 22 0 22 -8 0 -21 -9 -29 -20 -21 -30 -28 -12 -11
28 17 41 12 52 -13 27 -21 -21 -29 -5 -13 25 6 12 9 24 6 27 -9 9 -36 -5 -41
-22 -3 -8 -7 -22 -10 -31 -3 -9 -8 -15 -10 -12 -3 3 2 24 10 48 8 23 15 46 15
51 0 14 -28 11 -34 -3 -3 -7 -4 -1 -1 15 3 15 1 27 -3 27 -13 0 -40 -32 -50
-60 -8 -21 -10 -16 -8 26 1 40 5 53 20 60 22 10 22 30 0 26 -19 -4 -10 51 18
118 30 69 36 84 34 95 -1 10 -6 11 -76 14 -34 1 -36 2 -32 34 4 32 4 32 62 32
50 1 62 5 96 33 22 18 45 37 52 43 14 11 16 39 3 39 -5 0 -16 -6 -23 -12 -68
-64 -165 -83 -242 -49 -76 33 -85 101 -16 136 16 8 30 20 30 26 0 6 5 7 10 4
8 -5 7 -12 -2 -23 -9 -11 -10 -16 -1 -19 6 -2 24 -17 41 -32 38 -37 69 -32
122 20 32 32 45 38 65 33 34 -8 54 10 61 58 8 46 54 88 97 88 15 0 27 -3 27
-7z m-673 -129 c10 -14 26 -34 35 -45 16 -17 16 -21 1 -63 -15 -41 -15 -46 0
-69 27 -41 13 -62 -41 -64 l-47 -2 32 14 c36 16 48 31 33 40 -5 3 -10 15 -10
27 0 14 -5 18 -16 14 -9 -3 -28 -8 -42 -11 -23 -4 -23 -3 6 10 36 17 38 41 3
38 -32 -4 -25 15 9 24 39 10 38 25 -2 39 -31 10 -31 11 -9 17 20 5 22 8 12 21
-13 15 -7 36 9 36 5 0 17 -12 27 -26z m150 -27 c-6 -12 -13 -23 -14 -25 -1 -2
-11 1 -22 7 -25 14 -18 38 12 43 32 6 38 0 24 -25z m573 12 c0 -6 -4 -7 -10
-4 -5 3 -10 11 -10 16 0 6 5 7 10 4 6 -3 10 -11 10 -16z m3399 -77 c0 -25 -1
-26 -9 -5 -8 19 -13 20 -45 13 -43 -10 -41 -8 -54 -40 -9 -21 -11 -21 -10 -5
2 33 0 35 -25 25 -15 -5 -27 -5 -35 3 -20 20 -44 -14 -32 -46 9 -24 8 -27 -10
-27 -11 0 -18 4 -14 10 3 5 3 21 -1 35 -6 23 -10 25 -38 20 -63 -13 -66 -15
-60 -41 5 -20 3 -24 -17 -23 -13 0 -18 3 -11 6 6 2 12 13 12 23 0 10 -6 20
-12 23 -14 5 7 9 162 35 58 9 126 18 153 19 45 2 47 0 46 -25z m-1991 -31 c-8
-12 -18 -18 -21 -14 -4 3 0 15 10 25 21 24 29 15 11 -11z m-2051 -13 c-3 -8
-6 -5 -6 6 -1 11 2 17 5 13 3 -3 4 -12 1 -19z m949 -15 c-10 -10 -19 5 -10 18
6 11 8 11 12 0 2 -7 1 -15 -2 -18z m2706 2 c-3 -19 -11 -25 -29 -25 -13 0 -33
-4 -43 -10 -14 -8 -19 -5 -23 11 -4 15 -2 19 9 15 8 -3 14 -2 14 2 0 8 45 29
66 31 7 1 9 -9 6 -24z m-3564 -28 c21 -30 28 -47 21 -58 -15 -24 -10 -62 13
-86 25 -27 48 -29 90 -7 34 18 63 5 39 -18 -20 -21 -164 -14 -195 9 -42 30
-59 76 -46 124 12 43 30 79 41 79 3 0 20 -19 37 -43z m2025 26 c-7 -20 -33
-42 -47 -43 -6 0 3 14 19 30 33 35 37 36 28 13z m72 -13 c17 -33 20 -76 5 -85
-15 -9 -12 -25 4 -25 7 0 21 12 31 26 l17 26 12 -24 c7 -13 16 -45 19 -71 6
-45 3 -52 -24 -49 -4 1 -22 -3 -40 -9 -73 -21 -110 -25 -171 -17 -37 4 -35 14
5 34 17 9 35 22 39 27 4 8 14 5 27 -7 18 -16 25 -17 46 -8 33 15 32 28 -4 40
-25 9 -28 14 -23 39 3 15 11 37 18 48 8 11 14 34 14 52 0 41 5 41 25 3z m1572
-2 c-3 -7 -5 -2 -5 12 0 14 2 19 5 13 2 -7 2 -19 0 -25z m181 -13 c-3 -3 -19
-3 -34 1 l-29 8 25 6 c24 7 50 -4 38 -15z m52 -5 c0 -5 -4 -10 -10 -10 -5 0
-10 5 -10 10 0 6 5 10 10 10 6 0 10 -4 10 -10z m-3001 -31 c13 -39 13 -39 1
-39 -5 0 -10 10 -10 23 0 13 -5 28 -12 35 -8 8 -8 12 -1 12 6 0 16 -14 22 -31z
m2589 -9 c3 -8 0 -10 -7 -6 -7 4 -18 2 -26 -4 -18 -15 -20 1 -3 18 14 14 30
11 36 -8z m252 11 c34 -1 41 -4 32 -13 -7 -7 -12 -16 -12 -20 0 -12 34 -10 47
3 8 8 13 3 18 -20 8 -36 22 -40 34 -8 9 22 9 22 20 -5 7 -18 18 -28 31 -28 22
0 26 20 10 51 -6 10 -7 19 -2 19 12 0 34 -49 27 -60 -3 -5 -1 -11 5 -15 5 -3
10 -15 10 -26 0 -23 28 -26 37 -3 3 9 1 31 -5 50 -5 19 -6 34 -2 34 4 0 13
-24 20 -52 7 -29 19 -58 28 -65 13 -11 13 -22 3 -82 -15 -92 -38 -141 -65
-138 -13 1 -22 -5 -24 -18 -8 -39 -17 -34 -14 6 4 36 2 40 -14 37 -11 -2 -23
-13 -29 -26 -17 -38 -23 -24 -8 20 8 23 10 45 5 50 -14 14 -42 -2 -48 -28 -3
-13 -12 -28 -19 -34 -11 -9 -12 -6 -8 12 3 13 10 28 15 35 15 19 -1 34 -28 27
-24 -6 -34 9 -14 21 14 9 13 45 -2 45 -6 0 -23 -10 -36 -22 l-25 -23 12 22
c15 30 14 53 -4 53 -9 0 -15 10 -15 26 0 41 -32 26 -50 -24 -8 -23 -18 -42
-22 -42 -12 0 -10 13 6 46 26 53 29 74 12 80 -22 8 -46 -13 -46 -42 0 -12 -4
-26 -10 -29 -13 -8 -13 3 4 59 26 87 -15 109 -43 24 -13 -38 -24 -47 -36 -28
-3 6 0 10 7 10 16 0 48 84 38 100 -17 27 -67 -37 -61 -78 1 -7 -8 -22 -21 -33
-16 -14 -19 -22 -10 -25 6 -3 12 -12 12 -19 0 -7 12 -17 27 -22 25 -9 26 -10
7 -15 -16 -4 -30 5 -57 40 -38 46 -45 66 -27 77 6 4 9 1 8 -7 -2 -7 6 -13 17
-13 16 0 22 10 30 55 l10 55 60 5 c33 3 74 4 90 4 17 -1 50 -2 75 -3z m140
-15 c0 -3 -4 -8 -10 -11 -5 -3 -10 -1 -10 4 0 6 5 11 10 11 6 0 10 -2 10 -4z
m-4020 -35 c0 -5 -7 -11 -15 -15 -15 -5 -20 5 -8 17 9 10 23 9 23 -2z m1056
-16 c-3 -8 -1 -15 5 -15 6 0 7 -5 3 -11 -5 -8 -10 -6 -16 5 -5 9 -6 21 -3 26
10 15 18 12 11 -5z m2494 -10 c0 -8 -7 -15 -15 -15 -16 0 -20 12 -8 23 11 12
23 8 23 -8z m-310 -35 c0 -5 -14 -10 -31 -10 -17 0 -28 4 -24 10 3 6 17 10 31
10 13 0 24 -4 24 -10z m1061 -22 c38 -33 43 -47 19 -66 -38 -31 -21 -55 84
-114 17 -10 46 -18 65 -18 45 0 35 -9 -19 -18 -51 -9 -62 -28 -26 -42 29 -11
37 -44 9 -36 -10 2 -32 7 -49 11 -17 3 -44 19 -59 35 -31 32 -50 36 -89 19
-34 -16 -39 -36 -16 -59 24 -24 25 -36 5 -44 -21 -8 -19 -39 3 -59 10 -9 42
-21 71 -27 63 -12 143 -70 160 -116 21 -59 8 -100 -22 -69 -44 44 -114 30
-101 -19 4 -17 -3 -32 -25 -57 -17 -18 -31 -37 -31 -41 0 -5 -11 -1 -24 8 -15
9 -32 36 -41 65 -9 27 -25 54 -35 59 -27 15 -103 12 -125 -4 -19 -14 -19 -15
-2 -33 23 -26 21 -36 -5 -28 -38 10 -71 28 -110 57 -36 28 -36 29 -35 96 l2
67 50 0 c55 0 108 24 125 56 6 11 29 36 50 55 48 44 89 142 100 243 9 86 32
111 71 79z m-3232 -22 c7 -8 8 -17 3 -20 -6 -3 -12 3 -15 14 -6 24 -4 25 12 6z
m1475 -31 c21 -19 42 -35 47 -35 17 0 9 -18 -9 -22 -13 -4 -18 -13 -17 -29 2
-30 27 -31 40 -2 12 29 44 36 73 17 16 -10 37 -14 62 -10 59 8 75 -16 66 -101
-12 -126 -13 -118 14 -118 22 0 27 7 38 50 8 28 14 66 13 85 0 29 2 31 9 15
20 -46 9 -142 -22 -174 -25 -28 -50 -26 -98 4 -48 30 -93 32 -143 5 -50 -27
-137 -26 -222 1 -35 12 -62 26 -59 30 3 5 10 6 16 3 6 -4 26 -7 45 -8 28 -1
33 3 33 21 0 25 -15 31 -85 34 -49 2 -75 13 -75 30 0 11 37 12 44 1 3 -5 24
-9 46 -10 37 -2 41 0 38 20 -3 23 -31 34 -100 41 -46 5 -55 12 -40 30 9 10 23
12 54 6 24 -4 51 -9 62 -11 13 -2 20 4 22 19 4 24 -14 34 -69 38 -53 4 -56 11
-13 31 20 10 36 21 36 26 0 13 27 9 39 -6 7 -8 25 -18 41 -21 16 -3 34 -13 41
-21 9 -11 15 -12 25 -3 11 9 11 15 3 25 -9 11 -8 18 2 30 10 13 10 17 -1 24
-8 5 -21 5 -28 1 -18 -10 -54 -2 -46 10 3 5 22 9 43 9 30 0 46 -8 75 -35z
m1037 -28 c49 -49 72 -93 110 -212 34 -108 34 -104 9 -102 -15 1 -23 12 -31
42 -25 91 -34 110 -58 113 -21 3 -23 1 -17 -20 13 -47 27 -130 22 -135 -2 -3
-10 -2 -16 2 -8 5 -8 11 1 21 6 8 7 14 2 14 -6 0 -13 19 -16 41 -6 48 -42 93
-56 70 -5 -7 -5 -29 0 -50 11 -45 11 -111 2 -111 -19 1 -29 19 -41 75 -13 66
-34 97 -53 78 -9 -9 -9 -26 0 -69 14 -74 14 -84 -4 -84 -11 0 -15 11 -16 38 0
51 -21 107 -39 107 -12 0 -15 -14 -14 -72 1 -53 -2 -73 -11 -73 -8 0 -14 20
-17 59 -5 67 -22 98 -44 80 -11 -9 -13 -27 -8 -77 5 -41 4 -63 -3 -59 -5 3
-10 31 -11 62 -2 65 -8 78 -33 72 -23 -6 -27 21 -15 85 9 43 8 50 -15 74 l-24
27 23 -6 c12 -3 22 -2 22 2 0 8 89 28 165 37 33 3 61 7 63 9 1 1 21 2 42 2 34
0 47 -6 81 -40z m-3445 6 c-10 -10 -19 5 -10 18 6 11 8 11 12 0 2 -7 1 -15 -2
-18z m724 -23 c11 -10 10 -60 -1 -60 -6 0 -9 7 -5 15 3 8 1 15 -4 15 -5 0 -7
7 -4 15 4 8 2 15 -2 15 -5 0 -10 12 -10 28 l-2 27 11 -25 c6 -14 14 -27 17
-30z m-635 18 c-3 -13 -10 -32 -15 -43 -4 -11 -13 -44 -19 -74 -10 -48 -9 -55
6 -67 23 -17 28 -17 40 -1 13 17 10 52 -4 50 -17 -4 -17 -3 7 57 11 28 20 60
20 72 0 17 3 19 12 10 8 -8 7 -24 -5 -63 -11 -34 -14 -56 -7 -63 6 -8 5 -25
-2 -50 -11 -36 -13 -37 -47 -31 -20 4 -39 12 -43 18 -11 17 -10 51 2 63 5 5
14 34 20 63 9 48 24 81 37 81 2 0 2 -10 -2 -22z m3515 -43 c11 -13 8 -15 -19
-15 -31 0 -42 14 -18 23 20 9 24 8 37 -8z m-1715 -15 c-3 -5 -11 -10 -16 -10
-6 0 -7 5 -4 10 3 6 11 10 16 10 6 0 7 -4 4 -10z m120 -26 c-27 -21 -210 -116
-260 -134 -11 -4 -31 -12 -45 -18 -31 -13 -74 -23 -120 -27 -19 -2 -73 -13
-120 -23 -89 -21 -352 -39 -295 -20 17 5 37 10 45 10 8 0 21 5 28 11 7 5 15 7
19 4 3 -4 14 -2 23 3 10 5 33 12 51 14 19 3 66 14 104 25 39 11 97 27 130 36
33 9 80 23 105 32 25 8 52 16 60 18 8 2 33 10 55 18 22 8 65 22 95 31 30 9 64
21 75 25 82 35 97 33 50 -5z m1682 21 c0 -8 -4 -12 -9 -9 -5 3 -6 10 -3 15 9
13 12 11 12 -6z m-1847 -5 c0 -5 -5 -10 -11 -10 -5 0 -7 5 -4 10 3 6 8 10 11
10 2 0 4 -4 4 -10z m-45 -10 c-3 -5 -12 -10 -18 -10 -7 0 -6 4 3 10 19 12 23
12 15 0z m-53 -22 c-7 -7 -12 -8 -12 -2 0 14 12 26 19 19 2 -3 -1 -11 -7 -17z
m-88 -18 c-13 -13 -142 -49 -149 -42 -3 3 -5 1 -5 -5 0 -6 -10 -13 -22 -16
-81 -20 -115 -28 -132 -33 -14 -5 -16 -3 -10 7 6 11 5 12 -7 2 -8 -7 -30 -14
-49 -16 -19 -2 -45 -9 -57 -15 -12 -7 -29 -12 -39 -12 -13 0 -14 3 -5 14 12
15 82 32 114 28 9 -1 17 3 17 8 0 6 9 10 20 10 12 0 31 6 43 14 12 8 37 13 55
12 17 0 32 2 32 5 0 4 11 9 25 11 14 3 25 1 25 -4 0 -4 11 -1 24 7 13 9 40 17
60 19 21 2 42 8 49 15 6 6 13 8 16 6 2 -3 0 -10 -5 -15z m41 10 c-3 -5 -11
-10 -16 -10 -6 0 -7 5 -4 10 3 6 11 10 16 10 6 0 7 -4 4 -10z m333 -19 c-13
-15 -25 -27 -27 -25 -4 4 39 54 47 54 2 0 -7 -13 -20 -29z m1595 22 c-27 -5
-28 -12 -9 -38 8 -11 20 -16 29 -12 8 3 21 0 27 -8 10 -12 5 -14 -28 -12 -36
1 -40 4 -49 39 l-10 38 31 -1 c23 -1 26 -3 9 -6z m-2869 -18 c-4 -8 -1 -15 6
-15 6 0 8 -5 4 -11 -4 -8 -9 -7 -15 2 -12 19 -11 39 1 39 5 0 7 -7 4 -15z
m3006 -30 c-7 -9 -15 -13 -18 -10 -3 2 1 11 8 20 7 9 15 13 18 10 3 -2 -1 -11
-8 -20z m-2976 -32 c4 -9 2 -21 -4 -27 -7 -7 -10 -7 -10 1 0 6 -3 18 -6 27 -3
9 -2 16 4 16 5 0 13 -8 16 -17z m256 2 c10 -12 8 -18 -11 -35 -25 -20 -40 -25
-38 -12 1 4 1 9 -1 12 -1 3 -3 15 -6 28 -3 18 1 22 20 22 13 0 29 -7 36 -15z
m927 -22 c8 -6 12 -17 8 -24 -6 -8 -12 -3 -22 15 -18 34 -34 33 -70 -4 -25
-26 -32 -28 -42 -17 -9 11 -8 17 3 26 8 6 18 11 22 10 5 -1 25 5 44 14 25 11
36 12 39 4 2 -7 10 -17 18 -24z m1733 -15 c0 -13 -5 -18 -14 -15 -8 3 -22 0
-33 -8 -17 -13 -17 -14 1 -21 10 -4 26 -3 35 3 23 14 41 5 41 -21 0 -12 5 -27
11 -33 16 -16 -17 -43 -55 -43 -32 0 -33 1 -49 69 -21 87 -22 81 13 81 17 0
30 5 30 11 0 5 5 7 10 4 6 -3 10 -15 10 -27z m75 22 c-3 -5 -11 -10 -16 -10
-6 0 -7 5 -4 10 3 6 11 10 16 10 6 0 7 -4 4 -10z m43 -19 c-18 -16 -35 -27
-38 -24 -6 5 50 53 63 53 4 0 -7 -13 -25 -29z m46 -12 c-10 -11 -28 -25 -39
-31 -12 -5 -7 3 13 21 37 35 55 42 26 10z m-2709 -9 c-3 -5 -11 -10 -16 -10
-6 0 -7 5 -4 10 3 6 11 10 16 10 6 0 7 -4 4 -10z m636 -14 c-30 -32 -24 -57
19 -78 29 -15 31 -17 8 -12 -21 5 -30 0 -43 -20 -14 -21 -15 -29 -5 -41 7 -8
20 -15 29 -15 9 0 23 -5 31 -11 13 -10 13 -10 0 -6 -18 6 -23 -33 -6 -46 13
-9 -34 -51 -84 -74 -19 -10 -37 -18 -40 -20 -3 -2 -6 6 -7 17 -1 13 4 20 17
20 10 0 25 7 34 15 8 9 22 12 32 8 12 -4 15 -2 12 8 -3 8 -2 23 2 34 11 30
-23 69 -54 63 -15 -3 -27 2 -35 14 -7 11 -7 18 -1 18 5 0 10 9 10 21 0 11 -5
17 -10 14 -6 -3 -22 3 -36 14 -29 23 -74 27 -91 10 -7 -7 -9 -25 -6 -40 3 -17
1 -29 -5 -29 -18 0 -22 -29 -6 -45 13 -12 13 -15 1 -15 -19 0 -52 -41 -52 -65
1 -11 6 -19 13 -17 7 1 30 -2 52 -7 24 -5 42 -5 46 0 10 16 24 9 24 -11 0 -12
9 -24 22 -29 15 -5 18 -10 9 -15 -6 -4 -18 -5 -26 -2 -8 3 -15 1 -15 -4 0 -5
-10 -12 -22 -15 -27 -8 -85 -33 -111 -46 -10 -5 -23 -7 -29 -3 -5 4 -13 1 -17
-5 -7 -11 -242 -101 -301 -116 -24 -6 -25 -5 -25 50 0 36 5 59 14 64 7 5 10
14 7 20 -4 6 -1 11 8 11 8 0 20 9 26 20 6 11 16 17 25 14 8 -4 13 -9 11 -13
-5 -7 12 -11 69 -14 24 -1 37 -8 41 -20 8 -24 43 -42 57 -28 8 8 6 20 -7 42
l-18 31 39 -6 c35 -6 42 -4 68 26 35 39 35 75 0 108 -29 27 -65 20 -65 -13 0
-20 -36 -54 -46 -44 -2 2 1 29 7 60 10 56 9 58 -17 80 -42 36 -28 56 38 53 29
-2 58 1 64 5 6 5 24 10 40 12 17 2 35 7 42 11 7 4 26 9 42 12 17 2 44 6 61 8
17 3 36 9 43 15 7 6 17 6 26 1 13 -8 12 -10 -2 -10 -26 0 -10 -35 18 -38 19
-1 24 3 24 22 0 14 -6 27 -12 29 -17 7 10 27 27 21 7 -3 15 2 18 10 4 9 14 16
23 16 15 0 14 -4 -5 -24z m2130 -9 c-10 -9 -11 -8 -5 6 3 10 9 15 12 12 3 -3
0 -11 -7 -18z m-2001 -4 c0 -10 -4 -24 -9 -31 -6 -11 -9 -10 -13 5 -3 10 -3
24 -1 31 7 18 23 15 23 -5z m-1117 -35 c-9 -16 -20 -7 -18 15 4 32 6 34 14 12
5 -11 7 -23 4 -27z m88 33 c4 7 10 11 13 9 2 -3 -4 -16 -14 -30 -16 -21 -21
-23 -32 -12 -11 11 -10 13 2 10 10 -2 14 4 13 17 -1 11 0 14 4 6 4 -11 7 -11
14 0z m1924 -16 c-3 -30 -10 -39 -24 -31 -7 5 -7 15 1 31 15 32 27 32 23 0z
m1040 0 c-39 -32 -55 -32 -18 0 15 13 33 24 38 24 6 0 -3 -11 -20 -24z m-2808
-14 c21 4 34 -2 31 -13 -3 -7 -18 -12 -34 -13 -92 -3 -94 -4 -116 -40 -20 -34
-21 -35 -40 -19 -18 17 -18 18 6 33 14 8 27 24 30 34 3 13 10 18 21 13 9 -3
26 1 37 9 15 10 26 11 39 4 10 -5 22 -9 26 -8z m-424 -8 c-4 -10 -13 -29 -21
-43 -9 -14 1 -8 22 15 20 22 33 32 30 23 -8 -24 1 -22 27 5 l21 22 -7 -25 c-8
-25 -8 -25 14 -6 11 11 21 14 21 9 0 -15 -28 -36 -39 -29 -5 4 -13 1 -16 -5
-4 -5 -14 -8 -23 -4 -8 3 -23 -3 -34 -15 -11 -11 -24 -18 -29 -14 -5 3 -25 -6
-44 -20 -18 -14 -40 -26 -48 -26 -9 0 -17 -4 -19 -10 -1 -5 -15 -11 -30 -12
-16 -1 -28 -8 -28 -14 0 -14 -28 -26 -41 -18 -13 8 -11 21 8 43 9 11 21 17 27
13 21 -12 54 -9 49 5 -3 7 -9 13 -15 13 -14 0 -1 17 34 42 25 17 30 19 25 5
-11 -29 11 -29 30 0 19 30 35 44 42 38 2 -3 -3 -13 -12 -23 -15 -16 -15 -19
-2 -19 8 0 15 3 15 7 0 8 39 60 45 60 3 0 1 -8 -2 -17z m1866 -129 c1 -51 5
-75 16 -84 22 -19 33 -70 23 -114 -7 -31 -27 -56 -98 -123 -70 -66 -91 -92
-96 -120 -4 -22 -2 -44 5 -55 6 -10 7 -18 2 -18 -15 0 -51 84 -51 118 0 38 50
123 82 141 27 15 88 106 88 130 0 9 -4 21 -10 27 -6 6 -6 20 0 39 5 17 13 62
16 100 8 88 22 62 23 -41z m-529 47 c0 -21 -6 -43 -12 -49 -10 -8 -13 -4 -13
16 0 15 4 33 8 40 5 8 3 12 -8 12 -13 0 -14 2 -3 14 19 20 28 10 28 -33z m790
42 c0 -5 -4 -14 -9 -21 -7 -11 -9 -11 -14 1 -3 8 -3 18 0 21 9 8 23 7 23 -1z
m-1527 -50 c-13 -19 -13 -28 -3 -52 6 -17 9 -35 5 -41 -3 -6 -3 -10 2 -8 16 4
73 -14 73 -23 0 -6 -4 -8 -9 -4 -6 3 -28 7 -50 9 -33 3 -38 0 -34 -13 8 -22
-1 -12 -33 34 -55 82 -65 105 -51 119 7 7 27 12 44 11 18 -1 38 2 45 6 20 13
28 -12 11 -38z m1469 25 c-7 -7 -12 -8 -12 -2 0 6 3 14 7 17 3 4 9 5 12 2 2
-3 -1 -11 -7 -17z m-1855 -18 l11 -31 -33 7 c-28 5 -38 1 -59 -20 -15 -14 -26
-34 -26 -44 0 -11 -7 -25 -16 -32 -8 -7 -14 -23 -12 -35 1 -12 -3 -30 -11 -39
-19 -22 2 -46 40 -46 25 0 30 5 36 30 6 34 17 38 31 13 14 -24 41 -9 48 27 9
41 22 47 34 16 5 -14 15 -26 22 -26 9 0 10 -3 2 -8 -20 -13 -45 -70 -33 -77
12 -8 -7 -35 -24 -35 -6 0 -23 -12 -38 -26 -23 -22 -38 -27 -88 -28 -34 -1
-61 0 -61 3 0 3 27 15 61 25 57 19 89 45 89 73 0 18 -27 16 -33 -1 -3 -8 -25
-20 -49 -27 -24 -7 -47 -16 -52 -21 -15 -12 -44 -10 -48 4 -4 10 -10 10 -32 0
-40 -18 -69 0 -61 37 5 22 -1 39 -25 74 -17 26 -36 49 -41 53 -14 9 7 31 66
68 71 46 156 77 216 82 28 1 54 6 57 9 11 10 18 4 29 -25z m803 -6 c0 -15 -6
-24 -15 -24 -17 0 -18 4 -9 37 8 29 24 20 24 -13z m650 -74 c-6 -30 -19 -69
-27 -87 -20 -42 -11 -63 26 -63 20 0 36 8 50 26 15 19 21 22 21 10 0 -19 -75
-76 -101 -76 -24 0 -28 10 -30 62 -2 31 7 62 29 108 18 36 33 81 33 100 2 34
2 34 6 5 3 -16 0 -55 -7 -85z m620 80 c0 -5 -14 -23 -30 -40 -31 -32 -33 -54
-3 -43 11 4 14 3 9 -5 -8 -14 -26 -15 -45 -3 -11 7 -6 18 25 55 41 49 44 52
44 36z m-555 -60 c-4 -23 -9 -39 -12 -36 -3 2 -2 23 2 46 4 23 9 39 12 36 3
-2 2 -23 -2 -46z m-1285 27 c0 -7 16 -36 36 -65 25 -38 34 -62 32 -84 -4 -43
-27 -49 -26 -8 1 18 -3 35 -8 38 -18 13 -44 61 -44 81 0 11 -5 23 -10 26 -12
7 -4 25 11 25 5 0 9 -6 9 -13z m236 -12 c21 -32 9 -53 -17 -29 -20 18 -26 54
-9 54 5 0 17 -11 26 -25z m580 0 c14 -13 13 -17 -2 -32 -17 -17 -18 -17 -11 1
4 10 2 25 -4 32 -15 19 -1 18 17 -1z m-214 -27 c-7 -7 -12 -8 -12 -2 0 14 12
26 19 19 2 -3 -1 -11 -7 -17z m68 -8 c0 -20 -25 -38 -36 -27 -8 7 15 47 26 47
6 0 10 -9 10 -20z m667 -12 c-3 -8 -6 -5 -6 6 -1 11 2 17 5 13 3 -3 4 -12 1
-19z m-1387 -128 c0 -23 -37 -70 -56 -70 -8 0 -25 -7 -38 -16 -15 -9 -26 -11
-30 -5 -4 5 4 15 16 22 37 19 68 62 68 92 0 16 -12 43 -26 62 -23 31 -24 34
-8 43 15 8 22 1 46 -50 15 -33 28 -68 28 -78z m420 56 c0 -19 -14 -28 -34 -20
-13 5 -14 9 -5 20 15 18 39 18 39 0z m-170 -21 c0 -9 -6 -12 -15 -9 -8 4 -15
10 -15 15 0 5 7 9 15 9 8 0 15 -7 15 -15z m2218 -49 c20 -13 55 -42 76 -65
l40 -41 -29 -32 c-17 -18 -33 -37 -37 -42 -4 -5 -4 1 -1 13 3 13 14 28 24 34
22 14 25 37 6 37 -18 0 -62 -40 -70 -62 -4 -10 -11 -18 -16 -18 -12 0 6 58 25
81 18 20 18 29 0 29 -8 0 -26 -14 -40 -31 -30 -35 -35 -16 -6 21 25 32 25 44
1 37 -16 -4 -20 2 -23 29 -5 40 1 41 50 10z m-2566 -8 c-7 -7 -12 -8 -12 -2 0
14 12 26 19 19 2 -3 -1 -11 -7 -17z m1614 -85 c-8 -25 4 -40 34 -44 22 -4 25
-8 22 -42 -3 -42 5 -58 72 -146 22 -30 41 -61 41 -70 0 -9 24 -29 57 -46 31
-17 69 -42 84 -55 35 -33 124 -168 124 -189 0 -22 19 -41 42 -41 12 0 18 7 18
21 0 18 4 20 27 14 16 -4 28 -7 29 -8 0 -1 8 -28 18 -59 14 -45 28 -66 66 -99
40 -34 48 -47 44 -65 -5 -18 1 -27 27 -43 35 -21 35 -21 -18 -37 -19 -5 -15
-24 5 -24 20 0 102 -42 102 -52 0 -10 -31 2 -53 20 -26 22 -125 21 -159 -2
-16 -10 -28 -14 -28 -7 0 17 -77 61 -95 55 -12 -5 -15 -19 -13 -62 4 -71 -11
-77 -70 -26 -57 48 -81 106 -117 274 -9 41 -31 103 -50 137 -19 34 -30 65 -24
68 19 12 7 41 -35 86 -24 26 -55 55 -69 64 -37 24 -116 25 -151 1 -36 -23 -18
-38 31 -24 45 12 70 3 116 -40 43 -42 45 -48 15 -56 -22 -6 -22 -7 15 -40 20
-19 37 -40 37 -46 0 -6 11 -28 25 -49 13 -22 27 -51 31 -65 6 -25 4 -26 -25
-20 -47 10 -39 -19 12 -45 39 -21 33 -33 -8 -15 -35 14 -55 12 -55 -6 0 -5 24
-21 53 -35 53 -27 90 -55 52 -40 -11 4 -28 8 -37 9 -9 0 -15 3 -12 7 4 8 -20
19 -42 19 -30 0 -12 -30 31 -51 25 -12 45 -26 45 -31 0 -5 -18 1 -40 12 -42
22 -80 26 -80 10 0 -6 17 -18 38 -27 49 -23 125 -74 118 -80 -3 -3 -20 5 -38
18 -37 27 -124 60 -132 51 -15 -15 -2 -30 34 -41 22 -6 55 -24 73 -39 17 -16
44 -36 60 -45 15 -10 27 -22 27 -27 0 -6 -24 5 -52 24 -62 41 -163 87 -172 79
-14 -14 -4 -31 27 -44 42 -17 110 -60 121 -77 4 -8 16 -21 26 -29 10 -9 16
-22 13 -30 -4 -10 -14 -4 -37 21 -39 43 -187 121 -198 103 -8 -14 19 -47 39
-47 17 0 84 -42 103 -65 14 -17 14 -17 -9 -4 -54 32 -106 56 -113 52 -18 -10
-6 -34 25 -47 17 -7 43 -23 57 -36 14 -12 32 -26 40 -30 8 -5 12 -12 7 -16 -4
-4 -15 -1 -24 7 -35 28 -84 51 -99 45 -8 -3 -33 8 -57 25 -50 35 -135 60 -181
52 l-33 -5 14 73 c7 41 16 82 19 92 3 9 1 17 -5 17 -6 0 -11 -5 -11 -12 0 -6
-3 -8 -7 -4 -5 4 0 14 10 21 11 8 21 36 28 76 17 113 52 253 76 308 l24 53 49
-6 c50 -7 65 1 54 28 -11 28 -51 29 -134 5 -44 -12 -83 -20 -87 -16 -3 4 -1
28 7 55 7 26 13 63 13 83 1 26 5 35 14 32 29 -11 62 9 92 56 31 48 32 51 22
118 l-9 68 36 32 c43 38 45 39 38 16z m1134 -24 c0 -5 -7 -9 -15 -9 -9 0 -12
6 -9 15 6 15 24 11 24 -6z m-1030 -29 c0 -5 -2 -10 -4 -10 -3 0 -8 5 -11 10
-3 6 -1 10 4 10 6 0 11 -4 11 -10z m970 -37 c-1 -14 -30 -47 -36 -41 -8 8 14
48 26 48 6 0 10 -3 10 -7z m-93 -65 c-3 -8 -6 -5 -6 6 -1 11 2 17 5 13 3 -3 4
-12 1 -19z m-1090 -34 c5 -15 -21 -53 -31 -43 -2 2 -7 16 -11 32 -6 23 -4 27
14 27 12 0 24 -7 28 -16z m733 6 c0 -5 -7 -7 -15 -4 -8 4 -15 8 -15 10 0 2 7
4 15 4 8 0 15 -4 15 -10z m396 -37 c-11 -11 -17 4 -9 23 7 18 8 18 11 1 2 -10
1 -21 -2 -24z m-3453 -189 c-4 -10 -9 -12 -15 -6 -12 12 -1 35 12 27 5 -3 6
-13 3 -21z m3352 -50 c62 -39 92 -100 80 -162 -11 -63 -27 -78 -74 -74 -32 3
-41 8 -41 23 0 22 11 24 28 7 19 -19 33 3 39 59 l5 50 -38 8 c-25 4 -40 3 -42
-4 -2 -6 -11 -11 -19 -11 -9 0 -13 -6 -9 -15 3 -8 9 -22 12 -30 4 -9 -6 -26
-25 -44 -36 -34 -38 -46 -11 -63 29 -18 25 -38 -8 -38 -28 0 -106 43 -129 71
-6 8 -15 27 -19 43 -6 27 -6 28 17 15 34 -18 80 -19 103 -3 21 14 34 64 17 64
-5 0 -7 10 -3 22 4 18 2 20 -19 15 -13 -4 -32 -7 -42 -7 -10 0 -22 -12 -27
-26 -11 -27 -27 -28 -44 -2 -15 24 8 68 36 68 26 0 86 39 93 61 8 23 60 12
120 -27z m-3549 21 c70 -1 72 -2 110 -44 22 -24 55 -54 75 -66 20 -13 38 -32
41 -42 12 -46 -152 1 -227 65 -11 10 -30 24 -42 33 -12 8 -32 28 -45 44 -21
27 -21 28 -3 21 11 -5 52 -10 91 -11z m-181 -116 c-7 -38 -6 -41 14 -34 19 6
20 4 11 -20 -14 -36 -13 -37 12 -33 12 2 33 18 45 37 26 38 31 22 8 -23 -19
-37 -20 -36 14 -36 25 0 28 -3 23 -26 -4 -22 -2 -25 19 -22 15 2 30 17 43 41
30 57 31 27 2 -35 -14 -29 -22 -56 -18 -60 17 -17 50 6 73 52 31 63 46 49 20
-19 -16 -44 -17 -53 -5 -58 25 -9 42 4 54 44 19 59 30 62 13 3 -25 -85 21 -97
48 -12 17 55 33 65 25 17 -3 -22 -8 -52 -12 -67 -5 -23 -3 -26 14 -21 26 6 57
69 53 106 -3 33 10 35 25 3 9 -20 8 -28 -9 -44 -23 -24 -17 -52 13 -52 13 0
20 7 20 20 0 41 15 25 68 -69 14 -25 28 -48 31 -51 25 -21 78 -127 68 -136 -1
-2 -17 10 -34 26 -37 34 -62 31 -64 -9 -1 -14 -2 -33 -3 -41 -1 -8 5 -23 12
-32 8 -9 11 -25 8 -35 -7 -22 -61 -79 -88 -94 -16 -8 -17 -6 -11 22 6 29 4 32
-15 27 -12 -4 -26 0 -33 8 -10 12 -17 11 -46 -7 -39 -25 -56 -20 -18 5 25 16
33 40 17 50 -5 3 -25 -7 -46 -21 -25 -18 -40 -23 -47 -16 -7 7 -2 15 15 27 26
16 34 40 17 50 -5 3 -20 -4 -35 -15 -32 -25 -50 -16 -42 22 6 32 -8 46 -29 29
-20 -17 -32 14 -15 35 18 21 5 30 -24 17 -41 -18 -61 22 -31 62 8 11 15 26 15
33 0 22 -29 14 -46 -12 -9 -14 -20 -25 -25 -25 -21 0 -19 30 3 61 16 22 19 33
11 36 -18 7 -16 23 3 23 8 0 13 4 10 8 -3 4 -28 7 -55 6 -50 -1 -51 -1 -51 27
0 15 -5 31 -11 35 -8 5 -10 -1 -7 -21 5 -24 -2 -19 -63 41 -37 37 -65 72 -62
78 29 48 105 134 121 136 2 0 1 -18 -3 -41z m2625 38 c0 -2 -7 -19 -17 -37
-15 -31 -17 -32 -30 -15 -18 25 -17 28 10 41 24 12 37 16 37 11z m668 -32 c-3
-3 -9 2 -12 12 -6 14 -5 15 5 6 7 -7 10 -15 7 -18z m-792 -63 c-39 -44 -26
-184 23 -237 26 -27 28 -63 7 -106 -9 -20 -18 -62 -19 -93 -2 -50 -5 -57 -29
-69 -31 -15 -98 -108 -98 -134 0 -10 7 -26 14 -36 21 -27 52 -7 59 39 8 46 46
97 91 118 40 19 99 10 164 -23 59 -30 94 -82 147 -216 27 -70 68 -125 91 -125
25 0 25 20 0 53 -15 19 -26 42 -25 53 0 15 2 16 7 4 4 -9 14 -26 24 -39 19
-27 54 -25 51 4 -2 26 15 55 33 55 10 0 13 -7 8 -24 -3 -14 -1 -27 6 -31 15
-9 96 14 111 31 15 19 59 18 59 0 0 -8 -4 -17 -10 -21 -5 -3 -21 -27 -35 -53
-24 -45 -27 -47 -70 -47 -64 0 -72 -14 -35 -60 30 -38 39 -65 20 -65 -5 0 -12
-11 -16 -24 -3 -14 -14 -32 -25 -42 -18 -17 -19 -16 -19 17 0 19 4 49 10 67 6
23 5 45 -3 70 -11 33 -16 37 -47 36 -19 0 -43 -4 -52 -8 -29 -13 -84 57 -120
152 -17 45 -35 85 -40 88 -5 3 -13 17 -18 30 -7 17 -17 24 -35 24 -32 0 -32
-17 0 -60 14 -19 25 -38 25 -43 0 -30 60 -139 99 -180 46 -48 46 -48 16 -41
-16 4 -33 12 -37 18 -5 8 -13 7 -28 -2 -17 -10 -20 -10 -20 3 0 9 -9 15 -25
15 -19 0 -25 -5 -24 -22 0 -13 4 -32 8 -43 7 -17 1 -22 -48 -37 -88 -28 -186
-21 -166 12 4 6 0 30 -10 53 -9 23 -21 52 -26 65 -8 21 -11 22 -25 8 -16 -17
-33 -21 -35 -8 -6 40 -4 102 3 121 8 22 7 23 -24 19 -32 -6 -34 -4 -63 60 -28
62 -30 75 -30 182 0 134 20 237 47 246 10 3 16 9 14 12 -2 4 9 26 24 49 21 31
24 40 12 36 -12 -5 -8 5 12 33 17 21 34 42 39 45 5 4 6 12 2 18 -4 7 1 24 11
39 10 15 17 34 15 42 -2 12 0 12 10 3 10 -10 9 -16 -5 -31z m89 -11 c-12 -69
-32 -133 -39 -123 -10 16 8 117 25 135 19 22 20 21 14 -12z m2051 2 c-8 -8
-36 5 -36 17 0 7 6 7 21 0 11 -7 18 -14 15 -17z m-593 -8 c4 -8 2 -17 -2 -20
-5 -2 -11 4 -14 15 -6 23 8 27 16 5z m239 -52 c20 -23 38 -87 38 -136 0 -29
-8 -46 -35 -75 -19 -20 -35 -31 -35 -24 0 7 7 20 15 28 17 18 20 44 4 44 -5 0
-28 -10 -49 -22 -28 -16 -40 -30 -40 -45 0 -21 -5 -23 -49 -23 -47 0 -50 1
-75 44 -14 25 -26 55 -25 68 1 22 2 22 12 -4 6 -16 19 -30 29 -34 10 -3 18
-12 18 -20 0 -8 9 -14 20 -14 11 0 20 5 20 10 0 6 8 10 19 10 10 0 24 6 30 14
10 11 8 17 -6 25 -17 10 -17 12 0 21 21 13 23 40 2 40 -16 0 -38 34 -28 44 3
3 19 6 35 6 27 0 68 30 68 50 0 15 15 12 32 -7z m-182 -73 c-6 -11 -18 -20
-28 -20 -14 1 -13 4 7 20 29 25 34 25 21 0z m-4019 -70 c8 0 -3 -22 -27 -59
-2 -1 -8 0 -14 4 -8 5 -8 10 0 20 6 7 7 21 3 30 -5 15 -3 17 11 12 10 -4 22
-7 27 -7z m4423 -165 c3 -8 2 -15 -3 -15 -5 0 -14 7 -21 15 -10 12 -10 15 3
15 8 0 17 -7 21 -15z m-747 -57 c22 -18 -3 -39 -34 -27 -16 6 -30 6 -37 0 -8
-7 -16 -1 -25 21 -11 25 -11 32 0 38 13 9 70 -10 96 -32z m-247 -18 c-7 -13
-4 -25 11 -44 26 -33 52 -33 77 1 l19 26 62 -19 c42 -13 60 -24 59 -34 -5 -22
-36 -24 -80 -4 -38 17 -39 17 -66 -3 -15 -11 -26 -28 -24 -36 3 -20 -11 -28
-61 -38 -31 -5 -47 -2 -74 13 -38 23 -70 68 -34 49 13 -7 22 -8 26 -1 4 7 13
7 26 0 32 -18 40 -2 20 38 -19 38 -15 66 13 84 18 12 37 -12 26 -32z m-100 23
c-1 -5 -9 -26 -20 -48 l-19 -40 -1 36 c0 19 5 40 12 47 13 13 28 16 28 5z
m1152 -63 c4 -24 1 -30 -14 -30 -18 0 -23 16 -12 44 10 25 21 19 26 -14z
m-892 -107 c30 -21 50 -40 50 -47 0 -3 -36 -6 -80 -6 -44 0 -80 3 -80 7 0 14
54 63 70 63 8 0 27 -8 40 -17z m-764 -28 c29 -20 56 -40 59 -46 5 -7 12 -6 21
2 11 9 14 7 14 -10 0 -27 -7 -27 -54 5 -21 15 -50 29 -64 33 -14 4 -29 17 -33
29 -11 29 -5 28 57 -13z m1710 5 c8 0 14 -7 14 -16 0 -9 -5 -13 -12 -10 -7 3
-21 9 -30 12 -10 4 -18 11 -18 16 0 6 7 7 16 4 9 -3 22 -6 30 -6z m-260 -65
c-13 -33 -27 -49 -59 -65 -51 -27 -66 -46 -67 -87 0 -44 -16 -50 -29 -11 -15
43 -14 74 5 111 22 42 19 40 44 27 18 -10 24 -9 31 1 6 10 9 11 9 2 0 -7 9
-13 20 -13 15 0 20 7 20 28 0 31 31 83 38 63 2 -7 -3 -32 -12 -56z m-1422 -48
c4 -15 2 -16 -12 -6 -23 17 -42 41 -42 51 0 15 48 -26 54 -45z m1533 26 c-17
-19 -18 -74 -2 -85 5 -4 6 -10 2 -14 -9 -9 -47 25 -47 43 0 17 51 86 58 78 3
-3 -2 -13 -11 -22z m90 -40 c11 -23 10 -28 -6 -40 -11 -7 -22 -21 -24 -31 -2
-9 -3 -3 -2 13 1 17 -2 38 -7 49 -7 13 -6 21 3 27 20 13 23 11 36 -18z m-259
-45 c-2 -6 -10 -14 -16 -16 -7 -2 -10 2 -6 12 7 18 28 22 22 4z m56 -29 c-3
-5 -10 -7 -15 -3 -5 3 -7 10 -3 15 3 5 10 7 15 3 5 -3 7 -10 3 -15z m49 -84
c-7 -55 4 -70 73 -101 28 -12 54 -30 58 -39 14 -39 8 -42 -61 -38 -60 3 -71 7
-95 33 -15 16 -32 48 -39 70 -11 37 -10 45 12 90 19 38 27 46 40 39 13 -6 15
-18 12 -54z m-1953 3 c0 -7 7 -25 14 -40 20 -39 10 -35 -14 5 -22 36 -25 47
-10 47 6 0 10 -6 10 -12z m537 -42 c-4 -9 -11 -16 -17 -16 -11 0 -14 33 -3 44
11 10 26 -11 20 -28z m-194 -21 c4 -8 2 -17 -3 -20 -6 -4 -10 3 -10 14 0 25 6
27 13 6z m117 -11 c0 -8 -4 -12 -10 -9 -5 3 -10 10 -10 16 0 5 5 9 10 9 6 0
10 -7 10 -16z m62 -36 c-16 -16 -37 4 -28 28 6 16 8 16 23 1 13 -13 15 -19 5
-29z m18 -109 c0 -36 5 -54 20 -69 32 -32 45 -25 41 20 -2 23 113 18 117 -4 4
-18 -37 -23 -54 -6 -15 15 -44 1 -44 -21 0 -12 10 -23 25 -29 37 -14 31 -33
-15 -48 -57 -18 -78 -15 -95 12 -9 13 -25 26 -35 29 -17 4 -20 14 -20 64 0 32
-3 68 -6 80 -5 18 -1 22 23 25 40 5 43 2 43 -53z m140 47 c0 -24 -12 -46 -21
-40 -15 9 -10 54 6 54 8 0 15 -6 15 -14z m200 -167 c0 -37 4 -58 10 -54 6 3 7
-1 4 -9 -11 -28 30 -166 55 -186 3 -3 15 -23 26 -45 23 -47 355 -385 377 -385
9 0 21 -7 29 -16 7 -8 21 -13 31 -11 10 3 18 0 18 -6 0 -18 32 -47 54 -47 12
-1 39 -14 61 -30 120 -88 175 -113 333 -145 42 -9 86 -19 97 -22 11 -3 59 -13
107 -21 77 -14 88 -19 103 -45 15 -26 16 -31 2 -44 -8 -8 -52 -25 -98 -37 -46
-12 -88 -24 -94 -27 -5 -4 -28 -9 -50 -13 -22 -4 -48 -10 -59 -13 -14 -4 -16
-2 -10 8 6 11 5 12 -7 3 -8 -6 -25 -8 -38 -5 -14 4 -72 1 -130 -7 -99 -12
-379 -10 -401 3 -25 16 -107 18 -518 14 -40 0 -79 4 -85 9 -7 6 -34 13 -61 16
-39 5 -56 2 -82 -15 -32 -19 -39 -20 -109 -8 l-76 12 -37 -37 c-43 -41 -57
-44 -72 -16 -6 10 -16 18 -23 15 -6 -2 -49 -6 -94 -9 -64 -4 -82 -2 -87 9 -7
19 0 22 59 24 98 3 204 31 205 54 0 9 -4 9 -80 -9 -36 -9 -80 -18 -99 -21 -32
-5 -34 -4 -27 18 9 28 9 42 0 86 -4 23 2 58 21 115 36 112 44 131 89 218 153
293 186 366 201 436 8 40 15 83 15 95 0 38 23 99 37 99 8 0 25 -7 39 -16 18
-13 36 -15 72 -10 26 4 62 9 81 11 39 5 51 18 51 55 0 20 8 29 35 39 19 7 39
10 45 6 5 -3 22 1 37 9 16 8 31 15 36 16 4 0 7 -27 7 -61z m-443 -1 c-3 -8 -6
-5 -6 6 -1 11 2 17 5 13 3 -3 4 -12 1 -19z m-27 -54 c0 -8 -5 -12 -10 -9 -6 4
-8 11 -5 16 9 14 15 11 15 -7z m-30 -164 c0 -5 -7 -10 -15 -10 -8 0 -15 5 -15
10 0 6 7 10 15 10 8 0 15 -4 15 -10z m-20 -75 c0 -17 -4 -18 -40 -8 l-25 7 25
7 c38 11 40 10 40 -6z m-550 -206 c0 -20 7 -42 15 -49 8 -7 12 -16 9 -21 -3
-5 2 -6 10 -3 10 4 16 1 16 -9 0 -9 7 -23 16 -32 22 -22 9 -33 -14 -12 -10 10
-23 17 -28 17 -5 0 -17 14 -26 30 -10 17 -25 33 -35 36 -10 3 -26 10 -35 15
-25 13 -39 11 -60 -8 -15 -14 -18 -14 -18 -1 0 22 62 52 94 46 24 -5 28 -2 33
24 8 39 23 17 23 -33z m-37 -122 c18 -18 43 -41 57 -50 21 -15 23 -19 10 -27
-42 -28 -91 -20 -146 23 -25 19 -25 19 -5 34 12 8 21 23 21 34 0 29 27 23 63
-14z m177 -6 c0 -6 -4 -13 -10 -16 -5 -3 -10 1 -10 9 0 9 5 16 10 16 6 0 10
-4 10 -9z m-575 -32 c-4 -6 3 -21 15 -34 l23 -24 -32 9 c-17 5 -34 9 -36 8
-24 -1 -125 16 -125 21 0 8 87 27 133 29 18 1 26 -2 22 -9z m100 -26 c14 -63
14 -61 -14 -53 -20 5 -25 13 -23 30 1 12 -3 29 -9 36 -9 11 -6 14 15 14 20 0
27 -6 31 -27z m141 2 c10 -8 14 -15 7 -15 -19 0 -43 11 -43 21 0 13 14 11 36
-6z m-50 -24 c9 -10 18 -37 20 -60 l4 -40 -45 27 c-43 26 -57 42 -35 42 6 0
10 11 10 25 0 30 23 33 46 6z m174 -56 c14 -17 20 -138 8 -151 -12 -11 -21 3
-12 18 14 22 12 49 -8 100 -18 47 -12 62 12 33z m-89 -7 c2 -23 -3 -53 -9 -60
-4 -4 -7 11 -7 33 0 21 3 39 8 39 4 0 8 -6 8 -12z m189 -8 c0 -5 -6 -10 -14
-10 -8 0 -18 5 -21 10 -3 6 3 10 14 10 12 0 21 -4 21 -10z m130 -151 c11 -21
16 -39 11 -39 -5 0 -13 9 -16 21 -5 16 -13 20 -31 16 -28 -5 -27 -6 -14 28 12
32 24 26 50 -26z m-160 19 c-5 -13 -11 -36 -15 -51 -6 -28 -25 -29 -25 -1 0
13 39 74 47 74 1 0 -2 -10 -7 -22z m247 -75 c-3 -10 -5 -4 -5 12 0 17 2 24 5
18 2 -7 2 -21 0 -30z m-130 -48 c7 -5 14 -22 15 -37 2 -26 6 -28 45 -28 l43 0
-16 -25 c-9 -14 -19 -23 -22 -20 -3 3 -13 -2 -22 -10 -15 -14 -21 -11 -62 29
l-44 45 14 47 c12 43 15 46 25 29 6 -11 16 -24 24 -30z m133 -5 c0 -11 -4 -20
-9 -20 -5 0 -7 9 -4 20 3 11 7 20 9 20 2 0 4 -9 4 -20z m2158 -125 c0 -19 -6
-39 -14 -46 -8 -6 -22 -30 -33 -53 -10 -22 -37 -57 -60 -76 -23 -19 -63 -54
-89 -76 -26 -23 -58 -45 -72 -49 -14 -4 -29 -11 -35 -15 -5 -5 -25 -10 -42
-13 -24 -4 -33 -1 -33 9 0 7 -18 25 -40 39 -26 16 -40 32 -38 43 2 11 -5 18
-19 20 -17 2 -23 -2 -23 -14 0 -14 -3 -15 -12 -6 -19 19 -49 -4 -42 -33 7 -28
2 -30 -26 -13 -26 17 -50 -3 -31 -26 18 -21 5 -39 -19 -26 -41 22 -70 1 -34
-25 18 -12 11 -55 -8 -55 -6 0 -6 6 2 15 11 13 4 15 -54 15 -37 0 -66 -4 -66
-10 0 -5 23 -10 50 -10 29 0 50 -4 50 -11 0 -6 -16 -10 -37 -8 -52 3 -63 1
-63 -12 0 -6 7 -9 15 -5 8 3 15 1 15 -4 0 -6 -24 -10 -54 -10 -71 0 -156 -27
-156 -50 0 -21 28 -34 44 -21 6 5 49 11 96 15 63 4 79 3 60 -5 -37 -15 -7 -28
52 -22 30 3 48 1 48 -5 0 -15 -34 -24 -80 -21 -21 2 -43 0 -47 -4 -15 -16 17
-22 86 -17 48 4 71 2 71 -6 0 -18 -47 -34 -80 -28 -24 5 -30 3 -30 -10 0 -16
-17 -17 -187 -12 -104 3 -191 5 -195 6 -25 1 55 110 80 110 6 0 36 36 69 80
33 46 68 83 80 86 12 3 27 12 34 20 6 8 21 14 33 14 23 0 70 41 121 104 29 36
83 76 108 80 6 1 18 5 24 9 7 5 36 15 65 23 111 30 133 38 146 47 7 6 15 7 19
4 3 -3 21 0 40 8 19 8 50 16 69 17 20 1 38 6 40 10 3 4 14 8 25 8 10 0 38 9
62 19 43 20 69 28 99 30 12 1 16 -8 16 -34z m-2236 -7 c-7 -7 -12 -8 -12 -2 0
14 12 26 19 19 2 -3 -1 -11 -7 -17z m1792 -334 c11 -29 6 -32 -59 -36 -36 -1
-65 0 -65 3 0 7 45 22 67 24 7 0 18 6 25 13 16 16 25 15 32 -4z m66 -42 c0 -8
-33 -32 -80 -56 -25 -13 -56 -36 -69 -50 -14 -14 -32 -26 -41 -26 -14 0 -16 6
-11 33 5 23 12 31 24 29 10 -2 25 2 35 7 15 9 13 11 -15 21 -49 18 -40 26 29
27 34 0 64 5 65 10 3 9 63 14 63 5z m-320 -116 c0 -3 -4 -8 -10 -11 -5 -3 -10
-1 -10 4 0 6 5 11 10 11 6 0 10 -2 10 -4z M2325 8450 c-3 -6 1 -13 10 -16 19
-8 30 0 20 15 -8 14 -22 14 -30 1z M2440 8284 c0 -9 -7 -22 -17 -29 -19 -14
-10 -35 16 -35 13 0 21 10 25 31 9 45 8 49 -9 49 -8 0 -15 -7 -15 -16z M2353
8173 c-18 -7 -16 -43 2 -43 9 0 15 -9 15 -25 0 -40 28 -30 41 16 11 34 10 42
-2 50 -15 9 -37 10 -56 2z M2385 8029 c-4 -6 -4 -13 -1 -16 8 -8 36 5 36 17 0
13 -27 13 -35 -1z M2377 7983 c-15 -14 -6 -31 13 -26 11 3 20 12 20 19 0 14
-22 19 -33 7z M2352 7918 c-18 -18 -14 -28 11 -28 30 0 40 10 26 27 -14 16
-22 16 -37 1z M4310 7652 c0 -14 11 -21 26 -15 8 3 11 9 8 14 -7 11 -34 12
-34 1z M4160 7460 c0 -5 5 -10 10 -10 6 0 10 5 10 10 0 6 -4 10 -10 10 -5 0
-10 -4 -10 -10z M3462 7238 c-16 -16 -15 -33 4 -48 22 -19 54 12 38 37 -14 22
-27 26 -42 11z M3525 7164 c-15 -11 -17 -18 -9 -32 14 -22 34 -22 48 0 8 13 7
21 -4 32 -13 13 -17 13 -35 0z M3570 7095 c-10 -12 -10 -18 0 -30 7 -8 18 -15
25 -15 7 0 18 7 25 15 10 12 10 18 0 30 -7 8 -18 15 -25 15 -7 0 -18 -7 -25
-15z M3625 7026 c-19 -14 -19 -15 -1 -34 19 -22 41 -20 50 5 6 15 -9 43 -23
43 -4 0 -16 -6 -26 -14z M3220 6990 c-52 -11 -87 -27 -93 -43 -12 -32 31 -38
51 -7 16 26 65 26 103 -1 26 -18 30 -19 35 -4 6 15 -10 34 -46 53 -8 5 -31 5
-50 2z M3194 6920 c-32 -13 -39 -30 -15 -37 11 -3 18 -10 15 -15 -4 -6 0 -14
7 -19 19 -12 76 -11 84 1 4 6 10 8 15 5 5 -3 12 -1 15 5 19 31 -77 78 -121 60z
m76 -35 c10 -12 9 -16 -4 -21 -9 -3 -23 -3 -32 0 -13 5 -14 9 -4 21 7 8 16 15
20 15 4 0 13 -7 20 -15z M3135 6719 c-4 -6 -4 -13 -1 -16 8 -8 36 5 36 17 0
13 -27 13 -35 -1z M3470 6605 c-10 -12 -9 -16 3 -21 21 -8 37 3 30 21 -7 19
-17 19 -33 0z M3384 6559 c-10 -17 13 -36 27 -22 12 12 4 33 -11 33 -5 0 -12
-5 -16 -11z M3300 6515 c0 -18 24 -30 39 -21 16 10 1 36 -20 36 -10 0 -19 -7
-19 -15z M4140 6169 c0 -5 9 -9 20 -9 11 0 20 2 20 4 0 2 -9 6 -20 9 -11 3
-20 1 -20 -4z M1371 5981 c-47 -8 -50 -27 -7 -45 37 -16 56 -47 56 -93 0 -17
-4 -23 -14 -20 -8 3 -24 -4 -36 -15 -46 -43 4 -138 72 -138 22 0 32 8 46 37
18 34 20 35 30 17 7 -13 7 -26 1 -35 -26 -41 -3 -93 85 -191 13 -14 28 -33 32
-41 10 -16 66 -47 85 -47 7 0 30 12 51 26 l38 27 -6 63 c-7 66 -5 73 18 52 37
-34 54 -37 77 -15 l22 22 -6 -36 c-6 -31 -3 -39 15 -52 33 -23 110 1 110 35 0
22 -32 24 -50 3 -19 -23 -33 -3 -20 30 14 37 2 49 -53 52 -37 3 -71 7 -102 11
-6 1 -16 16 -24 33 -10 23 -18 29 -32 26 -11 -3 -26 1 -33 9 -8 8 -20 14 -27
14 -10 0 -10 3 -1 12 23 23 13 63 -26 101 -38 37 -79 48 -111 28 -19 -12 -5
-30 19 -24 24 6 55 -18 76 -59 14 -26 13 -28 -16 -43 -34 -18 -39 -44 -11 -69
16 -14 23 -15 41 -6 32 17 70 -11 72 -53 1 -38 2 -42 12 -86 9 -37 -2 -51 -42
-51 -16 0 -35 18 -68 63 -25 34 -53 72 -63 85 -10 13 -17 33 -14 45 2 12 6 36
9 54 5 24 1 36 -16 53 -27 27 -62 21 -102 -17 -28 -27 -42 -25 -51 7 -4 16 1
23 18 30 12 5 25 15 27 22 3 7 20 13 39 13 25 0 34 5 37 19 3 15 -1 18 -22 14
-22 -4 -26 -1 -32 26 -3 17 -14 40 -24 51 -10 11 -20 29 -22 39 -4 23 -12 25
-57 17z M2600 5375 c0 -9 5 -15 11 -13 6 2 11 8 11 13 0 5 -5 11 -11 13 -6 2
-11 -4 -11 -13z M980 5181 c0 -6 -6 -11 -13 -11 -27 0 -79 -33 -89 -56 -6 -13
-16 -24 -23 -24 -17 0 -11 -59 8 -95 9 -16 17 -38 17 -47 0 -23 18 -32 34 -19
7 6 20 9 28 6 9 -4 18 1 21 9 4 9 12 16 20 16 25 0 57 45 62 91 8 61 -15 133
-44 137 -11 2 -21 -1 -21 -7z m14 -55 c3 -13 9 -31 12 -40 5 -13 2 -13 -20 -3
-28 14 -39 40 -23 56 17 17 24 13 31 -13z m-64 -73 c0 -21 -3 -24 -9 -14 -5 8
-7 20 -4 28 8 21 13 15 13 -14z M2977 4866 c-9 -7 -17 -16 -17 -20 0 -4 -11
-24 -25 -44 -28 -41 -32 -62 -10 -62 8 0 22 17 32 38 12 26 19 32 21 20 5 -26
18 -22 46 15 41 54 33 76 -12 35 l-25 -23 12 22 c13 26 2 36 -22 19z M2014
4665 c-8 -19 3 -35 25 -35 25 0 32 10 20 31 -12 23 -37 25 -45 4z M1925 4644
c-16 -12 -17 -16 -6 -23 7 -5 11 -13 8 -18 -5 -8 39 -10 53 -3 3 1 8 2 11 2 3
-1 5 7 4 16 -3 43 -33 54 -70 26z M2065 4453 c-50 -13 -60 -57 -13 -59 15 -1
29 2 29 5 2 6 5 62 4 60 0 -1 -9 -4 -20 -6z M1705 4350 c3 -5 1 -11 -5 -15 -5
-3 -10 -14 -10 -24 0 -18 18 -23 57 -15 30 6 19 40 -18 53 -16 6 -27 6 -24 1z
M1681 4631 c-20 -13 -7 -37 21 -43 20 -4 24 -1 22 16 -1 12 -3 24 -3 29 -1 10
-23 9 -40 -2z M3105 4081 c-45 -7 -126 -49 -132 -68 -6 -17 47 -29 66 -14 25
18 74 39 104 46 19 4 27 11 25 22 -4 20 -12 22 -63 14z M3474 3658 c-4 -6 -2
-14 4 -16 7 -2 12 -9 12 -16 0 -7 11 -23 25 -36 13 -13 34 -41 45 -63 23 -43
107 -127 127 -127 25 0 13 36 -23 71 -20 18 -44 52 -54 74 -21 47 -91 125
-113 125 -9 0 -19 -5 -23 -12z M281 3632 c-7 -13 -11 -28 -8 -35 2 -7 9 -2 16
11 7 13 11 28 8 35 -2 7 -9 2 -16 -11z M407 3523 c-4 -3 -7 -13 -7 -21 0 -12
3 -12 15 -2 8 7 15 16 15 21 0 11 -14 12 -23 2z M2714 3441 c0 -15 4 -16 17
-8 19 12 16 27 -4 27 -7 0 -13 -8 -13 -19z M2620 3249 c0 -5 5 -7 10 -4 6 3
10 8 10 11 0 2 -4 4 -10 4 -5 0 -10 -5 -10 -11z M2833 3164 c-28 -12 -13 -34
22 -34 20 0 47 -7 61 -16 19 -13 28 -14 37 -5 27 27 -76 75 -120 55z M2776
2802 c-2 -4 2 -21 9 -37 8 -17 19 -43 25 -58 11 -31 33 -32 38 -3 7 32 -28
106 -48 106 -10 0 -21 -4 -24 -8z M2855 2770 c-8 -14 23 -82 35 -75 5 3 10 24
10 46 0 32 -3 39 -19 39 -11 0 -22 -4 -26 -10z M2914 2756 c-7 -19 12 -46 33
-46 21 0 13 54 -10 58 -9 2 -20 -4 -23 -12z M2085 7616 c-10 -15 -14 -36 -10
-62 3 -21 2 -34 -2 -28 -4 5 -24 10 -43 10 -27 -1 -38 -7 -50 -29 -13 -24 -13
-29 0 -37 30 -20 95 -4 133 33 45 43 55 78 33 112 -21 31 -41 32 -61 1z m-45
-106 c0 -5 -5 -10 -11 -10 -5 0 -7 5 -4 10 3 6 8 10 11 10 2 0 4 -4 4 -10z
M851 4434 c0 -11 3 -14 6 -6 3 7 2 16 -1 19 -3 4 -6 -2 -5 -13z M3743 4083
c-15 -5 -18 -33 -4 -33 5 0 28 -25 51 -55 30 -39 49 -55 66 -55 13 0 24 5 24
11 0 25 -95 140 -114 138 -6 0 -17 -3 -23 -6z M1391 3680 c-27 -34 -30 -41
-16 -47 22 -8 80 49 72 71 -10 24 -21 20 -56 -24z M50 3473 c0 -7 4 -13 9 -13
15 0 19 -64 5 -85 -8 -11 -14 -31 -14 -46 l0 -26 40 19 c44 22 80 17 80 -12 0
-10 -4 -21 -9 -25 -13 -8 -39 -90 -46 -150 -4 -27 -8 -61 -10 -75 -7 -46 -8
-175 -1 -205 6 -27 4 -30 -19 -30 -24 0 -25 3 -24 48 1 26 -1 50 -4 54 -4 3
-7 -42 -7 -100 0 -105 0 -107 28 -124 15 -9 40 -27 55 -40 l29 -23 50 27 c41
23 55 38 75 79 18 40 21 57 14 77 -5 14 -7 28 -4 31 4 4 8 25 9 49 2 23 8 94
15 157 6 63 12 131 13 150 l1 35 -58 -3 -59 -4 16 31 c18 34 21 71 6 71 -5 0
-19 9 -30 20 -11 11 -40 26 -65 32 -25 7 -45 18 -45 25 0 16 -49 72 -50 56z
m205 -332 c-3 -6 -8 -52 -11 -103 -7 -129 -27 -238 -44 -238 -18 0 -27 128
-15 225 15 119 12 114 68 124 5 0 6 -3 2 -8z m-67 -408 c11 -11 10 -13 -5 -13
-28 0 -63 29 -63 52 0 23 -2 25 68 -39z m67 17 c-10 -11 -21 -17 -26 -15 -4 3
2 15 14 28 26 26 37 14 12 -13z M1763 3123 c-18 -7 -16 -40 2 -47 22 -8 47 4
41 21 -3 8 -6 19 -6 24 0 10 -17 11 -37 2z M2702 2632 c-17 -17 -19 -26 -12
-53 19 -66 63 -60 57 7 -4 58 -19 72 -45 46z M2888 2032 c-31 -6 -20 -22 28
-44 38 -16 48 -18 55 -7 5 8 9 17 9 20 0 10 -74 35 -92 31z M2842 1971 c-10
-6 -1 -14 29 -30 29 -16 45 -19 52 -12 23 23 -52 60 -81 42z M724 1895 c-4 -8
-11 -15 -16 -15 -15 0 -261 -250 -283 -287 -11 -18 -22 -33 -25 -33 -4 0 -19
14 -36 31 -16 17 -50 41 -75 54 -25 13 -53 35 -63 49 -9 14 -27 33 -41 42 -21
14 -30 14 -55 4 -39 -16 -80 -65 -80 -96 0 -34 11 -30 53 16 19 22 39 40 44
40 5 0 27 -18 48 -40 21 -22 45 -40 52 -40 7 0 13 -4 13 -10 0 -5 6 -10 13
-10 8 0 22 -10 33 -21 10 -12 40 -36 66 -53 25 -17 85 -62 132 -99 80 -64 116
-78 116 -46 0 12 -20 30 -107 95 -35 26 -63 54 -63 62 0 38 219 260 242 246 5
-3 24 8 42 25 l32 31 44 -52 c45 -53 209 -219 333 -336 37 -34 74 -74 83 -87
9 -14 23 -25 30 -25 8 0 14 -4 14 -10 0 -5 7 -10 15 -10 8 0 23 -10 34 -21 21
-23 51 -20 51 6 0 8 -17 26 -37 39 -21 13 -73 61 -116 105 -65 68 -75 82 -60
88 10 4 40 24 66 45 27 21 53 38 59 38 6 0 29 -20 52 -44 22 -24 61 -56 85
-71 25 -15 53 -36 64 -46 11 -10 79 -58 151 -106 132 -88 162 -99 211 -79 24
11 56 9 115 -8 25 -7 63 -11 85 -10 22 2 97 4 166 5 102 1 132 -1 163 -16 34
-16 39 -16 53 -2 14 14 13 17 -11 32 -22 15 -50 17 -208 14 -124 -2 -202 1
-242 10 -33 7 -85 11 -115 9 -51 -5 -60 -2 -110 31 -133 89 -234 151 -242 151
-5 0 -9 6 -9 13 0 7 -22 30 -50 50 -30 23 -50 45 -50 57 0 23 -47 50 -88 50
-16 0 -44 -11 -63 -24 -19 -14 -55 -38 -81 -55 l-47 -30 -33 37 c-19 20 -46
45 -61 55 -14 9 -68 65 -118 125 -51 59 -97 109 -103 111 -6 2 -15 10 -19 17
-11 19 -46 18 -53 -1z M2828 1903 c-26 -6 -22 -19 14 -41 24 -15 37 -18 51
-11 10 6 17 15 14 22 -5 15 -58 35 -79 30z M2790 1842 c0 -12 57 -52 74 -52
26 0 30 23 6 42 -22 18 -80 25 -80 10z M661 1736 c-30 -36 -91 -170 -86 -187
4 -10 2 -19 -3 -19 -13 0 -22 -39 -11 -45 5 -3 18 -1 30 5 16 9 19 18 15 36
-4 13 -2 24 2 24 11 0 92 155 92 175 0 18 -27 26 -39 11z M1242 1575 c-11 -13
-25 -38 -32 -56 -11 -26 -11 -32 1 -39 8 -5 19 -4 26 2 17 14 49 67 58 96 9
31 -27 30 -53 -3z M635 1350 c-8 -12 62 -45 125 -59 60 -13 125 -8 126 10 2
29 5 31 27 17 12 -8 37 -18 55 -21 19 -4 48 -13 65 -21 50 -22 90 -35 116 -38
14 -2 26 -9 29 -16 3 -11 -23 -12 -144 -7 -82 3 -165 8 -184 11 -93 14 -198
16 -205 4 -11 -17 -1 -22 57 -26 29 -2 70 -6 91 -9 21 -3 37 -1 37 5 0 5 8 2
19 -7 15 -15 16 -20 5 -29 -22 -18 -16 -25 14 -18 15 3 34 14 43 25 15 16 34
18 165 19 162 2 214 7 192 21 -7 5 -21 6 -32 3 -12 -4 -16 -2 -12 5 4 6 20 11
37 11 16 0 29 5 29 10 0 6 -12 10 -27 10 -40 1 -130 24 -183 47 -128 56 -221
69 -240 34 -8 -16 -17 -19 -48 -14 -20 3 -51 14 -68 24 -34 21 -79 25 -89 9z
M272 1272 c-13 -4 -23 -10 -23 -14 1 -5 1 -12 1 -18 0 -5 7 -10 15 -10 8 0 15
5 15 11 0 19 68 3 145 -36 113 -55 215 -74 368 -67 71 4 37 17 -48 19 -47 1
-101 7 -119 13 -19 6 -47 13 -62 16 -14 3 -51 18 -80 34 -43 24 -163 62 -184
59 -3 -1 -15 -4 -28 -7z M52 1242 c-3 -9 0 -18 6 -20 8 -2 8 -8 0 -22 -16 -25
-9 -30 32 -21 30 6 35 11 35 36 0 25 -5 30 -33 36 -26 5 -35 3 -40 -9z M1305
1241 c-12 -20 73 -35 205 -36 128 -2 220 -14 266 -37 14 -7 28 -7 40 0 26 14
108 9 127 -7 11 -9 47 -12 119 -11 224 5 538 0 632 -10 134 -14 316 -3 334 19
11 14 43 16 235 18 122 1 265 5 317 9 120 8 203 8 260 0 85 -11 318 -17 324
-7 8 13 -18 17 -129 20 -55 1 -129 4 -165 8 -36 3 -103 5 -150 5 -614 -7 -718
-11 -749 -36 -9 -7 -58 -10 -135 -9 -67 1 -273 4 -459 6 -230 3 -341 8 -351
16 -14 12 -199 17 -228 6 -9 -4 -32 -2 -50 4 -53 17 -86 21 -218 27 -69 3
-138 10 -154 15 -37 12 -63 12 -71 0z M50 1136 c0 -8 6 -17 13 -20 10 -5 10
-7 0 -12 -20 -9 -16 -52 5 -57 16 -4 16 -5 0 -6 -10 0 -18 -7 -18 -14 0 -11
20 -14 84 -13 90 1 123 -11 97 -36 -12 -13 -125 -14 -163 -2 -12 3 -18 0 -18
-10 0 -10 9 -17 23 -17 12 -1 33 -3 47 -5 73 -11 143 2 162 30 19 28 7 45 -44
62 -33 11 -46 19 -35 22 23 5 17 26 -9 30 -50 7 -64 13 -64 27 0 8 -12 17 -27
21 -16 3 -34 7 -40 10 -7 2 -13 -3 -13 -10z M1168 1112 c-59 -7 -85 -22 -74
-41 10 -16 52 -13 67 5 10 13 28 14 103 9 50 -3 125 -7 166 -10 208 -13 308
-16 705 -21 540 -6 724 -7 1100 -5 165 1 360 2 434 1 122 -1 152 2 140 15 -17
16 -455 21 -994 10 -104 -2 -226 0 -270 5 -44 5 -305 11 -580 14 -275 2 -513
7 -530 10 -57 10 -210 14 -267 8z M340 1092 c0 -16 42 -43 53 -34 14 11 87 4
87 -8 0 -4 -7 -10 -15 -14 -26 -10 -16 -24 23 -31 54 -11 342 -14 342 -3 0 4
-49 9 -110 9 -60 1 -114 3 -120 4 -5 1 -26 3 -45 4 -30 1 -35 4 -35 26 0 20
-6 25 -37 30 -21 4 -54 11 -73 16 -43 11 -70 12 -70 1z M3855 1050 c-7 -11 81
-24 148 -21 49 2 28 19 -25 20 -29 1 -68 3 -85 5 -18 3 -35 1 -38 -4z M1036
1023 c-4 -5 -85 -12 -139 -12 -32 -1 -56 -5 -53 -10 5 -7 181 -8 181 -1 0 4
58 10 105 10 25 1 52 6 60 11 10 6 -13 8 -68 7 -46 -2 -85 -4 -86 -5z M1798
993 c-66 -5 -61 -25 5 -23 28 1 203 -1 387 -4 613 -12 760 -13 760 -5 0 5 -75
9 -167 9 -321 1 -862 15 -923 24 -8 1 -36 0 -62 -1z M3116 972 c-7 -12 92 -22
119 -11 17 6 15 8 -10 8 -16 1 -46 4 -66 7 -20 4 -39 2 -43 -4z M3485 972
c-71 -1 -134 -7 -140 -13 -7 -7 59 -9 202 -7 117 2 204 6 195 9 -28 10 -119
14 -257 11z M3860 950 c8 -5 26 -10 40 -10 20 0 22 2 10 10 -8 5 -26 10 -40
10 -20 0 -22 -2 -10 -10z M4920 926 c0 -7 7 -19 15 -26 13 -11 15 -8 15 14 0
16 -5 26 -15 26 -8 0 -15 -6 -15 -14z M71 909 c-19 -8 -21 -12 -11 -24 16 -20
39 -19 47 1 8 22 -8 33 -36 23z M1729 884 c-11 -13 -42 -15 -226 -11 -117 2
-213 1 -213 -3 0 -5 78 -10 173 -11 220 -3 300 0 311 11 6 6 18 10 28 10 35 0
17 15 -21 17 -25 2 -43 -3 -52 -13z M1830 888 c0 -5 26 -7 58 -7 61 1 55 6
-15 11 -24 2 -43 0 -43 -4z M2024 878 c-3 -4 16 -9 43 -10 26 0 53 -2 58 -3 6
-1 42 -5 80 -9 39 -5 79 -10 90 -12 11 -2 60 -7 109 -11 69 -5 88 -3 85 6 -3
9 -31 14 -84 16 -44 2 -93 6 -110 9 -94 16 -265 25 -271 14z M238 868 c5 -5
16 -8 23 -6 8 3 3 7 -10 11 -17 4 -21 3 -13 -5z M463 873 c32 -2 81 -2 110 0
29 2 3 3 -58 3 -60 0 -84 -1 -52 -3z M730 874 c36 -8 100 -9 100 -2 0 5 -26 7
-57 7 -32 -1 -51 -3 -43 -5z M1010 870 l-55 -7 52 -1 c28 -1 55 3 58 8 3 6 5
9 3 8 -2 -1 -28 -4 -58 -8z M1085 870 c-3 -5 -1 -10 4 -10 6 0 11 5 11 10 0 6
-2 10 -4 10 -3 0 -8 -4 -11 -10z M1123 874 c4 -4 30 -8 59 -11 32 -2 48 0 40
5 -15 10 -109 15 -99 6z M288 863 c7 -3 16 -2 19 1 4 3 -2 6 -13 5 -11 0 -14
-3 -6 -6z M343 863 c9 -2 23 -2 30 0 6 3 -1 5 -18 5 -16 0 -22 -2 -12 -5z
M2531 851 c-18 -11 -2 -19 31 -16 14 2 155 6 312 9 282 6 286 6 286 -14 0 -11
6 -20 13 -20 6 -1 44 -5 82 -11 106 -15 412 -21 420 -9 5 7 -36 11 -127 10
-73 0 -146 2 -163 4 -16 3 -63 8 -103 12 -58 6 -72 10 -70 23 3 14 -31 16
-332 18 -184 1 -341 -2 -349 -6z M775 469 c-4 -6 2 -17 14 -25 18 -13 21 -25
21 -85 l0 -69 40 0 c43 0 47 8 42 84 -2 18 6 38 20 53 21 22 21 24 3 37 -23
16 -131 21 -140 5z M50 380 c0 -96 5 -104 50 -80 12 6 21 7 25 0 3 -5 21 -9
41 -8 l35 1 -27 28 -26 27 33 31 c18 17 46 35 63 39 37 10 41 36 7 40 -44 7
-91 -7 -91 -27 0 -10 -9 -26 -20 -36 -11 -10 -17 -22 -14 -26 3 -5 -1 -6 -9
-3 -8 3 -17 -2 -20 -10 -12 -31 -25 -15 -23 25 2 28 10 45 25 55 27 19 19 34
-20 34 l-29 0 0 -90z M342 464 c-18 -8 4 -34 28 -34 15 0 17 -8 12 -70 l-5
-70 36 0 c21 0 35 5 34 13 0 6 1 32 2 57 3 43 3 44 14 20 7 -14 22 -40 35 -58
20 -28 29 -32 68 -32 24 0 44 3 44 8 -1 4 -14 25 -30 47 -16 22 -37 55 -47 72
-9 18 -24 35 -32 37 -30 8 -146 15 -159 10z M624 458 c-4 -6 -2 -14 4 -16 8
-2 12 -30 12 -78 l0 -74 30 0 c33 0 35 6 30 103 -1 37 1 47 14 47 31 0 15 17
-21 24 -53 8 -61 8 -69 -6z M1043 461 c-32 -9 -93 -69 -109 -107 -24 -58 -20
-64 40 -64 l55 0 3 42 c2 31 10 46 30 61 29 21 42 19 91 -15 15 -11 20 -10 33
6 22 30 18 65 -8 75 -27 10 -104 11 -135 2z M1264 458 c-4 -6 1 -17 10 -24 13
-9 16 -20 11 -47 -4 -20 -4 -49 0 -66 6 -29 9 -31 54 -31 26 0 51 3 55 7 10
10 86 10 86 1 0 -5 20 -8 45 -8 l45 0 0 70 c0 55 3 71 17 79 28 15 7 25 -52
25 -59 0 -74 -7 -57 -27 6 -7 8 -30 5 -54 l-5 -41 -44 2 c-43 1 -44 2 -45 36
-2 73 -9 82 -66 86 -31 2 -55 -1 -59 -8z M1660 448 c-17 -6 -21 -14 -18 -45 2
-32 6 -37 23 -35 11 2 29 12 40 23 13 11 29 16 41 13 19 -5 21 -11 17 -60 l-5
-54 45 0 c52 0 61 13 55 78 -3 32 0 37 19 38 14 1 29 -8 38 -23 13 -19 19 -22
36 -13 25 14 44 59 30 73 -12 12 -290 16 -321 5z M2606 439 c-17 -11 -17 -12
6 -33 14 -11 33 -42 42 -68 l18 -48 49 0 c54 0 56 4 34 56 -8 20 -12 48 -8 64
l6 30 -51 0 c-28 0 -56 2 -64 5 -7 2 -21 0 -32 -6z M2796 443 c-11 -11 -6 -23
9 -23 22 0 57 -75 49 -105 l-6 -25 76 0 76 0 -32 45 c-31 43 -31 45 -14 64 10
11 21 20 25 19 27 -3 51 4 51 17 0 12 -21 14 -114 14 -62 0 -116 -3 -120 -6z
M3141 440 c-41 -5 -72 -30 -37 -30 23 0 28 -17 13 -47 -8 -15 -18 -38 -21 -50
-7 -20 -4 -23 22 -23 30 0 36 8 62 78 7 18 21 37 31 43 43 23 7 38 -70 29z
M3275 429 c-4 -6 0 -16 9 -22 14 -11 13 -16 -4 -56 -27 -58 -26 -61 15 -61 27
0 35 4 35 18 1 9 9 35 19 57 l19 39 26 -57 c24 -56 26 -57 65 -57 23 0 41 2
41 4 0 2 -13 32 -29 68 -26 56 -34 66 -62 72 -49 10 -127 7 -134 -5z M3582
429 c-26 -10 -21 -29 9 -29 19 0 20 -3 22 -82 1 -25 5 -28 38 -28 32 0 38 4
44 27 l7 28 16 -28 c14 -23 23 -27 60 -27 l44 0 -17 28 c-10 15 -25 36 -35 47
-10 11 -23 30 -29 43 -10 19 -19 23 -59 21 -26 -1 -54 1 -62 4 -8 3 -25 2 -38
-4z M3871 429 c-40 -8 -50 -17 -31 -29 8 -5 15 -24 16 -42 1 -18 2 -41 3 -50
1 -14 10 -18 46 -18 25 0 46 5 46 10 1 6 2 22 3 38 1 15 5 41 10 58 7 30 6 32
-27 36 -18 2 -48 1 -66 -3z M4007 428 c-18 -13 -17 -15 8 -26 26 -12 27 -16
23 -62 l-5 -50 49 0 49 0 -2 50 c-2 27 0 53 4 56 3 3 24 3 46 -1 42 -7 101
-60 101 -90 0 -11 11 -15 39 -15 39 0 39 1 31 29 -20 72 -64 112 -119 110 -20
-1 -74 2 -121 5 -64 5 -89 4 -103 -6z M4589 436 c-2 -3 -37 -6 -76 -7 -59 -2
-76 -6 -92 -23 -26 -28 -41 -69 -34 -95 5 -19 12 -21 67 -20 33 1 54 3 45 6
-9 2 -19 18 -23 35 -11 53 -8 58 27 58 26 0 36 -6 45 -25 21 -46 74 -28 69 24
-4 31 -19 56 -28 47z M2262 380 c-28 -17 -33 -25 -30 -53 3 -30 6 -32 43 -35
32 -3 38 -1 28 9 -7 7 -13 24 -13 37 0 18 4 22 18 18 9 -3 23 -1 31 3 12 8 12
12 2 25 -18 21 -39 20 -79 -4z M2345 300 c-4 -6 7 -10 24 -10 17 0 31 5 31 10
0 6 -11 10 -24 10 -14 0 -28 -4 -31 -10z M4553 293 c15 -2 37 -2 50 0 12 2 0
4 -28 4 -27 0 -38 -2 -22 -4z"/>
</g>
</svg>
